<svg width="384" height="386" viewBox="0 0 384 386" fill="none" xmlns="http://www.w3.org/2000/svg">
<path opacity="0.996078" d="M176.5 0H208.5L209.5 1L228.5 2L249.5 7L269.5 14L311.5 41L330 57.5L354 87.5L371 121.5L376 135.5V139.5L382 161.5L383 179.5L384 180.5V197.5L383 198.5L382 217.5L378 232.5V237.5C375.867 240.367 374.867 244.367 375 249.5L366 269.5L364 277.5C351.533 302.367 335.033 323.2 314.5 340L292.5 357L255.5 375L228.5 382L210.5 385L176.5 386L175.5 385H165.5L134.5 378L111.5 369L88.5 357C84.9 352.6 80.2333 349.267 74.5 347L51 325.5L25 291.5L13 265.5L3 229.5L1 208.5L0 207.5V180.5L1 179.5V171.5L2 170.5L4 151.5L14 118.5C24.6 93.1 39.1 71.6 57.5 54L84.5 32L112.5 17L146.5 5L176.5 0ZM140 18L143 21L158 25H182L198 21L197 19L194 20L189 19L179 21H158L140 18ZM228 18L203 26L191 28H167L166 29L147 28L126 21C124 20.3333 123.333 21 124 23L143 29L154 31H170L171 32C175 30 180.667 29.6667 188 31L189 30L198 31L183 32L182 33H174L173 34H164L163 35C157.667 35.6667 154 35 152 33L145 34L163 38L197 34L205 31L204 28L215 27L217 25C223 24.3333 228 22.6667 232 20C232.667 17.3333 231.333 16.6667 228 18ZM242 25L225 29L224 31L241 28L245 26L242 25ZM113 27V29L129 33V31L126 30H124L113 27ZM221 27L217 29H221V27ZM128 29V30L137 34C138.333 34.6667 138.667 34.3333 138 33L131 29H128ZM214 29V30H216L214 29ZM266 29V30H267L266 29ZM119 31L118 33H119V31ZM262 31L244 38L235 40V41L262 34C264 33.3333 264 32.3333 262 31ZM109 32V34L114 37L132 44L155 48L199 47L225 40V39H219L193 45H157L136 41L109 32ZM219 33L199 38L155 40L157 41H168L169 42H190L219 35H221C221.667 33 221 32.3333 219 33ZM272 36L253 43L242 44L226 49L201 53L184 54L183 55L169 54L165 52L141 51L107 43V45L99 41C96.3333 40.3333 95.3333 41 96 43L102 45L103 48L126 54L138 55L155 59H164V60H148L135 56L118 54L113 52C111 51.3333 110.333 52 111 54L105 53L90 46L89 48L97 54L119 63L127 64V65H122L106 60L100 61C104 64.3333 109.667 66.3333 117 67L118 69L110 67L92 59L82 51L79 52C86.3333 58.6667 95 64.3333 105 69L119 73L138 74L139 75H194L202 73H210L214 71L227 69L233 66L249 63L253 61L252 60H250L216 68L201 69L200 70H177L218 64L243 56V55L193 63H186L240 50C245.333 46.6667 252.333 44.3333 261 43L274 37L272 36ZM268 45L264 47V48L269 46L268 45ZM298 45L296 47L297 49L299 48C299.667 45.3333 299.333 44.3333 298 45ZM262 48V49H263L262 48ZM260 49V50H261L260 49ZM279 49L273 52L272 54L281 50L279 49ZM255 50L245 54V55C251 55 255.667 53.6667 259 51L255 50ZM290 50C281.333 57.3333 271.333 63.3333 260 68V69C272 65 282.333 59.6667 291 53C291.667 50.3333 291.333 49.3333 290 50ZM302 50L299 53C300.333 55 301.667 54.6667 303 52C303.667 50 303.333 49.3333 302 50ZM270 54V55H271L270 54ZM307 55L306 56C304 55.3333 303.333 56 304 58L308 57C308.667 55 308.333 54.3333 307 55ZM265 56L263 57V58L266 57L265 56ZM304 58L302 61L284 76L262 87L237 95L212 101H206L225 96L261 83C273 77.6667 284 70.6667 294 62L296 59L276 70L251 80C236.333 81.3333 223.333 84 212 88L189 89L188 90H155L154 89L152 90L151 89L132 88L101 83L72 70L65 63L63 64L68 72C74 78 82 82.3333 92 85V86L82 84L66 75L58 69L59 72C65 78.6667 72.3333 84.3333 81 89V90C69.6667 86 60.3333 80.3333 53 73L52 75C58 81.6667 65.3333 87.6667 74 93L75 95C65.6667 91.6667 57.6667 87 51 81L48 80L49 83C55.6667 90.3333 64.3333 96 75 100L76 102C66.6667 100 59.3333 96.6667 54 92L45 85L48 91C53.3333 95.6667 60 99.6667 68 103L70 107L73 110C59.6667 106 49.3333 99.3333 42 90C40 89.3333 39.3333 90.3333 40 93C45.3333 98.3333 52 103 60 107L61 110L73 116L95 122L106 124H114L127 127L155 128L156 129L160 128L163 129L175 127H186L192 124L216 122L241 115L266 104L267 102L238 113L216 118L203 120H194L193 121H180L185 120L179 119L214 115L222 113L260 101L295 85L299 80L306 75L308 71L304 72L296 81C294 80.3333 293.333 81 294 83L286 88L251 100L225 106H217L208 108H195L224 104L253 95L277 84L296 71L304 60V58ZM314 58L312 60H314V58ZM305 60V63L307 62C307.667 60 307 59.3333 305 60ZM318 66L317 68H318V66ZM328 70L317 85C316.333 86.3333 317 86.6667 319 86L330 73C330.667 70.3333 330 69.3333 328 70ZM316 71L314 74V75L316 74V71ZM170 77L169 78H153L150 79H148C146 78.3333 145.333 79 146 81L150 82L183 79L170 77ZM214 78L207 80V81L218 79L214 78ZM332 78L324 89L325 90L334 79L332 78ZM112 79L114 81L124 83H137L112 79ZM141 80V81H145L141 80ZM337 82L331 91L325 98L332 93C331.333 91 332 90.3333 334 91L337 87V82ZM141 83V84H144L141 83ZM168 83L163 85L166 86C170 86.6667 173 86.3333 175 85L173 83L171 84L168 83ZM148 85L143 87H149L148 85ZM315 93C313.667 95 314 95.6667 316 95L315 93ZM338 93L334 99L323 108L324 109L339 96C339.667 93.3333 339.333 92.3333 338 93ZM345 95C343 101.667 339.667 106.667 335 110H337L346 99L345 95ZM312 96L295 106L269 115V116L282 114L290 111L304 104L312 98V96ZM351 99L342 117H344C347.333 114.333 349.667 111 351 107V99ZM316 102C309.333 108 301.667 112.667 293 116L292 118C302.667 114.667 311.333 109.667 318 103L316 102ZM31 110C29.6667 112 30 112.667 32 112L31 110ZM320 110L301 123L302 124L317 115L321 111L320 110ZM334 110V111H335L334 110ZM354 110C349.333 118.667 343.333 126 336 132L337 134L345 127C349 123.667 352 119.333 354 114V110ZM50 115L49 117L63 124H64L60 121L58 118L50 115ZM331 115L327 120L332 117C332.667 115 332.333 114.333 331 115ZM360 117L358 120L360 119V117ZM269 118V119H270L269 118ZM289 118L282 121L258 122L240 127L239 129L247 127H259L268 124L280 123L291 119L289 118ZM26 119L25 121L28 122L26 119ZM39 119L38 121L58 134L81 146L105 152H110L109 150H103L95 148L76 141L39 119ZM358 120C354.667 126.667 350 132 344 136C343.333 138 344 138.667 346 138L358 124V120ZM322 121L320 122L318 125L322 123V121ZM79 124V126C90.3333 127.333 100.667 130.333 110 135L126 138H134L125 135H120L98 128L79 124ZM23 126L25 134C34.3333 144 45.6667 152 59 158L61 161C46.3333 155.667 34 148.333 24 139L21 135L18 137L19 139L18 141C25.3333 149.667 34.6667 156.667 46 162L49 166L36 161L14 146L16 151L27 160C28.3333 159.333 28.6667 160 28 162C42.6667 172 59.3333 180.333 78 187L110 193H120L126 195H142V196H113L96 193H87L75 190L58 184L34 171L15 156L13 157L17 164L39 182L63 193V194C51 191.333 41 187.333 33 182L12 166L11 169C17 175.667 24.3333 181.333 33 186C36.3333 184.667 37.6667 185.333 37 188L40 190L57 198L92 209L108 212V213L90 211L61 204L36 193L18 180L15 179L17 181C18.3333 180.333 18.6667 181 18 183L40 197L67 209L100 218L126 220L127 221L142 220L143 219L149 220H172H174L179 219L220 218L236 215H243L277 207L301 198C302.333 198.667 302.667 198 302 196H299L285 202L246 210L240 209L254 207L275 201V199L259 203H250L276 197L310 185C321.333 180.333 330.667 174 338 166V164L331 170L309 182L277 192C273.667 192.667 272.333 192 273 190H271L304 178L328 163L331 159L337 154L339 151L340 149L324 162L300 175L262 186H259L274 179L289 175L307 166L321 157L326 152C327.333 152.667 327.667 152.333 327 151L328 149L292 169L251 179H231L257 176L287 167L298 162L319 149L333 137V135L318 146L305 152L298 157L286 162L270 165H267L295 154L324 135L327 131L291 149H288L276 154L246 162L220 166H214L237 158L256 154L278 146L302 132L303 130L271 142L240 145L198 156L152 157L155 158H167L177 160H191L192 159L206 158L230 149L242 147H253L254 146C258 144.667 259.667 145.333 259 148L235 153L202 164L154 166V164L151 165H120L119 164L102 163L89 160L55 148C44.3333 144 35.3333 138.667 28 132L23 126ZM39 126C37.6667 128 38 128.667 40 128L39 126ZM224 127L209 132L185 133L163 138C159 136.667 157.333 137.333 158 140L176 137L206 135C213.333 133.667 219.667 131.333 225 128L224 127ZM277 129L270 131L271 133L280 130L277 129ZM69 132L70 134L88 142L106 146H119L120 145L121 146H149L148 143L144 144L141 143L139 144H121L120 143L117 144L92 141L69 132ZM363 132C357 142 350 151 342 159H344L363 138V132ZM306 133V135L308 134L306 133ZM304 135L296 139L295 141L305 136L304 135ZM236 136L233 137L232 139L239 137L236 136ZM221 139L209 142H201L184 145H172L171 147H191L199 145H205C207 143 210.667 142.333 216 143L224 140L221 139ZM339 139L333 143L334 144L339 141V139ZM364 146L357 154L344 168L349 165L351 162L356 158L365 147L364 146ZM366 150L365 153L366 155L368 151L366 150ZM125 154C123.667 156 121 156.333 117 155L118 157H145L148 156L142 155H140L137 154L134 155L125 154ZM369 158C369.667 160.667 369 163 367 165L368 168L372 161C372.667 157.667 371.667 156.667 369 158ZM342 168L340 171L343 169L342 168ZM362 173C358.667 174.333 358.333 175.667 361 177L363 174L362 173ZM14 176C12.6667 178 13 178.667 15 178L14 176ZM367 177L356 193L357 194L367 180V177ZM372 178C368.667 185.333 364.333 192 359 198L355 201L351 206L340 212L339 214C346.333 212 352.333 208.333 357 203C363.667 197.667 368.667 190.667 372 182V178ZM372 188L364 202L357 209C356.333 210.333 357 210.667 359 210C364.333 205.333 368.667 199.333 372 192V188ZM377 188L376 190H377V188ZM376 190L364 211L351 226L352 227C362 217.667 370 206.333 376 193V190ZM8 192L7 195H8V192ZM329 192L303 209L301 212L299 213V214L302 213C304 213.667 304.333 212.667 303 210C308.333 209.333 312.667 207.667 316 205L331 193L329 192ZM356 194L354 196H356V194ZM25 196L28 200L40 207C41.3333 207.667 41.6667 207.333 41 206L31 198L25 196ZM347 202L344 204L342 207L348 203L347 202ZM9 205L11 211C17 217.667 24.3333 223.333 33 228L51 235H54C39.3333 230.333 27.3333 223.667 18 215L11 207L9 205ZM18 205V207C23.3333 213 30.3333 217.667 39 221L60 227L74 234L97 238H99L101 239H102L97 236L76 233L63 226L41 220L27 212L18 205ZM339 207L334 210V211L341 208L339 207ZM375 207L363 225L352 237L353 238L355 237C363 229 369.667 219.667 375 209V207ZM296 209L293 211H296V209ZM330 211L327 213C324.333 212.333 323.333 213 324 215L332 212L330 211ZM354 211V213L356 212L354 211ZM330 213V215L333 214L330 213ZM296 214L294 215L292 218L298 215L296 214ZM279 219L262 227C260 226.333 259.333 227 260 229L279 221V219ZM191 221L181 223L179 222L159 224V225H183L184 224H194L198 222L191 221ZM228 222L214 227L196 231H184L173 234H148L135 236L136 238L191 235L213 230L231 223L228 222ZM105 224V226H115L116 227L146 226L147 224H116L115 225L105 224ZM313 226L312 228L315 227L313 226ZM75 227V228L81 230L102 232L119 236C122.333 237.333 123.667 236.667 123 234L100 231L94 229H88L82 227H75ZM310 228V229H311L310 228ZM258 230L254 232V233L258 232V230ZM269 231V232H270L269 231ZM220 232L218 233V234C221.333 234.667 224 234.333 226 233L220 232ZM293 232L248 255L222 262L194 266V267L219 265L245 259C262.333 251 279 242.333 295 233L293 232ZM350 232L337 242L331 245L317 247L307 251L274 273L260 278H239L229 276L183 280L182 281H179L187 278L214 276C215.333 273.333 218.333 272 223 272V271H212L202 273H186L185 274L182 273H171L170 274L129 272L88 264L38 248L19 236C17 235.333 16.3333 236 17 238L36 250L54 259L71 265V266L59 264L40 257C30.6667 253 22.6667 248 16 242L14 243C26.6667 255 41.6667 264.667 59 272L60 275C44.6667 271 31.6667 264.667 21 256L20 258L35 270L56 281L96 294C97.3333 293.333 97.6667 294 97 296L109 299V300L80 294L52 284C42.6667 280.667 34.6667 276 28 270L30 274L28 272L26 273L37 281C43.6667 282.333 49.3333 285 54 289L78 296L91 302C99.6667 304.667 109.333 306.667 120 308L136 314H140L123 307L122 305L151 310H163L162 309C166 307 171.333 306.333 178 307H180H198L221 302L234 301L270 292V291H264L239 297L216 299L192 303L186 302H152L138 299V298L164 299L169 301C173 299 178.667 298.667 186 300L187 299L183 298L201 297L210 295H217L227 292H237L244 290C247.333 291.333 248.667 291 248 289L250 287L261 285V284L241 286L240 287H231L230 288H221L213 290H204L203 291H155L163 289H185L186 288L215 286V285H207L206 286H200L229 281L231 282L234 281L248 282H250H265L275 280L305 262L320 258C324.667 259.333 326.333 258.333 325 255L314 257L303 261L278 274H276L308 253L337 244C342.333 241.333 347 237.667 351 233L350 232ZM265 233L256 235L244 240V241C253.333 240.333 261 238 267 234L265 233ZM366 233L365 235H366V233ZM361 234L357 240L361 237V234ZM328 236L327 237C325 236.333 324.333 237 325 239L330 237L328 236ZM318 237L294 247L285 254L276 258L261 268L249 271L227 273L226 275H244L260 272L284 259L299 248L324 239L318 237ZM46 239L47 241L59 246H60L54 241L46 239ZM356 240L342 250L343 252C348.333 249.333 353 245.667 357 241L356 240ZM361 240L358 243L359 246L361 243V240ZM292 241V242H293L292 241ZM290 242L261 258V259L283 249L291 243L290 242ZM103 244V245L120 248L144 249H146L147 248H164C168 246 173.333 245 180 245V244L141 245L140 246L138 245L103 244ZM223 244L222 245L202 246L185 250V251L215 248L228 245L223 244ZM74 247L76 250C86 250.667 94.6667 252.667 102 256H109C98.3333 254 88.6667 251 80 247H74ZM180 251V252H181L180 251ZM353 252L352 254L354 253L353 252ZM112 253V254L116 255H124L142 258H158L159 259H179L181 258L172 257L171 256H152L151 255L112 253ZM349 254V256L351 255L349 254ZM361 256L356 260L343 274L362 257L361 256ZM334 258L331 259V260C334.333 260.667 336.667 260.333 338 259L334 258ZM258 259L256 260V261L260 260L258 259ZM253 261L252 263L255 262L253 261ZM148 262V263L153 264L160 263L148 262ZM339 267L329 274L328 276L341 268L339 267ZM357 268C343.667 282 328.333 293.333 311 302L310 304C324 298 336.333 290.333 347 281L357 270V268ZM309 272L291 276L279 282L270 284V285H275L302 275L312 274L309 272ZM341 274L326 284L325 286C331.667 283.333 337.333 279.667 342 275L341 274ZM323 286V287H324L323 286ZM305 293C292.333 296.333 281 300.667 271 306V307C283.667 303.667 295.333 299.333 306 294L305 293ZM339 293C326.333 302.333 312 309.667 296 315L295 317C313 312.333 328 304.667 340 294L339 293ZM43 296V297H44L43 296ZM190 298V299H191L190 298ZM46 300V302L49 303H51L46 300ZM308 304V305H309L308 304ZM51 305L52 307L58 310C61.3333 311.333 62.6667 310.667 62 308L51 305ZM299 305L286 310C284 311.333 284 312.333 286 313L301 306L299 305ZM236 306L211 310L161 312L164 313H184L185 314L218 312L240 308L242 307L236 306ZM82 309L81 311L98 315H106L98 313H96L82 309ZM62 311V312L71 316L90 321H93L62 311ZM317 313L301 322L300 324C307.333 322 313.667 318.667 319 314L317 313ZM239 315L232 317V318L241 316L239 315ZM106 318L104 320L107 321L133 324L153 328H180L153 326L106 318ZM152 318V320L169 323C176.333 323.667 182.333 323.333 187 322L170 321L152 318ZM225 318C220.333 320 215 321 209 321V322L225 321L231 319L225 318ZM275 319L256 327L237 329L235 332L254 329L275 321V319ZM64 320L67 323L80 329L104 335L124 342L139 345H170L171 344L189 343L190 342H208L230 338H239L251 335V334L232 337L195 339L194 340H177L176 341H156L155 340H141L140 339L137 340L118 337L96 329L84 327L64 320ZM310 326L290 334L288 336L268 343V344H272L281 341L311 327L310 326ZM277 327L267 331C264.333 330.333 263.333 331 264 333H267L277 330L280 328L277 327ZM198 331L195 332V333H216L217 332L198 331ZM281 331L270 336L246 341L238 344L192 352H157L156 351L141 350L123 346L101 338C93 337.333 86.6667 335.667 82 333L79 334L86 337L98 340L116 348L132 353L145 355H159L160 356L164 355L170 356C174 357.333 176.667 357 178 355L180 356L181 355H192L193 354L207 353L226 348L249 344L268 339L282 332L281 331ZM252 333V334H253L252 333ZM301 336L269 350C267 349.333 266.333 350 267 352L291 344L301 338V336ZM93 344L94 346L124 357V355H122L114 350L93 344ZM266 344V345H267L266 344ZM263 351L254 354V355C259.333 355 263.333 354 266 352L263 351ZM226 357L198 362H190L189 361L157 363L168 365L206 363L233 358L226 357ZM115 358L117 360H120L115 358ZM139 358V359L145 361H151L144 358H139ZM241 359L239 360V361L245 360L241 359ZM121 360L123 362L134 365H138L134 362L121 360ZM228 365L218 367L196 368L195 369H170L168 371C169.333 372.333 172.333 372.667 177 372H179H190L208 369H216L232 366L228 365ZM145 366V367H148L145 366ZM137 367V368L152 370L151 367L148 368H150V369L143 367H137Z" fill="#080808"/>
<path opacity="0.996078" d="M106.5 94L115.5 96H123.5L126 97.5L121.5 98L106.5 95V94Z" fill="#080808"/>
<path opacity="0.996078" d="M138.5 96L177.5 97L178.5 96H190.5V97L178.5 99H153.5L150.5 98C144.033 99 140.033 98.3333 138.5 96Z" fill="#080808"/>
<path opacity="0.996078" d="M83.5 100L95 103.5L89.5 104L83 102L83.5 100Z" fill="#080808"/>
<path opacity="0.996078" d="M155.5 107H169.5L179 108.5L158.5 109L155.5 108V107Z" fill="#080808"/>
<path opacity="0.996078" d="M84.5 112L97 116.5L94.5 117L84.5 113V112Z" fill="#080808"/>
<path opacity="0.996078" d="M110.5 112L138 114.5L119.5 115L110.5 113V112Z" fill="#080808"/>
<path opacity="0.996078" d="M164.5 121L178 121.5L164.5 122V121Z" fill="#080808"/>
<path opacity="0.996078" d="M69.5 160C79.9667 164.2 91.6333 167.2 104.5 169L124 175.5L121.5 176L72.5 163L69.5 160Z" fill="#080808"/>
<path opacity="0.996078" d="M55.5 168L64.5 170C68.7 173.2 73.8667 175.367 80 176.5L77.5 177L60.5 172C57.4333 171.2 55.7667 169.867 55.5 168Z" fill="#080808"/>
<path opacity="0.996078" d="M141.5 170L185.5 171L188.5 170V171L181.5 173H145.5L136 171.5L141.5 170Z" fill="#080808"/>
<path opacity="0.996078" d="M208.5 178L212 178.5L206.5 181L192.5 182V181L208.5 178Z" fill="#080808"/>
<path opacity="0.996078" d="M141.5 189L197 189.5L184.5 191L182.5 190L181.5 191H145.5L141.5 190V189Z" fill="#080808"/>
<path opacity="0.996078" d="M258.5 192L259 194L238.5 199L192.5 202V201L239.5 197L258.5 192Z" fill="#080808"/>
<path opacity="0.996078" d="M128.5 208C132.167 207 134.5 207.333 135.5 209H164.5L170 210.5C166.267 212.767 160.767 213.267 153.5 212L144.5 210L128.5 209V208Z" fill="#080808"/>
<path opacity="0.996078" d="M216.5 212L222 212.5L210 215C209.066 212.333 210.9 211.667 215.5 213L216.5 212Z" fill="#080808"/>
<path opacity="0.996078" d="M93.5 273L110 277.5L106.5 278L95.5 275L93.5 273Z" fill="#080808"/>
<path opacity="0.996078" d="M68.5 280L85 284.5L81.5 285L68.5 281V280Z" fill="#080808"/>
<path opacity="0.996078" d="M62.5 172L64 172.5L62.5 173V172Z" fill="#646464"/>
</svg>
