<svg width="344" height="354" viewBox="0 0 344 354" fill="none" xmlns="http://www.w3.org/2000/svg">
<path opacity="0.996078" d="M159.5 0H179.5L180.5 1L201.5 3L239.5 15C263.7 25.8 283.867 40.6333 300 59.5C313.8 74.7 324.8 92.7 333 113.5L342 147.5L343 165.5L344 166.5V188.5L338 223.5C334.533 236.033 329.867 247.367 324 257.5C313.533 277.7 300.033 294.867 283.5 309L247.5 334L226.5 344L209.5 349L192.5 352L158.5 354L122.5 347L97.5 336L70.5 320L49 301.5L21 263.5L9 235.5L1 201.5L0 169.5L1 168.5L2 149.5L5 135.5L11 115.5L19 97.5C32.1333 73.6333 48.6333 53.1333 68.5 36C92.3667 17.5333 122.7 5.53333 159.5 0ZM161 12V14L171 17H176C172 13.6667 167 12 161 12ZM149 13V14H151L149 13ZM188 14L189 16L197 19H202C198.667 15.6667 194 14 188 14ZM134 15L135 18L134 19L137 20L138 23L153 29V30H149L140 27L126 18L123 20C121 19.3333 120.333 20 121 22H118L112 25C110 24.3333 109.333 25.3333 110 28L122 37L128 44L120 40L111 38L108 35L105 32L103 30L99 28V31L105 36C106.333 35.3333 106.667 36 106 38L115 44L134 48H162L188 59H194L162 45V44H175L189 51C190.333 50.3333 190.667 51 190 53L194 54H196L209 53L235 42L236 40L210 47H197L196 46C192.667 46.6667 191.333 46 192 44L209 43L231 36L232 34L208 39H186L169 35V34L175 35H204L216 32V31C212 30.3333 209.667 30.6667 209 32H185L184 31L169 30C157 27.3333 147.333 22.6667 140 16L134 15ZM148 15C148.667 17.6667 151 19.6667 155 21L178 27H195L179 24L159 17L148 15ZM183 17V18H184L183 17ZM225 21L222 23H225V21ZM216 23L215 24H206L205 26H211L219 24L216 23ZM234 24L233 26L236 25L234 24ZM228 27L219 30V31C223.667 31 227 30 229 28L228 27ZM242 28L238 30L239 32L243 30L242 28ZM84 38L82 40L83 43C85.6667 47.6667 90 51 96 53L99 57C91 54.3333 85 50.3333 81 45C76.3333 44.3333 73.3333 45.6667 72 49L78 60L77 62L78 64L88 70H94L101 72H123L144 77L179 101L191 105C195 103.667 197.667 104 199 106L215 105L229 99L249 95C251 95.6667 251.667 95 251 93L249 94L248 91L234 95C230 96.3333 228.333 95.6667 229 93L240 90C242.667 90.6667 243.667 90 243 88H248L256 85L257 83H251L241 86H234L210 94H202V91L211 90L216 87L235 82L234 79L246 77L247 75L239 77L235 76L222 77L205 82C191.667 82 181 79.6667 173 75V74L194 79L203 78L216 71L238 66C239.333 66.6667 239.667 66 239 64L227 67H220L208 71H192L171 62V61L178 63H180C178 59.6667 174.333 58.3333 169 59V61L164 59L147 60L146 61L115 57L92 47L87 41L84 38ZM260 39L252 44L250 47L260 42C262 41.3333 262 40.3333 260 39ZM252 40L249 42C246.333 41.3333 245.333 42 246 44C249.333 44.6667 252 44 254 42L252 40ZM266 44L259 52C263 50.6667 266 48.3333 268 45L266 44ZM273 50L259 62L253 65L252 67C258 65 263.333 62 268 58L274 51L273 50ZM67 53L65 55L74 73L84 79L97 82L99 81C97.6667 79 95 78.3333 91 79L78 71L67 53ZM212 56L202 58V59L215 58C215.667 56 214.667 55.3333 212 56ZM277 56L261 68L259 71L266 68L277 58V56ZM232 57L227 59V60L233 58L232 57ZM247 61V62H248L247 61ZM243 62V64L246 63L243 62ZM249 64L247 65V66L250 65L249 64ZM54 65L53 67H54V65ZM290 65V67L292 66L290 65ZM53 67L48 74L46 83C45.3333 91 47.3333 97 52 101C57.3333 108.333 65.6667 113 77 115H85L99 110L113 107L124 108L122 109L109 111L92 119L79 121L65 118L58 113L45 100C42.3333 96.6667 41.3333 92 42 86L40 87C40.6667 95.6667 43.3333 102.333 48 107L67 123L82 127C86 128.333 88.6667 128 90 126L98 127L90 131H71L67 130C57 127.333 49 122.667 43 116C38.3333 112.667 35 108.333 33 103C34.3333 99 33.6667 97.3333 31 98C31.6667 101.333 31 103.667 29 105V108L34 118C38 122.667 43.3333 126.333 50 129V130L44 129L31 119L26 110L24 114L27 122L42 140V141L34 135L24 123L21 121C21.6667 128.333 24 134 28 138L45 151C47.6667 153.667 51.6667 155 57 155L58 157L47 155L30 145L24 139L19 135C20.3333 141.667 23.3333 147.333 28 152L48 164L62 167H64C76.6667 167 86.6667 164 94 158L95 159C91 163 86 166.333 80 169L65 172L51 171C41 167 32.6667 162 26 156L28 161L36 168L53 176H67L82 172L91 167C96.3333 160.333 103.333 155 112 151L121 147L131 145C140.333 143.667 148.333 144 155 146L165 150L176 157L190 160H211L229 153L240 145L244 139L226 150L210 153L200 152L216 147H220C228.667 143 236.667 138 244 132C245.333 132.667 245.667 132.333 245 131L262 119L267 118L280 111L284 106L271 110L246 124C240.667 124.667 236.667 126.333 234 129L219 135L207 137L192 136L180 131L148 111L129 105H121L120 104L119 105H105L93 108L76 107C69.3333 105 64.3333 102 61 98L55 91L52 74L53 72V67ZM279 67L275 70L273 73L280 69C280.667 67 280.333 66.3333 279 67ZM286 70L278 79L287 72C287.667 70 287.333 69.3333 286 70ZM296 71L288 81L289 82L295 77L294 76L296 73V71ZM255 73L252 74L253 76L258 75C258.667 73 257.667 72.3333 255 73ZM63 75C61.6667 77.6667 62 79.6667 64 81L66 82L63 75ZM270 76L264 79L263 81L272 77L270 76ZM114 78L109 80L134 81L135 82H137L133 79L114 78ZM288 78L271 89L270 91C278 88.3333 284.333 84.3333 289 79L288 78ZM301 80L294 88L285 94C283 93.3333 282.333 94 283 96L295 90L302 82C302.667 80 302.333 79.3333 301 80ZM70 84V86L76 90H77L70 84ZM60 87L61 91L69 98L81 102H82L70 96C67.3333 96.6667 66.6667 95.6667 68 93L62 89C62.6667 87 62 86.3333 60 87ZM103 89C98.3333 91 92.3333 91.6667 85 91L87 94H100L101 93L125 94L142 98L171 117C172.333 117.667 172.667 117 172 115L169 114L160 107L161 104L148 96L136 91L124 89H103ZM307 90L303 93L299 98L300 99L307 93V90ZM80 91V92H81L80 91ZM264 91L261 92L260 94L266 93C266.667 91 266 90.3333 264 91ZM313 95V97L315 96L313 95ZM103 98L102 99C98 97.6667 96.3333 98.3333 97 101C99 99.6667 103 99.3333 109 100L112 99L103 98ZM165 103L174 113L187 119H189C179.667 115 171.667 109.667 165 103ZM229 106L210 112C204 113.333 199.667 113 197 111H195L189 112L202 115L215 114L232 108H246L249 107L229 106ZM293 107L282 112L283 114L294 108L293 107ZM298 116L268 131H265L259 138L278 127L292 123L299 117L298 116ZM323 116C321 116.667 320.667 117.667 322 119L320 122C320.667 123.333 320.333 123.667 319 123L317 126L303 136L300 140L312 134L323 120V116ZM222 117V118H224L222 117ZM312 118V119H313L312 118ZM312 121L309 125L313 122L312 121ZM195 125L194 127L200 129L204 128L208 129C211.333 130.333 213.667 130 215 128C217 128.667 217.667 128 217 126H196L195 125ZM307 125L299 130L297 133C301.667 131.667 305.333 129.333 308 126L307 125ZM186 127V128H187L186 127ZM325 128L323 131C317 138.333 309.667 144.333 301 149L299 152L310 147L325 131V128ZM291 134L289 137L294 135L291 134ZM284 137V138H285L284 137ZM282 138L264 146L237 166L223 173L221 176L217 177L214 176H203L202 177L201 176L186 175L157 164L146 162C137.333 162 130.333 163.333 125 166L84 190L61 196L49 195L35 188L34 190L53 199L54 201C40.6667 199 30.6667 193.667 24 185C22 184.333 21.3333 185 22 187L46 206L56 210L67 212L91 209L126 192L146 187L166 188L204 196H220L229 194L248 185L260 172V170L241 182L222 188H201L198 186V185L202 186L221 185L232 181L242 176L253 167L271 156L284 150L286 147C287.333 147.667 287.667 147 287 145L276 150V148L248 164L246 165L251 159C252.333 159.667 252.667 159 252 157L265 148L281 141L283 139L282 138ZM324 142L322 144H324V142ZM328 143L326 146L329 144L328 143ZM320 145C316 149.667 311 153 305 155L304 157L309 156L321 146L320 145ZM326 146L325 147C323 146.333 322.333 147 323 149L326 148V146ZM277 147V148H278L277 147ZM13 149L12 151H13V149ZM128 152L110 159L101 166L96 172L112 162L127 157H137L138 156L156 158L169 165H170L155 154L149 152H128ZM296 152L295 154L298 153L296 152ZM14 153V162L21 174L28 179L29 180L22 171C22.6667 169 22 168.333 20 169L14 153ZM324 153L316 160L317 161L324 155V153ZM292 154L291 156L294 155L292 154ZM286 157L285 159L287 158L286 157ZM300 158L291 162L290 164L301 159L300 158ZM178 160L181 163L194 167L196 166L178 160ZM314 161V162H315L314 161ZM231 162L220 167L214 168V169C221.333 169 227 167.333 231 164V162ZM277 164L276 168L280 165L277 164ZM202 168L199 169V170H208L202 168ZM210 168C209.333 170 210 170.667 212 170C212.667 168 212 167.333 210 168ZM275 169L272 173L276 170L275 169ZM324 170L321 172L318 176L325 171L324 170ZM94 172V173H95L94 172ZM280 172V174L282 173L280 172ZM271 173L270 175H271V173ZM10 174C10.6667 182.667 13.6667 189.667 19 195L23 197L25 201H27L17 188C15.6667 182 13.3333 177.333 10 174ZM307 174C293 179.333 281.667 187 273 197L270 201L250 214L231 219L221 217H213L176 209H156L130 214C118.667 219.333 109 226 101 234L84 241H66L56 239L46 234H43L25 222L19 216L17 218L23 227L43 240C48.3333 243.333 55.3333 245 64 245V246L43 245L32 241L25 236L20 233L22 237L47 256L79 266V267C56.3333 267 39.6667 261.333 29 250L27 251C37 261 50.6667 268 68 272L97 271L100 269C108 268.333 115.333 266.333 122 263L123 261L109 265C102.333 264.333 97 265 93 267H84L124 255L142 246L155 237L175 231H186C191.333 233 198 234 206 234L220 239L242 238L252 235C263.333 231 273.333 225 282 217L288 211V209V206C275.333 219.333 259 228.667 239 234H222L213 232V231H221L222 232H233L251 228C260.333 224 268.333 218.667 275 212L284 201L259 218L241 225H238L241 224L238 223L253 218L267 209L272 204C273.333 204.667 273.667 204.333 273 203L279 198L280 196L296 181L308 176C308.667 174 308.333 173.333 307 174ZM333 174L330 178L321 184C319 183.333 318.333 184 319 186C325.667 184.667 330.667 181.333 334 176C334.667 174 334.333 173.333 333 174ZM276 175V177L278 176L276 175ZM267 177L253 192L258 189L267 179V177ZM275 178L273 181L275 180V178ZM30 180C32 184.667 37 187.667 45 189V187L30 180ZM273 181L265 191C258.333 197.667 250.333 202.667 241 206L240 208L246 207L261 198L273 183V181ZM333 185L322 194L297 208L296 210L323 196L333 187V185ZM312 188L295 198L291 203L313 189L312 188ZM151 191L130 197L102 212L76 218H60L45 214L40 211L36 212L46 218L57 221H81L95 218L134 198L167 192L151 191ZM331 196L320 205L317 209L325 205L331 198V196ZM15 198C13.6667 200 14 200.667 16 200L15 198ZM147 201L121 210L122 212L151 202L147 201ZM22 206V210L25 211L22 206ZM237 206L229 209V210C233 210 236.333 209 239 207L237 206ZM13 208L16 212V210L13 208ZM32 208V209H33L32 208ZM34 209L35 211H36L34 209ZM315 209V210H316L315 209ZM227 210V211H228L227 210ZM307 210L304 214L308 211L307 210ZM302 214V215H303L302 214ZM107 217L103 219L101 222L107 219V217ZM296 218L295 220L297 219L296 218ZM32 219L33 221H34L32 219ZM293 220L277 234L267 240L261 243L248 246L247 248L261 246C270.333 242 278.667 236.333 286 229L287 227L294 221L293 220ZM35 221L37 224L45 227L48 230L63 233H73L55 229L42 225L35 221ZM281 227L280 229L282 228L281 227ZM277 229V231L279 230L277 229ZM317 230L305 239H307H308L306 240V241L316 236L318 233H317V232V230ZM75 231V232H79L75 231ZM175 240L156 244L139 256L134 261L136 262L154 249L162 245L174 242H185L186 241L187 242L202 243L207 245H210L206 242L193 240H175ZM317 240L308 248C306 247.333 305.333 248.333 306 251L290 262L289 264L294 262L306 253L307 251L318 242C318.667 240 318.333 239.333 317 240ZM297 242L276 258C274 257.333 273.333 258 274 260C283.333 256 291.333 250.333 298 243L297 242ZM237 249V251L241 250L237 249ZM183 250L182 251H173L159 255L146 265C144 264.333 143.333 265 144 267L162 257L189 251L183 250ZM235 255V256H237L235 255ZM264 255V256H265L264 255ZM258 256L255 258H259L258 256ZM260 256V257H262L260 256ZM310 257L290 272L284 274L283 276C295 272.667 304.333 266.667 311 258L310 257ZM286 260C278.667 266 269.667 270 259 272H243L212 264L191 263L190 262L173 265L167 268L145 287L132 294L109 299L93 300H91L80 303L84 305C89.3333 304.333 94 305 98 307L112 306H114C128 304.667 139 300.333 147 293L148 294L135 305L126 308C124.667 310 123.667 310.333 123 309L112 311H93L78 307L73 308C75.6667 311.333 79.6667 313.333 85 314L84 311L89 313C95.6667 312.333 101.333 313 106 315C114.667 315 122.333 313.667 129 311L140 305L151 296L155 291L153 292L158 286C159.333 286.667 159.667 286.333 159 285C165.667 276.333 175.667 271 189 269H205L246 276L268 274L267 273C275 269.667 281.667 265.667 287 261L286 260ZM268 261L256 265L257 267L269 262L268 261ZM287 264L283 266L281 269L288 265L287 264ZM152 268L137 279L125 285L108 290C105.333 289.333 104.333 290 105 292C125 288.667 141 281 153 269L152 268ZM118 272L106 277L105 279C110.333 277.667 115 275.667 119 273L118 272ZM186 272C179.333 273.333 174 275.667 170 279L157 293L138 310L118 319H102L87 316L84 317L89 320L102 323L119 322L133 315C133.667 312.333 134.667 312 136 314L144 310L167 290L183 284L200 283H202L215 285L231 291H258L269 289L270 287L260 289H238L234 287L222 285L210 280L190 279L196 277L213 278L236 284H249L257 282H264L273 279C275 279.667 275.667 279 275 277L256 281H241L233 277L203 272H186ZM299 274C294.333 279.333 288.667 283 282 285L281 287C289.667 285 296 281 300 275L299 274ZM278 276L276 278H279C279.667 276 279.333 275.333 278 276ZM69 279C69 281 70.6667 281.667 74 281C74.6667 278.333 73 277.667 69 279ZM51 281L52 283L61 287L78 292C82 290.667 84.6667 291 86 293H95L96 292L85 291L51 281ZM273 286V287H274L273 286ZM189 290L180 293V294L187 292H198L207 291L189 290ZM66 297C66 299 68 300.333 72 301C76.6667 302.333 79.6667 302 81 300L66 297ZM279 297L272 300C270 299.333 269.333 300 270 302L277 301L280 299C280.667 297 280.333 296.333 279 297ZM213 298V300L215 299L213 298ZM188 299L172 304L154 320L140 328C135.333 327.333 132.333 328 131 330L127 329C123.667 328.333 122.333 329 123 331L127 332L141 331L147 328L176 306L186 302H205V300C201 298.667 195.333 298.333 188 299ZM252 300L246 302V303C250 303.667 252.667 303 254 301L252 300ZM267 300L260 303V304L266 303L267 302V300ZM248 306L240 308V309C246.667 309.667 251.667 309.333 255 308C255.667 305.333 254 304.667 250 306H248ZM192 307C190.667 309 188.333 309.333 185 308L182 311H178C170 313.667 163.667 317.667 159 323C159.667 324.333 159.333 324.667 158 324L155 328L175 317L187 313H208L214 316L216 315L225 317C228.333 318.333 229.667 317.667 229 315L222 314L210 308L192 307ZM86 314V315H89L86 314ZM247 314L246 315H232C230 316.333 230 317.333 232 318L247 317L255 315L247 314ZM191 318L178 322L160 332C153.333 332.667 148.333 334.333 145 337H138L136 339L139 340H144L154 337L166 332L176 325L195 320C195.667 317.333 194.333 316.667 191 318ZM220 321L221 323L223 322L226 323C226.667 321 224.667 320.333 220 321ZM235 327L234 328H226L223 330L229 331L240 329C240.667 326.333 239 325.667 235 327ZM193 328L162 339L161 341L170 339L186 332L197 330L198 329L193 328ZM215 329L214 331H218L215 329ZM205 330C204.333 332 205.667 332.667 209 332C209.667 329.333 208.333 328.667 205 330Z" fill="#080808"/>
<path opacity="0.996078" d="M123.5 24L137 30.5L134.5 31L124.5 26L123.5 24Z" fill="#080808"/>
<path opacity="0.996078" d="M123.5 32L134.5 35L143 41.5L141.5 41C133.7 39.1333 127.7 36.1333 123.5 32Z" fill="#080808"/>
<path opacity="0.996078" d="M77.5 50L91 59.5L89.5 59C83.5667 57.2 79.5667 54.2 77.5 50Z" fill="#080808"/>
<path opacity="0.996078" d="M125.5 68H133.5L144.5 71L146 70.5C145.533 72.0333 146.033 72.5333 147.5 72C156.967 76.2 164.467 82.3667 170 90.5L168.5 90H166.5L147.5 76C141.367 72.4667 134.033 70.1333 125.5 69V68Z" fill="#080808"/>
<path opacity="0.996078" d="M117.5 113H136.5L144.5 116H148.5L150 117.5L148.5 117L132.5 116L131.5 115H118.5L111.5 117L112.5 115L117.5 113Z" fill="#080808"/>
<path opacity="0.996078" d="M146.5 127C153.033 127.2 157.867 129.033 161 132.5L159.5 132L146.5 128V127Z" fill="#080808"/>
<path opacity="0.996078" d="M46.5 135L64.5 141L75 141.5L73.5 143H62.5L51.5 140L46.5 135Z" fill="#080808"/>
<path opacity="0.996078" d="M126.5 138L139 138.5L129.5 139L115.5 143V142L126.5 138Z" fill="#080808"/>
<path opacity="0.996078" d="M182.5 138L207.5 142C208.5 140.333 210.833 140 214.5 141V142L202.5 144L184.5 141L182.5 138Z" fill="#080808"/>
<path opacity="0.996078" d="M93.5 147L95 147.5L86.5 152V151L93.5 147Z" fill="#080808"/>
<path opacity="0.996078" d="M177.5 149L183 151.5L180.5 152L177.5 149Z" fill="#080808"/>
<path opacity="0.996078" d="M139.5 176H150.5L158 177.5L141.5 178L130.5 180L120.5 184L94.5 202L77.5 207L64.5 208V207H71.5L85.5 203C99.6333 196.8 112.3 189.133 123.5 180L139.5 176Z" fill="#080808"/>
<path opacity="0.996078" d="M89.4999 192L90.9999 192.5L78.4999 200L60.9999 202C60.2666 199.667 62.4333 199 67.4999 200L77.4999 198L89.4999 192Z" fill="#080808"/>
<path opacity="0.996078" d="M185.5 218L209.5 220L226.5 223L231.5 222V223C227.3 224.867 221.633 225.2 214.5 224L213.5 223L193.5 221L185.5 219V218Z" fill="#080808"/>
<path opacity="0.996078" d="M125.5 219L127 219.5L117.5 225L118.5 223L125.5 219Z" fill="#080808"/>
<path opacity="0.996078" d="M157.5 220L160 220.5L146.5 226L147.5 224L157.5 220Z" fill="#080808"/>
<path opacity="0.996078" d="M143.5 237L142.5 239L138 241L136.5 244L118.5 253L109.5 255V254L123.5 249L143.5 237Z" fill="#080808"/>
<path opacity="0.996078" d="M116.5 238L118 238.5C112.933 243.1 106.767 246.6 99.5 249L82.5 250L81.5 249L66 248.5L83.5 248L84.5 247H86.5L96.5 246L116.5 238Z" fill="#080808"/>
<path opacity="0.996078" d="M124.5 239L127 239.5L113.5 247L114.5 245L124.5 239Z" fill="#080808"/>
<path opacity="0.996078" d="M61.5 256L64.5 257H86.5L90 258.5L72.5 260L63.5 258L61.5 256Z" fill="#080808"/>
</svg>
