<svg width="344" height="345" viewBox="0 0 344 345" fill="none" xmlns="http://www.w3.org/2000/svg">
<path opacity="0.996078" d="M152.5 0H189.5L190.5 1H198.5L213.5 4L235.5 11C259.233 20.9333 279.4 34.4333 296 51.5C310.267 66.2333 321.6 83.9 330 104.5L341 142.5L343 154.5V166.5L344 167.5L343 169.5L344 174.5L343 175.5V188.5L340 205.5L331 235.5L312 270.5C303.667 282.833 293.833 293.667 282.5 303L253.5 323L220.5 338L193.5 344L166.5 345L163.5 344H152.5L139.5 342L105.5 332L88.5 324L53 298L32 272.5L12 237.5L1 200.5V191.5L0 190.5V155.5L5 128.5L15 101.5L24 83.5C33.7333 67.2333 45.5667 53.0667 59.5 41L82.5 24L108.5 11L135.5 2L151.5 1L152.5 0ZM160 10L159 11H148L143 13L126 15L111 20C92.3333 28 76.3333 38 63 50L41 75L27 99L16 126L10 154V183L11 184V194C13 196 13.6667 199.333 13 204L15 208V214L22 235L30 250C29.3333 251.333 30 251.667 32 251L23 232L20 220L17 215V206L20 205L17 189L14 181C16 180.333 16.6667 181 16 183H19L22 188L28 202L35 207L39 213L47 232V233L41 228L37 219L38 217V219C40 219.667 40.6667 219.333 40 218L36 216V222L40 234V238L52 262L47 259L48 261H46L56 275L63 282L57 277L50 269L45 265L47 269V270L39 260L37 261L57 287C73.6667 304.333 95.3333 317 122 325L125 324L122 321C113.333 321 107 319.333 103 316L95 309L79 300C73.6667 294 67.6667 289.333 61 286L54 278L59 283L93 305C98.3333 308.333 105.333 310.333 114 311L124 317L125 319L111 314L108 315L115 319C120.333 319 124.667 320.333 128 323L141 324L148 326H156L141 322H134L127 320L130 319L122 314L119 310L122 312L125 311L140 316L153 318H162L163 319C171 320.333 177.667 319.667 183 317C184.333 317.667 184.667 317 184 315L195 312L199 309C200.333 309.667 200.667 309.333 200 308L204 305L210 299L211 300L214 299C213.333 297 212.667 296.667 212 298H210L235 272L236 273L235 274V282L223 291H219L215 294L213 297L216 298L215 297L220 292L219 295L230 288L232 289L228 295L229 297L210 308L211 309C217.667 307 223.333 303.667 228 299C230.667 299.667 231.333 298.333 230 295L234 294L237 290L238 284L242 275H240L244 265L248 260L268 244L273 242L283 228C282.333 226 283 225.333 285 226L291 218C290.333 215.333 291 214.333 293 215L297 206V199L288 216L285 218L280 224L281 226L276 235L273 237L269 240L273 234L272 233L264 244L256 250L252 253L254 249C253.333 247 254 246.333 256 247L271 231C270.333 229 271 228.333 273 229L274 227L271 228C281 218.667 288.667 207.333 294 194C294.667 190.667 294.333 189.333 293 190L289 197L287 198L293 182C292.333 179.333 293 178.333 295 179L298 172C298.667 169.333 298.333 168.333 297 169C295 169.667 294.333 171.333 295 174H294L296 165L298 163L299 168V178L295 196H297L299 193C299 186.333 300.333 181 303 177C303.667 171 303 166.667 301 164L302 155L306 163L308 175C306 175.667 305.667 178.333 307 183L302 199C304 199.667 304.667 199.333 304 198H305L302 207L303 210L307 200L309 189L313 182V179L310 185H309L312 177V173L303 149L296 142L284 136C280.667 136.667 279.333 136 280 134L277 132C273.667 131.333 272 132 272 134H268L261 129L256 123C251.333 121.667 249.667 123.333 251 128L255 130L259 136V138L264 141H267L273 137H277L280 142L283 143L285 147L284 157L282 161L270 169C268 168.333 267.333 169 268 171H263L257 174H253L251 176H247C243 174 240.333 170.667 239 166L236 163L232 160V156L229 153C229.667 149.667 229 147.667 227 147L214 130L211 132L213 139L220 147L221 151L225 153L227 157L226 161V163L235 174L238 175L240 182C241.333 185.333 244.667 186.333 250 185H252L255 183H260C261.333 181 263.333 180.333 266 181L267 184L264 199L258 209L247 219C247.667 220.333 247.333 220.667 246 220L236 230C235.333 234.667 233.667 238.333 231 241L232 247L230 253L231 254L235 247L237 248V255V257L232 267L233 269L236 267C238 265.667 238.667 263 238 259L243 251C243 246.333 244 243.333 246 242C258 236 267.667 228 275 218C274.333 216 275 215.333 277 216L279 211L282 209L284 206L286 205L277 218C277.667 219.333 277.333 219.667 276 219L269 229L264 234L250 243L242 256L238 267C234 271.667 228.333 275 221 277L217 279L218 284L208 297L206 298C204 297.333 203.333 298.333 204 301L197 307L186 313L177 315L171 314H140L133 311L134 309H138L147 312H166L160 309L155 310L145 309L128 303V302L143 306H156L165 310H166L160 304L156 299L155 290L144 273L146 263L150 255L149 247L145 240L141 237L136 230L138 224C136.667 222.667 136.333 220.333 137 217L134 212C130 211.333 127.667 211.667 127 213C123 214.333 121.333 213.667 122 211L115 207L108 209L104 212C99.3333 211.333 96.3333 212 95 214C85.6667 213.333 78.6667 210.667 74 206L63 191L58 177C58 170.333 59.6667 165.333 63 162L66 163L70 151C70.6667 148.333 70 147.333 68 148V146L75 135L82 132L89 125L90 120L100 115L105 116C114.333 115.333 121.667 112.333 127 107L131 108L139 106L147 109L149 119L148 121L154 123H162L167 126L173 123L177 117L181 120H184L187 123L196 118C204 119.333 209.667 118.667 213 116L215 106C213 103.333 210 102.333 206 103L204 107L197 105V107C195 104.333 192 103.333 188 104L187 101L188 99L187 95L180 92C180 95.3333 181.333 98 184 100C184.667 104.667 183.667 107.667 181 109C179.667 106.333 177.333 105.333 174 106L173 100L167 91C165 87 161.667 84.6667 157 84L155 85L160 93L164 94L165 101L164 100L163 102L156 97L148 95L146 91L133 89C129.667 89.6667 128.333 92 129 96L126 95L122 96L120 98L119 105L114 108L106 110H101C99.6667 108 97.6667 107.333 95 108L91 105L90 100C90.6667 93.3333 93 88.3333 97 85C99.6667 84.3333 101.333 85 102 87H106L113 82L112 79L113 76L123 71L128 70L135 63L140 62L145 63L153 61H159C160.333 57.6667 163.333 56.3333 168 57L167 53L163 52V49L168 40C169.333 38.6667 169.333 37.6667 168 37L163 38L154 51L148 56C145.333 54 141.333 53.6667 136 55L134 53L130 50L131 48L136 45L137 43L148 35L151 30L158 27L168 30C174 30.6667 178.667 29.6667 182 27L183 24L187 22L200 24L204 23C208 22.3333 211 23.3333 213 26H211L212 28L215 27L225 30H230L229 28C227 28.6667 226.333 28 227 26L218 25L210 21H192C201.333 21.6667 209 20.6667 215 18L206 14L191 12L187 10L183 12L197 16L199 15L207 16V17H187L186 16H169L168 17H147C151 14.3333 156.667 13.6667 164 15H166L183 14L160 10ZM211 20V21H214L211 20ZM238 26L237 28L259 40H261C254.333 34 246.667 29.3333 238 26ZM234 30V32L246 40H248L234 30ZM213 32L215 35L233 39V38L232 36H227L217 32H213ZM211 39L210 41L213 42L211 39ZM263 41L264 43H265L263 41ZM217 47V49L221 51L224 52H225L217 47ZM176 51V52H178L176 51ZM225 52C224.333 54 225 54.6667 227 54C227.667 52 227 51.3333 225 52ZM257 52L256 54L263 59C264.333 59.6667 264.667 59 264 57L257 52ZM188 57L190 59C190.667 57 190 56.3333 188 57ZM268 58V61L274 65V64L268 58ZM285 58V64L297 77H298L285 58ZM185 59L182 62C183.333 64 184.333 64 185 62V59ZM248 61C248.667 63.6667 251.333 66 256 68H257C255.667 64 252.667 61.6667 248 61ZM179 63V65L183 64L179 63ZM176 64L174 67L178 66L176 64ZM197 70L194 71L193 75L195 79L193 84C191.667 84.6667 192 85.3333 194 86C198.667 86.6667 202 85.6667 204 83L210 84L227 83L226 82C228 79.3333 231.333 78 236 78C239.333 81.3333 241 86.3333 241 93L251 100C253 100.667 254.333 100.333 255 99L253 91L250 90C250.667 88 250.333 87.3333 249 88L244 81L245 78V76L239 70H237L235 73L239 76L226 78L223 80L219 79L215 74L212 71L208 73L202 70H197ZM151 75L152 77C152.667 75 152.333 74.3333 151 75ZM287 75C293.667 81.6667 299 90.6667 303 102L306 103L301 94L303 93C301 87.6667 297.667 83.3333 293 80L287 75ZM258 78L257 81L266 87H267C265 83 262 80.6667 258 80V78ZM303 80L302 83L307 91L309 92L308 88L303 80ZM147 85V86H148L147 85ZM268 90V92L274 95L272 92L268 90ZM223 91L220 93H224C224.667 91 224.333 90.3333 223 91ZM257 92L256 94H257V92ZM278 95V97L281 98V97L278 95ZM108 96L107 97C103 95.6667 101.333 96.3333 102 99C105.333 99.6667 107.667 99.3333 109 98C109.667 96 109.333 95.3333 108 96ZM94 97L92 99L93 101L94 99V97ZM315 97L314 100H316L315 97ZM288 99L287 101H288V99ZM288 101L290 104C291.333 104.667 291.667 104.333 291 103L288 101ZM298 104L299 106C299.667 104 299.333 103.333 298 104ZM231 106L234 110C235.333 110.667 235.667 110.333 235 109L231 106ZM238 106L239 108H241L238 106ZM250 108L253 113L254 110L250 108ZM282 108C281.333 110.667 282.333 112.333 285 113L287 112L286 110L282 108ZM317 108L321 115H322C322.667 111.667 322 110 320 110C320.667 107.333 319.667 106.667 317 108ZM261 109L262 111C262.667 109 262.333 108.333 261 109ZM291 110V112C292.333 114 293.333 114 294 112C294.667 109.333 293.667 108.667 291 110ZM308 111L307 115L310 123L312 124V120L308 111ZM223 112V114L228 116V115C227.333 112.333 225.667 111.333 223 112ZM273 113V114H275L273 113ZM279 113L280 117C282 117.667 282.667 117.333 282 116L279 113ZM220 114C219.333 117.333 220.333 120 223 122H224L220 114ZM126 116L125 118H126V116ZM293 118V121L297 123C298.333 123.667 298.667 123.333 298 122L293 118ZM236 119L240 123V120L236 119ZM98 120L96 123L98 122V120ZM288 120C287.333 122.667 288.667 123.333 292 122C292.667 119.333 291.333 118.667 288 120ZM259 121L261 124C263.667 124.667 264.667 124 264 122L259 121ZM107 123L100 131L92 149V150L96 148L100 143L99 139L104 130C103.333 128 104 127.333 106 128L108 125C108.667 123 108.333 122.333 107 123ZM136 125L132 126L131 128C133.667 128.667 135.333 128.333 136 127V125ZM280 125L283 129H284L280 125ZM322 125C321.333 127.667 322 128.667 324 128C324.667 125.333 324 124.333 322 125ZM100 126L97 127L96 130L97 136L101 128C101.667 126 101.333 125.333 100 126ZM112 130L111 132L113 131L112 130ZM245 130L246 134L253 137V136L250 133C248 133.667 247.333 133.333 248 132L245 130ZM140 132C139.333 134 140 134.667 142 134L143 135C143.667 131.667 142.667 130.667 140 132ZM89 134L87 137L90 136C90.6667 134 90.3333 133.333 89 134ZM190 135C189.333 137 190 137.667 192 137C192.667 135 192 134.333 190 135ZM187 136L189 140V138L187 136ZM174 137L180 143C181.333 143.667 181.667 143 181 141L177 137H174ZM201 137V140C203.667 140.667 204.667 140.333 204 139L201 137ZM86 138V139H87L86 138ZM110 138C108.667 141.333 109.333 142.667 112 142C113.333 138.667 112.667 137.333 110 138ZM154 138C152.667 140 153 140.667 155 140L154 138ZM251 138V140L254 141L253 140C253.667 138 253 137.333 251 138ZM318 138L319 143H320C321.333 139 320.667 137.333 318 138ZM88 139L84 143C83.3333 144.333 84 144.667 86 144L88 141V139ZM123 139L114 149H116L122 144C121.333 145.333 122 145.667 124 145L129 139L125 140L123 139ZM82 140L78 144C77.3333 146 78 146.667 80 146L82 143V140ZM149 140L148 141C145.333 140.333 144.333 141 145 143L148 144L150 143L149 140ZM142 142V145L144 144L142 142ZM326 143C325.333 145.667 326 146.667 328 146C328.667 143.333 328 142.333 326 143ZM136 144L134 145L133 147L137 145L136 144ZM149 145L150 147L152 146L149 145ZM169 145L167 148H174V146L169 145ZM78 146L77 150L79 149L78 146ZM127 146L125 149L118 155L119 156L122 154L127 148V146ZM88 147L87 149H88V147ZM323 147L322 176L324 177L325 173C326.333 162.333 325.667 153.667 323 147ZM328 147L327 152L330 165L329 186C327 188.667 326.333 192.667 327 198L315 232L316 235L311 245H313L320 233C319.333 231 320 230.333 322 231L324 224L323 223L319 230H318V227L326 213L332 186L331 184L332 182C334 166.667 332.667 155 328 147ZM106 148L103 151L104 154L106 150V148ZM188 149L187 152L190 154L188 149ZM194 149L195 153H197L196 151L194 149ZM181 150L184 156L186 157L185 153L181 150ZM78 151L71 163H73L80 155L79 153C79.6667 151 79.3333 150.333 78 151ZM111 152L108 155L109 158L111 155V152ZM135 152L134 154H135V152ZM154 152L152 154H154C154.667 155.333 155.333 155.333 156 154C156.667 152 156 151.333 154 152ZM198 153V157L200 158L199 156C199.667 153.333 199.333 152.333 198 153ZM157 155L156 157L159 158V156L157 155ZM166 155L167 156L168 157C168.667 155 168 154.333 166 155ZM126 156V158L130 157L126 156ZM168 158V159H169L168 158ZM80 161L78 164L74 166L75 168L82 163L80 161ZM204 162V167L206 168L204 162ZM154 163V165L156 166C156.667 163.333 156 162.333 154 163ZM102 165L100 167L101 168L103 167C103.667 165 103.333 164.333 102 165ZM85 167V169L87 168L85 167ZM108 167L103 171L105 172L108 169V167ZM200 169L198 177L201 178L200 169ZM207 169L206 171L210 178C209.333 179.333 210 179.667 212 179L207 169ZM218 170L216 172H218V170ZM78 172L77 174L79 173L78 172ZM84 177L81 181L84 179V177ZM148 177V178H149L148 177ZM94 178L95 183L97 182L98 179L94 178ZM157 179L155 182L157 181V179ZM200 179V180H201L200 179ZM206 179V181L208 180L206 179ZM148 180C147.333 182.667 148 183.667 150 183C150.667 180.333 150 179.333 148 180ZM171 180C170.333 182 171 182.667 173 182C173.667 180 173 179.333 171 180ZM324 180L322 182C322.667 187.333 322 191.667 320 195L321 200L324 189V180ZM80 181L77 185L81 183C81.6667 181 81.3333 180.333 80 181ZM153 182L150 183L149 188L154 184C154.667 182 154.333 181.333 153 182ZM315 183L313 185L314 187C313.333 195.667 310.667 202.333 306 207H308C312 203.667 314.667 198.667 316 192C317.333 187.333 317 184.333 315 183ZM98 186L97 189H100C100.667 186.333 100 185.333 98 186ZM295 187L294 189H295V187ZM95 193L93 195L94 197C96.6667 195.667 97 194.333 95 193ZM89 194L88 196H89V194ZM128 194C126 196.667 126.333 197.667 129 197L128 194ZM185 194L182 199L185 197V194ZM91 195L89 197H92C92.6667 195 92.3333 194.333 91 195ZM170 195C168.667 198.333 169.333 199.667 172 199C173.333 195.667 172.667 194.333 170 195ZM212 197V198H213L212 197ZM143 198L142 200V201L145 200L143 198ZM319 199L311 215L312 218C315.333 214 317.667 209 319 203V199ZM200 200L193 215H195L200 204V200ZM207 201L204 204C203.333 205.333 204 205.667 206 205L207 203V201ZM213 201L209 205C209.667 207.667 209 209.333 207 210H209L212 207C210.667 205.667 211 204.667 213 204V201ZM149 203L147 205H149V203ZM155 204L154 206H155V204ZM192 206L191 208H192V206ZM33 209L35 216H36C36 212.667 35 210.333 33 209ZM176 210L177 212C177.667 210 177.333 209.333 176 210ZM189 210L181 220C180.333 221.333 181 221.667 183 221L189 212V210ZM26 211V217L28 218L27 214C27.6667 211.333 27.3333 210.333 26 211ZM176 212L174 215L176 214V212ZM207 212L206 215H207V212ZM218 214L214 217C210 219.667 207.333 223.667 206 229H209L219 216C219.667 214 219.333 213.333 218 214ZM301 220L297 223C297.667 221 297 220.333 295 221L290 233L284 241L285 245V244L288 242L287 240H289L301 222V220ZM314 221L306 233L308 235L316 222L314 221ZM177 229L175 231L176 236L178 233C179.333 229.667 179 228.333 177 229ZM299 234L287 252L283 256L285 257L288 255L299 238V234ZM280 235L275 243L272 246L271 245L268 246V248L266 249L263 254C261 254.667 261.333 255.667 264 257L263 263C258.333 266.333 255 271.333 253 278L244 286C244.667 287.333 244.333 287.667 243 287L236 295L250 289L248 288L246 289L249 287C253.667 281.667 257.333 275.667 260 269L273 259L275 255L282 250V248L276 253C272 252.333 269.667 253.333 269 256H267L270 252C269.333 250 270 249.333 272 250L275 247L280 237V235ZM309 235L307 237C306.333 238.333 307 238.667 309 238V235ZM221 236L216 246L217 247L221 241V236ZM189 237L186 241C186.667 242.333 186 242.667 184 242L183 245H185L189 240V237ZM196 237L188 250H190L196 240V237ZM304 238L303 243L306 241C306.667 238.333 306 237.333 304 238ZM180 239L179 242L180 243L182 240L180 239ZM302 243L301 246H302V243ZM205 244L191 262L192 264L200 254C199.333 252 200 251.333 202 252L205 248V244ZM226 244L224 246C223.333 248.667 224.333 249.333 227 248L226 244ZM301 246L287 265L288 266C293.333 261.333 297.667 255.333 301 248V246ZM228 248L219 263H221L229 249L228 248ZM219 250L218 253H219V250ZM230 254L228 257L230 256V254ZM307 254L285 281L277 287L273 292L265 299C263 298.333 262.333 299 263 301L270 298L283 286L300 269L306 258C308.667 256.667 309 255.333 307 254ZM278 260L273 263L269 268L279 261L278 260ZM214 261L212 264L214 263V261ZM252 261V263L254 262L252 261ZM283 263L279 270L265 285L271 280L265 287H268L281 271L284 265C284.667 263 284.333 262.333 283 263ZM207 265L205 268L208 267C208.667 265 208.333 264.333 207 265ZM266 268L253 284C252.333 285.333 253 285.667 255 285L268 269L266 268ZM160 270L162 272C162.667 270 162 269.333 160 270ZM280 279L279 280C277 279.333 276.333 280 277 282L280 281V279ZM276 283L273 287L276 285V283ZM222 286V287H223L222 286ZM257 288L255 290H257V288ZM258 290L256 292C256.667 293.333 256 293.667 254 293C253.333 295 254 295.667 256 295L259 291L258 290ZM252 294L247 297L244 296L243 298C244.333 297.333 244.667 298 244 300L252 296V294ZM255 301L244 306C236.667 312.667 228.667 318 220 322C206 323.333 194 326 184 330C178.667 329.333 175 329.667 173 331V332L191 331L225 322L253 305L256 302L255 301ZM234 303L215 313L204 314L194 318L183 319L177 321L162 320L159 319C157 318.333 156.333 319 157 321L169 322L173 324H188L189 323C191.667 323.667 192.667 323 192 321L215 315L233 307L237 304L234 303ZM268 303L266 306L268 305V303ZM235 309L234 311H235V309ZM170 312V313H177L170 312ZM189 315L187 316V317L192 316L189 315ZM139 319L138 321H139V319ZM142 327L143 329L153 330L157 332H165L159 331L148 327H142ZM168 331V332H171L168 331Z" fill="#080808"/>
<path opacity="0.996078" d="M129.5 19.0006C132.5 18.3339 134.333 18.8339 135 20.5006L122.5 24.0006C119.367 28.1339 115.2 30.8006 110 32.0006L108.5 35.0006L101.5 37.0006L82.5 47.0006L86 42.5006C85.5333 41.0339 86.0333 40.5339 87.5 41.0006L90.5 39.0006V40.0006L89 40.5006L92.5 41.0006L94 37.0006L103 33.5006L99.5 33.0006L90.5 36.0006V35.0006L107.5 28.0006L115 27.0006C115.867 25.0006 115.033 24.3339 112.5 25.0006L107.5 26.0006V25.0006L129.5 19.0006ZM117 25.0006V26.0006H118L117 25.0006Z" fill="#080808"/>
<path opacity="0.996078" d="M101.5 43L100.5 45C91.5 48.6667 84.3333 54.1667 79 61.5L78.5 63L78 61.5L85 52L101.5 43Z" fill="#080808"/>
<path opacity="0.996078" d="M118.5 43L122 46.5L123 59L126 59.5L116.5 71L111.5 74L109 71.5V61.5C111.6 60.4333 112.6 57.7667 112 53.5L116 49.5L115 46.5L118.5 43Z" fill="#080808"/>
<path opacity="0.996078" d="M76.5 47L69.5 55L58 65.5L35.5 92L36 90.5C42.8 78.3 51.3 67.8 61.5 59L64.5 58L76.5 47Z" fill="#080808"/>
<path opacity="0.996078" d="M69.5 77L70 78.5C68.2667 84.4333 65.4333 89.2667 61.5 93L61 90.5C61.8 83.9667 64.6333 79.4667 69.5 77Z" fill="#080808"/>
<path opacity="0.996078" d="M46.5 85L46 86.5L38 100.5L36.5 106L36 103.5L46.5 85Z" fill="#080808"/>
<path opacity="0.996078" d="M25.5 114L26 115.5L21.5 125L21 123.5L25.5 114Z" fill="#080808"/>
<path opacity="0.996078" d="M35.5 116L35 117.5L29.5 130L30 128.5C30.6 123.1 32.4333 118.933 35.5 116Z" fill="#080808"/>
<path opacity="0.996078" d="M46.5 125L47 126.5L40 145.5L36.5 150L36 146.5L41 132.5L46.5 125Z" fill="#080808"/>
<path opacity="0.996078" d="M20.5 143L21 146.5L19 159.5L15.5 169L15 167.5L17 161.5L18 149.5L20.5 143Z" fill="#080808"/>
<path opacity="0.996078" d="M280.5 176L281 179.5L278 191.5C273.267 196.767 269.6 203.1 267 210.5L259.5 218C258.033 217.533 257.533 218.033 258 219.5L254.5 224L254 222.5L270 203.5L271 196.5C275.6 191.1 278.767 184.267 280.5 176Z" fill="#080808"/>
<path opacity="0.996078" d="M287.5 179L288 180.5C285.8 184.3 284.8 189.3 285 195.5L278.5 204L278 201.5C282.467 195.3 285.633 187.8 287.5 179Z" fill="#080808"/>
<path opacity="0.996078" d="M46.5 197L55 208.5L56 212.5L48 205.5C45.7333 203.833 45.2333 201 46.5 197Z" fill="#080808"/>
<path opacity="0.996078" d="M83.5 221L91 223.5L87.5 224L83.5 221Z" fill="#080808"/>
<path opacity="0.996078" d="M70.5 228L90 244.5L88.5 245C82.5667 243.933 78.4 241.1 76 236.5L70.5 228Z" fill="#080808"/>
<path opacity="0.996078" d="M115.5 234C120.9 234.6 125.067 236.433 128 239.5L132 246.5L130.5 247L120 240C120.733 238.2 120.233 237.533 118.5 238L115.5 234Z" fill="#080808"/>
<path opacity="0.996078" d="M59.5 241L62 242.5L77 259.5L75.5 260L70 255.5L61 245.5L59.5 241Z" fill="#080808"/>
<path opacity="0.996078" d="M61.5 256L68 261.5C67.5333 263.033 68.0333 263.533 69.5 263L97 283.5L95.5 284L75.5 272L63 259.5L61.5 256Z" fill="#080808"/>
<path opacity="0.996078" d="M63.5 268L70.5 276L88.5 289L100.5 292L104 294C103.267 295.8 103.767 296.467 105.5 296L120 301.5L116.5 303L90.5 292L74.5 281L64 270.5L63.5 268Z" fill="#080808"/>
<path opacity="0.996078" d="M71.5 283C81.3667 292.8 93.5333 300.3 108 305.5L105.5 306L93.5 301L78.5 291L71.5 283Z" fill="#080808"/>
<path opacity="0.996078" d="M104.5 285L120.5 289L130 294.5L123.5 295L111.5 290L104.5 286V285Z" fill="#080808"/>
</svg>
