<svg width="436" height="367" viewBox="0 0 436 367" fill="none" xmlns="http://www.w3.org/2000/svg">
<path opacity="0.996078" d="M201.5 0H220.5L221.5 1L242.5 2L270.5 8L299.5 20C314.833 27.6667 328.5 37 340.5 48H345.5L370.5 42H372.5L395.5 40L412.5 44C419.367 46.4667 424.867 50.3 429 55.5L434 64.5L436 78.5L434 91.5L429 106.5L419 125.5L393 160.5V170.5L394 171.5V192.5L393 193.5V204.5L389 229.5L379 259.5C368.467 282.3 354.633 301.8 337.5 318C319.433 335.6 297.1 348.933 270.5 358L241.5 365L222.5 366L221.5 367H206.5L205.5 366H193.5L176.5 363L147.5 354C126.833 345.667 108.833 334.667 93.5 321H86.5L63.5 325H40.5L23.5 321L8 311.5L2 302.5L0 290.5C6.26667 265.433 17.4333 245.267 33.5 230L36 228.5L37 225.5L33 207.5L32 173.5L33 172.5V161.5L37 139.5C40.9333 125.1 45.9333 111.767 52 99.5C62.5333 78.7 76.0333 60.8667 92.5 46C106.5 32.6667 123.167 22 142.5 14L170.5 5L201.5 0ZM209 12L197 17L173 20L174 22L181 20L197 19L214 13L209 12ZM230 14L227 15L228 17L231 15L230 14ZM223 16L221 18H224C224.667 16 224.333 15.3333 223 16ZM237 16L238 18L241 17L237 16ZM253 17C251.667 19 252 19.6667 254 19L253 17ZM259 18L260 20H262L259 18ZM219 19V20H220L219 19ZM216 20L209 22L210 24L218 21L216 20ZM269 22L266 24V25L271 24L269 22ZM197 23V24H198L197 23ZM207 23V24H208L207 23ZM254 23V24H255L254 23ZM195 24L187 26H162L161 25L157 26L163 28H187L196 25L195 24ZM228 25V27L230 26L228 25ZM263 26L261 28L264 29L263 26ZM279 26V27H280L279 26ZM208 27L201 30L181 34H160L150 31L148 29L144 31L153 34L168 37L185 36L203 31L209 28L208 27ZM283 28L285 30C285.667 28 285 27.3333 283 28ZM256 30L257 32H258L256 30ZM235 31L223 36L212 43H208L201 46L182 50H150L131 46L123 42L120 44C127.333 47.3333 136 49.6667 146 51H148L150 52L169 53L170 54L183 53L205 48C216.333 44 226.333 39 235 33V31ZM250 32V34L254 36L256 35L250 32ZM292 32V33H293L292 32ZM294 33L296 36V35L294 33ZM221 34L216 36V37C219.333 37.6667 221.333 37 222 35L221 34ZM273 34V36L277 35L273 34ZM247 35V36H248L247 35ZM251 35L252 37H253L251 35ZM136 36L139 39L155 44H179L195 40V39L180 42H155L136 36ZM286 36L287 38H288L286 36ZM209 37V38H210L209 37ZM214 37V38H215L214 37ZM303 37L301 39L303 41L307 40L303 37ZM243 38C239.667 39.3333 239 40.6667 241 42C224.333 46.6667 208.667 52.6667 194 60L171 65L169 64L167 65H152L151 66L150 65L128 64C119.333 62.6667 112.333 60 107 56C103 55.3333 100.667 56.6667 100 60C105.333 64 112.333 66.6667 121 68V69L97 63L94 67C110 75 130 79.3333 154 80H152H150L146 81L144 80H130L129 79L115 78L99 74L93 71C90.3333 70.3333 88.6667 71 88 73L100 80L116 85L127 86L133 88L154 90L149 91H135L134 90L113 89L95 85C93 82.3333 90.3333 81 87 81L88 85L97 90L117 96H122L133 99H157L158 100L160 99L163 100L149 102H131L130 101L128 102L115 101H113C108.333 99 103 98 97 98L91 95L88 96L99 101L110 104L140 106L141 107L157 109L154 110H136L124 108H110C97.3333 106 86.6667 102 78 96L77 98C82.3333 104 89.6667 108 99 110L115 114H123L131 116H144L145 117L182 115L208 109L253 94L282 77L283 75L272 82L266 83L246 92H244L277 76L278 73L281 74L284 73L281 68L274 71L272 74L276 72C277.333 71.3333 277.667 72 277 74L274 76L270 74L233 88H229C243.667 82.6667 256.667 76 268 68L265 64C262.333 63.3333 260.667 64 260 66L261 68C261.667 70.6667 261 71.6667 259 71C259.667 68.3333 259.333 66.6667 258 66L251 69L254 74L253 75L248 71L232 77L216 81H214L235 74L246 68L243 61C231.667 63 221.333 66.3333 212 71H209L239 57L237 53L234 54L235 57C235.667 58.3333 235 58.6667 233 58L232 55L222 58L205 66L202 65L199 66H195L212 60L247 41C248.333 41.6667 248.667 41 248 39L243 38ZM281 39L283 42C284.333 42.6667 284.667 42.3333 284 41L281 39ZM299 41L296 43L300 44L299 41ZM278 42L276 44H279C279.667 42 279.333 41.3333 278 42ZM260 43L261 46L263 45L260 43ZM253 45L251 46L249 49L253 50L252 49C251.333 46.3333 252.667 45.6667 256 47C256.667 45 255.667 44.3333 253 45ZM294 46V47H295L294 46ZM317 46L313 51L317 48V46ZM257 47V48H258L257 47ZM269 47C266.333 48.3333 266.667 49.6667 270 51C272 51.6667 273.333 51.3333 274 50L269 47ZM289 48L285 51H290L289 54L292 53L294 50H293L289 48ZM111 49V51L129 57L144 58L152 60H154L153 58L132 55L111 49ZM246 49L249 53C250.333 53.6667 250.667 53.3333 250 52L246 49ZM266 49L264 51L269 55L270 53L266 49ZM391 50L385 52C393.667 51.3333 400.667 52.6667 406 56L407 58L397 56H383L382 55H368L364 57C360 58.3333 357.667 58 357 56L351 57L352 59C358.667 59.6667 364 59 368 57L387 59L390 61H398L413 67C416.333 69.6667 419 74 421 80L420 93L418 99C414 109 408.667 118.333 402 127H401L411 107L415 94V85C412.333 83 411.333 79.6667 412 75C408.667 70.3333 404.667 67 400 65L387 62H373L365 64H359L357 66L360 67L367 65L368 66H390L400 70L407 79L408 86L412 90V95C412 91.6667 411.333 89.3333 410 88C410 94.6667 409 100.333 407 105C401 117.667 393.333 129 384 139L333 184L331 185L342 175L353 162L375 141L392 122L402 104L404 94L406 91V87L402 94L400 104L384 127L346 163L344 166H343L317 191L298 206C290 212 281.333 216.667 272 220L262 227L230 243L187 262L143 278L111 286H106L82 291H72L71 292H58L47 290L35 283L33 274C33.6667 268 35.3333 263.667 38 261V259C34 263.667 31.3333 269.333 30 276L33 285L45 293L61 297L101 293L137 285L163 277L207 259L258 234L271 226H272L249 241L216 259L177 276C165.667 278 156 281.333 148 286L116 294L84 300H67L66 301L56 300L50 298L47 297L44 298L51 301L69 304L93 302L128 295L135 292L153 288L162 284L163 285L147 292L127 298L83 307H62L57 305L46 304C40 302.667 35.3333 300 32 296L28 293L24 282L25 273L32 259L42 246V244C34.6667 250 29 257.667 25 267C23 272.333 22.3333 279 23 287L22 286H21L22 294L28 298L29 300L24 298L20 293L19 295L16 290L17 277V275C22.3333 261 29.6667 249.667 39 241V239L35 241L21 262L13 277L9 292L12 302L24 311L43 316H66L67 315L82 314L143 299L201 277L269 246L289 234L337 199L381 159C380.333 157 381 156.333 383 157L401 136L412 120L423 98L426 83C427.333 74.3333 426.333 68.3333 423 65C419.667 59.6667 415 55.6667 409 53L391 50ZM242 51L239 52L242 56L245 54C246.333 54.6667 246.667 54.3333 246 53C245.333 51 244 50.3333 242 51ZM262 51L258 54L262 58L265 57L266 56L262 51ZM375 51L358 54V55L371 54L372 53H383L384 52L375 51ZM283 52L284 54C284.667 52 284.333 51.3333 283 52ZM307 52L305 55L307 54L309 55V54L307 52ZM255 54L254 55C252 54.3333 251.333 55 252 57L257 55L255 54ZM277 54L278 58C276 58.6667 275.333 58 276 56C274 55.3333 273.333 56.3333 274 59L278 60L282 57L277 54ZM285 54L286 56C286.667 54 286.333 53.3333 285 54ZM303 55L304 57C304.667 55 304.333 54.3333 303 55ZM258 56L255 57L258 61L261 59L258 56ZM300 57L298 58C294.667 59.3333 294.333 60.6667 297 62C299 62.6667 300.333 62.3333 301 61L300 57ZM246 58L244 60L245 64L248 66C251.333 65.3333 254 64 256 62L251 59V61C250.333 59 248.667 58 246 58ZM271 60L268 61L266 63L270 66L277 63C277.667 61 277 60.3333 275 61V63L274 61L271 60ZM290 63L291 65C291.667 63 291.333 62.3333 290 63ZM293 64C292.333 66 293 66.6667 295 66C295.667 64 295 63.3333 293 64ZM287 65L285 66C282.333 67.3333 282.667 68.6667 286 70L290 69C291.333 69.6667 291.667 69.3333 291 68L287 65ZM337 65L332 72L338 67C338.667 65 338.333 64.3333 337 65ZM379 67V68H383L379 67ZM386 68L387 70L391 71H392C391.333 68.3333 389.333 67.3333 386 68ZM362 69V70H372L362 69ZM375 69V70L385 72H389C385.667 69.3333 381 68.3333 375 69ZM342 71L338 75L341 76L343 78C342.333 76 343 75.3333 345 76V74L342 71ZM331 72C321.667 82 310.667 90 298 96L299 99V100L297 97L261 113L234 121L231 123L173 134L141 137L140 138H121L120 137H107L106 136L102 137L79 132L59 122L57 128C62.3333 133.333 69.3333 137.333 78 140L90 144H97V145H89L72 141L57 132H54L53 137C59 143.667 67 148.333 77 151L107 156V157L88 156L77 154L65 151L51 145L50 149L58 153L76 160L100 166L149 165L150 164L182 161L205 156L260 137C278 129 295 120 311 110L315 109L314 106C301.333 115.333 287 122.667 271 128H268L276 125L279 122L300 111C301.333 110.333 301.333 109.667 300 109L302 105L303 107L302 109L304 108C305.333 108.667 305.667 108 305 106L313 102C314.333 102.667 314.667 102 314 100C317.333 99.3333 320 97.6667 322 95L319 92C315.667 92 314 93 314 95C312 94.3333 311.333 95 312 97L309 98C307 99.3333 307 100.333 309 101L311 100L312 101L309 103L307 100L284 115L268 122L267 120H270L290 109L316 89C315.333 87 316 86.3333 318 87L321 82L331 74V72ZM284 74V75H285L284 74ZM393 74L398 81L400 87L399 98L397 102L398 103L401 97V82L399 79L393 74ZM337 76L335 78L339 81L341 80L337 76ZM372 77L366 78L377 99L380 107V111L382 112L390 98L391 92L389 85L383 79L372 77ZM85 79L84 81H85V79ZM349 79L345 85L350 82L349 79ZM334 80L333 82L336 83H337L334 80ZM328 83L331 87L333 86C334.333 86.6667 334.667 86.3333 334 85C333.333 83 331.333 82.3333 328 83ZM291 85L263 98V99L286 90L292 86L291 85ZM327 86L326 88L329 89L327 86ZM355 87L354 89L356 90L355 87ZM323 88L320 91L324 92L325 90L323 88ZM339 88L334 92L335 94C336.333 94.6667 336.667 94.3333 336 93L341 90L339 88ZM74 89V92C77.3333 91.3333 79.6667 92.3333 81 95H82L74 89ZM294 89L288 92L287 94L295 90L294 89ZM332 94L318 104C316 103.333 315.333 104.333 316 107C322.667 104.333 328.333 100.667 333 96C333.667 94 333.333 93.3333 332 94ZM83 95L86 98H87L83 95ZM261 95L246 102V103L262 97C262.667 95 262.333 94.3333 261 95ZM71 96L69 98C68.3333 99.3333 69.6667 99.6667 73 99L72 98C72.6667 96 72.3333 95.3333 71 96ZM345 97L343 100L346 98L345 97ZM74 99L73 102H74V99ZM342 100L340 103L342 102V100ZM244 103V104H245L244 103ZM263 104L254 108L239 112L238 114L266 105L263 104ZM337 104L332 107L329 111L338 105L337 104ZM70 106L72 109H74L70 106ZM64 109L63 111C69 116.333 76.6667 120.333 86 123C89.3333 124.333 91.6667 124 93 122L96 124L102 125H105L104 123H99C95 120.333 90 119 84 119L82 117L69 113L64 109ZM82 110L79 112L90 115H93L82 110ZM327 111L326 113L328 112L327 111ZM211 112L201 115V116L209 115L214 113L211 112ZM236 114V115H237L236 114ZM100 115L97 117H101L100 115ZM195 117L180 120H165L164 121L150 122L151 124L164 122H179L197 119L195 117ZM102 118L104 120H112C109.333 118 106 117.333 102 118ZM341 118L338 119L339 121L341 120V118ZM336 121L326 127L325 129H327L337 122L336 121ZM107 123V125L115 126C121 127.333 125.333 127 128 125L107 123ZM189 123L178 125L177 127L195 124L189 123ZM308 124L303 127L302 129L309 125L308 124ZM91 127V128L111 130L112 131H121V129L91 127ZM170 127V128H173L170 127ZM306 127V129L308 128L306 127ZM145 128C143.667 130 141.333 130.333 138 129V130H162L168 129L145 128ZM300 129V130H301L300 129ZM323 129L321 132L324 130L323 129ZM298 130L296 131L295 133L299 131L298 130ZM315 131L312 133V134L316 132L315 131ZM338 131L337 133L339 132L338 131ZM280 133L262 141L261 143L281 134L280 133ZM293 133L268 149L249 157V158C257 156.667 264 154 270 150L294 134L293 133ZM335 133V134H336L335 133ZM334 134L332 136H334V134ZM357 134L344 148L357 136V134ZM311 136L305 139L304 141L312 137L311 136ZM331 136L329 139L332 137L331 136ZM312 137V139L314 138L312 137ZM327 139L295 160V161L306 156L328 140L327 139ZM301 141V143L303 142L301 141ZM345 141L341 146L346 142L345 141ZM257 144V145H258L257 144ZM255 145L254 147L256 146L255 145ZM294 146C277.333 155.333 259 162.667 239 168V169L259 164L295 148C295.667 146 295.333 145.333 294 146ZM251 147V148H252L251 147ZM246 149V150H247L246 149ZM332 150V151H333L332 150ZM326 152V153H327L326 152ZM322 154L295 169L294 171C305.333 167 315.333 161.667 324 155L322 154ZM232 155L215 162L178 172L166 174H156L141 177L136 176L134 177C135.333 179 138.667 179.333 144 178H148L170 176L183 172H188L205 168L224 160H227L233 156L232 155ZM50 158L48 160L64 168H66C59.3333 166 54 162.667 50 158ZM62 160V161H63L62 160ZM64 161L65 163L71 165H72L64 161ZM230 162L227 163V164C229 164.667 230.333 164.333 231 163L230 162ZM274 165L257 173L240 178L229 183C226.333 182.333 225.333 183 226 185L261 174L276 166L274 165ZM172 166L170 169L177 168L172 166ZM74 167V168L77 169L87 170L92 172H123L122 170L119 171H117H98L97 170L95 171C91.6667 169 87.6667 168.333 83 169L79 167H74ZM163 168L138 172V173H146L164 170L163 168ZM311 168L309 169L308 171L312 169L311 168ZM237 169V170H238L237 169ZM63 171L68 175H72L66 171H63ZM306 171V172H307L306 171ZM195 173L177 180V181C185 179.667 192 177.333 198 174L195 173ZM222 173L221 175L223 174L222 173ZM314 174L267 197L255 200L254 202L274 196L316 175L314 174ZM81 176L82 178L96 181C97.3333 181.667 97.6667 181 97 179L81 176ZM285 176L254 188V189L273 184L286 177L285 176ZM129 178L126 179V180L135 179L129 178ZM59 179C59 181 60.6667 182.333 64 183L80 188H94C90.6667 185.333 85.6667 184.667 79 186L59 179ZM119 179L118 180H105L106 182L119 181V179ZM209 179L190 185L180 186L176 188L160 190L154 192C150 190.667 148.333 191.333 149 194L175 191L194 186L203 182L210 181C210.667 179 210.333 178.333 209 179ZM99 180V181H100L99 180ZM171 181L165 183H153L152 184L138 185V186L163 185L176 182L171 181ZM50 184V186L69 194L81 197H87L94 199H103L104 200H127L128 199L142 198V197H132L131 198H118L126 196V195L112 196L111 197H91L76 193H71L50 184ZM131 186L130 187H102L99 189H103H105L107 190L118 188L120 189L135 187L131 186ZM379 187L374 192L375 196L380 188L379 187ZM215 188V189H216L215 188ZM211 189V190H214L211 189ZM207 190L189 196L163 201V202H169L193 197L210 191L207 190ZM235 193C219.667 200.333 203 206.333 185 211V212L203 208L238 194L235 193ZM47 196L48 198H50L47 196ZM144 196V197H145L144 196ZM290 196L245 212H241L203 222H195L172 226H162L161 227L111 228H109L108 227H97L75 223L57 217L52 213L48 211L49 217L58 221L79 227H85L94 230L109 231L110 232H121V233H102L101 232L78 231L69 228H65L53 223C51 223.667 50.3333 223.333 51 222H50L51 227L72 233L74 232L77 234C79.6667 233.333 80.6667 234 80 236L90 237H92L102 240L139 241H141L166 240L167 239L174 240L169 241L152 242L151 243H107L99 241H89L67 237L55 232C53 231.333 52.3333 232 53 234L58 237L73 242L81 243H83L95 247L108 249H121L122 250L168 249L177 247H189L194 245C200.667 245 206.667 244 212 242L229 233V232L215 235H210L231 229L258 217V216L232 224H228L259 212L293 197L290 196ZM369 196C368.333 198 369 198.667 371 198C371.667 196 371 195.333 369 196ZM55 199L57 202L69 207L92 211H109L121 209H131H133L140 207C142.667 207.667 143.667 207 143 205L141 206L118 207L117 208H85C83.6667 206 81 205.667 77 207L63 203L55 199ZM368 199L362 207L369 201C369.667 199 369.333 198.333 368 199ZM380 200L371 209C371.667 211 371.333 211.667 370 211L366 217L369 215C368.333 213 369 212.333 371 213L380 202V200ZM198 202L194 203L193 205L201 203L198 202ZM48 203V205L56 208H57L48 203ZM235 203V204H236L235 203ZM232 204V205H234L232 204ZM186 205L159 211L117 216L120 217L151 216H153L171 213C175 209.667 180 207.667 186 207V205ZM230 205V206H231L230 205ZM238 205V206H239L238 205ZM233 206L220 210L218 209L198 214V215L211 212L224 211L236 207L233 206ZM361 206L359 208C358.333 209.333 359 209.667 361 209C363 208.333 363 207.333 361 206ZM357 209V211L359 210L357 209ZM366 213L361 215L356 222C355.333 224 356.333 224.333 359 223L360 220L366 215V213ZM192 215L187 217L158 221V222H168L197 216L192 215ZM347 217V218H348L347 217ZM87 218V220H90L87 218ZM91 218V220H103C100.333 218 96.3333 217.333 91 218ZM370 218L368 223L372 220C372.667 218 372 217.333 370 218ZM341 220L339 224L341 223V220ZM152 222V223H153L152 222ZM353 223V225L343 233L344 236L345 234L355 226C355.667 223.333 355 222.333 353 223ZM368 223C368 225 367.333 225.667 366 225L361 231L362 232L365 227L369 226L368 223ZM375 223L373 225L375 228L376 226C376.667 223.333 376.333 222.333 375 223ZM337 224V225H338L337 224ZM329 229C327.667 231 328 231.667 330 231L329 229ZM230 231V232H231L230 231ZM359 232L349 240H347C343.667 242 343.667 243.667 347 245L350 243C352.667 241.667 353 240.667 351 240C351.667 238 352.667 237.667 354 239L358 237L360 234C360.667 232 360.333 231.333 359 232ZM371 233L358 243L356 246L347 253H349H351L354 254L353 249L357 251C358.333 251.667 358.667 251.333 358 250L363 246L366 244V243L372 238C373.333 234 373 232.333 371 233ZM341 234L337 238L338 239L342 236C342.667 234 342.333 233.333 341 234ZM320 235L318 238L322 236L320 235ZM316 238V239H317L316 238ZM335 238L331 243L335 241C337 240.333 337 239.333 335 238ZM315 239L314 241V242H316L315 239ZM57 243V246L65 250L83 255L87 254L86 256L104 259H123L124 260L127 259H160L176 256L196 249V248L170 252H153H151L140 254H116L115 253L94 252L89 250H83L70 247L57 243ZM342 243L340 245L341 247C340.333 248.333 341 248.667 343 248L344 244L342 243ZM324 245V247L326 246L324 245ZM338 246L336 248C334 247.333 333.333 248 334 250L337 251L338 248L340 249V248L338 246ZM302 247V249L304 248L302 247ZM321 247L319 250L322 248L321 247ZM332 250V254L334 253L332 250ZM296 251L295 253L297 252L296 251ZM312 251V254L314 253C314.667 251 314 250.333 312 251ZM42 252L39 257L42 255V252ZM293 253L290 255V256L294 254L293 253ZM310 253L308 257L310 256V253ZM329 253L328 255L327 254L323 257L325 259L329 256V253ZM345 254L344 255C342 254.333 341.333 255 342 257L345 256V254ZM347 254C345 256.667 345.333 257.667 348 257C348.667 258.333 349.333 258.333 350 257L347 254ZM280 256L274 259V260L281 257L280 256ZM39 257L38 259H39V257ZM64 257V259C66.6667 258.333 68.6667 259.333 70 262C71.3333 262.667 71.6667 262 71 260L64 257ZM303 257L300 261L304 259C304.667 257 304.333 256.333 303 257ZM321 257L319 259L320 263C322.667 261.667 323 260.667 321 260L322 258L321 257ZM341 257L337 259L335 262L338 263L337 262L341 260L343 261L344 258L342 259L341 257ZM49 260L44 270L45 277C47 280.333 51.3333 282 58 282C58.6667 283.333 59.3333 283.333 60 282L49 260ZM267 260L264 264L267 262V260ZM73 261V262H74L73 261ZM78 261L76 263L79 264H84L78 261ZM315 261L313 263C310.333 262.333 309.667 263.667 311 267L316 265C316.667 261.667 316.333 260.333 315 261ZM73 263L77 266H81L73 263ZM86 263V266L88 267L105 268L106 269H116L111 267H103L102 265C95.3333 265.667 90 265 86 263ZM293 263L291 265C289 264.333 288.333 265.333 289 268L293 266V263ZM331 263L328 267V269C327.333 271 328 271.667 330 271L332 265C332.667 263 332.333 262.333 331 263ZM334 264C333.333 266 334.333 266.667 337 266C337.667 264 336.667 263.333 334 264ZM134 265C132.667 267 130 267.333 126 266V267C130.667 267.667 134 267.333 136 266L134 265ZM334 266L333 268H334V266ZM346 267L343 271L347 268L346 267ZM286 268L284 270H287C287.667 268 287.333 267.333 286 268ZM324 268L322 269C319.333 270.333 318.667 273 320 277L323 276C322.333 274 323.333 273.333 326 274L325 270C325.667 268 325.333 267.333 324 268ZM306 269L305 272H306V269ZM281 270L275 274L276 275L282 271L281 270ZM78 271L79 273L83 274C86.3333 274.667 88.6667 274.333 90 273L78 271ZM299 271L297 276L299 275V271ZM339 271L337 272L334 276L340 273L339 271ZM357 271L354 275L348 280L349 281L351 280L357 273V271ZM318 272L316 274L315 280L316 281L319 279C319.667 276.333 319.333 275.333 318 276V275V272ZM93 273L91 275L96 276H109L116 275L93 273ZM29 274L28 277H29V274ZM313 274L312 282L311 275L306 277L303 286C302.333 287.333 303 287.667 305 287L307 283V285L313 283L315 275L313 274ZM234 275L224 280L208 283V284C220 283.333 229.667 280.667 237 276L234 275ZM268 275L265 276L264 278L269 276L268 275ZM291 275L289 278L288 280L291 278V275ZM331 277V278H332L331 277ZM341 277L339 279H341V277ZM284 278C282 278.667 281.333 280.333 282 283L284 282V278ZM329 279L326 280L325 282C327 282.667 328.333 282.333 329 281V279ZM338 279L336 281H338V279ZM29 280L30 285H31L30 282C30.6667 280 30.3333 279.333 29 280ZM210 280V281H211L210 280ZM249 280L245 282H249V280ZM279 280L276 285V286L280 284C280.667 280.667 280.333 279.333 279 280ZM300 280L299 285H301L302 283C302.667 280.333 302 279.333 300 280ZM207 281V282H208L207 281ZM298 281L296 282L291 293L298 290L299 288V286L297 289H296L298 284C299.333 282.667 299.333 281.667 298 281ZM242 282L216 291C212.667 290.333 211.333 291 212 293L229 289L245 283L242 282ZM274 282L272 283L268 289L269 290L273 288L275 284C275.667 282 275.333 281.333 274 282ZM334 282L332 285L335 283L334 282ZM345 282L338 288L339 289C340.333 286.333 342.667 284.667 346 284C346.667 282 346.333 281.333 345 282ZM205 283L203 284V285H207L205 283ZM265 284L263 285L258 291C258.667 292.333 258.333 292.667 257 292V293L264 291L265 289L267 286L265 287L266 285L265 284ZM290 285L287 286L283 291L282 290L279 295V296L282 294L284 295L275 301L276 302L287 295L290 289V285ZM255 287L254 288L250 290L249 294L245 296L250 290L247 289L243 295C241 294.333 240.333 295 241 297V298L251 295L257 288L255 287ZM319 288L317 290H319V288ZM32 290L31 292L34 294L32 290ZM279 290L273 293L270 297L273 296V299L272 298L268 300V302L265 304L266 305L271 303L279 292V290ZM36 291L35 293L42 297H44L36 291ZM242 291L238 293L239 295L236 298L235 297L232 298H230L236 296L238 293L215 298L207 301L191 303L185 305H183L157 309L155 308L154 310H168L178 308H189L202 305H210L216 303L219 304L225 303L233 299L236 300L243 292L242 291ZM331 291L330 293L332 292L331 291ZM210 292V293H211L210 292ZM327 293L307 304L306 306C314 302.667 321.333 298.667 328 294L327 293ZM268 294L262 297L260 300L266 296V298L260 302L259 300L258 302L257 304L259 303L260 304L255 306C253 305.333 252.333 306 253 308V309C255.667 309.667 257.333 308.667 258 306C262 306.667 263.667 306.333 263 305C265 303.667 265.333 302.667 264 302L266 301L269 295L268 294ZM341 294L335 299C333 298.333 332.333 299 333 301L340 298C342.667 296.667 343 295.333 341 294ZM256 299L247 304C247.667 305.333 247 305.667 245 305L246 307L249 305L251 306L253 305L249 304L257 301C257.667 299 257.333 298.333 256 299ZM332 301V302H333L332 301ZM329 302L321 306L322 309L330 304L329 302ZM244 303L243 305H244V303ZM231 305L227 306L220 313L214 315H209C215 314.333 219.333 312 222 308C223.333 308.667 223.667 308 223 306L207 309C203 308.333 201.667 309.333 203 312C206.333 312.667 209 312 211 310L215 311C212.333 310.333 210.667 311 210 313C208 312.333 207.333 313 208 315L206 316L207 318H213L219 314L221 315H220V316L229 314H236L239 312C240.333 312.667 240.667 312 240 310L230 313C228.667 311.667 227.667 312 227 314H224L228 311C229.333 311.667 229.667 311 229 309L232 307C232.667 305 232.333 304.333 231 305ZM242 305L238 307L239 309L243 307C243.667 305 243.333 304.333 242 305ZM247 307L245 308L242 312C245.333 312 247.667 310.667 249 308L247 307ZM298 307C297.333 309 298 309.667 300 309C300.667 307 300 306.333 298 307ZM232 308L230 311L233 309L232 308ZM199 309L168 314L149 313H147L136 314C140 316 145.667 316.333 153 315L156 316L192 314L197 313L202 310L199 309ZM294 309L292 311L293 312L296 310L294 309ZM318 309V310H319L318 309ZM311 312L307 314L305 317L313 313L311 312ZM204 313L197 315L194 318L193 317C189 319 183.667 319.333 177 318L176 319H162L161 320H136L135 319L132 321L138 322H168C172 320 177.667 319.333 185 320H187L191 321L190 320H192C196.667 320.667 200.333 320 203 318C202.333 316 203 315.333 205 316L206 314L204 313ZM319 316L302 325C300 324.333 299.333 325 300 327L319 318V316ZM264 317L262 318V319C264.667 319.667 266.667 319.333 268 318L264 317ZM301 317L299 320L302 318L301 317ZM255 318V319H256L255 318ZM294 319L287 323L286 325L293 323L294 321V319ZM129 320V321H131L129 320ZM245 320L241 322C235.667 321.333 232 322 230 324C226 322.667 224.333 323.333 225 326L243 323L246 321L245 320ZM249 321L245 322L246 324L250 322L249 321ZM118 322L117 324L125 326H130L118 322ZM278 324L274 326L272 329L271 328L269 331L276 329L278 326V324ZM282 324L280 327L282 326V324ZM293 328L285 331L286 333L293 330V328ZM208 329L203 331H209C209.667 329 209.333 328.333 208 329ZM262 329L261 331L264 330L262 329ZM182 331V332L186 333L203 332L182 331ZM255 331L254 333L256 332L255 331ZM259 332L257 334H260C260.667 332 260.333 331.333 259 332ZM298 332L297 334L300 333L298 332ZM236 334V335H237L236 334ZM243 334L240 335L239 337L244 336L245 338L251 336V335L246 336V335L243 334ZM275 334C274.333 336 275 336.667 277 336C277.667 334 277 333.333 275 334ZM273 335L263 338L262 340L274 337C274.667 335 274.333 334.333 273 335ZM290 336L283 339L282 341L292 337L290 336ZM232 337L231 339L236 338L232 337ZM216 338V340L222 339L216 338ZM151 339V340L158 342C163.333 342.667 167.333 342.333 170 341L151 339ZM256 339L255 341L258 340L256 339ZM172 340V341H173L172 340ZM248 340C242.667 342.667 236.333 344 229 344L230 346L242 344L249 341L248 340ZM206 341C204.667 343 202.333 343.667 199 343V344C203 345.333 205.667 345 207 343C207.667 341 207.333 340.333 206 341ZM181 342L176 344H192V342H181ZM194 343V344H196L194 343ZM269 343L260 347V348L273 344L269 343ZM251 347L248 349L247 351L254 349C254.667 347 253.667 346.333 251 347ZM157 348L158 350H161L157 348ZM198 349V350H202L198 349ZM237 351L235 352V353L243 352L237 351Z" fill="#070707"/>
<path opacity="0.996078" d="M238.5 89L240 89.5C232.333 93.5 223.5 96.3333 213.5 98V97L238.5 89Z" fill="#070707"/>
<path opacity="0.996078" d="M283.5 106L288 106.5C286.867 108.033 284.7 108.533 281.5 108L271.5 113V112L283.5 106Z" fill="#070707"/>
<path opacity="0.996078" d="M263.5 115L265 115.5C259.6 119.1 253.1 121.6 245.5 123V122L263.5 115Z" fill="#070707"/>
<path opacity="0.996078" d="M399.5 123L399 124.5L392 135.5L389 143.5L380.5 153L364 168.5C364.533 170.033 364.033 170.533 362.5 170C325.033 206.533 280.7 236.2 229.5 259V258L237.5 255L259.5 242L311.5 208L337.5 188L380 148.5L399.5 123Z" fill="#070707"/>
<path opacity="0.996078" d="M204.5 136L206 136.5L200.5 139L185.5 141L176.5 144H166.5L154.5 146H138.5V145L170.5 143L194.5 139L204.5 136Z" fill="#070707"/>
<path opacity="0.996078" d="M193.5 147L195 147.5L171.5 154H162.5L151.5 156H138.5V155L178.5 151L193.5 147Z" fill="#070707"/>
<path opacity="0.996078" d="M311.5 201L309.5 204L296.5 212V211L311.5 201Z" fill="#070707"/>
</svg>
