<svg width="308" height="310" viewBox="0 0 308 310" fill="none" xmlns="http://www.w3.org/2000/svg">
<path opacity="0.996078" d="M144.144 0H150.715L151.536 0.821333L152.357 0H162.213L163.035 0.821333H171.248L189.317 4.10667L216.421 13.1413C237.393 22.5593 255.051 35.29 269.397 51.3333C282.977 66.2268 293.38 84.2962 300.608 105.541L305.536 124.432L307.179 140.037L308 140.859V167.963L307.179 168.784L306.357 181.925L302.251 198.352C299.403 208.646 295.57 217.954 290.752 226.277C281.608 243.416 269.972 258.063 255.845 270.219C240.623 284.017 222.28 294.694 200.816 302.251L185.211 306.357L165.499 309.643H138.395C94.0974 303.017 60.5596 285.632 37.7813 257.488C29.8965 248.399 23.0521 238.269 17.248 227.099L6.57067 200.816L0.821333 173.712L0 149.072L0.821333 148.251V135.931L3.28533 121.968L6.57067 108.827L11.4987 95.6853L25.4613 69.4027L43.5307 46.816C45.0091 47.4183 45.5566 47.0076 45.1733 45.584C58.4242 32.2784 74.1664 21.4642 92.4 13.1413L115.397 4.928L144.144 0ZM149.483 10.6773L136.341 13.1413L124.021 20.5333C121.284 21.6284 119.641 24.0924 119.093 27.9253L115.808 30.3893H113.344L114.165 26.2827L116.629 22.9973C120.462 18.6169 125.664 15.3316 132.235 13.1413V12.32L114.987 16.4267L115.808 21.3547L114.165 19.712L112.523 21.3547H102.667L101.024 22.9973L110.059 24.64L110.88 28.7467L102.667 32.032C97.1911 32.032 93.0844 31.2107 90.3467 29.568C85.9662 29.0204 82.9547 29.8418 81.312 32.032L97.7387 35.3173C101.572 35.8649 104.857 35.3173 107.595 33.6747L119.093 34.496L137.163 43.5307L142.912 45.1733H151.947L152.768 45.9947L168.373 44.352L179.051 41.0667L189.728 40.2453L193.013 38.6027L205.333 37.7813C206.976 37.2338 206.976 36.4124 205.333 35.3173H197.941L188.907 36.96H187.264L183.979 37.7813H179.872L181.515 36.1387L190.549 34.496L193.835 32.8533L199.584 33.6747H201.227L207.797 31.2107L204.512 29.568L186.443 31.2107L182.336 33.6747H177.408L163.445 38.6027C159.612 37.5076 157.422 37.7813 156.875 39.424L142.912 38.6027L136.341 36.96L129.771 32.8533L130.592 27.104C132.782 23.8187 136.068 21.3547 140.448 19.712L154.411 16.4267L155.232 14.784L142.912 17.248L126.485 25.4613C124.843 26.0089 124.295 27.6516 124.843 30.3893L121.557 31.2107L122.379 25.4613L128.949 19.712L137.984 15.6053L143.733 13.9627L156.875 13.1413L163.445 11.4987L149.483 10.6773ZM171.659 11.4987V12.32H172.48L171.659 11.4987ZM164.267 13.1413L158.517 14.784V15.6053L166.731 13.9627L164.267 13.1413ZM171.659 15.6053V16.4267H174.944L171.659 15.6053ZM171.659 17.248L167.552 18.8907L158.517 19.712L154.411 22.176L145.376 24.64C143.186 24.0924 142.364 24.64 142.912 26.2827L144.555 25.4613L147.019 26.2827L156.053 22.176L177.408 18.8907C176.313 17.248 174.396 16.7004 171.659 17.248ZM178.229 17.248V18.0693H194.656L178.229 17.248ZM196.299 18.0693V18.8907H197.941L196.299 18.0693ZM183.979 21.3547L172.48 23.8187L171.659 25.4613L188.085 22.176L183.979 21.3547ZM198.763 22.176L200.405 23.8187L209.44 24.64H211.083H212.725L211.904 22.9973L198.763 22.176ZM91.9893 25.4613L92.8107 27.104L96.096 27.9253C99.9289 28.4729 102.94 28.1991 105.131 27.104C104.583 25.4613 103.214 24.9138 101.024 25.4613V27.104L91.9893 25.4613ZM165.909 25.4613L165.088 27.104L168.373 26.2827L165.909 25.4613ZM182.336 25.4613L166.731 30.3893L142.912 34.496L150.304 36.1387L151.125 35.3173L166.731 34.496L191.371 27.104H197.941V25.4613L194.656 26.2827L193.835 25.4613H182.336ZM159.339 26.2827L150.304 28.7467C147.566 28.1991 146.471 28.7467 147.019 30.3893L163.445 27.104L159.339 26.2827ZM139.627 27.104V27.9253H140.448L139.627 27.104ZM216.011 28.7467L213.547 29.568H211.904L209.44 30.3893C209.988 32.032 211.904 32.5796 215.189 32.032V30.3893L219.296 32.032H225.867L223.403 29.568L216.011 28.7467ZM208.619 31.2107L206.976 32.032V32.8533H211.083L208.619 31.2107ZM142.912 36.1387C142.364 37.7813 143.186 38.3289 145.376 37.7813C145.924 36.1387 145.102 35.5911 142.912 36.1387ZM229.152 36.1387L227.509 37.7813L231.616 39.424C235.996 38.8764 239.282 39.424 241.472 41.0667C242.567 41.6142 242.841 41.0667 242.293 39.424L238.187 37.7813L235.723 38.6027L229.152 36.1387ZM72.2773 36.96L69.8133 38.6027L87.8827 40.2453L106.773 45.9947H115.808L88.704 37.7813C81.5858 38.8764 76.1102 38.6027 72.2773 36.96ZM147.019 36.96V37.7813H148.661L147.019 36.96ZM210.261 36.96V37.7813H220.939L226.688 38.6027V36.96H210.261ZM108.416 37.7813L107.595 38.6027L96.9173 39.424L105.952 41.0667H113.344L119.915 44.352C121.557 44.8996 122.105 44.352 121.557 42.7093C118.82 39.9716 114.439 38.3289 108.416 37.7813ZM197.941 40.2453V41.0667H198.763L197.941 40.2453ZM213.547 41.888L212.725 43.5307L217.653 42.7093L213.547 41.888ZM64.064 43.5307L62.4213 45.1733L88.704 48.4587L99.3813 54.208L100.203 56.672L105.952 59.9573L106.773 61.6L87.8827 52.5653L72.2773 49.28L56.672 50.1013L54.208 52.5653C54.7556 53.6604 54.4818 53.9342 53.3867 53.3867L51.744 55.8507L67.3493 57.4933L72.2773 59.136L83.776 64.8853L103.488 82.1333L111.701 85.4187L124.021 87.8827L128.949 87.0613L133.056 87.8827L147.019 87.0613L165.088 81.312L185.621 68.992L206.976 58.3147L207.797 56.672L201.227 59.136L187.264 67.3493L174.123 72.2773H170.837L189.728 60.7787L206.155 53.3867V52.5653L197.941 55.0293L184.8 62.4213L169.195 67.3493H167.552L173.301 62.4213L194.656 52.5653L195.477 50.9227L188.085 54.208L181.515 55.0293L163.445 62.4213L158.517 63.2427H156.875L160.16 60.7787L169.195 58.3147L188.907 48.4587L202.869 44.352V43.5307L189.728 45.9947L151.125 59.9573L143.733 61.6H134.699L133.877 62.4213H126.485L116.629 59.9573L106.773 55.8507L89.5253 45.9947L79.6693 43.5307H72.2773L71.456 44.352L68.1707 43.5307L65.7067 44.352L64.064 43.5307ZM125.664 44.352L126.485 45.9947H127.307L125.664 44.352ZM128.128 45.9947V46.816H129.771L128.128 45.9947ZM231.616 45.9947V46.816L234.901 47.6373H240.651C238.46 45.9947 235.449 45.4471 231.616 45.9947ZM243.936 45.9947L241.472 47.6373L243.115 48.4587L251.328 50.1013C252.423 50.6489 252.697 50.3751 252.149 49.28L249.685 46.816C246.4 47.9111 244.484 47.6373 243.936 45.9947ZM142.091 46.816V48.4587H148.661L142.091 46.816ZM105.952 47.6373L107.595 49.28L124.843 53.3867L130.592 52.5653L125.664 51.744L111.701 47.6373L110.059 48.4587L105.952 47.6373ZM207.797 51.744V52.5653H208.619L207.797 51.744ZM227.509 52.5653C226.962 53.6604 227.783 53.9342 229.973 53.3867L230.795 54.208C231.342 52.0178 230.247 51.4702 227.509 52.5653ZM233.259 52.5653L234.08 54.208C234.628 52.5653 234.354 52.0178 233.259 52.5653ZM235.723 52.5653L236.544 54.208L239.829 53.3867L235.723 52.5653ZM240.651 52.5653V54.208L245.579 55.8507L257.899 57.4933L260.363 59.136V58.3147L253.792 55.0293L240.651 52.5653ZM215.189 53.3867V55.0293L217.653 54.208L215.189 53.3867ZM209.44 55.8507V56.672H211.083L209.44 55.8507ZM218.475 58.3147V59.136H221.76L218.475 58.3147ZM249.685 59.9573L245.579 61.6C248.316 63.2427 252.423 63.5164 257.899 62.4213L266.112 64.8853V64.064L259.541 60.7787L257.899 61.6C256.256 59.9573 253.518 59.4098 249.685 59.9573ZM239.008 60.7787L234.08 62.4213L239.008 63.2427L243.115 62.4213C243.662 63.5164 244.21 63.5164 244.757 62.4213L239.008 60.7787ZM45.9947 61.6V63.2427C55.8507 63.2427 64.6116 64.6116 72.2773 67.3493L78.848 70.6347L91.168 81.312H91.9893L85.4187 73.92L81.312 68.992L68.1707 63.2427L59.136 61.6H45.9947ZM221.76 61.6L202.869 66.528L165.088 87.0613L151.947 91.9893H148.661H147.019L139.627 93.632H128.949L128.128 92.8107L126.485 93.632C122.652 94.7271 120.462 94.4533 119.915 92.8107L117.451 94.4533L123.2 95.2747L124.843 94.4533L131.413 96.096H137.163L161.803 91.168L169.195 87.8827L195.477 71.456C203.691 67.0756 213.273 64.6116 224.224 64.064C225.319 61.8738 224.498 61.0524 221.76 61.6ZM229.973 61.6L229.152 62.4213C225.867 61.3262 224.498 61.8738 225.045 64.064L231.616 62.4213L229.973 61.6ZM45.1733 67.3493L42.7093 68.992L58.3147 69.8133L73.0987 75.5627L83.776 82.1333C88.1564 88.1564 94.1796 92.8107 101.845 96.096L104.309 95.2747L116.629 101.024L133.877 102.667L134.699 103.488H154.411L159.339 101.845L173.301 95.2747L188.085 84.5973L202.048 77.2053L209.44 74.7413L211.083 72.2773L197.941 77.2053L183.157 86.24C182.062 88.4302 180.967 88.4302 179.872 86.24L158.517 96.096L144.555 98.56H134.699L130.592 100.203L129.771 99.3813H119.915L105.131 92.8107L102.667 93.632H101.024L102.667 92.8107L95.2747 88.704L78.0267 74.7413L69.8133 70.6347L59.136 67.3493H45.1733ZM249.685 67.3493C249.685 68.992 250.78 69.8133 252.971 69.8133H260.363L261.184 70.6347H263.648L260.363 68.1707L257.899 68.992L249.685 67.3493ZM264.469 68.1707V70.6347L271.04 73.0987C272.135 73.6462 272.409 72.8249 271.861 70.6347L264.469 68.1707ZM226.688 69.8133L214.368 73.92V74.7413L228.331 71.456L226.688 69.8133ZM229.152 69.8133L229.973 71.456C230.521 69.8133 230.247 69.2658 229.152 69.8133ZM36.96 73.92L35.3173 76.384L38.6027 75.5627L55.8507 77.2053L66.528 81.312L73.0987 86.24L90.3467 107.595L102.667 114.987L114.987 119.093C123.748 120.188 131.413 119.641 137.984 117.451L138.805 115.808C134.425 117.998 128.949 118.546 122.379 117.451H120.736L101.845 112.523L93.632 107.595L80.4907 92.8107L78.848 88.704C71.1822 77.2053 57.2196 72.2773 36.96 73.92ZM245.579 77.2053L246.4 78.848L251.328 79.6693H255.435L254.613 78.0267L245.579 77.2053ZM232.437 78.0267L220.117 82.1333L200.405 91.9893L167.552 113.344L147.84 122.379L134.699 125.664H117.451L114.165 124.843C104.309 122.105 96.096 117.724 89.5253 111.701L76.384 96.9173C67.0756 85.9662 52.2916 80.7644 32.032 81.312L26.2827 89.5253L27.104 90.3467L32.8533 87.8827L43.5307 88.704C35.8649 88.704 30.1156 90.3467 26.2827 93.632L22.9973 97.7387L22.176 99.3813L42.7093 95.2747H50.9227L64.064 98.56L73.0987 104.309L78.0267 110.88L85.4187 124.021L97.7387 135.52C104.857 140.448 114.165 143.733 125.664 145.376H140.448L142.091 143.733H146.197L157.696 139.627L174.944 131.413L185.621 124.021L191.371 118.272C192.466 118.82 192.74 118.272 192.192 116.629L203.691 107.595L204.512 105.131H206.155L220.117 91.168L226.688 87.0613C227.783 87.6089 228.057 87.0613 227.509 85.4187C230.795 85.9662 233.259 85.4187 234.901 83.776L229.973 82.9547L228.331 82.1333C232.711 81.5858 236.544 80.4907 239.829 78.848L242.293 79.6693H243.936L243.115 78.0267H232.437ZM259.541 78.848V79.6693L264.469 81.312C266.112 81.8596 266.66 81.312 266.112 79.6693L259.541 78.848ZM209.44 79.6693L202.048 82.9547V83.776L208.619 82.1333H210.261C210.809 79.9431 210.535 79.1218 209.44 79.6693ZM270.219 80.4907L269.397 82.1333L277.611 84.5973C279.253 85.1449 279.801 84.8711 279.253 83.776C278.158 81.0382 277.337 80.4907 276.789 82.1333L270.219 80.4907ZM261.184 84.5973L260.363 86.24L263.648 87.0613C264.743 86.5138 265.017 87.0613 264.469 88.704C266.112 90.3467 268.576 91.4418 271.861 91.9893V90.3467L269.397 89.5253L267.755 87.0613L270.219 88.704H271.04L268.576 86.24C264.743 86.7876 262.279 86.24 261.184 84.5973ZM238.187 85.4187L235.723 87.0613L239.829 87.8827L243.115 87.0613C242.02 85.4187 240.377 84.8711 238.187 85.4187ZM251.328 85.4187C250.78 87.0613 251.328 87.6089 252.971 87.0613C253.518 85.4187 252.971 84.8711 251.328 85.4187ZM254.613 85.4187L255.435 87.0613H257.899C257.351 85.4187 256.256 84.8711 254.613 85.4187ZM198.763 86.24L195.477 87.8827L193.835 90.3467L200.405 87.0613L198.763 86.24ZM272.683 86.24L274.325 88.704L276.789 90.3467L275.968 89.5253C274.325 88.9778 273.778 89.5253 274.325 91.168L281.717 94.4533H285.003L284.181 92.8107C283.634 91.168 282.539 90.6204 280.896 91.168V90.3467C281.991 90.8942 282.265 90.3467 281.717 88.704L275.968 87.0613H274.325L272.683 86.24ZM82.1333 87.0613L84.5973 90.3467V89.5253L82.1333 87.0613ZM191.371 87.0613L189.728 88.704C189.18 89.7991 189.728 90.0729 191.371 89.5253L192.192 87.8827L191.371 87.0613ZM234.901 88.704C227.783 90.3467 222.581 93.632 219.296 98.56C217.653 98.0124 217.106 98.56 217.653 100.203L216.011 101.024L212.725 105.131L224.224 99.3813L248.043 95.2747L246.4 91.9893H238.187L227.509 96.096H223.403L230.795 91.168L235.723 90.3467C236.27 88.704 235.996 88.1564 234.901 88.704ZM271.861 88.704V89.5253H272.683L271.861 88.704ZM110.059 90.3467C110.059 91.9893 111.428 93.0844 114.165 93.632H116.629C116.082 91.9893 115.534 91.7156 114.987 92.8107L114.165 91.168L110.059 90.3467ZM191.371 90.3467L174.944 99.3813C173.301 99.9289 173.028 100.75 174.123 101.845L167.552 105.131L165.909 107.595L171.659 105.131L193.013 91.168L191.371 90.3467ZM248.043 91.9893L251.328 95.2747L257.077 94.4533C256.53 92.2631 254.887 91.4418 252.149 91.9893V93.632L248.043 91.9893ZM258.72 91.9893L257.899 93.632L265.291 96.096H266.933L263.648 92.8107L258.72 91.9893ZM89.5253 92.8107L97.7387 101.024L106.773 105.131L120.736 108.416H128.949L122.379 107.595L109.237 103.488L89.5253 92.8107ZM267.755 93.632V96.096L269.397 96.9173L274.325 97.7387L275.147 98.56L274.325 96.096L272.683 94.4533H271.04L267.755 93.632ZM276.789 95.2747L280.075 99.3813C282.812 98.8338 284.729 99.3813 285.824 101.024H287.467L285.824 96.096L276.789 95.2747ZM138.805 96.096V96.9173H142.091L138.805 96.096ZM36.96 101.024L29.568 102.667L22.176 107.595L18.8907 111.701C23.8187 107.868 30.1156 105.131 37.7813 103.488H54.208C55.3031 105.678 58.0409 106.773 62.4213 106.773C68.992 110.059 74.4676 114.713 78.848 120.736H79.6693L72.2773 110.059C67.8969 105.678 62.6951 102.667 56.672 101.024H36.96ZM172.48 101.024V101.845H173.301L172.48 101.024ZM170.837 101.845L170.016 103.488L171.659 102.667L170.837 101.845ZM96.9173 105.952L99.3813 108.416H101.024L96.9173 105.952ZM42.7093 106.773L28.7467 110.88L19.712 118.272C16.9742 119.915 15.3316 122.379 14.784 125.664H16.4267L17.248 124.021L27.104 114.987C29.8418 112.796 33.9484 111.701 39.424 111.701H41.0667C48.1849 110.606 54.208 111.154 59.136 113.344C64.064 116.082 68.1707 119.641 71.456 124.021L73.0987 126.485L78.0267 129.771L78.848 132.235C85.4187 139.353 93.3582 145.102 102.667 149.483H105.131L106.773 151.125L112.523 152.768H122.379L123.2 153.589L125.664 152.768C110.332 151.673 98.8338 147.019 91.168 138.805L80.4907 127.307C75.5627 120.736 69.8133 115.26 63.2427 110.88L54.208 107.595L42.7093 106.773ZM163.445 107.595L147.84 113.344H143.733V114.987H141.269L140.448 116.629L148.661 114.165L150.304 114.987C156.327 113.892 161.255 111.701 165.088 108.416L163.445 107.595ZM147.84 109.237L147.019 110.059H134.699L135.52 111.701H142.912H144.555L150.304 110.059L147.84 109.237ZM220.117 109.237L209.44 114.165V114.987L221.76 110.059L220.117 109.237ZM248.043 109.237L246.4 110.88L240.651 111.701H239.008L219.296 119.915L195.477 137.163L181.515 143.733L180.693 145.376L188.085 142.912L197.941 137.163L222.581 119.915L238.187 114.165L250.507 111.701H257.077L257.899 112.523H262.827L257.077 110.059H255.435L253.792 110.88L248.043 109.237ZM110.059 110.059L110.88 111.701H113.344L110.059 110.059ZM264.469 110.88L265.291 111.701L266.112 114.165L268.576 114.987H271.04C269.397 112.796 267.207 111.428 264.469 110.88ZM114.165 111.701V112.523H116.629L114.165 111.701ZM124.021 111.701L118.272 113.344L123.2 114.165L128.128 113.344L124.021 111.701ZM289.109 111.701V114.165L291.573 115.808L290.752 113.344L289.109 111.701ZM272.683 113.344V114.987L277.611 117.451H279.253L272.683 113.344ZM207.797 114.987L206.976 116.629L208.619 115.808L207.797 114.987ZM36.1387 116.629L33.6747 117.451L32.032 119.915L36.96 118.272H45.9947L46.816 119.093H50.1013L41.888 116.629H36.1387ZM206.976 117.451V118.272H208.619L206.976 117.451ZM280.075 117.451C281.17 120.736 283.908 122.652 288.288 123.2L294.859 134.699H295.68L294.037 126.485C290.752 122.105 286.098 119.093 280.075 117.451ZM203.691 118.272L204.512 119.915L206.155 119.093L203.691 118.272ZM246.4 118.272L227.509 124.021L202.869 139.627L194.656 146.197L183.157 151.947L160.981 157.696H130.592L114.987 155.232H108.416L84.5973 146.197L62.4213 128.128L45.9947 124.021C35.0436 124.021 27.3778 126.759 22.9973 132.235L19.712 134.699L21.3547 132.235V130.592L11.4987 142.912L12.32 144.555L17.248 137.163L27.104 131.413L36.96 128.128H45.9947L57.4933 133.056V133.877L46.816 130.592H36.1387L23.8187 136.341C16.7004 141.269 12.32 149.209 10.6773 160.16V171.659L14.784 184.8L26.2827 200.405L31.2107 203.691L36.1387 209.44L38.6027 208.619L44.352 211.904L57.4933 215.189L76.384 213.547L98.56 206.155L100.203 206.976L71.456 217.653L62.4213 219.296L49.28 218.475L27.9253 207.797L19.712 197.941L15.6053 188.907H14.784C15.8791 195.477 18.0693 200.953 21.3547 205.333L27.9253 211.083L39.424 217.653L56.672 221.76L70.6347 220.939L83.776 217.653L99.3813 211.904L119.093 208.619H131.413L132.235 209.44H140.448L148.661 211.083L160.981 216.011L170.016 221.76H170.837L147.019 206.155L146.197 204.512C154.411 206.702 161.529 209.988 167.552 214.368L168.373 216.832L174.944 220.117H176.587V221.76L181.515 222.581L179.872 219.296L174.123 217.653V216.832L166.731 210.261L160.16 207.797L159.339 206.155C167.552 207.797 174.396 211.356 179.872 216.832L181.515 216.011L179.872 214.368L177.408 211.083L169.195 206.155L167.552 206.976L165.088 206.155L166.731 205.333L164.267 202.869C160.434 202.869 157.696 202.048 156.053 200.405L152.768 201.227H149.483L151.947 199.584C150.304 197.394 148.114 196.299 145.376 196.299L143.733 193.835H147.84L152.768 197.941L170.016 202.869L188.907 216.832L200.405 220.939H202.869L188.907 214.368C186.716 214.916 185.895 214.368 186.443 212.725L193.013 215.189V213.547L180.693 207.797H179.051L178.229 206.155C182.61 206.702 186.443 208.345 189.728 211.083L191.371 210.261L178.229 204.512L173.301 201.227H174.944H175.765L147.84 187.264L130.592 184.8V183.979H142.912L146.197 185.621L156.053 186.443L171.659 194.656L179.872 201.227C182.062 200.132 182.884 200.679 182.336 202.869L183.979 202.048L183.157 203.691L187.264 205.333L210.261 210.261V208.619L203.691 206.976L206.155 206.155L192.192 202.048L157.696 183.157L141.269 178.229H133.056L132.235 177.408H127.307L121.557 179.051H111.701L99.3813 181.515L61.6 196.299H51.744L40.2453 192.192L38.6027 193.013L41.888 194.656C42.9831 194.108 43.2569 194.656 42.7093 196.299L54.208 198.763V199.584H46.816L35.3173 195.477C33.6747 196.025 33.1271 195.751 33.6747 194.656L27.9253 189.728C28.4729 188.085 28.1991 187.538 27.104 188.085L20.5333 179.872L18.0693 168.373L18.8907 162.624V160.981L19.712 155.232L22.9973 150.304C26.2827 145.376 31.4844 142.364 38.6027 141.269C46.2684 141.269 52.2916 142.912 56.672 146.197L63.2427 155.232C63.7902 159.612 62.9689 163.172 60.7787 165.909L54.208 170.016C51.4702 169.468 50.3751 170.016 50.9227 171.659C55.8507 172.206 59.6836 171.385 62.4213 169.195L69.8133 160.16V156.053L67.3493 151.125L61.6 144.555L62.4213 142.912L65.7067 145.376C68.4444 147.566 70.6347 150.852 72.2773 155.232C72.8249 159.612 72.2773 163.172 70.6347 165.909L61.6 173.301C53.3867 174.396 47.6373 173.575 44.352 170.837L41.0667 166.731L41.888 159.339C42.9831 156.053 45.9947 154.684 50.9227 155.232C52.0178 155.78 52.2916 157.696 51.744 160.981L49.28 162.624C46.5422 161.529 45.9947 160.708 47.6373 160.16C47.0898 158.517 46.2684 158.517 45.1733 160.16L49.28 165.088L55.0293 164.267L58.3147 160.16L57.4933 153.589L50.9227 148.661H48.4587L42.7093 145.376H36.1387L29.568 148.661C25.7351 151.947 22.9973 156.327 21.3547 161.803V170.837C22.9973 171.385 23.5449 173.028 22.9973 175.765L34.496 188.085H35.3173C29.8418 184.252 26.0089 179.051 23.8187 172.48V160.981L30.3893 149.483L32.8533 148.661L34.496 149.483L27.9253 156.875C29.0204 160.16 28.7467 162.35 27.104 163.445L27.9253 172.48L32.032 179.872C32.5796 180.967 33.9484 181.241 36.1387 180.693L36.96 183.157C37.5076 184.252 38.3289 184.252 39.424 183.157L41.0667 183.979H41.888L36.1387 178.229L34.496 179.051L35.3173 177.408L34.496 174.944L33.6747 176.587L29.568 168.373C29.0204 162.898 29.8418 159.065 32.032 156.875C33.6747 153.042 37.2338 150.852 42.7093 150.304L43.5307 152.768L39.424 154.411L35.3173 158.517L34.496 162.624L36.1387 170.837L38.6027 174.944L45.9947 179.051L50.1013 179.872H63.2427L91.168 167.552L114.165 163.445L131.413 164.267L132.235 165.088L135.52 164.267L151.125 167.552L153.589 166.731L168.373 167.552L169.195 168.373H179.872L180.693 169.195H193.013L202.869 167.552L220.117 160.981L241.472 150.304L268.576 145.376C268.028 143.733 267.481 143.46 266.933 144.555L265.291 143.733L254.613 146.197H248.864L244.757 148.661C243.115 149.209 242.567 148.661 243.115 147.019L239.829 147.84H237.365L243.115 142.912L244.757 143.733L241.472 144.555L242.293 146.197L252.149 142.912L255.435 141.269C257.625 141.817 258.446 141.269 257.899 139.627L255.435 140.448L248.864 138.805L243.115 140.448L228.331 149.483L223.403 151.125L221.76 151.947L222.581 149.483L226.688 147.019C227.783 147.566 228.057 147.019 227.509 145.376L232.437 142.912L233.259 141.269L238.187 135.52C233.259 136.068 229.7 137.71 227.509 140.448L231.616 141.269L227.509 142.091V140.448L221.76 144.555L218.475 149.483L206.976 157.696L198.763 161.803L189.728 163.445H179.872L183.979 161.803L187.264 162.624L202.869 156.875L224.224 137.984L243.115 130.592C244.757 131.14 245.305 130.592 244.757 128.949L241.472 128.128L239.829 128.949C238.187 128.402 237.639 128.949 238.187 130.592L237.365 129.771L216.011 137.163L214.368 137.984L221.76 133.056L220.117 132.235L230.795 125.664L231.616 126.485L223.403 130.592L222.581 132.235L235.723 125.664L245.579 124.021L248.864 124.843L259.541 124.021L256.256 122.379L254.613 123.2L249.685 122.379L243.936 123.2L242.293 124.021L248.043 119.915L252.971 121.557C254.613 122.105 255.435 121.557 255.435 119.915H258.72C259.268 121.01 259.815 121.01 260.363 119.915L256.256 118.272H254.613L251.328 119.093H253.792V119.915L246.4 118.272ZM262.827 119.093V119.915H263.648L262.827 119.093ZM266.933 119.915V122.379L272.683 123.2L275.147 124.843V124.021L266.933 119.915ZM203.691 120.736L199.584 124.021H197.12L195.477 127.307L205.333 121.557L203.691 120.736ZM275.968 122.379L276.789 125.664L279.253 126.485C280.896 127.033 281.444 126.759 280.896 125.664L275.968 122.379ZM267.755 124.843L269.397 126.485L271.861 125.664L267.755 124.843ZM282.539 125.664L286.645 133.056C286.645 136.341 287.467 139.079 289.109 141.269C288.562 142.912 289.109 143.46 290.752 142.912L287.467 130.592L282.539 125.664ZM193.013 127.307L179.051 137.163L176.587 140.448L180.693 138.805L194.656 128.949L193.013 127.307ZM258.72 127.307L257.077 128.949L261.184 129.771H264.469C263.374 127.58 261.458 126.759 258.72 127.307ZM245.579 128.128L247.221 130.592L249.685 128.949L245.579 128.128ZM250.507 130.592L249.685 132.235C251.328 132.782 252.423 132.508 252.971 131.413L250.507 130.592ZM268.576 130.592C268.028 132.235 268.85 132.782 271.04 132.235C271.588 130.592 270.766 130.044 268.576 130.592ZM257.899 132.235L257.077 133.877H260.363L257.899 132.235ZM271.861 132.235L272.683 133.877C273.23 132.235 272.956 131.687 271.861 132.235ZM275.147 132.235L280.075 137.163V135.52L275.147 132.235ZM241.472 133.056V133.877H244.757L241.472 133.056ZM291.573 133.877L292.395 139.627C294.037 140.174 294.585 139.9 294.037 138.805V137.163L291.573 133.877ZM280.896 137.163L280.075 139.627L283.36 142.912V144.555C281.17 143.46 280.348 144.007 280.896 146.197L284.181 147.019L285.003 145.376C284.455 141.543 283.086 138.805 280.896 137.163ZM278.432 137.984L277.611 141.269H280.075L278.432 137.984ZM259.541 138.805V141.269V142.091L265.291 141.269L259.541 138.805ZM296.501 138.805C295.406 140.448 295.68 140.996 297.323 140.448L296.501 138.805ZM170.837 139.627L165.909 141.269V142.091L174.123 140.448L170.837 139.627ZM294.859 141.269L294.037 144.555L295.68 145.376L294.859 141.269ZM273.504 144.555V147.019H277.611V146.197C277.063 144.555 275.694 144.007 273.504 144.555ZM287.467 144.555L285.824 147.84C286.919 149.483 287.74 149.483 288.288 147.84L287.467 144.555ZM297.323 144.555V148.661C296.775 149.756 296.228 149.756 295.68 148.661C295.68 150.852 294.859 152.494 293.216 153.589L294.859 156.875L297.323 158.517L296.501 154.411L297.323 150.304V152.768H298.144C298.692 148.935 298.418 146.197 297.323 144.555ZM176.587 145.376V147.019L178.229 146.197L176.587 145.376ZM148.661 146.197V147.019H154.411L148.661 146.197ZM174.123 146.197L166.731 148.661V149.483L174.944 147.84C175.492 146.197 175.218 145.65 174.123 146.197ZM290.752 146.197L289.931 148.661L291.573 149.483L290.752 146.197ZM141.269 148.661V149.483H142.091L141.269 148.661ZM144.555 148.661V149.483H146.197L144.555 148.661ZM289.109 148.661L289.931 150.304C290.478 148.661 290.204 148.114 289.109 148.661ZM292.395 149.483C291.3 151.125 291.573 151.673 293.216 151.125L292.395 149.483ZM160.981 150.304L157.696 151.947H151.125L150.304 152.768L128.128 153.589L135.52 154.411L136.341 153.589H154.411L163.445 151.947L164.267 151.125L160.981 150.304ZM268.576 156.053V157.696H272.683V156.053H268.576ZM243.115 156.875C235.449 162.35 226.962 166.731 217.653 170.016C215.463 169.468 214.642 170.016 215.189 171.659L223.403 170.016L244.757 157.696L243.115 156.875ZM274.325 157.696L275.147 159.339H277.611C277.063 157.696 275.968 157.148 274.325 157.696ZM290.752 158.517L289.931 160.16H290.752V158.517ZM261.184 160.16L255.435 161.803L258.72 162.624L260.363 161.803L267.755 163.445V161.803L261.184 160.16ZM280.896 160.16V161.803L285.824 163.445V162.624L280.896 160.16ZM252.971 160.981L248.864 162.624H254.613C255.161 160.981 254.613 160.434 252.971 160.981ZM243.115 162.624C243.662 164.267 243.388 164.814 242.293 164.267L241.472 165.909L248.043 164.267V162.624H243.115ZM287.467 163.445L285.824 165.909L287.467 166.731V163.445ZM239.829 165.088L228.331 171.659L221.76 173.301C219.57 172.754 218.748 173.301 219.296 174.944H209.44L208.619 175.765L206.155 174.944L193.835 176.587L202.048 178.229L218.475 177.408L240.651 166.731L239.829 165.088ZM279.253 165.088V166.731L281.717 167.552V166.731L279.253 165.088ZM261.184 166.731L260.363 167.552H252.149L246.4 170.837C242.567 169.742 240.924 170.29 241.472 172.48L247.221 171.659L252.149 169.195H260.363H262.005C265.291 170.29 266.66 169.742 266.112 167.552L261.184 166.731ZM267.755 167.552L266.933 169.195H267.755V167.552ZM283.36 167.552L282.539 169.195L284.181 170.016L283.36 167.552ZM290.752 167.552L289.931 172.48L291.573 171.659L290.752 167.552ZM211.904 170.016C211.356 171.111 212.178 171.659 214.368 171.659C214.916 170.016 214.094 169.468 211.904 170.016ZM113.344 171.659L112.523 173.301L115.808 172.48L143.733 174.123L151.947 175.765C161.255 177.956 169.468 181.788 176.587 187.264L190.549 191.371C191.644 191.918 191.918 191.644 191.371 190.549L186.443 187.264L185.621 188.907L157.696 175.765L135.52 171.659H113.344ZM103.488 172.48L86.24 179.051L85.4187 180.693L105.952 173.301L103.488 172.48ZM165.909 172.48V173.301L169.195 174.123L178.229 179.872L198.763 185.621V183.979L206.155 185.621C206.702 183.979 206.428 183.431 205.333 183.979V183.157L208.619 185.621C212.452 185.074 215.189 185.348 216.832 186.443L217.653 183.979V185.621L220.939 186.443C221.486 184.8 220.939 184.252 219.296 184.8V183.979C222.034 183.431 223.129 183.979 222.581 185.621H229.973V183.979L225.045 184.8V183.979C226.14 184.526 226.414 183.979 225.867 182.336L222.581 183.157L220.117 182.336L217.653 183.157H216.011L215.189 182.336H204.512L198.763 180.693H193.835L165.909 172.48ZM270.219 174.123L269.397 175.765H270.219V174.123ZM289.931 174.123L288.288 175.765H289.931V174.123ZM251.328 174.944C250.78 176.039 251.602 176.587 253.792 176.587C254.34 174.944 253.518 174.396 251.328 174.944ZM275.147 175.765L274.325 178.229H275.147V175.765ZM285.824 175.765L283.36 179.872L285.824 178.229V175.765ZM265.291 177.408L263.648 178.229L262.827 179.872L265.291 179.051V177.408ZM243.115 179.051L238.187 181.515L228.331 183.157L230.795 183.979L244.757 181.515L247.221 179.872L243.115 179.051ZM293.216 179.051L290.752 182.336L293.216 180.693V179.051ZM281.717 179.872L280.896 182.336H282.539L283.36 180.693L281.717 179.872ZM82.1333 180.693L80.4907 181.515L79.6693 183.157L83.776 181.515L82.1333 180.693ZM268.576 181.515C266.386 184.252 263.648 186.169 260.363 187.264V188.085C264.196 188.085 266.933 186.716 268.576 183.979V181.515ZM240.651 183.157V183.979H242.293L240.651 183.157ZM280.075 183.157L279.253 184.8H280.075V183.157ZM289.109 183.157L285.824 187.264L289.109 184.8V183.157ZM42.7093 183.979V184.8H43.5307L42.7093 183.979ZM235.723 183.979L234.901 185.621L239.008 184.8L235.723 183.979ZM41.0667 184.8L43.5307 187.264L50.1013 188.907H56.672L68.992 186.443V184.8L64.064 186.443H55.8507L55.0293 187.264L44.352 184.8V186.443L41.0667 184.8ZM285.003 186.443L281.717 190.549L285.003 188.907V186.443ZM293.216 187.264L290.752 190.549H292.395L293.216 188.907V187.264ZM36.1387 188.085L38.6027 190.549H41.0667L36.1387 188.085ZM257.077 188.085L255.435 188.907H253.792L246.4 190.549V191.371L251.328 190.549L253.792 191.371L259.541 188.907L257.077 188.085ZM289.931 189.728C288.836 191.371 289.109 191.918 290.752 191.371L289.931 189.728ZM193.013 190.549L193.835 192.192H198.763L193.013 190.549ZM271.04 190.549L270.219 192.192L272.683 191.371L271.04 190.549ZM266.933 192.192L267.755 193.835C268.302 192.192 268.028 191.644 266.933 192.192ZM263.648 193.013L262.005 193.835V194.656L266.112 193.835L263.648 193.013ZM288.288 193.013L289.109 195.477L289.931 193.835L288.288 193.013ZM259.541 194.656V195.477H260.363L259.541 194.656ZM287.467 195.477L285.824 197.941L288.288 197.12C288.836 195.477 288.562 194.93 287.467 195.477ZM249.685 196.299L246.4 197.12V197.941C249.138 198.489 250.78 198.215 251.328 197.12L249.685 196.299ZM209.44 197.941C209.44 199.584 210.535 200.405 212.725 200.405L215.189 199.584L209.44 197.941ZM217.653 198.763L216.832 200.405H217.653V198.763ZM218.475 198.763V200.405H221.76L218.475 198.763ZM278.432 199.584L277.611 200.405C275.968 199.858 275.42 200.405 275.968 202.048C275.42 203.143 274.873 203.143 274.325 202.048L268.576 205.333V206.155L276.789 203.691L279.253 200.405L278.432 199.584ZM275.147 200.405L274.325 202.048H275.147V200.405ZM288.288 200.405L286.645 202.048L284.181 203.691L280.896 207.797L282.539 206.976L285.003 207.797L288.288 202.869V200.405ZM254.613 204.512L252.971 205.333L252.149 206.976L255.435 206.155C255.982 204.512 255.708 203.964 254.613 204.512ZM208.619 206.155V206.976H209.44L208.619 206.155ZM247.221 206.155L242.293 207.797C241.198 208.892 240.377 208.619 239.829 206.976L235.723 208.619L233.259 207.797H217.653L216.832 208.619L213.547 206.976L209.44 207.797L217.653 211.083L221.76 210.261L222.581 211.083L233.259 211.904V211.083C231.616 211.63 231.068 211.083 231.616 209.44C234.901 208.892 237.365 209.44 239.008 211.083L250.507 206.976L247.221 206.155ZM276.789 206.976L274.325 209.44L275.147 210.261L278.432 208.619C278.98 206.976 278.432 206.428 276.789 206.976ZM252.149 207.797C251.602 209.44 252.149 209.988 253.792 209.44C254.34 207.797 253.792 207.25 252.149 207.797ZM272.683 209.44L270.219 211.083V211.904L273.504 211.083L272.683 209.44ZM285.824 209.44L277.611 215.189L278.432 216.011L286.645 210.261L285.824 209.44ZM193.835 210.261L193.013 211.904L194.656 211.083L193.835 212.725L205.333 216.011L207.797 215.189L216.011 217.653L218.475 216.832L221.76 217.653H229.152L218.475 215.189L216.832 216.011L213.547 215.189H211.904C209.714 213.547 206.702 212.999 202.869 213.547L201.227 211.904L193.835 210.261ZM254.613 211.904L252.971 213.547H255.435C255.982 211.904 255.708 211.356 254.613 211.904ZM267.755 211.904L266.112 212.725L265.291 214.368L269.397 212.725L267.755 211.904ZM23.8187 214.368V216.011L28.7467 219.296H29.568L23.8187 214.368ZM263.648 214.368L262.827 216.011L264.469 215.189L263.648 214.368ZM248.864 215.189V216.011H249.685L248.864 215.189ZM275.147 215.189L269.397 218.475V219.296C272.683 219.844 274.599 219.022 275.147 216.832V215.189ZM121.557 216.832L120.736 217.653H107.595L96.096 220.939V221.76L107.595 219.296H129.771L142.912 221.76L152.768 227.509L165.088 239.008L166.731 242.293V243.936L173.301 248.864L179.872 252.149H187.264L188.085 251.328L183.157 249.685C181.515 250.233 180.967 249.685 181.515 248.043L179.051 247.221L177.408 248.043V247.221L169.195 241.472C163.172 234.354 156.327 228.057 148.661 222.581L142.091 219.296L133.877 217.653H125.664L124.843 216.832L123.2 217.653L121.557 216.832ZM181.515 216.832L180.693 218.475L186.443 220.939H188.085L181.515 216.832ZM245.579 216.832L244.757 218.475L246.4 217.653L245.579 216.832ZM256.256 217.653L257.077 219.296L258.72 218.475L256.256 217.653ZM237.365 218.475L235.723 219.296L234.901 220.939L239.829 220.117H241.472L243.115 219.296L237.365 218.475ZM252.971 218.475V220.117L254.613 219.296L252.971 218.475ZM30.3893 219.296C30.9369 221.486 32.5796 222.855 35.3173 223.403H36.96L30.3893 219.296ZM232.437 219.296L233.259 220.939C233.806 219.296 233.532 218.748 232.437 219.296ZM248.864 219.296L248.043 220.939L250.507 220.117L248.864 219.296ZM268.576 219.296L262.827 222.581V223.403L265.291 222.581H266.933C266.386 220.939 266.933 220.391 268.576 220.939V219.296ZM36.96 220.117C36.96 221.76 38.3289 222.855 41.0667 223.403H41.888C40.7929 220.665 39.9716 220.117 39.424 221.76L36.96 220.117ZM207.797 220.117V221.76L206.976 220.939L203.691 221.76L206.976 222.581L209.44 221.76L211.083 222.581C212.178 223.129 212.452 222.581 211.904 220.939L207.797 220.117ZM212.725 220.939V222.581L214.368 221.76L212.725 220.939ZM234.08 220.939L232.437 222.581H234.08V220.939ZM27.9253 221.76C26.8302 223.95 27.104 225.593 28.7467 226.688C38.0551 234.354 50.3751 239.282 65.7067 241.472H75.5627C77.7529 239.829 81.0382 239.008 85.4187 239.008L94.4533 234.901L108.416 235.723L109.237 236.544C110.88 235.996 111.428 236.544 110.88 238.187C116.356 239.829 121.01 242.567 124.843 246.4L128.128 247.221L138.805 256.256L147.019 261.184H148.661L133.877 248.864L117.451 238.187L111.701 234.901L103.488 233.259L92.8107 234.08C86.7876 237.913 79.3956 239.829 70.6347 239.829H68.992L67.3493 239.008L64.064 239.829V239.008L42.7093 232.437C36.6862 229.7 31.7582 226.14 27.9253 221.76ZM94.4533 221.76V222.581H95.2747L94.4533 221.76ZM186.443 221.76L187.264 223.403L192.192 225.867H193.013C191.918 223.129 189.728 221.76 186.443 221.76ZM216.011 221.76V223.403V224.224H220.939L216.011 221.76ZM222.581 222.581V223.403H223.403L222.581 222.581ZM111.701 223.403L105.952 225.045H120.736L132.235 227.509L137.984 229.973H142.091L158.517 242.293H159.339C154.958 236.27 149.483 231.616 142.912 228.331L119.093 223.403L114.987 224.224L111.701 223.403ZM243.115 223.403L241.472 225.045C242.567 226.688 243.388 226.688 243.936 225.045C244.484 223.403 244.21 222.855 243.115 223.403ZM100.203 225.045V225.867L102.667 226.688L104.309 225.867L100.203 225.045ZM193.835 225.867V226.688H194.656L193.835 225.867ZM196.299 225.867L194.656 227.509L201.227 229.152H203.691L202.869 226.688L196.299 225.867ZM277.611 225.867L273.504 229.152L274.325 229.973L277.611 227.509V225.867ZM83.776 226.688V227.509H85.4187L83.776 226.688ZM91.9893 226.688V227.509H93.632L91.9893 226.688ZM169.195 226.688L176.587 234.08L193.013 241.472H194.656L188.907 237.365L187.264 238.187L170.837 226.688H169.195ZM254.613 226.688L247.221 228.331V229.152C251.054 229.7 254.066 229.152 256.256 227.509L254.613 226.688ZM76.384 227.509L73.0987 228.331L73.92 229.973L82.9547 228.331L76.384 227.509ZM204.512 227.509L205.333 229.152H207.797L204.512 227.509ZM110.88 228.331V229.152L118.272 231.616C119.367 232.164 119.641 231.616 119.093 229.973L110.88 228.331ZM208.619 228.331V229.973L211.904 230.795L215.189 229.973L216.011 228.331L214.368 229.152L208.619 228.331ZM232.437 228.331L229.152 229.152L229.973 230.795H235.723V229.152L232.437 228.331ZM241.472 228.331L237.365 229.152L238.187 230.795L245.579 229.152L241.472 228.331ZM224.224 229.973C224.224 232.164 224.772 232.437 225.867 230.795L224.224 229.973ZM120.736 230.795L121.557 232.437L133.056 235.723H133.877L131.413 233.259L120.736 230.795ZM243.115 232.437L241.472 233.259V234.08C243.662 234.628 245.031 234.354 245.579 233.259L243.115 232.437ZM269.397 232.437L260.363 235.723V236.544C264.743 236.544 268.028 235.449 270.219 233.259L269.397 232.437ZM191.371 233.259L192.192 234.901L197.12 237.365C200.953 239.556 206.155 240.651 212.725 240.651L215.189 242.293L216.832 241.472L212.725 239.829H211.083L191.371 233.259ZM71.456 234.901V235.723H72.2773L71.456 234.901ZM137.163 234.901L136.341 236.544H137.163V234.901ZM122.379 235.723L128.949 242.293V239.008L122.379 235.723ZM139.627 235.723L138.805 237.365L144.555 239.829L157.696 252.149L161.803 253.792H164.267L160.16 251.328L147.84 239.829L139.627 235.723ZM36.96 237.365V239.008L41.0667 241.472L48.4587 243.115L60.7787 248.043H68.1707L68.992 248.864L88.704 247.221L93.632 244.757L106.773 245.579L112.523 248.864C116.356 252.697 119.367 257.351 121.557 262.827L129.771 269.397L147.019 277.611H152.768L151.947 276.789H150.304L142.912 274.325L129.771 265.291L118.272 249.685C114.987 244.757 110.059 241.746 103.488 240.651L91.168 241.472L82.9547 243.936H76.384L68.992 245.579L55.8507 244.757L36.96 237.365ZM228.331 238.187V239.008H229.973L228.331 238.187ZM134.699 239.829L147.84 252.971L152.768 255.435H153.589L146.197 249.685L139.627 242.293L134.699 239.829ZM268.576 239.829L257.077 243.115V243.936C262.553 243.936 266.66 242.841 269.397 240.651L268.576 239.829ZM222.581 241.472L220.939 243.115H222.581V241.472ZM202.869 243.115L203.691 244.757H204.512L202.869 243.115ZM254.613 243.115L253.792 244.757H254.613V243.115ZM46.816 246.4V249.685L49.28 251.328L52.5653 252.149H54.208L51.744 250.507V249.685L55.0293 250.507H57.4933L46.816 246.4ZM244.757 246.4L243.936 248.043L246.4 247.221L244.757 246.4ZM235.723 247.221L234.08 248.864H236.544C237.092 247.221 236.818 246.674 235.723 247.221ZM95.2747 248.043L68.992 253.792L63.2427 251.328L60.7787 252.149L64.8853 252.971V253.792C61.6 254.887 59.6836 254.613 59.136 252.971L55.0293 253.792L61.6 257.077H64.8853C65.4329 254.887 66.2542 254.613 67.3493 256.256L79.6693 254.613C80.2169 256.256 79.9431 256.804 78.848 256.256V257.077C83.2284 257.625 86.5138 257.077 88.704 255.435H97.7387L98.56 256.256C101.298 256.804 102.94 255.982 103.488 253.792L109.237 256.256L119.093 269.397C120.188 268.85 120.462 269.397 119.915 271.04L127.307 275.968L142.912 282.539H143.733L122.379 270.219C117.998 268.028 115.26 264.743 114.165 260.363L105.952 252.149L104.309 252.971L97.7387 251.328L93.632 252.149H89.5253L100.203 248.864L108.416 252.149L106.773 248.864C104.583 247.769 100.75 247.495 95.2747 248.043ZM260.363 248.864L257.077 250.507V251.328C259.268 251.876 260.636 251.328 261.184 249.685L260.363 248.864ZM254.613 251.328V252.149H255.435L254.613 251.328ZM126.485 252.149L135.52 262.005V261.184L126.485 252.149ZM50.1013 252.971V254.613L54.208 256.256L52.5653 257.077L56.672 257.899L59.136 258.72H60.7787L50.1013 252.971ZM165.909 252.971L164.267 254.613H165.909V252.971ZM243.936 252.971C241.746 255.161 238.46 255.982 234.08 255.435L232.437 257.899L242.293 255.435L245.579 253.792L243.936 252.971ZM167.552 254.613V256.256C170.837 255.708 173.575 256.53 175.765 258.72C176.86 259.268 177.134 258.994 176.587 257.899C174.396 255.161 171.385 254.066 167.552 254.613ZM225.045 254.613L223.403 255.435V256.256C225.045 256.804 226.14 256.53 226.688 255.435L225.045 254.613ZM156.053 255.435L156.875 257.077H157.696L156.053 255.435ZM202.048 255.435C202.048 257.077 201.227 257.625 199.584 257.077H197.941L196.299 257.899L195.477 259.541L204.512 257.899L202.048 255.435ZM229.152 255.435L227.509 257.077H229.973C230.521 255.435 230.247 254.887 229.152 255.435ZM254.613 255.435L252.971 256.256L251.328 258.72L256.256 256.256L254.613 255.435ZM205.333 256.256V257.899L212.725 257.077L205.333 256.256ZM218.475 256.256V257.077H219.296L218.475 256.256ZM223.403 257.077V257.899H226.688L223.403 257.077ZM67.3493 257.899L68.992 259.541H77.2053L67.3493 257.899ZM55.8507 258.72L55.0293 260.363L68.992 264.469L82.1333 263.648L91.168 260.363L94.4533 261.184L101.024 260.363V259.541H87.0613L73.0987 262.005V263.648L55.8507 258.72ZM103.488 258.72L110.059 265.291H110.88L105.131 258.72H103.488ZM187.264 258.72L183.157 260.363L182.336 262.005L188.085 260.363C188.633 258.72 188.359 258.172 187.264 258.72ZM213.547 259.541L212.725 261.184L215.189 260.363L213.547 259.541ZM190.549 260.363L187.264 262.827H188.907H190.549L192.192 263.648L195.477 262.827L190.549 260.363ZM194.656 260.363V261.184H195.477L194.656 260.363ZM220.939 260.363L215.189 262.005V262.827C219.022 263.374 221.486 262.827 222.581 261.184L220.939 260.363ZM239.829 260.363L235.723 262.827L234.901 264.469L241.472 261.184L239.829 260.363ZM196.299 261.184V262.005H197.12L196.299 261.184ZM204.512 261.184L202.048 262.005V262.827C205.333 263.374 207.524 263.1 208.619 262.005L204.512 261.184ZM226.688 262.005V262.827H227.509L226.688 262.005ZM148.661 264.469V265.291L156.875 267.755L160.16 266.933L163.445 267.755L165.909 266.933L166.731 265.291L163.445 266.112L148.661 264.469ZM181.515 264.469L174.123 269.397L174.944 270.219L181.515 266.112V264.469ZM186.443 264.469L185.621 266.112H186.443V264.469ZM100.203 265.291V266.112H103.488L100.203 265.291ZM245.579 265.291L240.651 266.112L239.829 267.755C243.115 268.302 245.579 267.755 247.221 266.112L245.579 265.291ZM86.24 266.112L87.0613 267.755L91.168 266.933L86.24 266.112ZM95.2747 266.112L90.3467 267.755L91.168 269.397C92.8107 267.755 95.2747 267.207 98.56 267.755C98.0124 266.112 96.9173 265.564 95.2747 266.112ZM182.336 266.112L181.515 267.755L183.979 266.933L182.336 266.112ZM229.152 266.112V266.933H229.973L229.152 266.112ZM140.448 266.933C140.448 268.576 141.817 269.671 144.555 270.219H147.019L140.448 266.933ZM192.192 266.933L191.371 268.576L197.12 267.755L192.192 266.933ZM224.224 267.755L223.403 269.397L225.867 268.576L224.224 267.755ZM237.365 267.755C237.365 269.945 237.913 270.219 239.008 268.576L237.365 267.755ZM64.064 268.576L64.8853 270.219C67.0756 269.671 68.4444 270.219 68.992 271.861H73.0987L75.5627 273.504H84.5973L85.4187 272.683L101.845 273.504L108.416 275.968H110.059L105.131 272.683L95.2747 271.04L91.9893 271.861L90.3467 271.04L85.4187 271.861H74.7413L64.064 268.576ZM188.085 268.576L187.264 270.219L188.907 269.397L188.085 268.576ZM185.621 269.397L184.8 271.04H185.621V269.397ZM197.12 269.397V270.219H197.941L197.12 269.397ZM199.584 269.397V270.219H202.048L199.584 269.397ZM206.976 269.397L206.155 270.219C203.964 269.671 203.143 270.219 203.691 271.861L208.619 270.219L206.976 269.397ZM215.189 269.397L213.547 270.219L211.083 273.504L218.475 270.219L216.832 269.397H215.189ZM229.152 270.219L227.509 271.861H230.795C231.342 270.219 230.795 269.671 229.152 270.219ZM192.192 271.04L183.979 273.504L182.336 272.683C179.598 272.135 178.503 272.683 179.051 274.325L181.515 275.147L193.013 272.683C193.561 271.04 193.287 270.492 192.192 271.04ZM202.869 272.683L200.405 273.504V274.325L207.797 273.504V272.683L204.512 273.504L202.869 272.683ZM230.795 274.325L229.152 275.147L228.331 276.789L233.259 275.147L230.795 274.325ZM169.195 275.147L165.088 276.789V277.611H170.837V275.968L169.195 275.147ZM175.765 275.147L171.659 277.611L172.48 278.432L179.872 275.968L175.765 275.147ZM84.5973 275.968V276.789C89.5253 276.242 93.632 276.789 96.9173 278.432L100.203 277.611L93.632 275.968H84.5973ZM110.88 275.968L110.059 277.611L119.093 282.539H119.915C117.724 279.253 114.713 277.063 110.88 275.968ZM197.941 275.968L195.477 279.253L203.691 278.432L206.976 276.789V275.968L198.763 277.611V276.789L197.941 275.968ZM218.475 275.968V276.789H219.296L218.475 275.968ZM154.411 276.789L152.768 278.432H156.875C157.422 279.527 157.97 279.527 158.517 278.432L154.411 276.789ZM189.728 276.789L188.907 278.432L191.371 277.611L189.728 276.789ZM162.624 277.611V278.432H164.267L162.624 277.611ZM98.56 278.432V279.253L101.024 280.075H103.488C102.94 278.432 101.298 277.884 98.56 278.432ZM170.016 278.432L155.232 282.539V283.36L167.552 280.896L170.837 279.253L170.016 278.432ZM224.224 278.432L221.76 280.075L223.403 280.896L220.117 281.717L219.296 283.36C222.034 283.908 223.95 283.36 225.045 281.717C225.593 278.98 225.319 277.884 224.224 278.432ZM107.595 280.075L108.416 281.717C108.964 280.075 108.69 279.527 107.595 280.075ZM124.843 280.075L125.664 284.181L136.341 290.752C140.174 291.847 141.817 291.3 141.269 289.109C135.794 289.109 131.687 287.74 128.949 285.003L130.592 284.181L124.843 280.075ZM151.947 280.075L151.125 281.717H151.947V280.075ZM84.5973 280.896C86.7876 284.181 91.168 286.098 97.7387 286.645L96.096 287.467L101.024 289.931H103.488L101.845 287.467C100.203 288.014 99.6551 287.467 100.203 285.824L84.5973 280.896ZM183.157 280.896L176.587 283.36H183.157L183.979 281.717L183.157 280.896ZM188.907 280.896V282.539L190.549 281.717L188.907 280.896ZM209.44 280.896L207.797 281.717L206.976 283.36L209.44 282.539V280.896ZM147.84 281.717L148.661 283.36C149.209 281.717 148.935 281.17 147.84 281.717ZM120.736 282.539V284.181C120.188 285.276 120.736 285.55 122.379 285.003L121.557 284.181C122.105 282.539 121.831 281.991 120.736 282.539ZM201.227 283.36L198.763 284.181L197.941 285.824L202.869 285.003L203.691 284.181L201.227 283.36ZM217.653 283.36L211.904 285.824L211.083 287.467L218.475 285.003C219.022 283.36 218.748 282.812 217.653 283.36ZM139.627 284.181L138.805 285.824L142.912 286.645H144.555L139.627 284.181ZM173.301 284.181L165.088 286.645L162.624 285.824L160.16 286.645H158.517L157.696 288.288L166.731 287.467H168.373C171.659 285.276 176.313 284.455 182.336 285.003L173.301 284.181ZM115.808 285.824V286.645H116.629L115.808 285.824ZM147.019 285.824C146.471 287.467 147.019 288.014 148.661 287.467C149.209 285.824 148.661 285.276 147.019 285.824ZM151.125 286.645V287.467H151.947L151.125 286.645ZM152.768 287.467V288.288H155.232L152.768 287.467ZM205.333 287.467L202.048 289.109C200.405 288.562 199.858 289.109 200.405 290.752L206.155 289.109C206.702 287.467 206.428 286.919 205.333 287.467ZM189.728 288.288V289.109H191.371L189.728 288.288ZM109.237 289.109L110.059 293.216L116.629 294.859V294.037L109.237 289.109ZM183.157 289.109L181.515 289.931V290.752L183.979 289.931L183.157 289.109ZM143.733 289.931V290.752H144.555L143.733 289.931ZM108.416 290.752C107.321 292.395 107.595 292.942 109.237 292.395L108.416 290.752ZM160.16 290.752L159.339 291.573H149.483L148.661 293.216L160.981 292.395C161.529 290.752 161.255 290.204 160.16 290.752ZM178.229 290.752L176.587 292.395H178.229V290.752ZM172.48 291.573L161.803 293.216L162.624 294.859L170.016 294.037L174.123 292.395L172.48 291.573ZM193.835 291.573L187.264 293.216L186.443 294.859C190.823 294.859 194.108 294.037 196.299 292.395L193.835 291.573ZM118.272 293.216V294.859L120.736 295.68C121.831 296.228 122.105 295.68 121.557 294.037L118.272 293.216ZM182.336 294.037L179.872 294.859V295.68C182.61 296.228 184.252 295.954 184.8 294.859L182.336 294.037ZM124.021 294.859V295.68L130.592 298.144H133.056L132.235 296.501L124.021 294.859ZM171.659 295.68L169.195 296.501V297.323H173.301L171.659 295.68ZM135.52 296.501C135.52 298.144 136.615 298.965 138.805 298.965C140.448 299.513 140.996 299.239 140.448 298.144H139.627C139.079 296.501 137.71 295.954 135.52 296.501ZM142.091 297.323C140.996 298.965 141.269 299.513 142.912 298.965L142.091 297.323ZM146.197 298.144V298.965H147.84L146.197 298.144ZM149.483 298.144L150.304 299.787L158.517 298.965C159.065 300.06 159.612 300.06 160.16 298.965L149.483 298.144Z" fill="#070707"/>
<path opacity="0.996078" d="M70.2241 53.3867L77.6161 55.0294L82.1335 57.9041L80.9015 57.4934L71.0455 55.0294L70.2241 53.3867Z" fill="#070707"/>
<path opacity="0.996078" d="M92.3999 60.7783L102.667 67.7597L101.435 68.1703L91.9893 62.421L92.3999 60.7783Z" fill="#070707"/>
<path opacity="0.996078" d="M153.179 63.2432L154.411 63.6538L151.536 67.3498L146.608 68.9925V68.1712L149.483 66.9392L147.43 66.5285L138.395 68.9925H129.36V68.1712L142.502 66.5285L153.179 63.2432Z" fill="#070707"/>
<path opacity="0.996078" d="M98.1494 69.8135L103.488 72.6881L102.256 73.0988C99.7373 72.4417 98.3684 71.3466 98.1494 69.8135Z" fill="#070707"/>
<path opacity="0.996078" d="M168.784 72.2775C170.208 71.8943 170.618 72.4418 170.016 73.9202L162.213 77.2055C158.545 76.8223 155.807 77.3698 154 78.8482L154.821 77.2055L168.784 72.2775Z" fill="#070707"/>
<path opacity="0.996078" d="M124.432 73.9199L137.163 75.1519L126.075 75.5626L124.432 73.9199Z" fill="#070707"/>
<path opacity="0.996078" d="M144.144 80.4902L150.304 80.9009C146.362 80.7914 143.213 81.4758 140.859 82.9542H131.003V82.1329C136.807 83.009 141.187 82.4614 144.144 80.4902Z" fill="#070707"/>
<path opacity="0.996078" d="M225.456 82.9551L229.973 84.1871L225.456 85.4191L222.992 84.5977L215.6 88.7044L216.421 87.0617L221.349 83.7764L225.456 82.9551Z" fill="#070707"/>
<path opacity="0.996078" d="M220.528 87.0615L221.76 87.4722C212.78 91.9074 205.114 97.6567 198.763 104.72L199.995 105.131L205.744 101.846V102.667C197.531 106.226 190.412 110.88 184.389 116.63L165.499 125.664L166.32 124.022L186.853 111.702L202.459 98.5602L220.528 87.0615Z" fill="#070707"/>
<path opacity="0.996078" d="M192.603 100.202L190.96 102.666L179.461 110.879L181.925 107.594L192.603 100.202Z" fill="#070707"/>
<path opacity="0.996078" d="M151.946 123.2L156.053 123.611L151.946 124.843V123.2Z" fill="#070707"/>
<path opacity="0.996078" d="M106.363 127.307C109.539 127.471 111.866 128.429 113.344 130.181L111.291 130.592C108.224 130.154 106.582 129.059 106.363 127.307Z" fill="#070707"/>
<path opacity="0.996078" d="M109.648 133.877L124.432 137.162L138.806 138.394L126.896 138.805L116.219 137.162L109.648 134.698V133.877Z" fill="#070707"/>
<path opacity="0.996078" d="M34.0856 135.521L37.7816 136.753C36.3032 138.012 33.9761 138.423 30.8003 137.985L22.1763 144.966L16.427 155.643L14.7843 174.534L16.427 178.641H15.6056L12.3203 167.963V162.214L13.963 153.179L16.427 148.251L25.051 138.806L29.1576 136.342L34.0856 135.521Z" fill="#070707"/>
<path opacity="0.996078" d="M41.4773 135.52C43.558 135.136 44.79 135.547 45.1733 136.752L43.9413 136.341C41.751 136.779 40.9297 136.505 41.4773 135.52Z" fill="#070707"/>
<path opacity="0.996078" d="M68.5811 139.627L72.2771 144.144L68.9917 141.68L68.5811 139.627Z" fill="#070707"/>
<path opacity="0.996078" d="M213.136 139.627L213.547 141.68L207.797 146.608L206.565 148.662L189.317 158.518L181.925 160.982H176.997V160.16L180.693 158.928L176.997 158.518L173.712 159.339V158.518L186.853 155.232L213.136 139.627ZM181.515 157.696C180.967 159.339 181.515 159.887 183.157 159.339C183.705 157.696 183.157 157.149 181.515 157.696Z" fill="#070707"/>
<path opacity="0.996078" d="M74.3306 146.198L78.0266 147.841L80.9012 151.948L83.7759 153.18L82.5439 153.59L78.8479 151.948L75.9732 147.841L74.3306 146.198Z" fill="#070707"/>
<path opacity="0.996078" d="M218.064 156.054L219.296 156.464C214.094 160.297 207.386 162.624 199.173 163.446V162.624L204.922 161.803L218.064 156.054Z" fill="#070707"/>
<path opacity="0.996078" d="M84.1865 160.161C89.9359 159.339 94.4532 159.75 97.7385 161.393L85.8292 161.803L84.1865 160.161Z" fill="#070707"/>
<path opacity="0.996078" d="M136.752 161.803L148.251 162.624L149.893 161.803L154 163.445L157.285 162.624H160.571L166.32 161.803L164.677 164.267L159.749 165.088L158.928 164.267H147.429C144.911 162.679 141.351 162.131 136.752 162.624V161.803ZM163.445 162.624V163.445H165.088L163.445 162.624Z" fill="#070707"/>
<path opacity="0.996078" d="M16.8369 179.872C20.177 187.209 24.8312 193.232 30.7996 197.941L37.7809 202.048L35.3169 198.352L38.6023 200.816L39.8343 202.869L55.4396 206.976H70.2236L80.9009 204.512L105.541 195.477H120.325L143.733 199.995L141.68 201.227L134.288 198.763L115.397 197.941L114.576 197.12L113.754 197.941L101.434 198.763L71.8663 210.261L55.4396 211.083L43.9409 208.619L36.5489 205.333L28.7463 199.173L18.0689 186.032C16.4263 184.554 16.0156 182.5 16.8369 179.872Z" fill="#070707"/>
<path opacity="0.996078" d="M109.648 184.8H117.861L119.093 186.032C110.551 185.429 103.57 186.388 98.149 188.906L97.3276 187.264L101.434 185.621H108.826L109.648 184.8Z" fill="#070707"/>
<path opacity="0.996078" d="M102.256 190.55H115.397L116.629 191.782C113.18 193.26 108.662 193.671 103.077 193.014L98.9707 192.192L89.936 194.656V193.835L102.256 190.55ZM104.309 191.371V192.192H105.131L104.309 191.371Z" fill="#070707"/>
<path opacity="0.996078" d="M77.6158 197.12L80.4905 197.531C75.3434 201.145 68.3621 202.924 59.5465 202.869L57.0825 202.048L49.2798 200.816L52.1545 200.405L52.9758 201.227H61.1891L77.6158 197.12Z" fill="#070707"/>
<path opacity="0.996078" d="M116.219 201.227L119.915 202.459L116.629 203.28L120.736 203.691L121.147 202.048H129.36C132.59 203.636 136.56 204.183 141.269 203.691C140.612 205.333 141.297 205.881 143.323 205.333L144.144 206.976L140.859 206.155L137.573 206.976L121.968 204.512C119.121 206.045 115.288 206.593 110.469 206.155L112.112 203.691L114.165 203.28L111.701 202.459L116.219 201.227Z" fill="#070707"/>
</svg>
