<svg width="459" height="466" viewBox="0 0 459 466" fill="none" xmlns="http://www.w3.org/2000/svg">
<path opacity="0.996078" d="M428.794 0L433.294 2.5V6.5L324.294 119.5L310.294 134.5L309.294 138.5L310.294 142.5L312.794 145L320.294 150.5L331.294 165.5L333.294 171L335.794 172L353.794 164L365.794 161L450.794 131H454.794C457.794 131.667 458.961 134.167 458.294 138.5L455.794 142L370.794 172L357.794 178L345.794 181L342.294 183.5C341.494 187.367 339.661 190.2 336.794 192L334.294 193.5C335.161 199.033 334.494 203.033 332.294 205.5V229.5L331.294 230.5L330.294 252.5C327.027 263.567 321.694 272.567 314.294 279.5L316.294 283C318.094 282.267 318.761 282.767 318.294 284.5L346.794 316C348.327 315.533 348.827 316.033 348.294 317.5L405.294 380.5V386.5L399.794 389L384.294 374.5L308.794 295L305.794 293L301.794 290L281.294 306.5L278.294 318.5L335.294 422.5L336.294 428.5C335.827 430.7 333.994 431.533 330.794 431L328.294 430L313.294 400.5L269.794 324L248.794 332L225.794 334L224.794 333H209.294L193.294 361.5C177.427 397.3 160.261 431.8 141.794 465L138.794 466L135.294 463.5V458.5L178.294 368.5L196.294 323.5L190.294 313C182.961 311.133 177.127 307.467 172.794 302H168.794L86.7939 374L47.7939 411C46.8605 412.733 44.8605 413.4 41.7939 413L39.2939 412L38.2939 407.5L50.7939 394L112.794 335H114.294L115.794 332L158.294 292.5L154.794 288L147.294 281.5L135.294 261.5L133.294 254.5L131.294 236.5C132.827 235.7 132.661 234.867 130.794 234L112.794 231H103.794L102.794 230L69.7939 227L68.7939 226L9.79388 221L3.79388 220L0.293878 216.5C-0.506122 212.367 0.327211 209.867 2.79388 209L50.7939 212L60.7939 214H72.7939L73.7939 215L96.7939 216L97.7939 217L129.794 218L131.294 216.5V193.5C128.627 189.167 127.961 182.833 129.294 174.5L132.294 166.5L149.294 144.5L143.294 138.5V136.5L144.294 133.5L133.294 123.5L130.294 117.5C130.961 112.5 130.627 109 129.294 107L12.7939 34L1.29388 24.5C0.627211 21.5 1.12721 19.6667 2.79388 19L5.79388 18L122.794 92L136.294 98L139.294 90.5V86.5L144.294 70.5L151.294 55.5C156.427 46.9667 162.927 39.8 170.794 34C178.794 28 188.127 23.3333 198.794 20L213.794 17L234.794 16C253.594 19 268.761 25.3333 280.294 35C279.561 36.8 280.061 37.4667 281.794 37L297.294 55.5C301.227 60.9 303.894 67.5667 305.294 75.5L312.294 86.5L315.294 96.5V103.5L308.294 111.5V118.5C309.161 120.3 309.994 120.467 310.794 119L357.294 73.5L358.794 71L361.294 69.5L428.794 0ZM431.294 2L430.294 4H431.294V2ZM426.294 7V8H427.294L426.294 7ZM420.294 13V14H421.294L420.294 13ZM416.294 17L415.294 19L417.294 18L416.294 17ZM414.294 19L413.294 21H414.294V19ZM7.29388 21V22H8.29388L7.29388 21ZM243.294 24L244.294 26L246.294 25L243.294 24ZM217.294 25L195.294 31C186.627 33.6667 179.627 38 174.294 44L159.294 61L149.294 85L150.294 104L152.294 100L153.294 85L155.294 79L169.294 56L185.294 41C187.961 41.6667 188.961 41 188.294 39L191.294 40V39L201.294 34L202.294 35C190.294 44.3333 180.294 55.6667 172.294 69L173.294 72L177.294 66L184.294 60L186.294 59L172.294 86L173.294 87L175.294 86C178.627 76 183.627 67.6667 190.294 61L196.294 56L198.294 55L184.294 83L181.294 92L182.294 93L191.294 81L193.294 78L196.294 76L192.294 84L189.294 98L190.294 101L195.294 90L199.294 87L197.294 106C195.961 106.667 196.294 107.333 198.294 108L204.294 89L207.294 87L206.294 109L210.294 108L209.294 105L211.294 93L215.294 87L216.294 110L222.294 90L224.294 100C225.627 104 225.294 106.667 223.294 108H225.294L226.294 107L229.294 94C228.627 88.6667 229.294 86.3333 231.294 87C233.961 91.6667 235.294 98.3333 235.294 107C236.627 105 236.961 102 236.294 98L239.294 96L238.294 87L234.294 79C233.627 77 234.294 76.3333 236.294 77L240.294 83L244.294 95V101H246.294L245.294 98L246.294 95C246.294 84.3333 243.961 76.3333 239.294 71C238.627 69 239.294 68.3333 241.294 69C247.961 73.6667 252.627 80.6667 255.294 90L257.294 87L255.294 78L250.294 70L251.294 68C256.627 72 259.961 78.3333 261.294 87L263.294 88C263.294 76 260.627 67.3333 255.294 62L256.294 60L262.294 64C263.627 63.3333 263.961 64 263.294 66H266.294L268.294 70L270.294 71L268.294 66L260.294 55L254.294 50L241.294 45V44H245.294L255.294 49V47C260.627 48.3333 264.961 50.6667 268.294 54H269.294L250.294 40L239.294 36H220.294L211.294 39H207.294L205.294 41C203.294 41.6667 202.627 41.3333 203.294 40L208.294 36C209.627 36.6667 209.961 36.3333 209.294 35L215.294 31L220.294 30H239.294L243.294 31L269.294 44C282.627 54 291.627 68.6667 296.294 88L299.294 86C295.961 70.6667 289.627 58.3333 280.294 49C273.627 41 265.294 34.6667 255.294 30L233.294 25H217.294ZM15.2939 27L16.2939 29C16.9605 27 16.6272 26.3333 15.2939 27ZM400.294 31V33L402.294 32L400.294 31ZM21.2939 32V33H22.2939L21.2939 32ZM22.2939 33C21.6272 35 22.2939 35.6667 24.2939 35C24.9605 33 24.2939 32.3333 22.2939 33ZM221.294 33L220.294 35H221.294V33ZM176.294 35L175.294 37H176.294V35ZM399.294 35V36H400.294L399.294 35ZM27.2939 36V38L36.2939 43H37.2939L27.2939 36ZM394.294 40L393.294 42H394.294V40ZM38.2939 43L42.2939 47V45L38.2939 43ZM391.294 43L390.294 45H391.294V43ZM390.294 45L388.294 48L390.294 47V45ZM44.2939 47V49L49.2939 51H50.2939L44.2939 47ZM289.294 48V49H290.294L289.294 48ZM51.2939 51V52H53.2939L51.2939 51ZM57.2939 53L55.2939 55H57.2939V53ZM60.2939 60V61H61.2939L60.2939 60ZM65.2939 61V63H68.2939L102.294 85H103.294L76.2939 66L65.2939 61ZM274.294 62L277.294 66H278.294L274.294 62ZM283.294 63L285.294 66V65L283.294 63ZM262.294 66L261.294 68H262.294V66ZM366.294 68L365.294 70H366.294V68ZM263.294 70L262.294 72H263.294V70ZM366.294 71L365.294 73H366.294V71ZM361.294 72V73H362.294L361.294 72ZM171.294 73L169.294 76L171.294 75V73ZM187.294 73L186.294 75H187.294V73ZM169.294 76L167.294 79L169.294 78V76ZM354.294 82V83H355.294L354.294 82ZM104.294 85L108.294 89V87L104.294 85ZM349.294 86V88L351.294 87L349.294 86ZM348.294 88L342.294 95L343.294 96L349.294 89L348.294 88ZM112.294 89L111.294 91H112.294V89ZM263.294 89L264.294 91C264.961 89 264.627 88.3333 263.294 89ZM255.294 90V93L257.294 92C257.961 90 257.294 89.3333 255.294 90ZM114.294 91V92H115.294L114.294 91ZM171.294 91L170.294 94H171.294V91ZM304.294 91V101L306.294 102C306.961 96.6667 306.294 93 304.294 91ZM173.294 95V96H174.294L173.294 95ZM267.294 95V96H268.294L267.294 95ZM194.294 96L192.294 100L194.294 101V96ZM186.294 97L185.294 99H186.294V97ZM288.294 97V98H289.294L288.294 97ZM340.294 97L338.294 100L340.294 99V97ZM293.294 99L270.294 110L244.294 117L225.294 118L224.294 119H206.294L205.294 120H191.294L182.294 118H174.294L168.294 115L150.294 112L148.294 113L151.294 117L150.294 119L155.294 121L168.294 124H174.294L181.294 127L179.294 128L161.294 129L174.294 132L177.294 131L180.294 132V133C172.294 134.333 166.294 133.667 162.294 131L151.294 133L170.294 137H177.294L183.294 139H191.294L200.294 141L230.294 140L260.294 135L286.294 127L303.294 116L306.294 112L290.294 120L268.294 128H264.294L255.294 131C251.961 131.667 250.627 131 251.294 129L260.294 126L261.294 124L255.294 126L233.294 127L232.294 128L230.294 127L223.294 129H196.294L228.294 125L234.294 123L255.294 120L274.294 114L295.294 103L296.294 100L293.294 99ZM302.294 100V101H303.294L302.294 100ZM336.294 101L335.294 103L337.294 102L336.294 101ZM196.294 102L195.294 105H196.294V102ZM165.294 103L164.294 105H165.294V103ZM203.294 103V104H204.294L203.294 103ZM275.294 104V105H276.294L275.294 104ZM136.294 105L135.294 107H136.294V105ZM153.294 108V109H154.294L153.294 108ZM265.294 108V109H266.294L265.294 108ZM139.294 109V118H141.294V110L139.294 109ZM234.294 109L233.294 111H234.294V109ZM215.294 110L213.294 112H215.294V110ZM165.294 111L164.294 113H165.294V111ZM324.294 112V113H325.294L324.294 112ZM296.294 114V115H297.294L296.294 114ZM218.294 115L217.294 117H218.294V115ZM273.294 115V116H274.294L273.294 115ZM133.294 117L132.294 119H133.294V117ZM320.294 118V119H321.294L320.294 118ZM276.294 119V120H278.294L276.294 119ZM162.294 124V125H163.294L162.294 124ZM143.294 125L142.294 127H143.294V125ZM263.294 125V126H264.294L263.294 125ZM266.294 126V127H267.294L266.294 126ZM159.294 127V128H160.294L159.294 127ZM144.294 129L143.294 131H144.294V129ZM158.294 129V130H159.294L158.294 129ZM292.294 131L287.294 141L277.294 154C270.627 160.667 262.627 166 253.294 170L238.294 173H236.294L225.294 175L210.294 173L199.294 169L194.294 170C200.294 174.667 208.294 178 218.294 180H241.294L251.294 177C261.961 172.333 271.627 166.333 280.294 159C286.294 152.333 290.627 144 293.294 134L292.294 131ZM150.294 133L149.294 135H150.294V133ZM266.294 134V135H267.294L266.294 134ZM263.294 135L262.294 137H263.294V135ZM301.294 135V136H302.294L301.294 135ZM254.294 137V138H255.294L254.294 137ZM278.294 137L277.294 139H278.294V137ZM158.294 139L157.294 141H158.294V139ZM240.294 140V141H241.294L240.294 140ZM440.294 140L427.294 145V146L442.294 141L440.294 140ZM163.294 141L162.294 143H163.294V141ZM163.294 144L164.294 151L169.294 160L180.294 168H183.294L179.294 164C172.627 159.333 167.961 153.333 165.294 146C165.961 144 165.294 143.333 163.294 144ZM153.294 145L152.294 147H153.294V145ZM170.294 145V146H171.294L170.294 145ZM299.294 145L297.294 149C299.294 152.333 302.627 154.667 307.294 156L312.294 164C313.627 170.667 312.627 175.667 309.294 179L295.294 191L275.294 199L270.294 198L264.294 188L265.294 186L267.294 187L269.294 191L274.294 194L275.294 195V192L269.294 184L243.294 190H231.294L229.294 188L227.294 191L208.294 189L209.294 192L207.294 191L206.294 193H204.294L200.294 187L199.294 189L196.294 188L193.294 192L190.294 193L202.294 198H209.294H211.294L226.294 202L219.294 203H207.294L206.294 202L190.294 201C188.294 199 185.627 198.333 182.294 199L161.294 190C155.294 186 151.294 180.333 149.294 173L150.294 165L155.294 159V157L157.294 154L150.294 158L141.294 169L138.294 176C137.627 182.667 138.627 187.667 141.294 191C146.627 199 154.294 205 164.294 209L186.294 217L212.294 222H249.294L265.294 218H270.294L285.294 212H288.294L309.294 199C315.961 195 320.294 188.667 322.294 180C322.961 171.333 321.627 165.333 318.294 162L299.294 145ZM423.294 146L380.294 160L363.294 167L353.294 169L355.294 172L426.294 147L423.294 146ZM411.294 147V148H412.294L411.294 147ZM185.294 150V151H186.294L185.294 150ZM219.294 151L218.294 153H219.294V151ZM183.294 152V153H184.294L183.294 152ZM273.294 154V155H274.294L273.294 154ZM397.294 158V159H398.294L397.294 158ZM294.294 160L293.294 162H294.294V160ZM191.294 161L190.294 163H191.294V161ZM219.294 161V162H220.294L219.294 161ZM235.294 161V162H236.294L235.294 161ZM261.294 161V162H262.294L261.294 161ZM164.294 162L163.294 164H164.294V162ZM291.294 162V163H292.294L291.294 162ZM188.294 163V165L190.294 164L188.294 163ZM307.294 164C305.961 166 306.294 166.667 308.294 166L307.294 164ZM292.294 168V169H293.294L292.294 168ZM298.294 168L296.294 170L298.294 173L301.294 175C301.961 171.667 301.627 170.333 300.294 171L298.294 168ZM227.294 169V170H228.294L227.294 169ZM232.294 169V170H233.294L232.294 169ZM242.294 169V170H243.294L242.294 169ZM223.294 170V172C222.627 173.333 223.294 173.667 225.294 173L224.294 172C224.961 170 224.627 169.333 223.294 170ZM306.294 172V174L308.294 173L306.294 172ZM189.294 173L188.294 175H189.294V173ZM343.294 174L342.294 176H343.294V174ZM178.294 175V176H179.294L178.294 175ZM284.294 176V177H285.294L284.294 176ZM291.294 176L292.294 179L291.294 180L294.294 182H297.294L295.294 179L291.294 176ZM194.294 177V178H195.294L194.294 177ZM197.294 178V179H198.294L197.294 178ZM207.294 178L208.294 180C208.961 178 208.627 177.333 207.294 178ZM188.294 179V181L190.294 180L188.294 179ZM276.294 179L277.294 181C277.961 179 277.627 178.333 276.294 179ZM268.294 180L267.294 182H268.294V180ZM274.294 181V183L282.294 190L280.294 185L274.294 181ZM336.294 182V183H337.294L336.294 182ZM190.294 185C187.627 186.333 186.627 188.667 187.294 192C190.627 193.333 191.627 192 190.294 188C191.627 186.667 191.627 185.667 190.294 185ZM205.294 185V186H207.294L205.294 185ZM334.294 185V186H335.294L334.294 185ZM202.294 187L203.294 189C203.961 187 203.627 186.333 202.294 187ZM231.294 187V188H233.294L231.294 187ZM236.294 187V188H237.294L236.294 187ZM331.294 187V188H332.294L331.294 187ZM220.294 188V189H221.294L220.294 188ZM333.294 188V190L335.294 189L333.294 188ZM181.294 189V190H182.294L181.294 189ZM269.294 192C267.961 194 268.294 194.667 270.294 194L269.294 192ZM176.294 193L175.294 195H176.294V193ZM135.294 197L134.294 199H135.294V197ZM324.294 199L321.294 203V236L323.294 237L324.294 231V199ZM212.294 200V201H213.294L212.294 200ZM315.294 207L313.294 210V242H315.294V214V212V207ZM317.294 210V211H318.294L317.294 210ZM17.2939 212V213H18.2939L17.2939 212ZM304.294 212V213H305.294L304.294 212ZM328.294 212L327.294 214H328.294V212ZM17.2939 215C16.6272 217 17.6272 217.667 20.2939 217C20.9605 215 19.9605 214.333 17.2939 215ZM22.2939 215L21.2939 217L29.2939 218H35.2939L34.2939 216H23.2939L22.2939 215ZM145.294 215L141.294 216C139.961 218.667 140.961 219.667 144.294 219L146.294 223L148.294 232L143.294 241C147.294 241.667 149.961 240.667 151.294 238L150.294 224L146.294 217C146.961 215 146.627 214.333 145.294 215ZM304.294 215L305.294 246L307.294 247V233L306.294 232V216L304.294 215ZM134.294 216C132.961 218 133.294 218.667 135.294 218L134.294 216ZM175.294 216L174.294 218H175.294V216ZM39.2939 217V218L43.2939 219H52.2939L60.2939 221H73.2939L88.2939 224H105.294L106.294 225L132.294 226L133.294 227H140.294V226L136.294 223L133.294 224L131.294 223L110.294 222L109.294 221L86.2939 220L85.2939 219L83.2939 220L82.2939 219H68.2939H66.2939L53.2939 217H39.2939ZM137.294 219V220H138.294L137.294 219ZM162.294 219L161.294 221H162.294V219ZM287.294 219V220H289.294L287.294 219ZM283.294 220L270.294 225L271.294 226L286.294 221L283.294 220ZM164.294 221L163.294 223H164.294V221ZM66.2939 222V223H67.2939L66.2939 222ZM165.294 224L163.294 228L164.294 230L163.294 241V243L164.294 251H165.294V224ZM190.294 224L189.294 226H190.294V224ZM269.294 224L268.294 226H269.294V224ZM300.294 224V225H301.294L300.294 224ZM180.294 225L179.294 238L182.294 250L180.294 254L181.294 260L183.294 252L189.294 250C195.294 250 200.294 251 204.294 253C208.961 256.333 212.627 261.333 215.294 268C216.627 272 216.294 274.667 214.294 276L216.294 277H225.294L226.294 278L252.294 277L274.294 271V270L248.294 273L247.294 274H235.294L234.294 273L232.294 274L219.294 272V271C220.627 271.667 220.961 271 220.294 269L223.294 270L236.294 268H246.294L255.294 265L256.294 263L250.294 264H248.294L236.294 261L255.294 255L256.294 256L255.294 250L246.294 252L239.294 251L237.294 248L253.294 244C254.627 243.333 254.961 241.667 254.294 239L224.294 238L227.294 235L256.294 233L261.294 231V230H253.294L252.294 231H209.294L208.294 230H199.294C199.961 234.667 199.294 238.667 197.294 242C197.961 244 197.294 244.667 195.294 244L194.294 242C195.627 236 195.294 232 193.294 230L189.294 227C190.627 236.333 189.627 243.667 186.294 249L183.294 245L181.294 227L180.294 225ZM281.294 226V227H282.294L281.294 226ZM312.294 226L311.294 230H312.294V226ZM172.294 227L170.294 233C168.961 241 169.627 247.333 172.294 252C173.627 251.333 173.627 250.667 172.294 250L173.294 248L172.294 227ZM157.294 229L156.294 231H157.294V229ZM291.294 229V230H293.294L291.294 229ZM289.294 230V231H290.294L289.294 230ZM293.294 231L292.294 233H293.294V231ZM162.294 232L161.294 235H162.294V232ZM276.294 233L264.294 238L262.294 241L261.294 244C263.294 246.667 263.627 251 262.294 257L264.294 259L265.294 257L264.294 255V243C266.961 238.333 271.627 235.667 278.294 235C278.961 233 278.294 232.333 276.294 233ZM330.294 233L329.294 236H330.294V233ZM197.294 235L196.294 237H197.294V235ZM276.294 238V239H277.294L276.294 238ZM186.294 240L185.294 242H186.294V240ZM326.294 240V241H327.294L326.294 240ZM134.294 241L133.294 243H134.294V241ZM283.294 241L278.294 243L274.294 248C272.961 253.333 273.961 256.667 277.294 258L279.294 257L280.294 258C278.294 256.667 277.627 254.333 278.294 251L284.294 246L288.294 248V244L283.294 241ZM324.294 242L319.294 249L305.294 261L301.294 265L303.294 266H305.294L313.294 260C317.961 256 321.627 251 324.294 245V242ZM179.294 246L178.294 249H179.294V246ZM142.294 247L144.294 252L155.294 261C161.294 264.333 168.294 266.667 176.294 268L177.294 264L165.294 262L151.294 254L146.294 248L142.294 247ZM272.294 249L271.294 251H272.294V249ZM172.294 253C170.961 255 171.294 255.667 173.294 255L172.294 253ZM285.294 254L292.294 269L300.294 279L345.294 325L366.294 349L370.294 352L372.294 355L375.294 356L394.294 378H395.294L318.294 292L316.294 289L310.294 283C301.627 275 294.294 266 288.294 256C288.961 254 287.961 253.333 285.294 254ZM191.294 258L190.294 259C187.627 258.333 186.627 259 187.294 261L189.294 260L200.294 263L204.294 269V277L203.294 278L204.294 279L207.294 274L205.294 265L197.294 258H191.294ZM185.294 260L184.294 262C185.627 264 186.627 264 187.294 262L185.294 260ZM250.294 261V262H251.294L250.294 261ZM148.294 262L147.294 265L152.294 274L163.294 284H165.294C165.961 282 165.294 281.333 163.294 282L148.294 262ZM146.294 268L145.294 270H146.294V268ZM187.294 268L184.294 272L187.294 271L193.294 272L192.294 276L194.294 280L196.294 279L197.294 277L196.294 270C194.961 267.333 191.961 266.667 187.294 268ZM175.294 269L174.294 271H175.294V269ZM305.294 269V270H306.294L305.294 269ZM236.294 270V271H237.294L236.294 270ZM310.294 270V271H311.294L310.294 270ZM255.294 277L254.294 279H255.294V277ZM184.294 279L166.294 294L159.294 298L116.294 339L114.294 342L90.2939 363L88.2939 366L104.294 354L120.294 338C121.627 338.667 121.961 338.333 121.294 337C138.627 323 155.294 308 171.294 292L180.294 286L184.294 281V279ZM276.294 280L274.294 282H276.294V280ZM293.294 281L284.294 290L268.294 300L256.294 305L237.294 308L219.294 307L204.294 304L189.294 298L184.294 294L180.294 295C184.294 299.667 189.627 303 196.294 305L221.294 312H240.294L251.294 310L273.294 301L288.294 291L295.294 284L294.294 283C294.961 281 294.627 280.333 293.294 281ZM242.294 283V284H243.294L242.294 283ZM257.294 283V284H258.294L257.294 283ZM277.294 284V285H278.294L277.294 284ZM213.294 285L211.294 287C209.294 286.333 208.627 287 209.294 289H223.294L224.294 290L242.294 289L246.294 288C246.961 286 246.294 285.333 244.294 286H242.294L240.294 285H229.294L228.294 286L213.294 285ZM260.294 286V287H261.294L260.294 286ZM271.294 288L270.294 290H271.294V288ZM297.294 290L296.294 292H297.294V290ZM255.294 291L254.294 293H255.294V291ZM252.294 292V293H253.294L252.294 292ZM195.294 293L194.294 295H195.294V293ZM210.294 294V295L216.294 296H240.294L245.294 295L210.294 294ZM196.294 297V298H197.294L196.294 297ZM240.294 297V298H241.294L240.294 297ZM275.294 303C273.961 305 274.294 305.667 276.294 305L275.294 303ZM278.294 304L277.294 306H278.294V304ZM147.294 306L146.294 308H147.294V306ZM272.294 314L271.294 316H272.294V314ZM197.294 315V316H198.294L197.294 315ZM200.294 316V317H201.294L200.294 316ZM257.294 317C255.294 319 256.294 319.667 260.294 319L261.294 317L259.294 318L257.294 317ZM199.294 318L198.294 320H199.294V318ZM206.294 318V320L209.294 322L217.294 325H241.294L254.294 320C255.627 320.667 255.961 320 255.294 318L238.294 321H222.294L206.294 318ZM276.294 318V319H277.294L276.294 318ZM199.294 322L198.294 324H199.294V322ZM205.294 322V323H206.294L205.294 322ZM208.294 323V324H209.294L208.294 323ZM253.294 323V324H254.294L253.294 323ZM279.294 327L280.294 329H281.294L279.294 327ZM205.294 330V331H206.294L205.294 330ZM352.294 337L353.294 339C353.961 337 353.627 336.333 352.294 337ZM284.294 338V339H285.294L284.294 338ZM200.294 341L201.294 343C201.961 341 201.627 340.333 200.294 341ZM286.294 341L285.294 343H286.294V341ZM194.294 344L193.294 347H195.294L196.294 345L194.294 344ZM289.294 347V351L291.294 352L289.294 347ZM193.294 348L153.294 431L154.294 432L158.294 426L180.294 381L188.294 360L193.294 351V348ZM292.294 352C290.961 354.667 291.294 356.667 293.294 358L295.294 359L292.294 352ZM369.294 352L368.294 354H369.294V352ZM185.294 357V358H186.294L185.294 357ZM296.294 359V364L301.294 373H302.294L296.294 359ZM86.2939 367L85.2939 369L87.2939 368L86.2939 367ZM303.294 373L302.294 375L314.294 397H316.294L303.294 373ZM77.2939 374V376L79.2939 375L77.2939 374ZM76.2939 376L73.2939 379L74.2939 380L77.2939 378C77.9605 376 77.6272 375.333 76.2939 376ZM396.294 378L395.294 380H396.294V378ZM72.2939 380L71.2939 382H72.2939V380ZM311.294 383C309.961 385 310.294 385.667 312.294 385L311.294 383ZM180.294 384L179.294 386H180.294V384ZM317.294 397L316.294 400H317.294V397ZM318.294 400L317.294 402L322.294 411V412H325.294L318.294 400ZM46.2939 407V408H47.2939L46.2939 407ZM325.294 407C323.961 409 324.294 409.667 326.294 409L325.294 407ZM325.294 413V414H326.294L325.294 413ZM326.294 415V416H327.294L326.294 415ZM328.294 418V421C330.294 420.333 330.294 419.333 328.294 418ZM329.294 421V424H330.294C330.961 421.333 330.627 420.333 329.294 421ZM332.294 427C330.961 429 331.294 429.667 333.294 429L332.294 427ZM151.294 434L149.294 439L150.294 441L153.294 435L151.294 434Z" fill="#141414"/>
<path opacity="0.996078" d="M316.794 166C319.861 168.267 320.694 172.767 319.294 179.5L312.794 191C303.261 199.8 291.261 206.133 276.794 210L252.794 215L227.794 217L226.794 216H213.794L201.794 213L188.794 212L177.794 206L176.794 208L162.794 200H157.794L153.294 196.5L150.794 193L146.294 189.5L141.294 181.5V176.5L144.794 170C146.661 169.6 147.161 171.433 146.294 175.5L155.794 189L171.794 198L200.794 208C205.994 207.533 209.994 208.2 212.794 210H223.794L224.794 211H242.794L266.794 207L283.794 201L302.794 191L311.294 183.5C314.627 179.167 316.461 173.333 316.794 166ZM144.294 181L143.294 183H144.294V181ZM311.294 187V188H312.294L311.294 187ZM151.294 190V191H152.294L151.294 190ZM293.294 200V202L295.294 201L293.294 200ZM173.294 202L172.294 204H173.294V202ZM291.294 202V203H292.294L291.294 202ZM186.294 204V205H187.294L186.294 204ZM191.294 206V207H192.294L191.294 206ZM251.294 212V213H254.294L251.294 212ZM223.294 214V215H224.294L223.294 214Z" fill="#141414"/>
</svg>
