<svg width="711" height="685" viewBox="0 0 711 685" fill="none" xmlns="http://www.w3.org/2000/svg">
<path opacity="0.996078" d="M311.336 92.8221C316.146 90.353 320.26 90.4794 323.679 93.2012L329.911 99.9954L331.697 111.089L326.787 122.584L331.921 133.476C344.11 133.521 355.859 135.205 367.17 138.529L384.83 149.117L395.794 160.108L402.294 171.366L407.075 172.647L411.972 172.129L417.82 176.258L419.82 179.722L419.307 189.834C417.8 193.09 414.381 195.834 409.049 198.066L406.67 206.945L405.291 217.556L402.411 225.569L398.153 244.193L399.653 246.792C401.979 247.219 403.889 249.196 405.385 252.72L407.019 257.55C411.674 257.48 415.695 259.777 419.081 264.442L415.921 278.968L417.323 287.397L420.323 292.593L422.439 294.258L436.764 294.07L442.027 292.186C440.112 283.669 440.221 275.524 442.353 267.75L447.049 263.884L468.503 263.044L521.609 267.025L532.037 269.087L569.25 269.541L596.302 272.398L619.123 271.924L627.502 273.437C629.827 273.865 631.738 275.841 633.234 279.365L632.77 286.561L634.136 286.927L633.038 291.025L629.227 354.425L630.004 389.772L628.491 398.151C628.55 400.119 627.151 401.696 624.295 402.883L616.099 400.687L609.037 402.455C590.323 402.174 571.999 400.437 554.066 397.242L490.3 394.797L457.418 391.842L449.904 389.829L444.038 381.669L442.199 358.483L424.525 358.871L417.097 362.005L414.95 367.286L419.45 375.081L426.182 382.741L434.182 396.597L435.816 401.427L439.495 447.8L437.25 458.912C432.571 461.074 429.441 463.652 427.858 466.644L418.765 471.894C419.781 475.387 421.108 476.353 422.747 474.791L424.247 477.389L423.269 494.696L415.877 505.892L404.253 513.758L402.887 513.392L394.227 518.392L394.03 530.053L387.736 537.151L386.37 536.785L379.442 540.785L375.844 540.553L370.648 543.553L368.635 551.066L369.569 607.684L364.007 612.05L354.762 611.037L347.163 603.877L348.043 592.4L350.922 584.386L348.644 546.441L334.85 540.549L329.85 531.889L331.314 526.425L330.314 524.693L302.726 512.908L296.128 507.48L293.628 503.15C291.327 497.165 291.075 491.729 292.873 486.842C294.905 486.362 294.754 485.102 292.422 483.061L281.994 480.999L273.663 476.571L271.663 473.107L270.128 462.447L271.422 446.688L269.752 433.796L271.314 422.502C267.708 418.656 266.847 415.497 268.729 413.025L270.144 410.476L270.193 407.56L282.612 383.07L287.857 377.155L282.076 374.142L279.161 374.093L271.197 368.299L268.697 363.968L265.282 363.053L255.853 362.723L246.193 365.991L246.448 381.433L244.935 389.812L241.105 393.178L229.945 393.848L186.768 391.063L145.591 391.743L128.466 390.082L91.2535 389.628L70.7321 391.084L65.25 385.588L66.3481 381.49L65.2763 363.634L66.4628 323.689L63.5644 271.669L69.9926 266.803L91.4471 265.963L170.471 268.836L182.497 267.666L226.04 269.085L234.419 270.598C237.538 270.799 240.07 273.186 242.017 277.758L243.089 295.615L244.839 298.646C250.724 296.172 256.304 295.837 261.579 297.641L264.195 300.172C266.889 299.771 267.505 298.838 266.044 297.373L267.655 283.164L275.815 277.298L277.096 272.517L277.743 264.637C281.42 262.206 283.413 259.324 283.72 255.99L279.22 248.196C278.152 240.345 275.262 232.006 270.551 223.179L271.1 221.13C273.014 222.18 273.775 221.164 273.381 218.081L268.1 215.934L263.819 215.519L256.854 211.457L255.354 208.859L256.234 197.382C258.631 193.534 262.772 190.373 268.657 187.9L270.652 176.355L286.437 155.695L297.927 145.597L304.855 141.597L309.685 139.963C312.682 135.154 311.809 129.307 307.065 122.424L303.833 120.826C304.883 118.911 303.838 116.435 300.699 113.397L302.578 103.652L311.336 92.8221ZM311.439 102L306.145 110.83C307.567 114.628 309.478 116.604 311.877 116.759L315.109 118.357L317.707 116.857L315.439 108.928L315.903 101.732C314.326 100.334 312.838 100.423 311.439 102ZM316.743 123.187L315.645 127.285L317.181 137.945L322.377 134.945L322.109 130.481C320.93 125.773 319.142 123.341 316.743 123.187ZM310.485 138.347L311.485 140.079L312.717 138.213L310.485 138.347ZM77.0596 280.043L78.7295 292.935L76.8993 299.766L78.0692 311.792L76.3731 320.854L77.775 329.282L76.3109 334.746C77.8468 345.407 77.8947 356.156 76.4545 366.995L76.9904 375.923L78.4904 378.521L83.8205 377.753L84.7128 355.299L104.935 356.325L105.935 358.057L104.775 376.048L106.275 378.646L130.095 379.904L221.512 380.241C223 380.152 223.122 379.697 221.878 378.875L217.279 376.911L198.057 377.617L196.557 375.019L195.619 359.394L197.717 357.028C206.58 360.379 216.175 360.998 226.502 358.885L223.77 358.153L223.636 355.921L225.868 355.787L228.672 372.643L226.208 376.375L229.94 378.839L233.038 378.205L234.662 353.019L230.643 286.057C230.131 282.504 228.887 281.682 226.911 283.593C224.56 294.188 224.153 304.816 225.688 315.476L219.492 316.744L193.94 316.485L192.796 282.505L189.198 282.273C190.823 294.421 191.204 305.748 190.342 316.253L162.557 316.129L162.449 291.943L164.145 282.88L159.413 278.684L158.181 280.55L154.583 280.318C154.429 282.717 153.729 283.506 152.485 282.684L153.619 286.648L155.717 284.282L157.949 284.148L159.217 290.344L157.521 299.407L158.093 316.397L150.397 315.067L134.772 316.005C132.326 305.1 132.611 294.928 135.629 285.488L132.995 278.926L127.299 281.06L130.433 288.488L130.674 314.907C123.901 316.508 117.493 316.743 111.452 315.612L111.21 289.194L113.906 281.864L115.54 286.694L117.138 283.462C120.692 282.95 121.058 281.584 118.237 279.364L115.138 279.998C113.74 281.575 112.829 281.331 112.406 279.266L90.8179 277.873L89.0859 278.873L90.5859 281.471C93.1393 279.227 94.5053 279.593 94.684 282.569C96.66 280.659 98.4367 280.403 100.014 281.802L100.648 284.9L104.478 281.534L106.844 283.632L107.978 287.596L106.488 315.014L84.5333 314.988L84.7917 289.435C84.0357 286.793 83.247 286.093 82.4256 287.337L81.1936 289.203L80.9256 284.739C81.991 282.585 81.7797 281.552 80.2917 281.641C79.5357 278.999 78.4583 278.466 77.0596 280.043ZM300.262 154.641L294.102 163.971L282.611 174.069L276.951 184.266L277.219 188.73L280.317 188.096L281.549 186.23C282.948 184.652 282.692 182.876 280.781 180.9L285.611 179.266L288.942 175.034C290.34 173.456 291.129 174.156 291.308 177.132L294.906 177.364L291.076 180.73L289.013 191.158L280.451 190.328L278.853 193.56L321.762 191.88L327.458 189.746L335.52 189.71C339.562 187.377 343.693 186.532 347.913 187.175L350.511 185.675L331.288 186.38L330.788 185.514L340.949 183.112L344.413 181.112L325.19 181.818L317.762 184.952L313.298 185.22C311.322 187.131 310.123 187.053 309.7 184.988L311.798 182.622L315.262 180.622L319.36 181.72L338.815 177.416L344.877 173.916L344.377 173.05L331.485 174.72L328.252 173.122L339.779 171.086L341.511 170.086L337.913 169.854L340.011 167.488L331.583 168.89C328.607 169.069 328.229 167.747 330.449 164.926L342.975 164.622C345.04 164.199 345.284 163.289 343.707 161.89L333.913 162.926L323.985 161.73L323.851 159.498C329.648 161.539 336.222 161.593 343.573 159.658L344.439 159.158C340.13 157.027 336.076 156.673 332.279 158.096L332.145 155.864L325.913 149.069L335.207 147.168L360.161 152.39L360.661 153.256L346.135 150.096L343.171 152.962L346.269 152.328L349.135 155.292L351.233 152.926L358.063 154.756C358.153 156.244 358.897 156.199 360.295 154.622L366.76 157.818C366.849 159.306 367.593 159.262 368.992 157.684L374.09 160.514L377.956 165.21L378.956 166.943L367.527 163.148L374.724 163.612L374.224 162.746C369.914 160.616 365.239 159.851 360.197 160.452L353.233 156.39L351.635 159.622L351.903 164.086L363.063 163.416C368.194 164.303 373.414 166.678 378.724 170.541C381.7 170.362 382.366 171.517 380.724 174.005L384.188 172.005L387.92 174.469L391.884 173.335L394.616 174.067L390.384 170.737L381.652 159.612L368.59 150.988C355.417 145.506 341.68 143.046 327.377 143.605L322.315 148.837L309.422 150.507L307.69 151.507C305.536 150.442 303.06 151.487 300.262 154.641ZM90.7558 291.766L90.2917 298.962L91.6577 299.328L91.7558 293.498L90.7558 291.766ZM120.969 280.096L121.103 282.328L121.969 281.828L120.969 280.096ZM266.729 200.56L266.363 201.926C263.72 202.682 263.643 203.881 266.131 205.524L269.229 204.89C270.05 203.646 270.672 204.057 271.095 206.122L294.915 207.38L326.896 202.773L339.422 202.469L368.171 196.263L377.099 195.727L381.429 193.227L394.322 191.557L406.58 186.789L405.946 183.691L394.786 184.361L368.269 190.433L354.011 191.737L348.315 193.871L333.556 194.309L304.808 200.514L266.729 200.56ZM101.452 298.292L101.586 300.524L102.452 300.024L101.452 298.292ZM101.586 300.524L101.72 302.756L102.586 302.256L101.586 300.524ZM136.727 281.39L138.093 281.756L140.459 283.854L137.995 287.586L141.093 286.952L142.325 285.086L145.191 288.05L147.155 283.452L146.521 280.354L136.727 281.39ZM279.961 219.478L279.229 222.21L281.095 223.443L283.997 234.469L293.399 256.753L295.997 255.253L316.353 258.512L327.513 257.842L333.21 255.708L337.308 256.806L344.87 255.904L355.03 253.502L358.494 251.502L348.7 252.538C346.724 254.449 345.525 254.371 345.102 252.306L352.164 250.538L355.994 247.172L355.86 244.94L353.762 247.306L349.798 248.44L349.298 247.574C347.387 245.598 347.465 244.399 349.53 243.976L351.262 242.976C352.75 242.887 352.705 242.143 351.128 240.744C348.241 242.41 345.554 242.422 343.066 240.78L329.808 243.816L329.308 242.95L347.396 238.28C348.217 237.036 348.839 237.446 349.262 239.512L355.824 236.878C355.402 234.812 354.202 234.735 352.226 236.646C350.161 237.068 349.539 236.658 350.36 235.414L347.262 236.048L347.128 233.816L360.985 225.816L360.485 224.95C356.199 228.194 353.845 228.783 353.422 226.718L364.681 220.218L351.788 221.887L350.556 223.753L341.762 226.521L344.726 223.655C342.571 222.59 340.217 223.179 337.664 225.423L337.164 224.557L309.513 226.665L307.647 225.433L314.21 222.799L323.638 223.129L337.396 220.959L347.922 217.191L358.583 215.655L366.011 212.521L382.367 208.852L387.331 209.45C390.129 206.295 392.194 205.872 393.527 208.182L389.465 215.146L387.599 213.914L385.367 214.048L384.135 215.914C380.004 216.759 378.894 218.17 380.805 220.146L388.233 217.012L388.501 221.476L386.269 221.61C382.138 222.455 381.65 224.277 384.805 227.074L380.975 230.44L378.743 230.574C376.1 231.33 375.567 232.407 377.145 233.806L377.645 234.672L381.475 231.306L381.609 233.538L383.475 234.77L379.645 238.136L377.413 238.27L374.449 241.136L376.681 241.002L385.341 236.002L385.475 238.234C381.344 239.079 380.234 240.49 382.145 242.466L384.011 243.698C387.231 242.609 389.085 241.154 389.573 239.332C387.996 237.934 388.24 237.023 390.305 236.6L391.733 223.074L394.795 214.378L397.09 200.352L393.126 201.485L393.76 204.584C391.938 204.096 389.751 204.974 387.197 207.218L378.269 207.753L374.805 209.753L372.073 209.021L351.252 212.959L339.86 217.227L318.04 219.433C317.284 216.79 316.495 216.091 315.674 217.335L316.674 219.067L296.451 218.041L279.961 219.478ZM178.404 281.577L179.038 284.675L179.904 284.175L178.404 281.577ZM177.306 285.675C177.728 287.74 178.639 287.984 180.038 286.407C179.615 284.341 178.704 284.097 177.306 285.675ZM196.894 283.603L197.528 286.701L198.394 286.201L196.894 283.603ZM311.21 217.603L311.71 218.469L312.576 217.969L311.21 217.603ZM313.442 217.469L313.942 218.335L314.808 217.835L313.442 217.469ZM202.394 293.129L201.93 300.325L203.796 301.557L203.894 295.727L202.394 293.129ZM210.322 290.861L209.626 301.655L210.992 302.021L211.688 291.227L210.322 290.861ZM207.858 294.593L207.992 296.825L208.858 296.325L207.858 294.593ZM215.653 290.093L215.42 293.691L216.653 291.825L215.653 290.093ZM202.198 304.789L202.332 307.021L203.198 306.521L202.198 304.789ZM290.702 264.084L290.104 269.048L288.872 270.914L287.408 276.378L288.31 283.94L291.676 287.77C293.742 287.347 293.986 286.437 292.408 285.038L294.64 284.904C294.73 286.392 295.474 286.347 296.872 284.77L299.238 286.868L321.327 289.126L336.817 285.957L344.879 285.921L359.004 282.385L363.334 279.885L362.834 279.019C360.28 281.263 358.792 281.352 358.37 279.287C360.346 277.376 362.411 276.953 364.566 278.019C366.631 277.596 366.875 276.685 365.298 275.287L361.334 276.421C360.911 274.355 360.289 273.945 359.468 275.189L358.968 274.323C360.545 275.721 362.899 275.132 366.03 272.555L365.03 270.823L367.762 271.555L375.69 269.287C381.708 265.043 387.237 262.62 392.279 262.019L393.645 262.385L396.145 266.715L398.743 265.215L395.243 259.153L391.645 258.921L389.913 259.921L388.547 259.555L381.619 263.555L373.19 264.957L366.262 268.957C354.935 269.338 343.242 271.085 331.183 274.198L315.425 272.904L304.765 274.44L304.265 273.574L292.104 272.512L293.069 266.182L308.827 267.476L331.513 264.77L349.87 264.564L363.994 261.028L369.19 258.028L373.654 257.76L376.252 256.26L372.154 255.162C362.006 260.252 352.757 262.898 344.406 263.1L298.765 264.048L294.667 262.95L290.702 264.084ZM350.226 233.182L351.226 234.914L353.824 233.414L350.226 233.182ZM243.143 307.708L244.545 316.136L247.143 314.636L263.901 317.662C265.967 317.24 266.377 316.618 265.133 315.796L254.705 313.734L248.741 311.404L265.865 313.064L268.829 310.198C270.317 310.109 270.273 309.365 268.695 307.966L245.741 306.208L243.143 307.708ZM277.918 289.94L277.722 301.6L280.356 308.162L278.133 338.313L279.339 358.401C279.762 360.467 280.672 360.711 282.071 359.134L287.669 362.83L308.526 366.954L310.892 369.052L335.578 369.81L347.47 366.409L385.781 362.765L404.736 357.595L411.664 353.595L412.762 349.497L410.86 340.203L409.485 309.82L406.717 301.026L406.779 287.134L404.377 276.973L402.511 275.741L389.886 281.875L345.147 290.385L310.801 292.894L281.882 288.806L277.918 289.94ZM244.313 319.734L245.813 322.332C244.194 330.195 244.397 338.546 246.42 347.385C245.599 348.629 246.221 349.04 248.286 348.617L248.885 343.653L252.849 342.519L265.009 343.581C267.985 343.402 268.94 344.39 267.875 346.545C265.232 347.301 264.7 348.378 266.277 349.777L270.107 346.411L270.901 329.787L266.901 322.859C259.86 319.996 252.33 318.954 244.313 319.734ZM272.195 314.028L274.561 316.126L274.428 313.894L272.195 314.028ZM379.717 254.26L380.217 255.126L385.913 252.993L388.511 251.493C386.023 249.85 383.091 250.772 379.717 254.26ZM246.188 350.983L244.09 353.349L244.358 357.813L245.858 360.411C251.9 361.542 258.307 361.307 265.081 359.705C267.146 359.283 267.39 358.372 265.813 356.973L267.545 355.973L268.143 351.009L265.411 350.277L266.045 353.375L246.188 350.983ZM388.217 268.983L388.717 269.849L391.315 268.349L388.217 268.983ZM218.378 372.813L219.378 374.545L221.976 373.045L218.378 372.813ZM257.349 350.313L257.849 351.179L258.715 350.679L257.349 350.313ZM259.581 350.179L261.447 351.411L262.313 350.911L259.581 350.179ZM283.973 368.428L285.973 371.892L298.901 378.284L320.624 381.909L340.712 380.703L366.363 375.131L367.229 374.631C358.211 373.679 348.706 374.548 338.712 377.239L304.597 376.15L283.973 368.428ZM449.518 275.16L452.018 279.49L450.92 283.588L452.822 292.882L452.26 305.909L453.527 312.105L450.563 314.971L454.939 350.55L453.181 373.504L455.181 376.968L465.975 377.664C466.796 376.42 467.585 377.12 468.341 379.762L486.331 380.923L505.554 380.217L517.848 383.511L572.185 385.626L594.774 388.75L604.068 386.848L615.728 387.044L616.96 385.178L618.852 364.456L617.584 358.26C620.042 334.517 621.012 310.863 620.493 287.298L615.529 286.7L617.797 294.628L616.173 319.815L612.209 320.949L598.683 319.521L601.173 293.834L600.039 289.87L602.137 287.504L599.137 282.308L597.405 283.308L595.084 319.289L579.826 318.86L580.049 285.246L578.415 280.416L575.683 279.684L574.728 316.03L576.228 318.628L551.908 316.504L553.068 298.514L551.666 290.085C551.243 288.02 551.943 287.231 553.764 287.719L554.996 285.853L552.862 280.157L541.202 279.961L538.104 280.595L536.006 282.961C539.47 280.961 542.612 281.071 545.434 283.291L546.042 308.344L544.577 313.808L545.577 315.54L525.489 316.746L527.077 283.497L525.443 278.667L520.479 278.069L523.845 281.899L522.979 282.399C522.557 280.334 521.935 279.923 521.113 281.167L519.159 315.782L494.106 316.389L494.695 281.409C493.939 278.766 492.817 277.489 491.329 277.578L489.865 283.043L490.008 315.291L458.126 314.069L457.848 279.588L453.482 274.026L449.518 275.16ZM418.743 299.856C416.189 302.1 416.201 304.787 418.779 307.918L425.475 307.516L426.707 305.65L442.831 305.578L443.697 305.078L437.733 302.748L437.599 300.516L439.965 302.614L441.197 300.748L437.465 298.284L435.733 299.284C430.846 297.487 426.049 297.177 421.341 298.356L418.743 299.856ZM464.91 277.82L465.544 280.918L467.776 280.784L464.91 277.82ZM292.839 381.784L292.107 384.516C292.196 386.004 292.94 385.96 294.339 384.382L304.901 388.676C316.74 391.849 329.478 392.578 343.114 390.863L380.657 381.889L384.121 379.889L371.229 381.559L364.667 384.193L330.82 387.569L307.865 385.81L300.169 384.48C299.747 382.415 299.125 382.004 298.303 383.248L295.571 382.516L292.839 381.784ZM472.972 277.784L472.24 280.516L474.606 282.614L475.838 280.748C477.326 280.659 477.282 279.915 475.704 278.516L472.972 277.784ZM290.875 386.382L280.09 415.703C287.066 422.452 294.819 427.214 303.349 429.987L327.303 433.478L355.454 432.236L382.97 427.896L400.925 420.994L405.389 420.726L420.611 413.092L421.977 413.459L426.54 407.36L426.406 405.128L424.174 405.262C426.15 403.352 425.849 400.831 423.272 397.7C423.76 395.879 423.26 395.013 421.772 395.102L422.406 398.2L418.344 405.164L408.817 410.664L408.451 412.03L390.131 420.298L374.274 424.834L375.872 421.602L393.461 416.066L395.193 415.066L382.301 416.736L381.069 418.602L358.516 423.54L324.035 423.817L322.303 424.817L319.071 423.219L303.679 420.559C303.256 418.494 302.634 418.083 301.813 419.327L287.153 413.935C283.664 410.56 283.697 408.617 287.251 408.105L294.349 414.399L317.937 419.255C328.02 418.053 338.192 418.338 348.454 420.112L353.284 418.478L365.81 418.174L376.836 415.272L380.301 413.272L377.069 411.674L362.578 416.576L336.526 415.451L331.928 413.487L362.81 412.978L375.202 410.442L381.265 406.942L369.738 408.978L349.15 409.317L345.918 407.719L352.114 406.451L369.604 406.746L379.765 404.344L383.229 402.344L381.363 401.112L375.667 403.246L354.578 402.719C353.179 404.297 352.435 404.341 352.346 402.853L342.418 401.657L341.918 400.791L350.346 399.389L366.604 401.55L390.523 396.978L391.389 396.478L372.667 398.05L372.167 397.184L377.497 396.416L378.363 395.916L358.274 397.121C356.876 398.699 355.965 398.455 355.542 396.389L359.006 394.389L363.97 394.987L378.095 391.451L394.317 385.55L407.308 378.05L409.54 377.916L411.406 379.148C412.918 384.433 415.328 387.275 418.638 387.674C419.37 384.942 417.992 381.888 414.504 378.514L413.736 373.184L412.504 375.05L408.906 374.817L403.21 376.951C399.412 378.374 397.558 379.829 397.647 381.317L373.497 389.487L370.765 388.755L344.248 394.827L310.133 393.739C308.735 395.316 307.991 395.361 307.901 393.873L298.839 392.176L293.741 389.346C292.652 386.126 291.696 385.138 290.875 386.382ZM419.547 313.248L423.02 341.265L441.877 341.925L442.609 339.193L440.135 312.909L419.547 313.248ZM482.401 278.114L481.668 280.846L484.267 279.346C483.844 277.281 483.222 276.87 482.401 278.114ZM513.783 278.471L519.747 280.801L518.747 279.069L513.783 278.471ZM530.542 281.497L534.64 282.595C536.128 282.506 536.083 281.762 534.506 280.363L530.542 281.497ZM423.056 349.327L423.324 353.791L432.752 354.121C432.931 357.097 434.297 357.463 436.851 355.219C438.428 356.618 439.461 356.407 439.949 354.585C442.591 353.829 443.291 353.041 442.047 352.219C437.737 350.089 433.229 349.613 428.52 350.791L425.788 350.059L423.056 349.327ZM281.528 432.193L284.528 437.389L297.322 441.55L298.688 441.916L290.626 441.951L283.796 440.121C283.373 438.056 282.751 437.645 281.93 438.889L281.404 459.978L282.77 460.344L284.368 457.112L287.466 456.478L291.198 458.942L299.76 459.772C302.159 459.927 302.659 460.793 301.26 462.37L299.528 463.37L288.234 461.808L296.564 466.236L286.136 464.174C285.713 462.109 284.803 461.865 283.404 463.442L282.404 461.71L281.172 463.576L284.538 467.406L298.564 469.7C300.052 469.611 301.174 470.888 301.93 473.53L305.028 472.896L303.028 469.432C304.891 460.659 305.554 451.808 305.019 442.88C304.596 440.814 305.295 440.026 307.117 440.514L306.983 438.282C307.471 436.46 306.971 435.594 305.483 435.684L304.251 437.55C301.697 439.794 299.465 439.928 297.554 437.951C297.132 435.886 296.51 435.475 295.688 436.719L281.528 432.193ZM378.523 376.193L379.023 377.059L379.889 376.559L378.523 376.193ZM381.987 374.193L385.219 375.791L387.317 373.425L381.987 374.193ZM389.049 372.425L389.549 373.291L390.415 372.791L389.049 372.425ZM435.949 347.657L443.279 350.353L443.645 348.987L435.949 347.657ZM560.692 283.719L560.826 285.951L561.692 285.451L560.692 283.719ZM384.791 391.05L388.889 392.148L396.683 387.648L398.049 388.014C401.847 386.591 404.278 384.802 405.344 382.648L391.853 389.282L390.121 390.282L384.791 391.05ZM406.942 379.416L407.442 380.282L408.308 379.782L406.942 379.416ZM314.045 436.514C308.807 448.775 307.379 462.301 309.76 477.092L320.92 476.423L327.385 479.619L332.349 480.217L344.375 479.047L343.973 472.351L341.973 468.887L343.633 451.762L341.633 448.298C340.056 446.9 338.568 446.989 337.169 448.566L336.669 447.7L331.705 447.102C329.729 449.013 328.652 448.48 328.473 445.504L339.633 444.834L337.901 445.834L338.401 446.7C341.044 445.944 342.321 444.822 342.231 443.334L334.535 442.004L328.071 438.808C325.006 437.498 322.03 437.677 319.143 439.344L314.045 436.514ZM405.611 387.112L406.111 387.978L407.844 386.978L405.611 387.112ZM386.327 401.71L386.827 402.576L387.693 402.076L386.327 401.71ZM411.576 389.442L407.879 395.04L408.379 395.906C412.177 394.483 413.986 392.284 413.808 389.308L411.576 389.442ZM332.035 437.674L335.267 439.272L336.133 438.772L332.035 437.674ZM336.999 438.272L337.499 439.138L338.365 438.638L336.999 438.272ZM382.033 412.272L382.533 413.138L383.399 412.638L382.033 412.272ZM339.231 438.138L343.329 439.236L344.195 438.736L339.231 438.138ZM385.131 411.638L385.631 412.504L386.497 412.004L385.131 411.638ZM389.961 410.004L386.631 414.236L391.461 412.602C393.526 412.179 394.514 411.224 394.425 409.736L389.961 410.004ZM557.604 314.37L558.97 314.736L560.336 315.102C559.913 313.037 559.002 312.793 557.604 314.37ZM417.808 396.236L418.308 397.102L419.174 396.602L417.808 396.236ZM348.16 437.602L350.026 438.834L362.052 437.664L363.784 436.664L348.16 437.602ZM292.002 472.334L293.002 474.066L301.564 474.896L301.064 474.03L292.002 472.334ZM346.695 443.066L347.999 457.325L370.186 453.753L380.712 449.985C382.777 449.562 382.4 448.241 379.578 446.021L376.114 448.021L353.928 451.592L353.428 450.726L351.061 448.628L377.712 444.789C379.777 444.366 379.4 443.045 376.578 440.825C371.382 443.825 366.341 444.426 361.454 442.628C360.055 444.206 359.144 443.962 358.722 441.896L355.124 441.664L351.66 443.664L346.695 443.066ZM397.729 427.459L398.229 428.325L399.095 427.825L397.729 427.459ZM305.698 484.057L305.832 486.289L328.42 489.413C330.575 490.478 333.218 489.722 336.349 487.145L381.856 483.966L385.32 481.966L370.195 483.769L334.483 485.913L332.751 486.913C323.245 487.782 314.228 486.83 305.698 484.057ZM298.404 489.423L303.27 495.851L318.064 503.475L327.626 506.037C327.716 507.525 328.46 507.481 329.858 505.903L330.358 506.769L327.76 508.269L317.332 506.207L307.77 503.645L306.77 501.913L304.538 502.047L306.538 505.511L321.698 511.769L348.385 515.992L369.205 512.054L382.597 511.25L396.222 506.848L397.454 504.982L407.846 498.982L415.006 491.384L416.104 487.286L414.935 475.26L408.738 476.528L402.81 482.26L396.114 482.662L388.686 485.796C381.823 485.909 374.883 487.222 367.865 489.733L353.973 489.671L351.375 491.171L335.751 492.109L329.42 491.145L326.822 492.645L310.198 491.851L304.734 490.387L298.404 489.423ZM348.633 460.423L348.035 465.387L351.267 466.985L348.669 468.485C346.693 470.395 346.827 472.628 349.071 475.181L353.901 473.547L352.669 475.413L355.767 474.779C357.743 472.868 358.943 472.946 359.365 475.011L364.561 472.011L381.918 470.073C385.471 469.561 385.837 468.195 383.016 465.975L381.284 466.975C383.415 462.666 382.98 457.913 379.98 452.717L372.552 455.851L348.633 460.423ZM384.64 440.789L386.14 443.387L398.899 439.485L399.399 440.351L389.738 443.619C387.096 444.375 385.986 445.785 386.408 447.851L393.47 446.083L396.435 443.217C398.988 440.973 401.175 440.095 402.997 440.583L407.693 436.717L388.104 438.789L384.64 440.789ZM427.076 416.289L425.977 420.387C423.335 421.143 422.802 422.22 424.379 423.619L425.611 421.753C426.433 420.509 427.055 420.919 427.477 422.985L426.379 427.083C421.671 428.261 419.529 429.884 419.951 431.949L414.255 434.083L414.389 436.315L426.513 429.315L427.513 431.047C427.936 433.112 426.082 434.568 421.951 435.413L422.451 436.279C425.249 433.124 427.025 432.868 427.781 435.511L416.523 442.011L414.193 447.975L422.987 445.207L423.121 447.439L416.559 450.073L415.961 455.037C417.026 452.883 420.035 450.761 424.987 448.671L424.719 444.207L426.683 439.609L428.049 439.975L427.719 449.403L427.487 453.001L429.585 450.635L430.415 442.073L428.942 417.521C428.519 415.455 427.897 415.045 427.076 416.289ZM387.042 450.949L386.31 453.681L396.836 449.913L401.801 450.511L408.363 447.877L407.095 441.681L406.229 442.181L399.301 446.181L397.935 445.815L396.702 447.681L387.042 450.949ZM348.705 476.547L351.937 478.145L366.195 476.841L368.794 475.341L360.731 475.377C359.333 476.954 358.422 476.71 357.999 474.645L348.705 476.547ZM387.31 455.413L387.578 459.877L389.676 457.511L397.238 456.609L408.631 452.341C411.273 451.585 411.351 450.386 408.863 448.743L401.935 452.743L387.31 455.413ZM388.078 460.743L385.98 463.109L389.712 465.573L387.382 471.537L390.48 470.903L407.569 464.501C410.211 463.745 411.488 462.623 411.399 461.135L407.301 460.037C403.015 463.281 399.218 464.704 395.908 464.305L395.408 463.439L400.238 461.805C403.792 461.293 405.646 459.838 405.801 457.439L408.899 456.805L410.131 454.939L407.399 454.207L393.908 460.841L392.542 460.475L389.944 461.975C389.522 459.91 388.9 459.499 388.078 460.743ZM410.765 458.037L411.265 458.903L412.131 458.403L410.765 458.037ZM415.229 457.769L418.461 459.367C423.169 458.189 425.434 456.111 425.255 453.135L415.229 457.769ZM387.052 480.966L387.552 481.832L389.284 480.832L387.052 480.966ZM337.528 529.188L336.43 533.286L342.028 536.982C350.802 538.845 360.019 538.142 369.679 534.875L366.313 531.044L365.081 532.91L361.983 533.544L358.751 531.946L367.545 529.178L369.277 528.178L359.849 527.848L359.983 530.08L358.251 531.08L337.528 529.188ZM371.875 526.678L374.607 527.41L376.339 526.41L371.875 526.678ZM374.241 528.776L373.643 533.741L378.839 530.741L377.473 530.375C376.717 527.732 375.64 527.199 374.241 528.776ZM378.705 528.508L379.705 530.241C380.193 528.419 381.97 528.163 385.035 529.473L384.401 526.375L378.705 528.508ZM358.688 545.839L357.662 566.061L359.172 598.676L357.208 603.274L360.074 606.238L363.172 605.604L363.904 602.872L361.028 569.891L362.322 554.133L359.688 547.571L361.42 546.571L358.688 545.839Z" fill="#090909"/>
<path opacity="0.996078" d="M82.7033 321.818L85.7344 320.068L107.006 319.911L104.6 350.745L85.811 351.201L84.7931 345.438L86.2213 331.911L82.7033 321.818Z" fill="#090909"/>
<path opacity="0.996078" d="M109.921 319.961C116.748 321.253 123.755 321.057 130.942 319.371L131.153 352.736L108.015 351.66L109.921 319.961ZM119.818 328.103L119.952 330.335L120.818 329.835L119.818 328.103ZM119.586 331.701L119.72 333.933L120.586 333.433L119.586 331.701ZM110.363 349.727L110.863 350.593L111.729 350.093L110.363 349.727Z" fill="#090909"/>
<path opacity="0.996078" d="M132.808 320.603L158.111 320.428L158.071 353.36L134.068 352.785L132.808 320.603Z" fill="#090909"/>
<path opacity="0.996078" d="M161.892 319.977L166.289 318.593C166.639 320.932 167.982 320.926 170.32 318.575L190.36 320.285C188.522 330.968 189.109 341.984 192.119 353.332L189.954 354.582L163.219 353.275L161.892 319.977ZM180.217 326.718L179.485 329.45L181.217 328.45L180.217 326.718Z" fill="#090909"/>
<path opacity="0.996078" d="M107.6 355.941L124.725 357.601L130.488 356.583L130.761 376.056L108.373 376.28C106.307 369.235 106.05 362.456 107.6 355.941Z" fill="#090909"/>
<path opacity="0.996078" d="M193.774 321.199L204.435 319.664L224.84 320.007C227.68 331.993 228.289 343.381 226.667 354.171L195.351 354.93L193.774 321.199ZM198.074 325.646L198.574 326.512L199.44 326.012L198.074 325.646ZM212.466 326.574L212.002 333.77L215.198 327.306C214.775 325.241 213.865 324.996 212.466 326.574Z" fill="#090909"/>
<path opacity="0.996078" d="M135.019 357.431L159.022 358.007L158.045 375.314L136.158 376.404L134.408 373.373L135.019 357.431Z" fill="#090909"/>
<path opacity="0.996078" d="M163.303 358.422L191.021 357.43L192.593 376.153C182.834 377.784 173.323 377.31 164.058 374.73C162.486 368.94 162.234 363.504 163.303 358.422ZM187.727 369.725L188.727 371.457L189.959 369.591L187.727 369.725Z" fill="#090909"/>
<path opacity="0.996078" d="M280.918 295.136L282.217 294.386L303.39 300.059L302.341 301.242L295.645 301.644L282.668 298.167L280.918 295.136Z" fill="#090909"/>
<path opacity="0.996078" d="M283.485 300.582L285.351 301.814C283.121 302.486 283.355 303.891 286.052 306.028L293.181 305.377L300.694 307.39L297.779 307.341L297.413 308.707C292.957 307.122 287.977 307.496 282.472 309.827L283.485 300.582Z" fill="#090909"/>
<path opacity="0.996078" d="M281.624 314.359L283.789 313.109L294.034 315.854C295.262 316.915 295.079 317.598 293.485 317.903L282.874 316.524L281.624 314.359Z" fill="#090909"/>
<path opacity="0.996078" d="M303.841 303.841L312.086 303.122C312.7 305.385 314.249 305.068 316.734 302.171L321.015 302.586C321.255 304.602 320.617 305.163 319.1 304.269L307.073 305.439L303.841 303.841Z" fill="#090909"/>
<path opacity="0.996078" d="M282.825 319.439L290.155 322.135C288.067 321.185 285.857 321.691 283.526 323.653L284.776 325.818L295.521 329.429L302.534 330.576L302.851 332.125L283.678 329.916L282.178 327.318L282.825 319.439Z" fill="#090909"/>
<path opacity="0.996078" d="M304.609 309.171L309.006 307.787L310.073 310.635L304.609 309.171Z" fill="#090909"/>
<path opacity="0.996078" d="M333.59 299.367C334.825 298.038 335.674 298.51 336.139 300.782L338.064 329.116L336.881 328.067L333.59 299.367Z" fill="#090909"/>
<path opacity="0.996078" d="M282.762 333.331L300.704 337.406L301.021 338.955L282.213 335.38L282.762 333.331Z" fill="#090909"/>
<path opacity="0.996078" d="M346.049 297.947L350.879 296.313L355.299 313.968L356.175 343.485L358.193 350.98L356.211 351.547L354.791 339.088L352.943 341.887L354.961 349.382C353.769 350.917 352.941 350.817 352.479 349.083L351.835 315.968L349.281 299.545C347.743 301.28 346.665 300.747 346.049 297.947Z" fill="#090909"/>
<path opacity="0.996078" d="M354.478 296.545L357.826 296.344L360.192 298.442L362.982 326.276L361.116 325.044L361.567 328.825L362.75 329.874L361.201 330.191L361.969 335.521L364.335 337.619L365.956 353.427L362.175 353.878L359.059 350.48L360.907 347.681L360.371 338.753L358.505 337.521L358.764 311.969L354.478 296.545Z" fill="#090909"/>
<path opacity="0.996078" d="M281.366 339.911L299.24 342.87L297.691 343.187L281.75 342.576L281.366 339.911Z" fill="#090909"/>
<path opacity="0.996078" d="M363.772 294.643C365.104 292.95 366.098 293.338 366.754 295.808L370.192 315.763L370.13 329.655L373.201 350.975L375.317 352.64L373.469 355.439L376.75 354.122L376.63 340.913L373.228 329.021L372.424 315.629L368.169 293.259L375.365 293.723L393.271 289.736L393.905 292.834L394.954 291.651C398.705 290.948 399.754 289.765 398.101 288.102L396.918 287.053L400.449 286.169L406.673 318.949L408.28 345.734L406.999 350.515L400.571 355.381L377.152 360.819L369.956 360.354L336.792 363.913L339.574 361.73L351.466 358.328L371.054 356.256L370.237 353.841C366.705 336.79 365.267 320.299 365.924 304.37L363.772 294.643ZM375.906 317.66L376.04 319.892L376.906 319.392L375.906 317.66ZM401.521 304.026L401.655 306.258L402.521 305.758L401.521 304.026ZM401.655 306.258L401.789 308.49L402.655 307.99L401.655 306.258ZM401.789 308.49L401.923 310.722L402.789 310.222L401.789 308.49ZM401.923 310.722L401.324 315.686L403.191 316.918L403.423 313.32L401.923 310.722ZM377.576 330.552L378.612 340.346L380.478 341.578L379.076 333.15L377.576 330.552ZM402.324 317.418L402.458 319.65L403.324 319.15L402.324 317.418ZM402.958 320.516L403.092 322.748L403.958 322.248L402.958 320.516ZM403.592 323.614L404.226 326.712L405.092 326.212L403.592 323.614ZM404.226 326.712L404.36 328.944L405.226 328.444L404.226 326.712ZM379.612 342.078L379.88 346.542L381.112 344.676L379.612 342.078Z" fill="#090909"/>
<path opacity="0.996078" d="M327.033 317.009L329.015 316.442L328.868 325.187L327.685 324.138L327.033 317.009Z" fill="#090909"/>
<path opacity="0.996078" d="M282.7 347.223L286.981 347.638L294.446 352.567L288.798 351.786L284.517 351.371L282.151 349.272L282.7 347.223Z" fill="#090909"/>
<path opacity="0.996078" d="M281.736 353.553L293.714 355.299L302.044 359.727L300.495 360.044L282.37 356.652L281.321 357.835L281.736 353.553Z" fill="#090909"/>
<path opacity="0.996078" d="M296.86 351.75L305.24 353.263L303.324 354.946L300.659 355.33L296.86 351.75Z" fill="#090909"/>
<path opacity="0.996078" d="M345.358 323.75L347.541 326.531L348.113 343.521L350.765 354.114C348.265 357.251 346.527 356.908 345.551 353.083L344.345 332.995L345.358 323.75Z" fill="#090909"/>
<path opacity="0.996078" d="M290.746 399.158L298.143 402.971L301.491 402.77C303.508 404.53 303.203 405.669 300.576 406.185C296.543 406.666 293.083 405.007 290.197 401.208L290.746 399.158Z" fill="#090909"/>
<path opacity="0.996078" d="M287.916 404.257L300.161 410.466L299.112 411.649C294.721 411.644 290.806 409.863 287.367 406.306L287.916 404.257Z" fill="#090909"/>
<path opacity="0.996078" d="M458.326 317.417L489.16 319.822L488.255 353.254L459.171 353.88L457.081 330.26L458.326 317.417Z" fill="#090909"/>
<path opacity="0.996078" d="M493.441 320.238L495.173 319.238L502.003 321.068L518.811 321.179L516.039 353.379L514.307 354.379L492.036 352.803L493.441 320.238Z" fill="#090909"/>
<path opacity="0.996078" d="M282.698 444.22L284.863 442.97L294.608 444.849L298.523 446.63L301.438 446.679L301.755 448.228L298.657 448.862L290.278 447.349L284.997 445.202C283.729 446.472 282.963 446.145 282.698 444.22Z" fill="#090909"/>
<path opacity="0.996078" d="M285.765 450.532L299.108 452.643C300.337 453.704 300.154 454.387 298.559 454.692L285.716 453.447L285.765 450.532Z" fill="#090909"/>
<path opacity="0.996078" d="M459.872 358.094L487.84 357.535C489.654 363.877 489.784 369.769 488.229 375.208L484.264 376.342L464.225 374.633L459.127 371.803L458.591 362.875L459.872 358.094Z" fill="#090909"/>
<path opacity="0.996078" d="M523.092 321.594C530.922 319.69 538.302 319.471 545.229 320.937L543.891 354.619L520.57 354.226L523.092 321.594Z" fill="#090909"/>
<path opacity="0.996078" d="M550.876 321.718L575.38 323.159L573.109 356.225L571.376 357.225L548.605 354.784L550.876 321.718Z" fill="#090909"/>
<path opacity="0.996078" d="M492.12 357.95L516.124 358.525L514.647 374.967L492.509 375.623L492.12 357.95Z" fill="#090909"/>
<path opacity="0.996078" d="M314.987 467.146L319.817 465.512L339.857 467.222L338.808 468.405C329.753 470.322 321.813 469.903 314.987 467.146Z" fill="#090909"/>
<path opacity="0.996078" d="M519.039 358.575C527.61 357.552 535.778 358.033 543.543 360.016L543.999 378.805C542.7 380.556 541.706 380.168 541.017 377.64C539.424 376.481 538.619 376.754 538.602 378.457L520.178 377.547C518.05 374.927 517.605 372.49 518.843 370.235C520.438 369.93 520.621 369.247 519.392 368.186L519.99 363.222L518.99 361.49L519.039 358.575Z" fill="#090909"/>
<path opacity="0.996078" d="M580.161 324.441C585.431 323.169 590.29 323.25 594.737 324.686C595.209 336.037 593.996 346.937 591.099 357.386L578.756 357.006L580.161 324.441Z" fill="#090909"/>
<path opacity="0.996078" d="M598.151 325.601L604.348 324.333L614.959 325.712L613.553 358.278L595.63 358.234L598.151 325.601Z" fill="#090909"/>
<path opacity="0.996078" d="M547.891 361.547L552.288 360.163L573.693 362.238L572.783 380.662L564.788 381.814L547.847 379.471L547.891 361.547Z" fill="#090909"/>
<path opacity="0.996078" d="M341.849 496.671L362.187 495.898L361.138 497.081L342.849 498.403L341.849 496.671Z" fill="#090909"/>
<path opacity="0.996078" d="M578.975 364.386L581.207 364.252L582.439 362.386L588.702 362.234C590.172 369.314 589.686 376.138 587.243 382.706L583.712 383.59L582.212 380.992C580.074 383.689 578.669 383.923 577.997 381.693L578.975 364.386ZM582.506 363.502C582.351 365.9 582.973 366.311 584.372 364.734L582.506 363.502Z" fill="#090909"/>
<path opacity="0.996078" d="M345.648 500.251L355.576 501.447C359.809 499.312 363.529 499.088 366.736 500.778L373.115 498.827L365.571 503.76C365.306 501.834 364.54 501.507 363.272 502.778L358.308 502.179L355.71 503.679L345.965 501.8L345.648 500.251Z" fill="#090909"/>
<path opacity="0.996078" d="M344.25 506.831C348.254 505.366 352.225 505.576 356.161 507.46L356.478 509.01L345 508.13L344.25 506.831Z" fill="#090909"/>
<path opacity="0.996078" d="M594.099 362.581L613.638 363.425L614.638 365.157L613.295 383.83C612.292 385.025 611.609 384.842 611.246 383.281L606.965 382.866L605.233 383.866L590.658 383.621L594.099 362.581ZM602.434 382.018L602.934 382.884L603.8 382.384L602.434 382.018Z" fill="#090909"/>
<path opacity="0.996078" d="M362.937 497.198L365.968 495.448L372.664 495.046L376.128 493.046L375.628 492.18L370.981 493.131L372.896 491.448L384.423 489.412L402.011 483.876L404.06 484.425L405.243 485.474L413.037 480.974L413.171 483.206C411.668 483.535 411.485 484.218 412.622 485.255L409.975 489.67L400.949 496.036C401.42 497.919 400.31 499.33 397.619 500.268L395.887 501.268L394.838 502.451L397.07 502.317L396.021 503.5C390.02 506.041 384.341 507.203 378.981 506.987C379.5 504.686 381.704 502.836 385.592 501.438L391.423 501.536L394.454 499.786C392.876 498.387 393.12 497.477 395.186 497.054L393.686 494.456L388.557 498.572L383.043 500.023L386.874 496.657L378.329 499.858L372.298 496.412L363.937 498.93L362.937 497.198ZM408.408 485.956L398.65 495.054L404.346 492.92C405.834 492.831 405.789 492.087 404.212 490.688L411.14 486.688L411.506 485.322L408.408 485.956Z" fill="#090909"/>
<path opacity="0.996078" d="M324.564 305.733L327.479 305.782L326.43 306.965L324.015 307.782L324.564 305.733Z" fill="#B7B7B7"/>
<path opacity="0.996078" d="M301.442 405.685L302.991 405.368L301.942 406.551L301.442 405.685Z" fill="#B7B7B7"/>
<path opacity="0.996078" d="M327.255 492.395L328.804 492.078L327.755 493.261L327.255 492.395Z" fill="#B7B7B7"/>
</svg>
