<svg width="411" height="444" viewBox="0 0 411 444" fill="none" xmlns="http://www.w3.org/2000/svg">
<path opacity="0.996078" d="M218.5 0H232.5L241.5 2L258.5 11L291.5 20C305.033 25.4667 316.2 33.3 325 43.5C332.533 52.6333 338.867 62.9667 344 74.5L348 91.5L353 101.5L363.5 112L384 131.5L393 149.5L398 179.5L407 199.5L411 219.5V236.5L405 259.5L396 278.5L395 299.5L391 323.5L383 341.5L368.5 358L330.5 381L316 394.5L293.5 420C285.7 426.533 276.7 431.867 266.5 436L251.5 441L235.5 444H233.5H215.5L194.5 438L168.5 435L167.5 436H154.5L142.5 434L123.5 426L100.5 406L74.5 397C68.0333 394.8 62.8667 391.3 59 386.5L43 359.5L15 323.5L8 300.5V284.5L9 282.5L8 281.5V271.5L9 270.5V248.5L8 247.5L7 228.5L0 202.5V183.5L3 166.5L9 151.5L14 143.5L33 122.5L41 108.5L50.5 99C61.6333 92.8 71.1333 84.9667 79 75.5C84.7333 64.2333 92.2333 54.7333 101.5 47L124.5 33L165.5 18L186.5 5L192.5 3L212.5 2L218.5 0ZM224 10L216 13C210.667 13.6667 207.333 13 206 11C196.667 10.3333 190 12.3333 186 17L184 20L181 22L182 20V18L177 24L169 29L158 31L146 36L137 38L120 50L100 69L107 59L113 54L116 50L108 55C99.3333 62.3333 92.3333 71.3333 87 82C78.3333 92 68 100.667 56 108L36 136L20 155L11 176L10 193L9 194L11 203L13 183L15 182L14 187V209L18 226L16 230L18 243L20 281L24 272H25L22 283V287L27 301L31 305C25.6667 301 22 295.333 20 288L18 287C18 293 19.6667 297.667 23 301L36 311L50 318H52L47 314V313L53 315L52 312L61 316L64 321L77 331L86 342L96 350C97.3333 350.667 97.6667 350.333 97 349V347L102 350L104 349L99 343H96L94 339L90 338L74 327L67 320L60 311L66 315L85 334L104 342C107.333 342.667 109.333 342 110 340L115 341C117.667 341.667 118.667 344 118 348L124 351H126L124 349L121 345V340L123 337C123 330.333 124.333 325 127 321V315L131 307L136 302L147 300L155 302H158L151 298C149 298.667 148.333 298 149 296L161 301L163 308L159 304L155 305L163 312C162.333 310 163 309.333 165 310L166 313C168 315 171 316.333 175 317H185L192 315L194 313H205L206 312L214 314L216 313L228 319L216 295L214 287V272L218 258L229 246V244L223 247L221 248L228 244L268 203C269.333 203.667 269.667 203 269 201H273H275C279.667 202.333 282.667 201.333 284 198L293 199L321 213H322L302 200V199C311.333 201.667 319.333 205.667 326 211C327.333 211.667 327.333 212.667 326 214L331 220H333L330 216V214L339 221V220L337 216L345 221H346L345 219L323 202L322 200L326 202H328L316 194L312 184L307 180L308 178L301 164L302 160L300 155L301 153L299 149L302 148L299 141L295 139C292.333 139.667 291.333 139 292 137L282 132L281 134L293 142L294 144L291 142C289 141.333 288.333 142 289 144L292 145L295 149L292 148L289 149L287 148L284 149L293 155L297 161C291.667 159.667 287.667 157.333 285 154L278 147L271 141L285 158V160L290 164L298 167L302 174L303 175C299.667 169.667 294.667 166.333 288 165C284 163 281.333 160 280 156C280.667 154 280.333 153.333 279 154L267 142L269 136L268 133L269 131L277 138H278C274.667 134 273 128.333 273 121L270 117V115L260 103V101L239 86L236 83L223 68L230 72L229 71L230 69C232.667 70.3333 233.667 73.3333 233 78C237.667 83.3333 243.667 88 251 92C253.667 92.6667 254.667 92.3333 254 91L242 81L236 74V72C237.333 71.3333 237.667 72 237 74L247 82L261 89L271 93L283 95L282 97C281.333 98.3333 282 98.6667 284 98L285 95L294 98L292 96L295 94C296.333 94.6667 296.667 94 296 92H299L297 87L298 84L303 85L307 88V87L305 85L301 79L305 81H306L298 70C297.333 68 298 67.3333 300 68L299 66L300 64C296 58.6667 290.667 54.6667 284 52C273.333 50 264.333 46.6667 257 42L239 40L235 34L242 37C248 37 253.333 38 258 40L261 39L258 36L247 34V33L266 35C272 37.6667 279.333 39.3333 288 40L299 44C300.333 43.3333 300.667 44 300 46L307 49H309L298 39L297 41H294L286 36H279L259 32L261 30C265 31.3333 267.667 31 269 29L273 30L276 29C285.333 31 293.667 34.3333 301 39C303 39.6667 303.667 39.3333 303 38L301 35L289 30L268 25L254 19L245 17L234 10H224ZM267 43C267 45 268.667 46.3333 272 47H275L267 43ZM291 43L290 45L308 59C309.333 59.6667 309.667 59.3333 309 58C304.333 51.3333 298.333 46.3333 291 43ZM290 46C288.667 48 289 48.6667 291 48L290 46ZM276 47V48H277L276 47ZM319 56V59L322 60L320 58C320.667 56 320.333 55.3333 319 56ZM320 74V78L329 87H330L321 76C321.667 74 321.333 73.3333 320 74ZM260 91V92H261L260 91ZM323 93L325 96C332.333 100 339 105 345 111C346.333 111.667 346.667 111.333 346 110L332 97L323 93ZM267 96L270 100L286 109V108L267 96ZM306 100V102L309 103H311L306 100ZM284 101L285 103L293 108H297L284 101ZM323 101L322 104L326 105L323 101ZM317 105V108L315 109L305 107L306 110C302.667 110.667 300.667 110 300 108C298 107.333 297.333 108.667 298 112C299.333 112.667 299.333 113.333 298 114L293 112L291 113L299 118L301 117L302 120L306 122L305 119C305.667 115.667 305.333 114.333 304 115V114L307 116C310.333 117.333 311.667 116.667 311 114L309 115L308 112L313 111H316L321 114L319 112L322 110C323.333 110.667 323.667 110 323 108L317 105ZM276 110L277 112L296 123L297 125L282 119L280 120L293 128L294 130C286 128 279.667 124.333 275 119L274 121L283 129L297 136L302 142L303 140C303.667 137.333 303.333 136.333 302 137L301 135C302.333 135.667 302.667 135.333 302 134V132C303.333 132.667 303.667 132.333 303 131V129C302.333 127 303 126.333 305 127L306 124L299 119L291 117L276 110ZM327 110L329 113H330L327 110ZM339 112L341 116V114L339 112ZM322 114V115H323L322 114ZM278 117L279 119H280L278 117ZM342 119C340 121.667 340.333 122.667 343 122L342 119ZM335 122L336 124C336.667 122 336.333 121.333 335 122ZM314 127C316 131 319.667 134 325 136H327L314 127ZM342 131L341 133L354 138L359 145L362 148L345 142C343 141.333 342.333 142 343 144C348.333 144 353 145.667 357 149C358.333 148.333 358.667 149 358 151L361 154L337 145L336 147L362 157L365 161L349 155L348 157L357 161C358.333 161.667 358.667 163.333 358 166L359 167L352 165L348 166L363 172C364.333 171.333 364.667 172 364 174L365 175L354 172L351 173L365 180C369.667 182.667 372 188.333 372 197H373C374.333 189.667 373.667 184.667 371 182L373 181L374 182L372 176V174L369 163L366 158L370 161C369.333 163 370 163.667 372 163L369 154L363 149L365 148L366 149V146L363 142L355 136L342 131ZM320 138V139H321L320 138ZM322 139V140H323L322 139ZM324 140L326 142C326.667 140 326 139.333 324 140ZM374 143C372.667 145 373 145.667 375 145L374 143ZM312 144L311 146L314 147L312 144ZM341 158C341 160 342.667 161.333 346 162C348 162.667 348.667 162 348 160L341 158ZM328 160L329 162L337 165H339C341 165.667 341.667 165 341 163L333 160H328ZM342 169V171L346 173H349C347.667 170.333 345.333 169 342 169ZM386 172L389 193L390 191L389 180L386 172ZM342 176V178L345 180C351 180.667 356 182.667 360 186L358 187H360L361 190C357 190.667 354.333 190 353 188L351 189L361 196C363 195.333 363.667 196 363 198L355 196L353 194L351 195L358 200L361 205L362 206L351 202L348 199H347C345 198.333 344.333 199 345 201C349 205 354.333 207.667 361 209L362 211L354 210L341 202L340 204L363 219C365 219.667 365.333 218.333 364 215L369 217L373 201C373.667 198.333 373.333 197.333 372 198L370 197L368 188L363 182L346 178L342 176ZM344 182L348 186H351L344 182ZM343 190L346 194V193L343 190ZM388 194C386.667 197.333 387.333 198.667 390 198L392 205L394 206L393 197L388 194ZM332 195C331.333 196.333 332 196.667 334 196L335 197C335.667 195 334.667 194.333 332 195ZM383 203V205L385 206C385.667 203.333 385 202.333 383 203ZM288 209C287.333 211 288 211.667 290 211C290.667 209 290 208.333 288 209ZM389 211L385 212C384.333 215.333 385 217.667 387 219C386.333 221.667 387 222.667 389 222V215L390 214L389 211ZM344 212C343.333 213.333 344.333 214 347 214L356 225L362 224C362.667 221.333 362 219.667 360 219C358 219.667 357.333 219 358 217L347 212H344ZM398 212C396 215.333 396 217.667 398 219L397 223V229H400C401.333 221.667 400.667 216 398 212ZM290 214L289 216H290V214ZM297 214V216H301L297 214ZM313 216L319 222H320L313 216ZM305 218L309 222H310C310 219.333 308.333 218 305 218ZM310 222V224L315 227V226L310 222ZM349 223L348 225L351 226L349 223ZM394 225L392 228L391 244L388 249C387.333 251 388 252.333 390 253L392 251L394 244V233L395 232C395.667 228 395.333 225.667 394 225ZM294 226C292 226.667 291.333 228.667 292 232L295 230L294 226ZM297 228C297.667 232 296.667 235 294 237L295 239C295.667 241.667 295 243.667 293 245V250V252L294 255L296 244H297C296.333 246 297 246.667 299 246C299.667 241.333 299 237.333 297 234L301 233H302V238H304C304.667 234 304 231.333 302 230V228H297ZM316 228L318 232C319.333 232.667 319.667 232 319 230L316 228ZM309 229L308 231L311 232L309 229ZM384 232L382 235L383 237L382 241L383 246L385 241C386.333 236.333 386 233.333 384 232ZM323 233L327 245V247V262H325L322 256L321 244L319 242C319.667 240 318.667 239.333 316 240L319 248V260L316 271L317 276L315 282L305 297V298L308 297C312.667 293.667 316.333 289 319 283C320.333 279 320 276.667 318 276C317.333 272 318 269.333 320 268L321 270V268L323 267L322 283C318.667 285.667 316.333 289.667 315 295L297 309H295L299 303V301L288 309L279 307C275.667 307.667 274.333 307 275 305L284 304L294 297L298 292H301C300.333 294 301 294.667 303 294L312 284L314 279L313 277L315 272C315.667 269.333 315 268.333 313 269L311 265V259L310 257L308 259L306 268V269C309.333 270.333 310.667 270 310 268H311L309 272C309.667 276.667 309 280.333 307 283L305 284L306 279L305 270H304C301.333 270.667 300.667 269.667 302 267H300V269L299 254L295 263L292 266L291 271L283 280C282.333 281.333 283 281.667 285 281L287 280L273 295C273.667 296.333 275.333 296.667 278 296L277 295L280 291L281 292L280 294L285 295C286.333 294.333 286.667 295 286 297L282 300H278L268 296L269 293L262 294L267 296H265V298C261 299.333 258.667 299 258 297L254 298L255 300L258 299L271 301L272 304C269.333 302 265.667 301 261 301L260 304H257L249 300L246 301L257 306C258.333 305.333 258.667 306.333 258 309L255 310L262 313L264 312C266 311.333 266.333 312.333 265 315L260 316L269 319V320L250 317C248 315 245 314 241 314L231 308L229 309L238 315L249 320L252 319L267 326V327L262 326L254 327L259 329C266.333 329.667 272.333 329 277 327L300 312C300.667 309.333 301.667 309 303 311L310 306L316 305L322 296C322.667 288 324.333 281.667 327 277V273C329 273.667 329.667 273 329 271H327L329 269L330 260H331C330.333 261.333 331 261.667 333 261C333.667 255 332.667 250.667 330 248L331 246L329 237L323 233ZM292 234L290 236L291 241L292 237V234ZM333 236C331.667 238.667 332.333 240.667 335 242V237L333 236ZM308 237L310 247V253L313 251L312 239L308 237ZM377 238L375 242V253L376 254C375.333 255.333 376 255.667 378 255V246L379 245L377 238ZM300 242L301 246L303 245L304 250V259L303 260L304 263L307 257C307.667 251.667 307 248 305 246L300 242ZM369 242L365 246L367 252L366 254L368 256L370 249C370.667 245.667 370.333 243.333 369 242ZM288 244L285 245C284.333 247 285 247.667 287 247L288 248V244ZM363 247L362 250C360.667 254 361 256.667 363 258L362 260L364 263L365 259L364 255L365 253C366.333 248.333 365.667 246.333 363 247ZM257 248L256 250H257V248ZM281 254L271 267L272 268L274 267L282 256C282.667 254 282.333 253.333 281 254ZM387 256L386 258H387V256ZM265 257L263 260H265C267 259.333 267 258.333 265 257ZM284 262L277 272V275L281 274C281.667 276.667 281 278.333 279 279C277 278.333 276.333 279 277 281C274.333 285 270.333 287.667 265 289C263 288.333 262.333 289 263 291L270 290L281 280C282.333 280.667 282.667 280 282 278L285 276L287 267H285L286 265C286.667 262.333 286 261.333 284 262ZM289 263L287 266L289 265V263ZM265 271V273L268 274C269.333 271.333 268.333 270.333 265 271ZM252 272L248 274L249 276L253 274C253.667 272 253.333 271.333 252 272ZM262 273C260 273.667 259.667 274.667 261 276L260 278L261 280L260 282L265 280L266 277L262 278V273ZM274 275L269 279C269.667 280.333 269.333 280.667 268 280L265 284L269 283L275 276L274 275ZM258 276L255 278C253 277.333 252.333 278 253 280C256.333 280.667 258.333 280.333 259 279L258 276ZM387 277L384 284V294H386L387 291V277ZM378 282L375 301L377 303L379 298C378.333 294 378.667 291.667 380 291V283L378 282ZM255 283L254 285H255V283ZM230 284C229.333 286 230.333 286.667 233 286C233.667 284 232.667 283.333 230 284ZM256 286L254 288C253.333 290 255 290.333 259 289C259.667 291 260.667 290.667 262 288C261.333 286 259.333 285.333 256 286ZM372 289L370 291V302C368 302.667 367.333 305 368 309L372 311V297L373 296L372 289ZM251 296C250.333 298 251 298.667 253 298C253.667 296 253 295.333 251 296ZM235 298L236 300C236.667 298 236.333 297.333 235 298ZM357 301C355 305 355.333 306.667 358 306L357 301ZM239 304V306L242 308L254 313H256C251.333 308.333 245.667 305.333 239 304ZM330 306L326 314L327 315L330 309V306ZM381 306L376 323L377 329L383 311C384.333 307 383.667 305.333 381 306ZM363 309L362 318H361C361.667 315.333 361 314.333 359 315L358 322L360 325L361 322L362 325L364 320C364.667 314.667 364.333 311 363 309ZM353 314L352 318H353V314ZM373 314L371 316V323L365 341L366 342L370 335L374 318C374.667 314.667 374.333 313.333 373 314ZM347 316L345 319L348 320C349.333 316.667 349 315.333 347 316ZM209 317L212 320H213L209 317ZM235 320L239 323L249 325V324C246.333 320.667 241.667 319.333 235 320ZM51 322L50 324L53 325L51 322ZM213 322V324C216.333 326.667 222 327.667 230 327H232C236.667 326.333 240.333 327 243 329H249C242.333 325 233.333 323.667 222 325L213 322ZM352 322L351 324H352V322ZM61 325L65 331C66.3333 330.333 66.6667 331 66 333C68 333.667 68.6667 333.333 68 332L61 325ZM201 326V328L217 334H220C214.667 330 208.333 327.333 201 326ZM56 327L57 329C57.6667 327 57.3333 326.333 56 327ZM365 327L357 341L358 343C361.333 340.333 363.667 336.333 365 331V327ZM58 329L82 353C83.3333 353.667 83.6667 353.333 83 352L58 329ZM220 329L221 331H228V329H220ZM173 330L177 334H180L173 330ZM40 332V336L48 347L54 351L40 332ZM159 332L162 336L166 337V335L159 332ZM337 333L336 337H337V333ZM176 335L178 339L171 336C168.333 335.333 167.333 336 168 338L171 339H173L183 343L184 341L211 358L213 362L216 361C216.667 356.333 216 353.333 214 352L210 349L209 346L198 339L196 340L205 344L209 350L208 351L213 356V357L190 341L176 335ZM202 335C203.333 338.333 206.333 341 211 343H212C210 339 206.667 336.333 202 335ZM223 336L225 338C228.333 337.333 231 338 233 340H238L234 337L223 336ZM329 336V341H331L332 338L329 336ZM146 337C146 339 145 339.667 143 339L144 343C146 345 149 346.333 153 347L159 354H160L146 337ZM346 337L340 355L341 357L347 348L349 339L346 337ZM170 341L169 343C174.333 348.333 180.667 352 188 354L187 357L188 360L198 368L201 369L200 372C192.667 370 187.333 366.333 184 361H182L185 367L193 373V376L187 373L173 359H171L176 368L172 366C170 365.333 169.333 366 170 368L177 372L180 371L182 375L181 377L182 379V380L179 376L172 374L158 362L164 370L165 374L176 380L177 382L172 379L169 380L162 375L156 367L152 364L141 349L139 350L150 368L154 369L158 374V376L169 384H171L172 382L177 384L179 383L183 384H187L186 383L185 381L189 382C193 382.667 196 381.667 198 379H202L205 376C206.333 376.667 206.667 376 206 374L204 375H202L209 367L211 372V365L213 363L212 360L208 357L207 360C195.667 352.667 183.333 346.333 170 341ZM317 341L316 345C317.333 347 318.333 347 319 345C319.667 341.667 319 340.333 317 341ZM63 342C66.3333 348 71.6667 352.667 79 356H80L69 345L63 342ZM284 342L279 348L280 349L285 343L284 342ZM162 343L168 350C169.333 350.667 169.667 350.333 169 349L162 343ZM276 343L275 345H276V343ZM337 343L334 344C334.667 348.667 333.667 352.333 331 355L325 359L324 362C324.667 364.667 324.333 365.667 323 365L321 368L316 374L321 372L338 349L337 343ZM226 346V347H228L226 346ZM285 346L282 351C280.667 351.667 281 352.333 283 353L285 350V346ZM59 349V351L71 362L70 359L59 349ZM352 349L347 356C346.333 357.333 347.333 357.667 350 357L352 354V349ZM220 350L219 353L220 355L223 351L220 350ZM315 350L310 356L311 358L315 352V350ZM52 351L51 354H52V351ZM175 351V354L180 357L179 354L175 351ZM152 352C151.333 356 153.333 359 158 361V358L152 352ZM257 352L256 354L258 353L257 352ZM321 352L320 355L321 357C320.333 358.333 321 358.667 323 358L324 356L323 354C323.667 352 323 351.333 321 352ZM113 355C113.667 357.667 116 359.667 120 361V359L113 355ZM227 355L224 359H227H229L232 358L227 355ZM241 359L236 366L242 361C242.667 359 242.333 358.333 241 359ZM62 360L61 363L66 366L62 360ZM315 360L314 365L308 372C307.333 373.333 308 373.667 310 373L318 365V362L315 360ZM98 363L96 365L104 372L115 380C114.333 381.333 115 381.667 117 381L118 382L117 380L118 377C110 373.667 103.333 369 98 363ZM138 364L142 372L157 382H160L158 379L153 375V377L138 364ZM332 366L329 369L330 371L332 370L333 368C333.667 366 333.333 365.333 332 366ZM63 367L62 369L80 386L87 390L85 388L86 387C84.6667 383.667 83.6667 383 83 385L75 379H77C78.3333 379.667 78.6667 379 78 377C71.3333 375.667 66.3333 372.333 63 367ZM132 370L134 373H135L132 370ZM225 371L223 374L227 373L225 371ZM95 372C97.6667 376.667 102.333 380.667 109 384H110L109 381L95 372ZM136 373L146 383L148 382L152 385V384L149 381H147L136 373ZM234 373L231 375C229 374.333 228.333 375 229 377L236 375L234 373ZM253 374C249 378.667 243.667 381.667 237 383L235 386C242.333 384.667 248.333 381.333 253 376V374ZM311 374L309 377L311 376V374ZM91 378L92 382L103 388C104.333 388.667 104.667 388 104 386L91 378ZM222 379L220 381H222V379ZM254 382C249.333 387.333 243 390.667 235 392C232.333 391.333 231.333 392 232 394H235L249 391L255 384C255.667 382 255.333 381.333 254 382ZM295 382L289 386L290 388L287 394C286.333 395.333 287 395.667 289 395L292 391L291 389L292 385L297 383L295 382ZM105 384L106 386L116 390H117C114.333 386 110.333 384 105 384ZM141 385L140 387L147 391H149L141 385ZM254 388L242 396L222 399L223 401L235 400L242 398L254 390V388ZM301 388C294.333 392 289.667 398 287 406L278 411L279 413C285 411.667 289.333 409 292 405L290 404L301 391V388ZM185 390V392L189 393H191L185 390ZM115 391V393L119 395H120L115 391ZM165 392V394H168L165 392ZM142 394V396L149 399C150.333 399.667 150.667 399.333 150 398C148.667 395.333 146 394 142 394ZM286 395L284 398L287 396L286 395ZM267 397C264.333 398.333 263.333 400.667 264 404L269 401C269.667 399 269 398.333 267 399V397ZM124 398L123 400L126 402L124 398ZM259 398L246 405C241.333 405 238.333 406 237 408L219 411V412L235 411L248 407L258 402L259 400V398ZM188 399V400L194 403H197L188 399ZM137 400L138 402L155 410L152 411C164.667 414.333 176 419 186 425C196.667 425 206 426.667 214 430L216 429L222 430H224L221 427L215 426L213 427L196 423L184 422L163 412L160 409L137 400ZM280 401L278 402H276L269 406L268 408H272L281 403C281.667 401 281.333 400.333 280 401ZM118 404L120 407L133 417L147 422H150L146 418C140 417.333 135.333 415.667 132 413L123 406L118 404ZM126 404L133 411L153 421H162L161 418L159 419L153 418L126 404ZM183 404L182 406L187 408V407L183 404ZM263 404L258 407C256 407.667 255.667 408.667 257 410L251 413L250 415C254.667 415.667 258 415 260 413L263 411L264 405L263 404ZM168 408L169 410L185 417L196 419C197.333 419.667 197.667 419 197 417L206 420C207.333 419.333 207.667 420 207 422L213 424L217 422L215 420L212 421V420L208 417L195 414L192 415L184 414L168 408ZM276 409L264 416L262 419C268.667 419 273.333 416.667 276 412V409ZM254 426V427H255L254 426ZM229 430L228 432H245L246 431L229 430Z" fill="#090909"/>
<path opacity="0.996078" d="M221.5 14H228.5C234.367 17.1333 241.367 19.1333 249.5 20L266 27.5L263.5 28C257.233 25.2667 249.9 23.6 241.5 23C235.367 19.1333 227.867 16.6333 219 15.5L221.5 14Z" fill="#090909"/>
<path opacity="0.996078" d="M218.5 21H228.5L242 26.5L235.5 27C231.233 24.9333 225.567 24.2667 218.5 25L212.5 26L213.5 24L218.5 21Z" fill="#090909"/>
<path opacity="0.996078" d="M198.5 30L206 31C206.866 33.2 205.7 33.8667 202.5 33L200.5 35L178 38C177.133 35.8 178.3 35.1333 181.5 36L198 32L198.5 30Z" fill="#090909"/>
<path opacity="0.996078" d="M207 40.0002C217.8 38.4002 225.8 39.9002 231 44.5002L229.5 46.0002H218.5L207 42.0002V40.0002Z" fill="#090909"/>
<path opacity="0.996078" d="M208.5 46L227 50L226 57.5L224.5 59L219.5 60L216 58C216.067 54.7333 214.9 52.4 212.5 51L207 47.5L208.5 46Z" fill="#090909"/>
<path opacity="0.996078" d="M240.5 48L256.5 49L270.5 55L269.5 53L264 50.5L266.5 50L280.5 54L296 64.5L297 67.5L295.5 67L280.5 63L269 57L270.5 60L288.5 70L294.5 71L298 74.5L296.5 74L288.5 75L269.5 67L271.5 70L290 80.5L286.5 81L266.5 72L268.5 75L291 86.5L283.5 87L281.5 86L280.5 87H272.5L270.5 86H268.5L262.5 85L252.5 80L235 65.5C233.2 63.3 232.533 59.9667 233 55.5L236.5 49L240.5 48ZM263 73C265 77.6667 269.667 80.6667 277 82H279L263 73Z" fill="#090909"/>
<path opacity="0.996078" d="M126.5 49L128 49.5L113 67.5L113.5 70C115.233 70.5333 115.733 69.7 115 67.5L121 62.5C120.533 61.0333 121.033 60.5333 122.5 61L124 60.5L117 68.5L106 88.5L93.5 102L89.5 104L90 102.5L93 96.5L105 83.5L106 80.5L101.5 84L87.5 97L84.5 98L93 88.5L99 78.5L96 80.5L92.5 86L93 84.5C93.7333 79.5667 95.9 76.0667 99.5 74L112 62.5L115.5 58L126.5 49Z" fill="#090909"/>
<path opacity="0.996078" d="M189.5 55L195.5 56L212.5 63L219 67.5L215.5 68C208.367 63.1333 200.033 59.4667 190.5 57L189.5 55Z" fill="#090909"/>
<path opacity="0.996078" d="M161.5 61H170.5L187.5 65L198 74.5V77.5C200.8 80.0333 202.467 83.7 203 88.5V95.5L199 106.5L185.5 123C178.9 128.4 171.233 132.733 162.5 136L151.5 139H137.5L127 131.5L121 120.5C122 116.833 121.667 114.5 120 113.5L122 104.5L136 79.5L147.5 68L161.5 61ZM177 76L167 87C165 86.3333 164.333 87 165 89L161 92L152 102C151.333 103.333 152 103.667 154 103L178 77L177 76ZM190 76L184 85C184.667 87 184.333 87.6667 183 87L173 100C173.667 101.333 173.333 101.667 172 101L164 110L165 111L183 92C184.333 91.3333 184.667 92.3333 184 95L180 98L176 104L179 102L180 103L188 96L189 98L192 91H193L192 99L181 115C177.667 119.667 173 123.333 167 126L163 131L174 125L194 102C193.333 99.3333 194 98.3333 196 99L198 94V88C199.333 86.6667 199.333 85.6667 198 85L196 90L195 89L192 87L191 90C191.667 91.3333 191 91.6667 189 91C188.333 87.6667 189 85.6667 191 85C191.667 82.3333 191 81.3333 189 82L190 80V76ZM180 80C175.333 83.3333 172 87.6667 170 93L159 105L167 99L176 88V86C176.667 84 177.667 83.6667 179 85L180 82V80ZM149 94V96L151 95L149 94ZM152 98L146 105C145.333 106.333 146 106.667 148 106L152 100V98ZM198 99L199 103L200 100L198 99ZM142 101L140 104L142 103V101ZM175 105L173 108L175 107V105ZM179 106L169 115L156 123V122V120L150 125L148 128L155 124L156 126L158 125H160L169 118L171 117L169 120L175 118L181 111L175 114L180 108C180.667 106 180.333 105.333 179 106ZM166 121V123L168 122L166 121ZM166 123C162 127.667 157 130.667 151 132L152 134C158 132.667 162.667 129.667 166 125V123ZM147 130L145 132C144.333 134 145.333 134.667 148 134C149.333 133.333 149.333 132.667 148 132C148.667 130 148.333 129.333 147 130ZM161 131V132H162L161 131Z" fill="#090909"/>
<path opacity="0.996078" d="M196.5 62L214 71.5V73.5L215 75.5L212.5 74C205.3 71.3333 199.967 67.3333 196.5 62Z" fill="#090909"/>
<path opacity="0.996078" d="M204.5 72L207.5 75L218.5 80L230 90.5L228.5 91L213.5 80L213 81.5L215.5 85L226 92.5L225.5 94H223.5L219.5 90L214 88L221 100L217 98.5L216 95C213 96.2 212 95.0333 213 91.5L208 81.5L210 78.5L204.5 72Z" fill="#090909"/>
<path opacity="0.996078" d="M246.5 102L254.5 104L266 114.5L269 119.5L267.5 120L254.5 110L262 118.5L264 121.5L262.5 122L259.5 120L261 122.5L265 129L260.5 128L247.5 115L241.5 113L243.5 116L245 116.5L244.5 118L247.5 120L249 122.5C247.2 123.7 247.7 124.867 250.5 126L260 131C260.733 132.8 260.233 133.467 258.5 133C250.033 129.8 242.867 125.3 237 119.5L235 112.5L236 109L239.5 107H242.5L246.5 108V107L240 104.5L246.5 102Z" fill="#090909"/>
<path opacity="0.996078" d="M90.5 106L92 106.5L75.5 124L72 125C71.3334 120.733 72.8334 118.067 76.5 117L90.5 106Z" fill="#090909"/>
<path opacity="0.996078" d="M91.5 111L92 113.5L86.5 120L83.5 122L82.5 121L80 122.5L91.5 111Z" fill="#090909"/>
<path opacity="0.996078" d="M211.5 112L216 113L218 123L211 121L212.5 124L219 128.5L218.5 130L208.5 124H205.5L206.5 126L215 131.5L213.5 134L204.5 131L202.5 134L212 138.5L205.5 139L195 132.5C194.467 130.767 195.3 130.267 197.5 131L200 130L201 125L198 126.5C198.533 128.233 197.7 128.733 195.5 128L190.5 131L199 121.5L203 115L211.5 112ZM201 132V133H202L201 132Z" fill="#090909"/>
<path opacity="0.996078" d="M98.5 113L100 113.5L90.5 125L81.5 132L75.5 134L77.5 131L98.5 113Z" fill="#090909"/>
<path opacity="0.996078" d="M106 121C107.8 120.267 108.467 120.767 108 122.5L98.5 134L85.5 144L75.5 148L76.5 146C88.5667 140.4 98.4 132.567 106 122.5V121Z" fill="#090909"/>
<path opacity="0.996078" d="M50.5 123C54.7 125.467 56.2 130.633 55 138.5L53 143.5H54L55.5 141L56 142.5C53.3333 148.5 49.5 153.333 44.5 157L30.5 166C26.0333 165.2 23.3667 166.2 22.5 169L22 164.5L30 146.5L50.5 123Z" fill="#090909"/>
<path opacity="0.996078" d="M96.5 125L98 125.5C94.6 130.1 90.1 133.6 84.5 136L90.5 129L96.5 125Z" fill="#090909"/>
<path opacity="0.996078" d="M103.5 133L105.5 134L107.5 133L105.5 136L88.5 149L82.5 151V150L103.5 133Z" fill="#090909"/>
<path opacity="0.996078" d="M236.5 136C243.967 135.867 249.133 138.033 252 142.5C255 145.5 256.333 150.167 256 156.5C255.067 158.233 253.067 158.9 250 158.5C252 159.367 252.667 161.2 252 164L238.5 170H231.5C226.167 168.333 222 165.5 219 161.5L217 153.5V146.5L227.5 139H230.5L236.5 136Z" fill="#090909"/>
<path opacity="0.996078" d="M104.5 139L107 139.5L102.5 146L98 149.5L95.5 154C92.7 153.533 91.0333 154.2 90.5 156H84.5V155L87.5 154L104.5 139Z" fill="#090909"/>
<path opacity="0.996078" d="M121.5 142L126.5 144L143 156.5C142.533 158.033 143.033 158.533 144.5 158V159L130.5 154L125 148.5L121.5 142Z" fill="#090909"/>
<path opacity="0.996078" d="M60 144L62 144.5C58.5333 152.033 53.7 158.2 47.5 163L31 173L23 185L21 184.5L22 180.5L28.5 173L52 155.5L60 144Z" fill="#090909"/>
<path opacity="0.996078" d="M263.5 145C265.7 144.267 266.533 144.767 266 146.5L277 156.5L278 162.5L279.5 164L288 170.5L286.5 170L273.5 163L266.5 162L265 160.5L264 148.5L262 146.5L263.5 145Z" fill="#090909"/>
<path opacity="0.996078" d="M120.5 147L126.5 154C128.033 153.533 128.533 154.033 128 155.5L131 162L125 157.5L122.5 153C121.033 153.533 120.533 153.033 121 151.5L119 148.5L120.5 147Z" fill="#090909"/>
<path opacity="0.996078" d="M195.5 154L198 155L205.5 167L216.5 173L212.5 168L208 166L204 159.5L205.5 159L211.5 167L233 178.5C233.533 180.033 233.033 180.533 231.5 180L226.5 177L228.5 180L231 181.5L230 183.5L230.5 185L214.5 177L214 179L229 186L230.5 189L237.5 191L252 200.5L250.5 201C245.833 196.667 239.833 193.667 232.5 192L227.5 188L215.5 185L205.5 178L208.5 182L211 183.5L212 185.5L210.5 186L201.5 182L204.5 186L210.5 189L240.5 198L245 201.5L243.5 202L225.5 195L211.5 192L195.5 182L195 183.5L208 193.5L206.5 193L193.5 186H188.5L190.5 189L213.5 199L228 209.5L226.5 209L215.5 206H206.5C203.5 202.133 199.333 199.8 194 199L195.5 202L205.5 208C211.967 208.867 217.133 211.033 221 214.5L219.5 215L202.5 207H199.5L201.5 210L209.5 215L220.5 218L225.5 221L240 223.5C239.333 225.167 237.5 225.667 234.5 225L227.5 222L209.5 218L206 215.5L204.5 213L187.5 205L183 200.5L182 197.5C185 195.833 184.667 194.167 181 192.5L180 189.5C180.867 187.7 181.7 187.533 182.5 189L207.5 202L208 200.5L186.5 188L178 186L180 182L154 167.5L155.5 167L180.5 179L186 175.5L183 173.5L187 172C187.867 169.8 186.7 169.133 183.5 170L184.5 168H189.5C192.3 172.2 196.3 175.2 201.5 177L202 175L195 169.5L194 159.5L191.5 157L188 155.5L191.5 155L198.5 165C200.033 165.533 200.533 165.033 200 163.5L195 155.5L195.5 154Z" fill="#090909"/>
<path opacity="0.996078" d="M77.5 158.001C82.2333 157.334 85.7333 157.834 88 159.501C87.2 161.367 85.0333 161.867 81.5 161.001C78.8333 160.667 77.5 159.667 77.5 158.001Z" fill="#090909"/>
<path opacity="0.996078" d="M121.5 158L130 170.5L126 167.5C123 164.833 121.5 161.667 121.5 158Z" fill="#090909"/>
<path opacity="0.996078" d="M155 161C161.6 161.867 167.267 164.033 172 167.5C171.533 169.033 170.033 169.533 167.5 169L155 163V161Z" fill="#090909"/>
<path opacity="0.996078" d="M115.5 162L117 166L121 167.5L135 190.5L138 204.5V212.5L135 210.5L134 202.5V200.5L129 183.5L115 164.5L115.5 162Z" fill="#090909"/>
<path opacity="0.996078" d="M265.5 163L281 170L282 174L297.5 180L302 184.5L300.5 185L282 176L280.5 173L271.5 169L264 167.5L265.5 163Z" fill="#090909"/>
<path opacity="0.996078" d="M109.5 167L116 172.5C121 177.833 124.667 184.5 127 192.5H126C126.467 190.767 125.8 190.267 124 191L123.5 197L121 191.5L122 186.5L114 172.5L109.5 167Z" fill="#090909"/>
<path opacity="0.996078" d="M263 170L271.5 172L278.5 178L290.5 183L295 186.5L294.5 188L269.5 177L263 171.5V170Z" fill="#090909"/>
<path opacity="0.996078" d="M69.5 171L86.5 172C94.1667 175 100.333 179.5 105 185.5C109.8 191.367 113.133 198.7 115 207.5V230.5C109.6 247.433 101.433 261.6 90.5 273C87.4333 274.933 83.1 275.6 77.5 275L75.5 274L73.5 275L71.5 273L63.5 271L58 266.5L53.5 261L51 259.5L40 240.5L36 222.5V213.5L38 202.5L54.5 180C58.5 176 63.5 173 69.5 171ZM84 185C82 185.667 81.3333 187.333 82 190L84 189V185ZM94 188L93 197H95C95.6667 193 95.3333 190 94 188ZM77 190V192L79 191L77 190ZM73 192L69 200L73 199C74.3333 198.333 74.3333 197.667 73 197L75 194C75.6667 192 75 191.333 73 192ZM89 194L87 196L85 207L81 216L80 222L73 237H72C72.6667 234.333 72 233.333 70 234L74 224H75L74 228H76L81 214V211L79 216L78 214L73 219L67 235L65 237L66 239L68 238L63 244L64 246L59 249V253H67L81 228L83 222H84L79 240L70 255L67 254L68 258L64 261C62 260.333 61.3333 261 62 263L70 260L82 244C81.3333 242 82 241.333 84 242L95 216V210C92.3333 212.667 91 216.667 91 222L85 234L83 235L85 224L90 212V210L85 220H84L89 200V194ZM99 195L98 198L95 197L96 202C95.3333 203.333 96 203.667 98 203L100 205C100.667 200.333 100.333 197 99 195ZM79 198L77 207L75 208L79 210L81 201C81.6667 198.333 81 197.333 79 198ZM107 199L105 204H107L108 202L107 199ZM71 203L67 206L68 209L62 219L63 222L57 234L58 235C61.3333 232.333 63.6667 228.667 65 224L68 212L71 207V203ZM104 204L100 215V224L102 226L97 238L96 244L87 260C86.3333 261.333 87 261.667 89 261L99 245L103 234L104 238L109 225V215L108 213L107 221L104 230H103L104 226L103 222L105 216V206L104 204ZM62 211L55 223L56 225L62 214V211ZM96 212L94 228L91 234V237L84 248L83 245C81 245.667 80.3333 247.667 81 251L76 259L68 265L74 266L78 260L83 256L82 261L79 263L77 266L75 269L80 267L85 260L86 255L92 244L95 234V227L98 219C99.3333 213.667 98.6667 211.333 96 212ZM109 229C107.667 238.333 104.333 246.667 99 254H101L108 242C107.333 236.667 108.333 233 111 231C111.667 229 111 228.333 109 229ZM63 235L57 242C55.6667 245.333 56.3333 246.667 59 246L63 238V235ZM103 238L102 240H103V238ZM67 269V270H68L67 269Z" fill="#090909"/>
<path opacity="0.996078" d="M260.5 172C265.3 177.533 271.467 181.7 279 184.5L277.5 185C274.7 183.2 270.7 182.533 265.5 183L255 178L256.5 175L259.5 173L260.5 172Z" fill="#090909"/>
<path opacity="0.996078" d="M134 173C135.8 172.267 136.467 172.767 136 174.5L144 196.5V200.5L142 199.5L134 173Z" fill="#090909"/>
<path opacity="0.996078" d="M237.5 178L250.5 183L251 181.5L247 178.5L249.5 178L262.5 184L268 189.5L266.5 189H262.5L250 184L252 187.5V191.5L257 196.5L254.5 197C247.833 195 242.333 191.833 238 187.5L239.5 188C241.033 188.533 241.533 188.033 241 186.5L245 185C245.733 183.2 245.233 182.533 243.5 183L234 180.5L237.5 178Z" fill="#090909"/>
<path opacity="0.996078" d="M29.4999 182C31.0332 181.533 31.5332 182.033 30.9999 183.5V185.5L24.4999 196C22.7665 196.533 22.2665 195.7 22.9999 193.5L29.4999 182Z" fill="#090909"/>
<path opacity="0.996078" d="M149.5 188.001C152.7 187.534 154.533 188.367 155 190.501L166 208.501L165.5 210.001C167.033 209.534 167.533 210.034 167 211.501L172 216.501V219.001L162.5 214.001L162 216.501C167.333 224.167 174.833 229.667 184.5 233.001L185 231.501L181.5 227.001H183.5L191 233.501L189.5 236.001L169 227.001L165.5 222.001L156 215.001L160 224.501L155.5 221.001C154.033 221.534 153.533 221.034 154 219.501L152 211.501L154 202.001L158 204.501L162.5 211.001L163 209.501L157 197.501L150 190.501L149.5 188.001Z" fill="#090909"/>
<path opacity="0.996078" d="M161 193L167 197.5C168.4 203.433 171.233 207.933 175.5 211L183.5 218H188.5L194.5 221L198.5 220L202 222.5L201.5 225L196 223L197.5 226L218 238.5L214.5 239L208 236L203.5 230H197.5L193 228L193.5 226L195 226.5L191.5 222L182.5 221L169 208.5L161 193Z" fill="#090909"/>
<path opacity="0.996078" d="M168.5 193C174.033 192.2 177.2 193.7 178 197.5L184.5 205L207 220.5L203.5 221L185.5 214L176 206.5L172 197.5L168.5 193ZM186 209L189 212H190L186 209Z" fill="#090909"/>
<path opacity="0.996078" d="M127.5 194C129.233 193.467 129.733 194.3 129 196.5L131 200.5L132 210.5L131 215H133C132.133 212.267 132.8 211.267 135 212V215.5L131 221L126.5 223L127 221.5L129 208.5V199.5L127.5 194Z" fill="#090909"/>
<path opacity="0.996078" d="M29 199C32 198 33 199 32 202C30.2 201.267 29.5333 201.767 30 203.5L29 204.5V212.5L30 215.5L29 216.5V224.5L31 234.5V255.5C32.8667 257.3 33.5333 260.3 33 264.5L37.5 272L40 273.5L46 287.5L42 284.5L38 279.5C37.6 274.9 36.1 271.4 33.5 269L32 269.5L30 262.5L31 258.5L27 249.5L26 220.5L27 219.5V207.5L29 199Z" fill="#090909"/>
<path opacity="0.996078" d="M123.5 204L125 211.5L122.5 218L122 215.5L123 214.5L123.5 204Z" fill="#090909"/>
<path opacity="0.996078" d="M146.5 215L147.5 218L149.5 215C151.367 220.467 154.367 224.8 158.5 228L162 230.5L159.5 231L148 222L149 227C151.533 226 152.533 226.5 152 228.5L157.5 235H154C154.867 237 154.033 237.667 151.5 237C145.833 233 144.167 225.667 146.5 215Z" fill="#090909"/>
<path opacity="0.996078" d="M215.5 223L228 227.5L224.5 228L215.5 224V223Z" fill="#090909"/>
<path opacity="0.996078" d="M132.5 225L133 229.5L125 255.5L120 265.5L121 267.5C119.267 268.433 118.6 270.433 119 273.5L121 272.5L123 265.5L129 257.5C129.667 251.833 131.5 247.333 134.5 244L134 245.5L130 264.5L119 277.5L116 286L107.5 287L108 285.5C107.533 284.033 108.033 283.533 109.5 284L116 280.5L114 279.5L118.5 274H116.5L108.5 280L109.5 277L108 276.5L120 261.5L129 236.5L130 228.5L132.5 225Z" fill="#090909"/>
<path opacity="0.996078" d="M205.5 225L227 234L226.5 236C218.1 234.067 210.933 230.9 205 226.5L205.5 225Z" fill="#090909"/>
<path opacity="0.996078" d="M141.5 231L144 237C141.533 236 140.533 236.5 141 238.5L138 255.5L132 270.5L131 279.5L134 278.5L133 281.5L133.5 283L131.5 282L126 289.5L131.5 285C134.033 284.333 134.867 285 134 287L131 288.5L126 296.5L127 300L124.5 301C121.633 299.867 121.133 298.7 123 297.5L125 291.5L121 294.5L120.5 296L118 294.5L121 294L122 287.5L131 273.5L133 255.5L139 233C140.867 233.667 141.7 233 141.5 231Z" fill="#090909"/>
<path opacity="0.996078" d="M194.5 232L215 245.5L213.5 245C210.1 244.8 207.767 243.467 206.5 241H202.5L194.5 232Z" fill="#090909"/>
<path opacity="0.996078" d="M171.5 239L183.5 242L187 245.5L188 253.5L187 256C185 255.2 184.333 256.033 185 258.5L190 263.5V265.5L188 264.5C188.533 262.767 187.7 262.267 185.5 263L181.5 261L181 262.5L188 268.5L185.5 270L179.5 269L176.5 267C174.166 268.333 174.5 269.667 177.5 271L182 273.5L177.5 274L172.5 272L161.5 271L153.5 265L153 266.5C156.333 271.7 161.666 274.533 169 275C169.866 277.467 168.366 278.133 164.5 277L153 270.5C150.333 268.167 149.333 264.167 150 258.5C151.6 252.433 154.766 247.933 159.5 245C162.7 245.533 164.533 244.7 165 242.5L166.5 240L171.5 239ZM158 249L153 257H155L158 251V249ZM168 256L169 264L172 265C172.666 261.667 172 259.333 170 258C170.666 256 170 255.333 168 256ZM158 261L157 264L163 268C165 268.667 165.666 268 165 266L158 261Z" fill="#090909"/>
<path opacity="0.996078" d="M188.5 242L210 258C210.733 259.8 210.233 260.467 208.5 260L195.5 250L195 251.5L196.5 254L193 253L194 250.5L188.5 242Z" fill="#090909"/>
<path opacity="0.996078" d="M198.5 242L214 252.5L211.5 253C205.433 250.467 201.1 246.8 198.5 242Z" fill="#090909"/>
<path opacity="0.996078" d="M34.5 243L41 259.5V262.5L48 273.5L51 285.5L69.5 306L85.5 317H87.5L83.5 312C76.0333 308.8 69.8667 304.3 65 298.5L65.5 296L68.5 297L65.5 293L60 289.5C55.6667 283.967 52.6667 277.467 51 270L55 272.5L57 275.5L59 284.5L66.5 293L77.5 302L78 300.5L63 284.5L61 280.5L64.5 283L77.5 291L91.5 304L95.5 305L102.5 312L112 317.5C112.4 319.367 110.567 319.867 106.5 319L98.5 315L84.5 302L83 305.5L87.5 309L85.5 305L95.5 316L99 318.5C98.5333 320.033 99.0333 320.533 100.5 320C103.5 323.667 107.667 326.167 113 327.5L107.5 328L103.5 326L103 327.5L106.5 330C110.1 329.4 112.6 329.9 114 331.5L107.5 332C96.7667 328.133 87.1 323.133 78.5 317L81.5 321C89.6333 328.533 99.4667 334.367 111 338.5L109.5 339L94.5 335L80.5 326L56 306.5L39 287.5L37 281.5H38C38.8667 285.367 40.7 288.2 43.5 290H46.5L66.5 310L76.5 316L73.5 312C68.0333 309.8 63.8667 306.3 61 301.5L59 297.5L47 285.5L43 276.5V274.5L41 268.5L35 260.5L34.5 243Z" fill="#090909"/>
<path opacity="0.996078" d="M143 245C144.8 244.267 145.467 244.767 145 246.5L146 249.5C143.533 253.367 142.2 258.367 142 264.5L149.5 276L160 284.5L157.5 283C154.1 283.4 151.933 282.567 151 280.5C149.8 275.633 147.133 272.3 143 270.5L140 260.5L143 245Z" fill="#090909"/>
<path opacity="0.996078" d="M117.5 253L118 256.5C116.6 262.433 113.767 266.933 109.5 270L108 269.5L117.5 253Z" fill="#090909"/>
<path opacity="0.996078" d="M196.5 256L206 264.5C207 267.433 206.5 268.6 204.5 268L197 258.5L196.5 256Z" fill="#090909"/>
<path opacity="0.996078" d="M28.5 269L31 275.5L30 280C32.2 279.133 32.8667 280.3 32 283.5L33 284.5V292.5L32 296L35 297.5C35.2667 300.967 36.6 303.3 39 304.5L37.5 305L32 301.5L28 295.5L27 279.5L28 278.5L28.5 269Z" fill="#090909"/>
<path opacity="0.996078" d="M99.5 282L104 282.5L100 285.5C103 288.167 107.167 289.667 112.5 290L115.5 288L116 290C117.8 289.267 118.467 289.767 118 291.5L116.5 293L108.5 294L100.5 291L101.5 293C105.7 296.133 111.367 297.8 118.5 298L120 297.5L119 302H107.5L96.5 296L96 297.5L108.5 306L114.5 307L116 308.5L114.5 312C109.433 312.4 105.767 311.4 103.5 309L81 293L78.5 289L73 285.5L74.5 286L80 287L79 284.5L81.5 284L86.5 286L88.5 285L92 286C91.2 284 92.0333 283.333 94.5 284L99.5 282ZM89 289V292L93 294H94L92 291L89 289Z" fill="#090909"/>
<path opacity="0.996078" d="M38.5 290L44 301L41 299.5L38 293.5L38.5 290Z" fill="#090909"/>
<path opacity="0.996078" d="M175.5 292L183 298.5L186.5 303L191 306.5L192 308.5L189.5 309L179 302.5L175 294.5L175.5 292Z" fill="#090909"/>
<path opacity="0.996078" d="M170.5 295L175 298.5L179 306L186 310.5L182.5 312L175.5 309H171.5L169 306.5L166 299L169.5 301L170.5 295ZM174 304C172.667 306 173 306.667 175 306L174 304Z" fill="#090909"/>
<path opacity="0.996078" d="M277.5 183L276.5 185L274 184.5L277.5 183Z" fill="#636363"/>
<path opacity="0.996078" d="M97.5 153L100 154.5L98.5 155L97.5 153Z" fill="#939393"/>
<path opacity="0.996078" d="M161.5 209L163 209.5L161.5 210V209Z" fill="#939393"/>
</svg>
