<svg width="404" height="426" viewBox="0 0 404 426" fill="none" xmlns="http://www.w3.org/2000/svg">
<path opacity="0.996078" d="M192.5 0L204.5 1L224.5 7L242.5 10C250.433 15.0667 259.433 19.0667 269.5 22C277.033 24.4667 285.7 25.8 295.5 26L306.5 29C320.033 34.4667 330.867 42.6333 339 53.5L347 63.5L357 84.5L366 115.5L381 142.5L388 166.5L400 187.5L404 205.5L403 206.5V216.5L397 234.5V262.5L396 263.5L395 281.5C391 294.167 384.5 304.333 375.5 312L353 329.5L332 363.5L319.5 378L301.5 389C292.5 390.667 284.5 393.333 277.5 397L256.5 418L247.5 423L236.5 426H209.5L190.5 421H179.5L166.5 423H148.5C137.233 421.267 127.233 418.267 118.5 414L104 400.5L93.5 389C84.0333 381.133 73.0333 374.8 60.5 370L51 361.5L21 308.5L10 293.5L8 287.5V268.5C10.1333 263.3 10.8 256.633 10 248.5L1 217.5L0 193.5L2 182.5L9 163.5L29 129.5L43 98.5C48.1333 90.3 54.3 83.1333 61.5 77L82.5 64L96 51.5C100 44.1667 105.167 38 111.5 33L138.5 19C152.967 15.8 165.633 10.8 176.5 4L192.5 0ZM190 11C163.333 19.6667 139 30.3333 117 43L101 60L91 70L58 93L54 101L57 100L58 101L49 112L50 113L72 94L74 95L67 104L64 111L57 117L54 119L63 108C64.3333 108.667 64.6667 108 64 106L58 109L41 128C41.6667 130.667 40.6667 132.333 38 133L37 139L23 158L17 170L10 192L11 210L18 230C18 237.333 19 244 21 250L20 267L19 268L20 285L24 292L29 294L34 307L42 317L50 322L52 324L51 321L49 319L40 310C39.3333 308 40 307.333 42 308C42.6667 310 43.6667 310.333 45 309C52.3333 315.667 58.3333 323.667 63 333L72 340C72.6667 338 72 337.333 70 338L45 306L34 275L35 272L42 286C46 290.667 51.3333 294.333 58 297L67 298C67.6667 296.667 68.6667 297 70 299C75.3333 299.667 78.6667 298.667 80 296L79 294L80 292H82L85 283L83 269L80 261L81 257L86 271L88 296L99 310V312C102.333 315.333 106.667 317.667 112 319C116.667 319.667 120.333 319.333 123 318C122.333 316 121.667 315.667 121 317L113 316L101 308C95 305.333 91.3333 300.667 90 294L92 290L102 306C104.667 310 108.667 312.667 114 314L123 312L140 300L153 295L142 294L139 293L146 291L162 294L183 309L190 312C193.333 311.333 195.667 311.667 197 313C199 313.667 199.667 313 199 311C189 309.667 181.333 306 176 300L171 294L175 295L188 305C194.667 304.333 200 305.333 204 308C206.667 308.667 207.333 307.667 206 305L212 307H216L214 304C213.333 300 214.333 297.333 217 296L220 304L231 312L240 308L246 311C248.667 312.333 250.333 315 251 319L253 316L252 313L254 298L256 305H257L254 293V285L252 277L251 283L248 279C248.667 277 248 276.333 246 277C248 279.667 249 283.667 249 289L252 293C252.667 294.333 251.667 294.667 249 294C249.667 290 248.667 287 246 285L243 283L247 293C247.667 294.333 247.333 294.667 246 294L238 284L236 283L241 294L248 303V304L242 300L241 302L243 304C239 304 236.667 303 236 301L232 302L237 305C238.333 304.333 238.667 305 238 307L237 306L236 308H233L224 304L220 300C219.333 294 220 289.667 222 287H223L222 293L225 294L231 301H232L225 291L226 284L224 285L222 284L226 274C225.333 264 222 257.333 216 254L217 250L219 254L224 256L228 263L227 268L228 271L227 276V284L231 291C230.333 292.333 231 292.667 233 292C231.667 289.333 231.333 285 232 279H234L233 264L232 263L233 260L235 261C235.667 259.667 236.667 260 238 262L239 260L236 249C234.667 245.667 235.333 244.333 238 245L244 255H245L242 248L243 242H247C246.333 244.667 247 245.667 249 245L247 234C246.333 232 247 231.333 249 232L250 236H251L249 229C247.667 224.333 248.333 222.333 251 223L252 229L255 230L256 233L261 236L263 235C262.333 229.667 263 227.333 265 228L266 224L264 217L265 212L269 219V226H271L270 223L271 221L274 219C272.667 217 272.333 213.667 273 209L267 194L262 191L258 181C258.667 177.667 257.667 176.667 255 178L253 173V171L258 175C256.667 177.667 257.333 178.667 260 178L270 193L274 202L273 204L274 209L276 211C275.333 215 276 216.667 278 216L280 211L273 192L269 186L265 168L267 165L265 160L266 158L271 167L273 166L274 164L276 160L274 158C274.667 156 274 155.333 272 156L270 148C263.333 141.333 258.333 133.667 255 125L256 123L273 148L278 149L277 151C276.333 152.333 277 152.667 279 152L282 146L279 141H281L284 143C286 141.667 285.333 140.333 282 139C282.667 137 283.667 136.667 285 138L289 137L286 133C283.333 131.667 283.333 130.333 286 129L290 130C291.333 130.667 291.667 130 291 128H293C299.667 128.667 304.667 128.333 308 127C308.667 125 308 124.333 306 125L307 122L310 120L312 117L315 115H317L315 107H316C315.333 108.333 316 108.667 318 108L319 109L317 102V100L316 96L313 93L309 87L318 94L317 85C312.333 82.3333 309.667 78.3333 309 73L305 68L292 62L291 60L305 65L309 68L313 72L312 68L316 69H318L317 67L318 65H323L321 60L288 44C284 42 279 41.3333 273 42L259 36L245 32H230L213 29H193L200 28L202 26L208 25H220L227 27L242 28L268 38L284 39L285 40H288L285 38V37L296 38L302 41H306L296 36L279 35L262 29L259 30L269 34V35L257 32L242 26L227 23H214L205 20C198.333 20.6667 193.333 20.3333 190 19L193 17H200L222 21H231L245 25H247L237 20L215 14H210L202 11H190ZM289 40V41C291 40.3333 291.667 41 291 43L311 49L321 55L319 51C317 47.6667 313.333 46.3333 308 47V46C303.333 42 297 40 289 40ZM312 44L314 46H315L312 44ZM322 55V56H323L322 55ZM329 63V64H330L329 63ZM322 70L321 72L339 80L344 86H345L344 83L338 76L322 70ZM329 81C329.667 83.6667 332.333 86 337 88L341 93C342.333 92.3333 342.667 93 342 95C345.333 96.3333 346.667 96 346 94C341.333 88 335.667 83.6667 329 81ZM335 99V101L338 102L342 108L349 114L344 105C342 101 339 99 335 99ZM332 109L331 111L349 130V132L354 137L356 136L360 143L362 144L360 138L352 128L332 109ZM326 121L325 123L327 125L325 124L324 126L328 127L335 136L339 139L332 127H334L326 121ZM340 127C340.667 129 340 129.667 338 129L339 133L345 134L347 140L351 142L356 154H354C352.667 148.667 349.667 144.667 345 142L344 144L346 146L343 144L342 146L348 150L361 164L364 171L361 169L359 167L355 163L335 142L324 132L355 169L359 177C358.333 178.333 359 178.667 361 178V180L350 172L341 162L337 154L334 152V155L341 165C341.667 166.333 341.333 166.667 340 166L328 153L326 154L331 160L343 171L346 172L354 182L355 187L359 188L360 186V188L364 190L365 187L364 184H366V181L364 182L362 175H364L367 177V169L363 156L356 145L349 138L348 134L340 127ZM292 130L289 131C288.333 133 289.333 133.667 292 133C294 132.333 294 131.333 292 130ZM315 137L321 145C322.333 145.667 322.667 145.333 322 144L315 137ZM340 139L339 141H340V139ZM341 141L340 143L342 144L341 141ZM307 145L309 148C310.333 148.667 310.667 148.333 310 147L307 145ZM317 145L324 152H325L319 145H317ZM306 148L314 157H318L306 148ZM276 152L277 159L279 160C279.667 156.667 279 154.667 277 154C277.667 152 277.333 151.333 276 152ZM313 157L311 160L315 161L322 171V173H320V177L326 188L331 190C331.667 188 331.333 187.333 330 188L325 182V179L324 176L337 186H339L340 189L343 190L344 192L339 189L337 190L338 192L343 195L347 193C349 193.667 349.667 193.333 349 192C347.667 190.667 348 189.667 350 189L354 191C355.333 191.667 355.667 191.333 355 190L352 187L353 186L350 183C348 182.333 347.333 183.333 348 186L346 185C346.667 183 346.333 182.333 345 183L340 175C334.667 173.667 330.667 171 328 167L326 168L328 171L333 175H335L336 177C334 176.333 333.333 177 334 179L338 181L341 180L342 184L340 183L338 184L323 173L322 168L313 157ZM319 157C321 161 324.667 164.333 330 167H331L330 165C328 160.333 324.333 157.667 319 157ZM308 164L307 166L310 167L308 164ZM275 165V166H276L275 165ZM278 165L277 167L279 166L278 165ZM304 171L305 173C305.667 171 305.333 170.333 304 171ZM296 175V179L304 186L307 185L306 183L296 175ZM303 188C301.667 190.667 302.333 192.667 305 194V196L303 195L300 192L297 190L300 197L311 203L309 198L310 194L303 188ZM378 188L380 195L385 199H386L378 188ZM316 192L317 197L313 199L317 200L318 203L324 208H326L332 219C331.333 220.333 332 220.667 334 220L329 208L316 192ZM334 192L333 194L336 195L334 192ZM378 199L377 201L387 224C386.333 225.333 387 225.667 389 225L387 216L378 199ZM315 203V206L321 214C320.333 216 321.333 216.333 324 215L332 231V234L319 218C319.667 216 318.667 215.333 316 216L317 219L316 222L319 223C323.667 227.667 327.333 234 330 242L335 246L334 243L336 240L333 226C329.667 217.333 325 210.333 319 205L315 203ZM367 204L366 206H367V204ZM389 205L391 215H392C392.667 209.667 391.667 206.333 389 205ZM368 206L367 211H368V206ZM360 208L359 210H360V208ZM365 213L364 216L367 222H368C368.667 217.333 367.667 214.333 365 213ZM356 215L354 218L362 229C362 231.667 364 232.667 368 232L369 233L368 230C366.667 226.667 365.667 226 365 228C361.667 225.333 359.667 222 359 218H358L356 215ZM379 219L378 222L381 228H383L379 219ZM313 222L312 225L320 237L325 247L327 246L329 247L330 245L328 240L323 235L313 222ZM307 228L309 235C308.333 236.333 309 236.667 311 236L316 244L319 253L321 255C320.333 256.333 321 256.667 323 256C321 246 317 238 311 232L307 228ZM370 233L369 235H370V233ZM293 236C291.667 239.333 292.333 240.667 295 240C296.333 236.667 295.667 235.333 293 236ZM369 236L367 239L369 243C368.333 245 369 245.667 371 245H373V242L369 236ZM306 239L304 241L308 248L311 250L308 242L306 239ZM378 239L377 243L379 244C379.667 241.333 379.333 239.667 378 239ZM358 241L362 254L364 255L362 246L360 243C360.667 241 360 240.333 358 241ZM303 245V249L307 252L303 245ZM369 245L368 249L371 259L370 261L372 267L374 268V260L369 245ZM269 246L271 252L275 254L274 246L273 249L271 248C271.667 246 271 245.333 269 246ZM338 249L337 252L341 259C340.333 264.333 341 268.667 343 272V274C340.333 267.333 337 261.667 333 257L331 258L340 273L343 281H340C340.667 277.667 340 275.667 338 275C338.667 273 338 272.333 336 273V276L331 269L328 267L336 284L337 293L340 285C339.333 283 340 282.333 342 283L340 289L341 292L345 283V275L346 272L349 277L351 272C350.333 268.667 351 267.333 353 268C353.667 264 353 261.333 351 260L349 265L350 267V269L349 268L346 266L345 270L343 268L345 264C344.333 257.333 342 252.333 338 249ZM314 251L315 254C314.333 255.333 315 255.667 317 255L316 253C316.667 251 316 250.333 314 251ZM380 253L379 260C381 260.667 380.667 261.667 378 263C377.333 266.333 378 268.667 380 270L382 266C382.667 260 382 255.667 380 253ZM283 256L284 260L293 265V260H290L283 256ZM357 256L358 259C357.333 260.333 358 260.667 360 260L362 263L363 269V279H365V264L364 261L357 256ZM295 258L294 261L297 262L295 258ZM314 259L313 261H314V259ZM281 263L282 265C282.667 263 282.333 262.333 281 263ZM315 263C314.333 267.667 315.333 271 318 273L319 271L329 288V295V297C328.333 298.333 329 298.667 331 298L334 292L333 289C333.667 285.667 333.333 284.333 332 285L323 273L319 269L315 263ZM243 264L247 274L250 275L248 265L247 268L245 266C245.667 264 245 263.333 243 264ZM358 266L356 268L357 273L356 277L358 279L359 275L358 266ZM370 269L369 277L367 280L368 282C366.667 284.667 367.333 285.667 370 285L373 276V269H370ZM312 270L311 273L314 281L317 282L324 297C324.667 298.333 324 298.667 322 298L324 303L328 298L322 285L312 270ZM307 273L306 279L308 280L307 273ZM284 278L282 281L283 284L285 285L284 278ZM362 278L359 281C358.333 290.333 355.667 298 351 304L352 305L354 304L357 296L362 290C360.667 285.333 361 282.667 363 282L362 278ZM309 280L308 282H309V280ZM377 281L373 286L375 290L377 284V281ZM310 282L309 287L312 290L316 300V308L315 309C314.333 311 315 311.667 317 311L320 304V300C317.333 296.667 315.667 292.333 315 287L310 282ZM293 286L290 289L291 291L294 292L305 311V317L294 301L292 293L289 295L302 321L306 319L307 317L308 320L309 317L312 315L314 304L312 302L308 298L306 297L309 303L308 306L309 310L310 311L305 307C302.333 298.333 298.333 291.333 293 286ZM368 288L365 298L361 305L362 307L367 300L369 292L368 288ZM281 290L280 293L284 299L283 301V305L289 315L288 314L285 315L281 313L283 318L284 319L280 314L278 313V315C275.333 313.667 274.333 314.333 275 317L282 322C281.333 323.333 282 323.667 284 323H286L291 321C292.333 323.667 295.333 324.667 300 324C300 319.333 298.333 316 295 314L291 312L289 307L286 305V298L281 290ZM231 293L232 297L237 301L234 295L231 293ZM275 295C275 299 276.333 302.667 279 306C278.333 307.333 279 307.667 281 307L283 309L278 297C278.667 295 277.667 294.333 275 295ZM51 297V301L65 320L89 338C90.3333 338.667 90.6667 338.333 90 337L76 325L51 297ZM29 302L28 304L30 305L29 302ZM31 305L30 307L32 308L31 305ZM86 307L85 309L92 315C93.3333 315.667 93.6667 315.333 93 314L86 307ZM98 311L97 313L99 314L98 311ZM222 311V313L229 317H232L222 311ZM72 312L71 314L75 319L83 325L77 317L72 312ZM81 313L80 315L84 317L81 313ZM336 313L326 328L327 329L336 316V313ZM94 319V321C97.3333 325 102 328 108 330L110 334L120 339C122 339.667 123.333 339.333 124 338C122 334.667 118.333 333 113 333L98 321L94 319ZM188 319L186 321L188 326L197 333H198L196 329L194 327L188 319ZM342 319L339 323L340 324L342 321V319ZM178 326L177 328L180 330L192 334L200 344L201 340L198 335L190 330C184.667 330 180.667 328.667 178 326ZM51 327L53 333H54L53 329L51 327ZM296 329L290 339H293L299 334C298.333 332 299 331.333 301 332V330L298 332L296 329ZM311 332L309 334C308.333 335.333 309 335.667 311 335V332ZM55 333L54 337L66 347L73 356C79 363.333 86.3333 369.333 95 374V372L84 364C80.6667 362.667 78.6667 360 78 356L58 338L55 333ZM221 333C221 337 223 338.667 227 338L228 336V333H221ZM240 333L237 334L235 337L241 335C241.667 333 241.333 332.333 240 333ZM337 333C333 335 330.667 338.667 330 344L331 346L337 335V333ZM77 336L87 347C88.3333 346.333 88.6667 347 88 349L95 355L111 365L112 368L114 370C112 368 109 367.333 105 368L95 362L93 363C97 368.333 103.333 371.667 112 373L114 372C115.333 372.667 115.667 372 115 370L121 367L122 363H124L123 361L112 353L109 351V353L99 347L98 349C102.667 353 109 356 117 358L121 364L118 365L101 357L88 344H86L77 336ZM102 336L104 339L119 348C119.667 349.333 119 349.667 117 349L118 352L116 353L125 359H126L124 355L121 353L120 351L127 348L107 337L102 336ZM186 337L185 339L202 351C203.333 351.667 203.667 351.333 203 350L191 338L186 337ZM290 339L286 346C284.667 346.667 285 347.333 287 348L290 342V339ZM202 340L203 342C203.667 340 203.333 339.333 202 340ZM264 340V342L268 344C267.333 348 265.333 351 262 353L263 354L268 351L270 347L269 341L264 340ZM205 341V343L209 346L208 343L205 341ZM222 341V343H227V341H222ZM75 342L85 353L84 349L75 342ZM176 342V345L188 353L193 361C194.333 361.667 194.333 362.333 193 363C183 359 175.333 353.333 170 346L169 349L180 358L185 365L189 369L176 362L164 352L162 353L163 355L177 367L181 372L180 373L170 368L165 363L159 357L158 359L157 358L156 360L160 362L162 366L173 375L178 378H182L183 376C185 372.667 189 371.667 195 373L204 357L203 355L186 342L185 344L193 349L200 357V359L197 358L176 342ZM246 342L242 345C236.667 344.333 232.667 345 230 347C228 346.333 227.333 347 228 349H237L248 343L246 342ZM56 344V348L66 358L67 356L64 353L56 344ZM304 348L302 350L303 352L299 359L300 357C300.667 355 300 354.333 298 355L296 359V362L284 374L278 375L275 379L277 383L283 379L300 362L304 357L307 349L304 348ZM154 349L153 351L156 352C157.333 352.667 157.667 352 157 350L154 349ZM115 350C113.667 352 114 352.667 116 352L115 350ZM284 351L278 360L279 362L273 370L260 379C258 380.333 258 381.333 260 382L262 381C264 381.667 264.667 381.333 264 380L269 376L281 363L285 353C285.667 351 285.333 350.333 284 351ZM248 352L244 354H238L231 356C228.333 355.333 227.333 356 228 358L243 357H245L248 356L250 353L248 352ZM275 353L274 356L269 359C267 358.333 266.333 359.333 267 362L272 361L276 357L277 358H278L275 356V353ZM312 356L303 367L292 375L290 378L298 376C304 372 308.667 366.667 312 360V356ZM290 357L283 367L282 369L285 368L291 360L290 357ZM221 358V360H226V358H221ZM219 361L218 363H219V361ZM265 362C265 364 264.333 364.667 263 364L261 367L265 365V362ZM156 366V371L164 378L175 382H180L161 371L158 368L156 366ZM232 370L231 371H220L221 373H240L242 372L241 370H232ZM144 371L143 373L155 382H156L144 371ZM153 371L154 373C154.667 371 154.333 370.333 153 371ZM214 371V373H217L214 371ZM156 374C154.667 376 155 376.667 157 376L156 374ZM143 377L142 379C145.333 383.667 151 386.667 159 388V386L143 377ZM104 379L112 387H113L104 379ZM246 382L237 385C231 384.333 226.667 384.667 224 386V389L214 386L211 387L215 389L226 392H228C227.333 390 228 389.333 230 390L228 388C236 388.667 242 387.333 246 384V382ZM104 383L103 385L107 390L127 406C129.667 405.333 131.667 406 133 408C135.667 408.667 136.667 408 136 406L120 398L104 383ZM163 383L164 387C163.333 388.333 164.333 388.667 167 388V386L171 388C173 388.667 173.667 388 173 386L163 383ZM193 384L197 388C198.333 388.667 198.667 388 198 386L193 384ZM135 388L133 390L144 395V393L135 388ZM122 389L127 395L140 402L142 401L127 390L122 389ZM158 392V394L162 395H166L162 392H158ZM226 394L227 398L238 396C239.333 396.667 239.667 396 239 394L237 395L236 394H226ZM208 395L210 398L220 401H229L230 400C226.667 398 222.333 397.333 217 398L208 395ZM194 397L195 399L206 403H209L206 400L194 397ZM161 400C163.667 404 169.667 406 179 406H181C183 406.667 183.667 406 183 404L176 402L173 403L161 400ZM238 401L233 403V404C236.333 404.667 238.667 404 240 402L238 401ZM142 402L145 406L156 411H157L142 402ZM187 402V403C191.667 403.667 195.333 405.333 198 408H199L192 402H187ZM250 403L246 405L245 407C247.667 407 249.667 406 251 404L250 403ZM185 405V406L188 407H190L185 405ZM218 407V410C224.667 411.333 229.667 411 233 409L231 407H218ZM243 407L234 411L239 412L244 409C244.667 407 244.333 406.333 243 407Z" fill="#090909"/>
<path opacity="0.996078" d="M164.5 32L165 34C150 38.4 137.5 45.7333 127.5 56L127 53.5C136.6 43.4333 149.1 36.2667 164.5 32Z" fill="#090909"/>
<path opacity="0.996078" d="M190.5 32L203 32.5L187 35C186.2 33 187.033 32.3333 189.5 33L190.5 32Z" fill="#090909"/>
<path opacity="0.996078" d="M241.5 34H244.5L261 40.5L259 41.5L271.5 47V45L287.5 48L310 57.5L306.5 58L275.5 48L271.5 49L268.5 47H263.5L241.5 40L221.5 38L220.5 39L180.5 40L181.5 38L195.5 37L196.5 36L237.5 35L239.5 36L241.5 34Z" fill="#090909"/>
<path opacity="0.996078" d="M159.5 39L161 39.5L155.5 45L141.5 53L135.5 54L137.5 51L145.5 45L159.5 39Z" fill="#090909"/>
<path opacity="0.996078" d="M205.5 41C207.033 40.5334 207.533 41.0334 207 42.5L202.5 46H190C190.867 44 190.033 43.3334 187.5 44L177.5 47V46C180.967 42.8 186.633 41.8 194.5 43L199.5 44L205.5 41Z" fill="#090909"/>
<path opacity="0.996078" d="M191.5 47L195 47.5L189 49.5C189.933 51.2333 191.933 51.9 195 51.5L193.5 53L187.5 54L186.5 53H176.5L175 53.5C174.533 52.0333 175.033 51.5333 176.5 52L179.5 50L191.5 47Z" fill="#090909"/>
<path opacity="0.996078" d="M249.5 47C256.9 48.2667 263.067 50.7667 268 54.5L265.5 55L249.5 48V47Z" fill="#090909"/>
<path opacity="0.996078" d="M226.5 49L227.5 50H242.5C250.767 53.7333 260.1 56.4 270.5 58L288.5 66L296.5 68C301.033 69.5333 304.533 72.0333 307 75.5L308 77.5L306.5 77L255.5 56L225 50.5L226.5 49Z" fill="#090909"/>
<path opacity="0.996078" d="M114.5 52L116 52.5L100.5 69L80.5 84L69.5 90L73.5 85C84.1667 79.6667 93.3333 72.8333 101 64.5L109.5 55L114.5 52Z" fill="#090909"/>
<path opacity="0.996078" d="M160.5 56L164 56.5C162.2 58.7 159.367 59.8667 155.5 60C152.833 64 148.833 66.6667 143.5 68L133.5 77L133 75.5L149.5 62L160.5 56Z" fill="#090909"/>
<path opacity="0.996078" d="M185.5 57.9995C189.1 56.7328 190.6 57.2328 190 59.4995L184.5 61.9995C179.367 61.4662 175.533 61.7995 173 62.9995C172.2 60.9995 173.033 60.3328 175.5 60.9995L185.5 57.9995Z" fill="#090909"/>
<path opacity="0.996078" d="M252.5 60C274.1 65.0667 291.933 73.9 306 86.5L305 89.5L312 99.5L310.5 99L302 94L308 102.5V104.5C308.533 106.033 308.033 106.533 306.5 106L300.5 102L300 105.5L301 107.5C299.2 108.633 299.7 109.8 302.5 111C306.433 109.867 307.933 110.533 307 113L304.5 112H302.5L297 108.5C297.533 106.033 297.033 104.533 295.5 104L292.5 102L290.5 103L286.5 100L286 101.5L294 108.5C293.533 110.033 294.033 110.533 295.5 110L298 111.5L293.5 112L282 106C282.733 104.2 282.233 103.533 280.5 104L278.5 103L279 104.5L280.5 107H282.5L288 111.5L285.5 112L272.5 105L252 85.5L249 81.5L252.5 79C253.367 80.5333 254.2 80.3667 255 78.5C255.533 77.0333 255.033 76.5333 253.5 77L249 71.5L257 68.5C256.533 67.0333 257.033 66.5333 258.5 67L260 64L251 61.5L252.5 60ZM292 86L299 92H300C298.667 88.6667 296 86.6667 292 86ZM294 95C292.667 97.6667 293.333 98.6667 296 98L298 100L297 97L294 95ZM291 100L292 102C292.667 100 292.333 99.3333 291 100Z" fill="#090909"/>
<path opacity="0.996078" d="M221.5 61.0005C230.5 60.3339 237 62.1672 241 66.5005L235.5 67.0005L224.5 62.0005H221.5V61.0005Z" fill="#090909"/>
<path opacity="0.996078" d="M212.5 63H217.5L232.5 68L242 75.5V78.5L248 89.5C255.533 101.3 264.367 111.8 274.5 121L275 119.5L274 117.5L275.5 118L286 124.5L282.5 125L275.5 121L275 122.5L281 129.5L279.5 129H277.5L270 121.5L250 98.5L235.5 74L224.5 68C221.167 66 216.5 65.3333 210.5 66L209 64.5L212.5 63Z" fill="#090909"/>
<path opacity="0.996078" d="M109.5 66L111 66.5L99.5 79L87.5 88L89.5 85L92 83.5L98.5 76L109.5 66Z" fill="#090909"/>
<path opacity="0.996078" d="M212 69L222.5 70L231.5 74L238 79.5L236 82.5L240 86.5L259 117.5L252 111.5L231.5 84L231 86.5L238 96.5L245 110.5L240 106.5L230 88.5L221.5 80L214 76.5L222.5 76L233.5 83L232 80.5L228.5 76C224.033 72.8667 218.533 71.2 212 71V69Z" fill="#090909"/>
<path opacity="0.996078" d="M125.5 72L127 72.5L114.5 80L103.5 83L85.5 99L84.5 97L70 110.5L63.5 119L63 116.5L77.5 98C86.3667 93.8667 94.0333 88.5333 100.5 82C110.233 80.0667 118.567 76.7333 125.5 72Z" fill="#090909"/>
<path opacity="0.996078" d="M167.5 75L169.5 76L175.5 75C183.233 76.9333 189.067 80.7667 193 86.5L201 102.5L203 115.5V130.5L202 131.5L201 155.5L199 158.5L197 167.5C191.6 180.433 184.1 191.267 174.5 200L157.5 212L146.5 217L129.5 222H123.5L111.5 225L106.5 224L104.5 225L90.5 221L80 212.5C73.8667 204.3 70.5333 193.3 70 179.5L72 175.5V168.5L76 155.5L89 129.5C94.1333 120.967 100.633 113.8 108.5 108C117.9 97.0667 129.233 88.0667 142.5 81L157.5 76H166.5L167.5 75ZM190 108L186 124L177 150C176.333 152 177 152.667 179 152L190 117V108ZM149 125L139 139C138.333 140.333 139 140.667 141 140L149 127V125ZM191 131L184 150L185 153L182 160L178 163C177.333 165 178.667 165.333 182 164C187.333 155.333 191 145 193 133C193.667 131 193 130.333 191 131ZM164 133L142 162L140 161L130 172C128 171.333 127.333 172 128 174L122 178C119.333 178.667 118.333 180.333 119 183L116 185C116.667 186.333 116.333 186.667 115 186L113 189L121 186L139 169L141 165L145 162L155 151L165 135C165.667 133 165.333 132.333 164 133ZM176 137L171 147C170.333 148.333 171 148.667 173 148L176 142V137ZM146 139L142 143L144 144L138 151L131 158L130 157L126 163L129 161L131 162L144 147L147 141C147.667 139 147.333 138.333 146 139ZM164 150L160 153L157 155L144 171L127 187L128 188L145 175L154 165C153.333 163 154 162.333 156 163L165 152C165.667 150 165.333 149.333 164 150ZM195 152L194 154H195V152ZM97 153V155L99 154L97 153ZM174 153L165 164C163 163.333 162.333 164 163 166L153 175L155 171L154 170L151 174L149 175L147 178C137 190 123.333 198.667 106 204C104 203.333 103.333 204 104 206C119.333 203.333 132.333 197.667 143 189L146 190L145 192C137 198.667 128 204.333 118 209L104 212L105 214L122 210C130 207.333 137 203.333 143 198L146 196L141 203L128 212C126 211.333 125.333 212 126 214L144 205L156 196L154 199L155 200L157 199L158 196L167 188C173 182 178 175 182 167C182.667 165 182.333 164.333 181 165L173 178L170 177L178 165L177 164L174 168L170 171L168 174L152 188V187L151 185L171 163L175 155C175.667 153 175.333 152.333 174 153ZM194 154C188 166 181 177 173 187C158.333 201.667 140 212.333 118 219V220C126 219.333 133 217.667 139 215L165 200L176 191C177.333 186.333 180.333 182.667 185 180L186 176L183 177L194 157V154ZM120 155L118 158L120 157V155ZM125 156L121 159C118.333 159.667 117 161.667 117 165L119 164L120 167L119 170L115 173L111 178L106 184L118 174L119 172L125 167L126 164L122 166L124 163L122 162L125 158V156ZM118 158L117 160H118V158ZM145 163L143 166L146 164L145 163ZM109 171L106 175L110 172L109 171ZM103 187L102 188C100 187.333 99.3333 188 100 190V191L105 188L103 187Z" fill="#090909"/>
<path opacity="0.996078" d="M218.5 83C223.9 87.0667 227.733 92.4 230 99C228.2 99.7333 227.533 99.2333 228 97.5L217.5 85L216 84.5L218.5 83Z" fill="#090909"/>
<path opacity="0.996078" d="M199.5 85C203.367 85.8667 206.2 87.7 208 90.5L211 95.5L209.5 98L199.5 85Z" fill="#090909"/>
<path opacity="0.996078" d="M99.5 92L98 94.5C97.4667 99.3 95.3 102.467 91.5 104C87.1667 105 84.1667 107.333 82.5 111V109L81 108.5L99.5 92Z" fill="#090909"/>
<path opacity="0.996078" d="M256.5 94L268.5 107L275 112.5L273.5 113H271.5L262 104.5L256 95.5L256.5 94Z" fill="#090909"/>
<path opacity="0.996078" d="M226.5 108L231.5 112L232.5 110C238.233 115.6 242.067 123.1 244 132.5L242 131.5L235 116C233.2 115.267 232.533 115.767 233 117.5L236 125.5L235 127.5L247 158.5L245 157.5L239.5 144L239 151.5L248 170.5H247L241 162.5L236.5 150L236 153C233.533 152.133 232.867 153.633 234 157.5H233L236 143C237.8 143.733 238.467 143.233 238 141.5L231 128.5L226.5 108Z" fill="#090909"/>
<path opacity="0.996078" d="M212.5 110L215 113.5L218 124.5L219 146.5L216 160.5L210.5 173L210 166.5L211 163C213.333 163.733 214 161.567 213 156.5L215 149.5V126.5L212.5 110Z" fill="#090909"/>
<path opacity="0.996078" d="M276 113L285.5 116L291 119.5C291.533 121.033 291.033 121.533 289.5 121C283.767 120.067 279.267 117.9 276 114.5V113Z" fill="#090909"/>
<path opacity="0.996078" d="M245.5 117L253 126.5L256 132.5V136.5L261 144.5L256 140.5C253.867 131.967 250.2 124.967 245 119.5L245.5 117Z" fill="#090909"/>
<path opacity="0.996078" d="M221.5 120L227 135.5V145C225.2 144.267 224.533 144.767 225 146.5L224 153C222 152.2 221.333 153.033 222 155.5L220.5 159L220 155.5C223.133 149.3 224.133 140.967 223 130.5C221 127.633 220.5 124.133 221.5 120Z" fill="#090909"/>
<path opacity="0.996078" d="M245.5 124C249.1 127.533 251.267 132.2 252 138C250.2 138.733 249.533 138.233 250 136.5L245.5 124Z" fill="#090909"/>
<path opacity="0.996078" d="M49.5002 125L51.0002 125.5L43.0002 143C40.8002 143.867 40.1335 142.7 41.0002 139.5L47.0002 126L49.5002 125Z" fill="#090909"/>
<path opacity="0.996078" d="M65.5 125L66 126.5L62 139.5L53.5 156L53 154.5C54.8667 153.367 55.2 150.7 54 146.5L59 135.5V132.5L65.5 125Z" fill="#090909"/>
<path opacity="0.996078" d="M229.5 129L233 140.5V144.5L232 145.5L231 162C229 162.867 228.333 162.033 229 159.5L227 155.5L230 143.5V134.5L229.5 129Z" fill="#090909"/>
<path opacity="0.996078" d="M66 138L69 138.5L63 150.5L64 152.5L53 176L51 175.5L55 167.5L53 168.5L49.5 173L47.5 174L48 172.5L66 138Z" fill="#090909"/>
<path opacity="0.996078" d="M38.5 151L41 152L37 163.5L27 176.5L24 184C22 184.867 21.3333 184.033 22 181.5L28 165.5L34.5 155C36.0333 155.533 36.5333 155.033 36 153.5L38.5 151Z" fill="#090909"/>
<path opacity="0.996078" d="M28.5 156L27 158.5L20 182.5C16.6 186.1 14.4333 190.933 13.5 197C11.7 196.133 11.5333 195.3 13 194.5L14 184.5L26 158.5L28.5 156Z" fill="#090909"/>
<path opacity="0.996078" d="M220.5 160L222 163.5L218 176.5L206.5 198C204.7 197.2 204.533 196.367 206 195.5L220.5 160Z" fill="#090909"/>
<path opacity="0.996078" d="M222.5 179L223 183.5C220.4 190.9 216.567 197.067 211.5 202C210.033 202.533 209.533 202.033 210 200.5L217 185.5L222.5 179Z" fill="#090909"/>
<path opacity="0.996078" d="M229.5 186L232 187C230.867 191.067 231.367 193.733 233.5 195L235 194.5V197.5L228 209.5L231 207.5L234.5 203L237 201.5L239.5 194L240 197.5L238 203.5V205.5L235 213.5L229 222C227.2 221.267 226.533 221.767 227 223.5L224 225.5L223.5 224C220.9 225.733 219.4 228.567 219 232.5L221 231.5L223.5 227L223 228.5L220.5 235L218 234.5L219 226.5L214 230.5L212 236L216.5 235L217 239.5L214.5 243L210 242L211 238.5L209 238V235C207.2 235.733 206.533 235.233 207 233.5L215 223.5L211.5 226L200 235C199.267 239.4 197.1 242.733 193.5 245L191 243.5L204.5 227H206.5L214 219.5L225 204.5L226 201C227.8 201.733 228.467 201.233 228 199.5C229.867 197.5 230.533 194.667 230 191C228.2 190.267 227.533 190.767 228 192.5L214 213.5L203.5 226L194 234.5C185.467 242.967 177.967 252.467 171.5 263L160 269.5L162.5 273L167 276.5L163.5 277L149 268.5C148.533 267.033 149.033 266.533 150.5 267L161.5 262H165.5L173 255.5L211 208.5L223 196.5L229.5 186ZM228 203L220 216L221 217L228 206V203ZM220 217L219 219H220V217ZM224 219L222 222H224V219Z" fill="#090909"/>
<path opacity="0.996078" d="M51.5 193L53 194.5V204.5L56 211.5L72 232.5L67.5 229L61 223.5L53 212.5L50 202.5L51 199.5L47 201.5L51.5 193Z" fill="#090909"/>
<path opacity="0.996078" d="M57.5 196L68 216.5L88.5 243L110.5 249H125.5L128 250.5L115.5 251C114.7 253.2 112.367 253.867 108.5 253L97.5 250L86.5 242L86 243.5L97.5 256L109.5 262L114.5 261L128 264L127.5 266H114.5L99.5 260L83 244.5L80 236.5L66 219.5L58 206.5L56 197.5L57.5 196Z" fill="#090909"/>
<path opacity="0.996078" d="M196.5 198L197 200.5L186.5 215L175 223.5L176.5 224L179.5 223L185.5 218L189.5 217L176 231.5L172 239.5L165.5 246L153.5 254L137 258C136.266 256.2 136.766 255.533 138.5 256L149.5 250L153.5 251L170 237.5L168.5 237L158.5 245L148.5 248L146.5 247L141 249C140.266 250.8 140.766 251.467 142.5 251L144.5 250V251C141.5 253.333 137.5 254.667 132.5 255L138.5 247L135.5 246L130 248L131.5 245L140 240.5L141 238.5L136.5 238L128 241L126.5 244C123.3 245.133 122.133 244.3 123 241.5L133 236.5C133.533 235.033 133.033 234.533 131.5 235L130 235.5L158.5 223L186.5 200L187 201.5L181 206L176.5 212C175.033 211.533 174.533 212.033 175 213.5L176.5 213C184.633 209.467 191.3 204.467 196.5 198ZM163 227L153 232L152 234L165 228L163 227ZM150 234L149 236L151 235L150 234ZM159 235V237L161 236L159 235ZM158 237L150 241V242H153L159 238L158 237Z" fill="#090909"/>
<path opacity="0.996078" d="M21.5 211L23 212.5L24 230.5L23 235.5L24 236.5V249.5L25 250.5V264.5H24L22 242.5L21 241.5V217.5L20 216.5L21.5 211Z" fill="#090909"/>
<path opacity="0.996078" d="M52.5 217L65 234.5L62.5 233L60 231.5L53 222.5L52.5 217Z" fill="#090909"/>
<path opacity="0.996078" d="M198.5 217L197 219.5L195.5 222L192 224.5L175 247.5L167.5 255L161.5 259L160 258.5L158.5 261L152.5 264L144.5 265V264L148 262.5C147.533 261.033 148.033 260.533 149.5 261C160.033 254.867 169.2 247.367 177 238.5L178 233.5L185 225L191.5 220H194.5L198.5 217Z" fill="#090909"/>
<path opacity="0.996078" d="M28.5 218C30.5 217.667 31 219.833 30 224.5L34.5 235L35 231.5L34 229.5L38.5 223C42.3 222.533 44.9667 223.2 46.5 225L61 237.5L77 256.5L79 276C80.8 275.267 81.4667 275.767 81 277.5L79.5 277C77.5 276.4 77 277.567 78 280.5L76 283.5L76.5 285L71.5 284L58.5 271L58 272.5L67.5 283L74 288.5C74.5333 290.233 73.7 290.733 71.5 290L60 281.5L50.5 266L50 267.5L60 284.5L58.5 284C56.7667 283.533 56.2667 284.2 57 286L61 288.5L59.5 288L54 284.5L46 270.5L41.5 259L41 261.5C43.2667 270.9 46.9333 278.9 52 285.5L48.5 283L41 276.5L37 266.5C38.6667 265.5 39 263.167 38 259.5L36 248C34 248.867 33.3333 248.033 34 245.5L32 241.5L30 227C27.6667 226.267 27 228.433 28 233.5L30 242.5H27L26 240.5V220.5L28.5 218ZM57 260L56 262L58 263L57 260ZM50 264L49 266H50V264ZM61 267V270L68 276L67 273L61 267ZM73 269L72 271H73V269ZM74 271L73 273H74V271ZM75 273L74 275H75V273ZM76 279L75 281H76V279Z" fill="#090909"/>
<path opacity="0.996078" d="M84.5 232L100 239.5C99.2 241.367 97.0333 241.867 93.5 241L85 235L84.5 232Z" fill="#090909"/>
<path opacity="0.996078" d="M73.5 239L78 242.5L82.5 248C91.4333 258.733 103.433 266.4 118.5 271L121 270L119.5 273L111.5 272L100.5 268L91 259.5L74 241.5L73.5 239Z" fill="#090909"/>
<path opacity="0.996078" d="M197.5 252L206.5 253L211.5 255L216 259.5L220 268.5L221 276.5L217 289.5L214.5 293C212.767 293.533 212.267 292.7 213 290.5C215.867 287.033 217.533 282.367 218 276.5H217L209.5 290H205.5L199 285.5C199.4 283.7 197.567 283.2 193.5 284L194.5 286L195.5 285L199.5 289L202 290.5C202.733 292.7 202.233 293.533 200.5 293L198.5 294C191.967 293.2 187.133 290.7 184 286.5L185 284.5C182.333 282.5 181 279.167 181 274.5L184 265.5L193.5 253L197.5 252ZM202 276L201 279L203 280L202 276Z" fill="#090909"/>
<path opacity="0.996078" d="M95.5 268L100.5 272L116 278.5L107.5 279C102.1 277.067 97.9333 273.9 95 269.5L95.5 268Z" fill="#090909"/>
<path opacity="0.996078" d="M146 270L149.5 271L160.5 281C166.7 281.533 171.2 283.7 174 287.5L170.5 288C161.633 284.867 154.133 280.367 148 274.5L146 270Z" fill="#090909"/>
<path opacity="0.996078" d="M143.5 275L157 284.5L155.5 285L153.5 284H151.5L145 279.5L143.5 275Z" fill="#090909"/>
<path opacity="0.996078" d="M133 276L139 279.5L142 284.5L140.5 284L136.5 282L136 283.5L139.5 288L135 285.5L133 276Z" fill="#090909"/>
<path opacity="0.996078" d="M90.5 277L99.5 293L107 299.5L109.5 303L120 307.5L118.5 310L111.5 309L103 301.5L92 284L90 283.5L90.5 277Z" fill="#090909"/>
<path opacity="0.996078" d="M98.5 279L110 284.5L108.5 285L106.5 284L107.5 286L110 287.5L108.5 288L99 281.5L98.5 279Z" fill="#090909"/>
<path opacity="0.996078" d="M118.5 282H121.5L126 286.5L129 292L132 293.5L134 296.5L131.5 297L122 288.5L123 286.5L118.5 282Z" fill="#090909"/>
<path opacity="0.996078" d="M30 283L33 284.5L41 302.5L37 299.5L30 283Z" fill="#090909"/>
<path opacity="0.996078" d="M100.5 287C105.033 288.533 108.533 291.033 111 294.5L115 301.5L113.5 302L106 295.5L100.5 287Z" fill="#090909"/>
<path opacity="0.996078" d="M117.5 289L122 291L125.5 297L134 300.5L129.5 301L125 299L123.5 302C118.9 300.933 115.733 298.433 114 294.5L114.5 293L124 299L117.5 289Z" fill="#090909"/>
<path opacity="0.996078" d="M115.5 251L116.5 254L121 255C122.2 258.533 120.367 259.533 115.5 258L116 256.5C116.6 254.233 115.1 253.733 111.5 255L104 253.5L107.5 252L113.5 253L115.5 251ZM118 256V257H119L118 256Z" fill="#636363"/>
<path opacity="0.996078" d="M284.5 56L285 57.5H284L284.5 56Z" fill="#939393"/>
<path opacity="0.996078" d="M22.5 252L23 253.5H22L22.5 252Z" fill="#939393"/>
<path opacity="0.996078" d="M22.5 254L23 256.5H22L22.5 254Z" fill="#B7B7B7"/>
</svg>
