<svg width="436" height="420" viewBox="0 0 436 420" fill="none" xmlns="http://www.w3.org/2000/svg">
<path opacity="0.996078" d="M196.5 0H217.5L235.5 5H261.5L273.5 7C281.967 12.5333 291.633 16.8667 302.5 20L321.5 24L330.5 28H336.5L343.5 30C351.833 32.6667 358.333 37.1667 363 43.5L372 59.5L393 87.5L396 116.5L404 130.5L415 143.5L420 159.5C422.467 166.7 426.133 172.7 431 177.5L436 191.5L435 193.5L436 194.5V203.5L431 222.5L423 240.5L422 257.5L418 269.5L415 275.5L402 288.5L396 302.5C394.8 311.633 392.467 319.633 389 326.5C386.267 332.767 382.433 337.933 377.5 342C368.7 348.867 358.7 354.533 347.5 359L337 369.5L325.5 383C318.5 388.333 310.167 392.333 300.5 395L279.5 400H273.5L259.5 404C252.767 406.267 247.1 409.6 242.5 414L232.5 418L210.5 420C209.5 418.333 207.167 418 203.5 419L195.5 415L181.5 411H172.5L171.5 412H153.5L140.5 407L123 392.5L107 366L78.5 350L64.5 344L48 331.5C43.2 326.3 39.5333 319.967 37 312.5L33 299.5L32 289.5L26 271.5L2 226.5L0 216.5V200.5L6 177.5L15 156.5L18 130.5L21 121.5C25.6 111.1 32.1 102.6 40.5 96C42.0333 96.5333 42.5333 96.0333 42 94.5L45 93C50.7333 83.8 58.0667 75.6333 67 68.5L69 64C70.8 64.7333 71.4667 64.2333 71 62.5L81.5 55L105.5 46L114.5 40L136.5 19L142.5 17H153.5L160.5 15L180.5 5L196.5 0ZM201 9L187 13L165 24L141 28L121 50L120 53L106 65H102L122 48V46L108 57C101.333 61 93.6667 63.6667 85 65L79 69L64 87L65 88L76 75L79 73H80L73 83L74 84C78 76.6667 84.6667 72 94 70L98 71L89 76H85C78.3333 80 73.3333 85.6667 70 93L67 96L65 95L69 87V85L63 93L53 100L35 120L30 133L31 134L46 112L47 113L43 121L39 124L27 144L26 156L24 163C18.6667 170.333 14.3333 179.333 11 190L12 193L19 181C18.3333 179 19 178.333 21 179L23 178L17 189L12 205V213L16 222L36 238L49 254L54 265L57 266H59C59.6667 264 59 263.333 57 264C56.3333 262 57 261.333 59 262L63 272L64 273C60.6667 272.333 59.3333 270.333 60 267H59V272L65 281L68 279C70.6667 278.333 72.3333 279 73 281C77.6667 281.667 81 280.667 83 278L91 280V278L109 280L125 289L133 291L142 296H150L172 279L178 277L186 271C194.667 268.333 202 264.333 208 259H211L210 257L213 252L211 251L204 257C207.333 250.333 211.667 245 217 241C221 231.667 226 223.667 232 217L250 200L257 192L261 201L264 203L259 193V187L253 178L252 174C251.333 170.667 252 168.667 254 168C254.667 160 253 154.333 249 151L250 147L251 151L254 152H255L242 128L244 124L246 125L244 122L248 120L251 116L253 107L251 108L250 107L253 105L254 103L260 98L268 96L270 93L266 95H264L270 90L273 91L276 89L278 90L283 88L282 87L291 81C291.667 82.3333 292.333 82.3333 293 81L291 80L313 68L314 66L309 68L306 70C310.667 61.3333 319.667 56.6667 333 56L332 55L335 53C343.667 54.3333 351.333 57.3333 358 62L360 64L357 57L354 54H352H348L339 50L318 48L316 46C312.667 45.3333 310.667 46 310 48H299L298 46C295.333 44.6667 291 44.3333 285 45L284 44L267 45L245 53H232L247 49L248 47C244 46.3333 241.667 46.6667 241 48C235 49.3333 231 49 229 47L230 44L235 43L240 44H249V42H246L262 40L260 43L261 44L267 43L276 39H282L294 43L310 44L311 42L309 43L303 42L306 41L305 39L300 40L281 35H277L268 38L267 36L270 34V33L260 35L264 30H271L289 35L307 36L308 37H316L320 35L311 32C307 31.3333 304.667 31.6667 304 33L287 32C281 28.6667 273.667 27.3333 265 28L269 25H278L290 29H293L273 19L258 15H240L230 13L225 14L232 16L253 18L252 19L246 20L230 18L225 15C223 15.6667 222.333 15 223 13C218.333 13 214.333 11.6667 211 9H201ZM325 36L326 38L334 40C335.333 40.6667 335.667 40 335 38L325 36ZM319 41L317 44L324 46C327.333 47.3333 329.667 47 331 45L333 46C336.333 47.3333 337.667 47 337 45L336 43H328L319 41ZM248 45V47L250 46L248 45ZM345 45V47L356 53V52C353.333 48 349.667 45.6667 345 45ZM351 63L353 66L355 65C354.333 63 353 62.3333 351 63ZM352 70L354 73H356L352 70ZM363 77L364 81L370 88L375 101C376.333 103 377.333 103 378 101C377.333 93.6667 375.333 88 372 84L366 77H363ZM330 81L332 84V83L330 81ZM288 84V85H289L288 84ZM359 84L358 86L368 99V102L373 111L374 119H373C373.667 116.333 373.333 115.333 372 116C368.667 112.667 366.667 108.333 366 103L352 88L350 90L364 104L363 107L371 123L372 124L362 116L359 112L348 106L344 103L343 93L339 95L344 108L347 110L348 108L358 115L373 136C374.333 138 375.333 138 376 136L375 134C374.333 128.667 375 125 377 123L376 120L377 119V109L375 110C375 104.667 374 101 372 99L359 84ZM286 85L284 86V87L287 86L286 85ZM332 86L333 91L336 92L335 88L332 86ZM294 93L293 95L299 105L300 110L302 111L301 103L294 93ZM280 94L283 105L287 107L289 116L291 117L290 115L291 112L287 104C287.667 102 287.333 101.333 286 102L282 95L280 94ZM335 96C333 99.3333 333 101.667 335 103C334.333 104.333 335 104.667 337 104C337.667 100 337 97.3333 335 96ZM288 97L287 101L291 104C291.667 100 290.667 97.6667 288 97ZM352 97L351 101L358 106L352 97ZM278 102L277 106L282 114L285 116C283.667 110 281.333 105.333 278 102ZM273 104L271 106L276 113C276.667 118.333 278.667 122.667 282 126V124H284H285L275 105L273 104ZM294 107L293 110L296 112L294 107ZM336 109L337 116L342 123C343.333 122.333 343.667 123 343 125H345L342 121L343 119L342 117H341L339 110L336 109ZM344 111V115L348 117L370 141L373 146L374 144L370 137L368 135L350 116L344 111ZM269 112L268 115L273 122L276 124L272 114L269 112ZM265 114L263 119L266 120L270 124C269.333 119.333 267.667 116 265 114ZM327 114L328 120L332 121L334 131H335L334 128L335 125L338 127L342 138C344 141.333 347.667 143.333 353 144C360.333 150 366 158 370 168C370.667 169.333 370 169.667 368 169L365 164L343 143L344 145L340 143L343 149L357 160L368 179L371 193L373 187L371 176L372 173L375 175V168L372 160L352 139L349 138V140C344.333 138 341.667 134 341 128L339 126C335 123.333 332.333 120 331 116L327 114ZM315 116L313 120L314 124L317 122L315 116ZM292 117L291 119H292V117ZM354 117L353 119L356 120L354 117ZM293 121L298 133H299L298 125L293 121ZM346 123C345.333 125.667 346 128 348 130L359 138C365 142.667 369.333 149.333 372 158C371.333 159.333 372 159.667 374 159C373.333 149.667 370 142.667 364 138L361 136L353 129L352 124L346 123ZM262 125V129L270 142H271C269.667 134 266.667 128.333 262 125ZM319 126L318 128H319V126ZM271 127L270 130C272.667 132 274.333 135.667 275 141H276V135L271 127ZM327 127L333 140L337 143L329 129C329.667 127 329 126.333 327 127ZM276 128L278 136L281 138C280.333 133.333 278.667 130 276 128ZM320 128C319.333 135.333 321 141.333 325 146C324.333 147.333 325 147.667 327 147L322 138L323 136L320 128ZM284 129L283 131H284V129ZM285 131L284 134L289 138L285 131ZM294 137L292 139L295 145V148L297 149C297.667 143 296.667 139 294 137ZM300 137C298.667 141.667 299 145.667 301 149L300 155H301C300.333 153 301 152.333 303 153L302 150C300.667 145.333 301 142.667 303 142V139L302 141L300 137ZM375 138L374 140H375V138ZM305 141L306 143C306.667 141 306.333 140.333 305 141ZM315 145V156L320 166L323 167L324 170L331 176H333L334 177L318 156C318 151.333 317 147.667 315 145ZM319 145V149L331 165L335 175L350 196V200L349 198L329 177L321 173L317 169V167L314 159L312 158C311.333 162 312.333 164.667 315 166L314 169V171L331 194L335 202V205C336.333 205.667 336.333 206.333 335 207L318 189L302 165C302 161 300.667 158.667 298 158L297 153H296L297 160L330 210C330.667 212 330 212.667 328 212L324 205L320 202L321 205L320 204L318 205L321 210L320 213L308 194L306 192L287 169L285 170L304 195L319 219V223L312 209L311 211L312 212L303 199L286 178L282 175V177L305 208L313 222V225L307 216L302 211L299 210L306 220L307 226L308 227L302 222L279 189L277 190L289 210L304 228L305 231L301 230L289 218L280 201L276 198L279 208L291 225L293 232L295 234L274 210C274.667 208 274 207.333 272 208L271 211L285 229H283L285 234H283L267 211L268 209L270 210L271 208L267 201L266 204V206V216L277 231V235L281 242L280 245L284 244L286 239H287C286.333 241 287 241.667 289 241H291L296 237L299 239C301.667 239.667 302.667 239 302 237C303.333 235.667 306.333 235.333 311 236L315 232L314 230L318 229L317 232H319L324 226L327 214L329 215L328 220L329 224L332 222L331 219L333 216C334.333 216.667 334.667 216 334 214L339 213C340.333 213.667 340.667 213.333 340 212V210L342 207L345 208L344 207L348 206H350H351L350 204H351C350.333 205.333 351 205.667 353 205L357 200C356.333 198 357 197.333 359 198L360 196H361C360.333 200 361 201.667 363 201L365 197L367 184L366 179L345 158L339 149L335 146L339 154L359 179L361 186L362 187L357 183L341 167L344 168H345L334 152L329 148L340 167L338 168L355 189V192L343 180L335 166L319 145ZM308 146V148L310 149C310.667 146.333 310 145.333 308 146ZM308 154V160L310 161L308 154ZM279 168V170L281 171C281.667 168.333 281 167.333 279 168ZM298 169L297 171L308 186V188L309 189L311 188L312 191L310 192L316 199V198V196L317 199L320 201L316 192L298 169ZM410 175L411 182L415 185L410 175ZM266 176L265 180H266V176ZM279 177L278 179H279V177ZM267 178L266 181L267 186C266.333 187.333 267 187.667 269 187L270 183V181C270.667 177.667 269.667 176.667 267 178ZM280 179L279 181H280V179ZM282 184V188L290 197L292 205L299 209C299.667 207 299 206.333 297 207L293 197L287 189L282 184ZM404 184V187L411 195L412 200L411 206L417 209V204H415C414.333 196.667 412 191 408 187L404 184ZM264 185V189C263.333 190.333 264 190.667 266 190L264 185ZM419 190L417 193L419 199L422 200L419 190ZM268 195V200L271 202C271 198.667 270 196.333 268 195ZM252 208V211L257 217C259 216.333 259.667 217 259 219L263 221L265 226C264.333 228 265.333 228.333 268 227V231L273 239V240L272 239L268 236L262 226L259 224V227L266 235L271 246H276L274 243V241L276 242L277 243L275 240L276 238V236L264 217L259 215C259.667 213 258.667 212.333 256 213L254 210C254.667 208 254 207.333 252 208ZM239 215L236 217C229.333 223.667 224 231.667 220 241C219.333 242.333 220 242.667 222 242C226.667 232 232.667 223.333 240 216L239 215ZM413 216L416 220V218L413 216ZM253 221L252 225L262 241L257 240L248 226L245 224L259 247L255 248L249 243L240 225L237 227L243 239C242.333 240.333 243 240.667 245 240L248 248L254 254L253 255L258 256L259 253V255L266 252L263 248V246C265.667 245.333 267.333 246 268 248L270 247L253 221ZM402 222C403.333 223.333 403.667 226.333 403 231L407 242L409 243L408 233L404 224C404.667 222 404 221.333 402 222ZM415 223L413 225L414 231C413.333 233 414 233.667 416 233C416.667 228.333 416.333 225 415 223ZM396 227L398 232C397.333 233.333 398 233.667 400 233L398 229C398.667 227 398 226.333 396 227ZM23 232L24 234H25L23 232ZM353 232L352 236L353 246L355 247L357 246L359 247C359 243 357.667 240 355 238C356.333 233.333 355.667 231.333 353 232ZM363 234C361.667 237.333 362 240 364 242L367 243L368 244L366 239C366.667 237 366.333 236.333 365 237L363 234ZM384 234L382 236L383 240H381L382 244L386 242C386.667 238.667 386 236 384 234ZM396 237L398 248L400 249C399.333 247 400 246.333 402 247L398 241C398.667 237.667 398 236.333 396 237ZM232 239L231 242L235 248C235.667 250 237.333 250.667 240 250L242 258L244 259L242 250V248L250 258C252.667 258.667 253.333 257.667 252 255L247 249H244L243 243L239 240L237 241C233.667 241.667 232 241 232 239ZM278 243C276 245.667 276.667 246.667 280 246L278 243ZM28 244L34 252V250L28 244ZM380 248C378.667 252.667 379 256.333 381 259L382 257C382.667 252.333 382 249.333 380 248ZM39 250V255L46 266L45 270L51 283C51.6667 285 51 285.667 49 285L50 290C49.3333 291.333 50 291.667 52 291L54 299L61 312L66 316V311L62 306L58 295L57 299L52 286L55 287L50 275V268L39 250ZM238 252V256C237.333 257.333 238 257.667 240 257C240.667 254.333 240 252.667 238 252ZM399 252L396 257C396 265 394.667 272 392 278L395 279L398 274L399 261L400 260C400.667 256 400.333 253.333 399 252ZM390 254L388 256L389 260L387 275L381 288V293V294L384 293L386 298L388 294V291L383 292L390 276C388.667 271.333 389 268.667 391 268C392.333 261.333 392 256.667 390 254ZM406 256L404 258L401 271C400.333 273.667 401 274.667 403 274L407 263C407.667 257.667 407.333 255.333 406 256ZM222 257L224 261C223.333 263 224 263.667 226 263L225 259C225.667 257 224.667 256.333 222 257ZM373 259V260H374L373 259ZM221 263V265L227 268V266L225 265L221 263ZM328 264L326 267C325.333 269.667 326.333 270.333 329 269L328 264ZM39 267L45 283V284L42 280H41L42 288L50 313L57 323L62 326L55 316L57 315L67 328C68.3333 327.333 68.6667 328 68 330L75 334L69 328C69.6667 326 69.3333 325.333 68 326L67 324L69 325V324C68.3333 321.333 66.3333 320.333 63 321L59 314L57 312C51.6667 306 48 298.667 46 290L47 287L46 279L40 269C40.6667 267 40.3333 266.333 39 267ZM370 267L369 271L371 272C371.667 269.333 371.333 267.667 370 267ZM317 268C316.333 270.667 314.667 271.667 312 271V273C311.333 275 312 275.667 314 275L318 269L317 268ZM214 270L210 272H212H214C218.667 271.333 222.333 272 225 274L227 281L225 282L226 284V285L229 284L228 281C230.667 279.667 232 277.333 232 274C230.667 270.667 229.333 270.333 228 273C224.667 270.333 220 269.333 214 270ZM334 270L333 272H334V270ZM319 271C316.333 272.333 316.333 273.667 319 275L317 279L320 280L322 279L324 283L327 277V273L324 275L320 274C320.667 271.333 320.333 270.333 319 271ZM57 273L56 275L59 277L57 273ZM293 275C291.667 277.667 292 279.333 294 280H295L293 275ZM289 276L287 278H289V276ZM336 277L331 278V282L328 287V291L332 290L336 282V277ZM301 278C300.333 280 301 280.667 303 280C303.667 278 303 277.333 301 278ZM374 278L371 290L372 299L376 285L374 278ZM56 279V290L58 292L59 287L58 284C59.3333 280 58.6667 278.333 56 279ZM219 279L218 280C212.667 279.333 210.333 280 211 282L216 283C219.333 283.667 221.333 283 222 281L219 279ZM313 280L311 283L314 281L313 280ZM350 283L347 289V297L346 298L347 302C349 300.667 349.333 298.333 348 295L350 292V283ZM218 284V285H219L218 284ZM290 284L287 286L290 287V284ZM300 284L296 289L297 291L299 290L302 285L300 284ZM316 284V287C314.667 287.667 315 288.333 317 289L320 288L319 286C319.667 284 318.667 283.333 316 284ZM63 285L62 288L60 289L61 294L65 301V303L73 318L78 322L77 318L72 311L74 308L64 292V290L63 285ZM220 285C218.667 287.667 216 288.667 212 288L211 290C217 290 221.333 288.667 224 286L220 285ZM359 285L357 288L358 291L360 288L359 285ZM283 287L285 291C286.333 290.333 286.333 289.667 285 289C285.667 287 285 286.333 283 287ZM71 288L75 295L74 297L77 303L81 305V301C77.6667 298.333 75.6667 295 75 291L71 288ZM310 288C304.667 291.333 302 297.333 302 306L288 325L290 327L297 319L295 318L299 313L301 314C304.333 311.333 306.333 307.333 307 302H304L308 295C306.667 291.667 307.333 290.333 310 291C311.333 291.667 311.333 292.667 310 294L312 295L309 303C308.333 305 309 305.667 311 305C313 301.667 314 297.333 314 292L311 291C311.667 288.333 311.333 287.333 310 288ZM336 288L334 292L332 302L321 321L315 328C320.333 326 324.667 323 328 319C328.667 317 328.333 316.333 327 317L323 320L327 315C326.333 313 327 312.333 329 313C333.667 309 337 303.333 339 296C339.667 294 339 293.333 337 294L338 289L336 288ZM364 288L363 291C362.333 294.333 363.333 295.333 366 294L363 307L360 313L358 314L351 324V330L342 342C341.333 343.333 342 343.667 344 343L356 327L354 326C354 322 355.333 319.333 358 318L359 323L367 305V290L364 288ZM274 289L272 291H275C275.667 289 275.333 288.333 274 289ZM98 291L100 294V293L98 291ZM321 291L319 292C316.333 293.333 315.667 296.333 317 301L309 315L307 316L303 321C301.667 324.333 298.667 326.333 294 327L291 331C290.333 333 291.333 333.667 294 333L293 335H296L298 331L311 318C309.667 314 310.333 312.333 313 313L320 301L319 296L321 295C320.333 296.333 321 296.667 323 296L322 306L312 322L304 330L305 332L311 329L318 320L317 316L319 312C320.333 308 323 306.333 327 307L329 302C329.667 296.667 329 293 327 291L325 296L324 295V293C324.667 291 323.667 290.333 321 291ZM187 292L182 294C180 293.333 179.333 294 180 296C180.667 297.333 182.667 297.667 186 297L185 294L187 295H200C197.333 291.667 193 290.667 187 292ZM220 294L218 296C224 296 229.333 297.333 234 300L236 303C231.333 301 225.333 300.667 218 302L217 301L206 303L205 305L210 304C220.667 302.667 229 304 235 308L236 310L235 309H227L228 312C227.333 314 229.667 314.333 235 313L237 317L241 318L240 315L241 313L240 307C237.333 305.667 237 304.667 239 304L234 295L232 296L220 294ZM207 296V297H211L207 296ZM272 296C270.667 298 271 298.667 273 298L272 296ZM375 296C371.667 306.667 367.333 316.333 362 325L365 324L363 328L361 329L348 344H352L357 338L360 336L363 333L376 304C376.667 299.333 376.333 296.667 375 296ZM250 297V298H251L250 297ZM292 297L290 299L291 301L290 303C289.333 306.333 290 308.333 292 309C293.333 308.333 293.667 307 293 305C291 303.667 291.333 302.667 294 302C294.667 300 294 299.333 292 300V297ZM72 298L71 300L75 303L72 298ZM353 300L351 308L355 307C356.333 301.667 355.667 299.333 353 300ZM92 302L91 304L94 308L97 309L92 302ZM177 302L175 304H183C183.667 301.333 181.667 300.667 177 302ZM193 302L191 303V304C197 305.333 201.333 305 204 303L193 302ZM280 305C278.667 308.333 279 311 281 313L277 318C275.667 321.333 276.333 322.667 279 322L283 312L280 305ZM123 307L122 311L126 317L132 321L146 328L149 332L146 330C144 329.333 143.333 330 144 332L131 324L126 325L150 338L157 339L152 334L154 333L149 326H147L129 316L123 307ZM380 307L371 327L368 328L365 335C364.333 337 365 337.667 367 337C373 329.667 377.333 320.667 380 310V307ZM209 308L202 310C194.667 308.667 189.333 309 186 311V312L221 311L223 310C219.667 308 215 307.333 209 308ZM350 310L347 317L349 320L350 318V310ZM290 311L287 318L284 319L285 321L287 320L291 315L290 311ZM100 313L99 315L103 318L100 313ZM268 314L266 316L268 319L266 324C265.333 326 266 326.667 268 326H270C271.333 319.333 270.667 315.333 268 314ZM300 314L297 318L300 316V314ZM216 315L204 318L209 319L222 318L216 315ZM86 316V320L91 323L97 330V333L100 334V332C97.3333 330.667 96.3333 328.333 97 325H95L86 316ZM231 317L230 318C228 317.333 227.333 318.333 228 321H225L219 324L208 326L211 327L231 323L241 324L242 327L241 326L239 327H226L220 328L218 330L221 333L229 331L238 332C240.667 333.333 241 334.667 239 336C233.667 334.667 227.333 334.333 220 335L218 333H199L195 331L190 332L186 331L191 329L176 328C175.333 330.667 176.667 331.333 180 330V333L189 334L194 337L202 339L206 337C212 336.333 216.667 337 220 339H233V341C231 342.333 227.333 342.667 222 342L220 344C212.667 342.667 207 343.333 203 346L206 347H226L227 346C229 345.333 230.333 346 231 348L210 350L207 352C203.667 352.667 201.667 352 201 350L197 353L202 355H214L228 352C230.667 352.667 231.667 352.333 231 351L241 343C240.333 341 241 340.333 243 341L245 335L244 322L243 320C237.667 320 233.667 319 231 317ZM82 324L85 332L95 339L100 345L102 344L101 342L91 333L84 326C84.6667 324 84 323.333 82 324ZM280 325L276 331L277 333L282 327L280 325ZM345 325L342 326C340.667 332 337.667 337 333 341C332.333 342.333 333.333 342.667 336 342L345 328V325ZM201 326V327H207L201 326ZM124 329L127 333L154 350V349L151 347L152 345L141 337L124 329ZM163 330L164 332L170 333L175 336H184L163 330ZM284 330L281 336L279 337L277 341C282.333 340.333 286.667 338.667 290 336L287 334L288 332C288.667 329.333 287.333 328.667 284 330ZM155 333V334H156L155 333ZM273 333L269 336L263 343L264 344L266 343L274 334L273 333ZM157 334C160.333 338 166 340.667 174 342C178 343.333 179.667 342.667 179 340H181C178.333 338 174.333 337.333 169 338L160 334H157ZM119 336L124 341L143 350L144 354L147 355L148 358H146C145.333 359.333 146.333 359.667 149 359H153C155.667 359.667 156.333 358.667 155 356L151 351L124 339L122 337H121L119 336ZM120 342V345L137 358L148 364C150 365.333 150 366.333 148 367L145 365L143 366L120 351L119 353C128.333 361.667 139.667 369 153 375H154L152 372L153 368C143 358 132 349.333 120 342ZM165 343L161 345L168 346C169.333 346.667 169.667 346 169 344L165 343ZM271 346L265 351C265.667 352.333 265 352.667 263 352L262 355L265 356L272 348C272.667 346 272.333 345.333 271 346ZM197 347L199 349C199.667 347 199 346.333 197 347ZM187 352C189.667 356 194.667 359 202 361L215 358L216 356H208L207 357H199C195.667 354.333 191.667 352.667 187 352ZM166 353L165 355L169 358C168.333 360 169 360.667 171 360L172 357L170 354L166 353ZM307 354L304 356V357L307 356V354ZM118 356L117 358L136 374L167 390H171C163.667 387.333 158 383.667 154 379L134 371L135 369L118 356ZM273 356L271 359L274 358C274.667 356 274.333 355.333 273 356ZM183 358V360L187 363L196 366V364H199L183 358ZM330 358L327 359L322 367L311 376L298 382L299 385C307.667 381.667 315 377 321 371L330 360V358ZM297 360L290 368L298 361L297 360ZM151 362V364L164 374L174 378H176L174 375L164 371L155 363L151 362ZM168 362L171 365H179V363L168 362ZM314 362L300 371L295 378L296 379L299 377C301 377.667 301.333 376.667 300 374C306 372 311 368.667 315 364C315.667 362 315.333 361.333 314 362ZM191 365L189 368C190.333 367.333 190.667 368 190 370L189 369L184 370L190 371L191 374L182 375L191 378C193 379.333 192.667 380.667 190 382L187 381C185 380.333 184.667 379.667 186 379L180 375L178 378L183 380C185.667 381.333 186 382.667 184 384C184.667 385.333 184.333 385.667 183 385V387L170 381C167.333 381.667 166.333 381.333 167 380L158 371C156 370.333 155.333 371 156 373L162 377L164 380L162 379L159 380L175 387L173 388L178 390L181 389H184V387C187.333 388.333 188.667 388 188 386L191 384L195 379V372L193 366L191 365ZM257 366L254 370C253.333 371.333 254 371.667 256 371L257 369V366ZM279 372L277 375L273 378L271 382L274 383L277 382L279 377C277.667 375.667 278 374.667 280 374C280.667 372 280.333 371.333 279 372ZM267 373L265 379L262 383L266 381L270 376C270.667 372.667 269.667 371.667 267 373ZM287 375L284 380L288 377C288.667 375 288.333 374.333 287 375ZM129 377L128 379L132 381L133 384C138.333 389.333 145.667 393.333 155 396H159L144 389L129 377ZM290 377L284 383L287 385L291 384L292 380L288 382L291 378L290 377ZM264 384L263 385C260.333 384.333 259.333 385 260 387L264 386V384ZM166 385V386H168L166 385ZM277 386L275 389L277 388V386ZM230 390L215 397L217 398H215V399C219 399.667 222 398.667 224 396C225.333 396.667 225.667 396.333 225 395H227L233 393C234.333 393.667 234.667 393.333 234 392H233L230 390ZM242 394L234 398H229L231 401L240 399L243 397L242 394ZM148 398L147 400L155 403H164L148 398ZM195 401L197 403H200C199.333 401 197.667 400.333 195 401ZM225 401V402H226L225 401Z" fill="#090909"/>
<path opacity="0.996078" d="M209 18C219.4 18.0667 228.9 19.4 237.5 22H250.5C254.233 20.0667 259.233 19.4 265.5 20L269 21L267.5 24H253.5L241.5 26L239.5 24H231.5L220.5 21C215.367 21.5333 211.533 21.2 209 20V18Z" fill="#090909"/>
<path opacity="0.996078" d="M176.5 25L178 25.5L174.5 29L165.5 33H158.5V32L169.5 29L176.5 25Z" fill="#090909"/>
<path opacity="0.996078" d="M179.5 35.9997C184.767 35.3997 187.933 36.8997 189 40.4997L190.5 42.9997L192 43.4997L184.5 53.9997L173.5 60.9997H164.5L155 55.4997V49.4997L162.5 41.9997L169.5 37.9997L179.5 35.9997Z" fill="#090909"/>
<path opacity="0.996078" d="M199.5 37.9996L223.5 38.9996L227 39.9996C226.267 38.1996 226.767 37.5329 228.5 37.9996L229.5 38.9996H238.5L240 40.4996L237.5 41.9996H214.5L213.5 40.9996L197 39.4996L199.5 37.9996Z" fill="#090909"/>
<path opacity="0.996078" d="M146.5 41L148 41.5C144 45.8333 138.5 48.6667 131.5 50L133.5 47L146.5 41Z" fill="#090909"/>
<path opacity="0.996078" d="M198.5 44L202.5 45L203.5 44H211.5L217 46V49H209.5L202 48C201.133 50.2 202.3 50.8667 205.5 50C210.7 51.5333 214.867 54.0333 218 57.5L219 59.5L215.5 60L204 56.5L212 56L211.5 54H197.5V55H201C200.267 56.8 200.767 57.4667 202.5 57L208 60.5L206.5 61L193 55.5V51.5L198.5 44Z" fill="#090909"/>
<path opacity="0.996078" d="M148.5 47L150 47.5L138.5 55L123.5 58L121.5 60L121 58.5L127.5 55C132.233 55.4 135.9 54.7333 138.5 53L148.5 47Z" fill="#090909"/>
<path opacity="0.996078" d="M289.5 51L303.5 52L304.5 53H315.5L319 54.5L313.5 56L310.5 55L307.5 56L306.5 55L293.5 54L289.5 51Z" fill="#090909"/>
<path opacity="0.996078" d="M260.5 53L272 53.5L262.5 56H254.5L238.5 60H229.5L227 58.5L229.5 57L244.5 56L260.5 53Z" fill="#090909"/>
<path opacity="0.996078" d="M138.5 61L140 61.5L134 65C134.867 67.2 133.7 67.8667 130.5 67L128.5 68C126.5 67 126.5 66 128.5 65L138.5 61Z" fill="#090909"/>
<path opacity="0.996078" d="M198 61L208 65.5L207.5 68L200.5 66L201.5 68L208 70.5L202.5 71L196 67.5C196.467 65.5 195.467 65 193 66V64L199.5 66L199 64.5L198 61Z" fill="#090909"/>
<path opacity="0.996078" d="M257.5 65L268 65.5L254.5 69L257.5 65Z" fill="#090909"/>
<path opacity="0.996078" d="M284.5 68L290 68.5L283.5 71H276.5L266.5 73L260.5 76H254.5V75L266.5 71L278.5 70L284.5 68Z" fill="#090909"/>
<path opacity="0.996078" d="M192.5 70L205 73L204.5 75H197.5L192.5 70Z" fill="#090909"/>
<path opacity="0.996078" d="M247.5 70L251 70.5C244.2 74.1667 236.2 76.3333 227 77L228.5 73C236.833 74 243.167 73 247.5 70Z" fill="#090909"/>
<path opacity="0.996078" d="M154 71L161.5 74L164.5 73L171 75C171.867 77 171.033 77.6667 168.5 77C167.5 79.3333 166.5 79.6667 165.5 78C159.9 77.9333 156.067 76.1 154 72.5V71Z" fill="#090909"/>
<path opacity="0.996078" d="M185 71L198 79.5L196.5 80C191.1 79.0667 187.267 76.5667 185 72.5V71Z" fill="#090909"/>
<path opacity="0.996078" d="M121.5 75L134.5 76L146 84.5L150 92.5L152 108.5C150.8 113.967 148.3 118.133 144.5 121L137 127.5L127.5 141L118.5 149L93.4999 164L74.4999 172H62.4999L52.9999 165.5C49.8666 162.967 48.8666 158.3 49.9999 151.5C51.8666 150.367 52.1999 147.7 50.9999 143.5L54.9999 133.5L76.9999 99L97.4999 84L110.5 78L121.5 75ZM129 89V91C130.333 93 131.333 93 132 91L129 89ZM133 94C133 96 132 96.6667 130 96L131 101L128 108C127.333 111.333 128 113.333 130 114L132 113V115L134 114V110C136 110.667 136.667 110 136 108L131 109L134 105C134.667 102.333 134 101.333 132 102L134 98L133 94ZM112 95L109 99L112 98V95ZM122 97L118 98L115 102L104 111H106L109 109C108.333 110.333 109.333 110.667 112 110C114.667 108.667 116 106.333 116 103L123 98L122 97ZM87.9999 98L83.9999 102L81.9999 105L74.9999 113L81.9999 108L82.9999 106L89.9999 100C90.6666 98 89.9999 97.3333 87.9999 98ZM96.9999 98L89.9999 103H91.9999H92.9999L82.9999 117L83.9999 118L96.9999 101V98ZM128 99L124 101L125 104L129 102C129.667 99.3333 129.333 98.3333 128 99ZM96.9999 101L95.9999 104H97.9999H99.9999L101 102H99.9999L96.9999 101ZM96.9999 109L93.9999 113L96.9999 111V109ZM120 109L119 111L121 110L120 109ZM124 109V111L118 118L124 114L126 111C126.667 109 126 108.333 124 109ZM82.9999 111L78.9999 116L82.9999 113V111ZM118 111L115 115L118 113V111ZM90.9999 113L79.9999 126H81.9999L91.9999 115C92.6666 113 92.3332 112.333 90.9999 113ZM97.9999 114L92.9999 120H94.9999L98.9999 115L97.9999 114ZM78.9999 116L75.9999 120L78.9999 118V116ZM104 117L99.9999 121H102H103L93.9999 131L87.9999 138L94.9999 133L107 118L104 117ZM130 119L128 121L126 120L118 122L119 124L121 123C122.333 124.333 122.667 127.333 122 132L127 128L125 124L131 121C131.667 119 131.333 118.333 130 119ZM111 121L108 123L106 126V127L112 122L111 121ZM93.9999 123L90.9999 127L93.9999 125V123ZM83.9999 125L73.9999 139H75.9999L87.9999 126L84.9999 127V126L83.9999 125ZM78.9999 127L76.9999 128L71.9999 135L78.9999 129V127ZM110 127L103 136H105L99.9999 142L101 143L103 142L104 140L107 138L97.9999 150L98.9999 151L107 141L109 140L107 145L108 146L118 136L119 132C119.667 129.333 119 128.333 117 129L115 135L111 137L113 134C113.667 130.667 113 129.333 111 130L109 135C109.667 136.333 109.333 136.667 108 136V135L107 133L110 129V127ZM88.9999 130L83.9999 137L89.9999 132C90.6666 130 90.3332 129.333 88.9999 130ZM122 132L121 134H122V132ZM96.9999 134L94.9999 135L91.9999 140L84.9999 146L85.9999 147L98.9999 137C99.6666 134.333 98.9999 133.333 96.9999 134ZM101 137L81.9999 156L82.9999 157L84.9999 156L91.9999 148L97.9999 143C97.3332 141 97.9999 140.333 99.9999 141L102 138L101 137ZM86.9999 141L82.9999 146L87.9999 142L86.9999 141ZM114 144L109 150L114 146V144ZM108 150L90.9999 157L88.9999 158L90.9999 155L91.9999 153L84.9999 159C82.9999 158.333 82.3332 159 82.9999 161L90.9999 160L97.9999 156H104L109 151L108 150ZM75.9999 152L73.9999 153L72.9999 155L76.9999 153L75.9999 152ZM75.9999 159L73.9999 160L72.9999 162L77.9999 160L75.9999 159ZM67.9999 160L65.9999 163L70.9999 161L67.9999 160ZM81.9999 165L79.9999 166L78.9999 168L82.9999 166L81.9999 165Z" fill="#090909"/>
<path opacity="0.996078" d="M276.5 75L283 75.5L278.5 78L265.5 79C261.9 81.4 257.233 82.7333 251.5 83L237.5 90H233.5L234.5 88L258.5 78L276.5 75Z" fill="#090909"/>
<path opacity="0.996078" d="M267.5 81L268 83L248.5 90L226 102C225.267 100.2 225.767 99.5333 227.5 100L231.5 96L247.5 88L267.5 81Z" fill="#090909"/>
<path opacity="0.996078" d="M204.5 88L203.5 90L192.5 96L193.5 94L204.5 88Z" fill="#090909"/>
<path opacity="0.996078" d="M226.5 89L225.5 91L197.5 104V103L209.5 96L214.5 95L226.5 89Z" fill="#090909"/>
<path opacity="0.996078" d="M252.5 92L251.5 94L246 97.5L246.5 99L248 98.5L237 106C236.667 110.533 234.833 113.867 231.5 116L231 113.5L233.5 110L228.5 112L225 111C224.267 109.2 224.767 108.533 226.5 109C233.433 101.6 242.1 95.9333 252.5 92Z" fill="#090909"/>
<path opacity="0.996078" d="M166.5 95L178 95.5L168.5 99H161.5L160.5 97L163.5 98L166.5 95Z" fill="#090909"/>
<path opacity="0.996078" d="M180.5 98L179.5 100L170.5 105H165.5L163 103.5L171.5 102L180.5 98Z" fill="#090909"/>
<path opacity="0.996078" d="M187.5 99L184.5 103L166 115.5L167 118.5C164.533 120.367 163.2 123.367 163 127.5L158.5 132L157 131.5L159 127.5L157.5 128L146.5 132L148.5 129L150.5 130L157 125.5V123.5L166 111.5C164.533 110.7 164.7 109.867 166.5 109L174.5 108L187.5 99Z" fill="#090909"/>
<path opacity="0.996078" d="M186.5 106L191 106.5L174.5 116L168 118C167.267 116.2 167.767 115.533 169.5 116L186.5 106Z" fill="#090909"/>
<path opacity="0.996078" d="M58.5 110L59 111.5L45.5 129L41 132.5L33 146.5V149.5L27.5 163L27 160.5L33 139.5L58.5 110Z" fill="#090909"/>
<path opacity="0.996078" d="M190.5 111L196 111.5C192.533 114.033 188.033 115.533 182.5 116V115L190.5 111Z" fill="#090909"/>
<path opacity="0.996078" d="M204.5 117L214.5 119L226 127.5L231 136.5V143.5C228.333 151.833 223.833 158.333 217.5 163L193.5 178C189.767 179.933 184.767 180.6 178.5 180L168.5 177L164 172.5C161.2 168.967 160.533 163.3 162 155.5L164 149.5L172.5 137C181.3 128.467 191.967 121.8 204.5 117ZM219 143L218 148L197 163L195 167L187 172L186 174L191 173L206 163L207 159L213 155H214L210 160V162L216 159L223 151C223.667 147.667 223.333 146.333 222 147L219 149L221 146C221.667 143.333 221 142.333 219 143ZM209 146L205 150L185 160L184 162C187.333 162.667 190 162 192 160L193 161L187 165L184 169L194 165C196 163.667 197 161.333 197 158L212 147L209 146ZM195 148L185 155L183 158C188.333 156 192.667 153 196 149L195 148Z" fill="#090909"/>
<path opacity="0.996078" d="M242.5 134L246 142.5V147.5L249 156.5V171.5C247.333 172.5 247.667 173.5 250 174.5C250.867 179.033 250.367 182.2 248.5 184L247 182.5L246 176.5V157.5L242.5 134Z" fill="#090909"/>
<path opacity="0.996078" d="M239.5 156L243 162.5V173C241 172.2 240.333 173.033 241 175.5C242.667 176.5 243 178.833 242 182.5L240 187L237.5 188L237 186.5L240 181.5V166.5L239 165.5L239.5 156Z" fill="#090909"/>
<path opacity="0.996078" d="M34.5 160L35 164.5L31 178.5L28.5 182L28 178.5L34.5 160Z" fill="#090909"/>
<path opacity="0.996078" d="M235 165L237 165.5V172.5C235.333 173.5 235 175.833 236 179.5L233 186L228.5 188L229 186.5L234 174.5L232.5 172L226.5 183C215.9 186.733 206.9 192.067 199.5 199H193.5L191.5 198L179.5 201L158.5 202V201L174.5 199L180.5 197L193.5 196L196.5 197L209 189.5L218 178.5V173.5L223.5 167C225.5 166.4 226 167.567 225 170.5L219 183.5L221.5 184L225 181.5C226.867 180.167 227.533 178 227 175C229.533 176 230.533 175.5 230 173.5L235 167.5V165Z" fill="#090909"/>
<path opacity="0.996078" d="M39.5 171L52 178.5L50.5 179L39 174L39.5 171Z" fill="#090909"/>
<path opacity="0.996078" d="M213.5 174C215.233 173.467 215.733 174.3 215 176.5L207.5 182H203.5L205.5 179L213.5 174Z" fill="#090909"/>
<path opacity="0.996078" d="M92.5 178L93 180L100.5 179H102.5C104.233 178.533 104.733 179.2 104 181C101.467 180.333 99.8 180.833 99 182.5L106.5 185L112.5 190L125 195C125.733 196.8 125.233 197.467 123.5 197L116.5 193V195L98 186L101.5 192L115 200.5L112.5 201L108.5 198L111 201.5C111.533 203.033 111.033 203.533 109.5 203L101.5 199L104 202.5L105 204.5L103.5 204C100.3 201.2 95.3 200.2 88.5 201L86 202.5L98.5 206L102 208.5C101.467 210.233 102.3 210.733 104.5 210L109 213.5L107.5 213L99.5 209L82.5 204L70.5 196L77.5 204L87 209.5C86.4667 211.233 87.3 211.733 89.5 211V210L88 209.5L89.5 209L100.5 212L104 214.5C101.667 215.5 101.333 216.5 103 217.5L104 221L90 215.5L92 211L88.5 213L86 212C86.9333 209.533 85.4333 208.867 81.5 210H79.5L70.5 208L73.5 212L82 215.5L80.5 216L71.5 214L62 209V206C64 206.867 64.6667 206.033 64 203.5L63 201.5L65 202.5C64.5333 204.033 65.0333 204.533 66.5 204C67.8333 206.667 70.5 208 74.5 208L72.5 205L65 201L64 193.5H65L65.5 195L70.5 193L73.5 195L75.5 192L68.5 191L67 189.5L70.5 188L75.5 191L76 189.5L73 188C72.2 186 73.0333 185.333 75.5 186L86.5 182L92.5 178ZM86 185L85 189L98 195L101 194L90 189L86 185ZM84 196L82 198L86 199H88L84 196ZM98 196C97.3333 198 98 198.667 100 198C100.667 196 100 195.333 98 196Z" fill="#090909"/>
<path opacity="0.996078" d="M40.5 181L51 188.5C51.5333 190.033 51.0333 190.533 49.5 190L40.5 181Z" fill="#090909"/>
<path opacity="0.996078" d="M198.5 187L202 187.5L195.5 191L182.5 192L181.5 193L180.5 191L198.5 187Z" fill="#090909"/>
<path opacity="0.996078" d="M38.5 188H44.5L51 194.5L53 198.5L43.5 190L42 190.5L48 198.5L45.5 199L41 194.5L38.5 188Z" fill="#090909"/>
<path opacity="0.996078" d="M232.5 189L235 189.5L231.5 194L221.5 200H219L220.5 197L232.5 189Z" fill="#090909"/>
<path opacity="0.996078" d="M222.5 190L224 190.5L210 199L208.5 202L201 200.5L222.5 190Z" fill="#090909"/>
<path opacity="0.996078" d="M34 195L38.5 196L46 203.5L52 212.5L41.5 203L34 196.5V195Z" fill="#090909"/>
<path opacity="0.996078" d="M150.5 197L152 197.5L140.5 203H136.5L137.5 201L150.5 197Z" fill="#090909"/>
<path opacity="0.996078" d="M32.5 199L43 208.5L46 213.5L42.5 211L33 202.5L32.5 199Z" fill="#090909"/>
<path opacity="0.996078" d="M27.5 201L33 215.5L28 211.5L27 209.5L28 205.5L27.5 201Z" fill="#090909"/>
<path opacity="0.996078" d="M154.5 204L157 204.5C145.6 207.767 135.433 212.267 126.5 218L128.5 215L131 213.5L133.5 210L154.5 204Z" fill="#090909"/>
<path opacity="0.996078" d="M19.5 205L25 216C21.8667 216.533 19.8667 215.367 19 212.5L18 206.5L19.5 205Z" fill="#090909"/>
<path opacity="0.996078" d="M33.5 207L43 217.5L40.5 218L36 215L33 209.5L33.5 207Z" fill="#090909"/>
<path opacity="0.996078" d="M162.5 208L164 208.5L131.5 222L125.5 228L126 226.5L129 220L136.5 215L162.5 208Z" fill="#090909"/>
<path opacity="0.996078" d="M184.5 213L194.5 215L200 219.5C201.667 221.833 202 225.5 201 230.5C198.533 237.367 194.7 242.867 189.5 247L172.5 258L158.5 260L155.5 259L147 256L145 247.5C147.267 235.767 152.767 227.267 161.5 222L171.5 216L184.5 213ZM190 222L187 226L190 227L193 232V231H194L193 235L197 232V229C195 229.667 194.333 229.333 195 228L191 224L192 223L190 222ZM190 228L188 231L190 230V228ZM174 229L173 231H174V229ZM171 232L167 236L168 238L171 234V232ZM183 232L177 241C175 240.333 174.333 241 175 243L163 253L164 254L172 250L174 247C173.333 245 174 244.333 176 245L184 236L183 232ZM176 235L166 240L162 245H167L176 237V235ZM193 235L190 236L181 247L182 248L184 247L193 237V235ZM184 239L171 253L175 252L184 241V239Z" fill="#090909"/>
<path opacity="0.996078" d="M211.5 213L214 214L210 227.5L207.5 230L207 222.5L211.5 213Z" fill="#090909"/>
<path opacity="0.996078" d="M225.5 216L226 217.5L217.5 232L217 229.5C218.2 223.367 221.033 218.867 225.5 216Z" fill="#090909"/>
<path opacity="0.996078" d="M139.5 221L141 221.5L137 227L140.5 228L142 227.5L136 231.5V233.5L130.5 240L126 239.5L134 230.5L132.5 230L125.5 236L125 234.5L134.5 224L139.5 221Z" fill="#090909"/>
<path opacity="0.996078" d="M32.5 228L42 236.5L46 243.5L44 242.5L42.5 240L33 231.5L32.5 228Z" fill="#090909"/>
<path opacity="0.996078" d="M214.5 228L216 228.5L215 231C213.2 230.267 212.533 230.767 213 232.5L212 234.5V236.5L204.5 246L202.5 247L203 245.5L214.5 228Z" fill="#090909"/>
<path opacity="0.996078" d="M66.5 243L70 245.5L80 262L74 258.5L64 245.5L65.5 245L67 245.5L66.5 243Z" fill="#090909"/>
<path opacity="0.996078" d="M75.5 244L80 247.5C83.5333 251.3 85.8667 256.3 87 262.5L94 271L86 264.5L84 258.5L77 249.5L75.5 244Z" fill="#090909"/>
<path opacity="0.996078" d="M110.5 244L114 246.5L118 255.5L115.5 261L112.5 256L110 256.5L115 265L107.5 262L108 263.5C108.533 265.033 108.033 265.533 106.5 265L100 261L105 270C99 270.2 95 268.033 93 263.5L92 260.5L97 263.5C97.4 260.433 96.7333 258.433 95 257.5L97.5 257L100 258L98 254.5L100.5 254L103 255.5C102.4 253.5 103.567 253 106.5 254L109.5 256L109 254.5L105 246.5L114 253.5L110.5 244Z" fill="#090909"/>
<path opacity="0.996078" d="M126.5 248C128.367 247.6 128.867 249.433 128 253.5L127 256.5C128.8 257.033 129.467 258.7 129 261.5L133.5 266L148 278.5L147 280.5L148.5 283L146 283.5L147 286L135.5 282L131.5 283L129 281.5C132.067 281.9 134.067 281.233 135 279.5L132.5 279L124 270.5L122 264.5L126 262.5V253.5L127 252.5L125 249.5L126.5 248ZM134 272L132 274L136 276L135 275L133 276L134 278L144 283L147 282L134 272Z" fill="#090909"/>
<path opacity="0.996078" d="M136.5 259L139.5 260L154 273.5L155 276.5C153.467 278.967 151.967 278.467 150.5 275L138 266.5L135 260.5L136.5 259Z" fill="#090909"/>
<path opacity="0.996078" d="M193.5 260L195 260.5L189 265C188 262.533 188.5 261.533 190.5 262L193.5 260Z" fill="#090909"/>
<path opacity="0.996078" d="M168.5 272L170.5 273L173.5 272L171.5 275C166.033 280.2 159.2 283.533 151 285L150 282.5L152.5 282L154 282.5L158 276L161.5 277L168.5 272Z" fill="#090909"/>
<path opacity="0.996078" d="M119 280L147 291.5L137.5 292C134.967 289.2 131.3 287.533 126.5 287L119 281.5V280Z" fill="#090909"/>
<path opacity="0.996078" d="M271.5 47L274 47.5L271.5 48V47Z" fill="#636363"/>
<path opacity="0.996078" d="M239.5 63L245 63.5L239.5 64V63Z" fill="#636363"/>
<path opacity="0.996078" d="M223.5 28L225 28.5L223.5 29V28Z" fill="#939393"/>
<path opacity="0.996078" d="M280.5 60L283 60.5L280.5 61V60Z" fill="#939393"/>
<path opacity="0.996078" d="M192.5 195L196 195.5L192.5 196V195Z" fill="#B7B7B7"/>
</svg>
