<svg width="381" height="384" viewBox="0 0 381 384" fill="none" xmlns="http://www.w3.org/2000/svg">
<path opacity="0.996078" d="M180.5 0H203.5L212.5 2H220.5L249.5 10L269.5 19L283.5 28L294.5 32L308.5 45C315.833 47.6667 321.667 51.8333 326 57.5L331 67.5L346 85.5L357 102.5L365 125.5L377 144.5L378 156.5C375.533 160.367 374.867 166.033 376 173.5L378 181.5V210.5C380 212.5 381 215.5 381 219.5C379.4 228.233 376.4 235.567 372 241.5L369 256.5C362.6 267.1 357.6 279.1 354 292.5L339.5 311L333 316.5L327 325.5L305.5 349L298.5 353L287.5 356L261.5 369L243.5 375L234.5 380L225.5 381L224.5 380H213.5L196.5 384H194.5L166.5 378L154.5 377L153.5 378H141.5C132.633 376.533 125.8 373.033 121 367.5C121.533 366.033 121.033 365.533 119.5 366L113.5 362L86.5 351L71.5 338L50.5 325L44 318.5L37 303.5L21 281.5L12 264.5L4 238.5L3 227.5L5 217.5C1.93333 211.567 0.266667 204.233 0 195.5L4 171.5V164.5C1.6 159.9 0.933333 153.567 2 145.5L7 130.5L23 99.5C26.4667 91.9667 31.3 85.8 37.5 81L41 78.5C44 70.5 48.5 64 54.5 59L80.5 41L93 28.5L97.5 23L101.5 21L114.5 20L130.5 12H133.5L154.5 4L180.5 0ZM184 9L180 11H170L162 14L148 16L145 18L129 22L120 27L106 29L94 38L92 41C88.6667 45.6667 84.3333 49 79 51L78 54C78.6667 55.3333 78.3333 55.6667 77 55L78 53L77 52L75 55L73 56C71 55.3333 70.3333 56 71 58C70.3333 59.3333 68.6667 59.6667 66 59L60 65C58 64.3333 57.3333 65 58 67L60 66V68L58 67L49 77L46 82V85L52 84C52.6667 82.6667 53.3333 83 54 85L52 86H55L56 85L59 89V90L57 88H56L59 94L58 96L59 98C59.6667 104 59 108.667 57 112L58 115L57 119H56C56.6667 115.667 56 114.333 54 115L53 130L46 140L36 160L29 168C33 166.667 36 164.333 38 161C37.3333 159 38 158.333 40 159L42 158C38.6667 161.333 36.3333 166.333 35 173L36 177L39 179L37 180C35 176.667 33 175.667 31 177L33 173L32 172H30L28 178L30 177C29.3333 180.333 30.3333 182.667 33 184V186L32 183L30 184L29 182L27 181L26 185C26.6667 186.333 27.6667 186.333 29 185L30 190L33 192L31 197V199C33 199.667 33.3333 202.333 32 207L39 219L43 221L47 229H46C40.6667 225.667 37 220.667 35 214C33 214.667 32.3333 214.333 33 213L31 212C31 216 32 219 34 221V222L30 218H28C25.3333 216.667 24 214.667 24 212H23C23.6667 213.333 23.3333 213.667 22 213L20 217L16 215L15 211C13 211.667 12.3333 210.667 13 208V206V199L11 195L10 181L8 185L9 188C10.3333 192 10 194.667 8 196V201L12 213L15 214L16 220H15C15.6667 218 15 217.333 13 218L11 227V241L16 258L27 279L30 281L34 282L37 281L40 274V271H42L40 267L43 268L38 258L39 256L40 260L42 261L41 253L34 241L36 240L45 255L47 256L46 253L47 251L51 264H52L51 257L46 245L48 244L51 251L54 263L53 266L56 267C56.6667 274.333 59.3333 279.667 64 283C63.3333 284.333 64 284.667 66 284L69 289L74 292H75L58 272L59 270L69 282L75 286L63 272L60 263L59 265L52 247L48 242L51 241L53 244L63 268L76 278L73 279L77 280L78 277L77 273L72 270L69 267L64 263L63 261L66 262L69 261L68 259C67.3333 257 66 256.333 64 257L56 248C56 241.333 54.3333 236.667 51 234L53 233L63 255L67 256L74 266L72 267L75 268L77 272L82 274C85.3333 275.333 86.3333 274.333 85 271L75 262L70 258C70.6667 254.667 70 252.667 68 252C66 252.667 65.3333 252.333 66 251V249L67 247L72 253L73 249L86 259L88 263C90.6667 262.333 92.6667 263 94 265V264L91 260L90 261V260L87 257L79 249L78 245L80 246C79.3333 248 80 248.667 82 248V246L85 251C86.3333 250.333 86.6667 251 86 253L88 252L81 242C80.3333 238.667 81 236.667 83 236L81 231C81.6667 225 81 220.333 79 217V202L82 188C84.6667 179.333 88.6667 172.333 94 167L108 154L129 146H143L147 148L149 147V149L157 155V154L159 155L158 157L168 165H170L171 170C170.333 172 171.333 172.333 174 171L177 180L181 181C181.667 177 180.667 174 178 172L179 165C179.667 171 181.333 176 184 180L185 191L187 192L191 180L192 184C189.333 184.667 188.333 187.333 189 192L184 199C185.333 203 185 205.667 183 207L184 209L185 208L187 196C188.333 196.667 189.667 196 191 194L192 195L189 196L190 201L187 206L188 207L189 205L191 204L189 208C188.333 209.333 189 209.667 191 209L190 212L191 214C191.667 218.667 190.667 221.333 188 222L187 218L184 225L183 227L188 225L191 221L192 222L189 227L192 225V231L206 223L207 221L205 219L197 224H194C198 220 200.333 215 201 209L204 207L202 219L206 216L209 217L208 221L209 223L216 218L215 217L217 213L222 212V211L219 212H216C216.667 208.667 219.333 207.333 224 208C228 205.333 230.667 201.667 232 197L235 195C234.333 201 231.667 205.667 227 209C225 208.333 224.333 209 225 211L227 210L228 211L224 213L220 219L216 222H214L200 227L199 230C197 229.333 196.333 230 197 232L194 233L192 236L195 234L196 235L198 234H200L198 237C196 236.333 195.333 237 196 239L204 236L206 237C205.333 238.333 203.333 238.667 200 238L196 241C186.667 248.333 180 258.333 176 271L177 280C179 280.667 179.333 281.667 178 283L179 286C178.333 288 179 288.667 181 288L179 279L180 272L181 281H183C182.333 283 183 283.667 185 283L186 288L194 293L201 294L202 296H201H199L201 298L205 295L207 296L213 293L215 294H214V295L221 292L224 293L230 285L235 271C235.667 265 234.667 261 232 259L229 257L230 260C231.333 266 230.333 270.333 227 273V274C228.333 274.667 228.667 274.333 228 273L230 272L227 277L225 274L222 279L211 285L209 288L218 284L217 287L222 283C223.333 283.667 223.667 283.333 223 282L226 280L228 279L225 283C223 282.333 222.333 283 223 285L219 288C214.333 287.333 211.667 288.333 211 291H205L195 288L193 286L189 284L186 278V265L191 255L203 246L212 244L223 246L225 248C226.333 247.333 226.667 248 226 250L229 249L232 251V250L223 244C221 244.667 220.333 243.667 221 241C218.333 240.333 216.667 241 216 243L214 240C215.333 238.667 215.333 237.667 214 237L209 240H205L211 236H216L226 241H228L227 240L224 237C222 233.667 218.333 232.667 213 234C212.333 231.333 213.333 229.667 216 229L213 227L211 228L222 220L237 203L238 196H240V194L243 193L245 194L249 193C251 193.667 251.667 193.333 251 192L255 190C256.333 184.667 258.667 180.667 262 178V173H263C263 180.333 261 185.667 257 189L259 194L258 193L255 194L254 197L256 200C257.333 200.667 257.667 200.333 257 199L260 197V191L265 179L264 178V169H261L264 165V163H259V168C256.333 166.667 255.667 164 257 160C252.333 160.667 249 160 247 158V160H242L245 169C246.333 169.667 246.333 170.333 245 171L242 163L240 166L236 168L238 164C238.667 161.333 237.667 160.667 235 162L231 165C230.333 163 231 162.333 233 163L234 160C237.333 158.667 238.667 159.333 238 162H239V159C241 159.667 241.667 159.333 241 158L235 155L232 161H231C230.333 157.667 231 156 233 156C233.667 153.333 233 152.333 231 153L229 148L230 146L232 150H234L225 138L221 128L222 126L230 141C229.333 142.333 230 142.667 232 142L235 148L237 147C238.333 146.333 238.667 147 238 149L244 152L245 154L237 149L236 151L248 157C250.667 157.667 252.667 157.333 254 156L251 155C249.667 152.333 248.667 152 248 154L241 149L239 147L237 145V144L242 146C244 146.667 244.667 146 244 144L240 143L236 139H238V138V136L248 141C249.333 141.667 249.667 141 249 139L242 137L238 133L241 134C242.333 134.667 242.667 134 242 132L238 131L232 124L229 122L231 125L233 134H232C226 130 222.333 124 221 116H222C221.333 118 222 118.667 224 118L226 123L229 125L226 119V117L233 121L238 128C237.333 130 238 130.667 240 130L241 128L250 135L262 138H268L279 134C283 130.667 286 126 288 120L289 111C290.333 109.667 290.333 108.667 289 108L288 111H287C286.333 107.667 287 106 289 106L287 95L285 93L282 81L278 78V77L277 74L275 75C274.333 71 273 68.3333 271 67C267.667 68.3333 266.333 67.6667 267 65L256 60C252 59.3333 249.667 59.6667 249 61L247 60L242 61L231 68L221 78C218.333 82.6667 217.667 90 219 100L217 99V84L221 74L230 66C228.667 61.3333 229.667 59.6667 233 61L234 63L243 58L239 55L237 52C239 51.3333 239.667 52 239 54H242V56L246 55L249 56L255 55L259 56H261L260 55L256 51L255 52L251 50C248.333 50.6667 247.333 50 248 48L253 50L255 49L257 50L261 54L262 53L266 54L265 51L268 53H269L265 49L263 50L251 44L247 38L245 39L242 38H240L235 36L236 39L231 38V40H228L225 39C223 38.3333 222.333 39 223 41L231 43L229 44L226 43L223 44C220.333 44.6667 219.333 44 220 42L221 40C219 39.3333 218.333 40 219 42L213 44H209L218 41L214 40H212H210L212 38H219L217 35L225 34V32L228 33L230 31L231 21C227.667 17.6667 223.667 15.3333 219 14H201L196 16H185L184 17L183 15L197 14L203 12H211L210 9L207 10L205 9H184ZM215 9L214 11L230 14L238 18H239L231 13C229.667 10.3333 228.667 10 228 12L215 9ZM241 17L243 20L255 25C256.333 25.6667 256.667 25 256 23L241 17ZM233 18L235 23H236L233 18ZM243 22L248 26H251L256 29H257C253 25.6667 248.333 23.3333 243 22ZM241 26L244 29L246 34C245.333 35.3333 246 35.6667 248 35L252 42C251.333 43.3333 252 43.6667 254 43L257 46L256 42L253 41L254 38L260 43L259 42L258 44L261 46L266 47V46L264 44L261 41L254 35L253 37C251 37.6667 250.333 37.3333 251 36L249 34L246 31L247 29L241 26ZM264 30L266 32V33L262 31L261 33L270 36C271.333 35.3333 271.667 36 271 38C271.667 39.3333 272.667 39.3333 274 38L278 41H279L274 36C272 36.6667 271.333 36.3333 272 35L264 30ZM238 31L234 34L240 35L238 31ZM257 32L256 34L260 36L257 32ZM283 36C282.333 39.3333 283.667 41.6667 287 43H288C285.333 41.6667 284.333 39.6667 285 37L283 36ZM261 38V40L264 42L276 45C278 48.3333 281.667 50.3333 287 51V50C286.333 47.3333 284.333 46.3333 281 47C278.333 43 274.667 40.3333 270 39V41L261 38ZM272 49L274 58L275 56L272 49ZM277 51L283 57H284L279 53C279.667 51 279 50.3333 277 51ZM285 51L284 53L289 56V55L285 51ZM302 51C304.667 56.3333 309.333 60.6667 316 64H317L302 51ZM298 53L299 57L305 62L300 55L298 53ZM292 54L297 60V59L292 54ZM310 54C308.667 56 309 56.6667 311 56L310 54ZM268 55L267 57L270 58L268 55ZM285 57L282 59L287 61L289 63L287 59L285 57ZM275 58L277 61V60L275 58ZM278 58L284 64V63L278 58ZM271 59V63L274 64L271 59ZM281 64L282 66H283L281 64ZM307 64L306 66L311 72H313L307 64ZM300 68L304 73V72L300 68ZM305 72C304.333 74 305 74.6667 307 74C307.667 72 307 71.3333 305 72ZM321 72C319.667 74 320 74.6667 322 74L321 72ZM290 73V77H291L290 73ZM316 76L315 78H316V76ZM292 77L291 79H292V77ZM307 79L306 81L311 85L307 79ZM331 83L332 86C333.333 86.6667 333.667 86 333 84L331 83ZM304 86C302.667 89.3333 303.667 91.6667 307 93H308L304 86ZM334 86V88L338 91L336 88C336.667 86 336 85.3333 334 86ZM329 88L327 91L338 109C337.333 111 338 111.667 340 111L336 101L329 88ZM43 89L38 92C38.6667 93.3333 38 93.6667 36 93L23 109L13 131L10 144L11 150L10 154L11 158L12 156L13 161L16 162C16.6667 160 16.3333 159.333 15 160V159L19 160L24 158L27 154L31 151L30 155L22 161L19 162C17 161.333 16.3333 162 17 164L26 163L33 154L36 144L38 143L37 146L38 148L43 140C43.6667 134 45.3333 129.333 48 126L49 115H50V123L48 131H50L51 121V119L53 112V110L52 103L56 106L54 113H56L58 103L57 94L55 99C55 94.3333 53.6667 91.6667 51 91V89H43ZM287 89L286 91H287V89ZM313 89V93H314L313 89ZM316 89L317 91C317.667 89 317.333 88.3333 316 89ZM323 92L322 94L329 103L335 118H336L331 103L323 92ZM304 93L305 95C305.667 93 305.333 92.3333 304 93ZM315 93L314 95L316 96L315 93ZM317 95C316.333 97 317 97.6667 319 97C319.667 95 319 94.3333 317 95ZM341 96L340 98H341V96ZM312 97L311 99H312V97ZM331 97L330 99H331V97ZM344 97V103L346 104C346.667 100 346 97.6667 344 97ZM304 100V107L306 108C306.667 104 306 101.333 304 100ZM333 100L332 102H333V100ZM347 104L346 107L349 113H351L347 104ZM319 106L318 108L325 117H326L319 106ZM310 109L309 111L314 120L315 126H317C315.667 124.667 315.333 122.333 316 119L310 109ZM351 114L353 118V116L351 114ZM339 115L340 122L342 123L339 115ZM347 115L348 118L350 127H351L349 117L347 115ZM309 118C307.667 120 308 120.667 310 120L309 118ZM354 118L357 132L359 133L356 122L354 118ZM338 120L337 122H338V120ZM312 123V127H313L312 123ZM304 124L306 129C307.333 128.333 307.333 127.667 306 127C306.667 124.333 306 123.333 304 124ZM230 126L229 128H230V126ZM338 126V131L340 132L338 126ZM342 126C340.667 129.333 341 131.333 343 132L344 129L345 131V129L342 126ZM328 128V133L330 132L328 128ZM322 129V138L324 137L322 129ZM353 129L352 132H353V129ZM302 130C301.333 132 302 132.667 304 132C304.667 130 304 129.333 302 130ZM298 131L297 135H298V131ZM334 133C332.667 135 333 135.667 335 135L334 133ZM346 133V139L348 140L347 135C347.667 133 347.333 132.333 346 133ZM358 133L357 141L361 151H362L358 133ZM360 133V139H361C361.667 135.667 361.333 133.667 360 133ZM307 135L305 138L306 142H307V135ZM303 137L301 145H300L301 141L299 140C299.667 142.667 298.667 144.667 296 146V149C293.333 149.667 293 150.667 295 152L294 155L295 170H296L295 164L296 155L299 151L298 149L299 145L300 148L305 144L303 137ZM354 139L353 144H354V139ZM362 139L361 143H362V139ZM295 140L294 142H295V140ZM320 140C318.667 144 319 147 321 149V159L323 162L324 153V145L323 150L320 140ZM336 140L335 142H336V140ZM338 140C336.667 142 337 142.667 339 142L338 140ZM341 144V146L340 148L342 150L343 168L345 175H346L344 157V155L342 148C342.667 144.667 342.333 143.333 341 144ZM42 145L40 147H42V145ZM347 145L349 160H350V154L347 145ZM352 145L351 147H352V145ZM248 146C247.333 147.333 248.333 148 251 148H253C255 148.667 255.667 148 255 146L253 147L248 146ZM290 146V150L292 149C292.667 146.333 292 145.333 290 146ZM259 147V149L261 148L259 147ZM334 147L333 152H334V147ZM369 148V151L367 157C366.333 160.333 367 163 369 165L370 156C370.667 151.333 370.333 148.667 369 148ZM293 149L292 153H293V149ZM327 149L325 159L327 161L328 153L327 149ZM355 149L357 167L360 171V177L362 176L360 164L359 166L357 155L355 149ZM319 150V154H320L319 150ZM360 150L359 153L361 154L360 150ZM130 151L119 153L104 161L91 176L82 200L83 221L86 234L88 235L86 227V221L88 222L87 224L94 239L98 242C97.3333 240 98 239.333 100 240L105 246C106.333 245.333 106.667 246 106 248L112 252L111 250L112 247L120 252H122L124 249L136 251L134 249L136 247L140 249L147 246V245L142 247L139 246C137 246.667 136.333 246 137 244L148 243L151 241L147 240L148 238L153 234L155 235L158 231L152 233L151 232L154 230L163 216V214L164 210C162.667 206 163.333 204.333 166 205L167 207L169 202C169.667 200 169.333 199.333 168 200V199L167 197L168 194L166 186V184L168 185V183L165 180C163 179.333 162.333 178 163 176V174C165 174.667 165.667 174.333 165 173L161 171L160 169H162H163L161 167L154 157C152 157.667 151.333 157 152 155L140 151H130ZM255 151L254 153L256 152L255 151ZM352 151V162H353C353.667 157.333 353.333 153.667 352 151ZM261 153L263 157L264 155L261 153ZM277 153L278 158L279 156C279.667 153.333 279 152.333 277 153ZM292 153C290 153.667 289.333 155.333 290 158L292 157V153ZM287 155L286 158H287V155ZM312 155L311 158L313 162L311 168L307 170V168C305 168.667 304.333 170.333 305 173L302 170C300 170.667 299.333 170.333 300 169H299C298.333 171 299 171.667 301 171L302 174L307 176C308.333 175.333 308.333 174.667 307 174L308 172L310 175L314 169L315 163L314 157C314.667 155 314 154.333 312 155ZM360 155L359 158H360V155ZM270 158L269 160H270V158ZM338 158L336 160L337 163H338V158ZM364 158V174L366 183V185L368 191L369 189C367 185 366.333 179.667 367 173L365 167L366 165L364 158ZM273 159L270 165L271 168L273 164V159ZM348 160L347 165H348V160ZM311 161L308 167H310L311 165V161ZM351 161L350 163H351V161ZM161 163L162 165C163.333 164.333 163.667 165 163 167C165 167.667 165.667 167.333 165 166L161 163ZM280 163L277 173L278 175L281 166L280 163ZM292 163V164H293L292 163ZM320 164L318 166L320 167V164ZM338 164L337 167H338V164ZM290 165C288.667 167 289 167.667 291 167L290 165ZM354 165V170L353 172L354 175L353 177L355 180L356 175C354 173.667 353.667 171 355 167L354 165ZM12 166L10 175L11 186L14 190V196L20 206L21 204V200L17 194L18 191C18.6667 185.667 18 182 16 180L15 183C15 179 14 176.333 12 175L13 169L12 166ZM18 167L16 169H18V167ZM28 168L26 170H28V168ZM273 171L271 173C270.333 175 271 175.667 273 175V171ZM294 171C294.667 173 294 173.667 292 173L291 176C291.667 178 293.667 178.667 297 178L296 176C297.333 172 296.667 170.333 294 171ZM369 173L368 176H369V173ZM19 174L18 178L21 188H22L20 176L19 174ZM25 174L22 179C22.6667 180.333 23.6667 180.333 25 179L24 181L25 183L27 179L25 174ZM268 174V178C265.333 179.333 264 182.333 264 187H266L262 195L263 202C263 197.333 264.333 193.667 267 191L268 181L270 178C270.667 174.667 270 173.333 268 174ZM329 176L327 180H329V176ZM333 176L332 182V184C331.333 186.667 332 187.667 334 187V178L333 176ZM339 176L338 180L339 182L341 178C341.667 176 341 175.333 339 176ZM362 177L361 178C359 177.333 358.333 178 359 180L362 181V177ZM369 177L370 179C370.667 177 370.333 176.333 369 177ZM271 179L269 183L270 187L271 184V179ZM291 179L289 184C291.667 184.667 292.667 184.333 292 183C294 181.667 293.667 180.333 291 179ZM357 179L356 181H357V179ZM181 182L180 186L182 185L181 182ZM277 182L275 185C274.333 186.333 275 186.667 277 186V182ZM326 182L325 184H326V182ZM178 183L177 185H178V183ZM279 183L280 186L281 184L279 183ZM358 183L357 193L356 194C355.333 196 356 196.667 358 196L359 191L358 183ZM365 183L364 185H365V183ZM285 184L282 188L283 189L288 186L285 184ZM328 185L326 193H328L330 189C330.667 185.667 330 184.333 328 185ZM355 185L353 187L354 190L353 192C351.667 196.667 352.333 198.667 355 198V185ZM295 186L294 190C293.333 191.333 294 191.667 296 191L297 188C297.667 186 297 185.333 295 186ZM303 186L301 190L303 193L305 190C305.667 186.667 305 185.333 303 186ZM309 186L307 190L309 191V186ZM319 186V190H320L319 186ZM25 187C23 191.667 23.3333 195 26 197V198L20 191L18 192L23 202C22.3333 206 23 209 25 211V209V207L26 202H27V211H29V195L25 187ZM276 187L271 192V194L274 193L273 198L274 200L277 195L276 193L278 188L276 187ZM362 187L361 193H362V187ZM363 187V199L365 200V188L363 187ZM292 190L291 192L281 198C279.667 202.667 277.333 206.667 274 210H273L278 203V200C279.333 198.667 279.333 197.667 278 197L271 208L272 210L270 214L272 215C269.333 217.667 268 222 268 228L267 227H266C266.667 229 266 229.667 264 229L265 232V231H266L265 233L266 243L267 237L269 236L267 241L268 252L270 253L269 251L270 244L271 248L270 250L272 249L276 252L275 250L276 248L278 249V247V244L275 245L274 242C272.667 237.333 273 234.667 275 234L274 232C275.333 222.667 279 216 285 212L291 207L302 205L306 207L310 217L312 218V214L308 208C306.667 204 303.667 201.667 299 201H297C294.333 200.333 292.667 201 292 203C292.667 204.333 292.333 204.667 291 204V203V201L288 203L289 205L287 206C287.667 204 287 203.333 285 204L280 215L278 216L281 211L279 210L284 203L288 200V198L286 199L281 203L282 201C284.667 197 288 194.667 292 194V190ZM317 190L315 192H317V190ZM30 191L29 193L31 194L30 191ZM301 191L299 193H301V191ZM306 191L305 194L308 195C308.667 193 308 192.333 306 193V191ZM282 193L283 197L284 195C284.667 193 284 192.333 282 193ZM297 193V194H298L297 193ZM326 194L321 204L322 209L325 200V205L327 204L326 194ZM183 195L182 197H183V195ZM267 195L268 198L269 196L267 195ZM321 195L320 197H321V195ZM244 196L240 201V203L236 209C235.333 210.333 236.333 210.667 239 210L246 198C246.667 196 246 195.333 244 196ZM269 196L268 199C267.333 200.333 268 200.667 270 200L271 198C271.667 196 271 195.333 269 196ZM349 196L345 205L347 214L350 203C350.667 199 350.333 196.667 349 196ZM247 198L244 202L245 203L248 200L247 198ZM249 198L247 203C247.667 204.333 247.333 204.667 246 204L242 210L243 211L247 208L250 204L251 199L249 198ZM266 198L263 203L264 205L266 200V198ZM180 199L179 201H180V199ZM370 199L369 202V204L368 206C370.667 206.667 371.333 205.333 370 202C371.333 200.667 371.333 199.667 370 199ZM258 201L255 210L254 204L251 209L254 214C255.333 217.333 255 219.667 253 221C252.333 225.667 253 229.333 255 232L252 237L248 241L250 242L252 241L257 231L256 229L258 218H260L264 210C264.667 208 264.333 207.333 263 208C259 210.667 256.667 214.667 256 220H255L257 210L260 206L258 201ZM270 201L267 204L266 214L261 221L262 224L264 223L267 218V214L271 205L270 201ZM318 201L317 204L318 206L317 210H319L320 203C320.667 201 320 200.333 318 201ZM361 201L359 208L358 226L352 240L353 242L359 229V221L363 211L362 209L363 207H362L361 201ZM179 203L176 210L177 211L179 208V203ZM16 204L15 209L19 215L20 210C19.3333 208 18.6667 207.667 18 209L16 204ZM81 206L80 208H81V206ZM332 206L328 218L329 220L332 213V206ZM324 208L323 211L324 214L326 210C326.667 208 326 207.333 324 208ZM169 209L163 221H165L169 215V209ZM251 209L248 212L247 211L238 222L240 223H237L236 226L238 227L240 226C239.333 227.333 240 227.667 242 227L243 224L242 222L251 211V209ZM345 210L343 213L345 214V210ZM235 211L232 216L227 219L219 228L216 230L215 232L224 230V229C222 229.667 221.333 229.333 222 228C224.667 223.333 229 220.333 235 219V222L231 224C229 223.333 228.333 224 229 226L225 227L226 229L233 226L237 221L235 214C236.333 212.667 236.333 211.667 235 211ZM318 211L317 213H318V211ZM186 212L182 217L183 221L186 216V212ZM369 212L368 214H369V212ZM28 213L26 215L27 217H28V213ZM239 213L237 215C236.333 217 237 217.667 239 217V213ZM371 214L367 215V224L366 223L364 224L365 230H366C365.333 226.667 366 225.333 368 226L369 219C368.333 217 369 216.333 371 217V214ZM217 216V217H218L217 216ZM250 216L246 223L247 224L252 218C252.667 216 252 215.333 250 216ZM306 216C304 216.667 303.333 218.667 304 222L306 221V216ZM82 217L81 219H82V217ZM199 219L198 221L200 220L199 219ZM310 220V225V226C311.333 226.667 311.667 226.333 311 225C313 223.667 313.333 222.667 312 222C312.667 220 312 219.333 310 220ZM344 220V223L346 222C346.667 220 346 219.333 344 220ZM181 221L177 226L178 227L181 223V221ZM161 223L158 224L157 227L158 229L160 228L162 224L161 223ZM331 224L329 227H331V224ZM247 226L238 233C237.333 235 238.333 235.667 241 235L244 230L246 231L248 227L247 226ZM341 226L339 230L341 229V226ZM191 227L189 231C188.333 232.333 189 232.667 191 232V227ZM311 227L306 238L308 239C307.333 240.333 306.667 240.333 306 239L303 244C301 247.333 298 249.667 294 251C292 251.667 291.667 252.667 293 254L292 253L285 255L281 253L276 256L280 258C282 258.667 282.667 258 282 256L285 257H284V258C292.667 256.667 299.333 253.333 304 248L306 246L312 232C313.333 228 313 226.333 311 227ZM186 228L184 232C183.333 233.333 184 233.667 186 233L188 229L186 228ZM253 228L247 237H249L253 231V228ZM302 228L299 232L300 235L302 230V228ZM306 228L303 233L304 236L306 233V228ZM230 229L226 230L225 232C227.667 231.333 228.333 232.333 227 235L233 234L231 237L233 238L236 233L238 230L231 233L233 230L230 229ZM341 230L339 233L341 232V230ZM363 230C361 230.667 360.333 232.333 361 235L363 234V230ZM220 231V233H224L220 231ZM244 231L243 233L245 232L244 231ZM297 231L295 234H297V231ZM181 232L179 235L181 234V232ZM359 233L358 235H359V233ZM291 234L288 238L289 239L291 236V234ZM348 234L345 238L346 242L348 238V234ZM296 235L295 237H296V235ZM358 235L357 237H358V235ZM261 236L259 240L260 252H261C262.333 247.333 262 244.667 260 244L261 242V236ZM286 236L285 238H286V236ZM340 236L339 238H340V236ZM180 237L178 239L179 241L180 239V237ZM228 237V240L234 243L235 240H234L228 237ZM256 237L255 239H256V237ZM299 237L292 246L293 248L297 245L298 243L296 244L299 240V242L302 240C302.667 236.667 301.667 235.667 299 237ZM184 238L182 241L184 240V238ZM194 238C193.333 240 191.667 240.667 189 240L183 249L187 246C188.333 246.667 188.667 246.333 188 245L194 240V238ZM285 238L283 241L285 240V238ZM85 239V244L90 248L85 239ZM92 239L91 241L93 242L92 239ZM239 239L237 241H239V239ZM364 239L363 241H364V239ZM303 240L302 242H303V240ZM288 241V242H289L288 241ZM363 241L360 246L358 256H356L358 259L360 256L363 244V241ZM99 242L98 244L101 246L99 242ZM257 242L256 244L255 247V248L257 249V255H258C258.667 249.667 258.333 245.333 257 242ZM342 243L338 248H340L342 245V243ZM290 244L288 246L289 249H288C288.667 247 288.333 246.333 287 247L285 251C288.333 251.667 290.333 251 291 249C292.333 245 292 243.333 290 244ZM102 246L101 247C99 246.333 98.3333 247 99 249L103 251H104L102 246ZM182 246L180 248L181 250L182 248V246ZM238 246L237 250H238V246ZM279 247V250L281 249C281.667 247 281 246.333 279 247ZM265 249V254L267 255C268.333 250.333 267.667 248.333 265 249ZM330 249L328 255L329 256L332 251C332.667 249 332 248.333 330 249ZM346 249L343 252L344 254L346 251V249ZM183 251L179 256L178 259H180L183 253V251ZM233 251L230 254L233 255H235L233 251ZM336 251L334 254H336V251ZM88 252L91 257C92.3333 256.333 92.6667 257 92 259L101 264V263L88 252ZM238 252L237 254H238V252ZM240 252C239.333 254 240 254.667 242 254V258V259C243.333 259.667 243.667 258 243 254L240 252ZM271 252V255L274 256L273 254C273.667 252 273 251.333 271 252ZM286 252V253H287L286 252ZM71 254L72 258L75 259C76.3333 258.333 76.6667 259 76 261L81 263L85 269L88 271L94 279C93.3333 281.667 94 282.667 96 282L99 287L109 292L114 293L115 296L101 291L100 294L109 300L118 302L119 305C123 305 126.333 306.333 129 309H130L124 304H122H120L122 303L110 298L108 295L113 298L129 300L142 305C143.333 304.333 143.667 302.667 143 300L138 296C136 295.333 135.333 296 136 298C139.333 297.333 141.333 298.333 142 301L140 302L128 299L120 295C118 295.667 117.333 295.333 118 294C116 290.667 113 289 109 289L103 285L104 283L114 289L116 288L104 282H102L98 276C93.3333 274.667 89.6667 272 87 268C85 268.667 84.3333 268.333 85 267L84 264L94 273H97C97.6667 274.333 98.3333 274.333 99 273L97 268L95 267L96 269V270L81 258H77L71 254ZM254 254L249 261L250 262L254 256V254ZM343 254L342 256H343V254ZM77 255C75.6667 257 76 257.667 78 257L77 255ZM48 256L47 258H48V256ZM325 257L324 260L325 261L327 258L325 257ZM346 257L344 260L345 265L346 260C347.333 258.667 347.333 257.667 346 257ZM356 257L353 262H355L356 260V257ZM172 259L165 271L166 274L172 262V259ZM208 259L207 261L210 260L208 259ZM335 260L326 278L327 279C331 274.333 333.667 268.667 335 262V260ZM176 262L174 265H176V262ZM336 262L335 266H336V262ZM340 262L339 266L340 267L342 263L340 262ZM149 264V267L154 265L149 264ZM267 264L263 270L264 272L268 266C268.667 264 268.333 263.333 267 264ZM271 264L269 266H271V264ZM351 264L349 269L351 268V264ZM355 264L351 270L353 272L355 267V264ZM158 265L155 267C156.333 269 157.333 269 158 267V265ZM173 265V268C175 267.333 175 266.333 173 265ZM227 265L224 270C224.667 271.333 224.333 271.667 223 271L218 276L217 275C215 276.333 215 277.333 217 278L219 277C220.333 277.667 220.667 277.333 220 276L225 273L227 270V265ZM45 266L44 268H45V266ZM134 267L136 269C139.333 269.667 141.333 269.333 142 268L134 267ZM170 267L167 275C166.333 276.333 167 276.667 169 276L170 271V267ZM253 267L252 269H253V267ZM127 268V270L130 271C131.333 271.667 131.667 271 131 269L127 268ZM215 268L214 272L217 270C217.667 268 217 267.333 215 268ZM343 268L335 281L336 283L343 273V268ZM110 269V271L112 272C112.667 269.333 112 268.333 110 269ZM347 269L346 274L347 275L349 272C349.667 269.333 349 268.333 347 269ZM50 270C48.6667 273.333 49 275 51 275V273L50 270ZM114 270L113 272H116L114 270ZM252 270L251 272H252V270ZM143 271V272H144L143 271ZM260 271L259 273H260V271ZM351 271L346 283L345 282C339 286 335.333 292 334 300L335 303L340 290L345 284L346 287L348 285C347.333 279.667 348.333 276 351 274V271ZM213 272L211 275L214 274C214.667 272 214.333 271.333 213 272ZM273 272L267 279L268 280L271 278L273 275V272ZM121 273C120.333 275 121 275.667 123 275C123.667 273 123 272.333 121 273ZM161 273V275L160 278L163 276C163.667 273.333 163 272.333 161 273ZM250 273C249.333 275 250 275.667 252 275C252.667 273 252 272.333 250 273ZM306 273L303 275C301 274.333 300.333 275 301 277L306 275V273ZM312 273L308 276L309 277L312 275V273ZM68 274L69 278L72 280L70 276L68 274ZM86 274V276L91 279L88 276C88.6667 274 88 273.333 86 274ZM104 274L103 275C101 274.333 100.333 275 101 277L106 279H110L104 276V274ZM107 274L108 276H111L107 274ZM116 274V276L120 275L116 274ZM260 274L255 279L257 280L260 276V274ZM166 275L164 279L165 281L166 278C167.333 276.667 167.333 275.667 166 275ZM209 275V277L211 276L209 275ZM82 276L83 278C83.6667 276 83.3333 275.333 82 276ZM131 276V277H135L131 276ZM159 276L157 278L155 277L145 278L143 280L150 281L153 279L158 283C157.333 284.333 158 284.667 160 284L161 282V279L159 280V279V276ZM207 276L203 281L208 278C208.667 276 208.333 275.333 207 276ZM213 277L211 279L212 281L214 278L213 277ZM58 278L62 284H63L60 280L58 278ZM125 278V280L130 281C133.333 281.667 135.333 281.333 136 280L125 278ZM262 279L256 286L257 287L263 280L262 279ZM334 279L332 281H334V279ZM208 280L201 284V285L206 284L209 282C209.667 280 209.333 279.333 208 280ZM113 281L118 287L123 284L120 282L118 283L113 281ZM124 281L126 283C126.667 281 126 280.333 124 281ZM140 281L139 282H131L128 284L138 286L148 284C146.667 281.333 144 280.333 140 281ZM172 281L170 287L174 288C174.667 286 174 285.333 172 286V281ZM200 281V282H202L200 281ZM306 281L304 283H307L306 281ZM154 282L155 283L156 284C156.667 282 156 281.333 154 282ZM254 282L252 285L254 284V282ZM333 282L328 292L329 294L333 284V282ZM93 283L89 284L90 286C91.3333 285.333 91.6667 286 91 288L96 289L97 290L93 283ZM274 283L272 285H274V283ZM183 284V287H184C184.667 284.333 184.333 283.333 183 284ZM292 285L290 286C288 287.333 288 288.333 290 289L292 288V285ZM304 285L301 287C299 286.333 298.333 287.333 299 290L297 289L286 298C284 297.333 283.333 298 284 300L287 299L288 300L282 304C282.667 305.333 282 305.667 280 305L278 311L281 310L276 321C274.667 324.333 275.333 325.667 278 325V321L283 309L293 295L297 292H300C299.333 290 300.333 289.333 303 290L306 286L304 285ZM309 285L307 288L310 287C310.667 285 310.333 284.333 309 285ZM84 286L85 290L93 295H94L96 299L100 301C102 301.667 102.667 301 102 299L94 292C92 292.667 91.3333 292.333 92 291L89 288L90 291L86 288C86.6667 286 86 285.333 84 286ZM126 286L123 289L127 291C128.333 290.333 128.667 291 128 293H131L129 292L133 291L130 288L126 286ZM161 286L157 289H159L158 291L159 293L154 295V296L159 295L160 293V291L161 288L162 290L163 287L161 286ZM167 286V292H168L167 286ZM273 286L271 289L273 288V286ZM312 286L310 288L313 289L312 286ZM59 287L58 289L60 290L59 287ZM140 287V288H141L140 287ZM142 287V289L144 288L142 287ZM144 288V291L147 290L144 288ZM256 288L254 291L257 289L256 288ZM65 289L64 291L67 292L68 295L73 298H74L65 289ZM117 289L121 294L123 293L125 294H128L117 289ZM135 289C134.333 290.333 135 290.667 137 290V291C135 290.333 134.333 291 135 293L140 292C139.333 289.333 137.667 288.333 135 289ZM142 289L140 291H142V289ZM151 289V291V293L150 295H153L154 293L157 291C156.333 289 155.667 288.667 155 290L151 289ZM336 289C336 291 335 291.667 333 291L330 298L331 300L336 292V289ZM148 290L147 292L150 291L148 290ZM163 290L161 294H164L165 291L163 290ZM184 290L183 292L187 294L184 290ZM248 290L240 300L241 301L248 292V290ZM263 290L259 296V297L263 294V290ZM173 292L172 294L174 295L173 292ZM285 292L283 293L278 300H280L286 293L285 292ZM56 293V295L59 296L58 295C58.6667 293 58 292.333 56 293ZM166 293L164 295H166L165 305L167 304H168V298C170 298 170.667 296.667 170 294L166 293ZM177 294L176 297L179 299L177 294ZM188 294V295H189L188 294ZM194 294L190 296H195L194 294ZM221 294L218 296L216 299L221 296V294ZM80 295L79 297L87 302V300L80 295ZM86 295L85 297L91 301C92.3333 301.667 92.6667 301 92 299L86 295ZM90 295L92 297L95 301H96L94 298L90 295ZM128 296V297H129L128 296ZM149 296L146 300V301C147.333 301.667 147.667 301.333 147 300L153 297L149 296ZM54 297L53 299L56 301L54 297ZM207 297V298H208L207 297ZM339 297L338 299H339V297ZM173 298L171 300L173 304L174 302L173 298ZM333 300L332 302H333V300ZM110 301L109 304C111 306 114.333 307 119 307L121 310L109 305H100L91 307L90 313L89 316L91 323C90.3333 324.333 91 324.667 93 324L92 319L95 317L94 323L97 324L95 315L98 313L113 314L128 322L131 327C131.667 329 133.333 329.667 136 329C136.667 327 135.667 326.333 133 327C133 321.667 131 318 127 316L128 314L132 316L133 317L131 313L118 304L110 301ZM58 302L57 304L61 306L58 302ZM82 302L85 306L86 303L82 302ZM183 302L181 305L183 304V302ZM275 302L273 305L275 304V302ZM332 302L330 305L332 304V302ZM62 303L61 305L73 314H74L62 303ZM74 303L82 312L77 304L74 303ZM146 304L145 306L148 305L146 304ZM177 304L175 306C173 305.333 172.333 306 173 308L177 306V304ZM261 304L245 318H248L252 313L262 305L261 304ZM82 305L83 307C83.6667 305 83.3333 304.333 82 305ZM150 305L147 306C146.333 308 147 308.667 149 308H151L152 309H151L153 312L164 310C165.333 310.667 165.667 310.333 165 309L166 307L161 309H157L150 305ZM185 305L184 307H185V305ZM330 305L323 314L319 316L315 321L306 327L310 328L317 320L322 317L330 307V305ZM167 306V307H168L167 306ZM48 307L51 314C50.3333 315.333 51 315.667 53 315L50 309L48 307ZM134 307V309L139 311H140L134 307ZM170 309C164.667 312.333 158.333 314.333 151 315H154L156 316C155.333 318 157 318.333 161 317H163L166 319C168 317.667 167.667 316.667 165 316L167 315V314L164 315H161L170 312L171 310L170 309ZM316 309L311 312L312 314L302 321L300 324L307 321L316 311V309ZM142 310L141 312H142V310ZM239 310L232 315L231 317C234.333 316.333 237 314.667 239 312V310ZM272 310L266 318L267 319L269 316C268.333 314 269 313.333 271 314L273 311L272 310ZM62 311L65 314V312L62 311ZM134 311L135 313H136L134 311ZM138 311C136.667 313 137 313.667 139 313L138 311ZM146 311L144 313L148 315H150V314L146 311ZM214 311C213.333 313 211.333 313.667 208 313L207 315L216 313C216.667 311 216 310.333 214 311ZM176 312V313H177L176 312ZM180 312L178 313V314C180.667 314.667 182.667 314.333 184 313L180 312ZM306 312L305 314H306V312ZM57 313L56 315L59 316V314L57 313ZM62 313L61 315L66 318H67L62 313ZM173 313L172 314C168.667 313.333 167.333 314 168 316L171 317L175 314L173 313ZM142 314V315H143L142 314ZM260 314L255 323H257L262 315L260 314ZM175 315L174 317L176 316L175 315ZM189 315L184 317V318L194 317C193.333 315 191.667 314.333 189 315ZM137 316L142 323C143.333 323.667 143.667 323.333 143 322L137 316ZM296 316L294 317L293 319L296 318V316ZM251 317L250 320H252L253 318L251 317ZM272 317L270 320L271 322L272 320V317ZM70 318L75 324C75.6667 322.667 76.6667 323 78 325H79L72 318H70ZM133 318L135 323H136L133 318ZM147 318V320L150 321L152 320L147 318ZM234 318L230 320L228 323C231.333 323 233.667 321.667 235 319L234 318ZM144 319L143 321H146L144 319ZM195 319V320H196L195 319ZM60 320V321H61L60 320ZM67 320L68 322H70L67 320ZM153 320V323C155 322.333 155 321.333 153 320ZM170 320L168 322L169 323L172 322L170 320ZM201 320L202 322H204L201 320ZM267 320L263 327L264 328L269 321L267 320ZM156 321L155 323H156V321ZM179 321L178 323L185 322L179 321ZM176 322L175 324H176V322ZM261 322L259 325L261 324V322ZM66 324L67 326H68L66 324ZM94 325L93 328H94V325ZM96 325L95 327H96V325ZM192 325L190 326L189 328L192 327V325ZM196 325L194 328L199 327C199.667 325 198.667 324.333 196 325ZM295 325V327L297 326L295 325ZM70 326L72 329L87 337V336L70 326ZM117 326V327H118L117 326ZM182 326L181 327H172L170 329L175 330L184 327L182 326ZM201 326V327H202L201 326ZM212 326V328L216 327L212 326ZM152 327L151 329H155L152 327ZM159 327V328H160L159 327ZM210 327L211 329C211.667 327 211.333 326.333 210 327ZM288 327L286 331C283.333 330.333 282.333 331 283 333H286L290 330C290.667 327.333 290 326.333 288 327ZM85 328C83.6667 330 84 330.667 86 330L85 328ZM146 328C145.333 330 146 330.667 148 330C148.667 328 148 327.333 146 328ZM279 328L274 334L275 335L279 330V328ZM292 328V330L295 329L292 328ZM140 329L139 331H140V329ZM166 329V331L169 330L166 329ZM191 329L190 331L192 330L191 329ZM196 329L195 330C193 329.333 192.333 330 193 332H190L186 335C182 334.333 179.667 335 179 337L176 340L175 344C174.333 346 175 347.333 177 348V347L180 342C182 342.667 182.667 342 182 340L193 336C201.667 335.333 208.333 335.667 213 337L212 334L209 335H207L208 332L203 330C202.333 332.667 200.333 333.667 197 333H194C195.333 331 197.667 330.333 201 331L196 329ZM132 330L130 334L133 332C133.667 330 133.333 329.333 132 330ZM174 330L173 332H174V330ZM216 330C215.333 332 216 332.667 218 332C218.667 330 218 329.333 216 330ZM298 330V332L300 331L298 330ZM187 331L186 333L188 332L187 331ZM91 332L92 334H93L91 332ZM99 332L100 334H102L99 332ZM134 332L132 335L135 333L134 332ZM180 332L178 335H180V332ZM117 333L115 336L119 335H121H123C122.333 333 120.333 332.333 117 333ZM177 333V334H178L177 333ZM256 333L254 336L257 334L256 333ZM90 334L89 336H90V334ZM95 334V335H96L95 334ZM128 334V335H129L128 334ZM171 334L170 335C167.333 334.333 166.333 335 167 337L173 335L171 334ZM175 334V335H176L175 334ZM242 334L237 337C235 336.333 234.333 337 235 339L244 335L242 334ZM304 334L300 337L301 338L305 335L304 334ZM99 335L101 338V337L99 335ZM124 335L118 337V338L125 337C125.667 335 125.333 334.333 124 335ZM148 335C147.333 337 148 337.667 150 337C150.667 335 150 334.333 148 335ZM103 336V339L106 340C107.333 340.667 107.667 340.333 107 339L103 336ZM215 336L213 339L217 337L215 336ZM108 338L107 342L112 343C115.333 341.667 116.667 342.333 116 345L120 346L125 345L119 344L121 343H123L128 342C131.333 343.333 132.667 342.667 132 340L127 339C125 338.333 124.333 339 125 341L124 340L120 341C118.667 339 116.333 338.333 113 339H111L108 338ZM246 338L245 340H246V338ZM294 338L283 346V347H286L294 340V338ZM303 338L301 340H303V338ZM164 340V341H165L164 340ZM259 340L253 343L250 347L259 342V340ZM260 340V342L262 341L260 340ZM89 343L91 346L100 350H101L97 346C94.3333 346.667 93.3333 346 94 344L89 343ZM268 343L265 345L263 348L269 344L268 343ZM192 344L191 346H192V344ZM274 344L273 346H274V344ZM171 345L169 348L171 347V345ZM201 347L200 349L203 348L201 347ZM281 347L277 349L276 351C278.667 351 280.667 350 282 348L281 347ZM102 348V350L109 352H111L102 348ZM143 348L142 350H143V348ZM178 348L175 350L178 351V348ZM209 348L207 350C205 349.333 204.333 350 205 352C207.667 352.667 209.333 352 210 350C210.667 348 210.333 347.333 209 348ZM212 349V350H213L212 349ZM230 349L228 350L227 352L232 350L230 349ZM257 349L253 351L250 355L258 350L257 349ZM274 349L273 351H274V349ZM202 350V351H204L202 350ZM268 350L265 352V353L269 352C269.667 350 269.333 349.333 268 350ZM271 350V351H272L271 350ZM190 351L189 353H190V351ZM132 352L131 354H134L132 352ZM176 352L178 354C178.667 352 178 351.333 176 352ZM271 352L259 360L258 362C263.333 360 268 357 272 353L271 352ZM142 353C140.667 355 141 355.667 143 355L142 353ZM152 353V354H155L152 353ZM200 353C198.667 355 199 355.667 201 355L200 353ZM262 353C261.333 355 262 355.667 264 355C264.667 353 264 352.333 262 353ZM193 354L191 356H193V354ZM196 354V356H199L196 354ZM211 354L210 356L212 355L211 354ZM121 355L119 357L122 358C123.333 358.667 123.667 358 123 356L121 355ZM242 355L238 357L239 359L244 356L242 355ZM124 356V358H129V356H124ZM188 356L186 358L195 360H197H200C198.667 357.333 195.667 356.667 191 358L188 356ZM205 356L202 357L201 359C205 359.667 207.667 359 209 357L205 356ZM252 356V357H253L252 356ZM216 357L215 359L217 358L216 357ZM248 357L247 359L249 358L248 357ZM229 358L226 359H224L222 360L220 363L230 359L229 358ZM166 359L167 361H172C171.333 359 169.333 358.333 166 359ZM256 359L255 360C253 359.333 252.333 360 253 362H251L250 364C253.333 364 255.667 362.667 257 360L256 359ZM141 360V362L145 363H152L141 360ZM171 362L172 364H174L171 362ZM155 363L156 365H158L155 363ZM238 363L232 367C229.333 366.333 228.333 367 229 369C233.667 368.333 237 366.667 239 364L238 363ZM142 364V366C142.667 368 141.333 368.333 138 367V369L143 370L145 369L146 370H154C154.667 368 154 367.333 152 368C150.667 369.333 149.667 369 149 367L143 368L144 366L142 364ZM223 365L221 367H223V365ZM241 365C240.333 367 241 367.667 243 367C243.667 365 243 364.333 241 365ZM152 366V367H154L152 366ZM158 366V367L164 369C167.333 369.667 169.667 369.333 171 368L158 366ZM179 366L178 368L186 371H187L179 366ZM212 366L209 367L208 369L214 367L212 366ZM226 366V367H227L226 366ZM174 368L175 370H179L174 368ZM189 368L187 370L193 371L192 370C192.667 368 192.333 367.333 191 368H189ZM201 368L200 370H201V368ZM196 369V370H197L196 369ZM214 370L213 371C211 370.333 210.333 371 211 373C212.333 371.667 215.333 371.333 220 372L223 371L214 370ZM194 373V374H195L194 373ZM203 373L200 374L201 376L205 374L203 373Z" fill="#070707"/>
<path opacity="0.996078" d="M208.5 17H213.5L225 20.5L222.5 22L219.5 21L220.5 23L224 25.5L221.5 24L217 23C217.733 21.2 217.233 20.5333 215.5 21L212.5 20L210 20.5C209.533 22.0333 210.033 22.5333 211.5 22L221 25.5L213.5 27L206 25L205.5 23L204 26L213.5 30L215.5 29C216.367 30.5333 217.2 30.3667 218 28.5L216 27.5L218.5 27L222.5 28L227.5 25L228 26.5L225.5 30L211.5 31L210.5 30H201.5L195 26.5L194 22.5L199.5 19L208.5 17Z" fill="#070707"/>
<path opacity="0.996078" d="M167.5 21L166.5 23L154.5 26L154 24L167.5 21Z" fill="#070707"/>
<path opacity="0.996078" d="M138.5 29C153.633 30.2 165.133 35.0333 173 43.5L174 49.5L177 53.5L176 55.5H178L176 57.5L176.5 60C178.233 60.5333 178.733 59.7 178 57.5H179C176.2 70.7 171.367 81.8667 164.5 91L162 91.5C163.867 92.7 163.367 93.8667 160.5 95L161.5 92L158 93.5L154 101L146.5 106L147 104.5C153.6 98.4333 158.933 91.1 163 82.5L160 84.5L155 93L139.5 103L142 99.5L144 95.5L135.5 103L129.5 106L129 104.5L135 99.5L135.5 101L148 89.5C148.667 87.0333 148 86.2 146 87L144.5 90C137.033 92.8667 131.033 97.2 126.5 103L133 95.5C133.6 93.5 132.433 93 129.5 94L125 97.5L126 95L130 92.5L132.5 88L134.5 87L137 88L135 93.5L138 91.5L139 87L137 86.5L140 84.5L140.5 86L151 76.5L158.5 67L159.5 69L162.5 62L162 63.5L161 70.5L163 69.5L165 62.5L164 58.5L166 52.5L165 49.5L166 45.5L157.5 36C152.7 32.5333 145.367 31.5333 135.5 33L111.5 44L97 56.5L95 59.5L91 65C89.2 64.2667 88.5333 64.7667 89 66.5C85.3333 70.8333 83.6667 77.1667 84 85.5L86.5 92H88.5L93 94.5C92.5333 96.0333 93.0333 96.5333 94.5 96L97.5 97V96L94 95C93.2 93 94.0333 92.3333 96.5 93L101 96.5L101.5 98H111.5L120.5 94H122.5L125 94.5L124 98L120.5 99L115.5 98L107 102L107.5 104L118.5 100V101L112 104.5L114.5 105L118.5 103L120 106L117.5 105L107 109.5L107.5 111L109.5 110V111L98.5 113L93.5 112L91.5 113L80 99.5V97.5L79 90.5L80 87.5L79 86.5V78.5L87 61.5L85.5 62L78.5 66V64L63.5 73L62 69L79.5 55L81.5 56L89.5 50L93.5 49L92.5 51C86.5 55.8 79.6667 59.4667 72 62L71 66L78.5 62L79.5 63L82.5 60L90.5 55H92.5L118.5 37L138.5 29ZM172 50L170 54L171 56L172 53C173.333 51.6667 173.333 50.6667 172 50ZM173 56L171 60L172 63L170 62C168 62.6667 167.667 63.6667 169 65C169 72.3333 167 77.6667 163 81C162.333 83 163.667 83.3333 167 82L169 78V76L170 73C169.333 71 170 70.3333 172 71L174 69C173.333 65 173.667 62.6667 175 62L173 56ZM167 57L165 61L167 60V57ZM90 60L88 63L90 62V60ZM168 65L163 74L164 75L168 67V65ZM159 71L152 79L147 83L145 86L149 84L153 79C154.333 75.6667 155.667 75 157 77L160 72L159 71ZM135 88L133 91L135 90V88ZM154 88L146 93L148 96V95L155 89L154 88ZM83 92V94L88 96L90 98L89 95C88.3333 93 87.6667 92.6667 87 94L83 92ZM134 92L133 94H134V92ZM93 97V102L101 103L100 101C96.6667 101.667 95.6667 100.667 97 98L93 97ZM91 98L90 101L92 102L91 98ZM106 99L102 100V101C105.333 101.667 107.667 101.333 109 100L106 99ZM89 105L92 109C96 110.333 98.6667 110 100 108L104 110C104.667 107.333 106.333 106.333 109 107V105L105 107C101 107.667 98.3333 107 97 105L94 106L89 105Z" fill="#070707"/>
<path opacity="0.996078" d="M195.5 33L201.5 34L203 35.5C204 38.4333 203.5 39.6 201.5 39L197.5 40V39L200 37.5L196 37C196.733 38.8 196.233 39.4667 194.5 39L192 35.5L195.5 33Z" fill="#070707"/>
<path opacity="0.996078" d="M107.5 37L109 37.5C105.6 42.1 101.1 45.6 95.5 48L98.5 44L107.5 37Z" fill="#070707"/>
<path opacity="0.996078" d="M138.5 38.0005C146.833 37.3339 152.667 39.1672 156 43.5005L157 53.5005C154.133 61.9672 149.633 68.8005 143.5 74.0005L123.5 87.0005L115.5 90.0005H104.5C99.5667 89.2672 96.0667 87.1005 94 83.5005C92.1334 81.7005 91.4667 78.7005 92 74.5005C95.6 65.7672 100.767 58.6005 107.5 53.0005L122.5 43.0005L138.5 38.0005ZM142 43.0005L133 45.0005V46.0005C139.667 47.3339 144.667 47.0005 148 45.0005C147.333 43.0005 145.333 42.3339 142 43.0005ZM139 50.0005L138 51.0005C134 50.3339 132.667 51.3339 134 54.0005L144 52.0005C144.667 50.0005 143.667 49.3339 141 50.0005H139ZM130 52.0005L120 55.0005V56.0005C124.667 56.0005 128.333 55.0005 131 53.0005L130 52.0005ZM149 54.0005V57.0005L151 56.0005C151.667 54.0005 151 53.3339 149 54.0005ZM133 60.0005L121 64.0005L120 66.0005L132 63.0005L134 61.0005L133 60.0005ZM135 63.0005V64.0005H136L135 63.0005ZM143 63.0005L129 69.0005V67.0005L116 71.0005L115 73.0005L123 71.0005H125C128.333 72.3339 130.667 72.0005 132 70.0005L134 71.0005L120 77.0005C116.667 76.3339 115.333 77.0005 116 79.0005L123 77.0005V79.0005L120 81.0005H124L125 79.0005L132 76.0005L143 67.0005L141 66.0005L144 64.0005L143 63.0005ZM101 72.0005L100 73.0005C98 72.3339 97.3334 73.3339 98 76.0005L101 74.0005V72.0005ZM103 77.0005V78.0005H104L103 77.0005Z" fill="#070707"/>
<path opacity="0.996078" d="M237.5 38.9998C241.367 38.4665 243.867 39.2998 245 41.4998L247 45.4998L244.5 45.9998C243.5 44.3332 241.167 43.9998 237.5 44.9998L234 42.9998C234.733 41.1998 234.233 40.5332 232.5 40.9998V39.9998L237.5 38.9998ZM239 39.9998L235 41.9998L239 42.9998L240 40.9998L239 39.9998ZM240 40.9998V42.9998V43.9998C242.667 44.6665 243.667 44.3332 243 42.9998L240 40.9998Z" fill="#070707"/>
<path opacity="0.996078" d="M201.5 52L208 55C208.667 57.5333 208.167 59.2 206.5 60L198.5 62L195 59.5L194 57.5L196.5 54L201.5 52ZM203 54V56H200V58H205L204 56C204.667 54 204.333 53.3333 203 54Z" fill="#070707"/>
<path opacity="0.996078" d="M244.5 67L258.5 68C264.767 71.0667 269.933 75.2333 274 80.5L275 82.5L274 85.5L278.5 95L279.5 89L281 99C279.2 99.7333 278.533 99.2333 279 97.5L273.5 89L273 91.5L276 98.5L274 99.5V96.5L269.5 88L268 90.5L272 97.5H271L261.5 85L261 86.5L270 98.5V102C271.8 101.267 272.467 101.767 272 103.5L272.5 105L269 103.5L265.5 98L262.5 97L264 99.5L268 109C270.533 108 271.533 108.5 271 110.5C273 114.833 275 115.167 277 111.5L278.5 109L280 109.5L276 115.5L277 118C275.2 118.733 274.533 118.233 275 116.5C274.2 114.367 272.533 113.533 270 114L272 122.5C271.2 124.367 270.367 124.533 269.5 123L263.5 122V124L260.5 123L261.5 126L257 124C256.267 125.8 256.767 126.467 258.5 126L263.5 129L264.5 126L266.5 129L268.5 128H270.5L272.5 127L273 129.5L271.5 131L261.5 132C260.5 129.667 259.5 129.333 258.5 131L253.5 128L251.5 129L239 120.5C234.133 115.7 230.467 109.7 228 102.5C226.333 97.5 226 91.1667 227 83.5C228.067 78.9 230.233 75.4 233.5 73L244.5 67ZM257 80L258 82C258.667 80 258.333 79.3333 257 80ZM268 80L266 82L268 88H269L268 85L269 83L270 87L273 89L269 82C269.667 80 269.333 79.3333 268 80ZM259 82L258 84L261 85L259 82ZM251 84V85H252L251 84ZM264 84L263 86L267 89L264 84ZM254 85L253 88L255 89L254 85ZM260 88L261 93H263L260 88ZM250 89L251 92C250.333 93.3333 251 93.6667 253 93L252 91C252.667 89 252 88.3333 250 89ZM258 90L259 94C258.333 95.3333 259 95.6667 261 95L259 92C259.667 90 259.333 89.3333 258 90ZM250 92L249 94L251 95L250 92ZM260 96V98L262 97L260 96ZM256 99V101L261 105L260 102L256 99ZM244 102L243 104L245 105L244 102ZM255 102L254 104L258 106L255 102ZM250 107L252 112H253L250 107ZM264 107L266 112C266.667 113.333 266.333 113.667 265 113L262 109C260 108.333 259.333 109 260 111L267 117L266 120L271 122L267 109L264 107ZM251 115L253 120L256 121L257 122L253 117C253.667 115 253 114.333 251 115ZM255 115V117L258 119C259.333 115 258.333 113.667 255 115ZM259 116V119C260.333 117.667 261.667 118 263 120H265L259 116ZM249 118C248.333 120 249 120.667 251 120C251.667 118 251 117.333 249 118ZM261 119L260 121H261V119ZM258 127L259 129H260L258 127Z" fill="#070707"/>
<path opacity="0.996078" d="M37.5 96L45 97C47.2 99.6 47.8667 104.1 47 110.5L36 136.5L24.5 150L18 152C18.8667 154.733 18.2 155.733 16 155L15 150.5L18 149.5L18.5 141L20 141.5V138.5L26 127.5L24 126.5L25 123.5H24L16 138.5L15.5 149L14 141.5L19 121.5L32.5 99L37.5 96ZM34 109L27 121H29L34 111V109ZM35 114L33 117L35 116V114ZM23 122L22 124H23V122ZM33 122L28 128L29 129L33 124V122ZM22 124L21 126H22V124ZM21 126L20 128H21V126ZM20 128L19 130H20V128ZM30 133C26.6667 135 24.6667 137.667 24 141H26C24.6667 138.333 25.3333 137.333 28 138L30 135V133ZM23 142L20 146L21 148L24 146L23 145L24 143L23 142ZM24 143V145L26 144L24 143Z" fill="#070707"/>
<path opacity="0.996078" d="M177 106.001C179.533 105.534 181.2 106.367 182 108.501C181.867 113.367 180.033 116.534 176.5 118.001C173.367 118.534 171.533 117.701 171 115.501L171.5 110.001L172 113.001L175.5 114.001L179 112.001L178.5 108.001L178 110.001C176.2 110.734 175.533 110.234 176 108.501L177 106.001Z" fill="#070707"/>
<path opacity="0.996078" d="M112.5 111C117.5 110 121 110.5 123 112.5L114.5 115H107C106.134 112.8 107.3 112.133 110.5 113L112.5 111Z" fill="#070707"/>
<path opacity="0.996078" d="M190.5 112.001L194.5 113.001C195.5 111.334 196.5 111.667 197.5 114.001L202 117.501L205 127.501V129.501C204.2 133.367 202.367 136.201 199.5 138.001L193.5 139.001L185 132.501C182.2 129.967 181.533 125.301 183 118.501L186.5 114.001L190.5 112.001ZM194 115.001L192 118.001L194 117.001V115.001ZM196 116.001L197 121.001L196 123.001L197 126.001V127.001L195 124.001H194C193.333 126.667 194 128.667 196 130.001V131.001C192.667 128.334 191.333 124.001 192 118.001L191 123.001L190 126.001L191 133.001L194 135.001L199 134.001L201 129.001C201.667 124.334 201 121.001 199 119.001L196 116.001ZM188 122.001L186 126.001L188 132.001H189L188 122.001Z" fill="#070707"/>
<path opacity="0.996078" d="M211.5 121L214 124.5L215 133.5L214 136.5L217 137.5L219 145.5L218 151L215 149.5L217 144.5L213 136.5V128.5L211.5 121Z" fill="#070707"/>
<path opacity="0.996078" d="M216.5 123C219.5 125.667 221 129.833 221 135.5H220C219.8 131.367 218.467 128.367 216 126.5L216.5 123Z" fill="#070707"/>
<path opacity="0.996078" d="M123.5 128L130 128.5L127 135L119.5 138L117 137C116.334 133.267 117.5 130.933 120.5 130L123.5 128ZM124 130L122 134L125 133C126.334 133.667 126.667 133.333 126 132L124 130Z" fill="#070707"/>
<path opacity="0.996078" d="M156.5 133L161 134V138C163 137.333 163.667 138 163 140L150.5 141L151.5 139C153.5 139.6 154 138.433 153 135.5L156.5 133ZM157 135C156.333 137.667 157 138.667 159 138C159.667 135.333 159 134.333 157 135Z" fill="#070707"/>
<path opacity="0.996078" d="M76.5 134C78.5 135 79 137.5 78 141.5C76.2 148.367 72.7 153.533 67.5 157L64.5 158C61.1666 157 60 153.833 61 148.5C62.1333 142.967 64.6333 138.8 68.5 136L69 137.5L64 146.5V149.5L66 148.5L68.5 143L68 144.5L67 149.5H68L70 140.5L72.5 136L73.5 147L77 139.5L76.5 134ZM73 147L72 149H73V147Z" fill="#070707"/>
<path opacity="0.996078" d="M221.5 137L224 140.5L225 146.5L224 150L222 149.5V141.5L221.5 137Z" fill="#070707"/>
<path opacity="0.996078" d="M103.5 141C105.367 141.8 105.533 142.633 104 143.5L100.5 149C98.2998 149.733 97.4665 149.233 97.9998 147.5L101.5 142L103.5 141ZM102 143L101 145H102V143Z" fill="#070707"/>
<path opacity="0.996078" d="M203.5 142L205 146.5L202.5 152C201.033 151.533 200.533 150.033 201 147.5L203.5 142Z" fill="#070707"/>
<path opacity="0.996078" d="M209.5 142C211.7 142.533 212.533 144.367 212 147.5L203.5 159L203 157C200.533 158 199.533 157.5 200 155.5L203 154C202.267 155.8 202.767 156.467 204.5 156C208.567 153.733 210.233 149.067 209.5 142Z" fill="#070707"/>
<path opacity="0.996078" d="M224.5 151L230 156.5L228.5 159L230 159.5L228.5 160L226 159C227.933 160.933 228.6 164.433 228 169.5L226 170.5L225 163C223.2 162.267 222.533 162.767 223 164.5L222 166.5L224 169.5H223C223.533 168.033 223.033 167.533 221.5 168L220 165.5L226 154.5H224L224.5 151Z" fill="#070707"/>
<path opacity="0.996078" d="M126.5 160L142.5 162L149 166.5L156 176.5L159 189.5V195.5L155 216.5L149 227.5L143.5 233L141.5 234L140.5 233L136.5 237L122.5 242H117.5L110.5 240L97 230.5L91 219.5L89 204.5L90 201.5C92.2667 187.433 97.7667 176.6 106.5 169L109.5 167L117.5 162L126.5 160ZM122 171L120 173H122V171ZM139 171L136 175H138L139 173V171ZM140 174L139 176H140V174ZM130 176L129 178H130V176ZM134 176L133 178H134V176ZM117 178L114 181L115 182L119 179L117 178ZM143 180L140 184L141 186L143 183V180ZM150 180L147 186L148 191L150 190L149 187L150 185V180ZM136 181V183V184L138 183C138.667 181 138 180.333 136 181ZM145 183L137 197H136L137 194V192C133 193.333 131 196.667 131 202H133L124 210H122L125 206C124.333 204 125 203.333 127 204C129.667 202 131 199 131 195L129 196C129.667 197.333 129.333 197.667 128 197L123 203C123.667 205 123 205.667 121 205L122 201L126 198L129 193L130 191C128 190.333 127.333 191 128 193L122 197L117 204L115 209L120 207L121 208L116 215L115 219L118 217L126 219C128.667 216.333 130.667 213 132 209L125 214C133 206 139.667 197.333 145 188V183ZM129 184L124 190H126L129 186V184ZM136 185L131 192L132 193L136 187V185ZM117 186L116 188H117V186ZM119 187L117 190L119 189V187ZM123 187L119 192L120 193L123 189V187ZM124 191L123 193H124V191ZM143 191L134 208C134.667 210 134.333 210.667 133 210V212L126 221L118 218L115 221L114 226L111 227C110.333 229 111.333 229.667 114 229V231L111 230L112 233H111V235L109 231L105 230C107 228 108 225 108 221L111 219L114 214V211L107 221C105 221.667 104.333 221 105 219H104L105 226H104C104.667 222.667 104 221.333 102 222L104 231L103 233L113 238H120L123 236L130 235L133 231L136 229C136.667 232.333 136 234.333 134 235H136L142 228L141 230L142 232L154 212V203V201L153 195L152 202V204C152.667 205.333 152.333 205.667 151 205L143 221L142 220C140 222.667 137 224.333 133 225H131C133 222.333 136 220.667 140 220L142 218L144 210L142 209L144 204L148 201L150 199L151 195L150 192L142 205L140 206L143 201L142 199L145 193C145.667 191 145 190.333 143 191ZM113 193V195L115 194L113 193ZM120 194L116 200H118L121 195L120 194ZM109 195L107 198L109 197V195ZM112 196L109 202L110 205L114 198C114.667 196 114 195.333 112 196ZM106 198L102 204H104L107 200C107.667 198 107.333 197.333 106 198ZM150 201L144 208L146 211L150 203V201ZM134 205L132 208L134 207V205ZM109 206L108 208H109V206ZM105 208L103 213L102 211L100 214C98.6667 217.333 99.3333 218.667 102 218L105 211V208ZM107 210L106 212H107V210ZM110 211L106 217L110 215L111 213C111.667 211 111.333 210.333 110 211ZM101 219L99 224L101 223V219ZM112 220L111 222L113 221L112 220ZM111 224L108 227C107.333 229 108 229.667 110 229L112 226C112.667 224 112.333 223.333 111 224Z" fill="#070707"/>
<path opacity="0.996078" d="M245 161L252.5 163L255 162L256 164.5L255 167.5L257 170.5H256L254 167.5C253.2 165.7 252.367 165.533 251.5 167C250.033 167.533 249.533 167.033 250 165.5L247 164L248 168C245.533 168.933 244.867 167.433 246 163.5L245 161Z" fill="#070707"/>
<path opacity="0.996078" d="M210.5 167C218.9 167.6 224.733 170.767 228 176.5L229 182.5L227 187.5H228L229.5 185L230 186.5L229 191.5L224 200.5L226 199.5L231.5 189L232 191.5L222.5 205L221.5 203L216 207.5L214.5 210C212.767 209.467 212.267 210.3 213 212.5L213.5 214H210.5L206 209.5L205 205.5L206 201.5L204 200.5C202.133 206.633 198.8 211.3 194 214.5V216.5L195 218.5L193.5 221L192 218.5L194 207.5L192.5 205L194 204.5L192 197.5L194.5 192L195 193.5L194 194.5V204C195.8 204.733 196.467 204.233 196 202.5L198 201.5L196 208.5L198 207.5L202.5 199L205.5 198L206 200L211.5 198L210.5 200L207 201.5L211.5 202L213 199L222 192.5C224.4 190.233 225.4 186.567 225 181.5L223 177.5C224.467 176.7 224.3 175.867 222.5 175L220.5 174L220 175.5L222 179.5L221 182.5L222 186.5H221L219.5 183C217.833 188.667 214.833 193 210.5 196L203 190.5V188.5C203.733 183.567 205.9 180.067 209.5 178L215 175.5L212.5 170L209 168.5L210.5 167ZM217 170L215 172L217 176L215 177L219 178L220 179C220 175 219 172 217 170ZM213 185L211 188L212 189L211 191L214 190L215 186L213 185ZM221 197L220 199L222 198L221 197ZM221 200L216 203C214 202.333 213.333 203 214 205L221 202V200ZM213 203L209 204L208 207L209 208L213 205V203Z" fill="#070707"/>
<path opacity="0.996078" d="M231.5 168L233 178.5H232L229 170.5L231.5 168Z" fill="#070707"/>
<path opacity="0.996078" d="M240.5 168L241 170.5L236 177.5L235.5 181L235 177.5L240.5 168Z" fill="#070707"/>
<path opacity="0.996078" d="M248.5 171C251.033 170.533 252.533 171.033 253 172.5L251 176.5H253L248 183.5L250.5 184L255 176C256.8 175.267 257.467 175.767 257 177.5L252.5 185L246.5 187L242 182.5V179.5L243 175L246.5 173L248.5 171ZM247 180V182L249 181L247 180Z" fill="#070707"/>
<path opacity="0.996078" d="M240.5 174L241 175.5L239.5 181L238 177.5L240.5 174Z" fill="#070707"/>
<path opacity="0.996078" d="M50.5002 177L57.0002 181.5L59.0002 188.5V190.5L58.0002 192.5C59.8669 193.7 60.2002 196.367 59.0002 200.5L57.0002 209L53.0002 211.5L51.5002 214L46.5002 215L41.0002 210.5C37.8002 206.367 36.8002 200.033 38.0002 191.5C39.8669 185.7 43.0335 181.2 47.5002 178L50.5002 177ZM54.0002 189L52.0002 191V199L51.0002 194L49.0002 193V205H47.0002L45.0002 198L46.0002 195V190L43.0002 196C42.3335 201.333 43.0002 205 45.0002 207L51.0002 209L54.0002 204V202L55.0002 199C55.6669 194.333 55.3335 191 54.0002 189Z" fill="#070707"/>
<path opacity="0.996078" d="M65.5 203L66 210.5L62 219.5V223.5L62.5 225L60 223.5L59 218.5L63 211.5C62.5333 207.367 63.3667 204.533 65.5 203Z" fill="#070707"/>
<path opacity="0.996078" d="M27.5 222C29.0333 221.533 29.5333 222.033 29 223.5L39 235.5L41 241.5L39 240.5L31 230.5L27.5 222Z" fill="#070707"/>
<path opacity="0.996078" d="M14.5 227C17.4333 226 18.6 226.5 18 228.5L25 235.5L33 250.5L37 261.5L38 270.5L37 274L34 273.5L35 271L32 270.5C33.5333 269.7 33.3667 268.867 31.5 268L28.5 266L27 266.5L18.5 253L18 254.5L22 262.5L20 261.5L13 242.5L12 231.5L14.5 227ZM23 244L22 246L25 247L24 252L26 255H27L26 249L27 246L23 244ZM30 254L29 256H30V254ZM28 257V262H30L28 257ZM31 262L30 264L35 268L31 262Z" fill="#070707"/>
</svg>
