<svg width="148" height="105" viewBox="0 0 148 105" fill="none" xmlns="http://www.w3.org/2000/svg">
<rect width="147.402" height="104.882" rx="10" fill="black"/>
<path d="M9.56995 42.0811C9.56995 42.055 9.58297 42.042 9.60901 42.042H9.71643L11.2838 42.0078C11.4726 42.0013 11.6777 41.998 11.899 41.998H12.5094C13.0758 41.998 13.5006 42.0192 13.7838 42.0615C14.0703 42.1038 14.3502 42.1543 14.6237 42.2129C14.9003 42.2682 15.1933 42.3968 15.5026 42.5986C15.8151 42.8005 16.0852 43.0446 16.3131 43.3311C16.7949 43.943 17.0358 44.6038 17.0358 45.3135C17.0358 46.0231 16.8502 46.6595 16.4791 47.2227C15.9453 48.0397 15.1722 48.5736 14.1598 48.8242C13.8375 48.9023 13.5071 48.9414 13.1686 48.9414H9.60901C9.58297 48.9414 9.56995 48.9284 9.56995 48.9023V48.7656C9.56995 48.7396 9.58297 48.7266 9.60901 48.7266H9.71643C10.3089 48.7266 10.6051 48.5378 10.6051 48.1602V42.8086C10.6051 42.6263 10.5351 42.4896 10.3951 42.3984C10.2552 42.304 10.0973 42.2568 9.92151 42.2568H9.60901C9.58297 42.2568 9.56995 42.2438 9.56995 42.2178V42.0811ZM11.6793 42.2275C11.5979 42.2275 11.5573 42.2715 11.5573 42.3594V48.3311C11.5573 48.5719 11.7835 48.6973 12.236 48.707C12.3694 48.7103 12.5094 48.7119 12.6559 48.7119C13.6943 48.7119 14.5097 48.4206 15.1022 47.8379C15.6979 47.2552 15.9957 46.4805 15.9957 45.5137C15.9957 44.5436 15.7207 43.7542 15.1705 43.1455C14.6237 42.5335 13.9026 42.2275 13.0074 42.2275H11.6793ZM20.8346 48.1357C20.8346 48.2204 20.8737 48.2887 20.9518 48.3408C21.0332 48.3896 21.1259 48.4141 21.2301 48.4141C21.3343 48.4141 21.4205 48.388 21.4889 48.3359C21.5605 48.2806 21.6093 48.2529 21.6354 48.2529C21.6614 48.2529 21.6744 48.2887 21.6744 48.3604C21.6744 48.4287 21.6419 48.4873 21.5768 48.5361C21.0885 48.8942 20.7581 49.0732 20.5856 49.0732C20.3772 49.0732 20.208 48.8568 20.0778 48.4238C20.068 48.3913 20.0599 48.3766 20.0533 48.3799C19.6497 48.6826 19.3958 48.8649 19.2916 48.9268C19.0247 49.0798 18.7561 49.1042 18.486 49C18.219 48.8958 18.0253 48.7233 17.9049 48.4824C17.8463 48.3587 17.817 48.2269 17.817 48.0869C17.817 47.8102 17.9196 47.5905 18.1246 47.4277C18.3297 47.265 18.7203 47.1087 19.2965 46.959C19.4918 46.9069 19.666 46.8402 19.819 46.7588C19.972 46.6774 20.0517 46.6253 20.0582 46.6025C20.068 46.5798 20.0729 46.5586 20.0729 46.5391V45.6016C20.0729 45.2337 19.9296 44.9749 19.6432 44.8252C19.5488 44.7764 19.4349 44.752 19.3014 44.752C19.1712 44.752 19.0377 44.804 18.901 44.9082C18.7675 45.0124 18.7008 45.1605 18.7008 45.3525L18.7252 45.543C18.7057 45.582 18.5885 45.6471 18.3737 45.7383C18.1588 45.8294 18.0351 45.8783 18.0026 45.8848C17.9505 45.8848 17.9244 45.8229 17.9244 45.6992C17.9244 45.5723 17.9619 45.4323 18.0367 45.2793C18.1116 45.1263 18.2174 44.9863 18.3541 44.8594C18.6731 44.5632 19.0377 44.415 19.4479 44.415C19.858 44.415 20.1917 44.529 20.4489 44.7568C20.706 44.9814 20.8346 45.25 20.8346 45.5625V48.1357ZM18.5836 47.9941C18.5836 48.1504 18.6438 48.2871 18.7643 48.4043C18.8847 48.5182 19.0214 48.5752 19.1744 48.5752C19.3307 48.5752 19.5195 48.5101 19.7408 48.3799C19.9622 48.2464 20.0729 48.1097 20.0729 47.9697V46.9785C20.0729 46.9427 20.0647 46.9248 20.0485 46.9248C20.0322 46.9248 20.0208 46.9264 20.0143 46.9297L18.8815 47.457C18.7643 47.5417 18.6845 47.6133 18.6422 47.6719C18.6031 47.7305 18.5836 47.8379 18.5836 47.9941ZM25.7272 47.4033L25.7174 46.373C25.7174 45.9531 25.6816 45.6585 25.61 45.4893C25.5384 45.32 25.4472 45.193 25.3365 45.1084C25.2259 45.0205 25.0761 44.9766 24.8873 44.9766C24.7018 44.9766 24.3063 45.123 23.7008 45.416C23.6194 45.4648 23.5771 45.5104 23.5739 45.5527V48.1797C23.5739 48.5085 23.7496 48.6973 24.1012 48.7461C24.2542 48.7689 24.3307 48.8063 24.3307 48.8584C24.3307 48.9072 24.3144 48.9349 24.2819 48.9414H22.1041C22.0716 48.9349 22.0553 48.9121 22.0553 48.873C22.0553 48.8112 22.1318 48.7689 22.2848 48.7461C22.6364 48.6973 22.8121 48.5085 22.8121 48.1797V45.377C22.8121 45.2402 22.7373 45.1458 22.5875 45.0938C22.5224 45.071 22.4524 45.0531 22.3776 45.04C22.3027 45.0238 22.2425 45.0091 22.1969 44.9961C22.1546 44.9831 22.1269 44.9717 22.1139 44.9619C22.1041 44.9489 22.0992 44.9245 22.0992 44.8887C22.0992 44.8496 22.1237 44.8171 22.1725 44.791L23.4176 44.2051C23.4567 44.1855 23.4811 44.1758 23.4908 44.1758C23.5462 44.1758 23.5739 44.2148 23.5739 44.293V45.0547C23.5836 45.0872 23.5966 45.1035 23.6129 45.1035C23.6324 45.1035 23.7024 45.0742 23.8229 45.0156C24.1028 44.8757 24.3844 44.7406 24.6676 44.6104C24.9508 44.4801 25.1852 44.415 25.3707 44.415C26.1227 44.415 26.4987 45.1003 26.4987 46.4707L26.4547 47.8965V48.1797C26.4547 48.4336 26.5817 48.5996 26.8356 48.6777C26.943 48.7135 27.0455 48.7396 27.1432 48.7559C27.2441 48.7689 27.3092 48.7819 27.3385 48.7949C27.3711 48.8079 27.3873 48.834 27.3873 48.873C27.3873 48.9121 27.3711 48.9349 27.3385 48.9414H24.985C24.9524 48.9349 24.9362 48.9121 24.9362 48.873C24.9362 48.8112 25.0127 48.7689 25.1656 48.7461C25.514 48.6973 25.6881 48.4954 25.6881 48.1406C25.7142 47.9779 25.7272 47.7321 25.7272 47.4033ZM30.1949 45.6016C30.1949 45.6732 30.1673 45.709 30.1119 45.709C30.0599 45.709 30.0192 45.6699 29.9899 45.5918C29.9117 45.377 29.7946 45.1865 29.6383 45.0205C29.4853 44.8545 29.2949 44.7715 29.067 44.7715C28.7675 44.7715 28.5657 44.9212 28.4615 45.2207C28.429 45.3216 28.4127 45.4258 28.4127 45.5332C28.4127 45.6406 28.4811 45.7611 28.6178 45.8945C28.7545 46.0247 28.9791 46.181 29.2916 46.3633C29.6041 46.5456 29.832 46.7002 29.9752 46.8271C30.3007 47.1169 30.4635 47.4521 30.4635 47.833C30.4635 48.2139 30.3235 48.5166 30.0436 48.7412C29.7636 48.9626 29.4381 49.0732 29.067 49.0732C28.8684 49.0732 28.6878 49.0456 28.525 48.9902C28.3655 48.9382 28.2727 48.9121 28.2467 48.9121C28.2239 48.9121 28.1849 48.9382 28.1295 48.9902C28.0774 49.0456 28.0351 49.0732 28.0026 49.0732H27.9196C27.9 49.0732 27.8756 48.8975 27.8463 48.5459C27.817 48.1943 27.8024 47.986 27.8024 47.9209C27.8024 47.8558 27.8073 47.82 27.817 47.8135C27.83 47.807 27.8496 47.8037 27.8756 47.8037C27.9017 47.8037 27.9228 47.8118 27.9391 47.8281C27.9586 47.8444 27.9749 47.8656 27.9879 47.8916C28.0009 47.9144 28.0107 47.9388 28.0172 47.9648C28.027 47.9909 28.0481 48.0397 28.0807 48.1113C28.302 48.5833 28.6438 48.8193 29.1061 48.8193C29.3112 48.8193 29.4755 48.7445 29.5992 48.5947C29.7229 48.4417 29.7848 48.2725 29.7848 48.0869C29.7848 47.9014 29.736 47.7451 29.6383 47.6182C29.5406 47.4912 29.4186 47.3757 29.2721 47.2715C29.1289 47.1673 28.9726 47.0664 28.8033 46.9688C28.1458 46.5846 27.817 46.1598 27.817 45.6943C27.817 45.346 27.9668 45.0465 28.2662 44.7959C28.5657 44.542 28.8733 44.415 29.1891 44.415C29.5048 44.415 29.7376 44.4492 29.8873 44.5176C30.0403 44.5859 30.1298 44.6445 30.1559 44.6934C30.1819 44.7389 30.1949 44.8919 30.1949 45.1523V45.6016ZM35.6637 48.7559C35.8167 48.7754 35.8932 48.8145 35.8932 48.873C35.8932 48.9121 35.8769 48.9349 35.8444 48.9414H33.6666C33.6341 48.9349 33.6178 48.9121 33.6178 48.873C33.6178 48.8145 33.6943 48.7754 33.8473 48.7559C34.1989 48.7038 34.3746 48.5182 34.3746 48.1992V42.1104C34.3746 41.9736 34.2998 41.8792 34.15 41.8271C34.0849 41.8044 34.0149 41.7865 33.9401 41.7734C33.8652 41.7572 33.805 41.7425 33.7594 41.7295C33.7171 41.7165 33.6894 41.7051 33.6764 41.6953C33.6666 41.6823 33.6617 41.6579 33.6617 41.6221C33.6617 41.583 33.6862 41.5505 33.735 41.5244L34.9801 40.9385C35.0192 40.9189 35.0436 40.9092 35.0533 40.9092C35.1087 40.9092 35.1364 40.9482 35.1364 41.0264V48.1992C35.1364 48.5182 35.3121 48.7038 35.6637 48.7559ZM37.1969 46.3682C37.1416 46.3682 37.1139 46.487 37.1139 46.7246C37.1139 47.2292 37.2636 47.6523 37.5631 47.9941C37.8626 48.3359 38.2337 48.5068 38.6764 48.5068C39.1224 48.5068 39.5504 48.3148 39.9606 47.9307C39.9671 47.9242 39.9752 47.9209 39.985 47.9209H40.0094C40.0289 47.9209 40.0468 47.9372 40.0631 47.9697C40.0826 47.999 40.1005 48.0186 40.1168 48.0283C39.7392 48.4873 39.2949 48.8047 38.7838 48.9805C38.608 49.0423 38.4095 49.0732 38.1881 49.0732C37.9668 49.0732 37.7421 49.013 37.5143 48.8926C37.2864 48.7689 37.0911 48.6077 36.9283 48.4092C36.5833 47.9958 36.4108 47.4814 36.4108 46.8662C36.4108 46.2477 36.5979 45.6846 36.9723 45.1768C37.3499 44.6689 37.8675 44.415 38.525 44.415C38.997 44.415 39.3828 44.6266 39.6823 45.0498C39.9817 45.4697 40.1315 45.8392 40.1315 46.1582C40.1315 46.2982 40.0973 46.3682 40.0289 46.3682H37.1969ZM37.2506 45.8994C37.2506 45.9613 37.2799 45.9922 37.3385 45.9922H39.1793C39.264 45.9922 39.3063 45.9417 39.3063 45.8408C39.3063 45.6064 39.2005 45.3672 38.9889 45.123C38.7806 44.8757 38.5511 44.752 38.3004 44.752C38.0563 44.752 37.8333 44.8626 37.6315 45.084C37.4329 45.3053 37.3059 45.5576 37.2506 45.8408V45.8994ZM48.2516 44.5469C48.2874 44.5566 48.3053 44.5794 48.3053 44.6152C48.3053 44.651 48.3004 44.6771 48.2906 44.6934C48.2809 44.7096 48.2093 44.7275 48.0758 44.7471C47.9423 44.7666 47.8463 44.8057 47.7877 44.8643C47.7324 44.9196 47.6819 44.9831 47.6364 45.0547C47.594 45.1263 47.5566 45.2012 47.524 45.2793C47.4915 45.3542 47.4606 45.4225 47.4313 45.4844L46.0983 48.9316C46.0592 49.026 46.0234 49.0732 45.9908 49.0732H45.6051C45.5726 49.0732 45.5367 49.0228 45.4977 48.9219L44.2037 45.4209C44.0833 45.0921 43.8766 44.8805 43.5836 44.7861C43.5608 44.7796 43.5332 44.7747 43.5006 44.7715C43.3639 44.7585 43.2955 44.7178 43.2955 44.6494C43.2955 44.5811 43.3346 44.5469 43.4127 44.5469H45.5856C45.6116 44.5469 45.6246 44.5729 45.6246 44.625C45.6246 44.6738 45.6067 44.7064 45.5709 44.7227C45.5123 44.7454 45.4082 44.7552 45.2584 44.752C45.0143 44.7454 44.8922 44.8431 44.8922 45.0449L44.9215 45.1621L45.9127 47.8721C45.9778 48.0381 46.0429 48.0332 46.108 47.8574C46.1145 47.8411 46.1569 47.7354 46.235 47.54C46.6744 46.417 46.9202 45.7676 46.9723 45.5918C47.0276 45.416 47.0553 45.2842 47.0553 45.1963C47.0553 45.1084 47.0081 45.0173 46.9137 44.9229C46.8193 44.8252 46.6923 44.7764 46.5328 44.7764C46.3733 44.7764 46.2936 44.7275 46.2936 44.6299C46.2936 44.5745 46.3294 44.5469 46.401 44.5469H48.2516ZM49.4821 46.3682C49.4267 46.3682 49.399 46.487 49.399 46.7246C49.399 47.2292 49.5488 47.6523 49.8483 47.9941C50.1477 48.3359 50.5188 48.5068 50.9615 48.5068C51.4075 48.5068 51.8356 48.3148 52.2457 47.9307C52.2522 47.9242 52.2604 47.9209 52.2701 47.9209H52.2946C52.3141 47.9209 52.332 47.9372 52.3483 47.9697C52.3678 47.999 52.3857 48.0186 52.402 48.0283C52.0244 48.4873 51.58 48.8047 51.069 48.9805C50.8932 49.0423 50.6946 49.0732 50.4733 49.0732C50.2519 49.0732 50.0273 49.013 49.7994 48.8926C49.5716 48.7689 49.3763 48.6077 49.2135 48.4092C48.8684 47.9958 48.6959 47.4814 48.6959 46.8662C48.6959 46.2477 48.8831 45.6846 49.2574 45.1768C49.6351 44.6689 50.1526 44.415 50.8102 44.415C51.2822 44.415 51.6679 44.6266 51.9674 45.0498C52.2669 45.4697 52.4166 45.8392 52.4166 46.1582C52.4166 46.2982 52.3824 46.3682 52.3141 46.3682H49.4821ZM49.5358 45.8994C49.5358 45.9613 49.5651 45.9922 49.6237 45.9922H51.4645C51.5491 45.9922 51.5914 45.9417 51.5914 45.8408C51.5914 45.6064 51.4856 45.3672 51.274 45.123C51.0657 44.8757 50.8362 44.752 50.5856 44.752C50.3414 44.752 50.1184 44.8626 49.9166 45.084C49.7181 45.3053 49.5911 45.5576 49.5358 45.8408V45.8994ZM56.2057 45.4404C56.1666 45.4339 56.1097 45.4128 56.0348 45.377C55.7646 45.2533 55.553 45.1914 55.4 45.1914C55.247 45.1914 55.0859 45.2874 54.9166 45.4795C54.7506 45.6683 54.6676 45.8392 54.6676 45.9922V48.1992C54.6676 48.4434 54.8092 48.6061 55.0924 48.6875C55.2161 48.7201 55.3317 48.7445 55.4391 48.7607C55.5465 48.7738 55.6149 48.7868 55.6442 48.7998C55.6767 48.8128 55.693 48.8389 55.693 48.8779C55.693 48.9137 55.6767 48.9349 55.6442 48.9414H53.1979C53.1653 48.9349 53.149 48.9121 53.149 48.873C53.149 48.8145 53.2255 48.7754 53.3785 48.7559C53.7301 48.7038 53.9059 48.5182 53.9059 48.1992V45.6162C53.9059 45.4795 53.831 45.3851 53.6813 45.333C53.6162 45.3102 53.5462 45.2923 53.4713 45.2793C53.3964 45.263 53.3362 45.2484 53.2906 45.2354C53.2483 45.2223 53.2207 45.2109 53.2076 45.2012C53.1979 45.1882 53.193 45.1637 53.193 45.1279C53.193 45.0889 53.2174 45.0563 53.2662 45.0303L54.5114 44.4443C54.5504 44.4248 54.5748 44.415 54.5846 44.415C54.6399 44.415 54.6676 44.4541 54.6676 44.5322V45.3232C54.6676 45.3623 54.6774 45.3818 54.6969 45.3818C54.7229 45.3818 54.7897 45.3053 54.8971 45.1523C55.2063 44.7194 55.4619 44.5029 55.6637 44.5029C55.7776 44.5029 55.9518 44.5485 56.1862 44.6396C56.4238 44.7308 56.5426 44.8073 56.5426 44.8691C56.5426 44.944 56.5052 45.0579 56.4303 45.2109C56.3554 45.3639 56.2806 45.4404 56.2057 45.4404ZM59.2574 45.6016C59.2574 45.6732 59.2298 45.709 59.1744 45.709C59.1224 45.709 59.0817 45.6699 59.0524 45.5918C58.9742 45.377 58.8571 45.1865 58.7008 45.0205C58.5478 44.8545 58.3574 44.7715 58.1295 44.7715C57.83 44.7715 57.6282 44.9212 57.524 45.2207C57.4915 45.3216 57.4752 45.4258 57.4752 45.5332C57.4752 45.6406 57.5436 45.7611 57.6803 45.8945C57.817 46.0247 58.0416 46.181 58.3541 46.3633C58.6666 46.5456 58.8945 46.7002 59.0377 46.8271C59.3632 47.1169 59.526 47.4521 59.526 47.833C59.526 48.2139 59.386 48.5166 59.1061 48.7412C58.8261 48.9626 58.5006 49.0732 58.1295 49.0732C57.9309 49.0732 57.7503 49.0456 57.5875 48.9902C57.428 48.9382 57.3352 48.9121 57.3092 48.9121C57.2864 48.9121 57.2474 48.9382 57.192 48.9902C57.1399 49.0456 57.0976 49.0732 57.0651 49.0732H56.9821C56.9625 49.0732 56.9381 48.8975 56.9088 48.5459C56.8795 48.1943 56.8649 47.986 56.8649 47.9209C56.8649 47.8558 56.8698 47.82 56.8795 47.8135C56.8925 47.807 56.9121 47.8037 56.9381 47.8037C56.9642 47.8037 56.9853 47.8118 57.0016 47.8281C57.0211 47.8444 57.0374 47.8656 57.0504 47.8916C57.0634 47.9144 57.0732 47.9388 57.0797 47.9648C57.0895 47.9909 57.1106 48.0397 57.1432 48.1113C57.3645 48.5833 57.7063 48.8193 58.1686 48.8193C58.3737 48.8193 58.538 48.7445 58.6617 48.5947C58.7854 48.4417 58.8473 48.2725 58.8473 48.0869C58.8473 47.9014 58.7985 47.7451 58.7008 47.6182C58.6031 47.4912 58.4811 47.3757 58.3346 47.2715C58.1914 47.1673 58.0351 47.0664 57.8658 46.9688C57.2083 46.5846 56.8795 46.1598 56.8795 45.6943C56.8795 45.346 57.0293 45.0465 57.3287 44.7959C57.6282 44.542 57.9358 44.415 58.2516 44.415C58.5673 44.415 58.8001 44.4492 58.9498 44.5176C59.1028 44.5859 59.1923 44.6445 59.2184 44.6934C59.2444 44.7389 59.2574 44.8919 59.2574 45.1523V45.6016ZM60.2633 46.749C60.2633 46.1077 60.4895 45.5576 60.942 45.0986C61.3977 44.6364 61.943 44.4053 62.5778 44.4053C63.2125 44.4053 63.7643 44.6299 64.233 45.0791C64.7018 45.5251 64.9362 46.0768 64.9362 46.7344C64.9362 47.3919 64.7132 47.9469 64.2672 48.3994C63.8245 48.8486 63.2679 49.0732 62.5973 49.0732C61.9267 49.0732 61.3701 48.8454 60.9274 48.3896C60.4847 47.9339 60.2633 47.387 60.2633 46.749ZM61.4791 48.0039C61.7981 48.541 62.2327 48.8096 62.7828 48.8096C63.2093 48.8096 63.5348 48.6387 63.7594 48.2969C63.9873 47.9551 64.1012 47.5352 64.1012 47.0371C64.1012 46.5391 63.9417 46.028 63.6227 45.5039C63.3069 44.9798 62.8805 44.7178 62.3434 44.7178C61.9495 44.7178 61.6386 44.8887 61.4108 45.2305C61.1862 45.569 61.0739 46.0003 61.0739 46.5244C61.0739 47.0452 61.2089 47.5384 61.4791 48.0039ZM71.3473 44.6201C71.4905 44.6689 71.5784 44.6934 71.611 44.6934C71.6435 44.6934 71.663 44.6934 71.6696 44.6934C71.6793 44.6901 71.6907 44.6689 71.7037 44.6299V42.1104C71.7037 41.9736 71.6289 41.8792 71.4791 41.8271C71.414 41.8044 71.344 41.7865 71.2692 41.7734C71.1943 41.7572 71.1341 41.7425 71.0885 41.7295C71.0462 41.7165 71.0185 41.7051 71.0055 41.6953C70.9957 41.6823 70.9908 41.6579 70.9908 41.6221C70.9908 41.583 71.0153 41.5505 71.0641 41.5244L72.3092 40.9385C72.3483 40.9189 72.3727 40.9092 72.3824 40.9092C72.4378 40.9092 72.4655 40.9482 72.4655 41.0264V47.9795C72.4817 48.1227 72.5224 48.2253 72.5875 48.2871C72.6526 48.349 72.7584 48.3799 72.9049 48.3799L73.1881 48.3604C73.2076 48.3604 73.2174 48.3799 73.2174 48.4189C73.2174 48.4548 73.193 48.484 73.1442 48.5068L71.8453 49.0439C71.8063 49.0635 71.7721 49.0732 71.7428 49.0732C71.7168 49.0732 71.7037 49.0326 71.7037 48.9512V48.5068C71.7037 48.4743 71.6956 48.458 71.6793 48.458C71.6565 48.458 71.5214 48.5312 71.274 48.6777C70.5156 49.127 69.8759 49.1937 69.3551 48.8779C68.9384 48.624 68.6569 48.222 68.5104 47.6719C68.442 47.4147 68.4078 47.1429 68.4078 46.8564C68.4078 46.5667 68.4664 46.2803 68.5836 45.9971C68.7041 45.7106 68.8684 45.46 69.0768 45.2451C69.5358 44.7764 70.0892 44.542 70.7369 44.542C71.0006 44.542 71.2041 44.568 71.3473 44.6201ZM69.1451 46.7148C69.1451 47.2064 69.2819 47.6377 69.5553 48.0088C69.8287 48.3766 70.2096 48.5605 70.6979 48.5605C70.9127 48.5605 71.1341 48.5085 71.3619 48.4043C71.5898 48.2969 71.7037 48.2155 71.7037 48.1602V45.6406C71.7037 45.5788 71.6614 45.5055 71.5768 45.4209C71.3164 45.0628 70.9697 44.8838 70.5367 44.8838C70.1071 44.8838 69.7669 45.0661 69.5162 45.4307C69.2688 45.792 69.1451 46.2201 69.1451 46.7148ZM74.443 46.3682C74.3877 46.3682 74.36 46.487 74.36 46.7246C74.36 47.2292 74.5097 47.6523 74.8092 47.9941C75.1087 48.3359 75.4798 48.5068 75.9225 48.5068C76.3684 48.5068 76.7965 48.3148 77.2067 47.9307C77.2132 47.9242 77.2213 47.9209 77.2311 47.9209H77.2555C77.275 47.9209 77.2929 47.9372 77.3092 47.9697C77.3287 47.999 77.3466 48.0186 77.3629 48.0283C76.9853 48.4873 76.541 48.8047 76.0299 48.9805C75.8541 49.0423 75.6556 49.0732 75.4342 49.0732C75.2128 49.0732 74.9882 49.013 74.7604 48.8926C74.5325 48.7689 74.3372 48.6077 74.1744 48.4092C73.8294 47.9958 73.6569 47.4814 73.6569 46.8662C73.6569 46.2477 73.844 45.6846 74.2184 45.1768C74.596 44.6689 75.1136 44.415 75.7711 44.415C76.2431 44.415 76.6289 44.6266 76.9283 45.0498C77.2278 45.4697 77.3776 45.8392 77.3776 46.1582C77.3776 46.2982 77.3434 46.3682 77.275 46.3682H74.443ZM74.4967 45.8994C74.4967 45.9613 74.526 45.9922 74.5846 45.9922H76.4254C76.5101 45.9922 76.5524 45.9417 76.5524 45.8408C76.5524 45.6064 76.4466 45.3672 76.235 45.123C76.0267 44.8757 75.7972 44.752 75.5465 44.752C75.3024 44.752 75.0794 44.8626 74.8776 45.084C74.679 45.3053 74.552 45.5576 74.4967 45.8408V45.8994ZM80.566 45.6016C80.566 45.6732 80.5384 45.709 80.483 45.709C80.4309 45.709 80.3903 45.6699 80.361 45.5918C80.2828 45.377 80.1656 45.1865 80.0094 45.0205C79.8564 44.8545 79.666 44.7715 79.4381 44.7715C79.1386 44.7715 78.9368 44.9212 78.8326 45.2207C78.8001 45.3216 78.7838 45.4258 78.7838 45.5332C78.7838 45.6406 78.8522 45.7611 78.9889 45.8945C79.1256 46.0247 79.3502 46.181 79.6627 46.3633C79.9752 46.5456 80.2031 46.7002 80.3463 46.8271C80.6718 47.1169 80.8346 47.4521 80.8346 47.833C80.8346 48.2139 80.6946 48.5166 80.4147 48.7412C80.1347 48.9626 79.8092 49.0732 79.4381 49.0732C79.2395 49.0732 79.0589 49.0456 78.8961 48.9902C78.7366 48.9382 78.6438 48.9121 78.6178 48.9121C78.595 48.9121 78.5559 48.9382 78.5006 48.9902C78.4485 49.0456 78.4062 49.0732 78.3737 49.0732H78.2906C78.2711 49.0732 78.2467 48.8975 78.2174 48.5459C78.1881 48.1943 78.1735 47.986 78.1735 47.9209C78.1735 47.8558 78.1783 47.82 78.1881 47.8135C78.2011 47.807 78.2207 47.8037 78.2467 47.8037C78.2727 47.8037 78.2939 47.8118 78.3102 47.8281C78.3297 47.8444 78.346 47.8656 78.359 47.8916C78.372 47.9144 78.3818 47.9388 78.3883 47.9648C78.3981 47.9909 78.4192 48.0397 78.4518 48.1113C78.6731 48.5833 79.0149 48.8193 79.4772 48.8193C79.6823 48.8193 79.8466 48.7445 79.9703 48.5947C80.094 48.4417 80.1559 48.2725 80.1559 48.0869C80.1559 47.9014 80.1071 47.7451 80.0094 47.6182C79.9117 47.4912 79.7897 47.3757 79.6432 47.2715C79.5 47.1673 79.3437 47.0664 79.1744 46.9688C78.5169 46.5846 78.1881 46.1598 78.1881 45.6943C78.1881 45.346 78.3378 45.0465 78.6373 44.7959C78.9368 44.542 79.2444 44.415 79.5602 44.415C79.8759 44.415 80.1087 44.4492 80.2584 44.5176C80.4114 44.5859 80.5009 44.6445 80.527 44.6934C80.553 44.7389 80.566 44.8919 80.566 45.1523V45.6016ZM88.066 45.001C88.066 45.2288 87.9342 45.3428 87.6705 45.3428C87.5371 45.3428 87.4231 45.3053 87.3287 45.2305C87.2376 45.1523 87.166 45.0872 87.1139 45.0352C87.0651 44.9798 87.013 44.9294 86.9576 44.8838C86.7233 44.6917 86.4368 44.6706 86.0983 44.8203C85.763 44.9701 85.5042 45.2891 85.3219 45.7773C85.221 46.0475 85.1705 46.3161 85.1705 46.583C85.1705 47.1559 85.3007 47.6247 85.5612 47.9893C85.8216 48.3506 86.2203 48.5312 86.7574 48.5312C87.1578 48.5312 87.5175 48.3522 87.8365 47.9941C87.9342 47.8867 87.9928 47.833 88.0123 47.833C88.0319 47.833 88.053 47.8428 88.0758 47.8623C88.0986 47.8818 88.11 47.9111 88.11 47.9502C88.11 47.986 88.1002 48.0137 88.0807 48.0332C87.5826 48.7266 86.956 49.0732 86.2008 49.0732C85.6539 49.0732 85.2047 48.8698 84.8531 48.4629C84.5048 48.056 84.3307 47.5905 84.3307 47.0664C84.3339 46.0964 84.5683 45.3981 85.0338 44.9717C85.444 44.5973 86.0283 44.4102 86.7867 44.4102C87.2555 44.4102 87.5664 44.4574 87.7194 44.5518C87.8724 44.6462 87.9798 44.765 88.0416 44.9082C88.0579 44.9408 88.066 44.9717 88.066 45.001ZM91.8112 48.1357C91.8112 48.2204 91.8502 48.2887 91.9283 48.3408C92.0097 48.3896 92.1025 48.4141 92.2067 48.4141C92.3108 48.4141 92.3971 48.388 92.4655 48.3359C92.5371 48.2806 92.5859 48.2529 92.6119 48.2529C92.638 48.2529 92.651 48.2887 92.651 48.3604C92.651 48.4287 92.6184 48.4873 92.5533 48.5361C92.0651 48.8942 91.7347 49.0732 91.5621 49.0732C91.3538 49.0732 91.1845 48.8568 91.0543 48.4238C91.0446 48.3913 91.0364 48.3766 91.0299 48.3799C90.6263 48.6826 90.3724 48.8649 90.2682 48.9268C90.0013 49.0798 89.7327 49.1042 89.4625 49C89.1956 48.8958 89.0019 48.7233 88.8815 48.4824C88.8229 48.3587 88.7936 48.2269 88.7936 48.0869C88.7936 47.8102 88.8961 47.5905 89.1012 47.4277C89.3063 47.265 89.6969 47.1087 90.2731 46.959C90.4684 46.9069 90.6425 46.8402 90.7955 46.7588C90.9485 46.6774 91.0283 46.6253 91.0348 46.6025C91.0446 46.5798 91.0494 46.5586 91.0494 46.5391V45.6016C91.0494 45.2337 90.9062 44.9749 90.6198 44.8252C90.5253 44.7764 90.4114 44.752 90.278 44.752C90.1477 44.752 90.0143 44.804 89.8776 44.9082C89.7441 45.0124 89.6774 45.1605 89.6774 45.3525L89.7018 45.543C89.6823 45.582 89.5651 45.6471 89.3502 45.7383C89.1354 45.8294 89.0117 45.8783 88.9791 45.8848C88.927 45.8848 88.901 45.8229 88.901 45.6992C88.901 45.5723 88.9384 45.4323 89.0133 45.2793C89.0882 45.1263 89.194 44.9863 89.3307 44.8594C89.6497 44.5632 90.0143 44.415 90.4244 44.415C90.8346 44.415 91.1683 44.529 91.4254 44.7568C91.6826 44.9814 91.8112 45.25 91.8112 45.5625V48.1357ZM89.5602 47.9941C89.5602 48.1504 89.6204 48.2871 89.7408 48.4043C89.8613 48.5182 89.998 48.5752 90.151 48.5752C90.3073 48.5752 90.4961 48.5101 90.7174 48.3799C90.9388 48.2464 91.0494 48.1097 91.0494 47.9697V46.9785C91.0494 46.9427 91.0413 46.9248 91.025 46.9248C91.0087 46.9248 90.9974 46.9264 90.9908 46.9297L89.858 47.457C89.7408 47.5417 89.6611 47.6133 89.6188 47.6719C89.5797 47.7305 89.5602 47.8379 89.5602 47.9941ZM96.0885 45.4404C96.0494 45.4339 95.9925 45.4128 95.9176 45.377C95.6474 45.2533 95.4358 45.1914 95.2828 45.1914C95.1298 45.1914 94.9687 45.2874 94.7994 45.4795C94.6334 45.6683 94.5504 45.8392 94.5504 45.9922V48.1992C94.5504 48.4434 94.692 48.6061 94.9752 48.6875C95.0989 48.7201 95.2145 48.7445 95.3219 48.7607C95.4293 48.7738 95.4977 48.7868 95.527 48.7998C95.5595 48.8128 95.5758 48.8389 95.5758 48.8779C95.5758 48.9137 95.5595 48.9349 95.527 48.9414H93.0807C93.0481 48.9349 93.0319 48.9121 93.0319 48.873C93.0319 48.8145 93.1084 48.7754 93.2614 48.7559C93.6129 48.7038 93.7887 48.5182 93.7887 48.1992V45.6162C93.7887 45.4795 93.7138 45.3851 93.5641 45.333C93.499 45.3102 93.429 45.2923 93.3541 45.2793C93.2793 45.263 93.219 45.2484 93.1735 45.2354C93.1311 45.2223 93.1035 45.2109 93.0905 45.2012C93.0807 45.1882 93.0758 45.1637 93.0758 45.1279C93.0758 45.0889 93.1002 45.0563 93.149 45.0303L94.3942 44.4443C94.4332 44.4248 94.4576 44.415 94.4674 44.415C94.5227 44.415 94.5504 44.4541 94.5504 44.5322V45.3232C94.5504 45.3623 94.5602 45.3818 94.5797 45.3818C94.6058 45.3818 94.6725 45.3053 94.7799 45.1523C95.0892 44.7194 95.3447 44.5029 95.5465 44.5029C95.6604 44.5029 95.8346 44.5485 96.069 44.6396C96.3066 44.7308 96.4254 44.8073 96.4254 44.8691C96.4254 44.944 96.388 45.0579 96.3131 45.2109C96.2382 45.3639 96.1634 45.4404 96.0885 45.4404ZM97.9586 45.1865C97.9391 45.1865 97.9293 45.2012 97.9293 45.2305V47.9258C97.9293 48.1211 97.9716 48.2741 98.0563 48.3848C98.1442 48.4954 98.2548 48.5508 98.3883 48.5508C98.5218 48.5508 98.6373 48.5296 98.735 48.4873C98.8359 48.4417 98.9222 48.3929 98.9938 48.3408C99.0686 48.2887 99.1354 48.2415 99.194 48.1992C99.2526 48.1536 99.3046 48.1309 99.3502 48.1309C99.3958 48.1309 99.4186 48.1423 99.4186 48.165C99.4186 48.2432 99.4104 48.2936 99.3942 48.3164C99.0035 48.821 98.6259 49.0732 98.2614 49.0732C97.9 49.0732 97.6266 48.9593 97.441 48.7314C97.2587 48.5003 97.1676 48.2253 97.1676 47.9062V45.1865H96.8014C96.7102 45.1865 96.6614 45.1572 96.6549 45.0986C96.6517 45.04 96.6614 45.0026 96.6842 44.9863C96.8567 44.8757 97.0944 44.6771 97.3971 44.3906C97.4296 44.3548 97.4736 44.3011 97.5289 44.2295C97.5843 44.1579 97.664 44.0602 97.7682 43.9365C97.8756 43.8128 97.957 43.751 98.0123 43.751C98.0677 43.751 98.0953 43.7738 98.0953 43.8193C98.0953 43.8258 98.04 44.0391 97.9293 44.459C97.9293 44.5176 97.9554 44.5485 98.0074 44.5518H99.2526C99.3958 44.5518 99.4674 44.7536 99.4674 45.1572C99.4674 45.1768 99.4544 45.1865 99.4283 45.1865H97.9586ZM100.722 46.3682C100.667 46.3682 100.639 46.487 100.639 46.7246C100.639 47.2292 100.789 47.6523 101.089 47.9941C101.388 48.3359 101.759 48.5068 102.202 48.5068C102.648 48.5068 103.076 48.3148 103.486 47.9307C103.492 47.9242 103.501 47.9209 103.51 47.9209H103.535C103.554 47.9209 103.572 47.9372 103.589 47.9697C103.608 47.999 103.626 48.0186 103.642 48.0283C103.265 48.4873 102.82 48.8047 102.309 48.9805C102.133 49.0423 101.935 49.0732 101.714 49.0732C101.492 49.0732 101.268 49.013 101.04 48.8926C100.812 48.7689 100.616 48.6077 100.454 48.4092C100.109 47.9958 99.9362 47.4814 99.9362 46.8662C99.9362 46.2477 100.123 45.6846 100.498 45.1768C100.875 44.6689 101.393 44.415 102.05 44.415C102.522 44.415 102.908 44.6266 103.208 45.0498C103.507 45.4697 103.657 45.8392 103.657 46.1582C103.657 46.2982 103.623 46.3682 103.554 46.3682H100.722ZM100.776 45.8994C100.776 45.9613 100.805 45.9922 100.864 45.9922H102.705C102.789 45.9922 102.832 45.9417 102.832 45.8408C102.832 45.6064 102.726 45.3672 102.514 45.123C102.306 44.8757 102.076 44.752 101.826 44.752C101.582 44.752 101.359 44.8626 101.157 45.084C100.958 45.3053 100.831 45.5576 100.776 45.8408V45.8994ZM108.486 45.1621C108.486 45.2402 108.497 45.2793 108.52 45.2793C108.543 45.2793 108.559 45.2744 108.569 45.2646C108.579 45.2516 108.647 45.1751 108.774 45.0352C109.142 44.625 109.515 44.4199 109.892 44.4199C110.387 44.4199 110.75 44.5306 110.981 44.752C111.264 45.0319 111.406 45.5023 111.406 46.1631V48.1992C111.406 48.5182 111.582 48.7038 111.933 48.7559C112.086 48.7754 112.163 48.8096 112.163 48.8584C112.163 48.9072 112.146 48.9349 112.114 48.9414H109.936C109.904 48.9349 109.887 48.9121 109.887 48.873C109.887 48.8145 109.964 48.7754 110.117 48.7559C110.468 48.7038 110.644 48.5182 110.644 48.1992V46.2119C110.644 45.7334 110.61 45.4225 110.542 45.2793C110.411 44.9928 110.14 44.8496 109.726 44.8496C109.472 44.8496 109.202 44.9587 108.916 45.1768C108.629 45.3916 108.486 45.6292 108.486 45.8896V48.1992C108.486 48.5182 108.662 48.7038 109.013 48.7559C109.166 48.7754 109.243 48.8096 109.243 48.8584C109.243 48.9072 109.227 48.9349 109.194 48.9414H107.016C106.984 48.9349 106.967 48.9121 106.967 48.873C106.967 48.8145 107.044 48.7754 107.197 48.7559C107.548 48.7038 107.724 48.5182 107.724 48.1992V42.1104C107.724 41.9736 107.649 41.8792 107.5 41.8271C107.435 41.8044 107.365 41.7865 107.29 41.7734C107.215 41.7572 107.155 41.7425 107.109 41.7295C107.067 41.7165 107.039 41.7051 107.026 41.6953C107.016 41.6823 107.011 41.6579 107.011 41.6221C107.011 41.583 107.036 41.5505 107.085 41.5244L108.33 40.9385C108.369 40.9189 108.393 40.9092 108.403 40.9092C108.458 40.9092 108.486 40.9482 108.486 41.0264V45.1621ZM112.651 48.9414C112.618 48.9349 112.602 48.9121 112.602 48.873C112.602 48.8145 112.679 48.7754 112.832 48.7559C113.183 48.7038 113.359 48.5182 113.359 48.1992V45.6162C113.359 45.4795 113.284 45.3851 113.134 45.333C113.069 45.3102 112.999 45.2923 112.924 45.2793C112.85 45.263 112.789 45.2484 112.744 45.2354C112.701 45.2223 112.674 45.2109 112.661 45.2012C112.651 45.1882 112.646 45.1637 112.646 45.1279C112.646 45.0889 112.671 45.0563 112.719 45.0303L113.964 44.4443C114.004 44.4248 114.028 44.415 114.038 44.415C114.093 44.415 114.121 44.4541 114.121 44.5322V48.1992C114.121 48.5182 114.297 48.7038 114.648 48.7559C114.801 48.7754 114.878 48.8096 114.878 48.8584C114.878 48.9072 114.861 48.9349 114.829 48.9414H112.651ZM113.667 43.043C113.533 43.043 113.414 43.0007 113.31 42.916C113.209 42.8314 113.159 42.7142 113.159 42.5645C113.159 42.4115 113.208 42.291 113.305 42.2031C113.403 42.1152 113.519 42.0713 113.652 42.0713C113.789 42.0713 113.903 42.1234 113.994 42.2275C114.088 42.3317 114.135 42.444 114.135 42.5645C114.135 42.6849 114.091 42.7956 114.004 42.8965C113.916 42.9941 113.803 43.043 113.667 43.043ZM117.832 45.6016C117.832 45.6732 117.804 45.709 117.749 45.709C117.697 45.709 117.656 45.6699 117.627 45.5918C117.548 45.377 117.431 45.1865 117.275 45.0205C117.122 44.8545 116.932 44.7715 116.704 44.7715C116.404 44.7715 116.202 44.9212 116.098 45.2207C116.066 45.3216 116.049 45.4258 116.049 45.5332C116.049 45.6406 116.118 45.7611 116.255 45.8945C116.391 46.0247 116.616 46.181 116.928 46.3633C117.241 46.5456 117.469 46.7002 117.612 46.8271C117.937 47.1169 118.1 47.4521 118.1 47.833C118.1 48.2139 117.96 48.5166 117.68 48.7412C117.4 48.9626 117.075 49.0732 116.704 49.0732C116.505 49.0732 116.325 49.0456 116.162 48.9902C116.002 48.9382 115.909 48.9121 115.883 48.9121C115.861 48.9121 115.822 48.9382 115.766 48.9902C115.714 49.0456 115.672 49.0732 115.639 49.0732H115.556C115.537 49.0732 115.512 48.8975 115.483 48.5459C115.454 48.1943 115.439 47.986 115.439 47.9209C115.439 47.8558 115.444 47.82 115.454 47.8135C115.467 47.807 115.486 47.8037 115.512 47.8037C115.538 47.8037 115.56 47.8118 115.576 47.8281C115.595 47.8444 115.612 47.8656 115.625 47.8916C115.638 47.9144 115.647 47.9388 115.654 47.9648C115.664 47.9909 115.685 48.0397 115.717 48.1113C115.939 48.5833 116.281 48.8193 116.743 48.8193C116.948 48.8193 117.112 48.7445 117.236 48.5947C117.36 48.4417 117.422 48.2725 117.422 48.0869C117.422 47.9014 117.373 47.7451 117.275 47.6182C117.177 47.4912 117.055 47.3757 116.909 47.2715C116.766 47.1673 116.609 47.0664 116.44 46.9688C115.783 46.5846 115.454 46.1598 115.454 45.6943C115.454 45.346 115.603 45.0465 115.903 44.7959C116.202 44.542 116.51 44.415 116.826 44.415C117.142 44.415 117.374 44.4492 117.524 44.5176C117.677 44.5859 117.767 44.6445 117.793 44.6934C117.819 44.7389 117.832 44.8919 117.832 45.1523V45.6016ZM120 45.1865C119.98 45.1865 119.97 45.2012 119.97 45.2305V47.9258C119.97 48.1211 120.013 48.2741 120.097 48.3848C120.185 48.4954 120.296 48.5508 120.429 48.5508C120.563 48.5508 120.678 48.5296 120.776 48.4873C120.877 48.4417 120.963 48.3929 121.035 48.3408C121.11 48.2887 121.176 48.2415 121.235 48.1992C121.294 48.1536 121.346 48.1309 121.391 48.1309C121.437 48.1309 121.46 48.1423 121.46 48.165C121.46 48.2432 121.451 48.2936 121.435 48.3164C121.045 48.821 120.667 49.0732 120.302 49.0732C119.941 49.0732 119.668 48.9593 119.482 48.7314C119.3 48.5003 119.209 48.2253 119.209 47.9062V45.1865H118.842C118.751 45.1865 118.702 45.1572 118.696 45.0986C118.693 45.04 118.702 45.0026 118.725 44.9863C118.898 44.8757 119.135 44.6771 119.438 44.3906C119.471 44.3548 119.515 44.3011 119.57 44.2295C119.625 44.1579 119.705 44.0602 119.809 43.9365C119.917 43.8128 119.998 43.751 120.053 43.751C120.109 43.751 120.136 43.7738 120.136 43.8193C120.136 43.8258 120.081 44.0391 119.97 44.459C119.97 44.5176 119.996 44.5485 120.048 44.5518H121.294C121.437 44.5518 121.508 44.7536 121.508 45.1572C121.508 45.1768 121.495 45.1865 121.469 45.1865H120ZM122.002 46.749C122.002 46.1077 122.228 45.5576 122.68 45.0986C123.136 44.6364 123.681 44.4053 124.316 44.4053C124.951 44.4053 125.503 44.6299 125.971 45.0791C126.44 45.5251 126.674 46.0768 126.674 46.7344C126.674 47.3919 126.451 47.9469 126.005 48.3994C125.563 48.8486 125.006 49.0732 124.336 49.0732C123.665 49.0732 123.108 48.8454 122.666 48.3896C122.223 47.9339 122.002 47.387 122.002 46.749ZM123.217 48.0039C123.536 48.541 123.971 48.8096 124.521 48.8096C124.948 48.8096 125.273 48.6387 125.498 48.2969C125.726 47.9551 125.839 47.5352 125.839 47.0371C125.839 46.5391 125.68 46.028 125.361 45.5039C125.045 44.9798 124.619 44.7178 124.082 44.7178C123.688 44.7178 123.377 44.8887 123.149 45.2305C122.924 45.569 122.812 46.0003 122.812 46.5244C122.812 47.0452 122.947 47.5384 123.217 48.0039ZM127.387 48.9414C127.355 48.9349 127.339 48.9121 127.339 48.873C127.339 48.8145 127.415 48.7754 127.568 48.7559C127.92 48.7038 128.095 48.5182 128.095 48.1992V45.6162C128.095 45.4795 128.02 45.3851 127.871 45.333C127.806 45.3102 127.736 45.2923 127.661 45.2793C127.586 45.263 127.526 45.2484 127.48 45.2354C127.438 45.2223 127.41 45.2109 127.397 45.2012C127.387 45.1882 127.382 45.1637 127.382 45.1279C127.382 45.0889 127.407 45.0563 127.456 45.0303L128.701 44.4443C128.74 44.4248 128.764 44.415 128.774 44.415C128.829 44.415 128.857 44.4541 128.857 44.5322V48.1992C128.857 48.5182 129.033 48.7038 129.384 48.7559C129.537 48.7754 129.614 48.8096 129.614 48.8584C129.614 48.9072 129.598 48.9349 129.565 48.9414H127.387ZM128.403 43.043C128.269 43.043 128.151 43.0007 128.047 42.916C127.946 42.8314 127.895 42.7142 127.895 42.5645C127.895 42.4115 127.944 42.291 128.042 42.2031C128.139 42.1152 128.255 42.0713 128.388 42.0713C128.525 42.0713 128.639 42.1234 128.73 42.2275C128.825 42.3317 128.872 42.444 128.872 42.5645C128.872 42.6849 128.828 42.7956 128.74 42.8965C128.652 42.9941 128.54 43.043 128.403 43.043ZM133.169 45.4404C133.13 45.4339 133.073 45.4128 132.998 45.377C132.727 45.2533 132.516 45.1914 132.363 45.1914C132.21 45.1914 132.049 45.2874 131.88 45.4795C131.714 45.6683 131.63 45.8392 131.63 45.9922V48.1992C131.63 48.4434 131.772 48.6061 132.055 48.6875C132.179 48.7201 132.295 48.7445 132.402 48.7607C132.509 48.7738 132.578 48.7868 132.607 48.7998C132.64 48.8128 132.656 48.8389 132.656 48.8779C132.656 48.9137 132.64 48.9349 132.607 48.9414H130.161C130.128 48.9349 130.112 48.9121 130.112 48.873C130.112 48.8145 130.188 48.7754 130.341 48.7559C130.693 48.7038 130.869 48.5182 130.869 48.1992V45.6162C130.869 45.4795 130.794 45.3851 130.644 45.333C130.579 45.3102 130.509 45.2923 130.434 45.2793C130.359 45.263 130.299 45.2484 130.254 45.2354C130.211 45.2223 130.184 45.2109 130.171 45.2012C130.161 45.1882 130.156 45.1637 130.156 45.1279C130.156 45.0889 130.18 45.0563 130.229 45.0303L131.474 44.4443C131.513 44.4248 131.538 44.415 131.547 44.415C131.603 44.415 131.63 44.4541 131.63 44.5322V45.3232C131.63 45.3623 131.64 45.3818 131.66 45.3818C131.686 45.3818 131.753 45.3053 131.86 45.1523C132.169 44.7194 132.425 44.5029 132.627 44.5029C132.741 44.5029 132.915 44.5485 133.149 44.6396C133.387 44.7308 133.505 44.8073 133.505 44.8691C133.505 44.944 133.468 45.0579 133.393 45.2109C133.318 45.3639 133.243 45.4404 133.169 45.4404ZM134.638 46.3682C134.583 46.3682 134.555 46.487 134.555 46.7246C134.555 47.2292 134.705 47.6523 135.005 47.9941C135.304 48.3359 135.675 48.5068 136.118 48.5068C136.564 48.5068 136.992 48.3148 137.402 47.9307C137.408 47.9242 137.417 47.9209 137.426 47.9209H137.451C137.47 47.9209 137.488 47.9372 137.505 47.9697C137.524 47.999 137.542 48.0186 137.558 48.0283C137.181 48.4873 136.736 48.8047 136.225 48.9805C136.049 49.0423 135.851 49.0732 135.63 49.0732C135.408 49.0732 135.184 49.013 134.956 48.8926C134.728 48.7689 134.533 48.6077 134.37 48.4092C134.025 47.9958 133.852 47.4814 133.852 46.8662C133.852 46.2477 134.039 45.6846 134.414 45.1768C134.791 44.6689 135.309 44.415 135.966 44.415C136.438 44.415 136.824 44.6266 137.124 45.0498C137.423 45.4697 137.573 45.8392 137.573 46.1582C137.573 46.2982 137.539 46.3682 137.47 46.3682H134.638ZM134.692 45.8994C134.692 45.9613 134.721 45.9922 134.78 45.9922H136.621C136.705 45.9922 136.748 45.9417 136.748 45.8408C136.748 45.6064 136.642 45.3672 136.43 45.123C136.222 44.8757 135.992 44.752 135.742 44.752C135.498 44.752 135.275 44.8626 135.073 45.084C134.874 45.3053 134.747 45.5576 134.692 45.8408V45.8994ZM22.2213 59.6016C22.2213 59.6732 22.1936 59.709 22.1383 59.709C22.0862 59.709 22.0455 59.6699 22.0162 59.5918C21.9381 59.377 21.8209 59.1865 21.6647 59.0205C21.5117 58.8545 21.3212 58.7715 21.0934 58.7715C20.7939 58.7715 20.5921 58.9212 20.4879 59.2207C20.4554 59.3216 20.4391 59.4258 20.4391 59.5332C20.4391 59.6406 20.5074 59.7611 20.6442 59.8945C20.7809 60.0247 21.0055 60.181 21.318 60.3633C21.6305 60.5456 21.8584 60.7002 22.0016 60.8271C22.3271 61.1169 22.4899 61.4521 22.4899 61.833C22.4899 62.2139 22.3499 62.5166 22.0699 62.7412C21.79 62.9626 21.4645 63.0732 21.0934 63.0732C20.8948 63.0732 20.7142 63.0456 20.5514 62.9902C20.3919 62.9382 20.2991 62.9121 20.2731 62.9121C20.2503 62.9121 20.2112 62.9382 20.1559 62.9902C20.1038 63.0456 20.0615 63.0732 20.0289 63.0732H19.9459C19.9264 63.0732 19.902 62.8975 19.8727 62.5459C19.8434 62.1943 19.8287 61.986 19.8287 61.9209C19.8287 61.8558 19.8336 61.82 19.8434 61.8135C19.8564 61.807 19.8759 61.8037 19.902 61.8037C19.928 61.8037 19.9492 61.8118 19.9655 61.8281C19.985 61.8444 20.0013 61.8656 20.0143 61.8916C20.0273 61.9144 20.0371 61.9388 20.0436 61.9648C20.0533 61.9909 20.0745 62.0397 20.1071 62.1113C20.3284 62.5833 20.6702 62.8193 21.1324 62.8193C21.3375 62.8193 21.5019 62.7445 21.6256 62.5947C21.7493 62.4417 21.8112 62.2725 21.8112 62.0869C21.8112 61.9014 21.7623 61.7451 21.6647 61.6182C21.567 61.4912 21.4449 61.3757 21.2985 61.2715C21.1552 61.1673 20.999 61.0664 20.8297 60.9688C20.1722 60.5846 19.8434 60.1598 19.8434 59.6943C19.8434 59.346 19.9931 59.0465 20.2926 58.7959C20.5921 58.542 20.8997 58.415 21.2155 58.415C21.5312 58.415 21.764 58.4492 21.9137 58.5176C22.0667 58.5859 22.1562 58.6445 22.1823 58.6934C22.2083 58.7389 22.2213 58.8919 22.2213 59.1523V59.6016ZM23.9889 60.3682C23.9336 60.3682 23.9059 60.487 23.9059 60.7246C23.9059 61.2292 24.0556 61.6523 24.3551 61.9941C24.6546 62.3359 25.0257 62.5068 25.4684 62.5068C25.9143 62.5068 26.3424 62.3148 26.7526 61.9307C26.7591 61.9242 26.7672 61.9209 26.777 61.9209H26.8014C26.8209 61.9209 26.8388 61.9372 26.8551 61.9697C26.8746 61.999 26.8925 62.0186 26.9088 62.0283C26.5312 62.4873 26.0869 62.8047 25.5758 62.9805C25.4 63.0423 25.2015 63.0732 24.9801 63.0732C24.7587 63.0732 24.5341 63.013 24.3063 62.8926C24.0784 62.7689 23.8831 62.6077 23.7203 62.4092C23.3753 61.9958 23.2028 61.4814 23.2028 60.8662C23.2028 60.2477 23.3899 59.6846 23.7643 59.1768C24.1419 58.6689 24.6595 58.415 25.317 58.415C25.789 58.415 26.1748 58.6266 26.4742 59.0498C26.7737 59.4697 26.9235 59.8392 26.9235 60.1582C26.9235 60.2982 26.8893 60.3682 26.8209 60.3682H23.9889ZM24.0426 59.8994C24.0426 59.9613 24.0719 59.9922 24.1305 59.9922H25.9713C26.0559 59.9922 26.0983 59.9417 26.0983 59.8408C26.0983 59.6064 25.9925 59.3672 25.7809 59.123C25.5726 58.8757 25.3431 58.752 25.0924 58.752C24.8483 58.752 24.6253 58.8626 24.4235 59.084C24.2249 59.3053 24.0979 59.5576 24.0426 59.8408V59.8994ZM34.2623 59.001C34.2623 59.2288 34.1305 59.3428 33.8668 59.3428C33.7334 59.3428 33.6194 59.3053 33.525 59.2305C33.4339 59.1523 33.3623 59.0872 33.3102 59.0352C33.2614 58.9798 33.2093 58.9294 33.1539 58.8838C32.9196 58.6917 32.6331 58.6706 32.2946 58.8203C31.9593 58.9701 31.7005 59.2891 31.5182 59.7773C31.4173 60.0475 31.3668 60.3161 31.3668 60.583C31.3668 61.1559 31.497 61.6247 31.7574 61.9893C32.0179 62.3506 32.4166 62.5312 32.9537 62.5312C33.3541 62.5312 33.7138 62.3522 34.0328 61.9941C34.1305 61.8867 34.1891 61.833 34.2086 61.833C34.2281 61.833 34.2493 61.8428 34.2721 61.8623C34.2949 61.8818 34.3063 61.9111 34.3063 61.9502C34.3063 61.986 34.2965 62.0137 34.277 62.0332C33.7789 62.7266 33.1523 63.0732 32.3971 63.0732C31.8502 63.0732 31.401 62.8698 31.0494 62.4629C30.7011 62.056 30.527 61.5905 30.527 61.0664C30.5302 60.0964 30.7646 59.3981 31.2301 58.9717C31.6403 58.5973 32.2246 58.4102 32.983 58.4102C33.4518 58.4102 33.7627 58.4574 33.9156 58.5518C34.0686 58.6462 34.1761 58.765 34.2379 58.9082C34.2542 58.9408 34.2623 58.9717 34.2623 59.001ZM38.0074 62.1357C38.0074 62.2204 38.0465 62.2887 38.1246 62.3408C38.206 62.3896 38.2988 62.4141 38.403 62.4141C38.5071 62.4141 38.5934 62.388 38.6617 62.3359C38.7334 62.2806 38.7822 62.2529 38.8082 62.2529C38.8343 62.2529 38.8473 62.2887 38.8473 62.3604C38.8473 62.4287 38.8147 62.4873 38.7496 62.5361C38.2614 62.8942 37.9309 63.0732 37.7584 63.0732C37.5501 63.0732 37.3808 62.8568 37.2506 62.4238C37.2408 62.3913 37.2327 62.3766 37.2262 62.3799C36.8226 62.6826 36.5686 62.8649 36.4645 62.9268C36.1976 63.0798 35.929 63.1042 35.6588 63C35.3919 62.8958 35.1982 62.7233 35.0778 62.4824C35.0192 62.3587 34.9899 62.2269 34.9899 62.0869C34.9899 61.8102 35.0924 61.5905 35.2975 61.4277C35.5026 61.265 35.8932 61.1087 36.4694 60.959C36.6647 60.9069 36.8388 60.8402 36.9918 60.7588C37.1448 60.6774 37.2246 60.6253 37.2311 60.6025C37.2408 60.5798 37.2457 60.5586 37.2457 60.5391V59.6016C37.2457 59.2337 37.1025 58.9749 36.816 58.8252C36.7216 58.7764 36.6077 58.752 36.4742 58.752C36.344 58.752 36.2106 58.804 36.0739 58.9082C35.9404 59.0124 35.8737 59.1605 35.8737 59.3525L35.8981 59.543C35.8785 59.582 35.7614 59.6471 35.5465 59.7383C35.3317 59.8294 35.208 59.8783 35.1754 59.8848C35.1233 59.8848 35.0973 59.8229 35.0973 59.6992C35.0973 59.5723 35.1347 59.4323 35.2096 59.2793C35.2845 59.1263 35.3903 58.9863 35.527 58.8594C35.846 58.5632 36.2106 58.415 36.6207 58.415C37.0309 58.415 37.3645 58.529 37.6217 58.7568C37.8789 58.9814 38.0074 59.25 38.0074 59.5625V62.1357ZM35.7565 61.9941C35.7565 62.1504 35.8167 62.2871 35.9371 62.4043C36.0576 62.5182 36.1943 62.5752 36.3473 62.5752C36.5035 62.5752 36.6923 62.5101 36.9137 62.3799C37.1351 62.2464 37.2457 62.1097 37.2457 61.9697V60.9785C37.2457 60.9427 37.2376 60.9248 37.2213 60.9248C37.205 60.9248 37.1936 60.9264 37.1871 60.9297L36.0543 61.457C35.9371 61.5417 35.8574 61.6133 35.8151 61.6719C35.776 61.7305 35.7565 61.8379 35.7565 61.9941ZM43.149 59.001C43.149 59.2288 43.0172 59.3428 42.7535 59.3428C42.6201 59.3428 42.5061 59.3053 42.4117 59.2305C42.3206 59.1523 42.249 59.0872 42.1969 59.0352C42.1481 58.9798 42.096 58.9294 42.0406 58.8838C41.8063 58.6917 41.5198 58.6706 41.1813 58.8203C40.846 58.9701 40.5872 59.2891 40.4049 59.7773C40.304 60.0475 40.2535 60.3161 40.2535 60.583C40.2535 61.1559 40.3837 61.6247 40.6442 61.9893C40.9046 62.3506 41.3033 62.5312 41.8405 62.5312C42.2408 62.5312 42.6005 62.3522 42.9196 61.9941C43.0172 61.8867 43.0758 61.833 43.0953 61.833C43.1149 61.833 43.136 61.8428 43.1588 61.8623C43.1816 61.8818 43.193 61.9111 43.193 61.9502C43.193 61.986 43.1832 62.0137 43.1637 62.0332C42.6656 62.7266 42.039 63.0732 41.2838 63.0732C40.7369 63.0732 40.2877 62.8698 39.9362 62.4629C39.5878 62.056 39.4137 61.5905 39.4137 61.0664C39.417 60.0964 39.6513 59.3981 40.1168 58.9717C40.527 58.5973 41.1113 58.4102 41.8698 58.4102C42.3385 58.4102 42.6494 58.4574 42.8024 58.5518C42.9554 58.6462 43.0628 58.765 43.1246 58.9082C43.1409 58.9408 43.149 58.9717 43.149 59.001ZM45.1998 59.1621C45.1998 59.2402 45.2112 59.2793 45.234 59.2793C45.2568 59.2793 45.2731 59.2744 45.2828 59.2646C45.2926 59.2516 45.361 59.1751 45.4879 59.0352C45.8558 58.625 46.2285 58.4199 46.6061 58.4199C47.1009 58.4199 47.4638 58.5306 47.6949 58.752C47.9781 59.0319 48.1198 59.5023 48.1198 60.1631V62.1992C48.1198 62.5182 48.2955 62.7038 48.6471 62.7559C48.8001 62.7754 48.8766 62.8096 48.8766 62.8584C48.8766 62.9072 48.8603 62.9349 48.8278 62.9414H46.65C46.6175 62.9349 46.6012 62.9121 46.6012 62.873C46.6012 62.8145 46.6777 62.7754 46.8307 62.7559C47.1823 62.7038 47.358 62.5182 47.358 62.1992V60.2119C47.358 59.7334 47.3239 59.4225 47.2555 59.2793C47.1253 58.9928 46.8535 58.8496 46.4401 58.8496C46.1862 58.8496 45.916 58.9587 45.6295 59.1768C45.3431 59.3916 45.1998 59.6292 45.1998 59.8896V62.1992C45.1998 62.5182 45.3756 62.7038 45.7272 62.7559C45.8802 62.7754 45.9567 62.8096 45.9567 62.8584C45.9567 62.9072 45.9404 62.9349 45.9078 62.9414H43.7301C43.6976 62.9349 43.6813 62.9121 43.6813 62.873C43.6813 62.8145 43.7578 62.7754 43.9108 62.7559C44.2623 62.7038 44.4381 62.5182 44.4381 62.1992V56.1104C44.4381 55.9736 44.3632 55.8792 44.2135 55.8271C44.1484 55.8044 44.0784 55.7865 44.0035 55.7734C43.9287 55.7572 43.8684 55.7425 43.8229 55.7295C43.7806 55.7165 43.7529 55.7051 43.7399 55.6953C43.7301 55.6823 43.7252 55.6579 43.7252 55.6221C43.7252 55.583 43.7496 55.5505 43.7985 55.5244L45.0436 54.9385C45.0826 54.9189 45.1071 54.9092 45.1168 54.9092C45.1722 54.9092 45.1998 54.9482 45.1998 55.0264V59.1621ZM50.151 60.3682C50.0957 60.3682 50.068 60.487 50.068 60.7246C50.068 61.2292 50.2177 61.6523 50.5172 61.9941C50.8167 62.3359 51.1878 62.5068 51.6305 62.5068C52.0765 62.5068 52.5045 62.3148 52.9147 61.9307C52.9212 61.9242 52.9293 61.9209 52.9391 61.9209H52.9635C52.983 61.9209 53.0009 61.9372 53.0172 61.9697C53.0367 61.999 53.0546 62.0186 53.0709 62.0283C52.6933 62.4873 52.249 62.8047 51.7379 62.9805C51.5621 63.0423 51.3636 63.0732 51.1422 63.0732C50.9209 63.0732 50.6962 63.013 50.4684 62.8926C50.2405 62.7689 50.0452 62.6077 49.8824 62.4092C49.5374 61.9958 49.3649 61.4814 49.3649 60.8662C49.3649 60.2477 49.552 59.6846 49.9264 59.1768C50.304 58.6689 50.8216 58.415 51.4791 58.415C51.9511 58.415 52.3369 58.6266 52.6364 59.0498C52.9358 59.4697 53.0856 59.8392 53.0856 60.1582C53.0856 60.2982 53.0514 60.3682 52.983 60.3682H50.151ZM50.2047 59.8994C50.2047 59.9613 50.234 59.9922 50.2926 59.9922H52.1334C52.2181 59.9922 52.2604 59.9417 52.2604 59.8408C52.2604 59.6064 52.1546 59.3672 51.943 59.123C51.7347 58.8757 51.5052 58.752 51.2545 58.752C51.0104 58.752 50.7874 58.8626 50.5856 59.084C50.387 59.3053 50.2601 59.5576 50.2047 59.8408V59.8994ZM59.6041 58.6201C59.7474 58.6689 59.8352 58.6934 59.8678 58.6934C59.9003 58.6934 59.9199 58.6934 59.9264 58.6934C59.9362 58.6901 59.9476 58.6689 59.9606 58.6299V56.1104C59.9606 55.9736 59.8857 55.8792 59.736 55.8271C59.6709 55.8044 59.6009 55.7865 59.526 55.7734C59.4511 55.7572 59.3909 55.7425 59.3453 55.7295C59.303 55.7165 59.2753 55.7051 59.2623 55.6953C59.2526 55.6823 59.2477 55.6579 59.2477 55.6221C59.2477 55.583 59.2721 55.5505 59.3209 55.5244L60.566 54.9385C60.6051 54.9189 60.6295 54.9092 60.6393 54.9092C60.6946 54.9092 60.7223 54.9482 60.7223 55.0264V61.9795C60.7386 62.1227 60.7793 62.2253 60.8444 62.2871C60.9095 62.349 61.0153 62.3799 61.1617 62.3799L61.4449 62.3604C61.4645 62.3604 61.4742 62.3799 61.4742 62.4189C61.4742 62.4548 61.4498 62.484 61.401 62.5068L60.1022 63.0439C60.0631 63.0635 60.0289 63.0732 59.9996 63.0732C59.9736 63.0732 59.9606 63.0326 59.9606 62.9512V62.5068C59.9606 62.4743 59.9524 62.458 59.9362 62.458C59.9134 62.458 59.7783 62.5312 59.5309 62.6777C58.7724 63.127 58.1328 63.1937 57.6119 62.8779C57.1953 62.624 56.9137 62.222 56.7672 61.6719C56.6989 61.4147 56.6647 61.1429 56.6647 60.8564C56.6647 60.5667 56.7233 60.2803 56.8405 59.9971C56.9609 59.7106 57.1253 59.46 57.3336 59.2451C57.7926 58.7764 58.346 58.542 58.9938 58.542C59.2574 58.542 59.4609 58.568 59.6041 58.6201ZM57.402 60.7148C57.402 61.2064 57.5387 61.6377 57.8121 62.0088C58.0856 62.3766 58.4664 62.5605 58.9547 62.5605C59.1696 62.5605 59.3909 62.5085 59.6188 62.4043C59.8466 62.2969 59.9606 62.2155 59.9606 62.1602V59.6406C59.9606 59.5788 59.9183 59.5055 59.8336 59.4209C59.5732 59.0628 59.2265 58.8838 58.7936 58.8838C58.3639 58.8838 58.0237 59.0661 57.7731 59.4307C57.5257 59.792 57.402 60.2201 57.402 60.7148ZM62.6998 60.3682C62.6445 60.3682 62.6168 60.487 62.6168 60.7246C62.6168 61.2292 62.7666 61.6523 63.066 61.9941C63.3655 62.3359 63.7366 62.5068 64.1793 62.5068C64.6253 62.5068 65.0533 62.3148 65.4635 61.9307C65.47 61.9242 65.4781 61.9209 65.4879 61.9209H65.5123C65.5319 61.9209 65.5498 61.9372 65.566 61.9697C65.5856 61.999 65.6035 62.0186 65.6198 62.0283C65.2421 62.4873 64.7978 62.8047 64.2867 62.9805C64.111 63.0423 63.9124 63.0732 63.691 63.0732C63.4697 63.0732 63.2451 63.013 63.0172 62.8926C62.7893 62.7689 62.594 62.6077 62.4313 62.4092C62.0862 61.9958 61.9137 61.4814 61.9137 60.8662C61.9137 60.2477 62.1009 59.6846 62.4752 59.1768C62.8528 58.6689 63.3704 58.415 64.028 58.415C64.5 58.415 64.8857 58.6266 65.1852 59.0498C65.4847 59.4697 65.6344 59.8392 65.6344 60.1582C65.6344 60.2982 65.6002 60.3682 65.5319 60.3682H62.6998ZM62.7535 59.8994C62.7535 59.9613 62.7828 59.9922 62.8414 59.9922H64.6823C64.7669 59.9922 64.8092 59.9417 64.8092 59.8408C64.8092 59.6064 64.7034 59.3672 64.4918 59.123C64.2835 58.8757 64.054 58.752 63.8033 58.752C63.5592 58.752 63.3362 58.8626 63.1344 59.084C62.9358 59.3053 62.8089 59.5576 62.7535 59.8408V59.8994ZM68.8229 59.6016C68.8229 59.6732 68.7952 59.709 68.7399 59.709C68.6878 59.709 68.6471 59.6699 68.6178 59.5918C68.5397 59.377 68.4225 59.1865 68.2662 59.0205C68.1132 58.8545 67.9228 58.7715 67.6949 58.7715C67.3955 58.7715 67.1936 58.9212 67.0895 59.2207C67.0569 59.3216 67.0406 59.4258 67.0406 59.5332C67.0406 59.6406 67.109 59.7611 67.2457 59.8945C67.3824 60.0247 67.6071 60.181 67.9196 60.3633C68.2321 60.5456 68.4599 60.7002 68.6031 60.8271C68.9287 61.1169 69.0914 61.4521 69.0914 61.833C69.0914 62.2139 68.9515 62.5166 68.6715 62.7412C68.3916 62.9626 68.066 63.0732 67.6949 63.0732C67.4964 63.0732 67.3157 63.0456 67.153 62.9902C66.9934 62.9382 66.9007 62.9121 66.8746 62.9121C66.8518 62.9121 66.8128 62.9382 66.7574 62.9902C66.7054 63.0456 66.663 63.0732 66.6305 63.0732H66.5475C66.528 63.0732 66.5035 62.8975 66.4742 62.5459C66.4449 62.1943 66.4303 61.986 66.4303 61.9209C66.4303 61.8558 66.4352 61.82 66.4449 61.8135C66.458 61.807 66.4775 61.8037 66.5035 61.8037C66.5296 61.8037 66.5507 61.8118 66.567 61.8281C66.5865 61.8444 66.6028 61.8656 66.6158 61.8916C66.6289 61.9144 66.6386 61.9388 66.6451 61.9648C66.6549 61.9909 66.6761 62.0397 66.7086 62.1113C66.93 62.5833 67.2718 62.8193 67.734 62.8193C67.9391 62.8193 68.1035 62.7445 68.2272 62.5947C68.3509 62.4417 68.4127 62.2725 68.4127 62.0869C68.4127 61.9014 68.3639 61.7451 68.2662 61.6182C68.1686 61.4912 68.0465 61.3757 67.9 61.2715C67.7568 61.1673 67.6005 61.0664 67.4313 60.9688C66.7737 60.5846 66.4449 60.1598 66.4449 59.6943C66.4449 59.346 66.5947 59.0465 66.8942 58.7959C67.1936 58.542 67.5013 58.415 67.817 58.415C68.1328 58.415 68.3655 58.4492 68.5153 58.5176C68.6683 58.5859 68.7578 58.6445 68.7838 58.6934C68.8099 58.7389 68.8229 58.8919 68.8229 59.1523V59.6016ZM76.3229 59.001C76.3229 59.2288 76.191 59.3428 75.9274 59.3428C75.7939 59.3428 75.68 59.3053 75.5856 59.2305C75.4944 59.1523 75.4228 59.0872 75.3707 59.0352C75.3219 58.9798 75.2698 58.9294 75.2145 58.8838C74.9801 58.6917 74.6936 58.6706 74.3551 58.8203C74.0198 58.9701 73.761 59.2891 73.5787 59.7773C73.4778 60.0475 73.4274 60.3161 73.4274 60.583C73.4274 61.1559 73.5576 61.6247 73.818 61.9893C74.0784 62.3506 74.4772 62.5312 75.0143 62.5312C75.4147 62.5312 75.7744 62.3522 76.0934 61.9941C76.191 61.8867 76.2496 61.833 76.2692 61.833C76.2887 61.833 76.3099 61.8428 76.3326 61.8623C76.3554 61.8818 76.3668 61.9111 76.3668 61.9502C76.3668 61.986 76.3571 62.0137 76.3375 62.0332C75.8395 62.7266 75.2128 63.0732 74.4576 63.0732C73.9108 63.0732 73.4615 62.8698 73.11 62.4629C72.7617 62.056 72.5875 61.5905 72.5875 61.0664C72.5908 60.0964 72.8252 59.3981 73.2906 58.9717C73.7008 58.5973 74.2851 58.4102 75.0436 58.4102C75.5123 58.4102 75.8232 58.4574 75.9762 58.5518C76.1292 58.6462 76.2366 58.765 76.2985 58.9082C76.3147 58.9408 76.3229 58.9717 76.3229 59.001ZM77.0748 60.749C77.0748 60.1077 77.3011 59.5576 77.7535 59.0986C78.2093 58.6364 78.7545 58.4053 79.3893 58.4053C80.024 58.4053 80.5758 58.6299 81.0446 59.0791C81.5133 59.5251 81.7477 60.0768 81.7477 60.7344C81.7477 61.3919 81.5247 61.9469 81.0787 62.3994C80.636 62.8486 80.0794 63.0732 79.4088 63.0732C78.7382 63.0732 78.1816 62.8454 77.7389 62.3896C77.2962 61.9339 77.0748 61.387 77.0748 60.749ZM78.2906 62.0039C78.6097 62.541 79.0442 62.8096 79.5944 62.8096C80.0208 62.8096 80.3463 62.6387 80.5709 62.2969C80.7988 61.9551 80.9127 61.5352 80.9127 61.0371C80.9127 60.5391 80.7532 60.028 80.4342 59.5039C80.1184 58.9798 79.692 58.7178 79.1549 58.7178C78.761 58.7178 78.4502 58.8887 78.2223 59.2305C77.9977 59.569 77.8854 60.0003 77.8854 60.5244C77.8854 61.0452 78.0205 61.5384 78.2906 62.0039ZM86.0446 61.4033L86.0348 60.373C86.0348 59.9531 85.999 59.6585 85.9274 59.4893C85.8558 59.32 85.7646 59.193 85.6539 59.1084C85.5433 59.0205 85.3935 58.9766 85.2047 58.9766C85.0192 58.9766 84.6237 59.123 84.0182 59.416C83.9368 59.4648 83.8945 59.5104 83.8912 59.5527V62.1797C83.8912 62.5085 84.067 62.6973 84.4186 62.7461C84.5716 62.7689 84.6481 62.8063 84.6481 62.8584C84.6481 62.9072 84.6318 62.9349 84.5992 62.9414H82.4215C82.389 62.9349 82.3727 62.9121 82.3727 62.873C82.3727 62.8112 82.4492 62.7689 82.6022 62.7461C82.9537 62.6973 83.1295 62.5085 83.1295 62.1797V59.377C83.1295 59.2402 83.0546 59.1458 82.9049 59.0938C82.8398 59.071 82.7698 59.0531 82.6949 59.04C82.6201 59.0238 82.5599 59.0091 82.5143 58.9961C82.472 58.9831 82.4443 58.9717 82.4313 58.9619C82.4215 58.9489 82.4166 58.9245 82.4166 58.8887C82.4166 58.8496 82.441 58.8171 82.4899 58.791L83.735 58.2051C83.774 58.1855 83.7985 58.1758 83.8082 58.1758C83.8636 58.1758 83.8912 58.2148 83.8912 58.293V59.0547C83.901 59.0872 83.914 59.1035 83.9303 59.1035C83.9498 59.1035 84.0198 59.0742 84.1403 59.0156C84.4202 58.8757 84.7018 58.7406 84.985 58.6104C85.2682 58.4801 85.5026 58.415 85.6881 58.415C86.4401 58.415 86.816 59.1003 86.816 60.4707L86.7721 61.8965V62.1797C86.7721 62.4336 86.899 62.5996 87.153 62.6777C87.2604 62.7135 87.3629 62.7396 87.4606 62.7559C87.5615 62.7689 87.6266 62.7819 87.6559 62.7949C87.6884 62.8079 87.7047 62.834 87.7047 62.873C87.7047 62.9121 87.6884 62.9349 87.6559 62.9414H85.3024C85.2698 62.9349 85.2535 62.9121 85.2535 62.873C85.2535 62.8112 85.33 62.7689 85.483 62.7461C85.8313 62.6973 86.0055 62.4954 86.0055 62.1406C86.0315 61.9779 86.0446 61.7321 86.0446 61.4033ZM90.5123 59.6016C90.5123 59.6732 90.4847 59.709 90.4293 59.709C90.3772 59.709 90.3365 59.6699 90.3073 59.5918C90.2291 59.377 90.1119 59.1865 89.9557 59.0205C89.8027 58.8545 89.6123 58.7715 89.3844 58.7715C89.0849 58.7715 88.8831 58.9212 88.7789 59.2207C88.7464 59.3216 88.7301 59.4258 88.7301 59.5332C88.7301 59.6406 88.7985 59.7611 88.9352 59.8945C89.0719 60.0247 89.2965 60.181 89.609 60.3633C89.9215 60.5456 90.1494 60.7002 90.2926 60.8271C90.6181 61.1169 90.7809 61.4521 90.7809 61.833C90.7809 62.2139 90.6409 62.5166 90.361 62.7412C90.081 62.9626 89.7555 63.0732 89.3844 63.0732C89.1858 63.0732 89.0052 63.0456 88.8424 62.9902C88.6829 62.9382 88.5901 62.9121 88.5641 62.9121C88.5413 62.9121 88.5022 62.9382 88.4469 62.9902C88.3948 63.0456 88.3525 63.0732 88.3199 63.0732H88.2369C88.2174 63.0732 88.193 62.8975 88.1637 62.5459C88.1344 62.1943 88.1198 61.986 88.1198 61.9209C88.1198 61.8558 88.1246 61.82 88.1344 61.8135C88.1474 61.807 88.167 61.8037 88.193 61.8037C88.219 61.8037 88.2402 61.8118 88.2565 61.8281C88.276 61.8444 88.2923 61.8656 88.3053 61.8916C88.3183 61.9144 88.3281 61.9388 88.3346 61.9648C88.3444 61.9909 88.3655 62.0397 88.3981 62.1113C88.6194 62.5833 88.9612 62.8193 89.4235 62.8193C89.6285 62.8193 89.7929 62.7445 89.9166 62.5947C90.0403 62.4417 90.1022 62.2725 90.1022 62.0869C90.1022 61.9014 90.0533 61.7451 89.9557 61.6182C89.858 61.4912 89.736 61.3757 89.5895 61.2715C89.4462 61.1673 89.29 61.0664 89.1207 60.9688C88.4632 60.5846 88.1344 60.1598 88.1344 59.6943C88.1344 59.346 88.2841 59.0465 88.5836 58.7959C88.8831 58.542 89.1907 58.415 89.5065 58.415C89.8222 58.415 90.055 58.4492 90.2047 58.5176C90.3577 58.5859 90.4472 58.6445 90.4733 58.6934C90.4993 58.7389 90.5123 58.8919 90.5123 59.1523V59.6016ZM92.6803 59.1865C92.6608 59.1865 92.651 59.2012 92.651 59.2305V61.9258C92.651 62.1211 92.6933 62.2741 92.778 62.3848C92.8658 62.4954 92.9765 62.5508 93.11 62.5508C93.2434 62.5508 93.359 62.5296 93.4567 62.4873C93.5576 62.4417 93.6438 62.3929 93.7155 62.3408C93.7903 62.2887 93.8571 62.2415 93.9156 62.1992C93.9742 62.1536 94.0263 62.1309 94.0719 62.1309C94.1175 62.1309 94.1403 62.1423 94.1403 62.165C94.1403 62.2432 94.1321 62.2936 94.1158 62.3164C93.7252 62.821 93.3476 63.0732 92.983 63.0732C92.6217 63.0732 92.3483 62.9593 92.1627 62.7314C91.9804 62.5003 91.8893 62.2253 91.8893 61.9062V59.1865H91.5231C91.4319 59.1865 91.3831 59.1572 91.3766 59.0986C91.3733 59.04 91.3831 59.0026 91.4059 58.9863C91.5784 58.8757 91.816 58.6771 92.1188 58.3906C92.1513 58.3548 92.1953 58.3011 92.2506 58.2295C92.3059 58.1579 92.3857 58.0602 92.4899 57.9365C92.5973 57.8128 92.6787 57.751 92.734 57.751C92.7893 57.751 92.817 57.7738 92.817 57.8193C92.817 57.8258 92.7617 58.0391 92.651 58.459C92.651 58.5176 92.677 58.5485 92.7291 58.5518H93.9742C94.1175 58.5518 94.1891 58.7536 94.1891 59.1572C94.1891 59.1768 94.1761 59.1865 94.15 59.1865H92.6803ZM95.444 60.3682C95.3886 60.3682 95.361 60.487 95.361 60.7246C95.361 61.2292 95.5107 61.6523 95.8102 61.9941C96.1097 62.3359 96.4808 62.5068 96.9235 62.5068C97.3694 62.5068 97.7975 62.3148 98.2076 61.9307C98.2142 61.9242 98.2223 61.9209 98.2321 61.9209H98.2565C98.276 61.9209 98.2939 61.9372 98.3102 61.9697C98.3297 61.999 98.3476 62.0186 98.3639 62.0283C97.9863 62.4873 97.542 62.8047 97.0309 62.9805C96.8551 63.0423 96.6565 63.0732 96.4352 63.0732C96.2138 63.0732 95.9892 63.013 95.7614 62.8926C95.5335 62.7689 95.3382 62.6077 95.1754 62.4092C94.8304 61.9958 94.6578 61.4814 94.6578 60.8662C94.6578 60.2477 94.845 59.6846 95.2194 59.1768C95.597 58.6689 96.1145 58.415 96.7721 58.415C97.2441 58.415 97.6298 58.6266 97.9293 59.0498C98.2288 59.4697 98.3785 59.8392 98.3785 60.1582C98.3785 60.2982 98.3444 60.3682 98.276 60.3682H95.444ZM95.4977 59.8994C95.4977 59.9613 95.527 59.9922 95.5856 59.9922H97.4264C97.511 59.9922 97.5533 59.9417 97.5533 59.8408C97.5533 59.6064 97.4476 59.3672 97.236 59.123C97.0276 58.8757 96.7981 58.752 96.5475 58.752C96.3033 58.752 96.0804 58.8626 95.8785 59.084C95.68 59.3053 95.553 59.5576 95.4977 59.8408V59.8994ZM101.001 62.7559C101.154 62.7754 101.23 62.8145 101.23 62.873C101.23 62.9121 101.214 62.9349 101.181 62.9414H99.0035C98.971 62.9349 98.9547 62.9121 98.9547 62.873C98.9547 62.8145 99.0312 62.7754 99.1842 62.7559C99.5358 62.7038 99.7115 62.5182 99.7115 62.1992V56.1104C99.7115 55.9736 99.6367 55.8792 99.4869 55.8271C99.4218 55.8044 99.3518 55.7865 99.277 55.7734C99.2021 55.7572 99.1419 55.7425 99.0963 55.7295C99.054 55.7165 99.0263 55.7051 99.0133 55.6953C99.0035 55.6823 98.9987 55.6579 98.9987 55.6221C98.9987 55.583 99.0231 55.5505 99.0719 55.5244L100.317 54.9385C100.356 54.9189 100.38 54.9092 100.39 54.9092C100.446 54.9092 100.473 54.9482 100.473 55.0264V62.1992C100.473 62.5182 100.649 62.7038 101.001 62.7559ZM103.549 62.7559C103.702 62.7754 103.779 62.8145 103.779 62.873C103.779 62.9121 103.763 62.9349 103.73 62.9414H101.552C101.52 62.9349 101.504 62.9121 101.504 62.873C101.504 62.8145 101.58 62.7754 101.733 62.7559C102.085 62.7038 102.26 62.5182 102.26 62.1992V56.1104C102.26 55.9736 102.186 55.8792 102.036 55.8271C101.971 55.8044 101.901 55.7865 101.826 55.7734C101.751 55.7572 101.691 55.7425 101.645 55.7295C101.603 55.7165 101.575 55.7051 101.562 55.6953C101.552 55.6823 101.547 55.6579 101.547 55.6221C101.547 55.583 101.572 55.5505 101.621 55.5244L102.866 54.9385C102.905 54.9189 102.929 54.9092 102.939 54.9092C102.994 54.9092 103.022 54.9482 103.022 55.0264V62.1992C103.022 62.5182 103.198 62.7038 103.549 62.7559ZM107.314 62.1357C107.314 62.2204 107.353 62.2887 107.431 62.3408C107.513 62.3896 107.605 62.4141 107.71 62.4141C107.814 62.4141 107.9 62.388 107.968 62.3359C108.04 62.2806 108.089 62.2529 108.115 62.2529C108.141 62.2529 108.154 62.2887 108.154 62.3604C108.154 62.4287 108.121 62.4873 108.056 62.5361C107.568 62.8942 107.238 63.0732 107.065 63.0732C106.857 63.0732 106.687 62.8568 106.557 62.4238C106.547 62.3913 106.539 62.3766 106.533 62.3799C106.129 62.6826 105.875 62.8649 105.771 62.9268C105.504 63.0798 105.236 63.1042 104.965 63C104.699 62.8958 104.505 62.7233 104.384 62.4824C104.326 62.3587 104.297 62.2269 104.297 62.0869C104.297 61.8102 104.399 61.5905 104.604 61.4277C104.809 61.265 105.2 61.1087 105.776 60.959C105.971 60.9069 106.145 60.8402 106.298 60.7588C106.451 60.6774 106.531 60.6253 106.538 60.6025C106.547 60.5798 106.552 60.5586 106.552 60.5391V59.6016C106.552 59.2337 106.409 58.9749 106.123 58.8252C106.028 58.7764 105.914 58.752 105.781 58.752C105.651 58.752 105.517 58.804 105.38 58.9082C105.247 59.0124 105.18 59.1605 105.18 59.3525L105.205 59.543C105.185 59.582 105.068 59.6471 104.853 59.7383C104.638 59.8294 104.515 59.8783 104.482 59.8848C104.43 59.8848 104.404 59.8229 104.404 59.6992C104.404 59.5723 104.441 59.4323 104.516 59.2793C104.591 59.1263 104.697 58.9863 104.834 58.8594C105.153 58.5632 105.517 58.415 105.927 58.415C106.338 58.415 106.671 58.529 106.928 58.7568C107.186 58.9814 107.314 59.25 107.314 59.5625V62.1357ZM105.063 61.9941C105.063 62.1504 105.123 62.2871 105.244 62.4043C105.364 62.5182 105.501 62.5752 105.654 62.5752C105.81 62.5752 105.999 62.5101 106.22 62.3799C106.442 62.2464 106.552 62.1097 106.552 61.9697V60.9785C106.552 60.9427 106.544 60.9248 106.528 60.9248C106.512 60.9248 106.5 60.9264 106.494 60.9297L105.361 61.457C105.244 61.5417 105.164 61.6133 105.122 61.6719C105.083 61.7305 105.063 61.8379 105.063 61.9941ZM109.809 59.1865C109.79 59.1865 109.78 59.2012 109.78 59.2305V61.9258C109.78 62.1211 109.822 62.2741 109.907 62.3848C109.995 62.4954 110.105 62.5508 110.239 62.5508C110.372 62.5508 110.488 62.5296 110.586 62.4873C110.686 62.4417 110.773 62.3929 110.844 62.3408C110.919 62.2887 110.986 62.2415 111.045 62.1992C111.103 62.1536 111.155 62.1309 111.201 62.1309C111.246 62.1309 111.269 62.1423 111.269 62.165C111.269 62.2432 111.261 62.2936 111.245 62.3164C110.854 62.821 110.477 63.0732 110.112 63.0732C109.751 63.0732 109.477 62.9593 109.292 62.7314C109.109 62.5003 109.018 62.2253 109.018 61.9062V59.1865H108.652C108.561 59.1865 108.512 59.1572 108.505 59.0986C108.502 59.04 108.512 59.0026 108.535 58.9863C108.707 58.8757 108.945 58.6771 109.248 58.3906C109.28 58.3548 109.324 58.3011 109.38 58.2295C109.435 58.1579 109.515 58.0602 109.619 57.9365C109.726 57.8128 109.808 57.751 109.863 57.751C109.918 57.751 109.946 57.7738 109.946 57.8193C109.946 57.8258 109.891 58.0391 109.78 58.459C109.78 58.5176 109.806 58.5485 109.858 58.5518H111.103C111.246 58.5518 111.318 58.7536 111.318 59.1572C111.318 59.1768 111.305 59.1865 111.279 59.1865H109.809ZM111.787 62.9414C111.754 62.9349 111.738 62.9121 111.738 62.873C111.738 62.8145 111.814 62.7754 111.967 62.7559C112.319 62.7038 112.495 62.5182 112.495 62.1992V59.6162C112.495 59.4795 112.42 59.3851 112.27 59.333C112.205 59.3102 112.135 59.2923 112.06 59.2793C111.985 59.263 111.925 59.2484 111.88 59.2354C111.837 59.2223 111.81 59.2109 111.797 59.2012C111.787 59.1882 111.782 59.1637 111.782 59.1279C111.782 59.0889 111.806 59.0563 111.855 59.0303L113.1 58.4443C113.139 58.4248 113.164 58.415 113.173 58.415C113.229 58.415 113.256 58.4541 113.256 58.5322V62.1992C113.256 62.5182 113.432 62.7038 113.784 62.7559C113.937 62.7754 114.013 62.8096 114.013 62.8584C114.013 62.9072 113.997 62.9349 113.964 62.9414H111.787ZM112.802 57.043C112.669 57.043 112.55 57.0007 112.446 56.916C112.345 56.8314 112.295 56.7142 112.295 56.5645C112.295 56.4115 112.343 56.291 112.441 56.2031C112.539 56.1152 112.654 56.0713 112.788 56.0713C112.924 56.0713 113.038 56.1234 113.13 56.2275C113.224 56.3317 113.271 56.444 113.271 56.5645C113.271 56.6849 113.227 56.7956 113.139 56.8965C113.051 56.9941 112.939 57.043 112.802 57.043ZM114.624 60.749C114.624 60.1077 114.85 59.5576 115.302 59.0986C115.758 58.6364 116.303 58.4053 116.938 58.4053C117.573 58.4053 118.125 58.6299 118.593 59.0791C119.062 59.5251 119.297 60.0768 119.297 60.7344C119.297 61.3919 119.074 61.9469 118.628 62.3994C118.185 62.8486 117.628 63.0732 116.958 63.0732C116.287 63.0732 115.73 62.8454 115.288 62.3896C114.845 61.9339 114.624 61.387 114.624 60.749ZM115.839 62.0039C116.158 62.541 116.593 62.8096 117.143 62.8096C117.57 62.8096 117.895 62.6387 118.12 62.2969C118.348 61.9551 118.462 61.5352 118.462 61.0371C118.462 60.5391 118.302 60.028 117.983 59.5039C117.667 58.9798 117.241 58.7178 116.704 58.7178C116.31 58.7178 115.999 58.8887 115.771 59.2305C115.547 59.569 115.434 60.0003 115.434 60.5244C115.434 61.0452 115.569 61.5384 115.839 62.0039ZM123.593 61.4033L123.584 60.373C123.584 59.9531 123.548 59.6585 123.476 59.4893C123.405 59.32 123.313 59.193 123.203 59.1084C123.092 59.0205 122.942 58.9766 122.754 58.9766C122.568 58.9766 122.172 59.123 121.567 59.416C121.486 59.4648 121.443 59.5104 121.44 59.5527V62.1797C121.44 62.5085 121.616 62.6973 121.967 62.7461C122.12 62.7689 122.197 62.8063 122.197 62.8584C122.197 62.9072 122.181 62.9349 122.148 62.9414H119.97C119.938 62.9349 119.922 62.9121 119.922 62.873C119.922 62.8112 119.998 62.7689 120.151 62.7461C120.503 62.6973 120.678 62.5085 120.678 62.1797V59.377C120.678 59.2402 120.603 59.1458 120.454 59.0938C120.389 59.071 120.319 59.0531 120.244 59.04C120.169 59.0238 120.109 59.0091 120.063 58.9961C120.021 58.9831 119.993 58.9717 119.98 58.9619C119.97 58.9489 119.965 58.9245 119.965 58.8887C119.965 58.8496 119.99 58.8171 120.039 58.791L121.284 58.2051C121.323 58.1855 121.347 58.1758 121.357 58.1758C121.412 58.1758 121.44 58.2148 121.44 58.293V59.0547C121.45 59.0872 121.463 59.1035 121.479 59.1035C121.499 59.1035 121.569 59.0742 121.689 59.0156C121.969 58.8757 122.251 58.7406 122.534 58.6104C122.817 58.4801 123.051 58.415 123.237 58.415C123.989 58.415 124.365 59.1003 124.365 60.4707L124.321 61.8965V62.1797C124.321 62.4336 124.448 62.5996 124.702 62.6777C124.809 62.7135 124.912 62.7396 125.009 62.7559C125.11 62.7689 125.175 62.7819 125.205 62.7949C125.237 62.8079 125.254 62.834 125.254 62.873C125.254 62.9121 125.237 62.9349 125.205 62.9414H122.851C122.819 62.9349 122.802 62.9121 122.802 62.873C122.802 62.8112 122.879 62.7689 123.032 62.7461C123.38 62.6973 123.554 62.4954 123.554 62.1406C123.58 61.9779 123.593 61.7321 123.593 61.4033ZM125.986 62.4531C125.986 62.2773 126.048 62.126 126.172 61.999C126.295 61.8688 126.445 61.8037 126.621 61.8037C126.793 61.8037 126.941 61.8672 127.065 61.9941C127.192 62.1178 127.255 62.2692 127.255 62.4482C127.255 62.6273 127.194 62.777 127.07 62.8975C126.946 63.0146 126.797 63.0732 126.621 63.0732C126.448 63.0732 126.298 63.013 126.172 62.8926C126.048 62.7721 125.986 62.6257 125.986 62.4531Z" fill="#EFB85F"/>
<path d="M17.5002 10L18.696 11.9748L21 13L18.696 14.0249L17.5002 16L16.304 14.0249L14 13L16.304 11.9748L17.5002 10Z" fill="#EFB85F"/>
<path d="M17.5002 86L18.696 87.9748L21 89L18.696 90.0249L17.5002 92L16.304 90.0249L14 89L16.304 87.9748L17.5002 86Z" fill="#EFB85F"/>
<path d="M124.5 84L125.696 85.9748L128 87L125.696 88.0249L124.5 90L123.304 88.0249L121 87L123.304 85.9748L124.5 84Z" fill="#EFB85F"/>
<path d="M80.5002 90L81.696 91.9748L84 93L81.696 94.0249L80.5002 96L79.304 94.0249L77 93L79.304 91.9748L80.5002 90Z" fill="#EFB85F"/>
<path d="M120.5 7L121.696 8.97475L124 10L121.696 11.0249L120.5 13L119.304 11.0249L117 10L119.304 8.97475L120.5 7Z" fill="#EFB85F"/>
<path d="M95.125 16.6259C95.1509 16.3615 95.1942 15.7335 95.2288 15.2377C95.2634 14.6647 95.324 14.3011 95.3932 14.2681C95.4538 14.235 95.7307 14.4113 95.999 14.6537C96.2759 14.9071 96.5182 15.0834 96.5441 15.0504C96.5615 15.0283 96.397 14.6757 96.1807 14.2791C95.9038 13.7943 95.8086 13.5519 95.8865 13.5189C95.9471 13.4968 96.3884 13.4197 96.8643 13.3426C98.3873 13.1222 98.3787 13.001 96.8384 12.7917C96.3019 12.7145 95.8519 12.6154 95.8346 12.5823C95.8086 12.5382 95.973 12.2187 96.1807 11.8661C96.3884 11.5025 96.5441 11.183 96.5182 11.15C96.4922 11.1279 96.2326 11.3152 95.9471 11.5687C95.6528 11.8331 95.3932 11.9984 95.3586 11.9543C95.3154 11.8992 95.2461 11.2381 95.1856 10.4779C95.0298 8.49462 94.9606 8.50564 94.7962 10.5219C94.7356 11.2822 94.6664 11.9433 94.6317 11.9763C94.6058 12.0094 94.3462 11.8331 94.052 11.5797C93.7664 11.3152 93.5155 11.1279 93.4895 11.161C93.4722 11.183 93.602 11.4805 93.7924 11.8111C93.9827 12.1306 94.1385 12.4611 94.1385 12.5272C94.1385 12.6044 93.7664 12.7035 93.1607 12.7917C91.6117 13.001 91.6117 13.1222 93.1693 13.3536C93.7577 13.4417 94.1385 13.5519 94.1385 13.618C94.1385 13.6841 93.9827 14.0147 93.7924 14.3342C93.3857 15.0283 93.351 15.2046 93.6799 14.9292C93.8183 14.83 94.0693 14.6096 94.251 14.4554C94.6664 14.1138 94.701 14.1689 94.7789 15.3589C94.8913 17.1107 95.0211 17.5735 95.125 16.6259Z" fill="#EFB85F"/>
<path d="M39.125 89.6259C39.1509 89.3615 39.1942 88.7335 39.2288 88.2377C39.2634 87.6647 39.324 87.3011 39.3932 87.2681C39.4538 87.235 39.7307 87.4113 39.999 87.6537C40.2759 87.9071 40.5182 88.0834 40.5441 88.0504C40.5615 88.0283 40.397 87.6757 40.1807 87.2791C39.9038 86.7943 39.8086 86.5519 39.8865 86.5189C39.9471 86.4968 40.3884 86.4197 40.8643 86.3426C42.3873 86.1222 42.3787 86.001 40.8384 85.7917C40.3019 85.7145 39.8519 85.6154 39.8346 85.5823C39.8086 85.5382 39.973 85.2187 40.1807 84.8661C40.3884 84.5025 40.5441 84.183 40.5182 84.15C40.4922 84.1279 40.2326 84.3152 39.9471 84.5687C39.6528 84.8331 39.3932 84.9984 39.3586 84.9543C39.3154 84.8992 39.2461 84.2381 39.1856 83.4779C39.0298 81.4946 38.9606 81.5056 38.7962 83.5219C38.7356 84.2822 38.6664 84.9433 38.6317 84.9763C38.6058 85.0094 38.3462 84.8331 38.052 84.5797C37.7664 84.3152 37.5155 84.1279 37.4895 84.161C37.4722 84.183 37.602 84.4805 37.7924 84.8111C37.9827 85.1306 38.1385 85.4611 38.1385 85.5272C38.1385 85.6044 37.7664 85.7035 37.1607 85.7917C35.6117 86.001 35.6117 86.1222 37.1693 86.3536C37.7577 86.4417 38.1385 86.5519 38.1385 86.618C38.1385 86.6841 37.9827 87.0147 37.7924 87.3342C37.3857 88.0283 37.351 88.2046 37.6799 87.9292C37.8183 87.83 38.0693 87.6096 38.251 87.4554C38.6664 87.1138 38.701 87.1689 38.7789 88.3589C38.8913 90.1107 39.0211 90.5735 39.125 89.6259Z" fill="#EFB85F"/>
<path d="M110.125 99.6259C110.151 99.3615 110.194 98.7335 110.229 98.2377C110.263 97.6647 110.324 97.3011 110.393 97.2681C110.454 97.235 110.731 97.4113 110.999 97.6537C111.276 97.9071 111.518 98.0834 111.544 98.0504C111.561 98.0283 111.397 97.6757 111.181 97.2791C110.904 96.7943 110.809 96.5519 110.886 96.5189C110.947 96.4968 111.388 96.4197 111.864 96.3426C113.387 96.1222 113.379 96.001 111.838 95.7917C111.302 95.7145 110.852 95.6154 110.835 95.5823C110.809 95.5382 110.973 95.2187 111.181 94.8661C111.388 94.5025 111.544 94.183 111.518 94.15C111.492 94.1279 111.233 94.3152 110.947 94.5687C110.653 94.8331 110.393 94.9984 110.359 94.9543C110.315 94.8992 110.246 94.2381 110.186 93.4779C110.03 91.4946 109.961 91.5056 109.796 93.5219C109.736 94.2822 109.666 94.9433 109.632 94.9763C109.606 95.0094 109.346 94.8331 109.052 94.5797C108.766 94.3152 108.515 94.1279 108.489 94.161C108.472 94.183 108.602 94.4805 108.792 94.8111C108.983 95.1306 109.138 95.4611 109.138 95.5272C109.138 95.6044 108.766 95.7035 108.161 95.7917C106.612 96.001 106.612 96.1222 108.169 96.3536C108.758 96.4417 109.138 96.5519 109.138 96.618C109.138 96.6841 108.983 97.0147 108.792 97.3342C108.386 98.0283 108.351 98.2046 108.68 97.9292C108.818 97.83 109.069 97.6096 109.251 97.4554C109.666 97.1138 109.701 97.1689 109.779 98.3589C109.891 100.111 110.021 100.573 110.125 99.6259Z" fill="#EFB85F"/>
<path d="M53.125 12.6259C53.1509 12.3615 53.1942 11.7335 53.2288 11.2377C53.2634 10.6647 53.324 10.3011 53.3932 10.2681C53.4538 10.235 53.7307 10.4113 53.999 10.6537C54.2759 10.9071 54.5182 11.0834 54.5441 11.0504C54.5615 11.0283 54.397 10.6757 54.1807 10.2791C53.9038 9.7943 53.8086 9.55191 53.8865 9.51885C53.9471 9.49682 54.3884 9.41969 54.8643 9.34256C56.3873 9.1222 56.3787 9.001 54.8384 8.79166C54.3019 8.71453 53.8519 8.61537 53.8346 8.58232C53.8086 8.53825 53.973 8.21872 54.1807 7.86614C54.3884 7.50255 54.5441 7.18302 54.5182 7.14997C54.4922 7.12793 54.2326 7.31524 53.9471 7.56866C53.6528 7.83309 53.3932 7.99836 53.3586 7.95429C53.3154 7.8992 53.2461 7.23811 53.1856 6.47787C53.0298 4.49462 52.9606 4.50564 52.7962 6.52194C52.7356 7.28219 52.6664 7.94327 52.6317 7.97632C52.6058 8.00938 52.3462 7.83309 52.052 7.57967C51.7664 7.31524 51.5155 7.12793 51.4895 7.16099C51.4722 7.18302 51.602 7.48051 51.7924 7.81105C51.9827 8.13058 52.1385 8.46112 52.1385 8.52723C52.1385 8.60435 51.7664 8.70352 51.1607 8.79166C49.6117 9.001 49.6117 9.1222 51.1693 9.35358C51.7577 9.44173 52.1385 9.55191 52.1385 9.61802C52.1385 9.68412 51.9827 10.0147 51.7924 10.3342C51.3857 11.0283 51.351 11.2046 51.6799 10.9292C51.8183 10.83 52.0693 10.6096 52.251 10.4554C52.6664 10.1138 52.701 10.1689 52.7789 11.3589C52.8913 13.1107 53.0211 13.5735 53.125 12.6259Z" fill="#EFB85F"/>
<circle cx="26" cy="81" r="1" fill="#EFB85F"/>
<circle cx="57" cy="96" r="1" fill="#EFB85F"/>
<circle cx="111" cy="84" r="1" fill="#EFB85F"/>
<circle cx="139" cy="16" r="1" fill="#EFB85F"/>
<circle cx="143" cy="55" r="1" fill="#EFB85F"/>
<circle cx="139" cy="93" r="1" fill="#EFB85F"/>
<circle cx="36" cy="10" r="1" fill="#EFB85F"/>
<circle cx="75" cy="6" r="1" fill="#EFB85F"/>
<path d="M30.1536 96.762L33.0001 96.6487L30.1536 96.5354L31.0464 95.3761L30.0932 96.4619L30 93L29.9069 96.4619L28.9537 95.3761L29.8465 96.5354L27 96.6487L29.8465 96.762L28.9537 97.9212L29.9069 96.8354L30 100.297L30.0932 96.8354L31.0464 97.9212L30.1536 96.762Z" fill="#EFB85F"/>
<path d="M11.1536 76.762L14.0001 76.6487L11.1536 76.5354L12.0464 75.3761L11.0932 76.4619L11 73L10.9069 76.4619L9.95375 75.3761L10.8465 76.5354L8 76.6487L10.8465 76.762L9.95375 77.9212L10.9069 76.8354L11 80.2973L11.0932 76.8354L12.0464 77.9212L11.1536 76.762Z" fill="#EFB85F"/>
<path d="M68.1536 11.762L71.0001 11.6487L68.1536 11.5354L69.0464 10.3761L68.0932 11.4619L68 8L67.9069 11.4619L66.9537 10.3761L67.8465 11.5354L65 11.6487L67.8465 11.762L66.9537 12.9212L67.9069 11.8354L68 15.2973L68.0932 11.8354L69.0464 12.9212L68.1536 11.762Z" fill="#EFB85F"/>
<path d="M137.154 76.762L140 76.6487L137.154 76.5354L138.046 75.3761L137.093 76.4619L137 73L136.907 76.4619L135.954 75.3761L136.847 76.5354L134 76.6487L136.847 76.762L135.954 77.9212L136.907 76.8354L137 80.2973L137.093 76.8354L138.046 77.9212L137.154 76.762Z" fill="#EFB85F"/>
<path d="M129.154 95.762L132 95.6487L129.154 95.5354L130.046 94.3761L129.093 95.4619L129 92L128.907 95.4619L127.954 94.3761L128.847 95.5354L126 95.6487L128.847 95.762L127.954 96.9212L128.907 95.8354L129 99.2973L129.093 95.8354L130.046 96.9212L129.154 95.762Z" fill="#EFB85F"/>
<path d="M8.15357 18.762L11.0001 18.6487L8.15357 18.5354L9.04635 17.3761L8.09316 18.4619L8.00005 15L7.90694 18.4619L6.95375 17.3761L7.84653 18.5354L5 18.6487L7.84653 18.762L6.95375 19.9212L7.90694 18.8354L8.00005 22.2973L8.09316 18.8354L9.04635 19.9212L8.15357 18.762Z" fill="#EFB85F"/>
</svg>
