<svg width="148" height="105" viewBox="0 0 148 105" fill="none" xmlns="http://www.w3.org/2000/svg">
<rect width="147.402" height="104.882" rx="10" fill="black"/>
<path d="M13.8824 48.9414C13.859 48.9414 13.8473 48.9121 13.8473 48.8535V48.8008C13.8473 48.7773 13.859 48.7656 13.8824 48.7656C13.9 48.7656 13.9279 48.7627 13.9659 48.7568C14.004 48.751 14.0436 48.7451 14.0846 48.7393C14.1256 48.7334 14.1637 48.7275 14.1989 48.7217C14.234 48.7129 14.2589 48.707 14.2736 48.7041C14.5724 48.6367 14.7218 48.4668 14.7218 48.1943V43.5537C14.7218 43.3018 14.6207 43.123 14.4186 43.0176C14.2985 42.9531 14.1696 42.9209 14.0319 42.9209H13.8649C13.8414 42.9209 13.8297 42.9092 13.8297 42.8857V42.7803C13.8297 42.7568 13.8473 42.7451 13.8824 42.7451L16.295 42.6792H16.7389C17.2574 42.7144 17.691 42.9033 18.0397 43.2461C18.3912 43.5859 18.567 44.0063 18.567 44.5073C18.567 45.0054 18.359 45.3936 17.943 45.6719C17.8141 45.7568 17.6749 45.833 17.5255 45.9004L18.8571 48.0757C19.0885 48.4565 19.399 48.7246 19.7887 48.8799C19.8209 48.8887 19.837 48.9092 19.837 48.9414C19.837 49.0146 19.7887 49.0513 19.692 49.0513C19.0328 49.0513 18.5084 48.8008 18.1188 48.2998C18.0338 48.1885 17.9489 48.064 17.8639 47.9263L16.7257 46.1421L15.6798 46.0938H15.6447C15.6007 46.0938 15.5787 46.1143 15.5787 46.1553V48.1812C15.5787 48.3423 15.6241 48.4624 15.715 48.5415C15.8058 48.6206 15.9625 48.6748 16.1852 48.7041C16.2438 48.7129 16.3156 48.7261 16.4005 48.7437C16.4855 48.7583 16.5426 48.7656 16.5719 48.7656C16.6041 48.7656 16.6202 48.7773 16.6202 48.8008V48.9062C16.6202 48.9297 16.6085 48.9414 16.5851 48.9414H13.8824ZM15.9347 42.9121C15.8995 42.9121 15.8615 42.9136 15.8204 42.9165C15.7823 42.9165 15.7325 42.918 15.671 42.9209C15.6095 42.9209 15.5787 42.9443 15.5787 42.9912V45.6543L15.5875 45.7861C15.5963 45.8477 15.6241 45.8799 15.671 45.8828L16.1193 45.9092C16.9425 45.9092 17.4391 45.6162 17.609 45.0303C17.6647 44.8457 17.6925 44.6348 17.6925 44.3975C17.6925 43.9346 17.5475 43.5698 17.2574 43.3032C16.9703 43.0366 16.6027 42.9033 16.1544 42.9033C16.1134 42.9033 16.0753 42.9048 16.0402 42.9077C16.005 42.9077 15.9698 42.9092 15.9347 42.9121ZM20.9093 46.6255C20.8595 46.6255 20.8346 46.7324 20.8346 46.9463C20.8346 47.4004 20.9694 47.7812 21.2389 48.0889C21.5084 48.3965 21.8424 48.5503 22.2408 48.5503C22.6422 48.5503 23.0275 48.3774 23.3966 48.0317C23.4025 48.0259 23.4098 48.0229 23.4186 48.0229H23.4406C23.4581 48.0229 23.4742 48.0376 23.4889 48.0669C23.5065 48.0933 23.5226 48.1108 23.5372 48.1196C23.1974 48.5327 22.7975 48.8184 22.3375 48.9766C22.1793 49.0322 22.0006 49.0601 21.8014 49.0601C21.6022 49.0601 21.4 49.0059 21.1949 48.8975C20.9899 48.7861 20.8141 48.6411 20.6676 48.4624C20.3571 48.0903 20.2018 47.6274 20.2018 47.0737C20.2018 46.5171 20.3702 46.0103 20.7072 45.5532C21.047 45.0962 21.5128 44.8677 22.1046 44.8677C22.5294 44.8677 22.8766 45.0581 23.1461 45.439C23.4156 45.8169 23.5504 46.1494 23.5504 46.4365C23.5504 46.5625 23.5197 46.6255 23.4581 46.6255H20.9093ZM20.9576 46.2036C20.9576 46.2593 20.984 46.2871 21.0367 46.2871H22.6935C22.7697 46.2871 22.8077 46.2417 22.8077 46.1509C22.8077 45.9399 22.7125 45.7246 22.5221 45.5049C22.3346 45.2822 22.1281 45.1709 21.9025 45.1709C21.6827 45.1709 21.4821 45.2705 21.3004 45.4697C21.1217 45.6689 21.0074 45.896 20.9576 46.1509V46.2036ZM30.0807 47.5571L30.0719 46.6299C30.0719 46.252 30.0397 45.9868 29.9752 45.8345C29.9108 45.6821 29.8287 45.5679 29.7291 45.4917C29.6295 45.4126 29.4948 45.373 29.3248 45.373C29.1578 45.373 28.8019 45.5049 28.257 45.7686C28.1837 45.8125 28.1456 45.8535 28.1427 45.8916V48.2559C28.1427 48.5518 28.3009 48.7217 28.6173 48.7656C28.755 48.7861 28.8239 48.8198 28.8239 48.8667C28.8239 48.9106 28.8092 48.9355 28.7799 48.9414H26.8199C26.7906 48.9355 26.776 48.915 26.776 48.8799C26.776 48.8242 26.8448 48.7861 26.9825 48.7656C27.299 48.7217 27.4572 48.5518 27.4572 48.2559V46.0674C27.4572 45.6074 27.173 45.3774 26.6046 45.3774C26.3966 45.3774 26.108 45.5005 25.7389 45.7466C25.6451 45.8081 25.5763 45.8652 25.5323 45.918V48.2559C25.5323 48.5518 25.6906 48.7217 26.007 48.7656C26.1447 48.7861 26.2135 48.8198 26.2135 48.8667C26.2135 48.9106 26.1989 48.9355 26.1696 48.9414H24.2096C24.1803 48.9355 24.1656 48.915 24.1656 48.8799C24.1656 48.8242 24.2345 48.7861 24.3722 48.7656C24.6886 48.7217 24.8468 48.5547 24.8468 48.2646V45.7334C24.8468 45.6104 24.7794 45.5254 24.6447 45.4785C24.5861 45.458 24.5231 45.4419 24.4557 45.4302C24.3883 45.4155 24.3341 45.4023 24.2931 45.3906C24.255 45.3789 24.2301 45.3687 24.2184 45.3599C24.2096 45.3481 24.2052 45.3262 24.2052 45.2939C24.2052 45.2588 24.2272 45.2295 24.2711 45.2061L25.3917 44.6787C25.4269 44.6611 25.4489 44.6523 25.4576 44.6523C25.5074 44.6523 25.5323 44.6875 25.5323 44.7578V45.4873C25.5353 45.5049 25.5455 45.5137 25.5631 45.5137C25.5836 45.5137 25.632 45.4932 25.7081 45.4521C25.7872 45.4111 25.8898 45.354 26.0157 45.2808C26.1417 45.2046 26.3073 45.1167 26.5123 45.0171C26.7203 44.9175 26.9401 44.8677 27.1715 44.8677C27.5436 44.8677 27.8102 45.0273 27.9713 45.3467C28.0328 45.4756 28.0885 45.5312 28.1383 45.5137C28.1881 45.4932 28.2657 45.4565 28.3712 45.4038C28.6202 45.2808 28.8722 45.1606 29.1271 45.0435C29.382 44.9263 29.5929 44.8677 29.7599 44.8677C30.4366 44.8677 30.775 45.4844 30.775 46.7178L30.7355 48.001V48.2559C30.7355 48.4844 30.8497 48.6338 31.0782 48.7041C31.1749 48.7363 31.2672 48.7598 31.3551 48.7744C31.4459 48.7861 31.5045 48.7979 31.5309 48.8096C31.5602 48.8213 31.5748 48.8447 31.5748 48.8799C31.5748 48.915 31.5602 48.9355 31.5309 48.9414H29.4127C29.3834 48.9355 29.3688 48.915 29.3688 48.8799C29.3688 48.8242 29.4376 48.7861 29.5753 48.7656C29.8888 48.7217 30.0455 48.54 30.0455 48.2207C30.069 48.0742 30.0807 47.853 30.0807 47.5571ZM35.2091 48.48C34.8048 48.8667 34.3507 49.0601 33.8468 49.0601C33.6652 49.0601 33.4176 49.0264 33.1041 48.959C33.0543 48.959 33.0265 48.9766 33.0206 49.0117C33.0177 49.0469 33.0148 49.0835 33.0118 49.1216V50.998C33.0118 51.2178 33.1393 51.3643 33.3942 51.4375C33.5055 51.4668 33.6095 51.4873 33.7062 51.499C33.8029 51.5137 33.8644 51.5269 33.8907 51.5386C33.92 51.5503 33.9347 51.5723 33.9347 51.6045C33.9347 51.6396 33.92 51.6602 33.8907 51.666H31.6891C31.6598 51.6602 31.6451 51.6396 31.6451 51.6045C31.6451 51.5518 31.714 51.5166 31.8517 51.499C32.1681 51.4521 32.3263 51.2852 32.3263 50.998V45.729C32.3263 45.606 32.2589 45.521 32.1241 45.4741C32.0656 45.4536 32.0026 45.4375 31.9352 45.4258C31.8678 45.4111 31.8136 45.3979 31.7726 45.3862C31.7345 45.3745 31.7096 45.3643 31.6979 45.3555C31.6891 45.3438 31.6847 45.3218 31.6847 45.2896C31.6847 45.2544 31.7067 45.2251 31.7506 45.2017L32.8712 44.6655C32.8947 44.6538 32.9181 44.6479 32.9415 44.6479C32.9884 44.6479 33.0118 44.6831 33.0118 44.7534V45.3115C33.0118 45.3438 33.028 45.3599 33.0602 45.3599C33.0953 45.3599 33.1774 45.3174 33.3063 45.2324C33.6783 44.9922 34.0651 44.8721 34.4664 44.8721C34.7477 44.8721 35.0055 44.9863 35.2399 45.2148C35.5475 45.5137 35.7526 45.9297 35.8551 46.4629C35.8844 46.6152 35.899 46.7778 35.899 46.9507C35.899 47.1206 35.8712 47.3008 35.8156 47.4912C35.7042 47.8691 35.5021 48.1987 35.2091 48.48ZM33.9523 45.3291C33.5538 45.3291 33.2404 45.4434 33.0118 45.6719V48.1416C33.0118 48.2881 33.0367 48.3833 33.0865 48.4272C33.2155 48.5386 33.4132 48.625 33.6798 48.6865C34.2072 48.8066 34.6173 48.6807 34.9103 48.3086C35.1183 48.042 35.2223 47.7197 35.2223 47.3418C35.2223 46.6064 35.0568 46.0557 34.7257 45.6895C34.5265 45.4668 34.2687 45.3467 33.9523 45.3291ZM38.3116 48.7744C38.4493 48.792 38.5182 48.8271 38.5182 48.8799C38.5182 48.915 38.5035 48.9355 38.4742 48.9414H36.5143C36.485 48.9355 36.4703 48.915 36.4703 48.8799C36.4703 48.8271 36.5392 48.792 36.6769 48.7744C36.9933 48.7275 37.1515 48.5605 37.1515 48.2734V42.7935C37.1515 42.6704 37.0841 42.5854 36.9493 42.5386C36.8907 42.5181 36.8278 42.502 36.7604 42.4902C36.693 42.4756 36.6388 42.4624 36.5978 42.4507C36.5597 42.439 36.5348 42.4287 36.5231 42.4199C36.5143 42.4082 36.5099 42.3862 36.5099 42.354C36.5099 42.3188 36.5319 42.2896 36.5758 42.2661L37.6964 41.7388C37.7316 41.7212 37.7535 41.7124 37.7623 41.7124C37.8121 41.7124 37.837 41.7476 37.837 41.8179V48.2734C37.837 48.5605 37.9952 48.7275 38.3116 48.7744ZM38.984 48.9414C38.9547 48.9355 38.9401 48.915 38.9401 48.8799C38.9401 48.8271 39.0089 48.792 39.1466 48.7744C39.463 48.7275 39.6212 48.5605 39.6212 48.2734V45.9487C39.6212 45.8257 39.5538 45.7407 39.4191 45.6938C39.3605 45.6733 39.2975 45.6572 39.2301 45.6455C39.1627 45.6309 39.1085 45.6177 39.0675 45.606C39.0294 45.5942 39.0045 45.584 38.9928 45.5752C38.984 45.5635 38.9796 45.5415 38.9796 45.5093C38.9796 45.4741 39.0016 45.4448 39.0455 45.4214L40.1661 44.894C40.2013 44.8765 40.2233 44.8677 40.2321 44.8677C40.2819 44.8677 40.3068 44.9028 40.3068 44.9731V48.2734C40.3068 48.5605 40.465 48.7275 40.7814 48.7744C40.9191 48.792 40.9879 48.8228 40.9879 48.8667C40.9879 48.9106 40.9733 48.9355 40.944 48.9414H38.984ZM39.8981 43.6328C39.778 43.6328 39.671 43.5947 39.5773 43.5186C39.4865 43.4424 39.441 43.3369 39.441 43.2021C39.441 43.0645 39.485 42.9561 39.5729 42.877C39.6608 42.7979 39.7648 42.7583 39.8849 42.7583C40.0079 42.7583 40.1105 42.8052 40.1925 42.8989C40.2775 42.9927 40.3199 43.0938 40.3199 43.2021C40.3199 43.3105 40.2804 43.4102 40.2013 43.501C40.1222 43.5889 40.0211 43.6328 39.8981 43.6328ZM43.6466 45.9355C43.6466 46 43.6217 46.0322 43.5719 46.0322C43.525 46.0322 43.4884 45.9971 43.462 45.9268C43.3917 45.7334 43.2863 45.562 43.1456 45.4126C43.0079 45.2632 42.8365 45.1885 42.6315 45.1885C42.3619 45.1885 42.1803 45.3232 42.0865 45.5928C42.0573 45.6836 42.0426 45.7773 42.0426 45.874C42.0426 45.9707 42.1041 46.0791 42.2272 46.1992C42.3502 46.3164 42.5524 46.457 42.8336 46.6211C43.1149 46.7852 43.3199 46.9243 43.4489 47.0386C43.7418 47.2993 43.8883 47.6011 43.8883 47.9438C43.8883 48.2866 43.7623 48.5591 43.5104 48.7612C43.2584 48.9604 42.9655 49.0601 42.6315 49.0601C42.4528 49.0601 42.2902 49.0352 42.1437 48.9854C42.0001 48.9385 41.9166 48.915 41.8932 48.915C41.8727 48.915 41.8375 48.9385 41.7877 48.9854C41.7408 49.0352 41.7028 49.0601 41.6735 49.0601H41.5988C41.5812 49.0601 41.5592 48.9019 41.5328 48.5854C41.5065 48.269 41.4933 48.0815 41.4933 48.0229C41.4933 47.9644 41.4977 47.9321 41.5065 47.9263C41.5182 47.9204 41.5358 47.9175 41.5592 47.9175C41.5826 47.9175 41.6017 47.9248 41.6163 47.9395C41.6339 47.9541 41.6486 47.9731 41.6603 47.9966C41.672 48.0171 41.6808 48.0391 41.6866 48.0625C41.6954 48.0859 41.7145 48.1299 41.7438 48.1943C41.943 48.6191 42.2506 48.8315 42.6666 48.8315C42.8512 48.8315 42.9991 48.7642 43.1105 48.6294C43.2218 48.4917 43.2775 48.3394 43.2775 48.1724C43.2775 48.0054 43.2335 47.8647 43.1456 47.7505C43.0577 47.6362 42.9479 47.5322 42.816 47.4385C42.6871 47.3447 42.5465 47.2539 42.3942 47.166C41.8024 46.8203 41.5065 46.438 41.5065 46.019C41.5065 45.7056 41.6412 45.436 41.9108 45.2104C42.1803 44.9819 42.4572 44.8677 42.7413 44.8677C43.0255 44.8677 43.235 44.8984 43.3698 44.96C43.5074 45.0215 43.588 45.0742 43.6115 45.1182C43.6349 45.1592 43.6466 45.2969 43.6466 45.5312V45.9355ZM51.0997 44.9863C51.132 44.9951 51.1481 45.0156 51.1481 45.0479C51.1481 45.0801 51.1437 45.1035 51.1349 45.1182C51.1261 45.1328 51.0616 45.1489 50.9415 45.1665C50.8214 45.1841 50.735 45.2192 50.6823 45.272C50.6324 45.3218 50.587 45.3789 50.546 45.4434C50.5079 45.5078 50.4742 45.5752 50.4449 45.6455C50.4156 45.7129 50.3878 45.7744 50.3615 45.8301L49.1617 48.9326C49.1266 49.0176 49.0944 49.0601 49.0651 49.0601H48.7179C48.6886 49.0601 48.6564 49.0146 48.6212 48.9238L47.4567 45.7729C47.3483 45.4771 47.1622 45.2866 46.8986 45.2017C46.8781 45.1958 46.8531 45.1914 46.8239 45.1885C46.7008 45.1768 46.6393 45.1401 46.6393 45.0786C46.6393 45.0171 46.6744 44.9863 46.7448 44.9863H48.7003C48.7238 44.9863 48.7355 45.0098 48.7355 45.0566C48.7355 45.1006 48.7194 45.1299 48.6871 45.1445C48.6344 45.165 48.5406 45.1738 48.4059 45.1709C48.1862 45.165 48.0763 45.2529 48.0763 45.4346L48.1027 45.54L48.9948 47.979C49.0533 48.1284 49.1119 48.124 49.1705 47.9658C49.1764 47.9512 49.2145 47.856 49.2848 47.6802C49.6803 46.6694 49.9015 46.085 49.9484 45.9268C49.9982 45.7686 50.0231 45.6499 50.0231 45.5708C50.0231 45.4917 49.9806 45.4097 49.8956 45.3247C49.8107 45.2368 49.6964 45.1929 49.5529 45.1929C49.4093 45.1929 49.3375 45.1489 49.3375 45.061C49.3375 45.0112 49.3698 44.9863 49.4342 44.9863H51.0997ZM54.1715 45.7905C54.1364 45.7847 54.0851 45.7656 54.0177 45.7334C53.7745 45.6221 53.5841 45.5664 53.4464 45.5664C53.3087 45.5664 53.1637 45.6528 53.0114 45.8257C52.8619 45.9956 52.7872 46.1494 52.7872 46.2871V48.2734C52.7872 48.4932 52.9147 48.6396 53.1696 48.7129C53.2809 48.7422 53.3849 48.7642 53.4816 48.7788C53.5782 48.7905 53.6398 48.8022 53.6661 48.814C53.6954 48.8257 53.7101 48.8491 53.7101 48.8843C53.7101 48.9165 53.6954 48.9355 53.6661 48.9414H51.4645C51.4352 48.9355 51.4205 48.915 51.4205 48.8799C51.4205 48.8271 51.4894 48.792 51.6271 48.7744C51.9435 48.7275 52.1017 48.5605 52.1017 48.2734V45.9487C52.1017 45.8257 52.0343 45.7407 51.8995 45.6938C51.8409 45.6733 51.778 45.6572 51.7106 45.6455C51.6432 45.6309 51.589 45.6177 51.548 45.606C51.5099 45.5942 51.485 45.584 51.4733 45.5752C51.4645 45.5635 51.4601 45.5415 51.4601 45.5093C51.4601 45.4741 51.4821 45.4448 51.526 45.4214L52.6466 44.894C52.6818 44.8765 52.7037 44.8677 52.7125 44.8677C52.7623 44.8677 52.7872 44.9028 52.7872 44.9731V45.6851C52.7872 45.7202 52.796 45.7378 52.8136 45.7378C52.837 45.7378 52.8971 45.6689 52.9938 45.5312C53.2721 45.1416 53.5021 44.9468 53.6837 44.9468C53.7863 44.9468 53.943 44.9878 54.1539 45.0698C54.3678 45.1519 54.4747 45.2207 54.4747 45.2764C54.4747 45.3438 54.441 45.4463 54.3737 45.584C54.3063 45.7217 54.2389 45.7905 54.1715 45.7905ZM57.5026 48.2163C57.5026 48.2925 57.5377 48.354 57.608 48.4009C57.6813 48.4448 57.7648 48.4668 57.8585 48.4668C57.9523 48.4668 58.0299 48.4434 58.0914 48.3965C58.1559 48.3467 58.1998 48.3218 58.2233 48.3218C58.2467 48.3218 58.2584 48.354 58.2584 48.4185C58.2584 48.48 58.2291 48.5327 58.1705 48.5767C57.7311 48.8989 57.4337 49.0601 57.2784 49.0601C57.0909 49.0601 56.9386 48.8652 56.8214 48.4756C56.8126 48.4463 56.8053 48.4331 56.7994 48.436C56.4362 48.7085 56.2076 48.8726 56.1139 48.9282C55.8737 49.0659 55.632 49.0879 55.3888 48.9941C55.1486 48.9004 54.9742 48.7451 54.8658 48.5283C54.8131 48.417 54.7867 48.2983 54.7867 48.1724C54.7867 47.9233 54.879 47.7256 55.0636 47.5791C55.2482 47.4326 55.5997 47.292 56.1183 47.1572C56.2941 47.1104 56.4508 47.0503 56.5885 46.9771C56.7262 46.9038 56.798 46.8569 56.8038 46.8364C56.8126 46.8159 56.817 46.7969 56.817 46.7793V45.9355C56.817 45.6045 56.6881 45.3716 56.4303 45.2368C56.3453 45.1929 56.2428 45.1709 56.1227 45.1709C56.0055 45.1709 55.8854 45.2178 55.7623 45.3115C55.6422 45.4053 55.5822 45.5386 55.5822 45.7114L55.6041 45.8828C55.5865 45.918 55.4811 45.9766 55.2877 46.0586C55.0944 46.1406 54.983 46.1846 54.9537 46.1904C54.9069 46.1904 54.8834 46.1348 54.8834 46.0234C54.8834 45.9092 54.9171 45.7832 54.9845 45.6455C55.0519 45.5078 55.1471 45.3818 55.2701 45.2676C55.5573 45.001 55.8854 44.8677 56.2545 44.8677C56.6237 44.8677 56.924 44.9702 57.1554 45.1753C57.3868 45.3774 57.5026 45.6191 57.5026 45.9004V48.2163ZM55.4767 48.0889C55.4767 48.2295 55.5309 48.3525 55.6393 48.458C55.7477 48.5605 55.8707 48.6118 56.0084 48.6118C56.149 48.6118 56.319 48.5532 56.5182 48.436C56.7174 48.3159 56.817 48.1929 56.817 48.0669V47.1748C56.817 47.1426 56.8097 47.1265 56.795 47.1265C56.7804 47.1265 56.7701 47.1279 56.7643 47.1309L55.7448 47.6055C55.6393 47.6816 55.5675 47.7461 55.5294 47.7988C55.4943 47.8516 55.4767 47.9482 55.4767 48.0889ZM58.6803 48.9414C58.651 48.9355 58.6364 48.915 58.6364 48.8799C58.6364 48.8271 58.7052 48.792 58.8429 48.7744C59.1593 48.7275 59.3175 48.5605 59.3175 48.2734V45.9487C59.3175 45.8257 59.2501 45.7407 59.1154 45.6938C59.0568 45.6733 58.9938 45.6572 58.9264 45.6455C58.859 45.6309 58.8048 45.6177 58.7638 45.606C58.7257 45.5942 58.7008 45.584 58.6891 45.5752C58.6803 45.5635 58.6759 45.5415 58.6759 45.5093C58.6759 45.4741 58.6979 45.4448 58.7418 45.4214L59.8624 44.894C59.8976 44.8765 59.9196 44.8677 59.9283 44.8677C59.9781 44.8677 60.0031 44.9028 60.0031 44.9731V48.2734C60.0031 48.5605 60.1613 48.7275 60.4777 48.7744C60.6154 48.792 60.6842 48.8228 60.6842 48.8667C60.6842 48.9106 60.6696 48.9355 60.6403 48.9414H58.6803ZM59.5944 43.6328C59.4742 43.6328 59.3673 43.5947 59.2736 43.5186C59.1827 43.4424 59.1373 43.3369 59.1373 43.2021C59.1373 43.0645 59.1813 42.9561 59.2692 42.877C59.3571 42.7979 59.4611 42.7583 59.5812 42.7583C59.7042 42.7583 59.8068 42.8052 59.8888 42.8989C59.9738 42.9927 60.0162 43.0938 60.0162 43.2021C60.0162 43.3105 59.9767 43.4102 59.8976 43.501C59.8185 43.5889 59.7174 43.6328 59.5944 43.6328ZM67.0035 47.5571L66.9948 46.6299C66.9948 46.252 66.9625 45.9868 66.8981 45.8345C66.8336 45.6821 66.7516 45.5679 66.652 45.4917C66.5524 45.4126 66.4176 45.373 66.2477 45.373C66.0807 45.373 65.7247 45.5049 65.1798 45.7686C65.1066 45.8125 65.0685 45.8535 65.0656 45.8916V48.2559C65.0656 48.5518 65.2238 48.7217 65.5402 48.7656C65.6779 48.7861 65.7467 48.8198 65.7467 48.8667C65.7467 48.9106 65.7321 48.9355 65.7028 48.9414H63.7428C63.7135 48.9355 63.6989 48.915 63.6989 48.8799C63.6989 48.8242 63.7677 48.7861 63.9054 48.7656C64.2218 48.7217 64.38 48.5518 64.38 48.2559V46.0674C64.38 45.6074 64.0958 45.3774 63.5275 45.3774C63.3195 45.3774 63.0309 45.5005 62.6617 45.7466C62.568 45.8081 62.4991 45.8652 62.4552 45.918V48.2559C62.4552 48.5518 62.6134 48.7217 62.9298 48.7656C63.0675 48.7861 63.1364 48.8198 63.1364 48.8667C63.1364 48.9106 63.1217 48.9355 63.0924 48.9414H61.1324C61.1031 48.9355 61.0885 48.915 61.0885 48.8799C61.0885 48.8242 61.1573 48.7861 61.295 48.7656C61.6115 48.7217 61.7697 48.5547 61.7697 48.2646V45.7334C61.7697 45.6104 61.7023 45.5254 61.5675 45.4785C61.5089 45.458 61.4459 45.4419 61.3785 45.4302C61.3112 45.4155 61.257 45.4023 61.2159 45.3906C61.1779 45.3789 61.153 45.3687 61.1412 45.3599C61.1324 45.3481 61.1281 45.3262 61.1281 45.2939C61.1281 45.2588 61.15 45.2295 61.194 45.2061L62.3146 44.6787C62.3497 44.6611 62.3717 44.6523 62.3805 44.6523C62.4303 44.6523 62.4552 44.6875 62.4552 44.7578V45.4873C62.4581 45.5049 62.4684 45.5137 62.486 45.5137C62.5065 45.5137 62.5548 45.4932 62.631 45.4521C62.7101 45.4111 62.8126 45.354 62.9386 45.2808C63.0646 45.2046 63.2301 45.1167 63.4352 45.0171C63.6432 44.9175 63.8629 44.8677 64.0944 44.8677C64.4664 44.8677 64.733 45.0273 64.8942 45.3467C64.9557 45.4756 65.0114 45.5312 65.0612 45.5137C65.111 45.4932 65.1886 45.4565 65.2941 45.4038C65.5431 45.2808 65.795 45.1606 66.0499 45.0435C66.3048 44.9263 66.5157 44.8677 66.6827 44.8677C67.3595 44.8677 67.6979 45.4844 67.6979 46.7178L67.6583 48.001V48.2559C67.6583 48.4844 67.7726 48.6338 68.0011 48.7041C68.0978 48.7363 68.1901 48.7598 68.278 48.7744C68.3688 48.7861 68.4274 48.7979 68.4537 48.8096C68.483 48.8213 68.4977 48.8447 68.4977 48.8799C68.4977 48.915 68.483 48.9355 68.4537 48.9414H66.3356C66.3063 48.9355 66.2916 48.915 66.2916 48.8799C66.2916 48.8242 66.3605 48.7861 66.4982 48.7656C66.8116 48.7217 66.9684 48.54 66.9684 48.2207C66.9918 48.0742 67.0035 47.853 67.0035 47.5571ZM69.5304 46.6255C69.4806 46.6255 69.4557 46.7324 69.4557 46.9463C69.4557 47.4004 69.5905 47.7812 69.86 48.0889C70.1295 48.3965 70.4635 48.5503 70.8619 48.5503C71.2633 48.5503 71.6486 48.3774 72.0177 48.0317C72.0236 48.0259 72.0309 48.0229 72.0397 48.0229H72.0616C72.0792 48.0229 72.0953 48.0376 72.11 48.0669C72.1276 48.0933 72.1437 48.1108 72.1583 48.1196C71.8185 48.5327 71.4186 48.8184 70.9586 48.9766C70.8004 49.0322 70.6217 49.0601 70.4225 49.0601C70.2233 49.0601 70.0211 49.0059 69.816 48.8975C69.611 48.7861 69.4352 48.6411 69.2887 48.4624C68.9781 48.0903 68.8229 47.6274 68.8229 47.0737C68.8229 46.5171 68.9913 46.0103 69.3282 45.5532C69.6681 45.0962 70.1339 44.8677 70.7257 44.8677C71.1505 44.8677 71.4977 45.0581 71.7672 45.439C72.0367 45.8169 72.1715 46.1494 72.1715 46.4365C72.1715 46.5625 72.1407 46.6255 72.0792 46.6255H69.5304ZM69.5787 46.2036C69.5787 46.2593 69.6051 46.2871 69.6578 46.2871H71.3146C71.3907 46.2871 71.4288 46.2417 71.4288 46.1509C71.4288 45.9399 71.3336 45.7246 71.1432 45.5049C70.9557 45.2822 70.7491 45.1709 70.5236 45.1709C70.3038 45.1709 70.1031 45.2705 69.9215 45.4697C69.7428 45.6689 69.6285 45.896 69.5787 46.1509V46.2036ZM76.1354 47.5571L76.1266 46.6299C76.1266 46.252 76.0944 45.9868 76.0299 45.8345C75.9655 45.6821 75.8834 45.5679 75.7838 45.4917C75.6842 45.4126 75.5494 45.373 75.3795 45.373C75.2125 45.373 74.8566 45.5049 74.3116 45.7686C74.2384 45.8125 74.2003 45.8535 74.1974 45.8916V48.2559C74.1974 48.5518 74.3556 48.7217 74.672 48.7656C74.8097 48.7861 74.8785 48.8198 74.8785 48.8667C74.8785 48.9106 74.8639 48.9355 74.8346 48.9414H72.8746C72.8453 48.9355 72.8307 48.915 72.8307 48.8799C72.8307 48.8242 72.8995 48.7861 73.0372 48.7656C73.3536 48.7217 73.5118 48.5518 73.5118 48.2559V45.7334C73.5118 45.6104 73.4445 45.5254 73.3097 45.4785C73.2511 45.458 73.1881 45.4419 73.1207 45.4302C73.0533 45.4155 72.9991 45.4023 72.9581 45.3906C72.92 45.3789 72.8951 45.3687 72.8834 45.3599C72.8746 45.3481 72.8702 45.3262 72.8702 45.2939C72.8702 45.2588 72.8922 45.2295 72.9362 45.2061L74.0568 44.6787C74.0919 44.6611 74.1139 44.6523 74.1227 44.6523C74.1725 44.6523 74.1974 44.6875 74.1974 44.7578V45.4434C74.2062 45.4727 74.2179 45.4873 74.2325 45.4873C74.2501 45.4873 74.3131 45.4609 74.4215 45.4082C74.6735 45.2822 74.9269 45.1606 75.1818 45.0435C75.4366 44.9263 75.6476 44.8677 75.8146 44.8677C76.4913 44.8677 76.8297 45.4844 76.8297 46.7178L76.7902 48.001V48.2559C76.7902 48.4844 76.9044 48.6338 77.1329 48.7041C77.2296 48.7363 77.3219 48.7598 77.4098 48.7744C77.5006 48.7861 77.5592 48.7979 77.5856 48.8096C77.6149 48.8213 77.6295 48.8447 77.6295 48.8799C77.6295 48.915 77.6149 48.9355 77.5856 48.9414H75.4674C75.4381 48.9355 75.4235 48.915 75.4235 48.8799C75.4235 48.8242 75.4923 48.7861 75.63 48.7656C75.9435 48.7217 76.1002 48.54 76.1002 48.2207C76.1237 48.0742 76.1354 47.853 76.1354 47.5571ZM79.0929 45.562C79.0753 45.562 79.0665 45.5752 79.0665 45.6016V48.0273C79.0665 48.2031 79.1046 48.3408 79.1808 48.4404C79.2599 48.54 79.3595 48.5898 79.4796 48.5898C79.5997 48.5898 79.7037 48.5708 79.7916 48.5327C79.8824 48.4917 79.9601 48.4478 80.0245 48.4009C80.0919 48.354 80.152 48.3115 80.2047 48.2734C80.2574 48.2324 80.3043 48.2119 80.3453 48.2119C80.3864 48.2119 80.4069 48.2222 80.4069 48.2427C80.4069 48.313 80.3995 48.3584 80.3849 48.3789C80.0333 48.833 79.6935 49.0601 79.3654 49.0601C79.0402 49.0601 78.7941 48.9575 78.6271 48.7524C78.463 48.5444 78.381 48.2969 78.381 48.0098V45.562H78.0514C77.9694 45.562 77.9254 45.5356 77.9196 45.4829C77.9166 45.4302 77.9254 45.3965 77.9459 45.3818C78.1012 45.2822 78.3151 45.1035 78.5875 44.8457C78.6168 44.8135 78.6564 44.7651 78.7062 44.7007C78.756 44.6362 78.8278 44.5483 78.9215 44.437C79.0182 44.3257 79.0914 44.27 79.1412 44.27C79.191 44.27 79.2159 44.2905 79.2159 44.3315C79.2159 44.3374 79.1661 44.5293 79.0665 44.9072C79.0665 44.96 79.09 44.9878 79.1368 44.9907H80.2574C80.3864 44.9907 80.4508 45.1724 80.4508 45.5356C80.4508 45.5532 80.4391 45.562 80.4156 45.562H79.0929ZM86.7394 45.395C86.7394 45.6001 86.6207 45.7026 86.3834 45.7026C86.2633 45.7026 86.1608 45.6689 86.0758 45.6016C85.9938 45.5312 85.9293 45.4727 85.8824 45.4258C85.8385 45.376 85.7916 45.3306 85.7418 45.2896C85.5309 45.1167 85.2731 45.0977 84.9684 45.2324C84.6666 45.3672 84.4337 45.6543 84.2697 46.0938C84.1788 46.3369 84.1334 46.5786 84.1334 46.8188C84.1334 47.3345 84.2506 47.7563 84.485 48.0845C84.7194 48.4097 85.0782 48.5723 85.5616 48.5723C85.922 48.5723 86.2457 48.4111 86.5328 48.0889C86.6207 47.9922 86.6735 47.9438 86.691 47.9438C86.7086 47.9438 86.7277 47.9526 86.7482 47.9702C86.7687 47.9878 86.7789 48.0142 86.7789 48.0493C86.7789 48.0815 86.7701 48.1064 86.7526 48.124C86.3043 48.748 85.7404 49.0601 85.0607 49.0601C84.5685 49.0601 84.1642 48.877 83.8478 48.5107C83.5343 48.1445 83.3776 47.7256 83.3776 47.2539C83.3805 46.3809 83.5914 45.7524 84.0104 45.3687C84.3795 45.0317 84.9054 44.8633 85.588 44.8633C86.0099 44.8633 86.2897 44.9058 86.4274 44.9907C86.5651 45.0757 86.6617 45.1826 86.7174 45.3115C86.7321 45.3408 86.7394 45.3687 86.7394 45.395ZM88.1017 46.6255C88.0519 46.6255 88.027 46.7324 88.027 46.9463C88.027 47.4004 88.1617 47.7812 88.4313 48.0889C88.7008 48.3965 89.0348 48.5503 89.4332 48.5503C89.8346 48.5503 90.2198 48.3774 90.589 48.0317C90.5948 48.0259 90.6022 48.0229 90.611 48.0229H90.6329C90.6505 48.0229 90.6666 48.0376 90.6813 48.0669C90.6989 48.0933 90.715 48.1108 90.7296 48.1196C90.3898 48.5327 89.9899 48.8184 89.5299 48.9766C89.3717 49.0322 89.193 49.0601 88.9938 49.0601C88.7946 49.0601 88.5924 49.0059 88.3873 48.8975C88.1823 48.7861 88.0065 48.6411 87.86 48.4624C87.5494 48.0903 87.3942 47.6274 87.3942 47.0737C87.3942 46.5171 87.5626 46.0103 87.8995 45.5532C88.2394 45.0962 88.7052 44.8677 89.297 44.8677C89.7218 44.8677 90.069 45.0581 90.3385 45.439C90.608 45.8169 90.7428 46.1494 90.7428 46.4365C90.7428 46.5625 90.712 46.6255 90.6505 46.6255H88.1017ZM88.15 46.2036C88.15 46.2593 88.1764 46.2871 88.2291 46.2871H89.8859C89.962 46.2871 90.0001 46.2417 90.0001 46.1509C90.0001 45.9399 89.9049 45.7246 89.7145 45.5049C89.527 45.2822 89.3204 45.1709 89.0948 45.1709C88.8751 45.1709 88.6744 45.2705 88.4928 45.4697C88.3141 45.6689 88.1998 45.896 88.15 46.1509V46.2036ZM97.3478 45.395C97.3478 45.6001 97.2291 45.7026 96.9918 45.7026C96.8717 45.7026 96.7692 45.6689 96.6842 45.6016C96.6022 45.5312 96.5377 45.4727 96.4908 45.4258C96.4469 45.376 96.4 45.3306 96.3502 45.2896C96.1393 45.1167 95.8815 45.0977 95.5768 45.2324C95.275 45.3672 95.0421 45.6543 94.8781 46.0938C94.7872 46.3369 94.7418 46.5786 94.7418 46.8188C94.7418 47.3345 94.859 47.7563 95.0934 48.0845C95.3278 48.4097 95.6866 48.5723 96.17 48.5723C96.5304 48.5723 96.8541 48.4111 97.1412 48.0889C97.2291 47.9922 97.2819 47.9438 97.2994 47.9438C97.317 47.9438 97.3361 47.9526 97.3566 47.9702C97.3771 47.9878 97.3873 48.0142 97.3873 48.0493C97.3873 48.0815 97.3785 48.1064 97.361 48.124C96.9127 48.748 96.3488 49.0601 95.6691 49.0601C95.1769 49.0601 94.7726 48.877 94.4562 48.5107C94.1427 48.1445 93.986 47.7256 93.986 47.2539C93.9889 46.3809 94.1998 45.7524 94.6188 45.3687C94.9879 45.0317 95.5138 44.8633 96.1964 44.8633C96.6183 44.8633 96.8981 44.9058 97.0358 44.9907C97.1735 45.0757 97.2701 45.1826 97.3258 45.3115C97.3405 45.3408 97.3478 45.3687 97.3478 45.395ZM100.718 48.2163C100.718 48.2925 100.754 48.354 100.824 48.4009C100.897 48.4448 100.981 48.4668 101.074 48.4668C101.168 48.4668 101.246 48.4434 101.307 48.3965C101.372 48.3467 101.416 48.3218 101.439 48.3218C101.463 48.3218 101.474 48.354 101.474 48.4185C101.474 48.48 101.445 48.5327 101.386 48.5767C100.947 48.8989 100.65 49.0601 100.494 49.0601C100.307 49.0601 100.154 48.8652 100.037 48.4756C100.028 48.4463 100.021 48.4331 100.015 48.436C99.652 48.7085 99.4235 48.8726 99.3297 48.9282C99.0895 49.0659 98.8478 49.0879 98.6046 48.9941C98.3644 48.9004 98.1901 48.7451 98.0817 48.5283C98.0289 48.417 98.0026 48.2983 98.0026 48.1724C98.0026 47.9233 98.0948 47.7256 98.2794 47.5791C98.464 47.4326 98.8156 47.292 99.3341 47.1572C99.5099 47.1104 99.6666 47.0503 99.8043 46.9771C99.942 46.9038 100.014 46.8569 100.02 46.8364C100.028 46.8159 100.033 46.7969 100.033 46.7793V45.9355C100.033 45.6045 99.9039 45.3716 99.6461 45.2368C99.5612 45.1929 99.4586 45.1709 99.3385 45.1709C99.2213 45.1709 99.1012 45.2178 98.9781 45.3115C98.858 45.4053 98.798 45.5386 98.798 45.7114L98.8199 45.8828C98.8024 45.918 98.6969 45.9766 98.5035 46.0586C98.3102 46.1406 98.1989 46.1846 98.1696 46.1904C98.1227 46.1904 98.0992 46.1348 98.0992 46.0234C98.0992 45.9092 98.1329 45.7832 98.2003 45.6455C98.2677 45.5078 98.3629 45.3818 98.486 45.2676C98.7731 45.001 99.1012 44.8677 99.4703 44.8677C99.8395 44.8677 100.14 44.9702 100.371 45.1753C100.603 45.3774 100.718 45.6191 100.718 45.9004V48.2163ZM98.6925 48.0889C98.6925 48.2295 98.7467 48.3525 98.8551 48.458C98.9635 48.5605 99.0865 48.6118 99.2242 48.6118C99.3649 48.6118 99.5348 48.5532 99.734 48.436C99.9332 48.3159 100.033 48.1929 100.033 48.0669V47.1748C100.033 47.1426 100.026 47.1265 100.011 47.1265C99.9962 47.1265 99.986 47.1279 99.9801 47.1309L98.9606 47.6055C98.8551 47.6816 98.7833 47.7461 98.7452 47.7988C98.7101 47.8516 98.6925 47.9482 98.6925 48.0889ZM104.568 45.7905C104.533 45.7847 104.482 45.7656 104.414 45.7334C104.171 45.6221 103.981 45.5664 103.843 45.5664C103.705 45.5664 103.56 45.6528 103.408 45.8257C103.258 45.9956 103.184 46.1494 103.184 46.2871V48.2734C103.184 48.4932 103.311 48.6396 103.566 48.7129C103.677 48.7422 103.781 48.7642 103.878 48.7788C103.975 48.7905 104.036 48.8022 104.063 48.814C104.092 48.8257 104.107 48.8491 104.107 48.8843C104.107 48.9165 104.092 48.9355 104.063 48.9414H101.861C101.832 48.9355 101.817 48.915 101.817 48.8799C101.817 48.8271 101.886 48.792 102.024 48.7744C102.34 48.7275 102.498 48.5605 102.498 48.2734V45.9487C102.498 45.8257 102.431 45.7407 102.296 45.6938C102.237 45.6733 102.174 45.6572 102.107 45.6455C102.04 45.6309 101.985 45.6177 101.944 45.606C101.906 45.5942 101.881 45.584 101.87 45.5752C101.861 45.5635 101.857 45.5415 101.857 45.5093C101.857 45.4741 101.879 45.4448 101.922 45.4214L103.043 44.894C103.078 44.8765 103.1 44.8677 103.109 44.8677C103.159 44.8677 103.184 44.9028 103.184 44.9731V45.6851C103.184 45.7202 103.193 45.7378 103.21 45.7378C103.234 45.7378 103.294 45.6689 103.39 45.5312C103.669 45.1416 103.899 44.9468 104.08 44.9468C104.183 44.9468 104.339 44.9878 104.55 45.0698C104.764 45.1519 104.871 45.2207 104.871 45.2764C104.871 45.3438 104.838 45.4463 104.77 45.584C104.703 45.7217 104.635 45.7905 104.568 45.7905ZM107.855 45.7905C107.82 45.7847 107.769 45.7656 107.701 45.7334C107.458 45.6221 107.268 45.5664 107.13 45.5664C106.992 45.5664 106.847 45.6528 106.695 45.8257C106.546 45.9956 106.471 46.1494 106.471 46.2871V48.2734C106.471 48.4932 106.598 48.6396 106.853 48.7129C106.964 48.7422 107.068 48.7642 107.165 48.7788C107.262 48.7905 107.323 48.8022 107.35 48.814C107.379 48.8257 107.394 48.8491 107.394 48.8843C107.394 48.9165 107.379 48.9355 107.35 48.9414H105.148C105.119 48.9355 105.104 48.915 105.104 48.8799C105.104 48.8271 105.173 48.792 105.311 48.7744C105.627 48.7275 105.785 48.5605 105.785 48.2734V45.9487C105.785 45.8257 105.718 45.7407 105.583 45.6938C105.525 45.6733 105.462 45.6572 105.394 45.6455C105.327 45.6309 105.273 45.6177 105.232 45.606C105.193 45.5942 105.169 45.584 105.157 45.5752C105.148 45.5635 105.144 45.5415 105.144 45.5093C105.144 45.4741 105.166 45.4448 105.21 45.4214L106.33 44.894C106.365 44.8765 106.387 44.8677 106.396 44.8677C106.446 44.8677 106.471 44.9028 106.471 44.9731V45.6851C106.471 45.7202 106.48 45.7378 106.497 45.7378C106.521 45.7378 106.581 45.6689 106.677 45.5312C106.956 45.1416 107.186 44.9468 107.367 44.9468C107.47 44.9468 107.627 44.9878 107.838 45.0698C108.051 45.1519 108.158 45.2207 108.158 45.2764C108.158 45.3438 108.125 45.4463 108.057 45.584C107.99 45.7217 107.922 45.7905 107.855 45.7905ZM109.178 46.6255C109.128 46.6255 109.103 46.7324 109.103 46.9463C109.103 47.4004 109.238 47.7812 109.507 48.0889C109.777 48.3965 110.111 48.5503 110.509 48.5503C110.911 48.5503 111.296 48.3774 111.665 48.0317C111.671 48.0259 111.678 48.0229 111.687 48.0229H111.709C111.727 48.0229 111.743 48.0376 111.757 48.0669C111.775 48.0933 111.791 48.1108 111.806 48.1196C111.466 48.5327 111.066 48.8184 110.606 48.9766C110.448 49.0322 110.269 49.0601 110.07 49.0601C109.871 49.0601 109.669 49.0059 109.464 48.8975C109.258 48.7861 109.083 48.6411 108.936 48.4624C108.626 48.0903 108.47 47.6274 108.47 47.0737C108.47 46.5171 108.639 46.0103 108.976 45.5532C109.316 45.0962 109.781 44.8677 110.373 44.8677C110.798 44.8677 111.145 45.0581 111.415 45.439C111.684 45.8169 111.819 46.1494 111.819 46.4365C111.819 46.5625 111.788 46.6255 111.727 46.6255H109.178ZM109.226 46.2036C109.226 46.2593 109.253 46.2871 109.305 46.2871H110.962C111.038 46.2871 111.076 46.2417 111.076 46.1509C111.076 45.9399 110.981 45.7246 110.791 45.5049C110.603 45.2822 110.397 45.1709 110.171 45.1709C109.951 45.1709 109.751 45.2705 109.569 45.4697C109.39 45.6689 109.276 45.896 109.226 46.1509V46.2036ZM109.754 44.125C109.742 44.1133 109.736 44.1045 109.736 44.0986C109.736 44.0928 109.742 44.084 109.754 44.0723L110.69 42.7759C110.795 42.6323 110.899 42.5605 111.002 42.5605C111.104 42.5605 111.185 42.5942 111.243 42.6616C111.305 42.7261 111.336 42.814 111.336 42.9253C111.336 43.0366 111.255 43.1611 111.094 43.2988L109.912 44.2524C109.897 44.2612 109.885 44.2656 109.877 44.2656C109.868 44.2656 109.859 44.2612 109.85 44.2524L109.754 44.125ZM112.821 48.502C112.821 48.3438 112.877 48.2075 112.988 48.0933C113.099 47.9761 113.234 47.9175 113.392 47.9175C113.547 47.9175 113.681 47.9746 113.792 48.0889C113.906 48.2002 113.964 48.3364 113.964 48.4976C113.964 48.6587 113.908 48.7935 113.797 48.9019C113.685 49.0073 113.55 49.0601 113.392 49.0601C113.237 49.0601 113.102 49.0059 112.988 48.8975C112.877 48.7891 112.821 48.6572 112.821 48.502ZM120.538 49.0381C120.075 48.9971 119.649 48.8784 119.259 48.6821C118.869 48.4829 118.543 48.2441 118.279 47.9658C117.716 47.3711 117.435 46.6606 117.435 45.8345C117.435 44.8823 117.76 44.1001 118.411 43.4878C119.064 42.8755 119.877 42.5693 120.85 42.5693C121.822 42.5693 122.628 42.8711 123.267 43.4746C123.908 44.0781 124.229 44.8501 124.229 45.7905C124.229 46.9097 123.659 47.8472 122.52 48.603C122.493 48.6206 122.38 48.6777 122.181 48.7744C121.985 48.8711 121.887 48.9268 121.887 48.9414C121.887 48.9531 121.978 49.0205 122.159 49.1436C122.344 49.2695 122.734 49.5728 123.328 50.0532C123.686 50.3403 123.963 50.5029 124.159 50.541C124.355 50.582 124.453 50.6216 124.453 50.6597C124.453 50.7329 124.406 50.7783 124.313 50.7959C124.219 50.8135 124.077 50.8223 123.886 50.8223C123.555 50.8223 123.189 50.7139 122.788 50.4971C122.082 50.0312 121.607 49.6826 121.364 49.4512C121.121 49.2197 120.907 49.0894 120.722 49.0601C120.667 49.0513 120.605 49.0439 120.538 49.0381ZM118.986 43.6943C118.781 43.9463 118.623 44.2422 118.512 44.582C118.403 44.9189 118.351 45.2471 118.354 45.5664C118.359 46.1436 118.475 46.6709 118.701 47.1484C118.926 47.623 119.241 48.0068 119.646 48.2998C120.053 48.5898 120.523 48.7349 121.056 48.7349C121.71 48.7349 122.253 48.48 122.687 47.9702C123.12 47.4575 123.337 46.7866 123.337 45.9575C123.337 45.1284 123.125 44.4326 122.7 43.8701C122.228 43.249 121.569 42.9136 120.722 42.8638C120.013 42.8638 119.435 43.1406 118.986 43.6943ZM128.035 48.5547C128.02 48.5049 128.001 48.4888 127.978 48.5063C127.954 48.521 127.859 48.5708 127.692 48.6558C127.144 48.9282 126.687 49.0645 126.321 49.0645C125.955 49.0645 125.691 48.9473 125.53 48.7129C125.471 48.625 125.442 48.5166 125.442 48.3877V45.707C125.433 45.6221 125.395 45.5488 125.328 45.4873C125.237 45.4111 125.142 45.3701 125.042 45.3643C124.945 45.3584 124.897 45.3291 124.897 45.2764C124.897 45.2207 124.921 45.187 124.967 45.1753L125.974 44.8853C126.009 44.8735 126.043 44.8677 126.075 44.8677C126.11 44.8677 126.128 44.8926 126.128 44.9424V47.8911C126.128 48.0962 126.218 48.2544 126.4 48.3657C126.582 48.4771 126.813 48.5327 127.094 48.5327C127.379 48.5327 127.633 48.4463 127.859 48.2734C127.929 48.2178 127.988 48.1562 128.035 48.0889V45.707C128.026 45.6221 127.988 45.5488 127.921 45.4873C127.83 45.4111 127.734 45.3701 127.635 45.3643C127.538 45.3584 127.49 45.3291 127.49 45.2764C127.49 45.2207 127.513 45.187 127.56 45.1753L128.567 44.8853C128.602 44.8735 128.635 44.8677 128.668 44.8677C128.703 44.8677 128.72 44.897 128.72 44.9556V48.0757C128.735 48.2046 128.772 48.2969 128.83 48.3525C128.889 48.4082 128.984 48.436 129.116 48.436L129.371 48.4185C129.388 48.4185 129.397 48.436 129.397 48.4712C129.397 48.5034 129.375 48.5298 129.331 48.5503L128.162 49.0337C128.127 49.0513 128.096 49.0601 128.07 49.0601C128.047 49.0601 128.035 49.0234 128.035 48.9502V48.5547ZM130.676 46.6255C130.626 46.6255 130.601 46.7324 130.601 46.9463C130.601 47.4004 130.736 47.7812 131.005 48.0889C131.275 48.3965 131.609 48.5503 132.007 48.5503C132.409 48.5503 132.794 48.3774 133.163 48.0317C133.169 48.0259 133.176 48.0229 133.185 48.0229H133.207C133.225 48.0229 133.241 48.0376 133.255 48.0669C133.273 48.0933 133.289 48.1108 133.304 48.1196C132.964 48.5327 132.564 48.8184 132.104 48.9766C131.946 49.0322 131.767 49.0601 131.568 49.0601C131.369 49.0601 131.167 49.0059 130.962 48.8975C130.756 48.7861 130.581 48.6411 130.434 48.4624C130.124 48.0903 129.968 47.6274 129.968 47.0737C129.968 46.5171 130.137 46.0103 130.474 45.5532C130.814 45.0962 131.279 44.8677 131.871 44.8677C132.296 44.8677 132.643 45.0581 132.913 45.439C133.182 45.8169 133.317 46.1494 133.317 46.4365C133.317 46.5625 133.286 46.6255 133.225 46.6255H130.676ZM130.724 46.2036C130.724 46.2593 130.751 46.2871 130.803 46.2871H132.46C132.536 46.2871 132.574 46.2417 132.574 46.1509C132.574 45.9399 132.479 45.7246 132.289 45.5049C132.101 45.2822 131.895 45.1709 131.669 45.1709C131.449 45.1709 131.249 45.2705 131.067 45.4697C130.888 45.6689 130.774 45.896 130.724 46.1509V46.2036ZM61.8575 56.9863C61.8898 56.9951 61.9059 57.0156 61.9059 57.0479C61.9059 57.0801 61.9015 57.1035 61.8927 57.1182C61.8839 57.1328 61.8195 57.1489 61.6993 57.1665C61.5792 57.1841 61.4928 57.2192 61.4401 57.272C61.3903 57.3218 61.3448 57.3789 61.3038 57.4434C61.2657 57.5078 61.2321 57.5752 61.2028 57.6455C61.1735 57.7129 61.1456 57.7744 61.1193 57.8301L59.9196 60.9326C59.8844 61.0176 59.8522 61.0601 59.8229 61.0601H59.4757C59.4464 61.0601 59.4142 61.0146 59.379 60.9238L58.2145 57.7729C58.1061 57.4771 57.92 57.2866 57.6564 57.2017C57.6359 57.1958 57.611 57.1914 57.5817 57.1885C57.4586 57.1768 57.3971 57.1401 57.3971 57.0786C57.3971 57.0171 57.4323 56.9863 57.5026 56.9863H59.4581C59.4816 56.9863 59.4933 57.0098 59.4933 57.0566C59.4933 57.1006 59.4772 57.1299 59.4449 57.1445C59.3922 57.165 59.2985 57.1738 59.1637 57.1709C58.944 57.165 58.8341 57.2529 58.8341 57.4346L58.8605 57.54L59.7526 59.979C59.8112 60.1284 59.8698 60.124 59.9283 59.9658C59.9342 59.9512 59.9723 59.856 60.0426 59.6802C60.4381 58.6694 60.6593 58.085 60.7062 57.9268C60.756 57.7686 60.7809 57.6499 60.7809 57.5708C60.7809 57.4917 60.7384 57.4097 60.6534 57.3247C60.5685 57.2368 60.4542 57.1929 60.3107 57.1929C60.1671 57.1929 60.0953 57.1489 60.0953 57.061C60.0953 57.0112 60.1276 56.9863 60.192 56.9863H61.8575ZM62.2794 58.9683C62.2794 58.3911 62.483 57.896 62.8903 57.4829C63.3004 57.0669 63.7911 56.8589 64.3624 56.8589C64.9337 56.8589 65.4303 57.061 65.8522 57.4653C66.274 57.8667 66.485 58.3633 66.485 58.9551C66.485 59.5469 66.2843 60.0464 65.8829 60.4536C65.4845 60.8579 64.9835 61.0601 64.38 61.0601C63.7765 61.0601 63.2755 60.855 62.8771 60.4448C62.4786 60.0347 62.2794 59.5425 62.2794 58.9683ZM63.3737 60.0977C63.6608 60.5811 64.0519 60.8228 64.547 60.8228C64.9308 60.8228 65.2238 60.6689 65.4259 60.3613C65.631 60.0537 65.7335 59.6758 65.7335 59.2275C65.7335 58.7793 65.59 58.3193 65.3029 57.8477C65.0187 57.376 64.6349 57.1401 64.1515 57.1401C63.797 57.1401 63.5172 57.2939 63.3121 57.6016C63.11 57.9062 63.0089 58.2944 63.0089 58.7661C63.0089 59.2349 63.1305 59.6787 63.3737 60.0977ZM67.1266 60.9414C67.0973 60.9355 67.0826 60.915 67.0826 60.8799C67.0826 60.8271 67.1515 60.792 67.2892 60.7744C67.6056 60.7275 67.7638 60.5605 67.7638 60.2734V57.9487C67.7638 57.8257 67.6964 57.7407 67.5616 57.6938C67.5031 57.6733 67.4401 57.6572 67.3727 57.6455C67.3053 57.6309 67.2511 57.6177 67.2101 57.606C67.172 57.5942 67.1471 57.584 67.1354 57.5752C67.1266 57.5635 67.1222 57.5415 67.1222 57.5093C67.1222 57.4741 67.1442 57.4448 67.1881 57.4214L68.3087 56.894C68.3439 56.8765 68.3658 56.8677 68.3746 56.8677C68.4244 56.8677 68.4493 56.9028 68.4493 56.9731V60.2734C68.4493 60.5605 68.6075 60.7275 68.924 60.7744C69.0616 60.792 69.1305 60.8228 69.1305 60.8667C69.1305 60.9106 69.1158 60.9355 69.0865 60.9414H67.1266ZM68.0406 55.6328C67.9205 55.6328 67.8136 55.5947 67.7198 55.5186C67.629 55.4424 67.5836 55.3369 67.5836 55.2021C67.5836 55.0645 67.6276 54.9561 67.7155 54.877C67.8033 54.7979 67.9073 54.7583 68.0275 54.7583C68.1505 54.7583 68.2531 54.8052 68.3351 54.8989C68.42 54.9927 68.4625 55.0938 68.4625 55.2021C68.4625 55.3105 68.423 55.4102 68.3439 55.501C68.2648 55.5889 68.1637 55.6328 68.0406 55.6328ZM71.7892 57.9355C71.7892 58 71.7643 58.0322 71.7145 58.0322C71.6676 58.0322 71.631 57.9971 71.6046 57.9268C71.5343 57.7334 71.4288 57.562 71.2882 57.4126C71.1505 57.2632 70.9791 57.1885 70.774 57.1885C70.5045 57.1885 70.3229 57.3232 70.2291 57.5928C70.1998 57.6836 70.1852 57.7773 70.1852 57.874C70.1852 57.9707 70.2467 58.0791 70.3698 58.1992C70.4928 58.3164 70.6949 58.457 70.9762 58.6211C71.2574 58.7852 71.4625 58.9243 71.5914 59.0386C71.8844 59.2993 72.0309 59.6011 72.0309 59.9438C72.0309 60.2866 71.9049 60.5591 71.653 60.7612C71.401 60.9604 71.108 61.0601 70.774 61.0601C70.5953 61.0601 70.4327 61.0352 70.2863 60.9854C70.1427 60.9385 70.0592 60.915 70.0358 60.915C70.0153 60.915 69.9801 60.9385 69.9303 60.9854C69.8834 61.0352 69.8453 61.0601 69.816 61.0601H69.7413C69.7238 61.0601 69.7018 60.9019 69.6754 60.5854C69.649 60.269 69.6359 60.0815 69.6359 60.0229C69.6359 59.9644 69.6403 59.9321 69.649 59.9263C69.6608 59.9204 69.6783 59.9175 69.7018 59.9175C69.7252 59.9175 69.7443 59.9248 69.7589 59.9395C69.7765 59.9541 69.7911 59.9731 69.8029 59.9966C69.8146 60.0171 69.8234 60.0391 69.8292 60.0625C69.838 60.0859 69.8571 60.1299 69.8864 60.1943C70.0856 60.6191 70.3932 60.8315 70.8092 60.8315C70.9938 60.8315 71.1417 60.7642 71.2531 60.6294C71.3644 60.4917 71.42 60.3394 71.42 60.1724C71.42 60.0054 71.3761 59.8647 71.2882 59.7505C71.2003 59.6362 71.0905 59.5322 70.9586 59.4385C70.8297 59.3447 70.6891 59.2539 70.5367 59.166C69.9449 58.8203 69.649 58.438 69.649 58.019C69.649 57.7056 69.7838 57.436 70.0533 57.2104C70.3229 56.9819 70.5997 56.8677 70.8839 56.8677C71.1681 56.8677 71.3776 56.8984 71.5123 56.96C71.65 57.0215 71.7306 57.0742 71.754 57.1182C71.7775 57.1592 71.7892 57.2969 71.7892 57.5312V57.9355ZM76.0035 58.4014V59.0034H72.7384V58.4014H76.0035ZM77.757 57.562C77.7394 57.562 77.7306 57.5752 77.7306 57.6016V60.0273C77.7306 60.2031 77.7687 60.3408 77.8448 60.4404C77.924 60.54 78.0236 60.5898 78.1437 60.5898C78.2638 60.5898 78.3678 60.5708 78.4557 60.5327C78.5465 60.4917 78.6241 60.4478 78.6886 60.4009C78.756 60.354 78.816 60.3115 78.8688 60.2734C78.9215 60.2324 78.9684 60.2119 79.0094 60.2119C79.0504 60.2119 79.0709 60.2222 79.0709 60.2427C79.0709 60.313 79.0636 60.3584 79.049 60.3789C78.6974 60.833 78.3575 61.0601 78.0294 61.0601C77.7042 61.0601 77.4581 60.9575 77.2911 60.7524C77.1271 60.5444 77.045 60.2969 77.045 60.0098V57.562H76.7155C76.6334 57.562 76.5895 57.5356 76.5836 57.4829C76.5807 57.4302 76.5895 57.3965 76.61 57.3818C76.7653 57.2822 76.9791 57.1035 77.2516 56.8457C77.2809 56.8135 77.3204 56.7651 77.3702 56.7007C77.42 56.6362 77.4918 56.5483 77.5856 56.437C77.6823 56.3257 77.7555 56.27 77.8053 56.27C77.8551 56.27 77.88 56.2905 77.88 56.3315C77.88 56.3374 77.8302 56.5293 77.7306 56.9072C77.7306 56.96 77.754 56.9878 77.8009 56.9907H78.9215C79.0504 56.9907 79.1149 57.1724 79.1149 57.5356C79.1149 57.5532 79.1031 57.562 79.0797 57.562H77.757ZM82.5426 60.5547C82.528 60.5049 82.5089 60.4888 82.4855 60.5063C82.462 60.521 82.3668 60.5708 82.1998 60.6558C81.652 60.9282 81.1949 61.0645 80.8287 61.0645C80.4625 61.0645 80.1989 60.9473 80.0377 60.7129C79.9791 60.625 79.9498 60.5166 79.9498 60.3877V57.707C79.941 57.6221 79.903 57.5488 79.8356 57.4873C79.7448 57.4111 79.6495 57.3701 79.5499 57.3643C79.4532 57.3584 79.4049 57.3291 79.4049 57.2764C79.4049 57.2207 79.4283 57.187 79.4752 57.1753L80.4816 56.8853C80.5167 56.8735 80.5504 56.8677 80.5826 56.8677C80.6178 56.8677 80.6354 56.8926 80.6354 56.9424V59.8911C80.6354 60.0962 80.7262 60.2544 80.9078 60.3657C81.0895 60.4771 81.3209 60.5327 81.6022 60.5327C81.8864 60.5327 82.1412 60.4463 82.3668 60.2734C82.4371 60.2178 82.4957 60.1562 82.5426 60.0889V57.707C82.5338 57.6221 82.4957 57.5488 82.4283 57.4873C82.3375 57.4111 82.2423 57.3701 82.1427 57.3643C82.046 57.3584 81.9977 57.3291 81.9977 57.2764C81.9977 57.2207 82.0211 57.187 82.068 57.1753L83.0743 56.8853C83.1095 56.8735 83.1432 56.8677 83.1754 56.8677C83.2106 56.8677 83.2281 56.897 83.2281 56.9556V60.0757C83.2428 60.2046 83.2794 60.2969 83.338 60.3525C83.3966 60.4082 83.4918 60.436 83.6237 60.436L83.8785 60.4185C83.8961 60.4185 83.9049 60.436 83.9049 60.4712C83.9049 60.5034 83.8829 60.5298 83.839 60.5503L82.67 61.0337C82.6349 61.0513 82.6041 61.0601 82.5778 61.0601C82.5543 61.0601 82.5426 61.0234 82.5426 60.9502V60.5547ZM87.86 59.311C87.86 59.3491 87.8292 59.3682 87.7677 59.3682C87.7062 59.3682 87.6124 59.229 87.4865 58.9507C87.3634 58.6724 87.3004 58.4673 87.2975 58.3354C87.2946 58.2036 87.3092 58.0938 87.3414 58.0059C87.3766 57.915 87.4235 57.8389 87.4821 57.7773C87.5406 57.7129 87.6095 57.6587 87.6886 57.6147C87.7677 57.5708 87.8512 57.5312 87.9391 57.4961C88.027 57.4609 88.1178 57.4287 88.2115 57.3994C88.3082 57.3672 88.402 57.332 88.4928 57.2939C88.692 57.2119 88.8678 57.0771 89.0201 56.8896C89.1725 56.6992 89.2487 56.5059 89.2487 56.3096C89.2487 55.9521 89.1139 55.7178 88.8444 55.6064C88.5748 55.4922 88.1119 55.4351 87.4557 55.4351C87.2506 55.4233 87.1071 55.3633 87.025 55.2549C86.9957 55.2139 86.9811 55.1626 86.9811 55.1011C86.9811 54.8491 87.2286 54.7231 87.7238 54.7231C88.2218 54.7231 88.6349 54.8843 88.963 55.2065C89.2911 55.5288 89.4552 55.9419 89.4552 56.4458C89.4552 56.9468 89.2443 57.3745 88.8224 57.729C88.6232 57.896 88.4386 58.0073 88.2687 58.063C88.0988 58.1157 87.9728 58.1641 87.8907 58.208C87.6974 58.3076 87.6007 58.4453 87.6007 58.6211C87.6007 58.7119 87.6373 58.8291 87.7106 58.9727C87.7867 59.1162 87.8365 59.229 87.86 59.311ZM87.2579 60.5459C87.2579 60.4082 87.3077 60.2896 87.4073 60.1899C87.507 60.0903 87.6256 60.0405 87.7633 60.0405C87.8981 60.0405 88.0153 60.0903 88.1149 60.1899C88.2145 60.2896 88.2643 60.4082 88.2643 60.5459C88.2643 60.6836 88.2145 60.8037 88.1149 60.9062C88.0182 61.0088 87.901 61.0601 87.7633 61.0601C87.6227 61.0601 87.5026 61.0088 87.403 60.9062C87.3063 60.8037 87.2579 60.6836 87.2579 60.5459Z" fill="#EFB85F"/>
<path d="M17.5002 10L18.696 11.9748L21 13L18.696 14.0249L17.5002 16L16.304 14.0249L14 13L16.304 11.9748L17.5002 10Z" fill="#EFB85F"/>
<path d="M17.5002 86L18.696 87.9748L21 89L18.696 90.0249L17.5002 92L16.304 90.0249L14 89L16.304 87.9748L17.5002 86Z" fill="#EFB85F"/>
<path d="M124.5 84L125.696 85.9748L128 87L125.696 88.0249L124.5 90L123.304 88.0249L121 87L123.304 85.9748L124.5 84Z" fill="#EFB85F"/>
<path d="M80.5002 90L81.696 91.9748L84 93L81.696 94.0249L80.5002 96L79.304 94.0249L77 93L79.304 91.9748L80.5002 90Z" fill="#EFB85F"/>
<path d="M120.5 7L121.696 8.97475L124 10L121.696 11.0249L120.5 13L119.304 11.0249L117 10L119.304 8.97475L120.5 7Z" fill="#EFB85F"/>
<path d="M95.125 16.6259C95.1509 16.3615 95.1942 15.7335 95.2288 15.2377C95.2634 14.6647 95.324 14.3011 95.3932 14.2681C95.4538 14.235 95.7307 14.4113 95.999 14.6537C96.2759 14.9071 96.5182 15.0834 96.5441 15.0504C96.5615 15.0283 96.397 14.6757 96.1807 14.2791C95.9038 13.7943 95.8086 13.5519 95.8865 13.5189C95.9471 13.4968 96.3884 13.4197 96.8643 13.3426C98.3873 13.1222 98.3787 13.001 96.8384 12.7917C96.3019 12.7145 95.8519 12.6154 95.8346 12.5823C95.8086 12.5382 95.973 12.2187 96.1807 11.8661C96.3884 11.5025 96.5441 11.183 96.5182 11.15C96.4922 11.1279 96.2326 11.3152 95.9471 11.5687C95.6528 11.8331 95.3932 11.9984 95.3586 11.9543C95.3154 11.8992 95.2461 11.2381 95.1856 10.4779C95.0298 8.49462 94.9606 8.50564 94.7962 10.5219C94.7356 11.2822 94.6664 11.9433 94.6317 11.9763C94.6058 12.0094 94.3462 11.8331 94.052 11.5797C93.7664 11.3152 93.5155 11.1279 93.4895 11.161C93.4722 11.183 93.602 11.4805 93.7924 11.8111C93.9827 12.1306 94.1385 12.4611 94.1385 12.5272C94.1385 12.6044 93.7664 12.7035 93.1607 12.7917C91.6117 13.001 91.6117 13.1222 93.1693 13.3536C93.7577 13.4417 94.1385 13.5519 94.1385 13.618C94.1385 13.6841 93.9827 14.0147 93.7924 14.3342C93.3857 15.0283 93.351 15.2046 93.6799 14.9292C93.8183 14.83 94.0693 14.6096 94.251 14.4554C94.6664 14.1138 94.701 14.1689 94.7789 15.3589C94.8913 17.1107 95.0211 17.5735 95.125 16.6259Z" fill="#EFB85F"/>
<path d="M39.125 89.6259C39.1509 89.3615 39.1942 88.7335 39.2288 88.2377C39.2634 87.6647 39.324 87.3011 39.3932 87.2681C39.4538 87.235 39.7307 87.4113 39.999 87.6537C40.2759 87.9071 40.5182 88.0834 40.5441 88.0504C40.5615 88.0283 40.397 87.6757 40.1807 87.2791C39.9038 86.7943 39.8086 86.5519 39.8865 86.5189C39.9471 86.4968 40.3884 86.4197 40.8643 86.3426C42.3873 86.1222 42.3787 86.001 40.8384 85.7917C40.3019 85.7145 39.8519 85.6154 39.8346 85.5823C39.8086 85.5382 39.973 85.2187 40.1807 84.8661C40.3884 84.5025 40.5441 84.183 40.5182 84.15C40.4922 84.1279 40.2326 84.3152 39.9471 84.5687C39.6528 84.8331 39.3932 84.9984 39.3586 84.9543C39.3154 84.8992 39.2461 84.2381 39.1856 83.4779C39.0298 81.4946 38.9606 81.5056 38.7962 83.5219C38.7356 84.2822 38.6664 84.9433 38.6317 84.9763C38.6058 85.0094 38.3462 84.8331 38.052 84.5797C37.7664 84.3152 37.5155 84.1279 37.4895 84.161C37.4722 84.183 37.602 84.4805 37.7924 84.8111C37.9827 85.1306 38.1385 85.4611 38.1385 85.5272C38.1385 85.6044 37.7664 85.7035 37.1607 85.7917C35.6117 86.001 35.6117 86.1222 37.1693 86.3536C37.7577 86.4417 38.1385 86.5519 38.1385 86.618C38.1385 86.6841 37.9827 87.0147 37.7924 87.3342C37.3857 88.0283 37.351 88.2046 37.6799 87.9292C37.8183 87.83 38.0693 87.6096 38.251 87.4554C38.6664 87.1138 38.701 87.1689 38.7789 88.3589C38.8913 90.1107 39.0211 90.5735 39.125 89.6259Z" fill="#EFB85F"/>
<path d="M110.125 99.6259C110.151 99.3615 110.194 98.7335 110.229 98.2377C110.263 97.6647 110.324 97.3011 110.393 97.2681C110.454 97.235 110.731 97.4113 110.999 97.6537C111.276 97.9071 111.518 98.0834 111.544 98.0504C111.561 98.0283 111.397 97.6757 111.181 97.2791C110.904 96.7943 110.809 96.5519 110.886 96.5189C110.947 96.4968 111.388 96.4197 111.864 96.3426C113.387 96.1222 113.379 96.001 111.838 95.7917C111.302 95.7145 110.852 95.6154 110.835 95.5823C110.809 95.5382 110.973 95.2187 111.181 94.8661C111.388 94.5025 111.544 94.183 111.518 94.15C111.492 94.1279 111.233 94.3152 110.947 94.5687C110.653 94.8331 110.393 94.9984 110.359 94.9543C110.315 94.8992 110.246 94.2381 110.186 93.4779C110.03 91.4946 109.961 91.5056 109.796 93.5219C109.736 94.2822 109.666 94.9433 109.632 94.9763C109.606 95.0094 109.346 94.8331 109.052 94.5797C108.766 94.3152 108.515 94.1279 108.489 94.161C108.472 94.183 108.602 94.4805 108.792 94.8111C108.983 95.1306 109.138 95.4611 109.138 95.5272C109.138 95.6044 108.766 95.7035 108.161 95.7917C106.612 96.001 106.612 96.1222 108.169 96.3536C108.758 96.4417 109.138 96.5519 109.138 96.618C109.138 96.6841 108.983 97.0147 108.792 97.3342C108.386 98.0283 108.351 98.2046 108.68 97.9292C108.818 97.83 109.069 97.6096 109.251 97.4554C109.666 97.1138 109.701 97.1689 109.779 98.3589C109.891 100.111 110.021 100.573 110.125 99.6259Z" fill="#EFB85F"/>
<path d="M53.125 12.6259C53.1509 12.3615 53.1942 11.7335 53.2288 11.2377C53.2634 10.6647 53.324 10.3011 53.3932 10.2681C53.4538 10.235 53.7307 10.4113 53.999 10.6537C54.2759 10.9071 54.5182 11.0834 54.5441 11.0504C54.5615 11.0283 54.397 10.6757 54.1807 10.2791C53.9038 9.7943 53.8086 9.55191 53.8865 9.51885C53.9471 9.49682 54.3884 9.41969 54.8643 9.34256C56.3873 9.1222 56.3787 9.001 54.8384 8.79166C54.3019 8.71453 53.8519 8.61537 53.8346 8.58232C53.8086 8.53825 53.973 8.21872 54.1807 7.86614C54.3884 7.50255 54.5441 7.18302 54.5182 7.14997C54.4922 7.12793 54.2326 7.31524 53.9471 7.56866C53.6528 7.83309 53.3932 7.99836 53.3586 7.95429C53.3154 7.8992 53.2461 7.23811 53.1856 6.47787C53.0298 4.49462 52.9606 4.50564 52.7962 6.52194C52.7356 7.28219 52.6664 7.94327 52.6317 7.97632C52.6058 8.00938 52.3462 7.83309 52.052 7.57967C51.7664 7.31524 51.5155 7.12793 51.4895 7.16099C51.4722 7.18302 51.602 7.48051 51.7924 7.81105C51.9827 8.13058 52.1385 8.46112 52.1385 8.52723C52.1385 8.60435 51.7664 8.70352 51.1607 8.79166C49.6117 9.001 49.6117 9.1222 51.1693 9.35358C51.7577 9.44173 52.1385 9.55191 52.1385 9.61802C52.1385 9.68412 51.9827 10.0147 51.7924 10.3342C51.3857 11.0283 51.351 11.2046 51.6799 10.9292C51.8183 10.83 52.0693 10.6096 52.251 10.4554C52.6664 10.1138 52.701 10.1689 52.7789 11.3589C52.8913 13.1107 53.0211 13.5735 53.125 12.6259Z" fill="#EFB85F"/>
<circle cx="26" cy="81" r="1" fill="#EFB85F"/>
<circle cx="57" cy="96" r="1" fill="#EFB85F"/>
<circle cx="111" cy="84" r="1" fill="#EFB85F"/>
<circle cx="139" cy="16" r="1" fill="#EFB85F"/>
<circle cx="143" cy="55" r="1" fill="#EFB85F"/>
<circle cx="139" cy="93" r="1" fill="#EFB85F"/>
<circle cx="36" cy="10" r="1" fill="#EFB85F"/>
<circle cx="75" cy="6" r="1" fill="#EFB85F"/>
<path d="M30.1536 96.762L33.0001 96.6487L30.1536 96.5354L31.0464 95.3761L30.0932 96.4619L30 93L29.9069 96.4619L28.9537 95.3761L29.8465 96.5354L27 96.6487L29.8465 96.762L28.9537 97.9212L29.9069 96.8354L30 100.297L30.0932 96.8354L31.0464 97.9212L30.1536 96.762Z" fill="#EFB85F"/>
<path d="M11.1536 76.762L14.0001 76.6487L11.1536 76.5354L12.0464 75.3761L11.0932 76.4619L11 73L10.9069 76.4619L9.95375 75.3761L10.8465 76.5354L8 76.6487L10.8465 76.762L9.95375 77.9212L10.9069 76.8354L11 80.2973L11.0932 76.8354L12.0464 77.9212L11.1536 76.762Z" fill="#EFB85F"/>
<path d="M68.1536 11.762L71.0001 11.6487L68.1536 11.5354L69.0464 10.3761L68.0932 11.4619L68 8L67.9069 11.4619L66.9537 10.3761L67.8465 11.5354L65 11.6487L67.8465 11.762L66.9537 12.9212L67.9069 11.8354L68 15.2973L68.0932 11.8354L69.0464 12.9212L68.1536 11.762Z" fill="#EFB85F"/>
<path d="M137.154 76.762L140 76.6487L137.154 76.5354L138.046 75.3761L137.093 76.4619L137 73L136.907 76.4619L135.954 75.3761L136.847 76.5354L134 76.6487L136.847 76.762L135.954 77.9212L136.907 76.8354L137 80.2973L137.093 76.8354L138.046 77.9212L137.154 76.762Z" fill="#EFB85F"/>
<path d="M129.154 95.762L132 95.6487L129.154 95.5354L130.046 94.3761L129.093 95.4619L129 92L128.907 95.4619L127.954 94.3761L128.847 95.5354L126 95.6487L128.847 95.762L127.954 96.9212L128.907 95.8354L129 99.2973L129.093 95.8354L130.046 96.9212L129.154 95.762Z" fill="#EFB85F"/>
<path d="M8.15357 18.762L11.0001 18.6487L8.15357 18.5354L9.04635 17.3761L8.09316 18.4619L8.00005 15L7.90694 18.4619L6.95375 17.3761L7.84653 18.5354L5 18.6487L7.84653 18.762L6.95375 19.9212L7.90694 18.8354L8.00005 22.2973L8.09316 18.8354L9.04635 19.9212L8.15357 18.762Z" fill="#EFB85F"/>
</svg>
