<svg width="148" height="105" viewBox="0 0 148 105" fill="none" xmlns="http://www.w3.org/2000/svg">
<rect width="147.402" height="104.882" rx="10" fill="black"/>
<path d="M15.1315 42.2515C14.5846 42.2515 14.3112 42.4696 14.3112 42.9058V46.4019C14.3112 47.0464 14.5244 47.5737 14.9508 47.9839C15.3772 48.3908 15.9241 48.5942 16.5914 48.5942C17.2848 48.5942 17.8528 48.4087 18.2955 48.0376C18.7415 47.6632 18.9645 47.1457 18.9645 46.4849V43.3794C18.9645 43.0701 18.9368 42.8553 18.8815 42.7349C18.7415 42.4126 18.4257 42.2515 17.9342 42.2515C17.9082 42.2515 17.8951 42.2384 17.8951 42.2124V42.0952C17.8951 42.0692 17.9082 42.0562 17.9342 42.0562H20.3365C20.3626 42.0562 20.3756 42.0692 20.3756 42.0952V42.2124C20.3756 42.2384 20.3398 42.2515 20.2682 42.2515C19.8418 42.2515 19.5813 42.4175 19.4869 42.7495C19.4707 42.8049 19.4625 42.8569 19.4625 42.9058V46.104C19.4625 47.533 18.9156 48.4526 17.8219 48.8628C17.4541 49.0028 17.0878 49.0728 16.7233 49.0728C15.4179 49.0728 14.456 48.731 13.8375 48.0474C13.5185 47.6958 13.359 47.2612 13.359 46.7437V42.8374C13.359 42.5607 13.1914 42.3784 12.8561 42.2905C12.7584 42.2645 12.6754 42.2515 12.6071 42.2515C12.5387 42.2515 12.5045 42.2384 12.5045 42.2124V42.0952C12.5045 42.0692 12.5159 42.0562 12.5387 42.0562H15.1852C15.2112 42.0562 15.2242 42.0692 15.2242 42.0952V42.2124C15.2242 42.2384 15.1933 42.2515 15.1315 42.2515ZM24.4186 47.4028L24.4088 46.3726C24.4088 45.9526 24.373 45.658 24.3014 45.4888C24.2298 45.3195 24.1386 45.1925 24.028 45.1079C23.9173 45.02 23.7675 44.9761 23.5787 44.9761C23.3932 44.9761 22.9977 45.1226 22.3922 45.4155C22.3108 45.4644 22.2685 45.5099 22.2653 45.5522V48.1792C22.2653 48.508 22.441 48.6968 22.7926 48.7456C22.9456 48.7684 23.0221 48.8058 23.0221 48.8579C23.0221 48.9067 23.0058 48.9344 22.9733 48.9409H20.7955C20.763 48.9344 20.7467 48.9116 20.7467 48.8726C20.7467 48.8107 20.8232 48.7684 20.9762 48.7456C21.3278 48.6968 21.5035 48.508 21.5035 48.1792V45.3765C21.5035 45.2397 21.4287 45.1453 21.2789 45.0933C21.2138 45.0705 21.1438 45.0526 21.069 45.0396C20.9941 45.0233 20.9339 45.0086 20.8883 44.9956C20.846 44.9826 20.8183 44.9712 20.8053 44.9614C20.7955 44.9484 20.7906 44.924 20.7906 44.8882C20.7906 44.8491 20.8151 44.8166 20.8639 44.7905L22.109 44.2046C22.1481 44.1851 22.1725 44.1753 22.1823 44.1753C22.2376 44.1753 22.2653 44.2144 22.2653 44.2925V45.0542C22.275 45.0868 22.288 45.103 22.3043 45.103C22.3239 45.103 22.3938 45.0737 22.5143 45.0151C22.7942 44.8752 23.0758 44.7401 23.359 44.6099C23.6422 44.4797 23.8766 44.4146 24.0621 44.4146C24.8141 44.4146 25.1901 45.0998 25.1901 46.4702L25.1461 47.896V48.1792C25.1461 48.4331 25.2731 48.5991 25.527 48.6772C25.6344 48.7131 25.7369 48.7391 25.8346 48.7554C25.9355 48.7684 26.0006 48.7814 26.0299 48.7944C26.0625 48.8075 26.0787 48.8335 26.0787 48.8726C26.0787 48.9116 26.0625 48.9344 26.0299 48.9409H23.6764C23.6438 48.9344 23.6276 48.9116 23.6276 48.8726C23.6276 48.8107 23.7041 48.7684 23.8571 48.7456C24.2054 48.6968 24.3795 48.495 24.3795 48.1401C24.4056 47.9774 24.4186 47.7316 24.4186 47.4028ZM32.861 44.8833C32.861 44.8833 33.2972 44.8638 34.1696 44.8247C34.2444 44.8247 34.2933 44.8328 34.316 44.8491C34.3388 44.8654 34.3632 44.9224 34.3893 45.02C34.4153 45.1144 34.4283 45.2039 34.4283 45.2886C34.4283 45.3732 34.4202 45.422 34.4039 45.4351C34.3877 45.4481 34.3551 45.4546 34.3063 45.4546H33.2223C33.2418 45.4904 33.263 45.5278 33.2858 45.5669C33.3086 45.606 33.3378 45.6711 33.3737 45.7622C33.4095 45.8534 33.4274 45.995 33.4274 46.187C33.4274 46.3758 33.3802 46.5744 33.2858 46.7827C33.1946 46.9878 33.0595 47.1701 32.8805 47.3296C32.4834 47.6877 31.969 47.8667 31.3375 47.8667C31.1715 47.8667 30.9892 47.8358 30.7906 47.7739C30.7418 47.826 30.6767 47.8748 30.5953 47.9204C30.514 47.9627 30.4342 48.0067 30.3561 48.0522C30.1608 48.1629 30.0631 48.2736 30.0631 48.3843C30.0631 48.661 30.5221 48.8026 31.4401 48.8091C32.358 48.8156 32.9602 48.8465 33.2467 48.9019C33.5364 48.9539 33.761 49.0597 33.9205 49.2192C34.1712 49.4699 34.2965 49.7563 34.2965 50.0786C34.2965 50.3553 34.1777 50.6401 33.9401 50.9331C33.5267 51.4507 32.8951 51.7957 32.0455 51.9683C31.7428 52.0301 31.4222 52.061 31.0836 52.061C30.4684 52.061 30.0013 51.9487 29.6823 51.7241C29.3632 51.5028 29.2037 51.2342 29.2037 50.9185C29.2037 50.7459 29.2444 50.6027 29.3258 50.4888C29.4072 50.3781 29.5097 50.2723 29.6334 50.1714C29.7604 50.0737 29.8987 49.9696 30.0485 49.8589C30.1982 49.7515 30.3414 49.6131 30.4781 49.4438C30.1656 49.4178 29.8971 49.3185 29.6725 49.146C29.4511 48.9735 29.3405 48.8042 29.3405 48.6382C29.3405 48.4722 29.3844 48.3501 29.4723 48.272C29.5602 48.1906 29.6676 48.1222 29.7946 48.0669C29.9215 48.0083 30.055 47.9546 30.1949 47.9058C30.3349 47.8569 30.457 47.7935 30.5612 47.7153C30.1966 47.5721 29.915 47.3752 29.7164 47.1245C29.5179 46.8706 29.4186 46.5939 29.4186 46.2944C29.4186 45.7378 29.6204 45.2837 30.024 44.9321C30.4309 44.5806 30.9209 44.4048 31.4938 44.4048C32.0667 44.4048 32.5224 44.5643 32.861 44.8833ZM30.2047 49.9761C30.1298 50.0509 30.068 50.1307 30.0192 50.2153C29.9703 50.3 29.9459 50.4058 29.9459 50.5327C29.9459 50.6629 29.9915 50.798 30.0826 50.938C30.177 51.0812 30.304 51.2098 30.4635 51.3237C30.8151 51.5841 31.2382 51.7144 31.733 51.7144C32.2278 51.7144 32.6754 51.5695 33.0758 51.2798C33.4795 50.9933 33.6813 50.6776 33.6813 50.3325C33.6813 49.9907 33.5153 49.7612 33.1832 49.644C33.027 49.592 32.625 49.5594 31.9772 49.5464C31.3294 49.5334 30.9095 49.5155 30.7174 49.4927C30.6328 49.5903 30.5449 49.6766 30.4537 49.7515C30.3658 49.8263 30.2828 49.9012 30.2047 49.9761ZM32.6266 46.1821C32.6266 45.7231 32.511 45.3504 32.2799 45.064C32.052 44.7743 31.7493 44.6294 31.3717 44.6294C30.8834 44.6294 30.5384 44.8589 30.3365 45.3179C30.2584 45.4937 30.2194 45.6955 30.2194 45.9233C30.2194 46.3888 30.3154 46.7762 30.5074 47.0854C30.7418 47.4565 31.0494 47.6421 31.4303 47.6421C31.8112 47.6421 32.1058 47.5135 32.3141 47.2563C32.5224 46.9992 32.6266 46.6411 32.6266 46.1821ZM37.8268 48.1353C37.8268 48.2199 37.8658 48.2882 37.944 48.3403C38.0253 48.3892 38.1181 48.4136 38.2223 48.4136C38.3265 48.4136 38.4127 48.3875 38.4811 48.3354C38.5527 48.2801 38.6015 48.2524 38.6276 48.2524C38.6536 48.2524 38.6666 48.2882 38.6666 48.3599C38.6666 48.4282 38.6341 48.4868 38.569 48.5356C38.0807 48.8937 37.7503 49.0728 37.5778 49.0728C37.3694 49.0728 37.2002 48.8563 37.0699 48.4233C37.0602 48.3908 37.052 48.3761 37.0455 48.3794C36.6419 48.6821 36.388 48.8644 36.2838 48.9263C36.0169 49.0793 35.7483 49.1037 35.4781 48.9995C35.2112 48.8953 35.0175 48.7228 34.8971 48.4819C34.8385 48.3582 34.8092 48.2264 34.8092 48.0864C34.8092 47.8097 34.9117 47.59 35.1168 47.4272C35.3219 47.2645 35.7125 47.1082 36.2887 46.9585C36.484 46.9064 36.6582 46.8397 36.8112 46.7583C36.9642 46.6769 37.0439 46.6248 37.0504 46.6021C37.0602 46.5793 37.0651 46.5581 37.0651 46.5386V45.6011C37.0651 45.2332 36.9218 44.9744 36.6354 44.8247C36.541 44.7759 36.427 44.7515 36.2936 44.7515C36.1634 44.7515 36.0299 44.8035 35.8932 44.9077C35.7597 45.0119 35.693 45.16 35.693 45.3521L35.7174 45.5425C35.6979 45.5815 35.5807 45.6466 35.3658 45.7378C35.151 45.8289 35.0273 45.8778 34.9948 45.8843C34.9427 45.8843 34.9166 45.8224 34.9166 45.6987C34.9166 45.5718 34.9541 45.4318 35.0289 45.2788C35.1038 45.1258 35.2096 44.9858 35.3463 44.8589C35.6653 44.5627 36.0299 44.4146 36.4401 44.4146C36.8502 44.4146 37.1839 44.5285 37.441 44.7563C37.6982 44.981 37.8268 45.2495 37.8268 45.562V48.1353ZM35.5758 47.9937C35.5758 48.1499 35.636 48.2866 35.7565 48.4038C35.8769 48.5177 36.0136 48.5747 36.1666 48.5747C36.3229 48.5747 36.5117 48.5096 36.733 48.3794C36.9544 48.2459 37.0651 48.1092 37.0651 47.9692V46.978C37.0651 46.9422 37.0569 46.9243 37.0406 46.9243C37.0244 46.9243 37.013 46.9259 37.0065 46.9292L35.8737 47.4565C35.7565 47.5412 35.6767 47.6128 35.6344 47.6714C35.5953 47.73 35.5758 47.8374 35.5758 47.9937ZM40.3268 44.854C40.3268 44.9549 40.3496 45.0054 40.3951 45.0054C40.444 45.0054 40.6523 44.8996 41.0201 44.688C41.4498 44.5057 41.777 44.4146 42.0016 44.4146C42.2262 44.4146 42.441 44.4797 42.6461 44.6099C42.8512 44.7401 43.0253 44.911 43.1686 45.1226C43.4713 45.5588 43.6227 46.0877 43.6227 46.7095C43.6227 47.3312 43.4062 47.8813 42.9733 48.3599C42.5436 48.8351 41.9755 49.0728 41.2692 49.0728C40.8102 49.0728 40.387 49.0174 39.9996 48.9067C39.8857 48.8742 39.788 48.8481 39.7067 48.8286C39.6285 48.8091 39.5846 48.7896 39.5748 48.77C39.5683 48.7472 39.5651 48.7212 39.5651 48.6919V42.1099C39.5651 41.9731 39.4902 41.8787 39.3405 41.8267C39.2753 41.8039 39.2054 41.786 39.1305 41.7729C39.0556 41.7567 38.9954 41.742 38.9498 41.729C38.9075 41.716 38.8798 41.7046 38.8668 41.6948C38.8571 41.6818 38.8522 41.6574 38.8522 41.6216C38.8522 41.5825 38.8766 41.55 38.9254 41.5239L40.1705 40.938C40.2096 40.9185 40.234 40.9087 40.2438 40.9087C40.2991 40.9087 40.3268 40.9478 40.3268 41.0259V44.854ZM41.3619 45.0103C41.0722 45.0103 40.7467 45.1144 40.3854 45.3228C40.3463 45.3455 40.3268 45.3846 40.3268 45.4399V47.7495C40.3593 48.0457 40.4879 48.2769 40.7125 48.4429C40.9371 48.6089 41.1829 48.6919 41.4498 48.6919C41.9186 48.6919 42.2799 48.5063 42.5338 48.1353C42.791 47.7642 42.9196 47.341 42.9196 46.8657C42.9196 46.3905 42.7893 45.9624 42.5289 45.5815C42.2685 45.2007 41.8795 45.0103 41.3619 45.0103ZM47.524 48.1353C47.524 48.2199 47.5631 48.2882 47.6412 48.3403C47.7226 48.3892 47.8154 48.4136 47.9196 48.4136C48.0237 48.4136 48.11 48.3875 48.1783 48.3354C48.25 48.2801 48.2988 48.2524 48.3248 48.2524C48.3509 48.2524 48.3639 48.2882 48.3639 48.3599C48.3639 48.4282 48.3313 48.4868 48.2662 48.5356C47.778 48.8937 47.4476 49.0728 47.275 49.0728C47.0667 49.0728 46.8974 48.8563 46.7672 48.4233C46.7574 48.3908 46.7493 48.3761 46.7428 48.3794C46.3392 48.6821 46.0852 48.8644 45.9811 48.9263C45.7142 49.0793 45.4456 49.1037 45.1754 48.9995C44.9085 48.8953 44.7148 48.7228 44.5944 48.4819C44.5358 48.3582 44.5065 48.2264 44.5065 48.0864C44.5065 47.8097 44.609 47.59 44.8141 47.4272C45.0192 47.2645 45.4098 47.1082 45.986 46.9585C46.1813 46.9064 46.3554 46.8397 46.5084 46.7583C46.6614 46.6769 46.7412 46.6248 46.7477 46.6021C46.7574 46.5793 46.7623 46.5581 46.7623 46.5386V45.6011C46.7623 45.2332 46.6191 44.9744 46.3326 44.8247C46.2382 44.7759 46.1243 44.7515 45.9908 44.7515C45.8606 44.7515 45.7272 44.8035 45.5905 44.9077C45.457 45.0119 45.3903 45.16 45.3903 45.3521L45.4147 45.5425C45.3951 45.5815 45.278 45.6466 45.0631 45.7378C44.8483 45.8289 44.7246 45.8778 44.692 45.8843C44.6399 45.8843 44.6139 45.8224 44.6139 45.6987C44.6139 45.5718 44.6513 45.4318 44.7262 45.2788C44.8011 45.1258 44.9069 44.9858 45.0436 44.8589C45.3626 44.5627 45.7272 44.4146 46.1373 44.4146C46.5475 44.4146 46.8811 44.5285 47.1383 44.7563C47.3955 44.981 47.524 45.2495 47.524 45.562V48.1353ZM45.2731 47.9937C45.2731 48.1499 45.3333 48.2866 45.4537 48.4038C45.5742 48.5177 45.7109 48.5747 45.8639 48.5747C46.0201 48.5747 46.2089 48.5096 46.4303 48.3794C46.6517 48.2459 46.7623 48.1092 46.7623 47.9692V46.978C46.7623 46.9422 46.7542 46.9243 46.7379 46.9243C46.7216 46.9243 46.7102 46.9259 46.7037 46.9292L45.5709 47.4565C45.4537 47.5412 45.374 47.6128 45.3317 47.6714C45.2926 47.73 45.2731 47.8374 45.2731 47.9937ZM51.8014 45.4399C51.7623 45.4334 51.7054 45.4123 51.6305 45.3765C51.3603 45.2528 51.1487 45.1909 50.9957 45.1909C50.8427 45.1909 50.6816 45.2869 50.5123 45.479C50.3463 45.6678 50.2633 45.8387 50.2633 45.9917V48.1987C50.2633 48.4429 50.4049 48.6056 50.6881 48.687C50.8118 48.7196 50.9274 48.744 51.0348 48.7603C51.1422 48.7733 51.2106 48.7863 51.2399 48.7993C51.2724 48.8123 51.2887 48.8384 51.2887 48.8774C51.2887 48.9132 51.2724 48.9344 51.2399 48.9409H48.7936C48.761 48.9344 48.7448 48.9116 48.7448 48.8726C48.7448 48.814 48.8212 48.7749 48.9742 48.7554C49.3258 48.7033 49.5016 48.5177 49.5016 48.1987V45.6157C49.5016 45.479 49.4267 45.3846 49.277 45.3325C49.2119 45.3097 49.1419 45.2918 49.067 45.2788C48.9921 45.2625 48.9319 45.2479 48.8864 45.2349C48.844 45.2218 48.8164 45.2104 48.8033 45.2007C48.7936 45.1877 48.7887 45.1632 48.7887 45.1274C48.7887 45.0884 48.8131 45.0558 48.8619 45.0298L50.1071 44.4438C50.1461 44.4243 50.1705 44.4146 50.1803 44.4146C50.2356 44.4146 50.2633 44.4536 50.2633 44.5317V45.3228C50.2633 45.3618 50.2731 45.3813 50.2926 45.3813C50.3186 45.3813 50.3854 45.3049 50.4928 45.1519C50.802 44.7189 51.0576 44.5024 51.2594 44.5024C51.3733 44.5024 51.5475 44.548 51.7819 44.6392C52.0195 44.7303 52.1383 44.8068 52.1383 44.8687C52.1383 44.9435 52.1009 45.0575 52.026 45.2104C51.9511 45.3634 51.8763 45.4399 51.8014 45.4399ZM52.485 48.9409C52.4524 48.9344 52.4362 48.9116 52.4362 48.8726C52.4362 48.814 52.5127 48.7749 52.6656 48.7554C53.0172 48.7033 53.193 48.5177 53.193 48.1987V45.6157C53.193 45.479 53.1181 45.3846 52.9684 45.3325C52.9033 45.3097 52.8333 45.2918 52.7584 45.2788C52.6836 45.2625 52.6233 45.2479 52.5778 45.2349C52.5354 45.2218 52.5078 45.2104 52.4948 45.2007C52.485 45.1877 52.4801 45.1632 52.4801 45.1274C52.4801 45.0884 52.5045 45.0558 52.5533 45.0298L53.7985 44.4438C53.8375 44.4243 53.8619 44.4146 53.8717 44.4146C53.927 44.4146 53.9547 44.4536 53.9547 44.5317V48.1987C53.9547 48.5177 54.1305 48.7033 54.4821 48.7554C54.6351 48.7749 54.7115 48.8091 54.7115 48.8579C54.7115 48.9067 54.6953 48.9344 54.6627 48.9409H52.485ZM53.5006 43.0425C53.3671 43.0425 53.2483 43.0002 53.1442 42.9155C53.0433 42.8309 52.9928 42.7137 52.9928 42.564C52.9928 42.411 53.0416 42.2905 53.1393 42.2026C53.2369 42.1147 53.3525 42.0708 53.486 42.0708C53.6227 42.0708 53.7366 42.1229 53.8278 42.2271C53.9222 42.3312 53.9694 42.4435 53.9694 42.564C53.9694 42.6844 53.9254 42.7951 53.8375 42.896C53.7496 42.9937 53.6373 43.0425 53.5006 43.0425ZM56.0836 46.3677C56.0283 46.3677 56.0006 46.4865 56.0006 46.7241C56.0006 47.2287 56.1503 47.6519 56.4498 47.9937C56.7493 48.3354 57.1204 48.5063 57.5631 48.5063C58.0091 48.5063 58.4371 48.3143 58.8473 47.9302C58.8538 47.9237 58.8619 47.9204 58.8717 47.9204H58.8961C58.9156 47.9204 58.9336 47.9367 58.9498 47.9692C58.9694 47.9985 58.9873 48.0181 59.0035 48.0278C58.6259 48.4868 58.1816 48.8042 57.6705 48.98C57.4948 49.0418 57.2962 49.0728 57.0748 49.0728C56.8535 49.0728 56.6289 49.0125 56.401 48.8921C56.1731 48.7684 55.9778 48.6073 55.8151 48.4087C55.47 47.9953 55.2975 47.481 55.2975 46.8657C55.2975 46.2472 55.4847 45.6841 55.859 45.1763C56.2366 44.6685 56.7542 44.4146 57.4117 44.4146C57.8837 44.4146 58.2695 44.6261 58.569 45.0493C58.8684 45.4692 59.0182 45.8387 59.0182 46.1577C59.0182 46.2977 58.984 46.3677 58.9156 46.3677H56.0836ZM56.1373 45.8989C56.1373 45.9608 56.1666 45.9917 56.2252 45.9917H58.066C58.1507 45.9917 58.193 45.9412 58.193 45.8403C58.193 45.606 58.0872 45.3667 57.8756 45.1226C57.6673 44.8752 57.4378 44.7515 57.1871 44.7515C56.943 44.7515 56.72 44.8621 56.5182 45.0835C56.3196 45.3049 56.1927 45.5571 56.1373 45.8403V45.8989ZM63.3102 46.3677C63.2548 46.3677 63.2272 46.4865 63.2272 46.7241C63.2272 47.2287 63.3769 47.6519 63.6764 47.9937C63.9759 48.3354 64.347 48.5063 64.7897 48.5063C65.2356 48.5063 65.6637 48.3143 66.0739 47.9302C66.0804 47.9237 66.0885 47.9204 66.0983 47.9204H66.1227C66.1422 47.9204 66.1601 47.9367 66.1764 47.9692C66.1959 47.9985 66.2138 48.0181 66.2301 48.0278C65.8525 48.4868 65.4082 48.8042 64.8971 48.98C64.7213 49.0418 64.5227 49.0728 64.3014 49.0728C64.08 49.0728 63.8554 49.0125 63.6276 48.8921C63.3997 48.7684 63.2044 48.6073 63.0416 48.4087C62.6966 47.9953 62.524 47.481 62.524 46.8657C62.524 46.2472 62.7112 45.6841 63.0856 45.1763C63.4632 44.6685 63.9808 44.4146 64.6383 44.4146C65.1103 44.4146 65.4961 44.6261 65.7955 45.0493C66.095 45.4692 66.2448 45.8387 66.2448 46.1577C66.2448 46.2977 66.2106 46.3677 66.1422 46.3677H63.3102ZM63.3639 45.8989C63.3639 45.9608 63.3932 45.9917 63.4518 45.9917H65.2926C65.3772 45.9917 65.4196 45.9412 65.4196 45.8403C65.4196 45.606 65.3138 45.3667 65.1022 45.1226C64.8938 44.8752 64.6643 44.7515 64.4137 44.7515C64.1696 44.7515 63.9466 44.8621 63.7448 45.0835C63.5462 45.3049 63.4192 45.5571 63.3639 45.8403V45.8989ZM70.649 47.4028L70.6393 46.3726C70.6393 45.9526 70.6035 45.658 70.5319 45.4888C70.4602 45.3195 70.3691 45.1925 70.2584 45.1079C70.1477 45.02 69.998 44.9761 69.8092 44.9761C69.6237 44.9761 69.2281 45.1226 68.6227 45.4155C68.5413 45.4644 68.499 45.5099 68.4957 45.5522V48.1792C68.4957 48.508 68.6715 48.6968 69.0231 48.7456C69.1761 48.7684 69.2526 48.8058 69.2526 48.8579C69.2526 48.9067 69.2363 48.9344 69.2037 48.9409H67.026C66.9934 48.9344 66.9772 48.9116 66.9772 48.8726C66.9772 48.8107 67.0537 48.7684 67.2067 48.7456C67.5582 48.6968 67.734 48.508 67.734 48.1792V45.3765C67.734 45.2397 67.6591 45.1453 67.5094 45.0933C67.4443 45.0705 67.3743 45.0526 67.2994 45.0396C67.2246 45.0233 67.1643 45.0086 67.1188 44.9956C67.0765 44.9826 67.0488 44.9712 67.0358 44.9614C67.026 44.9484 67.0211 44.924 67.0211 44.8882C67.0211 44.8491 67.0455 44.8166 67.0944 44.7905L68.3395 44.2046C68.3785 44.1851 68.403 44.1753 68.4127 44.1753C68.4681 44.1753 68.4957 44.2144 68.4957 44.2925V45.0542C68.5055 45.0868 68.5185 45.103 68.5348 45.103C68.5543 45.103 68.6243 45.0737 68.7448 45.0151C69.0247 44.8752 69.3063 44.7401 69.5895 44.6099C69.8727 44.4797 70.1071 44.4146 70.2926 44.4146C71.0446 44.4146 71.4205 45.0998 71.4205 46.4702L71.3766 47.896V48.1792C71.3766 48.4331 71.5035 48.5991 71.7574 48.6772C71.8649 48.7131 71.9674 48.7391 72.0651 48.7554C72.166 48.7684 72.2311 48.7814 72.2604 48.7944C72.2929 48.8075 72.3092 48.8335 72.3092 48.8726C72.3092 48.9116 72.2929 48.9344 72.2604 48.9409H69.9069C69.8743 48.9344 69.858 48.9116 69.858 48.8726C69.858 48.8107 69.9345 48.7684 70.0875 48.7456C70.4358 48.6968 70.61 48.495 70.61 48.1401C70.636 47.9774 70.649 47.7316 70.649 47.4028ZM76.6256 44.854C76.6256 44.9549 76.6484 45.0054 76.694 45.0054C76.7428 45.0054 76.9511 44.8996 77.319 44.688C77.7487 44.5057 78.0758 44.4146 78.3004 44.4146C78.525 44.4146 78.7399 44.4797 78.9449 44.6099C79.15 44.7401 79.3242 44.911 79.4674 45.1226C79.7701 45.5588 79.9215 46.0877 79.9215 46.7095C79.9215 47.3312 79.705 47.8813 79.2721 48.3599C78.8424 48.8351 78.2744 49.0728 77.568 49.0728C77.109 49.0728 76.6858 49.0174 76.2985 48.9067C76.1845 48.8742 76.0869 48.8481 76.0055 48.8286C75.9274 48.8091 75.8834 48.7896 75.8737 48.77C75.8671 48.7472 75.8639 48.7212 75.8639 48.6919V42.1099C75.8639 41.9731 75.789 41.8787 75.6393 41.8267C75.5742 41.8039 75.5042 41.786 75.4293 41.7729C75.3545 41.7567 75.2942 41.742 75.2487 41.729C75.2063 41.716 75.1787 41.7046 75.1656 41.6948C75.1559 41.6818 75.151 41.6574 75.151 41.6216C75.151 41.5825 75.1754 41.55 75.2242 41.5239L76.4694 40.938C76.5084 40.9185 76.5328 40.9087 76.5426 40.9087C76.5979 40.9087 76.6256 40.9478 76.6256 41.0259V44.854ZM77.6608 45.0103C77.3711 45.0103 77.0455 45.1144 76.6842 45.3228C76.6451 45.3455 76.6256 45.3846 76.6256 45.4399V47.7495C76.6582 48.0457 76.7867 48.2769 77.0114 48.4429C77.236 48.6089 77.4817 48.6919 77.7487 48.6919C78.2174 48.6919 78.5787 48.5063 78.8326 48.1353C79.0898 47.7642 79.2184 47.341 79.2184 46.8657C79.2184 46.3905 79.0882 45.9624 78.8278 45.5815C78.5673 45.2007 78.1783 45.0103 77.6608 45.0103ZM80.8297 46.7485C80.8297 46.1073 81.0559 45.5571 81.5084 45.0981C81.9642 44.6359 82.5094 44.4048 83.1442 44.4048C83.7789 44.4048 84.3307 44.6294 84.7994 45.0786C85.2682 45.5246 85.5026 46.0763 85.5026 46.7339C85.5026 47.3914 85.2796 47.9465 84.8336 48.3989C84.3909 48.8481 83.8343 49.0728 83.1637 49.0728C82.4931 49.0728 81.9365 48.8449 81.4938 48.3892C81.0511 47.9334 80.8297 47.3866 80.8297 46.7485ZM82.0455 48.0034C82.3645 48.5405 82.7991 48.8091 83.3492 48.8091C83.7757 48.8091 84.1012 48.6382 84.3258 48.2964C84.5537 47.9546 84.6676 47.5347 84.6676 47.0366C84.6676 46.5386 84.5081 46.0275 84.1891 45.5034C83.8733 44.9793 83.4469 44.7173 82.9098 44.7173C82.5159 44.7173 82.205 44.8882 81.9772 45.23C81.7526 45.5685 81.6403 45.9998 81.6403 46.5239C81.6403 47.0448 81.7753 47.5379 82.0455 48.0034ZM86.2155 48.9409C86.1829 48.9344 86.1666 48.9116 86.1666 48.8726C86.1666 48.814 86.2431 48.7749 86.3961 48.7554C86.7477 48.7033 86.9235 48.5177 86.9235 48.1987V45.6157C86.9235 45.479 86.8486 45.3846 86.6989 45.3325C86.6337 45.3097 86.5638 45.2918 86.4889 45.2788C86.414 45.2625 86.3538 45.2479 86.3082 45.2349C86.2659 45.2218 86.2382 45.2104 86.2252 45.2007C86.2155 45.1877 86.2106 45.1632 86.2106 45.1274C86.2106 45.0884 86.235 45.0558 86.2838 45.0298L87.5289 44.4438C87.568 44.4243 87.5924 44.4146 87.6022 44.4146C87.6575 44.4146 87.6852 44.4536 87.6852 44.5317V48.1987C87.6852 48.5177 87.861 48.7033 88.2125 48.7554C88.3655 48.7749 88.442 48.8091 88.442 48.8579C88.442 48.9067 88.4257 48.9344 88.3932 48.9409H86.2155ZM87.2311 43.0425C87.0976 43.0425 86.9788 43.0002 86.8746 42.9155C86.7737 42.8309 86.7233 42.7137 86.7233 42.564C86.7233 42.411 86.7721 42.2905 86.8698 42.2026C86.9674 42.1147 87.083 42.0708 87.2164 42.0708C87.3531 42.0708 87.4671 42.1229 87.5582 42.2271C87.6526 42.3312 87.6998 42.4435 87.6998 42.564C87.6998 42.6844 87.6559 42.7951 87.568 42.896C87.4801 42.9937 87.3678 43.0425 87.2311 43.0425ZM91.3961 45.6011C91.3961 45.6727 91.3684 45.7085 91.3131 45.7085C91.261 45.7085 91.2203 45.6694 91.191 45.5913C91.1129 45.3765 90.9957 45.186 90.8395 45.02C90.6865 44.854 90.4961 44.771 90.2682 44.771C89.9687 44.771 89.7669 44.9207 89.6627 45.2202C89.6302 45.3211 89.6139 45.4253 89.6139 45.5327C89.6139 45.6401 89.6823 45.7606 89.819 45.894C89.9557 46.0243 90.1803 46.1805 90.4928 46.3628C90.8053 46.5451 91.0332 46.6997 91.1764 46.8267C91.5019 47.1164 91.6647 47.4517 91.6647 47.8325C91.6647 48.2134 91.5247 48.5161 91.2448 48.7407C90.9648 48.9621 90.6393 49.0728 90.2682 49.0728C90.0696 49.0728 89.889 49.0451 89.7262 48.9897C89.5667 48.9377 89.4739 48.9116 89.4479 48.9116C89.4251 48.9116 89.386 48.9377 89.3307 48.9897C89.2786 49.0451 89.2363 49.0728 89.2037 49.0728H89.1207C89.1012 49.0728 89.0768 48.897 89.0475 48.5454C89.0182 48.1938 89.0035 47.9855 89.0035 47.9204C89.0035 47.8553 89.0084 47.8195 89.0182 47.813C89.0312 47.8065 89.0507 47.8032 89.0768 47.8032C89.1028 47.8032 89.124 47.8114 89.1403 47.8276C89.1598 47.8439 89.1761 47.8651 89.1891 47.8911C89.2021 47.9139 89.2119 47.9383 89.2184 47.9644C89.2281 47.9904 89.2493 48.0392 89.2819 48.1108C89.5032 48.5828 89.845 48.8188 90.3073 48.8188C90.5123 48.8188 90.6767 48.744 90.8004 48.5942C90.9241 48.4412 90.986 48.272 90.986 48.0864C90.986 47.9009 90.9371 47.7446 90.8395 47.6177C90.7418 47.4907 90.6198 47.3752 90.4733 47.271C90.33 47.1668 90.1738 47.0659 90.0045 46.9683C89.347 46.5841 89.0182 46.1593 89.0182 45.6938C89.0182 45.3455 89.1679 45.0461 89.4674 44.7954C89.7669 44.5415 90.0745 44.4146 90.3903 44.4146C90.706 44.4146 90.9388 44.4487 91.0885 44.5171C91.2415 44.5854 91.331 44.644 91.3571 44.6929C91.3831 44.7384 91.3961 44.8914 91.3961 45.1519V45.6011ZM98.0319 45.4399C97.9928 45.4334 97.9358 45.4123 97.861 45.3765C97.5908 45.2528 97.3792 45.1909 97.2262 45.1909C97.0732 45.1909 96.9121 45.2869 96.7428 45.479C96.5768 45.6678 96.4938 45.8387 96.4938 45.9917V48.1987C96.4938 48.4429 96.6354 48.6056 96.9186 48.687C97.0423 48.7196 97.1578 48.744 97.2653 48.7603C97.3727 48.7733 97.441 48.7863 97.4703 48.7993C97.5029 48.8123 97.5192 48.8384 97.5192 48.8774C97.5192 48.9132 97.5029 48.9344 97.4703 48.9409H95.024C94.9915 48.9344 94.9752 48.9116 94.9752 48.8726C94.9752 48.814 95.0517 48.7749 95.2047 48.7554C95.5563 48.7033 95.7321 48.5177 95.7321 48.1987V45.6157C95.7321 45.479 95.6572 45.3846 95.5074 45.3325C95.4423 45.3097 95.3724 45.2918 95.2975 45.2788C95.2226 45.2625 95.1624 45.2479 95.1168 45.2349C95.0745 45.2218 95.0468 45.2104 95.0338 45.2007C95.024 45.1877 95.0192 45.1632 95.0192 45.1274C95.0192 45.0884 95.0436 45.0558 95.0924 45.0298L96.3375 44.4438C96.3766 44.4243 96.401 44.4146 96.4108 44.4146C96.4661 44.4146 96.4938 44.4536 96.4938 44.5317V45.3228C96.4938 45.3618 96.5035 45.3813 96.5231 45.3813C96.5491 45.3813 96.6158 45.3049 96.7233 45.1519C97.0325 44.7189 97.288 44.5024 97.4899 44.5024C97.6038 44.5024 97.778 44.548 98.0123 44.6392C98.25 44.7303 98.3688 44.8068 98.3688 44.8687C98.3688 44.9435 98.3313 45.0575 98.2565 45.2104C98.1816 45.3634 98.1067 45.4399 98.0319 45.4399ZM99.5016 46.3677C99.4462 46.3677 99.4186 46.4865 99.4186 46.7241C99.4186 47.2287 99.5683 47.6519 99.8678 47.9937C100.167 48.3354 100.538 48.5063 100.981 48.5063C101.427 48.5063 101.855 48.3143 102.265 47.9302C102.272 47.9237 102.28 47.9204 102.29 47.9204H102.314C102.334 47.9204 102.352 47.9367 102.368 47.9692C102.387 47.9985 102.405 48.0181 102.422 48.0278C102.044 48.4868 101.6 48.8042 101.089 48.98C100.913 49.0418 100.714 49.0728 100.493 49.0728C100.271 49.0728 100.047 49.0125 99.819 48.8921C99.5911 48.7684 99.3958 48.6073 99.233 48.4087C98.888 47.9953 98.7155 47.481 98.7155 46.8657C98.7155 46.2472 98.9026 45.6841 99.277 45.1763C99.6546 44.6685 100.172 44.4146 100.83 44.4146C101.302 44.4146 101.687 44.6261 101.987 45.0493C102.286 45.4692 102.436 45.8387 102.436 46.1577C102.436 46.2977 102.402 46.3677 102.334 46.3677H99.5016ZM99.5553 45.8989C99.5553 45.9608 99.5846 45.9917 99.6432 45.9917H101.484C101.569 45.9917 101.611 45.9412 101.611 45.8403C101.611 45.606 101.505 45.3667 101.294 45.1226C101.085 44.8752 100.856 44.7515 100.605 44.7515C100.361 44.7515 100.138 44.8621 99.9362 45.0835C99.7376 45.3049 99.6106 45.5571 99.5553 45.8403V45.8989ZM105.625 45.6011C105.625 45.6727 105.597 45.7085 105.542 45.7085C105.49 45.7085 105.449 45.6694 105.42 45.5913C105.341 45.3765 105.224 45.186 105.068 45.02C104.915 44.854 104.725 44.771 104.497 44.771C104.197 44.771 103.995 44.9207 103.891 45.2202C103.859 45.3211 103.842 45.4253 103.842 45.5327C103.842 45.6401 103.911 45.7606 104.047 45.894C104.184 46.0243 104.409 46.1805 104.721 46.3628C105.034 46.5451 105.262 46.6997 105.405 46.8267C105.73 47.1164 105.893 47.4517 105.893 47.8325C105.893 48.2134 105.753 48.5161 105.473 48.7407C105.193 48.9621 104.868 49.0728 104.497 49.0728C104.298 49.0728 104.117 49.0451 103.955 48.9897C103.795 48.9377 103.702 48.9116 103.676 48.9116C103.654 48.9116 103.615 48.9377 103.559 48.9897C103.507 49.0451 103.465 49.0728 103.432 49.0728H103.349C103.33 49.0728 103.305 48.897 103.276 48.5454C103.247 48.1938 103.232 47.9855 103.232 47.9204C103.232 47.8553 103.237 47.8195 103.247 47.813C103.26 47.8065 103.279 47.8032 103.305 47.8032C103.331 47.8032 103.352 47.8114 103.369 47.8276C103.388 47.8439 103.405 47.8651 103.418 47.8911C103.431 47.9139 103.44 47.9383 103.447 47.9644C103.457 47.9904 103.478 48.0392 103.51 48.1108C103.732 48.5828 104.074 48.8188 104.536 48.8188C104.741 48.8188 104.905 48.744 105.029 48.5942C105.153 48.4412 105.214 48.272 105.214 48.0864C105.214 47.9009 105.166 47.7446 105.068 47.6177C104.97 47.4907 104.848 47.3752 104.702 47.271C104.559 47.1668 104.402 47.0659 104.233 46.9683C103.575 46.5841 103.247 46.1593 103.247 45.6938C103.247 45.3455 103.396 45.0461 103.696 44.7954C103.995 44.5415 104.303 44.4146 104.619 44.4146C104.935 44.4146 105.167 44.4487 105.317 44.5171C105.47 44.5854 105.56 44.644 105.586 44.6929C105.612 44.7384 105.625 44.8914 105.625 45.1519V45.6011ZM108.974 45.6011C108.974 45.6727 108.947 45.7085 108.891 45.7085C108.839 45.7085 108.798 45.6694 108.769 45.5913C108.691 45.3765 108.574 45.186 108.418 45.02C108.265 44.854 108.074 44.771 107.846 44.771C107.547 44.771 107.345 44.9207 107.241 45.2202C107.208 45.3211 107.192 45.4253 107.192 45.5327C107.192 45.6401 107.26 45.7606 107.397 45.894C107.534 46.0243 107.758 46.1805 108.071 46.3628C108.383 46.5451 108.611 46.6997 108.755 46.8267C109.08 47.1164 109.243 47.4517 109.243 47.8325C109.243 48.2134 109.103 48.5161 108.823 48.7407C108.543 48.9621 108.217 49.0728 107.846 49.0728C107.648 49.0728 107.467 49.0451 107.304 48.9897C107.145 48.9377 107.052 48.9116 107.026 48.9116C107.003 48.9116 106.964 48.9377 106.909 48.9897C106.857 49.0451 106.814 49.0728 106.782 49.0728H106.699C106.679 49.0728 106.655 48.897 106.626 48.5454C106.596 48.1938 106.582 47.9855 106.582 47.9204C106.582 47.8553 106.587 47.8195 106.596 47.813C106.609 47.8065 106.629 47.8032 106.655 47.8032C106.681 47.8032 106.702 47.8114 106.718 47.8276C106.738 47.8439 106.754 47.8651 106.767 47.8911C106.78 47.9139 106.79 47.9383 106.797 47.9644C106.806 47.9904 106.827 48.0392 106.86 48.1108C107.081 48.5828 107.423 48.8188 107.885 48.8188C108.09 48.8188 108.255 48.744 108.379 48.5942C108.502 48.4412 108.564 48.272 108.564 48.0864C108.564 47.9009 108.515 47.7446 108.418 47.6177C108.32 47.4907 108.198 47.3752 108.051 47.271C107.908 47.1668 107.752 47.0659 107.583 46.9683C106.925 46.5841 106.596 46.1593 106.596 45.6938C106.596 45.3455 106.746 45.0461 107.046 44.7954C107.345 44.5415 107.653 44.4146 107.968 44.4146C108.284 44.4146 108.517 44.4487 108.667 44.5171C108.82 44.5854 108.909 44.644 108.935 44.6929C108.961 44.7384 108.974 44.8914 108.974 45.1519V45.6011ZM110.742 46.3677C110.686 46.3677 110.659 46.4865 110.659 46.7241C110.659 47.2287 110.809 47.6519 111.108 47.9937C111.408 48.3354 111.779 48.5063 112.221 48.5063C112.667 48.5063 113.095 48.3143 113.505 47.9302C113.512 47.9237 113.52 47.9204 113.53 47.9204H113.554C113.574 47.9204 113.592 47.9367 113.608 47.9692C113.628 47.9985 113.645 48.0181 113.662 48.0278C113.284 48.4868 112.84 48.8042 112.329 48.98C112.153 49.0418 111.954 49.0728 111.733 49.0728C111.512 49.0728 111.287 49.0125 111.059 48.8921C110.831 48.7684 110.636 48.6073 110.473 48.4087C110.128 47.9953 109.956 47.481 109.956 46.8657C109.956 46.2472 110.143 45.6841 110.517 45.1763C110.895 44.6685 111.412 44.4146 112.07 44.4146C112.542 44.4146 112.928 44.6261 113.227 45.0493C113.527 45.4692 113.676 45.8387 113.676 46.1577C113.676 46.2977 113.642 46.3677 113.574 46.3677H110.742ZM110.796 45.8989C110.796 45.9608 110.825 45.9917 110.883 45.9917H112.724C112.809 45.9917 112.851 45.9412 112.851 45.8403C112.851 45.606 112.745 45.3667 112.534 45.1226C112.325 44.8752 112.096 44.7515 111.845 44.7515C111.601 44.7515 111.378 44.8621 111.176 45.0835C110.978 45.3049 110.851 45.5571 110.796 45.8403V45.8989ZM120.932 47.4028L120.922 46.3726C120.922 45.9526 120.887 45.658 120.815 45.4888C120.743 45.3195 120.652 45.1925 120.542 45.1079C120.431 45.02 120.281 44.9761 120.092 44.9761C119.907 44.9761 119.511 45.1226 118.906 45.4155C118.825 45.4644 118.782 45.5099 118.779 45.5522V48.1792C118.779 48.508 118.955 48.6968 119.306 48.7456C119.459 48.7684 119.536 48.8058 119.536 48.8579C119.536 48.9067 119.519 48.9344 119.487 48.9409H117.309C117.277 48.9344 117.26 48.9116 117.26 48.8726C117.26 48.8107 117.337 48.7684 117.49 48.7456C117.841 48.6968 118.017 48.508 118.017 48.1792V45.7476C118.017 45.2365 117.701 44.981 117.07 44.981C116.839 44.981 116.518 45.1177 116.108 45.3911C116.004 45.4595 115.927 45.5229 115.879 45.5815V48.1792C115.879 48.508 116.054 48.6968 116.406 48.7456C116.559 48.7684 116.635 48.8058 116.635 48.8579C116.635 48.9067 116.619 48.9344 116.587 48.9409H114.409C114.376 48.9344 114.36 48.9116 114.36 48.8726C114.36 48.8107 114.436 48.7684 114.589 48.7456C114.941 48.6968 115.117 48.5112 115.117 48.189V45.3765C115.117 45.2397 115.042 45.1453 114.892 45.0933C114.827 45.0705 114.757 45.0526 114.682 45.0396C114.607 45.0233 114.547 45.0086 114.502 44.9956C114.459 44.9826 114.432 44.9712 114.419 44.9614C114.409 44.9484 114.404 44.924 114.404 44.8882C114.404 44.8491 114.428 44.8166 114.477 44.7905L115.722 44.2046C115.761 44.1851 115.786 44.1753 115.796 44.1753C115.851 44.1753 115.879 44.2144 115.879 44.2925V45.103C115.882 45.1226 115.893 45.1323 115.913 45.1323C115.936 45.1323 115.989 45.1095 116.074 45.064C116.162 45.0184 116.276 44.9549 116.416 44.8735C116.556 44.7889 116.74 44.6912 116.967 44.5806C117.199 44.4699 117.443 44.4146 117.7 44.4146C118.113 44.4146 118.409 44.592 118.589 44.9468C118.657 45.09 118.719 45.1519 118.774 45.1323C118.829 45.1095 118.916 45.0688 119.033 45.0103C119.31 44.8735 119.589 44.7401 119.873 44.6099C120.156 44.4797 120.39 44.4146 120.576 44.4146C121.328 44.4146 121.704 45.0998 121.704 46.4702L121.66 47.896V48.1792C121.66 48.4331 121.787 48.5991 122.041 48.6772C122.148 48.7131 122.251 48.7391 122.348 48.7554C122.449 48.7684 122.514 48.7814 122.544 48.7944C122.576 48.8075 122.592 48.8335 122.592 48.8726C122.592 48.9116 122.576 48.9344 122.544 48.9409H120.19C120.158 48.9344 120.141 48.9116 120.141 48.8726C120.141 48.8107 120.218 48.7684 120.371 48.7456C120.719 48.6968 120.893 48.495 120.893 48.1401C120.919 47.9774 120.932 47.7316 120.932 47.4028ZM124.145 44.854C124.145 44.9549 124.168 45.0054 124.214 45.0054C124.262 45.0054 124.471 44.8996 124.839 44.688C125.268 44.5057 125.595 44.4146 125.82 44.4146C126.045 44.4146 126.259 44.4797 126.464 44.6099C126.67 44.7401 126.844 44.911 126.987 45.1226C127.29 45.5588 127.441 46.0877 127.441 46.7095C127.441 47.3312 127.225 47.8813 126.792 48.3599C126.362 48.8351 125.794 49.0728 125.088 49.0728C124.629 49.0728 124.205 49.0174 123.818 48.9067C123.704 48.8742 123.606 48.8481 123.525 48.8286C123.447 48.8091 123.403 48.7896 123.393 48.77C123.387 48.7472 123.383 48.7212 123.383 48.6919V42.1099C123.383 41.9731 123.309 41.8787 123.159 41.8267C123.094 41.8039 123.024 41.786 122.949 41.7729C122.874 41.7567 122.814 41.742 122.768 41.729C122.726 41.716 122.698 41.7046 122.685 41.6948C122.675 41.6818 122.671 41.6574 122.671 41.6216C122.671 41.5825 122.695 41.55 122.744 41.5239L123.989 40.938C124.028 40.9185 124.052 40.9087 124.062 40.9087C124.117 40.9087 124.145 40.9478 124.145 41.0259V44.854ZM125.18 45.0103C124.891 45.0103 124.565 45.1144 124.204 45.3228C124.165 45.3455 124.145 45.3846 124.145 45.4399V47.7495C124.178 48.0457 124.306 48.2769 124.531 48.4429C124.755 48.6089 125.001 48.6919 125.268 48.6919C125.737 48.6919 126.098 48.5063 126.352 48.1353C126.609 47.7642 126.738 47.341 126.738 46.8657C126.738 46.3905 126.608 45.9624 126.347 45.5815C126.087 45.2007 125.698 45.0103 125.18 45.0103ZM130.127 48.7554C130.28 48.7749 130.356 48.814 130.356 48.8726C130.356 48.9116 130.34 48.9344 130.307 48.9409H128.13C128.097 48.9344 128.081 48.9116 128.081 48.8726C128.081 48.814 128.157 48.7749 128.31 48.7554C128.662 48.7033 128.838 48.5177 128.838 48.1987V42.1099C128.838 41.9731 128.763 41.8787 128.613 41.8267C128.548 41.8039 128.478 41.786 128.403 41.7729C128.328 41.7567 128.268 41.742 128.222 41.729C128.18 41.716 128.152 41.7046 128.139 41.6948C128.13 41.6818 128.125 41.6574 128.125 41.6216C128.125 41.5825 128.149 41.55 128.198 41.5239L129.443 40.938C129.482 40.9185 129.506 40.9087 129.516 40.9087C129.572 40.9087 129.599 40.9478 129.599 41.0259V48.1987C129.599 48.5177 129.775 48.7033 130.127 48.7554ZM131.66 46.3677C131.604 46.3677 131.577 46.4865 131.577 46.7241C131.577 47.2287 131.727 47.6519 132.026 47.9937C132.325 48.3354 132.697 48.5063 133.139 48.5063C133.585 48.5063 134.013 48.3143 134.423 47.9302C134.43 47.9237 134.438 47.9204 134.448 47.9204H134.472C134.492 47.9204 134.51 47.9367 134.526 47.9692C134.546 47.9985 134.563 48.0181 134.58 48.0278C134.202 48.4868 133.758 48.8042 133.247 48.98C133.071 49.0418 132.872 49.0728 132.651 49.0728C132.43 49.0728 132.205 49.0125 131.977 48.8921C131.749 48.7684 131.554 48.6073 131.391 48.4087C131.046 47.9953 130.874 47.481 130.874 46.8657C130.874 46.2472 131.061 45.6841 131.435 45.1763C131.813 44.6685 132.33 44.4146 132.988 44.4146C133.46 44.4146 133.846 44.6261 134.145 45.0493C134.445 45.4692 134.594 45.8387 134.594 46.1577C134.594 46.2977 134.56 46.3677 134.492 46.3677H131.66ZM131.714 45.8989C131.714 45.9608 131.743 45.9917 131.801 45.9917H133.642C133.727 45.9917 133.769 45.9412 133.769 45.8403C133.769 45.606 133.663 45.3667 133.452 45.1226C133.243 44.8752 133.014 44.7515 132.763 44.7515C132.519 44.7515 132.296 44.8621 132.094 45.0835C131.896 45.3049 131.769 45.5571 131.714 45.8403V45.8989ZM44.4625 59.186C44.443 59.186 44.4332 59.2007 44.4332 59.23V61.9253C44.4332 62.1206 44.4755 62.2736 44.5602 62.3843C44.6481 62.495 44.7587 62.5503 44.8922 62.5503C45.0257 62.5503 45.1412 62.5291 45.2389 62.4868C45.3398 62.4412 45.4261 62.3924 45.4977 62.3403C45.5726 62.2882 45.6393 62.241 45.6979 62.1987C45.7565 62.1532 45.8086 62.1304 45.8541 62.1304C45.8997 62.1304 45.9225 62.1418 45.9225 62.1646C45.9225 62.2427 45.9143 62.2931 45.8981 62.3159C45.5074 62.8205 45.1298 63.0728 44.7653 63.0728C44.4039 63.0728 44.1305 62.9588 43.9449 62.731C43.7627 62.4998 43.6715 62.2248 43.6715 61.9058V59.186H43.3053C43.2142 59.186 43.1653 59.1567 43.1588 59.0981C43.1556 59.0396 43.1653 59.0021 43.1881 58.9858C43.3606 58.8752 43.5983 58.6766 43.901 58.3901C43.9336 58.3543 43.9775 58.3006 44.0328 58.229C44.0882 58.1574 44.1679 58.0597 44.2721 57.936C44.3795 57.8123 44.4609 57.7505 44.5162 57.7505C44.5716 57.7505 44.5992 57.7733 44.5992 57.8188C44.5992 57.8254 44.5439 58.0386 44.4332 58.4585C44.4332 58.5171 44.4593 58.548 44.5114 58.5513H45.7565C45.8997 58.5513 45.9713 58.7531 45.9713 59.1567C45.9713 59.1763 45.9583 59.186 45.9323 59.186H44.4625ZM47.0504 58.9663C47.0341 58.7417 46.9755 58.299 46.8746 57.6382C46.777 56.9741 46.7281 56.5851 46.7281 56.4712C46.7281 56.3573 46.7835 56.2596 46.8942 56.1782C47.0048 56.0968 47.122 56.0562 47.2457 56.0562C47.3694 56.0562 47.4834 56.0968 47.5875 56.1782C47.6949 56.2596 47.7487 56.354 47.7487 56.4614C47.7487 56.5688 47.7356 56.7235 47.7096 56.9253C47.6836 57.1271 47.6526 57.3468 47.6168 57.5845C47.581 57.8221 47.5436 58.063 47.5045 58.3071C47.4687 58.5513 47.4394 58.771 47.4166 58.9663H47.0504ZM48.7155 62.9409C48.6829 62.9344 48.6666 62.9116 48.6666 62.8726C48.6666 62.814 48.7431 62.7749 48.8961 62.7554C49.2477 62.7033 49.4235 62.5177 49.4235 62.1987V59.6157C49.4235 59.479 49.3486 59.3846 49.1989 59.3325C49.1337 59.3097 49.0638 59.2918 48.9889 59.2788C48.914 59.2625 48.8538 59.2479 48.8082 59.2349C48.7659 59.2218 48.7382 59.2104 48.7252 59.2007C48.7155 59.1877 48.7106 59.1632 48.7106 59.1274C48.7106 59.0884 48.735 59.0558 48.7838 59.0298L50.0289 58.4438C50.068 58.4243 50.0924 58.4146 50.1022 58.4146C50.1575 58.4146 50.1852 58.4536 50.1852 58.5317V62.1987C50.1852 62.5177 50.361 62.7033 50.7125 62.7554C50.8655 62.7749 50.942 62.8091 50.942 62.8579C50.942 62.9067 50.9257 62.9344 50.8932 62.9409H48.7155ZM49.7311 57.0425C49.5976 57.0425 49.4788 57.0002 49.3746 56.9155C49.2737 56.8309 49.2233 56.7137 49.2233 56.564C49.2233 56.411 49.2721 56.2905 49.3698 56.2026C49.4674 56.1147 49.583 56.0708 49.7164 56.0708C49.8531 56.0708 49.9671 56.1229 50.0582 56.2271C50.1526 56.3312 50.1998 56.4435 50.1998 56.564C50.1998 56.6844 50.1559 56.7951 50.068 56.896C49.9801 56.9937 49.8678 57.0425 49.7311 57.0425ZM53.3297 62.7554C53.4827 62.7749 53.5592 62.814 53.5592 62.8726C53.5592 62.9116 53.5429 62.9344 53.5104 62.9409H51.3326C51.3001 62.9344 51.2838 62.9116 51.2838 62.8726C51.2838 62.814 51.3603 62.7749 51.5133 62.7554C51.8649 62.7033 52.0406 62.5177 52.0406 62.1987V56.1099C52.0406 55.9731 51.9658 55.8787 51.816 55.8267C51.7509 55.8039 51.6809 55.786 51.6061 55.7729C51.5312 55.7567 51.471 55.742 51.4254 55.729C51.3831 55.716 51.3554 55.7046 51.3424 55.6948C51.3326 55.6818 51.3278 55.6574 51.3278 55.6216C51.3278 55.5825 51.3522 55.55 51.401 55.5239L52.6461 54.938C52.6852 54.9185 52.7096 54.9087 52.7194 54.9087C52.7747 54.9087 52.8024 54.9478 52.8024 55.0259V62.1987C52.8024 62.5177 52.9781 62.7033 53.3297 62.7554ZM59.7799 62.1353C59.7799 62.2199 59.819 62.2882 59.8971 62.3403C59.9785 62.3892 60.0712 62.4136 60.1754 62.4136C60.2796 62.4136 60.3658 62.3875 60.4342 62.3354C60.5058 62.2801 60.5546 62.2524 60.5807 62.2524C60.6067 62.2524 60.6198 62.2882 60.6198 62.3599C60.6198 62.4282 60.5872 62.4868 60.5221 62.5356C60.0338 62.8937 59.7034 63.0728 59.5309 63.0728C59.3226 63.0728 59.1533 62.8563 59.0231 62.4233C59.0133 62.3908 59.0052 62.3761 58.9987 62.3794C58.595 62.6821 58.3411 62.8644 58.2369 62.9263C57.97 63.0793 57.7015 63.1037 57.4313 62.9995C57.1643 62.8953 56.9707 62.7228 56.8502 62.4819C56.7916 62.3582 56.7623 62.2264 56.7623 62.0864C56.7623 61.8097 56.8649 61.59 57.0699 61.4272C57.275 61.2645 57.6656 61.1082 58.2418 60.9585C58.4371 60.9064 58.6113 60.8397 58.7643 60.7583C58.9173 60.6769 58.997 60.6248 59.0035 60.6021C59.0133 60.5793 59.0182 60.5581 59.0182 60.5386V59.6011C59.0182 59.2332 58.875 58.9744 58.5885 58.8247C58.4941 58.7759 58.3802 58.7515 58.2467 58.7515C58.1165 58.7515 57.983 58.8035 57.8463 58.9077C57.7128 59.0119 57.6461 59.16 57.6461 59.3521L57.6705 59.5425C57.651 59.5815 57.5338 59.6466 57.319 59.7378C57.1041 59.8289 56.9804 59.8778 56.9479 59.8843C56.8958 59.8843 56.8698 59.8224 56.8698 59.6987C56.8698 59.5718 56.9072 59.4318 56.9821 59.2788C57.0569 59.1258 57.1627 58.9858 57.2994 58.8589C57.6184 58.5627 57.983 58.4146 58.3932 58.4146C58.8033 58.4146 59.137 58.5285 59.3942 58.7563C59.6513 58.981 59.7799 59.2495 59.7799 59.562V62.1353ZM57.5289 61.9937C57.5289 62.1499 57.5892 62.2866 57.7096 62.4038C57.83 62.5177 57.9668 62.5747 58.1198 62.5747C58.276 62.5747 58.4648 62.5096 58.6862 62.3794C58.9075 62.2459 59.0182 62.1092 59.0182 61.9692V60.978C59.0182 60.9422 59.0101 60.9243 58.9938 60.9243C58.9775 60.9243 58.9661 60.9259 58.9596 60.9292L57.8268 61.4565C57.7096 61.5412 57.6298 61.6128 57.5875 61.6714C57.5485 61.73 57.5289 61.8374 57.5289 61.9937ZM58.9742 57.731C58.9612 57.744 58.9498 57.7505 58.9401 57.7505C58.9303 57.7505 58.9189 57.744 58.9059 57.731L57.5924 56.6714C57.4134 56.5184 57.3239 56.38 57.3239 56.2563C57.3239 56.1326 57.3564 56.035 57.4215 55.9634C57.4899 55.8885 57.581 55.8511 57.6949 55.8511C57.8089 55.8511 57.9244 55.9308 58.0416 56.0903L59.0817 57.5308C59.0947 57.5438 59.1012 57.5535 59.1012 57.5601C59.1012 57.5666 59.0947 57.5763 59.0817 57.5894L58.9742 57.731ZM67.1139 62.5112C67.0976 62.4559 67.0765 62.438 67.0504 62.4575C67.0244 62.4738 66.9186 62.5291 66.733 62.6235C66.1243 62.9263 65.6165 63.0776 65.2096 63.0776C64.8027 63.0776 64.5097 62.9474 64.3307 62.687C64.2656 62.5894 64.233 62.4689 64.233 62.3257V59.3472C64.2233 59.2528 64.1809 59.1714 64.1061 59.103C64.0052 59.0184 63.8994 58.9728 63.7887 58.9663C63.6813 58.9598 63.6276 58.9272 63.6276 58.8687C63.6276 58.8068 63.6536 58.7694 63.7057 58.7563L64.8239 58.4341C64.8629 58.4211 64.9003 58.4146 64.9362 58.4146C64.9752 58.4146 64.9948 58.4422 64.9948 58.4976V61.7739C64.9948 62.0018 65.0957 62.1776 65.2975 62.3013C65.4993 62.425 65.7565 62.4868 66.069 62.4868C66.3847 62.4868 66.6679 62.3908 66.9186 62.1987C66.9967 62.1369 67.0618 62.0685 67.1139 61.9937V59.3472C67.1041 59.2528 67.0618 59.1714 66.9869 59.103C66.886 59.0184 66.7802 58.9728 66.6696 58.9663C66.5621 58.9598 66.5084 58.9272 66.5084 58.8687C66.5084 58.8068 66.5345 58.7694 66.5865 58.7563L67.7047 58.4341C67.7438 58.4211 67.7812 58.4146 67.817 58.4146C67.8561 58.4146 67.8756 58.4471 67.8756 58.5122V61.979C67.8919 62.1222 67.9326 62.2248 67.9977 62.2866C68.0628 62.3485 68.1686 62.3794 68.3151 62.3794L68.5983 62.3599C68.6178 62.3599 68.6276 62.3794 68.6276 62.4185C68.6276 62.4543 68.6031 62.4836 68.5543 62.5063L67.2555 63.0435C67.2164 63.063 67.1823 63.0728 67.153 63.0728C67.1269 63.0728 67.1139 63.0321 67.1139 62.9507V62.5112ZM72.8463 61.4028L72.8365 60.3726C72.8365 59.9526 72.8007 59.658 72.7291 59.4888C72.6575 59.3195 72.5664 59.1925 72.4557 59.1079C72.345 59.02 72.1953 58.9761 72.0065 58.9761C71.8209 58.9761 71.4254 59.1226 70.8199 59.4155C70.7386 59.4644 70.6962 59.5099 70.693 59.5522V62.1792C70.693 62.508 70.8688 62.6968 71.2203 62.7456C71.3733 62.7684 71.4498 62.8058 71.4498 62.8579C71.4498 62.9067 71.4336 62.9344 71.401 62.9409H69.2233C69.1907 62.9344 69.1744 62.9116 69.1744 62.8726C69.1744 62.8107 69.2509 62.7684 69.4039 62.7456C69.7555 62.6968 69.9313 62.508 69.9313 62.1792V59.3765C69.9313 59.2397 69.8564 59.1453 69.7067 59.0933C69.6416 59.0705 69.5716 59.0526 69.4967 59.0396C69.4218 59.0233 69.3616 59.0086 69.316 58.9956C69.2737 58.9826 69.2461 58.9712 69.233 58.9614C69.2233 58.9484 69.2184 58.924 69.2184 58.8882C69.2184 58.8491 69.2428 58.8166 69.2916 58.7905L70.5367 58.2046C70.5758 58.1851 70.6002 58.1753 70.61 58.1753C70.6653 58.1753 70.693 58.2144 70.693 58.2925V59.0542C70.7028 59.0868 70.7158 59.103 70.7321 59.103C70.7516 59.103 70.8216 59.0737 70.942 59.0151C71.222 58.8752 71.5035 58.7401 71.7867 58.6099C72.0699 58.4797 72.3043 58.4146 72.4899 58.4146C73.2418 58.4146 73.6178 59.0998 73.6178 60.4702L73.5739 61.896V62.1792C73.5739 62.4331 73.7008 62.5991 73.9547 62.6772C74.0621 62.7131 74.1647 62.7391 74.2623 62.7554C74.3632 62.7684 74.4283 62.7814 74.4576 62.7944C74.4902 62.8075 74.5065 62.8335 74.5065 62.8726C74.5065 62.9116 74.4902 62.9344 74.4576 62.9409H72.1041C72.0716 62.9344 72.0553 62.9116 72.0553 62.8726C72.0553 62.8107 72.1318 62.7684 72.2848 62.7456C72.6331 62.6968 72.8073 62.495 72.8073 62.1401C72.8333 61.9774 72.8463 61.7316 72.8463 61.4028ZM79.4332 62.7554C79.5862 62.7749 79.6627 62.814 79.6627 62.8726C79.6627 62.9116 79.6464 62.9344 79.6139 62.9409H77.4362C77.4036 62.9344 77.3873 62.9116 77.3873 62.8726C77.3873 62.814 77.4638 62.7749 77.6168 62.7554C77.9684 62.7033 78.1442 62.5177 78.1442 62.1987V56.1099C78.1442 55.9731 78.0693 55.8787 77.9196 55.8267C77.8545 55.8039 77.7845 55.786 77.7096 55.7729C77.6347 55.7567 77.5745 55.742 77.5289 55.729C77.4866 55.716 77.4589 55.7046 77.4459 55.6948C77.4362 55.6818 77.4313 55.6574 77.4313 55.6216C77.4313 55.5825 77.4557 55.55 77.5045 55.5239L78.7496 54.938C78.7887 54.9185 78.8131 54.9087 78.8229 54.9087C78.8782 54.9087 78.9059 54.9478 78.9059 55.0259V62.1987C78.9059 62.5177 79.0817 62.7033 79.4332 62.7554ZM83.1979 62.1353C83.1979 62.2199 83.2369 62.2882 83.3151 62.3403C83.3964 62.3892 83.4892 62.4136 83.5934 62.4136C83.6976 62.4136 83.7838 62.3875 83.8522 62.3354C83.9238 62.2801 83.9726 62.2524 83.9987 62.2524C84.0247 62.2524 84.0377 62.2882 84.0377 62.3599C84.0377 62.4282 84.0052 62.4868 83.9401 62.5356C83.4518 62.8937 83.1214 63.0728 82.9489 63.0728C82.7405 63.0728 82.5712 62.8563 82.441 62.4233C82.4313 62.3908 82.4231 62.3761 82.4166 62.3794C82.013 62.6821 81.7591 62.8644 81.6549 62.9263C81.388 63.0793 81.1194 63.1037 80.8492 62.9995C80.5823 62.8953 80.3886 62.7228 80.2682 62.4819C80.2096 62.3582 80.1803 62.2264 80.1803 62.0864C80.1803 61.8097 80.2828 61.59 80.4879 61.4272C80.693 61.2645 81.0836 61.1082 81.6598 60.9585C81.8551 60.9064 82.0293 60.8397 82.1823 60.7583C82.3352 60.6769 82.415 60.6248 82.4215 60.6021C82.4313 60.5793 82.4362 60.5581 82.4362 60.5386V59.6011C82.4362 59.2332 82.2929 58.9744 82.0065 58.8247C81.9121 58.7759 81.7981 58.7515 81.6647 58.7515C81.5345 58.7515 81.401 58.8035 81.2643 58.9077C81.1308 59.0119 81.0641 59.16 81.0641 59.3521L81.0885 59.5425C81.069 59.5815 80.9518 59.6466 80.7369 59.7378C80.5221 59.8289 80.3984 59.8778 80.3658 59.8843C80.3138 59.8843 80.2877 59.8224 80.2877 59.6987C80.2877 59.5718 80.3252 59.4318 80.4 59.2788C80.4749 59.1258 80.5807 58.9858 80.7174 58.8589C81.0364 58.5627 81.401 58.4146 81.8112 58.4146C82.2213 58.4146 82.555 58.5285 82.8121 58.7563C83.0693 58.981 83.1979 59.2495 83.1979 59.562V62.1353ZM80.9469 61.9937C80.9469 62.1499 81.0071 62.2866 81.1276 62.4038C81.248 62.5177 81.3847 62.5747 81.5377 62.5747C81.694 62.5747 81.8828 62.5096 82.1041 62.3794C82.3255 62.2459 82.4362 62.1092 82.4362 61.9692V60.978C82.4362 60.9422 82.428 60.9243 82.4117 60.9243C82.3955 60.9243 82.3841 60.9259 82.3776 60.9292L81.2448 61.4565C81.1276 61.5412 81.0478 61.6128 81.0055 61.6714C80.9664 61.73 80.9469 61.8374 80.9469 61.9937ZM88.1832 62.4282C87.734 62.8579 87.2295 63.0728 86.6696 63.0728C86.4677 63.0728 86.1927 63.0353 85.8444 62.9604C85.789 62.9604 85.7581 62.98 85.7516 63.019C85.7483 63.0581 85.7451 63.0988 85.7418 63.1411V65.2261C85.7418 65.4702 85.8834 65.633 86.1666 65.7144C86.2903 65.7469 86.4059 65.7697 86.5133 65.7827C86.6207 65.799 86.6891 65.8136 86.7184 65.8267C86.7509 65.8397 86.7672 65.8641 86.7672 65.8999C86.7672 65.939 86.7509 65.9618 86.7184 65.9683H84.2721C84.2395 65.9618 84.2233 65.939 84.2233 65.8999C84.2233 65.8413 84.2998 65.8022 84.4528 65.7827C84.8043 65.7306 84.9801 65.5451 84.9801 65.2261V59.3716C84.9801 59.2349 84.9052 59.1405 84.7555 59.0884C84.6904 59.0656 84.6204 59.0477 84.5455 59.0347C84.4707 59.0184 84.4104 59.0037 84.3649 58.9907C84.3226 58.9777 84.2949 58.9663 84.2819 58.9565C84.2721 58.9435 84.2672 58.9191 84.2672 58.8833C84.2672 58.8442 84.2916 58.8117 84.3405 58.7856L85.5856 58.1899C85.6116 58.1769 85.6377 58.1704 85.6637 58.1704C85.7158 58.1704 85.7418 58.2095 85.7418 58.2876V58.9077C85.7418 58.9435 85.7597 58.9614 85.7955 58.9614C85.8346 58.9614 85.9257 58.9142 86.069 58.8198C86.4824 58.5529 86.9121 58.4194 87.358 58.4194C87.6705 58.4194 87.957 58.5464 88.2174 58.8003C88.5592 59.1323 88.7871 59.5946 88.901 60.187C88.9336 60.3563 88.9498 60.5369 88.9498 60.729C88.9498 60.9178 88.9189 61.118 88.8571 61.3296C88.7334 61.7495 88.5087 62.1157 88.1832 62.4282ZM86.7867 58.9272C86.344 58.9272 85.9957 59.0542 85.7418 59.3081V62.0522C85.7418 62.215 85.7695 62.3208 85.8248 62.3696C85.9681 62.4933 86.1878 62.5894 86.484 62.6577C87.0699 62.7912 87.5257 62.6512 87.8512 62.2378C88.0823 61.9416 88.1979 61.5835 88.1979 61.1636C88.1979 60.3465 88.014 59.7345 87.6461 59.3276C87.4248 59.0802 87.1383 58.9468 86.7867 58.9272ZM89.8287 62.9409C89.7962 62.9344 89.7799 62.9116 89.7799 62.8726C89.7799 62.814 89.8564 62.7749 90.0094 62.7554C90.361 62.7033 90.5367 62.5177 90.5367 62.1987V59.6157C90.5367 59.479 90.4619 59.3846 90.3121 59.3325C90.247 59.3097 90.177 59.2918 90.1022 59.2788C90.0273 59.2625 89.9671 59.2479 89.9215 59.2349C89.8792 59.2218 89.8515 59.2104 89.8385 59.2007C89.8287 59.1877 89.8239 59.1632 89.8239 59.1274C89.8239 59.0884 89.8483 59.0558 89.8971 59.0298L91.1422 58.4438C91.1813 58.4243 91.2057 58.4146 91.2155 58.4146C91.2708 58.4146 91.2985 58.4536 91.2985 58.5317V62.1987C91.2985 62.5177 91.4742 62.7033 91.8258 62.7554C91.9788 62.7749 92.0553 62.8091 92.0553 62.8579C92.0553 62.9067 92.039 62.9344 92.0065 62.9409H89.8287ZM90.8444 57.0425C90.7109 57.0425 90.5921 57.0002 90.4879 56.9155C90.387 56.8309 90.3365 56.7137 90.3365 56.564C90.3365 56.411 90.3854 56.2905 90.483 56.2026C90.5807 56.1147 90.6962 56.0708 90.8297 56.0708C90.9664 56.0708 91.0804 56.1229 91.1715 56.2271C91.2659 56.3312 91.3131 56.4435 91.3131 56.564C91.3131 56.6844 91.2692 56.7951 91.1813 56.896C91.0934 56.9937 90.9811 57.0425 90.8444 57.0425ZM96.2252 61.4028L96.2155 60.3726C96.2155 59.9526 96.1796 59.658 96.108 59.4888C96.0364 59.3195 95.9453 59.1925 95.8346 59.1079C95.7239 59.02 95.5742 58.9761 95.3854 58.9761C95.1998 58.9761 94.8043 59.1226 94.1989 59.4155C94.1175 59.4644 94.0752 59.5099 94.0719 59.5522V62.1792C94.0719 62.508 94.2477 62.6968 94.5992 62.7456C94.7522 62.7684 94.8287 62.8058 94.8287 62.8579C94.8287 62.9067 94.8125 62.9344 94.7799 62.9409H92.6022C92.5696 62.9344 92.5533 62.9116 92.5533 62.8726C92.5533 62.8107 92.6298 62.7684 92.7828 62.7456C93.1344 62.6968 93.3102 62.508 93.3102 62.1792V59.3765C93.3102 59.2397 93.2353 59.1453 93.0856 59.0933C93.0205 59.0705 92.9505 59.0526 92.8756 59.0396C92.8007 59.0233 92.7405 59.0086 92.6949 58.9956C92.6526 58.9826 92.625 58.9712 92.6119 58.9614C92.6022 58.9484 92.5973 58.924 92.5973 58.8882C92.5973 58.8491 92.6217 58.8166 92.6705 58.7905L93.9156 58.2046C93.9547 58.1851 93.9791 58.1753 93.9889 58.1753C94.0442 58.1753 94.0719 58.2144 94.0719 58.2925V59.0542C94.0817 59.0868 94.0947 59.103 94.111 59.103C94.1305 59.103 94.2005 59.0737 94.3209 59.0151C94.6009 58.8752 94.8824 58.7401 95.1656 58.6099C95.4489 58.4797 95.6832 58.4146 95.8688 58.4146C96.6207 58.4146 96.9967 59.0998 96.9967 60.4702L96.9528 61.896V62.1792C96.9528 62.4331 97.0797 62.5991 97.3336 62.6772C97.441 62.7131 97.5436 62.7391 97.6412 62.7554C97.7421 62.7684 97.8073 62.7814 97.8365 62.7944C97.8691 62.8075 97.8854 62.8335 97.8854 62.8726C97.8854 62.9116 97.8691 62.9344 97.8365 62.9409H95.483C95.4505 62.9344 95.4342 62.9116 95.4342 62.8726C95.4342 62.8107 95.5107 62.7684 95.6637 62.7456C96.012 62.6968 96.1862 62.495 96.1862 62.1401C96.2122 61.9774 96.2252 61.7316 96.2252 61.4028ZM102.085 61.1294C102.085 61.1717 102.05 61.1929 101.982 61.1929C101.914 61.1929 101.81 61.0382 101.67 60.729C101.533 60.4198 101.463 60.1919 101.46 60.0454C101.456 59.8989 101.473 59.7769 101.508 59.6792C101.547 59.5783 101.6 59.4937 101.665 59.4253C101.73 59.3537 101.806 59.2935 101.894 59.2446C101.982 59.1958 102.075 59.1519 102.172 59.1128C102.27 59.0737 102.371 59.0379 102.475 59.0054C102.583 58.9696 102.687 58.9305 102.788 58.8882C103.009 58.797 103.204 58.6473 103.374 58.439C103.543 58.2274 103.628 58.0125 103.628 57.7944C103.628 57.3973 103.478 57.1369 103.178 57.0132C102.879 56.8862 102.365 56.8228 101.635 56.8228C101.408 56.8097 101.248 56.743 101.157 56.6226C101.124 56.577 101.108 56.52 101.108 56.4517C101.108 56.1717 101.383 56.0317 101.933 56.0317C102.487 56.0317 102.946 56.2108 103.31 56.5688C103.675 56.9269 103.857 57.3859 103.857 57.9458C103.857 58.5024 103.623 58.9777 103.154 59.3716C102.933 59.5571 102.727 59.6808 102.539 59.7427C102.35 59.8013 102.21 59.855 102.119 59.9038C101.904 60.0145 101.797 60.1675 101.797 60.3628C101.797 60.4637 101.837 60.5939 101.919 60.7534C102.003 60.9129 102.059 61.0382 102.085 61.1294ZM101.416 62.5015C101.416 62.3485 101.471 62.2166 101.582 62.106C101.692 61.9953 101.824 61.9399 101.977 61.9399C102.127 61.9399 102.257 61.9953 102.368 62.106C102.478 62.2166 102.534 62.3485 102.534 62.5015C102.534 62.6545 102.478 62.7879 102.368 62.9019C102.26 63.0158 102.13 63.0728 101.977 63.0728C101.821 63.0728 101.687 63.0158 101.577 62.9019C101.469 62.7879 101.416 62.6545 101.416 62.5015Z" fill="#EFB85F"/>
<path d="M17.5002 10L18.696 11.9748L21 13L18.696 14.0249L17.5002 16L16.304 14.0249L14 13L16.304 11.9748L17.5002 10Z" fill="#EFB85F"/>
<path d="M17.5002 86L18.696 87.9748L21 89L18.696 90.0249L17.5002 92L16.304 90.0249L14 89L16.304 87.9748L17.5002 86Z" fill="#EFB85F"/>
<path d="M124.5 84L125.696 85.9748L128 87L125.696 88.0249L124.5 90L123.304 88.0249L121 87L123.304 85.9748L124.5 84Z" fill="#EFB85F"/>
<path d="M80.5002 90L81.696 91.9748L84 93L81.696 94.0249L80.5002 96L79.304 94.0249L77 93L79.304 91.9748L80.5002 90Z" fill="#EFB85F"/>
<path d="M120.5 7L121.696 8.97475L124 10L121.696 11.0249L120.5 13L119.304 11.0249L117 10L119.304 8.97475L120.5 7Z" fill="#EFB85F"/>
<path d="M95.125 16.6259C95.1509 16.3615 95.1942 15.7335 95.2288 15.2377C95.2634 14.6647 95.324 14.3011 95.3932 14.2681C95.4538 14.235 95.7307 14.4113 95.999 14.6537C96.2759 14.9071 96.5182 15.0834 96.5441 15.0504C96.5615 15.0283 96.397 14.6757 96.1807 14.2791C95.9038 13.7943 95.8086 13.5519 95.8865 13.5189C95.9471 13.4968 96.3884 13.4197 96.8643 13.3426C98.3873 13.1222 98.3787 13.001 96.8384 12.7917C96.3019 12.7145 95.8519 12.6154 95.8346 12.5823C95.8086 12.5382 95.973 12.2187 96.1807 11.8661C96.3884 11.5025 96.5441 11.183 96.5182 11.15C96.4922 11.1279 96.2326 11.3152 95.9471 11.5687C95.6528 11.8331 95.3932 11.9984 95.3586 11.9543C95.3154 11.8992 95.2461 11.2381 95.1856 10.4779C95.0298 8.49462 94.9606 8.50564 94.7962 10.5219C94.7356 11.2822 94.6664 11.9433 94.6317 11.9763C94.6058 12.0094 94.3462 11.8331 94.052 11.5797C93.7664 11.3152 93.5155 11.1279 93.4895 11.161C93.4722 11.183 93.602 11.4805 93.7924 11.8111C93.9827 12.1306 94.1385 12.4611 94.1385 12.5272C94.1385 12.6044 93.7664 12.7035 93.1607 12.7917C91.6117 13.001 91.6117 13.1222 93.1693 13.3536C93.7577 13.4417 94.1385 13.5519 94.1385 13.618C94.1385 13.6841 93.9827 14.0147 93.7924 14.3342C93.3857 15.0283 93.351 15.2046 93.6799 14.9292C93.8183 14.83 94.0693 14.6096 94.251 14.4554C94.6664 14.1138 94.701 14.1689 94.7789 15.3589C94.8913 17.1107 95.0211 17.5735 95.125 16.6259Z" fill="#EFB85F"/>
<path d="M39.125 89.6259C39.1509 89.3615 39.1942 88.7335 39.2288 88.2377C39.2634 87.6647 39.324 87.3011 39.3932 87.2681C39.4538 87.235 39.7307 87.4113 39.999 87.6537C40.2759 87.9071 40.5182 88.0834 40.5441 88.0504C40.5615 88.0283 40.397 87.6757 40.1807 87.2791C39.9038 86.7943 39.8086 86.5519 39.8865 86.5189C39.9471 86.4968 40.3884 86.4197 40.8643 86.3426C42.3873 86.1222 42.3787 86.001 40.8384 85.7917C40.3019 85.7145 39.8519 85.6154 39.8346 85.5823C39.8086 85.5382 39.973 85.2187 40.1807 84.8661C40.3884 84.5025 40.5441 84.183 40.5182 84.15C40.4922 84.1279 40.2326 84.3152 39.9471 84.5687C39.6528 84.8331 39.3932 84.9984 39.3586 84.9543C39.3154 84.8992 39.2461 84.2381 39.1856 83.4779C39.0298 81.4946 38.9606 81.5056 38.7962 83.5219C38.7356 84.2822 38.6664 84.9433 38.6317 84.9763C38.6058 85.0094 38.3462 84.8331 38.052 84.5797C37.7664 84.3152 37.5155 84.1279 37.4895 84.161C37.4722 84.183 37.602 84.4805 37.7924 84.8111C37.9827 85.1306 38.1385 85.4611 38.1385 85.5272C38.1385 85.6044 37.7664 85.7035 37.1607 85.7917C35.6117 86.001 35.6117 86.1222 37.1693 86.3536C37.7577 86.4417 38.1385 86.5519 38.1385 86.618C38.1385 86.6841 37.9827 87.0147 37.7924 87.3342C37.3857 88.0283 37.351 88.2046 37.6799 87.9292C37.8183 87.83 38.0693 87.6096 38.251 87.4554C38.6664 87.1138 38.701 87.1689 38.7789 88.3589C38.8913 90.1107 39.0211 90.5735 39.125 89.6259Z" fill="#EFB85F"/>
<path d="M110.125 99.6259C110.151 99.3615 110.194 98.7335 110.229 98.2377C110.263 97.6647 110.324 97.3011 110.393 97.2681C110.454 97.235 110.731 97.4113 110.999 97.6537C111.276 97.9071 111.518 98.0834 111.544 98.0504C111.561 98.0283 111.397 97.6757 111.181 97.2791C110.904 96.7943 110.809 96.5519 110.886 96.5189C110.947 96.4968 111.388 96.4197 111.864 96.3426C113.387 96.1222 113.379 96.001 111.838 95.7917C111.302 95.7145 110.852 95.6154 110.835 95.5823C110.809 95.5382 110.973 95.2187 111.181 94.8661C111.388 94.5025 111.544 94.183 111.518 94.15C111.492 94.1279 111.233 94.3152 110.947 94.5687C110.653 94.8331 110.393 94.9984 110.359 94.9543C110.315 94.8992 110.246 94.2381 110.186 93.4779C110.03 91.4946 109.961 91.5056 109.796 93.5219C109.736 94.2822 109.666 94.9433 109.632 94.9763C109.606 95.0094 109.346 94.8331 109.052 94.5797C108.766 94.3152 108.515 94.1279 108.489 94.161C108.472 94.183 108.602 94.4805 108.792 94.8111C108.983 95.1306 109.138 95.4611 109.138 95.5272C109.138 95.6044 108.766 95.7035 108.161 95.7917C106.612 96.001 106.612 96.1222 108.169 96.3536C108.758 96.4417 109.138 96.5519 109.138 96.618C109.138 96.6841 108.983 97.0147 108.792 97.3342C108.386 98.0283 108.351 98.2046 108.68 97.9292C108.818 97.83 109.069 97.6096 109.251 97.4554C109.666 97.1138 109.701 97.1689 109.779 98.3589C109.891 100.111 110.021 100.573 110.125 99.6259Z" fill="#EFB85F"/>
<path d="M53.125 12.6259C53.1509 12.3615 53.1942 11.7335 53.2288 11.2377C53.2634 10.6647 53.324 10.3011 53.3932 10.2681C53.4538 10.235 53.7307 10.4113 53.999 10.6537C54.2759 10.9071 54.5182 11.0834 54.5441 11.0504C54.5615 11.0283 54.397 10.6757 54.1807 10.2791C53.9038 9.7943 53.8086 9.55191 53.8865 9.51885C53.9471 9.49682 54.3884 9.41969 54.8643 9.34256C56.3873 9.1222 56.3787 9.001 54.8384 8.79166C54.3019 8.71453 53.8519 8.61537 53.8346 8.58232C53.8086 8.53825 53.973 8.21872 54.1807 7.86614C54.3884 7.50255 54.5441 7.18302 54.5182 7.14997C54.4922 7.12793 54.2326 7.31524 53.9471 7.56866C53.6528 7.83309 53.3932 7.99836 53.3586 7.95429C53.3154 7.8992 53.2461 7.23811 53.1856 6.47787C53.0298 4.49462 52.9606 4.50564 52.7962 6.52194C52.7356 7.28219 52.6664 7.94327 52.6317 7.97632C52.6058 8.00938 52.3462 7.83309 52.052 7.57967C51.7664 7.31524 51.5155 7.12793 51.4895 7.16099C51.4722 7.18302 51.602 7.48051 51.7924 7.81105C51.9827 8.13058 52.1385 8.46112 52.1385 8.52723C52.1385 8.60435 51.7664 8.70352 51.1607 8.79166C49.6117 9.001 49.6117 9.1222 51.1693 9.35358C51.7577 9.44173 52.1385 9.55191 52.1385 9.61802C52.1385 9.68412 51.9827 10.0147 51.7924 10.3342C51.3857 11.0283 51.351 11.2046 51.6799 10.9292C51.8183 10.83 52.0693 10.6096 52.251 10.4554C52.6664 10.1138 52.701 10.1689 52.7789 11.3589C52.8913 13.1107 53.0211 13.5735 53.125 12.6259Z" fill="#EFB85F"/>
<circle cx="13" cy="30" r="1" fill="#EFB85F"/>
<circle cx="26" cy="81" r="1" fill="#EFB85F"/>
<circle cx="57" cy="96" r="1" fill="#EFB85F"/>
<circle cx="111" cy="84" r="1" fill="#EFB85F"/>
<circle cx="139" cy="16" r="1" fill="#EFB85F"/>
<circle cx="143" cy="55" r="1" fill="#EFB85F"/>
<circle cx="139" cy="93" r="1" fill="#EFB85F"/>
<circle cx="36" cy="10" r="1" fill="#EFB85F"/>
<circle cx="75" cy="6" r="1" fill="#EFB85F"/>
<path d="M30.1536 96.762L33.0001 96.6487L30.1536 96.5354L31.0464 95.3761L30.0932 96.4619L30 93L29.9069 96.4619L28.9537 95.3761L29.8465 96.5354L27 96.6487L29.8465 96.762L28.9537 97.9212L29.9069 96.8354L30 100.297L30.0932 96.8354L31.0464 97.9212L30.1536 96.762Z" fill="#EFB85F"/>
<path d="M11.1536 76.762L14.0001 76.6487L11.1536 76.5354L12.0464 75.3761L11.0932 76.4619L11 73L10.9069 76.4619L9.95375 75.3761L10.8465 76.5354L8 76.6487L10.8465 76.762L9.95375 77.9212L10.9069 76.8354L11 80.2973L11.0932 76.8354L12.0464 77.9212L11.1536 76.762Z" fill="#EFB85F"/>
<path d="M135.154 32.762L138 32.6487L135.154 32.5354L136.046 31.3761L135.093 32.4619L135 29L134.907 32.4619L133.954 31.3761L134.847 32.5354L132 32.6487L134.847 32.762L133.954 33.9212L134.907 32.8354L135 36.2973L135.093 32.8354L136.046 33.9212L135.154 32.762Z" fill="#EFB85F"/>
<path d="M68.1536 11.762L71.0001 11.6487L68.1536 11.5354L69.0464 10.3761L68.0932 11.4619L68 8L67.9069 11.4619L66.9537 10.3761L67.8465 11.5354L65 11.6487L67.8465 11.762L66.9537 12.9212L67.9069 11.8354L68 15.2973L68.0932 11.8354L69.0464 12.9212L68.1536 11.762Z" fill="#EFB85F"/>
<path d="M137.154 76.762L140 76.6487L137.154 76.5354L138.046 75.3761L137.093 76.4619L137 73L136.907 76.4619L135.954 75.3761L136.847 76.5354L134 76.6487L136.847 76.762L135.954 77.9212L136.907 76.8354L137 80.2973L137.093 76.8354L138.046 77.9212L137.154 76.762Z" fill="#EFB85F"/>
<path d="M129.154 95.762L132 95.6487L129.154 95.5354L130.046 94.3761L129.093 95.4619L129 92L128.907 95.4619L127.954 94.3761L128.847 95.5354L126 95.6487L128.847 95.762L127.954 96.9212L128.907 95.8354L129 99.2973L129.093 95.8354L130.046 96.9212L129.154 95.762Z" fill="#EFB85F"/>
<path d="M8.15357 18.762L11.0001 18.6487L8.15357 18.5354L9.04635 17.3761L8.09316 18.4619L8.00005 15L7.90694 18.4619L6.95375 17.3761L7.84653 18.5354L5 18.6487L7.84653 18.762L6.95375 19.9212L7.90694 18.8354L8.00005 22.2973L8.09316 18.8354L9.04635 19.9212L8.15357 18.762Z" fill="#EFB85F"/>
</svg>
