<svg width="148" height="105" viewBox="0 0 148 105" fill="none" xmlns="http://www.w3.org/2000/svg">
<rect width="147.402" height="104.882" rx="10" fill="black"/>
<path d="M9.98987 48.9414C9.96383 48.9414 9.95081 48.9284 9.95081 48.9023V48.7852C9.95081 48.7591 9.96383 48.7461 9.98987 48.7461H10.1071C10.387 48.7461 10.6311 48.6875 10.8395 48.5703C10.9241 48.5215 10.9941 48.4466 11.0494 48.3457C11.1048 48.2415 11.1324 48.126 11.1324 47.999V42.833C11.1324 42.6312 11.0022 42.4766 10.7418 42.3691C10.5595 42.291 10.3658 42.252 10.1608 42.252H10.0533C10.0273 42.252 10.0143 42.2389 10.0143 42.2129V42.0957C10.0143 42.0697 10.0273 42.0566 10.0533 42.0566H13.359C13.3851 42.0566 13.3981 42.0697 13.3981 42.0957V42.2129C13.3981 42.2389 13.3851 42.252 13.359 42.252H13.149C12.8138 42.252 12.5175 42.2992 12.2604 42.3936C12.1855 42.4196 12.1367 42.4635 12.1139 42.5254C12.0944 42.584 12.0846 42.6865 12.0846 42.833V48.248C12.0911 48.3034 12.1204 48.3555 12.1725 48.4043C12.2246 48.4531 12.2832 48.4775 12.3483 48.4775H14.277C14.5667 48.4775 14.8515 48.3066 15.1315 47.9648C15.2063 47.8737 15.2991 47.7533 15.4098 47.6035C15.5205 47.4505 15.5888 47.3643 15.6149 47.3447C15.719 47.2666 15.7711 47.2682 15.7711 47.3496C15.7711 47.3691 15.7662 47.3887 15.7565 47.4082L15.0192 48.8535C14.9899 48.9121 14.9557 48.9414 14.9166 48.9414H9.98987ZM17.8024 42.9551C17.8024 43.5605 17.5175 44.0651 16.9479 44.4688C16.8177 44.5632 16.7184 44.6104 16.65 44.6104C16.6045 44.6104 16.5817 44.5827 16.5817 44.5273C16.5817 44.4688 16.5914 44.4281 16.611 44.4053C16.6305 44.3792 16.6533 44.3564 16.6793 44.3369C16.7054 44.3174 16.7298 44.2995 16.7526 44.2832C16.7786 44.2669 16.8095 44.2441 16.8453 44.2148C17.1709 43.9186 17.3336 43.6501 17.3336 43.4092C17.3336 43.2692 17.2734 43.1992 17.153 43.1992C16.8274 43.1992 16.611 43.0967 16.5035 42.8916C16.4645 42.8167 16.4449 42.7126 16.4449 42.5791C16.4449 42.4456 16.5035 42.3252 16.6207 42.2178C16.7412 42.1104 16.8698 42.0566 17.0065 42.0566C17.2604 42.0566 17.4557 42.1576 17.5924 42.3594C17.7324 42.5579 17.8024 42.7565 17.8024 42.9551ZM19.1549 46.3682C19.0996 46.3682 19.0719 46.487 19.0719 46.7246C19.0719 47.2292 19.2216 47.6523 19.5211 47.9941C19.8206 48.3359 20.1917 48.5068 20.6344 48.5068C21.0804 48.5068 21.5084 48.3148 21.9186 47.9307C21.9251 47.9242 21.9332 47.9209 21.943 47.9209H21.9674C21.9869 47.9209 22.0048 47.9372 22.0211 47.9697C22.0406 47.999 22.0586 48.0186 22.0748 48.0283C21.6972 48.4873 21.2529 48.8047 20.7418 48.9805C20.566 49.0423 20.3675 49.0732 20.1461 49.0732C19.9248 49.0732 19.7002 49.013 19.4723 48.8926C19.2444 48.7689 19.0491 48.6077 18.8864 48.4092C18.5413 47.9958 18.3688 47.4814 18.3688 46.8662C18.3688 46.2477 18.5559 45.6846 18.9303 45.1768C19.3079 44.6689 19.8255 44.415 20.483 44.415C20.955 44.415 21.3408 44.6266 21.6403 45.0498C21.9397 45.4697 22.0895 45.8392 22.0895 46.1582C22.0895 46.2982 22.0553 46.3682 21.9869 46.3682H19.1549ZM19.2086 45.8994C19.2086 45.9613 19.2379 45.9922 19.2965 45.9922H21.1373C21.222 45.9922 21.2643 45.9417 21.2643 45.8408C21.2643 45.6064 21.1585 45.3672 20.9469 45.123C20.7386 44.8757 20.5091 44.752 20.2584 44.752C20.0143 44.752 19.7913 44.8626 19.5895 45.084C19.3909 45.3053 19.264 45.5576 19.2086 45.8408V45.8994ZM19.7946 43.5898C19.7815 43.5768 19.775 43.5671 19.775 43.5605C19.775 43.554 19.7815 43.5443 19.7946 43.5312L20.8346 42.0908C20.9518 41.9313 21.0673 41.8516 21.1813 41.8516C21.2952 41.8516 21.3847 41.889 21.4498 41.9639C21.5182 42.0355 21.5524 42.1331 21.5524 42.2568C21.5524 42.3805 21.4628 42.5189 21.2838 42.6719L19.9703 43.7314C19.9541 43.7412 19.941 43.7461 19.9313 43.7461C19.9215 43.7461 19.9117 43.7412 19.902 43.7314L19.7946 43.5898ZM24.0963 45.1865C24.0768 45.1865 24.067 45.2012 24.067 45.2305V47.9258C24.067 48.1211 24.1093 48.2741 24.194 48.3848C24.2819 48.4954 24.3925 48.5508 24.526 48.5508C24.6595 48.5508 24.775 48.5296 24.8727 48.4873C24.9736 48.4417 25.0599 48.3929 25.1315 48.3408C25.2063 48.2887 25.2731 48.2415 25.3317 48.1992C25.3903 48.1536 25.4423 48.1309 25.4879 48.1309C25.5335 48.1309 25.5563 48.1423 25.5563 48.165C25.5563 48.2432 25.5481 48.2936 25.5319 48.3164C25.1412 48.821 24.7636 49.0732 24.399 49.0732C24.0377 49.0732 23.7643 48.9593 23.5787 48.7314C23.3964 48.5003 23.3053 48.2253 23.3053 47.9062V45.1865H22.9391C22.8479 45.1865 22.7991 45.1572 22.7926 45.0986C22.7893 45.04 22.7991 45.0026 22.8219 44.9863C22.9944 44.8757 23.2321 44.6771 23.5348 44.3906C23.5673 44.3548 23.6113 44.3011 23.6666 44.2295C23.722 44.1579 23.8017 44.0602 23.9059 43.9365C24.0133 43.8128 24.0947 43.751 24.15 43.751C24.2054 43.751 24.233 43.7738 24.233 43.8193C24.233 43.8258 24.1777 44.0391 24.067 44.459C24.067 44.5176 24.0931 44.5485 24.1451 44.5518H25.3903C25.5335 44.5518 25.6051 44.7536 25.6051 45.1572C25.6051 45.1768 25.5921 45.1865 25.566 45.1865H24.0963ZM26.0983 46.749C26.0983 46.1077 26.3245 45.5576 26.777 45.0986C27.2327 44.6364 27.778 44.4053 28.4127 44.4053C29.0475 44.4053 29.5992 44.6299 30.068 45.0791C30.5367 45.5251 30.7711 46.0768 30.7711 46.7344C30.7711 47.3919 30.5481 47.9469 30.1022 48.3994C29.6595 48.8486 29.1028 49.0732 28.4323 49.0732C27.7617 49.0732 27.205 48.8454 26.7623 48.3896C26.3196 47.9339 26.0983 47.387 26.0983 46.749ZM27.3141 48.0039C27.6331 48.541 28.0677 48.8096 28.6178 48.8096C29.0442 48.8096 29.3698 48.6387 29.5944 48.2969C29.8222 47.9551 29.9362 47.5352 29.9362 47.0371C29.9362 46.5391 29.7767 46.028 29.4576 45.5039C29.1419 44.9798 28.7155 44.7178 28.1783 44.7178C27.7845 44.7178 27.4736 44.8887 27.2457 45.2305C27.0211 45.569 26.9088 46.0003 26.9088 46.5244C26.9088 47.0452 27.0439 47.5384 27.3141 48.0039ZM31.484 48.9414C31.4515 48.9349 31.4352 48.9121 31.4352 48.873C31.4352 48.8145 31.5117 48.7754 31.6647 48.7559C32.0162 48.7038 32.192 48.5182 32.192 48.1992V45.6162C32.192 45.4795 32.1171 45.3851 31.9674 45.333C31.9023 45.3102 31.8323 45.2923 31.7574 45.2793C31.6826 45.263 31.6224 45.2484 31.5768 45.2354C31.5345 45.2223 31.5068 45.2109 31.4938 45.2012C31.484 45.1882 31.4791 45.1637 31.4791 45.1279C31.4791 45.0889 31.5035 45.0563 31.5524 45.0303L32.7975 44.4443C32.8365 44.4248 32.861 44.415 32.8707 44.415C32.9261 44.415 32.9537 44.4541 32.9537 44.5322V48.1992C32.9537 48.5182 33.1295 48.7038 33.4811 48.7559C33.6341 48.7754 33.7106 48.8096 33.7106 48.8584C33.7106 48.9072 33.6943 48.9349 33.6617 48.9414H31.484ZM32.4996 43.043C32.3662 43.043 32.2474 43.0007 32.1432 42.916C32.0423 42.8314 31.9918 42.7142 31.9918 42.5645C31.9918 42.4115 32.0406 42.291 32.1383 42.2031C32.236 42.1152 32.3515 42.0713 32.485 42.0713C32.6217 42.0713 32.7356 42.1234 32.8268 42.2275C32.9212 42.3317 32.9684 42.444 32.9684 42.5645C32.9684 42.6849 32.9244 42.7956 32.8365 42.8965C32.7487 42.9941 32.6364 43.043 32.4996 43.043ZM36.0983 48.7559C36.2513 48.7754 36.3278 48.8145 36.3278 48.873C36.3278 48.9121 36.3115 48.9349 36.2789 48.9414H34.1012C34.0686 48.9349 34.0524 48.9121 34.0524 48.873C34.0524 48.8145 34.1289 48.7754 34.2819 48.7559C34.6334 48.7038 34.8092 48.5182 34.8092 48.1992V42.1104C34.8092 41.9736 34.7343 41.8792 34.5846 41.8271C34.5195 41.8044 34.4495 41.7865 34.3746 41.7734C34.2998 41.7572 34.2395 41.7425 34.194 41.7295C34.1517 41.7165 34.124 41.7051 34.111 41.6953C34.1012 41.6823 34.0963 41.6579 34.0963 41.6221C34.0963 41.583 34.1207 41.5505 34.1696 41.5244L35.4147 40.9385C35.4537 40.9189 35.4781 40.9092 35.4879 40.9092C35.5433 40.9092 35.5709 40.9482 35.5709 41.0264V48.1992C35.5709 48.5182 35.7467 48.7038 36.0983 48.7559ZM37.6315 46.3682C37.5761 46.3682 37.5485 46.487 37.5485 46.7246C37.5485 47.2292 37.6982 47.6523 37.9977 47.9941C38.2972 48.3359 38.6683 48.5068 39.111 48.5068C39.5569 48.5068 39.985 48.3148 40.3951 47.9307C40.4017 47.9242 40.4098 47.9209 40.4196 47.9209H40.444C40.4635 47.9209 40.4814 47.9372 40.4977 47.9697C40.5172 47.999 40.5351 48.0186 40.5514 48.0283C40.1738 48.4873 39.7295 48.8047 39.2184 48.9805C39.0426 49.0423 38.844 49.0732 38.6227 49.0732C38.4013 49.0732 38.1767 49.013 37.9489 48.8926C37.721 48.7689 37.5257 48.6077 37.3629 48.4092C37.0179 47.9958 36.8453 47.4814 36.8453 46.8662C36.8453 46.2477 37.0325 45.6846 37.4069 45.1768C37.7845 44.6689 38.302 44.415 38.9596 44.415C39.4316 44.415 39.8173 44.6266 40.1168 45.0498C40.4163 45.4697 40.566 45.8392 40.566 46.1582C40.566 46.2982 40.5319 46.3682 40.4635 46.3682H37.6315ZM37.6852 45.8994C37.6852 45.9613 37.7145 45.9922 37.7731 45.9922H39.6139C39.6985 45.9922 39.7408 45.9417 39.7408 45.8408C39.7408 45.6064 39.6351 45.3672 39.4235 45.123C39.2151 44.8757 38.9856 44.752 38.735 44.752C38.4908 44.752 38.2679 44.8626 38.066 45.084C37.8675 45.3053 37.7405 45.5576 37.6852 45.8408V45.8994ZM47.0846 44.6201C47.2278 44.6689 47.3157 44.6934 47.3483 44.6934C47.3808 44.6934 47.4003 44.6934 47.4069 44.6934C47.4166 44.6901 47.428 44.6689 47.441 44.6299V42.1104C47.441 41.9736 47.3662 41.8792 47.2164 41.8271C47.1513 41.8044 47.0813 41.7865 47.0065 41.7734C46.9316 41.7572 46.8714 41.7425 46.8258 41.7295C46.7835 41.7165 46.7558 41.7051 46.7428 41.6953C46.733 41.6823 46.7281 41.6579 46.7281 41.6221C46.7281 41.583 46.7526 41.5505 46.8014 41.5244L48.0465 40.9385C48.0856 40.9189 48.11 40.9092 48.1198 40.9092C48.1751 40.9092 48.2028 40.9482 48.2028 41.0264V47.9795C48.219 48.1227 48.2597 48.2253 48.3248 48.2871C48.3899 48.349 48.4957 48.3799 48.6422 48.3799L48.9254 48.3604C48.9449 48.3604 48.9547 48.3799 48.9547 48.4189C48.9547 48.4548 48.9303 48.484 48.8815 48.5068L47.5826 49.0439C47.5436 49.0635 47.5094 49.0732 47.4801 49.0732C47.4541 49.0732 47.441 49.0326 47.441 48.9512V48.5068C47.441 48.4743 47.4329 48.458 47.4166 48.458C47.3938 48.458 47.2587 48.5312 47.0114 48.6777C46.2529 49.127 45.6132 49.1937 45.0924 48.8779C44.6757 48.624 44.3942 48.222 44.2477 47.6719C44.1793 47.4147 44.1451 47.1429 44.1451 46.8564C44.1451 46.5667 44.2037 46.2803 44.3209 45.9971C44.4414 45.7106 44.6058 45.46 44.8141 45.2451C45.2731 44.7764 45.8265 44.542 46.4742 44.542C46.7379 44.542 46.9414 44.568 47.0846 44.6201ZM44.8824 46.7148C44.8824 47.2064 45.0192 47.6377 45.2926 48.0088C45.566 48.3766 45.9469 48.5605 46.4352 48.5605C46.65 48.5605 46.8714 48.5085 47.0992 48.4043C47.3271 48.2969 47.441 48.2155 47.441 48.1602V45.6406C47.441 45.5788 47.3987 45.5055 47.3141 45.4209C47.0537 45.0628 46.707 44.8838 46.274 44.8838C45.8444 44.8838 45.5042 45.0661 45.2535 45.4307C45.0061 45.792 44.8824 46.2201 44.8824 46.7148ZM52.734 48.5117C52.7177 48.4564 52.6966 48.4385 52.6705 48.458C52.6445 48.4743 52.5387 48.5296 52.3531 48.624C51.7444 48.9268 51.2366 49.0781 50.8297 49.0781C50.4228 49.0781 50.1298 48.9479 49.9508 48.6875C49.8857 48.5898 49.8531 48.4694 49.8531 48.3262V45.3477C49.8434 45.2533 49.8011 45.1719 49.7262 45.1035C49.6253 45.0189 49.5195 44.9733 49.4088 44.9668C49.3014 44.9603 49.2477 44.9277 49.2477 44.8691C49.2477 44.8073 49.2737 44.7699 49.3258 44.7568L50.444 44.4346C50.483 44.4215 50.5205 44.415 50.5563 44.415C50.5953 44.415 50.6149 44.4427 50.6149 44.498V47.7744C50.6149 48.0023 50.7158 48.1781 50.9176 48.3018C51.1194 48.4255 51.3766 48.4873 51.6891 48.4873C52.0048 48.4873 52.288 48.3913 52.5387 48.1992C52.6168 48.1374 52.6819 48.069 52.734 47.9941V45.3477C52.7242 45.2533 52.6819 45.1719 52.6071 45.1035C52.5061 45.0189 52.4003 44.9733 52.2897 44.9668C52.1823 44.9603 52.1285 44.9277 52.1285 44.8691C52.1285 44.8073 52.1546 44.7699 52.2067 44.7568L53.3248 44.4346C53.3639 44.4215 53.4013 44.415 53.4371 44.415C53.4762 44.415 53.4957 44.4476 53.4957 44.5127V47.9795C53.512 48.1227 53.5527 48.2253 53.6178 48.2871C53.6829 48.349 53.7887 48.3799 53.9352 48.3799L54.2184 48.3604C54.2379 48.3604 54.2477 48.3799 54.2477 48.4189C54.2477 48.4548 54.2233 48.484 54.1744 48.5068L52.8756 49.0439C52.8365 49.0635 52.8024 49.0732 52.7731 49.0732C52.747 49.0732 52.734 49.0326 52.734 48.9512V48.5117ZM60.2389 48.8633C60.2389 48.9154 60.2096 48.9414 60.151 48.9414H57.4703C57.4378 48.9349 57.4215 48.9121 57.4215 48.873C57.4215 48.8145 57.498 48.7754 57.651 48.7559C58.0026 48.7038 58.1783 48.5182 58.1783 48.1992V45.2402C58.1783 45.2044 58.1588 45.1865 58.1198 45.1865H57.5875C57.5485 45.1865 57.511 45.1751 57.4752 45.1523C57.4394 45.1263 57.4215 45.0938 57.4215 45.0547C57.4215 45.0124 57.441 44.9798 57.4801 44.957C57.5354 44.9245 57.6656 44.8805 57.8707 44.8252C58.0758 44.7699 58.1783 44.6787 58.1783 44.5518V44.3906C58.1783 42.763 58.678 41.7002 59.6774 41.2021C59.7815 41.1533 59.8776 41.1289 59.9655 41.1289C60.0533 41.1289 60.1933 41.1517 60.3854 41.1973C60.5774 41.2428 60.7321 41.2656 60.8492 41.2656C60.9697 41.2656 61.1536 41.2266 61.401 41.1484L61.8453 40.9385C61.8844 40.9189 61.9088 40.9092 61.9186 40.9092C61.9739 40.9092 62.0016 40.9482 62.0016 41.0264V48.1992C62.0016 48.5182 62.1774 48.7038 62.5289 48.7559C62.6819 48.7754 62.7584 48.8096 62.7584 48.8584C62.7584 48.9072 62.7421 48.9349 62.7096 48.9414H60.5319C60.4993 48.9349 60.483 48.9121 60.483 48.873C60.483 48.8145 60.5595 48.7754 60.7125 48.7559C61.0641 48.7038 61.2399 48.5182 61.2399 48.1992V45.1865H59.0035C58.9612 45.1865 58.9401 45.2028 58.9401 45.2354V48.1016C58.9401 48.5671 59.3437 48.7998 60.151 48.7998C60.2096 48.8063 60.2389 48.8275 60.2389 48.8633ZM58.9401 44.5078C58.9401 44.5339 58.9563 44.5469 58.9889 44.5469H61.2399V42.0762C60.9436 41.8483 60.7304 41.7132 60.6002 41.6709C60.4733 41.6286 60.3317 41.6074 60.1754 41.6074C59.8434 41.6074 59.5781 41.6839 59.3795 41.8369C59.1842 41.9867 59.0621 42.1641 59.0133 42.3691C58.9645 42.5742 58.9401 42.8135 58.9401 43.0869V44.5078ZM64.0573 46.3682C64.0019 46.3682 63.9742 46.487 63.9742 46.7246C63.9742 47.2292 64.124 47.6523 64.4235 47.9941C64.7229 48.3359 65.094 48.5068 65.5367 48.5068C65.9827 48.5068 66.4108 48.3148 66.8209 47.9307C66.8274 47.9242 66.8356 47.9209 66.8453 47.9209H66.8698C66.8893 47.9209 66.9072 47.9372 66.9235 47.9697C66.943 47.999 66.9609 48.0186 66.9772 48.0283C66.5996 48.4873 66.1552 48.8047 65.6442 48.9805C65.4684 49.0423 65.2698 49.0732 65.0485 49.0732C64.8271 49.0732 64.6025 49.013 64.3746 48.8926C64.1468 48.7689 63.9515 48.6077 63.7887 48.4092C63.4436 47.9958 63.2711 47.4814 63.2711 46.8662C63.2711 46.2477 63.4583 45.6846 63.8326 45.1768C64.2102 44.6689 64.7278 44.415 65.3854 44.415C65.8574 44.415 66.2431 44.6266 66.5426 45.0498C66.8421 45.4697 66.9918 45.8392 66.9918 46.1582C66.9918 46.2982 66.9576 46.3682 66.8893 46.3682H64.0573ZM64.111 45.8994C64.111 45.9613 64.1403 45.9922 64.1989 45.9922H66.0397C66.1243 45.9922 66.1666 45.9417 66.1666 45.8408C66.1666 45.6064 66.0608 45.3672 65.8492 45.123C65.6409 44.8757 65.4114 44.752 65.1608 44.752C64.9166 44.752 64.6936 44.8626 64.4918 45.084C64.2933 45.3053 64.1663 45.5576 64.111 45.8408V45.8994ZM71.152 48.5117C71.1357 48.4564 71.1145 48.4385 71.0885 48.458C71.0625 48.4743 70.9567 48.5296 70.7711 48.624C70.1624 48.9268 69.6546 49.0781 69.2477 49.0781C68.8408 49.0781 68.5478 48.9479 68.3688 48.6875C68.3037 48.5898 68.2711 48.4694 68.2711 48.3262V45.3477C68.2614 45.2533 68.219 45.1719 68.1442 45.1035C68.0433 45.0189 67.9375 44.9733 67.8268 44.9668C67.7194 44.9603 67.6656 44.9277 67.6656 44.8691C67.6656 44.8073 67.6917 44.7699 67.7438 44.7568L68.8619 44.4346C68.901 44.4215 68.9384 44.415 68.9742 44.415C69.0133 44.415 69.0328 44.4427 69.0328 44.498V47.7744C69.0328 48.0023 69.1337 48.1781 69.3356 48.3018C69.5374 48.4255 69.7946 48.4873 70.1071 48.4873C70.4228 48.4873 70.706 48.3913 70.9567 48.1992C71.0348 48.1374 71.0999 48.069 71.152 47.9941V45.3477C71.1422 45.2533 71.0999 45.1719 71.025 45.1035C70.9241 45.0189 70.8183 44.9733 70.7076 44.9668C70.6002 44.9603 70.5465 44.9277 70.5465 44.8691C70.5465 44.8073 70.5726 44.7699 70.6246 44.7568L71.7428 44.4346C71.7819 44.4215 71.8193 44.415 71.8551 44.415C71.8942 44.415 71.9137 44.4476 71.9137 44.5127V47.9795C71.93 48.1227 71.9707 48.2253 72.0358 48.2871C72.1009 48.349 72.2067 48.3799 72.3531 48.3799L72.6364 48.3604C72.6559 48.3604 72.6656 48.3799 72.6656 48.4189C72.6656 48.4548 72.6412 48.484 72.5924 48.5068L71.2936 49.0439C71.2545 49.0635 71.2203 49.0732 71.191 49.0732C71.165 49.0732 71.152 49.0326 71.152 48.9512V48.5117ZM77.9147 44.5469C77.9505 44.5566 77.9684 44.5794 77.9684 44.6152C77.9684 44.651 77.9635 44.6771 77.9537 44.6934C77.944 44.7096 77.8724 44.7275 77.7389 44.7471C77.6054 44.7666 77.5094 44.8057 77.4508 44.8643C77.3955 44.9196 77.345 44.9831 77.2994 45.0547C77.2571 45.1263 77.2197 45.2012 77.1871 45.2793C77.1546 45.3542 77.1237 45.4225 77.0944 45.4844L75.7614 48.9316C75.7223 49.026 75.6865 49.0732 75.6539 49.0732H75.2682C75.2356 49.0732 75.1998 49.0228 75.1608 48.9219L73.8668 45.4209C73.7464 45.0921 73.5397 44.8805 73.2467 44.7861C73.2239 44.7796 73.1962 44.7747 73.1637 44.7715C73.027 44.7585 72.9586 44.7178 72.9586 44.6494C72.9586 44.5811 72.9977 44.5469 73.0758 44.5469H75.2487C75.2747 44.5469 75.2877 44.5729 75.2877 44.625C75.2877 44.6738 75.2698 44.7064 75.234 44.7227C75.1754 44.7454 75.0712 44.7552 74.9215 44.752C74.6774 44.7454 74.5553 44.8431 74.5553 45.0449L74.5846 45.1621L75.5758 47.8721C75.6409 48.0381 75.706 48.0332 75.7711 47.8574C75.7776 47.8411 75.8199 47.7354 75.8981 47.54C76.3375 46.417 76.5833 45.7676 76.6354 45.5918C76.6907 45.416 76.7184 45.2842 76.7184 45.1963C76.7184 45.1084 76.6712 45.0173 76.5768 44.9229C76.4824 44.8252 76.3554 44.7764 76.1959 44.7764C76.0364 44.7764 75.9567 44.7275 75.9567 44.6299C75.9567 44.5745 75.9925 44.5469 76.0641 44.5469H77.9147ZM79.1451 46.3682C79.0898 46.3682 79.0621 46.487 79.0621 46.7246C79.0621 47.2292 79.2119 47.6523 79.5114 47.9941C79.8108 48.3359 80.1819 48.5068 80.6246 48.5068C81.0706 48.5068 81.4987 48.3148 81.9088 47.9307C81.9153 47.9242 81.9235 47.9209 81.9332 47.9209H81.9576C81.9772 47.9209 81.9951 47.9372 82.0114 47.9697C82.0309 47.999 82.0488 48.0186 82.0651 48.0283C81.6875 48.4873 81.2431 48.8047 80.7321 48.9805C80.5563 49.0423 80.3577 49.0732 80.1364 49.0732C79.915 49.0732 79.6904 49.013 79.4625 48.8926C79.2347 48.7689 79.0393 48.6077 78.8766 48.4092C78.5315 47.9958 78.359 47.4814 78.359 46.8662C78.359 46.2477 78.5462 45.6846 78.9205 45.1768C79.2981 44.6689 79.8157 44.415 80.4733 44.415C80.9453 44.415 81.331 44.6266 81.6305 45.0498C81.93 45.4697 82.0797 45.8392 82.0797 46.1582C82.0797 46.2982 82.0455 46.3682 81.9772 46.3682H79.1451ZM79.1989 45.8994C79.1989 45.9613 79.2281 45.9922 79.2867 45.9922H81.1276C81.2122 45.9922 81.2545 45.9417 81.2545 45.8408C81.2545 45.6064 81.1487 45.3672 80.9371 45.123C80.7288 44.8757 80.4993 44.752 80.2487 44.752C80.0045 44.752 79.7815 44.8626 79.5797 45.084C79.3811 45.3053 79.2542 45.5576 79.1989 45.8408V45.8994ZM88.2565 48.8633C88.2565 48.9154 88.2272 48.9414 88.1686 48.9414H85.4879C85.4554 48.9349 85.4391 48.9121 85.4391 48.873C85.4391 48.8145 85.5156 48.7754 85.6686 48.7559C86.0201 48.7038 86.1959 48.5182 86.1959 48.1992V45.2402C86.1959 45.2044 86.1764 45.1865 86.1373 45.1865H85.6051C85.566 45.1865 85.5286 45.1751 85.4928 45.1523C85.457 45.1263 85.4391 45.0938 85.4391 45.0547C85.4391 45.0124 85.4586 44.9798 85.4977 44.957C85.553 44.9245 85.6832 44.8805 85.8883 44.8252C86.0934 44.7699 86.1959 44.6787 86.1959 44.5518V44.3906C86.1959 43.2188 86.4498 42.3171 86.9576 41.6855C87.2408 41.3307 87.6722 41.0573 88.2516 40.8652C88.4274 40.8066 88.6015 40.7773 88.774 40.7773C88.9466 40.7773 89.1484 40.8229 89.3795 40.9141C89.6106 41.002 89.7262 41.1094 89.7262 41.2363C89.7262 41.2624 89.7213 41.2852 89.7115 41.3047C89.705 41.3242 89.6969 41.3486 89.6871 41.3779L89.4869 41.8076C89.4609 41.8597 89.43 41.8857 89.3942 41.8857C89.3844 41.8857 89.3144 41.8353 89.1842 41.7344C89.054 41.6302 88.9156 41.5358 88.7692 41.4512C88.6259 41.3633 88.4567 41.3193 88.2614 41.3193C87.8805 41.3193 87.5924 41.417 87.3971 41.6123C87.2018 41.8076 87.0797 42.029 87.0309 42.2764C86.9821 42.5205 86.9576 42.7907 86.9576 43.0869V44.5078C86.9576 44.5339 86.9739 44.5469 87.0065 44.5469H87.9586C88.0498 44.5469 88.1084 44.5566 88.1344 44.5762C88.1637 44.5924 88.1914 44.651 88.2174 44.752C88.2434 44.8496 88.2565 44.9408 88.2565 45.0254C88.2565 45.1068 88.2483 45.154 88.2321 45.167C88.2158 45.18 88.1816 45.1865 88.1295 45.1865H87.0211C86.9788 45.1865 86.9576 45.2028 86.9576 45.2354V48.1016C86.9576 48.5671 87.3613 48.7998 88.1686 48.7998C88.2272 48.8063 88.2565 48.8275 88.2565 48.8633ZM91.65 48.1357C91.65 48.2204 91.6891 48.2887 91.7672 48.3408C91.8486 48.3896 91.9414 48.4141 92.0455 48.4141C92.1497 48.4141 92.236 48.388 92.3043 48.3359C92.3759 48.2806 92.4248 48.2529 92.4508 48.2529C92.4768 48.2529 92.4899 48.2887 92.4899 48.3604C92.4899 48.4287 92.4573 48.4873 92.3922 48.5361C91.9039 48.8942 91.5735 49.0732 91.401 49.0732C91.1927 49.0732 91.0234 48.8568 90.8932 48.4238C90.8834 48.3913 90.8753 48.3766 90.8688 48.3799C90.4651 48.6826 90.2112 48.8649 90.1071 48.9268C89.8401 49.0798 89.5716 49.1042 89.3014 49C89.0345 48.8958 88.8408 48.7233 88.7203 48.4824C88.6617 48.3587 88.6324 48.2269 88.6324 48.0869C88.6324 47.8102 88.735 47.5905 88.9401 47.4277C89.1451 47.265 89.5358 47.1087 90.1119 46.959C90.3073 46.9069 90.4814 46.8402 90.6344 46.7588C90.7874 46.6774 90.8671 46.6253 90.8737 46.6025C90.8834 46.5798 90.8883 46.5586 90.8883 46.5391V45.6016C90.8883 45.2337 90.7451 44.9749 90.4586 44.8252C90.3642 44.7764 90.2503 44.752 90.1168 44.752C89.9866 44.752 89.8531 44.804 89.7164 44.9082C89.583 45.0124 89.5162 45.1605 89.5162 45.3525L89.5406 45.543C89.5211 45.582 89.4039 45.6471 89.1891 45.7383C88.9742 45.8294 88.8505 45.8783 88.818 45.8848C88.7659 45.8848 88.7399 45.8229 88.7399 45.6992C88.7399 45.5723 88.7773 45.4323 88.8522 45.2793C88.927 45.1263 89.0328 44.9863 89.1696 44.8594C89.4886 44.5632 89.8531 44.415 90.2633 44.415C90.6735 44.415 91.0071 44.529 91.2643 44.7568C91.5214 44.9814 91.65 45.25 91.65 45.5625V48.1357ZM89.399 47.9941C89.399 48.1504 89.4593 48.2871 89.5797 48.4043C89.7002 48.5182 89.8369 48.5752 89.9899 48.5752C90.1461 48.5752 90.3349 48.5101 90.5563 48.3799C90.7776 48.2464 90.8883 48.1097 90.8883 47.9697V46.9785C90.8883 46.9427 90.8802 46.9248 90.8639 46.9248C90.8476 46.9248 90.8362 46.9264 90.8297 46.9297L89.6969 47.457C89.5797 47.5417 89.5 47.6133 89.4576 47.6719C89.4186 47.7305 89.399 47.8379 89.399 47.9941ZM92.9586 48.9414C92.9261 48.9349 92.9098 48.9121 92.9098 48.873C92.9098 48.8145 92.9863 48.7754 93.1393 48.7559C93.4908 48.7038 93.6666 48.5182 93.6666 48.1992V45.6162C93.6666 45.4795 93.5918 45.3851 93.442 45.333C93.3769 45.3102 93.3069 45.2923 93.2321 45.2793C93.1572 45.263 93.097 45.2484 93.0514 45.2354C93.0091 45.2223 92.9814 45.2109 92.9684 45.2012C92.9586 45.1882 92.9537 45.1637 92.9537 45.1279C92.9537 45.0889 92.9781 45.0563 93.027 45.0303L94.2721 44.4443C94.3112 44.4248 94.3356 44.415 94.3453 44.415C94.4007 44.415 94.4283 44.4541 94.4283 44.5322V48.1992C94.4283 48.5182 94.6041 48.7038 94.9557 48.7559C95.1087 48.7754 95.1852 48.8096 95.1852 48.8584C95.1852 48.9072 95.1689 48.9349 95.1364 48.9414H92.9586ZM93.9742 43.043C93.8408 43.043 93.722 43.0007 93.6178 42.916C93.5169 42.8314 93.4664 42.7142 93.4664 42.5645C93.4664 42.4115 93.5153 42.291 93.6129 42.2031C93.7106 42.1152 93.8261 42.0713 93.9596 42.0713C94.0963 42.0713 94.2102 42.1234 94.3014 42.2275C94.3958 42.3317 94.443 42.444 94.443 42.5645C94.443 42.6849 94.399 42.7956 94.3112 42.8965C94.2233 42.9941 94.111 43.043 93.9742 43.043ZM96.9576 45.1865C96.9381 45.1865 96.9283 45.2012 96.9283 45.2305V47.9258C96.9283 48.1211 96.9707 48.2741 97.0553 48.3848C97.1432 48.4954 97.2539 48.5508 97.3873 48.5508C97.5208 48.5508 97.6364 48.5296 97.734 48.4873C97.8349 48.4417 97.9212 48.3929 97.9928 48.3408C98.0677 48.2887 98.1344 48.2415 98.193 48.1992C98.2516 48.1536 98.3037 48.1309 98.3492 48.1309C98.3948 48.1309 98.4176 48.1423 98.4176 48.165C98.4176 48.2432 98.4095 48.2936 98.3932 48.3164C98.0026 48.821 97.625 49.0732 97.2604 49.0732C96.899 49.0732 96.6256 48.9593 96.4401 48.7314C96.2578 48.5003 96.1666 48.2253 96.1666 47.9062V45.1865H95.8004C95.7093 45.1865 95.6604 45.1572 95.6539 45.0986C95.6507 45.04 95.6604 45.0026 95.6832 44.9863C95.8558 44.8757 96.0934 44.6771 96.3961 44.3906C96.4287 44.3548 96.4726 44.3011 96.528 44.2295C96.5833 44.1579 96.663 44.0602 96.7672 43.9365C96.8746 43.8128 96.956 43.751 97.0114 43.751C97.0667 43.751 97.0944 43.7738 97.0944 43.8193C97.0944 43.8258 97.039 44.0391 96.9283 44.459C96.9283 44.5176 96.9544 44.5485 97.0065 44.5518H98.2516C98.3948 44.5518 98.4664 44.7536 98.4664 45.1572C98.4664 45.1768 98.4534 45.1865 98.4274 45.1865H96.9576ZM105.297 48.4287C104.848 48.8584 104.344 49.0732 103.784 49.0732C103.582 49.0732 103.307 49.0358 102.959 48.9609C102.903 48.9609 102.872 48.9805 102.866 49.0195C102.863 49.0586 102.859 49.0993 102.856 49.1416V51.2266C102.856 51.4707 102.998 51.6335 103.281 51.7148C103.405 51.7474 103.52 51.7702 103.628 51.7832C103.735 51.7995 103.803 51.8141 103.833 51.8271C103.865 51.8402 103.881 51.8646 103.881 51.9004C103.881 51.9395 103.865 51.9622 103.833 51.9688H101.386C101.354 51.9622 101.338 51.9395 101.338 51.9004C101.338 51.8418 101.414 51.8027 101.567 51.7832C101.919 51.7311 102.094 51.5456 102.094 51.2266V45.3721C102.094 45.2354 102.019 45.141 101.87 45.0889C101.805 45.0661 101.735 45.0482 101.66 45.0352C101.585 45.0189 101.525 45.0042 101.479 44.9912C101.437 44.9782 101.409 44.9668 101.396 44.957C101.386 44.944 101.381 44.9196 101.381 44.8838C101.381 44.8447 101.406 44.8122 101.455 44.7861L102.7 44.1904C102.726 44.1774 102.752 44.1709 102.778 44.1709C102.83 44.1709 102.856 44.21 102.856 44.2881V44.9082C102.856 44.944 102.874 44.9619 102.91 44.9619C102.949 44.9619 103.04 44.9147 103.183 44.8203C103.597 44.5534 104.026 44.4199 104.472 44.4199C104.785 44.4199 105.071 44.5469 105.332 44.8008C105.673 45.1328 105.901 45.5951 106.015 46.1875C106.048 46.3568 106.064 46.5374 106.064 46.7295C106.064 46.9183 106.033 47.1185 105.971 47.3301C105.848 47.75 105.623 48.1162 105.297 48.4287ZM103.901 44.9277C103.458 44.9277 103.11 45.0547 102.856 45.3086V48.0527C102.856 48.2155 102.884 48.3213 102.939 48.3701C103.082 48.4938 103.302 48.5898 103.598 48.6582C104.184 48.7917 104.64 48.6517 104.965 48.2383C105.197 47.9421 105.312 47.584 105.312 47.1641C105.312 46.347 105.128 45.735 104.76 45.3281C104.539 45.0807 104.253 44.9473 103.901 44.9277ZM109.961 48.1357C109.961 48.2204 110 48.2887 110.078 48.3408C110.159 48.3896 110.252 48.4141 110.356 48.4141C110.46 48.4141 110.547 48.388 110.615 48.3359C110.686 48.2806 110.735 48.2529 110.761 48.2529C110.787 48.2529 110.8 48.2887 110.8 48.3604C110.8 48.4287 110.768 48.4873 110.703 48.5361C110.214 48.8942 109.884 49.0732 109.712 49.0732C109.503 49.0732 109.334 48.8568 109.204 48.4238C109.194 48.3913 109.186 48.3766 109.179 48.3799C108.776 48.6826 108.522 48.8649 108.418 48.9268C108.151 49.0798 107.882 49.1042 107.612 49C107.345 48.8958 107.151 48.7233 107.031 48.4824C106.972 48.3587 106.943 48.2269 106.943 48.0869C106.943 47.8102 107.046 47.5905 107.251 47.4277C107.456 47.265 107.846 47.1087 108.422 46.959C108.618 46.9069 108.792 46.8402 108.945 46.7588C109.098 46.6774 109.178 46.6253 109.184 46.6025C109.194 46.5798 109.199 46.5586 109.199 46.5391V45.6016C109.199 45.2337 109.056 44.9749 108.769 44.8252C108.675 44.7764 108.561 44.752 108.427 44.752C108.297 44.752 108.164 44.804 108.027 44.9082C107.894 45.0124 107.827 45.1605 107.827 45.3525L107.851 45.543C107.832 45.582 107.714 45.6471 107.5 45.7383C107.285 45.8294 107.161 45.8783 107.129 45.8848C107.076 45.8848 107.05 45.8229 107.05 45.6992C107.05 45.5723 107.088 45.4323 107.163 45.2793C107.238 45.1263 107.343 44.9863 107.48 44.8594C107.799 44.5632 108.164 44.415 108.574 44.415C108.984 44.415 109.318 44.529 109.575 44.7568C109.832 44.9814 109.961 45.25 109.961 45.5625V48.1357ZM107.71 47.9941C107.71 48.1504 107.77 48.2871 107.89 48.4043C108.011 48.5182 108.147 48.5752 108.3 48.5752C108.457 48.5752 108.645 48.5101 108.867 48.3799C109.088 48.2464 109.199 48.1097 109.199 47.9697V46.9785C109.199 46.9427 109.191 46.9248 109.174 46.9248C109.158 46.9248 109.147 46.9264 109.14 46.9297L108.007 47.457C107.89 47.5417 107.811 47.6133 107.768 47.6719C107.729 47.7305 107.71 47.8379 107.71 47.9941ZM114.238 45.4404C114.199 45.4339 114.142 45.4128 114.067 45.377C113.797 45.2533 113.585 45.1914 113.432 45.1914C113.279 45.1914 113.118 45.2874 112.949 45.4795C112.783 45.6683 112.7 45.8392 112.7 45.9922V48.1992C112.7 48.4434 112.841 48.6061 113.125 48.6875C113.248 48.7201 113.364 48.7445 113.471 48.7607C113.579 48.7738 113.647 48.7868 113.676 48.7998C113.709 48.8128 113.725 48.8389 113.725 48.8779C113.725 48.9137 113.709 48.9349 113.676 48.9414H111.23C111.198 48.9349 111.181 48.9121 111.181 48.873C111.181 48.8145 111.258 48.7754 111.411 48.7559C111.762 48.7038 111.938 48.5182 111.938 48.1992V45.6162C111.938 45.4795 111.863 45.3851 111.714 45.333C111.648 45.3102 111.578 45.2923 111.504 45.2793C111.429 45.263 111.368 45.2484 111.323 45.2354C111.281 45.2223 111.253 45.2109 111.24 45.2012C111.23 45.1882 111.225 45.1637 111.225 45.1279C111.225 45.0889 111.25 45.0563 111.298 45.0303L112.544 44.4443C112.583 44.4248 112.607 44.415 112.617 44.415C112.672 44.415 112.7 44.4541 112.7 44.5322V45.3232C112.7 45.3623 112.71 45.3818 112.729 45.3818C112.755 45.3818 112.822 45.3053 112.929 45.1523C113.239 44.7194 113.494 44.5029 113.696 44.5029C113.81 44.5029 113.984 44.5485 114.218 44.6396C114.456 44.7308 114.575 44.8073 114.575 44.8691C114.575 44.944 114.537 45.0579 114.463 45.2109C114.388 45.3639 114.313 45.4404 114.238 45.4404ZM116.108 45.1865C116.089 45.1865 116.079 45.2012 116.079 45.2305V47.9258C116.079 48.1211 116.121 48.2741 116.206 48.3848C116.294 48.4954 116.404 48.5508 116.538 48.5508C116.671 48.5508 116.787 48.5296 116.884 48.4873C116.985 48.4417 117.072 48.3929 117.143 48.3408C117.218 48.2887 117.285 48.2415 117.343 48.1992C117.402 48.1536 117.454 48.1309 117.5 48.1309C117.545 48.1309 117.568 48.1423 117.568 48.165C117.568 48.2432 117.56 48.2936 117.544 48.3164C117.153 48.821 116.775 49.0732 116.411 49.0732C116.049 49.0732 115.776 48.9593 115.59 48.7314C115.408 48.5003 115.317 48.2253 115.317 47.9062V45.1865H114.951C114.86 45.1865 114.811 45.1572 114.804 45.0986C114.801 45.04 114.811 45.0026 114.834 44.9863C115.006 44.8757 115.244 44.6771 115.547 44.3906C115.579 44.3548 115.623 44.3011 115.678 44.2295C115.734 44.1579 115.813 44.0602 115.918 43.9365C116.025 43.8128 116.106 43.751 116.162 43.751C116.217 43.751 116.245 43.7738 116.245 43.8193C116.245 43.8258 116.189 44.0391 116.079 44.459C116.079 44.5176 116.105 44.5485 116.157 44.5518H117.402C117.545 44.5518 117.617 44.7536 117.617 45.1572C117.617 45.1768 117.604 45.1865 117.578 45.1865H116.108ZM118.086 48.9414C118.053 48.9349 118.037 48.9121 118.037 48.873C118.037 48.8145 118.113 48.7754 118.266 48.7559C118.618 48.7038 118.794 48.5182 118.794 48.1992V45.6162C118.794 45.4795 118.719 45.3851 118.569 45.333C118.504 45.3102 118.434 45.2923 118.359 45.2793C118.284 45.263 118.224 45.2484 118.178 45.2354C118.136 45.2223 118.108 45.2109 118.095 45.2012C118.086 45.1882 118.081 45.1637 118.081 45.1279C118.081 45.0889 118.105 45.0563 118.154 45.0303L119.399 44.4443C119.438 44.4248 119.463 44.415 119.472 44.415C119.528 44.415 119.555 44.4541 119.555 44.5322V48.1992C119.555 48.5182 119.731 48.7038 120.083 48.7559C120.236 48.7754 120.312 48.8096 120.312 48.8584C120.312 48.9072 120.296 48.9349 120.263 48.9414H118.086ZM119.101 43.043C118.968 43.043 118.849 43.0007 118.745 42.916C118.644 42.8314 118.593 42.7142 118.593 42.5645C118.593 42.4115 118.642 42.291 118.74 42.2031C118.838 42.1152 118.953 42.0713 119.087 42.0713C119.223 42.0713 119.337 42.1234 119.428 42.2275C119.523 42.3317 119.57 42.444 119.57 42.5645C119.57 42.6849 119.526 42.7956 119.438 42.8965C119.35 42.9941 119.238 43.043 119.101 43.043ZM121.684 46.3682C121.629 46.3682 121.601 46.487 121.601 46.7246C121.601 47.2292 121.751 47.6523 122.05 47.9941C122.35 48.3359 122.721 48.5068 123.164 48.5068C123.61 48.5068 124.038 48.3148 124.448 47.9307C124.454 47.9242 124.463 47.9209 124.472 47.9209H124.497C124.516 47.9209 124.534 47.9372 124.55 47.9697C124.57 47.999 124.588 48.0186 124.604 48.0283C124.227 48.4873 123.782 48.8047 123.271 48.9805C123.095 49.0423 122.897 49.0732 122.675 49.0732C122.454 49.0732 122.229 49.013 122.002 48.8926C121.774 48.7689 121.578 48.6077 121.416 48.4092C121.071 47.9958 120.898 47.4814 120.898 46.8662C120.898 46.2477 121.085 45.6846 121.46 45.1768C121.837 44.6689 122.355 44.415 123.012 44.415C123.484 44.415 123.87 44.6266 124.17 45.0498C124.469 45.4697 124.619 45.8392 124.619 46.1582C124.619 46.2982 124.585 46.3682 124.516 46.3682H121.684ZM121.738 45.8994C121.738 45.9613 121.767 45.9922 121.826 45.9922H123.667C123.751 45.9922 123.794 45.9417 123.794 45.8408C123.794 45.6064 123.688 45.3672 123.476 45.123C123.268 44.8757 123.038 44.752 122.788 44.752C122.544 44.752 122.321 44.8626 122.119 45.084C121.92 45.3053 121.793 45.5576 121.738 45.8408V45.8994ZM131.137 44.6201C131.281 44.6689 131.368 44.6934 131.401 44.6934C131.434 44.6934 131.453 44.6934 131.46 44.6934C131.469 44.6901 131.481 44.6689 131.494 44.6299V42.1104C131.494 41.9736 131.419 41.8792 131.269 41.8271C131.204 41.8044 131.134 41.7865 131.059 41.7734C130.984 41.7572 130.924 41.7425 130.879 41.7295C130.836 41.7165 130.809 41.7051 130.796 41.6953C130.786 41.6823 130.781 41.6579 130.781 41.6221C130.781 41.583 130.805 41.5505 130.854 41.5244L132.099 40.9385C132.138 40.9189 132.163 40.9092 132.172 40.9092C132.228 40.9092 132.255 40.9482 132.255 41.0264V47.9795C132.272 48.1227 132.312 48.2253 132.378 48.2871C132.443 48.349 132.548 48.3799 132.695 48.3799L132.978 48.3604C132.998 48.3604 133.007 48.3799 133.007 48.4189C133.007 48.4548 132.983 48.484 132.934 48.5068L131.635 49.0439C131.596 49.0635 131.562 49.0732 131.533 49.0732C131.507 49.0732 131.494 49.0326 131.494 48.9512V48.5068C131.494 48.4743 131.486 48.458 131.469 48.458C131.447 48.458 131.311 48.5312 131.064 48.6777C130.306 49.127 129.666 49.1937 129.145 48.8779C128.728 48.624 128.447 48.222 128.3 47.6719C128.232 47.4147 128.198 47.1429 128.198 46.8564C128.198 46.5667 128.256 46.2803 128.374 45.9971C128.494 45.7106 128.658 45.46 128.867 45.2451C129.326 44.7764 129.879 44.542 130.527 44.542C130.791 44.542 130.994 44.568 131.137 44.6201ZM128.935 46.7148C128.935 47.2064 129.072 47.6377 129.345 48.0088C129.619 48.3766 130 48.5605 130.488 48.5605C130.703 48.5605 130.924 48.5085 131.152 48.4043C131.38 48.2969 131.494 48.2155 131.494 48.1602V45.6406C131.494 45.5788 131.451 45.5055 131.367 45.4209C131.106 45.0628 130.76 44.8838 130.327 44.8838C129.897 44.8838 129.557 45.0661 129.306 45.4307C129.059 45.792 128.935 46.2201 128.935 46.7148ZM134.233 46.3682C134.178 46.3682 134.15 46.487 134.15 46.7246C134.15 47.2292 134.3 47.6523 134.599 47.9941C134.899 48.3359 135.27 48.5068 135.713 48.5068C136.158 48.5068 136.587 48.3148 136.997 47.9307C137.003 47.9242 137.011 47.9209 137.021 47.9209H137.046C137.065 47.9209 137.083 47.9372 137.099 47.9697C137.119 47.999 137.137 48.0186 137.153 48.0283C136.775 48.4873 136.331 48.8047 135.82 48.9805C135.644 49.0423 135.446 49.0732 135.224 49.0732C135.003 49.0732 134.778 49.013 134.55 48.8926C134.323 48.7689 134.127 48.6077 133.964 48.4092C133.619 47.9958 133.447 47.4814 133.447 46.8662C133.447 46.2477 133.634 45.6846 134.008 45.1768C134.386 44.6689 134.904 44.415 135.561 44.415C136.033 44.415 136.419 44.6266 136.718 45.0498C137.018 45.4697 137.168 45.8392 137.168 46.1582C137.168 46.2982 137.133 46.3682 137.065 46.3682H134.233ZM134.287 45.8994C134.287 45.9613 134.316 45.9922 134.375 45.9922H136.215C136.3 45.9922 136.342 45.9417 136.342 45.8408C136.342 45.6064 136.237 45.3672 136.025 45.123C135.817 44.8757 135.587 44.752 135.337 44.752C135.092 44.752 134.869 44.8626 134.668 45.084C134.469 45.3053 134.342 45.5576 134.287 45.8408V45.8994ZM15.3951 62.7559C15.5481 62.7754 15.6246 62.8145 15.6246 62.873C15.6246 62.9121 15.6084 62.9349 15.5758 62.9414H13.3981C13.3655 62.9349 13.3492 62.9121 13.3492 62.873C13.3492 62.8145 13.4257 62.7754 13.5787 62.7559C13.9303 62.7038 14.1061 62.5182 14.1061 62.1992V56.1104C14.1061 55.9736 14.0312 55.8792 13.8815 55.8271C13.8164 55.8044 13.7464 55.7865 13.6715 55.7734C13.5966 55.7572 13.5364 55.7425 13.4908 55.7295C13.4485 55.7165 13.4209 55.7051 13.4078 55.6953C13.3981 55.6823 13.3932 55.6579 13.3932 55.6221C13.3932 55.583 13.4176 55.5505 13.4664 55.5244L14.7115 54.9385C14.7506 54.9189 14.775 54.9092 14.7848 54.9092C14.8401 54.9092 14.8678 54.9482 14.8678 55.0264V62.1992C14.8678 62.5182 15.0436 62.7038 15.3951 62.7559ZM19.1598 62.1357C19.1598 62.2204 19.1989 62.2887 19.277 62.3408C19.3584 62.3896 19.4511 62.4141 19.5553 62.4141C19.6595 62.4141 19.7457 62.388 19.8141 62.3359C19.8857 62.2806 19.9345 62.2529 19.9606 62.2529C19.9866 62.2529 19.9996 62.2887 19.9996 62.3604C19.9996 62.4287 19.9671 62.4873 19.902 62.5361C19.4137 62.8942 19.0833 63.0732 18.9108 63.0732C18.7024 63.0732 18.5332 62.8568 18.403 62.4238C18.3932 62.3913 18.3851 62.3766 18.3785 62.3799C17.9749 62.6826 17.721 62.8649 17.6168 62.9268C17.3499 63.0798 17.0813 63.1042 16.8112 63C16.5442 62.8958 16.3505 62.7233 16.2301 62.4824C16.1715 62.3587 16.1422 62.2269 16.1422 62.0869C16.1422 61.8102 16.2448 61.5905 16.4498 61.4277C16.6549 61.265 17.0455 61.1087 17.6217 60.959C17.817 60.9069 17.9912 60.8402 18.1442 60.7588C18.2972 60.6774 18.3769 60.6253 18.3834 60.6025C18.3932 60.5798 18.3981 60.5586 18.3981 60.5391V59.6016C18.3981 59.2337 18.2548 58.9749 17.9684 58.8252C17.874 58.7764 17.7601 58.752 17.6266 58.752C17.4964 58.752 17.3629 58.804 17.2262 58.9082C17.0927 59.0124 17.026 59.1605 17.026 59.3525L17.0504 59.543C17.0309 59.582 16.9137 59.6471 16.6989 59.7383C16.484 59.8294 16.3603 59.8783 16.3278 59.8848C16.2757 59.8848 16.2496 59.8229 16.2496 59.6992C16.2496 59.5723 16.2871 59.4323 16.3619 59.2793C16.4368 59.1263 16.5426 58.9863 16.6793 58.8594C16.9983 58.5632 17.3629 58.415 17.7731 58.415C18.1832 58.415 18.5169 58.529 18.774 58.7568C19.0312 58.9814 19.1598 59.25 19.1598 59.5625V62.1357ZM16.9088 61.9941C16.9088 62.1504 16.969 62.2871 17.0895 62.4043C17.2099 62.5182 17.3466 62.5752 17.4996 62.5752C17.6559 62.5752 17.8447 62.5101 18.066 62.3799C18.2874 62.2464 18.3981 62.1097 18.3981 61.9697V60.9785C18.3981 60.9427 18.3899 60.9248 18.3737 60.9248C18.3574 60.9248 18.346 60.9264 18.3395 60.9297L17.2067 61.457C17.0895 61.5417 17.0097 61.6133 16.9674 61.6719C16.9283 61.7305 16.9088 61.8379 16.9088 61.9941ZM26.9869 59.001C26.9869 59.2288 26.8551 59.3428 26.5914 59.3428C26.458 59.3428 26.344 59.3053 26.2496 59.2305C26.1585 59.1523 26.0869 59.0872 26.0348 59.0352C25.986 58.9798 25.9339 58.9294 25.8785 58.8838C25.6442 58.6917 25.3577 58.6706 25.0192 58.8203C24.6839 58.9701 24.4251 59.2891 24.2428 59.7773C24.1419 60.0475 24.0914 60.3161 24.0914 60.583C24.0914 61.1559 24.2216 61.6247 24.4821 61.9893C24.7425 62.3506 25.1412 62.5312 25.6783 62.5312C26.0787 62.5312 26.4384 62.3522 26.7574 61.9941C26.8551 61.8867 26.9137 61.833 26.9332 61.833C26.9528 61.833 26.9739 61.8428 26.9967 61.8623C27.0195 61.8818 27.0309 61.9111 27.0309 61.9502C27.0309 61.986 27.0211 62.0137 27.0016 62.0332C26.5035 62.7266 25.8769 63.0732 25.1217 63.0732C24.5748 63.0732 24.1256 62.8698 23.774 62.4629C23.4257 62.056 23.2516 61.5905 23.2516 61.0664C23.2548 60.0964 23.4892 59.3981 23.9547 58.9717C24.3649 58.5973 24.9492 58.4102 25.7076 58.4102C26.1764 58.4102 26.4873 58.4574 26.6403 58.5518C26.7933 58.6462 26.9007 58.765 26.9625 58.9082C26.9788 58.9408 26.9869 58.9717 26.9869 59.001ZM27.7389 60.749C27.7389 60.1077 27.9651 59.5576 28.4176 59.0986C28.8733 58.6364 29.4186 58.4053 30.0533 58.4053C30.6881 58.4053 31.2399 58.6299 31.7086 59.0791C32.1774 59.5251 32.4117 60.0768 32.4117 60.7344C32.4117 61.3919 32.1888 61.9469 31.7428 62.3994C31.3001 62.8486 30.7434 63.0732 30.0729 63.0732C29.4023 63.0732 28.8457 62.8454 28.403 62.3896C27.9602 61.9339 27.7389 61.387 27.7389 60.749ZM28.9547 62.0039C29.2737 62.541 29.7083 62.8096 30.2584 62.8096C30.6849 62.8096 31.0104 62.6387 31.235 62.2969C31.4628 61.9551 31.5768 61.5352 31.5768 61.0371C31.5768 60.5391 31.4173 60.028 31.0983 59.5039C30.7825 58.9798 30.3561 58.7178 29.819 58.7178C29.4251 58.7178 29.1142 58.8887 28.8864 59.2305C28.6617 59.569 28.5494 60.0003 28.5494 60.5244C28.5494 61.0452 28.6845 61.5384 28.9547 62.0039ZM36.7086 61.4033L36.6989 60.373C36.6989 59.9531 36.663 59.6585 36.5914 59.4893C36.5198 59.32 36.4287 59.193 36.318 59.1084C36.2073 59.0205 36.0576 58.9766 35.8688 58.9766C35.6832 58.9766 35.2877 59.123 34.6823 59.416C34.6009 59.4648 34.5586 59.5104 34.5553 59.5527V62.1797C34.5553 62.5085 34.7311 62.6973 35.0826 62.7461C35.2356 62.7689 35.3121 62.8063 35.3121 62.8584C35.3121 62.9072 35.2959 62.9349 35.2633 62.9414H33.0856C33.053 62.9349 33.0367 62.9121 33.0367 62.873C33.0367 62.8112 33.1132 62.7689 33.2662 62.7461C33.6178 62.6973 33.7936 62.5085 33.7936 62.1797V59.377C33.7936 59.2402 33.7187 59.1458 33.569 59.0938C33.5039 59.071 33.4339 59.0531 33.359 59.04C33.2841 59.0238 33.2239 59.0091 33.1783 58.9961C33.136 58.9831 33.1084 58.9717 33.0953 58.9619C33.0856 58.9489 33.0807 58.9245 33.0807 58.8887C33.0807 58.8496 33.1051 58.8171 33.1539 58.791L34.399 58.2051C34.4381 58.1855 34.4625 58.1758 34.4723 58.1758C34.5276 58.1758 34.5553 58.2148 34.5553 58.293V59.0547C34.5651 59.0872 34.5781 59.1035 34.5944 59.1035C34.6139 59.1035 34.6839 59.0742 34.8043 59.0156C35.0843 58.8757 35.3658 58.7406 35.649 58.6104C35.9323 58.4801 36.1666 58.415 36.3522 58.415C37.1041 58.415 37.4801 59.1003 37.4801 60.4707L37.4362 61.8965V62.1797C37.4362 62.4336 37.5631 62.5996 37.817 62.6777C37.9244 62.7135 38.027 62.7396 38.1246 62.7559C38.2255 62.7689 38.2906 62.7819 38.3199 62.7949C38.3525 62.8079 38.3688 62.834 38.3688 62.873C38.3688 62.9121 38.3525 62.9349 38.3199 62.9414H35.9664C35.9339 62.9349 35.9176 62.9121 35.9176 62.873C35.9176 62.8112 35.9941 62.7689 36.1471 62.7461C36.4954 62.6973 36.6696 62.4954 36.6696 62.1406C36.6956 61.9779 36.7086 61.7321 36.7086 61.4033ZM41.1764 59.6016C41.1764 59.6732 41.1487 59.709 41.0934 59.709C41.0413 59.709 41.0006 59.6699 40.9713 59.5918C40.8932 59.377 40.776 59.1865 40.6198 59.0205C40.4668 58.8545 40.2763 58.7715 40.0485 58.7715C39.749 58.7715 39.5472 58.9212 39.443 59.2207C39.4104 59.3216 39.3942 59.4258 39.3942 59.5332C39.3942 59.6406 39.4625 59.7611 39.5992 59.8945C39.736 60.0247 39.9606 60.181 40.2731 60.3633C40.5856 60.5456 40.8134 60.7002 40.9567 60.8271C41.2822 61.1169 41.4449 61.4521 41.4449 61.833C41.4449 62.2139 41.305 62.5166 41.025 62.7412C40.7451 62.9626 40.4196 63.0732 40.0485 63.0732C39.8499 63.0732 39.6692 63.0456 39.5065 62.9902C39.347 62.9382 39.2542 62.9121 39.2281 62.9121C39.2054 62.9121 39.1663 62.9382 39.111 62.9902C39.0589 63.0456 39.0166 63.0732 38.984 63.0732H38.901C38.8815 63.0732 38.8571 62.8975 38.8278 62.5459C38.7985 62.1943 38.7838 61.986 38.7838 61.9209C38.7838 61.8558 38.7887 61.82 38.7985 61.8135C38.8115 61.807 38.831 61.8037 38.8571 61.8037C38.8831 61.8037 38.9043 61.8118 38.9205 61.8281C38.9401 61.8444 38.9563 61.8656 38.9694 61.8916C38.9824 61.9144 38.9921 61.9388 38.9987 61.9648C39.0084 61.9909 39.0296 62.0397 39.0621 62.1113C39.2835 62.5833 39.6253 62.8193 40.0875 62.8193C40.2926 62.8193 40.457 62.7445 40.5807 62.5947C40.7044 62.4417 40.7662 62.2725 40.7662 62.0869C40.7662 61.9014 40.7174 61.7451 40.6198 61.6182C40.5221 61.4912 40.4 61.3757 40.2535 61.2715C40.1103 61.1673 39.9541 61.0664 39.7848 60.9688C39.1272 60.5846 38.7985 60.1598 38.7985 59.6943C38.7985 59.346 38.9482 59.0465 39.2477 58.7959C39.5472 58.542 39.8548 58.415 40.1705 58.415C40.4863 58.415 40.719 58.4492 40.8688 58.5176C41.0218 58.5859 41.1113 58.6445 41.1373 58.6934C41.1634 58.7389 41.1764 58.8919 41.1764 59.1523V59.6016ZM43.3444 59.1865C43.3248 59.1865 43.3151 59.2012 43.3151 59.2305V61.9258C43.3151 62.1211 43.3574 62.2741 43.442 62.3848C43.5299 62.4954 43.6406 62.5508 43.774 62.5508C43.9075 62.5508 44.0231 62.5296 44.1207 62.4873C44.2216 62.4417 44.3079 62.3929 44.3795 62.3408C44.4544 62.2887 44.5211 62.2415 44.5797 62.1992C44.6383 62.1536 44.6904 62.1309 44.736 62.1309C44.7815 62.1309 44.8043 62.1423 44.8043 62.165C44.8043 62.2432 44.7962 62.2936 44.7799 62.3164C44.3893 62.821 44.0117 63.0732 43.6471 63.0732C43.2858 63.0732 43.0123 62.9593 42.8268 62.7314C42.6445 62.5003 42.5533 62.2253 42.5533 61.9062V59.1865H42.1871C42.096 59.1865 42.0472 59.1572 42.0406 59.0986C42.0374 59.04 42.0472 59.0026 42.0699 58.9863C42.2425 58.8757 42.4801 58.6771 42.7828 58.3906C42.8154 58.3548 42.8593 58.3011 42.9147 58.2295C42.97 58.1579 43.0498 58.0602 43.1539 57.9365C43.2614 57.8128 43.3427 57.751 43.3981 57.751C43.4534 57.751 43.4811 57.7738 43.4811 57.8193C43.4811 57.8258 43.4257 58.0391 43.3151 58.459C43.3151 58.5176 43.3411 58.5485 43.3932 58.5518H44.6383C44.7815 58.5518 44.8531 58.7536 44.8531 59.1572C44.8531 59.1768 44.8401 59.1865 44.8141 59.1865H43.3444ZM46.108 60.3682C46.0527 60.3682 46.025 60.487 46.025 60.7246C46.025 61.2292 46.1748 61.6523 46.4742 61.9941C46.7737 62.3359 47.1448 62.5068 47.5875 62.5068C48.0335 62.5068 48.4615 62.3148 48.8717 61.9307C48.8782 61.9242 48.8864 61.9209 48.8961 61.9209H48.9205C48.9401 61.9209 48.958 61.9372 48.9742 61.9697C48.9938 61.999 49.0117 62.0186 49.028 62.0283C48.6503 62.4873 48.206 62.8047 47.6949 62.9805C47.5192 63.0423 47.3206 63.0732 47.0992 63.0732C46.8779 63.0732 46.6533 63.013 46.4254 62.8926C46.1976 62.7689 46.0022 62.6077 45.8395 62.4092C45.4944 61.9958 45.3219 61.4814 45.3219 60.8662C45.3219 60.2477 45.5091 59.6846 45.8834 59.1768C46.261 58.6689 46.7786 58.415 47.4362 58.415C47.9082 58.415 48.2939 58.6266 48.5934 59.0498C48.8929 59.4697 49.0426 59.8392 49.0426 60.1582C49.0426 60.2982 49.0084 60.3682 48.9401 60.3682H46.108ZM46.1617 59.8994C46.1617 59.9613 46.191 59.9922 46.2496 59.9922H48.0905C48.1751 59.9922 48.2174 59.9417 48.2174 59.8408C48.2174 59.6064 48.1116 59.3672 47.9 59.123C47.6917 58.8757 47.4622 58.752 47.2115 58.752C46.9674 58.752 46.7444 58.8626 46.5426 59.084C46.344 59.3053 46.2171 59.5576 46.1617 59.8408V59.8994ZM51.6647 62.7559C51.8177 62.7754 51.8942 62.8145 51.8942 62.873C51.8942 62.9121 51.8779 62.9349 51.8453 62.9414H49.6676C49.6351 62.9349 49.6188 62.9121 49.6188 62.873C49.6188 62.8145 49.6953 62.7754 49.8483 62.7559C50.1998 62.7038 50.3756 62.5182 50.3756 62.1992V56.1104C50.3756 55.9736 50.3007 55.8792 50.151 55.8271C50.0859 55.8044 50.0159 55.7865 49.941 55.7734C49.8662 55.7572 49.8059 55.7425 49.7604 55.7295C49.7181 55.7165 49.6904 55.7051 49.6774 55.6953C49.6676 55.6823 49.6627 55.6579 49.6627 55.6221C49.6627 55.583 49.6871 55.5505 49.736 55.5244L50.9811 54.9385C51.0201 54.9189 51.0446 54.9092 51.0543 54.9092C51.1097 54.9092 51.1373 54.9482 51.1373 55.0264V62.1992C51.1373 62.5182 51.3131 62.7038 51.6647 62.7559ZM54.2135 62.7559C54.3665 62.7754 54.443 62.8145 54.443 62.873C54.443 62.9121 54.4267 62.9349 54.3942 62.9414H52.2164C52.1839 62.9349 52.1676 62.9121 52.1676 62.873C52.1676 62.8145 52.2441 62.7754 52.3971 62.7559C52.7487 62.7038 52.9244 62.5182 52.9244 62.1992V56.1104C52.9244 55.9736 52.8496 55.8792 52.6998 55.8271C52.6347 55.8044 52.5647 55.7865 52.4899 55.7734C52.415 55.7572 52.3548 55.7425 52.3092 55.7295C52.2669 55.7165 52.2392 55.7051 52.2262 55.6953C52.2164 55.6823 52.2115 55.6579 52.2115 55.6221C52.2115 55.583 52.236 55.5505 52.2848 55.5244L53.5299 54.9385C53.569 54.9189 53.5934 54.9092 53.6031 54.9092C53.6585 54.9092 53.6862 54.9482 53.6862 55.0264V62.1992C53.6862 62.5182 53.8619 62.7038 54.2135 62.7559ZM57.9781 62.1357C57.9781 62.2204 58.0172 62.2887 58.0953 62.3408C58.1767 62.3896 58.2695 62.4141 58.3737 62.4141C58.4778 62.4141 58.5641 62.388 58.6324 62.3359C58.7041 62.2806 58.7529 62.2529 58.7789 62.2529C58.805 62.2529 58.818 62.2887 58.818 62.3604C58.818 62.4287 58.7854 62.4873 58.7203 62.5361C58.2321 62.8942 57.9017 63.0732 57.7291 63.0732C57.5208 63.0732 57.3515 62.8568 57.2213 62.4238C57.2115 62.3913 57.2034 62.3766 57.1969 62.3799C56.7933 62.6826 56.5393 62.8649 56.4352 62.9268C56.1683 63.0798 55.8997 63.1042 55.6295 63C55.3626 62.8958 55.1689 62.7233 55.0485 62.4824C54.9899 62.3587 54.9606 62.2269 54.9606 62.0869C54.9606 61.8102 55.0631 61.5905 55.2682 61.4277C55.4733 61.265 55.8639 61.1087 56.4401 60.959C56.6354 60.9069 56.8095 60.8402 56.9625 60.7588C57.1155 60.6774 57.1953 60.6253 57.2018 60.6025C57.2115 60.5798 57.2164 60.5586 57.2164 60.5391V59.6016C57.2164 59.2337 57.0732 58.9749 56.7867 58.8252C56.6923 58.7764 56.5784 58.752 56.4449 58.752C56.3147 58.752 56.1813 58.804 56.0446 58.9082C55.9111 59.0124 55.8444 59.1605 55.8444 59.3525L55.8688 59.543C55.8492 59.582 55.7321 59.6471 55.5172 59.7383C55.3024 59.8294 55.1787 59.8783 55.1461 59.8848C55.094 59.8848 55.068 59.8229 55.068 59.6992C55.068 59.5723 55.1054 59.4323 55.1803 59.2793C55.2552 59.1263 55.361 58.9863 55.4977 58.8594C55.8167 58.5632 56.1813 58.415 56.5914 58.415C57.0016 58.415 57.3352 58.529 57.5924 58.7568C57.8496 58.9814 57.9781 59.25 57.9781 59.5625V62.1357ZM55.7272 61.9941C55.7272 62.1504 55.7874 62.2871 55.9078 62.4043C56.0283 62.5182 56.165 62.5752 56.318 62.5752C56.4742 62.5752 56.663 62.5101 56.8844 62.3799C57.1058 62.2464 57.2164 62.1097 57.2164 61.9697V60.9785C57.2164 60.9427 57.2083 60.9248 57.192 60.9248C57.1757 60.9248 57.1643 60.9264 57.1578 60.9297L56.025 61.457C55.9078 61.5417 55.8281 61.6133 55.7858 61.6719C55.7467 61.7305 55.7272 61.8379 55.7272 61.9941ZM60.4733 59.1865C60.4537 59.1865 60.444 59.2012 60.444 59.2305V61.9258C60.444 62.1211 60.4863 62.2741 60.5709 62.3848C60.6588 62.4954 60.7695 62.5508 60.903 62.5508C61.0364 62.5508 61.152 62.5296 61.2496 62.4873C61.3505 62.4417 61.4368 62.3929 61.5084 62.3408C61.5833 62.2887 61.65 62.2415 61.7086 62.1992C61.7672 62.1536 61.8193 62.1309 61.8649 62.1309C61.9104 62.1309 61.9332 62.1423 61.9332 62.165C61.9332 62.2432 61.9251 62.2936 61.9088 62.3164C61.5182 62.821 61.1406 63.0732 60.776 63.0732C60.4147 63.0732 60.1412 62.9593 59.9557 62.7314C59.7734 62.5003 59.6823 62.2253 59.6823 61.9062V59.1865H59.316C59.2249 59.1865 59.1761 59.1572 59.1696 59.0986C59.1663 59.04 59.1761 59.0026 59.1989 58.9863C59.3714 58.8757 59.609 58.6771 59.9117 58.3906C59.9443 58.3548 59.9882 58.3011 60.0436 58.2295C60.0989 58.1579 60.1787 58.0602 60.2828 57.9365C60.3903 57.8128 60.4716 57.751 60.527 57.751C60.5823 57.751 60.61 57.7738 60.61 57.8193C60.61 57.8258 60.5546 58.0391 60.444 58.459C60.444 58.5176 60.47 58.5485 60.5221 58.5518H61.7672C61.9104 58.5518 61.9821 58.7536 61.9821 59.1572C61.9821 59.1768 61.969 59.1865 61.943 59.1865H60.4733ZM62.4508 62.9414C62.4183 62.9349 62.402 62.9121 62.402 62.873C62.402 62.8145 62.4785 62.7754 62.6315 62.7559C62.983 62.7038 63.1588 62.5182 63.1588 62.1992V59.6162C63.1588 59.4795 63.0839 59.3851 62.9342 59.333C62.8691 59.3102 62.7991 59.2923 62.7242 59.2793C62.6494 59.263 62.5892 59.2484 62.5436 59.2354C62.5013 59.2223 62.4736 59.2109 62.4606 59.2012C62.4508 59.1882 62.4459 59.1637 62.4459 59.1279C62.4459 59.0889 62.4703 59.0563 62.5192 59.0303L63.7643 58.4443C63.8033 58.4248 63.8278 58.415 63.8375 58.415C63.8929 58.415 63.9205 58.4541 63.9205 58.5322V62.1992C63.9205 62.5182 64.0963 62.7038 64.4479 62.7559C64.6009 62.7754 64.6774 62.8096 64.6774 62.8584C64.6774 62.9072 64.6611 62.9349 64.6285 62.9414H62.4508ZM63.4664 57.043C63.333 57.043 63.2142 57.0007 63.11 56.916C63.0091 56.8314 62.9586 56.7142 62.9586 56.5645C62.9586 56.4115 63.0074 56.291 63.1051 56.2031C63.2028 56.1152 63.3183 56.0713 63.4518 56.0713C63.5885 56.0713 63.7024 56.1234 63.7936 56.2275C63.888 56.3317 63.9352 56.444 63.9352 56.5645C63.9352 56.6849 63.8912 56.7956 63.8033 56.8965C63.7155 56.9941 63.6031 57.043 63.4664 57.043ZM65.2877 60.749C65.2877 60.1077 65.514 59.5576 65.9664 59.0986C66.4222 58.6364 66.9674 58.4053 67.6022 58.4053C68.2369 58.4053 68.7887 58.6299 69.2574 59.0791C69.7262 59.5251 69.9606 60.0768 69.9606 60.7344C69.9606 61.3919 69.7376 61.9469 69.2916 62.3994C68.8489 62.8486 68.2923 63.0732 67.6217 63.0732C66.9511 63.0732 66.3945 62.8454 65.9518 62.3896C65.5091 61.9339 65.2877 61.387 65.2877 60.749ZM66.5035 62.0039C66.8226 62.541 67.2571 62.8096 67.8073 62.8096C68.2337 62.8096 68.5592 62.6387 68.7838 62.2969C69.0117 61.9551 69.1256 61.5352 69.1256 61.0371C69.1256 60.5391 68.9661 60.028 68.6471 59.5039C68.3313 58.9798 67.9049 58.7178 67.3678 58.7178C66.9739 58.7178 66.663 58.8887 66.4352 59.2305C66.2106 59.569 66.0983 60.0003 66.0983 60.5244C66.0983 61.0452 66.2334 61.5384 66.5035 62.0039ZM74.2574 61.4033L74.2477 60.373C74.2477 59.9531 74.2119 59.6585 74.1403 59.4893C74.0686 59.32 73.9775 59.193 73.8668 59.1084C73.7561 59.0205 73.6064 58.9766 73.4176 58.9766C73.2321 58.9766 72.8365 59.123 72.2311 59.416C72.1497 59.4648 72.1074 59.5104 72.1041 59.5527V62.1797C72.1041 62.5085 72.2799 62.6973 72.6315 62.7461C72.7845 62.7689 72.861 62.8063 72.861 62.8584C72.861 62.9072 72.8447 62.9349 72.8121 62.9414H70.6344C70.6018 62.9349 70.5856 62.9121 70.5856 62.873C70.5856 62.8112 70.6621 62.7689 70.8151 62.7461C71.1666 62.6973 71.3424 62.5085 71.3424 62.1797V59.377C71.3424 59.2402 71.2675 59.1458 71.1178 59.0938C71.0527 59.071 70.9827 59.0531 70.9078 59.04C70.833 59.0238 70.7727 59.0091 70.7272 58.9961C70.6849 58.9831 70.6572 58.9717 70.6442 58.9619C70.6344 58.9489 70.6295 58.9245 70.6295 58.8887C70.6295 58.8496 70.6539 58.8171 70.7028 58.791L71.9479 58.2051C71.9869 58.1855 72.0114 58.1758 72.0211 58.1758C72.0765 58.1758 72.1041 58.2148 72.1041 58.293V59.0547C72.1139 59.0872 72.1269 59.1035 72.1432 59.1035C72.1627 59.1035 72.2327 59.0742 72.3531 59.0156C72.6331 58.8757 72.9147 58.7406 73.1979 58.6104C73.4811 58.4801 73.7155 58.415 73.901 58.415C74.653 58.415 75.0289 59.1003 75.0289 60.4707L74.985 61.8965V62.1797C74.985 62.4336 75.1119 62.5996 75.3658 62.6777C75.4733 62.7135 75.5758 62.7396 75.6735 62.7559C75.7744 62.7689 75.8395 62.7819 75.8688 62.7949C75.9013 62.8079 75.9176 62.834 75.9176 62.873C75.9176 62.9121 75.9013 62.9349 75.8688 62.9414H73.5153C73.4827 62.9349 73.4664 62.9121 73.4664 62.873C73.4664 62.8112 73.5429 62.7689 73.6959 62.7461C74.0442 62.6973 74.2184 62.4954 74.2184 62.1406C74.2444 61.9779 74.2574 61.7321 74.2574 61.4033ZM82.0553 58.6201C82.1985 58.6689 82.2864 58.6934 82.319 58.6934C82.3515 58.6934 82.3711 58.6934 82.3776 58.6934C82.3873 58.6901 82.3987 58.6689 82.4117 58.6299V56.1104C82.4117 55.9736 82.3369 55.8792 82.1871 55.8271C82.122 55.8044 82.052 55.7865 81.9772 55.7734C81.9023 55.7572 81.8421 55.7425 81.7965 55.7295C81.7542 55.7165 81.7265 55.7051 81.7135 55.6953C81.7037 55.6823 81.6989 55.6579 81.6989 55.6221C81.6989 55.583 81.7233 55.5505 81.7721 55.5244L83.0172 54.9385C83.0563 54.9189 83.0807 54.9092 83.0905 54.9092C83.1458 54.9092 83.1735 54.9482 83.1735 55.0264V61.9795C83.1897 62.1227 83.2304 62.2253 83.2955 62.2871C83.3606 62.349 83.4664 62.3799 83.6129 62.3799L83.8961 62.3604C83.9156 62.3604 83.9254 62.3799 83.9254 62.4189C83.9254 62.4548 83.901 62.484 83.8522 62.5068L82.5533 63.0439C82.5143 63.0635 82.4801 63.0732 82.4508 63.0732C82.4248 63.0732 82.4117 63.0326 82.4117 62.9512V62.5068C82.4117 62.4743 82.4036 62.458 82.3873 62.458C82.3645 62.458 82.2295 62.5312 81.9821 62.6777C81.2236 63.127 80.5839 63.1937 80.0631 62.8779C79.6464 62.624 79.3649 62.222 79.2184 61.6719C79.15 61.4147 79.1158 61.1429 79.1158 60.8564C79.1158 60.5667 79.1744 60.2803 79.2916 59.9971C79.4121 59.7106 79.5765 59.46 79.7848 59.2451C80.2438 58.7764 80.7972 58.542 81.4449 58.542C81.7086 58.542 81.9121 58.568 82.0553 58.6201ZM79.8531 60.7148C79.8531 61.2064 79.9899 61.6377 80.2633 62.0088C80.5367 62.3766 80.9176 62.5605 81.4059 62.5605C81.6207 62.5605 81.8421 62.5085 82.0699 62.4043C82.2978 62.2969 82.4117 62.2155 82.4117 62.1602V59.6406C82.4117 59.5788 82.3694 59.5055 82.2848 59.4209C82.0244 59.0628 81.6777 58.8838 81.2448 58.8838C80.8151 58.8838 80.4749 59.0661 80.2242 59.4307C79.9768 59.792 79.8531 60.2201 79.8531 60.7148ZM87.7047 62.5117C87.6884 62.4564 87.6673 62.4385 87.6412 62.458C87.6152 62.4743 87.5094 62.5296 87.3239 62.624C86.7151 62.9268 86.2073 63.0781 85.8004 63.0781C85.3935 63.0781 85.1005 62.9479 84.9215 62.6875C84.8564 62.5898 84.8239 62.4694 84.8239 62.3262V59.3477C84.8141 59.2533 84.7718 59.1719 84.6969 59.1035C84.596 59.0189 84.4902 58.9733 84.3795 58.9668C84.2721 58.9603 84.2184 58.9277 84.2184 58.8691C84.2184 58.8073 84.2444 58.7699 84.2965 58.7568L85.4147 58.4346C85.4537 58.4215 85.4912 58.415 85.527 58.415C85.566 58.415 85.5856 58.4427 85.5856 58.498V61.7744C85.5856 62.0023 85.6865 62.1781 85.8883 62.3018C86.0901 62.4255 86.3473 62.4873 86.6598 62.4873C86.9755 62.4873 87.2587 62.3913 87.5094 62.1992C87.5875 62.1374 87.6526 62.069 87.7047 61.9941V59.3477C87.6949 59.2533 87.6526 59.1719 87.5778 59.1035C87.4768 59.0189 87.3711 58.9733 87.2604 58.9668C87.153 58.9603 87.0992 58.9277 87.0992 58.8691C87.0992 58.8073 87.1253 58.7699 87.1774 58.7568L88.2955 58.4346C88.3346 58.4215 88.372 58.415 88.4078 58.415C88.4469 58.415 88.4664 58.4476 88.4664 58.5127V61.9795C88.4827 62.1227 88.5234 62.2253 88.5885 62.2871C88.6536 62.349 88.7594 62.3799 88.9059 62.3799L89.1891 62.3604C89.2086 62.3604 89.2184 62.3799 89.2184 62.4189C89.2184 62.4548 89.194 62.484 89.1451 62.5068L87.8463 63.0439C87.8073 63.0635 87.7731 63.0732 87.7438 63.0732C87.7177 63.0732 87.7047 63.0326 87.7047 62.9512V62.5117ZM96.318 56.1152C96.3505 56.1152 96.3668 56.151 96.3668 56.2227L96.4938 57.2627C96.5068 57.3278 96.5133 57.3701 96.5133 57.3896C96.5133 57.4059 96.4873 57.4141 96.4352 57.4141C96.3864 57.4141 96.3554 57.4076 96.3424 57.3945C96.3294 57.3815 96.3164 57.3604 96.3033 57.3311C96.2903 57.2985 96.274 57.2627 96.2545 57.2236C96.2382 57.1846 96.2203 57.1455 96.2008 57.1064C96.1324 56.9567 96.025 56.8086 95.8785 56.6621C95.5205 56.3171 95.1168 56.1445 94.6676 56.1445C94.3974 56.1445 94.1419 56.2324 93.901 56.4082C93.6601 56.584 93.5397 56.7923 93.5397 57.0332C93.5397 57.2708 93.5836 57.4775 93.6715 57.6533C93.7627 57.8291 93.8815 57.9919 94.028 58.1416C94.1744 58.2913 94.3421 58.4346 94.5309 58.5713C94.7197 58.708 94.9117 58.8464 95.1071 58.9863C95.6246 59.3477 95.9925 59.6569 96.2106 59.9141C96.5524 60.3112 96.7379 60.7572 96.7672 61.252C96.7672 61.8053 96.554 62.248 96.1276 62.5801C95.7044 62.9089 95.2112 63.0732 94.6481 63.0732C94.2867 63.0732 93.9987 63.0358 93.7838 62.9609C93.5722 62.8893 93.4257 62.8372 93.3444 62.8047C93.263 62.7721 93.2028 62.7559 93.1637 62.7559C93.1279 62.7559 93.1051 62.7575 93.0953 62.7607L92.8561 62.8096C92.8138 62.8096 92.7877 62.7754 92.778 62.707C92.6836 61.8997 92.6364 61.4717 92.6364 61.4229C92.6364 61.3708 92.6396 61.3366 92.6461 61.3203C92.6559 61.3008 92.6787 61.291 92.7145 61.291C92.8056 61.291 92.8886 61.4212 92.9635 61.6816C93.3053 62.4141 93.8733 62.7803 94.6676 62.7803C95.0322 62.7803 95.3431 62.6696 95.6002 62.4482C95.8606 62.2269 95.9908 61.9388 95.9908 61.584C95.9908 61.0176 95.6523 60.4902 94.9752 60.002C94.7832 59.8652 94.5065 59.6748 94.1451 59.4307C93.7838 59.1865 93.4957 58.9424 93.2809 58.6982C92.9456 58.3206 92.778 57.9007 92.778 57.4385C92.778 56.973 92.9619 56.5921 93.3297 56.2959C93.7008 55.9997 94.1256 55.8516 94.6041 55.8516C94.8515 55.8516 95.1233 55.8939 95.4196 55.9785C95.719 56.0632 95.9274 56.1201 96.0446 56.1494L96.318 56.1152ZM100.566 62.1357C100.566 62.2204 100.605 62.2887 100.683 62.3408C100.765 62.3896 100.857 62.4141 100.962 62.4141C101.066 62.4141 101.152 62.388 101.22 62.3359C101.292 62.2806 101.341 62.2529 101.367 62.2529C101.393 62.2529 101.406 62.2887 101.406 62.3604C101.406 62.4287 101.373 62.4873 101.308 62.5361C100.82 62.8942 100.49 63.0732 100.317 63.0732C100.109 63.0732 99.9394 62.8568 99.8092 62.4238C99.7994 62.3913 99.7913 62.3766 99.7848 62.3799C99.3811 62.6826 99.1272 62.8649 99.0231 62.9268C98.7561 63.0798 98.4876 63.1042 98.2174 63C97.9505 62.8958 97.7568 62.7233 97.6364 62.4824C97.5778 62.3587 97.5485 62.2269 97.5485 62.0869C97.5485 61.8102 97.651 61.5905 97.8561 61.4277C98.0612 61.265 98.4518 61.1087 99.028 60.959C99.2233 60.9069 99.3974 60.8402 99.5504 60.7588C99.7034 60.6774 99.7832 60.6253 99.7897 60.6025C99.7994 60.5798 99.8043 60.5586 99.8043 60.5391V59.6016C99.8043 59.2337 99.6611 58.9749 99.3746 58.8252C99.2802 58.7764 99.1663 58.752 99.0328 58.752C98.9026 58.752 98.7692 58.804 98.6324 58.9082C98.499 59.0124 98.4323 59.1605 98.4323 59.3525L98.4567 59.543C98.4371 59.582 98.3199 59.6471 98.1051 59.7383C97.8903 59.8294 97.7666 59.8783 97.734 59.8848C97.6819 59.8848 97.6559 59.8229 97.6559 59.6992C97.6559 59.5723 97.6933 59.4323 97.7682 59.2793C97.8431 59.1263 97.9489 58.9863 98.0856 58.8594C98.4046 58.5632 98.7692 58.415 99.1793 58.415C99.5895 58.415 99.9231 58.529 100.18 58.7568C100.437 58.9814 100.566 59.25 100.566 59.5625V62.1357ZM98.3151 61.9941C98.3151 62.1504 98.3753 62.2871 98.4957 62.4043C98.6162 62.5182 98.7529 62.5752 98.9059 62.5752C99.0621 62.5752 99.2509 62.5101 99.4723 62.3799C99.6936 62.2464 99.8043 62.1097 99.8043 61.9697V60.9785C99.8043 60.9427 99.7962 60.9248 99.7799 60.9248C99.7636 60.9248 99.7522 60.9264 99.7457 60.9297L98.6129 61.457C98.4957 61.5417 98.416 61.6133 98.3737 61.6719C98.3346 61.7305 98.3151 61.8379 98.3151 61.9941ZM105.532 58.8838C105.532 58.8838 105.968 58.8643 106.84 58.8252C106.915 58.8252 106.964 58.8333 106.987 58.8496C107.01 58.8659 107.034 58.9229 107.06 59.0205C107.086 59.1149 107.099 59.2044 107.099 59.2891C107.099 59.3737 107.091 59.4225 107.075 59.4355C107.059 59.4486 107.026 59.4551 106.977 59.4551H105.893C105.913 59.4909 105.934 59.5283 105.957 59.5674C105.979 59.6064 106.009 59.6715 106.045 59.7627C106.08 59.8538 106.098 59.9954 106.098 60.1875C106.098 60.3763 106.051 60.5749 105.957 60.7832C105.866 60.9883 105.73 61.1706 105.551 61.3301C105.154 61.6882 104.64 61.8672 104.008 61.8672C103.842 61.8672 103.66 61.8363 103.462 61.7744C103.413 61.8265 103.348 61.8753 103.266 61.9209C103.185 61.9632 103.105 62.0072 103.027 62.0527C102.832 62.1634 102.734 62.2741 102.734 62.3848C102.734 62.6615 103.193 62.8031 104.111 62.8096C105.029 62.8161 105.631 62.847 105.918 62.9023C106.207 62.9544 106.432 63.0602 106.591 63.2197C106.842 63.4704 106.967 63.7568 106.967 64.0791C106.967 64.3558 106.849 64.6406 106.611 64.9336C106.198 65.4512 105.566 65.7962 104.716 65.9688C104.414 66.0306 104.093 66.0615 103.755 66.0615C103.139 66.0615 102.672 65.9492 102.353 65.7246C102.034 65.5033 101.875 65.2347 101.875 64.9189C101.875 64.7464 101.915 64.6032 101.997 64.4893C102.078 64.3786 102.181 64.2728 102.304 64.1719C102.431 64.0742 102.57 63.9701 102.719 63.8594C102.869 63.752 103.012 63.6136 103.149 63.4443C102.837 63.4183 102.568 63.319 102.343 63.1465C102.122 62.974 102.011 62.8047 102.011 62.6387C102.011 62.4727 102.055 62.3506 102.143 62.2725C102.231 62.1911 102.339 62.1227 102.465 62.0674C102.592 62.0088 102.726 61.9551 102.866 61.9062C103.006 61.8574 103.128 61.7939 103.232 61.7158C102.867 61.5726 102.586 61.3757 102.387 61.125C102.189 60.8711 102.089 60.5944 102.089 60.2949C102.089 59.7383 102.291 59.2842 102.695 58.9326C103.102 58.5811 103.592 58.4053 104.165 58.4053C104.738 58.4053 105.193 58.5648 105.532 58.8838ZM102.876 63.9766C102.801 64.0514 102.739 64.1312 102.69 64.2158C102.641 64.3005 102.617 64.4062 102.617 64.5332C102.617 64.6634 102.662 64.7985 102.754 64.9385C102.848 65.0817 102.975 65.2103 103.134 65.3242C103.486 65.5846 103.909 65.7148 104.404 65.7148C104.899 65.7148 105.346 65.57 105.747 65.2803C106.15 64.9938 106.352 64.6781 106.352 64.333C106.352 63.9912 106.186 63.7617 105.854 63.6445C105.698 63.5924 105.296 63.5599 104.648 63.5469C104 63.5339 103.58 63.516 103.388 63.4932C103.304 63.5908 103.216 63.6771 103.125 63.752C103.037 63.8268 102.954 63.9017 102.876 63.9766ZM105.297 60.1826C105.297 59.7236 105.182 59.3509 104.951 59.0645C104.723 58.7747 104.42 58.6299 104.043 58.6299C103.554 58.6299 103.209 58.8594 103.007 59.3184C102.929 59.4941 102.89 59.696 102.89 59.9238C102.89 60.3893 102.986 60.7767 103.178 61.0859C103.413 61.457 103.72 61.6426 104.101 61.6426C104.482 61.6426 104.777 61.514 104.985 61.2568C105.193 60.9997 105.297 60.6416 105.297 60.1826ZM107.48 62.9414C107.448 62.9349 107.431 62.9121 107.431 62.873C107.431 62.8145 107.508 62.7754 107.661 62.7559C108.012 62.7038 108.188 62.5182 108.188 62.1992V59.6162C108.188 59.4795 108.113 59.3851 107.964 59.333C107.898 59.3102 107.828 59.2923 107.754 59.2793C107.679 59.263 107.618 59.2484 107.573 59.2354C107.531 59.2223 107.503 59.2109 107.49 59.2012C107.48 59.1882 107.475 59.1637 107.475 59.1279C107.475 59.0889 107.5 59.0563 107.548 59.0303L108.794 58.4443C108.833 58.4248 108.857 58.415 108.867 58.415C108.922 58.415 108.95 58.4541 108.95 58.5322V62.1992C108.95 62.5182 109.126 62.7038 109.477 62.7559C109.63 62.7754 109.707 62.8096 109.707 62.8584C109.707 62.9072 109.69 62.9349 109.658 62.9414H107.48ZM108.496 57.043C108.362 57.043 108.243 57.0007 108.139 56.916C108.038 56.8314 107.988 56.7142 107.988 56.5645C107.988 56.4115 108.037 56.291 108.134 56.2031C108.232 56.1152 108.348 56.0713 108.481 56.0713C108.618 56.0713 108.732 56.1234 108.823 56.2275C108.917 56.3317 108.964 56.444 108.964 56.5645C108.964 56.6849 108.921 56.7956 108.833 56.8965C108.745 56.9941 108.632 57.043 108.496 57.043ZM111.479 59.1865C111.46 59.1865 111.45 59.2012 111.45 59.2305V61.9258C111.45 62.1211 111.492 62.2741 111.577 62.3848C111.665 62.4954 111.775 62.5508 111.909 62.5508C112.042 62.5508 112.158 62.5296 112.255 62.4873C112.356 62.4417 112.443 62.3929 112.514 62.3408C112.589 62.2887 112.656 62.2415 112.714 62.1992C112.773 62.1536 112.825 62.1309 112.871 62.1309C112.916 62.1309 112.939 62.1423 112.939 62.165C112.939 62.2432 112.931 62.2936 112.915 62.3164C112.524 62.821 112.146 63.0732 111.782 63.0732C111.421 63.0732 111.147 62.9593 110.962 62.7314C110.779 62.5003 110.688 62.2253 110.688 61.9062V59.1865H110.322C110.231 59.1865 110.182 59.1572 110.175 59.0986C110.172 59.04 110.182 59.0026 110.205 58.9863C110.377 58.8757 110.615 58.6771 110.918 58.3906C110.95 58.3548 110.994 58.3011 111.049 58.2295C111.105 58.1579 111.185 58.0602 111.289 57.9365C111.396 57.8128 111.477 57.751 111.533 57.751C111.588 57.751 111.616 57.7738 111.616 57.8193C111.616 57.8258 111.561 58.0391 111.45 58.459C111.45 58.5176 111.476 58.5485 111.528 58.5518H112.773C112.916 58.5518 112.988 58.7536 112.988 59.1572C112.988 59.1768 112.975 59.1865 112.949 59.1865H111.479ZM114.643 59.1865C114.624 59.1865 114.614 59.2012 114.614 59.2305V61.9258C114.614 62.1211 114.656 62.2741 114.741 62.3848C114.829 62.4954 114.939 62.5508 115.073 62.5508C115.206 62.5508 115.322 62.5296 115.42 62.4873C115.52 62.4417 115.607 62.3929 115.678 62.3408C115.753 62.2887 115.82 62.2415 115.879 62.1992C115.937 62.1536 115.989 62.1309 116.035 62.1309C116.08 62.1309 116.103 62.1423 116.103 62.165C116.103 62.2432 116.095 62.2936 116.079 62.3164C115.688 62.821 115.311 63.0732 114.946 63.0732C114.585 63.0732 114.311 62.9593 114.126 62.7314C113.943 62.5003 113.852 62.2253 113.852 61.9062V59.1865H113.486C113.395 59.1865 113.346 59.1572 113.339 59.0986C113.336 59.04 113.346 59.0026 113.369 58.9863C113.541 58.8757 113.779 58.6771 114.082 58.3906C114.114 58.3548 114.158 58.3011 114.214 58.2295C114.269 58.1579 114.349 58.0602 114.453 57.9365C114.56 57.8128 114.642 57.751 114.697 57.751C114.752 57.751 114.78 57.7738 114.78 57.8193C114.78 57.8258 114.725 58.0391 114.614 58.459C114.614 58.5176 114.64 58.5485 114.692 58.5518H115.937C116.08 58.5518 116.152 58.7536 116.152 59.1572C116.152 59.1768 116.139 59.1865 116.113 59.1865H114.643ZM119.638 62.1357C119.638 62.2204 119.677 62.2887 119.755 62.3408C119.837 62.3896 119.93 62.4141 120.034 62.4141C120.138 62.4141 120.224 62.388 120.293 62.3359C120.364 62.2806 120.413 62.2529 120.439 62.2529C120.465 62.2529 120.478 62.2887 120.478 62.3604C120.478 62.4287 120.446 62.4873 120.38 62.5361C119.892 62.8942 119.562 63.0732 119.389 63.0732C119.181 63.0732 119.012 62.8568 118.881 62.4238C118.872 62.3913 118.864 62.3766 118.857 62.3799C118.453 62.6826 118.2 62.8649 118.095 62.9268C117.828 63.0798 117.56 63.1042 117.29 63C117.023 62.8958 116.829 62.7233 116.709 62.4824C116.65 62.3587 116.621 62.2269 116.621 62.0869C116.621 61.8102 116.723 61.5905 116.928 61.4277C117.133 61.265 117.524 61.1087 118.1 60.959C118.296 60.9069 118.47 60.8402 118.623 60.7588C118.776 60.6774 118.855 60.6253 118.862 60.6025C118.872 60.5798 118.877 60.5586 118.877 60.5391V59.6016C118.877 59.2337 118.733 58.9749 118.447 58.8252C118.352 58.7764 118.239 58.752 118.105 58.752C117.975 58.752 117.841 58.804 117.705 58.9082C117.571 59.0124 117.505 59.1605 117.505 59.3525L117.529 59.543C117.509 59.582 117.392 59.6471 117.177 59.7383C116.963 59.8294 116.839 59.8783 116.806 59.8848C116.754 59.8848 116.728 59.8229 116.728 59.6992C116.728 59.5723 116.766 59.4323 116.84 59.2793C116.915 59.1263 117.021 58.9863 117.158 58.8594C117.477 58.5632 117.841 58.415 118.252 58.415C118.662 58.415 118.995 58.529 119.253 58.7568C119.51 58.9814 119.638 59.25 119.638 59.5625V62.1357ZM117.387 61.9941C117.387 62.1504 117.448 62.2871 117.568 62.4043C117.688 62.5182 117.825 62.5752 117.978 62.5752C118.134 62.5752 118.323 62.5101 118.545 62.3799C118.766 62.2464 118.877 62.1097 118.877 61.9697V60.9785C118.877 60.9427 118.868 60.9248 118.852 60.9248C118.836 60.9248 118.825 60.9264 118.818 60.9297L117.685 61.457C117.568 61.5417 117.488 61.6133 117.446 61.6719C117.407 61.7305 117.387 61.8379 117.387 61.9941ZM120.947 62.9414C120.914 62.9349 120.898 62.9121 120.898 62.873C120.898 62.8145 120.975 62.7754 121.128 62.7559C121.479 62.7038 121.655 62.5182 121.655 62.1992V59.6162C121.655 59.4795 121.58 59.3851 121.43 59.333C121.365 59.3102 121.295 59.2923 121.22 59.2793C121.145 59.263 121.085 59.2484 121.04 59.2354C120.997 59.2223 120.97 59.2109 120.957 59.2012C120.947 59.1882 120.942 59.1637 120.942 59.1279C120.942 59.0889 120.966 59.0563 121.015 59.0303L122.26 58.4443C122.299 58.4248 122.324 58.415 122.334 58.415C122.389 58.415 122.417 58.4541 122.417 58.5322V62.1992C122.417 62.5182 122.592 62.7038 122.944 62.7559C123.097 62.7754 123.173 62.8096 123.173 62.8584C123.173 62.9072 123.157 62.9349 123.125 62.9414H120.947ZM121.963 57.043C121.829 57.043 121.71 57.0007 121.606 56.916C121.505 56.8314 121.455 56.7142 121.455 56.5645C121.455 56.4115 121.504 56.291 121.601 56.2031C121.699 56.1152 121.814 56.0713 121.948 56.0713C122.085 56.0713 122.199 56.1234 122.29 56.2275C122.384 56.3317 122.431 56.444 122.431 56.5645C122.431 56.6849 122.387 56.7956 122.299 56.8965C122.212 56.9941 122.099 57.043 121.963 57.043ZM126.728 59.4404C126.689 59.4339 126.632 59.4128 126.557 59.377C126.287 59.2533 126.075 59.1914 125.922 59.1914C125.769 59.1914 125.608 59.2874 125.439 59.4795C125.273 59.6683 125.19 59.8392 125.19 59.9922V62.1992C125.19 62.4434 125.332 62.6061 125.615 62.6875C125.739 62.7201 125.854 62.7445 125.962 62.7607C126.069 62.7738 126.137 62.7868 126.167 62.7998C126.199 62.8128 126.215 62.8389 126.215 62.8779C126.215 62.9137 126.199 62.9349 126.167 62.9414H123.72C123.688 62.9349 123.672 62.9121 123.672 62.873C123.672 62.8145 123.748 62.7754 123.901 62.7559C124.253 62.7038 124.428 62.5182 124.428 62.1992V59.6162C124.428 59.4795 124.353 59.3851 124.204 59.333C124.139 59.3102 124.069 59.2923 123.994 59.2793C123.919 59.263 123.859 59.2484 123.813 59.2354C123.771 59.2223 123.743 59.2109 123.73 59.2012C123.72 59.1882 123.715 59.1637 123.715 59.1279C123.715 59.0889 123.74 59.0563 123.789 59.0303L125.034 58.4443C125.073 58.4248 125.097 58.415 125.107 58.415C125.162 58.415 125.19 58.4541 125.19 58.5322V59.3232C125.19 59.3623 125.2 59.3818 125.219 59.3818C125.245 59.3818 125.312 59.3053 125.42 59.1523C125.729 58.7194 125.984 58.5029 126.186 58.5029C126.3 58.5029 126.474 58.5485 126.709 58.6396C126.946 58.7308 127.065 58.8073 127.065 58.8691C127.065 58.944 127.028 59.0579 126.953 59.2109C126.878 59.3639 126.803 59.4404 126.728 59.4404ZM128.198 60.3682C128.143 60.3682 128.115 60.487 128.115 60.7246C128.115 61.2292 128.265 61.6523 128.564 61.9941C128.864 62.3359 129.235 62.5068 129.677 62.5068C130.123 62.5068 130.551 62.3148 130.962 61.9307C130.968 61.9242 130.976 61.9209 130.986 61.9209H131.01C131.03 61.9209 131.048 61.9372 131.064 61.9697C131.084 61.999 131.102 62.0186 131.118 62.0283C130.74 62.4873 130.296 62.8047 129.785 62.9805C129.609 63.0423 129.41 63.0732 129.189 63.0732C128.968 63.0732 128.743 63.013 128.515 62.8926C128.287 62.7689 128.092 62.6077 127.929 62.4092C127.584 61.9958 127.412 61.4814 127.412 60.8662C127.412 60.2477 127.599 59.6846 127.973 59.1768C128.351 58.6689 128.868 58.415 129.526 58.415C129.998 58.415 130.384 58.6266 130.683 59.0498C130.983 59.4697 131.132 59.8392 131.132 60.1582C131.132 60.2982 131.098 60.3682 131.03 60.3682H128.198ZM128.252 59.8994C128.252 59.9613 128.281 59.9922 128.339 59.9922H130.18C130.265 59.9922 130.307 59.9417 130.307 59.8408C130.307 59.6064 130.201 59.3672 129.99 59.123C129.782 58.8757 129.552 58.752 129.301 58.752C129.057 58.752 128.834 58.8626 128.632 59.084C128.434 59.3053 128.307 59.5576 128.252 59.8408V59.8994ZM132.246 62.4531C132.246 62.2773 132.308 62.126 132.431 61.999C132.555 61.8688 132.705 61.8037 132.88 61.8037C133.053 61.8037 133.201 61.8672 133.325 61.9941C133.452 62.1178 133.515 62.2692 133.515 62.4482C133.515 62.6273 133.453 62.777 133.33 62.8975C133.206 63.0146 133.056 63.0732 132.88 63.0732C132.708 63.0732 132.558 63.013 132.431 62.8926C132.308 62.7721 132.246 62.6257 132.246 62.4531Z" fill="#EFB85F"/>
<path d="M17.5002 10L18.696 11.9748L21 13L18.696 14.0249L17.5002 16L16.304 14.0249L14 13L16.304 11.9748L17.5002 10Z" fill="#EFB85F"/>
<path d="M17.5002 86L18.696 87.9748L21 89L18.696 90.0249L17.5002 92L16.304 90.0249L14 89L16.304 87.9748L17.5002 86Z" fill="#EFB85F"/>
<path d="M124.5 84L125.696 85.9748L128 87L125.696 88.0249L124.5 90L123.304 88.0249L121 87L123.304 85.9748L124.5 84Z" fill="#EFB85F"/>
<path d="M80.5002 90L81.696 91.9748L84 93L81.696 94.0249L80.5002 96L79.304 94.0249L77 93L79.304 91.9748L80.5002 90Z" fill="#EFB85F"/>
<path d="M120.5 7L121.696 8.97475L124 10L121.696 11.0249L120.5 13L119.304 11.0249L117 10L119.304 8.97475L120.5 7Z" fill="#EFB85F"/>
<path d="M95.125 16.6259C95.1509 16.3615 95.1942 15.7335 95.2288 15.2377C95.2634 14.6647 95.324 14.3011 95.3932 14.2681C95.4538 14.235 95.7307 14.4113 95.999 14.6537C96.2759 14.9071 96.5182 15.0834 96.5441 15.0504C96.5615 15.0283 96.397 14.6757 96.1807 14.2791C95.9038 13.7943 95.8086 13.5519 95.8865 13.5189C95.9471 13.4968 96.3884 13.4197 96.8643 13.3426C98.3873 13.1222 98.3787 13.001 96.8384 12.7917C96.3019 12.7145 95.8519 12.6154 95.8346 12.5823C95.8086 12.5382 95.973 12.2187 96.1807 11.8661C96.3884 11.5025 96.5441 11.183 96.5182 11.15C96.4922 11.1279 96.2326 11.3152 95.9471 11.5687C95.6528 11.8331 95.3932 11.9984 95.3586 11.9543C95.3154 11.8992 95.2461 11.2381 95.1856 10.4779C95.0298 8.49462 94.9606 8.50564 94.7962 10.5219C94.7356 11.2822 94.6664 11.9433 94.6317 11.9763C94.6058 12.0094 94.3462 11.8331 94.052 11.5797C93.7664 11.3152 93.5155 11.1279 93.4895 11.161C93.4722 11.183 93.602 11.4805 93.7924 11.8111C93.9827 12.1306 94.1385 12.4611 94.1385 12.5272C94.1385 12.6044 93.7664 12.7035 93.1607 12.7917C91.6117 13.001 91.6117 13.1222 93.1693 13.3536C93.7577 13.4417 94.1385 13.5519 94.1385 13.618C94.1385 13.6841 93.9827 14.0147 93.7924 14.3342C93.3857 15.0283 93.351 15.2046 93.6799 14.9292C93.8183 14.83 94.0693 14.6096 94.251 14.4554C94.6664 14.1138 94.701 14.1689 94.7789 15.3589C94.8913 17.1107 95.0211 17.5735 95.125 16.6259Z" fill="#EFB85F"/>
<path d="M39.125 89.6259C39.1509 89.3615 39.1942 88.7335 39.2288 88.2377C39.2634 87.6647 39.324 87.3011 39.3932 87.2681C39.4538 87.235 39.7307 87.4113 39.999 87.6537C40.2759 87.9071 40.5182 88.0834 40.5441 88.0504C40.5615 88.0283 40.397 87.6757 40.1807 87.2791C39.9038 86.7943 39.8086 86.5519 39.8865 86.5189C39.9471 86.4968 40.3884 86.4197 40.8643 86.3426C42.3873 86.1222 42.3787 86.001 40.8384 85.7917C40.3019 85.7145 39.8519 85.6154 39.8346 85.5823C39.8086 85.5382 39.973 85.2187 40.1807 84.8661C40.3884 84.5025 40.5441 84.183 40.5182 84.15C40.4922 84.1279 40.2326 84.3152 39.9471 84.5687C39.6528 84.8331 39.3932 84.9984 39.3586 84.9543C39.3154 84.8992 39.2461 84.2381 39.1856 83.4779C39.0298 81.4946 38.9606 81.5056 38.7962 83.5219C38.7356 84.2822 38.6664 84.9433 38.6317 84.9763C38.6058 85.0094 38.3462 84.8331 38.052 84.5797C37.7664 84.3152 37.5155 84.1279 37.4895 84.161C37.4722 84.183 37.602 84.4805 37.7924 84.8111C37.9827 85.1306 38.1385 85.4611 38.1385 85.5272C38.1385 85.6044 37.7664 85.7035 37.1607 85.7917C35.6117 86.001 35.6117 86.1222 37.1693 86.3536C37.7577 86.4417 38.1385 86.5519 38.1385 86.618C38.1385 86.6841 37.9827 87.0147 37.7924 87.3342C37.3857 88.0283 37.351 88.2046 37.6799 87.9292C37.8183 87.83 38.0693 87.6096 38.251 87.4554C38.6664 87.1138 38.701 87.1689 38.7789 88.3589C38.8913 90.1107 39.0211 90.5735 39.125 89.6259Z" fill="#EFB85F"/>
<path d="M110.125 99.6259C110.151 99.3615 110.194 98.7335 110.229 98.2377C110.263 97.6647 110.324 97.3011 110.393 97.2681C110.454 97.235 110.731 97.4113 110.999 97.6537C111.276 97.9071 111.518 98.0834 111.544 98.0504C111.561 98.0283 111.397 97.6757 111.181 97.2791C110.904 96.7943 110.809 96.5519 110.886 96.5189C110.947 96.4968 111.388 96.4197 111.864 96.3426C113.387 96.1222 113.379 96.001 111.838 95.7917C111.302 95.7145 110.852 95.6154 110.835 95.5823C110.809 95.5382 110.973 95.2187 111.181 94.8661C111.388 94.5025 111.544 94.183 111.518 94.15C111.492 94.1279 111.233 94.3152 110.947 94.5687C110.653 94.8331 110.393 94.9984 110.359 94.9543C110.315 94.8992 110.246 94.2381 110.186 93.4779C110.03 91.4946 109.961 91.5056 109.796 93.5219C109.736 94.2822 109.666 94.9433 109.632 94.9763C109.606 95.0094 109.346 94.8331 109.052 94.5797C108.766 94.3152 108.515 94.1279 108.489 94.161C108.472 94.183 108.602 94.4805 108.792 94.8111C108.983 95.1306 109.138 95.4611 109.138 95.5272C109.138 95.6044 108.766 95.7035 108.161 95.7917C106.612 96.001 106.612 96.1222 108.169 96.3536C108.758 96.4417 109.138 96.5519 109.138 96.618C109.138 96.6841 108.983 97.0147 108.792 97.3342C108.386 98.0283 108.351 98.2046 108.68 97.9292C108.818 97.83 109.069 97.6096 109.251 97.4554C109.666 97.1138 109.701 97.1689 109.779 98.3589C109.891 100.111 110.021 100.573 110.125 99.6259Z" fill="#EFB85F"/>
<path d="M53.125 12.6259C53.1509 12.3615 53.1942 11.7335 53.2288 11.2377C53.2634 10.6647 53.324 10.3011 53.3932 10.2681C53.4538 10.235 53.7307 10.4113 53.999 10.6537C54.2759 10.9071 54.5182 11.0834 54.5441 11.0504C54.5615 11.0283 54.397 10.6757 54.1807 10.2791C53.9038 9.7943 53.8086 9.55191 53.8865 9.51885C53.9471 9.49682 54.3884 9.41969 54.8643 9.34256C56.3873 9.1222 56.3787 9.001 54.8384 8.79166C54.3019 8.71453 53.8519 8.61537 53.8346 8.58232C53.8086 8.53825 53.973 8.21872 54.1807 7.86614C54.3884 7.50255 54.5441 7.18302 54.5182 7.14997C54.4922 7.12793 54.2326 7.31524 53.9471 7.56866C53.6528 7.83309 53.3932 7.99836 53.3586 7.95429C53.3154 7.8992 53.2461 7.23811 53.1856 6.47787C53.0298 4.49462 52.9606 4.50564 52.7962 6.52194C52.7356 7.28219 52.6664 7.94327 52.6317 7.97632C52.6058 8.00938 52.3462 7.83309 52.052 7.57967C51.7664 7.31524 51.5155 7.12793 51.4895 7.16099C51.4722 7.18302 51.602 7.48051 51.7924 7.81105C51.9827 8.13058 52.1385 8.46112 52.1385 8.52723C52.1385 8.60435 51.7664 8.70352 51.1607 8.79166C49.6117 9.001 49.6117 9.1222 51.1693 9.35358C51.7577 9.44173 52.1385 9.55191 52.1385 9.61802C52.1385 9.68412 51.9827 10.0147 51.7924 10.3342C51.3857 11.0283 51.351 11.2046 51.6799 10.9292C51.8183 10.83 52.0693 10.6096 52.251 10.4554C52.6664 10.1138 52.701 10.1689 52.7789 11.3589C52.8913 13.1107 53.0211 13.5735 53.125 12.6259Z" fill="#EFB85F"/>
<circle cx="26" cy="81" r="1" fill="#EFB85F"/>
<circle cx="57" cy="96" r="1" fill="#EFB85F"/>
<circle cx="111" cy="84" r="1" fill="#EFB85F"/>
<circle cx="139" cy="16" r="1" fill="#EFB85F"/>
<circle cx="143" cy="55" r="1" fill="#EFB85F"/>
<circle cx="139" cy="93" r="1" fill="#EFB85F"/>
<circle cx="36" cy="10" r="1" fill="#EFB85F"/>
<circle cx="75" cy="6" r="1" fill="#EFB85F"/>
<path d="M30.1536 96.762L33.0001 96.6487L30.1536 96.5354L31.0464 95.3761L30.0932 96.4619L30 93L29.9069 96.4619L28.9537 95.3761L29.8465 96.5354L27 96.6487L29.8465 96.762L28.9537 97.9212L29.9069 96.8354L30 100.297L30.0932 96.8354L31.0464 97.9212L30.1536 96.762Z" fill="#EFB85F"/>
<path d="M11.1536 76.762L14.0001 76.6487L11.1536 76.5354L12.0464 75.3761L11.0932 76.4619L11 73L10.9069 76.4619L9.95375 75.3761L10.8465 76.5354L8 76.6487L10.8465 76.762L9.95375 77.9212L10.9069 76.8354L11 80.2973L11.0932 76.8354L12.0464 77.9212L11.1536 76.762Z" fill="#EFB85F"/>
<path d="M68.1536 11.762L71.0001 11.6487L68.1536 11.5354L69.0464 10.3761L68.0932 11.4619L68 8L67.9069 11.4619L66.9537 10.3761L67.8465 11.5354L65 11.6487L67.8465 11.762L66.9537 12.9212L67.9069 11.8354L68 15.2973L68.0932 11.8354L69.0464 12.9212L68.1536 11.762Z" fill="#EFB85F"/>
<path d="M137.154 76.762L140 76.6487L137.154 76.5354L138.046 75.3761L137.093 76.4619L137 73L136.907 76.4619L135.954 75.3761L136.847 76.5354L134 76.6487L136.847 76.762L135.954 77.9212L136.907 76.8354L137 80.2973L137.093 76.8354L138.046 77.9212L137.154 76.762Z" fill="#EFB85F"/>
<path d="M129.154 95.762L132 95.6487L129.154 95.5354L130.046 94.3761L129.093 95.4619L129 92L128.907 95.4619L127.954 94.3761L128.847 95.5354L126 95.6487L128.847 95.762L127.954 96.9212L128.907 95.8354L129 99.2973L129.093 95.8354L130.046 96.9212L129.154 95.762Z" fill="#EFB85F"/>
<path d="M8.15357 18.762L11.0001 18.6487L8.15357 18.5354L9.04635 17.3761L8.09316 18.4619L8.00005 15L7.90694 18.4619L6.95375 17.3761L7.84653 18.5354L5 18.6487L7.84653 18.762L6.95375 19.9212L7.90694 18.8354L8.00005 22.2973L8.09316 18.8354L9.04635 19.9212L8.15357 18.762Z" fill="#EFB85F"/>
</svg>
