<svg width="148" height="105" viewBox="0 0 148 105" fill="none" xmlns="http://www.w3.org/2000/svg">
<rect width="147.402" height="104.882" rx="10" fill="black"/>
<path d="M20.5856 34.9409C20.5595 34.9409 20.5465 34.9279 20.5465 34.9019V34.7847C20.5465 34.7586 20.5595 34.7456 20.5856 34.7456H20.7028C20.9827 34.7456 21.2268 34.687 21.4352 34.5698C21.5198 34.521 21.5898 34.4461 21.6451 34.3452C21.7005 34.241 21.7281 34.1255 21.7281 33.9985V28.8325C21.7281 28.6307 21.5979 28.4761 21.3375 28.3687C21.1552 28.2905 20.9615 28.2515 20.7565 28.2515H20.649C20.623 28.2515 20.61 28.2384 20.61 28.2124V28.0952C20.61 28.0692 20.623 28.0562 20.649 28.0562H23.9547C23.9808 28.0562 23.9938 28.0692 23.9938 28.0952V28.2124C23.9938 28.2384 23.9808 28.2515 23.9547 28.2515H23.7448C23.4095 28.2515 23.1132 28.2987 22.8561 28.3931C22.7812 28.4191 22.7324 28.4631 22.7096 28.5249C22.6901 28.5835 22.6803 28.686 22.6803 28.8325V34.2476C22.6868 34.3029 22.7161 34.355 22.7682 34.4038C22.8203 34.4526 22.8789 34.4771 22.944 34.4771H24.8727C25.1624 34.4771 25.4472 34.3062 25.7272 33.9644C25.802 33.8732 25.8948 33.7528 26.0055 33.603C26.1162 33.45 26.1845 33.3638 26.2106 33.3442C26.3147 33.2661 26.3668 33.2677 26.3668 33.3491C26.3668 33.3687 26.3619 33.3882 26.3522 33.4077L25.6149 34.853C25.5856 34.9116 25.5514 34.9409 25.5123 34.9409H20.5856ZM29.7653 34.1353C29.7653 34.2199 29.8043 34.2882 29.8824 34.3403C29.9638 34.3892 30.0566 34.4136 30.1608 34.4136C30.2649 34.4136 30.3512 34.3875 30.4196 34.3354C30.4912 34.2801 30.54 34.2524 30.566 34.2524C30.5921 34.2524 30.6051 34.2882 30.6051 34.3599C30.6051 34.4282 30.5726 34.4868 30.5074 34.5356C30.0192 34.8937 29.6888 35.0728 29.5162 35.0728C29.3079 35.0728 29.1386 34.8563 29.0084 34.4233C28.9987 34.3908 28.9905 34.3761 28.984 34.3794C28.5804 34.6821 28.3265 34.8644 28.2223 34.9263C27.9554 35.0793 27.6868 35.1037 27.4166 34.9995C27.1497 34.8953 26.956 34.7228 26.8356 34.4819C26.777 34.3582 26.7477 34.2264 26.7477 34.0864C26.7477 33.8097 26.8502 33.59 27.0553 33.4272C27.2604 33.2645 27.651 33.1082 28.2272 32.9585C28.4225 32.9064 28.5966 32.8397 28.7496 32.7583C28.9026 32.6769 28.9824 32.6248 28.9889 32.6021C28.9987 32.5793 29.0035 32.5581 29.0035 32.5386V31.6011C29.0035 31.2332 28.8603 30.9744 28.5739 30.8247C28.4795 30.7759 28.3655 30.7515 28.2321 30.7515C28.1018 30.7515 27.9684 30.8035 27.8317 30.9077C27.6982 31.0119 27.6315 31.16 27.6315 31.3521L27.6559 31.5425C27.6364 31.5815 27.5192 31.6466 27.3043 31.7378C27.0895 31.8289 26.9658 31.8778 26.9332 31.8843C26.8811 31.8843 26.8551 31.8224 26.8551 31.6987C26.8551 31.5718 26.8925 31.4318 26.9674 31.2788C27.0423 31.1258 27.1481 30.9858 27.2848 30.8589C27.6038 30.5627 27.9684 30.4146 28.3785 30.4146C28.7887 30.4146 29.1224 30.5285 29.3795 30.7563C29.6367 30.981 29.7653 31.2495 29.7653 31.562V34.1353ZM27.5143 33.9937C27.5143 34.1499 27.5745 34.2866 27.6949 34.4038C27.8154 34.5177 27.9521 34.5747 28.1051 34.5747C28.2614 34.5747 28.4502 34.5096 28.6715 34.3794C28.8929 34.2459 29.0035 34.1092 29.0035 33.9692V32.978C29.0035 32.9422 28.9954 32.9243 28.9791 32.9243C28.9628 32.9243 28.9515 32.9259 28.9449 32.9292L27.8121 33.4565C27.6949 33.5412 27.6152 33.6128 27.5729 33.6714C27.5338 33.73 27.5143 33.8374 27.5143 33.9937ZM36.4303 34.8628C36.4303 34.9149 36.401 34.9409 36.3424 34.9409H33.6617C33.6292 34.9344 33.6129 34.9116 33.6129 34.8726C33.6129 34.814 33.6894 34.7749 33.8424 34.7554C34.194 34.7033 34.3698 34.5177 34.3698 34.1987V31.2397C34.3698 31.2039 34.3502 31.186 34.3112 31.186H33.7789C33.7399 31.186 33.7024 31.1746 33.6666 31.1519C33.6308 31.1258 33.6129 31.0933 33.6129 31.0542C33.6129 31.0119 33.6324 30.9793 33.6715 30.9565C33.7268 30.924 33.8571 30.88 34.0621 30.8247C34.2672 30.7694 34.3698 30.6782 34.3698 30.5513V30.3901C34.3698 28.7625 34.8694 27.6997 35.8688 27.2017C35.9729 27.1528 36.069 27.1284 36.1569 27.1284C36.2448 27.1284 36.3847 27.1512 36.5768 27.1968C36.7688 27.2424 36.9235 27.2651 37.0406 27.2651C37.1611 27.2651 37.345 27.2261 37.5924 27.1479L38.0367 26.938C38.0758 26.9185 38.1002 26.9087 38.11 26.9087C38.1653 26.9087 38.193 26.9478 38.193 27.0259V34.1987C38.193 34.5177 38.3688 34.7033 38.7203 34.7554C38.8733 34.7749 38.9498 34.8091 38.9498 34.8579C38.9498 34.9067 38.9336 34.9344 38.901 34.9409H36.7233C36.6907 34.9344 36.6744 34.9116 36.6744 34.8726C36.6744 34.814 36.7509 34.7749 36.9039 34.7554C37.2555 34.7033 37.4313 34.5177 37.4313 34.1987V31.186H35.1949C35.1526 31.186 35.1315 31.2023 35.1315 31.2349V34.1011C35.1315 34.5666 35.5351 34.7993 36.3424 34.7993C36.401 34.8058 36.4303 34.827 36.4303 34.8628ZM35.1315 30.5073C35.1315 30.5334 35.1477 30.5464 35.1803 30.5464H37.4313V28.0757C37.1351 27.8478 36.9218 27.7127 36.7916 27.6704C36.6647 27.6281 36.5231 27.6069 36.3668 27.6069C36.0348 27.6069 35.7695 27.6834 35.5709 27.8364C35.3756 27.9862 35.2535 28.1636 35.2047 28.3687C35.1559 28.5737 35.1315 28.813 35.1315 29.0864V30.5073ZM40.2487 32.3677C40.1933 32.3677 40.1656 32.4865 40.1656 32.7241C40.1656 33.2287 40.3154 33.6519 40.6149 33.9937C40.9143 34.3354 41.2854 34.5063 41.7281 34.5063C42.1741 34.5063 42.6022 34.3143 43.0123 33.9302C43.0188 33.9237 43.027 33.9204 43.0367 33.9204H43.0612C43.0807 33.9204 43.0986 33.9367 43.1149 33.9692C43.1344 33.9985 43.1523 34.0181 43.1686 34.0278C42.791 34.4868 42.3466 34.8042 41.8356 34.98C41.6598 35.0418 41.4612 35.0728 41.2399 35.0728C41.0185 35.0728 40.7939 35.0125 40.566 34.8921C40.3382 34.7684 40.1429 34.6073 39.9801 34.4087C39.6351 33.9953 39.4625 33.481 39.4625 32.8657C39.4625 32.2472 39.6497 31.6841 40.024 31.1763C40.4017 30.6685 40.9192 30.4146 41.5768 30.4146C42.0488 30.4146 42.4345 30.6261 42.734 31.0493C43.0335 31.4692 43.1832 31.8387 43.1832 32.1577C43.1832 32.2977 43.149 32.3677 43.0807 32.3677H40.2487ZM40.3024 31.8989C40.3024 31.9608 40.3317 31.9917 40.3903 31.9917H42.2311C42.3157 31.9917 42.358 31.9412 42.358 31.8403C42.358 31.606 42.2522 31.3667 42.0406 31.1226C41.8323 30.8752 41.6028 30.7515 41.3522 30.7515C41.108 30.7515 40.8851 30.8621 40.6832 31.0835C40.4847 31.3049 40.3577 31.5571 40.3024 31.8403V31.8989ZM41.8356 29.731C41.8226 29.744 41.8112 29.7505 41.8014 29.7505C41.7916 29.7505 41.7802 29.744 41.7672 29.731L40.4537 28.6714C40.2747 28.5184 40.1852 28.38 40.1852 28.2563C40.1852 28.1326 40.2177 28.035 40.2828 27.9634C40.3512 27.8885 40.4423 27.8511 40.5563 27.8511C40.6702 27.8511 40.7858 27.9308 40.903 28.0903L41.943 29.5308C41.956 29.5438 41.9625 29.5535 41.9625 29.5601C41.9625 29.5666 41.956 29.5763 41.943 29.5894L41.8356 29.731ZM47.8365 31.0005C47.8365 31.2284 47.7047 31.3423 47.441 31.3423C47.3076 31.3423 47.1936 31.3049 47.0992 31.23C47.0081 31.1519 46.9365 31.0868 46.8844 31.0347C46.8356 30.9793 46.7835 30.9289 46.7281 30.8833C46.4938 30.6912 46.2073 30.6701 45.8688 30.8198C45.5335 30.9696 45.2747 31.2886 45.0924 31.7769C44.9915 32.047 44.941 32.3156 44.941 32.5825C44.941 33.1554 45.0712 33.6242 45.3317 33.9888C45.5921 34.3501 45.9908 34.5308 46.528 34.5308C46.9283 34.5308 47.288 34.3517 47.6071 33.9937C47.7047 33.8862 47.7633 33.8325 47.7828 33.8325C47.8024 33.8325 47.8235 33.8423 47.8463 33.8618C47.8691 33.8813 47.8805 33.9106 47.8805 33.9497C47.8805 33.9855 47.8707 34.0132 47.8512 34.0327C47.3531 34.7261 46.7265 35.0728 45.9713 35.0728C45.4244 35.0728 44.9752 34.8693 44.6237 34.4624C44.2753 34.0555 44.1012 33.59 44.1012 33.0659C44.1045 32.0959 44.3388 31.3976 44.8043 30.9712C45.2145 30.5968 45.7988 30.4097 46.5573 30.4097C47.026 30.4097 47.3369 30.4569 47.4899 30.5513C47.6429 30.6457 47.7503 30.7645 47.8121 30.9077C47.8284 30.9403 47.8365 30.9712 47.8365 31.0005ZM49.8873 31.1616C49.8873 31.2397 49.8987 31.2788 49.9215 31.2788C49.9443 31.2788 49.9606 31.2739 49.9703 31.2642C49.9801 31.2511 50.0485 31.1746 50.1754 31.0347C50.5433 30.6245 50.916 30.4194 51.2936 30.4194C51.7884 30.4194 52.1513 30.5301 52.3824 30.7515C52.6656 31.0314 52.8073 31.5018 52.8073 32.1626V34.1987C52.8073 34.5177 52.983 34.7033 53.3346 34.7554C53.4876 34.7749 53.5641 34.8091 53.5641 34.8579C53.5641 34.9067 53.5478 34.9344 53.5153 34.9409H51.3375C51.305 34.9344 51.2887 34.9116 51.2887 34.8726C51.2887 34.814 51.3652 34.7749 51.5182 34.7554C51.8698 34.7033 52.0455 34.5177 52.0455 34.1987V32.2114C52.0455 31.7329 52.0114 31.422 51.943 31.2788C51.8128 30.9924 51.541 30.8491 51.1276 30.8491C50.8737 30.8491 50.6035 30.9582 50.317 31.1763C50.0306 31.3911 49.8873 31.6287 49.8873 31.8892V34.1987C49.8873 34.5177 50.0631 34.7033 50.4147 34.7554C50.5677 34.7749 50.6442 34.8091 50.6442 34.8579C50.6442 34.9067 50.6279 34.9344 50.5953 34.9409H48.4176C48.3851 34.9344 48.3688 34.9116 48.3688 34.8726C48.3688 34.814 48.4453 34.7749 48.5983 34.7554C48.9498 34.7033 49.1256 34.5177 49.1256 34.1987V28.1099C49.1256 27.9731 49.0507 27.8787 48.901 27.8267C48.8359 27.8039 48.7659 27.786 48.691 27.7729C48.6162 27.7567 48.5559 27.742 48.5104 27.729C48.4681 27.716 48.4404 27.7046 48.4274 27.6948C48.4176 27.6818 48.4127 27.6574 48.4127 27.6216C48.4127 27.5825 48.4371 27.55 48.486 27.5239L49.7311 26.938C49.7701 26.9185 49.7946 26.9087 49.8043 26.9087C49.8597 26.9087 49.8873 26.9478 49.8873 27.0259V31.1616ZM54.8385 32.3677C54.7832 32.3677 54.7555 32.4865 54.7555 32.7241C54.7555 33.2287 54.9052 33.6519 55.2047 33.9937C55.5042 34.3354 55.8753 34.5063 56.318 34.5063C56.764 34.5063 57.192 34.3143 57.6022 33.9302C57.6087 33.9237 57.6168 33.9204 57.6266 33.9204H57.651C57.6705 33.9204 57.6884 33.9367 57.7047 33.9692C57.7242 33.9985 57.7421 34.0181 57.7584 34.0278C57.3808 34.4868 56.9365 34.8042 56.4254 34.98C56.2496 35.0418 56.0511 35.0728 55.8297 35.0728C55.6084 35.0728 55.3837 35.0125 55.1559 34.8921C54.928 34.7684 54.7327 34.6073 54.5699 34.4087C54.2249 33.9953 54.0524 33.481 54.0524 32.8657C54.0524 32.2472 54.2395 31.6841 54.6139 31.1763C54.9915 30.6685 55.5091 30.4146 56.1666 30.4146C56.6386 30.4146 57.0244 30.6261 57.3239 31.0493C57.6233 31.4692 57.7731 31.8387 57.7731 32.1577C57.7731 32.2977 57.7389 32.3677 57.6705 32.3677H54.8385ZM54.8922 31.8989C54.8922 31.9608 54.9215 31.9917 54.9801 31.9917H56.8209C56.9056 31.9917 56.9479 31.9412 56.9479 31.8403C56.9479 31.606 56.8421 31.3667 56.6305 31.1226C56.4222 30.8752 56.1927 30.7515 55.942 30.7515C55.6979 30.7515 55.4749 30.8621 55.2731 31.0835C55.0745 31.3049 54.9476 31.5571 54.8922 31.8403V31.8989ZM64.2916 30.6196C64.4349 30.6685 64.5227 30.6929 64.5553 30.6929C64.5878 30.6929 64.6074 30.6929 64.6139 30.6929C64.6237 30.6896 64.6351 30.6685 64.6481 30.6294V28.1099C64.6481 27.9731 64.5732 27.8787 64.4235 27.8267C64.3584 27.8039 64.2884 27.786 64.2135 27.7729C64.1386 27.7567 64.0784 27.742 64.0328 27.729C63.9905 27.716 63.9628 27.7046 63.9498 27.6948C63.9401 27.6818 63.9352 27.6574 63.9352 27.6216C63.9352 27.5825 63.9596 27.55 64.0084 27.5239L65.2535 26.938C65.2926 26.9185 65.317 26.9087 65.3268 26.9087C65.3821 26.9087 65.4098 26.9478 65.4098 27.0259V33.979C65.4261 34.1222 65.4668 34.2248 65.5319 34.2866C65.597 34.3485 65.7028 34.3794 65.8492 34.3794L66.1324 34.3599C66.152 34.3599 66.1617 34.3794 66.1617 34.4185C66.1617 34.4543 66.1373 34.4836 66.0885 34.5063L64.7897 35.0435C64.7506 35.063 64.7164 35.0728 64.6871 35.0728C64.6611 35.0728 64.6481 35.0321 64.6481 34.9507V34.5063C64.6481 34.4738 64.6399 34.4575 64.6237 34.4575C64.6009 34.4575 64.4658 34.5308 64.2184 34.6772C63.4599 35.1265 62.8203 35.1932 62.2994 34.8774C61.8828 34.6235 61.6012 34.2215 61.4547 33.6714C61.3864 33.4142 61.3522 33.1424 61.3522 32.856C61.3522 32.5662 61.4108 32.2798 61.528 31.9966C61.6484 31.7101 61.8128 31.4595 62.0211 31.2446C62.4801 30.7759 63.0335 30.5415 63.6813 30.5415C63.9449 30.5415 64.1484 30.5675 64.2916 30.6196ZM62.0895 32.7144C62.0895 33.2059 62.2262 33.6372 62.4996 34.0083C62.7731 34.3761 63.1539 34.5601 63.6422 34.5601C63.8571 34.5601 64.0784 34.508 64.3063 34.4038C64.5341 34.2964 64.6481 34.215 64.6481 34.1597V31.6401C64.6481 31.5783 64.6058 31.505 64.5211 31.4204C64.2607 31.0623 63.914 30.8833 63.4811 30.8833C63.0514 30.8833 62.7112 31.0656 62.4606 31.4302C62.2132 31.7915 62.0895 32.2196 62.0895 32.7144ZM67.3873 32.3677C67.332 32.3677 67.3043 32.4865 67.3043 32.7241C67.3043 33.2287 67.4541 33.6519 67.7535 33.9937C68.053 34.3354 68.4241 34.5063 68.8668 34.5063C69.3128 34.5063 69.7408 34.3143 70.151 33.9302C70.1575 33.9237 70.1656 33.9204 70.1754 33.9204H70.1998C70.2194 33.9204 70.2373 33.9367 70.2535 33.9692C70.2731 33.9985 70.291 34.0181 70.3073 34.0278C69.9296 34.4868 69.4853 34.8042 68.9742 34.98C68.7985 35.0418 68.5999 35.0728 68.3785 35.0728C68.1572 35.0728 67.9326 35.0125 67.7047 34.8921C67.4768 34.7684 67.2815 34.6073 67.1188 34.4087C66.7737 33.9953 66.6012 33.481 66.6012 32.8657C66.6012 32.2472 66.7884 31.6841 67.1627 31.1763C67.5403 30.6685 68.0579 30.4146 68.7155 30.4146C69.1875 30.4146 69.5732 30.6261 69.8727 31.0493C70.1722 31.4692 70.3219 31.8387 70.3219 32.1577C70.3219 32.2977 70.2877 32.3677 70.2194 32.3677H67.3873ZM67.441 31.8989C67.441 31.9608 67.4703 31.9917 67.5289 31.9917H69.3698C69.4544 31.9917 69.4967 31.9412 69.4967 31.8403C69.4967 31.606 69.3909 31.3667 69.1793 31.1226C68.971 30.8752 68.7415 30.7515 68.4908 30.7515C68.2467 30.7515 68.0237 30.8621 67.8219 31.0835C67.6233 31.3049 67.4964 31.5571 67.441 31.8403V31.8989ZM77.6608 31.0005C77.6608 31.2284 77.5289 31.3423 77.2653 31.3423C77.1318 31.3423 77.0179 31.3049 76.9235 31.23C76.8323 31.1519 76.7607 31.0868 76.7086 31.0347C76.6598 30.9793 76.6077 30.9289 76.5524 30.8833C76.318 30.6912 76.0315 30.6701 75.693 30.8198C75.3577 30.9696 75.0989 31.2886 74.9166 31.7769C74.8157 32.047 74.7653 32.3156 74.7653 32.5825C74.7653 33.1554 74.8955 33.6242 75.1559 33.9888C75.4163 34.3501 75.8151 34.5308 76.3522 34.5308C76.7526 34.5308 77.1123 34.3517 77.4313 33.9937C77.5289 33.8862 77.5875 33.8325 77.6071 33.8325C77.6266 33.8325 77.6477 33.8423 77.6705 33.8618C77.6933 33.8813 77.7047 33.9106 77.7047 33.9497C77.7047 33.9855 77.6949 34.0132 77.6754 34.0327C77.1774 34.7261 76.5507 35.0728 75.7955 35.0728C75.2487 35.0728 74.7994 34.8693 74.4479 34.4624C74.0996 34.0555 73.9254 33.59 73.9254 33.0659C73.9287 32.0959 74.163 31.3976 74.6285 30.9712C75.0387 30.5968 75.623 30.4097 76.3815 30.4097C76.8502 30.4097 77.1611 30.4569 77.3141 30.5513C77.4671 30.6457 77.5745 30.7645 77.6364 30.9077C77.6526 30.9403 77.6608 30.9712 77.6608 31.0005ZM81.7281 34.5112C81.7119 34.4559 81.6907 34.438 81.6647 34.4575C81.6386 34.4738 81.5328 34.5291 81.3473 34.6235C80.7386 34.9263 80.2308 35.0776 79.8239 35.0776C79.417 35.0776 79.124 34.9474 78.9449 34.687C78.8798 34.5894 78.8473 34.4689 78.8473 34.3257V31.3472C78.8375 31.2528 78.7952 31.1714 78.7203 31.103C78.6194 31.0184 78.5136 30.9728 78.403 30.9663C78.2955 30.9598 78.2418 30.9272 78.2418 30.8687C78.2418 30.8068 78.2679 30.7694 78.3199 30.7563L79.4381 30.4341C79.4772 30.4211 79.5146 30.4146 79.5504 30.4146C79.5895 30.4146 79.609 30.4422 79.609 30.4976V33.7739C79.609 34.0018 79.7099 34.1776 79.9117 34.3013C80.1136 34.425 80.3707 34.4868 80.6832 34.4868C80.999 34.4868 81.2822 34.3908 81.5328 34.1987C81.611 34.1369 81.6761 34.0685 81.7281 33.9937V31.3472C81.7184 31.2528 81.6761 31.1714 81.6012 31.103C81.5003 31.0184 81.3945 30.9728 81.2838 30.9663C81.1764 30.9598 81.1227 30.9272 81.1227 30.8687C81.1227 30.8068 81.1487 30.7694 81.2008 30.7563L82.319 30.4341C82.358 30.4211 82.3955 30.4146 82.4313 30.4146C82.4703 30.4146 82.4899 30.4471 82.4899 30.5122V33.979C82.5061 34.1222 82.5468 34.2248 82.6119 34.2866C82.677 34.3485 82.7828 34.3794 82.9293 34.3794L83.2125 34.3599C83.2321 34.3599 83.2418 34.3794 83.2418 34.4185C83.2418 34.4543 83.2174 34.4836 83.1686 34.5063L81.8698 35.0435C81.8307 35.063 81.7965 35.0728 81.7672 35.0728C81.7412 35.0728 81.7281 35.0321 81.7281 34.9507V34.5112ZM87.5533 34.4282C87.1041 34.8579 86.5996 35.0728 86.0397 35.0728C85.8378 35.0728 85.5628 35.0353 85.2145 34.9604C85.1591 34.9604 85.1282 34.98 85.1217 35.019C85.1184 35.0581 85.1152 35.0988 85.1119 35.1411V37.2261C85.1119 37.4702 85.2535 37.633 85.5367 37.7144C85.6604 37.7469 85.776 37.7697 85.8834 37.7827C85.9908 37.799 86.0592 37.8136 86.0885 37.8267C86.1211 37.8397 86.1373 37.8641 86.1373 37.8999C86.1373 37.939 86.1211 37.9618 86.0885 37.9683H83.6422C83.6097 37.9618 83.5934 37.939 83.5934 37.8999C83.5934 37.8413 83.6699 37.8022 83.8229 37.7827C84.1744 37.7306 84.3502 37.5451 84.3502 37.2261V31.3716C84.3502 31.2349 84.2753 31.1405 84.1256 31.0884C84.0605 31.0656 83.9905 31.0477 83.9156 31.0347C83.8408 31.0184 83.7806 31.0037 83.735 30.9907C83.6927 30.9777 83.665 30.9663 83.652 30.9565C83.6422 30.9435 83.6373 30.9191 83.6373 30.8833C83.6373 30.8442 83.6617 30.8117 83.7106 30.7856L84.9557 30.1899C84.9817 30.1769 85.0078 30.1704 85.0338 30.1704C85.0859 30.1704 85.1119 30.2095 85.1119 30.2876V30.9077C85.1119 30.9435 85.1298 30.9614 85.1656 30.9614C85.2047 30.9614 85.2959 30.9142 85.4391 30.8198C85.8525 30.5529 86.2822 30.4194 86.7281 30.4194C87.0406 30.4194 87.3271 30.5464 87.5875 30.8003C87.9293 31.1323 88.1572 31.5946 88.2711 32.187C88.3037 32.3563 88.3199 32.5369 88.3199 32.729C88.3199 32.9178 88.289 33.118 88.2272 33.3296C88.1035 33.7495 87.8789 34.1157 87.5533 34.4282ZM86.1569 30.9272C85.7142 30.9272 85.3658 31.0542 85.1119 31.3081V34.0522C85.1119 34.215 85.1396 34.3208 85.1949 34.3696C85.3382 34.4933 85.5579 34.5894 85.8541 34.6577C86.4401 34.7912 86.8958 34.6512 87.2213 34.2378C87.4524 33.9416 87.568 33.5835 87.568 33.1636C87.568 32.3465 87.3841 31.7345 87.0162 31.3276C86.7949 31.0802 86.5084 30.9468 86.1569 30.9272ZM89.1989 34.9409C89.1663 34.9344 89.15 34.9116 89.15 34.8726C89.15 34.814 89.2265 34.7749 89.3795 34.7554C89.7311 34.7033 89.9069 34.5177 89.9069 34.1987V31.6157C89.9069 31.479 89.832 31.3846 89.6823 31.3325C89.6171 31.3097 89.5472 31.2918 89.4723 31.2788C89.3974 31.2625 89.3372 31.2479 89.2916 31.2349C89.2493 31.2218 89.2216 31.2104 89.2086 31.2007C89.1989 31.1877 89.194 31.1632 89.194 31.1274C89.194 31.0884 89.2184 31.0558 89.2672 31.0298L90.5123 30.4438C90.5514 30.4243 90.5758 30.4146 90.5856 30.4146C90.6409 30.4146 90.6686 30.4536 90.6686 30.5317V34.1987C90.6686 34.5177 90.8444 34.7033 91.1959 34.7554C91.3489 34.7749 91.4254 34.8091 91.4254 34.8579C91.4254 34.9067 91.4091 34.9344 91.3766 34.9409H89.1989ZM90.2145 29.0425C90.081 29.0425 89.9622 29.0002 89.858 28.9155C89.7571 28.8309 89.7067 28.7137 89.7067 28.564C89.7067 28.411 89.7555 28.2905 89.8531 28.2026C89.9508 28.1147 90.0664 28.0708 90.1998 28.0708C90.3365 28.0708 90.4505 28.1229 90.5416 28.2271C90.636 28.3312 90.6832 28.4435 90.6832 28.564C90.6832 28.6844 90.6393 28.7951 90.5514 28.896C90.4635 28.9937 90.3512 29.0425 90.2145 29.0425ZM95.024 30.6196C95.1673 30.6685 95.2552 30.6929 95.2877 30.6929C95.3203 30.6929 95.3398 30.6929 95.3463 30.6929C95.3561 30.6896 95.3675 30.6685 95.3805 30.6294V28.1099C95.3805 27.9731 95.3056 27.8787 95.1559 27.8267C95.0908 27.8039 95.0208 27.786 94.9459 27.7729C94.8711 27.7567 94.8108 27.742 94.7653 27.729C94.7229 27.716 94.6953 27.7046 94.6823 27.6948C94.6725 27.6818 94.6676 27.6574 94.6676 27.6216C94.6676 27.5825 94.692 27.55 94.7408 27.5239L95.986 26.938C96.025 26.9185 96.0494 26.9087 96.0592 26.9087C96.1145 26.9087 96.1422 26.9478 96.1422 27.0259V33.979C96.1585 34.1222 96.1992 34.2248 96.2643 34.2866C96.3294 34.3485 96.4352 34.3794 96.5817 34.3794L96.8649 34.3599C96.8844 34.3599 96.8942 34.3794 96.8942 34.4185C96.8942 34.4543 96.8698 34.4836 96.8209 34.5063L95.5221 35.0435C95.483 35.063 95.4489 35.0728 95.4196 35.0728C95.3935 35.0728 95.3805 35.0321 95.3805 34.9507V34.5063C95.3805 34.4738 95.3724 34.4575 95.3561 34.4575C95.3333 34.4575 95.1982 34.5308 94.9508 34.6772C94.1923 35.1265 93.5527 35.1932 93.0319 34.8774C92.6152 34.6235 92.3336 34.2215 92.1871 33.6714C92.1188 33.4142 92.0846 33.1424 92.0846 32.856C92.0846 32.5662 92.1432 32.2798 92.2604 31.9966C92.3808 31.7101 92.5452 31.4595 92.7535 31.2446C93.2125 30.7759 93.7659 30.5415 94.4137 30.5415C94.6774 30.5415 94.8808 30.5675 95.024 30.6196ZM92.8219 32.7144C92.8219 33.2059 92.9586 33.6372 93.2321 34.0083C93.5055 34.3761 93.8864 34.5601 94.3746 34.5601C94.5895 34.5601 94.8108 34.508 95.0387 34.4038C95.2666 34.2964 95.3805 34.215 95.3805 34.1597V31.6401C95.3805 31.5783 95.3382 31.505 95.2535 31.4204C94.9931 31.0623 94.6464 30.8833 94.2135 30.8833C93.7838 30.8833 93.4436 31.0656 93.193 31.4302C92.9456 31.7915 92.8219 32.2196 92.8219 32.7144ZM97.358 32.7485C97.358 32.1073 97.5843 31.5571 98.0367 31.0981C98.4925 30.6359 99.0377 30.4048 99.6725 30.4048C100.307 30.4048 100.859 30.6294 101.328 31.0786C101.797 31.5246 102.031 32.0763 102.031 32.7339C102.031 33.3914 101.808 33.9465 101.362 34.3989C100.919 34.8481 100.363 35.0728 99.692 35.0728C99.0214 35.0728 98.4648 34.8449 98.0221 34.3892C97.5794 33.9334 97.358 33.3866 97.358 32.7485ZM98.5739 34.0034C98.8929 34.5405 99.3274 34.8091 99.8776 34.8091C100.304 34.8091 100.63 34.6382 100.854 34.2964C101.082 33.9546 101.196 33.5347 101.196 33.0366C101.196 32.5386 101.036 32.0275 100.717 31.5034C100.402 30.9793 99.9752 30.7173 99.4381 30.7173C99.0442 30.7173 98.7334 30.8882 98.5055 31.23C98.2809 31.5685 98.1686 31.9998 98.1686 32.5239C98.1686 33.0448 98.3037 33.5379 98.5739 34.0034ZM106.328 33.4028L106.318 32.3726C106.318 31.9526 106.282 31.658 106.211 31.4888C106.139 31.3195 106.048 31.1925 105.937 31.1079C105.826 31.02 105.677 30.9761 105.488 30.9761C105.302 30.9761 104.907 31.1226 104.301 31.4155C104.22 31.4644 104.178 31.5099 104.174 31.5522V34.1792C104.174 34.508 104.35 34.6968 104.702 34.7456C104.855 34.7684 104.931 34.8058 104.931 34.8579C104.931 34.9067 104.915 34.9344 104.882 34.9409H102.705C102.672 34.9344 102.656 34.9116 102.656 34.8726C102.656 34.8107 102.732 34.7684 102.885 34.7456C103.237 34.6968 103.413 34.508 103.413 34.1792V31.3765C103.413 31.2397 103.338 31.1453 103.188 31.0933C103.123 31.0705 103.053 31.0526 102.978 31.0396C102.903 31.0233 102.843 31.0086 102.797 30.9956C102.755 30.9826 102.727 30.9712 102.714 30.9614C102.705 30.9484 102.7 30.924 102.7 30.8882C102.7 30.8491 102.724 30.8166 102.773 30.7905L104.018 30.2046C104.057 30.1851 104.082 30.1753 104.091 30.1753C104.147 30.1753 104.174 30.2144 104.174 30.2925V31.0542C104.184 31.0868 104.197 31.103 104.214 31.103C104.233 31.103 104.303 31.0737 104.423 31.0151C104.703 30.8752 104.985 30.7401 105.268 30.6099C105.551 30.4797 105.786 30.4146 105.971 30.4146C106.723 30.4146 107.099 31.0998 107.099 32.4702L107.055 33.896V34.1792C107.055 34.4331 107.182 34.5991 107.436 34.6772C107.544 34.7131 107.646 34.7391 107.744 34.7554C107.845 34.7684 107.91 34.7814 107.939 34.7944C107.972 34.8075 107.988 34.8335 107.988 34.8726C107.988 34.9116 107.972 34.9344 107.939 34.9409H105.586C105.553 34.9344 105.537 34.9116 105.537 34.8726C105.537 34.8107 105.613 34.7684 105.766 34.7456C106.115 34.6968 106.289 34.495 106.289 34.1401C106.315 33.9774 106.328 33.7316 106.328 33.4028ZM111.899 32.3677C111.844 32.3677 111.816 32.4865 111.816 32.7241C111.816 33.2287 111.966 33.6519 112.265 33.9937C112.565 34.3354 112.936 34.5063 113.379 34.5063C113.825 34.5063 114.253 34.3143 114.663 33.9302C114.669 33.9237 114.677 33.9204 114.687 33.9204H114.712C114.731 33.9204 114.749 33.9367 114.765 33.9692C114.785 33.9985 114.803 34.0181 114.819 34.0278C114.441 34.4868 113.997 34.8042 113.486 34.98C113.31 35.0418 113.112 35.0728 112.89 35.0728C112.669 35.0728 112.444 35.0125 112.216 34.8921C111.989 34.7684 111.793 34.6073 111.63 34.4087C111.285 33.9953 111.113 33.481 111.113 32.8657C111.113 32.2472 111.3 31.6841 111.674 31.1763C112.052 30.6685 112.57 30.4146 113.227 30.4146C113.699 30.4146 114.085 30.6261 114.384 31.0493C114.684 31.4692 114.834 31.8387 114.834 32.1577C114.834 32.2977 114.799 32.3677 114.731 32.3677H111.899ZM111.953 31.8989C111.953 31.9608 111.982 31.9917 112.041 31.9917H113.881C113.966 31.9917 114.008 31.9412 114.008 31.8403C114.008 31.606 113.903 31.3667 113.691 31.1226C113.483 30.8752 113.253 30.7515 113.003 30.7515C112.758 30.7515 112.535 30.8621 112.334 31.0835C112.135 31.3049 112.008 31.5571 111.953 31.8403V31.8989ZM118.022 31.6011C118.022 31.6727 117.994 31.7085 117.939 31.7085C117.887 31.7085 117.846 31.6694 117.817 31.5913C117.739 31.3765 117.622 31.186 117.465 31.02C117.312 30.854 117.122 30.771 116.894 30.771C116.595 30.771 116.393 30.9207 116.289 31.2202C116.256 31.3211 116.24 31.4253 116.24 31.5327C116.24 31.6401 116.308 31.7606 116.445 31.894C116.582 32.0243 116.806 32.1805 117.119 32.3628C117.431 32.5451 117.659 32.6997 117.802 32.8267C118.128 33.1164 118.291 33.4517 118.291 33.8325C118.291 34.2134 118.151 34.5161 117.871 34.7407C117.591 34.9621 117.265 35.0728 116.894 35.0728C116.696 35.0728 116.515 35.0451 116.352 34.9897C116.193 34.9377 116.1 34.9116 116.074 34.9116C116.051 34.9116 116.012 34.9377 115.957 34.9897C115.905 35.0451 115.862 35.0728 115.83 35.0728H115.747C115.727 35.0728 115.703 34.897 115.673 34.5454C115.644 34.1938 115.63 33.9855 115.63 33.9204C115.63 33.8553 115.634 33.8195 115.644 33.813C115.657 33.8065 115.677 33.8032 115.703 33.8032C115.729 33.8032 115.75 33.8114 115.766 33.8276C115.786 33.8439 115.802 33.8651 115.815 33.8911C115.828 33.9139 115.838 33.9383 115.844 33.9644C115.854 33.9904 115.875 34.0392 115.908 34.1108C116.129 34.5828 116.471 34.8188 116.933 34.8188C117.138 34.8188 117.303 34.744 117.426 34.5942C117.55 34.4412 117.612 34.272 117.612 34.0864C117.612 33.9009 117.563 33.7446 117.465 33.6177C117.368 33.4907 117.246 33.3752 117.099 33.271C116.956 33.1668 116.8 33.0659 116.63 32.9683C115.973 32.5841 115.644 32.1593 115.644 31.6938C115.644 31.3455 115.794 31.0461 116.093 30.7954C116.393 30.5415 116.7 30.4146 117.016 30.4146C117.332 30.4146 117.565 30.4487 117.714 30.5171C117.867 30.5854 117.957 30.644 117.983 30.6929C118.009 30.7384 118.022 30.8914 118.022 31.1519V31.6011ZM120.19 31.186C120.171 31.186 120.161 31.2007 120.161 31.23V33.9253C120.161 34.1206 120.203 34.2736 120.288 34.3843C120.376 34.495 120.486 34.5503 120.62 34.5503C120.753 34.5503 120.869 34.5291 120.966 34.4868C121.067 34.4412 121.154 34.3924 121.225 34.3403C121.3 34.2882 121.367 34.241 121.425 34.1987C121.484 34.1532 121.536 34.1304 121.582 34.1304C121.627 34.1304 121.65 34.1418 121.65 34.1646C121.65 34.2427 121.642 34.2931 121.626 34.3159C121.235 34.8205 120.857 35.0728 120.493 35.0728C120.131 35.0728 119.858 34.9588 119.672 34.731C119.49 34.4998 119.399 34.2248 119.399 33.9058V31.186H119.033C118.942 31.186 118.893 31.1567 118.886 31.0981C118.883 31.0396 118.893 31.0021 118.916 30.9858C119.088 30.8752 119.326 30.6766 119.629 30.3901C119.661 30.3543 119.705 30.3006 119.76 30.229C119.816 30.1574 119.895 30.0597 120 29.936C120.107 29.8123 120.188 29.7505 120.244 29.7505C120.299 29.7505 120.327 29.7733 120.327 29.8188C120.327 29.8254 120.271 30.0386 120.161 30.4585C120.161 30.5171 120.187 30.548 120.239 30.5513H121.484C121.627 30.5513 121.699 30.7531 121.699 31.1567C121.699 31.1763 121.686 31.186 121.66 31.186H120.19ZM125.146 34.4526C125.146 34.2769 125.208 34.1255 125.332 33.9985C125.455 33.8683 125.605 33.8032 125.781 33.8032C125.953 33.8032 126.102 33.8667 126.225 33.9937C126.352 34.1174 126.416 34.2687 126.416 34.4478C126.416 34.6268 126.354 34.7765 126.23 34.897C126.106 35.0142 125.957 35.0728 125.781 35.0728C125.608 35.0728 125.459 35.0125 125.332 34.8921C125.208 34.7716 125.146 34.6252 125.146 34.4526ZM125.146 31.0542C125.146 30.8784 125.208 30.7271 125.332 30.6001C125.455 30.4699 125.605 30.4048 125.781 30.4048C125.953 30.4048 126.102 30.4683 126.225 30.5952C126.352 30.7189 126.416 30.8703 126.416 31.0493C126.416 31.2284 126.354 31.3781 126.23 31.4985C126.106 31.6157 125.957 31.6743 125.781 31.6743C125.608 31.6743 125.459 31.6141 125.332 31.4937C125.208 31.3732 125.146 31.2267 125.146 31.0542ZM19.1305 76.9019C19.1305 76.9279 19.1175 76.9409 19.0914 76.9409H16.5963C16.5703 76.9409 16.5573 76.9279 16.5573 76.9019V76.7847C16.5573 76.7586 16.5784 76.7456 16.6207 76.7456C17.0667 76.7261 17.3678 76.4884 17.524 76.0327L19.5162 70.2661C19.5195 70.2596 19.5211 70.2515 19.5211 70.2417L19.4674 70.0806C19.4674 70.0643 19.4739 70.0562 19.4869 70.0562H20.4635C20.47 70.0594 20.4781 70.0627 20.4879 70.0659C20.5009 70.0692 20.5107 70.0789 20.5172 70.0952L22.5826 75.8911C22.6282 75.979 22.664 76.0588 22.6901 76.1304C22.7194 76.202 22.7519 76.2671 22.7877 76.3257C22.8658 76.4591 22.9944 76.5617 23.1735 76.6333C23.3232 76.7082 23.4599 76.7456 23.5836 76.7456C23.6097 76.7456 23.6227 76.7603 23.6227 76.7896V76.9019C23.6227 76.9279 23.6097 76.9409 23.5836 76.9409H20.5953C20.5693 76.9409 20.5563 76.9279 20.5563 76.9019V76.7847C20.5563 76.7586 20.6165 76.7424 20.7369 76.7358C20.8574 76.7293 20.9567 76.7228 21.0348 76.7163C21.4873 76.6675 21.7135 76.5145 21.7135 76.2573C21.7135 76.2378 21.7102 76.215 21.7037 76.189L20.9664 74.1089C20.9632 74.1024 20.9567 74.0877 20.9469 74.0649C20.9078 73.9543 20.8395 73.8989 20.7418 73.8989H19.0084C18.9108 73.8989 18.8343 73.9526 18.7789 74.0601C18.7692 74.0828 18.7643 74.0959 18.7643 74.0991L18.0319 76.2427V76.2866C18.0319 76.3713 18.0758 76.4478 18.1637 76.5161C18.3623 76.6691 18.6292 76.7456 18.9645 76.7456H19.0914C19.1175 76.7456 19.1305 76.7586 19.1305 76.7847V76.9019ZM20.5758 73.3569C20.6344 73.3569 20.6637 73.3325 20.6637 73.2837C20.6637 73.2576 20.6572 73.2284 20.6442 73.1958L19.9166 71.1938C19.8841 71.106 19.8597 71.062 19.8434 71.062C19.8271 71.062 19.8011 71.1076 19.7653 71.1987L19.0817 73.1958C19.0686 73.2284 19.0621 73.2642 19.0621 73.3032C19.0621 73.339 19.0865 73.3569 19.1354 73.3569H20.5758ZM25.7955 76.7554C25.9485 76.7749 26.025 76.814 26.025 76.8726C26.025 76.9116 26.0087 76.9344 25.9762 76.9409H23.7985C23.7659 76.9344 23.7496 76.9116 23.7496 76.8726C23.7496 76.814 23.8261 76.7749 23.9791 76.7554C24.3307 76.7033 24.5065 76.5177 24.5065 76.1987V70.1099C24.5065 69.9731 24.4316 69.8787 24.2819 69.8267C24.2168 69.8039 24.1468 69.786 24.0719 69.7729C23.997 69.7567 23.9368 69.742 23.8912 69.729C23.8489 69.716 23.8212 69.7046 23.8082 69.6948C23.7985 69.6818 23.7936 69.6574 23.7936 69.6216C23.7936 69.5825 23.818 69.55 23.8668 69.5239L25.1119 68.938C25.151 68.9185 25.1754 68.9087 25.1852 68.9087C25.2405 68.9087 25.2682 68.9478 25.2682 69.0259V76.1987C25.2682 76.5177 25.444 76.7033 25.7955 76.7554ZM26.5426 76.9409C26.5101 76.9344 26.4938 76.9116 26.4938 76.8726C26.4938 76.814 26.5703 76.7749 26.7233 76.7554C27.0748 76.7033 27.2506 76.5177 27.2506 76.1987V73.6157C27.2506 73.479 27.1757 73.3846 27.026 73.3325C26.9609 73.3097 26.8909 73.2918 26.816 73.2788C26.7412 73.2625 26.6809 73.2479 26.6354 73.2349C26.5931 73.2218 26.5654 73.2104 26.5524 73.2007C26.5426 73.1877 26.5377 73.1632 26.5377 73.1274C26.5377 73.0884 26.5621 73.0558 26.611 73.0298L27.8561 72.4438C27.8951 72.4243 27.9196 72.4146 27.9293 72.4146C27.9847 72.4146 28.0123 72.4536 28.0123 72.5317V76.1987C28.0123 76.5177 28.1881 76.7033 28.5397 76.7554C28.6927 76.7749 28.7692 76.8091 28.7692 76.8579C28.7692 76.9067 28.7529 76.9344 28.7203 76.9409H26.5426ZM27.5582 71.0425C27.4248 71.0425 27.3059 71.0002 27.2018 70.9155C27.1009 70.8309 27.0504 70.7137 27.0504 70.564C27.0504 70.411 27.0992 70.2905 27.1969 70.2026C27.2946 70.1147 27.4101 70.0708 27.5436 70.0708C27.6803 70.0708 27.7942 70.1229 27.8854 70.2271C27.9798 70.3312 28.027 70.4435 28.027 70.564C28.027 70.6844 27.983 70.7951 27.8951 70.896C27.8073 70.9937 27.6949 71.0425 27.5582 71.0425ZM33.0123 72.8833C33.0123 72.8833 33.4485 72.8638 34.3209 72.8247C34.3958 72.8247 34.4446 72.8328 34.4674 72.8491C34.4902 72.8654 34.5146 72.9224 34.5406 73.02C34.5667 73.1144 34.5797 73.2039 34.5797 73.2886C34.5797 73.3732 34.5716 73.422 34.5553 73.4351C34.539 73.4481 34.5065 73.4546 34.4576 73.4546H33.3737C33.3932 73.4904 33.4143 73.5278 33.4371 73.5669C33.4599 73.606 33.4892 73.6711 33.525 73.7622C33.5608 73.8534 33.5787 73.995 33.5787 74.187C33.5787 74.3758 33.5315 74.5744 33.4371 74.7827C33.346 74.9878 33.2109 75.1701 33.0319 75.3296C32.6347 75.6877 32.1204 75.8667 31.4889 75.8667C31.3229 75.8667 31.1406 75.8358 30.942 75.7739C30.8932 75.826 30.8281 75.8748 30.7467 75.9204C30.6653 75.9627 30.5856 76.0067 30.5074 76.0522C30.3121 76.1629 30.2145 76.2736 30.2145 76.3843C30.2145 76.661 30.6735 76.8026 31.5914 76.8091C32.5094 76.8156 33.1116 76.8465 33.3981 76.9019C33.6878 76.9539 33.9124 77.0597 34.0719 77.2192C34.3226 77.4699 34.4479 77.7563 34.4479 78.0786C34.4479 78.3553 34.3291 78.6401 34.0914 78.9331C33.678 79.4507 33.0465 79.7957 32.1969 79.9683C31.8942 80.0301 31.5735 80.061 31.235 80.061C30.6198 80.061 30.1526 79.9487 29.8336 79.7241C29.5146 79.5028 29.3551 79.2342 29.3551 78.9185C29.3551 78.7459 29.3958 78.6027 29.4772 78.4888C29.5586 78.3781 29.6611 78.2723 29.7848 78.1714C29.9117 78.0737 30.0501 77.9696 30.1998 77.8589C30.3496 77.7515 30.4928 77.6131 30.6295 77.4438C30.317 77.4178 30.0485 77.3185 29.8239 77.146C29.6025 76.9735 29.4918 76.8042 29.4918 76.6382C29.4918 76.4722 29.5358 76.3501 29.6237 76.272C29.7115 76.1906 29.819 76.1222 29.9459 76.0669C30.0729 76.0083 30.2063 75.9546 30.3463 75.9058C30.4863 75.8569 30.6084 75.7935 30.7125 75.7153C30.3479 75.5721 30.0664 75.3752 29.8678 75.1245C29.6692 74.8706 29.5699 74.5939 29.5699 74.2944C29.5699 73.7378 29.7718 73.2837 30.1754 72.9321C30.5823 72.5806 31.0722 72.4048 31.6451 72.4048C32.2181 72.4048 32.6738 72.5643 33.0123 72.8833ZM30.3561 77.9761C30.2812 78.0509 30.2194 78.1307 30.1705 78.2153C30.1217 78.3 30.0973 78.4058 30.0973 78.5327C30.0973 78.6629 30.1429 78.798 30.234 78.938C30.3284 79.0812 30.4554 79.2098 30.6149 79.3237C30.9664 79.5841 31.3896 79.7144 31.8844 79.7144C32.3792 79.7144 32.8268 79.5695 33.2272 79.2798C33.6308 78.9933 33.8326 78.6776 33.8326 78.3325C33.8326 77.9907 33.6666 77.7612 33.3346 77.644C33.1783 77.592 32.7763 77.5594 32.1285 77.5464C31.4808 77.5334 31.0608 77.5155 30.8688 77.4927C30.7841 77.5903 30.6962 77.6766 30.6051 77.7515C30.5172 77.8263 30.4342 77.9012 30.3561 77.9761ZM32.778 74.1821C32.778 73.7231 32.6624 73.3504 32.4313 73.064C32.2034 72.7743 31.9007 72.6294 31.5231 72.6294C31.0348 72.6294 30.6897 72.8589 30.4879 73.3179C30.4098 73.4937 30.3707 73.6955 30.3707 73.9233C30.3707 74.3888 30.4668 74.7762 30.6588 75.0854C30.8932 75.4565 31.2008 75.6421 31.5817 75.6421C31.9625 75.6421 32.2571 75.5135 32.4655 75.2563C32.6738 74.9992 32.778 74.6411 32.778 74.1821ZM38.5446 75.4028L38.5348 74.3726C38.5348 73.9526 38.499 73.658 38.4274 73.4888C38.3558 73.3195 38.2646 73.1925 38.1539 73.1079C38.0433 73.02 37.8935 72.9761 37.7047 72.9761C37.5192 72.9761 37.1237 73.1226 36.5182 73.4155C36.4368 73.4644 36.3945 73.5099 36.3912 73.5522V76.1792C36.3912 76.508 36.567 76.6968 36.9186 76.7456C37.0716 76.7684 37.1481 76.8058 37.1481 76.8579C37.1481 76.9067 37.1318 76.9344 37.0992 76.9409H34.9215C34.889 76.9344 34.8727 76.9116 34.8727 76.8726C34.8727 76.8107 34.9492 76.7684 35.1022 76.7456C35.4537 76.6968 35.6295 76.508 35.6295 76.1792V73.3765C35.6295 73.2397 35.5546 73.1453 35.4049 73.0933C35.3398 73.0705 35.2698 73.0526 35.1949 73.0396C35.1201 73.0233 35.0599 73.0086 35.0143 72.9956C34.972 72.9826 34.9443 72.9712 34.9313 72.9614C34.9215 72.9484 34.9166 72.924 34.9166 72.8882C34.9166 72.8491 34.941 72.8166 34.9899 72.7905L36.235 72.2046C36.274 72.1851 36.2985 72.1753 36.3082 72.1753C36.3636 72.1753 36.3912 72.2144 36.3912 72.2925V73.0542C36.401 73.0868 36.414 73.103 36.4303 73.103C36.4498 73.103 36.5198 73.0737 36.6403 73.0151C36.9202 72.8752 37.2018 72.7401 37.485 72.6099C37.7682 72.4797 38.0026 72.4146 38.1881 72.4146C38.9401 72.4146 39.316 73.0998 39.316 74.4702L39.2721 75.896V76.1792C39.2721 76.4331 39.399 76.5991 39.653 76.6772C39.7604 76.7131 39.8629 76.7391 39.9606 76.7554C40.0615 76.7684 40.1266 76.7814 40.1559 76.7944C40.1884 76.8075 40.2047 76.8335 40.2047 76.8726C40.2047 76.9116 40.1884 76.9344 40.1559 76.9409H37.8024C37.7698 76.9344 37.7535 76.9116 37.7535 76.8726C37.7535 76.8107 37.83 76.7684 37.983 76.7456C38.3313 76.6968 38.5055 76.495 38.5055 76.1401C38.5315 75.9774 38.5446 75.7316 38.5446 75.4028ZM41.4303 74.3677C41.375 74.3677 41.3473 74.4865 41.3473 74.7241C41.3473 75.2287 41.497 75.6519 41.7965 75.9937C42.096 76.3354 42.4671 76.5063 42.9098 76.5063C43.3558 76.5063 43.7838 76.3143 44.194 75.9302C44.2005 75.9237 44.2086 75.9204 44.2184 75.9204H44.2428C44.2623 75.9204 44.2802 75.9367 44.2965 75.9692C44.316 75.9985 44.3339 76.0181 44.3502 76.0278C43.9726 76.4868 43.5283 76.8042 43.0172 76.98C42.8414 77.0418 42.6429 77.0728 42.4215 77.0728C42.2002 77.0728 41.9755 77.0125 41.7477 76.8921C41.5198 76.7684 41.3245 76.6073 41.1617 76.4087C40.8167 75.9953 40.6442 75.481 40.6442 74.8657C40.6442 74.2472 40.8313 73.6841 41.2057 73.1763C41.5833 72.6685 42.1009 72.4146 42.7584 72.4146C43.2304 72.4146 43.6162 72.6261 43.9156 73.0493C44.2151 73.4692 44.3649 73.8387 44.3649 74.1577C44.3649 74.2977 44.3307 74.3677 44.2623 74.3677H41.4303ZM41.484 73.8989C41.484 73.9608 41.5133 73.9917 41.5719 73.9917H43.4127C43.4974 73.9917 43.5397 73.9412 43.5397 73.8403C43.5397 73.606 43.4339 73.3667 43.2223 73.1226C43.014 72.8752 42.7845 72.7515 42.5338 72.7515C42.2897 72.7515 42.0667 72.8621 41.8649 73.0835C41.6663 73.3049 41.5393 73.5571 41.484 73.8403V73.8989ZM49.6725 76.7554C49.8255 76.7749 49.902 76.814 49.902 76.8726C49.902 76.9116 49.8857 76.9344 49.8531 76.9409H47.6754C47.6429 76.9344 47.6266 76.9116 47.6266 76.8726C47.6266 76.814 47.7031 76.7749 47.8561 76.7554C48.2076 76.7033 48.3834 76.5177 48.3834 76.1987V70.1099C48.3834 69.9731 48.3086 69.8787 48.1588 69.8267C48.0937 69.8039 48.0237 69.786 47.9489 69.7729C47.874 69.7567 47.8138 69.742 47.7682 69.729C47.7259 69.716 47.6982 69.7046 47.6852 69.6948C47.6754 69.6818 47.6705 69.6574 47.6705 69.6216C47.6705 69.5825 47.6949 69.55 47.7438 69.5239L48.9889 68.938C49.028 68.9185 49.0524 68.9087 49.0621 68.9087C49.1175 68.9087 49.1451 68.9478 49.1451 69.0259V76.1987C49.1451 76.5177 49.3209 76.7033 49.6725 76.7554ZM51.2057 74.3677C51.1503 74.3677 51.1227 74.4865 51.1227 74.7241C51.1227 75.2287 51.2724 75.6519 51.5719 75.9937C51.8714 76.3354 52.2425 76.5063 52.6852 76.5063C53.1311 76.5063 53.5592 76.3143 53.9694 75.9302C53.9759 75.9237 53.984 75.9204 53.9938 75.9204H54.0182C54.0377 75.9204 54.0556 75.9367 54.0719 75.9692C54.0914 75.9985 54.1093 76.0181 54.1256 76.0278C53.748 76.4868 53.3037 76.8042 52.7926 76.98C52.6168 77.0418 52.4183 77.0728 52.1969 77.0728C51.9755 77.0728 51.7509 77.0125 51.5231 76.8921C51.2952 76.7684 51.0999 76.6073 50.9371 76.4087C50.5921 75.9953 50.4196 75.481 50.4196 74.8657C50.4196 74.2472 50.6067 73.6841 50.9811 73.1763C51.3587 72.6685 51.8763 72.4146 52.5338 72.4146C53.0058 72.4146 53.3916 72.6261 53.691 73.0493C53.9905 73.4692 54.1403 73.8387 54.1403 74.1577C54.1403 74.2977 54.1061 74.3677 54.0377 74.3677H51.2057ZM51.2594 73.8989C51.2594 73.9608 51.2887 73.9917 51.3473 73.9917H53.1881C53.2727 73.9917 53.3151 73.9412 53.3151 73.8403C53.3151 73.606 53.2093 73.3667 52.9977 73.1226C52.7893 72.8752 52.5599 72.7515 52.3092 72.7515C52.0651 72.7515 51.8421 72.8621 51.6403 73.0835C51.4417 73.3049 51.3147 73.5571 51.2594 73.8403V73.8989ZM61.4791 73.0005C61.4791 73.2284 61.3473 73.3423 61.0836 73.3423C60.9502 73.3423 60.8362 73.3049 60.7418 73.23C60.6507 73.1519 60.5791 73.0868 60.527 73.0347C60.4781 72.9793 60.4261 72.9289 60.3707 72.8833C60.1364 72.6912 59.8499 72.6701 59.5114 72.8198C59.1761 72.9696 58.9173 73.2886 58.735 73.7769C58.6341 74.047 58.5836 74.3156 58.5836 74.5825C58.5836 75.1554 58.7138 75.6242 58.9742 75.9888C59.2347 76.3501 59.6334 76.5308 60.1705 76.5308C60.5709 76.5308 60.9306 76.3517 61.2496 75.9937C61.3473 75.8862 61.4059 75.8325 61.4254 75.8325C61.4449 75.8325 61.4661 75.8423 61.4889 75.8618C61.5117 75.8813 61.5231 75.9106 61.5231 75.9497C61.5231 75.9855 61.5133 76.0132 61.4938 76.0327C60.9957 76.7261 60.3691 77.0728 59.6139 77.0728C59.067 77.0728 58.6178 76.8693 58.2662 76.4624C57.9179 76.0555 57.7438 75.59 57.7438 75.0659C57.747 74.0959 57.9814 73.3976 58.4469 72.9712C58.8571 72.5968 59.4414 72.4097 60.1998 72.4097C60.6686 72.4097 60.9795 72.4569 61.1324 72.5513C61.2854 72.6457 61.3929 72.7645 61.4547 72.9077C61.471 72.9403 61.4791 72.9712 61.4791 73.0005ZM66.2545 76.2671C65.8151 76.8042 65.2487 77.0728 64.5553 77.0728C63.8652 77.0728 63.3053 76.8514 62.8756 76.4087C62.4459 75.966 62.2311 75.4338 62.2311 74.812C62.2311 74.187 62.4524 73.6532 62.8951 73.2104C63.3411 72.7645 63.8473 72.5415 64.4137 72.5415C65.1819 72.5415 65.7988 72.8231 66.2643 73.3862C66.6614 72.7384 67.2262 72.4146 67.9586 72.4146C68.3037 72.4146 68.5836 72.4813 68.7985 72.6147C69.0035 72.7254 69.2184 73.0184 69.443 73.4937C69.5341 73.6857 69.5797 73.8387 69.5797 73.9526C69.5797 74.0666 69.5406 74.1235 69.4625 74.1235H66.6305C66.5784 74.1235 66.5524 74.1903 66.5524 74.3237V74.5435C66.5524 75.5396 66.9267 76.1694 67.6754 76.4331C67.8479 76.4917 68.0107 76.521 68.1637 76.521C68.4502 76.521 68.7057 76.438 68.9303 76.272C68.9921 76.2459 69.0849 76.1808 69.2086 76.0767C69.3323 75.9725 69.4023 75.9204 69.4186 75.9204H69.443C69.4625 75.9204 69.4788 75.9302 69.4918 75.9497C69.5081 75.9692 69.5244 75.9839 69.5406 75.9937C69.5406 76.062 69.4804 76.145 69.36 76.2427C69.2819 76.3403 69.1354 76.4608 68.9205 76.604C68.4974 76.9165 68.0905 77.0728 67.6998 77.0728C67.1106 77.0728 66.6289 76.8042 66.2545 76.2671ZM63.0172 74.4263C63.0172 74.8136 63.0774 75.1912 63.1979 75.5591C63.3183 75.9237 63.5039 76.2248 63.7545 76.4624C64.0084 76.6968 64.3307 76.814 64.7213 76.814C65.1119 76.814 65.4147 76.6496 65.6295 76.3208C65.8476 75.9888 65.9567 75.5802 65.9567 75.0952C65.9567 74.6102 65.802 74.1138 65.4928 73.606C65.1868 73.0981 64.7734 72.8442 64.2526 72.8442C63.8717 72.8442 63.5706 73.0103 63.3492 73.3423C63.1279 73.6743 63.0172 74.0356 63.0172 74.4263ZM66.6842 73.8013C66.6842 73.8631 66.7135 73.894 66.7721 73.894H68.5641C68.6487 73.894 68.691 73.8436 68.691 73.7427C68.691 73.505 68.5934 73.2804 68.3981 73.0688C68.206 72.8573 67.9847 72.7515 67.734 72.7515C67.4834 72.7515 67.2587 72.8491 67.0602 73.0444C66.8649 73.2365 66.7395 73.4692 66.6842 73.7427V73.8013ZM73.6031 76.5112C73.5869 76.4559 73.5657 76.438 73.5397 76.4575C73.5136 76.4738 73.4078 76.5291 73.2223 76.6235C72.6136 76.9263 72.1058 77.0776 71.6989 77.0776C71.292 77.0776 70.999 76.9474 70.8199 76.687C70.7548 76.5894 70.7223 76.4689 70.7223 76.3257V73.3472C70.7125 73.2528 70.6702 73.1714 70.5953 73.103C70.4944 73.0184 70.3886 72.9728 70.278 72.9663C70.1705 72.9598 70.1168 72.9272 70.1168 72.8687C70.1168 72.8068 70.1429 72.7694 70.1949 72.7563L71.3131 72.4341C71.3522 72.4211 71.3896 72.4146 71.4254 72.4146C71.4645 72.4146 71.484 72.4422 71.484 72.4976V75.7739C71.484 76.0018 71.5849 76.1776 71.7867 76.3013C71.9886 76.425 72.2457 76.4868 72.5582 76.4868C72.874 76.4868 73.1572 76.3908 73.4078 76.1987C73.486 76.1369 73.5511 76.0685 73.6031 75.9937V73.3472C73.5934 73.2528 73.5511 73.1714 73.4762 73.103C73.3753 73.0184 73.2695 72.9728 73.1588 72.9663C73.0514 72.9598 72.9977 72.9272 72.9977 72.8687C72.9977 72.8068 73.0237 72.7694 73.0758 72.7563L74.194 72.4341C74.233 72.4211 74.2705 72.4146 74.3063 72.4146C74.3453 72.4146 74.3649 72.4471 74.3649 72.5122V75.979C74.3811 76.1222 74.4218 76.2248 74.4869 76.2866C74.552 76.3485 74.6578 76.3794 74.8043 76.3794L75.0875 76.3599C75.1071 76.3599 75.1168 76.3794 75.1168 76.4185C75.1168 76.4543 75.0924 76.4836 75.0436 76.5063L73.7448 77.0435C73.7057 77.063 73.6715 77.0728 73.6422 77.0728C73.6162 77.0728 73.6031 77.0321 73.6031 76.9507V76.5112ZM78.7203 73.4399C78.6813 73.4334 78.6243 73.4123 78.5494 73.3765C78.2793 73.2528 78.0677 73.1909 77.9147 73.1909C77.7617 73.1909 77.6005 73.2869 77.4313 73.479C77.2653 73.6678 77.1823 73.8387 77.1823 73.9917V76.1987C77.1823 76.4429 77.3239 76.6056 77.6071 76.687C77.7308 76.7196 77.8463 76.744 77.9537 76.7603C78.0612 76.7733 78.1295 76.7863 78.1588 76.7993C78.1914 76.8123 78.2076 76.8384 78.2076 76.8774C78.2076 76.9132 78.1914 76.9344 78.1588 76.9409H75.7125C75.68 76.9344 75.6637 76.9116 75.6637 76.8726C75.6637 76.814 75.7402 76.7749 75.8932 76.7554C76.2448 76.7033 76.4205 76.5177 76.4205 76.1987V73.6157C76.4205 73.479 76.3457 73.3846 76.1959 73.3325C76.1308 73.3097 76.0608 73.2918 75.986 73.2788C75.9111 73.2625 75.8509 73.2479 75.8053 73.2349C75.763 73.2218 75.7353 73.2104 75.7223 73.2007C75.7125 73.1877 75.7076 73.1632 75.7076 73.1274C75.7076 73.0884 75.7321 73.0558 75.7809 73.0298L77.026 72.4438C77.0651 72.4243 77.0895 72.4146 77.0992 72.4146C77.1546 72.4146 77.1823 72.4536 77.1823 72.5317V73.3228C77.1823 73.3618 77.192 73.3813 77.2115 73.3813C77.2376 73.3813 77.3043 73.3049 77.4117 73.1519C77.721 72.7189 77.9765 72.5024 78.1783 72.5024C78.2923 72.5024 78.4664 72.548 78.7008 72.6392C78.9384 72.7303 79.0573 72.8068 79.0573 72.8687C79.0573 72.9435 79.0198 73.0575 78.9449 73.2104C78.8701 73.3634 78.7952 73.4399 78.7203 73.4399ZM85.1071 76.1353C85.1071 76.2199 85.1461 76.2882 85.2242 76.3403C85.3056 76.3892 85.3984 76.4136 85.5026 76.4136C85.6067 76.4136 85.693 76.3875 85.7614 76.3354C85.833 76.2801 85.8818 76.2524 85.9078 76.2524C85.9339 76.2524 85.9469 76.2882 85.9469 76.3599C85.9469 76.4282 85.9143 76.4868 85.8492 76.5356C85.361 76.8937 85.0306 77.0728 84.858 77.0728C84.6497 77.0728 84.4804 76.8563 84.3502 76.4233C84.3405 76.3908 84.3323 76.3761 84.3258 76.3794C83.9222 76.6821 83.6683 76.8644 83.5641 76.9263C83.2972 77.0793 83.0286 77.1037 82.7584 76.9995C82.4915 76.8953 82.2978 76.7228 82.1774 76.4819C82.1188 76.3582 82.0895 76.2264 82.0895 76.0864C82.0895 75.8097 82.192 75.59 82.3971 75.4272C82.6022 75.2645 82.9928 75.1082 83.569 74.9585C83.7643 74.9064 83.9384 74.8397 84.0914 74.7583C84.2444 74.6769 84.3242 74.6248 84.3307 74.6021C84.3405 74.5793 84.3453 74.5581 84.3453 74.5386V73.6011C84.3453 73.2332 84.2021 72.9744 83.9156 72.8247C83.8212 72.7759 83.7073 72.7515 83.5739 72.7515C83.4436 72.7515 83.3102 72.8035 83.1735 72.9077C83.04 73.0119 82.9733 73.16 82.9733 73.3521L82.9977 73.5425C82.9781 73.5815 82.861 73.6466 82.6461 73.7378C82.4313 73.8289 82.3076 73.8778 82.275 73.8843C82.2229 73.8843 82.1969 73.8224 82.1969 73.6987C82.1969 73.5718 82.2343 73.4318 82.3092 73.2788C82.3841 73.1258 82.4899 72.9858 82.6266 72.8589C82.9456 72.5627 83.3102 72.4146 83.7203 72.4146C84.1305 72.4146 84.4642 72.5285 84.7213 72.7563C84.9785 72.981 85.1071 73.2495 85.1071 73.562V76.1353ZM82.8561 75.9937C82.8561 76.1499 82.9163 76.2866 83.0367 76.4038C83.1572 76.5177 83.2939 76.5747 83.4469 76.5747C83.6031 76.5747 83.792 76.5096 84.0133 76.3794C84.2347 76.2459 84.3453 76.1092 84.3453 75.9692V74.978C84.3453 74.9422 84.3372 74.9243 84.3209 74.9243C84.3046 74.9243 84.2933 74.9259 84.2867 74.9292L83.1539 75.4565C83.0367 75.5412 82.957 75.6128 82.9147 75.6714C82.8756 75.73 82.8561 75.8374 82.8561 75.9937ZM84.3014 71.731C84.2884 71.744 84.277 71.7505 84.2672 71.7505C84.2574 71.7505 84.2461 71.744 84.233 71.731L82.9196 70.6714C82.7405 70.5184 82.651 70.38 82.651 70.2563C82.651 70.1326 82.6836 70.035 82.7487 69.9634C82.817 69.8885 82.9082 69.8511 83.0221 69.8511C83.136 69.8511 83.2516 69.9308 83.3688 70.0903L84.4088 71.5308C84.4218 71.5438 84.4283 71.5535 84.4283 71.5601C84.4283 71.5666 84.4218 71.5763 84.4088 71.5894L84.3014 71.731ZM91.4694 73.6011C91.4694 73.6727 91.4417 73.7085 91.3864 73.7085C91.3343 73.7085 91.2936 73.6694 91.2643 73.5913C91.1862 73.3765 91.069 73.186 90.9127 73.02C90.7597 72.854 90.5693 72.771 90.3414 72.771C90.042 72.771 89.8401 72.9207 89.736 73.2202C89.7034 73.3211 89.6871 73.4253 89.6871 73.5327C89.6871 73.6401 89.7555 73.7606 89.8922 73.894C90.0289 74.0243 90.2535 74.1805 90.566 74.3628C90.8785 74.5451 91.1064 74.6997 91.2496 74.8267C91.5752 75.1164 91.7379 75.4517 91.7379 75.8325C91.7379 76.2134 91.5979 76.5161 91.318 76.7407C91.038 76.9621 90.7125 77.0728 90.3414 77.0728C90.1429 77.0728 89.9622 77.0451 89.7994 76.9897C89.6399 76.9377 89.5472 76.9116 89.5211 76.9116C89.4983 76.9116 89.4593 76.9377 89.4039 76.9897C89.3518 77.0451 89.3095 77.0728 89.277 77.0728H89.194C89.1744 77.0728 89.15 76.897 89.1207 76.5454C89.0914 76.1938 89.0768 75.9855 89.0768 75.9204C89.0768 75.8553 89.0817 75.8195 89.0914 75.813C89.1045 75.8065 89.124 75.8032 89.15 75.8032C89.1761 75.8032 89.1972 75.8114 89.2135 75.8276C89.233 75.8439 89.2493 75.8651 89.2623 75.8911C89.2753 75.9139 89.2851 75.9383 89.2916 75.9644C89.3014 75.9904 89.3226 76.0392 89.3551 76.1108C89.5765 76.5828 89.9183 76.8188 90.3805 76.8188C90.5856 76.8188 90.75 76.744 90.8737 76.5942C90.9974 76.4412 91.0592 76.272 91.0592 76.0864C91.0592 75.9009 91.0104 75.7446 90.9127 75.6177C90.8151 75.4907 90.693 75.3752 90.5465 75.271C90.4033 75.1668 90.247 75.0659 90.0778 74.9683C89.4202 74.5841 89.0914 74.1593 89.0914 73.6938C89.0914 73.3455 89.2412 73.0461 89.5406 72.7954C89.8401 72.5415 90.1477 72.4146 90.4635 72.4146C90.7793 72.4146 91.012 72.4487 91.1617 72.5171C91.3147 72.5854 91.4043 72.644 91.4303 72.6929C91.4563 72.7384 91.4694 72.8914 91.4694 73.1519V73.6011ZM93.2369 74.3677C93.1816 74.3677 93.1539 74.4865 93.1539 74.7241C93.1539 75.2287 93.3037 75.6519 93.6031 75.9937C93.9026 76.3354 94.2737 76.5063 94.7164 76.5063C95.1624 76.5063 95.5905 76.3143 96.0006 75.9302C96.0071 75.9237 96.0153 75.9204 96.025 75.9204H96.0494C96.069 75.9204 96.0869 75.9367 96.1031 75.9692C96.1227 75.9985 96.1406 76.0181 96.1569 76.0278C95.7793 76.4868 95.3349 76.8042 94.8239 76.98C94.6481 77.0418 94.4495 77.0728 94.2281 77.0728C94.0068 77.0728 93.7822 77.0125 93.5543 76.8921C93.3265 76.7684 93.1311 76.6073 92.9684 76.4087C92.6233 75.9953 92.4508 75.481 92.4508 74.8657C92.4508 74.2472 92.638 73.6841 93.0123 73.1763C93.3899 72.6685 93.9075 72.4146 94.5651 72.4146C95.0371 72.4146 95.4228 72.6261 95.7223 73.0493C96.0218 73.4692 96.1715 73.8387 96.1715 74.1577C96.1715 74.2977 96.1373 74.3677 96.069 74.3677H93.2369ZM93.2906 73.8989C93.2906 73.9608 93.3199 73.9917 93.3785 73.9917H95.2194C95.304 73.9917 95.3463 73.9412 95.3463 73.8403C95.3463 73.606 95.2405 73.3667 95.0289 73.1226C94.8206 72.8752 94.5911 72.7515 94.3405 72.7515C94.0963 72.7515 93.8733 72.8621 93.6715 73.0835C93.4729 73.3049 93.346 73.5571 93.2906 73.8403V73.8989ZM99.36 73.6011C99.36 73.6727 99.3323 73.7085 99.277 73.7085C99.2249 73.7085 99.1842 73.6694 99.1549 73.5913C99.0768 73.3765 98.9596 73.186 98.8033 73.02C98.6503 72.854 98.4599 72.771 98.2321 72.771C97.9326 72.771 97.7308 72.9207 97.6266 73.2202C97.594 73.3211 97.5778 73.4253 97.5778 73.5327C97.5778 73.6401 97.6461 73.7606 97.7828 73.894C97.9196 74.0243 98.1442 74.1805 98.4567 74.3628C98.7692 74.5451 98.997 74.6997 99.1403 74.8267C99.4658 75.1164 99.6285 75.4517 99.6285 75.8325C99.6285 76.2134 99.4886 76.5161 99.2086 76.7407C98.9287 76.9621 98.6031 77.0728 98.2321 77.0728C98.0335 77.0728 97.8528 77.0451 97.6901 76.9897C97.5306 76.9377 97.4378 76.9116 97.4117 76.9116C97.389 76.9116 97.3499 76.9377 97.2946 76.9897C97.2425 77.0451 97.2002 77.0728 97.1676 77.0728H97.0846C97.0651 77.0728 97.0406 76.897 97.0114 76.5454C96.9821 76.1938 96.9674 75.9855 96.9674 75.9204C96.9674 75.8553 96.9723 75.8195 96.9821 75.813C96.9951 75.8065 97.0146 75.8032 97.0406 75.8032C97.0667 75.8032 97.0878 75.8114 97.1041 75.8276C97.1237 75.8439 97.1399 75.8651 97.153 75.8911C97.166 75.9139 97.1757 75.9383 97.1823 75.9644C97.192 75.9904 97.2132 76.0392 97.2457 76.1108C97.4671 76.5828 97.8089 76.8188 98.2711 76.8188C98.4762 76.8188 98.6406 76.744 98.7643 76.5942C98.888 76.4412 98.9498 76.272 98.9498 76.0864C98.9498 75.9009 98.901 75.7446 98.8033 75.6177C98.7057 75.4907 98.5836 75.3752 98.4371 75.271C98.2939 75.1668 98.1377 75.0659 97.9684 74.9683C97.3108 74.5841 96.9821 74.1593 96.9821 73.6938C96.9821 73.3455 97.1318 73.0461 97.4313 72.7954C97.7308 72.5415 98.0384 72.4146 98.3541 72.4146C98.6699 72.4146 98.9026 72.4487 99.0524 72.5171C99.2054 72.5854 99.2949 72.644 99.3209 72.6929C99.347 72.7384 99.36 72.8914 99.36 73.1519V73.6011ZM105.698 76.8628C105.698 76.9149 105.669 76.9409 105.61 76.9409H102.929C102.897 76.9344 102.88 76.9116 102.88 76.8726C102.88 76.814 102.957 76.7749 103.11 76.7554C103.462 76.7033 103.637 76.5177 103.637 76.1987V73.2397C103.637 73.2039 103.618 73.186 103.579 73.186H103.047C103.007 73.186 102.97 73.1746 102.934 73.1519C102.898 73.1258 102.88 73.0933 102.88 73.0542C102.88 73.0119 102.9 72.9793 102.939 72.9565C102.994 72.924 103.125 72.88 103.33 72.8247C103.535 72.7694 103.637 72.6782 103.637 72.5513V72.3901C103.637 70.7625 104.137 69.6997 105.136 69.2017C105.241 69.1528 105.337 69.1284 105.424 69.1284C105.512 69.1284 105.652 69.1512 105.844 69.1968C106.036 69.2424 106.191 69.2651 106.308 69.2651C106.429 69.2651 106.613 69.2261 106.86 69.1479L107.304 68.938C107.343 68.9185 107.368 68.9087 107.378 68.9087C107.433 68.9087 107.461 68.9478 107.461 69.0259V76.1987C107.461 76.5177 107.636 76.7033 107.988 76.7554C108.141 76.7749 108.217 76.8091 108.217 76.8579C108.217 76.9067 108.201 76.9344 108.169 76.9409H105.991C105.958 76.9344 105.942 76.9116 105.942 76.8726C105.942 76.814 106.019 76.7749 106.172 76.7554C106.523 76.7033 106.699 76.5177 106.699 76.1987V73.186H104.463C104.42 73.186 104.399 73.2023 104.399 73.2349V76.1011C104.399 76.5666 104.803 76.7993 105.61 76.7993C105.669 76.8058 105.698 76.827 105.698 76.8628ZM104.399 72.5073C104.399 72.5334 104.415 72.5464 104.448 72.5464H106.699V70.0757C106.403 69.8478 106.189 69.7127 106.059 69.6704C105.932 69.6281 105.791 69.6069 105.634 69.6069C105.302 69.6069 105.037 69.6834 104.839 69.8364C104.643 69.9862 104.521 70.1636 104.472 70.3687C104.423 70.5737 104.399 70.813 104.399 71.0864V72.5073ZM109.516 74.3677C109.461 74.3677 109.433 74.4865 109.433 74.7241C109.433 75.2287 109.583 75.6519 109.882 75.9937C110.182 76.3354 110.553 76.5063 110.996 76.5063C111.442 76.5063 111.87 76.3143 112.28 75.9302C112.286 75.9237 112.295 75.9204 112.304 75.9204H112.329C112.348 75.9204 112.366 75.9367 112.382 75.9692C112.402 75.9985 112.42 76.0181 112.436 76.0278C112.059 76.4868 111.614 76.8042 111.103 76.98C110.927 77.0418 110.729 77.0728 110.507 77.0728C110.286 77.0728 110.061 77.0125 109.834 76.8921C109.606 76.7684 109.41 76.6073 109.248 76.4087C108.903 75.9953 108.73 75.481 108.73 74.8657C108.73 74.2472 108.917 73.6841 109.292 73.1763C109.669 72.6685 110.187 72.4146 110.844 72.4146C111.316 72.4146 111.702 72.6261 112.002 73.0493C112.301 73.4692 112.451 73.8387 112.451 74.1577C112.451 74.2977 112.417 74.3677 112.348 74.3677H109.516ZM109.57 73.8989C109.57 73.9608 109.599 73.9917 109.658 73.9917H111.499C111.583 73.9917 111.626 73.9412 111.626 73.8403C111.626 73.606 111.52 73.3667 111.308 73.1226C111.1 72.8752 110.87 72.7515 110.62 72.7515C110.376 72.7515 110.153 72.8621 109.951 73.0835C109.752 73.3049 109.625 73.5571 109.57 73.8403V73.8989ZM111.103 71.731C111.09 71.744 111.079 71.7505 111.069 71.7505C111.059 71.7505 111.048 71.744 111.035 71.731L109.721 70.6714C109.542 70.5184 109.453 70.38 109.453 70.2563C109.453 70.1326 109.485 70.035 109.55 69.9634C109.619 69.8885 109.71 69.8511 109.824 69.8511C109.938 69.8511 110.053 69.9308 110.171 70.0903L111.211 71.5308C111.224 71.5438 111.23 71.5535 111.23 71.5601C111.23 71.5666 111.224 71.5763 111.211 71.5894L111.103 71.731ZM117.104 73.0005C117.104 73.2284 116.972 73.3423 116.709 73.3423C116.575 73.3423 116.461 73.3049 116.367 73.23C116.276 73.1519 116.204 73.0868 116.152 73.0347C116.103 72.9793 116.051 72.9289 115.996 72.8833C115.761 72.6912 115.475 72.6701 115.136 72.8198C114.801 72.9696 114.542 73.2886 114.36 73.7769C114.259 74.047 114.209 74.3156 114.209 74.5825C114.209 75.1554 114.339 75.6242 114.599 75.9888C114.86 76.3501 115.258 76.5308 115.796 76.5308C116.196 76.5308 116.556 76.3517 116.875 75.9937C116.972 75.8862 117.031 75.8325 117.05 75.8325C117.07 75.8325 117.091 75.8423 117.114 75.8618C117.137 75.8813 117.148 75.9106 117.148 75.9497C117.148 75.9855 117.138 76.0132 117.119 76.0327C116.621 76.7261 115.994 77.0728 115.239 77.0728C114.692 77.0728 114.243 76.8693 113.891 76.4624C113.543 76.0555 113.369 75.59 113.369 75.0659C113.372 74.0959 113.606 73.3976 114.072 72.9712C114.482 72.5968 115.066 72.4097 115.825 72.4097C116.294 72.4097 116.604 72.4569 116.757 72.5513C116.91 72.6457 117.018 72.7645 117.08 72.9077C117.096 72.9403 117.104 72.9712 117.104 73.0005ZM119.155 73.1616C119.155 73.2397 119.166 73.2788 119.189 73.2788C119.212 73.2788 119.228 73.2739 119.238 73.2642C119.248 73.2511 119.316 73.1746 119.443 73.0347C119.811 72.6245 120.184 72.4194 120.561 72.4194C121.056 72.4194 121.419 72.5301 121.65 72.7515C121.933 73.0314 122.075 73.5018 122.075 74.1626V76.1987C122.075 76.5177 122.251 76.7033 122.602 76.7554C122.755 76.7749 122.832 76.8091 122.832 76.8579C122.832 76.9067 122.815 76.9344 122.783 76.9409H120.605C120.573 76.9344 120.556 76.9116 120.556 76.8726C120.556 76.814 120.633 76.7749 120.786 76.7554C121.137 76.7033 121.313 76.5177 121.313 76.1987V74.2114C121.313 73.7329 121.279 73.422 121.211 73.2788C121.08 72.9924 120.809 72.8491 120.395 72.8491C120.141 72.8491 119.871 72.9582 119.585 73.1763C119.298 73.3911 119.155 73.6287 119.155 73.8892V76.1987C119.155 76.5177 119.331 76.7033 119.682 76.7554C119.835 76.7749 119.912 76.8091 119.912 76.8579C119.912 76.9067 119.895 76.9344 119.863 76.9409H117.685C117.653 76.9344 117.636 76.9116 117.636 76.8726C117.636 76.814 117.713 76.7749 117.866 76.7554C118.217 76.7033 118.393 76.5177 118.393 76.1987V70.1099C118.393 69.9731 118.318 69.8787 118.169 69.8267C118.103 69.8039 118.033 69.786 117.959 69.7729C117.884 69.7567 117.824 69.742 117.778 69.729C117.736 69.716 117.708 69.7046 117.695 69.6948C117.685 69.6818 117.68 69.6574 117.68 69.6216C117.68 69.5825 117.705 69.55 117.754 69.5239L118.999 68.938C119.038 68.9185 119.062 68.9087 119.072 68.9087C119.127 68.9087 119.155 68.9478 119.155 69.0259V73.1616ZM124.106 74.3677C124.051 74.3677 124.023 74.4865 124.023 74.7241C124.023 75.2287 124.173 75.6519 124.472 75.9937C124.772 76.3354 125.143 76.5063 125.586 76.5063C126.032 76.5063 126.46 76.3143 126.87 75.9302C126.876 75.9237 126.884 75.9204 126.894 75.9204H126.919C126.938 75.9204 126.956 75.9367 126.972 75.9692C126.992 75.9985 127.01 76.0181 127.026 76.0278C126.648 76.4868 126.204 76.8042 125.693 76.98C125.517 77.0418 125.319 77.0728 125.097 77.0728C124.876 77.0728 124.651 77.0125 124.423 76.8921C124.196 76.7684 124 76.6073 123.838 76.4087C123.492 75.9953 123.32 75.481 123.32 74.8657C123.32 74.2472 123.507 73.6841 123.881 73.1763C124.259 72.6685 124.777 72.4146 125.434 72.4146C125.906 72.4146 126.292 72.6261 126.591 73.0493C126.891 73.4692 127.041 73.8387 127.041 74.1577C127.041 74.2977 127.006 74.3677 126.938 74.3677H124.106ZM124.16 73.8989C124.16 73.9608 124.189 73.9917 124.248 73.9917H126.089C126.173 73.9917 126.215 73.9412 126.215 73.8403C126.215 73.606 126.11 73.3667 125.898 73.1226C125.69 72.8752 125.46 72.7515 125.21 72.7515C124.965 72.7515 124.742 72.8621 124.541 73.0835C124.342 73.3049 124.215 73.5571 124.16 73.8403V73.8989ZM130.229 73.6011C130.229 73.6727 130.201 73.7085 130.146 73.7085C130.094 73.7085 130.053 73.6694 130.024 73.5913C129.946 73.3765 129.829 73.186 129.672 73.02C129.519 72.854 129.329 72.771 129.101 72.771C128.802 72.771 128.6 72.9207 128.496 73.2202C128.463 73.3211 128.447 73.4253 128.447 73.5327C128.447 73.6401 128.515 73.7606 128.652 73.894C128.789 74.0243 129.013 74.1805 129.326 74.3628C129.638 74.5451 129.866 74.6997 130.009 74.8267C130.335 75.1164 130.498 75.4517 130.498 75.8325C130.498 76.2134 130.358 76.5161 130.078 76.7407C129.798 76.9621 129.472 77.0728 129.101 77.0728C128.903 77.0728 128.722 77.0451 128.559 76.9897C128.4 76.9377 128.307 76.9116 128.281 76.9116C128.258 76.9116 128.219 76.9377 128.164 76.9897C128.112 77.0451 128.069 77.0728 128.037 77.0728H127.954C127.934 77.0728 127.91 76.897 127.88 76.5454C127.851 76.1938 127.837 75.9855 127.837 75.9204C127.837 75.8553 127.841 75.8195 127.851 75.813C127.864 75.8065 127.884 75.8032 127.91 75.8032C127.936 75.8032 127.957 75.8114 127.973 75.8276C127.993 75.8439 128.009 75.8651 128.022 75.8911C128.035 75.9139 128.045 75.9383 128.051 75.9644C128.061 75.9904 128.082 76.0392 128.115 76.1108C128.336 76.5828 128.678 76.8188 129.14 76.8188C129.345 76.8188 129.51 76.744 129.633 76.5942C129.757 76.4412 129.819 76.272 129.819 76.0864C129.819 75.9009 129.77 75.7446 129.672 75.6177C129.575 75.4907 129.453 75.3752 129.306 75.271C129.163 75.1668 129.007 75.0659 128.838 74.9683C128.18 74.5841 127.851 74.1593 127.851 73.6938C127.851 73.3455 128.001 73.0461 128.3 72.7954C128.6 72.5415 128.908 72.4146 129.223 72.4146C129.539 72.4146 129.772 72.4487 129.922 72.5171C130.075 72.5854 130.164 72.644 130.19 72.6929C130.216 72.7384 130.229 72.8914 130.229 73.1519V73.6011Z" fill="#EFB85F"/>
<path d="M17.5002 10L18.696 11.9748L21 13L18.696 14.0249L17.5002 16L16.304 14.0249L14 13L16.304 11.9748L17.5002 10Z" fill="#EFB85F"/>
<path d="M17.5002 86L18.696 87.9748L21 89L18.696 90.0249L17.5002 92L16.304 90.0249L14 89L16.304 87.9748L17.5002 86Z" fill="#EFB85F"/>
<path d="M124.5 84L125.696 85.9748L128 87L125.696 88.0249L124.5 90L123.304 88.0249L121 87L123.304 85.9748L124.5 84Z" fill="#EFB85F"/>
<path d="M80.5002 90L81.696 91.9748L84 93L81.696 94.0249L80.5002 96L79.304 94.0249L77 93L79.304 91.9748L80.5002 90Z" fill="#EFB85F"/>
<path d="M120.5 7L121.696 8.97475L124 10L121.696 11.0249L120.5 13L119.304 11.0249L117 10L119.304 8.97475L120.5 7Z" fill="#EFB85F"/>
<path d="M95.125 16.6259C95.1509 16.3615 95.1942 15.7335 95.2288 15.2377C95.2634 14.6647 95.324 14.3011 95.3932 14.2681C95.4538 14.235 95.7307 14.4113 95.999 14.6537C96.2759 14.9071 96.5182 15.0834 96.5441 15.0504C96.5615 15.0283 96.397 14.6757 96.1807 14.2791C95.9038 13.7943 95.8086 13.5519 95.8865 13.5189C95.9471 13.4968 96.3884 13.4197 96.8643 13.3426C98.3873 13.1222 98.3787 13.001 96.8384 12.7917C96.3019 12.7145 95.8519 12.6154 95.8346 12.5823C95.8086 12.5382 95.973 12.2187 96.1807 11.8661C96.3884 11.5025 96.5441 11.183 96.5182 11.15C96.4922 11.1279 96.2326 11.3152 95.9471 11.5687C95.6528 11.8331 95.3932 11.9984 95.3586 11.9543C95.3154 11.8992 95.2461 11.2381 95.1856 10.4779C95.0298 8.49462 94.9606 8.50564 94.7962 10.5219C94.7356 11.2822 94.6664 11.9433 94.6317 11.9763C94.6058 12.0094 94.3462 11.8331 94.052 11.5797C93.7664 11.3152 93.5155 11.1279 93.4895 11.161C93.4722 11.183 93.602 11.4805 93.7924 11.8111C93.9827 12.1306 94.1385 12.4611 94.1385 12.5272C94.1385 12.6044 93.7664 12.7035 93.1607 12.7917C91.6117 13.001 91.6117 13.1222 93.1693 13.3536C93.7577 13.4417 94.1385 13.5519 94.1385 13.618C94.1385 13.6841 93.9827 14.0147 93.7924 14.3342C93.3857 15.0283 93.351 15.2046 93.6799 14.9292C93.8183 14.83 94.0693 14.6096 94.251 14.4554C94.6664 14.1138 94.701 14.1689 94.7789 15.3589C94.8913 17.1107 95.0211 17.5735 95.125 16.6259Z" fill="#EFB85F"/>
<path d="M39.125 89.6259C39.1509 89.3615 39.1942 88.7335 39.2288 88.2377C39.2634 87.6647 39.324 87.3011 39.3932 87.2681C39.4538 87.235 39.7307 87.4113 39.999 87.6537C40.2759 87.9071 40.5182 88.0834 40.5441 88.0504C40.5615 88.0283 40.397 87.6757 40.1807 87.2791C39.9038 86.7943 39.8086 86.5519 39.8865 86.5189C39.9471 86.4968 40.3884 86.4197 40.8643 86.3426C42.3873 86.1222 42.3787 86.001 40.8384 85.7917C40.3019 85.7145 39.8519 85.6154 39.8346 85.5823C39.8086 85.5382 39.973 85.2187 40.1807 84.8661C40.3884 84.5025 40.5441 84.183 40.5182 84.15C40.4922 84.1279 40.2326 84.3152 39.9471 84.5687C39.6528 84.8331 39.3932 84.9984 39.3586 84.9543C39.3154 84.8992 39.2461 84.2381 39.1856 83.4779C39.0298 81.4946 38.9606 81.5056 38.7962 83.5219C38.7356 84.2822 38.6664 84.9433 38.6317 84.9763C38.6058 85.0094 38.3462 84.8331 38.052 84.5797C37.7664 84.3152 37.5155 84.1279 37.4895 84.161C37.4722 84.183 37.602 84.4805 37.7924 84.8111C37.9827 85.1306 38.1385 85.4611 38.1385 85.5272C38.1385 85.6044 37.7664 85.7035 37.1607 85.7917C35.6117 86.001 35.6117 86.1222 37.1693 86.3536C37.7577 86.4417 38.1385 86.5519 38.1385 86.618C38.1385 86.6841 37.9827 87.0147 37.7924 87.3342C37.3857 88.0283 37.351 88.2046 37.6799 87.9292C37.8183 87.83 38.0693 87.6096 38.251 87.4554C38.6664 87.1138 38.701 87.1689 38.7789 88.3589C38.8913 90.1107 39.0211 90.5735 39.125 89.6259Z" fill="#EFB85F"/>
<path d="M110.125 99.6259C110.151 99.3615 110.194 98.7335 110.229 98.2377C110.263 97.6647 110.324 97.3011 110.393 97.2681C110.454 97.235 110.731 97.4113 110.999 97.6537C111.276 97.9071 111.518 98.0834 111.544 98.0504C111.561 98.0283 111.397 97.6757 111.181 97.2791C110.904 96.7943 110.809 96.5519 110.886 96.5189C110.947 96.4968 111.388 96.4197 111.864 96.3426C113.387 96.1222 113.379 96.001 111.838 95.7917C111.302 95.7145 110.852 95.6154 110.835 95.5823C110.809 95.5382 110.973 95.2187 111.181 94.8661C111.388 94.5025 111.544 94.183 111.518 94.15C111.492 94.1279 111.233 94.3152 110.947 94.5687C110.653 94.8331 110.393 94.9984 110.359 94.9543C110.315 94.8992 110.246 94.2381 110.186 93.4779C110.03 91.4946 109.961 91.5056 109.796 93.5219C109.736 94.2822 109.666 94.9433 109.632 94.9763C109.606 95.0094 109.346 94.8331 109.052 94.5797C108.766 94.3152 108.515 94.1279 108.489 94.161C108.472 94.183 108.602 94.4805 108.792 94.8111C108.983 95.1306 109.138 95.4611 109.138 95.5272C109.138 95.6044 108.766 95.7035 108.161 95.7917C106.612 96.001 106.612 96.1222 108.169 96.3536C108.758 96.4417 109.138 96.5519 109.138 96.618C109.138 96.6841 108.983 97.0147 108.792 97.3342C108.386 98.0283 108.351 98.2046 108.68 97.9292C108.818 97.83 109.069 97.6096 109.251 97.4554C109.666 97.1138 109.701 97.1689 109.779 98.3589C109.891 100.111 110.021 100.573 110.125 99.6259Z" fill="#EFB85F"/>
<path d="M53.125 12.6259C53.1509 12.3615 53.1942 11.7335 53.2288 11.2377C53.2634 10.6647 53.324 10.3011 53.3932 10.2681C53.4538 10.235 53.7307 10.4113 53.999 10.6537C54.2759 10.9071 54.5182 11.0834 54.5441 11.0504C54.5615 11.0283 54.397 10.6757 54.1807 10.2791C53.9038 9.7943 53.8086 9.55191 53.8865 9.51885C53.9471 9.49682 54.3884 9.41969 54.8643 9.34256C56.3873 9.1222 56.3787 9.001 54.8384 8.79166C54.3019 8.71453 53.8519 8.61537 53.8346 8.58232C53.8086 8.53825 53.973 8.21872 54.1807 7.86614C54.3884 7.50255 54.5441 7.18302 54.5182 7.14997C54.4922 7.12793 54.2326 7.31524 53.9471 7.56866C53.6528 7.83309 53.3932 7.99836 53.3586 7.95429C53.3154 7.8992 53.2461 7.23811 53.1856 6.47787C53.0298 4.49462 52.9606 4.50564 52.7962 6.52194C52.7356 7.28219 52.6664 7.94327 52.6317 7.97632C52.6058 8.00938 52.3462 7.83309 52.052 7.57967C51.7664 7.31524 51.5155 7.12793 51.4895 7.16099C51.4722 7.18302 51.602 7.48051 51.7924 7.81105C51.9827 8.13058 52.1385 8.46112 52.1385 8.52723C52.1385 8.60435 51.7664 8.70352 51.1607 8.79166C49.6117 9.001 49.6117 9.1222 51.1693 9.35358C51.7577 9.44173 52.1385 9.55191 52.1385 9.61802C52.1385 9.68412 51.9827 10.0147 51.7924 10.3342C51.3857 11.0283 51.351 11.2046 51.6799 10.9292C51.8183 10.83 52.0693 10.6096 52.251 10.4554C52.6664 10.1138 52.701 10.1689 52.7789 11.3589C52.8913 13.1107 53.0211 13.5735 53.125 12.6259Z" fill="#EFB85F"/>
<circle cx="26" cy="81" r="1" fill="#EFB85F"/>
<circle cx="57" cy="96" r="1" fill="#EFB85F"/>
<circle cx="111" cy="84" r="1" fill="#EFB85F"/>
<circle cx="139" cy="16" r="1" fill="#EFB85F"/>
<circle cx="143" cy="55" r="1" fill="#EFB85F"/>
<circle cx="139" cy="93" r="1" fill="#EFB85F"/>
<circle cx="36" cy="10" r="1" fill="#EFB85F"/>
<circle cx="75" cy="6" r="1" fill="#EFB85F"/>
<path d="M30.1536 96.762L33.0001 96.6487L30.1536 96.5354L31.0464 95.3761L30.0932 96.4619L30 93L29.9069 96.4619L28.9537 95.3761L29.8465 96.5354L27 96.6487L29.8465 96.762L28.9537 97.9212L29.9069 96.8354L30 100.297L30.0932 96.8354L31.0464 97.9212L30.1536 96.762Z" fill="#EFB85F"/>
<path d="M11.1536 76.762L14.0001 76.6487L11.1536 76.5354L12.0464 75.3761L11.0932 76.4619L11 73L10.9069 76.4619L9.95375 75.3761L10.8465 76.5354L8 76.6487L10.8465 76.762L9.95375 77.9212L10.9069 76.8354L11 80.2973L11.0932 76.8354L12.0464 77.9212L11.1536 76.762Z" fill="#EFB85F"/>
<path d="M68.1536 11.762L71.0001 11.6487L68.1536 11.5354L69.0464 10.3761L68.0932 11.4619L68 8L67.9069 11.4619L66.9537 10.3761L67.8465 11.5354L65 11.6487L67.8465 11.762L66.9537 12.9212L67.9069 11.8354L68 15.2973L68.0932 11.8354L69.0464 12.9212L68.1536 11.762Z" fill="#EFB85F"/>
<path d="M137.154 76.762L140 76.6487L137.154 76.5354L138.046 75.3761L137.093 76.4619L137 73L136.907 76.4619L135.954 75.3761L136.847 76.5354L134 76.6487L136.847 76.762L135.954 77.9212L136.907 76.8354L137 80.2973L137.093 76.8354L138.046 77.9212L137.154 76.762Z" fill="#EFB85F"/>
<path d="M129.154 95.762L132 95.6487L129.154 95.5354L130.046 94.3761L129.093 95.4619L129 92L128.907 95.4619L127.954 94.3761L128.847 95.5354L126 95.6487L128.847 95.762L127.954 96.9212L128.907 95.8354L129 99.2973L129.093 95.8354L130.046 96.9212L129.154 95.762Z" fill="#EFB85F"/>
<path d="M8.15357 18.762L11.0001 18.6487L8.15357 18.5354L9.04635 17.3761L8.09316 18.4619L8.00005 15L7.90694 18.4619L6.95375 17.3761L7.84653 18.5354L5 18.6487L7.84653 18.762L6.95375 19.9212L7.90694 18.8354L8.00005 22.2973L8.09316 18.8354L9.04635 19.9212L8.15357 18.762Z" fill="#EFB85F"/>
<path d="M89.7648 52.058C89.0093 51.5532 88.0094 50.5775 87.532 49.8682C86.2469 47.9976 83.7942 48.5081 84.0674 50.5865C84.1681 51.3499 85.674 51.8731 85.6921 51.1336C85.6978 50.9013 85.5495 50.6862 85.362 50.6816C85.1744 50.677 85.0281 50.3775 85.0369 50.0184C85.0582 49.1522 86.3832 49.3961 86.8379 50.3373C87.6982 52.1341 87.1142 52.2889 79.7796 52.1724C72.155 52.0487 71.6801 51.9314 69.8804 49.4774C68.9389 48.2071 68.8205 48.1619 65.7509 48.0866C61.7092 47.9874 61.4512 48.7633 64.608 51.5465L65.794 52.5902L64.5981 53.343C63.6446 53.9538 62.0197 56.1969 62.002 56.9152C61.9994 57.0208 63.5002 57.0577 65.327 57.0179C68.5874 56.9711 68.6737 56.9309 69.9021 55.5448C70.5864 54.7794 71.3017 54.1417 71.4893 54.1463C71.6769 54.1509 72.0061 53.9475 72.2169 53.6991C72.4805 53.3884 74.0014 53.2989 76.6427 53.4483C81.0053 53.6821 82.5236 53.6983 85.0181 53.5692C86.9317 53.4682 87.232 53.7504 86.7512 55.2606C86.361 56.5616 85.07 57.0161 84.7714 55.973C84.6779 55.6113 84.7193 55.3164 84.8898 55.3206C85.0603 55.3248 85.2593 55.5622 85.3543 55.8604C85.4324 56.1583 85.5393 55.9707 85.5523 55.4425C85.6134 54.3448 84.3581 54.0392 84.0263 55.0457C83.2535 57.3309 85.8591 58.2404 87.3754 56.2483C87.8871 55.5632 88.9336 54.6377 89.713 54.1706C90.4747 53.7242 91.1006 53.2534 91.1032 53.1478C91.1058 53.0421 90.5038 52.5412 89.7648 52.058ZM69.4776 51.983C69.0001 51.9713 68.4968 51.6207 68.3035 51.1509C67.9817 50.3609 66.7032 49.6108 64.9214 49.2078C64.4635 49.0908 65.0289 48.999 66.172 49.0059C67.9812 48.9869 68.4381 49.1461 69.3015 50.1185C70.5484 51.4597 70.5861 52.0102 69.4776 51.983ZM69.3704 54.961C68.6164 55.788 68.066 55.9648 66.0175 55.9991C64.2935 56.0202 63.8181 55.924 64.4212 55.6851C64.9033 55.5067 65.7266 55.3366 66.2558 55.3285C66.8702 55.3224 67.5472 54.8528 68.1468 54.0643C69.0998 52.777 70.3034 52.4049 70.2785 53.419C70.2713 53.7147 69.8614 54.4234 69.3704 54.961ZM65.283 51.1614L64.3807 50.3783L65.3388 50.2749C65.8866 50.2038 66.6985 50.4985 67.1992 50.9547L68.1014 51.7379L67.1433 51.8412C66.5955 51.9123 65.7837 51.6176 65.283 51.1614ZM67.3799 54.0243C67.1173 54.2927 66.3804 54.4226 65.7515 54.3226L64.6295 54.1471L65.9091 53.4597C67.7939 52.449 68.6559 52.7873 67.3799 54.0243Z" fill="#EFB85F"/>
</svg>
