<svg width="148" height="105" viewBox="0 0 148 105" fill="none" xmlns="http://www.w3.org/2000/svg">
<rect width="147.402" height="104.882" rx="10" fill="black"/>
<path d="M13.5885 42.2515C13.0416 42.2515 12.7682 42.4696 12.7682 42.9058V46.4019C12.7682 47.0464 12.9814 47.5737 13.4078 47.9839C13.8343 48.3908 14.3811 48.5942 15.0485 48.5942C15.7418 48.5942 16.3099 48.4087 16.7526 48.0376C17.1985 47.6632 17.4215 47.1457 17.4215 46.4849V43.3794C17.4215 43.0701 17.3938 42.8553 17.3385 42.7349C17.1985 42.4126 16.8828 42.2515 16.3912 42.2515C16.3652 42.2515 16.3522 42.2384 16.3522 42.2124V42.0952C16.3522 42.0692 16.3652 42.0562 16.3912 42.0562H18.7936C18.8196 42.0562 18.8326 42.0692 18.8326 42.0952V42.2124C18.8326 42.2384 18.7968 42.2515 18.7252 42.2515C18.2988 42.2515 18.0384 42.4175 17.944 42.7495C17.9277 42.8049 17.9196 42.8569 17.9196 42.9058V46.104C17.9196 47.533 17.3727 48.4526 16.2789 48.8628C15.9111 49.0028 15.5449 49.0728 15.1803 49.0728C13.875 49.0728 12.913 48.731 12.2946 48.0474C11.9755 47.6958 11.816 47.2612 11.816 46.7437V42.8374C11.816 42.5607 11.6484 42.3784 11.3131 42.2905C11.2155 42.2645 11.1324 42.2515 11.0641 42.2515C10.9957 42.2515 10.9615 42.2384 10.9615 42.2124V42.0952C10.9615 42.0692 10.9729 42.0562 10.9957 42.0562H13.6422C13.6683 42.0562 13.6813 42.0692 13.6813 42.0952V42.2124C13.6813 42.2384 13.6503 42.2515 13.5885 42.2515ZM22.8756 47.4028L22.8658 46.3726C22.8658 45.9526 22.83 45.658 22.7584 45.4888C22.6868 45.3195 22.5957 45.1925 22.485 45.1079C22.3743 45.02 22.2246 44.9761 22.0358 44.9761C21.8502 44.9761 21.4547 45.1226 20.8492 45.4155C20.7679 45.4644 20.7255 45.5099 20.7223 45.5522V48.1792C20.7223 48.508 20.8981 48.6968 21.2496 48.7456C21.4026 48.7684 21.4791 48.8058 21.4791 48.8579C21.4791 48.9067 21.4628 48.9344 21.4303 48.9409H19.2526C19.22 48.9344 19.2037 48.9116 19.2037 48.8726C19.2037 48.8107 19.2802 48.7684 19.4332 48.7456C19.7848 48.6968 19.9606 48.508 19.9606 48.1792V45.3765C19.9606 45.2397 19.8857 45.1453 19.736 45.0933C19.6709 45.0705 19.6009 45.0526 19.526 45.0396C19.4511 45.0233 19.3909 45.0086 19.3453 44.9956C19.303 44.9826 19.2753 44.9712 19.2623 44.9614C19.2526 44.9484 19.2477 44.924 19.2477 44.8882C19.2477 44.8491 19.2721 44.8166 19.3209 44.7905L20.566 44.2046C20.6051 44.1851 20.6295 44.1753 20.6393 44.1753C20.6946 44.1753 20.7223 44.2144 20.7223 44.2925V45.0542C20.7321 45.0868 20.7451 45.103 20.7614 45.103C20.7809 45.103 20.8509 45.0737 20.9713 45.0151C21.2513 44.8752 21.5328 44.7401 21.816 44.6099C22.0992 44.4797 22.3336 44.4146 22.5192 44.4146C23.2711 44.4146 23.6471 45.0998 23.6471 46.4702L23.6031 47.896V48.1792C23.6031 48.4331 23.7301 48.5991 23.984 48.6772C24.0914 48.7131 24.194 48.7391 24.2916 48.7554C24.3925 48.7684 24.4576 48.7814 24.4869 48.7944C24.5195 48.8075 24.5358 48.8335 24.5358 48.8726C24.5358 48.9116 24.5195 48.9344 24.4869 48.9409H22.1334C22.1009 48.9344 22.0846 48.9116 22.0846 48.8726C22.0846 48.8107 22.1611 48.7684 22.3141 48.7456C22.6624 48.6968 22.8365 48.495 22.8365 48.1401C22.8626 47.9774 22.8756 47.7316 22.8756 47.4028ZM31.318 44.8833C31.318 44.8833 31.7542 44.8638 32.6266 44.8247C32.7015 44.8247 32.7503 44.8328 32.7731 44.8491C32.7959 44.8654 32.8203 44.9224 32.8463 45.02C32.8724 45.1144 32.8854 45.2039 32.8854 45.2886C32.8854 45.3732 32.8772 45.422 32.861 45.4351C32.8447 45.4481 32.8121 45.4546 32.7633 45.4546H31.6793C31.6989 45.4904 31.72 45.5278 31.7428 45.5669C31.7656 45.606 31.7949 45.6711 31.8307 45.7622C31.8665 45.8534 31.8844 45.995 31.8844 46.187C31.8844 46.3758 31.8372 46.5744 31.7428 46.7827C31.6517 46.9878 31.5166 47.1701 31.3375 47.3296C30.9404 47.6877 30.4261 47.8667 29.7946 47.8667C29.6285 47.8667 29.4462 47.8358 29.2477 47.7739C29.1989 47.826 29.1337 47.8748 29.0524 47.9204C28.971 47.9627 28.8912 48.0067 28.8131 48.0522C28.6178 48.1629 28.5201 48.2736 28.5201 48.3843C28.5201 48.661 28.9791 48.8026 29.8971 48.8091C30.8151 48.8156 31.4173 48.8465 31.7037 48.9019C31.9934 48.9539 32.2181 49.0597 32.3776 49.2192C32.6282 49.4699 32.7535 49.7563 32.7535 50.0786C32.7535 50.3553 32.6347 50.6401 32.3971 50.9331C31.9837 51.4507 31.3522 51.7957 30.5026 51.9683C30.1998 52.0301 29.8792 52.061 29.5406 52.061C28.9254 52.061 28.4583 51.9487 28.1393 51.7241C27.8203 51.5028 27.6608 51.2342 27.6608 50.9185C27.6608 50.7459 27.7015 50.6027 27.7828 50.4888C27.8642 50.3781 27.9668 50.2723 28.0905 50.1714C28.2174 50.0737 28.3558 49.9696 28.5055 49.8589C28.6552 49.7515 28.7985 49.6131 28.9352 49.4438C28.6227 49.4178 28.3541 49.3185 28.1295 49.146C27.9082 48.9735 27.7975 48.8042 27.7975 48.6382C27.7975 48.4722 27.8414 48.3501 27.9293 48.272C28.0172 48.1906 28.1246 48.1222 28.2516 48.0669C28.3785 48.0083 28.512 47.9546 28.652 47.9058C28.792 47.8569 28.914 47.7935 29.0182 47.7153C28.6536 47.5721 28.372 47.3752 28.1735 47.1245C27.9749 46.8706 27.8756 46.5939 27.8756 46.2944C27.8756 45.7378 28.0774 45.2837 28.4811 44.9321C28.888 44.5806 29.3779 44.4048 29.9508 44.4048C30.5237 44.4048 30.9795 44.5643 31.318 44.8833ZM28.6617 49.9761C28.5869 50.0509 28.525 50.1307 28.4762 50.2153C28.4274 50.3 28.403 50.4058 28.403 50.5327C28.403 50.6629 28.4485 50.798 28.5397 50.938C28.6341 51.0812 28.761 51.2098 28.9205 51.3237C29.2721 51.5841 29.6953 51.7144 30.1901 51.7144C30.6849 51.7144 31.1324 51.5695 31.5328 51.2798C31.9365 50.9933 32.1383 50.6776 32.1383 50.3325C32.1383 49.9907 31.9723 49.7612 31.6403 49.644C31.484 49.592 31.082 49.5594 30.4342 49.5464C29.7864 49.5334 29.3665 49.5155 29.1744 49.4927C29.0898 49.5903 29.0019 49.6766 28.9108 49.7515C28.8229 49.8263 28.7399 49.9012 28.6617 49.9761ZM31.0836 46.1821C31.0836 45.7231 30.9681 45.3504 30.7369 45.064C30.5091 44.7743 30.2063 44.6294 29.8287 44.6294C29.3405 44.6294 28.9954 44.8589 28.7936 45.3179C28.7155 45.4937 28.6764 45.6955 28.6764 45.9233C28.6764 46.3888 28.7724 46.7762 28.9645 47.0854C29.1989 47.4565 29.5065 47.6421 29.8873 47.6421C30.2682 47.6421 30.5628 47.5135 30.7711 47.2563C30.9795 46.9992 31.0836 46.6411 31.0836 46.1821ZM36.2838 48.1353C36.2838 48.2199 36.3229 48.2882 36.401 48.3403C36.4824 48.3892 36.5752 48.4136 36.6793 48.4136C36.7835 48.4136 36.8698 48.3875 36.9381 48.3354C37.0097 48.2801 37.0586 48.2524 37.0846 48.2524C37.1106 48.2524 37.1237 48.2882 37.1237 48.3599C37.1237 48.4282 37.0911 48.4868 37.026 48.5356C36.5377 48.8937 36.2073 49.0728 36.0348 49.0728C35.8265 49.0728 35.6572 48.8563 35.527 48.4233C35.5172 48.3908 35.5091 48.3761 35.5026 48.3794C35.0989 48.6821 34.845 48.8644 34.7408 48.9263C34.4739 49.0793 34.2054 49.1037 33.9352 48.9995C33.6683 48.8953 33.4746 48.7228 33.3541 48.4819C33.2955 48.3582 33.2662 48.2264 33.2662 48.0864C33.2662 47.8097 33.3688 47.59 33.5739 47.4272C33.7789 47.2645 34.1696 47.1082 34.7457 46.9585C34.941 46.9064 35.1152 46.8397 35.2682 46.7583C35.4212 46.6769 35.5009 46.6248 35.5074 46.6021C35.5172 46.5793 35.5221 46.5581 35.5221 46.5386V45.6011C35.5221 45.2332 35.3789 44.9744 35.0924 44.8247C34.998 44.7759 34.8841 44.7515 34.7506 44.7515C34.6204 44.7515 34.4869 44.8035 34.3502 44.9077C34.2168 45.0119 34.15 45.16 34.15 45.3521L34.1744 45.5425C34.1549 45.5815 34.0377 45.6466 33.8229 45.7378C33.608 45.8289 33.4843 45.8778 33.4518 45.8843C33.3997 45.8843 33.3737 45.8224 33.3737 45.6987C33.3737 45.5718 33.4111 45.4318 33.486 45.2788C33.5608 45.1258 33.6666 44.9858 33.8033 44.8589C34.1224 44.5627 34.4869 44.4146 34.8971 44.4146C35.3073 44.4146 35.6409 44.5285 35.8981 44.7563C36.1552 44.981 36.2838 45.2495 36.2838 45.562V48.1353ZM34.0328 47.9937C34.0328 48.1499 34.0931 48.2866 34.2135 48.4038C34.3339 48.5177 34.4707 48.5747 34.6237 48.5747C34.7799 48.5747 34.9687 48.5096 35.1901 48.3794C35.4114 48.2459 35.5221 48.1092 35.5221 47.9692V46.978C35.5221 46.9422 35.514 46.9243 35.4977 46.9243C35.4814 46.9243 35.47 46.9259 35.4635 46.9292L34.3307 47.4565C34.2135 47.5412 34.1337 47.6128 34.0914 47.6714C34.0524 47.73 34.0328 47.8374 34.0328 47.9937ZM38.7838 44.854C38.7838 44.9549 38.8066 45.0054 38.8522 45.0054C38.901 45.0054 39.1093 44.8996 39.4772 44.688C39.9069 44.5057 40.234 44.4146 40.4586 44.4146C40.6832 44.4146 40.8981 44.4797 41.1031 44.6099C41.3082 44.7401 41.4824 44.911 41.6256 45.1226C41.9283 45.5588 42.0797 46.0877 42.0797 46.7095C42.0797 47.3312 41.8632 47.8813 41.4303 48.3599C41.0006 48.8351 40.4326 49.0728 39.7262 49.0728C39.2672 49.0728 38.844 49.0174 38.4567 48.9067C38.3427 48.8742 38.2451 48.8481 38.1637 48.8286C38.0856 48.8091 38.0416 48.7896 38.0319 48.77C38.0253 48.7472 38.0221 48.7212 38.0221 48.6919V42.1099C38.0221 41.9731 37.9472 41.8787 37.7975 41.8267C37.7324 41.8039 37.6624 41.786 37.5875 41.7729C37.5127 41.7567 37.4524 41.742 37.4069 41.729C37.3645 41.716 37.3369 41.7046 37.3239 41.6948C37.3141 41.6818 37.3092 41.6574 37.3092 41.6216C37.3092 41.5825 37.3336 41.55 37.3824 41.5239L38.6276 40.938C38.6666 40.9185 38.691 40.9087 38.7008 40.9087C38.7561 40.9087 38.7838 40.9478 38.7838 41.0259V44.854ZM39.819 45.0103C39.5293 45.0103 39.2037 45.1144 38.8424 45.3228C38.8033 45.3455 38.7838 45.3846 38.7838 45.4399V47.7495C38.8164 48.0457 38.9449 48.2769 39.1696 48.4429C39.3942 48.6089 39.6399 48.6919 39.9069 48.6919C40.3756 48.6919 40.7369 48.5063 40.9908 48.1353C41.248 47.7642 41.3766 47.341 41.3766 46.8657C41.3766 46.3905 41.2464 45.9624 40.986 45.5815C40.7255 45.2007 40.3365 45.0103 39.819 45.0103ZM45.9811 48.1353C45.9811 48.2199 46.0201 48.2882 46.0983 48.3403C46.1796 48.3892 46.2724 48.4136 46.3766 48.4136C46.4808 48.4136 46.567 48.3875 46.6354 48.3354C46.707 48.2801 46.7558 48.2524 46.7819 48.2524C46.8079 48.2524 46.8209 48.2882 46.8209 48.3599C46.8209 48.4282 46.7884 48.4868 46.7233 48.5356C46.235 48.8937 45.9046 49.0728 45.7321 49.0728C45.5237 49.0728 45.3545 48.8563 45.2242 48.4233C45.2145 48.3908 45.2063 48.3761 45.1998 48.3794C44.7962 48.6821 44.5423 48.8644 44.4381 48.9263C44.1712 49.0793 43.9026 49.1037 43.6324 48.9995C43.3655 48.8953 43.1718 48.7228 43.0514 48.4819C42.9928 48.3582 42.9635 48.2264 42.9635 48.0864C42.9635 47.8097 43.066 47.59 43.2711 47.4272C43.4762 47.2645 43.8668 47.1082 44.443 46.9585C44.6383 46.9064 44.8125 46.8397 44.9655 46.7583C45.1184 46.6769 45.1982 46.6248 45.2047 46.6021C45.2145 46.5793 45.2194 46.5581 45.2194 46.5386V45.6011C45.2194 45.2332 45.0761 44.9744 44.7897 44.8247C44.6953 44.7759 44.5813 44.7515 44.4479 44.7515C44.3177 44.7515 44.1842 44.8035 44.0475 44.9077C43.914 45.0119 43.8473 45.16 43.8473 45.3521L43.8717 45.5425C43.8522 45.5815 43.735 45.6466 43.5201 45.7378C43.3053 45.8289 43.1816 45.8778 43.149 45.8843C43.097 45.8843 43.0709 45.8224 43.0709 45.6987C43.0709 45.5718 43.1084 45.4318 43.1832 45.2788C43.2581 45.1258 43.3639 44.9858 43.5006 44.8589C43.8196 44.5627 44.1842 44.4146 44.5944 44.4146C45.0045 44.4146 45.3382 44.5285 45.5953 44.7563C45.8525 44.981 45.9811 45.2495 45.9811 45.562V48.1353ZM43.7301 47.9937C43.7301 48.1499 43.7903 48.2866 43.9108 48.4038C44.0312 48.5177 44.1679 48.5747 44.3209 48.5747C44.4772 48.5747 44.666 48.5096 44.8873 48.3794C45.1087 48.2459 45.2194 48.1092 45.2194 47.9692V46.978C45.2194 46.9422 45.2112 46.9243 45.1949 46.9243C45.1787 46.9243 45.1673 46.9259 45.1608 46.9292L44.028 47.4565C43.9108 47.5412 43.831 47.6128 43.7887 47.6714C43.7496 47.73 43.7301 47.8374 43.7301 47.9937ZM50.2584 45.4399C50.2194 45.4334 50.1624 45.4123 50.0875 45.3765C49.8173 45.2528 49.6058 45.1909 49.4528 45.1909C49.2998 45.1909 49.1386 45.2869 48.9694 45.479C48.8033 45.6678 48.7203 45.8387 48.7203 45.9917V48.1987C48.7203 48.4429 48.8619 48.6056 49.1451 48.687C49.2688 48.7196 49.3844 48.744 49.4918 48.7603C49.5992 48.7733 49.6676 48.7863 49.6969 48.7993C49.7295 48.8123 49.7457 48.8384 49.7457 48.8774C49.7457 48.9132 49.7295 48.9344 49.6969 48.9409H47.2506C47.2181 48.9344 47.2018 48.9116 47.2018 48.8726C47.2018 48.814 47.2783 48.7749 47.4313 48.7554C47.7828 48.7033 47.9586 48.5177 47.9586 48.1987V45.6157C47.9586 45.479 47.8837 45.3846 47.734 45.3325C47.6689 45.3097 47.5989 45.2918 47.524 45.2788C47.4492 45.2625 47.389 45.2479 47.3434 45.2349C47.3011 45.2218 47.2734 45.2104 47.2604 45.2007C47.2506 45.1877 47.2457 45.1632 47.2457 45.1274C47.2457 45.0884 47.2701 45.0558 47.319 45.0298L48.5641 44.4438C48.6031 44.4243 48.6276 44.4146 48.6373 44.4146C48.6927 44.4146 48.7203 44.4536 48.7203 44.5317V45.3228C48.7203 45.3618 48.7301 45.3813 48.7496 45.3813C48.7757 45.3813 48.8424 45.3049 48.9498 45.1519C49.2591 44.7189 49.5146 44.5024 49.7164 44.5024C49.8304 44.5024 50.0045 44.548 50.2389 44.6392C50.4765 44.7303 50.5953 44.8068 50.5953 44.8687C50.5953 44.9435 50.5579 45.0575 50.483 45.2104C50.4082 45.3634 50.3333 45.4399 50.2584 45.4399ZM50.942 48.9409C50.9095 48.9344 50.8932 48.9116 50.8932 48.8726C50.8932 48.814 50.9697 48.7749 51.1227 48.7554C51.4742 48.7033 51.65 48.5177 51.65 48.1987V45.6157C51.65 45.479 51.5752 45.3846 51.4254 45.3325C51.3603 45.3097 51.2903 45.2918 51.2155 45.2788C51.1406 45.2625 51.0804 45.2479 51.0348 45.2349C50.9925 45.2218 50.9648 45.2104 50.9518 45.2007C50.942 45.1877 50.9371 45.1632 50.9371 45.1274C50.9371 45.0884 50.9615 45.0558 51.0104 45.0298L52.2555 44.4438C52.2946 44.4243 52.319 44.4146 52.3287 44.4146C52.3841 44.4146 52.4117 44.4536 52.4117 44.5317V48.1987C52.4117 48.5177 52.5875 48.7033 52.9391 48.7554C53.0921 48.7749 53.1686 48.8091 53.1686 48.8579C53.1686 48.9067 53.1523 48.9344 53.1198 48.9409H50.942ZM51.9576 43.0425C51.8242 43.0425 51.7054 43.0002 51.6012 42.9155C51.5003 42.8309 51.4498 42.7137 51.4498 42.564C51.4498 42.411 51.4987 42.2905 51.5963 42.2026C51.694 42.1147 51.8095 42.0708 51.943 42.0708C52.0797 42.0708 52.1936 42.1229 52.2848 42.2271C52.3792 42.3312 52.4264 42.4435 52.4264 42.564C52.4264 42.6844 52.3824 42.7951 52.2946 42.896C52.2067 42.9937 52.0944 43.0425 51.9576 43.0425ZM54.941 45.186C54.9215 45.186 54.9117 45.2007 54.9117 45.23V47.9253C54.9117 48.1206 54.9541 48.2736 55.0387 48.3843C55.1266 48.495 55.2373 48.5503 55.3707 48.5503C55.5042 48.5503 55.6198 48.5291 55.7174 48.4868C55.8183 48.4412 55.9046 48.3924 55.9762 48.3403C56.0511 48.2882 56.1178 48.241 56.1764 48.1987C56.235 48.1532 56.2871 48.1304 56.3326 48.1304C56.3782 48.1304 56.401 48.1418 56.401 48.1646C56.401 48.2427 56.3929 48.2931 56.3766 48.3159C55.986 48.8205 55.6084 49.0728 55.2438 49.0728C54.8824 49.0728 54.609 48.9588 54.4235 48.731C54.2412 48.4998 54.15 48.2248 54.15 47.9058V45.186H53.7838C53.6927 45.186 53.6438 45.1567 53.6373 45.0981C53.6341 45.0396 53.6438 45.0021 53.6666 44.9858C53.8392 44.8752 54.0768 44.6766 54.3795 44.3901C54.4121 44.3543 54.456 44.3006 54.5114 44.229C54.5667 44.1574 54.6464 44.0597 54.7506 43.936C54.858 43.8123 54.9394 43.7505 54.9948 43.7505C55.0501 43.7505 55.0778 43.7733 55.0778 43.8188C55.0778 43.8254 55.0224 44.0386 54.9117 44.4585C54.9117 44.5171 54.9378 44.548 54.9899 44.5513H56.235C56.3782 44.5513 56.4498 44.7531 56.4498 45.1567C56.4498 45.1763 56.4368 45.186 56.4108 45.186H54.941ZM60.3903 46.3677C60.3349 46.3677 60.3073 46.4865 60.3073 46.7241C60.3073 47.2287 60.457 47.6519 60.7565 47.9937C61.0559 48.3354 61.427 48.5063 61.8698 48.5063C62.3157 48.5063 62.7438 48.3143 63.1539 47.9302C63.1604 47.9237 63.1686 47.9204 63.1783 47.9204H63.2028C63.2223 47.9204 63.2402 47.9367 63.2565 47.9692C63.276 47.9985 63.2939 48.0181 63.3102 48.0278C62.9326 48.4868 62.4882 48.8042 61.9772 48.98C61.8014 49.0418 61.6028 49.0728 61.3815 49.0728C61.1601 49.0728 60.9355 49.0125 60.7076 48.8921C60.4798 48.7684 60.2845 48.6073 60.1217 48.4087C59.7767 47.9953 59.6041 47.481 59.6041 46.8657C59.6041 46.2472 59.7913 45.6841 60.1656 45.1763C60.5433 44.6685 61.0608 44.4146 61.7184 44.4146C62.1904 44.4146 62.5761 44.6261 62.8756 45.0493C63.1751 45.4692 63.3248 45.8387 63.3248 46.1577C63.3248 46.2977 63.2906 46.3677 63.2223 46.3677H60.3903ZM60.444 45.8989C60.444 45.9608 60.4733 45.9917 60.5319 45.9917H62.3727C62.4573 45.9917 62.4996 45.9412 62.4996 45.8403C62.4996 45.606 62.3938 45.3667 62.1823 45.1226C61.9739 44.8752 61.7444 44.7515 61.4938 44.7515C61.2496 44.7515 61.0267 44.8621 60.8248 45.0835C60.6263 45.3049 60.4993 45.5571 60.444 45.8403V45.8989ZM67.7291 47.4028L67.7194 46.3726C67.7194 45.9526 67.6836 45.658 67.6119 45.4888C67.5403 45.3195 67.4492 45.1925 67.3385 45.1079C67.2278 45.02 67.0781 44.9761 66.8893 44.9761C66.7037 44.9761 66.3082 45.1226 65.7028 45.4155C65.6214 45.4644 65.5791 45.5099 65.5758 45.5522V48.1792C65.5758 48.508 65.7516 48.6968 66.1031 48.7456C66.2561 48.7684 66.3326 48.8058 66.3326 48.8579C66.3326 48.9067 66.3164 48.9344 66.2838 48.9409H64.1061C64.0735 48.9344 64.0573 48.9116 64.0573 48.8726C64.0573 48.8107 64.1337 48.7684 64.2867 48.7456C64.6383 48.6968 64.8141 48.508 64.8141 48.1792V45.3765C64.8141 45.2397 64.7392 45.1453 64.5895 45.0933C64.5244 45.0705 64.4544 45.0526 64.3795 45.0396C64.3046 45.0233 64.2444 45.0086 64.1989 44.9956C64.1565 44.9826 64.1289 44.9712 64.1158 44.9614C64.1061 44.9484 64.1012 44.924 64.1012 44.8882C64.1012 44.8491 64.1256 44.8166 64.1744 44.7905L65.4196 44.2046C65.4586 44.1851 65.483 44.1753 65.4928 44.1753C65.5481 44.1753 65.5758 44.2144 65.5758 44.2925V45.0542C65.5856 45.0868 65.5986 45.103 65.6149 45.103C65.6344 45.103 65.7044 45.0737 65.8248 45.0151C66.1048 44.8752 66.3864 44.7401 66.6696 44.6099C66.9528 44.4797 67.1871 44.4146 67.3727 44.4146C68.1246 44.4146 68.5006 45.0998 68.5006 46.4702L68.4567 47.896V48.1792C68.4567 48.4331 68.5836 48.5991 68.8375 48.6772C68.9449 48.7131 69.0475 48.7391 69.1451 48.7554C69.2461 48.7684 69.3112 48.7814 69.3405 48.7944C69.373 48.8075 69.3893 48.8335 69.3893 48.8726C69.3893 48.9116 69.373 48.9344 69.3405 48.9409H66.9869C66.9544 48.9344 66.9381 48.9116 66.9381 48.8726C66.9381 48.8107 67.0146 48.7684 67.1676 48.7456C67.5159 48.6968 67.6901 48.495 67.6901 48.1401C67.7161 47.9774 67.7291 47.7316 67.7291 47.4028ZM73.7057 44.854C73.7057 44.9549 73.7285 45.0054 73.774 45.0054C73.8229 45.0054 74.0312 44.8996 74.399 44.688C74.8287 44.5057 75.1559 44.4146 75.3805 44.4146C75.6051 44.4146 75.8199 44.4797 76.025 44.6099C76.2301 44.7401 76.4043 44.911 76.5475 45.1226C76.8502 45.5588 77.0016 46.0877 77.0016 46.7095C77.0016 47.3312 76.7851 47.8813 76.3522 48.3599C75.9225 48.8351 75.3545 49.0728 74.6481 49.0728C74.1891 49.0728 73.7659 49.0174 73.3785 48.9067C73.2646 48.8742 73.167 48.8481 73.0856 48.8286C73.0074 48.8091 72.9635 48.7896 72.9537 48.77C72.9472 48.7472 72.944 48.7212 72.944 48.6919V42.1099C72.944 41.9731 72.8691 41.8787 72.7194 41.8267C72.6543 41.8039 72.5843 41.786 72.5094 41.7729C72.4345 41.7567 72.3743 41.742 72.3287 41.729C72.2864 41.716 72.2587 41.7046 72.2457 41.6948C72.236 41.6818 72.2311 41.6574 72.2311 41.6216C72.2311 41.5825 72.2555 41.55 72.3043 41.5239L73.5494 40.938C73.5885 40.9185 73.6129 40.9087 73.6227 40.9087C73.678 40.9087 73.7057 40.9478 73.7057 41.0259V44.854ZM74.7408 45.0103C74.4511 45.0103 74.1256 45.1144 73.7643 45.3228C73.7252 45.3455 73.7057 45.3846 73.7057 45.4399V47.7495C73.7382 48.0457 73.8668 48.2769 74.0914 48.4429C74.316 48.6089 74.5618 48.6919 74.8287 48.6919C75.2975 48.6919 75.6588 48.5063 75.9127 48.1353C76.1699 47.7642 76.2985 47.341 76.2985 46.8657C76.2985 46.3905 76.1683 45.9624 75.9078 45.5815C75.6474 45.2007 75.2584 45.0103 74.7408 45.0103ZM77.9098 46.7485C77.9098 46.1073 78.136 45.5571 78.5885 45.0981C79.0442 44.6359 79.5895 44.4048 80.2242 44.4048C80.859 44.4048 81.4108 44.6294 81.8795 45.0786C82.3483 45.5246 82.5826 46.0763 82.5826 46.7339C82.5826 47.3914 82.3597 47.9465 81.9137 48.3989C81.471 48.8481 80.9143 49.0728 80.2438 49.0728C79.5732 49.0728 79.0166 48.8449 78.5739 48.3892C78.1311 47.9334 77.9098 47.3866 77.9098 46.7485ZM79.1256 48.0034C79.4446 48.5405 79.8792 48.8091 80.4293 48.8091C80.8558 48.8091 81.1813 48.6382 81.4059 48.2964C81.6337 47.9546 81.7477 47.5347 81.7477 47.0366C81.7477 46.5386 81.5882 46.0275 81.2692 45.5034C80.9534 44.9793 80.527 44.7173 79.9899 44.7173C79.596 44.7173 79.2851 44.8882 79.0573 45.23C78.8326 45.5685 78.7203 45.9998 78.7203 46.5239C78.7203 47.0448 78.8554 47.5379 79.1256 48.0034ZM83.2955 48.9409C83.263 48.9344 83.2467 48.9116 83.2467 48.8726C83.2467 48.814 83.3232 48.7749 83.4762 48.7554C83.8278 48.7033 84.0035 48.5177 84.0035 48.1987V45.6157C84.0035 45.479 83.9287 45.3846 83.7789 45.3325C83.7138 45.3097 83.6438 45.2918 83.569 45.2788C83.4941 45.2625 83.4339 45.2479 83.3883 45.2349C83.346 45.2218 83.3183 45.2104 83.3053 45.2007C83.2955 45.1877 83.2906 45.1632 83.2906 45.1274C83.2906 45.0884 83.3151 45.0558 83.3639 45.0298L84.609 44.4438C84.6481 44.4243 84.6725 44.4146 84.6823 44.4146C84.7376 44.4146 84.7653 44.4536 84.7653 44.5317V48.1987C84.7653 48.5177 84.941 48.7033 85.2926 48.7554C85.4456 48.7749 85.5221 48.8091 85.5221 48.8579C85.5221 48.9067 85.5058 48.9344 85.4733 48.9409H83.2955ZM84.3112 43.0425C84.1777 43.0425 84.0589 43.0002 83.9547 42.9155C83.8538 42.8309 83.8033 42.7137 83.8033 42.564C83.8033 42.411 83.8522 42.2905 83.9498 42.2026C84.0475 42.1147 84.163 42.0708 84.2965 42.0708C84.4332 42.0708 84.5472 42.1229 84.6383 42.2271C84.7327 42.3312 84.7799 42.4435 84.7799 42.564C84.7799 42.6844 84.736 42.7951 84.6481 42.896C84.5602 42.9937 84.4479 43.0425 84.3112 43.0425ZM88.4762 45.6011C88.4762 45.6727 88.4485 45.7085 88.3932 45.7085C88.3411 45.7085 88.3004 45.6694 88.2711 45.5913C88.193 45.3765 88.0758 45.186 87.9196 45.02C87.7666 44.854 87.5761 44.771 87.3483 44.771C87.0488 44.771 86.847 44.9207 86.7428 45.2202C86.7102 45.3211 86.694 45.4253 86.694 45.5327C86.694 45.6401 86.7623 45.7606 86.899 45.894C87.0358 46.0243 87.2604 46.1805 87.5729 46.3628C87.8854 46.5451 88.1132 46.6997 88.2565 46.8267C88.582 47.1164 88.7448 47.4517 88.7448 47.8325C88.7448 48.2134 88.6048 48.5161 88.3248 48.7407C88.0449 48.9621 87.7194 49.0728 87.3483 49.0728C87.1497 49.0728 86.969 49.0451 86.8063 48.9897C86.6468 48.9377 86.554 48.9116 86.528 48.9116C86.5052 48.9116 86.4661 48.9377 86.4108 48.9897C86.3587 49.0451 86.3164 49.0728 86.2838 49.0728H86.2008C86.1813 49.0728 86.1569 48.897 86.1276 48.5454C86.0983 48.1938 86.0836 47.9855 86.0836 47.9204C86.0836 47.8553 86.0885 47.8195 86.0983 47.813C86.1113 47.8065 86.1308 47.8032 86.1569 47.8032C86.1829 47.8032 86.2041 47.8114 86.2203 47.8276C86.2399 47.8439 86.2561 47.8651 86.2692 47.8911C86.2822 47.9139 86.292 47.9383 86.2985 47.9644C86.3082 47.9904 86.3294 48.0392 86.3619 48.1108C86.5833 48.5828 86.9251 48.8188 87.3873 48.8188C87.5924 48.8188 87.7568 48.744 87.8805 48.5942C88.0042 48.4412 88.066 48.272 88.066 48.0864C88.066 47.9009 88.0172 47.7446 87.9196 47.6177C87.8219 47.4907 87.6998 47.3752 87.5533 47.271C87.4101 47.1668 87.2539 47.0659 87.0846 46.9683C86.427 46.5841 86.0983 46.1593 86.0983 45.6938C86.0983 45.3455 86.248 45.0461 86.5475 44.7954C86.847 44.5415 87.1546 44.4146 87.4703 44.4146C87.7861 44.4146 88.0188 44.4487 88.1686 44.5171C88.3216 44.5854 88.4111 44.644 88.4371 44.6929C88.4632 44.7384 88.4762 44.8914 88.4762 45.1519V45.6011ZM95.1119 45.4399C95.0729 45.4334 95.0159 45.4123 94.941 45.3765C94.6709 45.2528 94.4593 45.1909 94.3063 45.1909C94.1533 45.1909 93.9921 45.2869 93.8229 45.479C93.6569 45.6678 93.5739 45.8387 93.5739 45.9917V48.1987C93.5739 48.4429 93.7155 48.6056 93.9987 48.687C94.1224 48.7196 94.2379 48.744 94.3453 48.7603C94.4528 48.7733 94.5211 48.7863 94.5504 48.7993C94.583 48.8123 94.5992 48.8384 94.5992 48.8774C94.5992 48.9132 94.583 48.9344 94.5504 48.9409H92.1041C92.0716 48.9344 92.0553 48.9116 92.0553 48.8726C92.0553 48.814 92.1318 48.7749 92.2848 48.7554C92.6364 48.7033 92.8121 48.5177 92.8121 48.1987V45.6157C92.8121 45.479 92.7373 45.3846 92.5875 45.3325C92.5224 45.3097 92.4524 45.2918 92.3776 45.2788C92.3027 45.2625 92.2425 45.2479 92.1969 45.2349C92.1546 45.2218 92.1269 45.2104 92.1139 45.2007C92.1041 45.1877 92.0992 45.1632 92.0992 45.1274C92.0992 45.0884 92.1237 45.0558 92.1725 45.0298L93.4176 44.4438C93.4567 44.4243 93.4811 44.4146 93.4908 44.4146C93.5462 44.4146 93.5739 44.4536 93.5739 44.5317V45.3228C93.5739 45.3618 93.5836 45.3813 93.6031 45.3813C93.6292 45.3813 93.6959 45.3049 93.8033 45.1519C94.1126 44.7189 94.3681 44.5024 94.5699 44.5024C94.6839 44.5024 94.858 44.548 95.0924 44.6392C95.33 44.7303 95.4489 44.8068 95.4489 44.8687C95.4489 44.9435 95.4114 45.0575 95.3365 45.2104C95.2617 45.3634 95.1868 45.4399 95.1119 45.4399ZM96.5817 46.3677C96.5263 46.3677 96.4987 46.4865 96.4987 46.7241C96.4987 47.2287 96.6484 47.6519 96.9479 47.9937C97.2474 48.3354 97.6184 48.5063 98.0612 48.5063C98.5071 48.5063 98.9352 48.3143 99.3453 47.9302C99.3518 47.9237 99.36 47.9204 99.3698 47.9204H99.3942C99.4137 47.9204 99.4316 47.9367 99.4479 47.9692C99.4674 47.9985 99.4853 48.0181 99.5016 48.0278C99.124 48.4868 98.6796 48.8042 98.1686 48.98C97.9928 49.0418 97.7942 49.0728 97.5729 49.0728C97.3515 49.0728 97.1269 49.0125 96.899 48.8921C96.6712 48.7684 96.4759 48.6073 96.3131 48.4087C95.9681 47.9953 95.7955 47.481 95.7955 46.8657C95.7955 46.2472 95.9827 45.6841 96.3571 45.1763C96.7347 44.6685 97.2522 44.4146 97.9098 44.4146C98.3818 44.4146 98.7675 44.6261 99.067 45.0493C99.3665 45.4692 99.5162 45.8387 99.5162 46.1577C99.5162 46.2977 99.4821 46.3677 99.4137 46.3677H96.5817ZM96.6354 45.8989C96.6354 45.9608 96.6647 45.9917 96.7233 45.9917H98.5641C98.6487 45.9917 98.691 45.9412 98.691 45.8403C98.691 45.606 98.5852 45.3667 98.3737 45.1226C98.1653 44.8752 97.9358 44.7515 97.6852 44.7515C97.441 44.7515 97.2181 44.8621 97.0162 45.0835C96.8177 45.3049 96.6907 45.5571 96.6354 45.8403V45.8989ZM102.705 45.6011C102.705 45.6727 102.677 45.7085 102.622 45.7085C102.57 45.7085 102.529 45.6694 102.5 45.5913C102.422 45.3765 102.304 45.186 102.148 45.02C101.995 44.854 101.805 44.771 101.577 44.771C101.277 44.771 101.075 44.9207 100.971 45.2202C100.939 45.3211 100.922 45.4253 100.922 45.5327C100.922 45.6401 100.991 45.7606 101.128 45.894C101.264 46.0243 101.489 46.1805 101.801 46.3628C102.114 46.5451 102.342 46.6997 102.485 46.8267C102.811 47.1164 102.973 47.4517 102.973 47.8325C102.973 48.2134 102.833 48.5161 102.553 48.7407C102.273 48.9621 101.948 49.0728 101.577 49.0728C101.378 49.0728 101.198 49.0451 101.035 48.9897C100.875 48.9377 100.783 48.9116 100.756 48.9116C100.734 48.9116 100.695 48.9377 100.639 48.9897C100.587 49.0451 100.545 49.0728 100.512 49.0728H100.429C100.41 49.0728 100.385 48.897 100.356 48.5454C100.327 48.1938 100.312 47.9855 100.312 47.9204C100.312 47.8553 100.317 47.8195 100.327 47.813C100.34 47.8065 100.359 47.8032 100.385 47.8032C100.411 47.8032 100.433 47.8114 100.449 47.8276C100.468 47.8439 100.485 47.8651 100.498 47.8911C100.511 47.9139 100.52 47.9383 100.527 47.9644C100.537 47.9904 100.558 48.0392 100.59 48.1108C100.812 48.5828 101.154 48.8188 101.616 48.8188C101.821 48.8188 101.985 48.744 102.109 48.5942C102.233 48.4412 102.295 48.272 102.295 48.0864C102.295 47.9009 102.246 47.7446 102.148 47.6177C102.05 47.4907 101.928 47.3752 101.782 47.271C101.639 47.1668 101.482 47.0659 101.313 46.9683C100.656 46.5841 100.327 46.1593 100.327 45.6938C100.327 45.3455 100.477 45.0461 100.776 44.7954C101.075 44.5415 101.383 44.4146 101.699 44.4146C102.015 44.4146 102.247 44.4487 102.397 44.5171C102.55 44.5854 102.64 44.644 102.666 44.6929C102.692 44.7384 102.705 44.8914 102.705 45.1519V45.6011ZM106.054 45.6011C106.054 45.6727 106.027 45.7085 105.971 45.7085C105.919 45.7085 105.879 45.6694 105.849 45.5913C105.771 45.3765 105.654 45.186 105.498 45.02C105.345 44.854 105.154 44.771 104.926 44.771C104.627 44.771 104.425 44.9207 104.321 45.2202C104.288 45.3211 104.272 45.4253 104.272 45.5327C104.272 45.6401 104.34 45.7606 104.477 45.894C104.614 46.0243 104.839 46.1805 105.151 46.3628C105.464 46.5451 105.691 46.6997 105.835 46.8267C106.16 47.1164 106.323 47.4517 106.323 47.8325C106.323 48.2134 106.183 48.5161 105.903 48.7407C105.623 48.9621 105.297 49.0728 104.926 49.0728C104.728 49.0728 104.547 49.0451 104.384 48.9897C104.225 48.9377 104.132 48.9116 104.106 48.9116C104.083 48.9116 104.044 48.9377 103.989 48.9897C103.937 49.0451 103.894 49.0728 103.862 49.0728H103.779C103.759 49.0728 103.735 48.897 103.706 48.5454C103.676 48.1938 103.662 47.9855 103.662 47.9204C103.662 47.8553 103.667 47.8195 103.676 47.813C103.689 47.8065 103.709 47.8032 103.735 47.8032C103.761 47.8032 103.782 47.8114 103.798 47.8276C103.818 47.8439 103.834 47.8651 103.847 47.8911C103.86 47.9139 103.87 47.9383 103.877 47.9644C103.886 47.9904 103.908 48.0392 103.94 48.1108C104.161 48.5828 104.503 48.8188 104.965 48.8188C105.171 48.8188 105.335 48.744 105.459 48.5942C105.582 48.4412 105.644 48.272 105.644 48.0864C105.644 47.9009 105.595 47.7446 105.498 47.6177C105.4 47.4907 105.278 47.3752 105.131 47.271C104.988 47.1668 104.832 47.0659 104.663 46.9683C104.005 46.5841 103.676 46.1593 103.676 45.6938C103.676 45.3455 103.826 45.0461 104.126 44.7954C104.425 44.5415 104.733 44.4146 105.048 44.4146C105.364 44.4146 105.597 44.4487 105.747 44.5171C105.9 44.5854 105.989 44.644 106.015 44.6929C106.041 44.7384 106.054 44.8914 106.054 45.1519V45.6011ZM107.822 46.3677C107.767 46.3677 107.739 46.4865 107.739 46.7241C107.739 47.2287 107.889 47.6519 108.188 47.9937C108.488 48.3354 108.859 48.5063 109.301 48.5063C109.747 48.5063 110.175 48.3143 110.586 47.9302C110.592 47.9237 110.6 47.9204 110.61 47.9204H110.634C110.654 47.9204 110.672 47.9367 110.688 47.9692C110.708 47.9985 110.726 48.0181 110.742 48.0278C110.364 48.4868 109.92 48.8042 109.409 48.98C109.233 49.0418 109.034 49.0728 108.813 49.0728C108.592 49.0728 108.367 49.0125 108.139 48.8921C107.911 48.7684 107.716 48.6073 107.553 48.4087C107.208 47.9953 107.036 47.481 107.036 46.8657C107.036 46.2472 107.223 45.6841 107.597 45.1763C107.975 44.6685 108.492 44.4146 109.15 44.4146C109.622 44.4146 110.008 44.6261 110.307 45.0493C110.607 45.4692 110.756 45.8387 110.756 46.1577C110.756 46.2977 110.722 46.3677 110.654 46.3677H107.822ZM107.876 45.8989C107.876 45.9608 107.905 45.9917 107.964 45.9917H109.804C109.889 45.9917 109.931 45.9412 109.931 45.8403C109.931 45.606 109.825 45.3667 109.614 45.1226C109.406 44.8752 109.176 44.7515 108.925 44.7515C108.681 44.7515 108.458 44.8621 108.256 45.0835C108.058 45.3049 107.931 45.5571 107.876 45.8403V45.8989ZM118.012 47.4028L118.003 46.3726C118.003 45.9526 117.967 45.658 117.895 45.4888C117.824 45.3195 117.732 45.1925 117.622 45.1079C117.511 45.02 117.361 44.9761 117.172 44.9761C116.987 44.9761 116.591 45.1226 115.986 45.4155C115.905 45.4644 115.862 45.5099 115.859 45.5522V48.1792C115.859 48.508 116.035 48.6968 116.386 48.7456C116.539 48.7684 116.616 48.8058 116.616 48.8579C116.616 48.9067 116.6 48.9344 116.567 48.9409H114.389C114.357 48.9344 114.34 48.9116 114.34 48.8726C114.34 48.8107 114.417 48.7684 114.57 48.7456C114.922 48.6968 115.097 48.508 115.097 48.1792V45.7476C115.097 45.2365 114.782 44.981 114.15 44.981C113.919 44.981 113.598 45.1177 113.188 45.3911C113.084 45.4595 113.007 45.5229 112.959 45.5815V48.1792C112.959 48.508 113.134 48.6968 113.486 48.7456C113.639 48.7684 113.715 48.8058 113.715 48.8579C113.715 48.9067 113.699 48.9344 113.667 48.9409H111.489C111.456 48.9344 111.44 48.9116 111.44 48.8726C111.44 48.8107 111.517 48.7684 111.67 48.7456C112.021 48.6968 112.197 48.5112 112.197 48.189V45.3765C112.197 45.2397 112.122 45.1453 111.972 45.0933C111.907 45.0705 111.837 45.0526 111.762 45.0396C111.687 45.0233 111.627 45.0086 111.582 44.9956C111.539 44.9826 111.512 44.9712 111.499 44.9614C111.489 44.9484 111.484 44.924 111.484 44.8882C111.484 44.8491 111.508 44.8166 111.557 44.7905L112.802 44.2046C112.841 44.1851 112.866 44.1753 112.876 44.1753C112.931 44.1753 112.959 44.2144 112.959 44.2925V45.103C112.962 45.1226 112.973 45.1323 112.993 45.1323C113.016 45.1323 113.069 45.1095 113.154 45.064C113.242 45.0184 113.356 44.9549 113.496 44.8735C113.636 44.7889 113.82 44.6912 114.047 44.5806C114.279 44.4699 114.523 44.4146 114.78 44.4146C115.193 44.4146 115.49 44.592 115.669 44.9468C115.737 45.09 115.799 45.1519 115.854 45.1323C115.909 45.1095 115.996 45.0688 116.113 45.0103C116.39 44.8735 116.67 44.7401 116.953 44.6099C117.236 44.4797 117.47 44.4146 117.656 44.4146C118.408 44.4146 118.784 45.0998 118.784 46.4702L118.74 47.896V48.1792C118.74 48.4331 118.867 48.5991 119.121 48.6772C119.228 48.7131 119.331 48.7391 119.428 48.7554C119.529 48.7684 119.594 48.7814 119.624 48.7944C119.656 48.8075 119.672 48.8335 119.672 48.8726C119.672 48.9116 119.656 48.9344 119.624 48.9409H117.27C117.238 48.9344 117.221 48.9116 117.221 48.8726C117.221 48.8107 117.298 48.7684 117.451 48.7456C117.799 48.6968 117.973 48.495 117.973 48.1401C117.999 47.9774 118.012 47.7316 118.012 47.4028ZM121.225 44.854C121.225 44.9549 121.248 45.0054 121.294 45.0054C121.342 45.0054 121.551 44.8996 121.919 44.688C122.348 44.5057 122.675 44.4146 122.9 44.4146C123.125 44.4146 123.339 44.4797 123.545 44.6099C123.75 44.7401 123.924 44.911 124.067 45.1226C124.37 45.5588 124.521 46.0877 124.521 46.7095C124.521 47.3312 124.305 47.8813 123.872 48.3599C123.442 48.8351 122.874 49.0728 122.168 49.0728C121.709 49.0728 121.285 49.0174 120.898 48.9067C120.784 48.8742 120.686 48.8481 120.605 48.8286C120.527 48.8091 120.483 48.7896 120.473 48.77C120.467 48.7472 120.464 48.7212 120.464 48.6919V42.1099C120.464 41.9731 120.389 41.8787 120.239 41.8267C120.174 41.8039 120.104 41.786 120.029 41.7729C119.954 41.7567 119.894 41.742 119.848 41.729C119.806 41.716 119.778 41.7046 119.765 41.6948C119.755 41.6818 119.751 41.6574 119.751 41.6216C119.751 41.5825 119.775 41.55 119.824 41.5239L121.069 40.938C121.108 40.9185 121.132 40.9087 121.142 40.9087C121.198 40.9087 121.225 40.9478 121.225 41.0259V44.854ZM122.26 45.0103C121.971 45.0103 121.645 45.1144 121.284 45.3228C121.245 45.3455 121.225 45.3846 121.225 45.4399V47.7495C121.258 48.0457 121.386 48.2769 121.611 48.4429C121.836 48.6089 122.081 48.6919 122.348 48.6919C122.817 48.6919 123.178 48.5063 123.432 48.1353C123.689 47.7642 123.818 47.341 123.818 46.8657C123.818 46.3905 123.688 45.9624 123.427 45.5815C123.167 45.2007 122.778 45.0103 122.26 45.0103ZM127.207 48.7554C127.36 48.7749 127.436 48.814 127.436 48.8726C127.436 48.9116 127.42 48.9344 127.387 48.9409H125.21C125.177 48.9344 125.161 48.9116 125.161 48.8726C125.161 48.814 125.237 48.7749 125.39 48.7554C125.742 48.7033 125.918 48.5177 125.918 48.1987V42.1099C125.918 41.9731 125.843 41.8787 125.693 41.8267C125.628 41.8039 125.558 41.786 125.483 41.7729C125.408 41.7567 125.348 41.742 125.302 41.729C125.26 41.716 125.232 41.7046 125.219 41.6948C125.21 41.6818 125.205 41.6574 125.205 41.6216C125.205 41.5825 125.229 41.55 125.278 41.5239L126.523 40.938C126.562 40.9185 126.587 40.9087 126.596 40.9087C126.652 40.9087 126.679 40.9478 126.679 41.0259V48.1987C126.679 48.5177 126.855 48.7033 127.207 48.7554ZM128.74 46.3677C128.685 46.3677 128.657 46.4865 128.657 46.7241C128.657 47.2287 128.807 47.6519 129.106 47.9937C129.406 48.3354 129.777 48.5063 130.219 48.5063C130.665 48.5063 131.093 48.3143 131.504 47.9302C131.51 47.9237 131.518 47.9204 131.528 47.9204H131.552C131.572 47.9204 131.59 47.9367 131.606 47.9692C131.626 47.9985 131.644 48.0181 131.66 48.0278C131.282 48.4868 130.838 48.8042 130.327 48.98C130.151 49.0418 129.952 49.0728 129.731 49.0728C129.51 49.0728 129.285 49.0125 129.057 48.8921C128.829 48.7684 128.634 48.6073 128.471 48.4087C128.126 47.9953 127.954 47.481 127.954 46.8657C127.954 46.2472 128.141 45.6841 128.515 45.1763C128.893 44.6685 129.41 44.4146 130.068 44.4146C130.54 44.4146 130.926 44.6261 131.225 45.0493C131.525 45.4692 131.674 45.8387 131.674 46.1577C131.674 46.2977 131.64 46.3677 131.572 46.3677H128.74ZM128.794 45.8989C128.794 45.9608 128.823 45.9917 128.881 45.9917H130.722C130.807 45.9917 130.849 45.9412 130.849 45.8403C130.849 45.606 130.743 45.3667 130.532 45.1226C130.324 44.8752 130.094 44.7515 129.843 44.7515C129.599 44.7515 129.376 44.8621 129.174 45.0835C128.976 45.3049 128.849 45.5571 128.794 45.8403V45.8989ZM136.196 46.1187V46.7876H132.568V46.1187H136.196ZM43.3688 59.186C43.3492 59.186 43.3395 59.2007 43.3395 59.23V61.9253C43.3395 62.1206 43.3818 62.2736 43.4664 62.3843C43.5543 62.495 43.665 62.5503 43.7985 62.5503C43.9319 62.5503 44.0475 62.5291 44.1451 62.4868C44.2461 62.4412 44.3323 62.3924 44.4039 62.3403C44.4788 62.2882 44.5455 62.241 44.6041 62.1987C44.6627 62.1532 44.7148 62.1304 44.7604 62.1304C44.8059 62.1304 44.8287 62.1418 44.8287 62.1646C44.8287 62.2427 44.8206 62.2931 44.8043 62.3159C44.4137 62.8205 44.0361 63.0728 43.6715 63.0728C43.3102 63.0728 43.0367 62.9588 42.8512 62.731C42.6689 62.4998 42.5778 62.2248 42.5778 61.9058V59.186H42.2115C42.1204 59.186 42.0716 59.1567 42.0651 59.0981C42.0618 59.0396 42.0716 59.0021 42.0944 58.9858C42.2669 58.8752 42.5045 58.6766 42.8073 58.3901C42.8398 58.3543 42.8837 58.3006 42.9391 58.229C42.9944 58.1574 43.0742 58.0597 43.1783 57.936C43.2858 57.8123 43.3671 57.7505 43.4225 57.7505C43.4778 57.7505 43.5055 57.7733 43.5055 57.8188C43.5055 57.8254 43.4502 58.0386 43.3395 58.4585C43.3395 58.5171 43.3655 58.548 43.4176 58.5513H44.6627C44.8059 58.5513 44.8776 58.7531 44.8776 59.1567C44.8776 59.1763 44.8645 59.186 44.8385 59.186H43.3688ZM49.0475 60.1187V60.7876H45.4196V60.1187H49.0475ZM49.8092 62.9409C49.7767 62.9344 49.7604 62.9116 49.7604 62.8726C49.7604 62.814 49.8369 62.7749 49.9899 62.7554C50.3414 62.7033 50.5172 62.5177 50.5172 62.1987V59.6157C50.5172 59.479 50.4423 59.3846 50.2926 59.3325C50.2275 59.3097 50.1575 59.2918 50.0826 59.2788C50.0078 59.2625 49.9476 59.2479 49.902 59.2349C49.8597 59.2218 49.832 59.2104 49.819 59.2007C49.8092 59.1877 49.8043 59.1632 49.8043 59.1274C49.8043 59.0884 49.8287 59.0558 49.8776 59.0298L51.1227 58.4438C51.1617 58.4243 51.1862 58.4146 51.1959 58.4146C51.2513 58.4146 51.2789 58.4536 51.2789 58.5317V62.1987C51.2789 62.5177 51.4547 62.7033 51.8063 62.7554C51.9593 62.7749 52.0358 62.8091 52.0358 62.8579C52.0358 62.9067 52.0195 62.9344 51.9869 62.9409H49.8092ZM50.8248 57.0425C50.6914 57.0425 50.5726 57.0002 50.4684 56.9155C50.3675 56.8309 50.317 56.7137 50.317 56.564C50.317 56.411 50.3658 56.2905 50.4635 56.2026C50.5612 56.1147 50.6767 56.0708 50.8102 56.0708C50.9469 56.0708 51.0608 56.1229 51.152 56.2271C51.2464 56.3312 51.2936 56.4435 51.2936 56.564C51.2936 56.6844 51.2496 56.7951 51.1617 56.896C51.0739 56.9937 50.9615 57.0425 50.8248 57.0425ZM54.4235 62.7554C54.5765 62.7749 54.653 62.814 54.653 62.8726C54.653 62.9116 54.6367 62.9344 54.6041 62.9409H52.4264C52.3938 62.9344 52.3776 62.9116 52.3776 62.8726C52.3776 62.814 52.4541 62.7749 52.6071 62.7554C52.9586 62.7033 53.1344 62.5177 53.1344 62.1987V56.1099C53.1344 55.9731 53.0595 55.8787 52.9098 55.8267C52.8447 55.8039 52.7747 55.786 52.6998 55.7729C52.625 55.7567 52.5647 55.742 52.5192 55.729C52.4768 55.716 52.4492 55.7046 52.4362 55.6948C52.4264 55.6818 52.4215 55.6574 52.4215 55.6216C52.4215 55.5825 52.4459 55.55 52.4948 55.5239L53.7399 54.938C53.7789 54.9185 53.8033 54.9087 53.8131 54.9087C53.8684 54.9087 53.8961 54.9478 53.8961 55.0259V62.1987C53.8961 62.5177 54.0719 62.7033 54.4235 62.7554ZM60.8737 62.1353C60.8737 62.2199 60.9127 62.2882 60.9908 62.3403C61.0722 62.3892 61.165 62.4136 61.2692 62.4136C61.3733 62.4136 61.4596 62.3875 61.528 62.3354C61.5996 62.2801 61.6484 62.2524 61.6744 62.2524C61.7005 62.2524 61.7135 62.2882 61.7135 62.3599C61.7135 62.4282 61.6809 62.4868 61.6158 62.5356C61.1276 62.8937 60.7972 63.0728 60.6246 63.0728C60.4163 63.0728 60.247 62.8563 60.1168 62.4233C60.1071 62.3908 60.0989 62.3761 60.0924 62.3794C59.6888 62.6821 59.4349 62.8644 59.3307 62.9263C59.0638 63.0793 58.7952 63.1037 58.525 62.9995C58.2581 62.8953 58.0644 62.7228 57.944 62.4819C57.8854 62.3582 57.8561 62.2264 57.8561 62.0864C57.8561 61.8097 57.9586 61.59 58.1637 61.4272C58.3688 61.2645 58.7594 61.1082 59.3356 60.9585C59.5309 60.9064 59.705 60.8397 59.858 60.7583C60.011 60.6769 60.0908 60.6248 60.0973 60.6021C60.1071 60.5793 60.1119 60.5581 60.1119 60.5386V59.6011C60.1119 59.2332 59.9687 58.9744 59.6823 58.8247C59.5878 58.7759 59.4739 58.7515 59.3405 58.7515C59.2102 58.7515 59.0768 58.8035 58.9401 58.9077C58.8066 59.0119 58.7399 59.16 58.7399 59.3521L58.7643 59.5425C58.7448 59.5815 58.6276 59.6466 58.4127 59.7378C58.1979 59.8289 58.0742 59.8778 58.0416 59.8843C57.9895 59.8843 57.9635 59.8224 57.9635 59.6987C57.9635 59.5718 58.0009 59.4318 58.0758 59.2788C58.1507 59.1258 58.2565 58.9858 58.3932 58.8589C58.7122 58.5627 59.0768 58.4146 59.4869 58.4146C59.8971 58.4146 60.2308 58.5285 60.4879 58.7563C60.7451 58.981 60.8737 59.2495 60.8737 59.562V62.1353ZM58.6227 61.9937C58.6227 62.1499 58.6829 62.2866 58.8033 62.4038C58.9238 62.5177 59.0605 62.5747 59.2135 62.5747C59.3698 62.5747 59.5586 62.5096 59.7799 62.3794C60.0013 62.2459 60.1119 62.1092 60.1119 61.9692V60.978C60.1119 60.9422 60.1038 60.9243 60.0875 60.9243C60.0712 60.9243 60.0599 60.9259 60.0533 60.9292L58.9205 61.4565C58.8033 61.5412 58.7236 61.6128 58.6813 61.6714C58.6422 61.73 58.6227 61.8374 58.6227 61.9937ZM60.068 57.731C60.055 57.744 60.0436 57.7505 60.0338 57.7505C60.024 57.7505 60.0127 57.744 59.9996 57.731L58.6862 56.6714C58.5071 56.5184 58.4176 56.38 58.4176 56.2563C58.4176 56.1326 58.4502 56.035 58.5153 55.9634C58.5836 55.8885 58.6748 55.8511 58.7887 55.8511C58.9026 55.8511 59.0182 55.9308 59.1354 56.0903L60.1754 57.5308C60.1884 57.5438 60.1949 57.5535 60.1949 57.5601C60.1949 57.5666 60.1884 57.5763 60.1754 57.5894L60.068 57.731ZM68.2076 62.5112C68.1914 62.4559 68.1702 62.438 68.1442 62.4575C68.1181 62.4738 68.0123 62.5291 67.8268 62.6235C67.2181 62.9263 66.7102 63.0776 66.3033 63.0776C65.8964 63.0776 65.6035 62.9474 65.4244 62.687C65.3593 62.5894 65.3268 62.4689 65.3268 62.3257V59.3472C65.317 59.2528 65.2747 59.1714 65.1998 59.103C65.0989 59.0184 64.9931 58.9728 64.8824 58.9663C64.775 58.9598 64.7213 58.9272 64.7213 58.8687C64.7213 58.8068 64.7474 58.7694 64.7994 58.7563L65.9176 58.4341C65.9567 58.4211 65.9941 58.4146 66.0299 58.4146C66.069 58.4146 66.0885 58.4422 66.0885 58.4976V61.7739C66.0885 62.0018 66.1894 62.1776 66.3912 62.3013C66.5931 62.425 66.8502 62.4868 67.1627 62.4868C67.4785 62.4868 67.7617 62.3908 68.0123 62.1987C68.0905 62.1369 68.1556 62.0685 68.2076 61.9937V59.3472C68.1979 59.2528 68.1556 59.1714 68.0807 59.103C67.9798 59.0184 67.874 58.9728 67.7633 58.9663C67.6559 58.9598 67.6022 58.9272 67.6022 58.8687C67.6022 58.8068 67.6282 58.7694 67.6803 58.7563L68.7985 58.4341C68.8375 58.4211 68.875 58.4146 68.9108 58.4146C68.9498 58.4146 68.9694 58.4471 68.9694 58.5122V61.979C68.9856 62.1222 69.0263 62.2248 69.0914 62.2866C69.1565 62.3485 69.2623 62.3794 69.4088 62.3794L69.692 62.3599C69.7115 62.3599 69.7213 62.3794 69.7213 62.4185C69.7213 62.4543 69.6969 62.4836 69.6481 62.5063L68.3492 63.0435C68.3102 63.063 68.276 63.0728 68.2467 63.0728C68.2207 63.0728 68.2076 63.0321 68.2076 62.9507V62.5112ZM73.9401 61.4028L73.9303 60.3726C73.9303 59.9526 73.8945 59.658 73.8229 59.4888C73.7513 59.3195 73.6601 59.1925 73.5494 59.1079C73.4388 59.02 73.289 58.9761 73.1002 58.9761C72.9147 58.9761 72.5192 59.1226 71.9137 59.4155C71.8323 59.4644 71.79 59.5099 71.7867 59.5522V62.1792C71.7867 62.508 71.9625 62.6968 72.3141 62.7456C72.4671 62.7684 72.5436 62.8058 72.5436 62.8579C72.5436 62.9067 72.5273 62.9344 72.4948 62.9409H70.317C70.2845 62.9344 70.2682 62.9116 70.2682 62.8726C70.2682 62.8107 70.3447 62.7684 70.4977 62.7456C70.8492 62.6968 71.025 62.508 71.025 62.1792V59.3765C71.025 59.2397 70.9502 59.1453 70.8004 59.0933C70.7353 59.0705 70.6653 59.0526 70.5905 59.0396C70.5156 59.0233 70.4554 59.0086 70.4098 58.9956C70.3675 58.9826 70.3398 58.9712 70.3268 58.9614C70.317 58.9484 70.3121 58.924 70.3121 58.8882C70.3121 58.8491 70.3365 58.8166 70.3854 58.7905L71.6305 58.2046C71.6696 58.1851 71.694 58.1753 71.7037 58.1753C71.7591 58.1753 71.7867 58.2144 71.7867 58.2925V59.0542C71.7965 59.0868 71.8095 59.103 71.8258 59.103C71.8453 59.103 71.9153 59.0737 72.0358 59.0151C72.3157 58.8752 72.5973 58.7401 72.8805 58.6099C73.1637 58.4797 73.3981 58.4146 73.5836 58.4146C74.3356 58.4146 74.7115 59.0998 74.7115 60.4702L74.6676 61.896V62.1792C74.6676 62.4331 74.7946 62.5991 75.0485 62.6772C75.1559 62.7131 75.2584 62.7391 75.3561 62.7554C75.457 62.7684 75.5221 62.7814 75.5514 62.7944C75.5839 62.8075 75.6002 62.8335 75.6002 62.8726C75.6002 62.9116 75.5839 62.9344 75.5514 62.9409H73.1979C73.1653 62.9344 73.149 62.9116 73.149 62.8726C73.149 62.8107 73.2255 62.7684 73.3785 62.7456C73.7268 62.6968 73.901 62.495 73.901 62.1401C73.927 61.9774 73.9401 61.7316 73.9401 61.4028ZM80.527 62.7554C80.68 62.7749 80.7565 62.814 80.7565 62.8726C80.7565 62.9116 80.7402 62.9344 80.7076 62.9409H78.5299C78.4974 62.9344 78.4811 62.9116 78.4811 62.8726C78.4811 62.814 78.5576 62.7749 78.7106 62.7554C79.0621 62.7033 79.2379 62.5177 79.2379 62.1987V56.1099C79.2379 55.9731 79.163 55.8787 79.0133 55.8267C78.9482 55.8039 78.8782 55.786 78.8033 55.7729C78.7285 55.7567 78.6683 55.742 78.6227 55.729C78.5804 55.716 78.5527 55.7046 78.5397 55.6948C78.5299 55.6818 78.525 55.6574 78.525 55.6216C78.525 55.5825 78.5494 55.55 78.5983 55.5239L79.8434 54.938C79.8824 54.9185 79.9069 54.9087 79.9166 54.9087C79.972 54.9087 79.9996 54.9478 79.9996 55.0259V62.1987C79.9996 62.5177 80.1754 62.7033 80.527 62.7554ZM84.2916 62.1353C84.2916 62.2199 84.3307 62.2882 84.4088 62.3403C84.4902 62.3892 84.583 62.4136 84.6871 62.4136C84.7913 62.4136 84.8776 62.3875 84.9459 62.3354C85.0175 62.2801 85.0664 62.2524 85.0924 62.2524C85.1184 62.2524 85.1315 62.2882 85.1315 62.3599C85.1315 62.4282 85.0989 62.4868 85.0338 62.5356C84.5455 62.8937 84.2151 63.0728 84.0426 63.0728C83.8343 63.0728 83.665 62.8563 83.5348 62.4233C83.525 62.3908 83.5169 62.3761 83.5104 62.3794C83.1067 62.6821 82.8528 62.8644 82.7487 62.9263C82.4817 63.0793 82.2132 63.1037 81.943 62.9995C81.6761 62.8953 81.4824 62.7228 81.3619 62.4819C81.3033 62.3582 81.274 62.2264 81.274 62.0864C81.274 61.8097 81.3766 61.59 81.5817 61.4272C81.7867 61.2645 82.1774 61.1082 82.7535 60.9585C82.9489 60.9064 83.123 60.8397 83.276 60.7583C83.429 60.6769 83.5087 60.6248 83.5153 60.6021C83.525 60.5793 83.5299 60.5581 83.5299 60.5386V59.6011C83.5299 59.2332 83.3867 58.9744 83.1002 58.8247C83.0058 58.7759 82.8919 58.7515 82.7584 58.7515C82.6282 58.7515 82.4948 58.8035 82.358 58.9077C82.2246 59.0119 82.1578 59.16 82.1578 59.3521L82.1823 59.5425C82.1627 59.5815 82.0455 59.6466 81.8307 59.7378C81.6158 59.8289 81.4921 59.8778 81.4596 59.8843C81.4075 59.8843 81.3815 59.8224 81.3815 59.6987C81.3815 59.5718 81.4189 59.4318 81.4938 59.2788C81.5686 59.1258 81.6744 58.9858 81.8112 58.8589C82.1302 58.5627 82.4948 58.4146 82.9049 58.4146C83.3151 58.4146 83.6487 58.5285 83.9059 58.7563C84.163 58.981 84.2916 59.2495 84.2916 59.562V62.1353ZM82.0406 61.9937C82.0406 62.1499 82.1009 62.2866 82.2213 62.4038C82.3418 62.5177 82.4785 62.5747 82.6315 62.5747C82.7877 62.5747 82.9765 62.5096 83.1979 62.3794C83.4192 62.2459 83.5299 62.1092 83.5299 61.9692V60.978C83.5299 60.9422 83.5218 60.9243 83.5055 60.9243C83.4892 60.9243 83.4778 60.9259 83.4713 60.9292L82.3385 61.4565C82.2213 61.5412 82.1416 61.6128 82.0992 61.6714C82.0602 61.73 82.0406 61.8374 82.0406 61.9937ZM89.277 62.4282C88.8278 62.8579 88.3232 63.0728 87.7633 63.0728C87.5615 63.0728 87.2864 63.0353 86.9381 62.9604C86.8828 62.9604 86.8518 62.98 86.8453 63.019C86.8421 63.0581 86.8388 63.0988 86.8356 63.1411V65.2261C86.8356 65.4702 86.9772 65.633 87.2604 65.7144C87.3841 65.7469 87.4996 65.7697 87.6071 65.7827C87.7145 65.799 87.7828 65.8136 87.8121 65.8267C87.8447 65.8397 87.861 65.8641 87.861 65.8999C87.861 65.939 87.8447 65.9618 87.8121 65.9683H85.3658C85.3333 65.9618 85.317 65.939 85.317 65.8999C85.317 65.8413 85.3935 65.8022 85.5465 65.7827C85.8981 65.7306 86.0739 65.5451 86.0739 65.2261V59.3716C86.0739 59.2349 85.999 59.1405 85.8492 59.0884C85.7841 59.0656 85.7142 59.0477 85.6393 59.0347C85.5644 59.0184 85.5042 59.0037 85.4586 58.9907C85.4163 58.9777 85.3886 58.9663 85.3756 58.9565C85.3658 58.9435 85.361 58.9191 85.361 58.8833C85.361 58.8442 85.3854 58.8117 85.4342 58.7856L86.6793 58.1899C86.7054 58.1769 86.7314 58.1704 86.7574 58.1704C86.8095 58.1704 86.8356 58.2095 86.8356 58.2876V58.9077C86.8356 58.9435 86.8535 58.9614 86.8893 58.9614C86.9283 58.9614 87.0195 58.9142 87.1627 58.8198C87.5761 58.5529 88.0058 58.4194 88.4518 58.4194C88.7643 58.4194 89.0507 58.5464 89.3112 58.8003C89.653 59.1323 89.8808 59.5946 89.9948 60.187C90.0273 60.3563 90.0436 60.5369 90.0436 60.729C90.0436 60.9178 90.0127 61.118 89.9508 61.3296C89.8271 61.7495 89.6025 62.1157 89.277 62.4282ZM87.8805 58.9272C87.4378 58.9272 87.0895 59.0542 86.8356 59.3081V62.0522C86.8356 62.215 86.8632 62.3208 86.9186 62.3696C87.0618 62.4933 87.2815 62.5894 87.5778 62.6577C88.1637 62.7912 88.6194 62.6512 88.9449 62.2378C89.1761 61.9416 89.2916 61.5835 89.2916 61.1636C89.2916 60.3465 89.1077 59.7345 88.7399 59.3276C88.5185 59.0802 88.2321 58.9468 87.8805 58.9272ZM90.9225 62.9409C90.8899 62.9344 90.8737 62.9116 90.8737 62.8726C90.8737 62.814 90.9502 62.7749 91.1031 62.7554C91.4547 62.7033 91.6305 62.5177 91.6305 62.1987V59.6157C91.6305 59.479 91.5556 59.3846 91.4059 59.3325C91.3408 59.3097 91.2708 59.2918 91.1959 59.2788C91.1211 59.2625 91.0608 59.2479 91.0153 59.2349C90.9729 59.2218 90.9453 59.2104 90.9323 59.2007C90.9225 59.1877 90.9176 59.1632 90.9176 59.1274C90.9176 59.0884 90.942 59.0558 90.9908 59.0298L92.236 58.4438C92.275 58.4243 92.2994 58.4146 92.3092 58.4146C92.3645 58.4146 92.3922 58.4536 92.3922 58.5317V62.1987C92.3922 62.5177 92.568 62.7033 92.9196 62.7554C93.0726 62.7749 93.149 62.8091 93.149 62.8579C93.149 62.9067 93.1328 62.9344 93.1002 62.9409H90.9225ZM91.9381 57.0425C91.8046 57.0425 91.6858 57.0002 91.5817 56.9155C91.4808 56.8309 91.4303 56.7137 91.4303 56.564C91.4303 56.411 91.4791 56.2905 91.5768 56.2026C91.6744 56.1147 91.79 56.0708 91.9235 56.0708C92.0602 56.0708 92.1741 56.1229 92.2653 56.2271C92.3597 56.3312 92.4069 56.4435 92.4069 56.564C92.4069 56.6844 92.3629 56.7951 92.275 56.896C92.1871 56.9937 92.0748 57.0425 91.9381 57.0425ZM97.319 61.4028L97.3092 60.3726C97.3092 59.9526 97.2734 59.658 97.2018 59.4888C97.1302 59.3195 97.039 59.1925 96.9283 59.1079C96.8177 59.02 96.6679 58.9761 96.4791 58.9761C96.2936 58.9761 95.8981 59.1226 95.2926 59.4155C95.2112 59.4644 95.1689 59.5099 95.1656 59.5522V62.1792C95.1656 62.508 95.3414 62.6968 95.693 62.7456C95.846 62.7684 95.9225 62.8058 95.9225 62.8579C95.9225 62.9067 95.9062 62.9344 95.8737 62.9409H93.6959C93.6634 62.9344 93.6471 62.9116 93.6471 62.8726C93.6471 62.8107 93.7236 62.7684 93.8766 62.7456C94.2281 62.6968 94.4039 62.508 94.4039 62.1792V59.3765C94.4039 59.2397 94.3291 59.1453 94.1793 59.0933C94.1142 59.0705 94.0442 59.0526 93.9694 59.0396C93.8945 59.0233 93.8343 59.0086 93.7887 58.9956C93.7464 58.9826 93.7187 58.9712 93.7057 58.9614C93.6959 58.9484 93.691 58.924 93.691 58.8882C93.691 58.8491 93.7155 58.8166 93.7643 58.7905L95.0094 58.2046C95.0485 58.1851 95.0729 58.1753 95.0826 58.1753C95.138 58.1753 95.1656 58.2144 95.1656 58.2925V59.0542C95.1754 59.0868 95.1884 59.103 95.2047 59.103C95.2242 59.103 95.2942 59.0737 95.4147 59.0151C95.6946 58.8752 95.9762 58.7401 96.2594 58.6099C96.5426 58.4797 96.777 58.4146 96.9625 58.4146C97.7145 58.4146 98.0905 59.0998 98.0905 60.4702L98.0465 61.896V62.1792C98.0465 62.4331 98.1735 62.5991 98.4274 62.6772C98.5348 62.7131 98.6373 62.7391 98.735 62.7554C98.8359 62.7684 98.901 62.7814 98.9303 62.7944C98.9628 62.8075 98.9791 62.8335 98.9791 62.8726C98.9791 62.9116 98.9628 62.9344 98.9303 62.9409H96.5768C96.5442 62.9344 96.528 62.9116 96.528 62.8726C96.528 62.8107 96.6045 62.7684 96.7574 62.7456C97.1058 62.6968 97.2799 62.495 97.2799 62.1401C97.3059 61.9774 97.319 61.7316 97.319 61.4028ZM103.178 61.1294C103.178 61.1717 103.144 61.1929 103.076 61.1929C103.007 61.1929 102.903 61.0382 102.763 60.729C102.627 60.4198 102.557 60.1919 102.553 60.0454C102.55 59.8989 102.566 59.7769 102.602 59.6792C102.641 59.5783 102.693 59.4937 102.758 59.4253C102.824 59.3537 102.9 59.2935 102.988 59.2446C103.076 59.1958 103.169 59.1519 103.266 59.1128C103.364 59.0737 103.465 59.0379 103.569 59.0054C103.676 58.9696 103.781 58.9305 103.881 58.8882C104.103 58.797 104.298 58.6473 104.467 58.439C104.637 58.2274 104.721 58.0125 104.721 57.7944C104.721 57.3973 104.572 57.1369 104.272 57.0132C103.973 56.8862 103.458 56.8228 102.729 56.8228C102.501 56.8097 102.342 56.743 102.251 56.6226C102.218 56.577 102.202 56.52 102.202 56.4517C102.202 56.1717 102.477 56.0317 103.027 56.0317C103.58 56.0317 104.039 56.2108 104.404 56.5688C104.769 56.9269 104.951 57.3859 104.951 57.9458C104.951 58.5024 104.716 58.9777 104.248 59.3716C104.026 59.5571 103.821 59.6808 103.632 59.7427C103.444 59.8013 103.304 59.855 103.213 59.9038C102.998 60.0145 102.89 60.1675 102.89 60.3628C102.89 60.4637 102.931 60.5939 103.012 60.7534C103.097 60.9129 103.152 61.0382 103.178 61.1294ZM102.509 62.5015C102.509 62.3485 102.565 62.2166 102.675 62.106C102.786 61.9953 102.918 61.9399 103.071 61.9399C103.221 61.9399 103.351 61.9953 103.462 62.106C103.572 62.2166 103.628 62.3485 103.628 62.5015C103.628 62.6545 103.572 62.7879 103.462 62.9019C103.354 63.0158 103.224 63.0728 103.071 63.0728C102.915 63.0728 102.781 63.0158 102.671 62.9019C102.563 62.7879 102.509 62.6545 102.509 62.5015Z" fill="#EFB85F"/>
<path d="M17.5002 10L18.696 11.9748L21 13L18.696 14.0249L17.5002 16L16.304 14.0249L14 13L16.304 11.9748L17.5002 10Z" fill="#EFB85F"/>
<path d="M17.5002 86L18.696 87.9748L21 89L18.696 90.0249L17.5002 92L16.304 90.0249L14 89L16.304 87.9748L17.5002 86Z" fill="#EFB85F"/>
<path d="M124.5 84L125.696 85.9748L128 87L125.696 88.0249L124.5 90L123.304 88.0249L121 87L123.304 85.9748L124.5 84Z" fill="#EFB85F"/>
<path d="M80.5002 90L81.696 91.9748L84 93L81.696 94.0249L80.5002 96L79.304 94.0249L77 93L79.304 91.9748L80.5002 90Z" fill="#EFB85F"/>
<path d="M120.5 7L121.696 8.97475L124 10L121.696 11.0249L120.5 13L119.304 11.0249L117 10L119.304 8.97475L120.5 7Z" fill="#EFB85F"/>
<path d="M95.125 16.6259C95.1509 16.3615 95.1942 15.7335 95.2288 15.2377C95.2634 14.6647 95.324 14.3011 95.3932 14.2681C95.4538 14.235 95.7307 14.4113 95.999 14.6537C96.2759 14.9071 96.5182 15.0834 96.5441 15.0504C96.5615 15.0283 96.397 14.6757 96.1807 14.2791C95.9038 13.7943 95.8086 13.5519 95.8865 13.5189C95.9471 13.4968 96.3884 13.4197 96.8643 13.3426C98.3873 13.1222 98.3787 13.001 96.8384 12.7917C96.3019 12.7145 95.8519 12.6154 95.8346 12.5823C95.8086 12.5382 95.973 12.2187 96.1807 11.8661C96.3884 11.5025 96.5441 11.183 96.5182 11.15C96.4922 11.1279 96.2326 11.3152 95.9471 11.5687C95.6528 11.8331 95.3932 11.9984 95.3586 11.9543C95.3154 11.8992 95.2461 11.2381 95.1856 10.4779C95.0298 8.49462 94.9606 8.50564 94.7962 10.5219C94.7356 11.2822 94.6664 11.9433 94.6317 11.9763C94.6058 12.0094 94.3462 11.8331 94.052 11.5797C93.7664 11.3152 93.5155 11.1279 93.4895 11.161C93.4722 11.183 93.602 11.4805 93.7924 11.8111C93.9827 12.1306 94.1385 12.4611 94.1385 12.5272C94.1385 12.6044 93.7664 12.7035 93.1607 12.7917C91.6117 13.001 91.6117 13.1222 93.1693 13.3536C93.7577 13.4417 94.1385 13.5519 94.1385 13.618C94.1385 13.6841 93.9827 14.0147 93.7924 14.3342C93.3857 15.0283 93.351 15.2046 93.6799 14.9292C93.8183 14.83 94.0693 14.6096 94.251 14.4554C94.6664 14.1138 94.701 14.1689 94.7789 15.3589C94.8913 17.1107 95.0211 17.5735 95.125 16.6259Z" fill="#EFB85F"/>
<path d="M39.125 89.6259C39.1509 89.3615 39.1942 88.7335 39.2288 88.2377C39.2634 87.6647 39.324 87.3011 39.3932 87.2681C39.4538 87.235 39.7307 87.4113 39.999 87.6537C40.2759 87.9071 40.5182 88.0834 40.5441 88.0504C40.5615 88.0283 40.397 87.6757 40.1807 87.2791C39.9038 86.7943 39.8086 86.5519 39.8865 86.5189C39.9471 86.4968 40.3884 86.4197 40.8643 86.3426C42.3873 86.1222 42.3787 86.001 40.8384 85.7917C40.3019 85.7145 39.8519 85.6154 39.8346 85.5823C39.8086 85.5382 39.973 85.2187 40.1807 84.8661C40.3884 84.5025 40.5441 84.183 40.5182 84.15C40.4922 84.1279 40.2326 84.3152 39.9471 84.5687C39.6528 84.8331 39.3932 84.9984 39.3586 84.9543C39.3154 84.8992 39.2461 84.2381 39.1856 83.4779C39.0298 81.4946 38.9606 81.5056 38.7962 83.5219C38.7356 84.2822 38.6664 84.9433 38.6317 84.9763C38.6058 85.0094 38.3462 84.8331 38.052 84.5797C37.7664 84.3152 37.5155 84.1279 37.4895 84.161C37.4722 84.183 37.602 84.4805 37.7924 84.8111C37.9827 85.1306 38.1385 85.4611 38.1385 85.5272C38.1385 85.6044 37.7664 85.7035 37.1607 85.7917C35.6117 86.001 35.6117 86.1222 37.1693 86.3536C37.7577 86.4417 38.1385 86.5519 38.1385 86.618C38.1385 86.6841 37.9827 87.0147 37.7924 87.3342C37.3857 88.0283 37.351 88.2046 37.6799 87.9292C37.8183 87.83 38.0693 87.6096 38.251 87.4554C38.6664 87.1138 38.701 87.1689 38.7789 88.3589C38.8913 90.1107 39.0211 90.5735 39.125 89.6259Z" fill="#EFB85F"/>
<path d="M110.125 99.6259C110.151 99.3615 110.194 98.7335 110.229 98.2377C110.263 97.6647 110.324 97.3011 110.393 97.2681C110.454 97.235 110.731 97.4113 110.999 97.6537C111.276 97.9071 111.518 98.0834 111.544 98.0504C111.561 98.0283 111.397 97.6757 111.181 97.2791C110.904 96.7943 110.809 96.5519 110.886 96.5189C110.947 96.4968 111.388 96.4197 111.864 96.3426C113.387 96.1222 113.379 96.001 111.838 95.7917C111.302 95.7145 110.852 95.6154 110.835 95.5823C110.809 95.5382 110.973 95.2187 111.181 94.8661C111.388 94.5025 111.544 94.183 111.518 94.15C111.492 94.1279 111.233 94.3152 110.947 94.5687C110.653 94.8331 110.393 94.9984 110.359 94.9543C110.315 94.8992 110.246 94.2381 110.186 93.4779C110.03 91.4946 109.961 91.5056 109.796 93.5219C109.736 94.2822 109.666 94.9433 109.632 94.9763C109.606 95.0094 109.346 94.8331 109.052 94.5797C108.766 94.3152 108.515 94.1279 108.489 94.161C108.472 94.183 108.602 94.4805 108.792 94.8111C108.983 95.1306 109.138 95.4611 109.138 95.5272C109.138 95.6044 108.766 95.7035 108.161 95.7917C106.612 96.001 106.612 96.1222 108.169 96.3536C108.758 96.4417 109.138 96.5519 109.138 96.618C109.138 96.6841 108.983 97.0147 108.792 97.3342C108.386 98.0283 108.351 98.2046 108.68 97.9292C108.818 97.83 109.069 97.6096 109.251 97.4554C109.666 97.1138 109.701 97.1689 109.779 98.3589C109.891 100.111 110.021 100.573 110.125 99.6259Z" fill="#EFB85F"/>
<path d="M53.125 12.6259C53.1509 12.3615 53.1942 11.7335 53.2288 11.2377C53.2634 10.6647 53.324 10.3011 53.3932 10.2681C53.4538 10.235 53.7307 10.4113 53.999 10.6537C54.2759 10.9071 54.5182 11.0834 54.5441 11.0504C54.5615 11.0283 54.397 10.6757 54.1807 10.2791C53.9038 9.7943 53.8086 9.55191 53.8865 9.51885C53.9471 9.49682 54.3884 9.41969 54.8643 9.34256C56.3873 9.1222 56.3787 9.001 54.8384 8.79166C54.3019 8.71453 53.8519 8.61537 53.8346 8.58232C53.8086 8.53825 53.973 8.21872 54.1807 7.86614C54.3884 7.50255 54.5441 7.18302 54.5182 7.14997C54.4922 7.12793 54.2326 7.31524 53.9471 7.56866C53.6528 7.83309 53.3932 7.99836 53.3586 7.95429C53.3154 7.8992 53.2461 7.23811 53.1856 6.47787C53.0298 4.49462 52.9606 4.50564 52.7962 6.52194C52.7356 7.28219 52.6664 7.94327 52.6317 7.97632C52.6058 8.00938 52.3462 7.83309 52.052 7.57967C51.7664 7.31524 51.5155 7.12793 51.4895 7.16099C51.4722 7.18302 51.602 7.48051 51.7924 7.81105C51.9827 8.13058 52.1385 8.46112 52.1385 8.52723C52.1385 8.60435 51.7664 8.70352 51.1607 8.79166C49.6117 9.001 49.6117 9.1222 51.1693 9.35358C51.7577 9.44173 52.1385 9.55191 52.1385 9.61802C52.1385 9.68412 51.9827 10.0147 51.7924 10.3342C51.3857 11.0283 51.351 11.2046 51.6799 10.9292C51.8183 10.83 52.0693 10.6096 52.251 10.4554C52.6664 10.1138 52.701 10.1689 52.7789 11.3589C52.8913 13.1107 53.0211 13.5735 53.125 12.6259Z" fill="#EFB85F"/>
<circle cx="13" cy="30" r="1" fill="#EFB85F"/>
<circle cx="26" cy="81" r="1" fill="#EFB85F"/>
<circle cx="57" cy="96" r="1" fill="#EFB85F"/>
<circle cx="111" cy="84" r="1" fill="#EFB85F"/>
<circle cx="139" cy="16" r="1" fill="#EFB85F"/>
<circle cx="143" cy="55" r="1" fill="#EFB85F"/>
<circle cx="139" cy="93" r="1" fill="#EFB85F"/>
<circle cx="36" cy="10" r="1" fill="#EFB85F"/>
<circle cx="75" cy="6" r="1" fill="#EFB85F"/>
<path d="M30.1536 96.762L33.0001 96.6487L30.1536 96.5354L31.0464 95.3761L30.0932 96.4619L30 93L29.9069 96.4619L28.9537 95.3761L29.8465 96.5354L27 96.6487L29.8465 96.762L28.9537 97.9212L29.9069 96.8354L30 100.297L30.0932 96.8354L31.0464 97.9212L30.1536 96.762Z" fill="#EFB85F"/>
<path d="M11.1536 76.762L14.0001 76.6487L11.1536 76.5354L12.0464 75.3761L11.0932 76.4619L11 73L10.9069 76.4619L9.95375 75.3761L10.8465 76.5354L8 76.6487L10.8465 76.762L9.95375 77.9212L10.9069 76.8354L11 80.2973L11.0932 76.8354L12.0464 77.9212L11.1536 76.762Z" fill="#EFB85F"/>
<path d="M135.154 32.762L138 32.6487L135.154 32.5354L136.046 31.3761L135.093 32.4619L135 29L134.907 32.4619L133.954 31.3761L134.847 32.5354L132 32.6487L134.847 32.762L133.954 33.9212L134.907 32.8354L135 36.2973L135.093 32.8354L136.046 33.9212L135.154 32.762Z" fill="#EFB85F"/>
<path d="M68.1536 11.762L71.0001 11.6487L68.1536 11.5354L69.0464 10.3761L68.0932 11.4619L68 8L67.9069 11.4619L66.9537 10.3761L67.8465 11.5354L65 11.6487L67.8465 11.762L66.9537 12.9212L67.9069 11.8354L68 15.2973L68.0932 11.8354L69.0464 12.9212L68.1536 11.762Z" fill="#EFB85F"/>
<path d="M137.154 76.762L140 76.6487L137.154 76.5354L138.046 75.3761L137.093 76.4619L137 73L136.907 76.4619L135.954 75.3761L136.847 76.5354L134 76.6487L136.847 76.762L135.954 77.9212L136.907 76.8354L137 80.2973L137.093 76.8354L138.046 77.9212L137.154 76.762Z" fill="#EFB85F"/>
<path d="M129.154 95.762L132 95.6487L129.154 95.5354L130.046 94.3761L129.093 95.4619L129 92L128.907 95.4619L127.954 94.3761L128.847 95.5354L126 95.6487L128.847 95.762L127.954 96.9212L128.907 95.8354L129 99.2973L129.093 95.8354L130.046 96.9212L129.154 95.762Z" fill="#EFB85F"/>
<path d="M8.15357 18.762L11.0001 18.6487L8.15357 18.5354L9.04635 17.3761L8.09316 18.4619L8.00005 15L7.90694 18.4619L6.95375 17.3761L7.84653 18.5354L5 18.6487L7.84653 18.762L6.95375 19.9212L7.90694 18.8354L8.00005 22.2973L8.09316 18.8354L9.04635 19.9212L8.15357 18.762Z" fill="#EFB85F"/>
</svg>
