<svg width="148" height="105" viewBox="0 0 148 105" fill="none" xmlns="http://www.w3.org/2000/svg">
<rect width="147.402" height="104.882" rx="10" fill="black"/>
<path d="M10.0109 48.9414C9.98743 48.9414 9.97571 48.9297 9.97571 48.9062V48.8008C9.97571 48.7773 9.98743 48.7656 10.0109 48.7656H10.1163C10.3683 48.7656 10.588 48.7129 10.7755 48.6074C10.8517 48.5635 10.9147 48.4961 10.9645 48.4053C11.0143 48.3115 11.0392 48.2075 11.0392 48.0933V43.4438C11.0392 43.2622 10.922 43.123 10.6876 43.0264C10.5236 42.9561 10.3492 42.9209 10.1647 42.9209H10.068C10.0446 42.9209 10.0328 42.9092 10.0328 42.8857V42.7803C10.0328 42.7568 10.0446 42.7451 10.068 42.7451H13.0431C13.0665 42.7451 13.0782 42.7568 13.0782 42.7803V42.8857C13.0782 42.9092 13.0665 42.9209 13.0431 42.9209H12.8541C12.5524 42.9209 12.2858 42.9634 12.0543 43.0483C11.9869 43.0718 11.943 43.1113 11.9225 43.167C11.9049 43.2197 11.8961 43.312 11.8961 43.4438V48.3174C11.902 48.3672 11.9283 48.4141 11.9752 48.458C12.0221 48.502 12.0748 48.5239 12.1334 48.5239H13.8693C14.13 48.5239 14.3864 48.3701 14.6383 48.0625C14.7057 47.9805 14.7892 47.8721 14.8888 47.7373C14.9884 47.5996 15.0499 47.522 15.0734 47.5044C15.1671 47.4341 15.214 47.4355 15.214 47.5088C15.214 47.5264 15.2096 47.5439 15.2008 47.5615L14.5372 48.8623C14.5109 48.915 14.4801 48.9414 14.4449 48.9414H10.0109ZM16.2643 46.6255C16.2145 46.6255 16.1896 46.7324 16.1896 46.9463C16.1896 47.4004 16.3243 47.7812 16.5939 48.0889C16.8634 48.3965 17.1974 48.5503 17.5958 48.5503C17.9972 48.5503 18.3824 48.3774 18.7516 48.0317C18.7574 48.0259 18.7648 48.0229 18.7736 48.0229H18.7955C18.8131 48.0229 18.8292 48.0376 18.8439 48.0669C18.8615 48.0933 18.8776 48.1108 18.8922 48.1196C18.5524 48.5327 18.1525 48.8184 17.6925 48.9766C17.5343 49.0322 17.3556 49.0601 17.1564 49.0601C16.9572 49.0601 16.755 49.0059 16.5499 48.8975C16.3448 48.7861 16.1691 48.6411 16.0226 48.4624C15.712 48.0903 15.5568 47.6274 15.5568 47.0737C15.5568 46.5171 15.7252 46.0103 16.0621 45.5532C16.402 45.0962 16.8678 44.8677 17.4596 44.8677C17.8844 44.8677 18.2316 45.0581 18.5011 45.439C18.7706 45.8169 18.9054 46.1494 18.9054 46.4365C18.9054 46.5625 18.8746 46.6255 18.8131 46.6255H16.2643ZM16.3126 46.2036C16.3126 46.2593 16.339 46.2871 16.3917 46.2871H18.0485C18.1246 46.2871 18.1627 46.2417 18.1627 46.1509C18.1627 45.9399 18.0675 45.7246 17.8771 45.5049C17.6896 45.2822 17.483 45.1709 17.2574 45.1709C17.0377 45.1709 16.837 45.2705 16.6554 45.4697C16.4767 45.6689 16.3624 45.896 16.3126 46.1509V46.2036ZM24.7325 45.7905C24.6974 45.7847 24.6461 45.7656 24.5787 45.7334C24.3356 45.6221 24.1451 45.5664 24.0074 45.5664C23.8698 45.5664 23.7247 45.6528 23.5724 45.8257C23.423 45.9956 23.3483 46.1494 23.3483 46.2871V48.2734C23.3483 48.4932 23.4757 48.6396 23.7306 48.7129C23.8419 48.7422 23.9459 48.7642 24.0426 48.7788C24.1393 48.7905 24.2008 48.8022 24.2272 48.814C24.2565 48.8257 24.2711 48.8491 24.2711 48.8843C24.2711 48.9165 24.2565 48.9355 24.2272 48.9414H22.0255C21.9962 48.9355 21.9816 48.915 21.9816 48.8799C21.9816 48.8271 22.0504 48.792 22.1881 48.7744C22.5045 48.7275 22.6627 48.5605 22.6627 48.2734V45.9487C22.6627 45.8257 22.5953 45.7407 22.4606 45.6938C22.402 45.6733 22.339 45.6572 22.2716 45.6455C22.2042 45.6309 22.15 45.6177 22.109 45.606C22.0709 45.5942 22.046 45.584 22.0343 45.5752C22.0255 45.5635 22.0211 45.5415 22.0211 45.5093C22.0211 45.4741 22.0431 45.4448 22.087 45.4214L23.2076 44.894C23.2428 44.8765 23.2648 44.8677 23.2736 44.8677C23.3234 44.8677 23.3483 44.9028 23.3483 44.9731V45.6851C23.3483 45.7202 23.3571 45.7378 23.3746 45.7378C23.3981 45.7378 23.4581 45.6689 23.5548 45.5312C23.8331 45.1416 24.0631 44.9468 24.2448 44.9468C24.3473 44.9468 24.504 44.9878 24.715 45.0698C24.9288 45.1519 25.0358 45.2207 25.0358 45.2764C25.0358 45.3438 25.0021 45.4463 24.9347 45.584C24.8673 45.7217 24.7999 45.7905 24.7325 45.7905ZM26.0553 46.6255C26.0055 46.6255 25.9806 46.7324 25.9806 46.9463C25.9806 47.4004 26.1154 47.7812 26.3849 48.0889C26.6544 48.3965 26.9884 48.5503 27.3868 48.5503C27.7882 48.5503 28.1735 48.3774 28.5426 48.0317C28.5485 48.0259 28.5558 48.0229 28.5646 48.0229H28.5865C28.6041 48.0229 28.6202 48.0376 28.6349 48.0669C28.6525 48.0933 28.6686 48.1108 28.6832 48.1196C28.3434 48.5327 27.9435 48.8184 27.4835 48.9766C27.3253 49.0322 27.1466 49.0601 26.9474 49.0601C26.7482 49.0601 26.546 49.0059 26.3409 48.8975C26.1359 48.7861 25.9601 48.6411 25.8136 48.4624C25.5031 48.0903 25.3478 47.6274 25.3478 47.0737C25.3478 46.5171 25.5162 46.0103 25.8531 45.5532C26.193 45.0962 26.6588 44.8677 27.2506 44.8677C27.6754 44.8677 28.0226 45.0581 28.2921 45.439C28.5616 45.8169 28.6964 46.1494 28.6964 46.4365C28.6964 46.5625 28.6656 46.6255 28.6041 46.6255H26.0553ZM26.1036 46.2036C26.1036 46.2593 26.13 46.2871 26.1827 46.2871H27.8395C27.9156 46.2871 27.9537 46.2417 27.9537 46.1509C27.9537 45.9399 27.8585 45.7246 27.6681 45.5049C27.4806 45.2822 27.274 45.1709 27.0485 45.1709C26.8287 45.1709 26.6281 45.2705 26.4464 45.4697C26.2677 45.6689 26.1534 45.896 26.1036 46.1509V46.2036ZM32.7262 45.2896C32.7262 45.2896 33.1188 45.272 33.9039 45.2368C33.9713 45.2368 34.0153 45.2441 34.0358 45.2588C34.0563 45.2734 34.0782 45.3247 34.1017 45.4126C34.1251 45.4976 34.1368 45.5781 34.1368 45.6543C34.1368 45.7305 34.1295 45.7744 34.1149 45.7861C34.1002 45.7979 34.0709 45.8037 34.027 45.8037H33.0514C33.069 45.8359 33.088 45.8696 33.1085 45.9048C33.129 45.9399 33.1554 45.9985 33.1876 46.0806C33.2198 46.1626 33.236 46.29 33.236 46.4629C33.236 46.6328 33.1935 46.8115 33.1085 46.999C33.0265 47.1836 32.9049 47.3477 32.7438 47.4912C32.3864 47.8135 31.9235 47.9746 31.3551 47.9746C31.2057 47.9746 31.0416 47.9468 30.8629 47.8911C30.819 47.938 30.7604 47.9819 30.6871 48.0229C30.6139 48.061 30.5421 48.1006 30.4718 48.1416C30.296 48.2412 30.2081 48.3408 30.2081 48.4404C30.2081 48.6895 30.6212 48.8169 31.4474 48.8228C32.2736 48.8286 32.8156 48.8564 33.0734 48.9062C33.3341 48.9531 33.5363 49.0483 33.6798 49.1919C33.9054 49.4175 34.0182 49.6753 34.0182 49.9653C34.0182 50.2144 33.9113 50.4707 33.6974 50.7344C33.3253 51.2002 32.757 51.5107 31.9923 51.666C31.7198 51.7217 31.4313 51.7495 31.1266 51.7495C30.5729 51.7495 30.1525 51.6484 29.8654 51.4463C29.5782 51.2471 29.4347 51.0054 29.4347 50.7212C29.4347 50.5659 29.4713 50.437 29.5446 50.3345C29.6178 50.2349 29.7101 50.1396 29.8214 50.0488C29.9357 49.9609 30.0602 49.8672 30.1949 49.7676C30.3297 49.6709 30.4586 49.5464 30.5817 49.394C30.3004 49.3706 30.0587 49.2812 29.8566 49.126C29.6573 48.9707 29.5577 48.8184 29.5577 48.6689C29.5577 48.5195 29.5973 48.4097 29.6764 48.3394C29.7555 48.2661 29.8522 48.2046 29.9664 48.1548C30.0807 48.1021 30.2008 48.0537 30.3268 48.0098C30.4528 47.9658 30.5626 47.9087 30.6564 47.8384C30.3282 47.7095 30.0748 47.5322 29.8961 47.3066C29.7174 47.0781 29.6281 46.8291 29.6281 46.5596C29.6281 46.0586 29.8097 45.6499 30.173 45.3335C30.5392 45.0171 30.9801 44.8589 31.4957 44.8589C32.0114 44.8589 32.4215 45.0024 32.7262 45.2896ZM30.3356 49.873C30.2682 49.9404 30.2125 50.0122 30.1686 50.0884C30.1246 50.1646 30.1027 50.2598 30.1027 50.374C30.1027 50.4912 30.1437 50.6128 30.2257 50.7388C30.3107 50.8677 30.4249 50.9834 30.5685 51.0859C30.8849 51.3203 31.2657 51.4375 31.7111 51.4375C32.1564 51.4375 32.5592 51.3071 32.9196 51.0464C33.2828 50.7886 33.4645 50.5044 33.4645 50.1938C33.4645 49.8862 33.3151 49.6797 33.0162 49.5742C32.8756 49.5273 32.5138 49.498 31.9308 49.4863C31.3478 49.4746 30.9698 49.4585 30.797 49.438C30.7208 49.5259 30.6417 49.6035 30.5597 49.6709C30.4806 49.7383 30.4059 49.8057 30.3356 49.873ZM32.5153 46.4585C32.5153 46.0454 32.4113 45.71 32.2032 45.4521C31.9982 45.1914 31.7257 45.061 31.3859 45.061C30.9464 45.061 30.6359 45.2676 30.4542 45.6807C30.3839 45.8389 30.3488 46.0205 30.3488 46.2256C30.3488 46.6445 30.4352 46.9932 30.608 47.2715C30.819 47.6055 31.0958 47.7725 31.4386 47.7725C31.7814 47.7725 32.0465 47.6567 32.234 47.4253C32.4215 47.1938 32.5153 46.8716 32.5153 46.4585ZM34.4796 48.9414C34.4503 48.9355 34.4357 48.915 34.4357 48.8799C34.4357 48.8271 34.5045 48.792 34.6422 48.7744C34.9586 48.7275 35.1168 48.5605 35.1168 48.2734V45.9487C35.1168 45.8257 35.0494 45.7407 34.9147 45.6938C34.8561 45.6733 34.7931 45.6572 34.7257 45.6455C34.6583 45.6309 34.6041 45.6177 34.5631 45.606C34.525 45.5942 34.5001 45.584 34.4884 45.5752C34.4796 45.5635 34.4752 45.5415 34.4752 45.5093C34.4752 45.4741 34.4972 45.4448 34.5411 45.4214L35.6617 44.894C35.6969 44.8765 35.7189 44.8677 35.7277 44.8677C35.7775 44.8677 35.8024 44.9028 35.8024 44.9731V48.2734C35.8024 48.5605 35.9606 48.7275 36.277 48.7744C36.4147 48.792 36.4835 48.8228 36.4835 48.8667C36.4835 48.9106 36.4689 48.9355 36.4396 48.9414H34.4796ZM35.3937 43.6328C35.2736 43.6328 35.1666 43.5947 35.0729 43.5186C34.9821 43.4424 34.9366 43.3369 34.9366 43.2021C34.9366 43.0645 34.9806 42.9561 35.0685 42.877C35.1564 42.7979 35.2604 42.7583 35.3805 42.7583C35.5035 42.7583 35.6061 42.8052 35.6881 42.8989C35.7731 42.9927 35.8156 43.0938 35.8156 43.2021C35.8156 43.3105 35.776 43.4102 35.6969 43.501C35.6178 43.5889 35.5167 43.6328 35.3937 43.6328ZM39.1422 45.9355C39.1422 46 39.1173 46.0322 39.0675 46.0322C39.0206 46.0322 38.984 45.9971 38.9576 45.9268C38.8873 45.7334 38.7819 45.562 38.6412 45.4126C38.5035 45.2632 38.3322 45.1885 38.1271 45.1885C37.8575 45.1885 37.6759 45.3232 37.5822 45.5928C37.5529 45.6836 37.5382 45.7773 37.5382 45.874C37.5382 45.9707 37.5997 46.0791 37.7228 46.1992C37.8458 46.3164 38.048 46.457 38.3292 46.6211C38.6105 46.7852 38.8156 46.9243 38.9445 47.0386C39.2374 47.2993 39.3839 47.6011 39.3839 47.9438C39.3839 48.2866 39.2579 48.5591 39.006 48.7612C38.754 48.9604 38.4611 49.0601 38.1271 49.0601C37.9484 49.0601 37.7858 49.0352 37.6393 48.9854C37.4957 48.9385 37.4122 48.915 37.3888 48.915C37.3683 48.915 37.3331 48.9385 37.2833 48.9854C37.2365 49.0352 37.1984 49.0601 37.1691 49.0601H37.0944C37.0768 49.0601 37.0548 48.9019 37.0284 48.5854C37.0021 48.269 36.9889 48.0815 36.9889 48.0229C36.9889 47.9644 36.9933 47.9321 37.0021 47.9263C37.0138 47.9204 37.0314 47.9175 37.0548 47.9175C37.0782 47.9175 37.0973 47.9248 37.1119 47.9395C37.1295 47.9541 37.1442 47.9731 37.1559 47.9966C37.1676 48.0171 37.1764 48.0391 37.1823 48.0625C37.191 48.0859 37.2101 48.1299 37.2394 48.1943C37.4386 48.6191 37.7462 48.8315 38.1622 48.8315C38.3468 48.8315 38.4948 48.7642 38.6061 48.6294C38.7174 48.4917 38.7731 48.3394 38.7731 48.1724C38.7731 48.0054 38.7291 47.8647 38.6412 47.7505C38.5533 47.6362 38.4435 47.5322 38.3116 47.4385C38.1827 47.3447 38.0421 47.2539 37.8898 47.166C37.298 46.8203 37.0021 46.438 37.0021 46.019C37.0021 45.7056 37.1368 45.436 37.4064 45.2104C37.6759 44.9819 37.9528 44.8677 38.2369 44.8677C38.5211 44.8677 38.7306 44.8984 38.8654 44.96C39.0031 45.0215 39.0836 45.0742 39.1071 45.1182C39.1305 45.1592 39.1422 45.2969 39.1422 45.5312V45.9355ZM41.0934 45.562C41.0758 45.562 41.067 45.5752 41.067 45.6016V48.0273C41.067 48.2031 41.1051 48.3408 41.1813 48.4404C41.2604 48.54 41.36 48.5898 41.4801 48.5898C41.6002 48.5898 41.7042 48.5708 41.7921 48.5327C41.8829 48.4917 41.9606 48.4478 42.025 48.4009C42.0924 48.354 42.1525 48.3115 42.2052 48.2734C42.2579 48.2324 42.3048 48.2119 42.3458 48.2119C42.3868 48.2119 42.4073 48.2222 42.4073 48.2427C42.4073 48.313 42.4 48.3584 42.3854 48.3789C42.0338 48.833 41.694 49.0601 41.3658 49.0601C41.0406 49.0601 40.7946 48.9575 40.6276 48.7524C40.4635 48.5444 40.3815 48.2969 40.3815 48.0098V45.562H40.0519C39.9698 45.562 39.9259 45.5356 39.92 45.4829C39.9171 45.4302 39.9259 45.3965 39.9464 45.3818C40.1017 45.2822 40.3156 45.1035 40.588 44.8457C40.6173 44.8135 40.6569 44.7651 40.7067 44.7007C40.7565 44.6362 40.8282 44.5483 40.922 44.437C41.0187 44.3257 41.0919 44.27 41.1417 44.27C41.1915 44.27 41.2164 44.2905 41.2164 44.3315C41.2164 44.3374 41.1666 44.5293 41.067 44.9072C41.067 44.96 41.0905 44.9878 41.1373 44.9907H42.2579C42.3868 44.9907 42.4513 45.1724 42.4513 45.5356C42.4513 45.5532 42.4396 45.562 42.4161 45.562H41.0934ZM45.545 45.7905C45.5099 45.7847 45.4586 45.7656 45.3912 45.7334C45.1481 45.6221 44.9576 45.5664 44.8199 45.5664C44.6823 45.5664 44.5372 45.6528 44.3849 45.8257C44.2355 45.9956 44.1608 46.1494 44.1608 46.2871V48.2734C44.1608 48.4932 44.2882 48.6396 44.5431 48.7129C44.6544 48.7422 44.7584 48.7642 44.8551 48.7788C44.9518 48.7905 45.0133 48.8022 45.0397 48.814C45.069 48.8257 45.0836 48.8491 45.0836 48.8843C45.0836 48.9165 45.069 48.9355 45.0397 48.9414H42.838C42.8087 48.9355 42.7941 48.915 42.7941 48.8799C42.7941 48.8271 42.8629 48.792 43.0006 48.7744C43.317 48.7275 43.4752 48.5605 43.4752 48.2734V45.9487C43.4752 45.8257 43.4078 45.7407 43.2731 45.6938C43.2145 45.6733 43.1515 45.6572 43.0841 45.6455C43.0167 45.6309 42.9625 45.6177 42.9215 45.606C42.8834 45.5942 42.8585 45.584 42.8468 45.5752C42.838 45.5635 42.8336 45.5415 42.8336 45.5093C42.8336 45.4741 42.8556 45.4448 42.8995 45.4214L44.0201 44.894C44.0553 44.8765 44.0773 44.8677 44.0861 44.8677C44.1359 44.8677 44.1608 44.9028 44.1608 44.9731V45.6851C44.1608 45.7202 44.1696 45.7378 44.1871 45.7378C44.2106 45.7378 44.2706 45.6689 44.3673 45.5312C44.6456 45.1416 44.8756 44.9468 45.0573 44.9468C45.1598 44.9468 45.3165 44.9878 45.5275 45.0698C45.7413 45.1519 45.8483 45.2207 45.8483 45.2764C45.8483 45.3438 45.8146 45.4463 45.7472 45.584C45.6798 45.7217 45.6124 45.7905 45.545 45.7905ZM46.8678 46.6255C46.818 46.6255 46.7931 46.7324 46.7931 46.9463C46.7931 47.4004 46.9279 47.7812 47.1974 48.0889C47.4669 48.3965 47.8009 48.5503 48.1993 48.5503C48.6007 48.5503 48.986 48.3774 49.3551 48.0317C49.361 48.0259 49.3683 48.0229 49.3771 48.0229H49.399C49.4166 48.0229 49.4327 48.0376 49.4474 48.0669C49.465 48.0933 49.4811 48.1108 49.4957 48.1196C49.1559 48.5327 48.756 48.8184 48.296 48.9766C48.1378 49.0322 47.9591 49.0601 47.7599 49.0601C47.5607 49.0601 47.3585 49.0059 47.1534 48.8975C46.9484 48.7861 46.7726 48.6411 46.6261 48.4624C46.3156 48.0903 46.1603 47.6274 46.1603 47.0737C46.1603 46.5171 46.3287 46.0103 46.6656 45.5532C47.0055 45.0962 47.4713 44.8677 48.0631 44.8677C48.4879 44.8677 48.8351 45.0581 49.1046 45.439C49.3741 45.8169 49.5089 46.1494 49.5089 46.4365C49.5089 46.5625 49.4781 46.6255 49.4166 46.6255H46.8678ZM46.9161 46.2036C46.9161 46.2593 46.9425 46.2871 46.9952 46.2871H48.652C48.7281 46.2871 48.7662 46.2417 48.7662 46.1509C48.7662 45.9399 48.671 45.7246 48.4806 45.5049C48.2931 45.2822 48.0865 45.1709 47.861 45.1709C47.6412 45.1709 47.4406 45.2705 47.2589 45.4697C47.0802 45.6689 46.9659 45.896 46.9161 46.1509V46.2036ZM55.3756 45.0522C55.5045 45.0962 55.5836 45.1182 55.6129 45.1182C55.6422 45.1182 55.6598 45.1182 55.6656 45.1182C55.6744 45.1152 55.6847 45.0962 55.6964 45.061V42.7935C55.6964 42.6704 55.629 42.5854 55.4943 42.5386C55.4357 42.5181 55.3727 42.502 55.3053 42.4902C55.2379 42.4756 55.1837 42.4624 55.1427 42.4507C55.1046 42.439 55.0797 42.4287 55.068 42.4199C55.0592 42.4082 55.0548 42.3862 55.0548 42.354C55.0548 42.3188 55.0768 42.2896 55.1207 42.2661L56.2413 41.7388C56.2765 41.7212 56.2985 41.7124 56.3073 41.7124C56.3571 41.7124 56.382 41.7476 56.382 41.8179V48.0757C56.3966 48.2046 56.4332 48.2969 56.4918 48.3525C56.5504 48.4082 56.6456 48.436 56.7775 48.436L57.0323 48.4185C57.0499 48.4185 57.0587 48.436 57.0587 48.4712C57.0587 48.5034 57.0367 48.5298 56.9928 48.5503L55.8239 49.0337C55.7887 49.0513 55.7579 49.0601 55.7316 49.0601C55.7081 49.0601 55.6964 49.0234 55.6964 48.9502V48.5503C55.6964 48.521 55.6891 48.5063 55.6744 48.5063C55.6539 48.5063 55.5323 48.5723 55.3097 48.7041C54.6271 49.1084 54.0514 49.1685 53.5826 48.8843C53.2076 48.6558 52.9542 48.2939 52.8224 47.7988C52.7609 47.5674 52.7301 47.3228 52.7301 47.0649C52.7301 46.8042 52.7828 46.5464 52.8883 46.2915C52.9967 46.0337 53.1447 45.8081 53.3322 45.6147C53.7452 45.1929 54.2433 44.9819 54.8263 44.9819C55.0636 44.9819 55.2467 45.0054 55.3756 45.0522ZM53.3937 46.9375C53.3937 47.3799 53.5167 47.7681 53.7628 48.1021C54.0089 48.4331 54.3517 48.5986 54.7911 48.5986C54.9845 48.5986 55.1837 48.5518 55.3888 48.458C55.5939 48.3613 55.6964 48.2881 55.6964 48.2383V45.9707C55.6964 45.915 55.6583 45.8491 55.5822 45.7729C55.3478 45.4507 55.0358 45.2896 54.6461 45.2896C54.2594 45.2896 53.9532 45.4536 53.7277 45.7817C53.505 46.1069 53.3937 46.4922 53.3937 46.9375ZM60.4601 48.5547C60.4454 48.5049 60.4264 48.4888 60.403 48.5063C60.3795 48.521 60.2843 48.5708 60.1173 48.6558C59.5695 48.9282 59.1124 49.0645 58.7462 49.0645C58.38 49.0645 58.1163 48.9473 57.9552 48.7129C57.8966 48.625 57.8673 48.5166 57.8673 48.3877V45.707C57.8585 45.6221 57.8204 45.5488 57.7531 45.4873C57.6622 45.4111 57.567 45.3701 57.4674 45.3643C57.3707 45.3584 57.3224 45.3291 57.3224 45.2764C57.3224 45.2207 57.3458 45.187 57.3927 45.1753L58.399 44.8853C58.4342 44.8735 58.4679 44.8677 58.5001 44.8677C58.5353 44.8677 58.5529 44.8926 58.5529 44.9424V47.8911C58.5529 48.0962 58.6437 48.2544 58.8253 48.3657C59.007 48.4771 59.2384 48.5327 59.5197 48.5327C59.8038 48.5327 60.0587 48.4463 60.2843 48.2734C60.3546 48.2178 60.4132 48.1562 60.4601 48.0889V45.707C60.4513 45.6221 60.4132 45.5488 60.3458 45.4873C60.255 45.4111 60.1598 45.3701 60.0602 45.3643C59.9635 45.3584 59.9152 45.3291 59.9152 45.2764C59.9152 45.2207 59.9386 45.187 59.9855 45.1753L60.9918 44.8853C61.027 44.8735 61.0607 44.8677 61.0929 44.8677C61.1281 44.8677 61.1456 44.897 61.1456 44.9556V48.0757C61.1603 48.2046 61.1969 48.2969 61.2555 48.3525C61.3141 48.4082 61.4093 48.436 61.5411 48.436L61.796 48.4185C61.8136 48.4185 61.8224 48.436 61.8224 48.4712C61.8224 48.5034 61.8004 48.5298 61.7565 48.5503L60.5875 49.0337C60.5524 49.0513 60.5216 49.0601 60.4952 49.0601C60.4718 49.0601 60.4601 49.0234 60.4601 48.9502V48.5547ZM66.942 45.9355C66.942 46 66.9171 46.0322 66.8673 46.0322C66.8204 46.0322 66.7838 45.9971 66.7574 45.9268C66.6871 45.7334 66.5817 45.562 66.441 45.4126C66.3033 45.2632 66.132 45.1885 65.9269 45.1885C65.6573 45.1885 65.4757 45.3232 65.382 45.5928C65.3527 45.6836 65.338 45.7773 65.338 45.874C65.338 45.9707 65.3995 46.0791 65.5226 46.1992C65.6456 46.3164 65.8478 46.457 66.129 46.6211C66.4103 46.7852 66.6154 46.9243 66.7443 47.0386C67.0372 47.2993 67.1837 47.6011 67.1837 47.9438C67.1837 48.2866 67.0577 48.5591 66.8058 48.7612C66.5538 48.9604 66.2609 49.0601 65.9269 49.0601C65.7482 49.0601 65.5856 49.0352 65.4391 48.9854C65.2955 48.9385 65.212 48.915 65.1886 48.915C65.1681 48.915 65.1329 48.9385 65.0831 48.9854C65.0363 49.0352 64.9982 49.0601 64.9689 49.0601H64.8942C64.8766 49.0601 64.8546 48.9019 64.8282 48.5854C64.8019 48.269 64.7887 48.0815 64.7887 48.0229C64.7887 47.9644 64.7931 47.9321 64.8019 47.9263C64.8136 47.9204 64.8312 47.9175 64.8546 47.9175C64.8781 47.9175 64.8971 47.9248 64.9117 47.9395C64.9293 47.9541 64.944 47.9731 64.9557 47.9966C64.9674 48.0171 64.9762 48.0391 64.9821 48.0625C64.9908 48.0859 65.0099 48.1299 65.0392 48.1943C65.2384 48.6191 65.546 48.8315 65.962 48.8315C66.1466 48.8315 66.2946 48.7642 66.4059 48.6294C66.5172 48.4917 66.5729 48.3394 66.5729 48.1724C66.5729 48.0054 66.5289 47.8647 66.441 47.7505C66.3531 47.6362 66.2433 47.5322 66.1115 47.4385C65.9825 47.3447 65.8419 47.2539 65.6896 47.166C65.0978 46.8203 64.8019 46.438 64.8019 46.019C64.8019 45.7056 64.9366 45.436 65.2062 45.2104C65.4757 44.9819 65.7526 44.8677 66.0367 44.8677C66.3209 44.8677 66.5304 44.8984 66.6652 44.96C66.8029 45.0215 66.8834 45.0742 66.9069 45.1182C66.9303 45.1592 66.942 45.2969 66.942 45.5312V45.9355ZM68.5328 46.6255C68.483 46.6255 68.4581 46.7324 68.4581 46.9463C68.4581 47.4004 68.5929 47.7812 68.8624 48.0889C69.132 48.3965 69.4659 48.5503 69.8644 48.5503C70.2657 48.5503 70.651 48.3774 71.0201 48.0317C71.026 48.0259 71.0333 48.0229 71.0421 48.0229H71.0641C71.0817 48.0229 71.0978 48.0376 71.1124 48.0669C71.13 48.0933 71.1461 48.1108 71.1608 48.1196C70.8209 48.5327 70.421 48.8184 69.9611 48.9766C69.8029 49.0322 69.6241 49.0601 69.4249 49.0601C69.2257 49.0601 69.0236 49.0059 68.8185 48.8975C68.6134 48.7861 68.4376 48.6411 68.2911 48.4624C67.9806 48.0903 67.8253 47.6274 67.8253 47.0737C67.8253 46.5171 67.9938 46.0103 68.3307 45.5532C68.6705 45.0962 69.1364 44.8677 69.7281 44.8677C70.153 44.8677 70.5001 45.0581 70.7697 45.439C71.0392 45.8169 71.174 46.1494 71.174 46.4365C71.174 46.5625 71.1432 46.6255 71.0817 46.6255H68.5328ZM68.5812 46.2036C68.5812 46.2593 68.6075 46.2871 68.6603 46.2871H70.317C70.3932 46.2871 70.4313 46.2417 70.4313 46.1509C70.4313 45.9399 70.3361 45.7246 70.1456 45.5049C69.9581 45.2822 69.7516 45.1709 69.526 45.1709C69.3063 45.1709 69.1056 45.2705 68.924 45.4697C68.7452 45.6689 68.631 45.896 68.5812 46.1509V46.2036ZM75.652 44.9863C75.6754 44.9863 75.6871 45.0098 75.6871 45.0566C75.6871 45.1035 75.6754 45.1328 75.652 45.1445C75.4264 45.2061 75.2462 45.3086 75.1115 45.4521C75.0616 45.5049 75.0074 45.5664 74.9489 45.6367L74.1007 46.6562C74.089 46.6768 74.0831 46.6958 74.0831 46.7134C74.0831 46.7485 74.2106 46.9214 74.4655 47.2319C74.7203 47.5396 75.0719 47.9761 75.5201 48.5415C75.5524 48.5825 75.6168 48.6235 75.7135 48.6646C75.8102 48.7056 75.8761 48.7393 75.9113 48.7656C75.9464 48.7891 75.964 48.8213 75.964 48.8623C75.964 48.9033 75.9464 48.9297 75.9113 48.9414H74.1798C74.1505 48.9414 74.1359 48.918 74.1359 48.8711C74.1359 48.8242 74.1593 48.7979 74.2062 48.792C74.256 48.7832 74.3116 48.7744 74.3732 48.7656C74.5284 48.7422 74.6061 48.6807 74.6061 48.5811C74.6061 48.5137 74.5695 48.439 74.4962 48.3569L73.7404 47.4077C73.7169 47.3755 73.6979 47.3506 73.6832 47.333C73.6715 47.3154 73.6466 47.3066 73.6085 47.3066C73.5704 47.3066 73.5397 47.3228 73.5162 47.355C73.4957 47.3843 73.4738 47.4106 73.4503 47.4341L72.7604 48.2646C72.6989 48.335 72.6681 48.417 72.6681 48.5107C72.6681 48.6045 72.7281 48.6792 72.8483 48.7349C72.9713 48.7876 73.0797 48.814 73.1735 48.814C73.194 48.814 73.2042 48.8359 73.2042 48.8799C73.2042 48.9209 73.194 48.9414 73.1735 48.9414H71.7628C71.7159 48.9414 71.6925 48.915 71.6925 48.8623C71.6925 48.8213 71.7731 48.7627 71.9342 48.6865C72.0983 48.6104 72.1979 48.5518 72.233 48.5107L73.4503 47.0474C73.4474 47.0415 73.4415 47.0342 73.4327 47.0254C73.4269 47.0166 73.4108 46.9961 73.3844 46.9639C73.358 46.9316 73.317 46.8818 73.2614 46.8145C73.2057 46.7441 73.0577 46.5625 72.8175 46.2695C72.5802 45.9736 72.3297 45.6616 72.066 45.3335C72.0309 45.2954 71.9576 45.2529 71.8463 45.2061C71.735 45.1562 71.6793 45.1123 71.6793 45.0742C71.6852 45.0156 71.7203 44.9863 71.7848 44.9863H73.4196C73.443 44.9863 73.4532 45.0054 73.4503 45.0435C73.4503 45.0786 73.4283 45.1021 73.3844 45.1138C73.3405 45.1226 73.2921 45.1357 73.2394 45.1533C73.0988 45.1943 73.0284 45.2661 73.0284 45.3687C73.0284 45.436 73.0416 45.4829 73.068 45.5093L73.7491 46.353C73.7726 46.3794 73.796 46.4087 73.8195 46.4409C73.8458 46.4702 73.8678 46.4849 73.8854 46.4849C73.9059 46.4849 73.9279 46.4702 73.9513 46.4409L74.5973 45.6895C74.6705 45.6045 74.7072 45.5195 74.7072 45.4346C74.7072 45.3496 74.6837 45.291 74.6368 45.2588C74.59 45.2236 74.5372 45.1987 74.4786 45.1841C74.423 45.1665 74.3717 45.1504 74.3248 45.1357C74.278 45.1211 74.2545 45.0933 74.2545 45.0522C74.2545 45.0083 74.2706 44.9863 74.3029 44.9863H75.652ZM77.4537 45.562C77.4362 45.562 77.4274 45.5752 77.4274 45.6016V48.0273C77.4274 48.2031 77.4655 48.3408 77.5416 48.4404C77.6207 48.54 77.7203 48.5898 77.8405 48.5898C77.9606 48.5898 78.0646 48.5708 78.1525 48.5327C78.2433 48.4917 78.3209 48.4478 78.3854 48.4009C78.4528 48.354 78.5128 48.3115 78.5656 48.2734C78.6183 48.2324 78.6652 48.2119 78.7062 48.2119C78.7472 48.2119 78.7677 48.2222 78.7677 48.2427C78.7677 48.313 78.7604 48.3584 78.7457 48.3789C78.3942 48.833 78.0543 49.0601 77.7262 49.0601C77.401 49.0601 77.1549 48.9575 76.9879 48.7524C76.8239 48.5444 76.7418 48.2969 76.7418 48.0098V45.562H76.4122C76.3302 45.562 76.2863 45.5356 76.2804 45.4829C76.2775 45.4302 76.2863 45.3965 76.3068 45.3818C76.462 45.2822 76.6759 45.1035 76.9484 44.8457C76.9777 44.8135 77.0172 44.7651 77.067 44.7007C77.1168 44.6362 77.1886 44.5483 77.2823 44.437C77.379 44.3257 77.4523 44.27 77.5021 44.27C77.5519 44.27 77.5768 44.2905 77.5768 44.3315C77.5768 44.3374 77.527 44.5293 77.4274 44.9072C77.4274 44.96 77.4508 44.9878 77.4977 44.9907H78.6183C78.7472 44.9907 78.8116 45.1724 78.8116 45.5356C78.8116 45.5532 78.7999 45.562 78.7765 45.562H77.4537ZM81.9493 48.2163C81.9493 48.2925 81.9845 48.354 82.0548 48.4009C82.1281 48.4448 82.2115 48.4668 82.3053 48.4668C82.399 48.4668 82.4767 48.4434 82.5382 48.3965C82.6027 48.3467 82.6466 48.3218 82.67 48.3218C82.6935 48.3218 82.7052 48.354 82.7052 48.4185C82.7052 48.48 82.6759 48.5327 82.6173 48.5767C82.1779 48.8989 81.8805 49.0601 81.7252 49.0601C81.5377 49.0601 81.3854 48.8652 81.2682 48.4756C81.2594 48.4463 81.2521 48.4331 81.2462 48.436C80.8829 48.7085 80.6544 48.8726 80.5607 48.9282C80.3204 49.0659 80.0787 49.0879 79.8356 48.9941C79.5953 48.9004 79.421 48.7451 79.3126 48.5283C79.2599 48.417 79.2335 48.2983 79.2335 48.1724C79.2335 47.9233 79.3258 47.7256 79.5104 47.5791C79.6949 47.4326 80.0465 47.292 80.5651 47.1572C80.7408 47.1104 80.8976 47.0503 81.0353 46.9771C81.173 46.9038 81.2448 46.8569 81.2506 46.8364C81.2594 46.8159 81.2638 46.7969 81.2638 46.7793V45.9355C81.2638 45.6045 81.1349 45.3716 80.8771 45.2368C80.7921 45.1929 80.6896 45.1709 80.5695 45.1709C80.4523 45.1709 80.3322 45.2178 80.2091 45.3115C80.089 45.4053 80.0289 45.5386 80.0289 45.7114L80.0509 45.8828C80.0333 45.918 79.9279 45.9766 79.7345 46.0586C79.5411 46.1406 79.4298 46.1846 79.4005 46.1904C79.3536 46.1904 79.3302 46.1348 79.3302 46.0234C79.3302 45.9092 79.3639 45.7832 79.4313 45.6455C79.4987 45.5078 79.5939 45.3818 79.7169 45.2676C80.004 45.001 80.3322 44.8677 80.7013 44.8677C81.0704 44.8677 81.3707 44.9702 81.6022 45.1753C81.8336 45.3774 81.9493 45.6191 81.9493 45.9004V48.2163ZM79.9235 48.0889C79.9235 48.2295 79.9777 48.3525 80.0861 48.458C80.1945 48.5605 80.3175 48.6118 80.4552 48.6118C80.5958 48.6118 80.7657 48.5532 80.965 48.436C81.1642 48.3159 81.2638 48.1929 81.2638 48.0669V47.1748C81.2638 47.1426 81.2565 47.1265 81.2418 47.1265C81.2272 47.1265 81.2169 47.1279 81.2111 47.1309L80.1915 47.6055C80.0861 47.6816 80.0143 47.7461 79.9762 47.7988C79.941 47.8516 79.9235 47.9482 79.9235 48.0889ZM86.3527 47.5571L86.3439 46.6299C86.3439 46.252 86.3116 45.9868 86.2472 45.8345C86.1827 45.6821 86.1007 45.5679 86.0011 45.4917C85.9015 45.4126 85.7667 45.373 85.5968 45.373C85.4298 45.373 85.0739 45.5049 84.5289 45.7686C84.4557 45.8125 84.4176 45.8535 84.4147 45.8916V48.2559C84.4147 48.5518 84.5729 48.7217 84.8893 48.7656C85.027 48.7861 85.0958 48.8198 85.0958 48.8667C85.0958 48.9106 85.0812 48.9355 85.0519 48.9414H83.0919C83.0626 48.9355 83.048 48.915 83.048 48.8799C83.048 48.8242 83.1168 48.7861 83.2545 48.7656C83.5709 48.7217 83.7291 48.5518 83.7291 48.2559V45.7334C83.7291 45.6104 83.6617 45.5254 83.527 45.4785C83.4684 45.458 83.4054 45.4419 83.338 45.4302C83.2706 45.4155 83.2164 45.4023 83.1754 45.3906C83.1373 45.3789 83.1124 45.3687 83.1007 45.3599C83.0919 45.3481 83.0875 45.3262 83.0875 45.2939C83.0875 45.2588 83.1095 45.2295 83.1534 45.2061L84.274 44.6787C84.3092 44.6611 84.3312 44.6523 84.34 44.6523C84.3898 44.6523 84.4147 44.6875 84.4147 44.7578V45.4434C84.4235 45.4727 84.4352 45.4873 84.4498 45.4873C84.4674 45.4873 84.5304 45.4609 84.6388 45.4082C84.8907 45.2822 85.1442 45.1606 85.399 45.0435C85.6539 44.9263 85.8649 44.8677 86.0319 44.8677C86.7086 44.8677 87.047 45.4844 87.047 46.7178L87.0074 48.001V48.2559C87.0074 48.4844 87.1217 48.6338 87.3502 48.7041C87.4469 48.7363 87.5392 48.7598 87.6271 48.7744C87.7179 48.7861 87.7765 48.7979 87.8029 48.8096C87.8322 48.8213 87.8468 48.8447 87.8468 48.8799C87.8468 48.915 87.8322 48.9355 87.8029 48.9414H85.6847C85.6554 48.9355 85.6407 48.915 85.6407 48.8799C85.6407 48.8242 85.7096 48.7861 85.8473 48.7656C86.1608 48.7217 86.3175 48.54 86.3175 48.2207C86.3409 48.0742 86.3527 47.853 86.3527 47.5571ZM89.3102 45.562C89.2926 45.562 89.2838 45.5752 89.2838 45.6016V48.0273C89.2838 48.2031 89.3219 48.3408 89.3981 48.4404C89.4772 48.54 89.5768 48.5898 89.6969 48.5898C89.817 48.5898 89.921 48.5708 90.0089 48.5327C90.0997 48.4917 90.1774 48.4478 90.2418 48.4009C90.3092 48.354 90.3693 48.3115 90.422 48.2734C90.4747 48.2324 90.5216 48.2119 90.5626 48.2119C90.6036 48.2119 90.6241 48.2222 90.6241 48.2427C90.6241 48.313 90.6168 48.3584 90.6022 48.3789C90.2506 48.833 89.9108 49.0601 89.5826 49.0601C89.2574 49.0601 89.0114 48.9575 88.8444 48.7524C88.6803 48.5444 88.5983 48.2969 88.5983 48.0098V45.562H88.2687C88.1866 45.562 88.1427 45.5356 88.1368 45.4829C88.1339 45.4302 88.1427 45.3965 88.1632 45.3818C88.3185 45.2822 88.5323 45.1035 88.8048 44.8457C88.8341 44.8135 88.8737 44.7651 88.9235 44.7007C88.9733 44.6362 89.045 44.5483 89.1388 44.437C89.2355 44.3257 89.3087 44.27 89.3585 44.27C89.4083 44.27 89.4332 44.2905 89.4332 44.3315C89.4332 44.3374 89.3834 44.5293 89.2838 44.9072C89.2838 44.96 89.3073 44.9878 89.3541 44.9907H90.4747C90.6036 44.9907 90.6681 45.1724 90.6681 45.5356C90.6681 45.5532 90.6564 45.562 90.6329 45.562H89.3102ZM94.5748 45.562C94.5573 45.562 94.5485 45.5752 94.5485 45.6016V48.0273C94.5485 48.2031 94.5865 48.3408 94.6627 48.4404C94.7418 48.54 94.8414 48.5898 94.9615 48.5898C95.0817 48.5898 95.1857 48.5708 95.2736 48.5327C95.3644 48.4917 95.442 48.4478 95.5065 48.4009C95.5739 48.354 95.6339 48.3115 95.6866 48.2734C95.7394 48.2324 95.7863 48.2119 95.8273 48.2119C95.8683 48.2119 95.8888 48.2222 95.8888 48.2427C95.8888 48.313 95.8815 48.3584 95.8668 48.3789C95.5153 48.833 95.1754 49.0601 94.8473 49.0601C94.5221 49.0601 94.276 48.9575 94.109 48.7524C93.9449 48.5444 93.8629 48.2969 93.8629 48.0098V45.562H93.5333C93.4513 45.562 93.4073 45.5356 93.4015 45.4829C93.3986 45.4302 93.4073 45.3965 93.4279 45.3818C93.5831 45.2822 93.797 45.1035 94.0695 44.8457C94.0988 44.8135 94.1383 44.7651 94.1881 44.7007C94.2379 44.6362 94.3097 44.5483 94.4034 44.437C94.5001 44.3257 94.5734 44.27 94.6232 44.27C94.673 44.27 94.6979 44.2905 94.6979 44.3315C94.6979 44.3374 94.6481 44.5293 94.5485 44.9072C94.5485 44.96 94.5719 44.9878 94.6188 44.9907H95.7394C95.8683 44.9907 95.9327 45.1724 95.9327 45.5356C95.9327 45.5532 95.921 45.562 95.8976 45.562H94.5748ZM97.0621 46.6255C97.0123 46.6255 96.9874 46.7324 96.9874 46.9463C96.9874 47.4004 97.1222 47.7812 97.3917 48.0889C97.6613 48.3965 97.9952 48.5503 98.3937 48.5503C98.795 48.5503 99.1803 48.3774 99.5494 48.0317C99.5553 48.0259 99.5626 48.0229 99.5714 48.0229H99.5934C99.611 48.0229 99.6271 48.0376 99.6417 48.0669C99.6593 48.0933 99.6754 48.1108 99.6901 48.1196C99.3502 48.5327 98.9503 48.8184 98.4904 48.9766C98.3322 49.0322 98.1534 49.0601 97.9542 49.0601C97.755 49.0601 97.5529 49.0059 97.3478 48.8975C97.1427 48.7861 96.9669 48.6411 96.8204 48.4624C96.5099 48.0903 96.3546 47.6274 96.3546 47.0737C96.3546 46.5171 96.5231 46.0103 96.86 45.5532C97.1998 45.0962 97.6656 44.8677 98.2574 44.8677C98.6823 44.8677 99.0294 45.0581 99.299 45.439C99.5685 45.8169 99.7032 46.1494 99.7032 46.4365C99.7032 46.5625 99.6725 46.6255 99.611 46.6255H97.0621ZM97.1105 46.2036C97.1105 46.2593 97.1368 46.2871 97.1896 46.2871H98.8463C98.9225 46.2871 98.9606 46.2417 98.9606 46.1509C98.9606 45.9399 98.8654 45.7246 98.6749 45.5049C98.4874 45.2822 98.2809 45.1709 98.0553 45.1709C97.8356 45.1709 97.6349 45.2705 97.4532 45.4697C97.2745 45.6689 97.1603 45.896 97.1105 46.1509V46.2036ZM106.15 45.2896C106.15 45.2896 106.543 45.272 107.328 45.2368C107.395 45.2368 107.439 45.2441 107.46 45.2588C107.48 45.2734 107.502 45.3247 107.526 45.4126C107.549 45.4976 107.561 45.5781 107.561 45.6543C107.561 45.7305 107.553 45.7744 107.539 45.7861C107.524 45.7979 107.495 45.8037 107.451 45.8037H106.475C106.493 45.8359 106.512 45.8696 106.532 45.9048C106.553 45.9399 106.579 45.9985 106.611 46.0806C106.644 46.1626 106.66 46.29 106.66 46.4629C106.66 46.6328 106.617 46.8115 106.532 46.999C106.45 47.1836 106.329 47.3477 106.168 47.4912C105.81 47.8135 105.347 47.9746 104.779 47.9746C104.63 47.9746 104.465 47.9468 104.287 47.8911C104.243 47.938 104.184 47.9819 104.111 48.0229C104.038 48.061 103.966 48.1006 103.896 48.1416C103.72 48.2412 103.632 48.3408 103.632 48.4404C103.632 48.6895 104.045 48.8169 104.871 48.8228C105.697 48.8286 106.239 48.8564 106.497 48.9062C106.758 48.9531 106.96 49.0483 107.104 49.1919C107.329 49.4175 107.442 49.6753 107.442 49.9653C107.442 50.2144 107.335 50.4707 107.121 50.7344C106.749 51.2002 106.181 51.5107 105.416 51.666C105.144 51.7217 104.855 51.7495 104.55 51.7495C103.997 51.7495 103.576 51.6484 103.289 51.4463C103.002 51.2471 102.859 51.0054 102.859 50.7212C102.859 50.5659 102.895 50.437 102.968 50.3345C103.042 50.2349 103.134 50.1396 103.245 50.0488C103.359 49.9609 103.484 49.8672 103.619 49.7676C103.754 49.6709 103.882 49.5464 104.005 49.394C103.724 49.3706 103.483 49.2812 103.28 49.126C103.081 48.9707 102.982 48.8184 102.982 48.6689C102.982 48.5195 103.021 48.4097 103.1 48.3394C103.179 48.2661 103.276 48.2046 103.39 48.1548C103.505 48.1021 103.625 48.0537 103.751 48.0098C103.877 47.9658 103.986 47.9087 104.08 47.8384C103.752 47.7095 103.499 47.5322 103.32 47.3066C103.141 47.0781 103.052 46.8291 103.052 46.5596C103.052 46.0586 103.234 45.6499 103.597 45.3335C103.963 45.0171 104.404 44.8589 104.92 44.8589C105.435 44.8589 105.845 45.0024 106.15 45.2896ZM103.759 49.873C103.692 49.9404 103.636 50.0122 103.592 50.0884C103.548 50.1646 103.526 50.2598 103.526 50.374C103.526 50.4912 103.568 50.6128 103.65 50.7388C103.734 50.8677 103.849 50.9834 103.992 51.0859C104.309 51.3203 104.69 51.4375 105.135 51.4375C105.58 51.4375 105.983 51.3071 106.343 51.0464C106.707 50.7886 106.888 50.5044 106.888 50.1938C106.888 49.8862 106.739 49.6797 106.44 49.5742C106.299 49.5273 105.938 49.498 105.355 49.4863C104.772 49.4746 104.394 49.4585 104.221 49.438C104.145 49.5259 104.066 49.6035 103.984 49.6709C103.904 49.7383 103.83 49.8057 103.759 49.873ZM105.939 46.4585C105.939 46.0454 105.835 45.71 105.627 45.4521C105.422 45.1914 105.15 45.061 104.81 45.061C104.37 45.061 104.06 45.2676 103.878 45.6807C103.808 45.8389 103.773 46.0205 103.773 46.2256C103.773 46.6445 103.859 46.9932 104.032 47.2715C104.243 47.6055 104.52 47.7725 104.862 47.7725C105.205 47.7725 105.47 47.6567 105.658 47.4253C105.845 47.1938 105.939 46.8716 105.939 46.4585ZM110.909 48.5547C110.895 48.5049 110.876 48.4888 110.852 48.5063C110.829 48.521 110.734 48.5708 110.567 48.6558C110.019 48.9282 109.562 49.0645 109.195 49.0645C108.829 49.0645 108.566 48.9473 108.404 48.7129C108.346 48.625 108.317 48.5166 108.317 48.3877V45.707C108.308 45.6221 108.27 45.5488 108.202 45.4873C108.111 45.4111 108.016 45.3701 107.917 45.3643C107.82 45.3584 107.772 45.3291 107.772 45.2764C107.772 45.2207 107.795 45.187 107.842 45.1753L108.848 44.8853C108.883 44.8735 108.917 44.8677 108.949 44.8677C108.984 44.8677 109.002 44.8926 109.002 44.9424V47.8911C109.002 48.0962 109.093 48.2544 109.275 48.3657C109.456 48.4771 109.688 48.5327 109.969 48.5327C110.253 48.5327 110.508 48.4463 110.734 48.2734C110.804 48.2178 110.862 48.1562 110.909 48.0889V45.707C110.901 45.6221 110.862 45.5488 110.795 45.4873C110.704 45.4111 110.609 45.3701 110.509 45.3643C110.413 45.3584 110.364 45.3291 110.364 45.2764C110.364 45.2207 110.388 45.187 110.435 45.1753L111.441 44.8853C111.476 44.8735 111.51 44.8677 111.542 44.8677C111.577 44.8677 111.595 44.897 111.595 44.9556V48.0757C111.609 48.2046 111.646 48.2969 111.705 48.3525C111.763 48.4082 111.859 48.436 111.99 48.436L112.245 48.4185C112.263 48.4185 112.272 48.436 112.272 48.4712C112.272 48.5034 112.25 48.5298 112.206 48.5503L111.037 49.0337C111.002 49.0513 110.971 49.0601 110.944 49.0601C110.921 49.0601 110.909 49.0234 110.909 48.9502V48.5547ZM112.843 48.9414C112.814 48.9355 112.799 48.915 112.799 48.8799C112.799 48.8271 112.868 48.792 113.005 48.7744C113.322 48.7275 113.48 48.5605 113.48 48.2734V45.9487C113.48 45.8257 113.413 45.7407 113.278 45.6938C113.219 45.6733 113.156 45.6572 113.089 45.6455C113.022 45.6309 112.967 45.6177 112.926 45.606C112.888 45.5942 112.863 45.584 112.852 45.5752C112.843 45.5635 112.839 45.5415 112.839 45.5093C112.839 45.4741 112.86 45.4448 112.904 45.4214L114.025 44.894C114.06 44.8765 114.082 44.8677 114.091 44.8677C114.141 44.8677 114.166 44.9028 114.166 44.9731V48.2734C114.166 48.5605 114.324 48.7275 114.64 48.7744C114.778 48.792 114.847 48.8228 114.847 48.8667C114.847 48.9106 114.832 48.9355 114.803 48.9414H112.843ZM113.757 43.6328C113.637 43.6328 113.53 43.5947 113.436 43.5186C113.345 43.4424 113.3 43.3369 113.3 43.2021C113.3 43.0645 113.344 42.9561 113.432 42.877C113.52 42.7979 113.624 42.7583 113.744 42.7583C113.867 42.7583 113.969 42.8052 114.051 42.8989C114.136 42.9927 114.179 43.0938 114.179 43.2021C114.179 43.3105 114.139 43.4102 114.06 43.501C113.981 43.5889 113.88 43.6328 113.757 43.6328ZM118.086 45.0522C118.214 45.0962 118.294 45.1182 118.323 45.1182C118.352 45.1182 118.37 45.1182 118.376 45.1182C118.384 45.1152 118.395 45.0962 118.406 45.061V42.7935C118.406 42.6704 118.339 42.5854 118.204 42.5386C118.146 42.5181 118.083 42.502 118.015 42.4902C117.948 42.4756 117.894 42.4624 117.853 42.4507C117.815 42.439 117.79 42.4287 117.778 42.4199C117.769 42.4082 117.765 42.3862 117.765 42.354C117.765 42.3188 117.787 42.2896 117.831 42.2661L118.951 41.7388C118.986 41.7212 119.008 41.7124 119.017 41.7124C119.067 41.7124 119.092 41.7476 119.092 41.8179V48.0757C119.107 48.2046 119.143 48.2969 119.202 48.3525C119.26 48.4082 119.356 48.436 119.487 48.436L119.742 48.4185C119.76 48.4185 119.769 48.436 119.769 48.4712C119.769 48.5034 119.747 48.5298 119.703 48.5503L118.534 49.0337C118.499 49.0513 118.468 49.0601 118.442 49.0601C118.418 49.0601 118.406 49.0234 118.406 48.9502V48.5503C118.406 48.521 118.399 48.5063 118.384 48.5063C118.364 48.5063 118.242 48.5723 118.02 48.7041C117.337 49.1084 116.761 49.1685 116.293 48.8843C115.918 48.6558 115.664 48.2939 115.532 47.7988C115.471 47.5674 115.44 47.3228 115.44 47.0649C115.44 46.8042 115.493 46.5464 115.598 46.2915C115.707 46.0337 115.855 45.8081 116.042 45.6147C116.455 45.1929 116.953 44.9819 117.536 44.9819C117.774 44.9819 117.957 45.0054 118.086 45.0522ZM116.104 46.9375C116.104 47.3799 116.227 47.7681 116.473 48.1021C116.719 48.4331 117.062 48.5986 117.501 48.5986C117.694 48.5986 117.894 48.5518 118.099 48.458C118.304 48.3613 118.406 48.2881 118.406 48.2383V45.9707C118.406 45.915 118.368 45.8491 118.292 45.7729C118.058 45.4507 117.746 45.2896 117.356 45.2896C116.969 45.2896 116.663 45.4536 116.438 45.7817C116.215 46.1069 116.104 46.4922 116.104 46.9375ZM120.872 46.6255C120.822 46.6255 120.797 46.7324 120.797 46.9463C120.797 47.4004 120.932 47.7812 121.201 48.0889C121.471 48.3965 121.805 48.5503 122.203 48.5503C122.605 48.5503 122.99 48.3774 123.359 48.0317C123.365 48.0259 123.372 48.0229 123.381 48.0229H123.403C123.421 48.0229 123.437 48.0376 123.451 48.0669C123.469 48.0933 123.485 48.1108 123.5 48.1196C123.16 48.5327 122.76 48.8184 122.3 48.9766C122.142 49.0322 121.963 49.0601 121.764 49.0601C121.565 49.0601 121.362 49.0059 121.157 48.8975C120.952 48.7861 120.776 48.6411 120.63 48.4624C120.319 48.0903 120.164 47.6274 120.164 47.0737C120.164 46.5171 120.333 46.0103 120.67 45.5532C121.009 45.0962 121.475 44.8677 122.067 44.8677C122.492 44.8677 122.839 45.0581 123.109 45.439C123.378 45.8169 123.513 46.1494 123.513 46.4365C123.513 46.5625 123.482 46.6255 123.421 46.6255H120.872ZM120.92 46.2036C120.92 46.2593 120.946 46.2871 120.999 46.2871H122.656C122.732 46.2871 122.77 46.2417 122.77 46.1509C122.77 45.9399 122.675 45.7246 122.484 45.5049C122.297 45.2822 122.09 45.1709 121.865 45.1709C121.645 45.1709 121.444 45.2705 121.263 45.4697C121.084 45.6689 120.97 45.896 120.92 46.1509V46.2036ZM128.799 45.9355C128.799 46 128.775 46.0322 128.725 46.0322C128.678 46.0322 128.641 45.9971 128.615 45.9268C128.545 45.7334 128.439 45.562 128.298 45.4126C128.161 45.2632 127.989 45.1885 127.784 45.1885C127.515 45.1885 127.333 45.3232 127.239 45.5928C127.21 45.6836 127.195 45.7773 127.195 45.874C127.195 45.9707 127.257 46.0791 127.38 46.1992C127.503 46.3164 127.705 46.457 127.986 46.6211C128.268 46.7852 128.473 46.9243 128.602 47.0386C128.895 47.2993 129.041 47.6011 129.041 47.9438C129.041 48.2866 128.915 48.5591 128.663 48.7612C128.411 48.9604 128.118 49.0601 127.784 49.0601C127.606 49.0601 127.443 49.0352 127.297 48.9854C127.153 48.9385 127.069 48.915 127.046 48.915C127.026 48.915 126.99 48.9385 126.941 48.9854C126.894 49.0352 126.856 49.0601 126.826 49.0601H126.752C126.734 49.0601 126.712 48.9019 126.686 48.5854C126.659 48.269 126.646 48.0815 126.646 48.0229C126.646 47.9644 126.651 47.9321 126.659 47.9263C126.671 47.9204 126.689 47.9175 126.712 47.9175C126.735 47.9175 126.755 47.9248 126.769 47.9395C126.787 47.9541 126.801 47.9731 126.813 47.9966C126.825 48.0171 126.834 48.0391 126.839 48.0625C126.848 48.0859 126.867 48.1299 126.897 48.1943C127.096 48.6191 127.403 48.8315 127.819 48.8315C128.004 48.8315 128.152 48.7642 128.263 48.6294C128.375 48.4917 128.43 48.3394 128.43 48.1724C128.43 48.0054 128.386 47.8647 128.298 47.7505C128.211 47.6362 128.101 47.5322 127.969 47.4385C127.84 47.3447 127.699 47.2539 127.547 47.166C126.955 46.8203 126.659 46.438 126.659 46.019C126.659 45.7056 126.794 45.436 127.064 45.2104C127.333 44.9819 127.61 44.8677 127.894 44.8677C128.178 44.8677 128.388 44.8984 128.523 44.96C128.66 45.0215 128.741 45.0742 128.764 45.1182C128.788 45.1592 128.799 45.2969 128.799 45.5312V45.9355ZM132.689 48.5547C132.674 48.5049 132.655 48.4888 132.631 48.5063C132.608 48.521 132.513 48.5708 132.346 48.6558C131.798 48.9282 131.341 49.0645 130.975 49.0645C130.609 49.0645 130.345 48.9473 130.184 48.7129C130.125 48.625 130.096 48.5166 130.096 48.3877V45.707C130.087 45.6221 130.049 45.5488 129.982 45.4873C129.891 45.4111 129.796 45.3701 129.696 45.3643C129.599 45.3584 129.551 45.3291 129.551 45.2764C129.551 45.2207 129.574 45.187 129.621 45.1753L130.628 44.8853C130.663 44.8735 130.696 44.8677 130.729 44.8677C130.764 44.8677 130.781 44.8926 130.781 44.9424V47.8911C130.781 48.0962 130.872 48.2544 131.054 48.3657C131.235 48.4771 131.467 48.5327 131.748 48.5327C132.032 48.5327 132.287 48.4463 132.513 48.2734C132.583 48.2178 132.642 48.1562 132.689 48.0889V45.707C132.68 45.6221 132.642 45.5488 132.574 45.4873C132.484 45.4111 132.388 45.3701 132.289 45.3643C132.192 45.3584 132.144 45.3291 132.144 45.2764C132.144 45.2207 132.167 45.187 132.214 45.1753L133.22 44.8853C133.255 44.8735 133.289 44.8677 133.321 44.8677C133.357 44.8677 133.374 44.897 133.374 44.9556V48.0757C133.389 48.2046 133.425 48.2969 133.484 48.3525C133.543 48.4082 133.638 48.436 133.77 48.436L134.025 48.4185C134.042 48.4185 134.051 48.436 134.051 48.4712C134.051 48.5034 134.029 48.5298 133.985 48.5503L132.816 49.0337C132.781 49.0513 132.75 49.0601 132.724 49.0601C132.7 49.0601 132.689 49.0234 132.689 48.9502V48.5547ZM137.294 45.7905C137.259 45.7847 137.208 45.7656 137.14 45.7334C136.897 45.6221 136.707 45.5664 136.569 45.5664C136.431 45.5664 136.286 45.6528 136.134 45.8257C135.984 45.9956 135.91 46.1494 135.91 46.2871V48.2734C135.91 48.4932 136.037 48.6396 136.292 48.7129C136.403 48.7422 136.507 48.7642 136.604 48.7788C136.701 48.7905 136.762 48.8022 136.789 48.814C136.818 48.8257 136.833 48.8491 136.833 48.8843C136.833 48.9165 136.818 48.9355 136.789 48.9414H134.587C134.558 48.9355 134.543 48.915 134.543 48.8799C134.543 48.8271 134.612 48.792 134.75 48.7744C135.066 48.7275 135.224 48.5605 135.224 48.2734V45.9487C135.224 45.8257 135.157 45.7407 135.022 45.6938C134.964 45.6733 134.901 45.6572 134.833 45.6455C134.766 45.6309 134.712 45.6177 134.671 45.606C134.632 45.5942 134.608 45.584 134.596 45.5752C134.587 45.5635 134.583 45.5415 134.583 45.5093C134.583 45.4741 134.605 45.4448 134.649 45.4214L135.769 44.894C135.804 44.8765 135.826 44.8677 135.835 44.8677C135.885 44.8677 135.91 44.9028 135.91 44.9731V45.6851C135.91 45.7202 135.919 45.7378 135.936 45.7378C135.96 45.7378 136.02 45.6689 136.116 45.5312C136.395 45.1416 136.625 44.9468 136.806 44.9468C136.909 44.9468 137.066 44.9878 137.276 45.0698C137.49 45.1519 137.597 45.2207 137.597 45.2764C137.597 45.3438 137.564 45.4463 137.496 45.584C137.429 45.7217 137.361 45.7905 137.294 45.7905ZM47.2765 60.7744C47.4142 60.792 47.483 60.8271 47.483 60.8799C47.483 60.915 47.4684 60.9355 47.4391 60.9414H45.4791C45.4498 60.9355 45.4352 60.915 45.4352 60.8799C45.4352 60.8271 45.504 60.792 45.6417 60.7744C45.9581 60.7275 46.1163 60.5605 46.1163 60.2734V54.7935C46.1163 54.6704 46.049 54.5854 45.9142 54.5386C45.8556 54.5181 45.7926 54.502 45.7252 54.4902C45.6578 54.4756 45.6036 54.4624 45.5626 54.4507C45.5245 54.439 45.4996 54.4287 45.4879 54.4199C45.4791 54.4082 45.4747 54.3862 45.4747 54.354C45.4747 54.3188 45.4967 54.2896 45.5406 54.2661L46.6613 53.7388C46.6964 53.7212 46.7184 53.7124 46.7272 53.7124C46.777 53.7124 46.8019 53.7476 46.8019 53.8179V60.2734C46.8019 60.5605 46.9601 60.7275 47.2765 60.7744ZM48.6564 58.6255C48.6066 58.6255 48.5817 58.7324 48.5817 58.9463C48.5817 59.4004 48.7164 59.7812 48.986 60.0889C49.2555 60.3965 49.5895 60.5503 49.9879 60.5503C50.3893 60.5503 50.7745 60.3774 51.1437 60.0317C51.1495 60.0259 51.1569 60.0229 51.1656 60.0229H51.1876C51.2052 60.0229 51.2213 60.0376 51.236 60.0669C51.2535 60.0933 51.2697 60.1108 51.2843 60.1196C50.9445 60.5327 50.5446 60.8184 50.0846 60.9766C49.9264 61.0322 49.7477 61.0601 49.5485 61.0601C49.3492 61.0601 49.1471 61.0059 48.942 60.8975C48.7369 60.7861 48.5612 60.6411 48.4147 60.4624C48.1041 60.0903 47.9489 59.6274 47.9489 59.0737C47.9489 58.5171 48.1173 58.0103 48.4542 57.5532C48.7941 57.0962 49.2599 56.8677 49.8517 56.8677C50.2765 56.8677 50.6237 57.0581 50.8932 57.439C51.1627 57.8169 51.2975 58.1494 51.2975 58.4365C51.2975 58.5625 51.2667 58.6255 51.2052 58.6255H48.6564ZM48.7047 58.2036C48.7047 58.2593 48.7311 58.2871 48.7838 58.2871H50.4406C50.5167 58.2871 50.5548 58.2417 50.5548 58.1509C50.5548 57.9399 50.4596 57.7246 50.2692 57.5049C50.0817 57.2822 49.8751 57.1709 49.6495 57.1709C49.4298 57.1709 49.2291 57.2705 49.0475 57.4697C48.8688 57.6689 48.7545 57.896 48.7047 58.1509V58.2036ZM55.525 57.2632C55.525 57.354 55.5455 57.3994 55.5865 57.3994C55.6305 57.3994 55.818 57.3042 56.149 57.1138C56.5358 56.9497 56.8302 56.8677 57.0323 56.8677C57.2345 56.8677 57.4279 56.9263 57.6124 57.0435C57.797 57.1606 57.9537 57.3145 58.0826 57.5049C58.3551 57.8975 58.4913 58.3735 58.4913 58.9331C58.4913 59.4927 58.2965 59.9878 57.9069 60.4185C57.5201 60.8462 57.0089 61.0601 56.3732 61.0601C55.9601 61.0601 55.5792 61.0103 55.2306 60.9106C55.1281 60.8813 55.0402 60.8579 54.9669 60.8403C54.8966 60.8228 54.8571 60.8052 54.8483 60.7876C54.8424 60.7671 54.8395 60.7437 54.8395 60.7173V54.7935C54.8395 54.6704 54.7721 54.5854 54.6373 54.5386C54.5787 54.5181 54.5157 54.502 54.4484 54.4902C54.381 54.4756 54.3268 54.4624 54.2858 54.4507C54.2477 54.439 54.2228 54.4287 54.2111 54.4199C54.2023 54.4082 54.1979 54.3862 54.1979 54.354C54.1979 54.3188 54.2198 54.2896 54.2638 54.2661L55.3844 53.7388C55.4196 53.7212 55.4415 53.7124 55.4503 53.7124C55.5001 53.7124 55.525 53.7476 55.525 53.8179V57.2632ZM56.4567 57.4038C56.1959 57.4038 55.903 57.4976 55.5778 57.6851C55.5426 57.7056 55.525 57.7407 55.525 57.7905V59.8691C55.5543 60.1357 55.67 60.3438 55.8722 60.4932C56.0743 60.6426 56.2955 60.7173 56.5358 60.7173C56.9576 60.7173 57.2828 60.5503 57.5114 60.2163C57.7428 59.8823 57.8585 59.5015 57.8585 59.0737C57.8585 58.646 57.7413 58.2607 57.507 57.918C57.2726 57.5752 56.9225 57.4038 56.4567 57.4038ZM59.3087 58.9683C59.3087 58.3911 59.5123 57.896 59.9196 57.4829C60.3297 57.0669 60.8204 56.8589 61.3917 56.8589C61.963 56.8589 62.4596 57.061 62.8815 57.4653C63.3033 57.8667 63.5143 58.3633 63.5143 58.9551C63.5143 59.5469 63.3136 60.0464 62.9122 60.4536C62.5138 60.8579 62.0128 61.0601 61.4093 61.0601C60.8058 61.0601 60.3048 60.855 59.9064 60.4448C59.5079 60.0347 59.3087 59.5425 59.3087 58.9683ZM60.403 60.0977C60.6901 60.5811 61.0812 60.8228 61.5763 60.8228C61.9601 60.8228 62.2531 60.6689 62.4552 60.3613C62.6603 60.0537 62.7628 59.6758 62.7628 59.2275C62.7628 58.7793 62.6193 58.3193 62.3322 57.8477C62.048 57.376 61.6642 57.1401 61.1808 57.1401C60.8263 57.1401 60.5465 57.2939 60.3414 57.6016C60.1393 57.9062 60.0382 58.2944 60.0382 58.7661C60.0382 59.2349 60.1598 59.6787 60.403 60.0977ZM67.3815 59.5571L67.3727 58.6299C67.3727 58.252 67.3405 57.9868 67.276 57.8345C67.2115 57.6821 67.1295 57.5679 67.0299 57.4917C66.9303 57.4126 66.7955 57.373 66.6256 57.373C66.4586 57.373 66.1027 57.5049 65.5577 57.7686C65.4845 57.8125 65.4464 57.8535 65.4435 57.8916V60.2559C65.4435 60.5518 65.6017 60.7217 65.9181 60.7656C66.0558 60.7861 66.1246 60.8198 66.1246 60.8667C66.1246 60.9106 66.11 60.9355 66.0807 60.9414H64.1207C64.0914 60.9355 64.0768 60.915 64.0768 60.8799C64.0768 60.8242 64.1456 60.7861 64.2833 60.7656C64.5997 60.7217 64.7579 60.5518 64.7579 60.2559V57.7334C64.7579 57.6104 64.6906 57.5254 64.5558 57.4785C64.4972 57.458 64.4342 57.4419 64.3668 57.4302C64.2994 57.4155 64.2452 57.4023 64.2042 57.3906C64.1661 57.3789 64.1412 57.3687 64.1295 57.3599C64.1207 57.3481 64.1163 57.3262 64.1163 57.2939C64.1163 57.2588 64.1383 57.2295 64.1823 57.2061L65.3029 56.6787C65.338 56.6611 65.36 56.6523 65.3688 56.6523C65.4186 56.6523 65.4435 56.6875 65.4435 56.7578V57.4434C65.4523 57.4727 65.464 57.4873 65.4786 57.4873C65.4962 57.4873 65.5592 57.4609 65.6676 57.4082C65.9196 57.2822 66.173 57.1606 66.4279 57.0435C66.6827 56.9263 66.8937 56.8677 67.0607 56.8677C67.7374 56.8677 68.0758 57.4844 68.0758 58.7178L68.0363 60.001V60.2559C68.0363 60.4844 68.1505 60.6338 68.379 60.7041C68.4757 60.7363 68.568 60.7598 68.6559 60.7744C68.7467 60.7861 68.8053 60.7979 68.8317 60.8096C68.861 60.8213 68.8756 60.8447 68.8756 60.8799C68.8756 60.915 68.861 60.9355 68.8317 60.9414H66.7135C66.6842 60.9355 66.6696 60.915 66.6696 60.8799C66.6696 60.8242 66.7384 60.7861 66.8761 60.7656C67.1896 60.7217 67.3463 60.54 67.3463 60.2207C67.3698 60.0742 67.3815 59.853 67.3815 59.5571ZM75.1378 57.395C75.1378 57.6001 75.0192 57.7026 74.7819 57.7026C74.6617 57.7026 74.5592 57.6689 74.4742 57.6016C74.3922 57.5312 74.3278 57.4727 74.2809 57.4258C74.2369 57.376 74.1901 57.3306 74.1403 57.2896C73.9293 57.1167 73.6715 57.0977 73.3668 57.2324C73.0651 57.3672 72.8322 57.6543 72.6681 58.0938C72.5773 58.3369 72.5319 58.5786 72.5319 58.8188C72.5319 59.3345 72.649 59.7563 72.8834 60.0845C73.1178 60.4097 73.4767 60.5723 73.9601 60.5723C74.3204 60.5723 74.6442 60.4111 74.9313 60.0889C75.0192 59.9922 75.0719 59.9438 75.0895 59.9438C75.1071 59.9438 75.1261 59.9526 75.1466 59.9702C75.1671 59.9878 75.1774 60.0142 75.1774 60.0493C75.1774 60.0815 75.1686 60.1064 75.151 60.124C74.7028 60.748 74.1388 61.0601 73.4591 61.0601C72.9669 61.0601 72.5626 60.877 72.2462 60.5107C71.9327 60.1445 71.776 59.7256 71.776 59.2539C71.7789 58.3809 71.9899 57.7524 72.4088 57.3687C72.778 57.0317 73.3038 56.8633 73.9865 56.8633C74.4083 56.8633 74.6881 56.9058 74.8258 56.9907C74.9635 57.0757 75.0602 57.1826 75.1158 57.3115C75.1305 57.3408 75.1378 57.3687 75.1378 57.395ZM76.9835 57.54C76.9835 57.6104 76.9938 57.6455 77.0143 57.6455C77.0348 57.6455 77.0494 57.6411 77.0582 57.6323C77.067 57.6206 77.1285 57.5518 77.2428 57.4258C77.5739 57.0566 77.9093 56.8721 78.2491 56.8721C78.6945 56.8721 79.0211 56.9717 79.2291 57.1709C79.484 57.4229 79.6115 57.8462 79.6115 58.4409V60.2734C79.6115 60.5605 79.7697 60.7275 80.0861 60.7744C80.2238 60.792 80.2926 60.8228 80.2926 60.8667C80.2926 60.9106 80.278 60.9355 80.2487 60.9414H78.2887C78.2594 60.9355 78.2448 60.915 78.2448 60.8799C78.2448 60.8271 78.3136 60.792 78.4513 60.7744C78.7677 60.7275 78.9259 60.5605 78.9259 60.2734V58.4849C78.9259 58.0542 78.8951 57.7744 78.8336 57.6455C78.7164 57.3877 78.4718 57.2588 78.0997 57.2588C77.8712 57.2588 77.6281 57.3569 77.3702 57.5532C77.1124 57.7466 76.9835 57.9604 76.9835 58.1948V60.2734C76.9835 60.5605 77.1417 60.7275 77.4581 60.7744C77.5958 60.792 77.6647 60.8228 77.6647 60.8667C77.6647 60.9106 77.65 60.9355 77.6207 60.9414H75.6608C75.6315 60.9355 75.6168 60.915 75.6168 60.8799C75.6168 60.8271 75.6857 60.792 75.8234 60.7744C76.1398 60.7275 76.298 60.5605 76.298 60.2734V54.7935C76.298 54.6704 76.2306 54.5854 76.0958 54.5386C76.0372 54.5181 75.9742 54.502 75.9069 54.4902C75.8395 54.4756 75.7853 54.4624 75.7443 54.4507C75.7062 54.439 75.6813 54.4287 75.6696 54.4199C75.6608 54.4082 75.6564 54.3862 75.6564 54.354C75.6564 54.3188 75.6783 54.2896 75.7223 54.2661L76.8429 53.7388C76.8781 53.7212 76.9 53.7124 76.9088 53.7124C76.9586 53.7124 76.9835 53.7476 76.9835 53.8179V57.54ZM81.4396 58.6255C81.3898 58.6255 81.3649 58.7324 81.3649 58.9463C81.3649 59.4004 81.4996 59.7812 81.7692 60.0889C82.0387 60.3965 82.3727 60.5503 82.7711 60.5503C83.1725 60.5503 83.5577 60.3774 83.9269 60.0317C83.9327 60.0259 83.9401 60.0229 83.9489 60.0229H83.9708C83.9884 60.0229 84.0045 60.0376 84.0192 60.0669C84.0367 60.0933 84.0529 60.1108 84.0675 60.1196C83.7277 60.5327 83.3278 60.8184 82.8678 60.9766C82.7096 61.0322 82.5309 61.0601 82.3317 61.0601C82.1324 61.0601 81.9303 61.0059 81.7252 60.8975C81.5201 60.7861 81.3444 60.6411 81.1979 60.4624C80.8873 60.0903 80.7321 59.6274 80.7321 59.0737C80.7321 58.5171 80.9005 58.0103 81.2374 57.5532C81.5773 57.0962 82.0431 56.8677 82.6349 56.8677C83.0597 56.8677 83.4069 57.0581 83.6764 57.439C83.9459 57.8169 84.0807 58.1494 84.0807 58.4365C84.0807 58.5625 84.0499 58.6255 83.9884 58.6255H81.4396ZM81.4879 58.2036C81.4879 58.2593 81.5143 58.2871 81.567 58.2871H83.2238C83.2999 58.2871 83.338 58.2417 83.338 58.1509C83.338 57.9399 83.2428 57.7246 83.0524 57.5049C82.8649 57.2822 82.6583 57.1709 82.4327 57.1709C82.213 57.1709 82.0123 57.2705 81.8307 57.4697C81.652 57.6689 81.5377 57.896 81.4879 58.1509V58.2036ZM90.611 59.5571L90.6022 58.6299C90.6022 58.252 90.5699 57.9868 90.5055 57.8345C90.441 57.6821 90.359 57.5679 90.2594 57.4917C90.1598 57.4126 90.025 57.373 89.8551 57.373C89.6881 57.373 89.3322 57.5049 88.7872 57.7686C88.714 57.8125 88.6759 57.8535 88.673 57.8916V60.2559C88.673 60.5518 88.8312 60.7217 89.1476 60.7656C89.2853 60.7861 89.3541 60.8198 89.3541 60.8667C89.3541 60.9106 89.3395 60.9355 89.3102 60.9414H87.3502C87.3209 60.9355 87.3063 60.915 87.3063 60.8799C87.3063 60.8242 87.3751 60.7861 87.5128 60.7656C87.8292 60.7217 87.9874 60.5518 87.9874 60.2559V58.0674C87.9874 57.6074 87.7032 57.3774 87.1349 57.3774C86.9269 57.3774 86.6383 57.5005 86.2692 57.7466C86.1754 57.8081 86.1066 57.8652 86.0626 57.918V60.2559C86.0626 60.5518 86.2208 60.7217 86.5372 60.7656C86.6749 60.7861 86.7438 60.8198 86.7438 60.8667C86.7438 60.9106 86.7291 60.9355 86.6998 60.9414H84.7399C84.7106 60.9355 84.6959 60.915 84.6959 60.8799C84.6959 60.8242 84.7648 60.7861 84.9025 60.7656C85.2189 60.7217 85.3771 60.5547 85.3771 60.2646V57.7334C85.3771 57.6104 85.3097 57.5254 85.1749 57.4785C85.1163 57.458 85.0533 57.4419 84.986 57.4302C84.9186 57.4155 84.8644 57.4023 84.8234 57.3906C84.7853 57.3789 84.7604 57.3687 84.7487 57.3599C84.7399 57.3481 84.7355 57.3262 84.7355 57.2939C84.7355 57.2588 84.7574 57.2295 84.8014 57.2061L85.922 56.6787C85.9572 56.6611 85.9791 56.6523 85.9879 56.6523C86.0377 56.6523 86.0626 56.6875 86.0626 56.7578V57.4873C86.0656 57.5049 86.0758 57.5137 86.0934 57.5137C86.1139 57.5137 86.1622 57.4932 86.2384 57.4521C86.3175 57.4111 86.42 57.354 86.546 57.2808C86.672 57.2046 86.8375 57.1167 87.0426 57.0171C87.2506 56.9175 87.4703 56.8677 87.7018 56.8677C88.0739 56.8677 88.3405 57.0273 88.5016 57.3467C88.5631 57.4756 88.6188 57.5312 88.6686 57.5137C88.7184 57.4932 88.796 57.4565 88.9015 57.4038C89.1505 57.2808 89.4025 57.1606 89.6573 57.0435C89.9122 56.9263 90.1232 56.8677 90.2902 56.8677C90.9669 56.8677 91.3053 57.4844 91.3053 58.7178L91.2657 60.001V60.2559C91.2657 60.4844 91.38 60.6338 91.6085 60.7041C91.7052 60.7363 91.7975 60.7598 91.8854 60.7744C91.9762 60.7861 92.0348 60.7979 92.0612 60.8096C92.0905 60.8213 92.1051 60.8447 92.1051 60.8799C92.1051 60.915 92.0905 60.9355 92.0612 60.9414H89.943C89.9137 60.9355 89.899 60.915 89.899 60.8799C89.899 60.8242 89.9679 60.7861 90.1056 60.7656C90.4191 60.7217 90.5758 60.54 90.5758 60.2207C90.5992 60.0742 90.611 59.853 90.611 59.5571ZM92.4303 60.9414C92.401 60.9355 92.3864 60.915 92.3864 60.8799C92.3864 60.8271 92.4552 60.792 92.5929 60.7744C92.9093 60.7275 93.0675 60.5605 93.0675 60.2734V57.9487C93.0675 57.8257 93.0001 57.7407 92.8654 57.6938C92.8068 57.6733 92.7438 57.6572 92.6764 57.6455C92.609 57.6309 92.5548 57.6177 92.5138 57.606C92.4757 57.5942 92.4508 57.584 92.4391 57.5752C92.4303 57.5635 92.4259 57.5415 92.4259 57.5093C92.4259 57.4741 92.4479 57.4448 92.4918 57.4214L93.6124 56.894C93.6476 56.8765 93.6696 56.8677 93.6783 56.8677C93.7281 56.8677 93.7531 56.9028 93.7531 56.9731V60.2734C93.7531 60.5605 93.9113 60.7275 94.2277 60.7744C94.3654 60.792 94.4342 60.8228 94.4342 60.8667C94.4342 60.9106 94.4196 60.9355 94.3903 60.9414H92.4303ZM93.3444 55.6328C93.2242 55.6328 93.1173 55.5947 93.0236 55.5186C92.9327 55.4424 92.8873 55.3369 92.8873 55.2021C92.8873 55.0645 92.9313 54.9561 93.0192 54.877C93.1071 54.7979 93.2111 54.7583 93.3312 54.7583C93.4542 54.7583 93.5568 54.8052 93.6388 54.8989C93.7238 54.9927 93.7662 55.0938 93.7662 55.2021C93.7662 55.3105 93.7267 55.4102 93.6476 55.501C93.5685 55.5889 93.4674 55.6328 93.3444 55.6328ZM98.1871 59.5571L98.1783 58.6299C98.1783 58.252 98.1461 57.9868 98.0817 57.8345C98.0172 57.6821 97.9352 57.5679 97.8356 57.4917C97.736 57.4126 97.6012 57.373 97.4313 57.373C97.2643 57.373 96.9083 57.5049 96.3634 57.7686C96.2902 57.8125 96.2521 57.8535 96.2491 57.8916V60.2559C96.2491 60.5518 96.4073 60.7217 96.7238 60.7656C96.8615 60.7861 96.9303 60.8198 96.9303 60.8667C96.9303 60.9106 96.9156 60.9355 96.8864 60.9414H94.9264C94.8971 60.9355 94.8824 60.915 94.8824 60.8799C94.8824 60.8242 94.9513 60.7861 95.089 60.7656C95.4054 60.7217 95.5636 60.5518 95.5636 60.2559V57.7334C95.5636 57.6104 95.4962 57.5254 95.3615 57.4785C95.3029 57.458 95.2399 57.4419 95.1725 57.4302C95.1051 57.4155 95.0509 57.4023 95.0099 57.3906C94.9718 57.3789 94.9469 57.3687 94.9352 57.3599C94.9264 57.3481 94.922 57.3262 94.922 57.2939C94.922 57.2588 94.944 57.2295 94.9879 57.2061L96.1085 56.6787C96.1437 56.6611 96.1656 56.6523 96.1744 56.6523C96.2242 56.6523 96.2491 56.6875 96.2491 56.7578V57.4434C96.2579 57.4727 96.2697 57.4873 96.2843 57.4873C96.3019 57.4873 96.3649 57.4609 96.4733 57.4082C96.7252 57.2822 96.9786 57.1606 97.2335 57.0435C97.4884 56.9263 97.6993 56.8677 97.8663 56.8677C98.5431 56.8677 98.8815 57.4844 98.8815 58.7178L98.8419 60.001V60.2559C98.8419 60.4844 98.9562 60.6338 99.1847 60.7041C99.2814 60.7363 99.3737 60.7598 99.4615 60.7744C99.5524 60.7861 99.611 60.7979 99.6373 60.8096C99.6666 60.8213 99.6813 60.8447 99.6813 60.8799C99.6813 60.915 99.6666 60.9355 99.6373 60.9414H97.5192C97.4899 60.9355 97.4752 60.915 97.4752 60.8799C97.4752 60.8242 97.5441 60.7861 97.6818 60.7656C97.9952 60.7217 98.152 60.54 98.152 60.2207C98.1754 60.0742 98.1871 59.853 98.1871 59.5571ZM100.34 60.502C100.34 60.3438 100.396 60.2075 100.507 60.0933C100.619 59.9761 100.754 59.9175 100.912 59.9175C101.067 59.9175 101.2 59.9746 101.312 60.0889C101.426 60.2002 101.483 60.3364 101.483 60.4976C101.483 60.6587 101.427 60.7935 101.316 60.9019C101.205 61.0073 101.07 61.0601 100.912 61.0601C100.756 61.0601 100.622 61.0059 100.507 60.8975C100.396 60.7891 100.34 60.6572 100.34 60.502Z" fill="#EFB85F"/>
<path d="M17.5002 10L18.696 11.9748L21 13L18.696 14.0249L17.5002 16L16.304 14.0249L14 13L16.304 11.9748L17.5002 10Z" fill="#EFB85F"/>
<path d="M17.5002 86L18.696 87.9748L21 89L18.696 90.0249L17.5002 92L16.304 90.0249L14 89L16.304 87.9748L17.5002 86Z" fill="#EFB85F"/>
<path d="M124.5 84L125.696 85.9748L128 87L125.696 88.0249L124.5 90L123.304 88.0249L121 87L123.304 85.9748L124.5 84Z" fill="#EFB85F"/>
<path d="M80.5002 90L81.696 91.9748L84 93L81.696 94.0249L80.5002 96L79.304 94.0249L77 93L79.304 91.9748L80.5002 90Z" fill="#EFB85F"/>
<path d="M120.5 7L121.696 8.97475L124 10L121.696 11.0249L120.5 13L119.304 11.0249L117 10L119.304 8.97475L120.5 7Z" fill="#EFB85F"/>
<path d="M95.125 16.6259C95.1509 16.3615 95.1942 15.7335 95.2288 15.2377C95.2634 14.6647 95.324 14.3011 95.3932 14.2681C95.4538 14.235 95.7307 14.4113 95.999 14.6537C96.2759 14.9071 96.5182 15.0834 96.5441 15.0504C96.5615 15.0283 96.397 14.6757 96.1807 14.2791C95.9038 13.7943 95.8086 13.5519 95.8865 13.5189C95.9471 13.4968 96.3884 13.4197 96.8643 13.3426C98.3873 13.1222 98.3787 13.001 96.8384 12.7917C96.3019 12.7145 95.8519 12.6154 95.8346 12.5823C95.8086 12.5382 95.973 12.2187 96.1807 11.8661C96.3884 11.5025 96.5441 11.183 96.5182 11.15C96.4922 11.1279 96.2326 11.3152 95.9471 11.5687C95.6528 11.8331 95.3932 11.9984 95.3586 11.9543C95.3154 11.8992 95.2461 11.2381 95.1856 10.4779C95.0298 8.49462 94.9606 8.50564 94.7962 10.5219C94.7356 11.2822 94.6664 11.9433 94.6317 11.9763C94.6058 12.0094 94.3462 11.8331 94.052 11.5797C93.7664 11.3152 93.5155 11.1279 93.4895 11.161C93.4722 11.183 93.602 11.4805 93.7924 11.8111C93.9827 12.1306 94.1385 12.4611 94.1385 12.5272C94.1385 12.6044 93.7664 12.7035 93.1607 12.7917C91.6117 13.001 91.6117 13.1222 93.1693 13.3536C93.7577 13.4417 94.1385 13.5519 94.1385 13.618C94.1385 13.6841 93.9827 14.0147 93.7924 14.3342C93.3857 15.0283 93.351 15.2046 93.6799 14.9292C93.8183 14.83 94.0693 14.6096 94.251 14.4554C94.6664 14.1138 94.701 14.1689 94.7789 15.3589C94.8913 17.1107 95.0211 17.5735 95.125 16.6259Z" fill="#EFB85F"/>
<path d="M39.125 89.6259C39.1509 89.3615 39.1942 88.7335 39.2288 88.2377C39.2634 87.6647 39.324 87.3011 39.3932 87.2681C39.4538 87.235 39.7307 87.4113 39.999 87.6537C40.2759 87.9071 40.5182 88.0834 40.5441 88.0504C40.5615 88.0283 40.397 87.6757 40.1807 87.2791C39.9038 86.7943 39.8086 86.5519 39.8865 86.5189C39.9471 86.4968 40.3884 86.4197 40.8643 86.3426C42.3873 86.1222 42.3787 86.001 40.8384 85.7917C40.3019 85.7145 39.8519 85.6154 39.8346 85.5823C39.8086 85.5382 39.973 85.2187 40.1807 84.8661C40.3884 84.5025 40.5441 84.183 40.5182 84.15C40.4922 84.1279 40.2326 84.3152 39.9471 84.5687C39.6528 84.8331 39.3932 84.9984 39.3586 84.9543C39.3154 84.8992 39.2461 84.2381 39.1856 83.4779C39.0298 81.4946 38.9606 81.5056 38.7962 83.5219C38.7356 84.2822 38.6664 84.9433 38.6317 84.9763C38.6058 85.0094 38.3462 84.8331 38.052 84.5797C37.7664 84.3152 37.5155 84.1279 37.4895 84.161C37.4722 84.183 37.602 84.4805 37.7924 84.8111C37.9827 85.1306 38.1385 85.4611 38.1385 85.5272C38.1385 85.6044 37.7664 85.7035 37.1607 85.7917C35.6117 86.001 35.6117 86.1222 37.1693 86.3536C37.7577 86.4417 38.1385 86.5519 38.1385 86.618C38.1385 86.6841 37.9827 87.0147 37.7924 87.3342C37.3857 88.0283 37.351 88.2046 37.6799 87.9292C37.8183 87.83 38.0693 87.6096 38.251 87.4554C38.6664 87.1138 38.701 87.1689 38.7789 88.3589C38.8913 90.1107 39.0211 90.5735 39.125 89.6259Z" fill="#EFB85F"/>
<path d="M110.125 99.6259C110.151 99.3615 110.194 98.7335 110.229 98.2377C110.263 97.6647 110.324 97.3011 110.393 97.2681C110.454 97.235 110.731 97.4113 110.999 97.6537C111.276 97.9071 111.518 98.0834 111.544 98.0504C111.561 98.0283 111.397 97.6757 111.181 97.2791C110.904 96.7943 110.809 96.5519 110.886 96.5189C110.947 96.4968 111.388 96.4197 111.864 96.3426C113.387 96.1222 113.379 96.001 111.838 95.7917C111.302 95.7145 110.852 95.6154 110.835 95.5823C110.809 95.5382 110.973 95.2187 111.181 94.8661C111.388 94.5025 111.544 94.183 111.518 94.15C111.492 94.1279 111.233 94.3152 110.947 94.5687C110.653 94.8331 110.393 94.9984 110.359 94.9543C110.315 94.8992 110.246 94.2381 110.186 93.4779C110.03 91.4946 109.961 91.5056 109.796 93.5219C109.736 94.2822 109.666 94.9433 109.632 94.9763C109.606 95.0094 109.346 94.8331 109.052 94.5797C108.766 94.3152 108.515 94.1279 108.489 94.161C108.472 94.183 108.602 94.4805 108.792 94.8111C108.983 95.1306 109.138 95.4611 109.138 95.5272C109.138 95.6044 108.766 95.7035 108.161 95.7917C106.612 96.001 106.612 96.1222 108.169 96.3536C108.758 96.4417 109.138 96.5519 109.138 96.618C109.138 96.6841 108.983 97.0147 108.792 97.3342C108.386 98.0283 108.351 98.2046 108.68 97.9292C108.818 97.83 109.069 97.6096 109.251 97.4554C109.666 97.1138 109.701 97.1689 109.779 98.3589C109.891 100.111 110.021 100.573 110.125 99.6259Z" fill="#EFB85F"/>
<path d="M53.125 12.6259C53.1509 12.3615 53.1942 11.7335 53.2288 11.2377C53.2634 10.6647 53.324 10.3011 53.3932 10.2681C53.4538 10.235 53.7307 10.4113 53.999 10.6537C54.2759 10.9071 54.5182 11.0834 54.5441 11.0504C54.5615 11.0283 54.397 10.6757 54.1807 10.2791C53.9038 9.7943 53.8086 9.55191 53.8865 9.51885C53.9471 9.49682 54.3884 9.41969 54.8643 9.34256C56.3873 9.1222 56.3787 9.001 54.8384 8.79166C54.3019 8.71453 53.8519 8.61537 53.8346 8.58232C53.8086 8.53825 53.973 8.21872 54.1807 7.86614C54.3884 7.50255 54.5441 7.18302 54.5182 7.14997C54.4922 7.12793 54.2326 7.31524 53.9471 7.56866C53.6528 7.83309 53.3932 7.99836 53.3586 7.95429C53.3154 7.8992 53.2461 7.23811 53.1856 6.47787C53.0298 4.49462 52.9606 4.50564 52.7962 6.52194C52.7356 7.28219 52.6664 7.94327 52.6317 7.97632C52.6058 8.00938 52.3462 7.83309 52.052 7.57967C51.7664 7.31524 51.5155 7.12793 51.4895 7.16099C51.4722 7.18302 51.602 7.48051 51.7924 7.81105C51.9827 8.13058 52.1385 8.46112 52.1385 8.52723C52.1385 8.60435 51.7664 8.70352 51.1607 8.79166C49.6117 9.001 49.6117 9.1222 51.1693 9.35358C51.7577 9.44173 52.1385 9.55191 52.1385 9.61802C52.1385 9.68412 51.9827 10.0147 51.7924 10.3342C51.3857 11.0283 51.351 11.2046 51.6799 10.9292C51.8183 10.83 52.0693 10.6096 52.251 10.4554C52.6664 10.1138 52.701 10.1689 52.7789 11.3589C52.8913 13.1107 53.0211 13.5735 53.125 12.6259Z" fill="#EFB85F"/>
<circle cx="26" cy="81" r="1" fill="#EFB85F"/>
<circle cx="57" cy="96" r="1" fill="#EFB85F"/>
<circle cx="111" cy="84" r="1" fill="#EFB85F"/>
<circle cx="139" cy="16" r="1" fill="#EFB85F"/>
<circle cx="143" cy="55" r="1" fill="#EFB85F"/>
<circle cx="139" cy="93" r="1" fill="#EFB85F"/>
<circle cx="36" cy="10" r="1" fill="#EFB85F"/>
<circle cx="75" cy="6" r="1" fill="#EFB85F"/>
<path d="M30.1536 96.762L33.0001 96.6487L30.1536 96.5354L31.0464 95.3761L30.0932 96.4619L30 93L29.9069 96.4619L28.9537 95.3761L29.8465 96.5354L27 96.6487L29.8465 96.762L28.9537 97.9212L29.9069 96.8354L30 100.297L30.0932 96.8354L31.0464 97.9212L30.1536 96.762Z" fill="#EFB85F"/>
<path d="M11.1536 76.762L14.0001 76.6487L11.1536 76.5354L12.0464 75.3761L11.0932 76.4619L11 73L10.9069 76.4619L9.95375 75.3761L10.8465 76.5354L8 76.6487L10.8465 76.762L9.95375 77.9212L10.9069 76.8354L11 80.2973L11.0932 76.8354L12.0464 77.9212L11.1536 76.762Z" fill="#EFB85F"/>
<path d="M68.1536 11.762L71.0001 11.6487L68.1536 11.5354L69.0464 10.3761L68.0932 11.4619L68 8L67.9069 11.4619L66.9537 10.3761L67.8465 11.5354L65 11.6487L67.8465 11.762L66.9537 12.9212L67.9069 11.8354L68 15.2973L68.0932 11.8354L69.0464 12.9212L68.1536 11.762Z" fill="#EFB85F"/>
<path d="M137.154 76.762L140 76.6487L137.154 76.5354L138.046 75.3761L137.093 76.4619L137 73L136.907 76.4619L135.954 75.3761L136.847 76.5354L134 76.6487L136.847 76.762L135.954 77.9212L136.907 76.8354L137 80.2973L137.093 76.8354L138.046 77.9212L137.154 76.762Z" fill="#EFB85F"/>
<path d="M129.154 95.762L132 95.6487L129.154 95.5354L130.046 94.3761L129.093 95.4619L129 92L128.907 95.4619L127.954 94.3761L128.847 95.5354L126 95.6487L128.847 95.762L127.954 96.9212L128.907 95.8354L129 99.2973L129.093 95.8354L130.046 96.9212L129.154 95.762Z" fill="#EFB85F"/>
<path d="M8.15357 18.762L11.0001 18.6487L8.15357 18.5354L9.04635 17.3761L8.09316 18.4619L8.00005 15L7.90694 18.4619L6.95375 17.3761L7.84653 18.5354L5 18.6487L7.84653 18.762L6.95375 19.9212L7.90694 18.8354L8.00005 22.2973L8.09316 18.8354L9.04635 19.9212L8.15357 18.762Z" fill="#EFB85F"/>
</svg>
