<svg width="148" height="105" viewBox="0 0 148 105" fill="none" xmlns="http://www.w3.org/2000/svg">
<rect width="147.402" height="104.882" rx="10" fill="black"/>
<path d="M10.7614 42.0806C10.7614 42.0545 10.7744 42.0415 10.8004 42.0415H10.9078L12.4752 42.0073C12.664 42.0008 12.8691 41.9976 13.0905 41.9976H13.7008C14.2672 41.9976 14.692 42.0187 14.9752 42.061C15.2617 42.1034 15.5416 42.1538 15.8151 42.2124C16.0918 42.2677 16.3847 42.3963 16.694 42.5981C17.0065 42.8 17.2767 43.0441 17.5045 43.3306C17.9863 43.9425 18.2272 44.6034 18.2272 45.313C18.2272 46.0226 18.0416 46.659 17.6705 47.2222C17.1367 48.0392 16.3636 48.5731 15.3512 48.8237C15.0289 48.9019 14.6985 48.9409 14.36 48.9409H10.8004C10.7744 48.9409 10.7614 48.9279 10.7614 48.9019V48.7651C10.7614 48.7391 10.7744 48.7261 10.8004 48.7261H10.9078C11.5003 48.7261 11.7965 48.5373 11.7965 48.1597V42.8081C11.7965 42.6258 11.7265 42.4891 11.5865 42.3979C11.4466 42.3035 11.2887 42.2563 11.1129 42.2563H10.8004C10.7744 42.2563 10.7614 42.2433 10.7614 42.2173V42.0806ZM12.8707 42.2271C12.7893 42.2271 12.7487 42.271 12.7487 42.3589V48.3306C12.7487 48.5715 12.9749 48.6968 13.4274 48.7065C13.5608 48.7098 13.7008 48.7114 13.8473 48.7114C14.8857 48.7114 15.7011 48.4201 16.2936 47.8374C16.8893 47.2547 17.1871 46.48 17.1871 45.5132C17.1871 44.5431 16.9121 43.7537 16.3619 43.145C15.8151 42.533 15.094 42.2271 14.1989 42.2271H12.8707ZM19.7946 46.3677C19.7392 46.3677 19.7115 46.4865 19.7115 46.7241C19.7115 47.2287 19.8613 47.6519 20.1608 47.9937C20.4602 48.3354 20.8313 48.5063 21.274 48.5063C21.72 48.5063 22.1481 48.3143 22.5582 47.9302C22.5647 47.9237 22.5729 47.9204 22.5826 47.9204H22.6071C22.6266 47.9204 22.6445 47.9367 22.6608 47.9692C22.6803 47.9985 22.6982 48.0181 22.7145 48.0278C22.3369 48.4868 21.8925 48.8042 21.3815 48.98C21.2057 49.0418 21.0071 49.0728 20.7858 49.0728C20.5644 49.0728 20.3398 49.0125 20.1119 48.8921C19.8841 48.7684 19.6888 48.6073 19.526 48.4087C19.1809 47.9953 19.0084 47.481 19.0084 46.8657C19.0084 46.2472 19.1956 45.6841 19.5699 45.1763C19.9476 44.6685 20.4651 44.4146 21.1227 44.4146C21.5947 44.4146 21.9804 44.6261 22.2799 45.0493C22.5794 45.4692 22.7291 45.8387 22.7291 46.1577C22.7291 46.2977 22.6949 46.3677 22.6266 46.3677H19.7946ZM19.8483 45.8989C19.8483 45.9608 19.8776 45.9917 19.9362 45.9917H21.777C21.8616 45.9917 21.9039 45.9412 21.9039 45.8403C21.9039 45.606 21.7981 45.3667 21.5865 45.1226C21.3782 44.8752 21.1487 44.7515 20.8981 44.7515C20.6539 44.7515 20.4309 44.8621 20.2291 45.0835C20.0306 45.3049 19.9036 45.5571 19.8483 45.8403V45.8989ZM25.9176 45.6011C25.9176 45.6727 25.8899 45.7085 25.8346 45.7085C25.7825 45.7085 25.7418 45.6694 25.7125 45.5913C25.6344 45.3765 25.5172 45.186 25.361 45.02C25.208 44.854 25.0175 44.771 24.7897 44.771C24.4902 44.771 24.2884 44.9207 24.1842 45.2202C24.1517 45.3211 24.1354 45.4253 24.1354 45.5327C24.1354 45.6401 24.2037 45.7606 24.3405 45.894C24.4772 46.0243 24.7018 46.1805 25.0143 46.3628C25.3268 46.5451 25.5546 46.6997 25.6979 46.8267C26.0234 47.1164 26.1862 47.4517 26.1862 47.8325C26.1862 48.2134 26.0462 48.5161 25.7662 48.7407C25.4863 48.9621 25.1608 49.0728 24.7897 49.0728C24.5911 49.0728 24.4104 49.0451 24.2477 48.9897C24.0882 48.9377 23.9954 48.9116 23.9694 48.9116C23.9466 48.9116 23.9075 48.9377 23.8522 48.9897C23.8001 49.0451 23.7578 49.0728 23.7252 49.0728H23.6422C23.6227 49.0728 23.5983 48.897 23.569 48.5454C23.5397 48.1938 23.525 47.9855 23.525 47.9204C23.525 47.8553 23.5299 47.8195 23.5397 47.813C23.5527 47.8065 23.5722 47.8032 23.5983 47.8032C23.6243 47.8032 23.6455 47.8114 23.6617 47.8276C23.6813 47.8439 23.6976 47.8651 23.7106 47.8911C23.7236 47.9139 23.7334 47.9383 23.7399 47.9644C23.7496 47.9904 23.7708 48.0392 23.8033 48.1108C24.0247 48.5828 24.3665 48.8188 24.8287 48.8188C25.0338 48.8188 25.1982 48.744 25.3219 48.5942C25.4456 48.4412 25.5074 48.272 25.5074 48.0864C25.5074 47.9009 25.4586 47.7446 25.361 47.6177C25.2633 47.4907 25.1412 47.3752 24.9948 47.271C24.8515 47.1668 24.6953 47.0659 24.526 46.9683C23.8684 46.5841 23.5397 46.1593 23.5397 45.6938C23.5397 45.3455 23.6894 45.0461 23.9889 44.7954C24.2884 44.5415 24.596 44.4146 24.9117 44.4146C25.2275 44.4146 25.4602 44.4487 25.61 44.5171C25.763 44.5854 25.8525 44.644 25.8785 44.6929C25.9046 44.7384 25.9176 44.8914 25.9176 45.1519V45.6011ZM31.9528 45.6011C31.9528 45.6727 31.9251 45.7085 31.8698 45.7085C31.8177 45.7085 31.777 45.6694 31.7477 45.5913C31.6696 45.3765 31.5524 45.186 31.3961 45.02C31.2431 44.854 31.0527 44.771 30.8248 44.771C30.5253 44.771 30.3235 44.9207 30.2194 45.2202C30.1868 45.3211 30.1705 45.4253 30.1705 45.5327C30.1705 45.6401 30.2389 45.7606 30.3756 45.894C30.5123 46.0243 30.7369 46.1805 31.0494 46.3628C31.3619 46.5451 31.5898 46.6997 31.733 46.8267C32.0586 47.1164 32.2213 47.4517 32.2213 47.8325C32.2213 48.2134 32.0813 48.5161 31.8014 48.7407C31.5214 48.9621 31.1959 49.0728 30.8248 49.0728C30.6263 49.0728 30.4456 49.0451 30.2828 48.9897C30.1233 48.9377 30.0306 48.9116 30.0045 48.9116C29.9817 48.9116 29.9427 48.9377 29.8873 48.9897C29.8352 49.0451 29.7929 49.0728 29.7604 49.0728H29.6774C29.6578 49.0728 29.6334 48.897 29.6041 48.5454C29.5748 48.1938 29.5602 47.9855 29.5602 47.9204C29.5602 47.8553 29.5651 47.8195 29.5748 47.813C29.5878 47.8065 29.6074 47.8032 29.6334 47.8032C29.6595 47.8032 29.6806 47.8114 29.6969 47.8276C29.7164 47.8439 29.7327 47.8651 29.7457 47.8911C29.7587 47.9139 29.7685 47.9383 29.775 47.9644C29.7848 47.9904 29.8059 48.0392 29.8385 48.1108C30.0599 48.5828 30.4017 48.8188 30.8639 48.8188C31.069 48.8188 31.2334 48.744 31.3571 48.5942C31.4808 48.4412 31.5426 48.272 31.5426 48.0864C31.5426 47.9009 31.4938 47.7446 31.3961 47.6177C31.2985 47.4907 31.1764 47.3752 31.0299 47.271C30.8867 47.1668 30.7304 47.0659 30.5612 46.9683C29.9036 46.5841 29.5748 46.1593 29.5748 45.6938C29.5748 45.3455 29.7246 45.0461 30.024 44.7954C30.3235 44.5415 30.6311 44.4146 30.9469 44.4146C31.2627 44.4146 31.4954 44.4487 31.6451 44.5171C31.7981 44.5854 31.8877 44.644 31.9137 44.6929C31.9397 44.7384 31.9528 44.8914 31.9528 45.1519V45.6011ZM37.6998 44.5464C37.7356 44.5562 37.7535 44.5789 37.7535 44.6147C37.7535 44.6506 37.7503 44.675 37.7438 44.688C37.7373 44.6978 37.721 44.7075 37.6949 44.7173C37.6722 44.7238 37.638 44.7303 37.5924 44.7368C37.5501 44.7433 37.4817 44.7563 37.3873 44.7759C37.2929 44.7922 37.2083 44.8573 37.1334 44.9712C37.0586 45.0851 36.9788 45.243 36.8942 45.4448L34.5992 51.1333L34.2819 51.8071C34.2005 51.9797 34.0296 52.0659 33.7692 52.0659C33.6552 52.0659 33.5641 52.0285 33.4957 51.9536C33.4274 51.8787 33.3932 51.7892 33.3932 51.6851C33.3932 51.5841 33.4176 51.5093 33.4664 51.4604C33.5185 51.4149 33.5787 51.3774 33.6471 51.3481C33.7155 51.3188 33.7854 51.2912 33.8571 51.2651C33.9319 51.2424 34.0149 51.187 34.1061 51.0991C34.1972 51.0145 34.2509 50.951 34.2672 50.9087C34.8141 49.6847 35.0875 49.0451 35.0875 48.9897C35.0875 48.9344 35.055 48.866 34.9899 48.7847L33.3785 45.4204C33.2581 45.0916 33.0514 44.88 32.7584 44.7856C32.7356 44.7791 32.708 44.7743 32.6754 44.771C32.5387 44.758 32.4703 44.7173 32.4703 44.6489C32.4703 44.5806 32.5094 44.5464 32.5875 44.5464H34.7604C34.7864 44.5464 34.7994 44.5724 34.7994 44.6245C34.7994 44.6733 34.7767 44.7075 34.7311 44.7271C34.6855 44.7433 34.5846 44.7515 34.4283 44.7515C34.1777 44.7515 34.0524 44.8491 34.0524 45.0444L34.0963 45.1616L35.361 47.8716C35.4261 48.0376 35.4912 48.0327 35.5563 47.8569C35.5628 47.8407 35.6035 47.7349 35.6783 47.5396C36.1211 46.4165 36.3684 45.7671 36.4205 45.5913C36.4759 45.4155 36.5035 45.2837 36.5035 45.1958C36.5035 45.1079 36.4563 45.0151 36.3619 44.9175C36.2708 44.8198 36.1438 44.771 35.9811 44.771C35.8216 44.771 35.7418 44.7238 35.7418 44.6294C35.7418 44.5741 35.7776 44.5464 35.8492 44.5464H37.6998ZM44.653 47.4028L44.6432 46.3726C44.6432 45.9526 44.6074 45.658 44.5358 45.4888C44.4642 45.3195 44.373 45.1925 44.2623 45.1079C44.1517 45.02 44.0019 44.9761 43.8131 44.9761C43.6276 44.9761 43.2321 45.1226 42.6266 45.4155C42.5452 45.4644 42.5029 45.5099 42.4996 45.5522V48.1792C42.4996 48.508 42.6754 48.6968 43.027 48.7456C43.18 48.7684 43.2565 48.8058 43.2565 48.8579C43.2565 48.9067 43.2402 48.9344 43.2076 48.9409H41.0299C40.9974 48.9344 40.9811 48.9116 40.9811 48.8726C40.9811 48.8107 41.0576 48.7684 41.2106 48.7456C41.5621 48.6968 41.7379 48.508 41.7379 48.1792V45.7476C41.7379 45.2365 41.4222 44.981 40.7906 44.981C40.5595 44.981 40.2389 45.1177 39.8287 45.3911C39.7246 45.4595 39.6481 45.5229 39.5992 45.5815V48.1792C39.5992 48.508 39.775 48.6968 40.1266 48.7456C40.2796 48.7684 40.3561 48.8058 40.3561 48.8579C40.3561 48.9067 40.3398 48.9344 40.3073 48.9409H38.1295C38.097 48.9344 38.0807 48.9116 38.0807 48.8726C38.0807 48.8107 38.1572 48.7684 38.3102 48.7456C38.6617 48.6968 38.8375 48.5112 38.8375 48.189V45.3765C38.8375 45.2397 38.7627 45.1453 38.6129 45.0933C38.5478 45.0705 38.4778 45.0526 38.403 45.0396C38.3281 45.0233 38.2679 45.0086 38.2223 44.9956C38.18 44.9826 38.1523 44.9712 38.1393 44.9614C38.1295 44.9484 38.1246 44.924 38.1246 44.8882C38.1246 44.8491 38.149 44.8166 38.1979 44.7905L39.443 44.2046C39.4821 44.1851 39.5065 44.1753 39.5162 44.1753C39.5716 44.1753 39.5992 44.2144 39.5992 44.2925V45.103C39.6025 45.1226 39.6139 45.1323 39.6334 45.1323C39.6562 45.1323 39.7099 45.1095 39.7946 45.064C39.8824 45.0184 39.9964 44.9549 40.1364 44.8735C40.2763 44.7889 40.4602 44.6912 40.6881 44.5806C40.9192 44.4699 41.1634 44.4146 41.4205 44.4146C41.8339 44.4146 42.1302 44.592 42.3092 44.9468C42.3776 45.09 42.4394 45.1519 42.4948 45.1323C42.5501 45.1095 42.6364 45.0688 42.7535 45.0103C43.0302 44.8735 43.3102 44.7401 43.5934 44.6099C43.8766 44.4797 44.111 44.4146 44.2965 44.4146C45.0485 44.4146 45.4244 45.0998 45.4244 46.4702L45.3805 47.896V48.1792C45.3805 48.4331 45.5074 48.5991 45.7614 48.6772C45.8688 48.7131 45.9713 48.7391 46.069 48.7554C46.1699 48.7684 46.235 48.7814 46.2643 48.7944C46.2968 48.8075 46.3131 48.8335 46.3131 48.8726C46.3131 48.9116 46.2968 48.9344 46.2643 48.9409H43.9108C43.8782 48.9344 43.8619 48.9116 43.8619 48.8726C43.8619 48.8107 43.9384 48.7684 44.0914 48.7456C44.4397 48.6968 44.6139 48.495 44.6139 48.1401C44.6399 47.9774 44.653 47.7316 44.653 47.4028ZM47.8658 44.854C47.8658 44.9549 47.8886 45.0054 47.9342 45.0054C47.983 45.0054 48.1914 44.8996 48.5592 44.688C48.9889 44.5057 49.316 44.4146 49.5406 44.4146C49.7653 44.4146 49.9801 44.4797 50.1852 44.6099C50.3903 44.7401 50.5644 44.911 50.7076 45.1226C51.0104 45.5588 51.1617 46.0877 51.1617 46.7095C51.1617 47.3312 50.9453 47.8813 50.5123 48.3599C50.0826 48.8351 49.5146 49.0728 48.8082 49.0728C48.3492 49.0728 47.9261 49.0174 47.5387 48.9067C47.4248 48.8742 47.3271 48.8481 47.2457 48.8286C47.1676 48.8091 47.1237 48.7896 47.1139 48.77C47.1074 48.7472 47.1041 48.7212 47.1041 48.6919V42.1099C47.1041 41.9731 47.0293 41.8787 46.8795 41.8267C46.8144 41.8039 46.7444 41.786 46.6696 41.7729C46.5947 41.7567 46.5345 41.742 46.4889 41.729C46.4466 41.716 46.4189 41.7046 46.4059 41.6948C46.3961 41.6818 46.3912 41.6574 46.3912 41.6216C46.3912 41.5825 46.4156 41.55 46.4645 41.5239L47.7096 40.938C47.7487 40.9185 47.7731 40.9087 47.7828 40.9087C47.8382 40.9087 47.8658 40.9478 47.8658 41.0259V44.854ZM48.901 45.0103C48.6113 45.0103 48.2858 45.1144 47.9244 45.3228C47.8854 45.3455 47.8658 45.3846 47.8658 45.4399V47.7495C47.8984 48.0457 48.027 48.2769 48.2516 48.4429C48.4762 48.6089 48.722 48.6919 48.9889 48.6919C49.4576 48.6919 49.819 48.5063 50.0729 48.1353C50.33 47.7642 50.4586 47.341 50.4586 46.8657C50.4586 46.3905 50.3284 45.9624 50.068 45.5815C49.8076 45.2007 49.4186 45.0103 48.901 45.0103ZM52.0699 46.7485C52.0699 46.1073 52.2962 45.5571 52.7487 45.0981C53.2044 44.6359 53.7496 44.4048 54.3844 44.4048C55.0192 44.4048 55.5709 44.6294 56.0397 45.0786C56.5084 45.5246 56.7428 46.0763 56.7428 46.7339C56.7428 47.3914 56.5198 47.9465 56.0739 48.3989C55.6311 48.8481 55.0745 49.0728 54.4039 49.0728C53.7334 49.0728 53.1767 48.8449 52.734 48.3892C52.2913 47.9334 52.0699 47.3866 52.0699 46.7485ZM53.2858 48.0034C53.6048 48.5405 54.0393 48.8091 54.5895 48.8091C55.0159 48.8091 55.3414 48.6382 55.566 48.2964C55.7939 47.9546 55.9078 47.5347 55.9078 47.0366C55.9078 46.5386 55.7483 46.0275 55.4293 45.5034C55.1136 44.9793 54.6871 44.7173 54.15 44.7173C53.7561 44.7173 53.4453 44.8882 53.2174 45.23C52.9928 45.5685 52.8805 45.9998 52.8805 46.5239C52.8805 47.0448 53.0156 47.5379 53.2858 48.0034ZM59.2574 48.7554C59.4104 48.7749 59.4869 48.814 59.4869 48.8726C59.4869 48.9116 59.4707 48.9344 59.4381 48.9409H57.2604C57.2278 48.9344 57.2115 48.9116 57.2115 48.8726C57.2115 48.814 57.288 48.7749 57.441 48.7554C57.7926 48.7033 57.9684 48.5177 57.9684 48.1987V42.1099C57.9684 41.9731 57.8935 41.8787 57.7438 41.8267C57.6787 41.8039 57.6087 41.786 57.5338 41.7729C57.4589 41.7567 57.3987 41.742 57.3531 41.729C57.3108 41.716 57.2832 41.7046 57.2701 41.6948C57.2604 41.6818 57.2555 41.6574 57.2555 41.6216C57.2555 41.5825 57.2799 41.55 57.3287 41.5239L58.5739 40.938C58.6129 40.9185 58.6373 40.9087 58.6471 40.9087C58.7024 40.9087 58.7301 40.9478 58.7301 41.0259V48.1987C58.7301 48.5177 58.9059 48.7033 59.2574 48.7554ZM60.7906 46.3677C60.7353 46.3677 60.7076 46.4865 60.7076 46.7241C60.7076 47.2287 60.8574 47.6519 61.1569 47.9937C61.4563 48.3354 61.8274 48.5063 62.2701 48.5063C62.7161 48.5063 63.1442 48.3143 63.5543 47.9302C63.5608 47.9237 63.569 47.9204 63.5787 47.9204H63.6031C63.6227 47.9204 63.6406 47.9367 63.6569 47.9692C63.6764 47.9985 63.6943 48.0181 63.7106 48.0278C63.333 48.4868 62.8886 48.8042 62.3776 48.98C62.2018 49.0418 62.0032 49.0728 61.7819 49.0728C61.5605 49.0728 61.3359 49.0125 61.108 48.8921C60.8802 48.7684 60.6849 48.6073 60.5221 48.4087C60.177 47.9953 60.0045 47.481 60.0045 46.8657C60.0045 46.2472 60.1917 45.6841 60.566 45.1763C60.9436 44.6685 61.4612 44.4146 62.1188 44.4146C62.5908 44.4146 62.9765 44.6261 63.276 45.0493C63.5755 45.4692 63.7252 45.8387 63.7252 46.1577C63.7252 46.2977 63.691 46.3677 63.6227 46.3677H60.7906ZM60.8444 45.8989C60.8444 45.9608 60.8737 45.9917 60.9323 45.9917H62.7731C62.8577 45.9917 62.9 45.9412 62.9 45.8403C62.9 45.606 62.7942 45.3667 62.5826 45.1226C62.3743 44.8752 62.1448 44.7515 61.8942 44.7515C61.65 44.7515 61.427 44.8621 61.2252 45.0835C61.0267 45.3049 60.8997 45.5571 60.8444 45.8403V45.8989ZM69.5992 45.6011C69.5992 45.6727 69.5716 45.7085 69.5162 45.7085C69.4642 45.7085 69.4235 45.6694 69.3942 45.5913C69.316 45.3765 69.1989 45.186 69.0426 45.02C68.8896 44.854 68.6992 44.771 68.4713 44.771C68.1718 44.771 67.97 44.9207 67.8658 45.2202C67.8333 45.3211 67.817 45.4253 67.817 45.5327C67.817 45.6401 67.8854 45.7606 68.0221 45.894C68.1588 46.0243 68.3834 46.1805 68.6959 46.3628C69.0084 46.5451 69.2363 46.6997 69.3795 46.8267C69.705 47.1164 69.8678 47.4517 69.8678 47.8325C69.8678 48.2134 69.7278 48.5161 69.4479 48.7407C69.1679 48.9621 68.8424 49.0728 68.4713 49.0728C68.2727 49.0728 68.0921 49.0451 67.9293 48.9897C67.7698 48.9377 67.677 48.9116 67.651 48.9116C67.6282 48.9116 67.5892 48.9377 67.5338 48.9897C67.4817 49.0451 67.4394 49.0728 67.4069 49.0728H67.3239C67.3043 49.0728 67.2799 48.897 67.2506 48.5454C67.2213 48.1938 67.2067 47.9855 67.2067 47.9204C67.2067 47.8553 67.2115 47.8195 67.2213 47.813C67.2343 47.8065 67.2539 47.8032 67.2799 47.8032C67.3059 47.8032 67.3271 47.8114 67.3434 47.8276C67.3629 47.8439 67.3792 47.8651 67.3922 47.8911C67.4052 47.9139 67.415 47.9383 67.4215 47.9644C67.4313 47.9904 67.4524 48.0392 67.485 48.1108C67.7063 48.5828 68.0481 48.8188 68.5104 48.8188C68.7155 48.8188 68.8798 48.744 69.0035 48.5942C69.1272 48.4412 69.1891 48.272 69.1891 48.0864C69.1891 47.9009 69.1403 47.7446 69.0426 47.6177C68.9449 47.4907 68.8229 47.3752 68.6764 47.271C68.5332 47.1668 68.3769 47.0659 68.2076 46.9683C67.5501 46.5841 67.2213 46.1593 67.2213 45.6938C67.2213 45.3455 67.3711 45.0461 67.6705 44.7954C67.97 44.5415 68.2776 44.4146 68.5934 44.4146C68.9091 44.4146 69.1419 44.4487 69.2916 44.5171C69.4446 44.5854 69.5341 44.644 69.5602 44.6929C69.5862 44.7384 69.5992 44.8914 69.5992 45.1519V45.6011ZM70.6051 46.7485C70.6051 46.1073 70.8313 45.5571 71.2838 45.0981C71.7395 44.6359 72.2848 44.4048 72.9196 44.4048C73.5543 44.4048 74.1061 44.6294 74.5748 45.0786C75.0436 45.5246 75.278 46.0763 75.278 46.7339C75.278 47.3914 75.055 47.9465 74.609 48.3989C74.1663 48.8481 73.6097 49.0728 72.9391 49.0728C72.2685 49.0728 71.7119 48.8449 71.2692 48.3892C70.8265 47.9334 70.6051 47.3866 70.6051 46.7485ZM71.8209 48.0034C72.1399 48.5405 72.5745 48.8091 73.1246 48.8091C73.5511 48.8091 73.8766 48.6382 74.1012 48.2964C74.3291 47.9546 74.443 47.5347 74.443 47.0366C74.443 46.5386 74.2835 46.0275 73.9645 45.5034C73.6487 44.9793 73.2223 44.7173 72.6852 44.7173C72.2913 44.7173 71.9804 44.8882 71.7526 45.23C71.528 45.5685 71.4156 45.9998 71.4156 46.5239C71.4156 47.0448 71.5507 47.5379 71.8209 48.0034ZM79.5748 47.4028L79.5651 46.3726C79.5651 45.9526 79.5293 45.658 79.4576 45.4888C79.386 45.3195 79.2949 45.1925 79.1842 45.1079C79.0735 45.02 78.9238 44.9761 78.735 44.9761C78.5494 44.9761 78.1539 45.1226 77.5485 45.4155C77.4671 45.4644 77.4248 45.5099 77.4215 45.5522V48.1792C77.4215 48.508 77.5973 48.6968 77.9489 48.7456C78.1018 48.7684 78.1783 48.8058 78.1783 48.8579C78.1783 48.9067 78.1621 48.9344 78.1295 48.9409H75.9518C75.9192 48.9344 75.903 48.9116 75.903 48.8726C75.903 48.8107 75.9795 48.7684 76.1324 48.7456C76.484 48.6968 76.6598 48.508 76.6598 48.1792V45.3765C76.6598 45.2397 76.5849 45.1453 76.4352 45.0933C76.3701 45.0705 76.3001 45.0526 76.2252 45.0396C76.1503 45.0233 76.0901 45.0086 76.0446 44.9956C76.0022 44.9826 75.9746 44.9712 75.9615 44.9614C75.9518 44.9484 75.9469 44.924 75.9469 44.8882C75.9469 44.8491 75.9713 44.8166 76.0201 44.7905L77.2653 44.2046C77.3043 44.1851 77.3287 44.1753 77.3385 44.1753C77.3938 44.1753 77.4215 44.2144 77.4215 44.2925V45.0542C77.4313 45.0868 77.4443 45.103 77.4606 45.103C77.4801 45.103 77.5501 45.0737 77.6705 45.0151C77.9505 44.8752 78.2321 44.7401 78.5153 44.6099C78.7985 44.4797 79.0328 44.4146 79.2184 44.4146C79.9703 44.4146 80.3463 45.0998 80.3463 46.4702L80.3024 47.896V48.1792C80.3024 48.4331 80.4293 48.5991 80.6832 48.6772C80.7906 48.7131 80.8932 48.7391 80.9908 48.7554C81.0918 48.7684 81.1569 48.7814 81.1862 48.7944C81.2187 48.8075 81.235 48.8335 81.235 48.8726C81.235 48.9116 81.2187 48.9344 81.1862 48.9409H78.8326C78.8001 48.9344 78.7838 48.9116 78.7838 48.8726C78.7838 48.8107 78.8603 48.7684 79.0133 48.7456C79.3616 48.6968 79.5358 48.495 79.5358 48.1401C79.5618 47.9774 79.5748 47.7316 79.5748 47.4028ZM86.7281 45.6011C86.7281 45.6727 86.7005 45.7085 86.6451 45.7085C86.5931 45.7085 86.5524 45.6694 86.5231 45.5913C86.4449 45.3765 86.3278 45.186 86.1715 45.02C86.0185 44.854 85.8281 44.771 85.6002 44.771C85.3007 44.771 85.0989 44.9207 84.9948 45.2202C84.9622 45.3211 84.9459 45.4253 84.9459 45.5327C84.9459 45.6401 85.0143 45.7606 85.151 45.894C85.2877 46.0243 85.5123 46.1805 85.8248 46.3628C86.1373 46.5451 86.3652 46.6997 86.5084 46.8267C86.8339 47.1164 86.9967 47.4517 86.9967 47.8325C86.9967 48.2134 86.8567 48.5161 86.5768 48.7407C86.2968 48.9621 85.9713 49.0728 85.6002 49.0728C85.4017 49.0728 85.221 49.0451 85.0582 48.9897C84.8987 48.9377 84.8059 48.9116 84.7799 48.9116C84.7571 48.9116 84.7181 48.9377 84.6627 48.9897C84.6106 49.0451 84.5683 49.0728 84.5358 49.0728H84.4528C84.4332 49.0728 84.4088 48.897 84.3795 48.5454C84.3502 48.1938 84.3356 47.9855 84.3356 47.9204C84.3356 47.8553 84.3405 47.8195 84.3502 47.813C84.3632 47.8065 84.3828 47.8032 84.4088 47.8032C84.4349 47.8032 84.456 47.8114 84.4723 47.8276C84.4918 47.8439 84.5081 47.8651 84.5211 47.8911C84.5341 47.9139 84.5439 47.9383 84.5504 47.9644C84.5602 47.9904 84.5813 48.0392 84.6139 48.1108C84.8352 48.5828 85.177 48.8188 85.6393 48.8188C85.8444 48.8188 86.0087 48.744 86.1324 48.5942C86.2561 48.4412 86.318 48.272 86.318 48.0864C86.318 47.9009 86.2692 47.7446 86.1715 47.6177C86.0739 47.4907 85.9518 47.3752 85.8053 47.271C85.6621 47.1668 85.5058 47.0659 85.3365 46.9683C84.679 46.5841 84.3502 46.1593 84.3502 45.6938C84.3502 45.3455 84.5 45.0461 84.7994 44.7954C85.0989 44.5415 85.4065 44.4146 85.7223 44.4146C86.038 44.4146 86.2708 44.4487 86.4205 44.5171C86.5735 44.5854 86.663 44.644 86.6891 44.6929C86.7151 44.7384 86.7281 44.8914 86.7281 45.1519V45.6011ZM91.0494 48.5112C91.0332 48.4559 91.012 48.438 90.986 48.4575C90.9599 48.4738 90.8541 48.5291 90.6686 48.6235C90.0599 48.9263 89.552 49.0776 89.1451 49.0776C88.7382 49.0776 88.4453 48.9474 88.2662 48.687C88.2011 48.5894 88.1686 48.4689 88.1686 48.3257V45.3472C88.1588 45.2528 88.1165 45.1714 88.0416 45.103C87.9407 45.0184 87.8349 44.9728 87.7242 44.9663C87.6168 44.9598 87.5631 44.9272 87.5631 44.8687C87.5631 44.8068 87.5892 44.7694 87.6412 44.7563L88.7594 44.4341C88.7985 44.4211 88.8359 44.4146 88.8717 44.4146C88.9108 44.4146 88.9303 44.4422 88.9303 44.4976V47.7739C88.9303 48.0018 89.0312 48.1776 89.233 48.3013C89.4349 48.425 89.692 48.4868 90.0045 48.4868C90.3203 48.4868 90.6035 48.3908 90.8541 48.1987C90.9323 48.1369 90.9974 48.0685 91.0494 47.9937V45.3472C91.0397 45.2528 90.9974 45.1714 90.9225 45.103C90.8216 45.0184 90.7158 44.9728 90.6051 44.9663C90.4977 44.9598 90.444 44.9272 90.444 44.8687C90.444 44.8068 90.47 44.7694 90.5221 44.7563L91.6403 44.4341C91.6793 44.4211 91.7168 44.4146 91.7526 44.4146C91.7916 44.4146 91.8112 44.4471 91.8112 44.5122V47.979C91.8274 48.1222 91.8681 48.2248 91.9332 48.2866C91.9983 48.3485 92.1041 48.3794 92.2506 48.3794L92.5338 48.3599C92.5533 48.3599 92.5631 48.3794 92.5631 48.4185C92.5631 48.4543 92.5387 48.4836 92.4899 48.5063L91.191 49.0435C91.152 49.063 91.1178 49.0728 91.0885 49.0728C91.0625 49.0728 91.0494 49.0321 91.0494 48.9507V48.5112ZM96.1666 45.4399C96.1276 45.4334 96.0706 45.4123 95.9957 45.3765C95.7255 45.2528 95.514 45.1909 95.361 45.1909C95.208 45.1909 95.0468 45.2869 94.8776 45.479C94.7115 45.6678 94.6285 45.8387 94.6285 45.9917V48.1987C94.6285 48.4429 94.7701 48.6056 95.0533 48.687C95.177 48.7196 95.2926 48.744 95.4 48.7603C95.5074 48.7733 95.5758 48.7863 95.6051 48.7993C95.6377 48.8123 95.6539 48.8384 95.6539 48.8774C95.6539 48.9132 95.6377 48.9344 95.6051 48.9409H93.1588C93.1263 48.9344 93.11 48.9116 93.11 48.8726C93.11 48.814 93.1865 48.7749 93.3395 48.7554C93.691 48.7033 93.8668 48.5177 93.8668 48.1987V45.6157C93.8668 45.479 93.792 45.3846 93.6422 45.3325C93.5771 45.3097 93.5071 45.2918 93.4323 45.2788C93.3574 45.2625 93.2972 45.2479 93.2516 45.2349C93.2093 45.2218 93.1816 45.2104 93.1686 45.2007C93.1588 45.1877 93.1539 45.1632 93.1539 45.1274C93.1539 45.0884 93.1783 45.0558 93.2272 45.0298L94.4723 44.4438C94.5114 44.4243 94.5358 44.4146 94.5455 44.4146C94.6009 44.4146 94.6285 44.4536 94.6285 44.5317V45.3228C94.6285 45.3618 94.6383 45.3813 94.6578 45.3813C94.6839 45.3813 94.7506 45.3049 94.858 45.1519C95.1673 44.7189 95.4228 44.5024 95.6246 44.5024C95.7386 44.5024 95.9127 44.548 96.1471 44.6392C96.3847 44.7303 96.5035 44.8068 96.5035 44.8687C96.5035 44.9435 96.4661 45.0575 96.3912 45.2104C96.3164 45.3634 96.2415 45.4399 96.1666 45.4399ZM101.338 48.7554C101.491 48.7749 101.567 48.814 101.567 48.8726C101.567 48.9116 101.551 48.9344 101.518 48.9409H99.3405C99.3079 48.9344 99.2916 48.9116 99.2916 48.8726C99.2916 48.814 99.3681 48.7749 99.5211 48.7554C99.8727 48.7033 100.048 48.5177 100.048 48.1987V42.1099C100.048 41.9731 99.9736 41.8787 99.8239 41.8267C99.7587 41.8039 99.6888 41.786 99.6139 41.7729C99.539 41.7567 99.4788 41.742 99.4332 41.729C99.3909 41.716 99.3632 41.7046 99.3502 41.6948C99.3405 41.6818 99.3356 41.6574 99.3356 41.6216C99.3356 41.5825 99.36 41.55 99.4088 41.5239L100.654 40.938C100.693 40.9185 100.717 40.9087 100.727 40.9087C100.783 40.9087 100.81 40.9478 100.81 41.0259V48.1987C100.81 48.5177 100.986 48.7033 101.338 48.7554ZM102.871 46.3677C102.815 46.3677 102.788 46.4865 102.788 46.7241C102.788 47.2287 102.937 47.6519 103.237 47.9937C103.536 48.3354 103.908 48.5063 104.35 48.5063C104.796 48.5063 105.224 48.3143 105.634 47.9302C105.641 47.9237 105.649 47.9204 105.659 47.9204H105.683C105.703 47.9204 105.721 47.9367 105.737 47.9692C105.756 47.9985 105.774 48.0181 105.791 48.0278C105.413 48.4868 104.969 48.8042 104.458 48.98C104.282 49.0418 104.083 49.0728 103.862 49.0728C103.641 49.0728 103.416 49.0125 103.188 48.8921C102.96 48.7684 102.765 48.6073 102.602 48.4087C102.257 47.9953 102.085 47.481 102.085 46.8657C102.085 46.2472 102.272 45.6841 102.646 45.1763C103.024 44.6685 103.541 44.4146 104.199 44.4146C104.671 44.4146 105.057 44.6261 105.356 45.0493C105.656 45.4692 105.805 45.8387 105.805 46.1577C105.805 46.2977 105.771 46.3677 105.703 46.3677H102.871ZM102.924 45.8989C102.924 45.9608 102.954 45.9917 103.012 45.9917H104.853C104.938 45.9917 104.98 45.9412 104.98 45.8403C104.98 45.606 104.874 45.3667 104.663 45.1226C104.454 44.8752 104.225 44.7515 103.974 44.7515C103.73 44.7515 103.507 44.8621 103.305 45.0835C103.107 45.3049 102.98 45.5571 102.924 45.8403V45.8989ZM108.994 45.6011C108.994 45.6727 108.966 45.7085 108.911 45.7085C108.859 45.7085 108.818 45.6694 108.789 45.5913C108.711 45.3765 108.593 45.186 108.437 45.02C108.284 44.854 108.094 44.771 107.866 44.771C107.566 44.771 107.365 44.9207 107.26 45.2202C107.228 45.3211 107.212 45.4253 107.212 45.5327C107.212 45.6401 107.28 45.7606 107.417 45.894C107.553 46.0243 107.778 46.1805 108.09 46.3628C108.403 46.5451 108.631 46.6997 108.774 46.8267C109.1 47.1164 109.262 47.4517 109.262 47.8325C109.262 48.2134 109.122 48.5161 108.842 48.7407C108.562 48.9621 108.237 49.0728 107.866 49.0728C107.667 49.0728 107.487 49.0451 107.324 48.9897C107.164 48.9377 107.072 48.9116 107.046 48.9116C107.023 48.9116 106.984 48.9377 106.928 48.9897C106.876 49.0451 106.834 49.0728 106.801 49.0728H106.718C106.699 49.0728 106.674 48.897 106.645 48.5454C106.616 48.1938 106.601 47.9855 106.601 47.9204C106.601 47.8553 106.606 47.8195 106.616 47.813C106.629 47.8065 106.648 47.8032 106.674 47.8032C106.7 47.8032 106.722 47.8114 106.738 47.8276C106.757 47.8439 106.774 47.8651 106.787 47.8911C106.8 47.9139 106.81 47.9383 106.816 47.9644C106.826 47.9904 106.847 48.0392 106.88 48.1108C107.101 48.5828 107.443 48.8188 107.905 48.8188C108.11 48.8188 108.274 48.744 108.398 48.5942C108.522 48.4412 108.584 48.272 108.584 48.0864C108.584 47.9009 108.535 47.7446 108.437 47.6177C108.339 47.4907 108.217 47.3752 108.071 47.271C107.928 47.1668 107.771 47.0659 107.602 46.9683C106.945 46.5841 106.616 46.1593 106.616 45.6938C106.616 45.3455 106.766 45.0461 107.065 44.7954C107.365 44.5415 107.672 44.4146 107.988 44.4146C108.304 44.4146 108.536 44.4487 108.686 44.5171C108.839 44.5854 108.929 44.644 108.955 44.6929C108.981 44.7384 108.994 44.8914 108.994 45.1519V45.6011ZM114.463 48.7554C114.616 48.7749 114.692 48.814 114.692 48.8726C114.692 48.9116 114.676 48.9344 114.643 48.9409H112.465C112.433 48.9344 112.417 48.9116 112.417 48.8726C112.417 48.814 112.493 48.7749 112.646 48.7554C112.998 48.7033 113.173 48.5177 113.173 48.1987V42.1099C113.173 41.9731 113.099 41.8787 112.949 41.8267C112.884 41.8039 112.814 41.786 112.739 41.7729C112.664 41.7567 112.604 41.742 112.558 41.729C112.516 41.716 112.488 41.7046 112.475 41.6948C112.465 41.6818 112.461 41.6574 112.461 41.6216C112.461 41.5825 112.485 41.55 112.534 41.5239L113.779 40.938C113.818 40.9185 113.842 40.9087 113.852 40.9087C113.908 40.9087 113.935 40.9478 113.935 41.0259V48.1987C113.935 48.5177 114.111 48.7033 114.463 48.7554ZM115.21 48.9409C115.177 48.9344 115.161 48.9116 115.161 48.8726C115.161 48.814 115.237 48.7749 115.39 48.7554C115.742 48.7033 115.918 48.5177 115.918 48.1987V45.6157C115.918 45.479 115.843 45.3846 115.693 45.3325C115.628 45.3097 115.558 45.2918 115.483 45.2788C115.408 45.2625 115.348 45.2479 115.302 45.2349C115.26 45.2218 115.232 45.2104 115.219 45.2007C115.21 45.1877 115.205 45.1632 115.205 45.1274C115.205 45.0884 115.229 45.0558 115.278 45.0298L116.523 44.4438C116.562 44.4243 116.587 44.4146 116.596 44.4146C116.652 44.4146 116.679 44.4536 116.679 44.5317V48.1987C116.679 48.5177 116.855 48.7033 117.207 48.7554C117.36 48.7749 117.436 48.8091 117.436 48.8579C117.436 48.9067 117.42 48.9344 117.387 48.9409H115.21ZM116.225 43.0425C116.092 43.0425 115.973 43.0002 115.869 42.9155C115.768 42.8309 115.717 42.7137 115.717 42.564C115.717 42.411 115.766 42.2905 115.864 42.2026C115.962 42.1147 116.077 42.0708 116.211 42.0708C116.347 42.0708 116.461 42.1229 116.552 42.2271C116.647 42.3312 116.694 42.4435 116.694 42.564C116.694 42.6844 116.65 42.7951 116.562 42.896C116.474 42.9937 116.362 43.0425 116.225 43.0425ZM121.679 44.8833C121.679 44.8833 122.116 44.8638 122.988 44.8247C123.063 44.8247 123.112 44.8328 123.134 44.8491C123.157 44.8654 123.182 44.9224 123.208 45.02C123.234 45.1144 123.247 45.2039 123.247 45.2886C123.247 45.3732 123.239 45.422 123.222 45.4351C123.206 45.4481 123.173 45.4546 123.125 45.4546H122.041C122.06 45.4904 122.081 45.5278 122.104 45.5669C122.127 45.606 122.156 45.6711 122.192 45.7622C122.228 45.8534 122.246 45.995 122.246 46.187C122.246 46.3758 122.199 46.5744 122.104 46.7827C122.013 46.9878 121.878 47.1701 121.699 47.3296C121.302 47.6877 120.787 47.8667 120.156 47.8667C119.99 47.8667 119.808 47.8358 119.609 47.7739C119.56 47.826 119.495 47.8748 119.414 47.9204C119.332 47.9627 119.253 48.0067 119.174 48.0522C118.979 48.1629 118.881 48.2736 118.881 48.3843C118.881 48.661 119.34 48.8026 120.258 48.8091C121.176 48.8156 121.779 48.8465 122.065 48.9019C122.355 48.9539 122.579 49.0597 122.739 49.2192C122.99 49.4699 123.115 49.7563 123.115 50.0786C123.115 50.3553 122.996 50.6401 122.758 50.9331C122.345 51.4507 121.714 51.7957 120.864 51.9683C120.561 52.0301 120.241 52.061 119.902 52.061C119.287 52.061 118.82 51.9487 118.501 51.7241C118.182 51.5028 118.022 51.2342 118.022 50.9185C118.022 50.7459 118.063 50.6027 118.144 50.4888C118.226 50.3781 118.328 50.2723 118.452 50.1714C118.579 50.0737 118.717 49.9696 118.867 49.8589C119.017 49.7515 119.16 49.6131 119.297 49.4438C118.984 49.4178 118.715 49.3185 118.491 49.146C118.269 48.9735 118.159 48.8042 118.159 48.6382C118.159 48.4722 118.203 48.3501 118.291 48.272C118.379 48.1906 118.486 48.1222 118.613 48.0669C118.74 48.0083 118.873 47.9546 119.013 47.9058C119.153 47.8569 119.275 47.7935 119.38 47.7153C119.015 47.5721 118.733 47.3752 118.535 47.1245C118.336 46.8706 118.237 46.5939 118.237 46.2944C118.237 45.7378 118.439 45.2837 118.842 44.9321C119.249 44.5806 119.739 44.4048 120.312 44.4048C120.885 44.4048 121.341 44.5643 121.679 44.8833ZM119.023 49.9761C118.948 50.0509 118.886 50.1307 118.838 50.2153C118.789 50.3 118.764 50.4058 118.764 50.5327C118.764 50.6629 118.81 50.798 118.901 50.938C118.995 51.0812 119.122 51.2098 119.282 51.3237C119.633 51.5841 120.057 51.7144 120.551 51.7144C121.046 51.7144 121.494 51.5695 121.894 51.2798C122.298 50.9933 122.5 50.6776 122.5 50.3325C122.5 49.9907 122.334 49.7612 122.002 49.644C121.845 49.592 121.443 49.5594 120.796 49.5464C120.148 49.5334 119.728 49.5155 119.536 49.4927C119.451 49.5903 119.363 49.6766 119.272 49.7515C119.184 49.8263 119.101 49.9012 119.023 49.9761ZM121.445 46.1821C121.445 45.7231 121.329 45.3504 121.098 45.064C120.87 44.7743 120.568 44.6294 120.19 44.6294C119.702 44.6294 119.357 44.8589 119.155 45.3179C119.077 45.4937 119.038 45.6955 119.038 45.9233C119.038 46.3888 119.134 46.7762 119.326 47.0854C119.56 47.4565 119.868 47.6421 120.249 47.6421C120.63 47.6421 120.924 47.5135 121.132 47.2563C121.341 46.9992 121.445 46.6411 121.445 46.1821ZM127.212 47.4028L127.202 46.3726C127.202 45.9526 127.166 45.658 127.094 45.4888C127.023 45.3195 126.932 45.1925 126.821 45.1079C126.71 45.02 126.561 44.9761 126.372 44.9761C126.186 44.9761 125.791 45.1226 125.185 45.4155C125.104 45.4644 125.061 45.5099 125.058 45.5522V48.1792C125.058 48.508 125.234 48.6968 125.586 48.7456C125.739 48.7684 125.815 48.8058 125.815 48.8579C125.815 48.9067 125.799 48.9344 125.766 48.9409H123.589C123.556 48.9344 123.54 48.9116 123.54 48.8726C123.54 48.8107 123.616 48.7684 123.769 48.7456C124.121 48.6968 124.297 48.508 124.297 48.1792V45.3765C124.297 45.2397 124.222 45.1453 124.072 45.0933C124.007 45.0705 123.937 45.0526 123.862 45.0396C123.787 45.0233 123.727 45.0086 123.681 44.9956C123.639 44.9826 123.611 44.9712 123.598 44.9614C123.589 44.9484 123.584 44.924 123.584 44.8882C123.584 44.8491 123.608 44.8166 123.657 44.7905L124.902 44.2046C124.941 44.1851 124.965 44.1753 124.975 44.1753C125.031 44.1753 125.058 44.2144 125.058 44.2925V45.0542C125.068 45.0868 125.081 45.103 125.097 45.103C125.117 45.103 125.187 45.0737 125.307 45.0151C125.587 44.8752 125.869 44.7401 126.152 44.6099C126.435 44.4797 126.67 44.4146 126.855 44.4146C127.607 44.4146 127.983 45.0998 127.983 46.4702L127.939 47.896V48.1792C127.939 48.4331 128.066 48.5991 128.32 48.6772C128.427 48.7131 128.53 48.7391 128.628 48.7554C128.728 48.7684 128.794 48.7814 128.823 48.7944C128.855 48.8075 128.872 48.8335 128.872 48.8726C128.872 48.9116 128.855 48.9344 128.823 48.9409H126.469C126.437 48.9344 126.421 48.9116 126.421 48.8726C126.421 48.8107 126.497 48.7684 126.65 48.7456C126.998 48.6968 127.172 48.495 127.172 48.1401C127.199 47.9774 127.212 47.7316 127.212 47.4028ZM130.097 46.3677C130.042 46.3677 130.014 46.4865 130.014 46.7241C130.014 47.2287 130.164 47.6519 130.464 47.9937C130.763 48.3354 131.134 48.5063 131.577 48.5063C132.023 48.5063 132.451 48.3143 132.861 47.9302C132.867 47.9237 132.876 47.9204 132.885 47.9204H132.91C132.929 47.9204 132.947 47.9367 132.964 47.9692C132.983 47.9985 133.001 48.0181 133.017 48.0278C132.64 48.4868 132.195 48.8042 131.684 48.98C131.508 49.0418 131.31 49.0728 131.089 49.0728C130.867 49.0728 130.643 49.0125 130.415 48.8921C130.187 48.7684 129.991 48.6073 129.829 48.4087C129.484 47.9953 129.311 47.481 129.311 46.8657C129.311 46.2472 129.498 45.6841 129.873 45.1763C130.25 44.6685 130.768 44.4146 131.425 44.4146C131.897 44.4146 132.283 44.6261 132.583 45.0493C132.882 45.4692 133.032 45.8387 133.032 46.1577C133.032 46.2977 132.998 46.3677 132.929 46.3677H130.097ZM130.151 45.8989C130.151 45.9608 130.18 45.9917 130.239 45.9917H132.08C132.164 45.9917 132.207 45.9412 132.207 45.8403C132.207 45.606 132.101 45.3667 131.889 45.1226C131.681 44.8752 131.451 44.7515 131.201 44.7515C130.957 44.7515 130.734 44.8621 130.532 45.0835C130.333 45.3049 130.206 45.5571 130.151 45.8403V45.8989ZM136.22 45.6011C136.22 45.6727 136.193 45.7085 136.137 45.7085C136.085 45.7085 136.045 45.6694 136.015 45.5913C135.937 45.3765 135.82 45.186 135.664 45.02C135.511 44.854 135.32 44.771 135.092 44.771C134.793 44.771 134.591 44.9207 134.487 45.2202C134.454 45.3211 134.438 45.4253 134.438 45.5327C134.438 45.6401 134.506 45.7606 134.643 45.894C134.78 46.0243 135.005 46.1805 135.317 46.3628C135.63 46.5451 135.857 46.6997 136.001 46.8267C136.326 47.1164 136.489 47.4517 136.489 47.8325C136.489 48.2134 136.349 48.5161 136.069 48.7407C135.789 48.9621 135.464 49.0728 135.092 49.0728C134.894 49.0728 134.713 49.0451 134.55 48.9897C134.391 48.9377 134.298 48.9116 134.272 48.9116C134.249 48.9116 134.21 48.9377 134.155 48.9897C134.103 49.0451 134.061 49.0728 134.028 49.0728H133.945C133.925 49.0728 133.901 48.897 133.872 48.5454C133.842 48.1938 133.828 47.9855 133.828 47.9204C133.828 47.8553 133.833 47.8195 133.842 47.813C133.855 47.8065 133.875 47.8032 133.901 47.8032C133.927 47.8032 133.948 47.8114 133.964 47.8276C133.984 47.8439 134 47.8651 134.013 47.8911C134.026 47.9139 134.036 47.9383 134.043 47.9644C134.052 47.9904 134.074 48.0392 134.106 48.1108C134.327 48.5828 134.669 48.8188 135.131 48.8188C135.337 48.8188 135.501 48.744 135.625 48.5942C135.748 48.4412 135.81 48.272 135.81 48.0864C135.81 47.9009 135.761 47.7446 135.664 47.6177C135.566 47.4907 135.444 47.3752 135.297 47.271C135.154 47.1668 134.998 47.0659 134.829 46.9683C134.171 46.5841 133.842 46.1593 133.842 45.6938C133.842 45.3455 133.992 45.0461 134.292 44.7954C134.591 44.5415 134.899 44.4146 135.214 44.4146C135.53 44.4146 135.763 44.4487 135.913 44.5171C136.066 44.5854 136.155 44.644 136.181 44.6929C136.207 44.7384 136.22 44.8914 136.22 45.1519V45.6011ZM14.8873 58.6196C15.0306 58.6685 15.1184 58.6929 15.151 58.6929C15.1836 58.6929 15.2031 58.6929 15.2096 58.6929C15.2194 58.6896 15.2308 58.6685 15.2438 58.6294V56.1099C15.2438 55.9731 15.1689 55.8787 15.0192 55.8267C14.9541 55.8039 14.8841 55.786 14.8092 55.7729C14.7343 55.7567 14.6741 55.742 14.6285 55.729C14.5862 55.716 14.5586 55.7046 14.5455 55.6948C14.5358 55.6818 14.5309 55.6574 14.5309 55.6216C14.5309 55.5825 14.5553 55.55 14.6041 55.5239L15.8492 54.938C15.8883 54.9185 15.9127 54.9087 15.9225 54.9087C15.9778 54.9087 16.0055 54.9478 16.0055 55.0259V61.979C16.0218 62.1222 16.0625 62.2248 16.1276 62.2866C16.1927 62.3485 16.2985 62.3794 16.4449 62.3794L16.7281 62.3599C16.7477 62.3599 16.7574 62.3794 16.7574 62.4185C16.7574 62.4543 16.733 62.4836 16.6842 62.5063L15.3854 63.0435C15.3463 63.063 15.3121 63.0728 15.2828 63.0728C15.2568 63.0728 15.2438 63.0321 15.2438 62.9507V62.5063C15.2438 62.4738 15.2356 62.4575 15.2194 62.4575C15.1966 62.4575 15.0615 62.5308 14.8141 62.6772C14.0556 63.1265 13.416 63.1932 12.8951 62.8774C12.4785 62.6235 12.1969 62.2215 12.0504 61.6714C11.9821 61.4142 11.9479 61.1424 11.9479 60.856C11.9479 60.5662 12.0065 60.2798 12.1237 59.9966C12.2441 59.7101 12.4085 59.4595 12.6168 59.2446C13.0758 58.7759 13.6292 58.5415 14.277 58.5415C14.5406 58.5415 14.7441 58.5675 14.8873 58.6196ZM12.6852 60.7144C12.6852 61.2059 12.8219 61.6372 13.0953 62.0083C13.3688 62.3761 13.7496 62.5601 14.2379 62.5601C14.4528 62.5601 14.6741 62.508 14.902 62.4038C15.1298 62.2964 15.2438 62.215 15.2438 62.1597V59.6401C15.2438 59.5783 15.2015 59.505 15.1168 59.4204C14.8564 59.0623 14.5097 58.8833 14.0768 58.8833C13.6471 58.8833 13.3069 59.0656 13.0563 59.4302C12.8089 59.7915 12.6852 60.2196 12.6852 60.7144ZM20.5367 62.5112C20.5205 62.4559 20.4993 62.438 20.4733 62.4575C20.4472 62.4738 20.3414 62.5291 20.1559 62.6235C19.5472 62.9263 19.0393 63.0776 18.6324 63.0776C18.2255 63.0776 17.9326 62.9474 17.7535 62.687C17.6884 62.5894 17.6559 62.4689 17.6559 62.3257V59.3472C17.6461 59.2528 17.6038 59.1714 17.5289 59.103C17.428 59.0184 17.3222 58.9728 17.2115 58.9663C17.1041 58.9598 17.0504 58.9272 17.0504 58.8687C17.0504 58.8068 17.0765 58.7694 17.1285 58.7563L18.2467 58.4341C18.2858 58.4211 18.3232 58.4146 18.359 58.4146C18.3981 58.4146 18.4176 58.4422 18.4176 58.4976V61.7739C18.4176 62.0018 18.5185 62.1776 18.7203 62.3013C18.9222 62.425 19.1793 62.4868 19.4918 62.4868C19.8076 62.4868 20.0908 62.3908 20.3414 62.1987C20.4196 62.1369 20.4847 62.0685 20.5367 61.9937V59.3472C20.527 59.2528 20.4847 59.1714 20.4098 59.103C20.3089 59.0184 20.2031 58.9728 20.0924 58.9663C19.985 58.9598 19.9313 58.9272 19.9313 58.8687C19.9313 58.8068 19.9573 58.7694 20.0094 58.7563L21.1276 58.4341C21.1666 58.4211 21.2041 58.4146 21.2399 58.4146C21.2789 58.4146 21.2985 58.4471 21.2985 58.5122V61.979C21.3147 62.1222 21.3554 62.2248 21.4205 62.2866C21.4856 62.3485 21.5914 62.3794 21.7379 62.3794L22.0211 62.3599C22.0406 62.3599 22.0504 62.3794 22.0504 62.4185C22.0504 62.4543 22.026 62.4836 21.9772 62.5063L20.6783 63.0435C20.6393 63.063 20.6051 63.0728 20.5758 63.0728C20.5498 63.0728 20.5367 63.0321 20.5367 62.9507V62.5112ZM27.7389 59.6011C27.7389 59.6727 27.7112 59.7085 27.6559 59.7085C27.6038 59.7085 27.5631 59.6694 27.5338 59.5913C27.4557 59.3765 27.3385 59.186 27.1823 59.02C27.0293 58.854 26.8388 58.771 26.611 58.771C26.3115 58.771 26.1097 58.9207 26.0055 59.2202C25.9729 59.3211 25.9567 59.4253 25.9567 59.5327C25.9567 59.6401 26.025 59.7606 26.1617 59.894C26.2985 60.0243 26.5231 60.1805 26.8356 60.3628C27.1481 60.5451 27.3759 60.6997 27.5192 60.8267C27.8447 61.1164 28.0074 61.4517 28.0074 61.8325C28.0074 62.2134 27.8675 62.5161 27.5875 62.7407C27.3076 62.9621 26.9821 63.0728 26.611 63.0728C26.4124 63.0728 26.2317 63.0451 26.069 62.9897C25.9095 62.9377 25.8167 62.9116 25.7906 62.9116C25.7679 62.9116 25.7288 62.9377 25.6735 62.9897C25.6214 63.0451 25.5791 63.0728 25.5465 63.0728H25.4635C25.444 63.0728 25.4196 62.897 25.3903 62.5454C25.361 62.1938 25.3463 61.9855 25.3463 61.9204C25.3463 61.8553 25.3512 61.8195 25.361 61.813C25.374 61.8065 25.3935 61.8032 25.4196 61.8032C25.4456 61.8032 25.4668 61.8114 25.483 61.8276C25.5026 61.8439 25.5188 61.8651 25.5319 61.8911C25.5449 61.9139 25.5546 61.9383 25.5612 61.9644C25.5709 61.9904 25.5921 62.0392 25.6246 62.1108C25.846 62.5828 26.1878 62.8188 26.65 62.8188C26.8551 62.8188 27.0195 62.744 27.1432 62.5942C27.2669 62.4412 27.3287 62.272 27.3287 62.0864C27.3287 61.9009 27.2799 61.7446 27.1823 61.6177C27.0846 61.4907 26.9625 61.3752 26.816 61.271C26.6728 61.1668 26.5166 61.0659 26.3473 60.9683C25.6897 60.5841 25.361 60.1593 25.361 59.6938C25.361 59.3455 25.5107 59.0461 25.8102 58.7954C26.1097 58.5415 26.4173 58.4146 26.733 58.4146C27.0488 58.4146 27.2815 58.4487 27.4313 58.5171C27.5843 58.5854 27.6738 58.644 27.6998 58.6929C27.7259 58.7384 27.7389 58.8914 27.7389 59.1519V59.6011ZM29.5065 60.3677C29.4511 60.3677 29.4235 60.4865 29.4235 60.7241C29.4235 61.2287 29.5732 61.6519 29.8727 61.9937C30.1722 62.3354 30.5433 62.5063 30.986 62.5063C31.4319 62.5063 31.86 62.3143 32.2701 61.9302C32.2767 61.9237 32.2848 61.9204 32.2946 61.9204H32.319C32.3385 61.9204 32.3564 61.9367 32.3727 61.9692C32.3922 61.9985 32.4101 62.0181 32.4264 62.0278C32.0488 62.4868 31.6045 62.8042 31.0934 62.98C30.9176 63.0418 30.719 63.0728 30.4977 63.0728C30.2763 63.0728 30.0517 63.0125 29.8239 62.8921C29.596 62.7684 29.4007 62.6073 29.2379 62.4087C28.8929 61.9953 28.7203 61.481 28.7203 60.8657C28.7203 60.2472 28.9075 59.6841 29.2819 59.1763C29.6595 58.6685 30.177 58.4146 30.8346 58.4146C31.3066 58.4146 31.6923 58.6261 31.9918 59.0493C32.2913 59.4692 32.441 59.8387 32.441 60.1577C32.441 60.2977 32.4069 60.3677 32.3385 60.3677H29.5065ZM29.5602 59.8989C29.5602 59.9608 29.5895 59.9917 29.6481 59.9917H31.4889C31.5735 59.9917 31.6158 59.9412 31.6158 59.8403C31.6158 59.606 31.5101 59.3667 31.2985 59.1226C31.0901 58.8752 30.8606 58.7515 30.61 58.7515C30.3658 58.7515 30.1429 58.8621 29.941 59.0835C29.7425 59.3049 29.6155 59.5571 29.5602 59.8403V59.8989ZM37.4166 58.5464C37.4427 58.5464 37.4557 58.5724 37.4557 58.6245C37.4557 58.6766 37.4427 58.7091 37.4166 58.7222C37.166 58.7905 36.9658 58.9045 36.816 59.064C36.7607 59.1226 36.7005 59.1909 36.6354 59.269L35.693 60.4019C35.68 60.4246 35.6735 60.4458 35.6735 60.4653C35.6735 60.5044 35.8151 60.6965 36.0983 61.0415C36.3815 61.3833 36.7721 61.8683 37.2701 62.4966C37.3059 62.5422 37.3776 62.5877 37.485 62.6333C37.5924 62.6789 37.6656 62.7163 37.7047 62.7456C37.7438 62.7716 37.7633 62.8075 37.7633 62.853C37.7633 62.8986 37.7438 62.9279 37.7047 62.9409H35.7809C35.7483 62.9409 35.7321 62.9149 35.7321 62.8628C35.7321 62.8107 35.7581 62.7814 35.8102 62.7749C35.8655 62.7651 35.9274 62.7554 35.9957 62.7456C36.1683 62.7196 36.2545 62.6512 36.2545 62.5405C36.2545 62.4657 36.2138 62.3826 36.1324 62.2915L35.2926 61.2368C35.2666 61.201 35.2454 61.1733 35.2291 61.1538C35.2161 61.1343 35.1884 61.1245 35.1461 61.1245C35.1038 61.1245 35.0696 61.1424 35.0436 61.1782C35.0208 61.2108 34.9964 61.2401 34.9703 61.2661L34.2037 62.189C34.1354 62.2671 34.1012 62.3582 34.1012 62.4624C34.1012 62.5666 34.1679 62.6496 34.3014 62.7114C34.4381 62.77 34.5586 62.7993 34.6627 62.7993C34.6855 62.7993 34.6969 62.8237 34.6969 62.8726C34.6969 62.9181 34.6855 62.9409 34.6627 62.9409H33.0953C33.0433 62.9409 33.0172 62.9116 33.0172 62.853C33.0172 62.8075 33.1067 62.7424 33.2858 62.6577C33.4681 62.5731 33.5787 62.508 33.6178 62.4624L34.9703 60.8364C34.9671 60.8299 34.9606 60.8218 34.9508 60.812C34.9443 60.8022 34.9264 60.7795 34.8971 60.7437C34.8678 60.7078 34.8222 60.6525 34.7604 60.5776C34.6985 60.4995 34.5341 60.2977 34.2672 59.9722C34.0035 59.6434 33.7252 59.2967 33.4323 58.9321C33.3932 58.8898 33.3118 58.8426 33.1881 58.7905C33.0644 58.7352 33.0026 58.6864 33.0026 58.644C33.0091 58.5789 33.0481 58.5464 33.1198 58.5464H34.9362C34.9622 58.5464 34.9736 58.5675 34.9703 58.6099C34.9703 58.6489 34.9459 58.675 34.8971 58.688C34.8483 58.6978 34.7946 58.7124 34.736 58.7319C34.5797 58.7775 34.5016 58.8573 34.5016 58.9712C34.5016 59.0461 34.5162 59.0981 34.5455 59.1274L35.3024 60.0649C35.3284 60.0942 35.3545 60.1268 35.3805 60.1626C35.4098 60.1951 35.4342 60.2114 35.4537 60.2114C35.4765 60.2114 35.5009 60.1951 35.527 60.1626L36.2448 59.3276C36.3261 59.2332 36.3668 59.1388 36.3668 59.0444C36.3668 58.95 36.3408 58.8849 36.2887 58.8491C36.2366 58.8101 36.178 58.7824 36.1129 58.7661C36.0511 58.7466 35.9941 58.7287 35.942 58.7124C35.8899 58.6961 35.8639 58.6652 35.8639 58.6196C35.8639 58.5708 35.8818 58.5464 35.9176 58.5464H37.4166ZM39.4186 59.186C39.399 59.186 39.3893 59.2007 39.3893 59.23V61.9253C39.3893 62.1206 39.4316 62.2736 39.5162 62.3843C39.6041 62.495 39.7148 62.5503 39.8483 62.5503C39.9817 62.5503 40.0973 62.5291 40.1949 62.4868C40.2959 62.4412 40.3821 62.3924 40.4537 62.3403C40.5286 62.2882 40.5953 62.241 40.6539 62.1987C40.7125 62.1532 40.7646 62.1304 40.8102 62.1304C40.8558 62.1304 40.8785 62.1418 40.8785 62.1646C40.8785 62.2427 40.8704 62.2931 40.8541 62.3159C40.4635 62.8205 40.0859 63.0728 39.7213 63.0728C39.36 63.0728 39.0865 62.9588 38.901 62.731C38.7187 62.4998 38.6276 62.2248 38.6276 61.9058V59.186H38.2614C38.1702 59.186 38.1214 59.1567 38.1149 59.0981C38.1116 59.0396 38.1214 59.0021 38.1442 58.9858C38.3167 58.8752 38.5543 58.6766 38.8571 58.3901C38.8896 58.3543 38.9336 58.3006 38.9889 58.229C39.0442 58.1574 39.124 58.0597 39.2281 57.936C39.3356 57.8123 39.417 57.7505 39.4723 57.7505C39.5276 57.7505 39.5553 57.7733 39.5553 57.8188C39.5553 57.8254 39.5 58.0386 39.3893 58.4585C39.3893 58.5171 39.4153 58.548 39.4674 58.5513H40.7125C40.8558 58.5513 40.9274 58.7531 40.9274 59.1567C40.9274 59.1763 40.9143 59.186 40.8883 59.186H39.4186ZM44.4137 62.1353C44.4137 62.2199 44.4528 62.2882 44.5309 62.3403C44.6123 62.3892 44.705 62.4136 44.8092 62.4136C44.9134 62.4136 44.9996 62.3875 45.068 62.3354C45.1396 62.2801 45.1884 62.2524 45.2145 62.2524C45.2405 62.2524 45.2535 62.2882 45.2535 62.3599C45.2535 62.4282 45.221 62.4868 45.1559 62.5356C44.6676 62.8937 44.3372 63.0728 44.1647 63.0728C43.9563 63.0728 43.7871 62.8563 43.6569 62.4233C43.6471 62.3908 43.639 62.3761 43.6324 62.3794C43.2288 62.6821 42.9749 62.8644 42.8707 62.9263C42.6038 63.0793 42.3352 63.1037 42.0651 62.9995C41.7981 62.8953 41.6045 62.7228 41.484 62.4819C41.4254 62.3582 41.3961 62.2264 41.3961 62.0864C41.3961 61.8097 41.4987 61.59 41.7037 61.4272C41.9088 61.2645 42.2994 61.1082 42.8756 60.9585C43.0709 60.9064 43.2451 60.8397 43.3981 60.7583C43.5511 60.6769 43.6308 60.6248 43.6373 60.6021C43.6471 60.5793 43.652 60.5581 43.652 60.5386V59.6011C43.652 59.2332 43.5087 58.9744 43.2223 58.8247C43.1279 58.7759 43.014 58.7515 42.8805 58.7515C42.7503 58.7515 42.6168 58.8035 42.4801 58.9077C42.3466 59.0119 42.2799 59.16 42.2799 59.3521L42.3043 59.5425C42.2848 59.5815 42.1676 59.6466 41.9528 59.7378C41.7379 59.8289 41.6142 59.8778 41.5817 59.8843C41.5296 59.8843 41.5035 59.8224 41.5035 59.6987C41.5035 59.5718 41.541 59.4318 41.6158 59.2788C41.6907 59.1258 41.7965 58.9858 41.9332 58.8589C42.2522 58.5627 42.6168 58.4146 43.027 58.4146C43.4371 58.4146 43.7708 58.5285 44.028 58.7563C44.2851 58.981 44.4137 59.2495 44.4137 59.562V62.1353ZM42.1627 61.9937C42.1627 62.1499 42.2229 62.2866 42.3434 62.4038C42.4638 62.5177 42.6005 62.5747 42.7535 62.5747C42.9098 62.5747 43.0986 62.5096 43.3199 62.3794C43.5413 62.2459 43.652 62.1092 43.652 61.9692V60.978C43.652 60.9422 43.6438 60.9243 43.6276 60.9243C43.6113 60.9243 43.5999 60.9259 43.5934 60.9292L42.4606 61.4565C42.3434 61.5412 42.2636 61.6128 42.2213 61.6714C42.1823 61.73 42.1627 61.8374 42.1627 61.9937ZM49.3063 61.4028L49.2965 60.3726C49.2965 59.9526 49.2607 59.658 49.1891 59.4888C49.1175 59.3195 49.0263 59.1925 48.9156 59.1079C48.805 59.02 48.6552 58.9761 48.4664 58.9761C48.2809 58.9761 47.8854 59.1226 47.2799 59.4155C47.1985 59.4644 47.1562 59.5099 47.153 59.5522V62.1792C47.153 62.508 47.3287 62.6968 47.6803 62.7456C47.8333 62.7684 47.9098 62.8058 47.9098 62.8579C47.9098 62.9067 47.8935 62.9344 47.861 62.9409H45.6832C45.6507 62.9344 45.6344 62.9116 45.6344 62.8726C45.6344 62.8107 45.7109 62.7684 45.8639 62.7456C46.2155 62.6968 46.3912 62.508 46.3912 62.1792V59.3765C46.3912 59.2397 46.3164 59.1453 46.1666 59.0933C46.1015 59.0705 46.0315 59.0526 45.9567 59.0396C45.8818 59.0233 45.8216 59.0086 45.776 58.9956C45.7337 58.9826 45.706 58.9712 45.693 58.9614C45.6832 58.9484 45.6783 58.924 45.6783 58.8882C45.6783 58.8491 45.7028 58.8166 45.7516 58.7905L46.9967 58.2046C47.0358 58.1851 47.0602 58.1753 47.0699 58.1753C47.1253 58.1753 47.153 58.2144 47.153 58.2925V59.0542C47.1627 59.0868 47.1757 59.103 47.192 59.103C47.2115 59.103 47.2815 59.0737 47.402 59.0151C47.6819 58.8752 47.9635 58.7401 48.2467 58.6099C48.5299 58.4797 48.7643 58.4146 48.9498 58.4146C49.7018 58.4146 50.0778 59.0998 50.0778 60.4702L50.0338 61.896V62.1792C50.0338 62.4331 50.1608 62.5991 50.4147 62.6772C50.5221 62.7131 50.6246 62.7391 50.7223 62.7554C50.8232 62.7684 50.8883 62.7814 50.9176 62.7944C50.9502 62.8075 50.9664 62.8335 50.9664 62.8726C50.9664 62.9116 50.9502 62.9344 50.9176 62.9409H48.5641C48.5315 62.9344 48.5153 62.9116 48.5153 62.8726C48.5153 62.8107 48.5918 62.7684 48.7448 62.7456C49.0931 62.6968 49.2672 62.495 49.2672 62.1401C49.2933 61.9774 49.3063 61.7316 49.3063 61.4028ZM52.5924 59.186C52.5729 59.186 52.5631 59.2007 52.5631 59.23V61.9253C52.5631 62.1206 52.6054 62.2736 52.6901 62.3843C52.778 62.495 52.8886 62.5503 53.0221 62.5503C53.1556 62.5503 53.2711 62.5291 53.3688 62.4868C53.4697 62.4412 53.5559 62.3924 53.6276 62.3403C53.7024 62.2882 53.7692 62.241 53.8278 62.1987C53.8864 62.1532 53.9384 62.1304 53.984 62.1304C54.0296 62.1304 54.0524 62.1418 54.0524 62.1646C54.0524 62.2427 54.0442 62.2931 54.028 62.3159C53.6373 62.8205 53.2597 63.0728 52.8951 63.0728C52.5338 63.0728 52.2604 62.9588 52.0748 62.731C51.8925 62.4998 51.8014 62.2248 51.8014 61.9058V59.186H51.4352C51.344 59.186 51.2952 59.1567 51.2887 59.0981C51.2854 59.0396 51.2952 59.0021 51.318 58.9858C51.4905 58.8752 51.7281 58.6766 52.0309 58.3901C52.0634 58.3543 52.1074 58.3006 52.1627 58.229C52.2181 58.1574 52.2978 58.0597 52.402 57.936C52.5094 57.8123 52.5908 57.7505 52.6461 57.7505C52.7015 57.7505 52.7291 57.7733 52.7291 57.8188C52.7291 57.8254 52.6738 58.0386 52.5631 58.4585C52.5631 58.5171 52.5892 58.548 52.6412 58.5513H53.8864C54.0296 58.5513 54.1012 58.7531 54.1012 59.1567C54.1012 59.1763 54.0882 59.186 54.0621 59.186H52.5924ZM54.8629 62.4526C54.8629 62.2769 54.9248 62.1255 55.0485 61.9985C55.1722 61.8683 55.3219 61.8032 55.4977 61.8032C55.6702 61.8032 55.8183 61.8667 55.942 61.9937C56.069 62.1174 56.1324 62.2687 56.1324 62.4478C56.1324 62.6268 56.0706 62.7765 55.9469 62.897C55.8232 63.0142 55.6735 63.0728 55.4977 63.0728C55.3252 63.0728 55.1754 63.0125 55.0485 62.8921C54.9248 62.7716 54.8629 62.6252 54.8629 62.4526ZM61.899 62.7456C61.9186 62.7456 61.9283 62.7586 61.9283 62.7847V62.9019C61.9283 62.9279 61.9186 62.9409 61.899 62.9409H59.6188C59.5927 62.9409 59.5797 62.9279 59.5797 62.9019V62.7847C59.5797 62.7586 59.5927 62.7456 59.6188 62.7456C60.1526 62.7456 60.4423 62.5161 60.4879 62.0571C60.5009 61.9237 60.514 61.7023 60.527 61.3931C60.5433 61.0806 60.5872 60.4116 60.6588 59.3862C60.7304 58.3576 60.7662 57.5259 60.7662 56.8911V56.7104C60.7662 56.5802 60.6914 56.4712 60.5416 56.3833C60.3951 56.2954 60.2877 56.2515 60.2194 56.2515C60.151 56.2515 60.1168 56.2384 60.1168 56.2124V56.0952C60.1168 56.0692 60.1298 56.0562 60.1559 56.0562H61.567C61.6289 56.0659 61.6793 56.1017 61.7184 56.1636L64.0084 61.2661C64.0247 61.2889 64.0377 61.3084 64.0475 61.3247C64.0573 61.341 64.0817 61.3491 64.1207 61.3491C64.1598 61.3459 64.1891 61.3166 64.2086 61.2612L66.4742 56.2515C66.5426 56.1213 66.6045 56.0562 66.6598 56.0562H68.0807C68.1067 56.0562 68.1198 56.0692 68.1198 56.0952V56.2124C68.1198 56.2384 68.1116 56.2515 68.0953 56.2515C67.9977 56.2515 67.8772 56.284 67.734 56.3491C67.5159 56.4468 67.4069 56.5916 67.4069 56.7837L67.6998 62.1792C67.7063 62.3485 67.7942 62.4852 67.9635 62.5894C68.1328 62.6935 68.3541 62.7456 68.6276 62.7456C68.6536 62.7456 68.6666 62.7586 68.6666 62.7847V62.9019C68.6666 62.9279 68.6536 62.9409 68.6276 62.9409H65.8541C65.8281 62.9409 65.8151 62.9279 65.8151 62.9019V62.7847C65.8151 62.7586 65.8281 62.7456 65.8541 62.7456C66.4368 62.7456 66.7281 62.604 66.7281 62.3208L66.4694 57.6577C66.4661 57.6252 66.4563 57.6089 66.4401 57.6089C66.427 57.6089 66.4156 57.6235 66.4059 57.6528L63.9791 62.9067C63.9661 62.9295 63.9287 62.9409 63.8668 62.9409C63.805 62.9409 63.7692 62.9279 63.7594 62.9019L61.3668 57.6382C61.3473 57.5926 61.3278 57.5698 61.3082 57.5698C61.292 57.5698 61.2838 57.6056 61.2838 57.6772C61.2838 57.827 61.2448 58.5334 61.1666 59.7964C61.0885 61.0594 61.0494 61.8472 61.0494 62.1597V62.3599C61.0885 62.5454 61.2724 62.6659 61.6012 62.7212C61.6956 62.7375 61.7949 62.7456 61.899 62.7456ZM72.236 62.1353C72.236 62.2199 72.275 62.2882 72.3531 62.3403C72.4345 62.3892 72.5273 62.4136 72.6315 62.4136C72.7356 62.4136 72.8219 62.3875 72.8903 62.3354C72.9619 62.2801 73.0107 62.2524 73.0367 62.2524C73.0628 62.2524 73.0758 62.2882 73.0758 62.3599C73.0758 62.4282 73.0433 62.4868 72.9781 62.5356C72.4899 62.8937 72.1595 63.0728 71.9869 63.0728C71.7786 63.0728 71.6093 62.8563 71.4791 62.4233C71.4694 62.3908 71.4612 62.3761 71.4547 62.3794C71.0511 62.6821 70.7972 62.8644 70.693 62.9263C70.4261 63.0793 70.1575 63.1037 69.8873 62.9995C69.6204 62.8953 69.4267 62.7228 69.3063 62.4819C69.2477 62.3582 69.2184 62.2264 69.2184 62.0864C69.2184 61.8097 69.3209 61.59 69.526 61.4272C69.7311 61.2645 70.1217 61.1082 70.6979 60.9585C70.8932 60.9064 71.0673 60.8397 71.2203 60.7583C71.3733 60.6769 71.4531 60.6248 71.4596 60.6021C71.4694 60.5793 71.4742 60.5581 71.4742 60.5386V59.6011C71.4742 59.2332 71.331 58.9744 71.0446 58.8247C70.9502 58.7759 70.8362 58.7515 70.7028 58.7515C70.5726 58.7515 70.4391 58.8035 70.3024 58.9077C70.1689 59.0119 70.1022 59.16 70.1022 59.3521L70.1266 59.5425C70.1071 59.5815 69.9899 59.6466 69.775 59.7378C69.5602 59.8289 69.4365 59.8778 69.4039 59.8843C69.3518 59.8843 69.3258 59.8224 69.3258 59.6987C69.3258 59.5718 69.3632 59.4318 69.4381 59.2788C69.513 59.1258 69.6188 58.9858 69.7555 58.8589C70.0745 58.5627 70.4391 58.4146 70.8492 58.4146C71.2594 58.4146 71.5931 58.5285 71.8502 58.7563C72.1074 58.981 72.236 59.2495 72.236 59.562V62.1353ZM69.985 61.9937C69.985 62.1499 70.0452 62.2866 70.1656 62.4038C70.2861 62.5177 70.4228 62.5747 70.5758 62.5747C70.7321 62.5747 70.9209 62.5096 71.1422 62.3794C71.3636 62.2459 71.4742 62.1092 71.4742 61.9692V60.978C71.4742 60.9422 71.4661 60.9243 71.4498 60.9243C71.4336 60.9243 71.4222 60.9259 71.4156 60.9292L70.2828 61.4565C70.1656 61.5412 70.0859 61.6128 70.0436 61.6714C70.0045 61.73 69.985 61.8374 69.985 61.9937ZM73.5446 62.9409C73.512 62.9344 73.4957 62.9116 73.4957 62.8726C73.4957 62.814 73.5722 62.7749 73.7252 62.7554C74.0768 62.7033 74.2526 62.5177 74.2526 62.1987V59.6157C74.2526 59.479 74.1777 59.3846 74.028 59.3325C73.9628 59.3097 73.8929 59.2918 73.818 59.2788C73.7431 59.2625 73.6829 59.2479 73.6373 59.2349C73.595 59.2218 73.5673 59.2104 73.5543 59.2007C73.5446 59.1877 73.5397 59.1632 73.5397 59.1274C73.5397 59.0884 73.5641 59.0558 73.6129 59.0298L74.858 58.4438C74.8971 58.4243 74.9215 58.4146 74.9313 58.4146C74.9866 58.4146 75.0143 58.4536 75.0143 58.5317V62.1987C75.0143 62.5177 75.1901 62.7033 75.5416 62.7554C75.6946 62.7749 75.7711 62.8091 75.7711 62.8579C75.7711 62.9067 75.7548 62.9344 75.7223 62.9409H73.5446ZM74.5602 57.0425C74.4267 57.0425 74.3079 57.0002 74.2037 56.9155C74.1028 56.8309 74.0524 56.7137 74.0524 56.564C74.0524 56.411 74.1012 56.2905 74.1989 56.2026C74.2965 56.1147 74.4121 56.0708 74.5455 56.0708C74.6823 56.0708 74.7962 56.1229 74.8873 56.2271C74.9817 56.3312 75.0289 56.4435 75.0289 56.564C75.0289 56.6844 74.985 56.7951 74.8971 56.896C74.8092 56.9937 74.6969 57.0425 74.5602 57.0425ZM78.7252 59.6011C78.7252 59.6727 78.6976 59.7085 78.6422 59.7085C78.5901 59.7085 78.5494 59.6694 78.5201 59.5913C78.442 59.3765 78.3248 59.186 78.1686 59.02C78.0156 58.854 77.8252 58.771 77.5973 58.771C77.2978 58.771 77.096 58.9207 76.9918 59.2202C76.9593 59.3211 76.943 59.4253 76.943 59.5327C76.943 59.6401 77.0114 59.7606 77.1481 59.894C77.2848 60.0243 77.5094 60.1805 77.8219 60.3628C78.1344 60.5451 78.3623 60.6997 78.5055 60.8267C78.831 61.1164 78.9938 61.4517 78.9938 61.8325C78.9938 62.2134 78.8538 62.5161 78.5739 62.7407C78.2939 62.9621 77.9684 63.0728 77.5973 63.0728C77.3987 63.0728 77.2181 63.0451 77.0553 62.9897C76.8958 62.9377 76.803 62.9116 76.777 62.9116C76.7542 62.9116 76.7151 62.9377 76.6598 62.9897C76.6077 63.0451 76.5654 63.0728 76.5328 63.0728H76.4498C76.4303 63.0728 76.4059 62.897 76.3766 62.5454C76.3473 62.1938 76.3326 61.9855 76.3326 61.9204C76.3326 61.8553 76.3375 61.8195 76.3473 61.813C76.3603 61.8065 76.3798 61.8032 76.4059 61.8032C76.4319 61.8032 76.4531 61.8114 76.4694 61.8276C76.4889 61.8439 76.5052 61.8651 76.5182 61.8911C76.5312 61.9139 76.541 61.9383 76.5475 61.9644C76.5573 61.9904 76.5784 62.0392 76.611 62.1108C76.8323 62.5828 77.1741 62.8188 77.6364 62.8188C77.8414 62.8188 78.0058 62.744 78.1295 62.5942C78.2532 62.4412 78.3151 62.272 78.3151 62.0864C78.3151 61.9009 78.2662 61.7446 78.1686 61.6177C78.0709 61.4907 77.9489 61.3752 77.8024 61.271C77.6591 61.1668 77.5029 61.0659 77.3336 60.9683C76.6761 60.5841 76.3473 60.1593 76.3473 59.6938C76.3473 59.3455 76.497 59.0461 76.7965 58.7954C77.096 58.5415 77.4036 58.4146 77.7194 58.4146C78.0351 58.4146 78.2679 58.4487 78.4176 58.5171C78.5706 58.5854 78.6601 58.644 78.6862 58.6929C78.7122 58.7384 78.7252 58.8914 78.7252 59.1519V59.6011ZM85.4098 62.1353C85.4098 62.2199 85.4489 62.2882 85.527 62.3403C85.6084 62.3892 85.7011 62.4136 85.8053 62.4136C85.9095 62.4136 85.9957 62.3875 86.0641 62.3354C86.1357 62.2801 86.1845 62.2524 86.2106 62.2524C86.2366 62.2524 86.2496 62.2882 86.2496 62.3599C86.2496 62.4282 86.2171 62.4868 86.152 62.5356C85.6637 62.8937 85.3333 63.0728 85.1608 63.0728C84.9524 63.0728 84.7832 62.8563 84.653 62.4233C84.6432 62.3908 84.6351 62.3761 84.6285 62.3794C84.2249 62.6821 83.971 62.8644 83.8668 62.9263C83.5999 63.0793 83.3313 63.1037 83.0612 62.9995C82.7942 62.8953 82.6005 62.7228 82.4801 62.4819C82.4215 62.3582 82.3922 62.2264 82.3922 62.0864C82.3922 61.8097 82.4948 61.59 82.6998 61.4272C82.9049 61.2645 83.2955 61.1082 83.8717 60.9585C84.067 60.9064 84.2412 60.8397 84.3942 60.7583C84.5472 60.6769 84.6269 60.6248 84.6334 60.6021C84.6432 60.5793 84.6481 60.5581 84.6481 60.5386V59.6011C84.6481 59.2332 84.5048 58.9744 84.2184 58.8247C84.124 58.7759 84.0101 58.7515 83.8766 58.7515C83.7464 58.7515 83.6129 58.8035 83.4762 58.9077C83.3427 59.0119 83.276 59.16 83.276 59.3521L83.3004 59.5425C83.2809 59.5815 83.1637 59.6466 82.9489 59.7378C82.734 59.8289 82.6103 59.8778 82.5778 59.8843C82.5257 59.8843 82.4996 59.8224 82.4996 59.6987C82.4996 59.5718 82.5371 59.4318 82.6119 59.2788C82.6868 59.1258 82.7926 58.9858 82.9293 58.8589C83.2483 58.5627 83.6129 58.4146 84.0231 58.4146C84.4332 58.4146 84.7669 58.5285 85.024 58.7563C85.2812 58.981 85.4098 59.2495 85.4098 59.562V62.1353ZM83.1588 61.9937C83.1588 62.1499 83.219 62.2866 83.3395 62.4038C83.4599 62.5177 83.5966 62.5747 83.7496 62.5747C83.9059 62.5747 84.0947 62.5096 84.316 62.3794C84.5374 62.2459 84.6481 62.1092 84.6481 61.9692V60.978C84.6481 60.9422 84.6399 60.9243 84.6237 60.9243C84.6074 60.9243 84.596 60.9259 84.5895 60.9292L83.4567 61.4565C83.3395 61.5412 83.2597 61.6128 83.2174 61.6714C83.1783 61.73 83.1588 61.8374 83.1588 61.9937ZM90.0582 62.5112C90.042 62.4559 90.0208 62.438 89.9948 62.4575C89.9687 62.4738 89.8629 62.5291 89.6774 62.6235C89.0686 62.9263 88.5608 63.0776 88.1539 63.0776C87.747 63.0776 87.4541 62.9474 87.275 62.687C87.2099 62.5894 87.1774 62.4689 87.1774 62.3257V59.3472C87.1676 59.2528 87.1253 59.1714 87.0504 59.103C86.9495 59.0184 86.8437 58.9728 86.733 58.9663C86.6256 58.9598 86.5719 58.9272 86.5719 58.8687C86.5719 58.8068 86.5979 58.7694 86.65 58.7563L87.7682 58.4341C87.8073 58.4211 87.8447 58.4146 87.8805 58.4146C87.9196 58.4146 87.9391 58.4422 87.9391 58.4976V61.7739C87.9391 62.0018 88.04 62.1776 88.2418 62.3013C88.4436 62.425 88.7008 62.4868 89.0133 62.4868C89.3291 62.4868 89.6123 62.3908 89.8629 62.1987C89.941 62.1369 90.0061 62.0685 90.0582 61.9937V59.3472C90.0485 59.2528 90.0061 59.1714 89.9313 59.103C89.8304 59.0184 89.7246 58.9728 89.6139 58.9663C89.5065 58.9598 89.4528 58.9272 89.4528 58.8687C89.4528 58.8068 89.4788 58.7694 89.5309 58.7563L90.649 58.4341C90.6881 58.4211 90.7255 58.4146 90.7614 58.4146C90.8004 58.4146 90.8199 58.4471 90.8199 58.5122V61.979C90.8362 62.1222 90.8769 62.2248 90.942 62.2866C91.0071 62.3485 91.1129 62.3794 91.2594 62.3794L91.5426 62.3599C91.5621 62.3599 91.5719 62.3794 91.5719 62.4185C91.5719 62.4543 91.5475 62.4836 91.4987 62.5063L90.1998 63.0435C90.1608 63.063 90.1266 63.0728 90.0973 63.0728C90.0712 63.0728 90.0582 63.0321 90.0582 62.9507V62.5112ZM94.5748 59.6011C94.5748 59.6727 94.5472 59.7085 94.4918 59.7085C94.4397 59.7085 94.399 59.6694 94.3698 59.5913C94.2916 59.3765 94.1744 59.186 94.0182 59.02C93.8652 58.854 93.6748 58.771 93.4469 58.771C93.1474 58.771 92.9456 58.9207 92.8414 59.2202C92.8089 59.3211 92.7926 59.4253 92.7926 59.5327C92.7926 59.6401 92.861 59.7606 92.9977 59.894C93.1344 60.0243 93.359 60.1805 93.6715 60.3628C93.984 60.5451 94.2119 60.6997 94.3551 60.8267C94.6806 61.1164 94.8434 61.4517 94.8434 61.8325C94.8434 62.2134 94.7034 62.5161 94.4235 62.7407C94.1435 62.9621 93.818 63.0728 93.4469 63.0728C93.2483 63.0728 93.0677 63.0451 92.9049 62.9897C92.7454 62.9377 92.6526 62.9116 92.6266 62.9116C92.6038 62.9116 92.5647 62.9377 92.5094 62.9897C92.4573 63.0451 92.415 63.0728 92.3824 63.0728H92.2994C92.2799 63.0728 92.2555 62.897 92.2262 62.5454C92.1969 62.1938 92.1823 61.9855 92.1823 61.9204C92.1823 61.8553 92.1871 61.8195 92.1969 61.813C92.2099 61.8065 92.2295 61.8032 92.2555 61.8032C92.2815 61.8032 92.3027 61.8114 92.319 61.8276C92.3385 61.8439 92.3548 61.8651 92.3678 61.8911C92.3808 61.9139 92.3906 61.9383 92.3971 61.9644C92.4069 61.9904 92.428 62.0392 92.4606 62.1108C92.6819 62.5828 93.0237 62.8188 93.486 62.8188C93.691 62.8188 93.8554 62.744 93.9791 62.5942C94.1028 62.4412 94.1647 62.272 94.1647 62.0864C94.1647 61.9009 94.1158 61.7446 94.0182 61.6177C93.9205 61.4907 93.7985 61.3752 93.652 61.271C93.5087 61.1668 93.3525 61.0659 93.1832 60.9683C92.5257 60.5841 92.1969 60.1593 92.1969 59.6938C92.1969 59.3455 92.3466 59.0461 92.6461 58.7954C92.9456 58.5415 93.2532 58.4146 93.569 58.4146C93.8847 58.4146 94.1175 58.4487 94.2672 58.5171C94.4202 58.5854 94.5097 58.644 94.5358 58.6929C94.5618 58.7384 94.5748 58.8914 94.5748 59.1519V59.6011ZM97.9244 59.6011C97.9244 59.6727 97.8968 59.7085 97.8414 59.7085C97.7893 59.7085 97.7487 59.6694 97.7194 59.5913C97.6412 59.3765 97.524 59.186 97.3678 59.02C97.2148 58.854 97.0244 58.771 96.7965 58.771C96.497 58.771 96.2952 58.9207 96.191 59.2202C96.1585 59.3211 96.1422 59.4253 96.1422 59.5327C96.1422 59.6401 96.2106 59.7606 96.3473 59.894C96.484 60.0243 96.7086 60.1805 97.0211 60.3628C97.3336 60.5451 97.5615 60.6997 97.7047 60.8267C98.0302 61.1164 98.193 61.4517 98.193 61.8325C98.193 62.2134 98.053 62.5161 97.7731 62.7407C97.4931 62.9621 97.1676 63.0728 96.7965 63.0728C96.5979 63.0728 96.4173 63.0451 96.2545 62.9897C96.095 62.9377 96.0022 62.9116 95.9762 62.9116C95.9534 62.9116 95.9143 62.9377 95.859 62.9897C95.8069 63.0451 95.7646 63.0728 95.7321 63.0728H95.649C95.6295 63.0728 95.6051 62.897 95.5758 62.5454C95.5465 62.1938 95.5319 61.9855 95.5319 61.9204C95.5319 61.8553 95.5367 61.8195 95.5465 61.813C95.5595 61.8065 95.5791 61.8032 95.6051 61.8032C95.6311 61.8032 95.6523 61.8114 95.6686 61.8276C95.6881 61.8439 95.7044 61.8651 95.7174 61.8911C95.7304 61.9139 95.7402 61.9383 95.7467 61.9644C95.7565 61.9904 95.7776 62.0392 95.8102 62.1108C96.0315 62.5828 96.3733 62.8188 96.8356 62.8188C97.0406 62.8188 97.205 62.744 97.3287 62.5942C97.4524 62.4412 97.5143 62.272 97.5143 62.0864C97.5143 61.9009 97.4655 61.7446 97.3678 61.6177C97.2701 61.4907 97.1481 61.3752 97.0016 61.271C96.8584 61.1668 96.7021 61.0659 96.5328 60.9683C95.8753 60.5841 95.5465 60.1593 95.5465 59.6938C95.5465 59.3455 95.6962 59.0461 95.9957 58.7954C96.2952 58.5415 96.6028 58.4146 96.9186 58.4146C97.2343 58.4146 97.4671 58.4487 97.6168 58.5171C97.7698 58.5854 97.8593 58.644 97.8854 58.6929C97.9114 58.7384 97.9244 58.8914 97.9244 59.1519V59.6011ZM98.9059 62.9409C98.8733 62.9344 98.8571 62.9116 98.8571 62.8726C98.8571 62.814 98.9336 62.7749 99.0865 62.7554C99.4381 62.7033 99.6139 62.5177 99.6139 62.1987V59.6157C99.6139 59.479 99.539 59.3846 99.3893 59.3325C99.3242 59.3097 99.2542 59.2918 99.1793 59.2788C99.1045 59.2625 99.0442 59.2479 98.9987 59.2349C98.9563 59.2218 98.9287 59.2104 98.9156 59.2007C98.9059 59.1877 98.901 59.1632 98.901 59.1274C98.901 59.0884 98.9254 59.0558 98.9742 59.0298L100.219 58.4438C100.258 58.4243 100.283 58.4146 100.293 58.4146C100.348 58.4146 100.376 58.4536 100.376 58.5317V62.1987C100.376 62.5177 100.551 62.7033 100.903 62.7554C101.056 62.7749 101.132 62.8091 101.132 62.8579C101.132 62.9067 101.116 62.9344 101.084 62.9409H98.9059ZM99.9215 57.0425C99.788 57.0425 99.6692 57.0002 99.5651 56.9155C99.4642 56.8309 99.4137 56.7137 99.4137 56.564C99.4137 56.411 99.4625 56.2905 99.5602 56.2026C99.6578 56.1147 99.7734 56.0708 99.9069 56.0708C100.044 56.0708 100.158 56.1229 100.249 56.2271C100.343 56.3312 100.39 56.4435 100.39 56.564C100.39 56.6844 100.346 56.7951 100.258 56.896C100.171 56.9937 100.058 57.0425 99.9215 57.0425ZM107.422 62.1353C107.422 62.2199 107.461 62.2882 107.539 62.3403C107.62 62.3892 107.713 62.4136 107.817 62.4136C107.921 62.4136 108.007 62.3875 108.076 62.3354C108.147 62.2801 108.196 62.2524 108.222 62.2524C108.248 62.2524 108.261 62.2882 108.261 62.3599C108.261 62.4282 108.229 62.4868 108.164 62.5356C107.675 62.8937 107.345 63.0728 107.172 63.0728C106.964 63.0728 106.795 62.8563 106.665 62.4233C106.655 62.3908 106.647 62.3761 106.64 62.3794C106.237 62.6821 105.983 62.8644 105.879 62.9263C105.612 63.0793 105.343 63.1037 105.073 62.9995C104.806 62.8953 104.612 62.7228 104.492 62.4819C104.433 62.3582 104.404 62.2264 104.404 62.0864C104.404 61.8097 104.506 61.59 104.712 61.4272C104.917 61.2645 105.307 61.1082 105.883 60.9585C106.079 60.9064 106.253 60.8397 106.406 60.7583C106.559 60.6769 106.639 60.6248 106.645 60.6021C106.655 60.5793 106.66 60.5581 106.66 60.5386V59.6011C106.66 59.2332 106.517 58.9744 106.23 58.8247C106.136 58.7759 106.022 58.7515 105.888 58.7515C105.758 58.7515 105.625 58.8035 105.488 58.9077C105.354 59.0119 105.288 59.16 105.288 59.3521L105.312 59.5425C105.293 59.5815 105.175 59.6466 104.961 59.7378C104.746 59.8289 104.622 59.8778 104.589 59.8843C104.537 59.8843 104.511 59.8224 104.511 59.6987C104.511 59.5718 104.549 59.4318 104.624 59.2788C104.699 59.1258 104.804 58.9858 104.941 58.8589C105.26 58.5627 105.625 58.4146 106.035 58.4146C106.445 58.4146 106.779 58.5285 107.036 58.7563C107.293 58.981 107.422 59.2495 107.422 59.562V62.1353ZM105.171 61.9937C105.171 62.1499 105.231 62.2866 105.351 62.4038C105.472 62.5177 105.608 62.5747 105.761 62.5747C105.918 62.5747 106.106 62.5096 106.328 62.3794C106.549 62.2459 106.66 62.1092 106.66 61.9692V60.978C106.66 60.9422 106.652 60.9243 106.635 60.9243C106.619 60.9243 106.608 60.9259 106.601 60.9292L105.468 61.4565C105.351 61.5412 105.271 61.6128 105.229 61.6714C105.19 61.73 105.171 61.8374 105.171 61.9937ZM108.73 62.9409C108.698 62.9344 108.681 62.9116 108.681 62.8726C108.681 62.814 108.758 62.7749 108.911 62.7554C109.262 62.7033 109.438 62.5177 109.438 62.1987V59.6157C109.438 59.479 109.363 59.3846 109.214 59.3325C109.148 59.3097 109.078 59.2918 109.004 59.2788C108.929 59.2625 108.868 59.2479 108.823 59.2349C108.781 59.2218 108.753 59.2104 108.74 59.2007C108.73 59.1877 108.725 59.1632 108.725 59.1274C108.725 59.0884 108.75 59.0558 108.798 59.0298L110.044 58.4438C110.083 58.4243 110.107 58.4146 110.117 58.4146C110.172 58.4146 110.2 58.4536 110.2 58.5317V62.1987C110.2 62.5177 110.376 62.7033 110.727 62.7554C110.88 62.7749 110.957 62.8091 110.957 62.8579C110.957 62.9067 110.94 62.9344 110.908 62.9409H108.73ZM109.746 57.0425C109.612 57.0425 109.493 57.0002 109.389 56.9155C109.288 56.8309 109.238 56.7137 109.238 56.564C109.238 56.411 109.287 56.2905 109.384 56.2026C109.482 56.1147 109.598 56.0708 109.731 56.0708C109.868 56.0708 109.982 56.1229 110.073 56.2271C110.167 56.3312 110.214 56.4435 110.214 56.564C110.214 56.6844 110.171 56.7951 110.083 56.896C109.995 56.9937 109.882 57.0425 109.746 57.0425ZM113.344 62.7554C113.497 62.7749 113.574 62.814 113.574 62.8726C113.574 62.9116 113.558 62.9344 113.525 62.9409H111.347C111.315 62.9344 111.298 62.9116 111.298 62.8726C111.298 62.814 111.375 62.7749 111.528 62.7554C111.88 62.7033 112.055 62.5177 112.055 62.1987V56.1099C112.055 55.9731 111.98 55.8787 111.831 55.8267C111.766 55.8039 111.696 55.786 111.621 55.7729C111.546 55.7567 111.486 55.742 111.44 55.729C111.398 55.716 111.37 55.7046 111.357 55.6948C111.347 55.6818 111.342 55.6574 111.342 55.6216C111.342 55.5825 111.367 55.55 111.416 55.5239L112.661 54.938C112.7 54.9185 112.724 54.9087 112.734 54.9087C112.789 54.9087 112.817 54.9478 112.817 55.0259V62.1987C112.817 62.5177 112.993 62.7033 113.344 62.7554ZM115.893 62.7554C116.046 62.7749 116.123 62.814 116.123 62.8726C116.123 62.9116 116.106 62.9344 116.074 62.9409H113.896C113.864 62.9344 113.847 62.9116 113.847 62.8726C113.847 62.814 113.924 62.7749 114.077 62.7554C114.428 62.7033 114.604 62.5177 114.604 62.1987V56.1099C114.604 55.9731 114.529 55.8787 114.38 55.8267C114.314 55.8039 114.244 55.786 114.17 55.7729C114.095 55.7567 114.034 55.742 113.989 55.729C113.947 55.716 113.919 55.7046 113.906 55.6948C113.896 55.6818 113.891 55.6574 113.891 55.6216C113.891 55.5825 113.916 55.55 113.964 55.5239L115.21 54.938C115.249 54.9185 115.273 54.9087 115.283 54.9087C115.338 54.9087 115.366 54.9478 115.366 55.0259V62.1987C115.366 62.5177 115.542 62.7033 115.893 62.7554ZM117.426 60.3677C117.371 60.3677 117.343 60.4865 117.343 60.7241C117.343 61.2287 117.493 61.6519 117.793 61.9937C118.092 62.3354 118.463 62.5063 118.906 62.5063C119.352 62.5063 119.78 62.3143 120.19 61.9302C120.197 61.9237 120.205 61.9204 120.214 61.9204H120.239C120.258 61.9204 120.276 61.9367 120.293 61.9692C120.312 61.9985 120.33 62.0181 120.346 62.0278C119.969 62.4868 119.524 62.8042 119.013 62.98C118.838 63.0418 118.639 63.0728 118.418 63.0728C118.196 63.0728 117.972 63.0125 117.744 62.8921C117.516 62.7684 117.321 62.6073 117.158 62.4087C116.813 61.9953 116.64 61.481 116.64 60.8657C116.64 60.2472 116.827 59.6841 117.202 59.1763C117.579 58.6685 118.097 58.4146 118.755 58.4146C119.227 58.4146 119.612 58.6261 119.912 59.0493C120.211 59.4692 120.361 59.8387 120.361 60.1577C120.361 60.2977 120.327 60.3677 120.258 60.3677H117.426ZM117.48 59.8989C117.48 59.9608 117.509 59.9917 117.568 59.9917H119.409C119.493 59.9917 119.536 59.9412 119.536 59.8403C119.536 59.606 119.43 59.3667 119.218 59.1226C119.01 58.8752 118.781 58.7515 118.53 58.7515C118.286 58.7515 118.063 58.8621 117.861 59.0835C117.662 59.3049 117.535 59.5571 117.48 59.8403V59.8989ZM124.521 62.5112C124.505 62.4559 124.484 62.438 124.458 62.4575C124.432 62.4738 124.326 62.5291 124.14 62.6235C123.532 62.9263 123.024 63.0776 122.617 63.0776C122.21 63.0776 121.917 62.9474 121.738 62.687C121.673 62.5894 121.64 62.4689 121.64 62.3257V59.3472C121.63 59.2528 121.588 59.1714 121.513 59.103C121.412 59.0184 121.307 58.9728 121.196 58.9663C121.089 58.9598 121.035 58.9272 121.035 58.8687C121.035 58.8068 121.061 58.7694 121.113 58.7563L122.231 58.4341C122.27 58.4211 122.308 58.4146 122.343 58.4146C122.382 58.4146 122.402 58.4422 122.402 58.4976V61.7739C122.402 62.0018 122.503 62.1776 122.705 62.3013C122.907 62.425 123.164 62.4868 123.476 62.4868C123.792 62.4868 124.075 62.3908 124.326 62.1987C124.404 62.1369 124.469 62.0685 124.521 61.9937V59.3472C124.511 59.2528 124.469 59.1714 124.394 59.103C124.293 59.0184 124.187 58.9728 124.077 58.9663C123.969 58.9598 123.916 58.9272 123.916 58.8687C123.916 58.8068 123.942 58.7694 123.994 58.7563L125.112 58.4341C125.151 58.4211 125.188 58.4146 125.224 58.4146C125.263 58.4146 125.283 58.4471 125.283 58.5122V61.979C125.299 62.1222 125.34 62.2248 125.405 62.2866C125.47 62.3485 125.576 62.3794 125.722 62.3794L126.005 62.3599C126.025 62.3599 126.035 62.3794 126.035 62.4185C126.035 62.4543 126.01 62.4836 125.962 62.5063L124.663 63.0435C124.624 63.063 124.589 63.0728 124.56 63.0728C124.534 63.0728 124.521 63.0321 124.521 62.9507V62.5112ZM129.638 59.4399C129.599 59.4334 129.542 59.4123 129.467 59.3765C129.197 59.2528 128.986 59.1909 128.833 59.1909C128.68 59.1909 128.519 59.2869 128.349 59.479C128.183 59.6678 128.1 59.8387 128.1 59.9917V62.1987C128.1 62.4429 128.242 62.6056 128.525 62.687C128.649 62.7196 128.764 62.744 128.872 62.7603C128.979 62.7733 129.047 62.7863 129.077 62.7993C129.109 62.8123 129.126 62.8384 129.126 62.8774C129.126 62.9132 129.109 62.9344 129.077 62.9409H126.63C126.598 62.9344 126.582 62.9116 126.582 62.8726C126.582 62.814 126.658 62.7749 126.811 62.7554C127.163 62.7033 127.339 62.5177 127.339 62.1987V59.6157C127.339 59.479 127.264 59.3846 127.114 59.3325C127.049 59.3097 126.979 59.2918 126.904 59.2788C126.829 59.2625 126.769 59.2479 126.723 59.2349C126.681 59.2218 126.653 59.2104 126.64 59.2007C126.63 59.1877 126.626 59.1632 126.626 59.1274C126.626 59.0884 126.65 59.0558 126.699 59.0298L127.944 58.4438C127.983 58.4243 128.007 58.4146 128.017 58.4146C128.073 58.4146 128.1 58.4536 128.1 58.5317V59.3228C128.1 59.3618 128.11 59.3813 128.13 59.3813C128.156 59.3813 128.222 59.3049 128.33 59.1519C128.639 58.7189 128.894 58.5024 129.096 58.5024C129.21 58.5024 129.384 58.548 129.619 58.6392C129.856 58.7303 129.975 58.8068 129.975 58.8687C129.975 58.9435 129.938 59.0575 129.863 59.2104C129.788 59.3634 129.713 59.4399 129.638 59.4399ZM132.69 59.6011C132.69 59.6727 132.662 59.7085 132.607 59.7085C132.555 59.7085 132.514 59.6694 132.485 59.5913C132.407 59.3765 132.29 59.186 132.133 59.02C131.98 58.854 131.79 58.771 131.562 58.771C131.263 58.771 131.061 58.9207 130.957 59.2202C130.924 59.3211 130.908 59.4253 130.908 59.5327C130.908 59.6401 130.976 59.7606 131.113 59.894C131.25 60.0243 131.474 60.1805 131.787 60.3628C132.099 60.5451 132.327 60.6997 132.47 60.8267C132.796 61.1164 132.959 61.4517 132.959 61.8325C132.959 62.2134 132.819 62.5161 132.539 62.7407C132.259 62.9621 131.933 63.0728 131.562 63.0728C131.364 63.0728 131.183 63.0451 131.02 62.9897C130.861 62.9377 130.768 62.9116 130.742 62.9116C130.719 62.9116 130.68 62.9377 130.625 62.9897C130.573 63.0451 130.53 63.0728 130.498 63.0728H130.415C130.395 63.0728 130.371 62.897 130.341 62.5454C130.312 62.1938 130.297 61.9855 130.297 61.9204C130.297 61.8553 130.302 61.8195 130.312 61.813C130.325 61.8065 130.345 61.8032 130.371 61.8032C130.397 61.8032 130.418 61.8114 130.434 61.8276C130.454 61.8439 130.47 61.8651 130.483 61.8911C130.496 61.9139 130.506 61.9383 130.512 61.9644C130.522 61.9904 130.543 62.0392 130.576 62.1108C130.797 62.5828 131.139 62.8188 131.601 62.8188C131.806 62.8188 131.971 62.744 132.094 62.5942C132.218 62.4412 132.28 62.272 132.28 62.0864C132.28 61.9009 132.231 61.7446 132.133 61.6177C132.036 61.4907 131.914 61.3752 131.767 61.271C131.624 61.1668 131.468 61.0659 131.298 60.9683C130.641 60.5841 130.312 60.1593 130.312 59.6938C130.312 59.3455 130.462 59.0461 130.761 58.7954C131.061 58.5415 131.368 58.4146 131.684 58.4146C132 58.4146 132.233 58.4487 132.382 58.5171C132.535 58.5854 132.625 58.644 132.651 58.6929C132.677 58.7384 132.69 58.8914 132.69 59.1519V59.6011ZM133.964 62.4526C133.964 62.2769 134.026 62.1255 134.15 61.9985C134.274 61.8683 134.423 61.8032 134.599 61.8032C134.772 61.8032 134.92 61.8667 135.044 61.9937C135.171 62.1174 135.234 62.2687 135.234 62.4478C135.234 62.6268 135.172 62.7765 135.048 62.897C134.925 63.0142 134.775 63.0728 134.599 63.0728C134.427 63.0728 134.277 63.0125 134.15 62.8921C134.026 62.7716 133.964 62.6252 133.964 62.4526Z" fill="#EFB85F"/>
<path d="M17.5002 10L18.696 11.9748L21 13L18.696 14.0249L17.5002 16L16.304 14.0249L14 13L16.304 11.9748L17.5002 10Z" fill="#EFB85F"/>
<path d="M17.5002 86L18.696 87.9748L21 89L18.696 90.0249L17.5002 92L16.304 90.0249L14 89L16.304 87.9748L17.5002 86Z" fill="#EFB85F"/>
<path d="M124.5 84L125.696 85.9748L128 87L125.696 88.0249L124.5 90L123.304 88.0249L121 87L123.304 85.9748L124.5 84Z" fill="#EFB85F"/>
<path d="M80.5002 90L81.696 91.9748L84 93L81.696 94.0249L80.5002 96L79.304 94.0249L77 93L79.304 91.9748L80.5002 90Z" fill="#EFB85F"/>
<path d="M120.5 7L121.696 8.97475L124 10L121.696 11.0249L120.5 13L119.304 11.0249L117 10L119.304 8.97475L120.5 7Z" fill="#EFB85F"/>
<path d="M95.125 16.6259C95.1509 16.3615 95.1942 15.7335 95.2288 15.2377C95.2634 14.6647 95.324 14.3011 95.3932 14.2681C95.4538 14.235 95.7307 14.4113 95.999 14.6537C96.2759 14.9071 96.5182 15.0834 96.5441 15.0504C96.5615 15.0283 96.397 14.6757 96.1807 14.2791C95.9038 13.7943 95.8086 13.5519 95.8865 13.5189C95.9471 13.4968 96.3884 13.4197 96.8643 13.3426C98.3873 13.1222 98.3787 13.001 96.8384 12.7917C96.3019 12.7145 95.8519 12.6154 95.8346 12.5823C95.8086 12.5382 95.973 12.2187 96.1807 11.8661C96.3884 11.5025 96.5441 11.183 96.5182 11.15C96.4922 11.1279 96.2326 11.3152 95.9471 11.5687C95.6528 11.8331 95.3932 11.9984 95.3586 11.9543C95.3154 11.8992 95.2461 11.2381 95.1856 10.4779C95.0298 8.49462 94.9606 8.50564 94.7962 10.5219C94.7356 11.2822 94.6664 11.9433 94.6317 11.9763C94.6058 12.0094 94.3462 11.8331 94.052 11.5797C93.7664 11.3152 93.5155 11.1279 93.4895 11.161C93.4722 11.183 93.602 11.4805 93.7924 11.8111C93.9827 12.1306 94.1385 12.4611 94.1385 12.5272C94.1385 12.6044 93.7664 12.7035 93.1607 12.7917C91.6117 13.001 91.6117 13.1222 93.1693 13.3536C93.7577 13.4417 94.1385 13.5519 94.1385 13.618C94.1385 13.6841 93.9827 14.0147 93.7924 14.3342C93.3857 15.0283 93.351 15.2046 93.6799 14.9292C93.8183 14.83 94.0693 14.6096 94.251 14.4554C94.6664 14.1138 94.701 14.1689 94.7789 15.3589C94.8913 17.1107 95.0211 17.5735 95.125 16.6259Z" fill="#EFB85F"/>
<path d="M39.125 89.6259C39.1509 89.3615 39.1942 88.7335 39.2288 88.2377C39.2634 87.6647 39.324 87.3011 39.3932 87.2681C39.4538 87.235 39.7307 87.4113 39.999 87.6537C40.2759 87.9071 40.5182 88.0834 40.5441 88.0504C40.5615 88.0283 40.397 87.6757 40.1807 87.2791C39.9038 86.7943 39.8086 86.5519 39.8865 86.5189C39.9471 86.4968 40.3884 86.4197 40.8643 86.3426C42.3873 86.1222 42.3787 86.001 40.8384 85.7917C40.3019 85.7145 39.8519 85.6154 39.8346 85.5823C39.8086 85.5382 39.973 85.2187 40.1807 84.8661C40.3884 84.5025 40.5441 84.183 40.5182 84.15C40.4922 84.1279 40.2326 84.3152 39.9471 84.5687C39.6528 84.8331 39.3932 84.9984 39.3586 84.9543C39.3154 84.8992 39.2461 84.2381 39.1856 83.4779C39.0298 81.4946 38.9606 81.5056 38.7962 83.5219C38.7356 84.2822 38.6664 84.9433 38.6317 84.9763C38.6058 85.0094 38.3462 84.8331 38.052 84.5797C37.7664 84.3152 37.5155 84.1279 37.4895 84.161C37.4722 84.183 37.602 84.4805 37.7924 84.8111C37.9827 85.1306 38.1385 85.4611 38.1385 85.5272C38.1385 85.6044 37.7664 85.7035 37.1607 85.7917C35.6117 86.001 35.6117 86.1222 37.1693 86.3536C37.7577 86.4417 38.1385 86.5519 38.1385 86.618C38.1385 86.6841 37.9827 87.0147 37.7924 87.3342C37.3857 88.0283 37.351 88.2046 37.6799 87.9292C37.8183 87.83 38.0693 87.6096 38.251 87.4554C38.6664 87.1138 38.701 87.1689 38.7789 88.3589C38.8913 90.1107 39.0211 90.5735 39.125 89.6259Z" fill="#EFB85F"/>
<path d="M110.125 99.6259C110.151 99.3615 110.194 98.7335 110.229 98.2377C110.263 97.6647 110.324 97.3011 110.393 97.2681C110.454 97.235 110.731 97.4113 110.999 97.6537C111.276 97.9071 111.518 98.0834 111.544 98.0504C111.561 98.0283 111.397 97.6757 111.181 97.2791C110.904 96.7943 110.809 96.5519 110.886 96.5189C110.947 96.4968 111.388 96.4197 111.864 96.3426C113.387 96.1222 113.379 96.001 111.838 95.7917C111.302 95.7145 110.852 95.6154 110.835 95.5823C110.809 95.5382 110.973 95.2187 111.181 94.8661C111.388 94.5025 111.544 94.183 111.518 94.15C111.492 94.1279 111.233 94.3152 110.947 94.5687C110.653 94.8331 110.393 94.9984 110.359 94.9543C110.315 94.8992 110.246 94.2381 110.186 93.4779C110.03 91.4946 109.961 91.5056 109.796 93.5219C109.736 94.2822 109.666 94.9433 109.632 94.9763C109.606 95.0094 109.346 94.8331 109.052 94.5797C108.766 94.3152 108.515 94.1279 108.489 94.161C108.472 94.183 108.602 94.4805 108.792 94.8111C108.983 95.1306 109.138 95.4611 109.138 95.5272C109.138 95.6044 108.766 95.7035 108.161 95.7917C106.612 96.001 106.612 96.1222 108.169 96.3536C108.758 96.4417 109.138 96.5519 109.138 96.618C109.138 96.6841 108.983 97.0147 108.792 97.3342C108.386 98.0283 108.351 98.2046 108.68 97.9292C108.818 97.83 109.069 97.6096 109.251 97.4554C109.666 97.1138 109.701 97.1689 109.779 98.3589C109.891 100.111 110.021 100.573 110.125 99.6259Z" fill="#EFB85F"/>
<path d="M53.125 12.6259C53.1509 12.3615 53.1942 11.7335 53.2288 11.2377C53.2634 10.6647 53.324 10.3011 53.3932 10.2681C53.4538 10.235 53.7307 10.4113 53.999 10.6537C54.2759 10.9071 54.5182 11.0834 54.5441 11.0504C54.5615 11.0283 54.397 10.6757 54.1807 10.2791C53.9038 9.7943 53.8086 9.55191 53.8865 9.51885C53.9471 9.49682 54.3884 9.41969 54.8643 9.34256C56.3873 9.1222 56.3787 9.001 54.8384 8.79166C54.3019 8.71453 53.8519 8.61537 53.8346 8.58232C53.8086 8.53825 53.973 8.21872 54.1807 7.86614C54.3884 7.50255 54.5441 7.18302 54.5182 7.14997C54.4922 7.12793 54.2326 7.31524 53.9471 7.56866C53.6528 7.83309 53.3932 7.99836 53.3586 7.95429C53.3154 7.8992 53.2461 7.23811 53.1856 6.47787C53.0298 4.49462 52.9606 4.50564 52.7962 6.52194C52.7356 7.28219 52.6664 7.94327 52.6317 7.97632C52.6058 8.00938 52.3462 7.83309 52.052 7.57967C51.7664 7.31524 51.5155 7.12793 51.4895 7.16099C51.4722 7.18302 51.602 7.48051 51.7924 7.81105C51.9827 8.13058 52.1385 8.46112 52.1385 8.52723C52.1385 8.60435 51.7664 8.70352 51.1607 8.79166C49.6117 9.001 49.6117 9.1222 51.1693 9.35358C51.7577 9.44173 52.1385 9.55191 52.1385 9.61802C52.1385 9.68412 51.9827 10.0147 51.7924 10.3342C51.3857 11.0283 51.351 11.2046 51.6799 10.9292C51.8183 10.83 52.0693 10.6096 52.251 10.4554C52.6664 10.1138 52.701 10.1689 52.7789 11.3589C52.8913 13.1107 53.0211 13.5735 53.125 12.6259Z" fill="#EFB85F"/>
<circle cx="26" cy="81" r="1" fill="#EFB85F"/>
<circle cx="57" cy="96" r="1" fill="#EFB85F"/>
<circle cx="111" cy="84" r="1" fill="#EFB85F"/>
<circle cx="139" cy="16" r="1" fill="#EFB85F"/>
<circle cx="143" cy="55" r="1" fill="#EFB85F"/>
<circle cx="139" cy="93" r="1" fill="#EFB85F"/>
<circle cx="36" cy="10" r="1" fill="#EFB85F"/>
<circle cx="75" cy="6" r="1" fill="#EFB85F"/>
<path d="M30.1536 96.762L33.0001 96.6487L30.1536 96.5354L31.0464 95.3761L30.0932 96.4619L30 93L29.9069 96.4619L28.9537 95.3761L29.8465 96.5354L27 96.6487L29.8465 96.762L28.9537 97.9212L29.9069 96.8354L30 100.297L30.0932 96.8354L31.0464 97.9212L30.1536 96.762Z" fill="#EFB85F"/>
<path d="M11.1536 76.762L14.0001 76.6487L11.1536 76.5354L12.0464 75.3761L11.0932 76.4619L11 73L10.9069 76.4619L9.95375 75.3761L10.8465 76.5354L8 76.6487L10.8465 76.762L9.95375 77.9212L10.9069 76.8354L11 80.2973L11.0932 76.8354L12.0464 77.9212L11.1536 76.762Z" fill="#EFB85F"/>
<path d="M135.154 32.762L138 32.6487L135.154 32.5354L136.046 31.3761L135.093 32.4619L135 29L134.907 32.4619L133.954 31.3761L134.847 32.5354L132 32.6487L134.847 32.762L133.954 33.9212L134.907 32.8354L135 36.2973L135.093 32.8354L136.046 33.9212L135.154 32.762Z" fill="#EFB85F"/>
<path d="M68.1536 11.762L71.0001 11.6487L68.1536 11.5354L69.0464 10.3761L68.0932 11.4619L68 8L67.9069 11.4619L66.9537 10.3761L67.8465 11.5354L65 11.6487L67.8465 11.762L66.9537 12.9212L67.9069 11.8354L68 15.2973L68.0932 11.8354L69.0464 12.9212L68.1536 11.762Z" fill="#EFB85F"/>
<path d="M137.154 76.762L140 76.6487L137.154 76.5354L138.046 75.3761L137.093 76.4619L137 73L136.907 76.4619L135.954 75.3761L136.847 76.5354L134 76.6487L136.847 76.762L135.954 77.9212L136.907 76.8354L137 80.2973L137.093 76.8354L138.046 77.9212L137.154 76.762Z" fill="#EFB85F"/>
<path d="M129.154 95.762L132 95.6487L129.154 95.5354L130.046 94.3761L129.093 95.4619L129 92L128.907 95.4619L127.954 94.3761L128.847 95.5354L126 95.6487L128.847 95.762L127.954 96.9212L128.907 95.8354L129 99.2973L129.093 95.8354L130.046 96.9212L129.154 95.762Z" fill="#EFB85F"/>
<path d="M8.15357 18.762L11.0001 18.6487L8.15357 18.5354L9.04635 17.3761L8.09316 18.4619L8.00005 15L7.90694 18.4619L6.95375 17.3761L7.84653 18.5354L5 18.6487L7.84653 18.762L6.95375 19.9212L7.90694 18.8354L8.00005 22.2973L8.09316 18.8354L9.04635 19.9212L8.15357 18.762Z" fill="#EFB85F"/>
</svg>
