<svg width="148" height="105" viewBox="0 0 148 105" fill="none" xmlns="http://www.w3.org/2000/svg">
<rect width="147.402" height="104.882" rx="10" fill="black"/>
<path d="M20.4342 41.7847C20.4342 41.7586 20.4489 41.7456 20.4781 41.7456H20.6149C20.9339 41.7456 21.1894 41.6772 21.3815 41.5405C21.5768 41.4038 21.6744 41.2443 21.6744 41.062V35.6567C21.6744 35.5884 21.6598 35.5509 21.6305 35.5444C21.6045 35.5347 21.5719 35.5265 21.5328 35.52H19.6578C19.3551 35.5851 19.1565 35.8179 19.0621 36.2183C19.0101 36.4331 18.9791 36.5715 18.9694 36.6333C18.9596 36.6919 18.9417 36.7212 18.9156 36.7212H18.8278C18.8082 36.7212 18.7985 36.7147 18.7985 36.7017V36.5405L18.9791 35.0171C18.9987 34.9162 19.0312 34.8657 19.0768 34.8657C19.1224 34.8657 19.1712 34.8983 19.2233 34.9634C19.2753 35.0252 19.3746 35.0562 19.5211 35.0562H24.7848C24.9248 35.0562 25.0094 35.0399 25.0387 35.0073C25.068 34.9748 25.0957 34.9438 25.1217 34.9146C25.1477 34.882 25.1803 34.8657 25.2194 34.8657C25.2617 34.8657 25.2877 34.882 25.2975 34.9146C25.3105 34.9471 25.3203 34.9813 25.3268 35.0171L25.5074 36.5405V36.7017C25.5074 36.7147 25.4977 36.7212 25.4781 36.7212H25.3903C25.3642 36.7212 25.3463 36.6968 25.3365 36.6479C25.2845 36.3224 25.2096 36.0653 25.1119 35.8765C25.0143 35.6844 24.8597 35.5656 24.6481 35.52H22.7682C22.7291 35.5265 22.6949 35.5347 22.6656 35.5444C22.6396 35.5509 22.6266 35.5884 22.6266 35.6567V41.062C22.6266 41.2443 22.7226 41.4038 22.9147 41.5405C23.11 41.6772 23.3671 41.7456 23.6862 41.7456H23.8278C23.8538 41.7456 23.8668 41.7586 23.8668 41.7847V41.9019C23.8668 41.9279 23.8538 41.9409 23.8278 41.9409H20.4733C20.4472 41.9409 20.4342 41.9279 20.4342 41.9019V41.7847ZM29.1305 38.4399C29.0914 38.4334 29.0345 38.4123 28.9596 38.3765C28.6894 38.2528 28.4778 38.1909 28.3248 38.1909C28.1718 38.1909 28.0107 38.2869 27.8414 38.479C27.6754 38.6678 27.5924 38.8387 27.5924 38.9917V41.1987C27.5924 41.4429 27.734 41.6056 28.0172 41.687C28.1409 41.7196 28.2565 41.744 28.3639 41.7603C28.4713 41.7733 28.5397 41.7863 28.569 41.7993C28.6015 41.8123 28.6178 41.8384 28.6178 41.8774C28.6178 41.9132 28.6015 41.9344 28.569 41.9409H26.1227C26.0901 41.9344 26.0739 41.9116 26.0739 41.8726C26.0739 41.814 26.1503 41.7749 26.3033 41.7554C26.6549 41.7033 26.8307 41.5177 26.8307 41.1987V38.6157C26.8307 38.479 26.7558 38.3846 26.6061 38.3325C26.541 38.3097 26.471 38.2918 26.3961 38.2788C26.3212 38.2625 26.261 38.2479 26.2155 38.2349C26.1731 38.2218 26.1455 38.2104 26.1324 38.2007C26.1227 38.1877 26.1178 38.1632 26.1178 38.1274C26.1178 38.0884 26.1422 38.0558 26.191 38.0298L27.4362 37.4438C27.4752 37.4243 27.4996 37.4146 27.5094 37.4146C27.5647 37.4146 27.5924 37.4536 27.5924 37.5317V38.3228C27.5924 38.3618 27.6022 38.3813 27.6217 38.3813C27.6477 38.3813 27.7145 38.3049 27.8219 38.1519C28.1311 37.7189 28.3867 37.5024 28.5885 37.5024C28.7024 37.5024 28.8766 37.548 29.111 37.6392C29.3486 37.7303 29.4674 37.8068 29.4674 37.8687C29.4674 37.9435 29.43 38.0575 29.3551 38.2104C29.2802 38.3634 29.2054 38.4399 29.1305 38.4399ZM29.8385 39.7485C29.8385 39.1073 30.0647 38.5571 30.5172 38.0981C30.9729 37.6359 31.5182 37.4048 32.153 37.4048C32.7877 37.4048 33.3395 37.6294 33.8082 38.0786C34.277 38.5246 34.5114 39.0763 34.5114 39.7339C34.5114 40.3914 34.2884 40.9465 33.8424 41.3989C33.3997 41.8481 32.8431 42.0728 32.1725 42.0728C31.5019 42.0728 30.9453 41.8449 30.5026 41.3892C30.0599 40.9334 29.8385 40.3866 29.8385 39.7485ZM31.0543 41.0034C31.3733 41.5405 31.8079 41.8091 32.358 41.8091C32.7845 41.8091 33.11 41.6382 33.3346 41.2964C33.5625 40.9546 33.6764 40.5347 33.6764 40.0366C33.6764 39.5386 33.5169 39.0275 33.1979 38.5034C32.8821 37.9793 32.4557 37.7173 31.9186 37.7173C31.5247 37.7173 31.2138 37.8882 30.986 38.23C30.7614 38.5685 30.649 38.9998 30.649 39.5239C30.649 40.0448 30.7841 40.5379 31.0543 41.0034ZM38.5641 41.5112C38.5478 41.4559 38.5267 41.438 38.5006 41.4575C38.4746 41.4738 38.3688 41.5291 38.1832 41.6235C37.5745 41.9263 37.0667 42.0776 36.6598 42.0776C36.2529 42.0776 35.9599 41.9474 35.7809 41.687C35.7158 41.5894 35.6832 41.4689 35.6832 41.3257V38.3472C35.6735 38.2528 35.6311 38.1714 35.5563 38.103C35.4554 38.0184 35.3496 37.9728 35.2389 37.9663C35.1315 37.9598 35.0778 37.9272 35.0778 37.8687C35.0778 37.8068 35.1038 37.7694 35.1559 37.7563L36.274 37.4341C36.3131 37.4211 36.3505 37.4146 36.3864 37.4146C36.4254 37.4146 36.4449 37.4422 36.4449 37.4976V40.7739C36.4449 41.0018 36.5459 41.1776 36.7477 41.3013C36.9495 41.425 37.2067 41.4868 37.5192 41.4868C37.8349 41.4868 38.1181 41.3908 38.3688 41.1987C38.4469 41.1369 38.512 41.0685 38.5641 40.9937V38.3472C38.5543 38.2528 38.512 38.1714 38.4371 38.103C38.3362 38.0184 38.2304 37.9728 38.1198 37.9663C38.0123 37.9598 37.9586 37.9272 37.9586 37.8687C37.9586 37.8068 37.9847 37.7694 38.0367 37.7563L39.1549 37.4341C39.194 37.4211 39.2314 37.4146 39.2672 37.4146C39.3063 37.4146 39.3258 37.4471 39.3258 37.5122V40.979C39.3421 41.1222 39.3828 41.2248 39.4479 41.2866C39.513 41.3485 39.6188 41.3794 39.7653 41.3794L40.0485 41.3599C40.068 41.3599 40.0778 41.3794 40.0778 41.4185C40.0778 41.4543 40.0533 41.4836 40.0045 41.5063L38.7057 42.0435C38.6666 42.063 38.6324 42.0728 38.6031 42.0728C38.5771 42.0728 38.5641 42.0321 38.5641 41.9507V41.5112ZM45.3268 37.5464C45.3626 37.5562 45.3805 37.5789 45.3805 37.6147C45.3805 37.6506 45.3756 37.6766 45.3658 37.6929C45.3561 37.7091 45.2845 37.7271 45.151 37.7466C45.0175 37.7661 44.9215 37.8052 44.8629 37.8638C44.8076 37.9191 44.7571 37.9826 44.7115 38.0542C44.6692 38.1258 44.6318 38.2007 44.5992 38.2788C44.5667 38.3537 44.5358 38.422 44.5065 38.4839L43.1735 41.9312C43.1344 42.0256 43.0986 42.0728 43.066 42.0728H42.6803C42.6477 42.0728 42.6119 42.0223 42.5729 41.9214L41.2789 38.4204C41.1585 38.0916 40.9518 37.88 40.6588 37.7856C40.636 37.7791 40.6084 37.7743 40.5758 37.771C40.4391 37.758 40.3707 37.7173 40.3707 37.6489C40.3707 37.5806 40.4098 37.5464 40.4879 37.5464H42.6608C42.6868 37.5464 42.6998 37.5724 42.6998 37.6245C42.6998 37.6733 42.6819 37.7059 42.6461 37.7222C42.5875 37.745 42.4834 37.7547 42.3336 37.7515C42.0895 37.745 41.9674 37.8426 41.9674 38.0444L41.9967 38.1616L42.9879 40.8716C43.053 41.0376 43.1181 41.0327 43.1832 40.8569C43.1897 40.8407 43.2321 40.7349 43.3102 40.5396C43.7496 39.4165 43.9954 38.7671 44.0475 38.5913C44.1028 38.4155 44.1305 38.2837 44.1305 38.1958C44.1305 38.1079 44.0833 38.0168 43.9889 37.9224C43.8945 37.8247 43.7675 37.7759 43.608 37.7759C43.4485 37.7759 43.3688 37.7271 43.3688 37.6294C43.3688 37.5741 43.4046 37.5464 43.4762 37.5464H45.3268ZM46.5573 39.3677C46.5019 39.3677 46.4742 39.4865 46.4742 39.7241C46.4742 40.2287 46.624 40.6519 46.9235 40.9937C47.2229 41.3354 47.594 41.5063 48.0367 41.5063C48.4827 41.5063 48.9108 41.3143 49.3209 40.9302C49.3274 40.9237 49.3356 40.9204 49.3453 40.9204H49.3698C49.3893 40.9204 49.4072 40.9367 49.4235 40.9692C49.443 40.9985 49.4609 41.0181 49.4772 41.0278C49.0996 41.4868 48.6552 41.8042 48.1442 41.98C47.9684 42.0418 47.7698 42.0728 47.5485 42.0728C47.3271 42.0728 47.1025 42.0125 46.8746 41.8921C46.6468 41.7684 46.4515 41.6073 46.2887 41.4087C45.9436 40.9953 45.7711 40.481 45.7711 39.8657C45.7711 39.2472 45.9583 38.6841 46.3326 38.1763C46.7102 37.6685 47.2278 37.4146 47.8854 37.4146C48.3574 37.4146 48.7431 37.6261 49.0426 38.0493C49.3421 38.4692 49.4918 38.8387 49.4918 39.1577C49.4918 39.2977 49.4576 39.3677 49.3893 39.3677H46.5573ZM46.611 38.8989C46.611 38.9608 46.6403 38.9917 46.6989 38.9917H48.5397C48.6243 38.9917 48.6666 38.9412 48.6666 38.8403C48.6666 38.606 48.5608 38.3667 48.3492 38.1226C48.1409 37.8752 47.9114 37.7515 47.6608 37.7515C47.4166 37.7515 47.1936 37.8621 46.9918 38.0835C46.7933 38.3049 46.6663 38.5571 46.611 38.8403V38.8989ZM54.7994 41.7554C54.9524 41.7749 55.0289 41.814 55.0289 41.8726C55.0289 41.9116 55.0127 41.9344 54.9801 41.9409H52.8024C52.7698 41.9344 52.7535 41.9116 52.7535 41.8726C52.7535 41.814 52.83 41.7749 52.983 41.7554C53.3346 41.7033 53.5104 41.5177 53.5104 41.1987V35.1099C53.5104 34.9731 53.4355 34.8787 53.2858 34.8267C53.2207 34.8039 53.1507 34.786 53.0758 34.7729C53.0009 34.7567 52.9407 34.742 52.8951 34.729C52.8528 34.716 52.8252 34.7046 52.8121 34.6948C52.8024 34.6818 52.7975 34.6574 52.7975 34.6216C52.7975 34.5825 52.8219 34.55 52.8707 34.5239L54.1158 33.938C54.1549 33.9185 54.1793 33.9087 54.1891 33.9087C54.2444 33.9087 54.2721 33.9478 54.2721 34.0259V41.1987C54.2721 41.5177 54.4479 41.7033 54.7994 41.7554ZM58.5641 41.1353C58.5641 41.2199 58.6031 41.2882 58.6813 41.3403C58.7627 41.3892 58.8554 41.4136 58.9596 41.4136C59.0638 41.4136 59.15 41.3875 59.2184 41.3354C59.29 41.2801 59.3388 41.2524 59.3649 41.2524C59.3909 41.2524 59.4039 41.2882 59.4039 41.3599C59.4039 41.4282 59.3714 41.4868 59.3063 41.5356C58.818 41.8937 58.4876 42.0728 58.3151 42.0728C58.1067 42.0728 57.9375 41.8563 57.8073 41.4233C57.7975 41.3908 57.7893 41.3761 57.7828 41.3794C57.3792 41.6821 57.1253 41.8644 57.0211 41.9263C56.7542 42.0793 56.4856 42.1037 56.2155 41.9995C55.9485 41.8953 55.7548 41.7228 55.6344 41.4819C55.5758 41.3582 55.5465 41.2264 55.5465 41.0864C55.5465 40.8097 55.649 40.59 55.8541 40.4272C56.0592 40.2645 56.4498 40.1082 57.026 39.9585C57.2213 39.9064 57.3955 39.8397 57.5485 39.7583C57.7015 39.6769 57.7812 39.6248 57.7877 39.6021C57.7975 39.5793 57.8024 39.5581 57.8024 39.5386V38.6011C57.8024 38.2332 57.6591 37.9744 57.3727 37.8247C57.2783 37.7759 57.1643 37.7515 57.0309 37.7515C56.9007 37.7515 56.7672 37.8035 56.6305 37.9077C56.497 38.0119 56.4303 38.16 56.4303 38.3521L56.4547 38.5425C56.4352 38.5815 56.318 38.6466 56.1031 38.7378C55.8883 38.8289 55.7646 38.8778 55.7321 38.8843C55.68 38.8843 55.6539 38.8224 55.6539 38.6987C55.6539 38.5718 55.6914 38.4318 55.7662 38.2788C55.8411 38.1258 55.9469 37.9858 56.0836 37.8589C56.4026 37.5627 56.7672 37.4146 57.1774 37.4146C57.5875 37.4146 57.9212 37.5285 58.1783 37.7563C58.4355 37.981 58.5641 38.2495 58.5641 38.562V41.1353ZM56.3131 40.9937C56.3131 41.1499 56.3733 41.2866 56.4938 41.4038C56.6142 41.5177 56.7509 41.5747 56.9039 41.5747C57.0602 41.5747 57.249 41.5096 57.4703 41.3794C57.6917 41.2459 57.8024 41.1092 57.8024 40.9692V39.978C57.8024 39.9422 57.7942 39.9243 57.778 39.9243C57.7617 39.9243 57.7503 39.9259 57.7438 39.9292L56.611 40.4565C56.4938 40.5412 56.414 40.6128 56.3717 40.6714C56.3326 40.73 56.3131 40.8374 56.3131 40.9937ZM66.3912 38.0005C66.3912 38.2284 66.2594 38.3423 65.9957 38.3423C65.8623 38.3423 65.7483 38.3049 65.6539 38.23C65.5628 38.1519 65.4912 38.0868 65.4391 38.0347C65.3903 37.9793 65.3382 37.9289 65.2828 37.8833C65.0485 37.6912 64.762 37.6701 64.4235 37.8198C64.0882 37.9696 63.8294 38.2886 63.6471 38.7769C63.5462 39.047 63.4957 39.3156 63.4957 39.5825C63.4957 40.1554 63.6259 40.6242 63.8864 40.9888C64.1468 41.3501 64.5455 41.5308 65.0826 41.5308C65.483 41.5308 65.8427 41.3517 66.1617 40.9937C66.2594 40.8862 66.318 40.8325 66.3375 40.8325C66.3571 40.8325 66.3782 40.8423 66.401 40.8618C66.4238 40.8813 66.4352 40.9106 66.4352 40.9497C66.4352 40.9855 66.4254 41.0132 66.4059 41.0327C65.9078 41.7261 65.2812 42.0728 64.526 42.0728C63.9791 42.0728 63.5299 41.8693 63.1783 41.4624C62.83 41.0555 62.6559 40.59 62.6559 40.0659C62.6591 39.0959 62.8935 38.3976 63.359 37.9712C63.7692 37.5968 64.3535 37.4097 65.1119 37.4097C65.5807 37.4097 65.8916 37.4569 66.0446 37.5513C66.1976 37.6457 66.305 37.7645 66.3668 37.9077C66.3831 37.9403 66.3912 37.9712 66.3912 38.0005ZM67.1432 39.7485C67.1432 39.1073 67.3694 38.5571 67.8219 38.0981C68.2776 37.6359 68.8229 37.4048 69.4576 37.4048C70.0924 37.4048 70.6442 37.6294 71.1129 38.0786C71.5817 38.5246 71.816 39.0763 71.816 39.7339C71.816 40.3914 71.5931 40.9465 71.1471 41.3989C70.7044 41.8481 70.1477 42.0728 69.4772 42.0728C68.8066 42.0728 68.25 41.8449 67.8073 41.3892C67.3645 40.9334 67.1432 40.3866 67.1432 39.7485ZM68.359 41.0034C68.678 41.5405 69.1126 41.8091 69.6627 41.8091C70.0892 41.8091 70.4147 41.6382 70.6393 41.2964C70.8671 40.9546 70.9811 40.5347 70.9811 40.0366C70.9811 39.5386 70.8216 39.0275 70.5026 38.5034C70.1868 37.9793 69.7604 37.7173 69.2233 37.7173C68.8294 37.7173 68.5185 37.8882 68.2906 38.23C68.066 38.5685 67.9537 38.9998 67.9537 39.5239C67.9537 40.0448 68.0888 40.5379 68.359 41.0034ZM76.1129 40.4028L76.1031 39.3726C76.1031 38.9526 76.0673 38.658 75.9957 38.4888C75.9241 38.3195 75.833 38.1925 75.7223 38.1079C75.6116 38.02 75.4619 37.9761 75.2731 37.9761C75.0875 37.9761 74.692 38.1226 74.0865 38.4155C74.0052 38.4644 73.9628 38.5099 73.9596 38.5522V41.1792C73.9596 41.508 74.1354 41.6968 74.4869 41.7456C74.6399 41.7684 74.7164 41.8058 74.7164 41.8579C74.7164 41.9067 74.7002 41.9344 74.6676 41.9409H72.4899C72.4573 41.9344 72.441 41.9116 72.441 41.8726C72.441 41.8107 72.5175 41.7684 72.6705 41.7456C73.0221 41.6968 73.1979 41.508 73.1979 41.1792V38.3765C73.1979 38.2397 73.123 38.1453 72.9733 38.0933C72.9082 38.0705 72.8382 38.0526 72.7633 38.0396C72.6884 38.0233 72.6282 38.0086 72.5826 37.9956C72.5403 37.9826 72.5127 37.9712 72.4996 37.9614C72.4899 37.9484 72.485 37.924 72.485 37.8882C72.485 37.8491 72.5094 37.8166 72.5582 37.7905L73.8033 37.2046C73.8424 37.1851 73.8668 37.1753 73.8766 37.1753C73.9319 37.1753 73.9596 37.2144 73.9596 37.2925V38.0542C73.9694 38.0868 73.9824 38.103 73.9987 38.103C74.0182 38.103 74.0882 38.0737 74.2086 38.0151C74.4886 37.8752 74.7701 37.7401 75.0533 37.6099C75.3365 37.4797 75.5709 37.4146 75.7565 37.4146C76.5084 37.4146 76.8844 38.0998 76.8844 39.4702L76.8405 40.896V41.1792C76.8405 41.4331 76.9674 41.5991 77.2213 41.6772C77.3287 41.7131 77.4313 41.7391 77.5289 41.7554C77.6298 41.7684 77.6949 41.7814 77.7242 41.7944C77.7568 41.8075 77.7731 41.8335 77.7731 41.8726C77.7731 41.9116 77.7568 41.9344 77.7242 41.9409H75.3707C75.3382 41.9344 75.3219 41.9116 75.3219 41.8726C75.3219 41.8107 75.3984 41.7684 75.5514 41.7456C75.8997 41.6968 76.0739 41.495 76.0739 41.1401C76.0999 40.9774 76.1129 40.7316 76.1129 40.4028ZM80.5807 38.6011C80.5807 38.6727 80.553 38.7085 80.4977 38.7085C80.4456 38.7085 80.4049 38.6694 80.3756 38.5913C80.2975 38.3765 80.1803 38.186 80.024 38.02C79.8711 37.854 79.6806 37.771 79.4528 37.771C79.1533 37.771 78.9515 37.9207 78.8473 38.2202C78.8147 38.3211 78.7985 38.4253 78.7985 38.5327C78.7985 38.6401 78.8668 38.7606 79.0035 38.894C79.1403 39.0243 79.3649 39.1805 79.6774 39.3628C79.9899 39.5451 80.2177 39.6997 80.361 39.8267C80.6865 40.1164 80.8492 40.4517 80.8492 40.8325C80.8492 41.2134 80.7093 41.5161 80.4293 41.7407C80.1494 41.9621 79.8239 42.0728 79.4528 42.0728C79.2542 42.0728 79.0735 42.0451 78.9108 41.9897C78.7513 41.9377 78.6585 41.9116 78.6324 41.9116C78.6097 41.9116 78.5706 41.9377 78.5153 41.9897C78.4632 42.0451 78.4209 42.0728 78.3883 42.0728H78.3053C78.2858 42.0728 78.2614 41.897 78.2321 41.5454C78.2028 41.1938 78.1881 40.9855 78.1881 40.9204C78.1881 40.8553 78.193 40.8195 78.2028 40.813C78.2158 40.8065 78.2353 40.8032 78.2614 40.8032C78.2874 40.8032 78.3086 40.8114 78.3248 40.8276C78.3444 40.8439 78.3606 40.8651 78.3737 40.8911C78.3867 40.9139 78.3964 40.9383 78.403 40.9644C78.4127 40.9904 78.4339 41.0392 78.4664 41.1108C78.6878 41.5828 79.0296 41.8188 79.4918 41.8188C79.6969 41.8188 79.8613 41.744 79.985 41.5942C80.1087 41.4412 80.1705 41.272 80.1705 41.0864C80.1705 40.9009 80.1217 40.7446 80.024 40.6177C79.9264 40.4907 79.8043 40.3752 79.6578 40.271C79.5146 40.1668 79.3584 40.0659 79.1891 39.9683C78.5315 39.5841 78.2028 39.1593 78.2028 38.6938C78.2028 38.3455 78.3525 38.0461 78.652 37.7954C78.9515 37.5415 79.2591 37.4146 79.5748 37.4146C79.8906 37.4146 80.1233 37.4487 80.2731 37.5171C80.4261 37.5854 80.5156 37.644 80.5416 37.6929C80.5677 37.7384 80.5807 37.8914 80.5807 38.1519V38.6011ZM82.7487 38.186C82.7291 38.186 82.7194 38.2007 82.7194 38.23V40.9253C82.7194 41.1206 82.7617 41.2736 82.8463 41.3843C82.9342 41.495 83.0449 41.5503 83.1783 41.5503C83.3118 41.5503 83.4274 41.5291 83.525 41.4868C83.6259 41.4412 83.7122 41.3924 83.7838 41.3403C83.8587 41.2882 83.9254 41.241 83.984 41.1987C84.0426 41.1532 84.0947 41.1304 84.1403 41.1304C84.1858 41.1304 84.2086 41.1418 84.2086 41.1646C84.2086 41.2427 84.2005 41.2931 84.1842 41.3159C83.7936 41.8205 83.416 42.0728 83.0514 42.0728C82.6901 42.0728 82.4166 41.9588 82.2311 41.731C82.0488 41.4998 81.9576 41.2248 81.9576 40.9058V38.186H81.5914C81.5003 38.186 81.4515 38.1567 81.4449 38.0981C81.4417 38.0396 81.4515 38.0021 81.4742 37.9858C81.6468 37.8752 81.8844 37.6766 82.1871 37.3901C82.2197 37.3543 82.2636 37.3006 82.319 37.229C82.3743 37.1574 82.4541 37.0597 82.5582 36.936C82.6656 36.8123 82.747 36.7505 82.8024 36.7505C82.8577 36.7505 82.8854 36.7733 82.8854 36.8188C82.8854 36.8254 82.83 37.0386 82.7194 37.4585C82.7194 37.5171 82.7454 37.548 82.7975 37.5513H84.0426C84.1858 37.5513 84.2574 37.7531 84.2574 38.1567C84.2574 38.1763 84.2444 38.186 84.2184 38.186H82.7487ZM85.5123 39.3677C85.457 39.3677 85.4293 39.4865 85.4293 39.7241C85.4293 40.2287 85.5791 40.6519 85.8785 40.9937C86.178 41.3354 86.5491 41.5063 86.9918 41.5063C87.4378 41.5063 87.8658 41.3143 88.276 40.9302C88.2825 40.9237 88.2906 40.9204 88.3004 40.9204H88.3248C88.3444 40.9204 88.3623 40.9367 88.3785 40.9692C88.3981 40.9985 88.416 41.0181 88.4323 41.0278C88.0546 41.4868 87.6103 41.8042 87.0992 41.98C86.9235 42.0418 86.7249 42.0728 86.5035 42.0728C86.2822 42.0728 86.0576 42.0125 85.8297 41.8921C85.6018 41.7684 85.4065 41.6073 85.2438 41.4087C84.8987 40.9953 84.7262 40.481 84.7262 39.8657C84.7262 39.2472 84.9134 38.6841 85.2877 38.1763C85.6653 37.6685 86.1829 37.4146 86.8405 37.4146C87.3125 37.4146 87.6982 37.6261 87.9977 38.0493C88.2972 38.4692 88.4469 38.8387 88.4469 39.1577C88.4469 39.2977 88.4127 39.3677 88.3444 39.3677H85.5123ZM85.566 38.8989C85.566 38.9608 85.5953 38.9917 85.6539 38.9917H87.4948C87.5794 38.9917 87.6217 38.9412 87.6217 38.8403C87.6217 38.606 87.5159 38.3667 87.3043 38.1226C87.096 37.8752 86.8665 37.7515 86.6158 37.7515C86.3717 37.7515 86.1487 37.8621 85.9469 38.0835C85.7483 38.3049 85.6214 38.5571 85.566 38.8403V38.8989ZM91.069 41.7554C91.222 41.7749 91.2985 41.814 91.2985 41.8726C91.2985 41.9116 91.2822 41.9344 91.2496 41.9409H89.0719C89.0393 41.9344 89.0231 41.9116 89.0231 41.8726C89.0231 41.814 89.0996 41.7749 89.2526 41.7554C89.6041 41.7033 89.7799 41.5177 89.7799 41.1987V35.1099C89.7799 34.9731 89.705 34.8787 89.5553 34.8267C89.4902 34.8039 89.4202 34.786 89.3453 34.7729C89.2705 34.7567 89.2102 34.742 89.1647 34.729C89.1224 34.716 89.0947 34.7046 89.0817 34.6948C89.0719 34.6818 89.067 34.6574 89.067 34.6216C89.067 34.5825 89.0914 34.55 89.1403 34.5239L90.3854 33.938C90.4244 33.9185 90.4489 33.9087 90.4586 33.9087C90.514 33.9087 90.5416 33.9478 90.5416 34.0259V41.1987C90.5416 41.5177 90.7174 41.7033 91.069 41.7554ZM93.6178 41.7554C93.7708 41.7749 93.8473 41.814 93.8473 41.8726C93.8473 41.9116 93.831 41.9344 93.7985 41.9409H91.6207C91.5882 41.9344 91.5719 41.9116 91.5719 41.8726C91.5719 41.814 91.6484 41.7749 91.8014 41.7554C92.153 41.7033 92.3287 41.5177 92.3287 41.1987V35.1099C92.3287 34.9731 92.2539 34.8787 92.1041 34.8267C92.039 34.8039 91.969 34.786 91.8942 34.7729C91.8193 34.7567 91.7591 34.742 91.7135 34.729C91.6712 34.716 91.6435 34.7046 91.6305 34.6948C91.6207 34.6818 91.6158 34.6574 91.6158 34.6216C91.6158 34.5825 91.6403 34.55 91.6891 34.5239L92.9342 33.938C92.9733 33.9185 92.9977 33.9087 93.0074 33.9087C93.0628 33.9087 93.0905 33.9478 93.0905 34.0259V41.1987C93.0905 41.5177 93.2662 41.7033 93.6178 41.7554ZM97.3824 41.1353C97.3824 41.2199 97.4215 41.2882 97.4996 41.3403C97.581 41.3892 97.6738 41.4136 97.778 41.4136C97.8821 41.4136 97.9684 41.3875 98.0367 41.3354C98.1084 41.2801 98.1572 41.2524 98.1832 41.2524C98.2093 41.2524 98.2223 41.2882 98.2223 41.3599C98.2223 41.4282 98.1897 41.4868 98.1246 41.5356C97.6364 41.8937 97.3059 42.0728 97.1334 42.0728C96.9251 42.0728 96.7558 41.8563 96.6256 41.4233C96.6158 41.3908 96.6077 41.3761 96.6012 41.3794C96.1976 41.6821 95.9436 41.8644 95.8395 41.9263C95.5726 42.0793 95.304 42.1037 95.0338 41.9995C94.7669 41.8953 94.5732 41.7228 94.4528 41.4819C94.3942 41.3582 94.3649 41.2264 94.3649 41.0864C94.3649 40.8097 94.4674 40.59 94.6725 40.4272C94.8776 40.2645 95.2682 40.1082 95.8444 39.9585C96.0397 39.9064 96.2138 39.8397 96.3668 39.7583C96.5198 39.6769 96.5996 39.6248 96.6061 39.6021C96.6158 39.5793 96.6207 39.5581 96.6207 39.5386V38.6011C96.6207 38.2332 96.4775 37.9744 96.191 37.8247C96.0966 37.7759 95.9827 37.7515 95.8492 37.7515C95.719 37.7515 95.5856 37.8035 95.4489 37.9077C95.3154 38.0119 95.2487 38.16 95.2487 38.3521L95.2731 38.5425C95.2535 38.5815 95.1364 38.6466 94.9215 38.7378C94.7067 38.8289 94.583 38.8778 94.5504 38.8843C94.4983 38.8843 94.4723 38.8224 94.4723 38.6987C94.4723 38.5718 94.5097 38.4318 94.5846 38.2788C94.6595 38.1258 94.7653 37.9858 94.902 37.8589C95.221 37.5627 95.5856 37.4146 95.9957 37.4146C96.4059 37.4146 96.7395 37.5285 96.9967 37.7563C97.2539 37.981 97.3824 38.2495 97.3824 38.562V41.1353ZM95.1315 40.9937C95.1315 41.1499 95.1917 41.2866 95.3121 41.4038C95.4326 41.5177 95.5693 41.5747 95.7223 41.5747C95.8785 41.5747 96.0673 41.5096 96.2887 41.3794C96.5101 41.2459 96.6207 41.1092 96.6207 40.9692V39.978C96.6207 39.9422 96.6126 39.9243 96.5963 39.9243C96.58 39.9243 96.5686 39.9259 96.5621 39.9292L95.4293 40.4565C95.3121 40.5412 95.2324 40.6128 95.1901 40.6714C95.151 40.73 95.1315 40.8374 95.1315 40.9937ZM99.8776 38.186C99.858 38.186 99.8483 38.2007 99.8483 38.23V40.9253C99.8483 41.1206 99.8906 41.2736 99.9752 41.3843C100.063 41.495 100.174 41.5503 100.307 41.5503C100.441 41.5503 100.556 41.5291 100.654 41.4868C100.755 41.4412 100.841 41.3924 100.913 41.3403C100.988 41.2882 101.054 41.241 101.113 41.1987C101.172 41.1532 101.224 41.1304 101.269 41.1304C101.315 41.1304 101.338 41.1418 101.338 41.1646C101.338 41.2427 101.329 41.2931 101.313 41.3159C100.922 41.8205 100.545 42.0728 100.18 42.0728C99.819 42.0728 99.5455 41.9588 99.36 41.731C99.1777 41.4998 99.0865 41.2248 99.0865 40.9058V38.186H98.7203C98.6292 38.186 98.5804 38.1567 98.5739 38.0981C98.5706 38.0396 98.5804 38.0021 98.6031 37.9858C98.7757 37.8752 99.0133 37.6766 99.316 37.3901C99.3486 37.3543 99.3925 37.3006 99.4479 37.229C99.5032 37.1574 99.583 37.0597 99.6871 36.936C99.7946 36.8123 99.8759 36.7505 99.9313 36.7505C99.9866 36.7505 100.014 36.7733 100.014 36.8188C100.014 36.8254 99.9589 37.0386 99.8483 37.4585C99.8483 37.5171 99.8743 37.548 99.9264 37.5513H101.172C101.315 37.5513 101.386 37.7531 101.386 38.1567C101.386 38.1763 101.373 38.186 101.347 38.186H99.8776ZM101.855 41.9409C101.823 41.9344 101.806 41.9116 101.806 41.8726C101.806 41.814 101.883 41.7749 102.036 41.7554C102.387 41.7033 102.563 41.5177 102.563 41.1987V38.6157C102.563 38.479 102.488 38.3846 102.339 38.3325C102.273 38.3097 102.203 38.2918 102.129 38.2788C102.054 38.2625 101.993 38.2479 101.948 38.2349C101.906 38.2218 101.878 38.2104 101.865 38.2007C101.855 38.1877 101.85 38.1632 101.85 38.1274C101.85 38.0884 101.875 38.0558 101.923 38.0298L103.169 37.4438C103.208 37.4243 103.232 37.4146 103.242 37.4146C103.297 37.4146 103.325 37.4536 103.325 37.5317V41.1987C103.325 41.5177 103.501 41.7033 103.852 41.7554C104.005 41.7749 104.082 41.8091 104.082 41.8579C104.082 41.9067 104.065 41.9344 104.033 41.9409H101.855ZM102.871 36.0425C102.737 36.0425 102.618 36.0002 102.514 35.9155C102.413 35.8309 102.363 35.7137 102.363 35.564C102.363 35.411 102.412 35.2905 102.509 35.2026C102.607 35.1147 102.723 35.0708 102.856 35.0708C102.993 35.0708 103.107 35.1229 103.198 35.2271C103.292 35.3312 103.339 35.4435 103.339 35.564C103.339 35.6844 103.296 35.7951 103.208 35.896C103.12 35.9937 103.007 36.0425 102.871 36.0425ZM104.692 39.7485C104.692 39.1073 104.918 38.5571 105.371 38.0981C105.826 37.6359 106.372 37.4048 107.006 37.4048C107.641 37.4048 108.193 37.6294 108.662 38.0786C109.13 38.5246 109.365 39.0763 109.365 39.7339C109.365 40.3914 109.142 40.9465 108.696 41.3989C108.253 41.8481 107.697 42.0728 107.026 42.0728C106.355 42.0728 105.799 41.8449 105.356 41.3892C104.913 40.9334 104.692 40.3866 104.692 39.7485ZM105.908 41.0034C106.227 41.5405 106.661 41.8091 107.212 41.8091C107.638 41.8091 107.964 41.6382 108.188 41.2964C108.416 40.9546 108.53 40.5347 108.53 40.0366C108.53 39.5386 108.37 39.0275 108.051 38.5034C107.736 37.9793 107.309 37.7173 106.772 37.7173C106.378 37.7173 106.067 37.8882 105.839 38.23C105.615 38.5685 105.503 38.9998 105.503 39.5239C105.503 40.0448 105.638 40.5379 105.908 41.0034ZM113.662 40.4028L113.652 39.3726C113.652 38.9526 113.616 38.658 113.545 38.4888C113.473 38.3195 113.382 38.1925 113.271 38.1079C113.16 38.02 113.011 37.9761 112.822 37.9761C112.636 37.9761 112.241 38.1226 111.635 38.4155C111.554 38.4644 111.512 38.5099 111.508 38.5522V41.1792C111.508 41.508 111.684 41.6968 112.036 41.7456C112.189 41.7684 112.265 41.8058 112.265 41.8579C112.265 41.9067 112.249 41.9344 112.216 41.9409H110.039C110.006 41.9344 109.99 41.9116 109.99 41.8726C109.99 41.8107 110.066 41.7684 110.219 41.7456C110.571 41.6968 110.747 41.508 110.747 41.1792V38.3765C110.747 38.2397 110.672 38.1453 110.522 38.0933C110.457 38.0705 110.387 38.0526 110.312 38.0396C110.237 38.0233 110.177 38.0086 110.131 37.9956C110.089 37.9826 110.061 37.9712 110.048 37.9614C110.039 37.9484 110.034 37.924 110.034 37.8882C110.034 37.8491 110.058 37.8166 110.107 37.7905L111.352 37.2046C111.391 37.1851 111.416 37.1753 111.425 37.1753C111.481 37.1753 111.508 37.2144 111.508 37.2925V38.0542C111.518 38.0868 111.531 38.103 111.547 38.103C111.567 38.103 111.637 38.0737 111.757 38.0151C112.037 37.8752 112.319 37.7401 112.602 37.6099C112.885 37.4797 113.12 37.4146 113.305 37.4146C114.057 37.4146 114.433 38.0998 114.433 39.4702L114.389 40.896V41.1792C114.389 41.4331 114.516 41.5991 114.77 41.6772C114.878 41.7131 114.98 41.7391 115.078 41.7554C115.179 41.7684 115.244 41.7814 115.273 41.7944C115.306 41.8075 115.322 41.8335 115.322 41.8726C115.322 41.9116 115.306 41.9344 115.273 41.9409H112.92C112.887 41.9344 112.871 41.9116 112.871 41.8726C112.871 41.8107 112.947 41.7684 113.1 41.7456C113.449 41.6968 113.623 41.495 113.623 41.1401C113.649 40.9774 113.662 40.7316 113.662 40.4028ZM121.46 37.6196C121.603 37.6685 121.691 37.6929 121.723 37.6929C121.756 37.6929 121.775 37.6929 121.782 37.6929C121.792 37.6896 121.803 37.6685 121.816 37.6294V35.1099C121.816 34.9731 121.741 34.8787 121.591 34.8267C121.526 34.8039 121.456 34.786 121.381 34.7729C121.307 34.7567 121.246 34.742 121.201 34.729C121.158 34.716 121.131 34.7046 121.118 34.6948C121.108 34.6818 121.103 34.6574 121.103 34.6216C121.103 34.5825 121.128 34.55 121.176 34.5239L122.422 33.938C122.461 33.9185 122.485 33.9087 122.495 33.9087C122.55 33.9087 122.578 33.9478 122.578 34.0259V40.979C122.594 41.1222 122.635 41.2248 122.7 41.2866C122.765 41.3485 122.871 41.3794 123.017 41.3794L123.3 41.3599C123.32 41.3599 123.33 41.3794 123.33 41.4185C123.33 41.4543 123.305 41.4836 123.256 41.5063L121.958 42.0435C121.919 42.063 121.884 42.0728 121.855 42.0728C121.829 42.0728 121.816 42.0321 121.816 41.9507V41.5063C121.816 41.4738 121.808 41.4575 121.792 41.4575C121.769 41.4575 121.634 41.5308 121.386 41.6772C120.628 42.1265 119.988 42.1932 119.467 41.8774C119.051 41.6235 118.769 41.2215 118.623 40.6714C118.554 40.4142 118.52 40.1424 118.52 39.856C118.52 39.5662 118.579 39.2798 118.696 38.9966C118.816 38.7101 118.981 38.4595 119.189 38.2446C119.648 37.7759 120.201 37.5415 120.849 37.5415C121.113 37.5415 121.316 37.5675 121.46 37.6196ZM119.257 39.7144C119.257 40.2059 119.394 40.6372 119.668 41.0083C119.941 41.3761 120.322 41.5601 120.81 41.5601C121.025 41.5601 121.246 41.508 121.474 41.4038C121.702 41.2964 121.816 41.215 121.816 41.1597V38.6401C121.816 38.5783 121.774 38.505 121.689 38.4204C121.429 38.0623 121.082 37.8833 120.649 37.8833C120.219 37.8833 119.879 38.0656 119.629 38.4302C119.381 38.7915 119.257 39.2196 119.257 39.7144ZM127.109 41.5112C127.093 41.4559 127.072 41.438 127.046 41.4575C127.019 41.4738 126.914 41.5291 126.728 41.6235C126.119 41.9263 125.612 42.0776 125.205 42.0776C124.798 42.0776 124.505 41.9474 124.326 41.687C124.261 41.5894 124.228 41.4689 124.228 41.3257V38.3472C124.218 38.2528 124.176 38.1714 124.101 38.103C124 38.0184 123.894 37.9728 123.784 37.9663C123.676 37.9598 123.623 37.9272 123.623 37.8687C123.623 37.8068 123.649 37.7694 123.701 37.7563L124.819 37.4341C124.858 37.4211 124.895 37.4146 124.931 37.4146C124.97 37.4146 124.99 37.4422 124.99 37.4976V40.7739C124.99 41.0018 125.091 41.1776 125.293 41.3013C125.494 41.425 125.752 41.4868 126.064 41.4868C126.38 41.4868 126.663 41.3908 126.914 41.1987C126.992 41.1369 127.057 41.0685 127.109 40.9937V38.3472C127.099 38.2528 127.057 38.1714 126.982 38.103C126.881 38.0184 126.775 37.9728 126.665 37.9663C126.557 37.9598 126.504 37.9272 126.504 37.8687C126.504 37.8068 126.53 37.7694 126.582 37.7563L127.7 37.4341C127.739 37.4211 127.776 37.4146 127.812 37.4146C127.851 37.4146 127.871 37.4471 127.871 37.5122V40.979C127.887 41.1222 127.928 41.2248 127.993 41.2866C128.058 41.3485 128.164 41.3794 128.31 41.3794L128.593 41.3599C128.613 41.3599 128.623 41.3794 128.623 41.4185C128.623 41.4543 128.598 41.4836 128.549 41.5063L127.251 42.0435C127.212 42.063 127.177 42.0728 127.148 42.0728C127.122 42.0728 127.109 42.0321 127.109 41.9507V41.5112ZM22.4166 55.7554C22.5696 55.7749 22.6461 55.814 22.6461 55.8726C22.6461 55.9116 22.6298 55.9344 22.5973 55.9409H20.4196C20.387 55.9344 20.3707 55.9116 20.3707 55.8726C20.3707 55.814 20.4472 55.7749 20.6002 55.7554C20.9518 55.7033 21.1276 55.5177 21.1276 55.1987V49.1099C21.1276 48.9731 21.0527 48.8787 20.903 48.8267C20.8378 48.8039 20.7679 48.786 20.693 48.7729C20.6181 48.7567 20.5579 48.742 20.5123 48.729C20.47 48.716 20.4423 48.7046 20.4293 48.6948C20.4196 48.6818 20.4147 48.6574 20.4147 48.6216C20.4147 48.5825 20.4391 48.55 20.4879 48.5239L21.733 47.938C21.7721 47.9185 21.7965 47.9087 21.8063 47.9087C21.8616 47.9087 21.8893 47.9478 21.8893 48.0259V55.1987C21.8893 55.5177 22.0651 55.7033 22.4166 55.7554ZM26.1813 55.1353C26.1813 55.2199 26.2203 55.2882 26.2985 55.3403C26.3798 55.3892 26.4726 55.4136 26.5768 55.4136C26.6809 55.4136 26.7672 55.3875 26.8356 55.3354C26.9072 55.2801 26.956 55.2524 26.9821 55.2524C27.0081 55.2524 27.0211 55.2882 27.0211 55.3599C27.0211 55.4282 26.9886 55.4868 26.9235 55.5356C26.4352 55.8937 26.1048 56.0728 25.9323 56.0728C25.7239 56.0728 25.5546 55.8563 25.4244 55.4233C25.4147 55.3908 25.4065 55.3761 25.4 55.3794C24.9964 55.6821 24.7425 55.8644 24.6383 55.9263C24.3714 56.0793 24.1028 56.1037 23.8326 55.9995C23.5657 55.8953 23.372 55.7228 23.2516 55.4819C23.193 55.3582 23.1637 55.2264 23.1637 55.0864C23.1637 54.8097 23.2662 54.59 23.4713 54.4272C23.6764 54.2645 24.067 54.1082 24.6432 53.9585C24.8385 53.9064 25.0127 53.8397 25.1656 53.7583C25.3186 53.6769 25.3984 53.6248 25.4049 53.6021C25.4147 53.5793 25.4196 53.5581 25.4196 53.5386V52.6011C25.4196 52.2332 25.2763 51.9744 24.9899 51.8247C24.8955 51.7759 24.7815 51.7515 24.6481 51.7515C24.5179 51.7515 24.3844 51.8035 24.2477 51.9077C24.1142 52.0119 24.0475 52.16 24.0475 52.3521L24.0719 52.5425C24.0524 52.5815 23.9352 52.6466 23.7203 52.7378C23.5055 52.8289 23.3818 52.8778 23.3492 52.8843C23.2972 52.8843 23.2711 52.8224 23.2711 52.6987C23.2711 52.5718 23.3086 52.4318 23.3834 52.2788C23.4583 52.1258 23.5641 51.9858 23.7008 51.8589C24.0198 51.5627 24.3844 51.4146 24.7946 51.4146C25.2047 51.4146 25.5384 51.5285 25.7955 51.7563C26.0527 51.981 26.1813 52.2495 26.1813 52.562V55.1353ZM23.9303 54.9937C23.9303 55.1499 23.9905 55.2866 24.111 55.4038C24.2314 55.5177 24.3681 55.5747 24.5211 55.5747C24.6774 55.5747 24.8662 55.5096 25.0875 55.3794C25.3089 55.2459 25.4196 55.1092 25.4196 54.9692V53.978C25.4196 53.9422 25.4114 53.9243 25.3951 53.9243C25.3789 53.9243 25.3675 53.9259 25.361 53.9292L24.2281 54.4565C24.111 54.5412 24.0312 54.6128 23.9889 54.6714C23.9498 54.73 23.9303 54.8374 23.9303 54.9937ZM31.1666 55.4282C30.7174 55.8579 30.2128 56.0728 29.653 56.0728C29.4511 56.0728 29.1761 56.0353 28.8278 55.9604C28.7724 55.9604 28.7415 55.98 28.735 56.019C28.7317 56.0581 28.7285 56.0988 28.7252 56.1411V58.2261C28.7252 58.4702 28.8668 58.633 29.15 58.7144C29.2737 58.7469 29.3893 58.7697 29.4967 58.7827C29.6041 58.799 29.6725 58.8136 29.7018 58.8267C29.7343 58.8397 29.7506 58.8641 29.7506 58.8999C29.7506 58.939 29.7343 58.9618 29.7018 58.9683H27.2555C27.2229 58.9618 27.2067 58.939 27.2067 58.8999C27.2067 58.8413 27.2832 58.8022 27.4362 58.7827C27.7877 58.7306 27.9635 58.5451 27.9635 58.2261V52.3716C27.9635 52.2349 27.8886 52.1405 27.7389 52.0884C27.6738 52.0656 27.6038 52.0477 27.5289 52.0347C27.4541 52.0184 27.3938 52.0037 27.3483 51.9907C27.3059 51.9777 27.2783 51.9663 27.2653 51.9565C27.2555 51.9435 27.2506 51.9191 27.2506 51.8833C27.2506 51.8442 27.275 51.8117 27.3239 51.7856L28.569 51.1899C28.595 51.1769 28.6211 51.1704 28.6471 51.1704C28.6992 51.1704 28.7252 51.2095 28.7252 51.2876V51.9077C28.7252 51.9435 28.7431 51.9614 28.7789 51.9614C28.818 51.9614 28.9091 51.9142 29.0524 51.8198C29.4658 51.5529 29.8955 51.4194 30.3414 51.4194C30.6539 51.4194 30.9404 51.5464 31.2008 51.8003C31.5426 52.1323 31.7705 52.5946 31.8844 53.187C31.917 53.3563 31.9332 53.5369 31.9332 53.729C31.9332 53.9178 31.9023 54.118 31.8405 54.3296C31.7168 54.7495 31.4921 55.1157 31.1666 55.4282ZM29.7701 51.9272C29.3274 51.9272 28.9791 52.0542 28.7252 52.3081V55.0522C28.7252 55.215 28.7529 55.3208 28.8082 55.3696C28.9515 55.4933 29.1712 55.5894 29.4674 55.6577C30.0533 55.7912 30.5091 55.6512 30.8346 55.2378C31.0657 54.9416 31.1813 54.5835 31.1813 54.1636C31.1813 53.3465 30.9974 52.7345 30.6295 52.3276C30.4082 52.0802 30.1217 51.9468 29.7701 51.9272ZM32.8121 55.9409C32.7796 55.9344 32.7633 55.9116 32.7633 55.8726C32.7633 55.814 32.8398 55.7749 32.9928 55.7554C33.3444 55.7033 33.5201 55.5177 33.5201 55.1987V52.6157C33.5201 52.479 33.4453 52.3846 33.2955 52.3325C33.2304 52.3097 33.1604 52.2918 33.0856 52.2788C33.0107 52.2625 32.9505 52.2479 32.9049 52.2349C32.8626 52.2218 32.8349 52.2104 32.8219 52.2007C32.8121 52.1877 32.8073 52.1632 32.8073 52.1274C32.8073 52.0884 32.8317 52.0558 32.8805 52.0298L34.1256 51.4438C34.1647 51.4243 34.1891 51.4146 34.1989 51.4146C34.2542 51.4146 34.2819 51.4536 34.2819 51.5317V55.1987C34.2819 55.5177 34.4576 55.7033 34.8092 55.7554C34.9622 55.7749 35.0387 55.8091 35.0387 55.8579C35.0387 55.9067 35.0224 55.9344 34.9899 55.9409H32.8121ZM33.8278 50.0425C33.6943 50.0425 33.5755 50.0002 33.4713 49.9155C33.3704 49.8309 33.3199 49.7137 33.3199 49.564C33.3199 49.411 33.3688 49.2905 33.4664 49.2026C33.5641 49.1147 33.6796 49.0708 33.8131 49.0708C33.9498 49.0708 34.0638 49.1229 34.1549 49.2271C34.2493 49.3312 34.2965 49.4435 34.2965 49.564C34.2965 49.6844 34.2526 49.7951 34.1647 49.896C34.0768 49.9937 33.9645 50.0425 33.8278 50.0425ZM39.2086 54.4028L39.1989 53.3726C39.1989 52.9526 39.163 52.658 39.0914 52.4888C39.0198 52.3195 38.9287 52.1925 38.818 52.1079C38.7073 52.02 38.5576 51.9761 38.3688 51.9761C38.1832 51.9761 37.7877 52.1226 37.1823 52.4155C37.1009 52.4644 37.0586 52.5099 37.0553 52.5522V55.1792C37.0553 55.508 37.2311 55.6968 37.5826 55.7456C37.7356 55.7684 37.8121 55.8058 37.8121 55.8579C37.8121 55.9067 37.7959 55.9344 37.7633 55.9409H35.5856C35.553 55.9344 35.5367 55.9116 35.5367 55.8726C35.5367 55.8107 35.6132 55.7684 35.7662 55.7456C36.1178 55.6968 36.2936 55.508 36.2936 55.1792V52.3765C36.2936 52.2397 36.2187 52.1453 36.069 52.0933C36.0039 52.0705 35.9339 52.0526 35.859 52.0396C35.7841 52.0233 35.7239 52.0086 35.6783 51.9956C35.636 51.9826 35.6084 51.9712 35.5953 51.9614C35.5856 51.9484 35.5807 51.924 35.5807 51.8882C35.5807 51.8491 35.6051 51.8166 35.6539 51.7905L36.899 51.2046C36.9381 51.1851 36.9625 51.1753 36.9723 51.1753C37.0276 51.1753 37.0553 51.2144 37.0553 51.2925V52.0542C37.0651 52.0868 37.0781 52.103 37.0944 52.103C37.1139 52.103 37.1839 52.0737 37.3043 52.0151C37.5843 51.8752 37.8658 51.7401 38.149 51.6099C38.4323 51.4797 38.6666 51.4146 38.8522 51.4146C39.6041 51.4146 39.9801 52.0998 39.9801 53.4702L39.9362 54.896V55.1792C39.9362 55.4331 40.0631 55.5991 40.317 55.6772C40.4244 55.7131 40.527 55.7391 40.6246 55.7554C40.7255 55.7684 40.7906 55.7814 40.8199 55.7944C40.8525 55.8075 40.8688 55.8335 40.8688 55.8726C40.8688 55.9116 40.8525 55.9344 40.8199 55.9409H38.4664C38.4339 55.9344 38.4176 55.9116 38.4176 55.8726C38.4176 55.8107 38.4941 55.7684 38.6471 55.7456C38.9954 55.6968 39.1696 55.495 39.1696 55.1401C39.1956 54.9774 39.2086 54.7316 39.2086 54.4028ZM47.0065 51.6196C47.1497 51.6685 47.2376 51.6929 47.2701 51.6929C47.3027 51.6929 47.3222 51.6929 47.3287 51.6929C47.3385 51.6896 47.3499 51.6685 47.3629 51.6294V49.1099C47.3629 48.9731 47.288 48.8787 47.1383 48.8267C47.0732 48.8039 47.0032 48.786 46.9283 48.7729C46.8535 48.7567 46.7933 48.742 46.7477 48.729C46.7054 48.716 46.6777 48.7046 46.6647 48.6948C46.6549 48.6818 46.65 48.6574 46.65 48.6216C46.65 48.5825 46.6744 48.55 46.7233 48.5239L47.9684 47.938C48.0074 47.9185 48.0319 47.9087 48.0416 47.9087C48.097 47.9087 48.1246 47.9478 48.1246 48.0259V54.979C48.1409 55.1222 48.1816 55.2248 48.2467 55.2866C48.3118 55.3485 48.4176 55.3794 48.5641 55.3794L48.8473 55.3599C48.8668 55.3599 48.8766 55.3794 48.8766 55.4185C48.8766 55.4543 48.8522 55.4836 48.8033 55.5063L47.5045 56.0435C47.4655 56.063 47.4313 56.0728 47.402 56.0728C47.3759 56.0728 47.3629 56.0321 47.3629 55.9507V55.5063C47.3629 55.4738 47.3548 55.4575 47.3385 55.4575C47.3157 55.4575 47.1806 55.5308 46.9332 55.6772C46.1748 56.1265 45.5351 56.1932 45.0143 55.8774C44.5976 55.6235 44.316 55.2215 44.1696 54.6714C44.1012 54.4142 44.067 54.1424 44.067 53.856C44.067 53.5662 44.1256 53.2798 44.2428 52.9966C44.3632 52.7101 44.5276 52.4595 44.736 52.2446C45.1949 51.7759 45.7483 51.5415 46.3961 51.5415C46.6598 51.5415 46.8632 51.5675 47.0065 51.6196ZM44.8043 53.7144C44.8043 54.2059 44.941 54.6372 45.2145 55.0083C45.4879 55.3761 45.8688 55.5601 46.3571 55.5601C46.5719 55.5601 46.7933 55.508 47.0211 55.4038C47.249 55.2964 47.3629 55.215 47.3629 55.1597V52.6401C47.3629 52.5783 47.3206 52.505 47.236 52.4204C46.9755 52.0623 46.6289 51.8833 46.1959 51.8833C45.7662 51.8833 45.4261 52.0656 45.1754 52.4302C44.928 52.7915 44.8043 53.2196 44.8043 53.7144ZM52.3336 55.1353C52.3336 55.2199 52.3727 55.2882 52.4508 55.3403C52.5322 55.3892 52.625 55.4136 52.7291 55.4136C52.8333 55.4136 52.9196 55.3875 52.9879 55.3354C53.0595 55.2801 53.1084 55.2524 53.1344 55.2524C53.1604 55.2524 53.1735 55.2882 53.1735 55.3599C53.1735 55.4282 53.1409 55.4868 53.0758 55.5356C52.5875 55.8937 52.2571 56.0728 52.0846 56.0728C51.8763 56.0728 51.707 55.8563 51.5768 55.4233C51.567 55.3908 51.5589 55.3761 51.5524 55.3794C51.1487 55.6821 50.8948 55.8644 50.7906 55.9263C50.5237 56.0793 50.2552 56.1037 49.985 55.9995C49.7181 55.8953 49.5244 55.7228 49.4039 55.4819C49.3453 55.3582 49.316 55.2264 49.316 55.0864C49.316 54.8097 49.4186 54.59 49.6237 54.4272C49.8287 54.2645 50.2194 54.1082 50.7955 53.9585C50.9908 53.9064 51.165 53.8397 51.318 53.7583C51.471 53.6769 51.5507 53.6248 51.5573 53.6021C51.567 53.5793 51.5719 53.5581 51.5719 53.5386V52.6011C51.5719 52.2332 51.4287 51.9744 51.1422 51.8247C51.0478 51.7759 50.9339 51.7515 50.8004 51.7515C50.6702 51.7515 50.5367 51.8035 50.4 51.9077C50.2666 52.0119 50.1998 52.16 50.1998 52.3521L50.2242 52.5425C50.2047 52.5815 50.0875 52.6466 49.8727 52.7378C49.6578 52.8289 49.5341 52.8778 49.5016 52.8843C49.4495 52.8843 49.4235 52.8224 49.4235 52.6987C49.4235 52.5718 49.4609 52.4318 49.5358 52.2788C49.6106 52.1258 49.7164 51.9858 49.8531 51.8589C50.1722 51.5627 50.5367 51.4146 50.9469 51.4146C51.3571 51.4146 51.6907 51.5285 51.9479 51.7563C52.205 51.981 52.3336 52.2495 52.3336 52.562V55.1353ZM50.0826 54.9937C50.0826 55.1499 50.1429 55.2866 50.2633 55.4038C50.3837 55.5177 50.5205 55.5747 50.6735 55.5747C50.8297 55.5747 51.0185 55.5096 51.2399 55.3794C51.4612 55.2459 51.5719 55.1092 51.5719 54.9692V53.978C51.5719 53.9422 51.5638 53.9243 51.5475 53.9243C51.5312 53.9243 51.5198 53.9259 51.5133 53.9292L50.3805 54.4565C50.2633 54.5412 50.1836 54.6128 50.1412 54.6714C50.1022 54.73 50.0826 54.8374 50.0826 54.9937ZM57.2262 54.4028L57.2164 53.3726C57.2164 52.9526 57.1806 52.658 57.109 52.4888C57.0374 52.3195 56.9462 52.1925 56.8356 52.1079C56.7249 52.02 56.5752 51.9761 56.3864 51.9761C56.2008 51.9761 55.8053 52.1226 55.1998 52.4155C55.1184 52.4644 55.0761 52.5099 55.0729 52.5522V55.1792C55.0729 55.508 55.2487 55.6968 55.6002 55.7456C55.7532 55.7684 55.8297 55.8058 55.8297 55.8579C55.8297 55.9067 55.8134 55.9344 55.7809 55.9409H53.6031C53.5706 55.9344 53.5543 55.9116 53.5543 55.8726C53.5543 55.8107 53.6308 55.7684 53.7838 55.7456C54.1354 55.6968 54.3112 55.508 54.3112 55.1792V52.3765C54.3112 52.2397 54.2363 52.1453 54.0865 52.0933C54.0214 52.0705 53.9515 52.0526 53.8766 52.0396C53.8017 52.0233 53.7415 52.0086 53.6959 51.9956C53.6536 51.9826 53.6259 51.9712 53.6129 51.9614C53.6031 51.9484 53.5983 51.924 53.5983 51.8882C53.5983 51.8491 53.6227 51.8166 53.6715 51.7905L54.9166 51.2046C54.9557 51.1851 54.9801 51.1753 54.9899 51.1753C55.0452 51.1753 55.0729 51.2144 55.0729 51.2925V52.0542C55.0826 52.0868 55.0957 52.103 55.1119 52.103C55.1315 52.103 55.2015 52.0737 55.3219 52.0151C55.6018 51.8752 55.8834 51.7401 56.1666 51.6099C56.4498 51.4797 56.6842 51.4146 56.8698 51.4146C57.6217 51.4146 57.9977 52.0998 57.9977 53.4702L57.9537 54.896V55.1792C57.9537 55.4331 58.0807 55.5991 58.3346 55.6772C58.442 55.7131 58.5446 55.7391 58.6422 55.7554C58.7431 55.7684 58.8082 55.7814 58.8375 55.7944C58.8701 55.8075 58.8864 55.8335 58.8864 55.8726C58.8864 55.9116 58.8701 55.9344 58.8375 55.9409H56.484C56.4515 55.9344 56.4352 55.9116 56.4352 55.8726C56.4352 55.8107 56.5117 55.7684 56.6647 55.7456C57.013 55.6968 57.1871 55.495 57.1871 55.1401C57.2132 54.9774 57.2262 54.7316 57.2262 54.4028ZM61.694 52.6011C61.694 52.6727 61.6663 52.7085 61.611 52.7085C61.5589 52.7085 61.5182 52.6694 61.4889 52.5913C61.4108 52.3765 61.2936 52.186 61.1373 52.02C60.9843 51.854 60.7939 51.771 60.566 51.771C60.2666 51.771 60.0647 51.9207 59.9606 52.2202C59.928 52.3211 59.9117 52.4253 59.9117 52.5327C59.9117 52.6401 59.9801 52.7606 60.1168 52.894C60.2535 53.0243 60.4781 53.1805 60.7906 53.3628C61.1031 53.5451 61.331 53.6997 61.4742 53.8267C61.7998 54.1164 61.9625 54.4517 61.9625 54.8325C61.9625 55.2134 61.8226 55.5161 61.5426 55.7407C61.2627 55.9621 60.9371 56.0728 60.566 56.0728C60.3675 56.0728 60.1868 56.0451 60.024 55.9897C59.8645 55.9377 59.7718 55.9116 59.7457 55.9116C59.7229 55.9116 59.6839 55.9377 59.6285 55.9897C59.5765 56.0451 59.5341 56.0728 59.5016 56.0728H59.4186C59.399 56.0728 59.3746 55.897 59.3453 55.5454C59.316 55.1938 59.3014 54.9855 59.3014 54.9204C59.3014 54.8553 59.3063 54.8195 59.316 54.813C59.3291 54.8065 59.3486 54.8032 59.3746 54.8032C59.4007 54.8032 59.4218 54.8114 59.4381 54.8276C59.4576 54.8439 59.4739 54.8651 59.4869 54.8911C59.5 54.9139 59.5097 54.9383 59.5162 54.9644C59.526 54.9904 59.5472 55.0392 59.5797 55.1108C59.8011 55.5828 60.1429 55.8188 60.6051 55.8188C60.8102 55.8188 60.9746 55.744 61.0983 55.5942C61.222 55.4412 61.2838 55.272 61.2838 55.0864C61.2838 54.9009 61.235 54.7446 61.1373 54.6177C61.0397 54.4907 60.9176 54.3752 60.7711 54.271C60.6279 54.1668 60.4716 54.0659 60.3024 53.9683C59.6448 53.5841 59.316 53.1593 59.316 52.6938C59.316 52.3455 59.4658 52.0461 59.7653 51.7954C60.0647 51.5415 60.3724 51.4146 60.6881 51.4146C61.0039 51.4146 61.2366 51.4487 61.3864 51.5171C61.5393 51.5854 61.6289 51.644 61.6549 51.6929C61.6809 51.7384 61.694 51.8914 61.694 52.1519V52.6011ZM67.1627 55.7554C67.3157 55.7749 67.3922 55.814 67.3922 55.8726C67.3922 55.9116 67.3759 55.9344 67.3434 55.9409H65.1656C65.1331 55.9344 65.1168 55.9116 65.1168 55.8726C65.1168 55.814 65.1933 55.7749 65.3463 55.7554C65.6979 55.7033 65.8737 55.5177 65.8737 55.1987V49.1099C65.8737 48.9731 65.7988 48.8787 65.649 48.8267C65.5839 48.8039 65.514 48.786 65.4391 48.7729C65.3642 48.7567 65.304 48.742 65.2584 48.729C65.2161 48.716 65.1884 48.7046 65.1754 48.6948C65.1656 48.6818 65.1608 48.6574 65.1608 48.6216C65.1608 48.5825 65.1852 48.55 65.234 48.5239L66.4791 47.938C66.5182 47.9185 66.5426 47.9087 66.5524 47.9087C66.6077 47.9087 66.6354 47.9478 66.6354 48.0259V55.1987C66.6354 55.5177 66.8112 55.7033 67.1627 55.7554ZM68.6959 53.3677C68.6406 53.3677 68.6129 53.4865 68.6129 53.7241C68.6129 54.2287 68.7627 54.6519 69.0621 54.9937C69.3616 55.3354 69.7327 55.5063 70.1754 55.5063C70.6214 55.5063 71.0494 55.3143 71.4596 54.9302C71.4661 54.9237 71.4742 54.9204 71.484 54.9204H71.5084C71.528 54.9204 71.5459 54.9367 71.5621 54.9692C71.5817 54.9985 71.5996 55.0181 71.6158 55.0278C71.2382 55.4868 70.7939 55.8042 70.2828 55.98C70.1071 56.0418 69.9085 56.0728 69.6871 56.0728C69.4658 56.0728 69.2412 56.0125 69.0133 55.8921C68.7854 55.7684 68.5901 55.6073 68.4274 55.4087C68.0823 54.9953 67.9098 54.481 67.9098 53.8657C67.9098 53.2472 68.097 52.6841 68.4713 52.1763C68.8489 51.6685 69.3665 51.4146 70.024 51.4146C70.4961 51.4146 70.8818 51.6261 71.1813 52.0493C71.4808 52.4692 71.6305 52.8387 71.6305 53.1577C71.6305 53.2977 71.5963 53.3677 71.528 53.3677H68.6959ZM68.7496 52.8989C68.7496 52.9608 68.7789 52.9917 68.8375 52.9917H70.6783C70.763 52.9917 70.8053 52.9412 70.8053 52.8403C70.8053 52.606 70.6995 52.3667 70.4879 52.1226C70.2796 51.8752 70.0501 51.7515 69.7994 51.7515C69.5553 51.7515 69.3323 51.8621 69.1305 52.0835C68.9319 52.3049 68.805 52.5571 68.7496 52.8403V52.8989ZM78.9694 52.0005C78.9694 52.2284 78.8375 52.3423 78.5739 52.3423C78.4404 52.3423 78.3265 52.3049 78.2321 52.23C78.1409 52.1519 78.0693 52.0868 78.0172 52.0347C77.9684 51.9793 77.9163 51.9289 77.861 51.8833C77.6266 51.6912 77.3401 51.6701 77.0016 51.8198C76.6663 51.9696 76.4075 52.2886 76.2252 52.7769C76.1243 53.047 76.0739 53.3156 76.0739 53.5825C76.0739 54.1554 76.2041 54.6242 76.4645 54.9888C76.7249 55.3501 77.1237 55.5308 77.6608 55.5308C78.0612 55.5308 78.4209 55.3517 78.7399 54.9937C78.8375 54.8862 78.8961 54.8325 78.9156 54.8325C78.9352 54.8325 78.9563 54.8423 78.9791 54.8618C79.0019 54.8813 79.0133 54.9106 79.0133 54.9497C79.0133 54.9855 79.0035 55.0132 78.984 55.0327C78.486 55.7261 77.8593 56.0728 77.1041 56.0728C76.5573 56.0728 76.108 55.8693 75.7565 55.4624C75.4082 55.0555 75.234 54.59 75.234 54.0659C75.2373 53.0959 75.4716 52.3976 75.9371 51.9712C76.3473 51.5968 76.9316 51.4097 77.6901 51.4097C78.1588 51.4097 78.4697 51.4569 78.6227 51.5513C78.7757 51.6457 78.8831 51.7645 78.9449 51.9077C78.9612 51.9403 78.9694 51.9712 78.9694 52.0005ZM79.6969 55.9409C79.6643 55.9344 79.6481 55.9116 79.6481 55.8726C79.6481 55.814 79.7246 55.7749 79.8776 55.7554C80.2291 55.7033 80.4049 55.5177 80.4049 55.1987V52.6157C80.4049 52.479 80.33 52.3846 80.1803 52.3325C80.1152 52.3097 80.0452 52.2918 79.9703 52.2788C79.8955 52.2625 79.8352 52.2479 79.7897 52.2349C79.7474 52.2218 79.7197 52.2104 79.7067 52.2007C79.6969 52.1877 79.692 52.1632 79.692 52.1274C79.692 52.0884 79.7164 52.0558 79.7653 52.0298L81.0104 51.4438C81.0494 51.4243 81.0739 51.4146 81.0836 51.4146C81.139 51.4146 81.1666 51.4536 81.1666 51.5317V55.1987C81.1666 55.5177 81.3424 55.7033 81.694 55.7554C81.847 55.7749 81.9235 55.8091 81.9235 55.8579C81.9235 55.9067 81.9072 55.9344 81.8746 55.9409H79.6969ZM80.7125 50.0425C80.5791 50.0425 80.4602 50.0002 80.3561 49.9155C80.2552 49.8309 80.2047 49.7137 80.2047 49.564C80.2047 49.411 80.2535 49.2905 80.3512 49.2026C80.4489 49.1147 80.5644 49.0708 80.6979 49.0708C80.8346 49.0708 80.9485 49.1229 81.0397 49.2271C81.1341 49.3312 81.1813 49.4435 81.1813 49.564C81.1813 49.6844 81.1373 49.7951 81.0494 49.896C80.9615 49.9937 80.8492 50.0425 80.7125 50.0425ZM83.2955 53.3677C83.2402 53.3677 83.2125 53.4865 83.2125 53.7241C83.2125 54.2287 83.3623 54.6519 83.6617 54.9937C83.9612 55.3354 84.3323 55.5063 84.775 55.5063C85.221 55.5063 85.649 55.3143 86.0592 54.9302C86.0657 54.9237 86.0739 54.9204 86.0836 54.9204H86.108C86.1276 54.9204 86.1455 54.9367 86.1617 54.9692C86.1813 54.9985 86.1992 55.0181 86.2155 55.0278C85.8378 55.4868 85.3935 55.8042 84.8824 55.98C84.7067 56.0418 84.5081 56.0728 84.2867 56.0728C84.0654 56.0728 83.8408 56.0125 83.6129 55.8921C83.3851 55.7684 83.1897 55.6073 83.027 55.4087C82.6819 54.9953 82.5094 54.481 82.5094 53.8657C82.5094 53.2472 82.6966 52.6841 83.0709 52.1763C83.4485 51.6685 83.9661 51.4146 84.6237 51.4146C85.0957 51.4146 85.4814 51.6261 85.7809 52.0493C86.0804 52.4692 86.2301 52.8387 86.2301 53.1577C86.2301 53.2977 86.1959 53.3677 86.1276 53.3677H83.2955ZM83.3492 52.8989C83.3492 52.9608 83.3785 52.9917 83.4371 52.9917H85.278C85.3626 52.9917 85.4049 52.9412 85.4049 52.8403C85.4049 52.606 85.2991 52.3667 85.0875 52.1226C84.8792 51.8752 84.6497 51.7515 84.399 51.7515C84.1549 51.7515 83.9319 51.8621 83.7301 52.0835C83.5315 52.3049 83.4046 52.5571 83.3492 52.8403V52.8989ZM88.8522 55.7554C89.0052 55.7749 89.0817 55.814 89.0817 55.8726C89.0817 55.9116 89.0654 55.9344 89.0328 55.9409H86.8551C86.8226 55.9344 86.8063 55.9116 86.8063 55.8726C86.8063 55.814 86.8828 55.7749 87.0358 55.7554C87.3873 55.7033 87.5631 55.5177 87.5631 55.1987V49.1099C87.5631 48.9731 87.4882 48.8787 87.3385 48.8267C87.2734 48.8039 87.2034 48.786 87.1285 48.7729C87.0537 48.7567 86.9934 48.742 86.9479 48.729C86.9056 48.716 86.8779 48.7046 86.8649 48.6948C86.8551 48.6818 86.8502 48.6574 86.8502 48.6216C86.8502 48.5825 86.8746 48.55 86.9235 48.5239L88.1686 47.938C88.2076 47.9185 88.2321 47.9087 88.2418 47.9087C88.2972 47.9087 88.3248 47.9478 88.3248 48.0259V55.1987C88.3248 55.5177 88.5006 55.7033 88.8522 55.7554ZM95.942 51.8833C95.942 51.8833 96.3782 51.8638 97.2506 51.8247C97.3255 51.8247 97.3743 51.8328 97.3971 51.8491C97.4199 51.8654 97.4443 51.9224 97.4703 52.02C97.4964 52.1144 97.5094 52.2039 97.5094 52.2886C97.5094 52.3732 97.5013 52.422 97.485 52.4351C97.4687 52.4481 97.4362 52.4546 97.3873 52.4546H96.3033C96.3229 52.4904 96.344 52.5278 96.3668 52.5669C96.3896 52.606 96.4189 52.6711 96.4547 52.7622C96.4905 52.8534 96.5084 52.995 96.5084 53.187C96.5084 53.3758 96.4612 53.5744 96.3668 53.7827C96.2757 53.9878 96.1406 54.1701 95.9615 54.3296C95.5644 54.6877 95.0501 54.8667 94.4186 54.8667C94.2526 54.8667 94.0703 54.8358 93.8717 54.7739C93.8229 54.826 93.7578 54.8748 93.6764 54.9204C93.595 54.9627 93.5153 55.0067 93.4371 55.0522C93.2418 55.1629 93.1442 55.2736 93.1442 55.3843C93.1442 55.661 93.6031 55.8026 94.5211 55.8091C95.4391 55.8156 96.0413 55.8465 96.3278 55.9019C96.6175 55.9539 96.8421 56.0597 97.0016 56.2192C97.2522 56.4699 97.3776 56.7563 97.3776 57.0786C97.3776 57.3553 97.2587 57.6401 97.0211 57.9331C96.6077 58.4507 95.9762 58.7957 95.1266 58.9683C94.8239 59.0301 94.5032 59.061 94.1647 59.061C93.5494 59.061 93.0823 58.9487 92.7633 58.7241C92.4443 58.5028 92.2848 58.2342 92.2848 57.9185C92.2848 57.7459 92.3255 57.6027 92.4069 57.4888C92.4882 57.3781 92.5908 57.2723 92.7145 57.1714C92.8414 57.0737 92.9798 56.9696 93.1295 56.8589C93.2793 56.7515 93.4225 56.6131 93.5592 56.4438C93.2467 56.4178 92.9781 56.3185 92.7535 56.146C92.5322 55.9735 92.4215 55.8042 92.4215 55.6382C92.4215 55.4722 92.4655 55.3501 92.5533 55.272C92.6412 55.1906 92.7487 55.1222 92.8756 55.0669C93.0026 55.0083 93.136 54.9546 93.276 54.9058C93.416 54.8569 93.538 54.7935 93.6422 54.7153C93.2776 54.5721 92.9961 54.3752 92.7975 54.1245C92.5989 53.8706 92.4996 53.5939 92.4996 53.2944C92.4996 52.7378 92.7015 52.2837 93.1051 51.9321C93.512 51.5806 94.0019 51.4048 94.5748 51.4048C95.1477 51.4048 95.6035 51.5643 95.942 51.8833ZM93.2858 56.9761C93.2109 57.0509 93.149 57.1307 93.1002 57.2153C93.0514 57.3 93.027 57.4058 93.027 57.5327C93.027 57.6629 93.0726 57.798 93.1637 57.938C93.2581 58.0812 93.3851 58.2098 93.5446 58.3237C93.8961 58.5841 94.3193 58.7144 94.8141 58.7144C95.3089 58.7144 95.7565 58.5695 96.1569 58.2798C96.5605 57.9933 96.7623 57.6776 96.7623 57.3325C96.7623 56.9907 96.5963 56.7612 96.2643 56.644C96.108 56.592 95.706 56.5594 95.0582 56.5464C94.4104 56.5334 93.9905 56.5155 93.7985 56.4927C93.7138 56.5903 93.6259 56.6766 93.5348 56.7515C93.4469 56.8263 93.3639 56.9012 93.2858 56.9761ZM95.7076 53.1821C95.7076 52.7231 95.5921 52.3504 95.361 52.064C95.1331 51.7743 94.8304 51.6294 94.4528 51.6294C93.9645 51.6294 93.6194 51.8589 93.4176 52.3179C93.3395 52.4937 93.3004 52.6955 93.3004 52.9233C93.3004 53.3888 93.3964 53.7762 93.5885 54.0854C93.8229 54.4565 94.1305 54.6421 94.5114 54.6421C94.8922 54.6421 95.1868 54.5135 95.3951 54.2563C95.6035 53.9992 95.7076 53.6411 95.7076 53.1821ZM100.859 52.4399C100.82 52.4334 100.763 52.4123 100.688 52.3765C100.418 52.2528 100.206 52.1909 100.053 52.1909C99.9003 52.1909 99.7392 52.2869 99.5699 52.479C99.4039 52.6678 99.3209 52.8387 99.3209 52.9917V55.1987C99.3209 55.4429 99.4625 55.6056 99.7457 55.687C99.8694 55.7196 99.985 55.744 100.092 55.7603C100.2 55.7733 100.268 55.7863 100.297 55.7993C100.33 55.8123 100.346 55.8384 100.346 55.8774C100.346 55.9132 100.33 55.9344 100.297 55.9409H97.8512C97.8186 55.9344 97.8024 55.9116 97.8024 55.8726C97.8024 55.814 97.8789 55.7749 98.0319 55.7554C98.3834 55.7033 98.5592 55.5177 98.5592 55.1987V52.6157C98.5592 52.479 98.4843 52.3846 98.3346 52.3325C98.2695 52.3097 98.1995 52.2918 98.1246 52.2788C98.0498 52.2625 97.9895 52.2479 97.944 52.2349C97.9017 52.2218 97.874 52.2104 97.861 52.2007C97.8512 52.1877 97.8463 52.1632 97.8463 52.1274C97.8463 52.0884 97.8707 52.0558 97.9196 52.0298L99.1647 51.4438C99.2037 51.4243 99.2281 51.4146 99.2379 51.4146C99.2933 51.4146 99.3209 51.4536 99.3209 51.5317V52.3228C99.3209 52.3618 99.3307 52.3813 99.3502 52.3813C99.3763 52.3813 99.443 52.3049 99.5504 52.1519C99.8597 51.7189 100.115 51.5024 100.317 51.5024C100.431 51.5024 100.605 51.548 100.839 51.6392C101.077 51.7303 101.196 51.8068 101.196 51.8687C101.196 51.9435 101.158 52.0575 101.084 52.2104C101.009 52.3634 100.934 52.4399 100.859 52.4399ZM104.56 55.1353C104.56 55.2199 104.599 55.2882 104.677 55.3403C104.759 55.3892 104.852 55.4136 104.956 55.4136C105.06 55.4136 105.146 55.3875 105.214 55.3354C105.286 55.2801 105.335 55.2524 105.361 55.2524C105.387 55.2524 105.4 55.2882 105.4 55.3599C105.4 55.4282 105.367 55.4868 105.302 55.5356C104.814 55.8937 104.484 56.0728 104.311 56.0728C104.103 56.0728 103.934 55.8563 103.803 55.4233C103.794 55.3908 103.785 55.3761 103.779 55.3794C103.375 55.6821 103.121 55.8644 103.017 55.9263C102.75 56.0793 102.482 56.1037 102.212 55.9995C101.945 55.8953 101.751 55.7228 101.63 55.4819C101.572 55.3582 101.543 55.2264 101.543 55.0864C101.543 54.8097 101.645 54.59 101.85 54.4272C102.055 54.2645 102.446 54.1082 103.022 53.9585C103.217 53.9064 103.392 53.8397 103.545 53.7583C103.698 53.6769 103.777 53.6248 103.784 53.6021C103.794 53.5793 103.798 53.5581 103.798 53.5386V52.6011C103.798 52.2332 103.655 51.9744 103.369 51.8247C103.274 51.7759 103.16 51.7515 103.027 51.7515C102.897 51.7515 102.763 51.8035 102.627 51.9077C102.493 52.0119 102.426 52.16 102.426 52.3521L102.451 52.5425C102.431 52.5815 102.314 52.6466 102.099 52.7378C101.884 52.8289 101.761 52.8778 101.728 52.8843C101.676 52.8843 101.65 52.8224 101.65 52.6987C101.65 52.5718 101.687 52.4318 101.762 52.2788C101.837 52.1258 101.943 51.9858 102.08 51.8589C102.399 51.5627 102.763 51.4146 103.173 51.4146C103.584 51.4146 103.917 51.5285 104.174 51.7563C104.432 51.981 104.56 52.2495 104.56 52.562V55.1353ZM102.309 54.9937C102.309 55.1499 102.369 55.2866 102.49 55.4038C102.61 55.5177 102.747 55.5747 102.9 55.5747C103.056 55.5747 103.245 55.5096 103.466 55.3794C103.688 55.2459 103.798 55.1092 103.798 54.9692V53.978C103.798 53.9422 103.79 53.9243 103.774 53.9243C103.758 53.9243 103.746 53.9259 103.74 53.9292L102.607 54.4565C102.49 54.5412 102.41 54.6128 102.368 54.6714C102.329 54.73 102.309 54.8374 102.309 54.9937ZM103.247 49.6372C103.237 49.6274 103.219 49.6079 103.193 49.5786C103.167 49.5493 103.151 49.5347 103.144 49.5347C103.138 49.5347 103.121 49.5493 103.095 49.5786C103.073 49.6079 103.056 49.6274 103.047 49.6372L102.002 50.731C101.989 50.744 101.972 50.7505 101.953 50.7505C101.936 50.7505 101.912 50.7293 101.88 50.687C101.847 50.6414 101.831 50.6105 101.831 50.5942C101.831 50.578 101.842 50.5535 101.865 50.521L103.027 48.9438C103.047 48.9243 103.066 48.9032 103.086 48.8804C103.108 48.8576 103.128 48.8462 103.144 48.8462C103.173 48.8462 103.216 48.882 103.271 48.9536L104.482 50.521C104.505 50.5568 104.516 50.5828 104.516 50.5991C104.516 50.6121 104.5 50.6414 104.467 50.687C104.435 50.7293 104.41 50.7505 104.394 50.7505C104.381 50.7505 104.368 50.744 104.355 50.731L103.247 49.6372ZM109.702 52.0005C109.702 52.2284 109.57 52.3423 109.306 52.3423C109.173 52.3423 109.059 52.3049 108.964 52.23C108.873 52.1519 108.802 52.0868 108.75 52.0347C108.701 51.9793 108.649 51.9289 108.593 51.8833C108.359 51.6912 108.073 51.6701 107.734 51.8198C107.399 51.9696 107.14 52.2886 106.958 52.7769C106.857 53.047 106.806 53.3156 106.806 53.5825C106.806 54.1554 106.936 54.6242 107.197 54.9888C107.457 55.3501 107.856 55.5308 108.393 55.5308C108.794 55.5308 109.153 55.3517 109.472 54.9937C109.57 54.8862 109.629 54.8325 109.648 54.8325C109.668 54.8325 109.689 54.8423 109.712 54.8618C109.734 54.8813 109.746 54.9106 109.746 54.9497C109.746 54.9855 109.736 55.0132 109.716 55.0327C109.218 55.7261 108.592 56.0728 107.837 56.0728C107.29 56.0728 106.84 55.8693 106.489 55.4624C106.141 55.0555 105.966 54.59 105.966 54.0659C105.97 53.0959 106.204 52.3976 106.67 51.9712C107.08 51.5968 107.664 51.4097 108.422 51.4097C108.891 51.4097 109.202 51.4569 109.355 51.5513C109.508 51.6457 109.616 51.7645 109.677 51.9077C109.694 51.9403 109.702 51.9712 109.702 52.0005ZM111.215 53.3677C111.16 53.3677 111.132 53.4865 111.132 53.7241C111.132 54.2287 111.282 54.6519 111.582 54.9937C111.881 55.3354 112.252 55.5063 112.695 55.5063C113.141 55.5063 113.569 55.3143 113.979 54.9302C113.986 54.9237 113.994 54.9204 114.004 54.9204H114.028C114.047 54.9204 114.065 54.9367 114.082 54.9692C114.101 54.9985 114.119 55.0181 114.135 55.0278C113.758 55.4868 113.313 55.8042 112.802 55.98C112.627 56.0418 112.428 56.0728 112.207 56.0728C111.985 56.0728 111.761 56.0125 111.533 55.8921C111.305 55.7684 111.11 55.6073 110.947 55.4087C110.602 54.9953 110.429 54.481 110.429 53.8657C110.429 53.2472 110.616 52.6841 110.991 52.1763C111.368 51.6685 111.886 51.4146 112.544 51.4146C113.016 51.4146 113.401 51.6261 113.701 52.0493C114 52.4692 114.15 52.8387 114.15 53.1577C114.15 53.2977 114.116 53.3677 114.047 53.3677H111.215ZM111.269 52.8989C111.269 52.9608 111.298 52.9917 111.357 52.9917H113.198C113.283 52.9917 113.325 52.9412 113.325 52.8403C113.325 52.606 113.219 52.3667 113.007 52.1226C112.799 51.8752 112.57 51.7515 112.319 51.7515C112.075 51.7515 111.852 51.8621 111.65 52.0835C111.451 52.3049 111.325 52.5571 111.269 52.8403V52.8989ZM120.673 55.1353C120.673 55.2199 120.713 55.2882 120.791 55.3403C120.872 55.3892 120.965 55.4136 121.069 55.4136C121.173 55.4136 121.259 55.3875 121.328 55.3354C121.399 55.2801 121.448 55.2524 121.474 55.2524C121.5 55.2524 121.513 55.2882 121.513 55.3599C121.513 55.4282 121.481 55.4868 121.416 55.5356C120.927 55.8937 120.597 56.0728 120.424 56.0728C120.216 56.0728 120.047 55.8563 119.917 55.4233C119.907 55.3908 119.899 55.3761 119.892 55.3794C119.489 55.6821 119.235 55.8644 119.13 55.9263C118.864 56.0793 118.595 56.1037 118.325 55.9995C118.058 55.8953 117.864 55.7228 117.744 55.4819C117.685 55.3582 117.656 55.2264 117.656 55.0864C117.656 54.8097 117.758 54.59 117.964 54.4272C118.169 54.2645 118.559 54.1082 119.135 53.9585C119.331 53.9064 119.505 53.8397 119.658 53.7583C119.811 53.6769 119.891 53.6248 119.897 53.6021C119.907 53.5793 119.912 53.5581 119.912 53.5386V52.6011C119.912 52.2332 119.769 51.9744 119.482 51.8247C119.388 51.7759 119.274 51.7515 119.14 51.7515C119.01 51.7515 118.877 51.8035 118.74 51.9077C118.606 52.0119 118.54 52.16 118.54 52.3521L118.564 52.5425C118.545 52.5815 118.427 52.6466 118.213 52.7378C117.998 52.8289 117.874 52.8778 117.841 52.8843C117.789 52.8843 117.763 52.8224 117.763 52.6987C117.763 52.5718 117.801 52.4318 117.876 52.2788C117.95 52.1258 118.056 51.9858 118.193 51.8589C118.512 51.5627 118.877 51.4146 119.287 51.4146C119.697 51.4146 120.031 51.5285 120.288 51.7563C120.545 51.981 120.673 52.2495 120.673 52.562V55.1353ZM118.422 54.9937C118.422 55.1499 118.483 55.2866 118.603 55.4038C118.724 55.5177 118.86 55.5747 119.013 55.5747C119.17 55.5747 119.358 55.5096 119.58 55.3794C119.801 55.2459 119.912 55.1092 119.912 54.9692V53.978C119.912 53.9422 119.904 53.9243 119.887 53.9243C119.871 53.9243 119.86 53.9259 119.853 53.9292L118.72 54.4565C118.603 54.5412 118.523 54.6128 118.481 54.6714C118.442 54.73 118.422 54.8374 118.422 54.9937ZM125.322 55.5112C125.306 55.4559 125.284 55.438 125.258 55.4575C125.232 55.4738 125.127 55.5291 124.941 55.6235C124.332 55.9263 123.825 56.0776 123.418 56.0776C123.011 56.0776 122.718 55.9474 122.539 55.687C122.474 55.5894 122.441 55.4689 122.441 55.3257V52.3472C122.431 52.2528 122.389 52.1714 122.314 52.103C122.213 52.0184 122.107 51.9728 121.997 51.9663C121.889 51.9598 121.836 51.9272 121.836 51.8687C121.836 51.8068 121.862 51.7694 121.914 51.7563L123.032 51.4341C123.071 51.4211 123.108 51.4146 123.144 51.4146C123.183 51.4146 123.203 51.4422 123.203 51.4976V54.7739C123.203 55.0018 123.304 55.1776 123.505 55.3013C123.707 55.425 123.964 55.4868 124.277 55.4868C124.593 55.4868 124.876 55.3908 125.127 55.1987C125.205 55.1369 125.27 55.0685 125.322 54.9937V52.3472C125.312 52.2528 125.27 52.1714 125.195 52.103C125.094 52.0184 124.988 51.9728 124.878 51.9663C124.77 51.9598 124.716 51.9272 124.716 51.8687C124.716 51.8068 124.742 51.7694 124.795 51.7563L125.913 51.4341C125.952 51.4211 125.989 51.4146 126.025 51.4146C126.064 51.4146 126.084 51.4471 126.084 51.5122V54.979C126.1 55.1222 126.141 55.2248 126.206 55.2866C126.271 55.3485 126.377 55.3794 126.523 55.3794L126.806 55.3599C126.826 55.3599 126.836 55.3794 126.836 55.4185C126.836 55.4543 126.811 55.4836 126.762 55.5063L125.464 56.0435C125.424 56.063 125.39 56.0728 125.361 56.0728C125.335 56.0728 125.322 56.0321 125.322 55.9507V55.5112ZM61.1129 65.8833C61.1129 65.8833 61.5491 65.8638 62.4215 65.8247C62.4964 65.8247 62.5452 65.8328 62.568 65.8491C62.5908 65.8654 62.6152 65.9224 62.6412 66.02C62.6673 66.1144 62.6803 66.2039 62.6803 66.2886C62.6803 66.3732 62.6722 66.422 62.6559 66.4351C62.6396 66.4481 62.6071 66.4546 62.5582 66.4546H61.4742C61.4938 66.4904 61.5149 66.5278 61.5377 66.5669C61.5605 66.606 61.5898 66.6711 61.6256 66.7622C61.6614 66.8534 61.6793 66.995 61.6793 67.187C61.6793 67.3758 61.6321 67.5744 61.5377 67.7827C61.4466 67.9878 61.3115 68.1701 61.1324 68.3296C60.7353 68.6877 60.221 68.8667 59.5895 68.8667C59.4235 68.8667 59.2412 68.8358 59.0426 68.7739C58.9938 68.826 58.9287 68.8748 58.8473 68.9204C58.7659 68.9627 58.6862 69.0067 58.608 69.0522C58.4127 69.1629 58.3151 69.2736 58.3151 69.3843C58.3151 69.661 58.774 69.8026 59.692 69.8091C60.61 69.8156 61.2122 69.8465 61.4987 69.9019C61.7884 69.9539 62.013 70.0597 62.1725 70.2192C62.4231 70.4699 62.5485 70.7563 62.5485 71.0786C62.5485 71.3553 62.4296 71.6401 62.192 71.9331C61.7786 72.4507 61.1471 72.7957 60.2975 72.9683C59.9948 73.0301 59.6741 73.061 59.3356 73.061C58.7203 73.061 58.2532 72.9487 57.9342 72.7241C57.6152 72.5028 57.4557 72.2342 57.4557 71.9185C57.4557 71.7459 57.4964 71.6027 57.5778 71.4888C57.6591 71.3781 57.7617 71.2723 57.8854 71.1714C58.0123 71.0737 58.1507 70.9696 58.3004 70.8589C58.4502 70.7515 58.5934 70.6131 58.7301 70.4438C58.4176 70.4178 58.149 70.3185 57.9244 70.146C57.7031 69.9735 57.5924 69.8042 57.5924 69.6382C57.5924 69.4722 57.6364 69.3501 57.7242 69.272C57.8121 69.1906 57.9196 69.1222 58.0465 69.0669C58.1735 69.0083 58.3069 68.9546 58.4469 68.9058C58.5869 68.8569 58.7089 68.7935 58.8131 68.7153C58.4485 68.5721 58.167 68.3752 57.9684 68.1245C57.7698 67.8706 57.6705 67.5939 57.6705 67.2944C57.6705 66.7378 57.8724 66.2837 58.276 65.9321C58.6829 65.5806 59.1728 65.4048 59.7457 65.4048C60.3186 65.4048 60.7744 65.5643 61.1129 65.8833ZM58.4567 70.9761C58.3818 71.0509 58.3199 71.1307 58.2711 71.2153C58.2223 71.3 58.1979 71.4058 58.1979 71.5327C58.1979 71.6629 58.2434 71.798 58.3346 71.938C58.429 72.0812 58.5559 72.2098 58.7155 72.3237C59.067 72.5841 59.4902 72.7144 59.985 72.7144C60.4798 72.7144 60.9274 72.5695 61.3278 72.2798C61.7314 71.9933 61.9332 71.6776 61.9332 71.3325C61.9332 70.9907 61.7672 70.7612 61.4352 70.644C61.2789 70.592 60.8769 70.5594 60.2291 70.5464C59.5813 70.5334 59.1614 70.5155 58.9694 70.4927C58.8847 70.5903 58.7968 70.6766 58.7057 70.7515C58.6178 70.8263 58.5348 70.9012 58.4567 70.9761ZM60.8785 67.1821C60.8785 66.7231 60.763 66.3504 60.5319 66.064C60.304 65.7743 60.0013 65.6294 59.6237 65.6294C59.1354 65.6294 58.7903 65.8589 58.5885 66.3179C58.5104 66.4937 58.4713 66.6955 58.4713 66.9233C58.4713 67.3888 58.5673 67.7762 58.7594 68.0854C58.9938 68.4565 59.3014 68.6421 59.6823 68.6421C60.0631 68.6421 60.3577 68.5135 60.566 68.2563C60.7744 67.9992 60.8785 67.6411 60.8785 67.1821ZM66.0787 69.1353C66.0787 69.2199 66.1178 69.2882 66.1959 69.3403C66.2773 69.3892 66.3701 69.4136 66.4742 69.4136C66.5784 69.4136 66.6647 69.3875 66.733 69.3354C66.8046 69.2801 66.8535 69.2524 66.8795 69.2524C66.9056 69.2524 66.9186 69.2882 66.9186 69.3599C66.9186 69.4282 66.886 69.4868 66.8209 69.5356C66.3326 69.8937 66.0022 70.0728 65.8297 70.0728C65.6214 70.0728 65.4521 69.8563 65.3219 69.4233C65.3121 69.3908 65.304 69.3761 65.2975 69.3794C64.8938 69.6821 64.6399 69.8644 64.5358 69.9263C64.2688 70.0793 64.0003 70.1037 63.7301 69.9995C63.4632 69.8953 63.2695 69.7228 63.149 69.4819C63.0905 69.3582 63.0612 69.2264 63.0612 69.0864C63.0612 68.8097 63.1637 68.59 63.3688 68.4272C63.5739 68.2645 63.9645 68.1082 64.5406 67.9585C64.736 67.9064 64.9101 67.8397 65.0631 67.7583C65.2161 67.6769 65.2959 67.6248 65.3024 67.6021C65.3121 67.5793 65.317 67.5581 65.317 67.5386V66.6011C65.317 66.2332 65.1738 65.9744 64.8873 65.8247C64.7929 65.7759 64.679 65.7515 64.5455 65.7515C64.4153 65.7515 64.2819 65.8035 64.1451 65.9077C64.0117 66.0119 63.9449 66.16 63.9449 66.3521L63.9694 66.5425C63.9498 66.5815 63.8326 66.6466 63.6178 66.7378C63.403 66.8289 63.2793 66.8778 63.2467 66.8843C63.1946 66.8843 63.1686 66.8224 63.1686 66.6987C63.1686 66.5718 63.206 66.4318 63.2809 66.2788C63.3558 66.1258 63.4615 65.9858 63.5983 65.8589C63.9173 65.5627 64.2819 65.4146 64.692 65.4146C65.1022 65.4146 65.4358 65.5285 65.693 65.7563C65.9502 65.981 66.0787 66.2495 66.0787 66.562V69.1353ZM63.8278 68.9937C63.8278 69.1499 63.888 69.2866 64.0084 69.4038C64.1289 69.5177 64.2656 69.5747 64.4186 69.5747C64.5748 69.5747 64.7636 69.5096 64.985 69.3794C65.2063 69.2459 65.317 69.1092 65.317 68.9692V67.978C65.317 67.9422 65.3089 67.9243 65.2926 67.9243C65.2763 67.9243 65.2649 67.9259 65.2584 67.9292L64.1256 68.4565C64.0084 68.5412 63.9287 68.6128 63.8864 68.6714C63.8473 68.73 63.8278 68.8374 63.8278 68.9937ZM68.5787 65.854C68.5787 65.9549 68.6015 66.0054 68.6471 66.0054C68.6959 66.0054 68.9043 65.8996 69.2721 65.688C69.7018 65.5057 70.0289 65.4146 70.2535 65.4146C70.4781 65.4146 70.693 65.4797 70.8981 65.6099C71.1031 65.7401 71.2773 65.911 71.4205 66.1226C71.7233 66.5588 71.8746 67.0877 71.8746 67.7095C71.8746 68.3312 71.6582 68.8813 71.2252 69.3599C70.7955 69.8351 70.2275 70.0728 69.5211 70.0728C69.0621 70.0728 68.639 70.0174 68.2516 69.9067C68.1377 69.8742 68.04 69.8481 67.9586 69.8286C67.8805 69.8091 67.8365 69.7896 67.8268 69.77C67.8203 69.7472 67.817 69.7212 67.817 69.6919V63.1099C67.817 62.9731 67.7421 62.8787 67.5924 62.8267C67.5273 62.8039 67.4573 62.786 67.3824 62.7729C67.3076 62.7567 67.2474 62.742 67.2018 62.729C67.1595 62.716 67.1318 62.7046 67.1188 62.6948C67.109 62.6818 67.1041 62.6574 67.1041 62.6216C67.1041 62.5825 67.1285 62.55 67.1774 62.5239L68.4225 61.938C68.4615 61.9185 68.486 61.9087 68.4957 61.9087C68.5511 61.9087 68.5787 61.9478 68.5787 62.0259V65.854ZM69.6139 66.0103C69.3242 66.0103 68.9987 66.1144 68.6373 66.3228C68.5983 66.3455 68.5787 66.3846 68.5787 66.4399V68.7495C68.6113 69.0457 68.7399 69.2769 68.9645 69.4429C69.1891 69.6089 69.4349 69.6919 69.7018 69.6919C70.1705 69.6919 70.5319 69.5063 70.7858 69.1353C71.0429 68.7642 71.1715 68.341 71.1715 67.8657C71.1715 67.3905 71.0413 66.9624 70.7809 66.5815C70.5205 66.2007 70.1315 66.0103 69.6139 66.0103ZM75.776 69.1353C75.776 69.2199 75.8151 69.2882 75.8932 69.3403C75.9746 69.3892 76.0673 69.4136 76.1715 69.4136C76.2757 69.4136 76.3619 69.3875 76.4303 69.3354C76.5019 69.2801 76.5507 69.2524 76.5768 69.2524C76.6028 69.2524 76.6158 69.2882 76.6158 69.3599C76.6158 69.4282 76.5833 69.4868 76.5182 69.5356C76.0299 69.8937 75.6995 70.0728 75.527 70.0728C75.3186 70.0728 75.1494 69.8563 75.0192 69.4233C75.0094 69.3908 75.0013 69.3761 74.9948 69.3794C74.5911 69.6821 74.3372 69.8644 74.233 69.9263C73.9661 70.0793 73.6976 70.1037 73.4274 69.9995C73.1604 69.8953 72.9668 69.7228 72.8463 69.4819C72.7877 69.3582 72.7584 69.2264 72.7584 69.0864C72.7584 68.8097 72.861 68.59 73.066 68.4272C73.2711 68.2645 73.6617 68.1082 74.2379 67.9585C74.4332 67.9064 74.6074 67.8397 74.7604 67.7583C74.9134 67.6769 74.9931 67.6248 74.9996 67.6021C75.0094 67.5793 75.0143 67.5581 75.0143 67.5386V66.6011C75.0143 66.2332 74.8711 65.9744 74.5846 65.8247C74.4902 65.7759 74.3763 65.7515 74.2428 65.7515C74.1126 65.7515 73.9791 65.8035 73.8424 65.9077C73.7089 66.0119 73.6422 66.16 73.6422 66.3521L73.6666 66.5425C73.6471 66.5815 73.5299 66.6466 73.3151 66.7378C73.1002 66.8289 72.9765 66.8778 72.944 66.8843C72.8919 66.8843 72.8658 66.8224 72.8658 66.6987C72.8658 66.5718 72.9033 66.4318 72.9781 66.2788C73.053 66.1258 73.1588 65.9858 73.2955 65.8589C73.6145 65.5627 73.9791 65.4146 74.3893 65.4146C74.7994 65.4146 75.1331 65.5285 75.3903 65.7563C75.6474 65.981 75.776 66.2495 75.776 66.562V69.1353ZM73.525 68.9937C73.525 69.1499 73.5852 69.2866 73.7057 69.4038C73.8261 69.5177 73.9628 69.5747 74.1158 69.5747C74.2721 69.5747 74.4609 69.5096 74.6823 69.3794C74.9036 69.2459 75.0143 69.1092 75.0143 68.9692V67.978C75.0143 67.9422 75.0061 67.9243 74.9899 67.9243C74.9736 67.9243 74.9622 67.9259 74.9557 67.9292L73.8229 68.4565C73.7057 68.5412 73.6259 68.6128 73.5836 68.6714C73.5446 68.73 73.525 68.8374 73.525 68.9937ZM80.0533 66.4399C80.0143 66.4334 79.9573 66.4123 79.8824 66.3765C79.6123 66.2528 79.4007 66.1909 79.2477 66.1909C79.0947 66.1909 78.9336 66.2869 78.7643 66.479C78.5983 66.6678 78.5153 66.8387 78.5153 66.9917V69.1987C78.5153 69.4429 78.6569 69.6056 78.9401 69.687C79.0638 69.7196 79.1793 69.744 79.2867 69.7603C79.3942 69.7733 79.4625 69.7863 79.4918 69.7993C79.5244 69.8123 79.5406 69.8384 79.5406 69.8774C79.5406 69.9132 79.5244 69.9344 79.4918 69.9409H77.0455C77.013 69.9344 76.9967 69.9116 76.9967 69.8726C76.9967 69.814 77.0732 69.7749 77.2262 69.7554C77.5778 69.7033 77.7535 69.5177 77.7535 69.1987V66.6157C77.7535 66.479 77.6787 66.3846 77.5289 66.3325C77.4638 66.3097 77.3938 66.2918 77.319 66.2788C77.2441 66.2625 77.1839 66.2479 77.1383 66.2349C77.096 66.2218 77.0683 66.2104 77.0553 66.2007C77.0455 66.1877 77.0406 66.1632 77.0406 66.1274C77.0406 66.0884 77.0651 66.0558 77.1139 66.0298L78.359 65.4438C78.3981 65.4243 78.4225 65.4146 78.4323 65.4146C78.4876 65.4146 78.5153 65.4536 78.5153 65.5317V66.3228C78.5153 66.3618 78.525 66.3813 78.5446 66.3813C78.5706 66.3813 78.6373 66.3049 78.7448 66.1519C79.054 65.7189 79.3095 65.5024 79.5114 65.5024C79.6253 65.5024 79.7994 65.548 80.0338 65.6392C80.2714 65.7303 80.3903 65.8068 80.3903 65.8687C80.3903 65.9435 80.3528 66.0575 80.278 66.2104C80.2031 66.3634 80.1282 66.4399 80.0533 66.4399ZM80.7369 69.9409C80.7044 69.9344 80.6881 69.9116 80.6881 69.8726C80.6881 69.814 80.7646 69.7749 80.9176 69.7554C81.2692 69.7033 81.4449 69.5177 81.4449 69.1987V66.6157C81.4449 66.479 81.3701 66.3846 81.2203 66.3325C81.1552 66.3097 81.0852 66.2918 81.0104 66.2788C80.9355 66.2625 80.8753 66.2479 80.8297 66.2349C80.7874 66.2218 80.7597 66.2104 80.7467 66.2007C80.7369 66.1877 80.7321 66.1632 80.7321 66.1274C80.7321 66.0884 80.7565 66.0558 80.8053 66.0298L82.0504 65.4438C82.0895 65.4243 82.1139 65.4146 82.1237 65.4146C82.179 65.4146 82.2067 65.4536 82.2067 65.5317V69.1987C82.2067 69.5177 82.3824 69.7033 82.734 69.7554C82.887 69.7749 82.9635 69.8091 82.9635 69.8579C82.9635 69.9067 82.9472 69.9344 82.9147 69.9409H80.7369ZM81.7526 64.0425C81.6191 64.0425 81.5003 64.0002 81.3961 63.9155C81.2952 63.8309 81.2448 63.7137 81.2448 63.564C81.2448 63.411 81.2936 63.2905 81.3912 63.2026C81.4889 63.1147 81.6045 63.0708 81.7379 63.0708C81.8746 63.0708 81.9886 63.1229 82.0797 63.2271C82.1741 63.3312 82.2213 63.4435 82.2213 63.564C82.2213 63.6844 82.1774 63.7951 82.0895 63.896C82.0016 63.9937 81.8893 64.0425 81.7526 64.0425ZM84.3356 67.3677C84.2802 67.3677 84.2526 67.4865 84.2526 67.7241C84.2526 68.2287 84.4023 68.6519 84.7018 68.9937C85.0013 69.3354 85.3724 69.5063 85.8151 69.5063C86.261 69.5063 86.6891 69.3143 87.0992 68.9302C87.1058 68.9237 87.1139 68.9204 87.1237 68.9204H87.1481C87.1676 68.9204 87.1855 68.9367 87.2018 68.9692C87.2213 68.9985 87.2392 69.0181 87.2555 69.0278C86.8779 69.4868 86.4336 69.8042 85.9225 69.98C85.7467 70.0418 85.5481 70.0728 85.3268 70.0728C85.1054 70.0728 84.8808 70.0125 84.653 69.8921C84.4251 69.7684 84.2298 69.6073 84.067 69.4087C83.722 68.9953 83.5494 68.481 83.5494 67.8657C83.5494 67.2472 83.7366 66.6841 84.111 66.1763C84.4886 65.6685 85.0061 65.4146 85.6637 65.4146C86.1357 65.4146 86.5214 65.6261 86.8209 66.0493C87.1204 66.4692 87.2701 66.8387 87.2701 67.1577C87.2701 67.2977 87.236 67.3677 87.1676 67.3677H84.3356ZM84.3893 66.8989C84.3893 66.9608 84.4186 66.9917 84.4772 66.9917H86.318C86.4026 66.9917 86.4449 66.9412 86.4449 66.8403C86.4449 66.606 86.3392 66.3667 86.1276 66.1226C85.9192 65.8752 85.6897 65.7515 85.4391 65.7515C85.1949 65.7515 84.972 65.8621 84.7701 66.0835C84.5716 66.3049 84.4446 66.5571 84.3893 66.8403V66.8989ZM88.3834 69.4526C88.3834 69.2769 88.4453 69.1255 88.569 68.9985C88.6927 68.8683 88.8424 68.8032 89.0182 68.8032C89.1907 68.8032 89.3388 68.8667 89.4625 68.9937C89.5895 69.1174 89.653 69.2687 89.653 69.4478C89.653 69.6268 89.5911 69.7765 89.4674 69.897C89.3437 70.0142 89.194 70.0728 89.0182 70.0728C88.8457 70.0728 88.6959 70.0125 88.569 69.8921C88.4453 69.7716 88.3834 69.6252 88.3834 69.4526Z" fill="#EFB85F"/>
<path d="M17.5002 10L18.696 11.9748L21 13L18.696 14.0249L17.5002 16L16.304 14.0249L14 13L16.304 11.9748L17.5002 10Z" fill="#EFB85F"/>
<path d="M17.5002 86L18.696 87.9748L21 89L18.696 90.0249L17.5002 92L16.304 90.0249L14 89L16.304 87.9748L17.5002 86Z" fill="#EFB85F"/>
<path d="M124.5 84L125.696 85.9748L128 87L125.696 88.0249L124.5 90L123.304 88.0249L121 87L123.304 85.9748L124.5 84Z" fill="#EFB85F"/>
<path d="M80.5002 90L81.696 91.9748L84 93L81.696 94.0249L80.5002 96L79.304 94.0249L77 93L79.304 91.9748L80.5002 90Z" fill="#EFB85F"/>
<path d="M120.5 7L121.696 8.97475L124 10L121.696 11.0249L120.5 13L119.304 11.0249L117 10L119.304 8.97475L120.5 7Z" fill="#EFB85F"/>
<path d="M95.125 16.6259C95.1509 16.3615 95.1942 15.7335 95.2288 15.2377C95.2634 14.6647 95.324 14.3011 95.3932 14.2681C95.4538 14.235 95.7307 14.4113 95.999 14.6537C96.2759 14.9071 96.5182 15.0834 96.5441 15.0504C96.5615 15.0283 96.397 14.6757 96.1807 14.2791C95.9038 13.7943 95.8086 13.5519 95.8865 13.5189C95.9471 13.4968 96.3884 13.4197 96.8643 13.3426C98.3873 13.1222 98.3787 13.001 96.8384 12.7917C96.3019 12.7145 95.8519 12.6154 95.8346 12.5823C95.8086 12.5382 95.973 12.2187 96.1807 11.8661C96.3884 11.5025 96.5441 11.183 96.5182 11.15C96.4922 11.1279 96.2326 11.3152 95.9471 11.5687C95.6528 11.8331 95.3932 11.9984 95.3586 11.9543C95.3154 11.8992 95.2461 11.2381 95.1856 10.4779C95.0298 8.49462 94.9606 8.50564 94.7962 10.5219C94.7356 11.2822 94.6664 11.9433 94.6317 11.9763C94.6058 12.0094 94.3462 11.8331 94.052 11.5797C93.7664 11.3152 93.5155 11.1279 93.4895 11.161C93.4722 11.183 93.602 11.4805 93.7924 11.8111C93.9827 12.1306 94.1385 12.4611 94.1385 12.5272C94.1385 12.6044 93.7664 12.7035 93.1607 12.7917C91.6117 13.001 91.6117 13.1222 93.1693 13.3536C93.7577 13.4417 94.1385 13.5519 94.1385 13.618C94.1385 13.6841 93.9827 14.0147 93.7924 14.3342C93.3857 15.0283 93.351 15.2046 93.6799 14.9292C93.8183 14.83 94.0693 14.6096 94.251 14.4554C94.6664 14.1138 94.701 14.1689 94.7789 15.3589C94.8913 17.1107 95.0211 17.5735 95.125 16.6259Z" fill="#EFB85F"/>
<path d="M39.125 89.6259C39.1509 89.3615 39.1942 88.7335 39.2288 88.2377C39.2634 87.6647 39.324 87.3011 39.3932 87.2681C39.4538 87.235 39.7307 87.4113 39.999 87.6537C40.2759 87.9071 40.5182 88.0834 40.5441 88.0504C40.5615 88.0283 40.397 87.6757 40.1807 87.2791C39.9038 86.7943 39.8086 86.5519 39.8865 86.5189C39.9471 86.4968 40.3884 86.4197 40.8643 86.3426C42.3873 86.1222 42.3787 86.001 40.8384 85.7917C40.3019 85.7145 39.8519 85.6154 39.8346 85.5823C39.8086 85.5382 39.973 85.2187 40.1807 84.8661C40.3884 84.5025 40.5441 84.183 40.5182 84.15C40.4922 84.1279 40.2326 84.3152 39.9471 84.5687C39.6528 84.8331 39.3932 84.9984 39.3586 84.9543C39.3154 84.8992 39.2461 84.2381 39.1856 83.4779C39.0298 81.4946 38.9606 81.5056 38.7962 83.5219C38.7356 84.2822 38.6664 84.9433 38.6317 84.9763C38.6058 85.0094 38.3462 84.8331 38.052 84.5797C37.7664 84.3152 37.5155 84.1279 37.4895 84.161C37.4722 84.183 37.602 84.4805 37.7924 84.8111C37.9827 85.1306 38.1385 85.4611 38.1385 85.5272C38.1385 85.6044 37.7664 85.7035 37.1607 85.7917C35.6117 86.001 35.6117 86.1222 37.1693 86.3536C37.7577 86.4417 38.1385 86.5519 38.1385 86.618C38.1385 86.6841 37.9827 87.0147 37.7924 87.3342C37.3857 88.0283 37.351 88.2046 37.6799 87.9292C37.8183 87.83 38.0693 87.6096 38.251 87.4554C38.6664 87.1138 38.701 87.1689 38.7789 88.3589C38.8913 90.1107 39.0211 90.5735 39.125 89.6259Z" fill="#EFB85F"/>
<path d="M110.125 99.6259C110.151 99.3615 110.194 98.7335 110.229 98.2377C110.263 97.6647 110.324 97.3011 110.393 97.2681C110.454 97.235 110.731 97.4113 110.999 97.6537C111.276 97.9071 111.518 98.0834 111.544 98.0504C111.561 98.0283 111.397 97.6757 111.181 97.2791C110.904 96.7943 110.809 96.5519 110.886 96.5189C110.947 96.4968 111.388 96.4197 111.864 96.3426C113.387 96.1222 113.379 96.001 111.838 95.7917C111.302 95.7145 110.852 95.6154 110.835 95.5823C110.809 95.5382 110.973 95.2187 111.181 94.8661C111.388 94.5025 111.544 94.183 111.518 94.15C111.492 94.1279 111.233 94.3152 110.947 94.5687C110.653 94.8331 110.393 94.9984 110.359 94.9543C110.315 94.8992 110.246 94.2381 110.186 93.4779C110.03 91.4946 109.961 91.5056 109.796 93.5219C109.736 94.2822 109.666 94.9433 109.632 94.9763C109.606 95.0094 109.346 94.8331 109.052 94.5797C108.766 94.3152 108.515 94.1279 108.489 94.161C108.472 94.183 108.602 94.4805 108.792 94.8111C108.983 95.1306 109.138 95.4611 109.138 95.5272C109.138 95.6044 108.766 95.7035 108.161 95.7917C106.612 96.001 106.612 96.1222 108.169 96.3536C108.758 96.4417 109.138 96.5519 109.138 96.618C109.138 96.6841 108.983 97.0147 108.792 97.3342C108.386 98.0283 108.351 98.2046 108.68 97.9292C108.818 97.83 109.069 97.6096 109.251 97.4554C109.666 97.1138 109.701 97.1689 109.779 98.3589C109.891 100.111 110.021 100.573 110.125 99.6259Z" fill="#EFB85F"/>
<path d="M53.125 12.6259C53.1509 12.3615 53.1942 11.7335 53.2288 11.2377C53.2634 10.6647 53.324 10.3011 53.3932 10.2681C53.4538 10.235 53.7307 10.4113 53.999 10.6537C54.2759 10.9071 54.5182 11.0834 54.5441 11.0504C54.5615 11.0283 54.397 10.6757 54.1807 10.2791C53.9038 9.7943 53.8086 9.55191 53.8865 9.51885C53.9471 9.49682 54.3884 9.41969 54.8643 9.34256C56.3873 9.1222 56.3787 9.001 54.8384 8.79166C54.3019 8.71453 53.8519 8.61537 53.8346 8.58232C53.8086 8.53825 53.973 8.21872 54.1807 7.86614C54.3884 7.50255 54.5441 7.18302 54.5182 7.14997C54.4922 7.12793 54.2326 7.31524 53.9471 7.56866C53.6528 7.83309 53.3932 7.99836 53.3586 7.95429C53.3154 7.8992 53.2461 7.23811 53.1856 6.47787C53.0298 4.49462 52.9606 4.50564 52.7962 6.52194C52.7356 7.28219 52.6664 7.94327 52.6317 7.97632C52.6058 8.00938 52.3462 7.83309 52.052 7.57967C51.7664 7.31524 51.5155 7.12793 51.4895 7.16099C51.4722 7.18302 51.602 7.48051 51.7924 7.81105C51.9827 8.13058 52.1385 8.46112 52.1385 8.52723C52.1385 8.60435 51.7664 8.70352 51.1607 8.79166C49.6117 9.001 49.6117 9.1222 51.1693 9.35358C51.7577 9.44173 52.1385 9.55191 52.1385 9.61802C52.1385 9.68412 51.9827 10.0147 51.7924 10.3342C51.3857 11.0283 51.351 11.2046 51.6799 10.9292C51.8183 10.83 52.0693 10.6096 52.251 10.4554C52.6664 10.1138 52.701 10.1689 52.7789 11.3589C52.8913 13.1107 53.0211 13.5735 53.125 12.6259Z" fill="#EFB85F"/>
<circle cx="26" cy="81" r="1" fill="#EFB85F"/>
<circle cx="57" cy="96" r="1" fill="#EFB85F"/>
<circle cx="111" cy="84" r="1" fill="#EFB85F"/>
<circle cx="139" cy="16" r="1" fill="#EFB85F"/>
<circle cx="143" cy="55" r="1" fill="#EFB85F"/>
<circle cx="139" cy="93" r="1" fill="#EFB85F"/>
<circle cx="36" cy="10" r="1" fill="#EFB85F"/>
<circle cx="75" cy="6" r="1" fill="#EFB85F"/>
<path d="M30.1536 96.762L33.0001 96.6487L30.1536 96.5354L31.0464 95.3761L30.0932 96.4619L30 93L29.9069 96.4619L28.9537 95.3761L29.8465 96.5354L27 96.6487L29.8465 96.762L28.9537 97.9212L29.9069 96.8354L30 100.297L30.0932 96.8354L31.0464 97.9212L30.1536 96.762Z" fill="#EFB85F"/>
<path d="M11.1536 76.762L14.0001 76.6487L11.1536 76.5354L12.0464 75.3761L11.0932 76.4619L11 73L10.9069 76.4619L9.95375 75.3761L10.8465 76.5354L8 76.6487L10.8465 76.762L9.95375 77.9212L10.9069 76.8354L11 80.2973L11.0932 76.8354L12.0464 77.9212L11.1536 76.762Z" fill="#EFB85F"/>
<path d="M135.154 32.762L138 32.6487L135.154 32.5354L136.046 31.3761L135.093 32.4619L135 29L134.907 32.4619L133.954 31.3761L134.847 32.5354L132 32.6487L134.847 32.762L133.954 33.9212L134.907 32.8354L135 36.2973L135.093 32.8354L136.046 33.9212L135.154 32.762Z" fill="#EFB85F"/>
<path d="M68.1536 11.762L71.0001 11.6487L68.1536 11.5354L69.0464 10.3761L68.0932 11.4619L68 8L67.9069 11.4619L66.9537 10.3761L67.8465 11.5354L65 11.6487L67.8465 11.762L66.9537 12.9212L67.9069 11.8354L68 15.2973L68.0932 11.8354L69.0464 12.9212L68.1536 11.762Z" fill="#EFB85F"/>
<path d="M137.154 76.762L140 76.6487L137.154 76.5354L138.046 75.3761L137.093 76.4619L137 73L136.907 76.4619L135.954 75.3761L136.847 76.5354L134 76.6487L136.847 76.762L135.954 77.9212L136.907 76.8354L137 80.2973L137.093 76.8354L138.046 77.9212L137.154 76.762Z" fill="#EFB85F"/>
<path d="M129.154 95.762L132 95.6487L129.154 95.5354L130.046 94.3761L129.093 95.4619L129 92L128.907 95.4619L127.954 94.3761L128.847 95.5354L126 95.6487L128.847 95.762L127.954 96.9212L128.907 95.8354L129 99.2973L129.093 95.8354L130.046 96.9212L129.154 95.762Z" fill="#EFB85F"/>
<path d="M8.15357 18.762L11.0001 18.6487L8.15357 18.5354L9.04635 17.3761L8.09316 18.4619L8.00005 15L7.90694 18.4619L6.95375 17.3761L7.84653 18.5354L5 18.6487L7.84653 18.762L6.95375 19.9212L7.90694 18.8354L8.00005 22.2973L8.09316 18.8354L9.04635 19.9212L8.15357 18.762Z" fill="#EFB85F"/>
</svg>
