<svg width="148" height="105" viewBox="0 0 148 105" fill="none" xmlns="http://www.w3.org/2000/svg">
<rect width="147.402" height="104.882" rx="10" fill="black"/>
<path d="M12.5094 42.0488C11.9951 42.0033 11.5214 41.8714 11.0885 41.6533C10.6556 41.432 10.2926 41.1667 9.99963 40.8574C9.37463 40.1966 9.06213 39.4072 9.06213 38.4893C9.06213 37.4313 9.42346 36.5622 10.1461 35.8818C10.872 35.2015 11.7753 34.8613 12.8561 34.8613C13.9368 34.8613 14.832 35.1966 15.5416 35.8672C16.2545 36.5378 16.611 37.3955 16.611 38.4404C16.611 39.6839 15.9778 40.7256 14.7115 41.5654C14.6823 41.585 14.5569 41.6484 14.3356 41.7559C14.1175 41.8633 14.0084 41.9251 14.0084 41.9414C14.0084 41.9544 14.1093 42.0293 14.3112 42.166C14.5162 42.306 14.9492 42.6429 15.61 43.1768C16.0071 43.4958 16.3147 43.6764 16.5328 43.7188C16.7509 43.7643 16.86 43.8083 16.86 43.8506C16.86 43.932 16.8079 43.9824 16.7037 44.002C16.5996 44.0215 16.4417 44.0312 16.2301 44.0312C15.8623 44.0312 15.4554 43.9108 15.0094 43.6699C14.2249 43.1523 13.6976 42.765 13.4274 42.5078C13.1572 42.2507 12.9196 42.1058 12.7145 42.0732C12.6526 42.0635 12.5843 42.0553 12.5094 42.0488ZM10.7858 36.1113C10.5579 36.3913 10.3821 36.7201 10.2584 37.0977C10.138 37.472 10.0794 37.8366 10.0826 38.1914C10.0892 38.8327 10.2177 39.4186 10.4684 39.9492C10.719 40.4766 11.069 40.903 11.5182 41.2285C11.9707 41.5508 12.4931 41.7119 13.0856 41.7119C13.8115 41.7119 14.4153 41.4287 14.8971 40.8623C15.3789 40.2926 15.6198 39.5472 15.6198 38.626C15.6198 37.7048 15.3837 36.9316 14.9117 36.3066C14.3877 35.6165 13.6552 35.2438 12.7145 35.1885C11.9267 35.1885 11.2838 35.4961 10.7858 36.1113ZM20.8395 41.5117C20.8232 41.4564 20.802 41.4385 20.776 41.458C20.75 41.4743 20.6442 41.5296 20.4586 41.624C19.8499 41.9268 19.3421 42.0781 18.9352 42.0781C18.5283 42.0781 18.2353 41.9479 18.0563 41.6875C17.9912 41.5898 17.9586 41.4694 17.9586 41.3262V38.3477C17.9489 38.2533 17.9065 38.1719 17.8317 38.1035C17.7308 38.0189 17.625 37.9733 17.5143 37.9668C17.4069 37.9603 17.3531 37.9277 17.3531 37.8691C17.3531 37.8073 17.3792 37.7699 17.4313 37.7568L18.5494 37.4346C18.5885 37.4215 18.6259 37.415 18.6617 37.415C18.7008 37.415 18.7203 37.4427 18.7203 37.498V40.7744C18.7203 41.0023 18.8212 41.1781 19.0231 41.3018C19.2249 41.4255 19.4821 41.4873 19.7946 41.4873C20.1103 41.4873 20.3935 41.3913 20.6442 41.1992C20.7223 41.1374 20.7874 41.069 20.8395 40.9941V38.3477C20.8297 38.2533 20.7874 38.1719 20.7125 38.1035C20.6116 38.0189 20.5058 37.9733 20.3951 37.9668C20.2877 37.9603 20.234 37.9277 20.234 37.8691C20.234 37.8073 20.2601 37.7699 20.3121 37.7568L21.4303 37.4346C21.4694 37.4215 21.5068 37.415 21.5426 37.415C21.5817 37.415 21.6012 37.4476 21.6012 37.5127V40.9795C21.6175 41.1227 21.6582 41.2253 21.7233 41.2871C21.7884 41.349 21.8942 41.3799 22.0406 41.3799L22.3239 41.3604C22.3434 41.3604 22.3531 41.3799 22.3531 41.4189C22.3531 41.4548 22.3287 41.484 22.2799 41.5068L20.9811 42.0439C20.942 42.0635 20.9078 42.0732 20.8785 42.0732C20.8525 42.0732 20.8395 42.0326 20.8395 41.9512V41.5117ZM23.774 39.3682C23.7187 39.3682 23.691 39.487 23.691 39.7246C23.691 40.2292 23.8408 40.6523 24.1403 40.9941C24.4397 41.3359 24.8108 41.5068 25.2535 41.5068C25.6995 41.5068 26.1276 41.3148 26.5377 40.9307C26.5442 40.9242 26.5524 40.9209 26.5621 40.9209H26.5865C26.6061 40.9209 26.624 40.9372 26.6403 40.9697C26.6598 40.999 26.6777 41.0186 26.694 41.0283C26.3164 41.4873 25.872 41.8047 25.361 41.9805C25.1852 42.0423 24.9866 42.0732 24.7653 42.0732C24.5439 42.0732 24.3193 42.013 24.0914 41.8926C23.8636 41.7689 23.6683 41.6077 23.5055 41.4092C23.1604 40.9958 22.9879 40.4814 22.9879 39.8662C22.9879 39.2477 23.1751 38.6846 23.5494 38.1768C23.927 37.6689 24.4446 37.415 25.1022 37.415C25.5742 37.415 25.9599 37.6266 26.2594 38.0498C26.5589 38.4697 26.7086 38.8392 26.7086 39.1582C26.7086 39.2982 26.6744 39.3682 26.6061 39.3682H23.774ZM23.8278 38.8994C23.8278 38.9613 23.8571 38.9922 23.9156 38.9922H25.7565C25.8411 38.9922 25.8834 38.9417 25.8834 38.8408C25.8834 38.6064 25.7776 38.3672 25.566 38.123C25.3577 37.8757 25.1282 37.752 24.8776 37.752C24.6334 37.752 24.4104 37.8626 24.2086 38.084C24.0101 38.3053 23.8831 38.5576 23.8278 38.8408V38.8994ZM33.8912 41.4287C33.442 41.8584 32.9375 42.0732 32.3776 42.0732C32.1757 42.0732 31.9007 42.0358 31.5524 41.9609C31.497 41.9609 31.4661 41.9805 31.4596 42.0195C31.4563 42.0586 31.4531 42.0993 31.4498 42.1416V44.2266C31.4498 44.4707 31.5914 44.6335 31.8746 44.7148C31.9983 44.7474 32.1139 44.7702 32.2213 44.7832C32.3287 44.7995 32.3971 44.8141 32.4264 44.8271C32.4589 44.8402 32.4752 44.8646 32.4752 44.9004C32.4752 44.9395 32.4589 44.9622 32.4264 44.9688H29.9801C29.9476 44.9622 29.9313 44.9395 29.9313 44.9004C29.9313 44.8418 30.0078 44.8027 30.1608 44.7832C30.5123 44.7311 30.6881 44.5456 30.6881 44.2266V38.3721C30.6881 38.2354 30.6132 38.141 30.4635 38.0889C30.3984 38.0661 30.3284 38.0482 30.2535 38.0352C30.1787 38.0189 30.1184 38.0042 30.0729 37.9912C30.0306 37.9782 30.0029 37.9668 29.9899 37.957C29.9801 37.944 29.9752 37.9196 29.9752 37.8838C29.9752 37.8447 29.9996 37.8122 30.0485 37.7861L31.2936 37.1904C31.3196 37.1774 31.3457 37.1709 31.3717 37.1709C31.4238 37.1709 31.4498 37.21 31.4498 37.2881V37.9082C31.4498 37.944 31.4677 37.9619 31.5035 37.9619C31.5426 37.9619 31.6337 37.9147 31.777 37.8203C32.1904 37.5534 32.6201 37.4199 33.066 37.4199C33.3785 37.4199 33.665 37.5469 33.9254 37.8008C34.2672 38.1328 34.4951 38.5951 34.609 39.1875C34.6416 39.3568 34.6578 39.5374 34.6578 39.7295C34.6578 39.9183 34.6269 40.1185 34.5651 40.3301C34.4414 40.75 34.2168 41.1162 33.8912 41.4287ZM32.4948 37.9277C32.052 37.9277 31.7037 38.0547 31.4498 38.3086V41.0527C31.4498 41.2155 31.4775 41.3213 31.5328 41.3701C31.6761 41.4938 31.8958 41.5898 32.192 41.6582C32.778 41.7917 33.2337 41.6517 33.5592 41.2383C33.7903 40.9421 33.9059 40.584 33.9059 40.1641C33.9059 39.347 33.722 38.735 33.3541 38.3281C33.1328 38.0807 32.8463 37.9473 32.4948 37.9277ZM35.5612 39.749C35.5612 39.1077 35.7874 38.5576 36.2399 38.0986C36.6956 37.6364 37.2408 37.4053 37.8756 37.4053C38.5104 37.4053 39.0621 37.6299 39.5309 38.0791C39.9996 38.5251 40.234 39.0768 40.234 39.7344C40.234 40.3919 40.011 40.9469 39.5651 41.3994C39.1224 41.8486 38.5657 42.0732 37.8951 42.0732C37.2246 42.0732 36.6679 41.8454 36.2252 41.3896C35.7825 40.9339 35.5612 40.387 35.5612 39.749ZM36.777 41.0039C37.096 41.541 37.5306 41.8096 38.0807 41.8096C38.5071 41.8096 38.8326 41.6387 39.0573 41.2969C39.2851 40.9551 39.399 40.5352 39.399 40.0371C39.399 39.5391 39.2395 39.028 38.9205 38.5039C38.6048 37.9798 38.1783 37.7178 37.6412 37.7178C37.2474 37.7178 36.9365 37.8887 36.7086 38.2305C36.484 38.569 36.3717 39.0003 36.3717 39.5244C36.3717 40.0452 36.5068 40.5384 36.777 41.0039ZM40.9469 41.9414C40.9143 41.9349 40.8981 41.9121 40.8981 41.873C40.8981 41.8145 40.9746 41.7754 41.1276 41.7559C41.4791 41.7038 41.6549 41.5182 41.6549 41.1992V38.6162C41.6549 38.4795 41.58 38.3851 41.4303 38.333C41.3652 38.3102 41.2952 38.2923 41.2203 38.2793C41.1455 38.263 41.0852 38.2484 41.0397 38.2354C40.9974 38.2223 40.9697 38.2109 40.9567 38.2012C40.9469 38.1882 40.942 38.1637 40.942 38.1279C40.942 38.0889 40.9664 38.0563 41.0153 38.0303L42.2604 37.4443C42.2994 37.4248 42.3239 37.415 42.3336 37.415C42.389 37.415 42.4166 37.4541 42.4166 37.5322V41.1992C42.4166 41.5182 42.5924 41.7038 42.944 41.7559C43.097 41.7754 43.1735 41.8096 43.1735 41.8584C43.1735 41.9072 43.1572 41.9349 43.1246 41.9414H40.9469ZM41.9625 36.043C41.8291 36.043 41.7102 36.0007 41.6061 35.916C41.5052 35.8314 41.4547 35.7142 41.4547 35.5645C41.4547 35.4115 41.5035 35.291 41.6012 35.2031C41.6989 35.1152 41.8144 35.0713 41.9479 35.0713C42.0846 35.0713 42.1985 35.1234 42.2897 35.2275C42.3841 35.3317 42.4313 35.444 42.4313 35.5645C42.4313 35.6849 42.3873 35.7956 42.2994 35.8965C42.2115 35.9941 42.0992 36.043 41.9625 36.043ZM47.3434 40.4033L47.3336 39.373C47.3336 38.9531 47.2978 38.6585 47.2262 38.4893C47.1546 38.32 47.0634 38.193 46.9528 38.1084C46.8421 38.0205 46.6923 37.9766 46.5035 37.9766C46.318 37.9766 45.9225 38.123 45.317 38.416C45.2356 38.4648 45.1933 38.5104 45.1901 38.5527V41.1797C45.1901 41.5085 45.3658 41.6973 45.7174 41.7461C45.8704 41.7689 45.9469 41.8063 45.9469 41.8584C45.9469 41.9072 45.9306 41.9349 45.8981 41.9414H43.7203C43.6878 41.9349 43.6715 41.9121 43.6715 41.873C43.6715 41.8112 43.748 41.7689 43.901 41.7461C44.2526 41.6973 44.4283 41.5085 44.4283 41.1797V38.377C44.4283 38.2402 44.3535 38.1458 44.2037 38.0938C44.1386 38.071 44.0686 38.0531 43.9938 38.04C43.9189 38.0238 43.8587 38.0091 43.8131 37.9961C43.7708 37.9831 43.7431 37.9717 43.7301 37.9619C43.7203 37.9489 43.7155 37.9245 43.7155 37.8887C43.7155 37.8496 43.7399 37.8171 43.7887 37.791L45.0338 37.2051C45.0729 37.1855 45.0973 37.1758 45.1071 37.1758C45.1624 37.1758 45.1901 37.2148 45.1901 37.293V38.0547C45.1998 38.0872 45.2128 38.1035 45.2291 38.1035C45.2487 38.1035 45.3186 38.0742 45.4391 38.0156C45.719 37.8757 46.0006 37.7406 46.2838 37.6104C46.567 37.4801 46.8014 37.415 46.9869 37.415C47.7389 37.415 48.1149 38.1003 48.1149 39.4707L48.0709 40.8965V41.1797C48.0709 41.4336 48.1979 41.5996 48.4518 41.6777C48.5592 41.7135 48.6617 41.7396 48.7594 41.7559C48.8603 41.7689 48.9254 41.7819 48.9547 41.7949C48.9873 41.8079 49.0035 41.834 49.0035 41.873C49.0035 41.9121 48.9873 41.9349 48.9547 41.9414H46.6012C46.5686 41.9349 46.5524 41.9121 46.5524 41.873C46.5524 41.8112 46.6289 41.7689 46.7819 41.7461C47.1302 41.6973 47.3043 41.4954 47.3043 41.1406C47.3304 40.9779 47.3434 40.7321 47.3434 40.4033ZM50.6295 38.1865C50.61 38.1865 50.6002 38.2012 50.6002 38.2305V40.9258C50.6002 41.1211 50.6425 41.2741 50.7272 41.3848C50.8151 41.4954 50.9257 41.5508 51.0592 41.5508C51.1927 41.5508 51.3082 41.5296 51.4059 41.4873C51.5068 41.4417 51.5931 41.3929 51.6647 41.3408C51.7395 41.2887 51.8063 41.2415 51.8649 41.1992C51.9235 41.1536 51.9755 41.1309 52.0211 41.1309C52.0667 41.1309 52.0895 41.1423 52.0895 41.165C52.0895 41.2432 52.0813 41.2936 52.0651 41.3164C51.6744 41.821 51.2968 42.0732 50.9323 42.0732C50.5709 42.0732 50.2975 41.9593 50.1119 41.7314C49.9296 41.5003 49.8385 41.2253 49.8385 40.9062V38.1865H49.4723C49.3811 38.1865 49.3323 38.1572 49.3258 38.0986C49.3226 38.04 49.3323 38.0026 49.3551 37.9863C49.5276 37.8757 49.7653 37.6771 50.068 37.3906C50.1005 37.3548 50.1445 37.3011 50.1998 37.2295C50.2552 37.1579 50.3349 37.0602 50.4391 36.9365C50.5465 36.8128 50.6279 36.751 50.6832 36.751C50.7386 36.751 50.7662 36.7738 50.7662 36.8193C50.7662 36.8258 50.7109 37.0391 50.6002 37.459C50.6002 37.5176 50.6263 37.5485 50.6783 37.5518H51.9235C52.0667 37.5518 52.1383 37.7536 52.1383 38.1572C52.1383 38.1768 52.1253 38.1865 52.0992 38.1865H50.6295ZM53.3932 39.3682C53.3378 39.3682 53.3102 39.487 53.3102 39.7246C53.3102 40.2292 53.4599 40.6523 53.7594 40.9941C54.0589 41.3359 54.43 41.5068 54.8727 41.5068C55.3186 41.5068 55.7467 41.3148 56.1569 40.9307C56.1634 40.9242 56.1715 40.9209 56.1813 40.9209H56.2057C56.2252 40.9209 56.2431 40.9372 56.2594 40.9697C56.2789 40.999 56.2968 41.0186 56.3131 41.0283C55.9355 41.4873 55.4912 41.8047 54.9801 41.9805C54.8043 42.0423 54.6058 42.0732 54.3844 42.0732C54.163 42.0732 53.9384 42.013 53.7106 41.8926C53.4827 41.7689 53.2874 41.6077 53.1246 41.4092C52.7796 40.9958 52.6071 40.4814 52.6071 39.8662C52.6071 39.2477 52.7942 38.6846 53.1686 38.1768C53.5462 37.6689 54.0638 37.415 54.7213 37.415C55.1933 37.415 55.5791 37.6266 55.8785 38.0498C56.178 38.4697 56.3278 38.8392 56.3278 39.1582C56.3278 39.2982 56.2936 39.3682 56.2252 39.3682H53.3932ZM53.4469 38.8994C53.4469 38.9613 53.4762 38.9922 53.5348 38.9922H55.3756C55.4602 38.9922 55.5026 38.9417 55.5026 38.8408C55.5026 38.6064 55.3968 38.3672 55.1852 38.123C54.9768 37.8757 54.7474 37.752 54.4967 37.752C54.2526 37.752 54.0296 37.8626 53.8278 38.084C53.6292 38.3053 53.5022 38.5576 53.4469 38.8408V38.8994ZM61.6354 41.7559C61.7884 41.7754 61.8649 41.8145 61.8649 41.873C61.8649 41.9121 61.8486 41.9349 61.816 41.9414H59.6383C59.6058 41.9349 59.5895 41.9121 59.5895 41.873C59.5895 41.8145 59.666 41.7754 59.819 41.7559C60.1705 41.7038 60.3463 41.5182 60.3463 41.1992V35.1104C60.3463 34.9736 60.2714 34.8792 60.1217 34.8271C60.0566 34.8044 59.9866 34.7865 59.9117 34.7734C59.8369 34.7572 59.7767 34.7425 59.7311 34.7295C59.6888 34.7165 59.6611 34.7051 59.6481 34.6953C59.6383 34.6823 59.6334 34.6579 59.6334 34.6221C59.6334 34.583 59.6578 34.5505 59.7067 34.5244L60.9518 33.9385C60.9908 33.9189 61.0153 33.9092 61.025 33.9092C61.0804 33.9092 61.108 33.9482 61.108 34.0264V41.1992C61.108 41.5182 61.2838 41.7038 61.6354 41.7559ZM64.0328 35.9551C64.0328 36.5605 63.748 37.0651 63.1783 37.4688C63.0481 37.5632 62.9489 37.6104 62.8805 37.6104C62.8349 37.6104 62.8121 37.5827 62.8121 37.5273C62.8121 37.4688 62.8219 37.4281 62.8414 37.4053C62.861 37.3792 62.8837 37.3564 62.9098 37.3369C62.9358 37.3174 62.9602 37.2995 62.983 37.2832C63.0091 37.2669 63.04 37.2441 63.0758 37.2148C63.4013 36.9186 63.5641 36.6501 63.5641 36.4092C63.5641 36.2692 63.5039 36.1992 63.3834 36.1992C63.0579 36.1992 62.8414 36.0967 62.734 35.8916C62.6949 35.8167 62.6754 35.7126 62.6754 35.5791C62.6754 35.4456 62.734 35.3252 62.8512 35.2178C62.9716 35.1104 63.1002 35.0566 63.2369 35.0566C63.4908 35.0566 63.6862 35.1576 63.8229 35.3594C63.9628 35.5579 64.0328 35.7565 64.0328 35.9551ZM67.6168 41.1357C67.6168 41.2204 67.6559 41.2887 67.734 41.3408C67.8154 41.3896 67.9082 41.4141 68.0123 41.4141C68.1165 41.4141 68.2028 41.388 68.2711 41.3359C68.3427 41.2806 68.3916 41.2529 68.4176 41.2529C68.4436 41.2529 68.4567 41.2887 68.4567 41.3604C68.4567 41.4287 68.4241 41.4873 68.359 41.5361C67.8707 41.8942 67.5403 42.0732 67.3678 42.0732C67.1595 42.0732 66.9902 41.8568 66.86 41.4238C66.8502 41.3913 66.8421 41.3766 66.8356 41.3799C66.4319 41.6826 66.178 41.8649 66.0739 41.9268C65.8069 42.0798 65.5384 42.1042 65.2682 42C65.0013 41.8958 64.8076 41.7233 64.6871 41.4824C64.6285 41.3587 64.5992 41.2269 64.5992 41.0869C64.5992 40.8102 64.7018 40.5905 64.9069 40.4277C65.1119 40.265 65.5026 40.1087 66.0787 39.959C66.274 39.9069 66.4482 39.8402 66.6012 39.7588C66.7542 39.6774 66.8339 39.6253 66.8405 39.6025C66.8502 39.5798 66.8551 39.5586 66.8551 39.5391V38.6016C66.8551 38.2337 66.7119 37.9749 66.4254 37.8252C66.331 37.7764 66.2171 37.752 66.0836 37.752C65.9534 37.752 65.8199 37.804 65.6832 37.9082C65.5498 38.0124 65.483 38.1605 65.483 38.3525L65.5074 38.543C65.4879 38.582 65.3707 38.6471 65.1559 38.7383C64.941 38.8294 64.8173 38.8783 64.7848 38.8848C64.7327 38.8848 64.7067 38.8229 64.7067 38.6992C64.7067 38.5723 64.7441 38.4323 64.819 38.2793C64.8938 38.1263 64.9996 37.9863 65.1364 37.8594C65.4554 37.5632 65.8199 37.415 66.2301 37.415C66.6403 37.415 66.9739 37.529 67.2311 37.7568C67.4882 37.9814 67.6168 38.25 67.6168 38.5625V41.1357ZM65.3658 40.9941C65.3658 41.1504 65.4261 41.2871 65.5465 41.4043C65.667 41.5182 65.8037 41.5752 65.9567 41.5752C66.1129 41.5752 66.3017 41.5101 66.5231 41.3799C66.7444 41.2464 66.8551 41.1097 66.8551 40.9697V39.9785C66.8551 39.9427 66.847 39.9248 66.8307 39.9248C66.8144 39.9248 66.803 39.9264 66.7965 39.9297L65.6637 40.457C65.5465 40.5417 65.4668 40.6133 65.4244 40.6719C65.3854 40.7305 65.3658 40.8379 65.3658 40.9941ZM71.8942 38.4404C71.8551 38.4339 71.7981 38.4128 71.7233 38.377C71.4531 38.2533 71.2415 38.1914 71.0885 38.1914C70.9355 38.1914 70.7744 38.2874 70.6051 38.4795C70.4391 38.6683 70.3561 38.8392 70.3561 38.9922V41.1992C70.3561 41.4434 70.4977 41.6061 70.7809 41.6875C70.9046 41.7201 71.0201 41.7445 71.1276 41.7607C71.235 41.7738 71.3033 41.7868 71.3326 41.7998C71.3652 41.8128 71.3815 41.8389 71.3815 41.8779C71.3815 41.9137 71.3652 41.9349 71.3326 41.9414H68.8864C68.8538 41.9349 68.8375 41.9121 68.8375 41.873C68.8375 41.8145 68.914 41.7754 69.067 41.7559C69.4186 41.7038 69.5944 41.5182 69.5944 41.1992V38.6162C69.5944 38.4795 69.5195 38.3851 69.3698 38.333C69.3046 38.3102 69.2347 38.2923 69.1598 38.2793C69.0849 38.263 69.0247 38.2484 68.9791 38.2354C68.9368 38.2223 68.9091 38.2109 68.8961 38.2012C68.8864 38.1882 68.8815 38.1637 68.8815 38.1279C68.8815 38.0889 68.9059 38.0563 68.9547 38.0303L70.1998 37.4443C70.2389 37.4248 70.2633 37.415 70.2731 37.415C70.3284 37.415 70.3561 37.4541 70.3561 37.5322V38.3232C70.3561 38.3623 70.3658 38.3818 70.3854 38.3818C70.4114 38.3818 70.4781 38.3053 70.5856 38.1523C70.8948 37.7194 71.1503 37.5029 71.3522 37.5029C71.4661 37.5029 71.6403 37.5485 71.8746 37.6396C72.1123 37.7308 72.2311 37.8073 72.2311 37.8691C72.2311 37.944 72.1936 38.0579 72.1188 38.2109C72.0439 38.3639 71.969 38.4404 71.8942 38.4404ZM76.4108 38.001C76.4108 38.2288 76.2789 38.3428 76.0153 38.3428C75.8818 38.3428 75.7679 38.3053 75.6735 38.2305C75.5823 38.1523 75.5107 38.0872 75.4586 38.0352C75.4098 37.9798 75.3577 37.9294 75.3024 37.8838C75.068 37.6917 74.7815 37.6706 74.443 37.8203C74.1077 37.9701 73.8489 38.2891 73.6666 38.7773C73.5657 39.0475 73.5153 39.3161 73.5153 39.583C73.5153 40.1559 73.6455 40.6247 73.9059 40.9893C74.1663 41.3506 74.5651 41.5312 75.1022 41.5312C75.5026 41.5312 75.8623 41.3522 76.1813 40.9941C76.2789 40.8867 76.3375 40.833 76.3571 40.833C76.3766 40.833 76.3977 40.8428 76.4205 40.8623C76.4433 40.8818 76.4547 40.9111 76.4547 40.9502C76.4547 40.986 76.4449 41.0137 76.4254 41.0332C75.9274 41.7266 75.3007 42.0732 74.5455 42.0732C73.9987 42.0732 73.5494 41.8698 73.1979 41.4629C72.8496 41.056 72.6754 40.5905 72.6754 40.0664C72.6787 39.0964 72.913 38.3981 73.3785 37.9717C73.7887 37.5973 74.373 37.4102 75.1315 37.4102C75.6002 37.4102 75.9111 37.4574 76.0641 37.5518C76.2171 37.6462 76.3245 37.765 76.3864 37.9082C76.4026 37.9408 76.4108 37.9717 76.4108 38.001ZM82.8365 37.6201C82.9798 37.6689 83.0677 37.6934 83.1002 37.6934C83.1328 37.6934 83.1523 37.6934 83.1588 37.6934C83.1686 37.6901 83.18 37.6689 83.193 37.6299V35.1104C83.193 34.9736 83.1181 34.8792 82.9684 34.8271C82.9033 34.8044 82.8333 34.7865 82.7584 34.7734C82.6836 34.7572 82.6233 34.7425 82.5778 34.7295C82.5354 34.7165 82.5078 34.7051 82.4948 34.6953C82.485 34.6823 82.4801 34.6579 82.4801 34.6221C82.4801 34.583 82.5045 34.5505 82.5533 34.5244L83.7985 33.9385C83.8375 33.9189 83.8619 33.9092 83.8717 33.9092C83.927 33.9092 83.9547 33.9482 83.9547 34.0264V40.9795C83.971 41.1227 84.0117 41.2253 84.0768 41.2871C84.1419 41.349 84.2477 41.3799 84.3942 41.3799L84.6774 41.3604C84.6969 41.3604 84.7067 41.3799 84.7067 41.4189C84.7067 41.4548 84.6823 41.484 84.6334 41.5068L83.3346 42.0439C83.2955 42.0635 83.2614 42.0732 83.2321 42.0732C83.206 42.0732 83.193 42.0326 83.193 41.9512V41.5068C83.193 41.4743 83.1849 41.458 83.1686 41.458C83.1458 41.458 83.0107 41.5312 82.7633 41.6777C82.0048 42.127 81.3652 42.1937 80.8444 41.8779C80.4277 41.624 80.1461 41.222 79.9996 40.6719C79.9313 40.4147 79.8971 40.1429 79.8971 39.8564C79.8971 39.5667 79.9557 39.2803 80.0729 38.9971C80.1933 38.7106 80.3577 38.46 80.566 38.2451C81.025 37.7764 81.5784 37.542 82.2262 37.542C82.4899 37.542 82.6933 37.568 82.8365 37.6201ZM80.6344 39.7148C80.6344 40.2064 80.7711 40.6377 81.0446 41.0088C81.318 41.3766 81.6989 41.5605 82.1871 41.5605C82.402 41.5605 82.6233 41.5085 82.8512 41.4043C83.0791 41.2969 83.193 41.2155 83.193 41.1602V38.6406C83.193 38.5788 83.1507 38.5055 83.066 38.4209C82.8056 38.0628 82.4589 37.8838 82.026 37.8838C81.5963 37.8838 81.2561 38.0661 81.0055 38.4307C80.7581 38.792 80.6344 39.2201 80.6344 39.7148ZM88.486 41.5117C88.4697 41.4564 88.4485 41.4385 88.4225 41.458C88.3964 41.4743 88.2906 41.5296 88.1051 41.624C87.4964 41.9268 86.9886 42.0781 86.5817 42.0781C86.1748 42.0781 85.8818 41.9479 85.7028 41.6875C85.6377 41.5898 85.6051 41.4694 85.6051 41.3262V38.3477C85.5953 38.2533 85.553 38.1719 85.4781 38.1035C85.3772 38.0189 85.2714 37.9733 85.1608 37.9668C85.0533 37.9603 84.9996 37.9277 84.9996 37.8691C84.9996 37.8073 85.0257 37.7699 85.0778 37.7568L86.1959 37.4346C86.235 37.4215 86.2724 37.415 86.3082 37.415C86.3473 37.415 86.3668 37.4427 86.3668 37.498V40.7744C86.3668 41.0023 86.4677 41.1781 86.6696 41.3018C86.8714 41.4255 87.1285 41.4873 87.441 41.4873C87.7568 41.4873 88.04 41.3913 88.2906 41.1992C88.3688 41.1374 88.4339 41.069 88.486 40.9941V38.3477C88.4762 38.2533 88.4339 38.1719 88.359 38.1035C88.2581 38.0189 88.1523 37.9733 88.0416 37.9668C87.9342 37.9603 87.8805 37.9277 87.8805 37.8691C87.8805 37.8073 87.9065 37.7699 87.9586 37.7568L89.0768 37.4346C89.1158 37.4215 89.1533 37.415 89.1891 37.415C89.2281 37.415 89.2477 37.4476 89.2477 37.5127V40.9795C89.264 41.1227 89.3046 41.2253 89.3698 41.2871C89.4349 41.349 89.5406 41.3799 89.6871 41.3799L89.9703 41.3604C89.9899 41.3604 89.9996 41.3799 89.9996 41.4189C89.9996 41.4548 89.9752 41.484 89.9264 41.5068L88.6276 42.0439C88.5885 42.0635 88.5543 42.0732 88.525 42.0732C88.499 42.0732 88.486 42.0326 88.486 41.9512V41.5117ZM97.0992 35.1152C97.1318 35.1152 97.1481 35.151 97.1481 35.2227L97.275 36.2627C97.288 36.3278 97.2946 36.3701 97.2946 36.3896C97.2946 36.4059 97.2685 36.4141 97.2164 36.4141C97.1676 36.4141 97.1367 36.4076 97.1237 36.3945C97.1106 36.3815 97.0976 36.3604 97.0846 36.3311C97.0716 36.2985 97.0553 36.2627 97.0358 36.2236C97.0195 36.1846 97.0016 36.1455 96.9821 36.1064C96.9137 35.9567 96.8063 35.8086 96.6598 35.6621C96.3017 35.3171 95.8981 35.1445 95.4489 35.1445C95.1787 35.1445 94.9231 35.2324 94.6823 35.4082C94.4414 35.584 94.3209 35.7923 94.3209 36.0332C94.3209 36.2708 94.3649 36.4775 94.4528 36.6533C94.5439 36.8291 94.6627 36.9919 94.8092 37.1416C94.9557 37.2913 95.1233 37.4346 95.3121 37.5713C95.5009 37.708 95.693 37.8464 95.8883 37.9863C96.4059 38.3477 96.7737 38.6569 96.9918 38.9141C97.3336 39.3112 97.5192 39.7572 97.5485 40.252C97.5485 40.8053 97.3352 41.248 96.9088 41.5801C96.4856 41.9089 95.9925 42.0732 95.4293 42.0732C95.068 42.0732 94.7799 42.0358 94.5651 41.9609C94.3535 41.8893 94.207 41.8372 94.1256 41.8047C94.0442 41.7721 93.984 41.7559 93.9449 41.7559C93.9091 41.7559 93.8864 41.7575 93.8766 41.7607L93.6373 41.8096C93.595 41.8096 93.569 41.7754 93.5592 41.707C93.4648 40.8997 93.4176 40.4717 93.4176 40.4229C93.4176 40.3708 93.4209 40.3366 93.4274 40.3203C93.4371 40.3008 93.4599 40.291 93.4957 40.291C93.5869 40.291 93.6699 40.4212 93.7448 40.6816C94.0865 41.4141 94.6546 41.7803 95.4489 41.7803C95.8134 41.7803 96.1243 41.6696 96.3815 41.4482C96.6419 41.2269 96.7721 40.9388 96.7721 40.584C96.7721 40.0176 96.4336 39.4902 95.7565 39.002C95.5644 38.8652 95.2877 38.6748 94.9264 38.4307C94.5651 38.1865 94.277 37.9424 94.0621 37.6982C93.7268 37.3206 93.5592 36.9007 93.5592 36.4385C93.5592 35.973 93.7431 35.5921 94.111 35.2959C94.4821 34.9997 94.9069 34.8516 95.3854 34.8516C95.6328 34.8516 95.9046 34.8939 96.2008 34.9785C96.5003 35.0632 96.7086 35.1201 96.8258 35.1494L97.0992 35.1152ZM101.347 41.1357C101.347 41.2204 101.386 41.2887 101.464 41.3408C101.546 41.3896 101.639 41.4141 101.743 41.4141C101.847 41.4141 101.933 41.388 102.002 41.3359C102.073 41.2806 102.122 41.2529 102.148 41.2529C102.174 41.2529 102.187 41.2887 102.187 41.3604C102.187 41.4287 102.155 41.4873 102.089 41.5361C101.601 41.8942 101.271 42.0732 101.098 42.0732C100.89 42.0732 100.721 41.8568 100.59 41.4238C100.581 41.3913 100.573 41.3766 100.566 41.3799C100.162 41.6826 99.9085 41.8649 99.8043 41.9268C99.5374 42.0798 99.2688 42.1042 98.9987 42C98.7317 41.8958 98.538 41.7233 98.4176 41.4824C98.359 41.3587 98.3297 41.2269 98.3297 41.0869C98.3297 40.8102 98.4323 40.5905 98.6373 40.4277C98.8424 40.265 99.233 40.1087 99.8092 39.959C100.005 39.9069 100.179 39.8402 100.332 39.7588C100.485 39.6774 100.564 39.6253 100.571 39.6025C100.581 39.5798 100.586 39.5586 100.586 39.5391V38.6016C100.586 38.2337 100.442 37.9749 100.156 37.8252C100.061 37.7764 99.9476 37.752 99.8141 37.752C99.6839 37.752 99.5504 37.804 99.4137 37.9082C99.2802 38.0124 99.2135 38.1605 99.2135 38.3525L99.2379 38.543C99.2184 38.582 99.1012 38.6471 98.8864 38.7383C98.6715 38.8294 98.5478 38.8783 98.5153 38.8848C98.4632 38.8848 98.4371 38.8229 98.4371 38.6992C98.4371 38.5723 98.4746 38.4323 98.5494 38.2793C98.6243 38.1263 98.7301 37.9863 98.8668 37.8594C99.1858 37.5632 99.5504 37.415 99.9606 37.415C100.371 37.415 100.704 37.529 100.962 37.7568C101.219 37.9814 101.347 38.25 101.347 38.5625V41.1357ZM99.0963 40.9941C99.0963 41.1504 99.1565 41.2871 99.277 41.4043C99.3974 41.5182 99.5341 41.5752 99.6871 41.5752C99.8434 41.5752 100.032 41.5101 100.254 41.3799C100.475 41.2464 100.586 41.1097 100.586 40.9697V39.9785C100.586 39.9427 100.577 39.9248 100.561 39.9248C100.545 39.9248 100.533 39.9264 100.527 39.9297L99.3942 40.457C99.277 40.5417 99.1972 40.6133 99.1549 40.6719C99.1158 40.7305 99.0963 40.8379 99.0963 40.9941ZM106.313 37.8838C106.313 37.8838 106.749 37.8643 107.622 37.8252C107.697 37.8252 107.745 37.8333 107.768 37.8496C107.791 37.8659 107.815 37.9229 107.841 38.0205C107.867 38.1149 107.88 38.2044 107.88 38.2891C107.88 38.3737 107.872 38.4225 107.856 38.4355C107.84 38.4486 107.807 38.4551 107.758 38.4551H106.674C106.694 38.4909 106.715 38.5283 106.738 38.5674C106.761 38.6064 106.79 38.6715 106.826 38.7627C106.862 38.8538 106.88 38.9954 106.88 39.1875C106.88 39.3763 106.832 39.5749 106.738 39.7832C106.647 39.9883 106.512 40.1706 106.333 40.3301C105.936 40.6882 105.421 40.8672 104.79 40.8672C104.624 40.8672 104.441 40.8363 104.243 40.7744C104.194 40.8265 104.129 40.8753 104.047 40.9209C103.966 40.9632 103.886 41.0072 103.808 41.0527C103.613 41.1634 103.515 41.2741 103.515 41.3848C103.515 41.6615 103.974 41.8031 104.892 41.8096C105.81 41.8161 106.412 41.847 106.699 41.9023C106.989 41.9544 107.213 42.0602 107.373 42.2197C107.623 42.4704 107.749 42.7568 107.749 43.0791C107.749 43.3558 107.63 43.6406 107.392 43.9336C106.979 44.4512 106.347 44.7962 105.498 44.9688C105.195 45.0306 104.874 45.0615 104.536 45.0615C103.921 45.0615 103.453 44.9492 103.134 44.7246C102.815 44.5033 102.656 44.2347 102.656 43.9189C102.656 43.7464 102.697 43.6032 102.778 43.4893C102.859 43.3786 102.962 43.2728 103.086 43.1719C103.213 43.0742 103.351 42.9701 103.501 42.8594C103.65 42.752 103.794 42.6136 103.93 42.4443C103.618 42.4183 103.349 42.319 103.125 42.1465C102.903 41.974 102.793 41.8047 102.793 41.6387C102.793 41.4727 102.837 41.3506 102.924 41.2725C103.012 41.1911 103.12 41.1227 103.247 41.0674C103.374 41.0088 103.507 40.9551 103.647 40.9062C103.787 40.8574 103.909 40.7939 104.013 40.7158C103.649 40.5726 103.367 40.3757 103.169 40.125C102.97 39.8711 102.871 39.5944 102.871 39.2949C102.871 38.7383 103.073 38.2842 103.476 37.9326C103.883 37.5811 104.373 37.4053 104.946 37.4053C105.519 37.4053 105.975 37.5648 106.313 37.8838ZM103.657 42.9766C103.582 43.0514 103.52 43.1312 103.471 43.2158C103.422 43.3005 103.398 43.4062 103.398 43.5332C103.398 43.6634 103.444 43.7985 103.535 43.9385C103.629 44.0817 103.756 44.2103 103.916 44.3242C104.267 44.5846 104.69 44.7148 105.185 44.7148C105.68 44.7148 106.128 44.57 106.528 44.2803C106.932 43.9938 107.133 43.6781 107.133 43.333C107.133 42.9912 106.967 42.7617 106.635 42.6445C106.479 42.5924 106.077 42.5599 105.429 42.5469C104.782 42.5339 104.362 42.516 104.17 42.4932C104.085 42.5908 103.997 42.6771 103.906 42.752C103.818 42.8268 103.735 42.9017 103.657 42.9766ZM106.079 39.1826C106.079 38.7236 105.963 38.3509 105.732 38.0645C105.504 37.7747 105.201 37.6299 104.824 37.6299C104.336 37.6299 103.991 37.8594 103.789 38.3184C103.711 38.4941 103.672 38.696 103.672 38.9238C103.672 39.3893 103.768 39.7767 103.96 40.0859C104.194 40.457 104.502 40.6426 104.882 40.6426C105.263 40.6426 105.558 40.514 105.766 40.2568C105.975 39.9997 106.079 39.6416 106.079 39.1826ZM108.261 41.9414C108.229 41.9349 108.213 41.9121 108.213 41.873C108.213 41.8145 108.289 41.7754 108.442 41.7559C108.794 41.7038 108.969 41.5182 108.969 41.1992V38.6162C108.969 38.4795 108.894 38.3851 108.745 38.333C108.68 38.3102 108.61 38.2923 108.535 38.2793C108.46 38.263 108.4 38.2484 108.354 38.2354C108.312 38.2223 108.284 38.2109 108.271 38.2012C108.261 38.1882 108.256 38.1637 108.256 38.1279C108.256 38.0889 108.281 38.0563 108.33 38.0303L109.575 37.4443C109.614 37.4248 109.638 37.415 109.648 37.415C109.703 37.415 109.731 37.4541 109.731 37.5322V41.1992C109.731 41.5182 109.907 41.7038 110.258 41.7559C110.411 41.7754 110.488 41.8096 110.488 41.8584C110.488 41.9072 110.472 41.9349 110.439 41.9414H108.261ZM109.277 36.043C109.144 36.043 109.025 36.0007 108.921 35.916C108.82 35.8314 108.769 35.7142 108.769 35.5645C108.769 35.4115 108.818 35.291 108.916 35.2031C109.013 35.1152 109.129 35.0713 109.262 35.0713C109.399 35.0713 109.513 35.1234 109.604 35.2275C109.699 35.3317 109.746 35.444 109.746 35.5645C109.746 35.6849 109.702 35.7956 109.614 35.8965C109.526 35.9941 109.414 36.043 109.277 36.043ZM112.26 38.1865C112.241 38.1865 112.231 38.2012 112.231 38.2305V40.9258C112.231 41.1211 112.273 41.2741 112.358 41.3848C112.446 41.4954 112.557 41.5508 112.69 41.5508C112.824 41.5508 112.939 41.5296 113.037 41.4873C113.138 41.4417 113.224 41.3929 113.296 41.3408C113.37 41.2887 113.437 41.2415 113.496 41.1992C113.554 41.1536 113.606 41.1309 113.652 41.1309C113.698 41.1309 113.72 41.1423 113.72 41.165C113.72 41.2432 113.712 41.2936 113.696 41.3164C113.305 41.821 112.928 42.0732 112.563 42.0732C112.202 42.0732 111.928 41.9593 111.743 41.7314C111.561 41.5003 111.469 41.2253 111.469 40.9062V38.1865H111.103C111.012 38.1865 110.963 38.1572 110.957 38.0986C110.953 38.04 110.963 38.0026 110.986 37.9863C111.158 37.8757 111.396 37.6771 111.699 37.3906C111.731 37.3548 111.775 37.3011 111.831 37.2295C111.886 37.1579 111.966 37.0602 112.07 36.9365C112.177 36.8128 112.259 36.751 112.314 36.751C112.369 36.751 112.397 36.7738 112.397 36.8193C112.397 36.8258 112.342 37.0391 112.231 37.459C112.231 37.5176 112.257 37.5485 112.309 37.5518H113.554C113.698 37.5518 113.769 37.7536 113.769 38.1572C113.769 38.1768 113.756 38.1865 113.73 38.1865H112.26ZM115.424 38.1865C115.405 38.1865 115.395 38.2012 115.395 38.2305V40.9258C115.395 41.1211 115.437 41.2741 115.522 41.3848C115.61 41.4954 115.721 41.5508 115.854 41.5508C115.988 41.5508 116.103 41.5296 116.201 41.4873C116.302 41.4417 116.388 41.3929 116.46 41.3408C116.534 41.2887 116.601 41.2415 116.66 41.1992C116.718 41.1536 116.77 41.1309 116.816 41.1309C116.862 41.1309 116.884 41.1423 116.884 41.165C116.884 41.2432 116.876 41.2936 116.86 41.3164C116.469 41.821 116.092 42.0732 115.727 42.0732C115.366 42.0732 115.092 41.9593 114.907 41.7314C114.725 41.5003 114.633 41.2253 114.633 40.9062V38.1865H114.267C114.176 38.1865 114.127 38.1572 114.121 38.0986C114.117 38.04 114.127 38.0026 114.15 37.9863C114.323 37.8757 114.56 37.6771 114.863 37.3906C114.895 37.3548 114.939 37.3011 114.995 37.2295C115.05 37.1579 115.13 37.0602 115.234 36.9365C115.341 36.8128 115.423 36.751 115.478 36.751C115.533 36.751 115.561 36.7738 115.561 36.8193C115.561 36.8258 115.506 37.0391 115.395 37.459C115.395 37.5176 115.421 37.5485 115.473 37.5518H116.718C116.862 37.5518 116.933 37.7536 116.933 38.1572C116.933 38.1768 116.92 38.1865 116.894 38.1865H115.424ZM120.42 41.1357C120.42 41.2204 120.459 41.2887 120.537 41.3408C120.618 41.3896 120.711 41.4141 120.815 41.4141C120.919 41.4141 121.005 41.388 121.074 41.3359C121.145 41.2806 121.194 41.2529 121.22 41.2529C121.246 41.2529 121.259 41.2887 121.259 41.3604C121.259 41.4287 121.227 41.4873 121.162 41.5361C120.673 41.8942 120.343 42.0732 120.171 42.0732C119.962 42.0732 119.793 41.8568 119.663 41.4238C119.653 41.3913 119.645 41.3766 119.638 41.3799C119.235 41.6826 118.981 41.8649 118.877 41.9268C118.61 42.0798 118.341 42.1042 118.071 42C117.804 41.8958 117.61 41.7233 117.49 41.4824C117.431 41.3587 117.402 41.2269 117.402 41.0869C117.402 40.8102 117.505 40.5905 117.71 40.4277C117.915 40.265 118.305 40.1087 118.881 39.959C119.077 39.9069 119.251 39.8402 119.404 39.7588C119.557 39.6774 119.637 39.6253 119.643 39.6025C119.653 39.5798 119.658 39.5586 119.658 39.5391V38.6016C119.658 38.2337 119.515 37.9749 119.228 37.8252C119.134 37.7764 119.02 37.752 118.886 37.752C118.756 37.752 118.623 37.804 118.486 37.9082C118.352 38.0124 118.286 38.1605 118.286 38.3525L118.31 38.543C118.291 38.582 118.173 38.6471 117.959 38.7383C117.744 38.8294 117.62 38.8783 117.588 38.8848C117.535 38.8848 117.509 38.8229 117.509 38.6992C117.509 38.5723 117.547 38.4323 117.622 38.2793C117.697 38.1263 117.802 37.9863 117.939 37.8594C118.258 37.5632 118.623 37.415 119.033 37.415C119.443 37.415 119.777 37.529 120.034 37.7568C120.291 37.9814 120.42 38.25 120.42 38.5625V41.1357ZM118.169 40.9941C118.169 41.1504 118.229 41.2871 118.349 41.4043C118.47 41.5182 118.606 41.5752 118.759 41.5752C118.916 41.5752 119.104 41.5101 119.326 41.3799C119.547 41.2464 119.658 41.1097 119.658 40.9697V39.9785C119.658 39.9427 119.65 39.9248 119.633 39.9248C119.617 39.9248 119.606 39.9264 119.599 39.9297L118.466 40.457C118.349 40.5417 118.269 40.6133 118.227 40.6719C118.188 40.7305 118.169 40.8379 118.169 40.9941ZM121.728 41.9414C121.696 41.9349 121.679 41.9121 121.679 41.873C121.679 41.8145 121.756 41.7754 121.909 41.7559C122.26 41.7038 122.436 41.5182 122.436 41.1992V38.6162C122.436 38.4795 122.361 38.3851 122.212 38.333C122.146 38.3102 122.076 38.2923 122.002 38.2793C121.927 38.263 121.866 38.2484 121.821 38.2354C121.779 38.2223 121.751 38.2109 121.738 38.2012C121.728 38.1882 121.723 38.1637 121.723 38.1279C121.723 38.0889 121.748 38.0563 121.797 38.0303L123.042 37.4443C123.081 37.4248 123.105 37.415 123.115 37.415C123.17 37.415 123.198 37.4541 123.198 37.5322V41.1992C123.198 41.5182 123.374 41.7038 123.725 41.7559C123.878 41.7754 123.955 41.8096 123.955 41.8584C123.955 41.9072 123.938 41.9349 123.906 41.9414H121.728ZM122.744 36.043C122.61 36.043 122.491 36.0007 122.387 35.916C122.286 35.8314 122.236 35.7142 122.236 35.5645C122.236 35.4115 122.285 35.291 122.382 35.2031C122.48 35.1152 122.596 35.0713 122.729 35.0713C122.866 35.0713 122.98 35.1234 123.071 35.2275C123.165 35.3317 123.213 35.444 123.213 35.5645C123.213 35.6849 123.169 35.7956 123.081 35.8965C122.993 35.9941 122.88 36.043 122.744 36.043ZM127.509 38.4404C127.47 38.4339 127.413 38.4128 127.339 38.377C127.068 38.2533 126.857 38.1914 126.704 38.1914C126.551 38.1914 126.39 38.2874 126.22 38.4795C126.054 38.6683 125.971 38.8392 125.971 38.9922V41.1992C125.971 41.4434 126.113 41.6061 126.396 41.6875C126.52 41.7201 126.635 41.7445 126.743 41.7607C126.85 41.7738 126.919 41.7868 126.948 41.7998C126.98 41.8128 126.997 41.8389 126.997 41.8779C126.997 41.9137 126.98 41.9349 126.948 41.9414H124.502C124.469 41.9349 124.453 41.9121 124.453 41.873C124.453 41.8145 124.529 41.7754 124.682 41.7559C125.034 41.7038 125.21 41.5182 125.21 41.1992V38.6162C125.21 38.4795 125.135 38.3851 124.985 38.333C124.92 38.3102 124.85 38.2923 124.775 38.2793C124.7 38.263 124.64 38.2484 124.594 38.2354C124.552 38.2223 124.524 38.2109 124.511 38.2012C124.502 38.1882 124.497 38.1637 124.497 38.1279C124.497 38.0889 124.521 38.0563 124.57 38.0303L125.815 37.4443C125.854 37.4248 125.879 37.415 125.888 37.415C125.944 37.415 125.971 37.4541 125.971 37.5322V38.3232C125.971 38.3623 125.981 38.3818 126.001 38.3818C126.027 38.3818 126.093 38.3053 126.201 38.1523C126.51 37.7194 126.766 37.5029 126.967 37.5029C127.081 37.5029 127.255 37.5485 127.49 37.6396C127.727 37.7308 127.846 37.8073 127.846 37.8691C127.846 37.944 127.809 38.0579 127.734 38.2109C127.659 38.3639 127.584 38.4404 127.509 38.4404ZM128.979 39.3682C128.924 39.3682 128.896 39.487 128.896 39.7246C128.896 40.2292 129.046 40.6523 129.345 40.9941C129.645 41.3359 130.016 41.5068 130.459 41.5068C130.905 41.5068 131.333 41.3148 131.743 40.9307C131.749 40.9242 131.757 40.9209 131.767 40.9209H131.792C131.811 40.9209 131.829 40.9372 131.845 40.9697C131.865 40.999 131.883 41.0186 131.899 41.0283C131.521 41.4873 131.077 41.8047 130.566 41.9805C130.39 42.0423 130.192 42.0732 129.97 42.0732C129.749 42.0732 129.524 42.013 129.297 41.8926C129.069 41.7689 128.873 41.6077 128.711 41.4092C128.366 40.9958 128.193 40.4814 128.193 39.8662C128.193 39.2477 128.38 38.6846 128.755 38.1768C129.132 37.6689 129.65 37.415 130.307 37.415C130.779 37.415 131.165 37.6266 131.464 38.0498C131.764 38.4697 131.914 38.8392 131.914 39.1582C131.914 39.2982 131.88 39.3682 131.811 39.3682H128.979ZM129.033 38.8994C129.033 38.9613 129.062 38.9922 129.121 38.9922H130.962C131.046 38.9922 131.089 38.9417 131.089 38.8408C131.089 38.6064 130.983 38.3672 130.771 38.123C130.563 37.8757 130.333 37.752 130.083 37.752C129.839 37.752 129.616 37.8626 129.414 38.084C129.215 38.3053 129.088 38.5576 129.033 38.8408V38.8994ZM136.494 40.1299C136.494 40.1722 136.46 40.1934 136.391 40.1934C136.323 40.1934 136.219 40.0387 136.079 39.7295C135.942 39.4202 135.872 39.1924 135.869 39.0459C135.866 38.8994 135.882 38.7773 135.918 38.6797C135.957 38.5788 136.009 38.4941 136.074 38.4258C136.139 38.3542 136.215 38.2939 136.303 38.2451C136.391 38.1963 136.484 38.1523 136.582 38.1133C136.679 38.0742 136.78 38.0384 136.884 38.0059C136.992 37.9701 137.096 37.931 137.197 37.8887C137.418 37.7975 137.614 37.6478 137.783 37.4395C137.952 37.2279 138.037 37.013 138.037 36.7949C138.037 36.3978 137.887 36.1374 137.588 36.0137C137.288 35.8867 136.774 35.8232 136.045 35.8232C135.817 35.8102 135.657 35.7435 135.566 35.623C135.533 35.5775 135.517 35.5205 135.517 35.4521C135.517 35.1722 135.792 35.0322 136.342 35.0322C136.896 35.0322 137.355 35.2113 137.719 35.5693C138.084 35.9274 138.266 36.3864 138.266 36.9463C138.266 37.5029 138.032 37.9782 137.563 38.3721C137.342 38.5576 137.137 38.6813 136.948 38.7432C136.759 38.8018 136.619 38.8555 136.528 38.9043C136.313 39.015 136.206 39.168 136.206 39.3633C136.206 39.4642 136.246 39.5944 136.328 39.7539C136.412 39.9134 136.468 40.0387 136.494 40.1299ZM135.825 41.502C135.825 41.349 135.88 41.2171 135.991 41.1064C136.102 40.9958 136.233 40.9404 136.386 40.9404C136.536 40.9404 136.666 40.9958 136.777 41.1064C136.888 41.2171 136.943 41.349 136.943 41.502C136.943 41.6549 136.888 41.7884 136.777 41.9023C136.67 42.0163 136.539 42.0732 136.386 42.0732C136.23 42.0732 136.097 42.0163 135.986 41.9023C135.879 41.7884 135.825 41.6549 135.825 41.502ZM17.6266 56.0488C17.1123 56.0033 16.6386 55.8714 16.2057 55.6533C15.7727 55.432 15.4098 55.1667 15.1168 54.8574C14.4918 54.1966 14.1793 53.4072 14.1793 52.4893C14.1793 51.4313 14.5406 50.5622 15.2633 49.8818C15.9892 49.2015 16.8925 48.8613 17.9733 48.8613C19.054 48.8613 19.9492 49.1966 20.6588 49.8672C21.3717 50.5378 21.7281 51.3955 21.7281 52.4404C21.7281 53.6839 21.095 54.7256 19.8287 55.5654C19.7994 55.585 19.6741 55.6484 19.4528 55.7559C19.2347 55.8633 19.1256 55.9251 19.1256 55.9414C19.1256 55.9544 19.2265 56.0293 19.4283 56.166C19.6334 56.306 20.0664 56.6429 20.7272 57.1768C21.1243 57.4958 21.4319 57.6764 21.65 57.7188C21.8681 57.7643 21.9772 57.8083 21.9772 57.8506C21.9772 57.932 21.9251 57.9824 21.8209 58.002C21.7168 58.0215 21.5589 58.0312 21.3473 58.0312C20.9795 58.0312 20.5726 57.9108 20.1266 57.6699C19.3421 57.1523 18.8147 56.765 18.5446 56.5078C18.2744 56.2507 18.0367 56.1058 17.8317 56.0732C17.7698 56.0635 17.7015 56.0553 17.6266 56.0488ZM15.903 50.1113C15.6751 50.3913 15.4993 50.7201 15.3756 51.0977C15.2552 51.472 15.1966 51.8366 15.1998 52.1914C15.2063 52.8327 15.3349 53.4186 15.5856 53.9492C15.8362 54.4766 16.1862 54.903 16.6354 55.2285C17.0878 55.5508 17.6103 55.7119 18.2028 55.7119C18.9287 55.7119 19.5325 55.4287 20.0143 54.8623C20.4961 54.2926 20.7369 53.5472 20.7369 52.626C20.7369 51.7048 20.5009 50.9316 20.0289 50.3066C19.5048 49.6165 18.7724 49.2438 17.8317 49.1885C17.0439 49.1885 16.401 49.4961 15.903 50.1113ZM25.9567 55.5117C25.9404 55.4564 25.9192 55.4385 25.8932 55.458C25.8671 55.4743 25.7614 55.5296 25.5758 55.624C24.9671 55.9268 24.4593 56.0781 24.0524 56.0781C23.6455 56.0781 23.3525 55.9479 23.1735 55.6875C23.1084 55.5898 23.0758 55.4694 23.0758 55.3262V52.3477C23.066 52.2533 23.0237 52.1719 22.9489 52.1035C22.8479 52.0189 22.7421 51.9733 22.6315 51.9668C22.524 51.9603 22.4703 51.9277 22.4703 51.8691C22.4703 51.8073 22.4964 51.7699 22.5485 51.7568L23.6666 51.4346C23.7057 51.4215 23.7431 51.415 23.7789 51.415C23.818 51.415 23.8375 51.4427 23.8375 51.498V54.7744C23.8375 55.0023 23.9384 55.1781 24.1403 55.3018C24.3421 55.4255 24.5992 55.4873 24.9117 55.4873C25.2275 55.4873 25.5107 55.3913 25.7614 55.1992C25.8395 55.1374 25.9046 55.069 25.9567 54.9941V52.3477C25.9469 52.2533 25.9046 52.1719 25.8297 52.1035C25.7288 52.0189 25.623 51.9733 25.5123 51.9668C25.4049 51.9603 25.3512 51.9277 25.3512 51.8691C25.3512 51.8073 25.3772 51.7699 25.4293 51.7568L26.5475 51.4346C26.5865 51.4215 26.624 51.415 26.6598 51.415C26.6989 51.415 26.7184 51.4476 26.7184 51.5127V54.9795C26.7347 55.1227 26.7753 55.2253 26.8405 55.2871C26.9056 55.349 27.0114 55.3799 27.1578 55.3799L27.441 55.3604C27.4606 55.3604 27.4703 55.3799 27.4703 55.4189C27.4703 55.4548 27.4459 55.484 27.3971 55.5068L26.0983 56.0439C26.0592 56.0635 26.025 56.0732 25.9957 56.0732C25.9697 56.0732 25.9567 56.0326 25.9567 55.9512V55.5117ZM28.8912 53.3682C28.8359 53.3682 28.8082 53.487 28.8082 53.7246C28.8082 54.2292 28.958 54.6523 29.2574 54.9941C29.5569 55.3359 29.928 55.5068 30.3707 55.5068C30.8167 55.5068 31.2448 55.3148 31.6549 54.9307C31.6614 54.9242 31.6696 54.9209 31.6793 54.9209H31.7037C31.7233 54.9209 31.7412 54.9372 31.7574 54.9697C31.777 54.999 31.7949 55.0186 31.8112 55.0283C31.4336 55.4873 30.9892 55.8047 30.4781 55.9805C30.3024 56.0423 30.1038 56.0732 29.8824 56.0732C29.6611 56.0732 29.4365 56.013 29.2086 55.8926C28.9808 55.7689 28.7854 55.6077 28.6227 55.4092C28.2776 54.9958 28.1051 54.4814 28.1051 53.8662C28.1051 53.2477 28.2923 52.6846 28.6666 52.1768C29.0442 51.6689 29.5618 51.415 30.2194 51.415C30.6914 51.415 31.0771 51.6266 31.3766 52.0498C31.6761 52.4697 31.8258 52.8392 31.8258 53.1582C31.8258 53.2982 31.7916 53.3682 31.7233 53.3682H28.8912ZM28.9449 52.8994C28.9449 52.9613 28.9742 52.9922 29.0328 52.9922H30.8737C30.9583 52.9922 31.0006 52.9417 31.0006 52.8408C31.0006 52.6064 30.8948 52.3672 30.6832 52.123C30.4749 51.8757 30.2454 51.752 29.9948 51.752C29.7506 51.752 29.5276 51.8626 29.3258 52.084C29.1272 52.3053 29.0003 52.5576 28.9449 52.8408V52.8994ZM34.4479 55.7559C34.6009 55.7754 34.6774 55.8145 34.6774 55.873C34.6774 55.9121 34.6611 55.9349 34.6285 55.9414H32.4508C32.4183 55.9349 32.402 55.9121 32.402 55.873C32.402 55.8145 32.4785 55.7754 32.6315 55.7559C32.983 55.7038 33.1588 55.5182 33.1588 55.1992V49.1104C33.1588 48.9736 33.0839 48.8792 32.9342 48.8271C32.8691 48.8044 32.7991 48.7865 32.7242 48.7734C32.6494 48.7572 32.5892 48.7425 32.5436 48.7295C32.5013 48.7165 32.4736 48.7051 32.4606 48.6953C32.4508 48.6823 32.4459 48.6579 32.4459 48.6221C32.4459 48.583 32.4703 48.5505 32.5192 48.5244L33.7643 47.9385C33.8033 47.9189 33.8278 47.9092 33.8375 47.9092C33.8929 47.9092 33.9205 47.9482 33.9205 48.0264V55.1992C33.9205 55.5182 34.0963 55.7038 34.4479 55.7559ZM36.9967 55.7559C37.1497 55.7754 37.2262 55.8145 37.2262 55.873C37.2262 55.9121 37.2099 55.9349 37.1774 55.9414H34.9996C34.9671 55.9349 34.9508 55.9121 34.9508 55.873C34.9508 55.8145 35.0273 55.7754 35.1803 55.7559C35.5319 55.7038 35.7076 55.5182 35.7076 55.1992V49.1104C35.7076 48.9736 35.6328 48.8792 35.483 48.8271C35.4179 48.8044 35.3479 48.7865 35.2731 48.7734C35.1982 48.7572 35.138 48.7425 35.0924 48.7295C35.0501 48.7165 35.0224 48.7051 35.0094 48.6953C34.9996 48.6823 34.9948 48.6579 34.9948 48.6221C34.9948 48.583 35.0192 48.5505 35.068 48.5244L36.3131 47.9385C36.3522 47.9189 36.3766 47.9092 36.3864 47.9092C36.4417 47.9092 36.4694 47.9482 36.4694 48.0264V55.1992C36.4694 55.5182 36.6451 55.7038 36.9967 55.7559ZM38.5299 53.3682C38.4746 53.3682 38.4469 53.487 38.4469 53.7246C38.4469 54.2292 38.5966 54.6523 38.8961 54.9941C39.1956 55.3359 39.5667 55.5068 40.0094 55.5068C40.4554 55.5068 40.8834 55.3148 41.2936 54.9307C41.3001 54.9242 41.3082 54.9209 41.318 54.9209H41.3424C41.3619 54.9209 41.3798 54.9372 41.3961 54.9697C41.4156 54.999 41.4336 55.0186 41.4498 55.0283C41.0722 55.4873 40.6279 55.8047 40.1168 55.9805C39.941 56.0423 39.7425 56.0732 39.5211 56.0732C39.2998 56.0732 39.0752 56.013 38.8473 55.8926C38.6194 55.7689 38.4241 55.6077 38.2614 55.4092C37.9163 54.9958 37.7438 54.4814 37.7438 53.8662C37.7438 53.2477 37.9309 52.6846 38.3053 52.1768C38.6829 51.6689 39.2005 51.415 39.858 51.415C40.33 51.415 40.7158 51.6266 41.0153 52.0498C41.3147 52.4697 41.4645 52.8392 41.4645 53.1582C41.4645 53.2982 41.4303 53.3682 41.3619 53.3682H38.5299ZM38.5836 52.8994C38.5836 52.9613 38.6129 52.9922 38.6715 52.9922H40.5123C40.597 52.9922 40.6393 52.9417 40.6393 52.8408C40.6393 52.6064 40.5335 52.3672 40.3219 52.123C40.1136 51.8757 39.8841 51.752 39.6334 51.752C39.3893 51.752 39.1663 51.8626 38.9645 52.084C38.7659 52.3053 38.639 52.5576 38.5836 52.8408V52.8994ZM47.9391 52.4404C47.9 52.4339 47.8431 52.4128 47.7682 52.377C47.498 52.2533 47.2864 52.1914 47.1334 52.1914C46.9804 52.1914 46.8193 52.2874 46.65 52.4795C46.484 52.6683 46.401 52.8392 46.401 52.9922V55.1992C46.401 55.4434 46.5426 55.6061 46.8258 55.6875C46.9495 55.7201 47.0651 55.7445 47.1725 55.7607C47.2799 55.7738 47.3483 55.7868 47.3776 55.7998C47.4101 55.8128 47.4264 55.8389 47.4264 55.8779C47.4264 55.9137 47.4101 55.9349 47.3776 55.9414H44.9313C44.8987 55.9349 44.8824 55.9121 44.8824 55.873C44.8824 55.8145 44.9589 55.7754 45.1119 55.7559C45.4635 55.7038 45.6393 55.5182 45.6393 55.1992V52.6162C45.6393 52.4795 45.5644 52.3851 45.4147 52.333C45.3496 52.3102 45.2796 52.2923 45.2047 52.2793C45.1298 52.263 45.0696 52.2484 45.024 52.2354C44.9817 52.2223 44.9541 52.2109 44.941 52.2012C44.9313 52.1882 44.9264 52.1637 44.9264 52.1279C44.9264 52.0889 44.9508 52.0563 44.9996 52.0303L46.2448 51.4443C46.2838 51.4248 46.3082 51.415 46.318 51.415C46.3733 51.415 46.401 51.4541 46.401 51.5322V52.3232C46.401 52.3623 46.4108 52.3818 46.4303 52.3818C46.4563 52.3818 46.5231 52.3053 46.6305 52.1523C46.9397 51.7194 47.1953 51.5029 47.3971 51.5029C47.511 51.5029 47.6852 51.5485 47.9196 51.6396C48.1572 51.7308 48.276 51.8073 48.276 51.8691C48.276 51.944 48.2386 52.0579 48.1637 52.2109C48.0888 52.3639 48.014 52.4404 47.9391 52.4404ZM48.6227 55.9414C48.5901 55.9349 48.5739 55.9121 48.5739 55.873C48.5739 55.8145 48.6503 55.7754 48.8033 55.7559C49.1549 55.7038 49.3307 55.5182 49.3307 55.1992V52.6162C49.3307 52.4795 49.2558 52.3851 49.1061 52.333C49.041 52.3102 48.971 52.2923 48.8961 52.2793C48.8212 52.263 48.761 52.2484 48.7155 52.2354C48.6731 52.2223 48.6455 52.2109 48.6324 52.2012C48.6227 52.1882 48.6178 52.1637 48.6178 52.1279C48.6178 52.0889 48.6422 52.0563 48.691 52.0303L49.9362 51.4443C49.9752 51.4248 49.9996 51.415 50.0094 51.415C50.0647 51.415 50.0924 51.4541 50.0924 51.5322V55.1992C50.0924 55.5182 50.2682 55.7038 50.6198 55.7559C50.7727 55.7754 50.8492 55.8096 50.8492 55.8584C50.8492 55.9072 50.833 55.9349 50.8004 55.9414H48.6227ZM49.6383 50.043C49.5048 50.043 49.386 50.0007 49.2819 49.916C49.1809 49.8314 49.1305 49.7142 49.1305 49.5645C49.1305 49.4115 49.1793 49.291 49.277 49.2031C49.3746 49.1152 49.4902 49.0713 49.6237 49.0713C49.7604 49.0713 49.8743 49.1234 49.9655 49.2275C50.0599 49.3317 50.1071 49.444 50.1071 49.5645C50.1071 49.6849 50.0631 49.7956 49.9752 49.8965C49.8873 49.9941 49.775 50.043 49.6383 50.043ZM56.0494 51.5469C56.0852 51.5566 56.1031 51.5794 56.1031 51.6152C56.1031 51.651 56.0983 51.6771 56.0885 51.6934C56.0787 51.7096 56.0071 51.7275 55.8737 51.7471C55.7402 51.7666 55.6442 51.8057 55.5856 51.8643C55.5302 51.9196 55.4798 51.9831 55.4342 52.0547C55.3919 52.1263 55.3545 52.2012 55.3219 52.2793C55.2893 52.3542 55.2584 52.4225 55.2291 52.4844L53.8961 55.9316C53.8571 56.026 53.8212 56.0732 53.7887 56.0732H53.403C53.3704 56.0732 53.3346 56.0228 53.2955 55.9219L52.0016 52.4209C51.8811 52.0921 51.6744 51.8805 51.3815 51.7861C51.3587 51.7796 51.331 51.7747 51.2985 51.7715C51.1617 51.7585 51.0934 51.7178 51.0934 51.6494C51.0934 51.5811 51.1324 51.5469 51.2106 51.5469H53.3834C53.4095 51.5469 53.4225 51.5729 53.4225 51.625C53.4225 51.6738 53.4046 51.7064 53.3688 51.7227C53.3102 51.7454 53.206 51.7552 53.0563 51.752C52.8121 51.7454 52.6901 51.8431 52.6901 52.0449L52.7194 52.1621L53.7106 54.8721C53.7757 55.0381 53.8408 55.0332 53.9059 54.8574C53.9124 54.8411 53.9547 54.7354 54.0328 54.54C54.4723 53.417 54.7181 52.7676 54.7701 52.5918C54.8255 52.416 54.8531 52.2842 54.8531 52.1963C54.8531 52.1084 54.8059 52.0173 54.7115 51.9229C54.6171 51.8252 54.4902 51.7764 54.3307 51.7764C54.1712 51.7764 54.0914 51.7275 54.0914 51.6299C54.0914 51.5745 54.1272 51.5469 54.1989 51.5469H56.0494ZM56.4938 55.9414C56.4612 55.9349 56.4449 55.9121 56.4449 55.873C56.4449 55.8145 56.5214 55.7754 56.6744 55.7559C57.026 55.7038 57.2018 55.5182 57.2018 55.1992V52.6162C57.2018 52.4795 57.1269 52.3851 56.9772 52.333C56.9121 52.3102 56.8421 52.2923 56.7672 52.2793C56.6923 52.263 56.6321 52.2484 56.5865 52.2354C56.5442 52.2223 56.5166 52.2109 56.5035 52.2012C56.4938 52.1882 56.4889 52.1637 56.4889 52.1279C56.4889 52.0889 56.5133 52.0563 56.5621 52.0303L57.8073 51.4443C57.8463 51.4248 57.8707 51.415 57.8805 51.415C57.9358 51.415 57.9635 51.4541 57.9635 51.5322V55.1992C57.9635 55.5182 58.1393 55.7038 58.4908 55.7559C58.6438 55.7754 58.7203 55.8096 58.7203 55.8584C58.7203 55.9072 58.7041 55.9349 58.6715 55.9414H56.4938ZM57.5094 50.043C57.3759 50.043 57.2571 50.0007 57.153 49.916C57.052 49.8314 57.0016 49.7142 57.0016 49.5645C57.0016 49.4115 57.0504 49.291 57.1481 49.2031C57.2457 49.1152 57.3613 49.0713 57.4948 49.0713C57.6315 49.0713 57.7454 49.1234 57.8365 49.2275C57.9309 49.3317 57.9781 49.444 57.9781 49.5645C57.9781 49.6849 57.9342 49.7956 57.8463 49.8965C57.7584 49.9941 57.6461 50.043 57.5094 50.043ZM60.0924 53.3682C60.0371 53.3682 60.0094 53.487 60.0094 53.7246C60.0094 54.2292 60.1591 54.6523 60.4586 54.9941C60.7581 55.3359 61.1292 55.5068 61.5719 55.5068C62.0179 55.5068 62.4459 55.3148 62.8561 54.9307C62.8626 54.9242 62.8707 54.9209 62.8805 54.9209H62.9049C62.9244 54.9209 62.9423 54.9372 62.9586 54.9697C62.9781 54.999 62.9961 55.0186 63.0123 55.0283C62.6347 55.4873 62.1904 55.8047 61.6793 55.9805C61.5035 56.0423 61.305 56.0732 61.0836 56.0732C60.8623 56.0732 60.6377 56.013 60.4098 55.8926C60.1819 55.7689 59.9866 55.6077 59.8239 55.4092C59.4788 54.9958 59.3063 54.4814 59.3063 53.8662C59.3063 53.2477 59.4934 52.6846 59.8678 52.1768C60.2454 51.6689 60.763 51.415 61.4205 51.415C61.8925 51.415 62.2783 51.6266 62.5778 52.0498C62.8772 52.4697 63.027 52.8392 63.027 53.1582C63.027 53.2982 62.9928 53.3682 62.9244 53.3682H60.0924ZM60.1461 52.8994C60.1461 52.9613 60.1754 52.9922 60.234 52.9922H62.0748C62.1595 52.9922 62.2018 52.9417 62.2018 52.8408C62.2018 52.6064 62.096 52.3672 61.8844 52.123C61.6761 51.8757 61.4466 51.752 61.1959 51.752C60.9518 51.752 60.7288 51.8626 60.527 52.084C60.3284 52.3053 60.2015 52.5576 60.1461 52.8408V52.8994ZM61.6793 50.7314C61.6663 50.7445 61.6549 50.751 61.6451 50.751C61.6354 50.751 61.624 50.7445 61.611 50.7314L60.2975 49.6719C60.1184 49.5189 60.0289 49.3805 60.0289 49.2568C60.0289 49.1331 60.0615 49.0355 60.1266 48.9639C60.1949 48.889 60.2861 48.8516 60.4 48.8516C60.514 48.8516 60.6295 48.9313 60.7467 49.0908L61.7867 50.5312C61.7998 50.5443 61.8063 50.554 61.8063 50.5605C61.8063 50.5671 61.7998 50.5768 61.7867 50.5898L61.6793 50.7314ZM66.816 52.4404C66.777 52.4339 66.72 52.4128 66.6451 52.377C66.375 52.2533 66.1634 52.1914 66.0104 52.1914C65.8574 52.1914 65.6962 52.2874 65.527 52.4795C65.361 52.6683 65.278 52.8392 65.278 52.9922V55.1992C65.278 55.4434 65.4196 55.6061 65.7028 55.6875C65.8265 55.7201 65.942 55.7445 66.0494 55.7607C66.1569 55.7738 66.2252 55.7868 66.2545 55.7998C66.2871 55.8128 66.3033 55.8389 66.3033 55.8779C66.3033 55.9137 66.2871 55.9349 66.2545 55.9414H63.8082C63.7757 55.9349 63.7594 55.9121 63.7594 55.873C63.7594 55.8145 63.8359 55.7754 63.9889 55.7559C64.3405 55.7038 64.5162 55.5182 64.5162 55.1992V52.6162C64.5162 52.4795 64.4414 52.3851 64.2916 52.333C64.2265 52.3102 64.1565 52.2923 64.0817 52.2793C64.0068 52.263 63.9466 52.2484 63.901 52.2354C63.8587 52.2223 63.831 52.2109 63.818 52.2012C63.8082 52.1882 63.8033 52.1637 63.8033 52.1279C63.8033 52.0889 63.8278 52.0563 63.8766 52.0303L65.1217 51.4443C65.1608 51.4248 65.1852 51.415 65.1949 51.415C65.2503 51.415 65.278 51.4541 65.278 51.5322V52.3232C65.278 52.3623 65.2877 52.3818 65.3073 52.3818C65.3333 52.3818 65.4 52.3053 65.5074 52.1523C65.8167 51.7194 66.0722 51.5029 66.274 51.5029C66.388 51.5029 66.5621 51.5485 66.7965 51.6396C67.0341 51.7308 67.153 51.8073 67.153 51.8691C67.153 51.944 67.1155 52.0579 67.0406 52.2109C66.9658 52.3639 66.8909 52.4404 66.816 52.4404ZM68.2858 53.3682C68.2304 53.3682 68.2028 53.487 68.2028 53.7246C68.2028 54.2292 68.3525 54.6523 68.652 54.9941C68.9515 55.3359 69.3226 55.5068 69.7653 55.5068C70.2112 55.5068 70.6393 55.3148 71.0494 54.9307C71.0559 54.9242 71.0641 54.9209 71.0739 54.9209H71.0983C71.1178 54.9209 71.1357 54.9372 71.152 54.9697C71.1715 54.999 71.1894 55.0186 71.2057 55.0283C70.8281 55.4873 70.3837 55.8047 69.8727 55.9805C69.6969 56.0423 69.4983 56.0732 69.277 56.0732C69.0556 56.0732 68.831 56.013 68.6031 55.8926C68.3753 55.7689 68.18 55.6077 68.0172 55.4092C67.6722 54.9958 67.4996 54.4814 67.4996 53.8662C67.4996 53.2477 67.6868 52.6846 68.0612 52.1768C68.4388 51.6689 68.9563 51.415 69.6139 51.415C70.0859 51.415 70.4716 51.6266 70.7711 52.0498C71.0706 52.4697 71.2203 52.8392 71.2203 53.1582C71.2203 53.2982 71.1862 53.3682 71.1178 53.3682H68.2858ZM68.3395 52.8994C68.3395 52.9613 68.3688 52.9922 68.4274 52.9922H70.2682C70.3528 52.9922 70.3951 52.9417 70.3951 52.8408C70.3951 52.6064 70.2893 52.3672 70.0778 52.123C69.8694 51.8757 69.6399 51.752 69.3893 51.752C69.1451 51.752 68.9222 51.8626 68.7203 52.084C68.5218 52.3053 68.3948 52.5576 68.3395 52.8408V52.8994ZM78.3102 54.4033L78.3004 53.373C78.3004 52.9531 78.2646 52.6585 78.193 52.4893C78.1214 52.32 78.0302 52.193 77.9196 52.1084C77.8089 52.0205 77.6591 51.9766 77.4703 51.9766C77.2848 51.9766 76.8893 52.123 76.2838 52.416C76.2024 52.4648 76.1601 52.5104 76.1569 52.5527V55.1797C76.1569 55.5085 76.3326 55.6973 76.6842 55.7461C76.8372 55.7689 76.9137 55.8063 76.9137 55.8584C76.9137 55.9072 76.8974 55.9349 76.8649 55.9414H74.6871C74.6546 55.9349 74.6383 55.9121 74.6383 55.873C74.6383 55.8112 74.7148 55.7689 74.8678 55.7461C75.2194 55.6973 75.3951 55.5085 75.3951 55.1797V52.377C75.3951 52.2402 75.3203 52.1458 75.1705 52.0938C75.1054 52.071 75.0354 52.0531 74.9606 52.04C74.8857 52.0238 74.8255 52.0091 74.7799 51.9961C74.7376 51.9831 74.7099 51.9717 74.6969 51.9619C74.6871 51.9489 74.6823 51.9245 74.6823 51.8887C74.6823 51.8496 74.7067 51.8171 74.7555 51.791L76.0006 51.2051C76.0397 51.1855 76.0641 51.1758 76.0739 51.1758C76.1292 51.1758 76.1569 51.2148 76.1569 51.293V52.0547C76.1666 52.0872 76.1796 52.1035 76.1959 52.1035C76.2155 52.1035 76.2854 52.0742 76.4059 52.0156C76.6858 51.8757 76.9674 51.7406 77.2506 51.6104C77.5338 51.4801 77.7682 51.415 77.9537 51.415C78.7057 51.415 79.0817 52.1003 79.0817 53.4707L79.0377 54.8965V55.1797C79.0377 55.4336 79.1647 55.5996 79.4186 55.6777C79.526 55.7135 79.6285 55.7396 79.7262 55.7559C79.8271 55.7689 79.8922 55.7819 79.9215 55.7949C79.9541 55.8079 79.9703 55.834 79.9703 55.873C79.9703 55.9121 79.9541 55.9349 79.9215 55.9414H77.568C77.5354 55.9349 77.5192 55.9121 77.5192 55.873C77.5192 55.8112 77.5957 55.7689 77.7487 55.7461C78.097 55.6973 78.2711 55.4954 78.2711 55.1406C78.2972 54.9779 78.3102 54.7321 78.3102 54.4033ZM82.0602 49.9551C82.0602 50.5605 81.7753 51.0651 81.2057 51.4688C81.0755 51.5632 80.9762 51.6104 80.9078 51.6104C80.8623 51.6104 80.8395 51.5827 80.8395 51.5273C80.8395 51.4688 80.8492 51.4281 80.8688 51.4053C80.8883 51.3792 80.9111 51.3564 80.9371 51.3369C80.9632 51.3174 80.9876 51.2995 81.0104 51.2832C81.0364 51.2669 81.0673 51.2441 81.1031 51.2148C81.4287 50.9186 81.5914 50.6501 81.5914 50.4092C81.5914 50.2692 81.5312 50.1992 81.4108 50.1992C81.0852 50.1992 80.8688 50.0967 80.7614 49.8916C80.7223 49.8167 80.7028 49.7126 80.7028 49.5791C80.7028 49.4456 80.7614 49.3252 80.8785 49.2178C80.999 49.1104 81.1276 49.0566 81.2643 49.0566C81.5182 49.0566 81.7135 49.1576 81.8502 49.3594C81.9902 49.5579 82.0602 49.7565 82.0602 49.9551ZM83.4127 53.3682C83.3574 53.3682 83.3297 53.487 83.3297 53.7246C83.3297 54.2292 83.4795 54.6523 83.7789 54.9941C84.0784 55.3359 84.4495 55.5068 84.8922 55.5068C85.3382 55.5068 85.7662 55.3148 86.1764 54.9307C86.1829 54.9242 86.191 54.9209 86.2008 54.9209H86.2252C86.2448 54.9209 86.2627 54.9372 86.2789 54.9697C86.2985 54.999 86.3164 55.0186 86.3326 55.0283C85.955 55.4873 85.5107 55.8047 84.9996 55.9805C84.8239 56.0423 84.6253 56.0732 84.4039 56.0732C84.1826 56.0732 83.958 56.013 83.7301 55.8926C83.5022 55.7689 83.3069 55.6077 83.1442 55.4092C82.7991 54.9958 82.6266 54.4814 82.6266 53.8662C82.6266 53.2477 82.8138 52.6846 83.1881 52.1768C83.5657 51.6689 84.0833 51.415 84.7408 51.415C85.2128 51.415 85.5986 51.6266 85.8981 52.0498C86.1976 52.4697 86.3473 52.8392 86.3473 53.1582C86.3473 53.2982 86.3131 53.3682 86.2448 53.3682H83.4127ZM83.4664 52.8994C83.4664 52.9613 83.4957 52.9922 83.5543 52.9922H85.3951C85.4798 52.9922 85.5221 52.9417 85.5221 52.8408C85.5221 52.6064 85.4163 52.3672 85.2047 52.123C84.9964 51.8757 84.7669 51.752 84.5162 51.752C84.2721 51.752 84.0491 51.8626 83.8473 52.084C83.6487 52.3053 83.5218 52.5576 83.4664 52.8408V52.8994ZM89.5358 52.6016C89.5358 52.6732 89.5081 52.709 89.4528 52.709C89.4007 52.709 89.36 52.6699 89.3307 52.5918C89.2526 52.377 89.1354 52.1865 88.9791 52.0205C88.8261 51.8545 88.6357 51.7715 88.4078 51.7715C88.1084 51.7715 87.9065 51.9212 87.8024 52.2207C87.7698 52.3216 87.7535 52.4258 87.7535 52.5332C87.7535 52.6406 87.8219 52.7611 87.9586 52.8945C88.0953 53.0247 88.3199 53.181 88.6324 53.3633C88.9449 53.5456 89.1728 53.7002 89.316 53.8271C89.6416 54.1169 89.8043 54.4521 89.8043 54.833C89.8043 55.2139 89.6643 55.5166 89.3844 55.7412C89.1045 55.9626 88.7789 56.0732 88.4078 56.0732C88.2093 56.0732 88.0286 56.0456 87.8658 55.9902C87.7063 55.9382 87.6136 55.9121 87.5875 55.9121C87.5647 55.9121 87.5257 55.9382 87.4703 55.9902C87.4183 56.0456 87.3759 56.0732 87.3434 56.0732H87.2604C87.2408 56.0732 87.2164 55.8975 87.1871 55.5459C87.1578 55.1943 87.1432 54.986 87.1432 54.9209C87.1432 54.8558 87.1481 54.82 87.1578 54.8135C87.1709 54.807 87.1904 54.8037 87.2164 54.8037C87.2425 54.8037 87.2636 54.8118 87.2799 54.8281C87.2994 54.8444 87.3157 54.8656 87.3287 54.8916C87.3418 54.9144 87.3515 54.9388 87.358 54.9648C87.3678 54.9909 87.389 55.0397 87.4215 55.1113C87.6429 55.5833 87.9847 55.8193 88.4469 55.8193C88.652 55.8193 88.8164 55.7445 88.9401 55.5947C89.0638 55.4417 89.1256 55.2725 89.1256 55.0869C89.1256 54.9014 89.0768 54.7451 88.9791 54.6182C88.8815 54.4912 88.7594 54.3757 88.6129 54.2715C88.4697 54.1673 88.3134 54.0664 88.1442 53.9688C87.4866 53.5846 87.1578 53.1598 87.1578 52.6943C87.1578 52.346 87.3076 52.0465 87.6071 51.7959C87.9065 51.542 88.2142 51.415 88.5299 51.415C88.8457 51.415 89.0784 51.4492 89.2281 51.5176C89.3811 51.5859 89.4707 51.6445 89.4967 51.6934C89.5227 51.7389 89.5358 51.8919 89.5358 52.1523V52.6016ZM91.7037 52.1865C91.6842 52.1865 91.6744 52.2012 91.6744 52.2305V54.9258C91.6744 55.1211 91.7168 55.2741 91.8014 55.3848C91.8893 55.4954 92 55.5508 92.1334 55.5508C92.2669 55.5508 92.3824 55.5296 92.4801 55.4873C92.581 55.4417 92.6673 55.3929 92.7389 55.3408C92.8138 55.2887 92.8805 55.2415 92.9391 55.1992C92.9977 55.1536 93.0498 55.1309 93.0953 55.1309C93.1409 55.1309 93.1637 55.1423 93.1637 55.165C93.1637 55.2432 93.1556 55.2936 93.1393 55.3164C92.7487 55.821 92.3711 56.0732 92.0065 56.0732C91.6451 56.0732 91.3717 55.9593 91.1862 55.7314C91.0039 55.5003 90.9127 55.2253 90.9127 54.9062V52.1865H90.5465C90.4554 52.1865 90.4065 52.1572 90.4 52.0986C90.3968 52.04 90.4065 52.0026 90.4293 51.9863C90.6018 51.8757 90.8395 51.6771 91.1422 51.3906C91.1748 51.3548 91.2187 51.3011 91.274 51.2295C91.3294 51.1579 91.4091 51.0602 91.5133 50.9365C91.6207 50.8128 91.7021 50.751 91.7574 50.751C91.8128 50.751 91.8405 50.7738 91.8405 50.8193C91.8405 50.8258 91.7851 51.0391 91.6744 51.459C91.6744 51.5176 91.7005 51.5485 91.7526 51.5518H92.9977C93.1409 51.5518 93.2125 51.7536 93.2125 52.1572C93.2125 52.1768 93.1995 52.1865 93.1735 52.1865H91.7037ZM100.044 55.4287C99.5944 55.8584 99.0898 56.0732 98.5299 56.0732C98.3281 56.0732 98.053 56.0358 97.7047 55.9609C97.6494 55.9609 97.6184 55.9805 97.6119 56.0195C97.6087 56.0586 97.6054 56.0993 97.6022 56.1416V58.2266C97.6022 58.4707 97.7438 58.6335 98.027 58.7148C98.1507 58.7474 98.2662 58.7702 98.3737 58.7832C98.4811 58.7995 98.5494 58.8141 98.5787 58.8271C98.6113 58.8402 98.6276 58.8646 98.6276 58.9004C98.6276 58.9395 98.6113 58.9622 98.5787 58.9688H96.1324C96.0999 58.9622 96.0836 58.9395 96.0836 58.9004C96.0836 58.8418 96.1601 58.8027 96.3131 58.7832C96.6647 58.7311 96.8405 58.5456 96.8405 58.2266V52.3721C96.8405 52.2354 96.7656 52.141 96.6158 52.0889C96.5507 52.0661 96.4808 52.0482 96.4059 52.0352C96.331 52.0189 96.2708 52.0042 96.2252 51.9912C96.1829 51.9782 96.1552 51.9668 96.1422 51.957C96.1324 51.944 96.1276 51.9196 96.1276 51.8838C96.1276 51.8447 96.152 51.8122 96.2008 51.7861L97.4459 51.1904C97.472 51.1774 97.498 51.1709 97.524 51.1709C97.5761 51.1709 97.6022 51.21 97.6022 51.2881V51.9082C97.6022 51.944 97.6201 51.9619 97.6559 51.9619C97.6949 51.9619 97.7861 51.9147 97.9293 51.8203C98.3427 51.5534 98.7724 51.4199 99.2184 51.4199C99.5309 51.4199 99.8173 51.5469 100.078 51.8008C100.42 52.1328 100.647 52.5951 100.761 53.1875C100.794 53.3568 100.81 53.5374 100.81 53.7295C100.81 53.9183 100.779 54.1185 100.717 54.3301C100.594 54.75 100.369 55.1162 100.044 55.4287ZM98.6471 51.9277C98.2044 51.9277 97.8561 52.0547 97.6022 52.3086V55.0527C97.6022 55.2155 97.6298 55.3213 97.6852 55.3701C97.8284 55.4938 98.0481 55.5898 98.3444 55.6582C98.9303 55.7917 99.386 55.6517 99.7115 55.2383C99.9427 54.9421 100.058 54.584 100.058 54.1641C100.058 53.347 99.8743 52.735 99.5065 52.3281C99.2851 52.0807 98.9987 51.9473 98.6471 51.9277ZM104.707 55.1357C104.707 55.2204 104.746 55.2887 104.824 55.3408C104.905 55.3896 104.998 55.4141 105.102 55.4141C105.206 55.4141 105.293 55.388 105.361 55.3359C105.433 55.2806 105.481 55.2529 105.507 55.2529C105.533 55.2529 105.547 55.2887 105.547 55.3604C105.547 55.4287 105.514 55.4873 105.449 55.5361C104.961 55.8942 104.63 56.0732 104.458 56.0732C104.249 56.0732 104.08 55.8568 103.95 55.4238C103.94 55.3913 103.932 55.3766 103.925 55.3799C103.522 55.6826 103.268 55.8649 103.164 55.9268C102.897 56.0798 102.628 56.1042 102.358 56C102.091 55.8958 101.897 55.7233 101.777 55.4824C101.718 55.3587 101.689 55.2269 101.689 55.0869C101.689 54.8102 101.792 54.5905 101.997 54.4277C102.202 54.265 102.592 54.1087 103.169 53.959C103.364 53.9069 103.538 53.8402 103.691 53.7588C103.844 53.6774 103.924 53.6253 103.93 53.6025C103.94 53.5798 103.945 53.5586 103.945 53.5391V52.6016C103.945 52.2337 103.802 51.9749 103.515 51.8252C103.421 51.7764 103.307 51.752 103.173 51.752C103.043 51.752 102.91 51.804 102.773 51.9082C102.64 52.0124 102.573 52.1605 102.573 52.3525L102.597 52.543C102.578 52.582 102.461 52.6471 102.246 52.7383C102.031 52.8294 101.907 52.8783 101.875 52.8848C101.823 52.8848 101.797 52.8229 101.797 52.6992C101.797 52.5723 101.834 52.4323 101.909 52.2793C101.984 52.1263 102.089 51.9863 102.226 51.8594C102.545 51.5632 102.91 51.415 103.32 51.415C103.73 51.415 104.064 51.529 104.321 51.7568C104.578 51.9814 104.707 52.25 104.707 52.5625V55.1357ZM102.456 54.9941C102.456 55.1504 102.516 55.2871 102.636 55.4043C102.757 55.5182 102.894 55.5752 103.047 55.5752C103.203 55.5752 103.392 55.5101 103.613 55.3799C103.834 55.2464 103.945 55.1097 103.945 54.9697V53.9785C103.945 53.9427 103.937 53.9248 103.921 53.9248C103.904 53.9248 103.893 53.9264 103.886 53.9297L102.754 54.457C102.636 54.5417 102.557 54.6133 102.514 54.6719C102.475 54.7305 102.456 54.8379 102.456 54.9941ZM108.383 52.6016C108.383 52.6732 108.356 52.709 108.3 52.709C108.248 52.709 108.208 52.6699 108.178 52.5918C108.1 52.377 107.983 52.1865 107.827 52.0205C107.674 51.8545 107.483 51.7715 107.255 51.7715C106.956 51.7715 106.754 51.9212 106.65 52.2207C106.617 52.3216 106.601 52.4258 106.601 52.5332C106.601 52.6406 106.67 52.7611 106.806 52.8945C106.943 53.0247 107.168 53.181 107.48 53.3633C107.793 53.5456 108.02 53.7002 108.164 53.8271C108.489 54.1169 108.652 54.4521 108.652 54.833C108.652 55.2139 108.512 55.5166 108.232 55.7412C107.952 55.9626 107.627 56.0732 107.255 56.0732C107.057 56.0732 106.876 56.0456 106.714 55.9902C106.554 55.9382 106.461 55.9121 106.435 55.9121C106.412 55.9121 106.373 55.9382 106.318 55.9902C106.266 56.0456 106.224 56.0732 106.191 56.0732H106.108C106.089 56.0732 106.064 55.8975 106.035 55.5459C106.005 55.1943 105.991 54.986 105.991 54.9209C105.991 54.8558 105.996 54.82 106.005 54.8135C106.019 54.807 106.038 54.8037 106.064 54.8037C106.09 54.8037 106.111 54.8118 106.128 54.8281C106.147 54.8444 106.163 54.8656 106.176 54.8916C106.189 54.9144 106.199 54.9388 106.206 54.9648C106.215 54.9909 106.237 55.0397 106.269 55.1113C106.491 55.5833 106.832 55.8193 107.295 55.8193C107.5 55.8193 107.664 55.7445 107.788 55.5947C107.911 55.4417 107.973 55.2725 107.973 55.0869C107.973 54.9014 107.924 54.7451 107.827 54.6182C107.729 54.4912 107.607 54.3757 107.461 54.2715C107.317 54.1673 107.161 54.0664 106.992 53.9688C106.334 53.5846 106.005 53.1598 106.005 52.6943C106.005 52.346 106.155 52.0465 106.455 51.7959C106.754 51.542 107.062 51.415 107.378 51.415C107.693 51.415 107.926 51.4492 108.076 51.5176C108.229 51.5859 108.318 51.6445 108.344 51.6934C108.37 51.7389 108.383 51.8919 108.383 52.1523V52.6016ZM114.419 52.6016C114.419 52.6732 114.391 52.709 114.336 52.709C114.283 52.709 114.243 52.6699 114.214 52.5918C114.135 52.377 114.018 52.1865 113.862 52.0205C113.709 51.8545 113.519 51.7715 113.291 51.7715C112.991 51.7715 112.789 51.9212 112.685 52.2207C112.653 52.3216 112.636 52.4258 112.636 52.5332C112.636 52.6406 112.705 52.7611 112.841 52.8945C112.978 53.0247 113.203 53.181 113.515 53.3633C113.828 53.5456 114.056 53.7002 114.199 53.8271C114.524 54.1169 114.687 54.4521 114.687 54.833C114.687 55.2139 114.547 55.5166 114.267 55.7412C113.987 55.9626 113.662 56.0732 113.291 56.0732C113.092 56.0732 112.911 56.0456 112.749 55.9902C112.589 55.9382 112.496 55.9121 112.47 55.9121C112.448 55.9121 112.408 55.9382 112.353 55.9902C112.301 56.0456 112.259 56.0732 112.226 56.0732H112.143C112.124 56.0732 112.099 55.8975 112.07 55.5459C112.041 55.1943 112.026 54.986 112.026 54.9209C112.026 54.8558 112.031 54.82 112.041 54.8135C112.054 54.807 112.073 54.8037 112.099 54.8037C112.125 54.8037 112.146 54.8118 112.163 54.8281C112.182 54.8444 112.199 54.8656 112.212 54.8916C112.225 54.9144 112.234 54.9388 112.241 54.9648C112.251 54.9909 112.272 55.0397 112.304 55.1113C112.526 55.5833 112.867 55.8193 113.33 55.8193C113.535 55.8193 113.699 55.7445 113.823 55.5947C113.947 55.4417 114.008 55.2725 114.008 55.0869C114.008 54.9014 113.96 54.7451 113.862 54.6182C113.764 54.4912 113.642 54.3757 113.496 54.2715C113.352 54.1673 113.196 54.0664 113.027 53.9688C112.369 53.5846 112.041 53.1598 112.041 52.6943C112.041 52.346 112.19 52.0465 112.49 51.7959C112.789 51.542 113.097 51.415 113.413 51.415C113.728 51.415 113.961 51.4492 114.111 51.5176C114.264 51.5859 114.353 51.6445 114.38 51.6934C114.406 51.7389 114.419 51.8919 114.419 52.1523V52.6016ZM118.74 55.5117C118.724 55.4564 118.702 55.4385 118.676 55.458C118.65 55.4743 118.545 55.5296 118.359 55.624C117.75 55.9268 117.242 56.0781 116.836 56.0781C116.429 56.0781 116.136 55.9479 115.957 55.6875C115.892 55.5898 115.859 55.4694 115.859 55.3262V52.3477C115.849 52.2533 115.807 52.1719 115.732 52.1035C115.631 52.0189 115.525 51.9733 115.415 51.9668C115.307 51.9603 115.254 51.9277 115.254 51.8691C115.254 51.8073 115.28 51.7699 115.332 51.7568L116.45 51.4346C116.489 51.4215 116.526 51.415 116.562 51.415C116.601 51.415 116.621 51.4427 116.621 51.498V54.7744C116.621 55.0023 116.722 55.1781 116.923 55.3018C117.125 55.4255 117.382 55.4873 117.695 55.4873C118.011 55.4873 118.294 55.3913 118.545 55.1992C118.623 55.1374 118.688 55.069 118.74 54.9941V52.3477C118.73 52.2533 118.688 52.1719 118.613 52.1035C118.512 52.0189 118.406 51.9733 118.296 51.9668C118.188 51.9603 118.134 51.9277 118.134 51.8691C118.134 51.8073 118.16 51.7699 118.213 51.7568L119.331 51.4346C119.37 51.4215 119.407 51.415 119.443 51.415C119.482 51.415 119.502 51.4476 119.502 51.5127V54.9795C119.518 55.1227 119.559 55.2253 119.624 55.2871C119.689 55.349 119.795 55.3799 119.941 55.3799L120.224 55.3604C120.244 55.3604 120.254 55.3799 120.254 55.4189C120.254 55.4548 120.229 55.484 120.18 55.5068L118.881 56.0439C118.842 56.0635 118.808 56.0732 118.779 56.0732C118.753 56.0732 118.74 56.0326 118.74 55.9512V55.5117ZM123.857 52.4404C123.818 52.4339 123.761 52.4128 123.686 52.377C123.416 52.2533 123.204 52.1914 123.051 52.1914C122.898 52.1914 122.737 52.2874 122.568 52.4795C122.402 52.6683 122.319 52.8392 122.319 52.9922V55.1992C122.319 55.4434 122.461 55.6061 122.744 55.6875C122.867 55.7201 122.983 55.7445 123.09 55.7607C123.198 55.7738 123.266 55.7868 123.296 55.7998C123.328 55.8128 123.344 55.8389 123.344 55.8779C123.344 55.9137 123.328 55.9349 123.296 55.9414H120.849C120.817 55.9349 120.8 55.9121 120.8 55.873C120.8 55.8145 120.877 55.7754 121.03 55.7559C121.381 55.7038 121.557 55.5182 121.557 55.1992V52.6162C121.557 52.4795 121.482 52.3851 121.333 52.333C121.268 52.3102 121.198 52.2923 121.123 52.2793C121.048 52.263 120.988 52.2484 120.942 52.2354C120.9 52.2223 120.872 52.2109 120.859 52.2012C120.849 52.1882 120.844 52.1637 120.844 52.1279C120.844 52.0889 120.869 52.0563 120.918 52.0303L122.163 51.4443C122.202 51.4248 122.226 51.415 122.236 51.415C122.291 51.415 122.319 51.4541 122.319 51.5322V52.3232C122.319 52.3623 122.329 52.3818 122.348 52.3818C122.374 52.3818 122.441 52.3053 122.548 52.1523C122.858 51.7194 123.113 51.5029 123.315 51.5029C123.429 51.5029 123.603 51.5485 123.838 51.6396C124.075 51.7308 124.194 51.8073 124.194 51.8691C124.194 51.944 124.157 52.0579 124.082 52.2109C124.007 52.3639 123.932 52.4404 123.857 52.4404ZM129.028 55.7559C129.181 55.7754 129.257 55.8145 129.257 55.873C129.257 55.9121 129.241 55.9349 129.209 55.9414H127.031C126.998 55.9349 126.982 55.9121 126.982 55.873C126.982 55.8145 127.059 55.7754 127.212 55.7559C127.563 55.7038 127.739 55.5182 127.739 55.1992V49.1104C127.739 48.9736 127.664 48.8792 127.514 48.8271C127.449 48.8044 127.379 48.7865 127.304 48.7734C127.229 48.7572 127.169 48.7425 127.124 48.7295C127.081 48.7165 127.054 48.7051 127.041 48.6953C127.031 48.6823 127.026 48.6579 127.026 48.6221C127.026 48.583 127.05 48.5505 127.099 48.5244L128.344 47.9385C128.383 47.9189 128.408 47.9092 128.418 47.9092C128.473 47.9092 128.501 47.9482 128.501 48.0264V55.1992C128.501 55.5182 128.676 55.7038 129.028 55.7559ZM132.793 55.1357C132.793 55.2204 132.832 55.2887 132.91 55.3408C132.991 55.3896 133.084 55.4141 133.188 55.4141C133.292 55.4141 133.379 55.388 133.447 55.3359C133.519 55.2806 133.567 55.2529 133.593 55.2529C133.619 55.2529 133.632 55.2887 133.632 55.3604C133.632 55.4287 133.6 55.4873 133.535 55.5361C133.047 55.8942 132.716 56.0732 132.544 56.0732C132.335 56.0732 132.166 55.8568 132.036 55.4238C132.026 55.3913 132.018 55.3766 132.011 55.3799C131.608 55.6826 131.354 55.8649 131.25 55.9268C130.983 56.0798 130.714 56.1042 130.444 56C130.177 55.8958 129.983 55.7233 129.863 55.4824C129.804 55.3587 129.775 55.2269 129.775 55.0869C129.775 54.8102 129.878 54.5905 130.083 54.4277C130.288 54.265 130.678 54.1087 131.255 53.959C131.45 53.9069 131.624 53.8402 131.777 53.7588C131.93 53.6774 132.01 53.6253 132.016 53.6025C132.026 53.5798 132.031 53.5586 132.031 53.5391V52.6016C132.031 52.2337 131.888 51.9749 131.601 51.8252C131.507 51.7764 131.393 51.752 131.259 51.752C131.129 51.752 130.996 51.804 130.859 51.9082C130.726 52.0124 130.659 52.1605 130.659 52.3525L130.683 52.543C130.664 52.582 130.547 52.6471 130.332 52.7383C130.117 52.8294 129.993 52.8783 129.961 52.8848C129.908 52.8848 129.882 52.8229 129.882 52.6992C129.882 52.5723 129.92 52.4323 129.995 52.2793C130.07 52.1263 130.175 51.9863 130.312 51.8594C130.631 51.5632 130.996 51.415 131.406 51.415C131.816 51.415 132.15 51.529 132.407 51.7568C132.664 51.9814 132.793 52.25 132.793 52.5625V55.1357ZM130.542 54.9941C130.542 55.1504 130.602 55.2871 130.722 55.4043C130.843 55.5182 130.979 55.5752 131.132 55.5752C131.289 55.5752 131.477 55.5101 131.699 55.3799C131.92 55.2464 132.031 55.1097 132.031 54.9697V53.9785C132.031 53.9427 132.023 53.9248 132.006 53.9248C131.99 53.9248 131.979 53.9264 131.972 53.9297L130.839 54.457C130.722 54.5417 130.643 54.6133 130.6 54.6719C130.561 54.7305 130.542 54.8379 130.542 54.9941ZM50.6637 66.1865C50.6442 66.1865 50.6344 66.2012 50.6344 66.2305V68.9258C50.6344 69.1211 50.6767 69.2741 50.7614 69.3848C50.8492 69.4954 50.9599 69.5508 51.0934 69.5508C51.2268 69.5508 51.3424 69.5296 51.4401 69.4873C51.541 69.4417 51.6272 69.3929 51.6989 69.3408C51.7737 69.2887 51.8405 69.2415 51.899 69.1992C51.9576 69.1536 52.0097 69.1309 52.0553 69.1309C52.1009 69.1309 52.1237 69.1423 52.1237 69.165C52.1237 69.2432 52.1155 69.2936 52.0992 69.3164C51.7086 69.821 51.331 70.0732 50.9664 70.0732C50.6051 70.0732 50.3317 69.9593 50.1461 69.7314C49.9638 69.5003 49.8727 69.2253 49.8727 68.9062V66.1865H49.5065C49.4153 66.1865 49.3665 66.1572 49.36 66.0986C49.3567 66.04 49.3665 66.0026 49.3893 65.9863C49.5618 65.8757 49.7994 65.6771 50.1022 65.3906C50.1347 65.3548 50.1787 65.3011 50.234 65.2295C50.2893 65.1579 50.3691 65.0602 50.4733 64.9365C50.5807 64.8128 50.6621 64.751 50.7174 64.751C50.7727 64.751 50.8004 64.7738 50.8004 64.8193C50.8004 64.8258 50.7451 65.0391 50.6344 65.459C50.6344 65.5176 50.6604 65.5485 50.7125 65.5518H51.9576C52.1009 65.5518 52.1725 65.7536 52.1725 66.1572C52.1725 66.1768 52.1595 66.1865 52.1334 66.1865H50.6637ZM55.61 66.4404C55.5709 66.4339 55.514 66.4128 55.4391 66.377C55.1689 66.2533 54.9573 66.1914 54.8043 66.1914C54.6513 66.1914 54.4902 66.2874 54.3209 66.4795C54.1549 66.6683 54.0719 66.8392 54.0719 66.9922V69.1992C54.0719 69.4434 54.2135 69.6061 54.4967 69.6875C54.6204 69.7201 54.736 69.7445 54.8434 69.7607C54.9508 69.7738 55.0192 69.7868 55.0485 69.7998C55.081 69.8128 55.0973 69.8389 55.0973 69.8779C55.0973 69.9137 55.081 69.9349 55.0485 69.9414H52.6022C52.5696 69.9349 52.5533 69.9121 52.5533 69.873C52.5533 69.8145 52.6298 69.7754 52.7828 69.7559C53.1344 69.7038 53.3102 69.5182 53.3102 69.1992V66.6162C53.3102 66.4795 53.2353 66.3851 53.0856 66.333C53.0205 66.3102 52.9505 66.2923 52.8756 66.2793C52.8007 66.263 52.7405 66.2484 52.6949 66.2354C52.6526 66.2223 52.625 66.2109 52.6119 66.2012C52.6022 66.1882 52.5973 66.1637 52.5973 66.1279C52.5973 66.0889 52.6217 66.0563 52.6705 66.0303L53.9156 65.4443C53.9547 65.4248 53.9791 65.415 53.9889 65.415C54.0442 65.415 54.0719 65.4541 54.0719 65.5322V66.3232C54.0719 66.3623 54.0817 66.3818 54.1012 66.3818C54.1272 66.3818 54.194 66.3053 54.3014 66.1523C54.6106 65.7194 54.8662 65.5029 55.068 65.5029C55.1819 65.5029 55.3561 65.5485 55.5905 65.6396C55.8281 65.7308 55.9469 65.8073 55.9469 65.8691C55.9469 65.944 55.9095 66.0579 55.8346 66.2109C55.7597 66.3639 55.6849 66.4404 55.61 66.4404ZM59.3112 69.1357C59.3112 69.2204 59.3502 69.2887 59.4283 69.3408C59.5097 69.3896 59.6025 69.4141 59.7067 69.4141C59.8108 69.4141 59.8971 69.388 59.9655 69.3359C60.0371 69.2806 60.0859 69.2529 60.1119 69.2529C60.138 69.2529 60.151 69.2887 60.151 69.3604C60.151 69.4287 60.1184 69.4873 60.0533 69.5361C59.5651 69.8942 59.2347 70.0732 59.0621 70.0732C58.8538 70.0732 58.6845 69.8568 58.5543 69.4238C58.5446 69.3913 58.5364 69.3766 58.5299 69.3799C58.1263 69.6826 57.8724 69.8649 57.7682 69.9268C57.5013 70.0798 57.2327 70.1042 56.9625 70C56.6956 69.8958 56.5019 69.7233 56.3815 69.4824C56.3229 69.3587 56.2936 69.2269 56.2936 69.0869C56.2936 68.8102 56.3961 68.5905 56.6012 68.4277C56.8063 68.265 57.1969 68.1087 57.7731 67.959C57.9684 67.9069 58.1425 67.8402 58.2955 67.7588C58.4485 67.6774 58.5283 67.6253 58.5348 67.6025C58.5446 67.5798 58.5494 67.5586 58.5494 67.5391V66.6016C58.5494 66.2337 58.4062 65.9749 58.1198 65.8252C58.0253 65.7764 57.9114 65.752 57.778 65.752C57.6477 65.752 57.5143 65.804 57.3776 65.9082C57.2441 66.0124 57.1774 66.1605 57.1774 66.3525L57.2018 66.543C57.1823 66.582 57.0651 66.6471 56.8502 66.7383C56.6354 66.8294 56.5117 66.8783 56.4791 66.8848C56.427 66.8848 56.401 66.8229 56.401 66.6992C56.401 66.5723 56.4384 66.4323 56.5133 66.2793C56.5882 66.1263 56.694 65.9863 56.8307 65.8594C57.1497 65.5632 57.5143 65.415 57.9244 65.415C58.3346 65.415 58.6683 65.529 58.9254 65.7568C59.1826 65.9814 59.3112 66.25 59.3112 66.5625V69.1357ZM57.0602 68.9941C57.0602 69.1504 57.1204 69.2871 57.2408 69.4043C57.3613 69.5182 57.498 69.5752 57.651 69.5752C57.8073 69.5752 57.9961 69.5101 58.2174 69.3799C58.4388 69.2464 58.5494 69.1097 58.5494 68.9697V67.9785C58.5494 67.9427 58.5413 67.9248 58.525 67.9248C58.5087 67.9248 58.4974 67.9264 58.4908 67.9297L57.358 68.457C57.2408 68.5417 57.1611 68.6133 57.1188 68.6719C57.0797 68.7305 57.0602 68.8379 57.0602 68.9941ZM60.8102 72.5928C61.1552 72.5114 61.3278 72.1436 61.3278 71.4893V66.6162C61.3278 66.4795 61.2529 66.3851 61.1031 66.333C61.038 66.3102 60.9681 66.2923 60.8932 66.2793C60.8183 66.263 60.7581 66.2484 60.7125 66.2354C60.6702 66.2223 60.6425 66.2109 60.6295 66.2012C60.6198 66.1882 60.6149 66.1637 60.6149 66.1279C60.6149 66.0889 60.6393 66.0563 60.6881 66.0303L61.9332 65.4443C61.9723 65.4248 61.9967 65.415 62.0065 65.415C62.0618 65.415 62.0895 65.4541 62.0895 65.5322V70.5615C62.0895 71.0824 61.9821 71.556 61.7672 71.9824C61.6923 72.1289 61.6028 72.2624 61.4987 72.3828C61.2122 72.7669 60.8346 72.985 60.3658 73.0371C60.2096 73.0566 60.0452 73.0664 59.8727 73.0664C59.6969 73.0664 59.5227 72.9997 59.3502 72.8662C59.1777 72.736 59.0849 72.5944 59.0719 72.4414C59.0719 72.2656 59.1582 72.1354 59.3307 72.0508C59.386 72.0247 59.4349 72.0117 59.4772 72.0117C59.552 72.0117 59.7767 72.1549 60.151 72.4414C60.2845 72.5423 60.5042 72.5928 60.8102 72.5928ZM61.5719 64.043C61.4384 64.043 61.3196 64.0007 61.2155 63.916C61.1113 63.8314 61.0592 63.7142 61.0592 63.5645C61.0592 63.4115 61.108 63.291 61.2057 63.2031C61.3033 63.1152 61.4205 63.0713 61.5573 63.0713C61.694 63.0713 61.8079 63.1234 61.899 63.2275C61.9934 63.3317 62.0406 63.444 62.0406 63.5645C62.0406 63.6849 61.9967 63.7956 61.9088 63.8965C61.8209 63.9941 61.7086 64.043 61.5719 64.043ZM64.2281 67.3682C64.1728 67.3682 64.1451 67.487 64.1451 67.7246C64.1451 68.2292 64.2949 68.6523 64.5944 68.9941C64.8938 69.3359 65.2649 69.5068 65.7076 69.5068C66.1536 69.5068 66.5817 69.3148 66.9918 68.9307C66.9983 68.9242 67.0065 68.9209 67.0162 68.9209H67.0406C67.0602 68.9209 67.0781 68.9372 67.0944 68.9697C67.1139 68.999 67.1318 69.0186 67.1481 69.0283C66.7705 69.4873 66.3261 69.8047 65.8151 69.9805C65.6393 70.0423 65.4407 70.0732 65.2194 70.0732C64.998 70.0732 64.7734 70.013 64.5455 69.8926C64.3177 69.7689 64.1224 69.6077 63.9596 69.4092C63.6145 68.9958 63.442 68.4814 63.442 67.8662C63.442 67.2477 63.6292 66.6846 64.0035 66.1768C64.3811 65.6689 64.8987 65.415 65.5563 65.415C66.0283 65.415 66.414 65.6266 66.7135 66.0498C67.013 66.4697 67.1627 66.8392 67.1627 67.1582C67.1627 67.2982 67.1285 67.3682 67.0602 67.3682H64.2281ZM64.2819 66.8994C64.2819 66.9613 64.3112 66.9922 64.3698 66.9922H66.2106C66.2952 66.9922 66.3375 66.9417 66.3375 66.8408C66.3375 66.6064 66.2317 66.3672 66.0201 66.123C65.8118 65.8757 65.5823 65.752 65.3317 65.752C65.0875 65.752 64.8645 65.8626 64.6627 66.084C64.4642 66.3053 64.3372 66.5576 64.2819 66.8408V66.8994ZM71.816 66.001C71.816 66.2288 71.6842 66.3428 71.4205 66.3428C71.2871 66.3428 71.1731 66.3053 71.0787 66.2305C70.9876 66.1523 70.916 66.0872 70.8639 66.0352C70.8151 65.9798 70.763 65.9294 70.7076 65.8838C70.4733 65.6917 70.1868 65.6706 69.8483 65.8203C69.513 65.9701 69.2542 66.2891 69.0719 66.7773C68.971 67.0475 68.9205 67.3161 68.9205 67.583C68.9205 68.1559 69.0507 68.6247 69.3112 68.9893C69.5716 69.3506 69.9703 69.5312 70.5074 69.5312C70.9078 69.5312 71.2675 69.3522 71.5865 68.9941C71.6842 68.8867 71.7428 68.833 71.7623 68.833C71.7819 68.833 71.803 68.8428 71.8258 68.8623C71.8486 68.8818 71.86 68.9111 71.86 68.9502C71.86 68.986 71.8502 69.0137 71.8307 69.0332C71.3326 69.7266 70.706 70.0732 69.9508 70.0732C69.4039 70.0732 68.9547 69.8698 68.6031 69.4629C68.2548 69.056 68.0807 68.5905 68.0807 68.0664C68.0839 67.0964 68.3183 66.3981 68.7838 65.9717C69.194 65.5973 69.7783 65.4102 70.5367 65.4102C71.0055 65.4102 71.3164 65.4574 71.4694 65.5518C71.6224 65.6462 71.7298 65.765 71.7916 65.9082C71.8079 65.9408 71.816 65.9717 71.816 66.001ZM73.7301 66.1865C73.7106 66.1865 73.7008 66.2012 73.7008 66.2305V68.9258C73.7008 69.1211 73.7431 69.2741 73.8278 69.3848C73.9156 69.4954 74.0263 69.5508 74.1598 69.5508C74.2933 69.5508 74.4088 69.5296 74.5065 69.4873C74.6074 69.4417 74.6936 69.3929 74.7653 69.3408C74.8401 69.2887 74.9069 69.2415 74.9655 69.1992C75.024 69.1536 75.0761 69.1309 75.1217 69.1309C75.1673 69.1309 75.1901 69.1423 75.1901 69.165C75.1901 69.2432 75.1819 69.2936 75.1656 69.3164C74.775 69.821 74.3974 70.0732 74.0328 70.0732C73.6715 70.0732 73.3981 69.9593 73.2125 69.7314C73.0302 69.5003 72.9391 69.2253 72.9391 68.9062V66.1865H72.5729C72.4817 66.1865 72.4329 66.1572 72.4264 66.0986C72.4231 66.04 72.4329 66.0026 72.4557 65.9863C72.6282 65.8757 72.8658 65.6771 73.1686 65.3906C73.2011 65.3548 73.2451 65.3011 73.3004 65.2295C73.3558 65.1579 73.4355 65.0602 73.5397 64.9365C73.6471 64.8128 73.7285 64.751 73.7838 64.751C73.8392 64.751 73.8668 64.7738 73.8668 64.8193C73.8668 64.8258 73.8115 65.0391 73.7008 65.459C73.7008 65.5176 73.7268 65.5485 73.7789 65.5518H75.024C75.1673 65.5518 75.2389 65.7536 75.2389 66.1572C75.2389 66.1768 75.2259 66.1865 75.1998 66.1865H73.7301ZM75.7321 67.749C75.7321 67.1077 75.9583 66.5576 76.4108 66.0986C76.8665 65.6364 77.4117 65.4053 78.0465 65.4053C78.6813 65.4053 79.233 65.6299 79.7018 66.0791C80.1705 66.5251 80.4049 67.0768 80.4049 67.7344C80.4049 68.3919 80.1819 68.9469 79.736 69.3994C79.2933 69.8486 78.7366 70.0732 78.066 70.0732C77.3955 70.0732 76.8388 69.8454 76.3961 69.3896C75.9534 68.9339 75.7321 68.387 75.7321 67.749ZM76.9479 69.0039C77.2669 69.541 77.7015 69.8096 78.2516 69.8096C78.678 69.8096 79.0035 69.6387 79.2281 69.2969C79.456 68.9551 79.5699 68.5352 79.5699 68.0371C79.5699 67.5391 79.4104 67.028 79.0914 66.5039C78.7757 65.9798 78.3492 65.7178 77.8121 65.7178C77.4183 65.7178 77.1074 65.8887 76.8795 66.2305C76.6549 66.569 76.5426 67.0003 76.5426 67.5244C76.5426 68.0452 76.6777 68.5384 76.9479 69.0039ZM81.1178 69.9414C81.0852 69.9349 81.069 69.9121 81.069 69.873C81.069 69.8145 81.1455 69.7754 81.2985 69.7559C81.65 69.7038 81.8258 69.5182 81.8258 69.1992V66.6162C81.8258 66.4795 81.7509 66.3851 81.6012 66.333C81.5361 66.3102 81.4661 66.2923 81.3912 66.2793C81.3164 66.263 81.2561 66.2484 81.2106 66.2354C81.1683 66.2223 81.1406 66.2109 81.1276 66.2012C81.1178 66.1882 81.1129 66.1637 81.1129 66.1279C81.1129 66.0889 81.1373 66.0563 81.1862 66.0303L82.4313 65.4443C82.4703 65.4248 82.4948 65.415 82.5045 65.415C82.5599 65.415 82.5875 65.4541 82.5875 65.5322V69.1992C82.5875 69.5182 82.7633 69.7038 83.1149 69.7559C83.2679 69.7754 83.3444 69.8096 83.3444 69.8584C83.3444 69.9072 83.3281 69.9349 83.2955 69.9414H81.1178ZM82.1334 64.043C82 64.043 81.8811 64.0007 81.777 63.916C81.6761 63.8314 81.6256 63.7142 81.6256 63.5645C81.6256 63.4115 81.6744 63.291 81.7721 63.2031C81.8698 63.1152 81.9853 63.0713 82.1188 63.0713C82.2555 63.0713 82.3694 63.1234 82.4606 63.2275C82.555 63.3317 82.6022 63.444 82.6022 63.5645C82.6022 63.6849 82.5582 63.7956 82.4703 63.8965C82.3824 63.9941 82.2701 64.043 82.1334 64.043ZM86.899 66.4404C86.86 66.4339 86.803 66.4128 86.7281 66.377C86.458 66.2533 86.2464 66.1914 86.0934 66.1914C85.9404 66.1914 85.7793 66.2874 85.61 66.4795C85.444 66.6683 85.361 66.8392 85.361 66.9922V69.1992C85.361 69.4434 85.5026 69.6061 85.7858 69.6875C85.9095 69.7201 86.025 69.7445 86.1324 69.7607C86.2399 69.7738 86.3082 69.7868 86.3375 69.7998C86.3701 69.8128 86.3864 69.8389 86.3864 69.8779C86.3864 69.9137 86.3701 69.9349 86.3375 69.9414H83.8912C83.8587 69.9349 83.8424 69.9121 83.8424 69.873C83.8424 69.8145 83.9189 69.7754 84.0719 69.7559C84.4235 69.7038 84.5992 69.5182 84.5992 69.1992V66.6162C84.5992 66.4795 84.5244 66.3851 84.3746 66.333C84.3095 66.3102 84.2395 66.2923 84.1647 66.2793C84.0898 66.263 84.0296 66.2484 83.984 66.2354C83.9417 66.2223 83.914 66.2109 83.901 66.2012C83.8912 66.1882 83.8864 66.1637 83.8864 66.1279C83.8864 66.0889 83.9108 66.0563 83.9596 66.0303L85.2047 65.4443C85.2438 65.4248 85.2682 65.415 85.278 65.415C85.3333 65.415 85.361 65.4541 85.361 65.5322V66.3232C85.361 66.3623 85.3707 66.3818 85.3903 66.3818C85.4163 66.3818 85.483 66.3053 85.5905 66.1523C85.8997 65.7194 86.1552 65.5029 86.3571 65.5029C86.471 65.5029 86.6451 65.5485 86.8795 65.6396C87.1171 65.7308 87.236 65.8073 87.236 65.8691C87.236 65.944 87.1985 66.0579 87.1237 66.2109C87.0488 66.3639 86.9739 66.4404 86.899 66.4404ZM88.3688 67.3682C88.3134 67.3682 88.2858 67.487 88.2858 67.7246C88.2858 68.2292 88.4355 68.6523 88.735 68.9941C89.0345 69.3359 89.4056 69.5068 89.8483 69.5068C90.2942 69.5068 90.7223 69.3148 91.1324 68.9307C91.139 68.9242 91.1471 68.9209 91.1569 68.9209H91.1813C91.2008 68.9209 91.2187 68.9372 91.235 68.9697C91.2545 68.999 91.2724 69.0186 91.2887 69.0283C90.9111 69.4873 90.4668 69.8047 89.9557 69.9805C89.7799 70.0423 89.5813 70.0732 89.36 70.0732C89.1386 70.0732 88.914 70.013 88.6862 69.8926C88.4583 69.7689 88.263 69.6077 88.1002 69.4092C87.7552 68.9958 87.5826 68.4814 87.5826 67.8662C87.5826 67.2477 87.7698 66.6846 88.1442 66.1768C88.5218 65.6689 89.0393 65.415 89.6969 65.415C90.1689 65.415 90.5546 65.6266 90.8541 66.0498C91.1536 66.4697 91.3033 66.8392 91.3033 67.1582C91.3033 67.2982 91.2692 67.3682 91.2008 67.3682H88.3688ZM88.4225 66.8994C88.4225 66.9613 88.4518 66.9922 88.5104 66.9922H90.3512C90.4358 66.9922 90.4781 66.9417 90.4781 66.8408C90.4781 66.6064 90.3724 66.3672 90.1608 66.123C89.9524 65.8757 89.7229 65.752 89.4723 65.752C89.2281 65.752 89.0052 65.8626 88.8033 66.084C88.6048 66.3053 88.4778 66.5576 88.4225 66.8408V66.8994ZM95.8834 68.1299C95.8834 68.1722 95.8492 68.1934 95.7809 68.1934C95.7125 68.1934 95.6084 68.0387 95.4684 67.7295C95.3317 67.4202 95.2617 67.1924 95.2584 67.0459C95.2552 66.8994 95.2714 66.7773 95.3073 66.6797C95.3463 66.5788 95.3984 66.4941 95.4635 66.4258C95.5286 66.3542 95.6051 66.2939 95.693 66.2451C95.7809 66.1963 95.8737 66.1523 95.9713 66.1133C96.069 66.0742 96.1699 66.0384 96.274 66.0059C96.3815 65.9701 96.4856 65.931 96.5865 65.8887C96.8079 65.7975 97.0032 65.6478 97.1725 65.4395C97.3418 65.2279 97.4264 65.013 97.4264 64.7949C97.4264 64.3978 97.2767 64.1374 96.9772 64.0137C96.6777 63.8867 96.1634 63.8232 95.4342 63.8232C95.2063 63.8102 95.0468 63.7435 94.9557 63.623C94.9231 63.5775 94.9069 63.5205 94.9069 63.4521C94.9069 63.1722 95.1819 63.0322 95.7321 63.0322C96.2854 63.0322 96.7444 63.2113 97.109 63.5693C97.4736 63.9274 97.6559 64.3864 97.6559 64.9463C97.6559 65.5029 97.4215 65.9782 96.9528 66.3721C96.7314 66.5576 96.5263 66.6813 96.3375 66.7432C96.1487 66.8018 96.0087 66.8555 95.9176 66.9043C95.7028 67.015 95.5953 67.168 95.5953 67.3633C95.5953 67.4642 95.636 67.5944 95.7174 67.7539C95.802 67.9134 95.8574 68.0387 95.8834 68.1299ZM95.2145 69.502C95.2145 69.349 95.2698 69.2171 95.3805 69.1064C95.4912 68.9958 95.623 68.9404 95.776 68.9404C95.9257 68.9404 96.0559 68.9958 96.1666 69.1064C96.2773 69.2171 96.3326 69.349 96.3326 69.502C96.3326 69.6549 96.2773 69.7884 96.1666 69.9023C96.0592 70.0163 95.929 70.0732 95.776 70.0732C95.6198 70.0732 95.4863 70.0163 95.3756 69.9023C95.2682 69.7884 95.2145 69.6549 95.2145 69.502Z" fill="#EFB85F"/>
<path d="M17.5002 10L18.696 11.9748L21 13L18.696 14.0249L17.5002 16L16.304 14.0249L14 13L16.304 11.9748L17.5002 10Z" fill="#EFB85F"/>
<path d="M17.5002 86L18.696 87.9748L21 89L18.696 90.0249L17.5002 92L16.304 90.0249L14 89L16.304 87.9748L17.5002 86Z" fill="#EFB85F"/>
<path d="M124.5 84L125.696 85.9748L128 87L125.696 88.0249L124.5 90L123.304 88.0249L121 87L123.304 85.9748L124.5 84Z" fill="#EFB85F"/>
<path d="M80.5002 90L81.696 91.9748L84 93L81.696 94.0249L80.5002 96L79.304 94.0249L77 93L79.304 91.9748L80.5002 90Z" fill="#EFB85F"/>
<path d="M120.5 7L121.696 8.97475L124 10L121.696 11.0249L120.5 13L119.304 11.0249L117 10L119.304 8.97475L120.5 7Z" fill="#EFB85F"/>
<path d="M95.125 16.6259C95.1509 16.3615 95.1942 15.7335 95.2288 15.2377C95.2634 14.6647 95.324 14.3011 95.3932 14.2681C95.4538 14.235 95.7307 14.4113 95.999 14.6537C96.2759 14.9071 96.5182 15.0834 96.5441 15.0504C96.5615 15.0283 96.397 14.6757 96.1807 14.2791C95.9038 13.7943 95.8086 13.5519 95.8865 13.5189C95.9471 13.4968 96.3884 13.4197 96.8643 13.3426C98.3873 13.1222 98.3787 13.001 96.8384 12.7917C96.3019 12.7145 95.8519 12.6154 95.8346 12.5823C95.8086 12.5382 95.973 12.2187 96.1807 11.8661C96.3884 11.5025 96.5441 11.183 96.5182 11.15C96.4922 11.1279 96.2326 11.3152 95.9471 11.5687C95.6528 11.8331 95.3932 11.9984 95.3586 11.9543C95.3154 11.8992 95.2461 11.2381 95.1856 10.4779C95.0298 8.49462 94.9606 8.50564 94.7962 10.5219C94.7356 11.2822 94.6664 11.9433 94.6317 11.9763C94.6058 12.0094 94.3462 11.8331 94.052 11.5797C93.7664 11.3152 93.5155 11.1279 93.4895 11.161C93.4722 11.183 93.602 11.4805 93.7924 11.8111C93.9827 12.1306 94.1385 12.4611 94.1385 12.5272C94.1385 12.6044 93.7664 12.7035 93.1607 12.7917C91.6117 13.001 91.6117 13.1222 93.1693 13.3536C93.7577 13.4417 94.1385 13.5519 94.1385 13.618C94.1385 13.6841 93.9827 14.0147 93.7924 14.3342C93.3857 15.0283 93.351 15.2046 93.6799 14.9292C93.8183 14.83 94.0693 14.6096 94.251 14.4554C94.6664 14.1138 94.701 14.1689 94.7789 15.3589C94.8913 17.1107 95.0211 17.5735 95.125 16.6259Z" fill="#EFB85F"/>
<path d="M39.125 89.6259C39.1509 89.3615 39.1942 88.7335 39.2288 88.2377C39.2634 87.6647 39.324 87.3011 39.3932 87.2681C39.4538 87.235 39.7307 87.4113 39.999 87.6537C40.2759 87.9071 40.5182 88.0834 40.5441 88.0504C40.5615 88.0283 40.397 87.6757 40.1807 87.2791C39.9038 86.7943 39.8086 86.5519 39.8865 86.5189C39.9471 86.4968 40.3884 86.4197 40.8643 86.3426C42.3873 86.1222 42.3787 86.001 40.8384 85.7917C40.3019 85.7145 39.8519 85.6154 39.8346 85.5823C39.8086 85.5382 39.973 85.2187 40.1807 84.8661C40.3884 84.5025 40.5441 84.183 40.5182 84.15C40.4922 84.1279 40.2326 84.3152 39.9471 84.5687C39.6528 84.8331 39.3932 84.9984 39.3586 84.9543C39.3154 84.8992 39.2461 84.2381 39.1856 83.4779C39.0298 81.4946 38.9606 81.5056 38.7962 83.5219C38.7356 84.2822 38.6664 84.9433 38.6317 84.9763C38.6058 85.0094 38.3462 84.8331 38.052 84.5797C37.7664 84.3152 37.5155 84.1279 37.4895 84.161C37.4722 84.183 37.602 84.4805 37.7924 84.8111C37.9827 85.1306 38.1385 85.4611 38.1385 85.5272C38.1385 85.6044 37.7664 85.7035 37.1607 85.7917C35.6117 86.001 35.6117 86.1222 37.1693 86.3536C37.7577 86.4417 38.1385 86.5519 38.1385 86.618C38.1385 86.6841 37.9827 87.0147 37.7924 87.3342C37.3857 88.0283 37.351 88.2046 37.6799 87.9292C37.8183 87.83 38.0693 87.6096 38.251 87.4554C38.6664 87.1138 38.701 87.1689 38.7789 88.3589C38.8913 90.1107 39.0211 90.5735 39.125 89.6259Z" fill="#EFB85F"/>
<path d="M110.125 99.6259C110.151 99.3615 110.194 98.7335 110.229 98.2377C110.263 97.6647 110.324 97.3011 110.393 97.2681C110.454 97.235 110.731 97.4113 110.999 97.6537C111.276 97.9071 111.518 98.0834 111.544 98.0504C111.561 98.0283 111.397 97.6757 111.181 97.2791C110.904 96.7943 110.809 96.5519 110.886 96.5189C110.947 96.4968 111.388 96.4197 111.864 96.3426C113.387 96.1222 113.379 96.001 111.838 95.7917C111.302 95.7145 110.852 95.6154 110.835 95.5823C110.809 95.5382 110.973 95.2187 111.181 94.8661C111.388 94.5025 111.544 94.183 111.518 94.15C111.492 94.1279 111.233 94.3152 110.947 94.5687C110.653 94.8331 110.393 94.9984 110.359 94.9543C110.315 94.8992 110.246 94.2381 110.186 93.4779C110.03 91.4946 109.961 91.5056 109.796 93.5219C109.736 94.2822 109.666 94.9433 109.632 94.9763C109.606 95.0094 109.346 94.8331 109.052 94.5797C108.766 94.3152 108.515 94.1279 108.489 94.161C108.472 94.183 108.602 94.4805 108.792 94.8111C108.983 95.1306 109.138 95.4611 109.138 95.5272C109.138 95.6044 108.766 95.7035 108.161 95.7917C106.612 96.001 106.612 96.1222 108.169 96.3536C108.758 96.4417 109.138 96.5519 109.138 96.618C109.138 96.6841 108.983 97.0147 108.792 97.3342C108.386 98.0283 108.351 98.2046 108.68 97.9292C108.818 97.83 109.069 97.6096 109.251 97.4554C109.666 97.1138 109.701 97.1689 109.779 98.3589C109.891 100.111 110.021 100.573 110.125 99.6259Z" fill="#EFB85F"/>
<path d="M53.125 12.6259C53.1509 12.3615 53.1942 11.7335 53.2288 11.2377C53.2634 10.6647 53.324 10.3011 53.3932 10.2681C53.4538 10.235 53.7307 10.4113 53.999 10.6537C54.2759 10.9071 54.5182 11.0834 54.5441 11.0504C54.5615 11.0283 54.397 10.6757 54.1807 10.2791C53.9038 9.7943 53.8086 9.55191 53.8865 9.51885C53.9471 9.49682 54.3884 9.41969 54.8643 9.34256C56.3873 9.1222 56.3787 9.001 54.8384 8.79166C54.3019 8.71453 53.8519 8.61537 53.8346 8.58232C53.8086 8.53825 53.973 8.21872 54.1807 7.86614C54.3884 7.50255 54.5441 7.18302 54.5182 7.14997C54.4922 7.12793 54.2326 7.31524 53.9471 7.56866C53.6528 7.83309 53.3932 7.99836 53.3586 7.95429C53.3154 7.8992 53.2461 7.23811 53.1856 6.47787C53.0298 4.49462 52.9606 4.50564 52.7962 6.52194C52.7356 7.28219 52.6664 7.94327 52.6317 7.97632C52.6058 8.00938 52.3462 7.83309 52.052 7.57967C51.7664 7.31524 51.5155 7.12793 51.4895 7.16099C51.4722 7.18302 51.602 7.48051 51.7924 7.81105C51.9827 8.13058 52.1385 8.46112 52.1385 8.52723C52.1385 8.60435 51.7664 8.70352 51.1607 8.79166C49.6117 9.001 49.6117 9.1222 51.1693 9.35358C51.7577 9.44173 52.1385 9.55191 52.1385 9.61802C52.1385 9.68412 51.9827 10.0147 51.7924 10.3342C51.3857 11.0283 51.351 11.2046 51.6799 10.9292C51.8183 10.83 52.0693 10.6096 52.251 10.4554C52.6664 10.1138 52.701 10.1689 52.7789 11.3589C52.8913 13.1107 53.0211 13.5735 53.125 12.6259Z" fill="#EFB85F"/>
<circle cx="26" cy="81" r="1" fill="#EFB85F"/>
<circle cx="57" cy="96" r="1" fill="#EFB85F"/>
<circle cx="111" cy="84" r="1" fill="#EFB85F"/>
<circle cx="139" cy="16" r="1" fill="#EFB85F"/>
<circle cx="143" cy="55" r="1" fill="#EFB85F"/>
<circle cx="139" cy="93" r="1" fill="#EFB85F"/>
<circle cx="36" cy="10" r="1" fill="#EFB85F"/>
<circle cx="75" cy="6" r="1" fill="#EFB85F"/>
<path d="M30.1536 96.762L33.0001 96.6487L30.1536 96.5354L31.0464 95.3761L30.0932 96.4619L30 93L29.9069 96.4619L28.9537 95.3761L29.8465 96.5354L27 96.6487L29.8465 96.762L28.9537 97.9212L29.9069 96.8354L30 100.297L30.0932 96.8354L31.0464 97.9212L30.1536 96.762Z" fill="#EFB85F"/>
<path d="M11.1536 76.762L14.0001 76.6487L11.1536 76.5354L12.0464 75.3761L11.0932 76.4619L11 73L10.9069 76.4619L9.95375 75.3761L10.8465 76.5354L8 76.6487L10.8465 76.762L9.95375 77.9212L10.9069 76.8354L11 80.2973L11.0932 76.8354L12.0464 77.9212L11.1536 76.762Z" fill="#EFB85F"/>
<path d="M68.1536 11.762L71.0001 11.6487L68.1536 11.5354L69.0464 10.3761L68.0932 11.4619L68 8L67.9069 11.4619L66.9537 10.3761L67.8465 11.5354L65 11.6487L67.8465 11.762L66.9537 12.9212L67.9069 11.8354L68 15.2973L68.0932 11.8354L69.0464 12.9212L68.1536 11.762Z" fill="#EFB85F"/>
<path d="M137.154 76.762L140 76.6487L137.154 76.5354L138.046 75.3761L137.093 76.4619L137 73L136.907 76.4619L135.954 75.3761L136.847 76.5354L134 76.6487L136.847 76.762L135.954 77.9212L136.907 76.8354L137 80.2973L137.093 76.8354L138.046 77.9212L137.154 76.762Z" fill="#EFB85F"/>
<path d="M129.154 95.762L132 95.6487L129.154 95.5354L130.046 94.3761L129.093 95.4619L129 92L128.907 95.4619L127.954 94.3761L128.847 95.5354L126 95.6487L128.847 95.762L127.954 96.9212L128.907 95.8354L129 99.2973L129.093 95.8354L130.046 96.9212L129.154 95.762Z" fill="#EFB85F"/>
<path d="M8.15357 18.762L11.0001 18.6487L8.15357 18.5354L9.04635 17.3761L8.09316 18.4619L8.00005 15L7.90694 18.4619L6.95375 17.3761L7.84653 18.5354L5 18.6487L7.84653 18.762L6.95375 19.9212L7.90694 18.8354L8.00005 22.2973L8.09316 18.8354L9.04635 19.9212L8.15357 18.762Z" fill="#EFB85F"/>
</svg>
