<svg width="148" height="105" viewBox="0 0 148 105" fill="none" xmlns="http://www.w3.org/2000/svg">
<rect width="147.402" height="104.882" rx="10" fill="black"/>
<path d="M28.9156 41.9409C28.8896 41.9409 28.8766 41.9279 28.8766 41.9019V41.7847C28.8766 41.7586 28.8896 41.7456 28.9156 41.7456H29.0328C29.3128 41.7456 29.5569 41.687 29.7653 41.5698C29.8499 41.521 29.9199 41.4461 29.9752 41.3452C30.0306 41.241 30.0582 41.1255 30.0582 40.9985V35.8325C30.0582 35.6307 29.928 35.4761 29.6676 35.3687C29.4853 35.2905 29.2916 35.2515 29.0865 35.2515H28.9791C28.9531 35.2515 28.9401 35.2384 28.9401 35.2124V35.0952C28.9401 35.0692 28.9531 35.0562 28.9791 35.0562H32.2848C32.3108 35.0562 32.3239 35.0692 32.3239 35.0952V35.2124C32.3239 35.2384 32.3108 35.2515 32.2848 35.2515H32.0748C31.7395 35.2515 31.4433 35.2987 31.1862 35.3931C31.1113 35.4191 31.0625 35.4631 31.0397 35.5249C31.0201 35.5835 31.0104 35.686 31.0104 35.8325V41.2476C31.0169 41.3029 31.0462 41.355 31.0983 41.4038C31.1503 41.4526 31.2089 41.4771 31.274 41.4771H33.2028C33.4925 41.4771 33.7773 41.3062 34.0573 40.9644C34.1321 40.8732 34.2249 40.7528 34.3356 40.603C34.4462 40.45 34.5146 40.3638 34.5406 40.3442C34.6448 40.2661 34.6969 40.2677 34.6969 40.3491C34.6969 40.3687 34.692 40.3882 34.6823 40.4077L33.9449 41.853C33.9156 41.9116 33.8815 41.9409 33.8424 41.9409H28.9156ZM35.8639 39.3677C35.8086 39.3677 35.7809 39.4865 35.7809 39.7241C35.7809 40.2287 35.9306 40.6519 36.2301 40.9937C36.5296 41.3354 36.9007 41.5063 37.3434 41.5063C37.7893 41.5063 38.2174 41.3143 38.6276 40.9302C38.6341 40.9237 38.6422 40.9204 38.652 40.9204H38.6764C38.6959 40.9204 38.7138 40.9367 38.7301 40.9692C38.7496 40.9985 38.7675 41.0181 38.7838 41.0278C38.4062 41.4868 37.9619 41.8042 37.4508 41.98C37.275 42.0418 37.0765 42.0728 36.8551 42.0728C36.6337 42.0728 36.4091 42.0125 36.1813 41.8921C35.9534 41.7684 35.7581 41.6073 35.5953 41.4087C35.2503 40.9953 35.0778 40.481 35.0778 39.8657C35.0778 39.2472 35.2649 38.6841 35.6393 38.1763C36.0169 37.6685 36.5345 37.4146 37.192 37.4146C37.664 37.4146 38.0498 37.6261 38.3492 38.0493C38.6487 38.4692 38.7985 38.8387 38.7985 39.1577C38.7985 39.2977 38.7643 39.3677 38.6959 39.3677H35.8639ZM35.9176 38.8989C35.9176 38.9608 35.9469 38.9917 36.0055 38.9917H37.8463C37.9309 38.9917 37.9733 38.9412 37.9733 38.8403C37.9733 38.606 37.8675 38.3667 37.6559 38.1226C37.4476 37.8752 37.2181 37.7515 36.9674 37.7515C36.7233 37.7515 36.5003 37.8621 36.2985 38.0835C36.0999 38.3049 35.9729 38.5571 35.9176 38.8403V38.8989ZM41.9869 38.6011C41.9869 38.6727 41.9593 38.7085 41.9039 38.7085C41.8518 38.7085 41.8112 38.6694 41.7819 38.5913C41.7037 38.3765 41.5865 38.186 41.4303 38.02C41.2773 37.854 41.0869 37.771 40.859 37.771C40.5595 37.771 40.3577 37.9207 40.2535 38.2202C40.221 38.3211 40.2047 38.4253 40.2047 38.5327C40.2047 38.6401 40.2731 38.7606 40.4098 38.894C40.5465 39.0243 40.7711 39.1805 41.0836 39.3628C41.3961 39.5451 41.624 39.6997 41.7672 39.8267C42.0927 40.1164 42.2555 40.4517 42.2555 40.8325C42.2555 41.2134 42.1155 41.5161 41.8356 41.7407C41.5556 41.9621 41.2301 42.0728 40.859 42.0728C40.6604 42.0728 40.4798 42.0451 40.317 41.9897C40.1575 41.9377 40.0647 41.9116 40.0387 41.9116C40.0159 41.9116 39.9768 41.9377 39.9215 41.9897C39.8694 42.0451 39.8271 42.0728 39.7946 42.0728H39.7115C39.692 42.0728 39.6676 41.897 39.6383 41.5454C39.609 41.1938 39.5944 40.9855 39.5944 40.9204C39.5944 40.8553 39.5992 40.8195 39.609 40.813C39.622 40.8065 39.6416 40.8032 39.6676 40.8032C39.6936 40.8032 39.7148 40.8114 39.7311 40.8276C39.7506 40.8439 39.7669 40.8651 39.7799 40.8911C39.7929 40.9139 39.8027 40.9383 39.8092 40.9644C39.819 40.9904 39.8401 41.0392 39.8727 41.1108C40.094 41.5828 40.4358 41.8188 40.8981 41.8188C41.1031 41.8188 41.2675 41.744 41.3912 41.5942C41.5149 41.4412 41.5768 41.272 41.5768 41.0864C41.5768 40.9009 41.528 40.7446 41.4303 40.6177C41.3326 40.4907 41.2106 40.3752 41.0641 40.271C40.9209 40.1668 40.7646 40.0659 40.5953 39.9683C39.9378 39.5841 39.609 39.1593 39.609 38.6938C39.609 38.3455 39.7587 38.0461 40.0582 37.7954C40.3577 37.5415 40.6653 37.4146 40.9811 37.4146C41.2968 37.4146 41.5296 37.4487 41.6793 37.5171C41.8323 37.5854 41.9218 37.644 41.9479 37.6929C41.9739 37.7384 41.9869 37.8914 41.9869 38.1519V38.6011ZM49.3307 41.4282C48.8815 41.8579 48.3769 42.0728 47.817 42.0728C47.6152 42.0728 47.3401 42.0353 46.9918 41.9604C46.9365 41.9604 46.9056 41.98 46.899 42.019C46.8958 42.0581 46.8925 42.0988 46.8893 42.1411V44.2261C46.8893 44.4702 47.0309 44.633 47.3141 44.7144C47.4378 44.7469 47.5533 44.7697 47.6608 44.7827C47.7682 44.799 47.8365 44.8136 47.8658 44.8267C47.8984 44.8397 47.9147 44.8641 47.9147 44.8999C47.9147 44.939 47.8984 44.9618 47.8658 44.9683H45.4196C45.387 44.9618 45.3707 44.939 45.3707 44.8999C45.3707 44.8413 45.4472 44.8022 45.6002 44.7827C45.9518 44.7306 46.1276 44.5451 46.1276 44.2261V38.3716C46.1276 38.2349 46.0527 38.1405 45.903 38.0884C45.8378 38.0656 45.7679 38.0477 45.693 38.0347C45.6181 38.0184 45.5579 38.0037 45.5123 37.9907C45.47 37.9777 45.4423 37.9663 45.4293 37.9565C45.4196 37.9435 45.4147 37.9191 45.4147 37.8833C45.4147 37.8442 45.4391 37.8117 45.4879 37.7856L46.733 37.1899C46.7591 37.1769 46.7851 37.1704 46.8112 37.1704C46.8632 37.1704 46.8893 37.2095 46.8893 37.2876V37.9077C46.8893 37.9435 46.9072 37.9614 46.943 37.9614C46.9821 37.9614 47.0732 37.9142 47.2164 37.8198C47.6298 37.5529 48.0595 37.4194 48.5055 37.4194C48.818 37.4194 49.1045 37.5464 49.3649 37.8003C49.7067 38.1323 49.9345 38.5946 50.0485 39.187C50.081 39.3563 50.0973 39.5369 50.0973 39.729C50.0973 39.9178 50.0664 40.118 50.0045 40.3296C49.8808 40.7495 49.6562 41.1157 49.3307 41.4282ZM47.9342 37.9272C47.4915 37.9272 47.1432 38.0542 46.8893 38.3081V41.0522C46.8893 41.215 46.917 41.3208 46.9723 41.3696C47.1155 41.4933 47.3352 41.5894 47.6315 41.6577C48.2174 41.7912 48.6731 41.6512 48.9987 41.2378C49.2298 40.9416 49.3453 40.5835 49.3453 40.1636C49.3453 39.3465 49.1614 38.7345 48.7936 38.3276C48.5722 38.0802 48.2858 37.9468 47.9342 37.9272ZM51.0006 39.7485C51.0006 39.1073 51.2268 38.5571 51.6793 38.0981C52.1351 37.6359 52.6803 37.4048 53.3151 37.4048C53.9498 37.4048 54.5016 37.6294 54.9703 38.0786C55.4391 38.5246 55.6735 39.0763 55.6735 39.7339C55.6735 40.3914 55.4505 40.9465 55.0045 41.3989C54.5618 41.8481 54.0052 42.0728 53.3346 42.0728C52.664 42.0728 52.1074 41.8449 51.6647 41.3892C51.222 40.9334 51.0006 40.3866 51.0006 39.7485ZM52.2164 41.0034C52.5354 41.5405 52.97 41.8091 53.5201 41.8091C53.9466 41.8091 54.2721 41.6382 54.4967 41.2964C54.7246 40.9546 54.8385 40.5347 54.8385 40.0366C54.8385 39.5386 54.679 39.0275 54.36 38.5034C54.0442 37.9793 53.6178 37.7173 53.0807 37.7173C52.6868 37.7173 52.3759 37.8882 52.1481 38.23C51.9235 38.5685 51.8112 38.9998 51.8112 39.5239C51.8112 40.0448 51.9462 40.5379 52.2164 41.0034ZM56.3864 41.9409C56.3538 41.9344 56.3375 41.9116 56.3375 41.8726C56.3375 41.814 56.414 41.7749 56.567 41.7554C56.9186 41.7033 57.0944 41.5177 57.0944 41.1987V38.6157C57.0944 38.479 57.0195 38.3846 56.8698 38.3325C56.8046 38.3097 56.7347 38.2918 56.6598 38.2788C56.5849 38.2625 56.5247 38.2479 56.4791 38.2349C56.4368 38.2218 56.4091 38.2104 56.3961 38.2007C56.3864 38.1877 56.3815 38.1632 56.3815 38.1274C56.3815 38.0884 56.4059 38.0558 56.4547 38.0298L57.6998 37.4438C57.7389 37.4243 57.7633 37.4146 57.7731 37.4146C57.8284 37.4146 57.8561 37.4536 57.8561 37.5317V41.1987C57.8561 41.5177 58.0319 41.7033 58.3834 41.7554C58.5364 41.7749 58.6129 41.8091 58.6129 41.8579C58.6129 41.9067 58.5966 41.9344 58.5641 41.9409H56.3864ZM57.402 36.0425C57.2685 36.0425 57.1497 36.0002 57.0455 35.9155C56.9446 35.8309 56.8942 35.7137 56.8942 35.564C56.8942 35.411 56.943 35.2905 57.0406 35.2026C57.1383 35.1147 57.2539 35.0708 57.3873 35.0708C57.524 35.0708 57.638 35.1229 57.7291 35.2271C57.8235 35.3312 57.8707 35.4435 57.8707 35.564C57.8707 35.6844 57.8268 35.7951 57.7389 35.896C57.651 35.9937 57.5387 36.0425 57.402 36.0425ZM62.7828 40.4028L62.7731 39.3726C62.7731 38.9526 62.7373 38.658 62.6656 38.4888C62.594 38.3195 62.5029 38.1925 62.3922 38.1079C62.2815 38.02 62.1318 37.9761 61.943 37.9761C61.7574 37.9761 61.3619 38.1226 60.7565 38.4155C60.6751 38.4644 60.6328 38.5099 60.6295 38.5522V41.1792C60.6295 41.508 60.8053 41.6968 61.1569 41.7456C61.3099 41.7684 61.3864 41.8058 61.3864 41.8579C61.3864 41.9067 61.3701 41.9344 61.3375 41.9409H59.1598C59.1272 41.9344 59.111 41.9116 59.111 41.8726C59.111 41.8107 59.1875 41.7684 59.3405 41.7456C59.692 41.6968 59.8678 41.508 59.8678 41.1792V38.3765C59.8678 38.2397 59.7929 38.1453 59.6432 38.0933C59.5781 38.0705 59.5081 38.0526 59.4332 38.0396C59.3584 38.0233 59.2981 38.0086 59.2526 37.9956C59.2102 37.9826 59.1826 37.9712 59.1696 37.9614C59.1598 37.9484 59.1549 37.924 59.1549 37.8882C59.1549 37.8491 59.1793 37.8166 59.2281 37.7905L60.4733 37.2046C60.5123 37.1851 60.5367 37.1753 60.5465 37.1753C60.6018 37.1753 60.6295 37.2144 60.6295 37.2925V38.0542C60.6393 38.0868 60.6523 38.103 60.6686 38.103C60.6881 38.103 60.7581 38.0737 60.8785 38.0151C61.1585 37.8752 61.4401 37.7401 61.7233 37.6099C62.0065 37.4797 62.2408 37.4146 62.4264 37.4146C63.1783 37.4146 63.5543 38.0998 63.5543 39.4702L63.5104 40.896V41.1792C63.5104 41.4331 63.6373 41.5991 63.8912 41.6772C63.9987 41.7131 64.1012 41.7391 64.1989 41.7554C64.2998 41.7684 64.3649 41.7814 64.3942 41.7944C64.4267 41.8075 64.443 41.8335 64.443 41.8726C64.443 41.9116 64.4267 41.9344 64.3942 41.9409H62.0406C62.0081 41.9344 61.9918 41.9116 61.9918 41.8726C61.9918 41.8107 62.0683 41.7684 62.2213 41.7456C62.5696 41.6968 62.7438 41.495 62.7438 41.1401C62.7698 40.9774 62.7828 40.7316 62.7828 40.4028ZM66.069 38.186C66.0494 38.186 66.0397 38.2007 66.0397 38.23V40.9253C66.0397 41.1206 66.082 41.2736 66.1666 41.3843C66.2545 41.495 66.3652 41.5503 66.4987 41.5503C66.6321 41.5503 66.7477 41.5291 66.8453 41.4868C66.9462 41.4412 67.0325 41.3924 67.1041 41.3403C67.179 41.2882 67.2457 41.241 67.3043 41.1987C67.3629 41.1532 67.415 41.1304 67.4606 41.1304C67.5061 41.1304 67.5289 41.1418 67.5289 41.1646C67.5289 41.2427 67.5208 41.2931 67.5045 41.3159C67.1139 41.8205 66.7363 42.0728 66.3717 42.0728C66.0104 42.0728 65.7369 41.9588 65.5514 41.731C65.3691 41.4998 65.278 41.2248 65.278 40.9058V38.186H64.9117C64.8206 38.186 64.7718 38.1567 64.7653 38.0981C64.762 38.0396 64.7718 38.0021 64.7946 37.9858C64.9671 37.8752 65.2047 37.6766 65.5074 37.3901C65.54 37.3543 65.5839 37.3006 65.6393 37.229C65.6946 37.1574 65.7744 37.0597 65.8785 36.936C65.986 36.8123 66.0673 36.7505 66.1227 36.7505C66.178 36.7505 66.2057 36.7733 66.2057 36.8188C66.2057 36.8254 66.1503 37.0386 66.0397 37.4585C66.0397 37.5171 66.0657 37.548 66.1178 37.5513H67.3629C67.5061 37.5513 67.5778 37.7531 67.5778 38.1567C67.5778 38.1763 67.5647 38.186 67.5387 38.186H66.069ZM70.4147 38.6011C70.4147 38.6727 70.387 38.7085 70.3317 38.7085C70.2796 38.7085 70.2389 38.6694 70.2096 38.5913C70.1315 38.3765 70.0143 38.186 69.858 38.02C69.705 37.854 69.5146 37.771 69.2867 37.771C68.9873 37.771 68.7854 37.9207 68.6813 38.2202C68.6487 38.3211 68.6324 38.4253 68.6324 38.5327C68.6324 38.6401 68.7008 38.7606 68.8375 38.894C68.9742 39.0243 69.1989 39.1805 69.5114 39.3628C69.8239 39.5451 70.0517 39.6997 70.1949 39.8267C70.5205 40.1164 70.6832 40.4517 70.6832 40.8325C70.6832 41.2134 70.5433 41.5161 70.2633 41.7407C69.9834 41.9621 69.6578 42.0728 69.2867 42.0728C69.0882 42.0728 68.9075 42.0451 68.7448 41.9897C68.5852 41.9377 68.4925 41.9116 68.4664 41.9116C68.4436 41.9116 68.4046 41.9377 68.3492 41.9897C68.2972 42.0451 68.2548 42.0728 68.2223 42.0728H68.1393C68.1198 42.0728 68.0953 41.897 68.066 41.5454C68.0367 41.1938 68.0221 40.9855 68.0221 40.9204C68.0221 40.8553 68.027 40.8195 68.0367 40.813C68.0498 40.8065 68.0693 40.8032 68.0953 40.8032C68.1214 40.8032 68.1425 40.8114 68.1588 40.8276C68.1783 40.8439 68.1946 40.8651 68.2076 40.8911C68.2207 40.9139 68.2304 40.9383 68.2369 40.9644C68.2467 40.9904 68.2679 41.0392 68.3004 41.1108C68.5218 41.5828 68.8636 41.8188 69.3258 41.8188C69.5309 41.8188 69.6953 41.744 69.819 41.5942C69.9427 41.4412 70.0045 41.272 70.0045 41.0864C70.0045 40.9009 69.9557 40.7446 69.858 40.6177C69.7604 40.4907 69.6383 40.3752 69.4918 40.271C69.3486 40.1668 69.1923 40.0659 69.0231 39.9683C68.3655 39.5841 68.0367 39.1593 68.0367 38.6938C68.0367 38.3455 68.1865 38.0461 68.486 37.7954C68.7854 37.5415 69.0931 37.4146 69.4088 37.4146C69.7246 37.4146 69.9573 37.4487 70.1071 37.5171C70.2601 37.5854 70.3496 37.644 70.3756 37.6929C70.4017 37.7384 70.4147 37.8914 70.4147 38.1519V38.6011ZM76.4498 38.6011C76.4498 38.6727 76.4222 38.7085 76.3668 38.7085C76.3147 38.7085 76.274 38.6694 76.2448 38.5913C76.1666 38.3765 76.0494 38.186 75.8932 38.02C75.7402 37.854 75.5498 37.771 75.3219 37.771C75.0224 37.771 74.8206 37.9207 74.7164 38.2202C74.6839 38.3211 74.6676 38.4253 74.6676 38.5327C74.6676 38.6401 74.736 38.7606 74.8727 38.894C75.0094 39.0243 75.234 39.1805 75.5465 39.3628C75.859 39.5451 76.0869 39.6997 76.2301 39.8267C76.5556 40.1164 76.7184 40.4517 76.7184 40.8325C76.7184 41.2134 76.5784 41.5161 76.2985 41.7407C76.0185 41.9621 75.693 42.0728 75.3219 42.0728C75.1233 42.0728 74.9427 42.0451 74.7799 41.9897C74.6204 41.9377 74.5276 41.9116 74.5016 41.9116C74.4788 41.9116 74.4397 41.9377 74.3844 41.9897C74.3323 42.0451 74.29 42.0728 74.2574 42.0728H74.1744C74.1549 42.0728 74.1305 41.897 74.1012 41.5454C74.0719 41.1938 74.0573 40.9855 74.0573 40.9204C74.0573 40.8553 74.0621 40.8195 74.0719 40.813C74.0849 40.8065 74.1045 40.8032 74.1305 40.8032C74.1565 40.8032 74.1777 40.8114 74.194 40.8276C74.2135 40.8439 74.2298 40.8651 74.2428 40.8911C74.2558 40.9139 74.2656 40.9383 74.2721 40.9644C74.2819 40.9904 74.303 41.0392 74.3356 41.1108C74.5569 41.5828 74.8987 41.8188 75.361 41.8188C75.566 41.8188 75.7304 41.744 75.8541 41.5942C75.9778 41.4412 76.0397 41.272 76.0397 41.0864C76.0397 40.9009 75.9908 40.7446 75.8932 40.6177C75.7955 40.4907 75.6735 40.3752 75.527 40.271C75.3837 40.1668 75.2275 40.0659 75.0582 39.9683C74.4007 39.5841 74.0719 39.1593 74.0719 38.6938C74.0719 38.3455 74.2216 38.0461 74.5211 37.7954C74.8206 37.5415 75.1282 37.4146 75.444 37.4146C75.7597 37.4146 75.9925 37.4487 76.1422 37.5171C76.2952 37.5854 76.3847 37.644 76.4108 37.6929C76.4368 37.7384 76.4498 37.8914 76.4498 38.1519V38.6011ZM80.7711 41.5112C80.7548 41.4559 80.7337 41.438 80.7076 41.4575C80.6816 41.4738 80.5758 41.5291 80.3903 41.6235C79.7815 41.9263 79.2737 42.0776 78.8668 42.0776C78.4599 42.0776 78.167 41.9474 77.9879 41.687C77.9228 41.5894 77.8903 41.4689 77.8903 41.3257V38.3472C77.8805 38.2528 77.8382 38.1714 77.7633 38.103C77.6624 38.0184 77.5566 37.9728 77.4459 37.9663C77.3385 37.9598 77.2848 37.9272 77.2848 37.8687C77.2848 37.8068 77.3108 37.7694 77.3629 37.7563L78.4811 37.4341C78.5201 37.4211 78.5576 37.4146 78.5934 37.4146C78.6324 37.4146 78.652 37.4422 78.652 37.4976V40.7739C78.652 41.0018 78.7529 41.1776 78.9547 41.3013C79.1565 41.425 79.4137 41.4868 79.7262 41.4868C80.042 41.4868 80.3252 41.3908 80.5758 41.1987C80.6539 41.1369 80.719 41.0685 80.7711 40.9937V38.3472C80.7614 38.2528 80.719 38.1714 80.6442 38.103C80.5433 38.0184 80.4375 37.9728 80.3268 37.9663C80.2194 37.9598 80.1656 37.9272 80.1656 37.8687C80.1656 37.8068 80.1917 37.7694 80.2438 37.7563L81.3619 37.4341C81.401 37.4211 81.4384 37.4146 81.4742 37.4146C81.5133 37.4146 81.5328 37.4471 81.5328 37.5122V40.979C81.5491 41.1222 81.5898 41.2248 81.6549 41.2866C81.72 41.3485 81.8258 41.3794 81.9723 41.3794L82.2555 41.3599C82.275 41.3599 82.2848 41.3794 82.2848 41.4185C82.2848 41.4543 82.2604 41.4836 82.2115 41.5063L80.9127 42.0435C80.8737 42.063 80.8395 42.0728 80.8102 42.0728C80.7841 42.0728 80.7711 42.0321 80.7711 41.9507V41.5112ZM85.8883 38.4399C85.8492 38.4334 85.7923 38.4123 85.7174 38.3765C85.4472 38.2528 85.2356 38.1909 85.0826 38.1909C84.9296 38.1909 84.7685 38.2869 84.5992 38.479C84.4332 38.6678 84.3502 38.8387 84.3502 38.9917V41.1987C84.3502 41.4429 84.4918 41.6056 84.775 41.687C84.8987 41.7196 85.0143 41.744 85.1217 41.7603C85.2291 41.7733 85.2975 41.7863 85.3268 41.7993C85.3593 41.8123 85.3756 41.8384 85.3756 41.8774C85.3756 41.9132 85.3593 41.9344 85.3268 41.9409H82.8805C82.8479 41.9344 82.8317 41.9116 82.8317 41.8726C82.8317 41.814 82.9082 41.7749 83.0612 41.7554C83.4127 41.7033 83.5885 41.5177 83.5885 41.1987V38.6157C83.5885 38.479 83.5136 38.3846 83.3639 38.3325C83.2988 38.3097 83.2288 38.2918 83.1539 38.2788C83.0791 38.2625 83.0188 38.2479 82.9733 38.2349C82.9309 38.2218 82.9033 38.2104 82.8903 38.2007C82.8805 38.1877 82.8756 38.1632 82.8756 38.1274C82.8756 38.0884 82.9 38.0558 82.9489 38.0298L84.194 37.4438C84.233 37.4243 84.2574 37.4146 84.2672 37.4146C84.3226 37.4146 84.3502 37.4536 84.3502 37.5317V38.3228C84.3502 38.3618 84.36 38.3813 84.3795 38.3813C84.4056 38.3813 84.4723 38.3049 84.5797 38.1519C84.889 37.7189 85.1445 37.5024 85.3463 37.5024C85.4602 37.5024 85.6344 37.548 85.8688 37.6392C86.1064 37.7303 86.2252 37.8068 86.2252 37.8687C86.2252 37.9435 86.1878 38.0575 86.1129 38.2104C86.038 38.3634 85.9632 38.4399 85.8883 38.4399ZM91.0592 41.7554C91.2122 41.7749 91.2887 41.814 91.2887 41.8726C91.2887 41.9116 91.2724 41.9344 91.2399 41.9409H89.0621C89.0296 41.9344 89.0133 41.9116 89.0133 41.8726C89.0133 41.814 89.0898 41.7749 89.2428 41.7554C89.5944 41.7033 89.7701 41.5177 89.7701 41.1987V35.1099C89.7701 34.9731 89.6953 34.8787 89.5455 34.8267C89.4804 34.8039 89.4104 34.786 89.3356 34.7729C89.2607 34.7567 89.2005 34.742 89.1549 34.729C89.1126 34.716 89.0849 34.7046 89.0719 34.6948C89.0621 34.6818 89.0573 34.6574 89.0573 34.6216C89.0573 34.5825 89.0817 34.55 89.1305 34.5239L90.3756 33.938C90.4147 33.9185 90.4391 33.9087 90.4489 33.9087C90.5042 33.9087 90.5319 33.9478 90.5319 34.0259V41.1987C90.5319 41.5177 90.7076 41.7033 91.0592 41.7554ZM94.8239 41.1353C94.8239 41.2199 94.8629 41.2882 94.941 41.3403C95.0224 41.3892 95.1152 41.4136 95.2194 41.4136C95.3235 41.4136 95.4098 41.3875 95.4781 41.3354C95.5498 41.2801 95.5986 41.2524 95.6246 41.2524C95.6507 41.2524 95.6637 41.2882 95.6637 41.3599C95.6637 41.4282 95.6311 41.4868 95.566 41.5356C95.0778 41.8937 94.7474 42.0728 94.5748 42.0728C94.3665 42.0728 94.1972 41.8563 94.067 41.4233C94.0573 41.3908 94.0491 41.3761 94.0426 41.3794C93.639 41.6821 93.3851 41.8644 93.2809 41.9263C93.014 42.0793 92.7454 42.1037 92.4752 41.9995C92.2083 41.8953 92.0146 41.7228 91.8942 41.4819C91.8356 41.3582 91.8063 41.2264 91.8063 41.0864C91.8063 40.8097 91.9088 40.59 92.1139 40.4272C92.319 40.2645 92.7096 40.1082 93.2858 39.9585C93.4811 39.9064 93.6552 39.8397 93.8082 39.7583C93.9612 39.6769 94.041 39.6248 94.0475 39.6021C94.0573 39.5793 94.0621 39.5581 94.0621 39.5386V38.6011C94.0621 38.2332 93.9189 37.9744 93.6324 37.8247C93.538 37.7759 93.4241 37.7515 93.2906 37.7515C93.1604 37.7515 93.027 37.8035 92.8903 37.9077C92.7568 38.0119 92.6901 38.16 92.6901 38.3521L92.7145 38.5425C92.6949 38.5815 92.5778 38.6466 92.3629 38.7378C92.1481 38.8289 92.0244 38.8778 91.9918 38.8843C91.9397 38.8843 91.9137 38.8224 91.9137 38.6987C91.9137 38.5718 91.9511 38.4318 92.026 38.2788C92.1009 38.1258 92.2067 37.9858 92.3434 37.8589C92.6624 37.5627 93.027 37.4146 93.4371 37.4146C93.8473 37.4146 94.1809 37.5285 94.4381 37.7563C94.6953 37.981 94.8239 38.2495 94.8239 38.562V41.1353ZM92.5729 40.9937C92.5729 41.1499 92.6331 41.2866 92.7535 41.4038C92.874 41.5177 93.0107 41.5747 93.1637 41.5747C93.3199 41.5747 93.5087 41.5096 93.7301 41.3794C93.9515 41.2459 94.0621 41.1092 94.0621 40.9692V39.978C94.0621 39.9422 94.054 39.9243 94.0377 39.9243C94.0214 39.9243 94.0101 39.9259 94.0035 39.9292L92.8707 40.4565C92.7535 40.5412 92.6738 40.6128 92.6315 40.6714C92.5924 40.73 92.5729 40.8374 92.5729 40.9937ZM102.651 38.0005C102.651 38.2284 102.519 38.3423 102.255 38.3423C102.122 38.3423 102.008 38.3049 101.914 38.23C101.823 38.1519 101.751 38.0868 101.699 38.0347C101.65 37.9793 101.598 37.9289 101.543 37.8833C101.308 37.6912 101.022 37.6701 100.683 37.8198C100.348 37.9696 100.089 38.2886 99.9069 38.7769C99.8059 39.047 99.7555 39.3156 99.7555 39.5825C99.7555 40.1554 99.8857 40.6242 100.146 40.9888C100.407 41.3501 100.805 41.5308 101.342 41.5308C101.743 41.5308 102.102 41.3517 102.422 40.9937C102.519 40.8862 102.578 40.8325 102.597 40.8325C102.617 40.8325 102.638 40.8423 102.661 40.8618C102.684 40.8813 102.695 40.9106 102.695 40.9497C102.695 40.9855 102.685 41.0132 102.666 41.0327C102.168 41.7261 101.541 42.0728 100.786 42.0728C100.239 42.0728 99.7897 41.8693 99.4381 41.4624C99.0898 41.0555 98.9156 40.59 98.9156 40.0659C98.9189 39.0959 99.1533 38.3976 99.6188 37.9712C100.029 37.5968 100.613 37.4097 101.372 37.4097C101.84 37.4097 102.151 37.4569 102.304 37.5513C102.457 37.6457 102.565 37.7645 102.627 37.9077C102.643 37.9403 102.651 37.9712 102.651 38.0005ZM106.396 41.1353C106.396 41.2199 106.435 41.2882 106.513 41.3403C106.595 41.3892 106.687 41.4136 106.792 41.4136C106.896 41.4136 106.982 41.3875 107.05 41.3354C107.122 41.2801 107.171 41.2524 107.197 41.2524C107.223 41.2524 107.236 41.2882 107.236 41.3599C107.236 41.4282 107.203 41.4868 107.138 41.5356C106.65 41.8937 106.32 42.0728 106.147 42.0728C105.939 42.0728 105.769 41.8563 105.639 41.4233C105.63 41.3908 105.621 41.3761 105.615 41.3794C105.211 41.6821 104.957 41.8644 104.853 41.9263C104.586 42.0793 104.318 42.1037 104.047 41.9995C103.781 41.8953 103.587 41.7228 103.466 41.4819C103.408 41.3582 103.379 41.2264 103.379 41.0864C103.379 40.8097 103.481 40.59 103.686 40.4272C103.891 40.2645 104.282 40.1082 104.858 39.9585C105.053 39.9064 105.227 39.8397 105.38 39.7583C105.533 39.6769 105.613 39.6248 105.62 39.6021C105.63 39.5793 105.634 39.5581 105.634 39.5386V38.6011C105.634 38.2332 105.491 37.9744 105.205 37.8247C105.11 37.7759 104.996 37.7515 104.863 37.7515C104.733 37.7515 104.599 37.8035 104.463 37.9077C104.329 38.0119 104.262 38.16 104.262 38.3521L104.287 38.5425C104.267 38.5815 104.15 38.6466 103.935 38.7378C103.72 38.8289 103.597 38.8778 103.564 38.8843C103.512 38.8843 103.486 38.8224 103.486 38.6987C103.486 38.5718 103.523 38.4318 103.598 38.2788C103.673 38.1258 103.779 37.9858 103.916 37.8589C104.235 37.5627 104.599 37.4146 105.009 37.4146C105.42 37.4146 105.753 37.5285 106.01 37.7563C106.268 37.981 106.396 38.2495 106.396 38.562V41.1353ZM104.145 40.9937C104.145 41.1499 104.205 41.2866 104.326 41.4038C104.446 41.5177 104.583 41.5747 104.736 41.5747C104.892 41.5747 105.081 41.5096 105.302 41.3794C105.524 41.2459 105.634 41.1092 105.634 40.9692V39.978C105.634 39.9422 105.626 39.9243 105.61 39.9243C105.594 39.9243 105.582 39.9259 105.576 39.9292L104.443 40.4565C104.326 40.5412 104.246 40.6128 104.204 40.6714C104.165 40.73 104.145 40.8374 104.145 40.9937ZM110.673 38.4399C110.634 38.4334 110.577 38.4123 110.503 38.3765C110.232 38.2528 110.021 38.1909 109.868 38.1909C109.715 38.1909 109.554 38.2869 109.384 38.479C109.218 38.6678 109.135 38.8387 109.135 38.9917V41.1987C109.135 41.4429 109.277 41.6056 109.56 41.687C109.684 41.7196 109.799 41.744 109.907 41.7603C110.014 41.7733 110.083 41.7863 110.112 41.7993C110.144 41.8123 110.161 41.8384 110.161 41.8774C110.161 41.9132 110.144 41.9344 110.112 41.9409H107.666C107.633 41.9344 107.617 41.9116 107.617 41.8726C107.617 41.814 107.693 41.7749 107.846 41.7554C108.198 41.7033 108.374 41.5177 108.374 41.1987V38.6157C108.374 38.479 108.299 38.3846 108.149 38.3325C108.084 38.3097 108.014 38.2918 107.939 38.2788C107.864 38.2625 107.804 38.2479 107.758 38.2349C107.716 38.2218 107.688 38.2104 107.675 38.2007C107.666 38.1877 107.661 38.1632 107.661 38.1274C107.661 38.0884 107.685 38.0558 107.734 38.0298L108.979 37.4438C109.018 37.4243 109.043 37.4146 109.052 37.4146C109.108 37.4146 109.135 37.4536 109.135 37.5317V38.3228C109.135 38.3618 109.145 38.3813 109.165 38.3813C109.191 38.3813 109.257 38.3049 109.365 38.1519C109.674 37.7189 109.93 37.5024 110.131 37.5024C110.245 37.5024 110.42 37.548 110.654 37.6392C110.892 37.7303 111.01 37.8068 111.01 37.8687C111.01 37.9435 110.973 38.0575 110.898 38.2104C110.823 38.3634 110.748 38.4399 110.673 38.4399ZM112.544 38.186C112.524 38.186 112.514 38.2007 112.514 38.23V40.9253C112.514 41.1206 112.557 41.2736 112.641 41.3843C112.729 41.495 112.84 41.5503 112.973 41.5503C113.107 41.5503 113.222 41.5291 113.32 41.4868C113.421 41.4412 113.507 41.3924 113.579 41.3403C113.654 41.2882 113.72 41.241 113.779 41.1987C113.838 41.1532 113.89 41.1304 113.935 41.1304C113.981 41.1304 114.004 41.1418 114.004 41.1646C114.004 41.2427 113.995 41.2931 113.979 41.3159C113.589 41.8205 113.211 42.0728 112.846 42.0728C112.485 42.0728 112.212 41.9588 112.026 41.731C111.844 41.4998 111.753 41.2248 111.753 40.9058V38.186H111.386C111.295 38.186 111.246 38.1567 111.24 38.0981C111.237 38.0396 111.246 38.0021 111.269 37.9858C111.442 37.8752 111.679 37.6766 111.982 37.3901C112.015 37.3543 112.059 37.3006 112.114 37.229C112.169 37.1574 112.249 37.0597 112.353 36.936C112.461 36.8123 112.542 36.7505 112.597 36.7505C112.653 36.7505 112.68 36.7733 112.68 36.8188C112.68 36.8254 112.625 37.0386 112.514 37.4585C112.514 37.5171 112.54 37.548 112.592 37.5513H113.838C113.981 37.5513 114.052 37.7531 114.052 38.1567C114.052 38.1763 114.039 38.186 114.013 38.186H112.544ZM115.307 39.3677C115.252 39.3677 115.224 39.4865 115.224 39.7241C115.224 40.2287 115.374 40.6519 115.673 40.9937C115.973 41.3354 116.344 41.5063 116.787 41.5063C117.233 41.5063 117.661 41.3143 118.071 40.9302C118.077 40.9237 118.086 40.9204 118.095 40.9204H118.12C118.139 40.9204 118.157 40.9367 118.173 40.9692C118.193 40.9985 118.211 41.0181 118.227 41.0278C117.85 41.4868 117.405 41.8042 116.894 41.98C116.718 42.0418 116.52 42.0728 116.298 42.0728C116.077 42.0728 115.852 42.0125 115.625 41.8921C115.397 41.7684 115.201 41.6073 115.039 41.4087C114.694 40.9953 114.521 40.481 114.521 39.8657C114.521 39.2472 114.708 38.6841 115.083 38.1763C115.46 37.6685 115.978 37.4146 116.635 37.4146C117.107 37.4146 117.493 37.6261 117.793 38.0493C118.092 38.4692 118.242 38.8387 118.242 39.1577C118.242 39.2977 118.208 39.3677 118.139 39.3677H115.307ZM115.361 38.8989C115.361 38.9608 115.39 38.9917 115.449 38.9917H117.29C117.374 38.9917 117.417 38.9412 117.417 38.8403C117.417 38.606 117.311 38.3667 117.099 38.1226C116.891 37.8752 116.661 37.7515 116.411 37.7515C116.167 37.7515 115.944 37.8621 115.742 38.0835C115.543 38.3049 115.416 38.5571 115.361 38.8403V38.8989ZM26.8551 53.3677C26.7998 53.3677 26.7721 53.4865 26.7721 53.7241C26.7721 54.2287 26.9218 54.6519 27.2213 54.9937C27.5208 55.3354 27.8919 55.5063 28.3346 55.5063C28.7806 55.5063 29.2086 55.3143 29.6188 54.9302C29.6253 54.9237 29.6334 54.9204 29.6432 54.9204H29.6676C29.6871 54.9204 29.705 54.9367 29.7213 54.9692C29.7408 54.9985 29.7587 55.0181 29.775 55.0278C29.3974 55.4868 28.9531 55.8042 28.442 55.98C28.2662 56.0418 28.0677 56.0728 27.8463 56.0728C27.625 56.0728 27.4003 56.0125 27.1725 55.8921C26.9446 55.7684 26.7493 55.6073 26.5865 55.4087C26.2415 54.9953 26.069 54.481 26.069 53.8657C26.069 53.2472 26.2561 52.6841 26.6305 52.1763C27.0081 51.6685 27.5257 51.4146 28.1832 51.4146C28.6552 51.4146 29.041 51.6261 29.3405 52.0493C29.6399 52.4692 29.7897 52.8387 29.7897 53.1577C29.7897 53.2977 29.7555 53.3677 29.6871 53.3677H26.8551ZM26.9088 52.8989C26.9088 52.9608 26.9381 52.9917 26.9967 52.9917H28.8375C28.9222 52.9917 28.9645 52.9412 28.9645 52.8403C28.9645 52.606 28.8587 52.3667 28.6471 52.1226C28.4388 51.8752 28.2093 51.7515 27.9586 51.7515C27.7145 51.7515 27.4915 51.8621 27.2897 52.0835C27.0911 52.3049 26.9642 52.5571 26.9088 52.8403V52.8989ZM34.194 54.4028L34.1842 53.3726C34.1842 52.9526 34.1484 52.658 34.0768 52.4888C34.0052 52.3195 33.914 52.1925 33.8033 52.1079C33.6927 52.02 33.5429 51.9761 33.3541 51.9761C33.1686 51.9761 32.7731 52.1226 32.1676 52.4155C32.0862 52.4644 32.0439 52.5099 32.0406 52.5522V55.1792C32.0406 55.508 32.2164 55.6968 32.568 55.7456C32.721 55.7684 32.7975 55.8058 32.7975 55.8579C32.7975 55.9067 32.7812 55.9344 32.7487 55.9409H30.5709C30.5384 55.9344 30.5221 55.9116 30.5221 55.8726C30.5221 55.8107 30.5986 55.7684 30.7516 55.7456C31.1031 55.6968 31.2789 55.508 31.2789 55.1792V52.3765C31.2789 52.2397 31.2041 52.1453 31.0543 52.0933C30.9892 52.0705 30.9192 52.0526 30.8444 52.0396C30.7695 52.0233 30.7093 52.0086 30.6637 51.9956C30.6214 51.9826 30.5937 51.9712 30.5807 51.9614C30.5709 51.9484 30.566 51.924 30.566 51.8882C30.566 51.8491 30.5905 51.8166 30.6393 51.7905L31.8844 51.2046C31.9235 51.1851 31.9479 51.1753 31.9576 51.1753C32.013 51.1753 32.0406 51.2144 32.0406 51.2925V52.0542C32.0504 52.0868 32.0634 52.103 32.0797 52.103C32.0992 52.103 32.1692 52.0737 32.2897 52.0151C32.5696 51.8752 32.8512 51.7401 33.1344 51.6099C33.4176 51.4797 33.652 51.4146 33.8375 51.4146C34.5895 51.4146 34.9655 52.0998 34.9655 53.4702L34.9215 54.896V55.1792C34.9215 55.4331 35.0485 55.5991 35.3024 55.6772C35.4098 55.7131 35.5123 55.7391 35.61 55.7554C35.7109 55.7684 35.776 55.7814 35.8053 55.7944C35.8378 55.8075 35.8541 55.8335 35.8541 55.8726C35.8541 55.9116 35.8378 55.9344 35.8053 55.9409H33.4518C33.4192 55.9344 33.403 55.9116 33.403 55.8726C33.403 55.8107 33.4795 55.7684 33.6324 55.7456C33.9808 55.6968 34.1549 55.495 34.1549 55.1401C34.1809 54.9774 34.194 54.7316 34.194 54.4028ZM40.1266 52.0005C40.1266 52.2284 39.9948 52.3423 39.7311 52.3423C39.5976 52.3423 39.4837 52.3049 39.3893 52.23C39.2981 52.1519 39.2265 52.0868 39.1744 52.0347C39.1256 51.9793 39.0735 51.9289 39.0182 51.8833C38.7838 51.6912 38.4974 51.6701 38.1588 51.8198C37.8235 51.9696 37.5647 52.2886 37.3824 52.7769C37.2815 53.047 37.2311 53.3156 37.2311 53.5825C37.2311 54.1554 37.3613 54.6242 37.6217 54.9888C37.8821 55.3501 38.2809 55.5308 38.818 55.5308C39.2184 55.5308 39.5781 55.3517 39.8971 54.9937C39.9948 54.8862 40.0533 54.8325 40.0729 54.8325C40.0924 54.8325 40.1136 54.8423 40.1364 54.8618C40.1591 54.8813 40.1705 54.9106 40.1705 54.9497C40.1705 54.9855 40.1608 55.0132 40.1412 55.0327C39.6432 55.7261 39.0166 56.0728 38.2614 56.0728C37.7145 56.0728 37.2653 55.8693 36.9137 55.4624C36.5654 55.0555 36.3912 54.59 36.3912 54.0659C36.3945 53.0959 36.6289 52.3976 37.0944 51.9712C37.5045 51.5968 38.0888 51.4097 38.8473 51.4097C39.316 51.4097 39.6269 51.4569 39.7799 51.5513C39.9329 51.6457 40.0403 51.7645 40.1022 51.9077C40.1184 51.9403 40.1266 51.9712 40.1266 52.0005ZM45.6198 51.5464C45.6556 51.5562 45.6735 51.5789 45.6735 51.6147C45.6735 51.6506 45.6702 51.675 45.6637 51.688C45.6572 51.6978 45.6409 51.7075 45.6149 51.7173C45.5921 51.7238 45.5579 51.7303 45.5123 51.7368C45.47 51.7433 45.4017 51.7563 45.3073 51.7759C45.2128 51.7922 45.1282 51.8573 45.0533 51.9712C44.9785 52.0851 44.8987 52.243 44.8141 52.4448L42.5192 58.1333L42.2018 58.8071C42.1204 58.9797 41.9495 59.0659 41.6891 59.0659C41.5752 59.0659 41.484 59.0285 41.4156 58.9536C41.3473 58.8787 41.3131 58.7892 41.3131 58.6851C41.3131 58.5841 41.3375 58.5093 41.3864 58.4604C41.4384 58.4149 41.4987 58.3774 41.567 58.3481C41.6354 58.3188 41.7054 58.2912 41.777 58.2651C41.8518 58.2424 41.9349 58.187 42.026 58.0991C42.1171 58.0145 42.1709 57.951 42.1871 57.9087C42.734 56.6847 43.0074 56.0451 43.0074 55.9897C43.0074 55.9344 42.9749 55.866 42.9098 55.7847L41.2985 52.4204C41.178 52.0916 40.9713 51.88 40.6783 51.7856C40.6556 51.7791 40.6279 51.7743 40.5953 51.771C40.4586 51.758 40.3903 51.7173 40.3903 51.6489C40.3903 51.5806 40.4293 51.5464 40.5074 51.5464H42.6803C42.7063 51.5464 42.7194 51.5724 42.7194 51.6245C42.7194 51.6733 42.6966 51.7075 42.651 51.7271C42.6054 51.7433 42.5045 51.7515 42.3483 51.7515C42.0976 51.7515 41.9723 51.8491 41.9723 52.0444L42.0162 52.1616L43.2809 54.8716C43.346 55.0376 43.4111 55.0327 43.4762 54.8569C43.4827 54.8407 43.5234 54.7349 43.5983 54.5396C44.041 53.4165 44.2884 52.7671 44.3405 52.5913C44.3958 52.4155 44.4235 52.2837 44.4235 52.1958C44.4235 52.1079 44.3763 52.0151 44.2819 51.9175C44.1907 51.8198 44.0638 51.771 43.901 51.771C43.7415 51.771 43.6617 51.7238 43.6617 51.6294C43.6617 51.5741 43.6976 51.5464 43.7692 51.5464H45.6198ZM49.9703 52.0005C49.9703 52.2284 49.8385 52.3423 49.5748 52.3423C49.4414 52.3423 49.3274 52.3049 49.233 52.23C49.1419 52.1519 49.0703 52.0868 49.0182 52.0347C48.9694 51.9793 48.9173 51.9289 48.8619 51.8833C48.6276 51.6912 48.3411 51.6701 48.0026 51.8198C47.6673 51.9696 47.4085 52.2886 47.2262 52.7769C47.1253 53.047 47.0748 53.3156 47.0748 53.5825C47.0748 54.1554 47.205 54.6242 47.4655 54.9888C47.7259 55.3501 48.1246 55.5308 48.6617 55.5308C49.0621 55.5308 49.4218 55.3517 49.7408 54.9937C49.8385 54.8862 49.8971 54.8325 49.9166 54.8325C49.9362 54.8325 49.9573 54.8423 49.9801 54.8618C50.0029 54.8813 50.0143 54.9106 50.0143 54.9497C50.0143 54.9855 50.0045 55.0132 49.985 55.0327C49.4869 55.7261 48.8603 56.0728 48.1051 56.0728C47.5582 56.0728 47.109 55.8693 46.7574 55.4624C46.4091 55.0555 46.235 54.59 46.235 54.0659C46.2382 53.0959 46.4726 52.3976 46.9381 51.9712C47.3483 51.5968 47.9326 51.4097 48.691 51.4097C49.1598 51.4097 49.4707 51.4569 49.6237 51.5513C49.7767 51.6457 49.8841 51.7645 49.9459 51.9077C49.9622 51.9403 49.9703 51.9712 49.9703 52.0005ZM52.4996 55.7554C52.6526 55.7749 52.7291 55.814 52.7291 55.8726C52.7291 55.9116 52.7128 55.9344 52.6803 55.9409H50.5026C50.47 55.9344 50.4537 55.9116 50.4537 55.8726C50.4537 55.814 50.5302 55.7749 50.6832 55.7554C51.0348 55.7033 51.2106 55.5177 51.2106 55.1987V49.1099C51.2106 48.9731 51.1357 48.8787 50.986 48.8267C50.9209 48.8039 50.8509 48.786 50.776 48.7729C50.7011 48.7567 50.6409 48.742 50.5953 48.729C50.553 48.716 50.5253 48.7046 50.5123 48.6948C50.5026 48.6818 50.4977 48.6574 50.4977 48.6216C50.4977 48.5825 50.5221 48.55 50.5709 48.5239L51.816 47.938C51.8551 47.9185 51.8795 47.9087 51.8893 47.9087C51.9446 47.9087 51.9723 47.9478 51.9723 48.0259V55.1987C51.9723 55.5177 52.1481 55.7033 52.4996 55.7554ZM53.2711 53.7485C53.2711 53.1073 53.4974 52.5571 53.9498 52.0981C54.4056 51.6359 54.9508 51.4048 55.5856 51.4048C56.2203 51.4048 56.7721 51.6294 57.2408 52.0786C57.7096 52.5246 57.944 53.0763 57.944 53.7339C57.944 54.3914 57.721 54.9465 57.275 55.3989C56.8323 55.8481 56.2757 56.0728 55.6051 56.0728C54.9345 56.0728 54.3779 55.8449 53.9352 55.3892C53.4925 54.9334 53.2711 54.3866 53.2711 53.7485ZM54.4869 55.0034C54.8059 55.5405 55.2405 55.8091 55.7906 55.8091C56.2171 55.8091 56.5426 55.6382 56.7672 55.2964C56.9951 54.9546 57.109 54.5347 57.109 54.0366C57.109 53.5386 56.9495 53.0275 56.6305 52.5034C56.3147 51.9793 55.8883 51.7173 55.3512 51.7173C54.9573 51.7173 54.6464 51.8882 54.4186 52.23C54.194 52.5685 54.0817 52.9998 54.0817 53.5239C54.0817 54.0448 54.2168 54.5379 54.4869 55.0034ZM62.3336 55.4282C61.8844 55.8579 61.3798 56.0728 60.8199 56.0728C60.6181 56.0728 60.3431 56.0353 59.9948 55.9604C59.9394 55.9604 59.9085 55.98 59.902 56.019C59.8987 56.0581 59.8955 56.0988 59.8922 56.1411V58.2261C59.8922 58.4702 60.0338 58.633 60.317 58.7144C60.4407 58.7469 60.5563 58.7697 60.6637 58.7827C60.7711 58.799 60.8395 58.8136 60.8688 58.8267C60.9013 58.8397 60.9176 58.8641 60.9176 58.8999C60.9176 58.939 60.9013 58.9618 60.8688 58.9683H58.4225C58.3899 58.9618 58.3737 58.939 58.3737 58.8999C58.3737 58.8413 58.4502 58.8022 58.6031 58.7827C58.9547 58.7306 59.1305 58.5451 59.1305 58.2261V52.3716C59.1305 52.2349 59.0556 52.1405 58.9059 52.0884C58.8408 52.0656 58.7708 52.0477 58.6959 52.0347C58.6211 52.0184 58.5608 52.0037 58.5153 51.9907C58.4729 51.9777 58.4453 51.9663 58.4323 51.9565C58.4225 51.9435 58.4176 51.9191 58.4176 51.8833C58.4176 51.8442 58.442 51.8117 58.4908 51.7856L59.736 51.1899C59.762 51.1769 59.788 51.1704 59.8141 51.1704C59.8662 51.1704 59.8922 51.2095 59.8922 51.2876V51.9077C59.8922 51.9435 59.9101 51.9614 59.9459 51.9614C59.985 51.9614 60.0761 51.9142 60.2194 51.8198C60.6328 51.5529 61.0625 51.4194 61.5084 51.4194C61.8209 51.4194 62.1074 51.5464 62.3678 51.8003C62.7096 52.1323 62.9375 52.5946 63.0514 53.187C63.0839 53.3563 63.1002 53.5369 63.1002 53.729C63.1002 53.9178 63.0693 54.118 63.0074 54.3296C62.8837 54.7495 62.6591 55.1157 62.3336 55.4282ZM60.9371 51.9272C60.4944 51.9272 60.1461 52.0542 59.8922 52.3081V55.0522C59.8922 55.215 59.9199 55.3208 59.9752 55.3696C60.1184 55.4933 60.3382 55.5894 60.6344 55.6577C61.2203 55.7912 61.6761 55.6512 62.0016 55.2378C62.2327 54.9416 62.3483 54.5835 62.3483 54.1636C62.3483 53.3465 62.1643 52.7345 61.7965 52.3276C61.5752 52.0802 61.2887 51.9468 60.9371 51.9272ZM64.7653 53.3677C64.7099 53.3677 64.6823 53.4865 64.6823 53.7241C64.6823 54.2287 64.832 54.6519 65.1315 54.9937C65.4309 55.3354 65.802 55.5063 66.2448 55.5063C66.6907 55.5063 67.1188 55.3143 67.5289 54.9302C67.5354 54.9237 67.5436 54.9204 67.5533 54.9204H67.5778C67.5973 54.9204 67.6152 54.9367 67.6315 54.9692C67.651 54.9985 67.6689 55.0181 67.6852 55.0278C67.3076 55.4868 66.8632 55.8042 66.3522 55.98C66.1764 56.0418 65.9778 56.0728 65.7565 56.0728C65.5351 56.0728 65.3105 56.0125 65.0826 55.8921C64.8548 55.7684 64.6595 55.6073 64.4967 55.4087C64.1517 54.9953 63.9791 54.481 63.9791 53.8657C63.9791 53.2472 64.1663 52.6841 64.5406 52.1763C64.9183 51.6685 65.4358 51.4146 66.0934 51.4146C66.5654 51.4146 66.9511 51.6261 67.2506 52.0493C67.5501 52.4692 67.6998 52.8387 67.6998 53.1577C67.6998 53.2977 67.6656 53.3677 67.5973 53.3677H64.7653ZM64.819 52.8989C64.819 52.9608 64.8483 52.9917 64.9069 52.9917H66.7477C66.8323 52.9917 66.8746 52.9412 66.8746 52.8403C66.8746 52.606 66.7688 52.3667 66.5573 52.1226C66.3489 51.8752 66.1194 51.7515 65.8688 51.7515C65.6246 51.7515 65.4017 51.8621 65.1998 52.0835C65.0013 52.3049 64.8743 52.5571 64.819 52.8403V52.8989ZM65.4049 50.5894C65.3919 50.5763 65.3854 50.5666 65.3854 50.5601C65.3854 50.5535 65.3919 50.5438 65.4049 50.5308L66.4449 49.0903C66.5621 48.9308 66.6777 48.8511 66.7916 48.8511C66.9056 48.8511 66.9951 48.8885 67.0602 48.9634C67.1285 49.035 67.1627 49.1326 67.1627 49.2563C67.1627 49.38 67.0732 49.5184 66.8942 49.6714L65.5807 50.731C65.5644 50.7407 65.5514 50.7456 65.5416 50.7456C65.5319 50.7456 65.5221 50.7407 65.5123 50.731L65.4049 50.5894ZM71.5328 51.6196C71.6761 51.6685 71.764 51.6929 71.7965 51.6929C71.8291 51.6929 71.8486 51.6929 71.8551 51.6929C71.8649 51.6896 71.8763 51.6685 71.8893 51.6294V49.1099C71.8893 48.9731 71.8144 48.8787 71.6647 48.8267C71.5996 48.8039 71.5296 48.786 71.4547 48.7729C71.3798 48.7567 71.3196 48.742 71.274 48.729C71.2317 48.716 71.2041 48.7046 71.191 48.6948C71.1813 48.6818 71.1764 48.6574 71.1764 48.6216C71.1764 48.5825 71.2008 48.55 71.2496 48.5239L72.4948 47.938C72.5338 47.9185 72.5582 47.9087 72.568 47.9087C72.6233 47.9087 72.651 47.9478 72.651 48.0259V54.979C72.6673 55.1222 72.708 55.2248 72.7731 55.2866C72.8382 55.3485 72.944 55.3794 73.0905 55.3794L73.3737 55.3599C73.3932 55.3599 73.403 55.3794 73.403 55.4185C73.403 55.4543 73.3785 55.4836 73.3297 55.5063L72.0309 56.0435C71.9918 56.063 71.9576 56.0728 71.9283 56.0728C71.9023 56.0728 71.8893 56.0321 71.8893 55.9507V55.5063C71.8893 55.4738 71.8811 55.4575 71.8649 55.4575C71.8421 55.4575 71.707 55.5308 71.4596 55.6772C70.7011 56.1265 70.0615 56.1932 69.5406 55.8774C69.124 55.6235 68.8424 55.2215 68.6959 54.6714C68.6276 54.4142 68.5934 54.1424 68.5934 53.856C68.5934 53.5662 68.652 53.2798 68.7692 52.9966C68.8896 52.7101 69.054 52.4595 69.2623 52.2446C69.7213 51.7759 70.2747 51.5415 70.9225 51.5415C71.1862 51.5415 71.3896 51.5675 71.5328 51.6196ZM69.3307 53.7144C69.3307 54.2059 69.4674 54.6372 69.7408 55.0083C70.0143 55.3761 70.3951 55.5601 70.8834 55.5601C71.0983 55.5601 71.3196 55.508 71.5475 55.4038C71.7753 55.2964 71.8893 55.215 71.8893 55.1597V52.6401C71.8893 52.5783 71.847 52.505 71.7623 52.4204C71.5019 52.0623 71.1552 51.8833 70.7223 51.8833C70.2926 51.8833 69.9524 52.0656 69.7018 52.4302C69.4544 52.7915 69.3307 53.2196 69.3307 53.7144ZM73.8424 55.9409C73.8099 55.9344 73.7936 55.9116 73.7936 55.8726C73.7936 55.814 73.8701 55.7749 74.0231 55.7554C74.3746 55.7033 74.5504 55.5177 74.5504 55.1987V52.6157C74.5504 52.479 74.4755 52.3846 74.3258 52.3325C74.2607 52.3097 74.1907 52.2918 74.1158 52.2788C74.041 52.2625 73.9808 52.2479 73.9352 52.2349C73.8929 52.2218 73.8652 52.2104 73.8522 52.2007C73.8424 52.1877 73.8375 52.1632 73.8375 52.1274C73.8375 52.0884 73.8619 52.0558 73.9108 52.0298L75.1559 51.4438C75.1949 51.4243 75.2194 51.4146 75.2291 51.4146C75.2845 51.4146 75.3121 51.4536 75.3121 51.5317V55.1987C75.3121 55.5177 75.4879 55.7033 75.8395 55.7554C75.9925 55.7749 76.069 55.8091 76.069 55.8579C76.069 55.9067 76.0527 55.9344 76.0201 55.9409H73.8424ZM74.858 50.0425C74.7246 50.0425 74.6058 50.0002 74.5016 49.9155C74.4007 49.8309 74.3502 49.7137 74.3502 49.564C74.3502 49.411 74.399 49.2905 74.4967 49.2026C74.5944 49.1147 74.7099 49.0708 74.8434 49.0708C74.9801 49.0708 75.094 49.1229 75.1852 49.2271C75.2796 49.3312 75.3268 49.4435 75.3268 49.564C75.3268 49.6844 75.2828 49.7951 75.1949 49.896C75.1071 49.9937 74.9948 50.0425 74.858 50.0425ZM77.441 53.3677C77.3857 53.3677 77.358 53.4865 77.358 53.7241C77.358 54.2287 77.5078 54.6519 77.8073 54.9937C78.1067 55.3354 78.4778 55.5063 78.9205 55.5063C79.3665 55.5063 79.7946 55.3143 80.2047 54.9302C80.2112 54.9237 80.2194 54.9204 80.2291 54.9204H80.2535C80.2731 54.9204 80.291 54.9367 80.3073 54.9692C80.3268 54.9985 80.3447 55.0181 80.361 55.0278C79.9834 55.4868 79.539 55.8042 79.028 55.98C78.8522 56.0418 78.6536 56.0728 78.4323 56.0728C78.2109 56.0728 77.9863 56.0125 77.7584 55.8921C77.5306 55.7684 77.3352 55.6073 77.1725 55.4087C76.8274 54.9953 76.6549 54.481 76.6549 53.8657C76.6549 53.2472 76.8421 52.6841 77.2164 52.1763C77.594 51.6685 78.1116 51.4146 78.7692 51.4146C79.2412 51.4146 79.6269 51.6261 79.9264 52.0493C80.2259 52.4692 80.3756 52.8387 80.3756 53.1577C80.3756 53.2977 80.3414 53.3677 80.2731 53.3677H77.441ZM77.4948 52.8989C77.4948 52.9608 77.524 52.9917 77.5826 52.9917H79.4235C79.5081 52.9917 79.5504 52.9412 79.5504 52.8403C79.5504 52.606 79.4446 52.3667 79.233 52.1226C79.0247 51.8752 78.7952 51.7515 78.5446 51.7515C78.3004 51.7515 78.0774 51.8621 77.8756 52.0835C77.677 52.3049 77.5501 52.5571 77.4948 52.8403V52.8989ZM86.8942 51.6196C87.0374 51.6685 87.1253 51.6929 87.1578 51.6929C87.1904 51.6929 87.2099 51.6929 87.2164 51.6929C87.2262 51.6896 87.2376 51.6685 87.2506 51.6294V49.1099C87.2506 48.9731 87.1757 48.8787 87.026 48.8267C86.9609 48.8039 86.8909 48.786 86.816 48.7729C86.7412 48.7567 86.6809 48.742 86.6354 48.729C86.5931 48.716 86.5654 48.7046 86.5524 48.6948C86.5426 48.6818 86.5377 48.6574 86.5377 48.6216C86.5377 48.5825 86.5621 48.55 86.611 48.5239L87.8561 47.938C87.8951 47.9185 87.9196 47.9087 87.9293 47.9087C87.9847 47.9087 88.0123 47.9478 88.0123 48.0259V54.979C88.0286 55.1222 88.0693 55.2248 88.1344 55.2866C88.1995 55.3485 88.3053 55.3794 88.4518 55.3794L88.735 55.3599C88.7545 55.3599 88.7643 55.3794 88.7643 55.4185C88.7643 55.4543 88.7399 55.4836 88.691 55.5063L87.3922 56.0435C87.3531 56.063 87.319 56.0728 87.2897 56.0728C87.2636 56.0728 87.2506 56.0321 87.2506 55.9507V55.5063C87.2506 55.4738 87.2425 55.4575 87.2262 55.4575C87.2034 55.4575 87.0683 55.5308 86.8209 55.6772C86.0625 56.1265 85.4228 56.1932 84.902 55.8774C84.4853 55.6235 84.2037 55.2215 84.0573 54.6714C83.9889 54.4142 83.9547 54.1424 83.9547 53.856C83.9547 53.5662 84.0133 53.2798 84.1305 52.9966C84.2509 52.7101 84.4153 52.4595 84.6237 52.2446C85.0826 51.7759 85.636 51.5415 86.2838 51.5415C86.5475 51.5415 86.7509 51.5675 86.8942 51.6196ZM84.692 53.7144C84.692 54.2059 84.8287 54.6372 85.1022 55.0083C85.3756 55.3761 85.7565 55.5601 86.2448 55.5601C86.4596 55.5601 86.6809 55.508 86.9088 55.4038C87.1367 55.2964 87.2506 55.215 87.2506 55.1597V52.6401C87.2506 52.5783 87.2083 52.505 87.1237 52.4204C86.8632 52.0623 86.5166 51.8833 86.0836 51.8833C85.6539 51.8833 85.3138 52.0656 85.0631 52.4302C84.8157 52.7915 84.692 53.2196 84.692 53.7144ZM89.9899 53.3677C89.9345 53.3677 89.9069 53.4865 89.9069 53.7241C89.9069 54.2287 90.0566 54.6519 90.3561 54.9937C90.6556 55.3354 91.0267 55.5063 91.4694 55.5063C91.9153 55.5063 92.3434 55.3143 92.7535 54.9302C92.7601 54.9237 92.7682 54.9204 92.778 54.9204H92.8024C92.8219 54.9204 92.8398 54.9367 92.8561 54.9692C92.8756 54.9985 92.8935 55.0181 92.9098 55.0278C92.5322 55.4868 92.0878 55.8042 91.5768 55.98C91.401 56.0418 91.2024 56.0728 90.9811 56.0728C90.7597 56.0728 90.5351 56.0125 90.3073 55.8921C90.0794 55.7684 89.8841 55.6073 89.7213 55.4087C89.3763 54.9953 89.2037 54.481 89.2037 53.8657C89.2037 53.2472 89.3909 52.6841 89.7653 52.1763C90.1429 51.6685 90.6604 51.4146 91.318 51.4146C91.79 51.4146 92.1757 51.6261 92.4752 52.0493C92.7747 52.4692 92.9244 52.8387 92.9244 53.1577C92.9244 53.2977 92.8903 53.3677 92.8219 53.3677H89.9899ZM90.0436 52.8989C90.0436 52.9608 90.0729 52.9917 90.1315 52.9917H91.9723C92.0569 52.9917 92.0992 52.9412 92.0992 52.8403C92.0992 52.606 91.9934 52.3667 91.7819 52.1226C91.5735 51.8752 91.344 51.7515 91.0934 51.7515C90.8492 51.7515 90.6263 51.8621 90.4244 52.0835C90.2259 52.3049 90.0989 52.5571 90.0436 52.8403V52.8989ZM98.2321 55.7554C98.3851 55.7749 98.4615 55.814 98.4615 55.8726C98.4615 55.9116 98.4453 55.9344 98.4127 55.9409H96.235C96.2024 55.9344 96.1862 55.9116 96.1862 55.8726C96.1862 55.814 96.2627 55.7749 96.4156 55.7554C96.7672 55.7033 96.943 55.5177 96.943 55.1987V49.1099C96.943 48.9731 96.8681 48.8787 96.7184 48.8267C96.6533 48.8039 96.5833 48.786 96.5084 48.7729C96.4336 48.7567 96.3733 48.742 96.3278 48.729C96.2854 48.716 96.2578 48.7046 96.2448 48.6948C96.235 48.6818 96.2301 48.6574 96.2301 48.6216C96.2301 48.5825 96.2545 48.55 96.3033 48.5239L97.5485 47.938C97.5875 47.9185 97.6119 47.9087 97.6217 47.9087C97.677 47.9087 97.7047 47.9478 97.7047 48.0259V55.1987C97.7047 55.5177 97.8805 55.7033 98.2321 55.7554ZM101.997 55.1353C101.997 55.2199 102.036 55.2882 102.114 55.3403C102.195 55.3892 102.288 55.4136 102.392 55.4136C102.496 55.4136 102.583 55.3875 102.651 55.3354C102.723 55.2801 102.771 55.2524 102.797 55.2524C102.824 55.2524 102.837 55.2882 102.837 55.3599C102.837 55.4282 102.804 55.4868 102.739 55.5356C102.251 55.8937 101.92 56.0728 101.748 56.0728C101.539 56.0728 101.37 55.8563 101.24 55.4233C101.23 55.3908 101.222 55.3761 101.215 55.3794C100.812 55.6821 100.558 55.8644 100.454 55.9263C100.187 56.0793 99.9183 56.1037 99.6481 55.9995C99.3811 55.8953 99.1875 55.7228 99.067 55.4819C99.0084 55.3582 98.9791 55.2264 98.9791 55.0864C98.9791 54.8097 99.0817 54.59 99.2867 54.4272C99.4918 54.2645 99.8824 54.1082 100.459 53.9585C100.654 53.9064 100.828 53.8397 100.981 53.7583C101.134 53.6769 101.214 53.6248 101.22 53.6021C101.23 53.5793 101.235 53.5581 101.235 53.5386V52.6011C101.235 52.2332 101.092 51.9744 100.805 51.8247C100.711 51.7759 100.597 51.7515 100.464 51.7515C100.333 51.7515 100.2 51.8035 100.063 51.9077C99.9296 52.0119 99.8629 52.16 99.8629 52.3521L99.8873 52.5425C99.8678 52.5815 99.7506 52.6466 99.5358 52.7378C99.3209 52.8289 99.1972 52.8778 99.1647 52.8843C99.1126 52.8843 99.0865 52.8224 99.0865 52.6987C99.0865 52.5718 99.124 52.4318 99.1989 52.2788C99.2737 52.1258 99.3795 51.9858 99.5162 51.8589C99.8352 51.5627 100.2 51.4146 100.61 51.4146C101.02 51.4146 101.354 51.5285 101.611 51.7563C101.868 51.981 101.997 52.2495 101.997 52.562V55.1353ZM99.7457 54.9937C99.7457 55.1499 99.8059 55.2866 99.9264 55.4038C100.047 55.5177 100.184 55.5747 100.337 55.5747C100.493 55.5747 100.682 55.5096 100.903 55.3794C101.124 55.2459 101.235 55.1092 101.235 54.9692V53.978C101.235 53.9422 101.227 53.9243 101.211 53.9243C101.194 53.9243 101.183 53.9259 101.176 53.9292L100.044 54.4565C99.9264 54.5412 99.8466 54.6128 99.8043 54.6714C99.7653 54.73 99.7457 54.8374 99.7457 54.9937ZM107.793 55.7554C107.946 55.7749 108.022 55.814 108.022 55.8726C108.022 55.9116 108.006 55.9344 107.973 55.9409H105.796C105.763 55.9344 105.747 55.9116 105.747 55.8726C105.747 55.814 105.823 55.7749 105.976 55.7554C106.328 55.7033 106.504 55.5177 106.504 55.1987V49.1099C106.504 48.9731 106.429 48.8787 106.279 48.8267C106.214 48.8039 106.144 48.786 106.069 48.7729C105.994 48.7567 105.934 48.742 105.888 48.729C105.846 48.716 105.818 48.7046 105.805 48.6948C105.796 48.6818 105.791 48.6574 105.791 48.6216C105.791 48.5825 105.815 48.55 105.864 48.5239L107.109 47.938C107.148 47.9185 107.172 47.9087 107.182 47.9087C107.238 47.9087 107.265 47.9478 107.265 48.0259V55.1987C107.265 55.5177 107.441 55.7033 107.793 55.7554ZM113.305 51.5464C113.341 51.5562 113.359 51.5789 113.359 51.6147C113.359 51.6506 113.356 51.675 113.349 51.688C113.343 51.6978 113.326 51.7075 113.3 51.7173C113.278 51.7238 113.243 51.7303 113.198 51.7368C113.156 51.7433 113.087 51.7563 112.993 51.7759C112.898 51.7922 112.814 51.8573 112.739 51.9712C112.664 52.0851 112.584 52.243 112.5 52.4448L110.205 58.1333L109.887 58.8071C109.806 58.9797 109.635 59.0659 109.375 59.0659C109.261 59.0659 109.17 59.0285 109.101 58.9536C109.033 58.8787 108.999 58.7892 108.999 58.6851C108.999 58.5841 109.023 58.5093 109.072 58.4604C109.124 58.4149 109.184 58.3774 109.253 58.3481C109.321 58.3188 109.391 58.2912 109.463 58.2651C109.537 58.2424 109.62 58.187 109.712 58.0991C109.803 58.0145 109.856 57.951 109.873 57.9087C110.42 56.6847 110.693 56.0451 110.693 55.9897C110.693 55.9344 110.66 55.866 110.595 55.7847L108.984 52.4204C108.864 52.0916 108.657 51.88 108.364 51.7856C108.341 51.7791 108.313 51.7743 108.281 51.771C108.144 51.758 108.076 51.7173 108.076 51.6489C108.076 51.5806 108.115 51.5464 108.193 51.5464H110.366C110.392 51.5464 110.405 51.5724 110.405 51.6245C110.405 51.6733 110.382 51.7075 110.337 51.7271C110.291 51.7433 110.19 51.7515 110.034 51.7515C109.783 51.7515 109.658 51.8491 109.658 52.0444L109.702 52.1616L110.966 54.8716C111.032 55.0376 111.097 55.0327 111.162 54.8569C111.168 54.8407 111.209 54.7349 111.284 54.5396C111.727 53.4165 111.974 52.7671 112.026 52.5913C112.081 52.4155 112.109 52.2837 112.109 52.1958C112.109 52.1079 112.062 52.0151 111.967 51.9175C111.876 51.8198 111.749 51.771 111.587 51.771C111.427 51.771 111.347 51.7238 111.347 51.6294C111.347 51.5741 111.383 51.5464 111.455 51.5464H113.305ZM116.792 52.4399C116.753 52.4334 116.696 52.4123 116.621 52.3765C116.351 52.2528 116.139 52.1909 115.986 52.1909C115.833 52.1909 115.672 52.2869 115.503 52.479C115.337 52.6678 115.254 52.8387 115.254 52.9917V55.1987C115.254 55.4429 115.395 55.6056 115.678 55.687C115.802 55.7196 115.918 55.744 116.025 55.7603C116.132 55.7733 116.201 55.7863 116.23 55.7993C116.263 55.8123 116.279 55.8384 116.279 55.8774C116.279 55.9132 116.263 55.9344 116.23 55.9409H113.784C113.751 55.9344 113.735 55.9116 113.735 55.8726C113.735 55.814 113.811 55.7749 113.964 55.7554C114.316 55.7033 114.492 55.5177 114.492 55.1987V52.6157C114.492 52.479 114.417 52.3846 114.267 52.3325C114.202 52.3097 114.132 52.2918 114.057 52.2788C113.982 52.2625 113.922 52.2479 113.877 52.2349C113.834 52.2218 113.807 52.2104 113.794 52.2007C113.784 52.1877 113.779 52.1632 113.779 52.1274C113.779 52.0884 113.803 52.0558 113.852 52.0298L115.097 51.4438C115.136 51.4243 115.161 51.4146 115.171 51.4146C115.226 51.4146 115.254 51.4536 115.254 51.5317V52.3228C115.254 52.3618 115.263 52.3813 115.283 52.3813C115.309 52.3813 115.376 52.3049 115.483 52.1519C115.792 51.7189 116.048 51.5024 116.25 51.5024C116.364 51.5024 116.538 51.548 116.772 51.6392C117.01 51.7303 117.129 51.8068 117.129 51.8687C117.129 51.9435 117.091 52.0575 117.016 52.2104C116.941 52.3634 116.866 52.4399 116.792 52.4399ZM118.261 53.3677C118.206 53.3677 118.178 53.4865 118.178 53.7241C118.178 54.2287 118.328 54.6519 118.628 54.9937C118.927 55.3354 119.298 55.5063 119.741 55.5063C120.187 55.5063 120.615 55.3143 121.025 54.9302C121.032 54.9237 121.04 54.9204 121.049 54.9204H121.074C121.093 54.9204 121.111 54.9367 121.128 54.9692C121.147 54.9985 121.165 55.0181 121.181 55.0278C120.804 55.4868 120.359 55.8042 119.848 55.98C119.672 56.0418 119.474 56.0728 119.253 56.0728C119.031 56.0728 118.807 56.0125 118.579 55.8921C118.351 55.7684 118.156 55.6073 117.993 55.4087C117.648 54.9953 117.475 54.481 117.475 53.8657C117.475 53.2472 117.662 52.6841 118.037 52.1763C118.414 51.6685 118.932 51.4146 119.589 51.4146C120.061 51.4146 120.447 51.6261 120.747 52.0493C121.046 52.4692 121.196 52.8387 121.196 53.1577C121.196 53.2977 121.162 53.3677 121.093 53.3677H118.261ZM118.315 52.8989C118.315 52.9608 118.344 52.9917 118.403 52.9917H120.244C120.328 52.9917 120.371 52.9412 120.371 52.8403C120.371 52.606 120.265 52.3667 120.053 52.1226C119.845 51.8752 119.616 51.7515 119.365 51.7515C119.121 51.7515 118.898 51.8621 118.696 52.0835C118.497 52.3049 118.37 52.5571 118.315 52.8403V52.8989ZM30.6735 66.186C30.6539 66.186 30.6442 66.2007 30.6442 66.23V68.9253C30.6442 69.1206 30.6865 69.2736 30.7711 69.3843C30.859 69.495 30.9697 69.5503 31.1031 69.5503C31.2366 69.5503 31.3522 69.5291 31.4498 69.4868C31.5507 69.4412 31.637 69.3924 31.7086 69.3403C31.7835 69.2882 31.8502 69.241 31.9088 69.1987C31.9674 69.1532 32.0195 69.1304 32.0651 69.1304C32.1106 69.1304 32.1334 69.1418 32.1334 69.1646C32.1334 69.2427 32.1253 69.2931 32.109 69.3159C31.7184 69.8205 31.3408 70.0728 30.9762 70.0728C30.6149 70.0728 30.3414 69.9588 30.1559 69.731C29.9736 69.4998 29.8824 69.2248 29.8824 68.9058V66.186H29.5162C29.4251 66.186 29.3763 66.1567 29.3698 66.0981C29.3665 66.0396 29.3763 66.0021 29.399 65.9858C29.5716 65.8752 29.8092 65.6766 30.1119 65.3901C30.1445 65.3543 30.1884 65.3006 30.2438 65.229C30.2991 65.1574 30.3789 65.0597 30.483 64.936C30.5905 64.8123 30.6718 64.7505 30.7272 64.7505C30.7825 64.7505 30.8102 64.7733 30.8102 64.8188C30.8102 64.8254 30.7548 65.0386 30.6442 65.4585C30.6442 65.5171 30.6702 65.548 30.7223 65.5513H31.9674C32.1106 65.5513 32.1823 65.7531 32.1823 66.1567C32.1823 66.1763 32.1692 66.186 32.1432 66.186H30.6735ZM34.3014 63.9546C34.3014 64.5601 34.0166 65.0646 33.4469 65.4683C33.3167 65.5627 33.2174 65.6099 33.149 65.6099C33.1035 65.6099 33.0807 65.5822 33.0807 65.5269C33.0807 65.4683 33.0905 65.4276 33.11 65.4048C33.1295 65.3787 33.1523 65.356 33.1783 65.3364C33.2044 65.3169 33.2288 65.299 33.2516 65.2827C33.2776 65.2664 33.3086 65.2437 33.3444 65.2144C33.6699 64.9181 33.8326 64.6496 33.8326 64.4087C33.8326 64.2687 33.7724 64.1987 33.652 64.1987C33.3265 64.1987 33.11 64.0962 33.0026 63.8911C32.9635 63.8162 32.944 63.7121 32.944 63.5786C32.944 63.4451 33.0026 63.3247 33.1198 63.2173C33.2402 63.1099 33.3688 63.0562 33.5055 63.0562C33.7594 63.0562 33.9547 63.1571 34.0914 63.3589C34.2314 63.5575 34.3014 63.756 34.3014 63.9546ZM34.8678 69.9409C34.8352 69.9344 34.819 69.9116 34.819 69.8726C34.819 69.814 34.8955 69.7749 35.0485 69.7554C35.4 69.7033 35.5758 69.5177 35.5758 69.1987V66.6157C35.5758 66.479 35.5009 66.3846 35.3512 66.3325C35.2861 66.3097 35.2161 66.2918 35.1412 66.2788C35.0664 66.2625 35.0061 66.2479 34.9606 66.2349C34.9183 66.2218 34.8906 66.2104 34.8776 66.2007C34.8678 66.1877 34.8629 66.1632 34.8629 66.1274C34.8629 66.0884 34.8873 66.0558 34.9362 66.0298L36.1813 65.4438C36.2203 65.4243 36.2448 65.4146 36.2545 65.4146C36.3099 65.4146 36.3375 65.4536 36.3375 65.5317V69.1987C36.3375 69.5177 36.5133 69.7033 36.8649 69.7554C37.0179 69.7749 37.0944 69.8091 37.0944 69.8579C37.0944 69.9067 37.0781 69.9344 37.0455 69.9409H34.8678ZM35.8834 64.0425C35.75 64.0425 35.6311 64.0002 35.527 63.9155C35.4261 63.8309 35.3756 63.7137 35.3756 63.564C35.3756 63.411 35.4244 63.2905 35.5221 63.2026C35.6198 63.1147 35.7353 63.0708 35.8688 63.0708C36.0055 63.0708 36.1194 63.1229 36.2106 63.2271C36.305 63.3312 36.3522 63.4435 36.3522 63.564C36.3522 63.6844 36.3082 63.7951 36.2203 63.896C36.1324 63.9937 36.0201 64.0425 35.8834 64.0425ZM41.2643 68.4028L41.2545 67.3726C41.2545 66.9526 41.2187 66.658 41.1471 66.4888C41.0755 66.3195 40.9843 66.1925 40.8737 66.1079C40.763 66.02 40.6132 65.9761 40.4244 65.9761C40.2389 65.9761 39.8434 66.1226 39.2379 66.4155C39.1565 66.4644 39.1142 66.5099 39.111 66.5522V69.1792C39.111 69.508 39.2867 69.6968 39.6383 69.7456C39.7913 69.7684 39.8678 69.8058 39.8678 69.8579C39.8678 69.9067 39.8515 69.9344 39.819 69.9409H37.6412C37.6087 69.9344 37.5924 69.9116 37.5924 69.8726C37.5924 69.8107 37.6689 69.7684 37.8219 69.7456C38.1735 69.6968 38.3492 69.508 38.3492 69.1792V66.3765C38.3492 66.2397 38.2744 66.1453 38.1246 66.0933C38.0595 66.0705 37.9895 66.0526 37.9147 66.0396C37.8398 66.0233 37.7796 66.0086 37.734 65.9956C37.6917 65.9826 37.664 65.9712 37.651 65.9614C37.6412 65.9484 37.6364 65.924 37.6364 65.8882C37.6364 65.8491 37.6608 65.8166 37.7096 65.7905L38.9547 65.2046C38.9938 65.1851 39.0182 65.1753 39.028 65.1753C39.0833 65.1753 39.111 65.2144 39.111 65.2925V66.0542C39.1207 66.0868 39.1337 66.103 39.15 66.103C39.1696 66.103 39.2395 66.0737 39.36 66.0151C39.6399 65.8752 39.9215 65.7401 40.2047 65.6099C40.4879 65.4797 40.7223 65.4146 40.9078 65.4146C41.6598 65.4146 42.0358 66.0998 42.0358 67.4702L41.9918 68.896V69.1792C41.9918 69.4331 42.1188 69.5991 42.3727 69.6772C42.4801 69.7131 42.5826 69.7391 42.6803 69.7554C42.7812 69.7684 42.8463 69.7814 42.8756 69.7944C42.9082 69.8075 42.9244 69.8335 42.9244 69.8726C42.9244 69.9116 42.9082 69.9344 42.8756 69.9409H40.5221C40.4895 69.9344 40.4733 69.9116 40.4733 69.8726C40.4733 69.8107 40.5498 69.7684 40.7028 69.7456C41.0511 69.6968 41.2252 69.495 41.2252 69.1401C41.2513 68.9774 41.2643 68.7316 41.2643 68.4028ZM46.3766 65.6196C46.5198 65.6685 46.6077 65.6929 46.6403 65.6929C46.6728 65.6929 46.6923 65.6929 46.6989 65.6929C46.7086 65.6896 46.72 65.6685 46.733 65.6294V63.1099C46.733 62.9731 46.6582 62.8787 46.5084 62.8267C46.4433 62.8039 46.3733 62.786 46.2985 62.7729C46.2236 62.7567 46.1634 62.742 46.1178 62.729C46.0755 62.716 46.0478 62.7046 46.0348 62.6948C46.025 62.6818 46.0201 62.6574 46.0201 62.6216C46.0201 62.5825 46.0446 62.55 46.0934 62.5239L47.3385 61.938C47.3776 61.9185 47.402 61.9087 47.4117 61.9087C47.4671 61.9087 47.4948 61.9478 47.4948 62.0259V68.979C47.511 69.1222 47.5517 69.2248 47.6168 69.2866C47.6819 69.3485 47.7877 69.3794 47.9342 69.3794L48.2174 69.3599C48.2369 69.3599 48.2467 69.3794 48.2467 69.4185C48.2467 69.4543 48.2223 69.4836 48.1735 69.5063L46.8746 70.0435C46.8356 70.063 46.8014 70.0728 46.7721 70.0728C46.7461 70.0728 46.733 70.0321 46.733 69.9507V69.5063C46.733 69.4738 46.7249 69.4575 46.7086 69.4575C46.6858 69.4575 46.5507 69.5308 46.3033 69.6772C45.5449 70.1265 44.9052 70.1932 44.3844 69.8774C43.9677 69.6235 43.6862 69.2215 43.5397 68.6714C43.4713 68.4142 43.4371 68.1424 43.4371 67.856C43.4371 67.5662 43.4957 67.2798 43.6129 66.9966C43.7334 66.7101 43.8977 66.4595 44.1061 66.2446C44.5651 65.7759 45.1184 65.5415 45.7662 65.5415C46.0299 65.5415 46.2334 65.5675 46.3766 65.6196ZM44.1744 67.7144C44.1744 68.2059 44.3112 68.6372 44.5846 69.0083C44.858 69.3761 45.2389 69.5601 45.7272 69.5601C45.942 69.5601 46.1634 69.508 46.3912 69.4038C46.6191 69.2964 46.733 69.215 46.733 69.1597V66.6401C46.733 66.5783 46.6907 66.505 46.6061 66.4204C46.3457 66.0623 45.999 65.8833 45.566 65.8833C45.1364 65.8833 44.7962 66.0656 44.5455 66.4302C44.2981 66.7915 44.1744 67.2196 44.1744 67.7144ZM48.6862 69.9409C48.6536 69.9344 48.6373 69.9116 48.6373 69.8726C48.6373 69.814 48.7138 69.7749 48.8668 69.7554C49.2184 69.7033 49.3942 69.5177 49.3942 69.1987V66.6157C49.3942 66.479 49.3193 66.3846 49.1696 66.3325C49.1045 66.3097 49.0345 66.2918 48.9596 66.2788C48.8847 66.2625 48.8245 66.2479 48.7789 66.2349C48.7366 66.2218 48.7089 66.2104 48.6959 66.2007C48.6862 66.1877 48.6813 66.1632 48.6813 66.1274C48.6813 66.0884 48.7057 66.0558 48.7545 66.0298L49.9996 65.4438C50.0387 65.4243 50.0631 65.4146 50.0729 65.4146C50.1282 65.4146 50.1559 65.4536 50.1559 65.5317V69.1987C50.1559 69.5177 50.3317 69.7033 50.6832 69.7554C50.8362 69.7749 50.9127 69.8091 50.9127 69.8579C50.9127 69.9067 50.8964 69.9344 50.8639 69.9409H48.6862ZM49.7018 64.0425C49.5683 64.0425 49.4495 64.0002 49.3453 63.9155C49.2444 63.8309 49.194 63.7137 49.194 63.564C49.194 63.411 49.2428 63.2905 49.3405 63.2026C49.4381 63.1147 49.5537 63.0708 49.6871 63.0708C49.8239 63.0708 49.9378 63.1229 50.0289 63.2271C50.1233 63.3312 50.1705 63.4435 50.1705 63.564C50.1705 63.6844 50.1266 63.7951 50.0387 63.896C49.9508 63.9937 49.8385 64.0425 49.7018 64.0425ZM55.6832 65.3755C55.7028 65.3755 55.7125 65.3853 55.7125 65.4048V72.2261C55.7125 72.5451 55.8883 72.7306 56.2399 72.7827C56.3929 72.8022 56.4694 72.8364 56.4694 72.8853C56.4694 72.9341 56.4531 72.9618 56.4205 72.9683H53.8033C53.7708 72.9618 53.7545 72.939 53.7545 72.8999C53.7545 72.8641 53.7692 72.8397 53.7985 72.8267C53.831 72.8136 53.8798 72.8022 53.9449 72.7925C54.0133 72.786 54.0898 72.7762 54.1744 72.7632C54.692 72.6851 54.9508 72.506 54.9508 72.2261V69.4526C54.9508 69.4331 54.9427 69.4233 54.9264 69.4233C54.9134 69.4233 54.7913 69.4901 54.5602 69.6235C54.3291 69.757 54.1191 69.8644 53.9303 69.9458C53.7448 70.0304 53.5494 70.0728 53.3444 70.0728C52.9863 70.0728 52.6819 69.9572 52.4313 69.7261C52.1806 69.495 51.9869 69.2069 51.8502 68.8618C51.7135 68.5168 51.6451 68.1799 51.6451 67.8511C51.6451 67.187 51.8746 66.6157 52.3336 66.1372C52.7926 65.6554 53.346 65.4146 53.9938 65.4146C54.3942 65.4146 54.7864 65.5187 55.1705 65.7271H55.2047C55.2666 65.7271 55.3333 65.688 55.4049 65.6099C55.4765 65.5285 55.527 65.4699 55.5563 65.4341C55.5888 65.395 55.6149 65.3755 55.6344 65.3755H55.6832ZM52.3824 67.7729C52.3824 68.3296 52.5354 68.7625 52.8414 69.0718C53.1507 69.3778 53.4697 69.5308 53.7985 69.5308C54.1272 69.5308 54.4349 69.4461 54.7213 69.2769C54.8092 69.2248 54.8857 69.1662 54.9508 69.1011V66.8843C54.9508 66.4904 54.8401 66.1942 54.6188 65.9956C54.3974 65.797 54.1533 65.6978 53.8864 65.6978C53.4111 65.6978 53.0416 65.9045 52.778 66.3179C52.5143 66.728 52.3824 67.2131 52.3824 67.7729ZM60.1901 69.5112C60.1738 69.4559 60.1526 69.438 60.1266 69.4575C60.1005 69.4738 59.9948 69.5291 59.8092 69.6235C59.2005 69.9263 58.6927 70.0776 58.2858 70.0776C57.8789 70.0776 57.5859 69.9474 57.4069 69.687C57.3418 69.5894 57.3092 69.4689 57.3092 69.3257V66.3472C57.2994 66.2528 57.2571 66.1714 57.1823 66.103C57.0813 66.0184 56.9755 65.9728 56.8649 65.9663C56.7574 65.9598 56.7037 65.9272 56.7037 65.8687C56.7037 65.8068 56.7298 65.7694 56.7819 65.7563L57.9 65.4341C57.9391 65.4211 57.9765 65.4146 58.0123 65.4146C58.0514 65.4146 58.0709 65.4422 58.0709 65.4976V68.7739C58.0709 69.0018 58.1718 69.1776 58.3737 69.3013C58.5755 69.425 58.8326 69.4868 59.1451 69.4868C59.4609 69.4868 59.7441 69.3908 59.9948 69.1987C60.0729 69.1369 60.138 69.0685 60.1901 68.9937V66.3472C60.1803 66.2528 60.138 66.1714 60.0631 66.103C59.9622 66.0184 59.8564 65.9728 59.7457 65.9663C59.6383 65.9598 59.5846 65.9272 59.5846 65.8687C59.5846 65.8068 59.6106 65.7694 59.6627 65.7563L60.7809 65.4341C60.8199 65.4211 60.8574 65.4146 60.8932 65.4146C60.9323 65.4146 60.9518 65.4471 60.9518 65.5122V68.979C60.9681 69.1222 61.0087 69.2248 61.0739 69.2866C61.139 69.3485 61.2448 69.3794 61.3912 69.3794L61.6744 69.3599C61.694 69.3599 61.7037 69.3794 61.7037 69.4185C61.7037 69.4543 61.6793 69.4836 61.6305 69.5063L60.3317 70.0435C60.2926 70.063 60.2584 70.0728 60.2291 70.0728C60.2031 70.0728 60.1901 70.0321 60.1901 69.9507V69.5112ZM63.1246 67.3677C63.0693 67.3677 63.0416 67.4865 63.0416 67.7241C63.0416 68.2287 63.1914 68.6519 63.4908 68.9937C63.7903 69.3354 64.1614 69.5063 64.6041 69.5063C65.0501 69.5063 65.4781 69.3143 65.8883 68.9302C65.8948 68.9237 65.903 68.9204 65.9127 68.9204H65.9371C65.9567 68.9204 65.9746 68.9367 65.9908 68.9692C66.0104 68.9985 66.0283 69.0181 66.0446 69.0278C65.667 69.4868 65.2226 69.8042 64.7115 69.98C64.5358 70.0418 64.3372 70.0728 64.1158 70.0728C63.8945 70.0728 63.6699 70.0125 63.442 69.8921C63.2142 69.7684 63.0188 69.6073 62.8561 69.4087C62.511 68.9953 62.3385 68.481 62.3385 67.8657C62.3385 67.2472 62.5257 66.6841 62.9 66.1763C63.2776 65.6685 63.7952 65.4146 64.4528 65.4146C64.9248 65.4146 65.3105 65.6261 65.61 66.0493C65.9095 66.4692 66.0592 66.8387 66.0592 67.1577C66.0592 67.2977 66.025 67.3677 65.9567 67.3677H63.1246ZM63.1783 66.8989C63.1783 66.9608 63.2076 66.9917 63.2662 66.9917H65.1071C65.1917 66.9917 65.234 66.9412 65.234 66.8403C65.234 66.606 65.1282 66.3667 64.9166 66.1226C64.7083 65.8752 64.4788 65.7515 64.2281 65.7515C63.984 65.7515 63.761 65.8621 63.5592 66.0835C63.3606 66.3049 63.2337 66.5571 63.1783 66.8403V66.8989ZM69.5895 67.7485C69.5895 67.1073 69.8157 66.5571 70.2682 66.0981C70.7239 65.6359 71.2692 65.4048 71.9039 65.4048C72.5387 65.4048 73.0905 65.6294 73.5592 66.0786C74.028 66.5246 74.2623 67.0763 74.2623 67.7339C74.2623 68.3914 74.0393 68.9465 73.5934 69.3989C73.1507 69.8481 72.594 70.0728 71.9235 70.0728C71.2529 70.0728 70.6962 69.8449 70.2535 69.3892C69.8108 68.9334 69.5895 68.3866 69.5895 67.7485ZM70.8053 69.0034C71.1243 69.5405 71.5589 69.8091 72.109 69.8091C72.5354 69.8091 72.861 69.6382 73.0856 69.2964C73.3134 68.9546 73.4274 68.5347 73.4274 68.0366C73.4274 67.5386 73.2679 67.0275 72.9489 66.5034C72.6331 65.9793 72.2067 65.7173 71.6696 65.7173C71.2757 65.7173 70.9648 65.8882 70.7369 66.23C70.5123 66.5685 70.4 66.9998 70.4 67.5239C70.4 68.0448 70.5351 68.5379 70.8053 69.0034ZM78.3151 69.5112C78.2988 69.4559 78.2776 69.438 78.2516 69.4575C78.2255 69.4738 78.1198 69.5291 77.9342 69.6235C77.3255 69.9263 76.8177 70.0776 76.4108 70.0776C76.0039 70.0776 75.7109 69.9474 75.5319 69.687C75.4668 69.5894 75.4342 69.4689 75.4342 69.3257V66.3472C75.4244 66.2528 75.3821 66.1714 75.3073 66.103C75.2063 66.0184 75.1005 65.9728 74.9899 65.9663C74.8824 65.9598 74.8287 65.9272 74.8287 65.8687C74.8287 65.8068 74.8548 65.7694 74.9069 65.7563L76.025 65.4341C76.0641 65.4211 76.1015 65.4146 76.1373 65.4146C76.1764 65.4146 76.1959 65.4422 76.1959 65.4976V68.7739C76.1959 69.0018 76.2968 69.1776 76.4987 69.3013C76.7005 69.425 76.9576 69.4868 77.2701 69.4868C77.5859 69.4868 77.8691 69.3908 78.1198 69.1987C78.1979 69.1369 78.263 69.0685 78.3151 68.9937V66.3472C78.3053 66.2528 78.263 66.1714 78.1881 66.103C78.0872 66.0184 77.9814 65.9728 77.8707 65.9663C77.7633 65.9598 77.7096 65.9272 77.7096 65.8687C77.7096 65.8068 77.7356 65.7694 77.7877 65.7563L78.9059 65.4341C78.9449 65.4211 78.9824 65.4146 79.0182 65.4146C79.0573 65.4146 79.0768 65.4471 79.0768 65.5122V68.979C79.0931 69.1222 79.1337 69.2248 79.1989 69.2866C79.264 69.3485 79.3698 69.3794 79.5162 69.3794L79.7994 69.3599C79.819 69.3599 79.8287 69.3794 79.8287 69.4185C79.8287 69.4543 79.8043 69.4836 79.7555 69.5063L78.4567 70.0435C78.4176 70.063 78.3834 70.0728 78.3541 70.0728C78.3281 70.0728 78.3151 70.0321 78.3151 69.9507V69.5112ZM84.3356 66.186C84.316 66.186 84.3063 66.2007 84.3063 66.23V68.9253C84.3063 69.1206 84.3486 69.2736 84.4332 69.3843C84.5211 69.495 84.6318 69.5503 84.7653 69.5503C84.8987 69.5503 85.0143 69.5291 85.1119 69.4868C85.2128 69.4412 85.2991 69.3924 85.3707 69.3403C85.4456 69.2882 85.5123 69.241 85.5709 69.1987C85.6295 69.1532 85.6816 69.1304 85.7272 69.1304C85.7727 69.1304 85.7955 69.1418 85.7955 69.1646C85.7955 69.2427 85.7874 69.2931 85.7711 69.3159C85.3805 69.8205 85.0029 70.0728 84.6383 70.0728C84.277 70.0728 84.0035 69.9588 83.818 69.731C83.6357 69.4998 83.5446 69.2248 83.5446 68.9058V66.186H83.1783C83.0872 66.186 83.0384 66.1567 83.0319 66.0981C83.0286 66.0396 83.0384 66.0021 83.0612 65.9858C83.2337 65.8752 83.4713 65.6766 83.774 65.3901C83.8066 65.3543 83.8505 65.3006 83.9059 65.229C83.9612 65.1574 84.041 65.0597 84.1451 64.936C84.2526 64.8123 84.3339 64.7505 84.3893 64.7505C84.4446 64.7505 84.4723 64.7733 84.4723 64.8188C84.4723 64.8254 84.417 65.0386 84.3063 65.4585C84.3063 65.5171 84.3323 65.548 84.3844 65.5513H85.6295C85.7727 65.5513 85.8444 65.7531 85.8444 66.1567C85.8444 66.1763 85.8313 66.186 85.8053 66.186H84.3356ZM87.9635 63.9546C87.9635 64.5601 87.6787 65.0646 87.109 65.4683C86.9788 65.5627 86.8795 65.6099 86.8112 65.6099C86.7656 65.6099 86.7428 65.5822 86.7428 65.5269C86.7428 65.4683 86.7526 65.4276 86.7721 65.4048C86.7916 65.3787 86.8144 65.356 86.8405 65.3364C86.8665 65.3169 86.8909 65.299 86.9137 65.2827C86.9397 65.2664 86.9707 65.2437 87.0065 65.2144C87.332 64.9181 87.4948 64.6496 87.4948 64.4087C87.4948 64.2687 87.4345 64.1987 87.3141 64.1987C86.9886 64.1987 86.7721 64.0962 86.6647 63.8911C86.6256 63.8162 86.6061 63.7121 86.6061 63.5786C86.6061 63.4451 86.6647 63.3247 86.7819 63.2173C86.9023 63.1099 87.0309 63.0562 87.1676 63.0562C87.4215 63.0562 87.6168 63.1571 87.7535 63.3589C87.8935 63.5575 87.9635 63.756 87.9635 63.9546ZM91.5475 69.1353C91.5475 69.2199 91.5865 69.2882 91.6647 69.3403C91.7461 69.3892 91.8388 69.4136 91.943 69.4136C92.0472 69.4136 92.1334 69.3875 92.2018 69.3354C92.2734 69.2801 92.3222 69.2524 92.3483 69.2524C92.3743 69.2524 92.3873 69.2882 92.3873 69.3599C92.3873 69.4282 92.3548 69.4868 92.2897 69.5356C91.8014 69.8937 91.471 70.0728 91.2985 70.0728C91.0901 70.0728 90.9209 69.8563 90.7906 69.4233C90.7809 69.3908 90.7727 69.3761 90.7662 69.3794C90.3626 69.6821 90.1087 69.8644 90.0045 69.9263C89.7376 70.0793 89.469 70.1037 89.1989 69.9995C88.9319 69.8953 88.7382 69.7228 88.6178 69.4819C88.5592 69.3582 88.5299 69.2264 88.5299 69.0864C88.5299 68.8097 88.6324 68.59 88.8375 68.4272C89.0426 68.2645 89.4332 68.1082 90.0094 67.9585C90.2047 67.9064 90.3789 67.8397 90.5319 67.7583C90.6849 67.6769 90.7646 67.6248 90.7711 67.6021C90.7809 67.5793 90.7858 67.5581 90.7858 67.5386V66.6011C90.7858 66.2332 90.6425 65.9744 90.3561 65.8247C90.2617 65.7759 90.1477 65.7515 90.0143 65.7515C89.8841 65.7515 89.7506 65.8035 89.6139 65.9077C89.4804 66.0119 89.4137 66.16 89.4137 66.3521L89.4381 66.5425C89.4186 66.5815 89.3014 66.6466 89.0865 66.7378C88.8717 66.8289 88.748 66.8778 88.7155 66.8843C88.6634 66.8843 88.6373 66.8224 88.6373 66.6987C88.6373 66.5718 88.6748 66.4318 88.7496 66.2788C88.8245 66.1258 88.9303 65.9858 89.067 65.8589C89.386 65.5627 89.7506 65.4146 90.1608 65.4146C90.5709 65.4146 90.9046 65.5285 91.1617 65.7563C91.4189 65.981 91.5475 66.2495 91.5475 66.562V69.1353ZM89.2965 68.9937C89.2965 69.1499 89.3567 69.2866 89.4772 69.4038C89.5976 69.5177 89.7343 69.5747 89.8873 69.5747C90.0436 69.5747 90.2324 69.5096 90.4537 69.3794C90.6751 69.2459 90.7858 69.1092 90.7858 68.9692V67.978C90.7858 67.9422 90.7776 67.9243 90.7614 67.9243C90.7451 67.9243 90.7337 67.9259 90.7272 67.9292L89.5944 68.4565C89.4772 68.5412 89.3974 68.6128 89.3551 68.6714C89.316 68.73 89.2965 68.8374 89.2965 68.9937ZM95.8248 66.4399C95.7858 66.4334 95.7288 66.4123 95.6539 66.3765C95.3837 66.2528 95.1722 66.1909 95.0192 66.1909C94.8662 66.1909 94.705 66.2869 94.5358 66.479C94.3698 66.6678 94.2867 66.8387 94.2867 66.9917V69.1987C94.2867 69.4429 94.4283 69.6056 94.7115 69.687C94.8352 69.7196 94.9508 69.744 95.0582 69.7603C95.1656 69.7733 95.234 69.7863 95.2633 69.7993C95.2959 69.8123 95.3121 69.8384 95.3121 69.8774C95.3121 69.9132 95.2959 69.9344 95.2633 69.9409H92.817C92.7845 69.9344 92.7682 69.9116 92.7682 69.8726C92.7682 69.814 92.8447 69.7749 92.9977 69.7554C93.3492 69.7033 93.525 69.5177 93.525 69.1987V66.6157C93.525 66.479 93.4502 66.3846 93.3004 66.3325C93.2353 66.3097 93.1653 66.2918 93.0905 66.2788C93.0156 66.2625 92.9554 66.2479 92.9098 66.2349C92.8675 66.2218 92.8398 66.2104 92.8268 66.2007C92.817 66.1877 92.8121 66.1632 92.8121 66.1274C92.8121 66.0884 92.8365 66.0558 92.8854 66.0298L94.1305 65.4438C94.1696 65.4243 94.194 65.4146 94.2037 65.4146C94.2591 65.4146 94.2867 65.4536 94.2867 65.5317V66.3228C94.2867 66.3618 94.2965 66.3813 94.316 66.3813C94.3421 66.3813 94.4088 66.3049 94.5162 66.1519C94.8255 65.7189 95.081 65.5024 95.2828 65.5024C95.3968 65.5024 95.5709 65.548 95.8053 65.6392C96.0429 65.7303 96.1617 65.8068 96.1617 65.8687C96.1617 65.9435 96.1243 66.0575 96.0494 66.2104C95.9746 66.3634 95.8997 66.4399 95.8248 66.4399ZM99.4772 66.4399C99.4381 66.4334 99.3811 66.4123 99.3063 66.3765C99.0361 66.2528 98.8245 66.1909 98.6715 66.1909C98.5185 66.1909 98.3574 66.2869 98.1881 66.479C98.0221 66.6678 97.9391 66.8387 97.9391 66.9917V69.1987C97.9391 69.4429 98.0807 69.6056 98.3639 69.687C98.4876 69.7196 98.6031 69.744 98.7106 69.7603C98.818 69.7733 98.8864 69.7863 98.9156 69.7993C98.9482 69.8123 98.9645 69.8384 98.9645 69.8774C98.9645 69.9132 98.9482 69.9344 98.9156 69.9409H96.4694C96.4368 69.9344 96.4205 69.9116 96.4205 69.8726C96.4205 69.814 96.497 69.7749 96.65 69.7554C97.0016 69.7033 97.1774 69.5177 97.1774 69.1987V66.6157C97.1774 66.479 97.1025 66.3846 96.9528 66.3325C96.8877 66.3097 96.8177 66.2918 96.7428 66.2788C96.6679 66.2625 96.6077 66.2479 96.5621 66.2349C96.5198 66.2218 96.4921 66.2104 96.4791 66.2007C96.4694 66.1877 96.4645 66.1632 96.4645 66.1274C96.4645 66.0884 96.4889 66.0558 96.5377 66.0298L97.7828 65.4438C97.8219 65.4243 97.8463 65.4146 97.8561 65.4146C97.9114 65.4146 97.9391 65.4536 97.9391 65.5317V66.3228C97.9391 66.3618 97.9489 66.3813 97.9684 66.3813C97.9944 66.3813 98.0612 66.3049 98.1686 66.1519C98.4778 65.7189 98.7334 65.5024 98.9352 65.5024C99.0491 65.5024 99.2233 65.548 99.4576 65.6392C99.6953 65.7303 99.8141 65.8068 99.8141 65.8687C99.8141 65.9435 99.7767 66.0575 99.7018 66.2104C99.6269 66.3634 99.552 66.4399 99.4772 66.4399ZM100.947 67.3677C100.892 67.3677 100.864 67.4865 100.864 67.7241C100.864 68.2287 101.014 68.6519 101.313 68.9937C101.613 69.3354 101.984 69.5063 102.426 69.5063C102.872 69.5063 103.3 69.3143 103.711 68.9302C103.717 68.9237 103.725 68.9204 103.735 68.9204H103.759C103.779 68.9204 103.797 68.9367 103.813 68.9692C103.833 68.9985 103.851 69.0181 103.867 69.0278C103.489 69.4868 103.045 69.8042 102.534 69.98C102.358 70.0418 102.159 70.0728 101.938 70.0728C101.717 70.0728 101.492 70.0125 101.264 69.8921C101.036 69.7684 100.841 69.6073 100.678 69.4087C100.333 68.9953 100.161 68.481 100.161 67.8657C100.161 67.2472 100.348 66.6841 100.722 66.1763C101.1 65.6685 101.617 65.4146 102.275 65.4146C102.747 65.4146 103.133 65.6261 103.432 66.0493C103.732 66.4692 103.881 66.8387 103.881 67.1577C103.881 67.2977 103.847 67.3677 103.779 67.3677H100.947ZM101.001 66.8989C101.001 66.9608 101.03 66.9917 101.089 66.9917H102.929C103.014 66.9917 103.056 66.9412 103.056 66.8403C103.056 66.606 102.95 66.3667 102.739 66.1226C102.531 65.8752 102.301 65.7515 102.05 65.7515C101.806 65.7515 101.583 65.8621 101.381 66.0835C101.183 66.3049 101.056 66.5571 101.001 66.8403V66.8989ZM102.212 63.6372C102.202 63.6274 102.184 63.6079 102.158 63.5786C102.132 63.5493 102.116 63.5347 102.109 63.5347C102.102 63.5347 102.086 63.5493 102.06 63.5786C102.037 63.6079 102.021 63.6274 102.011 63.6372L100.966 64.731C100.953 64.744 100.937 64.7505 100.918 64.7505C100.901 64.7505 100.877 64.7293 100.844 64.687C100.812 64.6414 100.796 64.6105 100.796 64.5942C100.796 64.578 100.807 64.5535 100.83 64.521L101.992 62.9438C102.011 62.9243 102.031 62.9032 102.05 62.8804C102.073 62.8576 102.093 62.8462 102.109 62.8462C102.138 62.8462 102.181 62.882 102.236 62.9536L103.447 64.521C103.47 64.5568 103.481 64.5828 103.481 64.5991C103.481 64.6121 103.465 64.6414 103.432 64.687C103.4 64.7293 103.375 64.7505 103.359 64.7505C103.346 64.7505 103.333 64.744 103.32 64.731L102.212 63.6372ZM105.888 66.186C105.869 66.186 105.859 66.2007 105.859 66.23V68.9253C105.859 69.1206 105.901 69.2736 105.986 69.3843C106.074 69.495 106.185 69.5503 106.318 69.5503C106.451 69.5503 106.567 69.5291 106.665 69.4868C106.766 69.4412 106.852 69.3924 106.923 69.3403C106.998 69.2882 107.065 69.241 107.124 69.1987C107.182 69.1532 107.234 69.1304 107.28 69.1304C107.325 69.1304 107.348 69.1418 107.348 69.1646C107.348 69.2427 107.34 69.2931 107.324 69.3159C106.933 69.8205 106.556 70.0728 106.191 70.0728C105.83 70.0728 105.556 69.9588 105.371 69.731C105.188 69.4998 105.097 69.2248 105.097 68.9058V66.186H104.731C104.64 66.186 104.591 66.1567 104.585 66.0981C104.581 66.0396 104.591 66.0021 104.614 65.9858C104.786 65.8752 105.024 65.6766 105.327 65.3901C105.359 65.3543 105.403 65.3006 105.459 65.229C105.514 65.1574 105.594 65.0597 105.698 64.936C105.805 64.8123 105.887 64.7505 105.942 64.7505C105.997 64.7505 106.025 64.7733 106.025 64.8188C106.025 64.8254 105.97 65.0386 105.859 65.4585C105.859 65.5171 105.885 65.548 105.937 65.5513H107.182C107.325 65.5513 107.397 65.7531 107.397 66.1567C107.397 66.1763 107.384 66.186 107.358 66.186H105.888ZM108.652 67.3677C108.597 67.3677 108.569 67.4865 108.569 67.7241C108.569 68.2287 108.719 68.6519 109.018 68.9937C109.318 69.3354 109.689 69.5063 110.131 69.5063C110.577 69.5063 111.005 69.3143 111.416 68.9302C111.422 68.9237 111.43 68.9204 111.44 68.9204H111.464C111.484 68.9204 111.502 68.9367 111.518 68.9692C111.538 68.9985 111.556 69.0181 111.572 69.0278C111.194 69.4868 110.75 69.8042 110.239 69.98C110.063 70.0418 109.865 70.0728 109.643 70.0728C109.422 70.0728 109.197 70.0125 108.969 69.8921C108.741 69.7684 108.546 69.6073 108.383 69.4087C108.038 68.9953 107.866 68.481 107.866 67.8657C107.866 67.2472 108.053 66.6841 108.427 66.1763C108.805 65.6685 109.323 65.4146 109.98 65.4146C110.452 65.4146 110.838 65.6261 111.137 66.0493C111.437 66.4692 111.587 66.8387 111.587 67.1577C111.587 67.2977 111.552 67.3677 111.484 67.3677H108.652ZM108.706 66.8989C108.706 66.9608 108.735 66.9917 108.794 66.9917H110.634C110.719 66.9917 110.761 66.9412 110.761 66.8403C110.761 66.606 110.656 66.3667 110.444 66.1226C110.236 65.8752 110.006 65.7515 109.755 65.7515C109.511 65.7515 109.288 65.8621 109.087 66.0835C108.888 66.3049 108.761 66.5571 108.706 66.8403V66.8989ZM115.376 66.4399C115.337 66.4334 115.28 66.4123 115.205 66.3765C114.935 66.2528 114.723 66.1909 114.57 66.1909C114.417 66.1909 114.256 66.2869 114.087 66.479C113.921 66.6678 113.838 66.8387 113.838 66.9917V69.1987C113.838 69.4429 113.979 69.6056 114.262 69.687C114.386 69.7196 114.502 69.744 114.609 69.7603C114.716 69.7733 114.785 69.7863 114.814 69.7993C114.847 69.8123 114.863 69.8384 114.863 69.8774C114.863 69.9132 114.847 69.9344 114.814 69.9409H112.368C112.335 69.9344 112.319 69.9116 112.319 69.8726C112.319 69.814 112.395 69.7749 112.548 69.7554C112.9 69.7033 113.076 69.5177 113.076 69.1987V66.6157C113.076 66.479 113.001 66.3846 112.851 66.3325C112.786 66.3097 112.716 66.2918 112.641 66.2788C112.566 66.2625 112.506 66.2479 112.461 66.2349C112.418 66.2218 112.391 66.2104 112.378 66.2007C112.368 66.1877 112.363 66.1632 112.363 66.1274C112.363 66.0884 112.387 66.0558 112.436 66.0298L113.681 65.4438C113.72 65.4243 113.745 65.4146 113.755 65.4146C113.81 65.4146 113.838 65.4536 113.838 65.5317V66.3228C113.838 66.3618 113.847 66.3813 113.867 66.3813C113.893 66.3813 113.96 66.3049 114.067 66.1519C114.376 65.7189 114.632 65.5024 114.834 65.5024C114.948 65.5024 115.122 65.548 115.356 65.6392C115.594 65.7303 115.713 65.8068 115.713 65.8687C115.713 65.9435 115.675 66.0575 115.6 66.2104C115.525 66.3634 115.45 66.4399 115.376 66.4399ZM116.352 69.4526C116.352 69.2769 116.414 69.1255 116.538 68.9985C116.661 68.8683 116.811 68.8032 116.987 68.8032C117.159 68.8032 117.308 68.8667 117.431 68.9937C117.558 69.1174 117.622 69.2687 117.622 69.4478C117.622 69.6268 117.56 69.7765 117.436 69.897C117.312 70.0142 117.163 70.0728 116.987 70.0728C116.814 70.0728 116.665 70.0125 116.538 69.8921C116.414 69.7716 116.352 69.6252 116.352 69.4526Z" fill="#EFB85F"/>
<path d="M17.5002 10L18.696 11.9748L21 13L18.696 14.0249L17.5002 16L16.304 14.0249L14 13L16.304 11.9748L17.5002 10Z" fill="#EFB85F"/>
<path d="M17.5002 86L18.696 87.9748L21 89L18.696 90.0249L17.5002 92L16.304 90.0249L14 89L16.304 87.9748L17.5002 86Z" fill="#EFB85F"/>
<path d="M124.5 84L125.696 85.9748L128 87L125.696 88.0249L124.5 90L123.304 88.0249L121 87L123.304 85.9748L124.5 84Z" fill="#EFB85F"/>
<path d="M80.5002 90L81.696 91.9748L84 93L81.696 94.0249L80.5002 96L79.304 94.0249L77 93L79.304 91.9748L80.5002 90Z" fill="#EFB85F"/>
<path d="M120.5 7L121.696 8.97475L124 10L121.696 11.0249L120.5 13L119.304 11.0249L117 10L119.304 8.97475L120.5 7Z" fill="#EFB85F"/>
<path d="M95.125 16.6259C95.1509 16.3615 95.1942 15.7335 95.2288 15.2377C95.2634 14.6647 95.324 14.3011 95.3932 14.2681C95.4538 14.235 95.7307 14.4113 95.999 14.6537C96.2759 14.9071 96.5182 15.0834 96.5441 15.0504C96.5615 15.0283 96.397 14.6757 96.1807 14.2791C95.9038 13.7943 95.8086 13.5519 95.8865 13.5189C95.9471 13.4968 96.3884 13.4197 96.8643 13.3426C98.3873 13.1222 98.3787 13.001 96.8384 12.7917C96.3019 12.7145 95.8519 12.6154 95.8346 12.5823C95.8086 12.5382 95.973 12.2187 96.1807 11.8661C96.3884 11.5025 96.5441 11.183 96.5182 11.15C96.4922 11.1279 96.2326 11.3152 95.9471 11.5687C95.6528 11.8331 95.3932 11.9984 95.3586 11.9543C95.3154 11.8992 95.2461 11.2381 95.1856 10.4779C95.0298 8.49462 94.9606 8.50564 94.7962 10.5219C94.7356 11.2822 94.6664 11.9433 94.6317 11.9763C94.6058 12.0094 94.3462 11.8331 94.052 11.5797C93.7664 11.3152 93.5155 11.1279 93.4895 11.161C93.4722 11.183 93.602 11.4805 93.7924 11.8111C93.9827 12.1306 94.1385 12.4611 94.1385 12.5272C94.1385 12.6044 93.7664 12.7035 93.1607 12.7917C91.6117 13.001 91.6117 13.1222 93.1693 13.3536C93.7577 13.4417 94.1385 13.5519 94.1385 13.618C94.1385 13.6841 93.9827 14.0147 93.7924 14.3342C93.3857 15.0283 93.351 15.2046 93.6799 14.9292C93.8183 14.83 94.0693 14.6096 94.251 14.4554C94.6664 14.1138 94.701 14.1689 94.7789 15.3589C94.8913 17.1107 95.0211 17.5735 95.125 16.6259Z" fill="#EFB85F"/>
<path d="M39.125 89.6259C39.1509 89.3615 39.1942 88.7335 39.2288 88.2377C39.2634 87.6647 39.324 87.3011 39.3932 87.2681C39.4538 87.235 39.7307 87.4113 39.999 87.6537C40.2759 87.9071 40.5182 88.0834 40.5441 88.0504C40.5615 88.0283 40.397 87.6757 40.1807 87.2791C39.9038 86.7943 39.8086 86.5519 39.8865 86.5189C39.9471 86.4968 40.3884 86.4197 40.8643 86.3426C42.3873 86.1222 42.3787 86.001 40.8384 85.7917C40.3019 85.7145 39.8519 85.6154 39.8346 85.5823C39.8086 85.5382 39.973 85.2187 40.1807 84.8661C40.3884 84.5025 40.5441 84.183 40.5182 84.15C40.4922 84.1279 40.2326 84.3152 39.9471 84.5687C39.6528 84.8331 39.3932 84.9984 39.3586 84.9543C39.3154 84.8992 39.2461 84.2381 39.1856 83.4779C39.0298 81.4946 38.9606 81.5056 38.7962 83.5219C38.7356 84.2822 38.6664 84.9433 38.6317 84.9763C38.6058 85.0094 38.3462 84.8331 38.052 84.5797C37.7664 84.3152 37.5155 84.1279 37.4895 84.161C37.4722 84.183 37.602 84.4805 37.7924 84.8111C37.9827 85.1306 38.1385 85.4611 38.1385 85.5272C38.1385 85.6044 37.7664 85.7035 37.1607 85.7917C35.6117 86.001 35.6117 86.1222 37.1693 86.3536C37.7577 86.4417 38.1385 86.5519 38.1385 86.618C38.1385 86.6841 37.9827 87.0147 37.7924 87.3342C37.3857 88.0283 37.351 88.2046 37.6799 87.9292C37.8183 87.83 38.0693 87.6096 38.251 87.4554C38.6664 87.1138 38.701 87.1689 38.7789 88.3589C38.8913 90.1107 39.0211 90.5735 39.125 89.6259Z" fill="#EFB85F"/>
<path d="M110.125 99.6259C110.151 99.3615 110.194 98.7335 110.229 98.2377C110.263 97.6647 110.324 97.3011 110.393 97.2681C110.454 97.235 110.731 97.4113 110.999 97.6537C111.276 97.9071 111.518 98.0834 111.544 98.0504C111.561 98.0283 111.397 97.6757 111.181 97.2791C110.904 96.7943 110.809 96.5519 110.886 96.5189C110.947 96.4968 111.388 96.4197 111.864 96.3426C113.387 96.1222 113.379 96.001 111.838 95.7917C111.302 95.7145 110.852 95.6154 110.835 95.5823C110.809 95.5382 110.973 95.2187 111.181 94.8661C111.388 94.5025 111.544 94.183 111.518 94.15C111.492 94.1279 111.233 94.3152 110.947 94.5687C110.653 94.8331 110.393 94.9984 110.359 94.9543C110.315 94.8992 110.246 94.2381 110.186 93.4779C110.03 91.4946 109.961 91.5056 109.796 93.5219C109.736 94.2822 109.666 94.9433 109.632 94.9763C109.606 95.0094 109.346 94.8331 109.052 94.5797C108.766 94.3152 108.515 94.1279 108.489 94.161C108.472 94.183 108.602 94.4805 108.792 94.8111C108.983 95.1306 109.138 95.4611 109.138 95.5272C109.138 95.6044 108.766 95.7035 108.161 95.7917C106.612 96.001 106.612 96.1222 108.169 96.3536C108.758 96.4417 109.138 96.5519 109.138 96.618C109.138 96.6841 108.983 97.0147 108.792 97.3342C108.386 98.0283 108.351 98.2046 108.68 97.9292C108.818 97.83 109.069 97.6096 109.251 97.4554C109.666 97.1138 109.701 97.1689 109.779 98.3589C109.891 100.111 110.021 100.573 110.125 99.6259Z" fill="#EFB85F"/>
<path d="M53.125 12.6259C53.1509 12.3615 53.1942 11.7335 53.2288 11.2377C53.2634 10.6647 53.324 10.3011 53.3932 10.2681C53.4538 10.235 53.7307 10.4113 53.999 10.6537C54.2759 10.9071 54.5182 11.0834 54.5441 11.0504C54.5615 11.0283 54.397 10.6757 54.1807 10.2791C53.9038 9.7943 53.8086 9.55191 53.8865 9.51885C53.9471 9.49682 54.3884 9.41969 54.8643 9.34256C56.3873 9.1222 56.3787 9.001 54.8384 8.79166C54.3019 8.71453 53.8519 8.61537 53.8346 8.58232C53.8086 8.53825 53.973 8.21872 54.1807 7.86614C54.3884 7.50255 54.5441 7.18302 54.5182 7.14997C54.4922 7.12793 54.2326 7.31524 53.9471 7.56866C53.6528 7.83309 53.3932 7.99836 53.3586 7.95429C53.3154 7.8992 53.2461 7.23811 53.1856 6.47787C53.0298 4.49462 52.9606 4.50564 52.7962 6.52194C52.7356 7.28219 52.6664 7.94327 52.6317 7.97632C52.6058 8.00938 52.3462 7.83309 52.052 7.57967C51.7664 7.31524 51.5155 7.12793 51.4895 7.16099C51.4722 7.18302 51.602 7.48051 51.7924 7.81105C51.9827 8.13058 52.1385 8.46112 52.1385 8.52723C52.1385 8.60435 51.7664 8.70352 51.1607 8.79166C49.6117 9.001 49.6117 9.1222 51.1693 9.35358C51.7577 9.44173 52.1385 9.55191 52.1385 9.61802C52.1385 9.68412 51.9827 10.0147 51.7924 10.3342C51.3857 11.0283 51.351 11.2046 51.6799 10.9292C51.8183 10.83 52.0693 10.6096 52.251 10.4554C52.6664 10.1138 52.701 10.1689 52.7789 11.3589C52.8913 13.1107 53.0211 13.5735 53.125 12.6259Z" fill="#EFB85F"/>
<circle cx="26" cy="81" r="1" fill="#EFB85F"/>
<circle cx="57" cy="96" r="1" fill="#EFB85F"/>
<circle cx="111" cy="84" r="1" fill="#EFB85F"/>
<circle cx="139" cy="16" r="1" fill="#EFB85F"/>
<circle cx="143" cy="55" r="1" fill="#EFB85F"/>
<circle cx="139" cy="93" r="1" fill="#EFB85F"/>
<circle cx="36" cy="10" r="1" fill="#EFB85F"/>
<circle cx="75" cy="6" r="1" fill="#EFB85F"/>
<path d="M30.1536 96.762L33.0001 96.6487L30.1536 96.5354L31.0464 95.3761L30.0932 96.4619L30 93L29.9069 96.4619L28.9537 95.3761L29.8465 96.5354L27 96.6487L29.8465 96.762L28.9537 97.9212L29.9069 96.8354L30 100.297L30.0932 96.8354L31.0464 97.9212L30.1536 96.762Z" fill="#EFB85F"/>
<path d="M11.1536 76.762L14.0001 76.6487L11.1536 76.5354L12.0464 75.3761L11.0932 76.4619L11 73L10.9069 76.4619L9.95375 75.3761L10.8465 76.5354L8 76.6487L10.8465 76.762L9.95375 77.9212L10.9069 76.8354L11 80.2973L11.0932 76.8354L12.0464 77.9212L11.1536 76.762Z" fill="#EFB85F"/>
<path d="M68.1536 11.762L71.0001 11.6487L68.1536 11.5354L69.0464 10.3761L68.0932 11.4619L68 8L67.9069 11.4619L66.9537 10.3761L67.8465 11.5354L65 11.6487L67.8465 11.762L66.9537 12.9212L67.9069 11.8354L68 15.2973L68.0932 11.8354L69.0464 12.9212L68.1536 11.762Z" fill="#EFB85F"/>
<path d="M137.154 76.762L140 76.6487L137.154 76.5354L138.046 75.3761L137.093 76.4619L137 73L136.907 76.4619L135.954 75.3761L136.847 76.5354L134 76.6487L136.847 76.762L135.954 77.9212L136.907 76.8354L137 80.2973L137.093 76.8354L138.046 77.9212L137.154 76.762Z" fill="#EFB85F"/>
<path d="M129.154 95.762L132 95.6487L129.154 95.5354L130.046 94.3761L129.093 95.4619L129 92L128.907 95.4619L127.954 94.3761L128.847 95.5354L126 95.6487L128.847 95.762L127.954 96.9212L128.907 95.8354L129 99.2973L129.093 95.8354L130.046 96.9212L129.154 95.762Z" fill="#EFB85F"/>
<path d="M8.15357 18.762L11.0001 18.6487L8.15357 18.5354L9.04635 17.3761L8.09316 18.4619L8.00005 15L7.90694 18.4619L6.95375 17.3761L7.84653 18.5354L5 18.6487L7.84653 18.762L6.95375 19.9212L7.90694 18.8354L8.00005 22.2973L8.09316 18.8354L9.04635 19.9212L8.15357 18.762Z" fill="#EFB85F"/>
</svg>
