<svg width="148" height="105" viewBox="0 0 148 105" fill="none" xmlns="http://www.w3.org/2000/svg">
<rect width="147.402" height="104.882" rx="10" fill="black"/>
<path d="M11.3292 48.9409C11.3058 48.9409 11.2941 48.9292 11.2941 48.9058V48.8003C11.2941 48.7769 11.3058 48.7651 11.3292 48.7651H11.4347C11.6866 48.7651 11.9064 48.7124 12.0939 48.6069C12.17 48.563 12.233 48.4956 12.2828 48.4048C12.3326 48.311 12.3575 48.207 12.3575 48.0928V43.4434C12.3575 43.2617 12.2404 43.1226 12.006 43.0259C11.8419 42.9556 11.6676 42.9204 11.483 42.9204H11.3864C11.3629 42.9204 11.3512 42.9087 11.3512 42.8853V42.7798C11.3512 42.7563 11.3629 42.7446 11.3864 42.7446H14.3615C14.3849 42.7446 14.3966 42.7563 14.3966 42.7798V42.8853C14.3966 42.9087 14.3849 42.9204 14.3615 42.9204H14.1725C13.8707 42.9204 13.6041 42.9629 13.3727 43.0479C13.3053 43.0713 13.2614 43.1108 13.2408 43.1665C13.2233 43.2192 13.2145 43.3115 13.2145 43.4434V48.3169C13.2203 48.3667 13.2467 48.4136 13.2936 48.4575C13.3405 48.5015 13.3932 48.5234 13.4518 48.5234H15.1876C15.4484 48.5234 15.7047 48.3696 15.9567 48.062C16.024 47.98 16.1075 47.8716 16.2072 47.7368C16.3068 47.5991 16.3683 47.5215 16.3917 47.5039C16.4855 47.4336 16.5323 47.4351 16.5323 47.5083C16.5323 47.5259 16.528 47.5435 16.5192 47.561L15.8556 48.8618C15.8292 48.9146 15.7985 48.9409 15.7633 48.9409H11.3292ZM17.5826 46.625C17.5328 46.625 17.5079 46.7319 17.5079 46.9458C17.5079 47.3999 17.6427 47.7808 17.9122 48.0884C18.1818 48.396 18.5157 48.5498 18.9142 48.5498C19.3156 48.5498 19.7008 48.377 20.0699 48.0312C20.0758 48.0254 20.0831 48.0225 20.0919 48.0225H20.1139C20.1315 48.0225 20.1476 48.0371 20.1622 48.0664C20.1798 48.0928 20.1959 48.1104 20.2106 48.1191C19.8707 48.5322 19.4708 48.8179 19.0109 48.9761C18.8527 49.0317 18.674 49.0596 18.4747 49.0596C18.2755 49.0596 18.0734 49.0054 17.8683 48.897C17.6632 48.7856 17.4874 48.6406 17.3409 48.4619C17.0304 48.0898 16.8751 47.627 16.8751 47.0732C16.8751 46.5166 17.0436 46.0098 17.3805 45.5527C17.7203 45.0957 18.1862 44.8672 18.778 44.8672C19.2028 44.8672 19.5499 45.0576 19.8195 45.4385C20.089 45.8164 20.2238 46.1489 20.2238 46.436C20.2238 46.562 20.193 46.625 20.1315 46.625H17.5826ZM17.631 46.2031C17.631 46.2588 17.6573 46.2866 17.7101 46.2866H19.3668C19.443 46.2866 19.4811 46.2412 19.4811 46.1504C19.4811 45.9395 19.3859 45.7241 19.1954 45.5044C19.0079 45.2817 18.8014 45.1704 18.5758 45.1704C18.3561 45.1704 18.1554 45.27 17.9738 45.4692C17.795 45.6685 17.6808 45.8955 17.631 46.1504V46.2031ZM26.6046 47.5566L26.5958 46.6294C26.5958 46.2515 26.5636 45.9863 26.4991 45.834C26.4347 45.6816 26.3527 45.5674 26.2531 45.4912C26.1534 45.4121 26.0187 45.3726 25.8488 45.3726C25.6818 45.3726 25.3258 45.5044 24.7809 45.7681C24.7076 45.812 24.6696 45.853 24.6666 45.8911V48.2554C24.6666 48.5513 24.8248 48.7212 25.1412 48.7651C25.2789 48.7856 25.3478 48.8193 25.3478 48.8662C25.3478 48.9102 25.3331 48.9351 25.3038 48.9409H23.3439C23.3146 48.9351 23.2999 48.9146 23.2999 48.8794C23.2999 48.8237 23.3688 48.7856 23.5065 48.7651C23.8229 48.7212 23.9811 48.5513 23.9811 48.2554V45.7329C23.9811 45.6099 23.9137 45.5249 23.7789 45.478C23.7203 45.4575 23.6573 45.4414 23.59 45.4297C23.5226 45.415 23.4684 45.4019 23.4274 45.3901C23.3893 45.3784 23.3644 45.3682 23.3527 45.3594C23.3439 45.3477 23.3395 45.3257 23.3395 45.2935C23.3395 45.2583 23.3615 45.229 23.4054 45.2056L24.526 44.6782C24.5612 44.6606 24.5831 44.6519 24.5919 44.6519C24.6417 44.6519 24.6666 44.687 24.6666 44.7573V45.4429C24.6754 45.4722 24.6871 45.4868 24.7018 45.4868C24.7194 45.4868 24.7823 45.4604 24.8907 45.4077C25.1427 45.2817 25.3961 45.1602 25.651 45.043C25.9059 44.9258 26.1168 44.8672 26.2838 44.8672C26.9606 44.8672 27.299 45.4839 27.299 46.7173L27.2594 48.0005V48.2554C27.2594 48.4839 27.3737 48.6333 27.6022 48.7036C27.6989 48.7358 27.7911 48.7593 27.879 48.7739C27.9698 48.7856 28.0284 48.7974 28.0548 48.8091C28.0841 48.8208 28.0988 48.8442 28.0988 48.8794C28.0988 48.9146 28.0841 48.9351 28.0548 48.9409H25.9366C25.9073 48.9351 25.8927 48.9146 25.8927 48.8794C25.8927 48.8237 25.9615 48.7856 26.0992 48.7651C26.4127 48.7212 26.5695 48.5396 26.5695 48.2202C26.5929 48.0737 26.6046 47.8525 26.6046 47.5566ZM28.5162 46.9678C28.5162 46.3906 28.7198 45.8955 29.1271 45.4824C29.5372 45.0664 30.028 44.8584 30.5992 44.8584C31.1705 44.8584 31.6671 45.0605 32.089 45.4648C32.5109 45.8662 32.7218 46.3628 32.7218 46.9546C32.7218 47.5464 32.5211 48.0459 32.1198 48.4531C31.7213 48.8574 31.2203 49.0596 30.6168 49.0596C30.0133 49.0596 29.5123 48.8545 29.1139 48.4443C28.7155 48.0342 28.5162 47.542 28.5162 46.9678ZM29.6105 48.0972C29.8976 48.5806 30.2887 48.8223 30.7838 48.8223C31.1676 48.8223 31.4606 48.6685 31.6627 48.3608C31.8678 48.0532 31.9703 47.6753 31.9703 47.2271C31.9703 46.7788 31.8268 46.3188 31.5397 45.8472C31.2555 45.3755 30.8717 45.1396 30.3883 45.1396C30.0338 45.1396 29.754 45.2935 29.549 45.6011C29.3468 45.9058 29.2457 46.2939 29.2457 46.7656C29.2457 47.2344 29.3673 47.6782 29.6105 48.0972ZM39.1554 47.5566L39.1466 46.6294C39.1466 46.2515 39.1144 45.9863 39.0499 45.834C38.9855 45.6816 38.9034 45.5674 38.8038 45.4912C38.7042 45.4121 38.5695 45.3726 38.3995 45.3726C38.2325 45.3726 37.8766 45.5044 37.3317 45.7681C37.2584 45.812 37.2203 45.853 37.2174 45.8911V48.2554C37.2174 48.5513 37.3756 48.7212 37.692 48.7651C37.8297 48.7856 37.8986 48.8193 37.8986 48.8662C37.8986 48.9102 37.8839 48.9351 37.8546 48.9409H35.8947C35.8654 48.9351 35.8507 48.9146 35.8507 48.8794C35.8507 48.8237 35.9196 48.7856 36.0573 48.7651C36.3737 48.7212 36.5319 48.5513 36.5319 48.2554V46.0669C36.5319 45.6069 36.2477 45.377 35.6793 45.377C35.4713 45.377 35.1827 45.5 34.8136 45.7461C34.7198 45.8076 34.651 45.8647 34.6071 45.9175V48.2554C34.6071 48.5513 34.7653 48.7212 35.0817 48.7651C35.2194 48.7856 35.2882 48.8193 35.2882 48.8662C35.2882 48.9102 35.2736 48.9351 35.2443 48.9409H33.2843C33.255 48.9351 33.2404 48.9146 33.2404 48.8794C33.2404 48.8237 33.3092 48.7856 33.4469 48.7651C33.7633 48.7212 33.9215 48.5542 33.9215 48.2642V45.7329C33.9215 45.6099 33.8541 45.5249 33.7194 45.478C33.6608 45.4575 33.5978 45.4414 33.5304 45.4297C33.463 45.415 33.4088 45.4019 33.3678 45.3901C33.3297 45.3784 33.3048 45.3682 33.2931 45.3594C33.2843 45.3477 33.2799 45.3257 33.2799 45.2935C33.2799 45.2583 33.3019 45.229 33.3458 45.2056L34.4664 44.6782C34.5016 44.6606 34.5236 44.6519 34.5323 44.6519C34.5822 44.6519 34.6071 44.687 34.6071 44.7573V45.4868C34.61 45.5044 34.6202 45.5132 34.6378 45.5132C34.6583 45.5132 34.7067 45.4927 34.7828 45.4517C34.8619 45.4106 34.9645 45.3535 35.0905 45.2803C35.2164 45.2041 35.382 45.1162 35.587 45.0166C35.795 44.917 36.0148 44.8672 36.2462 44.8672C36.6183 44.8672 36.8849 45.0269 37.046 45.3462C37.1075 45.4751 37.1632 45.5308 37.213 45.5132C37.2628 45.4927 37.3405 45.4561 37.4459 45.4033C37.6949 45.2803 37.9469 45.1602 38.2018 45.043C38.4567 44.9258 38.6676 44.8672 38.8346 44.8672C39.5114 44.8672 39.8497 45.4839 39.8497 46.7173L39.8102 48.0005V48.2554C39.8102 48.4839 39.9244 48.6333 40.153 48.7036C40.2496 48.7358 40.3419 48.7593 40.4298 48.7739C40.5206 48.7856 40.5792 48.7974 40.6056 48.8091C40.6349 48.8208 40.6495 48.8442 40.6495 48.8794C40.6495 48.9146 40.6349 48.9351 40.6056 48.9409H38.4874C38.4581 48.9351 38.4435 48.9146 38.4435 48.8794C38.4435 48.8237 38.5123 48.7856 38.65 48.7651C38.9635 48.7212 39.1202 48.5396 39.1202 48.2202C39.1437 48.0737 39.1554 47.8525 39.1554 47.5566ZM42.047 45.2627C42.047 45.3535 42.0675 45.3989 42.1085 45.3989C42.1525 45.3989 42.34 45.3037 42.671 45.1133C43.0577 44.9492 43.3522 44.8672 43.5543 44.8672C43.7565 44.8672 43.9498 44.9258 44.1344 45.043C44.319 45.1602 44.4757 45.314 44.6046 45.5044C44.8771 45.897 45.0133 46.373 45.0133 46.9326C45.0133 47.4922 44.8185 47.9873 44.4288 48.418C44.0421 48.8457 43.5309 49.0596 42.8951 49.0596C42.4821 49.0596 42.1012 49.0098 41.7526 48.9102C41.65 48.8809 41.5621 48.8574 41.4889 48.8398C41.4186 48.8223 41.379 48.8047 41.3702 48.7871C41.3644 48.7666 41.3615 48.7432 41.3615 48.7168V42.793C41.3615 42.6699 41.2941 42.585 41.1593 42.5381C41.1007 42.5176 41.0377 42.5015 40.9703 42.4897C40.903 42.4751 40.8488 42.4619 40.8077 42.4502C40.7697 42.4385 40.7448 42.4282 40.733 42.4194C40.7242 42.4077 40.7198 42.3857 40.7198 42.3535C40.7198 42.3184 40.7418 42.2891 40.7858 42.2656L41.9064 41.7383C41.9415 41.7207 41.9635 41.7119 41.9723 41.7119C42.0221 41.7119 42.047 41.7471 42.047 41.8174V45.2627ZM42.9786 45.4033C42.7179 45.4033 42.4249 45.4971 42.0997 45.6846C42.0646 45.7051 42.047 45.7402 42.047 45.79V47.8687C42.0763 48.1353 42.192 48.3433 42.3942 48.4927C42.5963 48.6421 42.8175 48.7168 43.0577 48.7168C43.4796 48.7168 43.8048 48.5498 44.0333 48.2158C44.2648 47.8818 44.3805 47.501 44.3805 47.0732C44.3805 46.6455 44.2633 46.2603 44.0289 45.9175C43.7946 45.5747 43.4445 45.4033 42.9786 45.4033ZM48.4806 45.79C48.4454 45.7842 48.3942 45.7651 48.3268 45.7329C48.0836 45.6216 47.8932 45.5659 47.7555 45.5659C47.6178 45.5659 47.4728 45.6523 47.3204 45.8252C47.171 45.9951 47.0963 46.1489 47.0963 46.2866V48.2729C47.0963 48.4927 47.2238 48.6392 47.4786 48.7124C47.59 48.7417 47.694 48.7637 47.7906 48.7783C47.8873 48.79 47.9489 48.8018 47.9752 48.8135C48.0045 48.8252 48.0192 48.8486 48.0192 48.8838C48.0192 48.916 48.0045 48.9351 47.9752 48.9409H45.7736C45.7443 48.9351 45.7296 48.9146 45.7296 48.8794C45.7296 48.8267 45.7985 48.7915 45.9362 48.7739C46.2526 48.7271 46.4108 48.5601 46.4108 48.2729V45.9482C46.4108 45.8252 46.3434 45.7402 46.2086 45.6934C46.15 45.6729 46.087 45.6567 46.0197 45.645C45.9523 45.6304 45.8981 45.6172 45.8571 45.6055C45.819 45.5938 45.7941 45.5835 45.7823 45.5747C45.7736 45.563 45.7692 45.541 45.7692 45.5088C45.7692 45.4736 45.7911 45.4443 45.8351 45.4209L46.9557 44.8936C46.9908 44.876 47.0128 44.8672 47.0216 44.8672C47.0714 44.8672 47.0963 44.9023 47.0963 44.9727V45.6846C47.0963 45.7197 47.1051 45.7373 47.1227 45.7373C47.1461 45.7373 47.2062 45.6685 47.3029 45.5308C47.5812 45.1411 47.8112 44.9463 47.9928 44.9463C48.0953 44.9463 48.2521 44.9873 48.463 45.0693C48.6769 45.1514 48.7838 45.2202 48.7838 45.2759C48.7838 45.3433 48.7501 45.4458 48.6827 45.5835C48.6154 45.7212 48.548 45.79 48.4806 45.79ZM49.8033 46.625C49.7535 46.625 49.7286 46.7319 49.7286 46.9458C49.7286 47.3999 49.8634 47.7808 50.1329 48.0884C50.4025 48.396 50.7365 48.5498 51.1349 48.5498C51.5363 48.5498 51.9215 48.377 52.2906 48.0312C52.2965 48.0254 52.3038 48.0225 52.3126 48.0225H52.3346C52.3522 48.0225 52.3683 48.0371 52.3829 48.0664C52.4005 48.0928 52.4166 48.1104 52.4313 48.1191C52.0914 48.5322 51.6915 48.8179 51.2316 48.9761C51.0734 49.0317 50.8947 49.0596 50.6954 49.0596C50.4962 49.0596 50.2941 49.0054 50.089 48.897C49.8839 48.7856 49.7081 48.6406 49.5616 48.4619C49.2511 48.0898 49.0958 47.627 49.0958 47.0732C49.0958 46.5166 49.2643 46.0098 49.6012 45.5527C49.941 45.0957 50.4069 44.8672 50.9987 44.8672C51.4235 44.8672 51.7706 45.0576 52.0402 45.4385C52.3097 45.8164 52.4445 46.1489 52.4445 46.436C52.4445 46.562 52.4137 46.625 52.3522 46.625H49.8033ZM49.8517 46.2031C49.8517 46.2588 49.8781 46.2866 49.9308 46.2866H51.5875C51.6637 46.2866 51.7018 46.2412 51.7018 46.1504C51.7018 45.9395 51.6066 45.7241 51.4161 45.5044C51.2286 45.2817 51.0221 45.1704 50.7965 45.1704C50.5768 45.1704 50.3761 45.27 50.1945 45.4692C50.0157 45.6685 49.9015 45.8955 49.8517 46.1504V46.2031ZM58.3112 45.0518C58.4401 45.0957 58.5192 45.1177 58.5485 45.1177C58.5778 45.1177 58.5953 45.1177 58.6012 45.1177C58.61 45.1147 58.6202 45.0957 58.632 45.0605V42.793C58.632 42.6699 58.5646 42.585 58.4298 42.5381C58.3712 42.5176 58.3082 42.5015 58.2408 42.4897C58.1735 42.4751 58.1193 42.4619 58.0782 42.4502C58.0402 42.4385 58.0153 42.4282 58.0035 42.4194C57.9948 42.4077 57.9904 42.3857 57.9904 42.3535C57.9904 42.3184 58.0123 42.2891 58.0563 42.2656L59.1769 41.7383C59.212 41.7207 59.234 41.7119 59.2428 41.7119C59.2926 41.7119 59.3175 41.7471 59.3175 41.8174V48.0752C59.3322 48.2041 59.3688 48.2964 59.4274 48.3521C59.486 48.4077 59.5812 48.4355 59.713 48.4355L59.9679 48.418C59.9855 48.418 59.9943 48.4355 59.9943 48.4707C59.9943 48.5029 59.9723 48.5293 59.9283 48.5498L58.7594 49.0332C58.7242 49.0508 58.6935 49.0596 58.6671 49.0596C58.6437 49.0596 58.632 49.0229 58.632 48.9497V48.5498C58.632 48.5205 58.6246 48.5059 58.61 48.5059C58.5895 48.5059 58.4679 48.5718 58.2452 48.7036C57.5626 49.1079 56.9869 49.168 56.5182 48.8838C56.1432 48.6553 55.8898 48.2935 55.7579 47.7983C55.6964 47.5669 55.6656 47.3223 55.6656 47.0645C55.6656 46.8037 55.7184 46.5459 55.8239 46.291C55.9323 46.0332 56.0802 45.8076 56.2677 45.6143C56.6808 45.1924 57.1788 44.9814 57.7618 44.9814C57.9991 44.9814 58.1823 45.0049 58.3112 45.0518ZM56.3292 46.937C56.3292 47.3794 56.4523 47.7676 56.6984 48.1016C56.9445 48.4326 57.2872 48.5981 57.7267 48.5981C57.92 48.5981 58.1193 48.5513 58.3243 48.4575C58.5294 48.3608 58.632 48.2876 58.632 48.2378V45.9702C58.632 45.9146 58.5939 45.8486 58.5177 45.7725C58.2833 45.4502 57.9713 45.2891 57.5817 45.2891C57.1949 45.2891 56.8888 45.4531 56.6632 45.7812C56.4406 46.1064 56.3292 46.4917 56.3292 46.937ZM61.8751 43.5532C61.8751 44.0981 61.6188 44.5522 61.1061 44.9155C60.9889 45.0005 60.8995 45.043 60.838 45.043C60.797 45.043 60.7765 45.0181 60.7765 44.9683C60.7765 44.9155 60.7853 44.8789 60.8029 44.8584C60.8204 44.835 60.8409 44.8145 60.8644 44.7969C60.8878 44.7793 60.9098 44.7632 60.9303 44.7485C60.9537 44.7339 60.9816 44.7134 61.0138 44.687C61.3068 44.4204 61.4532 44.1787 61.4532 43.9619C61.4532 43.8359 61.399 43.7729 61.2906 43.7729C60.9977 43.7729 60.8029 43.6807 60.7062 43.4961C60.671 43.4287 60.6534 43.335 60.6534 43.2148C60.6534 43.0947 60.7062 42.9863 60.8116 42.8896C60.92 42.793 61.0358 42.7446 61.1588 42.7446C61.3873 42.7446 61.5631 42.8354 61.6862 43.0171C61.8121 43.1958 61.8751 43.3745 61.8751 43.5532ZM63.0924 46.625C63.0426 46.625 63.0177 46.7319 63.0177 46.9458C63.0177 47.3999 63.1525 47.7808 63.422 48.0884C63.6915 48.396 64.0255 48.5498 64.424 48.5498C64.8253 48.5498 65.2106 48.377 65.5797 48.0312C65.5856 48.0254 65.5929 48.0225 65.6017 48.0225H65.6237C65.6412 48.0225 65.6573 48.0371 65.672 48.0664C65.6896 48.0928 65.7057 48.1104 65.7203 48.1191C65.3805 48.5322 64.9806 48.8179 64.5206 48.9761C64.3624 49.0317 64.1837 49.0596 63.9845 49.0596C63.7853 49.0596 63.5831 49.0054 63.3781 48.897C63.173 48.7856 62.9972 48.6406 62.8507 48.4619C62.5402 48.0898 62.3849 47.627 62.3849 47.0732C62.3849 46.5166 62.5533 46.0098 62.8903 45.5527C63.2301 45.0957 63.6959 44.8672 64.2877 44.8672C64.7125 44.8672 65.0597 45.0576 65.3292 45.4385C65.5988 45.8164 65.7335 46.1489 65.7335 46.436C65.7335 46.562 65.7028 46.625 65.6412 46.625H63.0924ZM63.1407 46.2031C63.1407 46.2588 63.1671 46.2866 63.2198 46.2866H64.8766C64.9528 46.2866 64.9908 46.2412 64.9908 46.1504C64.9908 45.9395 64.8956 45.7241 64.7052 45.5044C64.5177 45.2817 64.3112 45.1704 64.0856 45.1704C63.8658 45.1704 63.6652 45.27 63.4835 45.4692C63.3048 45.6685 63.1906 45.8955 63.1407 46.1504V46.2031ZM69.6974 47.5566L69.6886 46.6294C69.6886 46.2515 69.6564 45.9863 69.5919 45.834C69.5275 45.6816 69.4454 45.5674 69.3458 45.4912C69.2462 45.4121 69.1115 45.3726 68.9415 45.3726C68.7745 45.3726 68.4186 45.5044 67.8737 45.7681C67.8004 45.812 67.7623 45.853 67.7594 45.8911V48.2554C67.7594 48.5513 67.9176 48.7212 68.234 48.7651C68.3717 48.7856 68.4406 48.8193 68.4406 48.8662C68.4406 48.9102 68.4259 48.9351 68.3966 48.9409H66.4366C66.4073 48.9351 66.3927 48.9146 66.3927 48.8794C66.3927 48.8237 66.4615 48.7856 66.5992 48.7651C66.9156 48.7212 67.0739 48.5513 67.0739 48.2554V45.7329C67.0739 45.6099 67.0065 45.5249 66.8717 45.478C66.8131 45.4575 66.7501 45.4414 66.6827 45.4297C66.6154 45.415 66.5612 45.4019 66.5201 45.3901C66.4821 45.3784 66.4572 45.3682 66.4454 45.3594C66.4366 45.3477 66.4323 45.3257 66.4323 45.2935C66.4323 45.2583 66.4542 45.229 66.4982 45.2056L67.6188 44.6782C67.6539 44.6606 67.6759 44.6519 67.6847 44.6519C67.7345 44.6519 67.7594 44.687 67.7594 44.7573V45.4429C67.7682 45.4722 67.7799 45.4868 67.7946 45.4868C67.8121 45.4868 67.8751 45.4604 67.9835 45.4077C68.2355 45.2817 68.4889 45.1602 68.7438 45.043C68.9987 44.9258 69.2096 44.8672 69.3766 44.8672C70.0533 44.8672 70.3917 45.4839 70.3917 46.7173L70.3522 48.0005V48.2554C70.3522 48.4839 70.4664 48.6333 70.6949 48.7036C70.7916 48.7358 70.8839 48.7593 70.9718 48.7739C71.0626 48.7856 71.1212 48.7974 71.1476 48.8091C71.1769 48.8208 71.1915 48.8442 71.1915 48.8794C71.1915 48.9146 71.1769 48.9351 71.1476 48.9409H69.0294C69.0001 48.9351 68.9855 48.9146 68.9855 48.8794C68.9855 48.8237 69.0543 48.7856 69.192 48.7651C69.5055 48.7212 69.6622 48.5396 69.6622 48.2202C69.6857 48.0737 69.6974 47.8525 69.6974 47.5566ZM75.0367 45.3945C75.0367 45.5996 74.9181 45.7021 74.6808 45.7021C74.5607 45.7021 74.4581 45.6685 74.3732 45.6011C74.2911 45.5308 74.2267 45.4722 74.1798 45.4253C74.1359 45.3755 74.089 45.3301 74.0392 45.2891C73.8282 45.1162 73.5704 45.0972 73.2657 45.2319C72.964 45.3667 72.7311 45.6538 72.567 46.0933C72.4762 46.3364 72.4308 46.5781 72.4308 46.8184C72.4308 47.334 72.548 47.7559 72.7823 48.084C73.0167 48.4092 73.3756 48.5718 73.859 48.5718C74.2194 48.5718 74.5431 48.4106 74.8302 48.0884C74.9181 47.9917 74.9708 47.9434 74.9884 47.9434C75.006 47.9434 75.025 47.9521 75.0455 47.9697C75.066 47.9873 75.0763 48.0137 75.0763 48.0488C75.0763 48.0811 75.0675 48.106 75.0499 48.1235C74.6017 48.7476 74.0377 49.0596 73.358 49.0596C72.8658 49.0596 72.4615 48.8765 72.1451 48.5103C71.8317 48.144 71.6749 47.7251 71.6749 47.2534C71.6779 46.3804 71.8888 45.752 72.3077 45.3682C72.6769 45.0312 73.2028 44.8628 73.8854 44.8628C74.3073 44.8628 74.587 44.9053 74.7247 44.9902C74.8624 45.0752 74.9591 45.1821 75.0148 45.311C75.0294 45.3403 75.0367 45.3682 75.0367 45.3945ZM75.7135 46.9678C75.7135 46.3906 75.9171 45.8955 76.3243 45.4824C76.7345 45.0664 77.2252 44.8584 77.7965 44.8584C78.3678 44.8584 78.8644 45.0605 79.2863 45.4648C79.7081 45.8662 79.9191 46.3628 79.9191 46.9546C79.9191 47.5464 79.7184 48.0459 79.317 48.4531C78.9186 48.8574 78.4176 49.0596 77.8141 49.0596C77.2106 49.0596 76.7096 48.8545 76.3112 48.4443C75.9127 48.0342 75.7135 47.542 75.7135 46.9678ZM76.8077 48.0972C77.0948 48.5806 77.486 48.8223 77.9811 48.8223C78.3649 48.8223 78.6578 48.6685 78.86 48.3608C79.0651 48.0532 79.1676 47.6753 79.1676 47.2271C79.1676 46.7788 79.024 46.3188 78.7369 45.8472C78.4528 45.3755 78.069 45.1396 77.5856 45.1396C77.2311 45.1396 76.9513 45.2935 76.7462 45.6011C76.5441 45.9058 76.443 46.2939 76.443 46.7656C76.443 47.2344 76.5646 47.6782 76.8077 48.0972ZM84.0104 45.3945C84.0104 45.5996 83.8917 45.7021 83.6544 45.7021C83.5343 45.7021 83.4318 45.6685 83.3468 45.6011C83.2648 45.5308 83.2003 45.4722 83.1534 45.4253C83.1095 45.3755 83.0626 45.3301 83.0128 45.2891C82.8019 45.1162 82.5441 45.0972 82.2394 45.2319C81.9376 45.3667 81.7047 45.6538 81.5406 46.0933C81.4498 46.3364 81.4044 46.5781 81.4044 46.8184C81.4044 47.334 81.5216 47.7559 81.756 48.084C81.9904 48.4092 82.3492 48.5718 82.8326 48.5718C83.193 48.5718 83.5167 48.4106 83.8038 48.0884C83.8917 47.9917 83.9445 47.9434 83.962 47.9434C83.9796 47.9434 83.9987 47.9521 84.0192 47.9697C84.0397 47.9873 84.0499 48.0137 84.0499 48.0488C84.0499 48.0811 84.0411 48.106 84.0236 48.1235C83.5753 48.7476 83.0114 49.0596 82.3317 49.0596C81.8395 49.0596 81.4352 48.8765 81.1188 48.5103C80.8053 48.144 80.6486 47.7251 80.6486 47.2534C80.6515 46.3804 80.8624 45.752 81.2814 45.3682C81.6505 45.0312 82.1764 44.8628 82.859 44.8628C83.2809 44.8628 83.5607 44.9053 83.6984 44.9902C83.8361 45.0752 83.9327 45.1821 83.9884 45.311C84.0031 45.3403 84.0104 45.3682 84.0104 45.3945ZM85.8561 45.5396C85.8561 45.6099 85.8663 45.645 85.8868 45.645C85.9073 45.645 85.922 45.6406 85.9308 45.6318C85.9396 45.6201 86.0011 45.5513 86.1154 45.4253C86.4464 45.0562 86.7819 44.8716 87.1217 44.8716C87.567 44.8716 87.8937 44.9712 88.1017 45.1704C88.3566 45.4224 88.484 45.8457 88.484 46.4404V48.2729C88.484 48.5601 88.6422 48.7271 88.9586 48.7739C89.0963 48.7915 89.1652 48.8223 89.1652 48.8662C89.1652 48.9102 89.1505 48.9351 89.1212 48.9409H87.1613C87.132 48.9351 87.1173 48.9146 87.1173 48.8794C87.1173 48.8267 87.1862 48.7915 87.3239 48.7739C87.6403 48.7271 87.7985 48.5601 87.7985 48.2729V46.4844C87.7985 46.0537 87.7677 45.7739 87.7062 45.645C87.589 45.3872 87.3444 45.2583 86.9723 45.2583C86.7438 45.2583 86.5006 45.3564 86.2428 45.5527C85.985 45.7461 85.8561 45.96 85.8561 46.1943V48.2729C85.8561 48.5601 86.0143 48.7271 86.3307 48.7739C86.4684 48.7915 86.5372 48.8223 86.5372 48.8662C86.5372 48.9102 86.5226 48.9351 86.4933 48.9409H84.5333C84.504 48.9351 84.4894 48.9146 84.4894 48.8794C84.4894 48.8267 84.5582 48.7915 84.6959 48.7739C85.0123 48.7271 85.1705 48.5601 85.1705 48.2729V42.793C85.1705 42.6699 85.1031 42.585 84.9684 42.5381C84.9098 42.5176 84.8468 42.5015 84.7794 42.4897C84.712 42.4751 84.6578 42.4619 84.6168 42.4502C84.5787 42.4385 84.5538 42.4282 84.5421 42.4194C84.5333 42.4077 84.5289 42.3857 84.5289 42.3535C84.5289 42.3184 84.5509 42.2891 84.5948 42.2656L85.7155 41.7383C85.7506 41.7207 85.7726 41.7119 85.7814 41.7119C85.8312 41.7119 85.8561 41.7471 85.8561 41.8174V45.5396ZM90.3121 46.625C90.2623 46.625 90.2374 46.7319 90.2374 46.9458C90.2374 47.3999 90.3722 47.7808 90.6417 48.0884C90.9113 48.396 91.2452 48.5498 91.6437 48.5498C92.045 48.5498 92.4303 48.377 92.7994 48.0312C92.8053 48.0254 92.8126 48.0225 92.8214 48.0225H92.8434C92.861 48.0225 92.8771 48.0371 92.8917 48.0664C92.9093 48.0928 92.9254 48.1104 92.9401 48.1191C92.6002 48.5322 92.2003 48.8179 91.7404 48.9761C91.5822 49.0317 91.4034 49.0596 91.2042 49.0596C91.005 49.0596 90.8029 49.0054 90.5978 48.897C90.3927 48.7856 90.2169 48.6406 90.0704 48.4619C89.7599 48.0898 89.6046 47.627 89.6046 47.0732C89.6046 46.5166 89.7731 46.0098 90.11 45.5527C90.4498 45.0957 90.9156 44.8672 91.5074 44.8672C91.9323 44.8672 92.2794 45.0576 92.549 45.4385C92.8185 45.8164 92.9532 46.1489 92.9532 46.436C92.9532 46.562 92.9225 46.625 92.861 46.625H90.3121ZM90.3605 46.2031C90.3605 46.2588 90.3868 46.2866 90.4396 46.2866H92.0963C92.1725 46.2866 92.2106 46.2412 92.2106 46.1504C92.2106 45.9395 92.1154 45.7241 91.9249 45.5044C91.7374 45.2817 91.5309 45.1704 91.3053 45.1704C91.0856 45.1704 90.8849 45.27 90.7032 45.4692C90.5245 45.6685 90.4103 45.8955 90.3605 46.1504V46.2031ZM95.8229 45.9351C95.8229 45.9995 95.798 46.0317 95.7482 46.0317C95.7013 46.0317 95.6647 45.9966 95.6383 45.9263C95.568 45.7329 95.4625 45.5615 95.3219 45.4121C95.1842 45.2627 95.0128 45.188 94.8077 45.188C94.5382 45.188 94.3566 45.3228 94.2628 45.5923C94.2335 45.6831 94.2189 45.7769 94.2189 45.8735C94.2189 45.9702 94.2804 46.0786 94.4034 46.1987C94.5265 46.3159 94.7286 46.4565 95.0099 46.6206C95.2911 46.7847 95.4962 46.9238 95.6251 47.0381C95.9181 47.2988 96.0646 47.6006 96.0646 47.9434C96.0646 48.2861 95.9386 48.5586 95.6866 48.7607C95.4347 48.96 95.1417 49.0596 94.8077 49.0596C94.629 49.0596 94.4664 49.0347 94.3199 48.9849C94.1764 48.938 94.0929 48.9146 94.0695 48.9146C94.049 48.9146 94.0138 48.938 93.964 48.9849C93.9171 49.0347 93.879 49.0596 93.8497 49.0596H93.775C93.7574 49.0596 93.7355 48.9014 93.7091 48.585C93.6827 48.2686 93.6696 48.0811 93.6696 48.0225C93.6696 47.9639 93.674 47.9316 93.6827 47.9258C93.6945 47.9199 93.712 47.917 93.7355 47.917C93.7589 47.917 93.778 47.9243 93.7926 47.939C93.8102 47.9536 93.8248 47.9727 93.8365 47.9961C93.8483 48.0166 93.8571 48.0386 93.8629 48.062C93.8717 48.0854 93.8907 48.1294 93.92 48.1938C94.1193 48.6187 94.4269 48.8311 94.8429 48.8311C95.0275 48.8311 95.1754 48.7637 95.2867 48.6289C95.3981 48.4912 95.4537 48.3389 95.4537 48.1719C95.4537 48.0049 95.4098 47.8643 95.3219 47.75C95.234 47.6357 95.1241 47.5317 94.9923 47.438C94.8634 47.3442 94.7228 47.2534 94.5704 47.1655C93.9786 46.8198 93.6827 46.4375 93.6827 46.0186C93.6827 45.7051 93.8175 45.4355 94.087 45.21C94.3566 44.9814 94.6334 44.8672 94.9176 44.8672C95.2018 44.8672 95.4113 44.8979 95.546 44.9595C95.6837 45.021 95.7643 45.0737 95.7877 45.1177C95.8112 45.1587 95.8229 45.2964 95.8229 45.5308V45.9351ZM101.835 45.0518C101.964 45.0957 102.043 45.1177 102.072 45.1177C102.101 45.1177 102.119 45.1177 102.125 45.1177C102.133 45.1147 102.144 45.0957 102.155 45.0605V42.793C102.155 42.6699 102.088 42.585 101.953 42.5381C101.895 42.5176 101.832 42.5015 101.764 42.4897C101.697 42.4751 101.643 42.4619 101.602 42.4502C101.564 42.4385 101.539 42.4282 101.527 42.4194C101.518 42.4077 101.514 42.3857 101.514 42.3535C101.514 42.3184 101.536 42.2891 101.58 42.2656L102.7 41.7383C102.735 41.7207 102.757 41.7119 102.766 41.7119C102.816 41.7119 102.841 41.7471 102.841 41.8174V48.0752C102.856 48.2041 102.892 48.2964 102.951 48.3521C103.009 48.4077 103.105 48.4355 103.236 48.4355L103.491 48.418C103.509 48.418 103.518 48.4355 103.518 48.4707C103.518 48.5029 103.496 48.5293 103.452 48.5498L102.283 49.0332C102.248 49.0508 102.217 49.0596 102.191 49.0596C102.167 49.0596 102.155 49.0229 102.155 48.9497V48.5498C102.155 48.5205 102.148 48.5059 102.133 48.5059C102.113 48.5059 101.991 48.5718 101.769 48.7036C101.086 49.1079 100.51 49.168 100.042 48.8838C99.6666 48.6553 99.4132 48.2935 99.2814 47.7983C99.2198 47.5669 99.1891 47.3223 99.1891 47.0645C99.1891 46.8037 99.2418 46.5459 99.3473 46.291C99.4557 46.0332 99.6036 45.8076 99.7911 45.6143C100.204 45.1924 100.702 44.9814 101.285 44.9814C101.523 44.9814 101.706 45.0049 101.835 45.0518ZM99.8527 46.937C99.8527 47.3794 99.9757 47.7676 100.222 48.1016C100.468 48.4326 100.811 48.5981 101.25 48.5981C101.443 48.5981 101.643 48.5513 101.848 48.4575C102.053 48.3608 102.155 48.2876 102.155 48.2378V45.9702C102.155 45.9146 102.117 45.8486 102.041 45.7725C101.807 45.4502 101.495 45.2891 101.105 45.2891C100.718 45.2891 100.412 45.4531 100.187 45.7812C99.964 46.1064 99.8527 46.4917 99.8527 46.937ZM104.621 46.625C104.571 46.625 104.546 46.7319 104.546 46.9458C104.546 47.3999 104.681 47.7808 104.95 48.0884C105.22 48.396 105.554 48.5498 105.952 48.5498C106.354 48.5498 106.739 48.377 107.108 48.0312C107.114 48.0254 107.121 48.0225 107.13 48.0225H107.152C107.17 48.0225 107.186 48.0371 107.2 48.0664C107.218 48.0928 107.234 48.1104 107.249 48.1191C106.909 48.5322 106.509 48.8179 106.049 48.9761C105.891 49.0317 105.712 49.0596 105.513 49.0596C105.314 49.0596 105.111 49.0054 104.906 48.897C104.701 48.7856 104.526 48.6406 104.379 48.4619C104.068 48.0898 103.913 47.627 103.913 47.0732C103.913 46.5166 104.082 46.0098 104.419 45.5527C104.758 45.0957 105.224 44.8672 105.816 44.8672C106.241 44.8672 106.588 45.0576 106.858 45.4385C107.127 45.8164 107.262 46.1489 107.262 46.436C107.262 46.562 107.231 46.625 107.17 46.625H104.621ZM104.669 46.2031C104.669 46.2588 104.695 46.2866 104.748 46.2866H106.405C106.481 46.2866 106.519 46.2412 106.519 46.1504C106.519 45.9395 106.424 45.7241 106.234 45.5044C106.046 45.2817 105.839 45.1704 105.614 45.1704C105.394 45.1704 105.193 45.27 105.012 45.4692C104.833 45.6685 104.719 45.8955 104.669 46.1504V46.2031ZM105.196 44.1245C105.185 44.1128 105.179 44.104 105.179 44.0981C105.179 44.0923 105.185 44.0835 105.196 44.0718L106.132 42.7754C106.238 42.6318 106.342 42.5601 106.444 42.5601C106.547 42.5601 106.628 42.5938 106.686 42.6611C106.748 42.7256 106.778 42.8135 106.778 42.9248C106.778 43.0361 106.698 43.1606 106.537 43.2983L105.355 44.252C105.34 44.2607 105.328 44.2651 105.319 44.2651C105.311 44.2651 105.302 44.2607 105.293 44.252L105.196 44.1245ZM110.131 45.9351C110.131 45.9995 110.107 46.0317 110.057 46.0317C110.01 46.0317 109.973 45.9966 109.947 45.9263C109.877 45.7329 109.771 45.5615 109.63 45.4121C109.493 45.2627 109.321 45.188 109.116 45.188C108.847 45.188 108.665 45.3228 108.571 45.5923C108.542 45.6831 108.527 45.7769 108.527 45.8735C108.527 45.9702 108.589 46.0786 108.712 46.1987C108.835 46.3159 109.037 46.4565 109.318 46.6206C109.6 46.7847 109.805 46.9238 109.934 47.0381C110.227 47.2988 110.373 47.6006 110.373 47.9434C110.373 48.2861 110.247 48.5586 109.995 48.7607C109.743 48.96 109.45 49.0596 109.116 49.0596C108.938 49.0596 108.775 49.0347 108.629 48.9849C108.485 48.938 108.401 48.9146 108.378 48.9146C108.358 48.9146 108.322 48.938 108.273 48.9849C108.226 49.0347 108.188 49.0596 108.158 49.0596H108.084C108.066 49.0596 108.044 48.9014 108.018 48.585C107.991 48.2686 107.978 48.0811 107.978 48.0225C107.978 47.9639 107.983 47.9316 107.991 47.9258C108.003 47.9199 108.021 47.917 108.044 47.917C108.068 47.917 108.087 47.9243 108.101 47.939C108.119 47.9536 108.133 47.9727 108.145 47.9961C108.157 48.0166 108.166 48.0386 108.172 48.062C108.18 48.0854 108.199 48.1294 108.229 48.1938C108.428 48.6187 108.735 48.8311 109.151 48.8311C109.336 48.8311 109.484 48.7637 109.595 48.6289C109.707 48.4912 109.762 48.3389 109.762 48.1719C109.762 48.0049 109.718 47.8643 109.63 47.75C109.543 47.6357 109.433 47.5317 109.301 47.438C109.172 47.3442 109.031 47.2534 108.879 47.1655C108.287 46.8198 107.991 46.4375 107.991 46.0186C107.991 45.7051 108.126 45.4355 108.396 45.21C108.665 44.9814 108.942 44.8672 109.226 44.8672C109.51 44.8672 109.72 44.8979 109.855 44.9595C109.992 45.021 110.073 45.0737 110.096 45.1177C110.12 45.1587 110.131 45.2964 110.131 45.5308V45.9351ZM111.015 48.9409C110.985 48.9351 110.971 48.9146 110.971 48.8794C110.971 48.8267 111.04 48.7915 111.177 48.7739C111.494 48.7271 111.652 48.5601 111.652 48.2729V45.9482C111.652 45.8252 111.585 45.7402 111.45 45.6934C111.391 45.6729 111.328 45.6567 111.261 45.645C111.193 45.6304 111.139 45.6172 111.098 45.6055C111.06 45.5938 111.035 45.5835 111.024 45.5747C111.015 45.563 111.01 45.541 111.01 45.5088C111.01 45.4736 111.032 45.4443 111.076 45.4209L112.197 44.8936C112.232 44.876 112.254 44.8672 112.263 44.8672C112.313 44.8672 112.338 44.9023 112.338 44.9727V48.2729C112.338 48.5601 112.496 48.7271 112.812 48.7739C112.95 48.7915 113.019 48.8223 113.019 48.8662C113.019 48.9102 113.004 48.9351 112.975 48.9409H111.015ZM111.929 43.6323C111.809 43.6323 111.702 43.5942 111.608 43.5181C111.517 43.4419 111.472 43.3364 111.472 43.2017C111.472 43.064 111.516 42.9556 111.604 42.8765C111.692 42.7974 111.796 42.7578 111.916 42.7578C112.039 42.7578 112.141 42.8047 112.223 42.8984C112.308 42.9922 112.351 43.0933 112.351 43.2017C112.351 43.3101 112.311 43.4097 112.232 43.5005C112.153 43.5884 112.052 43.6323 111.929 43.6323ZM116.838 45.2891C116.838 45.2891 117.23 45.2715 118.015 45.2363C118.083 45.2363 118.127 45.2437 118.147 45.2583C118.168 45.2729 118.19 45.3242 118.213 45.4121C118.236 45.4971 118.248 45.5776 118.248 45.6538C118.248 45.73 118.241 45.7739 118.226 45.7856C118.212 45.7974 118.182 45.8032 118.138 45.8032H117.163C117.18 45.8354 117.199 45.8691 117.22 45.9043C117.24 45.9395 117.267 45.998 117.299 46.0801C117.331 46.1621 117.347 46.2896 117.347 46.4624C117.347 46.6323 117.305 46.811 117.22 46.9985C117.138 47.1831 117.016 47.3472 116.855 47.4907C116.498 47.813 116.035 47.9741 115.466 47.9741C115.317 47.9741 115.153 47.9463 114.974 47.8906C114.93 47.9375 114.872 47.9814 114.798 48.0225C114.725 48.0605 114.653 48.1001 114.583 48.1411C114.407 48.2407 114.319 48.3403 114.319 48.4399C114.319 48.689 114.733 48.8164 115.559 48.8223C116.385 48.8281 116.927 48.856 117.185 48.9058C117.445 48.9526 117.648 49.0479 117.791 49.1914C118.017 49.417 118.13 49.6748 118.13 49.9648C118.13 50.2139 118.023 50.4702 117.809 50.7339C117.437 51.1997 116.868 51.5103 116.104 51.6655C115.831 51.7212 115.543 51.749 115.238 51.749C114.684 51.749 114.264 51.6479 113.977 51.4458C113.69 51.2466 113.546 51.0049 113.546 50.7207C113.546 50.5654 113.583 50.4365 113.656 50.334C113.729 50.2344 113.821 50.1392 113.933 50.0483C114.047 49.9604 114.172 49.8667 114.306 49.7671C114.441 49.6704 114.57 49.5459 114.693 49.3936C114.412 49.3701 114.17 49.2808 113.968 49.1255C113.769 48.9702 113.669 48.8179 113.669 48.6685C113.669 48.519 113.709 48.4092 113.788 48.3389C113.867 48.2656 113.964 48.2041 114.078 48.1543C114.192 48.1016 114.312 48.0532 114.438 48.0093C114.564 47.9653 114.674 47.9082 114.768 47.8379C114.44 47.709 114.186 47.5317 114.007 47.3062C113.829 47.0776 113.739 46.8286 113.739 46.5591C113.739 46.0581 113.921 45.6494 114.284 45.333C114.651 45.0166 115.091 44.8584 115.607 44.8584C116.123 44.8584 116.533 45.002 116.838 45.2891ZM114.447 49.8726C114.38 49.9399 114.324 50.0117 114.28 50.0879C114.236 50.1641 114.214 50.2593 114.214 50.3735C114.214 50.4907 114.255 50.6123 114.337 50.7383C114.422 50.8672 114.536 50.9829 114.68 51.0854C114.996 51.3198 115.377 51.437 115.822 51.437C116.268 51.437 116.671 51.3066 117.031 51.0459C117.394 50.7881 117.576 50.5039 117.576 50.1934C117.576 49.8857 117.426 49.6792 117.128 49.5737C116.987 49.5269 116.625 49.4976 116.042 49.4858C115.459 49.4741 115.081 49.458 114.908 49.4375C114.832 49.5254 114.753 49.603 114.671 49.6704C114.592 49.7378 114.517 49.8052 114.447 49.8726ZM116.627 46.458C116.627 46.0449 116.523 45.7095 116.315 45.4517C116.109 45.1909 115.837 45.0605 115.497 45.0605C115.058 45.0605 114.747 45.2671 114.566 45.6802C114.495 45.8384 114.46 46.02 114.46 46.2251C114.46 46.644 114.547 46.9927 114.719 47.271C114.93 47.605 115.207 47.772 115.55 47.772C115.893 47.772 116.158 47.6562 116.345 47.4248C116.533 47.1934 116.627 46.8711 116.627 46.458ZM121.817 47.5566L121.808 46.6294C121.808 46.2515 121.776 45.9863 121.711 45.834C121.647 45.6816 121.565 45.5674 121.465 45.4912C121.365 45.4121 121.231 45.3726 121.061 45.3726C120.894 45.3726 120.538 45.5044 119.993 45.7681C119.92 45.812 119.881 45.853 119.879 45.8911V48.2554C119.879 48.5513 120.037 48.7212 120.353 48.7651C120.491 48.7856 120.56 48.8193 120.56 48.8662C120.56 48.9102 120.545 48.9351 120.516 48.9409H118.556C118.526 48.9351 118.512 48.9146 118.512 48.8794C118.512 48.8237 118.581 48.7856 118.718 48.7651C119.035 48.7212 119.193 48.5513 119.193 48.2554V45.7329C119.193 45.6099 119.126 45.5249 118.991 45.478C118.932 45.4575 118.869 45.4414 118.802 45.4297C118.734 45.415 118.68 45.4019 118.639 45.3901C118.601 45.3784 118.576 45.3682 118.565 45.3594C118.556 45.3477 118.551 45.3257 118.551 45.2935C118.551 45.2583 118.573 45.229 118.617 45.2056L119.738 44.6782C119.773 44.6606 119.795 44.6519 119.804 44.6519C119.854 44.6519 119.879 44.687 119.879 44.7573V45.4429C119.887 45.4722 119.899 45.4868 119.914 45.4868C119.931 45.4868 119.994 45.4604 120.103 45.4077C120.355 45.2817 120.608 45.1602 120.863 45.043C121.118 44.9258 121.329 44.8672 121.496 44.8672C122.172 44.8672 122.511 45.4839 122.511 46.7173L122.471 48.0005V48.2554C122.471 48.4839 122.586 48.6333 122.814 48.7036C122.911 48.7358 123.003 48.7593 123.091 48.7739C123.182 48.7856 123.24 48.7974 123.267 48.8091C123.296 48.8208 123.311 48.8442 123.311 48.8794C123.311 48.9146 123.296 48.9351 123.267 48.9409H121.149C121.119 48.9351 121.105 48.9146 121.105 48.8794C121.105 48.8237 121.173 48.7856 121.311 48.7651C121.625 48.7212 121.781 48.5396 121.781 48.2202C121.805 48.0737 121.817 47.8525 121.817 47.5566ZM124.414 46.625C124.364 46.625 124.339 46.7319 124.339 46.9458C124.339 47.3999 124.474 47.7808 124.743 48.0884C125.013 48.396 125.347 48.5498 125.745 48.5498C126.147 48.5498 126.532 48.377 126.901 48.0312C126.907 48.0254 126.914 48.0225 126.923 48.0225H126.945C126.963 48.0225 126.979 48.0371 126.993 48.0664C127.011 48.0928 127.027 48.1104 127.042 48.1191C126.702 48.5322 126.302 48.8179 125.842 48.9761C125.684 49.0317 125.505 49.0596 125.306 49.0596C125.107 49.0596 124.904 49.0054 124.699 48.897C124.494 48.7856 124.318 48.6406 124.172 48.4619C123.861 48.0898 123.706 47.627 123.706 47.0732C123.706 46.5166 123.875 46.0098 124.212 45.5527C124.551 45.0957 125.017 44.8672 125.609 44.8672C126.034 44.8672 126.381 45.0576 126.651 45.4385C126.92 45.8164 127.055 46.1489 127.055 46.436C127.055 46.562 127.024 46.625 126.963 46.625H124.414ZM124.462 46.2031C124.462 46.2588 124.488 46.2866 124.541 46.2866H126.198C126.274 46.2866 126.312 46.2412 126.312 46.1504C126.312 45.9395 126.217 45.7241 126.026 45.5044C125.839 45.2817 125.632 45.1704 125.407 45.1704C125.187 45.1704 124.986 45.27 124.805 45.4692C124.626 45.6685 124.512 45.8955 124.462 46.1504V46.2031ZM131.832 48.7739C131.969 48.7915 132.038 48.8267 132.038 48.8794C132.038 48.9146 132.024 48.9351 131.994 48.9409H130.034C130.005 48.9351 129.99 48.9146 129.99 48.8794C129.99 48.8267 130.059 48.7915 130.197 48.7739C130.513 48.7271 130.672 48.5601 130.672 48.2729V42.793C130.672 42.6699 130.604 42.585 130.469 42.5381C130.411 42.5176 130.348 42.5015 130.28 42.4897C130.213 42.4751 130.159 42.4619 130.118 42.4502C130.08 42.4385 130.055 42.4282 130.043 42.4194C130.034 42.4077 130.03 42.3857 130.03 42.3535C130.03 42.3184 130.052 42.2891 130.096 42.2656L131.216 41.7383C131.252 41.7207 131.274 41.7119 131.282 41.7119C131.332 41.7119 131.357 41.7471 131.357 41.8174V48.2729C131.357 48.5601 131.515 48.7271 131.832 48.7739ZM133.212 46.625C133.162 46.625 133.137 46.7319 133.137 46.9458C133.137 47.3999 133.272 47.7808 133.541 48.0884C133.811 48.396 134.145 48.5498 134.543 48.5498C134.944 48.5498 135.33 48.377 135.699 48.0312C135.705 48.0254 135.712 48.0225 135.721 48.0225H135.743C135.76 48.0225 135.776 48.0371 135.791 48.0664C135.809 48.0928 135.825 48.1104 135.839 48.1191C135.5 48.5322 135.1 48.8179 134.64 48.9761C134.482 49.0317 134.303 49.0596 134.104 49.0596C133.904 49.0596 133.702 49.0054 133.497 48.897C133.292 48.7856 133.116 48.6406 132.97 48.4619C132.659 48.0898 132.504 47.627 132.504 47.0732C132.504 46.5166 132.672 46.0098 133.009 45.5527C133.349 45.0957 133.815 44.8672 134.407 44.8672C134.832 44.8672 135.179 45.0576 135.448 45.4385C135.718 45.8164 135.853 46.1489 135.853 46.436C135.853 46.562 135.822 46.625 135.76 46.625H133.212ZM133.26 46.2031C133.26 46.2588 133.286 46.2866 133.339 46.2866H134.996C135.072 46.2866 135.11 46.2412 135.11 46.1504C135.11 45.9395 135.015 45.7241 134.824 45.5044C134.637 45.2817 134.43 45.1704 134.205 45.1704C133.985 45.1704 133.784 45.27 133.603 45.4692C133.424 45.6685 133.31 45.8955 133.26 46.1504V46.2031ZM41.6515 59.5566L41.6427 58.6294C41.6427 58.2515 41.6105 57.9863 41.546 57.834C41.4816 57.6816 41.3995 57.5674 41.2999 57.4912C41.2003 57.4121 41.0656 57.3726 40.8956 57.3726C40.7286 57.3726 40.3727 57.5044 39.8278 57.7681C39.7545 57.812 39.7164 57.853 39.7135 57.8911V60.2554C39.7135 60.5513 39.8717 60.7212 40.1881 60.7651C40.3258 60.7856 40.3947 60.8193 40.3947 60.8662C40.3947 60.9102 40.38 60.9351 40.3507 60.9409H38.3907C38.3615 60.9351 38.3468 60.9146 38.3468 60.8794C38.3468 60.8237 38.4156 60.7856 38.5533 60.7651C38.8698 60.7212 39.028 60.5513 39.028 60.2554V57.7329C39.028 57.6099 38.9606 57.5249 38.8258 57.478C38.7672 57.4575 38.7042 57.4414 38.6368 57.4297C38.5695 57.415 38.5153 57.4019 38.4742 57.3901C38.4362 57.3784 38.4113 57.3682 38.3995 57.3594C38.3907 57.3477 38.3864 57.3257 38.3864 57.2935C38.3864 57.2583 38.4083 57.229 38.4523 57.2056L39.5729 56.6782C39.608 56.6606 39.63 56.6519 39.6388 56.6519C39.6886 56.6519 39.7135 56.687 39.7135 56.7573V57.4429C39.7223 57.4722 39.734 57.4868 39.7487 57.4868C39.7662 57.4868 39.8292 57.4604 39.9376 57.4077C40.1896 57.2817 40.443 57.1602 40.6979 57.043C40.9528 56.9258 41.1637 56.8672 41.3307 56.8672C42.0074 56.8672 42.3458 57.4839 42.3458 58.7173L42.3063 60.0005V60.2554C42.3063 60.4839 42.4205 60.6333 42.649 60.7036C42.7457 60.7358 42.838 60.7593 42.9259 60.7739C43.0167 60.7856 43.0753 60.7974 43.1017 60.8091C43.131 60.8208 43.1456 60.8442 43.1456 60.8794C43.1456 60.9146 43.131 60.9351 43.1017 60.9409H40.9835C40.9542 60.9351 40.9396 60.9146 40.9396 60.8794C40.9396 60.8237 41.0084 60.7856 41.1461 60.7651C41.4596 60.7212 41.6163 60.5396 41.6163 60.2202C41.6398 60.0737 41.6515 59.8525 41.6515 59.5566ZM43.5631 58.9678C43.5631 58.3906 43.7667 57.8955 44.174 57.4824C44.5841 57.0664 45.0748 56.8584 45.6461 56.8584C46.2174 56.8584 46.714 57.0605 47.1359 57.4648C47.5577 57.8662 47.7687 58.3628 47.7687 58.9546C47.7687 59.5464 47.568 60.0459 47.1666 60.4531C46.7682 60.8574 46.2672 61.0596 45.6637 61.0596C45.0602 61.0596 44.5592 60.8545 44.1608 60.4443C43.7623 60.0342 43.5631 59.542 43.5631 58.9678ZM44.6573 60.0972C44.9445 60.5806 45.3356 60.8223 45.8307 60.8223C46.2145 60.8223 46.5074 60.6685 46.7096 60.3608C46.9147 60.0532 47.0172 59.6753 47.0172 59.2271C47.0172 58.7788 46.8737 58.3188 46.5865 57.8472C46.3024 57.3755 45.9186 57.1396 45.4352 57.1396C45.0807 57.1396 44.8009 57.2935 44.5958 57.6011C44.3937 57.9058 44.2926 58.2939 44.2926 58.7656C44.2926 59.2344 44.4142 59.6782 44.6573 60.0972ZM54.2023 59.5566L54.1935 58.6294C54.1935 58.2515 54.1613 57.9863 54.0968 57.834C54.0323 57.6816 53.9503 57.5674 53.8507 57.4912C53.7511 57.4121 53.6163 57.3726 53.4464 57.3726C53.2794 57.3726 52.9235 57.5044 52.3785 57.7681C52.3053 57.812 52.2672 57.853 52.2643 57.8911V60.2554C52.2643 60.5513 52.4225 60.7212 52.7389 60.7651C52.8766 60.7856 52.9454 60.8193 52.9454 60.8662C52.9454 60.9102 52.9308 60.9351 52.9015 60.9409H50.9415C50.9122 60.9351 50.8976 60.9146 50.8976 60.8794C50.8976 60.8237 50.9664 60.7856 51.1041 60.7651C51.4205 60.7212 51.5787 60.5513 51.5787 60.2554V58.0669C51.5787 57.6069 51.2946 57.377 50.7262 57.377C50.5182 57.377 50.2296 57.5 49.8605 57.7461C49.7667 57.8076 49.6979 57.8647 49.6539 57.9175V60.2554C49.6539 60.5513 49.8121 60.7212 50.1285 60.7651C50.2662 60.7856 50.3351 60.8193 50.3351 60.8662C50.3351 60.9102 50.3204 60.9351 50.2911 60.9409H48.3312C48.3019 60.9351 48.2872 60.9146 48.2872 60.8794C48.2872 60.8237 48.3561 60.7856 48.4938 60.7651C48.8102 60.7212 48.9684 60.5542 48.9684 60.2642V57.7329C48.9684 57.6099 48.901 57.5249 48.7662 57.478C48.7076 57.4575 48.6447 57.4414 48.5773 57.4297C48.5099 57.415 48.4557 57.4019 48.4147 57.3901C48.3766 57.3784 48.3517 57.3682 48.34 57.3594C48.3312 57.3477 48.3268 57.3257 48.3268 57.2935C48.3268 57.2583 48.3488 57.229 48.3927 57.2056L49.5133 56.6782C49.5485 56.6606 49.5704 56.6519 49.5792 56.6519C49.629 56.6519 49.6539 56.687 49.6539 56.7573V57.4868C49.6569 57.5044 49.6671 57.5132 49.6847 57.5132C49.7052 57.5132 49.7535 57.4927 49.8297 57.4517C49.9088 57.4106 50.0114 57.3535 50.1373 57.2803C50.2633 57.2041 50.4288 57.1162 50.6339 57.0166C50.8419 56.917 51.0616 56.8672 51.2931 56.8672C51.6652 56.8672 51.9318 57.0269 52.0929 57.3462C52.1544 57.4751 52.2101 57.5308 52.2599 57.5132C52.3097 57.4927 52.3873 57.4561 52.4928 57.4033C52.7418 57.2803 52.9938 57.1602 53.2487 57.043C53.5035 56.9258 53.7145 56.8672 53.8815 56.8672C54.5582 56.8672 54.8966 57.4839 54.8966 58.7173L54.8571 60.0005V60.2554C54.8571 60.4839 54.9713 60.6333 55.1998 60.7036C55.2965 60.7358 55.3888 60.7593 55.4767 60.7739C55.5675 60.7856 55.6261 60.7974 55.6525 60.8091C55.6818 60.8208 55.6964 60.8442 55.6964 60.8794C55.6964 60.9146 55.6818 60.9351 55.6525 60.9409H53.5343C53.505 60.9351 53.4904 60.9146 53.4904 60.8794C53.4904 60.8237 53.5592 60.7856 53.6969 60.7651C54.0104 60.7212 54.1671 60.5396 54.1671 60.2202C54.1906 60.0737 54.2023 59.8525 54.2023 59.5566ZM57.0939 57.2627C57.0939 57.3535 57.1144 57.3989 57.1554 57.3989C57.1993 57.3989 57.3868 57.3037 57.7179 57.1133C58.1046 56.9492 58.399 56.8672 58.6012 56.8672C58.8033 56.8672 58.9967 56.9258 59.1813 57.043C59.3658 57.1602 59.5226 57.314 59.6515 57.5044C59.924 57.897 60.0602 58.373 60.0602 58.9326C60.0602 59.4922 59.8654 59.9873 59.4757 60.418C59.089 60.8457 58.5778 61.0596 57.942 61.0596C57.5289 61.0596 57.1481 61.0098 56.7994 60.9102C56.6969 60.8809 56.609 60.8574 56.5358 60.8398C56.4655 60.8223 56.4259 60.8047 56.4171 60.7871C56.4113 60.7666 56.4083 60.7432 56.4083 60.7168V54.793C56.4083 54.6699 56.3409 54.585 56.2062 54.5381C56.1476 54.5176 56.0846 54.5015 56.0172 54.4897C55.9498 54.4751 55.8956 54.4619 55.8546 54.4502C55.8165 54.4385 55.7916 54.4282 55.7799 54.4194C55.7711 54.4077 55.7667 54.3857 55.7667 54.3535C55.7667 54.3184 55.7887 54.2891 55.8326 54.2656L56.9532 53.7383C56.9884 53.7207 57.0104 53.7119 57.0192 53.7119C57.069 53.7119 57.0939 53.7471 57.0939 53.8174V57.2627ZM58.0255 57.4033C57.7648 57.4033 57.4718 57.4971 57.1466 57.6846C57.1115 57.7051 57.0939 57.7402 57.0939 57.79V59.8687C57.1232 60.1353 57.2389 60.3433 57.441 60.4927C57.6432 60.6421 57.8644 60.7168 58.1046 60.7168C58.5265 60.7168 58.8517 60.5498 59.0802 60.2158C59.3116 59.8818 59.4274 59.501 59.4274 59.0732C59.4274 58.6455 59.3102 58.2603 59.0758 57.9175C58.8414 57.5747 58.4913 57.4033 58.0255 57.4033ZM63.5275 57.79C63.4923 57.7842 63.441 57.7651 63.3737 57.7329C63.1305 57.6216 62.9401 57.5659 62.8024 57.5659C62.6647 57.5659 62.5197 57.6523 62.3673 57.8252C62.2179 57.9951 62.1432 58.1489 62.1432 58.2866V60.2729C62.1432 60.4927 62.2706 60.6392 62.5255 60.7124C62.6368 60.7417 62.7408 60.7637 62.8375 60.7783C62.9342 60.79 62.9957 60.8018 63.0221 60.8135C63.0514 60.8252 63.066 60.8486 63.066 60.8838C63.066 60.916 63.0514 60.9351 63.0221 60.9409H60.8204C60.7911 60.9351 60.7765 60.9146 60.7765 60.8794C60.7765 60.8267 60.8453 60.7915 60.983 60.7739C61.2994 60.7271 61.4576 60.5601 61.4576 60.2729V57.9482C61.4576 57.8252 61.3903 57.7402 61.2555 57.6934C61.1969 57.6729 61.1339 57.6567 61.0665 57.645C60.9991 57.6304 60.9449 57.6172 60.9039 57.6055C60.8658 57.5938 60.8409 57.5835 60.8292 57.5747C60.8204 57.563 60.816 57.541 60.816 57.5088C60.816 57.4736 60.838 57.4443 60.882 57.4209L62.0026 56.8936C62.0377 56.876 62.0597 56.8672 62.0685 56.8672C62.1183 56.8672 62.1432 56.9023 62.1432 56.9727V57.6846C62.1432 57.7197 62.152 57.7373 62.1696 57.7373C62.193 57.7373 62.2531 57.6685 62.3497 57.5308C62.6281 57.1411 62.858 56.9463 63.0397 56.9463C63.1422 56.9463 63.299 56.9873 63.5099 57.0693C63.7238 57.1514 63.8307 57.2202 63.8307 57.2759C63.8307 57.3433 63.797 57.4458 63.7296 57.5835C63.6622 57.7212 63.5948 57.79 63.5275 57.79ZM64.8502 58.625C64.8004 58.625 64.7755 58.7319 64.7755 58.9458C64.7755 59.3999 64.9103 59.7808 65.1798 60.0884C65.4493 60.396 65.7833 60.5498 66.1818 60.5498C66.5831 60.5498 66.9684 60.377 67.3375 60.0312C67.3434 60.0254 67.3507 60.0225 67.3595 60.0225H67.3815C67.399 60.0225 67.4152 60.0371 67.4298 60.0664C67.4474 60.0928 67.4635 60.1104 67.4781 60.1191C67.1383 60.5322 66.7384 60.8179 66.2784 60.9761C66.1202 61.0317 65.9415 61.0596 65.7423 61.0596C65.5431 61.0596 65.3409 61.0054 65.1359 60.897C64.9308 60.7856 64.755 60.6406 64.6085 60.4619C64.298 60.0898 64.1427 59.627 64.1427 59.0732C64.1427 58.5166 64.3112 58.0098 64.6481 57.5527C64.9879 57.0957 65.4537 56.8672 66.0455 56.8672C66.4703 56.8672 66.8175 57.0576 67.087 57.4385C67.3566 57.8164 67.4913 58.1489 67.4913 58.436C67.4913 58.562 67.4606 58.625 67.399 58.625H64.8502ZM64.8986 58.2031C64.8986 58.2588 64.9249 58.2866 64.9777 58.2866H66.6344C66.7106 58.2866 66.7487 58.2412 66.7487 58.1504C66.7487 57.9395 66.6534 57.7241 66.463 57.5044C66.2755 57.2817 66.069 57.1704 65.8434 57.1704C65.6237 57.1704 65.423 57.27 65.2413 57.4692C65.0626 57.6685 64.9484 57.8955 64.8986 58.1504V58.2031ZM73.358 57.0518C73.4869 57.0957 73.566 57.1177 73.5953 57.1177C73.6246 57.1177 73.6422 57.1177 73.6481 57.1177C73.6569 57.1147 73.6671 57.0957 73.6788 57.0605V54.793C73.6788 54.6699 73.6115 54.585 73.4767 54.5381C73.4181 54.5176 73.3551 54.5015 73.2877 54.4897C73.2203 54.4751 73.1661 54.4619 73.1251 54.4502C73.087 54.4385 73.0621 54.4282 73.0504 54.4194C73.0416 54.4077 73.0372 54.3857 73.0372 54.3535C73.0372 54.3184 73.0592 54.2891 73.1031 54.2656L74.2238 53.7383C74.2589 53.7207 74.2809 53.7119 74.2897 53.7119C74.3395 53.7119 74.3644 53.7471 74.3644 53.8174V60.0752C74.379 60.2041 74.4156 60.2964 74.4742 60.3521C74.5328 60.4077 74.6281 60.4355 74.7599 60.4355L75.0148 60.418C75.0323 60.418 75.0411 60.4355 75.0411 60.4707C75.0411 60.5029 75.0192 60.5293 74.9752 60.5498L73.8063 61.0332C73.7711 61.0508 73.7404 61.0596 73.714 61.0596C73.6906 61.0596 73.6788 61.0229 73.6788 60.9497V60.5498C73.6788 60.5205 73.6715 60.5059 73.6569 60.5059C73.6364 60.5059 73.5148 60.5718 73.2921 60.7036C72.6095 61.1079 72.0338 61.168 71.5651 60.8838C71.1901 60.6553 70.9366 60.2935 70.8048 59.7983C70.7433 59.5669 70.7125 59.3223 70.7125 59.0645C70.7125 58.8037 70.7653 58.5459 70.8707 58.291C70.9791 58.0332 71.1271 57.8076 71.3146 57.6143C71.7277 57.1924 72.2257 56.9814 72.8087 56.9814C73.046 56.9814 73.2291 57.0049 73.358 57.0518ZM71.3761 58.937C71.3761 59.3794 71.4991 59.7676 71.7452 60.1016C71.9913 60.4326 72.3341 60.5981 72.7736 60.5981C72.9669 60.5981 73.1661 60.5513 73.3712 60.4575C73.5763 60.3608 73.6788 60.2876 73.6788 60.2378V57.9702C73.6788 57.9146 73.6407 57.8486 73.5646 57.7725C73.3302 57.4502 73.0182 57.2891 72.6285 57.2891C72.2418 57.2891 71.9357 57.4531 71.7101 57.7812C71.4874 58.1064 71.3761 58.4917 71.3761 58.937ZM76.1442 58.625C76.0944 58.625 76.0695 58.7319 76.0695 58.9458C76.0695 59.3999 76.2042 59.7808 76.4738 60.0884C76.7433 60.396 77.0773 60.5498 77.4757 60.5498C77.8771 60.5498 78.2623 60.377 78.6315 60.0312C78.6373 60.0254 78.6447 60.0225 78.6534 60.0225H78.6754C78.693 60.0225 78.7091 60.0371 78.7238 60.0664C78.7413 60.0928 78.7574 60.1104 78.7721 60.1191C78.4323 60.5322 78.0323 60.8179 77.5724 60.9761C77.4142 61.0317 77.2355 61.0596 77.0363 61.0596C76.837 61.0596 76.6349 61.0054 76.4298 60.897C76.2247 60.7856 76.049 60.6406 75.9025 60.4619C75.5919 60.0898 75.4366 59.627 75.4366 59.0732C75.4366 58.5166 75.6051 58.0098 75.942 57.5527C76.2819 57.0957 76.7477 56.8672 77.3395 56.8672C77.7643 56.8672 78.1115 57.0576 78.381 57.4385C78.6505 57.8164 78.7853 58.1489 78.7853 58.436C78.7853 58.562 78.7545 58.625 78.693 58.625H76.1442ZM76.1925 58.2031C76.1925 58.2588 76.2189 58.2866 76.2716 58.2866H77.9283C78.0045 58.2866 78.0426 58.2412 78.0426 58.1504C78.0426 57.9395 77.9474 57.7241 77.757 57.5044C77.5695 57.2817 77.3629 57.1704 77.1373 57.1704C76.9176 57.1704 76.7169 57.27 76.5353 57.4692C76.3566 57.6685 76.2423 57.8955 76.1925 58.1504V58.2031ZM84.3444 60.8706C84.3444 60.9175 84.318 60.9409 84.2653 60.9409H81.8527C81.8234 60.9351 81.8087 60.9146 81.8087 60.8794C81.8087 60.8267 81.8776 60.7915 82.0153 60.7739C82.3317 60.7271 82.4899 60.5601 82.4899 60.2729V57.6099C82.4899 57.5776 82.4723 57.5615 82.4371 57.5615H81.9581C81.923 57.5615 81.8893 57.5513 81.8571 57.5308C81.8248 57.5073 81.8087 57.478 81.8087 57.4429C81.8087 57.4048 81.8263 57.3755 81.8615 57.355C81.9113 57.3257 82.0284 57.2861 82.213 57.2363C82.3976 57.1865 82.4899 57.1045 82.4899 56.9902V56.8452C82.4899 55.3804 82.9396 54.4238 83.839 53.9756C83.9327 53.9316 84.0192 53.9097 84.0983 53.9097C84.1774 53.9097 84.3033 53.9302 84.4762 53.9712C84.649 54.0122 84.7882 54.0327 84.8937 54.0327C85.0021 54.0327 85.1676 53.9976 85.3903 53.9272L85.7902 53.7383C85.8253 53.7207 85.8473 53.7119 85.8561 53.7119C85.9059 53.7119 85.9308 53.7471 85.9308 53.8174V60.2729C85.9308 60.5601 86.089 60.7271 86.4054 60.7739C86.5431 60.7915 86.6119 60.8223 86.6119 60.8662C86.6119 60.9102 86.5973 60.9351 86.568 60.9409H84.608C84.5787 60.9351 84.5641 60.9146 84.5641 60.8794C84.5641 60.8267 84.6329 60.7915 84.7706 60.7739C85.087 60.7271 85.2452 60.5601 85.2452 60.2729V57.5615H83.2325C83.1945 57.5615 83.1754 57.5762 83.1754 57.6055V60.1851C83.1754 60.604 83.5387 60.8135 84.2653 60.8135C84.318 60.8193 84.3444 60.8384 84.3444 60.8706ZM83.1754 56.9507C83.1754 56.9741 83.1901 56.9858 83.2194 56.9858H85.2452V54.7622C84.9786 54.5571 84.7867 54.4355 84.6696 54.3975C84.5553 54.3594 84.4279 54.3403 84.2872 54.3403C83.9884 54.3403 83.7496 54.4092 83.5709 54.5469C83.3951 54.6816 83.2853 54.8413 83.2413 55.0259C83.1974 55.2104 83.1754 55.4258 83.1754 55.6719V56.9507ZM87.7809 58.625C87.7311 58.625 87.7062 58.7319 87.7062 58.9458C87.7062 59.3999 87.8409 59.7808 88.1105 60.0884C88.38 60.396 88.714 60.5498 89.1124 60.5498C89.5138 60.5498 89.899 60.377 90.2682 60.0312C90.274 60.0254 90.2814 60.0225 90.2902 60.0225H90.3121C90.3297 60.0225 90.3458 60.0371 90.3605 60.0664C90.3781 60.0928 90.3942 60.1104 90.4088 60.1191C90.069 60.5322 89.6691 60.8179 89.2091 60.9761C89.0509 61.0317 88.8722 61.0596 88.673 61.0596C88.4738 61.0596 88.2716 61.0054 88.0665 60.897C87.8615 60.7856 87.6857 60.6406 87.5392 60.4619C87.2286 60.0898 87.0734 59.627 87.0734 59.0732C87.0734 58.5166 87.2418 58.0098 87.5787 57.5527C87.9186 57.0957 88.3844 56.8672 88.9762 56.8672C89.401 56.8672 89.7482 57.0576 90.0177 57.4385C90.2872 57.8164 90.422 58.1489 90.422 58.436C90.422 58.562 90.3912 58.625 90.3297 58.625H87.7809ZM87.8292 58.2031C87.8292 58.2588 87.8556 58.2866 87.9083 58.2866H89.5651C89.6412 58.2866 89.6793 58.2412 89.6793 58.1504C89.6793 57.9395 89.5841 57.7241 89.3937 57.5044C89.2062 57.2817 88.9996 57.1704 88.774 57.1704C88.5543 57.1704 88.3536 57.27 88.172 57.4692C87.9933 57.6685 87.879 57.8955 87.8292 58.1504V58.2031ZM89.2091 56.252C89.1974 56.2637 89.1871 56.2695 89.1783 56.2695C89.1696 56.2695 89.1593 56.2637 89.1476 56.252L87.9655 55.2983C87.8043 55.1606 87.7238 55.0361 87.7238 54.9248C87.7238 54.8135 87.7531 54.7256 87.8116 54.6611C87.8732 54.5938 87.9552 54.5601 88.0577 54.5601C88.1603 54.5601 88.2643 54.6318 88.3698 54.7754L89.3058 56.0718C89.3175 56.0835 89.3234 56.0923 89.3234 56.0981C89.3234 56.104 89.3175 56.1128 89.3058 56.1245L89.2091 56.252ZM94.61 57.3945C94.61 57.5996 94.4913 57.7021 94.254 57.7021C94.1339 57.7021 94.0314 57.6685 93.9464 57.6011C93.8644 57.5308 93.7999 57.4722 93.7531 57.4253C93.7091 57.3755 93.6622 57.3301 93.6124 57.2891C93.4015 57.1162 93.1437 57.0972 92.839 57.2319C92.5372 57.3667 92.3043 57.6538 92.1403 58.0933C92.0494 58.3364 92.004 58.5781 92.004 58.8184C92.004 59.334 92.1212 59.7559 92.3556 60.084C92.59 60.4092 92.9489 60.5718 93.4323 60.5718C93.7926 60.5718 94.1163 60.4106 94.4034 60.0884C94.4913 59.9917 94.5441 59.9434 94.5616 59.9434C94.5792 59.9434 94.5983 59.9521 94.6188 59.9697C94.6393 59.9873 94.6495 60.0137 94.6495 60.0488C94.6495 60.0811 94.6407 60.106 94.6232 60.1235C94.1749 60.7476 93.611 61.0596 92.9313 61.0596C92.4391 61.0596 92.0348 60.8765 91.7184 60.5103C91.4049 60.144 91.2482 59.7251 91.2482 59.2534C91.2511 58.3804 91.462 57.752 91.881 57.3682C92.2501 57.0312 92.776 56.8628 93.4586 56.8628C93.8805 56.8628 94.1603 56.9053 94.298 56.9902C94.4357 57.0752 94.5323 57.1821 94.588 57.311C94.6027 57.3403 94.61 57.3682 94.61 57.3945ZM96.4557 57.5396C96.4557 57.6099 96.4659 57.645 96.4865 57.645C96.507 57.645 96.5216 57.6406 96.5304 57.6318C96.5392 57.6201 96.6007 57.5513 96.715 57.4253C97.046 57.0562 97.3815 56.8716 97.7213 56.8716C98.1666 56.8716 98.4933 56.9712 98.7013 57.1704C98.9562 57.4224 99.0836 57.8457 99.0836 58.4404V60.2729C99.0836 60.5601 99.2418 60.7271 99.5582 60.7739C99.6959 60.7915 99.7648 60.8223 99.7648 60.8662C99.7648 60.9102 99.7501 60.9351 99.7208 60.9409H97.7609C97.7316 60.9351 97.7169 60.9146 97.7169 60.8794C97.7169 60.8267 97.7858 60.7915 97.9235 60.7739C98.2399 60.7271 98.3981 60.5601 98.3981 60.2729V58.4844C98.3981 58.0537 98.3673 57.7739 98.3058 57.645C98.1886 57.3872 97.944 57.2583 97.5719 57.2583C97.3434 57.2583 97.1002 57.3564 96.8424 57.5527C96.5846 57.7461 96.4557 57.96 96.4557 58.1943V60.2729C96.4557 60.5601 96.6139 60.7271 96.9303 60.7739C97.068 60.7915 97.1368 60.8223 97.1368 60.8662C97.1368 60.9102 97.1222 60.9351 97.0929 60.9409H95.1329C95.1036 60.9351 95.089 60.9146 95.089 60.8794C95.089 60.8267 95.1578 60.7915 95.2955 60.7739C95.6119 60.7271 95.7701 60.5601 95.7701 60.2729V54.793C95.7701 54.6699 95.7028 54.585 95.568 54.5381C95.5094 54.5176 95.4464 54.5015 95.379 54.4897C95.3116 54.4751 95.2574 54.4619 95.2164 54.4502C95.1783 54.4385 95.1534 54.4282 95.1417 54.4194C95.1329 54.4077 95.1285 54.3857 95.1285 54.3535C95.1285 54.3184 95.1505 54.2891 95.1945 54.2656L96.3151 53.7383C96.3502 53.7207 96.3722 53.7119 96.381 53.7119C96.4308 53.7119 96.4557 53.7471 96.4557 53.8174V57.5396ZM100.912 58.625C100.862 58.625 100.837 58.7319 100.837 58.9458C100.837 59.3999 100.972 59.7808 101.241 60.0884C101.511 60.396 101.845 60.5498 102.243 60.5498C102.645 60.5498 103.03 60.377 103.399 60.0312C103.405 60.0254 103.412 60.0225 103.421 60.0225H103.443C103.461 60.0225 103.477 60.0371 103.491 60.0664C103.509 60.0928 103.525 60.1104 103.54 60.1191C103.2 60.5322 102.8 60.8179 102.34 60.9761C102.182 61.0317 102.003 61.0596 101.804 61.0596C101.605 61.0596 101.402 61.0054 101.197 60.897C100.992 60.7856 100.817 60.6406 100.67 60.4619C100.359 60.0898 100.204 59.627 100.204 59.0732C100.204 58.5166 100.373 58.0098 100.71 57.5527C101.049 57.0957 101.515 56.8672 102.107 56.8672C102.532 56.8672 102.879 57.0576 103.149 57.4385C103.418 57.8164 103.553 58.1489 103.553 58.436C103.553 58.562 103.522 58.625 103.461 58.625H100.912ZM100.96 58.2031C100.96 58.2588 100.986 58.2866 101.039 58.2866H102.696C102.772 58.2866 102.81 58.2412 102.81 58.1504C102.81 57.9395 102.715 57.7241 102.525 57.5044C102.337 57.2817 102.13 57.1704 101.905 57.1704C101.685 57.1704 101.484 57.27 101.303 57.4692C101.124 57.6685 101.01 57.8955 100.96 58.1504V58.2031ZM106.422 57.9351C106.422 57.9995 106.398 58.0317 106.348 58.0317C106.301 58.0317 106.264 57.9966 106.238 57.9263C106.168 57.7329 106.062 57.5615 105.922 57.4121C105.784 57.2627 105.612 57.188 105.407 57.188C105.138 57.188 104.956 57.3228 104.862 57.5923C104.833 57.6831 104.818 57.7769 104.818 57.8735C104.818 57.9702 104.88 58.0786 105.003 58.1987C105.126 58.3159 105.328 58.4565 105.609 58.6206C105.891 58.7847 106.096 58.9238 106.225 59.0381C106.518 59.2988 106.664 59.6006 106.664 59.9434C106.664 60.2861 106.538 60.5586 106.286 60.7607C106.034 60.96 105.741 61.0596 105.407 61.0596C105.229 61.0596 105.066 61.0347 104.92 60.9849C104.776 60.938 104.693 60.9146 104.669 60.9146C104.649 60.9146 104.613 60.938 104.564 60.9849C104.517 61.0347 104.479 61.0596 104.449 61.0596H104.375C104.357 61.0596 104.335 60.9014 104.309 60.585C104.282 60.2686 104.269 60.0811 104.269 60.0225C104.269 59.9639 104.274 59.9316 104.282 59.9258C104.294 59.9199 104.312 59.917 104.335 59.917C104.359 59.917 104.378 59.9243 104.392 59.939C104.41 59.9536 104.424 59.9727 104.436 59.9961C104.448 60.0166 104.457 60.0386 104.463 60.062C104.471 60.0854 104.49 60.1294 104.52 60.1938C104.719 60.6187 105.026 60.8311 105.443 60.8311C105.627 60.8311 105.775 60.7637 105.886 60.6289C105.998 60.4912 106.053 60.3389 106.053 60.1719C106.053 60.0049 106.009 59.8643 105.922 59.75C105.834 59.6357 105.724 59.5317 105.592 59.438C105.463 59.3442 105.322 59.2534 105.17 59.1655C104.578 58.8198 104.282 58.4375 104.282 58.0186C104.282 57.7051 104.417 57.4355 104.687 57.21C104.956 56.9814 105.233 56.8672 105.517 56.8672C105.801 56.8672 106.011 56.8979 106.146 56.9595C106.283 57.021 106.364 57.0737 106.387 57.1177C106.411 57.1587 106.422 57.2964 106.422 57.5308V57.9351ZM107.569 60.5015C107.569 60.3433 107.625 60.207 107.736 60.0928C107.848 59.9756 107.983 59.917 108.141 59.917C108.296 59.917 108.429 59.9741 108.541 60.0884C108.655 60.1997 108.712 60.3359 108.712 60.4971C108.712 60.6582 108.656 60.793 108.545 60.9014C108.434 61.0068 108.299 61.0596 108.141 61.0596C107.985 61.0596 107.851 61.0054 107.736 60.897C107.625 60.7886 107.569 60.6567 107.569 60.5015Z" fill="#EFB85F"/>
<path d="M17.5002 10L18.696 11.9748L21 13L18.696 14.0249L17.5002 16L16.304 14.0249L14 13L16.304 11.9748L17.5002 10Z" fill="#EFB85F"/>
<path d="M17.5002 86L18.696 87.9748L21 89L18.696 90.0249L17.5002 92L16.304 90.0249L14 89L16.304 87.9748L17.5002 86Z" fill="#EFB85F"/>
<path d="M124.5 84L125.696 85.9748L128 87L125.696 88.0249L124.5 90L123.304 88.0249L121 87L123.304 85.9748L124.5 84Z" fill="#EFB85F"/>
<path d="M80.5002 90L81.696 91.9748L84 93L81.696 94.0249L80.5002 96L79.304 94.0249L77 93L79.304 91.9748L80.5002 90Z" fill="#EFB85F"/>
<path d="M120.5 7L121.696 8.97475L124 10L121.696 11.0249L120.5 13L119.304 11.0249L117 10L119.304 8.97475L120.5 7Z" fill="#EFB85F"/>
<path d="M95.125 16.6259C95.1509 16.3615 95.1942 15.7335 95.2288 15.2377C95.2634 14.6647 95.324 14.3011 95.3932 14.2681C95.4538 14.235 95.7307 14.4113 95.999 14.6537C96.2759 14.9071 96.5182 15.0834 96.5441 15.0504C96.5615 15.0283 96.397 14.6757 96.1807 14.2791C95.9038 13.7943 95.8086 13.5519 95.8865 13.5189C95.9471 13.4968 96.3884 13.4197 96.8643 13.3426C98.3873 13.1222 98.3787 13.001 96.8384 12.7917C96.3019 12.7145 95.8519 12.6154 95.8346 12.5823C95.8086 12.5382 95.973 12.2187 96.1807 11.8661C96.3884 11.5025 96.5441 11.183 96.5182 11.15C96.4922 11.1279 96.2326 11.3152 95.9471 11.5687C95.6528 11.8331 95.3932 11.9984 95.3586 11.9543C95.3154 11.8992 95.2461 11.2381 95.1856 10.4779C95.0298 8.49462 94.9606 8.50564 94.7962 10.5219C94.7356 11.2822 94.6664 11.9433 94.6317 11.9763C94.6058 12.0094 94.3462 11.8331 94.052 11.5797C93.7664 11.3152 93.5155 11.1279 93.4895 11.161C93.4722 11.183 93.602 11.4805 93.7924 11.8111C93.9827 12.1306 94.1385 12.4611 94.1385 12.5272C94.1385 12.6044 93.7664 12.7035 93.1607 12.7917C91.6117 13.001 91.6117 13.1222 93.1693 13.3536C93.7577 13.4417 94.1385 13.5519 94.1385 13.618C94.1385 13.6841 93.9827 14.0147 93.7924 14.3342C93.3857 15.0283 93.351 15.2046 93.6799 14.9292C93.8183 14.83 94.0693 14.6096 94.251 14.4554C94.6664 14.1138 94.701 14.1689 94.7789 15.3589C94.8913 17.1107 95.0211 17.5735 95.125 16.6259Z" fill="#EFB85F"/>
<path d="M110.125 99.6259C110.151 99.3615 110.194 98.7335 110.229 98.2377C110.263 97.6647 110.324 97.3011 110.393 97.2681C110.454 97.235 110.731 97.4113 110.999 97.6537C111.276 97.9071 111.518 98.0834 111.544 98.0504C111.561 98.0283 111.397 97.6757 111.181 97.2791C110.904 96.7943 110.809 96.5519 110.886 96.5189C110.947 96.4968 111.388 96.4197 111.864 96.3426C113.387 96.1222 113.379 96.001 111.838 95.7917C111.302 95.7145 110.852 95.6154 110.835 95.5823C110.809 95.5382 110.973 95.2187 111.181 94.8661C111.388 94.5025 111.544 94.183 111.518 94.15C111.492 94.1279 111.233 94.3152 110.947 94.5687C110.653 94.8331 110.393 94.9984 110.359 94.9543C110.315 94.8992 110.246 94.2381 110.186 93.4779C110.03 91.4946 109.961 91.5056 109.796 93.5219C109.736 94.2822 109.666 94.9433 109.632 94.9763C109.606 95.0094 109.346 94.8331 109.052 94.5797C108.766 94.3152 108.515 94.1279 108.489 94.161C108.472 94.183 108.602 94.4805 108.792 94.8111C108.983 95.1306 109.138 95.4611 109.138 95.5272C109.138 95.6044 108.766 95.7035 108.161 95.7917C106.612 96.001 106.612 96.1222 108.169 96.3536C108.758 96.4417 109.138 96.5519 109.138 96.618C109.138 96.6841 108.983 97.0147 108.792 97.3342C108.386 98.0283 108.351 98.2046 108.68 97.9292C108.818 97.83 109.069 97.6096 109.251 97.4554C109.666 97.1138 109.701 97.1689 109.779 98.3589C109.891 100.111 110.021 100.573 110.125 99.6259Z" fill="#EFB85F"/>
<path d="M53.125 12.6259C53.1509 12.3615 53.1942 11.7335 53.2288 11.2377C53.2634 10.6647 53.324 10.3011 53.3932 10.2681C53.4538 10.235 53.7307 10.4113 53.999 10.6537C54.2759 10.9071 54.5182 11.0834 54.5441 11.0504C54.5615 11.0283 54.397 10.6757 54.1807 10.2791C53.9038 9.7943 53.8086 9.55191 53.8865 9.51885C53.9471 9.49682 54.3884 9.41969 54.8643 9.34256C56.3873 9.1222 56.3787 9.001 54.8384 8.79166C54.3019 8.71453 53.8519 8.61537 53.8346 8.58232C53.8086 8.53825 53.973 8.21872 54.1807 7.86614C54.3884 7.50255 54.5441 7.18302 54.5182 7.14997C54.4922 7.12793 54.2326 7.31524 53.9471 7.56866C53.6528 7.83309 53.3932 7.99836 53.3586 7.95429C53.3154 7.8992 53.2461 7.23811 53.1856 6.47787C53.0298 4.49462 52.9606 4.50564 52.7962 6.52194C52.7356 7.28219 52.6664 7.94327 52.6317 7.97632C52.6058 8.00938 52.3462 7.83309 52.052 7.57967C51.7664 7.31524 51.5155 7.12793 51.4895 7.16099C51.4722 7.18302 51.602 7.48051 51.7924 7.81105C51.9827 8.13058 52.1385 8.46112 52.1385 8.52723C52.1385 8.60435 51.7664 8.70352 51.1607 8.79166C49.6117 9.001 49.6117 9.1222 51.1693 9.35358C51.7577 9.44173 52.1385 9.55191 52.1385 9.61802C52.1385 9.68412 51.9827 10.0147 51.7924 10.3342C51.3857 11.0283 51.351 11.2046 51.6799 10.9292C51.8183 10.83 52.0693 10.6096 52.251 10.4554C52.6664 10.1138 52.701 10.1689 52.7789 11.3589C52.8913 13.1107 53.0211 13.5735 53.125 12.6259Z" fill="#EFB85F"/>
<circle cx="57" cy="96" r="1" fill="#EFB85F"/>
<circle cx="139" cy="16" r="1" fill="#EFB85F"/>
<circle cx="143" cy="55" r="1" fill="#EFB85F"/>
<circle cx="139" cy="93" r="1" fill="#EFB85F"/>
<circle cx="36" cy="10" r="1" fill="#EFB85F"/>
<circle cx="75" cy="6" r="1" fill="#EFB85F"/>
<path d="M30.1536 96.762L33.0001 96.6487L30.1536 96.5354L31.0464 95.3761L30.0932 96.4619L30 93L29.9069 96.4619L28.9537 95.3761L29.8465 96.5354L27 96.6487L29.8465 96.762L28.9537 97.9212L29.9069 96.8354L30 100.297L30.0932 96.8354L31.0464 97.9212L30.1536 96.762Z" fill="#EFB85F"/>
<path d="M11.1536 76.762L14.0001 76.6487L11.1536 76.5354L12.0464 75.3761L11.0932 76.4619L11 73L10.9069 76.4619L9.95375 75.3761L10.8465 76.5354L8 76.6487L10.8465 76.762L9.95375 77.9212L10.9069 76.8354L11 80.2973L11.0932 76.8354L12.0464 77.9212L11.1536 76.762Z" fill="#EFB85F"/>
<path d="M68.1536 11.762L71.0001 11.6487L68.1536 11.5354L69.0464 10.3761L68.0932 11.4619L68 8L67.9069 11.4619L66.9537 10.3761L67.8465 11.5354L65 11.6487L67.8465 11.762L66.9537 12.9212L67.9069 11.8354L68 15.2973L68.0932 11.8354L69.0464 12.9212L68.1536 11.762Z" fill="#EFB85F"/>
<path d="M137.154 76.762L140 76.6487L137.154 76.5354L138.046 75.3761L137.093 76.4619L137 73L136.907 76.4619L135.954 75.3761L136.847 76.5354L134 76.6487L136.847 76.762L135.954 77.9212L136.907 76.8354L137 80.2973L137.093 76.8354L138.046 77.9212L137.154 76.762Z" fill="#EFB85F"/>
<path d="M129.154 95.762L132 95.6487L129.154 95.5354L130.046 94.3761L129.093 95.4619L129 92L128.907 95.4619L127.954 94.3761L128.847 95.5354L126 95.6487L128.847 95.762L127.954 96.9212L128.907 95.8354L129 99.2973L129.093 95.8354L130.046 96.9212L129.154 95.762Z" fill="#EFB85F"/>
<path d="M8.15357 18.762L11.0001 18.6487L8.15357 18.5354L9.04635 17.3761L8.09316 18.4619L8.00005 15L7.90694 18.4619L6.95375 17.3761L7.84653 18.5354L5 18.6487L7.84653 18.762L6.95375 19.9212L7.90694 18.8354L8.00005 22.2973L8.09316 18.8354L9.04635 19.9212L8.15357 18.762Z" fill="#EFB85F"/>
</svg>
