<svg width="148" height="105" viewBox="0 0 148 105" fill="none" xmlns="http://www.w3.org/2000/svg">
<rect width="147.402" height="104.882" rx="10" fill="black"/>
<path d="M24.7897 28.0811C24.7897 28.055 24.8027 28.042 24.8287 28.042H24.9362L26.5035 28.0078C26.6923 28.0013 26.8974 27.998 27.1188 27.998H27.7291C28.2955 27.998 28.7203 28.0192 29.0035 28.0615C29.29 28.1038 29.5699 28.1543 29.8434 28.2129C30.1201 28.2682 30.413 28.3968 30.7223 28.5986C31.0348 28.8005 31.305 29.0446 31.5328 29.3311C32.0146 29.943 32.2555 30.6038 32.2555 31.3135C32.2555 32.0231 32.0699 32.6595 31.6989 33.2227C31.165 34.0397 30.3919 34.5736 29.3795 34.8242C29.0573 34.9023 28.7268 34.9414 28.3883 34.9414H24.8287C24.8027 34.9414 24.7897 34.9284 24.7897 34.9023V34.7656C24.7897 34.7396 24.8027 34.7266 24.8287 34.7266H24.9362C25.5286 34.7266 25.8248 34.5378 25.8248 34.1602V28.8086C25.8248 28.6263 25.7548 28.4896 25.6149 28.3984C25.4749 28.304 25.317 28.2568 25.1412 28.2568H24.8287C24.8027 28.2568 24.7897 28.2438 24.7897 28.2178V28.0811ZM26.899 28.2275C26.8177 28.2275 26.777 28.2715 26.777 28.3594V34.3311C26.777 34.5719 27.0032 34.6973 27.4557 34.707C27.5892 34.7103 27.7291 34.7119 27.8756 34.7119C28.914 34.7119 29.7295 34.4206 30.3219 33.8379C30.9176 33.2552 31.2155 32.4805 31.2155 31.5137C31.2155 30.5436 30.9404 29.7542 30.3903 29.1455C29.8434 28.5335 29.1224 28.2275 28.2272 28.2275H26.899ZM33.8229 32.3682C33.7675 32.3682 33.7399 32.487 33.7399 32.7246C33.7399 33.2292 33.8896 33.6523 34.1891 33.9941C34.4886 34.3359 34.8597 34.5068 35.3024 34.5068C35.7483 34.5068 36.1764 34.3148 36.5865 33.9307C36.5931 33.9242 36.6012 33.9209 36.611 33.9209H36.6354C36.6549 33.9209 36.6728 33.9372 36.6891 33.9697C36.7086 33.999 36.7265 34.0186 36.7428 34.0283C36.3652 34.4873 35.9209 34.8047 35.4098 34.9805C35.234 35.0423 35.0354 35.0732 34.8141 35.0732C34.5927 35.0732 34.3681 35.013 34.1403 34.8926C33.9124 34.7689 33.7171 34.6077 33.5543 34.4092C33.2093 33.9958 33.0367 33.4814 33.0367 32.8662C33.0367 32.2477 33.2239 31.6846 33.5983 31.1768C33.9759 30.6689 34.4934 30.415 35.151 30.415C35.623 30.415 36.0087 30.6266 36.3082 31.0498C36.6077 31.4697 36.7574 31.8392 36.7574 32.1582C36.7574 32.2982 36.7233 32.3682 36.6549 32.3682H33.8229ZM33.8766 31.8994C33.8766 31.9613 33.9059 31.9922 33.9645 31.9922H35.8053C35.8899 31.9922 35.9323 31.9417 35.9323 31.8408C35.9323 31.6064 35.8265 31.3672 35.6149 31.123C35.4065 30.8757 35.177 30.752 34.9264 30.752C34.6823 30.752 34.4593 30.8626 34.2574 31.084C34.0589 31.3053 33.9319 31.5576 33.8766 31.8408V31.8994ZM44.4479 30.376C44.4674 30.376 44.4772 30.3857 44.4772 30.4053V37.2266C44.4772 37.5456 44.653 37.7311 45.0045 37.7832C45.1575 37.8027 45.234 37.8369 45.234 37.8857C45.234 37.9346 45.2177 37.9622 45.1852 37.9688H42.568C42.5354 37.9622 42.5192 37.9395 42.5192 37.9004C42.5192 37.8646 42.5338 37.8402 42.5631 37.8271C42.5957 37.8141 42.6445 37.8027 42.7096 37.793C42.778 37.7865 42.8545 37.7767 42.9391 37.7637C43.4567 37.6855 43.7155 37.5065 43.7155 37.2266V34.4531C43.7155 34.4336 43.7073 34.4238 43.691 34.4238C43.678 34.4238 43.5559 34.4906 43.3248 34.624C43.0937 34.7575 42.8837 34.8649 42.6949 34.9463C42.5094 35.0309 42.3141 35.0732 42.109 35.0732C41.7509 35.0732 41.4466 34.9577 41.1959 34.7266C40.9453 34.4954 40.7516 34.2074 40.6149 33.8623C40.4781 33.5173 40.4098 33.1803 40.4098 32.8516C40.4098 32.1875 40.6393 31.6162 41.0983 31.1377C41.5573 30.6559 42.1106 30.415 42.7584 30.415C43.1588 30.415 43.5511 30.5192 43.9352 30.7275H43.9694C44.0312 30.7275 44.0979 30.6885 44.1696 30.6104C44.2412 30.529 44.2916 30.4704 44.3209 30.4346C44.3535 30.3955 44.3795 30.376 44.399 30.376H44.4479ZM41.1471 32.7734C41.1471 33.3301 41.3001 33.763 41.6061 34.0723C41.9153 34.3783 42.2343 34.5312 42.5631 34.5312C42.8919 34.5312 43.1995 34.4466 43.486 34.2773C43.5739 34.2253 43.6503 34.1667 43.7155 34.1016V31.8848C43.7155 31.4909 43.6048 31.1947 43.3834 30.9961C43.1621 30.7975 42.9179 30.6982 42.651 30.6982C42.1757 30.6982 41.8063 30.9049 41.5426 31.3184C41.2789 31.7285 41.1471 32.2135 41.1471 32.7734ZM48.9547 34.5117C48.9384 34.4564 48.9173 34.4385 48.8912 34.458C48.8652 34.4743 48.7594 34.5296 48.5739 34.624C47.9651 34.9268 47.4573 35.0781 47.0504 35.0781C46.6435 35.0781 46.3505 34.9479 46.1715 34.6875C46.1064 34.5898 46.0739 34.4694 46.0739 34.3262V31.3477C46.0641 31.2533 46.0218 31.1719 45.9469 31.1035C45.846 31.0189 45.7402 30.9733 45.6295 30.9668C45.5221 30.9603 45.4684 30.9277 45.4684 30.8691C45.4684 30.8073 45.4944 30.7699 45.5465 30.7568L46.6647 30.4346C46.7037 30.4215 46.7412 30.415 46.777 30.415C46.816 30.415 46.8356 30.4427 46.8356 30.498V33.7744C46.8356 34.0023 46.9365 34.1781 47.1383 34.3018C47.3401 34.4255 47.5973 34.4873 47.9098 34.4873C48.2255 34.4873 48.5087 34.3913 48.7594 34.1992C48.8375 34.1374 48.9026 34.069 48.9547 33.9941V31.3477C48.9449 31.2533 48.9026 31.1719 48.8278 31.1035C48.7268 31.0189 48.6211 30.9733 48.5104 30.9668C48.403 30.9603 48.3492 30.9277 48.3492 30.8691C48.3492 30.8073 48.3753 30.7699 48.4274 30.7568L49.5455 30.4346C49.5846 30.4215 49.622 30.415 49.6578 30.415C49.6969 30.415 49.7164 30.4476 49.7164 30.5127V33.9795C49.7327 34.1227 49.7734 34.2253 49.8385 34.2871C49.9036 34.349 50.0094 34.3799 50.1559 34.3799L50.4391 34.3604C50.4586 34.3604 50.4684 34.3799 50.4684 34.4189C50.4684 34.4548 50.444 34.484 50.3951 34.5068L49.0963 35.0439C49.0573 35.0635 49.0231 35.0732 48.9938 35.0732C48.9677 35.0732 48.9547 35.0326 48.9547 34.9512V34.5117ZM51.8893 32.3682C51.8339 32.3682 51.8063 32.487 51.8063 32.7246C51.8063 33.2292 51.956 33.6523 52.2555 33.9941C52.555 34.3359 52.9261 34.5068 53.3688 34.5068C53.8147 34.5068 54.2428 34.3148 54.653 33.9307C54.6595 33.9242 54.6676 33.9209 54.6774 33.9209H54.7018C54.7213 33.9209 54.7392 33.9372 54.7555 33.9697C54.775 33.999 54.7929 34.0186 54.8092 34.0283C54.4316 34.4873 53.9873 34.8047 53.4762 34.9805C53.3004 35.0423 53.1018 35.0732 52.8805 35.0732C52.6591 35.0732 52.4345 35.013 52.2067 34.8926C51.9788 34.7689 51.7835 34.6077 51.6207 34.4092C51.2757 33.9958 51.1031 33.4814 51.1031 32.8662C51.1031 32.2477 51.2903 31.6846 51.6647 31.1768C52.0423 30.6689 52.5599 30.415 53.2174 30.415C53.6894 30.415 54.0752 30.6266 54.3746 31.0498C54.6741 31.4697 54.8239 31.8392 54.8239 32.1582C54.8239 32.2982 54.7897 32.3682 54.7213 32.3682H51.8893ZM51.943 31.8994C51.943 31.9613 51.9723 31.9922 52.0309 31.9922H53.8717C53.9563 31.9922 53.9987 31.9417 53.9987 31.8408C53.9987 31.6064 53.8929 31.3672 53.6813 31.123C53.4729 30.8757 53.2434 30.752 52.9928 30.752C52.7487 30.752 52.5257 30.8626 52.3239 31.084C52.1253 31.3053 51.9983 31.5576 51.943 31.8408V31.8994ZM57.4459 34.7559C57.5989 34.7754 57.6754 34.8145 57.6754 34.873C57.6754 34.9121 57.6591 34.9349 57.6266 34.9414H55.4489C55.4163 34.9349 55.4 34.9121 55.4 34.873C55.4 34.8145 55.4765 34.7754 55.6295 34.7559C55.9811 34.7038 56.1569 34.5182 56.1569 34.1992V28.1104C56.1569 27.9736 56.082 27.8792 55.9323 27.8271C55.8671 27.8044 55.7972 27.7865 55.7223 27.7734C55.6474 27.7572 55.5872 27.7425 55.5416 27.7295C55.4993 27.7165 55.4716 27.7051 55.4586 27.6953C55.4489 27.6823 55.444 27.6579 55.444 27.6221C55.444 27.583 55.4684 27.5505 55.5172 27.5244L56.7623 26.9385C56.8014 26.9189 56.8258 26.9092 56.8356 26.9092C56.8909 26.9092 56.9186 26.9482 56.9186 27.0264V34.1992C56.9186 34.5182 57.0944 34.7038 57.4459 34.7559ZM59.9948 34.7559C60.1477 34.7754 60.2242 34.8145 60.2242 34.873C60.2242 34.9121 60.208 34.9349 60.1754 34.9414H57.9977C57.9651 34.9349 57.9489 34.9121 57.9489 34.873C57.9489 34.8145 58.0253 34.7754 58.1783 34.7559C58.5299 34.7038 58.7057 34.5182 58.7057 34.1992V28.1104C58.7057 27.9736 58.6308 27.8792 58.4811 27.8271C58.416 27.8044 58.346 27.7865 58.2711 27.7734C58.1962 27.7572 58.136 27.7425 58.0905 27.7295C58.0481 27.7165 58.0205 27.7051 58.0074 27.6953C57.9977 27.6823 57.9928 27.6579 57.9928 27.6221C57.9928 27.583 58.0172 27.5505 58.066 27.5244L59.3112 26.9385C59.3502 26.9189 59.3746 26.9092 59.3844 26.9092C59.4397 26.9092 59.4674 26.9482 59.4674 27.0264V34.1992C59.4674 34.5182 59.6432 34.7038 59.9948 34.7559ZM61.528 32.3682C61.4726 32.3682 61.4449 32.487 61.4449 32.7246C61.4449 33.2292 61.5947 33.6523 61.8942 33.9941C62.1936 34.3359 62.5647 34.5068 63.0074 34.5068C63.4534 34.5068 63.8815 34.3148 64.2916 33.9307C64.2981 33.9242 64.3063 33.9209 64.316 33.9209H64.3405C64.36 33.9209 64.3779 33.9372 64.3942 33.9697C64.4137 33.999 64.4316 34.0186 64.4479 34.0283C64.0703 34.4873 63.6259 34.8047 63.1149 34.9805C62.9391 35.0423 62.7405 35.0732 62.5192 35.0732C62.2978 35.0732 62.0732 35.013 61.8453 34.8926C61.6175 34.7689 61.4222 34.6077 61.2594 34.4092C60.9143 33.9958 60.7418 33.4814 60.7418 32.8662C60.7418 32.2477 60.929 31.6846 61.3033 31.1768C61.6809 30.6689 62.1985 30.415 62.8561 30.415C63.3281 30.415 63.7138 30.6266 64.0133 31.0498C64.3128 31.4697 64.4625 31.8392 64.4625 32.1582C64.4625 32.2982 64.4283 32.3682 64.36 32.3682H61.528ZM61.5817 31.8994C61.5817 31.9613 61.611 31.9922 61.6696 31.9922H63.5104C63.595 31.9922 63.6373 31.9417 63.6373 31.8408C63.6373 31.6064 63.5315 31.3672 63.3199 31.123C63.1116 30.8757 62.8821 30.752 62.6315 30.752C62.3873 30.752 62.1643 30.8626 61.9625 31.084C61.764 31.3053 61.637 31.5576 61.5817 31.8408V31.8994ZM71.8014 31.001C71.8014 31.2288 71.6696 31.3428 71.4059 31.3428C71.2724 31.3428 71.1585 31.3053 71.0641 31.2305C70.9729 31.1523 70.9013 31.0872 70.8492 31.0352C70.8004 30.9798 70.7483 30.9294 70.693 30.8838C70.4586 30.6917 70.1722 30.6706 69.8336 30.8203C69.4983 30.9701 69.2395 31.2891 69.0573 31.7773C68.9563 32.0475 68.9059 32.3161 68.9059 32.583C68.9059 33.1559 69.0361 33.6247 69.2965 33.9893C69.5569 34.3506 69.9557 34.5312 70.4928 34.5312C70.8932 34.5312 71.2529 34.3522 71.5719 33.9941C71.6696 33.8867 71.7281 33.833 71.7477 33.833C71.7672 33.833 71.7884 33.8428 71.8112 33.8623C71.8339 33.8818 71.8453 33.9111 71.8453 33.9502C71.8453 33.986 71.8356 34.0137 71.816 34.0332C71.318 34.7266 70.6914 35.0732 69.9362 35.0732C69.3893 35.0732 68.9401 34.8698 68.5885 34.4629C68.2402 34.056 68.066 33.5905 68.066 33.0664C68.0693 32.0964 68.3037 31.3981 68.7692 30.9717C69.1793 30.5973 69.7636 30.4102 70.5221 30.4102C70.9908 30.4102 71.3017 30.4574 71.4547 30.5518C71.6077 30.6462 71.7151 30.765 71.777 30.9082C71.7933 30.9408 71.8014 30.9717 71.8014 31.001ZM72.5533 32.749C72.5533 32.1077 72.7796 31.5576 73.2321 31.0986C73.6878 30.6364 74.233 30.4053 74.8678 30.4053C75.5026 30.4053 76.0543 30.6299 76.5231 31.0791C76.9918 31.5251 77.2262 32.0768 77.2262 32.7344C77.2262 33.3919 77.0032 33.9469 76.5573 34.3994C76.1145 34.8486 75.5579 35.0732 74.8873 35.0732C74.2168 35.0732 73.6601 34.8454 73.2174 34.3896C72.7747 33.9339 72.5533 33.387 72.5533 32.749ZM73.7692 34.0039C74.0882 34.541 74.5227 34.8096 75.0729 34.8096C75.4993 34.8096 75.8248 34.6387 76.0494 34.2969C76.2773 33.9551 76.3912 33.5352 76.3912 33.0371C76.3912 32.5391 76.2317 32.028 75.9127 31.5039C75.597 30.9798 75.1705 30.7178 74.6334 30.7178C74.2395 30.7178 73.9287 30.8887 73.7008 31.2305C73.4762 31.569 73.3639 32.0003 73.3639 32.5244C73.3639 33.0452 73.499 33.5384 73.7692 34.0039ZM81.2789 34.5117C81.2627 34.4564 81.2415 34.4385 81.2155 34.458C81.1894 34.4743 81.0836 34.5296 80.8981 34.624C80.2893 34.9268 79.7815 35.0781 79.3746 35.0781C78.9677 35.0781 78.6748 34.9479 78.4957 34.6875C78.4306 34.5898 78.3981 34.4694 78.3981 34.3262V31.3477C78.3883 31.2533 78.346 31.1719 78.2711 31.1035C78.1702 31.0189 78.0644 30.9733 77.9537 30.9668C77.8463 30.9603 77.7926 30.9277 77.7926 30.8691C77.7926 30.8073 77.8186 30.7699 77.8707 30.7568L78.9889 30.4346C79.028 30.4215 79.0654 30.415 79.1012 30.415C79.1403 30.415 79.1598 30.4427 79.1598 30.498V33.7744C79.1598 34.0023 79.2607 34.1781 79.4625 34.3018C79.6643 34.4255 79.9215 34.4873 80.234 34.4873C80.5498 34.4873 80.833 34.3913 81.0836 34.1992C81.1617 34.1374 81.2268 34.069 81.2789 33.9941V31.3477C81.2692 31.2533 81.2268 31.1719 81.152 31.1035C81.0511 31.0189 80.9453 30.9733 80.8346 30.9668C80.7272 30.9603 80.6735 30.9277 80.6735 30.8691C80.6735 30.8073 80.6995 30.7699 80.7516 30.7568L81.8698 30.4346C81.9088 30.4215 81.9462 30.415 81.9821 30.415C82.0211 30.415 82.0406 30.4476 82.0406 30.5127V33.9795C82.0569 34.1227 82.0976 34.2253 82.1627 34.2871C82.2278 34.349 82.3336 34.3799 82.4801 34.3799L82.7633 34.3604C82.7828 34.3604 82.7926 34.3799 82.7926 34.4189C82.7926 34.4548 82.7682 34.484 82.7194 34.5068L81.4205 35.0439C81.3815 35.0635 81.3473 35.0732 81.318 35.0732C81.292 35.0732 81.2789 35.0326 81.2789 34.9512V34.5117ZM85.2291 34.7559C85.3821 34.7754 85.4586 34.8145 85.4586 34.873C85.4586 34.9121 85.4423 34.9349 85.4098 34.9414H83.2321C83.1995 34.9349 83.1832 34.9121 83.1832 34.873C83.1832 34.8145 83.2597 34.7754 83.4127 34.7559C83.7643 34.7038 83.9401 34.5182 83.9401 34.1992V28.1104C83.9401 27.9736 83.8652 27.8792 83.7155 27.8271C83.6503 27.8044 83.5804 27.7865 83.5055 27.7734C83.4306 27.7572 83.3704 27.7425 83.3248 27.7295C83.2825 27.7165 83.2548 27.7051 83.2418 27.6953C83.2321 27.6823 83.2272 27.6579 83.2272 27.6221C83.2272 27.583 83.2516 27.5505 83.3004 27.5244L84.5455 26.9385C84.5846 26.9189 84.609 26.9092 84.6188 26.9092C84.6741 26.9092 84.7018 26.9482 84.7018 27.0264V34.1992C84.7018 34.5182 84.8776 34.7038 85.2291 34.7559ZM86.7623 32.3682C86.707 32.3682 86.6793 32.487 86.6793 32.7246C86.6793 33.2292 86.8291 33.6523 87.1285 33.9941C87.428 34.3359 87.7991 34.5068 88.2418 34.5068C88.6878 34.5068 89.1158 34.3148 89.526 33.9307C89.5325 33.9242 89.5406 33.9209 89.5504 33.9209H89.5748C89.5944 33.9209 89.6123 33.9372 89.6285 33.9697C89.6481 33.999 89.666 34.0186 89.6823 34.0283C89.3046 34.4873 88.8603 34.8047 88.3492 34.9805C88.1735 35.0423 87.9749 35.0732 87.7535 35.0732C87.5322 35.0732 87.3076 35.013 87.0797 34.8926C86.8518 34.7689 86.6565 34.6077 86.4938 34.4092C86.1487 33.9958 85.9762 33.4814 85.9762 32.8662C85.9762 32.2477 86.1634 31.6846 86.5377 31.1768C86.9153 30.6689 87.4329 30.415 88.0905 30.415C88.5625 30.415 88.9482 30.6266 89.2477 31.0498C89.5472 31.4697 89.6969 31.8392 89.6969 32.1582C89.6969 32.2982 89.6627 32.3682 89.5944 32.3682H86.7623ZM86.816 31.8994C86.816 31.9613 86.8453 31.9922 86.9039 31.9922H88.7448C88.8294 31.9922 88.8717 31.9417 88.8717 31.8408C88.8717 31.6064 88.7659 31.3672 88.5543 31.123C88.346 30.8757 88.1165 30.752 87.8658 30.752C87.6217 30.752 87.3987 30.8626 87.1969 31.084C86.9983 31.3053 86.8714 31.5576 86.816 31.8408V31.8994ZM93.8571 34.5117C93.8408 34.4564 93.8196 34.4385 93.7936 34.458C93.7675 34.4743 93.6617 34.5296 93.4762 34.624C92.8675 34.9268 92.3597 35.0781 91.9528 35.0781C91.5459 35.0781 91.2529 34.9479 91.0739 34.6875C91.0087 34.5898 90.9762 34.4694 90.9762 34.3262V31.3477C90.9664 31.2533 90.9241 31.1719 90.8492 31.1035C90.7483 31.0189 90.6425 30.9733 90.5319 30.9668C90.4244 30.9603 90.3707 30.9277 90.3707 30.8691C90.3707 30.8073 90.3968 30.7699 90.4489 30.7568L91.567 30.4346C91.6061 30.4215 91.6435 30.415 91.6793 30.415C91.7184 30.415 91.7379 30.4427 91.7379 30.498V33.7744C91.7379 34.0023 91.8388 34.1781 92.0406 34.3018C92.2425 34.4255 92.4996 34.4873 92.8121 34.4873C93.1279 34.4873 93.4111 34.3913 93.6617 34.1992C93.7399 34.1374 93.805 34.069 93.8571 33.9941V31.3477C93.8473 31.2533 93.805 31.1719 93.7301 31.1035C93.6292 31.0189 93.5234 30.9733 93.4127 30.9668C93.3053 30.9603 93.2516 30.9277 93.2516 30.8691C93.2516 30.8073 93.2776 30.7699 93.3297 30.7568L94.4479 30.4346C94.4869 30.4215 94.5244 30.415 94.5602 30.415C94.5992 30.415 94.6188 30.4476 94.6188 30.5127V33.9795C94.6351 34.1227 94.6757 34.2253 94.7408 34.2871C94.8059 34.349 94.9117 34.3799 95.0582 34.3799L95.3414 34.3604C95.361 34.3604 95.3707 34.3799 95.3707 34.4189C95.3707 34.4548 95.3463 34.484 95.2975 34.5068L93.9987 35.0439C93.9596 35.0635 93.9254 35.0732 93.8961 35.0732C93.8701 35.0732 93.8571 35.0326 93.8571 34.9512V34.5117ZM98.9742 31.4404C98.9352 31.4339 98.8782 31.4128 98.8033 31.377C98.5332 31.2533 98.3216 31.1914 98.1686 31.1914C98.0156 31.1914 97.8545 31.2874 97.6852 31.4795C97.5192 31.6683 97.4362 31.8392 97.4362 31.9922V34.1992C97.4362 34.4434 97.5778 34.6061 97.861 34.6875C97.9847 34.7201 98.1002 34.7445 98.2076 34.7607C98.3151 34.7738 98.3834 34.7868 98.4127 34.7998C98.4453 34.8128 98.4615 34.8389 98.4615 34.8779C98.4615 34.9137 98.4453 34.9349 98.4127 34.9414H95.9664C95.9339 34.9349 95.9176 34.9121 95.9176 34.873C95.9176 34.8145 95.9941 34.7754 96.1471 34.7559C96.4987 34.7038 96.6744 34.5182 96.6744 34.1992V31.6162C96.6744 31.4795 96.5996 31.3851 96.4498 31.333C96.3847 31.3102 96.3147 31.2923 96.2399 31.2793C96.165 31.263 96.1048 31.2484 96.0592 31.2354C96.0169 31.2223 95.9892 31.2109 95.9762 31.2012C95.9664 31.1882 95.9615 31.1637 95.9615 31.1279C95.9615 31.0889 95.986 31.0563 96.0348 31.0303L97.2799 30.4443C97.319 30.4248 97.3434 30.415 97.3531 30.415C97.4085 30.415 97.4362 30.4541 97.4362 30.5322V31.3232C97.4362 31.3623 97.4459 31.3818 97.4655 31.3818C97.4915 31.3818 97.5582 31.3053 97.6656 31.1523C97.9749 30.7194 98.2304 30.5029 98.4323 30.5029C98.5462 30.5029 98.7203 30.5485 98.9547 30.6396C99.1923 30.7308 99.3112 30.8073 99.3112 30.8691C99.3112 30.944 99.2737 31.0579 99.1989 31.2109C99.124 31.3639 99.0491 31.4404 98.9742 31.4404ZM103.13 32.3682C103.074 32.3682 103.047 32.487 103.047 32.7246C103.047 33.2292 103.196 33.6523 103.496 33.9941C103.795 34.3359 104.166 34.5068 104.609 34.5068C105.055 34.5068 105.483 34.3148 105.893 33.9307C105.9 33.9242 105.908 33.9209 105.918 33.9209H105.942C105.962 33.9209 105.979 33.9372 105.996 33.9697C106.015 33.999 106.033 34.0186 106.049 34.0283C105.672 34.4873 105.227 34.8047 104.716 34.9805C104.541 35.0423 104.342 35.0732 104.121 35.0732C103.899 35.0732 103.675 35.013 103.447 34.8926C103.219 34.7689 103.024 34.6077 102.861 34.4092C102.516 33.9958 102.343 33.4814 102.343 32.8662C102.343 32.2477 102.531 31.6846 102.905 31.1768C103.283 30.6689 103.8 30.415 104.458 30.415C104.93 30.415 105.315 30.6266 105.615 31.0498C105.914 31.4697 106.064 31.8392 106.064 32.1582C106.064 32.2982 106.03 32.3682 105.962 32.3682H103.13ZM103.183 31.8994C103.183 31.9613 103.213 31.9922 103.271 31.9922H105.112C105.197 31.9922 105.239 31.9417 105.239 31.8408C105.239 31.6064 105.133 31.3672 104.922 31.123C104.713 30.8757 104.484 30.752 104.233 30.752C103.989 30.752 103.766 30.8626 103.564 31.084C103.366 31.3053 103.239 31.5576 103.183 31.8408V31.8994ZM109.253 31.6016C109.253 31.6732 109.225 31.709 109.17 31.709C109.117 31.709 109.077 31.6699 109.047 31.5918C108.969 31.377 108.852 31.1865 108.696 31.0205C108.543 30.8545 108.352 30.7715 108.125 30.7715C107.825 30.7715 107.623 30.9212 107.519 31.2207C107.487 31.3216 107.47 31.4258 107.47 31.5332C107.47 31.6406 107.539 31.7611 107.675 31.8945C107.812 32.0247 108.037 32.181 108.349 32.3633C108.662 32.5456 108.89 32.7002 109.033 32.8271C109.358 33.1169 109.521 33.4521 109.521 33.833C109.521 34.2139 109.381 34.5166 109.101 34.7412C108.821 34.9626 108.496 35.0732 108.125 35.0732C107.926 35.0732 107.745 35.0456 107.583 34.9902C107.423 34.9382 107.33 34.9121 107.304 34.9121C107.282 34.9121 107.242 34.9382 107.187 34.9902C107.135 35.0456 107.093 35.0732 107.06 35.0732H106.977C106.958 35.0732 106.933 34.8975 106.904 34.5459C106.875 34.1943 106.86 33.986 106.86 33.9209C106.86 33.8558 106.865 33.82 106.875 33.8135C106.888 33.807 106.907 33.8037 106.933 33.8037C106.959 33.8037 106.98 33.8118 106.997 33.8281C107.016 33.8444 107.033 33.8656 107.046 33.8916C107.059 33.9144 107.068 33.9388 107.075 33.9648C107.085 33.9909 107.106 34.0397 107.138 34.1113C107.36 34.5833 107.701 34.8193 108.164 34.8193C108.369 34.8193 108.533 34.7445 108.657 34.5947C108.781 34.4417 108.842 34.2725 108.842 34.0869C108.842 33.9014 108.794 33.7451 108.696 33.6182C108.598 33.4912 108.476 33.3757 108.33 33.2715C108.186 33.1673 108.03 33.0664 107.861 32.9688C107.203 32.5846 106.875 32.1598 106.875 31.6943C106.875 31.346 107.024 31.0465 107.324 30.7959C107.623 30.542 107.931 30.415 108.247 30.415C108.562 30.415 108.795 30.4492 108.945 30.5176C109.098 30.5859 109.187 30.6445 109.214 30.6934C109.24 30.7389 109.253 30.8919 109.253 31.1523V31.6016ZM111.421 31.1865C111.401 31.1865 111.391 31.2012 111.391 31.2305V33.9258C111.391 34.1211 111.434 34.2741 111.518 34.3848C111.606 34.4954 111.717 34.5508 111.85 34.5508C111.984 34.5508 112.099 34.5296 112.197 34.4873C112.298 34.4417 112.384 34.3929 112.456 34.3408C112.531 34.2887 112.597 34.2415 112.656 34.1992C112.714 34.1536 112.767 34.1309 112.812 34.1309C112.858 34.1309 112.88 34.1423 112.88 34.165C112.88 34.2432 112.872 34.2936 112.856 34.3164C112.465 34.821 112.088 35.0732 111.723 35.0732C111.362 35.0732 111.089 34.9593 110.903 34.7314C110.721 34.5003 110.63 34.2253 110.63 33.9062V31.1865H110.263C110.172 31.1865 110.123 31.1572 110.117 31.0986C110.114 31.04 110.123 31.0026 110.146 30.9863C110.319 30.8757 110.556 30.6771 110.859 30.3906C110.892 30.3548 110.936 30.3011 110.991 30.2295C111.046 30.1579 111.126 30.0602 111.23 29.9365C111.338 29.8128 111.419 29.751 111.474 29.751C111.53 29.751 111.557 29.7738 111.557 29.8193C111.557 29.8258 111.502 30.0391 111.391 30.459C111.391 30.5176 111.417 30.5485 111.469 30.5518H112.714C112.858 30.5518 112.929 30.7536 112.929 31.1572C112.929 31.1768 112.916 31.1865 112.89 31.1865H111.421ZM117.885 34.7559C118.038 34.7754 118.115 34.8145 118.115 34.873C118.115 34.9121 118.099 34.9349 118.066 34.9414H115.888C115.856 34.9349 115.839 34.9121 115.839 34.873C115.839 34.8145 115.916 34.7754 116.069 34.7559C116.421 34.7038 116.596 34.5182 116.596 34.1992V28.1104C116.596 27.9736 116.521 27.8792 116.372 27.8271C116.307 27.8044 116.237 27.7865 116.162 27.7734C116.087 27.7572 116.027 27.7425 115.981 27.7295C115.939 27.7165 115.911 27.7051 115.898 27.6953C115.888 27.6823 115.883 27.6579 115.883 27.6221C115.883 27.583 115.908 27.5505 115.957 27.5244L117.202 26.9385C117.241 26.9189 117.265 26.9092 117.275 26.9092C117.33 26.9092 117.358 26.9482 117.358 27.0264V34.1992C117.358 34.5182 117.534 34.7038 117.885 34.7559ZM119.419 32.3682C119.363 32.3682 119.336 32.487 119.336 32.7246C119.336 33.2292 119.485 33.6523 119.785 33.9941C120.084 34.3359 120.455 34.5068 120.898 34.5068C121.344 34.5068 121.772 34.3148 122.182 33.9307C122.189 33.9242 122.197 33.9209 122.207 33.9209H122.231C122.251 33.9209 122.269 33.9372 122.285 33.9697C122.304 33.999 122.322 34.0186 122.339 34.0283C121.961 34.4873 121.517 34.8047 121.005 34.9805C120.83 35.0423 120.631 35.0732 120.41 35.0732C120.188 35.0732 119.964 35.013 119.736 34.8926C119.508 34.7689 119.313 34.6077 119.15 34.4092C118.805 33.9958 118.632 33.4814 118.632 32.8662C118.632 32.2477 118.82 31.6846 119.194 31.1768C119.572 30.6689 120.089 30.415 120.747 30.415C121.219 30.415 121.604 30.6266 121.904 31.0498C122.203 31.4697 122.353 31.8392 122.353 32.1582C122.353 32.2982 122.319 32.3682 122.251 32.3682H119.419ZM119.472 31.8994C119.472 31.9613 119.502 31.9922 119.56 31.9922H121.401C121.486 31.9922 121.528 31.9417 121.528 31.8408C121.528 31.6064 121.422 31.3672 121.211 31.123C121.002 30.8757 120.773 30.752 120.522 30.752C120.278 30.752 120.055 30.8626 119.853 31.084C119.655 31.3053 119.528 31.5576 119.472 31.8408V31.8994ZM54.8727 42.1152C54.9052 42.1152 54.9215 42.151 54.9215 42.2227L55.0485 43.2627C55.0615 43.3278 55.068 43.3701 55.068 43.3896C55.068 43.4059 55.042 43.4141 54.9899 43.4141C54.941 43.4141 54.9101 43.4076 54.8971 43.3945C54.8841 43.3815 54.8711 43.3604 54.858 43.3311C54.845 43.2985 54.8287 43.2627 54.8092 43.2236C54.7929 43.1846 54.775 43.1455 54.7555 43.1064C54.6871 42.9567 54.5797 42.8086 54.4332 42.6621C54.0752 42.3171 53.6715 42.1445 53.2223 42.1445C52.9521 42.1445 52.6966 42.2324 52.4557 42.4082C52.2148 42.584 52.0944 42.7923 52.0944 43.0332C52.0944 43.2708 52.1383 43.4775 52.2262 43.6533C52.3173 43.8291 52.4362 43.9919 52.5826 44.1416C52.7291 44.2913 52.8968 44.4346 53.0856 44.5713C53.2744 44.708 53.4664 44.8464 53.6617 44.9863C54.1793 45.3477 54.5472 45.6569 54.7653 45.9141C55.1071 46.3112 55.2926 46.7572 55.3219 47.252C55.3219 47.8053 55.1087 48.248 54.6823 48.5801C54.2591 48.9089 53.7659 49.0732 53.2028 49.0732C52.8414 49.0732 52.5533 49.0358 52.3385 48.9609C52.1269 48.8893 51.9804 48.8372 51.899 48.8047C51.8177 48.7721 51.7574 48.7559 51.7184 48.7559C51.6826 48.7559 51.6598 48.7575 51.65 48.7607L51.4108 48.8096C51.3684 48.8096 51.3424 48.7754 51.3326 48.707C51.2382 47.8997 51.191 47.4717 51.191 47.4229C51.191 47.3708 51.1943 47.3366 51.2008 47.3203C51.2106 47.3008 51.2334 47.291 51.2692 47.291C51.3603 47.291 51.4433 47.4212 51.5182 47.6816C51.86 48.4141 52.428 48.7803 53.2223 48.7803C53.5869 48.7803 53.8977 48.6696 54.1549 48.4482C54.4153 48.2269 54.5455 47.9388 54.5455 47.584C54.5455 47.0176 54.207 46.4902 53.5299 46.002C53.3378 45.8652 53.0612 45.6748 52.6998 45.4307C52.3385 45.1865 52.0504 44.9424 51.8356 44.6982C51.5003 44.3206 51.3326 43.9007 51.3326 43.4385C51.3326 42.973 51.5166 42.5921 51.8844 42.2959C52.2555 41.9997 52.6803 41.8516 53.1588 41.8516C53.4062 41.8516 53.678 41.8939 53.9742 41.9785C54.2737 42.0632 54.4821 42.1201 54.5992 42.1494L54.8727 42.1152ZM59.1207 48.1357C59.1207 48.2204 59.1598 48.2887 59.2379 48.3408C59.3193 48.3896 59.4121 48.4141 59.5162 48.4141C59.6204 48.4141 59.7067 48.388 59.775 48.3359C59.8466 48.2806 59.8955 48.2529 59.9215 48.2529C59.9476 48.2529 59.9606 48.2887 59.9606 48.3604C59.9606 48.4287 59.928 48.4873 59.8629 48.5361C59.3746 48.8942 59.0442 49.0732 58.8717 49.0732C58.6634 49.0732 58.4941 48.8568 58.3639 48.4238C58.3541 48.3913 58.346 48.3766 58.3395 48.3799C57.9358 48.6826 57.6819 48.8649 57.5778 48.9268C57.3108 49.0798 57.0423 49.1042 56.7721 49C56.5052 48.8958 56.3115 48.7233 56.191 48.4824C56.1324 48.3587 56.1031 48.2269 56.1031 48.0869C56.1031 47.8102 56.2057 47.5905 56.4108 47.4277C56.6158 47.265 57.0065 47.1087 57.5826 46.959C57.778 46.9069 57.9521 46.8402 58.1051 46.7588C58.2581 46.6774 58.3378 46.6253 58.3444 46.6025C58.3541 46.5798 58.359 46.5586 58.359 46.5391V45.6016C58.359 45.2337 58.2158 44.9749 57.9293 44.8252C57.8349 44.7764 57.721 44.752 57.5875 44.752C57.4573 44.752 57.3239 44.804 57.1871 44.9082C57.0537 45.0124 56.9869 45.1605 56.9869 45.3525L57.0114 45.543C56.9918 45.582 56.8746 45.6471 56.6598 45.7383C56.4449 45.8294 56.3212 45.8783 56.2887 45.8848C56.2366 45.8848 56.2106 45.8229 56.2106 45.6992C56.2106 45.5723 56.248 45.4323 56.3229 45.2793C56.3977 45.1263 56.5035 44.9863 56.6403 44.8594C56.9593 44.5632 57.3239 44.415 57.734 44.415C58.1442 44.415 58.4778 44.529 58.735 44.7568C58.9921 44.9814 59.1207 45.25 59.1207 45.5625V48.1357ZM56.8698 47.9941C56.8698 48.1504 56.93 48.2871 57.0504 48.4043C57.1709 48.5182 57.3076 48.5752 57.4606 48.5752C57.6168 48.5752 57.8056 48.5101 58.027 48.3799C58.2483 48.2464 58.359 48.1097 58.359 47.9697V46.9785C58.359 46.9427 58.3509 46.9248 58.3346 46.9248C58.3183 46.9248 58.3069 46.9264 58.3004 46.9297L57.1676 47.457C57.0504 47.5417 56.9707 47.6133 56.9283 47.6719C56.8893 47.7305 56.8698 47.8379 56.8698 47.9941ZM64.0865 44.8838C64.0865 44.8838 64.5227 44.8643 65.3951 44.8252C65.47 44.8252 65.5188 44.8333 65.5416 44.8496C65.5644 44.8659 65.5888 44.9229 65.6149 45.0205C65.6409 45.1149 65.6539 45.2044 65.6539 45.2891C65.6539 45.3737 65.6458 45.4225 65.6295 45.4355C65.6132 45.4486 65.5807 45.4551 65.5319 45.4551H64.4479C64.4674 45.4909 64.4886 45.5283 64.5114 45.5674C64.5341 45.6064 64.5634 45.6715 64.5992 45.7627C64.6351 45.8538 64.653 45.9954 64.653 46.1875C64.653 46.3763 64.6058 46.5749 64.5114 46.7832C64.4202 46.9883 64.2851 47.1706 64.1061 47.3301C63.7089 47.6882 63.1946 47.8672 62.5631 47.8672C62.3971 47.8672 62.2148 47.8363 62.0162 47.7744C61.9674 47.8265 61.9023 47.8753 61.8209 47.9209C61.7395 47.9632 61.6598 48.0072 61.5817 48.0527C61.3864 48.1634 61.2887 48.2741 61.2887 48.3848C61.2887 48.6615 61.7477 48.8031 62.6656 48.8096C63.5836 48.8161 64.1858 48.847 64.4723 48.9023C64.762 48.9544 64.9866 49.0602 65.1461 49.2197C65.3968 49.4704 65.5221 49.7568 65.5221 50.0791C65.5221 50.3558 65.4033 50.6406 65.1656 50.9336C64.7522 51.4512 64.1207 51.7962 63.2711 51.9688C62.9684 52.0306 62.6477 52.0615 62.3092 52.0615C61.694 52.0615 61.2268 51.9492 60.9078 51.7246C60.5888 51.5033 60.4293 51.2347 60.4293 50.9189C60.4293 50.7464 60.47 50.6032 60.5514 50.4893C60.6328 50.3786 60.7353 50.2728 60.859 50.1719C60.986 50.0742 61.1243 49.9701 61.274 49.8594C61.4238 49.752 61.567 49.6136 61.7037 49.4443C61.3912 49.4183 61.1227 49.319 60.8981 49.1465C60.6767 48.974 60.566 48.8047 60.566 48.6387C60.566 48.4727 60.61 48.3506 60.6979 48.2725C60.7858 48.1911 60.8932 48.1227 61.0201 48.0674C61.1471 48.0088 61.2806 47.9551 61.4205 47.9062C61.5605 47.8574 61.6826 47.7939 61.7867 47.7158C61.4222 47.5726 61.1406 47.3757 60.942 47.125C60.7434 46.8711 60.6442 46.5944 60.6442 46.2949C60.6442 45.7383 60.846 45.2842 61.2496 44.9326C61.6565 44.5811 62.1464 44.4053 62.7194 44.4053C63.2923 44.4053 63.748 44.5648 64.0865 44.8838ZM61.4303 49.9766C61.3554 50.0514 61.2936 50.1312 61.2448 50.2158C61.1959 50.3005 61.1715 50.4062 61.1715 50.5332C61.1715 50.6634 61.2171 50.7985 61.3082 50.9385C61.4026 51.0817 61.5296 51.2103 61.6891 51.3242C62.0406 51.5846 62.4638 51.7148 62.9586 51.7148C63.4534 51.7148 63.901 51.57 64.3014 51.2803C64.705 50.9938 64.9069 50.6781 64.9069 50.333C64.9069 49.9912 64.7408 49.7617 64.4088 49.6445C64.2526 49.5924 63.8505 49.5599 63.2028 49.5469C62.555 49.5339 62.1351 49.516 61.943 49.4932C61.8584 49.5908 61.7705 49.6771 61.6793 49.752C61.5914 49.8268 61.5084 49.9017 61.4303 49.9766ZM63.8522 46.1826C63.8522 45.7236 63.7366 45.3509 63.5055 45.0645C63.2776 44.7747 62.9749 44.6299 62.5973 44.6299C62.109 44.6299 61.764 44.8594 61.5621 45.3184C61.484 45.4941 61.4449 45.696 61.4449 45.9238C61.4449 46.3893 61.541 46.7767 61.733 47.0859C61.9674 47.457 62.275 47.6426 62.6559 47.6426C63.0367 47.6426 63.3313 47.514 63.5397 47.2568C63.748 46.9997 63.8522 46.6416 63.8522 46.1826ZM66.0348 48.9414C66.0022 48.9349 65.986 48.9121 65.986 48.873C65.986 48.8145 66.0625 48.7754 66.2155 48.7559C66.567 48.7038 66.7428 48.5182 66.7428 48.1992V45.6162C66.7428 45.4795 66.6679 45.3851 66.5182 45.333C66.4531 45.3102 66.3831 45.2923 66.3082 45.2793C66.2334 45.263 66.1731 45.2484 66.1276 45.2354C66.0852 45.2223 66.0576 45.2109 66.0446 45.2012C66.0348 45.1882 66.0299 45.1637 66.0299 45.1279C66.0299 45.0889 66.0543 45.0563 66.1031 45.0303L67.3483 44.4443C67.3873 44.4248 67.4117 44.415 67.4215 44.415C67.4768 44.415 67.5045 44.4541 67.5045 44.5322V48.1992C67.5045 48.5182 67.6803 48.7038 68.0319 48.7559C68.1849 48.7754 68.2614 48.8096 68.2614 48.8584C68.2614 48.9072 68.2451 48.9349 68.2125 48.9414H66.0348ZM67.0504 43.043C66.917 43.043 66.7981 43.0007 66.694 42.916C66.5931 42.8314 66.5426 42.7142 66.5426 42.5645C66.5426 42.4115 66.5914 42.291 66.6891 42.2031C66.7867 42.1152 66.9023 42.0713 67.0358 42.0713C67.1725 42.0713 67.2864 42.1234 67.3776 42.2275C67.472 42.3317 67.5192 42.444 67.5192 42.5645C67.5192 42.6849 67.4752 42.7956 67.3873 42.8965C67.2994 42.9941 67.1871 43.043 67.0504 43.043ZM70.0338 45.1865C70.0143 45.1865 70.0045 45.2012 70.0045 45.2305V47.9258C70.0045 48.1211 70.0468 48.2741 70.1315 48.3848C70.2194 48.4954 70.33 48.5508 70.4635 48.5508C70.597 48.5508 70.7125 48.5296 70.8102 48.4873C70.9111 48.4417 70.9974 48.3929 71.069 48.3408C71.1438 48.2887 71.2106 48.2415 71.2692 48.1992C71.3278 48.1536 71.3798 48.1309 71.4254 48.1309C71.471 48.1309 71.4938 48.1423 71.4938 48.165C71.4938 48.2432 71.4856 48.2936 71.4694 48.3164C71.0787 48.821 70.7011 49.0732 70.3365 49.0732C69.9752 49.0732 69.7018 48.9593 69.5162 48.7314C69.3339 48.5003 69.2428 48.2253 69.2428 47.9062V45.1865H68.8766C68.7854 45.1865 68.7366 45.1572 68.7301 45.0986C68.7268 45.04 68.7366 45.0026 68.7594 44.9863C68.9319 44.8757 69.1696 44.6771 69.4723 44.3906C69.5048 44.3548 69.5488 44.3011 69.6041 44.2295C69.6595 44.1579 69.7392 44.0602 69.8434 43.9365C69.9508 43.8128 70.0322 43.751 70.0875 43.751C70.1429 43.751 70.1705 43.7738 70.1705 43.8193C70.1705 43.8258 70.1152 44.0391 70.0045 44.459C70.0045 44.5176 70.0306 44.5485 70.0826 44.5518H71.3278C71.471 44.5518 71.5426 44.7536 71.5426 45.1572C71.5426 45.1768 71.5296 45.1865 71.5035 45.1865H70.0338ZM73.1979 45.1865C73.1783 45.1865 73.1686 45.2012 73.1686 45.2305V47.9258C73.1686 48.1211 73.2109 48.2741 73.2955 48.3848C73.3834 48.4954 73.4941 48.5508 73.6276 48.5508C73.761 48.5508 73.8766 48.5296 73.9742 48.4873C74.0752 48.4417 74.1614 48.3929 74.233 48.3408C74.3079 48.2887 74.3746 48.2415 74.4332 48.1992C74.4918 48.1536 74.5439 48.1309 74.5895 48.1309C74.6351 48.1309 74.6578 48.1423 74.6578 48.165C74.6578 48.2432 74.6497 48.2936 74.6334 48.3164C74.2428 48.821 73.8652 49.0732 73.5006 49.0732C73.1393 49.0732 72.8658 48.9593 72.6803 48.7314C72.498 48.5003 72.4069 48.2253 72.4069 47.9062V45.1865H72.0406C71.9495 45.1865 71.9007 45.1572 71.8942 45.0986C71.8909 45.04 71.9007 45.0026 71.9235 44.9863C72.096 44.8757 72.3336 44.6771 72.6364 44.3906C72.6689 44.3548 72.7128 44.3011 72.7682 44.2295C72.8235 44.1579 72.9033 44.0602 73.0074 43.9365C73.1149 43.8128 73.1962 43.751 73.2516 43.751C73.3069 43.751 73.3346 43.7738 73.3346 43.8193C73.3346 43.8258 73.2793 44.0391 73.1686 44.459C73.1686 44.5176 73.1946 44.5485 73.2467 44.5518H74.4918C74.6351 44.5518 74.7067 44.7536 74.7067 45.1572C74.7067 45.1768 74.6936 45.1865 74.6676 45.1865H73.1979ZM78.193 48.1357C78.193 48.2204 78.2321 48.2887 78.3102 48.3408C78.3916 48.3896 78.4843 48.4141 78.5885 48.4141C78.6927 48.4141 78.7789 48.388 78.8473 48.3359C78.9189 48.2806 78.9677 48.2529 78.9938 48.2529C79.0198 48.2529 79.0328 48.2887 79.0328 48.3604C79.0328 48.4287 79.0003 48.4873 78.9352 48.5361C78.4469 48.8942 78.1165 49.0732 77.944 49.0732C77.7356 49.0732 77.5664 48.8568 77.4362 48.4238C77.4264 48.3913 77.4183 48.3766 77.4117 48.3799C77.0081 48.6826 76.7542 48.8649 76.65 48.9268C76.3831 49.0798 76.1145 49.1042 75.8444 49C75.5774 48.8958 75.3837 48.7233 75.2633 48.4824C75.2047 48.3587 75.1754 48.2269 75.1754 48.0869C75.1754 47.8102 75.278 47.5905 75.483 47.4277C75.6881 47.265 76.0787 47.1087 76.6549 46.959C76.8502 46.9069 77.0244 46.8402 77.1774 46.7588C77.3304 46.6774 77.4101 46.6253 77.4166 46.6025C77.4264 46.5798 77.4313 46.5586 77.4313 46.5391V45.6016C77.4313 45.2337 77.288 44.9749 77.0016 44.8252C76.9072 44.7764 76.7933 44.752 76.6598 44.752C76.5296 44.752 76.3961 44.804 76.2594 44.9082C76.1259 45.0124 76.0592 45.1605 76.0592 45.3525L76.0836 45.543C76.0641 45.582 75.9469 45.6471 75.7321 45.7383C75.5172 45.8294 75.3935 45.8783 75.361 45.8848C75.3089 45.8848 75.2828 45.8229 75.2828 45.6992C75.2828 45.5723 75.3203 45.4323 75.3951 45.2793C75.47 45.1263 75.5758 44.9863 75.7125 44.8594C76.0315 44.5632 76.3961 44.415 76.8063 44.415C77.2164 44.415 77.5501 44.529 77.8073 44.7568C78.0644 44.9814 78.193 45.25 78.193 45.5625V48.1357ZM75.942 47.9941C75.942 48.1504 76.0022 48.2871 76.1227 48.4043C76.2431 48.5182 76.3798 48.5752 76.5328 48.5752C76.6891 48.5752 76.8779 48.5101 77.0992 48.3799C77.3206 48.2464 77.4313 48.1097 77.4313 47.9697V46.9785C77.4313 46.9427 77.4231 46.9248 77.4069 46.9248C77.3906 46.9248 77.3792 46.9264 77.3727 46.9297L76.2399 47.457C76.1227 47.5417 76.0429 47.6133 76.0006 47.6719C75.9615 47.7305 75.942 47.8379 75.942 47.9941ZM79.5016 48.9414C79.469 48.9349 79.4528 48.9121 79.4528 48.873C79.4528 48.8145 79.5293 48.7754 79.6823 48.7559C80.0338 48.7038 80.2096 48.5182 80.2096 48.1992V45.6162C80.2096 45.4795 80.1347 45.3851 79.985 45.333C79.9199 45.3102 79.8499 45.2923 79.775 45.2793C79.7002 45.263 79.6399 45.2484 79.5944 45.2354C79.552 45.2223 79.5244 45.2109 79.5114 45.2012C79.5016 45.1882 79.4967 45.1637 79.4967 45.1279C79.4967 45.0889 79.5211 45.0563 79.5699 45.0303L80.8151 44.4443C80.8541 44.4248 80.8785 44.415 80.8883 44.415C80.9436 44.415 80.9713 44.4541 80.9713 44.5322V48.1992C80.9713 48.5182 81.1471 48.7038 81.4987 48.7559C81.6517 48.7754 81.7281 48.8096 81.7281 48.8584C81.7281 48.9072 81.7119 48.9349 81.6793 48.9414H79.5016ZM80.5172 43.043C80.3837 43.043 80.2649 43.0007 80.1608 42.916C80.0599 42.8314 80.0094 42.7142 80.0094 42.5645C80.0094 42.4115 80.0582 42.291 80.1559 42.2031C80.2535 42.1152 80.3691 42.0713 80.5026 42.0713C80.6393 42.0713 80.7532 42.1234 80.8444 42.2275C80.9388 42.3317 80.986 42.444 80.986 42.5645C80.986 42.6849 80.942 42.7956 80.8541 42.8965C80.7662 42.9941 80.6539 43.043 80.5172 43.043ZM85.2828 45.4404C85.2438 45.4339 85.1868 45.4128 85.1119 45.377C84.8418 45.2533 84.6302 45.1914 84.4772 45.1914C84.3242 45.1914 84.163 45.2874 83.9938 45.4795C83.8278 45.6683 83.7448 45.8392 83.7448 45.9922V48.1992C83.7448 48.4434 83.8864 48.6061 84.1696 48.6875C84.2933 48.7201 84.4088 48.7445 84.5162 48.7607C84.6237 48.7738 84.692 48.7868 84.7213 48.7998C84.7539 48.8128 84.7701 48.8389 84.7701 48.8779C84.7701 48.9137 84.7539 48.9349 84.7213 48.9414H82.275C82.2425 48.9349 82.2262 48.9121 82.2262 48.873C82.2262 48.8145 82.3027 48.7754 82.4557 48.7559C82.8073 48.7038 82.983 48.5182 82.983 48.1992V45.6162C82.983 45.4795 82.9082 45.3851 82.7584 45.333C82.6933 45.3102 82.6233 45.2923 82.5485 45.2793C82.4736 45.263 82.4134 45.2484 82.3678 45.2354C82.3255 45.2223 82.2978 45.2109 82.2848 45.2012C82.275 45.1882 82.2701 45.1637 82.2701 45.1279C82.2701 45.0889 82.2946 45.0563 82.3434 45.0303L83.5885 44.4443C83.6276 44.4248 83.652 44.415 83.6617 44.415C83.7171 44.415 83.7448 44.4541 83.7448 44.5322V45.3232C83.7448 45.3623 83.7545 45.3818 83.774 45.3818C83.8001 45.3818 83.8668 45.3053 83.9742 45.1523C84.2835 44.7194 84.539 44.5029 84.7408 44.5029C84.8548 44.5029 85.0289 44.5485 85.2633 44.6396C85.5009 44.7308 85.6198 44.8073 85.6198 44.8691C85.6198 44.944 85.5823 45.0579 85.5074 45.2109C85.4326 45.3639 85.3577 45.4404 85.2828 45.4404ZM86.7526 46.3682C86.6972 46.3682 86.6696 46.487 86.6696 46.7246C86.6696 47.2292 86.8193 47.6523 87.1188 47.9941C87.4183 48.3359 87.7893 48.5068 88.2321 48.5068C88.678 48.5068 89.1061 48.3148 89.5162 47.9307C89.5227 47.9242 89.5309 47.9209 89.5406 47.9209H89.5651C89.5846 47.9209 89.6025 47.9372 89.6188 47.9697C89.6383 47.999 89.6562 48.0186 89.6725 48.0283C89.2949 48.4873 88.8505 48.8047 88.3395 48.9805C88.1637 49.0423 87.9651 49.0732 87.7438 49.0732C87.5224 49.0732 87.2978 49.013 87.0699 48.8926C86.8421 48.7689 86.6468 48.6077 86.484 48.4092C86.139 47.9958 85.9664 47.4814 85.9664 46.8662C85.9664 46.2477 86.1536 45.6846 86.528 45.1768C86.9056 44.6689 87.4231 44.415 88.0807 44.415C88.5527 44.415 88.9384 44.6266 89.2379 45.0498C89.5374 45.4697 89.6871 45.8392 89.6871 46.1582C89.6871 46.2982 89.653 46.3682 89.5846 46.3682H86.7526ZM86.8063 45.8994C86.8063 45.9613 86.8356 45.9922 86.8942 45.9922H88.735C88.8196 45.9922 88.8619 45.9417 88.8619 45.8408C88.8619 45.6064 88.7561 45.3672 88.5446 45.123C88.3362 44.8757 88.1067 44.752 87.8561 44.752C87.6119 44.752 87.389 44.8626 87.1871 45.084C86.9886 45.3053 86.8616 45.5576 86.8063 45.8408V45.8994ZM94.2672 47.1299C94.2672 47.1722 94.233 47.1934 94.1647 47.1934C94.0963 47.1934 93.9921 47.0387 93.8522 46.7295C93.7155 46.4202 93.6455 46.1924 93.6422 46.0459C93.639 45.8994 93.6552 45.7773 93.691 45.6797C93.7301 45.5788 93.7822 45.4941 93.8473 45.4258C93.9124 45.3542 93.9889 45.2939 94.0768 45.2451C94.1647 45.1963 94.2574 45.1523 94.3551 45.1133C94.4528 45.0742 94.5537 45.0384 94.6578 45.0059C94.7653 44.9701 94.8694 44.931 94.9703 44.8887C95.1917 44.7975 95.387 44.6478 95.5563 44.4395C95.7255 44.2279 95.8102 44.013 95.8102 43.7949C95.8102 43.3978 95.6604 43.1374 95.361 43.0137C95.0615 42.8867 94.5472 42.8232 93.818 42.8232C93.5901 42.8102 93.4306 42.7435 93.3395 42.623C93.3069 42.5775 93.2906 42.5205 93.2906 42.4521C93.2906 42.1722 93.5657 42.0322 94.1158 42.0322C94.6692 42.0322 95.1282 42.2113 95.4928 42.5693C95.8574 42.9274 96.0397 43.3864 96.0397 43.9463C96.0397 44.5029 95.8053 44.9782 95.3365 45.3721C95.1152 45.5576 94.9101 45.6813 94.7213 45.7432C94.5325 45.8018 94.3925 45.8555 94.3014 45.9043C94.0865 46.015 93.9791 46.168 93.9791 46.3633C93.9791 46.4642 94.0198 46.5944 94.1012 46.7539C94.1858 46.9134 94.2412 47.0387 94.2672 47.1299ZM93.5983 48.502C93.5983 48.349 93.6536 48.2171 93.7643 48.1064C93.875 47.9958 94.0068 47.9404 94.1598 47.9404C94.3095 47.9404 94.4397 47.9958 94.5504 48.1064C94.6611 48.2171 94.7164 48.349 94.7164 48.502C94.7164 48.6549 94.6611 48.7884 94.5504 48.9023C94.443 49.0163 94.3128 49.0732 94.1598 49.0732C94.0035 49.0732 93.8701 49.0163 93.7594 48.9023C93.652 48.7884 93.5983 48.6549 93.5983 48.502ZM22.3385 62.9414C22.3125 62.9414 22.2994 62.9284 22.2994 62.9023V62.7852C22.2994 62.7591 22.3157 62.7461 22.3483 62.7461H22.4606C22.6396 62.7461 22.7617 62.7298 22.8268 62.6973C23.0677 62.5801 23.1881 62.2578 23.1881 61.7305V56.6572C23.1881 56.4391 22.9765 56.3089 22.5533 56.2666C22.4589 56.2568 22.3922 56.252 22.3531 56.252C22.3173 56.252 22.2994 56.2389 22.2994 56.2129V56.0957C22.2994 56.0697 22.3125 56.0566 22.3385 56.0566H24.1256L28.7594 61.1787C28.7757 61.195 28.7871 61.208 28.7936 61.2178C28.8001 61.2243 28.8099 61.2275 28.8229 61.2275C28.8392 61.2275 28.8473 61.2129 28.8473 61.1836V57.8193C28.8473 57.1715 28.7936 56.7484 28.6862 56.5498C28.5787 56.3512 28.3623 56.252 28.0367 56.252H27.7877C27.7617 56.252 27.7487 56.2389 27.7487 56.2129V56.0957C27.7487 56.0697 27.7617 56.0566 27.7877 56.0566H30.3268C30.3528 56.0566 30.3658 56.0697 30.3658 56.0957V56.2129C30.3658 56.2389 30.317 56.252 30.2194 56.252C30.125 56.252 29.9671 56.3073 29.7457 56.418C29.5276 56.5286 29.4186 56.6654 29.4186 56.8281V62.7998C29.4186 62.8714 29.4088 62.9219 29.3893 62.9512C29.3698 62.9837 29.3226 63 29.2477 63C29.1761 63 29.1224 62.9854 29.0865 62.9561C29.0507 62.9268 29.0084 62.8844 28.9596 62.8291L23.9254 57.248C23.8929 57.2155 23.8636 57.1992 23.8375 57.1992C23.8212 57.1992 23.8131 57.2155 23.8131 57.248V62.1211C23.8131 62.4173 24.0475 62.6126 24.5162 62.707C24.6464 62.7331 24.7457 62.7461 24.8141 62.7461C24.8824 62.7461 24.9166 62.7591 24.9166 62.7852V62.9023C24.9166 62.9284 24.9036 62.9414 24.8776 62.9414H22.3385ZM31.6696 60.3682C31.6142 60.3682 31.5865 60.487 31.5865 60.7246C31.5865 61.2292 31.7363 61.6523 32.0358 61.9941C32.3352 62.3359 32.7063 62.5068 33.149 62.5068C33.595 62.5068 34.0231 62.3148 34.4332 61.9307C34.4397 61.9242 34.4479 61.9209 34.4576 61.9209H34.4821C34.5016 61.9209 34.5195 61.9372 34.5358 61.9697C34.5553 61.999 34.5732 62.0186 34.5895 62.0283C34.2119 62.4873 33.7675 62.8047 33.2565 62.9805C33.0807 63.0423 32.8821 63.0732 32.6608 63.0732C32.4394 63.0732 32.2148 63.013 31.9869 62.8926C31.7591 62.7689 31.5638 62.6077 31.401 62.4092C31.0559 61.9958 30.8834 61.4814 30.8834 60.8662C30.8834 60.2477 31.0706 59.6846 31.4449 59.1768C31.8226 58.6689 32.3401 58.415 32.9977 58.415C33.4697 58.415 33.8554 58.6266 34.1549 59.0498C34.4544 59.4697 34.6041 59.8392 34.6041 60.1582C34.6041 60.2982 34.5699 60.3682 34.5016 60.3682H31.6696ZM31.7233 59.8994C31.7233 59.9613 31.7526 59.9922 31.8112 59.9922H33.652C33.7366 59.9922 33.7789 59.9417 33.7789 59.8408C33.7789 59.6064 33.6731 59.3672 33.4615 59.123C33.2532 58.8757 33.0237 58.752 32.7731 58.752C32.5289 58.752 32.3059 58.8626 32.1041 59.084C31.9056 59.3053 31.7786 59.5576 31.7233 59.8408V59.8994ZM41.0787 59.4404C41.0397 59.4339 40.9827 59.4128 40.9078 59.377C40.6377 59.2533 40.4261 59.1914 40.2731 59.1914C40.1201 59.1914 39.9589 59.2874 39.7897 59.4795C39.6237 59.6683 39.5406 59.8392 39.5406 59.9922V62.1992C39.5406 62.4434 39.6823 62.6061 39.9655 62.6875C40.0892 62.7201 40.2047 62.7445 40.3121 62.7607C40.4196 62.7738 40.4879 62.7868 40.5172 62.7998C40.5498 62.8128 40.566 62.8389 40.566 62.8779C40.566 62.9137 40.5498 62.9349 40.5172 62.9414H38.0709C38.0384 62.9349 38.0221 62.9121 38.0221 62.873C38.0221 62.8145 38.0986 62.7754 38.2516 62.7559C38.6031 62.7038 38.7789 62.5182 38.7789 62.1992V59.6162C38.7789 59.4795 38.7041 59.3851 38.5543 59.333C38.4892 59.3102 38.4192 59.2923 38.3444 59.2793C38.2695 59.263 38.2093 59.2484 38.1637 59.2354C38.1214 59.2223 38.0937 59.2109 38.0807 59.2012C38.0709 59.1882 38.066 59.1637 38.066 59.1279C38.066 59.0889 38.0905 59.0563 38.1393 59.0303L39.3844 58.4443C39.4235 58.4248 39.4479 58.415 39.4576 58.415C39.513 58.415 39.5406 58.4541 39.5406 58.5322V59.3232C39.5406 59.3623 39.5504 59.3818 39.5699 59.3818C39.596 59.3818 39.6627 59.3053 39.7701 59.1523C40.0794 58.7194 40.3349 58.5029 40.5367 58.5029C40.6507 58.5029 40.8248 58.5485 41.0592 58.6396C41.2968 58.7308 41.4156 58.8073 41.4156 58.8691C41.4156 58.944 41.3782 59.0579 41.3033 59.2109C41.2285 59.3639 41.1536 59.4404 41.0787 59.4404ZM42.5485 60.3682C42.4931 60.3682 42.4655 60.487 42.4655 60.7246C42.4655 61.2292 42.6152 61.6523 42.9147 61.9941C43.2142 62.3359 43.5852 62.5068 44.028 62.5068C44.4739 62.5068 44.902 62.3148 45.3121 61.9307C45.3186 61.9242 45.3268 61.9209 45.3365 61.9209H45.361C45.3805 61.9209 45.3984 61.9372 45.4147 61.9697C45.4342 61.999 45.4521 62.0186 45.4684 62.0283C45.0908 62.4873 44.6464 62.8047 44.1354 62.9805C43.9596 63.0423 43.761 63.0732 43.5397 63.0732C43.3183 63.0732 43.0937 63.013 42.8658 62.8926C42.638 62.7689 42.4427 62.6077 42.2799 62.4092C41.9349 61.9958 41.7623 61.4814 41.7623 60.8662C41.7623 60.2477 41.9495 59.6846 42.3239 59.1768C42.7015 58.6689 43.219 58.415 43.8766 58.415C44.3486 58.415 44.7343 58.6266 45.0338 59.0498C45.3333 59.4697 45.483 59.8392 45.483 60.1582C45.483 60.2982 45.4489 60.3682 45.3805 60.3682H42.5485ZM42.6022 59.8994C42.6022 59.9613 42.6315 59.9922 42.6901 59.9922H44.5309C44.6155 59.9922 44.6578 59.9417 44.6578 59.8408C44.6578 59.6064 44.552 59.3672 44.3405 59.123C44.1321 58.8757 43.9026 58.752 43.652 58.752C43.4078 58.752 43.1849 58.8626 42.983 59.084C42.7845 59.3053 42.6575 59.5576 42.6022 59.8408V59.8994ZM47.4899 59.1865C47.4703 59.1865 47.4606 59.2012 47.4606 59.2305V61.9258C47.4606 62.1211 47.5029 62.2741 47.5875 62.3848C47.6754 62.4954 47.7861 62.5508 47.9196 62.5508C48.053 62.5508 48.1686 62.5296 48.2662 62.4873C48.3671 62.4417 48.4534 62.3929 48.525 62.3408C48.5999 62.2887 48.6666 62.2415 48.7252 62.1992C48.7838 62.1536 48.8359 62.1309 48.8815 62.1309C48.927 62.1309 48.9498 62.1423 48.9498 62.165C48.9498 62.2432 48.9417 62.2936 48.9254 62.3164C48.5348 62.821 48.1572 63.0732 47.7926 63.0732C47.4313 63.0732 47.1578 62.9593 46.9723 62.7314C46.79 62.5003 46.6989 62.2253 46.6989 61.9062V59.1865H46.3326C46.2415 59.1865 46.1927 59.1572 46.1862 59.0986C46.1829 59.04 46.1927 59.0026 46.2155 58.9863C46.388 58.8757 46.6256 58.6771 46.9283 58.3906C46.9609 58.3548 47.0048 58.3011 47.0602 58.2295C47.1155 58.1579 47.1953 58.0602 47.2994 57.9365C47.4069 57.8128 47.4882 57.751 47.5436 57.751C47.5989 57.751 47.6266 57.7738 47.6266 57.8193C47.6266 57.8258 47.5712 58.0391 47.4606 58.459C47.4606 58.5176 47.4866 58.5485 47.5387 58.5518H48.7838C48.927 58.5518 48.9987 58.7536 48.9987 59.1572C48.9987 59.1768 48.9856 59.1865 48.9596 59.1865H47.4899ZM52.4362 59.4404C52.3971 59.4339 52.3401 59.4128 52.2653 59.377C51.9951 59.2533 51.7835 59.1914 51.6305 59.1914C51.4775 59.1914 51.3164 59.2874 51.1471 59.4795C50.9811 59.6683 50.8981 59.8392 50.8981 59.9922V62.1992C50.8981 62.4434 51.0397 62.6061 51.3229 62.6875C51.4466 62.7201 51.5621 62.7445 51.6696 62.7607C51.777 62.7738 51.8453 62.7868 51.8746 62.7998C51.9072 62.8128 51.9235 62.8389 51.9235 62.8779C51.9235 62.9137 51.9072 62.9349 51.8746 62.9414H49.4283C49.3958 62.9349 49.3795 62.9121 49.3795 62.873C49.3795 62.8145 49.456 62.7754 49.609 62.7559C49.9606 62.7038 50.1364 62.5182 50.1364 62.1992V59.6162C50.1364 59.4795 50.0615 59.3851 49.9117 59.333C49.8466 59.3102 49.7767 59.2923 49.7018 59.2793C49.6269 59.263 49.5667 59.2484 49.5211 59.2354C49.4788 59.2223 49.4511 59.2109 49.4381 59.2012C49.4283 59.1882 49.4235 59.1637 49.4235 59.1279C49.4235 59.0889 49.4479 59.0563 49.4967 59.0303L50.7418 58.4443C50.7809 58.4248 50.8053 58.415 50.8151 58.415C50.8704 58.415 50.8981 58.4541 50.8981 58.5322V59.3232C50.8981 59.3623 50.9078 59.3818 50.9274 59.3818C50.9534 59.3818 51.0201 59.3053 51.1276 59.1523C51.4368 58.7194 51.6923 58.5029 51.8942 58.5029C52.0081 58.5029 52.1823 58.5485 52.4166 58.6396C52.6543 58.7308 52.7731 58.8073 52.7731 58.8691C52.7731 58.944 52.7356 59.0579 52.6608 59.2109C52.5859 59.3639 52.511 59.4404 52.4362 59.4404ZM53.1442 60.749C53.1442 60.1077 53.3704 59.5576 53.8229 59.0986C54.2786 58.6364 54.8239 58.4053 55.4586 58.4053C56.0934 58.4053 56.6451 58.6299 57.1139 59.0791C57.5826 59.5251 57.817 60.0768 57.817 60.7344C57.817 61.3919 57.594 61.9469 57.1481 62.3994C56.7054 62.8486 56.1487 63.0732 55.4781 63.0732C54.8076 63.0732 54.2509 62.8454 53.8082 62.3896C53.3655 61.9339 53.1442 61.387 53.1442 60.749ZM54.36 62.0039C54.679 62.541 55.1136 62.8096 55.6637 62.8096C56.0901 62.8096 56.4156 62.6387 56.6403 62.2969C56.8681 61.9551 56.9821 61.5352 56.9821 61.0371C56.9821 60.5391 56.8226 60.028 56.5035 59.5039C56.1878 58.9798 55.7614 58.7178 55.2242 58.7178C54.8304 58.7178 54.5195 58.8887 54.2916 59.2305C54.067 59.569 53.9547 60.0003 53.9547 60.5244C53.9547 61.0452 54.0898 61.5384 54.36 62.0039ZM61.8698 62.5117C61.8535 62.4564 61.8323 62.4385 61.8063 62.458C61.7802 62.4743 61.6744 62.5296 61.4889 62.624C60.8802 62.9268 60.3724 63.0781 59.9655 63.0781C59.5586 63.0781 59.2656 62.9479 59.0865 62.6875C59.0214 62.5898 58.9889 62.4694 58.9889 62.3262V59.3477C58.9791 59.2533 58.9368 59.1719 58.8619 59.1035C58.761 59.0189 58.6552 58.9733 58.5446 58.9668C58.4371 58.9603 58.3834 58.9277 58.3834 58.8691C58.3834 58.8073 58.4095 58.7699 58.4615 58.7568L59.5797 58.4346C59.6188 58.4215 59.6562 58.415 59.692 58.415C59.7311 58.415 59.7506 58.4427 59.7506 58.498V61.7744C59.7506 62.0023 59.8515 62.1781 60.0533 62.3018C60.2552 62.4255 60.5123 62.4873 60.8248 62.4873C61.1406 62.4873 61.4238 62.3913 61.6744 62.1992C61.7526 62.1374 61.8177 62.069 61.8698 61.9941V59.3477C61.86 59.2533 61.8177 59.1719 61.7428 59.1035C61.6419 59.0189 61.5361 58.9733 61.4254 58.9668C61.318 58.9603 61.2643 58.9277 61.2643 58.8691C61.2643 58.8073 61.2903 58.7699 61.3424 58.7568L62.4606 58.4346C62.4996 58.4215 62.5371 58.415 62.5729 58.415C62.6119 58.415 62.6315 58.4476 62.6315 58.5127V61.9795C62.6477 62.1227 62.6884 62.2253 62.7535 62.2871C62.8186 62.349 62.9244 62.3799 63.0709 62.3799L63.3541 62.3604C63.3737 62.3604 63.3834 62.3799 63.3834 62.4189C63.3834 62.4548 63.359 62.484 63.3102 62.5068L62.0114 63.0439C61.9723 63.0635 61.9381 63.0732 61.9088 63.0732C61.8828 63.0732 61.8698 63.0326 61.8698 62.9512V62.5117ZM68.6324 58.5469C68.6683 58.5566 68.6862 58.5794 68.6862 58.6152C68.6862 58.651 68.6813 58.6771 68.6715 58.6934C68.6617 58.7096 68.5901 58.7275 68.4567 58.7471C68.3232 58.7666 68.2272 58.8057 68.1686 58.8643C68.1132 58.9196 68.0628 58.9831 68.0172 59.0547C67.9749 59.1263 67.9375 59.2012 67.9049 59.2793C67.8724 59.3542 67.8414 59.4225 67.8121 59.4844L66.4791 62.9316C66.4401 63.026 66.4043 63.0732 66.3717 63.0732H65.986C65.9534 63.0732 65.9176 63.0228 65.8785 62.9219L64.5846 59.4209C64.4642 59.0921 64.2574 58.8805 63.9645 58.7861C63.9417 58.7796 63.914 58.7747 63.8815 58.7715C63.7448 58.7585 63.6764 58.7178 63.6764 58.6494C63.6764 58.5811 63.7155 58.5469 63.7936 58.5469H65.9664C65.9925 58.5469 66.0055 58.5729 66.0055 58.625C66.0055 58.6738 65.9876 58.7064 65.9518 58.7227C65.8932 58.7454 65.789 58.7552 65.6393 58.752C65.3951 58.7454 65.2731 58.8431 65.2731 59.0449L65.3024 59.1621L66.2936 61.8721C66.3587 62.0381 66.4238 62.0332 66.4889 61.8574C66.4954 61.8411 66.5377 61.7354 66.6158 61.54C67.0553 60.417 67.3011 59.7676 67.3531 59.5918C67.4085 59.416 67.4362 59.2842 67.4362 59.1963C67.4362 59.1084 67.389 59.0173 67.2946 58.9229C67.2002 58.8252 67.0732 58.7764 66.9137 58.7764C66.7542 58.7764 66.6744 58.7275 66.6744 58.6299C66.6744 58.5745 66.7102 58.5469 66.7819 58.5469H68.6324ZM69.8629 60.3682C69.8076 60.3682 69.7799 60.487 69.7799 60.7246C69.7799 61.2292 69.9296 61.6523 70.2291 61.9941C70.5286 62.3359 70.8997 62.5068 71.3424 62.5068C71.7884 62.5068 72.2164 62.3148 72.6266 61.9307C72.6331 61.9242 72.6412 61.9209 72.651 61.9209H72.6754C72.6949 61.9209 72.7128 61.9372 72.7291 61.9697C72.7487 61.999 72.7666 62.0186 72.7828 62.0283C72.4052 62.4873 71.9609 62.8047 71.4498 62.9805C71.274 63.0423 71.0755 63.0732 70.8541 63.0732C70.6328 63.0732 70.4082 63.013 70.1803 62.8926C69.9524 62.7689 69.7571 62.6077 69.5944 62.4092C69.2493 61.9958 69.0768 61.4814 69.0768 60.8662C69.0768 60.2477 69.264 59.6846 69.6383 59.1768C70.0159 58.6689 70.5335 58.415 71.191 58.415C71.663 58.415 72.0488 58.6266 72.3483 59.0498C72.6477 59.4697 72.7975 59.8392 72.7975 60.1582C72.7975 60.2982 72.7633 60.3682 72.6949 60.3682H69.8629ZM69.9166 59.8994C69.9166 59.9613 69.9459 59.9922 70.0045 59.9922H71.8453C71.93 59.9922 71.9723 59.9417 71.9723 59.8408C71.9723 59.6064 71.8665 59.3672 71.6549 59.123C71.4466 58.8757 71.2171 58.752 70.9664 58.752C70.7223 58.752 70.4993 58.8626 70.2975 59.084C70.0989 59.3053 69.972 59.5576 69.9166 59.8408V59.8994ZM75.986 59.6016C75.986 59.6732 75.9583 59.709 75.903 59.709C75.8509 59.709 75.8102 59.6699 75.7809 59.5918C75.7028 59.377 75.5856 59.1865 75.4293 59.0205C75.2763 58.8545 75.0859 58.7715 74.858 58.7715C74.5586 58.7715 74.3567 58.9212 74.2526 59.2207C74.22 59.3216 74.2037 59.4258 74.2037 59.5332C74.2037 59.6406 74.2721 59.7611 74.4088 59.8945C74.5455 60.0247 74.7701 60.181 75.0826 60.3633C75.3951 60.5456 75.623 60.7002 75.7662 60.8271C76.0918 61.1169 76.2545 61.4521 76.2545 61.833C76.2545 62.2139 76.1145 62.5166 75.8346 62.7412C75.5546 62.9626 75.2291 63.0732 74.858 63.0732C74.6595 63.0732 74.4788 63.0456 74.316 62.9902C74.1565 62.9382 74.0638 62.9121 74.0377 62.9121C74.0149 62.9121 73.9759 62.9382 73.9205 62.9902C73.8684 63.0456 73.8261 63.0732 73.7936 63.0732H73.7106C73.691 63.0732 73.6666 62.8975 73.6373 62.5459C73.608 62.1943 73.5934 61.986 73.5934 61.9209C73.5934 61.8558 73.5983 61.82 73.608 61.8135C73.6211 61.807 73.6406 61.8037 73.6666 61.8037C73.6927 61.8037 73.7138 61.8118 73.7301 61.8281C73.7496 61.8444 73.7659 61.8656 73.7789 61.8916C73.792 61.9144 73.8017 61.9388 73.8082 61.9648C73.818 61.9909 73.8392 62.0397 73.8717 62.1113C74.0931 62.5833 74.4349 62.8193 74.8971 62.8193C75.1022 62.8193 75.2666 62.7445 75.3903 62.5947C75.514 62.4417 75.5758 62.2725 75.5758 62.0869C75.5758 61.9014 75.527 61.7451 75.4293 61.6182C75.3317 61.4912 75.2096 61.3757 75.0631 61.2715C74.9199 61.1673 74.7636 61.0664 74.5944 60.9688C73.9368 60.5846 73.608 60.1598 73.608 59.6943C73.608 59.346 73.7578 59.0465 74.0573 58.7959C74.3567 58.542 74.6643 58.415 74.9801 58.415C75.2959 58.415 75.5286 58.4492 75.6783 58.5176C75.8313 58.5859 75.9209 58.6445 75.9469 58.6934C75.9729 58.7389 75.986 58.8919 75.986 59.1523V59.6016ZM80.6686 60.1191V60.7881H77.0406V60.1191H80.6686ZM82.6168 59.1865C82.5973 59.1865 82.5875 59.2012 82.5875 59.2305V61.9258C82.5875 62.1211 82.6298 62.2741 82.7145 62.3848C82.8024 62.4954 82.913 62.5508 83.0465 62.5508C83.18 62.5508 83.2955 62.5296 83.3932 62.4873C83.4941 62.4417 83.5804 62.3929 83.652 62.3408C83.7268 62.2887 83.7936 62.2415 83.8522 62.1992C83.9108 62.1536 83.9628 62.1309 84.0084 62.1309C84.054 62.1309 84.0768 62.1423 84.0768 62.165C84.0768 62.2432 84.0686 62.2936 84.0524 62.3164C83.6617 62.821 83.2841 63.0732 82.9196 63.0732C82.5582 63.0732 82.2848 62.9593 82.0992 62.7314C81.917 62.5003 81.8258 62.2253 81.8258 61.9062V59.1865H81.4596C81.3684 59.1865 81.3196 59.1572 81.3131 59.0986C81.3099 59.04 81.3196 59.0026 81.3424 58.9863C81.5149 58.8757 81.7526 58.6771 82.0553 58.3906C82.0878 58.3548 82.1318 58.3011 82.1871 58.2295C82.2425 58.1579 82.3222 58.0602 82.4264 57.9365C82.5338 57.8128 82.6152 57.751 82.6705 57.751C82.7259 57.751 82.7535 57.7738 82.7535 57.8193C82.7535 57.8258 82.6982 58.0391 82.5875 58.459C82.5875 58.5176 82.6136 58.5485 82.6656 58.5518H83.9108C84.054 58.5518 84.1256 58.7536 84.1256 59.1572C84.1256 59.1768 84.1126 59.1865 84.0865 59.1865H82.6168ZM87.9342 62.5117C87.9179 62.4564 87.8968 62.4385 87.8707 62.458C87.8447 62.4743 87.7389 62.5296 87.5533 62.624C86.9446 62.9268 86.4368 63.0781 86.0299 63.0781C85.623 63.0781 85.33 62.9479 85.151 62.6875C85.0859 62.5898 85.0533 62.4694 85.0533 62.3262V59.3477C85.0436 59.2533 85.0013 59.1719 84.9264 59.1035C84.8255 59.0189 84.7197 58.9733 84.609 58.9668C84.5016 58.9603 84.4479 58.9277 84.4479 58.8691C84.4479 58.8073 84.4739 58.7699 84.526 58.7568L85.6442 58.4346C85.6832 58.4215 85.7207 58.415 85.7565 58.415C85.7955 58.415 85.8151 58.4427 85.8151 58.498V61.7744C85.8151 62.0023 85.916 62.1781 86.1178 62.3018C86.3196 62.4255 86.5768 62.4873 86.8893 62.4873C87.205 62.4873 87.4882 62.3913 87.7389 62.1992C87.817 62.1374 87.8821 62.069 87.9342 61.9941V59.3477C87.9244 59.2533 87.8821 59.1719 87.8073 59.1035C87.7063 59.0189 87.6005 58.9733 87.4899 58.9668C87.3824 58.9603 87.3287 58.9277 87.3287 58.8691C87.3287 58.8073 87.3548 58.7699 87.4069 58.7568L88.525 58.4346C88.5641 58.4215 88.6015 58.415 88.6373 58.415C88.6764 58.415 88.6959 58.4476 88.6959 58.5127V61.9795C88.7122 62.1227 88.7529 62.2253 88.818 62.2871C88.8831 62.349 88.9889 62.3799 89.1354 62.3799L89.4186 62.3604C89.4381 62.3604 89.4479 62.3799 89.4479 62.4189C89.4479 62.4548 89.4235 62.484 89.3746 62.5068L88.0758 63.0439C88.0367 63.0635 88.0026 63.0732 87.9733 63.0732C87.9472 63.0732 87.9342 63.0326 87.9342 62.9512V62.5117ZM96.4449 62.4287C95.9957 62.8584 95.4912 63.0732 94.9313 63.0732C94.7295 63.0732 94.4544 63.0358 94.1061 62.9609C94.0507 62.9609 94.0198 62.9805 94.0133 63.0195C94.0101 63.0586 94.0068 63.0993 94.0035 63.1416V65.2266C94.0035 65.4707 94.1451 65.6335 94.4283 65.7148C94.552 65.7474 94.6676 65.7702 94.775 65.7832C94.8824 65.7995 94.9508 65.8141 94.9801 65.8271C95.0127 65.8402 95.0289 65.8646 95.0289 65.9004C95.0289 65.9395 95.0127 65.9622 94.9801 65.9688H92.5338C92.5013 65.9622 92.485 65.9395 92.485 65.9004C92.485 65.8418 92.5615 65.8027 92.7145 65.7832C93.066 65.7311 93.2418 65.5456 93.2418 65.2266V59.3721C93.2418 59.2354 93.167 59.141 93.0172 59.0889C92.9521 59.0661 92.8821 59.0482 92.8073 59.0352C92.7324 59.0189 92.6722 59.0042 92.6266 58.9912C92.5843 58.9782 92.5566 58.9668 92.5436 58.957C92.5338 58.944 92.5289 58.9196 92.5289 58.8838C92.5289 58.8447 92.5533 58.8122 92.6022 58.7861L93.8473 58.1904C93.8733 58.1774 93.8994 58.1709 93.9254 58.1709C93.9775 58.1709 94.0035 58.21 94.0035 58.2881V58.9082C94.0035 58.944 94.0214 58.9619 94.0573 58.9619C94.0963 58.9619 94.1875 58.9147 94.3307 58.8203C94.7441 58.5534 95.1738 58.4199 95.6198 58.4199C95.9323 58.4199 96.2187 58.5469 96.4791 58.8008C96.8209 59.1328 97.0488 59.5951 97.1627 60.1875C97.1953 60.3568 97.2115 60.5374 97.2115 60.7295C97.2115 60.9183 97.1806 61.1185 97.1188 61.3301C96.9951 61.75 96.7705 62.1162 96.4449 62.4287ZM95.0485 58.9277C94.6058 58.9277 94.2574 59.0547 94.0035 59.3086V62.0527C94.0035 62.2155 94.0312 62.3213 94.0865 62.3701C94.2298 62.4938 94.4495 62.5898 94.7457 62.6582C95.3317 62.7917 95.7874 62.6517 96.1129 62.2383C96.344 61.9421 96.4596 61.584 96.4596 61.1641C96.4596 60.347 96.2757 59.735 95.9078 59.3281C95.6865 59.0807 95.4 58.9473 95.0485 58.9277ZM101.108 62.1357C101.108 62.2204 101.147 62.2887 101.225 62.3408C101.307 62.3896 101.399 62.4141 101.504 62.4141C101.608 62.4141 101.694 62.388 101.762 62.3359C101.834 62.2806 101.883 62.2529 101.909 62.2529C101.935 62.2529 101.948 62.2887 101.948 62.3604C101.948 62.4287 101.915 62.4873 101.85 62.5361C101.362 62.8942 101.032 63.0732 100.859 63.0732C100.651 63.0732 100.481 62.8568 100.351 62.4238C100.341 62.3913 100.333 62.3766 100.327 62.3799C99.9231 62.6826 99.6692 62.8649 99.5651 62.9268C99.2981 63.0798 99.0296 63.1042 98.7594 63C98.4925 62.8958 98.2988 62.7233 98.1783 62.4824C98.1198 62.3587 98.0905 62.2269 98.0905 62.0869C98.0905 61.8102 98.193 61.5905 98.3981 61.4277C98.6031 61.265 98.9938 61.1087 99.5699 60.959C99.7653 60.9069 99.9394 60.8402 100.092 60.7588C100.245 60.6774 100.325 60.6253 100.332 60.6025C100.341 60.5798 100.346 60.5586 100.346 60.5391V59.6016C100.346 59.2337 100.203 58.9749 99.9166 58.8252C99.8222 58.7764 99.7083 58.752 99.5748 58.752C99.4446 58.752 99.3112 58.804 99.1744 58.9082C99.041 59.0124 98.9742 59.1605 98.9742 59.3525L98.9987 59.543C98.9791 59.582 98.8619 59.6471 98.6471 59.7383C98.4323 59.8294 98.3086 59.8783 98.276 59.8848C98.2239 59.8848 98.1979 59.8229 98.1979 59.6992C98.1979 59.5723 98.2353 59.4323 98.3102 59.2793C98.3851 59.1263 98.4908 58.9863 98.6276 58.8594C98.9466 58.5632 99.3112 58.415 99.7213 58.415C100.131 58.415 100.465 58.529 100.722 58.7568C100.979 58.9814 101.108 59.25 101.108 59.5625V62.1357ZM98.8571 61.9941C98.8571 62.1504 98.9173 62.2871 99.0377 62.4043C99.1582 62.5182 99.2949 62.5752 99.4479 62.5752C99.6041 62.5752 99.7929 62.5101 100.014 62.3799C100.236 62.2464 100.346 62.1097 100.346 61.9697V60.9785C100.346 60.9427 100.338 60.9248 100.322 60.9248C100.306 60.9248 100.294 60.9264 100.288 60.9297L99.1549 61.457C99.0377 61.5417 98.958 61.6133 98.9156 61.6719C98.8766 61.7305 98.8571 61.8379 98.8571 61.9941ZM104.785 59.6016C104.785 59.6732 104.757 59.709 104.702 59.709C104.65 59.709 104.609 59.6699 104.58 59.5918C104.502 59.377 104.384 59.1865 104.228 59.0205C104.075 58.8545 103.885 58.7715 103.657 58.7715C103.357 58.7715 103.156 58.9212 103.051 59.2207C103.019 59.3216 103.003 59.4258 103.003 59.5332C103.003 59.6406 103.071 59.7611 103.208 59.8945C103.344 60.0247 103.569 60.181 103.881 60.3633C104.194 60.5456 104.422 60.7002 104.565 60.8271C104.891 61.1169 105.053 61.4521 105.053 61.833C105.053 62.2139 104.913 62.5166 104.633 62.7412C104.353 62.9626 104.028 63.0732 103.657 63.0732C103.458 63.0732 103.278 63.0456 103.115 62.9902C102.955 62.9382 102.863 62.9121 102.837 62.9121C102.814 62.9121 102.775 62.9382 102.719 62.9902C102.667 63.0456 102.625 63.0732 102.592 63.0732H102.509C102.49 63.0732 102.465 62.8975 102.436 62.5459C102.407 62.1943 102.392 61.986 102.392 61.9209C102.392 61.8558 102.397 61.82 102.407 61.8135C102.42 61.807 102.439 61.8037 102.465 61.8037C102.491 61.8037 102.513 61.8118 102.529 61.8281C102.548 61.8444 102.565 61.8656 102.578 61.8916C102.591 61.9144 102.601 61.9388 102.607 61.9648C102.617 61.9909 102.638 62.0397 102.671 62.1113C102.892 62.5833 103.234 62.8193 103.696 62.8193C103.901 62.8193 104.065 62.7445 104.189 62.5947C104.313 62.4417 104.375 62.2725 104.375 62.0869C104.375 61.9014 104.326 61.7451 104.228 61.6182C104.13 61.4912 104.008 61.3757 103.862 61.2715C103.719 61.1673 103.562 61.0664 103.393 60.9688C102.736 60.5846 102.407 60.1598 102.407 59.6943C102.407 59.346 102.557 59.0465 102.856 58.7959C103.156 58.542 103.463 58.415 103.779 58.415C104.095 58.415 104.327 58.4492 104.477 58.5176C104.63 58.5859 104.72 58.6445 104.746 58.6934C104.772 58.7389 104.785 58.8919 104.785 59.1523V59.6016ZM112.285 59.001C112.285 59.2288 112.153 59.3428 111.889 59.3428C111.756 59.3428 111.642 59.3053 111.547 59.2305C111.456 59.1523 111.385 59.0872 111.333 59.0352C111.284 58.9798 111.232 58.9294 111.176 58.8838C110.942 58.6917 110.656 58.6706 110.317 58.8203C109.982 58.9701 109.723 59.2891 109.541 59.7773C109.44 60.0475 109.389 60.3161 109.389 60.583C109.389 61.1559 109.519 61.6247 109.78 61.9893C110.04 62.3506 110.439 62.5312 110.976 62.5312C111.377 62.5312 111.736 62.3522 112.055 61.9941C112.153 61.8867 112.212 61.833 112.231 61.833C112.251 61.833 112.272 61.8428 112.295 61.8623C112.317 61.8818 112.329 61.9111 112.329 61.9502C112.329 61.986 112.319 62.0137 112.299 62.0332C111.801 62.7266 111.175 63.0732 110.42 63.0732C109.873 63.0732 109.423 62.8698 109.072 62.4629C108.724 62.056 108.549 61.5905 108.549 61.0664C108.553 60.0964 108.787 59.3981 109.253 58.9717C109.663 58.5973 110.247 58.4102 111.005 58.4102C111.474 58.4102 111.785 58.4574 111.938 58.5518C112.091 58.6462 112.199 58.765 112.26 58.9082C112.277 58.9408 112.285 58.9717 112.285 59.001ZM113.798 60.3682C113.743 60.3682 113.715 60.487 113.715 60.7246C113.715 61.2292 113.865 61.6523 114.165 61.9941C114.464 62.3359 114.835 62.5068 115.278 62.5068C115.724 62.5068 116.152 62.3148 116.562 61.9307C116.569 61.9242 116.577 61.9209 116.587 61.9209H116.611C116.63 61.9209 116.648 61.9372 116.665 61.9697C116.684 61.999 116.702 62.0186 116.718 62.0283C116.341 62.4873 115.896 62.8047 115.385 62.9805C115.21 63.0423 115.011 63.0732 114.79 63.0732C114.568 63.0732 114.344 63.013 114.116 62.8926C113.888 62.7689 113.693 62.6077 113.53 62.4092C113.185 61.9958 113.012 61.4814 113.012 60.8662C113.012 60.2477 113.2 59.6846 113.574 59.1768C113.951 58.6689 114.469 58.415 115.127 58.415C115.599 58.415 115.984 58.6266 116.284 59.0498C116.583 59.4697 116.733 59.8392 116.733 60.1582C116.733 60.2982 116.699 60.3682 116.63 60.3682H113.798ZM113.852 59.8994C113.852 59.9613 113.881 59.9922 113.94 59.9922H115.781C115.866 59.9922 115.908 59.9417 115.908 59.8408C115.908 59.6064 115.802 59.3672 115.59 59.123C115.382 58.8757 115.153 58.752 114.902 58.752C114.658 58.752 114.435 58.8626 114.233 59.084C114.034 59.3053 113.908 59.5576 113.852 59.8408V59.8994ZM118.74 59.1865C118.72 59.1865 118.711 59.2012 118.711 59.2305V61.9258C118.711 62.1211 118.753 62.2741 118.838 62.3848C118.925 62.4954 119.036 62.5508 119.17 62.5508C119.303 62.5508 119.419 62.5296 119.516 62.4873C119.617 62.4417 119.703 62.3929 119.775 62.3408C119.85 62.2887 119.917 62.2415 119.975 62.1992C120.034 62.1536 120.086 62.1309 120.131 62.1309C120.177 62.1309 120.2 62.1423 120.2 62.165C120.2 62.2432 120.192 62.2936 120.175 62.3164C119.785 62.821 119.407 63.0732 119.043 63.0732C118.681 63.0732 118.408 62.9593 118.222 62.7314C118.04 62.5003 117.949 62.2253 117.949 61.9062V59.1865H117.583C117.491 59.1865 117.443 59.1572 117.436 59.0986C117.433 59.04 117.443 59.0026 117.465 58.9863C117.638 58.8757 117.876 58.6771 118.178 58.3906C118.211 58.3548 118.255 58.3011 118.31 58.2295C118.366 58.1579 118.445 58.0602 118.549 57.9365C118.657 57.8128 118.738 57.751 118.794 57.751C118.849 57.751 118.877 57.7738 118.877 57.8193C118.877 57.8258 118.821 58.0391 118.711 58.459C118.711 58.5176 118.737 58.5485 118.789 58.5518H120.034C120.177 58.5518 120.249 58.7536 120.249 59.1572C120.249 59.1768 120.236 59.1865 120.21 59.1865H118.74ZM121.904 59.1865C121.884 59.1865 121.875 59.2012 121.875 59.2305V61.9258C121.875 62.1211 121.917 62.2741 122.002 62.3848C122.089 62.4954 122.2 62.5508 122.334 62.5508C122.467 62.5508 122.583 62.5296 122.68 62.4873C122.781 62.4417 122.867 62.3929 122.939 62.3408C123.014 62.2887 123.081 62.2415 123.139 62.1992C123.198 62.1536 123.25 62.1309 123.296 62.1309C123.341 62.1309 123.364 62.1423 123.364 62.165C123.364 62.2432 123.356 62.2936 123.339 62.3164C122.949 62.821 122.571 63.0732 122.207 63.0732C121.845 63.0732 121.572 62.9593 121.386 62.7314C121.204 62.5003 121.113 62.2253 121.113 61.9062V59.1865H120.747C120.656 59.1865 120.607 59.1572 120.6 59.0986C120.597 59.04 120.607 59.0026 120.63 58.9863C120.802 58.8757 121.04 58.6771 121.342 58.3906C121.375 58.3548 121.419 58.3011 121.474 58.2295C121.53 58.1579 121.609 58.0602 121.714 57.9365C121.821 57.8128 121.902 57.751 121.958 57.751C122.013 57.751 122.041 57.7738 122.041 57.8193C122.041 57.8258 121.985 58.0391 121.875 58.459C121.875 58.5176 121.901 58.5485 121.953 58.5518H123.198C123.341 58.5518 123.413 58.7536 123.413 59.1572C123.413 59.1768 123.4 59.1865 123.374 59.1865H121.904ZM124.668 60.3682C124.612 60.3682 124.585 60.487 124.585 60.7246C124.585 61.2292 124.734 61.6523 125.034 61.9941C125.333 62.3359 125.704 62.5068 126.147 62.5068C126.593 62.5068 127.021 62.3148 127.431 61.9307C127.438 61.9242 127.446 61.9209 127.456 61.9209H127.48C127.5 61.9209 127.518 61.9372 127.534 61.9697C127.553 61.999 127.571 62.0186 127.588 62.0283C127.21 62.4873 126.766 62.8047 126.255 62.9805C126.079 63.0423 125.88 63.0732 125.659 63.0732C125.437 63.0732 125.213 63.013 124.985 62.8926C124.757 62.7689 124.562 62.6077 124.399 62.4092C124.054 61.9958 123.881 61.4814 123.881 60.8662C123.881 60.2477 124.069 59.6846 124.443 59.1768C124.821 58.6689 125.338 58.415 125.996 58.415C126.468 58.415 126.853 58.6266 127.153 59.0498C127.452 59.4697 127.602 59.8392 127.602 60.1582C127.602 60.2982 127.568 60.3682 127.5 60.3682H124.668ZM124.721 59.8994C124.721 59.9613 124.751 59.9922 124.809 59.9922H126.65C126.735 59.9922 126.777 59.9417 126.777 59.8408C126.777 59.6064 126.671 59.3672 126.46 59.123C126.251 58.8757 126.022 58.752 125.771 58.752C125.527 58.752 125.304 58.8626 125.102 59.084C124.904 59.3053 124.777 59.5576 124.721 59.8408V59.8994ZM42.8121 73.001C42.8121 73.2288 42.6803 73.3428 42.4166 73.3428C42.2832 73.3428 42.1692 73.3053 42.0748 73.2305C41.9837 73.1523 41.9121 73.0872 41.86 73.0352C41.8112 72.9798 41.7591 72.9294 41.7037 72.8838C41.4694 72.6917 41.1829 72.6706 40.8444 72.8203C40.5091 72.9701 40.2503 73.2891 40.068 73.7773C39.9671 74.0475 39.9166 74.3161 39.9166 74.583C39.9166 75.1559 40.0468 75.6247 40.3073 75.9893C40.5677 76.3506 40.9664 76.5312 41.5035 76.5312C41.9039 76.5312 42.2636 76.3522 42.5826 75.9941C42.6803 75.8867 42.7389 75.833 42.7584 75.833C42.778 75.833 42.7991 75.8428 42.8219 75.8623C42.8447 75.8818 42.8561 75.9111 42.8561 75.9502C42.8561 75.986 42.8463 76.0137 42.8268 76.0332C42.3287 76.7266 41.7021 77.0732 40.9469 77.0732C40.4 77.0732 39.9508 76.8698 39.5992 76.4629C39.2509 76.056 39.0768 75.5905 39.0768 75.0664C39.08 74.0964 39.3144 73.3981 39.7799 72.9717C40.1901 72.5973 40.7744 72.4102 41.5328 72.4102C42.0016 72.4102 42.3125 72.4574 42.4655 72.5518C42.6184 72.6462 42.7259 72.765 42.7877 72.9082C42.804 72.9408 42.8121 72.9717 42.8121 73.001ZM43.5641 74.749C43.5641 74.1077 43.7903 73.5576 44.2428 73.0986C44.6985 72.6364 45.2438 72.4053 45.8785 72.4053C46.5133 72.4053 47.0651 72.6299 47.5338 73.0791C48.0026 73.5251 48.2369 74.0768 48.2369 74.7344C48.2369 75.3919 48.014 75.9469 47.568 76.3994C47.1253 76.8486 46.5686 77.0732 45.8981 77.0732C45.2275 77.0732 44.6709 76.8454 44.2281 76.3896C43.7854 75.9339 43.5641 75.387 43.5641 74.749ZM44.7799 76.0039C45.0989 76.541 45.5335 76.8096 46.0836 76.8096C46.5101 76.8096 46.8356 76.6387 47.0602 76.2969C47.288 75.9551 47.402 75.5352 47.402 75.0371C47.402 74.5391 47.2425 74.028 46.9235 73.5039C46.6077 72.9798 46.1813 72.7178 45.6442 72.7178C45.2503 72.7178 44.9394 72.8887 44.7115 73.2305C44.4869 73.569 44.3746 74.0003 44.3746 74.5244C44.3746 75.0452 44.5097 75.5384 44.7799 76.0039ZM52.2897 76.5117C52.2734 76.4564 52.2522 76.4385 52.2262 76.458C52.2002 76.4743 52.0944 76.5296 51.9088 76.624C51.3001 76.9268 50.7923 77.0781 50.3854 77.0781C49.9785 77.0781 49.6855 76.9479 49.5065 76.6875C49.4414 76.5898 49.4088 76.4694 49.4088 76.3262V73.3477C49.399 73.2533 49.3567 73.1719 49.2819 73.1035C49.1809 73.0189 49.0752 72.9733 48.9645 72.9668C48.8571 72.9603 48.8033 72.9277 48.8033 72.8691C48.8033 72.8073 48.8294 72.7699 48.8815 72.7568L49.9996 72.4346C50.0387 72.4215 50.0761 72.415 50.1119 72.415C50.151 72.415 50.1705 72.4427 50.1705 72.498V75.7744C50.1705 76.0023 50.2714 76.1781 50.4733 76.3018C50.6751 76.4255 50.9323 76.4873 51.2448 76.4873C51.5605 76.4873 51.8437 76.3913 52.0944 76.1992C52.1725 76.1374 52.2376 76.069 52.2897 75.9941V73.3477C52.2799 73.2533 52.2376 73.1719 52.1627 73.1035C52.0618 73.0189 51.956 72.9733 51.8453 72.9668C51.7379 72.9603 51.6842 72.9277 51.6842 72.8691C51.6842 72.8073 51.7102 72.7699 51.7623 72.7568L52.8805 72.4346C52.9196 72.4215 52.957 72.415 52.9928 72.415C53.0319 72.415 53.0514 72.4476 53.0514 72.5127V75.9795C53.0677 76.1227 53.1084 76.2253 53.1735 76.2871C53.2386 76.349 53.3444 76.3799 53.4908 76.3799L53.774 76.3604C53.7936 76.3604 53.8033 76.3799 53.8033 76.4189C53.8033 76.4548 53.7789 76.484 53.7301 76.5068L52.4313 77.0439C52.3922 77.0635 52.358 77.0732 52.3287 77.0732C52.3027 77.0732 52.2897 77.0326 52.2897 76.9512V76.5117ZM56.2399 76.7559C56.3929 76.7754 56.4694 76.8145 56.4694 76.873C56.4694 76.9121 56.4531 76.9349 56.4205 76.9414H54.2428C54.2102 76.9349 54.194 76.9121 54.194 76.873C54.194 76.8145 54.2705 76.7754 54.4235 76.7559C54.775 76.7038 54.9508 76.5182 54.9508 76.1992V70.1104C54.9508 69.9736 54.8759 69.8792 54.7262 69.8271C54.6611 69.8044 54.5911 69.7865 54.5162 69.7734C54.4414 69.7572 54.3811 69.7425 54.3356 69.7295C54.2933 69.7165 54.2656 69.7051 54.2526 69.6953C54.2428 69.6823 54.2379 69.6579 54.2379 69.6221C54.2379 69.583 54.2623 69.5505 54.3112 69.5244L55.5563 68.9385C55.5953 68.9189 55.6198 68.9092 55.6295 68.9092C55.6849 68.9092 55.7125 68.9482 55.7125 69.0264V76.1992C55.7125 76.5182 55.8883 76.7038 56.2399 76.7559ZM57.7731 74.3682C57.7177 74.3682 57.6901 74.487 57.6901 74.7246C57.6901 75.2292 57.8398 75.6523 58.1393 75.9941C58.4388 76.3359 58.8099 76.5068 59.2526 76.5068C59.6985 76.5068 60.1266 76.3148 60.5367 75.9307C60.5433 75.9242 60.5514 75.9209 60.5612 75.9209H60.5856C60.6051 75.9209 60.623 75.9372 60.6393 75.9697C60.6588 75.999 60.6767 76.0186 60.693 76.0283C60.3154 76.4873 59.8711 76.8047 59.36 76.9805C59.1842 77.0423 58.9856 77.0732 58.7643 77.0732C58.5429 77.0732 58.3183 77.013 58.0905 76.8926C57.8626 76.7689 57.6673 76.6077 57.5045 76.4092C57.1595 75.9958 56.9869 75.4814 56.9869 74.8662C56.9869 74.2477 57.1741 73.6846 57.5485 73.1768C57.9261 72.6689 58.4436 72.415 59.1012 72.415C59.5732 72.415 59.9589 72.6266 60.2584 73.0498C60.5579 73.4697 60.7076 73.8392 60.7076 74.1582C60.7076 74.2982 60.6735 74.3682 60.6051 74.3682H57.7731ZM57.8268 73.8994C57.8268 73.9613 57.8561 73.9922 57.9147 73.9922H59.7555C59.8401 73.9922 59.8824 73.9417 59.8824 73.8408C59.8824 73.6064 59.7767 73.3672 59.5651 73.123C59.3567 72.8757 59.1272 72.752 58.8766 72.752C58.6324 72.752 58.4095 72.8626 58.2076 73.084C58.0091 73.3053 57.8821 73.5576 57.8268 73.8408V73.8994ZM64.8678 76.5117C64.8515 76.4564 64.8304 76.4385 64.8043 76.458C64.7783 76.4743 64.6725 76.5296 64.4869 76.624C63.8782 76.9268 63.3704 77.0781 62.9635 77.0781C62.5566 77.0781 62.2636 76.9479 62.0846 76.6875C62.0195 76.5898 61.9869 76.4694 61.9869 76.3262V73.3477C61.9772 73.2533 61.9349 73.1719 61.86 73.1035C61.7591 73.0189 61.6533 72.9733 61.5426 72.9668C61.4352 72.9603 61.3815 72.9277 61.3815 72.8691C61.3815 72.8073 61.4075 72.7699 61.4596 72.7568L62.5778 72.4346C62.6168 72.4215 62.6543 72.415 62.6901 72.415C62.7291 72.415 62.7487 72.4427 62.7487 72.498V75.7744C62.7487 76.0023 62.8496 76.1781 63.0514 76.3018C63.2532 76.4255 63.5104 76.4873 63.8229 76.4873C64.1386 76.4873 64.4218 76.3913 64.6725 76.1992C64.7506 76.1374 64.8157 76.069 64.8678 75.9941V73.3477C64.858 73.2533 64.8157 73.1719 64.7408 73.1035C64.6399 73.0189 64.5341 72.9733 64.4235 72.9668C64.316 72.9603 64.2623 72.9277 64.2623 72.8691C64.2623 72.8073 64.2884 72.7699 64.3405 72.7568L65.4586 72.4346C65.4977 72.4215 65.5351 72.415 65.5709 72.415C65.61 72.415 65.6295 72.4476 65.6295 72.5127V75.9795C65.6458 76.1227 65.6865 76.2253 65.7516 76.2871C65.8167 76.349 65.9225 76.3799 66.069 76.3799L66.3522 76.3604C66.3717 76.3604 66.3815 76.3799 66.3815 76.4189C66.3815 76.4548 66.3571 76.484 66.3082 76.5068L65.0094 77.0439C64.9703 77.0635 64.9362 77.0732 64.9069 77.0732C64.8808 77.0732 64.8678 77.0326 64.8678 76.9512V76.5117ZM69.985 73.4404C69.9459 73.4339 69.889 73.4128 69.8141 73.377C69.5439 73.2533 69.3323 73.1914 69.1793 73.1914C69.0263 73.1914 68.8652 73.2874 68.6959 73.4795C68.5299 73.6683 68.4469 73.8392 68.4469 73.9922V76.1992C68.4469 76.4434 68.5885 76.6061 68.8717 76.6875C68.9954 76.7201 69.111 76.7445 69.2184 76.7607C69.3258 76.7738 69.3942 76.7868 69.4235 76.7998C69.456 76.8128 69.4723 76.8389 69.4723 76.8779C69.4723 76.9137 69.456 76.9349 69.4235 76.9414H66.9772C66.9446 76.9349 66.9283 76.9121 66.9283 76.873C66.9283 76.8145 67.0048 76.7754 67.1578 76.7559C67.5094 76.7038 67.6852 76.5182 67.6852 76.1992V73.6162C67.6852 73.4795 67.6103 73.3851 67.4606 73.333C67.3955 73.3102 67.3255 73.2923 67.2506 73.2793C67.1757 73.263 67.1155 73.2484 67.0699 73.2354C67.0276 73.2223 67 73.2109 66.9869 73.2012C66.9772 73.1882 66.9723 73.1637 66.9723 73.1279C66.9723 73.0889 66.9967 73.0563 67.0455 73.0303L68.2906 72.4443C68.3297 72.4248 68.3541 72.415 68.3639 72.415C68.4192 72.415 68.4469 72.4541 68.4469 72.5322V73.3232C68.4469 73.3623 68.4567 73.3818 68.4762 73.3818C68.5022 73.3818 68.569 73.3053 68.6764 73.1523C68.9856 72.7194 69.2412 72.5029 69.443 72.5029C69.5569 72.5029 69.7311 72.5485 69.9655 72.6396C70.2031 72.7308 70.3219 72.8073 70.3219 72.8691C70.3219 72.944 70.2845 73.0579 70.2096 73.2109C70.1347 73.3639 70.0599 73.4404 69.985 73.4404ZM76.3717 76.1357C76.3717 76.2204 76.4108 76.2887 76.4889 76.3408C76.5703 76.3896 76.663 76.4141 76.7672 76.4141C76.8714 76.4141 76.9576 76.388 77.026 76.3359C77.0976 76.2806 77.1464 76.2529 77.1725 76.2529C77.1985 76.2529 77.2115 76.2887 77.2115 76.3604C77.2115 76.4287 77.179 76.4873 77.1139 76.5361C76.6256 76.8942 76.2952 77.0732 76.1227 77.0732C75.9143 77.0732 75.7451 76.8568 75.6149 76.4238C75.6051 76.3913 75.597 76.3766 75.5905 76.3799C75.1868 76.6826 74.9329 76.8649 74.8287 76.9268C74.5618 77.0798 74.2933 77.1042 74.0231 77C73.7561 76.8958 73.5625 76.7233 73.442 76.4824C73.3834 76.3587 73.3541 76.2269 73.3541 76.0869C73.3541 75.8102 73.4567 75.5905 73.6617 75.4277C73.8668 75.265 74.2574 75.1087 74.8336 74.959C75.0289 74.9069 75.2031 74.8402 75.3561 74.7588C75.5091 74.6774 75.5888 74.6253 75.5953 74.6025C75.6051 74.5798 75.61 74.5586 75.61 74.5391V73.6016C75.61 73.2337 75.4668 72.9749 75.1803 72.8252C75.0859 72.7764 74.972 72.752 74.8385 72.752C74.7083 72.752 74.5748 72.804 74.4381 72.9082C74.3046 73.0124 74.2379 73.1605 74.2379 73.3525L74.2623 73.543C74.2428 73.582 74.1256 73.6471 73.9108 73.7383C73.6959 73.8294 73.5722 73.8783 73.5397 73.8848C73.4876 73.8848 73.4615 73.8229 73.4615 73.6992C73.4615 73.5723 73.499 73.4323 73.5739 73.2793C73.6487 73.1263 73.7545 72.9863 73.8912 72.8594C74.2102 72.5632 74.5748 72.415 74.985 72.415C75.3951 72.415 75.7288 72.529 75.986 72.7568C76.2431 72.9814 76.3717 73.25 76.3717 73.5625V76.1357ZM74.1207 75.9941C74.1207 76.1504 74.1809 76.2871 74.3014 76.4043C74.4218 76.5182 74.5586 76.5752 74.7115 76.5752C74.8678 76.5752 75.0566 76.5101 75.278 76.3799C75.4993 76.2464 75.61 76.1097 75.61 75.9697V74.9785C75.61 74.9427 75.6018 74.9248 75.5856 74.9248C75.5693 74.9248 75.5579 74.9264 75.5514 74.9297L74.4186 75.457C74.3014 75.5417 74.2216 75.6133 74.1793 75.6719C74.1403 75.7305 74.1207 75.8379 74.1207 75.9941ZM77.6803 76.9414C77.6477 76.9349 77.6315 76.9121 77.6315 76.873C77.6315 76.8145 77.708 76.7754 77.861 76.7559C78.2125 76.7038 78.3883 76.5182 78.3883 76.1992V73.6162C78.3883 73.4795 78.3134 73.3851 78.1637 73.333C78.0986 73.3102 78.0286 73.2923 77.9537 73.2793C77.8789 73.263 77.8186 73.2484 77.7731 73.2354C77.7308 73.2223 77.7031 73.2109 77.6901 73.2012C77.6803 73.1882 77.6754 73.1637 77.6754 73.1279C77.6754 73.0889 77.6998 73.0563 77.7487 73.0303L78.9938 72.4443C79.0328 72.4248 79.0573 72.415 79.067 72.415C79.1224 72.415 79.15 72.4541 79.15 72.5322V76.1992C79.15 76.5182 79.3258 76.7038 79.6774 76.7559C79.8304 76.7754 79.9069 76.8096 79.9069 76.8584C79.9069 76.9072 79.8906 76.9349 79.858 76.9414H77.6803ZM78.6959 71.043C78.5625 71.043 78.4436 71.0007 78.3395 70.916C78.2386 70.8314 78.1881 70.7142 78.1881 70.5645C78.1881 70.4115 78.2369 70.291 78.3346 70.2031C78.4323 70.1152 78.5478 70.0713 78.6813 70.0713C78.818 70.0713 78.9319 70.1234 79.0231 70.2275C79.1175 70.3317 79.1647 70.444 79.1647 70.5645C79.1647 70.6849 79.1207 70.7956 79.0328 70.8965C78.9449 70.9941 78.8326 71.043 78.6959 71.043ZM82.2946 76.7559C82.4476 76.7754 82.524 76.8145 82.524 76.873C82.524 76.9121 82.5078 76.9349 82.4752 76.9414H80.2975C80.2649 76.9349 80.2487 76.9121 80.2487 76.873C80.2487 76.8145 80.3252 76.7754 80.4781 76.7559C80.8297 76.7038 81.0055 76.5182 81.0055 76.1992V70.1104C81.0055 69.9736 80.9306 69.8792 80.7809 69.8271C80.7158 69.8044 80.6458 69.7865 80.5709 69.7734C80.4961 69.7572 80.4358 69.7425 80.3903 69.7295C80.3479 69.7165 80.3203 69.7051 80.3073 69.6953C80.2975 69.6823 80.2926 69.6579 80.2926 69.6221C80.2926 69.583 80.317 69.5505 80.3658 69.5244L81.611 68.9385C81.65 68.9189 81.6744 68.9092 81.6842 68.9092C81.7395 68.9092 81.7672 68.9482 81.7672 69.0264V76.1992C81.7672 76.5182 81.943 76.7038 82.2946 76.7559ZM84.8434 76.7559C84.9964 76.7754 85.0729 76.8145 85.0729 76.873C85.0729 76.9121 85.0566 76.9349 85.024 76.9414H82.8463C82.8138 76.9349 82.7975 76.9121 82.7975 76.873C82.7975 76.8145 82.874 76.7754 83.027 76.7559C83.3785 76.7038 83.5543 76.5182 83.5543 76.1992V70.1104C83.5543 69.9736 83.4795 69.8792 83.3297 69.8271C83.2646 69.8044 83.1946 69.7865 83.1198 69.7734C83.0449 69.7572 82.9847 69.7425 82.9391 69.7295C82.8968 69.7165 82.8691 69.7051 82.8561 69.6953C82.8463 69.6823 82.8414 69.6579 82.8414 69.6221C82.8414 69.583 82.8658 69.5505 82.9147 69.5244L84.1598 68.9385C84.1989 68.9189 84.2233 68.9092 84.233 68.9092C84.2884 68.9092 84.316 68.9482 84.316 69.0264V76.1992C84.316 76.5182 84.4918 76.7038 84.8434 76.7559ZM86.3766 74.3682C86.3212 74.3682 86.2936 74.487 86.2936 74.7246C86.2936 75.2292 86.4433 75.6523 86.7428 75.9941C87.0423 76.3359 87.4134 76.5068 87.8561 76.5068C88.302 76.5068 88.7301 76.3148 89.1403 75.9307C89.1468 75.9242 89.1549 75.9209 89.1647 75.9209H89.1891C89.2086 75.9209 89.2265 75.9372 89.2428 75.9697C89.2623 75.999 89.2802 76.0186 89.2965 76.0283C88.9189 76.4873 88.4746 76.8047 87.9635 76.9805C87.7877 77.0423 87.5892 77.0732 87.3678 77.0732C87.1464 77.0732 86.9218 77.013 86.694 76.8926C86.4661 76.7689 86.2708 76.6077 86.108 76.4092C85.763 75.9958 85.5905 75.4814 85.5905 74.8662C85.5905 74.2477 85.7776 73.6846 86.152 73.1768C86.5296 72.6689 87.0472 72.415 87.7047 72.415C88.1767 72.415 88.5625 72.6266 88.8619 73.0498C89.1614 73.4697 89.3112 73.8392 89.3112 74.1582C89.3112 74.2982 89.277 74.3682 89.2086 74.3682H86.3766ZM86.4303 73.8994C86.4303 73.9613 86.4596 73.9922 86.5182 73.9922H88.359C88.4436 73.9922 88.486 73.9417 88.486 73.8408C88.486 73.6064 88.3802 73.3672 88.1686 73.123C87.9602 72.8757 87.7308 72.752 87.4801 72.752C87.236 72.752 87.013 72.8626 86.8112 73.084C86.6126 73.3053 86.4856 73.5576 86.4303 73.8408V73.8994ZM93.4713 76.5117C93.455 76.4564 93.4339 76.4385 93.4078 76.458C93.3818 76.4743 93.276 76.5296 93.0905 76.624C92.4817 76.9268 91.9739 77.0781 91.567 77.0781C91.1601 77.0781 90.8671 76.9479 90.6881 76.6875C90.623 76.5898 90.5905 76.4694 90.5905 76.3262V73.3477C90.5807 73.2533 90.5384 73.1719 90.4635 73.1035C90.3626 73.0189 90.2568 72.9733 90.1461 72.9668C90.0387 72.9603 89.985 72.9277 89.985 72.8691C89.985 72.8073 90.011 72.7699 90.0631 72.7568L91.1813 72.4346C91.2203 72.4215 91.2578 72.415 91.2936 72.415C91.3326 72.415 91.3522 72.4427 91.3522 72.498V75.7744C91.3522 76.0023 91.4531 76.1781 91.6549 76.3018C91.8567 76.4255 92.1139 76.4873 92.4264 76.4873C92.7421 76.4873 93.0253 76.3913 93.276 76.1992C93.3541 76.1374 93.4192 76.069 93.4713 75.9941V73.3477C93.4615 73.2533 93.4192 73.1719 93.3444 73.1035C93.2434 73.0189 93.1377 72.9733 93.027 72.9668C92.9196 72.9603 92.8658 72.9277 92.8658 72.8691C92.8658 72.8073 92.8919 72.7699 92.944 72.7568L94.0621 72.4346C94.1012 72.4215 94.1386 72.415 94.1744 72.415C94.2135 72.415 94.233 72.4476 94.233 72.5127V75.9795C94.2493 76.1227 94.29 76.2253 94.3551 76.2871C94.4202 76.349 94.526 76.3799 94.6725 76.3799L94.9557 76.3604C94.9752 76.3604 94.985 76.3799 94.985 76.4189C94.985 76.4548 94.9606 76.484 94.9117 76.5068L93.6129 77.0439C93.5739 77.0635 93.5397 77.0732 93.5104 77.0732C93.4843 77.0732 93.4713 77.0326 93.4713 76.9512V76.5117ZM98.5885 73.4404C98.5494 73.4339 98.4925 73.4128 98.4176 73.377C98.1474 73.2533 97.9358 73.1914 97.7828 73.1914C97.6298 73.1914 97.4687 73.2874 97.2994 73.4795C97.1334 73.6683 97.0504 73.8392 97.0504 73.9922V76.1992C97.0504 76.4434 97.192 76.6061 97.4752 76.6875C97.5989 76.7201 97.7145 76.7445 97.8219 76.7607C97.9293 76.7738 97.9977 76.7868 98.027 76.7998C98.0595 76.8128 98.0758 76.8389 98.0758 76.8779C98.0758 76.9137 98.0595 76.9349 98.027 76.9414H95.5807C95.5481 76.9349 95.5319 76.9121 95.5319 76.873C95.5319 76.8145 95.6084 76.7754 95.7614 76.7559C96.1129 76.7038 96.2887 76.5182 96.2887 76.1992V73.6162C96.2887 73.4795 96.2138 73.3851 96.0641 73.333C95.999 73.3102 95.929 73.2923 95.8541 73.2793C95.7793 73.263 95.719 73.2484 95.6735 73.2354C95.6311 73.2223 95.6035 73.2109 95.5905 73.2012C95.5807 73.1882 95.5758 73.1637 95.5758 73.1279C95.5758 73.0889 95.6002 73.0563 95.649 73.0303L96.8942 72.4443C96.9332 72.4248 96.9576 72.415 96.9674 72.415C97.0227 72.415 97.0504 72.4541 97.0504 72.5322V73.3232C97.0504 73.3623 97.0602 73.3818 97.0797 73.3818C97.1058 73.3818 97.1725 73.3053 97.2799 73.1523C97.5892 72.7194 97.8447 72.5029 98.0465 72.5029C98.1604 72.5029 98.3346 72.5485 98.569 72.6396C98.8066 72.7308 98.9254 72.8073 98.9254 72.8691C98.9254 72.944 98.888 73.0579 98.8131 73.2109C98.7382 73.3639 98.6634 73.4404 98.5885 73.4404ZM101.64 73.6016C101.64 73.6732 101.613 73.709 101.557 73.709C101.505 73.709 101.464 73.6699 101.435 73.5918C101.357 73.377 101.24 73.1865 101.084 73.0205C100.931 72.8545 100.74 72.7715 100.512 72.7715C100.213 72.7715 100.011 72.9212 99.9069 73.2207C99.8743 73.3216 99.858 73.4258 99.858 73.5332C99.858 73.6406 99.9264 73.7611 100.063 73.8945C100.2 74.0247 100.424 74.181 100.737 74.3633C101.049 74.5456 101.277 74.7002 101.421 74.8271C101.746 75.1169 101.909 75.4521 101.909 75.833C101.909 76.2139 101.769 76.5166 101.489 76.7412C101.209 76.9626 100.883 77.0732 100.512 77.0732C100.314 77.0732 100.133 77.0456 99.9703 76.9902C99.8108 76.9382 99.7181 76.9121 99.692 76.9121C99.6692 76.9121 99.6302 76.9382 99.5748 76.9902C99.5227 77.0456 99.4804 77.0732 99.4479 77.0732H99.3649C99.3453 77.0732 99.3209 76.8975 99.2916 76.5459C99.2623 76.1943 99.2477 75.986 99.2477 75.9209C99.2477 75.8558 99.2526 75.82 99.2623 75.8135C99.2753 75.807 99.2949 75.8037 99.3209 75.8037C99.347 75.8037 99.3681 75.8118 99.3844 75.8281C99.4039 75.8444 99.4202 75.8656 99.4332 75.8916C99.4462 75.9144 99.456 75.9388 99.4625 75.9648C99.4723 75.9909 99.4934 76.0397 99.526 76.1113C99.7474 76.5833 100.089 76.8193 100.551 76.8193C100.756 76.8193 100.921 76.7445 101.045 76.5947C101.168 76.4417 101.23 76.2725 101.23 76.0869C101.23 75.9014 101.181 75.7451 101.084 75.6182C100.986 75.4912 100.864 75.3757 100.717 75.2715C100.574 75.1673 100.418 75.0664 100.249 74.9688C99.5911 74.5846 99.2623 74.1598 99.2623 73.6943C99.2623 73.346 99.4121 73.0465 99.7115 72.7959C100.011 72.542 100.319 72.415 100.634 72.415C100.95 72.415 101.183 72.4492 101.333 72.5176C101.486 72.5859 101.575 72.6445 101.601 72.6934C101.627 72.7389 101.64 72.8919 101.64 73.1523V73.6016ZM106.381 75.1299C106.381 75.1722 106.347 75.1934 106.279 75.1934C106.211 75.1934 106.106 75.0387 105.966 74.7295C105.83 74.4202 105.76 74.1924 105.756 74.0459C105.753 73.8994 105.769 73.7773 105.805 73.6797C105.844 73.5788 105.896 73.4941 105.962 73.4258C106.027 73.3542 106.103 73.2939 106.191 73.2451C106.279 73.1963 106.372 73.1523 106.469 73.1133C106.567 73.0742 106.668 73.0384 106.772 73.0059C106.88 72.9701 106.984 72.931 107.085 72.8887C107.306 72.7975 107.501 72.6478 107.671 72.4395C107.84 72.2279 107.924 72.013 107.924 71.7949C107.924 71.3978 107.775 71.1374 107.475 71.0137C107.176 70.8867 106.661 70.8232 105.932 70.8232C105.704 70.8102 105.545 70.7435 105.454 70.623C105.421 70.5775 105.405 70.5205 105.405 70.4521C105.405 70.1722 105.68 70.0322 106.23 70.0322C106.783 70.0322 107.242 70.2113 107.607 70.5693C107.972 70.9274 108.154 71.3864 108.154 71.9463C108.154 72.5029 107.92 72.9782 107.451 73.3721C107.229 73.5576 107.024 73.6813 106.836 73.7432C106.647 73.8018 106.507 73.8555 106.416 73.9043C106.201 74.015 106.093 74.168 106.093 74.3633C106.093 74.4642 106.134 74.5944 106.215 74.7539C106.3 74.9134 106.355 75.0387 106.381 75.1299ZM105.713 76.502C105.713 76.349 105.768 76.2171 105.879 76.1064C105.989 75.9958 106.121 75.9404 106.274 75.9404C106.424 75.9404 106.554 75.9958 106.665 76.1064C106.775 76.2171 106.831 76.349 106.831 76.502C106.831 76.6549 106.775 76.7884 106.665 76.9023C106.557 77.0163 106.427 77.0732 106.274 77.0732C106.118 77.0732 105.984 77.0163 105.874 76.9023C105.766 76.7884 105.713 76.6549 105.713 76.502Z" fill="#EFB85F"/>
<path d="M17.5002 10L18.696 11.9748L21 13L18.696 14.0249L17.5002 16L16.304 14.0249L14 13L16.304 11.9748L17.5002 10Z" fill="#EFB85F"/>
<path d="M17.5002 86L18.696 87.9748L21 89L18.696 90.0249L17.5002 92L16.304 90.0249L14 89L16.304 87.9748L17.5002 86Z" fill="#EFB85F"/>
<path d="M124.5 84L125.696 85.9748L128 87L125.696 88.0249L124.5 90L123.304 88.0249L121 87L123.304 85.9748L124.5 84Z" fill="#EFB85F"/>
<path d="M80.5002 90L81.696 91.9748L84 93L81.696 94.0249L80.5002 96L79.304 94.0249L77 93L79.304 91.9748L80.5002 90Z" fill="#EFB85F"/>
<path d="M120.5 7L121.696 8.97475L124 10L121.696 11.0249L120.5 13L119.304 11.0249L117 10L119.304 8.97475L120.5 7Z" fill="#EFB85F"/>
<path d="M95.125 16.6259C95.1509 16.3615 95.1942 15.7335 95.2288 15.2377C95.2634 14.6647 95.324 14.3011 95.3932 14.2681C95.4538 14.235 95.7307 14.4113 95.999 14.6537C96.2759 14.9071 96.5182 15.0834 96.5441 15.0504C96.5615 15.0283 96.397 14.6757 96.1807 14.2791C95.9038 13.7943 95.8086 13.5519 95.8865 13.5189C95.9471 13.4968 96.3884 13.4197 96.8643 13.3426C98.3873 13.1222 98.3787 13.001 96.8384 12.7917C96.3019 12.7145 95.8519 12.6154 95.8346 12.5823C95.8086 12.5382 95.973 12.2187 96.1807 11.8661C96.3884 11.5025 96.5441 11.183 96.5182 11.15C96.4922 11.1279 96.2326 11.3152 95.9471 11.5687C95.6528 11.8331 95.3932 11.9984 95.3586 11.9543C95.3154 11.8992 95.2461 11.2381 95.1856 10.4779C95.0298 8.49462 94.9606 8.50564 94.7962 10.5219C94.7356 11.2822 94.6664 11.9433 94.6317 11.9763C94.6058 12.0094 94.3462 11.8331 94.052 11.5797C93.7664 11.3152 93.5155 11.1279 93.4895 11.161C93.4722 11.183 93.602 11.4805 93.7924 11.8111C93.9827 12.1306 94.1385 12.4611 94.1385 12.5272C94.1385 12.6044 93.7664 12.7035 93.1607 12.7917C91.6117 13.001 91.6117 13.1222 93.1693 13.3536C93.7577 13.4417 94.1385 13.5519 94.1385 13.618C94.1385 13.6841 93.9827 14.0147 93.7924 14.3342C93.3857 15.0283 93.351 15.2046 93.6799 14.9292C93.8183 14.83 94.0693 14.6096 94.251 14.4554C94.6664 14.1138 94.701 14.1689 94.7789 15.3589C94.8913 17.1107 95.0211 17.5735 95.125 16.6259Z" fill="#EFB85F"/>
<path d="M39.125 89.6259C39.1509 89.3615 39.1942 88.7335 39.2288 88.2377C39.2634 87.6647 39.324 87.3011 39.3932 87.2681C39.4538 87.235 39.7307 87.4113 39.999 87.6537C40.2759 87.9071 40.5182 88.0834 40.5441 88.0504C40.5615 88.0283 40.397 87.6757 40.1807 87.2791C39.9038 86.7943 39.8086 86.5519 39.8865 86.5189C39.9471 86.4968 40.3884 86.4197 40.8643 86.3426C42.3873 86.1222 42.3787 86.001 40.8384 85.7917C40.3019 85.7145 39.8519 85.6154 39.8346 85.5823C39.8086 85.5382 39.973 85.2187 40.1807 84.8661C40.3884 84.5025 40.5441 84.183 40.5182 84.15C40.4922 84.1279 40.2326 84.3152 39.9471 84.5687C39.6528 84.8331 39.3932 84.9984 39.3586 84.9543C39.3154 84.8992 39.2461 84.2381 39.1856 83.4779C39.0298 81.4946 38.9606 81.5056 38.7962 83.5219C38.7356 84.2822 38.6664 84.9433 38.6317 84.9763C38.6058 85.0094 38.3462 84.8331 38.052 84.5797C37.7664 84.3152 37.5155 84.1279 37.4895 84.161C37.4722 84.183 37.602 84.4805 37.7924 84.8111C37.9827 85.1306 38.1385 85.4611 38.1385 85.5272C38.1385 85.6044 37.7664 85.7035 37.1607 85.7917C35.6117 86.001 35.6117 86.1222 37.1693 86.3536C37.7577 86.4417 38.1385 86.5519 38.1385 86.618C38.1385 86.6841 37.9827 87.0147 37.7924 87.3342C37.3857 88.0283 37.351 88.2046 37.6799 87.9292C37.8183 87.83 38.0693 87.6096 38.251 87.4554C38.6664 87.1138 38.701 87.1689 38.7789 88.3589C38.8913 90.1107 39.0211 90.5735 39.125 89.6259Z" fill="#EFB85F"/>
<path d="M110.125 99.6259C110.151 99.3615 110.194 98.7335 110.229 98.2377C110.263 97.6647 110.324 97.3011 110.393 97.2681C110.454 97.235 110.731 97.4113 110.999 97.6537C111.276 97.9071 111.518 98.0834 111.544 98.0504C111.561 98.0283 111.397 97.6757 111.181 97.2791C110.904 96.7943 110.809 96.5519 110.886 96.5189C110.947 96.4968 111.388 96.4197 111.864 96.3426C113.387 96.1222 113.379 96.001 111.838 95.7917C111.302 95.7145 110.852 95.6154 110.835 95.5823C110.809 95.5382 110.973 95.2187 111.181 94.8661C111.388 94.5025 111.544 94.183 111.518 94.15C111.492 94.1279 111.233 94.3152 110.947 94.5687C110.653 94.8331 110.393 94.9984 110.359 94.9543C110.315 94.8992 110.246 94.2381 110.186 93.4779C110.03 91.4946 109.961 91.5056 109.796 93.5219C109.736 94.2822 109.666 94.9433 109.632 94.9763C109.606 95.0094 109.346 94.8331 109.052 94.5797C108.766 94.3152 108.515 94.1279 108.489 94.161C108.472 94.183 108.602 94.4805 108.792 94.8111C108.983 95.1306 109.138 95.4611 109.138 95.5272C109.138 95.6044 108.766 95.7035 108.161 95.7917C106.612 96.001 106.612 96.1222 108.169 96.3536C108.758 96.4417 109.138 96.5519 109.138 96.618C109.138 96.6841 108.983 97.0147 108.792 97.3342C108.386 98.0283 108.351 98.2046 108.68 97.9292C108.818 97.83 109.069 97.6096 109.251 97.4554C109.666 97.1138 109.701 97.1689 109.779 98.3589C109.891 100.111 110.021 100.573 110.125 99.6259Z" fill="#EFB85F"/>
<path d="M53.125 12.6259C53.1509 12.3615 53.1942 11.7335 53.2288 11.2377C53.2634 10.6647 53.324 10.3011 53.3932 10.2681C53.4538 10.235 53.7307 10.4113 53.999 10.6537C54.2759 10.9071 54.5182 11.0834 54.5441 11.0504C54.5615 11.0283 54.397 10.6757 54.1807 10.2791C53.9038 9.7943 53.8086 9.55191 53.8865 9.51885C53.9471 9.49682 54.3884 9.41969 54.8643 9.34256C56.3873 9.1222 56.3787 9.001 54.8384 8.79166C54.3019 8.71453 53.8519 8.61537 53.8346 8.58232C53.8086 8.53825 53.973 8.21872 54.1807 7.86614C54.3884 7.50255 54.5441 7.18302 54.5182 7.14997C54.4922 7.12793 54.2326 7.31524 53.9471 7.56866C53.6528 7.83309 53.3932 7.99836 53.3586 7.95429C53.3154 7.8992 53.2461 7.23811 53.1856 6.47787C53.0298 4.49462 52.9606 4.50564 52.7962 6.52194C52.7356 7.28219 52.6664 7.94327 52.6317 7.97632C52.6058 8.00938 52.3462 7.83309 52.052 7.57967C51.7664 7.31524 51.5155 7.12793 51.4895 7.16099C51.4722 7.18302 51.602 7.48051 51.7924 7.81105C51.9827 8.13058 52.1385 8.46112 52.1385 8.52723C52.1385 8.60435 51.7664 8.70352 51.1607 8.79166C49.6117 9.001 49.6117 9.1222 51.1693 9.35358C51.7577 9.44173 52.1385 9.55191 52.1385 9.61802C52.1385 9.68412 51.9827 10.0147 51.7924 10.3342C51.3857 11.0283 51.351 11.2046 51.6799 10.9292C51.8183 10.83 52.0693 10.6096 52.251 10.4554C52.6664 10.1138 52.701 10.1689 52.7789 11.3589C52.8913 13.1107 53.0211 13.5735 53.125 12.6259Z" fill="#EFB85F"/>
<circle cx="26" cy="81" r="1" fill="#EFB85F"/>
<circle cx="57" cy="96" r="1" fill="#EFB85F"/>
<circle cx="111" cy="84" r="1" fill="#EFB85F"/>
<circle cx="139" cy="16" r="1" fill="#EFB85F"/>
<circle cx="143" cy="55" r="1" fill="#EFB85F"/>
<circle cx="139" cy="93" r="1" fill="#EFB85F"/>
<circle cx="36" cy="10" r="1" fill="#EFB85F"/>
<circle cx="75" cy="6" r="1" fill="#EFB85F"/>
<path d="M30.1536 96.762L33.0001 96.6487L30.1536 96.5354L31.0464 95.3761L30.0932 96.4619L30 93L29.9069 96.4619L28.9537 95.3761L29.8465 96.5354L27 96.6487L29.8465 96.762L28.9537 97.9212L29.9069 96.8354L30 100.297L30.0932 96.8354L31.0464 97.9212L30.1536 96.762Z" fill="#EFB85F"/>
<path d="M11.1536 76.762L14.0001 76.6487L11.1536 76.5354L12.0464 75.3761L11.0932 76.4619L11 73L10.9069 76.4619L9.95375 75.3761L10.8465 76.5354L8 76.6487L10.8465 76.762L9.95375 77.9212L10.9069 76.8354L11 80.2973L11.0932 76.8354L12.0464 77.9212L11.1536 76.762Z" fill="#EFB85F"/>
<path d="M68.1536 11.762L71.0001 11.6487L68.1536 11.5354L69.0464 10.3761L68.0932 11.4619L68 8L67.9069 11.4619L66.9537 10.3761L67.8465 11.5354L65 11.6487L67.8465 11.762L66.9537 12.9212L67.9069 11.8354L68 15.2973L68.0932 11.8354L69.0464 12.9212L68.1536 11.762Z" fill="#EFB85F"/>
<path d="M137.154 76.762L140 76.6487L137.154 76.5354L138.046 75.3761L137.093 76.4619L137 73L136.907 76.4619L135.954 75.3761L136.847 76.5354L134 76.6487L136.847 76.762L135.954 77.9212L136.907 76.8354L137 80.2973L137.093 76.8354L138.046 77.9212L137.154 76.762Z" fill="#EFB85F"/>
<path d="M129.154 95.762L132 95.6487L129.154 95.5354L130.046 94.3761L129.093 95.4619L129 92L128.907 95.4619L127.954 94.3761L128.847 95.5354L126 95.6487L128.847 95.762L127.954 96.9212L128.907 95.8354L129 99.2973L129.093 95.8354L130.046 96.9212L129.154 95.762Z" fill="#EFB85F"/>
<path d="M8.15357 18.762L11.0001 18.6487L8.15357 18.5354L9.04635 17.3761L8.09316 18.4619L8.00005 15L7.90694 18.4619L6.95375 17.3761L7.84653 18.5354L5 18.6487L7.84653 18.762L6.95375 19.9212L7.90694 18.8354L8.00005 22.2973L8.09316 18.8354L9.04635 19.9212L8.15357 18.762Z" fill="#EFB85F"/>
</svg>
