<svg width="148" height="105" viewBox="0 0 148 105" fill="none" xmlns="http://www.w3.org/2000/svg">
<rect width="147.402" height="104.882" rx="10" fill="black"/>
<path d="M21.1178 35.0806C21.1178 35.0545 21.1308 35.0415 21.1569 35.0415H21.2643L22.8317 35.0073C23.0205 35.0008 23.2255 34.9976 23.4469 34.9976H24.0573C24.6237 34.9976 25.0485 35.0187 25.3317 35.061C25.6181 35.1034 25.8981 35.1538 26.1715 35.2124C26.4482 35.2677 26.7412 35.3963 27.0504 35.5981C27.3629 35.8 27.6331 36.0441 27.861 36.3306C28.3427 36.9425 28.5836 37.6034 28.5836 38.313C28.5836 39.0226 28.3981 39.659 28.027 40.2222C27.4931 41.0392 26.72 41.5731 25.7076 41.8237C25.3854 41.9019 25.055 41.9409 24.7164 41.9409H21.1569C21.1308 41.9409 21.1178 41.9279 21.1178 41.9019V41.7651C21.1178 41.7391 21.1308 41.7261 21.1569 41.7261H21.2643C21.8567 41.7261 22.153 41.5373 22.153 41.1597V35.8081C22.153 35.6258 22.083 35.4891 21.943 35.3979C21.803 35.3035 21.6451 35.2563 21.4694 35.2563H21.1569C21.1308 35.2563 21.1178 35.2433 21.1178 35.2173V35.0806ZM23.2272 35.2271C23.1458 35.2271 23.1051 35.271 23.1051 35.3589V41.3306C23.1051 41.5715 23.3313 41.6968 23.7838 41.7065C23.9173 41.7098 24.0573 41.7114 24.2037 41.7114C25.2421 41.7114 26.0576 41.4201 26.65 40.8374C27.2457 40.2547 27.5436 39.48 27.5436 38.5132C27.5436 37.5431 27.2685 36.7537 26.7184 36.145C26.1715 35.533 25.4505 35.2271 24.5553 35.2271H23.2272ZM30.151 39.3677C30.0957 39.3677 30.068 39.4865 30.068 39.7241C30.068 40.2287 30.2177 40.6519 30.5172 40.9937C30.8167 41.3354 31.1878 41.5063 31.6305 41.5063C32.0765 41.5063 32.5045 41.3143 32.9147 40.9302C32.9212 40.9237 32.9293 40.9204 32.9391 40.9204H32.9635C32.983 40.9204 33.0009 40.9367 33.0172 40.9692C33.0367 40.9985 33.0546 41.0181 33.0709 41.0278C32.6933 41.4868 32.249 41.8042 31.7379 41.98C31.5621 42.0418 31.3636 42.0728 31.1422 42.0728C30.9209 42.0728 30.6962 42.0125 30.4684 41.8921C30.2405 41.7684 30.0452 41.6073 29.8824 41.4087C29.5374 40.9953 29.3649 40.481 29.3649 39.8657C29.3649 39.2472 29.552 38.6841 29.9264 38.1763C30.304 37.6685 30.8216 37.4146 31.4791 37.4146C31.9511 37.4146 32.3369 37.6261 32.6364 38.0493C32.9358 38.4692 33.0856 38.8387 33.0856 39.1577C33.0856 39.2977 33.0514 39.3677 32.983 39.3677H30.151ZM30.2047 38.8989C30.2047 38.9608 30.234 38.9917 30.2926 38.9917H32.1334C32.2181 38.9917 32.2604 38.9412 32.2604 38.8403C32.2604 38.606 32.1546 38.3667 31.943 38.1226C31.7347 37.8752 31.5052 37.7515 31.2545 37.7515C31.0104 37.7515 30.7874 37.8621 30.5856 38.0835C30.387 38.3049 30.2601 38.5571 30.2047 38.8403V38.8989ZM36.274 38.6011C36.274 38.6727 36.2464 38.7085 36.191 38.7085C36.139 38.7085 36.0983 38.6694 36.069 38.5913C35.9908 38.3765 35.8737 38.186 35.7174 38.02C35.5644 37.854 35.374 37.771 35.1461 37.771C34.8466 37.771 34.6448 37.9207 34.5406 38.2202C34.5081 38.3211 34.4918 38.4253 34.4918 38.5327C34.4918 38.6401 34.5602 38.7606 34.6969 38.894C34.8336 39.0243 35.0582 39.1805 35.3707 39.3628C35.6832 39.5451 35.9111 39.6997 36.0543 39.8267C36.3798 40.1164 36.5426 40.4517 36.5426 40.8325C36.5426 41.2134 36.4026 41.5161 36.1227 41.7407C35.8427 41.9621 35.5172 42.0728 35.1461 42.0728C34.9476 42.0728 34.7669 42.0451 34.6041 41.9897C34.4446 41.9377 34.3518 41.9116 34.3258 41.9116C34.303 41.9116 34.264 41.9377 34.2086 41.9897C34.1565 42.0451 34.1142 42.0728 34.0817 42.0728H33.9987C33.9791 42.0728 33.9547 41.897 33.9254 41.5454C33.8961 41.1938 33.8815 40.9855 33.8815 40.9204C33.8815 40.8553 33.8864 40.8195 33.8961 40.813C33.9091 40.8065 33.9287 40.8032 33.9547 40.8032C33.9808 40.8032 34.0019 40.8114 34.0182 40.8276C34.0377 40.8439 34.054 40.8651 34.067 40.8911C34.08 40.9139 34.0898 40.9383 34.0963 40.9644C34.1061 40.9904 34.1272 41.0392 34.1598 41.1108C34.3811 41.5828 34.7229 41.8188 35.1852 41.8188C35.3903 41.8188 35.5546 41.744 35.6783 41.5942C35.802 41.4412 35.8639 41.272 35.8639 41.0864C35.8639 40.9009 35.8151 40.7446 35.7174 40.6177C35.6198 40.4907 35.4977 40.3752 35.3512 40.271C35.208 40.1668 35.0517 40.0659 34.8824 39.9683C34.2249 39.5841 33.8961 39.1593 33.8961 38.6938C33.8961 38.3455 34.0459 38.0461 34.3453 37.7954C34.6448 37.5415 34.9524 37.4146 35.2682 37.4146C35.5839 37.4146 35.8167 37.4487 35.9664 37.5171C36.1194 37.5854 36.2089 37.644 36.235 37.6929C36.261 37.7384 36.274 37.8914 36.274 38.1519V38.6011ZM42.3092 38.6011C42.3092 38.6727 42.2815 38.7085 42.2262 38.7085C42.1741 38.7085 42.1334 38.6694 42.1041 38.5913C42.026 38.3765 41.9088 38.186 41.7526 38.02C41.5996 37.854 41.4091 37.771 41.1813 37.771C40.8818 37.771 40.68 37.9207 40.5758 38.2202C40.5433 38.3211 40.527 38.4253 40.527 38.5327C40.527 38.6401 40.5953 38.7606 40.7321 38.894C40.8688 39.0243 41.0934 39.1805 41.4059 39.3628C41.7184 39.5451 41.9462 39.6997 42.0895 39.8267C42.415 40.1164 42.5778 40.4517 42.5778 40.8325C42.5778 41.2134 42.4378 41.5161 42.1578 41.7407C41.8779 41.9621 41.5524 42.0728 41.1813 42.0728C40.9827 42.0728 40.802 42.0451 40.6393 41.9897C40.4798 41.9377 40.387 41.9116 40.361 41.9116C40.3382 41.9116 40.2991 41.9377 40.2438 41.9897C40.1917 42.0451 40.1494 42.0728 40.1168 42.0728H40.0338C40.0143 42.0728 39.9899 41.897 39.9606 41.5454C39.9313 41.1938 39.9166 40.9855 39.9166 40.9204C39.9166 40.8553 39.9215 40.8195 39.9313 40.813C39.9443 40.8065 39.9638 40.8032 39.9899 40.8032C40.0159 40.8032 40.0371 40.8114 40.0533 40.8276C40.0729 40.8439 40.0892 40.8651 40.1022 40.8911C40.1152 40.9139 40.125 40.9383 40.1315 40.9644C40.1412 40.9904 40.1624 41.0392 40.1949 41.1108C40.4163 41.5828 40.7581 41.8188 41.2203 41.8188C41.4254 41.8188 41.5898 41.744 41.7135 41.5942C41.8372 41.4412 41.899 41.272 41.899 41.0864C41.899 40.9009 41.8502 40.7446 41.7526 40.6177C41.6549 40.4907 41.5328 40.3752 41.3864 40.271C41.2431 40.1668 41.0869 40.0659 40.9176 39.9683C40.2601 39.5841 39.9313 39.1593 39.9313 38.6938C39.9313 38.3455 40.081 38.0461 40.3805 37.7954C40.68 37.5415 40.9876 37.4146 41.3033 37.4146C41.6191 37.4146 41.8518 37.4487 42.0016 37.5171C42.1546 37.5854 42.2441 37.644 42.2701 37.6929C42.2962 37.7384 42.3092 37.8914 42.3092 38.1519V38.6011ZM48.0563 37.5464C48.0921 37.5562 48.11 37.5789 48.11 37.6147C48.11 37.6506 48.1067 37.675 48.1002 37.688C48.0937 37.6978 48.0774 37.7075 48.0514 37.7173C48.0286 37.7238 47.9944 37.7303 47.9489 37.7368C47.9065 37.7433 47.8382 37.7563 47.7438 37.7759C47.6494 37.7922 47.5647 37.8573 47.4899 37.9712C47.415 38.0851 47.3352 38.243 47.2506 38.4448L44.9557 44.1333L44.6383 44.8071C44.5569 44.9797 44.386 45.0659 44.1256 45.0659C44.0117 45.0659 43.9205 45.0285 43.8522 44.9536C43.7838 44.8787 43.7496 44.7892 43.7496 44.6851C43.7496 44.5841 43.774 44.5093 43.8229 44.4604C43.875 44.4149 43.9352 44.3774 44.0035 44.3481C44.0719 44.3188 44.1419 44.2912 44.2135 44.2651C44.2884 44.2424 44.3714 44.187 44.4625 44.0991C44.5537 44.0145 44.6074 43.951 44.6237 43.9087C45.1705 42.6847 45.444 42.0451 45.444 41.9897C45.444 41.9344 45.4114 41.866 45.3463 41.7847L43.735 38.4204C43.6145 38.0916 43.4078 37.88 43.1149 37.7856C43.0921 37.7791 43.0644 37.7743 43.0319 37.771C42.8951 37.758 42.8268 37.7173 42.8268 37.6489C42.8268 37.5806 42.8658 37.5464 42.944 37.5464H45.1168C45.1429 37.5464 45.1559 37.5724 45.1559 37.6245C45.1559 37.6733 45.1331 37.7075 45.0875 37.7271C45.042 37.7433 44.941 37.7515 44.7848 37.7515C44.5341 37.7515 44.4088 37.8491 44.4088 38.0444L44.4528 38.1616L45.7174 40.8716C45.7825 41.0376 45.8476 41.0327 45.9127 40.8569C45.9192 40.8407 45.9599 40.7349 46.0348 40.5396C46.4775 39.4165 46.7249 38.7671 46.777 38.5913C46.8323 38.4155 46.86 38.2837 46.86 38.1958C46.86 38.1079 46.8128 38.0151 46.7184 37.9175C46.6272 37.8198 46.5003 37.771 46.3375 37.771C46.178 37.771 46.0983 37.7238 46.0983 37.6294C46.0983 37.5741 46.1341 37.5464 46.2057 37.5464H48.0563ZM55.0094 40.4028L54.9996 39.3726C54.9996 38.9526 54.9638 38.658 54.8922 38.4888C54.8206 38.3195 54.7295 38.1925 54.6188 38.1079C54.5081 38.02 54.3584 37.9761 54.1696 37.9761C53.984 37.9761 53.5885 38.1226 52.983 38.4155C52.9017 38.4644 52.8593 38.5099 52.8561 38.5522V41.1792C52.8561 41.508 53.0319 41.6968 53.3834 41.7456C53.5364 41.7684 53.6129 41.8058 53.6129 41.8579C53.6129 41.9067 53.5966 41.9344 53.5641 41.9409H51.3864C51.3538 41.9344 51.3375 41.9116 51.3375 41.8726C51.3375 41.8107 51.414 41.7684 51.567 41.7456C51.9186 41.6968 52.0944 41.508 52.0944 41.1792V38.7476C52.0944 38.2365 51.7786 37.981 51.1471 37.981C50.916 37.981 50.5953 38.1177 50.1852 38.3911C50.081 38.4595 50.0045 38.5229 49.9557 38.5815V41.1792C49.9557 41.508 50.1315 41.6968 50.483 41.7456C50.636 41.7684 50.7125 41.8058 50.7125 41.8579C50.7125 41.9067 50.6962 41.9344 50.6637 41.9409H48.486C48.4534 41.9344 48.4371 41.9116 48.4371 41.8726C48.4371 41.8107 48.5136 41.7684 48.6666 41.7456C49.0182 41.6968 49.194 41.5112 49.194 41.189V38.3765C49.194 38.2397 49.1191 38.1453 48.9694 38.0933C48.9043 38.0705 48.8343 38.0526 48.7594 38.0396C48.6845 38.0233 48.6243 38.0086 48.5787 37.9956C48.5364 37.9826 48.5087 37.9712 48.4957 37.9614C48.486 37.9484 48.4811 37.924 48.4811 37.8882C48.4811 37.8491 48.5055 37.8166 48.5543 37.7905L49.7994 37.2046C49.8385 37.1851 49.8629 37.1753 49.8727 37.1753C49.928 37.1753 49.9557 37.2144 49.9557 37.2925V38.103C49.9589 38.1226 49.9703 38.1323 49.9899 38.1323C50.0127 38.1323 50.0664 38.1095 50.151 38.064C50.2389 38.0184 50.3528 37.9549 50.4928 37.8735C50.6328 37.7889 50.8167 37.6912 51.0446 37.5806C51.2757 37.4699 51.5198 37.4146 51.777 37.4146C52.1904 37.4146 52.4866 37.592 52.6656 37.9468C52.734 38.09 52.7959 38.1519 52.8512 38.1323C52.9065 38.1095 52.9928 38.0688 53.11 38.0103C53.3867 37.8735 53.6666 37.7401 53.9498 37.6099C54.233 37.4797 54.4674 37.4146 54.653 37.4146C55.4049 37.4146 55.7809 38.0998 55.7809 39.4702L55.7369 40.896V41.1792C55.7369 41.4331 55.8639 41.5991 56.1178 41.6772C56.2252 41.7131 56.3278 41.7391 56.4254 41.7554C56.5263 41.7684 56.5914 41.7814 56.6207 41.7944C56.6533 41.8075 56.6696 41.8335 56.6696 41.8726C56.6696 41.9116 56.6533 41.9344 56.6207 41.9409H54.2672C54.2347 41.9344 54.2184 41.9116 54.2184 41.8726C54.2184 41.8107 54.2949 41.7684 54.4479 41.7456C54.7962 41.6968 54.9703 41.495 54.9703 41.1401C54.9964 40.9774 55.0094 40.7316 55.0094 40.4028ZM58.2223 37.854C58.2223 37.9549 58.2451 38.0054 58.2906 38.0054C58.3395 38.0054 58.5478 37.8996 58.9156 37.688C59.3453 37.5057 59.6725 37.4146 59.8971 37.4146C60.1217 37.4146 60.3365 37.4797 60.5416 37.6099C60.7467 37.7401 60.9209 37.911 61.0641 38.1226C61.3668 38.5588 61.5182 39.0877 61.5182 39.7095C61.5182 40.3312 61.3017 40.8813 60.8688 41.3599C60.4391 41.8351 59.8711 42.0728 59.1647 42.0728C58.7057 42.0728 58.2825 42.0174 57.8951 41.9067C57.7812 41.8742 57.6836 41.8481 57.6022 41.8286C57.524 41.8091 57.4801 41.7896 57.4703 41.77C57.4638 41.7472 57.4606 41.7212 57.4606 41.6919V35.1099C57.4606 34.9731 57.3857 34.8787 57.236 34.8267C57.1709 34.8039 57.1009 34.786 57.026 34.7729C56.9511 34.7567 56.8909 34.742 56.8453 34.729C56.803 34.716 56.7753 34.7046 56.7623 34.6948C56.7526 34.6818 56.7477 34.6574 56.7477 34.6216C56.7477 34.5825 56.7721 34.55 56.8209 34.5239L58.066 33.938C58.1051 33.9185 58.1295 33.9087 58.1393 33.9087C58.1946 33.9087 58.2223 33.9478 58.2223 34.0259V37.854ZM59.2574 38.0103C58.9677 38.0103 58.6422 38.1144 58.2809 38.3228C58.2418 38.3455 58.2223 38.3846 58.2223 38.4399V40.7495C58.2548 41.0457 58.3834 41.2769 58.608 41.4429C58.8326 41.6089 59.0784 41.6919 59.3453 41.6919C59.8141 41.6919 60.1754 41.5063 60.4293 41.1353C60.6865 40.7642 60.8151 40.341 60.8151 39.8657C60.8151 39.3905 60.6849 38.9624 60.4244 38.5815C60.164 38.2007 59.775 38.0103 59.2574 38.0103ZM62.4264 39.7485C62.4264 39.1073 62.6526 38.5571 63.1051 38.0981C63.5608 37.6359 64.1061 37.4048 64.7408 37.4048C65.3756 37.4048 65.9274 37.6294 66.3961 38.0786C66.8649 38.5246 67.0992 39.0763 67.0992 39.7339C67.0992 40.3914 66.8763 40.9465 66.4303 41.3989C65.9876 41.8481 65.4309 42.0728 64.7604 42.0728C64.0898 42.0728 63.5332 41.8449 63.0905 41.3892C62.6477 40.9334 62.4264 40.3866 62.4264 39.7485ZM63.6422 41.0034C63.9612 41.5405 64.3958 41.8091 64.9459 41.8091C65.3724 41.8091 65.6979 41.6382 65.9225 41.2964C66.1503 40.9546 66.2643 40.5347 66.2643 40.0366C66.2643 39.5386 66.1048 39.0275 65.7858 38.5034C65.47 37.9793 65.0436 37.7173 64.5065 37.7173C64.1126 37.7173 63.8017 37.8882 63.5739 38.23C63.3492 38.5685 63.2369 38.9998 63.2369 39.5239C63.2369 40.0448 63.372 40.5379 63.6422 41.0034ZM69.6139 41.7554C69.7669 41.7749 69.8434 41.814 69.8434 41.8726C69.8434 41.9116 69.8271 41.9344 69.7946 41.9409H67.6168C67.5843 41.9344 67.568 41.9116 67.568 41.8726C67.568 41.814 67.6445 41.7749 67.7975 41.7554C68.149 41.7033 68.3248 41.5177 68.3248 41.1987V35.1099C68.3248 34.9731 68.25 34.8787 68.1002 34.8267C68.0351 34.8039 67.9651 34.786 67.8903 34.7729C67.8154 34.7567 67.7552 34.742 67.7096 34.729C67.6673 34.716 67.6396 34.7046 67.6266 34.6948C67.6168 34.6818 67.6119 34.6574 67.6119 34.6216C67.6119 34.5825 67.6364 34.55 67.6852 34.5239L68.9303 33.938C68.9694 33.9185 68.9938 33.9087 69.0035 33.9087C69.0589 33.9087 69.0865 33.9478 69.0865 34.0259V41.1987C69.0865 41.5177 69.2623 41.7033 69.6139 41.7554ZM71.1471 39.3677C71.0918 39.3677 71.0641 39.4865 71.0641 39.7241C71.0641 40.2287 71.2138 40.6519 71.5133 40.9937C71.8128 41.3354 72.1839 41.5063 72.6266 41.5063C73.0726 41.5063 73.5006 41.3143 73.9108 40.9302C73.9173 40.9237 73.9254 40.9204 73.9352 40.9204H73.9596C73.9791 40.9204 73.997 40.9367 74.0133 40.9692C74.0328 40.9985 74.0507 41.0181 74.067 41.0278C73.6894 41.4868 73.2451 41.8042 72.734 41.98C72.5582 42.0418 72.3597 42.0728 72.1383 42.0728C71.917 42.0728 71.6923 42.0125 71.4645 41.8921C71.2366 41.7684 71.0413 41.6073 70.8785 41.4087C70.5335 40.9953 70.361 40.481 70.361 39.8657C70.361 39.2472 70.5481 38.6841 70.9225 38.1763C71.3001 37.6685 71.8177 37.4146 72.4752 37.4146C72.9472 37.4146 73.333 37.6261 73.6324 38.0493C73.9319 38.4692 74.0817 38.8387 74.0817 39.1577C74.0817 39.2977 74.0475 39.3677 73.9791 39.3677H71.1471ZM71.2008 38.8989C71.2008 38.9608 71.2301 38.9917 71.2887 38.9917H73.1295C73.2142 38.9917 73.2565 38.9412 73.2565 38.8403C73.2565 38.606 73.1507 38.3667 72.9391 38.1226C72.7308 37.8752 72.5013 37.7515 72.2506 37.7515C72.0065 37.7515 71.7835 37.8621 71.5817 38.0835C71.3831 38.3049 71.2561 38.5571 71.2008 38.8403V38.8989ZM77.2701 38.6011C77.2701 38.6727 77.2425 38.7085 77.1871 38.7085C77.1351 38.7085 77.0944 38.6694 77.0651 38.5913C76.9869 38.3765 76.8698 38.186 76.7135 38.02C76.5605 37.854 76.3701 37.771 76.1422 37.771C75.8427 37.771 75.6409 37.9207 75.5367 38.2202C75.5042 38.3211 75.4879 38.4253 75.4879 38.5327C75.4879 38.6401 75.5563 38.7606 75.693 38.894C75.8297 39.0243 76.0543 39.1805 76.3668 39.3628C76.6793 39.5451 76.9072 39.6997 77.0504 39.8267C77.3759 40.1164 77.5387 40.4517 77.5387 40.8325C77.5387 41.2134 77.3987 41.5161 77.1188 41.7407C76.8388 41.9621 76.5133 42.0728 76.1422 42.0728C75.9436 42.0728 75.763 42.0451 75.6002 41.9897C75.4407 41.9377 75.3479 41.9116 75.3219 41.9116C75.2991 41.9116 75.2601 41.9377 75.2047 41.9897C75.1526 42.0451 75.1103 42.0728 75.0778 42.0728H74.9948C74.9752 42.0728 74.9508 41.897 74.9215 41.5454C74.8922 41.1938 74.8776 40.9855 74.8776 40.9204C74.8776 40.8553 74.8824 40.8195 74.8922 40.813C74.9052 40.8065 74.9248 40.8032 74.9508 40.8032C74.9768 40.8032 74.998 40.8114 75.0143 40.8276C75.0338 40.8439 75.0501 40.8651 75.0631 40.8911C75.0761 40.9139 75.0859 40.9383 75.0924 40.9644C75.1022 40.9904 75.1233 41.0392 75.1559 41.1108C75.3772 41.5828 75.719 41.8188 76.1813 41.8188C76.3864 41.8188 76.5507 41.744 76.6744 41.5942C76.7981 41.4412 76.86 41.272 76.86 41.0864C76.86 40.9009 76.8112 40.7446 76.7135 40.6177C76.6158 40.4907 76.4938 40.3752 76.3473 40.271C76.2041 40.1668 76.0478 40.0659 75.8785 39.9683C75.221 39.5841 74.8922 39.1593 74.8922 38.6938C74.8922 38.3455 75.042 38.0461 75.3414 37.7954C75.6409 37.5415 75.9485 37.4146 76.2643 37.4146C76.58 37.4146 76.8128 37.4487 76.9625 37.5171C77.1155 37.5854 77.205 37.644 77.2311 37.6929C77.2571 37.7384 77.2701 37.8914 77.2701 38.1519V38.6011ZM83.3053 38.6011C83.3053 38.6727 83.2776 38.7085 83.2223 38.7085C83.1702 38.7085 83.1295 38.6694 83.1002 38.5913C83.0221 38.3765 82.9049 38.186 82.7487 38.02C82.5957 37.854 82.4052 37.771 82.1774 37.771C81.8779 37.771 81.6761 37.9207 81.5719 38.2202C81.5393 38.3211 81.5231 38.4253 81.5231 38.5327C81.5231 38.6401 81.5914 38.7606 81.7281 38.894C81.8649 39.0243 82.0895 39.1805 82.402 39.3628C82.7145 39.5451 82.9423 39.6997 83.0856 39.8267C83.4111 40.1164 83.5739 40.4517 83.5739 40.8325C83.5739 41.2134 83.4339 41.5161 83.1539 41.7407C82.874 41.9621 82.5485 42.0728 82.1774 42.0728C81.9788 42.0728 81.7981 42.0451 81.6354 41.9897C81.4759 41.9377 81.3831 41.9116 81.3571 41.9116C81.3343 41.9116 81.2952 41.9377 81.2399 41.9897C81.1878 42.0451 81.1455 42.0728 81.1129 42.0728H81.0299C81.0104 42.0728 80.986 41.897 80.9567 41.5454C80.9274 41.1938 80.9127 40.9855 80.9127 40.9204C80.9127 40.8553 80.9176 40.8195 80.9274 40.813C80.9404 40.8065 80.9599 40.8032 80.986 40.8032C81.012 40.8032 81.0332 40.8114 81.0494 40.8276C81.069 40.8439 81.0852 40.8651 81.0983 40.8911C81.1113 40.9139 81.1211 40.9383 81.1276 40.9644C81.1373 40.9904 81.1585 41.0392 81.191 41.1108C81.4124 41.5828 81.7542 41.8188 82.2164 41.8188C82.4215 41.8188 82.5859 41.744 82.7096 41.5942C82.8333 41.4412 82.8951 41.272 82.8951 41.0864C82.8951 40.9009 82.8463 40.7446 82.7487 40.6177C82.651 40.4907 82.5289 40.3752 82.3824 40.271C82.2392 40.1668 82.083 40.0659 81.9137 39.9683C81.2561 39.5841 80.9274 39.1593 80.9274 38.6938C80.9274 38.3455 81.0771 38.0461 81.3766 37.7954C81.6761 37.5415 81.9837 37.4146 82.2994 37.4146C82.6152 37.4146 82.8479 37.4487 82.9977 37.5171C83.1507 37.5854 83.2402 37.644 83.2662 37.6929C83.2923 37.7384 83.3053 37.8914 83.3053 38.1519V38.6011ZM84.3112 39.7485C84.3112 39.1073 84.5374 38.5571 84.9899 38.0981C85.4456 37.6359 85.9908 37.4048 86.6256 37.4048C87.2604 37.4048 87.8121 37.6294 88.2809 38.0786C88.7496 38.5246 88.984 39.0763 88.984 39.7339C88.984 40.3914 88.761 40.9465 88.3151 41.3989C87.8724 41.8481 87.3157 42.0728 86.6451 42.0728C85.9746 42.0728 85.4179 41.8449 84.9752 41.3892C84.5325 40.9334 84.3112 40.3866 84.3112 39.7485ZM85.527 41.0034C85.846 41.5405 86.2806 41.8091 86.8307 41.8091C87.2571 41.8091 87.5826 41.6382 87.8073 41.2964C88.0351 40.9546 88.149 40.5347 88.149 40.0366C88.149 39.5386 87.9895 39.0275 87.6705 38.5034C87.3548 37.9793 86.9283 37.7173 86.3912 37.7173C85.9974 37.7173 85.6865 37.8882 85.4586 38.23C85.234 38.5685 85.1217 38.9998 85.1217 39.5239C85.1217 40.0448 85.2568 40.5379 85.527 41.0034ZM93.2809 40.4028L93.2711 39.3726C93.2711 38.9526 93.2353 38.658 93.1637 38.4888C93.0921 38.3195 93.0009 38.1925 92.8903 38.1079C92.7796 38.02 92.6298 37.9761 92.441 37.9761C92.2555 37.9761 91.86 38.1226 91.2545 38.4155C91.1731 38.4644 91.1308 38.5099 91.1276 38.5522V41.1792C91.1276 41.508 91.3033 41.6968 91.6549 41.7456C91.8079 41.7684 91.8844 41.8058 91.8844 41.8579C91.8844 41.9067 91.8681 41.9344 91.8356 41.9409H89.6578C89.6253 41.9344 89.609 41.9116 89.609 41.8726C89.609 41.8107 89.6855 41.7684 89.8385 41.7456C90.1901 41.6968 90.3658 41.508 90.3658 41.1792V38.3765C90.3658 38.2397 90.291 38.1453 90.1412 38.0933C90.0761 38.0705 90.0061 38.0526 89.9313 38.0396C89.8564 38.0233 89.7962 38.0086 89.7506 37.9956C89.7083 37.9826 89.6806 37.9712 89.6676 37.9614C89.6578 37.9484 89.653 37.924 89.653 37.8882C89.653 37.8491 89.6774 37.8166 89.7262 37.7905L90.9713 37.2046C91.0104 37.1851 91.0348 37.1753 91.0446 37.1753C91.0999 37.1753 91.1276 37.2144 91.1276 37.2925V38.0542C91.1373 38.0868 91.1503 38.103 91.1666 38.103C91.1862 38.103 91.2561 38.0737 91.3766 38.0151C91.6565 37.8752 91.9381 37.7401 92.2213 37.6099C92.5045 37.4797 92.7389 37.4146 92.9244 37.4146C93.6764 37.4146 94.0524 38.0998 94.0524 39.4702L94.0084 40.896V41.1792C94.0084 41.4331 94.1354 41.5991 94.3893 41.6772C94.4967 41.7131 94.5992 41.7391 94.6969 41.7554C94.7978 41.7684 94.8629 41.7814 94.8922 41.7944C94.9248 41.8075 94.941 41.8335 94.941 41.8726C94.941 41.9116 94.9248 41.9344 94.8922 41.9409H92.5387C92.5061 41.9344 92.4899 41.9116 92.4899 41.8726C92.4899 41.8107 92.5664 41.7684 92.7194 41.7456C93.0677 41.6968 93.2418 41.495 93.2418 41.1401C93.2679 40.9774 93.2809 40.7316 93.2809 40.4028ZM96.567 38.186C96.5475 38.186 96.5377 38.2007 96.5377 38.23V40.9253C96.5377 41.1206 96.58 41.2736 96.6647 41.3843C96.7526 41.495 96.8632 41.5503 96.9967 41.5503C97.1302 41.5503 97.2457 41.5291 97.3434 41.4868C97.4443 41.4412 97.5306 41.3924 97.6022 41.3403C97.677 41.2882 97.7438 41.241 97.8024 41.1987C97.861 41.1532 97.913 41.1304 97.9586 41.1304C98.0042 41.1304 98.027 41.1418 98.027 41.1646C98.027 41.2427 98.0188 41.2931 98.0026 41.3159C97.6119 41.8205 97.2343 42.0728 96.8698 42.0728C96.5084 42.0728 96.235 41.9588 96.0494 41.731C95.8671 41.4998 95.776 41.2248 95.776 40.9058V38.186H95.4098C95.3186 38.186 95.2698 38.1567 95.2633 38.0981C95.2601 38.0396 95.2698 38.0021 95.2926 37.9858C95.4651 37.8752 95.7028 37.6766 96.0055 37.3901C96.038 37.3543 96.082 37.3006 96.1373 37.229C96.1927 37.1574 96.2724 37.0597 96.3766 36.936C96.484 36.8123 96.5654 36.7505 96.6207 36.7505C96.6761 36.7505 96.7037 36.7733 96.7037 36.8188C96.7037 36.8254 96.6484 37.0386 96.5377 37.4585C96.5377 37.5171 96.5638 37.548 96.6158 37.5513H97.861C98.0042 37.5513 98.0758 37.7531 98.0758 38.1567C98.0758 38.1763 98.0628 38.186 98.0367 38.186H96.567ZM103.598 38.6011C103.598 38.6727 103.571 38.7085 103.515 38.7085C103.463 38.7085 103.422 38.6694 103.393 38.5913C103.315 38.3765 103.198 38.186 103.042 38.02C102.889 37.854 102.698 37.771 102.47 37.771C102.171 37.771 101.969 37.9207 101.865 38.2202C101.832 38.3211 101.816 38.4253 101.816 38.5327C101.816 38.6401 101.884 38.7606 102.021 38.894C102.158 39.0243 102.382 39.1805 102.695 39.3628C103.007 39.5451 103.235 39.6997 103.379 39.8267C103.704 40.1164 103.867 40.4517 103.867 40.8325C103.867 41.2134 103.727 41.5161 103.447 41.7407C103.167 41.9621 102.841 42.0728 102.47 42.0728C102.272 42.0728 102.091 42.0451 101.928 41.9897C101.769 41.9377 101.676 41.9116 101.65 41.9116C101.627 41.9116 101.588 41.9377 101.533 41.9897C101.481 42.0451 101.438 42.0728 101.406 42.0728H101.323C101.303 42.0728 101.279 41.897 101.25 41.5454C101.22 41.1938 101.206 40.9855 101.206 40.9204C101.206 40.8553 101.211 40.8195 101.22 40.813C101.233 40.8065 101.253 40.8032 101.279 40.8032C101.305 40.8032 101.326 40.8114 101.342 40.8276C101.362 40.8439 101.378 40.8651 101.391 40.8911C101.404 40.9139 101.414 40.9383 101.421 40.9644C101.43 40.9904 101.451 41.0392 101.484 41.1108C101.705 41.5828 102.047 41.8188 102.509 41.8188C102.714 41.8188 102.879 41.744 103.003 41.5942C103.126 41.4412 103.188 41.272 103.188 41.0864C103.188 40.9009 103.139 40.7446 103.042 40.6177C102.944 40.4907 102.822 40.3752 102.675 40.271C102.532 40.1668 102.376 40.0659 102.207 39.9683C101.549 39.5841 101.22 39.1593 101.22 38.6938C101.22 38.3455 101.37 38.0461 101.67 37.7954C101.969 37.5415 102.277 37.4146 102.592 37.4146C102.908 37.4146 103.141 37.4487 103.291 37.5171C103.444 37.5854 103.533 37.644 103.559 37.6929C103.585 37.7384 103.598 37.8914 103.598 38.1519V38.6011ZM107.92 41.5112C107.903 41.4559 107.882 41.438 107.856 41.4575C107.83 41.4738 107.724 41.5291 107.539 41.6235C106.93 41.9263 106.422 42.0776 106.015 42.0776C105.608 42.0776 105.315 41.9474 105.136 41.687C105.071 41.5894 105.039 41.4689 105.039 41.3257V38.3472C105.029 38.2528 104.987 38.1714 104.912 38.103C104.811 38.0184 104.705 37.9728 104.594 37.9663C104.487 37.9598 104.433 37.9272 104.433 37.8687C104.433 37.8068 104.459 37.7694 104.511 37.7563L105.63 37.4341C105.669 37.4211 105.706 37.4146 105.742 37.4146C105.781 37.4146 105.8 37.4422 105.8 37.4976V40.7739C105.8 41.0018 105.901 41.1776 106.103 41.3013C106.305 41.425 106.562 41.4868 106.875 41.4868C107.19 41.4868 107.474 41.3908 107.724 41.1987C107.802 41.1369 107.867 41.0685 107.92 40.9937V38.3472C107.91 38.2528 107.867 38.1714 107.793 38.103C107.692 38.0184 107.586 37.9728 107.475 37.9663C107.368 37.9598 107.314 37.9272 107.314 37.8687C107.314 37.8068 107.34 37.7694 107.392 37.7563L108.51 37.4341C108.549 37.4211 108.587 37.4146 108.623 37.4146C108.662 37.4146 108.681 37.4471 108.681 37.5122V40.979C108.698 41.1222 108.738 41.2248 108.803 41.2866C108.868 41.3485 108.974 41.3794 109.121 41.3794L109.404 41.3599C109.423 41.3599 109.433 41.3794 109.433 41.4185C109.433 41.4543 109.409 41.4836 109.36 41.5063L108.061 42.0435C108.022 42.063 107.988 42.0728 107.959 42.0728C107.933 42.0728 107.92 42.0321 107.92 41.9507V41.5112ZM113.037 38.4399C112.998 38.4334 112.941 38.4123 112.866 38.3765C112.596 38.2528 112.384 38.1909 112.231 38.1909C112.078 38.1909 111.917 38.2869 111.748 38.479C111.582 38.6678 111.499 38.8387 111.499 38.9917V41.1987C111.499 41.4429 111.64 41.6056 111.923 41.687C112.047 41.7196 112.163 41.744 112.27 41.7603C112.378 41.7733 112.446 41.7863 112.475 41.7993C112.508 41.8123 112.524 41.8384 112.524 41.8774C112.524 41.9132 112.508 41.9344 112.475 41.9409H110.029C109.996 41.9344 109.98 41.9116 109.98 41.8726C109.98 41.814 110.057 41.7749 110.21 41.7554C110.561 41.7033 110.737 41.5177 110.737 41.1987V38.6157C110.737 38.479 110.662 38.3846 110.512 38.3325C110.447 38.3097 110.377 38.2918 110.302 38.2788C110.227 38.2625 110.167 38.2479 110.122 38.2349C110.079 38.2218 110.052 38.2104 110.039 38.2007C110.029 38.1877 110.024 38.1632 110.024 38.1274C110.024 38.0884 110.048 38.0558 110.097 38.0298L111.342 37.4438C111.381 37.4243 111.406 37.4146 111.416 37.4146C111.471 37.4146 111.499 37.4536 111.499 37.5317V38.3228C111.499 38.3618 111.508 38.3813 111.528 38.3813C111.554 38.3813 111.621 38.3049 111.728 38.1519C112.037 37.7189 112.293 37.5024 112.495 37.5024C112.609 37.5024 112.783 37.548 113.017 37.6392C113.255 37.7303 113.374 37.8068 113.374 37.8687C113.374 37.9435 113.336 38.0575 113.261 38.2104C113.186 38.3634 113.112 38.4399 113.037 38.4399ZM118.208 41.7554C118.361 41.7749 118.437 41.814 118.437 41.8726C118.437 41.9116 118.421 41.9344 118.388 41.9409H116.211C116.178 41.9344 116.162 41.9116 116.162 41.8726C116.162 41.814 116.238 41.7749 116.391 41.7554C116.743 41.7033 116.919 41.5177 116.919 41.1987V35.1099C116.919 34.9731 116.844 34.8787 116.694 34.8267C116.629 34.8039 116.559 34.786 116.484 34.7729C116.409 34.7567 116.349 34.742 116.303 34.729C116.261 34.716 116.233 34.7046 116.22 34.6948C116.211 34.6818 116.206 34.6574 116.206 34.6216C116.206 34.5825 116.23 34.55 116.279 34.5239L117.524 33.938C117.563 33.9185 117.588 33.9087 117.597 33.9087C117.653 33.9087 117.68 33.9478 117.68 34.0259V41.1987C117.68 41.5177 117.856 41.7033 118.208 41.7554ZM119.741 39.3677C119.686 39.3677 119.658 39.4865 119.658 39.7241C119.658 40.2287 119.808 40.6519 120.107 40.9937C120.407 41.3354 120.778 41.5063 121.22 41.5063C121.666 41.5063 122.094 41.3143 122.505 40.9302C122.511 40.9237 122.519 40.9204 122.529 40.9204H122.553C122.573 40.9204 122.591 40.9367 122.607 40.9692C122.627 40.9985 122.644 41.0181 122.661 41.0278C122.283 41.4868 121.839 41.8042 121.328 41.98C121.152 42.0418 120.953 42.0728 120.732 42.0728C120.511 42.0728 120.286 42.0125 120.058 41.8921C119.83 41.7684 119.635 41.6073 119.472 41.4087C119.127 40.9953 118.955 40.481 118.955 39.8657C118.955 39.2472 119.142 38.6841 119.516 38.1763C119.894 37.6685 120.411 37.4146 121.069 37.4146C121.541 37.4146 121.927 37.6261 122.226 38.0493C122.526 38.4692 122.675 38.8387 122.675 39.1577C122.675 39.2977 122.641 39.3677 122.573 39.3677H119.741ZM119.795 38.8989C119.795 38.9608 119.824 38.9917 119.882 38.9917H121.723C121.808 38.9917 121.85 38.9412 121.85 38.8403C121.85 38.606 121.744 38.3667 121.533 38.1226C121.325 37.8752 121.095 37.7515 120.844 37.7515C120.6 37.7515 120.377 37.8621 120.175 38.0835C119.977 38.3049 119.85 38.5571 119.795 38.8403V38.8989ZM125.864 38.6011C125.864 38.6727 125.836 38.7085 125.781 38.7085C125.729 38.7085 125.688 38.6694 125.659 38.5913C125.581 38.3765 125.464 38.186 125.307 38.02C125.154 37.854 124.964 37.771 124.736 37.771C124.436 37.771 124.235 37.9207 124.13 38.2202C124.098 38.3211 124.082 38.4253 124.082 38.5327C124.082 38.6401 124.15 38.7606 124.287 38.894C124.423 39.0243 124.648 39.1805 124.961 39.3628C125.273 39.5451 125.501 39.6997 125.644 39.8267C125.97 40.1164 126.132 40.4517 126.132 40.8325C126.132 41.2134 125.992 41.5161 125.713 41.7407C125.433 41.9621 125.107 42.0728 124.736 42.0728C124.537 42.0728 124.357 42.0451 124.194 41.9897C124.034 41.9377 123.942 41.9116 123.916 41.9116C123.893 41.9116 123.854 41.9377 123.798 41.9897C123.746 42.0451 123.704 42.0728 123.672 42.0728H123.589C123.569 42.0728 123.545 41.897 123.515 41.5454C123.486 41.1938 123.471 40.9855 123.471 40.9204C123.471 40.8553 123.476 40.8195 123.486 40.813C123.499 40.8065 123.519 40.8032 123.545 40.8032C123.571 40.8032 123.592 40.8114 123.608 40.8276C123.628 40.8439 123.644 40.8651 123.657 40.8911C123.67 40.9139 123.68 40.9383 123.686 40.9644C123.696 40.9904 123.717 41.0392 123.75 41.1108C123.971 41.5828 124.313 41.8188 124.775 41.8188C124.98 41.8188 125.144 41.744 125.268 41.5942C125.392 41.4412 125.454 41.272 125.454 41.0864C125.454 40.9009 125.405 40.7446 125.307 40.6177C125.21 40.4907 125.088 40.3752 124.941 40.271C124.798 40.1668 124.642 40.0659 124.472 39.9683C123.815 39.5841 123.486 39.1593 123.486 38.6938C123.486 38.3455 123.636 38.0461 123.935 37.7954C124.235 37.5415 124.542 37.4146 124.858 37.4146C125.174 37.4146 125.407 37.4487 125.556 37.5171C125.709 37.5854 125.799 37.644 125.825 37.6929C125.851 37.7384 125.864 37.8914 125.864 38.1519V38.6011ZM17.3092 55.7554C17.4622 55.7749 17.5387 55.814 17.5387 55.8726C17.5387 55.9116 17.5224 55.9344 17.4899 55.9409H15.3121C15.2796 55.9344 15.2633 55.9116 15.2633 55.8726C15.2633 55.814 15.3398 55.7749 15.4928 55.7554C15.8444 55.7033 16.0201 55.5177 16.0201 55.1987V49.1099C16.0201 48.9731 15.9453 48.8787 15.7955 48.8267C15.7304 48.8039 15.6604 48.786 15.5856 48.7729C15.5107 48.7567 15.4505 48.742 15.4049 48.729C15.3626 48.716 15.3349 48.7046 15.3219 48.6948C15.3121 48.6818 15.3073 48.6574 15.3073 48.6216C15.3073 48.5825 15.3317 48.55 15.3805 48.5239L16.6256 47.938C16.6647 47.9185 16.6891 47.9087 16.6989 47.9087C16.7542 47.9087 16.7819 47.9478 16.7819 48.0259V55.1987C16.7819 55.5177 16.9576 55.7033 17.3092 55.7554ZM18.0563 55.9409C18.0237 55.9344 18.0074 55.9116 18.0074 55.8726C18.0074 55.814 18.0839 55.7749 18.2369 55.7554C18.5885 55.7033 18.7643 55.5177 18.7643 55.1987V52.6157C18.7643 52.479 18.6894 52.3846 18.5397 52.3325C18.4746 52.3097 18.4046 52.2918 18.3297 52.2788C18.2548 52.2625 18.1946 52.2479 18.149 52.2349C18.1067 52.2218 18.0791 52.2104 18.066 52.2007C18.0563 52.1877 18.0514 52.1632 18.0514 52.1274C18.0514 52.0884 18.0758 52.0558 18.1246 52.0298L19.3698 51.4438C19.4088 51.4243 19.4332 51.4146 19.443 51.4146C19.4983 51.4146 19.526 51.4536 19.526 51.5317V55.1987C19.526 55.5177 19.7018 55.7033 20.0533 55.7554C20.2063 55.7749 20.2828 55.8091 20.2828 55.8579C20.2828 55.9067 20.2666 55.9344 20.234 55.9409H18.0563ZM19.0719 50.0425C18.9384 50.0425 18.8196 50.0002 18.7155 49.9155C18.6145 49.8309 18.5641 49.7137 18.5641 49.564C18.5641 49.411 18.6129 49.2905 18.7106 49.2026C18.8082 49.1147 18.9238 49.0708 19.0573 49.0708C19.194 49.0708 19.3079 49.1229 19.399 49.2271C19.4934 49.3312 19.5406 49.4435 19.5406 49.564C19.5406 49.6844 19.4967 49.7951 19.4088 49.896C19.3209 49.9937 19.2086 50.0425 19.0719 50.0425ZM24.526 51.8833C24.526 51.8833 24.9622 51.8638 25.8346 51.8247C25.9095 51.8247 25.9583 51.8328 25.9811 51.8491C26.0039 51.8654 26.0283 51.9224 26.0543 52.02C26.0804 52.1144 26.0934 52.2039 26.0934 52.2886C26.0934 52.3732 26.0852 52.422 26.069 52.4351C26.0527 52.4481 26.0201 52.4546 25.9713 52.4546H24.8873C24.9069 52.4904 24.928 52.5278 24.9508 52.5669C24.9736 52.606 25.0029 52.6711 25.0387 52.7622C25.0745 52.8534 25.0924 52.995 25.0924 53.187C25.0924 53.3758 25.0452 53.5744 24.9508 53.7827C24.8597 53.9878 24.7246 54.1701 24.5455 54.3296C24.1484 54.6877 23.6341 54.8667 23.0026 54.8667C22.8365 54.8667 22.6543 54.8358 22.4557 54.7739C22.4069 54.826 22.3418 54.8748 22.2604 54.9204C22.179 54.9627 22.0992 55.0067 22.0211 55.0522C21.8258 55.1629 21.7281 55.2736 21.7281 55.3843C21.7281 55.661 22.1871 55.8026 23.1051 55.8091C24.0231 55.8156 24.6253 55.8465 24.9117 55.9019C25.2015 55.9539 25.4261 56.0597 25.5856 56.2192C25.8362 56.4699 25.9615 56.7563 25.9615 57.0786C25.9615 57.3553 25.8427 57.6401 25.6051 57.9331C25.1917 58.4507 24.5602 58.7957 23.7106 58.9683C23.4078 59.0301 23.0872 59.061 22.7487 59.061C22.1334 59.061 21.6663 58.9487 21.3473 58.7241C21.0283 58.5028 20.8688 58.2342 20.8688 57.9185C20.8688 57.7459 20.9095 57.6027 20.9908 57.4888C21.0722 57.3781 21.1748 57.2723 21.2985 57.1714C21.4254 57.0737 21.5638 56.9696 21.7135 56.8589C21.8632 56.7515 22.0065 56.6131 22.1432 56.4438C21.8307 56.4178 21.5621 56.3185 21.3375 56.146C21.1162 55.9735 21.0055 55.8042 21.0055 55.6382C21.0055 55.4722 21.0494 55.3501 21.1373 55.272C21.2252 55.1906 21.3326 55.1222 21.4596 55.0669C21.5865 55.0083 21.72 54.9546 21.86 54.9058C22 54.8569 22.122 54.7935 22.2262 54.7153C21.8616 54.5721 21.58 54.3752 21.3815 54.1245C21.1829 53.8706 21.0836 53.5939 21.0836 53.2944C21.0836 52.7378 21.2854 52.2837 21.6891 51.9321C22.096 51.5806 22.5859 51.4048 23.1588 51.4048C23.7317 51.4048 24.1875 51.5643 24.526 51.8833ZM21.8698 56.9761C21.7949 57.0509 21.733 57.1307 21.6842 57.2153C21.6354 57.3 21.611 57.4058 21.611 57.5327C21.611 57.6629 21.6565 57.798 21.7477 57.938C21.8421 58.0812 21.969 58.2098 22.1285 58.3237C22.4801 58.5841 22.9033 58.7144 23.3981 58.7144C23.8929 58.7144 24.3405 58.5695 24.7408 58.2798C25.1445 57.9933 25.3463 57.6776 25.3463 57.3325C25.3463 56.9907 25.1803 56.7612 24.8483 56.644C24.692 56.592 24.29 56.5594 23.6422 56.5464C22.9944 56.5334 22.5745 56.5155 22.3824 56.4927C22.2978 56.5903 22.2099 56.6766 22.1188 56.7515C22.0309 56.8263 21.9479 56.9012 21.8698 56.9761ZM24.2916 53.1821C24.2916 52.7231 24.1761 52.3504 23.9449 52.064C23.7171 51.7743 23.4143 51.6294 23.0367 51.6294C22.5485 51.6294 22.2034 51.8589 22.0016 52.3179C21.9235 52.4937 21.8844 52.6955 21.8844 52.9233C21.8844 53.3888 21.9804 53.7762 22.1725 54.0854C22.4069 54.4565 22.7145 54.6421 23.0953 54.6421C23.4762 54.6421 23.7708 54.5135 23.9791 54.2563C24.1875 53.9992 24.2916 53.6411 24.2916 53.1821ZM30.0582 54.4028L30.0485 53.3726C30.0485 52.9526 30.0127 52.658 29.941 52.4888C29.8694 52.3195 29.7783 52.1925 29.6676 52.1079C29.5569 52.02 29.4072 51.9761 29.2184 51.9761C29.0328 51.9761 28.6373 52.1226 28.0319 52.4155C27.9505 52.4644 27.9082 52.5099 27.9049 52.5522V55.1792C27.9049 55.508 28.0807 55.6968 28.4323 55.7456C28.5852 55.7684 28.6617 55.8058 28.6617 55.8579C28.6617 55.9067 28.6455 55.9344 28.6129 55.9409H26.4352C26.4026 55.9344 26.3864 55.9116 26.3864 55.8726C26.3864 55.8107 26.4628 55.7684 26.6158 55.7456C26.9674 55.6968 27.1432 55.508 27.1432 55.1792V52.3765C27.1432 52.2397 27.0683 52.1453 26.9186 52.0933C26.8535 52.0705 26.7835 52.0526 26.7086 52.0396C26.6337 52.0233 26.5735 52.0086 26.528 51.9956C26.4856 51.9826 26.458 51.9712 26.4449 51.9614C26.4352 51.9484 26.4303 51.924 26.4303 51.8882C26.4303 51.8491 26.4547 51.8166 26.5035 51.7905L27.7487 51.2046C27.7877 51.1851 27.8121 51.1753 27.8219 51.1753C27.8772 51.1753 27.9049 51.2144 27.9049 51.2925V52.0542C27.9147 52.0868 27.9277 52.103 27.944 52.103C27.9635 52.103 28.0335 52.0737 28.1539 52.0151C28.4339 51.8752 28.7155 51.7401 28.9987 51.6099C29.2819 51.4797 29.5162 51.4146 29.7018 51.4146C30.4537 51.4146 30.8297 52.0998 30.8297 53.4702L30.7858 54.896V55.1792C30.7858 55.4331 30.9127 55.5991 31.1666 55.6772C31.274 55.7131 31.3766 55.7391 31.4742 55.7554C31.5752 55.7684 31.6403 55.7814 31.6696 55.7944C31.7021 55.8075 31.7184 55.8335 31.7184 55.8726C31.7184 55.9116 31.7021 55.9344 31.6696 55.9409H29.316C29.2835 55.9344 29.2672 55.9116 29.2672 55.8726C29.2672 55.8107 29.3437 55.7684 29.4967 55.7456C29.845 55.6968 30.0192 55.495 30.0192 55.1401C30.0452 54.9774 30.0582 54.7316 30.0582 54.4028ZM32.944 53.3677C32.8886 53.3677 32.861 53.4865 32.861 53.7241C32.861 54.2287 33.0107 54.6519 33.3102 54.9937C33.6097 55.3354 33.9808 55.5063 34.4235 55.5063C34.8694 55.5063 35.2975 55.3143 35.7076 54.9302C35.7142 54.9237 35.7223 54.9204 35.7321 54.9204H35.7565C35.776 54.9204 35.7939 54.9367 35.8102 54.9692C35.8297 54.9985 35.8476 55.0181 35.8639 55.0278C35.4863 55.4868 35.042 55.8042 34.5309 55.98C34.3551 56.0418 34.1565 56.0728 33.9352 56.0728C33.7138 56.0728 33.4892 56.0125 33.2614 55.8921C33.0335 55.7684 32.8382 55.6073 32.6754 55.4087C32.3304 54.9953 32.1578 54.481 32.1578 53.8657C32.1578 53.2472 32.345 52.6841 32.7194 52.1763C33.097 51.6685 33.6145 51.4146 34.2721 51.4146C34.7441 51.4146 35.1298 51.6261 35.4293 52.0493C35.7288 52.4692 35.8785 52.8387 35.8785 53.1577C35.8785 53.2977 35.8444 53.3677 35.776 53.3677H32.944ZM32.9977 52.8989C32.9977 52.9608 33.027 52.9917 33.0856 52.9917H34.9264C35.011 52.9917 35.0533 52.9412 35.0533 52.8403C35.0533 52.606 34.9476 52.3667 34.736 52.1226C34.5276 51.8752 34.2981 51.7515 34.0475 51.7515C33.8033 51.7515 33.5804 51.8621 33.3785 52.0835C33.18 52.3049 33.053 52.5571 32.9977 52.8403V52.8989ZM39.067 52.6011C39.067 52.6727 39.0393 52.7085 38.984 52.7085C38.9319 52.7085 38.8912 52.6694 38.8619 52.5913C38.7838 52.3765 38.6666 52.186 38.5104 52.02C38.3574 51.854 38.167 51.771 37.9391 51.771C37.6396 51.771 37.4378 51.9207 37.3336 52.2202C37.3011 52.3211 37.2848 52.4253 37.2848 52.5327C37.2848 52.6401 37.3531 52.7606 37.4899 52.894C37.6266 53.0243 37.8512 53.1805 38.1637 53.3628C38.4762 53.5451 38.7041 53.6997 38.8473 53.8267C39.1728 54.1164 39.3356 54.4517 39.3356 54.8325C39.3356 55.2134 39.1956 55.5161 38.9156 55.7407C38.6357 55.9621 38.3102 56.0728 37.9391 56.0728C37.7405 56.0728 37.5599 56.0451 37.3971 55.9897C37.2376 55.9377 37.1448 55.9116 37.1188 55.9116C37.096 55.9116 37.0569 55.9377 37.0016 55.9897C36.9495 56.0451 36.9072 56.0728 36.8746 56.0728H36.7916C36.7721 56.0728 36.7477 55.897 36.7184 55.5454C36.6891 55.1938 36.6744 54.9855 36.6744 54.9204C36.6744 54.8553 36.6793 54.8195 36.6891 54.813C36.7021 54.8065 36.7216 54.8032 36.7477 54.8032C36.7737 54.8032 36.7949 54.8114 36.8112 54.8276C36.8307 54.8439 36.847 54.8651 36.86 54.8911C36.873 54.9139 36.8828 54.9383 36.8893 54.9644C36.899 54.9904 36.9202 55.0392 36.9528 55.1108C37.1741 55.5828 37.5159 55.8188 37.9781 55.8188C38.1832 55.8188 38.3476 55.744 38.4713 55.5942C38.595 55.4412 38.6569 55.272 38.6569 55.0864C38.6569 54.9009 38.608 54.7446 38.5104 54.6177C38.4127 54.4907 38.2906 54.3752 38.1442 54.271C38.0009 54.1668 37.8447 54.0659 37.6754 53.9683C37.0179 53.5841 36.6891 53.1593 36.6891 52.6938C36.6891 52.3455 36.8388 52.0461 37.1383 51.7954C37.4378 51.5415 37.7454 51.4146 38.0612 51.4146C38.3769 51.4146 38.6097 51.4487 38.7594 51.5171C38.9124 51.5854 39.0019 51.644 39.028 51.6929C39.054 51.7384 39.067 51.8914 39.067 52.1519V52.6011ZM45.7467 51.6196C45.8899 51.6685 45.9778 51.6929 46.0104 51.6929C46.0429 51.6929 46.0625 51.6929 46.069 51.6929C46.0787 51.6896 46.0901 51.6685 46.1031 51.6294V49.1099C46.1031 48.9731 46.0283 48.8787 45.8785 48.8267C45.8134 48.8039 45.7434 48.786 45.6686 48.7729C45.5937 48.7567 45.5335 48.742 45.4879 48.729C45.4456 48.716 45.4179 48.7046 45.4049 48.6948C45.3951 48.6818 45.3903 48.6574 45.3903 48.6216C45.3903 48.5825 45.4147 48.55 45.4635 48.5239L46.7086 47.938C46.7477 47.9185 46.7721 47.9087 46.7819 47.9087C46.8372 47.9087 46.8649 47.9478 46.8649 48.0259V54.979C46.8811 55.1222 46.9218 55.2248 46.9869 55.2866C47.052 55.3485 47.1578 55.3794 47.3043 55.3794L47.5875 55.3599C47.6071 55.3599 47.6168 55.3794 47.6168 55.4185C47.6168 55.4543 47.5924 55.4836 47.5436 55.5063L46.2448 56.0435C46.2057 56.063 46.1715 56.0728 46.1422 56.0728C46.1162 56.0728 46.1031 56.0321 46.1031 55.9507V55.5063C46.1031 55.4738 46.095 55.4575 46.0787 55.4575C46.0559 55.4575 45.9209 55.5308 45.6735 55.6772C44.915 56.1265 44.2753 56.1932 43.7545 55.8774C43.3378 55.6235 43.0563 55.2215 42.9098 54.6714C42.8414 54.4142 42.8073 54.1424 42.8073 53.856C42.8073 53.5662 42.8658 53.2798 42.983 52.9966C43.1035 52.7101 43.2679 52.4595 43.4762 52.2446C43.9352 51.7759 44.4886 51.5415 45.1364 51.5415C45.4 51.5415 45.6035 51.5675 45.7467 51.6196ZM43.5446 53.7144C43.5446 54.2059 43.6813 54.6372 43.9547 55.0083C44.2281 55.3761 44.609 55.5601 45.0973 55.5601C45.3121 55.5601 45.5335 55.508 45.7614 55.4038C45.9892 55.2964 46.1031 55.215 46.1031 55.1597V52.6401C46.1031 52.5783 46.0608 52.505 45.9762 52.4204C45.7158 52.0623 45.3691 51.8833 44.9362 51.8833C44.5065 51.8833 44.1663 52.0656 43.9156 52.4302C43.6683 52.7915 43.5446 53.2196 43.5446 53.7144ZM51.3961 55.5112C51.3798 55.4559 51.3587 55.438 51.3326 55.4575C51.3066 55.4738 51.2008 55.5291 51.0153 55.6235C50.4065 55.9263 49.8987 56.0776 49.4918 56.0776C49.0849 56.0776 48.792 55.9474 48.6129 55.687C48.5478 55.5894 48.5153 55.4689 48.5153 55.3257V52.3472C48.5055 52.2528 48.4632 52.1714 48.3883 52.103C48.2874 52.0184 48.1816 51.9728 48.0709 51.9663C47.9635 51.9598 47.9098 51.9272 47.9098 51.8687C47.9098 51.8068 47.9358 51.7694 47.9879 51.7563L49.1061 51.4341C49.1451 51.4211 49.1826 51.4146 49.2184 51.4146C49.2574 51.4146 49.277 51.4422 49.277 51.4976V54.7739C49.277 55.0018 49.3779 55.1776 49.5797 55.3013C49.7815 55.425 50.0387 55.4868 50.3512 55.4868C50.667 55.4868 50.9502 55.3908 51.2008 55.1987C51.2789 55.1369 51.344 55.0685 51.3961 54.9937V52.3472C51.3864 52.2528 51.344 52.1714 51.2692 52.103C51.1683 52.0184 51.0625 51.9728 50.9518 51.9663C50.8444 51.9598 50.7906 51.9272 50.7906 51.8687C50.7906 51.8068 50.8167 51.7694 50.8688 51.7563L51.9869 51.4341C52.026 51.4211 52.0634 51.4146 52.0992 51.4146C52.1383 51.4146 52.1578 51.4471 52.1578 51.5122V54.979C52.1741 55.1222 52.2148 55.2248 52.2799 55.2866C52.345 55.3485 52.4508 55.3794 52.5973 55.3794L52.8805 55.3599C52.9 55.3599 52.9098 55.3794 52.9098 55.4185C52.9098 55.4543 52.8854 55.4836 52.8365 55.5063L51.5377 56.0435C51.4987 56.063 51.4645 56.0728 51.4352 56.0728C51.4091 56.0728 51.3961 56.0321 51.3961 55.9507V55.5112ZM58.5983 52.6011C58.5983 52.6727 58.5706 52.7085 58.5153 52.7085C58.4632 52.7085 58.4225 52.6694 58.3932 52.5913C58.3151 52.3765 58.1979 52.186 58.0416 52.02C57.8886 51.854 57.6982 51.771 57.4703 51.771C57.1709 51.771 56.969 51.9207 56.8649 52.2202C56.8323 52.3211 56.816 52.4253 56.816 52.5327C56.816 52.6401 56.8844 52.7606 57.0211 52.894C57.1578 53.0243 57.3824 53.1805 57.6949 53.3628C58.0074 53.5451 58.2353 53.6997 58.3785 53.8267C58.7041 54.1164 58.8668 54.4517 58.8668 54.8325C58.8668 55.2134 58.7268 55.5161 58.4469 55.7407C58.167 55.9621 57.8414 56.0728 57.4703 56.0728C57.2718 56.0728 57.0911 56.0451 56.9283 55.9897C56.7688 55.9377 56.6761 55.9116 56.65 55.9116C56.6272 55.9116 56.5882 55.9377 56.5328 55.9897C56.4808 56.0451 56.4384 56.0728 56.4059 56.0728H56.3229C56.3033 56.0728 56.2789 55.897 56.2496 55.5454C56.2203 55.1938 56.2057 54.9855 56.2057 54.9204C56.2057 54.8553 56.2106 54.8195 56.2203 54.813C56.2334 54.8065 56.2529 54.8032 56.2789 54.8032C56.305 54.8032 56.3261 54.8114 56.3424 54.8276C56.3619 54.8439 56.3782 54.8651 56.3912 54.8911C56.4043 54.9139 56.414 54.9383 56.4205 54.9644C56.4303 54.9904 56.4515 55.0392 56.484 55.1108C56.7054 55.5828 57.0472 55.8188 57.5094 55.8188C57.7145 55.8188 57.8789 55.744 58.0026 55.5942C58.1263 55.4412 58.1881 55.272 58.1881 55.0864C58.1881 54.9009 58.1393 54.7446 58.0416 54.6177C57.944 54.4907 57.8219 54.3752 57.6754 54.271C57.5322 54.1668 57.3759 54.0659 57.2067 53.9683C56.5491 53.5841 56.2203 53.1593 56.2203 52.6938C56.2203 52.3455 56.3701 52.0461 56.6696 51.7954C56.969 51.5415 57.2767 51.4146 57.5924 51.4146C57.9082 51.4146 58.1409 51.4487 58.2906 51.5171C58.4436 51.5854 58.5332 51.644 58.5592 51.6929C58.5852 51.7384 58.5983 51.8914 58.5983 52.1519V52.6011ZM60.3658 53.3677C60.3105 53.3677 60.2828 53.4865 60.2828 53.7241C60.2828 54.2287 60.4326 54.6519 60.7321 54.9937C61.0315 55.3354 61.4026 55.5063 61.8453 55.5063C62.2913 55.5063 62.7194 55.3143 63.1295 54.9302C63.136 54.9237 63.1442 54.9204 63.1539 54.9204H63.1783C63.1979 54.9204 63.2158 54.9367 63.2321 54.9692C63.2516 54.9985 63.2695 55.0181 63.2858 55.0278C62.9082 55.4868 62.4638 55.8042 61.9528 55.98C61.777 56.0418 61.5784 56.0728 61.3571 56.0728C61.1357 56.0728 60.9111 56.0125 60.6832 55.8921C60.4554 55.7684 60.2601 55.6073 60.0973 55.4087C59.7522 54.9953 59.5797 54.481 59.5797 53.8657C59.5797 53.2472 59.7669 52.6841 60.1412 52.1763C60.5188 51.6685 61.0364 51.4146 61.694 51.4146C62.166 51.4146 62.5517 51.6261 62.8512 52.0493C63.1507 52.4692 63.3004 52.8387 63.3004 53.1577C63.3004 53.2977 63.2662 53.3677 63.1979 53.3677H60.3658ZM60.4196 52.8989C60.4196 52.9608 60.4489 52.9917 60.5074 52.9917H62.3483C62.4329 52.9917 62.4752 52.9412 62.4752 52.8403C62.4752 52.606 62.3694 52.3667 62.1578 52.1226C61.9495 51.8752 61.72 51.7515 61.4694 51.7515C61.2252 51.7515 61.0022 51.8621 60.8004 52.0835C60.6018 52.3049 60.4749 52.5571 60.4196 52.8403V52.8989ZM68.276 51.5464C68.302 51.5464 68.3151 51.5724 68.3151 51.6245C68.3151 51.6766 68.302 51.7091 68.276 51.7222C68.0253 51.7905 67.8252 51.9045 67.6754 52.064C67.6201 52.1226 67.5599 52.1909 67.4948 52.269L66.5524 53.4019C66.5393 53.4246 66.5328 53.4458 66.5328 53.4653C66.5328 53.5044 66.6744 53.6965 66.9576 54.0415C67.2408 54.3833 67.6315 54.8683 68.1295 55.4966C68.1653 55.5422 68.2369 55.5877 68.3444 55.6333C68.4518 55.6789 68.525 55.7163 68.5641 55.7456C68.6031 55.7716 68.6227 55.8075 68.6227 55.853C68.6227 55.8986 68.6031 55.9279 68.5641 55.9409H66.6403C66.6077 55.9409 66.5914 55.9149 66.5914 55.8628C66.5914 55.8107 66.6175 55.7814 66.6696 55.7749C66.7249 55.7651 66.7867 55.7554 66.8551 55.7456C67.0276 55.7196 67.1139 55.6512 67.1139 55.5405C67.1139 55.4657 67.0732 55.3826 66.9918 55.2915L66.152 54.2368C66.1259 54.201 66.1048 54.1733 66.0885 54.1538C66.0755 54.1343 66.0478 54.1245 66.0055 54.1245C65.9632 54.1245 65.929 54.1424 65.903 54.1782C65.8802 54.2108 65.8558 54.2401 65.8297 54.2661L65.0631 55.189C64.9948 55.2671 64.9606 55.3582 64.9606 55.4624C64.9606 55.5666 65.0273 55.6496 65.1608 55.7114C65.2975 55.77 65.4179 55.7993 65.5221 55.7993C65.5449 55.7993 65.5563 55.8237 65.5563 55.8726C65.5563 55.9181 65.5449 55.9409 65.5221 55.9409H63.9547C63.9026 55.9409 63.8766 55.9116 63.8766 55.853C63.8766 55.8075 63.9661 55.7424 64.1451 55.6577C64.3274 55.5731 64.4381 55.508 64.4772 55.4624L65.8297 53.8364C65.8265 53.8299 65.8199 53.8218 65.8102 53.812C65.8037 53.8022 65.7858 53.7795 65.7565 53.7437C65.7272 53.7078 65.6816 53.6525 65.6198 53.5776C65.5579 53.4995 65.3935 53.2977 65.1266 52.9722C64.8629 52.6434 64.5846 52.2967 64.2916 51.9321C64.2526 51.8898 64.1712 51.8426 64.0475 51.7905C63.9238 51.7352 63.8619 51.6864 63.8619 51.644C63.8684 51.5789 63.9075 51.5464 63.9791 51.5464H65.7955C65.8216 51.5464 65.833 51.5675 65.8297 51.6099C65.8297 51.6489 65.8053 51.675 65.7565 51.688C65.7076 51.6978 65.6539 51.7124 65.5953 51.7319C65.4391 51.7775 65.361 51.8573 65.361 51.9712C65.361 52.0461 65.3756 52.0981 65.4049 52.1274L66.1617 53.0649C66.1878 53.0942 66.2138 53.1268 66.2399 53.1626C66.2692 53.1951 66.2936 53.2114 66.3131 53.2114C66.3359 53.2114 66.3603 53.1951 66.3864 53.1626L67.1041 52.3276C67.1855 52.2332 67.2262 52.1388 67.2262 52.0444C67.2262 51.95 67.2002 51.8849 67.1481 51.8491C67.096 51.8101 67.0374 51.7824 66.9723 51.7661C66.9104 51.7466 66.8535 51.7287 66.8014 51.7124C66.7493 51.6961 66.7233 51.6652 66.7233 51.6196C66.7233 51.5708 66.7412 51.5464 66.777 51.5464H68.276ZM70.278 52.186C70.2584 52.186 70.2487 52.2007 70.2487 52.23V54.9253C70.2487 55.1206 70.291 55.2736 70.3756 55.3843C70.4635 55.495 70.5742 55.5503 70.7076 55.5503C70.8411 55.5503 70.9567 55.5291 71.0543 55.4868C71.1552 55.4412 71.2415 55.3924 71.3131 55.3403C71.388 55.2882 71.4547 55.241 71.5133 55.1987C71.5719 55.1532 71.624 55.1304 71.6696 55.1304C71.7151 55.1304 71.7379 55.1418 71.7379 55.1646C71.7379 55.2427 71.7298 55.2931 71.7135 55.3159C71.3229 55.8205 70.9453 56.0728 70.5807 56.0728C70.2194 56.0728 69.9459 55.9588 69.7604 55.731C69.5781 55.4998 69.4869 55.2248 69.4869 54.9058V52.186H69.1207C69.0296 52.186 68.9808 52.1567 68.9742 52.0981C68.971 52.0396 68.9808 52.0021 69.0035 51.9858C69.1761 51.8752 69.4137 51.6766 69.7164 51.3901C69.749 51.3543 69.7929 51.3006 69.8483 51.229C69.9036 51.1574 69.9834 51.0597 70.0875 50.936C70.1949 50.8123 70.2763 50.7505 70.3317 50.7505C70.387 50.7505 70.4147 50.7733 70.4147 50.8188C70.4147 50.8254 70.3593 51.0386 70.2487 51.4585C70.2487 51.5171 70.2747 51.548 70.3268 51.5513H71.5719C71.7151 51.5513 71.7867 51.7531 71.7867 52.1567C71.7867 52.1763 71.7737 52.186 71.7477 52.186H70.278ZM75.2731 55.1353C75.2731 55.2199 75.3121 55.2882 75.3903 55.3403C75.4716 55.3892 75.5644 55.4136 75.6686 55.4136C75.7727 55.4136 75.859 55.3875 75.9274 55.3354C75.999 55.2801 76.0478 55.2524 76.0739 55.2524C76.0999 55.2524 76.1129 55.2882 76.1129 55.3599C76.1129 55.4282 76.0804 55.4868 76.0153 55.5356C75.527 55.8937 75.1966 56.0728 75.024 56.0728C74.8157 56.0728 74.6464 55.8563 74.5162 55.4233C74.5065 55.3908 74.4983 55.3761 74.4918 55.3794C74.0882 55.6821 73.8343 55.8644 73.7301 55.9263C73.4632 56.0793 73.1946 56.1037 72.9244 55.9995C72.6575 55.8953 72.4638 55.7228 72.3434 55.4819C72.2848 55.3582 72.2555 55.2264 72.2555 55.0864C72.2555 54.8097 72.358 54.59 72.5631 54.4272C72.7682 54.2645 73.1588 54.1082 73.735 53.9585C73.9303 53.9064 74.1045 53.8397 74.2574 53.7583C74.4104 53.6769 74.4902 53.6248 74.4967 53.6021C74.5065 53.5793 74.5114 53.5581 74.5114 53.5386V52.6011C74.5114 52.2332 74.3681 51.9744 74.0817 51.8247C73.9873 51.7759 73.8733 51.7515 73.7399 51.7515C73.6097 51.7515 73.4762 51.8035 73.3395 51.9077C73.206 52.0119 73.1393 52.16 73.1393 52.3521L73.1637 52.5425C73.1442 52.5815 73.027 52.6466 72.8121 52.7378C72.5973 52.8289 72.4736 52.8778 72.441 52.8843C72.389 52.8843 72.3629 52.8224 72.3629 52.6987C72.3629 52.5718 72.4003 52.4318 72.4752 52.2788C72.5501 52.1258 72.6559 51.9858 72.7926 51.8589C73.1116 51.5627 73.4762 51.4146 73.8864 51.4146C74.2965 51.4146 74.6302 51.5285 74.8873 51.7563C75.1445 51.981 75.2731 52.2495 75.2731 52.562V55.1353ZM73.0221 54.9937C73.0221 55.1499 73.0823 55.2866 73.2028 55.4038C73.3232 55.5177 73.4599 55.5747 73.6129 55.5747C73.7692 55.5747 73.958 55.5096 74.1793 55.3794C74.4007 55.2459 74.5114 55.1092 74.5114 54.9692V53.978C74.5114 53.9422 74.5032 53.9243 74.4869 53.9243C74.4707 53.9243 74.4593 53.9259 74.4528 53.9292L73.3199 54.4565C73.2028 54.5412 73.123 54.6128 73.0807 54.6714C73.0416 54.73 73.0221 54.8374 73.0221 54.9937ZM80.1656 54.4028L80.1559 53.3726C80.1559 52.9526 80.1201 52.658 80.0485 52.4888C79.9768 52.3195 79.8857 52.1925 79.775 52.1079C79.6643 52.02 79.5146 51.9761 79.3258 51.9761C79.1403 51.9761 78.7448 52.1226 78.1393 52.4155C78.0579 52.4644 78.0156 52.5099 78.0123 52.5522V55.1792C78.0123 55.508 78.1881 55.6968 78.5397 55.7456C78.6927 55.7684 78.7692 55.8058 78.7692 55.8579C78.7692 55.9067 78.7529 55.9344 78.7203 55.9409H76.5426C76.5101 55.9344 76.4938 55.9116 76.4938 55.8726C76.4938 55.8107 76.5703 55.7684 76.7233 55.7456C77.0748 55.6968 77.2506 55.508 77.2506 55.1792V52.3765C77.2506 52.2397 77.1757 52.1453 77.026 52.0933C76.9609 52.0705 76.8909 52.0526 76.816 52.0396C76.7412 52.0233 76.6809 52.0086 76.6354 51.9956C76.5931 51.9826 76.5654 51.9712 76.5524 51.9614C76.5426 51.9484 76.5377 51.924 76.5377 51.8882C76.5377 51.8491 76.5621 51.8166 76.611 51.7905L77.8561 51.2046C77.8951 51.1851 77.9196 51.1753 77.9293 51.1753C77.9847 51.1753 78.0123 51.2144 78.0123 51.2925V52.0542C78.0221 52.0868 78.0351 52.103 78.0514 52.103C78.0709 52.103 78.1409 52.0737 78.2614 52.0151C78.5413 51.8752 78.8229 51.7401 79.1061 51.6099C79.3893 51.4797 79.6237 51.4146 79.8092 51.4146C80.5612 51.4146 80.9371 52.0998 80.9371 53.4702L80.8932 54.896V55.1792C80.8932 55.4331 81.0201 55.5991 81.274 55.6772C81.3815 55.7131 81.484 55.7391 81.5817 55.7554C81.6826 55.7684 81.7477 55.7814 81.777 55.7944C81.8095 55.8075 81.8258 55.8335 81.8258 55.8726C81.8258 55.9116 81.8095 55.9344 81.777 55.9409H79.4235C79.3909 55.9344 79.3746 55.9116 79.3746 55.8726C79.3746 55.8107 79.4511 55.7684 79.6041 55.7456C79.9524 55.6968 80.1266 55.495 80.1266 55.1401C80.1526 54.9774 80.1656 54.7316 80.1656 54.4028ZM83.4518 52.186C83.4323 52.186 83.4225 52.2007 83.4225 52.23V54.9253C83.4225 55.1206 83.4648 55.2736 83.5494 55.3843C83.6373 55.495 83.748 55.5503 83.8815 55.5503C84.0149 55.5503 84.1305 55.5291 84.2281 55.4868C84.3291 55.4412 84.4153 55.3924 84.4869 55.3403C84.5618 55.2882 84.6285 55.241 84.6871 55.1987C84.7457 55.1532 84.7978 55.1304 84.8434 55.1304C84.889 55.1304 84.9117 55.1418 84.9117 55.1646C84.9117 55.2427 84.9036 55.2931 84.8873 55.3159C84.4967 55.8205 84.1191 56.0728 83.7545 56.0728C83.3932 56.0728 83.1198 55.9588 82.9342 55.731C82.7519 55.4998 82.6608 55.2248 82.6608 54.9058V52.186H82.2946C82.2034 52.186 82.1546 52.1567 82.1481 52.0981C82.1448 52.0396 82.1546 52.0021 82.1774 51.9858C82.3499 51.8752 82.5875 51.6766 82.8903 51.3901C82.9228 51.3543 82.9668 51.3006 83.0221 51.229C83.0774 51.1574 83.1572 51.0597 83.2614 50.936C83.3688 50.8123 83.4502 50.7505 83.5055 50.7505C83.5608 50.7505 83.5885 50.7733 83.5885 50.8188C83.5885 50.8254 83.5332 51.0386 83.4225 51.4585C83.4225 51.5171 83.4485 51.548 83.5006 51.5513H84.7457C84.889 51.5513 84.9606 51.7531 84.9606 52.1567C84.9606 52.1763 84.9476 52.186 84.9215 52.186H83.4518ZM85.7223 55.4526C85.7223 55.2769 85.7841 55.1255 85.9078 54.9985C86.0315 54.8683 86.1813 54.8032 86.3571 54.8032C86.5296 54.8032 86.6777 54.8667 86.8014 54.9937C86.9283 55.1174 86.9918 55.2687 86.9918 55.4478C86.9918 55.6268 86.93 55.7765 86.8063 55.897C86.6826 56.0142 86.5328 56.0728 86.3571 56.0728C86.1845 56.0728 86.0348 56.0125 85.9078 55.8921C85.7841 55.7716 85.7223 55.6252 85.7223 55.4526ZM92.7584 55.7456C92.778 55.7456 92.7877 55.7586 92.7877 55.7847V55.9019C92.7877 55.9279 92.778 55.9409 92.7584 55.9409H90.4781C90.4521 55.9409 90.4391 55.9279 90.4391 55.9019V55.7847C90.4391 55.7586 90.4521 55.7456 90.4781 55.7456C91.012 55.7456 91.3017 55.5161 91.3473 55.0571C91.3603 54.9237 91.3733 54.7023 91.3864 54.3931C91.4026 54.0806 91.4466 53.4116 91.5182 52.3862C91.5898 51.3576 91.6256 50.5259 91.6256 49.8911V49.7104C91.6256 49.5802 91.5507 49.4712 91.401 49.3833C91.2545 49.2954 91.1471 49.2515 91.0787 49.2515C91.0104 49.2515 90.9762 49.2384 90.9762 49.2124V49.0952C90.9762 49.0692 90.9892 49.0562 91.0153 49.0562H92.4264C92.4882 49.0659 92.5387 49.1017 92.5778 49.1636L94.8678 54.2661C94.8841 54.2889 94.8971 54.3084 94.9069 54.3247C94.9166 54.341 94.941 54.3491 94.9801 54.3491C95.0192 54.3459 95.0485 54.3166 95.068 54.2612L97.3336 49.2515C97.402 49.1213 97.4638 49.0562 97.5192 49.0562H98.9401C98.9661 49.0562 98.9791 49.0692 98.9791 49.0952V49.2124C98.9791 49.2384 98.971 49.2515 98.9547 49.2515C98.8571 49.2515 98.7366 49.284 98.5934 49.3491C98.3753 49.4468 98.2662 49.5916 98.2662 49.7837L98.5592 55.1792C98.5657 55.3485 98.6536 55.4852 98.8229 55.5894C98.9921 55.6935 99.2135 55.7456 99.4869 55.7456C99.513 55.7456 99.526 55.7586 99.526 55.7847V55.9019C99.526 55.9279 99.513 55.9409 99.4869 55.9409H96.7135C96.6875 55.9409 96.6744 55.9279 96.6744 55.9019V55.7847C96.6744 55.7586 96.6875 55.7456 96.7135 55.7456C97.2962 55.7456 97.5875 55.604 97.5875 55.3208L97.3287 50.6577C97.3255 50.6252 97.3157 50.6089 97.2994 50.6089C97.2864 50.6089 97.275 50.6235 97.2653 50.6528L94.8385 55.9067C94.8255 55.9295 94.788 55.9409 94.7262 55.9409C94.6643 55.9409 94.6285 55.9279 94.6188 55.9019L92.2262 50.6382C92.2067 50.5926 92.1871 50.5698 92.1676 50.5698C92.1513 50.5698 92.1432 50.6056 92.1432 50.6772C92.1432 50.827 92.1041 51.5334 92.026 52.7964C91.9479 54.0594 91.9088 54.8472 91.9088 55.1597V55.3599C91.9479 55.5454 92.1318 55.6659 92.4606 55.7212C92.555 55.7375 92.6543 55.7456 92.7584 55.7456ZM103.095 55.1353C103.095 55.2199 103.134 55.2882 103.213 55.3403C103.294 55.3892 103.387 55.4136 103.491 55.4136C103.595 55.4136 103.681 55.3875 103.75 55.3354C103.821 55.2801 103.87 55.2524 103.896 55.2524C103.922 55.2524 103.935 55.2882 103.935 55.3599C103.935 55.4282 103.903 55.4868 103.838 55.5356C103.349 55.8937 103.019 56.0728 102.846 56.0728C102.638 56.0728 102.469 55.8563 102.339 55.4233C102.329 55.3908 102.321 55.3761 102.314 55.3794C101.91 55.6821 101.657 55.8644 101.552 55.9263C101.285 56.0793 101.017 56.1037 100.747 55.9995C100.48 55.8953 100.286 55.7228 100.166 55.4819C100.107 55.3582 100.078 55.2264 100.078 55.0864C100.078 54.8097 100.18 54.59 100.385 54.4272C100.59 54.2645 100.981 54.1082 101.557 53.9585C101.753 53.9064 101.927 53.8397 102.08 53.7583C102.233 53.6769 102.312 53.6248 102.319 53.6021C102.329 53.5793 102.334 53.5581 102.334 53.5386V52.6011C102.334 52.2332 102.19 51.9744 101.904 51.8247C101.81 51.7759 101.696 51.7515 101.562 51.7515C101.432 51.7515 101.298 51.8035 101.162 51.9077C101.028 52.0119 100.962 52.16 100.962 52.3521L100.986 52.5425C100.966 52.5815 100.849 52.6466 100.634 52.7378C100.42 52.8289 100.296 52.8778 100.263 52.8843C100.211 52.8843 100.185 52.8224 100.185 52.6987C100.185 52.5718 100.223 52.4318 100.297 52.2788C100.372 52.1258 100.478 51.9858 100.615 51.8589C100.934 51.5627 101.298 51.4146 101.709 51.4146C102.119 51.4146 102.452 51.5285 102.71 51.7563C102.967 51.981 103.095 52.2495 103.095 52.562V55.1353ZM100.844 54.9937C100.844 55.1499 100.905 55.2866 101.025 55.4038C101.145 55.5177 101.282 55.5747 101.435 55.5747C101.591 55.5747 101.78 55.5096 102.002 55.3794C102.223 55.2459 102.334 55.1092 102.334 54.9692V53.978C102.334 53.9422 102.325 53.9243 102.309 53.9243C102.293 53.9243 102.282 53.9259 102.275 53.9292L101.142 54.4565C101.025 54.5412 100.945 54.6128 100.903 54.6714C100.864 54.73 100.844 54.8374 100.844 54.9937ZM104.404 55.9409C104.371 55.9344 104.355 55.9116 104.355 55.8726C104.355 55.814 104.432 55.7749 104.585 55.7554C104.936 55.7033 105.112 55.5177 105.112 55.1987V52.6157C105.112 52.479 105.037 52.3846 104.887 52.3325C104.822 52.3097 104.752 52.2918 104.677 52.2788C104.602 52.2625 104.542 52.2479 104.497 52.2349C104.454 52.2218 104.427 52.2104 104.414 52.2007C104.404 52.1877 104.399 52.1632 104.399 52.1274C104.399 52.0884 104.423 52.0558 104.472 52.0298L105.717 51.4438C105.756 51.4243 105.781 51.4146 105.791 51.4146C105.846 51.4146 105.874 51.4536 105.874 51.5317V55.1987C105.874 55.5177 106.049 55.7033 106.401 55.7554C106.554 55.7749 106.63 55.8091 106.63 55.8579C106.63 55.9067 106.614 55.9344 106.582 55.9409H104.404ZM105.42 50.0425C105.286 50.0425 105.167 50.0002 105.063 49.9155C104.962 49.8309 104.912 49.7137 104.912 49.564C104.912 49.411 104.961 49.2905 105.058 49.2026C105.156 49.1147 105.271 49.0708 105.405 49.0708C105.542 49.0708 105.656 49.1229 105.747 49.2271C105.841 49.3312 105.888 49.4435 105.888 49.564C105.888 49.6844 105.844 49.7951 105.756 49.896C105.669 49.9937 105.556 50.0425 105.42 50.0425ZM109.585 52.6011C109.585 52.6727 109.557 52.7085 109.502 52.7085C109.45 52.7085 109.409 52.6694 109.38 52.5913C109.301 52.3765 109.184 52.186 109.028 52.02C108.875 51.854 108.685 51.771 108.457 51.771C108.157 51.771 107.955 51.9207 107.851 52.2202C107.819 52.3211 107.802 52.4253 107.802 52.5327C107.802 52.6401 107.871 52.7606 108.007 52.894C108.144 53.0243 108.369 53.1805 108.681 53.3628C108.994 53.5451 109.222 53.6997 109.365 53.8267C109.69 54.1164 109.853 54.4517 109.853 54.8325C109.853 55.2134 109.713 55.5161 109.433 55.7407C109.153 55.9621 108.828 56.0728 108.457 56.0728C108.258 56.0728 108.077 56.0451 107.915 55.9897C107.755 55.9377 107.662 55.9116 107.636 55.9116C107.614 55.9116 107.575 55.9377 107.519 55.9897C107.467 56.0451 107.425 56.0728 107.392 56.0728H107.309C107.29 56.0728 107.265 55.897 107.236 55.5454C107.207 55.1938 107.192 54.9855 107.192 54.9204C107.192 54.8553 107.197 54.8195 107.207 54.813C107.22 54.8065 107.239 54.8032 107.265 54.8032C107.291 54.8032 107.312 54.8114 107.329 54.8276C107.348 54.8439 107.365 54.8651 107.378 54.8911C107.391 54.9139 107.4 54.9383 107.407 54.9644C107.417 54.9904 107.438 55.0392 107.47 55.1108C107.692 55.5828 108.033 55.8188 108.496 55.8188C108.701 55.8188 108.865 55.744 108.989 55.5942C109.113 55.4412 109.174 55.272 109.174 55.0864C109.174 54.9009 109.126 54.7446 109.028 54.6177C108.93 54.4907 108.808 54.3752 108.662 54.271C108.519 54.1668 108.362 54.0659 108.193 53.9683C107.535 53.5841 107.207 53.1593 107.207 52.6938C107.207 52.3455 107.356 52.0461 107.656 51.7954C107.955 51.5415 108.263 51.4146 108.579 51.4146C108.894 51.4146 109.127 51.4487 109.277 51.5171C109.43 51.5854 109.519 51.644 109.546 51.6929C109.572 51.7384 109.585 51.8914 109.585 52.1519V52.6011ZM116.269 55.1353C116.269 55.2199 116.308 55.2882 116.386 55.3403C116.468 55.3892 116.561 55.4136 116.665 55.4136C116.769 55.4136 116.855 55.3875 116.923 55.3354C116.995 55.2801 117.044 55.2524 117.07 55.2524C117.096 55.2524 117.109 55.2882 117.109 55.3599C117.109 55.4282 117.076 55.4868 117.011 55.5356C116.523 55.8937 116.193 56.0728 116.02 56.0728C115.812 56.0728 115.643 55.8563 115.512 55.4233C115.503 55.3908 115.494 55.3761 115.488 55.3794C115.084 55.6821 114.83 55.8644 114.726 55.9263C114.459 56.0793 114.191 56.1037 113.921 55.9995C113.654 55.8953 113.46 55.7228 113.339 55.4819C113.281 55.3582 113.252 55.2264 113.252 55.0864C113.252 54.8097 113.354 54.59 113.559 54.4272C113.764 54.2645 114.155 54.1082 114.731 53.9585C114.926 53.9064 115.101 53.8397 115.254 53.7583C115.407 53.6769 115.486 53.6248 115.493 53.6021C115.503 53.5793 115.507 53.5581 115.507 53.5386V52.6011C115.507 52.2332 115.364 51.9744 115.078 51.8247C114.983 51.7759 114.869 51.7515 114.736 51.7515C114.606 51.7515 114.472 51.8035 114.336 51.9077C114.202 52.0119 114.135 52.16 114.135 52.3521L114.16 52.5425C114.14 52.5815 114.023 52.6466 113.808 52.7378C113.593 52.8289 113.47 52.8778 113.437 52.8843C113.385 52.8843 113.359 52.8224 113.359 52.6987C113.359 52.5718 113.396 52.4318 113.471 52.2788C113.546 52.1258 113.652 51.9858 113.789 51.8589C114.108 51.5627 114.472 51.4146 114.882 51.4146C115.293 51.4146 115.626 51.5285 115.883 51.7563C116.141 51.981 116.269 52.2495 116.269 52.562V55.1353ZM114.018 54.9937C114.018 55.1499 114.078 55.2866 114.199 55.4038C114.319 55.5177 114.456 55.5747 114.609 55.5747C114.765 55.5747 114.954 55.5096 115.175 55.3794C115.397 55.2459 115.507 55.1092 115.507 54.9692V53.978C115.507 53.9422 115.499 53.9243 115.483 53.9243C115.467 53.9243 115.455 53.9259 115.449 53.9292L114.316 54.4565C114.199 54.5412 114.119 54.6128 114.077 54.6714C114.038 54.73 114.018 54.8374 114.018 54.9937ZM120.918 55.5112C120.901 55.4559 120.88 55.438 120.854 55.4575C120.828 55.4738 120.722 55.5291 120.537 55.6235C119.928 55.9263 119.42 56.0776 119.013 56.0776C118.606 56.0776 118.313 55.9474 118.134 55.687C118.069 55.5894 118.037 55.4689 118.037 55.3257V52.3472C118.027 52.2528 117.985 52.1714 117.91 52.103C117.809 52.0184 117.703 51.9728 117.592 51.9663C117.485 51.9598 117.431 51.9272 117.431 51.8687C117.431 51.8068 117.457 51.7694 117.509 51.7563L118.628 51.4341C118.667 51.4211 118.704 51.4146 118.74 51.4146C118.779 51.4146 118.798 51.4422 118.798 51.4976V54.7739C118.798 55.0018 118.899 55.1776 119.101 55.3013C119.303 55.425 119.56 55.4868 119.873 55.4868C120.188 55.4868 120.472 55.3908 120.722 55.1987C120.8 55.1369 120.866 55.0685 120.918 54.9937V52.3472C120.908 52.2528 120.866 52.1714 120.791 52.103C120.69 52.0184 120.584 51.9728 120.473 51.9663C120.366 51.9598 120.312 51.9272 120.312 51.8687C120.312 51.8068 120.338 51.7694 120.39 51.7563L121.508 51.4341C121.547 51.4211 121.585 51.4146 121.621 51.4146C121.66 51.4146 121.679 51.4471 121.679 51.5122V54.979C121.696 55.1222 121.736 55.2248 121.801 55.2866C121.866 55.3485 121.972 55.3794 122.119 55.3794L122.402 55.3599C122.422 55.3599 122.431 55.3794 122.431 55.4185C122.431 55.4543 122.407 55.4836 122.358 55.5063L121.059 56.0435C121.02 56.063 120.986 56.0728 120.957 56.0728C120.931 56.0728 120.918 56.0321 120.918 55.9507V55.5112ZM125.434 52.6011C125.434 52.6727 125.407 52.7085 125.351 52.7085C125.299 52.7085 125.258 52.6694 125.229 52.5913C125.151 52.3765 125.034 52.186 124.878 52.02C124.725 51.854 124.534 51.771 124.306 51.771C124.007 51.771 123.805 51.9207 123.701 52.2202C123.668 52.3211 123.652 52.4253 123.652 52.5327C123.652 52.6401 123.72 52.7606 123.857 52.894C123.994 53.0243 124.218 53.1805 124.531 53.3628C124.843 53.5451 125.071 53.6997 125.214 53.8267C125.54 54.1164 125.703 54.4517 125.703 54.8325C125.703 55.2134 125.563 55.5161 125.283 55.7407C125.003 55.9621 124.677 56.0728 124.306 56.0728C124.108 56.0728 123.927 56.0451 123.764 55.9897C123.605 55.9377 123.512 55.9116 123.486 55.9116C123.463 55.9116 123.424 55.9377 123.369 55.9897C123.317 56.0451 123.274 56.0728 123.242 56.0728H123.159C123.139 56.0728 123.115 55.897 123.086 55.5454C123.056 55.1938 123.042 54.9855 123.042 54.9204C123.042 54.8553 123.047 54.8195 123.056 54.813C123.069 54.8065 123.089 54.8032 123.115 54.8032C123.141 54.8032 123.162 54.8114 123.178 54.8276C123.198 54.8439 123.214 54.8651 123.227 54.8911C123.24 54.9139 123.25 54.9383 123.256 54.9644C123.266 54.9904 123.287 55.0392 123.32 55.1108C123.541 55.5828 123.883 55.8188 124.345 55.8188C124.55 55.8188 124.715 55.744 124.839 55.5942C124.962 55.4412 125.024 55.272 125.024 55.0864C125.024 54.9009 124.975 54.7446 124.878 54.6177C124.78 54.4907 124.658 54.3752 124.511 54.271C124.368 54.1668 124.212 54.0659 124.043 53.9683C123.385 53.5841 123.056 53.1593 123.056 52.6938C123.056 52.3455 123.206 52.0461 123.505 51.7954C123.805 51.5415 124.113 51.4146 124.428 51.4146C124.744 51.4146 124.977 51.4487 125.127 51.5171C125.28 51.5854 125.369 51.644 125.395 51.6929C125.421 51.7384 125.434 51.8914 125.434 52.1519V52.6011ZM128.784 52.6011C128.784 52.6727 128.756 52.7085 128.701 52.7085C128.649 52.7085 128.608 52.6694 128.579 52.5913C128.501 52.3765 128.383 52.186 128.227 52.02C128.074 51.854 127.884 51.771 127.656 51.771C127.356 51.771 127.155 51.9207 127.05 52.2202C127.018 52.3211 127.002 52.4253 127.002 52.5327C127.002 52.6401 127.07 52.7606 127.207 52.894C127.343 53.0243 127.568 53.1805 127.88 53.3628C128.193 53.5451 128.421 53.6997 128.564 53.8267C128.89 54.1164 129.052 54.4517 129.052 54.8325C129.052 55.2134 128.912 55.5161 128.632 55.7407C128.352 55.9621 128.027 56.0728 127.656 56.0728C127.457 56.0728 127.277 56.0451 127.114 55.9897C126.954 55.9377 126.862 55.9116 126.836 55.9116C126.813 55.9116 126.774 55.9377 126.718 55.9897C126.666 56.0451 126.624 56.0728 126.591 56.0728H126.508C126.489 56.0728 126.464 55.897 126.435 55.5454C126.406 55.1938 126.391 54.9855 126.391 54.9204C126.391 54.8553 126.396 54.8195 126.406 54.813C126.419 54.8065 126.438 54.8032 126.464 54.8032C126.491 54.8032 126.512 54.8114 126.528 54.8276C126.547 54.8439 126.564 54.8651 126.577 54.8911C126.59 54.9139 126.6 54.9383 126.606 54.9644C126.616 54.9904 126.637 55.0392 126.67 55.1108C126.891 55.5828 127.233 55.8188 127.695 55.8188C127.9 55.8188 128.064 55.744 128.188 55.5942C128.312 55.4412 128.374 55.272 128.374 55.0864C128.374 54.9009 128.325 54.7446 128.227 54.6177C128.13 54.4907 128.007 54.3752 127.861 54.271C127.718 54.1668 127.561 54.0659 127.392 53.9683C126.735 53.5841 126.406 53.1593 126.406 52.6938C126.406 52.3455 126.556 52.0461 126.855 51.7954C127.155 51.5415 127.462 51.4146 127.778 51.4146C128.094 51.4146 128.326 51.4487 128.476 51.5171C128.629 51.5854 128.719 51.644 128.745 51.6929C128.771 51.7384 128.784 51.8914 128.784 52.1519V52.6011ZM129.765 55.9409C129.733 55.9344 129.716 55.9116 129.716 55.8726C129.716 55.814 129.793 55.7749 129.946 55.7554C130.297 55.7033 130.473 55.5177 130.473 55.1987V52.6157C130.473 52.479 130.398 52.3846 130.249 52.3325C130.184 52.3097 130.114 52.2918 130.039 52.2788C129.964 52.2625 129.904 52.2479 129.858 52.2349C129.816 52.2218 129.788 52.2104 129.775 52.2007C129.765 52.1877 129.76 52.1632 129.76 52.1274C129.76 52.0884 129.785 52.0558 129.834 52.0298L131.079 51.4438C131.118 51.4243 131.142 51.4146 131.152 51.4146C131.207 51.4146 131.235 51.4536 131.235 51.5317V55.1987C131.235 55.5177 131.411 55.7033 131.762 55.7554C131.915 55.7749 131.992 55.8091 131.992 55.8579C131.992 55.9067 131.976 55.9344 131.943 55.9409H129.765ZM130.781 50.0425C130.647 50.0425 130.529 50.0002 130.424 49.9155C130.324 49.8309 130.273 49.7137 130.273 49.564C130.273 49.411 130.322 49.2905 130.42 49.2026C130.517 49.1147 130.633 49.0708 130.766 49.0708C130.903 49.0708 131.017 49.1229 131.108 49.2271C131.202 49.3312 131.25 49.4435 131.25 49.564C131.25 49.6844 131.206 49.7951 131.118 49.896C131.03 49.9937 130.918 50.0425 130.781 50.0425ZM61.1569 69.1353C61.1569 69.2199 61.1959 69.2882 61.274 69.3403C61.3554 69.3892 61.4482 69.4136 61.5524 69.4136C61.6565 69.4136 61.7428 69.3875 61.8112 69.3354C61.8828 69.2801 61.9316 69.2524 61.9576 69.2524C61.9837 69.2524 61.9967 69.2882 61.9967 69.3599C61.9967 69.4282 61.9642 69.4868 61.899 69.5356C61.4108 69.8937 61.0804 70.0728 60.9078 70.0728C60.6995 70.0728 60.5302 69.8563 60.4 69.4233C60.3903 69.3908 60.3821 69.3761 60.3756 69.3794C59.972 69.6821 59.7181 69.8644 59.6139 69.9263C59.347 70.0793 59.0784 70.1037 58.8082 69.9995C58.5413 69.8953 58.3476 69.7228 58.2272 69.4819C58.1686 69.3582 58.1393 69.2264 58.1393 69.0864C58.1393 68.8097 58.2418 68.59 58.4469 68.4272C58.652 68.2645 59.0426 68.1082 59.6188 67.9585C59.8141 67.9064 59.9882 67.8397 60.1412 67.7583C60.2942 67.6769 60.374 67.6248 60.3805 67.6021C60.3903 67.5793 60.3951 67.5581 60.3951 67.5386V66.6011C60.3951 66.2332 60.2519 65.9744 59.9655 65.8247C59.8711 65.7759 59.7571 65.7515 59.6237 65.7515C59.4934 65.7515 59.36 65.8035 59.2233 65.9077C59.0898 66.0119 59.0231 66.16 59.0231 66.3521L59.0475 66.5425C59.028 66.5815 58.9108 66.6466 58.6959 66.7378C58.4811 66.8289 58.3574 66.8778 58.3248 66.8843C58.2727 66.8843 58.2467 66.8224 58.2467 66.6987C58.2467 66.5718 58.2841 66.4318 58.359 66.2788C58.4339 66.1258 58.5397 65.9858 58.6764 65.8589C58.9954 65.5627 59.36 65.4146 59.7701 65.4146C60.1803 65.4146 60.514 65.5285 60.7711 65.7563C61.0283 65.981 61.1569 66.2495 61.1569 66.562V69.1353ZM58.9059 68.9937C58.9059 69.1499 58.9661 69.2866 59.0865 69.4038C59.207 69.5177 59.3437 69.5747 59.4967 69.5747C59.653 69.5747 59.8418 69.5096 60.0631 69.3794C60.2845 69.2459 60.3951 69.1092 60.3951 68.9692V67.978C60.3951 67.9422 60.387 67.9243 60.3707 67.9243C60.3545 67.9243 60.3431 67.9259 60.3365 67.9292L59.2037 68.4565C59.0865 68.5412 59.0068 68.6128 58.9645 68.6714C58.9254 68.73 58.9059 68.8374 58.9059 68.9937ZM62.4655 69.9409C62.4329 69.9344 62.4166 69.9116 62.4166 69.8726C62.4166 69.814 62.4931 69.7749 62.6461 69.7554C62.9977 69.7033 63.1735 69.5177 63.1735 69.1987V66.6157C63.1735 66.479 63.0986 66.3846 62.9489 66.3325C62.8837 66.3097 62.8138 66.2918 62.7389 66.2788C62.664 66.2625 62.6038 66.2479 62.5582 66.2349C62.5159 66.2218 62.4882 66.2104 62.4752 66.2007C62.4655 66.1877 62.4606 66.1632 62.4606 66.1274C62.4606 66.0884 62.485 66.0558 62.5338 66.0298L63.7789 65.4438C63.818 65.4243 63.8424 65.4146 63.8522 65.4146C63.9075 65.4146 63.9352 65.4536 63.9352 65.5317V69.1987C63.9352 69.5177 64.111 69.7033 64.4625 69.7554C64.6155 69.7749 64.692 69.8091 64.692 69.8579C64.692 69.9067 64.6757 69.9344 64.6432 69.9409H62.4655ZM63.4811 64.0425C63.3476 64.0425 63.2288 64.0002 63.1246 63.9155C63.0237 63.8309 62.9733 63.7137 62.9733 63.564C62.9733 63.411 63.0221 63.2905 63.1198 63.2026C63.2174 63.1147 63.333 63.0708 63.4664 63.0708C63.6031 63.0708 63.7171 63.1229 63.8082 63.2271C63.9026 63.3312 63.9498 63.4435 63.9498 63.564C63.9498 63.6844 63.9059 63.7951 63.818 63.896C63.7301 63.9937 63.6178 64.0425 63.4811 64.0425ZM67.0797 69.7554C67.2327 69.7749 67.3092 69.814 67.3092 69.8726C67.3092 69.9116 67.2929 69.9344 67.2604 69.9409H65.0826C65.0501 69.9344 65.0338 69.9116 65.0338 69.8726C65.0338 69.814 65.1103 69.7749 65.2633 69.7554C65.6149 69.7033 65.7906 69.5177 65.7906 69.1987V63.1099C65.7906 62.9731 65.7158 62.8787 65.566 62.8267C65.5009 62.8039 65.4309 62.786 65.3561 62.7729C65.2812 62.7567 65.221 62.742 65.1754 62.729C65.1331 62.716 65.1054 62.7046 65.0924 62.6948C65.0826 62.6818 65.0778 62.6574 65.0778 62.6216C65.0778 62.5825 65.1022 62.55 65.151 62.5239L66.3961 61.938C66.4352 61.9185 66.4596 61.9087 66.4694 61.9087C66.5247 61.9087 66.5524 61.9478 66.5524 62.0259V69.1987C66.5524 69.5177 66.7281 69.7033 67.0797 69.7554ZM69.6285 69.7554C69.7815 69.7749 69.858 69.814 69.858 69.8726C69.858 69.9116 69.8418 69.9344 69.8092 69.9409H67.6315C67.5989 69.9344 67.5826 69.9116 67.5826 69.8726C67.5826 69.814 67.6591 69.7749 67.8121 69.7554C68.1637 69.7033 68.3395 69.5177 68.3395 69.1987V63.1099C68.3395 62.9731 68.2646 62.8787 68.1149 62.8267C68.0498 62.8039 67.9798 62.786 67.9049 62.7729C67.83 62.7567 67.7698 62.742 67.7242 62.729C67.6819 62.716 67.6543 62.7046 67.6412 62.6948C67.6315 62.6818 67.6266 62.6574 67.6266 62.6216C67.6266 62.5825 67.651 62.55 67.6998 62.5239L68.9449 61.938C68.984 61.9185 69.0084 61.9087 69.0182 61.9087C69.0735 61.9087 69.1012 61.9478 69.1012 62.0259V69.1987C69.1012 69.5177 69.277 69.7033 69.6285 69.7554ZM71.1617 67.3677C71.1064 67.3677 71.0787 67.4865 71.0787 67.7241C71.0787 68.2287 71.2285 68.6519 71.528 68.9937C71.8274 69.3354 72.1985 69.5063 72.6412 69.5063C73.0872 69.5063 73.5153 69.3143 73.9254 68.9302C73.9319 68.9237 73.9401 68.9204 73.9498 68.9204H73.9742C73.9938 68.9204 74.0117 68.9367 74.028 68.9692C74.0475 68.9985 74.0654 69.0181 74.0817 69.0278C73.7041 69.4868 73.2597 69.8042 72.7487 69.98C72.5729 70.0418 72.3743 70.0728 72.153 70.0728C71.9316 70.0728 71.707 70.0125 71.4791 69.8921C71.2513 69.7684 71.0559 69.6073 70.8932 69.4087C70.5481 68.9953 70.3756 68.481 70.3756 67.8657C70.3756 67.2472 70.5628 66.6841 70.9371 66.1763C71.3147 65.6685 71.8323 65.4146 72.4899 65.4146C72.9619 65.4146 73.3476 65.6261 73.6471 66.0493C73.9466 66.4692 74.0963 66.8387 74.0963 67.1577C74.0963 67.2977 74.0621 67.3677 73.9938 67.3677H71.1617ZM71.2155 66.8989C71.2155 66.9608 71.2448 66.9917 71.3033 66.9917H73.1442C73.2288 66.9917 73.2711 66.9412 73.2711 66.8403C73.2711 66.606 73.1653 66.3667 72.9537 66.1226C72.7454 65.8752 72.5159 65.7515 72.2653 65.7515C72.0211 65.7515 71.7981 65.8621 71.5963 66.0835C71.3977 66.3049 71.2708 66.5571 71.2155 66.8403V66.8989ZM78.2565 69.5112C78.2402 69.4559 78.219 69.438 78.193 69.4575C78.167 69.4738 78.0612 69.5291 77.8756 69.6235C77.2669 69.9263 76.7591 70.0776 76.3522 70.0776C75.9453 70.0776 75.6523 69.9474 75.4733 69.687C75.4082 69.5894 75.3756 69.4689 75.3756 69.3257V66.3472C75.3658 66.2528 75.3235 66.1714 75.2487 66.103C75.1477 66.0184 75.042 65.9728 74.9313 65.9663C74.8239 65.9598 74.7701 65.9272 74.7701 65.8687C74.7701 65.8068 74.7962 65.7694 74.8483 65.7563L75.9664 65.4341C76.0055 65.4211 76.0429 65.4146 76.0787 65.4146C76.1178 65.4146 76.1373 65.4422 76.1373 65.4976V68.7739C76.1373 69.0018 76.2382 69.1776 76.4401 69.3013C76.6419 69.425 76.899 69.4868 77.2115 69.4868C77.5273 69.4868 77.8105 69.3908 78.0612 69.1987C78.1393 69.1369 78.2044 69.0685 78.2565 68.9937V66.3472C78.2467 66.2528 78.2044 66.1714 78.1295 66.103C78.0286 66.0184 77.9228 65.9728 77.8121 65.9663C77.7047 65.9598 77.651 65.9272 77.651 65.8687C77.651 65.8068 77.677 65.7694 77.7291 65.7563L78.8473 65.4341C78.8864 65.4211 78.9238 65.4146 78.9596 65.4146C78.9987 65.4146 79.0182 65.4471 79.0182 65.5122V68.979C79.0345 69.1222 79.0752 69.2248 79.1403 69.2866C79.2054 69.3485 79.3112 69.3794 79.4576 69.3794L79.7408 69.3599C79.7604 69.3599 79.7701 69.3794 79.7701 69.4185C79.7701 69.4543 79.7457 69.4836 79.6969 69.5063L78.3981 70.0435C78.359 70.063 78.3248 70.0728 78.2955 70.0728C78.2695 70.0728 78.2565 70.0321 78.2565 69.9507V69.5112ZM83.3737 66.4399C83.3346 66.4334 83.2776 66.4123 83.2028 66.3765C82.9326 66.2528 82.721 66.1909 82.568 66.1909C82.415 66.1909 82.2539 66.2869 82.0846 66.479C81.9186 66.6678 81.8356 66.8387 81.8356 66.9917V69.1987C81.8356 69.4429 81.9772 69.6056 82.2604 69.687C82.3841 69.7196 82.4996 69.744 82.6071 69.7603C82.7145 69.7733 82.7828 69.7863 82.8121 69.7993C82.8447 69.8123 82.861 69.8384 82.861 69.8774C82.861 69.9132 82.8447 69.9344 82.8121 69.9409H80.3658C80.3333 69.9344 80.317 69.9116 80.317 69.8726C80.317 69.814 80.3935 69.7749 80.5465 69.7554C80.8981 69.7033 81.0739 69.5177 81.0739 69.1987V66.6157C81.0739 66.479 80.999 66.3846 80.8492 66.3325C80.7841 66.3097 80.7142 66.2918 80.6393 66.2788C80.5644 66.2625 80.5042 66.2479 80.4586 66.2349C80.4163 66.2218 80.3886 66.2104 80.3756 66.2007C80.3658 66.1877 80.361 66.1632 80.361 66.1274C80.361 66.0884 80.3854 66.0558 80.4342 66.0298L81.6793 65.4438C81.7184 65.4243 81.7428 65.4146 81.7526 65.4146C81.8079 65.4146 81.8356 65.4536 81.8356 65.5317V66.3228C81.8356 66.3618 81.8453 66.3813 81.8649 66.3813C81.8909 66.3813 81.9576 66.3049 82.0651 66.1519C82.3743 65.7189 82.6298 65.5024 82.8317 65.5024C82.9456 65.5024 83.1198 65.548 83.3541 65.6392C83.5918 65.7303 83.7106 65.8068 83.7106 65.8687C83.7106 65.9435 83.6731 66.0575 83.5983 66.2104C83.5234 66.3634 83.4485 66.4399 83.3737 66.4399ZM86.4254 66.6011C86.4254 66.6727 86.3977 66.7085 86.3424 66.7085C86.2903 66.7085 86.2496 66.6694 86.2203 66.5913C86.1422 66.3765 86.025 66.186 85.8688 66.02C85.7158 65.854 85.5253 65.771 85.2975 65.771C84.998 65.771 84.7962 65.9207 84.692 66.2202C84.6595 66.3211 84.6432 66.4253 84.6432 66.5327C84.6432 66.6401 84.7115 66.7606 84.8483 66.894C84.985 67.0243 85.2096 67.1805 85.5221 67.3628C85.8346 67.5451 86.0625 67.6997 86.2057 67.8267C86.5312 68.1164 86.694 68.4517 86.694 68.8325C86.694 69.2134 86.554 69.5161 86.274 69.7407C85.9941 69.9621 85.6686 70.0728 85.2975 70.0728C85.0989 70.0728 84.9183 70.0451 84.7555 69.9897C84.596 69.9377 84.5032 69.9116 84.4772 69.9116C84.4544 69.9116 84.4153 69.9377 84.36 69.9897C84.3079 70.0451 84.2656 70.0728 84.233 70.0728H84.15C84.1305 70.0728 84.1061 69.897 84.0768 69.5454C84.0475 69.1938 84.0328 68.9855 84.0328 68.9204C84.0328 68.8553 84.0377 68.8195 84.0475 68.813C84.0605 68.8065 84.08 68.8032 84.1061 68.8032C84.1321 68.8032 84.1533 68.8114 84.1696 68.8276C84.1891 68.8439 84.2054 68.8651 84.2184 68.8911C84.2314 68.9139 84.2412 68.9383 84.2477 68.9644C84.2574 68.9904 84.2786 69.0392 84.3112 69.1108C84.5325 69.5828 84.8743 69.8188 85.3365 69.8188C85.5416 69.8188 85.706 69.744 85.8297 69.5942C85.9534 69.4412 86.0153 69.272 86.0153 69.0864C86.0153 68.9009 85.9664 68.7446 85.8688 68.6177C85.7711 68.4907 85.649 68.3752 85.5026 68.271C85.3593 68.1668 85.2031 68.0659 85.0338 67.9683C84.3763 67.5841 84.0475 67.1593 84.0475 66.6938C84.0475 66.3455 84.1972 66.0461 84.4967 65.7954C84.7962 65.5415 85.1038 65.4146 85.4196 65.4146C85.7353 65.4146 85.9681 65.4487 86.1178 65.5171C86.2708 65.5854 86.3603 65.644 86.3864 65.6929C86.4124 65.7384 86.4254 65.8914 86.4254 66.1519V66.6011ZM87.6998 69.4526C87.6998 69.2769 87.7617 69.1255 87.8854 68.9985C88.0091 68.8683 88.1588 68.8032 88.3346 68.8032C88.5071 68.8032 88.6552 68.8667 88.7789 68.9937C88.9059 69.1174 88.9694 69.2687 88.9694 69.4478C88.9694 69.6268 88.9075 69.7765 88.7838 69.897C88.6601 70.0142 88.5104 70.0728 88.3346 70.0728C88.1621 70.0728 88.0123 70.0125 87.8854 69.8921C87.7617 69.7716 87.6998 69.6252 87.6998 69.4526Z" fill="#EFB85F"/>
<path d="M17.5002 10L18.696 11.9748L21 13L18.696 14.0249L17.5002 16L16.304 14.0249L14 13L16.304 11.9748L17.5002 10Z" fill="#EFB85F"/>
<path d="M17.5002 86L18.696 87.9748L21 89L18.696 90.0249L17.5002 92L16.304 90.0249L14 89L16.304 87.9748L17.5002 86Z" fill="#EFB85F"/>
<path d="M124.5 84L125.696 85.9748L128 87L125.696 88.0249L124.5 90L123.304 88.0249L121 87L123.304 85.9748L124.5 84Z" fill="#EFB85F"/>
<path d="M80.5002 90L81.696 91.9748L84 93L81.696 94.0249L80.5002 96L79.304 94.0249L77 93L79.304 91.9748L80.5002 90Z" fill="#EFB85F"/>
<path d="M120.5 7L121.696 8.97475L124 10L121.696 11.0249L120.5 13L119.304 11.0249L117 10L119.304 8.97475L120.5 7Z" fill="#EFB85F"/>
<path d="M95.125 16.6259C95.1509 16.3615 95.1942 15.7335 95.2288 15.2377C95.2634 14.6647 95.324 14.3011 95.3932 14.2681C95.4538 14.235 95.7307 14.4113 95.999 14.6537C96.2759 14.9071 96.5182 15.0834 96.5441 15.0504C96.5615 15.0283 96.397 14.6757 96.1807 14.2791C95.9038 13.7943 95.8086 13.5519 95.8865 13.5189C95.9471 13.4968 96.3884 13.4197 96.8643 13.3426C98.3873 13.1222 98.3787 13.001 96.8384 12.7917C96.3019 12.7145 95.8519 12.6154 95.8346 12.5823C95.8086 12.5382 95.973 12.2187 96.1807 11.8661C96.3884 11.5025 96.5441 11.183 96.5182 11.15C96.4922 11.1279 96.2326 11.3152 95.9471 11.5687C95.6528 11.8331 95.3932 11.9984 95.3586 11.9543C95.3154 11.8992 95.2461 11.2381 95.1856 10.4779C95.0298 8.49462 94.9606 8.50564 94.7962 10.5219C94.7356 11.2822 94.6664 11.9433 94.6317 11.9763C94.6058 12.0094 94.3462 11.8331 94.052 11.5797C93.7664 11.3152 93.5155 11.1279 93.4895 11.161C93.4722 11.183 93.602 11.4805 93.7924 11.8111C93.9827 12.1306 94.1385 12.4611 94.1385 12.5272C94.1385 12.6044 93.7664 12.7035 93.1607 12.7917C91.6117 13.001 91.6117 13.1222 93.1693 13.3536C93.7577 13.4417 94.1385 13.5519 94.1385 13.618C94.1385 13.6841 93.9827 14.0147 93.7924 14.3342C93.3857 15.0283 93.351 15.2046 93.6799 14.9292C93.8183 14.83 94.0693 14.6096 94.251 14.4554C94.6664 14.1138 94.701 14.1689 94.7789 15.3589C94.8913 17.1107 95.0211 17.5735 95.125 16.6259Z" fill="#EFB85F"/>
<path d="M39.125 89.6259C39.1509 89.3615 39.1942 88.7335 39.2288 88.2377C39.2634 87.6647 39.324 87.3011 39.3932 87.2681C39.4538 87.235 39.7307 87.4113 39.999 87.6537C40.2759 87.9071 40.5182 88.0834 40.5441 88.0504C40.5615 88.0283 40.397 87.6757 40.1807 87.2791C39.9038 86.7943 39.8086 86.5519 39.8865 86.5189C39.9471 86.4968 40.3884 86.4197 40.8643 86.3426C42.3873 86.1222 42.3787 86.001 40.8384 85.7917C40.3019 85.7145 39.8519 85.6154 39.8346 85.5823C39.8086 85.5382 39.973 85.2187 40.1807 84.8661C40.3884 84.5025 40.5441 84.183 40.5182 84.15C40.4922 84.1279 40.2326 84.3152 39.9471 84.5687C39.6528 84.8331 39.3932 84.9984 39.3586 84.9543C39.3154 84.8992 39.2461 84.2381 39.1856 83.4779C39.0298 81.4946 38.9606 81.5056 38.7962 83.5219C38.7356 84.2822 38.6664 84.9433 38.6317 84.9763C38.6058 85.0094 38.3462 84.8331 38.052 84.5797C37.7664 84.3152 37.5155 84.1279 37.4895 84.161C37.4722 84.183 37.602 84.4805 37.7924 84.8111C37.9827 85.1306 38.1385 85.4611 38.1385 85.5272C38.1385 85.6044 37.7664 85.7035 37.1607 85.7917C35.6117 86.001 35.6117 86.1222 37.1693 86.3536C37.7577 86.4417 38.1385 86.5519 38.1385 86.618C38.1385 86.6841 37.9827 87.0147 37.7924 87.3342C37.3857 88.0283 37.351 88.2046 37.6799 87.9292C37.8183 87.83 38.0693 87.6096 38.251 87.4554C38.6664 87.1138 38.701 87.1689 38.7789 88.3589C38.8913 90.1107 39.0211 90.5735 39.125 89.6259Z" fill="#EFB85F"/>
<path d="M110.125 99.6259C110.151 99.3615 110.194 98.7335 110.229 98.2377C110.263 97.6647 110.324 97.3011 110.393 97.2681C110.454 97.235 110.731 97.4113 110.999 97.6537C111.276 97.9071 111.518 98.0834 111.544 98.0504C111.561 98.0283 111.397 97.6757 111.181 97.2791C110.904 96.7943 110.809 96.5519 110.886 96.5189C110.947 96.4968 111.388 96.4197 111.864 96.3426C113.387 96.1222 113.379 96.001 111.838 95.7917C111.302 95.7145 110.852 95.6154 110.835 95.5823C110.809 95.5382 110.973 95.2187 111.181 94.8661C111.388 94.5025 111.544 94.183 111.518 94.15C111.492 94.1279 111.233 94.3152 110.947 94.5687C110.653 94.8331 110.393 94.9984 110.359 94.9543C110.315 94.8992 110.246 94.2381 110.186 93.4779C110.03 91.4946 109.961 91.5056 109.796 93.5219C109.736 94.2822 109.666 94.9433 109.632 94.9763C109.606 95.0094 109.346 94.8331 109.052 94.5797C108.766 94.3152 108.515 94.1279 108.489 94.161C108.472 94.183 108.602 94.4805 108.792 94.8111C108.983 95.1306 109.138 95.4611 109.138 95.5272C109.138 95.6044 108.766 95.7035 108.161 95.7917C106.612 96.001 106.612 96.1222 108.169 96.3536C108.758 96.4417 109.138 96.5519 109.138 96.618C109.138 96.6841 108.983 97.0147 108.792 97.3342C108.386 98.0283 108.351 98.2046 108.68 97.9292C108.818 97.83 109.069 97.6096 109.251 97.4554C109.666 97.1138 109.701 97.1689 109.779 98.3589C109.891 100.111 110.021 100.573 110.125 99.6259Z" fill="#EFB85F"/>
<path d="M53.125 12.6259C53.1509 12.3615 53.1942 11.7335 53.2288 11.2377C53.2634 10.6647 53.324 10.3011 53.3932 10.2681C53.4538 10.235 53.7307 10.4113 53.999 10.6537C54.2759 10.9071 54.5182 11.0834 54.5441 11.0504C54.5615 11.0283 54.397 10.6757 54.1807 10.2791C53.9038 9.7943 53.8086 9.55191 53.8865 9.51885C53.9471 9.49682 54.3884 9.41969 54.8643 9.34256C56.3873 9.1222 56.3787 9.001 54.8384 8.79166C54.3019 8.71453 53.8519 8.61537 53.8346 8.58232C53.8086 8.53825 53.973 8.21872 54.1807 7.86614C54.3884 7.50255 54.5441 7.18302 54.5182 7.14997C54.4922 7.12793 54.2326 7.31524 53.9471 7.56866C53.6528 7.83309 53.3932 7.99836 53.3586 7.95429C53.3154 7.8992 53.2461 7.23811 53.1856 6.47787C53.0298 4.49462 52.9606 4.50564 52.7962 6.52194C52.7356 7.28219 52.6664 7.94327 52.6317 7.97632C52.6058 8.00938 52.3462 7.83309 52.052 7.57967C51.7664 7.31524 51.5155 7.12793 51.4895 7.16099C51.4722 7.18302 51.602 7.48051 51.7924 7.81105C51.9827 8.13058 52.1385 8.46112 52.1385 8.52723C52.1385 8.60435 51.7664 8.70352 51.1607 8.79166C49.6117 9.001 49.6117 9.1222 51.1693 9.35358C51.7577 9.44173 52.1385 9.55191 52.1385 9.61802C52.1385 9.68412 51.9827 10.0147 51.7924 10.3342C51.3857 11.0283 51.351 11.2046 51.6799 10.9292C51.8183 10.83 52.0693 10.6096 52.251 10.4554C52.6664 10.1138 52.701 10.1689 52.7789 11.3589C52.8913 13.1107 53.0211 13.5735 53.125 12.6259Z" fill="#EFB85F"/>
<circle cx="26" cy="81" r="1" fill="#EFB85F"/>
<circle cx="57" cy="96" r="1" fill="#EFB85F"/>
<circle cx="111" cy="84" r="1" fill="#EFB85F"/>
<circle cx="139" cy="16" r="1" fill="#EFB85F"/>
<circle cx="143" cy="55" r="1" fill="#EFB85F"/>
<circle cx="139" cy="93" r="1" fill="#EFB85F"/>
<circle cx="36" cy="10" r="1" fill="#EFB85F"/>
<circle cx="75" cy="6" r="1" fill="#EFB85F"/>
<path d="M30.1536 96.762L33.0001 96.6487L30.1536 96.5354L31.0464 95.3761L30.0932 96.4619L30 93L29.9069 96.4619L28.9537 95.3761L29.8465 96.5354L27 96.6487L29.8465 96.762L28.9537 97.9212L29.9069 96.8354L30 100.297L30.0932 96.8354L31.0464 97.9212L30.1536 96.762Z" fill="#EFB85F"/>
<path d="M11.1536 76.762L14.0001 76.6487L11.1536 76.5354L12.0464 75.3761L11.0932 76.4619L11 73L10.9069 76.4619L9.95375 75.3761L10.8465 76.5354L8 76.6487L10.8465 76.762L9.95375 77.9212L10.9069 76.8354L11 80.2973L11.0932 76.8354L12.0464 77.9212L11.1536 76.762Z" fill="#EFB85F"/>
<path d="M135.154 32.762L138 32.6487L135.154 32.5354L136.046 31.3761L135.093 32.4619L135 29L134.907 32.4619L133.954 31.3761L134.847 32.5354L132 32.6487L134.847 32.762L133.954 33.9212L134.907 32.8354L135 36.2973L135.093 32.8354L136.046 33.9212L135.154 32.762Z" fill="#EFB85F"/>
<path d="M68.1536 11.762L71.0001 11.6487L68.1536 11.5354L69.0464 10.3761L68.0932 11.4619L68 8L67.9069 11.4619L66.9537 10.3761L67.8465 11.5354L65 11.6487L67.8465 11.762L66.9537 12.9212L67.9069 11.8354L68 15.2973L68.0932 11.8354L69.0464 12.9212L68.1536 11.762Z" fill="#EFB85F"/>
<path d="M137.154 76.762L140 76.6487L137.154 76.5354L138.046 75.3761L137.093 76.4619L137 73L136.907 76.4619L135.954 75.3761L136.847 76.5354L134 76.6487L136.847 76.762L135.954 77.9212L136.907 76.8354L137 80.2973L137.093 76.8354L138.046 77.9212L137.154 76.762Z" fill="#EFB85F"/>
<path d="M129.154 95.762L132 95.6487L129.154 95.5354L130.046 94.3761L129.093 95.4619L129 92L128.907 95.4619L127.954 94.3761L128.847 95.5354L126 95.6487L128.847 95.762L127.954 96.9212L128.907 95.8354L129 99.2973L129.093 95.8354L130.046 96.9212L129.154 95.762Z" fill="#EFB85F"/>
<path d="M8.15357 18.762L11.0001 18.6487L8.15357 18.5354L9.04635 17.3761L8.09316 18.4619L8.00005 15L7.90694 18.4619L6.95375 17.3761L7.84653 18.5354L5 18.6487L7.84653 18.762L6.95375 19.9212L7.90694 18.8354L8.00005 22.2973L8.09316 18.8354L9.04635 19.9212L8.15357 18.762Z" fill="#EFB85F"/>
</svg>
