<svg width="148" height="105" viewBox="0 0 148 105" fill="none" xmlns="http://www.w3.org/2000/svg">
<rect width="147.402" height="104.882" rx="10" fill="black"/>
<path d="M13.1661 42.9414C13.1427 42.9414 13.131 42.9297 13.131 42.9062V42.8008C13.131 42.7773 13.1427 42.7656 13.1661 42.7656H13.2716C13.5236 42.7656 13.7433 42.7129 13.9308 42.6074C14.007 42.5635 14.0699 42.4961 14.1198 42.4053C14.1696 42.3115 14.1945 42.2075 14.1945 42.0933V37.4438C14.1945 37.2622 14.0773 37.123 13.8429 37.0264C13.6788 36.9561 13.5045 36.9209 13.3199 36.9209H13.2233C13.1998 36.9209 13.1881 36.9092 13.1881 36.8857V36.7803C13.1881 36.7568 13.1998 36.7451 13.2233 36.7451H16.1984C16.2218 36.7451 16.2335 36.7568 16.2335 36.7803V36.8857C16.2335 36.9092 16.2218 36.9209 16.1984 36.9209H16.0094C15.7076 36.9209 15.441 36.9634 15.2096 37.0483C15.1422 37.0718 15.0983 37.1113 15.0778 37.167C15.0602 37.2197 15.0514 37.312 15.0514 37.4438V42.3174C15.0573 42.3672 15.0836 42.4141 15.1305 42.458C15.1774 42.502 15.2301 42.5239 15.2887 42.5239H17.0245C17.2853 42.5239 17.5416 42.3701 17.7936 42.0625C17.861 41.9805 17.9445 41.8721 18.0441 41.7373C18.1437 41.5996 18.2052 41.522 18.2286 41.5044C18.3224 41.4341 18.3693 41.4355 18.3693 41.5088C18.3693 41.5264 18.3649 41.5439 18.3561 41.5615L17.6925 42.8623C17.6661 42.915 17.6354 42.9414 17.6002 42.9414H13.1661ZM19.4196 40.6255C19.3698 40.6255 19.3448 40.7324 19.3448 40.9463C19.3448 41.4004 19.4796 41.7812 19.7491 42.0889C20.0187 42.3965 20.3527 42.5503 20.7511 42.5503C21.1525 42.5503 21.5377 42.3774 21.9069 42.0317C21.9127 42.0259 21.92 42.0229 21.9288 42.0229H21.9508C21.9684 42.0229 21.9845 42.0376 21.9991 42.0669C22.0167 42.0933 22.0328 42.1108 22.0475 42.1196C21.7076 42.5327 21.3077 42.8184 20.8478 42.9766C20.6896 43.0322 20.5109 43.0601 20.3116 43.0601C20.1124 43.0601 19.9103 43.0059 19.7052 42.8975C19.5001 42.7861 19.3243 42.6411 19.1779 42.4624C18.8673 42.0903 18.712 41.6274 18.712 41.0737C18.712 40.5171 18.8805 40.0103 19.2174 39.5532C19.5573 39.0962 20.0231 38.8677 20.6149 38.8677C21.0397 38.8677 21.3868 39.0581 21.6564 39.439C21.9259 39.8169 22.0607 40.1494 22.0607 40.4365C22.0607 40.5625 22.0299 40.6255 21.9684 40.6255H19.4196ZM19.4679 40.2036C19.4679 40.2593 19.4943 40.2871 19.547 40.2871H21.2037C21.2799 40.2871 21.318 40.2417 21.318 40.1509C21.318 39.9399 21.2228 39.7246 21.0323 39.5049C20.8448 39.2822 20.6383 39.1709 20.4127 39.1709C20.193 39.1709 19.9923 39.2705 19.8107 39.4697C19.632 39.6689 19.5177 39.896 19.4679 40.1509V40.2036ZM24.9303 39.9355C24.9303 40 24.9054 40.0322 24.8556 40.0322C24.8087 40.0322 24.7721 39.9971 24.7457 39.9268C24.6754 39.7334 24.5699 39.562 24.4293 39.4126C24.2916 39.2632 24.1202 39.1885 23.9152 39.1885C23.6456 39.1885 23.464 39.3232 23.3702 39.5928C23.3409 39.6836 23.3263 39.7773 23.3263 39.874C23.3263 39.9707 23.3878 40.0791 23.5109 40.1992C23.6339 40.3164 23.8361 40.457 24.1173 40.6211C24.3986 40.7852 24.6036 40.9243 24.7325 41.0386C25.0255 41.2993 25.172 41.6011 25.172 41.9438C25.172 42.2866 25.046 42.5591 24.7941 42.7612C24.5421 42.9604 24.2491 43.0601 23.9152 43.0601C23.7365 43.0601 23.5739 43.0352 23.4274 42.9854C23.2838 42.9385 23.2003 42.915 23.1769 42.915C23.1564 42.915 23.1212 42.9385 23.0714 42.9854C23.0245 43.0352 22.9865 43.0601 22.9572 43.0601H22.8824C22.8649 43.0601 22.8429 42.9019 22.8165 42.5854C22.7902 42.269 22.777 42.0815 22.777 42.0229C22.777 41.9644 22.7814 41.9321 22.7902 41.9263C22.8019 41.9204 22.8195 41.9175 22.8429 41.9175C22.8663 41.9175 22.8854 41.9248 22.9 41.9395C22.9176 41.9541 22.9323 41.9731 22.944 41.9966C22.9557 42.0171 22.9645 42.0391 22.9703 42.0625C22.9791 42.0859 22.9982 42.1299 23.0275 42.1943C23.2267 42.6191 23.5343 42.8315 23.9503 42.8315C24.1349 42.8315 24.2828 42.7642 24.3942 42.6294C24.5055 42.4917 24.5612 42.3394 24.5612 42.1724C24.5612 42.0054 24.5172 41.8647 24.4293 41.7505C24.3414 41.6362 24.2316 41.5322 24.0997 41.4385C23.9708 41.3447 23.8302 41.2539 23.6779 41.166C23.0861 40.8203 22.7902 40.438 22.7902 40.019C22.7902 39.7056 22.9249 39.436 23.1945 39.2104C23.464 38.9819 23.7408 38.8677 24.025 38.8677C24.3092 38.8677 24.5187 38.8984 24.6534 38.96C24.7911 39.0215 24.8717 39.0742 24.8951 39.1182C24.9186 39.1592 24.9303 39.2969 24.9303 39.5312V39.9355ZM28.9381 40.6255C28.8883 40.6255 28.8634 40.7324 28.8634 40.9463C28.8634 41.4004 28.9982 41.7812 29.2677 42.0889C29.5372 42.3965 29.8712 42.5503 30.2697 42.5503C30.671 42.5503 31.0563 42.3774 31.4254 42.0317C31.4313 42.0259 31.4386 42.0229 31.4474 42.0229H31.4694C31.4869 42.0229 31.5031 42.0376 31.5177 42.0669C31.5353 42.0933 31.5514 42.1108 31.566 42.1196C31.2262 42.5327 30.8263 42.8184 30.3663 42.9766C30.2081 43.0322 30.0294 43.0601 29.8302 43.0601C29.631 43.0601 29.4288 43.0059 29.2238 42.8975C29.0187 42.7861 28.8429 42.6411 28.6964 42.4624C28.3859 42.0903 28.2306 41.6274 28.2306 41.0737C28.2306 40.5171 28.399 40.0103 28.736 39.5532C29.0758 39.0962 29.5416 38.8677 30.1334 38.8677C30.5582 38.8677 30.9054 39.0581 31.1749 39.439C31.4445 39.8169 31.5792 40.1494 31.5792 40.4365C31.5792 40.5625 31.5485 40.6255 31.4869 40.6255H28.9381ZM28.9865 40.2036C28.9865 40.2593 29.0128 40.2871 29.0656 40.2871H30.7223C30.7985 40.2871 30.8365 40.2417 30.8365 40.1509C30.8365 39.9399 30.7413 39.7246 30.5509 39.5049C30.3634 39.2822 30.1569 39.1709 29.9313 39.1709C29.7115 39.1709 29.5109 39.2705 29.3292 39.4697C29.1505 39.6689 29.0363 39.896 28.9865 40.1509V40.2036ZM29.5138 38.125C29.5021 38.1133 29.4962 38.1045 29.4962 38.0986C29.4962 38.0928 29.5021 38.084 29.5138 38.0723L30.4498 36.7759C30.5553 36.6323 30.6593 36.5605 30.7618 36.5605C30.8644 36.5605 30.9449 36.5942 31.0035 36.6616C31.0651 36.7261 31.0958 36.814 31.0958 36.9253C31.0958 37.0366 31.0153 37.1611 30.8541 37.2988L29.672 38.2524C29.6573 38.2612 29.6456 38.2656 29.6368 38.2656C29.6281 38.2656 29.6193 38.2612 29.6105 38.2524L29.5138 38.125ZM33.3854 39.562C33.3678 39.562 33.359 39.5752 33.359 39.6016V42.0273C33.359 42.2031 33.3971 42.3408 33.4733 42.4404C33.5524 42.54 33.652 42.5898 33.7721 42.5898C33.8922 42.5898 33.9962 42.5708 34.0841 42.5327C34.1749 42.4917 34.2526 42.4478 34.317 42.4009C34.3844 42.354 34.4445 42.3115 34.4972 42.2734C34.5499 42.2324 34.5968 42.2119 34.6378 42.2119C34.6788 42.2119 34.6993 42.2222 34.6993 42.2427C34.6993 42.313 34.692 42.3584 34.6774 42.3789C34.3258 42.833 33.986 43.0601 33.6578 43.0601C33.3326 43.0601 33.0865 42.9575 32.9196 42.7524C32.7555 42.5444 32.6735 42.2969 32.6735 42.0098V39.562H32.3439C32.2618 39.562 32.2179 39.5356 32.212 39.4829C32.2091 39.4302 32.2179 39.3965 32.2384 39.3818C32.3937 39.2822 32.6075 39.1035 32.88 38.8457C32.9093 38.8135 32.9489 38.7651 32.9987 38.7007C33.0485 38.6362 33.1202 38.5483 33.214 38.437C33.3107 38.3257 33.3839 38.27 33.4337 38.27C33.4835 38.27 33.5084 38.2905 33.5084 38.3315C33.5084 38.3374 33.4586 38.5293 33.359 38.9072C33.359 38.96 33.3824 38.9878 33.4293 38.9907H34.5499C34.6788 38.9907 34.7433 39.1724 34.7433 39.5356C34.7433 39.5532 34.7316 39.562 34.7081 39.562H33.3854ZM35.1871 40.9683C35.1871 40.3911 35.3907 39.896 35.798 39.4829C36.2081 39.0669 36.6989 38.8589 37.2701 38.8589C37.8414 38.8589 38.338 39.061 38.7599 39.4653C39.1818 39.8667 39.3927 40.3633 39.3927 40.9551C39.3927 41.5469 39.192 42.0464 38.7906 42.4536C38.3922 42.8579 37.8912 43.0601 37.2877 43.0601C36.6842 43.0601 36.1832 42.855 35.7848 42.4448C35.3864 42.0347 35.1871 41.5425 35.1871 40.9683ZM36.2814 42.0977C36.5685 42.5811 36.9596 42.8228 37.4547 42.8228C37.8385 42.8228 38.1315 42.6689 38.3336 42.3613C38.5387 42.0537 38.6412 41.6758 38.6412 41.2275C38.6412 40.7793 38.4977 40.3193 38.2106 39.8477C37.9264 39.376 37.5426 39.1401 37.0592 39.1401C36.7047 39.1401 36.4249 39.2939 36.2198 39.6016C36.0177 39.9062 35.9166 40.2944 35.9166 40.7661C35.9166 41.2349 36.0382 41.6787 36.2814 42.0977ZM40.0343 42.9414C40.005 42.9355 39.9904 42.915 39.9904 42.8799C39.9904 42.8271 40.0592 42.792 40.1969 42.7744C40.5133 42.7275 40.6715 42.5605 40.6715 42.2734V39.9487C40.6715 39.8257 40.6041 39.7407 40.4694 39.6938C40.4108 39.6733 40.3478 39.6572 40.2804 39.6455C40.213 39.6309 40.1588 39.6177 40.1178 39.606C40.0797 39.5942 40.0548 39.584 40.0431 39.5752C40.0343 39.5635 40.0299 39.5415 40.0299 39.5093C40.0299 39.4741 40.0519 39.4448 40.0958 39.4214L41.2164 38.894C41.2516 38.8765 41.2736 38.8677 41.2823 38.8677C41.3322 38.8677 41.3571 38.9028 41.3571 38.9731V42.2734C41.3571 42.5605 41.5153 42.7275 41.8317 42.7744C41.9694 42.792 42.0382 42.8228 42.0382 42.8667C42.0382 42.9106 42.0236 42.9355 41.9943 42.9414H40.0343ZM40.9484 37.6328C40.8282 37.6328 40.7213 37.5947 40.6276 37.5186C40.5367 37.4424 40.4913 37.3369 40.4913 37.2021C40.4913 37.0645 40.5353 36.9561 40.6232 36.877C40.7111 36.7979 40.8151 36.7583 40.9352 36.7583C41.0582 36.7583 41.1608 36.8052 41.2428 36.8989C41.3278 36.9927 41.3702 37.0938 41.3702 37.2021C41.3702 37.3105 41.3307 37.4102 41.2516 37.501C41.1725 37.5889 41.0714 37.6328 40.9484 37.6328ZM44.1871 42.7744C44.3248 42.792 44.3937 42.8271 44.3937 42.8799C44.3937 42.915 44.379 42.9355 44.3497 42.9414H42.3898C42.3605 42.9355 42.3458 42.915 42.3458 42.8799C42.3458 42.8271 42.4147 42.792 42.5524 42.7744C42.8688 42.7275 43.027 42.5605 43.027 42.2734V36.7935C43.027 36.6704 42.9596 36.5854 42.8248 36.5386C42.7662 36.5181 42.7032 36.502 42.6359 36.4902C42.5685 36.4756 42.5143 36.4624 42.4733 36.4507C42.4352 36.439 42.4103 36.4287 42.3986 36.4199C42.3898 36.4082 42.3854 36.3862 42.3854 36.354C42.3854 36.3188 42.4073 36.2896 42.4513 36.2661L43.5719 35.7388C43.6071 35.7212 43.629 35.7124 43.6378 35.7124C43.6876 35.7124 43.7125 35.7476 43.7125 35.8179V42.2734C43.7125 42.5605 43.8707 42.7275 44.1871 42.7744ZM45.567 40.6255C45.5172 40.6255 45.4923 40.7324 45.4923 40.9463C45.4923 41.4004 45.6271 41.7812 45.8966 42.0889C46.1661 42.3965 46.5001 42.5503 46.8986 42.5503C47.2999 42.5503 47.6852 42.3774 48.0543 42.0317C48.0602 42.0259 48.0675 42.0229 48.0763 42.0229H48.0983C48.1158 42.0229 48.132 42.0376 48.1466 42.0669C48.1642 42.0933 48.1803 42.1108 48.1949 42.1196C47.8551 42.5327 47.4552 42.8184 46.9952 42.9766C46.837 43.0322 46.6583 43.0601 46.4591 43.0601C46.2599 43.0601 46.0577 43.0059 45.8527 42.8975C45.6476 42.7861 45.4718 42.6411 45.3253 42.4624C45.0148 42.0903 44.8595 41.6274 44.8595 41.0737C44.8595 40.5171 45.028 40.0103 45.3649 39.5532C45.7047 39.0962 46.1705 38.8677 46.7623 38.8677C47.1871 38.8677 47.5343 39.0581 47.8038 39.439C48.0734 39.8169 48.2081 40.1494 48.2081 40.4365C48.2081 40.5625 48.1774 40.6255 48.1158 40.6255H45.567ZM45.6154 40.2036C45.6154 40.2593 45.6417 40.2871 45.6945 40.2871H47.3512C47.4274 40.2871 47.4655 40.2417 47.4655 40.1509C47.4655 39.9399 47.3702 39.7246 47.1798 39.5049C46.9923 39.2822 46.7858 39.1709 46.5602 39.1709C46.3405 39.1709 46.1398 39.2705 45.9581 39.4697C45.7794 39.6689 45.6652 39.896 45.6154 40.1509V40.2036ZM51.0778 39.9355C51.0778 40 51.0529 40.0322 51.0031 40.0322C50.9562 40.0322 50.9196 39.9971 50.8932 39.9268C50.8229 39.7334 50.7174 39.562 50.5768 39.4126C50.4391 39.2632 50.2677 39.1885 50.0626 39.1885C49.7931 39.1885 49.6115 39.3232 49.5177 39.5928C49.4884 39.6836 49.4738 39.7773 49.4738 39.874C49.4738 39.9707 49.5353 40.0791 49.6583 40.1992C49.7814 40.3164 49.9835 40.457 50.2648 40.6211C50.546 40.7852 50.7511 40.9243 50.88 41.0386C51.173 41.2993 51.3195 41.6011 51.3195 41.9438C51.3195 42.2866 51.1935 42.5591 50.9415 42.7612C50.6896 42.9604 50.3966 43.0601 50.0626 43.0601C49.8839 43.0601 49.7213 43.0352 49.5748 42.9854C49.4313 42.9385 49.3478 42.915 49.3243 42.915C49.3038 42.915 49.2687 42.9385 49.2189 42.9854C49.172 43.0352 49.1339 43.0601 49.1046 43.0601H49.0299C49.0123 43.0601 48.9904 42.9019 48.964 42.5854C48.9376 42.269 48.9244 42.0815 48.9244 42.0229C48.9244 41.9644 48.9288 41.9321 48.9376 41.9263C48.9493 41.9204 48.9669 41.9175 48.9904 41.9175C49.0138 41.9175 49.0328 41.9248 49.0475 41.9395C49.0651 41.9541 49.0797 41.9731 49.0914 41.9966C49.1031 42.0171 49.1119 42.0391 49.1178 42.0625C49.1266 42.0859 49.1456 42.1299 49.1749 42.1943C49.3741 42.6191 49.6818 42.8315 50.0978 42.8315C50.2823 42.8315 50.4303 42.7642 50.5416 42.6294C50.653 42.4917 50.7086 42.3394 50.7086 42.1724C50.7086 42.0054 50.6647 41.8647 50.5768 41.7505C50.4889 41.6362 50.379 41.5322 50.2472 41.4385C50.1183 41.3447 49.9777 41.2539 49.8253 41.166C49.2335 40.8203 48.9376 40.438 48.9376 40.019C48.9376 39.7056 49.0724 39.436 49.3419 39.2104C49.6115 38.9819 49.8883 38.8677 50.1725 38.8677C50.4567 38.8677 50.6661 38.8984 50.8009 38.96C50.9386 39.0215 51.0192 39.0742 51.0426 39.1182C51.066 39.1592 51.0778 39.2969 51.0778 39.5312V39.9355ZM54.5494 43.0513C54.5319 43.0513 54.5231 43.0352 54.5231 43.0029C54.5231 42.9736 54.5524 42.9399 54.611 42.9019C55.7067 42.4272 56.4991 41.8076 56.9884 41.043C57.0675 40.917 57.1071 40.8408 57.1071 40.8145C57.1071 40.7881 57.0939 40.7749 57.0675 40.7749L56.6193 40.8848C56.4728 40.9229 56.2882 40.9419 56.0656 40.9419C55.8458 40.9419 55.6276 40.8848 55.4108 40.7705C55.194 40.6533 55.0094 40.501 54.8571 40.3135C54.5465 39.9355 54.3912 39.48 54.3912 38.9468C54.3912 38.4136 54.5656 37.936 54.9142 37.5142C55.2657 37.0923 55.7345 36.8813 56.3204 36.8813C56.9093 36.8813 57.3971 37.1069 57.7838 37.5581C58.1705 38.0093 58.3639 38.5571 58.3639 39.2017C58.3639 39.9897 58.1237 40.6899 57.6432 41.3022C57.1656 41.9146 56.5372 42.3892 55.7579 42.7261C55.2716 42.9429 54.8688 43.0513 54.5494 43.0513ZM55.1823 39.0435C55.1823 39.4653 55.3009 39.8462 55.5382 40.186C55.7755 40.5229 56.0817 40.6914 56.4567 40.6914C56.6852 40.6914 56.8712 40.6606 57.0148 40.5991C57.1613 40.5376 57.2609 40.4849 57.3136 40.4409C57.4689 40.3149 57.5465 39.9268 57.5465 39.2764C57.5465 38.8633 57.5245 38.5571 57.4806 38.3579C57.3986 37.9624 57.2653 37.6562 57.0807 37.4395C56.8961 37.2227 56.6354 37.1143 56.2985 37.1143C55.774 37.1143 55.4298 37.4585 55.2657 38.147C55.2101 38.3784 55.1823 38.6392 55.1823 38.9292V39.0435ZM59.6075 38.4194C59.587 38.4194 59.5577 38.3813 59.5197 38.3052C59.5197 38.2964 59.5724 38.2583 59.6779 38.1909C59.7833 38.1206 59.9928 37.9463 60.3063 37.668C60.6198 37.3896 60.879 37.1274 61.0841 36.8813H61.3302C61.3683 36.8813 61.3917 36.8872 61.4005 36.8989C61.4093 36.9106 61.4137 36.9326 61.4137 36.9648V42.3262C61.4137 42.5107 61.4327 42.6147 61.4708 42.6382C61.6144 42.7231 61.9059 42.7656 62.3453 42.7656C62.3688 42.7656 62.3805 42.7773 62.3805 42.8008V42.9062C62.3805 42.9297 62.3688 42.9414 62.3453 42.9414H59.6998C59.6764 42.9414 59.6647 42.9297 59.6647 42.9062V42.8008C59.6647 42.7773 59.6764 42.7656 59.6998 42.7656C59.8463 42.7568 59.9738 42.751 60.0822 42.748C60.1906 42.7422 60.3048 42.7334 60.4249 42.7217C60.545 42.71 60.6285 42.6909 60.6754 42.6646C60.7252 42.6382 60.7545 42.5986 60.7633 42.5459C60.7721 42.4932 60.7765 42.4243 60.7765 42.3394V37.6592C60.7794 37.6533 60.7472 37.6768 60.6798 37.7295C60.299 38.0342 59.9503 38.2627 59.6339 38.415L59.6075 38.4194ZM65.0524 42.7129C65.0524 43.2578 64.796 43.7119 64.2833 44.0752C64.1661 44.1602 64.0782 44.2026 64.0197 44.2026C63.9757 44.2026 63.9537 44.1631 63.9537 44.084C63.9537 44.0371 63.9845 43.9917 64.046 43.9478C64.1105 43.9067 64.1573 43.873 64.1866 43.8467C64.4825 43.5801 64.6305 43.3384 64.6305 43.1216C64.6305 43.0366 64.6129 42.9854 64.5778 42.9678C64.5455 42.9502 64.4738 42.9414 64.3624 42.9414C64.2511 42.9414 64.1339 42.8989 64.0109 42.814C63.8907 42.729 63.8307 42.6045 63.8307 42.4404C63.8307 42.2764 63.8702 42.1592 63.9493 42.0889C64.0841 41.9658 64.213 41.9043 64.3361 41.9043C64.5646 41.9043 64.7404 41.9951 64.8634 42.1768C64.9894 42.3555 65.0524 42.5342 65.0524 42.7129ZM70.5939 39.2896C70.629 39.2837 70.6818 39.2808 70.7521 39.2808C71.0919 39.2808 71.4039 39.4229 71.6881 39.707C71.9723 39.9912 72.1144 40.3545 72.1144 40.7969C72.1144 41.2363 71.9972 41.6245 71.7628 41.9614C71.5314 42.2983 71.2413 42.5664 70.8927 42.7656C70.547 42.9619 70.2115 43.0601 69.8864 43.0601C69.1744 43.0601 68.6896 42.9165 68.4318 42.6294C68.3644 42.5562 68.316 42.4683 68.2867 42.3657C68.2867 42.1694 68.4083 42.0713 68.6515 42.0713C68.713 42.0713 68.8361 42.1445 69.0206 42.291C69.2081 42.4346 69.3839 42.5532 69.548 42.647C69.712 42.7407 69.8966 42.7847 70.1017 42.7788C70.4855 42.7671 70.7975 42.5825 71.0377 42.2251C71.2809 41.8647 71.4025 41.4722 71.4025 41.0474C71.4025 40.6196 71.297 40.2974 71.0861 40.0806C70.8751 39.8638 70.6246 39.7554 70.3346 39.7554C70.1793 39.7554 70.0504 39.7847 69.9479 39.8433C69.8453 39.8989 69.7853 39.9385 69.7677 39.9619C69.7501 39.9854 69.734 39.9971 69.7194 39.9971C69.7076 39.9971 69.6915 39.9854 69.671 39.9619C69.6505 39.9385 69.6403 39.918 69.6403 39.9004C69.6403 39.8828 69.649 39.8652 69.6666 39.8477C69.6871 39.8271 69.7106 39.8066 69.7369 39.7861C69.7633 39.7627 69.7897 39.7407 69.816 39.7202C70.5455 39.1519 70.9103 38.6538 70.9103 38.2261C70.9103 37.98 70.818 37.7749 70.6334 37.6108C70.4489 37.4468 70.2526 37.3647 70.0446 37.3647C69.5055 37.3647 69.0704 37.668 68.7394 38.2744C68.7365 38.2773 68.7247 38.2788 68.7042 38.2788C68.6866 38.2788 68.6588 38.27 68.6207 38.2524C68.5826 38.2349 68.5636 38.2217 68.5636 38.2129C68.5636 38.2041 68.5665 38.1909 68.5724 38.1733C68.5812 38.1558 68.6046 38.0986 68.6427 38.002C68.6808 37.9053 68.7599 37.7822 68.88 37.6328C69.0031 37.4805 69.1378 37.3486 69.2843 37.2373C69.5978 37 69.8805 36.8813 70.1324 36.8813C70.5953 36.8813 70.9469 36.9736 71.1871 37.1582C71.4274 37.3428 71.5475 37.6006 71.5475 37.9316C71.5475 38.2598 71.3688 38.6025 71.0114 38.96C70.9498 39.0068 70.8619 39.0698 70.7477 39.1489C70.6364 39.2251 70.5807 39.2705 70.5807 39.2852V39.2896H70.5939ZM73.7799 37.6548L73.7096 39.2896C73.7096 39.3247 73.7111 39.3408 73.714 39.3379C73.799 39.2529 73.9557 39.1914 74.1842 39.1533C74.4127 39.1152 74.587 39.0962 74.7072 39.0962C74.962 39.0962 75.2448 39.165 75.5553 39.3027C75.8658 39.4375 76.131 39.6426 76.3507 39.918C76.5704 40.1904 76.6803 40.4937 76.6803 40.8276C76.6803 41.396 76.5616 41.8428 76.3243 42.168C76.09 42.4932 75.797 42.7231 75.4454 42.8579C75.0968 42.9927 74.7335 43.0601 74.3556 43.0601C73.9806 43.0601 73.6554 42.9912 73.38 42.8535C73.1954 42.7627 73.0929 42.6484 73.0724 42.5107C73.0724 42.4082 73.1061 42.3262 73.1735 42.2646C73.2438 42.2002 73.3229 42.168 73.4108 42.168C73.5016 42.168 73.5953 42.2031 73.692 42.2734C73.7887 42.3408 73.8854 42.417 73.9821 42.502C74.0817 42.584 74.1813 42.6602 74.2809 42.7305C74.3834 42.7979 74.5021 42.8315 74.6368 42.8315C74.9093 42.8315 75.1481 42.7437 75.3531 42.5679C75.5612 42.3892 75.715 42.1753 75.8146 41.9263C75.9142 41.6772 75.964 41.4458 75.964 41.2319C75.964 40.8335 75.8761 40.5215 75.7003 40.2959C75.5275 40.0703 75.3282 39.9194 75.1027 39.8433C74.88 39.7642 74.6881 39.7246 74.527 39.7246C74.3658 39.7246 74.2325 39.7422 74.1271 39.7773C74.0216 39.8125 73.9264 39.8521 73.8414 39.896C73.7594 39.937 73.6906 39.9766 73.6349 40.0146C73.5822 40.0498 73.547 40.0718 73.5294 40.0806C73.5118 40.0894 73.4928 40.0938 73.4723 40.0938C73.4547 40.0938 73.4459 40.0718 73.4459 40.0278L73.5778 37.0615H75.8146C75.9552 37.0615 76.0402 37.0264 76.0695 36.9561C76.0782 36.9326 76.09 36.9077 76.1046 36.8813H76.2848L76.1793 37.624H73.8722C73.8107 37.624 73.7799 37.6343 73.7799 37.6548ZM78.983 42.7129C78.983 43.2578 78.7267 43.7119 78.214 44.0752C78.0968 44.1602 78.0089 44.2026 77.9503 44.2026C77.9064 44.2026 77.8844 44.1631 77.8844 44.084C77.8844 44.0371 77.9152 43.9917 77.9767 43.9478C78.0411 43.9067 78.088 43.873 78.1173 43.8467C78.4132 43.5801 78.5612 43.3384 78.5612 43.1216C78.5612 43.0366 78.5436 42.9854 78.5084 42.9678C78.4762 42.9502 78.4044 42.9414 78.2931 42.9414C78.1818 42.9414 78.0646 42.8989 77.9415 42.814C77.8214 42.729 77.7614 42.6045 77.7614 42.4404C77.7614 42.2764 77.8009 42.1592 77.88 42.0889C78.0148 41.9658 78.1437 41.9043 78.2667 41.9043C78.4952 41.9043 78.671 41.9951 78.7941 42.1768C78.92 42.3555 78.983 42.5342 78.983 42.7129ZM82.2657 39.896C82.2657 39.1724 82.4679 38.4897 82.8722 37.8481C83.2765 37.2036 83.7262 36.8813 84.2213 36.8813C84.611 36.8813 84.9596 37.0308 85.2672 37.3296C85.5778 37.6255 85.8121 38.0137 85.9703 38.4941C86.1285 38.9746 86.2076 39.4771 86.2076 40.0015C86.2076 40.8013 86.0275 41.5015 85.6671 42.1021C85.4298 42.5005 85.1398 42.7803 84.797 42.9414C84.6212 43.0205 84.4396 43.0601 84.2521 43.0601C83.8976 43.0601 83.568 42.9165 83.2633 42.6294C82.9586 42.3394 82.7155 41.9805 82.5338 41.5527C82.3551 41.1221 82.2657 40.7061 82.2657 40.3047V39.896ZM84.2653 42.8008C85.0856 42.8008 85.4957 41.9497 85.4957 40.2476C85.4957 39.5356 85.4811 39.0566 85.4518 38.8105C85.3903 38.2949 85.2745 37.9023 85.1046 37.6328C84.8937 37.3047 84.5905 37.1406 84.1949 37.1406C83.4508 37.1406 83.048 37.8921 82.9865 39.395C82.9777 39.6118 82.9733 39.8726 82.9733 40.1772C82.9733 40.9771 83.0597 41.5967 83.2325 42.0361C83.4347 42.5459 83.7789 42.8008 84.2653 42.8008ZM89.1388 39.2896C89.174 39.2837 89.2267 39.2808 89.297 39.2808C89.6368 39.2808 89.9489 39.4229 90.233 39.707C90.5172 39.9912 90.6593 40.3545 90.6593 40.7969C90.6593 41.2363 90.5421 41.6245 90.3077 41.9614C90.0763 42.2983 89.7863 42.5664 89.4376 42.7656C89.0919 42.9619 88.7565 43.0601 88.4313 43.0601C87.7194 43.0601 87.2345 42.9165 86.9767 42.6294C86.9093 42.5562 86.861 42.4683 86.8317 42.3657C86.8317 42.1694 86.9532 42.0713 87.1964 42.0713C87.2579 42.0713 87.381 42.1445 87.5656 42.291C87.7531 42.4346 87.9288 42.5532 88.0929 42.647C88.257 42.7407 88.4415 42.7847 88.6466 42.7788C89.0304 42.7671 89.3424 42.5825 89.5826 42.2251C89.8258 41.8647 89.9474 41.4722 89.9474 41.0474C89.9474 40.6196 89.8419 40.2974 89.631 40.0806C89.42 39.8638 89.1696 39.7554 88.8795 39.7554C88.7242 39.7554 88.5953 39.7847 88.4928 39.8433C88.3903 39.8989 88.3302 39.9385 88.3126 39.9619C88.295 39.9854 88.2789 39.9971 88.2643 39.9971C88.2526 39.9971 88.2365 39.9854 88.2159 39.9619C88.1954 39.9385 88.1852 39.918 88.1852 39.9004C88.1852 39.8828 88.194 39.8652 88.2115 39.8477C88.2321 39.8271 88.2555 39.8066 88.2819 39.7861C88.3082 39.7627 88.3346 39.7407 88.361 39.7202C89.0905 39.1519 89.4552 38.6538 89.4552 38.2261C89.4552 37.98 89.3629 37.7749 89.1783 37.6108C88.9938 37.4468 88.7975 37.3647 88.5895 37.3647C88.0504 37.3647 87.6154 37.668 87.2843 38.2744C87.2814 38.2773 87.2697 38.2788 87.2491 38.2788C87.2316 38.2788 87.2037 38.27 87.1656 38.2524C87.1276 38.2349 87.1085 38.2217 87.1085 38.2129C87.1085 38.2041 87.1115 38.1909 87.1173 38.1733C87.1261 38.1558 87.1495 38.0986 87.1876 38.002C87.2257 37.9053 87.3048 37.7822 87.4249 37.6328C87.548 37.4805 87.6827 37.3486 87.8292 37.2373C88.1427 37 88.4254 36.8813 88.6774 36.8813C89.1403 36.8813 89.4918 36.9736 89.7321 37.1582C89.9723 37.3428 90.0924 37.6006 90.0924 37.9316C90.0924 38.2598 89.9137 38.6025 89.5563 38.96C89.4948 39.0068 89.4069 39.0698 89.2926 39.1489C89.1813 39.2251 89.1256 39.2705 89.1256 39.2852V39.2896H89.1388ZM96.0162 39.9355C96.0162 40 95.9913 40.0322 95.9415 40.0322C95.8947 40.0322 95.858 39.9971 95.8317 39.9268C95.7614 39.7334 95.6559 39.562 95.5153 39.4126C95.3776 39.2632 95.2062 39.1885 95.0011 39.1885C94.7316 39.1885 94.5499 39.3232 94.4562 39.5928C94.4269 39.6836 94.4122 39.7773 94.4122 39.874C94.4122 39.9707 94.4738 40.0791 94.5968 40.1992C94.7198 40.3164 94.922 40.457 95.2032 40.6211C95.4845 40.7852 95.6896 40.9243 95.8185 41.0386C96.1115 41.2993 96.2579 41.6011 96.2579 41.9438C96.2579 42.2866 96.132 42.5591 95.88 42.7612C95.6281 42.9604 95.3351 43.0601 95.0011 43.0601C94.8224 43.0601 94.6598 43.0352 94.5133 42.9854C94.3698 42.9385 94.2863 42.915 94.2628 42.915C94.2423 42.915 94.2072 42.9385 94.1573 42.9854C94.1105 43.0352 94.0724 43.0601 94.0431 43.0601H93.9684C93.9508 43.0601 93.9288 42.9019 93.9025 42.5854C93.8761 42.269 93.8629 42.0815 93.8629 42.0229C93.8629 41.9644 93.8673 41.9321 93.8761 41.9263C93.8878 41.9204 93.9054 41.9175 93.9288 41.9175C93.9523 41.9175 93.9713 41.9248 93.986 41.9395C94.0035 41.9541 94.0182 41.9731 94.0299 41.9966C94.0416 42.0171 94.0504 42.0391 94.0563 42.0625C94.0651 42.0859 94.0841 42.1299 94.1134 42.1943C94.3126 42.6191 94.6202 42.8315 95.0363 42.8315C95.2208 42.8315 95.3688 42.7642 95.4801 42.6294C95.5914 42.4917 95.6471 42.3394 95.6471 42.1724C95.6471 42.0054 95.6031 41.8647 95.5153 41.7505C95.4274 41.6362 95.3175 41.5322 95.1857 41.4385C95.0568 41.3447 94.9161 41.2539 94.7638 41.166C94.172 40.8203 93.8761 40.438 93.8761 40.019C93.8761 39.7056 94.0109 39.436 94.2804 39.2104C94.5499 38.9819 94.8268 38.8677 95.111 38.8677C95.3951 38.8677 95.6046 38.8984 95.7394 38.96C95.8771 39.0215 95.9576 39.0742 95.9811 39.1182C96.0045 39.1592 96.0162 39.2969 96.0162 39.5312V39.9355ZM96.9215 40.9683C96.9215 40.3911 97.1251 39.896 97.5323 39.4829C97.9425 39.0669 98.4332 38.8589 99.0045 38.8589C99.5758 38.8589 100.072 39.061 100.494 39.4653C100.916 39.8667 101.127 40.3633 101.127 40.9551C101.127 41.5469 100.926 42.0464 100.525 42.4536C100.127 42.8579 99.6256 43.0601 99.0221 43.0601C98.4186 43.0601 97.9176 42.855 97.5192 42.4448C97.1207 42.0347 96.9215 41.5425 96.9215 40.9683ZM98.0157 42.0977C98.3029 42.5811 98.694 42.8228 99.1891 42.8228C99.5729 42.8228 99.8658 42.6689 100.068 42.3613C100.273 42.0537 100.376 41.6758 100.376 41.2275C100.376 40.7793 100.232 40.3193 99.9449 39.8477C99.6608 39.376 99.277 39.1401 98.7936 39.1401C98.4391 39.1401 98.1593 39.2939 97.9542 39.6016C97.7521 39.9062 97.651 40.2944 97.651 40.7661C97.651 41.2349 97.7726 41.6787 98.0157 42.0977ZM104.994 41.5571L104.985 40.6299C104.985 40.252 104.953 39.9868 104.889 39.8345C104.824 39.6821 104.742 39.5679 104.643 39.4917C104.543 39.4126 104.408 39.373 104.238 39.373C104.071 39.373 103.715 39.5049 103.171 39.7686C103.097 39.8125 103.059 39.8535 103.056 39.8916V42.2559C103.056 42.5518 103.214 42.7217 103.531 42.7656C103.669 42.7861 103.737 42.8198 103.737 42.8667C103.737 42.9106 103.723 42.9355 103.693 42.9414H101.734C101.704 42.9355 101.69 42.915 101.69 42.8799C101.69 42.8242 101.758 42.7861 101.896 42.7656C102.213 42.7217 102.371 42.5518 102.371 42.2559V39.7334C102.371 39.6104 102.303 39.5254 102.169 39.4785C102.11 39.458 102.047 39.4419 101.98 39.4302C101.912 39.4155 101.858 39.4023 101.817 39.3906C101.779 39.3789 101.754 39.3687 101.742 39.3599C101.734 39.3481 101.729 39.3262 101.729 39.2939C101.729 39.2588 101.751 39.2295 101.795 39.2061L102.916 38.6787C102.951 38.6611 102.973 38.6523 102.982 38.6523C103.031 38.6523 103.056 38.6875 103.056 38.7578V39.4434C103.065 39.4727 103.077 39.4873 103.091 39.4873C103.109 39.4873 103.172 39.4609 103.28 39.4082C103.532 39.2822 103.786 39.1606 104.041 39.0435C104.296 38.9263 104.506 38.8677 104.673 38.8677C105.35 38.8677 105.689 39.4844 105.689 40.7178L105.649 42.001V42.2559C105.649 42.4844 105.763 42.6338 105.992 42.7041C106.089 42.7363 106.181 42.7598 106.269 42.7744C106.359 42.7861 106.418 42.7979 106.444 42.8096C106.474 42.8213 106.488 42.8447 106.488 42.8799C106.488 42.915 106.474 42.9355 106.444 42.9414H104.326C104.297 42.9355 104.282 42.915 104.282 42.8799C104.282 42.8242 104.351 42.7861 104.489 42.7656C104.802 42.7217 104.959 42.54 104.959 42.2207C104.983 42.0742 104.994 41.853 104.994 41.5571ZM107.952 39.562C107.934 39.562 107.925 39.5752 107.925 39.6016V42.0273C107.925 42.2031 107.964 42.3408 108.04 42.4404C108.119 42.54 108.218 42.5898 108.339 42.5898C108.459 42.5898 108.563 42.5708 108.651 42.5327C108.741 42.4917 108.819 42.4478 108.883 42.4009C108.951 42.354 109.011 42.3115 109.064 42.2734C109.116 42.2324 109.163 42.2119 109.204 42.2119C109.245 42.2119 109.266 42.2222 109.266 42.2427C109.266 42.313 109.258 42.3584 109.244 42.3789C108.892 42.833 108.552 43.0601 108.224 43.0601C107.899 43.0601 107.653 42.9575 107.486 42.7524C107.322 42.5444 107.24 42.2969 107.24 42.0098V39.562H106.91C106.828 39.562 106.784 39.5356 106.778 39.4829C106.776 39.4302 106.784 39.3965 106.805 39.3818C106.96 39.2822 107.174 39.1035 107.446 38.8457C107.476 38.8135 107.515 38.7651 107.565 38.7007C107.615 38.6362 107.687 38.5483 107.78 38.437C107.877 38.3257 107.95 38.27 108 38.27C108.05 38.27 108.075 38.2905 108.075 38.3315C108.075 38.3374 108.025 38.5293 107.925 38.9072C107.925 38.96 107.949 38.9878 107.996 38.9907H109.116C109.245 38.9907 109.31 39.1724 109.31 39.5356C109.31 39.5532 109.298 39.562 109.275 39.562H107.952ZM113.216 39.562C113.199 39.562 113.19 39.5752 113.19 39.6016V42.0273C113.19 42.2031 113.228 42.3408 113.304 42.4404C113.383 42.54 113.483 42.5898 113.603 42.5898C113.723 42.5898 113.827 42.5708 113.915 42.5327C114.006 42.4917 114.084 42.4478 114.148 42.4009C114.215 42.354 114.276 42.3115 114.328 42.2734C114.381 42.2324 114.428 42.2119 114.469 42.2119C114.51 42.2119 114.53 42.2222 114.53 42.2427C114.53 42.313 114.523 42.3584 114.508 42.3789C114.157 42.833 113.817 43.0601 113.489 43.0601C113.164 43.0601 112.918 42.9575 112.751 42.7524C112.587 42.5444 112.505 42.2969 112.505 42.0098V39.562H112.175C112.093 39.562 112.049 39.5356 112.043 39.4829C112.04 39.4302 112.049 39.3965 112.069 39.3818C112.225 39.2822 112.439 39.1035 112.711 38.8457C112.74 38.8135 112.78 38.7651 112.83 38.7007C112.88 38.6362 112.951 38.5483 113.045 38.437C113.142 38.3257 113.215 38.27 113.265 38.27C113.315 38.27 113.339 38.2905 113.339 38.3315C113.339 38.3374 113.29 38.5293 113.19 38.9072C113.19 38.96 113.214 38.9878 113.26 38.9907H114.381C114.51 38.9907 114.574 39.1724 114.574 39.5356C114.574 39.5532 114.563 39.562 114.539 39.562H113.216ZM115.018 40.9683C115.018 40.3911 115.222 39.896 115.629 39.4829C116.039 39.0669 116.53 38.8589 117.101 38.8589C117.672 38.8589 118.169 39.061 118.591 39.4653C119.013 39.8667 119.224 40.3633 119.224 40.9551C119.224 41.5469 119.023 42.0464 118.622 42.4536C118.223 42.8579 117.722 43.0601 117.119 43.0601C116.515 43.0601 116.014 42.855 115.616 42.4448C115.217 42.0347 115.018 41.5425 115.018 40.9683ZM116.112 42.0977C116.4 42.5811 116.791 42.8228 117.286 42.8228C117.67 42.8228 117.963 42.6689 118.165 42.3613C118.37 42.0537 118.472 41.6758 118.472 41.2275C118.472 40.7793 118.329 40.3193 118.042 39.8477C117.757 39.376 117.374 39.1401 116.89 39.1401C116.536 39.1401 116.256 39.2939 116.051 39.6016C115.849 39.9062 115.748 40.2944 115.748 40.7661C115.748 41.2349 115.869 41.6787 116.112 42.0977ZM122.871 42.5547C122.857 42.5049 122.838 42.4888 122.814 42.5063C122.791 42.521 122.695 42.5708 122.528 42.6558C121.981 42.9282 121.524 43.0645 121.157 43.0645C120.791 43.0645 120.527 42.9473 120.366 42.7129C120.308 42.625 120.278 42.5166 120.278 42.3877V39.707C120.27 39.6221 120.232 39.5488 120.164 39.4873C120.073 39.4111 119.978 39.3701 119.879 39.3643C119.782 39.3584 119.734 39.3291 119.734 39.2764C119.734 39.2207 119.757 39.187 119.804 39.1753L120.81 38.8853C120.845 38.8735 120.879 38.8677 120.911 38.8677C120.946 38.8677 120.964 38.8926 120.964 38.9424V41.8911C120.964 42.0962 121.055 42.2544 121.236 42.3657C121.418 42.4771 121.65 42.5327 121.931 42.5327C122.215 42.5327 122.47 42.4463 122.695 42.2734C122.766 42.2178 122.824 42.1562 122.871 42.0889V39.707C122.862 39.6221 122.824 39.5488 122.757 39.4873C122.666 39.4111 122.571 39.3701 122.471 39.3643C122.375 39.3584 122.326 39.3291 122.326 39.2764C122.326 39.2207 122.35 39.187 122.397 39.1753L123.403 38.8853C123.438 38.8735 123.472 38.8677 123.504 38.8677C123.539 38.8677 123.557 38.897 123.557 38.9556V42.0757C123.571 42.2046 123.608 42.2969 123.667 42.3525C123.725 42.4082 123.82 42.436 123.952 42.436L124.207 42.4185C124.225 42.4185 124.234 42.436 124.234 42.4712C124.234 42.5034 124.212 42.5298 124.168 42.5503L122.999 43.0337C122.964 43.0513 122.933 43.0601 122.906 43.0601C122.883 43.0601 122.871 43.0234 122.871 42.9502V42.5547ZM125.873 39.562C125.855 39.562 125.846 39.5752 125.846 39.6016V42.0273C125.846 42.2031 125.884 42.3408 125.961 42.4404C126.04 42.54 126.139 42.5898 126.259 42.5898C126.38 42.5898 126.484 42.5708 126.571 42.5327C126.662 42.4917 126.74 42.4478 126.804 42.4009C126.872 42.354 126.932 42.3115 126.984 42.2734C127.037 42.2324 127.084 42.2119 127.125 42.2119C127.166 42.2119 127.187 42.2222 127.187 42.2427C127.187 42.313 127.179 42.3584 127.165 42.3789C126.813 42.833 126.473 43.0601 126.145 43.0601C125.82 43.0601 125.574 42.9575 125.407 42.7524C125.243 42.5444 125.161 42.2969 125.161 42.0098V39.562H124.831C124.749 39.562 124.705 39.5356 124.699 39.4829C124.696 39.4302 124.705 39.3965 124.726 39.3818C124.881 39.2822 125.095 39.1035 125.367 38.8457C125.397 38.8135 125.436 38.7651 125.486 38.7007C125.536 38.6362 125.608 38.5483 125.701 38.437C125.798 38.3257 125.871 38.27 125.921 38.27C125.971 38.27 125.996 38.2905 125.996 38.3315C125.996 38.3374 125.946 38.5293 125.846 38.9072C125.846 38.96 125.87 38.9878 125.917 38.9907H127.037C127.166 38.9907 127.231 39.1724 127.231 39.5356C127.231 39.5532 127.219 39.562 127.195 39.562H125.873ZM128.36 40.6255C128.31 40.6255 128.285 40.7324 128.285 40.9463C128.285 41.4004 128.42 41.7812 128.69 42.0889C128.959 42.3965 129.293 42.5503 129.692 42.5503C130.093 42.5503 130.478 42.3774 130.847 42.0317C130.853 42.0259 130.86 42.0229 130.869 42.0229H130.891C130.909 42.0229 130.925 42.0376 130.94 42.0669C130.957 42.0933 130.973 42.1108 130.988 42.1196C130.648 42.5327 130.248 42.8184 129.788 42.9766C129.63 43.0322 129.451 43.0601 129.252 43.0601C129.053 43.0601 128.851 43.0059 128.646 42.8975C128.441 42.7861 128.265 42.6411 128.118 42.4624C127.808 42.0903 127.652 41.6274 127.652 41.0737C127.652 40.5171 127.821 40.0103 128.158 39.5532C128.498 39.0962 128.964 38.8677 129.555 38.8677C129.98 38.8677 130.327 39.0581 130.597 39.439C130.866 39.8169 131.001 40.1494 131.001 40.4365C131.001 40.5625 130.97 40.6255 130.909 40.6255H128.36ZM128.408 40.2036C128.408 40.2593 128.435 40.2871 128.487 40.2871H130.144C130.22 40.2871 130.258 40.2417 130.258 40.1509C130.258 39.9399 130.163 39.7246 129.973 39.5049C129.785 39.2822 129.579 39.1709 129.353 39.1709C129.133 39.1709 128.933 39.2705 128.751 39.4697C128.572 39.6689 128.458 39.896 128.408 40.1509V40.2036ZM133.871 39.9355C133.871 40 133.846 40.0322 133.796 40.0322C133.749 40.0322 133.713 39.9971 133.686 39.9268C133.616 39.7334 133.51 39.562 133.37 39.4126C133.232 39.2632 133.061 39.1885 132.856 39.1885C132.586 39.1885 132.404 39.3232 132.311 39.5928C132.281 39.6836 132.267 39.7773 132.267 39.874C132.267 39.9707 132.328 40.0791 132.451 40.1992C132.574 40.3164 132.776 40.457 133.058 40.6211C133.339 40.7852 133.544 40.9243 133.673 41.0386C133.966 41.2993 134.112 41.6011 134.112 41.9438C134.112 42.2866 133.986 42.5591 133.734 42.7612C133.483 42.9604 133.19 43.0601 132.856 43.0601C132.677 43.0601 132.514 43.0352 132.368 42.9854C132.224 42.9385 132.141 42.915 132.117 42.915C132.097 42.915 132.062 42.9385 132.012 42.9854C131.965 43.0352 131.927 43.0601 131.898 43.0601H131.823C131.805 43.0601 131.783 42.9019 131.757 42.5854C131.731 42.269 131.717 42.0815 131.717 42.0229C131.717 41.9644 131.722 41.9321 131.731 41.9263C131.742 41.9204 131.76 41.9175 131.783 41.9175C131.807 41.9175 131.826 41.9248 131.84 41.9395C131.858 41.9541 131.873 41.9731 131.884 41.9966C131.896 42.0171 131.905 42.0391 131.911 42.0625C131.92 42.0859 131.939 42.1299 131.968 42.1943C132.167 42.6191 132.475 42.8315 132.891 42.8315C133.075 42.8315 133.223 42.7642 133.335 42.6294C133.446 42.4917 133.502 42.3394 133.502 42.1724C133.502 42.0054 133.458 41.8647 133.37 41.7505C133.282 41.6362 133.172 41.5322 133.04 41.4385C132.911 41.3447 132.771 41.2539 132.618 41.166C132.026 40.8203 131.731 40.438 131.731 40.019C131.731 39.7056 131.865 39.436 132.135 39.2104C132.404 38.9819 132.681 38.8677 132.965 38.8677C133.25 38.8677 133.459 38.8984 133.594 38.96C133.732 39.0215 133.812 39.0742 133.836 39.1182C133.859 39.1592 133.871 39.2969 133.871 39.5312V39.9355ZM12.5333 54.5547C12.5187 54.5049 12.4996 54.4888 12.4762 54.5063C12.4528 54.521 12.3575 54.5708 12.1906 54.6558C11.6427 54.9282 11.1857 55.0645 10.8195 55.0645C10.4532 55.0645 10.1896 54.9473 10.0284 54.7129C9.96985 54.625 9.94055 54.5166 9.94055 54.3877V51.707C9.93176 51.6221 9.89368 51.5488 9.82629 51.4873C9.73547 51.4111 9.64026 51.3701 9.54065 51.3643C9.44397 51.3584 9.39563 51.3291 9.39563 51.2764C9.39563 51.2207 9.41907 51.187 9.46594 51.1753L10.4723 50.8853C10.5074 50.8735 10.5411 50.8677 10.5734 50.8677C10.6085 50.8677 10.6261 50.8926 10.6261 50.9424V53.8911C10.6261 54.0962 10.7169 54.2544 10.8986 54.3657C11.0802 54.4771 11.3116 54.5327 11.5929 54.5327C11.8771 54.5327 12.132 54.4463 12.3575 54.2734C12.4279 54.2178 12.4865 54.1562 12.5333 54.0889V51.707C12.5245 51.6221 12.4865 51.5488 12.4191 51.4873C12.3282 51.4111 12.233 51.3701 12.1334 51.3643C12.0367 51.3584 11.9884 51.3291 11.9884 51.2764C11.9884 51.2207 12.0118 51.187 12.0587 51.1753L13.0651 50.8853C13.1002 50.8735 13.1339 50.8677 13.1661 50.8677C13.2013 50.8677 13.2189 50.897 13.2189 50.9556V54.0757C13.2335 54.2046 13.2701 54.2969 13.3287 54.3525C13.3873 54.4082 13.4825 54.436 13.6144 54.436L13.8693 54.4185C13.8868 54.4185 13.8956 54.436 13.8956 54.4712C13.8956 54.5034 13.8737 54.5298 13.8297 54.5503L12.6608 55.0337C12.6256 55.0513 12.5948 55.0601 12.5685 55.0601C12.545 55.0601 12.5333 55.0234 12.5333 54.9502V54.5547ZM17.6925 53.5571L17.6837 52.6299C17.6837 52.252 17.6515 51.9868 17.587 51.8345C17.5226 51.6821 17.4406 51.5679 17.3409 51.4917C17.2413 51.4126 17.1066 51.373 16.9366 51.373C16.7697 51.373 16.4137 51.5049 15.8688 51.7686C15.7955 51.8125 15.7574 51.8535 15.7545 51.8916V54.2559C15.7545 54.5518 15.9127 54.7217 16.2291 54.7656C16.3668 54.7861 16.4357 54.8198 16.4357 54.8667C16.4357 54.9106 16.421 54.9355 16.3917 54.9414H14.4318C14.4025 54.9355 14.3878 54.915 14.3878 54.8799C14.3878 54.8242 14.4567 54.7861 14.5944 54.7656C14.9108 54.7217 15.069 54.5518 15.069 54.2559V51.7334C15.069 51.6104 15.0016 51.5254 14.8668 51.4785C14.8082 51.458 14.7452 51.4419 14.6779 51.4302C14.6105 51.4155 14.5563 51.4023 14.5153 51.3906C14.4772 51.3789 14.4523 51.3687 14.4406 51.3599C14.4318 51.3481 14.4274 51.3262 14.4274 51.2939C14.4274 51.2588 14.4493 51.2295 14.4933 51.2061L15.6139 50.6787C15.649 50.6611 15.671 50.6523 15.6798 50.6523C15.7296 50.6523 15.7545 50.6875 15.7545 50.7578V51.4434C15.7633 51.4727 15.775 51.4873 15.7897 51.4873C15.8073 51.4873 15.8702 51.4609 15.9786 51.4082C16.2306 51.2822 16.484 51.1606 16.7389 51.0435C16.9938 50.9263 17.2047 50.8677 17.3717 50.8677C18.0485 50.8677 18.3868 51.4844 18.3868 52.7178L18.3473 54.001V54.2559C18.3473 54.4844 18.4615 54.6338 18.6901 54.7041C18.7867 54.7363 18.879 54.7598 18.9669 54.7744C19.0577 54.7861 19.1163 54.7979 19.1427 54.8096C19.172 54.8213 19.1866 54.8447 19.1866 54.8799C19.1866 54.915 19.172 54.9355 19.1427 54.9414H17.0245C16.9952 54.9355 16.9806 54.915 16.9806 54.8799C16.9806 54.8242 17.0494 54.7861 17.1871 54.7656C17.5006 54.7217 17.6573 54.54 17.6573 54.2207C17.6808 54.0742 17.6925 53.853 17.6925 53.5571ZM24.7106 51.0522C24.8395 51.0962 24.9186 51.1182 24.9479 51.1182C24.9772 51.1182 24.9948 51.1182 25.0006 51.1182C25.0094 51.1152 25.0197 51.0962 25.0314 51.061V48.7935C25.0314 48.6704 24.964 48.5854 24.8292 48.5386C24.7706 48.5181 24.7076 48.502 24.6403 48.4902C24.5729 48.4756 24.5187 48.4624 24.4777 48.4507C24.4396 48.439 24.4147 48.4287 24.403 48.4199C24.3942 48.4082 24.3898 48.3862 24.3898 48.354C24.3898 48.3188 24.4117 48.2896 24.4557 48.2661L25.5763 47.7388C25.6115 47.7212 25.6334 47.7124 25.6422 47.7124C25.692 47.7124 25.7169 47.7476 25.7169 47.8179V54.0757C25.7316 54.2046 25.7682 54.2969 25.8268 54.3525C25.8854 54.4082 25.9806 54.436 26.1124 54.436L26.3673 54.4185C26.3849 54.4185 26.3937 54.436 26.3937 54.4712C26.3937 54.5034 26.3717 54.5298 26.3278 54.5503L25.1588 55.0337C25.1237 55.0513 25.0929 55.0601 25.0665 55.0601C25.0431 55.0601 25.0314 55.0234 25.0314 54.9502V54.5503C25.0314 54.521 25.024 54.5063 25.0094 54.5063C24.9889 54.5063 24.8673 54.5723 24.6447 54.7041C23.962 55.1084 23.3864 55.1685 22.9176 54.8843C22.5426 54.6558 22.2892 54.2939 22.1573 53.7988C22.0958 53.5674 22.0651 53.3228 22.0651 53.0649C22.0651 52.8042 22.1178 52.5464 22.2233 52.2915C22.3317 52.0337 22.4796 51.8081 22.6671 51.6147C23.0802 51.1929 23.5782 50.9819 24.1613 50.9819C24.3986 50.9819 24.5817 51.0054 24.7106 51.0522ZM22.7286 52.9375C22.7286 53.3799 22.8517 53.7681 23.0978 54.1021C23.3439 54.4331 23.6866 54.5986 24.1261 54.5986C24.3195 54.5986 24.5187 54.5518 24.7238 54.458C24.9288 54.3613 25.0314 54.2881 25.0314 54.2383V51.9707C25.0314 51.915 24.9933 51.8491 24.9171 51.7729C24.6827 51.4507 24.3707 51.2896 23.9811 51.2896C23.5944 51.2896 23.2882 51.4536 23.0626 51.7817C22.84 52.1069 22.7286 52.4922 22.7286 52.9375ZM27.4967 52.6255C27.4469 52.6255 27.422 52.7324 27.422 52.9463C27.422 53.4004 27.5568 53.7812 27.8263 54.0889C28.0958 54.3965 28.4298 54.5503 28.8282 54.5503C29.2296 54.5503 29.6149 54.3774 29.984 54.0317C29.9899 54.0259 29.9972 54.0229 30.006 54.0229H30.028C30.0455 54.0229 30.0616 54.0376 30.0763 54.0669C30.0939 54.0933 30.11 54.1108 30.1246 54.1196C29.7848 54.5327 29.3849 54.8184 28.9249 54.9766C28.7667 55.0322 28.588 55.0601 28.3888 55.0601C28.1896 55.0601 27.9874 55.0059 27.7823 54.8975C27.5773 54.7861 27.4015 54.6411 27.255 54.4624C26.9445 54.0903 26.7892 53.6274 26.7892 53.0737C26.7892 52.5171 26.9576 52.0103 27.2946 51.5532C27.6344 51.0962 28.1002 50.8677 28.692 50.8677C29.1168 50.8677 29.464 51.0581 29.7335 51.439C30.0031 51.8169 30.1378 52.1494 30.1378 52.4365C30.1378 52.5625 30.1071 52.6255 30.0455 52.6255H27.4967ZM27.545 52.2036C27.545 52.2593 27.5714 52.2871 27.6241 52.2871H29.2809C29.3571 52.2871 29.3951 52.2417 29.3951 52.1509C29.3951 51.9399 29.2999 51.7246 29.1095 51.5049C28.922 51.2822 28.7155 51.1709 28.4899 51.1709C28.2701 51.1709 28.0695 51.2705 27.8878 51.4697C27.7091 51.6689 27.5948 51.896 27.545 52.1509V52.2036ZM28.0724 50.125C28.0607 50.1133 28.0548 50.1045 28.0548 50.0986C28.0548 50.0928 28.0607 50.084 28.0724 50.0723L29.0084 48.7759C29.1139 48.6323 29.2179 48.5605 29.3204 48.5605C29.423 48.5605 29.5035 48.5942 29.5621 48.6616C29.6237 48.7261 29.6544 48.814 29.6544 48.9253C29.6544 49.0366 29.5739 49.1611 29.4127 49.2988L28.2306 50.2524C28.2159 50.2612 28.2042 50.2656 28.1954 50.2656C28.1866 50.2656 28.1779 50.2612 28.1691 50.2524L28.0724 50.125ZM34.1852 54.48C33.7809 54.8667 33.3268 55.0601 32.8229 55.0601C32.6412 55.0601 32.3937 55.0264 32.0802 54.959C32.0304 54.959 32.0026 54.9766 31.9967 55.0117C31.9938 55.0469 31.9908 55.0835 31.9879 55.1216V56.998C31.9879 57.2178 32.1154 57.3643 32.3702 57.4375C32.4816 57.4668 32.5856 57.4873 32.6823 57.499C32.7789 57.5137 32.8405 57.5269 32.8668 57.5386C32.8961 57.5503 32.9108 57.5723 32.9108 57.6045C32.9108 57.6396 32.8961 57.6602 32.8668 57.666H30.6652C30.6359 57.6602 30.6212 57.6396 30.6212 57.6045C30.6212 57.5518 30.6901 57.5166 30.8278 57.499C31.1442 57.4521 31.3024 57.2852 31.3024 56.998V51.729C31.3024 51.606 31.235 51.521 31.1002 51.4741C31.0416 51.4536 30.9786 51.4375 30.9113 51.4258C30.8439 51.4111 30.7897 51.3979 30.7487 51.3862C30.7106 51.3745 30.6857 51.3643 30.674 51.3555C30.6652 51.3438 30.6608 51.3218 30.6608 51.2896C30.6608 51.2544 30.6827 51.2251 30.7267 51.2017L31.8473 50.6655C31.8707 50.6538 31.8942 50.6479 31.9176 50.6479C31.9645 50.6479 31.9879 50.6831 31.9879 50.7534V51.3115C31.9879 51.3438 32.004 51.3599 32.0363 51.3599C32.0714 51.3599 32.1534 51.3174 32.2823 51.2324C32.6544 50.9922 33.0411 50.8721 33.4425 50.8721C33.7238 50.8721 33.9816 50.9863 34.2159 51.2148C34.5236 51.5137 34.7286 51.9297 34.8312 52.4629C34.8605 52.6152 34.8751 52.7778 34.8751 52.9507C34.8751 53.1206 34.8473 53.3008 34.7916 53.4912C34.6803 53.8691 34.4781 54.1987 34.1852 54.48ZM32.9283 51.3291C32.5299 51.3291 32.2164 51.4434 31.9879 51.6719V54.1416C31.9879 54.2881 32.0128 54.3833 32.0626 54.4272C32.1915 54.5386 32.3893 54.625 32.6559 54.6865C33.1832 54.8066 33.5934 54.6807 33.8864 54.3086C34.0944 54.042 34.1984 53.7197 34.1984 53.3418C34.1984 52.6064 34.0328 52.0557 33.7018 51.6895C33.5026 51.4668 33.2448 51.3467 32.9283 51.3291ZM38.382 54.2163C38.382 54.2925 38.4171 54.354 38.4874 54.4009C38.5607 54.4448 38.6442 54.4668 38.7379 54.4668C38.8317 54.4668 38.9093 54.4434 38.9708 54.3965C39.0353 54.3467 39.0792 54.3218 39.1027 54.3218C39.1261 54.3218 39.1378 54.354 39.1378 54.4185C39.1378 54.48 39.1085 54.5327 39.0499 54.5767C38.6105 54.8989 38.3131 55.0601 38.1578 55.0601C37.9703 55.0601 37.818 54.8652 37.7008 54.4756C37.692 54.4463 37.6847 54.4331 37.6788 54.436C37.3156 54.7085 37.087 54.8726 36.9933 54.9282C36.7531 55.0659 36.5114 55.0879 36.2682 54.9941C36.028 54.9004 35.8536 54.7451 35.7452 54.5283C35.6925 54.417 35.6661 54.2983 35.6661 54.1724C35.6661 53.9233 35.7584 53.7256 35.943 53.5791C36.1276 53.4326 36.4791 53.292 36.9977 53.1572C37.1735 53.1104 37.3302 53.0503 37.4679 52.9771C37.6056 52.9038 37.6774 52.8569 37.6832 52.8364C37.692 52.8159 37.6964 52.7969 37.6964 52.7793V51.9355C37.6964 51.6045 37.5675 51.3716 37.3097 51.2368C37.2247 51.1929 37.1222 51.1709 37.0021 51.1709C36.8849 51.1709 36.7648 51.2178 36.6417 51.3115C36.5216 51.4053 36.4615 51.5386 36.4615 51.7114L36.4835 51.8828C36.4659 51.918 36.3605 51.9766 36.1671 52.0586C35.9738 52.1406 35.8624 52.1846 35.8331 52.1904C35.7863 52.1904 35.7628 52.1348 35.7628 52.0234C35.7628 51.9092 35.7965 51.7832 35.8639 51.6455C35.9313 51.5078 36.0265 51.3818 36.1495 51.2676C36.4366 51.001 36.7648 50.8677 37.1339 50.8677C37.5031 50.8677 37.8033 50.9702 38.0348 51.1753C38.2662 51.3774 38.382 51.6191 38.382 51.9004V54.2163ZM36.3561 54.0889C36.3561 54.2295 36.4103 54.3525 36.5187 54.458C36.6271 54.5605 36.7501 54.6118 36.8878 54.6118C37.0284 54.6118 37.1984 54.5532 37.3976 54.436C37.5968 54.3159 37.6964 54.1929 37.6964 54.0669V53.1748C37.6964 53.1426 37.6891 53.1265 37.6744 53.1265C37.6598 53.1265 37.6495 53.1279 37.6437 53.1309L36.6241 53.6055C36.5187 53.6816 36.4469 53.7461 36.4088 53.7988C36.3737 53.8516 36.3561 53.9482 36.3561 54.0889ZM42.2316 51.7905C42.1964 51.7847 42.1451 51.7656 42.0778 51.7334C41.8346 51.6221 41.6442 51.5664 41.5065 51.5664C41.3688 51.5664 41.2238 51.6528 41.0714 51.8257C40.922 51.9956 40.8473 52.1494 40.8473 52.2871V54.2734C40.8473 54.4932 40.9747 54.6396 41.2296 54.7129C41.3409 54.7422 41.4449 54.7642 41.5416 54.7788C41.6383 54.7905 41.6998 54.8022 41.7262 54.814C41.7555 54.8257 41.7701 54.8491 41.7701 54.8843C41.7701 54.9165 41.7555 54.9355 41.7262 54.9414H39.5245C39.4952 54.9355 39.4806 54.915 39.4806 54.8799C39.4806 54.8271 39.5494 54.792 39.6871 54.7744C40.0035 54.7275 40.1617 54.5605 40.1617 54.2734V51.9487C40.1617 51.8257 40.0944 51.7407 39.9596 51.6938C39.901 51.6733 39.838 51.6572 39.7706 51.6455C39.7032 51.6309 39.649 51.6177 39.608 51.606C39.5699 51.5942 39.545 51.584 39.5333 51.5752C39.5245 51.5635 39.5201 51.5415 39.5201 51.5093C39.5201 51.4741 39.5421 51.4448 39.5861 51.4214L40.7067 50.894C40.7418 50.8765 40.7638 50.8677 40.7726 50.8677C40.8224 50.8677 40.8473 50.9028 40.8473 50.9731V51.6851C40.8473 51.7202 40.8561 51.7378 40.8737 51.7378C40.8971 51.7378 40.9572 51.6689 41.0538 51.5312C41.3322 51.1416 41.5621 50.9468 41.7438 50.9468C41.8463 50.9468 42.0031 50.9878 42.214 51.0698C42.4279 51.1519 42.5348 51.2207 42.5348 51.2764C42.5348 51.3438 42.5011 51.4463 42.4337 51.584C42.3663 51.7217 42.299 51.7905 42.2316 51.7905ZM43.9147 51.562C43.8971 51.562 43.8883 51.5752 43.8883 51.6016V54.0273C43.8883 54.2031 43.9264 54.3408 44.0026 54.4404C44.0817 54.54 44.1813 54.5898 44.3014 54.5898C44.4215 54.5898 44.5255 54.5708 44.6134 54.5327C44.7042 54.4917 44.7819 54.4478 44.8463 54.4009C44.9137 54.354 44.9738 54.3115 45.0265 54.2734C45.0792 54.2324 45.1261 54.2119 45.1671 54.2119C45.2081 54.2119 45.2286 54.2222 45.2286 54.2427C45.2286 54.313 45.2213 54.3584 45.2067 54.3789C44.8551 54.833 44.5153 55.0601 44.1871 55.0601C43.8619 55.0601 43.6158 54.9575 43.4489 54.7524C43.2848 54.5444 43.2028 54.2969 43.2028 54.0098V51.562H42.8732C42.7911 51.562 42.7472 51.5356 42.7413 51.4829C42.7384 51.4302 42.7472 51.3965 42.7677 51.3818C42.923 51.2822 43.1368 51.1035 43.4093 50.8457C43.4386 50.8135 43.4781 50.7651 43.528 50.7007C43.5778 50.6362 43.6495 50.5483 43.7433 50.437C43.84 50.3257 43.9132 50.27 43.963 50.27C44.0128 50.27 44.0377 50.2905 44.0377 50.3315C44.0377 50.3374 43.9879 50.5293 43.8883 50.9072C43.8883 50.96 43.9117 50.9878 43.9586 50.9907H45.0792C45.2081 50.9907 45.2726 51.1724 45.2726 51.5356C45.2726 51.5532 45.2609 51.562 45.2374 51.562H43.9147ZM45.9581 54.502C45.9581 54.3438 46.0138 54.2075 46.1251 54.0933C46.2365 53.9761 46.3712 53.9175 46.5294 53.9175C46.6847 53.9175 46.818 53.9746 46.9293 54.0889C47.0436 54.2002 47.1007 54.3364 47.1007 54.4976C47.1007 54.6587 47.045 54.7935 46.9337 54.9019C46.8224 55.0073 46.6876 55.0601 46.5294 55.0601C46.3741 55.0601 46.2394 55.0059 46.1251 54.8975C46.0138 54.7891 45.9581 54.6572 45.9581 54.502ZM55.9996 54.7744C55.985 54.7979 55.9484 54.8037 55.8898 54.792C55.8341 54.7773 55.7682 54.77 55.692 54.77C55.6158 54.77 55.5074 54.7861 55.3668 54.8184C55.2291 54.8477 55.0109 54.8945 54.712 54.959C54.4132 55.0264 54.1407 55.0601 53.8947 55.0601C53.338 55.0601 52.7975 54.9297 52.2731 54.6689C51.7516 54.4053 51.3341 54.0332 51.0206 53.5527C50.7072 53.0693 50.5504 52.5098 50.5504 51.874C50.5504 51.2383 50.7072 50.6626 51.0206 50.147C51.4777 49.3911 52.1661 48.8989 53.0861 48.6704C53.379 48.5972 53.672 48.5605 53.965 48.5605C54.3663 48.5605 54.8424 48.6279 55.3932 48.7627C55.5602 48.8037 55.7008 48.8462 55.8151 48.8901C55.9323 48.9341 56.004 48.9561 56.0304 48.9561L56.1622 48.9209H56.2985C56.3336 48.9209 56.3512 48.9458 56.3512 48.9956V50.3623C56.3512 50.3916 56.3248 50.4062 56.2721 50.4062C56.2194 50.4062 56.1886 50.4004 56.1798 50.3887C56.171 50.374 56.1622 50.3579 56.1534 50.3403C56.1447 50.3198 56.1344 50.2993 56.1227 50.2788C56.1139 50.2583 56.1036 50.2393 56.0919 50.2217C56.0831 50.2041 56.0773 50.1909 56.0743 50.1821C55.6349 49.3003 54.9684 48.8594 54.0748 48.8594C53.2692 48.8594 52.6393 49.1157 52.1852 49.6284C51.7311 50.1411 51.504 50.8208 51.504 51.6675C51.504 52.5112 51.7531 53.2363 52.2511 53.8428C52.7521 54.4492 53.4318 54.7524 54.2902 54.7524C54.7589 54.7524 55.1852 54.6133 55.569 54.335C55.9557 54.0566 56.2589 53.7153 56.4786 53.311C56.4845 53.2935 56.5021 53.2847 56.5314 53.2847H56.5885C56.6178 53.2847 56.6324 53.3022 56.6324 53.3374C56.6324 53.3726 56.6237 53.4062 56.6061 53.4385L55.9996 54.7744ZM58.4694 51.54C58.4694 51.6104 58.4796 51.6455 58.5001 51.6455C58.5206 51.6455 58.5353 51.6411 58.5441 51.6323C58.5529 51.6206 58.6144 51.5518 58.7286 51.4258C59.0597 51.0566 59.3951 50.8721 59.735 50.8721C60.1803 50.8721 60.507 50.9717 60.715 51.1709C60.9698 51.4229 61.0973 51.8462 61.0973 52.4409V54.2734C61.0973 54.5605 61.2555 54.7275 61.5719 54.7744C61.7096 54.792 61.7784 54.8228 61.7784 54.8667C61.7784 54.9106 61.7638 54.9355 61.7345 54.9414H59.7745C59.7452 54.9355 59.7306 54.915 59.7306 54.8799C59.7306 54.8271 59.7994 54.792 59.9371 54.7744C60.2535 54.7275 60.4117 54.5605 60.4117 54.2734V52.4849C60.4117 52.0542 60.381 51.7744 60.3195 51.6455C60.2023 51.3877 59.9576 51.2588 59.5856 51.2588C59.3571 51.2588 59.1139 51.3569 58.8561 51.5532C58.5983 51.7466 58.4694 51.9604 58.4694 52.1948V54.2734C58.4694 54.5605 58.6276 54.7275 58.944 54.7744C59.0817 54.792 59.1505 54.8228 59.1505 54.8667C59.1505 54.9106 59.1359 54.9355 59.1066 54.9414H57.1466C57.1173 54.9355 57.1027 54.915 57.1027 54.8799C57.1027 54.8271 57.1715 54.792 57.3092 54.7744C57.6256 54.7275 57.7838 54.5605 57.7838 54.2734V48.7935C57.7838 48.6704 57.7164 48.5854 57.5817 48.5386C57.5231 48.5181 57.4601 48.502 57.3927 48.4902C57.3253 48.4756 57.2711 48.4624 57.2301 48.4507C57.192 48.439 57.1671 48.4287 57.1554 48.4199C57.1466 48.4082 57.1422 48.3862 57.1422 48.354C57.1422 48.3188 57.1642 48.2896 57.2081 48.2661L58.3287 47.7388C58.3639 47.7212 58.3859 47.7124 58.3947 47.7124C58.4445 47.7124 58.4694 47.7476 58.4694 47.8179V51.54ZM62.2399 52.9683C62.2399 52.3911 62.4435 51.896 62.8507 51.4829C63.2609 51.0669 63.7516 50.8589 64.3229 50.8589C64.8942 50.8589 65.3907 51.061 65.8126 51.4653C66.2345 51.8667 66.4454 52.3633 66.4454 52.9551C66.4454 53.5469 66.2448 54.0464 65.8434 54.4536C65.4449 54.8579 64.944 55.0601 64.3405 55.0601C63.7369 55.0601 63.236 54.855 62.8375 54.4448C62.4391 54.0347 62.2399 53.5425 62.2399 52.9683ZM63.3341 54.0977C63.6212 54.5811 64.0123 54.8228 64.5074 54.8228C64.8912 54.8228 65.1842 54.6689 65.3864 54.3613C65.5914 54.0537 65.694 53.6758 65.694 53.2275C65.694 52.7793 65.5504 52.3193 65.2633 51.8477C64.9791 51.376 64.5953 51.1401 64.1119 51.1401C63.7574 51.1401 63.4777 51.2939 63.2726 51.6016C63.0704 51.9062 62.9694 52.2944 62.9694 52.7661C62.9694 53.2349 63.0909 53.6787 63.3341 54.0977ZM67.087 54.9414C67.0577 54.9355 67.0431 54.915 67.0431 54.8799C67.0431 54.8271 67.1119 54.792 67.2496 54.7744C67.566 54.7275 67.7242 54.5605 67.7242 54.2734V51.9487C67.7242 51.8257 67.6569 51.7407 67.5221 51.6938C67.4635 51.6733 67.4005 51.6572 67.3331 51.6455C67.2657 51.6309 67.2115 51.6177 67.1705 51.606C67.1324 51.5942 67.1075 51.584 67.0958 51.5752C67.087 51.5635 67.0826 51.5415 67.0826 51.5093C67.0826 51.4741 67.1046 51.4448 67.1486 51.4214L68.2692 50.894C68.3043 50.8765 68.3263 50.8677 68.3351 50.8677C68.3849 50.8677 68.4098 50.9028 68.4098 50.9731V54.2734C68.4098 54.5605 68.568 54.7275 68.8844 54.7744C69.0221 54.792 69.0909 54.8228 69.0909 54.8667C69.0909 54.9106 69.0763 54.9355 69.047 54.9414H67.087ZM68.0011 49.6328C67.881 49.6328 67.774 49.5947 67.6803 49.5186C67.5895 49.4424 67.5441 49.3369 67.5441 49.2021C67.5441 49.0645 67.588 48.9561 67.6759 48.877C67.7638 48.7979 67.8678 48.7583 67.9879 48.7583C68.111 48.7583 68.2135 48.8052 68.2955 48.8989C68.3805 48.9927 68.423 49.0938 68.423 49.2021C68.423 49.3105 68.3834 49.4102 68.3043 49.501C68.2252 49.5889 68.1241 49.6328 68.0011 49.6328ZM71.7496 51.9355C71.7496 52 71.7247 52.0322 71.6749 52.0322C71.6281 52.0322 71.5914 51.9971 71.5651 51.9268C71.4948 51.7334 71.3893 51.562 71.2487 51.4126C71.111 51.2632 70.9396 51.1885 70.7345 51.1885C70.465 51.1885 70.2833 51.3232 70.1896 51.5928C70.1603 51.6836 70.1456 51.7773 70.1456 51.874C70.1456 51.9707 70.2072 52.0791 70.3302 52.1992C70.4532 52.3164 70.6554 52.457 70.9366 52.6211C71.2179 52.7852 71.423 52.9243 71.5519 53.0386C71.8448 53.2993 71.9913 53.6011 71.9913 53.9438C71.9913 54.2866 71.8654 54.5591 71.6134 54.7612C71.3615 54.9604 71.0685 55.0601 70.7345 55.0601C70.5558 55.0601 70.3932 55.0352 70.2467 54.9854C70.1031 54.9385 70.0197 54.915 69.9962 54.915C69.9757 54.915 69.9406 54.9385 69.8907 54.9854C69.8439 55.0352 69.8058 55.0601 69.7765 55.0601H69.7018C69.6842 55.0601 69.6622 54.9019 69.6359 54.5854C69.6095 54.269 69.5963 54.0815 69.5963 54.0229C69.5963 53.9644 69.6007 53.9321 69.6095 53.9263C69.6212 53.9204 69.6388 53.9175 69.6622 53.9175C69.6857 53.9175 69.7047 53.9248 69.7194 53.9395C69.7369 53.9541 69.7516 53.9731 69.7633 53.9966C69.775 54.0171 69.7838 54.0391 69.7897 54.0625C69.7985 54.0859 69.8175 54.1299 69.8468 54.1943C70.046 54.6191 70.3536 54.8315 70.7697 54.8315C70.9542 54.8315 71.1022 54.7642 71.2135 54.6294C71.3248 54.4917 71.3805 54.3394 71.3805 54.1724C71.3805 54.0054 71.3365 53.8647 71.2487 53.7505C71.1608 53.6362 71.0509 53.5322 70.9191 53.4385C70.7902 53.3447 70.6495 53.2539 70.4972 53.166C69.9054 52.8203 69.6095 52.438 69.6095 52.019C69.6095 51.7056 69.7443 51.436 70.0138 51.2104C70.2833 50.9819 70.5602 50.8677 70.8444 50.8677C71.1285 50.8677 71.338 50.8984 71.4728 50.96C71.6105 51.0215 71.691 51.0742 71.7145 51.1182C71.7379 51.1592 71.7496 51.2969 71.7496 51.5312V51.9355ZM72.6329 54.9414C72.6036 54.9355 72.589 54.915 72.589 54.8799C72.589 54.8271 72.6578 54.792 72.7955 54.7744C73.1119 54.7275 73.2701 54.5605 73.2701 54.2734V51.9487C73.2701 51.8257 73.2028 51.7407 73.068 51.6938C73.0094 51.6733 72.9464 51.6572 72.879 51.6455C72.8116 51.6309 72.7574 51.6177 72.7164 51.606C72.6783 51.5942 72.6534 51.584 72.6417 51.5752C72.6329 51.5635 72.6285 51.5415 72.6285 51.5093C72.6285 51.4741 72.6505 51.4448 72.6945 51.4214L73.8151 50.894C73.8502 50.8765 73.8722 50.8677 73.881 50.8677C73.9308 50.8677 73.9557 50.9028 73.9557 50.9731V54.2734C73.9557 54.5605 74.1139 54.7275 74.4303 54.7744C74.568 54.792 74.6368 54.8228 74.6368 54.8667C74.6368 54.9106 74.6222 54.9355 74.5929 54.9414H72.6329ZM73.547 49.6328C73.4269 49.6328 73.3199 49.5947 73.2262 49.5186C73.1354 49.4424 73.09 49.3369 73.09 49.2021C73.09 49.0645 73.1339 48.9561 73.2218 48.877C73.3097 48.7979 73.4137 48.7583 73.5338 48.7583C73.6569 48.7583 73.7594 48.8052 73.8414 48.8989C73.9264 48.9927 73.9689 49.0938 73.9689 49.2021C73.9689 49.3105 73.9293 49.4102 73.8502 49.501C73.7711 49.5889 73.67 49.6328 73.547 49.6328ZM77.2955 51.9355C77.2955 52 77.2706 52.0322 77.2208 52.0322C77.174 52.0322 77.1373 51.9971 77.111 51.9268C77.0406 51.7334 76.9352 51.562 76.7946 51.4126C76.6569 51.2632 76.4855 51.1885 76.2804 51.1885C76.0109 51.1885 75.8292 51.3232 75.7355 51.5928C75.7062 51.6836 75.6915 51.7773 75.6915 51.874C75.6915 51.9707 75.7531 52.0791 75.8761 52.1992C75.9991 52.3164 76.2013 52.457 76.4825 52.6211C76.7638 52.7852 76.9689 52.9243 77.0978 53.0386C77.3907 53.2993 77.5372 53.6011 77.5372 53.9438C77.5372 54.2866 77.4113 54.5591 77.1593 54.7612C76.9073 54.9604 76.6144 55.0601 76.2804 55.0601C76.1017 55.0601 75.9391 55.0352 75.7926 54.9854C75.649 54.9385 75.5656 54.915 75.5421 54.915C75.5216 54.915 75.4865 54.9385 75.4366 54.9854C75.3898 55.0352 75.3517 55.0601 75.3224 55.0601H75.2477C75.2301 55.0601 75.2081 54.9019 75.1818 54.5854C75.1554 54.269 75.1422 54.0815 75.1422 54.0229C75.1422 53.9644 75.1466 53.9321 75.1554 53.9263C75.1671 53.9204 75.1847 53.9175 75.2081 53.9175C75.2316 53.9175 75.2506 53.9248 75.2653 53.9395C75.2828 53.9541 75.2975 53.9731 75.3092 53.9966C75.3209 54.0171 75.3297 54.0391 75.3356 54.0625C75.3444 54.0859 75.3634 54.1299 75.3927 54.1943C75.5919 54.6191 75.8995 54.8315 76.3156 54.8315C76.5001 54.8315 76.6481 54.7642 76.7594 54.6294C76.8707 54.4917 76.9264 54.3394 76.9264 54.1724C76.9264 54.0054 76.8824 53.8647 76.7946 53.7505C76.7067 53.6362 76.5968 53.5322 76.465 53.4385C76.3361 53.3447 76.1954 53.2539 76.0431 53.166C75.4513 52.8203 75.1554 52.438 75.1554 52.019C75.1554 51.7056 75.2902 51.436 75.5597 51.2104C75.8292 50.9819 76.1061 50.8677 76.3903 50.8677C76.6744 50.8677 76.8839 50.8984 77.0187 50.96C77.1564 51.0215 77.2369 51.0742 77.2604 51.1182C77.2838 51.1592 77.2955 51.2969 77.2955 51.5312V51.9355ZM82.2174 54.7744C82.3551 54.792 82.424 54.8271 82.424 54.8799C82.424 54.915 82.4093 54.9355 82.38 54.9414H80.42C80.3907 54.9355 80.3761 54.915 80.3761 54.8799C80.3761 54.8271 80.4449 54.792 80.5826 54.7744C80.899 54.7275 81.0573 54.5605 81.0573 54.2734V48.7935C81.0573 48.6704 80.9899 48.5854 80.8551 48.5386C80.7965 48.5181 80.7335 48.502 80.6661 48.4902C80.5988 48.4756 80.5446 48.4624 80.5035 48.4507C80.4655 48.439 80.4406 48.4287 80.4288 48.4199C80.42 48.4082 80.4156 48.3862 80.4156 48.354C80.4156 48.3188 80.4376 48.2896 80.4816 48.2661L81.6022 47.7388C81.6373 47.7212 81.6593 47.7124 81.6681 47.7124C81.7179 47.7124 81.7428 47.7476 81.7428 47.8179V54.2734C81.7428 54.5605 81.901 54.7275 82.2174 54.7744ZM85.6056 54.2163C85.6056 54.2925 85.6407 54.354 85.7111 54.4009C85.7843 54.4448 85.8678 54.4668 85.9615 54.4668C86.0553 54.4668 86.1329 54.4434 86.1945 54.3965C86.2589 54.3467 86.3029 54.3218 86.3263 54.3218C86.3497 54.3218 86.3615 54.354 86.3615 54.4185C86.3615 54.48 86.3322 54.5327 86.2736 54.5767C85.8341 54.8989 85.5367 55.0601 85.3815 55.0601C85.194 55.0601 85.0416 54.8652 84.9244 54.4756C84.9156 54.4463 84.9083 54.4331 84.9025 54.436C84.5392 54.7085 84.3107 54.8726 84.2169 54.9282C83.9767 55.0659 83.735 55.0879 83.4918 54.9941C83.2516 54.9004 83.0773 54.7451 82.9689 54.5283C82.9161 54.417 82.8898 54.2983 82.8898 54.1724C82.8898 53.9233 82.9821 53.7256 83.1666 53.5791C83.3512 53.4326 83.7028 53.292 84.2213 53.1572C84.3971 53.1104 84.5538 53.0503 84.6915 52.9771C84.8292 52.9038 84.901 52.8569 84.9069 52.8364C84.9156 52.8159 84.92 52.7969 84.92 52.7793V51.9355C84.92 51.6045 84.7911 51.3716 84.5333 51.2368C84.4484 51.1929 84.3458 51.1709 84.2257 51.1709C84.1085 51.1709 83.9884 51.2178 83.8654 51.3115C83.7452 51.4053 83.6852 51.5386 83.6852 51.7114L83.7072 51.8828C83.6896 51.918 83.5841 51.9766 83.3907 52.0586C83.1974 52.1406 83.0861 52.1846 83.0568 52.1904C83.0099 52.1904 82.9865 52.1348 82.9865 52.0234C82.9865 51.9092 83.0201 51.7832 83.0875 51.6455C83.1549 51.5078 83.2501 51.3818 83.3732 51.2676C83.6603 51.001 83.9884 50.8677 84.3575 50.8677C84.7267 50.8677 85.027 50.9702 85.2584 51.1753C85.4899 51.3774 85.6056 51.6191 85.6056 51.9004V54.2163ZM83.5797 54.0889C83.5797 54.2295 83.6339 54.3525 83.7423 54.458C83.8507 54.5605 83.9738 54.6118 84.1115 54.6118C84.2521 54.6118 84.422 54.5532 84.6212 54.436C84.8204 54.3159 84.92 54.1929 84.92 54.0669V53.1748C84.92 53.1426 84.9127 53.1265 84.8981 53.1265C84.8834 53.1265 84.8732 53.1279 84.8673 53.1309L83.8478 53.6055C83.7423 53.6816 83.6705 53.7461 83.6324 53.7988C83.5973 53.8516 83.5797 53.9482 83.5797 54.0889ZM90.2726 51.2632C90.2726 51.354 90.2931 51.3994 90.3341 51.3994C90.3781 51.3994 90.5656 51.3042 90.8966 51.1138C91.2833 50.9497 91.5778 50.8677 91.7799 50.8677C91.9821 50.8677 92.1754 50.9263 92.36 51.0435C92.5446 51.1606 92.7013 51.3145 92.8302 51.5049C93.1027 51.8975 93.2389 52.3735 93.2389 52.9331C93.2389 53.4927 93.0441 53.9878 92.6544 54.4185C92.2677 54.8462 91.7565 55.0601 91.1207 55.0601C90.7076 55.0601 90.3268 55.0103 89.9781 54.9106C89.8756 54.8813 89.7877 54.8579 89.7145 54.8403C89.6442 54.8228 89.6046 54.8052 89.5958 54.7876C89.59 54.7671 89.587 54.7437 89.587 54.7173V48.7935C89.587 48.6704 89.5197 48.5854 89.3849 48.5386C89.3263 48.5181 89.2633 48.502 89.1959 48.4902C89.1285 48.4756 89.0743 48.4624 89.0333 48.4507C88.9952 48.439 88.9703 48.4287 88.9586 48.4199C88.9498 48.4082 88.9454 48.3862 88.9454 48.354C88.9454 48.3188 88.9674 48.2896 89.0114 48.2661L90.132 47.7388C90.1671 47.7212 90.1891 47.7124 90.1979 47.7124C90.2477 47.7124 90.2726 47.7476 90.2726 47.8179V51.2632ZM91.2042 51.4038C90.9435 51.4038 90.6505 51.4976 90.3253 51.6851C90.2902 51.7056 90.2726 51.7407 90.2726 51.7905V53.8691C90.3019 54.1357 90.4176 54.3438 90.6198 54.4932C90.8219 54.6426 91.0431 54.7173 91.2833 54.7173C91.7052 54.7173 92.0304 54.5503 92.2589 54.2163C92.4904 53.8823 92.6061 53.5015 92.6061 53.0737C92.6061 52.646 92.4889 52.2607 92.2545 51.918C92.0201 51.5752 91.67 51.4038 91.2042 51.4038ZM94.0563 52.9683C94.0563 52.3911 94.2599 51.896 94.6671 51.4829C95.0773 51.0669 95.568 50.8589 96.1393 50.8589C96.7106 50.8589 97.2072 51.061 97.629 51.4653C98.0509 51.8667 98.2618 52.3633 98.2618 52.9551C98.2618 53.5469 98.0612 54.0464 97.6598 54.4536C97.2614 54.8579 96.7604 55.0601 96.1569 55.0601C95.5533 55.0601 95.0524 54.855 94.6539 54.4448C94.2555 54.0347 94.0563 53.5425 94.0563 52.9683ZM95.1505 54.0977C95.4376 54.5811 95.8287 54.8228 96.3239 54.8228C96.7076 54.8228 97.0006 54.6689 97.2028 54.3613C97.4078 54.0537 97.5104 53.6758 97.5104 53.2275C97.5104 52.7793 97.3668 52.3193 97.0797 51.8477C96.7955 51.376 96.4117 51.1401 95.9283 51.1401C95.5739 51.1401 95.2941 51.2939 95.089 51.6016C94.8868 51.9062 94.7858 52.2944 94.7858 52.7661C94.7858 53.2349 94.9073 53.6787 95.1505 54.0977ZM102.129 53.5571L102.12 52.6299C102.12 52.252 102.088 51.9868 102.024 51.8345C101.959 51.6821 101.877 51.5679 101.777 51.4917C101.678 51.4126 101.543 51.373 101.373 51.373C101.206 51.373 100.85 51.5049 100.305 51.7686C100.232 51.8125 100.194 51.8535 100.191 51.8916V54.2559C100.191 54.5518 100.349 54.7217 100.666 54.7656C100.803 54.7861 100.872 54.8198 100.872 54.8667C100.872 54.9106 100.858 54.9355 100.828 54.9414H98.8683C98.839 54.9355 98.8243 54.915 98.8243 54.8799C98.8243 54.8242 98.8932 54.7861 99.0309 54.7656C99.3473 54.7217 99.5055 54.5518 99.5055 54.2559V51.7334C99.5055 51.6104 99.4381 51.5254 99.3033 51.4785C99.2448 51.458 99.1818 51.4419 99.1144 51.4302C99.047 51.4155 98.9928 51.4023 98.9518 51.3906C98.9137 51.3789 98.8888 51.3687 98.8771 51.3599C98.8683 51.3481 98.8639 51.3262 98.8639 51.2939C98.8639 51.2588 98.8859 51.2295 98.9298 51.2061L100.05 50.6787C100.086 50.6611 100.108 50.6523 100.116 50.6523C100.166 50.6523 100.191 50.6875 100.191 50.7578V51.4434C100.2 51.4727 100.212 51.4873 100.226 51.4873C100.244 51.4873 100.307 51.4609 100.415 51.4082C100.667 51.2822 100.921 51.1606 101.175 51.0435C101.43 50.9263 101.641 50.8677 101.808 50.8677C102.485 50.8677 102.823 51.4844 102.823 52.7178L102.784 54.001V54.2559C102.784 54.4844 102.898 54.6338 103.127 54.7041C103.223 54.7363 103.316 54.7598 103.403 54.7744C103.494 54.7861 103.553 54.7979 103.579 54.8096C103.609 54.8213 103.623 54.8447 103.623 54.8799C103.623 54.915 103.609 54.9355 103.579 54.9414H101.461C101.432 54.9355 101.417 54.915 101.417 54.8799C101.417 54.8242 101.486 54.7861 101.624 54.7656C101.937 54.7217 102.094 54.54 102.094 54.2207C102.117 54.0742 102.129 53.853 102.129 53.5571ZM107.244 53.5571L107.235 52.6299C107.235 52.252 107.203 51.9868 107.139 51.8345C107.074 51.6821 106.992 51.5679 106.893 51.4917C106.793 51.4126 106.658 51.373 106.488 51.373C106.321 51.373 105.965 51.5049 105.421 51.7686C105.347 51.8125 105.309 51.8535 105.306 51.8916V54.2559C105.306 54.5518 105.464 54.7217 105.781 54.7656C105.919 54.7861 105.987 54.8198 105.987 54.8667C105.987 54.9106 105.973 54.9355 105.943 54.9414H103.984C103.954 54.9355 103.94 54.915 103.94 54.8799C103.94 54.8242 104.008 54.7861 104.146 54.7656C104.463 54.7217 104.621 54.5518 104.621 54.2559V51.7334C104.621 51.6104 104.553 51.5254 104.419 51.4785C104.36 51.458 104.297 51.4419 104.23 51.4302C104.162 51.4155 104.108 51.4023 104.067 51.3906C104.029 51.3789 104.004 51.3687 103.992 51.3599C103.984 51.3481 103.979 51.3262 103.979 51.2939C103.979 51.2588 104.001 51.2295 104.045 51.2061L105.166 50.6787C105.201 50.6611 105.223 50.6523 105.232 50.6523C105.281 50.6523 105.306 50.6875 105.306 50.7578V51.4434C105.315 51.4727 105.327 51.4873 105.341 51.4873C105.359 51.4873 105.422 51.4609 105.53 51.4082C105.782 51.2822 106.036 51.1606 106.291 51.0435C106.546 50.9263 106.756 50.8677 106.923 50.8677C107.6 50.8677 107.939 51.4844 107.939 52.7178L107.899 54.001V54.2559C107.899 54.4844 108.013 54.6338 108.242 54.7041C108.339 54.7363 108.431 54.7598 108.519 54.7744C108.609 54.7861 108.668 54.7979 108.694 54.8096C108.724 54.8213 108.738 54.8447 108.738 54.8799C108.738 54.915 108.724 54.9355 108.694 54.9414H106.576C106.547 54.9355 106.532 54.915 106.532 54.8799C106.532 54.8242 106.601 54.7861 106.739 54.7656C107.052 54.7217 107.209 54.54 107.209 54.2207C107.233 54.0742 107.244 53.853 107.244 53.5571ZM109.841 52.6255C109.792 52.6255 109.767 52.7324 109.767 52.9463C109.767 53.4004 109.901 53.7812 110.171 54.0889C110.441 54.3965 110.775 54.5503 111.173 54.5503C111.574 54.5503 111.96 54.3774 112.329 54.0317C112.335 54.0259 112.342 54.0229 112.351 54.0229H112.373C112.39 54.0229 112.406 54.0376 112.421 54.0669C112.439 54.0933 112.455 54.1108 112.469 54.1196C112.13 54.5327 111.73 54.8184 111.27 54.9766C111.111 55.0322 110.933 55.0601 110.734 55.0601C110.534 55.0601 110.332 55.0059 110.127 54.8975C109.922 54.7861 109.746 54.6411 109.6 54.4624C109.289 54.0903 109.134 53.6274 109.134 53.0737C109.134 52.5171 109.302 52.0103 109.639 51.5532C109.979 51.0962 110.445 50.8677 111.037 50.8677C111.462 50.8677 111.809 51.0581 112.078 51.439C112.348 51.8169 112.483 52.1494 112.483 52.4365C112.483 52.5625 112.452 52.6255 112.39 52.6255H109.841ZM109.89 52.2036C109.89 52.2593 109.916 52.2871 109.969 52.2871H111.626C111.702 52.2871 111.74 52.2417 111.74 52.1509C111.74 51.9399 111.645 51.7246 111.454 51.5049C111.267 51.2822 111.06 51.1709 110.835 51.1709C110.615 51.1709 110.414 51.2705 110.233 51.4697C110.054 51.6689 109.94 51.896 109.89 52.1509V52.2036ZM116.345 52.6255C116.296 52.6255 116.271 52.7324 116.271 52.9463C116.271 53.4004 116.405 53.7812 116.675 54.0889C116.944 54.3965 117.278 54.5503 117.677 54.5503C118.078 54.5503 118.464 54.3774 118.833 54.0317C118.839 54.0259 118.846 54.0229 118.855 54.0229H118.877C118.894 54.0229 118.91 54.0376 118.925 54.0669C118.943 54.0933 118.959 54.1108 118.973 54.1196C118.633 54.5327 118.234 54.8184 117.774 54.9766C117.615 55.0322 117.437 55.0601 117.237 55.0601C117.038 55.0601 116.836 55.0059 116.631 54.8975C116.426 54.7861 116.25 54.6411 116.104 54.4624C115.793 54.0903 115.638 53.6274 115.638 53.0737C115.638 52.5171 115.806 52.0103 116.143 51.5532C116.483 51.0962 116.949 50.8677 117.541 50.8677C117.965 50.8677 118.313 51.0581 118.582 51.439C118.852 51.8169 118.986 52.1494 118.986 52.4365C118.986 52.5625 118.956 52.6255 118.894 52.6255H116.345ZM116.394 52.2036C116.394 52.2593 116.42 52.2871 116.473 52.2871H118.13C118.206 52.2871 118.244 52.2417 118.244 52.1509C118.244 51.9399 118.149 51.7246 117.958 51.5049C117.771 51.2822 117.564 51.1709 117.339 51.1709C117.119 51.1709 116.918 51.2705 116.736 51.4697C116.558 51.6689 116.443 51.896 116.394 52.1509V52.2036ZM120.793 51.562C120.775 51.562 120.766 51.5752 120.766 51.6016V54.0273C120.766 54.2031 120.804 54.3408 120.88 54.4404C120.96 54.54 121.059 54.5898 121.179 54.5898C121.299 54.5898 121.403 54.5708 121.491 54.5327C121.582 54.4917 121.66 54.4478 121.724 54.4009C121.792 54.354 121.852 54.3115 121.904 54.2734C121.957 54.2324 122.004 54.2119 122.045 54.2119C122.086 54.2119 122.107 54.2222 122.107 54.2427C122.107 54.313 122.099 54.3584 122.085 54.3789C121.733 54.833 121.393 55.0601 121.065 55.0601C120.74 55.0601 120.494 54.9575 120.327 54.7524C120.163 54.5444 120.081 54.2969 120.081 54.0098V51.562H119.751C119.669 51.562 119.625 51.5356 119.619 51.4829C119.616 51.4302 119.625 51.3965 119.646 51.3818C119.801 51.2822 120.015 51.1035 120.287 50.8457C120.317 50.8135 120.356 50.7651 120.406 50.7007C120.456 50.6362 120.527 50.5483 120.621 50.437C120.718 50.3257 120.791 50.27 120.841 50.27C120.891 50.27 120.916 50.2905 120.916 50.3315C120.916 50.3374 120.866 50.5293 120.766 50.9072C120.766 50.96 120.79 50.9878 120.837 50.9907H121.957C122.086 50.9907 122.151 51.1724 122.151 51.5356C122.151 51.5532 122.139 51.562 122.115 51.562H120.793ZM127.121 51.9355C127.121 52 127.096 52.0322 127.046 52.0322C126.999 52.0322 126.963 51.9971 126.936 51.9268C126.866 51.7334 126.76 51.562 126.62 51.4126C126.482 51.2632 126.311 51.1885 126.106 51.1885C125.836 51.1885 125.654 51.3232 125.561 51.5928C125.531 51.6836 125.517 51.7773 125.517 51.874C125.517 51.9707 125.578 52.0791 125.701 52.1992C125.824 52.3164 126.026 52.457 126.308 52.6211C126.589 52.7852 126.794 52.9243 126.923 53.0386C127.216 53.2993 127.362 53.6011 127.362 53.9438C127.362 54.2866 127.236 54.5591 126.984 54.7612C126.733 54.9604 126.44 55.0601 126.106 55.0601C125.927 55.0601 125.764 55.0352 125.618 54.9854C125.474 54.9385 125.391 54.915 125.367 54.915C125.347 54.915 125.312 54.9385 125.262 54.9854C125.215 55.0352 125.177 55.0601 125.148 55.0601H125.073C125.055 55.0601 125.033 54.9019 125.007 54.5854C124.981 54.269 124.967 54.0815 124.967 54.0229C124.967 53.9644 124.972 53.9321 124.981 53.9263C124.992 53.9204 125.01 53.9175 125.033 53.9175C125.057 53.9175 125.076 53.9248 125.09 53.9395C125.108 53.9541 125.123 53.9731 125.134 53.9966C125.146 54.0171 125.155 54.0391 125.161 54.0625C125.17 54.0859 125.189 54.1299 125.218 54.1943C125.417 54.6191 125.725 54.8315 126.141 54.8315C126.325 54.8315 126.473 54.7642 126.585 54.6294C126.696 54.4917 126.752 54.3394 126.752 54.1724C126.752 54.0054 126.708 53.8647 126.62 53.7505C126.532 53.6362 126.422 53.5322 126.29 53.4385C126.161 53.3447 126.021 53.2539 125.868 53.166C125.276 52.8203 124.981 52.438 124.981 52.019C124.981 51.7056 125.115 51.436 125.385 51.2104C125.654 50.9819 125.931 50.8677 126.215 50.8677C126.5 50.8677 126.709 50.8984 126.844 50.96C126.982 51.0215 127.062 51.0742 127.086 51.1182C127.109 51.1592 127.121 51.2969 127.121 51.5312V51.9355ZM131.01 54.5547C130.995 54.5049 130.976 54.4888 130.953 54.5063C130.929 54.521 130.834 54.5708 130.667 54.6558C130.119 54.9282 129.662 55.0645 129.296 55.0645C128.93 55.0645 128.666 54.9473 128.505 54.7129C128.446 54.625 128.417 54.5166 128.417 54.3877V51.707C128.408 51.6221 128.37 51.5488 128.303 51.4873C128.212 51.4111 128.117 51.3701 128.017 51.3643C127.921 51.3584 127.872 51.3291 127.872 51.2764C127.872 51.2207 127.896 51.187 127.943 51.1753L128.949 50.8853C128.984 50.8735 129.018 50.8677 129.05 50.8677C129.085 50.8677 129.103 50.8926 129.103 50.9424V53.8911C129.103 54.0962 129.193 54.2544 129.375 54.3657C129.557 54.4771 129.788 54.5327 130.069 54.5327C130.354 54.5327 130.609 54.4463 130.834 54.2734C130.904 54.2178 130.963 54.1562 131.01 54.0889V51.707C131.001 51.6221 130.963 51.5488 130.896 51.4873C130.805 51.4111 130.71 51.3701 130.61 51.3643C130.513 51.3584 130.465 51.3291 130.465 51.2764C130.465 51.2207 130.488 51.187 130.535 51.1753L131.542 50.8853C131.577 50.8735 131.61 50.8677 131.643 50.8677C131.678 50.8677 131.695 50.897 131.695 50.9556V54.0757C131.71 54.2046 131.747 54.2969 131.805 54.3525C131.864 54.4082 131.959 54.436 132.091 54.436L132.346 54.4185C132.363 54.4185 132.372 54.436 132.372 54.4712C132.372 54.5034 132.35 54.5298 132.306 54.5503L131.137 55.0337C131.102 55.0513 131.071 55.0601 131.045 55.0601C131.022 55.0601 131.01 55.0234 131.01 54.9502V54.5547ZM132.943 54.9414C132.914 54.9355 132.9 54.915 132.9 54.8799C132.9 54.8271 132.968 54.792 133.106 54.7744C133.422 54.7275 133.581 54.5605 133.581 54.2734V51.9487C133.581 51.8257 133.513 51.7407 133.379 51.6938C133.32 51.6733 133.257 51.6572 133.19 51.6455C133.122 51.6309 133.068 51.6177 133.027 51.606C132.989 51.5942 132.964 51.584 132.952 51.5752C132.943 51.5635 132.939 51.5415 132.939 51.5093C132.939 51.4741 132.961 51.4448 133.005 51.4214L134.126 50.894C134.161 50.8765 134.183 50.8677 134.192 50.8677C134.241 50.8677 134.266 50.9028 134.266 50.9731V54.2734C134.266 54.5605 134.424 54.7275 134.741 54.7744C134.879 54.792 134.947 54.8228 134.947 54.8667C134.947 54.9106 134.933 54.9355 134.903 54.9414H132.943ZM133.858 49.6328C133.737 49.6328 133.63 49.5947 133.537 49.5186C133.446 49.4424 133.401 49.3369 133.401 49.2021C133.401 49.0645 133.444 48.9561 133.532 48.877C133.62 48.7979 133.724 48.7583 133.844 48.7583C133.967 48.7583 134.07 48.8052 134.152 48.8989C134.237 48.9927 134.279 49.0938 134.279 49.2021C134.279 49.3105 134.24 49.4102 134.161 49.501C134.082 49.5889 133.981 49.6328 133.858 49.6328ZM137.606 51.9355C137.606 52 137.581 52.0322 137.531 52.0322C137.484 52.0322 137.448 51.9971 137.422 51.9268C137.351 51.7334 137.246 51.562 137.105 51.4126C136.967 51.2632 136.796 51.1885 136.591 51.1885C136.321 51.1885 136.14 51.3232 136.046 51.5928C136.017 51.6836 136.002 51.7773 136.002 51.874C136.002 51.9707 136.064 52.0791 136.187 52.1992C136.31 52.3164 136.512 52.457 136.793 52.6211C137.074 52.7852 137.279 52.9243 137.408 53.0386C137.701 53.2993 137.848 53.6011 137.848 53.9438C137.848 54.2866 137.722 54.5591 137.47 54.7612C137.218 54.9604 136.925 55.0601 136.591 55.0601C136.412 55.0601 136.25 55.0352 136.103 54.9854C135.96 54.9385 135.876 54.915 135.853 54.915C135.832 54.915 135.797 54.9385 135.747 54.9854C135.7 55.0352 135.662 55.0601 135.633 55.0601H135.558C135.541 55.0601 135.519 54.9019 135.492 54.5854C135.466 54.269 135.453 54.0815 135.453 54.0229C135.453 53.9644 135.457 53.9321 135.466 53.9263C135.478 53.9204 135.495 53.9175 135.519 53.9175C135.542 53.9175 135.561 53.9248 135.576 53.9395C135.593 53.9541 135.608 53.9731 135.62 53.9966C135.631 54.0171 135.64 54.0391 135.646 54.0625C135.655 54.0859 135.674 54.1299 135.703 54.1943C135.902 54.6191 136.21 54.8315 136.626 54.8315C136.811 54.8315 136.959 54.7642 137.07 54.6294C137.181 54.4917 137.237 54.3394 137.237 54.1724C137.237 54.0054 137.193 53.8647 137.105 53.7505C137.017 53.6362 136.907 53.5322 136.776 53.4385C136.647 53.3447 136.506 53.2539 136.354 53.166C135.762 52.8203 135.466 52.438 135.466 52.019C135.466 51.7056 135.601 51.436 135.87 51.2104C136.14 50.9819 136.417 50.8677 136.701 50.8677C136.985 50.8677 137.194 50.8984 137.329 50.96C137.467 51.0215 137.547 51.0742 137.571 51.1182C137.594 51.1592 137.606 51.2969 137.606 51.5312V51.9355ZM55.8942 66.7744C56.0319 66.792 56.1007 66.8271 56.1007 66.8799C56.1007 66.915 56.0861 66.9355 56.0568 66.9414H54.0968C54.0675 66.9355 54.0529 66.915 54.0529 66.8799C54.0529 66.8271 54.1217 66.792 54.2594 66.7744C54.5758 66.7275 54.734 66.5605 54.734 66.2734V60.7935C54.734 60.6704 54.6666 60.5854 54.5319 60.5386C54.4733 60.5181 54.4103 60.502 54.3429 60.4902C54.2755 60.4756 54.2213 60.4624 54.1803 60.4507C54.1422 60.439 54.1173 60.4287 54.1056 60.4199C54.0968 60.4082 54.0924 60.3862 54.0924 60.354C54.0924 60.3188 54.1144 60.2896 54.1583 60.2661L55.2789 59.7388C55.3141 59.7212 55.3361 59.7124 55.3448 59.7124C55.3947 59.7124 55.4196 59.7476 55.4196 59.8179V66.2734C55.4196 66.5605 55.5778 66.7275 55.8942 66.7744ZM57.274 64.6255C57.2242 64.6255 57.1993 64.7324 57.1993 64.9463C57.1993 65.4004 57.3341 65.7812 57.6036 66.0889C57.8732 66.3965 58.2072 66.5503 58.6056 66.5503C59.007 66.5503 59.3922 66.3774 59.7614 66.0317C59.7672 66.0259 59.7745 66.0229 59.7833 66.0229H59.8053C59.8229 66.0229 59.839 66.0376 59.8536 66.0669C59.8712 66.0933 59.8873 66.1108 59.902 66.1196C59.5621 66.5327 59.1622 66.8184 58.7023 66.9766C58.5441 67.0322 58.3654 67.0601 58.1661 67.0601C57.9669 67.0601 57.7648 67.0059 57.5597 66.8975C57.3546 66.7861 57.1788 66.6411 57.0323 66.4624C56.7218 66.0903 56.5665 65.6274 56.5665 65.0737C56.5665 64.5171 56.735 64.0103 57.0719 63.5532C57.4117 63.0962 57.8776 62.8677 58.4694 62.8677C58.8942 62.8677 59.2413 63.0581 59.5109 63.439C59.7804 63.8169 59.9152 64.1494 59.9152 64.4365C59.9152 64.5625 59.8844 64.6255 59.8229 64.6255H57.274ZM57.3224 64.2036C57.3224 64.2593 57.3488 64.2871 57.4015 64.2871H59.0582C59.1344 64.2871 59.1725 64.2417 59.1725 64.1509C59.1725 63.9399 59.0773 63.7246 58.8868 63.5049C58.6993 63.2822 58.4928 63.1709 58.2672 63.1709C58.0475 63.1709 57.8468 63.2705 57.6652 63.4697C57.4865 63.6689 57.3722 63.896 57.3224 64.1509V64.2036ZM66.5201 63.395C66.5201 63.6001 66.4015 63.7026 66.1642 63.7026C66.0441 63.7026 65.9415 63.6689 65.8566 63.6016C65.7745 63.5312 65.7101 63.4727 65.6632 63.4258C65.6193 63.376 65.5724 63.3306 65.5226 63.2896C65.3116 63.1167 65.0538 63.0977 64.7491 63.2324C64.4474 63.3672 64.2145 63.6543 64.0504 64.0938C63.9596 64.3369 63.9142 64.5786 63.9142 64.8188C63.9142 65.3345 64.0314 65.7563 64.2657 66.0845C64.5001 66.4097 64.859 66.5723 65.3424 66.5723C65.7028 66.5723 66.0265 66.4111 66.3136 66.0889C66.4015 65.9922 66.4542 65.9438 66.4718 65.9438C66.4894 65.9438 66.5084 65.9526 66.5289 65.9702C66.5494 65.9878 66.5597 66.0142 66.5597 66.0493C66.5597 66.0815 66.5509 66.1064 66.5333 66.124C66.0851 66.748 65.5211 67.0601 64.8414 67.0601C64.3492 67.0601 63.9449 66.877 63.6285 66.5107C63.3151 66.1445 63.1583 65.7256 63.1583 65.2539C63.1613 64.3809 63.3722 63.7524 63.7911 63.3687C64.1603 63.0317 64.6862 62.8633 65.3688 62.8633C65.7906 62.8633 66.0704 62.9058 66.2081 62.9907C66.3458 63.0757 66.4425 63.1826 66.4982 63.3115C66.5128 63.3408 66.5201 63.3687 66.5201 63.395ZM68.3658 63.54C68.3658 63.6104 68.3761 63.6455 68.3966 63.6455C68.4171 63.6455 68.4318 63.6411 68.4406 63.6323C68.4493 63.6206 68.5109 63.5518 68.6251 63.4258C68.9562 63.0566 69.2916 62.8721 69.6315 62.8721C70.0768 62.8721 70.4034 62.9717 70.6115 63.1709C70.8663 63.4229 70.9938 63.8462 70.9938 64.4409V66.2734C70.9938 66.5605 71.152 66.7275 71.4684 66.7744C71.6061 66.792 71.6749 66.8228 71.6749 66.8667C71.6749 66.9106 71.6603 66.9355 71.631 66.9414H69.671C69.6417 66.9355 69.6271 66.915 69.6271 66.8799C69.6271 66.8271 69.6959 66.792 69.8336 66.7744C70.15 66.7275 70.3082 66.5605 70.3082 66.2734V64.4849C70.3082 64.0542 70.2775 63.7744 70.2159 63.6455C70.0988 63.3877 69.8541 63.2588 69.4821 63.2588C69.2535 63.2588 69.0104 63.3569 68.7526 63.5532C68.4948 63.7466 68.3658 63.9604 68.3658 64.1948V66.2734C68.3658 66.5605 68.524 66.7275 68.8405 66.7744C68.9781 66.792 69.047 66.8228 69.047 66.8667C69.047 66.9106 69.0323 66.9355 69.0031 66.9414H67.0431C67.0138 66.9355 66.9991 66.915 66.9991 66.8799C66.9991 66.8271 67.068 66.792 67.2057 66.7744C67.5221 66.7275 67.6803 66.5605 67.6803 66.2734V60.7935C67.6803 60.6704 67.6129 60.5854 67.4781 60.5386C67.4196 60.5181 67.3566 60.502 67.2892 60.4902C67.2218 60.4756 67.1676 60.4624 67.1266 60.4507C67.0885 60.439 67.0636 60.4287 67.0519 60.4199C67.0431 60.4082 67.0387 60.3862 67.0387 60.354C67.0387 60.3188 67.0607 60.2896 67.1046 60.2661L68.2252 59.7388C68.2604 59.7212 68.2823 59.7124 68.2911 59.7124C68.3409 59.7124 68.3658 59.7476 68.3658 59.8179V63.54ZM72.8219 64.6255C72.7721 64.6255 72.7472 64.7324 72.7472 64.9463C72.7472 65.4004 72.882 65.7812 73.1515 66.0889C73.421 66.3965 73.755 66.5503 74.1534 66.5503C74.5548 66.5503 74.9401 66.3774 75.3092 66.0317C75.3151 66.0259 75.3224 66.0229 75.3312 66.0229H75.3531C75.3707 66.0229 75.3868 66.0376 75.4015 66.0669C75.4191 66.0933 75.4352 66.1108 75.4498 66.1196C75.11 66.5327 74.7101 66.8184 74.2501 66.9766C74.0919 67.0322 73.9132 67.0601 73.714 67.0601C73.5148 67.0601 73.3126 67.0059 73.1075 66.8975C72.9025 66.7861 72.7267 66.6411 72.5802 66.4624C72.2697 66.0903 72.1144 65.6274 72.1144 65.0737C72.1144 64.5171 72.2828 64.0103 72.6198 63.5532C72.9596 63.0962 73.4254 62.8677 74.0172 62.8677C74.442 62.8677 74.7892 63.0581 75.0587 63.439C75.3282 63.8169 75.463 64.1494 75.463 64.4365C75.463 64.5625 75.4323 64.6255 75.3707 64.6255H72.8219ZM72.8702 64.2036C72.8702 64.2593 72.8966 64.2871 72.9493 64.2871H74.6061C74.6823 64.2871 74.7203 64.2417 74.7203 64.1509C74.7203 63.9399 74.6251 63.7246 74.4347 63.5049C74.2472 63.2822 74.0406 63.1709 73.8151 63.1709C73.5953 63.1709 73.3947 63.2705 73.213 63.4697C73.0343 63.6689 72.92 63.896 72.8702 64.1509V64.2036ZM81.9933 65.5571L81.9845 64.6299C81.9845 64.252 81.9523 63.9868 81.8878 63.8345C81.8234 63.6821 81.7413 63.5679 81.6417 63.4917C81.5421 63.4126 81.4073 63.373 81.2374 63.373C81.0704 63.373 80.7145 63.5049 80.1696 63.7686C80.0963 63.8125 80.0582 63.8535 80.0553 63.8916V66.2559C80.0553 66.5518 80.2135 66.7217 80.5299 66.7656C80.6676 66.7861 80.7365 66.8198 80.7365 66.8667C80.7365 66.9106 80.7218 66.9355 80.6925 66.9414H78.7325C78.7032 66.9355 78.6886 66.915 78.6886 66.8799C78.6886 66.8242 78.7574 66.7861 78.8951 66.7656C79.2115 66.7217 79.3698 66.5518 79.3698 66.2559V64.0674C79.3698 63.6074 79.0856 63.3774 78.5172 63.3774C78.3092 63.3774 78.0206 63.5005 77.6515 63.7466C77.5577 63.8081 77.4889 63.8652 77.4449 63.918V66.2559C77.4449 66.5518 77.6031 66.7217 77.9196 66.7656C78.0573 66.7861 78.1261 66.8198 78.1261 66.8667C78.1261 66.9106 78.1115 66.9355 78.0822 66.9414H76.1222C76.0929 66.9355 76.0782 66.915 76.0782 66.8799C76.0782 66.8242 76.1471 66.7861 76.2848 66.7656C76.6012 66.7217 76.7594 66.5547 76.7594 66.2646V63.7334C76.7594 63.6104 76.692 63.5254 76.5573 63.4785C76.4987 63.458 76.4357 63.4419 76.3683 63.4302C76.3009 63.4155 76.2467 63.4023 76.2057 63.3906C76.1676 63.3789 76.1427 63.3687 76.131 63.3599C76.1222 63.3481 76.1178 63.3262 76.1178 63.2939C76.1178 63.2588 76.1398 63.2295 76.1837 63.2061L77.3043 62.6787C77.3395 62.6611 77.3615 62.6523 77.3702 62.6523C77.42 62.6523 77.4449 62.6875 77.4449 62.7578V63.4873C77.4479 63.5049 77.4581 63.5137 77.4757 63.5137C77.4962 63.5137 77.5446 63.4932 77.6207 63.4521C77.6998 63.4111 77.8024 63.354 77.9283 63.2808C78.0543 63.2046 78.2198 63.1167 78.4249 63.0171C78.6329 62.9175 78.8527 62.8677 79.0841 62.8677C79.4562 62.8677 79.7228 63.0273 79.8839 63.3467C79.9454 63.4756 80.0011 63.5312 80.0509 63.5137C80.1007 63.4932 80.1783 63.4565 80.2838 63.4038C80.5328 63.2808 80.7848 63.1606 81.0397 63.0435C81.2946 62.9263 81.5055 62.8677 81.6725 62.8677C82.3492 62.8677 82.6876 63.4844 82.6876 64.7178L82.6481 66.001V66.2559C82.6481 66.4844 82.7623 66.6338 82.9908 66.7041C83.0875 66.7363 83.1798 66.7598 83.2677 66.7744C83.3585 66.7861 83.4171 66.7979 83.4435 66.8096C83.4728 66.8213 83.4874 66.8447 83.4874 66.8799C83.4874 66.915 83.4728 66.9355 83.4435 66.9414H81.3253C81.296 66.9355 81.2814 66.915 81.2814 66.8799C81.2814 66.8242 81.3502 66.7861 81.4879 66.7656C81.8014 66.7217 81.9581 66.54 81.9581 66.2207C81.9816 66.0742 81.9933 65.853 81.9933 65.5571ZM83.8126 66.9414C83.7833 66.9355 83.7687 66.915 83.7687 66.8799C83.7687 66.8271 83.8375 66.792 83.9752 66.7744C84.2916 66.7275 84.4498 66.5605 84.4498 66.2734V63.9487C84.4498 63.8257 84.3824 63.7407 84.2477 63.6938C84.1891 63.6733 84.1261 63.6572 84.0587 63.6455C83.9913 63.6309 83.9371 63.6177 83.8961 63.606C83.858 63.5942 83.8331 63.584 83.8214 63.5752C83.8126 63.5635 83.8082 63.5415 83.8082 63.5093C83.8082 63.4741 83.8302 63.4448 83.8741 63.4214L84.9948 62.894C85.0299 62.8765 85.0519 62.8677 85.0607 62.8677C85.1105 62.8677 85.1354 62.9028 85.1354 62.9731V66.2734C85.1354 66.5605 85.2936 66.7275 85.61 66.7744C85.7477 66.792 85.8165 66.8228 85.8165 66.8667C85.8165 66.9106 85.8019 66.9355 85.7726 66.9414H83.8126ZM84.7267 61.6328C84.6066 61.6328 84.4996 61.5947 84.4059 61.5186C84.3151 61.4424 84.2697 61.3369 84.2697 61.2021C84.2697 61.0645 84.3136 60.9561 84.4015 60.877C84.4894 60.7979 84.5934 60.7583 84.7135 60.7583C84.8365 60.7583 84.9391 60.8052 85.0211 60.8989C85.1061 60.9927 85.1486 61.0938 85.1486 61.2021C85.1486 61.3105 85.109 61.4102 85.0299 61.501C84.9508 61.5889 84.8497 61.6328 84.7267 61.6328ZM89.5695 65.5571L89.5607 64.6299C89.5607 64.252 89.5284 63.9868 89.464 63.8345C89.3995 63.6821 89.3175 63.5679 89.2179 63.4917C89.1183 63.4126 88.9835 63.373 88.8136 63.373C88.6466 63.373 88.2906 63.5049 87.7457 63.7686C87.6725 63.8125 87.6344 63.8535 87.6315 63.8916V66.2559C87.6315 66.5518 87.7897 66.7217 88.1061 66.7656C88.2438 66.7861 88.3126 66.8198 88.3126 66.8667C88.3126 66.9106 88.298 66.9355 88.2687 66.9414H86.3087C86.2794 66.9355 86.2648 66.915 86.2648 66.8799C86.2648 66.8242 86.3336 66.7861 86.4713 66.7656C86.7877 66.7217 86.9459 66.5518 86.9459 66.2559V63.7334C86.9459 63.6104 86.8785 63.5254 86.7438 63.4785C86.6852 63.458 86.6222 63.4419 86.5548 63.4302C86.4874 63.4155 86.4332 63.4023 86.3922 63.3906C86.3541 63.3789 86.3292 63.3687 86.3175 63.3599C86.3087 63.3481 86.3043 63.3262 86.3043 63.2939C86.3043 63.2588 86.3263 63.2295 86.3702 63.2061L87.4908 62.6787C87.526 62.6611 87.548 62.6523 87.5568 62.6523C87.6066 62.6523 87.6315 62.6875 87.6315 62.7578V63.4434C87.6403 63.4727 87.652 63.4873 87.6666 63.4873C87.6842 63.4873 87.7472 63.4609 87.8556 63.4082C88.1075 63.2822 88.361 63.1606 88.6158 63.0435C88.8707 62.9263 89.0817 62.8677 89.2487 62.8677C89.9254 62.8677 90.2638 63.4844 90.2638 64.7178L90.2242 66.001V66.2559C90.2242 66.4844 90.3385 66.6338 90.567 66.7041C90.6637 66.7363 90.756 66.7598 90.8439 66.7744C90.9347 66.7861 90.9933 66.7979 91.0197 66.8096C91.049 66.8213 91.0636 66.8447 91.0636 66.8799C91.0636 66.915 91.049 66.9355 91.0197 66.9414H88.9015C88.8722 66.9355 88.8575 66.915 88.8575 66.8799C88.8575 66.8242 88.9264 66.7861 89.0641 66.7656C89.3776 66.7217 89.5343 66.54 89.5343 66.2207C89.5577 66.0742 89.5695 65.853 89.5695 65.5571ZM91.7228 66.502C91.7228 66.3438 91.7784 66.2075 91.8898 66.0933C92.0011 65.9761 92.1359 65.9175 92.2941 65.9175C92.4493 65.9175 92.5826 65.9746 92.694 66.0889C92.8082 66.2002 92.8654 66.3364 92.8654 66.4976C92.8654 66.6587 92.8097 66.7935 92.6984 66.9019C92.587 67.0073 92.4523 67.0601 92.2941 67.0601C92.1388 67.0601 92.004 67.0059 91.8898 66.8975C91.7784 66.7891 91.7228 66.6572 91.7228 66.502Z" fill="#EFB85F"/>
<path d="M17.5002 10L18.696 11.9748L21 13L18.696 14.0249L17.5002 16L16.304 14.0249L14 13L16.304 11.9748L17.5002 10Z" fill="#EFB85F"/>
<path d="M17.5002 86L18.696 87.9748L21 89L18.696 90.0249L17.5002 92L16.304 90.0249L14 89L16.304 87.9748L17.5002 86Z" fill="#EFB85F"/>
<path d="M124.5 84L125.696 85.9748L128 87L125.696 88.0249L124.5 90L123.304 88.0249L121 87L123.304 85.9748L124.5 84Z" fill="#EFB85F"/>
<path d="M80.5002 90L81.696 91.9748L84 93L81.696 94.0249L80.5002 96L79.304 94.0249L77 93L79.304 91.9748L80.5002 90Z" fill="#EFB85F"/>
<path d="M120.5 7L121.696 8.97475L124 10L121.696 11.0249L120.5 13L119.304 11.0249L117 10L119.304 8.97475L120.5 7Z" fill="#EFB85F"/>
<path d="M95.125 16.6259C95.1509 16.3615 95.1942 15.7335 95.2288 15.2377C95.2634 14.6647 95.324 14.3011 95.3932 14.2681C95.4538 14.235 95.7307 14.4113 95.999 14.6537C96.2759 14.9071 96.5182 15.0834 96.5441 15.0504C96.5615 15.0283 96.397 14.6757 96.1807 14.2791C95.9038 13.7943 95.8086 13.5519 95.8865 13.5189C95.9471 13.4968 96.3884 13.4197 96.8643 13.3426C98.3873 13.1222 98.3787 13.001 96.8384 12.7917C96.3019 12.7145 95.8519 12.6154 95.8346 12.5823C95.8086 12.5382 95.973 12.2187 96.1807 11.8661C96.3884 11.5025 96.5441 11.183 96.5182 11.15C96.4922 11.1279 96.2326 11.3152 95.9471 11.5687C95.6528 11.8331 95.3932 11.9984 95.3586 11.9543C95.3154 11.8992 95.2461 11.2381 95.1856 10.4779C95.0298 8.49462 94.9606 8.50564 94.7962 10.5219C94.7356 11.2822 94.6664 11.9433 94.6317 11.9763C94.6058 12.0094 94.3462 11.8331 94.052 11.5797C93.7664 11.3152 93.5155 11.1279 93.4895 11.161C93.4722 11.183 93.602 11.4805 93.7924 11.8111C93.9827 12.1306 94.1385 12.4611 94.1385 12.5272C94.1385 12.6044 93.7664 12.7035 93.1607 12.7917C91.6117 13.001 91.6117 13.1222 93.1693 13.3536C93.7577 13.4417 94.1385 13.5519 94.1385 13.618C94.1385 13.6841 93.9827 14.0147 93.7924 14.3342C93.3857 15.0283 93.351 15.2046 93.6799 14.9292C93.8183 14.83 94.0693 14.6096 94.251 14.4554C94.6664 14.1138 94.701 14.1689 94.7789 15.3589C94.8913 17.1107 95.0211 17.5735 95.125 16.6259Z" fill="#EFB85F"/>
<path d="M39.125 89.6259C39.1509 89.3615 39.1942 88.7335 39.2288 88.2377C39.2634 87.6647 39.324 87.3011 39.3932 87.2681C39.4538 87.235 39.7307 87.4113 39.999 87.6537C40.2759 87.9071 40.5182 88.0834 40.5441 88.0504C40.5615 88.0283 40.397 87.6757 40.1807 87.2791C39.9038 86.7943 39.8086 86.5519 39.8865 86.5189C39.9471 86.4968 40.3884 86.4197 40.8643 86.3426C42.3873 86.1222 42.3787 86.001 40.8384 85.7917C40.3019 85.7145 39.8519 85.6154 39.8346 85.5823C39.8086 85.5382 39.973 85.2187 40.1807 84.8661C40.3884 84.5025 40.5441 84.183 40.5182 84.15C40.4922 84.1279 40.2326 84.3152 39.9471 84.5687C39.6528 84.8331 39.3932 84.9984 39.3586 84.9543C39.3154 84.8992 39.2461 84.2381 39.1856 83.4779C39.0298 81.4946 38.9606 81.5056 38.7962 83.5219C38.7356 84.2822 38.6664 84.9433 38.6317 84.9763C38.6058 85.0094 38.3462 84.8331 38.052 84.5797C37.7664 84.3152 37.5155 84.1279 37.4895 84.161C37.4722 84.183 37.602 84.4805 37.7924 84.8111C37.9827 85.1306 38.1385 85.4611 38.1385 85.5272C38.1385 85.6044 37.7664 85.7035 37.1607 85.7917C35.6117 86.001 35.6117 86.1222 37.1693 86.3536C37.7577 86.4417 38.1385 86.5519 38.1385 86.618C38.1385 86.6841 37.9827 87.0147 37.7924 87.3342C37.3857 88.0283 37.351 88.2046 37.6799 87.9292C37.8183 87.83 38.0693 87.6096 38.251 87.4554C38.6664 87.1138 38.701 87.1689 38.7789 88.3589C38.8913 90.1107 39.0211 90.5735 39.125 89.6259Z" fill="#EFB85F"/>
<path d="M110.125 99.6259C110.151 99.3615 110.194 98.7335 110.229 98.2377C110.263 97.6647 110.324 97.3011 110.393 97.2681C110.454 97.235 110.731 97.4113 110.999 97.6537C111.276 97.9071 111.518 98.0834 111.544 98.0504C111.561 98.0283 111.397 97.6757 111.181 97.2791C110.904 96.7943 110.809 96.5519 110.886 96.5189C110.947 96.4968 111.388 96.4197 111.864 96.3426C113.387 96.1222 113.379 96.001 111.838 95.7917C111.302 95.7145 110.852 95.6154 110.835 95.5823C110.809 95.5382 110.973 95.2187 111.181 94.8661C111.388 94.5025 111.544 94.183 111.518 94.15C111.492 94.1279 111.233 94.3152 110.947 94.5687C110.653 94.8331 110.393 94.9984 110.359 94.9543C110.315 94.8992 110.246 94.2381 110.186 93.4779C110.03 91.4946 109.961 91.5056 109.796 93.5219C109.736 94.2822 109.666 94.9433 109.632 94.9763C109.606 95.0094 109.346 94.8331 109.052 94.5797C108.766 94.3152 108.515 94.1279 108.489 94.161C108.472 94.183 108.602 94.4805 108.792 94.8111C108.983 95.1306 109.138 95.4611 109.138 95.5272C109.138 95.6044 108.766 95.7035 108.161 95.7917C106.612 96.001 106.612 96.1222 108.169 96.3536C108.758 96.4417 109.138 96.5519 109.138 96.618C109.138 96.6841 108.983 97.0147 108.792 97.3342C108.386 98.0283 108.351 98.2046 108.68 97.9292C108.818 97.83 109.069 97.6096 109.251 97.4554C109.666 97.1138 109.701 97.1689 109.779 98.3589C109.891 100.111 110.021 100.573 110.125 99.6259Z" fill="#EFB85F"/>
<path d="M53.125 12.6259C53.1509 12.3615 53.1942 11.7335 53.2288 11.2377C53.2634 10.6647 53.324 10.3011 53.3932 10.2681C53.4538 10.235 53.7307 10.4113 53.999 10.6537C54.2759 10.9071 54.5182 11.0834 54.5441 11.0504C54.5615 11.0283 54.397 10.6757 54.1807 10.2791C53.9038 9.7943 53.8086 9.55191 53.8865 9.51885C53.9471 9.49682 54.3884 9.41969 54.8643 9.34256C56.3873 9.1222 56.3787 9.001 54.8384 8.79166C54.3019 8.71453 53.8519 8.61537 53.8346 8.58232C53.8086 8.53825 53.973 8.21872 54.1807 7.86614C54.3884 7.50255 54.5441 7.18302 54.5182 7.14997C54.4922 7.12793 54.2326 7.31524 53.9471 7.56866C53.6528 7.83309 53.3932 7.99836 53.3586 7.95429C53.3154 7.8992 53.2461 7.23811 53.1856 6.47787C53.0298 4.49462 52.9606 4.50564 52.7962 6.52194C52.7356 7.28219 52.6664 7.94327 52.6317 7.97632C52.6058 8.00938 52.3462 7.83309 52.052 7.57967C51.7664 7.31524 51.5155 7.12793 51.4895 7.16099C51.4722 7.18302 51.602 7.48051 51.7924 7.81105C51.9827 8.13058 52.1385 8.46112 52.1385 8.52723C52.1385 8.60435 51.7664 8.70352 51.1607 8.79166C49.6117 9.001 49.6117 9.1222 51.1693 9.35358C51.7577 9.44173 52.1385 9.55191 52.1385 9.61802C52.1385 9.68412 51.9827 10.0147 51.7924 10.3342C51.3857 11.0283 51.351 11.2046 51.6799 10.9292C51.8183 10.83 52.0693 10.6096 52.251 10.4554C52.6664 10.1138 52.701 10.1689 52.7789 11.3589C52.8913 13.1107 53.0211 13.5735 53.125 12.6259Z" fill="#EFB85F"/>
<circle cx="26" cy="81" r="1" fill="#EFB85F"/>
<circle cx="57" cy="96" r="1" fill="#EFB85F"/>
<circle cx="111" cy="84" r="1" fill="#EFB85F"/>
<circle cx="139" cy="16" r="1" fill="#EFB85F"/>
<circle cx="143" cy="55" r="1" fill="#EFB85F"/>
<circle cx="139" cy="93" r="1" fill="#EFB85F"/>
<circle cx="36" cy="10" r="1" fill="#EFB85F"/>
<circle cx="75" cy="6" r="1" fill="#EFB85F"/>
<path d="M30.1536 96.762L33.0001 96.6487L30.1536 96.5354L31.0464 95.3761L30.0932 96.4619L30 93L29.9069 96.4619L28.9537 95.3761L29.8465 96.5354L27 96.6487L29.8465 96.762L28.9537 97.9212L29.9069 96.8354L30 100.297L30.0932 96.8354L31.0464 97.9212L30.1536 96.762Z" fill="#EFB85F"/>
<path d="M11.1536 76.762L14.0001 76.6487L11.1536 76.5354L12.0464 75.3761L11.0932 76.4619L11 73L10.9069 76.4619L9.95375 75.3761L10.8465 76.5354L8 76.6487L10.8465 76.762L9.95375 77.9212L10.9069 76.8354L11 80.2973L11.0932 76.8354L12.0464 77.9212L11.1536 76.762Z" fill="#EFB85F"/>
<path d="M68.1536 11.762L71.0001 11.6487L68.1536 11.5354L69.0464 10.3761L68.0932 11.4619L68 8L67.9069 11.4619L66.9537 10.3761L67.8465 11.5354L65 11.6487L67.8465 11.762L66.9537 12.9212L67.9069 11.8354L68 15.2973L68.0932 11.8354L69.0464 12.9212L68.1536 11.762Z" fill="#EFB85F"/>
<path d="M137.154 76.762L140 76.6487L137.154 76.5354L138.046 75.3761L137.093 76.4619L137 73L136.907 76.4619L135.954 75.3761L136.847 76.5354L134 76.6487L136.847 76.762L135.954 77.9212L136.907 76.8354L137 80.2973L137.093 76.8354L138.046 77.9212L137.154 76.762Z" fill="#EFB85F"/>
<path d="M129.154 95.762L132 95.6487L129.154 95.5354L130.046 94.3761L129.093 95.4619L129 92L128.907 95.4619L127.954 94.3761L128.847 95.5354L126 95.6487L128.847 95.762L127.954 96.9212L128.907 95.8354L129 99.2973L129.093 95.8354L130.046 96.9212L129.154 95.762Z" fill="#EFB85F"/>
<path d="M8.15357 18.762L11.0001 18.6487L8.15357 18.5354L9.04635 17.3761L8.09316 18.4619L8.00005 15L7.90694 18.4619L6.95375 17.3761L7.84653 18.5354L5 18.6487L7.84653 18.762L6.95375 19.9212L7.90694 18.8354L8.00005 22.2973L8.09316 18.8354L9.04635 19.9212L8.15357 18.762Z" fill="#EFB85F"/>
</svg>
