<svg width="148" height="105" viewBox="0 0 148 105" fill="none" xmlns="http://www.w3.org/2000/svg">
<rect width="147.402" height="104.882" rx="10" fill="black"/>
<path d="M29.2672 35.2124C29.2672 35.2384 29.2542 35.2515 29.2281 35.2515H29.0475C28.6341 35.3328 28.3297 35.6714 28.1344 36.2671C28.0823 36.4233 28.0286 36.5747 27.9733 36.7212L26.0543 41.9019C26.025 41.9832 25.9892 42.0321 25.9469 42.0483C25.9046 42.0646 25.846 42.0728 25.7711 42.0728H25.5416C25.4635 42.0728 25.413 42.0369 25.3903 41.9653L22.817 35.73C22.7128 35.4728 22.4557 35.3149 22.0455 35.2563C22.0227 35.2531 22.0032 35.2515 21.9869 35.2515C21.9739 35.2515 21.9674 35.2384 21.9674 35.2124V35.0952C21.9674 35.0692 21.9804 35.0562 22.0065 35.0562H24.8873C24.9134 35.0562 24.9264 35.0692 24.9264 35.0952V35.2124C24.9264 35.2384 24.9134 35.2515 24.8873 35.2515H24.8141C24.7327 35.2645 24.6383 35.2775 24.5309 35.2905C24.1142 35.3426 23.9059 35.5086 23.9059 35.7886C23.9059 35.8765 23.9287 35.9709 23.9742 36.0718L25.8248 40.5737C25.8574 40.6388 25.8916 40.6372 25.9274 40.5688L27.6266 35.9692C27.6494 35.9041 27.6608 35.8276 27.6608 35.7397C27.6608 35.6486 27.6233 35.5623 27.5485 35.481C27.4736 35.3963 27.3971 35.3475 27.319 35.3345C27.2441 35.3215 27.1839 35.3117 27.1383 35.3052C27.096 35.2987 27.0309 35.2889 26.943 35.2759C26.8551 35.2596 26.7965 35.2515 26.7672 35.2515C26.7379 35.2515 26.7233 35.2384 26.7233 35.2124V35.0952C26.7233 35.0692 26.7363 35.0562 26.7623 35.0562H29.2281C29.2542 35.0562 29.2672 35.0692 29.2672 35.0952V35.2124ZM29.6627 39.7485C29.6627 39.1073 29.889 38.5571 30.3414 38.0981C30.7972 37.6359 31.3424 37.4048 31.9772 37.4048C32.6119 37.4048 33.1637 37.6294 33.6324 38.0786C34.1012 38.5246 34.3356 39.0763 34.3356 39.7339C34.3356 40.3914 34.1126 40.9465 33.6666 41.3989C33.2239 41.8481 32.6673 42.0728 31.9967 42.0728C31.3261 42.0728 30.7695 41.8449 30.3268 41.3892C29.8841 40.9334 29.6627 40.3866 29.6627 39.7485ZM30.8785 41.0034C31.1976 41.5405 31.6321 41.8091 32.1823 41.8091C32.6087 41.8091 32.9342 41.6382 33.1588 41.2964C33.3867 40.9546 33.5006 40.5347 33.5006 40.0366C33.5006 39.5386 33.3411 39.0275 33.0221 38.5034C32.7063 37.9793 32.2799 37.7173 31.7428 37.7173C31.3489 37.7173 31.038 37.8882 30.8102 38.23C30.5856 38.5685 30.4733 38.9998 30.4733 39.5239C30.4733 40.0448 30.6084 40.5379 30.8785 41.0034ZM35.0485 41.9409C35.0159 41.9344 34.9996 41.9116 34.9996 41.8726C34.9996 41.814 35.0761 41.7749 35.2291 41.7554C35.5807 41.7033 35.7565 41.5177 35.7565 41.1987V38.6157C35.7565 38.479 35.6816 38.3846 35.5319 38.3325C35.4668 38.3097 35.3968 38.2918 35.3219 38.2788C35.247 38.2625 35.1868 38.2479 35.1412 38.2349C35.0989 38.2218 35.0712 38.2104 35.0582 38.2007C35.0485 38.1877 35.0436 38.1632 35.0436 38.1274C35.0436 38.0884 35.068 38.0558 35.1168 38.0298L36.3619 37.4438C36.401 37.4243 36.4254 37.4146 36.4352 37.4146C36.4905 37.4146 36.5182 37.4536 36.5182 37.5317V41.1987C36.5182 41.5177 36.694 41.7033 37.0455 41.7554C37.1985 41.7749 37.275 41.8091 37.275 41.8579C37.275 41.9067 37.2587 41.9344 37.2262 41.9409H35.0485ZM36.0641 36.0425C35.9306 36.0425 35.8118 36.0002 35.7076 35.9155C35.6067 35.8309 35.5563 35.7137 35.5563 35.564C35.5563 35.411 35.6051 35.2905 35.7028 35.2026C35.8004 35.1147 35.916 35.0708 36.0494 35.0708C36.1862 35.0708 36.3001 35.1229 36.3912 35.2271C36.4856 35.3312 36.5328 35.4435 36.5328 35.564C36.5328 35.6844 36.4889 35.7951 36.401 35.896C36.3131 35.9937 36.2008 36.0425 36.0641 36.0425ZM41.694 38.0005C41.694 38.2284 41.5621 38.3423 41.2985 38.3423C41.165 38.3423 41.0511 38.3049 40.9567 38.23C40.8655 38.1519 40.7939 38.0868 40.7418 38.0347C40.693 37.9793 40.6409 37.9289 40.5856 37.8833C40.3512 37.6912 40.0647 37.6701 39.7262 37.8198C39.3909 37.9696 39.1321 38.2886 38.9498 38.7769C38.8489 39.047 38.7985 39.3156 38.7985 39.5825C38.7985 40.1554 38.9287 40.6242 39.1891 40.9888C39.4495 41.3501 39.8483 41.5308 40.3854 41.5308C40.7858 41.5308 41.1455 41.3517 41.4645 40.9937C41.5621 40.8862 41.6207 40.8325 41.6403 40.8325C41.6598 40.8325 41.6809 40.8423 41.7037 40.8618C41.7265 40.8813 41.7379 40.9106 41.7379 40.9497C41.7379 40.9855 41.7281 41.0132 41.7086 41.0327C41.2106 41.7261 40.5839 42.0728 39.8287 42.0728C39.2819 42.0728 38.8326 41.8693 38.4811 41.4624C38.1328 41.0555 37.9586 40.59 37.9586 40.0659C37.9619 39.0959 38.1962 38.3976 38.6617 37.9712C39.0719 37.5968 39.6562 37.4097 40.4147 37.4097C40.8834 37.4097 41.1943 37.4569 41.3473 37.5513C41.5003 37.6457 41.6077 37.7645 41.6696 37.9077C41.6858 37.9403 41.694 37.9712 41.694 38.0005ZM42.4215 41.9409C42.389 41.9344 42.3727 41.9116 42.3727 41.8726C42.3727 41.814 42.4492 41.7749 42.6022 41.7554C42.9537 41.7033 43.1295 41.5177 43.1295 41.1987V38.6157C43.1295 38.479 43.0546 38.3846 42.9049 38.3325C42.8398 38.3097 42.7698 38.2918 42.6949 38.2788C42.6201 38.2625 42.5599 38.2479 42.5143 38.2349C42.472 38.2218 42.4443 38.2104 42.4313 38.2007C42.4215 38.1877 42.4166 38.1632 42.4166 38.1274C42.4166 38.0884 42.441 38.0558 42.4899 38.0298L43.735 37.4438C43.774 37.4243 43.7985 37.4146 43.8082 37.4146C43.8636 37.4146 43.8912 37.4536 43.8912 37.5317V41.1987C43.8912 41.5177 44.067 41.7033 44.4186 41.7554C44.5716 41.7749 44.6481 41.8091 44.6481 41.8579C44.6481 41.9067 44.6318 41.9344 44.5992 41.9409H42.4215ZM43.4371 36.0425C43.3037 36.0425 43.1849 36.0002 43.0807 35.9155C42.9798 35.8309 42.9293 35.7137 42.9293 35.564C42.9293 35.411 42.9781 35.2905 43.0758 35.2026C43.1735 35.1147 43.289 35.0708 43.4225 35.0708C43.5592 35.0708 43.6731 35.1229 43.7643 35.2271C43.8587 35.3312 43.9059 35.4435 43.9059 35.564C43.9059 35.6844 43.8619 35.7951 43.774 35.896C43.6862 35.9937 43.5739 36.0425 43.4371 36.0425ZM49.7213 41.7554C49.8743 41.7749 49.9508 41.814 49.9508 41.8726C49.9508 41.9116 49.9345 41.9344 49.902 41.9409H47.7242C47.6917 41.9344 47.6754 41.9116 47.6754 41.8726C47.6754 41.814 47.7519 41.7749 47.9049 41.7554C48.2565 41.7033 48.4323 41.5177 48.4323 41.1987V35.1099C48.4323 34.9731 48.3574 34.8787 48.2076 34.8267C48.1425 34.8039 48.0726 34.786 47.9977 34.7729C47.9228 34.7567 47.8626 34.742 47.817 34.729C47.7747 34.716 47.747 34.7046 47.734 34.6948C47.7242 34.6818 47.7194 34.6574 47.7194 34.6216C47.7194 34.5825 47.7438 34.55 47.7926 34.5239L49.0377 33.938C49.0768 33.9185 49.1012 33.9087 49.111 33.9087C49.1663 33.9087 49.194 33.9478 49.194 34.0259V41.1987C49.194 41.5177 49.3698 41.7033 49.7213 41.7554ZM53.486 41.1353C53.486 41.2199 53.525 41.2882 53.6031 41.3403C53.6845 41.3892 53.7773 41.4136 53.8815 41.4136C53.9856 41.4136 54.0719 41.3875 54.1403 41.3354C54.2119 41.2801 54.2607 41.2524 54.2867 41.2524C54.3128 41.2524 54.3258 41.2882 54.3258 41.3599C54.3258 41.4282 54.2933 41.4868 54.2281 41.5356C53.7399 41.8937 53.4095 42.0728 53.2369 42.0728C53.0286 42.0728 52.8593 41.8563 52.7291 41.4233C52.7194 41.3908 52.7112 41.3761 52.7047 41.3794C52.3011 41.6821 52.0472 41.8644 51.943 41.9263C51.6761 42.0793 51.4075 42.1037 51.1373 41.9995C50.8704 41.8953 50.6767 41.7228 50.5563 41.4819C50.4977 41.3582 50.4684 41.2264 50.4684 41.0864C50.4684 40.8097 50.5709 40.59 50.776 40.4272C50.9811 40.2645 51.3717 40.1082 51.9479 39.9585C52.1432 39.9064 52.3173 39.8397 52.4703 39.7583C52.6233 39.6769 52.7031 39.6248 52.7096 39.6021C52.7194 39.5793 52.7242 39.5581 52.7242 39.5386V38.6011C52.7242 38.2332 52.581 37.9744 52.2946 37.8247C52.2002 37.7759 52.0862 37.7515 51.9528 37.7515C51.8226 37.7515 51.6891 37.8035 51.5524 37.9077C51.4189 38.0119 51.3522 38.16 51.3522 38.3521L51.3766 38.5425C51.3571 38.5815 51.2399 38.6466 51.025 38.7378C50.8102 38.8289 50.6865 38.8778 50.6539 38.8843C50.6018 38.8843 50.5758 38.8224 50.5758 38.6987C50.5758 38.5718 50.6132 38.4318 50.6881 38.2788C50.763 38.1258 50.8688 37.9858 51.0055 37.8589C51.3245 37.5627 51.6891 37.4146 52.0992 37.4146C52.5094 37.4146 52.8431 37.5285 53.1002 37.7563C53.3574 37.981 53.486 38.2495 53.486 38.562V41.1353ZM51.235 40.9937C51.235 41.1499 51.2952 41.2866 51.4156 41.4038C51.5361 41.5177 51.6728 41.5747 51.8258 41.5747C51.9821 41.5747 52.1709 41.5096 52.3922 41.3794C52.6136 41.2459 52.7242 41.1092 52.7242 40.9692V39.978C52.7242 39.9422 52.7161 39.9243 52.6998 39.9243C52.6836 39.9243 52.6722 39.9259 52.6656 39.9292L51.5328 40.4565C51.4156 40.5412 51.3359 40.6128 51.2936 40.6714C51.2545 40.73 51.235 40.8374 51.235 40.9937ZM60.151 41.8628C60.151 41.9149 60.1217 41.9409 60.0631 41.9409H57.3824C57.3499 41.9344 57.3336 41.9116 57.3336 41.8726C57.3336 41.814 57.4101 41.7749 57.5631 41.7554C57.9147 41.7033 58.0905 41.5177 58.0905 41.1987V38.2397C58.0905 38.2039 58.0709 38.186 58.0319 38.186H57.4996C57.4606 38.186 57.4231 38.1746 57.3873 38.1519C57.3515 38.1258 57.3336 38.0933 57.3336 38.0542C57.3336 38.0119 57.3531 37.9793 57.3922 37.9565C57.4476 37.924 57.5778 37.88 57.7828 37.8247C57.9879 37.7694 58.0905 37.6782 58.0905 37.5513V37.3901C58.0905 35.7625 58.5901 34.6997 59.5895 34.2017C59.6936 34.1528 59.7897 34.1284 59.8776 34.1284C59.9655 34.1284 60.1054 34.1512 60.2975 34.1968C60.4895 34.2424 60.6442 34.2651 60.7614 34.2651C60.8818 34.2651 61.0657 34.2261 61.3131 34.1479L61.7574 33.938C61.7965 33.9185 61.8209 33.9087 61.8307 33.9087C61.886 33.9087 61.9137 33.9478 61.9137 34.0259V41.1987C61.9137 41.5177 62.0895 41.7033 62.441 41.7554C62.594 41.7749 62.6705 41.8091 62.6705 41.8579C62.6705 41.9067 62.6543 41.9344 62.6217 41.9409H60.444C60.4114 41.9344 60.3951 41.9116 60.3951 41.8726C60.3951 41.814 60.4716 41.7749 60.6246 41.7554C60.9762 41.7033 61.152 41.5177 61.152 41.1987V38.186H58.9156C58.8733 38.186 58.8522 38.2023 58.8522 38.2349V41.1011C58.8522 41.5666 59.2558 41.7993 60.0631 41.7993C60.1217 41.8058 60.151 41.827 60.151 41.8628ZM58.8522 37.5073C58.8522 37.5334 58.8684 37.5464 58.901 37.5464H61.152V35.0757C60.8558 34.8478 60.6425 34.7127 60.5123 34.6704C60.3854 34.6281 60.2438 34.6069 60.0875 34.6069C59.7555 34.6069 59.4902 34.6834 59.2916 34.8364C59.0963 34.9862 58.9742 35.1636 58.9254 35.3687C58.8766 35.5737 58.8522 35.813 58.8522 36.0864V37.5073ZM63.9694 39.3677C63.914 39.3677 63.8864 39.4865 63.8864 39.7241C63.8864 40.2287 64.0361 40.6519 64.3356 40.9937C64.6351 41.3354 65.0061 41.5063 65.4489 41.5063C65.8948 41.5063 66.3229 41.3143 66.733 40.9302C66.7395 40.9237 66.7477 40.9204 66.7574 40.9204H66.7819C66.8014 40.9204 66.8193 40.9367 66.8356 40.9692C66.8551 40.9985 66.873 41.0181 66.8893 41.0278C66.5117 41.4868 66.0673 41.8042 65.5563 41.98C65.3805 42.0418 65.1819 42.0728 64.9606 42.0728C64.7392 42.0728 64.5146 42.0125 64.2867 41.8921C64.0589 41.7684 63.8636 41.6073 63.7008 41.4087C63.3558 40.9953 63.1832 40.481 63.1832 39.8657C63.1832 39.2472 63.3704 38.6841 63.7448 38.1763C64.1224 37.6685 64.6399 37.4146 65.2975 37.4146C65.7695 37.4146 66.1552 37.6261 66.4547 38.0493C66.7542 38.4692 66.9039 38.8387 66.9039 39.1577C66.9039 39.2977 66.8698 39.3677 66.8014 39.3677H63.9694ZM64.0231 38.8989C64.0231 38.9608 64.0524 38.9917 64.111 38.9917H65.9518C66.0364 38.9917 66.0787 38.9412 66.0787 38.8403C66.0787 38.606 65.9729 38.3667 65.7614 38.1226C65.553 37.8752 65.3235 37.7515 65.0729 37.7515C64.8287 37.7515 64.6058 37.8621 64.4039 38.0835C64.2054 38.3049 64.0784 38.5571 64.0231 38.8403V38.8989ZM65.5563 36.731C65.5433 36.744 65.5319 36.7505 65.5221 36.7505C65.5123 36.7505 65.5009 36.744 65.4879 36.731L64.1744 35.6714C63.9954 35.5184 63.9059 35.38 63.9059 35.2563C63.9059 35.1326 63.9384 35.035 64.0035 34.9634C64.0719 34.8885 64.163 34.8511 64.277 34.8511C64.3909 34.8511 64.5065 34.9308 64.6237 35.0903L65.6637 36.5308C65.6767 36.5438 65.6832 36.5535 65.6832 36.5601C65.6832 36.5666 65.6767 36.5763 65.6637 36.5894L65.5563 36.731ZM71.5573 38.0005C71.5573 38.2284 71.4254 38.3423 71.1617 38.3423C71.0283 38.3423 70.9143 38.3049 70.8199 38.23C70.7288 38.1519 70.6572 38.0868 70.6051 38.0347C70.5563 37.9793 70.5042 37.9289 70.4489 37.8833C70.2145 37.6912 69.928 37.6701 69.5895 37.8198C69.2542 37.9696 68.9954 38.2886 68.8131 38.7769C68.7122 39.047 68.6617 39.3156 68.6617 39.5825C68.6617 40.1554 68.792 40.6242 69.0524 40.9888C69.3128 41.3501 69.7115 41.5308 70.2487 41.5308C70.649 41.5308 71.0087 41.3517 71.3278 40.9937C71.4254 40.8862 71.484 40.8325 71.5035 40.8325C71.5231 40.8325 71.5442 40.8423 71.567 40.8618C71.5898 40.8813 71.6012 40.9106 71.6012 40.9497C71.6012 40.9855 71.5914 41.0132 71.5719 41.0327C71.0739 41.7261 70.4472 42.0728 69.692 42.0728C69.1451 42.0728 68.6959 41.8693 68.3444 41.4624C67.9961 41.0555 67.8219 40.59 67.8219 40.0659C67.8252 39.0959 68.0595 38.3976 68.525 37.9712C68.9352 37.5968 69.5195 37.4097 70.278 37.4097C70.7467 37.4097 71.0576 37.4569 71.2106 37.5513C71.3636 37.6457 71.471 37.7645 71.5328 37.9077C71.5491 37.9403 71.5573 37.9712 71.5573 38.0005ZM73.608 38.1616C73.608 38.2397 73.6194 38.2788 73.6422 38.2788C73.665 38.2788 73.6813 38.2739 73.691 38.2642C73.7008 38.2511 73.7692 38.1746 73.8961 38.0347C74.264 37.6245 74.6367 37.4194 75.0143 37.4194C75.5091 37.4194 75.872 37.5301 76.1031 37.7515C76.3864 38.0314 76.528 38.5018 76.528 39.1626V41.1987C76.528 41.5177 76.7037 41.7033 77.0553 41.7554C77.2083 41.7749 77.2848 41.8091 77.2848 41.8579C77.2848 41.9067 77.2685 41.9344 77.236 41.9409H75.0582C75.0257 41.9344 75.0094 41.9116 75.0094 41.8726C75.0094 41.814 75.0859 41.7749 75.2389 41.7554C75.5905 41.7033 75.7662 41.5177 75.7662 41.1987V39.2114C75.7662 38.7329 75.7321 38.422 75.6637 38.2788C75.5335 37.9924 75.2617 37.8491 74.8483 37.8491C74.5944 37.8491 74.3242 37.9582 74.0377 38.1763C73.7513 38.3911 73.608 38.6287 73.608 38.8892V41.1987C73.608 41.5177 73.7838 41.7033 74.1354 41.7554C74.2884 41.7749 74.3649 41.8091 74.3649 41.8579C74.3649 41.9067 74.3486 41.9344 74.316 41.9409H72.1383C72.1058 41.9344 72.0895 41.9116 72.0895 41.8726C72.0895 41.814 72.166 41.7749 72.319 41.7554C72.6705 41.7033 72.8463 41.5177 72.8463 41.1987V35.1099C72.8463 34.9731 72.7714 34.8787 72.6217 34.8267C72.5566 34.8039 72.4866 34.786 72.4117 34.7729C72.3369 34.7567 72.2767 34.742 72.2311 34.729C72.1888 34.716 72.1611 34.7046 72.1481 34.6948C72.1383 34.6818 72.1334 34.6574 72.1334 34.6216C72.1334 34.5825 72.1578 34.55 72.2067 34.5239L73.4518 33.938C73.4908 33.9185 73.5153 33.9087 73.525 33.9087C73.5804 33.9087 73.608 33.9478 73.608 34.0259V38.1616ZM78.5592 39.3677C78.5039 39.3677 78.4762 39.4865 78.4762 39.7241C78.4762 40.2287 78.6259 40.6519 78.9254 40.9937C79.2249 41.3354 79.596 41.5063 80.0387 41.5063C80.4847 41.5063 80.9127 41.3143 81.3229 40.9302C81.3294 40.9237 81.3375 40.9204 81.3473 40.9204H81.3717C81.3912 40.9204 81.4091 40.9367 81.4254 40.9692C81.4449 40.9985 81.4628 41.0181 81.4791 41.0278C81.1015 41.4868 80.6572 41.8042 80.1461 41.98C79.9703 42.0418 79.7718 42.0728 79.5504 42.0728C79.3291 42.0728 79.1045 42.0125 78.8766 41.8921C78.6487 41.7684 78.4534 41.6073 78.2906 41.4087C77.9456 40.9953 77.7731 40.481 77.7731 39.8657C77.7731 39.2472 77.9602 38.6841 78.3346 38.1763C78.7122 37.6685 79.2298 37.4146 79.8873 37.4146C80.3593 37.4146 80.7451 37.6261 81.0446 38.0493C81.344 38.4692 81.4938 38.8387 81.4938 39.1577C81.4938 39.2977 81.4596 39.3677 81.3912 39.3677H78.5592ZM78.6129 38.8989C78.6129 38.9608 78.6422 38.9917 78.7008 38.9917H80.5416C80.6263 38.9917 80.6686 38.9412 80.6686 38.8403C80.6686 38.606 80.5628 38.3667 80.3512 38.1226C80.1429 37.8752 79.9134 37.7515 79.6627 37.7515C79.4186 37.7515 79.1956 37.8621 78.9938 38.0835C78.7952 38.3049 78.6683 38.5571 78.6129 38.8403V38.8989ZM88.0123 37.6196C88.1556 37.6685 88.2434 37.6929 88.276 37.6929C88.3086 37.6929 88.3281 37.6929 88.3346 37.6929C88.3444 37.6896 88.3558 37.6685 88.3688 37.6294V35.1099C88.3688 34.9731 88.2939 34.8787 88.1442 34.8267C88.0791 34.8039 88.0091 34.786 87.9342 34.7729C87.8593 34.7567 87.7991 34.742 87.7535 34.729C87.7112 34.716 87.6836 34.7046 87.6705 34.6948C87.6608 34.6818 87.6559 34.6574 87.6559 34.6216C87.6559 34.5825 87.6803 34.55 87.7291 34.5239L88.9742 33.938C89.0133 33.9185 89.0377 33.9087 89.0475 33.9087C89.1028 33.9087 89.1305 33.9478 89.1305 34.0259V40.979C89.1468 41.1222 89.1875 41.2248 89.2526 41.2866C89.3177 41.3485 89.4235 41.3794 89.5699 41.3794L89.8531 41.3599C89.8727 41.3599 89.8824 41.3794 89.8824 41.4185C89.8824 41.4543 89.858 41.4836 89.8092 41.5063L88.5104 42.0435C88.4713 42.063 88.4371 42.0728 88.4078 42.0728C88.3818 42.0728 88.3688 42.0321 88.3688 41.9507V41.5063C88.3688 41.4738 88.3606 41.4575 88.3444 41.4575C88.3216 41.4575 88.1865 41.5308 87.9391 41.6772C87.1806 42.1265 86.541 42.1932 86.0201 41.8774C85.6035 41.6235 85.3219 41.2215 85.1754 40.6714C85.1071 40.4142 85.0729 40.1424 85.0729 39.856C85.0729 39.5662 85.1315 39.2798 85.2487 38.9966C85.3691 38.7101 85.5335 38.4595 85.7418 38.2446C86.2008 37.7759 86.7542 37.5415 87.402 37.5415C87.6656 37.5415 87.8691 37.5675 88.0123 37.6196ZM85.8102 39.7144C85.8102 40.2059 85.9469 40.6372 86.2203 41.0083C86.4938 41.3761 86.8746 41.5601 87.3629 41.5601C87.5778 41.5601 87.7991 41.508 88.027 41.4038C88.2548 41.2964 88.3688 41.215 88.3688 41.1597V38.6401C88.3688 38.5783 88.3265 38.505 88.2418 38.4204C87.9814 38.0623 87.6347 37.8833 87.2018 37.8833C86.7721 37.8833 86.4319 38.0656 86.1813 38.4302C85.9339 38.7915 85.8102 39.2196 85.8102 39.7144ZM91.108 39.3677C91.0527 39.3677 91.025 39.4865 91.025 39.7241C91.025 40.2287 91.1748 40.6519 91.4742 40.9937C91.7737 41.3354 92.1448 41.5063 92.5875 41.5063C93.0335 41.5063 93.4615 41.3143 93.8717 40.9302C93.8782 40.9237 93.8864 40.9204 93.8961 40.9204H93.9205C93.9401 40.9204 93.958 40.9367 93.9742 40.9692C93.9938 40.9985 94.0117 41.0181 94.028 41.0278C93.6503 41.4868 93.206 41.8042 92.6949 41.98C92.5192 42.0418 92.3206 42.0728 92.0992 42.0728C91.8779 42.0728 91.6533 42.0125 91.4254 41.8921C91.1976 41.7684 91.0022 41.6073 90.8395 41.4087C90.4944 40.9953 90.3219 40.481 90.3219 39.8657C90.3219 39.2472 90.5091 38.6841 90.8834 38.1763C91.261 37.6685 91.7786 37.4146 92.4362 37.4146C92.9082 37.4146 93.2939 37.6261 93.5934 38.0493C93.8929 38.4692 94.0426 38.8387 94.0426 39.1577C94.0426 39.2977 94.0084 39.3677 93.9401 39.3677H91.108ZM91.1617 38.8989C91.1617 38.9608 91.191 38.9917 91.2496 38.9917H93.0905C93.1751 38.9917 93.2174 38.9412 93.2174 38.8403C93.2174 38.606 93.1116 38.3667 92.9 38.1226C92.6917 37.8752 92.4622 37.7515 92.2115 37.7515C91.9674 37.7515 91.7444 37.8621 91.5426 38.0835C91.344 38.3049 91.2171 38.5571 91.1617 38.8403V38.8989ZM100.517 38.4399C100.478 38.4334 100.421 38.4123 100.346 38.3765C100.076 38.2528 99.8645 38.1909 99.7115 38.1909C99.5586 38.1909 99.3974 38.2869 99.2281 38.479C99.0621 38.6678 98.9791 38.8387 98.9791 38.9917V41.1987C98.9791 41.4429 99.1207 41.6056 99.4039 41.687C99.5276 41.7196 99.6432 41.744 99.7506 41.7603C99.858 41.7733 99.9264 41.7863 99.9557 41.7993C99.9882 41.8123 100.005 41.8384 100.005 41.8774C100.005 41.9132 99.9882 41.9344 99.9557 41.9409H97.5094C97.4768 41.9344 97.4606 41.9116 97.4606 41.8726C97.4606 41.814 97.5371 41.7749 97.6901 41.7554C98.0416 41.7033 98.2174 41.5177 98.2174 41.1987V38.6157C98.2174 38.479 98.1425 38.3846 97.9928 38.3325C97.9277 38.3097 97.8577 38.2918 97.7828 38.2788C97.708 38.2625 97.6477 38.2479 97.6022 38.2349C97.5599 38.2218 97.5322 38.2104 97.5192 38.2007C97.5094 38.1877 97.5045 38.1632 97.5045 38.1274C97.5045 38.0884 97.5289 38.0558 97.5778 38.0298L98.8229 37.4438C98.8619 37.4243 98.8864 37.4146 98.8961 37.4146C98.9515 37.4146 98.9791 37.4536 98.9791 37.5317V38.3228C98.9791 38.3618 98.9889 38.3813 99.0084 38.3813C99.0345 38.3813 99.1012 38.3049 99.2086 38.1519C99.5179 37.7189 99.7734 37.5024 99.9752 37.5024C100.089 37.5024 100.263 37.548 100.498 37.6392C100.735 37.7303 100.854 37.8068 100.854 37.8687C100.854 37.9435 100.817 38.0575 100.742 38.2104C100.667 38.3634 100.592 38.4399 100.517 38.4399ZM104.218 41.1353C104.218 41.2199 104.257 41.2882 104.336 41.3403C104.417 41.3892 104.51 41.4136 104.614 41.4136C104.718 41.4136 104.804 41.3875 104.873 41.3354C104.944 41.2801 104.993 41.2524 105.019 41.2524C105.045 41.2524 105.058 41.2882 105.058 41.3599C105.058 41.4282 105.026 41.4868 104.961 41.5356C104.472 41.8937 104.142 42.0728 103.969 42.0728C103.761 42.0728 103.592 41.8563 103.462 41.4233C103.452 41.3908 103.444 41.3761 103.437 41.3794C103.033 41.6821 102.78 41.8644 102.675 41.9263C102.408 42.0793 102.14 42.1037 101.87 41.9995C101.603 41.8953 101.409 41.7228 101.289 41.4819C101.23 41.3582 101.201 41.2264 101.201 41.0864C101.201 40.8097 101.303 40.59 101.508 40.4272C101.714 40.2645 102.104 40.1082 102.68 39.9585C102.876 39.9064 103.05 39.8397 103.203 39.7583C103.356 39.6769 103.436 39.6248 103.442 39.6021C103.452 39.5793 103.457 39.5581 103.457 39.5386V38.6011C103.457 38.2332 103.313 37.9744 103.027 37.8247C102.933 37.7759 102.819 37.7515 102.685 37.7515C102.555 37.7515 102.422 37.8035 102.285 37.9077C102.151 38.0119 102.085 38.16 102.085 38.3521L102.109 38.5425C102.089 38.5815 101.972 38.6466 101.757 38.7378C101.543 38.8289 101.419 38.8778 101.386 38.8843C101.334 38.8843 101.308 38.8224 101.308 38.6987C101.308 38.5718 101.346 38.4318 101.421 38.2788C101.495 38.1258 101.601 37.9858 101.738 37.8589C102.057 37.5627 102.422 37.4146 102.832 37.4146C103.242 37.4146 103.575 37.5285 103.833 37.7563C104.09 37.981 104.218 38.2495 104.218 38.562V41.1353ZM101.967 40.9937C101.967 41.1499 102.028 41.2866 102.148 41.4038C102.269 41.5177 102.405 41.5747 102.558 41.5747C102.714 41.5747 102.903 41.5096 103.125 41.3794C103.346 41.2459 103.457 41.1092 103.457 40.9692V39.978C103.457 39.9422 103.449 39.9243 103.432 39.9243C103.416 39.9243 103.405 39.9259 103.398 39.9292L102.265 40.4565C102.148 40.5412 102.068 40.6128 102.026 40.6714C101.987 40.73 101.967 40.8374 101.967 40.9937ZM109.204 41.4282C108.755 41.8579 108.25 42.0728 107.69 42.0728C107.488 42.0728 107.213 42.0353 106.865 41.9604C106.81 41.9604 106.779 41.98 106.772 42.019C106.769 42.0581 106.766 42.0988 106.762 42.1411V44.2261C106.762 44.4702 106.904 44.633 107.187 44.7144C107.311 44.7469 107.426 44.7697 107.534 44.7827C107.641 44.799 107.71 44.8136 107.739 44.8267C107.771 44.8397 107.788 44.8641 107.788 44.8999C107.788 44.939 107.771 44.9618 107.739 44.9683H105.293C105.26 44.9618 105.244 44.939 105.244 44.8999C105.244 44.8413 105.32 44.8022 105.473 44.7827C105.825 44.7306 106.001 44.5451 106.001 44.2261V38.3716C106.001 38.2349 105.926 38.1405 105.776 38.0884C105.711 38.0656 105.641 38.0477 105.566 38.0347C105.491 38.0184 105.431 38.0037 105.385 37.9907C105.343 37.9777 105.315 37.9663 105.302 37.9565C105.293 37.9435 105.288 37.9191 105.288 37.8833C105.288 37.8442 105.312 37.8117 105.361 37.7856L106.606 37.1899C106.632 37.1769 106.658 37.1704 106.684 37.1704C106.736 37.1704 106.762 37.2095 106.762 37.2876V37.9077C106.762 37.9435 106.78 37.9614 106.816 37.9614C106.855 37.9614 106.946 37.9142 107.089 37.8198C107.503 37.5529 107.933 37.4194 108.379 37.4194C108.691 37.4194 108.977 37.5464 109.238 37.8003C109.58 38.1323 109.808 38.5946 109.922 39.187C109.954 39.3563 109.97 39.5369 109.97 39.729C109.97 39.9178 109.939 40.118 109.878 40.3296C109.754 40.7495 109.529 41.1157 109.204 41.4282ZM107.807 37.9272C107.365 37.9272 107.016 38.0542 106.762 38.3081V41.0522C106.762 41.215 106.79 41.3208 106.845 41.3696C106.989 41.4933 107.208 41.5894 107.505 41.6577C108.09 41.7912 108.546 41.6512 108.872 41.2378C109.103 40.9416 109.218 40.5835 109.218 40.1636C109.218 39.3465 109.034 38.7345 108.667 38.3276C108.445 38.0802 108.159 37.9468 107.807 37.9272ZM114.526 41.4282C114.077 41.8579 113.572 42.0728 113.012 42.0728C112.811 42.0728 112.535 42.0353 112.187 41.9604C112.132 41.9604 112.101 41.98 112.094 42.019C112.091 42.0581 112.088 42.0988 112.085 42.1411V44.2261C112.085 44.4702 112.226 44.633 112.509 44.7144C112.633 44.7469 112.749 44.7697 112.856 44.7827C112.964 44.799 113.032 44.8136 113.061 44.8267C113.094 44.8397 113.11 44.8641 113.11 44.8999C113.11 44.939 113.094 44.9618 113.061 44.9683H110.615C110.582 44.9618 110.566 44.939 110.566 44.8999C110.566 44.8413 110.643 44.8022 110.796 44.7827C111.147 44.7306 111.323 44.5451 111.323 44.2261V38.3716C111.323 38.2349 111.248 38.1405 111.098 38.0884C111.033 38.0656 110.963 38.0477 110.888 38.0347C110.813 38.0184 110.753 38.0037 110.708 37.9907C110.665 37.9777 110.638 37.9663 110.625 37.9565C110.615 37.9435 110.61 37.9191 110.61 37.8833C110.61 37.8442 110.634 37.8117 110.683 37.7856L111.928 37.1899C111.954 37.1769 111.98 37.1704 112.006 37.1704C112.059 37.1704 112.085 37.2095 112.085 37.2876V37.9077C112.085 37.9435 112.102 37.9614 112.138 37.9614C112.177 37.9614 112.269 37.9142 112.412 37.8198C112.825 37.5529 113.255 37.4194 113.701 37.4194C114.013 37.4194 114.3 37.5464 114.56 37.8003C114.902 38.1323 115.13 38.5946 115.244 39.187C115.276 39.3563 115.293 39.5369 115.293 39.729C115.293 39.9178 115.262 40.118 115.2 40.3296C115.076 40.7495 114.852 41.1157 114.526 41.4282ZM113.13 37.9272C112.687 37.9272 112.339 38.0542 112.085 38.3081V41.0522C112.085 41.215 112.112 41.3208 112.168 41.3696C112.311 41.4933 112.531 41.5894 112.827 41.6577C113.413 41.7912 113.868 41.6512 114.194 41.2378C114.425 40.9416 114.541 40.5835 114.541 40.1636C114.541 39.3465 114.357 38.7345 113.989 38.3276C113.768 38.0802 113.481 37.9468 113.13 37.9272ZM116.958 39.3677C116.902 39.3677 116.875 39.4865 116.875 39.7241C116.875 40.2287 117.024 40.6519 117.324 40.9937C117.623 41.3354 117.994 41.5063 118.437 41.5063C118.883 41.5063 119.311 41.3143 119.721 40.9302C119.728 40.9237 119.736 40.9204 119.746 40.9204H119.77C119.79 40.9204 119.808 40.9367 119.824 40.9692C119.843 40.9985 119.861 41.0181 119.878 41.0278C119.5 41.4868 119.056 41.8042 118.545 41.98C118.369 42.0418 118.17 42.0728 117.949 42.0728C117.727 42.0728 117.503 42.0125 117.275 41.8921C117.047 41.7684 116.852 41.6073 116.689 41.4087C116.344 40.9953 116.172 40.481 116.172 39.8657C116.172 39.2472 116.359 38.6841 116.733 38.1763C117.111 37.6685 117.628 37.4146 118.286 37.4146C118.758 37.4146 119.144 37.6261 119.443 38.0493C119.742 38.4692 119.892 38.8387 119.892 39.1577C119.892 39.2977 119.858 39.3677 119.79 39.3677H116.958ZM117.011 38.8989C117.011 38.9608 117.041 38.9917 117.099 38.9917H118.94C119.025 38.9917 119.067 38.9412 119.067 38.8403C119.067 38.606 118.961 38.3667 118.75 38.1226C118.541 37.8752 118.312 37.7515 118.061 37.7515C117.817 37.7515 117.594 37.8621 117.392 38.0835C117.194 38.3049 117.067 38.5571 117.011 38.8403V38.8989ZM122.514 41.7554C122.667 41.7749 122.744 41.814 122.744 41.8726C122.744 41.9116 122.727 41.9344 122.695 41.9409H120.517C120.485 41.9344 120.468 41.9116 120.468 41.8726C120.468 41.814 120.545 41.7749 120.698 41.7554C121.049 41.7033 121.225 41.5177 121.225 41.1987V35.1099C121.225 34.9731 121.15 34.8787 121.001 34.8267C120.936 34.8039 120.866 34.786 120.791 34.7729C120.716 34.7567 120.656 34.742 120.61 34.729C120.568 34.716 120.54 34.7046 120.527 34.6948C120.517 34.6818 120.512 34.6574 120.512 34.6216C120.512 34.5825 120.537 34.55 120.586 34.5239L121.831 33.938C121.87 33.9185 121.894 33.9087 121.904 33.9087C121.959 33.9087 121.987 33.9478 121.987 34.0259V41.1987C121.987 41.5177 122.163 41.7033 122.514 41.7554ZM123.554 41.4526C123.554 41.2769 123.616 41.1255 123.74 40.9985C123.864 40.8683 124.013 40.8032 124.189 40.8032C124.362 40.8032 124.51 40.8667 124.633 40.9937C124.76 41.1174 124.824 41.2687 124.824 41.4478C124.824 41.6268 124.762 41.7765 124.638 41.897C124.515 42.0142 124.365 42.0728 124.189 42.0728C124.017 42.0728 123.867 42.0125 123.74 41.8921C123.616 41.7716 123.554 41.6252 123.554 41.4526ZM11.5475 69.9019V69.7651C11.5475 69.7391 11.5605 69.7261 11.5865 69.7261H11.694C11.8307 69.7163 11.9707 69.7114 12.1139 69.7114C12.2571 69.7082 12.3873 69.6903 12.5045 69.6577C12.7714 69.5796 12.9049 69.3843 12.9049 69.0718V63.9253C12.9049 63.603 12.7145 63.3979 12.3336 63.3101C12.2262 63.2873 12.1171 63.2677 12.0065 63.2515H11.9039C11.8779 63.2515 11.8649 63.2384 11.8649 63.2124V63.0952C11.8649 63.0692 11.8779 63.0562 11.9039 63.0562H16.5475C16.6061 63.0562 16.6484 63.0675 16.6744 63.0903C16.7005 63.1099 16.7168 63.1554 16.7233 63.2271L16.8112 64.6431C16.8112 64.6756 16.7867 64.6919 16.7379 64.6919C16.6891 64.6919 16.6533 64.6772 16.6305 64.6479C16.611 64.6154 16.5849 64.4966 16.5524 64.2915C16.5231 64.0864 16.4677 63.9155 16.3864 63.7788C16.305 63.6421 16.1617 63.5558 15.9567 63.52H13.9205C13.8782 63.52 13.8571 63.5412 13.8571 63.5835V66.1079C13.8571 66.1405 13.8733 66.1567 13.9059 66.1567H15.5953C16.0315 66.1567 16.2496 65.9028 16.2496 65.395C16.2496 65.369 16.2627 65.356 16.2887 65.356H16.4059C16.4319 65.356 16.4449 65.369 16.4449 65.395V67.4849C16.4449 67.5109 16.4319 67.5239 16.4059 67.5239H16.2887C16.2627 67.5239 16.2496 67.5109 16.2496 67.4849C16.2496 67.0031 16.1097 66.7248 15.8297 66.6499C15.7516 66.6304 15.6686 66.6206 15.5807 66.6206H13.9059C13.8733 66.6206 13.8571 66.6369 13.8571 66.6694V69.0474C13.8571 69.2915 13.9694 69.4299 14.194 69.4624C14.2591 69.4722 14.3274 69.4771 14.399 69.4771H16.025C16.3603 69.4771 16.6207 69.3289 16.8063 69.0327C16.9397 68.8211 17.0211 68.5786 17.0504 68.3052C17.0602 68.214 17.109 68.1685 17.1969 68.1685C17.236 68.1685 17.2555 68.1896 17.2555 68.2319L17.0944 69.8726C17.0748 69.9181 17.052 69.9409 17.026 69.9409H11.5865C11.5605 69.9409 11.5475 69.9279 11.5475 69.9019ZM19.8287 69.7554C19.9817 69.7749 20.0582 69.814 20.0582 69.8726C20.0582 69.9116 20.042 69.9344 20.0094 69.9409H17.8317C17.7991 69.9344 17.7828 69.9116 17.7828 69.8726C17.7828 69.814 17.8593 69.7749 18.0123 69.7554C18.3639 69.7033 18.5397 69.5177 18.5397 69.1987V63.1099C18.5397 62.9731 18.4648 62.8787 18.3151 62.8267C18.25 62.8039 18.18 62.786 18.1051 62.7729C18.0302 62.7567 17.97 62.742 17.9244 62.729C17.8821 62.716 17.8545 62.7046 17.8414 62.6948C17.8317 62.6818 17.8268 62.6574 17.8268 62.6216C17.8268 62.5825 17.8512 62.55 17.9 62.5239L19.1451 61.938C19.1842 61.9185 19.2086 61.9087 19.2184 61.9087C19.2737 61.9087 19.3014 61.9478 19.3014 62.0259V69.1987C19.3014 69.5177 19.4772 69.7033 19.8287 69.7554ZM22.3776 69.7554C22.5306 69.7749 22.6071 69.814 22.6071 69.8726C22.6071 69.9116 22.5908 69.9344 22.5582 69.9409H20.3805C20.3479 69.9344 20.3317 69.9116 20.3317 69.8726C20.3317 69.814 20.4082 69.7749 20.5612 69.7554C20.9127 69.7033 21.0885 69.5177 21.0885 69.1987V63.1099C21.0885 62.9731 21.0136 62.8787 20.8639 62.8267C20.7988 62.8039 20.7288 62.786 20.6539 62.7729C20.5791 62.7567 20.5188 62.742 20.4733 62.729C20.4309 62.716 20.4033 62.7046 20.3903 62.6948C20.3805 62.6818 20.3756 62.6574 20.3756 62.6216C20.3756 62.5825 20.4 62.55 20.4489 62.5239L21.694 61.938C21.733 61.9185 21.7574 61.9087 21.7672 61.9087C21.8226 61.9087 21.8502 61.9478 21.8502 62.0259V69.1987C21.8502 69.5177 22.026 69.7033 22.3776 69.7554ZM23.9108 67.3677C23.8554 67.3677 23.8278 67.4865 23.8278 67.7241C23.8278 68.2287 23.9775 68.6519 24.277 68.9937C24.5765 69.3354 24.9476 69.5063 25.3903 69.5063C25.8362 69.5063 26.2643 69.3143 26.6744 68.9302C26.6809 68.9237 26.6891 68.9204 26.6989 68.9204H26.7233C26.7428 68.9204 26.7607 68.9367 26.777 68.9692C26.7965 68.9985 26.8144 69.0181 26.8307 69.0278C26.4531 69.4868 26.0087 69.8042 25.4977 69.98C25.3219 70.0418 25.1233 70.0728 24.902 70.0728C24.6806 70.0728 24.456 70.0125 24.2281 69.8921C24.0003 69.7684 23.805 69.6073 23.6422 69.4087C23.2972 68.9953 23.1246 68.481 23.1246 67.8657C23.1246 67.2472 23.3118 66.6841 23.6862 66.1763C24.0638 65.6685 24.5813 65.4146 25.2389 65.4146C25.7109 65.4146 26.0966 65.6261 26.3961 66.0493C26.6956 66.4692 26.8453 66.8387 26.8453 67.1577C26.8453 67.2977 26.8112 67.3677 26.7428 67.3677H23.9108ZM23.9645 66.8989C23.9645 66.9608 23.9938 66.9917 24.0524 66.9917H25.8932C25.9778 66.9917 26.0201 66.9412 26.0201 66.8403C26.0201 66.606 25.9143 66.3667 25.7028 66.1226C25.4944 65.8752 25.2649 65.7515 25.0143 65.7515C24.7701 65.7515 24.5472 65.8621 24.3453 66.0835C24.1468 66.3049 24.0198 66.5571 23.9645 66.8403V66.8989ZM33.3639 65.6196C33.5071 65.6685 33.595 65.6929 33.6276 65.6929C33.6601 65.6929 33.6796 65.6929 33.6862 65.6929C33.6959 65.6896 33.7073 65.6685 33.7203 65.6294V63.1099C33.7203 62.9731 33.6455 62.8787 33.4957 62.8267C33.4306 62.8039 33.3606 62.786 33.2858 62.7729C33.2109 62.7567 33.1507 62.742 33.1051 62.729C33.0628 62.716 33.0351 62.7046 33.0221 62.6948C33.0123 62.6818 33.0074 62.6574 33.0074 62.6216C33.0074 62.5825 33.0319 62.55 33.0807 62.5239L34.3258 61.938C34.3649 61.9185 34.3893 61.9087 34.399 61.9087C34.4544 61.9087 34.4821 61.9478 34.4821 62.0259V68.979C34.4983 69.1222 34.539 69.2248 34.6041 69.2866C34.6692 69.3485 34.775 69.3794 34.9215 69.3794L35.2047 69.3599C35.2242 69.3599 35.234 69.3794 35.234 69.4185C35.234 69.4543 35.2096 69.4836 35.1608 69.5063L33.8619 70.0435C33.8229 70.063 33.7887 70.0728 33.7594 70.0728C33.7334 70.0728 33.7203 70.0321 33.7203 69.9507V69.5063C33.7203 69.4738 33.7122 69.4575 33.6959 69.4575C33.6731 69.4575 33.538 69.5308 33.2906 69.6772C32.5322 70.1265 31.8925 70.1932 31.3717 69.8774C30.955 69.6235 30.6735 69.2215 30.527 68.6714C30.4586 68.4142 30.4244 68.1424 30.4244 67.856C30.4244 67.5662 30.483 67.2798 30.6002 66.9966C30.7207 66.7101 30.8851 66.4595 31.0934 66.2446C31.5524 65.7759 32.1058 65.5415 32.7535 65.5415C33.0172 65.5415 33.2207 65.5675 33.3639 65.6196ZM31.1617 67.7144C31.1617 68.2059 31.2985 68.6372 31.5719 69.0083C31.8453 69.3761 32.2262 69.5601 32.7145 69.5601C32.9293 69.5601 33.1507 69.508 33.3785 69.4038C33.6064 69.2964 33.7203 69.215 33.7203 69.1597V66.6401C33.7203 66.5783 33.678 66.505 33.5934 66.4204C33.333 66.0623 32.9863 65.8833 32.5533 65.8833C32.1237 65.8833 31.7835 66.0656 31.5328 66.4302C31.2854 66.7915 31.1617 67.2196 31.1617 67.7144ZM36.4596 67.3677C36.4043 67.3677 36.3766 67.4865 36.3766 67.7241C36.3766 68.2287 36.5263 68.6519 36.8258 68.9937C37.1253 69.3354 37.4964 69.5063 37.9391 69.5063C38.3851 69.5063 38.8131 69.3143 39.2233 68.9302C39.2298 68.9237 39.2379 68.9204 39.2477 68.9204H39.2721C39.2916 68.9204 39.3095 68.9367 39.3258 68.9692C39.3453 68.9985 39.3632 69.0181 39.3795 69.0278C39.0019 69.4868 38.5576 69.8042 38.0465 69.98C37.8707 70.0418 37.6722 70.0728 37.4508 70.0728C37.2295 70.0728 37.0048 70.0125 36.777 69.8921C36.5491 69.7684 36.3538 69.6073 36.191 69.4087C35.846 68.9953 35.6735 68.481 35.6735 67.8657C35.6735 67.2472 35.8606 66.6841 36.235 66.1763C36.6126 65.6685 37.1302 65.4146 37.7877 65.4146C38.2597 65.4146 38.6455 65.6261 38.9449 66.0493C39.2444 66.4692 39.3942 66.8387 39.3942 67.1577C39.3942 67.2977 39.36 67.3677 39.2916 67.3677H36.4596ZM36.5133 66.8989C36.5133 66.9608 36.5426 66.9917 36.6012 66.9917H38.442C38.5267 66.9917 38.569 66.9412 38.569 66.8403C38.569 66.606 38.4632 66.3667 38.2516 66.1226C38.0433 65.8752 37.8138 65.7515 37.5631 65.7515C37.319 65.7515 37.096 65.8621 36.8942 66.0835C36.6956 66.3049 36.5686 66.5571 36.5133 66.8403V66.8989ZM37.0992 64.5894C37.0862 64.5763 37.0797 64.5666 37.0797 64.5601C37.0797 64.5535 37.0862 64.5438 37.0992 64.5308L38.1393 63.0903C38.2565 62.9308 38.372 62.8511 38.486 62.8511C38.5999 62.8511 38.6894 62.8885 38.7545 62.9634C38.8229 63.035 38.8571 63.1326 38.8571 63.2563C38.8571 63.38 38.7675 63.5184 38.5885 63.6714L37.275 64.731C37.2587 64.7407 37.2457 64.7456 37.236 64.7456C37.2262 64.7456 37.2164 64.7407 37.2067 64.731L37.0992 64.5894ZM42.5826 66.6011C42.5826 66.6727 42.555 66.7085 42.4996 66.7085C42.4476 66.7085 42.4069 66.6694 42.3776 66.5913C42.2994 66.3765 42.1823 66.186 42.026 66.02C41.873 65.854 41.6826 65.771 41.4547 65.771C41.1552 65.771 40.9534 65.9207 40.8492 66.2202C40.8167 66.3211 40.8004 66.4253 40.8004 66.5327C40.8004 66.6401 40.8688 66.7606 41.0055 66.894C41.1422 67.0243 41.3668 67.1805 41.6793 67.3628C41.9918 67.5451 42.2197 67.6997 42.3629 67.8267C42.6884 68.1164 42.8512 68.4517 42.8512 68.8325C42.8512 69.2134 42.7112 69.5161 42.4313 69.7407C42.1513 69.9621 41.8258 70.0728 41.4547 70.0728C41.2561 70.0728 41.0755 70.0451 40.9127 69.9897C40.7532 69.9377 40.6604 69.9116 40.6344 69.9116C40.6116 69.9116 40.5726 69.9377 40.5172 69.9897C40.4651 70.0451 40.4228 70.0728 40.3903 70.0728H40.3073C40.2877 70.0728 40.2633 69.897 40.234 69.5454C40.2047 69.1938 40.1901 68.9855 40.1901 68.9204C40.1901 68.8553 40.1949 68.8195 40.2047 68.813C40.2177 68.8065 40.2373 68.8032 40.2633 68.8032C40.2893 68.8032 40.3105 68.8114 40.3268 68.8276C40.3463 68.8439 40.3626 68.8651 40.3756 68.8911C40.3886 68.9139 40.3984 68.9383 40.4049 68.9644C40.4147 68.9904 40.4358 69.0392 40.4684 69.1108C40.6897 69.5828 41.0315 69.8188 41.4938 69.8188C41.6989 69.8188 41.8632 69.744 41.9869 69.5942C42.1106 69.4412 42.1725 69.272 42.1725 69.0864C42.1725 68.9009 42.1237 68.7446 42.026 68.6177C41.9283 68.4907 41.8063 68.3752 41.6598 68.271C41.5166 68.1668 41.3603 68.0659 41.191 67.9683C40.5335 67.5841 40.2047 67.1593 40.2047 66.6938C40.2047 66.3455 40.3545 66.0461 40.6539 65.7954C40.9534 65.5415 41.261 65.4146 41.5768 65.4146C41.8925 65.4146 42.1253 65.4487 42.275 65.5171C42.428 65.5854 42.5175 65.644 42.5436 65.6929C42.5696 65.7384 42.5826 65.8914 42.5826 66.1519V66.6011ZM43.5641 69.9409C43.5315 69.9344 43.5153 69.9116 43.5153 69.8726C43.5153 69.814 43.5918 69.7749 43.7448 69.7554C44.0963 69.7033 44.2721 69.5177 44.2721 69.1987V66.6157C44.2721 66.479 44.1972 66.3846 44.0475 66.3325C43.9824 66.3097 43.9124 66.2918 43.8375 66.2788C43.7627 66.2625 43.7024 66.2479 43.6569 66.2349C43.6145 66.2218 43.5869 66.2104 43.5739 66.2007C43.5641 66.1877 43.5592 66.1632 43.5592 66.1274C43.5592 66.0884 43.5836 66.0558 43.6324 66.0298L44.8776 65.4438C44.9166 65.4243 44.941 65.4146 44.9508 65.4146C45.0061 65.4146 45.0338 65.4536 45.0338 65.5317V69.1987C45.0338 69.5177 45.2096 69.7033 45.5612 69.7554C45.7142 69.7749 45.7906 69.8091 45.7906 69.8579C45.7906 69.9067 45.7744 69.9344 45.7418 69.9409H43.5641ZM44.5797 64.0425C44.4462 64.0425 44.3274 64.0002 44.2233 63.9155C44.1224 63.8309 44.0719 63.7137 44.0719 63.564C44.0719 63.411 44.1207 63.2905 44.2184 63.2026C44.316 63.1147 44.4316 63.0708 44.5651 63.0708C44.7018 63.0708 44.8157 63.1229 44.9069 63.2271C45.0013 63.3312 45.0485 63.4435 45.0485 63.564C45.0485 63.6844 45.0045 63.7951 44.9166 63.896C44.8287 63.9937 44.7164 64.0425 44.5797 64.0425ZM50.0338 65.8833C50.0338 65.8833 50.47 65.8638 51.3424 65.8247C51.4173 65.8247 51.4661 65.8328 51.4889 65.8491C51.5117 65.8654 51.5361 65.9224 51.5621 66.02C51.5882 66.1144 51.6012 66.2039 51.6012 66.2886C51.6012 66.3732 51.5931 66.422 51.5768 66.4351C51.5605 66.4481 51.528 66.4546 51.4791 66.4546H50.3951C50.4147 66.4904 50.4358 66.5278 50.4586 66.5669C50.4814 66.606 50.5107 66.6711 50.5465 66.7622C50.5823 66.8534 50.6002 66.995 50.6002 67.187C50.6002 67.3758 50.553 67.5744 50.4586 67.7827C50.3675 67.9878 50.2324 68.1701 50.0533 68.3296C49.6562 68.6877 49.1419 68.8667 48.5104 68.8667C48.3444 68.8667 48.1621 68.8358 47.9635 68.7739C47.9147 68.826 47.8496 68.8748 47.7682 68.9204C47.6868 68.9627 47.6071 69.0067 47.5289 69.0522C47.3336 69.1629 47.236 69.2736 47.236 69.3843C47.236 69.661 47.6949 69.8026 48.6129 69.8091C49.5309 69.8156 50.1331 69.8465 50.4196 69.9019C50.7093 69.9539 50.9339 70.0597 51.0934 70.2192C51.344 70.4699 51.4694 70.7563 51.4694 71.0786C51.4694 71.3553 51.3505 71.6401 51.1129 71.9331C50.6995 72.4507 50.068 72.7957 49.2184 72.9683C48.9156 73.0301 48.595 73.061 48.2565 73.061C47.6412 73.061 47.1741 72.9487 46.8551 72.7241C46.5361 72.5028 46.3766 72.2342 46.3766 71.9185C46.3766 71.7459 46.4173 71.6027 46.4987 71.4888C46.58 71.3781 46.6826 71.2723 46.8063 71.1714C46.9332 71.0737 47.0716 70.9696 47.2213 70.8589C47.3711 70.7515 47.5143 70.6131 47.651 70.4438C47.3385 70.4178 47.0699 70.3185 46.8453 70.146C46.624 69.9735 46.5133 69.8042 46.5133 69.6382C46.5133 69.4722 46.5573 69.3501 46.6451 69.272C46.733 69.1906 46.8405 69.1222 46.9674 69.0669C47.0944 69.0083 47.2278 68.9546 47.3678 68.9058C47.5078 68.8569 47.6298 68.7935 47.734 68.7153C47.3694 68.5721 47.0878 68.3752 46.8893 68.1245C46.6907 67.8706 46.5914 67.5939 46.5914 67.2944C46.5914 66.7378 46.7933 66.2837 47.1969 65.9321C47.6038 65.5806 48.0937 65.4048 48.6666 65.4048C49.2395 65.4048 49.6953 65.5643 50.0338 65.8833ZM47.3776 70.9761C47.3027 71.0509 47.2408 71.1307 47.192 71.2153C47.1432 71.3 47.1188 71.4058 47.1188 71.5327C47.1188 71.6629 47.1643 71.798 47.2555 71.938C47.3499 72.0812 47.4768 72.2098 47.6364 72.3237C47.9879 72.5841 48.4111 72.7144 48.9059 72.7144C49.4007 72.7144 49.8483 72.5695 50.2487 72.2798C50.6523 71.9933 50.8541 71.6776 50.8541 71.3325C50.8541 70.9907 50.6881 70.7612 50.3561 70.644C50.1998 70.592 49.7978 70.5594 49.15 70.5464C48.5022 70.5334 48.0823 70.5155 47.8903 70.4927C47.8056 70.5903 47.7177 70.6766 47.6266 70.7515C47.5387 70.8263 47.4557 70.9012 47.3776 70.9761ZM49.7994 67.1821C49.7994 66.7231 49.6839 66.3504 49.4528 66.064C49.2249 65.7743 48.9222 65.6294 48.5446 65.6294C48.0563 65.6294 47.7112 65.8589 47.5094 66.3179C47.4313 66.4937 47.3922 66.6955 47.3922 66.9233C47.3922 67.3888 47.4882 67.7762 47.6803 68.0854C47.9147 68.4565 48.2223 68.6421 48.6031 68.6421C48.984 68.6421 49.2786 68.5135 49.4869 68.2563C49.6953 67.9992 49.7994 67.6411 49.7994 67.1821ZM55.566 68.4028L55.5563 67.3726C55.5563 66.9526 55.5205 66.658 55.4489 66.4888C55.3772 66.3195 55.2861 66.1925 55.1754 66.1079C55.0647 66.02 54.915 65.9761 54.7262 65.9761C54.5406 65.9761 54.1451 66.1226 53.5397 66.4155C53.4583 66.4644 53.416 66.5099 53.4127 66.5522V69.1792C53.4127 69.508 53.5885 69.6968 53.9401 69.7456C54.0931 69.7684 54.1696 69.8058 54.1696 69.8579C54.1696 69.9067 54.1533 69.9344 54.1207 69.9409H51.943C51.9104 69.9344 51.8942 69.9116 51.8942 69.8726C51.8942 69.8107 51.9707 69.7684 52.1237 69.7456C52.4752 69.6968 52.651 69.508 52.651 69.1792V66.3765C52.651 66.2397 52.5761 66.1453 52.4264 66.0933C52.3613 66.0705 52.2913 66.0526 52.2164 66.0396C52.1416 66.0233 52.0813 66.0086 52.0358 65.9956C51.9934 65.9826 51.9658 65.9712 51.9528 65.9614C51.943 65.9484 51.9381 65.924 51.9381 65.8882C51.9381 65.8491 51.9625 65.8166 52.0114 65.7905L53.2565 65.2046C53.2955 65.1851 53.3199 65.1753 53.3297 65.1753C53.3851 65.1753 53.4127 65.2144 53.4127 65.2925V66.0542C53.4225 66.0868 53.4355 66.103 53.4518 66.103C53.4713 66.103 53.5413 66.0737 53.6617 66.0151C53.9417 65.8752 54.2233 65.7401 54.5065 65.6099C54.7897 65.4797 55.024 65.4146 55.2096 65.4146C55.9615 65.4146 56.3375 66.0998 56.3375 67.4702L56.2936 68.896V69.1792C56.2936 69.4331 56.4205 69.5991 56.6744 69.6772C56.7819 69.7131 56.8844 69.7391 56.9821 69.7554C57.083 69.7684 57.1481 69.7814 57.1774 69.7944C57.2099 69.8075 57.2262 69.8335 57.2262 69.8726C57.2262 69.9116 57.2099 69.9344 57.1774 69.9409H54.8239C54.7913 69.9344 54.775 69.9116 54.775 69.8726C54.775 69.8107 54.8515 69.7684 55.0045 69.7456C55.3528 69.6968 55.527 69.495 55.527 69.1401C55.553 68.9774 55.566 68.7316 55.566 68.4028ZM58.4518 67.3677C58.3964 67.3677 58.3688 67.4865 58.3688 67.7241C58.3688 68.2287 58.5185 68.6519 58.818 68.9937C59.1175 69.3354 59.4886 69.5063 59.9313 69.5063C60.3772 69.5063 60.8053 69.3143 61.2155 68.9302C61.222 68.9237 61.2301 68.9204 61.2399 68.9204H61.2643C61.2838 68.9204 61.3017 68.9367 61.318 68.9692C61.3375 68.9985 61.3554 69.0181 61.3717 69.0278C60.9941 69.4868 60.5498 69.8042 60.0387 69.98C59.8629 70.0418 59.6643 70.0728 59.443 70.0728C59.2216 70.0728 58.997 70.0125 58.7692 69.8921C58.5413 69.7684 58.346 69.6073 58.1832 69.4087C57.8382 68.9953 57.6656 68.481 57.6656 67.8657C57.6656 67.2472 57.8528 66.6841 58.2272 66.1763C58.6048 65.6685 59.1224 65.4146 59.7799 65.4146C60.2519 65.4146 60.6377 65.6261 60.9371 66.0493C61.2366 66.4692 61.3864 66.8387 61.3864 67.1577C61.3864 67.2977 61.3522 67.3677 61.2838 67.3677H58.4518ZM58.5055 66.8989C58.5055 66.9608 58.5348 66.9917 58.5934 66.9917H60.4342C60.5188 66.9917 60.5612 66.9412 60.5612 66.8403C60.5612 66.606 60.4554 66.3667 60.2438 66.1226C60.0354 65.8752 59.8059 65.7515 59.5553 65.7515C59.3112 65.7515 59.0882 65.8621 58.8864 66.0835C58.6878 66.3049 58.5608 66.5571 58.5055 66.8403V66.8989ZM66.694 69.7554C66.847 69.7749 66.9235 69.814 66.9235 69.8726C66.9235 69.9116 66.9072 69.9344 66.8746 69.9409H64.6969C64.6643 69.9344 64.6481 69.9116 64.6481 69.8726C64.6481 69.814 64.7246 69.7749 64.8776 69.7554C65.2291 69.7033 65.4049 69.5177 65.4049 69.1987V63.1099C65.4049 62.9731 65.33 62.8787 65.1803 62.8267C65.1152 62.8039 65.0452 62.786 64.9703 62.7729C64.8955 62.7567 64.8352 62.742 64.7897 62.729C64.7474 62.716 64.7197 62.7046 64.7067 62.6948C64.6969 62.6818 64.692 62.6574 64.692 62.6216C64.692 62.5825 64.7164 62.55 64.7653 62.5239L66.0104 61.938C66.0494 61.9185 66.0739 61.9087 66.0836 61.9087C66.139 61.9087 66.1666 61.9478 66.1666 62.0259V69.1987C66.1666 69.5177 66.3424 69.7033 66.694 69.7554ZM68.2272 67.3677C68.1718 67.3677 68.1442 67.4865 68.1442 67.7241C68.1442 68.2287 68.2939 68.6519 68.5934 68.9937C68.8929 69.3354 69.264 69.5063 69.7067 69.5063C70.1526 69.5063 70.5807 69.3143 70.9908 68.9302C70.9974 68.9237 71.0055 68.9204 71.0153 68.9204H71.0397C71.0592 68.9204 71.0771 68.9367 71.0934 68.9692C71.1129 68.9985 71.1308 69.0181 71.1471 69.0278C70.7695 69.4868 70.3252 69.8042 69.8141 69.98C69.6383 70.0418 69.4397 70.0728 69.2184 70.0728C68.997 70.0728 68.7724 70.0125 68.5446 69.8921C68.3167 69.7684 68.1214 69.6073 67.9586 69.4087C67.6136 68.9953 67.441 68.481 67.441 67.8657C67.441 67.2472 67.6282 66.6841 68.0026 66.1763C68.3802 65.6685 68.8977 65.4146 69.5553 65.4146C70.0273 65.4146 70.413 65.6261 70.7125 66.0493C71.012 66.4692 71.1617 66.8387 71.1617 67.1577C71.1617 67.2977 71.1276 67.3677 71.0592 67.3677H68.2272ZM68.2809 66.8989C68.2809 66.9608 68.3102 66.9917 68.3688 66.9917H70.2096C70.2942 66.9917 70.3365 66.9412 70.3365 66.8403C70.3365 66.606 70.2308 66.3667 70.0192 66.1226C69.8108 65.8752 69.5813 65.7515 69.3307 65.7515C69.0865 65.7515 68.8636 65.8621 68.6617 66.0835C68.4632 66.3049 68.3362 66.5571 68.2809 66.8403V66.8989ZM75.8541 66.186C75.8346 66.186 75.8248 66.2007 75.8248 66.23V68.9253C75.8248 69.1206 75.8671 69.2736 75.9518 69.3843C76.0397 69.495 76.1503 69.5503 76.2838 69.5503C76.4173 69.5503 76.5328 69.5291 76.6305 69.4868C76.7314 69.4412 76.8177 69.3924 76.8893 69.3403C76.9642 69.2882 77.0309 69.241 77.0895 69.1987C77.1481 69.1532 77.2002 69.1304 77.2457 69.1304C77.2913 69.1304 77.3141 69.1418 77.3141 69.1646C77.3141 69.2427 77.3059 69.2931 77.2897 69.3159C76.899 69.8205 76.5214 70.0728 76.1569 70.0728C75.7955 70.0728 75.5221 69.9588 75.3365 69.731C75.1543 69.4998 75.0631 69.2248 75.0631 68.9058V66.186H74.6969C74.6058 66.186 74.5569 66.1567 74.5504 66.0981C74.5472 66.0396 74.5569 66.0021 74.5797 65.9858C74.7522 65.8752 74.9899 65.6766 75.2926 65.3901C75.3252 65.3543 75.3691 65.3006 75.4244 65.229C75.4798 65.1574 75.5595 65.0597 75.6637 64.936C75.7711 64.8123 75.8525 64.7505 75.9078 64.7505C75.9632 64.7505 75.9908 64.7733 75.9908 64.8188C75.9908 64.8254 75.9355 65.0386 75.8248 65.4585C75.8248 65.5171 75.8509 65.548 75.903 65.5513H77.1481C77.2913 65.5513 77.3629 65.7531 77.3629 66.1567C77.3629 66.1763 77.3499 66.186 77.3239 66.186H75.8541ZM80.8004 66.4399C80.7614 66.4334 80.7044 66.4123 80.6295 66.3765C80.3593 66.2528 80.1477 66.1909 79.9948 66.1909C79.8418 66.1909 79.6806 66.2869 79.5114 66.479C79.3453 66.6678 79.2623 66.8387 79.2623 66.9917V69.1987C79.2623 69.4429 79.4039 69.6056 79.6871 69.687C79.8108 69.7196 79.9264 69.744 80.0338 69.7603C80.1412 69.7733 80.2096 69.7863 80.2389 69.7993C80.2714 69.8123 80.2877 69.8384 80.2877 69.8774C80.2877 69.9132 80.2714 69.9344 80.2389 69.9409H77.7926C77.7601 69.9344 77.7438 69.9116 77.7438 69.8726C77.7438 69.814 77.8203 69.7749 77.9733 69.7554C78.3248 69.7033 78.5006 69.5177 78.5006 69.1987V66.6157C78.5006 66.479 78.4257 66.3846 78.276 66.3325C78.2109 66.3097 78.1409 66.2918 78.066 66.2788C77.9912 66.2625 77.9309 66.2479 77.8854 66.2349C77.8431 66.2218 77.8154 66.2104 77.8024 66.2007C77.7926 66.1877 77.7877 66.1632 77.7877 66.1274C77.7877 66.0884 77.8121 66.0558 77.861 66.0298L79.1061 65.4438C79.1451 65.4243 79.1696 65.4146 79.1793 65.4146C79.2347 65.4146 79.2623 65.4536 79.2623 65.5317V66.3228C79.2623 66.3618 79.2721 66.3813 79.2916 66.3813C79.3177 66.3813 79.3844 66.3049 79.4918 66.1519C79.8011 65.7189 80.0566 65.5024 80.2584 65.5024C80.3724 65.5024 80.5465 65.548 80.7809 65.6392C81.0185 65.7303 81.1373 65.8068 81.1373 65.8687C81.1373 65.9435 81.0999 66.0575 81.025 66.2104C80.9502 66.3634 80.8753 66.4399 80.8004 66.4399ZM81.5084 67.7485C81.5084 67.1073 81.7347 66.5571 82.1871 66.0981C82.6429 65.6359 83.1881 65.4048 83.8229 65.4048C84.4576 65.4048 85.0094 65.6294 85.4781 66.0786C85.9469 66.5246 86.1813 67.0763 86.1813 67.7339C86.1813 68.3914 85.9583 68.9465 85.5123 69.3989C85.0696 69.8481 84.513 70.0728 83.8424 70.0728C83.1718 70.0728 82.6152 69.8449 82.1725 69.3892C81.7298 68.9334 81.5084 68.3866 81.5084 67.7485ZM82.7242 69.0034C83.0433 69.5405 83.4778 69.8091 84.028 69.8091C84.4544 69.8091 84.7799 69.6382 85.0045 69.2964C85.2324 68.9546 85.3463 68.5347 85.3463 68.0366C85.3463 67.5386 85.1868 67.0275 84.8678 66.5034C84.552 65.9793 84.1256 65.7173 83.5885 65.7173C83.1946 65.7173 82.8837 65.8882 82.6559 66.23C82.4313 66.5685 82.319 66.9998 82.319 67.5239C82.319 68.0448 82.4541 68.5379 82.7242 69.0034ZM90.234 69.5112C90.2177 69.4559 90.1966 69.438 90.1705 69.4575C90.1445 69.4738 90.0387 69.5291 89.8531 69.6235C89.2444 69.9263 88.7366 70.0776 88.3297 70.0776C87.9228 70.0776 87.6298 69.9474 87.4508 69.687C87.3857 69.5894 87.3531 69.4689 87.3531 69.3257V66.3472C87.3434 66.2528 87.3011 66.1714 87.2262 66.103C87.1253 66.0184 87.0195 65.9728 86.9088 65.9663C86.8014 65.9598 86.7477 65.9272 86.7477 65.8687C86.7477 65.8068 86.7737 65.7694 86.8258 65.7563L87.944 65.4341C87.983 65.4211 88.0205 65.4146 88.0563 65.4146C88.0953 65.4146 88.1149 65.4422 88.1149 65.4976V68.7739C88.1149 69.0018 88.2158 69.1776 88.4176 69.3013C88.6194 69.425 88.8766 69.4868 89.1891 69.4868C89.5048 69.4868 89.788 69.3908 90.0387 69.1987C90.1168 69.1369 90.1819 69.0685 90.234 68.9937V66.3472C90.2242 66.2528 90.1819 66.1714 90.1071 66.103C90.0061 66.0184 89.9003 65.9728 89.7897 65.9663C89.6823 65.9598 89.6285 65.9272 89.6285 65.8687C89.6285 65.8068 89.6546 65.7694 89.7067 65.7563L90.8248 65.4341C90.8639 65.4211 90.9013 65.4146 90.9371 65.4146C90.9762 65.4146 90.9957 65.4471 90.9957 65.5122V68.979C91.012 69.1222 91.0527 69.2248 91.1178 69.2866C91.1829 69.3485 91.2887 69.3794 91.4352 69.3794L91.7184 69.3599C91.7379 69.3599 91.7477 69.3794 91.7477 69.4185C91.7477 69.4543 91.7233 69.4836 91.6744 69.5063L90.3756 70.0435C90.3365 70.063 90.3024 70.0728 90.2731 70.0728C90.247 70.0728 90.234 70.0321 90.234 69.9507V69.5112ZM98.652 68.4028L98.6422 67.3726C98.6422 66.9526 98.6064 66.658 98.5348 66.4888C98.4632 66.3195 98.372 66.1925 98.2614 66.1079C98.1507 66.02 98.0009 65.9761 97.8121 65.9761C97.6266 65.9761 97.2311 66.1226 96.6256 66.4155C96.5442 66.4644 96.5019 66.5099 96.4987 66.5522V69.1792C96.4987 69.508 96.6744 69.6968 97.026 69.7456C97.179 69.7684 97.2555 69.8058 97.2555 69.8579C97.2555 69.9067 97.2392 69.9344 97.2067 69.9409H95.0289C94.9964 69.9344 94.9801 69.9116 94.9801 69.8726C94.9801 69.8107 95.0566 69.7684 95.2096 69.7456C95.5612 69.6968 95.7369 69.508 95.7369 69.1792V66.3765C95.7369 66.2397 95.6621 66.1453 95.5123 66.0933C95.4472 66.0705 95.3772 66.0526 95.3024 66.0396C95.2275 66.0233 95.1673 66.0086 95.1217 65.9956C95.0794 65.9826 95.0517 65.9712 95.0387 65.9614C95.0289 65.9484 95.024 65.924 95.024 65.8882C95.024 65.8491 95.0485 65.8166 95.0973 65.7905L96.3424 65.2046C96.3815 65.1851 96.4059 65.1753 96.4156 65.1753C96.471 65.1753 96.4987 65.2144 96.4987 65.2925V66.0542C96.5084 66.0868 96.5214 66.103 96.5377 66.103C96.5573 66.103 96.6272 66.0737 96.7477 66.0151C97.0276 65.8752 97.3092 65.7401 97.5924 65.6099C97.8756 65.4797 98.11 65.4146 98.2955 65.4146C99.0475 65.4146 99.4235 66.0998 99.4235 67.4702L99.3795 68.896V69.1792C99.3795 69.4331 99.5065 69.5991 99.7604 69.6772C99.8678 69.7131 99.9703 69.7391 100.068 69.7554C100.169 69.7684 100.234 69.7814 100.263 69.7944C100.296 69.8075 100.312 69.8335 100.312 69.8726C100.312 69.9116 100.296 69.9344 100.263 69.9409H97.9098C97.8772 69.9344 97.861 69.9116 97.861 69.8726C97.861 69.8107 97.9375 69.7684 98.0905 69.7456C98.4388 69.6968 98.6129 69.495 98.6129 69.1401C98.639 68.9774 98.652 68.7316 98.652 68.4028ZM100.776 67.7485C100.776 67.1073 101.002 66.5571 101.455 66.0981C101.91 65.6359 102.456 65.4048 103.09 65.4048C103.725 65.4048 104.277 65.6294 104.746 66.0786C105.214 66.5246 105.449 67.0763 105.449 67.7339C105.449 68.3914 105.226 68.9465 104.78 69.3989C104.337 69.8481 103.781 70.0728 103.11 70.0728C102.439 70.0728 101.883 69.8449 101.44 69.3892C100.997 68.9334 100.776 68.3866 100.776 67.7485ZM101.992 69.0034C102.311 69.5405 102.745 69.8091 103.296 69.8091C103.722 69.8091 104.047 69.6382 104.272 69.2964C104.5 68.9546 104.614 68.5347 104.614 68.0366C104.614 67.5386 104.454 67.0275 104.135 66.5034C103.82 65.9793 103.393 65.7173 102.856 65.7173C102.462 65.7173 102.151 65.8882 101.923 66.23C101.699 66.5685 101.587 66.9998 101.587 67.5239C101.587 68.0448 101.722 68.5379 101.992 69.0034ZM106.162 69.9409C106.129 69.9344 106.113 69.9116 106.113 69.8726C106.113 69.814 106.189 69.7749 106.342 69.7554C106.694 69.7033 106.87 69.5177 106.87 69.1987V66.6157C106.87 66.479 106.795 66.3846 106.645 66.3325C106.58 66.3097 106.51 66.2918 106.435 66.2788C106.36 66.2625 106.3 66.2479 106.255 66.2349C106.212 66.2218 106.185 66.2104 106.172 66.2007C106.162 66.1877 106.157 66.1632 106.157 66.1274C106.157 66.0884 106.181 66.0558 106.23 66.0298L107.475 65.4438C107.514 65.4243 107.539 65.4146 107.548 65.4146C107.604 65.4146 107.631 65.4536 107.631 65.5317V69.1987C107.631 69.5177 107.807 69.7033 108.159 69.7554C108.312 69.7749 108.388 69.8091 108.388 69.8579C108.388 69.9067 108.372 69.9344 108.339 69.9409H106.162ZM107.177 64.0425C107.044 64.0425 106.925 64.0002 106.821 63.9155C106.72 63.8309 106.67 63.7137 106.67 63.564C106.67 63.411 106.718 63.2905 106.816 63.2026C106.914 63.1147 107.029 63.0708 107.163 63.0708C107.299 63.0708 107.413 63.1229 107.505 63.2271C107.599 63.3312 107.646 63.4435 107.646 63.564C107.646 63.6844 107.602 63.7951 107.514 63.896C107.426 63.9937 107.314 64.0425 107.177 64.0425ZM111.943 66.4399C111.904 66.4334 111.847 66.4123 111.772 66.3765C111.502 66.2528 111.29 66.1909 111.137 66.1909C110.984 66.1909 110.823 66.2869 110.654 66.479C110.488 66.6678 110.405 66.8387 110.405 66.9917V69.1987C110.405 69.4429 110.547 69.6056 110.83 69.687C110.953 69.7196 111.069 69.744 111.176 69.7603C111.284 69.7733 111.352 69.7863 111.381 69.7993C111.414 69.8123 111.43 69.8384 111.43 69.8774C111.43 69.9132 111.414 69.9344 111.381 69.9409H108.935C108.903 69.9344 108.886 69.9116 108.886 69.8726C108.886 69.814 108.963 69.7749 109.116 69.7554C109.467 69.7033 109.643 69.5177 109.643 69.1987V66.6157C109.643 66.479 109.568 66.3846 109.419 66.3325C109.353 66.3097 109.283 66.2918 109.209 66.2788C109.134 66.2625 109.074 66.2479 109.028 66.2349C108.986 66.2218 108.958 66.2104 108.945 66.2007C108.935 66.1877 108.93 66.1632 108.93 66.1274C108.93 66.0884 108.955 66.0558 109.004 66.0298L110.249 65.4438C110.288 65.4243 110.312 65.4146 110.322 65.4146C110.377 65.4146 110.405 65.4536 110.405 65.5317V66.3228C110.405 66.3618 110.415 66.3813 110.434 66.3813C110.46 66.3813 110.527 66.3049 110.634 66.1519C110.944 65.7189 111.199 65.5024 111.401 65.5024C111.515 65.5024 111.689 65.548 111.923 65.6392C112.161 65.7303 112.28 65.8068 112.28 65.8687C112.28 65.9435 112.242 66.0575 112.168 66.2104C112.093 66.3634 112.018 66.4399 111.943 66.4399ZM118.896 68.4028L118.886 67.3726C118.886 66.9526 118.851 66.658 118.779 66.4888C118.707 66.3195 118.616 66.1925 118.505 66.1079C118.395 66.02 118.245 65.9761 118.056 65.9761C117.871 65.9761 117.475 66.1226 116.87 66.4155C116.788 66.4644 116.746 66.5099 116.743 66.5522V69.1792C116.743 69.508 116.919 69.6968 117.27 69.7456C117.423 69.7684 117.5 69.8058 117.5 69.8579C117.5 69.9067 117.483 69.9344 117.451 69.9409H115.273C115.241 69.9344 115.224 69.9116 115.224 69.8726C115.224 69.8107 115.301 69.7684 115.454 69.7456C115.805 69.6968 115.981 69.508 115.981 69.1792V66.3765C115.981 66.2397 115.906 66.1453 115.756 66.0933C115.691 66.0705 115.621 66.0526 115.547 66.0396C115.472 66.0233 115.411 66.0086 115.366 65.9956C115.324 65.9826 115.296 65.9712 115.283 65.9614C115.273 65.9484 115.268 65.924 115.268 65.8882C115.268 65.8491 115.293 65.8166 115.341 65.7905L116.587 65.2046C116.626 65.1851 116.65 65.1753 116.66 65.1753C116.715 65.1753 116.743 65.2144 116.743 65.2925V66.0542C116.753 66.0868 116.766 66.103 116.782 66.103C116.801 66.103 116.871 66.0737 116.992 66.0151C117.272 65.8752 117.553 65.7401 117.837 65.6099C118.12 65.4797 118.354 65.4146 118.54 65.4146C119.292 65.4146 119.668 66.0998 119.668 67.4702L119.624 68.896V69.1792C119.624 69.4331 119.751 69.5991 120.005 69.6772C120.112 69.7131 120.214 69.7391 120.312 69.7554C120.413 69.7684 120.478 69.7814 120.507 69.7944C120.54 69.8075 120.556 69.8335 120.556 69.8726C120.556 69.9116 120.54 69.9344 120.507 69.9409H118.154C118.121 69.9344 118.105 69.9116 118.105 69.8726C118.105 69.8107 118.182 69.7684 118.335 69.7456C118.683 69.6968 118.857 69.495 118.857 69.1401C118.883 68.9774 118.896 68.7316 118.896 68.4028ZM122.451 64.3354C122.451 64.5438 122.526 64.7228 122.675 64.8726C122.825 65.0223 123.004 65.0972 123.213 65.0972C123.421 65.0972 123.6 65.0223 123.75 64.8726C123.899 64.7228 123.974 64.5438 123.974 64.3354C123.974 64.1271 123.899 63.9497 123.75 63.8032C123.603 63.6535 123.424 63.5786 123.213 63.5786C123.001 63.5786 122.82 63.6535 122.671 63.8032C122.524 63.9497 122.451 64.1271 122.451 64.3354ZM122.094 64.3257C122.094 64.0164 122.203 63.7528 122.422 63.5347C122.64 63.3166 122.903 63.2075 123.213 63.2075C123.522 63.2075 123.785 63.3166 124.004 63.5347C124.222 63.7528 124.331 64.0164 124.331 64.3257C124.331 64.6317 124.222 64.8953 124.004 65.1167C123.789 65.3381 123.525 65.4487 123.213 65.4487C122.9 65.4487 122.635 65.3381 122.417 65.1167C122.202 64.8953 122.094 64.6317 122.094 64.3257ZM126.313 70.063C126.294 70.063 126.284 70.0451 126.284 70.0093C126.284 69.9767 126.316 69.9393 126.381 69.897C127.599 69.3696 128.479 68.6812 129.023 67.8315C129.111 67.6916 129.155 67.6069 129.155 67.5776C129.155 67.5483 129.14 67.5337 129.111 67.5337L128.613 67.6558C128.45 67.6981 128.245 67.7192 127.998 67.7192C127.754 67.7192 127.511 67.6558 127.27 67.5288C127.029 67.3986 126.824 67.2293 126.655 67.021C126.31 66.6011 126.137 66.0949 126.137 65.5024C126.137 64.91 126.331 64.3794 126.718 63.9106C127.109 63.4419 127.63 63.2075 128.281 63.2075C128.935 63.2075 129.477 63.4582 129.907 63.9595C130.337 64.4608 130.551 65.0695 130.551 65.7856C130.551 66.6613 130.284 67.4393 129.751 68.1196C129.22 68.8 128.522 69.3273 127.656 69.7017C127.116 69.9425 126.668 70.063 126.313 70.063ZM127.016 65.6099C127.016 66.0786 127.148 66.5018 127.412 66.8794C127.675 67.2537 128.016 67.4409 128.432 67.4409C128.686 67.4409 128.893 67.4067 129.052 67.3384C129.215 67.27 129.326 67.2114 129.384 67.1626C129.557 67.0226 129.643 66.5913 129.643 65.8687C129.643 65.4097 129.619 65.0695 129.57 64.8481C129.479 64.4087 129.331 64.0685 129.126 63.8276C128.921 63.5868 128.631 63.4663 128.256 63.4663C127.674 63.4663 127.291 63.8488 127.109 64.6138C127.047 64.8709 127.016 65.1606 127.016 65.4829V65.6099ZM131.933 64.9165C131.91 64.9165 131.878 64.8742 131.836 64.7896C131.836 64.7798 131.894 64.7375 132.011 64.6626C132.129 64.5845 132.361 64.3908 132.71 64.0815C133.058 63.7723 133.346 63.481 133.574 63.2075H133.847C133.89 63.2075 133.916 63.214 133.925 63.2271C133.935 63.2401 133.94 63.2645 133.94 63.3003V69.2573C133.94 69.4624 133.961 69.578 134.004 69.604C134.163 69.6984 134.487 69.7456 134.975 69.7456C135.001 69.7456 135.014 69.7586 135.014 69.7847V69.9019C135.014 69.9279 135.001 69.9409 134.975 69.9409H132.036C132.01 69.9409 131.997 69.9279 131.997 69.9019V69.7847C131.997 69.7586 132.01 69.7456 132.036 69.7456C132.199 69.7358 132.34 69.7293 132.461 69.7261C132.581 69.7196 132.708 69.7098 132.841 69.6968C132.975 69.6838 133.068 69.6626 133.12 69.6333C133.175 69.604 133.208 69.5601 133.217 69.5015C133.227 69.4429 133.232 69.3664 133.232 69.272V64.0718C133.235 64.0653 133.2 64.0913 133.125 64.1499C132.701 64.4884 132.314 64.7424 131.963 64.9116L131.933 64.9165ZM136.67 69.4526C136.67 69.2769 136.731 69.1255 136.855 68.9985C136.979 68.8683 137.129 68.8032 137.304 68.8032C137.477 68.8032 137.625 68.8667 137.749 68.9937C137.876 69.1174 137.939 69.2687 137.939 69.4478C137.939 69.6268 137.877 69.7765 137.754 69.897C137.63 70.0142 137.48 70.0728 137.304 70.0728C137.132 70.0728 136.982 70.0125 136.855 69.8921C136.731 69.7716 136.67 69.6252 136.67 69.4526Z" fill="#EFB85F"/>
<path d="M17.5002 10L18.696 11.9748L21 13L18.696 14.0249L17.5002 16L16.304 14.0249L14 13L16.304 11.9748L17.5002 10Z" fill="#EFB85F"/>
<path d="M17.5002 86L18.696 87.9748L21 89L18.696 90.0249L17.5002 92L16.304 90.0249L14 89L16.304 87.9748L17.5002 86Z" fill="#EFB85F"/>
<path d="M124.5 84L125.696 85.9748L128 87L125.696 88.0249L124.5 90L123.304 88.0249L121 87L123.304 85.9748L124.5 84Z" fill="#EFB85F"/>
<path d="M80.5002 90L81.696 91.9748L84 93L81.696 94.0249L80.5002 96L79.304 94.0249L77 93L79.304 91.9748L80.5002 90Z" fill="#EFB85F"/>
<path d="M120.5 7L121.696 8.97475L124 10L121.696 11.0249L120.5 13L119.304 11.0249L117 10L119.304 8.97475L120.5 7Z" fill="#EFB85F"/>
<path d="M95.125 16.6259C95.1509 16.3615 95.1942 15.7335 95.2288 15.2377C95.2634 14.6647 95.324 14.3011 95.3932 14.2681C95.4538 14.235 95.7307 14.4113 95.999 14.6537C96.2759 14.9071 96.5182 15.0834 96.5441 15.0504C96.5615 15.0283 96.397 14.6757 96.1807 14.2791C95.9038 13.7943 95.8086 13.5519 95.8865 13.5189C95.9471 13.4968 96.3884 13.4197 96.8643 13.3426C98.3873 13.1222 98.3787 13.001 96.8384 12.7917C96.3019 12.7145 95.8519 12.6154 95.8346 12.5823C95.8086 12.5382 95.973 12.2187 96.1807 11.8661C96.3884 11.5025 96.5441 11.183 96.5182 11.15C96.4922 11.1279 96.2326 11.3152 95.9471 11.5687C95.6528 11.8331 95.3932 11.9984 95.3586 11.9543C95.3154 11.8992 95.2461 11.2381 95.1856 10.4779C95.0298 8.49462 94.9606 8.50564 94.7962 10.5219C94.7356 11.2822 94.6664 11.9433 94.6317 11.9763C94.6058 12.0094 94.3462 11.8331 94.052 11.5797C93.7664 11.3152 93.5155 11.1279 93.4895 11.161C93.4722 11.183 93.602 11.4805 93.7924 11.8111C93.9827 12.1306 94.1385 12.4611 94.1385 12.5272C94.1385 12.6044 93.7664 12.7035 93.1607 12.7917C91.6117 13.001 91.6117 13.1222 93.1693 13.3536C93.7577 13.4417 94.1385 13.5519 94.1385 13.618C94.1385 13.6841 93.9827 14.0147 93.7924 14.3342C93.3857 15.0283 93.351 15.2046 93.6799 14.9292C93.8183 14.83 94.0693 14.6096 94.251 14.4554C94.6664 14.1138 94.701 14.1689 94.7789 15.3589C94.8913 17.1107 95.0211 17.5735 95.125 16.6259Z" fill="#EFB85F"/>
<path d="M39.125 89.6259C39.1509 89.3615 39.1942 88.7335 39.2288 88.2377C39.2634 87.6647 39.324 87.3011 39.3932 87.2681C39.4538 87.235 39.7307 87.4113 39.999 87.6537C40.2759 87.9071 40.5182 88.0834 40.5441 88.0504C40.5615 88.0283 40.397 87.6757 40.1807 87.2791C39.9038 86.7943 39.8086 86.5519 39.8865 86.5189C39.9471 86.4968 40.3884 86.4197 40.8643 86.3426C42.3873 86.1222 42.3787 86.001 40.8384 85.7917C40.3019 85.7145 39.8519 85.6154 39.8346 85.5823C39.8086 85.5382 39.973 85.2187 40.1807 84.8661C40.3884 84.5025 40.5441 84.183 40.5182 84.15C40.4922 84.1279 40.2326 84.3152 39.9471 84.5687C39.6528 84.8331 39.3932 84.9984 39.3586 84.9543C39.3154 84.8992 39.2461 84.2381 39.1856 83.4779C39.0298 81.4946 38.9606 81.5056 38.7962 83.5219C38.7356 84.2822 38.6664 84.9433 38.6317 84.9763C38.6058 85.0094 38.3462 84.8331 38.052 84.5797C37.7664 84.3152 37.5155 84.1279 37.4895 84.161C37.4722 84.183 37.602 84.4805 37.7924 84.8111C37.9827 85.1306 38.1385 85.4611 38.1385 85.5272C38.1385 85.6044 37.7664 85.7035 37.1607 85.7917C35.6117 86.001 35.6117 86.1222 37.1693 86.3536C37.7577 86.4417 38.1385 86.5519 38.1385 86.618C38.1385 86.6841 37.9827 87.0147 37.7924 87.3342C37.3857 88.0283 37.351 88.2046 37.6799 87.9292C37.8183 87.83 38.0693 87.6096 38.251 87.4554C38.6664 87.1138 38.701 87.1689 38.7789 88.3589C38.8913 90.1107 39.0211 90.5735 39.125 89.6259Z" fill="#EFB85F"/>
<path d="M110.125 99.6259C110.151 99.3615 110.194 98.7335 110.229 98.2377C110.263 97.6647 110.324 97.3011 110.393 97.2681C110.454 97.235 110.731 97.4113 110.999 97.6537C111.276 97.9071 111.518 98.0834 111.544 98.0504C111.561 98.0283 111.397 97.6757 111.181 97.2791C110.904 96.7943 110.809 96.5519 110.886 96.5189C110.947 96.4968 111.388 96.4197 111.864 96.3426C113.387 96.1222 113.379 96.001 111.838 95.7917C111.302 95.7145 110.852 95.6154 110.835 95.5823C110.809 95.5382 110.973 95.2187 111.181 94.8661C111.388 94.5025 111.544 94.183 111.518 94.15C111.492 94.1279 111.233 94.3152 110.947 94.5687C110.653 94.8331 110.393 94.9984 110.359 94.9543C110.315 94.8992 110.246 94.2381 110.186 93.4779C110.03 91.4946 109.961 91.5056 109.796 93.5219C109.736 94.2822 109.666 94.9433 109.632 94.9763C109.606 95.0094 109.346 94.8331 109.052 94.5797C108.766 94.3152 108.515 94.1279 108.489 94.161C108.472 94.183 108.602 94.4805 108.792 94.8111C108.983 95.1306 109.138 95.4611 109.138 95.5272C109.138 95.6044 108.766 95.7035 108.161 95.7917C106.612 96.001 106.612 96.1222 108.169 96.3536C108.758 96.4417 109.138 96.5519 109.138 96.618C109.138 96.6841 108.983 97.0147 108.792 97.3342C108.386 98.0283 108.351 98.2046 108.68 97.9292C108.818 97.83 109.069 97.6096 109.251 97.4554C109.666 97.1138 109.701 97.1689 109.779 98.3589C109.891 100.111 110.021 100.573 110.125 99.6259Z" fill="#EFB85F"/>
<path d="M53.125 12.6259C53.1509 12.3615 53.1942 11.7335 53.2288 11.2377C53.2634 10.6647 53.324 10.3011 53.3932 10.2681C53.4538 10.235 53.7307 10.4113 53.999 10.6537C54.2759 10.9071 54.5182 11.0834 54.5441 11.0504C54.5615 11.0283 54.397 10.6757 54.1807 10.2791C53.9038 9.7943 53.8086 9.55191 53.8865 9.51885C53.9471 9.49682 54.3884 9.41969 54.8643 9.34256C56.3873 9.1222 56.3787 9.001 54.8384 8.79166C54.3019 8.71453 53.8519 8.61537 53.8346 8.58232C53.8086 8.53825 53.973 8.21872 54.1807 7.86614C54.3884 7.50255 54.5441 7.18302 54.5182 7.14997C54.4922 7.12793 54.2326 7.31524 53.9471 7.56866C53.6528 7.83309 53.3932 7.99836 53.3586 7.95429C53.3154 7.8992 53.2461 7.23811 53.1856 6.47787C53.0298 4.49462 52.9606 4.50564 52.7962 6.52194C52.7356 7.28219 52.6664 7.94327 52.6317 7.97632C52.6058 8.00938 52.3462 7.83309 52.052 7.57967C51.7664 7.31524 51.5155 7.12793 51.4895 7.16099C51.4722 7.18302 51.602 7.48051 51.7924 7.81105C51.9827 8.13058 52.1385 8.46112 52.1385 8.52723C52.1385 8.60435 51.7664 8.70352 51.1607 8.79166C49.6117 9.001 49.6117 9.1222 51.1693 9.35358C51.7577 9.44173 52.1385 9.55191 52.1385 9.61802C52.1385 9.68412 51.9827 10.0147 51.7924 10.3342C51.3857 11.0283 51.351 11.2046 51.6799 10.9292C51.8183 10.83 52.0693 10.6096 52.251 10.4554C52.6664 10.1138 52.701 10.1689 52.7789 11.3589C52.8913 13.1107 53.0211 13.5735 53.125 12.6259Z" fill="#EFB85F"/>
<circle cx="26" cy="81" r="1" fill="#EFB85F"/>
<circle cx="57" cy="96" r="1" fill="#EFB85F"/>
<circle cx="111" cy="84" r="1" fill="#EFB85F"/>
<circle cx="139" cy="16" r="1" fill="#EFB85F"/>
<circle cx="143" cy="55" r="1" fill="#EFB85F"/>
<circle cx="139" cy="93" r="1" fill="#EFB85F"/>
<circle cx="36" cy="10" r="1" fill="#EFB85F"/>
<circle cx="75" cy="6" r="1" fill="#EFB85F"/>
<path d="M30.1536 96.762L33.0001 96.6487L30.1536 96.5354L31.0464 95.3761L30.0932 96.4619L30 93L29.9069 96.4619L28.9537 95.3761L29.8465 96.5354L27 96.6487L29.8465 96.762L28.9537 97.9212L29.9069 96.8354L30 100.297L30.0932 96.8354L31.0464 97.9212L30.1536 96.762Z" fill="#EFB85F"/>
<path d="M11.1536 76.762L14.0001 76.6487L11.1536 76.5354L12.0464 75.3761L11.0932 76.4619L11 73L10.9069 76.4619L9.95375 75.3761L10.8465 76.5354L8 76.6487L10.8465 76.762L9.95375 77.9212L10.9069 76.8354L11 80.2973L11.0932 76.8354L12.0464 77.9212L11.1536 76.762Z" fill="#EFB85F"/>
<path d="M68.1536 11.762L71.0001 11.6487L68.1536 11.5354L69.0464 10.3761L68.0932 11.4619L68 8L67.9069 11.4619L66.9537 10.3761L67.8465 11.5354L65 11.6487L67.8465 11.762L66.9537 12.9212L67.9069 11.8354L68 15.2973L68.0932 11.8354L69.0464 12.9212L68.1536 11.762Z" fill="#EFB85F"/>
<path d="M137.154 76.762L140 76.6487L137.154 76.5354L138.046 75.3761L137.093 76.4619L137 73L136.907 76.4619L135.954 75.3761L136.847 76.5354L134 76.6487L136.847 76.762L135.954 77.9212L136.907 76.8354L137 80.2973L137.093 76.8354L138.046 77.9212L137.154 76.762Z" fill="#EFB85F"/>
<path d="M129.154 95.762L132 95.6487L129.154 95.5354L130.046 94.3761L129.093 95.4619L129 92L128.907 95.4619L127.954 94.3761L128.847 95.5354L126 95.6487L128.847 95.762L127.954 96.9212L128.907 95.8354L129 99.2973L129.093 95.8354L130.046 96.9212L129.154 95.762Z" fill="#EFB85F"/>
<path d="M8.15357 18.762L11.0001 18.6487L8.15357 18.5354L9.04635 17.3761L8.09316 18.4619L8.00005 15L7.90694 18.4619L6.95375 17.3761L7.84653 18.5354L5 18.6487L7.84653 18.762L6.95375 19.9212L7.90694 18.8354L8.00005 22.2973L8.09316 18.8354L9.04635 19.9212L8.15357 18.762Z" fill="#EFB85F"/>
<path d="M86.062 51.5876C85.4529 51.2207 84.0106 50.2015 82.8727 49.325C80.4046 47.4089 80.2123 47.5108 81.254 50.1199L82.0553 52.1176L81.0777 52.1176C80.5488 52.1176 80.1161 51.9341 80.1161 51.7099C80.1161 51.4857 80.2604 51.3022 80.4367 51.3022C80.6129 51.3022 80.7572 51.1187 80.7572 50.8945C80.7572 50.6703 80.1161 50.8945 79.3148 51.3837C77.7602 52.3418 77.3115 52.2195 77.8243 50.9964C78.3212 49.8142 77.4237 48.3669 76.3178 48.53C75.3883 48.6727 75.0518 50.4461 75.8851 50.7926C76.1416 50.9149 76.2698 50.7315 76.2057 50.3442C76.1576 49.9976 76.2217 49.7123 76.3499 49.6919C77.0871 49.6103 77.2314 49.753 77.2314 50.4665C77.2314 51.9341 74.9716 52.7495 74.4107 51.4857C74.1703 50.8945 74.1062 50.8945 73.7216 51.4857C73.1927 52.2806 72.4234 52.301 72.4234 51.506C72.4234 51.1799 72.2792 50.8945 72.0869 50.8945C71.9106 50.8945 71.6862 51.1799 71.574 51.506C71.1253 52.9941 68.6572 52.2806 66.5737 50.0588L64.6345 48L62.3588 48.2854C61.1087 48.4281 60.051 48.5911 60.0029 48.6523C59.9548 48.6931 60.5157 49.5899 61.2529 50.6499L62.5831 52.5864L61.2529 54.2986C59.49 56.5816 59.5061 56.602 62.6152 56.602L65.3237 56.602L66.5898 54.7675C67.8719 52.9125 70.981 52.036 71.6221 53.3406C71.7343 53.5648 72.0388 53.7483 72.2952 53.7483C72.5676 53.7483 72.6959 53.5648 72.5837 53.3406C72.4715 53.1164 72.7279 52.9329 73.1767 52.9329C73.6094 52.9329 74.0421 53.1571 74.1382 53.4425C74.2665 53.8502 74.2985 53.8502 74.3145 53.4425C74.3466 52.7902 76.3339 52.7698 76.8467 53.4221C77.8404 54.6859 76.8467 56.9078 75.789 55.7867C75.196 55.1752 75.4684 54.5025 76.1576 54.849C76.5102 55.0121 76.6223 54.9102 76.5262 54.5229C76.2698 53.5648 75.1639 53.8298 75.0357 54.8898C74.8114 56.9078 76.6063 57.7639 77.7282 56.174C78.225 55.4809 78.257 55.1548 77.9686 54.1356C77.5359 52.6883 78.1929 52.5049 79.8597 53.5852C80.7732 54.1763 80.8373 54.1763 80.661 53.5852C80.5008 53.096 80.661 52.9329 81.254 52.9329C82.2156 52.9329 82.2156 53.0756 81.3662 54.849C80.3725 56.8874 80.677 56.867 84.0907 54.5433C87.6646 52.1176 87.4563 52.4437 86.062 51.5876ZM82.6483 51.241C81.863 49.9365 82.0714 49.8753 83.69 50.9557L85.0843 51.8933L84.1388 52.036C83.4496 52.1583 83.049 51.9341 82.6483 51.241ZM82.488 54.4413C82.0072 53.8298 82.8727 52.9329 83.9144 52.9533L85.0843 52.9737L83.8503 53.789C83.1772 54.2579 82.5522 54.5432 82.488 54.4413ZM66.1731 51.7099C65.516 51.0168 64.298 48.8561 64.5704 48.8561C64.8589 48.8561 66.9584 51.8526 66.8141 52.0564C66.734 52.1583 66.4455 51.9953 66.1731 51.7099ZM64.6185 55.7867C64.4422 55.7867 64.6345 55.3382 65.0512 54.7675C65.4679 54.2171 65.7243 53.6667 65.6442 53.5444C65.5641 53.4425 65.0672 53.891 64.5704 54.5636C63.689 55.7255 62.8075 56.174 62.8075 55.4605C62.8075 54.5025 64.6345 52.9941 65.8045 53.0145L67.0385 53.0145L65.9808 54.4006C65.4038 55.1548 64.7788 55.7867 64.6185 55.7867ZM63.8332 50.7518C63.1921 49.9569 62.7755 49.1619 62.9037 48.9988C63.0319 48.8357 63.721 49.4269 64.4262 50.3034C65.1314 51.1799 65.548 51.9749 65.3397 52.0564C65.1474 52.1379 64.4582 51.5672 63.8332 50.7518ZM63.4486 52.1176C62.9678 52.1176 61.2369 49.5288 61.4292 49.1211C61.5254 48.9377 62.0863 49.3861 62.6793 50.1199C63.7851 51.4857 64.0255 52.1176 63.4486 52.1176ZM61.4453 55.7867C61.301 55.7867 61.5735 55.1548 62.0703 54.3598C62.5671 53.5852 63.1761 52.9329 63.4325 52.9329C63.721 52.9329 63.4806 53.4833 62.8075 54.3598C62.2145 55.1548 61.6055 55.7867 61.4453 55.7867Z" fill="#EFB85F"/>
</svg>
