<svg width="148" height="105" viewBox="0 0 148 105" fill="none" xmlns="http://www.w3.org/2000/svg">
<rect width="147.402" height="104.882" rx="10" fill="black"/>
<path d="M15.9655 48.9414C15.942 48.9414 15.9303 48.9121 15.9303 48.8535V48.8008C15.9303 48.7773 15.942 48.7656 15.9655 48.7656C15.983 48.7656 16.0109 48.7627 16.049 48.7568C16.087 48.751 16.1266 48.7451 16.1676 48.7393C16.2086 48.7334 16.2467 48.7275 16.2819 48.7217C16.317 48.7129 16.3419 48.707 16.3566 48.7041C16.6554 48.6367 16.8048 48.4668 16.8048 48.1943V43.5537C16.8048 43.3018 16.7037 43.123 16.5016 43.0176C16.3815 42.9531 16.2526 42.9209 16.1149 42.9209H15.9479C15.9244 42.9209 15.9127 42.9092 15.9127 42.8857V42.7803C15.9127 42.7568 15.9303 42.7451 15.9655 42.7451L18.3781 42.6792H18.8219C19.3405 42.7144 19.774 42.9033 20.1227 43.2461C20.4742 43.5859 20.65 44.0063 20.65 44.5073C20.65 45.0054 20.442 45.3936 20.026 45.6719C19.8971 45.7568 19.7579 45.833 19.6085 45.9004L20.9401 48.0757C21.1715 48.4565 21.4821 48.7246 21.8717 48.8799C21.9039 48.8887 21.92 48.9092 21.92 48.9414C21.92 49.0146 21.8717 49.0513 21.775 49.0513C21.1158 49.0513 20.5914 48.8008 20.2018 48.2998C20.1168 48.1885 20.0319 48.064 19.9469 47.9263L18.8087 46.1421L17.7628 46.0938H17.7277C17.6837 46.0938 17.6617 46.1143 17.6617 46.1553V48.1812C17.6617 48.3423 17.7072 48.4624 17.798 48.5415C17.8888 48.6206 18.0455 48.6748 18.2682 48.7041C18.3268 48.7129 18.3986 48.7261 18.4835 48.7437C18.5685 48.7583 18.6256 48.7656 18.6549 48.7656C18.6871 48.7656 18.7032 48.7773 18.7032 48.8008V48.9062C18.7032 48.9297 18.6915 48.9414 18.6681 48.9414H15.9655ZM18.0177 42.9121C17.9825 42.9121 17.9445 42.9136 17.9034 42.9165C17.8654 42.9165 17.8156 42.918 17.754 42.9209C17.6925 42.9209 17.6617 42.9443 17.6617 42.9912V45.6543L17.6705 45.7861C17.6793 45.8477 17.7072 45.8799 17.754 45.8828L18.2023 45.9092C19.0255 45.9092 19.5221 45.6162 19.692 45.0303C19.7477 44.8457 19.7755 44.6348 19.7755 44.3975C19.7755 43.9346 19.6305 43.5698 19.3405 43.3032C19.0533 43.0366 18.6857 42.9033 18.2374 42.9033C18.1964 42.9033 18.1583 42.9048 18.1232 42.9077C18.088 42.9077 18.0529 42.9092 18.0177 42.9121ZM22.9923 46.6255C22.9425 46.6255 22.9176 46.7324 22.9176 46.9463C22.9176 47.4004 23.0524 47.7812 23.3219 48.0889C23.5914 48.3965 23.9254 48.5503 24.3239 48.5503C24.7252 48.5503 25.1105 48.3774 25.4796 48.0317C25.4855 48.0259 25.4928 48.0229 25.5016 48.0229H25.5236C25.5411 48.0229 25.5573 48.0376 25.5719 48.0669C25.5895 48.0933 25.6056 48.1108 25.6202 48.1196C25.2804 48.5327 24.8805 48.8184 24.4205 48.9766C24.2623 49.0322 24.0836 49.0601 23.8844 49.0601C23.6852 49.0601 23.483 49.0059 23.278 48.8975C23.0729 48.7861 22.8971 48.6411 22.7506 48.4624C22.4401 48.0903 22.2848 47.6274 22.2848 47.0737C22.2848 46.5171 22.4532 46.0103 22.7902 45.5532C23.13 45.0962 23.5958 44.8677 24.1876 44.8677C24.6124 44.8677 24.9596 45.0581 25.2291 45.439C25.4987 45.8169 25.6334 46.1494 25.6334 46.4365C25.6334 46.5625 25.6027 46.6255 25.5411 46.6255H22.9923ZM23.0406 46.2036C23.0406 46.2593 23.067 46.2871 23.1198 46.2871H24.7765C24.8527 46.2871 24.8907 46.2417 24.8907 46.1509C24.8907 45.9399 24.7955 45.7246 24.6051 45.5049C24.4176 45.2822 24.2111 45.1709 23.9855 45.1709C23.7657 45.1709 23.5651 45.2705 23.3834 45.4697C23.2047 45.6689 23.0905 45.896 23.0406 46.1509V46.2036ZM32.1637 47.5571L32.1549 46.6299C32.1549 46.252 32.1227 45.9868 32.0582 45.8345C31.9938 45.6821 31.9117 45.5679 31.8121 45.4917C31.7125 45.4126 31.5778 45.373 31.4078 45.373C31.2408 45.373 30.8849 45.5049 30.34 45.7686C30.2667 45.8125 30.2286 45.8535 30.2257 45.8916V48.2559C30.2257 48.5518 30.3839 48.7217 30.7003 48.7656C30.838 48.7861 30.9069 48.8198 30.9069 48.8667C30.9069 48.9106 30.8922 48.9355 30.8629 48.9414H28.903C28.8737 48.9355 28.859 48.915 28.859 48.8799C28.859 48.8242 28.9279 48.7861 29.0656 48.7656C29.382 48.7217 29.5402 48.5518 29.5402 48.2559V46.0674C29.5402 45.6074 29.256 45.3774 28.6876 45.3774C28.4796 45.3774 28.191 45.5005 27.8219 45.7466C27.7281 45.8081 27.6593 45.8652 27.6154 45.918V48.2559C27.6154 48.5518 27.7736 48.7217 28.09 48.7656C28.2277 48.7861 28.2965 48.8198 28.2965 48.8667C28.2965 48.9106 28.2819 48.9355 28.2526 48.9414H26.2926C26.2633 48.9355 26.2487 48.915 26.2487 48.8799C26.2487 48.8242 26.3175 48.7861 26.4552 48.7656C26.7716 48.7217 26.9298 48.5547 26.9298 48.2646V45.7334C26.9298 45.6104 26.8624 45.5254 26.7277 45.4785C26.6691 45.458 26.6061 45.4419 26.5387 45.4302C26.4713 45.4155 26.4171 45.4023 26.3761 45.3906C26.338 45.3789 26.3131 45.3687 26.3014 45.3599C26.2926 45.3481 26.2882 45.3262 26.2882 45.2939C26.2882 45.2588 26.3102 45.2295 26.3541 45.2061L27.4747 44.6787C27.5099 44.6611 27.5319 44.6523 27.5406 44.6523C27.5905 44.6523 27.6154 44.6875 27.6154 44.7578V45.4873C27.6183 45.5049 27.6285 45.5137 27.6461 45.5137C27.6666 45.5137 27.715 45.4932 27.7911 45.4521C27.8702 45.4111 27.9728 45.354 28.0988 45.2808C28.2247 45.2046 28.3903 45.1167 28.5953 45.0171C28.8033 44.9175 29.0231 44.8677 29.2545 44.8677C29.6266 44.8677 29.8932 45.0273 30.0543 45.3467C30.1158 45.4756 30.1715 45.5312 30.2213 45.5137C30.2711 45.4932 30.3488 45.4565 30.4542 45.4038C30.7032 45.2808 30.9552 45.1606 31.2101 45.0435C31.465 44.9263 31.6759 44.8677 31.8429 44.8677C32.5197 44.8677 32.858 45.4844 32.858 46.7178L32.8185 48.001V48.2559C32.8185 48.4844 32.9327 48.6338 33.1613 48.7041C33.2579 48.7363 33.3502 48.7598 33.4381 48.7744C33.5289 48.7861 33.5875 48.7979 33.6139 48.8096C33.6432 48.8213 33.6578 48.8447 33.6578 48.8799C33.6578 48.915 33.6432 48.9355 33.6139 48.9414H31.4957C31.4664 48.9355 31.4518 48.915 31.4518 48.8799C31.4518 48.8242 31.5206 48.7861 31.6583 48.7656C31.9718 48.7217 32.1285 48.54 32.1285 48.2207C32.152 48.0742 32.1637 47.853 32.1637 47.5571ZM37.2921 48.48C36.8878 48.8667 36.4337 49.0601 35.9298 49.0601C35.7482 49.0601 35.5006 49.0264 35.1871 48.959C35.1373 48.959 35.1095 48.9766 35.1036 49.0117C35.1007 49.0469 35.0978 49.0835 35.0948 49.1216V50.998C35.0948 51.2178 35.2223 51.3643 35.4772 51.4375C35.5885 51.4668 35.6925 51.4873 35.7892 51.499C35.8859 51.5137 35.9474 51.5269 35.9738 51.5386C36.0031 51.5503 36.0177 51.5723 36.0177 51.6045C36.0177 51.6396 36.0031 51.6602 35.9738 51.666H33.7721C33.7428 51.6602 33.7281 51.6396 33.7281 51.6045C33.7281 51.5518 33.797 51.5166 33.9347 51.499C34.2511 51.4521 34.4093 51.2852 34.4093 50.998V45.729C34.4093 45.606 34.3419 45.521 34.2072 45.4741C34.1486 45.4536 34.0856 45.4375 34.0182 45.4258C33.9508 45.4111 33.8966 45.3979 33.8556 45.3862C33.8175 45.3745 33.7926 45.3643 33.7809 45.3555C33.7721 45.3438 33.7677 45.3218 33.7677 45.2896C33.7677 45.2544 33.7897 45.2251 33.8336 45.2017L34.9542 44.6655C34.9777 44.6538 35.0011 44.6479 35.0245 44.6479C35.0714 44.6479 35.0948 44.6831 35.0948 44.7534V45.3115C35.0948 45.3438 35.111 45.3599 35.1432 45.3599C35.1783 45.3599 35.2604 45.3174 35.3893 45.2324C35.7614 44.9922 36.1481 44.8721 36.5494 44.8721C36.8307 44.8721 37.0885 44.9863 37.3229 45.2148C37.6305 45.5137 37.8356 45.9297 37.9381 46.4629C37.9674 46.6152 37.9821 46.7778 37.9821 46.9507C37.9821 47.1206 37.9542 47.3008 37.8986 47.4912C37.7872 47.8691 37.5851 48.1987 37.2921 48.48ZM36.0353 45.3291C35.6368 45.3291 35.3234 45.4434 35.0948 45.6719V48.1416C35.0948 48.2881 35.1198 48.3833 35.1696 48.4272C35.2985 48.5386 35.4962 48.625 35.7628 48.6865C36.2902 48.8066 36.7003 48.6807 36.9933 48.3086C37.2013 48.042 37.3053 47.7197 37.3053 47.3418C37.3053 46.6064 37.1398 46.0557 36.8087 45.6895C36.6095 45.4668 36.3517 45.3467 36.0353 45.3291ZM40.3947 48.7744C40.5323 48.792 40.6012 48.8271 40.6012 48.8799C40.6012 48.915 40.5865 48.9355 40.5573 48.9414H38.5973C38.568 48.9355 38.5533 48.915 38.5533 48.8799C38.5533 48.8271 38.6222 48.792 38.7599 48.7744C39.0763 48.7275 39.2345 48.5605 39.2345 48.2734V42.7935C39.2345 42.6704 39.1671 42.5854 39.0323 42.5386C38.9738 42.5181 38.9108 42.502 38.8434 42.4902C38.776 42.4756 38.7218 42.4624 38.6808 42.4507C38.6427 42.439 38.6178 42.4287 38.6061 42.4199C38.5973 42.4082 38.5929 42.3862 38.5929 42.354C38.5929 42.3188 38.6149 42.2896 38.6588 42.2661L39.7794 41.7388C39.8146 41.7212 39.8365 41.7124 39.8453 41.7124C39.8951 41.7124 39.92 41.7476 39.92 41.8179V48.2734C39.92 48.5605 40.0782 48.7275 40.3947 48.7744ZM41.067 48.9414C41.0377 48.9355 41.0231 48.915 41.0231 48.8799C41.0231 48.8271 41.0919 48.792 41.2296 48.7744C41.546 48.7275 41.7042 48.5605 41.7042 48.2734V45.9487C41.7042 45.8257 41.6368 45.7407 41.5021 45.6938C41.4435 45.6733 41.3805 45.6572 41.3131 45.6455C41.2457 45.6309 41.1915 45.6177 41.1505 45.606C41.1124 45.5942 41.0875 45.584 41.0758 45.5752C41.067 45.5635 41.0626 45.5415 41.0626 45.5093C41.0626 45.4741 41.0846 45.4448 41.1285 45.4214L42.2491 44.894C42.2843 44.8765 42.3063 44.8677 42.3151 44.8677C42.3649 44.8677 42.3898 44.9028 42.3898 44.9731V48.2734C42.3898 48.5605 42.548 48.7275 42.8644 48.7744C43.0021 48.792 43.0709 48.8228 43.0709 48.8667C43.0709 48.9106 43.0563 48.9355 43.027 48.9414H41.067ZM41.9811 43.6328C41.861 43.6328 41.754 43.5947 41.6603 43.5186C41.5695 43.4424 41.524 43.3369 41.524 43.2021C41.524 43.0645 41.568 42.9561 41.6559 42.877C41.7438 42.7979 41.8478 42.7583 41.9679 42.7583C42.0909 42.7583 42.1935 42.8052 42.2755 42.8989C42.3605 42.9927 42.403 43.0938 42.403 43.2021C42.403 43.3105 42.3634 43.4102 42.2843 43.501C42.2052 43.5889 42.1041 43.6328 41.9811 43.6328ZM44.3058 46.6255C44.256 46.6255 44.2311 46.7324 44.2311 46.9463C44.2311 47.4004 44.3658 47.7812 44.6354 48.0889C44.9049 48.3965 45.2389 48.5503 45.6373 48.5503C46.0387 48.5503 46.424 48.3774 46.7931 48.0317C46.799 48.0259 46.8063 48.0229 46.8151 48.0229H46.837C46.8546 48.0229 46.8707 48.0376 46.8854 48.0669C46.903 48.0933 46.9191 48.1108 46.9337 48.1196C46.5939 48.5327 46.194 48.8184 45.734 48.9766C45.5758 49.0322 45.3971 49.0601 45.1979 49.0601C44.9987 49.0601 44.7965 49.0059 44.5914 48.8975C44.3864 48.7861 44.2106 48.6411 44.0641 48.4624C43.7535 48.0903 43.5983 47.6274 43.5983 47.0737C43.5983 46.5171 43.7667 46.0103 44.1036 45.5532C44.4435 45.0962 44.9093 44.8677 45.5011 44.8677C45.9259 44.8677 46.2731 45.0581 46.5426 45.439C46.8121 45.8169 46.9469 46.1494 46.9469 46.4365C46.9469 46.5625 46.9161 46.6255 46.8546 46.6255H44.3058ZM44.3541 46.2036C44.3541 46.2593 44.3805 46.2871 44.4332 46.2871H46.09C46.1661 46.2871 46.2042 46.2417 46.2042 46.1509C46.2042 45.9399 46.109 45.7246 45.9186 45.5049C45.7311 45.2822 45.5245 45.1709 45.299 45.1709C45.0792 45.1709 44.8785 45.2705 44.6969 45.4697C44.5182 45.6689 44.4039 45.896 44.3541 46.1509V46.2036ZM54.255 44.9863C54.2872 44.9951 54.3033 45.0156 54.3033 45.0479C54.3033 45.0801 54.299 45.1035 54.2902 45.1182C54.2814 45.1328 54.2169 45.1489 54.0968 45.1665C53.9767 45.1841 53.8903 45.2192 53.8375 45.272C53.7877 45.3218 53.7423 45.3789 53.7013 45.4434C53.6632 45.5078 53.6295 45.5752 53.6002 45.6455C53.5709 45.7129 53.5431 45.7744 53.5167 45.8301L52.317 48.9326C52.2819 49.0176 52.2496 49.0601 52.2203 49.0601H51.8732C51.8439 49.0601 51.8116 49.0146 51.7765 48.9238L50.6119 45.7729C50.5035 45.4771 50.3175 45.2866 50.0538 45.2017C50.0333 45.1958 50.0084 45.1914 49.9791 45.1885C49.8561 45.1768 49.7946 45.1401 49.7946 45.0786C49.7946 45.0171 49.8297 44.9863 49.9 44.9863H51.8556C51.879 44.9863 51.8907 45.0098 51.8907 45.0566C51.8907 45.1006 51.8746 45.1299 51.8424 45.1445C51.7897 45.165 51.6959 45.1738 51.5612 45.1709C51.3414 45.165 51.2316 45.2529 51.2316 45.4346L51.2579 45.54L52.15 47.979C52.2086 48.1284 52.2672 48.124 52.3258 47.9658C52.3317 47.9512 52.3698 47.856 52.4401 47.6802C52.8356 46.6694 53.0568 46.085 53.1036 45.9268C53.1534 45.7686 53.1783 45.6499 53.1783 45.5708C53.1783 45.4917 53.1359 45.4097 53.0509 45.3247C52.9659 45.2368 52.8517 45.1929 52.7081 45.1929C52.5646 45.1929 52.4928 45.1489 52.4928 45.061C52.4928 45.0112 52.525 44.9863 52.5895 44.9863H54.255ZM57.3268 45.7905C57.2916 45.7847 57.2404 45.7656 57.173 45.7334C56.9298 45.6221 56.7394 45.5664 56.6017 45.5664C56.464 45.5664 56.319 45.6528 56.1666 45.8257C56.0172 45.9956 55.9425 46.1494 55.9425 46.2871V48.2734C55.9425 48.4932 56.0699 48.6396 56.3248 48.7129C56.4362 48.7422 56.5402 48.7642 56.6368 48.7788C56.7335 48.7905 56.795 48.8022 56.8214 48.814C56.8507 48.8257 56.8654 48.8491 56.8654 48.8843C56.8654 48.9165 56.8507 48.9355 56.8214 48.9414H54.6198C54.5905 48.9355 54.5758 48.915 54.5758 48.8799C54.5758 48.8271 54.6447 48.792 54.7823 48.7744C55.0988 48.7275 55.257 48.5605 55.257 48.2734V45.9487C55.257 45.8257 55.1896 45.7407 55.0548 45.6938C54.9962 45.6733 54.9332 45.6572 54.8658 45.6455C54.7985 45.6309 54.7443 45.6177 54.7032 45.606C54.6652 45.5942 54.6403 45.584 54.6285 45.5752C54.6198 45.5635 54.6154 45.5415 54.6154 45.5093C54.6154 45.4741 54.6373 45.4448 54.6813 45.4214L55.8019 44.894C55.837 44.8765 55.859 44.8677 55.8678 44.8677C55.9176 44.8677 55.9425 44.9028 55.9425 44.9731V45.6851C55.9425 45.7202 55.9513 45.7378 55.9689 45.7378C55.9923 45.7378 56.0524 45.6689 56.149 45.5312C56.4274 45.1416 56.6573 44.9468 56.839 44.9468C56.9415 44.9468 57.0983 44.9878 57.3092 45.0698C57.5231 45.1519 57.63 45.2207 57.63 45.2764C57.63 45.3438 57.5963 45.4463 57.5289 45.584C57.4615 45.7217 57.3942 45.7905 57.3268 45.7905ZM60.6578 48.2163C60.6578 48.2925 60.693 48.354 60.7633 48.4009C60.8365 48.4448 60.92 48.4668 61.0138 48.4668C61.1075 48.4668 61.1852 48.4434 61.2467 48.3965C61.3112 48.3467 61.3551 48.3218 61.3785 48.3218C61.402 48.3218 61.4137 48.354 61.4137 48.4185C61.4137 48.48 61.3844 48.5327 61.3258 48.5767C60.8864 48.8989 60.589 49.0601 60.4337 49.0601C60.2462 49.0601 60.0939 48.8652 59.9767 48.4756C59.9679 48.4463 59.9606 48.4331 59.9547 48.436C59.5914 48.7085 59.3629 48.8726 59.2692 48.9282C59.0289 49.0659 58.7872 49.0879 58.5441 48.9941C58.3038 48.9004 58.1295 48.7451 58.0211 48.5283C57.9684 48.417 57.942 48.2983 57.942 48.1724C57.942 47.9233 58.0343 47.7256 58.2189 47.5791C58.4034 47.4326 58.755 47.292 59.2736 47.1572C59.4493 47.1104 59.6061 47.0503 59.7438 46.9771C59.8815 46.9038 59.9532 46.8569 59.9591 46.8364C59.9679 46.8159 59.9723 46.7969 59.9723 46.7793V45.9355C59.9723 45.6045 59.8434 45.3716 59.5856 45.2368C59.5006 45.1929 59.3981 45.1709 59.278 45.1709C59.1608 45.1709 59.0406 45.2178 58.9176 45.3115C58.7975 45.4053 58.7374 45.5386 58.7374 45.7114L58.7594 45.8828C58.7418 45.918 58.6364 45.9766 58.443 46.0586C58.2496 46.1406 58.1383 46.1846 58.109 46.1904C58.0621 46.1904 58.0387 46.1348 58.0387 46.0234C58.0387 45.9092 58.0724 45.7832 58.1398 45.6455C58.2072 45.5078 58.3024 45.3818 58.4254 45.2676C58.7125 45.001 59.0406 44.8677 59.4098 44.8677C59.7789 44.8677 60.0792 44.9702 60.3107 45.1753C60.5421 45.3774 60.6578 45.6191 60.6578 45.9004V48.2163ZM58.632 48.0889C58.632 48.2295 58.6862 48.3525 58.7946 48.458C58.903 48.5605 59.026 48.6118 59.1637 48.6118C59.3043 48.6118 59.4742 48.5532 59.6735 48.436C59.8727 48.3159 59.9723 48.1929 59.9723 48.0669V47.1748C59.9723 47.1426 59.965 47.1265 59.9503 47.1265C59.9357 47.1265 59.9254 47.1279 59.9196 47.1309L58.9 47.6055C58.7946 47.6816 58.7228 47.7461 58.6847 47.7988C58.6495 47.8516 58.632 47.9482 58.632 48.0889ZM61.8356 48.9414C61.8063 48.9355 61.7916 48.915 61.7916 48.8799C61.7916 48.8271 61.8605 48.792 61.9982 48.7744C62.3146 48.7275 62.4728 48.5605 62.4728 48.2734V45.9487C62.4728 45.8257 62.4054 45.7407 62.2706 45.6938C62.212 45.6733 62.149 45.6572 62.0817 45.6455C62.0143 45.6309 61.9601 45.6177 61.9191 45.606C61.881 45.5942 61.8561 45.584 61.8444 45.5752C61.8356 45.5635 61.8312 45.5415 61.8312 45.5093C61.8312 45.4741 61.8531 45.4448 61.8971 45.4214L63.0177 44.894C63.0529 44.8765 63.0748 44.8677 63.0836 44.8677C63.1334 44.8677 63.1583 44.9028 63.1583 44.9731V48.2734C63.1583 48.5605 63.3165 48.7275 63.6329 48.7744C63.7706 48.792 63.8395 48.8228 63.8395 48.8667C63.8395 48.9106 63.8248 48.9355 63.7955 48.9414H61.8356ZM62.7496 43.6328C62.6295 43.6328 62.5226 43.5947 62.4288 43.5186C62.338 43.4424 62.2926 43.3369 62.2926 43.2021C62.2926 43.0645 62.3365 42.9561 62.4244 42.877C62.5123 42.7979 62.6163 42.7583 62.7365 42.7583C62.8595 42.7583 62.962 42.8052 63.0441 42.8989C63.129 42.9927 63.1715 43.0938 63.1715 43.2021C63.1715 43.3105 63.132 43.4102 63.0529 43.501C62.9738 43.5889 62.8727 43.6328 62.7496 43.6328ZM70.1588 47.5571L70.15 46.6299C70.15 46.252 70.1178 45.9868 70.0533 45.8345C69.9889 45.6821 69.9069 45.5679 69.8073 45.4917C69.7076 45.4126 69.5729 45.373 69.403 45.373C69.236 45.373 68.88 45.5049 68.3351 45.7686C68.2618 45.8125 68.2238 45.8535 68.2208 45.8916V48.2559C68.2208 48.5518 68.379 48.7217 68.6954 48.7656C68.8331 48.7861 68.902 48.8198 68.902 48.8667C68.902 48.9106 68.8873 48.9355 68.858 48.9414H66.8981C66.8688 48.9355 66.8541 48.915 66.8541 48.8799C66.8541 48.8242 66.923 48.7861 67.0607 48.7656C67.3771 48.7217 67.5353 48.5518 67.5353 48.2559V46.0674C67.5353 45.6074 67.2511 45.3774 66.6827 45.3774C66.4747 45.3774 66.1862 45.5005 65.817 45.7466C65.7233 45.8081 65.6544 45.8652 65.6105 45.918V48.2559C65.6105 48.5518 65.7687 48.7217 66.0851 48.7656C66.2228 48.7861 66.2916 48.8198 66.2916 48.8667C66.2916 48.9106 66.277 48.9355 66.2477 48.9414H64.2877C64.2584 48.9355 64.2438 48.915 64.2438 48.8799C64.2438 48.8242 64.3126 48.7861 64.4503 48.7656C64.7667 48.7217 64.9249 48.5547 64.9249 48.2646V45.7334C64.9249 45.6104 64.8575 45.5254 64.7228 45.4785C64.6642 45.458 64.6012 45.4419 64.5338 45.4302C64.4664 45.4155 64.4122 45.4023 64.3712 45.3906C64.3331 45.3789 64.3082 45.3687 64.2965 45.3599C64.2877 45.3481 64.2833 45.3262 64.2833 45.2939C64.2833 45.2588 64.3053 45.2295 64.3492 45.2061L65.4698 44.6787C65.505 44.6611 65.527 44.6523 65.5358 44.6523C65.5856 44.6523 65.6105 44.6875 65.6105 44.7578V45.4873C65.6134 45.5049 65.6237 45.5137 65.6412 45.5137C65.6617 45.5137 65.7101 45.4932 65.7863 45.4521C65.8654 45.4111 65.9679 45.354 66.0939 45.2808C66.2198 45.2046 66.3854 45.1167 66.5905 45.0171C66.7985 44.9175 67.0182 44.8677 67.2496 44.8677C67.6217 44.8677 67.8883 45.0273 68.0494 45.3467C68.111 45.4756 68.1666 45.5312 68.2164 45.5137C68.2662 45.4932 68.3439 45.4565 68.4493 45.4038C68.6984 45.2808 68.9503 45.1606 69.2052 45.0435C69.4601 44.9263 69.671 44.8677 69.838 44.8677C70.5148 44.8677 70.8531 45.4844 70.8531 46.7178L70.8136 48.001V48.2559C70.8136 48.4844 70.9279 48.6338 71.1564 48.7041C71.2531 48.7363 71.3453 48.7598 71.4332 48.7744C71.524 48.7861 71.5826 48.7979 71.609 48.8096C71.6383 48.8213 71.653 48.8447 71.653 48.8799C71.653 48.915 71.6383 48.9355 71.609 48.9414H69.4908C69.4615 48.9355 69.4469 48.915 69.4469 48.8799C69.4469 48.8242 69.5157 48.7861 69.6534 48.7656C69.9669 48.7217 70.1237 48.54 70.1237 48.2207C70.1471 48.0742 70.1588 47.853 70.1588 47.5571ZM72.6857 46.6255C72.6359 46.6255 72.611 46.7324 72.611 46.9463C72.611 47.4004 72.7457 47.7812 73.0153 48.0889C73.2848 48.3965 73.6188 48.5503 74.0172 48.5503C74.4186 48.5503 74.8038 48.3774 75.173 48.0317C75.1788 48.0259 75.1862 48.0229 75.1949 48.0229H75.2169C75.2345 48.0229 75.2506 48.0376 75.2653 48.0669C75.2828 48.0933 75.299 48.1108 75.3136 48.1196C74.9738 48.5327 74.5739 48.8184 74.1139 48.9766C73.9557 49.0322 73.777 49.0601 73.5778 49.0601C73.3785 49.0601 73.1764 49.0059 72.9713 48.8975C72.7662 48.7861 72.5905 48.6411 72.444 48.4624C72.1334 48.0903 71.9781 47.6274 71.9781 47.0737C71.9781 46.5171 72.1466 46.0103 72.4835 45.5532C72.8234 45.0962 73.2892 44.8677 73.881 44.8677C74.3058 44.8677 74.653 45.0581 74.9225 45.439C75.192 45.8169 75.3268 46.1494 75.3268 46.4365C75.3268 46.5625 75.296 46.6255 75.2345 46.6255H72.6857ZM72.734 46.2036C72.734 46.2593 72.7604 46.2871 72.8131 46.2871H74.4698C74.546 46.2871 74.5841 46.2417 74.5841 46.1509C74.5841 45.9399 74.4889 45.7246 74.2985 45.5049C74.111 45.2822 73.9044 45.1709 73.6788 45.1709C73.4591 45.1709 73.2584 45.2705 73.0768 45.4697C72.8981 45.6689 72.7838 45.896 72.734 46.1509V46.2036ZM79.2906 47.5571L79.2819 46.6299C79.2819 46.252 79.2496 45.9868 79.1852 45.8345C79.1207 45.6821 79.0387 45.5679 78.9391 45.4917C78.8395 45.4126 78.7047 45.373 78.5348 45.373C78.3678 45.373 78.0118 45.5049 77.4669 45.7686C77.3937 45.8125 77.3556 45.8535 77.3527 45.8916V48.2559C77.3527 48.5518 77.5109 48.7217 77.8273 48.7656C77.965 48.7861 78.0338 48.8198 78.0338 48.8667C78.0338 48.9106 78.0192 48.9355 77.9899 48.9414H76.0299C76.0006 48.9355 75.986 48.915 75.986 48.8799C75.986 48.8242 76.0548 48.7861 76.1925 48.7656C76.5089 48.7217 76.6671 48.5518 76.6671 48.2559V45.7334C76.6671 45.6104 76.5997 45.5254 76.465 45.4785C76.4064 45.458 76.3434 45.4419 76.276 45.4302C76.2086 45.4155 76.1544 45.4023 76.1134 45.3906C76.0753 45.3789 76.0504 45.3687 76.0387 45.3599C76.0299 45.3481 76.0255 45.3262 76.0255 45.2939C76.0255 45.2588 76.0475 45.2295 76.0914 45.2061L77.212 44.6787C77.2472 44.6611 77.2692 44.6523 77.278 44.6523C77.3278 44.6523 77.3527 44.6875 77.3527 44.7578V45.4434C77.3615 45.4727 77.3732 45.4873 77.3878 45.4873C77.4054 45.4873 77.4684 45.4609 77.5768 45.4082C77.8287 45.2822 78.0822 45.1606 78.337 45.0435C78.5919 44.9263 78.8029 44.8677 78.9698 44.8677C79.6466 44.8677 79.985 45.4844 79.985 46.7178L79.9454 48.001V48.2559C79.9454 48.4844 80.0597 48.6338 80.2882 48.7041C80.3849 48.7363 80.4772 48.7598 80.5651 48.7744C80.6559 48.7861 80.7145 48.7979 80.7408 48.8096C80.7701 48.8213 80.7848 48.8447 80.7848 48.8799C80.7848 48.915 80.7701 48.9355 80.7408 48.9414H78.6227C78.5934 48.9355 78.5787 48.915 78.5787 48.8799C78.5787 48.8242 78.6476 48.7861 78.7853 48.7656C79.0988 48.7217 79.2555 48.54 79.2555 48.2207C79.2789 48.0742 79.2906 47.853 79.2906 47.5571ZM82.2482 45.562C82.2306 45.562 82.2218 45.5752 82.2218 45.6016V48.0273C82.2218 48.2031 82.2599 48.3408 82.3361 48.4404C82.4152 48.54 82.5148 48.5898 82.6349 48.5898C82.755 48.5898 82.859 48.5708 82.9469 48.5327C83.0377 48.4917 83.1154 48.4478 83.1798 48.4009C83.2472 48.354 83.3073 48.3115 83.36 48.2734C83.4127 48.2324 83.4596 48.2119 83.5006 48.2119C83.5416 48.2119 83.5621 48.2222 83.5621 48.2427C83.5621 48.313 83.5548 48.3584 83.5402 48.3789C83.1886 48.833 82.8488 49.0601 82.5206 49.0601C82.1954 49.0601 81.9493 48.9575 81.7823 48.7524C81.6183 48.5444 81.5363 48.2969 81.5363 48.0098V45.562H81.2067C81.1246 45.562 81.0807 45.5356 81.0748 45.4829C81.0719 45.4302 81.0807 45.3965 81.1012 45.3818C81.2565 45.2822 81.4703 45.1035 81.7428 44.8457C81.7721 44.8135 81.8116 44.7651 81.8615 44.7007C81.9113 44.6362 81.983 44.5483 82.0768 44.437C82.1735 44.3257 82.2467 44.27 82.2965 44.27C82.3463 44.27 82.3712 44.2905 82.3712 44.3315C82.3712 44.3374 82.3214 44.5293 82.2218 44.9072C82.2218 44.96 82.2452 44.9878 82.2921 44.9907H83.4127C83.5416 44.9907 83.6061 45.1724 83.6061 45.5356C83.6061 45.5532 83.5944 45.562 83.5709 45.562H82.2482ZM89.8947 45.395C89.8947 45.6001 89.776 45.7026 89.5387 45.7026C89.4186 45.7026 89.316 45.6689 89.2311 45.6016C89.149 45.5312 89.0846 45.4727 89.0377 45.4258C88.9938 45.376 88.9469 45.3306 88.8971 45.2896C88.6862 45.1167 88.4283 45.0977 88.1237 45.2324C87.8219 45.3672 87.589 45.6543 87.4249 46.0938C87.3341 46.3369 87.2887 46.5786 87.2887 46.8188C87.2887 47.3345 87.4059 47.7563 87.6403 48.0845C87.8746 48.4097 88.2335 48.5723 88.7169 48.5723C89.0773 48.5723 89.401 48.4111 89.6881 48.0889C89.776 47.9922 89.8287 47.9438 89.8463 47.9438C89.8639 47.9438 89.8829 47.9526 89.9034 47.9702C89.924 47.9878 89.9342 48.0142 89.9342 48.0493C89.9342 48.0815 89.9254 48.1064 89.9078 48.124C89.4596 48.748 88.8956 49.0601 88.2159 49.0601C87.7238 49.0601 87.3195 48.877 87.0031 48.5107C86.6896 48.1445 86.5328 47.7256 86.5328 47.2539C86.5358 46.3809 86.7467 45.7524 87.1656 45.3687C87.5348 45.0317 88.0607 44.8633 88.7433 44.8633C89.1652 44.8633 89.4449 44.9058 89.5826 44.9907C89.7203 45.0757 89.817 45.1826 89.8727 45.3115C89.8873 45.3408 89.8947 45.3687 89.8947 45.395ZM91.257 46.6255C91.2072 46.6255 91.1823 46.7324 91.1823 46.9463C91.1823 47.4004 91.317 47.7812 91.5865 48.0889C91.8561 48.3965 92.1901 48.5503 92.5885 48.5503C92.9899 48.5503 93.3751 48.3774 93.7443 48.0317C93.7501 48.0259 93.7574 48.0229 93.7662 48.0229H93.7882C93.8058 48.0229 93.8219 48.0376 93.8365 48.0669C93.8541 48.0933 93.8702 48.1108 93.8849 48.1196C93.545 48.5327 93.1451 48.8184 92.6852 48.9766C92.527 49.0322 92.3483 49.0601 92.149 49.0601C91.9498 49.0601 91.7477 49.0059 91.5426 48.8975C91.3375 48.7861 91.1617 48.6411 91.0153 48.4624C90.7047 48.0903 90.5494 47.6274 90.5494 47.0737C90.5494 46.5171 90.7179 46.0103 91.0548 45.5532C91.3947 45.0962 91.8605 44.8677 92.4523 44.8677C92.8771 44.8677 93.2242 45.0581 93.4938 45.439C93.7633 45.8169 93.8981 46.1494 93.8981 46.4365C93.8981 46.5625 93.8673 46.6255 93.8058 46.6255H91.257ZM91.3053 46.2036C91.3053 46.2593 91.3317 46.2871 91.3844 46.2871H93.0411C93.1173 46.2871 93.1554 46.2417 93.1554 46.1509C93.1554 45.9399 93.0602 45.7246 92.8698 45.5049C92.6823 45.2822 92.4757 45.1709 92.2501 45.1709C92.0304 45.1709 91.8297 45.2705 91.6481 45.4697C91.4694 45.6689 91.3551 45.896 91.3053 46.1509V46.2036ZM100.503 45.395C100.503 45.6001 100.384 45.7026 100.147 45.7026C100.027 45.7026 99.9244 45.6689 99.8395 45.6016C99.7574 45.5312 99.693 45.4727 99.6461 45.4258C99.6022 45.376 99.5553 45.3306 99.5055 45.2896C99.2946 45.1167 99.0367 45.0977 98.7321 45.2324C98.4303 45.3672 98.1974 45.6543 98.0333 46.0938C97.9425 46.3369 97.8971 46.5786 97.8971 46.8188C97.8971 47.3345 98.0143 47.7563 98.2487 48.0845C98.483 48.4097 98.8419 48.5723 99.3253 48.5723C99.6857 48.5723 100.009 48.4111 100.297 48.0889C100.384 47.9922 100.437 47.9438 100.455 47.9438C100.472 47.9438 100.491 47.9526 100.512 47.9702C100.532 47.9878 100.543 48.0142 100.543 48.0493C100.543 48.0815 100.534 48.1064 100.516 48.124C100.068 48.748 99.504 49.0601 98.8243 49.0601C98.3322 49.0601 97.9279 48.877 97.6115 48.5107C97.298 48.1445 97.1412 47.7256 97.1412 47.2539C97.1442 46.3809 97.3551 45.7524 97.774 45.3687C98.1432 45.0317 98.6691 44.8633 99.3517 44.8633C99.7736 44.8633 100.053 44.9058 100.191 44.9907C100.329 45.0757 100.425 45.1826 100.481 45.3115C100.496 45.3408 100.503 45.3687 100.503 45.395ZM103.874 48.2163C103.874 48.2925 103.909 48.354 103.979 48.4009C104.052 48.4448 104.136 48.4668 104.23 48.4668C104.323 48.4668 104.401 48.4434 104.463 48.3965C104.527 48.3467 104.571 48.3218 104.594 48.3218C104.618 48.3218 104.63 48.354 104.63 48.4185C104.63 48.48 104.6 48.5327 104.542 48.5767C104.102 48.8989 103.805 49.0601 103.65 49.0601C103.462 49.0601 103.31 48.8652 103.193 48.4756C103.184 48.4463 103.176 48.4331 103.171 48.436C102.807 48.7085 102.579 48.8726 102.485 48.9282C102.245 49.0659 102.003 49.0879 101.76 48.9941C101.52 48.9004 101.345 48.7451 101.237 48.5283C101.184 48.417 101.158 48.2983 101.158 48.1724C101.158 47.9233 101.25 47.7256 101.435 47.5791C101.619 47.4326 101.971 47.292 102.489 47.1572C102.665 47.1104 102.822 47.0503 102.96 46.9771C103.097 46.9038 103.169 46.8569 103.175 46.8364C103.184 46.8159 103.188 46.7969 103.188 46.7793V45.9355C103.188 45.6045 103.059 45.3716 102.801 45.2368C102.716 45.1929 102.614 45.1709 102.494 45.1709C102.377 45.1709 102.256 45.2178 102.133 45.3115C102.013 45.4053 101.953 45.5386 101.953 45.7114L101.975 45.8828C101.958 45.918 101.852 45.9766 101.659 46.0586C101.465 46.1406 101.354 46.1846 101.325 46.1904C101.278 46.1904 101.255 46.1348 101.255 46.0234C101.255 45.9092 101.288 45.7832 101.356 45.6455C101.423 45.5078 101.518 45.3818 101.641 45.2676C101.928 45.001 102.256 44.8677 102.626 44.8677C102.995 44.8677 103.295 44.9702 103.526 45.1753C103.758 45.3774 103.874 45.6191 103.874 45.9004V48.2163ZM101.848 48.0889C101.848 48.2295 101.902 48.3525 102.01 48.458C102.119 48.5605 102.242 48.6118 102.38 48.6118C102.52 48.6118 102.69 48.5532 102.889 48.436C103.089 48.3159 103.188 48.1929 103.188 48.0669V47.1748C103.188 47.1426 103.181 47.1265 103.166 47.1265C103.151 47.1265 103.141 47.1279 103.135 47.1309L102.116 47.6055C102.01 47.6816 101.939 47.7461 101.901 47.7988C101.865 47.8516 101.848 47.9482 101.848 48.0889ZM107.723 45.7905C107.688 45.7847 107.637 45.7656 107.569 45.7334C107.326 45.6221 107.136 45.5664 106.998 45.5664C106.86 45.5664 106.715 45.6528 106.563 45.8257C106.414 45.9956 106.339 46.1494 106.339 46.2871V48.2734C106.339 48.4932 106.466 48.6396 106.721 48.7129C106.833 48.7422 106.937 48.7642 107.033 48.7788C107.13 48.7905 107.192 48.8022 107.218 48.814C107.247 48.8257 107.262 48.8491 107.262 48.8843C107.262 48.9165 107.247 48.9355 107.218 48.9414H105.016C104.987 48.9355 104.972 48.915 104.972 48.8799C104.972 48.8271 105.041 48.792 105.179 48.7744C105.495 48.7275 105.653 48.5605 105.653 48.2734V45.9487C105.653 45.8257 105.586 45.7407 105.451 45.6938C105.393 45.6733 105.33 45.6572 105.262 45.6455C105.195 45.6309 105.141 45.6177 105.1 45.606C105.062 45.5942 105.037 45.584 105.025 45.5752C105.016 45.5635 105.012 45.5415 105.012 45.5093C105.012 45.4741 105.034 45.4448 105.078 45.4214L106.198 44.894C106.234 44.8765 106.255 44.8677 106.264 44.8677C106.314 44.8677 106.339 44.9028 106.339 44.9731V45.6851C106.339 45.7202 106.348 45.7378 106.365 45.7378C106.389 45.7378 106.449 45.6689 106.546 45.5312C106.824 45.1416 107.054 44.9468 107.235 44.9468C107.338 44.9468 107.495 44.9878 107.706 45.0698C107.92 45.1519 108.026 45.2207 108.026 45.2764C108.026 45.3438 107.993 45.4463 107.925 45.584C107.858 45.7217 107.791 45.7905 107.723 45.7905ZM111.01 45.7905C110.975 45.7847 110.924 45.7656 110.857 45.7334C110.613 45.6221 110.423 45.5664 110.285 45.5664C110.148 45.5664 110.003 45.6528 109.85 45.8257C109.701 45.9956 109.626 46.1494 109.626 46.2871V48.2734C109.626 48.4932 109.754 48.6396 110.008 48.7129C110.12 48.7422 110.224 48.7642 110.32 48.7788C110.417 48.7905 110.479 48.8022 110.505 48.814C110.534 48.8257 110.549 48.8491 110.549 48.8843C110.549 48.9165 110.534 48.9355 110.505 48.9414H108.303C108.274 48.9355 108.259 48.915 108.259 48.8799C108.259 48.8271 108.328 48.792 108.466 48.7744C108.782 48.7275 108.941 48.5605 108.941 48.2734V45.9487C108.941 45.8257 108.873 45.7407 108.738 45.6938C108.68 45.6733 108.617 45.6572 108.549 45.6455C108.482 45.6309 108.428 45.6177 108.387 45.606C108.349 45.5942 108.324 45.584 108.312 45.5752C108.303 45.5635 108.299 45.5415 108.299 45.5093C108.299 45.4741 108.321 45.4448 108.365 45.4214L109.485 44.894C109.521 44.8765 109.543 44.8677 109.551 44.8677C109.601 44.8677 109.626 44.9028 109.626 44.9731V45.6851C109.626 45.7202 109.635 45.7378 109.652 45.7378C109.676 45.7378 109.736 45.6689 109.833 45.5312C110.111 45.1416 110.341 44.9468 110.523 44.9468C110.625 44.9468 110.782 44.9878 110.993 45.0698C111.207 45.1519 111.314 45.2207 111.314 45.2764C111.314 45.3438 111.28 45.4463 111.213 45.584C111.145 45.7217 111.078 45.7905 111.01 45.7905ZM112.333 46.6255C112.283 46.6255 112.258 46.7324 112.258 46.9463C112.258 47.4004 112.393 47.7812 112.663 48.0889C112.932 48.3965 113.266 48.5503 113.665 48.5503C114.066 48.5503 114.451 48.3774 114.82 48.0317C114.826 48.0259 114.834 48.0229 114.842 48.0229H114.864C114.882 48.0229 114.898 48.0376 114.913 48.0669C114.93 48.0933 114.946 48.1108 114.961 48.1196C114.621 48.5327 114.221 48.8184 113.761 48.9766C113.603 49.0322 113.424 49.0601 113.225 49.0601C113.026 49.0601 112.824 49.0059 112.619 48.8975C112.414 48.7861 112.238 48.6411 112.091 48.4624C111.781 48.0903 111.626 47.6274 111.626 47.0737C111.626 46.5171 111.794 46.0103 112.131 45.5532C112.471 45.0962 112.937 44.8677 113.528 44.8677C113.953 44.8677 114.3 45.0581 114.57 45.439C114.839 45.8169 114.974 46.1494 114.974 46.4365C114.974 46.5625 114.943 46.6255 114.882 46.6255H112.333ZM112.381 46.2036C112.381 46.2593 112.408 46.2871 112.461 46.2871H114.117C114.193 46.2871 114.232 46.2417 114.232 46.1509C114.232 45.9399 114.136 45.7246 113.946 45.5049C113.758 45.2822 113.552 45.1709 113.326 45.1709C113.107 45.1709 112.906 45.2705 112.724 45.4697C112.546 45.6689 112.431 45.896 112.381 46.1509V46.2036ZM112.909 44.125C112.897 44.1133 112.891 44.1045 112.891 44.0986C112.891 44.0928 112.897 44.084 112.909 44.0723L113.845 42.7759C113.95 42.6323 114.054 42.5605 114.157 42.5605C114.259 42.5605 114.34 42.5942 114.399 42.6616C114.46 42.7261 114.491 42.814 114.491 42.9253C114.491 43.0366 114.41 43.1611 114.249 43.2988L113.067 44.2524C113.052 44.2612 113.041 44.2656 113.032 44.2656C113.023 44.2656 113.014 44.2612 113.005 44.2524L112.909 44.125ZM121.896 44.8325C121.913 44.8325 121.922 44.8413 121.922 44.8589V50.998C121.922 51.2852 122.08 51.4521 122.397 51.499C122.534 51.5166 122.603 51.5474 122.603 51.5913C122.603 51.6353 122.589 51.6602 122.559 51.666H120.204C120.174 51.6602 120.16 51.6396 120.16 51.6045C120.16 51.5723 120.173 51.5503 120.199 51.5386C120.229 51.5269 120.273 51.5166 120.331 51.5078C120.393 51.502 120.462 51.4932 120.538 51.4814C121.004 51.4111 121.236 51.25 121.236 50.998V48.502C121.236 48.4844 121.229 48.4756 121.214 48.4756C121.203 48.4756 121.093 48.5356 120.885 48.6558C120.677 48.7759 120.488 48.8726 120.318 48.9458C120.151 49.022 119.975 49.0601 119.791 49.0601C119.468 49.0601 119.194 48.9561 118.969 48.748C118.743 48.54 118.569 48.2808 118.446 47.9702C118.323 47.6597 118.261 47.3564 118.261 47.0605C118.261 46.4629 118.468 45.9487 118.881 45.5181C119.294 45.0845 119.792 44.8677 120.375 44.8677C120.735 44.8677 121.089 44.9614 121.434 45.1489H121.465C121.521 45.1489 121.581 45.1138 121.645 45.0435C121.71 44.9702 121.755 44.9175 121.781 44.8853C121.811 44.8501 121.834 44.8325 121.852 44.8325H121.896ZM118.925 46.9902C118.925 47.4912 119.063 47.8809 119.338 48.1592C119.616 48.4346 119.903 48.5723 120.199 48.5723C120.495 48.5723 120.772 48.4961 121.03 48.3438C121.109 48.2969 121.178 48.2441 121.236 48.1855V46.1904C121.236 45.8359 121.137 45.5693 120.938 45.3906C120.738 45.2119 120.519 45.1226 120.278 45.1226C119.851 45.1226 119.518 45.3086 119.281 45.6807C119.044 46.0498 118.925 46.4863 118.925 46.9902ZM125.952 48.5547C125.937 48.5049 125.918 48.4888 125.895 48.5063C125.871 48.521 125.776 48.5708 125.609 48.6558C125.061 48.9282 124.604 49.0645 124.238 49.0645C123.872 49.0645 123.608 48.9473 123.447 48.7129C123.388 48.625 123.359 48.5166 123.359 48.3877V45.707C123.35 45.6221 123.312 45.5488 123.245 45.4873C123.154 45.4111 123.059 45.3701 122.959 45.3643C122.862 45.3584 122.814 45.3291 122.814 45.2764C122.814 45.2207 122.838 45.187 122.884 45.1753L123.891 44.8853C123.926 44.8735 123.96 44.8677 123.992 44.8677C124.027 44.8677 124.045 44.8926 124.045 44.9424V47.8911C124.045 48.0962 124.135 48.2544 124.317 48.3657C124.499 48.4771 124.73 48.5327 125.011 48.5327C125.296 48.5327 125.55 48.4463 125.776 48.2734C125.846 48.2178 125.905 48.1562 125.952 48.0889V45.707C125.943 45.6221 125.905 45.5488 125.838 45.4873C125.747 45.4111 125.651 45.3701 125.552 45.3643C125.455 45.3584 125.407 45.3291 125.407 45.2764C125.407 45.2207 125.43 45.187 125.477 45.1753L126.484 44.8853C126.519 44.8735 126.552 44.8677 126.585 44.8677C126.62 44.8677 126.637 44.897 126.637 44.9556V48.0757C126.652 48.2046 126.689 48.2969 126.747 48.3525C126.806 48.4082 126.901 48.436 127.033 48.436L127.288 48.4185C127.305 48.4185 127.314 48.436 127.314 48.4712C127.314 48.5034 127.292 48.5298 127.248 48.5503L126.079 49.0337C126.044 49.0513 126.013 49.0601 125.987 49.0601C125.964 49.0601 125.952 49.0234 125.952 48.9502V48.5547ZM128.593 46.6255C128.543 46.6255 128.518 46.7324 128.518 46.9463C128.518 47.4004 128.653 47.7812 128.922 48.0889C129.192 48.3965 129.526 48.5503 129.924 48.5503C130.326 48.5503 130.711 48.3774 131.08 48.0317C131.086 48.0259 131.093 48.0229 131.102 48.0229H131.124C131.142 48.0229 131.158 48.0376 131.172 48.0669C131.19 48.0933 131.206 48.1108 131.221 48.1196C130.881 48.5327 130.481 48.8184 130.021 48.9766C129.863 49.0322 129.684 49.0601 129.485 49.0601C129.286 49.0601 129.084 49.0059 128.879 48.8975C128.673 48.7861 128.498 48.6411 128.351 48.4624C128.041 48.0903 127.885 47.6274 127.885 47.0737C127.885 46.5171 128.054 46.0103 128.391 45.5532C128.731 45.0962 129.196 44.8677 129.788 44.8677C130.213 44.8677 130.56 45.0581 130.83 45.439C131.099 45.8169 131.234 46.1494 131.234 46.4365C131.234 46.5625 131.203 46.6255 131.142 46.6255H128.593ZM128.641 46.2036C128.641 46.2593 128.668 46.2871 128.72 46.2871H130.377C130.453 46.2871 130.491 46.2417 130.491 46.1509C130.491 45.9399 130.396 45.7246 130.206 45.5049C130.018 45.2822 129.812 45.1709 129.586 45.1709C129.366 45.1709 129.166 45.2705 128.984 45.4697C128.805 45.6689 128.691 45.896 128.641 46.1509V46.2036ZM62.6573 56.9863C62.6896 56.9951 62.7057 57.0156 62.7057 57.0479C62.7057 57.0801 62.7013 57.1035 62.6925 57.1182C62.6837 57.1328 62.6193 57.1489 62.4991 57.1665C62.379 57.1841 62.2926 57.2192 62.2399 57.272C62.1901 57.3218 62.1447 57.3789 62.1036 57.4434C62.0656 57.5078 62.0319 57.5752 62.0026 57.6455C61.9733 57.7129 61.9454 57.7744 61.9191 57.8301L60.7194 60.9326C60.6842 61.0176 60.652 61.0601 60.6227 61.0601H60.2755C60.2462 61.0601 60.214 61.0146 60.1788 60.9238L59.0143 57.7729C58.9059 57.4771 58.7198 57.2866 58.4562 57.2017C58.4357 57.1958 58.4108 57.1914 58.3815 57.1885C58.2584 57.1768 58.1969 57.1401 58.1969 57.0786C58.1969 57.0171 58.2321 56.9863 58.3024 56.9863H60.2579C60.2814 56.9863 60.2931 57.0098 60.2931 57.0566C60.2931 57.1006 60.277 57.1299 60.2448 57.1445C60.192 57.165 60.0983 57.1738 59.9635 57.1709C59.7438 57.165 59.6339 57.2529 59.6339 57.4346L59.6603 57.54L60.5524 59.979C60.611 60.1284 60.6696 60.124 60.7281 59.9658C60.734 59.9512 60.7721 59.856 60.8424 59.6802C61.2379 58.6694 61.4591 58.085 61.506 57.9268C61.5558 57.7686 61.5807 57.6499 61.5807 57.5708C61.5807 57.4917 61.5382 57.4097 61.4532 57.3247C61.3683 57.2368 61.254 57.1929 61.1105 57.1929C60.9669 57.1929 60.8951 57.1489 60.8951 57.061C60.8951 57.0112 60.9274 56.9863 60.9918 56.9863H62.6573ZM63.0792 58.9683C63.0792 58.3911 63.2828 57.896 63.6901 57.4829C64.1002 57.0669 64.5909 56.8589 65.1622 56.8589C65.7335 56.8589 66.2301 57.061 66.652 57.4653C67.0739 57.8667 67.2848 58.3633 67.2848 58.9551C67.2848 59.5469 67.0841 60.0464 66.6827 60.4536C66.2843 60.8579 65.7833 61.0601 65.1798 61.0601C64.5763 61.0601 64.0753 60.855 63.6769 60.4448C63.2784 60.0347 63.0792 59.5425 63.0792 58.9683ZM64.1735 60.0977C64.4606 60.5811 64.8517 60.8228 65.3468 60.8228C65.7306 60.8228 66.0236 60.6689 66.2257 60.3613C66.4308 60.0537 66.5333 59.6758 66.5333 59.2275C66.5333 58.7793 66.3898 58.3193 66.1027 57.8477C65.8185 57.376 65.4347 57.1401 64.9513 57.1401C64.5968 57.1401 64.317 57.2939 64.1119 57.6016C63.9098 57.9062 63.8087 58.2944 63.8087 58.7661C63.8087 59.2349 63.9303 59.6787 64.1735 60.0977ZM67.9264 60.9414C67.8971 60.9355 67.8824 60.915 67.8824 60.8799C67.8824 60.8271 67.9513 60.792 68.089 60.7744C68.4054 60.7275 68.5636 60.5605 68.5636 60.2734V57.9487C68.5636 57.8257 68.4962 57.7407 68.3615 57.6938C68.3029 57.6733 68.2399 57.6572 68.1725 57.6455C68.1051 57.6309 68.0509 57.6177 68.0099 57.606C67.9718 57.5942 67.9469 57.584 67.9352 57.5752C67.9264 57.5635 67.922 57.5415 67.922 57.5093C67.922 57.4741 67.944 57.4448 67.9879 57.4214L69.1085 56.894C69.1437 56.8765 69.1656 56.8677 69.1744 56.8677C69.2242 56.8677 69.2491 56.9028 69.2491 56.9731V60.2734C69.2491 60.5605 69.4073 60.7275 69.7238 60.7744C69.8615 60.792 69.9303 60.8228 69.9303 60.8667C69.9303 60.9106 69.9156 60.9355 69.8864 60.9414H67.9264ZM68.8405 55.6328C68.7203 55.6328 68.6134 55.5947 68.5197 55.5186C68.4288 55.4424 68.3834 55.3369 68.3834 55.2021C68.3834 55.0645 68.4274 54.9561 68.5153 54.877C68.6031 54.7979 68.7072 54.7583 68.8273 54.7583C68.9503 54.7583 69.0529 54.8052 69.1349 54.8989C69.2198 54.9927 69.2623 55.0938 69.2623 55.2021C69.2623 55.3105 69.2228 55.4102 69.1437 55.501C69.0646 55.5889 68.9635 55.6328 68.8405 55.6328ZM72.589 57.9355C72.589 58 72.5641 58.0322 72.5143 58.0322C72.4674 58.0322 72.4308 57.9971 72.4044 57.9268C72.3341 57.7334 72.2286 57.562 72.088 57.4126C71.9503 57.2632 71.7789 57.1885 71.5739 57.1885C71.3043 57.1885 71.1227 57.3232 71.0289 57.5928C70.9996 57.6836 70.985 57.7773 70.985 57.874C70.985 57.9707 71.0465 58.0791 71.1696 58.1992C71.2926 58.3164 71.4948 58.457 71.776 58.6211C72.0573 58.7852 72.2623 58.9243 72.3912 59.0386C72.6842 59.2993 72.8307 59.6011 72.8307 59.9438C72.8307 60.2866 72.7047 60.5591 72.4528 60.7612C72.2008 60.9604 71.9078 61.0601 71.5739 61.0601C71.3951 61.0601 71.2325 61.0352 71.0861 60.9854C70.9425 60.9385 70.859 60.915 70.8356 60.915C70.8151 60.915 70.7799 60.9385 70.7301 60.9854C70.6832 61.0352 70.6451 61.0601 70.6158 61.0601H70.5411C70.5236 61.0601 70.5016 60.9019 70.4752 60.5854C70.4489 60.269 70.4357 60.0815 70.4357 60.0229C70.4357 59.9644 70.4401 59.9321 70.4489 59.9263C70.4606 59.9204 70.4781 59.9175 70.5016 59.9175C70.525 59.9175 70.5441 59.9248 70.5587 59.9395C70.5763 59.9541 70.5909 59.9731 70.6027 59.9966C70.6144 60.0171 70.6232 60.0391 70.629 60.0625C70.6378 60.0859 70.6569 60.1299 70.6862 60.1943C70.8854 60.6191 71.193 60.8315 71.609 60.8315C71.7936 60.8315 71.9415 60.7642 72.0529 60.6294C72.1642 60.4917 72.2198 60.3394 72.2198 60.1724C72.2198 60.0054 72.1759 59.8647 72.088 59.7505C72.0001 59.6362 71.8903 59.5322 71.7584 59.4385C71.6295 59.3447 71.4889 59.2539 71.3365 59.166C70.7448 58.8203 70.4489 58.438 70.4489 58.019C70.4489 57.7056 70.5836 57.436 70.8531 57.2104C71.1227 56.9819 71.3995 56.8677 71.6837 56.8677C71.9679 56.8677 72.1774 56.8984 72.3121 56.96C72.4498 57.0215 72.5304 57.0742 72.5538 57.1182C72.5773 57.1592 72.589 57.2969 72.589 57.5312V57.9355ZM76.9572 57.562C76.9396 57.562 76.9308 57.5752 76.9308 57.6016V60.0273C76.9308 60.2031 76.9689 60.3408 77.045 60.4404C77.1241 60.54 77.2238 60.5898 77.3439 60.5898C77.464 60.5898 77.568 60.5708 77.6559 60.5327C77.7467 60.4917 77.8243 60.4478 77.8888 60.4009C77.9562 60.354 78.0162 60.3115 78.069 60.2734C78.1217 60.2324 78.1686 60.2119 78.2096 60.2119C78.2506 60.2119 78.2711 60.2222 78.2711 60.2427C78.2711 60.313 78.2638 60.3584 78.2491 60.3789C77.8976 60.833 77.5577 61.0601 77.2296 61.0601C76.9044 61.0601 76.6583 60.9575 76.4913 60.7524C76.3273 60.5444 76.2452 60.2969 76.2452 60.0098V57.562H75.9156C75.8336 57.562 75.7897 57.5356 75.7838 57.4829C75.7809 57.4302 75.7897 57.3965 75.8102 57.3818C75.9655 57.2822 76.1793 57.1035 76.4518 56.8457C76.4811 56.8135 76.5206 56.7651 76.5704 56.7007C76.6202 56.6362 76.692 56.5483 76.7858 56.437C76.8824 56.3257 76.9557 56.27 77.0055 56.27C77.0553 56.27 77.0802 56.2905 77.0802 56.3315C77.0802 56.3374 77.0304 56.5293 76.9308 56.9072C76.9308 56.96 76.9542 56.9878 77.0011 56.9907H78.1217C78.2506 56.9907 78.3151 57.1724 78.3151 57.5356C78.3151 57.5532 78.3033 57.562 78.2799 57.562H76.9572ZM81.7428 60.5547C81.7281 60.5049 81.7091 60.4888 81.6857 60.5063C81.6622 60.521 81.567 60.5708 81.4 60.6558C80.8522 60.9282 80.3951 61.0645 80.0289 61.0645C79.6627 61.0645 79.399 60.9473 79.2379 60.7129C79.1793 60.625 79.15 60.5166 79.15 60.3877V57.707C79.1412 57.6221 79.1031 57.5488 79.0358 57.4873C78.9449 57.4111 78.8497 57.3701 78.7501 57.3643C78.6534 57.3584 78.6051 57.3291 78.6051 57.2764C78.6051 57.2207 78.6285 57.187 78.6754 57.1753L79.6818 56.8853C79.7169 56.8735 79.7506 56.8677 79.7828 56.8677C79.818 56.8677 79.8356 56.8926 79.8356 56.9424V59.8911C79.8356 60.0962 79.9264 60.2544 80.108 60.3657C80.2897 60.4771 80.5211 60.5327 80.8024 60.5327C81.0865 60.5327 81.3414 60.4463 81.567 60.2734C81.6373 60.2178 81.6959 60.1562 81.7428 60.0889V57.707C81.734 57.6221 81.6959 57.5488 81.6285 57.4873C81.5377 57.4111 81.4425 57.3701 81.3429 57.3643C81.2462 57.3584 81.1979 57.3291 81.1979 57.2764C81.1979 57.2207 81.2213 57.187 81.2682 57.1753L82.2745 56.8853C82.3097 56.8735 82.3434 56.8677 82.3756 56.8677C82.4108 56.8677 82.4283 56.897 82.4283 56.9556V60.0757C82.443 60.2046 82.4796 60.2969 82.5382 60.3525C82.5968 60.4082 82.692 60.436 82.8239 60.436L83.0787 60.4185C83.0963 60.4185 83.1051 60.436 83.1051 60.4712C83.1051 60.5034 83.0831 60.5298 83.0392 60.5503L81.8702 61.0337C81.8351 61.0513 81.8043 61.0601 81.778 61.0601C81.7545 61.0601 81.7428 61.0234 81.7428 60.9502V60.5547ZM87.0602 59.311C87.0602 59.3491 87.0294 59.3682 86.9679 59.3682C86.9064 59.3682 86.8126 59.229 86.6866 58.9507C86.5636 58.6724 86.5006 58.4673 86.4977 58.3354C86.4948 58.2036 86.5094 58.0938 86.5416 58.0059C86.5768 57.915 86.6237 57.8389 86.6823 57.7773C86.7408 57.7129 86.8097 57.6587 86.8888 57.6147C86.9679 57.5708 87.0514 57.5312 87.1393 57.4961C87.2272 57.4609 87.318 57.4287 87.4117 57.3994C87.5084 57.3672 87.6022 57.332 87.693 57.2939C87.8922 57.2119 88.068 57.0771 88.2203 56.8896C88.3727 56.6992 88.4489 56.5059 88.4489 56.3096C88.4489 55.9521 88.3141 55.7178 88.0446 55.6064C87.775 55.4922 87.3121 55.4351 86.6559 55.4351C86.4508 55.4233 86.3073 55.3633 86.2252 55.2549C86.1959 55.2139 86.1813 55.1626 86.1813 55.1011C86.1813 54.8491 86.4288 54.7231 86.924 54.7231C87.422 54.7231 87.8351 54.8843 88.1632 55.2065C88.4913 55.5288 88.6554 55.9419 88.6554 56.4458C88.6554 56.9468 88.4445 57.3745 88.0226 57.729C87.8234 57.896 87.6388 58.0073 87.4689 58.063C87.299 58.1157 87.173 58.1641 87.0909 58.208C86.8976 58.3076 86.8009 58.4453 86.8009 58.6211C86.8009 58.7119 86.8375 58.8291 86.9108 58.9727C86.9869 59.1162 87.0367 59.229 87.0602 59.311ZM86.4581 60.5459C86.4581 60.4082 86.5079 60.2896 86.6075 60.1899C86.7072 60.0903 86.8258 60.0405 86.9635 60.0405C87.0983 60.0405 87.2155 60.0903 87.3151 60.1899C87.4147 60.2896 87.4645 60.4082 87.4645 60.5459C87.4645 60.6836 87.4147 60.8037 87.3151 60.9062C87.2184 61.0088 87.1012 61.0601 86.9635 61.0601C86.8229 61.0601 86.7028 61.0088 86.6031 60.9062C86.5065 60.8037 86.4581 60.6836 86.4581 60.5459Z" fill="#EFB85F"/>
<path d="M17.5002 10L18.696 11.9748L21 13L18.696 14.0249L17.5002 16L16.304 14.0249L14 13L16.304 11.9748L17.5002 10Z" fill="#EFB85F"/>
<path d="M17.5002 86L18.696 87.9748L21 89L18.696 90.0249L17.5002 92L16.304 90.0249L14 89L16.304 87.9748L17.5002 86Z" fill="#EFB85F"/>
<path d="M124.5 84L125.696 85.9748L128 87L125.696 88.0249L124.5 90L123.304 88.0249L121 87L123.304 85.9748L124.5 84Z" fill="#EFB85F"/>
<path d="M80.5002 90L81.696 91.9748L84 93L81.696 94.0249L80.5002 96L79.304 94.0249L77 93L79.304 91.9748L80.5002 90Z" fill="#EFB85F"/>
<path d="M120.5 7L121.696 8.97475L124 10L121.696 11.0249L120.5 13L119.304 11.0249L117 10L119.304 8.97475L120.5 7Z" fill="#EFB85F"/>
<path d="M95.125 16.6259C95.1509 16.3615 95.1942 15.7335 95.2288 15.2377C95.2634 14.6647 95.324 14.3011 95.3932 14.2681C95.4538 14.235 95.7307 14.4113 95.999 14.6537C96.2759 14.9071 96.5182 15.0834 96.5441 15.0504C96.5615 15.0283 96.397 14.6757 96.1807 14.2791C95.9038 13.7943 95.8086 13.5519 95.8865 13.5189C95.9471 13.4968 96.3884 13.4197 96.8643 13.3426C98.3873 13.1222 98.3787 13.001 96.8384 12.7917C96.3019 12.7145 95.8519 12.6154 95.8346 12.5823C95.8086 12.5382 95.973 12.2187 96.1807 11.8661C96.3884 11.5025 96.5441 11.183 96.5182 11.15C96.4922 11.1279 96.2326 11.3152 95.9471 11.5687C95.6528 11.8331 95.3932 11.9984 95.3586 11.9543C95.3154 11.8992 95.2461 11.2381 95.1856 10.4779C95.0298 8.49462 94.9606 8.50564 94.7962 10.5219C94.7356 11.2822 94.6664 11.9433 94.6317 11.9763C94.6058 12.0094 94.3462 11.8331 94.052 11.5797C93.7664 11.3152 93.5155 11.1279 93.4895 11.161C93.4722 11.183 93.602 11.4805 93.7924 11.8111C93.9827 12.1306 94.1385 12.4611 94.1385 12.5272C94.1385 12.6044 93.7664 12.7035 93.1607 12.7917C91.6117 13.001 91.6117 13.1222 93.1693 13.3536C93.7577 13.4417 94.1385 13.5519 94.1385 13.618C94.1385 13.6841 93.9827 14.0147 93.7924 14.3342C93.3857 15.0283 93.351 15.2046 93.6799 14.9292C93.8183 14.83 94.0693 14.6096 94.251 14.4554C94.6664 14.1138 94.701 14.1689 94.7789 15.3589C94.8913 17.1107 95.0211 17.5735 95.125 16.6259Z" fill="#EFB85F"/>
<path d="M39.125 89.6259C39.1509 89.3615 39.1942 88.7335 39.2288 88.2377C39.2634 87.6647 39.324 87.3011 39.3932 87.2681C39.4538 87.235 39.7307 87.4113 39.999 87.6537C40.2759 87.9071 40.5182 88.0834 40.5441 88.0504C40.5615 88.0283 40.397 87.6757 40.1807 87.2791C39.9038 86.7943 39.8086 86.5519 39.8865 86.5189C39.9471 86.4968 40.3884 86.4197 40.8643 86.3426C42.3873 86.1222 42.3787 86.001 40.8384 85.7917C40.3019 85.7145 39.8519 85.6154 39.8346 85.5823C39.8086 85.5382 39.973 85.2187 40.1807 84.8661C40.3884 84.5025 40.5441 84.183 40.5182 84.15C40.4922 84.1279 40.2326 84.3152 39.9471 84.5687C39.6528 84.8331 39.3932 84.9984 39.3586 84.9543C39.3154 84.8992 39.2461 84.2381 39.1856 83.4779C39.0298 81.4946 38.9606 81.5056 38.7962 83.5219C38.7356 84.2822 38.6664 84.9433 38.6317 84.9763C38.6058 85.0094 38.3462 84.8331 38.052 84.5797C37.7664 84.3152 37.5155 84.1279 37.4895 84.161C37.4722 84.183 37.602 84.4805 37.7924 84.8111C37.9827 85.1306 38.1385 85.4611 38.1385 85.5272C38.1385 85.6044 37.7664 85.7035 37.1607 85.7917C35.6117 86.001 35.6117 86.1222 37.1693 86.3536C37.7577 86.4417 38.1385 86.5519 38.1385 86.618C38.1385 86.6841 37.9827 87.0147 37.7924 87.3342C37.3857 88.0283 37.351 88.2046 37.6799 87.9292C37.8183 87.83 38.0693 87.6096 38.251 87.4554C38.6664 87.1138 38.701 87.1689 38.7789 88.3589C38.8913 90.1107 39.0211 90.5735 39.125 89.6259Z" fill="#EFB85F"/>
<path d="M110.125 99.6259C110.151 99.3615 110.194 98.7335 110.229 98.2377C110.263 97.6647 110.324 97.3011 110.393 97.2681C110.454 97.235 110.731 97.4113 110.999 97.6537C111.276 97.9071 111.518 98.0834 111.544 98.0504C111.561 98.0283 111.397 97.6757 111.181 97.2791C110.904 96.7943 110.809 96.5519 110.886 96.5189C110.947 96.4968 111.388 96.4197 111.864 96.3426C113.387 96.1222 113.379 96.001 111.838 95.7917C111.302 95.7145 110.852 95.6154 110.835 95.5823C110.809 95.5382 110.973 95.2187 111.181 94.8661C111.388 94.5025 111.544 94.183 111.518 94.15C111.492 94.1279 111.233 94.3152 110.947 94.5687C110.653 94.8331 110.393 94.9984 110.359 94.9543C110.315 94.8992 110.246 94.2381 110.186 93.4779C110.03 91.4946 109.961 91.5056 109.796 93.5219C109.736 94.2822 109.666 94.9433 109.632 94.9763C109.606 95.0094 109.346 94.8331 109.052 94.5797C108.766 94.3152 108.515 94.1279 108.489 94.161C108.472 94.183 108.602 94.4805 108.792 94.8111C108.983 95.1306 109.138 95.4611 109.138 95.5272C109.138 95.6044 108.766 95.7035 108.161 95.7917C106.612 96.001 106.612 96.1222 108.169 96.3536C108.758 96.4417 109.138 96.5519 109.138 96.618C109.138 96.6841 108.983 97.0147 108.792 97.3342C108.386 98.0283 108.351 98.2046 108.68 97.9292C108.818 97.83 109.069 97.6096 109.251 97.4554C109.666 97.1138 109.701 97.1689 109.779 98.3589C109.891 100.111 110.021 100.573 110.125 99.6259Z" fill="#EFB85F"/>
<path d="M53.125 12.6259C53.1509 12.3615 53.1942 11.7335 53.2288 11.2377C53.2634 10.6647 53.324 10.3011 53.3932 10.2681C53.4538 10.235 53.7307 10.4113 53.999 10.6537C54.2759 10.9071 54.5182 11.0834 54.5441 11.0504C54.5615 11.0283 54.397 10.6757 54.1807 10.2791C53.9038 9.7943 53.8086 9.55191 53.8865 9.51885C53.9471 9.49682 54.3884 9.41969 54.8643 9.34256C56.3873 9.1222 56.3787 9.001 54.8384 8.79166C54.3019 8.71453 53.8519 8.61537 53.8346 8.58232C53.8086 8.53825 53.973 8.21872 54.1807 7.86614C54.3884 7.50255 54.5441 7.18302 54.5182 7.14997C54.4922 7.12793 54.2326 7.31524 53.9471 7.56866C53.6528 7.83309 53.3932 7.99836 53.3586 7.95429C53.3154 7.8992 53.2461 7.23811 53.1856 6.47787C53.0298 4.49462 52.9606 4.50564 52.7962 6.52194C52.7356 7.28219 52.6664 7.94327 52.6317 7.97632C52.6058 8.00938 52.3462 7.83309 52.052 7.57967C51.7664 7.31524 51.5155 7.12793 51.4895 7.16099C51.4722 7.18302 51.602 7.48051 51.7924 7.81105C51.9827 8.13058 52.1385 8.46112 52.1385 8.52723C52.1385 8.60435 51.7664 8.70352 51.1607 8.79166C49.6117 9.001 49.6117 9.1222 51.1693 9.35358C51.7577 9.44173 52.1385 9.55191 52.1385 9.61802C52.1385 9.68412 51.9827 10.0147 51.7924 10.3342C51.3857 11.0283 51.351 11.2046 51.6799 10.9292C51.8183 10.83 52.0693 10.6096 52.251 10.4554C52.6664 10.1138 52.701 10.1689 52.7789 11.3589C52.8913 13.1107 53.0211 13.5735 53.125 12.6259Z" fill="#EFB85F"/>
<circle cx="26" cy="81" r="1" fill="#EFB85F"/>
<circle cx="57" cy="96" r="1" fill="#EFB85F"/>
<circle cx="111" cy="84" r="1" fill="#EFB85F"/>
<circle cx="139" cy="16" r="1" fill="#EFB85F"/>
<circle cx="143" cy="55" r="1" fill="#EFB85F"/>
<circle cx="139" cy="93" r="1" fill="#EFB85F"/>
<circle cx="36" cy="10" r="1" fill="#EFB85F"/>
<circle cx="75" cy="6" r="1" fill="#EFB85F"/>
<path d="M30.1536 96.762L33.0001 96.6487L30.1536 96.5354L31.0464 95.3761L30.0932 96.4619L30 93L29.9069 96.4619L28.9537 95.3761L29.8465 96.5354L27 96.6487L29.8465 96.762L28.9537 97.9212L29.9069 96.8354L30 100.297L30.0932 96.8354L31.0464 97.9212L30.1536 96.762Z" fill="#EFB85F"/>
<path d="M11.1536 76.762L14.0001 76.6487L11.1536 76.5354L12.0464 75.3761L11.0932 76.4619L11 73L10.9069 76.4619L9.95375 75.3761L10.8465 76.5354L8 76.6487L10.8465 76.762L9.95375 77.9212L10.9069 76.8354L11 80.2973L11.0932 76.8354L12.0464 77.9212L11.1536 76.762Z" fill="#EFB85F"/>
<path d="M68.1536 11.762L71.0001 11.6487L68.1536 11.5354L69.0464 10.3761L68.0932 11.4619L68 8L67.9069 11.4619L66.9537 10.3761L67.8465 11.5354L65 11.6487L67.8465 11.762L66.9537 12.9212L67.9069 11.8354L68 15.2973L68.0932 11.8354L69.0464 12.9212L68.1536 11.762Z" fill="#EFB85F"/>
<path d="M137.154 76.762L140 76.6487L137.154 76.5354L138.046 75.3761L137.093 76.4619L137 73L136.907 76.4619L135.954 75.3761L136.847 76.5354L134 76.6487L136.847 76.762L135.954 77.9212L136.907 76.8354L137 80.2973L137.093 76.8354L138.046 77.9212L137.154 76.762Z" fill="#EFB85F"/>
<path d="M129.154 95.762L132 95.6487L129.154 95.5354L130.046 94.3761L129.093 95.4619L129 92L128.907 95.4619L127.954 94.3761L128.847 95.5354L126 95.6487L128.847 95.762L127.954 96.9212L128.907 95.8354L129 99.2973L129.093 95.8354L130.046 96.9212L129.154 95.762Z" fill="#EFB85F"/>
<path d="M8.15357 18.762L11.0001 18.6487L8.15357 18.5354L9.04635 17.3761L8.09316 18.4619L8.00005 15L7.90694 18.4619L6.95375 17.3761L7.84653 18.5354L5 18.6487L7.84653 18.762L6.95375 19.9212L7.90694 18.8354L8.00005 22.2973L8.09316 18.8354L9.04635 19.9212L8.15357 18.762Z" fill="#EFB85F"/>
</svg>
