<svg width="148" height="105" viewBox="0 0 148 105" fill="none" xmlns="http://www.w3.org/2000/svg">
<rect width="147.402" height="104.882" rx="10" fill="black"/>
<path d="M24.8531 35.0811C24.8531 35.055 24.8662 35.042 24.8922 35.042H24.9996L26.567 35.0078C26.7558 35.0013 26.9609 34.998 27.1823 34.998H27.7926C28.359 34.998 28.7838 35.0192 29.067 35.0615C29.3535 35.1038 29.6334 35.1543 29.9069 35.2129C30.1836 35.2682 30.4765 35.3968 30.7858 35.5986C31.0983 35.8005 31.3684 36.0446 31.5963 36.3311C32.0781 36.943 32.319 37.6038 32.319 38.3135C32.319 39.0231 32.1334 39.6595 31.7623 40.2227C31.2285 41.0397 30.4554 41.5736 29.443 41.8242C29.1207 41.9023 28.7903 41.9414 28.4518 41.9414H24.8922C24.8662 41.9414 24.8531 41.9284 24.8531 41.9023V41.7656C24.8531 41.7396 24.8662 41.7266 24.8922 41.7266H24.9996C25.5921 41.7266 25.8883 41.5378 25.8883 41.1602V35.8086C25.8883 35.6263 25.8183 35.4896 25.6783 35.3984C25.5384 35.304 25.3805 35.2568 25.2047 35.2568H24.8922C24.8662 35.2568 24.8531 35.2438 24.8531 35.2178V35.0811ZM26.9625 35.2275C26.8811 35.2275 26.8405 35.2715 26.8405 35.3594V41.3311C26.8405 41.5719 27.0667 41.6973 27.5192 41.707C27.6526 41.7103 27.7926 41.7119 27.9391 41.7119C28.9775 41.7119 29.7929 41.4206 30.3854 40.8379C30.9811 40.2552 31.2789 39.4805 31.2789 38.5137C31.2789 37.5436 31.0039 36.7542 30.4537 36.1455C29.9069 35.5335 29.1858 35.2275 28.2906 35.2275H26.9625ZM36.1178 41.1357C36.1178 41.2204 36.1569 41.2887 36.235 41.3408C36.3164 41.3896 36.4091 41.4141 36.5133 41.4141C36.6175 41.4141 36.7037 41.388 36.7721 41.3359C36.8437 41.2806 36.8925 41.2529 36.9186 41.2529C36.9446 41.2529 36.9576 41.2887 36.9576 41.3604C36.9576 41.4287 36.9251 41.4873 36.86 41.5361C36.3717 41.8942 36.0413 42.0732 35.8688 42.0732C35.6604 42.0732 35.4912 41.8568 35.361 41.4238C35.3512 41.3913 35.3431 41.3766 35.3365 41.3799C34.9329 41.6826 34.679 41.8649 34.5748 41.9268C34.3079 42.0798 34.0393 42.1042 33.7692 42C33.5022 41.8958 33.3086 41.7233 33.1881 41.4824C33.1295 41.3587 33.1002 41.2269 33.1002 41.0869C33.1002 40.8102 33.2028 40.5905 33.4078 40.4277C33.6129 40.265 34.0035 40.1087 34.5797 39.959C34.775 39.9069 34.9492 39.8402 35.1022 39.7588C35.2552 39.6774 35.3349 39.6253 35.3414 39.6025C35.3512 39.5798 35.3561 39.5586 35.3561 39.5391V38.6016C35.3561 38.2337 35.2128 37.9749 34.9264 37.8252C34.832 37.7764 34.7181 37.752 34.5846 37.752C34.4544 37.752 34.3209 37.804 34.1842 37.9082C34.0507 38.0124 33.984 38.1605 33.984 38.3525L34.0084 38.543C33.9889 38.582 33.8717 38.6471 33.6569 38.7383C33.442 38.8294 33.3183 38.8783 33.2858 38.8848C33.2337 38.8848 33.2076 38.8229 33.2076 38.6992C33.2076 38.5723 33.2451 38.4323 33.3199 38.2793C33.3948 38.1263 33.5006 37.9863 33.6373 37.8594C33.9563 37.5632 34.3209 37.415 34.7311 37.415C35.1412 37.415 35.4749 37.529 35.7321 37.7568C35.9892 37.9814 36.1178 38.25 36.1178 38.5625V41.1357ZM33.8668 40.9941C33.8668 41.1504 33.927 41.2871 34.0475 41.4043C34.1679 41.5182 34.3046 41.5752 34.4576 41.5752C34.6139 41.5752 34.8027 41.5101 35.024 41.3799C35.2454 41.2464 35.3561 41.1097 35.3561 40.9697V39.9785C35.3561 39.9427 35.3479 39.9248 35.3317 39.9248C35.3154 39.9248 35.304 39.9264 35.2975 39.9297L34.1647 40.457C34.0475 40.5417 33.9677 40.6133 33.9254 40.6719C33.8864 40.7305 33.8668 40.8379 33.8668 40.9941ZM41.0104 40.4033L41.0006 39.373C41.0006 38.9531 40.9648 38.6585 40.8932 38.4893C40.8216 38.32 40.7304 38.193 40.6198 38.1084C40.5091 38.0205 40.3593 37.9766 40.1705 37.9766C39.985 37.9766 39.5895 38.123 38.984 38.416C38.9026 38.4648 38.8603 38.5104 38.8571 38.5527V41.1797C38.8571 41.5085 39.0328 41.6973 39.3844 41.7461C39.5374 41.7689 39.6139 41.8063 39.6139 41.8584C39.6139 41.9072 39.5976 41.9349 39.5651 41.9414H37.3873C37.3548 41.9349 37.3385 41.9121 37.3385 41.873C37.3385 41.8112 37.415 41.7689 37.568 41.7461C37.9196 41.6973 38.0953 41.5085 38.0953 41.1797V38.377C38.0953 38.2402 38.0205 38.1458 37.8707 38.0938C37.8056 38.071 37.7356 38.0531 37.6608 38.04C37.5859 38.0238 37.5257 38.0091 37.4801 37.9961C37.4378 37.9831 37.4101 37.9717 37.3971 37.9619C37.3873 37.9489 37.3824 37.9245 37.3824 37.8887C37.3824 37.8496 37.4069 37.8171 37.4557 37.791L38.7008 37.2051C38.7399 37.1855 38.7643 37.1758 38.774 37.1758C38.8294 37.1758 38.8571 37.2148 38.8571 37.293V38.0547C38.8668 38.0872 38.8798 38.1035 38.8961 38.1035C38.9156 38.1035 38.9856 38.0742 39.1061 38.0156C39.386 37.8757 39.6676 37.7406 39.9508 37.6104C40.234 37.4801 40.4684 37.415 40.6539 37.415C41.4059 37.415 41.7819 38.1003 41.7819 39.4707L41.7379 40.8965V41.1797C41.7379 41.4336 41.8649 41.5996 42.1188 41.6777C42.2262 41.7135 42.3287 41.7396 42.4264 41.7559C42.5273 41.7689 42.5924 41.7819 42.6217 41.7949C42.6543 41.8079 42.6705 41.834 42.6705 41.873C42.6705 41.9121 42.6543 41.9349 42.6217 41.9414H40.2682C40.2356 41.9349 40.2194 41.9121 40.2194 41.873C40.2194 41.8112 40.2959 41.7689 40.4489 41.7461C40.7972 41.6973 40.9713 41.4954 40.9713 41.1406C40.9974 40.9779 41.0104 40.7321 41.0104 40.4033ZM45.4781 38.6016C45.4781 38.6732 45.4505 38.709 45.3951 38.709C45.3431 38.709 45.3024 38.6699 45.2731 38.5918C45.1949 38.377 45.0778 38.1865 44.9215 38.0205C44.7685 37.8545 44.5781 37.7715 44.3502 37.7715C44.0507 37.7715 43.8489 37.9212 43.7448 38.2207C43.7122 38.3216 43.6959 38.4258 43.6959 38.5332C43.6959 38.6406 43.7643 38.7611 43.901 38.8945C44.0377 39.0247 44.2623 39.181 44.5748 39.3633C44.8873 39.5456 45.1152 39.7002 45.2584 39.8271C45.5839 40.1169 45.7467 40.4521 45.7467 40.833C45.7467 41.2139 45.6067 41.5166 45.3268 41.7412C45.0468 41.9626 44.7213 42.0732 44.3502 42.0732C44.1517 42.0732 43.971 42.0456 43.8082 41.9902C43.6487 41.9382 43.5559 41.9121 43.5299 41.9121C43.5071 41.9121 43.4681 41.9382 43.4127 41.9902C43.3606 42.0456 43.3183 42.0732 43.2858 42.0732H43.2028C43.1832 42.0732 43.1588 41.8975 43.1295 41.5459C43.1002 41.1943 43.0856 40.986 43.0856 40.9209C43.0856 40.8558 43.0905 40.82 43.1002 40.8135C43.1132 40.807 43.1328 40.8037 43.1588 40.8037C43.1849 40.8037 43.206 40.8118 43.2223 40.8281C43.2418 40.8444 43.2581 40.8656 43.2711 40.8916C43.2841 40.9144 43.2939 40.9388 43.3004 40.9648C43.3102 40.9909 43.3313 41.0397 43.3639 41.1113C43.5852 41.5833 43.927 41.8193 44.3893 41.8193C44.5944 41.8193 44.7587 41.7445 44.8824 41.5947C45.0061 41.4417 45.068 41.2725 45.068 41.0869C45.068 40.9014 45.0192 40.7451 44.9215 40.6182C44.8239 40.4912 44.7018 40.3757 44.5553 40.2715C44.4121 40.1673 44.2558 40.0664 44.0865 39.9688C43.429 39.5846 43.1002 39.1598 43.1002 38.6943C43.1002 38.346 43.25 38.0465 43.5494 37.7959C43.8489 37.542 44.1565 37.415 44.4723 37.415C44.788 37.415 45.0208 37.4492 45.1705 37.5176C45.3235 37.5859 45.413 37.6445 45.4391 37.6934C45.4651 37.7389 45.4781 37.8919 45.4781 38.1523V38.6016ZM50.9469 41.7559C51.0999 41.7754 51.1764 41.8145 51.1764 41.873C51.1764 41.9121 51.1601 41.9349 51.1276 41.9414H48.9498C48.9173 41.9349 48.901 41.9121 48.901 41.873C48.901 41.8145 48.9775 41.7754 49.1305 41.7559C49.4821 41.7038 49.6578 41.5182 49.6578 41.1992V35.1104C49.6578 34.9736 49.583 34.8792 49.4332 34.8271C49.3681 34.8044 49.2981 34.7865 49.2233 34.7734C49.1484 34.7572 49.0882 34.7425 49.0426 34.7295C49.0003 34.7165 48.9726 34.7051 48.9596 34.6953C48.9498 34.6823 48.9449 34.6579 48.9449 34.6221C48.9449 34.583 48.9694 34.5505 49.0182 34.5244L50.2633 33.9385C50.3024 33.9189 50.3268 33.9092 50.3365 33.9092C50.3919 33.9092 50.4196 33.9482 50.4196 34.0264V41.1992C50.4196 41.5182 50.5953 41.7038 50.9469 41.7559ZM52.4801 39.3682C52.4248 39.3682 52.3971 39.487 52.3971 39.7246C52.3971 40.2292 52.5468 40.6523 52.8463 40.9941C53.1458 41.3359 53.5169 41.5068 53.9596 41.5068C54.4056 41.5068 54.8336 41.3148 55.2438 40.9307C55.2503 40.9242 55.2584 40.9209 55.2682 40.9209H55.2926C55.3121 40.9209 55.33 40.9372 55.3463 40.9697C55.3658 40.999 55.3837 41.0186 55.4 41.0283C55.0224 41.4873 54.5781 41.8047 54.067 41.9805C53.8912 42.0423 53.6927 42.0732 53.4713 42.0732C53.25 42.0732 53.0253 42.013 52.7975 41.8926C52.5696 41.7689 52.3743 41.6077 52.2115 41.4092C51.8665 40.9958 51.694 40.4814 51.694 39.8662C51.694 39.2477 51.8811 38.6846 52.2555 38.1768C52.6331 37.6689 53.1507 37.415 53.8082 37.415C54.2802 37.415 54.666 37.6266 54.9655 38.0498C55.2649 38.4697 55.4147 38.8392 55.4147 39.1582C55.4147 39.2982 55.3805 39.3682 55.3121 39.3682H52.4801ZM52.5338 38.8994C52.5338 38.9613 52.5631 38.9922 52.6217 38.9922H54.4625C54.5472 38.9922 54.5895 38.9417 54.5895 38.8408C54.5895 38.6064 54.4837 38.3672 54.2721 38.123C54.0638 37.8757 53.8343 37.752 53.5836 37.752C53.3395 37.752 53.1165 37.8626 52.9147 38.084C52.7161 38.3053 52.5892 38.5576 52.5338 38.8408V38.8994ZM63.5348 37.5469C63.5706 37.5566 63.5885 37.5794 63.5885 37.6152C63.5885 37.651 63.5836 37.6771 63.5739 37.6934C63.5641 37.7096 63.4925 37.7275 63.359 37.7471C63.2255 37.7666 63.1295 37.8057 63.0709 37.8643C63.0156 37.9196 62.9651 37.9831 62.9196 38.0547C62.8772 38.1263 62.8398 38.2012 62.8073 38.2793C62.7747 38.3542 62.7438 38.4225 62.7145 38.4844L61.3815 41.9316C61.3424 42.026 61.3066 42.0732 61.274 42.0732H60.8883C60.8558 42.0732 60.8199 42.0228 60.7809 41.9219L59.4869 38.4209C59.3665 38.0921 59.1598 37.8805 58.8668 37.7861C58.844 37.7796 58.8164 37.7747 58.7838 37.7715C58.6471 37.7585 58.5787 37.7178 58.5787 37.6494C58.5787 37.5811 58.6178 37.5469 58.6959 37.5469H60.8688C60.8948 37.5469 60.9078 37.5729 60.9078 37.625C60.9078 37.6738 60.8899 37.7064 60.8541 37.7227C60.7955 37.7454 60.6914 37.7552 60.5416 37.752C60.2975 37.7454 60.1754 37.8431 60.1754 38.0449L60.2047 38.1621L61.1959 40.8721C61.261 41.0381 61.3261 41.0332 61.3912 40.8574C61.3977 40.8411 61.4401 40.7354 61.5182 40.54C61.9576 39.417 62.2034 38.7676 62.2555 38.5918C62.3108 38.416 62.3385 38.2842 62.3385 38.1963C62.3385 38.1084 62.2913 38.0173 62.1969 37.9229C62.1025 37.8252 61.9755 37.7764 61.816 37.7764C61.6565 37.7764 61.5768 37.7275 61.5768 37.6299C61.5768 37.5745 61.6126 37.5469 61.6842 37.5469H63.5348ZM64.7653 39.3682C64.7099 39.3682 64.6823 39.487 64.6823 39.7246C64.6823 40.2292 64.832 40.6523 65.1315 40.9941C65.4309 41.3359 65.802 41.5068 66.2448 41.5068C66.6907 41.5068 67.1188 41.3148 67.5289 40.9307C67.5354 40.9242 67.5436 40.9209 67.5533 40.9209H67.5778C67.5973 40.9209 67.6152 40.9372 67.6315 40.9697C67.651 40.999 67.6689 41.0186 67.6852 41.0283C67.3076 41.4873 66.8632 41.8047 66.3522 41.9805C66.1764 42.0423 65.9778 42.0732 65.7565 42.0732C65.5351 42.0732 65.3105 42.013 65.0826 41.8926C64.8548 41.7689 64.6595 41.6077 64.4967 41.4092C64.1517 40.9958 63.9791 40.4814 63.9791 39.8662C63.9791 39.2477 64.1663 38.6846 64.5406 38.1768C64.9183 37.6689 65.4358 37.415 66.0934 37.415C66.5654 37.415 66.9511 37.6266 67.2506 38.0498C67.5501 38.4697 67.6998 38.8392 67.6998 39.1582C67.6998 39.2982 67.6656 39.3682 67.5973 39.3682H64.7653ZM64.819 38.8994C64.819 38.9613 64.8483 38.9922 64.9069 38.9922H66.7477C66.8323 38.9922 66.8746 38.9417 66.8746 38.8408C66.8746 38.6064 66.7688 38.3672 66.5573 38.123C66.3489 37.8757 66.1194 37.752 65.8688 37.752C65.6246 37.752 65.4017 37.8626 65.1998 38.084C65.0013 38.3053 64.8743 38.5576 64.819 38.8408V38.8994ZM71.4889 38.4404C71.4498 38.4339 71.3929 38.4128 71.318 38.377C71.0478 38.2533 70.8362 38.1914 70.6832 38.1914C70.5302 38.1914 70.3691 38.2874 70.1998 38.4795C70.0338 38.6683 69.9508 38.8392 69.9508 38.9922V41.1992C69.9508 41.4434 70.0924 41.6061 70.3756 41.6875C70.4993 41.7201 70.6149 41.7445 70.7223 41.7607C70.8297 41.7738 70.8981 41.7868 70.9274 41.7998C70.9599 41.8128 70.9762 41.8389 70.9762 41.8779C70.9762 41.9137 70.9599 41.9349 70.9274 41.9414H68.4811C68.4485 41.9349 68.4323 41.9121 68.4323 41.873C68.4323 41.8145 68.5087 41.7754 68.6617 41.7559C69.0133 41.7038 69.1891 41.5182 69.1891 41.1992V38.6162C69.1891 38.4795 69.1142 38.3851 68.9645 38.333C68.8994 38.3102 68.8294 38.2923 68.7545 38.2793C68.6796 38.263 68.6194 38.2484 68.5739 38.2354C68.5315 38.2223 68.5039 38.2109 68.4908 38.2012C68.4811 38.1882 68.4762 38.1637 68.4762 38.1279C68.4762 38.0889 68.5006 38.0563 68.5494 38.0303L69.7946 37.4443C69.8336 37.4248 69.858 37.415 69.8678 37.415C69.9231 37.415 69.9508 37.4541 69.9508 37.5322V38.3232C69.9508 38.3623 69.9606 38.3818 69.9801 38.3818C70.0061 38.3818 70.0729 38.3053 70.1803 38.1523C70.4895 37.7194 70.7451 37.5029 70.9469 37.5029C71.0608 37.5029 71.235 37.5485 71.4694 37.6396C71.707 37.7308 71.8258 37.8073 71.8258 37.8691C71.8258 37.944 71.7884 38.0579 71.7135 38.2109C71.6386 38.3639 71.5638 38.4404 71.4889 38.4404ZM74.5406 38.6016C74.5406 38.6732 74.513 38.709 74.4576 38.709C74.4056 38.709 74.3649 38.6699 74.3356 38.5918C74.2574 38.377 74.1403 38.1865 73.984 38.0205C73.831 37.8545 73.6406 37.7715 73.4127 37.7715C73.1132 37.7715 72.9114 37.9212 72.8073 38.2207C72.7747 38.3216 72.7584 38.4258 72.7584 38.5332C72.7584 38.6406 72.8268 38.7611 72.9635 38.8945C73.1002 39.0247 73.3248 39.181 73.6373 39.3633C73.9498 39.5456 74.1777 39.7002 74.3209 39.8271C74.6464 40.1169 74.8092 40.4521 74.8092 40.833C74.8092 41.2139 74.6692 41.5166 74.3893 41.7412C74.1093 41.9626 73.7838 42.0732 73.4127 42.0732C73.2142 42.0732 73.0335 42.0456 72.8707 41.9902C72.7112 41.9382 72.6184 41.9121 72.5924 41.9121C72.5696 41.9121 72.5306 41.9382 72.4752 41.9902C72.4231 42.0456 72.3808 42.0732 72.3483 42.0732H72.2653C72.2457 42.0732 72.2213 41.8975 72.192 41.5459C72.1627 41.1943 72.1481 40.986 72.1481 40.9209C72.1481 40.8558 72.153 40.82 72.1627 40.8135C72.1757 40.807 72.1953 40.8037 72.2213 40.8037C72.2474 40.8037 72.2685 40.8118 72.2848 40.8281C72.3043 40.8444 72.3206 40.8656 72.3336 40.8916C72.3466 40.9144 72.3564 40.9388 72.3629 40.9648C72.3727 40.9909 72.3938 41.0397 72.4264 41.1113C72.6477 41.5833 72.9895 41.8193 73.4518 41.8193C73.6569 41.8193 73.8212 41.7445 73.9449 41.5947C74.0686 41.4417 74.1305 41.2725 74.1305 41.0869C74.1305 40.9014 74.0817 40.7451 73.984 40.6182C73.8864 40.4912 73.7643 40.3757 73.6178 40.2715C73.4746 40.1673 73.3183 40.0664 73.149 39.9688C72.4915 39.5846 72.1627 39.1598 72.1627 38.6943C72.1627 38.346 72.3125 38.0465 72.6119 37.7959C72.9114 37.542 73.219 37.415 73.5348 37.415C73.8505 37.415 74.0833 37.4492 74.233 37.5176C74.386 37.5859 74.4755 37.6445 74.5016 37.6934C74.5276 37.7389 74.5406 37.8919 74.5406 38.1523V38.6016ZM75.5465 39.749C75.5465 39.1077 75.7727 38.5576 76.2252 38.0986C76.6809 37.6364 77.2262 37.4053 77.861 37.4053C78.4957 37.4053 79.0475 37.6299 79.5162 38.0791C79.985 38.5251 80.2194 39.0768 80.2194 39.7344C80.2194 40.3919 79.9964 40.9469 79.5504 41.3994C79.1077 41.8486 78.5511 42.0732 77.8805 42.0732C77.2099 42.0732 76.6533 41.8454 76.2106 41.3896C75.7679 40.9339 75.5465 40.387 75.5465 39.749ZM76.7623 41.0039C77.0813 41.541 77.5159 41.8096 78.066 41.8096C78.4925 41.8096 78.818 41.6387 79.0426 41.2969C79.2705 40.9551 79.3844 40.5352 79.3844 40.0371C79.3844 39.5391 79.2249 39.028 78.9059 38.5039C78.5901 37.9798 78.1637 37.7178 77.6266 37.7178C77.2327 37.7178 76.9218 37.8887 76.694 38.2305C76.4694 38.569 76.3571 39.0003 76.3571 39.5244C76.3571 40.0452 76.4921 40.5384 76.7623 41.0039ZM86.6305 37.6201C86.7737 37.6689 86.8616 37.6934 86.8942 37.6934C86.9267 37.6934 86.9462 37.6934 86.9528 37.6934C86.9625 37.6901 86.9739 37.6689 86.9869 37.6299V35.1104C86.9869 34.9736 86.9121 34.8792 86.7623 34.8271C86.6972 34.8044 86.6272 34.7865 86.5524 34.7734C86.4775 34.7572 86.4173 34.7425 86.3717 34.7295C86.3294 34.7165 86.3017 34.7051 86.2887 34.6953C86.2789 34.6823 86.274 34.6579 86.274 34.6221C86.274 34.583 86.2985 34.5505 86.3473 34.5244L87.5924 33.9385C87.6315 33.9189 87.6559 33.9092 87.6656 33.9092C87.721 33.9092 87.7487 33.9482 87.7487 34.0264V40.9795C87.7649 41.1227 87.8056 41.2253 87.8707 41.2871C87.9358 41.349 88.0416 41.3799 88.1881 41.3799L88.4713 41.3604C88.4908 41.3604 88.5006 41.3799 88.5006 41.4189C88.5006 41.4548 88.4762 41.484 88.4274 41.5068L87.1285 42.0439C87.0895 42.0635 87.0553 42.0732 87.026 42.0732C87 42.0732 86.9869 42.0326 86.9869 41.9512V41.5068C86.9869 41.4743 86.9788 41.458 86.9625 41.458C86.9397 41.458 86.8046 41.5312 86.5573 41.6777C85.7988 42.127 85.1591 42.1937 84.6383 41.8779C84.2216 41.624 83.9401 41.222 83.7936 40.6719C83.7252 40.4147 83.691 40.1429 83.691 39.8564C83.691 39.5667 83.7496 39.2803 83.8668 38.9971C83.9873 38.7106 84.1517 38.46 84.36 38.2451C84.819 37.7764 85.3724 37.542 86.0201 37.542C86.2838 37.542 86.4873 37.568 86.6305 37.6201ZM84.4283 39.7148C84.4283 40.2064 84.5651 40.6377 84.8385 41.0088C85.1119 41.3766 85.4928 41.5605 85.9811 41.5605C86.1959 41.5605 86.4173 41.5085 86.6451 41.4043C86.873 41.2969 86.9869 41.2155 86.9869 41.1602V38.6406C86.9869 38.5788 86.9446 38.5055 86.86 38.4209C86.5996 38.0628 86.2529 37.8838 85.8199 37.8838C85.3903 37.8838 85.0501 38.0661 84.7994 38.4307C84.552 38.792 84.4283 39.2201 84.4283 39.7148ZM89.7262 39.3682C89.6709 39.3682 89.6432 39.487 89.6432 39.7246C89.6432 40.2292 89.7929 40.6523 90.0924 40.9941C90.3919 41.3359 90.763 41.5068 91.2057 41.5068C91.6517 41.5068 92.0797 41.3148 92.4899 40.9307C92.4964 40.9242 92.5045 40.9209 92.5143 40.9209H92.5387C92.5582 40.9209 92.5761 40.9372 92.5924 40.9697C92.6119 40.999 92.6298 41.0186 92.6461 41.0283C92.2685 41.4873 91.8242 41.8047 91.3131 41.9805C91.1373 42.0423 90.9388 42.0732 90.7174 42.0732C90.4961 42.0732 90.2714 42.013 90.0436 41.8926C89.8157 41.7689 89.6204 41.6077 89.4576 41.4092C89.1126 40.9958 88.9401 40.4814 88.9401 39.8662C88.9401 39.2477 89.1272 38.6846 89.5016 38.1768C89.8792 37.6689 90.3968 37.415 91.0543 37.415C91.5263 37.415 91.9121 37.6266 92.2115 38.0498C92.511 38.4697 92.6608 38.8392 92.6608 39.1582C92.6608 39.2982 92.6266 39.3682 92.5582 39.3682H89.7262ZM89.7799 38.8994C89.7799 38.9613 89.8092 38.9922 89.8678 38.9922H91.7086C91.7933 38.9922 91.8356 38.9417 91.8356 38.8408C91.8356 38.6064 91.7298 38.3672 91.5182 38.123C91.3099 37.8757 91.0804 37.752 90.8297 37.752C90.5856 37.752 90.3626 37.8626 90.1608 38.084C89.9622 38.3053 89.8352 38.5576 89.7799 38.8408V38.8994ZM95.8492 38.6016C95.8492 38.6732 95.8216 38.709 95.7662 38.709C95.7142 38.709 95.6735 38.6699 95.6442 38.5918C95.566 38.377 95.4489 38.1865 95.2926 38.0205C95.1396 37.8545 94.9492 37.7715 94.7213 37.7715C94.4218 37.7715 94.22 37.9212 94.1158 38.2207C94.0833 38.3216 94.067 38.4258 94.067 38.5332C94.067 38.6406 94.1354 38.7611 94.2721 38.8945C94.4088 39.0247 94.6334 39.181 94.9459 39.3633C95.2584 39.5456 95.4863 39.7002 95.6295 39.8271C95.955 40.1169 96.1178 40.4521 96.1178 40.833C96.1178 41.2139 95.9778 41.5166 95.6979 41.7412C95.4179 41.9626 95.0924 42.0732 94.7213 42.0732C94.5227 42.0732 94.3421 42.0456 94.1793 41.9902C94.0198 41.9382 93.927 41.9121 93.901 41.9121C93.8782 41.9121 93.8392 41.9382 93.7838 41.9902C93.7317 42.0456 93.6894 42.0732 93.6569 42.0732H93.5739C93.5543 42.0732 93.5299 41.8975 93.5006 41.5459C93.4713 41.1943 93.4567 40.986 93.4567 40.9209C93.4567 40.8558 93.4615 40.82 93.4713 40.8135C93.4843 40.807 93.5039 40.8037 93.5299 40.8037C93.5559 40.8037 93.5771 40.8118 93.5934 40.8281C93.6129 40.8444 93.6292 40.8656 93.6422 40.8916C93.6552 40.9144 93.665 40.9388 93.6715 40.9648C93.6813 40.9909 93.7024 41.0397 93.735 41.1113C93.9563 41.5833 94.2981 41.8193 94.7604 41.8193C94.9655 41.8193 95.1298 41.7445 95.2535 41.5947C95.3772 41.4417 95.4391 41.2725 95.4391 41.0869C95.4391 40.9014 95.3903 40.7451 95.2926 40.6182C95.1949 40.4912 95.0729 40.3757 94.9264 40.2715C94.7832 40.1673 94.6269 40.0664 94.4576 39.9688C93.8001 39.5846 93.4713 39.1598 93.4713 38.6943C93.4713 38.346 93.6211 38.0465 93.9205 37.7959C94.22 37.542 94.5276 37.415 94.8434 37.415C95.1591 37.415 95.3919 37.4492 95.5416 37.5176C95.6946 37.5859 95.7841 37.6445 95.8102 37.6934C95.8362 37.7389 95.8492 37.8919 95.8492 38.1523V38.6016ZM103.349 38.001C103.349 38.2288 103.217 38.3428 102.954 38.3428C102.82 38.3428 102.706 38.3053 102.612 38.2305C102.521 38.1523 102.449 38.0872 102.397 38.0352C102.348 37.9798 102.296 37.9294 102.241 37.8838C102.006 37.6917 101.72 37.6706 101.381 37.8203C101.046 37.9701 100.787 38.2891 100.605 38.7773C100.504 39.0475 100.454 39.3161 100.454 39.583C100.454 40.1559 100.584 40.6247 100.844 40.9893C101.105 41.3506 101.504 41.5312 102.041 41.5312C102.441 41.5312 102.801 41.3522 103.12 40.9941C103.217 40.8867 103.276 40.833 103.296 40.833C103.315 40.833 103.336 40.8428 103.359 40.8623C103.382 40.8818 103.393 40.9111 103.393 40.9502C103.393 40.986 103.383 41.0137 103.364 41.0332C102.866 41.7266 102.239 42.0732 101.484 42.0732C100.937 42.0732 100.488 41.8698 100.136 41.4629C99.788 41.056 99.6139 40.5905 99.6139 40.0664C99.6171 39.0964 99.8515 38.3981 100.317 37.9717C100.727 37.5973 101.311 37.4102 102.07 37.4102C102.539 37.4102 102.85 37.4574 103.003 37.5518C103.156 37.6462 103.263 37.765 103.325 37.9082C103.341 37.9408 103.349 37.9717 103.349 38.001ZM107.094 41.1357C107.094 41.2204 107.133 41.2887 107.212 41.3408C107.293 41.3896 107.386 41.4141 107.49 41.4141C107.594 41.4141 107.68 41.388 107.749 41.3359C107.82 41.2806 107.869 41.2529 107.895 41.2529C107.921 41.2529 107.934 41.2887 107.934 41.3604C107.934 41.4287 107.902 41.4873 107.837 41.5361C107.348 41.8942 107.018 42.0732 106.845 42.0732C106.637 42.0732 106.468 41.8568 106.338 41.4238C106.328 41.3913 106.32 41.3766 106.313 41.3799C105.909 41.6826 105.656 41.8649 105.551 41.9268C105.284 42.0798 105.016 42.1042 104.746 42C104.479 41.8958 104.285 41.7233 104.165 41.4824C104.106 41.3587 104.077 41.2269 104.077 41.0869C104.077 40.8102 104.179 40.5905 104.384 40.4277C104.589 40.265 104.98 40.1087 105.556 39.959C105.752 39.9069 105.926 39.8402 106.079 39.7588C106.232 39.6774 106.311 39.6253 106.318 39.6025C106.328 39.5798 106.333 39.5586 106.333 39.5391V38.6016C106.333 38.2337 106.189 37.9749 105.903 37.8252C105.809 37.7764 105.695 37.752 105.561 37.752C105.431 37.752 105.297 37.804 105.161 37.9082C105.027 38.0124 104.961 38.1605 104.961 38.3525L104.985 38.543C104.965 38.582 104.848 38.6471 104.633 38.7383C104.419 38.8294 104.295 38.8783 104.262 38.8848C104.21 38.8848 104.184 38.8229 104.184 38.6992C104.184 38.5723 104.222 38.4323 104.297 38.2793C104.371 38.1263 104.477 37.9863 104.614 37.8594C104.933 37.5632 105.297 37.415 105.708 37.415C106.118 37.415 106.451 37.529 106.709 37.7568C106.966 37.9814 107.094 38.25 107.094 38.5625V41.1357ZM104.843 40.9941C104.843 41.1504 104.904 41.2871 105.024 41.4043C105.144 41.5182 105.281 41.5752 105.434 41.5752C105.59 41.5752 105.779 41.5101 106.001 41.3799C106.222 41.2464 106.333 41.1097 106.333 40.9697V39.9785C106.333 39.9427 106.325 39.9248 106.308 39.9248C106.292 39.9248 106.281 39.9264 106.274 39.9297L105.141 40.457C105.024 40.5417 104.944 40.6133 104.902 40.6719C104.863 40.7305 104.843 40.8379 104.843 40.9941ZM111.372 38.4404C111.333 38.4339 111.276 38.4128 111.201 38.377C110.931 38.2533 110.719 38.1914 110.566 38.1914C110.413 38.1914 110.252 38.2874 110.083 38.4795C109.917 38.6683 109.834 38.8392 109.834 38.9922V41.1992C109.834 41.4434 109.975 41.6061 110.258 41.6875C110.382 41.7201 110.498 41.7445 110.605 41.7607C110.713 41.7738 110.781 41.7868 110.81 41.7998C110.843 41.8128 110.859 41.8389 110.859 41.8779C110.859 41.9137 110.843 41.9349 110.81 41.9414H108.364C108.331 41.9349 108.315 41.9121 108.315 41.873C108.315 41.8145 108.392 41.7754 108.545 41.7559C108.896 41.7038 109.072 41.5182 109.072 41.1992V38.6162C109.072 38.4795 108.997 38.3851 108.847 38.333C108.782 38.3102 108.712 38.2923 108.637 38.2793C108.562 38.263 108.502 38.2484 108.457 38.2354C108.414 38.2223 108.387 38.2109 108.374 38.2012C108.364 38.1882 108.359 38.1637 108.359 38.1279C108.359 38.0889 108.383 38.0563 108.432 38.0303L109.677 37.4443C109.716 37.4248 109.741 37.415 109.751 37.415C109.806 37.415 109.834 37.4541 109.834 37.5322V38.3232C109.834 38.3623 109.843 38.3818 109.863 38.3818C109.889 38.3818 109.956 38.3053 110.063 38.1523C110.372 37.7194 110.628 37.5029 110.83 37.5029C110.944 37.5029 111.118 37.5485 111.352 37.6396C111.59 37.7308 111.709 37.8073 111.709 37.8691C111.709 37.944 111.671 38.0579 111.596 38.2109C111.521 38.3639 111.447 38.4404 111.372 38.4404ZM113.242 38.1865C113.222 38.1865 113.213 38.2012 113.213 38.2305V40.9258C113.213 41.1211 113.255 41.2741 113.339 41.3848C113.427 41.4954 113.538 41.5508 113.672 41.5508C113.805 41.5508 113.921 41.5296 114.018 41.4873C114.119 41.4417 114.205 41.3929 114.277 41.3408C114.352 41.2887 114.419 41.2415 114.477 41.1992C114.536 41.1536 114.588 41.1309 114.633 41.1309C114.679 41.1309 114.702 41.1423 114.702 41.165C114.702 41.2432 114.694 41.2936 114.677 41.3164C114.287 41.821 113.909 42.0732 113.545 42.0732C113.183 42.0732 112.91 41.9593 112.724 41.7314C112.542 41.5003 112.451 41.2253 112.451 40.9062V38.1865H112.085C111.993 38.1865 111.945 38.1572 111.938 38.0986C111.935 38.04 111.945 38.0026 111.967 37.9863C112.14 37.8757 112.378 37.6771 112.68 37.3906C112.713 37.3548 112.757 37.3011 112.812 37.2295C112.867 37.1579 112.947 37.0602 113.051 36.9365C113.159 36.8128 113.24 36.751 113.296 36.751C113.351 36.751 113.379 36.7738 113.379 36.8193C113.379 36.8258 113.323 37.0391 113.213 37.459C113.213 37.5176 113.239 37.5485 113.291 37.5518H114.536C114.679 37.5518 114.751 37.7536 114.751 38.1572C114.751 38.1768 114.738 38.1865 114.712 38.1865H113.242ZM116.005 39.3682C115.95 39.3682 115.922 39.487 115.922 39.7246C115.922 40.2292 116.072 40.6523 116.372 40.9941C116.671 41.3359 117.042 41.5068 117.485 41.5068C117.931 41.5068 118.359 41.3148 118.769 40.9307C118.776 40.9242 118.784 40.9209 118.794 40.9209H118.818C118.838 40.9209 118.855 40.9372 118.872 40.9697C118.891 40.999 118.909 41.0186 118.925 41.0283C118.548 41.4873 118.103 41.8047 117.592 41.9805C117.417 42.0423 117.218 42.0732 116.997 42.0732C116.775 42.0732 116.551 42.013 116.323 41.8926C116.095 41.7689 115.9 41.6077 115.737 41.4092C115.392 40.9958 115.219 40.4814 115.219 39.8662C115.219 39.2477 115.407 38.6846 115.781 38.1768C116.158 37.6689 116.676 37.415 117.334 37.415C117.806 37.415 118.191 37.6266 118.491 38.0498C118.79 38.4697 118.94 38.8392 118.94 39.1582C118.94 39.2982 118.906 39.3682 118.838 39.3682H116.005ZM116.059 38.8994C116.059 38.9613 116.089 38.9922 116.147 38.9922H117.988C118.073 38.9922 118.115 38.9417 118.115 38.8408C118.115 38.6064 118.009 38.3672 117.797 38.123C117.589 37.8757 117.36 37.752 117.109 37.752C116.865 37.752 116.642 37.8626 116.44 38.084C116.241 38.3053 116.115 38.5576 116.059 38.8408V38.8994ZM122.129 38.6016C122.129 38.6732 122.101 38.709 122.046 38.709C121.993 38.709 121.953 38.6699 121.923 38.5918C121.845 38.377 121.728 38.1865 121.572 38.0205C121.419 37.8545 121.228 37.7715 121.001 37.7715C120.701 37.7715 120.499 37.9212 120.395 38.2207C120.363 38.3216 120.346 38.4258 120.346 38.5332C120.346 38.6406 120.415 38.7611 120.551 38.8945C120.688 39.0247 120.913 39.181 121.225 39.3633C121.538 39.5456 121.766 39.7002 121.909 39.8271C122.234 40.1169 122.397 40.4521 122.397 40.833C122.397 41.2139 122.257 41.5166 121.977 41.7412C121.697 41.9626 121.372 42.0732 121.001 42.0732C120.802 42.0732 120.621 42.0456 120.459 41.9902C120.299 41.9382 120.206 41.9121 120.18 41.9121C120.158 41.9121 120.118 41.9382 120.063 41.9902C120.011 42.0456 119.969 42.0732 119.936 42.0732H119.853C119.834 42.0732 119.809 41.8975 119.78 41.5459C119.751 41.1943 119.736 40.986 119.736 40.9209C119.736 40.8558 119.741 40.82 119.751 40.8135C119.764 40.807 119.783 40.8037 119.809 40.8037C119.835 40.8037 119.856 40.8118 119.873 40.8281C119.892 40.8444 119.908 40.8656 119.922 40.8916C119.935 40.9144 119.944 40.9388 119.951 40.9648C119.961 40.9909 119.982 41.0397 120.014 41.1113C120.236 41.5833 120.577 41.8193 121.04 41.8193C121.245 41.8193 121.409 41.7445 121.533 41.5947C121.657 41.4417 121.718 41.2725 121.718 41.0869C121.718 40.9014 121.67 40.7451 121.572 40.6182C121.474 40.4912 121.352 40.3757 121.206 40.2715C121.062 40.1673 120.906 40.0664 120.737 39.9688C120.079 39.5846 119.751 39.1598 119.751 38.6943C119.751 38.346 119.9 38.0465 120.2 37.7959C120.499 37.542 120.807 37.415 121.123 37.415C121.438 37.415 121.671 37.4492 121.821 37.5176C121.974 37.5859 122.063 37.6445 122.089 37.6934C122.116 37.7389 122.129 37.8919 122.129 38.1523V38.6016ZM29.0084 52.1621C29.0084 52.2402 29.0198 52.2793 29.0426 52.2793C29.0654 52.2793 29.0817 52.2744 29.0914 52.2646C29.1012 52.2516 29.1696 52.1751 29.2965 52.0352C29.6643 51.625 30.0371 51.4199 30.4147 51.4199C30.9095 51.4199 31.2724 51.5306 31.5035 51.752C31.7867 52.0319 31.9283 52.5023 31.9283 53.1631V55.1992C31.9283 55.5182 32.1041 55.7038 32.4557 55.7559C32.6087 55.7754 32.6852 55.8096 32.6852 55.8584C32.6852 55.9072 32.6689 55.9349 32.6364 55.9414H30.4586C30.4261 55.9349 30.4098 55.9121 30.4098 55.873C30.4098 55.8145 30.4863 55.7754 30.6393 55.7559C30.9908 55.7038 31.1666 55.5182 31.1666 55.1992V53.2119C31.1666 52.7334 31.1324 52.4225 31.0641 52.2793C30.9339 51.9928 30.6621 51.8496 30.2487 51.8496C29.9948 51.8496 29.7246 51.9587 29.4381 52.1768C29.1517 52.3916 29.0084 52.6292 29.0084 52.8896V55.1992C29.0084 55.5182 29.1842 55.7038 29.5358 55.7559C29.6888 55.7754 29.7653 55.8096 29.7653 55.8584C29.7653 55.9072 29.749 55.9349 29.7164 55.9414H27.5387C27.5061 55.9349 27.4899 55.9121 27.4899 55.873C27.4899 55.8145 27.5664 55.7754 27.7194 55.7559C28.0709 55.7038 28.2467 55.5182 28.2467 55.1992V49.1104C28.2467 48.9736 28.1718 48.8792 28.0221 48.8271C27.957 48.8044 27.887 48.7865 27.8121 48.7734C27.7373 48.7572 27.677 48.7425 27.6315 48.7295C27.5892 48.7165 27.5615 48.7051 27.5485 48.6953C27.5387 48.6823 27.5338 48.6579 27.5338 48.6221C27.5338 48.583 27.5582 48.5505 27.6071 48.5244L28.8522 47.9385C28.8912 47.9189 28.9156 47.9092 28.9254 47.9092C28.9808 47.9092 29.0084 47.9482 29.0084 48.0264V52.1621ZM33.1735 55.9414C33.1409 55.9349 33.1246 55.9121 33.1246 55.873C33.1246 55.8145 33.2011 55.7754 33.3541 55.7559C33.7057 55.7038 33.8815 55.5182 33.8815 55.1992V52.6162C33.8815 52.4795 33.8066 52.3851 33.6569 52.333C33.5918 52.3102 33.5218 52.2923 33.4469 52.2793C33.372 52.263 33.3118 52.2484 33.2662 52.2354C33.2239 52.2223 33.1962 52.2109 33.1832 52.2012C33.1735 52.1882 33.1686 52.1637 33.1686 52.1279C33.1686 52.0889 33.193 52.0563 33.2418 52.0303L34.4869 51.4443C34.526 51.4248 34.5504 51.415 34.5602 51.415C34.6155 51.415 34.6432 51.4541 34.6432 51.5322V55.1992C34.6432 55.5182 34.819 55.7038 35.1705 55.7559C35.3235 55.7754 35.4 55.8096 35.4 55.8584C35.4 55.9072 35.3837 55.9349 35.3512 55.9414H33.1735ZM34.1891 50.043C34.0556 50.043 33.9368 50.0007 33.8326 49.916C33.7317 49.8314 33.6813 49.7142 33.6813 49.5645C33.6813 49.4115 33.7301 49.291 33.8278 49.2031C33.9254 49.1152 34.041 49.0713 34.1744 49.0713C34.3112 49.0713 34.4251 49.1234 34.5162 49.2275C34.6106 49.3317 34.6578 49.444 34.6578 49.5645C34.6578 49.6849 34.6139 49.7956 34.526 49.8965C34.4381 49.9941 34.3258 50.043 34.1891 50.043ZM38.3541 52.6016C38.3541 52.6732 38.3265 52.709 38.2711 52.709C38.219 52.709 38.1783 52.6699 38.149 52.5918C38.0709 52.377 37.9537 52.1865 37.7975 52.0205C37.6445 51.8545 37.4541 51.7715 37.2262 51.7715C36.9267 51.7715 36.7249 51.9212 36.6207 52.2207C36.5882 52.3216 36.5719 52.4258 36.5719 52.5332C36.5719 52.6406 36.6403 52.7611 36.777 52.8945C36.9137 53.0247 37.1383 53.181 37.4508 53.3633C37.7633 53.5456 37.9912 53.7002 38.1344 53.8271C38.4599 54.1169 38.6227 54.4521 38.6227 54.833C38.6227 55.2139 38.4827 55.5166 38.2028 55.7412C37.9228 55.9626 37.5973 56.0732 37.2262 56.0732C37.0276 56.0732 36.847 56.0456 36.6842 55.9902C36.5247 55.9382 36.4319 55.9121 36.4059 55.9121C36.3831 55.9121 36.344 55.9382 36.2887 55.9902C36.2366 56.0456 36.1943 56.0732 36.1617 56.0732H36.0787C36.0592 56.0732 36.0348 55.8975 36.0055 55.5459C35.9762 55.1943 35.9615 54.986 35.9615 54.9209C35.9615 54.8558 35.9664 54.82 35.9762 54.8135C35.9892 54.807 36.0087 54.8037 36.0348 54.8037C36.0608 54.8037 36.082 54.8118 36.0983 54.8281C36.1178 54.8444 36.1341 54.8656 36.1471 54.8916C36.1601 54.9144 36.1699 54.9388 36.1764 54.9648C36.1862 54.9909 36.2073 55.0397 36.2399 55.1113C36.4612 55.5833 36.803 55.8193 37.2653 55.8193C37.4703 55.8193 37.6347 55.7445 37.7584 55.5947C37.8821 55.4417 37.944 55.2725 37.944 55.0869C37.944 54.9014 37.8951 54.7451 37.7975 54.6182C37.6998 54.4912 37.5778 54.3757 37.4313 54.2715C37.288 54.1673 37.1318 54.0664 36.9625 53.9688C36.305 53.5846 35.9762 53.1598 35.9762 52.6943C35.9762 52.346 36.1259 52.0465 36.4254 51.7959C36.7249 51.542 37.0325 51.415 37.3483 51.415C37.664 51.415 37.8968 51.4492 38.0465 51.5176C38.1995 51.5859 38.289 51.6445 38.3151 51.6934C38.3411 51.7389 38.3541 51.8919 38.3541 52.1523V52.6016ZM40.5221 52.1865C40.5026 52.1865 40.4928 52.2012 40.4928 52.2305V54.9258C40.4928 55.1211 40.5351 55.2741 40.6198 55.3848C40.7076 55.4954 40.8183 55.5508 40.9518 55.5508C41.0852 55.5508 41.2008 55.5296 41.2985 55.4873C41.3994 55.4417 41.4856 55.3929 41.5573 55.3408C41.6321 55.2887 41.6989 55.2415 41.7574 55.1992C41.816 55.1536 41.8681 55.1309 41.9137 55.1309C41.9593 55.1309 41.9821 55.1423 41.9821 55.165C41.9821 55.2432 41.9739 55.2936 41.9576 55.3164C41.567 55.821 41.1894 56.0732 40.8248 56.0732C40.4635 56.0732 40.1901 55.9593 40.0045 55.7314C39.8222 55.5003 39.7311 55.2253 39.7311 54.9062V52.1865H39.3649C39.2737 52.1865 39.2249 52.1572 39.2184 52.0986C39.2151 52.04 39.2249 52.0026 39.2477 51.9863C39.4202 51.8757 39.6578 51.6771 39.9606 51.3906C39.9931 51.3548 40.0371 51.3011 40.0924 51.2295C40.1477 51.1579 40.2275 51.0602 40.3317 50.9365C40.4391 50.8128 40.5205 50.751 40.5758 50.751C40.6311 50.751 40.6588 50.7738 40.6588 50.8193C40.6588 50.8258 40.6035 51.0391 40.4928 51.459C40.4928 51.5176 40.5188 51.5485 40.5709 51.5518H41.816C41.9593 51.5518 42.0309 51.7536 42.0309 52.1572C42.0309 52.1768 42.0179 52.1865 41.9918 52.1865H40.5221ZM42.524 53.749C42.524 53.1077 42.7503 52.5576 43.2028 52.0986C43.6585 51.6364 44.2037 51.4053 44.8385 51.4053C45.4733 51.4053 46.025 51.6299 46.4938 52.0791C46.9625 52.5251 47.1969 53.0768 47.1969 53.7344C47.1969 54.3919 46.9739 54.9469 46.528 55.3994C46.0852 55.8486 45.5286 56.0732 44.858 56.0732C44.1875 56.0732 43.6308 55.8454 43.1881 55.3896C42.7454 54.9339 42.524 54.387 42.524 53.749ZM43.7399 55.0039C44.0589 55.541 44.4934 55.8096 45.0436 55.8096C45.47 55.8096 45.7955 55.6387 46.0201 55.2969C46.248 54.9551 46.3619 54.5352 46.3619 54.0371C46.3619 53.5391 46.2024 53.028 45.8834 52.5039C45.5677 51.9798 45.1412 51.7178 44.6041 51.7178C44.2102 51.7178 43.8994 51.8887 43.6715 52.2305C43.4469 52.569 43.3346 53.0003 43.3346 53.5244C43.3346 54.0452 43.4697 54.5384 43.7399 55.0039ZM47.9098 55.9414C47.8772 55.9349 47.861 55.9121 47.861 55.873C47.861 55.8145 47.9375 55.7754 48.0905 55.7559C48.442 55.7038 48.6178 55.5182 48.6178 55.1992V52.6162C48.6178 52.4795 48.5429 52.3851 48.3932 52.333C48.3281 52.3102 48.2581 52.2923 48.1832 52.2793C48.1084 52.263 48.0481 52.2484 48.0026 52.2354C47.9602 52.2223 47.9326 52.2109 47.9196 52.2012C47.9098 52.1882 47.9049 52.1637 47.9049 52.1279C47.9049 52.0889 47.9293 52.0563 47.9781 52.0303L49.2233 51.4443C49.2623 51.4248 49.2867 51.415 49.2965 51.415C49.3518 51.415 49.3795 51.4541 49.3795 51.5322V55.1992C49.3795 55.5182 49.5553 55.7038 49.9069 55.7559C50.0599 55.7754 50.1364 55.8096 50.1364 55.8584C50.1364 55.9072 50.1201 55.9349 50.0875 55.9414H47.9098ZM48.9254 50.043C48.792 50.043 48.6731 50.0007 48.569 49.916C48.4681 49.8314 48.4176 49.7142 48.4176 49.5645C48.4176 49.4115 48.4664 49.291 48.5641 49.2031C48.6617 49.1152 48.7773 49.0713 48.9108 49.0713C49.0475 49.0713 49.1614 49.1234 49.2526 49.2275C49.347 49.3317 49.3942 49.444 49.3942 49.5645C49.3942 49.6849 49.3502 49.7956 49.2623 49.8965C49.1744 49.9941 49.0621 50.043 48.9254 50.043ZM53.691 52.4404C53.652 52.4339 53.595 52.4128 53.5201 52.377C53.25 52.2533 53.0384 52.1914 52.8854 52.1914C52.7324 52.1914 52.5712 52.2874 52.402 52.4795C52.236 52.6683 52.153 52.8392 52.153 52.9922V55.1992C52.153 55.4434 52.2946 55.6061 52.5778 55.6875C52.7015 55.7201 52.817 55.7445 52.9244 55.7607C53.0319 55.7738 53.1002 55.7868 53.1295 55.7998C53.1621 55.8128 53.1783 55.8389 53.1783 55.8779C53.1783 55.9137 53.1621 55.9349 53.1295 55.9414H50.6832C50.6507 55.9349 50.6344 55.9121 50.6344 55.873C50.6344 55.8145 50.7109 55.7754 50.8639 55.7559C51.2155 55.7038 51.3912 55.5182 51.3912 55.1992V52.6162C51.3912 52.4795 51.3164 52.3851 51.1666 52.333C51.1015 52.3102 51.0315 52.2923 50.9567 52.2793C50.8818 52.263 50.8216 52.2484 50.776 52.2354C50.7337 52.2223 50.706 52.2109 50.693 52.2012C50.6832 52.1882 50.6783 52.1637 50.6783 52.1279C50.6783 52.0889 50.7028 52.0563 50.7516 52.0303L51.9967 51.4443C52.0358 51.4248 52.0602 51.415 52.0699 51.415C52.1253 51.415 52.153 51.4541 52.153 51.5322V52.3232C52.153 52.3623 52.1627 52.3818 52.1823 52.3818C52.2083 52.3818 52.275 52.3053 52.3824 52.1523C52.6917 51.7194 52.9472 51.5029 53.149 51.5029C53.263 51.5029 53.4371 51.5485 53.6715 51.6396C53.9091 51.7308 54.028 51.8073 54.028 51.8691C54.028 51.944 53.9905 52.0579 53.9156 52.2109C53.8408 52.3639 53.7659 52.4404 53.691 52.4404ZM55.1608 53.3682C55.1054 53.3682 55.0778 53.487 55.0778 53.7246C55.0778 54.2292 55.2275 54.6523 55.527 54.9941C55.8265 55.3359 56.1976 55.5068 56.6403 55.5068C57.0862 55.5068 57.5143 55.3148 57.9244 54.9307C57.9309 54.9242 57.9391 54.9209 57.9489 54.9209H57.9733C57.9928 54.9209 58.0107 54.9372 58.027 54.9697C58.0465 54.999 58.0644 55.0186 58.0807 55.0283C57.7031 55.4873 57.2587 55.8047 56.7477 55.9805C56.5719 56.0423 56.3733 56.0732 56.152 56.0732C55.9306 56.0732 55.706 56.013 55.4781 55.8926C55.2503 55.7689 55.055 55.6077 54.8922 55.4092C54.5472 54.9958 54.3746 54.4814 54.3746 53.8662C54.3746 53.2477 54.5618 52.6846 54.9362 52.1768C55.3138 51.6689 55.8313 51.415 56.4889 51.415C56.9609 51.415 57.3466 51.6266 57.6461 52.0498C57.9456 52.4697 58.0953 52.8392 58.0953 53.1582C58.0953 53.2982 58.0612 53.3682 57.9928 53.3682H55.1608ZM55.2145 52.8994C55.2145 52.9613 55.2438 52.9922 55.3024 52.9922H57.1432C57.2278 52.9922 57.2701 52.9417 57.2701 52.8408C57.2701 52.6064 57.1643 52.3672 56.9528 52.123C56.7444 51.8757 56.5149 51.752 56.2643 51.752C56.0201 51.752 55.7972 51.8626 55.5953 52.084C55.3968 52.3053 55.2698 52.5576 55.2145 52.8408V52.8994ZM63.9694 52.6016C63.9694 52.6732 63.9417 52.709 63.8864 52.709C63.8343 52.709 63.7936 52.6699 63.7643 52.5918C63.6862 52.377 63.569 52.1865 63.4127 52.0205C63.2597 51.8545 63.0693 51.7715 62.8414 51.7715C62.542 51.7715 62.3401 51.9212 62.236 52.2207C62.2034 52.3216 62.1871 52.4258 62.1871 52.5332C62.1871 52.6406 62.2555 52.7611 62.3922 52.8945C62.5289 53.0247 62.7535 53.181 63.066 53.3633C63.3785 53.5456 63.6064 53.7002 63.7496 53.8271C64.0752 54.1169 64.2379 54.4521 64.2379 54.833C64.2379 55.2139 64.0979 55.5166 63.818 55.7412C63.538 55.9626 63.2125 56.0732 62.8414 56.0732C62.6429 56.0732 62.4622 56.0456 62.2994 55.9902C62.1399 55.9382 62.0472 55.9121 62.0211 55.9121C61.9983 55.9121 61.9593 55.9382 61.9039 55.9902C61.8518 56.0456 61.8095 56.0732 61.777 56.0732H61.694C61.6744 56.0732 61.65 55.8975 61.6207 55.5459C61.5914 55.1943 61.5768 54.986 61.5768 54.9209C61.5768 54.8558 61.5817 54.82 61.5914 54.8135C61.6045 54.807 61.624 54.8037 61.65 54.8037C61.6761 54.8037 61.6972 54.8118 61.7135 54.8281C61.733 54.8444 61.7493 54.8656 61.7623 54.8916C61.7753 54.9144 61.7851 54.9388 61.7916 54.9648C61.8014 54.9909 61.8226 55.0397 61.8551 55.1113C62.0765 55.5833 62.4183 55.8193 62.8805 55.8193C63.0856 55.8193 63.25 55.7445 63.3737 55.5947C63.4974 55.4417 63.5592 55.2725 63.5592 55.0869C63.5592 54.9014 63.5104 54.7451 63.4127 54.6182C63.3151 54.4912 63.193 54.3757 63.0465 54.2715C62.9033 54.1673 62.747 54.0664 62.5778 53.9688C61.9202 53.5846 61.5914 53.1598 61.5914 52.6943C61.5914 52.346 61.7412 52.0465 62.0406 51.7959C62.3401 51.542 62.6477 51.415 62.9635 51.415C63.2793 51.415 63.512 51.4492 63.6617 51.5176C63.8147 51.5859 63.9043 51.6445 63.9303 51.6934C63.9563 51.7389 63.9694 51.8919 63.9694 52.1523V52.6016ZM65.7369 53.3682C65.6816 53.3682 65.6539 53.487 65.6539 53.7246C65.6539 54.2292 65.8037 54.6523 66.1031 54.9941C66.4026 55.3359 66.7737 55.5068 67.2164 55.5068C67.6624 55.5068 68.0905 55.3148 68.5006 54.9307C68.5071 54.9242 68.5153 54.9209 68.525 54.9209H68.5494C68.569 54.9209 68.5869 54.9372 68.6031 54.9697C68.6227 54.999 68.6406 55.0186 68.6569 55.0283C68.2793 55.4873 67.8349 55.8047 67.3239 55.9805C67.1481 56.0423 66.9495 56.0732 66.7281 56.0732C66.5068 56.0732 66.2822 56.013 66.0543 55.8926C65.8265 55.7689 65.6311 55.6077 65.4684 55.4092C65.1233 54.9958 64.9508 54.4814 64.9508 53.8662C64.9508 53.2477 65.138 52.6846 65.5123 52.1768C65.8899 51.6689 66.4075 51.415 67.0651 51.415C67.5371 51.415 67.9228 51.6266 68.2223 52.0498C68.5218 52.4697 68.6715 52.8392 68.6715 53.1582C68.6715 53.2982 68.6373 53.3682 68.569 53.3682H65.7369ZM65.7906 52.8994C65.7906 52.9613 65.8199 52.9922 65.8785 52.9922H67.7194C67.804 52.9922 67.8463 52.9417 67.8463 52.8408C67.8463 52.6064 67.7405 52.3672 67.5289 52.123C67.3206 51.8757 67.0911 51.752 66.8405 51.752C66.5963 51.752 66.3733 51.8626 66.1715 52.084C65.9729 52.3053 65.846 52.5576 65.7906 52.8408V52.8994ZM76.0104 52.001C76.0104 52.2288 75.8785 52.3428 75.6149 52.3428C75.4814 52.3428 75.3675 52.3053 75.2731 52.2305C75.1819 52.1523 75.1103 52.0872 75.0582 52.0352C75.0094 51.9798 74.9573 51.9294 74.902 51.8838C74.6676 51.6917 74.3811 51.6706 74.0426 51.8203C73.7073 51.9701 73.4485 52.2891 73.2662 52.7773C73.1653 53.0475 73.1149 53.3161 73.1149 53.583C73.1149 54.1559 73.2451 54.6247 73.5055 54.9893C73.7659 55.3506 74.1647 55.5312 74.7018 55.5312C75.1022 55.5312 75.4619 55.3522 75.7809 54.9941C75.8785 54.8867 75.9371 54.833 75.9567 54.833C75.9762 54.833 75.9974 54.8428 76.0201 54.8623C76.0429 54.8818 76.0543 54.9111 76.0543 54.9502C76.0543 54.986 76.0446 55.0137 76.025 55.0332C75.527 55.7266 74.9003 56.0732 74.1451 56.0732C73.5983 56.0732 73.149 55.8698 72.7975 55.4629C72.4492 55.056 72.275 54.5905 72.275 54.0664C72.2783 53.0964 72.5127 52.3981 72.9781 51.9717C73.3883 51.5973 73.9726 51.4102 74.7311 51.4102C75.1998 51.4102 75.5107 51.4574 75.6637 51.5518C75.8167 51.6462 75.9241 51.765 75.986 51.9082C76.0022 51.9408 76.0104 51.9717 76.0104 52.001ZM79.7555 55.1357C79.7555 55.2204 79.7946 55.2887 79.8727 55.3408C79.9541 55.3896 80.0468 55.4141 80.151 55.4141C80.2552 55.4141 80.3414 55.388 80.4098 55.3359C80.4814 55.2806 80.5302 55.2529 80.5563 55.2529C80.5823 55.2529 80.5953 55.2887 80.5953 55.3604C80.5953 55.4287 80.5628 55.4873 80.4977 55.5361C80.0094 55.8942 79.679 56.0732 79.5065 56.0732C79.2981 56.0732 79.1289 55.8568 78.9987 55.4238C78.9889 55.3913 78.9808 55.3766 78.9742 55.3799C78.5706 55.6826 78.3167 55.8649 78.2125 55.9268C77.9456 56.0798 77.677 56.1042 77.4069 56C77.1399 55.8958 76.9462 55.7233 76.8258 55.4824C76.7672 55.3587 76.7379 55.2269 76.7379 55.0869C76.7379 54.8102 76.8405 54.5905 77.0455 54.4277C77.2506 54.265 77.6412 54.1087 78.2174 53.959C78.4127 53.9069 78.5869 53.8402 78.7399 53.7588C78.8929 53.6774 78.9726 53.6253 78.9791 53.6025C78.9889 53.5798 78.9938 53.5586 78.9938 53.5391V52.6016C78.9938 52.2337 78.8505 51.9749 78.5641 51.8252C78.4697 51.7764 78.3558 51.752 78.2223 51.752C78.0921 51.752 77.9586 51.804 77.8219 51.9082C77.6884 52.0124 77.6217 52.1605 77.6217 52.3525L77.6461 52.543C77.6266 52.582 77.5094 52.6471 77.2946 52.7383C77.0797 52.8294 76.956 52.8783 76.9235 52.8848C76.8714 52.8848 76.8453 52.8229 76.8453 52.6992C76.8453 52.5723 76.8828 52.4323 76.9576 52.2793C77.0325 52.1263 77.1383 51.9863 77.275 51.8594C77.594 51.5632 77.9586 51.415 78.3688 51.415C78.7789 51.415 79.1126 51.529 79.3698 51.7568C79.6269 51.9814 79.7555 52.25 79.7555 52.5625V55.1357ZM77.5045 54.9941C77.5045 55.1504 77.5647 55.2871 77.6852 55.4043C77.8056 55.5182 77.9423 55.5752 78.0953 55.5752C78.2516 55.5752 78.4404 55.5101 78.6617 55.3799C78.8831 55.2464 78.9938 55.1097 78.9938 54.9697V53.9785C78.9938 53.9427 78.9856 53.9248 78.9694 53.9248C78.9531 53.9248 78.9417 53.9264 78.9352 53.9297L77.8024 54.457C77.6852 54.5417 77.6054 54.6133 77.5631 54.6719C77.524 54.7305 77.5045 54.8379 77.5045 54.9941ZM84.8971 52.001C84.8971 52.2288 84.7653 52.3428 84.5016 52.3428C84.3681 52.3428 84.2542 52.3053 84.1598 52.2305C84.0686 52.1523 83.997 52.0872 83.9449 52.0352C83.8961 51.9798 83.844 51.9294 83.7887 51.8838C83.5543 51.6917 83.2679 51.6706 82.9293 51.8203C82.594 51.9701 82.3352 52.2891 82.153 52.7773C82.052 53.0475 82.0016 53.3161 82.0016 53.583C82.0016 54.1559 82.1318 54.6247 82.3922 54.9893C82.6526 55.3506 83.0514 55.5312 83.5885 55.5312C83.9889 55.5312 84.3486 55.3522 84.6676 54.9941C84.7653 54.8867 84.8239 54.833 84.8434 54.833C84.8629 54.833 84.8841 54.8428 84.9069 54.8623C84.9296 54.8818 84.941 54.9111 84.941 54.9502C84.941 54.986 84.9313 55.0137 84.9117 55.0332C84.4137 55.7266 83.7871 56.0732 83.0319 56.0732C82.485 56.0732 82.0358 55.8698 81.6842 55.4629C81.3359 55.056 81.1617 54.5905 81.1617 54.0664C81.165 53.0964 81.3994 52.3981 81.8649 51.9717C82.275 51.5973 82.8593 51.4102 83.6178 51.4102C84.0865 51.4102 84.3974 51.4574 84.5504 51.5518C84.7034 51.6462 84.8108 51.765 84.8727 51.9082C84.889 51.9408 84.8971 51.9717 84.8971 52.001ZM86.9479 52.1621C86.9479 52.2402 86.9593 52.2793 86.9821 52.2793C87.0048 52.2793 87.0211 52.2744 87.0309 52.2646C87.0406 52.2516 87.109 52.1751 87.236 52.0352C87.6038 51.625 87.9765 51.4199 88.3541 51.4199C88.8489 51.4199 89.2119 51.5306 89.443 51.752C89.7262 52.0319 89.8678 52.5023 89.8678 53.1631V55.1992C89.8678 55.5182 90.0436 55.7038 90.3951 55.7559C90.5481 55.7754 90.6246 55.8096 90.6246 55.8584C90.6246 55.9072 90.6084 55.9349 90.5758 55.9414H88.3981C88.3655 55.9349 88.3492 55.9121 88.3492 55.873C88.3492 55.8145 88.4257 55.7754 88.5787 55.7559C88.9303 55.7038 89.1061 55.5182 89.1061 55.1992V53.2119C89.1061 52.7334 89.0719 52.4225 89.0035 52.2793C88.8733 51.9928 88.6015 51.8496 88.1881 51.8496C87.9342 51.8496 87.664 51.9587 87.3776 52.1768C87.0911 52.3916 86.9479 52.6292 86.9479 52.8896V55.1992C86.9479 55.5182 87.1237 55.7038 87.4752 55.7559C87.6282 55.7754 87.7047 55.8096 87.7047 55.8584C87.7047 55.9072 87.6884 55.9349 87.6559 55.9414H85.4781C85.4456 55.9349 85.4293 55.9121 85.4293 55.873C85.4293 55.8145 85.5058 55.7754 85.6588 55.7559C86.0104 55.7038 86.1862 55.5182 86.1862 55.1992V49.1104C86.1862 48.9736 86.1113 48.8792 85.9615 48.8271C85.8964 48.8044 85.8265 48.7865 85.7516 48.7734C85.6767 48.7572 85.6165 48.7425 85.5709 48.7295C85.5286 48.7165 85.5009 48.7051 85.4879 48.6953C85.4781 48.6823 85.4733 48.6579 85.4733 48.6221C85.4733 48.583 85.4977 48.5505 85.5465 48.5244L86.7916 47.9385C86.8307 47.9189 86.8551 47.9092 86.8649 47.9092C86.9202 47.9092 86.9479 47.9482 86.9479 48.0264V52.1621ZM91.899 53.3682C91.8437 53.3682 91.816 53.487 91.816 53.7246C91.816 54.2292 91.9658 54.6523 92.2653 54.9941C92.5647 55.3359 92.9358 55.5068 93.3785 55.5068C93.8245 55.5068 94.2526 55.3148 94.6627 54.9307C94.6692 54.9242 94.6774 54.9209 94.6871 54.9209H94.7115C94.7311 54.9209 94.749 54.9372 94.7653 54.9697C94.7848 54.999 94.8027 55.0186 94.819 55.0283C94.4414 55.4873 93.997 55.8047 93.486 55.9805C93.3102 56.0423 93.1116 56.0732 92.8903 56.0732C92.6689 56.0732 92.4443 56.013 92.2164 55.8926C91.9886 55.7689 91.7933 55.6077 91.6305 55.4092C91.2854 54.9958 91.1129 54.4814 91.1129 53.8662C91.1129 53.2477 91.3001 52.6846 91.6744 52.1768C92.052 51.6689 92.5696 51.415 93.2272 51.415C93.6992 51.415 94.0849 51.6266 94.3844 52.0498C94.6839 52.4697 94.8336 52.8392 94.8336 53.1582C94.8336 53.2982 94.7994 53.3682 94.7311 53.3682H91.899ZM91.9528 52.8994C91.9528 52.9613 91.9821 52.9922 92.0406 52.9922H93.8815C93.9661 52.9922 94.0084 52.9417 94.0084 52.8408C94.0084 52.6064 93.9026 52.3672 93.691 52.123C93.4827 51.8757 93.2532 51.752 93.0026 51.752C92.7584 51.752 92.5354 51.8626 92.3336 52.084C92.1351 52.3053 92.0081 52.5576 91.9528 52.8408V52.8994ZM99.2379 54.4033L99.2281 53.373C99.2281 52.9531 99.1923 52.6585 99.1207 52.4893C99.0491 52.32 98.958 52.193 98.8473 52.1084C98.7366 52.0205 98.5869 51.9766 98.3981 51.9766C98.2125 51.9766 97.817 52.123 97.2115 52.416C97.1302 52.4648 97.0878 52.5104 97.0846 52.5527V55.1797C97.0846 55.5085 97.2604 55.6973 97.6119 55.7461C97.7649 55.7689 97.8414 55.8063 97.8414 55.8584C97.8414 55.9072 97.8252 55.9349 97.7926 55.9414H95.6149C95.5823 55.9349 95.566 55.9121 95.566 55.873C95.566 55.8112 95.6425 55.7689 95.7955 55.7461C96.1471 55.6973 96.3229 55.5085 96.3229 55.1797V52.377C96.3229 52.2402 96.248 52.1458 96.0983 52.0938C96.0332 52.071 95.9632 52.0531 95.8883 52.04C95.8134 52.0238 95.7532 52.0091 95.7076 51.9961C95.6653 51.9831 95.6377 51.9717 95.6246 51.9619C95.6149 51.9489 95.61 51.9245 95.61 51.8887C95.61 51.8496 95.6344 51.8171 95.6832 51.791L96.9283 51.2051C96.9674 51.1855 96.9918 51.1758 97.0016 51.1758C97.0569 51.1758 97.0846 51.2148 97.0846 51.293V52.0547C97.0944 52.0872 97.1074 52.1035 97.1237 52.1035C97.1432 52.1035 97.2132 52.0742 97.3336 52.0156C97.6136 51.8757 97.8951 51.7406 98.1783 51.6104C98.4615 51.4801 98.6959 51.415 98.8815 51.415C99.6334 51.415 100.009 52.1003 100.009 53.4707L99.9655 54.8965V55.1797C99.9655 55.4336 100.092 55.5996 100.346 55.6777C100.454 55.7135 100.556 55.7396 100.654 55.7559C100.755 55.7689 100.82 55.7819 100.849 55.7949C100.882 55.8079 100.898 55.834 100.898 55.873C100.898 55.9121 100.882 55.9349 100.849 55.9414H98.4957C98.4632 55.9349 98.4469 55.9121 98.4469 55.873C98.4469 55.8112 98.5234 55.7689 98.6764 55.7461C99.0247 55.6973 99.1989 55.4954 99.1989 55.1406C99.2249 54.9779 99.2379 54.7321 99.2379 54.4033ZM102.524 52.1865C102.505 52.1865 102.495 52.2012 102.495 52.2305V54.9258C102.495 55.1211 102.537 55.2741 102.622 55.3848C102.71 55.4954 102.82 55.5508 102.954 55.5508C103.087 55.5508 103.203 55.5296 103.3 55.4873C103.401 55.4417 103.488 55.3929 103.559 55.3408C103.634 55.2887 103.701 55.2415 103.759 55.1992C103.818 55.1536 103.87 55.1309 103.916 55.1309C103.961 55.1309 103.984 55.1423 103.984 55.165C103.984 55.2432 103.976 55.2936 103.96 55.3164C103.569 55.821 103.191 56.0732 102.827 56.0732C102.465 56.0732 102.192 55.9593 102.006 55.7314C101.824 55.5003 101.733 55.2253 101.733 54.9062V52.1865H101.367C101.276 52.1865 101.227 52.1572 101.22 52.0986C101.217 52.04 101.227 52.0026 101.25 51.9863C101.422 51.8757 101.66 51.6771 101.963 51.3906C101.995 51.3548 102.039 51.3011 102.094 51.2295C102.15 51.1579 102.229 51.0602 102.334 50.9365C102.441 50.8128 102.522 50.751 102.578 50.751C102.633 50.751 102.661 50.7738 102.661 50.8193C102.661 50.8258 102.605 51.0391 102.495 51.459C102.495 51.5176 102.521 51.5485 102.573 51.5518H103.818C103.961 51.5518 104.033 51.7536 104.033 52.1572C104.033 52.1768 104.02 52.1865 103.994 52.1865H102.524ZM110.2 51.6201C110.343 51.6689 110.431 51.6934 110.464 51.6934C110.496 51.6934 110.516 51.6934 110.522 51.6934C110.532 51.6901 110.543 51.6689 110.556 51.6299V49.1104C110.556 48.9736 110.481 48.8792 110.332 48.8271C110.267 48.8044 110.197 48.7865 110.122 48.7734C110.047 48.7572 109.987 48.7425 109.941 48.7295C109.899 48.7165 109.871 48.7051 109.858 48.6953C109.848 48.6823 109.843 48.6579 109.843 48.6221C109.843 48.583 109.868 48.5505 109.917 48.5244L111.162 47.9385C111.201 47.9189 111.225 47.9092 111.235 47.9092C111.29 47.9092 111.318 47.9482 111.318 48.0264V54.9795C111.334 55.1227 111.375 55.2253 111.44 55.2871C111.505 55.349 111.611 55.3799 111.757 55.3799L112.041 55.3604C112.06 55.3604 112.07 55.3799 112.07 55.4189C112.07 55.4548 112.046 55.484 111.997 55.5068L110.698 56.0439C110.659 56.0635 110.625 56.0732 110.595 56.0732C110.569 56.0732 110.556 56.0326 110.556 55.9512V55.5068C110.556 55.4743 110.548 55.458 110.532 55.458C110.509 55.458 110.374 55.5312 110.127 55.6777C109.368 56.127 108.728 56.1937 108.208 55.8779C107.791 55.624 107.509 55.222 107.363 54.6719C107.295 54.4147 107.26 54.1429 107.26 53.8564C107.26 53.5667 107.319 53.2803 107.436 52.9971C107.557 52.7106 107.721 52.46 107.929 52.2451C108.388 51.7764 108.942 51.542 109.589 51.542C109.853 51.542 110.057 51.568 110.2 51.6201ZM107.998 53.7148C107.998 54.2064 108.134 54.6377 108.408 55.0088C108.681 55.3766 109.062 55.5605 109.55 55.5605C109.765 55.5605 109.987 55.5085 110.214 55.4043C110.442 55.2969 110.556 55.2155 110.556 55.1602V52.6406C110.556 52.5788 110.514 52.5055 110.429 52.4209C110.169 52.0628 109.822 51.8838 109.389 51.8838C108.96 51.8838 108.619 52.0661 108.369 52.4307C108.121 52.792 107.998 53.2201 107.998 53.7148ZM113.296 53.3682C113.24 53.3682 113.213 53.487 113.213 53.7246C113.213 54.2292 113.362 54.6523 113.662 54.9941C113.961 55.3359 114.332 55.5068 114.775 55.5068C115.221 55.5068 115.649 55.3148 116.059 54.9307C116.066 54.9242 116.074 54.9209 116.084 54.9209H116.108C116.128 54.9209 116.145 54.9372 116.162 54.9697C116.181 54.999 116.199 55.0186 116.215 55.0283C115.838 55.4873 115.394 55.8047 114.882 55.9805C114.707 56.0423 114.508 56.0732 114.287 56.0732C114.065 56.0732 113.841 56.013 113.613 55.8926C113.385 55.7689 113.19 55.6077 113.027 55.4092C112.682 54.9958 112.509 54.4814 112.509 53.8662C112.509 53.2477 112.697 52.6846 113.071 52.1768C113.449 51.6689 113.966 51.415 114.624 51.415C115.096 51.415 115.481 51.6266 115.781 52.0498C116.08 52.4697 116.23 52.8392 116.23 53.1582C116.23 53.2982 116.196 53.3682 116.128 53.3682H113.296ZM113.349 52.8994C113.349 52.9613 113.379 52.9922 113.437 52.9922H115.278C115.363 52.9922 115.405 52.9417 115.405 52.8408C115.405 52.6064 115.299 52.3672 115.088 52.123C114.879 51.8757 114.65 51.752 114.399 51.752C114.155 51.752 113.932 51.8626 113.73 52.084C113.532 52.3053 113.405 52.5576 113.349 52.8408V52.8994ZM119.419 52.6016C119.419 52.6732 119.391 52.709 119.336 52.709C119.283 52.709 119.243 52.6699 119.214 52.5918C119.135 52.377 119.018 52.1865 118.862 52.0205C118.709 51.8545 118.519 51.7715 118.291 51.7715C117.991 51.7715 117.789 51.9212 117.685 52.2207C117.653 52.3216 117.636 52.4258 117.636 52.5332C117.636 52.6406 117.705 52.7611 117.841 52.8945C117.978 53.0247 118.203 53.181 118.515 53.3633C118.828 53.5456 119.056 53.7002 119.199 53.8271C119.524 54.1169 119.687 54.4521 119.687 54.833C119.687 55.2139 119.547 55.5166 119.267 55.7412C118.987 55.9626 118.662 56.0732 118.291 56.0732C118.092 56.0732 117.911 56.0456 117.749 55.9902C117.589 55.9382 117.496 55.9121 117.47 55.9121C117.448 55.9121 117.408 55.9382 117.353 55.9902C117.301 56.0456 117.259 56.0732 117.226 56.0732H117.143C117.124 56.0732 117.099 55.8975 117.07 55.5459C117.041 55.1943 117.026 54.986 117.026 54.9209C117.026 54.8558 117.031 54.82 117.041 54.8135C117.054 54.807 117.073 54.8037 117.099 54.8037C117.125 54.8037 117.146 54.8118 117.163 54.8281C117.182 54.8444 117.199 54.8656 117.212 54.8916C117.225 54.9144 117.234 54.9388 117.241 54.9648C117.251 54.9909 117.272 55.0397 117.304 55.1113C117.526 55.5833 117.867 55.8193 118.33 55.8193C118.535 55.8193 118.699 55.7445 118.823 55.5947C118.947 55.4417 119.008 55.2725 119.008 55.0869C119.008 54.9014 118.96 54.7451 118.862 54.6182C118.764 54.4912 118.642 54.3757 118.496 54.2715C118.352 54.1673 118.196 54.0664 118.027 53.9688C117.369 53.5846 117.041 53.1598 117.041 52.6943C117.041 52.346 117.19 52.0465 117.49 51.7959C117.789 51.542 118.097 51.415 118.413 51.415C118.728 51.415 118.961 51.4492 119.111 51.5176C119.264 51.5859 119.353 51.6445 119.38 51.6934C119.406 51.7389 119.419 51.8919 119.419 52.1523V52.6016ZM48.3297 66.001C48.3297 66.2288 48.1979 66.3428 47.9342 66.3428C47.8007 66.3428 47.6868 66.3053 47.5924 66.2305C47.5013 66.1523 47.4296 66.0872 47.3776 66.0352C47.3287 65.9798 47.2767 65.9294 47.2213 65.8838C46.9869 65.6917 46.7005 65.6706 46.3619 65.8203C46.0267 65.9701 45.7679 66.2891 45.5856 66.7773C45.4847 67.0475 45.4342 67.3161 45.4342 67.583C45.4342 68.1559 45.5644 68.6247 45.8248 68.9893C46.0852 69.3506 46.484 69.5312 47.0211 69.5312C47.4215 69.5312 47.7812 69.3522 48.1002 68.9941C48.1979 68.8867 48.2565 68.833 48.276 68.833C48.2955 68.833 48.3167 68.8428 48.3395 68.8623C48.3623 68.8818 48.3737 68.9111 48.3737 68.9502C48.3737 68.986 48.3639 69.0137 48.3444 69.0332C47.8463 69.7266 47.2197 70.0732 46.4645 70.0732C45.9176 70.0732 45.4684 69.8698 45.1168 69.4629C44.7685 69.056 44.5944 68.5905 44.5944 68.0664C44.5976 67.0964 44.832 66.3981 45.2975 65.9717C45.7076 65.5973 46.292 65.4102 47.0504 65.4102C47.5192 65.4102 47.83 65.4574 47.983 65.5518C48.136 65.6462 48.2434 65.765 48.3053 65.9082C48.3216 65.9408 48.3297 65.9717 48.3297 66.001ZM49.0817 67.749C49.0817 67.1077 49.3079 66.5576 49.7604 66.0986C50.2161 65.6364 50.7614 65.4053 51.3961 65.4053C52.0309 65.4053 52.5826 65.6299 53.0514 66.0791C53.5201 66.5251 53.7545 67.0768 53.7545 67.7344C53.7545 68.3919 53.5315 68.9469 53.0856 69.3994C52.6429 69.8486 52.0862 70.0732 51.4156 70.0732C50.7451 70.0732 50.1884 69.8454 49.7457 69.3896C49.303 68.9339 49.0817 68.387 49.0817 67.749ZM50.2975 69.0039C50.6165 69.541 51.0511 69.8096 51.6012 69.8096C52.0276 69.8096 52.3531 69.6387 52.5778 69.2969C52.8056 68.9551 52.9196 68.5352 52.9196 68.0371C52.9196 67.5391 52.7601 67.028 52.441 66.5039C52.1253 65.9798 51.6989 65.7178 51.1617 65.7178C50.7679 65.7178 50.457 65.8887 50.2291 66.2305C50.0045 66.569 49.8922 67.0003 49.8922 67.5244C49.8922 68.0452 50.0273 68.5384 50.2975 69.0039ZM58.0514 68.4033L58.0416 67.373C58.0416 66.9531 58.0058 66.6585 57.9342 66.4893C57.8626 66.32 57.7714 66.193 57.6608 66.1084C57.5501 66.0205 57.4003 65.9766 57.2115 65.9766C57.026 65.9766 56.6305 66.123 56.025 66.416C55.9436 66.4648 55.9013 66.5104 55.8981 66.5527V69.1797C55.8981 69.5085 56.0739 69.6973 56.4254 69.7461C56.5784 69.7689 56.6549 69.8063 56.6549 69.8584C56.6549 69.9072 56.6386 69.9349 56.6061 69.9414H54.4283C54.3958 69.9349 54.3795 69.9121 54.3795 69.873C54.3795 69.8112 54.456 69.7689 54.609 69.7461C54.9606 69.6973 55.1364 69.5085 55.1364 69.1797V66.377C55.1364 66.2402 55.0615 66.1458 54.9117 66.0938C54.8466 66.071 54.7767 66.0531 54.7018 66.04C54.6269 66.0238 54.5667 66.0091 54.5211 65.9961C54.4788 65.9831 54.4511 65.9717 54.4381 65.9619C54.4283 65.9489 54.4235 65.9245 54.4235 65.8887C54.4235 65.8496 54.4479 65.8171 54.4967 65.791L55.7418 65.2051C55.7809 65.1855 55.8053 65.1758 55.8151 65.1758C55.8704 65.1758 55.8981 65.2148 55.8981 65.293V66.0547C55.9078 66.0872 55.9209 66.1035 55.9371 66.1035C55.9567 66.1035 56.0267 66.0742 56.1471 66.0156C56.427 65.8757 56.7086 65.7406 56.9918 65.6104C57.275 65.4801 57.5094 65.415 57.6949 65.415C58.4469 65.415 58.8229 66.1003 58.8229 67.4707L58.7789 68.8965V69.1797C58.7789 69.4336 58.9059 69.5996 59.1598 69.6777C59.2672 69.7135 59.3698 69.7396 59.4674 69.7559C59.5683 69.7689 59.6334 69.7819 59.6627 69.7949C59.6953 69.8079 59.7115 69.834 59.7115 69.873C59.7115 69.9121 59.6953 69.9349 59.6627 69.9414H57.3092C57.2767 69.9349 57.2604 69.9121 57.2604 69.873C57.2604 69.8112 57.3369 69.7689 57.4899 69.7461C57.8382 69.6973 58.0123 69.4954 58.0123 69.1406C58.0384 68.9779 58.0514 68.7321 58.0514 68.4033ZM62.5192 66.6016C62.5192 66.6732 62.4915 66.709 62.4362 66.709C62.3841 66.709 62.3434 66.6699 62.3141 66.5918C62.236 66.377 62.1188 66.1865 61.9625 66.0205C61.8095 65.8545 61.6191 65.7715 61.3912 65.7715C61.0918 65.7715 60.8899 65.9212 60.7858 66.2207C60.7532 66.3216 60.7369 66.4258 60.7369 66.5332C60.7369 66.6406 60.8053 66.7611 60.942 66.8945C61.0787 67.0247 61.3033 67.181 61.6158 67.3633C61.9283 67.5456 62.1562 67.7002 62.2994 67.8271C62.625 68.1169 62.7877 68.4521 62.7877 68.833C62.7877 69.2139 62.6477 69.5166 62.3678 69.7412C62.0878 69.9626 61.7623 70.0732 61.3912 70.0732C61.1927 70.0732 61.012 70.0456 60.8492 69.9902C60.6897 69.9382 60.597 69.9121 60.5709 69.9121C60.5481 69.9121 60.5091 69.9382 60.4537 69.9902C60.4017 70.0456 60.3593 70.0732 60.3268 70.0732H60.2438C60.2242 70.0732 60.1998 69.8975 60.1705 69.5459C60.1412 69.1943 60.1266 68.986 60.1266 68.9209C60.1266 68.8558 60.1315 68.82 60.1412 68.8135C60.1543 68.807 60.1738 68.8037 60.1998 68.8037C60.2259 68.8037 60.247 68.8118 60.2633 68.8281C60.2828 68.8444 60.2991 68.8656 60.3121 68.8916C60.3252 68.9144 60.3349 68.9388 60.3414 68.9648C60.3512 68.9909 60.3724 69.0397 60.4049 69.1113C60.6263 69.5833 60.9681 69.8193 61.4303 69.8193C61.6354 69.8193 61.7998 69.7445 61.9235 69.5947C62.0472 69.4417 62.109 69.2725 62.109 69.0869C62.109 68.9014 62.0602 68.7451 61.9625 68.6182C61.8649 68.4912 61.7428 68.3757 61.5963 68.2715C61.4531 68.1673 61.2968 68.0664 61.1276 67.9688C60.47 67.5846 60.1412 67.1598 60.1412 66.6943C60.1412 66.346 60.291 66.0465 60.5905 65.7959C60.8899 65.542 61.1976 65.415 61.5133 65.415C61.8291 65.415 62.0618 65.4492 62.2115 65.5176C62.3645 65.5859 62.4541 65.6445 62.4801 65.6934C62.5061 65.7389 62.5192 65.8919 62.5192 66.1523V66.6016ZM64.6871 66.1865C64.6676 66.1865 64.6578 66.2012 64.6578 66.2305V68.9258C64.6578 69.1211 64.7002 69.2741 64.7848 69.3848C64.8727 69.4954 64.9834 69.5508 65.1168 69.5508C65.2503 69.5508 65.3658 69.5296 65.4635 69.4873C65.5644 69.4417 65.6507 69.3929 65.7223 69.3408C65.7972 69.2887 65.8639 69.2415 65.9225 69.1992C65.9811 69.1536 66.0332 69.1309 66.0787 69.1309C66.1243 69.1309 66.1471 69.1423 66.1471 69.165C66.1471 69.2432 66.139 69.2936 66.1227 69.3164C65.7321 69.821 65.3545 70.0732 64.9899 70.0732C64.6285 70.0732 64.3551 69.9593 64.1696 69.7314C63.9873 69.5003 63.8961 69.2253 63.8961 68.9062V66.1865H63.5299C63.4388 66.1865 63.3899 66.1572 63.3834 66.0986C63.3802 66.04 63.3899 66.0026 63.4127 65.9863C63.5852 65.8757 63.8229 65.6771 64.1256 65.3906C64.1582 65.3548 64.2021 65.3011 64.2574 65.2295C64.3128 65.1579 64.3925 65.0602 64.4967 64.9365C64.6041 64.8128 64.6855 64.751 64.7408 64.751C64.7962 64.751 64.8239 64.7738 64.8239 64.8193C64.8239 64.8258 64.7685 65.0391 64.6578 65.459C64.6578 65.5176 64.6839 65.5485 64.736 65.5518H65.9811C66.1243 65.5518 66.1959 65.7536 66.1959 66.1572C66.1959 66.1768 66.1829 66.1865 66.1569 66.1865H64.6871ZM67.4508 67.3682C67.3955 67.3682 67.3678 67.487 67.3678 67.7246C67.3678 68.2292 67.5175 68.6523 67.817 68.9941C68.1165 69.3359 68.4876 69.5068 68.9303 69.5068C69.3763 69.5068 69.8043 69.3148 70.2145 68.9307C70.221 68.9242 70.2291 68.9209 70.2389 68.9209H70.2633C70.2828 68.9209 70.3007 68.9372 70.317 68.9697C70.3365 68.999 70.3545 69.0186 70.3707 69.0283C69.9931 69.4873 69.5488 69.8047 69.0377 69.9805C68.8619 70.0423 68.6634 70.0732 68.442 70.0732C68.2207 70.0732 67.9961 70.013 67.7682 69.8926C67.5403 69.7689 67.345 69.6077 67.1823 69.4092C66.8372 68.9958 66.6647 68.4814 66.6647 67.8662C66.6647 67.2477 66.8518 66.6846 67.2262 66.1768C67.6038 65.6689 68.1214 65.415 68.7789 65.415C69.2509 65.415 69.6367 65.6266 69.9362 66.0498C70.2356 66.4697 70.3854 66.8392 70.3854 67.1582C70.3854 67.2982 70.3512 67.3682 70.2828 67.3682H67.4508ZM67.5045 66.8994C67.5045 66.9613 67.5338 66.9922 67.5924 66.9922H69.4332C69.5179 66.9922 69.5602 66.9417 69.5602 66.8408C69.5602 66.6064 69.4544 66.3672 69.2428 66.123C69.0345 65.8757 68.805 65.752 68.5543 65.752C68.3102 65.752 68.0872 65.8626 67.8854 66.084C67.6868 66.3053 67.5599 66.5576 67.5045 66.8408V66.8994ZM73.0074 69.7559C73.1604 69.7754 73.2369 69.8145 73.2369 69.873C73.2369 69.9121 73.2207 69.9349 73.1881 69.9414H71.0104C70.9778 69.9349 70.9615 69.9121 70.9615 69.873C70.9615 69.8145 71.038 69.7754 71.191 69.7559C71.5426 69.7038 71.7184 69.5182 71.7184 69.1992V63.1104C71.7184 62.9736 71.6435 62.8792 71.4938 62.8271C71.4287 62.8044 71.3587 62.7865 71.2838 62.7734C71.2089 62.7572 71.1487 62.7425 71.1031 62.7295C71.0608 62.7165 71.0332 62.7051 71.0201 62.6953C71.0104 62.6823 71.0055 62.6579 71.0055 62.6221C71.0055 62.583 71.0299 62.5505 71.0787 62.5244L72.3239 61.9385C72.3629 61.9189 72.3873 61.9092 72.3971 61.9092C72.4524 61.9092 72.4801 61.9482 72.4801 62.0264V69.1992C72.4801 69.5182 72.6559 69.7038 73.0074 69.7559ZM75.5563 69.7559C75.7093 69.7754 75.7858 69.8145 75.7858 69.873C75.7858 69.9121 75.7695 69.9349 75.7369 69.9414H73.5592C73.5267 69.9349 73.5104 69.9121 73.5104 69.873C73.5104 69.8145 73.5869 69.7754 73.7399 69.7559C74.0914 69.7038 74.2672 69.5182 74.2672 69.1992V63.1104C74.2672 62.9736 74.1923 62.8792 74.0426 62.8271C73.9775 62.8044 73.9075 62.7865 73.8326 62.7734C73.7578 62.7572 73.6976 62.7425 73.652 62.7295C73.6097 62.7165 73.582 62.7051 73.569 62.6953C73.5592 62.6823 73.5543 62.6579 73.5543 62.6221C73.5543 62.583 73.5787 62.5505 73.6276 62.5244L74.8727 61.9385C74.9117 61.9189 74.9362 61.9092 74.9459 61.9092C75.0013 61.9092 75.0289 61.9482 75.0289 62.0264V69.1992C75.0289 69.5182 75.2047 69.7038 75.5563 69.7559ZM79.3209 69.1357C79.3209 69.2204 79.36 69.2887 79.4381 69.3408C79.5195 69.3896 79.6123 69.4141 79.7164 69.4141C79.8206 69.4141 79.9069 69.388 79.9752 69.3359C80.0468 69.2806 80.0957 69.2529 80.1217 69.2529C80.1477 69.2529 80.1608 69.2887 80.1608 69.3604C80.1608 69.4287 80.1282 69.4873 80.0631 69.5361C79.5748 69.8942 79.2444 70.0732 79.0719 70.0732C78.8636 70.0732 78.6943 69.8568 78.5641 69.4238C78.5543 69.3913 78.5462 69.3766 78.5397 69.3799C78.136 69.6826 77.8821 69.8649 77.778 69.9268C77.511 70.0798 77.2425 70.1042 76.9723 70C76.7054 69.8958 76.5117 69.7233 76.3912 69.4824C76.3326 69.3587 76.3033 69.2269 76.3033 69.0869C76.3033 68.8102 76.4059 68.5905 76.611 68.4277C76.816 68.265 77.2067 68.1087 77.7828 67.959C77.9781 67.9069 78.1523 67.8402 78.3053 67.7588C78.4583 67.6774 78.538 67.6253 78.5446 67.6025C78.5543 67.5798 78.5592 67.5586 78.5592 67.5391V66.6016C78.5592 66.2337 78.416 65.9749 78.1295 65.8252C78.0351 65.7764 77.9212 65.752 77.7877 65.752C77.6575 65.752 77.524 65.804 77.3873 65.9082C77.2539 66.0124 77.1871 66.1605 77.1871 66.3525L77.2115 66.543C77.192 66.582 77.0748 66.6471 76.86 66.7383C76.6451 66.8294 76.5214 66.8783 76.4889 66.8848C76.4368 66.8848 76.4108 66.8229 76.4108 66.6992C76.4108 66.5723 76.4482 66.4323 76.5231 66.2793C76.5979 66.1263 76.7037 65.9863 76.8405 65.8594C77.1595 65.5632 77.524 65.415 77.9342 65.415C78.3444 65.415 78.678 65.529 78.9352 65.7568C79.1923 65.9814 79.3209 66.25 79.3209 66.5625V69.1357ZM77.0699 68.9941C77.0699 69.1504 77.1302 69.2871 77.2506 69.4043C77.3711 69.5182 77.5078 69.5752 77.6608 69.5752C77.817 69.5752 78.0058 69.5101 78.2272 69.3799C78.4485 69.2464 78.5592 69.1097 78.5592 68.9697V67.9785C78.5592 67.9427 78.5511 67.9248 78.5348 67.9248C78.5185 67.9248 78.5071 67.9264 78.5006 67.9297L77.3678 68.457C77.2506 68.5417 77.1709 68.6133 77.1285 68.6719C77.0895 68.7305 77.0699 68.8379 77.0699 68.9941ZM81.816 66.1865C81.7965 66.1865 81.7867 66.2012 81.7867 66.2305V68.9258C81.7867 69.1211 81.8291 69.2741 81.9137 69.3848C82.0016 69.4954 82.1123 69.5508 82.2457 69.5508C82.3792 69.5508 82.4948 69.5296 82.5924 69.4873C82.6933 69.4417 82.7796 69.3929 82.8512 69.3408C82.9261 69.2887 82.9928 69.2415 83.0514 69.1992C83.11 69.1536 83.1621 69.1309 83.2076 69.1309C83.2532 69.1309 83.276 69.1423 83.276 69.165C83.276 69.2432 83.2679 69.2936 83.2516 69.3164C82.861 69.821 82.4834 70.0732 82.1188 70.0732C81.7574 70.0732 81.484 69.9593 81.2985 69.7314C81.1162 69.5003 81.025 69.2253 81.025 68.9062V66.1865H80.6588C80.5677 66.1865 80.5188 66.1572 80.5123 66.0986C80.5091 66.04 80.5188 66.0026 80.5416 65.9863C80.7142 65.8757 80.9518 65.6771 81.2545 65.3906C81.2871 65.3548 81.331 65.3011 81.3864 65.2295C81.4417 65.1579 81.5214 65.0602 81.6256 64.9365C81.733 64.8128 81.8144 64.751 81.8698 64.751C81.9251 64.751 81.9528 64.7738 81.9528 64.8193C81.9528 64.8258 81.8974 65.0391 81.7867 65.459C81.7867 65.5176 81.8128 65.5485 81.8649 65.5518H83.11C83.2532 65.5518 83.3248 65.7536 83.3248 66.1572C83.3248 66.1768 83.3118 66.1865 83.2858 66.1865H81.816ZM83.7936 69.9414C83.761 69.9349 83.7448 69.9121 83.7448 69.873C83.7448 69.8145 83.8212 69.7754 83.9742 69.7559C84.3258 69.7038 84.5016 69.5182 84.5016 69.1992V66.6162C84.5016 66.4795 84.4267 66.3851 84.277 66.333C84.2119 66.3102 84.1419 66.2923 84.067 66.2793C83.9921 66.263 83.9319 66.2484 83.8864 66.2354C83.844 66.2223 83.8164 66.2109 83.8033 66.2012C83.7936 66.1882 83.7887 66.1637 83.7887 66.1279C83.7887 66.0889 83.8131 66.0563 83.8619 66.0303L85.1071 65.4443C85.1461 65.4248 85.1705 65.415 85.1803 65.415C85.2356 65.415 85.2633 65.4541 85.2633 65.5322V69.1992C85.2633 69.5182 85.4391 69.7038 85.7906 69.7559C85.9436 69.7754 86.0201 69.8096 86.0201 69.8584C86.0201 69.9072 86.0039 69.9349 85.9713 69.9414H83.7936ZM84.8092 64.043C84.6757 64.043 84.5569 64.0007 84.4528 63.916C84.3518 63.8314 84.3014 63.7142 84.3014 63.5645C84.3014 63.4115 84.3502 63.291 84.4479 63.2031C84.5455 63.1152 84.6611 63.0713 84.7946 63.0713C84.9313 63.0713 85.0452 63.1234 85.1364 63.2275C85.2308 63.3317 85.278 63.444 85.278 63.5645C85.278 63.6849 85.234 63.7956 85.1461 63.8965C85.0582 63.9941 84.9459 64.043 84.8092 64.043ZM86.6305 67.749C86.6305 67.1077 86.8567 66.5576 87.3092 66.0986C87.7649 65.6364 88.3102 65.4053 88.9449 65.4053C89.5797 65.4053 90.1315 65.6299 90.6002 66.0791C91.069 66.5251 91.3033 67.0768 91.3033 67.7344C91.3033 68.3919 91.0804 68.9469 90.6344 69.3994C90.1917 69.8486 89.6351 70.0732 88.9645 70.0732C88.2939 70.0732 87.7373 69.8454 87.2946 69.3896C86.8518 68.9339 86.6305 68.387 86.6305 67.749ZM87.8463 69.0039C88.1653 69.541 88.5999 69.8096 89.15 69.8096C89.5765 69.8096 89.902 69.6387 90.1266 69.2969C90.3545 68.9551 90.4684 68.5352 90.4684 68.0371C90.4684 67.5391 90.3089 67.028 89.9899 66.5039C89.6741 65.9798 89.2477 65.7178 88.7106 65.7178C88.3167 65.7178 88.0058 65.8887 87.778 66.2305C87.5533 66.569 87.441 67.0003 87.441 67.5244C87.441 68.0452 87.5761 68.5384 87.8463 69.0039ZM95.6002 68.4033L95.5905 67.373C95.5905 66.9531 95.5546 66.6585 95.483 66.4893C95.4114 66.32 95.3203 66.193 95.2096 66.1084C95.0989 66.0205 94.9492 65.9766 94.7604 65.9766C94.5748 65.9766 94.1793 66.123 93.5739 66.416C93.4925 66.4648 93.4502 66.5104 93.4469 66.5527V69.1797C93.4469 69.5085 93.6227 69.6973 93.9742 69.7461C94.1272 69.7689 94.2037 69.8063 94.2037 69.8584C94.2037 69.9072 94.1875 69.9349 94.1549 69.9414H91.9772C91.9446 69.9349 91.9283 69.9121 91.9283 69.873C91.9283 69.8112 92.0048 69.7689 92.1578 69.7461C92.5094 69.6973 92.6852 69.5085 92.6852 69.1797V66.377C92.6852 66.2402 92.6103 66.1458 92.4606 66.0938C92.3955 66.071 92.3255 66.0531 92.2506 66.04C92.1757 66.0238 92.1155 66.0091 92.0699 65.9961C92.0276 65.9831 92 65.9717 91.9869 65.9619C91.9772 65.9489 91.9723 65.9245 91.9723 65.8887C91.9723 65.8496 91.9967 65.8171 92.0455 65.791L93.2906 65.2051C93.3297 65.1855 93.3541 65.1758 93.3639 65.1758C93.4192 65.1758 93.4469 65.2148 93.4469 65.293V66.0547C93.4567 66.0872 93.4697 66.1035 93.486 66.1035C93.5055 66.1035 93.5755 66.0742 93.6959 66.0156C93.9759 65.8757 94.2574 65.7406 94.5406 65.6104C94.8239 65.4801 95.0582 65.415 95.2438 65.415C95.9957 65.415 96.3717 66.1003 96.3717 67.4707L96.3278 68.8965V69.1797C96.3278 69.4336 96.4547 69.5996 96.7086 69.6777C96.816 69.7135 96.9186 69.7396 97.0162 69.7559C97.1171 69.7689 97.1823 69.7819 97.2115 69.7949C97.2441 69.8079 97.2604 69.834 97.2604 69.873C97.2604 69.9121 97.2441 69.9349 97.2115 69.9414H94.858C94.8255 69.9349 94.8092 69.9121 94.8092 69.873C94.8092 69.8112 94.8857 69.7689 95.0387 69.7461C95.387 69.6973 95.5612 69.4954 95.5612 69.1406C95.5872 68.9779 95.6002 68.7321 95.6002 68.4033ZM100.068 66.6016C100.068 66.6732 100.04 66.709 99.985 66.709C99.9329 66.709 99.8922 66.6699 99.8629 66.5918C99.7848 66.377 99.6676 66.1865 99.5114 66.0205C99.3584 65.8545 99.1679 65.7715 98.9401 65.7715C98.6406 65.7715 98.4388 65.9212 98.3346 66.2207C98.302 66.3216 98.2858 66.4258 98.2858 66.5332C98.2858 66.6406 98.3541 66.7611 98.4908 66.8945C98.6276 67.0247 98.8522 67.181 99.1647 67.3633C99.4772 67.5456 99.705 67.7002 99.8483 67.8271C100.174 68.1169 100.337 68.4521 100.337 68.833C100.337 69.2139 100.197 69.5166 99.9166 69.7412C99.6367 69.9626 99.3112 70.0732 98.9401 70.0732C98.7415 70.0732 98.5608 70.0456 98.3981 69.9902C98.2386 69.9382 98.1458 69.9121 98.1198 69.9121C98.097 69.9121 98.0579 69.9382 98.0026 69.9902C97.9505 70.0456 97.9082 70.0732 97.8756 70.0732H97.7926C97.7731 70.0732 97.7487 69.8975 97.7194 69.5459C97.6901 69.1943 97.6754 68.986 97.6754 68.9209C97.6754 68.8558 97.6803 68.82 97.6901 68.8135C97.7031 68.807 97.7226 68.8037 97.7487 68.8037C97.7747 68.8037 97.7959 68.8118 97.8121 68.8281C97.8317 68.8444 97.8479 68.8656 97.861 68.8916C97.874 68.9144 97.8837 68.9388 97.8903 68.9648C97.9 68.9909 97.9212 69.0397 97.9537 69.1113C98.1751 69.5833 98.5169 69.8193 98.9791 69.8193C99.1842 69.8193 99.3486 69.7445 99.4723 69.5947C99.596 69.4417 99.6578 69.2725 99.6578 69.0869C99.6578 68.9014 99.609 68.7451 99.5114 68.6182C99.4137 68.4912 99.2916 68.3757 99.1451 68.2715C99.0019 68.1673 98.8457 68.0664 98.6764 67.9688C98.0188 67.5846 97.6901 67.1598 97.6901 66.6943C97.6901 66.346 97.8398 66.0465 98.1393 65.7959C98.4388 65.542 98.7464 65.415 99.0621 65.415C99.3779 65.415 99.6106 65.4492 99.7604 65.5176C99.9134 65.5859 100.003 65.6445 100.029 65.6934C100.055 65.7389 100.068 65.8919 100.068 66.1523V66.6016ZM101.342 69.4531C101.342 69.2773 101.404 69.126 101.528 68.999C101.652 68.8688 101.801 68.8037 101.977 68.8037C102.15 68.8037 102.298 68.8672 102.422 68.9941C102.548 69.1178 102.612 69.2692 102.612 69.4482C102.612 69.6273 102.55 69.777 102.426 69.8975C102.303 70.0146 102.153 70.0732 101.977 70.0732C101.805 70.0732 101.655 70.013 101.528 69.8926C101.404 69.7721 101.342 69.6257 101.342 69.4531Z" fill="#EFB85F"/>
<path d="M17.5002 10L18.696 11.9748L21 13L18.696 14.0249L17.5002 16L16.304 14.0249L14 13L16.304 11.9748L17.5002 10Z" fill="#EFB85F"/>
<path d="M17.5002 86L18.696 87.9748L21 89L18.696 90.0249L17.5002 92L16.304 90.0249L14 89L16.304 87.9748L17.5002 86Z" fill="#EFB85F"/>
<path d="M124.5 84L125.696 85.9748L128 87L125.696 88.0249L124.5 90L123.304 88.0249L121 87L123.304 85.9748L124.5 84Z" fill="#EFB85F"/>
<path d="M80.5002 90L81.696 91.9748L84 93L81.696 94.0249L80.5002 96L79.304 94.0249L77 93L79.304 91.9748L80.5002 90Z" fill="#EFB85F"/>
<path d="M120.5 7L121.696 8.97475L124 10L121.696 11.0249L120.5 13L119.304 11.0249L117 10L119.304 8.97475L120.5 7Z" fill="#EFB85F"/>
<path d="M95.125 16.6259C95.1509 16.3615 95.1942 15.7335 95.2288 15.2377C95.2634 14.6647 95.324 14.3011 95.3932 14.2681C95.4538 14.235 95.7307 14.4113 95.999 14.6537C96.2759 14.9071 96.5182 15.0834 96.5441 15.0504C96.5615 15.0283 96.397 14.6757 96.1807 14.2791C95.9038 13.7943 95.8086 13.5519 95.8865 13.5189C95.9471 13.4968 96.3884 13.4197 96.8643 13.3426C98.3873 13.1222 98.3787 13.001 96.8384 12.7917C96.3019 12.7145 95.8519 12.6154 95.8346 12.5823C95.8086 12.5382 95.973 12.2187 96.1807 11.8661C96.3884 11.5025 96.5441 11.183 96.5182 11.15C96.4922 11.1279 96.2326 11.3152 95.9471 11.5687C95.6528 11.8331 95.3932 11.9984 95.3586 11.9543C95.3154 11.8992 95.2461 11.2381 95.1856 10.4779C95.0298 8.49462 94.9606 8.50564 94.7962 10.5219C94.7356 11.2822 94.6664 11.9433 94.6317 11.9763C94.6058 12.0094 94.3462 11.8331 94.052 11.5797C93.7664 11.3152 93.5155 11.1279 93.4895 11.161C93.4722 11.183 93.602 11.4805 93.7924 11.8111C93.9827 12.1306 94.1385 12.4611 94.1385 12.5272C94.1385 12.6044 93.7664 12.7035 93.1607 12.7917C91.6117 13.001 91.6117 13.1222 93.1693 13.3536C93.7577 13.4417 94.1385 13.5519 94.1385 13.618C94.1385 13.6841 93.9827 14.0147 93.7924 14.3342C93.3857 15.0283 93.351 15.2046 93.6799 14.9292C93.8183 14.83 94.0693 14.6096 94.251 14.4554C94.6664 14.1138 94.701 14.1689 94.7789 15.3589C94.8913 17.1107 95.0211 17.5735 95.125 16.6259Z" fill="#EFB85F"/>
<path d="M39.125 89.6259C39.1509 89.3615 39.1942 88.7335 39.2288 88.2377C39.2634 87.6647 39.324 87.3011 39.3932 87.2681C39.4538 87.235 39.7307 87.4113 39.999 87.6537C40.2759 87.9071 40.5182 88.0834 40.5441 88.0504C40.5615 88.0283 40.397 87.6757 40.1807 87.2791C39.9038 86.7943 39.8086 86.5519 39.8865 86.5189C39.9471 86.4968 40.3884 86.4197 40.8643 86.3426C42.3873 86.1222 42.3787 86.001 40.8384 85.7917C40.3019 85.7145 39.8519 85.6154 39.8346 85.5823C39.8086 85.5382 39.973 85.2187 40.1807 84.8661C40.3884 84.5025 40.5441 84.183 40.5182 84.15C40.4922 84.1279 40.2326 84.3152 39.9471 84.5687C39.6528 84.8331 39.3932 84.9984 39.3586 84.9543C39.3154 84.8992 39.2461 84.2381 39.1856 83.4779C39.0298 81.4946 38.9606 81.5056 38.7962 83.5219C38.7356 84.2822 38.6664 84.9433 38.6317 84.9763C38.6058 85.0094 38.3462 84.8331 38.052 84.5797C37.7664 84.3152 37.5155 84.1279 37.4895 84.161C37.4722 84.183 37.602 84.4805 37.7924 84.8111C37.9827 85.1306 38.1385 85.4611 38.1385 85.5272C38.1385 85.6044 37.7664 85.7035 37.1607 85.7917C35.6117 86.001 35.6117 86.1222 37.1693 86.3536C37.7577 86.4417 38.1385 86.5519 38.1385 86.618C38.1385 86.6841 37.9827 87.0147 37.7924 87.3342C37.3857 88.0283 37.351 88.2046 37.6799 87.9292C37.8183 87.83 38.0693 87.6096 38.251 87.4554C38.6664 87.1138 38.701 87.1689 38.7789 88.3589C38.8913 90.1107 39.0211 90.5735 39.125 89.6259Z" fill="#EFB85F"/>
<path d="M110.125 99.6259C110.151 99.3615 110.194 98.7335 110.229 98.2377C110.263 97.6647 110.324 97.3011 110.393 97.2681C110.454 97.235 110.731 97.4113 110.999 97.6537C111.276 97.9071 111.518 98.0834 111.544 98.0504C111.561 98.0283 111.397 97.6757 111.181 97.2791C110.904 96.7943 110.809 96.5519 110.886 96.5189C110.947 96.4968 111.388 96.4197 111.864 96.3426C113.387 96.1222 113.379 96.001 111.838 95.7917C111.302 95.7145 110.852 95.6154 110.835 95.5823C110.809 95.5382 110.973 95.2187 111.181 94.8661C111.388 94.5025 111.544 94.183 111.518 94.15C111.492 94.1279 111.233 94.3152 110.947 94.5687C110.653 94.8331 110.393 94.9984 110.359 94.9543C110.315 94.8992 110.246 94.2381 110.186 93.4779C110.03 91.4946 109.961 91.5056 109.796 93.5219C109.736 94.2822 109.666 94.9433 109.632 94.9763C109.606 95.0094 109.346 94.8331 109.052 94.5797C108.766 94.3152 108.515 94.1279 108.489 94.161C108.472 94.183 108.602 94.4805 108.792 94.8111C108.983 95.1306 109.138 95.4611 109.138 95.5272C109.138 95.6044 108.766 95.7035 108.161 95.7917C106.612 96.001 106.612 96.1222 108.169 96.3536C108.758 96.4417 109.138 96.5519 109.138 96.618C109.138 96.6841 108.983 97.0147 108.792 97.3342C108.386 98.0283 108.351 98.2046 108.68 97.9292C108.818 97.83 109.069 97.6096 109.251 97.4554C109.666 97.1138 109.701 97.1689 109.779 98.3589C109.891 100.111 110.021 100.573 110.125 99.6259Z" fill="#EFB85F"/>
<path d="M53.125 12.6259C53.1509 12.3615 53.1942 11.7335 53.2288 11.2377C53.2634 10.6647 53.324 10.3011 53.3932 10.2681C53.4538 10.235 53.7307 10.4113 53.999 10.6537C54.2759 10.9071 54.5182 11.0834 54.5441 11.0504C54.5615 11.0283 54.397 10.6757 54.1807 10.2791C53.9038 9.7943 53.8086 9.55191 53.8865 9.51885C53.9471 9.49682 54.3884 9.41969 54.8643 9.34256C56.3873 9.1222 56.3787 9.001 54.8384 8.79166C54.3019 8.71453 53.8519 8.61537 53.8346 8.58232C53.8086 8.53825 53.973 8.21872 54.1807 7.86614C54.3884 7.50255 54.5441 7.18302 54.5182 7.14997C54.4922 7.12793 54.2326 7.31524 53.9471 7.56866C53.6528 7.83309 53.3932 7.99836 53.3586 7.95429C53.3154 7.8992 53.2461 7.23811 53.1856 6.47787C53.0298 4.49462 52.9606 4.50564 52.7962 6.52194C52.7356 7.28219 52.6664 7.94327 52.6317 7.97632C52.6058 8.00938 52.3462 7.83309 52.052 7.57967C51.7664 7.31524 51.5155 7.12793 51.4895 7.16099C51.4722 7.18302 51.602 7.48051 51.7924 7.81105C51.9827 8.13058 52.1385 8.46112 52.1385 8.52723C52.1385 8.60435 51.7664 8.70352 51.1607 8.79166C49.6117 9.001 49.6117 9.1222 51.1693 9.35358C51.7577 9.44173 52.1385 9.55191 52.1385 9.61802C52.1385 9.68412 51.9827 10.0147 51.7924 10.3342C51.3857 11.0283 51.351 11.2046 51.6799 10.9292C51.8183 10.83 52.0693 10.6096 52.251 10.4554C52.6664 10.1138 52.701 10.1689 52.7789 11.3589C52.8913 13.1107 53.0211 13.5735 53.125 12.6259Z" fill="#EFB85F"/>
<circle cx="26" cy="81" r="1" fill="#EFB85F"/>
<circle cx="57" cy="96" r="1" fill="#EFB85F"/>
<circle cx="111" cy="84" r="1" fill="#EFB85F"/>
<circle cx="139" cy="16" r="1" fill="#EFB85F"/>
<circle cx="143" cy="55" r="1" fill="#EFB85F"/>
<circle cx="139" cy="93" r="1" fill="#EFB85F"/>
<circle cx="36" cy="10" r="1" fill="#EFB85F"/>
<circle cx="75" cy="6" r="1" fill="#EFB85F"/>
<path d="M30.1536 96.762L33.0001 96.6487L30.1536 96.5354L31.0464 95.3761L30.0932 96.4619L30 93L29.9069 96.4619L28.9537 95.3761L29.8465 96.5354L27 96.6487L29.8465 96.762L28.9537 97.9212L29.9069 96.8354L30 100.297L30.0932 96.8354L31.0464 97.9212L30.1536 96.762Z" fill="#EFB85F"/>
<path d="M11.1536 76.762L14.0001 76.6487L11.1536 76.5354L12.0464 75.3761L11.0932 76.4619L11 73L10.9069 76.4619L9.95375 75.3761L10.8465 76.5354L8 76.6487L10.8465 76.762L9.95375 77.9212L10.9069 76.8354L11 80.2973L11.0932 76.8354L12.0464 77.9212L11.1536 76.762Z" fill="#EFB85F"/>
<path d="M68.1536 11.762L71.0001 11.6487L68.1536 11.5354L69.0464 10.3761L68.0932 11.4619L68 8L67.9069 11.4619L66.9537 10.3761L67.8465 11.5354L65 11.6487L67.8465 11.762L66.9537 12.9212L67.9069 11.8354L68 15.2973L68.0932 11.8354L69.0464 12.9212L68.1536 11.762Z" fill="#EFB85F"/>
<path d="M137.154 76.762L140 76.6487L137.154 76.5354L138.046 75.3761L137.093 76.4619L137 73L136.907 76.4619L135.954 75.3761L136.847 76.5354L134 76.6487L136.847 76.762L135.954 77.9212L136.907 76.8354L137 80.2973L137.093 76.8354L138.046 77.9212L137.154 76.762Z" fill="#EFB85F"/>
<path d="M129.154 95.762L132 95.6487L129.154 95.5354L130.046 94.3761L129.093 95.4619L129 92L128.907 95.4619L127.954 94.3761L128.847 95.5354L126 95.6487L128.847 95.762L127.954 96.9212L128.907 95.8354L129 99.2973L129.093 95.8354L130.046 96.9212L129.154 95.762Z" fill="#EFB85F"/>
<path d="M8.15357 18.762L11.0001 18.6487L8.15357 18.5354L9.04635 17.3761L8.09316 18.4619L8.00005 15L7.90694 18.4619L6.95375 17.3761L7.84653 18.5354L5 18.6487L7.84653 18.762L6.95375 19.9212L7.90694 18.8354L8.00005 22.2973L8.09316 18.8354L9.04635 19.9212L8.15357 18.762Z" fill="#EFB85F"/>
</svg>
