<svg width="148" height="105" viewBox="0 0 148 105" fill="none" xmlns="http://www.w3.org/2000/svg">
<rect width="147.402" height="104.882" rx="10" fill="black"/>
<path d="M14.4918 42.8379C14.4918 42.4473 14.2672 42.252 13.818 42.252C13.7464 42.252 13.7106 42.2389 13.7106 42.2129V42.0957C13.7106 42.0697 13.7236 42.0566 13.7496 42.0566H16.1959C16.222 42.0566 16.235 42.0697 16.235 42.0957V42.2129C16.235 42.2389 16.1634 42.252 16.0201 42.252C15.8769 42.252 15.7451 42.2975 15.6246 42.3887C15.5042 42.4798 15.444 42.667 15.444 42.9502V48.1602C15.444 48.5508 15.6702 48.7461 16.1227 48.7461C16.191 48.7461 16.2252 48.7591 16.2252 48.7852V48.9023C16.2252 48.9284 16.2122 48.9414 16.1862 48.9414H13.7399C13.7138 48.9414 13.7008 48.9284 13.7008 48.9023V48.7852C13.7008 48.7591 13.7724 48.7461 13.9156 48.7461C14.0589 48.7461 14.1907 48.7005 14.3112 48.6094C14.4316 48.5182 14.4918 48.3311 14.4918 48.0479V42.8379ZM18.8229 48.7559C18.9759 48.7754 19.0524 48.8145 19.0524 48.873C19.0524 48.9121 19.0361 48.9349 19.0035 48.9414H16.8258C16.7933 48.9349 16.777 48.9121 16.777 48.873C16.777 48.8145 16.8535 48.7754 17.0065 48.7559C17.358 48.7038 17.5338 48.5182 17.5338 48.1992V42.1104C17.5338 41.9736 17.4589 41.8792 17.3092 41.8271C17.2441 41.8044 17.1741 41.7865 17.0992 41.7734C17.0244 41.7572 16.9642 41.7425 16.9186 41.7295C16.8763 41.7165 16.8486 41.7051 16.8356 41.6953C16.8258 41.6823 16.8209 41.6579 16.8209 41.6221C16.8209 41.583 16.8453 41.5505 16.8942 41.5244L18.1393 40.9385C18.1783 40.9189 18.2028 40.9092 18.2125 40.9092C18.2679 40.9092 18.2955 40.9482 18.2955 41.0264V48.1992C18.2955 48.5182 18.4713 48.7038 18.8229 48.7559ZM25.2242 45.4404C25.1852 45.4339 25.1282 45.4128 25.0533 45.377C24.7832 45.2533 24.5716 45.1914 24.4186 45.1914C24.2656 45.1914 24.1045 45.2874 23.9352 45.4795C23.7692 45.6683 23.6862 45.8392 23.6862 45.9922V48.1992C23.6862 48.4434 23.8278 48.6061 24.111 48.6875C24.2347 48.7201 24.3502 48.7445 24.4576 48.7607C24.5651 48.7738 24.6334 48.7868 24.6627 48.7998C24.6953 48.8128 24.7115 48.8389 24.7115 48.8779C24.7115 48.9137 24.6953 48.9349 24.6627 48.9414H22.2164C22.1839 48.9349 22.1676 48.9121 22.1676 48.873C22.1676 48.8145 22.2441 48.7754 22.3971 48.7559C22.7487 48.7038 22.9244 48.5182 22.9244 48.1992V45.6162C22.9244 45.4795 22.8496 45.3851 22.6998 45.333C22.6347 45.3102 22.5647 45.2923 22.4899 45.2793C22.415 45.263 22.3548 45.2484 22.3092 45.2354C22.2669 45.2223 22.2392 45.2109 22.2262 45.2012C22.2164 45.1882 22.2115 45.1637 22.2115 45.1279C22.2115 45.0889 22.236 45.0563 22.2848 45.0303L23.5299 44.4443C23.569 44.4248 23.5934 44.415 23.6031 44.415C23.6585 44.415 23.6862 44.4541 23.6862 44.5322V45.3232C23.6862 45.3623 23.6959 45.3818 23.7155 45.3818C23.7415 45.3818 23.8082 45.3053 23.9156 45.1523C24.2249 44.7194 24.4804 44.5029 24.6823 44.5029C24.7962 44.5029 24.9703 44.5485 25.2047 44.6396C25.4423 44.7308 25.5612 44.8073 25.5612 44.8691C25.5612 44.944 25.5237 45.0579 25.4489 45.2109C25.374 45.3639 25.2991 45.4404 25.2242 45.4404ZM26.694 46.3682C26.6386 46.3682 26.611 46.487 26.611 46.7246C26.611 47.2292 26.7607 47.6523 27.0602 47.9941C27.3597 48.3359 27.7308 48.5068 28.1735 48.5068C28.6194 48.5068 29.0475 48.3148 29.4576 47.9307C29.4642 47.9242 29.4723 47.9209 29.4821 47.9209H29.5065C29.526 47.9209 29.5439 47.9372 29.5602 47.9697C29.5797 47.999 29.5976 48.0186 29.6139 48.0283C29.2363 48.4873 28.792 48.8047 28.2809 48.9805C28.1051 49.0423 27.9065 49.0732 27.6852 49.0732C27.4638 49.0732 27.2392 49.013 27.0114 48.8926C26.7835 48.7689 26.5882 48.6077 26.4254 48.4092C26.0804 47.9958 25.9078 47.4814 25.9078 46.8662C25.9078 46.2477 26.095 45.6846 26.4694 45.1768C26.847 44.6689 27.3645 44.415 28.0221 44.415C28.4941 44.415 28.8798 44.6266 29.1793 45.0498C29.4788 45.4697 29.6285 45.8392 29.6285 46.1582C29.6285 46.2982 29.5944 46.3682 29.526 46.3682H26.694ZM26.7477 45.8994C26.7477 45.9613 26.777 45.9922 26.8356 45.9922H28.6764C28.761 45.9922 28.8033 45.9417 28.8033 45.8408C28.8033 45.6064 28.6976 45.3672 28.486 45.123C28.2776 44.8757 28.0481 44.752 27.7975 44.752C27.5533 44.752 27.3304 44.8626 27.1285 45.084C26.93 45.3053 26.803 45.5576 26.7477 45.8408V45.8994ZM32.817 45.6016C32.817 45.6732 32.7893 45.709 32.734 45.709C32.6819 45.709 32.6412 45.6699 32.6119 45.5918C32.5338 45.377 32.4166 45.1865 32.2604 45.0205C32.1074 44.8545 31.917 44.7715 31.6891 44.7715C31.3896 44.7715 31.1878 44.9212 31.0836 45.2207C31.0511 45.3216 31.0348 45.4258 31.0348 45.5332C31.0348 45.6406 31.1031 45.7611 31.2399 45.8945C31.3766 46.0247 31.6012 46.181 31.9137 46.3633C32.2262 46.5456 32.4541 46.7002 32.5973 46.8271C32.9228 47.1169 33.0856 47.4521 33.0856 47.833C33.0856 48.2139 32.9456 48.5166 32.6656 48.7412C32.3857 48.9626 32.0602 49.0732 31.6891 49.0732C31.4905 49.0732 31.3099 49.0456 31.1471 48.9902C30.9876 48.9382 30.8948 48.9121 30.8688 48.9121C30.846 48.9121 30.8069 48.9382 30.7516 48.9902C30.6995 49.0456 30.6572 49.0732 30.6246 49.0732H30.5416C30.5221 49.0732 30.4977 48.8975 30.4684 48.5459C30.4391 48.1943 30.4244 47.986 30.4244 47.9209C30.4244 47.8558 30.4293 47.82 30.4391 47.8135C30.4521 47.807 30.4716 47.8037 30.4977 47.8037C30.5237 47.8037 30.5449 47.8118 30.5612 47.8281C30.5807 47.8444 30.597 47.8656 30.61 47.8916C30.623 47.9144 30.6328 47.9388 30.6393 47.9648C30.649 47.9909 30.6702 48.0397 30.7028 48.1113C30.9241 48.5833 31.2659 48.8193 31.7281 48.8193C31.9332 48.8193 32.0976 48.7445 32.2213 48.5947C32.345 48.4417 32.4069 48.2725 32.4069 48.0869C32.4069 47.9014 32.358 47.7451 32.2604 47.6182C32.1627 47.4912 32.0406 47.3757 31.8942 47.2715C31.7509 47.1673 31.5947 47.0664 31.4254 46.9688C30.7679 46.5846 30.4391 46.1598 30.4391 45.6943C30.4391 45.346 30.5888 45.0465 30.8883 44.7959C31.1878 44.542 31.4954 44.415 31.8112 44.415C32.1269 44.415 32.3597 44.4492 32.5094 44.5176C32.6624 44.5859 32.7519 44.6445 32.778 44.6934C32.804 44.7389 32.817 44.8919 32.817 45.1523V45.6016ZM34.985 45.1865C34.9655 45.1865 34.9557 45.2012 34.9557 45.2305V47.9258C34.9557 48.1211 34.998 48.2741 35.0826 48.3848C35.1705 48.4954 35.2812 48.5508 35.4147 48.5508C35.5481 48.5508 35.6637 48.5296 35.7614 48.4873C35.8623 48.4417 35.9485 48.3929 36.0201 48.3408C36.095 48.2887 36.1617 48.2415 36.2203 48.1992C36.2789 48.1536 36.331 48.1309 36.3766 48.1309C36.4222 48.1309 36.4449 48.1423 36.4449 48.165C36.4449 48.2432 36.4368 48.2936 36.4205 48.3164C36.0299 48.821 35.6523 49.0732 35.2877 49.0732C34.9264 49.0732 34.653 48.9593 34.4674 48.7314C34.2851 48.5003 34.194 48.2253 34.194 47.9062V45.1865H33.8278C33.7366 45.1865 33.6878 45.1572 33.6813 45.0986C33.678 45.04 33.6878 45.0026 33.7106 44.9863C33.8831 44.8757 34.1207 44.6771 34.4235 44.3906C34.456 44.3548 34.5 44.3011 34.5553 44.2295C34.6106 44.1579 34.6904 44.0602 34.7946 43.9365C34.902 43.8128 34.9834 43.751 35.0387 43.751C35.094 43.751 35.1217 43.7738 35.1217 43.8193C35.1217 43.8258 35.0664 44.0391 34.9557 44.459C34.9557 44.5176 34.9817 44.5485 35.0338 44.5518H36.2789C36.4222 44.5518 36.4938 44.7536 36.4938 45.1572C36.4938 45.1768 36.4808 45.1865 36.4547 45.1865H34.985ZM37.7487 46.3682C37.6933 46.3682 37.6656 46.487 37.6656 46.7246C37.6656 47.2292 37.8154 47.6523 38.1149 47.9941C38.4143 48.3359 38.7854 48.5068 39.2281 48.5068C39.6741 48.5068 40.1022 48.3148 40.5123 47.9307C40.5188 47.9242 40.527 47.9209 40.5367 47.9209H40.5612C40.5807 47.9209 40.5986 47.9372 40.6149 47.9697C40.6344 47.999 40.6523 48.0186 40.6686 48.0283C40.291 48.4873 39.8466 48.8047 39.3356 48.9805C39.1598 49.0423 38.9612 49.0732 38.7399 49.0732C38.5185 49.0732 38.2939 49.013 38.066 48.8926C37.8382 48.7689 37.6429 48.6077 37.4801 48.4092C37.1351 47.9958 36.9625 47.4814 36.9625 46.8662C36.9625 46.2477 37.1497 45.6846 37.524 45.1768C37.9017 44.6689 38.4192 44.415 39.0768 44.415C39.5488 44.415 39.9345 44.6266 40.234 45.0498C40.5335 45.4697 40.6832 45.8392 40.6832 46.1582C40.6832 46.2982 40.649 46.3682 40.5807 46.3682H37.7487ZM37.8024 45.8994C37.8024 45.9613 37.8317 45.9922 37.8903 45.9922H39.7311C39.8157 45.9922 39.858 45.9417 39.858 45.8408C39.858 45.6064 39.7522 45.3672 39.5406 45.123C39.3323 44.8757 39.1028 44.752 38.8522 44.752C38.608 44.752 38.3851 44.8626 38.1832 45.084C37.9847 45.3053 37.8577 45.5576 37.8024 45.8408V45.8994ZM47.5289 48.5117C47.5127 48.4564 47.4915 48.4385 47.4655 48.458C47.4394 48.4743 47.3336 48.5296 47.1481 48.624C46.5393 48.9268 46.0315 49.0781 45.6246 49.0781C45.2177 49.0781 44.9248 48.9479 44.7457 48.6875C44.6806 48.5898 44.6481 48.4694 44.6481 48.3262V45.3477C44.6383 45.2533 44.596 45.1719 44.5211 45.1035C44.4202 45.0189 44.3144 44.9733 44.2037 44.9668C44.0963 44.9603 44.0426 44.9277 44.0426 44.8691C44.0426 44.8073 44.0686 44.7699 44.1207 44.7568L45.2389 44.4346C45.278 44.4215 45.3154 44.415 45.3512 44.415C45.3903 44.415 45.4098 44.4427 45.4098 44.498V47.7744C45.4098 48.0023 45.5107 48.1781 45.7125 48.3018C45.9143 48.4255 46.1715 48.4873 46.484 48.4873C46.7998 48.4873 47.083 48.3913 47.3336 48.1992C47.4117 48.1374 47.4768 48.069 47.5289 47.9941V45.3477C47.5192 45.2533 47.4768 45.1719 47.402 45.1035C47.3011 45.0189 47.1953 44.9733 47.0846 44.9668C46.9772 44.9603 46.9235 44.9277 46.9235 44.8691C46.9235 44.8073 46.9495 44.7699 47.0016 44.7568L48.1198 44.4346C48.1588 44.4215 48.1962 44.415 48.2321 44.415C48.2711 44.415 48.2906 44.4476 48.2906 44.5127V47.9795C48.3069 48.1227 48.3476 48.2253 48.4127 48.2871C48.4778 48.349 48.5836 48.3799 48.7301 48.3799L49.0133 48.3604C49.0328 48.3604 49.0426 48.3799 49.0426 48.4189C49.0426 48.4548 49.0182 48.484 48.9694 48.5068L47.6705 49.0439C47.6315 49.0635 47.5973 49.0732 47.568 49.0732C47.542 49.0732 47.5289 49.0326 47.5289 48.9512V48.5117ZM53.2614 47.4033L53.2516 46.373C53.2516 45.9531 53.2158 45.6585 53.1442 45.4893C53.0726 45.32 52.9814 45.193 52.8707 45.1084C52.7601 45.0205 52.6103 44.9766 52.4215 44.9766C52.236 44.9766 51.8405 45.123 51.235 45.416C51.1536 45.4648 51.1113 45.5104 51.108 45.5527V48.1797C51.108 48.5085 51.2838 48.6973 51.6354 48.7461C51.7884 48.7689 51.8649 48.8063 51.8649 48.8584C51.8649 48.9072 51.8486 48.9349 51.816 48.9414H49.6383C49.6058 48.9349 49.5895 48.9121 49.5895 48.873C49.5895 48.8112 49.666 48.7689 49.819 48.7461C50.1705 48.6973 50.3463 48.5085 50.3463 48.1797V45.377C50.3463 45.2402 50.2714 45.1458 50.1217 45.0938C50.0566 45.071 49.9866 45.0531 49.9117 45.04C49.8369 45.0238 49.7767 45.0091 49.7311 44.9961C49.6888 44.9831 49.6611 44.9717 49.6481 44.9619C49.6383 44.9489 49.6334 44.9245 49.6334 44.8887C49.6334 44.8496 49.6578 44.8171 49.7067 44.791L50.9518 44.2051C50.9908 44.1855 51.0153 44.1758 51.025 44.1758C51.0804 44.1758 51.108 44.2148 51.108 44.293V45.0547C51.1178 45.0872 51.1308 45.1035 51.1471 45.1035C51.1666 45.1035 51.2366 45.0742 51.3571 45.0156C51.637 44.8757 51.9186 44.7406 52.2018 44.6104C52.485 44.4801 52.7194 44.415 52.9049 44.415C53.6569 44.415 54.0328 45.1003 54.0328 46.4707L53.9889 47.8965V48.1797C53.9889 48.4336 54.1158 48.5996 54.3698 48.6777C54.4772 48.7135 54.5797 48.7396 54.6774 48.7559C54.7783 48.7689 54.8434 48.7819 54.8727 48.7949C54.9052 48.8079 54.9215 48.834 54.9215 48.873C54.9215 48.9121 54.9052 48.9349 54.8727 48.9414H52.5192C52.4866 48.9349 52.4703 48.9121 52.4703 48.873C52.4703 48.8112 52.5468 48.7689 52.6998 48.7461C53.0481 48.6973 53.2223 48.4954 53.2223 48.1406C53.2483 47.9779 53.2614 47.7321 53.2614 47.4033ZM61.0592 44.6201C61.2024 44.6689 61.2903 44.6934 61.3229 44.6934C61.3554 44.6934 61.375 44.6934 61.3815 44.6934C61.3912 44.6901 61.4026 44.6689 61.4156 44.6299V42.1104C61.4156 41.9736 61.3408 41.8792 61.191 41.8271C61.1259 41.8044 61.0559 41.7865 60.9811 41.7734C60.9062 41.7572 60.846 41.7425 60.8004 41.7295C60.7581 41.7165 60.7304 41.7051 60.7174 41.6953C60.7076 41.6823 60.7028 41.6579 60.7028 41.6221C60.7028 41.583 60.7272 41.5505 60.776 41.5244L62.0211 40.9385C62.0602 40.9189 62.0846 40.9092 62.0944 40.9092C62.1497 40.9092 62.1774 40.9482 62.1774 41.0264V47.9795C62.1936 48.1227 62.2343 48.2253 62.2994 48.2871C62.3645 48.349 62.4703 48.3799 62.6168 48.3799L62.9 48.3604C62.9196 48.3604 62.9293 48.3799 62.9293 48.4189C62.9293 48.4548 62.9049 48.484 62.8561 48.5068L61.5573 49.0439C61.5182 49.0635 61.484 49.0732 61.4547 49.0732C61.4287 49.0732 61.4156 49.0326 61.4156 48.9512V48.5068C61.4156 48.4743 61.4075 48.458 61.3912 48.458C61.3684 48.458 61.2334 48.5312 60.986 48.6777C60.2275 49.127 59.5878 49.1937 59.067 48.8779C58.6503 48.624 58.3688 48.222 58.2223 47.6719C58.1539 47.4147 58.1198 47.1429 58.1198 46.8564C58.1198 46.5667 58.1783 46.2803 58.2955 45.9971C58.416 45.7106 58.5804 45.46 58.7887 45.2451C59.2477 44.7764 59.8011 44.542 60.4489 44.542C60.7125 44.542 60.916 44.568 61.0592 44.6201ZM58.8571 46.7148C58.8571 47.2064 58.9938 47.6377 59.2672 48.0088C59.5406 48.3766 59.9215 48.5605 60.4098 48.5605C60.6246 48.5605 60.846 48.5085 61.0739 48.4043C61.3017 48.2969 61.4156 48.2155 61.4156 48.1602V45.6406C61.4156 45.5788 61.3733 45.5055 61.2887 45.4209C61.0283 45.0628 60.6816 44.8838 60.2487 44.8838C59.819 44.8838 59.4788 45.0661 59.2281 45.4307C58.9808 45.792 58.8571 46.2201 58.8571 46.7148ZM64.1549 46.3682C64.0996 46.3682 64.0719 46.487 64.0719 46.7246C64.0719 47.2292 64.2216 47.6523 64.5211 47.9941C64.8206 48.3359 65.1917 48.5068 65.6344 48.5068C66.0804 48.5068 66.5084 48.3148 66.9186 47.9307C66.9251 47.9242 66.9332 47.9209 66.943 47.9209H66.9674C66.9869 47.9209 67.0048 47.9372 67.0211 47.9697C67.0406 47.999 67.0586 48.0186 67.0748 48.0283C66.6972 48.4873 66.2529 48.8047 65.7418 48.9805C65.566 49.0423 65.3675 49.0732 65.1461 49.0732C64.9248 49.0732 64.7002 49.013 64.4723 48.8926C64.2444 48.7689 64.0491 48.6077 63.8864 48.4092C63.5413 47.9958 63.3688 47.4814 63.3688 46.8662C63.3688 46.2477 63.5559 45.6846 63.9303 45.1768C64.3079 44.6689 64.8255 44.415 65.483 44.415C65.955 44.415 66.3408 44.6266 66.6403 45.0498C66.9397 45.4697 67.0895 45.8392 67.0895 46.1582C67.0895 46.2982 67.0553 46.3682 66.9869 46.3682H64.1549ZM64.2086 45.8994C64.2086 45.9613 64.2379 45.9922 64.2965 45.9922H66.1373C66.222 45.9922 66.2643 45.9417 66.2643 45.8408C66.2643 45.6064 66.1585 45.3672 65.9469 45.123C65.7386 44.8757 65.5091 44.752 65.2584 44.752C65.0143 44.752 64.7913 44.8626 64.5895 45.084C64.3909 45.3053 64.264 45.5576 64.2086 45.8408V45.8994ZM70.8785 45.4404C70.8395 45.4339 70.7825 45.4128 70.7076 45.377C70.4375 45.2533 70.2259 45.1914 70.0729 45.1914C69.9199 45.1914 69.7587 45.2874 69.5895 45.4795C69.4235 45.6683 69.3405 45.8392 69.3405 45.9922V48.1992C69.3405 48.4434 69.4821 48.6061 69.7653 48.6875C69.889 48.7201 70.0045 48.7445 70.1119 48.7607C70.2194 48.7738 70.2877 48.7868 70.317 48.7998C70.3496 48.8128 70.3658 48.8389 70.3658 48.8779C70.3658 48.9137 70.3496 48.9349 70.317 48.9414H67.8707C67.8382 48.9349 67.8219 48.9121 67.8219 48.873C67.8219 48.8145 67.8984 48.7754 68.0514 48.7559C68.403 48.7038 68.5787 48.5182 68.5787 48.1992V45.6162C68.5787 45.4795 68.5039 45.3851 68.3541 45.333C68.289 45.3102 68.219 45.2923 68.1442 45.2793C68.0693 45.263 68.0091 45.2484 67.9635 45.2354C67.9212 45.2223 67.8935 45.2109 67.8805 45.2012C67.8707 45.1882 67.8658 45.1637 67.8658 45.1279C67.8658 45.0889 67.8903 45.0563 67.9391 45.0303L69.1842 44.4443C69.2233 44.4248 69.2477 44.415 69.2574 44.415C69.3128 44.415 69.3405 44.4541 69.3405 44.5322V45.3232C69.3405 45.3623 69.3502 45.3818 69.3698 45.3818C69.3958 45.3818 69.4625 45.3053 69.5699 45.1523C69.8792 44.7194 70.1347 44.5029 70.3365 44.5029C70.4505 44.5029 70.6246 44.5485 70.859 44.6396C71.0966 44.7308 71.2155 44.8073 71.2155 44.8691C71.2155 44.944 71.178 45.0579 71.1031 45.2109C71.0283 45.3639 70.9534 45.4404 70.8785 45.4404ZM75.1461 47.4033L75.1364 46.373C75.1364 45.9531 75.1005 45.6585 75.0289 45.4893C74.9573 45.32 74.8662 45.193 74.7555 45.1084C74.6448 45.0205 74.4951 44.9766 74.3063 44.9766C74.1207 44.9766 73.7252 45.123 73.1198 45.416C73.0384 45.4648 72.9961 45.5104 72.9928 45.5527V48.1797C72.9928 48.5085 73.1686 48.6973 73.5201 48.7461C73.6731 48.7689 73.7496 48.8063 73.7496 48.8584C73.7496 48.9072 73.7334 48.9349 73.7008 48.9414H71.5231C71.4905 48.9349 71.4742 48.9121 71.4742 48.873C71.4742 48.8112 71.5507 48.7689 71.7037 48.7461C72.0553 48.6973 72.2311 48.5085 72.2311 48.1797V45.377C72.2311 45.2402 72.1562 45.1458 72.0065 45.0938C71.9414 45.071 71.8714 45.0531 71.7965 45.04C71.7216 45.0238 71.6614 45.0091 71.6158 44.9961C71.5735 44.9831 71.5459 44.9717 71.5328 44.9619C71.5231 44.9489 71.5182 44.9245 71.5182 44.8887C71.5182 44.8496 71.5426 44.8171 71.5914 44.791L72.8365 44.2051C72.8756 44.1855 72.9 44.1758 72.9098 44.1758C72.9651 44.1758 72.9928 44.2148 72.9928 44.293V45.0547C73.0026 45.0872 73.0156 45.1035 73.0319 45.1035C73.0514 45.1035 73.1214 45.0742 73.2418 45.0156C73.5218 44.8757 73.8033 44.7406 74.0865 44.6104C74.3698 44.4801 74.6041 44.415 74.7897 44.415C75.5416 44.415 75.9176 45.1003 75.9176 46.4707L75.8737 47.8965V48.1797C75.8737 48.4336 76.0006 48.5996 76.2545 48.6777C76.3619 48.7135 76.4645 48.7396 76.5621 48.7559C76.663 48.7689 76.7281 48.7819 76.7574 48.7949C76.79 48.8079 76.8063 48.834 76.8063 48.873C76.8063 48.9121 76.79 48.9349 76.7574 48.9414H74.4039C74.3714 48.9349 74.3551 48.9121 74.3551 48.873C74.3551 48.8112 74.4316 48.7689 74.5846 48.7461C74.9329 48.6973 75.1071 48.4954 75.1071 48.1406C75.1331 47.9779 75.1461 47.7321 75.1461 47.4033ZM77.2457 48.9414C77.2132 48.9349 77.1969 48.9121 77.1969 48.873C77.1969 48.8145 77.2734 48.7754 77.4264 48.7559C77.778 48.7038 77.9537 48.5182 77.9537 48.1992V45.6162C77.9537 45.4795 77.8789 45.3851 77.7291 45.333C77.664 45.3102 77.594 45.2923 77.5192 45.2793C77.4443 45.263 77.3841 45.2484 77.3385 45.2354C77.2962 45.2223 77.2685 45.2109 77.2555 45.2012C77.2457 45.1882 77.2408 45.1637 77.2408 45.1279C77.2408 45.0889 77.2653 45.0563 77.3141 45.0303L78.5592 44.4443C78.5983 44.4248 78.6227 44.415 78.6324 44.415C78.6878 44.415 78.7155 44.4541 78.7155 44.5322V48.1992C78.7155 48.5182 78.8912 48.7038 79.2428 48.7559C79.3958 48.7754 79.4723 48.8096 79.4723 48.8584C79.4723 48.9072 79.456 48.9349 79.4235 48.9414H77.2457ZM78.2614 43.043C78.1279 43.043 78.0091 43.0007 77.9049 42.916C77.804 42.8314 77.7535 42.7142 77.7535 42.5645C77.7535 42.4115 77.8024 42.291 77.9 42.2031C77.9977 42.1152 78.1132 42.0713 78.2467 42.0713C78.3834 42.0713 78.4974 42.1234 78.5885 42.2275C78.6829 42.3317 78.7301 42.444 78.7301 42.5645C78.7301 42.6849 78.6862 42.7956 78.5983 42.8965C78.5104 42.9941 78.3981 43.043 78.2614 43.043ZM80.8444 46.3682C80.789 46.3682 80.7614 46.487 80.7614 46.7246C80.7614 47.2292 80.9111 47.6523 81.2106 47.9941C81.5101 48.3359 81.8811 48.5068 82.3239 48.5068C82.7698 48.5068 83.1979 48.3148 83.608 47.9307C83.6145 47.9242 83.6227 47.9209 83.6324 47.9209H83.6569C83.6764 47.9209 83.6943 47.9372 83.7106 47.9697C83.7301 47.999 83.748 48.0186 83.7643 48.0283C83.3867 48.4873 82.9423 48.8047 82.4313 48.9805C82.2555 49.0423 82.0569 49.0732 81.8356 49.0732C81.6142 49.0732 81.3896 49.013 81.1617 48.8926C80.9339 48.7689 80.7386 48.6077 80.5758 48.4092C80.2308 47.9958 80.0582 47.4814 80.0582 46.8662C80.0582 46.2477 80.2454 45.6846 80.6198 45.1768C80.9974 44.6689 81.5149 44.415 82.1725 44.415C82.6445 44.415 83.0302 44.6266 83.3297 45.0498C83.6292 45.4697 83.7789 45.8392 83.7789 46.1582C83.7789 46.2982 83.7448 46.3682 83.6764 46.3682H80.8444ZM80.8981 45.8994C80.8981 45.9613 80.9274 45.9922 80.986 45.9922H82.8268C82.9114 45.9922 82.9537 45.9417 82.9537 45.8408C82.9537 45.6064 82.8479 45.3672 82.6364 45.123C82.428 44.8757 82.1985 44.752 81.9479 44.752C81.7037 44.752 81.4808 44.8626 81.2789 45.084C81.0804 45.3053 80.9534 45.5576 80.8981 45.8408V45.8994ZM87.568 45.4404C87.5289 45.4339 87.472 45.4128 87.3971 45.377C87.1269 45.2533 86.9153 45.1914 86.7623 45.1914C86.6093 45.1914 86.4482 45.2874 86.2789 45.4795C86.1129 45.6683 86.0299 45.8392 86.0299 45.9922V48.1992C86.0299 48.4434 86.1715 48.6061 86.4547 48.6875C86.5784 48.7201 86.694 48.7445 86.8014 48.7607C86.9088 48.7738 86.9772 48.7868 87.0065 48.7998C87.039 48.8128 87.0553 48.8389 87.0553 48.8779C87.0553 48.9137 87.039 48.9349 87.0065 48.9414H84.5602C84.5276 48.9349 84.5114 48.9121 84.5114 48.873C84.5114 48.8145 84.5878 48.7754 84.7408 48.7559C85.0924 48.7038 85.2682 48.5182 85.2682 48.1992V45.6162C85.2682 45.4795 85.1933 45.3851 85.0436 45.333C84.9785 45.3102 84.9085 45.2923 84.8336 45.2793C84.7587 45.263 84.6985 45.2484 84.653 45.2354C84.6106 45.2223 84.583 45.2109 84.5699 45.2012C84.5602 45.1882 84.5553 45.1637 84.5553 45.1279C84.5553 45.0889 84.5797 45.0563 84.6285 45.0303L85.8737 44.4443C85.9127 44.4248 85.9371 44.415 85.9469 44.415C86.0022 44.415 86.0299 44.4541 86.0299 44.5322V45.3232C86.0299 45.3623 86.0397 45.3818 86.0592 45.3818C86.0852 45.3818 86.152 45.3053 86.2594 45.1523C86.5686 44.7194 86.8242 44.5029 87.026 44.5029C87.1399 44.5029 87.3141 44.5485 87.5485 44.6396C87.7861 44.7308 87.9049 44.8073 87.9049 44.8691C87.9049 44.944 87.8675 45.0579 87.7926 45.2109C87.7177 45.3639 87.6429 45.4404 87.568 45.4404ZM94.5944 44.8838C94.5944 44.8838 95.0306 44.8643 95.903 44.8252C95.9778 44.8252 96.0267 44.8333 96.0494 44.8496C96.0722 44.8659 96.0966 44.9229 96.1227 45.0205C96.1487 45.1149 96.1617 45.2044 96.1617 45.2891C96.1617 45.3737 96.1536 45.4225 96.1373 45.4355C96.1211 45.4486 96.0885 45.4551 96.0397 45.4551H94.9557C94.9752 45.4909 94.9964 45.5283 95.0192 45.5674C95.042 45.6064 95.0712 45.6715 95.1071 45.7627C95.1429 45.8538 95.1608 45.9954 95.1608 46.1875C95.1608 46.3763 95.1136 46.5749 95.0192 46.7832C94.928 46.9883 94.7929 47.1706 94.6139 47.3301C94.2168 47.6882 93.7024 47.8672 93.0709 47.8672C92.9049 47.8672 92.7226 47.8363 92.524 47.7744C92.4752 47.8265 92.4101 47.8753 92.3287 47.9209C92.2474 47.9632 92.1676 48.0072 92.0895 48.0527C91.8942 48.1634 91.7965 48.2741 91.7965 48.3848C91.7965 48.6615 92.2555 48.8031 93.1735 48.8096C94.0914 48.8161 94.6936 48.847 94.9801 48.9023C95.2698 48.9544 95.4944 49.0602 95.6539 49.2197C95.9046 49.4704 96.0299 49.7568 96.0299 50.0791C96.0299 50.3558 95.9111 50.6406 95.6735 50.9336C95.2601 51.4512 94.6285 51.7962 93.7789 51.9688C93.4762 52.0306 93.1556 52.0615 92.817 52.0615C92.2018 52.0615 91.7347 51.9492 91.4156 51.7246C91.0966 51.5033 90.9371 51.2347 90.9371 50.9189C90.9371 50.7464 90.9778 50.6032 91.0592 50.4893C91.1406 50.3786 91.2431 50.2728 91.3668 50.1719C91.4938 50.0742 91.6321 49.9701 91.7819 49.8594C91.9316 49.752 92.0748 49.6136 92.2115 49.4443C91.899 49.4183 91.6305 49.319 91.4059 49.1465C91.1845 48.974 91.0739 48.8047 91.0739 48.6387C91.0739 48.4727 91.1178 48.3506 91.2057 48.2725C91.2936 48.1911 91.401 48.1227 91.528 48.0674C91.6549 48.0088 91.7884 47.9551 91.9283 47.9062C92.0683 47.8574 92.1904 47.7939 92.2946 47.7158C91.93 47.5726 91.6484 47.3757 91.4498 47.125C91.2513 46.8711 91.152 46.5944 91.152 46.2949C91.152 45.7383 91.3538 45.2842 91.7574 44.9326C92.1643 44.5811 92.6543 44.4053 93.2272 44.4053C93.8001 44.4053 94.2558 44.5648 94.5944 44.8838ZM91.9381 49.9766C91.8632 50.0514 91.8014 50.1312 91.7526 50.2158C91.7037 50.3005 91.6793 50.4062 91.6793 50.5332C91.6793 50.6634 91.7249 50.7985 91.816 50.9385C91.9104 51.0817 92.0374 51.2103 92.1969 51.3242C92.5485 51.5846 92.9716 51.7148 93.4664 51.7148C93.9612 51.7148 94.4088 51.57 94.8092 51.2803C95.2128 50.9938 95.4147 50.6781 95.4147 50.333C95.4147 49.9912 95.2487 49.7617 94.9166 49.6445C94.7604 49.5924 94.3584 49.5599 93.7106 49.5469C93.0628 49.5339 92.6429 49.516 92.4508 49.4932C92.3662 49.5908 92.2783 49.6771 92.1871 49.752C92.0992 49.8268 92.0162 49.9017 91.9381 49.9766ZM94.36 46.1826C94.36 45.7236 94.2444 45.3509 94.0133 45.0645C93.7854 44.7747 93.4827 44.6299 93.1051 44.6299C92.6168 44.6299 92.2718 44.8594 92.0699 45.3184C91.9918 45.4941 91.9528 45.696 91.9528 45.9238C91.9528 46.3893 92.0488 46.7767 92.2408 47.0859C92.4752 47.457 92.7828 47.6426 93.1637 47.6426C93.5446 47.6426 93.8392 47.514 94.0475 47.2568C94.2558 46.9997 94.36 46.6416 94.36 46.1826ZM99.5602 48.1357C99.5602 48.2204 99.5992 48.2887 99.6774 48.3408C99.7587 48.3896 99.8515 48.4141 99.9557 48.4141C100.06 48.4141 100.146 48.388 100.214 48.3359C100.286 48.2806 100.335 48.2529 100.361 48.2529C100.387 48.2529 100.4 48.2887 100.4 48.3604C100.4 48.4287 100.367 48.4873 100.302 48.5361C99.8141 48.8942 99.4837 49.0732 99.3112 49.0732C99.1028 49.0732 98.9336 48.8568 98.8033 48.4238C98.7936 48.3913 98.7854 48.3766 98.7789 48.3799C98.3753 48.6826 98.1214 48.8649 98.0172 48.9268C97.7503 49.0798 97.4817 49.1042 97.2115 49C96.9446 48.8958 96.7509 48.7233 96.6305 48.4824C96.5719 48.3587 96.5426 48.2269 96.5426 48.0869C96.5426 47.8102 96.6451 47.5905 96.8502 47.4277C97.0553 47.265 97.4459 47.1087 98.0221 46.959C98.2174 46.9069 98.3916 46.8402 98.5446 46.7588C98.6976 46.6774 98.7773 46.6253 98.7838 46.6025C98.7936 46.5798 98.7985 46.5586 98.7985 46.5391V45.6016C98.7985 45.2337 98.6552 44.9749 98.3688 44.8252C98.2744 44.7764 98.1604 44.752 98.027 44.752C97.8968 44.752 97.7633 44.804 97.6266 44.9082C97.4931 45.0124 97.4264 45.1605 97.4264 45.3525L97.4508 45.543C97.4313 45.582 97.3141 45.6471 97.0992 45.7383C96.8844 45.8294 96.7607 45.8783 96.7281 45.8848C96.6761 45.8848 96.65 45.8229 96.65 45.6992C96.65 45.5723 96.6875 45.4323 96.7623 45.2793C96.8372 45.1263 96.943 44.9863 97.0797 44.8594C97.3987 44.5632 97.7633 44.415 98.1735 44.415C98.5836 44.415 98.9173 44.529 99.1744 44.7568C99.4316 44.9814 99.5602 45.25 99.5602 45.5625V48.1357ZM97.3092 47.9941C97.3092 48.1504 97.3694 48.2871 97.4899 48.4043C97.6103 48.5182 97.747 48.5752 97.9 48.5752C98.0563 48.5752 98.2451 48.5101 98.4664 48.3799C98.6878 48.2464 98.7985 48.1097 98.7985 47.9697V46.9785C98.7985 46.9427 98.7903 46.9248 98.774 46.9248C98.7578 46.9248 98.7464 46.9264 98.7399 46.9297L97.6071 47.457C97.4899 47.5417 97.4101 47.6133 97.3678 47.6719C97.3287 47.7305 97.3092 47.8379 97.3092 47.9941ZM102.06 44.8545C102.06 44.9554 102.083 45.0059 102.129 45.0059C102.177 45.0059 102.386 44.9001 102.754 44.6885C103.183 44.5062 103.51 44.415 103.735 44.415C103.96 44.415 104.174 44.4801 104.38 44.6104C104.585 44.7406 104.759 44.9115 104.902 45.123C105.205 45.5592 105.356 46.0882 105.356 46.71C105.356 47.3317 105.14 47.8818 104.707 48.3604C104.277 48.8356 103.709 49.0732 103.003 49.0732C102.544 49.0732 102.12 49.0179 101.733 48.9072C101.619 48.8747 101.521 48.8486 101.44 48.8291C101.362 48.8096 101.318 48.79 101.308 48.7705C101.302 48.7477 101.298 48.7217 101.298 48.6924V42.1104C101.298 41.9736 101.224 41.8792 101.074 41.8271C101.009 41.8044 100.939 41.7865 100.864 41.7734C100.789 41.7572 100.729 41.7425 100.683 41.7295C100.641 41.7165 100.613 41.7051 100.6 41.6953C100.59 41.6823 100.586 41.6579 100.586 41.6221C100.586 41.583 100.61 41.5505 100.659 41.5244L101.904 40.9385C101.943 40.9189 101.967 40.9092 101.977 40.9092C102.033 40.9092 102.06 40.9482 102.06 41.0264V44.8545ZM103.095 45.0107C102.806 45.0107 102.48 45.1149 102.119 45.3232C102.08 45.346 102.06 45.3851 102.06 45.4404V47.75C102.093 48.0462 102.221 48.2773 102.446 48.4434C102.671 48.6094 102.916 48.6924 103.183 48.6924C103.652 48.6924 104.013 48.5068 104.267 48.1357C104.524 47.7646 104.653 47.3415 104.653 46.8662C104.653 46.391 104.523 45.9629 104.262 45.582C104.002 45.2012 103.613 45.0107 103.095 45.0107ZM109.257 48.1357C109.257 48.2204 109.297 48.2887 109.375 48.3408C109.456 48.3896 109.549 48.4141 109.653 48.4141C109.757 48.4141 109.843 48.388 109.912 48.3359C109.983 48.2806 110.032 48.2529 110.058 48.2529C110.084 48.2529 110.097 48.2887 110.097 48.3604C110.097 48.4287 110.065 48.4873 110 48.5361C109.511 48.8942 109.181 49.0732 109.008 49.0732C108.8 49.0732 108.631 48.8568 108.501 48.4238C108.491 48.3913 108.483 48.3766 108.476 48.3799C108.073 48.6826 107.819 48.8649 107.714 48.9268C107.448 49.0798 107.179 49.1042 106.909 49C106.642 48.8958 106.448 48.7233 106.328 48.4824C106.269 48.3587 106.24 48.2269 106.24 48.0869C106.24 47.8102 106.342 47.5905 106.547 47.4277C106.753 47.265 107.143 47.1087 107.719 46.959C107.915 46.9069 108.089 46.8402 108.242 46.7588C108.395 46.6774 108.475 46.6253 108.481 46.6025C108.491 46.5798 108.496 46.5586 108.496 46.5391V45.6016C108.496 45.2337 108.352 44.9749 108.066 44.8252C107.972 44.7764 107.858 44.752 107.724 44.752C107.594 44.752 107.461 44.804 107.324 44.9082C107.19 45.0124 107.124 45.1605 107.124 45.3525L107.148 45.543C107.129 45.582 107.011 45.6471 106.797 45.7383C106.582 45.8294 106.458 45.8783 106.425 45.8848C106.373 45.8848 106.347 45.8229 106.347 45.6992C106.347 45.5723 106.385 45.4323 106.46 45.2793C106.534 45.1263 106.64 44.9863 106.777 44.8594C107.096 44.5632 107.461 44.415 107.871 44.415C108.281 44.415 108.615 44.529 108.872 44.7568C109.129 44.9814 109.257 45.25 109.257 45.5625V48.1357ZM107.006 47.9941C107.006 48.1504 107.067 48.2871 107.187 48.4043C107.308 48.5182 107.444 48.5752 107.597 48.5752C107.754 48.5752 107.942 48.5101 108.164 48.3799C108.385 48.2464 108.496 48.1097 108.496 47.9697V46.9785C108.496 46.9427 108.488 46.9248 108.471 46.9248C108.455 46.9248 108.444 46.9264 108.437 46.9297L107.304 47.457C107.187 47.5417 107.107 47.6133 107.065 47.6719C107.026 47.7305 107.006 47.8379 107.006 47.9941ZM113.535 45.4404C113.496 45.4339 113.439 45.4128 113.364 45.377C113.094 45.2533 112.882 45.1914 112.729 45.1914C112.576 45.1914 112.415 45.2874 112.246 45.4795C112.08 45.6683 111.997 45.8392 111.997 45.9922V48.1992C111.997 48.4434 112.138 48.6061 112.422 48.6875C112.545 48.7201 112.661 48.7445 112.768 48.7607C112.876 48.7738 112.944 48.7868 112.973 48.7998C113.006 48.8128 113.022 48.8389 113.022 48.8779C113.022 48.9137 113.006 48.9349 112.973 48.9414H110.527C110.494 48.9349 110.478 48.9121 110.478 48.873C110.478 48.8145 110.555 48.7754 110.708 48.7559C111.059 48.7038 111.235 48.5182 111.235 48.1992V45.6162C111.235 45.4795 111.16 45.3851 111.01 45.333C110.945 45.3102 110.875 45.2923 110.8 45.2793C110.726 45.263 110.665 45.2484 110.62 45.2354C110.577 45.2223 110.55 45.2109 110.537 45.2012C110.527 45.1882 110.522 45.1637 110.522 45.1279C110.522 45.0889 110.547 45.0563 110.595 45.0303L111.84 44.4443C111.88 44.4248 111.904 44.415 111.914 44.415C111.969 44.415 111.997 44.4541 111.997 44.5322V45.3232C111.997 45.3623 112.006 45.3818 112.026 45.3818C112.052 45.3818 112.119 45.3053 112.226 45.1523C112.535 44.7194 112.791 44.5029 112.993 44.5029C113.107 44.5029 113.281 44.5485 113.515 44.6396C113.753 44.7308 113.872 44.8073 113.872 44.8691C113.872 44.944 113.834 45.0579 113.759 45.2109C113.685 45.3639 113.61 45.4404 113.535 45.4404ZM114.218 48.9414C114.186 48.9349 114.17 48.9121 114.17 48.873C114.17 48.8145 114.246 48.7754 114.399 48.7559C114.751 48.7038 114.926 48.5182 114.926 48.1992V45.6162C114.926 45.4795 114.852 45.3851 114.702 45.333C114.637 45.3102 114.567 45.2923 114.492 45.2793C114.417 45.263 114.357 45.2484 114.311 45.2354C114.269 45.2223 114.241 45.2109 114.228 45.2012C114.218 45.1882 114.214 45.1637 114.214 45.1279C114.214 45.0889 114.238 45.0563 114.287 45.0303L115.532 44.4443C115.571 44.4248 115.595 44.415 115.605 44.415C115.66 44.415 115.688 44.4541 115.688 44.5322V48.1992C115.688 48.5182 115.864 48.7038 116.215 48.7559C116.368 48.7754 116.445 48.8096 116.445 48.8584C116.445 48.9072 116.429 48.9349 116.396 48.9414H114.218ZM115.234 43.043C115.101 43.043 114.982 43.0007 114.878 42.916C114.777 42.8314 114.726 42.7142 114.726 42.5645C114.726 42.4115 114.775 42.291 114.873 42.2031C114.97 42.1152 115.086 42.0713 115.219 42.0713C115.356 42.0713 115.47 42.1234 115.561 42.2275C115.656 42.3317 115.703 42.444 115.703 42.5645C115.703 42.6849 115.659 42.7956 115.571 42.8965C115.483 42.9941 115.371 43.043 115.234 43.043ZM117.817 46.3682C117.762 46.3682 117.734 46.487 117.734 46.7246C117.734 47.2292 117.884 47.6523 118.183 47.9941C118.483 48.3359 118.854 48.5068 119.297 48.5068C119.742 48.5068 120.171 48.3148 120.581 47.9307C120.587 47.9242 120.595 47.9209 120.605 47.9209H120.63C120.649 47.9209 120.667 47.9372 120.683 47.9697C120.703 47.999 120.721 48.0186 120.737 48.0283C120.359 48.4873 119.915 48.8047 119.404 48.9805C119.228 49.0423 119.03 49.0732 118.808 49.0732C118.587 49.0732 118.362 49.013 118.134 48.8926C117.907 48.7689 117.711 48.6077 117.548 48.4092C117.203 47.9958 117.031 47.4814 117.031 46.8662C117.031 46.2477 117.218 45.6846 117.592 45.1768C117.97 44.6689 118.488 44.415 119.145 44.415C119.617 44.415 120.003 44.6266 120.302 45.0498C120.602 45.4697 120.752 45.8392 120.752 46.1582C120.752 46.2982 120.717 46.3682 120.649 46.3682H117.817ZM117.871 45.8994C117.871 45.9613 117.9 45.9922 117.959 45.9922H119.799C119.884 45.9922 119.926 45.9417 119.926 45.8408C119.926 45.6064 119.821 45.3672 119.609 45.123C119.401 44.8757 119.171 44.752 118.921 44.752C118.676 44.752 118.453 44.8626 118.252 45.084C118.053 45.3053 117.926 45.5576 117.871 45.8408V45.8994ZM125.044 46.3682C124.988 46.3682 124.961 46.487 124.961 46.7246C124.961 47.2292 125.11 47.6523 125.41 47.9941C125.709 48.3359 126.08 48.5068 126.523 48.5068C126.969 48.5068 127.397 48.3148 127.807 47.9307C127.814 47.9242 127.822 47.9209 127.832 47.9209H127.856C127.876 47.9209 127.894 47.9372 127.91 47.9697C127.929 47.999 127.947 48.0186 127.964 48.0283C127.586 48.4873 127.142 48.8047 126.63 48.9805C126.455 49.0423 126.256 49.0732 126.035 49.0732C125.813 49.0732 125.589 49.013 125.361 48.8926C125.133 48.7689 124.938 48.6077 124.775 48.4092C124.43 47.9958 124.257 47.4814 124.257 46.8662C124.257 46.2477 124.445 45.6846 124.819 45.1768C125.197 44.6689 125.714 44.415 126.372 44.415C126.844 44.415 127.229 44.6266 127.529 45.0498C127.828 45.4697 127.978 45.8392 127.978 46.1582C127.978 46.2982 127.944 46.3682 127.876 46.3682H125.044ZM125.097 45.8994C125.097 45.9613 125.127 45.9922 125.185 45.9922H127.026C127.111 45.9922 127.153 45.9417 127.153 45.8408C127.153 45.6064 127.047 45.3672 126.836 45.123C126.627 44.8757 126.398 44.752 126.147 44.752C125.903 44.752 125.68 44.8626 125.478 45.084C125.28 45.3053 125.153 45.5576 125.097 45.8408V45.8994ZM132.382 47.4033L132.373 46.373C132.373 45.9531 132.337 45.6585 132.265 45.4893C132.194 45.32 132.102 45.193 131.992 45.1084C131.881 45.0205 131.731 44.9766 131.543 44.9766C131.357 44.9766 130.962 45.123 130.356 45.416C130.275 45.4648 130.232 45.5104 130.229 45.5527V48.1797C130.229 48.5085 130.405 48.6973 130.756 48.7461C130.909 48.7689 130.986 48.8063 130.986 48.8584C130.986 48.9072 130.97 48.9349 130.937 48.9414H128.759C128.727 48.9349 128.711 48.9121 128.711 48.873C128.711 48.8112 128.787 48.7689 128.94 48.7461C129.292 48.6973 129.467 48.5085 129.467 48.1797V45.377C129.467 45.2402 129.393 45.1458 129.243 45.0938C129.178 45.071 129.108 45.0531 129.033 45.04C128.958 45.0238 128.898 45.0091 128.852 44.9961C128.81 44.9831 128.782 44.9717 128.769 44.9619C128.759 44.9489 128.755 44.9245 128.755 44.8887C128.755 44.8496 128.779 44.8171 128.828 44.791L130.073 44.2051C130.112 44.1855 130.136 44.1758 130.146 44.1758C130.201 44.1758 130.229 44.2148 130.229 44.293V45.0547C130.239 45.0872 130.252 45.1035 130.268 45.1035C130.288 45.1035 130.358 45.0742 130.478 45.0156C130.758 44.8757 131.04 44.7406 131.323 44.6104C131.606 44.4801 131.84 44.415 132.026 44.415C132.778 44.415 133.154 45.1003 133.154 46.4707L133.11 47.8965V48.1797C133.11 48.4336 133.237 48.5996 133.491 48.6777C133.598 48.7135 133.701 48.7396 133.798 48.7559C133.899 48.7689 133.964 48.7819 133.994 48.7949C134.026 48.8079 134.043 48.834 134.043 48.873C134.043 48.9121 134.026 48.9349 133.994 48.9414H131.64C131.608 48.9349 131.591 48.9121 131.591 48.873C131.591 48.8112 131.668 48.7689 131.821 48.7461C132.169 48.6973 132.343 48.4954 132.343 48.1406C132.369 47.9779 132.382 47.7321 132.382 47.4033ZM63.5201 58.8545C63.5201 58.9554 63.5429 59.0059 63.5885 59.0059C63.6373 59.0059 63.8457 58.9001 64.2135 58.6885C64.6432 58.5062 64.9703 58.415 65.1949 58.415C65.4196 58.415 65.6344 58.4801 65.8395 58.6104C66.0446 58.7406 66.2187 58.9115 66.3619 59.123C66.6647 59.5592 66.816 60.0882 66.816 60.71C66.816 61.3317 66.5996 61.8818 66.1666 62.3604C65.7369 62.8356 65.1689 63.0732 64.4625 63.0732C64.0035 63.0732 63.5804 63.0179 63.193 62.9072C63.0791 62.8747 62.9814 62.8486 62.9 62.8291C62.8219 62.8096 62.778 62.79 62.7682 62.7705C62.7617 62.7477 62.7584 62.7217 62.7584 62.6924V56.1104C62.7584 55.9736 62.6836 55.8792 62.5338 55.8271C62.4687 55.8044 62.3987 55.7865 62.3239 55.7734C62.249 55.7572 62.1888 55.7425 62.1432 55.7295C62.1009 55.7165 62.0732 55.7051 62.0602 55.6953C62.0504 55.6823 62.0455 55.6579 62.0455 55.6221C62.0455 55.583 62.0699 55.5505 62.1188 55.5244L63.3639 54.9385C63.403 54.9189 63.4274 54.9092 63.4371 54.9092C63.4925 54.9092 63.5201 54.9482 63.5201 55.0264V58.8545ZM64.5553 59.0107C64.2656 59.0107 63.9401 59.1149 63.5787 59.3232C63.5397 59.346 63.5201 59.3851 63.5201 59.4404V61.75C63.5527 62.0462 63.6813 62.2773 63.9059 62.4434C64.1305 62.6094 64.3763 62.6924 64.6432 62.6924C65.1119 62.6924 65.4733 62.5068 65.7272 62.1357C65.9843 61.7646 66.1129 61.3415 66.1129 60.8662C66.1129 60.391 65.9827 59.9629 65.7223 59.582C65.4619 59.2012 65.0729 59.0107 64.5553 59.0107ZM67.7242 60.749C67.7242 60.1077 67.9505 59.5576 68.403 59.0986C68.8587 58.6364 69.4039 58.4053 70.0387 58.4053C70.6735 58.4053 71.2252 58.6299 71.694 59.0791C72.1627 59.5251 72.3971 60.0768 72.3971 60.7344C72.3971 61.3919 72.1741 61.9469 71.7281 62.3994C71.2854 62.8486 70.7288 63.0732 70.0582 63.0732C69.3877 63.0732 68.831 62.8454 68.3883 62.3896C67.9456 61.9339 67.7242 61.387 67.7242 60.749ZM68.9401 62.0039C69.2591 62.541 69.6936 62.8096 70.2438 62.8096C70.6702 62.8096 70.9957 62.6387 71.2203 62.2969C71.4482 61.9551 71.5621 61.5352 71.5621 61.0371C71.5621 60.5391 71.4026 60.028 71.0836 59.5039C70.7679 58.9798 70.3414 58.7178 69.8043 58.7178C69.4104 58.7178 69.0996 58.8887 68.8717 59.2305C68.6471 59.569 68.5348 60.0003 68.5348 60.5244C68.5348 61.0452 68.6699 61.5384 68.9401 62.0039ZM73.11 62.9414C73.0774 62.9349 73.0612 62.9121 73.0612 62.873C73.0612 62.8145 73.1377 62.7754 73.2906 62.7559C73.6422 62.7038 73.818 62.5182 73.818 62.1992V59.6162C73.818 59.4795 73.7431 59.3851 73.5934 59.333C73.5283 59.3102 73.4583 59.2923 73.3834 59.2793C73.3086 59.263 73.2483 59.2484 73.2028 59.2354C73.1604 59.2223 73.1328 59.2109 73.1198 59.2012C73.11 59.1882 73.1051 59.1637 73.1051 59.1279C73.1051 59.0889 73.1295 59.0563 73.1783 59.0303L74.4235 58.4443C74.4625 58.4248 74.4869 58.415 74.4967 58.415C74.552 58.415 74.5797 58.4541 74.5797 58.5322V62.1992C74.5797 62.5182 74.7555 62.7038 75.1071 62.7559C75.2601 62.7754 75.3365 62.8096 75.3365 62.8584C75.3365 62.9072 75.3203 62.9349 75.2877 62.9414H73.11ZM74.1256 57.043C73.9921 57.043 73.8733 57.0007 73.7692 56.916C73.6683 56.8314 73.6178 56.7142 73.6178 56.5645C73.6178 56.4115 73.6666 56.291 73.7643 56.2031C73.8619 56.1152 73.9775 56.0713 74.111 56.0713C74.2477 56.0713 74.3616 56.1234 74.4528 56.2275C74.5472 56.3317 74.5944 56.444 74.5944 56.5645C74.5944 56.6849 74.5504 56.7956 74.4625 56.8965C74.3746 56.9941 74.2623 57.043 74.1256 57.043ZM78.2906 59.6016C78.2906 59.6732 78.263 59.709 78.2076 59.709C78.1556 59.709 78.1149 59.6699 78.0856 59.5918C78.0074 59.377 77.8903 59.1865 77.734 59.0205C77.581 58.8545 77.3906 58.7715 77.1627 58.7715C76.8632 58.7715 76.6614 58.9212 76.5573 59.2207C76.5247 59.3216 76.5084 59.4258 76.5084 59.5332C76.5084 59.6406 76.5768 59.7611 76.7135 59.8945C76.8502 60.0247 77.0748 60.181 77.3873 60.3633C77.6998 60.5456 77.9277 60.7002 78.0709 60.8271C78.3964 61.1169 78.5592 61.4521 78.5592 61.833C78.5592 62.2139 78.4192 62.5166 78.1393 62.7412C77.8593 62.9626 77.5338 63.0732 77.1627 63.0732C76.9642 63.0732 76.7835 63.0456 76.6207 62.9902C76.4612 62.9382 76.3684 62.9121 76.3424 62.9121C76.3196 62.9121 76.2806 62.9382 76.2252 62.9902C76.1731 63.0456 76.1308 63.0732 76.0983 63.0732H76.0153C75.9957 63.0732 75.9713 62.8975 75.942 62.5459C75.9127 62.1943 75.8981 61.986 75.8981 61.9209C75.8981 61.8558 75.903 61.82 75.9127 61.8135C75.9257 61.807 75.9453 61.8037 75.9713 61.8037C75.9974 61.8037 76.0185 61.8118 76.0348 61.8281C76.0543 61.8444 76.0706 61.8656 76.0836 61.8916C76.0966 61.9144 76.1064 61.9388 76.1129 61.9648C76.1227 61.9909 76.1438 62.0397 76.1764 62.1113C76.3977 62.5833 76.7395 62.8193 77.2018 62.8193C77.4069 62.8193 77.5712 62.7445 77.6949 62.5947C77.8186 62.4417 77.8805 62.2725 77.8805 62.0869C77.8805 61.9014 77.8317 61.7451 77.734 61.6182C77.6364 61.4912 77.5143 61.3757 77.3678 61.2715C77.2246 61.1673 77.0683 61.0664 76.899 60.9688C76.2415 60.5846 75.9127 60.1598 75.9127 59.6943C75.9127 59.346 76.0625 59.0465 76.3619 58.7959C76.6614 58.542 76.969 58.415 77.2848 58.415C77.6005 58.415 77.8333 58.4492 77.983 58.5176C78.136 58.5859 78.2255 58.6445 78.2516 58.6934C78.2776 58.7389 78.2906 58.8919 78.2906 59.1523V59.6016ZM83.0319 61.1299C83.0319 61.1722 82.9977 61.1934 82.9293 61.1934C82.861 61.1934 82.7568 61.0387 82.6168 60.7295C82.4801 60.4202 82.4101 60.1924 82.4069 60.0459C82.4036 59.8994 82.4199 59.7773 82.4557 59.6797C82.4948 59.5788 82.5468 59.4941 82.6119 59.4258C82.677 59.3542 82.7535 59.2939 82.8414 59.2451C82.9293 59.1963 83.0221 59.1523 83.1198 59.1133C83.2174 59.0742 83.3183 59.0384 83.4225 59.0059C83.5299 58.9701 83.6341 58.931 83.735 58.8887C83.9563 58.7975 84.1517 58.6478 84.3209 58.4395C84.4902 58.2279 84.5748 58.013 84.5748 57.7949C84.5748 57.3978 84.4251 57.1374 84.1256 57.0137C83.8261 56.8867 83.3118 56.8232 82.5826 56.8232C82.3548 56.8102 82.1953 56.7435 82.1041 56.623C82.0716 56.5775 82.0553 56.5205 82.0553 56.4521C82.0553 56.1722 82.3304 56.0322 82.8805 56.0322C83.4339 56.0322 83.8929 56.2113 84.2574 56.5693C84.622 56.9274 84.8043 57.3864 84.8043 57.9463C84.8043 58.5029 84.5699 58.9782 84.1012 59.3721C83.8798 59.5576 83.6748 59.6813 83.486 59.7432C83.2972 59.8018 83.1572 59.8555 83.066 59.9043C82.8512 60.015 82.7438 60.168 82.7438 60.3633C82.7438 60.4642 82.7845 60.5944 82.8658 60.7539C82.9505 60.9134 83.0058 61.0387 83.0319 61.1299ZM82.3629 62.502C82.3629 62.349 82.4183 62.2171 82.5289 62.1064C82.6396 61.9958 82.7714 61.9404 82.9244 61.9404C83.0742 61.9404 83.2044 61.9958 83.3151 62.1064C83.4257 62.2171 83.4811 62.349 83.4811 62.502C83.4811 62.6549 83.4257 62.7884 83.3151 62.9023C83.2076 63.0163 83.0774 63.0732 82.9244 63.0732C82.7682 63.0732 82.6347 63.0163 82.524 62.9023C82.4166 62.7884 82.3629 62.6549 82.3629 62.502Z" fill="#EFB85F"/>
<path d="M17.5002 10L18.696 11.9748L21 13L18.696 14.0249L17.5002 16L16.304 14.0249L14 13L16.304 11.9748L17.5002 10Z" fill="#EFB85F"/>
<path d="M17.5002 86L18.696 87.9748L21 89L18.696 90.0249L17.5002 92L16.304 90.0249L14 89L16.304 87.9748L17.5002 86Z" fill="#EFB85F"/>
<path d="M124.5 84L125.696 85.9748L128 87L125.696 88.0249L124.5 90L123.304 88.0249L121 87L123.304 85.9748L124.5 84Z" fill="#EFB85F"/>
<path d="M80.5002 90L81.696 91.9748L84 93L81.696 94.0249L80.5002 96L79.304 94.0249L77 93L79.304 91.9748L80.5002 90Z" fill="#EFB85F"/>
<path d="M120.5 7L121.696 8.97475L124 10L121.696 11.0249L120.5 13L119.304 11.0249L117 10L119.304 8.97475L120.5 7Z" fill="#EFB85F"/>
<path d="M95.125 16.6259C95.1509 16.3615 95.1942 15.7335 95.2288 15.2377C95.2634 14.6647 95.324 14.3011 95.3932 14.2681C95.4538 14.235 95.7307 14.4113 95.999 14.6537C96.2759 14.9071 96.5182 15.0834 96.5441 15.0504C96.5615 15.0283 96.397 14.6757 96.1807 14.2791C95.9038 13.7943 95.8086 13.5519 95.8865 13.5189C95.9471 13.4968 96.3884 13.4197 96.8643 13.3426C98.3873 13.1222 98.3787 13.001 96.8384 12.7917C96.3019 12.7145 95.8519 12.6154 95.8346 12.5823C95.8086 12.5382 95.973 12.2187 96.1807 11.8661C96.3884 11.5025 96.5441 11.183 96.5182 11.15C96.4922 11.1279 96.2326 11.3152 95.9471 11.5687C95.6528 11.8331 95.3932 11.9984 95.3586 11.9543C95.3154 11.8992 95.2461 11.2381 95.1856 10.4779C95.0298 8.49462 94.9606 8.50564 94.7962 10.5219C94.7356 11.2822 94.6664 11.9433 94.6317 11.9763C94.6058 12.0094 94.3462 11.8331 94.052 11.5797C93.7664 11.3152 93.5155 11.1279 93.4895 11.161C93.4722 11.183 93.602 11.4805 93.7924 11.8111C93.9827 12.1306 94.1385 12.4611 94.1385 12.5272C94.1385 12.6044 93.7664 12.7035 93.1607 12.7917C91.6117 13.001 91.6117 13.1222 93.1693 13.3536C93.7577 13.4417 94.1385 13.5519 94.1385 13.618C94.1385 13.6841 93.9827 14.0147 93.7924 14.3342C93.3857 15.0283 93.351 15.2046 93.6799 14.9292C93.8183 14.83 94.0693 14.6096 94.251 14.4554C94.6664 14.1138 94.701 14.1689 94.7789 15.3589C94.8913 17.1107 95.0211 17.5735 95.125 16.6259Z" fill="#EFB85F"/>
<path d="M39.125 89.6259C39.1509 89.3615 39.1942 88.7335 39.2288 88.2377C39.2634 87.6647 39.324 87.3011 39.3932 87.2681C39.4538 87.235 39.7307 87.4113 39.999 87.6537C40.2759 87.9071 40.5182 88.0834 40.5441 88.0504C40.5615 88.0283 40.397 87.6757 40.1807 87.2791C39.9038 86.7943 39.8086 86.5519 39.8865 86.5189C39.9471 86.4968 40.3884 86.4197 40.8643 86.3426C42.3873 86.1222 42.3787 86.001 40.8384 85.7917C40.3019 85.7145 39.8519 85.6154 39.8346 85.5823C39.8086 85.5382 39.973 85.2187 40.1807 84.8661C40.3884 84.5025 40.5441 84.183 40.5182 84.15C40.4922 84.1279 40.2326 84.3152 39.9471 84.5687C39.6528 84.8331 39.3932 84.9984 39.3586 84.9543C39.3154 84.8992 39.2461 84.2381 39.1856 83.4779C39.0298 81.4946 38.9606 81.5056 38.7962 83.5219C38.7356 84.2822 38.6664 84.9433 38.6317 84.9763C38.6058 85.0094 38.3462 84.8331 38.052 84.5797C37.7664 84.3152 37.5155 84.1279 37.4895 84.161C37.4722 84.183 37.602 84.4805 37.7924 84.8111C37.9827 85.1306 38.1385 85.4611 38.1385 85.5272C38.1385 85.6044 37.7664 85.7035 37.1607 85.7917C35.6117 86.001 35.6117 86.1222 37.1693 86.3536C37.7577 86.4417 38.1385 86.5519 38.1385 86.618C38.1385 86.6841 37.9827 87.0147 37.7924 87.3342C37.3857 88.0283 37.351 88.2046 37.6799 87.9292C37.8183 87.83 38.0693 87.6096 38.251 87.4554C38.6664 87.1138 38.701 87.1689 38.7789 88.3589C38.8913 90.1107 39.0211 90.5735 39.125 89.6259Z" fill="#EFB85F"/>
<path d="M110.125 99.6259C110.151 99.3615 110.194 98.7335 110.229 98.2377C110.263 97.6647 110.324 97.3011 110.393 97.2681C110.454 97.235 110.731 97.4113 110.999 97.6537C111.276 97.9071 111.518 98.0834 111.544 98.0504C111.561 98.0283 111.397 97.6757 111.181 97.2791C110.904 96.7943 110.809 96.5519 110.886 96.5189C110.947 96.4968 111.388 96.4197 111.864 96.3426C113.387 96.1222 113.379 96.001 111.838 95.7917C111.302 95.7145 110.852 95.6154 110.835 95.5823C110.809 95.5382 110.973 95.2187 111.181 94.8661C111.388 94.5025 111.544 94.183 111.518 94.15C111.492 94.1279 111.233 94.3152 110.947 94.5687C110.653 94.8331 110.393 94.9984 110.359 94.9543C110.315 94.8992 110.246 94.2381 110.186 93.4779C110.03 91.4946 109.961 91.5056 109.796 93.5219C109.736 94.2822 109.666 94.9433 109.632 94.9763C109.606 95.0094 109.346 94.8331 109.052 94.5797C108.766 94.3152 108.515 94.1279 108.489 94.161C108.472 94.183 108.602 94.4805 108.792 94.8111C108.983 95.1306 109.138 95.4611 109.138 95.5272C109.138 95.6044 108.766 95.7035 108.161 95.7917C106.612 96.001 106.612 96.1222 108.169 96.3536C108.758 96.4417 109.138 96.5519 109.138 96.618C109.138 96.6841 108.983 97.0147 108.792 97.3342C108.386 98.0283 108.351 98.2046 108.68 97.9292C108.818 97.83 109.069 97.6096 109.251 97.4554C109.666 97.1138 109.701 97.1689 109.779 98.3589C109.891 100.111 110.021 100.573 110.125 99.6259Z" fill="#EFB85F"/>
<path d="M53.125 12.6259C53.1509 12.3615 53.1942 11.7335 53.2288 11.2377C53.2634 10.6647 53.324 10.3011 53.3932 10.2681C53.4538 10.235 53.7307 10.4113 53.999 10.6537C54.2759 10.9071 54.5182 11.0834 54.5441 11.0504C54.5615 11.0283 54.397 10.6757 54.1807 10.2791C53.9038 9.7943 53.8086 9.55191 53.8865 9.51885C53.9471 9.49682 54.3884 9.41969 54.8643 9.34256C56.3873 9.1222 56.3787 9.001 54.8384 8.79166C54.3019 8.71453 53.8519 8.61537 53.8346 8.58232C53.8086 8.53825 53.973 8.21872 54.1807 7.86614C54.3884 7.50255 54.5441 7.18302 54.5182 7.14997C54.4922 7.12793 54.2326 7.31524 53.9471 7.56866C53.6528 7.83309 53.3932 7.99836 53.3586 7.95429C53.3154 7.8992 53.2461 7.23811 53.1856 6.47787C53.0298 4.49462 52.9606 4.50564 52.7962 6.52194C52.7356 7.28219 52.6664 7.94327 52.6317 7.97632C52.6058 8.00938 52.3462 7.83309 52.052 7.57967C51.7664 7.31524 51.5155 7.12793 51.4895 7.16099C51.4722 7.18302 51.602 7.48051 51.7924 7.81105C51.9827 8.13058 52.1385 8.46112 52.1385 8.52723C52.1385 8.60435 51.7664 8.70352 51.1607 8.79166C49.6117 9.001 49.6117 9.1222 51.1693 9.35358C51.7577 9.44173 52.1385 9.55191 52.1385 9.61802C52.1385 9.68412 51.9827 10.0147 51.7924 10.3342C51.3857 11.0283 51.351 11.2046 51.6799 10.9292C51.8183 10.83 52.0693 10.6096 52.251 10.4554C52.6664 10.1138 52.701 10.1689 52.7789 11.3589C52.8913 13.1107 53.0211 13.5735 53.125 12.6259Z" fill="#EFB85F"/>
<circle cx="26" cy="81" r="1" fill="#EFB85F"/>
<circle cx="57" cy="96" r="1" fill="#EFB85F"/>
<circle cx="111" cy="84" r="1" fill="#EFB85F"/>
<circle cx="139" cy="16" r="1" fill="#EFB85F"/>
<circle cx="143" cy="55" r="1" fill="#EFB85F"/>
<circle cx="139" cy="93" r="1" fill="#EFB85F"/>
<circle cx="36" cy="10" r="1" fill="#EFB85F"/>
<circle cx="75" cy="6" r="1" fill="#EFB85F"/>
<path d="M30.1536 96.762L33.0001 96.6487L30.1536 96.5354L31.0464 95.3761L30.0932 96.4619L30 93L29.9069 96.4619L28.9537 95.3761L29.8465 96.5354L27 96.6487L29.8465 96.762L28.9537 97.9212L29.9069 96.8354L30 100.297L30.0932 96.8354L31.0464 97.9212L30.1536 96.762Z" fill="#EFB85F"/>
<path d="M11.1536 76.762L14.0001 76.6487L11.1536 76.5354L12.0464 75.3761L11.0932 76.4619L11 73L10.9069 76.4619L9.95375 75.3761L10.8465 76.5354L8 76.6487L10.8465 76.762L9.95375 77.9212L10.9069 76.8354L11 80.2973L11.0932 76.8354L12.0464 77.9212L11.1536 76.762Z" fill="#EFB85F"/>
<path d="M68.1536 11.762L71.0001 11.6487L68.1536 11.5354L69.0464 10.3761L68.0932 11.4619L68 8L67.9069 11.4619L66.9537 10.3761L67.8465 11.5354L65 11.6487L67.8465 11.762L66.9537 12.9212L67.9069 11.8354L68 15.2973L68.0932 11.8354L69.0464 12.9212L68.1536 11.762Z" fill="#EFB85F"/>
<path d="M137.154 76.762L140 76.6487L137.154 76.5354L138.046 75.3761L137.093 76.4619L137 73L136.907 76.4619L135.954 75.3761L136.847 76.5354L134 76.6487L136.847 76.762L135.954 77.9212L136.907 76.8354L137 80.2973L137.093 76.8354L138.046 77.9212L137.154 76.762Z" fill="#EFB85F"/>
<path d="M129.154 95.762L132 95.6487L129.154 95.5354L130.046 94.3761L129.093 95.4619L129 92L128.907 95.4619L127.954 94.3761L128.847 95.5354L126 95.6487L128.847 95.762L127.954 96.9212L128.907 95.8354L129 99.2973L129.093 95.8354L130.046 96.9212L129.154 95.762Z" fill="#EFB85F"/>
<path d="M8.15357 18.762L11.0001 18.6487L8.15357 18.5354L9.04635 17.3761L8.09316 18.4619L8.00005 15L7.90694 18.4619L6.95375 17.3761L7.84653 18.5354L5 18.6487L7.84653 18.762L6.95375 19.9212L7.90694 18.8354L8.00005 22.2973L8.09316 18.8354L9.04635 19.9212L8.15357 18.762Z" fill="#EFB85F"/>
</svg>
