<svg width="148" height="105" viewBox="0 0 148 105" fill="none" xmlns="http://www.w3.org/2000/svg">
<rect width="147.402" height="104.882" rx="10" fill="black"/>
<path d="M24.3844 35.1147C24.417 35.1147 24.4332 35.1506 24.4332 35.2222L24.5602 36.2622C24.5732 36.3273 24.5797 36.3696 24.5797 36.3892C24.5797 36.4054 24.5537 36.4136 24.5016 36.4136C24.4528 36.4136 24.4218 36.4071 24.4088 36.394C24.3958 36.381 24.3828 36.3599 24.3698 36.3306C24.3567 36.298 24.3405 36.2622 24.3209 36.2231C24.3046 36.1841 24.2867 36.145 24.2672 36.106C24.1989 35.9562 24.0914 35.8081 23.9449 35.6616C23.5869 35.3166 23.1832 35.144 22.734 35.144C22.4638 35.144 22.2083 35.2319 21.9674 35.4077C21.7265 35.5835 21.6061 35.7918 21.6061 36.0327C21.6061 36.2703 21.65 36.4771 21.7379 36.6528C21.8291 36.8286 21.9479 36.9914 22.0944 37.1411C22.2408 37.2909 22.4085 37.4341 22.5973 37.5708C22.7861 37.7075 22.9781 37.8459 23.1735 37.9858C23.691 38.3472 24.0589 38.6564 24.277 38.9136C24.6188 39.3107 24.8043 39.7567 24.8336 40.2515C24.8336 40.8049 24.6204 41.2476 24.194 41.5796C23.7708 41.9084 23.2776 42.0728 22.7145 42.0728C22.3531 42.0728 22.0651 42.0353 21.8502 41.9604C21.6386 41.8888 21.4921 41.8368 21.4108 41.8042C21.3294 41.7716 21.2692 41.7554 21.2301 41.7554C21.1943 41.7554 21.1715 41.757 21.1617 41.7603L20.9225 41.8091C20.8802 41.8091 20.8541 41.7749 20.8444 41.7065C20.75 40.8993 20.7028 40.4712 20.7028 40.4224C20.7028 40.3703 20.706 40.3361 20.7125 40.3198C20.7223 40.3003 20.7451 40.2905 20.7809 40.2905C20.872 40.2905 20.955 40.4207 21.0299 40.6812C21.3717 41.4136 21.9397 41.7798 22.734 41.7798C23.0986 41.7798 23.4095 41.6691 23.6666 41.4478C23.927 41.2264 24.0573 40.9383 24.0573 40.5835C24.0573 40.0171 23.7187 39.4897 23.0416 39.0015C22.8496 38.8647 22.5729 38.6743 22.2115 38.4302C21.8502 38.186 21.5621 37.9419 21.3473 37.6978C21.012 37.3201 20.8444 36.9002 20.8444 36.438C20.8444 35.9725 21.0283 35.5916 21.3961 35.2954C21.7672 34.9992 22.192 34.8511 22.6705 34.8511C22.9179 34.8511 23.1897 34.8934 23.486 34.978C23.7854 35.0627 23.9938 35.1196 24.111 35.1489L24.3844 35.1147ZM28.9547 41.5112C28.9384 41.4559 28.9173 41.438 28.8912 41.4575C28.8652 41.4738 28.7594 41.5291 28.5739 41.6235C27.9651 41.9263 27.4573 42.0776 27.0504 42.0776C26.6435 42.0776 26.3505 41.9474 26.1715 41.687C26.1064 41.5894 26.0739 41.4689 26.0739 41.3257V38.3472C26.0641 38.2528 26.0218 38.1714 25.9469 38.103C25.846 38.0184 25.7402 37.9728 25.6295 37.9663C25.5221 37.9598 25.4684 37.9272 25.4684 37.8687C25.4684 37.8068 25.4944 37.7694 25.5465 37.7563L26.6647 37.4341C26.7037 37.4211 26.7412 37.4146 26.777 37.4146C26.816 37.4146 26.8356 37.4422 26.8356 37.4976V40.7739C26.8356 41.0018 26.9365 41.1776 27.1383 41.3013C27.3401 41.425 27.5973 41.4868 27.9098 41.4868C28.2255 41.4868 28.5087 41.3908 28.7594 41.1987C28.8375 41.1369 28.9026 41.0685 28.9547 40.9937V38.3472C28.9449 38.2528 28.9026 38.1714 28.8278 38.103C28.7268 38.0184 28.6211 37.9728 28.5104 37.9663C28.403 37.9598 28.3492 37.9272 28.3492 37.8687C28.3492 37.8068 28.3753 37.7694 28.4274 37.7563L29.5455 37.4341C29.5846 37.4211 29.622 37.4146 29.6578 37.4146C29.6969 37.4146 29.7164 37.4471 29.7164 37.5122V40.979C29.7327 41.1222 29.7734 41.2248 29.8385 41.2866C29.9036 41.3485 30.0094 41.3794 30.1559 41.3794L30.4391 41.3599C30.4586 41.3599 30.4684 41.3794 30.4684 41.4185C30.4684 41.4543 30.444 41.4836 30.3951 41.5063L29.0963 42.0435C29.0573 42.063 29.0231 42.0728 28.9938 42.0728C28.9677 42.0728 28.9547 42.0321 28.9547 41.9507V41.5112ZM34.0719 38.4399C34.0328 38.4334 33.9759 38.4123 33.901 38.3765C33.6308 38.2528 33.4192 38.1909 33.2662 38.1909C33.1132 38.1909 32.9521 38.2869 32.7828 38.479C32.6168 38.6678 32.5338 38.8387 32.5338 38.9917V41.1987C32.5338 41.4429 32.6754 41.6056 32.9586 41.687C33.0823 41.7196 33.1979 41.744 33.3053 41.7603C33.4127 41.7733 33.4811 41.7863 33.5104 41.7993C33.5429 41.8123 33.5592 41.8384 33.5592 41.8774C33.5592 41.9132 33.5429 41.9344 33.5104 41.9409H31.0641C31.0315 41.9344 31.0153 41.9116 31.0153 41.8726C31.0153 41.814 31.0918 41.7749 31.2448 41.7554C31.5963 41.7033 31.7721 41.5177 31.7721 41.1987V38.6157C31.7721 38.479 31.6972 38.3846 31.5475 38.3325C31.4824 38.3097 31.4124 38.2918 31.3375 38.2788C31.2627 38.2625 31.2024 38.2479 31.1569 38.2349C31.1145 38.2218 31.0869 38.2104 31.0739 38.2007C31.0641 38.1877 31.0592 38.1632 31.0592 38.1274C31.0592 38.0884 31.0836 38.0558 31.1324 38.0298L32.3776 37.4438C32.4166 37.4243 32.441 37.4146 32.4508 37.4146C32.5061 37.4146 32.5338 37.4536 32.5338 37.5317V38.3228C32.5338 38.3618 32.5436 38.3813 32.5631 38.3813C32.5892 38.3813 32.6559 38.3049 32.7633 38.1519C33.0726 37.7189 33.3281 37.5024 33.5299 37.5024C33.6438 37.5024 33.818 37.548 34.0524 37.6392C34.29 37.7303 34.4088 37.8068 34.4088 37.8687C34.4088 37.9435 34.3714 38.0575 34.2965 38.2104C34.2216 38.3634 34.1468 38.4399 34.0719 38.4399ZM39.2428 41.7554C39.3958 41.7749 39.4723 41.814 39.4723 41.8726C39.4723 41.9116 39.456 41.9344 39.4235 41.9409H37.2457C37.2132 41.9344 37.1969 41.9116 37.1969 41.8726C37.1969 41.814 37.2734 41.7749 37.4264 41.7554C37.778 41.7033 37.9537 41.5177 37.9537 41.1987V35.1099C37.9537 34.9731 37.8789 34.8787 37.7291 34.8267C37.664 34.8039 37.594 34.786 37.5192 34.7729C37.4443 34.7567 37.3841 34.742 37.3385 34.729C37.2962 34.716 37.2685 34.7046 37.2555 34.6948C37.2457 34.6818 37.2408 34.6574 37.2408 34.6216C37.2408 34.5825 37.2653 34.55 37.3141 34.5239L38.5592 33.938C38.5983 33.9185 38.6227 33.9087 38.6324 33.9087C38.6878 33.9087 38.7155 33.9478 38.7155 34.0259V41.1987C38.7155 41.5177 38.8912 41.7033 39.2428 41.7554ZM40.776 39.3677C40.7207 39.3677 40.693 39.4865 40.693 39.7241C40.693 40.2287 40.8427 40.6519 41.1422 40.9937C41.4417 41.3354 41.8128 41.5063 42.2555 41.5063C42.7015 41.5063 43.1295 41.3143 43.5397 40.9302C43.5462 40.9237 43.5543 40.9204 43.5641 40.9204H43.5885C43.608 40.9204 43.6259 40.9367 43.6422 40.9692C43.6617 40.9985 43.6796 41.0181 43.6959 41.0278C43.3183 41.4868 42.874 41.8042 42.3629 41.98C42.1871 42.0418 41.9886 42.0728 41.7672 42.0728C41.5459 42.0728 41.3212 42.0125 41.0934 41.8921C40.8655 41.7684 40.6702 41.6073 40.5074 41.4087C40.1624 40.9953 39.9899 40.481 39.9899 39.8657C39.9899 39.2472 40.177 38.6841 40.5514 38.1763C40.929 37.6685 41.4466 37.4146 42.1041 37.4146C42.5761 37.4146 42.9619 37.6261 43.2614 38.0493C43.5608 38.4692 43.7106 38.8387 43.7106 39.1577C43.7106 39.2977 43.6764 39.3677 43.608 39.3677H40.776ZM40.8297 38.8989C40.8297 38.9608 40.859 38.9917 40.9176 38.9917H42.7584C42.8431 38.9917 42.8854 38.9412 42.8854 38.8403C42.8854 38.606 42.7796 38.3667 42.568 38.1226C42.3597 37.8752 42.1302 37.7515 41.8795 37.7515C41.6354 37.7515 41.4124 37.8621 41.2106 38.0835C41.012 38.3049 40.8851 38.5571 40.8297 38.8403V38.8989ZM50.1852 38.4399C50.1461 38.4334 50.0892 38.4123 50.0143 38.3765C49.7441 38.2528 49.5325 38.1909 49.3795 38.1909C49.2265 38.1909 49.0654 38.2869 48.8961 38.479C48.7301 38.6678 48.6471 38.8387 48.6471 38.9917V41.1987C48.6471 41.4429 48.7887 41.6056 49.0719 41.687C49.1956 41.7196 49.3112 41.744 49.4186 41.7603C49.526 41.7733 49.5944 41.7863 49.6237 41.7993C49.6562 41.8123 49.6725 41.8384 49.6725 41.8774C49.6725 41.9132 49.6562 41.9344 49.6237 41.9409H47.1774C47.1448 41.9344 47.1285 41.9116 47.1285 41.8726C47.1285 41.814 47.205 41.7749 47.358 41.7554C47.7096 41.7033 47.8854 41.5177 47.8854 41.1987V38.6157C47.8854 38.479 47.8105 38.3846 47.6608 38.3325C47.5957 38.3097 47.5257 38.2918 47.4508 38.2788C47.3759 38.2625 47.3157 38.2479 47.2701 38.2349C47.2278 38.2218 47.2002 38.2104 47.1871 38.2007C47.1774 38.1877 47.1725 38.1632 47.1725 38.1274C47.1725 38.0884 47.1969 38.0558 47.2457 38.0298L48.4908 37.4438C48.5299 37.4243 48.5543 37.4146 48.5641 37.4146C48.6194 37.4146 48.6471 37.4536 48.6471 37.5317V38.3228C48.6471 38.3618 48.6569 38.3813 48.6764 38.3813C48.7024 38.3813 48.7692 38.3049 48.8766 38.1519C49.1858 37.7189 49.4414 37.5024 49.6432 37.5024C49.7571 37.5024 49.9313 37.548 50.1656 37.6392C50.4033 37.7303 50.5221 37.8068 50.5221 37.8687C50.5221 37.9435 50.4847 38.0575 50.4098 38.2104C50.3349 38.3634 50.2601 38.4399 50.1852 38.4399ZM51.6549 39.3677C51.5996 39.3677 51.5719 39.4865 51.5719 39.7241C51.5719 40.2287 51.7216 40.6519 52.0211 40.9937C52.3206 41.3354 52.6917 41.5063 53.1344 41.5063C53.5804 41.5063 54.0084 41.3143 54.4186 40.9302C54.4251 40.9237 54.4332 40.9204 54.443 40.9204H54.4674C54.4869 40.9204 54.5048 40.9367 54.5211 40.9692C54.5406 40.9985 54.5586 41.0181 54.5748 41.0278C54.1972 41.4868 53.7529 41.8042 53.2418 41.98C53.066 42.0418 52.8675 42.0728 52.6461 42.0728C52.4248 42.0728 52.2002 42.0125 51.9723 41.8921C51.7444 41.7684 51.5491 41.6073 51.3864 41.4087C51.0413 40.9953 50.8688 40.481 50.8688 39.8657C50.8688 39.2472 51.0559 38.6841 51.4303 38.1763C51.8079 37.6685 52.3255 37.4146 52.983 37.4146C53.455 37.4146 53.8408 37.6261 54.1403 38.0493C54.4397 38.4692 54.5895 38.8387 54.5895 39.1577C54.5895 39.2977 54.5553 39.3677 54.4869 39.3677H51.6549ZM51.7086 38.8989C51.7086 38.9608 51.7379 38.9917 51.7965 38.9917H53.6373C53.722 38.9917 53.7643 38.9412 53.7643 38.8403C53.7643 38.606 53.6585 38.3667 53.4469 38.1226C53.2386 37.8752 53.0091 37.7515 52.7584 37.7515C52.5143 37.7515 52.2913 37.8621 52.0895 38.0835C51.8909 38.3049 51.764 38.5571 51.7086 38.8403V38.8989ZM59.2428 38.0005C59.2428 38.2284 59.111 38.3423 58.8473 38.3423C58.7138 38.3423 58.5999 38.3049 58.5055 38.23C58.4143 38.1519 58.3427 38.0868 58.2906 38.0347C58.2418 37.9793 58.1897 37.9289 58.1344 37.8833C57.9 37.6912 57.6136 37.6701 57.275 37.8198C56.9397 37.9696 56.6809 38.2886 56.4987 38.7769C56.3977 39.047 56.3473 39.3156 56.3473 39.5825C56.3473 40.1554 56.4775 40.6242 56.7379 40.9888C56.9983 41.3501 57.3971 41.5308 57.9342 41.5308C58.3346 41.5308 58.6943 41.3517 59.0133 40.9937C59.111 40.8862 59.1696 40.8325 59.1891 40.8325C59.2086 40.8325 59.2298 40.8423 59.2526 40.8618C59.2753 40.8813 59.2867 40.9106 59.2867 40.9497C59.2867 40.9855 59.277 41.0132 59.2574 41.0327C58.7594 41.7261 58.1328 42.0728 57.3776 42.0728C56.8307 42.0728 56.3815 41.8693 56.0299 41.4624C55.6816 41.0555 55.5074 40.59 55.5074 40.0659C55.5107 39.0959 55.7451 38.3976 56.2106 37.9712C56.6207 37.5968 57.205 37.4097 57.9635 37.4097C58.4323 37.4097 58.7431 37.4569 58.8961 37.5513C59.0491 37.6457 59.1565 37.7645 59.2184 37.9077C59.2347 37.9403 59.2428 37.9712 59.2428 38.0005ZM61.1569 38.186C61.1373 38.186 61.1276 38.2007 61.1276 38.23V40.9253C61.1276 41.1206 61.1699 41.2736 61.2545 41.3843C61.3424 41.495 61.4531 41.5503 61.5865 41.5503C61.72 41.5503 61.8356 41.5291 61.9332 41.4868C62.0341 41.4412 62.1204 41.3924 62.192 41.3403C62.2669 41.2882 62.3336 41.241 62.3922 41.1987C62.4508 41.1532 62.5029 41.1304 62.5485 41.1304C62.594 41.1304 62.6168 41.1418 62.6168 41.1646C62.6168 41.2427 62.6087 41.2931 62.5924 41.3159C62.2018 41.8205 61.8242 42.0728 61.4596 42.0728C61.0983 42.0728 60.8248 41.9588 60.6393 41.731C60.457 41.4998 60.3658 41.2248 60.3658 40.9058V38.186H59.9996C59.9085 38.186 59.8597 38.1567 59.8531 38.0981C59.8499 38.0396 59.8597 38.0021 59.8824 37.9858C60.055 37.8752 60.2926 37.6766 60.5953 37.3901C60.6279 37.3543 60.6718 37.3006 60.7272 37.229C60.7825 37.1574 60.8623 37.0597 60.9664 36.936C61.0739 36.8123 61.1552 36.7505 61.2106 36.7505C61.2659 36.7505 61.2936 36.7733 61.2936 36.8188C61.2936 36.8254 61.2382 37.0386 61.1276 37.4585C61.1276 37.5171 61.1536 37.548 61.2057 37.5513H62.4508C62.594 37.5513 62.6656 37.7531 62.6656 38.1567C62.6656 38.1763 62.6526 38.186 62.6266 38.186H61.1569ZM63.1588 39.7485C63.1588 39.1073 63.3851 38.5571 63.8375 38.0981C64.2933 37.6359 64.8385 37.4048 65.4733 37.4048C66.108 37.4048 66.6598 37.6294 67.1285 38.0786C67.5973 38.5246 67.8317 39.0763 67.8317 39.7339C67.8317 40.3914 67.6087 40.9465 67.1627 41.3989C66.72 41.8481 66.1634 42.0728 65.4928 42.0728C64.8222 42.0728 64.2656 41.8449 63.8229 41.3892C63.3802 40.9334 63.1588 40.3866 63.1588 39.7485ZM64.3746 41.0034C64.6936 41.5405 65.1282 41.8091 65.6783 41.8091C66.1048 41.8091 66.4303 41.6382 66.6549 41.2964C66.8828 40.9546 66.9967 40.5347 66.9967 40.0366C66.9967 39.5386 66.8372 39.0275 66.5182 38.5034C66.2024 37.9793 65.776 37.7173 65.2389 37.7173C64.845 37.7173 64.5341 37.8882 64.3063 38.23C64.0817 38.5685 63.9694 38.9998 63.9694 39.5239C63.9694 40.0448 64.1045 40.5379 64.3746 41.0034ZM74.2428 37.6196C74.386 37.6685 74.4739 37.6929 74.5065 37.6929C74.539 37.6929 74.5586 37.6929 74.5651 37.6929C74.5748 37.6896 74.5862 37.6685 74.5992 37.6294V35.1099C74.5992 34.9731 74.5244 34.8787 74.3746 34.8267C74.3095 34.8039 74.2395 34.786 74.1647 34.7729C74.0898 34.7567 74.0296 34.742 73.984 34.729C73.9417 34.716 73.914 34.7046 73.901 34.6948C73.8912 34.6818 73.8864 34.6574 73.8864 34.6216C73.8864 34.5825 73.9108 34.55 73.9596 34.5239L75.2047 33.938C75.2438 33.9185 75.2682 33.9087 75.278 33.9087C75.3333 33.9087 75.361 33.9478 75.361 34.0259V40.979C75.3772 41.1222 75.4179 41.2248 75.483 41.2866C75.5481 41.3485 75.6539 41.3794 75.8004 41.3794L76.0836 41.3599C76.1031 41.3599 76.1129 41.3794 76.1129 41.4185C76.1129 41.4543 76.0885 41.4836 76.0397 41.5063L74.7408 42.0435C74.7018 42.063 74.6676 42.0728 74.6383 42.0728C74.6123 42.0728 74.5992 42.0321 74.5992 41.9507V41.5063C74.5992 41.4738 74.5911 41.4575 74.5748 41.4575C74.552 41.4575 74.417 41.5308 74.1696 41.6772C73.4111 42.1265 72.7714 42.1932 72.2506 41.8774C71.8339 41.6235 71.5524 41.2215 71.4059 40.6714C71.3375 40.4142 71.3033 40.1424 71.3033 39.856C71.3033 39.5662 71.3619 39.2798 71.4791 38.9966C71.5996 38.7101 71.764 38.4595 71.9723 38.2446C72.4313 37.7759 72.9847 37.5415 73.6324 37.5415C73.8961 37.5415 74.0996 37.5675 74.2428 37.6196ZM72.0406 39.7144C72.0406 40.2059 72.1774 40.6372 72.4508 41.0083C72.7242 41.3761 73.1051 41.5601 73.5934 41.5601C73.8082 41.5601 74.0296 41.508 74.2574 41.4038C74.4853 41.2964 74.5992 41.215 74.5992 41.1597V38.6401C74.5992 38.5783 74.5569 38.505 74.4723 38.4204C74.2119 38.0623 73.8652 37.8833 73.4323 37.8833C73.0026 37.8833 72.6624 38.0656 72.4117 38.4302C72.1643 38.7915 72.0406 39.2196 72.0406 39.7144ZM79.8922 41.5112C79.8759 41.4559 79.8548 41.438 79.8287 41.4575C79.8027 41.4738 79.6969 41.5291 79.5114 41.6235C78.9026 41.9263 78.3948 42.0776 77.9879 42.0776C77.581 42.0776 77.288 41.9474 77.109 41.687C77.0439 41.5894 77.0114 41.4689 77.0114 41.3257V38.3472C77.0016 38.2528 76.9593 38.1714 76.8844 38.103C76.7835 38.0184 76.6777 37.9728 76.567 37.9663C76.4596 37.9598 76.4059 37.9272 76.4059 37.8687C76.4059 37.8068 76.4319 37.7694 76.484 37.7563L77.6022 37.4341C77.6412 37.4211 77.6787 37.4146 77.7145 37.4146C77.7535 37.4146 77.7731 37.4422 77.7731 37.4976V40.7739C77.7731 41.0018 77.874 41.1776 78.0758 41.3013C78.2776 41.425 78.5348 41.4868 78.8473 41.4868C79.163 41.4868 79.4462 41.3908 79.6969 41.1987C79.775 41.1369 79.8401 41.0685 79.8922 40.9937V38.3472C79.8824 38.2528 79.8401 38.1714 79.7653 38.103C79.6643 38.0184 79.5586 37.9728 79.4479 37.9663C79.3405 37.9598 79.2867 37.9272 79.2867 37.8687C79.2867 37.8068 79.3128 37.7694 79.3649 37.7563L80.483 37.4341C80.5221 37.4211 80.5595 37.4146 80.5953 37.4146C80.6344 37.4146 80.6539 37.4471 80.6539 37.5122V40.979C80.6702 41.1222 80.7109 41.2248 80.776 41.2866C80.8411 41.3485 80.9469 41.3794 81.0934 41.3794L81.3766 41.3599C81.3961 41.3599 81.4059 41.3794 81.4059 41.4185C81.4059 41.4543 81.3815 41.4836 81.3326 41.5063L80.0338 42.0435C79.9948 42.063 79.9606 42.0728 79.9313 42.0728C79.9052 42.0728 79.8922 42.0321 79.8922 41.9507V41.5112ZM88.3834 37.8833C88.3834 37.8833 88.8196 37.8638 89.692 37.8247C89.7669 37.8247 89.8157 37.8328 89.8385 37.8491C89.8613 37.8654 89.8857 37.9224 89.9117 38.02C89.9378 38.1144 89.9508 38.2039 89.9508 38.2886C89.9508 38.3732 89.9427 38.422 89.9264 38.4351C89.9101 38.4481 89.8776 38.4546 89.8287 38.4546H88.7448C88.7643 38.4904 88.7854 38.5278 88.8082 38.5669C88.831 38.606 88.8603 38.6711 88.8961 38.7622C88.9319 38.8534 88.9498 38.995 88.9498 39.187C88.9498 39.3758 88.9026 39.5744 88.8082 39.7827C88.7171 39.9878 88.582 40.1701 88.403 40.3296C88.0058 40.6877 87.4915 40.8667 86.86 40.8667C86.694 40.8667 86.5117 40.8358 86.3131 40.7739C86.2643 40.826 86.1992 40.8748 86.1178 40.9204C86.0364 40.9627 85.9567 41.0067 85.8785 41.0522C85.6832 41.1629 85.5856 41.2736 85.5856 41.3843C85.5856 41.661 86.0446 41.8026 86.9625 41.8091C87.8805 41.8156 88.4827 41.8465 88.7692 41.9019C89.0589 41.9539 89.2835 42.0597 89.443 42.2192C89.6936 42.4699 89.819 42.7563 89.819 43.0786C89.819 43.3553 89.7002 43.6401 89.4625 43.9331C89.0491 44.4507 88.4176 44.7957 87.568 44.9683C87.2653 45.0301 86.9446 45.061 86.6061 45.061C85.9908 45.061 85.5237 44.9487 85.2047 44.7241C84.8857 44.5028 84.7262 44.2342 84.7262 43.9185C84.7262 43.7459 84.7669 43.6027 84.8483 43.4888C84.9296 43.3781 85.0322 43.2723 85.1559 43.1714C85.2828 43.0737 85.4212 42.9696 85.5709 42.8589C85.7207 42.7515 85.8639 42.6131 86.0006 42.4438C85.6881 42.4178 85.4196 42.3185 85.1949 42.146C84.9736 41.9735 84.8629 41.8042 84.8629 41.6382C84.8629 41.4722 84.9069 41.3501 84.9948 41.272C85.0826 41.1906 85.1901 41.1222 85.317 41.0669C85.444 41.0083 85.5774 40.9546 85.7174 40.9058C85.8574 40.8569 85.9795 40.7935 86.0836 40.7153C85.719 40.5721 85.4375 40.3752 85.2389 40.1245C85.0403 39.8706 84.941 39.5939 84.941 39.2944C84.941 38.7378 85.1429 38.2837 85.5465 37.9321C85.9534 37.5806 86.4433 37.4048 87.0162 37.4048C87.5892 37.4048 88.0449 37.5643 88.3834 37.8833ZM85.7272 42.9761C85.6523 43.0509 85.5905 43.1307 85.5416 43.2153C85.4928 43.3 85.4684 43.4058 85.4684 43.5327C85.4684 43.6629 85.514 43.798 85.6051 43.938C85.6995 44.0812 85.8265 44.2098 85.986 44.3237C86.3375 44.5841 86.7607 44.7144 87.2555 44.7144C87.7503 44.7144 88.1979 44.5695 88.5983 44.2798C89.0019 43.9933 89.2037 43.6776 89.2037 43.3325C89.2037 42.9907 89.0377 42.7612 88.7057 42.644C88.5494 42.592 88.1474 42.5594 87.4996 42.5464C86.8518 42.5334 86.4319 42.5155 86.2399 42.4927C86.1552 42.5903 86.0673 42.6766 85.9762 42.7515C85.8883 42.8263 85.8053 42.9012 85.7272 42.9761ZM88.149 39.1821C88.149 38.7231 88.0335 38.3504 87.8024 38.064C87.5745 37.7743 87.2718 37.6294 86.8942 37.6294C86.4059 37.6294 86.0608 37.8589 85.859 38.3179C85.7809 38.4937 85.7418 38.6955 85.7418 38.9233C85.7418 39.3888 85.8378 39.7762 86.0299 40.0854C86.2643 40.4565 86.5719 40.6421 86.9528 40.6421C87.3336 40.6421 87.6282 40.5135 87.8365 40.2563C88.0449 39.9992 88.149 39.6411 88.149 39.1821ZM93.3492 41.1353C93.3492 41.2199 93.3883 41.2882 93.4664 41.3403C93.5478 41.3892 93.6406 41.4136 93.7448 41.4136C93.8489 41.4136 93.9352 41.3875 94.0035 41.3354C94.0752 41.2801 94.124 41.2524 94.15 41.2524C94.1761 41.2524 94.1891 41.2882 94.1891 41.3599C94.1891 41.4282 94.1565 41.4868 94.0914 41.5356C93.6031 41.8937 93.2727 42.0728 93.1002 42.0728C92.8919 42.0728 92.7226 41.8563 92.5924 41.4233C92.5826 41.3908 92.5745 41.3761 92.568 41.3794C92.1643 41.6821 91.9104 41.8644 91.8063 41.9263C91.5393 42.0793 91.2708 42.1037 91.0006 41.9995C90.7337 41.8953 90.54 41.7228 90.4196 41.4819C90.361 41.3582 90.3317 41.2264 90.3317 41.0864C90.3317 40.8097 90.4342 40.59 90.6393 40.4272C90.8444 40.2645 91.235 40.1082 91.8112 39.9585C92.0065 39.9064 92.1806 39.8397 92.3336 39.7583C92.4866 39.6769 92.5664 39.6248 92.5729 39.6021C92.5826 39.5793 92.5875 39.5581 92.5875 39.5386V38.6011C92.5875 38.2332 92.4443 37.9744 92.1578 37.8247C92.0634 37.7759 91.9495 37.7515 91.816 37.7515C91.6858 37.7515 91.5524 37.8035 91.4156 37.9077C91.2822 38.0119 91.2155 38.16 91.2155 38.3521L91.2399 38.5425C91.2203 38.5815 91.1031 38.6466 90.8883 38.7378C90.6735 38.8289 90.5498 38.8778 90.5172 38.8843C90.4651 38.8843 90.4391 38.8224 90.4391 38.6987C90.4391 38.5718 90.4765 38.4318 90.5514 38.2788C90.6263 38.1258 90.7321 37.9858 90.8688 37.8589C91.1878 37.5627 91.5524 37.4146 91.9625 37.4146C92.3727 37.4146 92.7063 37.5285 92.9635 37.7563C93.2207 37.981 93.3492 38.2495 93.3492 38.562V41.1353ZM91.0983 40.9937C91.0983 41.1499 91.1585 41.2866 91.2789 41.4038C91.3994 41.5177 91.5361 41.5747 91.6891 41.5747C91.8453 41.5747 92.0341 41.5096 92.2555 41.3794C92.4768 41.2459 92.5875 41.1092 92.5875 40.9692V39.978C92.5875 39.9422 92.5794 39.9243 92.5631 39.9243C92.5468 39.9243 92.5354 39.9259 92.5289 39.9292L91.3961 40.4565C91.2789 40.5412 91.1992 40.6128 91.1569 40.6714C91.1178 40.73 91.0983 40.8374 91.0983 40.9937ZM95.8492 37.854C95.8492 37.9549 95.872 38.0054 95.9176 38.0054C95.9664 38.0054 96.1748 37.8996 96.5426 37.688C96.9723 37.5057 97.2994 37.4146 97.524 37.4146C97.7487 37.4146 97.9635 37.4797 98.1686 37.6099C98.3737 37.7401 98.5478 37.911 98.691 38.1226C98.9938 38.5588 99.1451 39.0877 99.1451 39.7095C99.1451 40.3312 98.9287 40.8813 98.4957 41.3599C98.066 41.8351 97.498 42.0728 96.7916 42.0728C96.3326 42.0728 95.9095 42.0174 95.5221 41.9067C95.4082 41.8742 95.3105 41.8481 95.2291 41.8286C95.151 41.8091 95.1071 41.7896 95.0973 41.77C95.0908 41.7472 95.0875 41.7212 95.0875 41.6919V35.1099C95.0875 34.9731 95.0127 34.8787 94.8629 34.8267C94.7978 34.8039 94.7278 34.786 94.653 34.7729C94.5781 34.7567 94.5179 34.742 94.4723 34.729C94.43 34.716 94.4023 34.7046 94.3893 34.6948C94.3795 34.6818 94.3746 34.6574 94.3746 34.6216C94.3746 34.5825 94.399 34.55 94.4479 34.5239L95.693 33.938C95.7321 33.9185 95.7565 33.9087 95.7662 33.9087C95.8216 33.9087 95.8492 33.9478 95.8492 34.0259V37.854ZM96.8844 38.0103C96.5947 38.0103 96.2692 38.1144 95.9078 38.3228C95.8688 38.3455 95.8492 38.3846 95.8492 38.4399V40.7495C95.8818 41.0457 96.0104 41.2769 96.235 41.4429C96.4596 41.6089 96.7054 41.6919 96.9723 41.6919C97.441 41.6919 97.8024 41.5063 98.0563 41.1353C98.3134 40.7642 98.442 40.341 98.442 39.8657C98.442 39.3905 98.3118 38.9624 98.0514 38.5815C97.791 38.2007 97.402 38.0103 96.8844 38.0103ZM103.047 41.1353C103.047 41.2199 103.086 41.2882 103.164 41.3403C103.245 41.3892 103.338 41.4136 103.442 41.4136C103.546 41.4136 103.632 41.3875 103.701 41.3354C103.772 41.2801 103.821 41.2524 103.847 41.2524C103.873 41.2524 103.886 41.2882 103.886 41.3599C103.886 41.4282 103.854 41.4868 103.789 41.5356C103.3 41.8937 102.97 42.0728 102.797 42.0728C102.589 42.0728 102.42 41.8563 102.29 41.4233C102.28 41.3908 102.272 41.3761 102.265 41.3794C101.862 41.6821 101.608 41.8644 101.504 41.9263C101.237 42.0793 100.968 42.1037 100.698 41.9995C100.431 41.8953 100.237 41.7228 100.117 41.4819C100.058 41.3582 100.029 41.2264 100.029 41.0864C100.029 40.8097 100.131 40.59 100.337 40.4272C100.542 40.2645 100.932 40.1082 101.508 39.9585C101.704 39.9064 101.878 39.8397 102.031 39.7583C102.184 39.6769 102.264 39.6248 102.27 39.6021C102.28 39.5793 102.285 39.5581 102.285 39.5386V38.6011C102.285 38.2332 102.142 37.9744 101.855 37.8247C101.761 37.7759 101.647 37.7515 101.513 37.7515C101.383 37.7515 101.25 37.8035 101.113 37.9077C100.979 38.0119 100.913 38.16 100.913 38.3521L100.937 38.5425C100.918 38.5815 100.8 38.6466 100.586 38.7378C100.371 38.8289 100.247 38.8778 100.214 38.8843C100.162 38.8843 100.136 38.8224 100.136 38.6987C100.136 38.5718 100.174 38.4318 100.249 38.2788C100.324 38.1258 100.429 37.9858 100.566 37.8589C100.885 37.5627 101.25 37.4146 101.66 37.4146C102.07 37.4146 102.404 37.5285 102.661 37.7563C102.918 37.981 103.047 38.2495 103.047 38.562V41.1353ZM100.796 40.9937C100.796 41.1499 100.856 41.2866 100.976 41.4038C101.097 41.5177 101.233 41.5747 101.386 41.5747C101.543 41.5747 101.731 41.5096 101.953 41.3794C102.174 41.2459 102.285 41.1092 102.285 40.9692V39.978C102.285 39.9422 102.277 39.9243 102.26 39.9243C102.244 39.9243 102.233 39.9259 102.226 39.9292L101.093 40.4565C100.976 40.5412 100.896 40.6128 100.854 40.6714C100.815 40.73 100.796 40.8374 100.796 40.9937ZM107.324 38.4399C107.285 38.4334 107.228 38.4123 107.153 38.3765C106.883 38.2528 106.671 38.1909 106.518 38.1909C106.365 38.1909 106.204 38.2869 106.035 38.479C105.869 38.6678 105.786 38.8387 105.786 38.9917V41.1987C105.786 41.4429 105.927 41.6056 106.211 41.687C106.334 41.7196 106.45 41.744 106.557 41.7603C106.665 41.7733 106.733 41.7863 106.762 41.7993C106.795 41.8123 106.811 41.8384 106.811 41.8774C106.811 41.9132 106.795 41.9344 106.762 41.9409H104.316C104.283 41.9344 104.267 41.9116 104.267 41.8726C104.267 41.814 104.344 41.7749 104.497 41.7554C104.848 41.7033 105.024 41.5177 105.024 41.1987V38.6157C105.024 38.479 104.949 38.3846 104.799 38.3325C104.734 38.3097 104.664 38.2918 104.589 38.2788C104.515 38.2625 104.454 38.2479 104.409 38.2349C104.366 38.2218 104.339 38.2104 104.326 38.2007C104.316 38.1877 104.311 38.1632 104.311 38.1274C104.311 38.0884 104.336 38.0558 104.384 38.0298L105.63 37.4438C105.669 37.4243 105.693 37.4146 105.703 37.4146C105.758 37.4146 105.786 37.4536 105.786 37.5317V38.3228C105.786 38.3618 105.796 38.3813 105.815 38.3813C105.841 38.3813 105.908 38.3049 106.015 38.1519C106.325 37.7189 106.58 37.5024 106.782 37.5024C106.896 37.5024 107.07 37.548 107.304 37.6392C107.542 37.7303 107.661 37.8068 107.661 37.8687C107.661 37.9435 107.623 38.0575 107.548 38.2104C107.474 38.3634 107.399 38.4399 107.324 38.4399ZM108.007 41.9409C107.975 41.9344 107.959 41.9116 107.959 41.8726C107.959 41.814 108.035 41.7749 108.188 41.7554C108.54 41.7033 108.715 41.5177 108.715 41.1987V38.6157C108.715 38.479 108.641 38.3846 108.491 38.3325C108.426 38.3097 108.356 38.2918 108.281 38.2788C108.206 38.2625 108.146 38.2479 108.1 38.2349C108.058 38.2218 108.03 38.2104 108.017 38.2007C108.007 38.1877 108.003 38.1632 108.003 38.1274C108.003 38.0884 108.027 38.0558 108.076 38.0298L109.321 37.4438C109.36 37.4243 109.384 37.4146 109.394 37.4146C109.45 37.4146 109.477 37.4536 109.477 37.5317V41.1987C109.477 41.5177 109.653 41.7033 110.005 41.7554C110.158 41.7749 110.234 41.8091 110.234 41.8579C110.234 41.9067 110.218 41.9344 110.185 41.9409H108.007ZM109.023 36.0425C108.89 36.0425 108.771 36.0002 108.667 35.9155C108.566 35.8309 108.515 35.7137 108.515 35.564C108.515 35.411 108.564 35.2905 108.662 35.2026C108.759 35.1147 108.875 35.0708 109.008 35.0708C109.145 35.0708 109.259 35.1229 109.35 35.2271C109.445 35.3312 109.492 35.4435 109.492 35.564C109.492 35.6844 109.448 35.7951 109.36 35.896C109.272 35.9937 109.16 36.0425 109.023 36.0425ZM112.006 38.186C111.987 38.186 111.977 38.2007 111.977 38.23V40.9253C111.977 41.1206 112.019 41.2736 112.104 41.3843C112.192 41.495 112.303 41.5503 112.436 41.5503C112.57 41.5503 112.685 41.5291 112.783 41.4868C112.884 41.4412 112.97 41.3924 113.042 41.3403C113.116 41.2882 113.183 41.241 113.242 41.1987C113.3 41.1532 113.352 41.1304 113.398 41.1304C113.444 41.1304 113.466 41.1418 113.466 41.1646C113.466 41.2427 113.458 41.2931 113.442 41.3159C113.051 41.8205 112.674 42.0728 112.309 42.0728C111.948 42.0728 111.674 41.9588 111.489 41.731C111.307 41.4998 111.215 41.2248 111.215 40.9058V38.186H110.849C110.758 38.186 110.709 38.1567 110.703 38.0981C110.7 38.0396 110.709 38.0021 110.732 37.9858C110.905 37.8752 111.142 37.6766 111.445 37.3901C111.477 37.3543 111.521 37.3006 111.577 37.229C111.632 37.1574 111.712 37.0597 111.816 36.936C111.923 36.8123 112.005 36.7505 112.06 36.7505C112.116 36.7505 112.143 36.7733 112.143 36.8188C112.143 36.8254 112.088 37.0386 111.977 37.4585C111.977 37.5171 112.003 37.548 112.055 37.5513H113.3C113.444 37.5513 113.515 37.7531 113.515 38.1567C113.515 38.1763 113.502 38.186 113.476 38.186H112.006ZM119.682 37.6196C119.825 37.6685 119.913 37.6929 119.946 37.6929C119.978 37.6929 119.998 37.6929 120.005 37.6929C120.014 37.6896 120.026 37.6685 120.039 37.6294V35.1099C120.039 34.9731 119.964 34.8787 119.814 34.8267C119.749 34.8039 119.679 34.786 119.604 34.7729C119.529 34.7567 119.469 34.742 119.423 34.729C119.381 34.716 119.353 34.7046 119.34 34.6948C119.331 34.6818 119.326 34.6574 119.326 34.6216C119.326 34.5825 119.35 34.55 119.399 34.5239L120.644 33.938C120.683 33.9185 120.708 33.9087 120.717 33.9087C120.773 33.9087 120.8 33.9478 120.8 34.0259V40.979C120.817 41.1222 120.857 41.2248 120.922 41.2866C120.988 41.3485 121.093 41.3794 121.24 41.3794L121.523 41.3599C121.543 41.3599 121.552 41.3794 121.552 41.4185C121.552 41.4543 121.528 41.4836 121.479 41.5063L120.18 42.0435C120.141 42.063 120.107 42.0728 120.078 42.0728C120.052 42.0728 120.039 42.0321 120.039 41.9507V41.5063C120.039 41.4738 120.031 41.4575 120.014 41.4575C119.991 41.4575 119.856 41.5308 119.609 41.6772C118.851 42.1265 118.211 42.1932 117.69 41.8774C117.273 41.6235 116.992 41.2215 116.845 40.6714C116.777 40.4142 116.743 40.1424 116.743 39.856C116.743 39.5662 116.801 39.2798 116.919 38.9966C117.039 38.7101 117.203 38.4595 117.412 38.2446C117.871 37.7759 118.424 37.5415 119.072 37.5415C119.336 37.5415 119.539 37.5675 119.682 37.6196ZM117.48 39.7144C117.48 40.2059 117.617 40.6372 117.89 41.0083C118.164 41.3761 118.545 41.5601 119.033 41.5601C119.248 41.5601 119.469 41.508 119.697 41.4038C119.925 41.2964 120.039 41.215 120.039 41.1597V38.6401C120.039 38.5783 119.996 38.505 119.912 38.4204C119.651 38.0623 119.305 37.8833 118.872 37.8833C118.442 37.8833 118.102 38.0656 117.851 38.4302C117.604 38.7915 117.48 39.2196 117.48 39.7144ZM125.332 41.5112C125.315 41.4559 125.294 41.438 125.268 41.4575C125.242 41.4738 125.136 41.5291 124.951 41.6235C124.342 41.9263 123.834 42.0776 123.427 42.0776C123.02 42.0776 122.727 41.9474 122.548 41.687C122.483 41.5894 122.451 41.4689 122.451 41.3257V38.3472C122.441 38.2528 122.399 38.1714 122.324 38.103C122.223 38.0184 122.117 37.9728 122.006 37.9663C121.899 37.9598 121.845 37.9272 121.845 37.8687C121.845 37.8068 121.871 37.7694 121.923 37.7563L123.042 37.4341C123.081 37.4211 123.118 37.4146 123.154 37.4146C123.193 37.4146 123.213 37.4422 123.213 37.4976V40.7739C123.213 41.0018 123.313 41.1776 123.515 41.3013C123.717 41.425 123.974 41.4868 124.287 41.4868C124.602 41.4868 124.886 41.3908 125.136 41.1987C125.214 41.1369 125.28 41.0685 125.332 40.9937V38.3472C125.322 38.2528 125.28 38.1714 125.205 38.103C125.104 38.0184 124.998 37.9728 124.887 37.9663C124.78 37.9598 124.726 37.9272 124.726 37.8687C124.726 37.8068 124.752 37.7694 124.804 37.7563L125.922 37.4341C125.962 37.4211 125.999 37.4146 126.035 37.4146C126.074 37.4146 126.093 37.4471 126.093 37.5122V40.979C126.11 41.1222 126.15 41.2248 126.215 41.2866C126.281 41.3485 126.386 41.3794 126.533 41.3794L126.816 41.3599C126.836 41.3599 126.845 41.3794 126.845 41.4185C126.845 41.4543 126.821 41.4836 126.772 41.5063L125.473 42.0435C125.434 42.063 125.4 42.0728 125.371 42.0728C125.345 42.0728 125.332 42.0321 125.332 41.9507V41.5112ZM25.5074 55.7554C25.6604 55.7749 25.7369 55.814 25.7369 55.8726C25.7369 55.9116 25.7207 55.9344 25.6881 55.9409H23.5104C23.4778 55.9344 23.4615 55.9116 23.4615 55.8726C23.4615 55.814 23.538 55.7749 23.691 55.7554C24.0426 55.7033 24.2184 55.5177 24.2184 55.1987V49.1099C24.2184 48.9731 24.1435 48.8787 23.9938 48.8267C23.9287 48.8039 23.8587 48.786 23.7838 48.7729C23.7089 48.7567 23.6487 48.742 23.6031 48.729C23.5608 48.716 23.5332 48.7046 23.5201 48.6948C23.5104 48.6818 23.5055 48.6574 23.5055 48.6216C23.5055 48.5825 23.5299 48.55 23.5787 48.5239L24.8239 47.938C24.8629 47.9185 24.8873 47.9087 24.8971 47.9087C24.9524 47.9087 24.9801 47.9478 24.9801 48.0259V55.1987C24.9801 55.5177 25.1559 55.7033 25.5074 55.7554ZM29.2721 55.1353C29.2721 55.2199 29.3112 55.2882 29.3893 55.3403C29.4707 55.3892 29.5634 55.4136 29.6676 55.4136C29.7718 55.4136 29.858 55.3875 29.9264 55.3354C29.998 55.2801 30.0468 55.2524 30.0729 55.2524C30.0989 55.2524 30.1119 55.2882 30.1119 55.3599C30.1119 55.4282 30.0794 55.4868 30.0143 55.5356C29.526 55.8937 29.1956 56.0728 29.0231 56.0728C28.8147 56.0728 28.6455 55.8563 28.5153 55.4233C28.5055 55.3908 28.4974 55.3761 28.4908 55.3794C28.0872 55.6821 27.8333 55.8644 27.7291 55.9263C27.4622 56.0793 27.1936 56.1037 26.9235 55.9995C26.6565 55.8953 26.4628 55.7228 26.3424 55.4819C26.2838 55.3582 26.2545 55.2264 26.2545 55.0864C26.2545 54.8097 26.3571 54.59 26.5621 54.4272C26.7672 54.2645 27.1578 54.1082 27.734 53.9585C27.9293 53.9064 28.1035 53.8397 28.2565 53.7583C28.4095 53.6769 28.4892 53.6248 28.4957 53.6021C28.5055 53.5793 28.5104 53.5581 28.5104 53.5386V52.6011C28.5104 52.2332 28.3671 51.9744 28.0807 51.8247C27.9863 51.7759 27.8724 51.7515 27.7389 51.7515C27.6087 51.7515 27.4752 51.8035 27.3385 51.9077C27.205 52.0119 27.1383 52.16 27.1383 52.3521L27.1627 52.5425C27.1432 52.5815 27.026 52.6466 26.8112 52.7378C26.5963 52.8289 26.4726 52.8778 26.4401 52.8843C26.388 52.8843 26.3619 52.8224 26.3619 52.6987C26.3619 52.5718 26.3994 52.4318 26.4742 52.2788C26.5491 52.1258 26.6549 51.9858 26.7916 51.8589C27.1106 51.5627 27.4752 51.4146 27.8854 51.4146C28.2955 51.4146 28.6292 51.5285 28.8864 51.7563C29.1435 51.981 29.2721 52.2495 29.2721 52.562V55.1353ZM27.0211 54.9937C27.0211 55.1499 27.0813 55.2866 27.2018 55.4038C27.3222 55.5177 27.4589 55.5747 27.6119 55.5747C27.7682 55.5747 27.957 55.5096 28.1783 55.3794C28.3997 55.2459 28.5104 55.1092 28.5104 54.9692V53.978C28.5104 53.9422 28.5022 53.9243 28.486 53.9243C28.4697 53.9243 28.4583 53.9259 28.4518 53.9292L27.319 54.4565C27.2018 54.5412 27.122 54.6128 27.0797 54.6714C27.0406 54.73 27.0211 54.8374 27.0211 54.9937ZM34.2574 55.4282C33.8082 55.8579 33.3037 56.0728 32.7438 56.0728C32.542 56.0728 32.2669 56.0353 31.9186 55.9604C31.8632 55.9604 31.8323 55.98 31.8258 56.019C31.8226 56.0581 31.8193 56.0988 31.816 56.1411V58.2261C31.816 58.4702 31.9576 58.633 32.2408 58.7144C32.3645 58.7469 32.4801 58.7697 32.5875 58.7827C32.6949 58.799 32.7633 58.8136 32.7926 58.8267C32.8252 58.8397 32.8414 58.8641 32.8414 58.8999C32.8414 58.939 32.8252 58.9618 32.7926 58.9683H30.3463C30.3138 58.9618 30.2975 58.939 30.2975 58.8999C30.2975 58.8413 30.374 58.8022 30.527 58.7827C30.8785 58.7306 31.0543 58.5451 31.0543 58.2261V52.3716C31.0543 52.2349 30.9795 52.1405 30.8297 52.0884C30.7646 52.0656 30.6946 52.0477 30.6198 52.0347C30.5449 52.0184 30.4847 52.0037 30.4391 51.9907C30.3968 51.9777 30.3691 51.9663 30.3561 51.9565C30.3463 51.9435 30.3414 51.9191 30.3414 51.8833C30.3414 51.8442 30.3658 51.8117 30.4147 51.7856L31.6598 51.1899C31.6858 51.1769 31.7119 51.1704 31.7379 51.1704C31.79 51.1704 31.816 51.2095 31.816 51.2876V51.9077C31.816 51.9435 31.8339 51.9614 31.8698 51.9614C31.9088 51.9614 32 51.9142 32.1432 51.8198C32.5566 51.5529 32.9863 51.4194 33.4323 51.4194C33.7448 51.4194 34.0312 51.5464 34.2916 51.8003C34.6334 52.1323 34.8613 52.5946 34.9752 53.187C35.0078 53.3563 35.024 53.5369 35.024 53.729C35.024 53.9178 34.9931 54.118 34.9313 54.3296C34.8076 54.7495 34.583 55.1157 34.2574 55.4282ZM32.861 51.9272C32.4183 51.9272 32.0699 52.0542 31.816 52.3081V55.0522C31.816 55.215 31.8437 55.3208 31.899 55.3696C32.0423 55.4933 32.262 55.5894 32.5582 55.6577C33.1442 55.7912 33.5999 55.6512 33.9254 55.2378C34.1565 54.9416 34.2721 54.5835 34.2721 54.1636C34.2721 53.3465 34.0882 52.7345 33.7203 52.3276C33.499 52.0802 33.2125 51.9468 32.861 51.9272ZM35.903 55.9409C35.8704 55.9344 35.8541 55.9116 35.8541 55.8726C35.8541 55.814 35.9306 55.7749 36.0836 55.7554C36.4352 55.7033 36.611 55.5177 36.611 55.1987V52.6157C36.611 52.479 36.5361 52.3846 36.3864 52.3325C36.3212 52.3097 36.2513 52.2918 36.1764 52.2788C36.1015 52.2625 36.0413 52.2479 35.9957 52.2349C35.9534 52.2218 35.9257 52.2104 35.9127 52.2007C35.903 52.1877 35.8981 52.1632 35.8981 52.1274C35.8981 52.0884 35.9225 52.0558 35.9713 52.0298L37.2164 51.4438C37.2555 51.4243 37.2799 51.4146 37.2897 51.4146C37.345 51.4146 37.3727 51.4536 37.3727 51.5317V55.1987C37.3727 55.5177 37.5485 55.7033 37.9 55.7554C38.053 55.7749 38.1295 55.8091 38.1295 55.8579C38.1295 55.9067 38.1132 55.9344 38.0807 55.9409H35.903ZM36.9186 50.0425C36.7851 50.0425 36.6663 50.0002 36.5621 49.9155C36.4612 49.8309 36.4108 49.7137 36.4108 49.564C36.4108 49.411 36.4596 49.2905 36.5573 49.2026C36.6549 49.1147 36.7705 49.0708 36.9039 49.0708C37.0406 49.0708 37.1546 49.1229 37.2457 49.2271C37.3401 49.3312 37.3873 49.4435 37.3873 49.564C37.3873 49.6844 37.3434 49.7951 37.2555 49.896C37.1676 49.9937 37.0553 50.0425 36.9186 50.0425ZM42.2994 54.4028L42.2897 53.3726C42.2897 52.9526 42.2539 52.658 42.1823 52.4888C42.1106 52.3195 42.0195 52.1925 41.9088 52.1079C41.7981 52.02 41.6484 51.9761 41.4596 51.9761C41.274 51.9761 40.8785 52.1226 40.2731 52.4155C40.1917 52.4644 40.1494 52.5099 40.1461 52.5522V55.1792C40.1461 55.508 40.3219 55.6968 40.6735 55.7456C40.8265 55.7684 40.903 55.8058 40.903 55.8579C40.903 55.9067 40.8867 55.9344 40.8541 55.9409H38.6764C38.6438 55.9344 38.6276 55.9116 38.6276 55.8726C38.6276 55.8107 38.7041 55.7684 38.8571 55.7456C39.2086 55.6968 39.3844 55.508 39.3844 55.1792V52.3765C39.3844 52.2397 39.3095 52.1453 39.1598 52.0933C39.0947 52.0705 39.0247 52.0526 38.9498 52.0396C38.875 52.0233 38.8147 52.0086 38.7692 51.9956C38.7268 51.9826 38.6992 51.9712 38.6862 51.9614C38.6764 51.9484 38.6715 51.924 38.6715 51.8882C38.6715 51.8491 38.6959 51.8166 38.7448 51.7905L39.9899 51.2046C40.0289 51.1851 40.0533 51.1753 40.0631 51.1753C40.1184 51.1753 40.1461 51.2144 40.1461 51.2925V52.0542C40.1559 52.0868 40.1689 52.103 40.1852 52.103C40.2047 52.103 40.2747 52.0737 40.3951 52.0151C40.6751 51.8752 40.9567 51.7401 41.2399 51.6099C41.5231 51.4797 41.7574 51.4146 41.943 51.4146C42.6949 51.4146 43.0709 52.0998 43.0709 53.4702L43.027 54.896V55.1792C43.027 55.4331 43.1539 55.5991 43.4078 55.6772C43.5153 55.7131 43.6178 55.7391 43.7155 55.7554C43.8164 55.7684 43.8815 55.7814 43.9108 55.7944C43.9433 55.8075 43.9596 55.8335 43.9596 55.8726C43.9596 55.9116 43.9433 55.9344 43.9108 55.9409H41.5573C41.5247 55.9344 41.5084 55.9116 41.5084 55.8726C41.5084 55.8107 41.5849 55.7684 41.7379 55.7456C42.0862 55.6968 42.2604 55.495 42.2604 55.1401C42.2864 54.9774 42.2994 54.7316 42.2994 54.4028ZM46.0055 55.687C46.0055 56.2925 45.7207 56.797 45.151 57.2007C45.0208 57.2951 44.9231 57.3423 44.858 57.3423C44.8092 57.3423 44.7848 57.2983 44.7848 57.2104C44.7848 57.1584 44.819 57.1079 44.8873 57.0591C44.9589 57.0135 45.011 56.9761 45.0436 56.9468C45.3724 56.6506 45.5367 56.382 45.5367 56.1411C45.5367 56.0467 45.5172 55.9897 45.4781 55.9702C45.4423 55.9507 45.3626 55.9409 45.2389 55.9409C45.1152 55.9409 44.985 55.8937 44.8483 55.7993C44.7148 55.7049 44.6481 55.5666 44.6481 55.3843C44.6481 55.202 44.692 55.0718 44.7799 54.9937C44.9296 54.8569 45.0729 54.7886 45.2096 54.7886C45.4635 54.7886 45.6588 54.8895 45.7955 55.0913C45.9355 55.2899 46.0055 55.4884 46.0055 55.687ZM49.6481 53.7485C49.6481 53.1073 49.8743 52.5571 50.3268 52.0981C50.7825 51.6359 51.3278 51.4048 51.9625 51.4048C52.5973 51.4048 53.149 51.6294 53.6178 52.0786C54.0865 52.5246 54.3209 53.0763 54.3209 53.7339C54.3209 54.3914 54.0979 54.9465 53.652 55.3989C53.2093 55.8481 52.6526 56.0728 51.9821 56.0728C51.3115 56.0728 50.7548 55.8449 50.3121 55.3892C49.8694 54.9334 49.6481 54.3866 49.6481 53.7485ZM50.8639 55.0034C51.1829 55.5405 51.6175 55.8091 52.1676 55.8091C52.594 55.8091 52.9196 55.6382 53.1442 55.2964C53.372 54.9546 53.486 54.5347 53.486 54.0366C53.486 53.5386 53.3265 53.0275 53.0074 52.5034C52.6917 51.9793 52.2653 51.7173 51.7281 51.7173C51.3343 51.7173 51.0234 51.8882 50.7955 52.23C50.5709 52.5685 50.4586 52.9998 50.4586 53.5239C50.4586 54.0448 50.5937 54.5379 50.8639 55.0034ZM58.6178 54.4028L58.608 53.3726C58.608 52.9526 58.5722 52.658 58.5006 52.4888C58.429 52.3195 58.3378 52.1925 58.2272 52.1079C58.1165 52.02 57.9668 51.9761 57.778 51.9761C57.5924 51.9761 57.1969 52.1226 56.5914 52.4155C56.5101 52.4644 56.4677 52.5099 56.4645 52.5522V55.1792C56.4645 55.508 56.6403 55.6968 56.9918 55.7456C57.1448 55.7684 57.2213 55.8058 57.2213 55.8579C57.2213 55.9067 57.205 55.9344 57.1725 55.9409H54.9948C54.9622 55.9344 54.9459 55.9116 54.9459 55.8726C54.9459 55.8107 55.0224 55.7684 55.1754 55.7456C55.527 55.6968 55.7028 55.508 55.7028 55.1792V52.3765C55.7028 52.2397 55.6279 52.1453 55.4781 52.0933C55.413 52.0705 55.3431 52.0526 55.2682 52.0396C55.1933 52.0233 55.1331 52.0086 55.0875 51.9956C55.0452 51.9826 55.0175 51.9712 55.0045 51.9614C54.9948 51.9484 54.9899 51.924 54.9899 51.8882C54.9899 51.8491 55.0143 51.8166 55.0631 51.7905L56.3082 51.2046C56.3473 51.1851 56.3717 51.1753 56.3815 51.1753C56.4368 51.1753 56.4645 51.2144 56.4645 51.2925V52.0542C56.4742 52.0868 56.4873 52.103 56.5035 52.103C56.5231 52.103 56.5931 52.0737 56.7135 52.0151C56.9934 51.8752 57.275 51.7401 57.5582 51.6099C57.8414 51.4797 58.0758 51.4146 58.2614 51.4146C59.0133 51.4146 59.3893 52.0998 59.3893 53.4702L59.3453 54.896V55.1792C59.3453 55.4331 59.4723 55.5991 59.7262 55.6772C59.8336 55.7131 59.9362 55.7391 60.0338 55.7554C60.1347 55.7684 60.1998 55.7814 60.2291 55.7944C60.2617 55.8075 60.278 55.8335 60.278 55.8726C60.278 55.9116 60.2617 55.9344 60.2291 55.9409H57.8756C57.8431 55.9344 57.8268 55.9116 57.8268 55.8726C57.8268 55.8107 57.9033 55.7684 58.0563 55.7456C58.4046 55.6968 58.5787 55.495 58.5787 55.1401C58.6048 54.9774 58.6178 54.7316 58.6178 54.4028ZM64.5895 52.186C64.5699 52.186 64.5602 52.2007 64.5602 52.23V54.9253C64.5602 55.1206 64.6025 55.2736 64.6871 55.3843C64.775 55.495 64.8857 55.5503 65.0192 55.5503C65.1526 55.5503 65.2682 55.5291 65.3658 55.4868C65.4668 55.4412 65.553 55.3924 65.6246 55.3403C65.6995 55.2882 65.7662 55.241 65.8248 55.1987C65.8834 55.1532 65.9355 55.1304 65.9811 55.1304C66.0267 55.1304 66.0494 55.1418 66.0494 55.1646C66.0494 55.2427 66.0413 55.2931 66.025 55.3159C65.6344 55.8205 65.2568 56.0728 64.8922 56.0728C64.5309 56.0728 64.2574 55.9588 64.0719 55.731C63.8896 55.4998 63.7985 55.2248 63.7985 54.9058V52.186H63.4323C63.3411 52.186 63.2923 52.1567 63.2858 52.0981C63.2825 52.0396 63.2923 52.0021 63.3151 51.9858C63.4876 51.8752 63.7252 51.6766 64.028 51.3901C64.0605 51.3543 64.1045 51.3006 64.1598 51.229C64.2151 51.1574 64.2949 51.0597 64.399 50.936C64.5065 50.8123 64.5878 50.7505 64.6432 50.7505C64.6985 50.7505 64.7262 50.7733 64.7262 50.8188C64.7262 50.8254 64.6709 51.0386 64.5602 51.4585C64.5602 51.5171 64.5862 51.548 64.6383 51.5513H65.8834C66.0267 51.5513 66.0983 51.7531 66.0983 52.1567C66.0983 52.1763 66.0852 52.186 66.0592 52.186H64.5895ZM69.5358 52.4399C69.4967 52.4334 69.4397 52.4123 69.3649 52.3765C69.0947 52.2528 68.8831 52.1909 68.7301 52.1909C68.5771 52.1909 68.416 52.2869 68.2467 52.479C68.0807 52.6678 67.9977 52.8387 67.9977 52.9917V55.1987C67.9977 55.4429 68.1393 55.6056 68.4225 55.687C68.5462 55.7196 68.6617 55.744 68.7692 55.7603C68.8766 55.7733 68.9449 55.7863 68.9742 55.7993C69.0068 55.8123 69.0231 55.8384 69.0231 55.8774C69.0231 55.9132 69.0068 55.9344 68.9742 55.9409H66.528C66.4954 55.9344 66.4791 55.9116 66.4791 55.8726C66.4791 55.814 66.5556 55.7749 66.7086 55.7554C67.0602 55.7033 67.236 55.5177 67.236 55.1987V52.6157C67.236 52.479 67.1611 52.3846 67.0114 52.3325C66.9462 52.3097 66.8763 52.2918 66.8014 52.2788C66.7265 52.2625 66.6663 52.2479 66.6207 52.2349C66.5784 52.2218 66.5507 52.2104 66.5377 52.2007C66.528 52.1877 66.5231 52.1632 66.5231 52.1274C66.5231 52.0884 66.5475 52.0558 66.5963 52.0298L67.8414 51.4438C67.8805 51.4243 67.9049 51.4146 67.9147 51.4146C67.97 51.4146 67.9977 51.4536 67.9977 51.5317V52.3228C67.9977 52.3618 68.0074 52.3813 68.027 52.3813C68.053 52.3813 68.1198 52.3049 68.2272 52.1519C68.5364 51.7189 68.792 51.5024 68.9938 51.5024C69.1077 51.5024 69.2819 51.548 69.5162 51.6392C69.7539 51.7303 69.8727 51.8068 69.8727 51.8687C69.8727 51.9435 69.8352 52.0575 69.7604 52.2104C69.6855 52.3634 69.6106 52.4399 69.5358 52.4399ZM70.2438 53.7485C70.2438 53.1073 70.47 52.5571 70.9225 52.0981C71.3782 51.6359 71.9235 51.4048 72.5582 51.4048C73.193 51.4048 73.7448 51.6294 74.2135 52.0786C74.6823 52.5246 74.9166 53.0763 74.9166 53.7339C74.9166 54.3914 74.6936 54.9465 74.2477 55.3989C73.805 55.8481 73.2483 56.0728 72.5778 56.0728C71.9072 56.0728 71.3505 55.8449 70.9078 55.3892C70.4651 54.9334 70.2438 54.3866 70.2438 53.7485ZM71.4596 55.0034C71.7786 55.5405 72.2132 55.8091 72.7633 55.8091C73.1897 55.8091 73.5153 55.6382 73.7399 55.2964C73.9677 54.9546 74.0817 54.5347 74.0817 54.0366C74.0817 53.5386 73.9222 53.0275 73.6031 52.5034C73.2874 51.9793 72.861 51.7173 72.3239 51.7173C71.93 51.7173 71.6191 51.8882 71.3912 52.23C71.1666 52.5685 71.0543 52.9998 71.0543 53.5239C71.0543 54.0448 71.1894 54.5379 71.4596 55.0034ZM78.9694 55.5112C78.9531 55.4559 78.9319 55.438 78.9059 55.4575C78.8798 55.4738 78.774 55.5291 78.5885 55.6235C77.9798 55.9263 77.472 56.0776 77.0651 56.0776C76.6582 56.0776 76.3652 55.9474 76.1862 55.687C76.1211 55.5894 76.0885 55.4689 76.0885 55.3257V52.3472C76.0787 52.2528 76.0364 52.1714 75.9615 52.103C75.8606 52.0184 75.7548 51.9728 75.6442 51.9663C75.5367 51.9598 75.483 51.9272 75.483 51.8687C75.483 51.8068 75.5091 51.7694 75.5612 51.7563L76.6793 51.4341C76.7184 51.4211 76.7558 51.4146 76.7916 51.4146C76.8307 51.4146 76.8502 51.4422 76.8502 51.4976V54.7739C76.8502 55.0018 76.9511 55.1776 77.153 55.3013C77.3548 55.425 77.6119 55.4868 77.9244 55.4868C78.2402 55.4868 78.5234 55.3908 78.774 55.1987C78.8522 55.1369 78.9173 55.0685 78.9694 54.9937V52.3472C78.9596 52.2528 78.9173 52.1714 78.8424 52.103C78.7415 52.0184 78.6357 51.9728 78.525 51.9663C78.4176 51.9598 78.3639 51.9272 78.3639 51.8687C78.3639 51.8068 78.3899 51.7694 78.442 51.7563L79.5602 51.4341C79.5992 51.4211 79.6367 51.4146 79.6725 51.4146C79.7115 51.4146 79.7311 51.4471 79.7311 51.5122V54.979C79.7474 55.1222 79.788 55.2248 79.8531 55.2866C79.9183 55.3485 80.024 55.3794 80.1705 55.3794L80.4537 55.3599C80.4733 55.3599 80.483 55.3794 80.483 55.4185C80.483 55.4543 80.4586 55.4836 80.4098 55.5063L79.111 56.0435C79.0719 56.063 79.0377 56.0728 79.0084 56.0728C78.9824 56.0728 78.9694 56.0321 78.9694 55.9507V55.5112ZM85.7321 51.5464C85.7679 51.5562 85.7858 51.5789 85.7858 51.6147C85.7858 51.6506 85.7809 51.6766 85.7711 51.6929C85.7614 51.7091 85.6897 51.7271 85.5563 51.7466C85.4228 51.7661 85.3268 51.8052 85.2682 51.8638C85.2128 51.9191 85.1624 51.9826 85.1168 52.0542C85.0745 52.1258 85.0371 52.2007 85.0045 52.2788C84.972 52.3537 84.941 52.422 84.9117 52.4839L83.5787 55.9312C83.5397 56.0256 83.5039 56.0728 83.4713 56.0728H83.0856C83.053 56.0728 83.0172 56.0223 82.9781 55.9214L81.6842 52.4204C81.5638 52.0916 81.3571 51.88 81.0641 51.7856C81.0413 51.7791 81.0136 51.7743 80.9811 51.771C80.8444 51.758 80.776 51.7173 80.776 51.6489C80.776 51.5806 80.8151 51.5464 80.8932 51.5464H83.066C83.0921 51.5464 83.1051 51.5724 83.1051 51.6245C83.1051 51.6733 83.0872 51.7059 83.0514 51.7222C82.9928 51.745 82.8886 51.7547 82.7389 51.7515C82.4948 51.745 82.3727 51.8426 82.3727 52.0444L82.402 52.1616L83.3932 54.8716C83.4583 55.0376 83.5234 55.0327 83.5885 54.8569C83.595 54.8407 83.6373 54.7349 83.7155 54.5396C84.1549 53.4165 84.4007 52.7671 84.4528 52.5913C84.5081 52.4155 84.5358 52.2837 84.5358 52.1958C84.5358 52.1079 84.4886 52.0168 84.3942 51.9224C84.2998 51.8247 84.1728 51.7759 84.0133 51.7759C83.8538 51.7759 83.774 51.7271 83.774 51.6294C83.774 51.5741 83.8099 51.5464 83.8815 51.5464H85.7321ZM86.9625 53.3677C86.9072 53.3677 86.8795 53.4865 86.8795 53.7241C86.8795 54.2287 87.0293 54.6519 87.3287 54.9937C87.6282 55.3354 87.9993 55.5063 88.442 55.5063C88.888 55.5063 89.316 55.3143 89.7262 54.9302C89.7327 54.9237 89.7408 54.9204 89.7506 54.9204H89.775C89.7946 54.9204 89.8125 54.9367 89.8287 54.9692C89.8483 54.9985 89.8662 55.0181 89.8824 55.0278C89.5048 55.4868 89.0605 55.8042 88.5494 55.98C88.3737 56.0418 88.1751 56.0728 87.9537 56.0728C87.7324 56.0728 87.5078 56.0125 87.2799 55.8921C87.052 55.7684 86.8567 55.6073 86.694 55.4087C86.3489 54.9953 86.1764 54.481 86.1764 53.8657C86.1764 53.2472 86.3636 52.6841 86.7379 52.1763C87.1155 51.6685 87.6331 51.4146 88.2906 51.4146C88.7627 51.4146 89.1484 51.6261 89.4479 52.0493C89.7474 52.4692 89.8971 52.8387 89.8971 53.1577C89.8971 53.2977 89.8629 53.3677 89.7946 53.3677H86.9625ZM87.0162 52.8989C87.0162 52.9608 87.0455 52.9917 87.1041 52.9917H88.9449C89.0296 52.9917 89.0719 52.9412 89.0719 52.8403C89.0719 52.606 88.9661 52.3667 88.7545 52.1226C88.5462 51.8752 88.3167 51.7515 88.066 51.7515C87.8219 51.7515 87.5989 51.8621 87.3971 52.0835C87.1985 52.3049 87.0716 52.5571 87.0162 52.8403V52.8989ZM96.7428 55.5112C96.7265 55.4559 96.7054 55.438 96.6793 55.4575C96.6533 55.4738 96.5475 55.5291 96.3619 55.6235C95.7532 55.9263 95.2454 56.0776 94.8385 56.0776C94.4316 56.0776 94.1386 55.9474 93.9596 55.687C93.8945 55.5894 93.8619 55.4689 93.8619 55.3257V52.3472C93.8522 52.2528 93.8099 52.1714 93.735 52.103C93.6341 52.0184 93.5283 51.9728 93.4176 51.9663C93.3102 51.9598 93.2565 51.9272 93.2565 51.8687C93.2565 51.8068 93.2825 51.7694 93.3346 51.7563L94.4528 51.4341C94.4918 51.4211 94.5293 51.4146 94.5651 51.4146C94.6041 51.4146 94.6237 51.4422 94.6237 51.4976V54.7739C94.6237 55.0018 94.7246 55.1776 94.9264 55.3013C95.1282 55.425 95.3854 55.4868 95.6979 55.4868C96.0136 55.4868 96.2968 55.3908 96.5475 55.1987C96.6256 55.1369 96.6907 55.0685 96.7428 54.9937V52.3472C96.733 52.2528 96.6907 52.1714 96.6158 52.103C96.5149 52.0184 96.4091 51.9728 96.2985 51.9663C96.191 51.9598 96.1373 51.9272 96.1373 51.8687C96.1373 51.8068 96.1634 51.7694 96.2155 51.7563L97.3336 51.4341C97.3727 51.4211 97.4101 51.4146 97.4459 51.4146C97.485 51.4146 97.5045 51.4471 97.5045 51.5122V54.979C97.5208 55.1222 97.5615 55.2248 97.6266 55.2866C97.6917 55.3485 97.7975 55.3794 97.944 55.3794L98.2272 55.3599C98.2467 55.3599 98.2565 55.3794 98.2565 55.4185C98.2565 55.4543 98.2321 55.4836 98.1832 55.5063L96.8844 56.0435C96.8453 56.063 96.8112 56.0728 96.7819 56.0728C96.7558 56.0728 96.7428 56.0321 96.7428 55.9507V55.5112ZM102.475 54.4028L102.465 53.3726C102.465 52.9526 102.43 52.658 102.358 52.4888C102.286 52.3195 102.195 52.1925 102.085 52.1079C101.974 52.02 101.824 51.9761 101.635 51.9761C101.45 51.9761 101.054 52.1226 100.449 52.4155C100.367 52.4644 100.325 52.5099 100.322 52.5522V55.1792C100.322 55.508 100.498 55.6968 100.849 55.7456C101.002 55.7684 101.079 55.8058 101.079 55.8579C101.079 55.9067 101.062 55.9344 101.03 55.9409H98.8522C98.8196 55.9344 98.8033 55.9116 98.8033 55.8726C98.8033 55.8107 98.8798 55.7684 99.0328 55.7456C99.3844 55.6968 99.5602 55.508 99.5602 55.1792V52.3765C99.5602 52.2397 99.4853 52.1453 99.3356 52.0933C99.2705 52.0705 99.2005 52.0526 99.1256 52.0396C99.0507 52.0233 98.9905 52.0086 98.9449 51.9956C98.9026 51.9826 98.875 51.9712 98.8619 51.9614C98.8522 51.9484 98.8473 51.924 98.8473 51.8882C98.8473 51.8491 98.8717 51.8166 98.9205 51.7905L100.166 51.2046C100.205 51.1851 100.229 51.1753 100.239 51.1753C100.294 51.1753 100.322 51.2144 100.322 51.2925V52.0542C100.332 52.0868 100.345 52.103 100.361 52.103C100.38 52.103 100.45 52.0737 100.571 52.0151C100.851 51.8752 101.132 51.7401 101.416 51.6099C101.699 51.4797 101.933 51.4146 102.119 51.4146C102.871 51.4146 103.247 52.0998 103.247 53.4702L103.203 54.896V55.1792C103.203 55.4331 103.33 55.5991 103.584 55.6772C103.691 55.7131 103.794 55.7391 103.891 55.7554C103.992 55.7684 104.057 55.7814 104.087 55.7944C104.119 55.8075 104.135 55.8335 104.135 55.8726C104.135 55.9116 104.119 55.9344 104.087 55.9409H101.733C101.7 55.9344 101.684 55.9116 101.684 55.8726C101.684 55.8107 101.761 55.7684 101.914 55.7456C102.262 55.6968 102.436 55.495 102.436 55.1401C102.462 54.9774 102.475 54.7316 102.475 54.4028ZM108.447 52.186C108.427 52.186 108.418 52.2007 108.418 52.23V54.9253C108.418 55.1206 108.46 55.2736 108.545 55.3843C108.632 55.495 108.743 55.5503 108.877 55.5503C109.01 55.5503 109.126 55.5291 109.223 55.4868C109.324 55.4412 109.41 55.3924 109.482 55.3403C109.557 55.2882 109.624 55.241 109.682 55.1987C109.741 55.1532 109.793 55.1304 109.839 55.1304C109.884 55.1304 109.907 55.1418 109.907 55.1646C109.907 55.2427 109.899 55.2931 109.882 55.3159C109.492 55.8205 109.114 56.0728 108.75 56.0728C108.388 56.0728 108.115 55.9588 107.929 55.731C107.747 55.4998 107.656 55.2248 107.656 54.9058V52.186H107.29C107.199 52.186 107.15 52.1567 107.143 52.0981C107.14 52.0396 107.15 52.0021 107.172 51.9858C107.345 51.8752 107.583 51.6766 107.885 51.3901C107.918 51.3543 107.962 51.3006 108.017 51.229C108.073 51.1574 108.152 51.0597 108.256 50.936C108.364 50.8123 108.445 50.7505 108.501 50.7505C108.556 50.7505 108.584 50.7733 108.584 50.8188C108.584 50.8254 108.528 51.0386 108.418 51.4585C108.418 51.5171 108.444 51.548 108.496 51.5513H109.741C109.884 51.5513 109.956 51.7531 109.956 52.1567C109.956 52.1763 109.943 52.186 109.917 52.186H108.447ZM113.393 52.4399C113.354 52.4334 113.297 52.4123 113.222 52.3765C112.952 52.2528 112.741 52.1909 112.588 52.1909C112.435 52.1909 112.273 52.2869 112.104 52.479C111.938 52.6678 111.855 52.8387 111.855 52.9917V55.1987C111.855 55.4429 111.997 55.6056 112.28 55.687C112.404 55.7196 112.519 55.744 112.627 55.7603C112.734 55.7733 112.802 55.7863 112.832 55.7993C112.864 55.8123 112.88 55.8384 112.88 55.8774C112.88 55.9132 112.864 55.9344 112.832 55.9409H110.385C110.353 55.9344 110.337 55.9116 110.337 55.8726C110.337 55.814 110.413 55.7749 110.566 55.7554C110.918 55.7033 111.093 55.5177 111.093 55.1987V52.6157C111.093 52.479 111.019 52.3846 110.869 52.3325C110.804 52.3097 110.734 52.2918 110.659 52.2788C110.584 52.2625 110.524 52.2479 110.478 52.2349C110.436 52.2218 110.408 52.2104 110.395 52.2007C110.385 52.1877 110.38 52.1632 110.38 52.1274C110.38 52.0884 110.405 52.0558 110.454 52.0298L111.699 51.4438C111.738 51.4243 111.762 51.4146 111.772 51.4146C111.827 51.4146 111.855 51.4536 111.855 51.5317V52.3228C111.855 52.3618 111.865 52.3813 111.884 52.3813C111.91 52.3813 111.977 52.3049 112.085 52.1519C112.394 51.7189 112.649 51.5024 112.851 51.5024C112.965 51.5024 113.139 51.548 113.374 51.6392C113.611 51.7303 113.73 51.8068 113.73 51.8687C113.73 51.9435 113.693 52.0575 113.618 52.2104C113.543 52.3634 113.468 52.4399 113.393 52.4399ZM117.094 55.1353C117.094 55.2199 117.133 55.2882 117.212 55.3403C117.293 55.3892 117.386 55.4136 117.49 55.4136C117.594 55.4136 117.68 55.3875 117.749 55.3354C117.82 55.2801 117.869 55.2524 117.895 55.2524C117.921 55.2524 117.934 55.2882 117.934 55.3599C117.934 55.4282 117.902 55.4868 117.837 55.5356C117.348 55.8937 117.018 56.0728 116.845 56.0728C116.637 56.0728 116.468 55.8563 116.338 55.4233C116.328 55.3908 116.32 55.3761 116.313 55.3794C115.909 55.6821 115.656 55.8644 115.551 55.9263C115.284 56.0793 115.016 56.1037 114.746 55.9995C114.479 55.8953 114.285 55.7228 114.165 55.4819C114.106 55.3582 114.077 55.2264 114.077 55.0864C114.077 54.8097 114.179 54.59 114.384 54.4272C114.589 54.2645 114.98 54.1082 115.556 53.9585C115.752 53.9064 115.926 53.8397 116.079 53.7583C116.232 53.6769 116.311 53.6248 116.318 53.6021C116.328 53.5793 116.333 53.5581 116.333 53.5386V52.6011C116.333 52.2332 116.189 51.9744 115.903 51.8247C115.809 51.7759 115.695 51.7515 115.561 51.7515C115.431 51.7515 115.297 51.8035 115.161 51.9077C115.027 52.0119 114.961 52.16 114.961 52.3521L114.985 52.5425C114.965 52.5815 114.848 52.6466 114.633 52.7378C114.419 52.8289 114.295 52.8778 114.262 52.8843C114.21 52.8843 114.184 52.8224 114.184 52.6987C114.184 52.5718 114.222 52.4318 114.297 52.2788C114.371 52.1258 114.477 51.9858 114.614 51.8589C114.933 51.5627 115.297 51.4146 115.708 51.4146C116.118 51.4146 116.451 51.5285 116.709 51.7563C116.966 51.981 117.094 52.2495 117.094 52.562V55.1353ZM114.843 54.9937C114.843 55.1499 114.904 55.2866 115.024 55.4038C115.144 55.5177 115.281 55.5747 115.434 55.5747C115.59 55.5747 115.779 55.5096 116.001 55.3794C116.222 55.2459 116.333 55.1092 116.333 54.9692V53.978C116.333 53.9422 116.325 53.9243 116.308 53.9243C116.292 53.9243 116.281 53.9259 116.274 53.9292L115.141 54.4565C115.024 54.5412 114.944 54.6128 114.902 54.6714C114.863 54.73 114.843 54.8374 114.843 54.9937ZM118.403 55.9409C118.37 55.9344 118.354 55.9116 118.354 55.8726C118.354 55.814 118.431 55.7749 118.584 55.7554C118.935 55.7033 119.111 55.5177 119.111 55.1987V52.6157C119.111 52.479 119.036 52.3846 118.886 52.3325C118.821 52.3097 118.751 52.2918 118.676 52.2788C118.602 52.2625 118.541 52.2479 118.496 52.2349C118.453 52.2218 118.426 52.2104 118.413 52.2007C118.403 52.1877 118.398 52.1632 118.398 52.1274C118.398 52.0884 118.422 52.0558 118.471 52.0298L119.716 51.4438C119.755 51.4243 119.78 51.4146 119.79 51.4146C119.845 51.4146 119.873 51.4536 119.873 51.5317V55.1987C119.873 55.5177 120.048 55.7033 120.4 55.7554C120.553 55.7749 120.63 55.8091 120.63 55.8579C120.63 55.9067 120.613 55.9344 120.581 55.9409H118.403ZM119.419 50.0425C119.285 50.0425 119.166 50.0002 119.062 49.9155C118.961 49.8309 118.911 49.7137 118.911 49.564C118.911 49.411 118.96 49.2905 119.057 49.2026C119.155 49.1147 119.27 49.0708 119.404 49.0708C119.541 49.0708 119.655 49.1229 119.746 49.2271C119.84 49.3312 119.887 49.4435 119.887 49.564C119.887 49.6844 119.843 49.7951 119.755 49.896C119.668 49.9937 119.555 50.0425 119.419 50.0425ZM122.402 52.186C122.382 52.186 122.373 52.2007 122.373 52.23V54.9253C122.373 55.1206 122.415 55.2736 122.5 55.3843C122.588 55.495 122.698 55.5503 122.832 55.5503C122.965 55.5503 123.081 55.5291 123.178 55.4868C123.279 55.4412 123.366 55.3924 123.437 55.3403C123.512 55.2882 123.579 55.241 123.637 55.1987C123.696 55.1532 123.748 55.1304 123.794 55.1304C123.839 55.1304 123.862 55.1418 123.862 55.1646C123.862 55.2427 123.854 55.2931 123.838 55.3159C123.447 55.8205 123.069 56.0728 122.705 56.0728C122.343 56.0728 122.07 55.9588 121.884 55.731C121.702 55.4998 121.611 55.2248 121.611 54.9058V52.186H121.245C121.154 52.186 121.105 52.1567 121.098 52.0981C121.095 52.0396 121.105 52.0021 121.128 51.9858C121.3 51.8752 121.538 51.6766 121.84 51.3901C121.873 51.3543 121.917 51.3006 121.972 51.229C122.028 51.1574 122.107 51.0597 122.212 50.936C122.319 50.8123 122.4 50.7505 122.456 50.7505C122.511 50.7505 122.539 50.7733 122.539 50.8188C122.539 50.8254 122.483 51.0386 122.373 51.4585C122.373 51.5171 122.399 51.548 122.451 51.5513H123.696C123.839 51.5513 123.911 51.7531 123.911 52.1567C123.911 52.1763 123.898 52.186 123.872 52.186H122.402ZM20.0826 69.9409C20.0501 69.9344 20.0338 69.9116 20.0338 69.8726C20.0338 69.814 20.1103 69.7749 20.2633 69.7554C20.6149 69.7033 20.7906 69.5177 20.7906 69.1987V66.6157C20.7906 66.479 20.7158 66.3846 20.566 66.3325C20.5009 66.3097 20.4309 66.2918 20.3561 66.2788C20.2812 66.2625 20.221 66.2479 20.1754 66.2349C20.1331 66.2218 20.1054 66.2104 20.0924 66.2007C20.0826 66.1877 20.0778 66.1632 20.0778 66.1274C20.0778 66.0884 20.1022 66.0558 20.151 66.0298L21.3961 65.4438C21.4352 65.4243 21.4596 65.4146 21.4694 65.4146C21.5247 65.4146 21.5524 65.4536 21.5524 65.5317V69.1987C21.5524 69.5177 21.7281 69.7033 22.0797 69.7554C22.2327 69.7749 22.3092 69.8091 22.3092 69.8579C22.3092 69.9067 22.2929 69.9344 22.2604 69.9409H20.0826ZM21.0983 64.0425C20.9648 64.0425 20.846 64.0002 20.7418 63.9155C20.6409 63.8309 20.5905 63.7137 20.5905 63.564C20.5905 63.411 20.6393 63.2905 20.7369 63.2026C20.8346 63.1147 20.9502 63.0708 21.0836 63.0708C21.2203 63.0708 21.3343 63.1229 21.4254 63.2271C21.5198 63.3312 21.567 63.4435 21.567 63.564C21.567 63.6844 21.5231 63.7951 21.4352 63.896C21.3473 63.9937 21.235 64.0425 21.0983 64.0425ZM26.4791 68.4028L26.4694 67.3726C26.4694 66.9526 26.4336 66.658 26.3619 66.4888C26.2903 66.3195 26.1992 66.1925 26.0885 66.1079C25.9778 66.02 25.8281 65.9761 25.6393 65.9761C25.4537 65.9761 25.0582 66.1226 24.4528 66.4155C24.3714 66.4644 24.3291 66.5099 24.3258 66.5522V69.1792C24.3258 69.508 24.5016 69.6968 24.8531 69.7456C25.0061 69.7684 25.0826 69.8058 25.0826 69.8579C25.0826 69.9067 25.0664 69.9344 25.0338 69.9409H22.8561C22.8235 69.9344 22.8073 69.9116 22.8073 69.8726C22.8073 69.8107 22.8837 69.7684 23.0367 69.7456C23.3883 69.6968 23.5641 69.508 23.5641 69.1792V66.3765C23.5641 66.2397 23.4892 66.1453 23.3395 66.0933C23.2744 66.0705 23.2044 66.0526 23.1295 66.0396C23.0546 66.0233 22.9944 66.0086 22.9489 65.9956C22.9065 65.9826 22.8789 65.9712 22.8658 65.9614C22.8561 65.9484 22.8512 65.924 22.8512 65.8882C22.8512 65.8491 22.8756 65.8166 22.9244 65.7905L24.1696 65.2046C24.2086 65.1851 24.233 65.1753 24.2428 65.1753C24.2981 65.1753 24.3258 65.2144 24.3258 65.2925V66.0542C24.3356 66.0868 24.3486 66.103 24.3649 66.103C24.3844 66.103 24.4544 66.0737 24.5748 66.0151C24.8548 65.8752 25.1364 65.7401 25.4196 65.6099C25.7028 65.4797 25.9371 65.4146 26.1227 65.4146C26.8746 65.4146 27.2506 66.0998 27.2506 67.4702L27.2067 68.896V69.1792C27.2067 69.4331 27.3336 69.5991 27.5875 69.6772C27.6949 69.7131 27.7975 69.7391 27.8951 69.7554C27.9961 69.7684 28.0612 69.7814 28.0905 69.7944C28.123 69.8075 28.1393 69.8335 28.1393 69.8726C28.1393 69.9116 28.123 69.9344 28.0905 69.9409H25.7369C25.7044 69.9344 25.6881 69.9116 25.6881 69.8726C25.6881 69.8107 25.7646 69.7684 25.9176 69.7456C26.2659 69.6968 26.4401 69.495 26.4401 69.1401C26.4661 68.9774 26.4791 68.7316 26.4791 68.4028ZM32.4117 66.0005C32.4117 66.2284 32.2799 66.3423 32.0162 66.3423C31.8828 66.3423 31.7688 66.3049 31.6744 66.23C31.5833 66.1519 31.5117 66.0868 31.4596 66.0347C31.4108 65.9793 31.3587 65.9289 31.3033 65.8833C31.069 65.6912 30.7825 65.6701 30.444 65.8198C30.1087 65.9696 29.8499 66.2886 29.6676 66.7769C29.5667 67.047 29.5162 67.3156 29.5162 67.5825C29.5162 68.1554 29.6464 68.6242 29.9069 68.9888C30.1673 69.3501 30.566 69.5308 31.1031 69.5308C31.5035 69.5308 31.8632 69.3517 32.1823 68.9937C32.2799 68.8862 32.3385 68.8325 32.358 68.8325C32.3776 68.8325 32.3987 68.8423 32.4215 68.8618C32.4443 68.8813 32.4557 68.9106 32.4557 68.9497C32.4557 68.9855 32.4459 69.0132 32.4264 69.0327C31.9283 69.7261 31.3017 70.0728 30.5465 70.0728C29.9996 70.0728 29.5504 69.8693 29.1989 69.4624C28.8505 69.0555 28.6764 68.59 28.6764 68.0659C28.6796 67.0959 28.914 66.3976 29.3795 65.9712C29.7897 65.5968 30.374 65.4097 31.1324 65.4097C31.6012 65.4097 31.9121 65.4569 32.0651 65.5513C32.2181 65.6457 32.3255 65.7645 32.3873 65.9077C32.4036 65.9403 32.4117 65.9712 32.4117 66.0005ZM33.1637 67.7485C33.1637 67.1073 33.3899 66.5571 33.8424 66.0981C34.2981 65.6359 34.8434 65.4048 35.4781 65.4048C36.1129 65.4048 36.6647 65.6294 37.1334 66.0786C37.6022 66.5246 37.8365 67.0763 37.8365 67.7339C37.8365 68.3914 37.6136 68.9465 37.1676 69.3989C36.7249 69.8481 36.1683 70.0728 35.4977 70.0728C34.8271 70.0728 34.2705 69.8449 33.8278 69.3892C33.3851 68.9334 33.1637 68.3866 33.1637 67.7485ZM34.3795 69.0034C34.6985 69.5405 35.1331 69.8091 35.6832 69.8091C36.1097 69.8091 36.4352 69.6382 36.6598 69.2964C36.8877 68.9546 37.0016 68.5347 37.0016 68.0366C37.0016 67.5386 36.8421 67.0275 36.5231 66.5034C36.2073 65.9793 35.7809 65.7173 35.2438 65.7173C34.8499 65.7173 34.539 65.8882 34.3112 66.23C34.0865 66.5685 33.9742 66.9998 33.9742 67.5239C33.9742 68.0448 34.1093 68.5379 34.3795 69.0034ZM44.985 68.4028L44.9752 67.3726C44.9752 66.9526 44.9394 66.658 44.8678 66.4888C44.7962 66.3195 44.705 66.1925 44.5944 66.1079C44.4837 66.02 44.3339 65.9761 44.1451 65.9761C43.9596 65.9761 43.5641 66.1226 42.9586 66.4155C42.8772 66.4644 42.8349 66.5099 42.8317 66.5522V69.1792C42.8317 69.508 43.0074 69.6968 43.359 69.7456C43.512 69.7684 43.5885 69.8058 43.5885 69.8579C43.5885 69.9067 43.5722 69.9344 43.5397 69.9409H41.3619C41.3294 69.9344 41.3131 69.9116 41.3131 69.8726C41.3131 69.8107 41.3896 69.7684 41.5426 69.7456C41.8942 69.6968 42.0699 69.508 42.0699 69.1792V66.7476C42.0699 66.2365 41.7542 65.981 41.1227 65.981C40.8916 65.981 40.5709 66.1177 40.1608 66.3911C40.0566 66.4595 39.9801 66.5229 39.9313 66.5815V69.1792C39.9313 69.508 40.1071 69.6968 40.4586 69.7456C40.6116 69.7684 40.6881 69.8058 40.6881 69.8579C40.6881 69.9067 40.6718 69.9344 40.6393 69.9409H38.4615C38.429 69.9344 38.4127 69.9116 38.4127 69.8726C38.4127 69.8107 38.4892 69.7684 38.6422 69.7456C38.9938 69.6968 39.1696 69.5112 39.1696 69.189V66.3765C39.1696 66.2397 39.0947 66.1453 38.9449 66.0933C38.8798 66.0705 38.8099 66.0526 38.735 66.0396C38.6601 66.0233 38.5999 66.0086 38.5543 65.9956C38.512 65.9826 38.4843 65.9712 38.4713 65.9614C38.4615 65.9484 38.4567 65.924 38.4567 65.8882C38.4567 65.8491 38.4811 65.8166 38.5299 65.7905L39.775 65.2046C39.8141 65.1851 39.8385 65.1753 39.8483 65.1753C39.9036 65.1753 39.9313 65.2144 39.9313 65.2925V66.103C39.9345 66.1226 39.9459 66.1323 39.9655 66.1323C39.9882 66.1323 40.042 66.1095 40.1266 66.064C40.2145 66.0184 40.3284 65.9549 40.4684 65.8735C40.6084 65.7889 40.7923 65.6912 41.0201 65.5806C41.2513 65.4699 41.4954 65.4146 41.7526 65.4146C42.166 65.4146 42.4622 65.592 42.6412 65.9468C42.7096 66.09 42.7714 66.1519 42.8268 66.1323C42.8821 66.1095 42.9684 66.0688 43.0856 66.0103C43.3623 65.8735 43.6422 65.7401 43.9254 65.6099C44.2086 65.4797 44.443 65.4146 44.6285 65.4146C45.3805 65.4146 45.7565 66.0998 45.7565 67.4702L45.7125 68.896V69.1792C45.7125 69.4331 45.8395 69.5991 46.0934 69.6772C46.2008 69.7131 46.3033 69.7391 46.401 69.7554C46.5019 69.7684 46.567 69.7814 46.5963 69.7944C46.6289 69.8075 46.6451 69.8335 46.6451 69.8726C46.6451 69.9116 46.6289 69.9344 46.5963 69.9409H44.2428C44.2102 69.9344 44.194 69.9116 44.194 69.8726C44.194 69.8107 44.2705 69.7684 44.4235 69.7456C44.7718 69.6968 44.9459 69.495 44.9459 69.1401C44.972 68.9774 44.985 68.7316 44.985 68.4028ZM50.6832 69.4282C50.234 69.8579 49.7295 70.0728 49.1696 70.0728C48.9677 70.0728 48.6927 70.0353 48.3444 69.9604C48.289 69.9604 48.2581 69.98 48.2516 70.019C48.2483 70.0581 48.2451 70.0988 48.2418 70.1411V72.2261C48.2418 72.4702 48.3834 72.633 48.6666 72.7144C48.7903 72.7469 48.9059 72.7697 49.0133 72.7827C49.1207 72.799 49.1891 72.8136 49.2184 72.8267C49.2509 72.8397 49.2672 72.8641 49.2672 72.8999C49.2672 72.939 49.2509 72.9618 49.2184 72.9683H46.7721C46.7395 72.9618 46.7233 72.939 46.7233 72.8999C46.7233 72.8413 46.7998 72.8022 46.9528 72.7827C47.3043 72.7306 47.4801 72.5451 47.4801 72.2261V66.3716C47.4801 66.2349 47.4052 66.1405 47.2555 66.0884C47.1904 66.0656 47.1204 66.0477 47.0455 66.0347C46.9707 66.0184 46.9104 66.0037 46.8649 65.9907C46.8226 65.9777 46.7949 65.9663 46.7819 65.9565C46.7721 65.9435 46.7672 65.9191 46.7672 65.8833C46.7672 65.8442 46.7916 65.8117 46.8405 65.7856L48.0856 65.1899C48.1116 65.1769 48.1377 65.1704 48.1637 65.1704C48.2158 65.1704 48.2418 65.2095 48.2418 65.2876V65.9077C48.2418 65.9435 48.2597 65.9614 48.2955 65.9614C48.3346 65.9614 48.4257 65.9142 48.569 65.8198C48.9824 65.5529 49.4121 65.4194 49.858 65.4194C50.1705 65.4194 50.457 65.5464 50.7174 65.8003C51.0592 66.1323 51.2871 66.5946 51.401 67.187C51.4336 67.3563 51.4498 67.5369 51.4498 67.729C51.4498 67.9178 51.4189 68.118 51.3571 68.3296C51.2334 68.7495 51.0087 69.1157 50.6832 69.4282ZM49.2867 65.9272C48.844 65.9272 48.4957 66.0542 48.2418 66.3081V69.0522C48.2418 69.215 48.2695 69.3208 48.3248 69.3696C48.4681 69.4933 48.6878 69.5894 48.984 69.6577C49.5699 69.7912 50.0257 69.6512 50.3512 69.2378C50.5823 68.9416 50.6979 68.5835 50.6979 68.1636C50.6979 67.3465 50.514 66.7345 50.1461 66.3276C49.9248 66.0802 49.6383 65.9468 49.2867 65.9272ZM54.1305 69.7554C54.2835 69.7749 54.36 69.814 54.36 69.8726C54.36 69.9116 54.3437 69.9344 54.3112 69.9409H52.1334C52.1009 69.9344 52.0846 69.9116 52.0846 69.8726C52.0846 69.814 52.1611 69.7749 52.3141 69.7554C52.6656 69.7033 52.8414 69.5177 52.8414 69.1987V63.1099C52.8414 62.9731 52.7666 62.8787 52.6168 62.8267C52.5517 62.8039 52.4817 62.786 52.4069 62.7729C52.332 62.7567 52.2718 62.742 52.2262 62.729C52.1839 62.716 52.1562 62.7046 52.1432 62.6948C52.1334 62.6818 52.1285 62.6574 52.1285 62.6216C52.1285 62.5825 52.153 62.55 52.2018 62.5239L53.4469 61.938C53.486 61.9185 53.5104 61.9087 53.5201 61.9087C53.5755 61.9087 53.6031 61.9478 53.6031 62.0259V69.1987C53.6031 69.5177 53.7789 69.7033 54.1305 69.7554ZM55.6637 67.3677C55.6084 67.3677 55.5807 67.4865 55.5807 67.7241C55.5807 68.2287 55.7304 68.6519 56.0299 68.9937C56.3294 69.3354 56.7005 69.5063 57.1432 69.5063C57.5892 69.5063 58.0172 69.3143 58.4274 68.9302C58.4339 68.9237 58.442 68.9204 58.4518 68.9204H58.4762C58.4957 68.9204 58.5136 68.9367 58.5299 68.9692C58.5494 68.9985 58.5673 69.0181 58.5836 69.0278C58.206 69.4868 57.7617 69.8042 57.2506 69.98C57.0748 70.0418 56.8763 70.0728 56.6549 70.0728C56.4336 70.0728 56.2089 70.0125 55.9811 69.8921C55.7532 69.7684 55.5579 69.6073 55.3951 69.4087C55.0501 68.9953 54.8776 68.481 54.8776 67.8657C54.8776 67.2472 55.0647 66.6841 55.4391 66.1763C55.8167 65.6685 56.3343 65.4146 56.9918 65.4146C57.4638 65.4146 57.8496 65.6261 58.149 66.0493C58.4485 66.4692 58.5983 66.8387 58.5983 67.1577C58.5983 67.2977 58.5641 67.3677 58.4957 67.3677H55.6637ZM55.7174 66.8989C55.7174 66.9608 55.7467 66.9917 55.8053 66.9917H57.6461C57.7308 66.9917 57.7731 66.9412 57.7731 66.8403C57.7731 66.606 57.6673 66.3667 57.4557 66.1226C57.2474 65.8752 57.0179 65.7515 56.7672 65.7515C56.5231 65.7515 56.3001 65.8621 56.0983 66.0835C55.8997 66.3049 55.7727 66.5571 55.7174 66.8403V66.8989ZM60.6051 66.186C60.5856 66.186 60.5758 66.2007 60.5758 66.23V68.9253C60.5758 69.1206 60.6181 69.2736 60.7028 69.3843C60.7906 69.495 60.9013 69.5503 61.0348 69.5503C61.1683 69.5503 61.2838 69.5291 61.3815 69.4868C61.4824 69.4412 61.5686 69.3924 61.6403 69.3403C61.7151 69.2882 61.7819 69.241 61.8405 69.1987C61.899 69.1532 61.9511 69.1304 61.9967 69.1304C62.0423 69.1304 62.0651 69.1418 62.0651 69.1646C62.0651 69.2427 62.0569 69.2931 62.0406 69.3159C61.65 69.8205 61.2724 70.0728 60.9078 70.0728C60.5465 70.0728 60.2731 69.9588 60.0875 69.731C59.9052 69.4998 59.8141 69.2248 59.8141 68.9058V66.186H59.4479C59.3567 66.186 59.3079 66.1567 59.3014 66.0981C59.2981 66.0396 59.3079 66.0021 59.3307 65.9858C59.5032 65.8752 59.7408 65.6766 60.0436 65.3901C60.0761 65.3543 60.1201 65.3006 60.1754 65.229C60.2308 65.1574 60.3105 65.0597 60.4147 64.936C60.5221 64.8123 60.6035 64.7505 60.6588 64.7505C60.7142 64.7505 60.7418 64.7733 60.7418 64.8188C60.7418 64.8254 60.6865 65.0386 60.5758 65.4585C60.5758 65.5171 60.6018 65.548 60.6539 65.5513H61.899C62.0423 65.5513 62.1139 65.7531 62.1139 66.1567C62.1139 66.1763 62.1009 66.186 62.0748 66.186H60.6051ZM62.8756 69.4526C62.8756 69.2769 62.9375 69.1255 63.0612 68.9985C63.1849 68.8683 63.3346 68.8032 63.5104 68.8032C63.6829 68.8032 63.831 68.8667 63.9547 68.9937C64.0817 69.1174 64.1451 69.2687 64.1451 69.4478C64.1451 69.6268 64.0833 69.7765 63.9596 69.897C63.8359 70.0142 63.6862 70.0728 63.5104 70.0728C63.3378 70.0728 63.1881 70.0125 63.0612 69.8921C62.9375 69.7716 62.8756 69.6252 62.8756 69.4526ZM74.0328 69.7554C74.0166 69.7814 73.9759 69.7879 73.9108 69.7749C73.8489 69.7586 73.7757 69.7505 73.691 69.7505C73.6064 69.7505 73.486 69.7684 73.3297 69.8042C73.1767 69.8368 72.9342 69.8888 72.6022 69.9604C72.2701 70.0353 71.9674 70.0728 71.694 70.0728C71.0755 70.0728 70.4749 69.9279 69.8922 69.6382C69.3128 69.3452 68.8489 68.9318 68.5006 68.3979C68.1523 67.8608 67.9781 67.2391 67.9781 66.5327C67.9781 65.8263 68.1523 65.1867 68.5006 64.6138C69.0084 63.7739 69.7734 63.2271 70.7955 62.9731C71.1211 62.8918 71.4466 62.8511 71.7721 62.8511C72.2181 62.8511 72.747 62.9259 73.359 63.0757C73.5446 63.1213 73.7008 63.1685 73.8278 63.2173C73.958 63.2661 74.0377 63.2905 74.067 63.2905L74.2135 63.2515H74.3649C74.4039 63.2515 74.4235 63.2791 74.4235 63.3345V64.853C74.4235 64.8856 74.3942 64.9019 74.3356 64.9019C74.277 64.9019 74.2428 64.8953 74.233 64.8823C74.2233 64.866 74.2135 64.8481 74.2037 64.8286C74.194 64.8058 74.1826 64.783 74.1696 64.7603C74.1598 64.7375 74.1484 64.7163 74.1354 64.6968C74.1256 64.6772 74.1191 64.6626 74.1158 64.6528C73.6276 63.673 72.887 63.1831 71.8942 63.1831C70.999 63.1831 70.2991 63.4679 69.7946 64.0376C69.29 64.6073 69.0377 65.3625 69.0377 66.3032C69.0377 67.2407 69.3144 68.0464 69.8678 68.7202C70.4244 69.394 71.1796 69.731 72.1334 69.731C72.6543 69.731 73.1279 69.5763 73.5543 69.2671C73.984 68.9578 74.3209 68.5786 74.5651 68.1294C74.5716 68.1099 74.5911 68.1001 74.6237 68.1001H74.6871C74.7197 68.1001 74.736 68.1196 74.736 68.1587C74.736 68.1978 74.7262 68.2352 74.7067 68.271L74.0328 69.7554ZM75.4781 67.7485C75.4781 67.1073 75.7044 66.5571 76.1569 66.0981C76.6126 65.6359 77.1578 65.4048 77.7926 65.4048C78.4274 65.4048 78.9791 65.6294 79.4479 66.0786C79.9166 66.5246 80.151 67.0763 80.151 67.7339C80.151 68.3914 79.928 68.9465 79.4821 69.3989C79.0393 69.8481 78.4827 70.0728 77.8121 70.0728C77.1416 70.0728 76.5849 69.8449 76.1422 69.3892C75.6995 68.9334 75.4781 68.3866 75.4781 67.7485ZM76.694 69.0034C77.013 69.5405 77.4476 69.8091 77.9977 69.8091C78.4241 69.8091 78.7496 69.6382 78.9742 69.2964C79.2021 68.9546 79.316 68.5347 79.316 68.0366C79.316 67.5386 79.1565 67.0275 78.8375 66.5034C78.5218 65.9793 78.0953 65.7173 77.5582 65.7173C77.1643 65.7173 76.8535 65.8882 76.6256 66.23C76.401 66.5685 76.2887 66.9998 76.2887 67.5239C76.2887 68.0448 76.4238 68.5379 76.694 69.0034ZM87.2994 68.4028L87.2897 67.3726C87.2897 66.9526 87.2539 66.658 87.1823 66.4888C87.1106 66.3195 87.0195 66.1925 86.9088 66.1079C86.7981 66.02 86.6484 65.9761 86.4596 65.9761C86.274 65.9761 85.8785 66.1226 85.2731 66.4155C85.1917 66.4644 85.1494 66.5099 85.1461 66.5522V69.1792C85.1461 69.508 85.3219 69.6968 85.6735 69.7456C85.8265 69.7684 85.903 69.8058 85.903 69.8579C85.903 69.9067 85.8867 69.9344 85.8541 69.9409H83.6764C83.6438 69.9344 83.6276 69.9116 83.6276 69.8726C83.6276 69.8107 83.7041 69.7684 83.8571 69.7456C84.2086 69.6968 84.3844 69.508 84.3844 69.1792V66.7476C84.3844 66.2365 84.0686 65.981 83.4371 65.981C83.206 65.981 82.8854 66.1177 82.4752 66.3911C82.3711 66.4595 82.2946 66.5229 82.2457 66.5815V69.1792C82.2457 69.508 82.4215 69.6968 82.7731 69.7456C82.9261 69.7684 83.0026 69.8058 83.0026 69.8579C83.0026 69.9067 82.9863 69.9344 82.9537 69.9409H80.776C80.7434 69.9344 80.7272 69.9116 80.7272 69.8726C80.7272 69.8107 80.8037 69.7684 80.9567 69.7456C81.3082 69.6968 81.484 69.5112 81.484 69.189V66.3765C81.484 66.2397 81.4091 66.1453 81.2594 66.0933C81.1943 66.0705 81.1243 66.0526 81.0494 66.0396C80.9746 66.0233 80.9143 66.0086 80.8688 65.9956C80.8265 65.9826 80.7988 65.9712 80.7858 65.9614C80.776 65.9484 80.7711 65.924 80.7711 65.8882C80.7711 65.8491 80.7955 65.8166 80.8444 65.7905L82.0895 65.2046C82.1285 65.1851 82.153 65.1753 82.1627 65.1753C82.2181 65.1753 82.2457 65.2144 82.2457 65.2925V66.103C82.249 66.1226 82.2604 66.1323 82.2799 66.1323C82.3027 66.1323 82.3564 66.1095 82.441 66.064C82.5289 66.0184 82.6429 65.9549 82.7828 65.8735C82.9228 65.7889 83.1067 65.6912 83.3346 65.5806C83.5657 65.4699 83.8099 65.4146 84.067 65.4146C84.4804 65.4146 84.7767 65.592 84.9557 65.9468C85.024 66.09 85.0859 66.1519 85.1412 66.1323C85.1966 66.1095 85.2828 66.0688 85.4 66.0103C85.6767 65.8735 85.9567 65.7401 86.2399 65.6099C86.5231 65.4797 86.7574 65.4146 86.943 65.4146C87.6949 65.4146 88.0709 66.0998 88.0709 67.4702L88.027 68.896V69.1792C88.027 69.4331 88.1539 69.5991 88.4078 69.6772C88.5153 69.7131 88.6178 69.7391 88.7155 69.7554C88.8164 69.7684 88.8815 69.7814 88.9108 69.7944C88.9433 69.8075 88.9596 69.8335 88.9596 69.8726C88.9596 69.9116 88.9433 69.9344 88.9108 69.9409H86.5573C86.5247 69.9344 86.5084 69.9116 86.5084 69.8726C86.5084 69.8107 86.5849 69.7684 86.7379 69.7456C87.0862 69.6968 87.2604 69.495 87.2604 69.1401C87.2864 68.9774 87.2994 68.7316 87.2994 68.4028ZM92.9977 69.4282C92.5485 69.8579 92.0439 70.0728 91.484 70.0728C91.2822 70.0728 91.0071 70.0353 90.6588 69.9604C90.6035 69.9604 90.5726 69.98 90.566 70.019C90.5628 70.0581 90.5595 70.0988 90.5563 70.1411V72.2261C90.5563 72.4702 90.6979 72.633 90.9811 72.7144C91.1048 72.7469 91.2203 72.7697 91.3278 72.7827C91.4352 72.799 91.5035 72.8136 91.5328 72.8267C91.5654 72.8397 91.5817 72.8641 91.5817 72.8999C91.5817 72.939 91.5654 72.9618 91.5328 72.9683H89.0865C89.054 72.9618 89.0377 72.939 89.0377 72.8999C89.0377 72.8413 89.1142 72.8022 89.2672 72.7827C89.6188 72.7306 89.7946 72.5451 89.7946 72.2261V66.3716C89.7946 66.2349 89.7197 66.1405 89.5699 66.0884C89.5048 66.0656 89.4349 66.0477 89.36 66.0347C89.2851 66.0184 89.2249 66.0037 89.1793 65.9907C89.137 65.9777 89.1093 65.9663 89.0963 65.9565C89.0865 65.9435 89.0817 65.9191 89.0817 65.8833C89.0817 65.8442 89.1061 65.8117 89.1549 65.7856L90.4 65.1899C90.4261 65.1769 90.4521 65.1704 90.4781 65.1704C90.5302 65.1704 90.5563 65.2095 90.5563 65.2876V65.9077C90.5563 65.9435 90.5742 65.9614 90.61 65.9614C90.649 65.9614 90.7402 65.9142 90.8834 65.8198C91.2968 65.5529 91.7265 65.4194 92.1725 65.4194C92.485 65.4194 92.7714 65.5464 93.0319 65.8003C93.3737 66.1323 93.6015 66.5946 93.7155 67.187C93.748 67.3563 93.7643 67.5369 93.7643 67.729C93.7643 67.9178 93.7334 68.118 93.6715 68.3296C93.5478 68.7495 93.3232 69.1157 92.9977 69.4282ZM91.6012 65.9272C91.1585 65.9272 90.8102 66.0542 90.5563 66.3081V69.0522C90.5563 69.215 90.5839 69.3208 90.6393 69.3696C90.7825 69.4933 91.0022 69.5894 91.2985 69.6577C91.8844 69.7912 92.3401 69.6512 92.6656 69.2378C92.8968 68.9416 93.0123 68.5835 93.0123 68.1636C93.0123 67.3465 92.8284 66.7345 92.4606 66.3276C92.2392 66.0802 91.9528 65.9468 91.6012 65.9272ZM96.4449 69.7554C96.5979 69.7749 96.6744 69.814 96.6744 69.8726C96.6744 69.9116 96.6582 69.9344 96.6256 69.9409H94.4479C94.4153 69.9344 94.399 69.9116 94.399 69.8726C94.399 69.814 94.4755 69.7749 94.6285 69.7554C94.9801 69.7033 95.1559 69.5177 95.1559 69.1987V63.1099C95.1559 62.9731 95.081 62.8787 94.9313 62.8267C94.8662 62.8039 94.7962 62.786 94.7213 62.7729C94.6464 62.7567 94.5862 62.742 94.5406 62.729C94.4983 62.716 94.4707 62.7046 94.4576 62.6948C94.4479 62.6818 94.443 62.6574 94.443 62.6216C94.443 62.5825 94.4674 62.55 94.5162 62.5239L95.7614 61.938C95.8004 61.9185 95.8248 61.9087 95.8346 61.9087C95.8899 61.9087 95.9176 61.9478 95.9176 62.0259V69.1987C95.9176 69.5177 96.0934 69.7033 96.4449 69.7554ZM97.9781 67.3677C97.9228 67.3677 97.8951 67.4865 97.8951 67.7241C97.8951 68.2287 98.0449 68.6519 98.3444 68.9937C98.6438 69.3354 99.0149 69.5063 99.4576 69.5063C99.9036 69.5063 100.332 69.3143 100.742 68.9302C100.748 68.9237 100.756 68.9204 100.766 68.9204H100.791C100.81 68.9204 100.828 68.9367 100.844 68.9692C100.864 68.9985 100.882 69.0181 100.898 69.0278C100.52 69.4868 100.076 69.8042 99.5651 69.98C99.3893 70.0418 99.1907 70.0728 98.9694 70.0728C98.748 70.0728 98.5234 70.0125 98.2955 69.8921C98.0677 69.7684 97.8724 69.6073 97.7096 69.4087C97.3645 68.9953 97.192 68.481 97.192 67.8657C97.192 67.2472 97.3792 66.6841 97.7535 66.1763C98.1311 65.6685 98.6487 65.4146 99.3063 65.4146C99.7783 65.4146 100.164 65.6261 100.464 66.0493C100.763 66.4692 100.913 66.8387 100.913 67.1577C100.913 67.2977 100.879 67.3677 100.81 67.3677H97.9781ZM98.0319 66.8989C98.0319 66.9608 98.0612 66.9917 98.1198 66.9917H99.9606C100.045 66.9917 100.088 66.9412 100.088 66.8403C100.088 66.606 99.9817 66.3667 99.7701 66.1226C99.5618 65.8752 99.3323 65.7515 99.0817 65.7515C98.8375 65.7515 98.6145 65.8621 98.4127 66.0835C98.2142 66.3049 98.0872 66.5571 98.0319 66.8403V66.8989ZM98.6178 64.5894C98.6048 64.5763 98.5983 64.5666 98.5983 64.5601C98.5983 64.5535 98.6048 64.5438 98.6178 64.5308L99.6578 63.0903C99.775 62.9308 99.8906 62.8511 100.005 62.8511C100.118 62.8511 100.208 62.8885 100.273 62.9634C100.341 63.035 100.376 63.1326 100.376 63.2563C100.376 63.38 100.286 63.5184 100.107 63.6714L98.7936 64.731C98.7773 64.7407 98.7643 64.7456 98.7545 64.7456C98.7448 64.7456 98.735 64.7407 98.7252 64.731L98.6178 64.5894ZM102.92 66.186C102.9 66.186 102.89 66.2007 102.89 66.23V68.9253C102.89 69.1206 102.933 69.2736 103.017 69.3843C103.105 69.495 103.216 69.5503 103.349 69.5503C103.483 69.5503 103.598 69.5291 103.696 69.4868C103.797 69.4412 103.883 69.3924 103.955 69.3403C104.03 69.2882 104.096 69.241 104.155 69.1987C104.214 69.1532 104.266 69.1304 104.311 69.1304C104.357 69.1304 104.38 69.1418 104.38 69.1646C104.38 69.2427 104.371 69.2931 104.355 69.3159C103.964 69.8205 103.587 70.0728 103.222 70.0728C102.861 70.0728 102.588 69.9588 102.402 69.731C102.22 69.4998 102.129 69.2248 102.129 68.9058V66.186H101.762C101.671 66.186 101.622 66.1567 101.616 66.0981C101.613 66.0396 101.622 66.0021 101.645 65.9858C101.818 65.8752 102.055 65.6766 102.358 65.3901C102.391 65.3543 102.435 65.3006 102.49 65.229C102.545 65.1574 102.625 65.0597 102.729 64.936C102.837 64.8123 102.918 64.7505 102.973 64.7505C103.029 64.7505 103.056 64.7733 103.056 64.8188C103.056 64.8254 103.001 65.0386 102.89 65.4585C102.89 65.5171 102.916 65.548 102.968 65.5513H104.214C104.357 65.5513 104.428 65.7531 104.428 66.1567C104.428 66.1763 104.415 66.186 104.389 66.186H102.92ZM105.683 67.3677C105.628 67.3677 105.6 67.4865 105.6 67.7241C105.6 68.2287 105.75 68.6519 106.049 68.9937C106.349 69.3354 106.72 69.5063 107.163 69.5063C107.609 69.5063 108.037 69.3143 108.447 68.9302C108.453 68.9237 108.462 68.9204 108.471 68.9204H108.496C108.515 68.9204 108.533 68.9367 108.549 68.9692C108.569 68.9985 108.587 69.0181 108.603 69.0278C108.226 69.4868 107.781 69.8042 107.27 69.98C107.094 70.0418 106.896 70.0728 106.674 70.0728C106.453 70.0728 106.228 70.0125 106.001 69.8921C105.773 69.7684 105.577 69.6073 105.415 69.4087C105.07 68.9953 104.897 68.481 104.897 67.8657C104.897 67.2472 105.084 66.6841 105.459 66.1763C105.836 65.6685 106.354 65.4146 107.011 65.4146C107.483 65.4146 107.869 65.6261 108.169 66.0493C108.468 66.4692 108.618 66.8387 108.618 67.1577C108.618 67.2977 108.584 67.3677 108.515 67.3677H105.683ZM105.737 66.8989C105.737 66.9608 105.766 66.9917 105.825 66.9917H107.666C107.75 66.9917 107.793 66.9412 107.793 66.8403C107.793 66.606 107.687 66.3667 107.475 66.1226C107.267 65.8752 107.037 65.7515 106.787 65.7515C106.543 65.7515 106.32 65.8621 106.118 66.0835C105.919 66.3049 105.792 66.5571 105.737 66.8403V66.8989ZM110.649 69.3208C110.636 69.3403 110.623 69.3582 110.61 69.3745C110.6 69.3908 110.595 69.4119 110.595 69.438C110.595 69.4608 110.605 69.4722 110.625 69.4722H112.505C112.71 69.4722 112.889 69.3436 113.042 69.0864C113.149 68.9074 113.221 68.7983 113.256 68.7593C113.296 68.7202 113.336 68.7007 113.379 68.7007C113.424 68.7007 113.447 68.7202 113.447 68.7593L113.086 69.7163C113.079 69.7293 113.066 69.77 113.047 69.8384C113.03 69.9067 112.998 69.9409 112.949 69.9409H109.506C109.435 69.9409 109.399 69.9084 109.399 69.8433C109.399 69.7977 109.409 69.757 109.428 69.7212L111.884 66.3521C111.917 66.3065 111.945 66.2674 111.967 66.2349C111.993 66.2023 112.008 66.1665 112.011 66.1274C112.018 66.0884 111.803 66.0688 111.367 66.0688H110.366C110.102 66.0688 109.915 66.2332 109.804 66.562C109.775 66.6499 109.741 66.7557 109.702 66.8794C109.666 66.9998 109.62 67.0601 109.565 67.0601C109.533 67.0601 109.516 67.0535 109.516 67.0405L109.795 65.4097C109.804 65.3706 109.83 65.3511 109.873 65.3511C109.918 65.3511 109.961 65.3853 110 65.4536C110.039 65.5187 110.086 65.5545 110.141 65.561C110.385 65.5936 110.719 65.6099 111.142 65.6099C111.565 65.6099 112.251 65.6001 113.198 65.5806C113.23 65.5903 113.247 65.631 113.247 65.7026C113.247 65.771 113.221 65.8263 113.169 65.8687L110.649 69.3208ZM117.612 67.1187V67.7876H113.984V67.1187H117.612ZM120.175 69.7554C120.328 69.7749 120.405 69.814 120.405 69.8726C120.405 69.9116 120.389 69.9344 120.356 69.9409H118.178C118.146 69.9344 118.13 69.9116 118.13 69.8726C118.13 69.814 118.206 69.7749 118.359 69.7554C118.711 69.7033 118.886 69.5177 118.886 69.1987V63.1099C118.886 62.9731 118.811 62.8787 118.662 62.8267C118.597 62.8039 118.527 62.786 118.452 62.7729C118.377 62.7567 118.317 62.742 118.271 62.729C118.229 62.716 118.201 62.7046 118.188 62.6948C118.178 62.6818 118.173 62.6574 118.173 62.6216C118.173 62.5825 118.198 62.55 118.247 62.5239L119.492 61.938C119.531 61.9185 119.555 61.9087 119.565 61.9087C119.62 61.9087 119.648 61.9478 119.648 62.0259V69.1987C119.648 69.5177 119.824 69.7033 120.175 69.7554ZM121.709 67.3677C121.653 67.3677 121.626 67.4865 121.626 67.7241C121.626 68.2287 121.775 68.6519 122.075 68.9937C122.374 69.3354 122.745 69.5063 123.188 69.5063C123.634 69.5063 124.062 69.3143 124.472 68.9302C124.479 68.9237 124.487 68.9204 124.497 68.9204H124.521C124.541 68.9204 124.559 68.9367 124.575 68.9692C124.594 68.9985 124.612 69.0181 124.629 69.0278C124.251 69.4868 123.807 69.8042 123.296 69.98C123.12 70.0418 122.921 70.0728 122.7 70.0728C122.478 70.0728 122.254 70.0125 122.026 69.8921C121.798 69.7684 121.603 69.6073 121.44 69.4087C121.095 68.9953 120.922 68.481 120.922 67.8657C120.922 67.2472 121.11 66.6841 121.484 66.1763C121.862 65.6685 122.379 65.4146 123.037 65.4146C123.509 65.4146 123.894 65.6261 124.194 66.0493C124.493 66.4692 124.643 66.8387 124.643 67.1577C124.643 67.2977 124.609 67.3677 124.541 67.3677H121.709ZM121.762 66.8989C121.762 66.9608 121.792 66.9917 121.85 66.9917H123.691C123.776 66.9917 123.818 66.9412 123.818 66.8403C123.818 66.606 123.712 66.3667 123.501 66.1226C123.292 65.8752 123.063 65.7515 122.812 65.7515C122.568 65.7515 122.345 65.8621 122.143 66.0835C121.945 66.3049 121.818 66.5571 121.762 66.8403V66.8989ZM125.756 69.4526C125.756 69.2769 125.818 69.1255 125.942 68.9985C126.066 68.8683 126.215 68.8032 126.391 68.8032C126.564 68.8032 126.712 68.8667 126.836 68.9937C126.963 69.1174 127.026 69.2687 127.026 69.4478C127.026 69.6268 126.964 69.7765 126.84 69.897C126.717 70.0142 126.567 70.0728 126.391 70.0728C126.219 70.0728 126.069 70.0125 125.942 69.8921C125.818 69.7716 125.756 69.6252 125.756 69.4526Z" fill="#EFB85F"/>
<path d="M17.5002 10L18.696 11.9748L21 13L18.696 14.0249L17.5002 16L16.304 14.0249L14 13L16.304 11.9748L17.5002 10Z" fill="#EFB85F"/>
<path d="M17.5002 86L18.696 87.9748L21 89L18.696 90.0249L17.5002 92L16.304 90.0249L14 89L16.304 87.9748L17.5002 86Z" fill="#EFB85F"/>
<path d="M124.5 84L125.696 85.9748L128 87L125.696 88.0249L124.5 90L123.304 88.0249L121 87L123.304 85.9748L124.5 84Z" fill="#EFB85F"/>
<path d="M80.5002 90L81.696 91.9748L84 93L81.696 94.0249L80.5002 96L79.304 94.0249L77 93L79.304 91.9748L80.5002 90Z" fill="#EFB85F"/>
<path d="M120.5 7L121.696 8.97475L124 10L121.696 11.0249L120.5 13L119.304 11.0249L117 10L119.304 8.97475L120.5 7Z" fill="#EFB85F"/>
<path d="M95.125 16.6259C95.1509 16.3615 95.1942 15.7335 95.2288 15.2377C95.2634 14.6647 95.324 14.3011 95.3932 14.2681C95.4538 14.235 95.7307 14.4113 95.999 14.6537C96.2759 14.9071 96.5182 15.0834 96.5441 15.0504C96.5615 15.0283 96.397 14.6757 96.1807 14.2791C95.9038 13.7943 95.8086 13.5519 95.8865 13.5189C95.9471 13.4968 96.3884 13.4197 96.8643 13.3426C98.3873 13.1222 98.3787 13.001 96.8384 12.7917C96.3019 12.7145 95.8519 12.6154 95.8346 12.5823C95.8086 12.5382 95.973 12.2187 96.1807 11.8661C96.3884 11.5025 96.5441 11.183 96.5182 11.15C96.4922 11.1279 96.2326 11.3152 95.9471 11.5687C95.6528 11.8331 95.3932 11.9984 95.3586 11.9543C95.3154 11.8992 95.2461 11.2381 95.1856 10.4779C95.0298 8.49462 94.9606 8.50564 94.7962 10.5219C94.7356 11.2822 94.6664 11.9433 94.6317 11.9763C94.6058 12.0094 94.3462 11.8331 94.052 11.5797C93.7664 11.3152 93.5155 11.1279 93.4895 11.161C93.4722 11.183 93.602 11.4805 93.7924 11.8111C93.9827 12.1306 94.1385 12.4611 94.1385 12.5272C94.1385 12.6044 93.7664 12.7035 93.1607 12.7917C91.6117 13.001 91.6117 13.1222 93.1693 13.3536C93.7577 13.4417 94.1385 13.5519 94.1385 13.618C94.1385 13.6841 93.9827 14.0147 93.7924 14.3342C93.3857 15.0283 93.351 15.2046 93.6799 14.9292C93.8183 14.83 94.0693 14.6096 94.251 14.4554C94.6664 14.1138 94.701 14.1689 94.7789 15.3589C94.8913 17.1107 95.0211 17.5735 95.125 16.6259Z" fill="#EFB85F"/>
<path d="M39.125 89.6259C39.1509 89.3615 39.1942 88.7335 39.2288 88.2377C39.2634 87.6647 39.324 87.3011 39.3932 87.2681C39.4538 87.235 39.7307 87.4113 39.999 87.6537C40.2759 87.9071 40.5182 88.0834 40.5441 88.0504C40.5615 88.0283 40.397 87.6757 40.1807 87.2791C39.9038 86.7943 39.8086 86.5519 39.8865 86.5189C39.9471 86.4968 40.3884 86.4197 40.8643 86.3426C42.3873 86.1222 42.3787 86.001 40.8384 85.7917C40.3019 85.7145 39.8519 85.6154 39.8346 85.5823C39.8086 85.5382 39.973 85.2187 40.1807 84.8661C40.3884 84.5025 40.5441 84.183 40.5182 84.15C40.4922 84.1279 40.2326 84.3152 39.9471 84.5687C39.6528 84.8331 39.3932 84.9984 39.3586 84.9543C39.3154 84.8992 39.2461 84.2381 39.1856 83.4779C39.0298 81.4946 38.9606 81.5056 38.7962 83.5219C38.7356 84.2822 38.6664 84.9433 38.6317 84.9763C38.6058 85.0094 38.3462 84.8331 38.052 84.5797C37.7664 84.3152 37.5155 84.1279 37.4895 84.161C37.4722 84.183 37.602 84.4805 37.7924 84.8111C37.9827 85.1306 38.1385 85.4611 38.1385 85.5272C38.1385 85.6044 37.7664 85.7035 37.1607 85.7917C35.6117 86.001 35.6117 86.1222 37.1693 86.3536C37.7577 86.4417 38.1385 86.5519 38.1385 86.618C38.1385 86.6841 37.9827 87.0147 37.7924 87.3342C37.3857 88.0283 37.351 88.2046 37.6799 87.9292C37.8183 87.83 38.0693 87.6096 38.251 87.4554C38.6664 87.1138 38.701 87.1689 38.7789 88.3589C38.8913 90.1107 39.0211 90.5735 39.125 89.6259Z" fill="#EFB85F"/>
<path d="M110.125 99.6259C110.151 99.3615 110.194 98.7335 110.229 98.2377C110.263 97.6647 110.324 97.3011 110.393 97.2681C110.454 97.235 110.731 97.4113 110.999 97.6537C111.276 97.9071 111.518 98.0834 111.544 98.0504C111.561 98.0283 111.397 97.6757 111.181 97.2791C110.904 96.7943 110.809 96.5519 110.886 96.5189C110.947 96.4968 111.388 96.4197 111.864 96.3426C113.387 96.1222 113.379 96.001 111.838 95.7917C111.302 95.7145 110.852 95.6154 110.835 95.5823C110.809 95.5382 110.973 95.2187 111.181 94.8661C111.388 94.5025 111.544 94.183 111.518 94.15C111.492 94.1279 111.233 94.3152 110.947 94.5687C110.653 94.8331 110.393 94.9984 110.359 94.9543C110.315 94.8992 110.246 94.2381 110.186 93.4779C110.03 91.4946 109.961 91.5056 109.796 93.5219C109.736 94.2822 109.666 94.9433 109.632 94.9763C109.606 95.0094 109.346 94.8331 109.052 94.5797C108.766 94.3152 108.515 94.1279 108.489 94.161C108.472 94.183 108.602 94.4805 108.792 94.8111C108.983 95.1306 109.138 95.4611 109.138 95.5272C109.138 95.6044 108.766 95.7035 108.161 95.7917C106.612 96.001 106.612 96.1222 108.169 96.3536C108.758 96.4417 109.138 96.5519 109.138 96.618C109.138 96.6841 108.983 97.0147 108.792 97.3342C108.386 98.0283 108.351 98.2046 108.68 97.9292C108.818 97.83 109.069 97.6096 109.251 97.4554C109.666 97.1138 109.701 97.1689 109.779 98.3589C109.891 100.111 110.021 100.573 110.125 99.6259Z" fill="#EFB85F"/>
<path d="M53.125 12.6259C53.1509 12.3615 53.1942 11.7335 53.2288 11.2377C53.2634 10.6647 53.324 10.3011 53.3932 10.2681C53.4538 10.235 53.7307 10.4113 53.999 10.6537C54.2759 10.9071 54.5182 11.0834 54.5441 11.0504C54.5615 11.0283 54.397 10.6757 54.1807 10.2791C53.9038 9.7943 53.8086 9.55191 53.8865 9.51885C53.9471 9.49682 54.3884 9.41969 54.8643 9.34256C56.3873 9.1222 56.3787 9.001 54.8384 8.79166C54.3019 8.71453 53.8519 8.61537 53.8346 8.58232C53.8086 8.53825 53.973 8.21872 54.1807 7.86614C54.3884 7.50255 54.5441 7.18302 54.5182 7.14997C54.4922 7.12793 54.2326 7.31524 53.9471 7.56866C53.6528 7.83309 53.3932 7.99836 53.3586 7.95429C53.3154 7.8992 53.2461 7.23811 53.1856 6.47787C53.0298 4.49462 52.9606 4.50564 52.7962 6.52194C52.7356 7.28219 52.6664 7.94327 52.6317 7.97632C52.6058 8.00938 52.3462 7.83309 52.052 7.57967C51.7664 7.31524 51.5155 7.12793 51.4895 7.16099C51.4722 7.18302 51.602 7.48051 51.7924 7.81105C51.9827 8.13058 52.1385 8.46112 52.1385 8.52723C52.1385 8.60435 51.7664 8.70352 51.1607 8.79166C49.6117 9.001 49.6117 9.1222 51.1693 9.35358C51.7577 9.44173 52.1385 9.55191 52.1385 9.61802C52.1385 9.68412 51.9827 10.0147 51.7924 10.3342C51.3857 11.0283 51.351 11.2046 51.6799 10.9292C51.8183 10.83 52.0693 10.6096 52.251 10.4554C52.6664 10.1138 52.701 10.1689 52.7789 11.3589C52.8913 13.1107 53.0211 13.5735 53.125 12.6259Z" fill="#EFB85F"/>
<circle cx="13" cy="30" r="1" fill="#EFB85F"/>
<circle cx="26" cy="81" r="1" fill="#EFB85F"/>
<circle cx="57" cy="96" r="1" fill="#EFB85F"/>
<circle cx="111" cy="84" r="1" fill="#EFB85F"/>
<circle cx="139" cy="16" r="1" fill="#EFB85F"/>
<circle cx="143" cy="55" r="1" fill="#EFB85F"/>
<circle cx="139" cy="93" r="1" fill="#EFB85F"/>
<circle cx="36" cy="10" r="1" fill="#EFB85F"/>
<circle cx="75" cy="6" r="1" fill="#EFB85F"/>
<path d="M30.1536 96.762L33.0001 96.6487L30.1536 96.5354L31.0464 95.3761L30.0932 96.4619L30 93L29.9069 96.4619L28.9537 95.3761L29.8465 96.5354L27 96.6487L29.8465 96.762L28.9537 97.9212L29.9069 96.8354L30 100.297L30.0932 96.8354L31.0464 97.9212L30.1536 96.762Z" fill="#EFB85F"/>
<path d="M11.1536 76.762L14.0001 76.6487L11.1536 76.5354L12.0464 75.3761L11.0932 76.4619L11 73L10.9069 76.4619L9.95375 75.3761L10.8465 76.5354L8 76.6487L10.8465 76.762L9.95375 77.9212L10.9069 76.8354L11 80.2973L11.0932 76.8354L12.0464 77.9212L11.1536 76.762Z" fill="#EFB85F"/>
<path d="M135.154 32.762L138 32.6487L135.154 32.5354L136.046 31.3761L135.093 32.4619L135 29L134.907 32.4619L133.954 31.3761L134.847 32.5354L132 32.6487L134.847 32.762L133.954 33.9212L134.907 32.8354L135 36.2973L135.093 32.8354L136.046 33.9212L135.154 32.762Z" fill="#EFB85F"/>
<path d="M68.1536 11.762L71.0001 11.6487L68.1536 11.5354L69.0464 10.3761L68.0932 11.4619L68 8L67.9069 11.4619L66.9537 10.3761L67.8465 11.5354L65 11.6487L67.8465 11.762L66.9537 12.9212L67.9069 11.8354L68 15.2973L68.0932 11.8354L69.0464 12.9212L68.1536 11.762Z" fill="#EFB85F"/>
<path d="M137.154 76.762L140 76.6487L137.154 76.5354L138.046 75.3761L137.093 76.4619L137 73L136.907 76.4619L135.954 75.3761L136.847 76.5354L134 76.6487L136.847 76.762L135.954 77.9212L136.907 76.8354L137 80.2973L137.093 76.8354L138.046 77.9212L137.154 76.762Z" fill="#EFB85F"/>
<path d="M129.154 95.762L132 95.6487L129.154 95.5354L130.046 94.3761L129.093 95.4619L129 92L128.907 95.4619L127.954 94.3761L128.847 95.5354L126 95.6487L128.847 95.762L127.954 96.9212L128.907 95.8354L129 99.2973L129.093 95.8354L130.046 96.9212L129.154 95.762Z" fill="#EFB85F"/>
<path d="M8.15357 18.762L11.0001 18.6487L8.15357 18.5354L9.04635 17.3761L8.09316 18.4619L8.00005 15L7.90694 18.4619L6.95375 17.3761L7.84653 18.5354L5 18.6487L7.84653 18.762L6.95375 19.9212L7.90694 18.8354L8.00005 22.2973L8.09316 18.8354L9.04635 19.9212L8.15357 18.762Z" fill="#EFB85F"/>
</svg>
