<svg width="148" height="105" viewBox="0 0 148 105" fill="none" xmlns="http://www.w3.org/2000/svg">
<rect width="147.402" height="104.882" rx="10" fill="black"/>
<path d="M12.3776 48.9023C12.3776 48.9284 12.3645 48.9414 12.3385 48.9414H9.84338C9.81734 48.9414 9.80432 48.9284 9.80432 48.9023V48.7852C9.80432 48.7591 9.82548 48.7461 9.8678 48.7461C10.3138 48.7266 10.6149 48.4889 10.7711 48.0332L12.7633 42.2666C12.7666 42.2601 12.7682 42.252 12.7682 42.2422L12.7145 42.0811C12.7145 42.0648 12.721 42.0566 12.734 42.0566H13.7106C13.7171 42.0599 13.7252 42.0632 13.735 42.0664C13.748 42.0697 13.7578 42.0794 13.7643 42.0957L15.8297 47.8916C15.8753 47.9795 15.9111 48.0592 15.9371 48.1309C15.9664 48.2025 15.999 48.2676 16.0348 48.3262C16.1129 48.4596 16.2415 48.5622 16.4205 48.6338C16.5703 48.7087 16.707 48.7461 16.8307 48.7461C16.8567 48.7461 16.8698 48.7607 16.8698 48.79V48.9023C16.8698 48.9284 16.8567 48.9414 16.8307 48.9414H13.8424C13.8164 48.9414 13.8033 48.9284 13.8033 48.9023V48.7852C13.8033 48.7591 13.8636 48.7428 13.984 48.7363C14.1045 48.7298 14.2037 48.7233 14.2819 48.7168C14.7343 48.668 14.9606 48.515 14.9606 48.2578C14.9606 48.2383 14.9573 48.2155 14.9508 48.1895L14.2135 46.1094C14.2102 46.1029 14.2037 46.0882 14.194 46.0654C14.1549 45.9548 14.0865 45.8994 13.9889 45.8994H12.2555C12.1578 45.8994 12.0813 45.9531 12.026 46.0605C12.0162 46.0833 12.0114 46.0964 12.0114 46.0996L11.2789 48.2432V48.2871C11.2789 48.3717 11.3229 48.4482 11.4108 48.5166C11.6093 48.6696 11.8763 48.7461 12.2115 48.7461H12.3385C12.3645 48.7461 12.3776 48.7591 12.3776 48.7852V48.9023ZM13.8229 45.3574C13.8815 45.3574 13.9108 45.333 13.9108 45.2842C13.9108 45.2581 13.9043 45.2288 13.8912 45.1963L13.1637 43.1943C13.1311 43.1064 13.1067 43.0625 13.0905 43.0625C13.0742 43.0625 13.0481 43.1081 13.0123 43.1992L12.3287 45.1963C12.3157 45.2288 12.3092 45.2646 12.3092 45.3037C12.3092 45.3395 12.3336 45.3574 12.3824 45.3574H13.8229ZM20.9176 48.4287C20.4684 48.8584 19.9638 49.0732 19.4039 49.0732C19.2021 49.0732 18.927 49.0358 18.5787 48.9609C18.5234 48.9609 18.4925 48.9805 18.486 49.0195C18.4827 49.0586 18.4795 49.0993 18.4762 49.1416V51.2266C18.4762 51.4707 18.6178 51.6335 18.901 51.7148C19.0247 51.7474 19.1403 51.7702 19.2477 51.7832C19.3551 51.7995 19.4235 51.8141 19.4528 51.8271C19.4853 51.8402 19.5016 51.8646 19.5016 51.9004C19.5016 51.9395 19.4853 51.9622 19.4528 51.9688H17.0065C16.9739 51.9622 16.9576 51.9395 16.9576 51.9004C16.9576 51.8418 17.0341 51.8027 17.1871 51.7832C17.5387 51.7311 17.7145 51.5456 17.7145 51.2266V45.3721C17.7145 45.2354 17.6396 45.141 17.4899 45.0889C17.4248 45.0661 17.3548 45.0482 17.2799 45.0352C17.205 45.0189 17.1448 45.0042 17.0992 44.9912C17.0569 44.9782 17.0293 44.9668 17.0162 44.957C17.0065 44.944 17.0016 44.9196 17.0016 44.8838C17.0016 44.8447 17.026 44.8122 17.0748 44.7861L18.3199 44.1904C18.346 44.1774 18.372 44.1709 18.3981 44.1709C18.4502 44.1709 18.4762 44.21 18.4762 44.2881V44.9082C18.4762 44.944 18.4941 44.9619 18.5299 44.9619C18.569 44.9619 18.6601 44.9147 18.8033 44.8203C19.2168 44.5534 19.6464 44.4199 20.0924 44.4199C20.4049 44.4199 20.6914 44.5469 20.9518 44.8008C21.2936 45.1328 21.5214 45.5951 21.6354 46.1875C21.6679 46.3568 21.6842 46.5374 21.6842 46.7295C21.6842 46.9183 21.6533 47.1185 21.5914 47.3301C21.4677 47.75 21.2431 48.1162 20.9176 48.4287ZM19.5211 44.9277C19.0784 44.9277 18.7301 45.0547 18.4762 45.3086V48.0527C18.4762 48.2155 18.5039 48.3213 18.5592 48.3701C18.7024 48.4938 18.9222 48.5898 19.2184 48.6582C19.8043 48.7917 20.2601 48.6517 20.5856 48.2383C20.8167 47.9421 20.9323 47.584 20.9323 47.1641C20.9323 46.347 20.7483 45.735 20.3805 45.3281C20.1591 45.0807 19.8727 44.9473 19.5211 44.9277ZM26.2399 48.4287C25.7906 48.8584 25.2861 49.0732 24.7262 49.0732C24.5244 49.0732 24.2493 49.0358 23.901 48.9609C23.8457 48.9609 23.8147 48.9805 23.8082 49.0195C23.805 49.0586 23.8017 49.0993 23.7985 49.1416V51.2266C23.7985 51.4707 23.9401 51.6335 24.2233 51.7148C24.347 51.7474 24.4625 51.7702 24.5699 51.7832C24.6774 51.7995 24.7457 51.8141 24.775 51.8271C24.8076 51.8402 24.8239 51.8646 24.8239 51.9004C24.8239 51.9395 24.8076 51.9622 24.775 51.9688H22.3287C22.2962 51.9622 22.2799 51.9395 22.2799 51.9004C22.2799 51.8418 22.3564 51.8027 22.5094 51.7832C22.861 51.7311 23.0367 51.5456 23.0367 51.2266V45.3721C23.0367 45.2354 22.9619 45.141 22.8121 45.0889C22.747 45.0661 22.677 45.0482 22.6022 45.0352C22.5273 45.0189 22.4671 45.0042 22.4215 44.9912C22.3792 44.9782 22.3515 44.9668 22.3385 44.957C22.3287 44.944 22.3239 44.9196 22.3239 44.8838C22.3239 44.8447 22.3483 44.8122 22.3971 44.7861L23.6422 44.1904C23.6683 44.1774 23.6943 44.1709 23.7203 44.1709C23.7724 44.1709 23.7985 44.21 23.7985 44.2881V44.9082C23.7985 44.944 23.8164 44.9619 23.8522 44.9619C23.8912 44.9619 23.9824 44.9147 24.1256 44.8203C24.539 44.5534 24.9687 44.4199 25.4147 44.4199C25.7272 44.4199 26.0136 44.5469 26.274 44.8008C26.6158 45.1328 26.8437 45.5951 26.9576 46.1875C26.9902 46.3568 27.0065 46.5374 27.0065 46.7295C27.0065 46.9183 26.9755 47.1185 26.9137 47.3301C26.79 47.75 26.5654 48.1162 26.2399 48.4287ZM24.8434 44.9277C24.4007 44.9277 24.0524 45.0547 23.7985 45.3086V48.0527C23.7985 48.2155 23.8261 48.3213 23.8815 48.3701C24.0247 48.4938 24.2444 48.5898 24.5406 48.6582C25.1266 48.7917 25.5823 48.6517 25.9078 48.2383C26.139 47.9421 26.2545 47.584 26.2545 47.1641C26.2545 46.347 26.0706 45.735 25.7028 45.3281C25.4814 45.0807 25.1949 44.9473 24.8434 44.9277ZM29.6871 48.7559C29.8401 48.7754 29.9166 48.8145 29.9166 48.873C29.9166 48.9121 29.9003 48.9349 29.8678 48.9414H27.6901C27.6575 48.9349 27.6412 48.9121 27.6412 48.873C27.6412 48.8145 27.7177 48.7754 27.8707 48.7559C28.2223 48.7038 28.3981 48.5182 28.3981 48.1992V42.1104C28.3981 41.9736 28.3232 41.8792 28.1735 41.8271C28.1084 41.8044 28.0384 41.7865 27.9635 41.7734C27.8886 41.7572 27.8284 41.7425 27.7828 41.7295C27.7405 41.7165 27.7128 41.7051 27.6998 41.6953C27.6901 41.6823 27.6852 41.6579 27.6852 41.6221C27.6852 41.583 27.7096 41.5505 27.7584 41.5244L29.0035 40.9385C29.0426 40.9189 29.067 40.9092 29.0768 40.9092C29.1321 40.9092 29.1598 40.9482 29.1598 41.0264V48.1992C29.1598 48.5182 29.3356 48.7038 29.6871 48.7559ZM30.4342 48.9414C30.4017 48.9349 30.3854 48.9121 30.3854 48.873C30.3854 48.8145 30.4619 48.7754 30.6149 48.7559C30.9664 48.7038 31.1422 48.5182 31.1422 48.1992V45.6162C31.1422 45.4795 31.0673 45.3851 30.9176 45.333C30.8525 45.3102 30.7825 45.2923 30.7076 45.2793C30.6328 45.263 30.5726 45.2484 30.527 45.2354C30.4847 45.2223 30.457 45.2109 30.444 45.2012C30.4342 45.1882 30.4293 45.1637 30.4293 45.1279C30.4293 45.0889 30.4537 45.0563 30.5026 45.0303L31.7477 44.4443C31.7867 44.4248 31.8112 44.415 31.8209 44.415C31.8763 44.415 31.9039 44.4541 31.9039 44.5322V48.1992C31.9039 48.5182 32.0797 48.7038 32.4313 48.7559C32.5843 48.7754 32.6608 48.8096 32.6608 48.8584C32.6608 48.9072 32.6445 48.9349 32.6119 48.9414H30.4342ZM31.4498 43.043C31.3164 43.043 31.1976 43.0007 31.0934 42.916C30.9925 42.8314 30.942 42.7142 30.942 42.5645C30.942 42.4115 30.9908 42.291 31.0885 42.2031C31.1862 42.1152 31.3017 42.0713 31.4352 42.0713C31.5719 42.0713 31.6858 42.1234 31.777 42.2275C31.8714 42.3317 31.9186 42.444 31.9186 42.5645C31.9186 42.6849 31.8746 42.7956 31.7867 42.8965C31.6989 42.9941 31.5865 43.043 31.4498 43.043ZM37.4313 44.376C37.4508 44.376 37.4606 44.3857 37.4606 44.4053V51.2266C37.4606 51.5456 37.6364 51.7311 37.9879 51.7832C38.1409 51.8027 38.2174 51.8369 38.2174 51.8857C38.2174 51.9346 38.2011 51.9622 38.1686 51.9688H35.5514C35.5188 51.9622 35.5026 51.9395 35.5026 51.9004C35.5026 51.8646 35.5172 51.8402 35.5465 51.8271C35.5791 51.8141 35.6279 51.8027 35.693 51.793C35.7614 51.7865 35.8378 51.7767 35.9225 51.7637C36.4401 51.6855 36.6989 51.5065 36.6989 51.2266V48.4531C36.6989 48.4336 36.6907 48.4238 36.6744 48.4238C36.6614 48.4238 36.5393 48.4906 36.3082 48.624C36.0771 48.7575 35.8671 48.8649 35.6783 48.9463C35.4928 49.0309 35.2975 49.0732 35.0924 49.0732C34.7343 49.0732 34.43 48.9577 34.1793 48.7266C33.9287 48.4954 33.735 48.2074 33.5983 47.8623C33.4615 47.5173 33.3932 47.1803 33.3932 46.8516C33.3932 46.1875 33.6227 45.6162 34.0817 45.1377C34.5406 44.6559 35.094 44.415 35.7418 44.415C36.1422 44.415 36.5345 44.5192 36.9186 44.7275H36.9528C37.0146 44.7275 37.0813 44.6885 37.153 44.6104C37.2246 44.529 37.275 44.4704 37.3043 44.4346C37.3369 44.3955 37.3629 44.376 37.3824 44.376H37.4313ZM34.1305 46.7734C34.1305 47.3301 34.2835 47.763 34.5895 48.0723C34.8987 48.3783 35.2177 48.5312 35.5465 48.5312C35.8753 48.5312 36.1829 48.4466 36.4694 48.2773C36.5573 48.2253 36.6337 48.1667 36.6989 48.1016V45.8848C36.6989 45.4909 36.5882 45.1947 36.3668 44.9961C36.1455 44.7975 35.9013 44.6982 35.6344 44.6982C35.1591 44.6982 34.7897 44.9049 34.526 45.3184C34.2623 45.7285 34.1305 46.2135 34.1305 46.7734ZM41.9381 48.5117C41.9218 48.4564 41.9007 48.4385 41.8746 48.458C41.8486 48.4743 41.7428 48.5296 41.5573 48.624C40.9485 48.9268 40.4407 49.0781 40.0338 49.0781C39.6269 49.0781 39.3339 48.9479 39.1549 48.6875C39.0898 48.5898 39.0573 48.4694 39.0573 48.3262V45.3477C39.0475 45.2533 39.0052 45.1719 38.9303 45.1035C38.8294 45.0189 38.7236 44.9733 38.6129 44.9668C38.5055 44.9603 38.4518 44.9277 38.4518 44.8691C38.4518 44.8073 38.4778 44.7699 38.5299 44.7568L39.6481 44.4346C39.6871 44.4215 39.7246 44.415 39.7604 44.415C39.7994 44.415 39.819 44.4427 39.819 44.498V47.7744C39.819 48.0023 39.9199 48.1781 40.1217 48.3018C40.3235 48.4255 40.5807 48.4873 40.8932 48.4873C41.2089 48.4873 41.4921 48.3913 41.7428 48.1992C41.8209 48.1374 41.886 48.069 41.9381 47.9941V45.3477C41.9283 45.2533 41.886 45.1719 41.8112 45.1035C41.7102 45.0189 41.6045 44.9733 41.4938 44.9668C41.3864 44.9603 41.3326 44.9277 41.3326 44.8691C41.3326 44.8073 41.3587 44.7699 41.4108 44.7568L42.5289 44.4346C42.568 44.4215 42.6054 44.415 42.6412 44.415C42.6803 44.415 42.6998 44.4476 42.6998 44.5127V47.9795C42.7161 48.1227 42.7568 48.2253 42.8219 48.2871C42.887 48.349 42.9928 48.3799 43.1393 48.3799L43.4225 48.3604C43.442 48.3604 43.4518 48.3799 43.4518 48.4189C43.4518 48.4548 43.4274 48.484 43.3785 48.5068L42.0797 49.0439C42.0406 49.0635 42.0065 49.0732 41.9772 49.0732C41.9511 49.0732 41.9381 49.0326 41.9381 48.9512V48.5117ZM44.8727 46.3682C44.8173 46.3682 44.7897 46.487 44.7897 46.7246C44.7897 47.2292 44.9394 47.6523 45.2389 47.9941C45.5384 48.3359 45.9095 48.5068 46.3522 48.5068C46.7981 48.5068 47.2262 48.3148 47.6364 47.9307C47.6429 47.9242 47.651 47.9209 47.6608 47.9209H47.6852C47.7047 47.9209 47.7226 47.9372 47.7389 47.9697C47.7584 47.999 47.7763 48.0186 47.7926 48.0283C47.415 48.4873 46.9707 48.8047 46.4596 48.9805C46.2838 49.0423 46.0852 49.0732 45.8639 49.0732C45.6425 49.0732 45.4179 49.013 45.1901 48.8926C44.9622 48.7689 44.7669 48.6077 44.6041 48.4092C44.2591 47.9958 44.0865 47.4814 44.0865 46.8662C44.0865 46.2477 44.2737 45.6846 44.6481 45.1768C45.0257 44.6689 45.5433 44.415 46.2008 44.415C46.6728 44.415 47.0586 44.6266 47.358 45.0498C47.6575 45.4697 47.8073 45.8392 47.8073 46.1582C47.8073 46.2982 47.7731 46.3682 47.7047 46.3682H44.8727ZM44.9264 45.8994C44.9264 45.9613 44.9557 45.9922 45.0143 45.9922H46.8551C46.9397 45.9922 46.9821 45.9417 46.9821 45.8408C46.9821 45.6064 46.8763 45.3672 46.6647 45.123C46.4563 44.8757 46.2268 44.752 45.9762 44.752C45.7321 44.752 45.5091 44.8626 45.3073 45.084C45.1087 45.3053 44.9817 45.5576 44.9264 45.8408V45.8994ZM53.1149 48.7559C53.2679 48.7754 53.3444 48.8145 53.3444 48.873C53.3444 48.9121 53.3281 48.9349 53.2955 48.9414H51.1178C51.0852 48.9349 51.069 48.9121 51.069 48.873C51.069 48.8145 51.1455 48.7754 51.2985 48.7559C51.65 48.7038 51.8258 48.5182 51.8258 48.1992V42.1104C51.8258 41.9736 51.7509 41.8792 51.6012 41.8271C51.5361 41.8044 51.4661 41.7865 51.3912 41.7734C51.3164 41.7572 51.2561 41.7425 51.2106 41.7295C51.1683 41.7165 51.1406 41.7051 51.1276 41.6953C51.1178 41.6823 51.1129 41.6579 51.1129 41.6221C51.1129 41.583 51.1373 41.5505 51.1862 41.5244L52.4313 40.9385C52.4703 40.9189 52.4948 40.9092 52.5045 40.9092C52.5599 40.9092 52.5875 40.9482 52.5875 41.0264V48.1992C52.5875 48.5182 52.7633 48.7038 53.1149 48.7559ZM56.8795 48.1357C56.8795 48.2204 56.9186 48.2887 56.9967 48.3408C57.0781 48.3896 57.1709 48.4141 57.275 48.4141C57.3792 48.4141 57.4655 48.388 57.5338 48.3359C57.6054 48.2806 57.6543 48.2529 57.6803 48.2529C57.7063 48.2529 57.7194 48.2887 57.7194 48.3604C57.7194 48.4287 57.6868 48.4873 57.6217 48.5361C57.1334 48.8942 56.803 49.0732 56.6305 49.0732C56.4222 49.0732 56.2529 48.8568 56.1227 48.4238C56.1129 48.3913 56.1048 48.3766 56.0983 48.3799C55.6946 48.6826 55.4407 48.8649 55.3365 48.9268C55.0696 49.0798 54.8011 49.1042 54.5309 49C54.264 48.8958 54.0703 48.7233 53.9498 48.4824C53.8912 48.3587 53.8619 48.2269 53.8619 48.0869C53.8619 47.8102 53.9645 47.5905 54.1696 47.4277C54.3746 47.265 54.7653 47.1087 55.3414 46.959C55.5367 46.9069 55.7109 46.8402 55.8639 46.7588C56.0169 46.6774 56.0966 46.6253 56.1031 46.6025C56.1129 46.5798 56.1178 46.5586 56.1178 46.5391V45.6016C56.1178 45.2337 55.9746 44.9749 55.6881 44.8252C55.5937 44.7764 55.4798 44.752 55.3463 44.752C55.2161 44.752 55.0826 44.804 54.9459 44.9082C54.8125 45.0124 54.7457 45.1605 54.7457 45.3525L54.7701 45.543C54.7506 45.582 54.6334 45.6471 54.4186 45.7383C54.2037 45.8294 54.08 45.8783 54.0475 45.8848C53.9954 45.8848 53.9694 45.8229 53.9694 45.6992C53.9694 45.5723 54.0068 45.4323 54.0817 45.2793C54.1565 45.1263 54.2623 44.9863 54.399 44.8594C54.7181 44.5632 55.0826 44.415 55.4928 44.415C55.903 44.415 56.2366 44.529 56.4938 44.7568C56.7509 44.9814 56.8795 45.25 56.8795 45.5625V48.1357ZM54.6285 47.9941C54.6285 48.1504 54.6888 48.2871 54.8092 48.4043C54.9296 48.5182 55.0664 48.5752 55.2194 48.5752C55.3756 48.5752 55.5644 48.5101 55.7858 48.3799C56.0071 48.2464 56.1178 48.1097 56.1178 47.9697V46.9785C56.1178 46.9427 56.1097 46.9248 56.0934 46.9248C56.0771 46.9248 56.0657 46.9264 56.0592 46.9297L54.9264 47.457C54.8092 47.5417 54.7295 47.6133 54.6871 47.6719C54.6481 47.7305 54.6285 47.8379 54.6285 47.9941ZM63.5446 48.8633C63.5446 48.9154 63.5153 48.9414 63.4567 48.9414H60.776C60.7434 48.9349 60.7272 48.9121 60.7272 48.873C60.7272 48.8145 60.8037 48.7754 60.9567 48.7559C61.3082 48.7038 61.484 48.5182 61.484 48.1992V45.2402C61.484 45.2044 61.4645 45.1865 61.4254 45.1865H60.8932C60.8541 45.1865 60.8167 45.1751 60.7809 45.1523C60.7451 45.1263 60.7272 45.0938 60.7272 45.0547C60.7272 45.0124 60.7467 44.9798 60.7858 44.957C60.8411 44.9245 60.9713 44.8805 61.1764 44.8252C61.3815 44.7699 61.484 44.6787 61.484 44.5518V44.3906C61.484 43.2188 61.7379 42.3171 62.2457 41.6855C62.5289 41.3307 62.9602 41.0573 63.5397 40.8652C63.7155 40.8066 63.8896 40.7773 64.0621 40.7773C64.2347 40.7773 64.4365 40.8229 64.6676 40.9141C64.8987 41.002 65.0143 41.1094 65.0143 41.2363C65.0143 41.2624 65.0094 41.2852 64.9996 41.3047C64.9931 41.3242 64.985 41.3486 64.9752 41.3779L64.775 41.8076C64.749 41.8597 64.7181 41.8857 64.6823 41.8857C64.6725 41.8857 64.6025 41.8353 64.4723 41.7344C64.3421 41.6302 64.2037 41.5358 64.0573 41.4512C63.914 41.3633 63.7448 41.3193 63.5494 41.3193C63.1686 41.3193 62.8805 41.417 62.6852 41.6123C62.4899 41.8076 62.3678 42.029 62.319 42.2764C62.2701 42.5205 62.2457 42.7907 62.2457 43.0869V44.5078C62.2457 44.5339 62.262 44.5469 62.2946 44.5469H63.2467C63.3378 44.5469 63.3964 44.5566 63.4225 44.5762C63.4518 44.5924 63.4795 44.651 63.5055 44.752C63.5315 44.8496 63.5446 44.9408 63.5446 45.0254C63.5446 45.1068 63.5364 45.154 63.5201 45.167C63.5039 45.18 63.4697 45.1865 63.4176 45.1865H62.3092C62.2669 45.1865 62.2457 45.2028 62.2457 45.2354V48.1016C62.2457 48.5671 62.6494 48.7998 63.4567 48.7998C63.5153 48.8063 63.5446 48.8275 63.5446 48.8633ZM63.9449 46.749C63.9449 46.1077 64.1712 45.5576 64.6237 45.0986C65.0794 44.6364 65.6246 44.4053 66.2594 44.4053C66.8942 44.4053 67.4459 44.6299 67.9147 45.0791C68.3834 45.5251 68.6178 46.0768 68.6178 46.7344C68.6178 47.3919 68.3948 47.9469 67.9489 48.3994C67.5061 48.8486 66.9495 49.0732 66.2789 49.0732C65.6084 49.0732 65.0517 48.8454 64.609 48.3896C64.1663 47.9339 63.9449 47.387 63.9449 46.749ZM65.1608 48.0039C65.4798 48.541 65.9143 48.8096 66.4645 48.8096C66.8909 48.8096 67.2164 48.6387 67.441 48.2969C67.6689 47.9551 67.7828 47.5352 67.7828 47.0371C67.7828 46.5391 67.6233 46.028 67.3043 45.5039C66.9886 44.9798 66.5621 44.7178 66.025 44.7178C65.6311 44.7178 65.3203 44.8887 65.0924 45.2305C64.8678 45.569 64.7555 46.0003 64.7555 46.5244C64.7555 47.0452 64.8906 47.5384 65.1608 48.0039ZM72.2994 45.4404C72.2604 45.4339 72.2034 45.4128 72.1285 45.377C71.8584 45.2533 71.6468 45.1914 71.4938 45.1914C71.3408 45.1914 71.1796 45.2874 71.0104 45.4795C70.8444 45.6683 70.7614 45.8392 70.7614 45.9922V48.1992C70.7614 48.4434 70.903 48.6061 71.1862 48.6875C71.3099 48.7201 71.4254 48.7445 71.5328 48.7607C71.6403 48.7738 71.7086 48.7868 71.7379 48.7998C71.7705 48.8128 71.7867 48.8389 71.7867 48.8779C71.7867 48.9137 71.7705 48.9349 71.7379 48.9414H69.2916C69.2591 48.9349 69.2428 48.9121 69.2428 48.873C69.2428 48.8145 69.3193 48.7754 69.4723 48.7559C69.8239 48.7038 69.9996 48.5182 69.9996 48.1992V45.6162C69.9996 45.4795 69.9248 45.3851 69.775 45.333C69.7099 45.3102 69.6399 45.2923 69.5651 45.2793C69.4902 45.263 69.43 45.2484 69.3844 45.2354C69.3421 45.2223 69.3144 45.2109 69.3014 45.2012C69.2916 45.1882 69.2867 45.1637 69.2867 45.1279C69.2867 45.0889 69.3112 45.0563 69.36 45.0303L70.6051 44.4443C70.6442 44.4248 70.6686 44.415 70.6783 44.415C70.7337 44.415 70.7614 44.4541 70.7614 44.5322V45.3232C70.7614 45.3623 70.7711 45.3818 70.7906 45.3818C70.8167 45.3818 70.8834 45.3053 70.9908 45.1523C71.3001 44.7194 71.5556 44.5029 71.7574 44.5029C71.8714 44.5029 72.0455 44.5485 72.2799 44.6396C72.5175 44.7308 72.6364 44.8073 72.6364 44.8691C72.6364 44.944 72.5989 45.0579 72.524 45.2109C72.4492 45.3639 72.3743 45.4404 72.2994 45.4404ZM79.4186 47.4033L79.4088 46.373C79.4088 45.9531 79.373 45.6585 79.3014 45.4893C79.2298 45.32 79.1386 45.193 79.028 45.1084C78.9173 45.0205 78.7675 44.9766 78.5787 44.9766C78.3932 44.9766 77.9977 45.123 77.3922 45.416C77.3108 45.4648 77.2685 45.5104 77.2653 45.5527V48.1797C77.2653 48.5085 77.441 48.6973 77.7926 48.7461C77.9456 48.7689 78.0221 48.8063 78.0221 48.8584C78.0221 48.9072 78.0058 48.9349 77.9733 48.9414H75.7955C75.763 48.9349 75.7467 48.9121 75.7467 48.873C75.7467 48.8112 75.8232 48.7689 75.9762 48.7461C76.3278 48.6973 76.5035 48.5085 76.5035 48.1797V45.748C76.5035 45.237 76.1878 44.9814 75.5563 44.9814C75.3252 44.9814 75.0045 45.1182 74.5944 45.3916C74.4902 45.46 74.4137 45.5234 74.3649 45.582V48.1797C74.3649 48.5085 74.5406 48.6973 74.8922 48.7461C75.0452 48.7689 75.1217 48.8063 75.1217 48.8584C75.1217 48.9072 75.1054 48.9349 75.0729 48.9414H72.8951C72.8626 48.9349 72.8463 48.9121 72.8463 48.873C72.8463 48.8112 72.9228 48.7689 73.0758 48.7461C73.4274 48.6973 73.6031 48.5117 73.6031 48.1895V45.377C73.6031 45.2402 73.5283 45.1458 73.3785 45.0938C73.3134 45.071 73.2434 45.0531 73.1686 45.04C73.0937 45.0238 73.0335 45.0091 72.9879 44.9961C72.9456 44.9831 72.9179 44.9717 72.9049 44.9619C72.8951 44.9489 72.8903 44.9245 72.8903 44.8887C72.8903 44.8496 72.9147 44.8171 72.9635 44.791L74.2086 44.2051C74.2477 44.1855 74.2721 44.1758 74.2819 44.1758C74.3372 44.1758 74.3649 44.2148 74.3649 44.293V45.1035C74.3681 45.123 74.3795 45.1328 74.399 45.1328C74.4218 45.1328 74.4755 45.11 74.5602 45.0645C74.6481 45.0189 74.762 44.9554 74.902 44.874C75.042 44.7894 75.2259 44.6917 75.4537 44.5811C75.6849 44.4704 75.929 44.415 76.1862 44.415C76.5996 44.415 76.8958 44.5924 77.0748 44.9473C77.1432 45.0905 77.205 45.1523 77.2604 45.1328C77.3157 45.11 77.402 45.0693 77.5192 45.0107C77.7959 44.874 78.0758 44.7406 78.359 44.6104C78.6422 44.4801 78.8766 44.415 79.0621 44.415C79.8141 44.415 80.1901 45.1003 80.1901 46.4707L80.1461 47.8965V48.1797C80.1461 48.4336 80.2731 48.5996 80.527 48.6777C80.6344 48.7135 80.7369 48.7396 80.8346 48.7559C80.9355 48.7689 81.0006 48.7819 81.0299 48.7949C81.0625 48.8079 81.0787 48.834 81.0787 48.873C81.0787 48.9121 81.0625 48.9349 81.0299 48.9414H78.6764C78.6438 48.9349 78.6276 48.9121 78.6276 48.873C78.6276 48.8112 78.7041 48.7689 78.8571 48.7461C79.2054 48.6973 79.3795 48.4954 79.3795 48.1406C79.4056 47.9779 79.4186 47.7321 79.4186 47.4033ZM84.7799 48.5117C84.7636 48.4564 84.7425 48.4385 84.7164 48.458C84.6904 48.4743 84.5846 48.5296 84.399 48.624C83.7903 48.9268 83.2825 49.0781 82.8756 49.0781C82.4687 49.0781 82.1757 48.9479 81.9967 48.6875C81.9316 48.5898 81.899 48.4694 81.899 48.3262V45.3477C81.8893 45.2533 81.847 45.1719 81.7721 45.1035C81.6712 45.0189 81.5654 44.9733 81.4547 44.9668C81.3473 44.9603 81.2936 44.9277 81.2936 44.8691C81.2936 44.8073 81.3196 44.7699 81.3717 44.7568L82.4899 44.4346C82.5289 44.4215 82.5664 44.415 82.6022 44.415C82.6412 44.415 82.6608 44.4427 82.6608 44.498V47.7744C82.6608 48.0023 82.7617 48.1781 82.9635 48.3018C83.1653 48.4255 83.4225 48.4873 83.735 48.4873C84.0507 48.4873 84.3339 48.3913 84.5846 48.1992C84.6627 48.1374 84.7278 48.069 84.7799 47.9941V45.3477C84.7701 45.2533 84.7278 45.1719 84.653 45.1035C84.552 45.0189 84.4462 44.9733 84.3356 44.9668C84.2281 44.9603 84.1744 44.9277 84.1744 44.8691C84.1744 44.8073 84.2005 44.7699 84.2526 44.7568L85.3707 44.4346C85.4098 44.4215 85.4472 44.415 85.483 44.415C85.5221 44.415 85.5416 44.4476 85.5416 44.5127V47.9795C85.5579 48.1227 85.5986 48.2253 85.6637 48.2871C85.7288 48.349 85.8346 48.3799 85.9811 48.3799L86.2643 48.3604C86.2838 48.3604 86.2936 48.3799 86.2936 48.4189C86.2936 48.4548 86.2692 48.484 86.2203 48.5068L84.9215 49.0439C84.8824 49.0635 84.8483 49.0732 84.819 49.0732C84.7929 49.0732 84.7799 49.0326 84.7799 48.9512V48.5117ZM88.7301 48.7559C88.8831 48.7754 88.9596 48.8145 88.9596 48.873C88.9596 48.9121 88.9433 48.9349 88.9108 48.9414H86.733C86.7005 48.9349 86.6842 48.9121 86.6842 48.873C86.6842 48.8145 86.7607 48.7754 86.9137 48.7559C87.2653 48.7038 87.441 48.5182 87.441 48.1992V42.1104C87.441 41.9736 87.3662 41.8792 87.2164 41.8271C87.1513 41.8044 87.0813 41.7865 87.0065 41.7734C86.9316 41.7572 86.8714 41.7425 86.8258 41.7295C86.7835 41.7165 86.7558 41.7051 86.7428 41.6953C86.733 41.6823 86.7281 41.6579 86.7281 41.6221C86.7281 41.583 86.7526 41.5505 86.8014 41.5244L88.0465 40.9385C88.0856 40.9189 88.11 40.9092 88.1198 40.9092C88.1751 40.9092 88.2028 40.9482 88.2028 41.0264V48.1992C88.2028 48.5182 88.3785 48.7038 88.7301 48.7559ZM90.2633 46.3682C90.208 46.3682 90.1803 46.487 90.1803 46.7246C90.1803 47.2292 90.33 47.6523 90.6295 47.9941C90.929 48.3359 91.3001 48.5068 91.7428 48.5068C92.1888 48.5068 92.6168 48.3148 93.027 47.9307C93.0335 47.9242 93.0416 47.9209 93.0514 47.9209H93.0758C93.0953 47.9209 93.1132 47.9372 93.1295 47.9697C93.149 47.999 93.167 48.0186 93.1832 48.0283C92.8056 48.4873 92.3613 48.8047 91.8502 48.9805C91.6744 49.0423 91.4759 49.0732 91.2545 49.0732C91.0332 49.0732 90.8086 49.013 90.5807 48.8926C90.3528 48.7689 90.1575 48.6077 89.9948 48.4092C89.6497 47.9958 89.4772 47.4814 89.4772 46.8662C89.4772 46.2477 89.6643 45.6846 90.0387 45.1768C90.4163 44.6689 90.9339 44.415 91.5914 44.415C92.0634 44.415 92.4492 44.6266 92.7487 45.0498C93.0481 45.4697 93.1979 45.8392 93.1979 46.1582C93.1979 46.2982 93.1637 46.3682 93.0953 46.3682H90.2633ZM90.317 45.8994C90.317 45.9613 90.3463 45.9922 90.4049 45.9922H92.2457C92.3304 45.9922 92.3727 45.9417 92.3727 45.8408C92.3727 45.6064 92.2669 45.3672 92.0553 45.123C91.847 44.8757 91.6175 44.752 91.3668 44.752C91.1227 44.752 90.8997 44.8626 90.6979 45.084C90.4993 45.3053 90.3724 45.5576 90.317 45.8408V45.8994ZM100.888 44.376C100.908 44.376 100.918 44.3857 100.918 44.4053V51.2266C100.918 51.5456 101.093 51.7311 101.445 51.7832C101.598 51.8027 101.674 51.8369 101.674 51.8857C101.674 51.9346 101.658 51.9622 101.626 51.9688H99.0084C98.9759 51.9622 98.9596 51.9395 98.9596 51.9004C98.9596 51.8646 98.9742 51.8402 99.0035 51.8271C99.0361 51.8141 99.0849 51.8027 99.15 51.793C99.2184 51.7865 99.2949 51.7767 99.3795 51.7637C99.8971 51.6855 100.156 51.5065 100.156 51.2266V48.4531C100.156 48.4336 100.148 48.4238 100.131 48.4238C100.118 48.4238 99.9964 48.4906 99.7653 48.624C99.5341 48.7575 99.3242 48.8649 99.1354 48.9463C98.9498 49.0309 98.7545 49.0732 98.5494 49.0732C98.1914 49.0732 97.887 48.9577 97.6364 48.7266C97.3857 48.4954 97.192 48.2074 97.0553 47.8623C96.9186 47.5173 96.8502 47.1803 96.8502 46.8516C96.8502 46.1875 97.0797 45.6162 97.5387 45.1377C97.9977 44.6559 98.5511 44.415 99.1989 44.415C99.5992 44.415 99.9915 44.5192 100.376 44.7275H100.41C100.472 44.7275 100.538 44.6885 100.61 44.6104C100.682 44.529 100.732 44.4704 100.761 44.4346C100.794 44.3955 100.82 44.376 100.839 44.376H100.888ZM97.5875 46.7734C97.5875 47.3301 97.7405 47.763 98.0465 48.0723C98.3558 48.3783 98.6748 48.5312 99.0035 48.5312C99.3323 48.5312 99.6399 48.4466 99.9264 48.2773C100.014 48.2253 100.091 48.1667 100.156 48.1016V45.8848C100.156 45.4909 100.045 45.1947 99.8239 44.9961C99.6025 44.7975 99.3584 44.6982 99.0914 44.6982C98.6162 44.6982 98.2467 44.9049 97.983 45.3184C97.7194 45.7285 97.5875 46.2135 97.5875 46.7734ZM105.395 48.5117C105.379 48.4564 105.358 48.4385 105.332 48.458C105.306 48.4743 105.2 48.5296 105.014 48.624C104.406 48.9268 103.898 49.0781 103.491 49.0781C103.084 49.0781 102.791 48.9479 102.612 48.6875C102.547 48.5898 102.514 48.4694 102.514 48.3262V45.3477C102.505 45.2533 102.462 45.1719 102.387 45.1035C102.286 45.0189 102.181 44.9733 102.07 44.9668C101.963 44.9603 101.909 44.9277 101.909 44.8691C101.909 44.8073 101.935 44.7699 101.987 44.7568L103.105 44.4346C103.144 44.4215 103.182 44.415 103.217 44.415C103.256 44.415 103.276 44.4427 103.276 44.498V47.7744C103.276 48.0023 103.377 48.1781 103.579 48.3018C103.781 48.4255 104.038 48.4873 104.35 48.4873C104.666 48.4873 104.949 48.3913 105.2 48.1992C105.278 48.1374 105.343 48.069 105.395 47.9941V45.3477C105.385 45.2533 105.343 45.1719 105.268 45.1035C105.167 45.0189 105.061 44.9733 104.951 44.9668C104.843 44.9603 104.79 44.9277 104.79 44.8691C104.79 44.8073 104.816 44.7699 104.868 44.7568L105.986 44.4346C106.025 44.4215 106.062 44.415 106.098 44.415C106.137 44.415 106.157 44.4476 106.157 44.5127V47.9795C106.173 48.1227 106.214 48.2253 106.279 48.2871C106.344 48.349 106.45 48.3799 106.596 48.3799L106.88 48.3604C106.899 48.3604 106.909 48.3799 106.909 48.4189C106.909 48.4548 106.884 48.484 106.836 48.5068L105.537 49.0439C105.498 49.0635 105.464 49.0732 105.434 49.0732C105.408 49.0732 105.395 49.0326 105.395 48.9512V48.5117ZM107.544 48.9414C107.511 48.9349 107.495 48.9121 107.495 48.873C107.495 48.8145 107.571 48.7754 107.724 48.7559C108.076 48.7038 108.252 48.5182 108.252 48.1992V45.6162C108.252 45.4795 108.177 45.3851 108.027 45.333C107.962 45.3102 107.892 45.2923 107.817 45.2793C107.742 45.263 107.682 45.2484 107.636 45.2354C107.594 45.2223 107.566 45.2109 107.553 45.2012C107.544 45.1882 107.539 45.1637 107.539 45.1279C107.539 45.0889 107.563 45.0563 107.612 45.0303L108.857 44.4443C108.896 44.4248 108.921 44.415 108.93 44.415C108.986 44.415 109.013 44.4541 109.013 44.5322V48.1992C109.013 48.5182 109.189 48.7038 109.541 48.7559C109.694 48.7754 109.77 48.8096 109.77 48.8584C109.77 48.9072 109.754 48.9349 109.721 48.9414H107.544ZM108.559 43.043C108.426 43.043 108.307 43.0007 108.203 42.916C108.102 42.8314 108.051 42.7142 108.051 42.5645C108.051 42.4115 108.1 42.291 108.198 42.2031C108.296 42.1152 108.411 42.0713 108.545 42.0713C108.681 42.0713 108.795 42.1234 108.886 42.2275C108.981 42.3317 109.028 42.444 109.028 42.5645C109.028 42.6849 108.984 42.7956 108.896 42.8965C108.808 42.9941 108.696 43.043 108.559 43.043ZM116.611 45.7188C116.611 45.3639 116.434 45.1865 116.079 45.1865H114.477C114.435 45.1865 114.414 45.2028 114.414 45.2354V48.1016C114.414 48.5671 114.817 48.7998 115.625 48.7998C115.683 48.8063 115.713 48.8275 115.713 48.8633C115.713 48.9154 115.683 48.9414 115.625 48.9414H112.944C112.911 48.9349 112.895 48.9121 112.895 48.873C112.895 48.8145 112.972 48.7754 113.125 48.7559C113.476 48.7038 113.652 48.5182 113.652 48.1992V45.2402C113.652 45.2044 113.632 45.1865 113.593 45.1865H113.061C113.022 45.1865 112.985 45.1751 112.949 45.1523C112.913 45.1263 112.895 45.0938 112.895 45.0547C112.895 45.0124 112.915 44.9798 112.954 44.957C113.009 44.9245 113.139 44.8805 113.344 44.8252C113.549 44.7699 113.652 44.6787 113.652 44.5518V44.3906C113.652 43.2188 113.906 42.3171 114.414 41.6855C114.697 41.3307 115.128 41.0573 115.708 40.8652C115.883 40.8066 116.058 40.7773 116.23 40.7773C116.403 40.7773 116.604 40.8229 116.836 40.9141C117.067 41.002 117.182 41.1094 117.182 41.2363C117.182 41.2624 117.177 41.2852 117.168 41.3047C117.161 41.3242 117.153 41.3486 117.143 41.3779L116.943 41.8076C116.923 41.8532 116.897 41.876 116.865 41.876C116.832 41.876 116.757 41.8288 116.64 41.7344C116.526 41.64 116.393 41.5472 116.24 41.4561C116.087 41.3649 115.913 41.3193 115.717 41.3193C115.337 41.3193 115.048 41.417 114.853 41.6123C114.658 41.8076 114.536 42.029 114.487 42.2764C114.438 42.5205 114.414 42.7907 114.414 43.0869V44.5078C114.414 44.5339 114.43 44.5469 114.463 44.5469H116.894C117.044 44.5469 117.161 44.5924 117.246 44.6836C117.33 44.7747 117.373 44.8805 117.373 45.001V48.1992C117.373 48.5182 117.548 48.7038 117.9 48.7559C118.053 48.7754 118.13 48.8096 118.13 48.8584C118.13 48.9072 118.113 48.9349 118.081 48.9414H115.903C115.87 48.9349 115.854 48.9121 115.854 48.873C115.854 48.8145 115.931 48.7754 116.084 48.7559C116.435 48.7038 116.611 48.5182 116.611 48.1992V45.7188ZM122.334 44.8838C122.334 44.8838 122.77 44.8643 123.642 44.8252C123.717 44.8252 123.766 44.8333 123.789 44.8496C123.811 44.8659 123.836 44.9229 123.862 45.0205C123.888 45.1149 123.901 45.2044 123.901 45.2891C123.901 45.3737 123.893 45.4225 123.877 45.4355C123.86 45.4486 123.828 45.4551 123.779 45.4551H122.695C122.714 45.4909 122.736 45.5283 122.758 45.5674C122.781 45.6064 122.811 45.6715 122.846 45.7627C122.882 45.8538 122.9 45.9954 122.9 46.1875C122.9 46.3763 122.853 46.5749 122.758 46.7832C122.667 46.9883 122.532 47.1706 122.353 47.3301C121.956 47.6882 121.442 47.8672 120.81 47.8672C120.644 47.8672 120.462 47.8363 120.263 47.7744C120.214 47.8265 120.149 47.8753 120.068 47.9209C119.987 47.9632 119.907 48.0072 119.829 48.0527C119.633 48.1634 119.536 48.2741 119.536 48.3848C119.536 48.6615 119.995 48.8031 120.913 48.8096C121.831 48.8161 122.433 48.847 122.719 48.9023C123.009 48.9544 123.234 49.0602 123.393 49.2197C123.644 49.4704 123.769 49.7568 123.769 50.0791C123.769 50.3558 123.65 50.6406 123.413 50.9336C122.999 51.4512 122.368 51.7962 121.518 51.9688C121.215 52.0306 120.895 52.0615 120.556 52.0615C119.941 52.0615 119.474 51.9492 119.155 51.7246C118.836 51.5033 118.676 51.2347 118.676 50.9189C118.676 50.7464 118.717 50.6032 118.798 50.4893C118.88 50.3786 118.982 50.2728 119.106 50.1719C119.233 50.0742 119.371 49.9701 119.521 49.8594C119.671 49.752 119.814 49.6136 119.951 49.4443C119.638 49.4183 119.37 49.319 119.145 49.1465C118.924 48.974 118.813 48.8047 118.813 48.6387C118.813 48.4727 118.857 48.3506 118.945 48.2725C119.033 48.1911 119.14 48.1227 119.267 48.0674C119.394 48.0088 119.528 47.9551 119.668 47.9062C119.808 47.8574 119.93 47.7939 120.034 47.7158C119.669 47.5726 119.388 47.3757 119.189 47.125C118.991 46.8711 118.891 46.5944 118.891 46.2949C118.891 45.7383 119.093 45.2842 119.497 44.9326C119.904 44.5811 120.394 44.4053 120.966 44.4053C121.539 44.4053 121.995 44.5648 122.334 44.8838ZM119.677 49.9766C119.602 50.0514 119.541 50.1312 119.492 50.2158C119.443 50.3005 119.419 50.4062 119.419 50.5332C119.419 50.6634 119.464 50.7985 119.555 50.9385C119.65 51.0817 119.777 51.2103 119.936 51.3242C120.288 51.5846 120.711 51.7148 121.206 51.7148C121.7 51.7148 122.148 51.57 122.548 51.2803C122.952 50.9938 123.154 50.6781 123.154 50.333C123.154 49.9912 122.988 49.7617 122.656 49.6445C122.5 49.5924 122.098 49.5599 121.45 49.5469C120.802 49.5339 120.382 49.516 120.19 49.4932C120.105 49.5908 120.018 49.6771 119.926 49.752C119.839 49.8268 119.755 49.9017 119.677 49.9766ZM122.099 46.1826C122.099 45.7236 121.984 45.3509 121.753 45.0645C121.525 44.7747 121.222 44.6299 120.844 44.6299C120.356 44.6299 120.011 44.8594 119.809 45.3184C119.731 45.4941 119.692 45.696 119.692 45.9238C119.692 46.3893 119.788 46.7767 119.98 47.0859C120.214 47.457 120.522 47.6426 120.903 47.6426C121.284 47.6426 121.578 47.514 121.787 47.2568C121.995 46.9997 122.099 46.6416 122.099 46.1826ZM127.622 48.5117C127.605 48.4564 127.584 48.4385 127.558 48.458C127.532 48.4743 127.426 48.5296 127.241 48.624C126.632 48.9268 126.124 49.0781 125.717 49.0781C125.311 49.0781 125.018 48.9479 124.839 48.6875C124.773 48.5898 124.741 48.4694 124.741 48.3262V45.3477C124.731 45.2533 124.689 45.1719 124.614 45.1035C124.513 45.0189 124.407 44.9733 124.297 44.9668C124.189 44.9603 124.135 44.9277 124.135 44.8691C124.135 44.8073 124.161 44.7699 124.214 44.7568L125.332 44.4346C125.371 44.4215 125.408 44.415 125.444 44.415C125.483 44.415 125.503 44.4427 125.503 44.498V47.7744C125.503 48.0023 125.603 48.1781 125.805 48.3018C126.007 48.4255 126.264 48.4873 126.577 48.4873C126.893 48.4873 127.176 48.3913 127.426 48.1992C127.505 48.1374 127.57 48.069 127.622 47.9941V45.3477C127.612 45.2533 127.57 45.1719 127.495 45.1035C127.394 45.0189 127.288 44.9733 127.177 44.9668C127.07 44.9603 127.016 44.9277 127.016 44.8691C127.016 44.8073 127.042 44.7699 127.094 44.7568L128.213 44.4346C128.252 44.4215 128.289 44.415 128.325 44.415C128.364 44.415 128.383 44.4476 128.383 44.5127V47.9795C128.4 48.1227 128.44 48.2253 128.505 48.2871C128.571 48.349 128.676 48.3799 128.823 48.3799L129.106 48.3604C129.126 48.3604 129.135 48.3799 129.135 48.4189C129.135 48.4548 129.111 48.484 129.062 48.5068L127.763 49.0439C127.724 49.0635 127.69 49.0732 127.661 49.0732C127.635 49.0732 127.622 49.0326 127.622 48.9512V48.5117ZM132.739 45.4404C132.7 45.4339 132.643 45.4128 132.568 45.377C132.298 45.2533 132.086 45.1914 131.933 45.1914C131.78 45.1914 131.619 45.2874 131.45 45.4795C131.284 45.6683 131.201 45.8392 131.201 45.9922V48.1992C131.201 48.4434 131.342 48.6061 131.626 48.6875C131.749 48.7201 131.865 48.7445 131.972 48.7607C132.08 48.7738 132.148 48.7868 132.177 48.7998C132.21 48.8128 132.226 48.8389 132.226 48.8779C132.226 48.9137 132.21 48.9349 132.177 48.9414H129.731C129.699 48.9349 129.682 48.9121 129.682 48.873C129.682 48.8145 129.759 48.7754 129.912 48.7559C130.263 48.7038 130.439 48.5182 130.439 48.1992V45.6162C130.439 45.4795 130.364 45.3851 130.214 45.333C130.149 45.3102 130.079 45.2923 130.005 45.2793C129.93 45.263 129.869 45.2484 129.824 45.2354C129.782 45.2223 129.754 45.2109 129.741 45.2012C129.731 45.1882 129.726 45.1637 129.726 45.1279C129.726 45.0889 129.751 45.0563 129.799 45.0303L131.045 44.4443C131.084 44.4248 131.108 44.415 131.118 44.415C131.173 44.415 131.201 44.4541 131.201 44.5322V45.3232C131.201 45.3623 131.211 45.3818 131.23 45.3818C131.256 45.3818 131.323 45.3053 131.43 45.1523C131.74 44.7194 131.995 44.5029 132.197 44.5029C132.311 44.5029 132.485 44.5485 132.719 44.6396C132.957 44.7308 133.076 44.8073 133.076 44.8691C133.076 44.944 133.038 45.0579 132.964 45.2109C132.889 45.3639 132.814 45.4404 132.739 45.4404ZM134.209 46.3682C134.153 46.3682 134.126 46.487 134.126 46.7246C134.126 47.2292 134.275 47.6523 134.575 47.9941C134.874 48.3359 135.245 48.5068 135.688 48.5068C136.134 48.5068 136.562 48.3148 136.972 47.9307C136.979 47.9242 136.987 47.9209 136.997 47.9209H137.021C137.041 47.9209 137.059 47.9372 137.075 47.9697C137.094 47.999 137.112 48.0186 137.129 48.0283C136.751 48.4873 136.307 48.8047 135.796 48.9805C135.62 49.0423 135.421 49.0732 135.2 49.0732C134.978 49.0732 134.754 49.013 134.526 48.8926C134.298 48.7689 134.103 48.6077 133.94 48.4092C133.595 47.9958 133.422 47.4814 133.422 46.8662C133.422 46.2477 133.61 45.6846 133.984 45.1768C134.362 44.6689 134.879 44.415 135.537 44.415C136.009 44.415 136.394 44.6266 136.694 45.0498C136.993 45.4697 137.143 45.8392 137.143 46.1582C137.143 46.2982 137.109 46.3682 137.041 46.3682H134.209ZM134.262 45.8994C134.262 45.9613 134.292 45.9922 134.35 45.9922H136.191C136.276 45.9922 136.318 45.9417 136.318 45.8408C136.318 45.6064 136.212 45.3672 136.001 45.123C135.792 44.8757 135.563 44.752 135.312 44.752C135.068 44.752 134.845 44.8626 134.643 45.084C134.445 45.3053 134.318 45.5576 134.262 45.8408V45.8994ZM25.8737 59.6016C25.8737 59.6732 25.846 59.709 25.7906 59.709C25.7386 59.709 25.6979 59.6699 25.6686 59.5918C25.5905 59.377 25.4733 59.1865 25.317 59.0205C25.164 58.8545 24.9736 58.7715 24.7457 58.7715C24.4462 58.7715 24.2444 58.9212 24.1403 59.2207C24.1077 59.3216 24.0914 59.4258 24.0914 59.5332C24.0914 59.6406 24.1598 59.7611 24.2965 59.8945C24.4332 60.0247 24.6578 60.181 24.9703 60.3633C25.2828 60.5456 25.5107 60.7002 25.6539 60.8271C25.9795 61.1169 26.1422 61.4521 26.1422 61.833C26.1422 62.2139 26.0022 62.5166 25.7223 62.7412C25.4423 62.9626 25.1168 63.0732 24.7457 63.0732C24.5472 63.0732 24.3665 63.0456 24.2037 62.9902C24.0442 62.9382 23.9515 62.9121 23.9254 62.9121C23.9026 62.9121 23.8636 62.9382 23.8082 62.9902C23.7561 63.0456 23.7138 63.0732 23.6813 63.0732H23.5983C23.5787 63.0732 23.5543 62.8975 23.525 62.5459C23.4957 62.1943 23.4811 61.986 23.4811 61.9209C23.4811 61.8558 23.486 61.82 23.4957 61.8135C23.5087 61.807 23.5283 61.8037 23.5543 61.8037C23.5804 61.8037 23.6015 61.8118 23.6178 61.8281C23.6373 61.8444 23.6536 61.8656 23.6666 61.8916C23.6796 61.9144 23.6894 61.9388 23.6959 61.9648C23.7057 61.9909 23.7268 62.0397 23.7594 62.1113C23.9808 62.5833 24.3226 62.8193 24.7848 62.8193C24.9899 62.8193 25.1543 62.7445 25.278 62.5947C25.4017 62.4417 25.4635 62.2725 25.4635 62.0869C25.4635 61.9014 25.4147 61.7451 25.317 61.6182C25.2194 61.4912 25.0973 61.3757 24.9508 61.2715C24.8076 61.1673 24.6513 61.0664 24.4821 60.9688C23.8245 60.5846 23.4957 60.1598 23.4957 59.6943C23.4957 59.346 23.6455 59.0465 23.9449 58.7959C24.2444 58.542 24.552 58.415 24.8678 58.415C25.1836 58.415 25.4163 58.4492 25.566 58.5176C25.719 58.5859 25.8086 58.6445 25.8346 58.6934C25.8606 58.7389 25.8737 58.8919 25.8737 59.1523V59.6016ZM30.1949 62.5117C30.1787 62.4564 30.1575 62.4385 30.1315 62.458C30.1054 62.4743 29.9996 62.5296 29.8141 62.624C29.2054 62.9268 28.6976 63.0781 28.2906 63.0781C27.8837 63.0781 27.5908 62.9479 27.4117 62.6875C27.3466 62.5898 27.3141 62.4694 27.3141 62.3262V59.3477C27.3043 59.2533 27.262 59.1719 27.1871 59.1035C27.0862 59.0189 26.9804 58.9733 26.8698 58.9668C26.7623 58.9603 26.7086 58.9277 26.7086 58.8691C26.7086 58.8073 26.7347 58.7699 26.7867 58.7568L27.9049 58.4346C27.944 58.4215 27.9814 58.415 28.0172 58.415C28.0563 58.415 28.0758 58.4427 28.0758 58.498V61.7744C28.0758 62.0023 28.1767 62.1781 28.3785 62.3018C28.5804 62.4255 28.8375 62.4873 29.15 62.4873C29.4658 62.4873 29.749 62.3913 29.9996 62.1992C30.0778 62.1374 30.1429 62.069 30.1949 61.9941V59.3477C30.1852 59.2533 30.1429 59.1719 30.068 59.1035C29.9671 59.0189 29.8613 58.9733 29.7506 58.9668C29.6432 58.9603 29.5895 58.9277 29.5895 58.8691C29.5895 58.8073 29.6155 58.7699 29.6676 58.7568L30.7858 58.4346C30.8248 58.4215 30.8623 58.415 30.8981 58.415C30.9371 58.415 30.9567 58.4476 30.9567 58.5127V61.9795C30.9729 62.1227 31.0136 62.2253 31.0787 62.2871C31.1438 62.349 31.2496 62.3799 31.3961 62.3799L31.6793 62.3604C31.6989 62.3604 31.7086 62.3799 31.7086 62.4189C31.7086 62.4548 31.6842 62.484 31.6354 62.5068L30.3365 63.0439C30.2975 63.0635 30.2633 63.0732 30.234 63.0732C30.208 63.0732 30.1949 63.0326 30.1949 62.9512V62.5117ZM35.3121 59.4404C35.2731 59.4339 35.2161 59.4128 35.1412 59.377C34.8711 59.2533 34.6595 59.1914 34.5065 59.1914C34.3535 59.1914 34.1923 59.2874 34.0231 59.4795C33.8571 59.6683 33.774 59.8392 33.774 59.9922V62.1992C33.774 62.4434 33.9156 62.6061 34.1989 62.6875C34.3226 62.7201 34.4381 62.7445 34.5455 62.7607C34.653 62.7738 34.7213 62.7868 34.7506 62.7998C34.7832 62.8128 34.7994 62.8389 34.7994 62.8779C34.7994 62.9137 34.7832 62.9349 34.7506 62.9414H32.3043C32.2718 62.9349 32.2555 62.9121 32.2555 62.873C32.2555 62.8145 32.332 62.7754 32.485 62.7559C32.8365 62.7038 33.0123 62.5182 33.0123 62.1992V59.6162C33.0123 59.4795 32.9375 59.3851 32.7877 59.333C32.7226 59.3102 32.6526 59.2923 32.5778 59.2793C32.5029 59.263 32.4427 59.2484 32.3971 59.2354C32.3548 59.2223 32.3271 59.2109 32.3141 59.2012C32.3043 59.1882 32.2994 59.1637 32.2994 59.1279C32.2994 59.0889 32.3239 59.0563 32.3727 59.0303L33.6178 58.4443C33.6569 58.4248 33.6813 58.415 33.691 58.415C33.7464 58.415 33.774 58.4541 33.774 58.5322V59.3232C33.774 59.3623 33.7838 59.3818 33.8033 59.3818C33.8294 59.3818 33.8961 59.3053 34.0035 59.1523C34.3128 58.7194 34.5683 58.5029 34.7701 58.5029C34.8841 58.5029 35.0582 58.5485 35.2926 58.6396C35.5302 58.7308 35.649 58.8073 35.649 58.8691C35.649 58.944 35.6116 59.0579 35.5367 59.2109C35.4619 59.3639 35.387 59.4404 35.3121 59.4404ZM40.483 62.7559C40.636 62.7754 40.7125 62.8145 40.7125 62.873C40.7125 62.9121 40.6962 62.9349 40.6637 62.9414H38.486C38.4534 62.9349 38.4371 62.9121 38.4371 62.873C38.4371 62.8145 38.5136 62.7754 38.6666 62.7559C39.0182 62.7038 39.194 62.5182 39.194 62.1992V56.1104C39.194 55.9736 39.1191 55.8792 38.9694 55.8271C38.9043 55.8044 38.8343 55.7865 38.7594 55.7734C38.6845 55.7572 38.6243 55.7425 38.5787 55.7295C38.5364 55.7165 38.5087 55.7051 38.4957 55.6953C38.486 55.6823 38.4811 55.6579 38.4811 55.6221C38.4811 55.583 38.5055 55.5505 38.5543 55.5244L39.7994 54.9385C39.8385 54.9189 39.8629 54.9092 39.8727 54.9092C39.928 54.9092 39.9557 54.9482 39.9557 55.0264V62.1992C39.9557 62.5182 40.1315 62.7038 40.483 62.7559ZM42.0162 60.3682C41.9609 60.3682 41.9332 60.487 41.9332 60.7246C41.9332 61.2292 42.083 61.6523 42.3824 61.9941C42.6819 62.3359 43.053 62.5068 43.4957 62.5068C43.9417 62.5068 44.3698 62.3148 44.7799 61.9307C44.7864 61.9242 44.7946 61.9209 44.8043 61.9209H44.8287C44.8483 61.9209 44.8662 61.9372 44.8824 61.9697C44.902 61.999 44.9199 62.0186 44.9362 62.0283C44.5586 62.4873 44.1142 62.8047 43.6031 62.9805C43.4274 63.0423 43.2288 63.0732 43.0074 63.0732C42.7861 63.0732 42.5615 63.013 42.3336 62.8926C42.1058 62.7689 41.9104 62.6077 41.7477 62.4092C41.4026 61.9958 41.2301 61.4814 41.2301 60.8662C41.2301 60.2477 41.4173 59.6846 41.7916 59.1768C42.1692 58.6689 42.6868 58.415 43.3444 58.415C43.8164 58.415 44.2021 58.6266 44.5016 59.0498C44.8011 59.4697 44.9508 59.8392 44.9508 60.1582C44.9508 60.2982 44.9166 60.3682 44.8483 60.3682H42.0162ZM42.0699 59.8994C42.0699 59.9613 42.0992 59.9922 42.1578 59.9922H43.9987C44.0833 59.9922 44.1256 59.9417 44.1256 59.8408C44.1256 59.6064 44.0198 59.3672 43.8082 59.123C43.5999 58.8757 43.3704 58.752 43.1198 58.752C42.8756 58.752 42.6526 58.8626 42.4508 59.084C42.2522 59.3053 42.1253 59.5576 42.0699 59.8408V59.8994ZM52.1139 58.8838C52.1139 58.8838 52.5501 58.8643 53.4225 58.8252C53.4974 58.8252 53.5462 58.8333 53.569 58.8496C53.5918 58.8659 53.6162 58.9229 53.6422 59.0205C53.6683 59.1149 53.6813 59.2044 53.6813 59.2891C53.6813 59.3737 53.6731 59.4225 53.6569 59.4355C53.6406 59.4486 53.608 59.4551 53.5592 59.4551H52.4752C52.4948 59.4909 52.5159 59.5283 52.5387 59.5674C52.5615 59.6064 52.5908 59.6715 52.6266 59.7627C52.6624 59.8538 52.6803 59.9954 52.6803 60.1875C52.6803 60.3763 52.6331 60.5749 52.5387 60.7832C52.4476 60.9883 52.3125 61.1706 52.1334 61.3301C51.7363 61.6882 51.222 61.8672 50.5905 61.8672C50.4244 61.8672 50.2421 61.8363 50.0436 61.7744C49.9948 61.8265 49.9296 61.8753 49.8483 61.9209C49.7669 61.9632 49.6871 62.0072 49.609 62.0527C49.4137 62.1634 49.316 62.2741 49.316 62.3848C49.316 62.6615 49.775 62.8031 50.693 62.8096C51.611 62.8161 52.2132 62.847 52.4996 62.9023C52.7893 62.9544 53.014 63.0602 53.1735 63.2197C53.4241 63.4704 53.5494 63.7568 53.5494 64.0791C53.5494 64.3558 53.4306 64.6406 53.193 64.9336C52.7796 65.4512 52.1481 65.7962 51.2985 65.9688C50.9957 66.0306 50.6751 66.0615 50.3365 66.0615C49.7213 66.0615 49.2542 65.9492 48.9352 65.7246C48.6162 65.5033 48.4567 65.2347 48.4567 64.9189C48.4567 64.7464 48.4974 64.6032 48.5787 64.4893C48.6601 64.3786 48.7627 64.2728 48.8864 64.1719C49.0133 64.0742 49.1517 63.9701 49.3014 63.8594C49.4511 63.752 49.5944 63.6136 49.7311 63.4443C49.4186 63.4183 49.15 63.319 48.9254 63.1465C48.7041 62.974 48.5934 62.8047 48.5934 62.6387C48.5934 62.4727 48.6373 62.3506 48.7252 62.2725C48.8131 62.1911 48.9205 62.1227 49.0475 62.0674C49.1744 62.0088 49.3079 61.9551 49.4479 61.9062C49.5878 61.8574 49.7099 61.7939 49.8141 61.7158C49.4495 61.5726 49.1679 61.3757 48.9694 61.125C48.7708 60.8711 48.6715 60.5944 48.6715 60.2949C48.6715 59.7383 48.8733 59.2842 49.277 58.9326C49.6839 58.5811 50.1738 58.4053 50.7467 58.4053C51.3196 58.4053 51.7753 58.5648 52.1139 58.8838ZM49.4576 63.9766C49.3828 64.0514 49.3209 64.1312 49.2721 64.2158C49.2233 64.3005 49.1989 64.4062 49.1989 64.5332C49.1989 64.6634 49.2444 64.7985 49.3356 64.9385C49.43 65.0817 49.5569 65.2103 49.7164 65.3242C50.068 65.5846 50.4912 65.7148 50.986 65.7148C51.4808 65.7148 51.9283 65.57 52.3287 65.2803C52.7324 64.9938 52.9342 64.6781 52.9342 64.333C52.9342 63.9912 52.7682 63.7617 52.4362 63.6445C52.2799 63.5924 51.8779 63.5599 51.2301 63.5469C50.5823 63.5339 50.1624 63.516 49.9703 63.4932C49.8857 63.5908 49.7978 63.6771 49.7067 63.752C49.6188 63.8268 49.5358 63.9017 49.4576 63.9766ZM51.8795 60.1826C51.8795 59.7236 51.764 59.3509 51.5328 59.0645C51.305 58.7747 51.0022 58.6299 50.6246 58.6299C50.1364 58.6299 49.7913 58.8594 49.5895 59.3184C49.5114 59.4941 49.4723 59.696 49.4723 59.9238C49.4723 60.3893 49.5683 60.7767 49.7604 61.0859C49.9948 61.457 50.3024 61.6426 50.6832 61.6426C51.0641 61.6426 51.3587 61.514 51.567 61.2568C51.7753 60.9997 51.8795 60.6416 51.8795 60.1826ZM57.0797 62.1357C57.0797 62.2204 57.1188 62.2887 57.1969 62.3408C57.2783 62.3896 57.3711 62.4141 57.4752 62.4141C57.5794 62.4141 57.6656 62.388 57.734 62.3359C57.8056 62.2806 57.8545 62.2529 57.8805 62.2529C57.9065 62.2529 57.9196 62.2887 57.9196 62.3604C57.9196 62.4287 57.887 62.4873 57.8219 62.5361C57.3336 62.8942 57.0032 63.0732 56.8307 63.0732C56.6224 63.0732 56.4531 62.8568 56.3229 62.4238C56.3131 62.3913 56.305 62.3766 56.2985 62.3799C55.8948 62.6826 55.6409 62.8649 55.5367 62.9268C55.2698 63.0798 55.0013 63.1042 54.7311 63C54.4642 62.8958 54.2705 62.7233 54.15 62.4824C54.0914 62.3587 54.0621 62.2269 54.0621 62.0869C54.0621 61.8102 54.1647 61.5905 54.3698 61.4277C54.5748 61.265 54.9655 61.1087 55.5416 60.959C55.7369 60.9069 55.9111 60.8402 56.0641 60.7588C56.2171 60.6774 56.2968 60.6253 56.3033 60.6025C56.3131 60.5798 56.318 60.5586 56.318 60.5391V59.6016C56.318 59.2337 56.1748 58.9749 55.8883 58.8252C55.7939 58.7764 55.68 58.752 55.5465 58.752C55.4163 58.752 55.2828 58.804 55.1461 58.9082C55.0127 59.0124 54.9459 59.1605 54.9459 59.3525L54.9703 59.543C54.9508 59.582 54.8336 59.6471 54.6188 59.7383C54.4039 59.8294 54.2802 59.8783 54.2477 59.8848C54.1956 59.8848 54.1696 59.8229 54.1696 59.6992C54.1696 59.5723 54.207 59.4323 54.2819 59.2793C54.3567 59.1263 54.4625 58.9863 54.5992 58.8594C54.9183 58.5632 55.2828 58.415 55.693 58.415C56.1031 58.415 56.4368 58.529 56.694 58.7568C56.9511 58.9814 57.0797 59.25 57.0797 59.5625V62.1357ZM54.8287 61.9941C54.8287 62.1504 54.889 62.2871 55.0094 62.4043C55.1298 62.5182 55.2666 62.5752 55.4196 62.5752C55.5758 62.5752 55.7646 62.5101 55.986 62.3799C56.2073 62.2464 56.318 62.1097 56.318 61.9697V60.9785C56.318 60.9427 56.3099 60.9248 56.2936 60.9248C56.2773 60.9248 56.2659 60.9264 56.2594 60.9297L55.1266 61.457C55.0094 61.5417 54.9296 61.6133 54.8873 61.6719C54.8483 61.7305 54.8287 61.8379 54.8287 61.9941ZM59.5797 58.8545C59.5797 58.9554 59.6025 59.0059 59.6481 59.0059C59.6969 59.0059 59.9052 58.9001 60.2731 58.6885C60.7028 58.5062 61.0299 58.415 61.2545 58.415C61.4791 58.415 61.694 58.4801 61.899 58.6104C62.1041 58.7406 62.2783 58.9115 62.4215 59.123C62.7242 59.5592 62.8756 60.0882 62.8756 60.71C62.8756 61.3317 62.6591 61.8818 62.2262 62.3604C61.7965 62.8356 61.2285 63.0732 60.5221 63.0732C60.0631 63.0732 59.6399 63.0179 59.2526 62.9072C59.1386 62.8747 59.041 62.8486 58.9596 62.8291C58.8815 62.8096 58.8375 62.79 58.8278 62.7705C58.8212 62.7477 58.818 62.7217 58.818 62.6924V56.1104C58.818 55.9736 58.7431 55.8792 58.5934 55.8271C58.5283 55.8044 58.4583 55.7865 58.3834 55.7734C58.3086 55.7572 58.2483 55.7425 58.2028 55.7295C58.1604 55.7165 58.1328 55.7051 58.1198 55.6953C58.11 55.6823 58.1051 55.6579 58.1051 55.6221C58.1051 55.583 58.1295 55.5505 58.1783 55.5244L59.4235 54.9385C59.4625 54.9189 59.4869 54.9092 59.4967 54.9092C59.552 54.9092 59.5797 54.9482 59.5797 55.0264V58.8545ZM60.6149 59.0107C60.3252 59.0107 59.9996 59.1149 59.6383 59.3232C59.5992 59.346 59.5797 59.3851 59.5797 59.4404V61.75C59.6123 62.0462 59.7408 62.2773 59.9655 62.4434C60.1901 62.6094 60.4358 62.6924 60.7028 62.6924C61.1715 62.6924 61.5328 62.5068 61.7867 62.1357C62.0439 61.7646 62.1725 61.3415 62.1725 60.8662C62.1725 60.391 62.0423 59.9629 61.7819 59.582C61.5214 59.2012 61.1324 59.0107 60.6149 59.0107ZM66.777 62.1357C66.777 62.2204 66.816 62.2887 66.8942 62.3408C66.9755 62.3896 67.0683 62.4141 67.1725 62.4141C67.2767 62.4141 67.3629 62.388 67.4313 62.3359C67.5029 62.2806 67.5517 62.2529 67.5778 62.2529C67.6038 62.2529 67.6168 62.2887 67.6168 62.3604C67.6168 62.4287 67.5843 62.4873 67.5192 62.5361C67.0309 62.8942 66.7005 63.0732 66.528 63.0732C66.3196 63.0732 66.1503 62.8568 66.0201 62.4238C66.0104 62.3913 66.0022 62.3766 65.9957 62.3799C65.5921 62.6826 65.3382 62.8649 65.234 62.9268C64.9671 63.0798 64.6985 63.1042 64.4283 63C64.1614 62.8958 63.9677 62.7233 63.8473 62.4824C63.7887 62.3587 63.7594 62.2269 63.7594 62.0869C63.7594 61.8102 63.8619 61.5905 64.067 61.4277C64.2721 61.265 64.6627 61.1087 65.2389 60.959C65.4342 60.9069 65.6084 60.8402 65.7614 60.7588C65.9143 60.6774 65.9941 60.6253 66.0006 60.6025C66.0104 60.5798 66.0153 60.5586 66.0153 60.5391V59.6016C66.0153 59.2337 65.872 58.9749 65.5856 58.8252C65.4912 58.7764 65.3772 58.752 65.2438 58.752C65.1136 58.752 64.9801 58.804 64.8434 58.9082C64.7099 59.0124 64.6432 59.1605 64.6432 59.3525L64.6676 59.543C64.6481 59.582 64.5309 59.6471 64.316 59.7383C64.1012 59.8294 63.9775 59.8783 63.9449 59.8848C63.8929 59.8848 63.8668 59.8229 63.8668 59.6992C63.8668 59.5723 63.9043 59.4323 63.9791 59.2793C64.054 59.1263 64.1598 58.9863 64.2965 58.8594C64.6155 58.5632 64.9801 58.415 65.3903 58.415C65.8004 58.415 66.1341 58.529 66.3912 58.7568C66.6484 58.9814 66.777 59.25 66.777 59.5625V62.1357ZM64.526 61.9941C64.526 62.1504 64.5862 62.2871 64.7067 62.4043C64.8271 62.5182 64.9638 62.5752 65.1168 62.5752C65.2731 62.5752 65.4619 62.5101 65.6832 62.3799C65.9046 62.2464 66.0153 62.1097 66.0153 61.9697V60.9785C66.0153 60.9427 66.0071 60.9248 65.9908 60.9248C65.9746 60.9248 65.9632 60.9264 65.9567 60.9297L64.8239 61.457C64.7067 61.5417 64.6269 61.6133 64.5846 61.6719C64.5455 61.7305 64.526 61.8379 64.526 61.9941ZM71.0543 59.4404C71.0153 59.4339 70.9583 59.4128 70.8834 59.377C70.6132 59.2533 70.4017 59.1914 70.2487 59.1914C70.0957 59.1914 69.9345 59.2874 69.7653 59.4795C69.5992 59.6683 69.5162 59.8392 69.5162 59.9922V62.1992C69.5162 62.4434 69.6578 62.6061 69.941 62.6875C70.0647 62.7201 70.1803 62.7445 70.2877 62.7607C70.3951 62.7738 70.4635 62.7868 70.4928 62.7998C70.5253 62.8128 70.5416 62.8389 70.5416 62.8779C70.5416 62.9137 70.5253 62.9349 70.4928 62.9414H68.0465C68.014 62.9349 67.9977 62.9121 67.9977 62.873C67.9977 62.8145 68.0742 62.7754 68.2272 62.7559C68.5787 62.7038 68.7545 62.5182 68.7545 62.1992V59.6162C68.7545 59.4795 68.6796 59.3851 68.5299 59.333C68.4648 59.3102 68.3948 59.2923 68.3199 59.2793C68.2451 59.263 68.1849 59.2484 68.1393 59.2354C68.097 59.2223 68.0693 59.2109 68.0563 59.2012C68.0465 59.1882 68.0416 59.1637 68.0416 59.1279C68.0416 59.0889 68.066 59.0563 68.1149 59.0303L69.36 58.4443C69.399 58.4248 69.4235 58.415 69.4332 58.415C69.4886 58.415 69.5162 58.4541 69.5162 58.5322V59.3232C69.5162 59.3623 69.526 59.3818 69.5455 59.3818C69.5716 59.3818 69.6383 59.3053 69.7457 59.1523C70.055 58.7194 70.3105 58.5029 70.5123 58.5029C70.6263 58.5029 70.8004 58.5485 71.0348 58.6396C71.2724 58.7308 71.3912 58.8073 71.3912 58.8691C71.3912 58.944 71.3538 59.0579 71.2789 59.2109C71.2041 59.3639 71.1292 59.4404 71.0543 59.4404ZM71.7379 62.9414C71.7054 62.9349 71.6891 62.9121 71.6891 62.873C71.6891 62.8145 71.7656 62.7754 71.9186 62.7559C72.2701 62.7038 72.4459 62.5182 72.4459 62.1992V59.6162C72.4459 59.4795 72.3711 59.3851 72.2213 59.333C72.1562 59.3102 72.0862 59.2923 72.0114 59.2793C71.9365 59.263 71.8763 59.2484 71.8307 59.2354C71.7884 59.2223 71.7607 59.2109 71.7477 59.2012C71.7379 59.1882 71.733 59.1637 71.733 59.1279C71.733 59.0889 71.7574 59.0563 71.8063 59.0303L73.0514 58.4443C73.0905 58.4248 73.1149 58.415 73.1246 58.415C73.18 58.415 73.2076 58.4541 73.2076 58.5322V62.1992C73.2076 62.5182 73.3834 62.7038 73.735 62.7559C73.888 62.7754 73.9645 62.8096 73.9645 62.8584C73.9645 62.9072 73.9482 62.9349 73.9156 62.9414H71.7379ZM72.7535 57.043C72.6201 57.043 72.5013 57.0007 72.3971 56.916C72.2962 56.8314 72.2457 56.7142 72.2457 56.5645C72.2457 56.4115 72.2946 56.291 72.3922 56.2031C72.4899 56.1152 72.6054 56.0713 72.7389 56.0713C72.8756 56.0713 72.9895 56.1234 73.0807 56.2275C73.1751 56.3317 73.2223 56.444 73.2223 56.5645C73.2223 56.6849 73.1783 56.7956 73.0905 56.8965C73.0026 56.9941 72.8903 57.043 72.7535 57.043ZM75.7369 59.1865C75.7174 59.1865 75.7076 59.2012 75.7076 59.2305V61.9258C75.7076 62.1211 75.75 62.2741 75.8346 62.3848C75.9225 62.4954 76.0332 62.5508 76.1666 62.5508C76.3001 62.5508 76.4156 62.5296 76.5133 62.4873C76.6142 62.4417 76.7005 62.3929 76.7721 62.3408C76.847 62.2887 76.9137 62.2415 76.9723 62.1992C77.0309 62.1536 77.083 62.1309 77.1285 62.1309C77.1741 62.1309 77.1969 62.1423 77.1969 62.165C77.1969 62.2432 77.1888 62.2936 77.1725 62.3164C76.7819 62.821 76.4043 63.0732 76.0397 63.0732C75.6783 63.0732 75.4049 62.9593 75.2194 62.7314C75.0371 62.5003 74.9459 62.2253 74.9459 61.9062V59.1865H74.5797C74.4886 59.1865 74.4397 59.1572 74.4332 59.0986C74.43 59.04 74.4397 59.0026 74.4625 58.9863C74.6351 58.8757 74.8727 58.6771 75.1754 58.3906C75.208 58.3548 75.2519 58.3011 75.3073 58.2295C75.3626 58.1579 75.4423 58.0602 75.5465 57.9365C75.6539 57.8128 75.7353 57.751 75.7906 57.751C75.846 57.751 75.8737 57.7738 75.8737 57.8193C75.8737 57.8258 75.8183 58.0391 75.7076 58.459C75.7076 58.5176 75.7337 58.5485 75.7858 58.5518H77.0309C77.1741 58.5518 77.2457 58.7536 77.2457 59.1572C77.2457 59.1768 77.2327 59.1865 77.2067 59.1865H75.7369ZM83.4127 58.6201C83.5559 58.6689 83.6438 58.6934 83.6764 58.6934C83.7089 58.6934 83.7285 58.6934 83.735 58.6934C83.7448 58.6901 83.7561 58.6689 83.7692 58.6299V56.1104C83.7692 55.9736 83.6943 55.8792 83.5446 55.8271C83.4795 55.8044 83.4095 55.7865 83.3346 55.7734C83.2597 55.7572 83.1995 55.7425 83.1539 55.7295C83.1116 55.7165 83.0839 55.7051 83.0709 55.6953C83.0612 55.6823 83.0563 55.6579 83.0563 55.6221C83.0563 55.583 83.0807 55.5505 83.1295 55.5244L84.3746 54.9385C84.4137 54.9189 84.4381 54.9092 84.4479 54.9092C84.5032 54.9092 84.5309 54.9482 84.5309 55.0264V61.9795C84.5472 62.1227 84.5878 62.2253 84.653 62.2871C84.7181 62.349 84.8239 62.3799 84.9703 62.3799L85.2535 62.3604C85.2731 62.3604 85.2828 62.3799 85.2828 62.4189C85.2828 62.4548 85.2584 62.484 85.2096 62.5068L83.9108 63.0439C83.8717 63.0635 83.8375 63.0732 83.8082 63.0732C83.7822 63.0732 83.7692 63.0326 83.7692 62.9512V62.5068C83.7692 62.4743 83.761 62.458 83.7448 62.458C83.722 62.458 83.5869 62.5312 83.3395 62.6777C82.581 63.127 81.9414 63.1937 81.4205 62.8779C81.0039 62.624 80.7223 62.222 80.5758 61.6719C80.5074 61.4147 80.4733 61.1429 80.4733 60.8564C80.4733 60.5667 80.5319 60.2803 80.649 59.9971C80.7695 59.7106 80.9339 59.46 81.1422 59.2451C81.6012 58.7764 82.1546 58.542 82.8024 58.542C83.066 58.542 83.2695 58.568 83.4127 58.6201ZM81.2106 60.7148C81.2106 61.2064 81.3473 61.6377 81.6207 62.0088C81.8942 62.3766 82.275 62.5605 82.7633 62.5605C82.9781 62.5605 83.1995 62.5085 83.4274 62.4043C83.6552 62.2969 83.7692 62.2155 83.7692 62.1602V59.6406C83.7692 59.5788 83.7268 59.5055 83.6422 59.4209C83.3818 59.0628 83.0351 58.8838 82.6022 58.8838C82.1725 58.8838 81.8323 59.0661 81.5817 59.4307C81.3343 59.792 81.2106 60.2201 81.2106 60.7148ZM86.5084 60.3682C86.4531 60.3682 86.4254 60.487 86.4254 60.7246C86.4254 61.2292 86.5752 61.6523 86.8746 61.9941C87.1741 62.3359 87.5452 62.5068 87.9879 62.5068C88.4339 62.5068 88.8619 62.3148 89.2721 61.9307C89.2786 61.9242 89.2867 61.9209 89.2965 61.9209H89.3209C89.3405 61.9209 89.3584 61.9372 89.3746 61.9697C89.3942 61.999 89.4121 62.0186 89.4283 62.0283C89.0507 62.4873 88.6064 62.8047 88.0953 62.9805C87.9196 63.0423 87.721 63.0732 87.4996 63.0732C87.2783 63.0732 87.0537 63.013 86.8258 62.8926C86.5979 62.7689 86.4026 62.6077 86.2399 62.4092C85.8948 61.9958 85.7223 61.4814 85.7223 60.8662C85.7223 60.2477 85.9095 59.6846 86.2838 59.1768C86.6614 58.6689 87.179 58.415 87.8365 58.415C88.3086 58.415 88.6943 58.6266 88.9938 59.0498C89.2933 59.4697 89.443 59.8392 89.443 60.1582C89.443 60.2982 89.4088 60.3682 89.3405 60.3682H86.5084ZM86.5621 59.8994C86.5621 59.9613 86.5914 59.9922 86.65 59.9922H88.4908C88.5755 59.9922 88.6178 59.9417 88.6178 59.8408C88.6178 59.6064 88.512 59.3672 88.3004 59.123C88.0921 58.8757 87.8626 58.752 87.6119 58.752C87.3678 58.752 87.1448 58.8626 86.943 59.084C86.7444 59.3053 86.6175 59.5576 86.5621 59.8408V59.8994ZM94.7506 62.7559C94.9036 62.7754 94.9801 62.8145 94.9801 62.873C94.9801 62.9121 94.9638 62.9349 94.9313 62.9414H92.7535C92.721 62.9349 92.7047 62.9121 92.7047 62.873C92.7047 62.8145 92.7812 62.7754 92.9342 62.7559C93.2858 62.7038 93.4615 62.5182 93.4615 62.1992V56.1104C93.4615 55.9736 93.3867 55.8792 93.2369 55.8271C93.1718 55.8044 93.1018 55.7865 93.027 55.7734C92.9521 55.7572 92.8919 55.7425 92.8463 55.7295C92.804 55.7165 92.7763 55.7051 92.7633 55.6953C92.7535 55.6823 92.7487 55.6579 92.7487 55.6221C92.7487 55.583 92.7731 55.5505 92.8219 55.5244L94.067 54.9385C94.1061 54.9189 94.1305 54.9092 94.1403 54.9092C94.1956 54.9092 94.2233 54.9482 94.2233 55.0264V62.1992C94.2233 62.5182 94.399 62.7038 94.7506 62.7559ZM98.5153 62.1357C98.5153 62.2204 98.5543 62.2887 98.6324 62.3408C98.7138 62.3896 98.8066 62.4141 98.9108 62.4141C99.0149 62.4141 99.1012 62.388 99.1696 62.3359C99.2412 62.2806 99.29 62.2529 99.316 62.2529C99.3421 62.2529 99.3551 62.2887 99.3551 62.3604C99.3551 62.4287 99.3226 62.4873 99.2574 62.5361C98.7692 62.8942 98.4388 63.0732 98.2662 63.0732C98.0579 63.0732 97.8886 62.8568 97.7584 62.4238C97.7487 62.3913 97.7405 62.3766 97.734 62.3799C97.3304 62.6826 97.0765 62.8649 96.9723 62.9268C96.7054 63.0798 96.4368 63.1042 96.1666 63C95.8997 62.8958 95.706 62.7233 95.5856 62.4824C95.527 62.3587 95.4977 62.2269 95.4977 62.0869C95.4977 61.8102 95.6002 61.5905 95.8053 61.4277C96.0104 61.265 96.401 61.1087 96.9772 60.959C97.1725 60.9069 97.3466 60.8402 97.4996 60.7588C97.6526 60.6774 97.7324 60.6253 97.7389 60.6025C97.7487 60.5798 97.7535 60.5586 97.7535 60.5391V59.6016C97.7535 59.2337 97.6103 58.9749 97.3239 58.8252C97.2295 58.7764 97.1155 58.752 96.9821 58.752C96.8518 58.752 96.7184 58.804 96.5817 58.9082C96.4482 59.0124 96.3815 59.1605 96.3815 59.3525L96.4059 59.543C96.3864 59.582 96.2692 59.6471 96.0543 59.7383C95.8395 59.8294 95.7158 59.8783 95.6832 59.8848C95.6311 59.8848 95.6051 59.8229 95.6051 59.6992C95.6051 59.5723 95.6425 59.4323 95.7174 59.2793C95.7923 59.1263 95.8981 58.9863 96.0348 58.8594C96.3538 58.5632 96.7184 58.415 97.1285 58.415C97.5387 58.415 97.8724 58.529 98.1295 58.7568C98.3867 58.9814 98.5153 59.25 98.5153 59.5625V62.1357ZM96.2643 61.9941C96.2643 62.1504 96.3245 62.2871 96.4449 62.4043C96.5654 62.5182 96.7021 62.5752 96.8551 62.5752C97.0114 62.5752 97.2002 62.5101 97.4215 62.3799C97.6429 62.2464 97.7535 62.1097 97.7535 61.9697V60.9785C97.7535 60.9427 97.7454 60.9248 97.7291 60.9248C97.7128 60.9248 97.7015 60.9264 97.6949 60.9297L96.5621 61.457C96.4449 61.5417 96.3652 61.6133 96.3229 61.6719C96.2838 61.7305 96.2643 61.8379 96.2643 61.9941ZM102.402 62.9414C102.376 62.9414 102.363 62.9284 102.363 62.9023V62.7852C102.363 62.7591 102.376 62.7461 102.402 62.7461H102.519C102.799 62.7461 103.043 62.6875 103.252 62.5703C103.336 62.5215 103.406 62.4466 103.462 62.3457C103.517 62.2415 103.545 62.126 103.545 61.999V56.833C103.545 56.6312 103.414 56.4766 103.154 56.3691C102.972 56.291 102.778 56.252 102.573 56.252H102.465C102.439 56.252 102.426 56.2389 102.426 56.2129V56.0957C102.426 56.0697 102.439 56.0566 102.465 56.0566H105.771C105.797 56.0566 105.81 56.0697 105.81 56.0957V56.2129C105.81 56.2389 105.797 56.252 105.771 56.252H105.561C105.226 56.252 104.93 56.2992 104.672 56.3936C104.598 56.4196 104.549 56.4635 104.526 56.5254C104.506 56.584 104.497 56.6865 104.497 56.833V62.248C104.503 62.3034 104.533 62.3555 104.585 62.4043C104.637 62.4531 104.695 62.4775 104.76 62.4775H106.689C106.979 62.4775 107.264 62.3066 107.544 61.9648C107.618 61.8737 107.711 61.7533 107.822 61.6035C107.933 61.4505 108.001 61.3643 108.027 61.3447C108.131 61.2666 108.183 61.2682 108.183 61.3496C108.183 61.3691 108.178 61.3887 108.169 61.4082L107.431 62.8535C107.402 62.9121 107.368 62.9414 107.329 62.9414H102.402ZM113.33 58.5469C113.366 58.5566 113.383 58.5794 113.383 58.6152C113.383 58.651 113.38 58.6755 113.374 58.6885C113.367 58.6982 113.351 58.708 113.325 58.7178C113.302 58.7243 113.268 58.7308 113.222 58.7373C113.18 58.7438 113.112 58.7568 113.017 58.7764C112.923 58.7926 112.838 58.8577 112.763 58.9717C112.688 59.0856 112.609 59.2435 112.524 59.4453L110.229 65.1338L109.912 65.8076C109.83 65.9801 109.659 66.0664 109.399 66.0664C109.285 66.0664 109.194 66.029 109.126 65.9541C109.057 65.8792 109.023 65.7897 109.023 65.6855C109.023 65.5846 109.047 65.5098 109.096 65.4609C109.148 65.4154 109.209 65.3779 109.277 65.3486C109.345 65.3193 109.415 65.2917 109.487 65.2656C109.562 65.2428 109.645 65.1875 109.736 65.0996C109.827 65.015 109.881 64.9515 109.897 64.9092C110.444 63.6852 110.717 63.0456 110.717 62.9902C110.717 62.9349 110.685 62.8665 110.62 62.7852L109.008 59.4209C108.888 59.0921 108.681 58.8805 108.388 58.7861C108.366 58.7796 108.338 58.7747 108.305 58.7715C108.169 58.7585 108.1 58.7178 108.1 58.6494C108.1 58.5811 108.139 58.5469 108.217 58.5469H110.39C110.416 58.5469 110.429 58.5729 110.429 58.625C110.429 58.6738 110.407 58.708 110.361 58.7275C110.315 58.7438 110.214 58.752 110.058 58.752C109.808 58.752 109.682 58.8496 109.682 59.0449L109.726 59.1621L110.991 61.8721C111.056 62.0381 111.121 62.0332 111.186 61.8574C111.193 61.8411 111.233 61.7354 111.308 61.54C111.751 60.417 111.998 59.7676 112.05 59.5918C112.106 59.416 112.133 59.2842 112.133 59.1963C112.133 59.1084 112.086 59.0156 111.992 58.918C111.901 58.8203 111.774 58.7715 111.611 58.7715C111.451 58.7715 111.372 58.7243 111.372 58.6299C111.372 58.5745 111.408 58.5469 111.479 58.5469H113.33ZM116.816 59.4404C116.777 59.4339 116.72 59.4128 116.645 59.377C116.375 59.2533 116.163 59.1914 116.01 59.1914C115.857 59.1914 115.696 59.2874 115.527 59.4795C115.361 59.6683 115.278 59.8392 115.278 59.9922V62.1992C115.278 62.4434 115.42 62.6061 115.703 62.6875C115.826 62.7201 115.942 62.7445 116.049 62.7607C116.157 62.7738 116.225 62.7868 116.255 62.7998C116.287 62.8128 116.303 62.8389 116.303 62.8779C116.303 62.9137 116.287 62.9349 116.255 62.9414H113.808C113.776 62.9349 113.759 62.9121 113.759 62.873C113.759 62.8145 113.836 62.7754 113.989 62.7559C114.34 62.7038 114.516 62.5182 114.516 62.1992V59.6162C114.516 59.4795 114.441 59.3851 114.292 59.333C114.227 59.3102 114.157 59.2923 114.082 59.2793C114.007 59.263 113.947 59.2484 113.901 59.2354C113.859 59.2223 113.831 59.2109 113.818 59.2012C113.808 59.1882 113.803 59.1637 113.803 59.1279C113.803 59.0889 113.828 59.0563 113.877 59.0303L115.122 58.4443C115.161 58.4248 115.185 58.415 115.195 58.415C115.25 58.415 115.278 58.4541 115.278 58.5322V59.3232C115.278 59.3623 115.288 59.3818 115.307 59.3818C115.333 59.3818 115.4 59.3053 115.507 59.1523C115.817 58.7194 116.072 58.5029 116.274 58.5029C116.388 58.5029 116.562 58.5485 116.797 58.6396C117.034 58.7308 117.153 58.8073 117.153 58.8691C117.153 58.944 117.116 59.0579 117.041 59.2109C116.966 59.3639 116.891 59.4404 116.816 59.4404ZM118.286 60.3682C118.23 60.3682 118.203 60.487 118.203 60.7246C118.203 61.2292 118.352 61.6523 118.652 61.9941C118.951 62.3359 119.323 62.5068 119.765 62.5068C120.211 62.5068 120.639 62.3148 121.049 61.9307C121.056 61.9242 121.064 61.9209 121.074 61.9209H121.098C121.118 61.9209 121.136 61.9372 121.152 61.9697C121.172 61.999 121.189 62.0186 121.206 62.0283C120.828 62.4873 120.384 62.8047 119.873 62.9805C119.697 63.0423 119.498 63.0732 119.277 63.0732C119.056 63.0732 118.831 63.013 118.603 62.8926C118.375 62.7689 118.18 62.6077 118.017 62.4092C117.672 61.9958 117.5 61.4814 117.5 60.8662C117.5 60.2477 117.687 59.6846 118.061 59.1768C118.439 58.6689 118.956 58.415 119.614 58.415C120.086 58.415 120.472 58.6266 120.771 59.0498C121.071 59.4697 121.22 59.8392 121.22 60.1582C121.22 60.2982 121.186 60.3682 121.118 60.3682H118.286ZM118.339 59.8994C118.339 59.9613 118.369 59.9922 118.427 59.9922H120.268C120.353 59.9922 120.395 59.9417 120.395 59.8408C120.395 59.6064 120.289 59.3672 120.078 59.123C119.869 58.8757 119.64 58.752 119.389 58.752C119.145 58.752 118.922 58.8626 118.72 59.084C118.522 59.3053 118.395 59.5576 118.339 59.8408V59.8994ZM122.334 62.4531C122.334 62.2773 122.395 62.126 122.519 61.999C122.643 61.8688 122.793 61.8037 122.968 61.8037C123.141 61.8037 123.289 61.8672 123.413 61.9941C123.54 62.1178 123.603 62.2692 123.603 62.4482C123.603 62.6273 123.541 62.777 123.418 62.8975C123.294 63.0146 123.144 63.0732 122.968 63.0732C122.796 63.0732 122.646 63.013 122.519 62.8926C122.395 62.7721 122.334 62.6257 122.334 62.4531Z" fill="#EFB85F"/>
<path d="M17.5002 10L18.696 11.9748L21 13L18.696 14.0249L17.5002 16L16.304 14.0249L14 13L16.304 11.9748L17.5002 10Z" fill="#EFB85F"/>
<path d="M17.5002 86L18.696 87.9748L21 89L18.696 90.0249L17.5002 92L16.304 90.0249L14 89L16.304 87.9748L17.5002 86Z" fill="#EFB85F"/>
<path d="M124.5 84L125.696 85.9748L128 87L125.696 88.0249L124.5 90L123.304 88.0249L121 87L123.304 85.9748L124.5 84Z" fill="#EFB85F"/>
<path d="M80.5002 90L81.696 91.9748L84 93L81.696 94.0249L80.5002 96L79.304 94.0249L77 93L79.304 91.9748L80.5002 90Z" fill="#EFB85F"/>
<path d="M120.5 7L121.696 8.97475L124 10L121.696 11.0249L120.5 13L119.304 11.0249L117 10L119.304 8.97475L120.5 7Z" fill="#EFB85F"/>
<path d="M95.125 16.6259C95.1509 16.3615 95.1942 15.7335 95.2288 15.2377C95.2634 14.6647 95.324 14.3011 95.3932 14.2681C95.4538 14.235 95.7307 14.4113 95.999 14.6537C96.2759 14.9071 96.5182 15.0834 96.5441 15.0504C96.5615 15.0283 96.397 14.6757 96.1807 14.2791C95.9038 13.7943 95.8086 13.5519 95.8865 13.5189C95.9471 13.4968 96.3884 13.4197 96.8643 13.3426C98.3873 13.1222 98.3787 13.001 96.8384 12.7917C96.3019 12.7145 95.8519 12.6154 95.8346 12.5823C95.8086 12.5382 95.973 12.2187 96.1807 11.8661C96.3884 11.5025 96.5441 11.183 96.5182 11.15C96.4922 11.1279 96.2326 11.3152 95.9471 11.5687C95.6528 11.8331 95.3932 11.9984 95.3586 11.9543C95.3154 11.8992 95.2461 11.2381 95.1856 10.4779C95.0298 8.49462 94.9606 8.50564 94.7962 10.5219C94.7356 11.2822 94.6664 11.9433 94.6317 11.9763C94.6058 12.0094 94.3462 11.8331 94.052 11.5797C93.7664 11.3152 93.5155 11.1279 93.4895 11.161C93.4722 11.183 93.602 11.4805 93.7924 11.8111C93.9827 12.1306 94.1385 12.4611 94.1385 12.5272C94.1385 12.6044 93.7664 12.7035 93.1607 12.7917C91.6117 13.001 91.6117 13.1222 93.1693 13.3536C93.7577 13.4417 94.1385 13.5519 94.1385 13.618C94.1385 13.6841 93.9827 14.0147 93.7924 14.3342C93.3857 15.0283 93.351 15.2046 93.6799 14.9292C93.8183 14.83 94.0693 14.6096 94.251 14.4554C94.6664 14.1138 94.701 14.1689 94.7789 15.3589C94.8913 17.1107 95.0211 17.5735 95.125 16.6259Z" fill="#EFB85F"/>
<path d="M39.125 89.6259C39.1509 89.3615 39.1942 88.7335 39.2288 88.2377C39.2634 87.6647 39.324 87.3011 39.3932 87.2681C39.4538 87.235 39.7307 87.4113 39.999 87.6537C40.2759 87.9071 40.5182 88.0834 40.5441 88.0504C40.5615 88.0283 40.397 87.6757 40.1807 87.2791C39.9038 86.7943 39.8086 86.5519 39.8865 86.5189C39.9471 86.4968 40.3884 86.4197 40.8643 86.3426C42.3873 86.1222 42.3787 86.001 40.8384 85.7917C40.3019 85.7145 39.8519 85.6154 39.8346 85.5823C39.8086 85.5382 39.973 85.2187 40.1807 84.8661C40.3884 84.5025 40.5441 84.183 40.5182 84.15C40.4922 84.1279 40.2326 84.3152 39.9471 84.5687C39.6528 84.8331 39.3932 84.9984 39.3586 84.9543C39.3154 84.8992 39.2461 84.2381 39.1856 83.4779C39.0298 81.4946 38.9606 81.5056 38.7962 83.5219C38.7356 84.2822 38.6664 84.9433 38.6317 84.9763C38.6058 85.0094 38.3462 84.8331 38.052 84.5797C37.7664 84.3152 37.5155 84.1279 37.4895 84.161C37.4722 84.183 37.602 84.4805 37.7924 84.8111C37.9827 85.1306 38.1385 85.4611 38.1385 85.5272C38.1385 85.6044 37.7664 85.7035 37.1607 85.7917C35.6117 86.001 35.6117 86.1222 37.1693 86.3536C37.7577 86.4417 38.1385 86.5519 38.1385 86.618C38.1385 86.6841 37.9827 87.0147 37.7924 87.3342C37.3857 88.0283 37.351 88.2046 37.6799 87.9292C37.8183 87.83 38.0693 87.6096 38.251 87.4554C38.6664 87.1138 38.701 87.1689 38.7789 88.3589C38.8913 90.1107 39.0211 90.5735 39.125 89.6259Z" fill="#EFB85F"/>
<path d="M110.125 99.6259C110.151 99.3615 110.194 98.7335 110.229 98.2377C110.263 97.6647 110.324 97.3011 110.393 97.2681C110.454 97.235 110.731 97.4113 110.999 97.6537C111.276 97.9071 111.518 98.0834 111.544 98.0504C111.561 98.0283 111.397 97.6757 111.181 97.2791C110.904 96.7943 110.809 96.5519 110.886 96.5189C110.947 96.4968 111.388 96.4197 111.864 96.3426C113.387 96.1222 113.379 96.001 111.838 95.7917C111.302 95.7145 110.852 95.6154 110.835 95.5823C110.809 95.5382 110.973 95.2187 111.181 94.8661C111.388 94.5025 111.544 94.183 111.518 94.15C111.492 94.1279 111.233 94.3152 110.947 94.5687C110.653 94.8331 110.393 94.9984 110.359 94.9543C110.315 94.8992 110.246 94.2381 110.186 93.4779C110.03 91.4946 109.961 91.5056 109.796 93.5219C109.736 94.2822 109.666 94.9433 109.632 94.9763C109.606 95.0094 109.346 94.8331 109.052 94.5797C108.766 94.3152 108.515 94.1279 108.489 94.161C108.472 94.183 108.602 94.4805 108.792 94.8111C108.983 95.1306 109.138 95.4611 109.138 95.5272C109.138 95.6044 108.766 95.7035 108.161 95.7917C106.612 96.001 106.612 96.1222 108.169 96.3536C108.758 96.4417 109.138 96.5519 109.138 96.618C109.138 96.6841 108.983 97.0147 108.792 97.3342C108.386 98.0283 108.351 98.2046 108.68 97.9292C108.818 97.83 109.069 97.6096 109.251 97.4554C109.666 97.1138 109.701 97.1689 109.779 98.3589C109.891 100.111 110.021 100.573 110.125 99.6259Z" fill="#EFB85F"/>
<path d="M53.125 12.6259C53.1509 12.3615 53.1942 11.7335 53.2288 11.2377C53.2634 10.6647 53.324 10.3011 53.3932 10.2681C53.4538 10.235 53.7307 10.4113 53.999 10.6537C54.2759 10.9071 54.5182 11.0834 54.5441 11.0504C54.5615 11.0283 54.397 10.6757 54.1807 10.2791C53.9038 9.7943 53.8086 9.55191 53.8865 9.51885C53.9471 9.49682 54.3884 9.41969 54.8643 9.34256C56.3873 9.1222 56.3787 9.001 54.8384 8.79166C54.3019 8.71453 53.8519 8.61537 53.8346 8.58232C53.8086 8.53825 53.973 8.21872 54.1807 7.86614C54.3884 7.50255 54.5441 7.18302 54.5182 7.14997C54.4922 7.12793 54.2326 7.31524 53.9471 7.56866C53.6528 7.83309 53.3932 7.99836 53.3586 7.95429C53.3154 7.8992 53.2461 7.23811 53.1856 6.47787C53.0298 4.49462 52.9606 4.50564 52.7962 6.52194C52.7356 7.28219 52.6664 7.94327 52.6317 7.97632C52.6058 8.00938 52.3462 7.83309 52.052 7.57967C51.7664 7.31524 51.5155 7.12793 51.4895 7.16099C51.4722 7.18302 51.602 7.48051 51.7924 7.81105C51.9827 8.13058 52.1385 8.46112 52.1385 8.52723C52.1385 8.60435 51.7664 8.70352 51.1607 8.79166C49.6117 9.001 49.6117 9.1222 51.1693 9.35358C51.7577 9.44173 52.1385 9.55191 52.1385 9.61802C52.1385 9.68412 51.9827 10.0147 51.7924 10.3342C51.3857 11.0283 51.351 11.2046 51.6799 10.9292C51.8183 10.83 52.0693 10.6096 52.251 10.4554C52.6664 10.1138 52.701 10.1689 52.7789 11.3589C52.8913 13.1107 53.0211 13.5735 53.125 12.6259Z" fill="#EFB85F"/>
<circle cx="26" cy="81" r="1" fill="#EFB85F"/>
<circle cx="57" cy="96" r="1" fill="#EFB85F"/>
<circle cx="111" cy="84" r="1" fill="#EFB85F"/>
<circle cx="139" cy="16" r="1" fill="#EFB85F"/>
<circle cx="143" cy="55" r="1" fill="#EFB85F"/>
<circle cx="139" cy="93" r="1" fill="#EFB85F"/>
<circle cx="36" cy="10" r="1" fill="#EFB85F"/>
<circle cx="75" cy="6" r="1" fill="#EFB85F"/>
<path d="M30.1536 96.762L33.0001 96.6487L30.1536 96.5354L31.0464 95.3761L30.0932 96.4619L30 93L29.9069 96.4619L28.9537 95.3761L29.8465 96.5354L27 96.6487L29.8465 96.762L28.9537 97.9212L29.9069 96.8354L30 100.297L30.0932 96.8354L31.0464 97.9212L30.1536 96.762Z" fill="#EFB85F"/>
<path d="M11.1536 76.762L14.0001 76.6487L11.1536 76.5354L12.0464 75.3761L11.0932 76.4619L11 73L10.9069 76.4619L9.95375 75.3761L10.8465 76.5354L8 76.6487L10.8465 76.762L9.95375 77.9212L10.9069 76.8354L11 80.2973L11.0932 76.8354L12.0464 77.9212L11.1536 76.762Z" fill="#EFB85F"/>
<path d="M68.1536 11.762L71.0001 11.6487L68.1536 11.5354L69.0464 10.3761L68.0932 11.4619L68 8L67.9069 11.4619L66.9537 10.3761L67.8465 11.5354L65 11.6487L67.8465 11.762L66.9537 12.9212L67.9069 11.8354L68 15.2973L68.0932 11.8354L69.0464 12.9212L68.1536 11.762Z" fill="#EFB85F"/>
<path d="M137.154 76.762L140 76.6487L137.154 76.5354L138.046 75.3761L137.093 76.4619L137 73L136.907 76.4619L135.954 75.3761L136.847 76.5354L134 76.6487L136.847 76.762L135.954 77.9212L136.907 76.8354L137 80.2973L137.093 76.8354L138.046 77.9212L137.154 76.762Z" fill="#EFB85F"/>
<path d="M129.154 95.762L132 95.6487L129.154 95.5354L130.046 94.3761L129.093 95.4619L129 92L128.907 95.4619L127.954 94.3761L128.847 95.5354L126 95.6487L128.847 95.762L127.954 96.9212L128.907 95.8354L129 99.2973L129.093 95.8354L130.046 96.9212L129.154 95.762Z" fill="#EFB85F"/>
<path d="M8.15357 18.762L11.0001 18.6487L8.15357 18.5354L9.04635 17.3761L8.09316 18.4619L8.00005 15L7.90694 18.4619L6.95375 17.3761L7.84653 18.5354L5 18.6487L7.84653 18.762L6.95375 19.9212L7.90694 18.8354L8.00005 22.2973L8.09316 18.8354L9.04635 19.9212L8.15357 18.762Z" fill="#EFB85F"/>
</svg>
