<svg width="148" height="105" viewBox="0 0 148 105" fill="none" xmlns="http://www.w3.org/2000/svg">
<rect width="147.402" height="104.882" rx="10" fill="black"/>
<path d="M28.9156 41.9409C28.8896 41.9409 28.8766 41.9279 28.8766 41.9019V41.7847C28.8766 41.7586 28.8896 41.7456 28.9156 41.7456H29.0328C29.3128 41.7456 29.5569 41.687 29.7653 41.5698C29.8499 41.521 29.9199 41.4461 29.9752 41.3452C30.0306 41.241 30.0582 41.1255 30.0582 40.9985V35.8325C30.0582 35.6307 29.928 35.4761 29.6676 35.3687C29.4853 35.2905 29.2916 35.2515 29.0865 35.2515H28.9791C28.9531 35.2515 28.9401 35.2384 28.9401 35.2124V35.0952C28.9401 35.0692 28.9531 35.0562 28.9791 35.0562H32.2848C32.3108 35.0562 32.3239 35.0692 32.3239 35.0952V35.2124C32.3239 35.2384 32.3108 35.2515 32.2848 35.2515H32.0748C31.7395 35.2515 31.4433 35.2987 31.1862 35.3931C31.1113 35.4191 31.0625 35.4631 31.0397 35.5249C31.0201 35.5835 31.0104 35.686 31.0104 35.8325V41.2476C31.0169 41.3029 31.0462 41.355 31.0983 41.4038C31.1503 41.4526 31.2089 41.4771 31.274 41.4771H33.2028C33.4925 41.4771 33.7773 41.3062 34.0573 40.9644C34.1321 40.8732 34.2249 40.7528 34.3356 40.603C34.4462 40.45 34.5146 40.3638 34.5406 40.3442C34.6448 40.2661 34.6969 40.2677 34.6969 40.3491C34.6969 40.3687 34.692 40.3882 34.6823 40.4077L33.9449 41.853C33.9156 41.9116 33.8815 41.9409 33.8424 41.9409H28.9156ZM35.8639 39.3677C35.8086 39.3677 35.7809 39.4865 35.7809 39.7241C35.7809 40.2287 35.9306 40.6519 36.2301 40.9937C36.5296 41.3354 36.9007 41.5063 37.3434 41.5063C37.7893 41.5063 38.2174 41.3143 38.6276 40.9302C38.6341 40.9237 38.6422 40.9204 38.652 40.9204H38.6764C38.6959 40.9204 38.7138 40.9367 38.7301 40.9692C38.7496 40.9985 38.7675 41.0181 38.7838 41.0278C38.4062 41.4868 37.9619 41.8042 37.4508 41.98C37.275 42.0418 37.0765 42.0728 36.8551 42.0728C36.6337 42.0728 36.4091 42.0125 36.1813 41.8921C35.9534 41.7684 35.7581 41.6073 35.5953 41.4087C35.2503 40.9953 35.0778 40.481 35.0778 39.8657C35.0778 39.2472 35.2649 38.6841 35.6393 38.1763C36.0169 37.6685 36.5345 37.4146 37.192 37.4146C37.664 37.4146 38.0498 37.6261 38.3492 38.0493C38.6487 38.4692 38.7985 38.8387 38.7985 39.1577C38.7985 39.2977 38.7643 39.3677 38.6959 39.3677H35.8639ZM35.9176 38.8989C35.9176 38.9608 35.9469 38.9917 36.0055 38.9917H37.8463C37.9309 38.9917 37.9733 38.9412 37.9733 38.8403C37.9733 38.606 37.8675 38.3667 37.6559 38.1226C37.4476 37.8752 37.2181 37.7515 36.9674 37.7515C36.7233 37.7515 36.5003 37.8621 36.2985 38.0835C36.0999 38.3049 35.9729 38.5571 35.9176 38.8403V38.8989ZM41.9869 38.6011C41.9869 38.6727 41.9593 38.7085 41.9039 38.7085C41.8518 38.7085 41.8112 38.6694 41.7819 38.5913C41.7037 38.3765 41.5865 38.186 41.4303 38.02C41.2773 37.854 41.0869 37.771 40.859 37.771C40.5595 37.771 40.3577 37.9207 40.2535 38.2202C40.221 38.3211 40.2047 38.4253 40.2047 38.5327C40.2047 38.6401 40.2731 38.7606 40.4098 38.894C40.5465 39.0243 40.7711 39.1805 41.0836 39.3628C41.3961 39.5451 41.624 39.6997 41.7672 39.8267C42.0927 40.1164 42.2555 40.4517 42.2555 40.8325C42.2555 41.2134 42.1155 41.5161 41.8356 41.7407C41.5556 41.9621 41.2301 42.0728 40.859 42.0728C40.6604 42.0728 40.4798 42.0451 40.317 41.9897C40.1575 41.9377 40.0647 41.9116 40.0387 41.9116C40.0159 41.9116 39.9768 41.9377 39.9215 41.9897C39.8694 42.0451 39.8271 42.0728 39.7946 42.0728H39.7115C39.692 42.0728 39.6676 41.897 39.6383 41.5454C39.609 41.1938 39.5944 40.9855 39.5944 40.9204C39.5944 40.8553 39.5992 40.8195 39.609 40.813C39.622 40.8065 39.6416 40.8032 39.6676 40.8032C39.6936 40.8032 39.7148 40.8114 39.7311 40.8276C39.7506 40.8439 39.7669 40.8651 39.7799 40.8911C39.7929 40.9139 39.8027 40.9383 39.8092 40.9644C39.819 40.9904 39.8401 41.0392 39.8727 41.1108C40.094 41.5828 40.4358 41.8188 40.8981 41.8188C41.1031 41.8188 41.2675 41.744 41.3912 41.5942C41.5149 41.4412 41.5768 41.272 41.5768 41.0864C41.5768 40.9009 41.528 40.7446 41.4303 40.6177C41.3326 40.4907 41.2106 40.3752 41.0641 40.271C40.9209 40.1668 40.7646 40.0659 40.5953 39.9683C39.9378 39.5841 39.609 39.1593 39.609 38.6938C39.609 38.3455 39.7587 38.0461 40.0582 37.7954C40.3577 37.5415 40.6653 37.4146 40.9811 37.4146C41.2968 37.4146 41.5296 37.4487 41.6793 37.5171C41.8323 37.5854 41.9218 37.644 41.9479 37.6929C41.9739 37.7384 41.9869 37.8914 41.9869 38.1519V38.6011ZM49.3307 41.4282C48.8815 41.8579 48.3769 42.0728 47.817 42.0728C47.6152 42.0728 47.3401 42.0353 46.9918 41.9604C46.9365 41.9604 46.9056 41.98 46.899 42.019C46.8958 42.0581 46.8925 42.0988 46.8893 42.1411V44.2261C46.8893 44.4702 47.0309 44.633 47.3141 44.7144C47.4378 44.7469 47.5533 44.7697 47.6608 44.7827C47.7682 44.799 47.8365 44.8136 47.8658 44.8267C47.8984 44.8397 47.9147 44.8641 47.9147 44.8999C47.9147 44.939 47.8984 44.9618 47.8658 44.9683H45.4196C45.387 44.9618 45.3707 44.939 45.3707 44.8999C45.3707 44.8413 45.4472 44.8022 45.6002 44.7827C45.9518 44.7306 46.1276 44.5451 46.1276 44.2261V38.3716C46.1276 38.2349 46.0527 38.1405 45.903 38.0884C45.8378 38.0656 45.7679 38.0477 45.693 38.0347C45.6181 38.0184 45.5579 38.0037 45.5123 37.9907C45.47 37.9777 45.4423 37.9663 45.4293 37.9565C45.4196 37.9435 45.4147 37.9191 45.4147 37.8833C45.4147 37.8442 45.4391 37.8117 45.4879 37.7856L46.733 37.1899C46.7591 37.1769 46.7851 37.1704 46.8112 37.1704C46.8632 37.1704 46.8893 37.2095 46.8893 37.2876V37.9077C46.8893 37.9435 46.9072 37.9614 46.943 37.9614C46.9821 37.9614 47.0732 37.9142 47.2164 37.8198C47.6298 37.5529 48.0595 37.4194 48.5055 37.4194C48.818 37.4194 49.1045 37.5464 49.3649 37.8003C49.7067 38.1323 49.9345 38.5946 50.0485 39.187C50.081 39.3563 50.0973 39.5369 50.0973 39.729C50.0973 39.9178 50.0664 40.118 50.0045 40.3296C49.8808 40.7495 49.6562 41.1157 49.3307 41.4282ZM47.9342 37.9272C47.4915 37.9272 47.1432 38.0542 46.8893 38.3081V41.0522C46.8893 41.215 46.917 41.3208 46.9723 41.3696C47.1155 41.4933 47.3352 41.5894 47.6315 41.6577C48.2174 41.7912 48.6731 41.6512 48.9987 41.2378C49.2298 40.9416 49.3453 40.5835 49.3453 40.1636C49.3453 39.3465 49.1614 38.7345 48.7936 38.3276C48.5722 38.0802 48.2858 37.9468 47.9342 37.9272ZM51.0006 39.7485C51.0006 39.1073 51.2268 38.5571 51.6793 38.0981C52.1351 37.6359 52.6803 37.4048 53.3151 37.4048C53.9498 37.4048 54.5016 37.6294 54.9703 38.0786C55.4391 38.5246 55.6735 39.0763 55.6735 39.7339C55.6735 40.3914 55.4505 40.9465 55.0045 41.3989C54.5618 41.8481 54.0052 42.0728 53.3346 42.0728C52.664 42.0728 52.1074 41.8449 51.6647 41.3892C51.222 40.9334 51.0006 40.3866 51.0006 39.7485ZM52.2164 41.0034C52.5354 41.5405 52.97 41.8091 53.5201 41.8091C53.9466 41.8091 54.2721 41.6382 54.4967 41.2964C54.7246 40.9546 54.8385 40.5347 54.8385 40.0366C54.8385 39.5386 54.679 39.0275 54.36 38.5034C54.0442 37.9793 53.6178 37.7173 53.0807 37.7173C52.6868 37.7173 52.3759 37.8882 52.1481 38.23C51.9235 38.5685 51.8112 38.9998 51.8112 39.5239C51.8112 40.0448 51.9462 40.5379 52.2164 41.0034ZM56.3864 41.9409C56.3538 41.9344 56.3375 41.9116 56.3375 41.8726C56.3375 41.814 56.414 41.7749 56.567 41.7554C56.9186 41.7033 57.0944 41.5177 57.0944 41.1987V38.6157C57.0944 38.479 57.0195 38.3846 56.8698 38.3325C56.8046 38.3097 56.7347 38.2918 56.6598 38.2788C56.5849 38.2625 56.5247 38.2479 56.4791 38.2349C56.4368 38.2218 56.4091 38.2104 56.3961 38.2007C56.3864 38.1877 56.3815 38.1632 56.3815 38.1274C56.3815 38.0884 56.4059 38.0558 56.4547 38.0298L57.6998 37.4438C57.7389 37.4243 57.7633 37.4146 57.7731 37.4146C57.8284 37.4146 57.8561 37.4536 57.8561 37.5317V41.1987C57.8561 41.5177 58.0319 41.7033 58.3834 41.7554C58.5364 41.7749 58.6129 41.8091 58.6129 41.8579C58.6129 41.9067 58.5966 41.9344 58.5641 41.9409H56.3864ZM57.402 36.0425C57.2685 36.0425 57.1497 36.0002 57.0455 35.9155C56.9446 35.8309 56.8942 35.7137 56.8942 35.564C56.8942 35.411 56.943 35.2905 57.0406 35.2026C57.1383 35.1147 57.2539 35.0708 57.3873 35.0708C57.524 35.0708 57.638 35.1229 57.7291 35.2271C57.8235 35.3312 57.8707 35.4435 57.8707 35.564C57.8707 35.6844 57.8268 35.7951 57.7389 35.896C57.651 35.9937 57.5387 36.0425 57.402 36.0425ZM62.7828 40.4028L62.7731 39.3726C62.7731 38.9526 62.7373 38.658 62.6656 38.4888C62.594 38.3195 62.5029 38.1925 62.3922 38.1079C62.2815 38.02 62.1318 37.9761 61.943 37.9761C61.7574 37.9761 61.3619 38.1226 60.7565 38.4155C60.6751 38.4644 60.6328 38.5099 60.6295 38.5522V41.1792C60.6295 41.508 60.8053 41.6968 61.1569 41.7456C61.3099 41.7684 61.3864 41.8058 61.3864 41.8579C61.3864 41.9067 61.3701 41.9344 61.3375 41.9409H59.1598C59.1272 41.9344 59.111 41.9116 59.111 41.8726C59.111 41.8107 59.1875 41.7684 59.3405 41.7456C59.692 41.6968 59.8678 41.508 59.8678 41.1792V38.3765C59.8678 38.2397 59.7929 38.1453 59.6432 38.0933C59.5781 38.0705 59.5081 38.0526 59.4332 38.0396C59.3584 38.0233 59.2981 38.0086 59.2526 37.9956C59.2102 37.9826 59.1826 37.9712 59.1696 37.9614C59.1598 37.9484 59.1549 37.924 59.1549 37.8882C59.1549 37.8491 59.1793 37.8166 59.2281 37.7905L60.4733 37.2046C60.5123 37.1851 60.5367 37.1753 60.5465 37.1753C60.6018 37.1753 60.6295 37.2144 60.6295 37.2925V38.0542C60.6393 38.0868 60.6523 38.103 60.6686 38.103C60.6881 38.103 60.7581 38.0737 60.8785 38.0151C61.1585 37.8752 61.4401 37.7401 61.7233 37.6099C62.0065 37.4797 62.2408 37.4146 62.4264 37.4146C63.1783 37.4146 63.5543 38.0998 63.5543 39.4702L63.5104 40.896V41.1792C63.5104 41.4331 63.6373 41.5991 63.8912 41.6772C63.9987 41.7131 64.1012 41.7391 64.1989 41.7554C64.2998 41.7684 64.3649 41.7814 64.3942 41.7944C64.4267 41.8075 64.443 41.8335 64.443 41.8726C64.443 41.9116 64.4267 41.9344 64.3942 41.9409H62.0406C62.0081 41.9344 61.9918 41.9116 61.9918 41.8726C61.9918 41.8107 62.0683 41.7684 62.2213 41.7456C62.5696 41.6968 62.7438 41.495 62.7438 41.1401C62.7698 40.9774 62.7828 40.7316 62.7828 40.4028ZM66.069 38.186C66.0494 38.186 66.0397 38.2007 66.0397 38.23V40.9253C66.0397 41.1206 66.082 41.2736 66.1666 41.3843C66.2545 41.495 66.3652 41.5503 66.4987 41.5503C66.6321 41.5503 66.7477 41.5291 66.8453 41.4868C66.9462 41.4412 67.0325 41.3924 67.1041 41.3403C67.179 41.2882 67.2457 41.241 67.3043 41.1987C67.3629 41.1532 67.415 41.1304 67.4606 41.1304C67.5061 41.1304 67.5289 41.1418 67.5289 41.1646C67.5289 41.2427 67.5208 41.2931 67.5045 41.3159C67.1139 41.8205 66.7363 42.0728 66.3717 42.0728C66.0104 42.0728 65.7369 41.9588 65.5514 41.731C65.3691 41.4998 65.278 41.2248 65.278 40.9058V38.186H64.9117C64.8206 38.186 64.7718 38.1567 64.7653 38.0981C64.762 38.0396 64.7718 38.0021 64.7946 37.9858C64.9671 37.8752 65.2047 37.6766 65.5074 37.3901C65.54 37.3543 65.5839 37.3006 65.6393 37.229C65.6946 37.1574 65.7744 37.0597 65.8785 36.936C65.986 36.8123 66.0673 36.7505 66.1227 36.7505C66.178 36.7505 66.2057 36.7733 66.2057 36.8188C66.2057 36.8254 66.1503 37.0386 66.0397 37.4585C66.0397 37.5171 66.0657 37.548 66.1178 37.5513H67.3629C67.5061 37.5513 67.5778 37.7531 67.5778 38.1567C67.5778 38.1763 67.5647 38.186 67.5387 38.186H66.069ZM70.4147 38.6011C70.4147 38.6727 70.387 38.7085 70.3317 38.7085C70.2796 38.7085 70.2389 38.6694 70.2096 38.5913C70.1315 38.3765 70.0143 38.186 69.858 38.02C69.705 37.854 69.5146 37.771 69.2867 37.771C68.9873 37.771 68.7854 37.9207 68.6813 38.2202C68.6487 38.3211 68.6324 38.4253 68.6324 38.5327C68.6324 38.6401 68.7008 38.7606 68.8375 38.894C68.9742 39.0243 69.1989 39.1805 69.5114 39.3628C69.8239 39.5451 70.0517 39.6997 70.1949 39.8267C70.5205 40.1164 70.6832 40.4517 70.6832 40.8325C70.6832 41.2134 70.5433 41.5161 70.2633 41.7407C69.9834 41.9621 69.6578 42.0728 69.2867 42.0728C69.0882 42.0728 68.9075 42.0451 68.7448 41.9897C68.5852 41.9377 68.4925 41.9116 68.4664 41.9116C68.4436 41.9116 68.4046 41.9377 68.3492 41.9897C68.2972 42.0451 68.2548 42.0728 68.2223 42.0728H68.1393C68.1198 42.0728 68.0953 41.897 68.066 41.5454C68.0367 41.1938 68.0221 40.9855 68.0221 40.9204C68.0221 40.8553 68.027 40.8195 68.0367 40.813C68.0498 40.8065 68.0693 40.8032 68.0953 40.8032C68.1214 40.8032 68.1425 40.8114 68.1588 40.8276C68.1783 40.8439 68.1946 40.8651 68.2076 40.8911C68.2207 40.9139 68.2304 40.9383 68.2369 40.9644C68.2467 40.9904 68.2679 41.0392 68.3004 41.1108C68.5218 41.5828 68.8636 41.8188 69.3258 41.8188C69.5309 41.8188 69.6953 41.744 69.819 41.5942C69.9427 41.4412 70.0045 41.272 70.0045 41.0864C70.0045 40.9009 69.9557 40.7446 69.858 40.6177C69.7604 40.4907 69.6383 40.3752 69.4918 40.271C69.3486 40.1668 69.1923 40.0659 69.0231 39.9683C68.3655 39.5841 68.0367 39.1593 68.0367 38.6938C68.0367 38.3455 68.1865 38.0461 68.486 37.7954C68.7854 37.5415 69.0931 37.4146 69.4088 37.4146C69.7246 37.4146 69.9573 37.4487 70.1071 37.5171C70.2601 37.5854 70.3496 37.644 70.3756 37.6929C70.4017 37.7384 70.4147 37.8914 70.4147 38.1519V38.6011ZM76.4498 38.6011C76.4498 38.6727 76.4222 38.7085 76.3668 38.7085C76.3147 38.7085 76.274 38.6694 76.2448 38.5913C76.1666 38.3765 76.0494 38.186 75.8932 38.02C75.7402 37.854 75.5498 37.771 75.3219 37.771C75.0224 37.771 74.8206 37.9207 74.7164 38.2202C74.6839 38.3211 74.6676 38.4253 74.6676 38.5327C74.6676 38.6401 74.736 38.7606 74.8727 38.894C75.0094 39.0243 75.234 39.1805 75.5465 39.3628C75.859 39.5451 76.0869 39.6997 76.2301 39.8267C76.5556 40.1164 76.7184 40.4517 76.7184 40.8325C76.7184 41.2134 76.5784 41.5161 76.2985 41.7407C76.0185 41.9621 75.693 42.0728 75.3219 42.0728C75.1233 42.0728 74.9427 42.0451 74.7799 41.9897C74.6204 41.9377 74.5276 41.9116 74.5016 41.9116C74.4788 41.9116 74.4397 41.9377 74.3844 41.9897C74.3323 42.0451 74.29 42.0728 74.2574 42.0728H74.1744C74.1549 42.0728 74.1305 41.897 74.1012 41.5454C74.0719 41.1938 74.0573 40.9855 74.0573 40.9204C74.0573 40.8553 74.0621 40.8195 74.0719 40.813C74.0849 40.8065 74.1045 40.8032 74.1305 40.8032C74.1565 40.8032 74.1777 40.8114 74.194 40.8276C74.2135 40.8439 74.2298 40.8651 74.2428 40.8911C74.2558 40.9139 74.2656 40.9383 74.2721 40.9644C74.2819 40.9904 74.303 41.0392 74.3356 41.1108C74.5569 41.5828 74.8987 41.8188 75.361 41.8188C75.566 41.8188 75.7304 41.744 75.8541 41.5942C75.9778 41.4412 76.0397 41.272 76.0397 41.0864C76.0397 40.9009 75.9908 40.7446 75.8932 40.6177C75.7955 40.4907 75.6735 40.3752 75.527 40.271C75.3837 40.1668 75.2275 40.0659 75.0582 39.9683C74.4007 39.5841 74.0719 39.1593 74.0719 38.6938C74.0719 38.3455 74.2216 38.0461 74.5211 37.7954C74.8206 37.5415 75.1282 37.4146 75.444 37.4146C75.7597 37.4146 75.9925 37.4487 76.1422 37.5171C76.2952 37.5854 76.3847 37.644 76.4108 37.6929C76.4368 37.7384 76.4498 37.8914 76.4498 38.1519V38.6011ZM80.7711 41.5112C80.7548 41.4559 80.7337 41.438 80.7076 41.4575C80.6816 41.4738 80.5758 41.5291 80.3903 41.6235C79.7815 41.9263 79.2737 42.0776 78.8668 42.0776C78.4599 42.0776 78.167 41.9474 77.9879 41.687C77.9228 41.5894 77.8903 41.4689 77.8903 41.3257V38.3472C77.8805 38.2528 77.8382 38.1714 77.7633 38.103C77.6624 38.0184 77.5566 37.9728 77.4459 37.9663C77.3385 37.9598 77.2848 37.9272 77.2848 37.8687C77.2848 37.8068 77.3108 37.7694 77.3629 37.7563L78.4811 37.4341C78.5201 37.4211 78.5576 37.4146 78.5934 37.4146C78.6324 37.4146 78.652 37.4422 78.652 37.4976V40.7739C78.652 41.0018 78.7529 41.1776 78.9547 41.3013C79.1565 41.425 79.4137 41.4868 79.7262 41.4868C80.042 41.4868 80.3252 41.3908 80.5758 41.1987C80.6539 41.1369 80.719 41.0685 80.7711 40.9937V38.3472C80.7614 38.2528 80.719 38.1714 80.6442 38.103C80.5433 38.0184 80.4375 37.9728 80.3268 37.9663C80.2194 37.9598 80.1656 37.9272 80.1656 37.8687C80.1656 37.8068 80.1917 37.7694 80.2438 37.7563L81.3619 37.4341C81.401 37.4211 81.4384 37.4146 81.4742 37.4146C81.5133 37.4146 81.5328 37.4471 81.5328 37.5122V40.979C81.5491 41.1222 81.5898 41.2248 81.6549 41.2866C81.72 41.3485 81.8258 41.3794 81.9723 41.3794L82.2555 41.3599C82.275 41.3599 82.2848 41.3794 82.2848 41.4185C82.2848 41.4543 82.2604 41.4836 82.2115 41.5063L80.9127 42.0435C80.8737 42.063 80.8395 42.0728 80.8102 42.0728C80.7841 42.0728 80.7711 42.0321 80.7711 41.9507V41.5112ZM85.8883 38.4399C85.8492 38.4334 85.7923 38.4123 85.7174 38.3765C85.4472 38.2528 85.2356 38.1909 85.0826 38.1909C84.9296 38.1909 84.7685 38.2869 84.5992 38.479C84.4332 38.6678 84.3502 38.8387 84.3502 38.9917V41.1987C84.3502 41.4429 84.4918 41.6056 84.775 41.687C84.8987 41.7196 85.0143 41.744 85.1217 41.7603C85.2291 41.7733 85.2975 41.7863 85.3268 41.7993C85.3593 41.8123 85.3756 41.8384 85.3756 41.8774C85.3756 41.9132 85.3593 41.9344 85.3268 41.9409H82.8805C82.8479 41.9344 82.8317 41.9116 82.8317 41.8726C82.8317 41.814 82.9082 41.7749 83.0612 41.7554C83.4127 41.7033 83.5885 41.5177 83.5885 41.1987V38.6157C83.5885 38.479 83.5136 38.3846 83.3639 38.3325C83.2988 38.3097 83.2288 38.2918 83.1539 38.2788C83.0791 38.2625 83.0188 38.2479 82.9733 38.2349C82.9309 38.2218 82.9033 38.2104 82.8903 38.2007C82.8805 38.1877 82.8756 38.1632 82.8756 38.1274C82.8756 38.0884 82.9 38.0558 82.9489 38.0298L84.194 37.4438C84.233 37.4243 84.2574 37.4146 84.2672 37.4146C84.3226 37.4146 84.3502 37.4536 84.3502 37.5317V38.3228C84.3502 38.3618 84.36 38.3813 84.3795 38.3813C84.4056 38.3813 84.4723 38.3049 84.5797 38.1519C84.889 37.7189 85.1445 37.5024 85.3463 37.5024C85.4602 37.5024 85.6344 37.548 85.8688 37.6392C86.1064 37.7303 86.2252 37.8068 86.2252 37.8687C86.2252 37.9435 86.1878 38.0575 86.1129 38.2104C86.038 38.3634 85.9632 38.4399 85.8883 38.4399ZM91.0592 41.7554C91.2122 41.7749 91.2887 41.814 91.2887 41.8726C91.2887 41.9116 91.2724 41.9344 91.2399 41.9409H89.0621C89.0296 41.9344 89.0133 41.9116 89.0133 41.8726C89.0133 41.814 89.0898 41.7749 89.2428 41.7554C89.5944 41.7033 89.7701 41.5177 89.7701 41.1987V35.1099C89.7701 34.9731 89.6953 34.8787 89.5455 34.8267C89.4804 34.8039 89.4104 34.786 89.3356 34.7729C89.2607 34.7567 89.2005 34.742 89.1549 34.729C89.1126 34.716 89.0849 34.7046 89.0719 34.6948C89.0621 34.6818 89.0573 34.6574 89.0573 34.6216C89.0573 34.5825 89.0817 34.55 89.1305 34.5239L90.3756 33.938C90.4147 33.9185 90.4391 33.9087 90.4489 33.9087C90.5042 33.9087 90.5319 33.9478 90.5319 34.0259V41.1987C90.5319 41.5177 90.7076 41.7033 91.0592 41.7554ZM94.8239 41.1353C94.8239 41.2199 94.8629 41.2882 94.941 41.3403C95.0224 41.3892 95.1152 41.4136 95.2194 41.4136C95.3235 41.4136 95.4098 41.3875 95.4781 41.3354C95.5498 41.2801 95.5986 41.2524 95.6246 41.2524C95.6507 41.2524 95.6637 41.2882 95.6637 41.3599C95.6637 41.4282 95.6311 41.4868 95.566 41.5356C95.0778 41.8937 94.7474 42.0728 94.5748 42.0728C94.3665 42.0728 94.1972 41.8563 94.067 41.4233C94.0573 41.3908 94.0491 41.3761 94.0426 41.3794C93.639 41.6821 93.3851 41.8644 93.2809 41.9263C93.014 42.0793 92.7454 42.1037 92.4752 41.9995C92.2083 41.8953 92.0146 41.7228 91.8942 41.4819C91.8356 41.3582 91.8063 41.2264 91.8063 41.0864C91.8063 40.8097 91.9088 40.59 92.1139 40.4272C92.319 40.2645 92.7096 40.1082 93.2858 39.9585C93.4811 39.9064 93.6552 39.8397 93.8082 39.7583C93.9612 39.6769 94.041 39.6248 94.0475 39.6021C94.0573 39.5793 94.0621 39.5581 94.0621 39.5386V38.6011C94.0621 38.2332 93.9189 37.9744 93.6324 37.8247C93.538 37.7759 93.4241 37.7515 93.2906 37.7515C93.1604 37.7515 93.027 37.8035 92.8903 37.9077C92.7568 38.0119 92.6901 38.16 92.6901 38.3521L92.7145 38.5425C92.6949 38.5815 92.5778 38.6466 92.3629 38.7378C92.1481 38.8289 92.0244 38.8778 91.9918 38.8843C91.9397 38.8843 91.9137 38.8224 91.9137 38.6987C91.9137 38.5718 91.9511 38.4318 92.026 38.2788C92.1009 38.1258 92.2067 37.9858 92.3434 37.8589C92.6624 37.5627 93.027 37.4146 93.4371 37.4146C93.8473 37.4146 94.1809 37.5285 94.4381 37.7563C94.6953 37.981 94.8239 38.2495 94.8239 38.562V41.1353ZM92.5729 40.9937C92.5729 41.1499 92.6331 41.2866 92.7535 41.4038C92.874 41.5177 93.0107 41.5747 93.1637 41.5747C93.3199 41.5747 93.5087 41.5096 93.7301 41.3794C93.9515 41.2459 94.0621 41.1092 94.0621 40.9692V39.978C94.0621 39.9422 94.054 39.9243 94.0377 39.9243C94.0214 39.9243 94.0101 39.9259 94.0035 39.9292L92.8707 40.4565C92.7535 40.5412 92.6738 40.6128 92.6315 40.6714C92.5924 40.73 92.5729 40.8374 92.5729 40.9937ZM102.651 38.0005C102.651 38.2284 102.519 38.3423 102.255 38.3423C102.122 38.3423 102.008 38.3049 101.914 38.23C101.823 38.1519 101.751 38.0868 101.699 38.0347C101.65 37.9793 101.598 37.9289 101.543 37.8833C101.308 37.6912 101.022 37.6701 100.683 37.8198C100.348 37.9696 100.089 38.2886 99.9069 38.7769C99.8059 39.047 99.7555 39.3156 99.7555 39.5825C99.7555 40.1554 99.8857 40.6242 100.146 40.9888C100.407 41.3501 100.805 41.5308 101.342 41.5308C101.743 41.5308 102.102 41.3517 102.422 40.9937C102.519 40.8862 102.578 40.8325 102.597 40.8325C102.617 40.8325 102.638 40.8423 102.661 40.8618C102.684 40.8813 102.695 40.9106 102.695 40.9497C102.695 40.9855 102.685 41.0132 102.666 41.0327C102.168 41.7261 101.541 42.0728 100.786 42.0728C100.239 42.0728 99.7897 41.8693 99.4381 41.4624C99.0898 41.0555 98.9156 40.59 98.9156 40.0659C98.9189 39.0959 99.1533 38.3976 99.6188 37.9712C100.029 37.5968 100.613 37.4097 101.372 37.4097C101.84 37.4097 102.151 37.4569 102.304 37.5513C102.457 37.6457 102.565 37.7645 102.627 37.9077C102.643 37.9403 102.651 37.9712 102.651 38.0005ZM106.396 41.1353C106.396 41.2199 106.435 41.2882 106.513 41.3403C106.595 41.3892 106.687 41.4136 106.792 41.4136C106.896 41.4136 106.982 41.3875 107.05 41.3354C107.122 41.2801 107.171 41.2524 107.197 41.2524C107.223 41.2524 107.236 41.2882 107.236 41.3599C107.236 41.4282 107.203 41.4868 107.138 41.5356C106.65 41.8937 106.32 42.0728 106.147 42.0728C105.939 42.0728 105.769 41.8563 105.639 41.4233C105.63 41.3908 105.621 41.3761 105.615 41.3794C105.211 41.6821 104.957 41.8644 104.853 41.9263C104.586 42.0793 104.318 42.1037 104.047 41.9995C103.781 41.8953 103.587 41.7228 103.466 41.4819C103.408 41.3582 103.379 41.2264 103.379 41.0864C103.379 40.8097 103.481 40.59 103.686 40.4272C103.891 40.2645 104.282 40.1082 104.858 39.9585C105.053 39.9064 105.227 39.8397 105.38 39.7583C105.533 39.6769 105.613 39.6248 105.62 39.6021C105.63 39.5793 105.634 39.5581 105.634 39.5386V38.6011C105.634 38.2332 105.491 37.9744 105.205 37.8247C105.11 37.7759 104.996 37.7515 104.863 37.7515C104.733 37.7515 104.599 37.8035 104.463 37.9077C104.329 38.0119 104.262 38.16 104.262 38.3521L104.287 38.5425C104.267 38.5815 104.15 38.6466 103.935 38.7378C103.72 38.8289 103.597 38.8778 103.564 38.8843C103.512 38.8843 103.486 38.8224 103.486 38.6987C103.486 38.5718 103.523 38.4318 103.598 38.2788C103.673 38.1258 103.779 37.9858 103.916 37.8589C104.235 37.5627 104.599 37.4146 105.009 37.4146C105.42 37.4146 105.753 37.5285 106.01 37.7563C106.268 37.981 106.396 38.2495 106.396 38.562V41.1353ZM104.145 40.9937C104.145 41.1499 104.205 41.2866 104.326 41.4038C104.446 41.5177 104.583 41.5747 104.736 41.5747C104.892 41.5747 105.081 41.5096 105.302 41.3794C105.524 41.2459 105.634 41.1092 105.634 40.9692V39.978C105.634 39.9422 105.626 39.9243 105.61 39.9243C105.594 39.9243 105.582 39.9259 105.576 39.9292L104.443 40.4565C104.326 40.5412 104.246 40.6128 104.204 40.6714C104.165 40.73 104.145 40.8374 104.145 40.9937ZM110.673 38.4399C110.634 38.4334 110.577 38.4123 110.503 38.3765C110.232 38.2528 110.021 38.1909 109.868 38.1909C109.715 38.1909 109.554 38.2869 109.384 38.479C109.218 38.6678 109.135 38.8387 109.135 38.9917V41.1987C109.135 41.4429 109.277 41.6056 109.56 41.687C109.684 41.7196 109.799 41.744 109.907 41.7603C110.014 41.7733 110.083 41.7863 110.112 41.7993C110.144 41.8123 110.161 41.8384 110.161 41.8774C110.161 41.9132 110.144 41.9344 110.112 41.9409H107.666C107.633 41.9344 107.617 41.9116 107.617 41.8726C107.617 41.814 107.693 41.7749 107.846 41.7554C108.198 41.7033 108.374 41.5177 108.374 41.1987V38.6157C108.374 38.479 108.299 38.3846 108.149 38.3325C108.084 38.3097 108.014 38.2918 107.939 38.2788C107.864 38.2625 107.804 38.2479 107.758 38.2349C107.716 38.2218 107.688 38.2104 107.675 38.2007C107.666 38.1877 107.661 38.1632 107.661 38.1274C107.661 38.0884 107.685 38.0558 107.734 38.0298L108.979 37.4438C109.018 37.4243 109.043 37.4146 109.052 37.4146C109.108 37.4146 109.135 37.4536 109.135 37.5317V38.3228C109.135 38.3618 109.145 38.3813 109.165 38.3813C109.191 38.3813 109.257 38.3049 109.365 38.1519C109.674 37.7189 109.93 37.5024 110.131 37.5024C110.245 37.5024 110.42 37.548 110.654 37.6392C110.892 37.7303 111.01 37.8068 111.01 37.8687C111.01 37.9435 110.973 38.0575 110.898 38.2104C110.823 38.3634 110.748 38.4399 110.673 38.4399ZM112.544 38.186C112.524 38.186 112.514 38.2007 112.514 38.23V40.9253C112.514 41.1206 112.557 41.2736 112.641 41.3843C112.729 41.495 112.84 41.5503 112.973 41.5503C113.107 41.5503 113.222 41.5291 113.32 41.4868C113.421 41.4412 113.507 41.3924 113.579 41.3403C113.654 41.2882 113.72 41.241 113.779 41.1987C113.838 41.1532 113.89 41.1304 113.935 41.1304C113.981 41.1304 114.004 41.1418 114.004 41.1646C114.004 41.2427 113.995 41.2931 113.979 41.3159C113.589 41.8205 113.211 42.0728 112.846 42.0728C112.485 42.0728 112.212 41.9588 112.026 41.731C111.844 41.4998 111.753 41.2248 111.753 40.9058V38.186H111.386C111.295 38.186 111.246 38.1567 111.24 38.0981C111.237 38.0396 111.246 38.0021 111.269 37.9858C111.442 37.8752 111.679 37.6766 111.982 37.3901C112.015 37.3543 112.059 37.3006 112.114 37.229C112.169 37.1574 112.249 37.0597 112.353 36.936C112.461 36.8123 112.542 36.7505 112.597 36.7505C112.653 36.7505 112.68 36.7733 112.68 36.8188C112.68 36.8254 112.625 37.0386 112.514 37.4585C112.514 37.5171 112.54 37.548 112.592 37.5513H113.838C113.981 37.5513 114.052 37.7531 114.052 38.1567C114.052 38.1763 114.039 38.186 114.013 38.186H112.544ZM115.307 39.3677C115.252 39.3677 115.224 39.4865 115.224 39.7241C115.224 40.2287 115.374 40.6519 115.673 40.9937C115.973 41.3354 116.344 41.5063 116.787 41.5063C117.233 41.5063 117.661 41.3143 118.071 40.9302C118.077 40.9237 118.086 40.9204 118.095 40.9204H118.12C118.139 40.9204 118.157 40.9367 118.173 40.9692C118.193 40.9985 118.211 41.0181 118.227 41.0278C117.85 41.4868 117.405 41.8042 116.894 41.98C116.718 42.0418 116.52 42.0728 116.298 42.0728C116.077 42.0728 115.852 42.0125 115.625 41.8921C115.397 41.7684 115.201 41.6073 115.039 41.4087C114.694 40.9953 114.521 40.481 114.521 39.8657C114.521 39.2472 114.708 38.6841 115.083 38.1763C115.46 37.6685 115.978 37.4146 116.635 37.4146C117.107 37.4146 117.493 37.6261 117.793 38.0493C118.092 38.4692 118.242 38.8387 118.242 39.1577C118.242 39.2977 118.208 39.3677 118.139 39.3677H115.307ZM115.361 38.8989C115.361 38.9608 115.39 38.9917 115.449 38.9917H117.29C117.374 38.9917 117.417 38.9412 117.417 38.8403C117.417 38.606 117.311 38.3667 117.099 38.1226C116.891 37.8752 116.661 37.7515 116.411 37.7515C116.167 37.7515 115.944 37.8621 115.742 38.0835C115.543 38.3049 115.416 38.5571 115.361 38.8403V38.8989ZM26.8551 53.3677C26.7998 53.3677 26.7721 53.4865 26.7721 53.7241C26.7721 54.2287 26.9218 54.6519 27.2213 54.9937C27.5208 55.3354 27.8919 55.5063 28.3346 55.5063C28.7806 55.5063 29.2086 55.3143 29.6188 54.9302C29.6253 54.9237 29.6334 54.9204 29.6432 54.9204H29.6676C29.6871 54.9204 29.705 54.9367 29.7213 54.9692C29.7408 54.9985 29.7587 55.0181 29.775 55.0278C29.3974 55.4868 28.9531 55.8042 28.442 55.98C28.2662 56.0418 28.0677 56.0728 27.8463 56.0728C27.625 56.0728 27.4003 56.0125 27.1725 55.8921C26.9446 55.7684 26.7493 55.6073 26.5865 55.4087C26.2415 54.9953 26.069 54.481 26.069 53.8657C26.069 53.2472 26.2561 52.6841 26.6305 52.1763C27.0081 51.6685 27.5257 51.4146 28.1832 51.4146C28.6552 51.4146 29.041 51.6261 29.3405 52.0493C29.6399 52.4692 29.7897 52.8387 29.7897 53.1577C29.7897 53.2977 29.7555 53.3677 29.6871 53.3677H26.8551ZM26.9088 52.8989C26.9088 52.9608 26.9381 52.9917 26.9967 52.9917H28.8375C28.9222 52.9917 28.9645 52.9412 28.9645 52.8403C28.9645 52.606 28.8587 52.3667 28.6471 52.1226C28.4388 51.8752 28.2093 51.7515 27.9586 51.7515C27.7145 51.7515 27.4915 51.8621 27.2897 52.0835C27.0911 52.3049 26.9642 52.5571 26.9088 52.8403V52.8989ZM34.194 54.4028L34.1842 53.3726C34.1842 52.9526 34.1484 52.658 34.0768 52.4888C34.0052 52.3195 33.914 52.1925 33.8033 52.1079C33.6927 52.02 33.5429 51.9761 33.3541 51.9761C33.1686 51.9761 32.7731 52.1226 32.1676 52.4155C32.0862 52.4644 32.0439 52.5099 32.0406 52.5522V55.1792C32.0406 55.508 32.2164 55.6968 32.568 55.7456C32.721 55.7684 32.7975 55.8058 32.7975 55.8579C32.7975 55.9067 32.7812 55.9344 32.7487 55.9409H30.5709C30.5384 55.9344 30.5221 55.9116 30.5221 55.8726C30.5221 55.8107 30.5986 55.7684 30.7516 55.7456C31.1031 55.6968 31.2789 55.508 31.2789 55.1792V52.3765C31.2789 52.2397 31.2041 52.1453 31.0543 52.0933C30.9892 52.0705 30.9192 52.0526 30.8444 52.0396C30.7695 52.0233 30.7093 52.0086 30.6637 51.9956C30.6214 51.9826 30.5937 51.9712 30.5807 51.9614C30.5709 51.9484 30.566 51.924 30.566 51.8882C30.566 51.8491 30.5905 51.8166 30.6393 51.7905L31.8844 51.2046C31.9235 51.1851 31.9479 51.1753 31.9576 51.1753C32.013 51.1753 32.0406 51.2144 32.0406 51.2925V52.0542C32.0504 52.0868 32.0634 52.103 32.0797 52.103C32.0992 52.103 32.1692 52.0737 32.2897 52.0151C32.5696 51.8752 32.8512 51.7401 33.1344 51.6099C33.4176 51.4797 33.652 51.4146 33.8375 51.4146C34.5895 51.4146 34.9655 52.0998 34.9655 53.4702L34.9215 54.896V55.1792C34.9215 55.4331 35.0485 55.5991 35.3024 55.6772C35.4098 55.7131 35.5123 55.7391 35.61 55.7554C35.7109 55.7684 35.776 55.7814 35.8053 55.7944C35.8378 55.8075 35.8541 55.8335 35.8541 55.8726C35.8541 55.9116 35.8378 55.9344 35.8053 55.9409H33.4518C33.4192 55.9344 33.403 55.9116 33.403 55.8726C33.403 55.8107 33.4795 55.7684 33.6324 55.7456C33.9808 55.6968 34.1549 55.495 34.1549 55.1401C34.1809 54.9774 34.194 54.7316 34.194 54.4028ZM40.1266 52.0005C40.1266 52.2284 39.9948 52.3423 39.7311 52.3423C39.5976 52.3423 39.4837 52.3049 39.3893 52.23C39.2981 52.1519 39.2265 52.0868 39.1744 52.0347C39.1256 51.9793 39.0735 51.9289 39.0182 51.8833C38.7838 51.6912 38.4974 51.6701 38.1588 51.8198C37.8235 51.9696 37.5647 52.2886 37.3824 52.7769C37.2815 53.047 37.2311 53.3156 37.2311 53.5825C37.2311 54.1554 37.3613 54.6242 37.6217 54.9888C37.8821 55.3501 38.2809 55.5308 38.818 55.5308C39.2184 55.5308 39.5781 55.3517 39.8971 54.9937C39.9948 54.8862 40.0533 54.8325 40.0729 54.8325C40.0924 54.8325 40.1136 54.8423 40.1364 54.8618C40.1591 54.8813 40.1705 54.9106 40.1705 54.9497C40.1705 54.9855 40.1608 55.0132 40.1412 55.0327C39.6432 55.7261 39.0166 56.0728 38.2614 56.0728C37.7145 56.0728 37.2653 55.8693 36.9137 55.4624C36.5654 55.0555 36.3912 54.59 36.3912 54.0659C36.3945 53.0959 36.6289 52.3976 37.0944 51.9712C37.5045 51.5968 38.0888 51.4097 38.8473 51.4097C39.316 51.4097 39.6269 51.4569 39.7799 51.5513C39.9329 51.6457 40.0403 51.7645 40.1022 51.9077C40.1184 51.9403 40.1266 51.9712 40.1266 52.0005ZM45.6198 51.5464C45.6556 51.5562 45.6735 51.5789 45.6735 51.6147C45.6735 51.6506 45.6702 51.675 45.6637 51.688C45.6572 51.6978 45.6409 51.7075 45.6149 51.7173C45.5921 51.7238 45.5579 51.7303 45.5123 51.7368C45.47 51.7433 45.4017 51.7563 45.3073 51.7759C45.2128 51.7922 45.1282 51.8573 45.0533 51.9712C44.9785 52.0851 44.8987 52.243 44.8141 52.4448L42.5192 58.1333L42.2018 58.8071C42.1204 58.9797 41.9495 59.0659 41.6891 59.0659C41.5752 59.0659 41.484 59.0285 41.4156 58.9536C41.3473 58.8787 41.3131 58.7892 41.3131 58.6851C41.3131 58.5841 41.3375 58.5093 41.3864 58.4604C41.4384 58.4149 41.4987 58.3774 41.567 58.3481C41.6354 58.3188 41.7054 58.2912 41.777 58.2651C41.8518 58.2424 41.9349 58.187 42.026 58.0991C42.1171 58.0145 42.1709 57.951 42.1871 57.9087C42.734 56.6847 43.0074 56.0451 43.0074 55.9897C43.0074 55.9344 42.9749 55.866 42.9098 55.7847L41.2985 52.4204C41.178 52.0916 40.9713 51.88 40.6783 51.7856C40.6556 51.7791 40.6279 51.7743 40.5953 51.771C40.4586 51.758 40.3903 51.7173 40.3903 51.6489C40.3903 51.5806 40.4293 51.5464 40.5074 51.5464H42.6803C42.7063 51.5464 42.7194 51.5724 42.7194 51.6245C42.7194 51.6733 42.6966 51.7075 42.651 51.7271C42.6054 51.7433 42.5045 51.7515 42.3483 51.7515C42.0976 51.7515 41.9723 51.8491 41.9723 52.0444L42.0162 52.1616L43.2809 54.8716C43.346 55.0376 43.4111 55.0327 43.4762 54.8569C43.4827 54.8407 43.5234 54.7349 43.5983 54.5396C44.041 53.4165 44.2884 52.7671 44.3405 52.5913C44.3958 52.4155 44.4235 52.2837 44.4235 52.1958C44.4235 52.1079 44.3763 52.0151 44.2819 51.9175C44.1907 51.8198 44.0638 51.771 43.901 51.771C43.7415 51.771 43.6617 51.7238 43.6617 51.6294C43.6617 51.5741 43.6976 51.5464 43.7692 51.5464H45.6198ZM49.9703 52.0005C49.9703 52.2284 49.8385 52.3423 49.5748 52.3423C49.4414 52.3423 49.3274 52.3049 49.233 52.23C49.1419 52.1519 49.0703 52.0868 49.0182 52.0347C48.9694 51.9793 48.9173 51.9289 48.8619 51.8833C48.6276 51.6912 48.3411 51.6701 48.0026 51.8198C47.6673 51.9696 47.4085 52.2886 47.2262 52.7769C47.1253 53.047 47.0748 53.3156 47.0748 53.5825C47.0748 54.1554 47.205 54.6242 47.4655 54.9888C47.7259 55.3501 48.1246 55.5308 48.6617 55.5308C49.0621 55.5308 49.4218 55.3517 49.7408 54.9937C49.8385 54.8862 49.8971 54.8325 49.9166 54.8325C49.9362 54.8325 49.9573 54.8423 49.9801 54.8618C50.0029 54.8813 50.0143 54.9106 50.0143 54.9497C50.0143 54.9855 50.0045 55.0132 49.985 55.0327C49.4869 55.7261 48.8603 56.0728 48.1051 56.0728C47.5582 56.0728 47.109 55.8693 46.7574 55.4624C46.4091 55.0555 46.235 54.59 46.235 54.0659C46.2382 53.0959 46.4726 52.3976 46.9381 51.9712C47.3483 51.5968 47.9326 51.4097 48.691 51.4097C49.1598 51.4097 49.4707 51.4569 49.6237 51.5513C49.7767 51.6457 49.8841 51.7645 49.9459 51.9077C49.9622 51.9403 49.9703 51.9712 49.9703 52.0005ZM52.4996 55.7554C52.6526 55.7749 52.7291 55.814 52.7291 55.8726C52.7291 55.9116 52.7128 55.9344 52.6803 55.9409H50.5026C50.47 55.9344 50.4537 55.9116 50.4537 55.8726C50.4537 55.814 50.5302 55.7749 50.6832 55.7554C51.0348 55.7033 51.2106 55.5177 51.2106 55.1987V49.1099C51.2106 48.9731 51.1357 48.8787 50.986 48.8267C50.9209 48.8039 50.8509 48.786 50.776 48.7729C50.7011 48.7567 50.6409 48.742 50.5953 48.729C50.553 48.716 50.5253 48.7046 50.5123 48.6948C50.5026 48.6818 50.4977 48.6574 50.4977 48.6216C50.4977 48.5825 50.5221 48.55 50.5709 48.5239L51.816 47.938C51.8551 47.9185 51.8795 47.9087 51.8893 47.9087C51.9446 47.9087 51.9723 47.9478 51.9723 48.0259V55.1987C51.9723 55.5177 52.1481 55.7033 52.4996 55.7554ZM53.2711 53.7485C53.2711 53.1073 53.4974 52.5571 53.9498 52.0981C54.4056 51.6359 54.9508 51.4048 55.5856 51.4048C56.2203 51.4048 56.7721 51.6294 57.2408 52.0786C57.7096 52.5246 57.944 53.0763 57.944 53.7339C57.944 54.3914 57.721 54.9465 57.275 55.3989C56.8323 55.8481 56.2757 56.0728 55.6051 56.0728C54.9345 56.0728 54.3779 55.8449 53.9352 55.3892C53.4925 54.9334 53.2711 54.3866 53.2711 53.7485ZM54.4869 55.0034C54.8059 55.5405 55.2405 55.8091 55.7906 55.8091C56.2171 55.8091 56.5426 55.6382 56.7672 55.2964C56.9951 54.9546 57.109 54.5347 57.109 54.0366C57.109 53.5386 56.9495 53.0275 56.6305 52.5034C56.3147 51.9793 55.8883 51.7173 55.3512 51.7173C54.9573 51.7173 54.6464 51.8882 54.4186 52.23C54.194 52.5685 54.0817 52.9998 54.0817 53.5239C54.0817 54.0448 54.2168 54.5379 54.4869 55.0034ZM62.3336 55.4282C61.8844 55.8579 61.3798 56.0728 60.8199 56.0728C60.6181 56.0728 60.3431 56.0353 59.9948 55.9604C59.9394 55.9604 59.9085 55.98 59.902 56.019C59.8987 56.0581 59.8955 56.0988 59.8922 56.1411V58.2261C59.8922 58.4702 60.0338 58.633 60.317 58.7144C60.4407 58.7469 60.5563 58.7697 60.6637 58.7827C60.7711 58.799 60.8395 58.8136 60.8688 58.8267C60.9013 58.8397 60.9176 58.8641 60.9176 58.8999C60.9176 58.939 60.9013 58.9618 60.8688 58.9683H58.4225C58.3899 58.9618 58.3737 58.939 58.3737 58.8999C58.3737 58.8413 58.4502 58.8022 58.6031 58.7827C58.9547 58.7306 59.1305 58.5451 59.1305 58.2261V52.3716C59.1305 52.2349 59.0556 52.1405 58.9059 52.0884C58.8408 52.0656 58.7708 52.0477 58.6959 52.0347C58.6211 52.0184 58.5608 52.0037 58.5153 51.9907C58.4729 51.9777 58.4453 51.9663 58.4323 51.9565C58.4225 51.9435 58.4176 51.9191 58.4176 51.8833C58.4176 51.8442 58.442 51.8117 58.4908 51.7856L59.736 51.1899C59.762 51.1769 59.788 51.1704 59.8141 51.1704C59.8662 51.1704 59.8922 51.2095 59.8922 51.2876V51.9077C59.8922 51.9435 59.9101 51.9614 59.9459 51.9614C59.985 51.9614 60.0761 51.9142 60.2194 51.8198C60.6328 51.5529 61.0625 51.4194 61.5084 51.4194C61.8209 51.4194 62.1074 51.5464 62.3678 51.8003C62.7096 52.1323 62.9375 52.5946 63.0514 53.187C63.0839 53.3563 63.1002 53.5369 63.1002 53.729C63.1002 53.9178 63.0693 54.118 63.0074 54.3296C62.8837 54.7495 62.6591 55.1157 62.3336 55.4282ZM60.9371 51.9272C60.4944 51.9272 60.1461 52.0542 59.8922 52.3081V55.0522C59.8922 55.215 59.9199 55.3208 59.9752 55.3696C60.1184 55.4933 60.3382 55.5894 60.6344 55.6577C61.2203 55.7912 61.6761 55.6512 62.0016 55.2378C62.2327 54.9416 62.3483 54.5835 62.3483 54.1636C62.3483 53.3465 62.1643 52.7345 61.7965 52.3276C61.5752 52.0802 61.2887 51.9468 60.9371 51.9272ZM64.7653 53.3677C64.7099 53.3677 64.6823 53.4865 64.6823 53.7241C64.6823 54.2287 64.832 54.6519 65.1315 54.9937C65.4309 55.3354 65.802 55.5063 66.2448 55.5063C66.6907 55.5063 67.1188 55.3143 67.5289 54.9302C67.5354 54.9237 67.5436 54.9204 67.5533 54.9204H67.5778C67.5973 54.9204 67.6152 54.9367 67.6315 54.9692C67.651 54.9985 67.6689 55.0181 67.6852 55.0278C67.3076 55.4868 66.8632 55.8042 66.3522 55.98C66.1764 56.0418 65.9778 56.0728 65.7565 56.0728C65.5351 56.0728 65.3105 56.0125 65.0826 55.8921C64.8548 55.7684 64.6595 55.6073 64.4967 55.4087C64.1517 54.9953 63.9791 54.481 63.9791 53.8657C63.9791 53.2472 64.1663 52.6841 64.5406 52.1763C64.9183 51.6685 65.4358 51.4146 66.0934 51.4146C66.5654 51.4146 66.9511 51.6261 67.2506 52.0493C67.5501 52.4692 67.6998 52.8387 67.6998 53.1577C67.6998 53.2977 67.6656 53.3677 67.5973 53.3677H64.7653ZM64.819 52.8989C64.819 52.9608 64.8483 52.9917 64.9069 52.9917H66.7477C66.8323 52.9917 66.8746 52.9412 66.8746 52.8403C66.8746 52.606 66.7688 52.3667 66.5573 52.1226C66.3489 51.8752 66.1194 51.7515 65.8688 51.7515C65.6246 51.7515 65.4017 51.8621 65.1998 52.0835C65.0013 52.3049 64.8743 52.5571 64.819 52.8403V52.8989ZM65.4049 50.5894C65.3919 50.5763 65.3854 50.5666 65.3854 50.5601C65.3854 50.5535 65.3919 50.5438 65.4049 50.5308L66.4449 49.0903C66.5621 48.9308 66.6777 48.8511 66.7916 48.8511C66.9056 48.8511 66.9951 48.8885 67.0602 48.9634C67.1285 49.035 67.1627 49.1326 67.1627 49.2563C67.1627 49.38 67.0732 49.5184 66.8942 49.6714L65.5807 50.731C65.5644 50.7407 65.5514 50.7456 65.5416 50.7456C65.5319 50.7456 65.5221 50.7407 65.5123 50.731L65.4049 50.5894ZM71.5328 51.6196C71.6761 51.6685 71.764 51.6929 71.7965 51.6929C71.8291 51.6929 71.8486 51.6929 71.8551 51.6929C71.8649 51.6896 71.8763 51.6685 71.8893 51.6294V49.1099C71.8893 48.9731 71.8144 48.8787 71.6647 48.8267C71.5996 48.8039 71.5296 48.786 71.4547 48.7729C71.3798 48.7567 71.3196 48.742 71.274 48.729C71.2317 48.716 71.2041 48.7046 71.191 48.6948C71.1813 48.6818 71.1764 48.6574 71.1764 48.6216C71.1764 48.5825 71.2008 48.55 71.2496 48.5239L72.4948 47.938C72.5338 47.9185 72.5582 47.9087 72.568 47.9087C72.6233 47.9087 72.651 47.9478 72.651 48.0259V54.979C72.6673 55.1222 72.708 55.2248 72.7731 55.2866C72.8382 55.3485 72.944 55.3794 73.0905 55.3794L73.3737 55.3599C73.3932 55.3599 73.403 55.3794 73.403 55.4185C73.403 55.4543 73.3785 55.4836 73.3297 55.5063L72.0309 56.0435C71.9918 56.063 71.9576 56.0728 71.9283 56.0728C71.9023 56.0728 71.8893 56.0321 71.8893 55.9507V55.5063C71.8893 55.4738 71.8811 55.4575 71.8649 55.4575C71.8421 55.4575 71.707 55.5308 71.4596 55.6772C70.7011 56.1265 70.0615 56.1932 69.5406 55.8774C69.124 55.6235 68.8424 55.2215 68.6959 54.6714C68.6276 54.4142 68.5934 54.1424 68.5934 53.856C68.5934 53.5662 68.652 53.2798 68.7692 52.9966C68.8896 52.7101 69.054 52.4595 69.2623 52.2446C69.7213 51.7759 70.2747 51.5415 70.9225 51.5415C71.1862 51.5415 71.3896 51.5675 71.5328 51.6196ZM69.3307 53.7144C69.3307 54.2059 69.4674 54.6372 69.7408 55.0083C70.0143 55.3761 70.3951 55.5601 70.8834 55.5601C71.0983 55.5601 71.3196 55.508 71.5475 55.4038C71.7753 55.2964 71.8893 55.215 71.8893 55.1597V52.6401C71.8893 52.5783 71.847 52.505 71.7623 52.4204C71.5019 52.0623 71.1552 51.8833 70.7223 51.8833C70.2926 51.8833 69.9524 52.0656 69.7018 52.4302C69.4544 52.7915 69.3307 53.2196 69.3307 53.7144ZM73.8424 55.9409C73.8099 55.9344 73.7936 55.9116 73.7936 55.8726C73.7936 55.814 73.8701 55.7749 74.0231 55.7554C74.3746 55.7033 74.5504 55.5177 74.5504 55.1987V52.6157C74.5504 52.479 74.4755 52.3846 74.3258 52.3325C74.2607 52.3097 74.1907 52.2918 74.1158 52.2788C74.041 52.2625 73.9808 52.2479 73.9352 52.2349C73.8929 52.2218 73.8652 52.2104 73.8522 52.2007C73.8424 52.1877 73.8375 52.1632 73.8375 52.1274C73.8375 52.0884 73.8619 52.0558 73.9108 52.0298L75.1559 51.4438C75.1949 51.4243 75.2194 51.4146 75.2291 51.4146C75.2845 51.4146 75.3121 51.4536 75.3121 51.5317V55.1987C75.3121 55.5177 75.4879 55.7033 75.8395 55.7554C75.9925 55.7749 76.069 55.8091 76.069 55.8579C76.069 55.9067 76.0527 55.9344 76.0201 55.9409H73.8424ZM74.858 50.0425C74.7246 50.0425 74.6058 50.0002 74.5016 49.9155C74.4007 49.8309 74.3502 49.7137 74.3502 49.564C74.3502 49.411 74.399 49.2905 74.4967 49.2026C74.5944 49.1147 74.7099 49.0708 74.8434 49.0708C74.9801 49.0708 75.094 49.1229 75.1852 49.2271C75.2796 49.3312 75.3268 49.4435 75.3268 49.564C75.3268 49.6844 75.2828 49.7951 75.1949 49.896C75.1071 49.9937 74.9948 50.0425 74.858 50.0425ZM77.441 53.3677C77.3857 53.3677 77.358 53.4865 77.358 53.7241C77.358 54.2287 77.5078 54.6519 77.8073 54.9937C78.1067 55.3354 78.4778 55.5063 78.9205 55.5063C79.3665 55.5063 79.7946 55.3143 80.2047 54.9302C80.2112 54.9237 80.2194 54.9204 80.2291 54.9204H80.2535C80.2731 54.9204 80.291 54.9367 80.3073 54.9692C80.3268 54.9985 80.3447 55.0181 80.361 55.0278C79.9834 55.4868 79.539 55.8042 79.028 55.98C78.8522 56.0418 78.6536 56.0728 78.4323 56.0728C78.2109 56.0728 77.9863 56.0125 77.7584 55.8921C77.5306 55.7684 77.3352 55.6073 77.1725 55.4087C76.8274 54.9953 76.6549 54.481 76.6549 53.8657C76.6549 53.2472 76.8421 52.6841 77.2164 52.1763C77.594 51.6685 78.1116 51.4146 78.7692 51.4146C79.2412 51.4146 79.6269 51.6261 79.9264 52.0493C80.2259 52.4692 80.3756 52.8387 80.3756 53.1577C80.3756 53.2977 80.3414 53.3677 80.2731 53.3677H77.441ZM77.4948 52.8989C77.4948 52.9608 77.524 52.9917 77.5826 52.9917H79.4235C79.5081 52.9917 79.5504 52.9412 79.5504 52.8403C79.5504 52.606 79.4446 52.3667 79.233 52.1226C79.0247 51.8752 78.7952 51.7515 78.5446 51.7515C78.3004 51.7515 78.0774 51.8621 77.8756 52.0835C77.677 52.3049 77.5501 52.5571 77.4948 52.8403V52.8989ZM86.8942 51.6196C87.0374 51.6685 87.1253 51.6929 87.1578 51.6929C87.1904 51.6929 87.2099 51.6929 87.2164 51.6929C87.2262 51.6896 87.2376 51.6685 87.2506 51.6294V49.1099C87.2506 48.9731 87.1757 48.8787 87.026 48.8267C86.9609 48.8039 86.8909 48.786 86.816 48.7729C86.7412 48.7567 86.6809 48.742 86.6354 48.729C86.5931 48.716 86.5654 48.7046 86.5524 48.6948C86.5426 48.6818 86.5377 48.6574 86.5377 48.6216C86.5377 48.5825 86.5621 48.55 86.611 48.5239L87.8561 47.938C87.8951 47.9185 87.9196 47.9087 87.9293 47.9087C87.9847 47.9087 88.0123 47.9478 88.0123 48.0259V54.979C88.0286 55.1222 88.0693 55.2248 88.1344 55.2866C88.1995 55.3485 88.3053 55.3794 88.4518 55.3794L88.735 55.3599C88.7545 55.3599 88.7643 55.3794 88.7643 55.4185C88.7643 55.4543 88.7399 55.4836 88.691 55.5063L87.3922 56.0435C87.3531 56.063 87.319 56.0728 87.2897 56.0728C87.2636 56.0728 87.2506 56.0321 87.2506 55.9507V55.5063C87.2506 55.4738 87.2425 55.4575 87.2262 55.4575C87.2034 55.4575 87.0683 55.5308 86.8209 55.6772C86.0625 56.1265 85.4228 56.1932 84.902 55.8774C84.4853 55.6235 84.2037 55.2215 84.0573 54.6714C83.9889 54.4142 83.9547 54.1424 83.9547 53.856C83.9547 53.5662 84.0133 53.2798 84.1305 52.9966C84.2509 52.7101 84.4153 52.4595 84.6237 52.2446C85.0826 51.7759 85.636 51.5415 86.2838 51.5415C86.5475 51.5415 86.7509 51.5675 86.8942 51.6196ZM84.692 53.7144C84.692 54.2059 84.8287 54.6372 85.1022 55.0083C85.3756 55.3761 85.7565 55.5601 86.2448 55.5601C86.4596 55.5601 86.6809 55.508 86.9088 55.4038C87.1367 55.2964 87.2506 55.215 87.2506 55.1597V52.6401C87.2506 52.5783 87.2083 52.505 87.1237 52.4204C86.8632 52.0623 86.5166 51.8833 86.0836 51.8833C85.6539 51.8833 85.3138 52.0656 85.0631 52.4302C84.8157 52.7915 84.692 53.2196 84.692 53.7144ZM89.9899 53.3677C89.9345 53.3677 89.9069 53.4865 89.9069 53.7241C89.9069 54.2287 90.0566 54.6519 90.3561 54.9937C90.6556 55.3354 91.0267 55.5063 91.4694 55.5063C91.9153 55.5063 92.3434 55.3143 92.7535 54.9302C92.7601 54.9237 92.7682 54.9204 92.778 54.9204H92.8024C92.8219 54.9204 92.8398 54.9367 92.8561 54.9692C92.8756 54.9985 92.8935 55.0181 92.9098 55.0278C92.5322 55.4868 92.0878 55.8042 91.5768 55.98C91.401 56.0418 91.2024 56.0728 90.9811 56.0728C90.7597 56.0728 90.5351 56.0125 90.3073 55.8921C90.0794 55.7684 89.8841 55.6073 89.7213 55.4087C89.3763 54.9953 89.2037 54.481 89.2037 53.8657C89.2037 53.2472 89.3909 52.6841 89.7653 52.1763C90.1429 51.6685 90.6604 51.4146 91.318 51.4146C91.79 51.4146 92.1757 51.6261 92.4752 52.0493C92.7747 52.4692 92.9244 52.8387 92.9244 53.1577C92.9244 53.2977 92.8903 53.3677 92.8219 53.3677H89.9899ZM90.0436 52.8989C90.0436 52.9608 90.0729 52.9917 90.1315 52.9917H91.9723C92.0569 52.9917 92.0992 52.9412 92.0992 52.8403C92.0992 52.606 91.9934 52.3667 91.7819 52.1226C91.5735 51.8752 91.344 51.7515 91.0934 51.7515C90.8492 51.7515 90.6263 51.8621 90.4244 52.0835C90.2259 52.3049 90.0989 52.5571 90.0436 52.8403V52.8989ZM98.2321 55.7554C98.3851 55.7749 98.4615 55.814 98.4615 55.8726C98.4615 55.9116 98.4453 55.9344 98.4127 55.9409H96.235C96.2024 55.9344 96.1862 55.9116 96.1862 55.8726C96.1862 55.814 96.2627 55.7749 96.4156 55.7554C96.7672 55.7033 96.943 55.5177 96.943 55.1987V49.1099C96.943 48.9731 96.8681 48.8787 96.7184 48.8267C96.6533 48.8039 96.5833 48.786 96.5084 48.7729C96.4336 48.7567 96.3733 48.742 96.3278 48.729C96.2854 48.716 96.2578 48.7046 96.2448 48.6948C96.235 48.6818 96.2301 48.6574 96.2301 48.6216C96.2301 48.5825 96.2545 48.55 96.3033 48.5239L97.5485 47.938C97.5875 47.9185 97.6119 47.9087 97.6217 47.9087C97.677 47.9087 97.7047 47.9478 97.7047 48.0259V55.1987C97.7047 55.5177 97.8805 55.7033 98.2321 55.7554ZM101.997 55.1353C101.997 55.2199 102.036 55.2882 102.114 55.3403C102.195 55.3892 102.288 55.4136 102.392 55.4136C102.496 55.4136 102.583 55.3875 102.651 55.3354C102.723 55.2801 102.771 55.2524 102.797 55.2524C102.824 55.2524 102.837 55.2882 102.837 55.3599C102.837 55.4282 102.804 55.4868 102.739 55.5356C102.251 55.8937 101.92 56.0728 101.748 56.0728C101.539 56.0728 101.37 55.8563 101.24 55.4233C101.23 55.3908 101.222 55.3761 101.215 55.3794C100.812 55.6821 100.558 55.8644 100.454 55.9263C100.187 56.0793 99.9183 56.1037 99.6481 55.9995C99.3811 55.8953 99.1875 55.7228 99.067 55.4819C99.0084 55.3582 98.9791 55.2264 98.9791 55.0864C98.9791 54.8097 99.0817 54.59 99.2867 54.4272C99.4918 54.2645 99.8824 54.1082 100.459 53.9585C100.654 53.9064 100.828 53.8397 100.981 53.7583C101.134 53.6769 101.214 53.6248 101.22 53.6021C101.23 53.5793 101.235 53.5581 101.235 53.5386V52.6011C101.235 52.2332 101.092 51.9744 100.805 51.8247C100.711 51.7759 100.597 51.7515 100.464 51.7515C100.333 51.7515 100.2 51.8035 100.063 51.9077C99.9296 52.0119 99.8629 52.16 99.8629 52.3521L99.8873 52.5425C99.8678 52.5815 99.7506 52.6466 99.5358 52.7378C99.3209 52.8289 99.1972 52.8778 99.1647 52.8843C99.1126 52.8843 99.0865 52.8224 99.0865 52.6987C99.0865 52.5718 99.124 52.4318 99.1989 52.2788C99.2737 52.1258 99.3795 51.9858 99.5162 51.8589C99.8352 51.5627 100.2 51.4146 100.61 51.4146C101.02 51.4146 101.354 51.5285 101.611 51.7563C101.868 51.981 101.997 52.2495 101.997 52.562V55.1353ZM99.7457 54.9937C99.7457 55.1499 99.8059 55.2866 99.9264 55.4038C100.047 55.5177 100.184 55.5747 100.337 55.5747C100.493 55.5747 100.682 55.5096 100.903 55.3794C101.124 55.2459 101.235 55.1092 101.235 54.9692V53.978C101.235 53.9422 101.227 53.9243 101.211 53.9243C101.194 53.9243 101.183 53.9259 101.176 53.9292L100.044 54.4565C99.9264 54.5412 99.8466 54.6128 99.8043 54.6714C99.7653 54.73 99.7457 54.8374 99.7457 54.9937ZM107.793 55.7554C107.946 55.7749 108.022 55.814 108.022 55.8726C108.022 55.9116 108.006 55.9344 107.973 55.9409H105.796C105.763 55.9344 105.747 55.9116 105.747 55.8726C105.747 55.814 105.823 55.7749 105.976 55.7554C106.328 55.7033 106.504 55.5177 106.504 55.1987V49.1099C106.504 48.9731 106.429 48.8787 106.279 48.8267C106.214 48.8039 106.144 48.786 106.069 48.7729C105.994 48.7567 105.934 48.742 105.888 48.729C105.846 48.716 105.818 48.7046 105.805 48.6948C105.796 48.6818 105.791 48.6574 105.791 48.6216C105.791 48.5825 105.815 48.55 105.864 48.5239L107.109 47.938C107.148 47.9185 107.172 47.9087 107.182 47.9087C107.238 47.9087 107.265 47.9478 107.265 48.0259V55.1987C107.265 55.5177 107.441 55.7033 107.793 55.7554ZM113.305 51.5464C113.341 51.5562 113.359 51.5789 113.359 51.6147C113.359 51.6506 113.356 51.675 113.349 51.688C113.343 51.6978 113.326 51.7075 113.3 51.7173C113.278 51.7238 113.243 51.7303 113.198 51.7368C113.156 51.7433 113.087 51.7563 112.993 51.7759C112.898 51.7922 112.814 51.8573 112.739 51.9712C112.664 52.0851 112.584 52.243 112.5 52.4448L110.205 58.1333L109.887 58.8071C109.806 58.9797 109.635 59.0659 109.375 59.0659C109.261 59.0659 109.17 59.0285 109.101 58.9536C109.033 58.8787 108.999 58.7892 108.999 58.6851C108.999 58.5841 109.023 58.5093 109.072 58.4604C109.124 58.4149 109.184 58.3774 109.253 58.3481C109.321 58.3188 109.391 58.2912 109.463 58.2651C109.537 58.2424 109.62 58.187 109.712 58.0991C109.803 58.0145 109.856 57.951 109.873 57.9087C110.42 56.6847 110.693 56.0451 110.693 55.9897C110.693 55.9344 110.66 55.866 110.595 55.7847L108.984 52.4204C108.864 52.0916 108.657 51.88 108.364 51.7856C108.341 51.7791 108.313 51.7743 108.281 51.771C108.144 51.758 108.076 51.7173 108.076 51.6489C108.076 51.5806 108.115 51.5464 108.193 51.5464H110.366C110.392 51.5464 110.405 51.5724 110.405 51.6245C110.405 51.6733 110.382 51.7075 110.337 51.7271C110.291 51.7433 110.19 51.7515 110.034 51.7515C109.783 51.7515 109.658 51.8491 109.658 52.0444L109.702 52.1616L110.966 54.8716C111.032 55.0376 111.097 55.0327 111.162 54.8569C111.168 54.8407 111.209 54.7349 111.284 54.5396C111.727 53.4165 111.974 52.7671 112.026 52.5913C112.081 52.4155 112.109 52.2837 112.109 52.1958C112.109 52.1079 112.062 52.0151 111.967 51.9175C111.876 51.8198 111.749 51.771 111.587 51.771C111.427 51.771 111.347 51.7238 111.347 51.6294C111.347 51.5741 111.383 51.5464 111.455 51.5464H113.305ZM116.792 52.4399C116.753 52.4334 116.696 52.4123 116.621 52.3765C116.351 52.2528 116.139 52.1909 115.986 52.1909C115.833 52.1909 115.672 52.2869 115.503 52.479C115.337 52.6678 115.254 52.8387 115.254 52.9917V55.1987C115.254 55.4429 115.395 55.6056 115.678 55.687C115.802 55.7196 115.918 55.744 116.025 55.7603C116.132 55.7733 116.201 55.7863 116.23 55.7993C116.263 55.8123 116.279 55.8384 116.279 55.8774C116.279 55.9132 116.263 55.9344 116.23 55.9409H113.784C113.751 55.9344 113.735 55.9116 113.735 55.8726C113.735 55.814 113.811 55.7749 113.964 55.7554C114.316 55.7033 114.492 55.5177 114.492 55.1987V52.6157C114.492 52.479 114.417 52.3846 114.267 52.3325C114.202 52.3097 114.132 52.2918 114.057 52.2788C113.982 52.2625 113.922 52.2479 113.877 52.2349C113.834 52.2218 113.807 52.2104 113.794 52.2007C113.784 52.1877 113.779 52.1632 113.779 52.1274C113.779 52.0884 113.803 52.0558 113.852 52.0298L115.097 51.4438C115.136 51.4243 115.161 51.4146 115.171 51.4146C115.226 51.4146 115.254 51.4536 115.254 51.5317V52.3228C115.254 52.3618 115.263 52.3813 115.283 52.3813C115.309 52.3813 115.376 52.3049 115.483 52.1519C115.792 51.7189 116.048 51.5024 116.25 51.5024C116.364 51.5024 116.538 51.548 116.772 51.6392C117.01 51.7303 117.129 51.8068 117.129 51.8687C117.129 51.9435 117.091 52.0575 117.016 52.2104C116.941 52.3634 116.866 52.4399 116.792 52.4399ZM118.261 53.3677C118.206 53.3677 118.178 53.4865 118.178 53.7241C118.178 54.2287 118.328 54.6519 118.628 54.9937C118.927 55.3354 119.298 55.5063 119.741 55.5063C120.187 55.5063 120.615 55.3143 121.025 54.9302C121.032 54.9237 121.04 54.9204 121.049 54.9204H121.074C121.093 54.9204 121.111 54.9367 121.128 54.9692C121.147 54.9985 121.165 55.0181 121.181 55.0278C120.804 55.4868 120.359 55.8042 119.848 55.98C119.672 56.0418 119.474 56.0728 119.253 56.0728C119.031 56.0728 118.807 56.0125 118.579 55.8921C118.351 55.7684 118.156 55.6073 117.993 55.4087C117.648 54.9953 117.475 54.481 117.475 53.8657C117.475 53.2472 117.662 52.6841 118.037 52.1763C118.414 51.6685 118.932 51.4146 119.589 51.4146C120.061 51.4146 120.447 51.6261 120.747 52.0493C121.046 52.4692 121.196 52.8387 121.196 53.1577C121.196 53.2977 121.162 53.3677 121.093 53.3677H118.261ZM118.315 52.8989C118.315 52.9608 118.344 52.9917 118.403 52.9917H120.244C120.328 52.9917 120.371 52.9412 120.371 52.8403C120.371 52.606 120.265 52.3667 120.053 52.1226C119.845 51.8752 119.616 51.7515 119.365 51.7515C119.121 51.7515 118.898 51.8621 118.696 52.0835C118.497 52.3049 118.37 52.5571 118.315 52.8403V52.8989ZM31.4205 65.6196C31.5638 65.6685 31.6517 65.6929 31.6842 65.6929C31.7168 65.6929 31.7363 65.6929 31.7428 65.6929C31.7526 65.6896 31.764 65.6685 31.777 65.6294V63.1099C31.777 62.9731 31.7021 62.8787 31.5524 62.8267C31.4873 62.8039 31.4173 62.786 31.3424 62.7729C31.2675 62.7567 31.2073 62.742 31.1617 62.729C31.1194 62.716 31.0918 62.7046 31.0787 62.6948C31.069 62.6818 31.0641 62.6574 31.0641 62.6216C31.0641 62.5825 31.0885 62.55 31.1373 62.5239L32.3824 61.938C32.4215 61.9185 32.4459 61.9087 32.4557 61.9087C32.511 61.9087 32.5387 61.9478 32.5387 62.0259V68.979C32.555 69.1222 32.5957 69.2248 32.6608 69.2866C32.7259 69.3485 32.8317 69.3794 32.9781 69.3794L33.2614 69.3599C33.2809 69.3599 33.2906 69.3794 33.2906 69.4185C33.2906 69.4543 33.2662 69.4836 33.2174 69.5063L31.9186 70.0435C31.8795 70.063 31.8453 70.0728 31.816 70.0728C31.79 70.0728 31.777 70.0321 31.777 69.9507V69.5063C31.777 69.4738 31.7688 69.4575 31.7526 69.4575C31.7298 69.4575 31.5947 69.5308 31.3473 69.6772C30.5888 70.1265 29.9492 70.1932 29.4283 69.8774C29.0117 69.6235 28.7301 69.2215 28.5836 68.6714C28.5153 68.4142 28.4811 68.1424 28.4811 67.856C28.4811 67.5662 28.5397 67.2798 28.6569 66.9966C28.7773 66.7101 28.9417 66.4595 29.15 66.2446C29.609 65.7759 30.1624 65.5415 30.8102 65.5415C31.0739 65.5415 31.2773 65.5675 31.4205 65.6196ZM29.2184 67.7144C29.2184 68.2059 29.3551 68.6372 29.6285 69.0083C29.902 69.3761 30.2828 69.5601 30.7711 69.5601C30.986 69.5601 31.2073 69.508 31.4352 69.4038C31.663 69.2964 31.777 69.215 31.777 69.1597V66.6401C31.777 66.5783 31.7347 66.505 31.65 66.4204C31.3896 66.0623 31.0429 65.8833 30.61 65.8833C30.1803 65.8833 29.8401 66.0656 29.5895 66.4302C29.3421 66.7915 29.2184 67.2196 29.2184 67.7144ZM35.3805 63.9546C35.3805 64.5601 35.0957 65.0646 34.526 65.4683C34.3958 65.5627 34.2965 65.6099 34.2281 65.6099C34.1826 65.6099 34.1598 65.5822 34.1598 65.5269C34.1598 65.4683 34.1696 65.4276 34.1891 65.4048C34.2086 65.3787 34.2314 65.356 34.2574 65.3364C34.2835 65.3169 34.3079 65.299 34.3307 65.2827C34.3567 65.2664 34.3877 65.2437 34.4235 65.2144C34.749 64.9181 34.9117 64.6496 34.9117 64.4087C34.9117 64.2687 34.8515 64.1987 34.7311 64.1987C34.4056 64.1987 34.1891 64.0962 34.0817 63.8911C34.0426 63.8162 34.0231 63.7121 34.0231 63.5786C34.0231 63.4451 34.0817 63.3247 34.1989 63.2173C34.3193 63.1099 34.4479 63.0562 34.5846 63.0562C34.8385 63.0562 35.0338 63.1571 35.1705 63.3589C35.3105 63.5575 35.3805 63.756 35.3805 63.9546ZM35.9469 69.9409C35.9143 69.9344 35.8981 69.9116 35.8981 69.8726C35.8981 69.814 35.9746 69.7749 36.1276 69.7554C36.4791 69.7033 36.6549 69.5177 36.6549 69.1987V66.6157C36.6549 66.479 36.58 66.3846 36.4303 66.3325C36.3652 66.3097 36.2952 66.2918 36.2203 66.2788C36.1455 66.2625 36.0852 66.2479 36.0397 66.2349C35.9974 66.2218 35.9697 66.2104 35.9567 66.2007C35.9469 66.1877 35.942 66.1632 35.942 66.1274C35.942 66.0884 35.9664 66.0558 36.0153 66.0298L37.2604 65.4438C37.2994 65.4243 37.3239 65.4146 37.3336 65.4146C37.389 65.4146 37.4166 65.4536 37.4166 65.5317V69.1987C37.4166 69.5177 37.5924 69.7033 37.944 69.7554C38.097 69.7749 38.1735 69.8091 38.1735 69.8579C38.1735 69.9067 38.1572 69.9344 38.1246 69.9409H35.9469ZM36.9625 64.0425C36.8291 64.0425 36.7102 64.0002 36.6061 63.9155C36.5052 63.8309 36.4547 63.7137 36.4547 63.564C36.4547 63.411 36.5035 63.2905 36.6012 63.2026C36.6989 63.1147 36.8144 63.0708 36.9479 63.0708C37.0846 63.0708 37.1985 63.1229 37.2897 63.2271C37.3841 63.3312 37.4313 63.4435 37.4313 63.564C37.4313 63.6844 37.3873 63.7951 37.2994 63.896C37.2115 63.9937 37.0992 64.0425 36.9625 64.0425ZM42.3434 68.4028L42.3336 67.3726C42.3336 66.9526 42.2978 66.658 42.2262 66.4888C42.1546 66.3195 42.0634 66.1925 41.9528 66.1079C41.8421 66.02 41.6923 65.9761 41.5035 65.9761C41.318 65.9761 40.9225 66.1226 40.317 66.4155C40.2356 66.4644 40.1933 66.5099 40.1901 66.5522V69.1792C40.1901 69.508 40.3658 69.6968 40.7174 69.7456C40.8704 69.7684 40.9469 69.8058 40.9469 69.8579C40.9469 69.9067 40.9306 69.9344 40.8981 69.9409H38.7203C38.6878 69.9344 38.6715 69.9116 38.6715 69.8726C38.6715 69.8107 38.748 69.7684 38.901 69.7456C39.2526 69.6968 39.4283 69.508 39.4283 69.1792V66.3765C39.4283 66.2397 39.3535 66.1453 39.2037 66.0933C39.1386 66.0705 39.0686 66.0526 38.9938 66.0396C38.9189 66.0233 38.8587 66.0086 38.8131 65.9956C38.7708 65.9826 38.7431 65.9712 38.7301 65.9614C38.7203 65.9484 38.7155 65.924 38.7155 65.8882C38.7155 65.8491 38.7399 65.8166 38.7887 65.7905L40.0338 65.2046C40.0729 65.1851 40.0973 65.1753 40.1071 65.1753C40.1624 65.1753 40.1901 65.2144 40.1901 65.2925V66.0542C40.1998 66.0868 40.2128 66.103 40.2291 66.103C40.2487 66.103 40.3186 66.0737 40.4391 66.0151C40.719 65.8752 41.0006 65.7401 41.2838 65.6099C41.567 65.4797 41.8014 65.4146 41.9869 65.4146C42.7389 65.4146 43.1149 66.0998 43.1149 67.4702L43.0709 68.896V69.1792C43.0709 69.4331 43.1979 69.5991 43.4518 69.6772C43.5592 69.7131 43.6617 69.7391 43.7594 69.7554C43.8603 69.7684 43.9254 69.7814 43.9547 69.7944C43.9873 69.8075 44.0035 69.8335 44.0035 69.8726C44.0035 69.9116 43.9873 69.9344 43.9547 69.9409H41.6012C41.5686 69.9344 41.5524 69.9116 41.5524 69.8726C41.5524 69.8107 41.6289 69.7684 41.7819 69.7456C42.1302 69.6968 42.3043 69.495 42.3043 69.1401C42.3304 68.9774 42.3434 68.7316 42.3434 68.4028ZM47.4557 65.6196C47.5989 65.6685 47.6868 65.6929 47.7194 65.6929C47.7519 65.6929 47.7714 65.6929 47.778 65.6929C47.7877 65.6896 47.7991 65.6685 47.8121 65.6294V63.1099C47.8121 62.9731 47.7373 62.8787 47.5875 62.8267C47.5224 62.8039 47.4524 62.786 47.3776 62.7729C47.3027 62.7567 47.2425 62.742 47.1969 62.729C47.1546 62.716 47.1269 62.7046 47.1139 62.6948C47.1041 62.6818 47.0992 62.6574 47.0992 62.6216C47.0992 62.5825 47.1237 62.55 47.1725 62.5239L48.4176 61.938C48.4567 61.9185 48.4811 61.9087 48.4908 61.9087C48.5462 61.9087 48.5739 61.9478 48.5739 62.0259V68.979C48.5901 69.1222 48.6308 69.2248 48.6959 69.2866C48.761 69.3485 48.8668 69.3794 49.0133 69.3794L49.2965 69.3599C49.316 69.3599 49.3258 69.3794 49.3258 69.4185C49.3258 69.4543 49.3014 69.4836 49.2526 69.5063L47.9537 70.0435C47.9147 70.063 47.8805 70.0728 47.8512 70.0728C47.8252 70.0728 47.8121 70.0321 47.8121 69.9507V69.5063C47.8121 69.4738 47.804 69.4575 47.7877 69.4575C47.7649 69.4575 47.6298 69.5308 47.3824 69.6772C46.624 70.1265 45.9843 70.1932 45.4635 69.8774C45.0468 69.6235 44.7653 69.2215 44.6188 68.6714C44.5504 68.4142 44.5162 68.1424 44.5162 67.856C44.5162 67.5662 44.5748 67.2798 44.692 66.9966C44.8125 66.7101 44.9768 66.4595 45.1852 66.2446C45.6442 65.7759 46.1976 65.5415 46.8453 65.5415C47.109 65.5415 47.3125 65.5675 47.4557 65.6196ZM45.2535 67.7144C45.2535 68.2059 45.3903 68.6372 45.6637 69.0083C45.9371 69.3761 46.318 69.5601 46.8063 69.5601C47.0211 69.5601 47.2425 69.508 47.4703 69.4038C47.6982 69.2964 47.8121 69.215 47.8121 69.1597V66.6401C47.8121 66.5783 47.7698 66.505 47.6852 66.4204C47.4248 66.0623 47.0781 65.8833 46.6451 65.8833C46.2155 65.8833 45.8753 66.0656 45.6246 66.4302C45.3772 66.7915 45.2535 67.2196 45.2535 67.7144ZM49.7653 69.9409C49.7327 69.9344 49.7164 69.9116 49.7164 69.8726C49.7164 69.814 49.7929 69.7749 49.9459 69.7554C50.2975 69.7033 50.4733 69.5177 50.4733 69.1987V66.6157C50.4733 66.479 50.3984 66.3846 50.2487 66.3325C50.1836 66.3097 50.1136 66.2918 50.0387 66.2788C49.9638 66.2625 49.9036 66.2479 49.858 66.2349C49.8157 66.2218 49.788 66.2104 49.775 66.2007C49.7653 66.1877 49.7604 66.1632 49.7604 66.1274C49.7604 66.0884 49.7848 66.0558 49.8336 66.0298L51.0787 65.4438C51.1178 65.4243 51.1422 65.4146 51.152 65.4146C51.2073 65.4146 51.235 65.4536 51.235 65.5317V69.1987C51.235 69.5177 51.4108 69.7033 51.7623 69.7554C51.9153 69.7749 51.9918 69.8091 51.9918 69.8579C51.9918 69.9067 51.9755 69.9344 51.943 69.9409H49.7653ZM50.7809 64.0425C50.6474 64.0425 50.5286 64.0002 50.4244 63.9155C50.3235 63.8309 50.2731 63.7137 50.2731 63.564C50.2731 63.411 50.3219 63.2905 50.4196 63.2026C50.5172 63.1147 50.6328 63.0708 50.7662 63.0708C50.903 63.0708 51.0169 63.1229 51.108 63.2271C51.2024 63.3312 51.2496 63.4435 51.2496 63.564C51.2496 63.6844 51.2057 63.7951 51.1178 63.896C51.0299 63.9937 50.9176 64.0425 50.7809 64.0425ZM56.7623 65.3755C56.7819 65.3755 56.7916 65.3853 56.7916 65.4048V72.2261C56.7916 72.5451 56.9674 72.7306 57.319 72.7827C57.472 72.8022 57.5485 72.8364 57.5485 72.8853C57.5485 72.9341 57.5322 72.9618 57.4996 72.9683H54.8824C54.8499 72.9618 54.8336 72.939 54.8336 72.8999C54.8336 72.8641 54.8483 72.8397 54.8776 72.8267C54.9101 72.8136 54.9589 72.8022 55.024 72.7925C55.0924 72.786 55.1689 72.7762 55.2535 72.7632C55.7711 72.6851 56.0299 72.506 56.0299 72.2261V69.4526C56.0299 69.4331 56.0218 69.4233 56.0055 69.4233C55.9925 69.4233 55.8704 69.4901 55.6393 69.6235C55.4082 69.757 55.1982 69.8644 55.0094 69.9458C54.8239 70.0304 54.6285 70.0728 54.4235 70.0728C54.0654 70.0728 53.761 69.9572 53.5104 69.7261C53.2597 69.495 53.066 69.2069 52.9293 68.8618C52.7926 68.5168 52.7242 68.1799 52.7242 67.8511C52.7242 67.187 52.9537 66.6157 53.4127 66.1372C53.8717 65.6554 54.4251 65.4146 55.0729 65.4146C55.4733 65.4146 55.8655 65.5187 56.2496 65.7271H56.2838C56.3457 65.7271 56.4124 65.688 56.484 65.6099C56.5556 65.5285 56.6061 65.4699 56.6354 65.4341C56.6679 65.395 56.694 65.3755 56.7135 65.3755H56.7623ZM53.4615 67.7729C53.4615 68.3296 53.6145 68.7625 53.9205 69.0718C54.2298 69.3778 54.5488 69.5308 54.8776 69.5308C55.2063 69.5308 55.514 69.4461 55.8004 69.2769C55.8883 69.2248 55.9648 69.1662 56.0299 69.1011V66.8843C56.0299 66.4904 55.9192 66.1942 55.6979 65.9956C55.4765 65.797 55.2324 65.6978 54.9655 65.6978C54.4902 65.6978 54.1207 65.9045 53.8571 66.3179C53.5934 66.728 53.4615 67.2131 53.4615 67.7729ZM61.2692 69.5112C61.2529 69.4559 61.2317 69.438 61.2057 69.4575C61.1796 69.4738 61.0739 69.5291 60.8883 69.6235C60.2796 69.9263 59.7718 70.0776 59.3649 70.0776C58.958 70.0776 58.665 69.9474 58.486 69.687C58.4209 69.5894 58.3883 69.4689 58.3883 69.3257V66.3472C58.3785 66.2528 58.3362 66.1714 58.2614 66.103C58.1604 66.0184 58.0546 65.9728 57.944 65.9663C57.8365 65.9598 57.7828 65.9272 57.7828 65.8687C57.7828 65.8068 57.8089 65.7694 57.861 65.7563L58.9791 65.4341C59.0182 65.4211 59.0556 65.4146 59.0914 65.4146C59.1305 65.4146 59.15 65.4422 59.15 65.4976V68.7739C59.15 69.0018 59.2509 69.1776 59.4528 69.3013C59.6546 69.425 59.9117 69.4868 60.2242 69.4868C60.54 69.4868 60.8232 69.3908 61.0739 69.1987C61.152 69.1369 61.2171 69.0685 61.2692 68.9937V66.3472C61.2594 66.2528 61.2171 66.1714 61.1422 66.103C61.0413 66.0184 60.9355 65.9728 60.8248 65.9663C60.7174 65.9598 60.6637 65.9272 60.6637 65.8687C60.6637 65.8068 60.6897 65.7694 60.7418 65.7563L61.86 65.4341C61.899 65.4211 61.9365 65.4146 61.9723 65.4146C62.0114 65.4146 62.0309 65.4471 62.0309 65.5122V68.979C62.0472 69.1222 62.0878 69.2248 62.153 69.2866C62.2181 69.3485 62.3239 69.3794 62.4703 69.3794L62.7535 69.3599C62.7731 69.3599 62.7828 69.3794 62.7828 69.4185C62.7828 69.4543 62.7584 69.4836 62.7096 69.5063L61.4108 70.0435C61.3717 70.063 61.3375 70.0728 61.3082 70.0728C61.2822 70.0728 61.2692 70.0321 61.2692 69.9507V69.5112ZM64.2037 67.3677C64.1484 67.3677 64.1207 67.4865 64.1207 67.7241C64.1207 68.2287 64.2705 68.6519 64.5699 68.9937C64.8694 69.3354 65.2405 69.5063 65.6832 69.5063C66.1292 69.5063 66.5573 69.3143 66.9674 68.9302C66.9739 68.9237 66.9821 68.9204 66.9918 68.9204H67.0162C67.0358 68.9204 67.0537 68.9367 67.0699 68.9692C67.0895 68.9985 67.1074 69.0181 67.1237 69.0278C66.7461 69.4868 66.3017 69.8042 65.7906 69.98C65.6149 70.0418 65.4163 70.0728 65.1949 70.0728C64.9736 70.0728 64.749 70.0125 64.5211 69.8921C64.2933 69.7684 64.0979 69.6073 63.9352 69.4087C63.5901 68.9953 63.4176 68.481 63.4176 67.8657C63.4176 67.2472 63.6048 66.6841 63.9791 66.1763C64.3567 65.6685 64.8743 65.4146 65.5319 65.4146C66.0039 65.4146 66.3896 65.6261 66.6891 66.0493C66.9886 66.4692 67.1383 66.8387 67.1383 67.1577C67.1383 67.2977 67.1041 67.3677 67.0358 67.3677H64.2037ZM64.2574 66.8989C64.2574 66.9608 64.2867 66.9917 64.3453 66.9917H66.1862C66.2708 66.9917 66.3131 66.9412 66.3131 66.8403C66.3131 66.606 66.2073 66.3667 65.9957 66.1226C65.7874 65.8752 65.5579 65.7515 65.3073 65.7515C65.0631 65.7515 64.8401 65.8621 64.6383 66.0835C64.4397 66.3049 64.3128 66.5571 64.2574 66.8403V66.8989ZM70.6686 67.7485C70.6686 67.1073 70.8948 66.5571 71.3473 66.0981C71.803 65.6359 72.3483 65.4048 72.983 65.4048C73.6178 65.4048 74.1696 65.6294 74.6383 66.0786C75.1071 66.5246 75.3414 67.0763 75.3414 67.7339C75.3414 68.3914 75.1184 68.9465 74.6725 69.3989C74.2298 69.8481 73.6731 70.0728 73.0026 70.0728C72.332 70.0728 71.7753 69.8449 71.3326 69.3892C70.8899 68.9334 70.6686 68.3866 70.6686 67.7485ZM71.8844 69.0034C72.2034 69.5405 72.638 69.8091 73.1881 69.8091C73.6145 69.8091 73.9401 69.6382 74.1647 69.2964C74.3925 68.9546 74.5065 68.5347 74.5065 68.0366C74.5065 67.5386 74.347 67.0275 74.028 66.5034C73.7122 65.9793 73.2858 65.7173 72.7487 65.7173C72.3548 65.7173 72.0439 65.8882 71.816 66.23C71.5914 66.5685 71.4791 66.9998 71.4791 67.5239C71.4791 68.0448 71.6142 68.5379 71.8844 69.0034ZM79.3942 69.5112C79.3779 69.4559 79.3567 69.438 79.3307 69.4575C79.3046 69.4738 79.1989 69.5291 79.0133 69.6235C78.4046 69.9263 77.8968 70.0776 77.4899 70.0776C77.083 70.0776 76.79 69.9474 76.611 69.687C76.5459 69.5894 76.5133 69.4689 76.5133 69.3257V66.3472C76.5035 66.2528 76.4612 66.1714 76.3864 66.103C76.2854 66.0184 76.1796 65.9728 76.069 65.9663C75.9615 65.9598 75.9078 65.9272 75.9078 65.8687C75.9078 65.8068 75.9339 65.7694 75.986 65.7563L77.1041 65.4341C77.1432 65.4211 77.1806 65.4146 77.2164 65.4146C77.2555 65.4146 77.275 65.4422 77.275 65.4976V68.7739C77.275 69.0018 77.3759 69.1776 77.5778 69.3013C77.7796 69.425 78.0367 69.4868 78.3492 69.4868C78.665 69.4868 78.9482 69.3908 79.1989 69.1987C79.277 69.1369 79.3421 69.0685 79.3942 68.9937V66.3472C79.3844 66.2528 79.3421 66.1714 79.2672 66.103C79.1663 66.0184 79.0605 65.9728 78.9498 65.9663C78.8424 65.9598 78.7887 65.9272 78.7887 65.8687C78.7887 65.8068 78.8147 65.7694 78.8668 65.7563L79.985 65.4341C80.024 65.4211 80.0615 65.4146 80.0973 65.4146C80.1364 65.4146 80.1559 65.4471 80.1559 65.5122V68.979C80.1722 69.1222 80.2128 69.2248 80.278 69.2866C80.3431 69.3485 80.4489 69.3794 80.5953 69.3794L80.8785 69.3599C80.8981 69.3599 80.9078 69.3794 80.9078 69.4185C80.9078 69.4543 80.8834 69.4836 80.8346 69.5063L79.5358 70.0435C79.4967 70.063 79.4625 70.0728 79.4332 70.0728C79.4072 70.0728 79.3942 70.0321 79.3942 69.9507V69.5112ZM85.4147 66.186C85.3951 66.186 85.3854 66.2007 85.3854 66.23V68.9253C85.3854 69.1206 85.4277 69.2736 85.5123 69.3843C85.6002 69.495 85.7109 69.5503 85.8444 69.5503C85.9778 69.5503 86.0934 69.5291 86.191 69.4868C86.292 69.4412 86.3782 69.3924 86.4498 69.3403C86.5247 69.2882 86.5914 69.241 86.65 69.1987C86.7086 69.1532 86.7607 69.1304 86.8063 69.1304C86.8518 69.1304 86.8746 69.1418 86.8746 69.1646C86.8746 69.2427 86.8665 69.2931 86.8502 69.3159C86.4596 69.8205 86.082 70.0728 85.7174 70.0728C85.3561 70.0728 85.0826 69.9588 84.8971 69.731C84.7148 69.4998 84.6237 69.2248 84.6237 68.9058V66.186H84.2574C84.1663 66.186 84.1175 66.1567 84.111 66.0981C84.1077 66.0396 84.1175 66.0021 84.1403 65.9858C84.3128 65.8752 84.5504 65.6766 84.8531 65.3901C84.8857 65.3543 84.9296 65.3006 84.985 65.229C85.0403 65.1574 85.1201 65.0597 85.2242 64.936C85.3317 64.8123 85.413 64.7505 85.4684 64.7505C85.5237 64.7505 85.5514 64.7733 85.5514 64.8188C85.5514 64.8254 85.4961 65.0386 85.3854 65.4585C85.3854 65.5171 85.4114 65.548 85.4635 65.5513H86.7086C86.8518 65.5513 86.9235 65.7531 86.9235 66.1567C86.9235 66.1763 86.9104 66.186 86.8844 66.186H85.4147ZM89.0426 63.9546C89.0426 64.5601 88.7578 65.0646 88.1881 65.4683C88.0579 65.5627 87.9586 65.6099 87.8903 65.6099C87.8447 65.6099 87.8219 65.5822 87.8219 65.5269C87.8219 65.4683 87.8317 65.4276 87.8512 65.4048C87.8707 65.3787 87.8935 65.356 87.9196 65.3364C87.9456 65.3169 87.97 65.299 87.9928 65.2827C88.0188 65.2664 88.0498 65.2437 88.0856 65.2144C88.4111 64.9181 88.5739 64.6496 88.5739 64.4087C88.5739 64.2687 88.5136 64.1987 88.3932 64.1987C88.0677 64.1987 87.8512 64.0962 87.7438 63.8911C87.7047 63.8162 87.6852 63.7121 87.6852 63.5786C87.6852 63.4451 87.7438 63.3247 87.861 63.2173C87.9814 63.1099 88.11 63.0562 88.2467 63.0562C88.5006 63.0562 88.6959 63.1571 88.8326 63.3589C88.9726 63.5575 89.0426 63.756 89.0426 63.9546ZM92.6266 69.1353C92.6266 69.2199 92.6656 69.2882 92.7438 69.3403C92.8252 69.3892 92.9179 69.4136 93.0221 69.4136C93.1263 69.4136 93.2125 69.3875 93.2809 69.3354C93.3525 69.2801 93.4013 69.2524 93.4274 69.2524C93.4534 69.2524 93.4664 69.2882 93.4664 69.3599C93.4664 69.4282 93.4339 69.4868 93.3688 69.5356C92.8805 69.8937 92.5501 70.0728 92.3776 70.0728C92.1692 70.0728 92 69.8563 91.8698 69.4233C91.86 69.3908 91.8518 69.3761 91.8453 69.3794C91.4417 69.6821 91.1878 69.8644 91.0836 69.9263C90.8167 70.0793 90.5481 70.1037 90.278 69.9995C90.011 69.8953 89.8173 69.7228 89.6969 69.4819C89.6383 69.3582 89.609 69.2264 89.609 69.0864C89.609 68.8097 89.7115 68.59 89.9166 68.4272C90.1217 68.2645 90.5123 68.1082 91.0885 67.9585C91.2838 67.9064 91.458 67.8397 91.611 67.7583C91.764 67.6769 91.8437 67.6248 91.8502 67.6021C91.86 67.5793 91.8649 67.5581 91.8649 67.5386V66.6011C91.8649 66.2332 91.7216 65.9744 91.4352 65.8247C91.3408 65.7759 91.2268 65.7515 91.0934 65.7515C90.9632 65.7515 90.8297 65.8035 90.693 65.9077C90.5595 66.0119 90.4928 66.16 90.4928 66.3521L90.5172 66.5425C90.4977 66.5815 90.3805 66.6466 90.1656 66.7378C89.9508 66.8289 89.8271 66.8778 89.7946 66.8843C89.7425 66.8843 89.7164 66.8224 89.7164 66.6987C89.7164 66.5718 89.7539 66.4318 89.8287 66.2788C89.9036 66.1258 90.0094 65.9858 90.1461 65.8589C90.4651 65.5627 90.8297 65.4146 91.2399 65.4146C91.65 65.4146 91.9837 65.5285 92.2408 65.7563C92.498 65.981 92.6266 66.2495 92.6266 66.562V69.1353ZM90.3756 68.9937C90.3756 69.1499 90.4358 69.2866 90.5563 69.4038C90.6767 69.5177 90.8134 69.5747 90.9664 69.5747C91.1227 69.5747 91.3115 69.5096 91.5328 69.3794C91.7542 69.2459 91.8649 69.1092 91.8649 68.9692V67.978C91.8649 67.9422 91.8567 67.9243 91.8405 67.9243C91.8242 67.9243 91.8128 67.9259 91.8063 67.9292L90.6735 68.4565C90.5563 68.5412 90.4765 68.6128 90.4342 68.6714C90.3951 68.73 90.3756 68.8374 90.3756 68.9937ZM96.9039 66.4399C96.8649 66.4334 96.8079 66.4123 96.733 66.3765C96.4628 66.2528 96.2513 66.1909 96.0983 66.1909C95.9453 66.1909 95.7841 66.2869 95.6149 66.479C95.4489 66.6678 95.3658 66.8387 95.3658 66.9917V69.1987C95.3658 69.4429 95.5074 69.6056 95.7906 69.687C95.9143 69.7196 96.0299 69.744 96.1373 69.7603C96.2448 69.7733 96.3131 69.7863 96.3424 69.7993C96.375 69.8123 96.3912 69.8384 96.3912 69.8774C96.3912 69.9132 96.375 69.9344 96.3424 69.9409H93.8961C93.8636 69.9344 93.8473 69.9116 93.8473 69.8726C93.8473 69.814 93.9238 69.7749 94.0768 69.7554C94.4283 69.7033 94.6041 69.5177 94.6041 69.1987V66.6157C94.6041 66.479 94.5293 66.3846 94.3795 66.3325C94.3144 66.3097 94.2444 66.2918 94.1696 66.2788C94.0947 66.2625 94.0345 66.2479 93.9889 66.2349C93.9466 66.2218 93.9189 66.2104 93.9059 66.2007C93.8961 66.1877 93.8912 66.1632 93.8912 66.1274C93.8912 66.0884 93.9156 66.0558 93.9645 66.0298L95.2096 65.4438C95.2487 65.4243 95.2731 65.4146 95.2828 65.4146C95.3382 65.4146 95.3658 65.4536 95.3658 65.5317V66.3228C95.3658 66.3618 95.3756 66.3813 95.3951 66.3813C95.4212 66.3813 95.4879 66.3049 95.5953 66.1519C95.9046 65.7189 96.1601 65.5024 96.3619 65.5024C96.4759 65.5024 96.65 65.548 96.8844 65.6392C97.122 65.7303 97.2408 65.8068 97.2408 65.8687C97.2408 65.9435 97.2034 66.0575 97.1285 66.2104C97.0537 66.3634 96.9788 66.4399 96.9039 66.4399ZM100.556 66.4399C100.517 66.4334 100.46 66.4123 100.385 66.3765C100.115 66.2528 99.9036 66.1909 99.7506 66.1909C99.5976 66.1909 99.4365 66.2869 99.2672 66.479C99.1012 66.6678 99.0182 66.8387 99.0182 66.9917V69.1987C99.0182 69.4429 99.1598 69.6056 99.443 69.687C99.5667 69.7196 99.6823 69.744 99.7897 69.7603C99.8971 69.7733 99.9655 69.7863 99.9948 69.7993C100.027 69.8123 100.044 69.8384 100.044 69.8774C100.044 69.9132 100.027 69.9344 99.9948 69.9409H97.5485C97.5159 69.9344 97.4996 69.9116 97.4996 69.8726C97.4996 69.814 97.5761 69.7749 97.7291 69.7554C98.0807 69.7033 98.2565 69.5177 98.2565 69.1987V66.6157C98.2565 66.479 98.1816 66.3846 98.0319 66.3325C97.9668 66.3097 97.8968 66.2918 97.8219 66.2788C97.747 66.2625 97.6868 66.2479 97.6412 66.2349C97.5989 66.2218 97.5712 66.2104 97.5582 66.2007C97.5485 66.1877 97.5436 66.1632 97.5436 66.1274C97.5436 66.0884 97.568 66.0558 97.6168 66.0298L98.8619 65.4438C98.901 65.4243 98.9254 65.4146 98.9352 65.4146C98.9905 65.4146 99.0182 65.4536 99.0182 65.5317V66.3228C99.0182 66.3618 99.028 66.3813 99.0475 66.3813C99.0735 66.3813 99.1403 66.3049 99.2477 66.1519C99.5569 65.7189 99.8125 65.5024 100.014 65.5024C100.128 65.5024 100.302 65.548 100.537 65.6392C100.774 65.7303 100.893 65.8068 100.893 65.8687C100.893 65.9435 100.856 66.0575 100.781 66.2104C100.706 66.3634 100.631 66.4399 100.556 66.4399ZM102.026 67.3677C101.971 67.3677 101.943 67.4865 101.943 67.7241C101.943 68.2287 102.093 68.6519 102.392 68.9937C102.692 69.3354 103.063 69.5063 103.505 69.5063C103.951 69.5063 104.38 69.3143 104.79 68.9302C104.796 68.9237 104.804 68.9204 104.814 68.9204H104.839C104.858 68.9204 104.876 68.9367 104.892 68.9692C104.912 68.9985 104.93 69.0181 104.946 69.0278C104.568 69.4868 104.124 69.8042 103.613 69.98C103.437 70.0418 103.239 70.0728 103.017 70.0728C102.796 70.0728 102.571 70.0125 102.343 69.8921C102.116 69.7684 101.92 69.6073 101.757 69.4087C101.412 68.9953 101.24 68.481 101.24 67.8657C101.24 67.2472 101.427 66.6841 101.801 66.1763C102.179 65.6685 102.697 65.4146 103.354 65.4146C103.826 65.4146 104.212 65.6261 104.511 66.0493C104.811 66.4692 104.961 66.8387 104.961 67.1577C104.961 67.2977 104.926 67.3677 104.858 67.3677H102.026ZM102.08 66.8989C102.08 66.9608 102.109 66.9917 102.168 66.9917H104.008C104.093 66.9917 104.135 66.9412 104.135 66.8403C104.135 66.606 104.03 66.3667 103.818 66.1226C103.61 65.8752 103.38 65.7515 103.13 65.7515C102.885 65.7515 102.662 65.8621 102.461 66.0835C102.262 66.3049 102.135 66.5571 102.08 66.8403V66.8989ZM103.291 63.6372C103.281 63.6274 103.263 63.6079 103.237 63.5786C103.211 63.5493 103.195 63.5347 103.188 63.5347C103.182 63.5347 103.165 63.5493 103.139 63.5786C103.116 63.6079 103.1 63.6274 103.09 63.6372L102.046 64.731C102.033 64.744 102.016 64.7505 101.997 64.7505C101.98 64.7505 101.956 64.7293 101.923 64.687C101.891 64.6414 101.875 64.6105 101.875 64.5942C101.875 64.578 101.886 64.5535 101.909 64.521L103.071 62.9438C103.09 62.9243 103.11 62.9032 103.13 62.8804C103.152 62.8576 103.172 62.8462 103.188 62.8462C103.217 62.8462 103.26 62.882 103.315 62.9536L104.526 64.521C104.549 64.5568 104.56 64.5828 104.56 64.5991C104.56 64.6121 104.544 64.6414 104.511 64.687C104.479 64.7293 104.454 64.7505 104.438 64.7505C104.425 64.7505 104.412 64.744 104.399 64.731L103.291 63.6372ZM106.967 66.186C106.948 66.186 106.938 66.2007 106.938 66.23V68.9253C106.938 69.1206 106.98 69.2736 107.065 69.3843C107.153 69.495 107.264 69.5503 107.397 69.5503C107.531 69.5503 107.646 69.5291 107.744 69.4868C107.845 69.4412 107.931 69.3924 108.003 69.3403C108.077 69.2882 108.144 69.241 108.203 69.1987C108.261 69.1532 108.313 69.1304 108.359 69.1304C108.405 69.1304 108.427 69.1418 108.427 69.1646C108.427 69.2427 108.419 69.2931 108.403 69.3159C108.012 69.8205 107.635 70.0728 107.27 70.0728C106.909 70.0728 106.635 69.9588 106.45 69.731C106.268 69.4998 106.176 69.2248 106.176 68.9058V66.186H105.81C105.719 66.186 105.67 66.1567 105.664 66.0981C105.66 66.0396 105.67 66.0021 105.693 65.9858C105.866 65.8752 106.103 65.6766 106.406 65.3901C106.438 65.3543 106.482 65.3006 106.538 65.229C106.593 65.1574 106.673 65.0597 106.777 64.936C106.884 64.8123 106.966 64.7505 107.021 64.7505C107.076 64.7505 107.104 64.7733 107.104 64.8188C107.104 64.8254 107.049 65.0386 106.938 65.4585C106.938 65.5171 106.964 65.548 107.016 65.5513H108.261C108.405 65.5513 108.476 65.7531 108.476 66.1567C108.476 66.1763 108.463 66.186 108.437 66.186H106.967ZM109.731 67.3677C109.676 67.3677 109.648 67.4865 109.648 67.7241C109.648 68.2287 109.798 68.6519 110.097 68.9937C110.397 69.3354 110.768 69.5063 111.211 69.5063C111.657 69.5063 112.085 69.3143 112.495 68.9302C112.501 68.9237 112.509 68.9204 112.519 68.9204H112.544C112.563 68.9204 112.581 68.9367 112.597 68.9692C112.617 68.9985 112.635 69.0181 112.651 69.0278C112.273 69.4868 111.829 69.8042 111.318 69.98C111.142 70.0418 110.944 70.0728 110.722 70.0728C110.501 70.0728 110.276 70.0125 110.048 69.8921C109.821 69.7684 109.625 69.6073 109.463 69.4087C109.117 68.9953 108.945 68.481 108.945 67.8657C108.945 67.2472 109.132 66.6841 109.506 66.1763C109.884 65.6685 110.402 65.4146 111.059 65.4146C111.531 65.4146 111.917 65.6261 112.216 66.0493C112.516 66.4692 112.666 66.8387 112.666 67.1577C112.666 67.2977 112.631 67.3677 112.563 67.3677H109.731ZM109.785 66.8989C109.785 66.9608 109.814 66.9917 109.873 66.9917H111.714C111.798 66.9917 111.84 66.9412 111.84 66.8403C111.84 66.606 111.735 66.3667 111.523 66.1226C111.315 65.8752 111.085 65.7515 110.835 65.7515C110.59 65.7515 110.367 65.8621 110.166 66.0835C109.967 66.3049 109.84 66.5571 109.785 66.8403V66.8989ZM116.455 66.4399C116.416 66.4334 116.359 66.4123 116.284 66.3765C116.014 66.2528 115.802 66.1909 115.649 66.1909C115.496 66.1909 115.335 66.2869 115.166 66.479C115 66.6678 114.917 66.8387 114.917 66.9917V69.1987C114.917 69.4429 115.058 69.6056 115.341 69.687C115.465 69.7196 115.581 69.744 115.688 69.7603C115.796 69.7733 115.864 69.7863 115.893 69.7993C115.926 69.8123 115.942 69.8384 115.942 69.8774C115.942 69.9132 115.926 69.9344 115.893 69.9409H113.447C113.414 69.9344 113.398 69.9116 113.398 69.8726C113.398 69.814 113.475 69.7749 113.628 69.7554C113.979 69.7033 114.155 69.5177 114.155 69.1987V66.6157C114.155 66.479 114.08 66.3846 113.93 66.3325C113.865 66.3097 113.795 66.2918 113.72 66.2788C113.645 66.2625 113.585 66.2479 113.54 66.2349C113.497 66.2218 113.47 66.2104 113.457 66.2007C113.447 66.1877 113.442 66.1632 113.442 66.1274C113.442 66.0884 113.466 66.0558 113.515 66.0298L114.76 65.4438C114.799 65.4243 114.824 65.4146 114.834 65.4146C114.889 65.4146 114.917 65.4536 114.917 65.5317V66.3228C114.917 66.3618 114.926 66.3813 114.946 66.3813C114.972 66.3813 115.039 66.3049 115.146 66.1519C115.455 65.7189 115.711 65.5024 115.913 65.5024C116.027 65.5024 116.201 65.548 116.435 65.6392C116.673 65.7303 116.792 65.8068 116.792 65.8687C116.792 65.9435 116.754 66.0575 116.679 66.2104C116.604 66.3634 116.53 66.4399 116.455 66.4399ZM117.431 69.4526C117.431 69.2769 117.493 69.1255 117.617 68.9985C117.741 68.8683 117.89 68.8032 118.066 68.8032C118.239 68.8032 118.387 68.8667 118.51 68.9937C118.637 69.1174 118.701 69.2687 118.701 69.4478C118.701 69.6268 118.639 69.7765 118.515 69.897C118.392 70.0142 118.242 70.0728 118.066 70.0728C117.894 70.0728 117.744 70.0125 117.617 69.8921C117.493 69.7716 117.431 69.6252 117.431 69.4526Z" fill="#EFB85F"/>
<path d="M17.5002 10L18.696 11.9748L21 13L18.696 14.0249L17.5002 16L16.304 14.0249L14 13L16.304 11.9748L17.5002 10Z" fill="#EFB85F"/>
<path d="M17.5002 86L18.696 87.9748L21 89L18.696 90.0249L17.5002 92L16.304 90.0249L14 89L16.304 87.9748L17.5002 86Z" fill="#EFB85F"/>
<path d="M124.5 84L125.696 85.9748L128 87L125.696 88.0249L124.5 90L123.304 88.0249L121 87L123.304 85.9748L124.5 84Z" fill="#EFB85F"/>
<path d="M80.5002 90L81.696 91.9748L84 93L81.696 94.0249L80.5002 96L79.304 94.0249L77 93L79.304 91.9748L80.5002 90Z" fill="#EFB85F"/>
<path d="M120.5 7L121.696 8.97475L124 10L121.696 11.0249L120.5 13L119.304 11.0249L117 10L119.304 8.97475L120.5 7Z" fill="#EFB85F"/>
<path d="M95.125 16.6259C95.1509 16.3615 95.1942 15.7335 95.2288 15.2377C95.2634 14.6647 95.324 14.3011 95.3932 14.2681C95.4538 14.235 95.7307 14.4113 95.999 14.6537C96.2759 14.9071 96.5182 15.0834 96.5441 15.0504C96.5615 15.0283 96.397 14.6757 96.1807 14.2791C95.9038 13.7943 95.8086 13.5519 95.8865 13.5189C95.9471 13.4968 96.3884 13.4197 96.8643 13.3426C98.3873 13.1222 98.3787 13.001 96.8384 12.7917C96.3019 12.7145 95.8519 12.6154 95.8346 12.5823C95.8086 12.5382 95.973 12.2187 96.1807 11.8661C96.3884 11.5025 96.5441 11.183 96.5182 11.15C96.4922 11.1279 96.2326 11.3152 95.9471 11.5687C95.6528 11.8331 95.3932 11.9984 95.3586 11.9543C95.3154 11.8992 95.2461 11.2381 95.1856 10.4779C95.0298 8.49462 94.9606 8.50564 94.7962 10.5219C94.7356 11.2822 94.6664 11.9433 94.6317 11.9763C94.6058 12.0094 94.3462 11.8331 94.052 11.5797C93.7664 11.3152 93.5155 11.1279 93.4895 11.161C93.4722 11.183 93.602 11.4805 93.7924 11.8111C93.9827 12.1306 94.1385 12.4611 94.1385 12.5272C94.1385 12.6044 93.7664 12.7035 93.1607 12.7917C91.6117 13.001 91.6117 13.1222 93.1693 13.3536C93.7577 13.4417 94.1385 13.5519 94.1385 13.618C94.1385 13.6841 93.9827 14.0147 93.7924 14.3342C93.3857 15.0283 93.351 15.2046 93.6799 14.9292C93.8183 14.83 94.0693 14.6096 94.251 14.4554C94.6664 14.1138 94.701 14.1689 94.7789 15.3589C94.8913 17.1107 95.0211 17.5735 95.125 16.6259Z" fill="#EFB85F"/>
<path d="M39.125 89.6259C39.1509 89.3615 39.1942 88.7335 39.2288 88.2377C39.2634 87.6647 39.324 87.3011 39.3932 87.2681C39.4538 87.235 39.7307 87.4113 39.999 87.6537C40.2759 87.9071 40.5182 88.0834 40.5441 88.0504C40.5615 88.0283 40.397 87.6757 40.1807 87.2791C39.9038 86.7943 39.8086 86.5519 39.8865 86.5189C39.9471 86.4968 40.3884 86.4197 40.8643 86.3426C42.3873 86.1222 42.3787 86.001 40.8384 85.7917C40.3019 85.7145 39.8519 85.6154 39.8346 85.5823C39.8086 85.5382 39.973 85.2187 40.1807 84.8661C40.3884 84.5025 40.5441 84.183 40.5182 84.15C40.4922 84.1279 40.2326 84.3152 39.9471 84.5687C39.6528 84.8331 39.3932 84.9984 39.3586 84.9543C39.3154 84.8992 39.2461 84.2381 39.1856 83.4779C39.0298 81.4946 38.9606 81.5056 38.7962 83.5219C38.7356 84.2822 38.6664 84.9433 38.6317 84.9763C38.6058 85.0094 38.3462 84.8331 38.052 84.5797C37.7664 84.3152 37.5155 84.1279 37.4895 84.161C37.4722 84.183 37.602 84.4805 37.7924 84.8111C37.9827 85.1306 38.1385 85.4611 38.1385 85.5272C38.1385 85.6044 37.7664 85.7035 37.1607 85.7917C35.6117 86.001 35.6117 86.1222 37.1693 86.3536C37.7577 86.4417 38.1385 86.5519 38.1385 86.618C38.1385 86.6841 37.9827 87.0147 37.7924 87.3342C37.3857 88.0283 37.351 88.2046 37.6799 87.9292C37.8183 87.83 38.0693 87.6096 38.251 87.4554C38.6664 87.1138 38.701 87.1689 38.7789 88.3589C38.8913 90.1107 39.0211 90.5735 39.125 89.6259Z" fill="#EFB85F"/>
<path d="M110.125 99.6259C110.151 99.3615 110.194 98.7335 110.229 98.2377C110.263 97.6647 110.324 97.3011 110.393 97.2681C110.454 97.235 110.731 97.4113 110.999 97.6537C111.276 97.9071 111.518 98.0834 111.544 98.0504C111.561 98.0283 111.397 97.6757 111.181 97.2791C110.904 96.7943 110.809 96.5519 110.886 96.5189C110.947 96.4968 111.388 96.4197 111.864 96.3426C113.387 96.1222 113.379 96.001 111.838 95.7917C111.302 95.7145 110.852 95.6154 110.835 95.5823C110.809 95.5382 110.973 95.2187 111.181 94.8661C111.388 94.5025 111.544 94.183 111.518 94.15C111.492 94.1279 111.233 94.3152 110.947 94.5687C110.653 94.8331 110.393 94.9984 110.359 94.9543C110.315 94.8992 110.246 94.2381 110.186 93.4779C110.03 91.4946 109.961 91.5056 109.796 93.5219C109.736 94.2822 109.666 94.9433 109.632 94.9763C109.606 95.0094 109.346 94.8331 109.052 94.5797C108.766 94.3152 108.515 94.1279 108.489 94.161C108.472 94.183 108.602 94.4805 108.792 94.8111C108.983 95.1306 109.138 95.4611 109.138 95.5272C109.138 95.6044 108.766 95.7035 108.161 95.7917C106.612 96.001 106.612 96.1222 108.169 96.3536C108.758 96.4417 109.138 96.5519 109.138 96.618C109.138 96.6841 108.983 97.0147 108.792 97.3342C108.386 98.0283 108.351 98.2046 108.68 97.9292C108.818 97.83 109.069 97.6096 109.251 97.4554C109.666 97.1138 109.701 97.1689 109.779 98.3589C109.891 100.111 110.021 100.573 110.125 99.6259Z" fill="#EFB85F"/>
<path d="M53.125 12.6259C53.1509 12.3615 53.1942 11.7335 53.2288 11.2377C53.2634 10.6647 53.324 10.3011 53.3932 10.2681C53.4538 10.235 53.7307 10.4113 53.999 10.6537C54.2759 10.9071 54.5182 11.0834 54.5441 11.0504C54.5615 11.0283 54.397 10.6757 54.1807 10.2791C53.9038 9.7943 53.8086 9.55191 53.8865 9.51885C53.9471 9.49682 54.3884 9.41969 54.8643 9.34256C56.3873 9.1222 56.3787 9.001 54.8384 8.79166C54.3019 8.71453 53.8519 8.61537 53.8346 8.58232C53.8086 8.53825 53.973 8.21872 54.1807 7.86614C54.3884 7.50255 54.5441 7.18302 54.5182 7.14997C54.4922 7.12793 54.2326 7.31524 53.9471 7.56866C53.6528 7.83309 53.3932 7.99836 53.3586 7.95429C53.3154 7.8992 53.2461 7.23811 53.1856 6.47787C53.0298 4.49462 52.9606 4.50564 52.7962 6.52194C52.7356 7.28219 52.6664 7.94327 52.6317 7.97632C52.6058 8.00938 52.3462 7.83309 52.052 7.57967C51.7664 7.31524 51.5155 7.12793 51.4895 7.16099C51.4722 7.18302 51.602 7.48051 51.7924 7.81105C51.9827 8.13058 52.1385 8.46112 52.1385 8.52723C52.1385 8.60435 51.7664 8.70352 51.1607 8.79166C49.6117 9.001 49.6117 9.1222 51.1693 9.35358C51.7577 9.44173 52.1385 9.55191 52.1385 9.61802C52.1385 9.68412 51.9827 10.0147 51.7924 10.3342C51.3857 11.0283 51.351 11.2046 51.6799 10.9292C51.8183 10.83 52.0693 10.6096 52.251 10.4554C52.6664 10.1138 52.701 10.1689 52.7789 11.3589C52.8913 13.1107 53.0211 13.5735 53.125 12.6259Z" fill="#EFB85F"/>
<circle cx="26" cy="81" r="1" fill="#EFB85F"/>
<circle cx="57" cy="96" r="1" fill="#EFB85F"/>
<circle cx="111" cy="84" r="1" fill="#EFB85F"/>
<circle cx="139" cy="16" r="1" fill="#EFB85F"/>
<circle cx="143" cy="55" r="1" fill="#EFB85F"/>
<circle cx="139" cy="93" r="1" fill="#EFB85F"/>
<circle cx="36" cy="10" r="1" fill="#EFB85F"/>
<circle cx="75" cy="6" r="1" fill="#EFB85F"/>
<path d="M30.1536 96.762L33.0001 96.6487L30.1536 96.5354L31.0464 95.3761L30.0932 96.4619L30 93L29.9069 96.4619L28.9537 95.3761L29.8465 96.5354L27 96.6487L29.8465 96.762L28.9537 97.9212L29.9069 96.8354L30 100.297L30.0932 96.8354L31.0464 97.9212L30.1536 96.762Z" fill="#EFB85F"/>
<path d="M11.1536 76.762L14.0001 76.6487L11.1536 76.5354L12.0464 75.3761L11.0932 76.4619L11 73L10.9069 76.4619L9.95375 75.3761L10.8465 76.5354L8 76.6487L10.8465 76.762L9.95375 77.9212L10.9069 76.8354L11 80.2973L11.0932 76.8354L12.0464 77.9212L11.1536 76.762Z" fill="#EFB85F"/>
<path d="M68.1536 11.762L71.0001 11.6487L68.1536 11.5354L69.0464 10.3761L68.0932 11.4619L68 8L67.9069 11.4619L66.9537 10.3761L67.8465 11.5354L65 11.6487L67.8465 11.762L66.9537 12.9212L67.9069 11.8354L68 15.2973L68.0932 11.8354L69.0464 12.9212L68.1536 11.762Z" fill="#EFB85F"/>
<path d="M137.154 76.762L140 76.6487L137.154 76.5354L138.046 75.3761L137.093 76.4619L137 73L136.907 76.4619L135.954 75.3761L136.847 76.5354L134 76.6487L136.847 76.762L135.954 77.9212L136.907 76.8354L137 80.2973L137.093 76.8354L138.046 77.9212L137.154 76.762Z" fill="#EFB85F"/>
<path d="M129.154 95.762L132 95.6487L129.154 95.5354L130.046 94.3761L129.093 95.4619L129 92L128.907 95.4619L127.954 94.3761L128.847 95.5354L126 95.6487L128.847 95.762L127.954 96.9212L128.907 95.8354L129 99.2973L129.093 95.8354L130.046 96.9212L129.154 95.762Z" fill="#EFB85F"/>
<path d="M8.15357 18.762L11.0001 18.6487L8.15357 18.5354L9.04635 17.3761L8.09316 18.4619L8.00005 15L7.90694 18.4619L6.95375 17.3761L7.84653 18.5354L5 18.6487L7.84653 18.762L6.95375 19.9212L7.90694 18.8354L8.00005 22.2973L8.09316 18.8354L9.04635 19.9212L8.15357 18.762Z" fill="#EFB85F"/>
</svg>
