<svg width="148" height="105" viewBox="0 0 148 105" fill="none" xmlns="http://www.w3.org/2000/svg">
<rect width="147.402" height="104.882" rx="10" fill="black"/>
<rect x="8.625" y="8.625" width="130.152" height="87.6319" rx="5.375" stroke="#EFB85F" stroke-width="1.25"/>
<rect x="14.375" y="14.375" width="118.652" height="76.1319" rx="2.625" stroke="#EFB85F" stroke-width="0.75"/>
<path d="M43.2188 56.8125C42.9688 56.8125 42.8438 56.7188 42.8438 56.5312C42.8438 56.3333 42.8854 56.1719 42.9688 56.0469L52.6562 41.8125C52.8125 41.5729 52.9948 41.4531 53.2031 41.4531C53.4115 41.4531 53.5729 41.4688 53.6875 41.5C53.8125 41.5312 53.875 41.651 53.875 41.8594V54.7031C53.875 54.8698 53.901 54.9792 53.9531 55.0312C54.0052 55.0729 54.1094 55.0938 54.2656 55.0938H56.7812C56.8958 55.0938 57.0052 55.1042 57.1094 55.125C57.2135 55.1458 57.2656 55.2292 57.2656 55.375V56.4375C57.2656 56.6875 57.1615 56.8125 56.9531 56.8125H54.2812C54.0833 56.8125 53.9635 56.8385 53.9219 56.8906C53.8906 56.9427 53.875 57.0417 53.875 57.1875V63.2344C53.875 63.4635 53.7865 63.5781 53.6094 63.5781H51.9219C51.7135 63.5781 51.6094 63.4583 51.6094 63.2188V57.1875C51.6094 57.0417 51.5833 56.9427 51.5312 56.8906C51.4896 56.8385 51.3802 56.8125 51.2031 56.8125H43.2188ZM51.6094 46.125C51.6094 45.7188 51.4844 45.5156 51.2344 45.5156C51.151 45.5156 51 45.625 50.7812 45.8438L44.7812 54.7812C44.7396 54.8333 44.7188 54.901 44.7188 54.9844C44.7188 55.0573 44.8802 55.0938 45.2031 55.0938H51.2031C51.3802 55.0938 51.4896 55.0573 51.5312 54.9844C51.5833 54.9115 51.6094 54.8125 51.6094 54.6875V46.125ZM79.7969 53.9688V56.1094H68.1875V53.9688H79.7969ZM98.9531 50.0156C99.0781 49.9948 99.2656 49.9844 99.5156 49.9844C100.724 49.9844 101.833 50.4896 102.844 51.5C103.854 52.5104 104.359 53.8021 104.359 55.375C104.359 56.9375 103.943 58.3177 103.109 59.5156C102.286 60.7135 101.255 61.6667 100.016 62.375C98.7865 63.0729 97.5938 63.4219 96.4375 63.4219C93.9062 63.4219 92.1823 62.9115 91.2656 61.8906C91.026 61.6302 90.8542 61.3177 90.75 60.9531C90.75 60.2552 91.1823 59.9062 92.0469 59.9062C92.2656 59.9062 92.7031 60.1667 93.3594 60.6875C94.026 61.1979 94.651 61.6198 95.2344 61.9531C95.8177 62.2865 96.474 62.4427 97.2031 62.4219C98.5677 62.3802 99.6771 61.724 100.531 60.4531C101.396 59.1719 101.828 57.776 101.828 56.2656C101.828 54.7448 101.453 53.599 100.703 52.8281C99.9531 52.0573 99.0625 51.6719 98.0312 51.6719C97.4792 51.6719 97.0208 51.776 96.6562 51.9844C96.2917 52.1823 96.0781 52.3229 96.0156 52.4062C95.9531 52.4896 95.8958 52.5312 95.8438 52.5312C95.8021 52.5312 95.7448 52.4896 95.6719 52.4062C95.599 52.3229 95.5625 52.25 95.5625 52.1875C95.5625 52.125 95.5938 52.0625 95.6562 52C95.7292 51.9271 95.8125 51.8542 95.9062 51.7812C96 51.6979 96.0938 51.6198 96.1875 51.5469C98.7812 49.526 100.078 47.7552 100.078 46.2344C100.078 45.3594 99.75 44.6302 99.0938 44.0469C98.4375 43.4635 97.7396 43.1719 97 43.1719C95.0833 43.1719 93.5365 44.25 92.3594 46.4062C92.349 46.4167 92.3073 46.4219 92.2344 46.4219C92.1719 46.4219 92.0729 46.3906 91.9375 46.3281C91.8021 46.2656 91.7344 46.2188 91.7344 46.1875C91.7344 46.1562 91.7448 46.1094 91.7656 46.0469C91.7969 45.9844 91.8802 45.7812 92.0156 45.4375C92.151 45.0938 92.4323 44.6562 92.8594 44.125C93.2969 43.5833 93.776 43.1146 94.2969 42.7188C95.4115 41.875 96.4167 41.4531 97.3125 41.4531C98.9583 41.4531 100.208 41.7812 101.062 42.4375C101.917 43.0938 102.344 44.0104 102.344 45.1875C102.344 46.3542 101.708 47.5729 100.438 48.8438C100.219 49.0104 99.9062 49.2344 99.5 49.5156C99.1042 49.7865 98.9062 49.9479 98.9062 50V50.0156H98.9531Z" fill="#EFB85F"/>
<path d="M60.5002 75L61.696 76.9748L64 78L61.696 79.0249L60.5002 81L59.304 79.0249L57 78L59.304 76.9748L60.5002 75Z" fill="#EFB85F"/>
<path d="M77.5002 69L78.696 70.9748L81 72L78.696 73.0249L77.5002 75L76.304 73.0249L74 72L76.304 70.9748L77.5002 69Z" fill="#EFB85F"/>
<path d="M117.5 52L118.696 53.9748L121 55L118.696 56.0249L117.5 58L116.304 56.0249L114 55L116.304 53.9748L117.5 52Z" fill="#EFB85F"/>
<path d="M45.5002 23L46.696 24.9748L49 26L46.696 27.0249L45.5002 29L44.304 27.0249L42 26L44.304 24.9748L45.5002 23Z" fill="#EFB85F"/>
<path d="M35.125 76.6259C35.1509 76.3615 35.1942 75.7335 35.2288 75.2377C35.2634 74.6647 35.324 74.3011 35.3932 74.2681C35.4538 74.235 35.7307 74.4113 35.999 74.6537C36.2759 74.9071 36.5182 75.0834 36.5441 75.0504C36.5615 75.0283 36.397 74.6757 36.1807 74.2791C35.9038 73.7943 35.8086 73.5519 35.8865 73.5189C35.9471 73.4968 36.3884 73.4197 36.8643 73.3426C38.3873 73.1222 38.3787 73.001 36.8384 72.7917C36.3019 72.7145 35.8519 72.6154 35.8346 72.5823C35.8086 72.5382 35.973 72.2187 36.1807 71.8661C36.3884 71.5025 36.5441 71.183 36.5182 71.15C36.4922 71.1279 36.2326 71.3152 35.9471 71.5687C35.6528 71.8331 35.3932 71.9984 35.3586 71.9543C35.3154 71.8992 35.2461 71.2381 35.1856 70.4779C35.0298 68.4946 34.9606 68.5056 34.7962 70.5219C34.7356 71.2822 34.6664 71.9433 34.6317 71.9763C34.6058 72.0094 34.3462 71.8331 34.052 71.5797C33.7664 71.3152 33.5155 71.1279 33.4895 71.161C33.4722 71.183 33.602 71.4805 33.7924 71.8111C33.9827 72.1306 34.1385 72.4611 34.1385 72.5272C34.1385 72.6044 33.7664 72.7035 33.1607 72.7917C31.6117 73.001 31.6117 73.1222 33.1693 73.3536C33.7577 73.4417 34.1385 73.5519 34.1385 73.618C34.1385 73.6841 33.9827 74.0147 33.7924 74.3342C33.3857 75.0283 33.351 75.2046 33.6799 74.9292C33.8183 74.83 34.0693 74.6096 34.251 74.4554C34.6664 74.1138 34.701 74.1689 34.7789 75.3589C34.8913 77.1107 35.0211 77.5735 35.125 76.6259Z" fill="#EFB85F"/>
<path d="M108.125 34.6259C108.151 34.3615 108.194 33.7335 108.229 33.2377C108.263 32.6647 108.324 32.3011 108.393 32.2681C108.454 32.235 108.731 32.4113 108.999 32.6537C109.276 32.9071 109.518 33.0834 109.544 33.0504C109.561 33.0283 109.397 32.6757 109.181 32.2791C108.904 31.7943 108.809 31.5519 108.886 31.5189C108.947 31.4968 109.388 31.4197 109.864 31.3426C111.387 31.1222 111.379 31.001 109.838 30.7917C109.302 30.7145 108.852 30.6154 108.835 30.5823C108.809 30.5382 108.973 30.2187 109.181 29.8661C109.388 29.5025 109.544 29.183 109.518 29.15C109.492 29.1279 109.233 29.3152 108.947 29.5687C108.653 29.8331 108.393 29.9984 108.359 29.9543C108.315 29.8992 108.246 29.2381 108.186 28.4779C108.03 26.4946 107.961 26.5056 107.796 28.5219C107.736 29.2822 107.666 29.9433 107.632 29.9763C107.606 30.0094 107.346 29.8331 107.052 29.5797C106.766 29.3152 106.515 29.1279 106.489 29.161C106.472 29.183 106.602 29.4805 106.792 29.8111C106.983 30.1306 107.138 30.4611 107.138 30.5272C107.138 30.6044 106.766 30.7035 106.161 30.7917C104.612 31.001 104.612 31.1222 106.169 31.3536C106.758 31.4417 107.138 31.5519 107.138 31.618C107.138 31.6841 106.983 32.0147 106.792 32.3342C106.386 33.0283 106.351 33.2046 106.68 32.9292C106.818 32.83 107.069 32.6096 107.251 32.4554C107.666 32.1138 107.701 32.1689 107.779 33.3589C107.891 35.1107 108.021 35.5735 108.125 34.6259Z" fill="#EFB85F"/>
<path d="M67.125 44.6259C67.1509 44.3615 67.1942 43.7335 67.2288 43.2377C67.2634 42.6647 67.324 42.3011 67.3932 42.2681C67.4538 42.235 67.7307 42.4113 67.999 42.6537C68.2759 42.9071 68.5182 43.0834 68.5441 43.0504C68.5615 43.0283 68.397 42.6757 68.1807 42.2791C67.9038 41.7943 67.8086 41.5519 67.8865 41.5189C67.9471 41.4968 68.3884 41.4197 68.8643 41.3426C70.3873 41.1222 70.3787 41.001 68.8384 40.7917C68.3019 40.7145 67.8519 40.6154 67.8346 40.5823C67.8086 40.5382 67.973 40.2187 68.1807 39.8661C68.3884 39.5025 68.5441 39.183 68.5182 39.15C68.4922 39.1279 68.2326 39.3152 67.9471 39.5687C67.6528 39.8331 67.3932 39.9984 67.3586 39.9543C67.3154 39.8992 67.2461 39.2381 67.1856 38.4779C67.0298 36.4946 66.9606 36.5056 66.7962 38.5219C66.7356 39.2822 66.6664 39.9433 66.6317 39.9763C66.6058 40.0094 66.3462 39.8331 66.052 39.5797C65.7664 39.3152 65.5155 39.1279 65.4895 39.161C65.4722 39.183 65.602 39.4805 65.7924 39.8111C65.9827 40.1306 66.1385 40.4611 66.1385 40.5272C66.1385 40.6044 65.7664 40.7035 65.1607 40.7917C63.6117 41.001 63.6117 41.1222 65.1693 41.3536C65.7577 41.4417 66.1385 41.5519 66.1385 41.618C66.1385 41.6841 65.9827 42.0147 65.7924 42.3342C65.3857 43.0283 65.351 43.2046 65.6799 42.9292C65.8183 42.83 66.0693 42.6096 66.251 42.4554C66.6664 42.1138 66.701 42.1689 66.7789 43.3589C66.8913 45.1107 67.0211 45.5735 67.125 44.6259Z" fill="#EFB85F"/>
<path d="M26.125 65.6259C26.1509 65.3615 26.1942 64.7335 26.2288 64.2377C26.2634 63.6647 26.324 63.3011 26.3932 63.2681C26.4538 63.235 26.7307 63.4113 26.999 63.6537C27.2759 63.9071 27.5182 64.0834 27.5441 64.0504C27.5615 64.0283 27.397 63.6757 27.1807 63.2791C26.9038 62.7943 26.8086 62.5519 26.8865 62.5189C26.9471 62.4968 27.3884 62.4197 27.8643 62.3426C29.3873 62.1222 29.3787 62.001 27.8384 61.7917C27.3019 61.7145 26.8519 61.6154 26.8346 61.5823C26.8086 61.5382 26.973 61.2187 27.1807 60.8661C27.3884 60.5025 27.5441 60.183 27.5182 60.15C27.4922 60.1279 27.2326 60.3152 26.9471 60.5687C26.6528 60.8331 26.3932 60.9984 26.3586 60.9543C26.3154 60.8992 26.2461 60.2381 26.1856 59.4779C26.0298 57.4946 25.9606 57.5056 25.7962 59.5219C25.7356 60.2822 25.6664 60.9433 25.6317 60.9763C25.6058 61.0094 25.3462 60.8331 25.052 60.5797C24.7664 60.3152 24.5155 60.1279 24.4895 60.161C24.4722 60.183 24.602 60.4805 24.7924 60.8111C24.9827 61.1306 25.1385 61.4611 25.1385 61.5272C25.1385 61.6044 24.7664 61.7035 24.1607 61.7917C22.6117 62.001 22.6117 62.1222 24.1693 62.3536C24.7577 62.4417 25.1385 62.5519 25.1385 62.618C25.1385 62.6841 24.9827 63.0147 24.7924 63.3342C24.3857 64.0283 24.351 64.2046 24.6799 63.9292C24.8183 63.83 25.0693 63.6096 25.251 63.4554C25.6664 63.1138 25.701 63.1689 25.7789 64.3589C25.8913 66.1107 26.0211 66.5735 26.125 65.6259Z" fill="#EFB85F"/>
<path d="M105.154 78.762L108 78.6487L105.154 78.5354L106.046 77.3761L105.093 78.4619L105 75L104.907 78.4619L103.954 77.3761L104.847 78.5354L102 78.6487L104.847 78.762L103.954 79.9212L104.907 78.8354L105 82.2973L105.093 78.8354L106.046 79.9212L105.154 78.762Z" fill="#EFB85F"/>
<path d="M118.154 36.762L121 36.6487L118.154 36.5354L119.046 35.3761L118.093 36.4619L118 33L117.907 36.4619L116.954 35.3761L117.847 36.5354L115 36.6487L117.847 36.762L116.954 37.9212L117.907 36.8354L118 40.2973L118.093 36.8354L119.046 37.9212L118.154 36.762Z" fill="#EFB85F"/>
<path d="M64.1536 26.762L67.0001 26.6487L64.1536 26.5354L65.0464 25.3761L64.0932 26.4619L64 23L63.9069 26.4619L62.9537 25.3761L63.8465 26.5354L61 26.6487L63.8465 26.762L62.9537 27.9212L63.9069 26.8354L64 30.2973L64.0932 26.8354L65.0464 27.9212L64.1536 26.762Z" fill="#EFB85F"/>
<path d="M91.1536 36.762L94.0001 36.6487L91.1536 36.5354L92.0464 35.3761L91.0932 36.4619L91 33L90.9069 36.4619L89.9537 35.3761L90.8465 36.5354L88 36.6487L90.8465 36.762L89.9537 37.9212L90.9069 36.8354L91 40.2973L91.0932 36.8354L92.0464 37.9212L91.1536 36.762Z" fill="#EFB85F"/>
<path d="M29.1536 40.762L32.0001 40.6487L29.1536 40.5354L30.0464 39.3761L29.0932 40.4619L29 37L28.9069 40.4619L27.9537 39.3761L28.8465 40.5354L26 40.6487L28.8465 40.762L27.9537 41.9212L28.9069 40.8354L29 44.2973L29.0932 40.8354L30.0464 41.9212L29.1536 40.762Z" fill="#EFB85F"/>
<path d="M45.1536 69.762L48.0001 69.6487L45.1536 69.5354L46.0464 68.3761L45.0932 69.4619L45 66L44.9069 69.4619L43.9537 68.3761L44.8465 69.5354L42 69.6487L44.8465 69.762L43.9537 70.9212L44.9069 69.8354L45 73.2973L45.0932 69.8354L46.0464 70.9212L45.1536 69.762Z" fill="#EFB85F"/>
<circle cx="26" cy="24" r="1" fill="#EFB85F"/>
<circle cx="20" cy="49" r="1" fill="#EFB85F"/>
<circle cx="26" cy="82" r="1" fill="#EFB85F"/>
<circle cx="116" cy="70" r="1" fill="#EFB85F"/>
<circle cx="88" cy="62" r="1" fill="#EFB85F"/>
<circle cx="124" cy="23" r="1" fill="#EFB85F"/>
<circle cx="94" cy="25" r="1" fill="#EFB85F"/>
<circle cx="123" cy="86" r="1" fill="#EFB85F"/>
<circle cx="86" cy="81" r="1" fill="#EFB85F"/>
</svg>
