<svg width="148" height="105" viewBox="0 0 148 105" fill="none" xmlns="http://www.w3.org/2000/svg">
<rect width="147.402" height="104.882" rx="10" fill="black"/>
<rect x="8.625" y="8.625" width="130.152" height="87.6319" rx="5.375" stroke="#EFB85F" stroke-width="1.25"/>
<rect x="14.375" y="14.375" width="118.652" height="76.1319" rx="2.625" stroke="#EFB85F" stroke-width="0.75"/>
<path d="M55.9219 41.4844C56.0885 41.4844 56.1719 41.5625 56.1719 41.7188C56.1719 41.875 55.7448 42.1875 54.8906 42.6562C54.0365 43.1146 53.5052 43.4167 53.2969 43.5625C52.6198 44.0208 51.9427 44.5208 51.2656 45.0625C49.0365 46.8542 47.9062 48.3177 47.875 49.4531C47.9583 49.4531 48.0521 49.4271 48.1562 49.375C48.2708 49.3229 48.4688 49.2396 48.75 49.125C49.0417 49.0104 49.5573 48.9531 50.2969 48.9531C51.0469 48.9531 51.849 49.1458 52.7031 49.5312C53.5677 49.9062 54.3125 50.4167 54.9375 51.0625C56.2708 52.4583 56.9375 54.1667 56.9375 56.1875C56.9375 58.2083 56.2552 59.9219 54.8906 61.3281C53.5365 62.724 51.849 63.4219 49.8281 63.4219C47.8177 63.4219 46.1927 62.5938 44.9531 60.9375C43.724 59.2812 43.1094 57.3542 43.1094 55.1562C43.1094 52.4167 44 50.0312 45.7812 48C47.3229 46.2396 49.9479 44.3438 53.6562 42.3125C54.0729 42.0833 54.5156 41.8906 54.9844 41.7344C55.4531 41.5677 55.7656 41.4844 55.9219 41.4844ZM45.7188 56.0625C45.7188 57.6979 46.026 59.1302 46.6406 60.3594C47.3906 61.849 48.4896 62.5938 49.9375 62.5938C51.3958 62.5938 52.4948 61.9323 53.2344 60.6094C53.8594 59.5052 54.1719 58.1667 54.1719 56.5938C54.1719 53.5208 53.349 51.4688 51.7031 50.4375C51.099 50.0625 50.3906 49.875 49.5781 49.875C48.1406 49.875 47.1198 50.4583 46.5156 51.625C46.0052 52.6146 45.7396 54.0365 45.7188 55.8906V56.0625ZM79.7969 53.9688V56.1094H68.1875V53.9688H79.7969ZM93.0156 46.9219C92.9427 46.9219 92.8385 46.7865 92.7031 46.5156C92.7031 46.4844 92.8906 46.349 93.2656 46.1094C93.6406 45.8594 94.3854 45.2396 95.5 44.25C96.6146 43.2604 97.5365 42.3281 98.2656 41.4531H99.1406C99.276 41.4531 99.3594 41.474 99.3906 41.5156C99.4219 41.5573 99.4375 41.6354 99.4375 41.75V60.8125C99.4375 61.4688 99.5052 61.8385 99.6406 61.9219C100.151 62.224 101.188 62.375 102.75 62.375C102.833 62.375 102.875 62.4167 102.875 62.5V62.875C102.875 62.9583 102.833 63 102.75 63H93.3438C93.2604 63 93.2188 62.9583 93.2188 62.875V62.5C93.2188 62.4167 93.2604 62.375 93.3438 62.375C93.8646 62.3438 94.3177 62.3229 94.7031 62.3125C95.0885 62.2917 95.4948 62.2604 95.9219 62.2188C96.349 62.1771 96.6458 62.1094 96.8125 62.0156C96.9896 61.9219 97.0938 61.7812 97.125 61.5938C97.1562 61.4062 97.1719 61.1615 97.1719 60.8594V44.2188C97.1823 44.1979 97.0677 44.2812 96.8281 44.4688C95.474 45.5521 94.2344 46.3646 93.1094 46.9062L93.0156 46.9219Z" fill="#EFB85F"/>
<path d="M60.5002 75L61.696 76.9748L64 78L61.696 79.0249L60.5002 81L59.304 79.0249L57 78L59.304 76.9748L60.5002 75Z" fill="#EFB85F"/>
<path d="M77.5002 69L78.696 70.9748L81 72L78.696 73.0249L77.5002 75L76.304 73.0249L74 72L76.304 70.9748L77.5002 69Z" fill="#EFB85F"/>
<path d="M117.5 52L118.696 53.9748L121 55L118.696 56.0249L117.5 58L116.304 56.0249L114 55L116.304 53.9748L117.5 52Z" fill="#EFB85F"/>
<path d="M45.5002 23L46.696 24.9748L49 26L46.696 27.0249L45.5002 29L44.304 27.0249L42 26L44.304 24.9748L45.5002 23Z" fill="#EFB85F"/>
<path d="M35.125 76.6259C35.1509 76.3615 35.1942 75.7335 35.2288 75.2377C35.2634 74.6647 35.324 74.3011 35.3932 74.2681C35.4538 74.235 35.7307 74.4113 35.999 74.6537C36.2759 74.9071 36.5182 75.0834 36.5441 75.0504C36.5615 75.0283 36.397 74.6757 36.1807 74.2791C35.9038 73.7943 35.8086 73.5519 35.8865 73.5189C35.9471 73.4968 36.3884 73.4197 36.8643 73.3426C38.3873 73.1222 38.3787 73.001 36.8384 72.7917C36.3019 72.7145 35.8519 72.6154 35.8346 72.5823C35.8086 72.5382 35.973 72.2187 36.1807 71.8661C36.3884 71.5025 36.5441 71.183 36.5182 71.15C36.4922 71.1279 36.2326 71.3152 35.9471 71.5687C35.6528 71.8331 35.3932 71.9984 35.3586 71.9543C35.3154 71.8992 35.2461 71.2381 35.1856 70.4779C35.0298 68.4946 34.9606 68.5056 34.7962 70.5219C34.7356 71.2822 34.6664 71.9433 34.6317 71.9763C34.6058 72.0094 34.3462 71.8331 34.052 71.5797C33.7664 71.3152 33.5155 71.1279 33.4895 71.161C33.4722 71.183 33.602 71.4805 33.7924 71.8111C33.9827 72.1306 34.1385 72.4611 34.1385 72.5272C34.1385 72.6044 33.7664 72.7035 33.1607 72.7917C31.6117 73.001 31.6117 73.1222 33.1693 73.3536C33.7577 73.4417 34.1385 73.5519 34.1385 73.618C34.1385 73.6841 33.9827 74.0147 33.7924 74.3342C33.3857 75.0283 33.351 75.2046 33.6799 74.9292C33.8183 74.83 34.0693 74.6096 34.251 74.4554C34.6664 74.1138 34.701 74.1689 34.7789 75.3589C34.8913 77.1107 35.0211 77.5735 35.125 76.6259Z" fill="#EFB85F"/>
<path d="M108.125 34.6259C108.151 34.3615 108.194 33.7335 108.229 33.2377C108.263 32.6647 108.324 32.3011 108.393 32.2681C108.454 32.235 108.731 32.4113 108.999 32.6537C109.276 32.9071 109.518 33.0834 109.544 33.0504C109.561 33.0283 109.397 32.6757 109.181 32.2791C108.904 31.7943 108.809 31.5519 108.886 31.5189C108.947 31.4968 109.388 31.4197 109.864 31.3426C111.387 31.1222 111.379 31.001 109.838 30.7917C109.302 30.7145 108.852 30.6154 108.835 30.5823C108.809 30.5382 108.973 30.2187 109.181 29.8661C109.388 29.5025 109.544 29.183 109.518 29.15C109.492 29.1279 109.233 29.3152 108.947 29.5687C108.653 29.8331 108.393 29.9984 108.359 29.9543C108.315 29.8992 108.246 29.2381 108.186 28.4779C108.03 26.4946 107.961 26.5056 107.796 28.5219C107.736 29.2822 107.666 29.9433 107.632 29.9763C107.606 30.0094 107.346 29.8331 107.052 29.5797C106.766 29.3152 106.515 29.1279 106.489 29.161C106.472 29.183 106.602 29.4805 106.792 29.8111C106.983 30.1306 107.138 30.4611 107.138 30.5272C107.138 30.6044 106.766 30.7035 106.161 30.7917C104.612 31.001 104.612 31.1222 106.169 31.3536C106.758 31.4417 107.138 31.5519 107.138 31.618C107.138 31.6841 106.983 32.0147 106.792 32.3342C106.386 33.0283 106.351 33.2046 106.68 32.9292C106.818 32.83 107.069 32.6096 107.251 32.4554C107.666 32.1138 107.701 32.1689 107.779 33.3589C107.891 35.1107 108.021 35.5735 108.125 34.6259Z" fill="#EFB85F"/>
<path d="M67.125 44.6259C67.1509 44.3615 67.1942 43.7335 67.2288 43.2377C67.2634 42.6647 67.324 42.3011 67.3932 42.2681C67.4538 42.235 67.7307 42.4113 67.999 42.6537C68.2759 42.9071 68.5182 43.0834 68.5441 43.0504C68.5615 43.0283 68.397 42.6757 68.1807 42.2791C67.9038 41.7943 67.8086 41.5519 67.8865 41.5189C67.9471 41.4968 68.3884 41.4197 68.8643 41.3426C70.3873 41.1222 70.3787 41.001 68.8384 40.7917C68.3019 40.7145 67.8519 40.6154 67.8346 40.5823C67.8086 40.5382 67.973 40.2187 68.1807 39.8661C68.3884 39.5025 68.5441 39.183 68.5182 39.15C68.4922 39.1279 68.2326 39.3152 67.9471 39.5687C67.6528 39.8331 67.3932 39.9984 67.3586 39.9543C67.3154 39.8992 67.2461 39.2381 67.1856 38.4779C67.0298 36.4946 66.9606 36.5056 66.7962 38.5219C66.7356 39.2822 66.6664 39.9433 66.6317 39.9763C66.6058 40.0094 66.3462 39.8331 66.052 39.5797C65.7664 39.3152 65.5155 39.1279 65.4895 39.161C65.4722 39.183 65.602 39.4805 65.7924 39.8111C65.9827 40.1306 66.1385 40.4611 66.1385 40.5272C66.1385 40.6044 65.7664 40.7035 65.1607 40.7917C63.6117 41.001 63.6117 41.1222 65.1693 41.3536C65.7577 41.4417 66.1385 41.5519 66.1385 41.618C66.1385 41.6841 65.9827 42.0147 65.7924 42.3342C65.3857 43.0283 65.351 43.2046 65.6799 42.9292C65.8183 42.83 66.0693 42.6096 66.251 42.4554C66.6664 42.1138 66.701 42.1689 66.7789 43.3589C66.8913 45.1107 67.0211 45.5735 67.125 44.6259Z" fill="#EFB85F"/>
<path d="M26.125 65.6259C26.1509 65.3615 26.1942 64.7335 26.2288 64.2377C26.2634 63.6647 26.324 63.3011 26.3932 63.2681C26.4538 63.235 26.7307 63.4113 26.999 63.6537C27.2759 63.9071 27.5182 64.0834 27.5441 64.0504C27.5615 64.0283 27.397 63.6757 27.1807 63.2791C26.9038 62.7943 26.8086 62.5519 26.8865 62.5189C26.9471 62.4968 27.3884 62.4197 27.8643 62.3426C29.3873 62.1222 29.3787 62.001 27.8384 61.7917C27.3019 61.7145 26.8519 61.6154 26.8346 61.5823C26.8086 61.5382 26.973 61.2187 27.1807 60.8661C27.3884 60.5025 27.5441 60.183 27.5182 60.15C27.4922 60.1279 27.2326 60.3152 26.9471 60.5687C26.6528 60.8331 26.3932 60.9984 26.3586 60.9543C26.3154 60.8992 26.2461 60.2381 26.1856 59.4779C26.0298 57.4946 25.9606 57.5056 25.7962 59.5219C25.7356 60.2822 25.6664 60.9433 25.6317 60.9763C25.6058 61.0094 25.3462 60.8331 25.052 60.5797C24.7664 60.3152 24.5155 60.1279 24.4895 60.161C24.4722 60.183 24.602 60.4805 24.7924 60.8111C24.9827 61.1306 25.1385 61.4611 25.1385 61.5272C25.1385 61.6044 24.7664 61.7035 24.1607 61.7917C22.6117 62.001 22.6117 62.1222 24.1693 62.3536C24.7577 62.4417 25.1385 62.5519 25.1385 62.618C25.1385 62.6841 24.9827 63.0147 24.7924 63.3342C24.3857 64.0283 24.351 64.2046 24.6799 63.9292C24.8183 63.83 25.0693 63.6096 25.251 63.4554C25.6664 63.1138 25.701 63.1689 25.7789 64.3589C25.8913 66.1107 26.0211 66.5735 26.125 65.6259Z" fill="#EFB85F"/>
<path d="M105.154 78.762L108 78.6487L105.154 78.5354L106.046 77.3761L105.093 78.4619L105 75L104.907 78.4619L103.954 77.3761L104.847 78.5354L102 78.6487L104.847 78.762L103.954 79.9212L104.907 78.8354L105 82.2973L105.093 78.8354L106.046 79.9212L105.154 78.762Z" fill="#EFB85F"/>
<path d="M118.154 36.762L121 36.6487L118.154 36.5354L119.046 35.3761L118.093 36.4619L118 33L117.907 36.4619L116.954 35.3761L117.847 36.5354L115 36.6487L117.847 36.762L116.954 37.9212L117.907 36.8354L118 40.2973L118.093 36.8354L119.046 37.9212L118.154 36.762Z" fill="#EFB85F"/>
<path d="M64.1536 26.762L67.0001 26.6487L64.1536 26.5354L65.0464 25.3761L64.0932 26.4619L64 23L63.9069 26.4619L62.9537 25.3761L63.8465 26.5354L61 26.6487L63.8465 26.762L62.9537 27.9212L63.9069 26.8354L64 30.2973L64.0932 26.8354L65.0464 27.9212L64.1536 26.762Z" fill="#EFB85F"/>
<path d="M91.1536 36.762L94.0001 36.6487L91.1536 36.5354L92.0464 35.3761L91.0932 36.4619L91 33L90.9069 36.4619L89.9537 35.3761L90.8465 36.5354L88 36.6487L90.8465 36.762L89.9537 37.9212L90.9069 36.8354L91 40.2973L91.0932 36.8354L92.0464 37.9212L91.1536 36.762Z" fill="#EFB85F"/>
<path d="M29.1536 40.762L32.0001 40.6487L29.1536 40.5354L30.0464 39.3761L29.0932 40.4619L29 37L28.9069 40.4619L27.9537 39.3761L28.8465 40.5354L26 40.6487L28.8465 40.762L27.9537 41.9212L28.9069 40.8354L29 44.2973L29.0932 40.8354L30.0464 41.9212L29.1536 40.762Z" fill="#EFB85F"/>
<path d="M45.1536 69.762L48.0001 69.6487L45.1536 69.5354L46.0464 68.3761L45.0932 69.4619L45 66L44.9069 69.4619L43.9537 68.3761L44.8465 69.5354L42 69.6487L44.8465 69.762L43.9537 70.9212L44.9069 69.8354L45 73.2973L45.0932 69.8354L46.0464 70.9212L45.1536 69.762Z" fill="#EFB85F"/>
<circle cx="26" cy="24" r="1" fill="#EFB85F"/>
<circle cx="20" cy="49" r="1" fill="#EFB85F"/>
<circle cx="26" cy="82" r="1" fill="#EFB85F"/>
<circle cx="116" cy="70" r="1" fill="#EFB85F"/>
<circle cx="88" cy="62" r="1" fill="#EFB85F"/>
<circle cx="124" cy="23" r="1" fill="#EFB85F"/>
<circle cx="94" cy="25" r="1" fill="#EFB85F"/>
<circle cx="123" cy="86" r="1" fill="#EFB85F"/>
<circle cx="86" cy="81" r="1" fill="#EFB85F"/>
</svg>
