<svg width="148" height="105" viewBox="0 0 148 105" fill="none" xmlns="http://www.w3.org/2000/svg">
<rect width="147.402" height="104.882" rx="10" fill="black"/>
<path d="M13.8131 42.0488C13.2988 42.0033 12.8252 41.8714 12.3922 41.6533C11.9593 41.432 11.5963 41.1667 11.3033 40.8574C10.6783 40.1966 10.3658 39.4072 10.3658 38.4893C10.3658 37.4313 10.7272 36.5622 11.4498 35.8818C12.1757 35.2015 13.0791 34.8613 14.1598 34.8613C15.2405 34.8613 16.1357 35.1966 16.8453 35.8672C17.5582 36.5378 17.9147 37.3955 17.9147 38.4404C17.9147 39.6839 17.2815 40.7256 16.0153 41.5654C15.986 41.585 15.8606 41.6484 15.6393 41.7559C15.4212 41.8633 15.3121 41.9251 15.3121 41.9414C15.3121 41.9544 15.413 42.0293 15.6149 42.166C15.8199 42.306 16.2529 42.6429 16.9137 43.1768C17.3108 43.4958 17.6184 43.6764 17.8365 43.7188C18.0546 43.7643 18.1637 43.8083 18.1637 43.8506C18.1637 43.932 18.1116 43.9824 18.0074 44.002C17.9033 44.0215 17.7454 44.0312 17.5338 44.0312C17.166 44.0312 16.7591 43.9108 16.3131 43.6699C15.5286 43.1523 15.0013 42.765 14.7311 42.5078C14.4609 42.2507 14.2233 42.1058 14.0182 42.0732C13.9563 42.0635 13.888 42.0553 13.8131 42.0488ZM12.0895 36.1113C11.8616 36.3913 11.6858 36.7201 11.5621 37.0977C11.4417 37.472 11.3831 37.8366 11.3864 38.1914C11.3929 38.8327 11.5214 39.4186 11.7721 39.9492C12.0227 40.4766 12.3727 40.903 12.8219 41.2285C13.2744 41.5508 13.7968 41.7119 14.3893 41.7119C15.1152 41.7119 15.719 41.4287 16.2008 40.8623C16.6826 40.2926 16.9235 39.5472 16.9235 38.626C16.9235 37.7048 16.6875 36.9316 16.2155 36.3066C15.6914 35.6165 14.9589 35.2438 14.0182 35.1885C13.2304 35.1885 12.5875 35.4961 12.0895 36.1113ZM22.1432 41.5117C22.1269 41.4564 22.1058 41.4385 22.0797 41.458C22.0537 41.4743 21.9479 41.5296 21.7623 41.624C21.1536 41.9268 20.6458 42.0781 20.2389 42.0781C19.832 42.0781 19.539 41.9479 19.36 41.6875C19.2949 41.5898 19.2623 41.4694 19.2623 41.3262V38.3477C19.2526 38.2533 19.2102 38.1719 19.1354 38.1035C19.0345 38.0189 18.9287 37.9733 18.818 37.9668C18.7106 37.9603 18.6569 37.9277 18.6569 37.8691C18.6569 37.8073 18.6829 37.7699 18.735 37.7568L19.8531 37.4346C19.8922 37.4215 19.9296 37.415 19.9655 37.415C20.0045 37.415 20.024 37.4427 20.024 37.498V40.7744C20.024 41.0023 20.125 41.1781 20.3268 41.3018C20.5286 41.4255 20.7858 41.4873 21.0983 41.4873C21.414 41.4873 21.6972 41.3913 21.9479 41.1992C22.026 41.1374 22.0911 41.069 22.1432 40.9941V38.3477C22.1334 38.2533 22.0911 38.1719 22.0162 38.1035C21.9153 38.0189 21.8095 37.9733 21.6989 37.9668C21.5914 37.9603 21.5377 37.9277 21.5377 37.8691C21.5377 37.8073 21.5638 37.7699 21.6158 37.7568L22.734 37.4346C22.7731 37.4215 22.8105 37.415 22.8463 37.415C22.8854 37.415 22.9049 37.4476 22.9049 37.5127V40.9795C22.9212 41.1227 22.9619 41.2253 23.027 41.2871C23.0921 41.349 23.1979 41.3799 23.3444 41.3799L23.6276 41.3604C23.6471 41.3604 23.6569 41.3799 23.6569 41.4189C23.6569 41.4548 23.6324 41.484 23.5836 41.5068L22.2848 42.0439C22.2457 42.0635 22.2115 42.0732 22.1823 42.0732C22.1562 42.0732 22.1432 42.0326 22.1432 41.9512V41.5117ZM25.0778 39.3682C25.0224 39.3682 24.9948 39.487 24.9948 39.7246C24.9948 40.2292 25.1445 40.6523 25.444 40.9941C25.7434 41.3359 26.1145 41.5068 26.5573 41.5068C27.0032 41.5068 27.4313 41.3148 27.8414 40.9307C27.8479 40.9242 27.8561 40.9209 27.8658 40.9209H27.8903C27.9098 40.9209 27.9277 40.9372 27.944 40.9697C27.9635 40.999 27.9814 41.0186 27.9977 41.0283C27.6201 41.4873 27.1757 41.8047 26.6647 41.9805C26.4889 42.0423 26.2903 42.0732 26.069 42.0732C25.8476 42.0732 25.623 42.013 25.3951 41.8926C25.1673 41.7689 24.972 41.6077 24.8092 41.4092C24.4642 40.9958 24.2916 40.4814 24.2916 39.8662C24.2916 39.2477 24.4788 38.6846 24.8531 38.1768C25.2308 37.6689 25.7483 37.415 26.4059 37.415C26.8779 37.415 27.2636 37.6266 27.5631 38.0498C27.8626 38.4697 28.0123 38.8392 28.0123 39.1582C28.0123 39.2982 27.9781 39.3682 27.9098 39.3682H25.0778ZM25.1315 38.8994C25.1315 38.9613 25.1608 38.9922 25.2194 38.9922H27.0602C27.1448 38.9922 27.1871 38.9417 27.1871 38.8408C27.1871 38.6064 27.0813 38.3672 26.8698 38.123C26.6614 37.8757 26.4319 37.752 26.1813 37.752C25.9371 37.752 25.7142 37.8626 25.5123 38.084C25.3138 38.3053 25.1868 38.5576 25.1315 38.8408V38.8994ZM35.1949 41.4287C34.7457 41.8584 34.2412 42.0732 33.6813 42.0732C33.4795 42.0732 33.2044 42.0358 32.8561 41.9609C32.8007 41.9609 32.7698 41.9805 32.7633 42.0195C32.7601 42.0586 32.7568 42.0993 32.7535 42.1416V44.2266C32.7535 44.4707 32.8951 44.6335 33.1783 44.7148C33.302 44.7474 33.4176 44.7702 33.525 44.7832C33.6324 44.7995 33.7008 44.8141 33.7301 44.8271C33.7627 44.8402 33.7789 44.8646 33.7789 44.9004C33.7789 44.9395 33.7627 44.9622 33.7301 44.9688H31.2838C31.2513 44.9622 31.235 44.9395 31.235 44.9004C31.235 44.8418 31.3115 44.8027 31.4645 44.7832C31.816 44.7311 31.9918 44.5456 31.9918 44.2266V38.3721C31.9918 38.2354 31.917 38.141 31.7672 38.0889C31.7021 38.0661 31.6321 38.0482 31.5573 38.0352C31.4824 38.0189 31.4222 38.0042 31.3766 37.9912C31.3343 37.9782 31.3066 37.9668 31.2936 37.957C31.2838 37.944 31.2789 37.9196 31.2789 37.8838C31.2789 37.8447 31.3033 37.8122 31.3522 37.7861L32.5973 37.1904C32.6233 37.1774 32.6494 37.1709 32.6754 37.1709C32.7275 37.1709 32.7535 37.21 32.7535 37.2881V37.9082C32.7535 37.944 32.7714 37.9619 32.8073 37.9619C32.8463 37.9619 32.9375 37.9147 33.0807 37.8203C33.4941 37.5534 33.9238 37.4199 34.3698 37.4199C34.6823 37.4199 34.9687 37.5469 35.2291 37.8008C35.5709 38.1328 35.7988 38.5951 35.9127 39.1875C35.9453 39.3568 35.9615 39.5374 35.9615 39.7295C35.9615 39.9183 35.9306 40.1185 35.8688 40.3301C35.7451 40.75 35.5205 41.1162 35.1949 41.4287ZM33.7985 37.9277C33.3558 37.9277 33.0074 38.0547 32.7535 38.3086V41.0527C32.7535 41.2155 32.7812 41.3213 32.8365 41.3701C32.9798 41.4938 33.1995 41.5898 33.4957 41.6582C34.0817 41.7917 34.5374 41.6517 34.8629 41.2383C35.094 40.9421 35.2096 40.584 35.2096 40.1641C35.2096 39.347 35.0257 38.735 34.6578 38.3281C34.4365 38.0807 34.15 37.9473 33.7985 37.9277ZM36.8649 39.749C36.8649 39.1077 37.0911 38.5576 37.5436 38.0986C37.9993 37.6364 38.5446 37.4053 39.1793 37.4053C39.8141 37.4053 40.3658 37.6299 40.8346 38.0791C41.3033 38.5251 41.5377 39.0768 41.5377 39.7344C41.5377 40.3919 41.3147 40.9469 40.8688 41.3994C40.4261 41.8486 39.8694 42.0732 39.1989 42.0732C38.5283 42.0732 37.9716 41.8454 37.5289 41.3896C37.0862 40.9339 36.8649 40.387 36.8649 39.749ZM38.0807 41.0039C38.3997 41.541 38.8343 41.8096 39.3844 41.8096C39.8108 41.8096 40.1364 41.6387 40.361 41.2969C40.5888 40.9551 40.7028 40.5352 40.7028 40.0371C40.7028 39.5391 40.5433 39.028 40.2242 38.5039C39.9085 37.9798 39.4821 37.7178 38.9449 37.7178C38.5511 37.7178 38.2402 37.8887 38.0123 38.2305C37.7877 38.569 37.6754 39.0003 37.6754 39.5244C37.6754 40.0452 37.8105 40.5384 38.0807 41.0039ZM42.2506 41.9414C42.2181 41.9349 42.2018 41.9121 42.2018 41.873C42.2018 41.8145 42.2783 41.7754 42.4313 41.7559C42.7828 41.7038 42.9586 41.5182 42.9586 41.1992V38.6162C42.9586 38.4795 42.8837 38.3851 42.734 38.333C42.6689 38.3102 42.5989 38.2923 42.524 38.2793C42.4492 38.263 42.389 38.2484 42.3434 38.2354C42.3011 38.2223 42.2734 38.2109 42.2604 38.2012C42.2506 38.1882 42.2457 38.1637 42.2457 38.1279C42.2457 38.0889 42.2701 38.0563 42.319 38.0303L43.5641 37.4443C43.6031 37.4248 43.6276 37.415 43.6373 37.415C43.6927 37.415 43.7203 37.4541 43.7203 37.5322V41.1992C43.7203 41.5182 43.8961 41.7038 44.2477 41.7559C44.4007 41.7754 44.4772 41.8096 44.4772 41.8584C44.4772 41.9072 44.4609 41.9349 44.4283 41.9414H42.2506ZM43.2662 36.043C43.1328 36.043 43.014 36.0007 42.9098 35.916C42.8089 35.8314 42.7584 35.7142 42.7584 35.5645C42.7584 35.4115 42.8073 35.291 42.9049 35.2031C43.0026 35.1152 43.1181 35.0713 43.2516 35.0713C43.3883 35.0713 43.5022 35.1234 43.5934 35.2275C43.6878 35.3317 43.735 35.444 43.735 35.5645C43.735 35.6849 43.691 35.7956 43.6031 35.8965C43.5153 35.9941 43.403 36.043 43.2662 36.043ZM48.6471 40.4033L48.6373 39.373C48.6373 38.9531 48.6015 38.6585 48.5299 38.4893C48.4583 38.32 48.3671 38.193 48.2565 38.1084C48.1458 38.0205 47.9961 37.9766 47.8073 37.9766C47.6217 37.9766 47.2262 38.123 46.6207 38.416C46.5393 38.4648 46.497 38.5104 46.4938 38.5527V41.1797C46.4938 41.5085 46.6696 41.6973 47.0211 41.7461C47.1741 41.7689 47.2506 41.8063 47.2506 41.8584C47.2506 41.9072 47.2343 41.9349 47.2018 41.9414H45.024C44.9915 41.9349 44.9752 41.9121 44.9752 41.873C44.9752 41.8112 45.0517 41.7689 45.2047 41.7461C45.5563 41.6973 45.7321 41.5085 45.7321 41.1797V38.377C45.7321 38.2402 45.6572 38.1458 45.5074 38.0938C45.4423 38.071 45.3724 38.0531 45.2975 38.04C45.2226 38.0238 45.1624 38.0091 45.1168 37.9961C45.0745 37.9831 45.0468 37.9717 45.0338 37.9619C45.024 37.9489 45.0192 37.9245 45.0192 37.8887C45.0192 37.8496 45.0436 37.8171 45.0924 37.791L46.3375 37.2051C46.3766 37.1855 46.401 37.1758 46.4108 37.1758C46.4661 37.1758 46.4938 37.2148 46.4938 37.293V38.0547C46.5035 38.0872 46.5166 38.1035 46.5328 38.1035C46.5524 38.1035 46.6224 38.0742 46.7428 38.0156C47.0227 37.8757 47.3043 37.7406 47.5875 37.6104C47.8707 37.4801 48.1051 37.415 48.2906 37.415C49.0426 37.415 49.4186 38.1003 49.4186 39.4707L49.3746 40.8965V41.1797C49.3746 41.4336 49.5016 41.5996 49.7555 41.6777C49.8629 41.7135 49.9655 41.7396 50.0631 41.7559C50.164 41.7689 50.2291 41.7819 50.2584 41.7949C50.291 41.8079 50.3073 41.834 50.3073 41.873C50.3073 41.9121 50.291 41.9349 50.2584 41.9414H47.9049C47.8724 41.9349 47.8561 41.9121 47.8561 41.873C47.8561 41.8112 47.9326 41.7689 48.0856 41.7461C48.4339 41.6973 48.608 41.4954 48.608 41.1406C48.6341 40.9779 48.6471 40.7321 48.6471 40.4033ZM51.9332 38.1865C51.9137 38.1865 51.9039 38.2012 51.9039 38.2305V40.9258C51.9039 41.1211 51.9462 41.2741 52.0309 41.3848C52.1188 41.4954 52.2295 41.5508 52.3629 41.5508C52.4964 41.5508 52.6119 41.5296 52.7096 41.4873C52.8105 41.4417 52.8968 41.3929 52.9684 41.3408C53.0433 41.2887 53.11 41.2415 53.1686 41.1992C53.2272 41.1536 53.2793 41.1309 53.3248 41.1309C53.3704 41.1309 53.3932 41.1423 53.3932 41.165C53.3932 41.2432 53.3851 41.2936 53.3688 41.3164C52.9781 41.821 52.6005 42.0732 52.236 42.0732C51.8746 42.0732 51.6012 41.9593 51.4156 41.7314C51.2334 41.5003 51.1422 41.2253 51.1422 40.9062V38.1865H50.776C50.6849 38.1865 50.636 38.1572 50.6295 38.0986C50.6263 38.04 50.636 38.0026 50.6588 37.9863C50.8313 37.8757 51.069 37.6771 51.3717 37.3906C51.4043 37.3548 51.4482 37.3011 51.5035 37.2295C51.5589 37.1579 51.6386 37.0602 51.7428 36.9365C51.8502 36.8128 51.9316 36.751 51.9869 36.751C52.0423 36.751 52.0699 36.7738 52.0699 36.8193C52.0699 36.8258 52.0146 37.0391 51.9039 37.459C51.9039 37.5176 51.93 37.5485 51.9821 37.5518H53.2272C53.3704 37.5518 53.442 37.7536 53.442 38.1572C53.442 38.1768 53.429 38.1865 53.403 38.1865H51.9332ZM54.6969 39.3682C54.6416 39.3682 54.6139 39.487 54.6139 39.7246C54.6139 40.2292 54.7636 40.6523 55.0631 40.9941C55.3626 41.3359 55.7337 41.5068 56.1764 41.5068C56.6224 41.5068 57.0504 41.3148 57.4606 40.9307C57.4671 40.9242 57.4752 40.9209 57.485 40.9209H57.5094C57.5289 40.9209 57.5468 40.9372 57.5631 40.9697C57.5826 40.999 57.6005 41.0186 57.6168 41.0283C57.2392 41.4873 56.7949 41.8047 56.2838 41.9805C56.108 42.0423 55.9095 42.0732 55.6881 42.0732C55.4668 42.0732 55.2421 42.013 55.0143 41.8926C54.7864 41.7689 54.5911 41.6077 54.4283 41.4092C54.0833 40.9958 53.9108 40.4814 53.9108 39.8662C53.9108 39.2477 54.0979 38.6846 54.4723 38.1768C54.8499 37.6689 55.3675 37.415 56.025 37.415C56.497 37.415 56.8828 37.6266 57.1823 38.0498C57.4817 38.4697 57.6315 38.8392 57.6315 39.1582C57.6315 39.2982 57.5973 39.3682 57.5289 39.3682H54.6969ZM54.7506 38.8994C54.7506 38.9613 54.7799 38.9922 54.8385 38.9922H56.6793C56.764 38.9922 56.8063 38.9417 56.8063 38.8408C56.8063 38.6064 56.7005 38.3672 56.4889 38.123C56.2806 37.8757 56.0511 37.752 55.8004 37.752C55.5563 37.752 55.3333 37.8626 55.1315 38.084C54.9329 38.3053 54.8059 38.5576 54.7506 38.8408V38.8994ZM62.9391 41.7559C63.0921 41.7754 63.1686 41.8145 63.1686 41.873C63.1686 41.9121 63.1523 41.9349 63.1198 41.9414H60.942C60.9095 41.9349 60.8932 41.9121 60.8932 41.873C60.8932 41.8145 60.9697 41.7754 61.1227 41.7559C61.4742 41.7038 61.65 41.5182 61.65 41.1992V35.1104C61.65 34.9736 61.5752 34.8792 61.4254 34.8271C61.3603 34.8044 61.2903 34.7865 61.2155 34.7734C61.1406 34.7572 61.0804 34.7425 61.0348 34.7295C60.9925 34.7165 60.9648 34.7051 60.9518 34.6953C60.942 34.6823 60.9371 34.6579 60.9371 34.6221C60.9371 34.583 60.9615 34.5505 61.0104 34.5244L62.2555 33.9385C62.2946 33.9189 62.319 33.9092 62.3287 33.9092C62.3841 33.9092 62.4117 33.9482 62.4117 34.0264V41.1992C62.4117 41.5182 62.5875 41.7038 62.9391 41.7559ZM65.3365 35.9551C65.3365 36.5605 65.0517 37.0651 64.4821 37.4688C64.3518 37.5632 64.2526 37.6104 64.1842 37.6104C64.1386 37.6104 64.1158 37.5827 64.1158 37.5273C64.1158 37.4688 64.1256 37.4281 64.1451 37.4053C64.1647 37.3792 64.1875 37.3564 64.2135 37.3369C64.2395 37.3174 64.264 37.2995 64.2867 37.2832C64.3128 37.2669 64.3437 37.2441 64.3795 37.2148C64.705 36.9186 64.8678 36.6501 64.8678 36.4092C64.8678 36.2692 64.8076 36.1992 64.6871 36.1992C64.3616 36.1992 64.1451 36.0967 64.0377 35.8916C63.9987 35.8167 63.9791 35.7126 63.9791 35.5791C63.9791 35.4456 64.0377 35.3252 64.1549 35.2178C64.2753 35.1104 64.4039 35.0566 64.5406 35.0566C64.7946 35.0566 64.9899 35.1576 65.1266 35.3594C65.2666 35.5579 65.3365 35.7565 65.3365 35.9551ZM68.9205 41.1357C68.9205 41.2204 68.9596 41.2887 69.0377 41.3408C69.1191 41.3896 69.2119 41.4141 69.316 41.4141C69.4202 41.4141 69.5065 41.388 69.5748 41.3359C69.6464 41.2806 69.6953 41.2529 69.7213 41.2529C69.7474 41.2529 69.7604 41.2887 69.7604 41.3604C69.7604 41.4287 69.7278 41.4873 69.6627 41.5361C69.1744 41.8942 68.844 42.0732 68.6715 42.0732C68.4632 42.0732 68.2939 41.8568 68.1637 41.4238C68.1539 41.3913 68.1458 41.3766 68.1393 41.3799C67.7356 41.6826 67.4817 41.8649 67.3776 41.9268C67.1106 42.0798 66.8421 42.1042 66.5719 42C66.305 41.8958 66.1113 41.7233 65.9908 41.4824C65.9323 41.3587 65.903 41.2269 65.903 41.0869C65.903 40.8102 66.0055 40.5905 66.2106 40.4277C66.4156 40.265 66.8063 40.1087 67.3824 39.959C67.5778 39.9069 67.7519 39.8402 67.9049 39.7588C68.0579 39.6774 68.1377 39.6253 68.1442 39.6025C68.1539 39.5798 68.1588 39.5586 68.1588 39.5391V38.6016C68.1588 38.2337 68.0156 37.9749 67.7291 37.8252C67.6347 37.7764 67.5208 37.752 67.3873 37.752C67.2571 37.752 67.1237 37.804 66.9869 37.9082C66.8535 38.0124 66.7867 38.1605 66.7867 38.3525L66.8112 38.543C66.7916 38.582 66.6744 38.6471 66.4596 38.7383C66.2448 38.8294 66.1211 38.8783 66.0885 38.8848C66.0364 38.8848 66.0104 38.8229 66.0104 38.6992C66.0104 38.5723 66.0478 38.4323 66.1227 38.2793C66.1976 38.1263 66.3033 37.9863 66.4401 37.8594C66.7591 37.5632 67.1237 37.415 67.5338 37.415C67.944 37.415 68.2776 37.529 68.5348 37.7568C68.792 37.9814 68.9205 38.25 68.9205 38.5625V41.1357ZM66.6696 40.9941C66.6696 41.1504 66.7298 41.2871 66.8502 41.4043C66.9707 41.5182 67.1074 41.5752 67.2604 41.5752C67.4166 41.5752 67.6054 41.5101 67.8268 41.3799C68.0481 41.2464 68.1588 41.1097 68.1588 40.9697V39.9785C68.1588 39.9427 68.1507 39.9248 68.1344 39.9248C68.1181 39.9248 68.1067 39.9264 68.1002 39.9297L66.9674 40.457C66.8502 40.5417 66.7705 40.6133 66.7281 40.6719C66.6891 40.7305 66.6696 40.8379 66.6696 40.9941ZM73.1979 38.4404C73.1588 38.4339 73.1018 38.4128 73.027 38.377C72.7568 38.2533 72.5452 38.1914 72.3922 38.1914C72.2392 38.1914 72.0781 38.2874 71.9088 38.4795C71.7428 38.6683 71.6598 38.8392 71.6598 38.9922V41.1992C71.6598 41.4434 71.8014 41.6061 72.0846 41.6875C72.2083 41.7201 72.3239 41.7445 72.4313 41.7607C72.5387 41.7738 72.6071 41.7868 72.6364 41.7998C72.6689 41.8128 72.6852 41.8389 72.6852 41.8779C72.6852 41.9137 72.6689 41.9349 72.6364 41.9414H70.1901C70.1575 41.9349 70.1412 41.9121 70.1412 41.873C70.1412 41.8145 70.2177 41.7754 70.3707 41.7559C70.7223 41.7038 70.8981 41.5182 70.8981 41.1992V38.6162C70.8981 38.4795 70.8232 38.3851 70.6735 38.333C70.6084 38.3102 70.5384 38.2923 70.4635 38.2793C70.3886 38.263 70.3284 38.2484 70.2828 38.2354C70.2405 38.2223 70.2128 38.2109 70.1998 38.2012C70.1901 38.1882 70.1852 38.1637 70.1852 38.1279C70.1852 38.0889 70.2096 38.0563 70.2584 38.0303L71.5035 37.4443C71.5426 37.4248 71.567 37.415 71.5768 37.415C71.6321 37.415 71.6598 37.4541 71.6598 37.5322V38.3232C71.6598 38.3623 71.6696 38.3818 71.6891 38.3818C71.7151 38.3818 71.7819 38.3053 71.8893 38.1523C72.1985 37.7194 72.4541 37.5029 72.6559 37.5029C72.7698 37.5029 72.944 37.5485 73.1783 37.6396C73.416 37.7308 73.5348 37.8073 73.5348 37.8691C73.5348 37.944 73.4974 38.0579 73.4225 38.2109C73.3476 38.3639 73.2727 38.4404 73.1979 38.4404ZM77.7145 38.001C77.7145 38.2288 77.5826 38.3428 77.319 38.3428C77.1855 38.3428 77.0716 38.3053 76.9772 38.2305C76.886 38.1523 76.8144 38.0872 76.7623 38.0352C76.7135 37.9798 76.6614 37.9294 76.6061 37.8838C76.3717 37.6917 76.0852 37.6706 75.7467 37.8203C75.4114 37.9701 75.1526 38.2891 74.9703 38.7773C74.8694 39.0475 74.819 39.3161 74.819 39.583C74.819 40.1559 74.9492 40.6247 75.2096 40.9893C75.47 41.3506 75.8688 41.5312 76.4059 41.5312C76.8063 41.5312 77.166 41.3522 77.485 40.9941C77.5826 40.8867 77.6412 40.833 77.6608 40.833C77.6803 40.833 77.7015 40.8428 77.7242 40.8623C77.747 40.8818 77.7584 40.9111 77.7584 40.9502C77.7584 40.986 77.7487 41.0137 77.7291 41.0332C77.2311 41.7266 76.6045 42.0732 75.8492 42.0732C75.3024 42.0732 74.8531 41.8698 74.5016 41.4629C74.1533 41.056 73.9791 40.5905 73.9791 40.0664C73.9824 39.0964 74.2168 38.3981 74.6823 37.9717C75.0924 37.5973 75.6767 37.4102 76.4352 37.4102C76.9039 37.4102 77.2148 37.4574 77.3678 37.5518C77.5208 37.6462 77.6282 37.765 77.6901 37.9082C77.7063 37.9408 77.7145 37.9717 77.7145 38.001ZM84.1403 37.6201C84.2835 37.6689 84.3714 37.6934 84.4039 37.6934C84.4365 37.6934 84.456 37.6934 84.4625 37.6934C84.4723 37.6901 84.4837 37.6689 84.4967 37.6299V35.1104C84.4967 34.9736 84.4218 34.8792 84.2721 34.8271C84.207 34.8044 84.137 34.7865 84.0621 34.7734C83.9873 34.7572 83.927 34.7425 83.8815 34.7295C83.8392 34.7165 83.8115 34.7051 83.7985 34.6953C83.7887 34.6823 83.7838 34.6579 83.7838 34.6221C83.7838 34.583 83.8082 34.5505 83.8571 34.5244L85.1022 33.9385C85.1412 33.9189 85.1656 33.9092 85.1754 33.9092C85.2308 33.9092 85.2584 33.9482 85.2584 34.0264V40.9795C85.2747 41.1227 85.3154 41.2253 85.3805 41.2871C85.4456 41.349 85.5514 41.3799 85.6979 41.3799L85.9811 41.3604C86.0006 41.3604 86.0104 41.3799 86.0104 41.4189C86.0104 41.4548 85.986 41.484 85.9371 41.5068L84.6383 42.0439C84.5992 42.0635 84.5651 42.0732 84.5358 42.0732C84.5097 42.0732 84.4967 42.0326 84.4967 41.9512V41.5068C84.4967 41.4743 84.4886 41.458 84.4723 41.458C84.4495 41.458 84.3144 41.5312 84.067 41.6777C83.3086 42.127 82.6689 42.1937 82.1481 41.8779C81.7314 41.624 81.4498 41.222 81.3033 40.6719C81.235 40.4147 81.2008 40.1429 81.2008 39.8564C81.2008 39.5667 81.2594 39.2803 81.3766 38.9971C81.497 38.7106 81.6614 38.46 81.8698 38.2451C82.3287 37.7764 82.8821 37.542 83.5299 37.542C83.7936 37.542 83.997 37.568 84.1403 37.6201ZM81.9381 39.7148C81.9381 40.2064 82.0748 40.6377 82.3483 41.0088C82.6217 41.3766 83.0026 41.5605 83.4908 41.5605C83.7057 41.5605 83.927 41.5085 84.1549 41.4043C84.3828 41.2969 84.4967 41.2155 84.4967 41.1602V38.6406C84.4967 38.5788 84.4544 38.5055 84.3698 38.4209C84.1093 38.0628 83.7627 37.8838 83.3297 37.8838C82.9 37.8838 82.5599 38.0661 82.3092 38.4307C82.0618 38.792 81.9381 39.2201 81.9381 39.7148ZM87.236 39.3682C87.1806 39.3682 87.153 39.487 87.153 39.7246C87.153 40.2292 87.3027 40.6523 87.6022 40.9941C87.9017 41.3359 88.2727 41.5068 88.7155 41.5068C89.1614 41.5068 89.5895 41.3148 89.9996 40.9307C90.0061 40.9242 90.0143 40.9209 90.024 40.9209H90.0485C90.068 40.9209 90.0859 40.9372 90.1022 40.9697C90.1217 40.999 90.1396 41.0186 90.1559 41.0283C89.7783 41.4873 89.3339 41.8047 88.8229 41.9805C88.6471 42.0423 88.4485 42.0732 88.2272 42.0732C88.0058 42.0732 87.7812 42.013 87.5533 41.8926C87.3255 41.7689 87.1302 41.6077 86.9674 41.4092C86.6224 40.9958 86.4498 40.4814 86.4498 39.8662C86.4498 39.2477 86.637 38.6846 87.0114 38.1768C87.389 37.6689 87.9065 37.415 88.5641 37.415C89.0361 37.415 89.4218 37.6266 89.7213 38.0498C90.0208 38.4697 90.1705 38.8392 90.1705 39.1582C90.1705 39.2982 90.1364 39.3682 90.068 39.3682H87.236ZM87.2897 38.8994C87.2897 38.9613 87.319 38.9922 87.3776 38.9922H89.2184C89.303 38.9922 89.3453 38.9417 89.3453 38.8408C89.3453 38.6064 89.2395 38.3672 89.028 38.123C88.8196 37.8757 88.5901 37.752 88.3395 37.752C88.0953 37.752 87.8724 37.8626 87.6705 38.084C87.472 38.3053 87.345 38.5576 87.2897 38.8408V38.8994ZM96.0446 38.6016C96.0446 38.6732 96.0169 38.709 95.9615 38.709C95.9095 38.709 95.8688 38.6699 95.8395 38.5918C95.7614 38.377 95.6442 38.1865 95.4879 38.0205C95.3349 37.8545 95.1445 37.7715 94.9166 37.7715C94.6171 37.7715 94.4153 37.9212 94.3112 38.2207C94.2786 38.3216 94.2623 38.4258 94.2623 38.5332C94.2623 38.6406 94.3307 38.7611 94.4674 38.8945C94.6041 39.0247 94.8287 39.181 95.1412 39.3633C95.4537 39.5456 95.6816 39.7002 95.8248 39.8271C96.1503 40.1169 96.3131 40.4521 96.3131 40.833C96.3131 41.2139 96.1731 41.5166 95.8932 41.7412C95.6132 41.9626 95.2877 42.0732 94.9166 42.0732C94.7181 42.0732 94.5374 42.0456 94.3746 41.9902C94.2151 41.9382 94.1224 41.9121 94.0963 41.9121C94.0735 41.9121 94.0345 41.9382 93.9791 41.9902C93.927 42.0456 93.8847 42.0732 93.8522 42.0732H93.7692C93.7496 42.0732 93.7252 41.8975 93.6959 41.5459C93.6666 41.1943 93.652 40.986 93.652 40.9209C93.652 40.8558 93.6569 40.82 93.6666 40.8135C93.6796 40.807 93.6992 40.8037 93.7252 40.8037C93.7513 40.8037 93.7724 40.8118 93.7887 40.8281C93.8082 40.8444 93.8245 40.8656 93.8375 40.8916C93.8505 40.9144 93.8603 40.9388 93.8668 40.9648C93.8766 40.9909 93.8977 41.0397 93.9303 41.1113C94.1517 41.5833 94.4934 41.8193 94.9557 41.8193C95.1608 41.8193 95.3252 41.7445 95.4489 41.5947C95.5726 41.4417 95.6344 41.2725 95.6344 41.0869C95.6344 40.9014 95.5856 40.7451 95.4879 40.6182C95.3903 40.4912 95.2682 40.3757 95.1217 40.2715C94.9785 40.1673 94.8222 40.0664 94.653 39.9688C93.9954 39.5846 93.6666 39.1598 93.6666 38.6943C93.6666 38.346 93.8164 38.0465 94.1158 37.7959C94.4153 37.542 94.7229 37.415 95.0387 37.415C95.3545 37.415 95.5872 37.4492 95.7369 37.5176C95.8899 37.5859 95.9795 37.6445 96.0055 37.6934C96.0315 37.7389 96.0446 37.8919 96.0446 38.1523V38.6016ZM100.044 41.1357C100.044 41.2204 100.083 41.2887 100.161 41.3408C100.242 41.3896 100.335 41.4141 100.439 41.4141C100.543 41.4141 100.63 41.388 100.698 41.3359C100.769 41.2806 100.818 41.2529 100.844 41.2529C100.87 41.2529 100.883 41.2887 100.883 41.3604C100.883 41.4287 100.851 41.4873 100.786 41.5361C100.297 41.8942 99.9671 42.0732 99.7946 42.0732C99.5862 42.0732 99.417 41.8568 99.2867 41.4238C99.277 41.3913 99.2688 41.3766 99.2623 41.3799C98.8587 41.6826 98.6048 41.8649 98.5006 41.9268C98.2337 42.0798 97.9651 42.1042 97.6949 42C97.428 41.8958 97.2343 41.7233 97.1139 41.4824C97.0553 41.3587 97.026 41.2269 97.026 41.0869C97.026 40.8102 97.1285 40.5905 97.3336 40.4277C97.5387 40.265 97.9293 40.1087 98.5055 39.959C98.7008 39.9069 98.875 39.8402 99.028 39.7588C99.1809 39.6774 99.2607 39.6253 99.2672 39.6025C99.277 39.5798 99.2819 39.5586 99.2819 39.5391V38.6016C99.2819 38.2337 99.1386 37.9749 98.8522 37.8252C98.7578 37.7764 98.6438 37.752 98.5104 37.752C98.3802 37.752 98.2467 37.804 98.11 37.9082C97.9765 38.0124 97.9098 38.1605 97.9098 38.3525L97.9342 38.543C97.9147 38.582 97.7975 38.6471 97.5826 38.7383C97.3678 38.8294 97.2441 38.8783 97.2115 38.8848C97.1595 38.8848 97.1334 38.8229 97.1334 38.6992C97.1334 38.5723 97.1709 38.4323 97.2457 38.2793C97.3206 38.1263 97.4264 37.9863 97.5631 37.8594C97.8821 37.5632 98.2467 37.415 98.6569 37.415C99.067 37.415 99.4007 37.529 99.6578 37.7568C99.915 37.9814 100.044 38.25 100.044 38.5625V41.1357ZM97.7926 40.9941C97.7926 41.1504 97.8528 41.2871 97.9733 41.4043C98.0937 41.5182 98.2304 41.5752 98.3834 41.5752C98.5397 41.5752 98.7285 41.5101 98.9498 41.3799C99.1712 41.2464 99.2819 41.1097 99.2819 40.9697V39.9785C99.2819 39.9427 99.2737 39.9248 99.2574 39.9248C99.2412 39.9248 99.2298 39.9264 99.2233 39.9297L98.0905 40.457C97.9733 40.5417 97.8935 40.6133 97.8512 40.6719C97.8121 40.7305 97.7926 40.8379 97.7926 40.9941ZM105.009 37.8838C105.009 37.8838 105.446 37.8643 106.318 37.8252C106.393 37.8252 106.442 37.8333 106.464 37.8496C106.487 37.8659 106.512 37.9229 106.538 38.0205C106.564 38.1149 106.577 38.2044 106.577 38.2891C106.577 38.3737 106.569 38.4225 106.552 38.4355C106.536 38.4486 106.504 38.4551 106.455 38.4551H105.371C105.39 38.4909 105.411 38.5283 105.434 38.5674C105.457 38.6064 105.486 38.6715 105.522 38.7627C105.558 38.8538 105.576 38.9954 105.576 39.1875C105.576 39.3763 105.529 39.5749 105.434 39.7832C105.343 39.9883 105.208 40.1706 105.029 40.3301C104.632 40.6882 104.117 40.8672 103.486 40.8672C103.32 40.8672 103.138 40.8363 102.939 40.7744C102.89 40.8265 102.825 40.8753 102.744 40.9209C102.662 40.9632 102.583 41.0072 102.505 41.0527C102.309 41.1634 102.212 41.2741 102.212 41.3848C102.212 41.6615 102.671 41.8031 103.589 41.8096C104.506 41.8161 105.109 41.847 105.395 41.9023C105.685 41.9544 105.909 42.0602 106.069 42.2197C106.32 42.4704 106.445 42.7568 106.445 43.0791C106.445 43.3558 106.326 43.6406 106.089 43.9336C105.675 44.4512 105.044 44.7962 104.194 44.9688C103.891 45.0306 103.571 45.0615 103.232 45.0615C102.617 45.0615 102.15 44.9492 101.831 44.7246C101.512 44.5033 101.352 44.2347 101.352 43.9189C101.352 43.7464 101.393 43.6032 101.474 43.4893C101.556 43.3786 101.658 43.2728 101.782 43.1719C101.909 43.0742 102.047 42.9701 102.197 42.8594C102.347 42.752 102.49 42.6136 102.627 42.4443C102.314 42.4183 102.046 42.319 101.821 42.1465C101.6 41.974 101.489 41.8047 101.489 41.6387C101.489 41.4727 101.533 41.3506 101.621 41.2725C101.709 41.1911 101.816 41.1227 101.943 41.0674C102.07 41.0088 102.203 40.9551 102.343 40.9062C102.483 40.8574 102.605 40.7939 102.71 40.7158C102.345 40.5726 102.063 40.3757 101.865 40.125C101.666 39.8711 101.567 39.5944 101.567 39.2949C101.567 38.7383 101.769 38.2842 102.172 37.9326C102.579 37.5811 103.069 37.4053 103.642 37.4053C104.215 37.4053 104.671 37.5648 105.009 37.8838ZM102.353 42.9766C102.278 43.0514 102.216 43.1312 102.168 43.2158C102.119 43.3005 102.094 43.4062 102.094 43.5332C102.094 43.6634 102.14 43.7985 102.231 43.9385C102.325 44.0817 102.452 44.2103 102.612 44.3242C102.964 44.5846 103.387 44.7148 103.881 44.7148C104.376 44.7148 104.824 44.57 105.224 44.2803C105.628 43.9938 105.83 43.6781 105.83 43.333C105.83 42.9912 105.664 42.7617 105.332 42.6445C105.175 42.5924 104.773 42.5599 104.126 42.5469C103.478 42.5339 103.058 42.516 102.866 42.4932C102.781 42.5908 102.693 42.6771 102.602 42.752C102.514 42.8268 102.431 42.9017 102.353 42.9766ZM104.775 39.1826C104.775 38.7236 104.659 38.3509 104.428 38.0645C104.2 37.7747 103.898 37.6299 103.52 37.6299C103.032 37.6299 102.687 37.8594 102.485 38.3184C102.407 38.4941 102.368 38.696 102.368 38.9238C102.368 39.3893 102.464 39.7767 102.656 40.0859C102.89 40.457 103.198 40.6426 103.579 40.6426C103.96 40.6426 104.254 40.514 104.463 40.2568C104.671 39.9997 104.775 39.6416 104.775 39.1826ZM106.958 41.9414C106.925 41.9349 106.909 41.9121 106.909 41.873C106.909 41.8145 106.985 41.7754 107.138 41.7559C107.49 41.7038 107.666 41.5182 107.666 41.1992V38.6162C107.666 38.4795 107.591 38.3851 107.441 38.333C107.376 38.3102 107.306 38.2923 107.231 38.2793C107.156 38.263 107.096 38.2484 107.05 38.2354C107.008 38.2223 106.98 38.2109 106.967 38.2012C106.958 38.1882 106.953 38.1637 106.953 38.1279C106.953 38.0889 106.977 38.0563 107.026 38.0303L108.271 37.4443C108.31 37.4248 108.335 37.415 108.344 37.415C108.4 37.415 108.427 37.4541 108.427 37.5322V41.1992C108.427 41.5182 108.603 41.7038 108.955 41.7559C109.108 41.7754 109.184 41.8096 109.184 41.8584C109.184 41.9072 109.168 41.9349 109.135 41.9414H106.958ZM107.973 36.043C107.84 36.043 107.721 36.0007 107.617 35.916C107.516 35.8314 107.465 35.7142 107.465 35.5645C107.465 35.4115 107.514 35.291 107.612 35.2031C107.71 35.1152 107.825 35.0713 107.959 35.0713C108.095 35.0713 108.209 35.1234 108.3 35.2275C108.395 35.3317 108.442 35.444 108.442 35.5645C108.442 35.6849 108.398 35.7956 108.31 35.8965C108.222 35.9941 108.11 36.043 107.973 36.043ZM110.957 38.1865C110.937 38.1865 110.927 38.2012 110.927 38.2305V40.9258C110.927 41.1211 110.97 41.2741 111.054 41.3848C111.142 41.4954 111.253 41.5508 111.386 41.5508C111.52 41.5508 111.635 41.5296 111.733 41.4873C111.834 41.4417 111.92 41.3929 111.992 41.3408C112.067 41.2887 112.133 41.2415 112.192 41.1992C112.251 41.1536 112.303 41.1309 112.348 41.1309C112.394 41.1309 112.417 41.1423 112.417 41.165C112.417 41.2432 112.408 41.2936 112.392 41.3164C112.002 41.821 111.624 42.0732 111.259 42.0732C110.898 42.0732 110.625 41.9593 110.439 41.7314C110.257 41.5003 110.166 41.2253 110.166 40.9062V38.1865H109.799C109.708 38.1865 109.659 38.1572 109.653 38.0986C109.65 38.04 109.659 38.0026 109.682 37.9863C109.855 37.8757 110.092 37.6771 110.395 37.3906C110.428 37.3548 110.472 37.3011 110.527 37.2295C110.582 37.1579 110.662 37.0602 110.766 36.9365C110.874 36.8128 110.955 36.751 111.01 36.751C111.066 36.751 111.093 36.7738 111.093 36.8193C111.093 36.8258 111.038 37.0391 110.927 37.459C110.927 37.5176 110.953 37.5485 111.005 37.5518H112.251C112.394 37.5518 112.465 37.7536 112.465 38.1572C112.465 38.1768 112.452 38.1865 112.426 38.1865H110.957ZM114.121 38.1865C114.101 38.1865 114.091 38.2012 114.091 38.2305V40.9258C114.091 41.1211 114.134 41.2741 114.218 41.3848C114.306 41.4954 114.417 41.5508 114.55 41.5508C114.684 41.5508 114.799 41.5296 114.897 41.4873C114.998 41.4417 115.084 41.3929 115.156 41.3408C115.231 41.2887 115.297 41.2415 115.356 41.1992C115.415 41.1536 115.467 41.1309 115.512 41.1309C115.558 41.1309 115.581 41.1423 115.581 41.165C115.581 41.2432 115.573 41.2936 115.556 41.3164C115.166 41.821 114.788 42.0732 114.423 42.0732C114.062 42.0732 113.789 41.9593 113.603 41.7314C113.421 41.5003 113.33 41.2253 113.33 40.9062V38.1865H112.964C112.872 38.1865 112.824 38.1572 112.817 38.0986C112.814 38.04 112.824 38.0026 112.846 37.9863C113.019 37.8757 113.256 37.6771 113.559 37.3906C113.592 37.3548 113.636 37.3011 113.691 37.2295C113.746 37.1579 113.826 37.0602 113.93 36.9365C114.038 36.8128 114.119 36.751 114.174 36.751C114.23 36.751 114.257 36.7738 114.257 36.8193C114.257 36.8258 114.202 37.0391 114.091 37.459C114.091 37.5176 114.117 37.5485 114.17 37.5518H115.415C115.558 37.5518 115.63 37.7536 115.63 38.1572C115.63 38.1768 115.616 38.1865 115.59 38.1865H114.121ZM119.116 41.1357C119.116 41.2204 119.155 41.2887 119.233 41.3408C119.314 41.3896 119.407 41.4141 119.511 41.4141C119.616 41.4141 119.702 41.388 119.77 41.3359C119.842 41.2806 119.891 41.2529 119.917 41.2529C119.943 41.2529 119.956 41.2887 119.956 41.3604C119.956 41.4287 119.923 41.4873 119.858 41.5361C119.37 41.8942 119.039 42.0732 118.867 42.0732C118.658 42.0732 118.489 41.8568 118.359 41.4238C118.349 41.3913 118.341 41.3766 118.335 41.3799C117.931 41.6826 117.677 41.8649 117.573 41.9268C117.306 42.0798 117.037 42.1042 116.767 42C116.5 41.8958 116.307 41.7233 116.186 41.4824C116.128 41.3587 116.098 41.2269 116.098 41.0869C116.098 40.8102 116.201 40.5905 116.406 40.4277C116.611 40.265 117.002 40.1087 117.578 39.959C117.773 39.9069 117.947 39.8402 118.1 39.7588C118.253 39.6774 118.333 39.6253 118.339 39.6025C118.349 39.5798 118.354 39.5586 118.354 39.5391V38.6016C118.354 38.2337 118.211 37.9749 117.924 37.8252C117.83 37.7764 117.716 37.752 117.583 37.752C117.452 37.752 117.319 37.804 117.182 37.9082C117.049 38.0124 116.982 38.1605 116.982 38.3525L117.006 38.543C116.987 38.582 116.87 38.6471 116.655 38.7383C116.44 38.8294 116.316 38.8783 116.284 38.8848C116.232 38.8848 116.206 38.8229 116.206 38.6992C116.206 38.5723 116.243 38.4323 116.318 38.2793C116.393 38.1263 116.499 37.9863 116.635 37.8594C116.954 37.5632 117.319 37.415 117.729 37.415C118.139 37.415 118.473 37.529 118.73 37.7568C118.987 37.9814 119.116 38.25 119.116 38.5625V41.1357ZM116.865 40.9941C116.865 41.1504 116.925 41.2871 117.046 41.4043C117.166 41.5182 117.303 41.5752 117.456 41.5752C117.612 41.5752 117.801 41.5101 118.022 41.3799C118.243 41.2464 118.354 41.1097 118.354 40.9697V39.9785C118.354 39.9427 118.346 39.9248 118.33 39.9248C118.313 39.9248 118.302 39.9264 118.296 39.9297L117.163 40.457C117.046 40.5417 116.966 40.6133 116.923 40.6719C116.884 40.7305 116.865 40.8379 116.865 40.9941ZM120.424 41.9414C120.392 41.9349 120.376 41.9121 120.376 41.873C120.376 41.8145 120.452 41.7754 120.605 41.7559C120.957 41.7038 121.132 41.5182 121.132 41.1992V38.6162C121.132 38.4795 121.058 38.3851 120.908 38.333C120.843 38.3102 120.773 38.2923 120.698 38.2793C120.623 38.263 120.563 38.2484 120.517 38.2354C120.475 38.2223 120.447 38.2109 120.434 38.2012C120.424 38.1882 120.42 38.1637 120.42 38.1279C120.42 38.0889 120.444 38.0563 120.493 38.0303L121.738 37.4443C121.777 37.4248 121.801 37.415 121.811 37.415C121.866 37.415 121.894 37.4541 121.894 37.5322V41.1992C121.894 41.5182 122.07 41.7038 122.422 41.7559C122.575 41.7754 122.651 41.8096 122.651 41.8584C122.651 41.9072 122.635 41.9349 122.602 41.9414H120.424ZM121.44 36.043C121.307 36.043 121.188 36.0007 121.084 35.916C120.983 35.8314 120.932 35.7142 120.932 35.5645C120.932 35.4115 120.981 35.291 121.079 35.2031C121.176 35.1152 121.292 35.0713 121.425 35.0713C121.562 35.0713 121.676 35.1234 121.767 35.2275C121.862 35.3317 121.909 35.444 121.909 35.5645C121.909 35.6849 121.865 35.7956 121.777 35.8965C121.689 35.9941 121.577 36.043 121.44 36.043ZM126.206 38.4404C126.167 38.4339 126.11 38.4128 126.035 38.377C125.765 38.2533 125.553 38.1914 125.4 38.1914C125.247 38.1914 125.086 38.2874 124.917 38.4795C124.751 38.6683 124.668 38.8392 124.668 38.9922V41.1992C124.668 41.4434 124.809 41.6061 125.092 41.6875C125.216 41.7201 125.332 41.7445 125.439 41.7607C125.547 41.7738 125.615 41.7868 125.644 41.7998C125.677 41.8128 125.693 41.8389 125.693 41.8779C125.693 41.9137 125.677 41.9349 125.644 41.9414H123.198C123.165 41.9349 123.149 41.9121 123.149 41.873C123.149 41.8145 123.226 41.7754 123.379 41.7559C123.73 41.7038 123.906 41.5182 123.906 41.1992V38.6162C123.906 38.4795 123.831 38.3851 123.681 38.333C123.616 38.3102 123.546 38.2923 123.471 38.2793C123.396 38.263 123.336 38.2484 123.291 38.2354C123.248 38.2223 123.221 38.2109 123.208 38.2012C123.198 38.1882 123.193 38.1637 123.193 38.1279C123.193 38.0889 123.217 38.0563 123.266 38.0303L124.511 37.4443C124.55 37.4248 124.575 37.415 124.585 37.415C124.64 37.415 124.668 37.4541 124.668 37.5322V38.3232C124.668 38.3623 124.677 38.3818 124.697 38.3818C124.723 38.3818 124.79 38.3053 124.897 38.1523C125.206 37.7194 125.462 37.5029 125.664 37.5029C125.778 37.5029 125.952 37.5485 126.186 37.6396C126.424 37.7308 126.543 37.8073 126.543 37.8691C126.543 37.944 126.505 38.0579 126.43 38.2109C126.355 38.3639 126.281 38.4404 126.206 38.4404ZM127.675 39.3682C127.62 39.3682 127.592 39.487 127.592 39.7246C127.592 40.2292 127.742 40.6523 128.042 40.9941C128.341 41.3359 128.712 41.5068 129.155 41.5068C129.601 41.5068 130.029 41.3148 130.439 40.9307C130.446 40.9242 130.454 40.9209 130.464 40.9209H130.488C130.507 40.9209 130.525 40.9372 130.542 40.9697C130.561 40.999 130.579 41.0186 130.595 41.0283C130.218 41.4873 129.773 41.8047 129.262 41.9805C129.087 42.0423 128.888 42.0732 128.667 42.0732C128.445 42.0732 128.221 42.013 127.993 41.8926C127.765 41.7689 127.57 41.6077 127.407 41.4092C127.062 40.9958 126.889 40.4814 126.889 39.8662C126.889 39.2477 127.076 38.6846 127.451 38.1768C127.828 37.6689 128.346 37.415 129.004 37.415C129.476 37.415 129.861 37.6266 130.161 38.0498C130.46 38.4697 130.61 38.8392 130.61 39.1582C130.61 39.2982 130.576 39.3682 130.507 39.3682H127.675ZM127.729 38.8994C127.729 38.9613 127.758 38.9922 127.817 38.9922H129.658C129.742 38.9922 129.785 38.9417 129.785 38.8408C129.785 38.6064 129.679 38.3672 129.467 38.123C129.259 37.8757 129.03 37.752 128.779 37.752C128.535 37.752 128.312 37.8626 128.11 38.084C127.911 38.3053 127.784 38.5576 127.729 38.8408V38.8994ZM135.19 40.1299C135.19 40.1722 135.156 40.1934 135.088 40.1934C135.019 40.1934 134.915 40.0387 134.775 39.7295C134.638 39.4202 134.568 39.1924 134.565 39.0459C134.562 38.8994 134.578 38.7773 134.614 38.6797C134.653 38.5788 134.705 38.4941 134.77 38.4258C134.835 38.3542 134.912 38.2939 135 38.2451C135.088 38.1963 135.18 38.1523 135.278 38.1133C135.376 38.0742 135.477 38.0384 135.581 38.0059C135.688 37.9701 135.792 37.931 135.893 37.8887C136.115 37.7975 136.31 37.6478 136.479 37.4395C136.648 37.2279 136.733 37.013 136.733 36.7949C136.733 36.3978 136.583 36.1374 136.284 36.0137C135.984 35.8867 135.47 35.8232 134.741 35.8232C134.513 35.8102 134.353 35.7435 134.262 35.623C134.23 35.5775 134.214 35.5205 134.214 35.4521C134.214 35.1722 134.489 35.0322 135.039 35.0322C135.592 35.0322 136.051 35.2113 136.416 35.5693C136.78 35.9274 136.963 36.3864 136.963 36.9463C136.963 37.5029 136.728 37.9782 136.259 38.3721C136.038 38.5576 135.833 38.6813 135.644 38.7432C135.455 38.8018 135.315 38.8555 135.224 38.9043C135.009 39.015 134.902 39.168 134.902 39.3633C134.902 39.4642 134.943 39.5944 135.024 39.7539C135.109 39.9134 135.164 40.0387 135.19 40.1299ZM134.521 41.502C134.521 41.349 134.576 41.2171 134.687 41.1064C134.798 40.9958 134.93 40.9404 135.083 40.9404C135.232 40.9404 135.363 40.9958 135.473 41.1064C135.584 41.2171 135.639 41.349 135.639 41.502C135.639 41.6549 135.584 41.7884 135.473 41.9023C135.366 42.0163 135.236 42.0732 135.083 42.0732C134.926 42.0732 134.793 42.0163 134.682 41.9023C134.575 41.7884 134.521 41.6549 134.521 41.502ZM21.1715 56.0488C20.6572 56.0033 20.1836 55.8714 19.7506 55.6533C19.3177 55.432 18.9547 55.1667 18.6617 54.8574C18.0367 54.1966 17.7242 53.4072 17.7242 52.4893C17.7242 51.4313 18.0856 50.5622 18.8082 49.8818C19.5341 49.2015 20.4375 48.8613 21.5182 48.8613C22.5989 48.8613 23.4941 49.1966 24.2037 49.8672C24.9166 50.5378 25.2731 51.3955 25.2731 52.4404C25.2731 53.6839 24.6399 54.7256 23.3737 55.5654C23.3444 55.585 23.219 55.6484 22.9977 55.7559C22.7796 55.8633 22.6705 55.9251 22.6705 55.9414C22.6705 55.9544 22.7714 56.0293 22.9733 56.166C23.1783 56.306 23.6113 56.6429 24.2721 57.1768C24.6692 57.4958 24.9768 57.6764 25.1949 57.7188C25.413 57.7643 25.5221 57.8083 25.5221 57.8506C25.5221 57.932 25.47 57.9824 25.3658 58.002C25.2617 58.0215 25.1038 58.0312 24.8922 58.0312C24.5244 58.0312 24.1175 57.9108 23.6715 57.6699C22.887 57.1523 22.3597 56.765 22.0895 56.5078C21.8193 56.2507 21.5817 56.1058 21.3766 56.0732C21.3147 56.0635 21.2464 56.0553 21.1715 56.0488ZM19.4479 50.1113C19.22 50.3913 19.0442 50.7201 18.9205 51.0977C18.8001 51.472 18.7415 51.8366 18.7448 52.1914C18.7513 52.8327 18.8798 53.4186 19.1305 53.9492C19.3811 54.4766 19.7311 54.903 20.1803 55.2285C20.6328 55.5508 21.1552 55.7119 21.7477 55.7119C22.4736 55.7119 23.0774 55.4287 23.5592 54.8623C24.041 54.2926 24.2819 53.5472 24.2819 52.626C24.2819 51.7048 24.0459 50.9316 23.5739 50.3066C23.0498 49.6165 22.3173 49.2438 21.3766 49.1885C20.5888 49.1885 19.9459 49.4961 19.4479 50.1113ZM29.5016 55.5117C29.4853 55.4564 29.4642 55.4385 29.4381 55.458C29.4121 55.4743 29.3063 55.5296 29.1207 55.624C28.512 55.9268 28.0042 56.0781 27.5973 56.0781C27.1904 56.0781 26.8974 55.9479 26.7184 55.6875C26.6533 55.5898 26.6207 55.4694 26.6207 55.3262V52.3477C26.611 52.2533 26.5686 52.1719 26.4938 52.1035C26.3929 52.0189 26.2871 51.9733 26.1764 51.9668C26.069 51.9603 26.0153 51.9277 26.0153 51.8691C26.0153 51.8073 26.0413 51.7699 26.0934 51.7568L27.2115 51.4346C27.2506 51.4215 27.288 51.415 27.3239 51.415C27.3629 51.415 27.3824 51.4427 27.3824 51.498V54.7744C27.3824 55.0023 27.4834 55.1781 27.6852 55.3018C27.887 55.4255 28.1442 55.4873 28.4567 55.4873C28.7724 55.4873 29.0556 55.3913 29.3063 55.1992C29.3844 55.1374 29.4495 55.069 29.5016 54.9941V52.3477C29.4918 52.2533 29.4495 52.1719 29.3746 52.1035C29.2737 52.0189 29.1679 51.9733 29.0573 51.9668C28.9498 51.9603 28.8961 51.9277 28.8961 51.8691C28.8961 51.8073 28.9222 51.7699 28.9742 51.7568L30.0924 51.4346C30.1315 51.4215 30.1689 51.415 30.2047 51.415C30.2438 51.415 30.2633 51.4476 30.2633 51.5127V54.9795C30.2796 55.1227 30.3203 55.2253 30.3854 55.2871C30.4505 55.349 30.5563 55.3799 30.7028 55.3799L30.986 55.3604C31.0055 55.3604 31.0153 55.3799 31.0153 55.4189C31.0153 55.4548 30.9908 55.484 30.942 55.5068L29.6432 56.0439C29.6041 56.0635 29.5699 56.0732 29.5406 56.0732C29.5146 56.0732 29.5016 56.0326 29.5016 55.9512V55.5117ZM32.4362 53.3682C32.3808 53.3682 32.3531 53.487 32.3531 53.7246C32.3531 54.2292 32.5029 54.6523 32.8024 54.9941C33.1018 55.3359 33.4729 55.5068 33.9156 55.5068C34.3616 55.5068 34.7897 55.3148 35.1998 54.9307C35.2063 54.9242 35.2145 54.9209 35.2242 54.9209H35.2487C35.2682 54.9209 35.2861 54.9372 35.3024 54.9697C35.3219 54.999 35.3398 55.0186 35.3561 55.0283C34.9785 55.4873 34.5341 55.8047 34.0231 55.9805C33.8473 56.0423 33.6487 56.0732 33.4274 56.0732C33.206 56.0732 32.9814 56.013 32.7535 55.8926C32.5257 55.7689 32.3304 55.6077 32.1676 55.4092C31.8226 54.9958 31.65 54.4814 31.65 53.8662C31.65 53.2477 31.8372 52.6846 32.2115 52.1768C32.5892 51.6689 33.1067 51.415 33.7643 51.415C34.2363 51.415 34.622 51.6266 34.9215 52.0498C35.221 52.4697 35.3707 52.8392 35.3707 53.1582C35.3707 53.2982 35.3365 53.3682 35.2682 53.3682H32.4362ZM32.4899 52.8994C32.4899 52.9613 32.5192 52.9922 32.5778 52.9922H34.4186C34.5032 52.9922 34.5455 52.9417 34.5455 52.8408C34.5455 52.6064 34.4397 52.3672 34.2281 52.123C34.0198 51.8757 33.7903 51.752 33.5397 51.752C33.2955 51.752 33.0726 51.8626 32.8707 52.084C32.6722 52.3053 32.5452 52.5576 32.4899 52.8408V52.8994ZM37.9928 55.7559C38.1458 55.7754 38.2223 55.8145 38.2223 55.873C38.2223 55.9121 38.206 55.9349 38.1735 55.9414H35.9957C35.9632 55.9349 35.9469 55.9121 35.9469 55.873C35.9469 55.8145 36.0234 55.7754 36.1764 55.7559C36.528 55.7038 36.7037 55.5182 36.7037 55.1992V49.1104C36.7037 48.9736 36.6289 48.8792 36.4791 48.8271C36.414 48.8044 36.344 48.7865 36.2692 48.7734C36.1943 48.7572 36.1341 48.7425 36.0885 48.7295C36.0462 48.7165 36.0185 48.7051 36.0055 48.6953C35.9957 48.6823 35.9908 48.6579 35.9908 48.6221C35.9908 48.583 36.0153 48.5505 36.0641 48.5244L37.3092 47.9385C37.3483 47.9189 37.3727 47.9092 37.3824 47.9092C37.4378 47.9092 37.4655 47.9482 37.4655 48.0264V55.1992C37.4655 55.5182 37.6412 55.7038 37.9928 55.7559ZM44.3942 52.4404C44.3551 52.4339 44.2981 52.4128 44.2233 52.377C43.9531 52.2533 43.7415 52.1914 43.5885 52.1914C43.4355 52.1914 43.2744 52.2874 43.1051 52.4795C42.9391 52.6683 42.8561 52.8392 42.8561 52.9922V55.1992C42.8561 55.4434 42.9977 55.6061 43.2809 55.6875C43.4046 55.7201 43.5201 55.7445 43.6276 55.7607C43.735 55.7738 43.8033 55.7868 43.8326 55.7998C43.8652 55.8128 43.8815 55.8389 43.8815 55.8779C43.8815 55.9137 43.8652 55.9349 43.8326 55.9414H41.3864C41.3538 55.9349 41.3375 55.9121 41.3375 55.873C41.3375 55.8145 41.414 55.7754 41.567 55.7559C41.9186 55.7038 42.0944 55.5182 42.0944 55.1992V52.6162C42.0944 52.4795 42.0195 52.3851 41.8698 52.333C41.8046 52.3102 41.7347 52.2923 41.6598 52.2793C41.5849 52.263 41.5247 52.2484 41.4791 52.2354C41.4368 52.2223 41.4091 52.2109 41.3961 52.2012C41.3864 52.1882 41.3815 52.1637 41.3815 52.1279C41.3815 52.0889 41.4059 52.0563 41.4547 52.0303L42.6998 51.4443C42.7389 51.4248 42.7633 51.415 42.7731 51.415C42.8284 51.415 42.8561 51.4541 42.8561 51.5322V52.3232C42.8561 52.3623 42.8658 52.3818 42.8854 52.3818C42.9114 52.3818 42.9781 52.3053 43.0856 52.1523C43.3948 51.7194 43.6503 51.5029 43.8522 51.5029C43.9661 51.5029 44.1403 51.5485 44.3746 51.6396C44.6123 51.7308 44.7311 51.8073 44.7311 51.8691C44.7311 51.944 44.6936 52.0579 44.6188 52.2109C44.5439 52.3639 44.469 52.4404 44.3942 52.4404ZM45.0778 55.9414C45.0452 55.9349 45.0289 55.9121 45.0289 55.873C45.0289 55.8145 45.1054 55.7754 45.2584 55.7559C45.61 55.7038 45.7858 55.5182 45.7858 55.1992V52.6162C45.7858 52.4795 45.7109 52.3851 45.5612 52.333C45.4961 52.3102 45.4261 52.2923 45.3512 52.2793C45.2763 52.263 45.2161 52.2484 45.1705 52.2354C45.1282 52.2223 45.1005 52.2109 45.0875 52.2012C45.0778 52.1882 45.0729 52.1637 45.0729 52.1279C45.0729 52.0889 45.0973 52.0563 45.1461 52.0303L46.3912 51.4443C46.4303 51.4248 46.4547 51.415 46.4645 51.415C46.5198 51.415 46.5475 51.4541 46.5475 51.5322V55.1992C46.5475 55.5182 46.7233 55.7038 47.0748 55.7559C47.2278 55.7754 47.3043 55.8096 47.3043 55.8584C47.3043 55.9072 47.288 55.9349 47.2555 55.9414H45.0778ZM46.0934 50.043C45.9599 50.043 45.8411 50.0007 45.7369 49.916C45.636 49.8314 45.5856 49.7142 45.5856 49.5645C45.5856 49.4115 45.6344 49.291 45.7321 49.2031C45.8297 49.1152 45.9453 49.0713 46.0787 49.0713C46.2155 49.0713 46.3294 49.1234 46.4205 49.2275C46.5149 49.3317 46.5621 49.444 46.5621 49.5645C46.5621 49.6849 46.5182 49.7956 46.4303 49.8965C46.3424 49.9941 46.2301 50.043 46.0934 50.043ZM52.5045 51.5469C52.5403 51.5566 52.5582 51.5794 52.5582 51.6152C52.5582 51.651 52.5533 51.6771 52.5436 51.6934C52.5338 51.7096 52.4622 51.7275 52.3287 51.7471C52.1953 51.7666 52.0992 51.8057 52.0406 51.8643C51.9853 51.9196 51.9349 51.9831 51.8893 52.0547C51.847 52.1263 51.8095 52.2012 51.777 52.2793C51.7444 52.3542 51.7135 52.4225 51.6842 52.4844L50.3512 55.9316C50.3121 56.026 50.2763 56.0732 50.2438 56.0732H49.858C49.8255 56.0732 49.7897 56.0228 49.7506 55.9219L48.4567 52.4209C48.3362 52.0921 48.1295 51.8805 47.8365 51.7861C47.8138 51.7796 47.7861 51.7747 47.7535 51.7715C47.6168 51.7585 47.5485 51.7178 47.5485 51.6494C47.5485 51.5811 47.5875 51.5469 47.6656 51.5469H49.8385C49.8645 51.5469 49.8776 51.5729 49.8776 51.625C49.8776 51.6738 49.8597 51.7064 49.8239 51.7227C49.7653 51.7454 49.6611 51.7552 49.5114 51.752C49.2672 51.7454 49.1451 51.8431 49.1451 52.0449L49.1744 52.1621L50.1656 54.8721C50.2308 55.0381 50.2959 55.0332 50.361 54.8574C50.3675 54.8411 50.4098 54.7354 50.4879 54.54C50.9274 53.417 51.1731 52.7676 51.2252 52.5918C51.2806 52.416 51.3082 52.2842 51.3082 52.1963C51.3082 52.1084 51.261 52.0173 51.1666 51.9229C51.0722 51.8252 50.9453 51.7764 50.7858 51.7764C50.6263 51.7764 50.5465 51.7275 50.5465 51.6299C50.5465 51.5745 50.5823 51.5469 50.6539 51.5469H52.5045ZM52.9489 55.9414C52.9163 55.9349 52.9 55.9121 52.9 55.873C52.9 55.8145 52.9765 55.7754 53.1295 55.7559C53.4811 55.7038 53.6569 55.5182 53.6569 55.1992V52.6162C53.6569 52.4795 53.582 52.3851 53.4323 52.333C53.3671 52.3102 53.2972 52.2923 53.2223 52.2793C53.1474 52.263 53.0872 52.2484 53.0416 52.2354C52.9993 52.2223 52.9716 52.2109 52.9586 52.2012C52.9489 52.1882 52.944 52.1637 52.944 52.1279C52.944 52.0889 52.9684 52.0563 53.0172 52.0303L54.2623 51.4443C54.3014 51.4248 54.3258 51.415 54.3356 51.415C54.3909 51.415 54.4186 51.4541 54.4186 51.5322V55.1992C54.4186 55.5182 54.5944 55.7038 54.9459 55.7559C55.0989 55.7754 55.1754 55.8096 55.1754 55.8584C55.1754 55.9072 55.1591 55.9349 55.1266 55.9414H52.9489ZM53.9645 50.043C53.831 50.043 53.7122 50.0007 53.608 49.916C53.5071 49.8314 53.4567 49.7142 53.4567 49.5645C53.4567 49.4115 53.5055 49.291 53.6031 49.2031C53.7008 49.1152 53.8164 49.0713 53.9498 49.0713C54.0865 49.0713 54.2005 49.1234 54.2916 49.2275C54.386 49.3317 54.4332 49.444 54.4332 49.5645C54.4332 49.6849 54.3893 49.7956 54.3014 49.8965C54.2135 49.9941 54.1012 50.043 53.9645 50.043ZM56.5475 53.3682C56.4921 53.3682 56.4645 53.487 56.4645 53.7246C56.4645 54.2292 56.6142 54.6523 56.9137 54.9941C57.2132 55.3359 57.5843 55.5068 58.027 55.5068C58.4729 55.5068 58.901 55.3148 59.3112 54.9307C59.3177 54.9242 59.3258 54.9209 59.3356 54.9209H59.36C59.3795 54.9209 59.3974 54.9372 59.4137 54.9697C59.4332 54.999 59.4511 55.0186 59.4674 55.0283C59.0898 55.4873 58.6455 55.8047 58.1344 55.9805C57.9586 56.0423 57.7601 56.0732 57.5387 56.0732C57.3173 56.0732 57.0927 56.013 56.8649 55.8926C56.637 55.7689 56.4417 55.6077 56.2789 55.4092C55.9339 54.9958 55.7614 54.4814 55.7614 53.8662C55.7614 53.2477 55.9485 52.6846 56.3229 52.1768C56.7005 51.6689 57.2181 51.415 57.8756 51.415C58.3476 51.415 58.7334 51.6266 59.0328 52.0498C59.3323 52.4697 59.4821 52.8392 59.4821 53.1582C59.4821 53.2982 59.4479 53.3682 59.3795 53.3682H56.5475ZM56.6012 52.8994C56.6012 52.9613 56.6305 52.9922 56.6891 52.9922H58.5299C58.6145 52.9922 58.6569 52.9417 58.6569 52.8408C58.6569 52.6064 58.5511 52.3672 58.3395 52.123C58.1311 51.8757 57.9017 51.752 57.651 51.752C57.4069 51.752 57.1839 51.8626 56.9821 52.084C56.7835 52.3053 56.6565 52.5576 56.6012 52.8408V52.8994ZM58.1344 50.7314C58.1214 50.7445 58.11 50.751 58.1002 50.751C58.0905 50.751 58.0791 50.7445 58.066 50.7314L56.7526 49.6719C56.5735 49.5189 56.484 49.3805 56.484 49.2568C56.484 49.1331 56.5166 49.0355 56.5817 48.9639C56.65 48.889 56.7412 48.8516 56.8551 48.8516C56.969 48.8516 57.0846 48.9313 57.2018 49.0908L58.2418 50.5312C58.2548 50.5443 58.2614 50.554 58.2614 50.5605C58.2614 50.5671 58.2548 50.5768 58.2418 50.5898L58.1344 50.7314ZM63.2711 52.4404C63.2321 52.4339 63.1751 52.4128 63.1002 52.377C62.83 52.2533 62.6184 52.1914 62.4655 52.1914C62.3125 52.1914 62.1513 52.2874 61.9821 52.4795C61.816 52.6683 61.733 52.8392 61.733 52.9922V55.1992C61.733 55.4434 61.8746 55.6061 62.1578 55.6875C62.2815 55.7201 62.3971 55.7445 62.5045 55.7607C62.6119 55.7738 62.6803 55.7868 62.7096 55.7998C62.7421 55.8128 62.7584 55.8389 62.7584 55.8779C62.7584 55.9137 62.7421 55.9349 62.7096 55.9414H60.2633C60.2308 55.9349 60.2145 55.9121 60.2145 55.873C60.2145 55.8145 60.291 55.7754 60.444 55.7559C60.7955 55.7038 60.9713 55.5182 60.9713 55.1992V52.6162C60.9713 52.4795 60.8964 52.3851 60.7467 52.333C60.6816 52.3102 60.6116 52.2923 60.5367 52.2793C60.4619 52.263 60.4017 52.2484 60.3561 52.2354C60.3138 52.2223 60.2861 52.2109 60.2731 52.2012C60.2633 52.1882 60.2584 52.1637 60.2584 52.1279C60.2584 52.0889 60.2828 52.0563 60.3317 52.0303L61.5768 51.4443C61.6158 51.4248 61.6403 51.415 61.65 51.415C61.7054 51.415 61.733 51.4541 61.733 51.5322V52.3232C61.733 52.3623 61.7428 52.3818 61.7623 52.3818C61.7884 52.3818 61.8551 52.3053 61.9625 52.1523C62.2718 51.7194 62.5273 51.5029 62.7291 51.5029C62.8431 51.5029 63.0172 51.5485 63.2516 51.6396C63.4892 51.7308 63.608 51.8073 63.608 51.8691C63.608 51.944 63.5706 52.0579 63.4957 52.2109C63.4209 52.3639 63.346 52.4404 63.2711 52.4404ZM64.7408 53.3682C64.6855 53.3682 64.6578 53.487 64.6578 53.7246C64.6578 54.2292 64.8076 54.6523 65.1071 54.9941C65.4065 55.3359 65.7776 55.5068 66.2203 55.5068C66.6663 55.5068 67.0944 55.3148 67.5045 54.9307C67.511 54.9242 67.5192 54.9209 67.5289 54.9209H67.5533C67.5729 54.9209 67.5908 54.9372 67.6071 54.9697C67.6266 54.999 67.6445 55.0186 67.6608 55.0283C67.2832 55.4873 66.8388 55.8047 66.3278 55.9805C66.152 56.0423 65.9534 56.0732 65.7321 56.0732C65.5107 56.0732 65.2861 56.013 65.0582 55.8926C64.8304 55.7689 64.6351 55.6077 64.4723 55.4092C64.1272 54.9958 63.9547 54.4814 63.9547 53.8662C63.9547 53.2477 64.1419 52.6846 64.5162 52.1768C64.8938 51.6689 65.4114 51.415 66.069 51.415C66.541 51.415 66.9267 51.6266 67.2262 52.0498C67.5257 52.4697 67.6754 52.8392 67.6754 53.1582C67.6754 53.2982 67.6412 53.3682 67.5729 53.3682H64.7408ZM64.7946 52.8994C64.7946 52.9613 64.8239 52.9922 64.8824 52.9922H66.7233C66.8079 52.9922 66.8502 52.9417 66.8502 52.8408C66.8502 52.6064 66.7444 52.3672 66.5328 52.123C66.3245 51.8757 66.095 51.752 65.8444 51.752C65.6002 51.752 65.3772 51.8626 65.1754 52.084C64.9768 52.3053 64.8499 52.5576 64.7946 52.8408V52.8994ZM74.7653 54.4033L74.7555 53.373C74.7555 52.9531 74.7197 52.6585 74.6481 52.4893C74.5765 52.32 74.4853 52.193 74.3746 52.1084C74.264 52.0205 74.1142 51.9766 73.9254 51.9766C73.7399 51.9766 73.3444 52.123 72.7389 52.416C72.6575 52.4648 72.6152 52.5104 72.6119 52.5527V55.1797C72.6119 55.5085 72.7877 55.6973 73.1393 55.7461C73.2923 55.7689 73.3688 55.8063 73.3688 55.8584C73.3688 55.9072 73.3525 55.9349 73.3199 55.9414H71.1422C71.1097 55.9349 71.0934 55.9121 71.0934 55.873C71.0934 55.8112 71.1699 55.7689 71.3229 55.7461C71.6744 55.6973 71.8502 55.5085 71.8502 55.1797V52.377C71.8502 52.2402 71.7753 52.1458 71.6256 52.0938C71.5605 52.071 71.4905 52.0531 71.4156 52.04C71.3408 52.0238 71.2806 52.0091 71.235 51.9961C71.1927 51.9831 71.165 51.9717 71.152 51.9619C71.1422 51.9489 71.1373 51.9245 71.1373 51.8887C71.1373 51.8496 71.1617 51.8171 71.2106 51.791L72.4557 51.2051C72.4948 51.1855 72.5192 51.1758 72.5289 51.1758C72.5843 51.1758 72.6119 51.2148 72.6119 51.293V52.0547C72.6217 52.0872 72.6347 52.1035 72.651 52.1035C72.6705 52.1035 72.7405 52.0742 72.861 52.0156C73.1409 51.8757 73.4225 51.7406 73.7057 51.6104C73.9889 51.4801 74.2233 51.415 74.4088 51.415C75.1608 51.415 75.5367 52.1003 75.5367 53.4707L75.4928 54.8965V55.1797C75.4928 55.4336 75.6198 55.5996 75.8737 55.6777C75.9811 55.7135 76.0836 55.7396 76.1813 55.7559C76.2822 55.7689 76.3473 55.7819 76.3766 55.7949C76.4091 55.8079 76.4254 55.834 76.4254 55.873C76.4254 55.9121 76.4091 55.9349 76.3766 55.9414H74.0231C73.9905 55.9349 73.9742 55.9121 73.9742 55.873C73.9742 55.8112 74.0507 55.7689 74.2037 55.7461C74.552 55.6973 74.7262 55.4954 74.7262 55.1406C74.7522 54.9779 74.7653 54.7321 74.7653 54.4033ZM78.5153 49.9551C78.5153 50.5605 78.2304 51.0651 77.6608 51.4688C77.5306 51.5632 77.4313 51.6104 77.3629 51.6104C77.3173 51.6104 77.2946 51.5827 77.2946 51.5273C77.2946 51.4688 77.3043 51.4281 77.3239 51.4053C77.3434 51.3792 77.3662 51.3564 77.3922 51.3369C77.4183 51.3174 77.4427 51.2995 77.4655 51.2832C77.4915 51.2669 77.5224 51.2441 77.5582 51.2148C77.8837 50.9186 78.0465 50.6501 78.0465 50.4092C78.0465 50.2692 77.9863 50.1992 77.8658 50.1992C77.5403 50.1992 77.3239 50.0967 77.2164 49.8916C77.1774 49.8167 77.1578 49.7126 77.1578 49.5791C77.1578 49.4456 77.2164 49.3252 77.3336 49.2178C77.4541 49.1104 77.5826 49.0566 77.7194 49.0566C77.9733 49.0566 78.1686 49.1576 78.3053 49.3594C78.4453 49.5579 78.5153 49.7565 78.5153 49.9551ZM79.8678 53.3682C79.8125 53.3682 79.7848 53.487 79.7848 53.7246C79.7848 54.2292 79.9345 54.6523 80.234 54.9941C80.5335 55.3359 80.9046 55.5068 81.3473 55.5068C81.7933 55.5068 82.2213 55.3148 82.6315 54.9307C82.638 54.9242 82.6461 54.9209 82.6559 54.9209H82.6803C82.6998 54.9209 82.7177 54.9372 82.734 54.9697C82.7535 54.999 82.7714 55.0186 82.7877 55.0283C82.4101 55.4873 81.9658 55.8047 81.4547 55.9805C81.2789 56.0423 81.0804 56.0732 80.859 56.0732C80.6377 56.0732 80.413 56.013 80.1852 55.8926C79.9573 55.7689 79.762 55.6077 79.5992 55.4092C79.2542 54.9958 79.0817 54.4814 79.0817 53.8662C79.0817 53.2477 79.2688 52.6846 79.6432 52.1768C80.0208 51.6689 80.5384 51.415 81.1959 51.415C81.6679 51.415 82.0537 51.6266 82.3531 52.0498C82.6526 52.4697 82.8024 52.8392 82.8024 53.1582C82.8024 53.2982 82.7682 53.3682 82.6998 53.3682H79.8678ZM79.9215 52.8994C79.9215 52.9613 79.9508 52.9922 80.0094 52.9922H81.8502C81.9349 52.9922 81.9772 52.9417 81.9772 52.8408C81.9772 52.6064 81.8714 52.3672 81.6598 52.123C81.4515 51.8757 81.222 51.752 80.9713 51.752C80.7272 51.752 80.5042 51.8626 80.3024 52.084C80.1038 52.3053 79.9768 52.5576 79.9215 52.8408V52.8994ZM85.9908 52.6016C85.9908 52.6732 85.9632 52.709 85.9078 52.709C85.8558 52.709 85.8151 52.6699 85.7858 52.5918C85.7076 52.377 85.5905 52.1865 85.4342 52.0205C85.2812 51.8545 85.0908 51.7715 84.8629 51.7715C84.5634 51.7715 84.3616 51.9212 84.2574 52.2207C84.2249 52.3216 84.2086 52.4258 84.2086 52.5332C84.2086 52.6406 84.277 52.7611 84.4137 52.8945C84.5504 53.0247 84.775 53.181 85.0875 53.3633C85.4 53.5456 85.6279 53.7002 85.7711 53.8271C86.0966 54.1169 86.2594 54.4521 86.2594 54.833C86.2594 55.2139 86.1194 55.5166 85.8395 55.7412C85.5595 55.9626 85.234 56.0732 84.8629 56.0732C84.6643 56.0732 84.4837 56.0456 84.3209 55.9902C84.1614 55.9382 84.0686 55.9121 84.0426 55.9121C84.0198 55.9121 83.9808 55.9382 83.9254 55.9902C83.8733 56.0456 83.831 56.0732 83.7985 56.0732H83.7155C83.6959 56.0732 83.6715 55.8975 83.6422 55.5459C83.6129 55.1943 83.5983 54.986 83.5983 54.9209C83.5983 54.8558 83.6031 54.82 83.6129 54.8135C83.6259 54.807 83.6455 54.8037 83.6715 54.8037C83.6976 54.8037 83.7187 54.8118 83.735 54.8281C83.7545 54.8444 83.7708 54.8656 83.7838 54.8916C83.7968 54.9144 83.8066 54.9388 83.8131 54.9648C83.8229 54.9909 83.844 55.0397 83.8766 55.1113C84.0979 55.5833 84.4397 55.8193 84.902 55.8193C85.1071 55.8193 85.2714 55.7445 85.3951 55.5947C85.5188 55.4417 85.5807 55.2725 85.5807 55.0869C85.5807 54.9014 85.5319 54.7451 85.4342 54.6182C85.3365 54.4912 85.2145 54.3757 85.068 54.2715C84.9248 54.1673 84.7685 54.0664 84.5992 53.9688C83.9417 53.5846 83.6129 53.1598 83.6129 52.6943C83.6129 52.346 83.7627 52.0465 84.0621 51.7959C84.3616 51.542 84.6692 51.415 84.985 51.415C85.3007 51.415 85.5335 51.4492 85.6832 51.5176C85.8362 51.5859 85.9257 51.6445 85.9518 51.6934C85.9778 51.7389 85.9908 51.8919 85.9908 52.1523V52.6016ZM88.1588 52.1865C88.1393 52.1865 88.1295 52.2012 88.1295 52.2305V54.9258C88.1295 55.1211 88.1718 55.2741 88.2565 55.3848C88.3444 55.4954 88.455 55.5508 88.5885 55.5508C88.722 55.5508 88.8375 55.5296 88.9352 55.4873C89.0361 55.4417 89.1224 55.3929 89.194 55.3408C89.2688 55.2887 89.3356 55.2415 89.3942 55.1992C89.4528 55.1536 89.5048 55.1309 89.5504 55.1309C89.596 55.1309 89.6188 55.1423 89.6188 55.165C89.6188 55.2432 89.6106 55.2936 89.5944 55.3164C89.2037 55.821 88.8261 56.0732 88.4615 56.0732C88.1002 56.0732 87.8268 55.9593 87.6412 55.7314C87.4589 55.5003 87.3678 55.2253 87.3678 54.9062V52.1865H87.0016C86.9104 52.1865 86.8616 52.1572 86.8551 52.0986C86.8518 52.04 86.8616 52.0026 86.8844 51.9863C87.0569 51.8757 87.2946 51.6771 87.5973 51.3906C87.6298 51.3548 87.6738 51.3011 87.7291 51.2295C87.7845 51.1579 87.8642 51.0602 87.9684 50.9365C88.0758 50.8128 88.1572 50.751 88.2125 50.751C88.2679 50.751 88.2955 50.7738 88.2955 50.8193C88.2955 50.8258 88.2402 51.0391 88.1295 51.459C88.1295 51.5176 88.1556 51.5485 88.2076 51.5518H89.4528C89.596 51.5518 89.6676 51.7536 89.6676 52.1572C89.6676 52.1768 89.6546 52.1865 89.6285 52.1865H88.1588ZM96.4987 55.4287C96.0494 55.8584 95.5449 56.0732 94.985 56.0732C94.7832 56.0732 94.5081 56.0358 94.1598 55.9609C94.1045 55.9609 94.0735 55.9805 94.067 56.0195C94.0638 56.0586 94.0605 56.0993 94.0573 56.1416V58.2266C94.0573 58.4707 94.1989 58.6335 94.4821 58.7148C94.6058 58.7474 94.7213 58.7702 94.8287 58.7832C94.9362 58.7995 95.0045 58.8141 95.0338 58.8271C95.0664 58.8402 95.0826 58.8646 95.0826 58.9004C95.0826 58.9395 95.0664 58.9622 95.0338 58.9688H92.5875C92.555 58.9622 92.5387 58.9395 92.5387 58.9004C92.5387 58.8418 92.6152 58.8027 92.7682 58.7832C93.1198 58.7311 93.2955 58.5456 93.2955 58.2266V52.3721C93.2955 52.2354 93.2207 52.141 93.0709 52.0889C93.0058 52.0661 92.9358 52.0482 92.861 52.0352C92.7861 52.0189 92.7259 52.0042 92.6803 51.9912C92.638 51.9782 92.6103 51.9668 92.5973 51.957C92.5875 51.944 92.5826 51.9196 92.5826 51.8838C92.5826 51.8447 92.6071 51.8122 92.6559 51.7861L93.901 51.1904C93.927 51.1774 93.9531 51.1709 93.9791 51.1709C94.0312 51.1709 94.0573 51.21 94.0573 51.2881V51.9082C94.0573 51.944 94.0752 51.9619 94.111 51.9619C94.15 51.9619 94.2412 51.9147 94.3844 51.8203C94.7978 51.5534 95.2275 51.4199 95.6735 51.4199C95.986 51.4199 96.2724 51.5469 96.5328 51.8008C96.8746 52.1328 97.1025 52.5951 97.2164 53.1875C97.249 53.3568 97.2653 53.5374 97.2653 53.7295C97.2653 53.9183 97.2343 54.1185 97.1725 54.3301C97.0488 54.75 96.8242 55.1162 96.4987 55.4287ZM95.1022 51.9277C94.6595 51.9277 94.3112 52.0547 94.0573 52.3086V55.0527C94.0573 55.2155 94.0849 55.3213 94.1403 55.3701C94.2835 55.4938 94.5032 55.5898 94.7994 55.6582C95.3854 55.7917 95.8411 55.6517 96.1666 55.2383C96.3977 54.9421 96.5133 54.584 96.5133 54.1641C96.5133 53.347 96.3294 52.735 95.9615 52.3281C95.7402 52.0807 95.4537 51.9473 95.1022 51.9277ZM101.162 55.1357C101.162 55.2204 101.201 55.2887 101.279 55.3408C101.36 55.3896 101.453 55.4141 101.557 55.4141C101.661 55.4141 101.748 55.388 101.816 55.3359C101.888 55.2806 101.936 55.2529 101.963 55.2529C101.989 55.2529 102.002 55.2887 102.002 55.3604C102.002 55.4287 101.969 55.4873 101.904 55.5361C101.416 55.8942 101.085 56.0732 100.913 56.0732C100.704 56.0732 100.535 55.8568 100.405 55.4238C100.395 55.3913 100.387 55.3766 100.38 55.3799C99.9768 55.6826 99.7229 55.8649 99.6188 55.9268C99.3518 56.0798 99.0833 56.1042 98.8131 56C98.5462 55.8958 98.3525 55.7233 98.2321 55.4824C98.1735 55.3587 98.1442 55.2269 98.1442 55.0869C98.1442 54.8102 98.2467 54.5905 98.4518 54.4277C98.6569 54.265 99.0475 54.1087 99.6237 53.959C99.819 53.9069 99.9931 53.8402 100.146 53.7588C100.299 53.6774 100.379 53.6253 100.385 53.6025C100.395 53.5798 100.4 53.5586 100.4 53.5391V52.6016C100.4 52.2337 100.257 51.9749 99.9703 51.8252C99.8759 51.7764 99.762 51.752 99.6285 51.752C99.4983 51.752 99.3649 51.804 99.2281 51.9082C99.0947 52.0124 99.028 52.1605 99.028 52.3525L99.0524 52.543C99.0328 52.582 98.9156 52.6471 98.7008 52.7383C98.486 52.8294 98.3623 52.8783 98.3297 52.8848C98.2776 52.8848 98.2516 52.8229 98.2516 52.6992C98.2516 52.5723 98.289 52.4323 98.3639 52.2793C98.4388 52.1263 98.5446 51.9863 98.6813 51.8594C99.0003 51.5632 99.3649 51.415 99.775 51.415C100.185 51.415 100.519 51.529 100.776 51.7568C101.033 51.9814 101.162 52.25 101.162 52.5625V55.1357ZM98.9108 54.9941C98.9108 55.1504 98.971 55.2871 99.0914 55.4043C99.2119 55.5182 99.3486 55.5752 99.5016 55.5752C99.6578 55.5752 99.8466 55.5101 100.068 55.3799C100.289 55.2464 100.4 55.1097 100.4 54.9697V53.9785C100.4 53.9427 100.392 53.9248 100.376 53.9248C100.359 53.9248 100.348 53.9264 100.341 53.9297L99.2086 54.457C99.0914 54.5417 99.0117 54.6133 98.9694 54.6719C98.9303 54.7305 98.9108 54.8379 98.9108 54.9941ZM104.839 52.6016C104.839 52.6732 104.811 52.709 104.755 52.709C104.703 52.709 104.663 52.6699 104.633 52.5918C104.555 52.377 104.438 52.1865 104.282 52.0205C104.129 51.8545 103.938 51.7715 103.711 51.7715C103.411 51.7715 103.209 51.9212 103.105 52.2207C103.073 52.3216 103.056 52.4258 103.056 52.5332C103.056 52.6406 103.125 52.7611 103.261 52.8945C103.398 53.0247 103.623 53.181 103.935 53.3633C104.248 53.5456 104.476 53.7002 104.619 53.8271C104.944 54.1169 105.107 54.4521 105.107 54.833C105.107 55.2139 104.967 55.5166 104.687 55.7412C104.407 55.9626 104.082 56.0732 103.711 56.0732C103.512 56.0732 103.331 56.0456 103.169 55.9902C103.009 55.9382 102.916 55.9121 102.89 55.9121C102.867 55.9121 102.828 55.9382 102.773 55.9902C102.721 56.0456 102.679 56.0732 102.646 56.0732H102.563C102.544 56.0732 102.519 55.8975 102.49 55.5459C102.461 55.1943 102.446 54.986 102.446 54.9209C102.446 54.8558 102.451 54.82 102.461 54.8135C102.474 54.807 102.493 54.8037 102.519 54.8037C102.545 54.8037 102.566 54.8118 102.583 54.8281C102.602 54.8444 102.618 54.8656 102.631 54.8916C102.644 54.9144 102.654 54.9388 102.661 54.9648C102.671 54.9909 102.692 55.0397 102.724 55.1113C102.946 55.5833 103.287 55.8193 103.75 55.8193C103.955 55.8193 104.119 55.7445 104.243 55.5947C104.366 55.4417 104.428 55.2725 104.428 55.0869C104.428 54.9014 104.38 54.7451 104.282 54.6182C104.184 54.4912 104.062 54.3757 103.916 54.2715C103.772 54.1673 103.616 54.0664 103.447 53.9688C102.789 53.5846 102.461 53.1598 102.461 52.6943C102.461 52.346 102.61 52.0465 102.91 51.7959C103.209 51.542 103.517 51.415 103.833 51.415C104.148 51.415 104.381 51.4492 104.531 51.5176C104.684 51.5859 104.773 51.6445 104.799 51.6934C104.825 51.7389 104.839 51.8919 104.839 52.1523V52.6016ZM110.874 52.6016C110.874 52.6732 110.846 52.709 110.791 52.709C110.739 52.709 110.698 52.6699 110.669 52.5918C110.59 52.377 110.473 52.1865 110.317 52.0205C110.164 51.8545 109.974 51.7715 109.746 51.7715C109.446 51.7715 109.244 51.9212 109.14 52.2207C109.108 52.3216 109.091 52.4258 109.091 52.5332C109.091 52.6406 109.16 52.7611 109.297 52.8945C109.433 53.0247 109.658 53.181 109.97 53.3633C110.283 53.5456 110.511 53.7002 110.654 53.8271C110.979 54.1169 111.142 54.4521 111.142 54.833C111.142 55.2139 111.002 55.5166 110.722 55.7412C110.442 55.9626 110.117 56.0732 109.746 56.0732C109.547 56.0732 109.366 56.0456 109.204 55.9902C109.044 55.9382 108.951 55.9121 108.925 55.9121C108.903 55.9121 108.864 55.9382 108.808 55.9902C108.756 56.0456 108.714 56.0732 108.681 56.0732H108.598C108.579 56.0732 108.554 55.8975 108.525 55.5459C108.496 55.1943 108.481 54.986 108.481 54.9209C108.481 54.8558 108.486 54.82 108.496 54.8135C108.509 54.807 108.528 54.8037 108.554 54.8037C108.58 54.8037 108.602 54.8118 108.618 54.8281C108.637 54.8444 108.654 54.8656 108.667 54.8916C108.68 54.9144 108.689 54.9388 108.696 54.9648C108.706 54.9909 108.727 55.0397 108.759 55.1113C108.981 55.5833 109.323 55.8193 109.785 55.8193C109.99 55.8193 110.154 55.7445 110.278 55.5947C110.402 55.4417 110.464 55.2725 110.464 55.0869C110.464 54.9014 110.415 54.7451 110.317 54.6182C110.219 54.4912 110.097 54.3757 109.951 54.2715C109.808 54.1673 109.651 54.0664 109.482 53.9688C108.825 53.5846 108.496 53.1598 108.496 52.6943C108.496 52.346 108.645 52.0465 108.945 51.7959C109.244 51.542 109.552 51.415 109.868 51.415C110.184 51.415 110.416 51.4492 110.566 51.5176C110.719 51.5859 110.809 51.6445 110.835 51.6934C110.861 51.7389 110.874 51.8919 110.874 52.1523V52.6016ZM115.195 55.5117C115.179 55.4564 115.158 55.4385 115.131 55.458C115.105 55.4743 115 55.5296 114.814 55.624C114.205 55.9268 113.698 56.0781 113.291 56.0781C112.884 56.0781 112.591 55.9479 112.412 55.6875C112.347 55.5898 112.314 55.4694 112.314 55.3262V52.3477C112.304 52.2533 112.262 52.1719 112.187 52.1035C112.086 52.0189 111.98 51.9733 111.87 51.9668C111.762 51.9603 111.709 51.9277 111.709 51.8691C111.709 51.8073 111.735 51.7699 111.787 51.7568L112.905 51.4346C112.944 51.4215 112.981 51.415 113.017 51.415C113.056 51.415 113.076 51.4427 113.076 51.498V54.7744C113.076 55.0023 113.177 55.1781 113.379 55.3018C113.58 55.4255 113.838 55.4873 114.15 55.4873C114.466 55.4873 114.749 55.3913 115 55.1992C115.078 55.1374 115.143 55.069 115.195 54.9941V52.3477C115.185 52.2533 115.143 52.1719 115.068 52.1035C114.967 52.0189 114.861 51.9733 114.751 51.9668C114.643 51.9603 114.589 51.9277 114.589 51.8691C114.589 51.8073 114.616 51.7699 114.668 51.7568L115.786 51.4346C115.825 51.4215 115.862 51.415 115.898 51.415C115.937 51.415 115.957 51.4476 115.957 51.5127V54.9795C115.973 55.1227 116.014 55.2253 116.079 55.2871C116.144 55.349 116.25 55.3799 116.396 55.3799L116.679 55.3604C116.699 55.3604 116.709 55.3799 116.709 55.4189C116.709 55.4548 116.684 55.484 116.635 55.5068L115.337 56.0439C115.297 56.0635 115.263 56.0732 115.234 56.0732C115.208 56.0732 115.195 56.0326 115.195 55.9512V55.5117ZM120.312 52.4404C120.273 52.4339 120.216 52.4128 120.141 52.377C119.871 52.2533 119.659 52.1914 119.506 52.1914C119.353 52.1914 119.192 52.2874 119.023 52.4795C118.857 52.6683 118.774 52.8392 118.774 52.9922V55.1992C118.774 55.4434 118.916 55.6061 119.199 55.6875C119.323 55.7201 119.438 55.7445 119.546 55.7607C119.653 55.7738 119.721 55.7868 119.751 55.7998C119.783 55.8128 119.799 55.8389 119.799 55.8779C119.799 55.9137 119.783 55.9349 119.751 55.9414H117.304C117.272 55.9349 117.255 55.9121 117.255 55.873C117.255 55.8145 117.332 55.7754 117.485 55.7559C117.837 55.7038 118.012 55.5182 118.012 55.1992V52.6162C118.012 52.4795 117.937 52.3851 117.788 52.333C117.723 52.3102 117.653 52.2923 117.578 52.2793C117.503 52.263 117.443 52.2484 117.397 52.2354C117.355 52.2223 117.327 52.2109 117.314 52.2012C117.304 52.1882 117.299 52.1637 117.299 52.1279C117.299 52.0889 117.324 52.0563 117.373 52.0303L118.618 51.4443C118.657 51.4248 118.681 51.415 118.691 51.415C118.746 51.415 118.774 51.4541 118.774 51.5322V52.3232C118.774 52.3623 118.784 52.3818 118.803 52.3818C118.829 52.3818 118.896 52.3053 119.004 52.1523C119.313 51.7194 119.568 51.5029 119.77 51.5029C119.884 51.5029 120.058 51.5485 120.293 51.6396C120.53 51.7308 120.649 51.8073 120.649 51.8691C120.649 51.944 120.612 52.0579 120.537 52.2109C120.462 52.3639 120.387 52.4404 120.312 52.4404ZM125.483 55.7559C125.636 55.7754 125.713 55.8145 125.713 55.873C125.713 55.9121 125.696 55.9349 125.664 55.9414H123.486C123.453 55.9349 123.437 55.9121 123.437 55.873C123.437 55.8145 123.514 55.7754 123.667 55.7559C124.018 55.7038 124.194 55.5182 124.194 55.1992V49.1104C124.194 48.9736 124.119 48.8792 123.969 48.8271C123.904 48.8044 123.834 48.7865 123.759 48.7734C123.685 48.7572 123.624 48.7425 123.579 48.7295C123.536 48.7165 123.509 48.7051 123.496 48.6953C123.486 48.6823 123.481 48.6579 123.481 48.6221C123.481 48.583 123.505 48.5505 123.554 48.5244L124.799 47.9385C124.839 47.9189 124.863 47.9092 124.873 47.9092C124.928 47.9092 124.956 47.9482 124.956 48.0264V55.1992C124.956 55.5182 125.131 55.7038 125.483 55.7559ZM129.248 55.1357C129.248 55.2204 129.287 55.2887 129.365 55.3408C129.446 55.3896 129.539 55.4141 129.643 55.4141C129.747 55.4141 129.834 55.388 129.902 55.3359C129.974 55.2806 130.022 55.2529 130.048 55.2529C130.075 55.2529 130.088 55.2887 130.088 55.3604C130.088 55.4287 130.055 55.4873 129.99 55.5361C129.502 55.8942 129.171 56.0732 128.999 56.0732C128.79 56.0732 128.621 55.8568 128.491 55.4238C128.481 55.3913 128.473 55.3766 128.466 55.3799C128.063 55.6826 127.809 55.8649 127.705 55.9268C127.438 56.0798 127.169 56.1042 126.899 56C126.632 55.8958 126.438 55.7233 126.318 55.4824C126.259 55.3587 126.23 55.2269 126.23 55.0869C126.23 54.8102 126.333 54.5905 126.538 54.4277C126.743 54.265 127.133 54.1087 127.71 53.959C127.905 53.9069 128.079 53.8402 128.232 53.7588C128.385 53.6774 128.465 53.6253 128.471 53.6025C128.481 53.5798 128.486 53.5586 128.486 53.5391V52.6016C128.486 52.2337 128.343 51.9749 128.056 51.8252C127.962 51.7764 127.848 51.752 127.714 51.752C127.584 51.752 127.451 51.804 127.314 51.9082C127.181 52.0124 127.114 52.1605 127.114 52.3525L127.138 52.543C127.119 52.582 127.002 52.6471 126.787 52.7383C126.572 52.8294 126.448 52.8783 126.416 52.8848C126.364 52.8848 126.338 52.8229 126.338 52.6992C126.338 52.5723 126.375 52.4323 126.45 52.2793C126.525 52.1263 126.63 51.9863 126.767 51.8594C127.086 51.5632 127.451 51.415 127.861 51.415C128.271 51.415 128.605 51.529 128.862 51.7568C129.119 51.9814 129.248 52.25 129.248 52.5625V55.1357ZM126.997 54.9941C126.997 55.1504 127.057 55.2871 127.177 55.4043C127.298 55.5182 127.435 55.5752 127.588 55.5752C127.744 55.5752 127.933 55.5101 128.154 55.3799C128.375 55.2464 128.486 55.1097 128.486 54.9697V53.9785C128.486 53.9427 128.478 53.9248 128.462 53.9248C128.445 53.9248 128.434 53.9264 128.427 53.9297L127.295 54.457C127.177 54.5417 127.098 54.6133 127.055 54.6719C127.016 54.7305 126.997 54.8379 126.997 54.9941ZM50.6637 66.1865C50.6442 66.1865 50.6344 66.2012 50.6344 66.2305V68.9258C50.6344 69.1211 50.6767 69.2741 50.7614 69.3848C50.8492 69.4954 50.9599 69.5508 51.0934 69.5508C51.2268 69.5508 51.3424 69.5296 51.4401 69.4873C51.541 69.4417 51.6272 69.3929 51.6989 69.3408C51.7737 69.2887 51.8405 69.2415 51.899 69.1992C51.9576 69.1536 52.0097 69.1309 52.0553 69.1309C52.1009 69.1309 52.1237 69.1423 52.1237 69.165C52.1237 69.2432 52.1155 69.2936 52.0992 69.3164C51.7086 69.821 51.331 70.0732 50.9664 70.0732C50.6051 70.0732 50.3317 69.9593 50.1461 69.7314C49.9638 69.5003 49.8727 69.2253 49.8727 68.9062V66.1865H49.5065C49.4153 66.1865 49.3665 66.1572 49.36 66.0986C49.3567 66.04 49.3665 66.0026 49.3893 65.9863C49.5618 65.8757 49.7994 65.6771 50.1022 65.3906C50.1347 65.3548 50.1787 65.3011 50.234 65.2295C50.2893 65.1579 50.3691 65.0602 50.4733 64.9365C50.5807 64.8128 50.6621 64.751 50.7174 64.751C50.7727 64.751 50.8004 64.7738 50.8004 64.8193C50.8004 64.8258 50.7451 65.0391 50.6344 65.459C50.6344 65.5176 50.6604 65.5485 50.7125 65.5518H51.9576C52.1009 65.5518 52.1725 65.7536 52.1725 66.1572C52.1725 66.1768 52.1595 66.1865 52.1334 66.1865H50.6637ZM55.61 66.4404C55.5709 66.4339 55.514 66.4128 55.4391 66.377C55.1689 66.2533 54.9573 66.1914 54.8043 66.1914C54.6513 66.1914 54.4902 66.2874 54.3209 66.4795C54.1549 66.6683 54.0719 66.8392 54.0719 66.9922V69.1992C54.0719 69.4434 54.2135 69.6061 54.4967 69.6875C54.6204 69.7201 54.736 69.7445 54.8434 69.7607C54.9508 69.7738 55.0192 69.7868 55.0485 69.7998C55.081 69.8128 55.0973 69.8389 55.0973 69.8779C55.0973 69.9137 55.081 69.9349 55.0485 69.9414H52.6022C52.5696 69.9349 52.5533 69.9121 52.5533 69.873C52.5533 69.8145 52.6298 69.7754 52.7828 69.7559C53.1344 69.7038 53.3102 69.5182 53.3102 69.1992V66.6162C53.3102 66.4795 53.2353 66.3851 53.0856 66.333C53.0205 66.3102 52.9505 66.2923 52.8756 66.2793C52.8007 66.263 52.7405 66.2484 52.6949 66.2354C52.6526 66.2223 52.625 66.2109 52.6119 66.2012C52.6022 66.1882 52.5973 66.1637 52.5973 66.1279C52.5973 66.0889 52.6217 66.0563 52.6705 66.0303L53.9156 65.4443C53.9547 65.4248 53.9791 65.415 53.9889 65.415C54.0442 65.415 54.0719 65.4541 54.0719 65.5322V66.3232C54.0719 66.3623 54.0817 66.3818 54.1012 66.3818C54.1272 66.3818 54.194 66.3053 54.3014 66.1523C54.6106 65.7194 54.8662 65.5029 55.068 65.5029C55.1819 65.5029 55.3561 65.5485 55.5905 65.6396C55.8281 65.7308 55.9469 65.8073 55.9469 65.8691C55.9469 65.944 55.9095 66.0579 55.8346 66.2109C55.7597 66.3639 55.6849 66.4404 55.61 66.4404ZM59.3112 69.1357C59.3112 69.2204 59.3502 69.2887 59.4283 69.3408C59.5097 69.3896 59.6025 69.4141 59.7067 69.4141C59.8108 69.4141 59.8971 69.388 59.9655 69.3359C60.0371 69.2806 60.0859 69.2529 60.1119 69.2529C60.138 69.2529 60.151 69.2887 60.151 69.3604C60.151 69.4287 60.1184 69.4873 60.0533 69.5361C59.5651 69.8942 59.2347 70.0732 59.0621 70.0732C58.8538 70.0732 58.6845 69.8568 58.5543 69.4238C58.5446 69.3913 58.5364 69.3766 58.5299 69.3799C58.1263 69.6826 57.8724 69.8649 57.7682 69.9268C57.5013 70.0798 57.2327 70.1042 56.9625 70C56.6956 69.8958 56.5019 69.7233 56.3815 69.4824C56.3229 69.3587 56.2936 69.2269 56.2936 69.0869C56.2936 68.8102 56.3961 68.5905 56.6012 68.4277C56.8063 68.265 57.1969 68.1087 57.7731 67.959C57.9684 67.9069 58.1425 67.8402 58.2955 67.7588C58.4485 67.6774 58.5283 67.6253 58.5348 67.6025C58.5446 67.5798 58.5494 67.5586 58.5494 67.5391V66.6016C58.5494 66.2337 58.4062 65.9749 58.1198 65.8252C58.0253 65.7764 57.9114 65.752 57.778 65.752C57.6477 65.752 57.5143 65.804 57.3776 65.9082C57.2441 66.0124 57.1774 66.1605 57.1774 66.3525L57.2018 66.543C57.1823 66.582 57.0651 66.6471 56.8502 66.7383C56.6354 66.8294 56.5117 66.8783 56.4791 66.8848C56.427 66.8848 56.401 66.8229 56.401 66.6992C56.401 66.5723 56.4384 66.4323 56.5133 66.2793C56.5882 66.1263 56.694 65.9863 56.8307 65.8594C57.1497 65.5632 57.5143 65.415 57.9244 65.415C58.3346 65.415 58.6683 65.529 58.9254 65.7568C59.1826 65.9814 59.3112 66.25 59.3112 66.5625V69.1357ZM57.0602 68.9941C57.0602 69.1504 57.1204 69.2871 57.2408 69.4043C57.3613 69.5182 57.498 69.5752 57.651 69.5752C57.8073 69.5752 57.9961 69.5101 58.2174 69.3799C58.4388 69.2464 58.5494 69.1097 58.5494 68.9697V67.9785C58.5494 67.9427 58.5413 67.9248 58.525 67.9248C58.5087 67.9248 58.4974 67.9264 58.4908 67.9297L57.358 68.457C57.2408 68.5417 57.1611 68.6133 57.1188 68.6719C57.0797 68.7305 57.0602 68.8379 57.0602 68.9941ZM60.8102 72.5928C61.1552 72.5114 61.3278 72.1436 61.3278 71.4893V66.6162C61.3278 66.4795 61.2529 66.3851 61.1031 66.333C61.038 66.3102 60.9681 66.2923 60.8932 66.2793C60.8183 66.263 60.7581 66.2484 60.7125 66.2354C60.6702 66.2223 60.6425 66.2109 60.6295 66.2012C60.6198 66.1882 60.6149 66.1637 60.6149 66.1279C60.6149 66.0889 60.6393 66.0563 60.6881 66.0303L61.9332 65.4443C61.9723 65.4248 61.9967 65.415 62.0065 65.415C62.0618 65.415 62.0895 65.4541 62.0895 65.5322V70.5615C62.0895 71.0824 61.9821 71.556 61.7672 71.9824C61.6923 72.1289 61.6028 72.2624 61.4987 72.3828C61.2122 72.7669 60.8346 72.985 60.3658 73.0371C60.2096 73.0566 60.0452 73.0664 59.8727 73.0664C59.6969 73.0664 59.5227 72.9997 59.3502 72.8662C59.1777 72.736 59.0849 72.5944 59.0719 72.4414C59.0719 72.2656 59.1582 72.1354 59.3307 72.0508C59.386 72.0247 59.4349 72.0117 59.4772 72.0117C59.552 72.0117 59.7767 72.1549 60.151 72.4414C60.2845 72.5423 60.5042 72.5928 60.8102 72.5928ZM61.5719 64.043C61.4384 64.043 61.3196 64.0007 61.2155 63.916C61.1113 63.8314 61.0592 63.7142 61.0592 63.5645C61.0592 63.4115 61.108 63.291 61.2057 63.2031C61.3033 63.1152 61.4205 63.0713 61.5573 63.0713C61.694 63.0713 61.8079 63.1234 61.899 63.2275C61.9934 63.3317 62.0406 63.444 62.0406 63.5645C62.0406 63.6849 61.9967 63.7956 61.9088 63.8965C61.8209 63.9941 61.7086 64.043 61.5719 64.043ZM64.2281 67.3682C64.1728 67.3682 64.1451 67.487 64.1451 67.7246C64.1451 68.2292 64.2949 68.6523 64.5944 68.9941C64.8938 69.3359 65.2649 69.5068 65.7076 69.5068C66.1536 69.5068 66.5817 69.3148 66.9918 68.9307C66.9983 68.9242 67.0065 68.9209 67.0162 68.9209H67.0406C67.0602 68.9209 67.0781 68.9372 67.0944 68.9697C67.1139 68.999 67.1318 69.0186 67.1481 69.0283C66.7705 69.4873 66.3261 69.8047 65.8151 69.9805C65.6393 70.0423 65.4407 70.0732 65.2194 70.0732C64.998 70.0732 64.7734 70.013 64.5455 69.8926C64.3177 69.7689 64.1224 69.6077 63.9596 69.4092C63.6145 68.9958 63.442 68.4814 63.442 67.8662C63.442 67.2477 63.6292 66.6846 64.0035 66.1768C64.3811 65.6689 64.8987 65.415 65.5563 65.415C66.0283 65.415 66.414 65.6266 66.7135 66.0498C67.013 66.4697 67.1627 66.8392 67.1627 67.1582C67.1627 67.2982 67.1285 67.3682 67.0602 67.3682H64.2281ZM64.2819 66.8994C64.2819 66.9613 64.3112 66.9922 64.3698 66.9922H66.2106C66.2952 66.9922 66.3375 66.9417 66.3375 66.8408C66.3375 66.6064 66.2317 66.3672 66.0201 66.123C65.8118 65.8757 65.5823 65.752 65.3317 65.752C65.0875 65.752 64.8645 65.8626 64.6627 66.084C64.4642 66.3053 64.3372 66.5576 64.2819 66.8408V66.8994ZM71.816 66.001C71.816 66.2288 71.6842 66.3428 71.4205 66.3428C71.2871 66.3428 71.1731 66.3053 71.0787 66.2305C70.9876 66.1523 70.916 66.0872 70.8639 66.0352C70.8151 65.9798 70.763 65.9294 70.7076 65.8838C70.4733 65.6917 70.1868 65.6706 69.8483 65.8203C69.513 65.9701 69.2542 66.2891 69.0719 66.7773C68.971 67.0475 68.9205 67.3161 68.9205 67.583C68.9205 68.1559 69.0507 68.6247 69.3112 68.9893C69.5716 69.3506 69.9703 69.5312 70.5074 69.5312C70.9078 69.5312 71.2675 69.3522 71.5865 68.9941C71.6842 68.8867 71.7428 68.833 71.7623 68.833C71.7819 68.833 71.803 68.8428 71.8258 68.8623C71.8486 68.8818 71.86 68.9111 71.86 68.9502C71.86 68.986 71.8502 69.0137 71.8307 69.0332C71.3326 69.7266 70.706 70.0732 69.9508 70.0732C69.4039 70.0732 68.9547 69.8698 68.6031 69.4629C68.2548 69.056 68.0807 68.5905 68.0807 68.0664C68.0839 67.0964 68.3183 66.3981 68.7838 65.9717C69.194 65.5973 69.7783 65.4102 70.5367 65.4102C71.0055 65.4102 71.3164 65.4574 71.4694 65.5518C71.6224 65.6462 71.7298 65.765 71.7916 65.9082C71.8079 65.9408 71.816 65.9717 71.816 66.001ZM73.7301 66.1865C73.7106 66.1865 73.7008 66.2012 73.7008 66.2305V68.9258C73.7008 69.1211 73.7431 69.2741 73.8278 69.3848C73.9156 69.4954 74.0263 69.5508 74.1598 69.5508C74.2933 69.5508 74.4088 69.5296 74.5065 69.4873C74.6074 69.4417 74.6936 69.3929 74.7653 69.3408C74.8401 69.2887 74.9069 69.2415 74.9655 69.1992C75.024 69.1536 75.0761 69.1309 75.1217 69.1309C75.1673 69.1309 75.1901 69.1423 75.1901 69.165C75.1901 69.2432 75.1819 69.2936 75.1656 69.3164C74.775 69.821 74.3974 70.0732 74.0328 70.0732C73.6715 70.0732 73.3981 69.9593 73.2125 69.7314C73.0302 69.5003 72.9391 69.2253 72.9391 68.9062V66.1865H72.5729C72.4817 66.1865 72.4329 66.1572 72.4264 66.0986C72.4231 66.04 72.4329 66.0026 72.4557 65.9863C72.6282 65.8757 72.8658 65.6771 73.1686 65.3906C73.2011 65.3548 73.2451 65.3011 73.3004 65.2295C73.3558 65.1579 73.4355 65.0602 73.5397 64.9365C73.6471 64.8128 73.7285 64.751 73.7838 64.751C73.8392 64.751 73.8668 64.7738 73.8668 64.8193C73.8668 64.8258 73.8115 65.0391 73.7008 65.459C73.7008 65.5176 73.7268 65.5485 73.7789 65.5518H75.024C75.1673 65.5518 75.2389 65.7536 75.2389 66.1572C75.2389 66.1768 75.2259 66.1865 75.1998 66.1865H73.7301ZM75.7321 67.749C75.7321 67.1077 75.9583 66.5576 76.4108 66.0986C76.8665 65.6364 77.4117 65.4053 78.0465 65.4053C78.6813 65.4053 79.233 65.6299 79.7018 66.0791C80.1705 66.5251 80.4049 67.0768 80.4049 67.7344C80.4049 68.3919 80.1819 68.9469 79.736 69.3994C79.2933 69.8486 78.7366 70.0732 78.066 70.0732C77.3955 70.0732 76.8388 69.8454 76.3961 69.3896C75.9534 68.9339 75.7321 68.387 75.7321 67.749ZM76.9479 69.0039C77.2669 69.541 77.7015 69.8096 78.2516 69.8096C78.678 69.8096 79.0035 69.6387 79.2281 69.2969C79.456 68.9551 79.5699 68.5352 79.5699 68.0371C79.5699 67.5391 79.4104 67.028 79.0914 66.5039C78.7757 65.9798 78.3492 65.7178 77.8121 65.7178C77.4183 65.7178 77.1074 65.8887 76.8795 66.2305C76.6549 66.569 76.5426 67.0003 76.5426 67.5244C76.5426 68.0452 76.6777 68.5384 76.9479 69.0039ZM81.1178 69.9414C81.0852 69.9349 81.069 69.9121 81.069 69.873C81.069 69.8145 81.1455 69.7754 81.2985 69.7559C81.65 69.7038 81.8258 69.5182 81.8258 69.1992V66.6162C81.8258 66.4795 81.7509 66.3851 81.6012 66.333C81.5361 66.3102 81.4661 66.2923 81.3912 66.2793C81.3164 66.263 81.2561 66.2484 81.2106 66.2354C81.1683 66.2223 81.1406 66.2109 81.1276 66.2012C81.1178 66.1882 81.1129 66.1637 81.1129 66.1279C81.1129 66.0889 81.1373 66.0563 81.1862 66.0303L82.4313 65.4443C82.4703 65.4248 82.4948 65.415 82.5045 65.415C82.5599 65.415 82.5875 65.4541 82.5875 65.5322V69.1992C82.5875 69.5182 82.7633 69.7038 83.1149 69.7559C83.2679 69.7754 83.3444 69.8096 83.3444 69.8584C83.3444 69.9072 83.3281 69.9349 83.2955 69.9414H81.1178ZM82.1334 64.043C82 64.043 81.8811 64.0007 81.777 63.916C81.6761 63.8314 81.6256 63.7142 81.6256 63.5645C81.6256 63.4115 81.6744 63.291 81.7721 63.2031C81.8698 63.1152 81.9853 63.0713 82.1188 63.0713C82.2555 63.0713 82.3694 63.1234 82.4606 63.2275C82.555 63.3317 82.6022 63.444 82.6022 63.5645C82.6022 63.6849 82.5582 63.7956 82.4703 63.8965C82.3824 63.9941 82.2701 64.043 82.1334 64.043ZM86.899 66.4404C86.86 66.4339 86.803 66.4128 86.7281 66.377C86.458 66.2533 86.2464 66.1914 86.0934 66.1914C85.9404 66.1914 85.7793 66.2874 85.61 66.4795C85.444 66.6683 85.361 66.8392 85.361 66.9922V69.1992C85.361 69.4434 85.5026 69.6061 85.7858 69.6875C85.9095 69.7201 86.025 69.7445 86.1324 69.7607C86.2399 69.7738 86.3082 69.7868 86.3375 69.7998C86.3701 69.8128 86.3864 69.8389 86.3864 69.8779C86.3864 69.9137 86.3701 69.9349 86.3375 69.9414H83.8912C83.8587 69.9349 83.8424 69.9121 83.8424 69.873C83.8424 69.8145 83.9189 69.7754 84.0719 69.7559C84.4235 69.7038 84.5992 69.5182 84.5992 69.1992V66.6162C84.5992 66.4795 84.5244 66.3851 84.3746 66.333C84.3095 66.3102 84.2395 66.2923 84.1647 66.2793C84.0898 66.263 84.0296 66.2484 83.984 66.2354C83.9417 66.2223 83.914 66.2109 83.901 66.2012C83.8912 66.1882 83.8864 66.1637 83.8864 66.1279C83.8864 66.0889 83.9108 66.0563 83.9596 66.0303L85.2047 65.4443C85.2438 65.4248 85.2682 65.415 85.278 65.415C85.3333 65.415 85.361 65.4541 85.361 65.5322V66.3232C85.361 66.3623 85.3707 66.3818 85.3903 66.3818C85.4163 66.3818 85.483 66.3053 85.5905 66.1523C85.8997 65.7194 86.1552 65.5029 86.3571 65.5029C86.471 65.5029 86.6451 65.5485 86.8795 65.6396C87.1171 65.7308 87.236 65.8073 87.236 65.8691C87.236 65.944 87.1985 66.0579 87.1237 66.2109C87.0488 66.3639 86.9739 66.4404 86.899 66.4404ZM88.3688 67.3682C88.3134 67.3682 88.2858 67.487 88.2858 67.7246C88.2858 68.2292 88.4355 68.6523 88.735 68.9941C89.0345 69.3359 89.4056 69.5068 89.8483 69.5068C90.2942 69.5068 90.7223 69.3148 91.1324 68.9307C91.139 68.9242 91.1471 68.9209 91.1569 68.9209H91.1813C91.2008 68.9209 91.2187 68.9372 91.235 68.9697C91.2545 68.999 91.2724 69.0186 91.2887 69.0283C90.9111 69.4873 90.4668 69.8047 89.9557 69.9805C89.7799 70.0423 89.5813 70.0732 89.36 70.0732C89.1386 70.0732 88.914 70.013 88.6862 69.8926C88.4583 69.7689 88.263 69.6077 88.1002 69.4092C87.7552 68.9958 87.5826 68.4814 87.5826 67.8662C87.5826 67.2477 87.7698 66.6846 88.1442 66.1768C88.5218 65.6689 89.0393 65.415 89.6969 65.415C90.1689 65.415 90.5546 65.6266 90.8541 66.0498C91.1536 66.4697 91.3033 66.8392 91.3033 67.1582C91.3033 67.2982 91.2692 67.3682 91.2008 67.3682H88.3688ZM88.4225 66.8994C88.4225 66.9613 88.4518 66.9922 88.5104 66.9922H90.3512C90.4358 66.9922 90.4781 66.9417 90.4781 66.8408C90.4781 66.6064 90.3724 66.3672 90.1608 66.123C89.9524 65.8757 89.7229 65.752 89.4723 65.752C89.2281 65.752 89.0052 65.8626 88.8033 66.084C88.6048 66.3053 88.4778 66.5576 88.4225 66.8408V66.8994ZM95.8834 68.1299C95.8834 68.1722 95.8492 68.1934 95.7809 68.1934C95.7125 68.1934 95.6084 68.0387 95.4684 67.7295C95.3317 67.4202 95.2617 67.1924 95.2584 67.0459C95.2552 66.8994 95.2714 66.7773 95.3073 66.6797C95.3463 66.5788 95.3984 66.4941 95.4635 66.4258C95.5286 66.3542 95.6051 66.2939 95.693 66.2451C95.7809 66.1963 95.8737 66.1523 95.9713 66.1133C96.069 66.0742 96.1699 66.0384 96.274 66.0059C96.3815 65.9701 96.4856 65.931 96.5865 65.8887C96.8079 65.7975 97.0032 65.6478 97.1725 65.4395C97.3418 65.2279 97.4264 65.013 97.4264 64.7949C97.4264 64.3978 97.2767 64.1374 96.9772 64.0137C96.6777 63.8867 96.1634 63.8232 95.4342 63.8232C95.2063 63.8102 95.0468 63.7435 94.9557 63.623C94.9231 63.5775 94.9069 63.5205 94.9069 63.4521C94.9069 63.1722 95.1819 63.0322 95.7321 63.0322C96.2854 63.0322 96.7444 63.2113 97.109 63.5693C97.4736 63.9274 97.6559 64.3864 97.6559 64.9463C97.6559 65.5029 97.4215 65.9782 96.9528 66.3721C96.7314 66.5576 96.5263 66.6813 96.3375 66.7432C96.1487 66.8018 96.0087 66.8555 95.9176 66.9043C95.7028 67.015 95.5953 67.168 95.5953 67.3633C95.5953 67.4642 95.636 67.5944 95.7174 67.7539C95.802 67.9134 95.8574 68.0387 95.8834 68.1299ZM95.2145 69.502C95.2145 69.349 95.2698 69.2171 95.3805 69.1064C95.4912 68.9958 95.623 68.9404 95.776 68.9404C95.9257 68.9404 96.0559 68.9958 96.1666 69.1064C96.2773 69.2171 96.3326 69.349 96.3326 69.502C96.3326 69.6549 96.2773 69.7884 96.1666 69.9023C96.0592 70.0163 95.929 70.0732 95.776 70.0732C95.6198 70.0732 95.4863 70.0163 95.3756 69.9023C95.2682 69.7884 95.2145 69.6549 95.2145 69.502Z" fill="#EFB85F"/>
<path d="M17.5002 10L18.696 11.9748L21 13L18.696 14.0249L17.5002 16L16.304 14.0249L14 13L16.304 11.9748L17.5002 10Z" fill="#EFB85F"/>
<path d="M17.5002 86L18.696 87.9748L21 89L18.696 90.0249L17.5002 92L16.304 90.0249L14 89L16.304 87.9748L17.5002 86Z" fill="#EFB85F"/>
<path d="M124.5 84L125.696 85.9748L128 87L125.696 88.0249L124.5 90L123.304 88.0249L121 87L123.304 85.9748L124.5 84Z" fill="#EFB85F"/>
<path d="M80.5002 90L81.696 91.9748L84 93L81.696 94.0249L80.5002 96L79.304 94.0249L77 93L79.304 91.9748L80.5002 90Z" fill="#EFB85F"/>
<path d="M120.5 7L121.696 8.97475L124 10L121.696 11.0249L120.5 13L119.304 11.0249L117 10L119.304 8.97475L120.5 7Z" fill="#EFB85F"/>
<path d="M95.125 16.6259C95.1509 16.3615 95.1942 15.7335 95.2288 15.2377C95.2634 14.6647 95.324 14.3011 95.3932 14.2681C95.4538 14.235 95.7307 14.4113 95.999 14.6537C96.2759 14.9071 96.5182 15.0834 96.5441 15.0504C96.5615 15.0283 96.397 14.6757 96.1807 14.2791C95.9038 13.7943 95.8086 13.5519 95.8865 13.5189C95.9471 13.4968 96.3884 13.4197 96.8643 13.3426C98.3873 13.1222 98.3787 13.001 96.8384 12.7917C96.3019 12.7145 95.8519 12.6154 95.8346 12.5823C95.8086 12.5382 95.973 12.2187 96.1807 11.8661C96.3884 11.5025 96.5441 11.183 96.5182 11.15C96.4922 11.1279 96.2326 11.3152 95.9471 11.5687C95.6528 11.8331 95.3932 11.9984 95.3586 11.9543C95.3154 11.8992 95.2461 11.2381 95.1856 10.4779C95.0298 8.49462 94.9606 8.50564 94.7962 10.5219C94.7356 11.2822 94.6664 11.9433 94.6317 11.9763C94.6058 12.0094 94.3462 11.8331 94.052 11.5797C93.7664 11.3152 93.5155 11.1279 93.4895 11.161C93.4722 11.183 93.602 11.4805 93.7924 11.8111C93.9827 12.1306 94.1385 12.4611 94.1385 12.5272C94.1385 12.6044 93.7664 12.7035 93.1607 12.7917C91.6117 13.001 91.6117 13.1222 93.1693 13.3536C93.7577 13.4417 94.1385 13.5519 94.1385 13.618C94.1385 13.6841 93.9827 14.0147 93.7924 14.3342C93.3857 15.0283 93.351 15.2046 93.6799 14.9292C93.8183 14.83 94.0693 14.6096 94.251 14.4554C94.6664 14.1138 94.701 14.1689 94.7789 15.3589C94.8913 17.1107 95.0211 17.5735 95.125 16.6259Z" fill="#EFB85F"/>
<path d="M39.125 89.6259C39.1509 89.3615 39.1942 88.7335 39.2288 88.2377C39.2634 87.6647 39.324 87.3011 39.3932 87.2681C39.4538 87.235 39.7307 87.4113 39.999 87.6537C40.2759 87.9071 40.5182 88.0834 40.5441 88.0504C40.5615 88.0283 40.397 87.6757 40.1807 87.2791C39.9038 86.7943 39.8086 86.5519 39.8865 86.5189C39.9471 86.4968 40.3884 86.4197 40.8643 86.3426C42.3873 86.1222 42.3787 86.001 40.8384 85.7917C40.3019 85.7145 39.8519 85.6154 39.8346 85.5823C39.8086 85.5382 39.973 85.2187 40.1807 84.8661C40.3884 84.5025 40.5441 84.183 40.5182 84.15C40.4922 84.1279 40.2326 84.3152 39.9471 84.5687C39.6528 84.8331 39.3932 84.9984 39.3586 84.9543C39.3154 84.8992 39.2461 84.2381 39.1856 83.4779C39.0298 81.4946 38.9606 81.5056 38.7962 83.5219C38.7356 84.2822 38.6664 84.9433 38.6317 84.9763C38.6058 85.0094 38.3462 84.8331 38.052 84.5797C37.7664 84.3152 37.5155 84.1279 37.4895 84.161C37.4722 84.183 37.602 84.4805 37.7924 84.8111C37.9827 85.1306 38.1385 85.4611 38.1385 85.5272C38.1385 85.6044 37.7664 85.7035 37.1607 85.7917C35.6117 86.001 35.6117 86.1222 37.1693 86.3536C37.7577 86.4417 38.1385 86.5519 38.1385 86.618C38.1385 86.6841 37.9827 87.0147 37.7924 87.3342C37.3857 88.0283 37.351 88.2046 37.6799 87.9292C37.8183 87.83 38.0693 87.6096 38.251 87.4554C38.6664 87.1138 38.701 87.1689 38.7789 88.3589C38.8913 90.1107 39.0211 90.5735 39.125 89.6259Z" fill="#EFB85F"/>
<path d="M110.125 99.6259C110.151 99.3615 110.194 98.7335 110.229 98.2377C110.263 97.6647 110.324 97.3011 110.393 97.2681C110.454 97.235 110.731 97.4113 110.999 97.6537C111.276 97.9071 111.518 98.0834 111.544 98.0504C111.561 98.0283 111.397 97.6757 111.181 97.2791C110.904 96.7943 110.809 96.5519 110.886 96.5189C110.947 96.4968 111.388 96.4197 111.864 96.3426C113.387 96.1222 113.379 96.001 111.838 95.7917C111.302 95.7145 110.852 95.6154 110.835 95.5823C110.809 95.5382 110.973 95.2187 111.181 94.8661C111.388 94.5025 111.544 94.183 111.518 94.15C111.492 94.1279 111.233 94.3152 110.947 94.5687C110.653 94.8331 110.393 94.9984 110.359 94.9543C110.315 94.8992 110.246 94.2381 110.186 93.4779C110.03 91.4946 109.961 91.5056 109.796 93.5219C109.736 94.2822 109.666 94.9433 109.632 94.9763C109.606 95.0094 109.346 94.8331 109.052 94.5797C108.766 94.3152 108.515 94.1279 108.489 94.161C108.472 94.183 108.602 94.4805 108.792 94.8111C108.983 95.1306 109.138 95.4611 109.138 95.5272C109.138 95.6044 108.766 95.7035 108.161 95.7917C106.612 96.001 106.612 96.1222 108.169 96.3536C108.758 96.4417 109.138 96.5519 109.138 96.618C109.138 96.6841 108.983 97.0147 108.792 97.3342C108.386 98.0283 108.351 98.2046 108.68 97.9292C108.818 97.83 109.069 97.6096 109.251 97.4554C109.666 97.1138 109.701 97.1689 109.779 98.3589C109.891 100.111 110.021 100.573 110.125 99.6259Z" fill="#EFB85F"/>
<path d="M53.125 12.6259C53.1509 12.3615 53.1942 11.7335 53.2288 11.2377C53.2634 10.6647 53.324 10.3011 53.3932 10.2681C53.4538 10.235 53.7307 10.4113 53.999 10.6537C54.2759 10.9071 54.5182 11.0834 54.5441 11.0504C54.5615 11.0283 54.397 10.6757 54.1807 10.2791C53.9038 9.7943 53.8086 9.55191 53.8865 9.51885C53.9471 9.49682 54.3884 9.41969 54.8643 9.34256C56.3873 9.1222 56.3787 9.001 54.8384 8.79166C54.3019 8.71453 53.8519 8.61537 53.8346 8.58232C53.8086 8.53825 53.973 8.21872 54.1807 7.86614C54.3884 7.50255 54.5441 7.18302 54.5182 7.14997C54.4922 7.12793 54.2326 7.31524 53.9471 7.56866C53.6528 7.83309 53.3932 7.99836 53.3586 7.95429C53.3154 7.8992 53.2461 7.23811 53.1856 6.47787C53.0298 4.49462 52.9606 4.50564 52.7962 6.52194C52.7356 7.28219 52.6664 7.94327 52.6317 7.97632C52.6058 8.00938 52.3462 7.83309 52.052 7.57967C51.7664 7.31524 51.5155 7.12793 51.4895 7.16099C51.4722 7.18302 51.602 7.48051 51.7924 7.81105C51.9827 8.13058 52.1385 8.46112 52.1385 8.52723C52.1385 8.60435 51.7664 8.70352 51.1607 8.79166C49.6117 9.001 49.6117 9.1222 51.1693 9.35358C51.7577 9.44173 52.1385 9.55191 52.1385 9.61802C52.1385 9.68412 51.9827 10.0147 51.7924 10.3342C51.3857 11.0283 51.351 11.2046 51.6799 10.9292C51.8183 10.83 52.0693 10.6096 52.251 10.4554C52.6664 10.1138 52.701 10.1689 52.7789 11.3589C52.8913 13.1107 53.0211 13.5735 53.125 12.6259Z" fill="#EFB85F"/>
<circle cx="26" cy="81" r="1" fill="#EFB85F"/>
<circle cx="57" cy="96" r="1" fill="#EFB85F"/>
<circle cx="111" cy="84" r="1" fill="#EFB85F"/>
<circle cx="139" cy="16" r="1" fill="#EFB85F"/>
<circle cx="143" cy="55" r="1" fill="#EFB85F"/>
<circle cx="139" cy="93" r="1" fill="#EFB85F"/>
<circle cx="36" cy="10" r="1" fill="#EFB85F"/>
<circle cx="75" cy="6" r="1" fill="#EFB85F"/>
<path d="M30.1536 96.762L33.0001 96.6487L30.1536 96.5354L31.0464 95.3761L30.0932 96.4619L30 93L29.9069 96.4619L28.9537 95.3761L29.8465 96.5354L27 96.6487L29.8465 96.762L28.9537 97.9212L29.9069 96.8354L30 100.297L30.0932 96.8354L31.0464 97.9212L30.1536 96.762Z" fill="#EFB85F"/>
<path d="M11.1536 76.762L14.0001 76.6487L11.1536 76.5354L12.0464 75.3761L11.0932 76.4619L11 73L10.9069 76.4619L9.95375 75.3761L10.8465 76.5354L8 76.6487L10.8465 76.762L9.95375 77.9212L10.9069 76.8354L11 80.2973L11.0932 76.8354L12.0464 77.9212L11.1536 76.762Z" fill="#EFB85F"/>
<path d="M68.1536 11.762L71.0001 11.6487L68.1536 11.5354L69.0464 10.3761L68.0932 11.4619L68 8L67.9069 11.4619L66.9537 10.3761L67.8465 11.5354L65 11.6487L67.8465 11.762L66.9537 12.9212L67.9069 11.8354L68 15.2973L68.0932 11.8354L69.0464 12.9212L68.1536 11.762Z" fill="#EFB85F"/>
<path d="M137.154 76.762L140 76.6487L137.154 76.5354L138.046 75.3761L137.093 76.4619L137 73L136.907 76.4619L135.954 75.3761L136.847 76.5354L134 76.6487L136.847 76.762L135.954 77.9212L136.907 76.8354L137 80.2973L137.093 76.8354L138.046 77.9212L137.154 76.762Z" fill="#EFB85F"/>
<path d="M129.154 95.762L132 95.6487L129.154 95.5354L130.046 94.3761L129.093 95.4619L129 92L128.907 95.4619L127.954 94.3761L128.847 95.5354L126 95.6487L128.847 95.762L127.954 96.9212L128.907 95.8354L129 99.2973L129.093 95.8354L130.046 96.9212L129.154 95.762Z" fill="#EFB85F"/>
<path d="M8.15357 18.762L11.0001 18.6487L8.15357 18.5354L9.04635 17.3761L8.09316 18.4619L8.00005 15L7.90694 18.4619L6.95375 17.3761L7.84653 18.5354L5 18.6487L7.84653 18.762L6.95375 19.9212L7.90694 18.8354L8.00005 22.2973L8.09316 18.8354L9.04635 19.9212L8.15357 18.762Z" fill="#EFB85F"/>
</svg>
