<svg width="486" height="535" viewBox="0 0 486 535" fill="none" xmlns="http://www.w3.org/2000/svg">
<path opacity="0.996078" d="M263.328 533.676L262.14 534.719L260.521 528.565L260.667 512.441L262.215 512.765L263.689 521.151L263.328 533.676Z" fill="#080808"/>
<path opacity="0.996078" d="M273.769 503.876L272.581 504.92L279.248 419.082L279.433 378.089L278.245 379.132L271.112 440.964L266.142 469.324L265.781 481.849L261.784 498.62C259.86 498.346 259.536 497.579 260.813 496.317C262.209 456.223 266.34 415.41 273.207 373.877C274.422 360.153 272.948 347.136 268.784 334.827L259.716 322.589L252.376 304.413L249.535 275.548C249.57 269.933 251.154 263.911 254.288 257.481L254.721 250.787C248.815 234.451 248.229 216.936 252.963 198.24C254.887 198.514 255.211 199.282 253.934 200.544L255.659 229.336L259.184 251.075L256.158 270.15L260.006 304.234L265.332 311.972L266.339 310.245L264.324 306.753C260.928 296.436 259.309 285.65 259.469 274.397L263.287 249.996L261.741 235.779C260.147 235.467 259.968 234.783 261.201 233.728L258.9 213.861L260.343 177.654C262.215 176.431 263.079 176.935 262.934 179.166C264.718 190.395 264.405 202.176 261.995 214.509L263.829 224.263L266.672 232.289L267.1 267.272L265.804 273.462L267.422 279.617C268.651 280.951 269.503 280.483 269.978 278.213L271.853 249.205L266.746 210.334L268.763 192.987L266.679 162.827L268.083 158.436L271.394 162.683L273.443 182.982L271.93 199.466L273.51 230.49L276.568 242.115C281.779 250.25 285.029 258.9 286.319 268.066L287.612 289.66L291.03 302.653C295.156 308.148 297.231 314.183 297.254 320.757L294.947 356.46L295.157 415.629L293.067 441.038L289.466 455.146L288.602 454.642L290.911 405.047L289.011 333.893L287.319 335.801L286.234 387.267L280.539 468.462L273.769 503.876ZM280.156 346.093L277.782 334.288L276.414 334.648L278.788 346.453L280.156 346.093ZM279.582 327.234L279.726 325.002L271.019 300.24L269.652 300.6L269.867 304.199L275.408 322.483L277.855 326.226L279.582 327.234ZM283.687 312.262C280.473 301.896 278.626 291.171 278.148 280.086L276.924 278.214C275.628 284.404 275.699 290.235 277.138 295.706L282.319 312.622L283.687 312.262ZM271.016 328.025L266.771 317.443L265.259 320.034L269.289 327.017L271.016 328.025Z" fill="#080808"/>
<path opacity="0.996078" d="M245.264 501.138L244.077 502.181L250.022 441.393L261.185 386.545L261.763 363.727L256.08 333.782L257.123 334.969C262.9 341.736 266.079 349.187 266.658 357.321L266.44 381.507L256.717 427.934L251.386 468.819L245.264 501.138Z" fill="#080808"/>
<path opacity="0.996078" d="M320.862 343.794L319.314 343.47L311.904 312.517C307.403 305.415 304.681 297.844 303.736 289.806L302.658 271.811L304.604 248.633L302.77 238.879L296.186 219.408L297.629 183.201L294.753 158.367L297.635 127.631L293.031 101.789L294.794 105.712L296.737 110.32L298.969 110.464L302.171 119.858C304.799 132.815 304.054 146.659 299.935 161.391L303.029 175.931L303.494 199.937L304.682 198.894L306.915 185.145L314.043 164.991L315.483 156.57L311.528 127.633L307.93 113.956L309.477 114.28L314.478 130.512L315.521 145.593L317.643 150.883L317.856 182.267L311.447 205.157L311.23 215.45L318.712 252.234L315.974 280.738L321.369 315.146L320.862 343.794Z" fill="#080808"/>
<path opacity="0.996078" d="M221.438 502.287L220.251 503.331L222.451 458.883C217.876 428.89 216.584 398.033 218.574 366.314L214.221 346.986L213.033 348.03L214.469 381.286L212.308 400.864L211.582 453.699L209.639 449.092L207.195 417.563L207.201 361.994L202.129 339.931C197.993 332.732 195.271 325.162 193.961 317.22C192.062 308.702 191.895 299.728 193.46 290.299L206.351 236.458L197.861 201.402L197.789 195.571L202.542 177.504L201.86 163.792L196.102 155.801L194.231 157.025L197.433 166.419L197.071 178.943L193.038 199.746L198.65 223.86L198.145 238.616L194.688 250.493L183.528 277.557L180.863 297.999L183.739 322.833C189.635 343.948 193.615 365.567 195.681 387.69L196.758 419.578L195.384 475.507L197.11 490.408L196.066 489.22L192.36 480.69L190.419 462.19L191.141 437.141L188.555 393.951L183.195 362.459C181.602 362.147 181.422 361.463 182.656 360.407L180.461 356.232L180.677 352.885L169.416 315.633L167.691 286.841L173.742 248.691C174.683 239.669 173.665 231.164 170.685 223.173L164.208 212.447L163.884 213.995L159.922 240.628L155.35 252.432C153.426 252.158 153.102 251.391 154.379 250.129L157.692 226.591L155.393 192.831L162.881 174.045L164.465 163.392L161.014 133.591L167.134 115.165L169.08 91.9867L180.167 72.9847L194.061 59.0938L211.266 49.4501L215.657 43.908C222.856 38.8461 230.474 35.3798 238.512 33.5091C248.83 31.0389 259.627 30.3922 270.904 31.5691L281.917 34.5215L292.282 40.5691L299.407 48.1999L316.178 59.1429L323.303 66.7737C333.221 79.2756 339.446 92.7488 341.978 107.193C344.395 119.718 345.354 132.627 344.853 145.92L340.53 185.077L334.985 208.471L336.133 246.189L333.611 264.4L331.38 264.256L331.597 253.963C326.44 239.916 323.346 225.376 322.316 210.341L325.991 174.278C326.242 163.001 324.851 152.156 321.82 141.742L323.981 122.164L322.866 115.145L318.152 108.343L320.563 109.171C325.952 114.09 328.651 119.717 328.659 126.051L330.781 145.234L331.969 144.191C333.371 133.586 332.904 123.472 330.568 113.85L321.14 100.245L318.442 89.9873L315.528 76.1305C313.072 70.6836 309.065 65.6445 303.509 61.0131L297.463 57.4853L287.387 46.9749L281.34 43.4472L273.099 42.6905L271.227 43.914L273.494 46.9734L281.052 47.91C282.17 49.5657 281.894 50.3695 280.224 50.3213C279.811 52.0872 278.839 52.0991 277.309 50.357L271.982 49.5646L262.841 45.3887L250.856 47.079L252.763 48.7707L266.511 51.0037L276.516 55.6835L274.645 56.907L266.583 56.8342L250.747 52.2256L241.75 52.7645L232.787 56.2187L228.288 59.9613L236.602 59.6022L246.5 55.5363L259.025 55.8976L264.711 58.0577L264.747 60.9729L258.592 62.5918L242.288 61.7623L239.049 63.3455L232.138 73.2063L221.123 84.1463C219.741 88.8969 220.136 93.1799 222.31 96.9951C223.812 97.3312 223.992 98.015 222.849 99.0467L228.39 117.331L227.813 126.256L223.637 135.397C222.47 143.747 223.081 151.629 225.47 159.044L229.392 171.173L222.766 204.356L229.098 231.206L229.816 247.833L220.096 266.476L216.71 298.075C221.775 317.703 225.108 337.786 226.709 358.325C227.417 377.88 226.575 397.843 224.183 418.213L226.625 463.634L221.438 502.287ZM333.801 174.783L336.105 166.865L336.178 158.804L334.595 155.564L333.514 165.354L331.354 171.04L331.425 176.87L333.801 174.783ZM214.15 334.21L208.898 311.463L207.53 311.823L207.458 319.884L212.423 333.202L214.15 334.21ZM333.233 100.354L329.851 90.2764C329.035 89.0286 328.411 89.4365 327.979 91.4999L331.002 100.21C332.393 101.794 333.137 101.842 333.233 100.354ZM208.755 299.802C207.413 292.843 207.437 285.525 208.83 277.847C210.75 275.88 210.678 274.68 208.614 274.248L204.798 284.757L207.388 300.162L208.755 299.802ZM214.302 262.516L214.59 258.053C216.51 256.086 216.438 254.886 214.375 254.454L211.495 257.405L211.422 265.467L214.302 262.516ZM220.567 241.858L220.999 235.164L213.804 207.81L219.566 174.123L218.343 172.251L213.086 191.182L211.213 206.298L217.185 231.78L217.256 237.611L213.8 249.487C217.111 249.104 219.366 246.561 220.567 241.858ZM211.931 222.926L210.348 219.686L207.758 204.282L212.799 181.752L210.568 181.608C210.855 186.407 209.319 191.685 205.959 197.444L205.238 208.601L210.203 221.918L211.931 222.926ZM181.046 263.952L185.511 250.348L185.584 242.286L184 239.047L179.319 262.944L181.046 263.952ZM190.481 221.988L189.401 217.885C187.914 217.789 187.794 217.333 189.041 216.517L187.458 213.278L184.22 200.968L185.878 182.253C187.462 180.862 187.222 179.95 185.158 179.518L180.261 199.816C181.844 207.686 184.795 215.197 189.113 222.347L190.481 221.988ZM181.266 225.874L180.691 220.907C180.74 215.532 178.509 210.757 173.998 206.582L171.48 197.008L178.033 171.887L177.099 151.66L174.437 144.318L173.069 144.678L174.794 173.47L167.737 199.455L176.013 217.019L177.596 220.259L178.531 226.593C179.923 228.177 180.834 227.937 181.266 225.874ZM210.641 173.546L210.569 167.716L207.187 157.638L209.273 173.906L210.641 173.546ZM214.745 158.575L213.235 147.273L214.821 122.728L211.799 114.018L210.499 147.993L213.377 158.934L214.745 158.575ZM221.659 120.929L221.372 111.499L218.35 102.789L216.982 103.149L217.054 108.979L218.277 110.851L219.788 122.152L221.659 120.929ZM197.255 144.896L198.696 136.474L195.242 120.566L195.963 109.409L197.475 106.818L195.244 106.674C191.644 111.52 189.7 116.175 189.412 120.638L195.528 143.888L195.024 144.752C196.415 146.336 197.159 146.384 197.255 144.896ZM210.502 120.208L209.639 119.704L208.631 121.431L210.502 120.208ZM203.735 127.837L203.808 119.775L201.577 119.631L201.864 129.061L203.735 127.837ZM246.789 44.1273L244.198 42.6154L242.326 43.8389L244.558 43.9831C245.949 45.5668 246.693 45.6149 246.789 44.1273ZM213.528 101.133L214.176 98.038L212.593 94.7986L211.8 100.125L213.528 101.133ZM187.321 146.047L187.466 143.815L183.22 133.234L181.996 131.362L181.708 135.825L185.954 146.407L187.321 146.047ZM231.814 67.8076L219.146 69.6778C215.306 73.6124 214.034 77.1153 215.329 80.1867C218.88 80.7149 221.544 78.7957 223.32 74.429L229.295 72.1262L231.814 67.8076ZM207.049 104.3L206.329 101.564L205.321 103.292L207.049 104.3ZM202.874 99.5484L204.963 88.0316L208.779 77.5227L205.396 81.3373C200.884 86.4235 198.94 91.0781 199.564 95.3011L201.147 98.5405L202.874 99.5484ZM232.249 47.2209L230.521 46.213L220.659 53.1942L218.643 56.6491L232.249 47.2209ZM181.494 118.333L182.575 108.544L185.383 99.7625C186.583 95.0598 188.215 92.9245 190.278 93.3566L190.927 90.2615L186.679 93.5722C180.056 103.601 177.704 112.262 179.622 119.557L181.494 118.333ZM210.364 66.8696L206.765 67.0851L207.629 67.5891L210.364 66.8696ZM201.87 73.4909L200.142 72.483L197.263 75.434L193.591 83.7114L194.814 85.5831L194.958 83.3517C197.406 77.8334 199.71 74.5464 201.87 73.4909ZM176.313 101.417L179.121 92.6356L176.242 95.5865L174.082 101.273L176.313 101.417Z" fill="#080808"/>
<path opacity="0.996078" d="M239.944 444.775L238.72 442.904L236.707 418.574L236.281 369.698C235.083 351.247 232.29 333.215 227.901 315.603L226.317 312.364L222.396 300.234L223.549 282.383L226.213 275.833L227.077 276.337C225.098 291.237 226.813 305.166 232.219 318.123L235.781 328.885L240.744 369.987L239.944 444.775Z" fill="#080808"/>
<path opacity="0.996078" d="M248.516 388.415L246.32 391.186L246.755 363.653L249.309 369.196C247.495 376.01 247.23 382.417 248.516 388.415Z" fill="#080808"/>
<path opacity="0.996078" d="M251.614 361.278L250.066 360.954L244.958 335.976L238.949 321.471L239.993 322.659C246.629 331.393 250.575 340.835 251.831 350.985L251.614 361.278Z" fill="#080808"/>
<path opacity="0.996078" d="M297.116 267.419C296.746 268.978 296.062 269.158 295.064 267.958C292.819 262.943 292.352 257.461 293.663 251.51L288.051 227.396L288.772 216.239L297.55 246.832L297.116 267.419Z" fill="#080808"/>
<path opacity="0.996078" d="M288.048 255.182L286.5 254.857L279.412 236.249L279.556 234.018L281.428 232.795L277.399 211.92L279.848 201.77L281.431 205.01C279.885 213.215 279.98 220.989 281.716 228.332L288.048 255.182Z" fill="#080808"/>
<path opacity="0.996078" d="M247.875 322.048L246.831 320.861L240.318 307.219L240.177 281.666C244.862 265.566 246.904 250.163 246.3 235.454L250.042 246.9L243.055 292.607C242.929 302.877 244.536 312.69 247.875 322.048Z" fill="#080808"/>
<path opacity="0.996078" d="M291.58 207.458C291.211 209.017 290.527 209.197 289.529 207.997L287.694 198.244L286.689 172.186L277.264 130.796L278.812 131.12L286.835 156.062L287.193 171.322L290.071 182.264L291.58 207.458Z" fill="#080808"/>
<path opacity="0.996078" d="M308.139 173.125C307.77 174.684 307.086 174.864 306.088 173.665C304.831 168.146 305.9 162.016 309.293 155.274L310.516 157.145L308.139 173.125Z" fill="#080808"/>
<path opacity="0.996078" d="M231.898 291.886C231.529 293.446 230.845 293.626 229.847 292.426L229.74 283.68L230.963 285.552L231.898 291.886Z" fill="#080808"/>
<path opacity="0.996078" d="M234.562 285.336L232.583 284.76L235.428 271.948L236.291 272.452L234.562 285.336Z" fill="#080808"/>
<path opacity="0.996078" d="M238.525 244.811C237.373 248.769 235.682 250.677 233.45 250.533L235.503 236.1C231.742 225.879 229.896 215.153 229.964 203.924L231.045 194.135L236.013 179.667L237.993 180.243L235.652 192.192L235.002 209.179L238.42 222.172C239.922 222.508 240.102 223.192 238.96 224.224L240.11 234.157L238.525 244.811Z" fill="#080808"/>
<path opacity="0.996078" d="M277.979 175.209L276.756 173.337L276.757 159.445L275.318 153.974L277.297 154.55L277.979 175.209Z" fill="#080808"/>
<path opacity="0.996078" d="M244.286 225.017L241.624 217.674C240.137 208.316 240.474 198.479 242.635 188.162L244.218 191.401L243.857 203.926L242.201 208.748L244.286 225.017Z" fill="#080808"/>
<path opacity="0.996078" d="M312.97 105.318L311.422 104.994L308.508 91.1371L310.056 91.4612L312.97 105.318Z" fill="#080808"/>
<path opacity="0.996078" d="M308.507 105.03L306.959 104.706L305.196 100.783L306.744 101.107L308.507 105.03Z" fill="#080808"/>
<path opacity="0.996078" d="M290.797 129.43L284.067 126.082L269.168 113.916L262.043 106.285C258.866 102.734 257.103 98.8103 256.753 94.5154L256.899 78.3915L266.149 77.4208L283.712 83.0372L289.792 103.373L291.878 119.641L290.797 129.43ZM284.5 112.442L284.573 104.38L281.047 96.5335L280.183 96.0295L281.405 111.794C283.372 113.713 284.404 113.929 284.5 112.442Z" fill="#080808"/>
<path opacity="0.996078" d="M260.776 170.96L258.113 163.618C259.142 151.405 258.483 139.636 256.138 128.311L248.041 111.43L250.453 112.258L258.226 123.74C261.05 138.742 261.9 154.482 260.776 170.96Z" fill="#080808"/>
<path opacity="0.996078" d="M253.217 183.916L251.021 186.687L250.771 166.28L251.815 167.468L253.218 170.024L253.217 183.916Z" fill="#080808"/>
<path opacity="0.996078" d="M270.135 150.95L268.732 148.395L266.609 143.104L267.797 142.06L270.28 148.719L270.135 150.95Z" fill="#080808"/>
<path opacity="0.996078" d="M307.502 78.9724L288.032 71.6642C285.777 68.6503 285.789 64.9912 288.069 60.687C289.211 59.6554 290.759 59.9794 292.712 61.6592L307.502 78.9724Z" fill="#080808"/>
<path opacity="0.996078" d="M246.306 179.884L245.119 180.927L244.833 164.552C242.563 164.076 242.491 162.877 244.617 160.952C247.04 161.826 248.06 163.386 247.676 165.632L246.306 179.884Z" fill="#080808"/>
<path opacity="0.996078" d="M296.991 89.0493C296.055 91.9764 294.699 93.3079 292.924 93.0438C289.383 89.5883 287.62 85.6651 287.635 81.2743C287.913 79.7387 288.597 79.5588 289.686 80.7346L293.645 81.8868L296.991 89.0493Z" fill="#080808"/>
<path opacity="0.996078" d="M270.785 133.963L269.238 133.639L266.755 126.98L269.167 127.808L270.785 133.963Z" fill="#080808"/>
<path opacity="0.996078" d="M241.988 177.364L240.441 177.04L234.576 160.304C235.066 158.274 236.325 158.43 238.355 160.772L240.01 162.896L241.988 177.364Z" fill="#080808"/>
<path opacity="0.996078" d="M267.043 122.517L266 121.329L261.79 113.662L262.833 114.85L267.043 122.517Z" fill="#080808"/>
<path opacity="0.996078" d="M249.189 149.149L245.661 155.195L244.114 154.871L239.291 153.214L236.089 143.821L240.193 128.849L244.656 129.137L244.261 124.854L240.339 112.725L241.743 115.28C246.45 119.648 249.196 124.531 249.983 129.93L249.189 149.149ZM244.763 144.829L243.683 140.726L241.452 140.582L241.523 146.412C243.491 148.332 244.57 147.804 244.763 144.829ZM245.124 132.304L243.9 130.433L243.396 131.297L245.124 132.304Z" fill="#080808"/>
<path opacity="0.996078" d="M283.856 73.8596C283.419 76.4605 281.788 76.2803 278.962 73.3192L276.335 68.892L280.114 69.3603L283.856 73.8596Z" fill="#080808"/>
<path opacity="0.996078" d="M233.497 156.201L232.309 157.244L228.676 140.652L230.62 131.367L233.644 126.185L234.867 128.056L233.497 156.201Z" fill="#080808"/>
<path opacity="0.996078" d="M252.433 105.888L251.389 104.7L249.266 99.4094L250.454 98.3658L252.433 105.888Z" fill="#080808"/>
<path opacity="0.996078" d="M266.761 71.4102L264.134 73.9292L257.152 71.0132L253.553 71.2288C252.209 68.9012 253.169 67.9176 256.432 68.2778L265.862 67.9909L266.761 71.4102Z" fill="#080808"/>
<path opacity="0.996078" d="M236.308 119.634L234.544 115.711C229.727 107.96 226.597 99.7663 225.153 91.1283L228.825 82.8508L229.689 83.3548L227.637 90.8407C229.1 92.6979 230.264 92.0262 231.128 88.8255C230.289 85.6343 231.273 81.9633 234.081 77.8127L236.996 77.777L237.536 79.8285L234.512 85.0109L232.423 96.5277L236.308 119.634Z" fill="#080808"/>
<path opacity="0.996078" d="M244.3 99.9845L243.256 98.7966L241.169 96.421L239.477 98.3284L240.412 104.663L238.865 104.339L236.959 88.7545L243.51 77.5261L247.433 75.763L249.197 79.6862L247.9 85.8765C245.933 85.8091 244.349 87.2005 243.149 90.0509L244.3 99.9845Z" fill="#080808"/>
<path opacity="0.996078" d="M246.607 64.2821L237.429 71.0834L237.753 69.5358C240.762 65.9658 243.713 64.2146 246.607 64.2821Z" fill="#080808"/>
</svg>
