<svg width="647" height="658" viewBox="0 0 647 658" fill="none" xmlns="http://www.w3.org/2000/svg">
<path opacity="0.996078" d="M301.24 655.903L297.944 656.524L290.685 646.969L286.419 636.395C284.261 623.968 284.486 611.867 287.093 600.09L300.888 567.004L303.47 548.087L300.574 532.705C297.981 525.214 293.8 517.507 288.03 509.583L279.307 489.836C276.039 478.923 274.64 468.265 275.108 457.862L270.046 447.893L264.317 427.128L262.249 416.141L266.46 369.614L267.734 365.506L266.11 361.716L258.595 359.263L258.212 362.065L248.466 370.726L245.695 375.343L242.285 389.865L242.983 405.661C246.816 415.224 248.874 424.544 249.157 433.623L248.136 446.329C246.615 454.686 243.599 462.838 239.088 470.786C235.781 477.233 230.42 483.4 223.003 489.286L222.78 485.688C227.221 475.113 229.654 464.265 230.078 453.142C231.349 445.227 230.098 436.968 226.324 428.365L217.601 408.618L211.138 398.458L207.477 388.681C203.887 371.063 204.081 353.961 208.058 337.376L222.46 289.386L221.154 288.494L192.453 336.673L190.253 352.787C191.674 353.885 191.445 354.687 189.568 355.192L186.846 351.609L185.191 342.819L184.94 318.52C186.687 307.815 190.489 297.392 196.346 287.248L197.781 276.739L192.118 234.574L191.723 219.176L195.244 206.454L203.558 192.602L206.011 185.086L205.504 167.889L206.939 157.38C211.034 142.714 219.614 128.661 232.677 115.219C233.082 105.283 236.289 95.7295 242.299 86.5587L252.619 73.6942L275.902 54.7491L299.024 42.2051C311.755 39.5659 324.186 39.1219 336.317 40.8732C345.301 44.7641 354.515 46.9735 363.959 47.5015L371.378 50.6554L384.848 61.7719L388.478 66.5494L408.762 80.0235L419.046 93.5598L426.559 111.713L439.868 129.231L441.906 135.219L448.974 146.175L452.759 175.952L466.415 217.068L464.148 254.583C462.706 256.432 461.401 255.54 460.231 251.907C455.976 243 454.523 234.475 455.872 226.333L451.718 217.559L448.548 222.479L446.157 239.994L450.294 261.969L459.844 286.11L460.033 300.409C457.966 308.929 454.217 317.219 448.787 325.279L447.544 334.387L448.72 346.68L444.995 342.603L440.921 330.628L443.536 301.012L443.283 292.413L441.468 290.024C439.059 288.506 436.298 289.556 433.187 293.176C433.297 297.949 431.725 302.492 428.472 306.805L424.297 326.932L426.397 342.919L439.003 376.041L440.8 391.63L439.318 394.64L439.637 397.538L434.539 413.97L426.416 426.42L413.578 452.501L409.977 468.423C409.014 472.336 409.64 476.466 411.854 480.812L419.033 493.568C417.621 495.896 416.522 496.103 415.737 494.188C411.824 493.226 408.269 489.648 405.07 483.454L398.989 470.492L396.316 458.708L397.72 443.199C401.851 432.107 404.347 420.791 405.209 409.252L403.523 395.462L399.862 385.685L394.195 374.92L385.726 363.772L384.324 363.581L378.88 356.415L376.778 356.128L373.639 366.047L374.289 390.044L377.82 411.222L376.386 421.731L372.849 431.954L346.713 474.417L346.475 468.318L348.323 460.007L348.005 457.109L354.315 426.569L353.235 413.575L350.099 407.795L346.707 409.116L339.825 428.159L337.628 428.573L330.363 450.418L328.355 465.131L331.09 486.914L337.616 507.074L340.734 526.055L337.831 557.774L329.548 576.626L308.334 606.558C301.867 617.332 297.97 628.456 296.641 639.931C296.048 645.322 297.581 650.646 301.24 655.903ZM295.387 615.139L310.805 585.842L325.871 564.348C330.353 555.92 332.031 547.11 330.907 537.916L329.506 537.725L324.057 561.96C315.329 573.614 308.469 585.524 303.478 597.688L299.083 598.515L300.645 592.306L318.865 563.392L323.55 544.762C325.121 540.219 324.825 535.421 322.66 530.368L320.654 529.38L322.024 524.571L322.438 526.769L324.253 529.158C325.824 524.614 325.464 520.283 323.172 516.164L326.388 518.744C326.091 513.946 324.192 508.691 320.69 502.979L316.998 488.202L314.387 486.418L304.454 465.08L303.787 454.283L308.983 421.451C310.978 420.771 311.106 419.837 309.365 418.648L314.592 390.815L315.58 388.809L313.315 410.623L310.032 429.444L310.446 431.642L308.885 437.851L307.83 461.258L312.732 477.628L314.547 480.017C312.065 466.832 311.25 453.637 312.101 440.432L315.032 429.413L314.779 420.814L319.21 393.586L318.186 421.993L318.217 426.993L319.396 423.586C321.392 422.907 321.519 421.973 319.779 420.783L323.605 392.759L331.794 358.907L334.824 331.488L335.811 329.482L337.021 331.074L336.318 346.679L326.629 396.74L325.766 418.746L328.186 421.931L329.623 395.722L340.522 347.253L340.362 353.654L341.572 355.247C342.061 348.177 343.952 341.298 347.243 334.611L348.231 332.605L344.152 352.031L343.831 364.833L345.041 366.425L345.01 361.425L349.312 345.598L351.99 325.981L353.391 326.173L355.749 319.358L358.138 317.543L358.743 318.339C357.278 318.615 357.214 319.082 358.551 319.74L354.855 336.364L354.979 356.363L366.437 397.893L368.252 400.282L362.078 372.319L359.85 367.733L358.324 347.542L364.125 315.506L365.718 314.296L366.318 346.493L367.719 346.684L368.422 331.079L371.896 310.857L371.674 307.259L359.125 315.537L348.138 317.605L326.292 310.341L314.891 310.212C307.29 310.126 299.743 307.906 292.249 303.552L285.021 298.997L273.749 287.467L276.231 300.652L273.775 323.868L275.27 339.059L276.48 340.651L276.991 326.448L278.553 320.238L280.305 312.627L279.375 356.033L280.585 357.626L283.677 340.206L284.22 331.003L284.825 331.799L286.035 333.392L286.546 319.188C285.209 318.53 285.538 317.861 287.534 317.182L286.707 312.787L286.484 309.188L287.472 307.182L289.887 341.768L291.097 343.36L291.386 325.558C290.049 324.9 290.112 324.433 291.577 324.157L293.521 315.145L294.856 336.737L286.982 389.187C284.858 390.8 283.871 392.806 284.019 395.205L286.216 394.792L283.476 404.409C282.011 404.685 281.947 405.152 283.285 405.81L282.52 411.415L283.73 413.007L285.927 412.594L285.002 424.6C286.743 425.789 286.615 426.723 284.619 427.402L286.434 429.791L287.933 413.581L298.289 374.316L299.882 373.106C300.178 377.904 298.808 382.713 295.772 387.532L294.272 403.742L290.002 424.569L291.212 426.161L296.056 401.131L297.649 399.921L298.285 405.717L292.804 424.951L293.28 437.148L294.49 438.741L295.033 429.537L303.253 400.686L303.16 385.686L300.229 396.704L299.179 388.711L301.666 370.495L303.258 369.285L305.967 354.668L308.739 350.051L309.566 354.446L304.592 390.877C306.354 395.4 306.311 399.2 304.463 402.278L305.673 403.871L308.574 387.852C309.763 386.112 310.495 385.974 310.771 387.439L303.218 427.086L303.729 412.883L297.675 436.321C299.416 437.51 299.288 438.444 297.292 439.124L297.225 460.524L298.658 465.716L297.67 467.722L295.793 455.333L294.392 455.142L294.868 467.339L297.763 482.721L307.888 502.659L309.702 505.048L309.066 499.252L300.98 485.302L297.51 474.123L298.911 474.314L298.084 469.919L298.88 469.314L301.553 481.098L311.869 499.634L314.32 507.819L316.517 507.405L312.634 494.029L308.591 487.054L309.387 486.449L313.239 494.825L316.264 498.807L314.831 493.616L315.628 493.011L319.511 506.387L319.253 529.189L321.704 537.374L319.408 554.188C317.943 554.464 318.081 555.197 319.822 556.386L316.477 565.207L307.94 575.46L297.46 594.726L293.985 614.948L295.387 615.139ZM315.427 557.213L318.358 546.195L316.611 522.405L314.604 521.418C317.214 533.668 317.021 545.536 314.026 557.022L315.427 557.213ZM330.654 529.318L330.24 527.12L329.444 527.725L330.654 529.318ZM330.24 527.12L328.332 509.732L326.326 508.744L328.425 524.732L330.24 527.12ZM326.45 528.744L326.036 526.547L325.24 527.151L326.45 528.744ZM311.864 531.035L308.839 527.053C309.88 522.914 309.117 518.052 306.549 512.467L302.727 509.091L305.975 516.671L305.178 517.276C301.421 513.433 299.532 509.844 299.511 506.511L295.085 502.338L295.499 504.536L304.191 519.282L308.457 529.856C309.539 532.383 310.675 532.775 311.864 531.035ZM316.388 518.806L313.555 513.424L311.962 514.634L310.721 508.041L309.129 509.251L310.561 514.443C312.726 519.496 314.668 520.95 316.388 518.806ZM317.758 513.998L317.345 511.8L316.548 512.405L317.758 513.998ZM407.926 444.236L407.704 440.637L406.525 444.044L407.926 444.236ZM409.296 439.427L411.845 431.211L412.006 424.81C409.5 429.226 408.129 434.034 407.895 439.236L409.296 439.427ZM313.746 512.023L313.332 509.825L312.536 510.43L313.746 512.023ZM414.648 431.594L417.802 424.174L417.771 419.174L413.247 431.402L414.648 431.594ZM310.721 508.041L310.307 505.844L309.511 506.449L310.721 508.041ZM307.919 507.659L308.301 504.856L300.85 496.703L303.684 502.085L307.919 507.659ZM422.739 414.143L422.134 413.347L421.338 413.952L422.739 414.143ZM414.777 420.193L415.764 418.187L416.307 408.983L413.376 420.001L414.777 420.193ZM419.937 413.76L421.307 408.952L420.738 381.755L416.059 368.984L411.824 363.41L403.515 345.861L399.791 326.084L400.588 325.479L402.403 327.868L406.922 347.04L414.213 361.595L418.447 367.169L419.275 371.564L421.09 373.953L418.83 364.366C417.089 363.177 417.217 362.243 419.212 361.564L415.36 353.188L411.731 348.41L407.051 335.639L404.92 314.652L407.216 297.837L409 295.226L409.987 293.22L410.236 333.219L415.329 348.188L418.959 352.965L424.848 367.329L426.788 389.717L426.054 400.322C426.733 402.318 427.401 402.647 428.06 401.31L428.287 373.508L422.78 356.342L417.527 347.774L412.211 329.207L411.735 317.01L415.659 272.584L416.455 271.979L417.024 299.176L418.234 300.769L419.129 283.763L420.499 278.954L420.276 275.356L422.06 272.745L420.819 266.152L422.572 258.541C421.424 266.948 421.943 275.345 424.129 283.732L422.598 294.942C421.133 295.217 421.07 295.685 422.407 296.343L422.821 298.54L424.987 293.127C427.324 282.979 427.793 272.576 426.393 261.917L427.381 259.911L429.195 262.3L430.054 271.695L431.869 274.084L431.646 270.485L434.862 273.065L435.436 268.861L427.763 257.109L425.917 249.72L426.713 249.115L434.418 265.868L436.233 268.256C435.66 261.993 433.687 255.539 430.312 248.893L427.132 219.912L428.311 216.505L432.701 247.078C434.08 254.403 437.125 261.717 441.837 269.022L447.567 289.786L447.438 301.187L448.839 301.379L449.987 292.971L440.757 256.028L437.509 248.448C435.982 238.724 435.92 228.724 437.323 218.449L434.174 194.468L435.353 191.06L438.822 202.239L439.52 218.035L440.73 219.627L441.211 200.424L436.914 184.851C438.634 182.706 438.295 181.709 435.895 181.857L435.482 179.659C436.671 177.919 437.403 177.781 437.679 179.246L438.889 180.838L437.902 182.844L439.908 183.832L447.007 199.788C446.752 201.656 447.357 202.453 448.822 202.177L440.482 179.628L439.846 173.832L440.642 173.227L452.612 200.553L452.834 204.152L454.649 206.541L453.6 198.547L446.914 184.788L445.068 177.4L442.648 174.215L441.919 153.419L436.634 139.851C435.552 137.325 434.416 136.932 433.227 138.673C436.771 151.051 437.512 163.046 435.451 174.659L432.137 188.48C430.672 188.756 430.608 189.223 431.945 189.881C433.048 195.741 431.816 201.283 428.249 206.505L417.132 219.974L416.367 225.579L419.294 245.961L417.924 250.77L417.701 247.171L417.287 244.974L408.239 269.43L405.851 271.245L401.9 279.27L386.006 296.369L383.809 296.783L374.254 304.042L373.075 307.45L373.422 331.048C376.373 333.83 376.988 336.293 375.268 338.437L376.478 340.029L375.748 319.233L377.279 308.024L379.859 304.808L380.846 302.801C379.04 312.546 379.569 322.61 382.434 332.992L387.051 335.763C382.339 328.459 380.695 321.336 382.118 314.394L385.815 297.77L387.946 318.758L389.156 320.35L388.649 303.153L390.241 301.943L390.655 304.14L393.204 295.924L392.946 318.726L395.65 335.51L401.539 349.874L417.3 375.576L419.559 385.162L418.189 389.971L418.411 393.57L417.838 397.773L419.239 397.965L418.536 413.569L419.937 413.76ZM320.788 486.578L318.849 464.19L316.842 463.202L318.973 484.19L320.788 486.578ZM427.072 403.316L426.467 402.52L425.671 403.125L427.072 403.316ZM315.374 484.412L314.961 482.215L314.164 482.819L315.374 484.412ZM416.881 404.779L416.659 401.181L415.671 403.187L416.881 404.779ZM314.961 482.215L314.547 480.017L313.751 480.622L314.961 482.215ZM416.659 401.181L415.8 391.786C416.459 390.448 415.79 390.119 413.794 390.798L414.844 398.792L416.659 401.181ZM411.85 399.811L411.405 392.613L410.004 392.422L410.64 398.218L411.85 399.811ZM295.183 485.938L294.165 482.944L293.368 483.549L295.183 485.938ZM419.368 386.564L412.46 369.206L410.454 368.219L414.306 376.595L415.356 384.588L412.744 382.805L414.59 390.193L415.96 385.385L416.565 386.181C417.245 388.177 418.179 388.304 419.368 386.564ZM318.626 460.591L318.978 452.789L317.416 458.999L318.626 460.591ZM421.917 378.347L421.503 376.15L420.707 376.755L421.917 378.347ZM421.503 376.15L421.09 373.953L420.293 374.558L421.503 376.15ZM413.541 382.2L413.127 380.002L412.331 380.607L413.541 382.2ZM367.549 415.886L367.932 413.084L366.339 414.294L367.549 415.886ZM318.978 452.789L318.947 447.789L317.768 451.196L318.978 452.789ZM369.333 413.275L369.302 408.275L368.123 411.683L369.333 413.275ZM321.749 448.172L321.527 444.573L320.348 447.98L321.749 448.172ZM369.302 408.275L368.475 403.88L367.487 405.886L369.302 408.275ZM321.113 442.376L324.205 424.956C323.929 423.491 323.196 423.629 322.007 425.37L322.421 427.567L320.415 426.58L319.903 440.783L321.113 442.376ZM363.506 408.911L362.616 394.517L356.473 371.554L354.467 370.567L351.732 348.783L350.33 348.592C347.59 358.209 347.854 368.474 351.122 379.388C352.863 380.577 352.735 381.511 350.739 382.19C350.633 386.458 351.725 390.651 354.018 394.77L356.437 397.955L351.251 367.987L352.239 365.98L354.116 378.369L359.814 394.134L362.296 407.319L363.506 408.911ZM368.475 403.88L368.061 401.683L367.265 402.288L368.475 403.88ZM329.044 431.326L330.032 429.32L330.192 422.919L329.205 424.925L327.198 423.937L327.23 428.937L329.044 431.326ZM295.188 454.537L294.904 440.938L293.502 440.747L293.373 452.148L295.188 454.537ZM286.429 461.192L286.812 458.389C286.536 456.924 285.804 457.062 284.614 458.803L286.429 461.192ZM316.878 436.802L316.465 434.604L315.668 435.209L316.878 436.802ZM316.656 433.203L316.625 428.203L315.446 431.611L316.656 433.203ZM321.211 425.975L320.797 423.777L320.001 424.382L321.211 425.975ZM285.38 453.198L284.17 451.605L286.145 447.593L285.509 441.797C287.505 441.118 287.43 439.918 285.286 438.198L283.694 439.408L283.28 437.211L281.688 438.421L283.182 453.612L285.38 453.198ZM401.028 364.077L395.552 351.911L397.336 349.3L392.496 342.93L392.687 341.529L388.07 338.757L391.509 344.936C390.426 342.409 388.685 341.22 386.286 341.368L384.058 336.782L383.07 338.788L388.515 345.955L389.916 346.146L398.417 362.293L401.028 364.077ZM405.2 359.651L401.348 351.275L398.737 349.491L399.756 352.485L405.2 359.651ZM350.036 397.795L348.604 392.604C347.925 390.608 346.927 390.947 345.61 393.622L346.024 395.82C346.703 397.816 347.637 397.943 348.826 396.202L350.036 397.795ZM395.009 361.114L394.596 358.917L393.799 359.522L395.009 361.114ZM334.685 405.69L335.673 403.684L336.981 388.876L336.376 388.08L334.018 394.894L333.284 405.499L334.685 405.69ZM280.54 446.828L277.039 430.649L275.638 430.458L275.255 433.26L278.725 444.439L280.54 446.828ZM291.274 436.161L291.051 432.562L290.064 434.568L291.274 436.161ZM392.781 356.528L388.546 350.954L386.953 352.164L390.583 356.942L392.781 356.528ZM291.051 432.562L291.02 427.562L289.841 430.97L291.051 432.562ZM398.928 348.09L398.515 345.892L397.718 346.497L398.928 348.09ZM285.86 433.995L285.638 430.396L284.65 432.402L285.86 433.995ZM349.147 383.4L348.097 375.406L345.486 373.623L346.727 380.215L349.147 383.4ZM281.465 434.822L281.212 426.223L281.181 421.223L279.206 425.236L279.65 432.433L281.465 434.822ZM341.376 388.048L340.517 378.654L338.956 384.863L341.376 388.048ZM346.282 373.018L346.06 369.419L344.467 370.629L346.282 373.018ZM363.386 357.511L363.836 333.308L362.434 333.116L362.848 335.314L361.669 338.721L362.176 355.919L363.386 357.511ZM282.168 419.217L282.551 416.415L280.958 417.625L282.168 419.217ZM275.798 424.057C274.547 415.798 274.495 407.465 275.643 399.057L274.05 400.267C272.627 407.21 272.604 414.343 273.983 421.668L275.798 424.057ZM391.446 334.936L390.397 326.942L387.785 325.159L390.236 333.344L391.446 334.936ZM238.757 449.688L239.936 446.28C241.359 439.338 240.914 432.141 238.601 424.688C237.264 424.03 237.593 423.361 239.589 422.682L235.768 419.306L233.348 416.121L230.292 407.14L227.076 404.559L236.021 427.904C238.334 435.357 238.843 442.087 237.547 448.095L238.757 449.688ZM418.297 310.769L417.883 308.571L417.087 309.176L418.297 310.769ZM376.891 342.227L376.478 340.029L375.681 340.634L376.891 342.227ZM372.114 345.857L372.465 338.054L370.873 339.264L370.904 344.264L372.114 345.857ZM443.554 287.811L442.122 282.62L440.53 283.83L443.554 287.811ZM439.48 275.836L437.251 271.25L435.659 272.46L436.677 275.454C437.356 277.45 438.291 277.577 439.48 275.836ZM281.599 392.02L283.352 384.409C282.014 383.751 282.078 383.284 283.543 383.008C287.049 367.786 288.42 352.51 287.658 337.181L286.257 336.99L283.548 351.607L282.271 371.416C284.012 372.605 283.884 373.539 281.888 374.218L282.302 376.416L280.741 382.625L280.389 390.428L281.599 392.02ZM432.282 276.281L431.869 274.084L431.073 274.689L432.282 276.281ZM237.329 413.096L235.452 400.707L232.841 398.924L235.514 410.707L237.329 413.096ZM276.537 382.051L277.049 367.848L278.228 364.441L278.005 360.842L277.018 362.848L275.011 361.861L275.327 380.459L276.537 382.051ZM370.433 300.666L372.408 296.654L383.556 288.184L384.957 288.376L385.148 286.974L391.518 282.135L391.901 279.332L402.412 265.067L408.689 245.227C410.919 239.347 411.015 233.412 408.978 227.425C408.702 225.96 407.97 226.098 406.781 227.839L407.639 237.234L405.473 242.647L405.442 237.647C404.763 235.651 403.765 235.991 402.448 238.666L404.899 246.851L402.955 255.863L399.961 256.882L401.331 252.073L404.516 249.653C401.969 247.402 400.887 244.876 401.269 242.073L399.294 246.086L398.467 241.691L400.059 240.481L398.053 239.493L399.454 239.684C400.643 237.944 400.304 236.946 398.436 236.691L399.837 236.882L398.818 233.888L402.324 218.666L405.509 216.246L408.12 218.03L410.86 208.413L417.452 207.172L420.637 204.752L422.613 200.74L422.742 189.339L421.532 187.746L424.081 179.53L427.871 177.907L427.809 167.907L429.753 158.895C432.386 153.545 431.283 147.685 426.443 141.315L428.227 138.704L420.46 111.951L417.849 110.168L414.602 102.588L411.991 100.804L414.028 106.791L413.041 108.797L410.367 97.0139C409.412 93.5531 408.075 92.8947 406.355 95.0388L411.257 111.409L414.856 111.186L415.905 119.18L412.307 119.402L412.498 118.001L407.658 111.631L405.399 102.045L400.368 97.076L405.238 108.446L403.041 108.86C404.23 107.119 402.882 104.794 398.997 101.885L399.158 95.4835L397.343 93.0948L391.929 90.9284L391.516 88.7309L389.509 87.7434L387.694 85.3546L390.306 87.1384L391.293 85.1322C388.342 82.3505 387.6 80.8218 389.065 80.546L389.67 81.3423L392.472 81.7248L402.12 89.465L402.917 88.86C398.48 83.0208 393.523 79.2516 388.046 77.5523L386.836 75.9598C385.35 72.9023 383.408 71.4477 381.009 71.5959L378.015 72.6145L375.213 72.232L377.219 73.2195L377.441 76.8182L379.447 77.8057L380.275 82.2007L371.04 76.658L363.843 77.1028L362.25 78.3127L359.639 76.5289L356.645 77.5475L352.633 75.5724L350.435 75.9861L352.442 76.9736L352.473 81.9735L353.874 82.1648C356.549 83.4816 357.547 83.142 356.868 81.1462C360.477 82.5905 364.341 82.1664 368.46 79.8741C374.596 80.236 380.009 82.4023 384.701 86.3732L389.954 94.9407L396.511 120.1L395.523 122.107C395.247 120.642 394.249 120.981 392.529 123.125L392.054 110.928L387.152 94.5582L381.102 86.5956L375.083 83.633L370.084 83.6641L371.485 83.8554L371.071 81.6579L363.682 83.5039L359.51 87.9299L358.3 86.3374C356.304 87.0165 356.378 88.2161 358.522 89.9361L355.56 95.9546L355.591 100.955C356.27 102.95 355.675 103.821 353.807 103.566L356.036 108.152L357.53 123.343L352.432 139.775L348.26 144.201L349.087 148.596L350.679 147.386L350.711 152.386L351.124 154.583L353.704 151.367L353.482 147.769L358.771 129.935L360.524 122.324L361.542 125.318L359.407 135.731L358.673 146.336L363.58 131.305L364.536 124.299L362.308 119.713L359.696 117.929L358.647 109.936L360.782 99.5222L367.152 94.6825L367.343 93.2813L376.325 90.2254L382.534 91.7868L385.973 97.9656L384.38 99.1755L387.023 105.959L385.652 110.768L385.875 114.366L384.474 114.175L383.615 104.78L378.807 103.41L378.615 104.811C381.545 104.26 382.416 104.854 381.226 106.595C385.111 109.504 385.058 111.638 381.066 112.996C380.408 114.334 380.811 114.865 382.276 114.589L381.289 116.595L379.696 117.805L374.122 122.04L375.937 124.428L374.345 125.638L375.746 125.83L376.351 126.626L374.153 127.04L375.363 128.632L372.783 131.848L371.573 130.256L372.561 128.25L372.53 123.25C372.147 126.052 370.098 128.865 366.382 131.688L363.451 142.706L355.742 157.355L356.569 161.75L356.155 159.552L354.563 160.762L351.569 161.781L351.186 164.583L352.588 164.774L353.001 166.972C355.549 169.223 355.824 170.688 353.829 171.367L358.762 192.737L356.978 195.348L357.805 199.743L355.639 205.156L351.849 206.78L350.67 210.187L349.46 208.595C347.464 209.274 347.071 210.41 348.281 212.002L344.3 215.027L343.504 215.632L341.275 211.046L342.263 209.039C344.131 209.295 344.725 208.424 344.046 206.428C342.709 205.77 342.773 205.303 344.238 205.027L343.633 204.231L340.065 209.453C338.324 208.264 338.717 207.128 341.244 206.046L339.429 203.657L342.614 201.237L341.595 198.243L339.589 197.256C335.832 193.412 333.943 189.824 333.922 186.491C335.111 184.75 335.844 184.612 336.12 186.077L337.33 187.67C341.214 190.579 342.562 192.904 341.373 194.645C343.262 198.233 345.406 199.953 347.805 199.805L348.25 207.002C348.929 208.998 349.598 209.327 350.256 207.99C351.7 204.381 351.075 200.251 348.379 195.601L345.768 193.817L341.725 186.842L342.521 186.237L344.749 190.824L347.743 189.805L341.311 184.645L336.6 166.874L337.588 164.868L342.779 163.435L342.557 159.837L336.569 161.874L335.582 163.88L333.384 164.294L331.792 165.504L327.873 178.528L330.737 188.911L329.558 192.318C328.9 193.656 329.303 194.186 330.768 193.911L331.182 196.108C331.861 198.104 332.795 198.231 333.984 196.491L337.614 201.268L336.627 203.274L329.781 195.917L327.583 196.331L334.238 205.089L332.645 206.299L333.855 207.892L333.059 208.497L331.022 202.509L325.386 196.744C325.131 198.612 326.277 200.672 328.824 202.923L330.065 209.515L334.905 215.885L335.541 221.682L333.98 227.891C331.898 236.171 332.151 244.77 334.74 253.687C337.032 257.806 338.508 259.197 339.166 257.86L335.888 245.28L336.177 227.478L338.566 225.663L337.196 230.471L337.036 236.873L338.245 238.465L339.838 237.255L339.709 248.656C343.89 256.364 348.518 260.802 353.592 261.97L353.37 258.371L351.363 257.384L349.548 254.995L356.968 258.149L355.981 260.155L365.598 262.895L366.617 265.889L350.407 264.39L341.617 266.045L335.598 263.082L332.765 257.699L331.777 259.706L328.179 259.928L330.79 261.712L332 263.304L340.025 267.255L354.228 267.766L360.438 269.328L366.234 268.692L369.641 269.87C364.185 271.504 358.654 271.939 353.049 271.174L348.845 270.6L357.062 273.149L358.271 274.741L355.66 272.957L343.463 273.433L336.648 271.076L339.451 271.458L340.438 269.452L336.043 270.279C332.838 269.366 329.154 266.722 324.994 262.348L322 263.367L319.389 261.583L322.383 260.564L310.314 249.639L308.691 245.849L301.654 239.893L301.271 242.695L310.79 261.836L307.574 259.256L306.778 259.861L319.068 274.385L328.303 279.928C328.982 281.923 329.916 282.051 331.106 280.31L329.291 277.921L331.297 278.909L334.704 280.088L345.087 277.223L351.488 277.383C352.167 279.379 352.836 279.708 353.494 278.371L361.105 280.124L341.902 279.643L332.315 281.903L331.519 282.508L342.315 281.841L342.729 284.038L335.34 285.884L333.748 287.094L331.55 287.508L324.131 284.354C325.32 282.613 324.641 280.617 322.093 278.366L318.303 279.99L317.921 282.792L313.908 280.817L315.532 284.607L326.359 288.94L327.569 290.532L324.958 288.749L319.162 289.385L315.754 288.206C315.096 289.543 314.427 289.214 313.748 287.218L312.156 288.428L318.97 290.786L326.773 291.137L331.995 294.705L334.193 294.291L335.18 292.285L329.766 290.119L337.155 288.273L336.168 290.279C337.908 291.468 339.373 291.192 340.563 289.452C342.431 289.707 343.025 288.836 342.346 286.84L348.747 287.001L349.735 284.994C355.998 284.422 362.187 282.65 368.302 279.679L369.29 277.673L370.309 280.666L371.518 282.259L366.136 285.093C364.395 283.903 363.397 284.243 363.142 286.111L352.951 287.575L346.167 290.217L350.976 291.587C352.165 289.846 353.099 289.974 353.778 291.969L363.173 291.111L372.537 285.253L372.951 287.45L369.957 288.469C367.43 289.551 366.507 291.09 367.186 293.086L362.599 295.315L342.791 294.038C342.133 295.375 341.464 295.046 340.785 293.05L339.001 295.661L333.81 297.094L321.995 294.767L318.779 292.187L315.785 293.206L306.359 289.064L301.36 289.095C300.68 287.1 299.746 286.972 298.557 288.713L282.508 280.812L272.828 268.072L270.026 267.69L271.045 270.683L273.656 272.467L281.52 282.819L281.329 284.22L291.582 292.756L292.792 294.349L306.23 300.465L309.829 300.243L296.391 294.126L287.952 287.979L287.347 287.182C291.212 286.758 294.619 287.937 297.57 290.719L319.798 295.181L325.02 298.748L329.415 297.921L337.822 299.069L338.014 297.668L353.205 296.173L356.007 296.556L362.408 296.716L361.229 300.123L354.859 304.963L337.853 304.069L337.057 304.674L340.465 305.853L344.668 306.426L350.273 307.192C356.685 309.018 363.404 306.843 370.433 300.666ZM225.452 400.769L225.421 395.77L222.205 393.19L224.243 399.177L225.452 400.769ZM275.808 361.256L275.394 359.058L274.598 359.663L275.808 361.256ZM225.804 392.967L225.39 390.77L224.594 391.375L225.804 392.967ZM225.39 390.77L224.977 388.572L224.18 389.177L225.39 390.77ZM219.817 395.004L218.798 392.011L218.002 392.616L219.817 395.004ZM229.563 386.344L229.63 364.943L229.407 361.344L234.474 339.912L233.549 351.918L234.95 352.109L235.074 372.109L236.889 374.498L236.636 365.899L239.345 351.282L240.524 347.875L240.493 342.875L239.505 344.881L238.104 344.69L246.071 307.239C248.067 306.56 248.195 305.626 246.454 304.437L249.003 296.221L249.897 279.215L252.032 268.802L252.219 298.801L249.51 313.418L241.672 339.467L242.69 342.461L241.16 353.671L242.592 358.862C242.337 360.73 242.942 361.527 244.407 361.251L243.549 351.856L244.536 349.85L244.95 352.047C245.629 354.043 246.298 354.372 246.956 353.035L246.098 343.64L254.065 306.19C252.727 305.531 253.057 304.863 255.052 304.184L255.311 281.382L256.903 280.172L257.317 282.369L258.909 281.159L254.127 316.19L251.578 324.406L250.653 336.412L253.264 338.195L252.912 345.998L254.696 343.387L254.634 333.387L256.387 325.776L257.757 320.967L257.468 338.769L258.678 340.362L258.838 333.961L260.813 329.948L261.547 319.343L262.948 319.535L267.09 310.109L267.601 295.905L270.786 293.486L268.01 329.503L270.301 344.09L272.529 348.676L273.739 350.268L270.016 330.491L273.175 291.671L271.934 285.078L261.65 271.542L263.625 267.53L248.594 262.623L245.311 281.444L243.749 287.654L246.779 260.234L238.915 249.883L237.513 249.692L229.235 237.143L227.518 218.353L220.641 205.996L219.592 198.002L220.739 189.595L225.294 182.366L224.405 167.971L222.399 166.984L220.455 175.996L218.066 177.811L215.9 183.225L216.313 185.422L219.467 178.002L221.473 178.99L208.03 204.274L208.444 206.471L211.215 201.854L212.808 200.644L209.049 207.268L207.167 226.28L210.285 245.261L210.379 260.26C210.186 272.129 206.989 283.349 200.788 293.921L201.393 294.717L207.732 284.877L211.651 271.853C214.391 262.236 214.53 252.501 212.069 242.65C211.793 241.185 212.324 240.781 213.662 241.44L210.988 229.656L211.34 221.854L213.346 222.841C214.535 221.101 214.196 220.103 212.327 219.848L213.315 217.841L215.543 222.428C214.375 227.502 214.873 232.565 217.038 237.619L219.649 239.402L220.063 241.6L221.273 243.192L221.784 228.989L223.377 227.779L224.458 240.773L228.915 249.945L229.964 257.939L231.908 248.926L232.513 249.723C234.254 250.912 234.127 251.846 232.131 252.525L232.767 258.321L231.107 280.932L232.317 282.525L233.305 280.518L233.817 266.315L236.174 259.5L237.669 274.691L231.454 304.53L221.961 321.79L217.882 341.215L219.092 342.808L220.431 332.999L227.344 318.956L227.918 314.752L232.282 308.925L236.966 290.296L239.421 267.08C241.417 266.401 241.545 265.467 239.804 264.278L240.792 262.271L241.459 273.067L237.633 301.092L235.467 306.505C237.207 307.695 237.08 308.629 235.084 309.308L235.689 310.104L239.448 303.481L240.627 300.073L239.701 312.079C238.236 312.355 238.173 312.822 239.51 313.48C237.449 325.093 233.519 336.451 227.722 347.554L226.925 348.159L232.82 331.122L232.597 327.524L224.919 347.172L225.488 374.369L227.143 383.159L229.563 386.344ZM224.977 388.572C222.919 379.252 222.262 370.122 223.006 361.184L221.605 360.993C220.054 368.869 220.371 377.001 222.557 385.387L224.977 388.572ZM218.798 392.011L216.125 380.227L214.723 380.036L216.378 388.826L218.798 392.011ZM235.71 377.905L233.896 375.517L233.451 368.319L232.05 368.128L232.494 375.325L235.71 377.905ZM287.053 336.385L286.64 334.188L285.843 334.793L287.053 336.385ZM345.371 290.822L344.766 290.025L343.174 291.235L345.371 290.822ZM447.261 208.387L446.847 206.189L446.051 206.794L447.261 208.387ZM450.032 203.769L448.822 202.177L447.834 204.183L450.032 203.769ZM322.631 300.563L322.218 298.366L320.02 298.78L322.631 300.563ZM406.429 235.641C405.75 233.645 404.816 233.518 403.627 235.258C404.306 237.254 405.24 237.382 406.429 235.641ZM265.492 342.719L265.079 340.522L264.282 341.127L265.492 342.719ZM265.079 340.522L264.665 338.324L263.869 338.929L265.079 340.522ZM264.665 338.324L264.251 336.127L263.455 336.732L264.665 338.324ZM315.02 298.811C314.872 296.411 314.203 296.082 313.014 297.823L315.02 298.811ZM405.38 227.647L408.151 223.03L406.145 222.043L403.373 226.66C404.052 228.656 404.721 228.985 405.38 227.647ZM215.871 371.629L215.84 366.629L217.401 360.419L218.901 344.209L217.308 345.419L214.661 370.036L215.871 371.629ZM308.014 297.854C307.866 295.455 307.197 295.126 306.008 296.867L308.014 297.854ZM223.198 359.783L222.975 356.184L221.796 359.591L223.198 359.783ZM348.401 263.402L342.16 256.841L340.185 260.853L348.401 263.402ZM304.607 296.675L302.187 293.49C301.508 291.494 300.574 291.367 299.384 293.108L304.607 296.675ZM309.958 288.842L309.544 286.644L305.15 287.472L309.958 288.842ZM333.623 267.094L333.21 264.897L332.413 265.502L333.623 267.094ZM304.353 288.077L300.724 283.299L298.335 285.114L304.353 288.077ZM223.135 349.783L222.308 345.388L220.907 345.197L220.938 350.197L223.135 349.783ZM329.006 264.323L327.382 260.533L326.586 261.138L329.006 264.323ZM222.499 343.987L225.622 331.567L235.498 311.505L232.886 309.722L227.184 325.357L224.604 328.573L221.098 343.795L222.499 343.987ZM303.909 280.879C303.229 278.884 302.295 278.756 301.106 280.497C301.785 282.493 302.719 282.62 303.909 280.879ZM327.382 260.533L327.574 259.132L329.963 257.317C327.818 255.597 327.744 254.397 329.74 253.718L328.117 249.928C326.631 246.871 324.625 245.883 322.098 246.966C321.843 248.834 322.989 250.893 325.537 253.144L325.568 258.144L327.382 260.533ZM333.116 249.897L332.098 246.903L330.092 245.916L330.919 250.311L333.116 249.897ZM234.381 324.913L233.967 322.715L232.98 324.721L234.381 324.913ZM236.739 318.098L237.726 316.092L237.504 312.493L235.337 317.906L236.739 318.098ZM316.524 251.2L312.672 242.824L314.647 238.812C313.565 236.285 312.365 236.359 311.048 239.034L309.425 235.244L310.604 231.837C311.283 233.833 312.217 233.96 313.406 232.219L310.573 226.837L308.406 232.25L306.209 232.664C305.55 234.002 306.092 235.265 307.832 236.454L305.635 236.868L304.616 233.874L304.011 233.078L302.036 237.09L308.851 239.448L311.907 248.429L314.104 248.015L316.524 251.2ZM256.583 292.974L256.552 287.974L255.373 291.381L256.583 292.974ZM334.171 226.49L333.757 224.293L332.961 224.898L334.171 226.49ZM316.24 237.602C317.556 234.927 317.207 232.262 315.19 229.608L314.394 230.213C316.134 231.402 316.007 232.337 314.011 233.016L314.234 236.614C314.913 238.61 315.581 238.939 316.24 237.602ZM354.237 204.965L353.633 204.169L352.04 205.379L354.237 204.965ZM269.421 266.894L267.415 265.906C268.094 267.902 268.763 268.231 269.421 266.894ZM354.811 200.761L354.206 199.965L353.41 200.57L354.811 200.761ZM271.205 264.282L270.791 262.085L269.995 262.69L271.205 264.282ZM281.939 253.615L280.698 247.023C280.422 245.558 279.689 245.696 278.5 247.437L279.136 253.233C279.815 255.229 280.749 255.356 281.939 253.615ZM269.199 263.295L268.785 261.097L267.989 261.702L269.199 263.295ZM357.169 193.947C356.49 191.951 355.556 191.823 354.367 193.564C355.046 195.56 355.98 195.687 357.169 193.947ZM317.356 224.195L316.943 221.997L316.146 222.602L317.356 224.195ZM267.192 262.307L264.964 257.721L263.754 256.129L252.513 249.598L250.316 250.012L255.347 254.981C260.017 255.618 263.966 258.061 267.192 262.307ZM231.361 289.531L233.336 285.518L231.33 284.531L229.96 289.339L231.361 289.531ZM194.733 317.359L199.066 306.532C201.062 305.853 200.988 304.653 198.844 302.933C195.404 307.221 193.566 311.966 193.332 317.168L194.733 317.359ZM311.974 227.028L311.338 221.232L309.745 222.442L310.159 224.639L311.974 227.028ZM305.604 231.868L305.764 225.467L308.122 218.652L307.517 217.856L305.733 220.467C304.268 220.743 304.406 221.475 306.147 222.664L303.567 225.88L303.789 229.479L302.005 232.09L305.604 231.868ZM285.697 246.992L285.284 244.794L284.488 245.399L285.697 246.992ZM314.554 223.812L314.523 218.812C312.251 218.026 311.455 218.631 312.134 220.627L314.554 223.812ZM286.876 243.585L285.858 240.591L285.061 241.196L286.876 243.585ZM283.086 245.208L282.864 241.609C281.506 237.618 279.967 236.694 278.247 238.838L280.475 243.424L283.086 245.208ZM277.29 245.844L276.08 244.252L273.883 244.665C274.965 247.192 276.101 247.585 277.29 245.844ZM205.819 298.89L206.806 296.883L206.201 296.087L204.417 298.698L205.819 298.89ZM288.82 234.572L288.407 232.375L287.61 232.98L288.82 234.572ZM285.03 236.196L287.197 230.782L284.332 220.4L286.69 213.585L284.079 211.801L283.665 209.604L287.486 212.98L289.27 210.369L283.22 202.406L285.609 200.592L288.029 203.777L287.615 201.579L286.405 199.987C283.858 197.736 283.179 195.74 284.368 193.999L291.596 198.554L292.584 196.548L287.139 189.382L284.942 189.796L284.719 186.197L285.324 186.993C287.724 186.845 289.464 188.034 290.547 190.561L289.497 182.567C287.353 180.847 287.279 179.647 289.275 178.968L284.849 174.796L288.194 165.975L292.206 167.95L288.959 160.37L290.329 155.561L289.502 151.166L288.132 155.975L285.934 156.389L283.99 165.401C281.994 166.08 282.536 167.343 285.614 169.191L284.021 170.401L283.256 176.006L285.485 180.592C287.629 182.312 286.705 183.851 282.713 185.209L282.775 195.209L280.164 193.425L279.239 205.431L281.659 208.616L280.863 209.221C280.587 207.756 279.854 207.894 278.665 209.635L283.789 229.603L283.82 234.603L285.03 236.196ZM207.794 294.877L212.731 284.846L212.509 281.248L214.867 274.433L213.466 274.242L206.392 294.686L207.794 294.877ZM326.627 203.337C323.655 197.222 322.085 191.298 321.916 185.566L326.249 174.738L324.243 173.751C325.453 175.343 324.529 176.882 321.471 178.368L321.885 180.566L319.91 184.578L319.75 190.979L324.016 201.553L326.627 203.337ZM289.999 231.165L289.777 227.566L288.789 229.572L289.999 231.165ZM263.309 248.931C262.885 245.067 261.474 243.209 259.074 243.357L260.253 239.95L248.025 235.426C244.268 231.583 242.846 228.058 243.759 224.852C243.483 223.387 242.751 223.525 241.562 225.266L239.524 219.278L237.932 220.488L238.345 222.686L235.129 220.106L235.765 225.902L239.013 233.482L247.865 241.827L253.47 242.592L255.284 244.981C258.618 244.96 261.293 246.277 263.309 248.931ZM260.124 251.351L259.71 249.154L258.914 249.759L260.124 251.351ZM225.885 277.364L224.675 275.772L226.237 269.562L226.65 271.76L227.86 273.352L227.162 257.556L225.761 257.365L225.601 263.766L224.422 267.173L224.008 264.976L222.607 264.785L222.86 273.383C224.601 274.572 224.474 275.506 222.478 276.186C223.56 278.712 224.696 279.105 225.885 277.364ZM347.107 184.009L346.693 181.811L345.897 182.416L347.107 184.009ZM257.513 249.567L257.099 247.37L256.303 247.975L257.513 249.567ZM308.664 209.448L308.251 207.251L307.455 207.856L308.664 209.448ZM327.17 194.133L326.756 191.936C326.608 189.536 327.266 188.199 328.731 187.923C327.373 183.932 325.834 183.008 324.114 185.152L324.75 190.948L327.17 194.133ZM303.282 212.282L302.837 205.085L300.831 204.097L300.671 210.498C301.753 213.025 302.624 213.619 303.282 212.282ZM220.663 273.797L218.853 240.007L217.26 241.217L218.403 264.211C220.144 265.4 220.016 266.334 218.021 267.013L217.86 273.414L220.663 273.797ZM271.209 232.882L268.185 228.9L266.592 230.11L271.209 232.882ZM249.902 247.815C249.478 243.95 248.406 243.09 246.686 245.234L249.902 247.815ZM345.039 173.022L341.218 169.645C339.222 170.324 339.296 171.524 341.44 173.244L345.039 173.022ZM307.806 200.054L305.96 192.665L307.553 191.455C306.874 189.459 305.939 189.332 304.75 191.072L304.781 196.072L307.806 200.054ZM262.197 230.938C263.386 229.197 263.047 228.199 261.179 227.944L260.765 225.747C258.769 226.426 257.028 225.236 255.543 222.179L254.555 224.185L262.197 230.938ZM254.426 235.586L253.79 229.79C252.708 227.263 251.168 226.34 249.173 227.019L251.401 231.605L254.426 235.586ZM290.64 205.56L289.621 202.567L288.825 203.172L290.64 205.56ZM227.736 253.352L228.118 250.55L226.112 249.562L226.526 251.76L227.736 253.352ZM205.632 268.89L207.1 247.681L205.508 248.891L204.422 267.298L205.632 268.89ZM314.91 184.609C313.828 182.082 312.692 181.689 311.503 183.43C312.585 185.957 313.721 186.35 314.91 184.609ZM315.898 182.603L316.28 179.8L313.892 181.615C314.571 183.611 315.239 183.94 315.898 182.603ZM317.268 177.794L316.663 176.998L315.867 177.603L317.268 177.794ZM225.699 247.365L224.871 242.97L223.884 244.976L225.699 247.365ZM350.106 151.59L348.896 149.997L347.908 152.003L350.106 151.59ZM257.135 220.969L256.308 216.574L255.32 218.58L257.135 220.969ZM313.86 176.615L313.447 174.418L312.651 175.023L313.86 176.615ZM253.728 219.79L252.709 216.796L251.913 217.401L253.728 219.79ZM335.137 156.683L334.532 155.887L332.939 157.096L335.137 156.683ZM339.309 152.257L339.692 149.454L335.106 151.683L334.118 153.689L339.309 152.257ZM254.11 216.988L254.271 210.587L251.659 208.803L251.69 213.803L254.11 216.988ZM345.871 146.016L349.025 138.596L346.414 136.812L344.247 142.226C340.256 143.584 339.799 145.187 342.877 147.034L343.673 146.43L345.871 146.016ZM321.57 161.967L321.347 158.369L320.168 161.776L321.57 161.967ZM244.333 220.649L244.271 210.649C243.592 208.653 242.657 208.525 241.468 210.266L242.518 218.26L244.333 220.649ZM368.74 124.873L368.104 119.077C367.425 117.081 366.491 116.954 365.301 118.694L366.925 122.484L368.74 124.873ZM351.413 136.781L353.357 127.769L351.956 127.578C352.508 130.508 350.989 132.917 347.401 134.806L348.611 136.399L349.599 134.392L350.012 136.59L351.413 136.781ZM323.736 156.554L320.933 156.171C321.613 158.167 322.547 158.294 323.736 156.554ZM314.181 163.813L313.958 160.215L312.971 162.221L314.181 163.813ZM372.499 118.25L371.48 115.256L370.27 113.663L366.418 105.287L366.196 101.689L369.572 97.8675L368.967 97.0713C365.251 99.8944 363.202 102.707 362.819 105.51L372.499 118.25ZM337.464 144.868L341.827 139.041C345.288 138.086 345.947 136.749 343.802 135.028L346.129 123.214L343.135 124.232L342.913 120.634C342.361 117.704 342.956 116.833 344.697 118.023L342.851 110.634L344.03 107.227L345.271 113.819C345.95 115.815 346.884 115.942 348.073 114.202L345.622 106.017L346.801 102.609L345.4 102.418L344.221 105.825L342.184 99.8379L343.905 87.2269L342.887 84.2332L340.912 88.2456L339.381 99.4553L341.227 106.844L339.443 109.455L338.042 109.264C339.614 104.721 338.85 99.8586 335.751 94.6778L335.307 87.4804L331.517 89.104L331.961 96.3014L334.19 100.888C333.17 108.361 333.615 115.558 335.524 122.48L330.044 141.714L323.865 145.153C323.717 142.754 325.638 140.875 329.63 139.517L328.006 135.727L320.075 146.776L309.501 151.042C308.036 151.318 307.973 151.785 309.31 152.443L309.724 154.641C312.102 151.159 313.97 151.414 315.329 155.406C315.074 157.274 315.679 158.07 317.143 157.795L319.532 155.98L321.89 149.165L324.087 148.751C331.264 144.973 335.84 141.078 337.815 137.066L338.869 113.659C338.19 111.663 338.987 111.058 341.258 111.844L342.179 131.239L339.439 140.856L332.877 147.097L337.464 144.868ZM268.986 196.895L268.381 196.099L267.584 196.704L268.986 196.895ZM269.177 195.494L266.343 190.111L265.356 192.117L269.177 195.494ZM202.483 244.909L202.581 228.508L207.043 206.28L205.642 206.089L202.296 214.91C200.087 224.124 199.746 233.593 201.273 243.317L202.483 244.909ZM269.751 191.29L269.337 189.093L268.541 189.697L269.751 191.29ZM293.033 172.345L292.811 168.746L291.824 170.752L293.033 172.345ZM269.528 187.691L267.714 185.303C266.524 187.043 267.129 187.84 269.528 187.691ZM255.992 197.976L256.375 195.173L253.764 193.389L254.782 196.383L255.992 197.976ZM248.03 204.025L247.14 189.631L245.739 189.439L244.56 192.847L245.61 200.84L248.03 204.025ZM364.474 114.3L362.85 110.51L362.054 111.115L364.474 114.3ZM260.961 192.945L261.344 190.142L259.751 191.352L260.961 192.945ZM262.745 190.334L263.127 187.531L260.739 189.346L262.745 190.334ZM294.786 164.734L293.768 161.74L295.169 161.931L295.965 161.326L290.743 157.759L291.984 164.351C292.663 166.347 293.597 166.475 294.786 164.734ZM242.425 203.26L243.19 197.655L240.387 197.273L241.215 201.668L242.425 203.26ZM238.443 206.285L237.011 201.094L237.363 193.291L238.541 189.884L238.764 193.483L240.579 195.871L240.134 188.674L240.677 179.471L234.974 195.106L236.246 206.699L238.443 206.285ZM214.556 224.434L213.346 222.841L212.358 224.848L214.556 224.434ZM380.368 97.2004L379.541 92.8055L375.751 94.4291L374.349 94.2378L380.368 97.2004ZM347.722 122.004L348.104 119.201L346.703 119.01L345.524 122.418L347.722 122.004ZM251.375 195.204L250.961 193.007C250.685 191.542 251.216 191.139 252.554 191.797L254.337 189.186L253.128 187.593L253.096 182.593L249.658 176.415L251.442 173.804L251.664 177.402L253.479 179.791L253.065 177.593L254.435 172.785L256.633 172.371L258.417 169.76L257.398 166.766L255.997 166.575L255.009 168.581L252.398 166.797L248.034 172.625L247.269 178.23C251.302 183.538 252.066 188.4 249.56 192.816L251.375 195.204ZM280.423 170.623L279.213 169.031L278.225 171.037L280.423 170.623ZM260.516 185.747L259.911 184.951L259.115 185.556L260.516 185.747ZM231.851 207.526L230.036 205.137L231.215 201.73L230.993 198.131L237.492 181.89L237.399 166.891L235.33 155.903L235.108 152.305L234.503 151.508L231.731 156.126L231.189 165.329L233.195 166.317L234.658 176.508C234.955 181.306 233.648 185.648 230.739 189.533L229.049 207.143C229.728 209.139 230.662 209.267 231.851 207.526ZM280.996 166.42L279.786 164.827L279.182 164.031L278.194 166.037C278.873 168.033 279.807 168.16 280.996 166.42ZM350.462 112.387L350.4 102.387L348.998 102.196L349.252 110.794L350.462 112.387ZM246.535 188.834L246.121 186.637L245.325 187.242L246.535 188.834ZM243.35 191.254L243.733 188.452L242.14 189.662L243.35 191.254ZM311.223 138.431L310.809 136.234L310.013 136.839L311.223 138.431ZM258.065 177.562L256.855 175.97L255.868 177.976L258.065 177.562ZM354.603 102.961L354.19 100.763L353.393 101.368L354.603 102.961ZM287.113 152.981L288.292 149.574L288.069 145.975C289.789 143.831 289.45 142.833 287.051 142.982L285.396 134.192L283.804 135.402C283.293 139.138 284.652 143.13 287.878 147.376L285.712 152.79L287.113 152.981ZM256.855 175.97L257.238 173.167L255.645 174.377L256.855 175.97ZM291.286 148.555L292.464 145.148L291.606 135.753L286.704 119.383L287.056 111.581L285.463 112.791L285.365 129.192L290.076 146.963L291.286 148.555ZM354.572 97.9608L354.35 94.3621L353.362 96.3683L354.572 97.9608ZM259.404 167.754L260.392 165.748L259.787 164.951L258.003 167.563L259.404 167.754ZM303.39 133.08C304.706 130.405 303.889 127.677 300.939 124.895L298.741 125.308L298.457 111.71C297.629 107.315 298.67 103.175 301.579 99.2903L302.536 92.2842L300.338 92.6979L298.172 98.1115L295.525 122.728L297.18 131.518C297.859 133.514 298.793 133.642 299.982 131.901L299.155 127.506L300.747 126.296L301.988 132.888L303.39 133.08ZM262.972 162.532L266.891 149.507L266.669 145.908C266.393 144.443 267.518 143.17 270.045 142.087L267.594 133.902C269.442 130.824 268.9 129.561 265.97 130.112L267.02 138.106L261.571 162.34L262.972 162.532ZM240.072 178.674L239.849 175.076C237.578 174.29 236.782 174.895 237.461 176.89L240.072 178.674ZM380.404 70.7997L371.552 62.4545L371.965 64.652L370.755 63.0595C368.76 63.7386 368.632 64.6727 370.373 65.8619L368.175 66.2756L367.762 64.0781C364.408 60.7656 360.597 59.0559 356.33 58.9491C356.054 57.4841 355.321 57.622 354.132 59.3628C352.391 58.1736 351.394 58.5131 351.138 60.3814L347.54 60.6038L346.744 61.2088L355.947 61.7516L364.354 62.8993L364.768 65.0968L359.163 64.3316C358.887 62.8666 358.155 63.0045 356.966 64.7453L359.577 66.5291L365.373 65.893L366.392 68.8867L364.799 70.0967L369.608 71.4668L373.206 71.2444L369.194 69.2693L368.589 68.4731L377.601 70.4171L380.404 70.7997ZM258.577 163.359L260.361 160.748L260.33 155.748L257.176 163.168L258.577 163.359ZM312.691 117.222L312.66 112.222C312.384 110.757 311.652 110.895 310.463 112.635L310.876 114.833L312.691 117.222ZM251.38 163.804L251.348 158.804L253.897 150.588L253.675 146.989C250.363 150.343 249.056 154.685 249.756 160.014L247.367 161.829L247.781 164.026C248.46 166.022 249.66 165.948 251.38 163.804ZM366.231 75.2879L357.219 73.3439L361.232 75.319L366.231 75.2879ZM331.196 101.906L330.943 93.3076L328.937 92.3201L328.776 98.7212L331.196 101.906ZM292.945 125.945L293.234 108.142L297.153 95.1178L296.931 91.5191L294.351 94.7352L291.611 104.352C290.146 104.628 290.082 105.095 291.419 105.754L290.049 110.562L291.735 124.352L292.945 125.945ZM364.003 70.7016L363.589 68.5042L358.589 68.5353L364.003 70.7016ZM302.691 117.284L302.469 113.685L301.481 115.691L302.691 117.284ZM370.755 63.0595C368.591 58.0062 365.375 55.4261 361.107 55.3193L357.7 54.1405L354.706 55.1591L351.49 52.5791L334.898 53.8823L334.101 54.4872L336.713 56.271L339.706 55.2524L343.91 55.8263L356.107 55.3504L358.113 56.338C358.793 58.3338 359.727 58.4613 360.916 56.7206L370.755 63.0595ZM350.053 78.7885L348.047 77.801L346.454 79.0109L350.053 78.7885ZM336.708 87.6717L337.09 84.8692L334.097 85.8879L336.708 87.6717ZM355.213 72.3563L354.799 70.1589C355.458 68.8214 354.789 68.4922 352.793 69.1713C352.135 70.5087 351.466 70.1796 350.787 68.1838L346.392 69.0111L345.596 69.6161L347.602 70.6036L351.201 70.3812L355.213 72.3563ZM217.461 177.015L218.226 171.41C220.222 170.731 220.35 169.797 218.609 168.608L215.837 173.225L216.06 176.824L217.461 177.015ZM344.448 78.0234L343.843 77.2271L342.251 78.437L344.448 78.0234ZM252.274 146.798L250.459 144.409C251.245 142.137 250.364 139.876 247.817 137.625C245.821 138.304 245.492 138.973 246.829 139.632L245.268 145.841L246.478 147.434L247.465 145.428L248.453 143.422L249.28 147.816L250.076 147.211L252.274 146.798ZM241.923 154.662L243.484 148.452L243.644 142.051C243.368 140.586 242.636 140.724 241.447 142.465L240.713 153.07L241.923 154.662ZM302.82 105.883L302.598 102.284L301.611 104.29L302.82 105.883ZM341.232 75.4433L340.022 73.8508C337.22 73.4682 334.162 74.9539 330.85 78.3079L328.047 77.9253C327.389 79.2628 326.72 78.9336 326.041 76.9378L321.646 77.7651L319.862 80.3763C323.45 78.4873 326.518 78.6682 329.066 80.9191L341.232 75.4433ZM221.794 166.188L220.584 164.595L218.004 167.811L221.794 166.188ZM258.613 136.958L261.131 123.742C263.126 123.063 263.254 122.129 261.513 120.94L260.908 120.144L259.124 122.755L259.538 124.952L256.798 134.569L258.613 136.958ZM221.985 164.786L222.368 161.984L220.775 163.194L221.985 164.786ZM215.615 169.626L221.923 154.787L223.071 146.379L231.002 135.33L232.212 136.922L238.137 124.885L237.532 124.089L232.977 131.317L224.027 139.373L216.923 154.818L214.214 169.435L215.615 169.626ZM268.55 126.896C267.871 124.9 266.937 124.773 265.748 126.514C266.427 128.509 267.361 128.637 268.55 126.896ZM236.095 150.298L235.49 149.502L234.694 150.107L236.095 150.298ZM237.083 148.292L236.669 146.095L235.682 148.101L237.083 148.292ZM327.028 74.9316C326.88 72.5325 326.211 72.2033 325.022 73.9441L327.028 74.9316ZM244.218 137.848L249.316 121.416C252.373 119.93 253.032 118.593 251.291 117.403L249.507 120.014L245.717 121.638L244.538 125.045L244.699 118.644L243.106 119.854L242.341 125.459L243.742 125.65L244.156 127.848L242.181 131.86L243.008 136.255L241.224 138.866L244.218 137.848ZM343.941 60.8262L342.922 57.8325C338.379 56.2607 333.252 57.2259 327.54 60.7282L328.559 63.7219L335.756 63.2771L337.54 60.666L332.349 62.0983L328.941 60.9194L336.33 59.0735L339.737 60.2523L343.941 60.8262ZM281.037 108.618L279.827 107.026L278.84 109.032L281.037 108.618ZM324.226 74.549L327.794 69.3267L325.596 69.7404L327.38 67.1293L319.386 68.179L313.016 73.0187L314.831 75.4075L316.041 77L312.251 78.6236C312.93 80.6194 313.864 80.7469 315.054 79.0062L316.646 77.7962L324.226 74.549ZM227.466 145.552L228.644 142.145L225.459 144.564C226.139 146.56 226.807 146.889 227.466 145.552ZM252.341 125.397L252.532 123.996C254.528 123.317 254.655 122.383 252.915 121.193L250.335 124.409C251.014 126.405 251.682 126.734 252.341 125.397ZM266.865 113.106L269.987 100.687L272.568 97.4707L272.536 92.4708C272.261 91.0058 271.528 91.1437 270.339 92.8844L271.963 96.6744L269.765 97.0881L269.351 94.8906L266.166 97.3105L268.364 96.8968L265.463 112.915L266.865 113.106ZM300.881 83.4944L302.856 79.482L295.085 84.1304L293.079 83.1429L299.035 76.1057L294.449 78.3343L284.703 86.995L285.913 88.5875L290.69 84.9578L292.091 85.149C295.297 86.0625 298.227 85.5109 300.881 83.4944ZM288.141 93.1738L286.931 91.5813L285.944 93.5874L288.141 93.1738ZM284.16 96.1986L283.746 94.0011L282.759 96.0073L284.16 96.1986ZM327.349 62.1294L326.139 60.5369L322.349 62.1605C320.884 62.4363 321.022 63.1687 322.763 64.3579L327.349 62.1294ZM333.305 55.0922L327.7 54.327L324.515 56.7469L333.305 55.0922ZM283.937 92.5999L283.333 91.8036L282.536 92.4086L283.937 92.5999ZM315.183 67.6051L314.578 66.8089L313.781 67.4138L315.183 67.6051ZM259.445 109.953L260.432 107.946L260.593 101.545L258.809 104.156C257.344 104.432 257.28 104.899 258.618 105.558L256.451 110.971L259.445 109.953ZM307.411 72.2535L306.998 70.0561L306.202 70.661L307.411 72.2535ZM253.457 111.99L254.828 107.181L254.605 103.582L252.248 110.397L253.457 111.99ZM266.389 100.909L266.771 98.1067L264.383 99.9216C265.062 101.917 265.73 102.247 266.389 100.909ZM249.667 113.613L250.402 103.009L248.266 113.422L249.667 113.613ZM301.615 72.8896L297.412 72.3157L296.424 74.3219C298.165 75.5111 299.895 75.0336 301.615 72.8896ZM243.68 115.651L246.007 103.836L251.932 91.7989L261.647 78.1382L268.017 73.2985L269.005 71.2923L262.283 83.9344L262.888 84.7306C267.262 80.57 269.97 76.4197 271.011 72.2799L274.005 71.2612L275.788 68.6501L277.986 68.2364C282.636 65.5408 284.09 63.5984 282.35 62.4092C277.976 66.5698 273.856 68.8621 269.992 69.2861L262.03 75.3358L253.685 84.1878L243.204 103.453L243.235 108.453L241.865 113.262L242.279 115.459L243.68 115.651ZM321.299 54.1668L317.287 52.1917L317.701 54.3892L306.3 54.2601L303.911 56.075L308.911 56.0439C310.1 54.3031 310.832 54.1652 311.108 55.6302C314.717 57.0745 318.114 56.5867 321.299 54.1668ZM305.757 63.4637L303.751 62.4761L302.158 63.686L305.757 63.4637ZM257.185 100.366L260.148 94.3478L259.543 93.5516C255.955 95.4406 254.702 97.6484 255.784 100.175L257.185 100.366ZM299.164 64.7047L298.559 63.9084L297.763 64.5134L299.164 64.7047ZM296.967 65.1183L296.362 64.3221L295.566 64.927L296.967 65.1183ZM294.769 65.532L292.763 64.5445L287.381 67.378L286.393 69.3842L294.769 65.532ZM311.077 50.6303C309.867 49.0378 307.468 49.1861 303.88 51.0751L302.287 52.285L311.077 50.6303ZM295.343 61.3284L294.738 60.5321L293.146 61.742L295.343 61.3284ZM262.697 86.1318L262.092 85.3356L259.703 87.1505L262.697 86.1318ZM299.516 56.9023L295.312 56.3285L293.72 57.5384C295.864 59.2584 297.796 59.0464 299.516 56.9023ZM292.35 62.347C292.074 60.882 291.341 61.0199 290.152 62.7607L288.751 62.5694C289.833 65.096 291.033 65.0219 292.35 62.347ZM285.183 67.7917L283.973 66.1992L276.807 71.6438L276.616 73.045L274.418 73.4587L271.042 77.2798L285.183 67.7917Z" fill="#0A0A0A"/>
<path opacity="0.996078" d="M382.287 566.698L379.167 563.417L380.826 540.806L376.529 525.233L366.979 501.092C364.341 492.881 363.992 484.983 365.932 477.398L375.027 460.441L377.046 479.629L393.028 508.93L395.461 530.315L390.953 545.043L383.818 555.488L381.778 565.201L382.287 566.698ZM385.048 528.18L384.763 514.581L382.757 513.594L383.171 515.791L382.375 516.396L378.078 500.823L376.676 500.631L377.121 507.829L383.011 522.192L383.233 525.791L385.048 528.18Z" fill="#0A0A0A"/>
<path opacity="0.996078" d="M265.888 567.221L262.799 568.94L262.675 548.941L258.409 538.367L251.754 529.608L244.655 513.652C242.809 506.264 242.598 499.098 244.021 492.156L250.934 478.112L260.075 468.655L262.273 468.242L263.165 466.936L260.74 495.152L262.395 503.942L272.964 531.077C274.702 538.213 274.711 545.113 272.993 551.777L265.888 567.221ZM263.266 531.537L254.512 506.791L254.481 501.791L252.475 500.803L253.142 511.599L259.032 525.963L263.266 531.537Z" fill="#0A0A0A"/>
<path opacity="0.996078" d="M326.045 367.043L325.535 365.546L326.143 350.642L329.074 339.624L327.097 359.336C328.356 360.222 328.26 360.922 326.81 361.438L326.045 367.043Z" fill="#0A0A0A"/>
<path opacity="0.996078" d="M313.18 356.724L312.671 355.227L314.938 317.712L315.447 319.209C316.974 328.933 316.866 338.434 315.124 347.711L313.945 351.119L313.18 356.724Z" fill="#0A0A0A"/>
<path opacity="0.996078" d="M330.253 336.217L330.126 331.917L329.777 324.019L331.083 324.911L331.799 327.507C329.922 328.012 329.694 328.813 331.114 329.911L330.253 336.217Z" fill="#0A0A0A"/>
<path opacity="0.996078" d="M326.784 325.038L326.466 322.14L326.339 317.84L326.848 319.337L326.784 325.038Z" fill="#0A0A0A"/>
<path opacity="0.996078" d="M396.027 267.406L392.141 269.731C395.262 267.778 396.515 265.57 395.9 263.107L393.974 258.919L392.493 261.928C393.913 263.026 393.684 263.828 391.807 264.333L390.199 263.043C390.719 265.159 389.663 266.799 387.03 267.962L385.709 264.571L384.339 269.379C387.338 271.454 387.115 273.089 383.669 274.283L381.074 275L381.694 278.296L380.197 278.805L379.481 276.21L382.555 271.99L380.549 271.003L382.366 257.691C382.061 255.746 383.25 254.006 385.934 252.469L388.356 239.954L387.846 238.457L389.152 239.349L389.279 243.648L386.825 251.163L391.507 248.234L394.152 239.318C392.8 238.419 392.895 237.719 394.439 237.216L395.331 235.91L396.158 240.305L398.545 254.191L396.554 255.703L398.369 258.092C396.252 258.612 396.225 259.678 398.289 261.292L396.027 267.406ZM395.153 255.512L396.936 252.901L395.313 249.111L391.523 250.734L393.529 251.722L392.542 253.728C391.204 253.07 390.673 253.473 390.949 254.938L395.153 255.512ZM386.968 257.963L386.363 257.166L385.567 257.771L386.968 257.963Z" fill="#0A0A0A"/>
<path opacity="0.996078" d="M323.169 322.761L321.275 323.573L319.922 315.181C320.912 313.508 321.745 313.503 322.422 315.165L323.169 322.761Z" fill="#0A0A0A"/>
<path opacity="0.996078" d="M379.915 249.506C374.053 254.463 368.867 256.728 364.357 256.303L360.839 253.325L362.335 252.816L376.125 251.13L379.31 248.71L379.915 249.506Z" fill="#0A0A0A"/>
<path opacity="0.996078" d="M377.304 247.723C374.295 250.595 371.599 251.178 369.215 249.473L365.107 248.198C364.049 249.672 363.147 249.311 362.4 247.115L359.184 244.535L354.424 234.965L357.02 234.248L356.51 232.752L353.294 230.172L353.581 228.07L359.538 221.033L364.124 218.804L366.926 219.187L368.71 216.575L370.207 216.066L367.596 214.282L368.392 213.677C371.345 214.699 374.094 217.215 376.639 221.226L376.957 224.124L371.735 220.557L377.689 229.22L379.088 245.111L377.304 247.723ZM375.696 246.433C377.543 243.354 377.257 240.223 374.837 237.038L364.041 237.705C364.72 239.701 365.389 240.03 366.048 238.692L373.659 240.445L371.27 242.26L364.869 242.1L369.072 242.674L363.276 243.31L362.48 243.915L368.498 246.877L375.696 246.433ZM375.634 236.433L376.016 233.63L373.819 234.044L375.634 236.433ZM373.819 234.044L372.609 232.451L359.615 233.532C358.15 233.808 358.288 234.541 360.029 235.73C364.021 234.372 367.821 234.415 371.43 235.859L373.819 234.044ZM376.399 230.828L368.534 220.477L361.942 221.718L361.146 222.323L363.948 222.705C364.224 224.17 365.827 224.627 368.757 224.075L369.775 227.069L358.374 226.94L357.195 230.347L359.998 230.73L358.788 229.137L362.387 228.915L370.794 230.063L372.004 231.655L376.399 230.828ZM363.245 238.31L362.64 237.514L361.844 238.119L363.245 238.31Z" fill="#0A0A0A"/>
<path opacity="0.996078" d="M358.514 249.439L355.616 249.757L354.406 248.164C350.28 242.843 349.282 237.949 351.415 233.483L352.72 234.375C352.535 238.869 354.031 243.593 357.208 248.547L358.514 249.439Z" fill="#0A0A0A"/>
<path opacity="0.996078" d="M417.153 191.073C415.052 194.26 413.556 194.769 412.662 192.601L408.554 191.327L410.72 185.913L420.674 178.351L421.899 182.444L420.72 185.851L418.523 186.265L417.153 191.073Z" fill="#0A0A0A"/>
<path opacity="0.996078" d="M406.77 193.938L404.572 194.352L403.187 196.66C401.514 195.671 401.509 194.837 403.171 194.16L406.325 186.741L407.933 188.031L405.464 193.046L406.77 193.938Z" fill="#0A0A0A"/>
<path opacity="0.996078" d="M387.055 207.661L381.323 202.596L380.113 201.004L371.675 194.856L367.138 188.884C368.537 186.649 369.975 187.44 371.453 191.257L389.811 200.543L394.508 200.114L392.82 202.025L390.224 202.741L383.999 198.679L386.833 204.062L383.616 201.482L387.055 207.661Z" fill="#0A0A0A"/>
<path opacity="0.996078" d="M348.55 223.101L346.257 224.215L349.92 218.292L358.679 211.637C358.106 209.561 359.163 207.921 361.849 206.718C364.137 208.077 364.344 209.175 362.469 210.014L362.278 211.415L348.741 221.699L348.55 223.101Z" fill="#0A0A0A"/>
<path opacity="0.996078" d="M382.567 193.489L379.064 193.011L369.829 187.468L372.027 187.054L380.848 190.399L382.567 193.489Z" fill="#0A0A0A"/>
<path opacity="0.996078" d="M406.646 173.939L401.167 177.473L408.463 160.627L408.336 156.328L410.12 153.717L410.725 154.513C409.022 155.137 409.128 156.103 411.043 157.411C411.118 163.131 409.653 168.64 406.646 173.939Z" fill="#0A0A0A"/>
<path opacity="0.996078" d="M428.336 156.203L427.826 154.707C423.999 148.237 422.228 142.048 422.511 136.139L420.727 138.75L419.995 133.655L422.001 134.642L423.387 132.334L426.029 139.118C424.152 139.623 423.924 140.424 425.344 141.522L428.591 149.102L428.336 156.203Z" fill="#0A0A0A"/>
<path opacity="0.996078" d="M393.492 181.42L383.205 183.584L384.702 183.075L387.983 179.954L380.18 179.603C377.01 180.169 374.198 178.12 371.742 173.455C367.314 164.762 366.297 156.535 368.688 148.774L370.663 144.761L380.792 133.298C384.192 133.144 387.201 134.625 389.82 137.742L384.438 140.575C383.865 138.499 382.798 138.472 381.237 140.495L377.447 142.119C372.901 146.494 370.83 151.207 371.235 156.258L375.883 164.029L376.871 162.023L374.451 158.838L374.118 153.44L379.867 145.304L382.064 144.89L380.855 143.298C384.282 141.196 387.413 140.91 390.249 142.439L389.231 139.446L393.944 141.516L392.861 144.223L390.663 144.637L391.969 145.529L395.28 147.408L396.172 146.103L399.086 148.285C397.209 148.79 396.981 149.591 398.401 150.689C400.407 151.676 401.203 151.071 400.79 148.874L399.867 145.18L403.178 147.059C406.056 153.161 406.459 158.926 404.386 164.352L393.492 181.42ZM389.05 174.747L387.84 173.155L382.84 173.186L381.217 169.396L378.223 170.415L373.606 167.643L374.433 172.038L376.853 175.223L382.267 177.39L389.05 174.747ZM399.148 158.284L398.734 156.087L397.938 156.692L399.148 158.284ZM399.531 155.482L399.117 153.284L398.321 153.889L399.531 155.482ZM397.142 157.297L397.716 153.093C396.633 150.567 395.498 150.174 394.308 151.914L395.932 155.704L397.142 157.297ZM381.791 165.192L378.766 161.211L379.18 163.409L381.791 165.192ZM393.321 153.921L392.907 151.723L392.111 152.328L393.321 153.921Z" fill="#0A0A0A"/>
<path opacity="0.996078" d="M374.924 186.736C371.98 187.048 369.4 185.03 367.187 180.684L365.628 171.193L367.538 172.882C368.312 177.317 370.775 181.935 374.924 186.736Z" fill="#0A0A0A"/>
<path opacity="0.996078" d="M422.891 149.037L420.28 147.253L419.197 149.96L415.998 134.18C418.527 133.431 418.151 131.833 414.869 129.387L414.551 126.488L417.066 128.973L422.891 149.037Z" fill="#0A0A0A"/>
<path opacity="0.996078" d="M367.712 184.681C365.837 187.613 364.133 187.023 362.601 182.913L361.551 174.919L360.245 174.027C361.475 172.34 362.579 172.966 363.557 175.907C363.255 178.815 364.64 181.74 367.712 184.681Z" fill="#0A0A0A"/>
<path opacity="0.996078" d="M410.296 149.816L408.401 150.627L406.937 140.436L403.721 137.856L403.307 135.659L400.394 133.477L402.289 132.665L407.129 139.035L407.925 138.43L405.091 133.048L402.48 131.264L401.748 126.168L409.295 133.621L410.28 147.316C408.618 147.993 408.623 148.826 410.296 149.816Z" fill="#0A0A0A"/>
<path opacity="0.996078" d="M411.588 132.507C410.197 133.983 408.488 132.56 406.462 128.239L405.539 124.545L407.545 125.532L402.291 116.965C404.548 117.511 406.66 119.464 408.628 122.826L411.588 132.507Z" fill="#0A0A0A"/>
<path opacity="0.996078" d="M400.689 180.976L399.384 180.084L400.18 179.479L400.689 180.976Z" fill="#939393"/>
</svg>
