<svg width="354" height="397" viewBox="0 0 354 397" fill="none" xmlns="http://www.w3.org/2000/svg">
<path opacity="0.996078" d="M187.311 395.953L185.762 395.636L182.517 386.257L182.223 368.767L187.991 354.777L191.277 341.085C189.351 340.82 189.024 340.054 190.295 338.786C189.503 336.558 190.259 333.916 192.563 330.858L190.519 316.399C188.18 316.049 188.186 314.706 190.536 312.368L188.023 305.72L188.072 308.636L187.304 313.966L189.233 326.626L187.983 328.791C190.115 329.098 190.275 330.153 188.465 331.956L187.661 345.348L186.027 350.178L184.795 348.312L186.465 335.42L183.755 317.113L182.206 316.796L183.367 334.786L179.965 346.678L176.465 352.741L175.697 358.071L174.697 359.803L173.514 360.852L177.903 336.25L176.755 329.237L174.974 325.322L174.961 314.345C172.969 314.195 172.408 314.834 173.278 316.26L172.974 328.786L171.925 327.603C170.331 327.298 170.148 326.615 171.376 325.554L170.278 321.456L171.265 308.747L169.716 308.43L171.35 303.6C169.754 299.83 169.772 295.799 171.404 291.506L169.422 290.939L169.02 297.636L167.02 301.1C167.285 306.641 165.728 312.671 162.35 319.188C161.099 327.088 161.852 334.451 164.608 341.277L162.827 337.361L158.85 325.25L159.654 311.858L166.056 294.769L169.092 281.511L167.882 260.606C165.013 260.643 164.696 262.192 166.931 265.253L165.494 281.743L161.86 290.037L161.092 295.368L157.092 302.296L156.226 301.796L164.297 271.815L163.418 260.338L162.235 261.387L162.199 269.449L156.163 287.903L155.297 287.403L157.735 269.181L157.691 251.258L155.093 249.758C156.67 248.359 156.426 247.448 154.361 247.026L154.807 258.253L152.905 267.547L147.271 279.305L145.003 287.234L147.395 307.09L146.346 305.907C144.752 305.602 144.569 304.919 145.797 303.858L141.637 291.064L142.307 279.903L144.075 272.841L148.075 265.913L147.526 263.864L145.343 266.645L145.709 268.011L141.709 274.939L139.673 286.466L138.441 284.6L137.843 279.636C140.872 273.455 142.262 267.715 142.013 262.413C142.674 256.867 142.015 251.676 140.036 246.838L138.987 245.655C141.145 245.516 141.296 244.255 139.437 241.874L138.071 242.24L135.326 231.995L135.898 215.004L137.398 212.406L138.117 204.161L136.934 205.21L131.398 222.798L134.487 253.449L131.219 263.109L130.353 262.609L130.79 247.851L127.166 226.128L133.604 200.978L132.725 189.501L131.542 190.55L131.506 198.612L121.488 219.963C119.562 219.698 119.235 218.932 120.506 217.664L120.274 214.066L125.676 198.71L123.917 175.755L124.976 146.922L123.293 148.837L120.587 171.523L119.355 169.657L122.945 143.44L120.963 142.873L115.025 167.157L112.695 161.193L118.669 128.846L117.008 111.722L124.41 92.9016L123.861 90.8525L122.312 90.5356L122.678 91.9016L115.678 104.026L114.812 103.526L120.25 80.1073L127.75 67.117L131.982 63.7868L131.616 62.4208L138.25 48.9304L141.482 47.3324L143.982 43.0022L151.08 36.708L184.682 25.5083L197.708 24.9462L215.796 29.616L217.462 31.7321L218.462 30L223.658 33L223.091 34.9821L224.524 33.5C236.901 41.2619 246.682 49.988 253.866 59.6782L267.163 95.6458L270.154 120.466C271.039 124.133 269.738 128.386 266.252 133.225L265.386 132.725C267.14 126.886 266.936 121.572 264.775 116.783C263.68 115.613 262.997 115.796 262.726 117.332C261.245 123.098 261.448 128.411 263.337 133.274C264.84 133.603 265.023 134.286 263.886 135.323L264.01 163.107L260.84 178.598L262.037 188.526L257.876 175.732L259.778 166.437L260.1 149.88C258.174 149.615 257.847 148.849 259.118 147.581L257.641 131.14C255.668 132.156 254.908 131.14 255.36 128.091C257.583 120.907 257.985 114.21 256.565 108.002L258.297 109.002L258.882 102.989C257.288 102.684 257.105 102.001 258.333 100.94L253.673 89.0119L255.905 89.1458L251.477 80.8157C253.147 80.8562 253.419 80.0512 252.294 78.4006L250.062 78.2667L250.629 76.2846L243.121 63.2894C243.392 61.7526 244.075 61.5696 245.17 62.7404L249.964 72.4365L251.147 71.3875L250.067 63.2583L235.313 47.8122L222.823 39.4462L219.908 39.4952C221.236 38.2608 220.765 37.4111 218.493 36.9462L216.761 35.9462C213.081 34.0527 209.816 33.7074 206.966 34.9103L197.806 30.7763C191.155 29.6303 184.93 30.0781 179.133 32.1195C178.668 34.3915 177.818 34.8632 176.584 33.5346L168.205 35.0478L161.923 38.9269C160.829 37.7561 160.146 37.9391 159.874 39.476C155.288 38.7527 151.434 40.7614 148.312 45.5022L149.178 46.0022C153.553 42.2924 158.378 40.2673 163.655 39.9269L162.472 40.976L150.544 45.6362L148.044 49.9663L139.446 58.8586L137.312 64.5548L132.696 70.55L135.044 72.483L132.196 71.416L130.629 75.1301L132.178 75.4471C127.768 81.7533 126.772 87.1444 129.191 91.6205L130.74 91.9375C129.309 88.4167 130.154 84.286 133.276 79.5452L140.191 72.5679L137.374 78.4471L136.374 80.1791L130.169 108.928L129.303 108.428L131.321 100.933C129.52 98.5845 128.237 98.8062 127.472 101.598L127.338 103.83L125.222 105.495C127.916 105.895 128.532 106.829 127.071 108.294L126.584 120.137L128.267 118.222L129.169 110.66L130.035 111.16L127.865 124.918C130.013 130.931 130.522 137.383 129.391 144.275C127.448 144.307 127.236 145.34 128.757 147.373L128.806 150.288L130.355 150.605L132.257 141.311L130.561 132.248C132.504 132.216 132.716 131.183 131.195 129.15L132.133 113.526L134.115 114.093L133.548 116.075L135.414 114.843L135.695 121.356L133.963 120.356L134.525 133.382L133.391 137.346L136.1 155.654L137.783 153.739L136.855 139.346L138.404 139.663L139.685 144.445L138.078 171.229L140.122 185.688L145.782 195.885L146.532 194.586L141.042 174.095L143.212 160.337L144.444 162.203C143.97 172.091 145.499 181.441 149.032 190.255L147.826 210.344L145.558 218.272L144.326 216.406C146.051 211.552 146.092 207.148 144.447 203.197L143.264 204.246L142.772 231.097L147.366 244.142L148.549 243.093L147.17 232.481L144.29 224.468L144.924 221.37L146.79 220.138C145.847 218.439 146.725 216.251 149.424 213.576L151.728 197.586L153.692 202.184L152.656 211.978L150.924 210.978C148.213 216.341 147.551 221.154 148.937 225.419L151.353 226.236L149.87 224.803L150.254 222.138L152.036 226.053L153.085 227.236L150.969 228.901L153.634 229.285L152.451 230.334L152 234.115L153.549 234.432L153.866 232.883L153.165 237.097C154.357 238.632 155.184 238.533 155.647 236.798L154.951 226.004L156 227.187L158.147 232.468L157.696 236.249L159.379 234.334L158.451 219.942L161.799 220.143L161.147 227.272L163.722 247.811C165.226 248.141 165.409 248.824 164.271 249.861L165.784 258.24L166.967 257.191L166.379 222.21L167.928 222.527L169.16 224.393L169.294 222.161L166.647 217.746L166.049 212.782L167.915 211.55L165.951 206.952L167.5 207.269L170.879 214.416L169.879 216.148L172.124 227.259L174.356 227.393L172.083 250.329L173.931 253.128L171.565 255.227L173.663 257.593L172.645 263.356L174.494 266.155L174.726 269.753L175.239 279.864L177.922 276.217L177.824 270.387L180.092 262.459L182.503 222.282L183.735 224.148L183.529 242.504L181.811 252.481L184.494 248.834L185.762 242.638L186.994 244.504L186.543 248.285L188.226 246.37L191.065 221.452L193.967 210.425L193.369 205.461L195.235 204.229L194.722 194.118C192.45 193.653 191.978 192.803 193.307 191.569L194.356 192.752L197.869 197.667C196.598 198.935 196.926 199.701 198.851 199.966L197.601 202.131L198.016 206.412L199.797 210.327L198.86 225.952L195.708 237.411C198.311 237.836 198.138 239.468 195.19 242.308L195.136 254.401C196.328 255.936 197.155 255.837 197.618 254.102L198.056 239.344L202.86 219.023L198.869 195.935L203.029 208.729L203.19 228.452C200.525 234.534 200.046 240.031 201.752 244.942L199.752 248.406L203.461 264.981L204.876 267.53L204.242 270.628L203.059 271.678L204.474 274.227C202.689 279.585 202.771 284.444 204.72 288.802L205.903 287.753L205.572 278.325L206.822 276.16C204.897 275.895 204.57 275.128 205.84 273.861L206.742 266.298L202.484 247.674L205.288 230.818L207.154 229.586L208.056 222.023L212.958 207.533C212.75 198.56 213.907 189.221 216.431 179.516L218.413 180.083L217.86 193.043L215.762 190.677L214.878 194.208L216.726 197.007L215.618 222.925L213.448 236.684L214.693 249.527L215.876 248.478L218.435 217.046C216.403 216.566 216.553 215.305 218.886 213.265L218.422 206.069L224.262 175.954L225.494 177.82L224.69 191.212L226.154 196.677L224.765 216.082L226.448 214.167C229.061 202.974 230.309 192.147 230.19 181.686L235.628 158.268L236.494 158.768L232.824 175.124L231.662 213.136C232.854 214.671 233.682 214.571 234.144 212.837L235.412 206.641L234.484 192.248L235.69 172.16L238.208 163.799C240.133 164.064 240.461 164.83 239.19 166.098L239.502 179.557L242.35 180.624C240.492 176.241 240.183 171.444 241.422 166.232L245.056 157.937L245.922 158.437C246.778 163.089 245.721 168.252 242.752 173.928L243.533 179.575L245.216 177.66L245.35 175.428L246.216 175.928L245.997 183.307L247.68 181.392L247.966 172.897C246.04 172.632 245.713 171.866 246.984 170.598L250.922 149.777L250.342 140.782L252.324 141.349L250.628 132.287L253.592 135.153L252.306 145.38C253.498 146.915 254.325 146.816 254.788 145.081C253.494 142.256 253.839 138.991 255.824 135.287L256.69 135.787L255.556 139.751L256.301 153.46C257.727 152.59 258.365 153.151 258.216 155.143L252.126 185.691L259.019 197.753L259.563 214.811L257.661 224.105L255.679 223.538L256.465 214.177L257.965 211.579L254.987 197.735L253.389 194.503L251.974 191.954L254.135 208.212L251.697 226.435L253.089 248.023L251.857 246.157L249.429 234.363L251.197 227.301L251.853 205.163L249.34 198.516L248.559 192.869L247.376 193.918L248.474 198.016L247.706 203.346L245.206 207.677L244.903 220.203L239.867 236.925L239.831 244.987L243.955 265.844L242.553 274.272L241.687 273.772L240.076 259.563C234.816 254.14 231.97 248.07 231.537 241.353L231.523 230.376L229.974 230.059L230.059 224.912L228.876 225.961L228.242 229.059L226.84 237.487L230.331 261.442L229.661 272.602L224.491 291.557L223.151 313.877L221.602 313.56L220.187 311.011C218.722 317.016 218.986 322.558 220.981 327.636L219.566 325.086L218.151 322.537L217.723 307.279L221.777 288.258C219.851 287.993 219.524 287.226 220.795 285.959L218.818 270.383L217.635 271.432L218.661 291.655L214.759 304.413L213.759 306.145L212.625 310.109L211.759 309.609L214.099 285.557L212.755 266.883L211.072 268.798C209.789 274.755 210.054 280.296 211.867 285.423L208.259 315.671L210.981 344.956L205.945 361.678L202.945 366.875L202.079 366.375C204.729 360.052 205.147 354.328 203.334 349.201L202.151 350.25L200.633 356.879C199.441 355.344 198.614 355.444 198.151 357.178L199.383 359.044L200.566 357.995L195.481 371.803L194.615 371.303C197.476 363.948 198.106 357.191 196.504 351.031C195.236 349.761 194.47 350.088 194.205 352.013C196.131 352.278 196.458 353.045 195.187 354.312L193.285 363.607L190.419 366.571L187.651 375.365L185.785 376.597C184.199 383.61 184.708 390.063 187.311 395.953ZM187.535 373.566L188.169 370.468L185.937 370.334L185.303 373.432L187.535 373.566ZM196.205 348.549L195.473 345.817L193.973 348.415C195.372 349.993 196.116 350.037 196.205 348.549ZM200.339 339.389L196.42 300.176L198.153 301.176L198.786 298.078C198.477 293.281 196.635 289.138 193.26 285.65C195.106 279.787 194.841 274.246 192.466 269.026L194.404 251.669L192.44 247.071L189.002 267.026L190.662 284.15L193.492 289.248L194.456 295.578L193.09 295.944L193.59 295.078L192.724 294.578C190.814 296.554 191.346 297.632 194.322 297.81L193.054 304.006L198.973 339.755L200.339 339.389ZM194.143 338.121L194.411 333.657C195.988 332.258 195.744 331.348 193.679 330.925L192.277 339.353L194.143 338.121ZM203.081 308.64L201.349 307.64L201.215 309.872L203.081 308.64ZM222.715 272.633L223.117 265.937L221.153 261.339L220.849 273.865L222.715 272.633ZM205.251 294.882L204.519 292.15L203.519 293.882L205.251 294.882ZM219.019 267.035L218.153 266.535L217.653 267.401L219.019 267.035ZM205.519 290.418L204.653 289.918L204.153 290.784L205.519 290.418ZM199.822 288.284L197.394 276.49L196.028 276.856L196.26 280.454L198.358 282.82L198.09 287.284L199.822 288.284ZM217.456 255.741L216.59 255.241L216.09 256.107L217.456 255.741ZM189.456 304.238L188.59 303.738L188.09 304.604L189.456 304.238ZM183.956 313.765L182.224 312.765L182.09 314.997L183.956 313.765ZM218.09 252.643L217.224 252.143L216.724 253.009L218.09 252.643ZM219.224 248.679L218.992 245.081C220.57 243.682 220.326 242.771 218.26 242.349L216.126 248.045L216.858 250.777L219.224 248.679ZM231.626 221.198L230.394 219.332L229.894 220.198L231.626 221.198ZM208.76 258.803L206.966 243.911L204.734 243.777L206.162 257.303L208.76 258.803ZM251.394 182.959L250.93 175.763C253.174 173.209 253.597 171.144 252.198 169.567C250.133 169.144 250.511 167.823 253.332 165.603L251.6 164.603L249.662 181.959L251.394 182.959ZM186.894 294.676L187.528 291.578L184.43 290.944L183.198 289.078L183.43 292.676L186.894 294.676ZM225.028 226.626L224.162 226.126L223.662 226.992L225.028 226.626ZM246.662 187.155L245.43 185.289L244.93 186.155L246.662 187.155ZM221.162 231.322L219.43 230.322L219.296 232.554L221.162 231.322ZM226.796 219.564L225.064 218.564C223.153 220.54 222.609 222.15 223.43 223.394L226.796 219.564ZM199.296 267.195L198.698 262.231L197.332 262.597L197.564 266.195L199.296 267.195ZM225.564 217.698L224.698 217.198L224.198 218.064L225.564 217.698ZM179.564 297.372L177.966 294.14L177.332 297.238C178.731 298.816 179.475 298.86 179.564 297.372ZM242.698 186.021L242.832 183.789L241.6 181.923L240.966 185.021L242.698 186.021ZM223.198 219.796L222.332 219.296L221.332 221.028L223.198 219.796ZM189.198 278.686L188.466 275.954L187.466 277.686L189.198 278.686ZM182.832 287.712C180.767 287.289 180.356 286.667 181.6 285.846L178.904 278.516L179.234 287.944C181.21 289.855 182.409 289.778 182.832 287.712ZM198.1 257.267L196.368 256.267L196.234 258.499L198.1 257.267ZM208.234 237.715L207.368 237.215L206.868 238.081L208.234 237.715ZM175.636 288.176L173.904 287.176L173.27 290.274L175.636 288.176ZM184.27 271.222L182.538 270.222L182.404 272.454L184.27 271.222ZM180.27 278.15L180.904 275.052L178.672 274.918L178.538 277.15L180.27 278.15ZM183.172 267.124L180.94 266.99C182.338 268.567 183.082 268.612 183.172 267.124ZM174.172 282.712L172.94 280.846L172.44 281.712L174.172 282.712ZM184.074 259.561L183.208 259.061L182.708 259.928L184.074 259.561ZM258.208 129.158L256.476 128.158L256.342 130.39L258.208 129.158ZM182.976 255.463L181.744 253.597L181.61 255.829L182.976 255.463ZM261.012 112.301L259.413 109.069L259.279 111.301L258.047 109.435L257.047 111.167C259.268 113.989 260.589 114.367 261.012 112.301ZM196.913 217.322L195.681 215.456L195.181 216.322L196.913 217.322ZM262.315 98.0429C260.917 96.4656 260.006 96.7096 259.583 98.775C260.982 100.352 261.893 100.108 262.315 98.0429ZM168.815 259.99L168.449 258.624C170.36 256.648 170.283 255.448 168.217 255.026L167.083 258.99L168.815 259.99ZM261.083 96.1769L258.021 87.4808C256.533 87.3915 256.578 86.6474 258.155 85.2487C256.756 83.6714 255.846 83.9154 255.423 85.9808L258.485 94.6769C258.973 96.4983 259.839 96.9983 261.083 96.1769ZM169.923 234.071L170.057 231.839L168.093 227.241L168.557 234.437L169.923 234.071ZM255.459 77.9186L252.531 66.9904L251.165 67.3564L252.861 76.4186L255.459 77.9186ZM148.093 261.882L147.227 261.382L146.727 262.248L148.093 261.882ZM169.263 215.215L168.031 213.349L167.897 215.581L169.263 215.215ZM146.514 198.617L145.282 196.751L145.148 198.983L146.514 198.617ZM140.952 194.251L140.854 188.42L135.096 172.394L133.729 172.76L139.22 193.251L138.72 194.117C140.119 195.694 140.863 195.739 140.952 194.251ZM223.756 38.8301C222.69 36.6754 221.946 36.6308 221.524 38.6962L223.756 38.8301ZM136.596 169.796L135.729 169.296L135.229 170.162L136.596 169.796ZM134.729 171.028L134.667 157.136L132.703 152.538L131.667 162.332L133.363 171.394L134.729 171.028ZM133.703 150.806L132.471 148.94L132.337 151.172L133.703 150.806ZM125.945 138.244L125.079 137.744L124.579 138.61L125.945 138.244ZM126.579 135.145L123.481 134.512L124.713 136.378L126.579 135.145ZM134.713 119.057L133.981 116.325L132.481 118.923C133.879 120.5 134.624 120.545 134.713 119.057ZM126.347 131.547C124.037 130.214 123.415 130.625 124.481 132.779L126.347 131.547ZM126.481 129.315C124.838 126.827 125.017 123.851 127.017 120.387L124.651 122.485L124.749 128.315L126.481 129.315ZM123.053 119.253L123.954 111.691L122.722 109.825L120.821 119.119C122.219 120.697 122.963 120.741 123.053 119.253ZM133.356 89.4064L134.124 84.0763L133.258 83.5763C131.014 86.1297 130.592 88.1951 131.99 89.7724L133.356 89.4064ZM147.062 47.6673C146.241 46.4233 145.163 46.956 143.83 49.2654L141.464 51.3634L141.83 52.7295L147.062 47.6673ZM129.33 74.3801L128.464 73.8801L127.464 75.6122L129.33 74.3801ZM125.964 78.2102L125.098 77.7102L124.098 79.4423L125.964 78.2102Z" fill="#1A1A1A"/>
<path opacity="0.996078" d="M234.151 294.825L232.968 295.874L235.089 279.2L236.321 281.066L234.151 294.825Z" fill="#1A1A1A"/>
<path opacity="0.996078" d="M242.324 158.67L240.726 155.438L240.311 151.157L238.896 148.608L244.369 117.127L245.235 117.627C246.502 122.9 245.856 128.685 243.297 134.983L242.114 136.032C243.618 136.362 243.801 137.045 242.663 138.081L240.994 150.974L242.324 158.67Z" fill="#1A1A1A"/>
<path opacity="0.996078" d="M207.592 214.827L206.409 215.876L209.298 193.873L207.601 184.811L209.016 187.36C210.52 187.689 210.703 188.372 209.565 189.409L210.396 197.971L207.592 214.827Z" fill="#1A1A1A"/>
<path opacity="0.996078" d="M227.065 159.098L223.382 164.477L225.016 159.647L213.503 168.588L211.003 172.918L210.833 183.213L206.869 182.079C206.146 173.732 207.881 164.726 212.075 155.062L214.075 151.598L215.941 150.366L217.227 140.138L214.562 139.755L214.647 134.607L218.647 127.679L220.933 115.72L218.085 114.653L218.183 120.483C215.879 123.541 215.123 126.183 215.915 128.411L214.183 127.411L212.049 133.107L212.928 144.585L214.794 143.353L214.477 144.902C212.534 144.934 212.322 145.967 213.843 148L212.209 152.83L210.343 154.062L210.209 156.294L209.209 158.026C206.001 159.715 203.257 163.135 200.977 168.284L200.307 179.445L198.758 179.128L196.062 171.797L194.196 173.03L192.415 169.114L194.067 160.253C192.224 158.112 190.73 159.366 189.585 164.016L183.183 181.105L183.745 194.131L182.33 191.582L180.781 191.265L182.441 208.389L181.209 206.523L181.129 196.662L176.719 184.301C177.856 183.264 177.673 182.581 176.17 182.252L175.853 183.801L171.165 205.921L169.317 203.121L172.451 195.693L174.308 168.476C173.116 166.941 172.289 167.04 171.826 168.775L169.924 178.069L169.451 200.889L167.902 200.572L167.388 190.461L170.246 161.512L166.751 152.565L165.019 151.565L159.725 142.735L157.542 145.516C159.463 152.322 159.927 159.518 158.934 167.105L157.885 165.922L155.738 160.641C157.066 159.406 156.595 158.557 154.323 158.092L152.176 152.811L148.6 134.003L139.677 118.459L143.561 109.732L141.669 89.0093L142.205 80.0811L145.839 71.7869L147.205 71.4209L151.705 63.6266L159.803 55.6004L162.803 50.4042L167.535 46.208L182.878 40.6327L185.842 43.4988L186.342 42.6327L185.293 41.4497L207.797 43.4725L218.689 48.6065L233.143 61.5706L241.268 75.4988L244.013 85.744L244.075 99.6363L242.575 102.234L243.173 107.198C240.644 112.512 239.754 117.387 240.503 121.823C239.22 127.779 235.842 134.297 230.369 141.375L227.065 159.098ZM222.753 152.567L224.057 138.308L220.361 132.71L219.593 138.04L217.727 139.272L219.459 140.272C221.59 144.582 222.066 149.091 220.887 153.799L222.753 152.567ZM215.655 158.861L212.923 159.593C214.322 161.17 215.233 160.926 215.655 158.861ZM230.057 127.916L229.325 125.184L228.325 126.916L230.057 127.916ZM229.057 129.648L228.191 129.148L227.691 130.014L229.057 129.648ZM240.191 108.363L238.459 107.363L238.325 109.596L240.191 108.363ZM231.691 123.086L230.825 122.586L230.325 123.452L231.691 123.086ZM242.459 100.435L241.593 99.9353L241.093 100.801L242.459 100.435ZM224.459 131.612L224.593 129.38L222.129 125.648L221.629 126.514C223.694 126.937 223.772 128.136 221.861 130.112C221.438 132.178 222.304 132.678 224.459 131.612ZM229.093 121.586L228.227 121.086L227.727 121.952L229.093 121.586ZM234.727 109.828L233.995 107.096L232.495 109.694C233.894 111.271 234.638 111.316 234.727 109.828ZM208.861 152.629L207.995 152.129L207.495 152.995L208.861 152.629ZM234.495 106.23L233.263 104.363L233.129 106.596L234.495 106.23ZM228.495 116.622L226.763 115.622L226.629 117.854L228.495 116.622ZM223.995 124.416L225.629 119.586L224.031 116.354L222.263 123.416L223.995 124.416ZM204.129 156.825C203.308 155.581 202.23 156.114 200.897 158.423L200.031 157.923L202.897 154.959L204.531 150.129L207.397 147.165L206.165 145.299C208.498 141.257 208.888 137.249 207.335 133.272L203.969 137.103L204.201 140.701L202.969 138.835L201.469 141.433L203.067 144.665L199.835 146.263L201.799 150.861L199.933 152.093L199.665 156.557L197.165 160.887C198.563 162.465 199.308 162.509 199.397 161.021L200.263 161.521L204.129 156.825ZM228.031 109.426L226.799 107.56L226.665 109.792L228.031 109.426ZM231.665 101.131L232.335 89.9712L228.272 83.0071L227.138 86.9712C225.561 88.3699 225.805 89.2806 227.871 89.7032L228.871 87.9712L228.603 92.4353L226.737 93.6673C224.159 96.7981 224.147 99.4855 226.701 101.73L225.201 104.328L226.433 106.194L229.067 99.6314L228.469 94.6673L230.567 97.0334L229.933 100.131L231.665 101.131ZM221.933 113.988L220.335 110.756L221.701 110.39L223.835 104.694L222.103 103.694L222.603 102.828L221.737 102.328L217.603 111.488L220.567 114.354L221.933 113.988ZM197.933 155.557L197.067 155.057L196.567 155.923L197.933 155.557ZM196.933 157.289C195.534 155.712 194.623 155.956 194.201 158.021C195.599 159.599 196.51 159.355 196.933 157.289ZM225.835 101.23L224.603 99.3635L224.469 101.596L225.835 101.23ZM215.335 119.416L213.603 118.416L213.469 120.648L215.335 119.416ZM210.835 127.21L208.737 124.844L212.103 121.014L207.638 120.746L209.005 120.38L210.272 114.184L208.674 110.952L207.808 110.452C207.719 111.94 206.975 111.895 205.576 110.318L205.612 102.256L207.112 99.6577L206.344 104.988L207.576 106.854L209.076 104.256L209.478 97.5596L208.282 87.6314C206.794 87.5421 206.672 87.0868 207.916 86.2654L206.318 83.0334L205.684 86.1314C204.44 86.9528 204.562 87.4082 206.05 87.4975L205.05 89.2295L202.514 101.622C200.603 103.598 200.681 104.797 202.746 105.22L203.746 103.488C204.478 106.22 203.556 109.151 200.978 112.282L202.21 114.148L202.442 117.746L204.54 120.112L202.808 119.112C201.231 120.511 201.475 121.422 203.54 121.844L201.54 125.308L204.005 129.04C202.76 129.862 203.171 130.484 205.237 130.906L204.237 132.638L205.603 132.272L206.603 130.54L210.835 127.21ZM199.469 144.897L200.103 141.799L197.871 141.665L197.237 144.763C198.635 146.34 199.379 146.385 199.469 144.897ZM184.969 170.012C183.903 167.857 184.948 165.381 188.103 162.583L189.138 152.789L186.54 151.289L183.844 143.959C184.267 141.894 183.068 141.971 180.246 144.191L180.112 146.423C182.178 146.846 182.422 147.756 180.844 149.155L183.174 155.119C183.329 157.518 184.028 158.307 185.272 157.485L185.871 162.449C183.293 165.58 182.371 168.512 183.103 171.244L184.969 170.012ZM181.469 176.074L179.237 175.94C180.635 177.517 181.379 177.562 181.469 176.074ZM236.237 77.2129C234.261 75.3022 233.061 75.3795 232.638 77.4449L233.871 79.3109L236.237 77.2129ZM219.237 106.658L219.871 103.56L217.638 103.426L217.505 105.658L219.237 106.658ZM218.237 108.39L217.371 107.89L216.871 108.756L218.237 108.39ZM195.737 147.361L199.54 128.772L201.505 133.371L202.871 133.005L200.54 127.04C201.63 123.82 201.231 120.511 199.344 117.112L197.978 117.478L198.21 121.076C196.966 121.898 197.377 122.52 199.442 122.942L198.808 126.04L195.942 129.005C196.764 130.249 196.142 130.659 194.076 130.237L195.576 127.638L193.246 121.674L193.014 118.076L197.38 112.514C197.803 110.449 197.103 109.66 195.282 110.148L196.282 108.416L196.416 106.184C198.481 106.607 198.725 107.517 197.148 108.916L199.38 109.05L200.818 92.5596L198.854 87.9616L196.488 90.0596L197.488 88.3276L198.488 86.5955C197 86.5062 197.044 85.7622 198.622 84.3635L197.39 82.4975L196.756 85.5955L193.39 89.4257L197.184 100.854L195.818 101.22L196.318 100.354L195.086 98.4879L194.452 101.586C191.631 103.806 191.541 105.294 194.184 106.05L189.318 112.478L191.05 113.478C190.961 114.966 190.217 114.922 188.818 113.344L186.89 100.684C187.312 98.6186 188.223 98.3746 189.622 99.952L188.854 105.282C187.61 106.103 187.732 106.559 189.22 106.648C189.708 108.469 190.574 108.969 191.818 108.148C193.395 106.749 193.151 105.839 191.086 105.416L192.586 102.818L190.988 99.5859L191.622 96.4879L189.256 98.5859L183.06 97.318L184.426 96.952L186.06 92.1218L183.828 91.9879L183.694 94.2199L179.828 98.9161L184.756 106.38L186.452 115.442L187.684 117.308L185.818 118.54C187.217 120.118 188.127 119.874 188.55 117.808L189.782 119.674C191.847 120.097 192.091 121.008 190.514 122.406C190.336 125.383 191.035 126.171 192.612 124.772C194.011 126.35 193.8 127.383 191.978 127.871L193.076 131.969L195.54 135.701L194.772 141.031L193.906 140.531C195.484 139.132 195.24 138.221 193.174 137.799L193.04 140.031C191.796 140.852 192.496 141.641 195.138 142.397L193.505 147.227C191.594 149.203 191.383 150.236 192.871 150.325L193.371 149.459L195.737 147.361ZM184.505 162.815L184.772 158.351L182.772 161.815L184.505 162.815ZM220.138 99.0955L220.308 88.8013L223.772 90.8013L222.54 88.9353L221.576 82.6052L219.344 82.4712L217.38 77.8731L217.478 83.7032L215.746 82.7032L216.514 77.3731L211.818 73.5071L211.684 75.7391L213.282 78.9712L212.514 84.3013L214.38 83.0693L216.344 87.6673C215.1 88.4887 215.222 88.9441 216.71 89.0334L216.21 89.8994L214.612 86.6673L213.246 87.0334L213.478 90.6314L215.576 92.9975L214.942 96.0955C217.585 96.8515 218.118 97.9289 216.54 99.3276L217.772 101.194L219.138 100.828L220.138 99.0955ZM229.272 81.275L228.04 79.409L227.54 80.275L229.272 81.275ZM226.54 82.0071L224.808 81.0071L222.344 77.275L220.844 79.8731L222.942 82.2391C224.918 84.1498 226.118 84.0725 226.54 82.0071ZM226.442 76.177C225.044 74.5996 224.133 74.8436 223.71 76.909C225.109 78.4864 226.02 78.2423 226.442 76.177ZM186.076 144.093L184.612 138.629C186.946 134.587 187.291 131.323 185.648 128.835C184.827 127.591 184.205 128.001 183.782 130.067L182.782 131.799L182.148 134.897L181.148 136.629L184.344 143.093L186.076 144.093ZM222.478 75.043L221.246 73.177L220.746 74.043L222.478 75.043ZM220.112 77.1411C220.291 74.165 218.648 71.677 215.184 69.677L217.55 67.5789C215.574 65.6682 214.375 65.7456 213.952 67.8109L213.452 68.677L211.854 65.4449L209.488 67.543L217.514 75.6411L220.112 77.1411ZM199.112 113.514L198.246 113.014L197.746 113.88L199.112 113.514ZM181.746 141.593L180.88 141.093L180.38 141.959L181.746 141.593ZM188.282 122.272L187.55 119.54L186.05 122.138C187.449 123.716 188.193 123.76 188.282 122.272ZM211.416 80.2032L211.184 76.6052L208.854 70.6411L208.72 72.8731C207.476 73.6945 207.598 74.1498 209.086 74.2391L209.184 80.0693C210.583 81.6466 211.327 81.6913 211.416 80.2032ZM202.916 94.9257L201.684 93.0596L201.05 96.1577L202.916 94.9257ZM185.916 124.371L184.184 123.371L182.086 121.005L184.452 118.906L184.586 116.674L185.586 114.942L183.988 111.71L183.854 113.942L180.988 116.906L180.586 123.603L177.72 126.567L177.318 133.263L176.318 134.995L174.684 139.825L179.416 135.629C181.327 133.653 181.249 132.453 179.184 132.031C181.761 128.9 182.684 125.969 181.952 123.237L183.184 125.103C184.583 126.68 185.493 126.436 185.916 124.371ZM172.05 146.387L171.318 143.655L170.318 145.387L172.05 146.387ZM203.184 90.4616L200.488 83.1314L199.488 84.8635L201.318 91.6936L203.184 90.4616ZM185.184 121.638L184.452 118.906L183.452 120.638L185.184 121.638ZM222.318 55.3206L221.586 52.5885C220.765 51.3445 220.143 51.7552 219.72 53.8206L222.318 55.3206ZM204.818 85.6314L203.586 83.7654L203.452 85.9975L204.818 85.6314ZM173.318 140.191L170.488 135.093L168.122 137.191L171.086 140.057C172.485 141.634 173.229 141.679 173.318 140.191ZM205.086 81.1673L203.854 79.3013L203.354 80.1673L205.086 81.1673ZM174.72 131.763L173.854 131.263L173.354 132.129L174.72 131.763ZM213.854 61.9808C211.211 61.2248 210.512 60.4362 211.756 59.6148L210.158 56.3827L208.524 61.2129L209.89 60.8468L211.988 63.2129L213.854 61.9808ZM176.854 126.067L178.658 110.942L177.56 106.844L178.926 106.478L179.06 104.246C180.97 102.27 180.149 101.026 176.596 100.514L175.096 103.112L174.194 110.674L171.096 110.04L171.694 115.005C170.45 115.826 170.86 116.448 172.926 116.871L173.926 115.138L175.256 122.835L172.658 121.335L172.524 123.567C174.589 123.989 174.833 124.9 173.256 126.299C174.899 128.787 176.098 128.709 176.854 126.067ZM213.988 59.7488L213.256 57.0167L212.256 58.7488L213.988 59.7488ZM206.39 66.909L205.658 64.177L204.658 65.909L206.39 66.909ZM204.024 69.0071L202.426 65.775L202.292 68.0071L204.024 69.0071ZM174.158 118.737L172.926 116.871L172.426 117.737L174.158 118.737ZM194.926 78.7654L196.194 72.5693C197.283 69.3492 195.929 67.0278 192.131 65.6052L190.997 69.5693L187.399 69.8013L187.631 73.3994L190.596 76.2654L189.328 82.4616L191.926 83.9616L194.926 78.7654ZM189.426 88.2917L188.56 87.7917L187.56 89.5237L189.426 88.2917ZM165.926 128.995L160.73 125.995L159.497 124.129L158.497 125.861L162.694 130.593L165.926 128.995ZM155.926 146.315L155.06 145.815L154.56 146.681L155.926 146.315ZM161.194 133.191C161.372 130.215 160.018 127.894 157.131 126.227C155.221 128.203 156.042 129.447 159.596 129.959L159.328 134.423L161.194 133.191ZM165.328 124.031C167.417 119.079 167.352 115.192 165.131 112.371C166.709 110.972 166.465 110.061 164.399 109.638L162.265 115.335L162.497 118.933L163.364 119.433L163.596 123.031L165.328 124.031ZM199.962 62.043C198.563 60.4656 197.652 60.7097 197.23 62.775C198.628 64.3524 199.539 64.1084 199.962 62.043ZM156.596 135.155L149.435 127.557L148.935 128.423C151.001 128.846 151.245 129.756 149.667 131.155L151.631 135.753C153.03 137.331 153.774 137.375 153.863 135.887L154.73 136.387L156.596 135.155ZM167.864 111.638L171.265 99.7462L170.533 97.0141L176.265 91.0859L175.935 81.6577L174.703 79.7917C172.459 82.3451 172.037 84.4105 173.435 85.9878L171.069 88.0859C169.825 88.9073 170.236 89.5293 172.301 89.952L168.301 96.8802L166.497 112.005L167.864 111.638ZM180.997 86.8898L181.399 80.1936L179.801 76.9616L177.765 88.4878L180.997 86.8898ZM195.631 59.543L196.265 56.4449L190.935 55.677L192.167 57.543L193.899 58.543L195.631 59.543ZM156.265 125.727L152.069 120.995L151.935 123.227L156.265 125.727ZM192.899 60.275L192.033 59.775L191.533 60.6411L192.899 60.275ZM191.399 62.8731L187.069 60.3731L188.301 62.2391L191.399 62.8731ZM156.899 122.629L155.667 120.763L155.167 121.629L156.899 122.629ZM153.399 128.691L152.667 125.959C151.846 124.715 151.224 125.126 150.801 127.191L153.399 128.691ZM182.533 76.2295L181.667 75.7295L181.167 76.5955L182.533 76.2295ZM161.533 112.603C160.135 111.025 159.224 111.269 158.801 113.335C160.2 114.912 161.111 114.668 161.533 112.603ZM190.667 60.1411L189.435 58.275L188.935 59.1411L190.667 60.1411ZM183.301 70.8994L180.203 70.2654L181.435 72.1314L183.301 70.8994ZM167.301 98.6122L165.569 97.6122L165.435 99.8443L167.301 98.6122ZM161.435 106.772L162.069 103.674L160.837 101.808L159.703 105.772L161.435 106.772ZM158.703 107.505L156.471 107.371C157.87 108.948 158.614 108.993 158.703 107.505ZM190.837 49.8468L189.971 49.3468L189.471 50.2129L190.837 49.8468ZM189.837 51.5789L188.105 50.5789L185.739 52.677L187.105 52.3109C188.504 53.8883 189.415 53.6443 189.837 51.5789ZM162.471 96.9782L162.239 93.3802L160.739 95.9782L162.471 96.9782ZM173.239 74.3276C172.174 72.1729 171.43 72.1282 171.007 74.1936L173.239 74.3276ZM169.739 80.3898L168.007 79.3898C165.608 79.5445 165.108 80.4105 166.507 81.9878C168.483 83.8985 169.561 83.3658 169.739 80.3898ZM160.239 96.8443L159.507 94.1122L158.507 95.8443L160.239 96.8443ZM159.239 98.5763L158.373 98.0763L157.873 98.9423L159.239 98.5763ZM163.873 88.55L161.275 87.05L163.543 79.1218L162.677 78.6218L159.409 88.2821C159.32 89.7701 159.897 90.1034 161.141 89.2821C162.54 90.8594 163.45 90.6154 163.873 88.55ZM171.007 74.1936C169.608 72.6163 168.531 73.149 167.775 75.7917C169.174 77.369 170.251 76.8364 171.007 74.1936ZM185.141 47.7129L182.543 46.2129C181.722 44.9688 181.1 45.3795 180.677 47.4449C182.498 46.9569 183.198 47.7456 182.775 49.8109L184.141 49.4449L185.141 47.7129ZM177.141 61.5693L176.275 61.0693L175.775 61.9353L177.141 61.5693ZM159.641 91.8802L157.909 90.8802L156.275 95.7103L159.641 91.8802ZM180.409 51.909L179.543 51.409L179.043 52.275L180.409 51.909ZM177.409 57.1052L176.543 56.6052L176.043 57.4712L177.409 57.1052ZM144.409 114.263L143.177 112.397L142.677 113.263L144.409 114.263ZM180.543 49.677L179.677 49.177L179.177 50.043L180.543 49.677ZM178.543 53.1411L177.311 51.275L176.811 52.1411L178.543 53.1411ZM152.043 99.0404L151.177 98.5404L150.677 99.4064L152.043 99.0404ZM153.677 94.2103L151.945 93.2103L151.811 95.4423L153.677 94.2103ZM182.311 42.6148L181.445 42.1148L180.945 42.9808L182.311 42.6148ZM175.811 53.8731C174.412 52.2958 173.502 52.5398 173.079 54.6052C174.478 56.1825 175.388 55.9385 175.811 53.8731ZM176.445 50.775L176.213 47.177L171.981 50.5071L176.445 50.775ZM153.579 88.3802L152.347 86.5141L151.847 87.3802L153.579 88.3802ZM170.615 50.8731L168.017 49.3731C167.594 51.4385 168.46 51.9385 170.615 50.8731Z" fill="#1A1A1A"/>
<path opacity="0.996078" d="M153.264 186.926L150.751 180.278C149.156 179.974 148.973 179.291 150.202 178.229L150.22 174.198L148.372 171.399L150.604 171.533L150.653 174.448L153.184 177.064L153.264 186.926Z" fill="#1A1A1A"/>
</svg>
