<svg width="298" height="420" viewBox="0 0 298 420" fill="none" xmlns="http://www.w3.org/2000/svg">
<g clip-path="url(#clip0_109_12004)">
<rect width="297.638" height="419.528" rx="10" fill="#032206"/>
<rect x="12" y="12" width="273" height="396" rx="9" stroke="#EFB85F" stroke-width="2"/>
<rect x="19.5" y="19.5" width="258" height="380" rx="6.5" stroke="#EFB85F"/>
<circle cx="76.7197" cy="259.47" r="1" fill="#EFB85F"/>
<circle cx="222.72" cy="204.47" r="1" fill="#EFB85F"/>
<circle cx="211.72" cy="129.47" r="1" fill="#EFB85F"/>
<circle cx="241.72" cy="96.4702" r="1" fill="#EFB85F"/>
<circle cx="125.72" cy="66.4702" r="1" fill="#EFB85F"/>
<circle cx="59.7197" cy="98.4702" r="1" fill="#EFB85F"/>
<circle cx="187.72" cy="97.4702" r="1" fill="#EFB85F"/>
<circle cx="50.7197" cy="187.47" r="1" fill="#EFB85F"/>
<circle cx="50.7197" cy="187.47" r="1" fill="#EFB85F"/>
<circle cx="50.7197" cy="187.47" r="1" fill="#EFB85F"/>
<circle cx="74.7197" cy="323.47" r="1" fill="#EFB85F"/>
<circle cx="164.72" cy="363.47" r="1" fill="#EFB85F"/>
<circle cx="66.7197" cy="376.47" r="1" fill="#EFB85F"/>
<circle cx="114.72" cy="393.47" r="1" fill="#EFB85F"/>
<circle cx="164.72" cy="395.47" r="1" fill="#EFB85F"/>
<circle cx="215.72" cy="105.47" r="1" fill="#EFB85F"/>
<circle cx="162.72" cy="91.4702" r="1" fill="#EFB85F"/>
<circle cx="162.72" cy="91.4702" r="1" fill="#EFB85F"/>
<circle cx="21.7197" cy="312.47" r="1" fill="#EFB85F"/>
<circle cx="141.72" cy="354.47" r="1" fill="#EFB85F"/>
<circle cx="55.7197" cy="307.47" r="1" fill="#EFB85F"/>
<circle cx="88.7197" cy="340.47" r="1" fill="#EFB85F"/>
<circle cx="88.7197" cy="340.47" r="1" fill="#EFB85F"/>
<circle cx="229.72" cy="381.47" r="1" fill="#EFB85F"/>
<circle cx="235.72" cy="337.47" r="1" fill="#EFB85F"/>
<circle cx="235.72" cy="337.47" r="1" fill="#EFB85F"/>
<circle cx="212.72" cy="155.47" r="1" fill="#EFB85F"/>
<circle cx="274.72" cy="186.47" r="1" fill="#EFB85F"/>
<path d="M198.72 343.47C198.72 344.022 198.272 344.47 197.72 344.47C197.167 344.47 196.72 344.022 196.72 343.47C196.72 342.918 197.167 342.47 197.72 342.47C198.272 342.47 198.72 342.918 198.72 343.47Z" fill="#EFB85F"/>
<path d="M229.22 361.47L230.416 363.445L232.72 364.47L230.416 365.495L229.22 367.47L228.024 365.495L225.72 364.47L228.024 363.445L229.22 361.47Z" fill="#EFB85F"/>
<circle cx="251.72" cy="319.47" r="1" fill="#EFB85F"/>
<circle cx="216.72" cy="147.47" r="1" fill="#EFB85F"/>
<circle cx="249.72" cy="180.47" r="1" fill="#EFB85F"/>
<circle cx="249.72" cy="180.47" r="1" fill="#EFB85F"/>
<circle cx="196.72" cy="372.47" r="1" fill="#EFB85F"/>
<circle cx="214.72" cy="266.47" r="1" fill="#EFB85F"/>
<circle cx="80.7197" cy="131.47" r="1" fill="#EFB85F"/>
<circle cx="22.7197" cy="157.47" r="1" fill="#EFB85F"/>
<circle cx="70.7197" cy="82.4702" r="1" fill="#EFB85F"/>
<circle cx="59.7197" cy="156.47" r="1" fill="#EFB85F"/>
<circle cx="40.7197" cy="79.4702" r="1" fill="#EFB85F"/>
<circle cx="74.7197" cy="74.4702" r="1" fill="#EFB85F"/>
<circle cx="38.7197" cy="143.47" r="1" fill="#EFB85F"/>
<circle cx="72.7197" cy="193.47" r="1" fill="#EFB85F"/>
<path d="M63.5269 139.266L67.8018 139.126L63.5269 138.986L64.8677 137.555L63.4362 138.896L63.2963 134.621L63.1565 138.896L61.725 137.555L63.0658 138.986L58.7909 139.126L63.0658 139.266L61.725 140.697L63.1565 139.357L63.2963 143.631L63.4362 139.357L64.8677 140.697L63.5269 139.266Z" fill="#EFB85F"/>
<path d="M33.4906 226.363L37.7655 226.223L33.4906 226.083L34.8314 224.652L33.3999 225.993L33.2601 221.718L33.1202 225.993L31.6888 224.652L33.0295 226.083L28.7546 226.223L33.0295 226.363L31.6888 227.794L33.1202 226.454L33.2601 230.728L33.3999 226.454L34.8314 227.794L33.4906 226.363Z" fill="#EFB85F"/>
<path d="M28.4845 291.436L32.7594 291.296L28.4845 291.156L29.8253 289.725L28.3938 291.066L28.254 286.791L28.1141 291.066L26.6826 289.725L28.0234 291.156L23.7485 291.296L28.0234 291.436L26.6826 292.867L28.1141 291.527L28.254 295.801L28.3938 291.527L29.8253 292.867L28.4845 291.436Z" fill="#EFB85F"/>
<path d="M45.5052 349.501L49.7801 349.361L45.5052 349.221L46.8459 347.79L45.4144 349.13L45.2746 344.856L45.1348 349.13L43.7033 347.79L45.044 349.221L40.7692 349.361L45.044 349.501L43.7033 350.932L45.1348 349.592L45.2746 353.866L45.4144 349.592L46.8459 350.932L45.5052 349.501Z" fill="#EFB85F"/>
<path d="M126.603 378.534L130.878 378.394L126.603 378.254L127.944 376.823L126.512 378.163L126.373 373.889L126.233 378.163L124.801 376.823L126.142 378.254L121.867 378.394L126.142 378.534L124.801 379.965L126.233 378.624L126.373 382.899L126.512 378.624L127.944 379.965L126.603 378.534Z" fill="#EFB85F"/>
<path d="M251.754 385.541L256.029 385.402L251.754 385.262L253.095 383.83L251.664 385.171L251.524 380.896L251.384 385.171L249.952 383.83L251.293 385.262L247.018 385.402L251.293 385.541L249.952 386.973L251.384 385.632L251.524 389.907L251.664 385.632L253.095 386.973L251.754 385.541Z" fill="#EFB85F"/>
<path d="M264.77 221.358L269.045 221.218L264.77 221.078L266.111 219.647L264.679 220.987L264.539 216.713L264.4 220.987L262.968 219.647L264.309 221.078L260.034 221.218L264.309 221.358L262.968 222.789L264.4 221.448L264.539 225.723L264.679 221.448L266.111 222.789L264.77 221.358Z" fill="#EFB85F"/>
<path d="M264.77 221.358L269.045 221.218L264.77 221.078L266.111 219.647L264.679 220.987L264.539 216.713L264.4 220.987L262.968 219.647L264.309 221.078L260.034 221.218L264.309 221.358L262.968 222.789L264.4 221.448L264.539 225.723L264.679 221.448L266.111 222.789L264.77 221.358Z" fill="#EFB85F"/>
<path d="M135.614 105.228L139.889 105.088L135.614 104.948L136.955 103.517L135.523 104.858L135.383 100.583L135.244 104.858L133.812 103.517L135.153 104.948L130.878 105.088L135.153 105.228L133.812 106.659L135.244 105.319L135.383 109.593L135.523 105.319L136.955 106.659L135.614 105.228Z" fill="#EFB85F"/>
<path d="M135.614 105.228L139.889 105.088L135.614 104.948L136.955 103.517L135.523 104.858L135.383 100.583L135.244 104.858L133.812 103.517L135.153 104.948L130.878 105.088L135.153 105.228L133.812 106.659L135.244 105.319L135.383 109.593L135.523 105.319L136.955 106.659L135.614 105.228Z" fill="#EFB85F"/>
<path d="M135.614 105.228L139.889 105.088L135.614 104.948L136.955 103.517L135.523 104.858L135.383 100.583L135.244 104.858L133.812 103.517L135.153 104.948L130.878 105.088L135.153 105.228L133.812 106.659L135.244 105.319L135.383 109.593L135.523 105.319L136.955 106.659L135.614 105.228Z" fill="#EFB85F"/>
<path d="M160.644 78.1977L164.919 78.0578L160.644 77.918L161.985 76.4866L160.553 77.8272L160.414 73.5527L160.274 77.8272L158.842 76.4866L160.183 77.918L155.908 78.0578L160.183 78.1977L158.842 79.629L160.274 78.2883L160.414 82.5628L160.553 78.2883L161.985 79.629L160.644 78.1977Z" fill="#EFB85F"/>
<path d="M193.684 334.484L197.959 334.344L193.684 334.205L195.025 332.773L193.593 334.114L193.454 329.839L193.314 334.114L191.882 332.773L193.223 334.205L188.948 334.344L193.223 334.484L191.882 335.916L193.314 334.575L193.454 338.849L193.593 334.575L195.025 335.916L193.684 334.484Z" fill="#EFB85F"/>
<path d="M193.684 334.484L197.959 334.344L193.684 334.205L195.025 332.773L193.593 334.114L193.454 329.839L193.314 334.114L191.882 332.773L193.223 334.205L188.948 334.344L193.223 334.484L191.882 335.916L193.314 334.575L193.454 338.849L193.593 334.575L195.025 335.916L193.684 334.484Z" fill="#EFB85F"/>
<path d="M237.737 272.415L242.012 272.275L237.737 272.135L239.078 270.704L237.647 272.045L237.507 267.77L237.367 272.045L235.935 270.704L237.276 272.135L233.001 272.275L237.276 272.415L235.935 273.846L237.367 272.506L237.507 276.78L237.647 272.506L239.078 273.846L237.737 272.415Z" fill="#EFB85F"/>
<path d="M250.71 134.026C250.749 133.699 250.814 132.924 250.866 132.312C250.918 131.604 251.009 131.155 251.113 131.114C251.204 131.074 251.62 131.291 252.023 131.591C252.439 131.903 252.802 132.121 252.841 132.08C252.867 132.053 252.62 131.618 252.296 131.128C251.88 130.529 251.737 130.23 251.854 130.189C251.945 130.162 252.607 130.067 253.322 129.972C255.609 129.7 255.596 129.55 253.283 129.291C252.478 129.196 251.802 129.074 251.776 129.033C251.737 128.979 251.984 128.584 252.296 128.149C252.607 127.7 252.841 127.305 252.802 127.264C252.763 127.237 252.374 127.469 251.945 127.781C251.503 128.108 251.113 128.312 251.061 128.258C250.996 128.19 250.892 127.373 250.801 126.435C250.567 123.986 250.463 123.999 250.216 126.489C250.125 127.428 250.021 128.244 249.969 128.285C249.93 128.326 249.541 128.108 249.099 127.795C248.67 127.469 248.293 127.237 248.254 127.278C248.228 127.305 248.423 127.673 248.709 128.081C248.995 128.475 249.229 128.883 249.229 128.965C249.229 129.06 248.67 129.183 247.76 129.291C245.434 129.55 245.434 129.7 247.773 129.985C248.657 130.094 249.229 130.23 249.229 130.312C249.229 130.393 248.995 130.802 248.709 131.196C248.098 132.053 248.046 132.271 248.54 131.931C248.748 131.808 249.125 131.536 249.398 131.346C250.021 130.924 250.073 130.992 250.19 132.461C250.359 134.624 250.554 135.196 250.71 134.026Z" fill="#EFB85F"/>
<path d="M36.4513 114.003C36.4903 113.677 36.5553 112.901 36.6073 112.289C36.6593 111.582 36.7502 111.133 36.8542 111.092C36.9452 111.051 37.361 111.269 37.7639 111.568C38.1797 111.881 38.5436 112.099 38.5826 112.058C38.6086 112.031 38.3617 111.595 38.0368 111.106C37.6209 110.507 37.478 110.208 37.5949 110.167C37.6859 110.14 38.3487 110.044 39.0634 109.949C41.3507 109.677 41.3377 109.527 39.0245 109.269C38.2187 109.174 37.543 109.051 37.517 109.011C37.478 108.956 37.7249 108.562 38.0368 108.126C38.3487 107.677 38.5826 107.283 38.5436 107.242C38.5046 107.215 38.1148 107.446 37.6859 107.759C37.2441 108.085 36.8542 108.29 36.8022 108.235C36.7372 108.167 36.6333 107.351 36.5423 106.412C36.3084 103.963 36.2044 103.977 35.9575 106.467C35.8665 107.405 35.7626 108.221 35.7106 108.262C35.6716 108.303 35.2817 108.085 34.8399 107.773C34.411 107.446 34.0341 107.215 33.9952 107.256C33.9692 107.283 34.1641 107.65 34.45 108.058C34.7359 108.453 34.9698 108.861 34.9698 108.943C34.9698 109.038 34.411 109.16 33.5013 109.269C31.1751 109.527 31.1751 109.677 33.5143 109.963C34.398 110.072 34.9698 110.208 34.9698 110.289C34.9698 110.371 34.7359 110.779 34.45 111.174C33.8392 112.031 33.7872 112.248 34.2811 111.908C34.489 111.786 34.8659 111.514 35.1388 111.323C35.7626 110.902 35.8145 110.97 35.9315 112.439C36.1004 114.602 36.2954 115.173 36.4513 114.003Z" fill="#EFB85F"/>
<path d="M268.732 306.218C268.771 305.892 268.836 305.116 268.888 304.504C268.94 303.797 269.031 303.348 269.135 303.307C269.226 303.266 269.642 303.484 270.045 303.783C270.46 304.096 270.824 304.314 270.863 304.273C270.889 304.246 270.642 303.81 270.317 303.32C269.902 302.722 269.759 302.423 269.876 302.382C269.967 302.355 270.629 302.259 271.344 302.164C273.631 301.892 273.618 301.742 271.305 301.484C270.499 301.389 269.824 301.266 269.798 301.225C269.759 301.171 270.006 300.776 270.317 300.341C270.629 299.892 270.863 299.498 270.824 299.457C270.785 299.43 270.395 299.661 269.967 299.974C269.525 300.3 269.135 300.504 269.083 300.45C269.018 300.382 268.914 299.566 268.823 298.627C268.589 296.178 268.485 296.192 268.238 298.681C268.147 299.62 268.043 300.436 267.991 300.477C267.952 300.518 267.562 300.3 267.121 299.987C266.692 299.661 266.315 299.43 266.276 299.47C266.25 299.498 266.445 299.865 266.731 300.273C267.017 300.668 267.25 301.076 267.25 301.157C267.25 301.253 266.692 301.375 265.782 301.484C263.456 301.742 263.456 301.892 265.795 302.178C266.679 302.287 267.25 302.423 267.25 302.504C267.25 302.586 267.017 302.994 266.731 303.388C266.12 304.246 266.068 304.463 266.562 304.123C266.77 304.001 267.146 303.729 267.419 303.538C268.043 303.116 268.095 303.184 268.212 304.654C268.381 306.817 268.576 307.388 268.732 306.218Z" fill="#EFB85F"/>
<path d="M54.473 275.183C54.512 274.857 54.577 274.081 54.629 273.469C54.681 272.762 54.7719 272.313 54.8759 272.272C54.9669 272.231 55.3827 272.449 55.7856 272.748C56.2015 273.061 56.5653 273.279 56.6043 273.238C56.6303 273.211 56.3834 272.775 56.0585 272.286C55.6427 271.687 55.4997 271.388 55.6167 271.347C55.7076 271.32 56.3704 271.225 57.0852 271.129C59.3724 270.857 59.3594 270.708 57.0462 270.449C56.2405 270.354 55.5647 270.232 55.5387 270.191C55.4997 270.136 55.7466 269.742 56.0585 269.306C56.3704 268.858 56.6043 268.463 56.5653 268.422C56.5264 268.395 56.1365 268.626 55.7076 268.939C55.2658 269.266 54.8759 269.47 54.8239 269.415C54.759 269.347 54.655 268.531 54.564 267.592C54.3301 265.144 54.2261 265.157 53.9792 267.647C53.8882 268.585 53.7843 269.402 53.7323 269.442C53.6933 269.483 53.3034 269.266 52.8616 268.953C52.4327 268.626 52.0559 268.395 52.0169 268.436C51.9909 268.463 52.1858 268.83 52.4717 269.238C52.7576 269.633 52.9916 270.041 52.9916 270.123C52.9916 270.218 52.4327 270.34 51.523 270.449C49.1968 270.708 49.1968 270.857 51.536 271.143C52.4197 271.252 52.9916 271.388 52.9916 271.47C52.9916 271.551 52.7576 271.959 52.4717 272.354C51.8609 273.211 51.809 273.428 52.3028 273.088C52.5107 272.966 52.8876 272.694 53.1605 272.503C53.7843 272.082 53.8363 272.15 53.9532 273.619C54.1222 275.782 54.3171 276.353 54.473 275.183Z" fill="#EFB85F"/>
<path d="M49.4671 396.319C49.5061 395.993 49.571 395.217 49.623 394.605C49.675 393.898 49.766 393.449 49.8699 393.408C49.9609 393.367 50.3768 393.585 50.7796 393.884C51.1955 394.197 51.5594 394.415 51.5983 394.374C51.6243 394.347 51.3774 393.911 51.0525 393.421C50.6367 392.823 50.4937 392.524 50.6107 392.483C50.7017 392.456 51.3644 392.36 52.0792 392.265C54.3664 391.993 54.3534 391.843 52.0402 391.585C51.2345 391.49 50.5587 391.367 50.5327 391.326C50.4937 391.272 50.7406 390.878 51.0525 390.442C51.3644 389.993 51.5983 389.599 51.5594 389.558C51.5204 389.531 51.1305 389.762 50.7017 390.075C50.2598 390.401 49.8699 390.605 49.8179 390.551C49.753 390.483 49.649 389.667 49.558 388.728C49.3241 386.279 49.2202 386.293 48.9732 388.782C48.8823 389.721 48.7783 390.537 48.7263 390.578C48.6873 390.619 48.2975 390.401 47.8556 390.088C47.4268 389.762 47.0499 389.531 47.0109 389.572C46.9849 389.599 47.1798 389.966 47.4657 390.374C47.7516 390.769 47.9856 391.177 47.9856 391.258C47.9856 391.354 47.4268 391.476 46.5171 391.585C44.1909 391.843 44.1909 391.993 46.5301 392.279C47.4138 392.388 47.9856 392.524 47.9856 392.605C47.9856 392.687 47.7516 393.095 47.4657 393.49C46.855 394.347 46.803 394.564 47.2968 394.224C47.5047 394.102 47.8816 393.83 48.1545 393.639C48.7783 393.217 48.8303 393.285 48.9472 394.755C49.1162 396.918 49.3111 397.489 49.4671 396.319Z" fill="#EFB85F"/>
<path d="M229.497 361.875L230.695 363.852L233.001 364.878L230.695 365.904L229.497 367.882L228.3 365.904L225.993 364.878L228.3 363.852L229.497 361.875Z" fill="#EFB85F"/>
<path d="M118.363 309.817L119.56 311.794L121.867 312.82L119.56 313.846L118.363 315.824L117.165 313.846L114.859 312.82L117.165 311.794L118.363 309.817Z" fill="#EFB85F"/>
<path d="M78.3147 230.729L79.512 232.705L81.8188 233.732L79.512 234.758L78.3147 236.735L77.1171 234.758L74.8103 233.732L77.1171 232.705L78.3147 230.729Z" fill="#EFB85F"/>
<path d="M27.253 185.678L28.4502 187.655L30.757 188.682L28.4502 189.708L27.253 191.685L26.0553 189.708L23.7485 188.682L26.0553 187.655L27.253 185.678Z" fill="#EFB85F"/>
<path d="M27.253 86.5669L28.4502 88.5439L30.757 89.5703L28.4502 90.5963L27.253 92.5736L26.0553 90.5963L23.7485 89.5703L26.0553 88.5439L27.253 86.5669Z" fill="#EFB85F"/>
<circle cx="118.72" cy="77.4702" r="1" fill="#EFB85F"/>
<path d="M114.546 112.001C114.585 111.674 114.65 110.899 114.702 110.287C114.754 109.579 114.845 109.13 114.949 109.09C115.04 109.049 115.455 109.266 115.858 109.566C116.274 109.879 116.638 110.096 116.677 110.055C116.703 110.028 116.456 109.593 116.131 109.103C115.715 108.505 115.572 108.205 115.689 108.164C115.78 108.137 116.443 108.042 117.158 107.947C119.445 107.675 119.432 107.525 117.119 107.267C116.313 107.171 115.637 107.049 115.611 107.008C115.572 106.954 115.819 106.559 116.131 106.124C116.443 105.675 116.677 105.28 116.638 105.24C116.599 105.212 116.209 105.444 115.78 105.757C115.338 106.083 114.949 106.287 114.897 106.233C114.832 106.165 114.728 105.348 114.637 104.41C114.403 101.961 114.299 101.975 114.052 104.464C113.961 105.403 113.857 106.219 113.805 106.26C113.766 106.301 113.376 106.083 112.934 105.77C112.505 105.444 112.128 105.212 112.09 105.253C112.064 105.28 112.258 105.648 112.544 106.056C112.83 106.45 113.064 106.858 113.064 106.94C113.064 107.035 112.505 107.158 111.596 107.267C109.269 107.525 109.269 107.675 111.609 107.96C112.492 108.069 113.064 108.205 113.064 108.287C113.064 108.369 112.83 108.777 112.544 109.171C111.934 110.028 111.882 110.246 112.375 109.906C112.583 109.783 112.96 109.511 113.233 109.321C113.857 108.899 113.909 108.967 114.026 110.436C114.195 112.599 114.39 113.171 114.546 112.001Z" fill="#EFB85F"/>
<path d="M105.347 84.5649L106.545 86.5419L108.851 87.5683L106.545 88.5943L105.347 90.5717L104.15 88.5943L101.843 87.5683L104.15 86.5419L105.347 84.5649Z" fill="#EFB85F"/>
<path d="M108.351 25.4988L109.548 27.4757L111.855 28.5021L109.548 29.5282L108.351 31.5055L107.153 29.5282L104.847 28.5021L107.153 27.4757L108.351 25.4988Z" fill="#EFB85F"/>
<path d="M256.53 70.5493L257.727 72.5263L260.034 73.5527L257.727 74.5787L256.53 76.556L255.332 74.5787L253.026 73.5527L255.332 72.5263L256.53 70.5493Z" fill="#EFB85F"/>
<path d="M238.007 298.805L238.759 302.464L242.012 303.309L238.759 304.155L238.007 307.815L237.255 304.155L234.003 303.309L237.255 302.464L238.007 298.805Z" fill="#EFB85F"/>
<path d="M57.7895 245.745L58.5416 249.404L61.7946 250.25L58.5416 251.096L57.7895 254.755L57.0375 251.096L53.7849 250.25L57.0375 249.404L57.7895 245.745Z" fill="#EFB85F"/>
<path d="M62.7955 339.851L63.5476 343.51L66.8006 344.355L63.5476 345.201L62.7955 348.861L62.0435 345.201L58.7909 344.355L62.0435 343.51L62.7955 339.851Z" fill="#EFB85F"/>
<path d="M261.035 338.85L261.787 342.509L265.04 343.354L261.787 344.2L261.035 347.86L260.283 344.2L257.03 343.354L260.283 342.509L261.035 338.85Z" fill="#EFB85F"/>
<path d="M160.914 327.837L161.666 331.496L164.919 332.342L161.666 333.188L160.914 336.847L160.162 333.188L156.909 332.342L160.162 331.496L160.914 327.837Z" fill="#EFB85F"/>
<path d="M254.027 237.736L254.779 241.396L258.032 242.241L254.779 243.087L254.027 246.746L253.275 243.087L250.022 242.241L253.275 241.396L254.027 237.736Z" fill="#EFB85F"/>
<path d="M254.027 237.736L254.779 241.396L258.032 242.241L254.779 243.087L254.027 246.746L253.275 243.087L250.022 242.241L253.275 241.396L254.027 237.736Z" fill="#EFB85F"/>
<path d="M115.86 343.855L116.612 347.514L119.865 348.36L116.612 349.206L115.86 352.865L115.108 349.206L111.855 348.36L115.108 347.514L115.86 343.855Z" fill="#EFB85F"/>
<circle cx="125.72" cy="66.4702" r="1" fill="#EFB85F"/>
<circle cx="164.72" cy="363.47" r="1" fill="#EFB85F"/>
<circle cx="143.72" cy="317.47" r="1" fill="#EFB85F"/>
<circle cx="161.72" cy="315.47" r="1" fill="#EFB85F"/>
<circle cx="120.72" cy="331.47" r="1" fill="#EFB85F"/>
<circle cx="162.72" cy="91.4702" r="1" fill="#EFB85F"/>
<circle cx="162.72" cy="91.4702" r="1" fill="#EFB85F"/>
<circle cx="141.72" cy="354.47" r="1" fill="#EFB85F"/>
<path d="M126.603 378.534L130.878 378.394L126.603 378.254L127.944 376.823L126.512 378.163L126.373 373.889L126.233 378.163L124.801 376.823L126.142 378.254L121.867 378.394L126.142 378.534L124.801 379.965L126.233 378.624L126.373 382.899L126.512 378.624L127.944 379.965L126.603 378.534Z" fill="#EFB85F"/>
<path d="M135.614 105.228L139.889 105.088L135.614 104.948L136.955 103.517L135.523 104.858L135.383 100.583L135.244 104.858L133.812 103.517L135.153 104.948L130.878 105.088L135.153 105.228L133.812 106.659L135.244 105.319L135.383 109.593L135.523 105.319L136.955 106.659L135.614 105.228Z" fill="#EFB85F"/>
<path d="M135.614 105.228L139.889 105.088L135.614 104.948L136.955 103.517L135.523 104.858L135.383 100.583L135.244 104.858L133.812 103.517L135.153 104.948L130.878 105.088L135.153 105.228L133.812 106.659L135.244 105.319L135.383 109.593L135.523 105.319L136.955 106.659L135.614 105.228Z" fill="#EFB85F"/>
<path d="M135.614 105.228L139.889 105.088L135.614 104.948L136.955 103.517L135.523 104.858L135.383 100.583L135.244 104.858L133.812 103.517L135.153 104.948L130.878 105.088L135.153 105.228L133.812 106.659L135.244 105.319L135.383 109.593L135.523 105.319L136.955 106.659L135.614 105.228Z" fill="#EFB85F"/>
<path d="M160.644 78.1977L164.919 78.0578L160.644 77.918L161.985 76.4866L160.553 77.8272L160.414 73.5527L160.274 77.8272L158.842 76.4866L160.183 77.918L155.908 78.0578L160.183 78.1977L158.842 79.629L160.274 78.2883L160.414 82.5628L160.553 78.2883L161.985 79.629L160.644 78.1977Z" fill="#EFB85F"/>
<path d="M160.914 327.837L161.666 331.496L164.919 332.342L161.666 333.188L160.914 336.847L160.162 333.188L156.909 332.342L160.162 331.496L160.914 327.837Z" fill="#EFB85F"/>
<path d="M115.86 343.855L116.612 347.514L119.865 348.36L116.612 349.206L115.86 352.865L115.108 349.206L111.855 348.36L115.108 347.514L115.86 343.855Z" fill="#EFB85F"/>
<circle cx="41.7197" cy="29.4702" r="1" fill="#EFB85F"/>
<path d="M28.2542 36.5112L29.4514 38.4882L31.7582 39.5146L29.4514 40.5406L28.2542 42.518L27.0566 40.5406L24.7498 39.5146L27.0566 38.4882L28.2542 36.5112Z" fill="#EFB85F"/>
<path d="M44.461 133.494C44.5 133.168 44.5649 132.393 44.6169 131.78C44.6689 131.073 44.7599 130.624 44.8638 130.583C44.9548 130.542 45.3707 130.76 45.7735 131.059C46.1894 131.372 46.5533 131.59 46.5922 131.549C46.6182 131.522 46.3713 131.087 46.0464 130.597C45.6306 129.998 45.4876 129.699 45.6046 129.658C45.6955 129.631 46.3583 129.536 47.0731 129.44C49.3603 129.168 49.3473 129.019 47.0341 128.76C46.2284 128.665 45.5526 128.543 45.5266 128.502C45.4876 128.447 45.7345 128.053 46.0464 127.617C46.3583 127.169 46.5922 126.774 46.5533 126.733C46.5143 126.706 46.1244 126.937 45.6955 127.25C45.2537 127.577 44.8638 127.781 44.8118 127.726C44.7469 127.658 44.6429 126.842 44.5519 125.903C44.318 123.455 44.214 123.468 43.9671 125.958C43.8762 126.896 43.7722 127.713 43.7202 127.754C43.6812 127.794 43.2914 127.577 42.8495 127.264C42.4207 126.937 42.0438 126.706 42.0048 126.747C41.9788 126.774 42.1737 127.141 42.4596 127.549C42.7455 127.944 42.9795 128.352 42.9795 128.434C42.9795 128.529 42.4207 128.651 41.511 128.76C39.1847 129.019 39.1847 129.168 41.524 129.454C42.4077 129.563 42.9795 129.699 42.9795 129.781C42.9795 129.862 42.7455 130.27 42.4596 130.665C41.8488 131.522 41.7969 131.74 42.2907 131.399C42.4986 131.277 42.8755 131.005 43.1484 130.814C43.7722 130.393 43.8242 130.461 43.9411 131.93C44.1101 134.093 44.305 134.664 44.461 133.494Z" fill="#EFB85F"/>
<path d="M64.5281 89.2099L68.803 89.07L64.5281 88.9302L65.8689 87.4988L64.4374 88.8394L64.2976 84.5649L64.1577 88.8394L62.7262 87.4988L64.067 88.9302L59.7921 89.07L64.067 89.2099L62.7262 90.6412L64.1577 89.3005L64.2976 93.575L64.4374 89.3005L65.8689 90.6412L64.5281 89.2099Z" fill="#EFB85F"/>
<circle cx="39.7197" cy="93.4702" r="1" fill="#EFB85F"/>
<circle cx="60.7197" cy="106.47" r="1" fill="#EFB85F"/>
<circle cx="231.72" cy="24.4702" r="1" fill="#EFB85F"/>
<circle cx="265.72" cy="33.4702" r="1" fill="#EFB85F"/>
<circle cx="265.72" cy="33.4702" r="1" fill="#EFB85F"/>
<circle cx="267.72" cy="34.4702" r="1" fill="#EFB85F"/>
<path d="M267.774 92.2133L272.048 92.0734L267.774 91.9336L269.114 90.5022L267.683 91.8429L267.543 87.5684L267.403 91.8429L265.972 90.5022L267.312 91.9336L263.038 92.0734L267.312 92.2133L265.972 93.6446L267.403 92.3039L267.543 96.5784L267.683 92.3039L269.114 93.6446L267.774 92.2133Z" fill="#EFB85F"/>
<path d="M267.774 92.2133L272.048 92.0734L267.774 91.9336L269.114 90.5022L267.683 91.8429L267.543 87.5684L267.403 91.8429L265.972 90.5022L267.312 91.9336L263.038 92.0734L267.312 92.2133L265.972 93.6446L267.403 92.3039L267.543 96.5784L267.683 92.3039L269.114 93.6446L267.774 92.2133Z" fill="#EFB85F"/>
<path d="M229.497 123.608L230.695 125.585L233.001 126.612L230.695 127.638L229.497 129.615L228.3 127.638L225.993 126.612L228.3 125.585L229.497 123.608Z" fill="#EFB85F"/>
<path d="M108.351 25.4988L109.548 27.4757L111.855 28.5021L109.548 29.5282L108.351 31.5055L107.153 29.5282L104.847 28.5021L107.153 27.4757L108.351 25.4988Z" fill="#EFB85F"/>
<g clip-path="url(#clip1_109_12004)">
<path d="M62.5059 60.4131C62.4538 60.4131 62.4277 60.387 62.4277 60.335V60.1006C62.4277 60.0485 62.4538 60.0225 62.5059 60.0225H62.7402C63.3001 60.0225 63.7884 59.9053 64.2051 59.6709C64.3743 59.5732 64.5143 59.4235 64.625 59.2217C64.7357 59.0133 64.791 58.7822 64.791 58.5283V48.1963C64.791 47.7926 64.5306 47.4834 64.0098 47.2686C63.6452 47.1123 63.2578 47.0342 62.8477 47.0342H62.6328C62.5807 47.0342 62.5547 47.0081 62.5547 46.9561V46.7217C62.5547 46.6696 62.5807 46.6436 62.6328 46.6436H69.2441C69.2962 46.6436 69.3223 46.6696 69.3223 46.7217V46.9561C69.3223 47.0081 69.2962 47.0342 69.2441 47.0342H68.8242C68.1536 47.0342 67.5612 47.1286 67.0469 47.3174C66.8971 47.3695 66.7995 47.4574 66.7539 47.5811C66.7148 47.6982 66.6953 47.9033 66.6953 48.1963V59.0264C66.7083 59.137 66.7669 59.2412 66.8711 59.3389C66.9753 59.4365 67.0924 59.4854 67.2227 59.4854H71.0801C71.6595 59.4854 72.2292 59.1436 72.7891 58.46C72.9388 58.2777 73.1243 58.0368 73.3457 57.7373C73.5671 57.4313 73.7038 57.2588 73.7559 57.2197C73.9642 57.0635 74.0684 57.0667 74.0684 57.2295C74.0684 57.2686 74.0586 57.3076 74.0391 57.3467L72.5645 60.2373C72.5059 60.3545 72.4375 60.4131 72.3594 60.4131H62.5059ZM76.4023 55.2666C76.2917 55.2666 76.2363 55.5042 76.2363 55.9795C76.2363 56.9886 76.5358 57.835 77.1348 58.5186C77.7337 59.2021 78.4759 59.5439 79.3613 59.5439C80.2533 59.5439 81.1094 59.1598 81.9297 58.3916C81.9427 58.3786 81.959 58.3721 81.9785 58.3721H82.0273C82.0664 58.3721 82.1022 58.4046 82.1348 58.4697C82.1738 58.5283 82.2096 58.5674 82.2422 58.5869C81.487 59.5049 80.5983 60.1396 79.5762 60.4912C79.2246 60.6149 78.8275 60.6768 78.3848 60.6768C77.9421 60.6768 77.4928 60.5563 77.0371 60.3154C76.5814 60.068 76.1908 59.7458 75.8652 59.3486C75.1751 58.5218 74.8301 57.4932 74.8301 56.2627C74.8301 55.0257 75.2044 53.8994 75.9531 52.8838C76.7083 51.8682 77.7435 51.3604 79.0586 51.3604C80.0026 51.3604 80.7741 51.7835 81.373 52.6299C81.972 53.4697 82.2715 54.2087 82.2715 54.8467C82.2715 55.1266 82.2031 55.2666 82.0664 55.2666H76.4023ZM76.5098 54.3291C76.5098 54.4528 76.5684 54.5146 76.6855 54.5146H80.3672C80.5365 54.5146 80.6211 54.4137 80.6211 54.2119C80.6211 53.7432 80.4095 53.2646 79.9863 52.7764C79.5697 52.2816 79.1107 52.0342 78.6094 52.0342C78.1211 52.0342 77.6751 52.2555 77.2715 52.6982C76.8743 53.141 76.6204 53.6455 76.5098 54.2119V54.3291ZM101.734 60.042C101.702 60.0941 101.62 60.1071 101.49 60.0811C101.367 60.0485 101.22 60.0322 101.051 60.0322C100.882 60.0322 100.641 60.068 100.328 60.1396C100.022 60.2048 99.5371 60.3089 98.873 60.4521C98.209 60.6019 97.6035 60.6768 97.0566 60.6768C95.8197 60.6768 94.6185 60.387 93.4531 59.8076C92.2943 59.2217 91.3665 58.3949 90.6699 57.3271C89.9733 56.2529 89.625 55.0094 89.625 53.5967C89.625 52.1839 89.9733 50.9046 90.6699 49.7588C91.6855 48.0791 93.2155 46.9854 95.2598 46.4775C95.9108 46.3148 96.5618 46.2334 97.2129 46.2334C98.1048 46.2334 99.1628 46.3831 100.387 46.6826C100.758 46.7738 101.07 46.8682 101.324 46.9658C101.585 47.0635 101.744 47.1123 101.803 47.1123L102.096 47.0342H102.398C102.477 47.0342 102.516 47.0895 102.516 47.2002V50.2373C102.516 50.3024 102.457 50.335 102.34 50.335C102.223 50.335 102.154 50.3219 102.135 50.2959C102.115 50.2633 102.096 50.2275 102.076 50.1885C102.057 50.1429 102.034 50.0973 102.008 50.0518C101.988 50.0062 101.965 49.9639 101.939 49.9248C101.92 49.8857 101.907 49.8564 101.9 49.8369C100.924 47.8773 99.4427 46.8975 97.457 46.8975C95.6667 46.8975 94.2669 47.4671 93.2578 48.6064C92.2487 49.7458 91.7441 51.2562 91.7441 53.1377C91.7441 55.0127 92.2975 56.624 93.4043 57.9717C94.5176 59.3193 96.028 59.9932 97.9355 59.9932C98.9772 59.9932 99.9245 59.6839 100.777 59.0654C101.637 58.4469 102.311 57.6885 102.799 56.79C102.812 56.751 102.851 56.7314 102.916 56.7314H103.043C103.108 56.7314 103.141 56.7705 103.141 56.8486C103.141 56.9268 103.121 57.0016 103.082 57.0732L101.734 60.042ZM107.223 52.8545C107.223 53.0107 107.245 53.0889 107.291 53.0889C107.337 53.0889 107.369 53.0791 107.389 53.0596C107.408 53.0335 107.545 52.8805 107.799 52.6006C108.535 51.7803 109.28 51.3701 110.035 51.3701C111.025 51.3701 111.751 51.5915 112.213 52.0342C112.779 52.5941 113.062 53.5348 113.062 54.8564V58.9287C113.062 59.5667 113.414 59.9378 114.117 60.042C114.423 60.0811 114.576 60.1494 114.576 60.2471C114.576 60.3447 114.544 60.4001 114.479 60.4131H110.123C110.058 60.4001 110.025 60.3545 110.025 60.2764C110.025 60.1592 110.178 60.0811 110.484 60.042C111.188 59.9378 111.539 59.5667 111.539 58.9287V54.9541C111.539 53.9971 111.471 53.3753 111.334 53.0889C111.074 52.516 110.53 52.2295 109.703 52.2295C109.195 52.2295 108.655 52.4476 108.082 52.8838C107.509 53.3135 107.223 53.7887 107.223 54.3096V58.9287C107.223 59.5667 107.574 59.9378 108.277 60.042C108.583 60.0811 108.736 60.1494 108.736 60.2471C108.736 60.3447 108.704 60.4001 108.639 60.4131H104.283C104.218 60.4001 104.186 60.3545 104.186 60.2764C104.186 60.1592 104.339 60.0811 104.645 60.042C105.348 59.9378 105.699 59.5667 105.699 58.9287V46.751C105.699 46.4775 105.549 46.2887 105.25 46.1846C105.12 46.139 104.98 46.1032 104.83 46.0771C104.68 46.0446 104.56 46.0153 104.469 45.9893C104.384 45.9632 104.329 45.9404 104.303 45.9209C104.283 45.8949 104.273 45.846 104.273 45.7744C104.273 45.6963 104.322 45.6312 104.42 45.5791L106.91 44.4072C106.988 44.3682 107.037 44.3486 107.057 44.3486C107.167 44.3486 107.223 44.4268 107.223 44.583V52.8545ZM123.648 59.0654C122.77 60.1396 121.637 60.6768 120.25 60.6768C118.87 60.6768 117.75 60.234 116.891 59.3486C116.031 58.4632 115.602 57.3988 115.602 56.1553C115.602 54.9053 116.044 53.8376 116.93 52.9521C117.822 52.0602 118.834 51.6143 119.967 51.6143C121.503 51.6143 122.737 52.1774 123.668 53.3037C124.462 52.0081 125.592 51.3604 127.057 51.3604C127.747 51.3604 128.307 51.4938 128.736 51.7607C129.146 51.9821 129.576 52.568 130.025 53.5186C130.208 53.9027 130.299 54.2087 130.299 54.4365C130.299 54.6644 130.221 54.7783 130.064 54.7783H124.4C124.296 54.7783 124.244 54.9118 124.244 55.1787V55.6182C124.244 57.6104 124.993 58.8701 126.49 59.3975C126.835 59.5146 127.161 59.5732 127.467 59.5732C128.04 59.5732 128.551 59.4072 129 59.0752C129.124 59.0231 129.309 58.8929 129.557 58.6846C129.804 58.4762 129.944 58.3721 129.977 58.3721H130.025C130.064 58.3721 130.097 58.3916 130.123 58.4307C130.156 58.4697 130.188 58.499 130.221 58.5186C130.221 58.6553 130.1 58.8213 129.859 59.0166C129.703 59.2119 129.41 59.4528 128.98 59.7393C128.134 60.3643 127.32 60.6768 126.539 60.6768C125.361 60.6768 124.397 60.1396 123.648 59.0654ZM117.174 55.3838C117.174 56.1585 117.294 56.9137 117.535 57.6494C117.776 58.3786 118.147 58.9808 118.648 59.4561C119.156 59.9248 119.801 60.1592 120.582 60.1592C121.363 60.1592 121.969 59.8304 122.398 59.1729C122.835 58.5088 123.053 57.6917 123.053 56.7217C123.053 55.7516 122.743 54.7588 122.125 53.7432C121.513 52.7275 120.686 52.2197 119.645 52.2197C118.883 52.2197 118.281 52.5518 117.838 53.2158C117.395 53.8799 117.174 54.6025 117.174 55.3838ZM124.508 54.1338C124.508 54.2575 124.566 54.3193 124.684 54.3193H128.268C128.437 54.3193 128.521 54.2184 128.521 54.0166C128.521 53.5413 128.326 53.0921 127.936 52.6689C127.551 52.2458 127.109 52.0342 126.607 52.0342C126.106 52.0342 125.657 52.2295 125.26 52.6201C124.869 53.0042 124.618 53.4697 124.508 54.0166V54.1338ZM138.346 59.5537C138.313 59.443 138.271 59.4072 138.219 59.4463C138.167 59.4788 137.955 59.5895 137.584 59.7783C136.367 60.3838 135.351 60.6865 134.537 60.6865C133.723 60.6865 133.137 60.4261 132.779 59.9053C132.649 59.71 132.584 59.4691 132.584 59.1826V53.2256C132.564 53.0368 132.48 52.874 132.33 52.7373C132.128 52.568 131.917 52.4769 131.695 52.4639C131.48 52.4508 131.373 52.3857 131.373 52.2686C131.373 52.1449 131.425 52.07 131.529 52.0439L133.766 51.3994C133.844 51.3734 133.919 51.3604 133.99 51.3604C134.068 51.3604 134.107 51.4157 134.107 51.5264V58.0791C134.107 58.5348 134.309 58.8864 134.713 59.1338C135.117 59.3812 135.631 59.5049 136.256 59.5049C136.887 59.5049 137.454 59.3128 137.955 58.9287C138.111 58.805 138.242 58.6683 138.346 58.5186V53.2256C138.326 53.0368 138.242 52.874 138.092 52.7373C137.89 52.568 137.678 52.4769 137.457 52.4639C137.242 52.4508 137.135 52.3857 137.135 52.2686C137.135 52.1449 137.187 52.07 137.291 52.0439L139.527 51.3994C139.605 51.3734 139.68 51.3604 139.752 51.3604C139.83 51.3604 139.869 51.4255 139.869 51.5557V58.4893C139.902 58.7757 139.983 58.9808 140.113 59.1045C140.243 59.2282 140.455 59.29 140.748 59.29L141.314 59.251C141.354 59.251 141.373 59.29 141.373 59.3682C141.373 59.4398 141.324 59.4984 141.227 59.5439L138.629 60.6182C138.551 60.6572 138.482 60.6768 138.424 60.6768C138.372 60.6768 138.346 60.5954 138.346 60.4326V59.5537ZM148.58 53.4111C148.502 53.3981 148.388 53.3558 148.238 53.2842C147.698 53.0368 147.275 52.9131 146.969 52.9131C146.663 52.9131 146.34 53.1051 146.002 53.4893C145.67 53.8669 145.504 54.2087 145.504 54.5146V58.9287C145.504 59.417 145.787 59.7425 146.354 59.9053C146.601 59.9704 146.832 60.0192 147.047 60.0518C147.262 60.0778 147.398 60.1038 147.457 60.1299C147.522 60.1559 147.555 60.208 147.555 60.2861C147.555 60.3577 147.522 60.4001 147.457 60.4131H142.564C142.499 60.4001 142.467 60.3545 142.467 60.2764C142.467 60.1592 142.62 60.0811 142.926 60.042C143.629 59.9378 143.98 59.5667 143.98 58.9287V53.7627C143.98 53.4893 143.831 53.3005 143.531 53.1963C143.401 53.1507 143.261 53.1149 143.111 53.0889C142.962 53.0563 142.841 53.027 142.75 53.001C142.665 52.9749 142.61 52.9521 142.584 52.9326C142.564 52.9066 142.555 52.8577 142.555 52.7861C142.555 52.708 142.604 52.6429 142.701 52.5908L145.191 51.4189C145.27 51.3799 145.318 51.3604 145.338 51.3604C145.449 51.3604 145.504 51.4385 145.504 51.5947V53.1768C145.504 53.2549 145.523 53.2939 145.562 53.2939C145.615 53.2939 145.748 53.141 145.963 52.835C146.581 51.9691 147.092 51.5361 147.496 51.5361C147.724 51.5361 148.072 51.6273 148.541 51.8096C149.016 51.9919 149.254 52.1449 149.254 52.2686C149.254 52.4183 149.179 52.6462 149.029 52.9521C148.88 53.2581 148.73 53.4111 148.58 53.4111ZM162.877 46.7607C162.942 46.7607 162.975 46.8324 162.975 46.9756L163.229 49.0557C163.255 49.1859 163.268 49.2705 163.268 49.3096C163.268 49.3421 163.215 49.3584 163.111 49.3584C163.014 49.3584 162.952 49.3454 162.926 49.3193C162.9 49.2933 162.874 49.251 162.848 49.1924C162.822 49.1273 162.789 49.0557 162.75 48.9775C162.717 48.8994 162.682 48.8213 162.643 48.7432C162.506 48.4437 162.291 48.1475 161.998 47.8545C161.282 47.1644 160.475 46.8193 159.576 46.8193C159.036 46.8193 158.525 46.9951 158.043 47.3467C157.561 47.6982 157.32 48.1149 157.32 48.5967C157.32 49.0719 157.408 49.4854 157.584 49.8369C157.766 50.1885 158.004 50.514 158.297 50.8135C158.59 51.113 158.925 51.3994 159.303 51.6729C159.68 51.9463 160.064 52.223 160.455 52.5029C161.49 53.2256 162.226 53.8441 162.662 54.3584C163.346 55.1527 163.717 56.0446 163.775 57.0342C163.775 58.141 163.349 59.0264 162.496 59.6904C161.65 60.348 160.663 60.6768 159.537 60.6768C158.814 60.6768 158.238 60.6019 157.809 60.4521C157.385 60.3089 157.092 60.2048 156.93 60.1396C156.767 60.0745 156.646 60.042 156.568 60.042C156.497 60.042 156.451 60.0452 156.432 60.0518L155.953 60.1494C155.868 60.1494 155.816 60.0811 155.797 59.9443C155.608 58.3298 155.514 57.4736 155.514 57.376C155.514 57.2718 155.52 57.2035 155.533 57.1709C155.553 57.1318 155.598 57.1123 155.67 57.1123C155.852 57.1123 156.018 57.3727 156.168 57.8936C156.852 59.3584 157.988 60.0908 159.576 60.0908C160.305 60.0908 160.927 59.8695 161.441 59.4268C161.962 58.984 162.223 58.4079 162.223 57.6982C162.223 56.5654 161.546 55.5107 160.191 54.5342C159.807 54.2607 159.254 53.8799 158.531 53.3916C157.809 52.9033 157.232 52.415 156.803 51.9268C156.132 51.1715 155.797 50.3317 155.797 49.4072C155.797 48.4762 156.165 47.7145 156.9 47.1221C157.643 46.5296 158.492 46.2334 159.449 46.2334C159.944 46.2334 160.488 46.318 161.08 46.4873C161.679 46.6566 162.096 46.7705 162.33 46.8291L162.877 46.7607ZM172.018 59.5537C171.985 59.443 171.943 59.4072 171.891 59.4463C171.839 59.4788 171.627 59.5895 171.256 59.7783C170.038 60.3838 169.023 60.6865 168.209 60.6865C167.395 60.6865 166.809 60.4261 166.451 59.9053C166.321 59.71 166.256 59.4691 166.256 59.1826V53.2256C166.236 53.0368 166.152 52.874 166.002 52.7373C165.8 52.568 165.589 52.4769 165.367 52.4639C165.152 52.4508 165.045 52.3857 165.045 52.2686C165.045 52.1449 165.097 52.07 165.201 52.0439L167.438 51.3994C167.516 51.3734 167.59 51.3604 167.662 51.3604C167.74 51.3604 167.779 51.4157 167.779 51.5264V58.0791C167.779 58.5348 167.981 58.8864 168.385 59.1338C168.788 59.3812 169.303 59.5049 169.928 59.5049C170.559 59.5049 171.126 59.3128 171.627 58.9287C171.783 58.805 171.913 58.6683 172.018 58.5186V53.2256C171.998 53.0368 171.913 52.874 171.764 52.7373C171.562 52.568 171.35 52.4769 171.129 52.4639C170.914 52.4508 170.807 52.3857 170.807 52.2686C170.807 52.1449 170.859 52.07 170.963 52.0439L173.199 51.3994C173.277 51.3734 173.352 51.3604 173.424 51.3604C173.502 51.3604 173.541 51.4255 173.541 51.5557V58.4893C173.574 58.7757 173.655 58.9808 173.785 59.1045C173.915 59.2282 174.127 59.29 174.42 59.29L174.986 59.251C175.025 59.251 175.045 59.29 175.045 59.3682C175.045 59.4398 174.996 59.4984 174.898 59.5439L172.301 60.6182C172.223 60.6572 172.154 60.6768 172.096 60.6768C172.044 60.6768 172.018 60.5954 172.018 60.4326V59.5537ZM181.051 53.7334C181.051 53.8766 180.995 53.9482 180.885 53.9482C180.781 53.9482 180.699 53.8701 180.641 53.7139C180.484 53.2842 180.25 52.9033 179.938 52.5713C179.632 52.2393 179.251 52.0732 178.795 52.0732C178.196 52.0732 177.792 52.3727 177.584 52.9717C177.519 53.1735 177.486 53.3818 177.486 53.5967C177.486 53.8115 177.623 54.0524 177.896 54.3193C178.17 54.5798 178.619 54.8923 179.244 55.2568C179.869 55.6214 180.325 55.9307 180.611 56.1846C181.262 56.764 181.588 57.4346 181.588 58.1963C181.588 58.958 181.308 59.5635 180.748 60.0127C180.188 60.4554 179.537 60.6768 178.795 60.6768C178.398 60.6768 178.036 60.6214 177.711 60.5107C177.392 60.4066 177.206 60.3545 177.154 60.3545C177.109 60.3545 177.031 60.4066 176.92 60.5107C176.816 60.6214 176.731 60.6768 176.666 60.6768H176.5C176.461 60.6768 176.412 60.3252 176.354 59.6221C176.295 58.9189 176.266 58.5023 176.266 58.3721C176.266 58.2419 176.275 58.1702 176.295 58.1572C176.321 58.1442 176.36 58.1377 176.412 58.1377C176.464 58.1377 176.507 58.154 176.539 58.1865C176.578 58.2191 176.611 58.2614 176.637 58.3135C176.663 58.359 176.682 58.4079 176.695 58.46C176.715 58.512 176.757 58.6097 176.822 58.7529C177.265 59.6969 177.949 60.1689 178.873 60.1689C179.283 60.1689 179.612 60.0192 179.859 59.7197C180.107 59.4137 180.23 59.0752 180.23 58.7041C180.23 58.333 180.133 58.0205 179.938 57.7666C179.742 57.5127 179.498 57.2816 179.205 57.0732C178.919 56.8649 178.606 56.6631 178.268 56.4678C176.952 55.6995 176.295 54.8499 176.295 53.9189C176.295 53.2223 176.594 52.6234 177.193 52.1221C177.792 51.6143 178.408 51.3604 179.039 51.3604C179.671 51.3604 180.136 51.4287 180.436 51.5654C180.742 51.7021 180.921 51.8193 180.973 51.917C181.025 52.0081 181.051 52.3141 181.051 52.835V53.7334ZM190.367 59.3877C189.469 60.2471 188.46 60.6768 187.34 60.6768C186.936 60.6768 186.386 60.6019 185.689 60.4521C185.579 60.4521 185.517 60.4912 185.504 60.5693C185.497 60.6475 185.491 60.7288 185.484 60.8135V64.9834C185.484 65.4717 185.768 65.7972 186.334 65.96C186.581 66.0251 186.812 66.0706 187.027 66.0967C187.242 66.1292 187.379 66.1585 187.438 66.1846C187.503 66.2106 187.535 66.2594 187.535 66.3311C187.535 66.4092 187.503 66.4548 187.438 66.4678H182.545C182.48 66.4548 182.447 66.4092 182.447 66.3311C182.447 66.2139 182.6 66.1357 182.906 66.0967C183.609 65.9925 183.961 65.6214 183.961 64.9834V53.2744C183.961 53.001 183.811 52.8122 183.512 52.708C183.382 52.6624 183.242 52.6266 183.092 52.6006C182.942 52.568 182.822 52.5387 182.73 52.5127C182.646 52.4867 182.59 52.4639 182.564 52.4443C182.545 52.4183 182.535 52.3695 182.535 52.2979C182.535 52.2197 182.584 52.1546 182.682 52.1025L185.172 50.9111C185.224 50.8851 185.276 50.8721 185.328 50.8721C185.432 50.8721 185.484 50.9502 185.484 51.1064V52.3467C185.484 52.4183 185.52 52.4541 185.592 52.4541C185.67 52.4541 185.852 52.3597 186.139 52.1709C186.965 51.637 187.825 51.3701 188.717 51.3701C189.342 51.3701 189.915 51.624 190.436 52.1318C191.119 52.7959 191.575 53.7204 191.803 54.9053C191.868 55.2438 191.9 55.6051 191.9 55.9893C191.9 56.3669 191.839 56.7673 191.715 57.1904C191.467 58.0303 191.018 58.7627 190.367 59.3877ZM187.574 52.3857C186.689 52.3857 185.992 52.6396 185.484 53.1475V58.6357C185.484 58.9613 185.54 59.1729 185.65 59.2705C185.937 59.5179 186.376 59.71 186.969 59.8467C188.141 60.1136 189.052 59.8337 189.703 59.0068C190.165 58.4144 190.396 57.6982 190.396 56.8584C190.396 55.2243 190.029 54.0003 189.293 53.1865C188.85 52.6917 188.277 52.4248 187.574 52.3857ZM195.23 55.2666C195.12 55.2666 195.064 55.5042 195.064 55.9795C195.064 56.9886 195.364 57.835 195.963 58.5186C196.562 59.2021 197.304 59.5439 198.189 59.5439C199.081 59.5439 199.938 59.1598 200.758 58.3916C200.771 58.3786 200.787 58.3721 200.807 58.3721H200.855C200.895 58.3721 200.93 58.4046 200.963 58.4697C201.002 58.5283 201.038 58.5674 201.07 58.5869C200.315 59.5049 199.426 60.1396 198.404 60.4912C198.053 60.6149 197.656 60.6768 197.213 60.6768C196.77 60.6768 196.321 60.5563 195.865 60.3154C195.41 60.068 195.019 59.7458 194.693 59.3486C194.003 58.5218 193.658 57.4932 193.658 56.2627C193.658 55.0257 194.033 53.8994 194.781 52.8838C195.536 51.8682 196.572 51.3604 197.887 51.3604C198.831 51.3604 199.602 51.7835 200.201 52.6299C200.8 53.4697 201.1 54.2087 201.1 54.8467C201.1 55.1266 201.031 55.2666 200.895 55.2666H195.23ZM195.338 54.3291C195.338 54.4528 195.396 54.5146 195.514 54.5146H199.195C199.365 54.5146 199.449 54.4137 199.449 54.2119C199.449 53.7432 199.238 53.2646 198.814 52.7764C198.398 52.2816 197.939 52.0342 197.438 52.0342C196.949 52.0342 196.503 52.2555 196.1 52.6982C195.702 53.141 195.449 53.6455 195.338 54.2119V54.3291ZM209.908 57.3369L209.889 55.2764C209.889 54.4365 209.817 53.8473 209.674 53.5088C209.531 53.1702 209.348 52.9163 209.127 52.7471C208.906 52.5713 208.606 52.4834 208.229 52.4834C207.857 52.4834 207.066 52.7764 205.855 53.3623C205.693 53.46 205.608 53.5511 205.602 53.6357V58.8896C205.602 59.5472 205.953 59.9248 206.656 60.0225C206.962 60.068 207.115 60.1429 207.115 60.2471C207.115 60.3447 207.083 60.4001 207.018 60.4131H202.662C202.597 60.4001 202.564 60.3545 202.564 60.2764C202.564 60.1527 202.717 60.068 203.023 60.0225C203.727 59.9248 204.078 59.5472 204.078 58.8896V53.2842C204.078 53.0107 203.928 52.8219 203.629 52.7178C203.499 52.6722 203.359 52.6364 203.209 52.6104C203.059 52.5778 202.939 52.5485 202.848 52.5225C202.763 52.4964 202.708 52.4736 202.682 52.4541C202.662 52.4281 202.652 52.3792 202.652 52.3076C202.652 52.2295 202.701 52.1644 202.799 52.1123L205.289 50.9404C205.367 50.9014 205.416 50.8818 205.436 50.8818C205.546 50.8818 205.602 50.96 205.602 51.1162V52.6396C205.621 52.7048 205.647 52.7373 205.68 52.7373C205.719 52.7373 205.859 52.6787 206.1 52.5615C206.66 52.2816 207.223 52.0114 207.789 51.751C208.355 51.4906 208.824 51.3604 209.195 51.3604C210.699 51.3604 211.451 52.7308 211.451 55.4717L211.363 58.3232V58.8896C211.363 59.3975 211.617 59.7295 212.125 59.8857C212.34 59.9574 212.545 60.0094 212.74 60.042C212.942 60.068 213.072 60.0941 213.131 60.1201C213.196 60.1462 213.229 60.1982 213.229 60.2764C213.229 60.3545 213.196 60.4001 213.131 60.4131H208.424C208.359 60.4001 208.326 60.3545 208.326 60.2764C208.326 60.1527 208.479 60.068 208.785 60.0225C209.482 59.9248 209.83 59.5212 209.83 58.8115C209.882 58.486 209.908 57.9945 209.908 57.3369ZM220.133 51.7705C220.419 51.8682 220.595 51.917 220.66 51.917C220.725 51.917 220.764 51.917 220.777 51.917C220.797 51.9105 220.82 51.8682 220.846 51.79V46.751C220.846 46.4775 220.696 46.2887 220.396 46.1846C220.266 46.139 220.126 46.1032 219.977 46.0771C219.827 46.0446 219.706 46.0153 219.615 45.9893C219.531 45.9632 219.475 45.9404 219.449 45.9209C219.43 45.8949 219.42 45.846 219.42 45.7744C219.42 45.6963 219.469 45.6312 219.566 45.5791L222.057 44.4072C222.135 44.3682 222.184 44.3486 222.203 44.3486C222.314 44.3486 222.369 44.4268 222.369 44.583V58.4893C222.402 58.7757 222.483 58.9808 222.613 59.1045C222.743 59.2282 222.955 59.29 223.248 59.29L223.814 59.251C223.854 59.251 223.873 59.29 223.873 59.3682C223.873 59.4398 223.824 59.4984 223.727 59.5439L221.129 60.6182C221.051 60.6572 220.982 60.6768 220.924 60.6768C220.872 60.6768 220.846 60.5954 220.846 60.4326V59.5439C220.846 59.4788 220.829 59.4463 220.797 59.4463C220.751 59.4463 220.481 59.5928 219.986 59.8857C218.469 60.7842 217.19 60.9176 216.148 60.2861C215.315 59.7783 214.752 58.9743 214.459 57.874C214.322 57.3597 214.254 56.8161 214.254 56.2432C214.254 55.6637 214.371 55.0908 214.605 54.5244C214.846 53.9515 215.175 53.4502 215.592 53.0205C216.51 52.083 217.617 51.6143 218.912 51.6143C219.439 51.6143 219.846 51.6663 220.133 51.7705ZM215.729 55.96C215.729 56.943 216.002 57.8057 216.549 58.5479C217.096 59.2835 217.857 59.6514 218.834 59.6514C219.264 59.6514 219.706 59.5472 220.162 59.3389C220.618 59.124 220.846 58.9613 220.846 58.8506V53.8115C220.846 53.6878 220.761 53.5413 220.592 53.3721C220.071 52.6559 219.378 52.2979 218.512 52.2979C217.652 52.2979 216.972 52.6624 216.471 53.3916C215.976 54.1143 215.729 54.9704 215.729 55.96ZM231.432 59.5537C231.399 59.443 231.357 59.4072 231.305 59.4463C231.253 59.4788 231.041 59.5895 230.67 59.7783C229.452 60.3838 228.437 60.6865 227.623 60.6865C226.809 60.6865 226.223 60.4261 225.865 59.9053C225.735 59.71 225.67 59.4691 225.67 59.1826V53.2256C225.65 53.0368 225.566 52.874 225.416 52.7373C225.214 52.568 225.003 52.4769 224.781 52.4639C224.566 52.4508 224.459 52.3857 224.459 52.2686C224.459 52.1449 224.511 52.07 224.615 52.0439L226.852 51.3994C226.93 51.3734 227.005 51.3604 227.076 51.3604C227.154 51.3604 227.193 51.4157 227.193 51.5264V58.0791C227.193 58.5348 227.395 58.8864 227.799 59.1338C228.202 59.3812 228.717 59.5049 229.342 59.5049C229.973 59.5049 230.54 59.3128 231.041 58.9287C231.197 58.805 231.327 58.6683 231.432 58.5186V53.2256C231.412 53.0368 231.327 52.874 231.178 52.7373C230.976 52.568 230.764 52.4769 230.543 52.4639C230.328 52.4508 230.221 52.3857 230.221 52.2686C230.221 52.1449 230.273 52.07 230.377 52.0439L232.613 51.3994C232.691 51.3734 232.766 51.3604 232.838 51.3604C232.916 51.3604 232.955 51.4255 232.955 51.5557V58.4893C232.988 58.7757 233.069 58.9808 233.199 59.1045C233.329 59.2282 233.541 59.29 233.834 59.29L234.4 59.251C234.439 59.251 234.459 59.29 234.459 59.3682C234.459 59.4398 234.41 59.4984 234.312 59.5439L231.715 60.6182C231.637 60.6572 231.568 60.6768 231.51 60.6768C231.458 60.6768 231.432 60.5954 231.432 60.4326V59.5537Z" fill="#EFB85F"/>
<path d="M140.786 117.861C130.037 119.304 125.01 120.8 117.577 124.755C104.26 131.756 93.511 143.834 87.3074 158.692C86.1843 161.417 84.6334 166.655 84.6334 167.777C84.6334 168.365 84.2591 169.808 83.8312 170.984C82.7617 174.03 82.7617 191.987 83.8312 195.033C84.2591 196.209 84.6334 197.652 84.6334 198.24C84.6334 199.416 86.4517 205.348 87.2539 206.898C87.5213 207.432 88.163 208.928 88.6978 210.265C91.2114 216.464 96.8267 224.534 102.602 230.306C104.474 232.176 106.025 233.833 106.025 233.993C106.025 234.1 105.169 234.528 104.153 234.848C99.6611 236.345 98.3241 241.208 101.265 245.27L102.977 247.621L101.747 251.523C101.052 253.661 99.875 257.455 99.0728 259.967C98.2706 262.479 97.308 265.578 96.9336 266.861C96.2919 268.785 95.8106 269.319 93.9923 270.121C92.7622 270.656 91.2114 271.724 90.6231 272.526C88.5909 275.091 89.2861 279.527 92.0135 281.718C92.7088 282.253 104.795 282.413 148.594 282.413H204.32L205.71 280.756C207.528 278.619 207.903 276.908 207.154 274.397C206.512 272.259 204.748 270.656 202.074 269.747C200.79 269.373 200.362 268.732 199.453 265.846C198.865 263.922 198.116 261.517 197.742 260.501C196.779 258.043 193.731 247.996 193.731 247.515C193.731 247.301 194.48 246.125 195.335 244.896C196.244 243.613 196.94 242.01 196.94 241.101C196.94 238.696 195.068 236.131 192.661 235.169C191.485 234.688 190.522 234.154 190.522 233.886C190.522 233.673 192.019 232.069 193.784 230.306C200.469 223.786 207.101 213.685 210.042 205.455C212.288 199.148 214.053 189.368 214.053 183.008C214.053 175.526 211.272 161.898 208.758 156.981C208.491 156.447 207.742 154.844 207.047 153.454C200.95 141.055 189.452 129.672 177.152 123.847C171.644 121.228 166.51 119.464 162.446 118.769C161.002 118.502 158.595 118.075 157.098 117.807C153.942 117.273 144.904 117.273 140.786 117.861ZM160.039 121.549C164.371 122.457 168.649 123.686 170.307 124.541C171.056 124.969 171.965 125.29 172.286 125.29C172.607 125.29 174.478 126.091 176.457 127.053C188.062 132.665 198.17 142.766 204.373 155.058C210.844 167.937 212.395 182.421 208.919 198.24C206.566 208.822 200.63 218.976 191.271 228.221C186.672 232.818 184.853 234.261 183.463 234.474C182.5 234.635 166.296 234.795 147.418 234.848L113.138 234.902L110.517 232.925C103.351 227.58 95.7036 218.228 92.067 210.265C90.2487 206.31 89.5535 204.6 89.2326 202.943C89.0187 201.981 88.5909 201.072 88.3235 200.912C88.0561 200.698 87.8422 199.95 87.8422 199.148C87.8422 198.347 87.4678 196.476 86.9865 195.033C85.81 191.239 85.81 175.419 86.9865 171.091C87.4678 169.38 87.8422 167.403 87.8422 166.708C87.8422 166.013 88.0561 165.319 88.3235 165.105C88.5909 164.945 89.0187 164.036 89.2326 163.074C89.3931 162.165 89.9279 160.509 90.4092 159.493C96.7197 144.85 106.934 133.68 119.769 127.481C122.336 126.198 125.171 124.862 125.973 124.434C126.828 124.007 127.898 123.686 128.326 123.686C128.754 123.686 130.251 123.312 131.642 122.885C138.861 120.587 152.445 119.945 160.039 121.549ZM192.34 238.643C193.891 239.872 194.105 241.582 192.982 243.186C192.233 244.201 191.164 244.201 148.274 244.201C105.383 244.201 104.314 244.201 103.565 243.186C102.495 241.636 102.656 240.3 104.153 238.857L105.437 237.521H148.167C190.576 237.521 190.896 237.521 192.34 238.643ZM191.057 249.813C192.447 253.554 193.249 255.798 193.731 257.562C193.998 258.417 194.693 260.822 195.335 262.906C196.993 268.411 197.153 269.106 196.512 269.533C196.244 269.694 191.966 269.8 187.099 269.694C179.291 269.533 178.115 269.426 177.794 268.625C176.511 265.258 172.82 261.356 168.916 259.272C166.777 258.15 166.243 258.096 148.541 258.096H130.358L127.684 259.486C124.475 261.196 122.711 262.853 120.197 266.701C119.127 268.304 118.004 269.587 117.63 269.587C114.314 269.747 99.875 269.48 99.6611 269.319C99.4471 269.052 99.8215 267.609 101.479 262.372C101.854 261.196 102.602 258.791 103.084 257.027C103.619 255.264 104.367 253.019 104.742 252.057C105.169 251.095 105.49 249.866 105.49 249.278C105.49 248.744 105.918 247.996 106.453 247.728C107.041 247.354 121.32 247.194 148.755 247.301L190.201 247.408L191.057 249.813ZM168.275 262.105C172.125 264.082 176.243 269.587 173.837 269.587C173.462 269.587 162.178 269.694 148.808 269.8C135.439 269.961 123.941 269.907 123.299 269.747C121.427 269.319 121.801 268.251 124.957 265.097C129.342 260.662 129.93 260.501 149.343 260.662C165.547 260.769 165.654 260.769 168.275 262.105ZM203.838 274.183C205.229 275.946 205.229 276.588 203.945 278.191L202.929 279.474L149.022 279.634C89.3931 279.794 92.6553 279.955 92.6553 276.427C92.6553 275.519 93.0296 274.29 93.5644 273.755C94.3666 272.847 96.7732 272.793 148.594 272.793H202.769L203.838 274.183Z" fill="#EFB85F"/>
<path d="M113.887 147.575C112.122 147.843 111.052 149.499 112.068 150.301C112.496 150.675 113.459 150.729 114.849 150.408C116.026 150.141 118.807 149.874 120.999 149.874C129.021 149.874 135.76 151.477 143.086 155.164L146.937 157.088L147.097 165.746C147.204 172.373 147.418 174.458 147.899 174.458C149.611 174.458 149.878 173.175 149.878 165.372C149.878 156.501 149.664 156.928 154.691 154.577C159.344 152.385 163.569 151.156 170.04 150.141C175.655 149.286 176.19 149.286 180.094 150.141C183.142 150.782 184.372 150.889 184.8 150.461C185.709 149.553 184.586 148.11 182.447 147.575C179.506 146.774 165.013 147.469 161.911 148.537C155.6 150.729 153.729 151.584 149.343 154.042C148.113 154.737 147.792 154.683 145.065 152.866C143.461 151.798 141.856 150.942 141.535 150.942C141.161 150.942 140.198 150.622 139.343 150.194C135.492 148.217 131.909 147.629 123.673 147.469C119.128 147.362 114.742 147.415 113.887 147.575Z" fill="#EFB85F"/>
<path d="M182.875 153.935C182.126 154.683 182.5 157.89 183.302 158.21C184.639 158.745 185.763 157.355 185.602 155.538C185.495 154.363 185.121 153.828 184.372 153.721C183.73 153.614 183.089 153.721 182.875 153.935Z" fill="#EFB85F"/>
<path d="M110.678 154.523C109.983 155.164 110.304 157.73 111.106 158.424C112.496 159.547 113.512 158.638 113.512 156.287C113.512 154.416 113.352 154.149 112.282 154.149C111.587 154.149 110.838 154.309 110.678 154.523Z" fill="#EFB85F"/>
<path d="M183.195 160.936C182.661 161.15 182.5 165.8 182.5 181.672V202.141L181.163 202.462C180.414 202.676 179.559 202.676 179.291 202.515C178.489 202.034 167.045 203.21 163.515 204.119C159.825 205.081 155.867 206.898 152.873 208.929C150.947 210.211 150.734 210.265 149.557 209.463C147.953 208.448 147.204 208.822 147.204 210.585C147.204 212.028 146.081 212.295 145.065 211.066C143.674 209.409 139.61 207.058 138.112 207.058C136.134 207.058 135.599 207.913 137.096 208.661C138.968 209.677 137.524 210.425 135.118 209.73C133.781 209.356 128.807 209.196 120.999 209.303C109.127 209.463 108.966 209.463 108.806 210.639C108.699 211.387 108.966 211.868 109.608 212.082C110.143 212.242 114.796 212.349 119.93 212.295C131.214 212.189 136.348 212.883 141.642 215.395C146.776 217.8 149.717 217.854 154.103 215.609C159.237 212.99 163.355 212.295 176.083 211.921L187.581 211.601V210.371V209.142L178.222 208.929C169.665 208.768 165.066 209.035 160.092 210.051C158.702 210.318 158.328 210.265 158.541 209.677C158.702 209.249 159.237 208.822 159.825 208.715C160.36 208.608 161.162 208.287 161.59 207.967C163.355 206.524 169.451 205.508 176.724 205.508C182.661 205.455 184.211 205.294 184.853 204.6C185.602 203.851 185.709 201.286 185.602 182.314C185.441 159.707 185.441 159.974 183.195 160.936Z" fill="#EFB85F"/>
<path d="M110.945 161.738C109.982 162.7 110.036 204.012 110.999 204.813C111.319 205.08 115.116 205.455 119.395 205.615C123.673 205.722 128.379 206.149 129.877 206.523C133.246 207.378 134.636 207.004 133.888 205.508C133.192 204.225 128.165 203.317 119.662 202.836L113.779 202.515L113.512 181.939C113.298 164.089 113.138 161.364 112.442 161.203C111.961 161.15 111.319 161.364 110.945 161.738Z" fill="#EFB85F"/>
<path d="M168.649 168.365C166.67 170.022 166.563 171.197 168.328 173.068C169.986 174.885 171.911 174.885 173.355 173.068C174.853 171.144 174.746 169.968 173.034 168.311C171.163 166.655 170.681 166.655 168.649 168.365Z" fill="#EFB85F"/>
<path d="M121.106 168.686C120.037 169.755 120.357 171.572 121.801 172.32C122.978 172.961 123.245 172.908 124.208 172.053C125.491 170.877 125.545 170.022 124.422 168.9C123.459 167.884 122.015 167.777 121.106 168.686Z" fill="#EFB85F"/>
<path d="M99.1799 171.892C98.3778 172.694 99.3404 174.458 100.677 174.458C101.693 174.458 102.603 172.747 102.014 171.785C101.586 171.037 99.9821 171.091 99.1799 171.892Z" fill="#EFB85F"/>
<path d="M128.059 173.228C128.166 174.457 128.487 174.778 129.984 174.885C132.123 175.099 132.337 173.923 130.358 172.64C128.487 171.411 127.845 171.571 128.059 173.228Z" fill="#EFB85F"/>
<path d="M161.858 172.587C161.644 173.015 161.697 173.763 161.858 174.19C162.125 174.885 162.392 174.939 163.355 174.404C165.708 173.175 165.762 171.785 163.462 171.785C162.713 171.785 162.018 172.16 161.858 172.587Z" fill="#EFB85F"/>
<path d="M154.959 175.206C154.103 175.847 153.996 176.114 154.531 176.649C155.386 177.504 158.167 176.649 158.167 175.526C158.167 174.458 156.242 174.244 154.959 175.206Z" fill="#EFB85F"/>
<path d="M134.369 176.595C134.369 177.13 134.85 177.878 135.438 178.199C137.417 179.268 138.38 177.611 136.668 176.275C135.278 175.259 134.369 175.366 134.369 176.595Z" fill="#EFB85F"/>
<path d="M148.755 177.611C147.739 178.466 147.578 178.787 148.113 179.321C149.129 180.336 151.75 179.268 151.75 177.931C151.75 176.488 150.306 176.328 148.755 177.611Z" fill="#EFB85F"/>
<path d="M140.84 179.375C140.198 181.085 140.733 182.421 142.123 182.795C144.209 183.329 145.332 182.848 145.493 181.352C145.814 178.573 141.803 176.863 140.84 179.375Z" fill="#EFB85F"/>
<path d="M171.323 182.153C170.521 183.062 170.735 184.719 171.644 184.986C172.714 185.36 173.462 183.276 172.714 182.207C172.072 181.405 171.965 181.405 171.323 182.153Z" fill="#EFB85F"/>
<path d="M147.471 183.65C147.311 184.077 147.257 187.765 147.311 191.827C147.471 198.881 147.525 199.309 148.541 199.309C149.557 199.309 149.61 198.934 149.61 191.292C149.61 184.077 149.503 183.276 148.648 183.115C148.166 183.008 147.632 183.276 147.471 183.65Z" fill="#EFB85F"/>
<path d="M197.314 183.329C197.1 183.543 196.94 184.291 196.94 184.986C196.94 186.108 197.154 186.268 198.437 186.108C199.56 186.001 199.881 185.68 199.881 184.612C199.881 183.65 199.56 183.222 198.811 183.115C198.17 183.008 197.528 183.115 197.314 183.329Z" fill="#EFB85F"/>
<path d="M117.164 217.618C116.95 217.832 116.79 218.58 116.79 219.275C116.79 220.397 117.004 220.557 118.287 220.397C119.41 220.29 119.731 219.97 119.731 218.901C119.731 217.939 119.41 217.511 118.662 217.404C118.02 217.297 117.378 217.404 117.164 217.618Z" fill="#EFB85F"/>
<path d="M170.574 188.459C169.291 189.475 168.863 192.254 169.826 193.109C171.697 194.605 174.104 191.239 172.874 188.887C172.232 187.658 171.804 187.551 170.574 188.459Z" fill="#EFB85F"/>
<path d="M162.82 195.086C161.269 196.155 161.269 197.438 162.873 197.438C164.157 197.385 166.456 195.728 166.456 194.819C166.456 193.964 164.21 194.124 162.82 195.086Z" fill="#EFB85F"/>
<path d="M155.761 198.827C154.21 199.683 153.996 200.805 155.387 201.072C156.617 201.339 158.97 199.789 158.97 198.774C158.97 197.812 157.579 197.812 155.761 198.827Z" fill="#EFB85F"/>
<path d="M148.113 203.21C146.83 204.599 146.99 205.455 148.434 205.455C149.557 205.455 152.017 203.531 152.017 202.622C152.017 201.82 148.915 202.301 148.113 203.21Z" fill="#EFB85F"/>
</g>
</g>
<defs>
<clipPath id="clip0_109_12004">
<rect width="297.638" height="419.528" rx="10" fill="white"/>
</clipPath>
<clipPath id="clip1_109_12004">
<rect width="259" height="381" fill="white" transform="translate(19.041 19.4131)"/>
</clipPath>
</defs>
</svg>
