<svg width="298" height="420" viewBox="0 0 298 420" fill="none" xmlns="http://www.w3.org/2000/svg">
<g clip-path="url(#clip0_261_24860)">
<rect width="297.638" height="419.528" rx="10" fill="#032206"/>
<rect x="12" y="12" width="273" height="396" rx="9" stroke="#EFB85F" stroke-width="2"/>
<rect x="19.5" y="19.5" width="258" height="380" rx="6.5" stroke="#EFB85F"/>
<circle cx="76.7197" cy="259.47" r="1" fill="#EFB85F"/>
<circle cx="222.72" cy="204.47" r="1" fill="#EFB85F"/>
<circle cx="211.72" cy="129.47" r="1" fill="#EFB85F"/>
<circle cx="241.72" cy="96.4702" r="1" fill="#EFB85F"/>
<circle cx="125.72" cy="66.4702" r="1" fill="#EFB85F"/>
<circle cx="59.7197" cy="98.4702" r="1" fill="#EFB85F"/>
<circle cx="187.72" cy="97.4702" r="1" fill="#EFB85F"/>
<circle cx="50.7197" cy="187.47" r="1" fill="#EFB85F"/>
<circle cx="50.7197" cy="187.47" r="1" fill="#EFB85F"/>
<circle cx="50.7197" cy="187.47" r="1" fill="#EFB85F"/>
<circle cx="74.7197" cy="323.47" r="1" fill="#EFB85F"/>
<circle cx="164.72" cy="363.47" r="1" fill="#EFB85F"/>
<circle cx="66.7197" cy="376.47" r="1" fill="#EFB85F"/>
<circle cx="114.72" cy="393.47" r="1" fill="#EFB85F"/>
<circle cx="164.72" cy="395.47" r="1" fill="#EFB85F"/>
<circle cx="215.72" cy="105.47" r="1" fill="#EFB85F"/>
<circle cx="162.72" cy="91.4702" r="1" fill="#EFB85F"/>
<circle cx="162.72" cy="91.4702" r="1" fill="#EFB85F"/>
<circle cx="21.7197" cy="312.47" r="1" fill="#EFB85F"/>
<circle cx="141.72" cy="354.47" r="1" fill="#EFB85F"/>
<circle cx="55.7197" cy="307.47" r="1" fill="#EFB85F"/>
<circle cx="88.7197" cy="340.47" r="1" fill="#EFB85F"/>
<circle cx="88.7197" cy="340.47" r="1" fill="#EFB85F"/>
<circle cx="229.72" cy="381.47" r="1" fill="#EFB85F"/>
<circle cx="235.72" cy="337.47" r="1" fill="#EFB85F"/>
<circle cx="235.72" cy="337.47" r="1" fill="#EFB85F"/>
<circle cx="212.72" cy="155.47" r="1" fill="#EFB85F"/>
<circle cx="274.72" cy="186.47" r="1" fill="#EFB85F"/>
<path d="M198.72 343.47C198.72 344.022 198.272 344.47 197.72 344.47C197.167 344.47 196.72 344.022 196.72 343.47C196.72 342.918 197.167 342.47 197.72 342.47C198.272 342.47 198.72 342.918 198.72 343.47Z" fill="#EFB85F"/>
<path d="M229.22 361.47L230.416 363.445L232.72 364.47L230.416 365.495L229.22 367.47L228.024 365.495L225.72 364.47L228.024 363.445L229.22 361.47Z" fill="#EFB85F"/>
<circle cx="251.72" cy="319.47" r="1" fill="#EFB85F"/>
<circle cx="216.72" cy="147.47" r="1" fill="#EFB85F"/>
<circle cx="249.72" cy="180.47" r="1" fill="#EFB85F"/>
<circle cx="249.72" cy="180.47" r="1" fill="#EFB85F"/>
<circle cx="196.72" cy="372.47" r="1" fill="#EFB85F"/>
<circle cx="214.72" cy="266.47" r="1" fill="#EFB85F"/>
<circle cx="80.7197" cy="131.47" r="1" fill="#EFB85F"/>
<circle cx="22.7197" cy="157.47" r="1" fill="#EFB85F"/>
<circle cx="70.7197" cy="82.4702" r="1" fill="#EFB85F"/>
<circle cx="59.7197" cy="156.47" r="1" fill="#EFB85F"/>
<circle cx="40.7197" cy="79.4702" r="1" fill="#EFB85F"/>
<circle cx="74.7197" cy="74.4702" r="1" fill="#EFB85F"/>
<circle cx="38.7197" cy="143.47" r="1" fill="#EFB85F"/>
<circle cx="72.7197" cy="193.47" r="1" fill="#EFB85F"/>
<path d="M63.5269 139.266L67.8018 139.126L63.5269 138.986L64.8677 137.555L63.4362 138.896L63.2963 134.621L63.1565 138.896L61.725 137.555L63.0658 138.986L58.7909 139.126L63.0658 139.266L61.725 140.697L63.1565 139.357L63.2963 143.631L63.4362 139.357L64.8677 140.697L63.5269 139.266Z" fill="#EFB85F"/>
<path d="M33.4906 226.363L37.7655 226.223L33.4906 226.083L34.8314 224.652L33.3999 225.993L33.2601 221.718L33.1202 225.993L31.6888 224.652L33.0295 226.083L28.7546 226.223L33.0295 226.363L31.6888 227.794L33.1202 226.454L33.2601 230.728L33.3999 226.454L34.8314 227.794L33.4906 226.363Z" fill="#EFB85F"/>
<path d="M28.4845 291.436L32.7594 291.296L28.4845 291.156L29.8253 289.725L28.3938 291.066L28.254 286.791L28.1141 291.066L26.6826 289.725L28.0234 291.156L23.7485 291.296L28.0234 291.436L26.6826 292.867L28.1141 291.527L28.254 295.801L28.3938 291.527L29.8253 292.867L28.4845 291.436Z" fill="#EFB85F"/>
<path d="M45.5052 349.501L49.7801 349.361L45.5052 349.221L46.8459 347.79L45.4144 349.13L45.2746 344.856L45.1348 349.13L43.7033 347.79L45.044 349.221L40.7692 349.361L45.044 349.501L43.7033 350.932L45.1348 349.592L45.2746 353.866L45.4144 349.592L46.8459 350.932L45.5052 349.501Z" fill="#EFB85F"/>
<path d="M126.603 378.534L130.878 378.394L126.603 378.254L127.944 376.823L126.512 378.163L126.373 373.889L126.233 378.163L124.801 376.823L126.142 378.254L121.867 378.394L126.142 378.534L124.801 379.965L126.233 378.624L126.373 382.899L126.512 378.624L127.944 379.965L126.603 378.534Z" fill="#EFB85F"/>
<path d="M251.754 385.541L256.029 385.402L251.754 385.262L253.095 383.83L251.664 385.171L251.524 380.896L251.384 385.171L249.952 383.83L251.293 385.262L247.018 385.402L251.293 385.541L249.952 386.973L251.384 385.632L251.524 389.907L251.664 385.632L253.095 386.973L251.754 385.541Z" fill="#EFB85F"/>
<path d="M264.77 221.358L269.045 221.218L264.77 221.078L266.111 219.647L264.679 220.987L264.539 216.713L264.4 220.987L262.968 219.647L264.309 221.078L260.034 221.218L264.309 221.358L262.968 222.789L264.4 221.448L264.539 225.723L264.679 221.448L266.111 222.789L264.77 221.358Z" fill="#EFB85F"/>
<path d="M264.77 221.358L269.045 221.218L264.77 221.078L266.111 219.647L264.679 220.987L264.539 216.713L264.4 220.987L262.968 219.647L264.309 221.078L260.034 221.218L264.309 221.358L262.968 222.789L264.4 221.448L264.539 225.723L264.679 221.448L266.111 222.789L264.77 221.358Z" fill="#EFB85F"/>
<path d="M135.614 105.228L139.889 105.088L135.614 104.948L136.955 103.517L135.523 104.858L135.383 100.583L135.244 104.858L133.812 103.517L135.153 104.948L130.878 105.088L135.153 105.228L133.812 106.659L135.244 105.319L135.383 109.593L135.523 105.319L136.955 106.659L135.614 105.228Z" fill="#EFB85F"/>
<path d="M135.614 105.228L139.889 105.088L135.614 104.948L136.955 103.517L135.523 104.858L135.383 100.583L135.244 104.858L133.812 103.517L135.153 104.948L130.878 105.088L135.153 105.228L133.812 106.659L135.244 105.319L135.383 109.593L135.523 105.319L136.955 106.659L135.614 105.228Z" fill="#EFB85F"/>
<path d="M135.614 105.228L139.889 105.088L135.614 104.948L136.955 103.517L135.523 104.858L135.383 100.583L135.244 104.858L133.812 103.517L135.153 104.948L130.878 105.088L135.153 105.228L133.812 106.659L135.244 105.319L135.383 109.593L135.523 105.319L136.955 106.659L135.614 105.228Z" fill="#EFB85F"/>
<path d="M160.644 78.1977L164.919 78.0578L160.644 77.918L161.985 76.4866L160.553 77.8272L160.414 73.5527L160.274 77.8272L158.842 76.4866L160.183 77.918L155.908 78.0578L160.183 78.1977L158.842 79.629L160.274 78.2883L160.414 82.5628L160.553 78.2883L161.985 79.629L160.644 78.1977Z" fill="#EFB85F"/>
<path d="M193.684 334.484L197.959 334.344L193.684 334.205L195.025 332.773L193.593 334.114L193.454 329.839L193.314 334.114L191.882 332.773L193.223 334.205L188.948 334.344L193.223 334.484L191.882 335.916L193.314 334.575L193.454 338.849L193.593 334.575L195.025 335.916L193.684 334.484Z" fill="#EFB85F"/>
<path d="M193.684 334.484L197.959 334.344L193.684 334.205L195.025 332.773L193.593 334.114L193.454 329.839L193.314 334.114L191.882 332.773L193.223 334.205L188.948 334.344L193.223 334.484L191.882 335.916L193.314 334.575L193.454 338.849L193.593 334.575L195.025 335.916L193.684 334.484Z" fill="#EFB85F"/>
<path d="M237.737 272.415L242.012 272.275L237.737 272.135L239.078 270.704L237.647 272.045L237.507 267.77L237.367 272.045L235.935 270.704L237.276 272.135L233.001 272.275L237.276 272.415L235.935 273.846L237.367 272.506L237.507 276.78L237.647 272.506L239.078 273.846L237.737 272.415Z" fill="#EFB85F"/>
<path d="M250.71 134.026C250.749 133.699 250.814 132.924 250.866 132.312C250.918 131.604 251.009 131.155 251.113 131.114C251.204 131.074 251.62 131.291 252.023 131.591C252.439 131.903 252.802 132.121 252.841 132.08C252.867 132.053 252.62 131.618 252.296 131.128C251.88 130.529 251.737 130.23 251.854 130.189C251.945 130.162 252.607 130.067 253.322 129.972C255.609 129.7 255.596 129.55 253.283 129.291C252.478 129.196 251.802 129.074 251.776 129.033C251.737 128.979 251.984 128.584 252.296 128.149C252.607 127.7 252.841 127.305 252.802 127.264C252.763 127.237 252.374 127.469 251.945 127.781C251.503 128.108 251.113 128.312 251.061 128.258C250.996 128.19 250.892 127.373 250.801 126.435C250.567 123.986 250.463 123.999 250.216 126.489C250.125 127.428 250.021 128.244 249.969 128.285C249.93 128.326 249.541 128.108 249.099 127.795C248.67 127.469 248.293 127.237 248.254 127.278C248.228 127.305 248.423 127.673 248.709 128.081C248.995 128.475 249.229 128.883 249.229 128.965C249.229 129.06 248.67 129.183 247.76 129.291C245.434 129.55 245.434 129.7 247.773 129.985C248.657 130.094 249.229 130.23 249.229 130.312C249.229 130.393 248.995 130.802 248.709 131.196C248.098 132.053 248.046 132.271 248.54 131.931C248.748 131.808 249.125 131.536 249.398 131.346C250.021 130.924 250.073 130.992 250.19 132.461C250.359 134.624 250.554 135.196 250.71 134.026Z" fill="#EFB85F"/>
<path d="M36.4513 114.003C36.4903 113.677 36.5553 112.901 36.6073 112.289C36.6593 111.582 36.7502 111.133 36.8542 111.092C36.9452 111.051 37.361 111.269 37.7639 111.568C38.1797 111.881 38.5436 112.099 38.5826 112.058C38.6086 112.031 38.3617 111.595 38.0368 111.106C37.6209 110.507 37.478 110.208 37.5949 110.167C37.6859 110.14 38.3487 110.044 39.0634 109.949C41.3507 109.677 41.3377 109.527 39.0245 109.269C38.2187 109.174 37.543 109.051 37.517 109.011C37.478 108.956 37.7249 108.562 38.0368 108.126C38.3487 107.677 38.5826 107.283 38.5436 107.242C38.5046 107.215 38.1148 107.446 37.6859 107.759C37.2441 108.085 36.8542 108.29 36.8022 108.235C36.7372 108.167 36.6333 107.351 36.5423 106.412C36.3084 103.963 36.2044 103.977 35.9575 106.467C35.8665 107.405 35.7626 108.221 35.7106 108.262C35.6716 108.303 35.2817 108.085 34.8399 107.773C34.411 107.446 34.0341 107.215 33.9952 107.256C33.9692 107.283 34.1641 107.65 34.45 108.058C34.7359 108.453 34.9698 108.861 34.9698 108.943C34.9698 109.038 34.411 109.16 33.5013 109.269C31.1751 109.527 31.1751 109.677 33.5143 109.963C34.398 110.072 34.9698 110.208 34.9698 110.289C34.9698 110.371 34.7359 110.779 34.45 111.174C33.8392 112.031 33.7872 112.248 34.2811 111.908C34.489 111.786 34.8659 111.514 35.1388 111.323C35.7626 110.902 35.8145 110.97 35.9315 112.439C36.1004 114.602 36.2954 115.173 36.4513 114.003Z" fill="#EFB85F"/>
<path d="M268.732 306.218C268.771 305.892 268.836 305.116 268.888 304.504C268.94 303.797 269.031 303.348 269.135 303.307C269.226 303.266 269.642 303.484 270.045 303.783C270.46 304.096 270.824 304.314 270.863 304.273C270.889 304.246 270.642 303.81 270.317 303.32C269.902 302.722 269.759 302.423 269.876 302.382C269.967 302.355 270.629 302.259 271.344 302.164C273.631 301.892 273.618 301.742 271.305 301.484C270.499 301.389 269.824 301.266 269.798 301.225C269.759 301.171 270.006 300.776 270.317 300.341C270.629 299.892 270.863 299.498 270.824 299.457C270.785 299.43 270.395 299.661 269.967 299.974C269.525 300.3 269.135 300.504 269.083 300.45C269.018 300.382 268.914 299.566 268.823 298.627C268.589 296.178 268.485 296.192 268.238 298.681C268.147 299.62 268.043 300.436 267.991 300.477C267.952 300.518 267.562 300.3 267.121 299.987C266.692 299.661 266.315 299.43 266.276 299.47C266.25 299.498 266.445 299.865 266.731 300.273C267.017 300.668 267.25 301.076 267.25 301.157C267.25 301.253 266.692 301.375 265.782 301.484C263.456 301.742 263.456 301.892 265.795 302.178C266.679 302.287 267.25 302.423 267.25 302.504C267.25 302.586 267.017 302.994 266.731 303.388C266.12 304.246 266.068 304.463 266.562 304.123C266.77 304.001 267.146 303.729 267.419 303.538C268.043 303.116 268.095 303.184 268.212 304.654C268.381 306.817 268.576 307.388 268.732 306.218Z" fill="#EFB85F"/>
<path d="M54.473 275.183C54.512 274.857 54.577 274.081 54.629 273.469C54.681 272.762 54.7719 272.313 54.8759 272.272C54.9669 272.231 55.3827 272.449 55.7856 272.748C56.2015 273.061 56.5653 273.279 56.6043 273.238C56.6303 273.211 56.3834 272.775 56.0585 272.286C55.6427 271.687 55.4997 271.388 55.6167 271.347C55.7076 271.32 56.3704 271.225 57.0852 271.129C59.3724 270.857 59.3594 270.708 57.0462 270.449C56.2405 270.354 55.5647 270.232 55.5387 270.191C55.4997 270.136 55.7466 269.742 56.0585 269.306C56.3704 268.858 56.6043 268.463 56.5653 268.422C56.5264 268.395 56.1365 268.626 55.7076 268.939C55.2658 269.266 54.8759 269.47 54.8239 269.415C54.759 269.347 54.655 268.531 54.564 267.592C54.3301 265.144 54.2261 265.157 53.9792 267.647C53.8882 268.585 53.7843 269.402 53.7323 269.442C53.6933 269.483 53.3034 269.266 52.8616 268.953C52.4327 268.626 52.0559 268.395 52.0169 268.436C51.9909 268.463 52.1858 268.83 52.4717 269.238C52.7576 269.633 52.9916 270.041 52.9916 270.123C52.9916 270.218 52.4327 270.34 51.523 270.449C49.1968 270.708 49.1968 270.857 51.536 271.143C52.4197 271.252 52.9916 271.388 52.9916 271.47C52.9916 271.551 52.7576 271.959 52.4717 272.354C51.8609 273.211 51.809 273.428 52.3028 273.088C52.5107 272.966 52.8876 272.694 53.1605 272.503C53.7843 272.082 53.8363 272.15 53.9532 273.619C54.1222 275.782 54.3171 276.353 54.473 275.183Z" fill="#EFB85F"/>
<path d="M49.4671 396.319C49.5061 395.993 49.571 395.217 49.623 394.605C49.675 393.898 49.766 393.449 49.8699 393.408C49.9609 393.367 50.3768 393.585 50.7796 393.884C51.1955 394.197 51.5594 394.415 51.5983 394.374C51.6243 394.347 51.3774 393.911 51.0525 393.421C50.6367 392.823 50.4937 392.524 50.6107 392.483C50.7017 392.456 51.3644 392.36 52.0792 392.265C54.3664 391.993 54.3534 391.843 52.0402 391.585C51.2345 391.49 50.5587 391.367 50.5327 391.326C50.4937 391.272 50.7406 390.878 51.0525 390.442C51.3644 389.993 51.5983 389.599 51.5594 389.558C51.5204 389.531 51.1305 389.762 50.7017 390.075C50.2598 390.401 49.8699 390.605 49.8179 390.551C49.753 390.483 49.649 389.667 49.558 388.728C49.3241 386.279 49.2202 386.293 48.9732 388.782C48.8823 389.721 48.7783 390.537 48.7263 390.578C48.6873 390.619 48.2975 390.401 47.8556 390.088C47.4268 389.762 47.0499 389.531 47.0109 389.572C46.9849 389.599 47.1798 389.966 47.4657 390.374C47.7516 390.769 47.9856 391.177 47.9856 391.258C47.9856 391.354 47.4268 391.476 46.5171 391.585C44.1909 391.843 44.1909 391.993 46.5301 392.279C47.4138 392.388 47.9856 392.524 47.9856 392.605C47.9856 392.687 47.7516 393.095 47.4657 393.49C46.855 394.347 46.803 394.564 47.2968 394.224C47.5047 394.102 47.8816 393.83 48.1545 393.639C48.7783 393.217 48.8303 393.285 48.9472 394.755C49.1162 396.918 49.3111 397.489 49.4671 396.319Z" fill="#EFB85F"/>
<path d="M229.497 361.875L230.695 363.852L233.001 364.878L230.695 365.904L229.497 367.882L228.3 365.904L225.993 364.878L228.3 363.852L229.497 361.875Z" fill="#EFB85F"/>
<path d="M118.363 309.817L119.56 311.794L121.867 312.82L119.56 313.846L118.363 315.824L117.165 313.846L114.859 312.82L117.165 311.794L118.363 309.817Z" fill="#EFB85F"/>
<path d="M78.3147 230.729L79.512 232.705L81.8188 233.732L79.512 234.758L78.3147 236.735L77.1171 234.758L74.8103 233.732L77.1171 232.705L78.3147 230.729Z" fill="#EFB85F"/>
<path d="M27.253 185.678L28.4502 187.655L30.757 188.682L28.4502 189.708L27.253 191.685L26.0553 189.708L23.7485 188.682L26.0553 187.655L27.253 185.678Z" fill="#EFB85F"/>
<path d="M27.253 86.5669L28.4502 88.5439L30.757 89.5703L28.4502 90.5963L27.253 92.5736L26.0553 90.5963L23.7485 89.5703L26.0553 88.5439L27.253 86.5669Z" fill="#EFB85F"/>
<circle cx="118.72" cy="77.4702" r="1" fill="#EFB85F"/>
<path d="M114.546 112.001C114.585 111.674 114.65 110.899 114.702 110.287C114.754 109.579 114.845 109.13 114.949 109.09C115.04 109.049 115.455 109.266 115.858 109.566C116.274 109.879 116.638 110.096 116.677 110.055C116.703 110.028 116.456 109.593 116.131 109.103C115.715 108.505 115.572 108.205 115.689 108.164C115.78 108.137 116.443 108.042 117.158 107.947C119.445 107.675 119.432 107.525 117.119 107.267C116.313 107.171 115.637 107.049 115.611 107.008C115.572 106.954 115.819 106.559 116.131 106.124C116.443 105.675 116.677 105.28 116.638 105.24C116.599 105.212 116.209 105.444 115.78 105.757C115.338 106.083 114.949 106.287 114.897 106.233C114.832 106.165 114.728 105.348 114.637 104.41C114.403 101.961 114.299 101.975 114.052 104.464C113.961 105.403 113.857 106.219 113.805 106.26C113.766 106.301 113.376 106.083 112.934 105.77C112.505 105.444 112.128 105.212 112.09 105.253C112.064 105.28 112.258 105.648 112.544 106.056C112.83 106.45 113.064 106.858 113.064 106.94C113.064 107.035 112.505 107.158 111.596 107.267C109.269 107.525 109.269 107.675 111.609 107.96C112.492 108.069 113.064 108.205 113.064 108.287C113.064 108.369 112.83 108.777 112.544 109.171C111.934 110.028 111.882 110.246 112.375 109.906C112.583 109.783 112.96 109.511 113.233 109.321C113.857 108.899 113.909 108.967 114.026 110.436C114.195 112.599 114.39 113.171 114.546 112.001Z" fill="#EFB85F"/>
<path d="M105.347 84.5649L106.545 86.5419L108.851 87.5683L106.545 88.5943L105.347 90.5717L104.15 88.5943L101.843 87.5683L104.15 86.5419L105.347 84.5649Z" fill="#EFB85F"/>
<path d="M108.351 25.4985L109.548 27.4755L111.855 28.5019L109.548 29.5279L108.351 31.5053L107.153 29.5279L104.847 28.5019L107.153 27.4755L108.351 25.4985Z" fill="#EFB85F"/>
<path d="M256.53 70.5493L257.727 72.5263L260.034 73.5527L257.727 74.5787L256.53 76.556L255.332 74.5787L253.026 73.5527L255.332 72.5263L256.53 70.5493Z" fill="#EFB85F"/>
<path d="M238.007 298.805L238.759 302.464L242.012 303.309L238.759 304.155L238.007 307.815L237.255 304.155L234.003 303.309L237.255 302.464L238.007 298.805Z" fill="#EFB85F"/>
<path d="M57.7895 245.745L58.5416 249.404L61.7946 250.25L58.5416 251.096L57.7895 254.755L57.0375 251.096L53.7849 250.25L57.0375 249.404L57.7895 245.745Z" fill="#EFB85F"/>
<path d="M62.7955 339.851L63.5476 343.51L66.8006 344.355L63.5476 345.201L62.7955 348.861L62.0435 345.201L58.7909 344.355L62.0435 343.51L62.7955 339.851Z" fill="#EFB85F"/>
<path d="M261.035 338.85L261.787 342.509L265.04 343.354L261.787 344.2L261.035 347.86L260.283 344.2L257.03 343.354L260.283 342.509L261.035 338.85Z" fill="#EFB85F"/>
<path d="M160.914 327.837L161.666 331.496L164.919 332.342L161.666 333.188L160.914 336.847L160.162 333.188L156.909 332.342L160.162 331.496L160.914 327.837Z" fill="#EFB85F"/>
<path d="M254.027 237.736L254.779 241.396L258.032 242.241L254.779 243.087L254.027 246.746L253.275 243.087L250.022 242.241L253.275 241.396L254.027 237.736Z" fill="#EFB85F"/>
<path d="M254.027 237.736L254.779 241.396L258.032 242.241L254.779 243.087L254.027 246.746L253.275 243.087L250.022 242.241L253.275 241.396L254.027 237.736Z" fill="#EFB85F"/>
<path d="M115.86 343.855L116.612 347.514L119.865 348.36L116.612 349.206L115.86 352.865L115.108 349.206L111.855 348.36L115.108 347.514L115.86 343.855Z" fill="#EFB85F"/>
<circle cx="125.72" cy="66.4702" r="1" fill="#EFB85F"/>
<circle cx="164.72" cy="363.47" r="1" fill="#EFB85F"/>
<circle cx="143.72" cy="317.47" r="1" fill="#EFB85F"/>
<circle cx="161.72" cy="315.47" r="1" fill="#EFB85F"/>
<circle cx="120.72" cy="331.47" r="1" fill="#EFB85F"/>
<circle cx="162.72" cy="91.4702" r="1" fill="#EFB85F"/>
<circle cx="162.72" cy="91.4702" r="1" fill="#EFB85F"/>
<circle cx="141.72" cy="354.47" r="1" fill="#EFB85F"/>
<path d="M126.603 378.534L130.878 378.394L126.603 378.254L127.944 376.823L126.512 378.163L126.373 373.889L126.233 378.163L124.801 376.823L126.142 378.254L121.867 378.394L126.142 378.534L124.801 379.965L126.233 378.624L126.373 382.899L126.512 378.624L127.944 379.965L126.603 378.534Z" fill="#EFB85F"/>
<path d="M135.614 105.228L139.889 105.088L135.614 104.948L136.955 103.517L135.523 104.858L135.383 100.583L135.244 104.858L133.812 103.517L135.153 104.948L130.878 105.088L135.153 105.228L133.812 106.659L135.244 105.319L135.383 109.593L135.523 105.319L136.955 106.659L135.614 105.228Z" fill="#EFB85F"/>
<path d="M135.614 105.228L139.889 105.088L135.614 104.948L136.955 103.517L135.523 104.858L135.383 100.583L135.244 104.858L133.812 103.517L135.153 104.948L130.878 105.088L135.153 105.228L133.812 106.659L135.244 105.319L135.383 109.593L135.523 105.319L136.955 106.659L135.614 105.228Z" fill="#EFB85F"/>
<path d="M135.614 105.228L139.889 105.088L135.614 104.948L136.955 103.517L135.523 104.858L135.383 100.583L135.244 104.858L133.812 103.517L135.153 104.948L130.878 105.088L135.153 105.228L133.812 106.659L135.244 105.319L135.383 109.593L135.523 105.319L136.955 106.659L135.614 105.228Z" fill="#EFB85F"/>
<path d="M160.644 78.1977L164.919 78.0578L160.644 77.918L161.985 76.4866L160.553 77.8272L160.414 73.5527L160.274 77.8272L158.842 76.4866L160.183 77.918L155.908 78.0578L160.183 78.1977L158.842 79.629L160.274 78.2883L160.414 82.5628L160.553 78.2883L161.985 79.629L160.644 78.1977Z" fill="#EFB85F"/>
<path d="M160.914 327.837L161.666 331.496L164.919 332.342L161.666 333.188L160.914 336.847L160.162 333.188L156.909 332.342L160.162 331.496L160.914 327.837Z" fill="#EFB85F"/>
<path d="M115.86 343.855L116.612 347.514L119.865 348.36L116.612 349.206L115.86 352.865L115.108 349.206L111.855 348.36L115.108 347.514L115.86 343.855Z" fill="#EFB85F"/>
<circle cx="41.7197" cy="29.4702" r="1" fill="#EFB85F"/>
<path d="M28.2542 36.5112L29.4514 38.4882L31.7582 39.5146L29.4514 40.5406L28.2542 42.518L27.0566 40.5406L24.7498 39.5146L27.0566 38.4882L28.2542 36.5112Z" fill="#EFB85F"/>
<path d="M44.461 133.494C44.5 133.168 44.5649 132.393 44.6169 131.78C44.6689 131.073 44.7599 130.624 44.8638 130.583C44.9548 130.542 45.3707 130.76 45.7735 131.059C46.1894 131.372 46.5533 131.59 46.5922 131.549C46.6182 131.522 46.3713 131.087 46.0464 130.597C45.6306 129.998 45.4876 129.699 45.6046 129.658C45.6955 129.631 46.3583 129.536 47.0731 129.44C49.3603 129.168 49.3473 129.019 47.0341 128.76C46.2284 128.665 45.5526 128.543 45.5266 128.502C45.4876 128.447 45.7345 128.053 46.0464 127.617C46.3583 127.169 46.5922 126.774 46.5533 126.733C46.5143 126.706 46.1244 126.937 45.6955 127.25C45.2537 127.577 44.8638 127.781 44.8118 127.726C44.7469 127.658 44.6429 126.842 44.5519 125.903C44.318 123.455 44.214 123.468 43.9671 125.958C43.8762 126.896 43.7722 127.713 43.7202 127.754C43.6812 127.794 43.2914 127.577 42.8495 127.264C42.4207 126.937 42.0438 126.706 42.0048 126.747C41.9788 126.774 42.1737 127.141 42.4596 127.549C42.7455 127.944 42.9795 128.352 42.9795 128.434C42.9795 128.529 42.4207 128.651 41.511 128.76C39.1847 129.019 39.1847 129.168 41.524 129.454C42.4077 129.563 42.9795 129.699 42.9795 129.781C42.9795 129.862 42.7455 130.27 42.4596 130.665C41.8488 131.522 41.7969 131.74 42.2907 131.399C42.4986 131.277 42.8755 131.005 43.1484 130.814C43.7722 130.393 43.8242 130.461 43.9411 131.93C44.1101 134.093 44.305 134.664 44.461 133.494Z" fill="#EFB85F"/>
<path d="M64.5281 89.2099L68.803 89.07L64.5281 88.9302L65.8689 87.4988L64.4374 88.8394L64.2976 84.5649L64.1577 88.8394L62.7262 87.4988L64.067 88.9302L59.7921 89.07L64.067 89.2099L62.7262 90.6412L64.1577 89.3005L64.2976 93.575L64.4374 89.3005L65.8689 90.6412L64.5281 89.2099Z" fill="#EFB85F"/>
<circle cx="39.7197" cy="93.4702" r="1" fill="#EFB85F"/>
<circle cx="60.7197" cy="106.47" r="1" fill="#EFB85F"/>
<circle cx="231.72" cy="24.4702" r="1" fill="#EFB85F"/>
<circle cx="265.72" cy="33.4702" r="1" fill="#EFB85F"/>
<circle cx="265.72" cy="33.4702" r="1" fill="#EFB85F"/>
<circle cx="267.72" cy="34.4702" r="1" fill="#EFB85F"/>
<path d="M267.774 92.2133L272.048 92.0734L267.774 91.9336L269.114 90.5022L267.683 91.8429L267.543 87.5684L267.403 91.8429L265.972 90.5022L267.312 91.9336L263.038 92.0734L267.312 92.2133L265.972 93.6446L267.403 92.3039L267.543 96.5784L267.683 92.3039L269.114 93.6446L267.774 92.2133Z" fill="#EFB85F"/>
<path d="M267.774 92.2133L272.048 92.0734L267.774 91.9336L269.114 90.5022L267.683 91.8429L267.543 87.5684L267.403 91.8429L265.972 90.5022L267.312 91.9336L263.038 92.0734L267.312 92.2133L265.972 93.6446L267.403 92.3039L267.543 96.5784L267.683 92.3039L269.114 93.6446L267.774 92.2133Z" fill="#EFB85F"/>
<path d="M229.497 123.608L230.695 125.585L233.001 126.612L230.695 127.638L229.497 129.615L228.3 127.638L225.993 126.612L228.3 125.585L229.497 123.608Z" fill="#EFB85F"/>
<path d="M108.351 25.4985L109.548 27.4755L111.855 28.5019L109.548 29.5279L108.351 31.5053L107.153 29.5279L104.847 28.5019L107.153 27.4755L108.351 25.4985Z" fill="#EFB85F"/>
<g clip-path="url(#clip1_261_24860)">
<path d="M107.903 62.4131C107.846 62.4131 107.817 62.3844 107.817 62.3271V62.0693C107.817 62.012 107.853 61.9834 107.925 61.9834H108.172C108.566 61.9834 108.834 61.9476 108.978 61.876C109.507 61.6182 109.772 60.9092 109.772 59.749V48.5879C109.772 48.1081 109.307 47.8216 108.376 47.7285C108.168 47.707 108.021 47.6963 107.936 47.6963C107.857 47.6963 107.817 47.6676 107.817 47.6104V47.3525C107.817 47.2952 107.846 47.2666 107.903 47.2666H111.835L122.029 58.5352C122.065 58.571 122.09 58.5996 122.104 58.6211C122.119 58.6354 122.14 58.6426 122.169 58.6426C122.205 58.6426 122.223 58.6104 122.223 58.5459V51.1445C122.223 49.7194 122.104 48.7884 121.868 48.3516C121.632 47.9147 121.156 47.6963 120.439 47.6963H119.892C119.834 47.6963 119.806 47.6676 119.806 47.6104V47.3525C119.806 47.2952 119.834 47.2666 119.892 47.2666H125.478C125.535 47.2666 125.563 47.2952 125.563 47.3525V47.6104C125.563 47.6676 125.456 47.6963 125.241 47.6963C125.034 47.6963 124.686 47.818 124.199 48.0615C123.719 48.305 123.479 48.6058 123.479 48.9639V62.1016C123.479 62.2591 123.458 62.3701 123.415 62.4346C123.372 62.5062 123.268 62.542 123.104 62.542C122.946 62.542 122.828 62.5098 122.749 62.4453C122.67 62.3809 122.577 62.2878 122.47 62.166L111.395 49.8877C111.323 49.8161 111.258 49.7803 111.201 49.7803C111.165 49.7803 111.147 49.8161 111.147 49.8877V60.6084C111.147 61.2601 111.663 61.6898 112.694 61.8975C112.981 61.9548 113.199 61.9834 113.35 61.9834C113.5 61.9834 113.575 62.012 113.575 62.0693V62.3271C113.575 62.3844 113.547 62.4131 113.489 62.4131H107.903ZM137.187 52.7451C137.265 52.7666 137.305 52.8167 137.305 52.8955C137.305 52.9743 137.298 53.028 137.283 53.0566C137.269 53.0781 137.233 53.0996 137.176 53.1211C137.126 53.1354 137.05 53.1497 136.95 53.1641C136.857 53.1784 136.707 53.207 136.499 53.25C136.291 53.2858 136.105 53.429 135.94 53.6797C135.776 53.9303 135.6 54.2777 135.414 54.7217L130.365 67.2363L129.667 68.7188C129.488 69.0983 129.112 69.2881 128.539 69.2881C128.288 69.2881 128.088 69.2057 127.938 69.041C127.787 68.8763 127.712 68.6794 127.712 68.4502C127.712 68.2282 127.766 68.0635 127.873 67.9561C127.988 67.8558 128.12 67.7734 128.271 67.709C128.421 67.6445 128.575 67.5837 128.732 67.5264C128.897 67.4762 129.08 67.3545 129.28 67.1611C129.481 66.9749 129.599 66.8353 129.635 66.7422C130.838 64.0495 131.439 62.6423 131.439 62.5205C131.439 62.3988 131.368 62.2484 131.225 62.0693L127.68 54.668C127.415 53.9447 126.96 53.4792 126.315 53.2715C126.265 53.2572 126.204 53.2464 126.133 53.2393C125.832 53.2106 125.682 53.1211 125.682 52.9707C125.682 52.8203 125.768 52.7451 125.939 52.7451H130.72C130.777 52.7451 130.806 52.8024 130.806 52.917C130.806 53.0244 130.756 53.0996 130.655 53.1426C130.555 53.1784 130.333 53.1963 129.989 53.1963C129.438 53.1963 129.162 53.4111 129.162 53.8408L129.259 54.0986L132.041 60.0605C132.184 60.4258 132.327 60.415 132.471 60.0283C132.485 59.9925 132.575 59.7598 132.739 59.3301C133.713 56.8594 134.257 55.4307 134.372 55.0439C134.494 54.6572 134.555 54.3672 134.555 54.1738C134.555 53.9805 134.451 53.7764 134.243 53.5615C134.043 53.3467 133.763 53.2393 133.405 53.2393C133.054 53.2393 132.879 53.1354 132.879 52.9277C132.879 52.806 132.958 52.7451 133.115 52.7451H137.187ZM152.483 59.0293L152.462 56.7627C152.462 55.8389 152.383 55.1908 152.226 54.8184C152.068 54.446 151.868 54.1667 151.624 53.9805C151.381 53.7871 151.051 53.6904 150.636 53.6904C150.228 53.6904 149.357 54.0127 148.025 54.6572C147.846 54.7646 147.753 54.8649 147.746 54.958V60.7373C147.746 61.4606 148.133 61.876 148.906 61.9834C149.243 62.0335 149.411 62.1159 149.411 62.2305C149.411 62.3379 149.375 62.3988 149.304 62.4131H144.513C144.441 62.3988 144.405 62.3486 144.405 62.2627C144.405 62.1266 144.574 62.0335 144.91 61.9834C145.684 61.876 146.07 61.4606 146.07 60.7373V55.3877C146.07 54.2633 145.376 53.7012 143.986 53.7012C143.478 53.7012 142.772 54.002 141.87 54.6035C141.641 54.7539 141.473 54.8936 141.365 55.0225V60.7373C141.365 61.4606 141.752 61.876 142.525 61.9834C142.862 62.0335 143.03 62.1159 143.03 62.2305C143.03 62.3379 142.994 62.3988 142.923 62.4131H138.132C138.06 62.3988 138.024 62.3486 138.024 62.2627C138.024 62.1266 138.193 62.0335 138.529 61.9834C139.303 61.876 139.689 61.4678 139.689 60.7588V54.5713C139.689 54.2705 139.525 54.0628 139.195 53.9482C139.052 53.8981 138.898 53.8587 138.733 53.8301C138.569 53.7943 138.436 53.762 138.336 53.7334C138.243 53.7048 138.182 53.6797 138.153 53.6582C138.132 53.6296 138.121 53.5758 138.121 53.4971C138.121 53.4111 138.175 53.3395 138.282 53.2822L141.021 51.9932C141.107 51.9502 141.161 51.9287 141.183 51.9287C141.304 51.9287 141.365 52.0146 141.365 52.1865V53.9697C141.372 54.0127 141.397 54.0342 141.44 54.0342C141.491 54.0342 141.609 53.984 141.795 53.8838C141.988 53.7835 142.239 53.6439 142.547 53.4648C142.855 53.2786 143.259 53.0638 143.761 52.8203C144.269 52.5768 144.806 52.4551 145.372 52.4551C146.282 52.4551 146.933 52.8454 147.327 53.626C147.478 53.9411 147.614 54.0771 147.735 54.0342C147.857 53.984 148.047 53.8945 148.305 53.7656C148.913 53.4648 149.529 53.1712 150.152 52.8848C150.775 52.5983 151.291 52.4551 151.699 52.4551C153.354 52.4551 154.181 53.9626 154.181 56.9775L154.084 60.1143V60.7373C154.084 61.2959 154.363 61.6611 154.922 61.833C155.158 61.9118 155.384 61.9691 155.599 62.0049C155.821 62.0335 155.964 62.0622 156.028 62.0908C156.1 62.1195 156.136 62.1768 156.136 62.2627C156.136 62.3486 156.1 62.3988 156.028 62.4131H150.851C150.779 62.3988 150.743 62.3486 150.743 62.2627C150.743 62.1266 150.911 62.0335 151.248 61.9834C152.014 61.876 152.397 61.432 152.397 60.6514C152.455 60.2933 152.483 59.7526 152.483 59.0293ZM156.931 62.4131C156.859 62.3988 156.823 62.3486 156.823 62.2627C156.823 62.1338 156.992 62.0479 157.328 62.0049C158.102 61.8903 158.488 61.4821 158.488 60.7803V55.0977C158.488 54.7969 158.324 54.5892 157.994 54.4746C157.851 54.4245 157.697 54.3851 157.532 54.3564C157.368 54.3206 157.235 54.2884 157.135 54.2598C157.042 54.2311 156.981 54.2061 156.952 54.1846C156.931 54.1559 156.92 54.1022 156.92 54.0234C156.92 53.9375 156.974 53.8659 157.081 53.8086L159.82 52.5195C159.906 52.4766 159.96 52.4551 159.981 52.4551C160.103 52.4551 160.164 52.541 160.164 52.7129V60.7803C160.164 61.4821 160.551 61.8903 161.324 62.0049C161.661 62.0479 161.829 62.123 161.829 62.2305C161.829 62.3379 161.793 62.3988 161.722 62.4131H156.931ZM159.165 49.4365C158.871 49.4365 158.61 49.3434 158.381 49.1572C158.159 48.971 158.048 48.7132 158.048 48.3838C158.048 48.0472 158.155 47.7822 158.37 47.5889C158.585 47.3955 158.839 47.2988 159.133 47.2988C159.434 47.2988 159.684 47.4134 159.885 47.6426C160.092 47.8717 160.196 48.1188 160.196 48.3838C160.196 48.6488 160.1 48.8923 159.906 49.1143C159.713 49.3291 159.466 49.4365 159.165 49.4365ZM169.649 54.7109C169.563 54.6966 169.438 54.6501 169.273 54.5713C168.679 54.2992 168.214 54.1631 167.877 54.1631C167.54 54.1631 167.186 54.3743 166.813 54.7969C166.448 55.2122 166.266 55.5882 166.266 55.9248V60.7803C166.266 61.3174 166.577 61.6755 167.2 61.8545C167.472 61.9261 167.727 61.9798 167.963 62.0156C168.199 62.0443 168.35 62.0729 168.414 62.1016C168.486 62.1302 168.521 62.1875 168.521 62.2734C168.521 62.3522 168.486 62.3988 168.414 62.4131H163.032C162.961 62.3988 162.925 62.3486 162.925 62.2627C162.925 62.1338 163.093 62.0479 163.43 62.0049C164.203 61.8903 164.59 61.4821 164.59 60.7803V55.0977C164.59 54.7969 164.425 54.5892 164.096 54.4746C163.952 54.4245 163.799 54.3851 163.634 54.3564C163.469 54.3206 163.337 54.2884 163.236 54.2598C163.143 54.2311 163.082 54.2061 163.054 54.1846C163.032 54.1559 163.021 54.1022 163.021 54.0234C163.021 53.9375 163.075 53.8659 163.183 53.8086L165.922 52.5195C166.008 52.4766 166.062 52.4551 166.083 52.4551C166.205 52.4551 166.266 52.541 166.266 52.7129V54.4531C166.266 54.5391 166.287 54.582 166.33 54.582C166.387 54.582 166.534 54.4137 166.771 54.0771C167.451 53.1247 168.013 52.6484 168.457 52.6484C168.708 52.6484 169.091 52.7487 169.606 52.9492C170.129 53.1497 170.391 53.318 170.391 53.4541C170.391 53.6188 170.308 53.8695 170.144 54.2061C169.979 54.5426 169.814 54.7109 169.649 54.7109ZM172.883 56.752C172.761 56.752 172.7 57.0133 172.7 57.5361C172.7 58.6462 173.03 59.5771 173.688 60.3291C174.347 61.0811 175.164 61.457 176.138 61.457C177.119 61.457 178.061 61.0345 178.963 60.1895C178.977 60.1751 178.995 60.168 179.017 60.168H179.07C179.113 60.168 179.153 60.2038 179.188 60.2754C179.231 60.3398 179.271 60.3828 179.307 60.4043C178.476 61.4141 177.498 62.1123 176.374 62.499C175.987 62.6351 175.55 62.7031 175.063 62.7031C174.576 62.7031 174.082 62.5706 173.581 62.3057C173.08 62.0335 172.65 61.679 172.292 61.2422C171.533 60.3327 171.153 59.2012 171.153 57.8477C171.153 56.487 171.565 55.248 172.389 54.1309C173.219 53.0137 174.358 52.4551 175.805 52.4551C176.843 52.4551 177.692 52.9206 178.351 53.8516C179.009 54.7754 179.339 55.5882 179.339 56.29C179.339 56.598 179.264 56.752 179.113 56.752H172.883ZM173.001 55.7207C173.001 55.8568 173.065 55.9248 173.194 55.9248H177.244C177.43 55.9248 177.523 55.8138 177.523 55.5918C177.523 55.0762 177.291 54.5498 176.825 54.0127C176.367 53.4684 175.862 53.1963 175.311 53.1963C174.773 53.1963 174.283 53.4398 173.839 53.9268C173.402 54.4137 173.123 54.9688 173.001 55.5918V55.7207ZM174.29 50.6396C174.261 50.611 174.247 50.5895 174.247 50.5752C174.247 50.5609 174.261 50.5394 174.29 50.5107L176.578 47.3418C176.836 46.9909 177.09 46.8154 177.341 46.8154C177.591 46.8154 177.788 46.8978 177.932 47.0625C178.082 47.2201 178.157 47.4349 178.157 47.707C178.157 47.9792 177.96 48.2835 177.566 48.6201L174.677 50.9512C174.641 50.9727 174.612 50.9834 174.591 50.9834C174.569 50.9834 174.548 50.9727 174.526 50.9512L174.29 50.6396ZM187.782 60.6406C187.782 60.8268 187.868 60.9772 188.04 61.0918C188.219 61.1992 188.423 61.2529 188.652 61.2529C188.882 61.2529 189.071 61.1956 189.222 61.0811C189.379 60.9593 189.487 60.8984 189.544 60.8984C189.601 60.8984 189.63 60.9772 189.63 61.1348C189.63 61.2852 189.558 61.4141 189.415 61.5215C188.341 62.3092 187.614 62.7031 187.234 62.7031C186.776 62.7031 186.404 62.2269 186.117 61.2744C186.096 61.2028 186.078 61.1706 186.063 61.1777C185.175 61.8438 184.617 62.2448 184.388 62.3809C183.8 62.7174 183.21 62.7712 182.615 62.542C182.028 62.3128 181.602 61.9333 181.337 61.4033C181.208 61.1312 181.144 60.8411 181.144 60.5332C181.144 59.9245 181.369 59.4411 181.82 59.083C182.271 58.7249 183.131 58.3812 184.398 58.0518C184.828 57.9372 185.211 57.7904 185.548 57.6113C185.884 57.4323 186.06 57.3177 186.074 57.2676C186.096 57.2174 186.106 57.1709 186.106 57.1279V55.0654C186.106 54.2562 185.791 53.6868 185.161 53.3574C184.953 53.25 184.703 53.1963 184.409 53.1963C184.123 53.1963 183.829 53.3109 183.528 53.54C183.235 53.7692 183.088 54.0951 183.088 54.5176L183.142 54.9365C183.099 55.0225 182.841 55.1657 182.368 55.3662C181.896 55.5667 181.623 55.6742 181.552 55.6885C181.437 55.6885 181.38 55.5524 181.38 55.2803C181.38 55.001 181.462 54.693 181.627 54.3564C181.792 54.0199 182.024 53.7119 182.325 53.4326C183.027 52.7809 183.829 52.4551 184.731 52.4551C185.634 52.4551 186.368 52.7057 186.934 53.207C187.499 53.7012 187.782 54.292 187.782 54.9795V60.6406ZM182.83 60.3291C182.83 60.6729 182.963 60.9736 183.228 61.2314C183.493 61.4821 183.793 61.6074 184.13 61.6074C184.474 61.6074 184.889 61.4642 185.376 61.1777C185.863 60.8841 186.106 60.5833 186.106 60.2754V58.0947C186.106 58.016 186.089 57.9766 186.053 57.9766C186.017 57.9766 185.992 57.9801 185.978 57.9873L183.485 59.1475C183.228 59.3337 183.052 59.4912 182.959 59.6201C182.873 59.749 182.83 59.9854 182.83 60.3291Z" fill="#EFB85F"/>
<path d="M141.324 120.68C134.829 121.645 132.414 122.128 131.287 122.718C130.643 123.093 129.623 123.361 129.033 123.361C128.442 123.361 127.047 123.737 125.92 124.22C121.357 126.151 120.552 126.526 118.513 127.492C113.467 129.852 106.704 134.84 101.552 139.935C97.58 143.905 91.4076 152.647 89.4217 157.153C88.7239 158.762 87.9188 160.586 87.6505 161.176C86.6844 163.214 85.3962 167.076 84.9668 169.221C84.6984 170.401 84.2691 172.44 83.947 173.781C82.5515 180.432 82.7662 193.895 84.4837 200.921C87.4358 213.097 94.628 225.863 103.108 233.908C104.611 235.41 105.899 236.805 105.899 237.073C105.899 237.395 105.094 237.931 104.128 238.36C100.049 240.023 98.8145 244.314 101.337 248.015C103.055 250.589 103.001 252.145 101.069 258.152C100.21 260.888 99.0829 264.428 98.5998 266.037C96.7749 272.098 96.5066 272.581 95.1647 273.063C91.2466 274.512 89.7974 276.389 89.7974 280.09C89.7974 282.075 90.1194 282.718 91.5686 284.166L93.3398 285.883H148.892C204.014 285.883 204.497 285.883 205.732 284.81C209.864 281.216 208.254 274.619 202.941 273.278C201.438 272.903 201.169 272.259 197.734 261.21C196.768 258.099 195.641 254.612 195.212 253.432C194.299 250.697 194.299 250.214 195.212 249.302C196.231 248.229 197.681 245.333 197.681 244.314C197.681 242.168 195.856 239.647 193.548 238.521C192.313 237.931 191.24 237.287 191.24 237.126C191.24 236.912 192.743 235.356 194.568 233.586C198.808 229.456 204.98 221.142 207.288 216.369C208.308 214.33 209.328 212.239 209.542 211.756C210.294 210.254 212.011 204.89 213.031 200.868C213.836 197.917 214.051 194.967 214.051 187.19C214.051 175.497 213.461 172.171 209.167 160.318C206.966 154.149 201.169 145.567 195.265 139.721C189.737 134.143 184.96 130.71 178.412 127.384C171.649 124.005 168.429 122.932 160.109 121.216C156.299 120.465 145.135 120.143 141.324 120.68ZM161.183 124.595C171.059 126.633 180.613 131.192 188.288 137.522C191.83 140.418 196.822 145.621 198.647 148.303C199.452 149.483 200.203 150.556 200.364 150.717C201.438 151.682 204.927 158.333 206.537 162.517C210.348 172.44 210.831 175.122 210.777 186.922C210.777 195.611 210.616 197.757 209.65 201.404C207.557 209.128 204.819 215.35 201.062 221.089C198.217 225.38 191.83 232.299 187.858 235.303L184.531 237.877L149.106 237.931C129.623 237.985 113.199 237.824 112.501 237.555C110.891 236.965 109.066 235.41 104.128 230.422C96.2382 222.376 90.9782 212.775 87.5431 200.17C86.577 196.63 86.416 194.538 86.416 185.849C86.416 177.16 86.577 175.068 87.5431 171.635C89.0996 165.95 89.6901 164.287 91.4613 160.479C92.32 158.601 93.0178 156.992 93.0178 156.831C93.0178 156.617 93.7692 155.437 94.628 154.096C95.5404 152.808 96.2382 151.521 96.2382 151.199C96.2382 150.931 96.4529 150.717 96.7213 150.717C96.9896 150.717 97.419 150.234 97.58 149.59C97.7947 149 100.371 145.943 103.377 142.885C108.261 137.79 110.086 136.342 118.513 130.978C119.103 130.656 119.962 130.173 120.391 130.012C120.821 129.852 121.626 129.476 122.109 129.208C123.075 128.725 125.49 127.813 130.052 126.204C131.394 125.775 135.151 124.917 138.372 124.381C145.027 123.254 155.01 123.361 161.183 124.595ZM193.065 241.954C194.89 243.402 194.89 245.279 193.011 246.674C191.616 247.8 191.508 247.8 148.194 247.693L104.772 247.532L103.752 246.191C102.572 244.636 102.786 243.134 104.397 241.739C105.416 240.881 108.315 240.827 148.57 240.827C191.347 240.827 191.616 240.827 193.065 241.954ZM191.562 252.199C192.099 253.164 192.689 254.827 192.904 255.846C193.118 256.865 193.601 258.581 193.924 259.6C195.695 264.481 196.017 265.447 197.037 268.719C197.627 270.65 198.003 272.366 197.842 272.581C197.734 272.849 193.333 273.01 188.073 273.01H178.519L177.607 270.972C176.319 268.182 172.401 264.213 169.341 262.711C166.872 261.478 166.55 261.478 148.57 261.478H130.321L127.744 263.033C125.329 264.481 120.391 269.523 120.391 270.543C120.391 270.811 120.015 271.508 119.479 272.044C118.727 272.903 117.654 273.01 109.334 273.01C104.236 273.01 99.9416 272.795 99.7806 272.527C99.6196 272.259 99.8343 271.347 100.264 270.543C100.693 269.684 101.069 268.558 101.069 268.075C101.069 267.539 101.391 266.359 101.82 265.393C102.196 264.428 102.894 262.39 103.377 260.941C105.738 253.003 106.168 251.769 106.919 251.126C107.563 250.643 116.795 250.482 149.214 250.482H190.649L191.562 252.199ZM168.268 265.393C170.951 266.734 175.46 271.508 174.87 272.473C174.333 273.332 122.538 273.224 122.538 272.313C122.592 270.489 128.335 265.662 132.199 264.267C132.629 264.106 140.358 263.999 149.375 264.052C165.316 264.16 165.799 264.213 168.268 265.393ZM204.336 277.569C205.41 279.178 205.41 280.519 204.443 281.914C203.692 282.933 202.404 282.933 149.75 283.094C115.131 283.147 95.3257 283.04 94.4133 282.665C93.2325 282.235 93.0178 281.806 93.0178 280.197C93.0178 279.071 93.3935 277.73 93.9302 277.194C94.7353 276.282 97.1506 276.228 149.106 276.228H203.477L204.336 277.569Z" fill="#EFB85F"/>
<path d="M140.787 140.794C133.97 142.135 127.691 145.836 122.86 151.36C120.445 154.096 119.854 156.027 121.303 156.456C121.625 156.617 123.45 155.061 125.329 153.13C128.764 149.483 132.682 146.855 137.03 145.192C139.445 144.28 142.397 143.958 142.397 144.602C142.397 144.817 140.894 146.587 139.069 148.571C137.191 150.502 135.097 153.345 134.4 154.793C133.702 156.241 132.897 157.85 132.628 158.387C130.213 163.214 130.159 175.443 132.467 180.217C136.386 188.316 141.055 193.519 146.852 196.416C150.663 198.293 152.488 198.937 155.976 199.419C160.217 200.063 167.623 199.419 170.683 198.186C172.883 197.274 174.601 197.167 174.601 197.918C174.601 198.722 170.307 202.691 167.355 204.622C164.779 206.285 161.075 207.948 157.694 208.967C156.567 209.342 156.03 209.879 155.923 210.737C155.708 211.971 155.815 212.024 158.392 211.702C159.894 211.541 161.558 211.166 162.095 210.898C162.632 210.63 164.725 209.611 166.765 208.591C171.005 206.5 177.392 200.599 179.163 197.113C179.754 195.933 180.559 194.538 180.934 194.056C181.847 192.983 181.578 190.945 180.505 190.247C179.861 189.872 178.895 190.247 176.748 191.642C164.564 199.366 150.931 198.025 141.485 188.048C136.117 182.47 133.809 176.784 133.809 169.597C133.863 161.98 136.6 155.49 141.86 150.127C145.617 146.372 147.711 145.085 151.468 144.066C154.259 143.315 155.279 142.081 154.259 140.847C153.346 139.775 145.993 139.721 140.787 140.794Z" fill="#EFB85F"/>
<path d="M171.918 150.448C171.005 151.521 172.079 152.862 173.528 152.486C174.87 152.111 174.923 150.931 173.582 150.234C172.83 149.804 172.401 149.858 171.918 150.448Z" fill="#EFB85F"/>
<path d="M116.902 160.372C115.722 162.624 115.883 163.59 117.332 163.59C118.244 163.59 118.835 163.053 119.479 161.659C120.015 160.64 120.284 159.513 120.123 159.245C119.425 158.226 117.707 158.816 116.902 160.372Z" fill="#EFB85F"/>
<path d="M185.658 165.628C184.531 168.257 183.726 169.168 181.686 170.027C180.076 170.724 180.398 171.689 182.599 172.762C183.941 173.352 184.692 174.318 185.551 176.356C186.195 177.858 186.839 179.252 187.054 179.413C187.215 179.628 187.537 178.501 187.751 177.053C188.127 174.318 189.791 172.172 191.509 172.172C192.26 172.172 192.958 170.831 192.475 170.348C192.26 170.188 191.723 170.027 191.186 170.027C189.952 170.027 188.02 167.559 188.02 165.95C188.02 164.556 187.537 163.054 187 163.054C186.839 163.054 186.195 164.18 185.658 165.628Z" fill="#EFB85F"/>
<path d="M155.279 167.827C154.956 168.739 154.044 169.811 153.346 170.294C151.682 171.367 151.682 172.386 153.346 173.137C154.098 173.459 154.903 174.531 155.279 175.604C155.601 176.677 156.084 177.535 156.352 177.535C156.889 177.535 157.425 176.194 157.425 174.8C157.425 174.21 158.016 173.512 158.767 173.137C160.431 172.386 160.431 171.903 158.821 170.401C158.123 169.758 157.425 168.631 157.318 167.934C157.05 166.003 156.084 166.003 155.279 167.827Z" fill="#EFB85F"/>
<path d="M114.487 168.149C113.735 170.187 113.843 171.635 114.755 171.957C116.151 172.493 117.224 171.099 117.063 169.007C116.848 166.593 115.292 166.057 114.487 168.149Z" fill="#EFB85F"/>
<path d="M113.682 177.16C113.306 178.501 114.165 181.29 114.916 181.29C115.775 181.29 116.634 179.949 116.634 178.608C116.634 176.087 114.219 174.907 113.682 177.16Z" fill="#EFB85F"/>
<path d="M99.7805 179.52C99.6195 179.68 99.4584 180.539 99.4584 181.397C99.4584 183.381 97.4725 186.117 96.0234 186.117C95.3793 186.117 94.5742 186.332 94.1448 186.6C93.5544 186.975 93.8764 187.351 95.4866 188.155C98.2776 189.603 99.3511 190.837 99.5658 193.036C99.7805 195.611 100.908 195.718 101.337 193.251C101.766 190.73 102.41 189.872 104.987 188.584C107.187 187.458 107.348 186.492 105.309 186.224C103.377 185.956 101.605 184.025 101.23 181.719C100.908 179.627 100.425 178.876 99.7805 179.52Z" fill="#EFB85F"/>
<path d="M115.024 185.527C115.024 187.512 116.043 189.335 117.117 189.335C118.673 189.335 118.888 188.638 117.976 186.439C117.063 184.294 115.024 183.65 115.024 185.527Z" fill="#EFB85F"/>
<path d="M118.781 193.787C118.781 195.289 120.177 197.381 121.25 197.381C122.484 197.381 122.699 196.04 121.733 194.216C120.713 192.178 118.781 191.91 118.781 193.787Z" fill="#EFB85F"/>
<path d="M185.712 209.45C185.228 210.469 184.101 211.649 183.189 212.132C181.149 213.205 181.096 214.385 183.135 214.814C184.262 215.028 184.906 215.726 185.604 217.281C186.946 220.231 187.483 220.124 188.234 216.691C188.395 215.833 189.093 215.136 190.166 214.706C192.099 213.955 191.884 212.722 189.63 211.917C188.449 211.542 188.019 210.952 187.697 209.504C187.268 207.09 186.839 207.09 185.712 209.45Z" fill="#EFB85F"/>
<path d="M113.521 209.289C113.145 209.664 112.877 210.2 112.877 210.576C112.877 210.951 112.126 211.863 111.213 212.614C109.603 213.955 109.496 215.081 110.998 215.081C111.428 215.081 112.126 215.779 112.609 216.637C113.789 218.997 114.38 219.104 115.239 216.959C115.668 215.94 116.419 215.081 116.849 215.081C118.405 215.081 118.352 213.901 116.688 212.4C115.775 211.541 115.024 210.469 115.024 210.039C115.024 208.913 114.273 208.538 113.521 209.289Z" fill="#EFB85F"/>
<path d="M163.491 223.503C162.954 224.629 161.88 225.863 161.022 226.238C159.573 226.936 159.465 227.955 160.914 227.955C161.344 227.955 162.31 229.027 163.115 230.368C164.564 232.889 165.477 233.104 165.477 230.958C165.477 229.671 166.657 228.384 168.321 227.794C169.395 227.418 169.073 226.346 167.946 226.346C166.926 226.346 165.477 224.522 165.477 223.235C165.477 221.304 164.51 221.411 163.491 223.503Z" fill="#EFB85F"/>
<path d="M127.583 226.077C127.154 227.15 127.798 227.954 129.033 227.954C129.784 227.954 130.052 227.579 130.052 226.613C130.052 225.648 129.784 225.272 128.979 225.272C128.389 225.272 127.744 225.648 127.583 226.077Z" fill="#EFB85F"/>
</g>
</g>
<defs>
<clipPath id="clip0_261_24860">
<rect width="297.638" height="419.528" rx="10" fill="white"/>
</clipPath>
<clipPath id="clip1_261_24860">
<rect width="259" height="381" fill="white" transform="translate(19.041 19.4131)"/>
</clipPath>
</defs>
</svg>
