<svg width="298" height="420" viewBox="0 0 298 420" fill="none" xmlns="http://www.w3.org/2000/svg">
<g clip-path="url(#clip0_71_782)">
<rect width="297.638" height="419.528" rx="10" fill="#032206"/>
<circle cx="38" cy="268" r="1" fill="#EFB85F"/>
<circle cx="252" cy="276" r="1" fill="#EFB85F"/>
<circle cx="212" cy="128" r="1" fill="#EFB85F"/>
<circle cx="242" cy="95" r="1" fill="#EFB85F"/>
<circle cx="126" cy="65" r="1" fill="#EFB85F"/>
<circle cx="60" cy="97" r="1" fill="#EFB85F"/>
<circle cx="188" cy="96" r="1" fill="#EFB85F"/>
<circle cx="75" cy="322" r="1" fill="#EFB85F"/>
<circle cx="165" cy="362" r="1" fill="#EFB85F"/>
<circle cx="67" cy="375" r="1" fill="#EFB85F"/>
<circle cx="115" cy="392" r="1" fill="#EFB85F"/>
<circle cx="165" cy="394" r="1" fill="#EFB85F"/>
<circle cx="216" cy="104" r="1" fill="#EFB85F"/>
<circle cx="163" cy="90" r="1" fill="#EFB85F"/>
<circle cx="163" cy="90" r="1" fill="#EFB85F"/>
<circle cx="22" cy="311" r="1" fill="#EFB85F"/>
<circle cx="142" cy="353" r="1" fill="#EFB85F"/>
<circle cx="56" cy="306" r="1" fill="#EFB85F"/>
<circle cx="89" cy="339" r="1" fill="#EFB85F"/>
<circle cx="89" cy="339" r="1" fill="#EFB85F"/>
<circle cx="230" cy="380" r="1" fill="#EFB85F"/>
<circle cx="236" cy="336" r="1" fill="#EFB85F"/>
<circle cx="236" cy="336" r="1" fill="#EFB85F"/>
<circle cx="210" cy="81" r="1" fill="#EFB85F"/>
<circle cx="275" cy="185" r="1" fill="#EFB85F"/>
<path d="M199 342C199 342.552 198.552 343 198 343C197.448 343 197 342.552 197 342C197 341.448 197.448 341 198 341C198.552 341 199 341.448 199 342Z" fill="#EFB85F"/>
<path d="M229.5 360L230.696 361.975L233 363L230.696 364.025L229.5 366L228.304 364.025L226 363L228.304 361.975L229.5 360Z" fill="#EFB85F"/>
<circle cx="252" cy="318" r="1" fill="#EFB85F"/>
<circle cx="226" cy="79" r="1" fill="#EFB85F"/>
<circle cx="221" cy="305" r="1" fill="#EFB85F"/>
<circle cx="264" cy="157" r="1" fill="#EFB85F"/>
<circle cx="197" cy="371" r="1" fill="#EFB85F"/>
<circle cx="227" cy="344" r="1" fill="#EFB85F"/>
<circle cx="23" cy="156" r="1" fill="#EFB85F"/>
<circle cx="71" cy="81" r="1" fill="#EFB85F"/>
<circle cx="41" cy="78" r="1" fill="#EFB85F"/>
<circle cx="75" cy="73" r="1" fill="#EFB85F"/>
<circle cx="39" cy="142" r="1" fill="#EFB85F"/>
<path d="M33.7303 224.64L38 224.5L33.7303 224.36L35.0694 222.931L33.6397 224.27L33.5 220L33.3603 224.27L31.9306 222.931L33.2697 224.36L29 224.5L33.2697 224.64L31.9306 226.069L33.3603 224.73L33.5 229L33.6397 224.73L35.0694 226.069L33.7303 224.64Z" fill="#EFB85F"/>
<path d="M28.7303 289.64L33 289.5L28.7303 289.36L30.0694 287.931L28.6397 289.27L28.5 285L28.3603 289.27L26.9306 287.931L28.2697 289.36L24 289.5L28.2697 289.64L26.9306 291.069L28.3603 289.73L28.5 294L28.6397 289.73L30.0694 291.069L28.7303 289.64Z" fill="#EFB85F"/>
<path d="M45.7303 347.64L50 347.5L45.7303 347.36L47.0694 345.931L45.6397 347.27L45.5 343L45.3603 347.27L43.9306 345.931L45.2697 347.36L41 347.5L45.2697 347.64L43.9306 349.069L45.3603 347.73L45.5 352L45.6397 347.73L47.0694 349.069L45.7303 347.64Z" fill="#EFB85F"/>
<path d="M126.73 376.64L131 376.5L126.73 376.36L128.069 374.931L126.64 376.27L126.5 372L126.36 376.27L124.931 374.931L126.27 376.36L122 376.5L126.27 376.64L124.931 378.069L126.36 376.73L126.5 381L126.64 376.73L128.069 378.069L126.73 376.64Z" fill="#EFB85F"/>
<path d="M251.73 383.64L256 383.5L251.73 383.36L253.069 381.931L251.64 383.27L251.5 379L251.36 383.27L249.931 381.931L251.27 383.36L247 383.5L251.27 383.64L249.931 385.069L251.36 383.73L251.5 388L251.64 383.73L253.069 385.069L251.73 383.64Z" fill="#EFB85F"/>
<path d="M264.73 219.64L269 219.5L264.73 219.36L266.069 217.931L264.64 219.27L264.5 215L264.36 219.27L262.931 217.931L264.27 219.36L260 219.5L264.27 219.64L262.931 221.069L264.36 219.73L264.5 224L264.64 219.73L266.069 221.069L264.73 219.64Z" fill="#EFB85F"/>
<path d="M264.73 219.64L269 219.5L264.73 219.36L266.069 217.931L264.64 219.27L264.5 215L264.36 219.27L262.931 217.931L264.27 219.36L260 219.5L264.27 219.64L262.931 221.069L264.36 219.73L264.5 224L264.64 219.73L266.069 221.069L264.73 219.64Z" fill="#EFB85F"/>
<path d="M135.73 103.64L140 103.5L135.73 103.36L137.069 101.931L135.64 103.27L135.5 99L135.36 103.27L133.931 101.931L135.27 103.36L131 103.5L135.27 103.64L133.931 105.069L135.36 103.73L135.5 108L135.64 103.73L137.069 105.069L135.73 103.64Z" fill="#EFB85F"/>
<path d="M135.73 103.64L140 103.5L135.73 103.36L137.069 101.931L135.64 103.27L135.5 99L135.36 103.27L133.931 101.931L135.27 103.36L131 103.5L135.27 103.64L133.931 105.069L135.36 103.73L135.5 108L135.64 103.73L137.069 105.069L135.73 103.64Z" fill="#EFB85F"/>
<path d="M135.73 103.64L140 103.5L135.73 103.36L137.069 101.931L135.64 103.27L135.5 99L135.36 103.27L133.931 101.931L135.27 103.36L131 103.5L135.27 103.64L133.931 105.069L135.36 103.73L135.5 108L135.64 103.73L137.069 105.069L135.73 103.64Z" fill="#EFB85F"/>
<path d="M160.73 76.6397L165 76.5L160.73 76.3603L162.069 74.9306L160.64 76.2697L160.5 72L160.36 76.2697L158.931 74.9306L160.27 76.3603L156 76.5L160.27 76.6397L158.931 78.0694L160.36 76.7303L160.5 81L160.64 76.7303L162.069 78.0694L160.73 76.6397Z" fill="#EFB85F"/>
<path d="M193.73 332.64L198 332.5L193.73 332.36L195.069 330.931L193.64 332.27L193.5 328L193.36 332.27L191.931 330.931L193.27 332.36L189 332.5L193.27 332.64L191.931 334.069L193.36 332.73L193.5 337L193.64 332.73L195.069 334.069L193.73 332.64Z" fill="#EFB85F"/>
<path d="M193.73 332.64L198 332.5L193.73 332.36L195.069 330.931L193.64 332.27L193.5 328L193.36 332.27L191.931 330.931L193.27 332.36L189 332.5L193.27 332.64L191.931 334.069L193.36 332.73L193.5 337L193.64 332.73L195.069 334.069L193.73 332.64Z" fill="#EFB85F"/>
<path d="M237.73 270.64L242 270.5L237.73 270.36L239.069 268.931L237.64 270.27L237.5 266L237.36 270.27L235.931 268.931L237.27 270.36L233 270.5L237.27 270.64L235.931 272.069L237.36 270.73L237.5 275L237.64 270.73L239.069 272.069L237.73 270.64Z" fill="#EFB85F"/>
<path d="M250.687 132.405C250.726 132.079 250.791 131.305 250.843 130.693C250.895 129.986 250.986 129.538 251.09 129.497C251.181 129.457 251.596 129.674 251.998 129.973C252.414 130.285 252.777 130.503 252.816 130.462C252.842 130.435 252.595 130 252.271 129.511C251.856 128.913 251.713 128.614 251.83 128.573C251.92 128.546 252.582 128.451 253.296 128.356C255.581 128.084 255.568 127.935 253.257 127.676C252.453 127.581 251.778 127.459 251.752 127.418C251.713 127.364 251.959 126.97 252.271 126.535C252.582 126.086 252.816 125.692 252.777 125.652C252.738 125.624 252.349 125.855 251.92 126.168C251.479 126.494 251.09 126.698 251.038 126.644C250.973 126.576 250.869 125.76 250.778 124.823C250.545 122.377 250.441 122.39 250.194 124.877C250.103 125.815 249.999 126.63 249.948 126.671C249.909 126.712 249.519 126.494 249.078 126.182C248.65 125.855 248.273 125.624 248.234 125.665C248.208 125.692 248.403 126.059 248.688 126.467C248.974 126.861 249.208 127.269 249.208 127.35C249.208 127.445 248.65 127.568 247.741 127.676C245.418 127.935 245.418 128.084 247.754 128.369C248.637 128.478 249.208 128.614 249.208 128.696C249.208 128.777 248.974 129.185 248.688 129.579C248.078 130.435 248.026 130.652 248.52 130.313C248.727 130.19 249.104 129.919 249.376 129.728C249.999 129.307 250.051 129.375 250.168 130.843C250.337 133.003 250.532 133.574 250.687 132.405Z" fill="#EFB85F"/>
<path d="M36.6874 112.405C36.7263 112.079 36.7912 111.305 36.8431 110.693C36.8951 109.986 36.9859 109.538 37.0897 109.497C37.1806 109.457 37.596 109.674 37.9983 109.973C38.4137 110.285 38.7771 110.503 38.8161 110.462C38.842 110.435 38.5954 110 38.2709 109.511C37.8556 108.913 37.7128 108.614 37.8296 108.573C37.9205 108.546 38.5824 108.451 39.2963 108.356C41.5808 108.084 41.5678 107.935 39.2574 107.676C38.4526 107.581 37.7777 107.459 37.7517 107.418C37.7128 107.364 37.9594 106.97 38.2709 106.535C38.5824 106.086 38.8161 105.692 38.7771 105.652C38.7382 105.624 38.3488 105.855 37.9205 106.168C37.4791 106.494 37.0897 106.698 37.0378 106.644C36.9729 106.576 36.8691 105.76 36.7782 104.823C36.5446 102.377 36.4408 102.39 36.1941 104.877C36.1033 105.815 35.9994 106.63 35.9475 106.671C35.9086 106.712 35.5192 106.494 35.0779 106.182C34.6495 105.855 34.2731 105.624 34.2342 105.665C34.2082 105.692 34.4029 106.059 34.6885 106.467C34.974 106.861 35.2077 107.269 35.2077 107.35C35.2077 107.445 34.6495 107.568 33.7409 107.676C31.4175 107.935 31.4175 108.084 33.7539 108.369C34.6365 108.478 35.2077 108.614 35.2077 108.696C35.2077 108.777 34.974 109.185 34.6885 109.579C34.0784 110.435 34.0265 110.652 34.5197 110.313C34.7274 110.19 35.1038 109.919 35.3764 109.728C35.9994 109.307 36.0514 109.375 36.1682 110.843C36.3369 113.003 36.5316 113.574 36.6874 112.405Z" fill="#EFB85F"/>
<path d="M268.687 304.405C268.726 304.079 268.791 303.305 268.843 302.693C268.895 301.986 268.986 301.538 269.09 301.497C269.181 301.457 269.596 301.674 269.998 301.973C270.414 302.285 270.777 302.503 270.816 302.462C270.842 302.435 270.595 302 270.271 301.511C269.856 300.913 269.713 300.614 269.83 300.573C269.92 300.546 270.582 300.451 271.296 300.356C273.581 300.084 273.568 299.935 271.257 299.676C270.453 299.581 269.778 299.459 269.752 299.418C269.713 299.364 269.959 298.97 270.271 298.535C270.582 298.086 270.816 297.692 270.777 297.652C270.738 297.624 270.349 297.855 269.92 298.168C269.479 298.494 269.09 298.698 269.038 298.644C268.973 298.576 268.869 297.76 268.778 296.823C268.545 294.377 268.441 294.39 268.194 296.877C268.103 297.815 267.999 298.63 267.948 298.671C267.909 298.712 267.519 298.494 267.078 298.182C266.65 297.855 266.273 297.624 266.234 297.665C266.208 297.692 266.403 298.059 266.688 298.467C266.974 298.861 267.208 299.269 267.208 299.35C267.208 299.445 266.65 299.568 265.741 299.676C263.418 299.935 263.418 300.084 265.754 300.369C266.637 300.478 267.208 300.614 267.208 300.696C267.208 300.777 266.974 301.185 266.688 301.579C266.078 302.435 266.026 302.652 266.52 302.313C266.727 302.19 267.104 301.919 267.376 301.728C267.999 301.307 268.051 301.375 268.168 302.843C268.337 305.003 268.532 305.574 268.687 304.405Z" fill="#EFB85F"/>
<path d="M54.6874 273.405C54.7263 273.079 54.7912 272.305 54.8431 271.693C54.8951 270.986 54.9859 270.538 55.0897 270.497C55.1806 270.457 55.596 270.674 55.9983 270.973C56.4137 271.285 56.7771 271.503 56.8161 271.462C56.842 271.435 56.5954 271 56.2709 270.511C55.8556 269.913 55.7128 269.614 55.8296 269.573C55.9205 269.546 56.5824 269.451 57.2963 269.356C59.5808 269.084 59.5678 268.935 57.2574 268.676C56.4526 268.581 55.7777 268.459 55.7517 268.418C55.7128 268.364 55.9594 267.97 56.2709 267.535C56.5824 267.086 56.8161 266.692 56.7771 266.652C56.7382 266.624 56.3488 266.855 55.9205 267.168C55.4791 267.494 55.0897 267.698 55.0378 267.644C54.9729 267.576 54.8691 266.76 54.7782 265.823C54.5446 263.377 54.4408 263.39 54.1941 265.877C54.1033 266.815 53.9994 267.63 53.9475 267.671C53.9086 267.712 53.5192 267.494 53.0779 267.182C52.6495 266.855 52.2731 266.624 52.2342 266.665C52.2082 266.692 52.4029 267.059 52.6885 267.467C52.974 267.861 53.2077 268.269 53.2077 268.35C53.2077 268.445 52.6495 268.568 51.7409 268.676C49.4175 268.935 49.4175 269.084 51.7539 269.369C52.6365 269.478 53.2077 269.614 53.2077 269.696C53.2077 269.777 52.974 270.185 52.6885 270.579C52.0784 271.435 52.0265 271.652 52.5197 271.313C52.7274 271.19 53.1038 270.919 53.3764 270.728C53.9994 270.307 54.0514 270.375 54.1682 271.843C54.3369 274.003 54.5316 274.574 54.6874 273.405Z" fill="#EFB85F"/>
<path d="M49.6874 394.405C49.7263 394.079 49.7912 393.305 49.8431 392.693C49.8951 391.986 49.9859 391.538 50.0897 391.497C50.1806 391.457 50.596 391.674 50.9983 391.973C51.4137 392.285 51.7771 392.503 51.8161 392.462C51.842 392.435 51.5954 392 51.2709 391.511C50.8556 390.913 50.7128 390.614 50.8296 390.573C50.9205 390.546 51.5824 390.451 52.2963 390.356C54.5808 390.084 54.5678 389.935 52.2574 389.676C51.4526 389.581 50.7777 389.459 50.7517 389.418C50.7128 389.364 50.9594 388.97 51.2709 388.535C51.5824 388.086 51.8161 387.692 51.7771 387.652C51.7382 387.624 51.3488 387.855 50.9205 388.168C50.4791 388.494 50.0897 388.698 50.0378 388.644C49.9729 388.576 49.8691 387.76 49.7782 386.823C49.5446 384.377 49.4408 384.39 49.1941 386.877C49.1033 387.815 48.9994 388.63 48.9475 388.671C48.9086 388.712 48.5192 388.494 48.0779 388.182C47.6495 387.855 47.2731 387.624 47.2342 387.665C47.2082 387.692 47.4029 388.059 47.6885 388.467C47.974 388.861 48.2077 389.269 48.2077 389.35C48.2077 389.445 47.6495 389.568 46.7409 389.676C44.4175 389.935 44.4175 390.084 46.7539 390.369C47.6365 390.478 48.2077 390.614 48.2077 390.696C48.2077 390.777 47.974 391.185 47.6885 391.579C47.0784 392.435 47.0265 392.652 47.5197 392.313C47.7274 392.19 48.1038 391.919 48.3764 391.728C48.9994 391.307 49.0514 391.375 49.1682 392.843C49.3369 395.003 49.5316 395.574 49.6874 394.405Z" fill="#EFB85F"/>
<path d="M229.5 360L230.696 361.975L233 363L230.696 364.025L229.5 366L228.304 364.025L226 363L228.304 361.975L229.5 360Z" fill="#EFB85F"/>
<path d="M44.5002 364L45.696 365.975L48 367L45.696 368.025L44.5002 370L43.304 368.025L41 367L43.304 365.975L44.5002 364Z" fill="#EFB85F"/>
<path d="M27.5002 85L28.696 86.9748L31 88L28.696 89.0249L27.5002 91L26.304 89.0249L24 88L26.304 86.9748L27.5002 85Z" fill="#EFB85F"/>
<circle cx="119" cy="76" r="1" fill="#EFB85F"/>
<path d="M114.687 110.405C114.726 110.079 114.791 109.305 114.843 108.693C114.895 107.986 114.986 107.538 115.09 107.497C115.181 107.457 115.596 107.674 115.998 107.973C116.414 108.285 116.777 108.503 116.816 108.462C116.842 108.435 116.595 108 116.271 107.511C115.856 106.913 115.713 106.614 115.83 106.573C115.92 106.546 116.582 106.451 117.296 106.356C119.581 106.084 119.568 105.935 117.257 105.676C116.453 105.581 115.778 105.459 115.752 105.418C115.713 105.364 115.959 104.97 116.271 104.535C116.582 104.086 116.816 103.692 116.777 103.652C116.738 103.624 116.349 103.855 115.92 104.168C115.479 104.494 115.09 104.698 115.038 104.644C114.973 104.576 114.869 103.76 114.778 102.823C114.545 100.377 114.441 100.39 114.194 102.877C114.103 103.815 113.999 104.63 113.948 104.671C113.909 104.712 113.519 104.494 113.078 104.182C112.65 103.855 112.273 103.624 112.234 103.665C112.208 103.692 112.403 104.059 112.688 104.467C112.974 104.861 113.208 105.269 113.208 105.35C113.208 105.445 112.65 105.568 111.741 105.676C109.418 105.935 109.418 106.084 111.754 106.369C112.637 106.478 113.208 106.614 113.208 106.696C113.208 106.777 112.974 107.185 112.688 107.579C112.078 108.435 112.026 108.652 112.52 108.313C112.727 108.19 113.104 107.919 113.376 107.728C113.999 107.307 114.051 107.375 114.168 108.843C114.337 111.003 114.532 111.574 114.687 110.405Z" fill="#EFB85F"/>
<path d="M105.5 83L106.696 84.9748L109 86L106.696 87.0249L105.5 89L104.304 87.0249L102 86L104.304 84.9748L105.5 83Z" fill="#EFB85F"/>
<path d="M256.5 69L257.696 70.9748L260 72L257.696 73.0249L256.5 75L255.304 73.0249L253 72L255.304 70.9748L256.5 69Z" fill="#EFB85F"/>
<path d="M238 297L238.751 300.655L242 301.5L238.751 302.345L238 306L237.249 302.345L234 301.5L237.249 300.655L238 297Z" fill="#EFB85F"/>
<path d="M37.9998 241L38.7509 244.655L42 245.5L38.7509 246.345L37.9998 250L37.2487 246.345L34 245.5L37.2487 244.655L37.9998 241Z" fill="#EFB85F"/>
<path d="M62.9998 338L63.7509 341.655L67 342.5L63.7509 343.345L62.9998 347L62.2487 343.345L59 342.5L62.2487 341.655L62.9998 338Z" fill="#EFB85F"/>
<path d="M261 337L261.751 340.655L265 341.5L261.751 342.345L261 346L260.249 342.345L257 341.5L260.249 340.655L261 337Z" fill="#EFB85F"/>
<path d="M161 326L161.751 329.655L165 330.5L161.751 331.345L161 335L160.249 331.345L157 330.5L160.249 329.655L161 326Z" fill="#EFB85F"/>
<path d="M254 236L254.751 239.655L258 240.5L254.751 241.345L254 245L253.249 241.345L250 240.5L253.249 239.655L254 236Z" fill="#EFB85F"/>
<path d="M254 236L254.751 239.655L258 240.5L254.751 241.345L254 245L253.249 241.345L250 240.5L253.249 239.655L254 236Z" fill="#EFB85F"/>
<path d="M116 342L116.751 345.655L120 346.5L116.751 347.345L116 351L115.249 347.345L112 346.5L115.249 345.655L116 342Z" fill="#EFB85F"/>
<circle cx="126" cy="65" r="1" fill="#EFB85F"/>
<circle cx="165" cy="362" r="1" fill="#EFB85F"/>
<circle cx="40" cy="333" r="1" fill="#EFB85F"/>
<circle cx="177" cy="370" r="1" fill="#EFB85F"/>
<circle cx="121" cy="330" r="1" fill="#EFB85F"/>
<circle cx="163" cy="90" r="1" fill="#EFB85F"/>
<circle cx="163" cy="90" r="1" fill="#EFB85F"/>
<circle cx="142" cy="353" r="1" fill="#EFB85F"/>
<path d="M126.73 376.64L131 376.5L126.73 376.36L128.069 374.931L126.64 376.27L126.5 372L126.36 376.27L124.931 374.931L126.27 376.36L122 376.5L126.27 376.64L124.931 378.069L126.36 376.73L126.5 381L126.64 376.73L128.069 378.069L126.73 376.64Z" fill="#EFB85F"/>
<path d="M135.73 103.64L140 103.5L135.73 103.36L137.069 101.931L135.64 103.27L135.5 99L135.36 103.27L133.931 101.931L135.27 103.36L131 103.5L135.27 103.64L133.931 105.069L135.36 103.73L135.5 108L135.64 103.73L137.069 105.069L135.73 103.64Z" fill="#EFB85F"/>
<path d="M135.73 103.64L140 103.5L135.73 103.36L137.069 101.931L135.64 103.27L135.5 99L135.36 103.27L133.931 101.931L135.27 103.36L131 103.5L135.27 103.64L133.931 105.069L135.36 103.73L135.5 108L135.64 103.73L137.069 105.069L135.73 103.64Z" fill="#EFB85F"/>
<path d="M135.73 103.64L140 103.5L135.73 103.36L137.069 101.931L135.64 103.27L135.5 99L135.36 103.27L133.931 101.931L135.27 103.36L131 103.5L135.27 103.64L133.931 105.069L135.36 103.73L135.5 108L135.64 103.73L137.069 105.069L135.73 103.64Z" fill="#EFB85F"/>
<path d="M160.73 76.6397L165 76.5L160.73 76.3603L162.069 74.9306L160.64 76.2697L160.5 72L160.36 76.2697L158.931 74.9306L160.27 76.3603L156 76.5L160.27 76.6397L158.931 78.0694L160.36 76.7303L160.5 81L160.64 76.7303L162.069 78.0694L160.73 76.6397Z" fill="#EFB85F"/>
<path d="M161 326L161.751 329.655L165 330.5L161.751 331.345L161 335L160.249 331.345L157 330.5L160.249 329.655L161 326Z" fill="#EFB85F"/>
<path d="M116 342L116.751 345.655L120 346.5L116.751 347.345L116 351L115.249 347.345L112 346.5L115.249 345.655L116 342Z" fill="#EFB85F"/>
<circle cx="42" cy="28" r="1" fill="#EFB85F"/>
<path d="M28.5002 35L29.696 36.9748L32 38L29.696 39.0249L28.5002 41L27.304 39.0249L25 38L27.304 36.9748L28.5002 35Z" fill="#EFB85F"/>
<path d="M37.6874 62.4053C37.7263 62.0792 37.7912 61.3046 37.8431 60.6931C37.8951 59.9865 37.9859 59.5381 38.0897 59.4973C38.1806 59.4565 38.596 59.6739 38.9983 59.9729C39.4137 60.2854 39.7771 60.5029 39.8161 60.4621C39.842 60.4349 39.5954 60.0001 39.2709 59.5109C38.8556 58.913 38.7128 58.614 38.8296 58.5732C38.9205 58.5461 39.5824 58.4509 40.2963 58.3558C42.5808 58.084 42.5678 57.9346 40.2574 57.6764C39.4526 57.5813 38.7777 57.459 38.7517 57.4182C38.7128 57.3638 38.9594 56.9698 39.2709 56.5349C39.5824 56.0865 39.8161 55.6924 39.7771 55.6516C39.7382 55.6244 39.3488 55.8555 38.9205 56.168C38.4791 56.4941 38.0897 56.698 38.0378 56.6436C37.9729 56.5757 37.8691 55.7603 37.7782 54.8227C37.5446 52.3767 37.4408 52.3903 37.1941 54.8771C37.1033 55.8147 36.9994 56.63 36.9475 56.6708C36.9086 56.7116 36.5192 56.4941 36.0779 56.1816C35.6495 55.8555 35.2731 55.6244 35.2342 55.6652C35.2082 55.6924 35.4029 56.0593 35.6885 56.467C35.974 56.861 36.2077 57.2687 36.2077 57.3502C36.2077 57.4454 35.6495 57.5677 34.7409 57.6764C32.4175 57.9346 32.4175 58.084 34.7539 58.3694C35.6365 58.4781 36.2077 58.614 36.2077 58.6955C36.2077 58.7771 35.974 59.1847 35.6885 59.5788C35.0784 60.4349 35.0265 60.6523 35.5197 60.3126C35.7274 60.1903 36.1038 59.9185 36.3764 59.7283C36.9994 59.307 37.0514 59.375 37.1682 60.8426C37.3369 63.0032 37.5316 63.574 37.6874 62.4053Z" fill="#EFB85F"/>
<path d="M64.7303 87.6397L69 87.5L64.7303 87.3603L66.0694 85.9306L64.6397 87.2697L64.5 83L64.3603 87.2697L62.9306 85.9306L64.2697 87.3603L60 87.5L64.2697 87.6397L62.9306 89.0694L64.3603 87.7303L64.5 92L64.6397 87.7303L66.0694 89.0694L64.7303 87.6397Z" fill="#EFB85F"/>
<circle cx="40" cy="92" r="1" fill="#EFB85F"/>
<circle cx="61" cy="105" r="1" fill="#EFB85F"/>
<circle cx="232" cy="23" r="1" fill="#EFB85F"/>
<circle cx="266" cy="32" r="1" fill="#EFB85F"/>
<circle cx="266" cy="32" r="1" fill="#EFB85F"/>
<circle cx="268" cy="33" r="1" fill="#EFB85F"/>
<path d="M267.73 90.6397L272 90.5L267.73 90.3603L269.069 88.9306L267.64 90.2697L267.5 86L267.36 90.2697L265.931 88.9306L267.27 90.3603L263 90.5L267.27 90.6397L265.931 92.0694L267.36 90.7303L267.5 95L267.64 90.7303L269.069 92.0694L267.73 90.6397Z" fill="#EFB85F"/>
<path d="M267.73 90.6397L272 90.5L267.73 90.3603L269.069 88.9306L267.64 90.2697L267.5 86L267.36 90.2697L265.931 88.9306L267.27 90.3603L263 90.5L267.27 90.6397L265.931 92.0694L267.36 90.7303L267.5 95L267.64 90.7303L269.069 92.0694L267.73 90.6397Z" fill="#EFB85F"/>
<path d="M221.5 50L222.696 51.9748L225 53L222.696 54.0249L221.5 56L220.304 54.0249L218 53L220.304 51.9748L221.5 50Z" fill="#EFB85F"/>
<rect x="12" y="12" width="273" height="396" rx="9" stroke="#EFB85F" stroke-width="2"/>
<rect x="19.5" y="19.5" width="258" height="380" rx="6.5" stroke="#EFB85F"/>
<path d="M102.516 55C102.458 55 102.43 54.9714 102.43 54.9141V54.6562C102.43 54.599 102.458 54.5703 102.516 54.5703H102.773C103.389 54.5703 103.926 54.4414 104.385 54.1836C104.571 54.0762 104.725 53.9115 104.847 53.6895C104.968 53.4603 105.029 53.2061 105.029 52.9268V41.5615C105.029 41.1175 104.743 40.7773 104.17 40.541C103.769 40.3691 103.343 40.2832 102.892 40.2832H102.655C102.598 40.2832 102.569 40.2546 102.569 40.1973V39.9395C102.569 39.8822 102.598 39.8535 102.655 39.8535H109.928C109.985 39.8535 110.014 39.8822 110.014 39.9395V40.1973C110.014 40.2546 109.985 40.2832 109.928 40.2832H109.466C108.728 40.2832 108.076 40.387 107.511 40.5947C107.346 40.652 107.239 40.7487 107.188 40.8848C107.146 41.0137 107.124 41.2393 107.124 41.5615V53.4746C107.138 53.5964 107.203 53.7109 107.317 53.8184C107.432 53.9258 107.561 53.9795 107.704 53.9795H111.947C112.585 53.9795 113.211 53.6035 113.827 52.8516C113.992 52.651 114.196 52.3861 114.439 52.0566C114.683 51.7201 114.833 51.5303 114.891 51.4873C115.12 51.3154 115.234 51.319 115.234 51.498C115.234 51.541 115.224 51.584 115.202 51.627L113.58 54.8066C113.516 54.9355 113.44 55 113.354 55H102.516ZM117.802 49.3389C117.68 49.3389 117.619 49.6003 117.619 50.123C117.619 51.2331 117.949 52.1641 118.607 52.916C119.266 53.668 120.083 54.0439 121.057 54.0439C122.038 54.0439 122.979 53.6214 123.882 52.7764C123.896 52.762 123.914 52.7549 123.936 52.7549H123.989C124.032 52.7549 124.072 52.7907 124.107 52.8623C124.15 52.9268 124.19 52.9697 124.226 52.9912C123.395 54.001 122.417 54.6992 121.293 55.0859C120.906 55.222 120.469 55.29 119.982 55.29C119.495 55.29 119.001 55.1576 118.5 54.8926C117.999 54.6204 117.569 54.266 117.211 53.8291C116.452 52.9196 116.072 51.7881 116.072 50.4346C116.072 49.0739 116.484 47.835 117.308 46.7178C118.138 45.6006 119.277 45.042 120.724 45.042C121.762 45.042 122.611 45.5075 123.27 46.4385C123.928 47.3623 124.258 48.1751 124.258 48.877C124.258 49.1849 124.183 49.3389 124.032 49.3389H117.802ZM117.92 48.3076C117.92 48.4437 117.984 48.5117 118.113 48.5117H122.163C122.349 48.5117 122.442 48.4007 122.442 48.1787C122.442 47.6631 122.21 47.1367 121.744 46.5996C121.286 46.0553 120.781 45.7832 120.229 45.7832C119.692 45.7832 119.202 46.0267 118.758 46.5137C118.321 47.0007 118.042 47.5557 117.92 48.1787V48.3076ZM137.181 47.6523C137.181 47.8099 137.12 47.8887 136.998 47.8887C136.883 47.8887 136.794 47.8027 136.729 47.6309C136.558 47.1582 136.3 46.7393 135.956 46.374C135.619 46.0088 135.201 45.8262 134.699 45.8262C134.04 45.8262 133.596 46.1556 133.367 46.8145C133.296 47.0365 133.26 47.2656 133.26 47.502C133.26 47.7383 133.41 48.0033 133.711 48.2969C134.012 48.5833 134.506 48.9271 135.193 49.3281C135.881 49.7292 136.382 50.0693 136.697 50.3486C137.413 50.986 137.771 51.7236 137.771 52.5615C137.771 53.3994 137.464 54.0654 136.848 54.5596C136.232 55.0465 135.516 55.29 134.699 55.29C134.262 55.29 133.865 55.2292 133.507 55.1074C133.156 54.9928 132.952 54.9355 132.895 54.9355C132.844 54.9355 132.758 54.9928 132.637 55.1074C132.522 55.2292 132.429 55.29 132.357 55.29H132.175C132.132 55.29 132.078 54.9033 132.014 54.1299C131.949 53.3564 131.917 52.8981 131.917 52.7549C131.917 52.6117 131.928 52.5329 131.949 52.5186C131.978 52.5042 132.021 52.4971 132.078 52.4971C132.135 52.4971 132.182 52.515 132.218 52.5508C132.261 52.5866 132.297 52.6331 132.325 52.6904C132.354 52.7406 132.375 52.7943 132.39 52.8516C132.411 52.9089 132.458 53.0163 132.529 53.1738C133.016 54.2122 133.768 54.7314 134.785 54.7314C135.236 54.7314 135.598 54.5667 135.87 54.2373C136.142 53.9007 136.278 53.5283 136.278 53.1201C136.278 52.7119 136.171 52.3682 135.956 52.0889C135.741 51.8096 135.473 51.5553 135.15 51.3262C134.835 51.097 134.492 50.875 134.119 50.6602C132.673 49.8151 131.949 48.8805 131.949 47.8564C131.949 47.0902 132.279 46.4313 132.938 45.8799C133.596 45.3213 134.273 45.042 134.968 45.042C135.662 45.042 136.174 45.1172 136.504 45.2676C136.84 45.418 137.037 45.5469 137.095 45.6543C137.152 45.7546 137.181 46.0911 137.181 46.6641V47.6523ZM141.069 49.3389C140.948 49.3389 140.887 49.6003 140.887 50.123C140.887 51.2331 141.216 52.1641 141.875 52.916C142.534 53.668 143.35 54.0439 144.324 54.0439C145.305 54.0439 146.247 53.6214 147.149 52.7764C147.164 52.762 147.182 52.7549 147.203 52.7549H147.257C147.3 52.7549 147.339 52.7907 147.375 52.8623C147.418 52.9268 147.457 52.9697 147.493 52.9912C146.662 54.001 145.685 54.6992 144.561 55.0859C144.174 55.222 143.737 55.29 143.25 55.29C142.763 55.29 142.269 55.1576 141.768 54.8926C141.266 54.6204 140.837 54.266 140.479 53.8291C139.719 52.9196 139.34 51.7881 139.34 50.4346C139.34 49.0739 139.752 47.835 140.575 46.7178C141.406 45.6006 142.545 45.042 143.991 45.042C145.03 45.042 145.878 45.5075 146.537 46.4385C147.196 47.3623 147.525 48.1751 147.525 48.877C147.525 49.1849 147.45 49.3389 147.3 49.3389H141.069ZM141.188 48.3076C141.188 48.4437 141.252 48.5117 141.381 48.5117H145.431C145.617 48.5117 145.71 48.4007 145.71 48.1787C145.71 47.6631 145.477 47.1367 145.012 46.5996C144.553 46.0553 144.049 45.7832 143.497 45.7832C142.96 45.7832 142.469 46.0267 142.025 46.5137C141.589 47.0007 141.309 47.5557 141.188 48.1787V48.3076ZM158.472 45.332C158.529 45.332 158.558 45.3893 158.558 45.5039C158.558 45.6185 158.529 45.6901 158.472 45.7188C157.92 45.8691 157.48 46.1198 157.15 46.4707C157.029 46.5996 156.896 46.75 156.753 46.9219L154.68 49.4141C154.651 49.4642 154.637 49.5107 154.637 49.5537C154.637 49.6396 154.948 50.0622 155.571 50.8213C156.194 51.5732 157.054 52.6403 158.149 54.0225C158.228 54.1227 158.386 54.223 158.622 54.3232C158.858 54.4235 159.02 54.5059 159.105 54.5703C159.191 54.6276 159.234 54.7064 159.234 54.8066C159.234 54.9069 159.191 54.9714 159.105 55H154.873C154.801 55 154.766 54.9427 154.766 54.8281C154.766 54.7135 154.823 54.6491 154.938 54.6348C155.059 54.6133 155.195 54.5918 155.346 54.5703C155.725 54.513 155.915 54.3626 155.915 54.1191C155.915 53.9544 155.826 53.7718 155.646 53.5713L153.799 51.251C153.742 51.1722 153.695 51.1113 153.659 51.0684C153.631 51.0254 153.57 51.0039 153.477 51.0039C153.383 51.0039 153.308 51.0433 153.251 51.1221C153.201 51.1937 153.147 51.2581 153.09 51.3154L151.403 53.3457C151.253 53.5176 151.178 53.7181 151.178 53.9473C151.178 54.1764 151.325 54.359 151.618 54.4951C151.919 54.624 152.184 54.6885 152.413 54.6885C152.463 54.6885 152.488 54.7422 152.488 54.8496C152.488 54.9499 152.463 55 152.413 55H148.965C148.85 55 148.793 54.9355 148.793 54.8066C148.793 54.7064 148.99 54.5632 149.384 54.377C149.785 54.1908 150.028 54.0475 150.114 53.9473L153.09 50.3701C153.083 50.3558 153.068 50.3379 153.047 50.3164C153.033 50.2949 152.993 50.2448 152.929 50.166C152.864 50.0872 152.764 49.9655 152.628 49.8008C152.492 49.6289 152.13 49.1849 151.543 48.4688C150.963 47.7454 150.351 46.9827 149.706 46.1807C149.62 46.0876 149.441 45.9837 149.169 45.8691C148.897 45.7474 148.761 45.64 148.761 45.5469C148.775 45.4036 148.861 45.332 149.019 45.332H153.015C153.072 45.332 153.097 45.3786 153.09 45.4717C153.09 45.5576 153.036 45.6149 152.929 45.6436C152.821 45.665 152.703 45.6973 152.574 45.7402C152.23 45.8405 152.059 46.016 152.059 46.2666C152.059 46.4313 152.091 46.5459 152.155 46.6104L153.82 48.6729C153.878 48.7373 153.935 48.8089 153.992 48.8877C154.057 48.9593 154.11 48.9951 154.153 48.9951C154.203 48.9951 154.257 48.9593 154.314 48.8877L155.894 47.0508C156.073 46.8431 156.162 46.6354 156.162 46.4277C156.162 46.2201 156.105 46.0768 155.99 45.998C155.876 45.9121 155.747 45.8512 155.604 45.8154C155.467 45.7725 155.342 45.7331 155.228 45.6973C155.113 45.6615 155.056 45.5934 155.056 45.4932C155.056 45.3857 155.095 45.332 155.174 45.332H158.472ZM162.876 46.7393C162.833 46.7393 162.812 46.7715 162.812 46.8359V52.7656C162.812 53.1953 162.905 53.5319 163.091 53.7754C163.284 54.0189 163.528 54.1406 163.821 54.1406C164.115 54.1406 164.369 54.0941 164.584 54.001C164.806 53.9007 164.996 53.7933 165.153 53.6787C165.318 53.5641 165.465 53.4603 165.594 53.3672C165.723 53.2669 165.837 53.2168 165.938 53.2168C166.038 53.2168 166.088 53.2419 166.088 53.292C166.088 53.4639 166.07 53.5749 166.034 53.625C165.175 54.735 164.344 55.29 163.542 55.29C162.747 55.29 162.146 55.0394 161.737 54.5381C161.336 54.0296 161.136 53.4245 161.136 52.7227V46.7393H160.33C160.13 46.7393 160.022 46.6748 160.008 46.5459C160.001 46.417 160.022 46.3346 160.072 46.2988C160.452 46.0553 160.975 45.6185 161.641 44.9883C161.712 44.9095 161.809 44.7913 161.931 44.6338C162.052 44.4762 162.228 44.2614 162.457 43.9893C162.693 43.7171 162.872 43.5811 162.994 43.5811C163.116 43.5811 163.177 43.6312 163.177 43.7314C163.177 43.7458 163.055 44.2148 162.812 45.1387C162.812 45.2676 162.869 45.3356 162.983 45.3428H165.723C166.038 45.3428 166.195 45.7868 166.195 46.6748C166.195 46.7178 166.167 46.7393 166.109 46.7393H162.876ZM173.865 53.2275C173.865 53.4137 173.951 53.5641 174.123 53.6787C174.302 53.7861 174.506 53.8398 174.735 53.8398C174.965 53.8398 175.154 53.7826 175.305 53.668C175.462 53.5462 175.57 53.4854 175.627 53.4854C175.684 53.4854 175.713 53.5641 175.713 53.7217C175.713 53.8721 175.641 54.001 175.498 54.1084C174.424 54.8962 173.697 55.29 173.317 55.29C172.859 55.29 172.487 54.8138 172.2 53.8613C172.179 53.7897 172.161 53.7575 172.146 53.7646C171.258 54.4307 170.7 54.8317 170.471 54.9678C169.883 55.3044 169.293 55.3581 168.698 55.1289C168.111 54.8997 167.685 54.5202 167.42 53.9902C167.291 53.7181 167.227 53.4281 167.227 53.1201C167.227 52.5114 167.452 52.028 167.903 51.6699C168.354 51.3118 169.214 50.9681 170.481 50.6387C170.911 50.5241 171.294 50.3773 171.631 50.1982C171.967 50.0192 172.143 49.9046 172.157 49.8545C172.179 49.8044 172.189 49.7578 172.189 49.7148V47.6523C172.189 46.8431 171.874 46.2738 171.244 45.9443C171.036 45.8369 170.786 45.7832 170.492 45.7832C170.206 45.7832 169.912 45.8978 169.611 46.127C169.318 46.3561 169.171 46.682 169.171 47.1045L169.225 47.5234C169.182 47.6094 168.924 47.7526 168.451 47.9531C167.979 48.1536 167.706 48.2611 167.635 48.2754C167.52 48.2754 167.463 48.1393 167.463 47.8672C167.463 47.5879 167.545 47.2799 167.71 46.9434C167.875 46.6068 168.107 46.2988 168.408 46.0195C169.11 45.3678 169.912 45.042 170.814 45.042C171.717 45.042 172.451 45.2926 173.017 45.7939C173.582 46.2881 173.865 46.8789 173.865 47.5664V53.2275ZM168.913 52.916C168.913 53.2598 169.046 53.5605 169.311 53.8184C169.576 54.069 169.876 54.1943 170.213 54.1943C170.557 54.1943 170.972 54.0511 171.459 53.7646C171.946 53.471 172.189 53.1702 172.189 52.8623V50.6816C172.189 50.6029 172.172 50.5635 172.136 50.5635C172.1 50.5635 172.075 50.5671 172.061 50.5742L169.568 51.7344C169.311 51.9206 169.135 52.0781 169.042 52.207C168.956 52.3359 168.913 52.5723 168.913 52.916ZM184.629 51.6162L184.607 49.3496C184.607 48.4258 184.529 47.7777 184.371 47.4053C184.214 47.0329 184.013 46.7536 183.77 46.5674C183.526 46.374 183.197 46.2773 182.781 46.2773C182.373 46.2773 181.503 46.5996 180.171 47.2441C179.992 47.3516 179.899 47.4518 179.892 47.5449V53.3242C179.892 54.0475 180.278 54.4629 181.052 54.5703C181.388 54.6204 181.557 54.7028 181.557 54.8174C181.557 54.9248 181.521 54.9857 181.449 55H176.658C176.587 54.9857 176.551 54.9355 176.551 54.8496C176.551 54.7135 176.719 54.6204 177.056 54.5703C177.829 54.4629 178.216 54.0475 178.216 53.3242V47.1582C178.216 46.8574 178.051 46.6497 177.722 46.5352C177.578 46.485 177.424 46.4456 177.26 46.417C177.095 46.3812 176.963 46.349 176.862 46.3203C176.769 46.2917 176.708 46.2666 176.68 46.2451C176.658 46.2165 176.647 46.1628 176.647 46.084C176.647 45.998 176.701 45.9264 176.809 45.8691L179.548 44.5801C179.634 44.5371 179.688 44.5156 179.709 44.5156C179.831 44.5156 179.892 44.6016 179.892 44.7734V46.4492C179.913 46.5208 179.942 46.5566 179.978 46.5566C180.021 46.5566 180.174 46.4922 180.439 46.3633C181.055 46.0553 181.675 45.7581 182.298 45.4717C182.921 45.1852 183.437 45.042 183.845 45.042C185.499 45.042 186.326 46.5495 186.326 49.5645L186.229 52.7012V53.3242C186.229 53.8828 186.509 54.248 187.067 54.4199C187.304 54.4987 187.529 54.556 187.744 54.5918C187.966 54.6204 188.109 54.6491 188.174 54.6777C188.245 54.7064 188.281 54.7637 188.281 54.8496C188.281 54.9355 188.245 54.9857 188.174 55H182.996C182.924 54.9857 182.889 54.9355 182.889 54.8496C182.889 54.7135 183.057 54.6204 183.394 54.5703C184.16 54.4629 184.543 54.0189 184.543 53.2383C184.6 52.8802 184.629 52.3395 184.629 51.6162ZM191.858 46.7393C191.815 46.7393 191.794 46.7715 191.794 46.8359V52.7656C191.794 53.1953 191.887 53.5319 192.073 53.7754C192.267 54.0189 192.51 54.1406 192.804 54.1406C193.097 54.1406 193.352 54.0941 193.566 54.001C193.788 53.9007 193.978 53.7933 194.136 53.6787C194.3 53.5641 194.447 53.4603 194.576 53.3672C194.705 53.2669 194.82 53.2168 194.92 53.2168C195.02 53.2168 195.07 53.2419 195.07 53.292C195.07 53.4639 195.052 53.5749 195.017 53.625C194.157 54.735 193.326 55.29 192.524 55.29C191.729 55.29 191.128 55.0394 190.72 54.5381C190.319 54.0296 190.118 53.4245 190.118 52.7227V46.7393H189.312C189.112 46.7393 189.005 46.6748 188.99 46.5459C188.983 46.417 189.005 46.3346 189.055 46.2988C189.434 46.0553 189.957 45.6185 190.623 44.9883C190.695 44.9095 190.791 44.7913 190.913 44.6338C191.035 44.4762 191.21 44.2614 191.439 43.9893C191.676 43.7171 191.855 43.5811 191.977 43.5811C192.098 43.5811 192.159 43.6312 192.159 43.7314C192.159 43.7458 192.037 44.2148 191.794 45.1387C191.794 45.2676 191.851 45.3356 191.966 45.3428H194.705C195.02 45.3428 195.178 45.7868 195.178 46.6748C195.178 46.7178 195.149 46.7393 195.092 46.7393H191.858Z" fill="#EFB85F"/>
<path d="M148.432 206.326C147.337 205.687 146.033 205.509 144.807 205.831C143.581 206.153 142.533 206.949 141.893 208.043C141.254 209.138 141.075 210.441 141.397 211.668C141.719 212.894 142.514 213.942 143.609 214.582C144.703 215.221 146.007 215.399 147.233 215.077C148.459 214.755 149.507 213.96 150.147 212.865C150.786 211.77 150.965 210.467 150.643 209.241C150.322 208.014 149.526 206.966 148.432 206.326Z" stroke="#EFB85F" stroke-width="1.5" stroke-linecap="round"/>
<path d="M148.432 206.326C147.337 205.687 146.033 205.509 144.807 205.831C143.581 206.153 142.533 206.949 141.893 208.043C141.254 209.138 141.075 210.441 141.397 211.668C141.719 212.894 142.514 213.942 143.609 214.582C144.703 215.221 146.007 215.399 147.233 215.077C148.459 214.755 149.507 213.96 150.147 212.865C150.786 211.77 150.965 210.467 150.643 209.241C150.322 208.014 149.526 206.966 148.432 206.326Z" stroke="#EFB85F" stroke-linecap="round"/>
<path d="M105.593 325.244L26.6318 186.841" stroke="#EFB85F" stroke-linecap="round"/>
<path d="M26.6318 186.84L66.8221 118.048" stroke="#EFB85F" stroke-linecap="round"/>
<path d="M66.822 118.048L226.164 118.868" stroke="#EFB85F" stroke-linecap="round"/>
<path d="M226.164 118.868L265.644 188.071" stroke="#EFB85F" stroke-linecap="round"/>
<path d="M265.644 188.07L185.264 325.654" stroke="#EFB85F" stroke-linecap="round"/>
<path d="M185.264 325.654L105.593 325.244" stroke="#EFB85F" stroke-linecap="round"/>
<path d="M141.662 207.967L46.7265 152.445" stroke="#EFB85F"/>
<path d="M150.052 208.154L245.904 153.47" stroke="#EFB85F"/>
<path d="M145.995 215.021L145.428 325.45" stroke="#EFB85F"/>
<path d="M101.518 311.95L107.056 308.791" stroke="#EFB85F" stroke-linecap="round"/>
<path d="M107.054 308.792L103.106 301.871" stroke="#EFB85F" stroke-linecap="round"/>
<path d="M103.108 301.87L97.5706 305.029" stroke="#EFB85F" stroke-linecap="round"/>
<path d="M97.5702 305.029L101.518 311.95" stroke="#EFB85F" stroke-linecap="round"/>
<path d="M212.549 128.221L212.582 121.846" stroke="#EFB85F" stroke-linecap="round"/>
<path d="M39.9503 204.033L45.4878 200.874" stroke="#EFB85F" stroke-linecap="round"/>
<path d="M45.4866 200.875L41.5383 193.955" stroke="#EFB85F" stroke-linecap="round"/>
<path d="M41.5396 193.955L36.0021 197.114" stroke="#EFB85F" stroke-linecap="round"/>
<path d="M36.0023 197.113L39.9506 204.033" stroke="#EFB85F" stroke-linecap="round"/>
<path d="M212.582 121.847L204.614 121.806" stroke="#EFB85F" stroke-linecap="round"/>
<path d="M204.582 128.18L212.549 128.221" stroke="#EFB85F" stroke-linecap="round"/>
<path d="M204.615 121.805L204.582 128.18" stroke="#EFB85F" stroke-linecap="round"/>
<path d="M88.3075 127.581L88.3402 121.206" stroke="#EFB85F" stroke-linecap="round"/>
<path d="M88.3398 121.207L80.3722 121.167" stroke="#EFB85F" stroke-linecap="round"/>
<path d="M80.3725 121.166L80.3399 127.541" stroke="#EFB85F" stroke-linecap="round"/>
<path d="M80.3394 127.541L88.3068 127.582" stroke="#EFB85F" stroke-linecap="round"/>
<path d="M183.971 309.187L189.477 312.404" stroke="#EFB85F" stroke-linecap="round"/>
<path d="M189.476 312.402L193.495 305.523" stroke="#EFB85F" stroke-linecap="round"/>
<path d="M187.991 302.307L183.971 309.187" stroke="#EFB85F" stroke-linecap="round"/>
<path d="M193.496 305.524L187.99 302.307" stroke="#EFB85F" stroke-linecap="round"/>
<path d="M246.645 201.91L252.151 205.127" stroke="#EFB85F" stroke-linecap="round"/>
<path d="M252.15 205.126L256.169 198.247" stroke="#EFB85F" stroke-linecap="round"/>
<path d="M256.17 198.247L250.665 195.031" stroke="#EFB85F" stroke-linecap="round"/>
<path d="M250.664 195.031L246.645 201.91" stroke="#EFB85F" stroke-linecap="round"/>
<path d="M32.054 190.192L32.0977 190.127" stroke="#EFB85F" stroke-dasharray="67.2 13.44 13.44 13.44"/>
<path d="M49.6091 170.722C48.8973 170.872 48.2353 170.816 47.6231 170.555C47.0101 170.291 46.4841 169.858 46.045 169.257C45.6059 168.655 45.2913 167.924 45.1012 167.062C44.9127 166.208 44.8998 165.419 45.0624 164.697C45.2279 163.97 45.5413 163.359 46.0026 162.866C46.464 162.372 47.0479 162.048 47.7544 161.892C48.2722 161.778 48.7418 161.779 49.1632 161.895C49.5837 162.008 49.9641 162.211 50.3042 162.505C50.648 162.797 50.9608 163.151 51.2424 163.566L51.7528 163.454L52.3981 165.429L54.4526 169.468L53.2319 169.737L51.244 165.684C51.1289 165.426 50.9745 165.13 50.7807 164.797C50.5869 164.463 50.3563 164.148 50.0889 163.85C49.8215 163.552 49.5135 163.325 49.1649 163.169C48.8192 163.009 48.4355 162.975 48.0138 163.068C47.5626 163.168 47.1933 163.393 46.9059 163.743C46.6186 164.093 46.4304 164.533 46.3412 165.06C46.2521 165.588 46.2768 166.166 46.4155 166.795C46.551 167.409 46.7654 167.942 47.0589 168.393C47.3516 168.841 47.6958 169.17 48.0915 169.381C48.4864 169.589 48.9058 169.644 49.3497 169.546C49.7603 169.455 50.0923 169.264 50.3459 168.971C50.5986 168.675 50.7906 168.332 50.9218 167.942C51.0523 167.549 51.14 167.155 51.185 166.761C51.2329 166.363 51.2558 166.019 51.2538 165.728L51.2411 161.239L52.4617 160.97L52.4079 165.474L52.6683 167.604L52.2244 167.702C52.1333 168.203 51.9826 168.663 51.7724 169.081C51.5651 169.496 51.2833 169.845 50.9271 170.129C50.5745 170.412 50.1352 170.61 49.6091 170.722Z" fill="#EFB85F"/>
<path d="M227.824 146.839L228.934 146.594C229.711 146.423 230.38 146.448 230.94 146.669C231.505 146.89 231.958 147.229 232.299 147.685C232.644 148.14 232.875 148.634 232.992 149.167C233.134 149.81 233.113 150.424 232.927 151.008C232.741 151.588 232.419 152.088 231.96 152.507C231.501 152.923 230.935 153.205 230.262 153.353C229.851 153.444 229.428 153.458 228.991 153.395C228.557 153.328 228.137 153.112 227.731 152.748L227.652 152.812L227.172 150.637C227.252 150.999 227.415 151.314 227.66 151.582C227.909 151.849 228.219 152.039 228.589 152.151C228.962 152.263 229.379 152.268 229.837 152.167C230.318 152.061 230.71 151.868 231.013 151.587C231.316 151.307 231.525 150.98 231.64 150.606C231.755 150.231 231.769 149.848 231.683 149.456C231.601 149.086 231.439 148.755 231.196 148.463C230.957 148.167 230.66 147.949 230.308 147.81C229.958 147.666 229.576 147.64 229.161 147.731L228.074 147.971L227.824 146.839ZM227.376 141.748C227.905 141.631 228.392 141.613 228.836 141.693C229.284 141.773 229.681 141.926 230.026 142.153C230.373 142.375 230.658 142.647 230.881 142.97C231.107 143.293 231.262 143.641 231.344 144.015C231.447 144.481 231.431 144.971 231.296 145.486C231.16 145.996 230.882 146.459 230.462 146.874C230.041 147.285 229.453 147.574 228.698 147.74L228.054 147.882L227.805 146.75L228.426 146.613C228.855 146.518 229.202 146.349 229.466 146.104C229.734 145.859 229.916 145.577 230.012 145.257C230.112 144.936 230.127 144.617 230.057 144.298C229.944 143.788 229.655 143.408 229.188 143.158C228.726 142.907 228.211 142.844 227.645 142.968C227.268 143.052 226.939 143.206 226.659 143.43C226.383 143.654 226.181 143.926 226.053 144.245C225.93 144.563 225.908 144.903 225.988 145.266L228.558 156.918L227.248 157.206L224.678 145.555C224.549 144.97 224.578 144.415 224.765 143.889C224.955 143.362 225.274 142.91 225.722 142.532C226.174 142.153 226.725 141.891 227.376 141.748Z" fill="#EFB85F"/>
<path d="M150.438 307.53L151.858 307.217L155.53 313.203L156.297 306.238L157.718 305.924L156.584 314.925L157.329 318.299L156.019 318.587L155.275 315.214L150.438 307.53Z" fill="#EFB85F"/>
<path d="M112.513 256.917L112.654 254.991L110.942 253.586C108.877 251.87 109.125 251.875 107.205 253.484L105.63 254.816L105.822 256.961L105.999 259.108L107.512 257.794C109.356 256.219 109.171 256.227 110.93 257.645L112.371 258.828L112.513 256.917ZM107.508 254.123L108.66 253.055L108.798 254.227C108.932 255.26 108.803 255.544 107.804 256.543L106.671 257.672L106.514 256.439C106.379 255.344 106.493 255.092 107.508 254.123ZM110.412 256.287C109.58 255.606 109.057 253.706 109.706 253.681C110.294 253.658 111.694 255.4 111.725 256.173C111.765 257.194 111.549 257.218 110.412 256.287Z" fill="#EFB85F"/>
<path d="M112.227 253.179C112.218 252.931 111.571 252.244 110.789 251.655L109.385 250.594L109.02 244.025C108.611 236.342 108.508 236.888 110.098 238.328C111.495 239.591 112.113 239.536 111.148 238.225C110.82 237.758 110.01 236.473 109.362 235.352L108.167 233.307L106.814 236.334C105.275 239.772 105.266 239.942 106.793 238.581L107.901 237.593L108.155 244.09L108.409 250.601L107.07 251.63C105.732 252.673 105.147 253.548 105.796 253.523C105.982 253.516 106.706 253.007 107.409 252.375C108.981 250.982 108.795 250.974 110.68 252.434C111.686 253.2 112.239 253.473 112.227 253.179Z" fill="#EFB85F"/>
<path d="M119.554 242.408L117.628 242.266L116.223 243.978C114.507 246.044 114.512 245.796 116.121 247.716L117.453 249.29L119.599 249.098L121.745 248.921L120.431 247.408C118.856 245.564 118.864 245.75 120.282 243.99L121.465 242.55L119.554 242.408ZM116.76 247.412L115.692 246.261L116.864 246.122C117.897 245.989 118.181 246.117 119.18 247.116L120.309 248.249L119.076 248.406C117.981 248.542 117.729 248.428 116.76 247.412ZM118.924 244.508C118.243 245.34 116.343 245.864 116.318 245.214C116.295 244.626 118.037 243.226 118.81 243.196C119.831 243.156 119.855 243.372 118.924 244.508Z" fill="#EFB85F"/>
<path d="M115.816 242.693C115.569 242.702 114.882 243.349 114.292 244.131L113.232 245.536L106.662 245.9C98.9793 246.309 99.5255 246.412 100.966 244.822C102.228 243.425 102.173 242.807 100.863 243.772C100.396 244.1 99.1105 244.91 97.9895 245.558L95.9449 246.753L98.972 248.106C102.409 249.645 102.58 249.654 101.219 248.127L100.231 247.019L106.727 246.765L113.239 246.511L114.267 247.85C115.311 249.188 116.186 249.773 116.16 249.124C116.153 248.938 115.645 248.214 115.013 247.511C113.619 245.939 113.611 246.125 115.071 244.24C115.838 243.234 116.11 242.681 115.816 242.693Z" fill="#EFB85F"/>
<path d="M88.5786 192.09C89.2597 192.397 90.3328 192.674 90.981 192.704C92.7042 192.801 93.7161 194.7 92.412 195.385C91.9327 195.637 90.8447 194.822 91.2476 194.499C91.3743 194.398 91.5727 194.409 91.6744 194.536C91.7762 194.663 92.0206 194.637 92.2164 194.481C92.6885 194.102 91.8518 193.294 91.0862 193.378C89.6288 193.541 89.8511 194.008 93.7941 198.997C97.8943 204.182 98.2109 204.459 100.532 204.664C101.738 204.777 101.826 204.839 103.491 206.916C105.683 209.651 105.387 210.154 102.165 209.155L100.955 208.779L101.168 209.916C101.331 210.828 100.938 212.886 100.547 213.2C100.489 213.246 99.6754 212.231 98.7317 210.959C97.034 208.7 97.0108 208.624 97.1347 207.198C97.2 206.406 97.1777 205.647 97.0759 205.52C96.9742 205.393 96.9136 205.082 96.9407 204.833C96.9747 204.521 96.2205 203.439 94.7407 201.687C92.3036 198.789 91.4919 197.753 90.245 195.985C89.2896 194.628 88.9734 194.541 88.3849 195.505C87.8653 196.32 88.2942 197.397 89.0342 197.164C89.2854 197.077 89.4281 196.924 89.3356 196.809C89.2431 196.694 89.0054 196.657 88.7887 196.717C88.5813 196.788 88.6294 196.636 88.9173 196.405C89.4975 195.902 90.3317 196.636 89.9455 197.287C89.079 198.777 87.1939 197.37 87.5038 195.491C87.6155 194.852 87.5786 193.744 87.4272 193.013C87.2735 192.302 87.2053 191.675 87.2629 191.628C87.3205 191.582 87.9183 191.785 88.5786 192.09ZM99.3466 205.993C99.6056 206.316 100.067 206.515 100.432 206.45C101.043 206.339 102.137 206.902 103.304 207.957C103.611 208.222 103.364 207.796 102.756 207.013C101.81 205.763 101.479 205.516 100.48 205.331C99.0725 205.038 98.7453 205.243 99.3466 205.993ZM97.7416 207.318C97.6788 208.183 97.8712 208.636 98.9351 210.057C99.8348 211.25 100.14 211.536 99.9543 211.022C99.7989 210.616 99.4585 209.979 99.1833 209.612C98.8618 209.187 98.7659 208.525 98.8889 207.782C99.1033 206.586 98.6746 205.603 98.1219 206.046C97.9607 206.176 97.782 206.755 97.7416 207.318ZM102.023 208.529L102.937 208.82L102.488 208.119C102.238 207.712 101.644 207.279 101.125 207.126L100.211 206.836L100.66 207.537C100.91 207.943 101.504 208.377 102.023 208.529ZM99.3167 208.292C99.3058 208.585 99.6229 209.146 100.011 209.536L100.702 210.232L100.409 209.065C99.9767 207.346 99.3323 206.896 99.3167 208.292Z" fill="#EFB85F"/>
<path d="M104.528 195.042C104.214 195.72 103.927 196.791 103.891 197.439C103.777 199.161 101.868 200.154 101.195 198.843C100.948 198.361 101.774 197.281 102.093 197.688C102.193 197.815 102.18 198.013 102.052 198.114C101.924 198.214 101.947 198.459 102.102 198.656C102.476 199.132 103.291 198.303 103.216 197.537C103.066 196.078 102.598 196.296 97.5705 200.19C92.3453 204.239 92.0653 204.553 91.8371 206.871C91.7123 208.077 91.6491 208.164 89.556 209.808C86.8001 211.974 86.2999 211.672 87.3307 208.46L87.7187 207.255L86.579 207.456C85.6659 207.61 83.6114 207.197 83.3014 206.803C83.2558 206.745 84.2791 205.941 85.5598 205.01C87.8355 203.334 87.9119 203.312 89.3368 203.45C90.1276 203.523 90.887 203.508 91.0149 203.407C91.1428 203.307 91.4549 203.249 91.7039 203.279C92.0151 203.316 93.1047 202.572 94.8706 201.11C97.7928 198.701 98.8368 197.9 100.617 196.67C101.983 195.728 102.074 195.413 101.115 194.815C100.305 194.287 99.2235 194.706 99.4493 195.448C99.5345 195.7 99.6854 195.844 99.8017 195.753C99.918 195.662 99.9572 195.424 99.8994 195.207C99.8299 194.999 99.9817 195.048 100.21 195.339C100.707 195.924 99.965 196.751 99.3181 196.358C97.8359 195.477 99.262 193.606 101.137 193.934C101.775 194.052 102.883 194.026 103.616 193.882C104.329 193.735 104.957 193.673 105.002 193.731C105.048 193.789 104.839 194.385 104.528 195.042ZM90.5196 205.673C90.194 205.929 89.9911 206.389 90.0521 206.754C90.1569 207.366 89.5831 208.455 88.5171 209.611C88.2487 209.916 88.6781 209.672 89.4663 209.072C90.7262 208.138 90.9764 207.81 91.1708 206.813C91.4776 205.408 91.2755 205.079 90.5196 205.673ZM89.2108 204.055C88.3461 203.984 87.8919 204.172 86.4601 205.222C85.2583 206.11 84.9691 206.412 85.4855 206.232C85.8932 206.08 86.5334 205.746 86.903 205.474C87.3307 205.157 87.9939 205.068 88.7358 205.198C89.929 205.424 90.9162 205.005 90.4785 204.448C90.3509 204.286 89.7735 204.101 89.2108 204.055ZM87.9574 208.324L87.6577 209.236L88.3636 208.794C88.7722 208.548 89.2118 207.958 89.3692 207.44L89.6689 206.529L88.963 206.971C88.5544 207.217 88.1148 207.807 87.9574 208.324ZM88.2216 205.621C87.9287 205.607 87.3648 205.919 86.971 206.303L86.2674 206.987L87.4379 206.706C89.1612 206.29 89.6175 205.65 88.2216 205.621Z" fill="#EFB85F"/>
</g>
<defs>
<clipPath id="clip0_71_782">
<rect width="297.638" height="419.528" rx="10" fill="white"/>
</clipPath>
</defs>
</svg>
