<svg width="298" height="420" viewBox="0 0 298 420" fill="none" xmlns="http://www.w3.org/2000/svg">
<g clip-path="url(#clip0_261_25636)">
<rect width="297.638" height="419.528" rx="10" fill="#032206"/>
<rect x="12" y="12" width="273" height="396" rx="9" stroke="#EFB85F" stroke-width="2"/>
<rect x="19.5" y="19.5" width="258" height="380" rx="6.5" stroke="#EFB85F"/>
<circle cx="76.7197" cy="259.47" r="1" fill="#EFB85F"/>
<circle cx="222.72" cy="204.47" r="1" fill="#EFB85F"/>
<circle cx="211.72" cy="129.47" r="1" fill="#EFB85F"/>
<circle cx="241.72" cy="96.4702" r="1" fill="#EFB85F"/>
<circle cx="125.72" cy="66.4702" r="1" fill="#EFB85F"/>
<circle cx="59.7197" cy="98.4702" r="1" fill="#EFB85F"/>
<circle cx="187.72" cy="97.4702" r="1" fill="#EFB85F"/>
<circle cx="50.7197" cy="187.47" r="1" fill="#EFB85F"/>
<circle cx="50.7197" cy="187.47" r="1" fill="#EFB85F"/>
<circle cx="50.7197" cy="187.47" r="1" fill="#EFB85F"/>
<circle cx="74.7197" cy="323.47" r="1" fill="#EFB85F"/>
<circle cx="164.72" cy="363.47" r="1" fill="#EFB85F"/>
<circle cx="66.7197" cy="376.47" r="1" fill="#EFB85F"/>
<circle cx="114.72" cy="393.47" r="1" fill="#EFB85F"/>
<circle cx="164.72" cy="395.47" r="1" fill="#EFB85F"/>
<circle cx="215.72" cy="105.47" r="1" fill="#EFB85F"/>
<circle cx="162.72" cy="91.4702" r="1" fill="#EFB85F"/>
<circle cx="162.72" cy="91.4702" r="1" fill="#EFB85F"/>
<circle cx="21.7197" cy="312.47" r="1" fill="#EFB85F"/>
<circle cx="141.72" cy="354.47" r="1" fill="#EFB85F"/>
<circle cx="55.7197" cy="307.47" r="1" fill="#EFB85F"/>
<circle cx="88.7197" cy="340.47" r="1" fill="#EFB85F"/>
<circle cx="88.7197" cy="340.47" r="1" fill="#EFB85F"/>
<circle cx="229.72" cy="381.47" r="1" fill="#EFB85F"/>
<circle cx="235.72" cy="337.47" r="1" fill="#EFB85F"/>
<circle cx="235.72" cy="337.47" r="1" fill="#EFB85F"/>
<circle cx="212.72" cy="155.47" r="1" fill="#EFB85F"/>
<circle cx="274.72" cy="186.47" r="1" fill="#EFB85F"/>
<path d="M198.72 343.47C198.72 344.022 198.272 344.47 197.72 344.47C197.167 344.47 196.72 344.022 196.72 343.47C196.72 342.918 197.167 342.47 197.72 342.47C198.272 342.47 198.72 342.918 198.72 343.47Z" fill="#EFB85F"/>
<path d="M229.22 361.47L230.416 363.445L232.72 364.47L230.416 365.495L229.22 367.47L228.024 365.495L225.72 364.47L228.024 363.445L229.22 361.47Z" fill="#EFB85F"/>
<circle cx="251.72" cy="319.47" r="1" fill="#EFB85F"/>
<circle cx="216.72" cy="147.47" r="1" fill="#EFB85F"/>
<circle cx="249.72" cy="180.47" r="1" fill="#EFB85F"/>
<circle cx="249.72" cy="180.47" r="1" fill="#EFB85F"/>
<circle cx="196.72" cy="372.47" r="1" fill="#EFB85F"/>
<circle cx="214.72" cy="266.47" r="1" fill="#EFB85F"/>
<circle cx="80.7197" cy="131.47" r="1" fill="#EFB85F"/>
<circle cx="22.7197" cy="157.47" r="1" fill="#EFB85F"/>
<circle cx="70.7197" cy="82.4702" r="1" fill="#EFB85F"/>
<circle cx="59.7197" cy="156.47" r="1" fill="#EFB85F"/>
<circle cx="40.7197" cy="79.4702" r="1" fill="#EFB85F"/>
<circle cx="74.7197" cy="74.4702" r="1" fill="#EFB85F"/>
<circle cx="38.7197" cy="143.47" r="1" fill="#EFB85F"/>
<circle cx="72.7197" cy="193.47" r="1" fill="#EFB85F"/>
<path d="M63.527 139.266L67.8019 139.126L63.527 138.986L64.8678 137.555L63.4363 138.896L63.2965 134.621L63.1566 138.896L61.7251 137.555L63.0659 138.986L58.791 139.126L63.0659 139.266L61.7251 140.697L63.1566 139.357L63.2965 143.631L63.4363 139.357L64.8678 140.697L63.527 139.266Z" fill="#EFB85F"/>
<path d="M33.4906 226.363L37.7655 226.223L33.4906 226.083L34.8314 224.652L33.3999 225.993L33.2601 221.718L33.1202 225.993L31.6888 224.652L33.0295 226.083L28.7546 226.223L33.0295 226.363L31.6888 227.794L33.1202 226.454L33.2601 230.728L33.3999 226.454L34.8314 227.794L33.4906 226.363Z" fill="#EFB85F"/>
<path d="M28.4845 291.436L32.7594 291.296L28.4845 291.156L29.8253 289.725L28.3938 291.066L28.254 286.791L28.1141 291.066L26.6826 289.725L28.0234 291.156L23.7485 291.296L28.0234 291.436L26.6826 292.867L28.1141 291.527L28.254 295.801L28.3938 291.527L29.8253 292.867L28.4845 291.436Z" fill="#EFB85F"/>
<path d="M45.505 349.501L49.7799 349.361L45.505 349.221L46.8458 347.79L45.4143 349.13L45.2745 344.856L45.1347 349.13L43.7032 347.79L45.0439 349.221L40.769 349.361L45.0439 349.501L43.7032 350.932L45.1347 349.592L45.2745 353.866L45.4143 349.592L46.8458 350.932L45.505 349.501Z" fill="#EFB85F"/>
<path d="M126.603 378.534L130.878 378.394L126.603 378.254L127.944 376.823L126.512 378.163L126.373 373.889L126.233 378.163L124.801 376.823L126.142 378.254L121.867 378.394L126.142 378.534L124.801 379.965L126.233 378.624L126.373 382.899L126.512 378.624L127.944 379.965L126.603 378.534Z" fill="#EFB85F"/>
<path d="M251.754 385.541L256.029 385.402L251.754 385.262L253.095 383.83L251.664 385.171L251.524 380.896L251.384 385.171L249.952 383.83L251.293 385.262L247.018 385.402L251.293 385.541L249.952 386.973L251.384 385.632L251.524 389.907L251.664 385.632L253.095 386.973L251.754 385.541Z" fill="#EFB85F"/>
<path d="M264.77 221.358L269.045 221.218L264.77 221.078L266.111 219.647L264.679 220.987L264.539 216.713L264.4 220.987L262.968 219.647L264.309 221.078L260.034 221.218L264.309 221.358L262.968 222.789L264.4 221.448L264.539 225.723L264.679 221.448L266.111 222.789L264.77 221.358Z" fill="#EFB85F"/>
<path d="M264.77 221.358L269.045 221.218L264.77 221.078L266.111 219.647L264.679 220.987L264.539 216.713L264.4 220.987L262.968 219.647L264.309 221.078L260.034 221.218L264.309 221.358L262.968 222.789L264.4 221.448L264.539 225.723L264.679 221.448L266.111 222.789L264.77 221.358Z" fill="#EFB85F"/>
<path d="M135.614 105.228L139.889 105.088L135.614 104.948L136.955 103.517L135.523 104.858L135.383 100.583L135.244 104.858L133.812 103.517L135.153 104.948L130.878 105.088L135.153 105.228L133.812 106.659L135.244 105.319L135.383 109.593L135.523 105.319L136.955 106.659L135.614 105.228Z" fill="#EFB85F"/>
<path d="M135.614 105.228L139.889 105.088L135.614 104.948L136.955 103.517L135.523 104.858L135.383 100.583L135.244 104.858L133.812 103.517L135.153 104.948L130.878 105.088L135.153 105.228L133.812 106.659L135.244 105.319L135.383 109.593L135.523 105.319L136.955 106.659L135.614 105.228Z" fill="#EFB85F"/>
<path d="M135.614 105.228L139.889 105.088L135.614 104.948L136.955 103.517L135.523 104.858L135.383 100.583L135.244 104.858L133.812 103.517L135.153 104.948L130.878 105.088L135.153 105.228L133.812 106.659L135.244 105.319L135.383 109.593L135.523 105.319L136.955 106.659L135.614 105.228Z" fill="#EFB85F"/>
<path d="M160.644 78.1977L164.919 78.0578L160.644 77.918L161.985 76.4866L160.553 77.8272L160.414 73.5527L160.274 77.8272L158.842 76.4866L160.183 77.918L155.908 78.0578L160.183 78.1977L158.842 79.629L160.274 78.2883L160.414 82.5628L160.553 78.2883L161.985 79.629L160.644 78.1977Z" fill="#EFB85F"/>
<path d="M193.684 334.484L197.959 334.344L193.684 334.205L195.025 332.773L193.594 334.114L193.454 329.839L193.314 334.114L191.882 332.773L193.223 334.205L188.948 334.344L193.223 334.484L191.882 335.916L193.314 334.575L193.454 338.849L193.594 334.575L195.025 335.916L193.684 334.484Z" fill="#EFB85F"/>
<path d="M193.684 334.484L197.959 334.344L193.684 334.205L195.025 332.773L193.594 334.114L193.454 329.839L193.314 334.114L191.882 332.773L193.223 334.205L188.948 334.344L193.223 334.484L191.882 335.916L193.314 334.575L193.454 338.849L193.594 334.575L195.025 335.916L193.684 334.484Z" fill="#EFB85F"/>
<path d="M237.737 272.415L242.012 272.275L237.737 272.135L239.078 270.704L237.647 272.045L237.507 267.77L237.367 272.045L235.936 270.704L237.276 272.135L233.001 272.275L237.276 272.415L235.936 273.846L237.367 272.506L237.507 276.78L237.647 272.506L239.078 273.846L237.737 272.415Z" fill="#EFB85F"/>
<path d="M250.71 134.026C250.749 133.699 250.814 132.924 250.866 132.312C250.918 131.604 251.009 131.155 251.113 131.114C251.204 131.074 251.62 131.291 252.023 131.591C252.439 131.903 252.803 132.121 252.842 132.08C252.868 132.053 252.621 131.618 252.296 131.128C251.88 130.529 251.737 130.23 251.854 130.189C251.945 130.162 252.608 130.067 253.322 129.972C255.61 129.7 255.597 129.55 253.283 129.291C252.478 129.196 251.802 129.074 251.776 129.033C251.737 128.979 251.984 128.584 252.296 128.149C252.608 127.7 252.842 127.305 252.803 127.264C252.764 127.237 252.374 127.469 251.945 127.781C251.503 128.108 251.113 128.312 251.061 128.258C250.996 128.19 250.892 127.373 250.801 126.435C250.567 123.986 250.463 123.999 250.216 126.489C250.125 127.428 250.021 128.244 249.969 128.285C249.93 128.326 249.541 128.108 249.099 127.795C248.67 127.469 248.293 127.237 248.254 127.278C248.228 127.305 248.423 127.673 248.709 128.081C248.995 128.475 249.229 128.883 249.229 128.965C249.229 129.06 248.67 129.183 247.76 129.291C245.434 129.55 245.434 129.7 247.773 129.985C248.657 130.094 249.229 130.23 249.229 130.312C249.229 130.393 248.995 130.802 248.709 131.196C248.098 132.053 248.046 132.271 248.54 131.931C248.748 131.808 249.125 131.536 249.398 131.346C250.021 130.924 250.073 130.992 250.19 132.461C250.359 134.624 250.554 135.196 250.71 134.026Z" fill="#EFB85F"/>
<path d="M36.4512 114.003C36.4902 113.677 36.5552 112.901 36.6071 112.289C36.6591 111.582 36.7501 111.133 36.8541 111.092C36.945 111.051 37.3609 111.269 37.7638 111.568C38.1796 111.881 38.5435 112.099 38.5825 112.058C38.6085 112.031 38.3616 111.595 38.0367 111.106C37.6208 110.507 37.4779 110.208 37.5948 110.167C37.6858 110.14 38.3486 110.044 39.0633 109.949C41.3505 109.677 41.3375 109.527 39.0243 109.269C38.2186 109.174 37.5428 109.051 37.5168 109.011C37.4779 108.956 37.7248 108.562 38.0367 108.126C38.3486 107.677 38.5825 107.283 38.5435 107.242C38.5045 107.215 38.1146 107.446 37.6858 107.759C37.2439 108.085 36.8541 108.29 36.8021 108.235C36.7371 108.167 36.6331 107.351 36.5422 106.412C36.3082 103.963 36.2043 103.977 35.9574 106.467C35.8664 107.405 35.7624 108.221 35.7104 108.262C35.6715 108.303 35.2816 108.085 34.8397 107.773C34.4109 107.446 34.034 107.215 33.995 107.256C33.969 107.283 34.164 107.65 34.4499 108.058C34.7358 108.453 34.9697 108.861 34.9697 108.943C34.9697 109.038 34.4109 109.16 33.5012 109.269C31.175 109.527 31.175 109.677 33.5142 109.963C34.3979 110.072 34.9697 110.208 34.9697 110.289C34.9697 110.371 34.7358 110.779 34.4499 111.174C33.8391 112.031 33.7871 112.248 34.2809 111.908C34.4889 111.786 34.8657 111.514 35.1386 111.323C35.7624 110.902 35.8144 110.97 35.9314 112.439C36.1003 114.602 36.2953 115.173 36.4512 114.003Z" fill="#EFB85F"/>
<path d="M268.732 306.218C268.771 305.892 268.836 305.116 268.888 304.504C268.94 303.797 269.031 303.348 269.135 303.307C269.226 303.266 269.642 303.484 270.045 303.783C270.46 304.096 270.824 304.314 270.863 304.273C270.889 304.246 270.642 303.81 270.317 303.32C269.902 302.722 269.759 302.423 269.876 302.382C269.967 302.355 270.629 302.259 271.344 302.164C273.631 301.892 273.618 301.742 271.305 301.484C270.499 301.389 269.824 301.266 269.798 301.225C269.759 301.171 270.006 300.776 270.317 300.341C270.629 299.892 270.863 299.498 270.824 299.457C270.785 299.43 270.395 299.661 269.967 299.974C269.525 300.3 269.135 300.504 269.083 300.45C269.018 300.382 268.914 299.566 268.823 298.627C268.589 296.178 268.485 296.192 268.238 298.681C268.147 299.62 268.043 300.436 267.991 300.477C267.952 300.518 267.562 300.3 267.121 299.987C266.692 299.661 266.315 299.43 266.276 299.47C266.25 299.498 266.445 299.865 266.731 300.273C267.017 300.668 267.25 301.076 267.25 301.157C267.25 301.253 266.692 301.375 265.782 301.484C263.456 301.742 263.456 301.892 265.795 302.178C266.679 302.287 267.25 302.423 267.25 302.504C267.25 302.586 267.017 302.994 266.731 303.388C266.12 304.246 266.068 304.463 266.562 304.123C266.77 304.001 267.146 303.729 267.419 303.538C268.043 303.116 268.095 303.184 268.212 304.654C268.381 306.817 268.576 307.388 268.732 306.218Z" fill="#EFB85F"/>
<path d="M54.4732 275.183C54.5122 274.857 54.5771 274.081 54.6291 273.469C54.6811 272.762 54.7721 272.313 54.876 272.272C54.967 272.231 55.3829 272.449 55.7857 272.748C56.2016 273.061 56.5655 273.279 56.6045 273.238C56.6304 273.211 56.3835 272.775 56.0586 272.286C55.6428 271.687 55.4998 271.388 55.6168 271.347C55.7078 271.32 56.3705 271.225 57.0853 271.129C59.3725 270.857 59.3595 270.708 57.0463 270.449C56.2406 270.354 55.5648 270.232 55.5388 270.191C55.4998 270.136 55.7467 269.742 56.0586 269.306C56.3705 268.858 56.6045 268.463 56.5655 268.422C56.5265 268.395 56.1366 268.626 55.7078 268.939C55.2659 269.266 54.876 269.47 54.8241 269.415C54.7591 269.347 54.6551 268.531 54.5641 267.592C54.3302 265.144 54.2263 265.157 53.9793 267.647C53.8884 268.585 53.7844 269.402 53.7324 269.442C53.6934 269.483 53.3036 269.266 52.8617 268.953C52.4329 268.626 52.056 268.395 52.017 268.436C51.991 268.463 52.1859 268.83 52.4718 269.238C52.7578 269.633 52.9917 270.041 52.9917 270.123C52.9917 270.218 52.4329 270.34 51.5232 270.449C49.197 270.708 49.197 270.857 51.5362 271.143C52.4199 271.252 52.9917 271.388 52.9917 271.47C52.9917 271.551 52.7578 271.959 52.4718 272.354C51.8611 273.211 51.8091 273.428 52.3029 273.088C52.5108 272.966 52.8877 272.694 53.1606 272.503C53.7844 272.082 53.8364 272.15 53.9533 273.619C54.1223 275.782 54.3172 276.353 54.4732 275.183Z" fill="#EFB85F"/>
<path d="M49.4671 396.319C49.5061 395.993 49.571 395.217 49.623 394.605C49.675 393.898 49.766 393.449 49.8699 393.408C49.9609 393.367 50.3768 393.585 50.7796 393.884C51.1955 394.197 51.5594 394.415 51.5983 394.374C51.6243 394.347 51.3774 393.911 51.0525 393.421C50.6367 392.823 50.4937 392.524 50.6107 392.483C50.7017 392.456 51.3644 392.36 52.0792 392.265C54.3664 391.993 54.3534 391.843 52.0402 391.585C51.2345 391.49 50.5587 391.367 50.5327 391.326C50.4937 391.272 50.7406 390.878 51.0525 390.442C51.3644 389.993 51.5983 389.599 51.5594 389.558C51.5204 389.531 51.1305 389.762 50.7017 390.075C50.2598 390.401 49.8699 390.605 49.8179 390.551C49.753 390.483 49.649 389.667 49.558 388.728C49.3241 386.279 49.2202 386.293 48.9732 388.782C48.8823 389.721 48.7783 390.537 48.7263 390.578C48.6873 390.619 48.2975 390.401 47.8556 390.088C47.4268 389.762 47.0499 389.531 47.0109 389.572C46.9849 389.599 47.1798 389.966 47.4657 390.374C47.7516 390.769 47.9856 391.177 47.9856 391.258C47.9856 391.354 47.4268 391.476 46.5171 391.585C44.1909 391.843 44.1909 391.993 46.5301 392.279C47.4138 392.388 47.9856 392.524 47.9856 392.605C47.9856 392.687 47.7516 393.095 47.4657 393.49C46.855 394.347 46.803 394.564 47.2968 394.224C47.5047 394.102 47.8816 393.83 48.1545 393.639C48.7783 393.217 48.8303 393.285 48.9472 394.755C49.1162 396.918 49.3111 397.489 49.4671 396.319Z" fill="#EFB85F"/>
<path d="M229.497 361.875L230.695 363.852L233.001 364.878L230.695 365.904L229.497 367.882L228.3 365.904L225.993 364.878L228.3 363.852L229.497 361.875Z" fill="#EFB85F"/>
<path d="M118.363 309.817L119.56 311.794L121.867 312.82L119.56 313.846L118.363 315.824L117.165 313.846L114.859 312.82L117.165 311.794L118.363 309.817Z" fill="#EFB85F"/>
<path d="M78.3147 230.729L79.512 232.705L81.8188 233.732L79.512 234.758L78.3147 236.735L77.1171 234.758L74.8103 233.732L77.1171 232.705L78.3147 230.729Z" fill="#EFB85F"/>
<path d="M27.253 185.678L28.4502 187.655L30.757 188.682L28.4502 189.708L27.253 191.685L26.0553 189.708L23.7485 188.682L26.0553 187.655L27.253 185.678Z" fill="#EFB85F"/>
<path d="M27.253 86.5669L28.4502 88.5439L30.757 89.5703L28.4502 90.5963L27.253 92.5736L26.0553 90.5963L23.7485 89.5703L26.0553 88.5439L27.253 86.5669Z" fill="#EFB85F"/>
<circle cx="118.72" cy="77.4702" r="1" fill="#EFB85F"/>
<path d="M114.546 112.001C114.585 111.674 114.65 110.899 114.702 110.287C114.754 109.579 114.845 109.13 114.949 109.09C115.04 109.049 115.455 109.266 115.858 109.566C116.274 109.879 116.638 110.096 116.677 110.055C116.703 110.028 116.456 109.593 116.131 109.103C115.715 108.505 115.572 108.205 115.689 108.164C115.78 108.137 116.443 108.042 117.158 107.947C119.445 107.675 119.432 107.525 117.119 107.267C116.313 107.171 115.637 107.049 115.611 107.008C115.572 106.954 115.819 106.559 116.131 106.124C116.443 105.675 116.677 105.28 116.638 105.24C116.599 105.212 116.209 105.444 115.78 105.757C115.338 106.083 114.949 106.287 114.897 106.233C114.832 106.165 114.728 105.348 114.637 104.41C114.403 101.961 114.299 101.975 114.052 104.464C113.961 105.403 113.857 106.219 113.805 106.26C113.766 106.301 113.376 106.083 112.934 105.77C112.505 105.444 112.128 105.212 112.09 105.253C112.064 105.28 112.258 105.648 112.544 106.056C112.83 106.45 113.064 106.858 113.064 106.94C113.064 107.035 112.505 107.158 111.596 107.267C109.269 107.525 109.269 107.675 111.609 107.96C112.492 108.069 113.064 108.205 113.064 108.287C113.064 108.369 112.83 108.777 112.544 109.171C111.934 110.028 111.882 110.246 112.375 109.906C112.583 109.783 112.96 109.511 113.233 109.321C113.857 108.899 113.909 108.967 114.026 110.436C114.195 112.599 114.39 113.171 114.546 112.001Z" fill="#EFB85F"/>
<path d="M105.347 84.5649L106.545 86.5419L108.851 87.5683L106.545 88.5943L105.347 90.5717L104.15 88.5943L101.843 87.5683L104.15 86.5419L105.347 84.5649Z" fill="#EFB85F"/>
<path d="M108.351 25.4985L109.548 27.4755L111.855 28.5019L109.548 29.5279L108.351 31.5053L107.153 29.5279L104.846 28.5019L107.153 27.4755L108.351 25.4985Z" fill="#EFB85F"/>
<path d="M256.53 70.5493L257.727 72.5263L260.034 73.5527L257.727 74.5787L256.53 76.556L255.332 74.5787L253.026 73.5527L255.332 72.5263L256.53 70.5493Z" fill="#EFB85F"/>
<path d="M238.007 298.805L238.759 302.464L242.012 303.309L238.759 304.155L238.007 307.815L237.255 304.155L234.003 303.309L237.255 302.464L238.007 298.805Z" fill="#EFB85F"/>
<path d="M57.7895 245.745L58.5416 249.404L61.7946 250.25L58.5416 251.096L57.7895 254.755L57.0375 251.096L53.7849 250.25L57.0375 249.404L57.7895 245.745Z" fill="#EFB85F"/>
<path d="M62.7956 339.851L63.5477 343.51L66.8007 344.355L63.5477 345.201L62.7956 348.861L62.0436 345.201L58.791 344.355L62.0436 343.51L62.7956 339.851Z" fill="#EFB85F"/>
<path d="M261.035 338.85L261.787 342.509L265.04 343.354L261.787 344.2L261.035 347.86L260.283 344.2L257.03 343.354L260.283 342.509L261.035 338.85Z" fill="#EFB85F"/>
<path d="M160.914 327.837L161.666 331.496L164.919 332.342L161.666 333.188L160.914 336.847L160.162 333.188L156.909 332.342L160.162 331.496L160.914 327.837Z" fill="#EFB85F"/>
<path d="M254.027 237.736L254.779 241.396L258.032 242.241L254.779 243.087L254.027 246.746L253.275 243.087L250.022 242.241L253.275 241.396L254.027 237.736Z" fill="#EFB85F"/>
<path d="M254.027 237.736L254.779 241.396L258.032 242.241L254.779 243.087L254.027 246.746L253.275 243.087L250.022 242.241L253.275 241.396L254.027 237.736Z" fill="#EFB85F"/>
<path d="M115.86 343.855L116.612 347.514L119.865 348.36L116.612 349.206L115.86 352.865L115.108 349.206L111.855 348.36L115.108 347.514L115.86 343.855Z" fill="#EFB85F"/>
<circle cx="125.72" cy="66.4702" r="1" fill="#EFB85F"/>
<circle cx="164.72" cy="363.47" r="1" fill="#EFB85F"/>
<circle cx="143.72" cy="317.47" r="1" fill="#EFB85F"/>
<circle cx="161.72" cy="315.47" r="1" fill="#EFB85F"/>
<circle cx="120.72" cy="331.47" r="1" fill="#EFB85F"/>
<circle cx="162.72" cy="91.4702" r="1" fill="#EFB85F"/>
<circle cx="162.72" cy="91.4702" r="1" fill="#EFB85F"/>
<circle cx="141.72" cy="354.47" r="1" fill="#EFB85F"/>
<path d="M126.603 378.534L130.878 378.394L126.603 378.254L127.944 376.823L126.512 378.163L126.373 373.889L126.233 378.163L124.801 376.823L126.142 378.254L121.867 378.394L126.142 378.534L124.801 379.965L126.233 378.624L126.373 382.899L126.512 378.624L127.944 379.965L126.603 378.534Z" fill="#EFB85F"/>
<path d="M135.614 105.228L139.889 105.088L135.614 104.948L136.955 103.517L135.523 104.858L135.383 100.583L135.244 104.858L133.812 103.517L135.153 104.948L130.878 105.088L135.153 105.228L133.812 106.659L135.244 105.319L135.383 109.593L135.523 105.319L136.955 106.659L135.614 105.228Z" fill="#EFB85F"/>
<path d="M135.614 105.228L139.889 105.088L135.614 104.948L136.955 103.517L135.523 104.858L135.383 100.583L135.244 104.858L133.812 103.517L135.153 104.948L130.878 105.088L135.153 105.228L133.812 106.659L135.244 105.319L135.383 109.593L135.523 105.319L136.955 106.659L135.614 105.228Z" fill="#EFB85F"/>
<path d="M135.614 105.228L139.889 105.088L135.614 104.948L136.955 103.517L135.523 104.858L135.383 100.583L135.244 104.858L133.812 103.517L135.153 104.948L130.878 105.088L135.153 105.228L133.812 106.659L135.244 105.319L135.383 109.593L135.523 105.319L136.955 106.659L135.614 105.228Z" fill="#EFB85F"/>
<path d="M160.644 78.1977L164.919 78.0578L160.644 77.918L161.985 76.4866L160.553 77.8272L160.414 73.5527L160.274 77.8272L158.842 76.4866L160.183 77.918L155.908 78.0578L160.183 78.1977L158.842 79.629L160.274 78.2883L160.414 82.5628L160.553 78.2883L161.985 79.629L160.644 78.1977Z" fill="#EFB85F"/>
<path d="M160.914 327.837L161.666 331.496L164.919 332.342L161.666 333.188L160.914 336.847L160.162 333.188L156.909 332.342L160.162 331.496L160.914 327.837Z" fill="#EFB85F"/>
<path d="M115.86 343.855L116.612 347.514L119.865 348.36L116.612 349.206L115.86 352.865L115.108 349.206L111.855 348.36L115.108 347.514L115.86 343.855Z" fill="#EFB85F"/>
<circle cx="41.7197" cy="29.4702" r="1" fill="#EFB85F"/>
<path d="M28.2542 36.5112L29.4514 38.4882L31.7582 39.5146L29.4514 40.5406L28.2542 42.518L27.0566 40.5406L24.7498 39.5146L27.0566 38.4882L28.2542 36.5112Z" fill="#EFB85F"/>
<path d="M44.461 133.494C44.5 133.168 44.5649 132.393 44.6169 131.78C44.6689 131.073 44.7599 130.624 44.8638 130.583C44.9548 130.542 45.3707 130.76 45.7735 131.059C46.1894 131.372 46.5533 131.59 46.5922 131.549C46.6182 131.522 46.3713 131.087 46.0464 130.597C45.6306 129.998 45.4876 129.699 45.6046 129.658C45.6955 129.631 46.3583 129.536 47.0731 129.44C49.3603 129.168 49.3473 129.019 47.0341 128.76C46.2284 128.665 45.5526 128.543 45.5266 128.502C45.4876 128.447 45.7345 128.053 46.0464 127.617C46.3583 127.169 46.5922 126.774 46.5533 126.733C46.5143 126.706 46.1244 126.937 45.6955 127.25C45.2537 127.577 44.8638 127.781 44.8118 127.726C44.7469 127.658 44.6429 126.842 44.5519 125.903C44.318 123.455 44.214 123.468 43.9671 125.958C43.8762 126.896 43.7722 127.713 43.7202 127.754C43.6812 127.794 43.2914 127.577 42.8495 127.264C42.4207 126.937 42.0438 126.706 42.0048 126.747C41.9788 126.774 42.1737 127.141 42.4596 127.549C42.7455 127.944 42.9795 128.352 42.9795 128.434C42.9795 128.529 42.4207 128.651 41.511 128.76C39.1847 129.019 39.1847 129.168 41.524 129.454C42.4077 129.563 42.9795 129.699 42.9795 129.781C42.9795 129.862 42.7455 130.27 42.4596 130.665C41.8488 131.522 41.7969 131.74 42.2907 131.399C42.4986 131.277 42.8755 131.005 43.1484 130.814C43.7722 130.393 43.8242 130.461 43.9411 131.93C44.1101 134.093 44.305 134.664 44.461 133.494Z" fill="#EFB85F"/>
<path d="M64.5282 89.2099L68.8031 89.07L64.5282 88.9302L65.869 87.4988L64.4375 88.8394L64.2977 84.5649L64.1578 88.8394L62.7264 87.4988L64.0671 88.9302L59.7922 89.07L64.0671 89.2099L62.7264 90.6412L64.1578 89.3005L64.2977 93.575L64.4375 89.3005L65.869 90.6412L64.5282 89.2099Z" fill="#EFB85F"/>
<circle cx="39.7197" cy="93.4702" r="1" fill="#EFB85F"/>
<circle cx="60.7197" cy="106.47" r="1" fill="#EFB85F"/>
<circle cx="231.72" cy="24.4702" r="1" fill="#EFB85F"/>
<circle cx="265.72" cy="33.4702" r="1" fill="#EFB85F"/>
<circle cx="265.72" cy="33.4702" r="1" fill="#EFB85F"/>
<circle cx="267.72" cy="34.4702" r="1" fill="#EFB85F"/>
<path d="M267.774 92.2133L272.048 92.0734L267.774 91.9336L269.114 90.5022L267.683 91.8429L267.543 87.5684L267.403 91.8429L265.972 90.5022L267.312 91.9336L263.038 92.0734L267.312 92.2133L265.972 93.6446L267.403 92.3039L267.543 96.5784L267.683 92.3039L269.114 93.6446L267.774 92.2133Z" fill="#EFB85F"/>
<path d="M267.774 92.2133L272.048 92.0734L267.774 91.9336L269.114 90.5022L267.683 91.8429L267.543 87.5684L267.403 91.8429L265.972 90.5022L267.312 91.9336L263.038 92.0734L267.312 92.2133L265.972 93.6446L267.403 92.3039L267.543 96.5784L267.683 92.3039L269.114 93.6446L267.774 92.2133Z" fill="#EFB85F"/>
<path d="M229.497 123.608L230.695 125.585L233.001 126.612L230.695 127.638L229.497 129.615L228.3 127.638L225.993 126.612L228.3 125.585L229.497 123.608Z" fill="#EFB85F"/>
<path d="M108.351 25.4985L109.548 27.4755L111.855 28.5019L109.548 29.5279L108.351 31.5053L107.153 29.5279L104.846 28.5019L107.153 27.4755L108.351 25.4985Z" fill="#EFB85F"/>
<g clip-path="url(#clip1_261_25636)">
<path d="M50.1533 53.7227C51.113 53.7227 51.5928 53.2536 51.5928 52.3154C51.5928 52.2581 51.6214 52.2295 51.6787 52.2295H51.9365C51.9938 52.2295 52.0225 52.2581 52.0225 52.3154V56.3115C52.0225 56.3688 51.9938 56.3975 51.9365 56.3975H51.6787C51.6214 56.3975 51.5928 56.3688 51.5928 56.3115C51.5928 55.6527 51.4066 55.1979 51.0342 54.9473C50.8337 54.8112 50.5472 54.7432 50.1748 54.7432H45.9424C45.7705 54.7432 45.6846 54.8398 45.6846 55.0332V60.5547C45.6846 61.0417 45.9746 61.4033 46.5547 61.6396C47.1419 61.8688 47.5107 61.9834 47.6611 61.9834C47.8187 61.9834 47.8975 62.012 47.8975 62.0693V62.3271C47.8975 62.3844 47.8688 62.4131 47.8115 62.4131H41.9463C41.889 62.4131 41.8604 62.3844 41.8604 62.3271V62.0693C41.8604 62.012 41.9212 61.9834 42.043 61.9834C42.1647 61.9834 42.3545 61.9261 42.6123 61.8115C42.8701 61.6969 43.0957 61.5286 43.2891 61.3066C43.4896 61.0775 43.5898 60.8018 43.5898 60.4795V48.8779C43.5898 48.4124 43.3428 48.0794 42.8486 47.8789C42.5622 47.7572 42.2793 47.6963 42 47.6963H41.957C41.8997 47.6963 41.8711 47.6676 41.8711 47.6104V47.3525C41.8711 47.2952 41.8997 47.2666 41.957 47.2666H52.0869C52.1729 47.2809 52.2373 47.3024 52.2803 47.3311C52.3232 47.3525 52.3447 47.4134 52.3447 47.5137V50.1133C52.3447 50.1992 52.3304 50.2529 52.3018 50.2744C52.2803 50.2959 52.2373 50.3066 52.1729 50.3066H52.0439C52.0296 50.2995 51.9795 50.1061 51.8936 49.7266C51.8148 49.3398 51.6895 49.0426 51.5176 48.835C51.224 48.5199 50.891 48.3444 50.5186 48.3086C50.3682 48.2943 50.1855 48.2871 49.9707 48.2871H45.8994C45.7562 48.2871 45.6846 48.3587 45.6846 48.502V53.4756C45.6846 53.6403 45.7705 53.7227 45.9424 53.7227H50.1533ZM58.1992 62.0049C58.5358 62.0479 58.7041 62.1338 58.7041 62.2627C58.7041 62.3486 58.6683 62.3988 58.5967 62.4131H53.8057C53.734 62.3988 53.6982 62.3486 53.6982 62.2627C53.6982 62.1338 53.8665 62.0479 54.2031 62.0049C54.9766 61.8903 55.3633 61.4821 55.3633 60.7803V47.3848C55.3633 47.084 55.1986 46.8763 54.8691 46.7617C54.7259 46.7116 54.5719 46.6722 54.4072 46.6436C54.2425 46.6077 54.11 46.5755 54.0098 46.5469C53.9167 46.5182 53.8558 46.4932 53.8271 46.4717C53.8057 46.443 53.7949 46.3893 53.7949 46.3105C53.7949 46.2246 53.8486 46.153 53.9561 46.0957L56.6953 44.8066C56.7812 44.7637 56.835 44.7422 56.8564 44.7422C56.9782 44.7422 57.0391 44.8281 57.0391 45V60.7803C57.0391 61.4821 57.4258 61.8903 58.1992 62.0049ZM66.4814 60.6406C66.4814 60.8268 66.5674 60.9772 66.7393 61.0918C66.9183 61.1992 67.1224 61.2529 67.3516 61.2529C67.5807 61.2529 67.7705 61.1956 67.9209 61.0811C68.0785 60.9593 68.1859 60.8984 68.2432 60.8984C68.3005 60.8984 68.3291 60.9772 68.3291 61.1348C68.3291 61.2852 68.2575 61.4141 68.1143 61.5215C67.04 62.3092 66.3132 62.7031 65.9336 62.7031C65.4753 62.7031 65.1029 62.2269 64.8164 61.2744C64.7949 61.2028 64.777 61.1706 64.7627 61.1777C63.8747 61.8438 63.3161 62.2448 63.0869 62.3809C62.4997 62.7174 61.9089 62.7712 61.3145 62.542C60.7272 62.3128 60.3011 61.9333 60.0361 61.4033C59.9072 61.1312 59.8428 60.8411 59.8428 60.5332C59.8428 59.9245 60.0684 59.4411 60.5195 59.083C60.9707 58.7249 61.8301 58.3812 63.0977 58.0518C63.5273 57.9372 63.9105 57.7904 64.2471 57.6113C64.5837 57.4323 64.7591 57.3177 64.7734 57.2676C64.7949 57.2174 64.8057 57.1709 64.8057 57.1279V55.0654C64.8057 54.2562 64.4906 53.6868 63.8604 53.3574C63.6527 53.25 63.402 53.1963 63.1084 53.1963C62.8219 53.1963 62.5283 53.3109 62.2275 53.54C61.9339 53.7692 61.7871 54.0951 61.7871 54.5176L61.8408 54.9365C61.7979 55.0225 61.54 55.1657 61.0674 55.3662C60.5947 55.5667 60.3226 55.6742 60.251 55.6885C60.1364 55.6885 60.0791 55.5524 60.0791 55.2803C60.0791 55.001 60.1615 54.693 60.3262 54.3564C60.4909 54.0199 60.7236 53.7119 61.0244 53.4326C61.7262 52.7809 62.5283 52.4551 63.4307 52.4551C64.333 52.4551 65.0671 52.7057 65.6328 53.207C66.1986 53.7012 66.4814 54.292 66.4814 54.9795V60.6406ZM61.5293 60.3291C61.5293 60.6729 61.6618 60.9736 61.9268 61.2314C62.1917 61.4821 62.4925 61.6074 62.8291 61.6074C63.1729 61.6074 63.5882 61.4642 64.0752 61.1777C64.5622 60.8841 64.8057 60.5833 64.8057 60.2754V58.0947C64.8057 58.016 64.7878 57.9766 64.752 57.9766C64.7161 57.9766 64.6911 57.9801 64.6768 57.9873L62.1846 59.1475C61.9268 59.3337 61.7513 59.4912 61.6582 59.6201C61.5723 59.749 61.5293 59.9854 61.5293 60.3291ZM77.2451 59.0293L77.2236 56.7627C77.2236 55.8389 77.1449 55.1908 76.9873 54.8184C76.8298 54.446 76.6292 54.1667 76.3857 53.9805C76.1423 53.7871 75.8128 53.6904 75.3975 53.6904C74.9893 53.6904 74.1191 54.0127 72.7871 54.6572C72.6081 54.7646 72.515 54.8649 72.5078 54.958V60.7373C72.5078 61.4606 72.8945 61.876 73.668 61.9834C74.0046 62.0335 74.1729 62.1159 74.1729 62.2305C74.1729 62.3379 74.137 62.3988 74.0654 62.4131H69.2744C69.2028 62.3988 69.167 62.3486 69.167 62.2627C69.167 62.1266 69.3353 62.0335 69.6719 61.9834C70.4453 61.876 70.832 61.4606 70.832 60.7373V54.5713C70.832 54.2705 70.6673 54.0628 70.3379 53.9482C70.1947 53.8981 70.0407 53.8587 69.876 53.8301C69.7113 53.7943 69.5788 53.762 69.4785 53.7334C69.3854 53.7048 69.3245 53.6797 69.2959 53.6582C69.2744 53.6296 69.2637 53.5758 69.2637 53.4971C69.2637 53.4111 69.3174 53.3395 69.4248 53.2822L72.1641 51.9932C72.25 51.9502 72.3037 51.9287 72.3252 51.9287C72.4469 51.9287 72.5078 52.0146 72.5078 52.1865V53.8623C72.5293 53.9339 72.5579 53.9697 72.5938 53.9697C72.6367 53.9697 72.7907 53.9053 73.0557 53.7764C73.6715 53.4684 74.291 53.1712 74.9141 52.8848C75.5371 52.5983 76.0527 52.4551 76.4609 52.4551C78.1152 52.4551 78.9424 53.9626 78.9424 56.9775L78.8457 60.1143V60.7373C78.8457 61.2959 79.125 61.6611 79.6836 61.833C79.9199 61.9118 80.1455 61.9691 80.3604 62.0049C80.5824 62.0335 80.7256 62.0622 80.79 62.0908C80.8617 62.1195 80.8975 62.1768 80.8975 62.2627C80.8975 62.3486 80.8617 62.3988 80.79 62.4131H75.6123C75.5407 62.3988 75.5049 62.3486 75.5049 62.2627C75.5049 62.1266 75.6732 62.0335 76.0098 61.9834C76.776 61.876 77.1592 61.432 77.1592 60.6514C77.2165 60.2933 77.2451 59.7526 77.2451 59.0293ZM94.4004 52.9062C94.7155 53.0137 94.9089 53.0674 94.9805 53.0674C95.0521 53.0674 95.0951 53.0674 95.1094 53.0674C95.1309 53.0602 95.1559 53.0137 95.1846 52.9277V47.3848C95.1846 47.084 95.0199 46.8763 94.6904 46.7617C94.5472 46.7116 94.3932 46.6722 94.2285 46.6436C94.0638 46.6077 93.9313 46.5755 93.8311 46.5469C93.738 46.5182 93.6771 46.4932 93.6484 46.4717C93.627 46.443 93.6162 46.3893 93.6162 46.3105C93.6162 46.2246 93.6699 46.153 93.7773 46.0957L96.5166 44.8066C96.6025 44.7637 96.6562 44.7422 96.6777 44.7422C96.7995 44.7422 96.8604 44.8281 96.8604 45V60.2969C96.8962 60.612 96.9857 60.8376 97.1289 60.9736C97.2721 61.1097 97.5049 61.1777 97.8271 61.1777L98.4502 61.1348C98.4932 61.1348 98.5146 61.1777 98.5146 61.2637C98.5146 61.3424 98.4609 61.4069 98.3535 61.457L95.4961 62.6387C95.4102 62.6816 95.335 62.7031 95.2705 62.7031C95.2132 62.7031 95.1846 62.6136 95.1846 62.4346V61.457C95.1846 61.3854 95.1667 61.3496 95.1309 61.3496C95.0807 61.3496 94.7835 61.5107 94.2393 61.833C92.5706 62.8213 91.1634 62.9681 90.0176 62.2734C89.1009 61.7148 88.4814 60.8304 88.1592 59.6201C88.0088 59.0544 87.9336 58.4564 87.9336 57.8262C87.9336 57.1888 88.0625 56.5586 88.3203 55.9355C88.5853 55.3053 88.9469 54.7539 89.4053 54.2812C90.415 53.25 91.6325 52.7344 93.0576 52.7344C93.6377 52.7344 94.0853 52.7917 94.4004 52.9062ZM89.5557 57.5146C89.5557 58.596 89.8564 59.5449 90.458 60.3613C91.0596 61.1706 91.8975 61.5752 92.9717 61.5752C93.4443 61.5752 93.9313 61.4606 94.4326 61.2314C94.9339 60.9951 95.1846 60.8161 95.1846 60.6943V55.1514C95.1846 55.0153 95.0915 54.8542 94.9053 54.668C94.3324 53.8802 93.5697 53.4863 92.6172 53.4863C91.6719 53.4863 90.9235 53.8874 90.3721 54.6895C89.8278 55.4844 89.5557 56.4261 89.5557 57.5146ZM101.211 56.752C101.089 56.752 101.028 57.0133 101.028 57.5361C101.028 58.6462 101.358 59.5771 102.017 60.3291C102.675 61.0811 103.492 61.457 104.466 61.457C105.447 61.457 106.389 61.0345 107.291 60.1895C107.305 60.1751 107.323 60.168 107.345 60.168H107.398C107.441 60.168 107.481 60.2038 107.517 60.2754C107.56 60.3398 107.599 60.3828 107.635 60.4043C106.804 61.4141 105.826 62.1123 104.702 62.499C104.315 62.6351 103.879 62.7031 103.392 62.7031C102.905 62.7031 102.41 62.5706 101.909 62.3057C101.408 62.0335 100.978 61.679 100.62 61.2422C99.861 60.3327 99.4814 59.2012 99.4814 57.8477C99.4814 56.487 99.8932 55.248 100.717 54.1309C101.548 53.0137 102.686 52.4551 104.133 52.4551C105.171 52.4551 106.02 52.9206 106.679 53.8516C107.338 54.7754 107.667 55.5882 107.667 56.29C107.667 56.598 107.592 56.752 107.441 56.752H101.211ZM101.329 55.7207C101.329 55.8568 101.394 55.9248 101.522 55.9248H105.572C105.758 55.9248 105.852 55.8138 105.852 55.5918C105.852 55.0762 105.619 54.5498 105.153 54.0127C104.695 53.4684 104.19 53.1963 103.639 53.1963C103.102 53.1963 102.611 53.4398 102.167 53.9268C101.73 54.4137 101.451 54.9688 101.329 55.5918V55.7207ZM119.344 62.0049C119.68 62.0479 119.849 62.1338 119.849 62.2627C119.849 62.3486 119.813 62.3988 119.741 62.4131H114.95C114.879 62.3988 114.843 62.3486 114.843 62.2627C114.843 62.1338 115.011 62.0479 115.348 62.0049C116.121 61.8903 116.508 61.4821 116.508 60.7803V47.3848C116.508 47.084 116.343 46.8763 116.014 46.7617C115.87 46.7116 115.716 46.6722 115.552 46.6436C115.387 46.6077 115.255 46.5755 115.154 46.5469C115.061 46.5182 115 46.4932 114.972 46.4717C114.95 46.443 114.939 46.3893 114.939 46.3105C114.939 46.2246 114.993 46.153 115.101 46.0957L117.84 44.8066C117.926 44.7637 117.979 44.7422 118.001 44.7422C118.123 44.7422 118.184 44.8281 118.184 45V60.7803C118.184 61.4821 118.57 61.8903 119.344 62.0049ZM128.335 61.4678C128.299 61.346 128.253 61.3066 128.195 61.3496C128.138 61.3854 127.905 61.5072 127.497 61.7148C126.158 62.3809 125.041 62.7139 124.146 62.7139C123.25 62.7139 122.606 62.4274 122.212 61.8545C122.069 61.6396 121.997 61.3747 121.997 61.0596V54.5068C121.976 54.2992 121.882 54.1201 121.718 53.9697C121.496 53.7835 121.263 53.6833 121.02 53.6689C120.783 53.6546 120.665 53.583 120.665 53.4541C120.665 53.318 120.722 53.2357 120.837 53.207L123.297 52.498C123.383 52.4694 123.465 52.4551 123.544 52.4551C123.63 52.4551 123.673 52.516 123.673 52.6377V59.8457C123.673 60.347 123.895 60.7337 124.339 61.0059C124.783 61.278 125.349 61.4141 126.036 61.4141C126.731 61.4141 127.354 61.2028 127.905 60.7803C128.077 60.6442 128.22 60.4938 128.335 60.3291V54.5068C128.313 54.2992 128.22 54.1201 128.056 53.9697C127.834 53.7835 127.601 53.6833 127.357 53.6689C127.121 53.6546 127.003 53.583 127.003 53.4541C127.003 53.318 127.06 53.2357 127.175 53.207L129.635 52.498C129.721 52.4694 129.803 52.4551 129.882 52.4551C129.968 52.4551 130.011 52.5267 130.011 52.6699V60.2969C130.047 60.612 130.136 60.8376 130.279 60.9736C130.423 61.1097 130.655 61.1777 130.978 61.1777L131.601 61.1348C131.644 61.1348 131.665 61.1777 131.665 61.2637C131.665 61.3424 131.611 61.4069 131.504 61.457L128.646 62.6387C128.561 62.6816 128.485 62.7031 128.421 62.7031C128.364 62.7031 128.335 62.6136 128.335 62.4346V61.4678ZM147.22 59.0293L147.198 56.7627C147.198 55.8389 147.119 55.1908 146.962 54.8184C146.804 54.446 146.604 54.1667 146.36 53.9805C146.117 53.7871 145.787 53.6904 145.372 53.6904C144.964 53.6904 144.094 54.0127 142.762 54.6572C142.583 54.7646 142.49 54.8649 142.482 54.958V60.7373C142.482 61.4606 142.869 61.876 143.643 61.9834C143.979 62.0335 144.147 62.1159 144.147 62.2305C144.147 62.3379 144.112 62.3988 144.04 62.4131H139.249C139.177 62.3988 139.142 62.3486 139.142 62.2627C139.142 62.1266 139.31 62.0335 139.646 61.9834C140.42 61.876 140.807 61.4606 140.807 60.7373V55.3877C140.807 54.2633 140.112 53.7012 138.723 53.7012C138.214 53.7012 137.509 54.002 136.606 54.6035C136.377 54.7539 136.209 54.8936 136.102 55.0225V60.7373C136.102 61.4606 136.488 61.876 137.262 61.9834C137.598 62.0335 137.767 62.1159 137.767 62.2305C137.767 62.3379 137.731 62.3988 137.659 62.4131H132.868C132.797 62.3988 132.761 62.3486 132.761 62.2627C132.761 62.1266 132.929 62.0335 133.266 61.9834C134.039 61.876 134.426 61.4678 134.426 60.7588V54.5713C134.426 54.2705 134.261 54.0628 133.932 53.9482C133.788 53.8981 133.634 53.8587 133.47 53.8301C133.305 53.7943 133.173 53.762 133.072 53.7334C132.979 53.7048 132.918 53.6797 132.89 53.6582C132.868 53.6296 132.857 53.5758 132.857 53.4971C132.857 53.4111 132.911 53.3395 133.019 53.2822L135.758 51.9932C135.844 51.9502 135.897 51.9287 135.919 51.9287C136.041 51.9287 136.102 52.0146 136.102 52.1865V53.9697C136.109 54.0127 136.134 54.0342 136.177 54.0342C136.227 54.0342 136.345 53.984 136.531 53.8838C136.725 53.7835 136.975 53.6439 137.283 53.4648C137.591 53.2786 137.996 53.0638 138.497 52.8203C139.006 52.5768 139.543 52.4551 140.108 52.4551C141.018 52.4551 141.67 52.8454 142.063 53.626C142.214 53.9411 142.35 54.0771 142.472 54.0342C142.593 53.984 142.783 53.8945 143.041 53.7656C143.65 53.4648 144.266 53.1712 144.889 52.8848C145.512 52.5983 146.027 52.4551 146.436 52.4551C148.09 52.4551 148.917 53.9626 148.917 56.9775L148.82 60.1143V60.7373C148.82 61.2959 149.1 61.6611 149.658 61.833C149.895 61.9118 150.12 61.9691 150.335 62.0049C150.557 62.0335 150.7 62.0622 150.765 62.0908C150.836 62.1195 150.872 62.1768 150.872 62.2627C150.872 62.3486 150.836 62.3988 150.765 62.4131H145.587C145.515 62.3988 145.479 62.3486 145.479 62.2627C145.479 62.1266 145.648 62.0335 145.984 61.9834C146.751 61.876 147.134 61.432 147.134 60.6514C147.191 60.2933 147.22 59.7526 147.22 59.0293ZM151.667 62.4131C151.595 62.3988 151.56 62.3486 151.56 62.2627C151.56 62.1338 151.728 62.0479 152.064 62.0049C152.838 61.8903 153.225 61.4821 153.225 60.7803V55.0977C153.225 54.7969 153.06 54.5892 152.73 54.4746C152.587 54.4245 152.433 54.3851 152.269 54.3564C152.104 54.3206 151.971 54.2884 151.871 54.2598C151.778 54.2311 151.717 54.2061 151.688 54.1846C151.667 54.1559 151.656 54.1022 151.656 54.0234C151.656 53.9375 151.71 53.8659 151.817 53.8086L154.557 52.5195C154.643 52.4766 154.696 52.4551 154.718 52.4551C154.84 52.4551 154.9 52.541 154.9 52.7129V60.7803C154.9 61.4821 155.287 61.8903 156.061 62.0049C156.397 62.0479 156.565 62.123 156.565 62.2305C156.565 62.3379 156.53 62.3988 156.458 62.4131H151.667ZM153.901 49.4365C153.608 49.4365 153.346 49.3434 153.117 49.1572C152.895 48.971 152.784 48.7132 152.784 48.3838C152.784 48.0472 152.892 47.7822 153.106 47.5889C153.321 47.3955 153.576 47.2988 153.869 47.2988C154.17 47.2988 154.421 47.4134 154.621 47.6426C154.829 47.8717 154.933 48.1188 154.933 48.3838C154.933 48.6488 154.836 48.8923 154.643 49.1143C154.449 49.3291 154.202 49.4365 153.901 49.4365ZM159.584 56.752C159.462 56.752 159.401 57.0133 159.401 57.5361C159.401 58.6462 159.731 59.5771 160.39 60.3291C161.049 61.0811 161.865 61.457 162.839 61.457C163.82 61.457 164.762 61.0345 165.664 60.1895C165.678 60.1751 165.696 60.168 165.718 60.168H165.771C165.814 60.168 165.854 60.2038 165.89 60.2754C165.933 60.3398 165.972 60.3828 166.008 60.4043C165.177 61.4141 164.2 62.1123 163.075 62.499C162.688 62.6351 162.252 62.7031 161.765 62.7031C161.278 62.7031 160.784 62.5706 160.282 62.3057C159.781 62.0335 159.351 61.679 158.993 61.2422C158.234 60.3327 157.854 59.2012 157.854 57.8477C157.854 56.487 158.266 55.248 159.09 54.1309C159.921 53.0137 161.059 52.4551 162.506 52.4551C163.544 52.4551 164.393 52.9206 165.052 53.8516C165.711 54.7754 166.04 55.5882 166.04 56.29C166.04 56.598 165.965 56.752 165.814 56.752H159.584ZM159.702 55.7207C159.702 55.8568 159.767 55.9248 159.896 55.9248H163.945C164.132 55.9248 164.225 55.8138 164.225 55.5918C164.225 55.0762 163.992 54.5498 163.526 54.0127C163.068 53.4684 162.563 53.1963 162.012 53.1963C161.475 53.1963 160.984 53.4398 160.54 53.9268C160.103 54.4137 159.824 54.9688 159.702 55.5918V55.7207ZM163.075 50.9512C163.047 50.9798 163.021 50.9941 163 50.9941C162.979 50.9941 162.953 50.9798 162.925 50.9512L160.035 48.6201C159.641 48.2835 159.444 47.9792 159.444 47.707C159.444 47.4349 159.516 47.2201 159.659 47.0625C159.81 46.8978 160.01 46.8154 160.261 46.8154C160.511 46.8154 160.766 46.9909 161.023 47.3418L163.312 50.5107C163.34 50.5394 163.354 50.5609 163.354 50.5752C163.354 50.5895 163.34 50.611 163.312 50.6396L163.075 50.9512ZM174.376 54.7109C174.29 54.6966 174.165 54.6501 174 54.5713C173.406 54.2992 172.94 54.1631 172.604 54.1631C172.267 54.1631 171.912 54.3743 171.54 54.7969C171.175 55.2122 170.992 55.5882 170.992 55.9248V60.7803C170.992 61.3174 171.304 61.6755 171.927 61.8545C172.199 61.9261 172.453 61.9798 172.689 62.0156C172.926 62.0443 173.076 62.0729 173.141 62.1016C173.212 62.1302 173.248 62.1875 173.248 62.2734C173.248 62.3522 173.212 62.3988 173.141 62.4131H167.759C167.687 62.3988 167.651 62.3486 167.651 62.2627C167.651 62.1338 167.82 62.0479 168.156 62.0049C168.93 61.8903 169.316 61.4821 169.316 60.7803V55.0977C169.316 54.7969 169.152 54.5892 168.822 54.4746C168.679 54.4245 168.525 54.3851 168.36 54.3564C168.196 54.3206 168.063 54.2884 167.963 54.2598C167.87 54.2311 167.809 54.2061 167.78 54.1846C167.759 54.1559 167.748 54.1022 167.748 54.0234C167.748 53.9375 167.802 53.8659 167.909 53.8086L170.648 52.5195C170.734 52.4766 170.788 52.4551 170.81 52.4551C170.931 52.4551 170.992 52.541 170.992 52.7129V54.4531C170.992 54.5391 171.014 54.582 171.057 54.582C171.114 54.582 171.261 54.4137 171.497 54.0771C172.177 53.1247 172.74 52.6484 173.184 52.6484C173.434 52.6484 173.817 52.7487 174.333 52.9492C174.856 53.1497 175.117 53.318 175.117 53.4541C175.117 53.6188 175.035 53.8695 174.87 54.2061C174.705 54.5426 174.541 54.7109 174.376 54.7109ZM177.609 56.752C177.488 56.752 177.427 57.0133 177.427 57.5361C177.427 58.6462 177.756 59.5771 178.415 60.3291C179.074 61.0811 179.89 61.457 180.864 61.457C181.845 61.457 182.787 61.0345 183.689 60.1895C183.704 60.1751 183.722 60.168 183.743 60.168H183.797C183.84 60.168 183.879 60.2038 183.915 60.2754C183.958 60.3398 183.997 60.3828 184.033 60.4043C183.202 61.4141 182.225 62.1123 181.101 62.499C180.714 62.6351 180.277 62.7031 179.79 62.7031C179.303 62.7031 178.809 62.5706 178.308 62.3057C177.806 62.0335 177.377 61.679 177.019 61.2422C176.259 60.3327 175.88 59.2012 175.88 57.8477C175.88 56.487 176.292 55.248 177.115 54.1309C177.946 53.0137 179.085 52.4551 180.531 52.4551C181.57 52.4551 182.418 52.9206 183.077 53.8516C183.736 54.7754 184.065 55.5882 184.065 56.29C184.065 56.598 183.99 56.752 183.84 56.752H177.609ZM177.728 55.7207C177.728 55.8568 177.792 55.9248 177.921 55.9248H181.971C182.157 55.9248 182.25 55.8138 182.25 55.5918C182.25 55.0762 182.017 54.5498 181.552 54.0127C181.093 53.4684 180.589 53.1963 180.037 53.1963C179.5 53.1963 179.009 53.4398 178.565 53.9268C178.129 54.4137 177.849 54.9688 177.728 55.5918V55.7207ZM198.417 60.6406C198.417 60.8268 198.503 60.9772 198.675 61.0918C198.854 61.1992 199.058 61.2529 199.287 61.2529C199.516 61.2529 199.706 61.1956 199.856 61.0811C200.014 60.9593 200.121 60.8984 200.179 60.8984C200.236 60.8984 200.265 60.9772 200.265 61.1348C200.265 61.2852 200.193 61.4141 200.05 61.5215C198.976 62.3092 198.249 62.7031 197.869 62.7031C197.411 62.7031 197.038 62.2269 196.752 61.2744C196.73 61.2028 196.713 61.1706 196.698 61.1777C195.81 61.8438 195.252 62.2448 195.022 62.3809C194.435 62.7174 193.844 62.7712 193.25 62.542C192.663 62.3128 192.237 61.9333 191.972 61.4033C191.843 61.1312 191.778 60.8411 191.778 60.5332C191.778 59.9245 192.004 59.4411 192.455 59.083C192.906 58.7249 193.766 58.3812 195.033 58.0518C195.463 57.9372 195.846 57.7904 196.183 57.6113C196.519 57.4323 196.695 57.3177 196.709 57.2676C196.73 57.2174 196.741 57.1709 196.741 57.1279V55.0654C196.741 54.2562 196.426 53.6868 195.796 53.3574C195.588 53.25 195.338 53.1963 195.044 53.1963C194.757 53.1963 194.464 53.3109 194.163 53.54C193.869 53.7692 193.723 54.0951 193.723 54.5176L193.776 54.9365C193.733 55.0225 193.476 55.1657 193.003 55.3662C192.53 55.5667 192.258 55.6742 192.187 55.6885C192.072 55.6885 192.015 55.5524 192.015 55.2803C192.015 55.001 192.097 54.693 192.262 54.3564C192.426 54.0199 192.659 53.7119 192.96 53.4326C193.662 52.7809 194.464 52.4551 195.366 52.4551C196.269 52.4551 197.003 52.7057 197.568 53.207C198.134 53.7012 198.417 54.292 198.417 54.9795V60.6406ZM193.465 60.3291C193.465 60.6729 193.597 60.9736 193.862 61.2314C194.127 61.4821 194.428 61.6074 194.765 61.6074C195.108 61.6074 195.524 61.4642 196.011 61.1777C196.498 60.8841 196.741 60.5833 196.741 60.2754V58.0947C196.741 58.016 196.723 57.9766 196.688 57.9766C196.652 57.9766 196.627 57.9801 196.612 57.9873L194.12 59.1475C193.862 59.3337 193.687 59.4912 193.594 59.6201C193.508 59.749 193.465 59.9854 193.465 60.3291ZM209.729 53.7441C209.729 54.2454 209.438 54.4961 208.858 54.4961C208.565 54.4961 208.314 54.4137 208.106 54.249C207.906 54.0771 207.748 53.9339 207.634 53.8193C207.526 53.6976 207.412 53.5866 207.29 53.4863C206.774 53.0638 206.144 53.0173 205.399 53.3467C204.662 53.6761 204.092 54.3779 203.691 55.4521C203.469 56.0465 203.358 56.6374 203.358 57.2246C203.358 58.485 203.645 59.5163 204.218 60.3184C204.791 61.1133 205.668 61.5107 206.85 61.5107C207.73 61.5107 208.522 61.1169 209.224 60.3291C209.438 60.0928 209.567 59.9746 209.61 59.9746C209.653 59.9746 209.7 59.9961 209.75 60.0391C209.8 60.082 209.825 60.1465 209.825 60.2324C209.825 60.3112 209.804 60.3721 209.761 60.415C208.665 61.9404 207.286 62.7031 205.625 62.7031C204.422 62.7031 203.434 62.2555 202.66 61.3604C201.894 60.4652 201.511 59.4411 201.511 58.2881C201.518 56.154 202.034 54.6178 203.058 53.6797C203.96 52.8561 205.245 52.4443 206.914 52.4443C207.945 52.4443 208.629 52.5482 208.966 52.7559C209.302 52.9635 209.539 53.2249 209.675 53.54C209.711 53.6117 209.729 53.6797 209.729 53.7441ZM211.329 62.4131C211.257 62.3988 211.222 62.3486 211.222 62.2627C211.222 62.1338 211.39 62.0479 211.727 62.0049C212.5 61.8903 212.887 61.4821 212.887 60.7803V55.0977C212.887 54.7969 212.722 54.5892 212.393 54.4746C212.249 54.4245 212.095 54.3851 211.931 54.3564C211.766 54.3206 211.633 54.2884 211.533 54.2598C211.44 54.2311 211.379 54.2061 211.351 54.1846C211.329 54.1559 211.318 54.1022 211.318 54.0234C211.318 53.9375 211.372 53.8659 211.479 53.8086L214.219 52.5195C214.305 52.4766 214.358 52.4551 214.38 52.4551C214.502 52.4551 214.562 52.541 214.562 52.7129V60.7803C214.562 61.4821 214.949 61.8903 215.723 62.0049C216.059 62.0479 216.228 62.123 216.228 62.2305C216.228 62.3379 216.192 62.3988 216.12 62.4131H211.329ZM213.563 49.4365C213.27 49.4365 213.008 49.3434 212.779 49.1572C212.557 48.971 212.446 48.7132 212.446 48.3838C212.446 48.0472 212.554 47.7822 212.769 47.5889C212.983 47.3955 213.238 47.2988 213.531 47.2988C213.832 47.2988 214.083 47.4134 214.283 47.6426C214.491 47.8717 214.595 48.1188 214.595 48.3838C214.595 48.6488 214.498 48.8923 214.305 49.1143C214.111 49.3291 213.864 49.4365 213.563 49.4365ZM224.145 52.9062C224.46 53.0137 224.653 53.0674 224.725 53.0674C224.796 53.0674 224.839 53.0674 224.854 53.0674C224.875 53.0602 224.9 53.0137 224.929 52.9277V47.3848C224.929 47.084 224.764 46.8763 224.435 46.7617C224.291 46.7116 224.137 46.6722 223.973 46.6436C223.808 46.6077 223.675 46.5755 223.575 46.5469C223.482 46.5182 223.421 46.4932 223.393 46.4717C223.371 46.443 223.36 46.3893 223.36 46.3105C223.36 46.2246 223.414 46.153 223.521 46.0957L226.261 44.8066C226.347 44.7637 226.4 44.7422 226.422 44.7422C226.544 44.7422 226.604 44.8281 226.604 45V60.2969C226.64 60.612 226.73 60.8376 226.873 60.9736C227.016 61.1097 227.249 61.1777 227.571 61.1777L228.194 61.1348C228.237 61.1348 228.259 61.1777 228.259 61.2637C228.259 61.3424 228.205 61.4069 228.098 61.457L225.24 62.6387C225.154 62.6816 225.079 62.7031 225.015 62.7031C224.957 62.7031 224.929 62.6136 224.929 62.4346V61.457C224.929 61.3854 224.911 61.3496 224.875 61.3496C224.825 61.3496 224.528 61.5107 223.983 61.833C222.315 62.8213 220.908 62.9681 219.762 62.2734C218.845 61.7148 218.226 60.8304 217.903 59.6201C217.753 59.0544 217.678 58.4564 217.678 57.8262C217.678 57.1888 217.807 56.5586 218.064 55.9355C218.329 55.3053 218.691 54.7539 219.149 54.2812C220.159 53.25 221.377 52.7344 222.802 52.7344C223.382 52.7344 223.829 52.7917 224.145 52.9062ZM219.3 57.5146C219.3 58.596 219.601 59.5449 220.202 60.3613C220.804 61.1706 221.642 61.5752 222.716 61.5752C223.188 61.5752 223.675 61.4606 224.177 61.2314C224.678 60.9951 224.929 60.8161 224.929 60.6943V55.1514C224.929 55.0153 224.836 54.8542 224.649 54.668C224.076 53.8802 223.314 53.4863 222.361 53.4863C221.416 53.4863 220.668 53.8874 220.116 54.6895C219.572 55.4844 219.3 56.4261 219.3 57.5146ZM236.573 61.4678C236.537 61.346 236.491 61.3066 236.434 61.3496C236.376 61.3854 236.144 61.5072 235.735 61.7148C234.396 62.3809 233.279 62.7139 232.384 62.7139C231.489 62.7139 230.844 62.4274 230.45 61.8545C230.307 61.6396 230.235 61.3747 230.235 61.0596V54.5068C230.214 54.2992 230.121 54.1201 229.956 53.9697C229.734 53.7835 229.501 53.6833 229.258 53.6689C229.021 53.6546 228.903 53.583 228.903 53.4541C228.903 53.318 228.961 53.2357 229.075 53.207L231.535 52.498C231.621 52.4694 231.703 52.4551 231.782 52.4551C231.868 52.4551 231.911 52.516 231.911 52.6377V59.8457C231.911 60.347 232.133 60.7337 232.577 61.0059C233.021 61.278 233.587 61.4141 234.274 61.4141C234.969 61.4141 235.592 61.2028 236.144 60.7803C236.315 60.6442 236.459 60.4938 236.573 60.3291V54.5068C236.552 54.2992 236.459 54.1201 236.294 53.9697C236.072 53.7835 235.839 53.6833 235.596 53.6689C235.359 53.6546 235.241 53.583 235.241 53.4541C235.241 53.318 235.299 53.2357 235.413 53.207L237.873 52.498C237.959 52.4694 238.041 52.4551 238.12 52.4551C238.206 52.4551 238.249 52.5267 238.249 52.6699V60.2969C238.285 60.612 238.374 60.8376 238.518 60.9736C238.661 61.1097 238.894 61.1777 239.216 61.1777L239.839 61.1348C239.882 61.1348 239.903 61.1777 239.903 61.2637C239.903 61.3424 239.85 61.4069 239.742 61.457L236.885 62.6387C236.799 62.6816 236.724 62.7031 236.659 62.7031C236.602 62.7031 236.573 62.6136 236.573 62.4346V61.4678ZM245.264 62.0049C245.6 62.0479 245.769 62.1338 245.769 62.2627C245.769 62.3486 245.733 62.3988 245.661 62.4131H240.87C240.799 62.3988 240.763 62.3486 240.763 62.2627C240.763 62.1338 240.931 62.0479 241.268 62.0049C242.041 61.8903 242.428 61.4821 242.428 60.7803V47.3848C242.428 47.084 242.263 46.8763 241.934 46.7617C241.79 46.7116 241.636 46.6722 241.472 46.6436C241.307 46.6077 241.174 46.5755 241.074 46.5469C240.981 46.5182 240.92 46.4932 240.892 46.4717C240.87 46.443 240.859 46.3893 240.859 46.3105C240.859 46.2246 240.913 46.153 241.021 46.0957L243.76 44.8066C243.846 44.7637 243.899 44.7422 243.921 44.7422C244.043 44.7422 244.104 44.8281 244.104 45V60.7803C244.104 61.4821 244.49 61.8903 245.264 62.0049ZM248.637 56.752C248.515 56.752 248.454 57.0133 248.454 57.5361C248.454 58.6462 248.784 59.5771 249.442 60.3291C250.101 61.0811 250.918 61.457 251.892 61.457C252.873 61.457 253.814 61.0345 254.717 60.1895C254.731 60.1751 254.749 60.168 254.771 60.168H254.824C254.867 60.168 254.907 60.2038 254.942 60.2754C254.985 60.3398 255.025 60.3828 255.061 60.4043C254.23 61.4141 253.252 62.1123 252.128 62.499C251.741 62.6351 251.304 62.7031 250.817 62.7031C250.33 62.7031 249.836 62.5706 249.335 62.3057C248.834 62.0335 248.404 61.679 248.046 61.2422C247.287 60.3327 246.907 59.2012 246.907 57.8477C246.907 56.487 247.319 55.248 248.143 54.1309C248.973 53.0137 250.112 52.4551 251.559 52.4551C252.597 52.4551 253.446 52.9206 254.104 53.8516C254.763 54.7754 255.093 55.5882 255.093 56.29C255.093 56.598 255.018 56.752 254.867 56.752H248.637ZM248.755 55.7207C248.755 55.8568 248.819 55.9248 248.948 55.9248H252.998C253.184 55.9248 253.277 55.8138 253.277 55.5918C253.277 55.0762 253.045 54.5498 252.579 54.0127C252.121 53.4684 251.616 53.1963 251.064 53.1963C250.527 53.1963 250.037 53.4398 249.593 53.9268C249.156 54.4137 248.877 54.9688 248.755 55.5918V55.7207ZM250.044 50.6396C250.015 50.611 250.001 50.5895 250.001 50.5752C250.001 50.5609 250.015 50.5394 250.044 50.5107L252.332 47.3418C252.59 46.9909 252.844 46.8154 253.095 46.8154C253.345 46.8154 253.542 46.8978 253.686 47.0625C253.836 47.2201 253.911 47.4349 253.911 47.707C253.911 47.9792 253.714 48.2835 253.32 48.6201L250.431 50.9512C250.395 50.9727 250.366 50.9834 250.345 50.9834C250.323 50.9834 250.302 50.9727 250.28 50.9512L250.044 50.6396Z" fill="#EFB85F"/>
<path d="M141.324 120.68C134.829 121.645 132.414 122.128 131.287 122.718C130.643 123.093 129.623 123.361 129.033 123.361C128.442 123.361 127.047 123.737 125.92 124.22C121.357 126.151 120.552 126.526 118.513 127.492C113.467 129.852 106.704 134.84 101.552 139.935C97.58 143.905 91.4076 152.647 89.4217 157.153C88.7239 158.762 87.9188 160.586 87.6505 161.176C86.6844 163.214 85.3962 167.076 84.9668 169.221C84.6984 170.401 84.2691 172.44 83.947 173.781C82.5515 180.432 82.7662 193.895 84.4837 200.921C87.4358 213.097 94.628 225.863 103.108 233.908C104.611 235.41 105.899 236.805 105.899 237.073C105.899 237.395 105.094 237.931 104.128 238.36C100.049 240.023 98.8145 244.314 101.337 248.015C103.055 250.589 103.001 252.145 101.069 258.152C100.21 260.888 99.0829 264.428 98.5998 266.037C96.7749 272.098 96.5066 272.581 95.1647 273.063C91.2466 274.512 89.7974 276.389 89.7974 280.09C89.7974 282.075 90.1194 282.718 91.5686 284.166L93.3398 285.883H148.892C204.014 285.883 204.497 285.883 205.732 284.81C209.864 281.216 208.254 274.619 202.941 273.278C201.438 272.903 201.169 272.259 197.734 261.21C196.768 258.099 195.641 254.612 195.212 253.432C194.299 250.697 194.299 250.214 195.212 249.302C196.231 248.229 197.681 245.333 197.681 244.314C197.681 242.168 195.856 239.647 193.548 238.521C192.313 237.931 191.24 237.287 191.24 237.126C191.24 236.912 192.743 235.356 194.568 233.586C198.808 229.456 204.98 221.142 207.288 216.369C208.308 214.33 209.328 212.239 209.542 211.756C210.294 210.254 212.011 204.89 213.031 200.868C213.836 197.917 214.051 194.967 214.051 187.19C214.051 175.497 213.461 172.171 209.167 160.318C206.966 154.149 201.169 145.567 195.265 139.721C189.737 134.143 184.96 130.71 178.412 127.384C171.649 124.005 168.429 122.932 160.109 121.216C156.299 120.465 145.135 120.143 141.324 120.68ZM161.183 124.595C171.059 126.633 180.613 131.192 188.288 137.522C191.83 140.418 196.822 145.621 198.647 148.303C199.452 149.483 200.203 150.556 200.364 150.717C201.438 151.682 204.927 158.333 206.537 162.517C210.348 172.44 210.831 175.122 210.777 186.922C210.777 195.611 210.616 197.757 209.65 201.404C207.557 209.128 204.819 215.35 201.062 221.089C198.217 225.38 191.83 232.299 187.858 235.303L184.531 237.877L149.106 237.931C129.623 237.985 113.199 237.824 112.501 237.555C110.891 236.965 109.066 235.41 104.128 230.422C96.2382 222.376 90.9782 212.775 87.5431 200.17C86.577 196.63 86.416 194.538 86.416 185.849C86.416 177.16 86.577 175.068 87.5431 171.635C89.0996 165.95 89.6901 164.287 91.4613 160.479C92.32 158.601 93.0178 156.992 93.0178 156.831C93.0178 156.617 93.7692 155.437 94.628 154.096C95.5404 152.808 96.2382 151.521 96.2382 151.199C96.2382 150.931 96.4529 150.717 96.7213 150.717C96.9896 150.717 97.419 150.234 97.58 149.59C97.7947 149 100.371 145.943 103.377 142.885C108.261 137.79 110.086 136.342 118.513 130.978C119.103 130.656 119.962 130.173 120.391 130.012C120.821 129.852 121.626 129.476 122.109 129.208C123.075 128.725 125.49 127.813 130.052 126.204C131.394 125.775 135.151 124.917 138.372 124.381C145.027 123.254 155.01 123.361 161.183 124.595ZM193.065 241.954C194.89 243.402 194.89 245.279 193.011 246.674C191.616 247.8 191.508 247.8 148.194 247.693L104.772 247.532L103.752 246.191C102.572 244.636 102.786 243.134 104.397 241.739C105.416 240.881 108.315 240.827 148.57 240.827C191.347 240.827 191.616 240.827 193.065 241.954ZM191.562 252.199C192.099 253.164 192.689 254.827 192.904 255.846C193.118 256.865 193.601 258.581 193.924 259.6C195.695 264.481 196.017 265.447 197.037 268.719C197.627 270.65 198.003 272.366 197.842 272.581C197.734 272.849 193.333 273.01 188.073 273.01H178.519L177.607 270.972C176.319 268.182 172.401 264.213 169.341 262.711C166.872 261.478 166.55 261.478 148.57 261.478H130.321L127.744 263.033C125.329 264.481 120.391 269.523 120.391 270.543C120.391 270.811 120.015 271.508 119.479 272.044C118.727 272.903 117.654 273.01 109.334 273.01C104.236 273.01 99.9416 272.795 99.7806 272.527C99.6196 272.259 99.8343 271.347 100.264 270.543C100.693 269.684 101.069 268.558 101.069 268.075C101.069 267.539 101.391 266.359 101.82 265.393C102.196 264.428 102.894 262.39 103.377 260.941C105.738 253.003 106.168 251.769 106.919 251.126C107.563 250.643 116.795 250.482 149.214 250.482H190.649L191.562 252.199ZM168.268 265.393C170.951 266.734 175.46 271.508 174.87 272.473C174.333 273.332 122.538 273.224 122.538 272.313C122.592 270.489 128.335 265.662 132.199 264.267C132.629 264.106 140.358 263.999 149.375 264.052C165.316 264.16 165.799 264.213 168.268 265.393ZM204.336 277.569C205.41 279.178 205.41 280.519 204.443 281.914C203.692 282.933 202.404 282.933 149.75 283.094C115.131 283.147 95.3257 283.04 94.4133 282.665C93.2325 282.235 93.0178 281.806 93.0178 280.197C93.0178 279.071 93.3935 277.73 93.9302 277.194C94.7353 276.282 97.1506 276.228 149.106 276.228H203.477L204.336 277.569Z" fill="#EFB85F"/>
<path d="M140.787 140.794C133.97 142.135 127.691 145.836 122.86 151.36C120.445 154.096 119.854 156.027 121.303 156.456C121.625 156.617 123.45 155.061 125.329 153.13C128.764 149.483 132.682 146.855 137.03 145.192C139.445 144.28 142.397 143.958 142.397 144.602C142.397 144.817 140.894 146.587 139.069 148.571C137.191 150.502 135.097 153.345 134.4 154.793C133.702 156.241 132.897 157.85 132.628 158.387C130.213 163.214 130.159 175.443 132.467 180.217C136.386 188.316 141.055 193.519 146.852 196.416C150.663 198.293 152.488 198.937 155.976 199.419C160.217 200.063 167.623 199.419 170.683 198.186C172.883 197.274 174.601 197.167 174.601 197.918C174.601 198.722 170.307 202.691 167.355 204.622C164.779 206.285 161.075 207.948 157.694 208.967C156.567 209.342 156.03 209.879 155.923 210.737C155.708 211.971 155.815 212.024 158.392 211.702C159.894 211.541 161.558 211.166 162.095 210.898C162.632 210.63 164.725 209.611 166.765 208.591C171.005 206.5 177.392 200.599 179.163 197.113C179.754 195.933 180.559 194.538 180.934 194.056C181.847 192.983 181.578 190.945 180.505 190.247C179.861 189.872 178.895 190.247 176.748 191.642C164.564 199.366 150.931 198.025 141.485 188.048C136.117 182.47 133.809 176.784 133.809 169.597C133.863 161.98 136.6 155.49 141.86 150.127C145.617 146.372 147.711 145.085 151.468 144.066C154.259 143.315 155.279 142.081 154.259 140.847C153.346 139.775 145.993 139.721 140.787 140.794Z" fill="#EFB85F"/>
<path d="M171.918 150.448C171.005 151.521 172.079 152.862 173.528 152.486C174.87 152.111 174.923 150.931 173.582 150.234C172.83 149.804 172.401 149.858 171.918 150.448Z" fill="#EFB85F"/>
<path d="M116.902 160.372C115.722 162.624 115.883 163.59 117.332 163.59C118.244 163.59 118.835 163.053 119.479 161.659C120.015 160.64 120.284 159.513 120.123 159.245C119.425 158.226 117.707 158.816 116.902 160.372Z" fill="#EFB85F"/>
<path d="M185.658 165.628C184.531 168.257 183.726 169.168 181.686 170.027C180.076 170.724 180.398 171.689 182.599 172.762C183.941 173.352 184.692 174.318 185.551 176.356C186.195 177.858 186.839 179.252 187.054 179.413C187.215 179.628 187.537 178.501 187.751 177.053C188.127 174.318 189.791 172.172 191.509 172.172C192.26 172.172 192.958 170.831 192.475 170.348C192.26 170.188 191.723 170.027 191.186 170.027C189.952 170.027 188.02 167.559 188.02 165.95C188.02 164.556 187.537 163.054 187 163.054C186.839 163.054 186.195 164.18 185.658 165.628Z" fill="#EFB85F"/>
<path d="M155.279 167.827C154.956 168.739 154.044 169.811 153.346 170.294C151.682 171.367 151.682 172.386 153.346 173.137C154.098 173.459 154.903 174.531 155.279 175.604C155.601 176.677 156.084 177.535 156.352 177.535C156.889 177.535 157.425 176.194 157.425 174.8C157.425 174.21 158.016 173.512 158.767 173.137C160.431 172.386 160.431 171.903 158.821 170.401C158.123 169.758 157.425 168.631 157.318 167.934C157.05 166.003 156.084 166.003 155.279 167.827Z" fill="#EFB85F"/>
<path d="M114.487 168.149C113.735 170.187 113.843 171.635 114.755 171.957C116.151 172.493 117.224 171.099 117.063 169.007C116.848 166.593 115.292 166.057 114.487 168.149Z" fill="#EFB85F"/>
<path d="M113.682 177.16C113.306 178.501 114.165 181.29 114.916 181.29C115.775 181.29 116.634 179.949 116.634 178.608C116.634 176.087 114.219 174.907 113.682 177.16Z" fill="#EFB85F"/>
<path d="M99.7805 179.52C99.6195 179.68 99.4584 180.539 99.4584 181.397C99.4584 183.381 97.4725 186.117 96.0234 186.117C95.3793 186.117 94.5742 186.332 94.1448 186.6C93.5544 186.975 93.8764 187.351 95.4866 188.155C98.2776 189.603 99.3511 190.837 99.5658 193.036C99.7805 195.611 100.908 195.718 101.337 193.251C101.766 190.73 102.41 189.872 104.987 188.584C107.187 187.458 107.348 186.492 105.309 186.224C103.377 185.956 101.605 184.025 101.23 181.719C100.908 179.627 100.425 178.876 99.7805 179.52Z" fill="#EFB85F"/>
<path d="M115.024 185.527C115.024 187.512 116.043 189.335 117.117 189.335C118.673 189.335 118.888 188.638 117.976 186.439C117.063 184.294 115.024 183.65 115.024 185.527Z" fill="#EFB85F"/>
<path d="M118.781 193.787C118.781 195.289 120.177 197.381 121.25 197.381C122.484 197.381 122.699 196.04 121.733 194.216C120.713 192.178 118.781 191.91 118.781 193.787Z" fill="#EFB85F"/>
<path d="M185.712 209.45C185.228 210.469 184.101 211.649 183.189 212.132C181.149 213.205 181.096 214.385 183.135 214.814C184.262 215.028 184.906 215.726 185.604 217.281C186.946 220.231 187.483 220.124 188.234 216.691C188.395 215.833 189.093 215.136 190.166 214.706C192.099 213.955 191.884 212.722 189.63 211.917C188.449 211.542 188.019 210.952 187.697 209.504C187.268 207.09 186.839 207.09 185.712 209.45Z" fill="#EFB85F"/>
<path d="M113.521 209.289C113.145 209.664 112.877 210.2 112.877 210.576C112.877 210.951 112.126 211.863 111.213 212.614C109.603 213.955 109.496 215.081 110.998 215.081C111.428 215.081 112.126 215.779 112.609 216.637C113.789 218.997 114.38 219.104 115.239 216.959C115.668 215.94 116.419 215.081 116.849 215.081C118.405 215.081 118.352 213.901 116.688 212.4C115.775 211.541 115.024 210.469 115.024 210.039C115.024 208.913 114.273 208.538 113.521 209.289Z" fill="#EFB85F"/>
<path d="M163.491 223.503C162.954 224.629 161.88 225.863 161.022 226.238C159.573 226.936 159.465 227.955 160.914 227.955C161.344 227.955 162.31 229.027 163.115 230.368C164.564 232.889 165.477 233.104 165.477 230.958C165.477 229.671 166.657 228.384 168.321 227.794C169.395 227.418 169.073 226.346 167.946 226.346C166.926 226.346 165.477 224.522 165.477 223.235C165.477 221.304 164.51 221.411 163.491 223.503Z" fill="#EFB85F"/>
<path d="M127.583 226.077C127.154 227.15 127.798 227.954 129.033 227.954C129.784 227.954 130.052 227.579 130.052 226.613C130.052 225.648 129.784 225.272 128.979 225.272C128.389 225.272 127.744 225.648 127.583 226.077Z" fill="#EFB85F"/>
</g>
</g>
<defs>
<clipPath id="clip0_261_25636">
<rect width="297.638" height="419.528" rx="10" fill="white"/>
</clipPath>
<clipPath id="clip1_261_25636">
<rect width="259" height="381" fill="white" transform="translate(19.041 19.4131)"/>
</clipPath>
</defs>
</svg>
