<svg width="298" height="420" viewBox="0 0 298 420" fill="none" xmlns="http://www.w3.org/2000/svg">
<g clip-path="url(#clip0_101_23172)">
<rect width="297.638" height="419.528" rx="10" fill="#032206"/>
<rect x="12" y="12" width="273" height="396" rx="9" stroke="#EFB85F" stroke-width="2"/>
<rect x="19.5" y="19.5" width="258" height="380" rx="6.5" stroke="#EFB85F"/>
<circle cx="76.7197" cy="259.47" r="1" fill="#EFB85F"/>
<circle cx="222.72" cy="204.47" r="1" fill="#EFB85F"/>
<circle cx="211.72" cy="129.47" r="1" fill="#EFB85F"/>
<circle cx="241.72" cy="96.4702" r="1" fill="#EFB85F"/>
<circle cx="125.72" cy="66.4702" r="1" fill="#EFB85F"/>
<circle cx="59.7197" cy="98.4702" r="1" fill="#EFB85F"/>
<circle cx="187.72" cy="97.4702" r="1" fill="#EFB85F"/>
<circle cx="50.7197" cy="187.47" r="1" fill="#EFB85F"/>
<circle cx="50.7197" cy="187.47" r="1" fill="#EFB85F"/>
<circle cx="50.7197" cy="187.47" r="1" fill="#EFB85F"/>
<circle cx="74.7197" cy="323.47" r="1" fill="#EFB85F"/>
<circle cx="164.72" cy="363.47" r="1" fill="#EFB85F"/>
<circle cx="66.7197" cy="376.47" r="1" fill="#EFB85F"/>
<circle cx="114.72" cy="393.47" r="1" fill="#EFB85F"/>
<circle cx="164.72" cy="395.47" r="1" fill="#EFB85F"/>
<circle cx="215.72" cy="105.47" r="1" fill="#EFB85F"/>
<circle cx="162.72" cy="91.4702" r="1" fill="#EFB85F"/>
<circle cx="162.72" cy="91.4702" r="1" fill="#EFB85F"/>
<circle cx="21.7197" cy="312.47" r="1" fill="#EFB85F"/>
<circle cx="141.72" cy="354.47" r="1" fill="#EFB85F"/>
<circle cx="55.7197" cy="307.47" r="1" fill="#EFB85F"/>
<circle cx="88.7197" cy="340.47" r="1" fill="#EFB85F"/>
<circle cx="88.7197" cy="340.47" r="1" fill="#EFB85F"/>
<circle cx="229.72" cy="381.47" r="1" fill="#EFB85F"/>
<circle cx="235.72" cy="337.47" r="1" fill="#EFB85F"/>
<circle cx="235.72" cy="337.47" r="1" fill="#EFB85F"/>
<circle cx="212.72" cy="155.47" r="1" fill="#EFB85F"/>
<circle cx="274.72" cy="186.47" r="1" fill="#EFB85F"/>
<path d="M198.72 343.47C198.72 344.022 198.272 344.47 197.72 344.47C197.167 344.47 196.72 344.022 196.72 343.47C196.72 342.918 197.167 342.47 197.72 342.47C198.272 342.47 198.72 342.918 198.72 343.47Z" fill="#EFB85F"/>
<path d="M229.22 361.47L230.416 363.445L232.72 364.47L230.416 365.495L229.22 367.47L228.024 365.495L225.72 364.47L228.024 363.445L229.22 361.47Z" fill="#EFB85F"/>
<circle cx="251.72" cy="319.47" r="1" fill="#EFB85F"/>
<circle cx="216.72" cy="147.47" r="1" fill="#EFB85F"/>
<circle cx="249.72" cy="180.47" r="1" fill="#EFB85F"/>
<circle cx="249.72" cy="180.47" r="1" fill="#EFB85F"/>
<circle cx="196.72" cy="372.47" r="1" fill="#EFB85F"/>
<circle cx="214.72" cy="266.47" r="1" fill="#EFB85F"/>
<circle cx="80.7197" cy="131.47" r="1" fill="#EFB85F"/>
<circle cx="22.7197" cy="157.47" r="1" fill="#EFB85F"/>
<circle cx="70.7197" cy="82.4702" r="1" fill="#EFB85F"/>
<circle cx="59.7197" cy="156.47" r="1" fill="#EFB85F"/>
<circle cx="40.7197" cy="79.4702" r="1" fill="#EFB85F"/>
<circle cx="74.7197" cy="74.4702" r="1" fill="#EFB85F"/>
<circle cx="38.7197" cy="143.47" r="1" fill="#EFB85F"/>
<circle cx="72.7197" cy="193.47" r="1" fill="#EFB85F"/>
<path d="M63.5269 139.266L67.8018 139.126L63.5269 138.986L64.8677 137.555L63.4362 138.896L63.2964 134.621L63.1565 138.896L61.725 137.555L63.0658 138.986L58.7909 139.126L63.0658 139.266L61.725 140.697L63.1565 139.357L63.2964 143.631L63.4362 139.357L64.8677 140.697L63.5269 139.266Z" fill="#EFB85F"/>
<path d="M33.4906 226.363L37.7655 226.223L33.4906 226.083L34.8314 224.652L33.3999 225.993L33.2601 221.718L33.1202 225.993L31.6887 224.652L33.0295 226.083L28.7546 226.223L33.0295 226.363L31.6887 227.794L33.1202 226.454L33.2601 230.728L33.3999 226.454L34.8314 227.794L33.4906 226.363Z" fill="#EFB85F"/>
<path d="M28.4846 291.436L32.7595 291.296L28.4846 291.156L29.8254 289.725L28.3939 291.066L28.254 286.791L28.1142 291.066L26.6827 289.725L28.0235 291.156L23.7486 291.296L28.0235 291.436L26.6827 292.867L28.1142 291.527L28.254 295.801L28.3939 291.527L29.8254 292.867L28.4846 291.436Z" fill="#EFB85F"/>
<path d="M45.5052 349.501L49.78 349.361L45.5052 349.221L46.8459 347.79L45.4144 349.13L45.2746 344.856L45.1348 349.13L43.7033 347.79L45.044 349.221L40.7691 349.361L45.044 349.501L43.7033 350.932L45.1348 349.592L45.2746 353.866L45.4144 349.592L46.8459 350.932L45.5052 349.501Z" fill="#EFB85F"/>
<path d="M126.603 378.534L130.878 378.394L126.603 378.254L127.944 376.823L126.512 378.163L126.373 373.889L126.233 378.163L124.801 376.823L126.142 378.254L121.867 378.394L126.142 378.534L124.801 379.965L126.233 378.624L126.373 382.899L126.512 378.624L127.944 379.965L126.603 378.534Z" fill="#EFB85F"/>
<path d="M251.754 385.541L256.029 385.402L251.754 385.262L253.095 383.83L251.664 385.171L251.524 380.896L251.384 385.171L249.952 383.83L251.293 385.262L247.018 385.402L251.293 385.541L249.952 386.973L251.384 385.632L251.524 389.907L251.664 385.632L253.095 386.973L251.754 385.541Z" fill="#EFB85F"/>
<path d="M264.77 221.358L269.045 221.218L264.77 221.078L266.111 219.647L264.679 220.987L264.539 216.713L264.4 220.987L262.968 219.647L264.309 221.078L260.034 221.218L264.309 221.358L262.968 222.789L264.4 221.448L264.539 225.723L264.679 221.448L266.111 222.789L264.77 221.358Z" fill="#EFB85F"/>
<path d="M264.77 221.358L269.045 221.218L264.77 221.078L266.111 219.647L264.679 220.987L264.539 216.713L264.4 220.987L262.968 219.647L264.309 221.078L260.034 221.218L264.309 221.358L262.968 222.789L264.4 221.448L264.539 225.723L264.679 221.448L266.111 222.789L264.77 221.358Z" fill="#EFB85F"/>
<path d="M135.614 105.228L139.889 105.088L135.614 104.948L136.955 103.517L135.523 104.858L135.383 100.583L135.244 104.858L133.812 103.517L135.153 104.948L130.878 105.088L135.153 105.228L133.812 106.659L135.244 105.319L135.383 109.593L135.523 105.319L136.955 106.659L135.614 105.228Z" fill="#EFB85F"/>
<path d="M135.614 105.228L139.889 105.088L135.614 104.948L136.955 103.517L135.523 104.858L135.383 100.583L135.244 104.858L133.812 103.517L135.153 104.948L130.878 105.088L135.153 105.228L133.812 106.659L135.244 105.319L135.383 109.593L135.523 105.319L136.955 106.659L135.614 105.228Z" fill="#EFB85F"/>
<path d="M135.614 105.228L139.889 105.088L135.614 104.948L136.955 103.517L135.523 104.858L135.383 100.583L135.244 104.858L133.812 103.517L135.153 104.948L130.878 105.088L135.153 105.228L133.812 106.659L135.244 105.319L135.383 109.593L135.523 105.319L136.955 106.659L135.614 105.228Z" fill="#EFB85F"/>
<path d="M160.644 78.1977L164.919 78.0578L160.644 77.918L161.985 76.4866L160.554 77.8272L160.414 73.5527L160.274 77.8272L158.842 76.4866L160.183 77.918L155.908 78.0578L160.183 78.1977L158.842 79.629L160.274 78.2883L160.414 82.5628L160.554 78.2883L161.985 79.629L160.644 78.1977Z" fill="#EFB85F"/>
<path d="M193.684 334.484L197.959 334.344L193.684 334.205L195.025 332.773L193.593 334.114L193.454 329.839L193.314 334.114L191.882 332.773L193.223 334.205L188.948 334.344L193.223 334.484L191.882 335.916L193.314 334.575L193.454 338.849L193.593 334.575L195.025 335.916L193.684 334.484Z" fill="#EFB85F"/>
<path d="M193.684 334.484L197.959 334.344L193.684 334.205L195.025 332.773L193.593 334.114L193.454 329.839L193.314 334.114L191.882 332.773L193.223 334.205L188.948 334.344L193.223 334.484L191.882 335.916L193.314 334.575L193.454 338.849L193.593 334.575L195.025 335.916L193.684 334.484Z" fill="#EFB85F"/>
<path d="M237.737 272.415L242.012 272.275L237.737 272.135L239.078 270.704L237.647 272.045L237.507 267.77L237.367 272.045L235.935 270.704L237.276 272.135L233.001 272.275L237.276 272.415L235.935 273.846L237.367 272.506L237.507 276.78L237.647 272.506L239.078 273.846L237.737 272.415Z" fill="#EFB85F"/>
<path d="M250.71 134.026C250.749 133.699 250.814 132.924 250.866 132.312C250.918 131.604 251.009 131.155 251.113 131.114C251.204 131.074 251.62 131.291 252.023 131.591C252.439 131.903 252.802 132.121 252.841 132.08C252.867 132.053 252.62 131.618 252.296 131.128C251.88 130.529 251.737 130.23 251.854 130.189C251.945 130.162 252.607 130.067 253.322 129.972C255.609 129.7 255.596 129.55 253.283 129.291C252.478 129.196 251.802 129.074 251.776 129.033C251.737 128.979 251.984 128.584 252.296 128.149C252.607 127.7 252.841 127.305 252.802 127.264C252.763 127.237 252.374 127.469 251.945 127.781C251.503 128.108 251.113 128.312 251.061 128.258C250.996 128.19 250.892 127.373 250.801 126.435C250.567 123.986 250.463 123.999 250.216 126.489C250.125 127.428 250.021 128.244 249.969 128.285C249.93 128.326 249.541 128.108 249.099 127.795C248.67 127.469 248.293 127.237 248.254 127.278C248.228 127.305 248.423 127.673 248.709 128.081C248.995 128.475 249.229 128.883 249.229 128.965C249.229 129.06 248.67 129.183 247.76 129.291C245.434 129.55 245.434 129.7 247.773 129.985C248.657 130.094 249.229 130.23 249.229 130.312C249.229 130.393 248.995 130.802 248.709 131.196C248.098 132.053 248.046 132.271 248.54 131.931C248.748 131.808 249.125 131.536 249.398 131.346C250.021 130.924 250.073 130.992 250.19 132.461C250.359 134.624 250.554 135.196 250.71 134.026Z" fill="#EFB85F"/>
<path d="M163.605 177.074C163.644 176.747 163.709 175.972 163.761 175.359C163.813 174.652 163.904 174.203 164.008 174.162C164.099 174.121 164.515 174.339 164.917 174.638C165.333 174.951 165.697 175.169 165.736 175.128C165.762 175.101 165.515 174.666 165.19 174.176C164.775 173.577 164.632 173.278 164.749 173.237C164.839 173.21 165.502 173.115 166.217 173.02C168.504 172.747 168.491 172.598 166.178 172.339C165.372 172.244 164.697 172.122 164.671 172.081C164.632 172.026 164.878 171.632 165.19 171.197C165.502 170.748 165.736 170.353 165.697 170.312C165.658 170.285 165.268 170.516 164.839 170.829C164.398 171.156 164.008 171.36 163.956 171.305C163.891 171.237 163.787 170.421 163.696 169.482C163.462 167.034 163.358 167.047 163.111 169.537C163.02 170.476 162.916 171.292 162.864 171.333C162.825 171.373 162.435 171.156 161.993 170.843C161.565 170.516 161.188 170.285 161.149 170.326C161.123 170.353 161.318 170.72 161.604 171.129C161.889 171.523 162.123 171.931 162.123 172.013C162.123 172.108 161.565 172.23 160.655 172.339C158.329 172.598 158.329 172.747 160.668 173.033C161.552 173.142 162.123 173.278 162.123 173.36C162.123 173.441 161.889 173.849 161.604 174.244C160.993 175.101 160.941 175.319 161.435 174.979C161.643 174.856 162.019 174.584 162.292 174.394C162.916 173.972 162.968 174.04 163.085 175.509C163.254 177.672 163.449 178.244 163.605 177.074Z" fill="#EFB85F"/>
<path d="M161.602 263.17C161.641 262.844 161.706 262.068 161.758 261.456C161.81 260.749 161.901 260.3 162.005 260.259C162.096 260.218 162.512 260.436 162.915 260.735C163.331 261.048 163.695 261.266 163.734 261.225C163.76 261.198 163.513 260.762 163.188 260.273C162.772 259.674 162.629 259.375 162.746 259.334C162.837 259.307 163.5 259.211 164.215 259.116C166.502 258.844 166.489 258.694 164.176 258.436C163.37 258.341 162.694 258.218 162.668 258.178C162.629 258.123 162.876 257.729 163.188 257.293C163.5 256.844 163.734 256.45 163.695 256.409C163.656 256.382 163.266 256.613 162.837 256.926C162.395 257.252 162.005 257.457 161.953 257.402C161.888 257.334 161.784 256.518 161.693 255.579C161.46 253.13 161.356 253.144 161.109 255.634C161.018 256.572 160.914 257.388 160.862 257.429C160.823 257.47 160.433 257.252 159.991 256.94C159.562 256.613 159.185 256.382 159.146 256.423C159.12 256.45 159.315 256.817 159.601 257.225C159.887 257.62 160.121 258.028 160.121 258.11C160.121 258.205 159.562 258.327 158.652 258.436C156.326 258.694 156.326 258.844 158.665 259.13C159.549 259.239 160.121 259.375 160.121 259.456C160.121 259.538 159.887 259.946 159.601 260.341C158.99 261.198 158.938 261.415 159.432 261.075C159.64 260.953 160.017 260.681 160.29 260.49C160.914 260.069 160.966 260.137 161.083 261.606C161.252 263.769 161.447 264.34 161.602 263.17Z" fill="#EFB85F"/>
<path d="M36.4513 114.003C36.4903 113.677 36.5553 112.901 36.6073 112.289C36.6592 111.582 36.7502 111.133 36.8542 111.092C36.9451 111.051 37.361 111.269 37.7639 111.568C38.1797 111.881 38.5436 112.099 38.5826 112.058C38.6086 112.031 38.3617 111.595 38.0368 111.106C37.6209 110.507 37.478 110.208 37.5949 110.167C37.6859 110.14 38.3487 110.044 39.0634 109.949C41.3506 109.677 41.3377 109.527 39.0244 109.269C38.2187 109.174 37.5429 109.051 37.5169 109.011C37.478 108.956 37.7249 108.562 38.0368 108.126C38.3487 107.677 38.5826 107.283 38.5436 107.242C38.5046 107.215 38.1147 107.446 37.6859 107.759C37.244 108.085 36.8542 108.29 36.8022 108.235C36.7372 108.167 36.6332 107.351 36.5423 106.412C36.3084 103.963 36.2044 103.977 35.9575 106.467C35.8665 107.405 35.7625 108.221 35.7106 108.262C35.6716 108.303 35.2817 108.085 34.8399 107.773C34.411 107.446 34.0341 107.215 33.9951 107.256C33.9691 107.283 34.1641 107.65 34.45 108.058C34.7359 108.453 34.9698 108.861 34.9698 108.943C34.9698 109.038 34.411 109.16 33.5013 109.269C31.1751 109.527 31.1751 109.677 33.5143 109.963C34.398 110.072 34.9698 110.208 34.9698 110.289C34.9698 110.371 34.7359 110.779 34.45 111.174C33.8392 112.031 33.7872 112.248 34.281 111.908C34.489 111.786 34.8658 111.514 35.1387 111.323C35.7625 110.902 35.8145 110.97 35.9315 112.439C36.1004 114.602 36.2954 115.173 36.4513 114.003Z" fill="#EFB85F"/>
<path d="M268.732 306.218C268.771 305.892 268.836 305.116 268.888 304.504C268.94 303.797 269.031 303.348 269.135 303.307C269.226 303.266 269.642 303.484 270.044 303.783C270.46 304.096 270.824 304.314 270.863 304.273C270.889 304.246 270.642 303.81 270.317 303.32C269.902 302.722 269.759 302.423 269.876 302.382C269.966 302.355 270.629 302.259 271.344 302.164C273.631 301.892 273.618 301.742 271.305 301.484C270.499 301.389 269.824 301.266 269.798 301.225C269.759 301.171 270.005 300.776 270.317 300.341C270.629 299.892 270.863 299.498 270.824 299.457C270.785 299.43 270.395 299.661 269.966 299.974C269.525 300.3 269.135 300.504 269.083 300.45C269.018 300.382 268.914 299.566 268.823 298.627C268.589 296.178 268.485 296.192 268.238 298.681C268.147 299.62 268.043 300.436 267.991 300.477C267.952 300.518 267.562 300.3 267.12 299.987C266.692 299.661 266.315 299.43 266.276 299.47C266.25 299.498 266.445 299.865 266.731 300.273C267.016 300.668 267.25 301.076 267.25 301.157C267.25 301.253 266.692 301.375 265.782 301.484C263.456 301.742 263.456 301.892 265.795 302.178C266.679 302.287 267.25 302.423 267.25 302.504C267.25 302.586 267.016 302.994 266.731 303.388C266.12 304.246 266.068 304.463 266.562 304.123C266.77 304.001 267.146 303.729 267.419 303.538C268.043 303.116 268.095 303.184 268.212 304.654C268.381 306.817 268.576 307.388 268.732 306.218Z" fill="#EFB85F"/>
<path d="M54.4731 275.183C54.5121 274.857 54.577 274.081 54.629 273.469C54.681 272.762 54.772 272.313 54.8759 272.272C54.9669 272.231 55.3828 272.449 55.7856 272.748C56.2015 273.061 56.5654 273.279 56.6044 273.238C56.6303 273.211 56.3834 272.775 56.0585 272.286C55.6427 271.687 55.4997 271.388 55.6167 271.347C55.7077 271.32 56.3704 271.225 57.0852 271.129C59.3724 270.857 59.3594 270.708 57.0462 270.449C56.2405 270.354 55.5647 270.232 55.5387 270.191C55.4997 270.136 55.7466 269.742 56.0585 269.306C56.3704 268.858 56.6044 268.463 56.5654 268.422C56.5264 268.395 56.1365 268.626 55.7077 268.939C55.2658 269.266 54.8759 269.47 54.824 269.415C54.759 269.347 54.655 268.531 54.564 267.592C54.3301 265.144 54.2262 265.157 53.9792 267.647C53.8883 268.585 53.7843 269.402 53.7323 269.442C53.6933 269.483 53.3035 269.266 52.8616 268.953C52.4328 268.626 52.0559 268.395 52.0169 268.436C51.9909 268.463 52.1859 268.83 52.4718 269.238C52.7577 269.633 52.9916 270.041 52.9916 270.123C52.9916 270.218 52.4328 270.34 51.5231 270.449C49.1969 270.708 49.1969 270.857 51.5361 271.143C52.4198 271.252 52.9916 271.388 52.9916 271.47C52.9916 271.551 52.7577 271.959 52.4718 272.354C51.861 273.211 51.809 273.428 52.3028 273.088C52.5107 272.966 52.8876 272.694 53.1605 272.503C53.7843 272.082 53.8363 272.15 53.9533 273.619C54.1222 275.782 54.3171 276.353 54.4731 275.183Z" fill="#EFB85F"/>
<path d="M49.467 396.319C49.506 395.993 49.571 395.217 49.623 394.605C49.675 393.898 49.7659 393.449 49.8699 393.408C49.9609 393.367 50.3767 393.585 50.7796 393.884C51.1954 394.197 51.5593 394.415 51.5983 394.374C51.6243 394.347 51.3774 393.911 51.0525 393.421C50.6366 392.823 50.4937 392.524 50.6106 392.483C50.7016 392.456 51.3644 392.36 52.0791 392.265C54.3664 391.993 54.3534 391.843 52.0402 391.585C51.2344 391.49 50.5587 391.367 50.5327 391.326C50.4937 391.272 50.7406 390.878 51.0525 390.442C51.3644 389.993 51.5983 389.599 51.5593 389.558C51.5203 389.531 51.1305 389.762 50.7016 390.075C50.2598 390.401 49.8699 390.605 49.8179 390.551C49.7529 390.483 49.649 389.667 49.558 388.728C49.3241 386.279 49.2201 386.293 48.9732 388.782C48.8822 389.721 48.7783 390.537 48.7263 390.578C48.6873 390.619 48.2974 390.401 47.8556 390.088C47.4267 389.762 47.0498 389.531 47.0109 389.572C46.9849 389.599 47.1798 389.966 47.4657 390.374C47.7516 390.769 47.9855 391.177 47.9855 391.258C47.9855 391.354 47.4267 391.476 46.517 391.585C44.1908 391.843 44.1908 391.993 46.53 392.279C47.4137 392.388 47.9855 392.524 47.9855 392.605C47.9855 392.687 47.7516 393.095 47.4657 393.49C46.8549 394.347 46.8029 394.564 47.2968 394.224C47.5047 394.102 47.8816 393.83 48.1545 393.639C48.7783 393.217 48.8302 393.285 48.9472 394.755C49.1161 396.918 49.3111 397.489 49.467 396.319Z" fill="#EFB85F"/>
<path d="M229.497 361.875L230.695 363.852L233.001 364.878L230.695 365.904L229.497 367.882L228.3 365.904L225.993 364.878L228.3 363.852L229.497 361.875Z" fill="#EFB85F"/>
<path d="M118.363 309.817L119.56 311.794L121.867 312.82L119.56 313.846L118.363 315.824L117.165 313.846L114.859 312.82L117.165 311.794L118.363 309.817Z" fill="#EFB85F"/>
<path d="M118.363 309.817L119.56 311.794L121.867 312.82L119.56 313.846L118.363 315.824L117.165 313.846L114.859 312.82L117.165 311.794L118.363 309.817Z" fill="#EFB85F"/>
<path d="M84.322 285.79L85.5192 287.767L87.826 288.793L85.5192 289.819L84.322 291.797L83.1243 289.819L80.8175 288.793L83.1243 287.767L84.322 285.79Z" fill="#EFB85F"/>
<path d="M170.426 286.791L171.623 288.768L173.93 289.794L171.623 290.82L170.426 292.798L169.228 290.82L166.922 289.794L169.228 288.768L170.426 286.791Z" fill="#EFB85F"/>
<path d="M78.3147 230.729L79.5119 232.705L81.8187 233.732L79.5119 234.758L78.3147 236.735L77.1171 234.758L74.8103 233.732L77.1171 232.705L78.3147 230.729Z" fill="#EFB85F"/>
<path d="M27.253 185.678L28.4502 187.655L30.757 188.682L28.4502 189.708L27.253 191.685L26.0554 189.708L23.7486 188.682L26.0554 187.655L27.253 185.678Z" fill="#EFB85F"/>
<path d="M27.253 86.5669L28.4502 88.5439L30.757 89.5703L28.4502 90.5963L27.253 92.5736L26.0554 90.5963L23.7486 89.5703L26.0554 88.5439L27.253 86.5669Z" fill="#EFB85F"/>
<circle cx="118.72" cy="77.4702" r="1" fill="#EFB85F"/>
<path d="M114.546 112.001C114.585 111.674 114.65 110.899 114.702 110.287C114.754 109.579 114.845 109.13 114.949 109.09C115.039 109.049 115.455 109.266 115.858 109.566C116.274 109.879 116.638 110.096 116.677 110.055C116.703 110.028 116.456 109.593 116.131 109.103C115.715 108.505 115.572 108.205 115.689 108.164C115.78 108.137 116.443 108.042 117.158 107.947C119.445 107.675 119.432 107.525 117.119 107.267C116.313 107.171 115.637 107.049 115.611 107.008C115.572 106.954 115.819 106.559 116.131 106.124C116.443 105.675 116.677 105.28 116.638 105.24C116.599 105.212 116.209 105.444 115.78 105.757C115.338 106.083 114.949 106.287 114.897 106.233C114.832 106.165 114.728 105.348 114.637 104.41C114.403 101.961 114.299 101.975 114.052 104.464C113.961 105.403 113.857 106.219 113.805 106.26C113.766 106.301 113.376 106.083 112.934 105.77C112.505 105.444 112.128 105.212 112.089 105.253C112.063 105.28 112.258 105.648 112.544 106.056C112.83 106.45 113.064 106.858 113.064 106.94C113.064 107.035 112.505 107.158 111.596 107.267C109.269 107.525 109.269 107.675 111.609 107.96C112.492 108.069 113.064 108.205 113.064 108.287C113.064 108.369 112.83 108.777 112.544 109.171C111.934 110.028 111.882 110.246 112.375 109.906C112.583 109.783 112.96 109.511 113.233 109.321C113.857 108.899 113.909 108.967 114.026 110.436C114.195 112.599 114.39 113.171 114.546 112.001Z" fill="#EFB85F"/>
<path d="M105.347 84.5649L106.545 86.5419L108.851 87.5683L106.545 88.5943L105.347 90.5717L104.15 88.5943L101.843 87.5683L104.15 86.5419L105.347 84.5649Z" fill="#EFB85F"/>
<path d="M256.53 70.5493L257.727 72.5263L260.034 73.5527L257.727 74.5787L256.53 76.556L255.332 74.5787L253.026 73.5527L255.332 72.5263L256.53 70.5493Z" fill="#EFB85F"/>
<path d="M165.42 28.502L166.617 30.4789L168.924 31.5053L166.617 32.5313L165.42 34.5087L164.222 32.5313L161.915 31.5053L164.222 30.4789L165.42 28.502Z" fill="#EFB85F"/>
<path d="M238.007 298.805L238.759 302.464L242.012 303.309L238.759 304.155L238.007 307.815L237.255 304.155L234.003 303.309L237.255 302.464L238.007 298.805Z" fill="#EFB85F"/>
<path d="M57.7895 245.745L58.5415 249.404L61.7945 250.25L58.5415 251.096L57.7895 254.755L57.0375 251.096L53.7849 250.25L57.0375 249.404L57.7895 245.745Z" fill="#EFB85F"/>
<path d="M62.7955 339.851L63.5476 343.51L66.8006 344.355L63.5476 345.201L62.7955 348.861L62.0435 345.201L58.7909 344.355L62.0435 343.51L62.7955 339.851Z" fill="#EFB85F"/>
<path d="M261.035 338.85L261.787 342.509L265.04 343.354L261.787 344.2L261.035 347.86L260.283 344.2L257.03 343.354L260.283 342.509L261.035 338.85Z" fill="#EFB85F"/>
<path d="M160.914 327.837L161.666 331.496L164.919 332.342L161.666 333.188L160.914 336.847L160.162 333.188L156.909 332.342L160.162 331.496L160.914 327.837Z" fill="#EFB85F"/>
<path d="M254.027 237.736L254.779 241.396L258.032 242.241L254.779 243.087L254.027 246.746L253.274 243.087L250.022 242.241L253.274 241.396L254.027 237.736Z" fill="#EFB85F"/>
<path d="M254.027 237.736L254.779 241.396L258.032 242.241L254.779 243.087L254.027 246.746L253.274 243.087L250.022 242.241L253.274 241.396L254.027 237.736Z" fill="#EFB85F"/>
<path d="M115.86 343.855L116.612 347.514L119.865 348.36L116.612 349.206L115.86 352.865L115.108 349.206L111.855 348.36L115.108 347.514L115.86 343.855Z" fill="#EFB85F"/>
<circle cx="125.72" cy="66.4702" r="1" fill="#EFB85F"/>
<circle cx="164.72" cy="363.47" r="1" fill="#EFB85F"/>
<circle cx="143.72" cy="317.47" r="1" fill="#EFB85F"/>
<circle cx="161.72" cy="315.47" r="1" fill="#EFB85F"/>
<circle cx="158.72" cy="277.47" r="1" fill="#EFB85F"/>
<circle cx="120.72" cy="331.47" r="1" fill="#EFB85F"/>
<circle cx="162.72" cy="91.4702" r="1" fill="#EFB85F"/>
<circle cx="162.72" cy="91.4702" r="1" fill="#EFB85F"/>
<circle cx="185.72" cy="193.47" r="1" fill="#EFB85F"/>
<circle cx="122.72" cy="193.47" r="1" fill="#EFB85F"/>
<circle cx="150.72" cy="164.47" r="1" fill="#EFB85F"/>
<circle cx="76.7197" cy="41.4702" r="1" fill="#EFB85F"/>
<circle cx="146.72" cy="40.4702" r="1" fill="#EFB85F"/>
<circle cx="177.72" cy="51.4702" r="1" fill="#EFB85F"/>
<circle cx="177.72" cy="51.4702" r="1" fill="#EFB85F"/>
<circle cx="109.72" cy="143.47" r="1" fill="#EFB85F"/>
<circle cx="145.72" cy="124.47" r="1" fill="#EFB85F"/>
<circle cx="81.7197" cy="177.47" r="1" fill="#EFB85F"/>
<circle cx="59.7197" cy="216.47" r="1" fill="#EFB85F"/>
<circle cx="38.7197" cy="328.47" r="1" fill="#EFB85F"/>
<circle cx="188.72" cy="155.47" r="1" fill="#EFB85F"/>
<circle cx="127.72" cy="292.47" r="1" fill="#EFB85F"/>
<circle cx="166.72" cy="214.47" r="1" fill="#EFB85F"/>
<circle cx="155.72" cy="194.47" r="1" fill="#EFB85F"/>
<circle cx="168.72" cy="153.47" r="1" fill="#EFB85F"/>
<circle cx="141.72" cy="354.47" r="1" fill="#EFB85F"/>
<path d="M126.603 378.534L130.878 378.394L126.603 378.254L127.944 376.823L126.512 378.163L126.373 373.889L126.233 378.163L124.801 376.823L126.142 378.254L121.867 378.394L126.142 378.534L124.801 379.965L126.233 378.624L126.373 382.899L126.512 378.624L127.944 379.965L126.603 378.534Z" fill="#EFB85F"/>
<path d="M135.614 105.228L139.889 105.088L135.614 104.948L136.955 103.517L135.523 104.858L135.383 100.583L135.244 104.858L133.812 103.517L135.153 104.948L130.878 105.088L135.153 105.228L133.812 106.659L135.244 105.319L135.383 109.593L135.523 105.319L136.955 106.659L135.614 105.228Z" fill="#EFB85F"/>
<path d="M135.614 105.228L139.889 105.088L135.614 104.948L136.955 103.517L135.523 104.858L135.383 100.583L135.244 104.858L133.812 103.517L135.153 104.948L130.878 105.088L135.153 105.228L133.812 106.659L135.244 105.319L135.383 109.593L135.523 105.319L136.955 106.659L135.614 105.228Z" fill="#EFB85F"/>
<path d="M135.614 105.228L139.889 105.088L135.614 104.948L136.955 103.517L135.523 104.858L135.383 100.583L135.244 104.858L133.812 103.517L135.153 104.948L130.878 105.088L135.153 105.228L133.812 106.659L135.244 105.319L135.383 109.593L135.523 105.319L136.955 106.659L135.614 105.228Z" fill="#EFB85F"/>
<path d="M160.644 78.1977L164.919 78.0578L160.644 77.918L161.985 76.4866L160.554 77.8272L160.414 73.5527L160.274 77.8272L158.842 76.4866L160.183 77.918L155.908 78.0578L160.183 78.1977L158.842 79.629L160.274 78.2883L160.414 82.5628L160.554 78.2883L161.985 79.629L160.644 78.1977Z" fill="#EFB85F"/>
<path d="M160.914 327.837L161.666 331.496L164.919 332.342L161.666 333.188L160.914 336.847L160.162 333.188L156.909 332.342L160.162 331.496L160.914 327.837Z" fill="#EFB85F"/>
<path d="M148.9 290.795L149.652 294.455L152.905 295.3L149.652 296.146L148.9 299.805L148.148 296.146L144.895 295.3L148.148 294.455L148.9 290.795Z" fill="#EFB85F"/>
<path d="M121.867 213.709L122.619 217.369L125.872 218.214L122.619 219.06L121.867 222.72L121.115 219.06L117.862 218.214L121.115 217.369L121.867 213.709Z" fill="#EFB85F"/>
<path d="M146.897 138.625L147.649 142.285L150.902 143.13L147.649 143.976L146.897 147.636L146.145 143.976L142.893 143.13L146.145 142.285L146.897 138.625Z" fill="#EFB85F"/>
<path d="M196.958 163.653L197.71 167.313L200.963 168.158L197.71 169.004L196.958 172.663L196.206 169.004L192.953 168.158L196.206 167.313L196.958 163.653Z" fill="#EFB85F"/>
<path d="M115.86 343.855L116.612 347.514L119.865 348.36L116.612 349.206L115.86 352.865L115.108 349.206L111.855 348.36L115.108 347.514L115.86 343.855Z" fill="#EFB85F"/>
<circle cx="41.7197" cy="29.4702" r="1" fill="#EFB85F"/>
<path d="M28.2542 36.5112L29.4515 38.4882L31.7583 39.5146L29.4515 40.5406L28.2542 42.518L27.0566 40.5406L24.7498 39.5146L27.0566 38.4882L28.2542 36.5112Z" fill="#EFB85F"/>
<path d="M64.5281 89.2099L68.803 89.07L64.5281 88.9302L65.8689 87.4988L64.4374 88.8394L64.2976 84.5649L64.1577 88.8394L62.7262 87.4988L64.067 88.9302L59.7921 89.07L64.067 89.2099L62.7262 90.6412L64.1577 89.3005L64.2976 93.575L64.4374 89.3005L65.8689 90.6412L64.5281 89.2099Z" fill="#EFB85F"/>
<path d="M136.615 182.314L140.89 182.174L136.615 182.034L137.956 180.603L136.524 181.943L136.385 177.669L136.245 181.943L134.813 180.603L136.154 182.034L131.879 182.174L136.154 182.314L134.813 183.745L136.245 182.405L136.385 186.679L136.524 182.405L137.956 183.745L136.615 182.314Z" fill="#EFB85F"/>
<path d="M145.626 221.358L149.901 221.218L145.626 221.078L146.967 219.647L145.535 220.987L145.396 216.713L145.256 220.987L143.824 219.647L145.165 221.078L140.89 221.218L145.165 221.358L143.824 222.789L145.256 221.448L145.396 225.723L145.535 221.448L146.967 222.789L145.626 221.358Z" fill="#EFB85F"/>
<path d="M139.619 272.415L143.894 272.275L139.619 272.135L140.96 270.704L139.528 272.045L139.388 267.77L139.248 272.045L137.817 270.704L139.158 272.135L134.883 272.275L139.158 272.415L137.817 273.846L139.248 272.506L139.388 276.78L139.528 272.506L140.96 273.846L139.619 272.415Z" fill="#EFB85F"/>
<circle cx="39.7197" cy="93.4702" r="1" fill="#EFB85F"/>
<circle cx="60.7197" cy="106.47" r="1" fill="#EFB85F"/>
<circle cx="231.72" cy="24.4702" r="1" fill="#EFB85F"/>
<circle cx="265.72" cy="33.4702" r="1" fill="#EFB85F"/>
<circle cx="265.72" cy="33.4702" r="1" fill="#EFB85F"/>
<circle cx="267.72" cy="34.4702" r="1" fill="#EFB85F"/>
<path d="M267.774 92.2133L272.049 92.0734L267.774 91.9336L269.114 90.5022L267.683 91.8429L267.543 87.5684L267.403 91.8429L265.972 90.5022L267.313 91.9336L263.038 92.0734L267.313 92.2133L265.972 93.6446L267.403 92.3039L267.543 96.5784L267.683 92.3039L269.114 93.6446L267.774 92.2133Z" fill="#EFB85F"/>
<path d="M267.774 92.2133L272.049 92.0734L267.774 91.9336L269.114 90.5022L267.683 91.8429L267.543 87.5684L267.403 91.8429L265.972 90.5022L267.313 91.9336L263.038 92.0734L267.313 92.2133L265.972 93.6446L267.403 92.3039L267.543 96.5784L267.683 92.3039L269.114 93.6446L267.774 92.2133Z" fill="#EFB85F"/>
<path d="M177.434 124.61L178.632 126.587L180.938 127.613L178.632 128.639L177.434 130.617L176.237 128.639L173.93 127.613L176.237 126.587L177.434 124.61Z" fill="#EFB85F"/>
<g clip-path="url(#clip1_101_23172)">
<path d="M61.0029 62.0049C60.9671 62.0622 60.8776 62.0765 60.7344 62.0479C60.5983 62.012 60.4372 61.9941 60.251 61.9941C60.0648 61.9941 59.7998 62.0335 59.4561 62.1123C59.1195 62.1839 58.5859 62.2985 57.8555 62.4561C57.125 62.6208 56.459 62.7031 55.8574 62.7031C54.4967 62.7031 53.1755 62.3844 51.8936 61.7471C50.6188 61.1025 49.5983 60.193 48.832 59.0186C48.0658 57.8369 47.6826 56.4691 47.6826 54.915C47.6826 53.361 48.0658 51.9538 48.832 50.6934C49.9492 48.8457 51.6322 47.6426 53.8809 47.084C54.597 46.9049 55.3132 46.8154 56.0293 46.8154C57.0104 46.8154 58.1742 46.9801 59.5205 47.3096C59.9287 47.4098 60.2725 47.5137 60.5518 47.6211C60.8382 47.7285 61.0137 47.7822 61.0781 47.7822L61.4004 47.6963H61.7334C61.8193 47.6963 61.8623 47.7572 61.8623 47.8789V51.2197C61.8623 51.2913 61.7979 51.3271 61.6689 51.3271C61.54 51.3271 61.4648 51.3128 61.4434 51.2842C61.4219 51.2484 61.4004 51.209 61.3789 51.166C61.3574 51.1159 61.3324 51.0658 61.3037 51.0156C61.2822 50.9655 61.2572 50.9189 61.2285 50.876C61.207 50.833 61.1927 50.8008 61.1855 50.7793C60.1113 48.6237 58.4821 47.5459 56.2979 47.5459C54.3285 47.5459 52.7887 48.1725 51.6787 49.4258C50.5687 50.679 50.0137 52.3405 50.0137 54.4102C50.0137 56.4727 50.6224 58.2451 51.8398 59.7275C53.0645 61.21 54.7259 61.9512 56.8242 61.9512C57.9701 61.9512 59.012 61.611 59.9502 60.9307C60.8955 60.2503 61.6367 59.416 62.1738 58.4277C62.1882 58.3848 62.2311 58.3633 62.3027 58.3633H62.4424C62.514 58.3633 62.5498 58.4062 62.5498 58.4922C62.5498 58.5781 62.5283 58.6605 62.4854 58.7393L61.0029 62.0049ZM64.1826 57.5898C64.1826 56.179 64.6803 54.9688 65.6758 53.959C66.6784 52.9421 67.8779 52.4336 69.2744 52.4336C70.6709 52.4336 71.8848 52.9277 72.916 53.916C73.9473 54.8971 74.4629 56.111 74.4629 57.5576C74.4629 59.0042 73.9723 60.2253 72.9912 61.2207C72.0173 62.209 70.7926 62.7031 69.3174 62.7031C67.8421 62.7031 66.6175 62.2018 65.6436 61.1992C64.6696 60.1966 64.1826 58.9935 64.1826 57.5898ZM66.8574 60.3506C67.5592 61.5322 68.5153 62.123 69.7256 62.123C70.6637 62.123 71.3799 61.7471 71.874 60.9951C72.3753 60.2432 72.626 59.3193 72.626 58.2236C72.626 57.1279 72.2751 56.0036 71.5732 54.8506C70.8786 53.6976 69.9404 53.1211 68.7588 53.1211C67.8923 53.1211 67.2083 53.4971 66.707 54.249C66.2129 54.9938 65.9658 55.9427 65.9658 57.0957C65.9658 58.2415 66.263 59.3265 66.8574 60.3506ZM83.916 59.0293L83.8945 56.7627C83.8945 55.8389 83.8158 55.1908 83.6582 54.8184C83.5007 54.446 83.3001 54.1667 83.0566 53.9805C82.8132 53.7871 82.4837 53.6904 82.0684 53.6904C81.6602 53.6904 80.79 54.0127 79.458 54.6572C79.279 54.7646 79.1859 54.8649 79.1787 54.958V60.7373C79.1787 61.4606 79.5654 61.876 80.3389 61.9834C80.6755 62.0335 80.8438 62.1159 80.8438 62.2305C80.8438 62.3379 80.8079 62.3988 80.7363 62.4131H75.9453C75.8737 62.3988 75.8379 62.3486 75.8379 62.2627C75.8379 62.1266 76.0062 62.0335 76.3428 61.9834C77.1162 61.876 77.5029 61.4606 77.5029 60.7373V54.5713C77.5029 54.2705 77.3382 54.0628 77.0088 53.9482C76.8656 53.8981 76.7116 53.8587 76.5469 53.8301C76.3822 53.7943 76.2497 53.762 76.1494 53.7334C76.0563 53.7048 75.9954 53.6797 75.9668 53.6582C75.9453 53.6296 75.9346 53.5758 75.9346 53.4971C75.9346 53.4111 75.9883 53.3395 76.0957 53.2822L78.835 51.9932C78.9209 51.9502 78.9746 51.9287 78.9961 51.9287C79.1178 51.9287 79.1787 52.0146 79.1787 52.1865V53.8623C79.2002 53.9339 79.2288 53.9697 79.2646 53.9697C79.3076 53.9697 79.4616 53.9053 79.7266 53.7764C80.3424 53.4684 80.9619 53.1712 81.585 52.8848C82.208 52.5983 82.7236 52.4551 83.1318 52.4551C84.7861 52.4551 85.6133 53.9626 85.6133 56.9775L85.5166 60.1143V60.7373C85.5166 61.2959 85.7959 61.6611 86.3545 61.833C86.5908 61.9118 86.8164 61.9691 87.0312 62.0049C87.2533 62.0335 87.3965 62.0622 87.4609 62.0908C87.5326 62.1195 87.5684 62.1768 87.5684 62.2627C87.5684 62.3486 87.5326 62.3988 87.4609 62.4131H82.2832C82.2116 62.3988 82.1758 62.3486 82.1758 62.2627C82.1758 62.1266 82.3441 62.0335 82.6807 61.9834C83.4469 61.876 83.8301 61.432 83.8301 60.6514C83.8874 60.2933 83.916 59.7526 83.916 59.0293ZM93.7451 55.0654C93.7451 55.223 93.6842 55.3018 93.5625 55.3018C93.4479 55.3018 93.3584 55.2158 93.2939 55.0439C93.1221 54.5713 92.8643 54.1523 92.5205 53.7871C92.1839 53.4219 91.765 53.2393 91.2637 53.2393C90.6048 53.2393 90.1608 53.5687 89.9316 54.2275C89.86 54.4495 89.8242 54.6787 89.8242 54.915C89.8242 55.1514 89.9746 55.4163 90.2754 55.71C90.5762 55.9964 91.0703 56.3402 91.7578 56.7412C92.4453 57.1423 92.9466 57.4824 93.2617 57.7617C93.9779 58.3991 94.3359 59.1367 94.3359 59.9746C94.3359 60.8125 94.028 61.4785 93.4121 61.9727C92.7962 62.4596 92.0801 62.7031 91.2637 62.7031C90.8268 62.7031 90.4294 62.6423 90.0713 62.5205C89.7204 62.4059 89.5163 62.3486 89.459 62.3486C89.4089 62.3486 89.3229 62.4059 89.2012 62.5205C89.0866 62.6423 88.9935 62.7031 88.9219 62.7031H88.7393C88.6963 62.7031 88.6426 62.3164 88.5781 61.543C88.5137 60.7695 88.4814 60.3112 88.4814 60.168C88.4814 60.0247 88.4922 59.946 88.5137 59.9316C88.5423 59.9173 88.5853 59.9102 88.6426 59.9102C88.6999 59.9102 88.7464 59.9281 88.7822 59.9639C88.8252 59.9997 88.861 60.0462 88.8896 60.1035C88.9183 60.1536 88.9398 60.2074 88.9541 60.2646C88.9756 60.3219 89.0221 60.4294 89.0938 60.5869C89.5807 61.6253 90.3327 62.1445 91.3496 62.1445C91.8008 62.1445 92.1624 61.9798 92.4346 61.6504C92.7067 61.3138 92.8428 60.9414 92.8428 60.5332C92.8428 60.125 92.7354 59.7812 92.5205 59.502C92.3057 59.2227 92.0371 58.9684 91.7148 58.7393C91.3997 58.5101 91.056 58.2881 90.6836 58.0732C89.237 57.2282 88.5137 56.2936 88.5137 55.2695C88.5137 54.5033 88.8431 53.8444 89.502 53.293C90.1608 52.7344 90.8376 52.4551 91.5322 52.4551C92.2269 52.4551 92.7389 52.5303 93.0684 52.6807C93.4049 52.8311 93.6019 52.96 93.6592 53.0674C93.7165 53.1676 93.7451 53.5042 93.7451 54.0771V55.0654ZM98.5146 54.1523C98.4717 54.1523 98.4502 54.1846 98.4502 54.249V60.1787C98.4502 60.6084 98.5433 60.945 98.7295 61.1885C98.9229 61.432 99.1663 61.5537 99.46 61.5537C99.7536 61.5537 100.008 61.5072 100.223 61.4141C100.445 61.3138 100.634 61.2064 100.792 61.0918C100.957 60.9772 101.104 60.8734 101.232 60.7803C101.361 60.68 101.476 60.6299 101.576 60.6299C101.676 60.6299 101.727 60.6549 101.727 60.7051C101.727 60.877 101.709 60.988 101.673 61.0381C100.813 62.1481 99.9827 62.7031 99.1807 62.7031C98.3857 62.7031 97.7842 62.4525 97.376 61.9512C96.9749 61.4427 96.7744 60.8376 96.7744 60.1357V54.1523H95.9688C95.7682 54.1523 95.6608 54.0879 95.6465 53.959C95.6393 53.8301 95.6608 53.7477 95.7109 53.7119C96.0905 53.4684 96.6133 53.0316 97.2793 52.4014C97.3509 52.3226 97.4476 52.2044 97.5693 52.0469C97.6911 51.8893 97.8665 51.6745 98.0957 51.4023C98.332 51.1302 98.5111 50.9941 98.6328 50.9941C98.7546 50.9941 98.8154 51.0443 98.8154 51.1445C98.8154 51.1589 98.6937 51.6279 98.4502 52.5518C98.4502 52.6807 98.5075 52.7487 98.6221 52.7559H101.361C101.676 52.7559 101.834 53.1999 101.834 54.0879C101.834 54.1309 101.805 54.1523 101.748 54.1523H98.5146ZM104.595 56.752C104.473 56.752 104.412 57.0133 104.412 57.5361C104.412 58.6462 104.742 59.5771 105.4 60.3291C106.059 61.0811 106.876 61.457 107.85 61.457C108.831 61.457 109.772 61.0345 110.675 60.1895C110.689 60.1751 110.707 60.168 110.729 60.168H110.782C110.825 60.168 110.865 60.2038 110.9 60.2754C110.943 60.3398 110.983 60.3828 111.019 60.4043C110.188 61.4141 109.21 62.1123 108.086 62.499C107.699 62.6351 107.262 62.7031 106.775 62.7031C106.288 62.7031 105.794 62.5706 105.293 62.3057C104.792 62.0335 104.362 61.679 104.004 61.2422C103.245 60.3327 102.865 59.2012 102.865 57.8477C102.865 56.487 103.277 55.248 104.101 54.1309C104.931 53.0137 106.07 52.4551 107.517 52.4551C108.555 52.4551 109.404 52.9206 110.062 53.8516C110.721 54.7754 111.051 55.5882 111.051 56.29C111.051 56.598 110.976 56.752 110.825 56.752H104.595ZM104.713 55.7207C104.713 55.8568 104.777 55.9248 104.906 55.9248H108.956C109.142 55.9248 109.235 55.8138 109.235 55.5918C109.235 55.0762 109.003 54.5498 108.537 54.0127C108.079 53.4684 107.574 53.1963 107.022 53.1963C106.485 53.1963 105.995 53.4398 105.551 53.9268C105.114 54.4137 104.835 54.9688 104.713 55.5918V55.7207ZM116.819 62.0049C117.156 62.0479 117.324 62.1338 117.324 62.2627C117.324 62.3486 117.288 62.3988 117.217 62.4131H112.426C112.354 62.3988 112.318 62.3486 112.318 62.2627C112.318 62.1338 112.487 62.0479 112.823 62.0049C113.597 61.8903 113.983 61.4821 113.983 60.7803V47.3848C113.983 47.084 113.819 46.8763 113.489 46.7617C113.346 46.7116 113.192 46.6722 113.027 46.6436C112.863 46.6077 112.73 46.5755 112.63 46.5469C112.537 46.5182 112.476 46.4932 112.447 46.4717C112.426 46.443 112.415 46.3893 112.415 46.3105C112.415 46.2246 112.469 46.153 112.576 46.0957L115.315 44.8066C115.401 44.7637 115.455 44.7422 115.477 44.7422C115.598 44.7422 115.659 44.8281 115.659 45V60.7803C115.659 61.4821 116.046 61.8903 116.819 62.0049ZM122.427 62.0049C122.763 62.0479 122.932 62.1338 122.932 62.2627C122.932 62.3486 122.896 62.3988 122.824 62.4131H118.033C117.962 62.3988 117.926 62.3486 117.926 62.2627C117.926 62.1338 118.094 62.0479 118.431 62.0049C119.204 61.8903 119.591 61.4821 119.591 60.7803V47.3848C119.591 47.084 119.426 46.8763 119.097 46.7617C118.953 46.7116 118.799 46.6722 118.635 46.6436C118.47 46.6077 118.338 46.5755 118.237 46.5469C118.144 46.5182 118.083 46.4932 118.055 46.4717C118.033 46.443 118.022 46.3893 118.022 46.3105C118.022 46.2246 118.076 46.153 118.184 46.0957L120.923 44.8066C121.009 44.7637 121.062 44.7422 121.084 44.7422C121.206 44.7422 121.267 44.8281 121.267 45V60.7803C121.267 61.4821 121.653 61.8903 122.427 62.0049ZM130.709 60.6406C130.709 60.8268 130.795 60.9772 130.967 61.0918C131.146 61.1992 131.35 61.2529 131.579 61.2529C131.808 61.2529 131.998 61.1956 132.148 61.0811C132.306 60.9593 132.413 60.8984 132.471 60.8984C132.528 60.8984 132.557 60.9772 132.557 61.1348C132.557 61.2852 132.485 61.4141 132.342 61.5215C131.268 62.3092 130.541 62.7031 130.161 62.7031C129.703 62.7031 129.33 62.2269 129.044 61.2744C129.022 61.2028 129.005 61.1706 128.99 61.1777C128.102 61.8438 127.544 62.2448 127.314 62.3809C126.727 62.7174 126.136 62.7712 125.542 62.542C124.955 62.3128 124.529 61.9333 124.264 61.4033C124.135 61.1312 124.07 60.8411 124.07 60.5332C124.07 59.9245 124.296 59.4411 124.747 59.083C125.198 58.7249 126.058 58.3812 127.325 58.0518C127.755 57.9372 128.138 57.7904 128.475 57.6113C128.811 57.4323 128.987 57.3177 129.001 57.2676C129.022 57.2174 129.033 57.1709 129.033 57.1279V55.0654C129.033 54.2562 128.718 53.6868 128.088 53.3574C127.88 53.25 127.63 53.1963 127.336 53.1963C127.049 53.1963 126.756 53.3109 126.455 53.54C126.161 53.7692 126.015 54.0951 126.015 54.5176L126.068 54.9365C126.025 55.0225 125.768 55.1657 125.295 55.3662C124.822 55.5667 124.55 55.6742 124.479 55.6885C124.364 55.6885 124.307 55.5524 124.307 55.2803C124.307 55.001 124.389 54.693 124.554 54.3564C124.718 54.0199 124.951 53.7119 125.252 53.4326C125.954 52.7809 126.756 52.4551 127.658 52.4551C128.561 52.4551 129.295 52.7057 129.86 53.207C130.426 53.7012 130.709 54.292 130.709 54.9795V60.6406ZM125.757 60.3291C125.757 60.6729 125.889 60.9736 126.154 61.2314C126.419 61.4821 126.72 61.6074 127.057 61.6074C127.4 61.6074 127.816 61.4642 128.303 61.1777C128.79 60.8841 129.033 60.5833 129.033 60.2754V58.0947C129.033 58.016 129.015 57.9766 128.979 57.9766C128.944 57.9766 128.919 57.9801 128.904 57.9873L126.412 59.1475C126.154 59.3337 125.979 59.4912 125.886 59.6201C125.8 59.749 125.757 59.9854 125.757 60.3291ZM136.198 54.1523C136.155 54.1523 136.134 54.1846 136.134 54.249V60.1787C136.134 60.6084 136.227 60.945 136.413 61.1885C136.606 61.432 136.85 61.5537 137.144 61.5537C137.437 61.5537 137.691 61.5072 137.906 61.4141C138.128 61.3138 138.318 61.2064 138.476 61.0918C138.64 60.9772 138.787 60.8734 138.916 60.7803C139.045 60.68 139.16 60.6299 139.26 60.6299C139.36 60.6299 139.41 60.6549 139.41 60.7051C139.41 60.877 139.392 60.988 139.356 61.0381C138.497 62.1481 137.666 62.7031 136.864 62.7031C136.069 62.7031 135.468 62.4525 135.06 61.9512C134.659 61.4427 134.458 60.8376 134.458 60.1357V54.1523H133.652C133.452 54.1523 133.344 54.0879 133.33 53.959C133.323 53.8301 133.344 53.7477 133.395 53.7119C133.774 53.4684 134.297 53.0316 134.963 52.4014C135.035 52.3226 135.131 52.2044 135.253 52.0469C135.375 51.8893 135.55 51.6745 135.779 51.4023C136.016 51.1302 136.195 50.9941 136.316 50.9941C136.438 50.9941 136.499 51.0443 136.499 51.1445C136.499 51.1589 136.377 51.6279 136.134 52.5518C136.134 52.6807 136.191 52.7487 136.306 52.7559H139.045C139.36 52.7559 139.518 53.1999 139.518 54.0879C139.518 54.1309 139.489 54.1523 139.432 54.1523H136.198ZM140.549 62.4131C140.477 62.3988 140.441 62.3486 140.441 62.2627C140.441 62.1338 140.61 62.0479 140.946 62.0049C141.72 61.8903 142.106 61.4821 142.106 60.7803V55.0977C142.106 54.7969 141.942 54.5892 141.612 54.4746C141.469 54.4245 141.315 54.3851 141.15 54.3564C140.986 54.3206 140.853 54.2884 140.753 54.2598C140.66 54.2311 140.599 54.2061 140.57 54.1846C140.549 54.1559 140.538 54.1022 140.538 54.0234C140.538 53.9375 140.592 53.8659 140.699 53.8086L143.438 52.5195C143.524 52.4766 143.578 52.4551 143.6 52.4551C143.721 52.4551 143.782 52.541 143.782 52.7129V60.7803C143.782 61.4821 144.169 61.8903 144.942 62.0049C145.279 62.0479 145.447 62.123 145.447 62.2305C145.447 62.3379 145.411 62.3988 145.34 62.4131H140.549ZM142.783 49.4365C142.49 49.4365 142.228 49.3434 141.999 49.1572C141.777 48.971 141.666 48.7132 141.666 48.3838C141.666 48.0472 141.773 47.7822 141.988 47.5889C142.203 47.3955 142.457 47.2988 142.751 47.2988C143.052 47.2988 143.302 47.4134 143.503 47.6426C143.711 47.8717 143.814 48.1188 143.814 48.3838C143.814 48.6488 143.718 48.8923 143.524 49.1143C143.331 49.3291 143.084 49.4365 142.783 49.4365ZM146.79 57.5898C146.79 56.179 147.288 54.9688 148.283 53.959C149.286 52.9421 150.485 52.4336 151.882 52.4336C153.278 52.4336 154.492 52.9277 155.523 53.916C156.555 54.8971 157.07 56.111 157.07 57.5576C157.07 59.0042 156.58 60.2253 155.599 61.2207C154.625 62.209 153.4 62.7031 151.925 62.7031C150.45 62.7031 149.225 62.2018 148.251 61.1992C147.277 60.1966 146.79 58.9935 146.79 57.5898ZM149.465 60.3506C150.167 61.5322 151.123 62.123 152.333 62.123C153.271 62.123 153.987 61.7471 154.481 60.9951C154.983 60.2432 155.233 59.3193 155.233 58.2236C155.233 57.1279 154.882 56.0036 154.181 54.8506C153.486 53.6976 152.548 53.1211 151.366 53.1211C150.5 53.1211 149.816 53.4971 149.314 54.249C148.82 54.9938 148.573 55.9427 148.573 57.0957C148.573 58.2415 148.87 59.3265 149.465 60.3506ZM166.523 59.0293L166.502 56.7627C166.502 55.8389 166.423 55.1908 166.266 54.8184C166.108 54.446 165.908 54.1667 165.664 53.9805C165.421 53.7871 165.091 53.6904 164.676 53.6904C164.268 53.6904 163.397 54.0127 162.065 54.6572C161.886 54.7646 161.793 54.8649 161.786 54.958V60.7373C161.786 61.4606 162.173 61.876 162.946 61.9834C163.283 62.0335 163.451 62.1159 163.451 62.2305C163.451 62.3379 163.415 62.3988 163.344 62.4131H158.553C158.481 62.3988 158.445 62.3486 158.445 62.2627C158.445 62.1266 158.614 62.0335 158.95 61.9834C159.724 61.876 160.11 61.4606 160.11 60.7373V54.5713C160.11 54.2705 159.946 54.0628 159.616 53.9482C159.473 53.8981 159.319 53.8587 159.154 53.8301C158.99 53.7943 158.857 53.762 158.757 53.7334C158.664 53.7048 158.603 53.6797 158.574 53.6582C158.553 53.6296 158.542 53.5758 158.542 53.4971C158.542 53.4111 158.596 53.3395 158.703 53.2822L161.442 51.9932C161.528 51.9502 161.582 51.9287 161.604 51.9287C161.725 51.9287 161.786 52.0146 161.786 52.1865V53.8623C161.808 53.9339 161.836 53.9697 161.872 53.9697C161.915 53.9697 162.069 53.9053 162.334 53.7764C162.95 53.4684 163.569 53.1712 164.192 52.8848C164.815 52.5983 165.331 52.4551 165.739 52.4551C167.394 52.4551 168.221 53.9626 168.221 56.9775L168.124 60.1143V60.7373C168.124 61.2959 168.403 61.6611 168.962 61.833C169.198 61.9118 169.424 61.9691 169.639 62.0049C169.861 62.0335 170.004 62.0622 170.068 62.0908C170.14 62.1195 170.176 62.1768 170.176 62.2627C170.176 62.3486 170.14 62.3988 170.068 62.4131H164.891C164.819 62.3988 164.783 62.3486 164.783 62.2627C164.783 62.1266 164.951 62.0335 165.288 61.9834C166.054 61.876 166.438 61.432 166.438 60.6514C166.495 60.2933 166.523 59.7526 166.523 59.0293ZM183.679 52.9062C183.994 53.0137 184.187 53.0674 184.259 53.0674C184.33 53.0674 184.373 53.0674 184.388 53.0674C184.409 53.0602 184.434 53.0137 184.463 52.9277V47.3848C184.463 47.084 184.298 46.8763 183.969 46.7617C183.826 46.7116 183.672 46.6722 183.507 46.6436C183.342 46.6077 183.21 46.5755 183.109 46.5469C183.016 46.5182 182.955 46.4932 182.927 46.4717C182.905 46.443 182.895 46.3893 182.895 46.3105C182.895 46.2246 182.948 46.153 183.056 46.0957L185.795 44.8066C185.881 44.7637 185.935 44.7422 185.956 44.7422C186.078 44.7422 186.139 44.8281 186.139 45V60.2969C186.174 60.612 186.264 60.8376 186.407 60.9736C186.55 61.1097 186.783 61.1777 187.105 61.1777L187.729 61.1348C187.771 61.1348 187.793 61.1777 187.793 61.2637C187.793 61.3424 187.739 61.4069 187.632 61.457L184.774 62.6387C184.688 62.6816 184.613 62.7031 184.549 62.7031C184.492 62.7031 184.463 62.6136 184.463 62.4346V61.457C184.463 61.3854 184.445 61.3496 184.409 61.3496C184.359 61.3496 184.062 61.5107 183.518 61.833C181.849 62.8213 180.442 62.9681 179.296 62.2734C178.379 61.7148 177.76 60.8304 177.438 59.6201C177.287 59.0544 177.212 58.4564 177.212 57.8262C177.212 57.1888 177.341 56.5586 177.599 55.9355C177.864 55.3053 178.225 54.7539 178.684 54.2812C179.693 53.25 180.911 52.7344 182.336 52.7344C182.916 52.7344 183.364 52.7917 183.679 52.9062ZM178.834 57.5146C178.834 58.596 179.135 59.5449 179.736 60.3613C180.338 61.1706 181.176 61.5752 182.25 61.5752C182.723 61.5752 183.21 61.4606 183.711 61.2314C184.212 60.9951 184.463 60.8161 184.463 60.6943V55.1514C184.463 55.0153 184.37 54.8542 184.184 54.668C183.611 53.8802 182.848 53.4863 181.896 53.4863C180.95 53.4863 180.202 53.8874 179.65 54.6895C179.106 55.4844 178.834 56.4261 178.834 57.5146ZM192.391 49.2432C192.391 50.5752 191.764 51.6852 190.511 52.5732C190.224 52.7809 190.006 52.8848 189.855 52.8848C189.755 52.8848 189.705 52.8239 189.705 52.7021C189.705 52.5732 189.727 52.4837 189.77 52.4336C189.812 52.3763 189.863 52.3262 189.92 52.2832C189.977 52.2402 190.031 52.2008 190.081 52.165C190.138 52.1292 190.206 52.0791 190.285 52.0146C191.001 51.363 191.359 50.7721 191.359 50.2422C191.359 49.9342 191.227 49.7803 190.962 49.7803C190.246 49.7803 189.77 49.5547 189.533 49.1035C189.447 48.9388 189.404 48.7096 189.404 48.416C189.404 48.1224 189.533 47.8574 189.791 47.6211C190.056 47.3848 190.339 47.2666 190.64 47.2666C191.198 47.2666 191.628 47.4886 191.929 47.9326C192.237 48.3695 192.391 48.8063 192.391 49.2432ZM206.656 61.4893C206.033 61.8688 205.353 62.166 204.615 62.3809C203.878 62.5957 203.222 62.7031 202.649 62.7031C201.475 62.7031 200.354 62.5133 199.287 62.1338C197.826 61.6038 196.652 60.8197 195.764 59.7812C194.632 58.4564 194.066 56.777 194.066 54.7432C194.066 53.2751 194.442 51.9395 195.194 50.7363C195.946 49.526 196.985 48.57 198.31 47.8682C199.642 47.1663 201.07 46.8154 202.596 46.8154C204.128 46.8154 205.5 47.1556 206.71 47.8359C207.92 48.5163 208.891 49.4508 209.621 50.6396C210.352 51.8285 210.717 53.1175 210.717 54.5068C210.717 55.889 210.355 57.2067 209.632 58.46C208.909 59.7061 207.917 60.7158 206.656 61.4893ZM196.322 54.3994C196.322 55.5882 196.584 56.7699 197.106 57.9443C197.636 59.1117 198.392 60.0641 199.373 60.8018C200.354 61.5394 201.489 61.9082 202.778 61.9082C204.612 61.9082 206.04 61.2064 207.064 59.8027C207.988 58.5352 208.45 56.9167 208.45 54.9473C208.45 52.9779 207.884 51.2806 206.753 49.8555C206.201 49.1608 205.525 48.6058 204.723 48.1904C203.928 47.7679 203.122 47.5566 202.306 47.5566C201.496 47.5566 200.83 47.6462 200.308 47.8252C199.792 48.0042 199.323 48.2513 198.9 48.5664C198.478 48.8743 198.105 49.2432 197.783 49.6729C197.461 50.1025 197.192 50.568 196.978 51.0693C196.541 52.1006 196.322 53.2106 196.322 54.3994ZM219.182 54.7109C219.096 54.6966 218.97 54.6501 218.806 54.5713C218.211 54.2992 217.746 54.1631 217.409 54.1631C217.073 54.1631 216.718 54.3743 216.346 54.7969C215.98 55.2122 215.798 55.5882 215.798 55.9248V60.7803C215.798 61.3174 216.109 61.6755 216.732 61.8545C217.005 61.9261 217.259 61.9798 217.495 62.0156C217.731 62.0443 217.882 62.0729 217.946 62.1016C218.018 62.1302 218.054 62.1875 218.054 62.2734C218.054 62.3522 218.018 62.3988 217.946 62.4131H212.564C212.493 62.3988 212.457 62.3486 212.457 62.2627C212.457 62.1338 212.625 62.0479 212.962 62.0049C213.735 61.8903 214.122 61.4821 214.122 60.7803V55.0977C214.122 54.7969 213.957 54.5892 213.628 54.4746C213.485 54.4245 213.331 54.3851 213.166 54.3564C213.001 54.3206 212.869 54.2884 212.769 54.2598C212.675 54.2311 212.615 54.2061 212.586 54.1846C212.564 54.1559 212.554 54.1022 212.554 54.0234C212.554 53.9375 212.607 53.8659 212.715 53.8086L215.454 52.5195C215.54 52.4766 215.594 52.4551 215.615 52.4551C215.737 52.4551 215.798 52.541 215.798 52.7129V54.4531C215.798 54.5391 215.819 54.582 215.862 54.582C215.92 54.582 216.066 54.4137 216.303 54.0771C216.983 53.1247 217.545 52.6484 217.989 52.6484C218.24 52.6484 218.623 52.7487 219.139 52.9492C219.661 53.1497 219.923 53.318 219.923 53.4541C219.923 53.6188 219.84 53.8695 219.676 54.2061C219.511 54.5426 219.346 54.7109 219.182 54.7109ZM220.686 62.4131C220.614 62.3988 220.578 62.3486 220.578 62.2627C220.578 62.1338 220.746 62.0479 221.083 62.0049C221.856 61.8903 222.243 61.4821 222.243 60.7803V55.0977C222.243 54.7969 222.078 54.5892 221.749 54.4746C221.606 54.4245 221.452 54.3851 221.287 54.3564C221.122 54.3206 220.99 54.2884 220.89 54.2598C220.797 54.2311 220.736 54.2061 220.707 54.1846C220.686 54.1559 220.675 54.1022 220.675 54.0234C220.675 53.9375 220.729 53.8659 220.836 53.8086L223.575 52.5195C223.661 52.4766 223.715 52.4551 223.736 52.4551C223.858 52.4551 223.919 52.541 223.919 52.7129V60.7803C223.919 61.4821 224.306 61.8903 225.079 62.0049C225.416 62.0479 225.584 62.123 225.584 62.2305C225.584 62.3379 225.548 62.3988 225.477 62.4131H220.686ZM222.92 49.4365C222.626 49.4365 222.365 49.3434 222.136 49.1572C221.914 48.971 221.803 48.7132 221.803 48.3838C221.803 48.0472 221.91 47.7822 222.125 47.5889C222.34 47.3955 222.594 47.2988 222.888 47.2988C223.188 47.2988 223.439 47.4134 223.64 47.6426C223.847 47.8717 223.951 48.1188 223.951 48.3838C223.951 48.6488 223.854 48.8923 223.661 49.1143C223.468 49.3291 223.221 49.4365 222.92 49.4365ZM226.927 57.5898C226.927 56.179 227.424 54.9688 228.42 53.959C229.423 52.9421 230.622 52.4336 232.019 52.4336C233.415 52.4336 234.629 52.9277 235.66 53.916C236.691 54.8971 237.207 56.111 237.207 57.5576C237.207 59.0042 236.716 60.2253 235.735 61.2207C234.761 62.209 233.537 62.7031 232.062 62.7031C230.586 62.7031 229.362 62.2018 228.388 61.1992C227.414 60.1966 226.927 58.9935 226.927 57.5898ZM229.602 60.3506C230.303 61.5322 231.259 62.123 232.47 62.123C233.408 62.123 234.124 61.7471 234.618 60.9951C235.119 60.2432 235.37 59.3193 235.37 58.2236C235.37 57.1279 235.019 56.0036 234.317 54.8506C233.623 53.6976 232.685 53.1211 231.503 53.1211C230.636 53.1211 229.952 53.4971 229.451 54.249C228.957 54.9938 228.71 55.9427 228.71 57.0957C228.71 58.2415 229.007 59.3265 229.602 60.3506ZM246.66 59.0293L246.639 56.7627C246.639 55.8389 246.56 55.1908 246.402 54.8184C246.245 54.446 246.044 54.1667 245.801 53.9805C245.557 53.7871 245.228 53.6904 244.812 53.6904C244.404 53.6904 243.534 54.0127 242.202 54.6572C242.023 54.7646 241.93 54.8649 241.923 54.958V60.7373C241.923 61.4606 242.31 61.876 243.083 61.9834C243.42 62.0335 243.588 62.1159 243.588 62.2305C243.588 62.3379 243.552 62.3988 243.48 62.4131H238.689C238.618 62.3988 238.582 62.3486 238.582 62.2627C238.582 62.1266 238.75 62.0335 239.087 61.9834C239.86 61.876 240.247 61.4606 240.247 60.7373V54.5713C240.247 54.2705 240.082 54.0628 239.753 53.9482C239.61 53.8981 239.456 53.8587 239.291 53.8301C239.126 53.7943 238.994 53.762 238.894 53.7334C238.8 53.7048 238.74 53.6797 238.711 53.6582C238.689 53.6296 238.679 53.5758 238.679 53.4971C238.679 53.4111 238.732 53.3395 238.84 53.2822L241.579 51.9932C241.665 51.9502 241.719 51.9287 241.74 51.9287C241.862 51.9287 241.923 52.0146 241.923 52.1865V53.8623C241.944 53.9339 241.973 53.9697 242.009 53.9697C242.052 53.9697 242.206 53.9053 242.471 53.7764C243.087 53.4684 243.706 53.1712 244.329 52.8848C244.952 52.5983 245.468 52.4551 245.876 52.4551C247.53 52.4551 248.357 53.9626 248.357 56.9775L248.261 60.1143V60.7373C248.261 61.2959 248.54 61.6611 249.099 61.833C249.335 61.9118 249.561 61.9691 249.775 62.0049C249.997 62.0335 250.141 62.0622 250.205 62.0908C250.277 62.1195 250.312 62.1768 250.312 62.2627C250.312 62.3486 250.277 62.3988 250.205 62.4131H245.027C244.956 62.3988 244.92 62.3486 244.92 62.2627C244.92 62.1266 245.088 62.0335 245.425 61.9834C246.191 61.876 246.574 61.432 246.574 60.6514C246.632 60.2933 246.66 59.7526 246.66 59.0293Z" fill="#EFB85F"/>
<line x1="236.059" y1="168.945" x2="226.159" y2="132.645" stroke="#EFB85F" stroke-dasharray="4 4"/>
<line x1="240.441" y1="187.513" x2="240.441" y2="178.713" stroke="#EFB85F" stroke-dasharray="4 4"/>
<line x1="239.373" y1="203.837" x2="242.673" y2="195.037" stroke="#EFB85F" stroke-dasharray="4 4"/>
<line x1="229.458" y1="240.181" x2="236.058" y2="215.981" stroke="#EFB85F" stroke-dasharray="4 4"/>
<line x1="220.212" y1="248.383" x2="209.212" y2="252.383" stroke="#EFB85F" stroke-dasharray="4 4"/>
<line x1="160.163" y1="244.566" x2="177.763" y2="187.366" stroke="#EFB85F" stroke-dasharray="4 4"/>
<line x1="176.769" y1="179.047" x2="148.169" y2="147.147" stroke="#EFB85F" stroke-dasharray="4 4"/>
<line x1="230.952" y1="190.205" x2="194.652" y2="183.605" stroke="#EFB85F" stroke-dasharray="4 4"/>
<line x1="149.364" y1="258.597" x2="152.664" y2="256.397" stroke="#EFB85F" stroke-dasharray="4 4"/>
<line x1="129.841" y1="264.013" x2="134.241" y2="264.013" stroke="#EFB85F" stroke-dasharray="4 4"/>
<line x1="215.221" y1="339.585" x2="164.621" y2="261.485" stroke="#EFB85F" stroke-dasharray="4 4"/>
<line x1="209.071" y1="347.512" x2="117.771" y2="353.012" stroke="#EFB85F" stroke-dasharray="4 4"/>
<line x1="106.252" y1="343.609" x2="120.552" y2="276.509" stroke="#EFB85F" stroke-dasharray="4 4"/>
<line x1="116.234" y1="258.204" x2="66.7342" y2="188.904" stroke="#EFB85F" stroke-dasharray="4 4"/>
<line x1="70.2409" y1="173.855" x2="130.741" y2="147.455" stroke="#EFB85F" stroke-dasharray="4 4"/>
<path d="M181.07 173.213L184.667 179.328L191.598 182.503L184.667 185.676L181.07 191.792L177.472 185.676L170.541 182.503L177.472 179.328L181.07 173.213Z" fill="#EFB85F"/>
<path d="M120.57 255.713L124.167 261.828L131.098 265.003L124.167 268.176L120.57 274.292L116.972 268.176L110.041 265.003L116.972 261.828L120.57 255.713Z" fill="#EFB85F"/>
<path d="M159.07 244.713L162.667 250.828L169.598 254.003L162.667 257.176L159.07 263.292L155.472 257.176L148.541 254.003L155.472 250.828L159.07 244.713Z" fill="#EFB85F"/>
<path d="M144.77 132.513L148.367 138.628L155.298 141.802L148.367 144.976L144.77 151.092L141.172 144.976L134.241 141.802L141.172 138.628L144.77 132.513Z" fill="#EFB85F"/>
<path d="M219.57 338.213L223.167 344.328L230.098 347.503L223.167 350.676L219.57 356.792L215.972 350.676L209.041 347.503L215.972 344.328L219.57 338.213Z" fill="#EFB85F"/>
<path d="M105.17 344.813L108.767 350.928L115.698 354.103L108.767 357.276L105.17 363.392L101.572 357.276L94.6411 354.103L101.572 350.928L105.17 344.813Z" fill="#EFB85F"/>
<path d="M60.0699 169.913L63.6668 176.028L70.5975 179.203L63.6668 182.376L60.0699 188.492L56.4716 182.376L49.541 179.203L56.4716 176.028L60.0699 169.913Z" fill="#EFB85F"/>
<path d="M141.47 252.413L145.067 258.528L151.997 261.703L145.067 264.876L141.47 270.992L137.872 264.876L130.941 261.703L137.872 258.528L141.47 252.413Z" fill="#EFB85F"/>
<path d="M222.241 120.413L224.872 124.885L229.941 127.207L224.872 129.528L222.241 134.001L219.61 129.528L214.541 127.207L219.61 124.885L222.241 120.413Z" fill="#EFB85F"/>
<path d="M236.541 168.813L239.172 173.285L244.241 175.607L239.172 177.928L236.541 182.401L233.91 177.928L228.841 175.607L233.91 173.285L236.541 168.813Z" fill="#EFB85F"/>
<path d="M239.841 184.213L242.472 188.685L247.541 191.007L242.472 193.328L239.841 197.801L237.21 193.328L232.141 191.007L237.21 188.685L239.841 184.213Z" fill="#EFB85F"/>
<path d="M236.541 200.713L239.172 205.185L244.241 207.507L239.172 209.828L236.541 214.301L233.91 209.828L228.841 207.507L233.91 205.185L236.541 200.713Z" fill="#EFB85F"/>
<path d="M225.541 237.013L228.172 241.485L233.241 243.807L228.172 246.128L225.541 250.601L222.91 246.128L217.841 243.807L222.91 241.485L225.541 237.013Z" fill="#EFB85F"/>
<path d="M202.741 247.913L205.372 252.385L210.441 254.707L205.372 257.028L202.741 261.501L200.11 257.028L195.041 254.707L200.11 252.385L202.741 247.913Z" fill="#EFB85F"/>
</g>
</g>
<defs>
<clipPath id="clip0_101_23172">
<rect width="297.638" height="419.528" rx="10" fill="white"/>
</clipPath>
<clipPath id="clip1_101_23172">
<rect width="259" height="381" fill="white" transform="translate(19.041 19.4131)"/>
</clipPath>
</defs>
</svg>
