<svg width="298" height="420" viewBox="0 0 298 420" fill="none" xmlns="http://www.w3.org/2000/svg">
<g clip-path="url(#clip0_109_11862)">
<rect width="297.638" height="419.528" rx="10" fill="#032206"/>
<rect x="12" y="12" width="273" height="396" rx="9" stroke="#EFB85F" stroke-width="2"/>
<rect x="19.5" y="19.5" width="258" height="380" rx="6.5" stroke="#EFB85F"/>
<circle cx="76.7197" cy="259.47" r="1" fill="#EFB85F"/>
<circle cx="222.72" cy="204.47" r="1" fill="#EFB85F"/>
<circle cx="211.72" cy="129.47" r="1" fill="#EFB85F"/>
<circle cx="241.72" cy="96.4702" r="1" fill="#EFB85F"/>
<circle cx="125.72" cy="66.4702" r="1" fill="#EFB85F"/>
<circle cx="59.7197" cy="98.4702" r="1" fill="#EFB85F"/>
<circle cx="187.72" cy="97.4702" r="1" fill="#EFB85F"/>
<circle cx="50.7197" cy="187.47" r="1" fill="#EFB85F"/>
<circle cx="50.7197" cy="187.47" r="1" fill="#EFB85F"/>
<circle cx="50.7197" cy="187.47" r="1" fill="#EFB85F"/>
<circle cx="74.7197" cy="323.47" r="1" fill="#EFB85F"/>
<circle cx="164.72" cy="363.47" r="1" fill="#EFB85F"/>
<circle cx="66.7197" cy="376.47" r="1" fill="#EFB85F"/>
<circle cx="114.72" cy="393.47" r="1" fill="#EFB85F"/>
<circle cx="164.72" cy="395.47" r="1" fill="#EFB85F"/>
<circle cx="215.72" cy="105.47" r="1" fill="#EFB85F"/>
<circle cx="162.72" cy="91.4702" r="1" fill="#EFB85F"/>
<circle cx="162.72" cy="91.4702" r="1" fill="#EFB85F"/>
<circle cx="21.7197" cy="312.47" r="1" fill="#EFB85F"/>
<circle cx="141.72" cy="354.47" r="1" fill="#EFB85F"/>
<circle cx="55.7197" cy="307.47" r="1" fill="#EFB85F"/>
<circle cx="88.7197" cy="340.47" r="1" fill="#EFB85F"/>
<circle cx="88.7197" cy="340.47" r="1" fill="#EFB85F"/>
<circle cx="229.72" cy="381.47" r="1" fill="#EFB85F"/>
<circle cx="235.72" cy="337.47" r="1" fill="#EFB85F"/>
<circle cx="235.72" cy="337.47" r="1" fill="#EFB85F"/>
<circle cx="212.72" cy="155.47" r="1" fill="#EFB85F"/>
<circle cx="274.72" cy="186.47" r="1" fill="#EFB85F"/>
<path d="M198.72 343.47C198.72 344.022 198.272 344.47 197.72 344.47C197.167 344.47 196.72 344.022 196.72 343.47C196.72 342.918 197.167 342.47 197.72 342.47C198.272 342.47 198.72 342.918 198.72 343.47Z" fill="#EFB85F"/>
<path d="M229.22 361.47L230.416 363.445L232.72 364.47L230.416 365.495L229.22 367.47L228.024 365.495L225.72 364.47L228.024 363.445L229.22 361.47Z" fill="#EFB85F"/>
<circle cx="251.72" cy="319.47" r="1" fill="#EFB85F"/>
<circle cx="216.72" cy="147.47" r="1" fill="#EFB85F"/>
<circle cx="249.72" cy="180.47" r="1" fill="#EFB85F"/>
<circle cx="249.72" cy="180.47" r="1" fill="#EFB85F"/>
<circle cx="196.72" cy="372.47" r="1" fill="#EFB85F"/>
<circle cx="214.72" cy="266.47" r="1" fill="#EFB85F"/>
<circle cx="80.7197" cy="131.47" r="1" fill="#EFB85F"/>
<circle cx="22.7197" cy="157.47" r="1" fill="#EFB85F"/>
<circle cx="70.7197" cy="82.4702" r="1" fill="#EFB85F"/>
<circle cx="59.7197" cy="156.47" r="1" fill="#EFB85F"/>
<circle cx="40.7197" cy="79.4702" r="1" fill="#EFB85F"/>
<circle cx="74.7197" cy="74.4702" r="1" fill="#EFB85F"/>
<circle cx="38.7197" cy="143.47" r="1" fill="#EFB85F"/>
<circle cx="72.7197" cy="193.47" r="1" fill="#EFB85F"/>
<path d="M63.5269 139.266L67.8018 139.126L63.5269 138.986L64.8677 137.555L63.4362 138.895L63.2964 134.621L63.1565 138.895L61.725 137.555L63.0658 138.986L58.7909 139.126L63.0658 139.266L61.725 140.697L63.1565 139.356L63.2964 143.631L63.4362 139.356L64.8677 140.697L63.5269 139.266Z" fill="#EFB85F"/>
<path d="M33.4906 226.363L37.7655 226.223L33.4906 226.083L34.8314 224.652L33.3999 225.993L33.2601 221.718L33.1202 225.993L31.6887 224.652L33.0295 226.083L28.7546 226.223L33.0295 226.363L31.6887 227.794L33.1202 226.454L33.2601 230.728L33.3999 226.454L34.8314 227.794L33.4906 226.363Z" fill="#EFB85F"/>
<path d="M28.4846 291.436L32.7595 291.296L28.4846 291.156L29.8254 289.725L28.3939 291.066L28.254 286.791L28.1142 291.066L26.6827 289.725L28.0235 291.156L23.7486 291.296L28.0235 291.436L26.6827 292.867L28.1142 291.527L28.254 295.801L28.3939 291.527L29.8254 292.867L28.4846 291.436Z" fill="#EFB85F"/>
<path d="M45.5052 349.501L49.78 349.361L45.5052 349.221L46.8459 347.79L45.4144 349.13L45.2746 344.856L45.1348 349.13L43.7033 347.79L45.044 349.221L40.7691 349.361L45.044 349.501L43.7033 350.932L45.1348 349.592L45.2746 353.866L45.4144 349.592L46.8459 350.932L45.5052 349.501Z" fill="#EFB85F"/>
<path d="M126.603 378.534L130.878 378.394L126.603 378.254L127.944 376.823L126.512 378.163L126.373 373.889L126.233 378.163L124.801 376.823L126.142 378.254L121.867 378.394L126.142 378.534L124.801 379.965L126.233 378.624L126.373 382.899L126.512 378.624L127.944 379.965L126.603 378.534Z" fill="#EFB85F"/>
<path d="M251.754 385.541L256.029 385.402L251.754 385.262L253.095 383.83L251.664 385.171L251.524 380.896L251.384 385.171L249.952 383.83L251.293 385.262L247.018 385.402L251.293 385.541L249.952 386.973L251.384 385.632L251.524 389.907L251.664 385.632L253.095 386.973L251.754 385.541Z" fill="#EFB85F"/>
<path d="M264.77 221.358L269.045 221.218L264.77 221.078L266.111 219.647L264.679 220.987L264.539 216.713L264.4 220.987L262.968 219.647L264.309 221.078L260.034 221.218L264.309 221.358L262.968 222.789L264.4 221.448L264.539 225.723L264.679 221.448L266.111 222.789L264.77 221.358Z" fill="#EFB85F"/>
<path d="M264.77 221.358L269.045 221.218L264.77 221.078L266.111 219.647L264.679 220.987L264.539 216.713L264.4 220.987L262.968 219.647L264.309 221.078L260.034 221.218L264.309 221.358L262.968 222.789L264.4 221.448L264.539 225.723L264.679 221.448L266.111 222.789L264.77 221.358Z" fill="#EFB85F"/>
<path d="M135.614 105.228L139.889 105.088L135.614 104.948L136.955 103.517L135.523 104.857L135.383 100.583L135.244 104.857L133.812 103.517L135.153 104.948L130.878 105.088L135.153 105.228L133.812 106.659L135.244 105.318L135.383 109.593L135.523 105.318L136.955 106.659L135.614 105.228Z" fill="#EFB85F"/>
<path d="M135.614 105.228L139.889 105.088L135.614 104.948L136.955 103.517L135.523 104.857L135.383 100.583L135.244 104.857L133.812 103.517L135.153 104.948L130.878 105.088L135.153 105.228L133.812 106.659L135.244 105.318L135.383 109.593L135.523 105.318L136.955 106.659L135.614 105.228Z" fill="#EFB85F"/>
<path d="M135.614 105.228L139.889 105.088L135.614 104.948L136.955 103.517L135.523 104.857L135.383 100.583L135.244 104.857L133.812 103.517L135.153 104.948L130.878 105.088L135.153 105.228L133.812 106.659L135.244 105.318L135.383 109.593L135.523 105.318L136.955 106.659L135.614 105.228Z" fill="#EFB85F"/>
<path d="M160.644 78.1974L164.919 78.0575L160.644 77.9177L161.985 76.4863L160.554 77.827L160.414 73.5525L160.274 77.827L158.842 76.4863L160.183 77.9177L155.908 78.0575L160.183 78.1974L158.842 79.6287L160.274 78.2881L160.414 82.5626L160.554 78.2881L161.985 79.6287L160.644 78.1974Z" fill="#EFB85F"/>
<path d="M193.684 334.484L197.959 334.344L193.684 334.205L195.025 332.773L193.593 334.114L193.454 329.839L193.314 334.114L191.882 332.773L193.223 334.205L188.948 334.344L193.223 334.484L191.882 335.916L193.314 334.575L193.454 338.849L193.593 334.575L195.025 335.916L193.684 334.484Z" fill="#EFB85F"/>
<path d="M193.684 334.484L197.959 334.344L193.684 334.205L195.025 332.773L193.593 334.114L193.454 329.839L193.314 334.114L191.882 332.773L193.223 334.205L188.948 334.344L193.223 334.484L191.882 335.916L193.314 334.575L193.454 338.849L193.593 334.575L195.025 335.916L193.684 334.484Z" fill="#EFB85F"/>
<path d="M237.737 272.415L242.012 272.275L237.737 272.135L239.078 270.704L237.647 272.045L237.507 267.77L237.367 272.045L235.935 270.704L237.276 272.135L233.001 272.275L237.276 272.415L235.935 273.846L237.367 272.506L237.507 276.78L237.647 272.506L239.078 273.846L237.737 272.415Z" fill="#EFB85F"/>
<path d="M250.71 134.025C250.749 133.699 250.814 132.924 250.866 132.311C250.918 131.604 251.009 131.155 251.113 131.114C251.204 131.073 251.62 131.291 252.023 131.59C252.439 131.903 252.802 132.121 252.841 132.08C252.867 132.053 252.62 131.618 252.296 131.128C251.88 130.529 251.737 130.23 251.854 130.189C251.945 130.162 252.607 130.067 253.322 129.971C255.609 129.699 255.596 129.55 253.283 129.291C252.478 129.196 251.802 129.074 251.776 129.033C251.737 128.978 251.984 128.584 252.296 128.148C252.607 127.7 252.841 127.305 252.802 127.264C252.763 127.237 252.374 127.468 251.945 127.781C251.503 128.108 251.113 128.312 251.061 128.257C250.996 128.189 250.892 127.373 250.801 126.434C250.567 123.986 250.463 123.999 250.216 126.489C250.125 127.427 250.021 128.244 249.969 128.285C249.93 128.325 249.541 128.108 249.099 127.795C248.67 127.468 248.293 127.237 248.254 127.278C248.228 127.305 248.423 127.672 248.709 128.08C248.995 128.475 249.229 128.883 249.229 128.965C249.229 129.06 248.67 129.182 247.76 129.291C245.434 129.55 245.434 129.699 247.773 129.985C248.657 130.094 249.229 130.23 249.229 130.312C249.229 130.393 248.995 130.801 248.709 131.196C248.098 132.053 248.046 132.271 248.54 131.93C248.748 131.808 249.125 131.536 249.398 131.345C250.021 130.924 250.073 130.992 250.19 132.461C250.359 134.624 250.554 135.195 250.71 134.025Z" fill="#EFB85F"/>
<path d="M36.4513 114.003C36.4903 113.677 36.5553 112.901 36.6073 112.289C36.6592 111.581 36.7502 111.133 36.8542 111.092C36.9451 111.051 37.361 111.269 37.7639 111.568C38.1797 111.881 38.5436 112.098 38.5826 112.058C38.6086 112.03 38.3617 111.595 38.0368 111.105C37.6209 110.507 37.478 110.207 37.5949 110.167C37.6859 110.139 38.3487 110.044 39.0634 109.949C41.3506 109.677 41.3377 109.527 39.0244 109.269C38.2187 109.174 37.5429 109.051 37.5169 109.01C37.478 108.956 37.7249 108.561 38.0368 108.126C38.3487 107.677 38.5826 107.283 38.5436 107.242C38.5046 107.215 38.1147 107.446 37.6859 107.759C37.244 108.085 36.8542 108.289 36.8022 108.235C36.7372 108.167 36.6332 107.351 36.5423 106.412C36.3084 103.963 36.2044 103.977 35.9575 106.466C35.8665 107.405 35.7625 108.221 35.7106 108.262C35.6716 108.303 35.2817 108.085 34.8399 107.772C34.411 107.446 34.0341 107.215 33.9951 107.255C33.9691 107.283 34.1641 107.65 34.45 108.058C34.7359 108.453 34.9698 108.861 34.9698 108.942C34.9698 109.038 34.411 109.16 33.5013 109.269C31.1751 109.527 31.1751 109.677 33.5143 109.963C34.398 110.071 34.9698 110.207 34.9698 110.289C34.9698 110.371 34.7359 110.779 34.45 111.173C33.8392 112.03 33.7872 112.248 34.281 111.908C34.489 111.786 34.8658 111.513 35.1387 111.323C35.7625 110.901 35.8145 110.969 35.9315 112.439C36.1004 114.602 36.2954 115.173 36.4513 114.003Z" fill="#EFB85F"/>
<path d="M268.732 306.218C268.771 305.892 268.836 305.116 268.888 304.504C268.94 303.797 269.031 303.348 269.135 303.307C269.226 303.266 269.642 303.484 270.044 303.783C270.46 304.096 270.824 304.314 270.863 304.273C270.889 304.246 270.642 303.81 270.317 303.32C269.902 302.722 269.759 302.423 269.876 302.382C269.966 302.355 270.629 302.259 271.344 302.164C273.631 301.892 273.618 301.742 271.305 301.484C270.499 301.389 269.824 301.266 269.798 301.225C269.759 301.171 270.005 300.776 270.317 300.341C270.629 299.892 270.863 299.498 270.824 299.457C270.785 299.43 270.395 299.661 269.966 299.974C269.525 300.3 269.135 300.504 269.083 300.45C269.018 300.382 268.914 299.566 268.823 298.627C268.589 296.178 268.485 296.192 268.238 298.681C268.147 299.62 268.043 300.436 267.991 300.477C267.952 300.518 267.562 300.3 267.12 299.987C266.692 299.661 266.315 299.43 266.276 299.47C266.25 299.498 266.445 299.865 266.731 300.273C267.016 300.668 267.25 301.076 267.25 301.157C267.25 301.253 266.692 301.375 265.782 301.484C263.456 301.742 263.456 301.892 265.795 302.178C266.679 302.287 267.25 302.423 267.25 302.504C267.25 302.586 267.016 302.994 266.731 303.388C266.12 304.246 266.068 304.463 266.562 304.123C266.77 304.001 267.146 303.729 267.419 303.538C268.043 303.116 268.095 303.184 268.212 304.654C268.381 306.817 268.576 307.388 268.732 306.218Z" fill="#EFB85F"/>
<path d="M54.4731 275.183C54.5121 274.857 54.577 274.081 54.629 273.469C54.681 272.762 54.772 272.313 54.8759 272.272C54.9669 272.231 55.3828 272.449 55.7856 272.748C56.2015 273.061 56.5654 273.279 56.6044 273.238C56.6303 273.211 56.3834 272.775 56.0585 272.286C55.6427 271.687 55.4997 271.388 55.6167 271.347C55.7077 271.32 56.3704 271.225 57.0852 271.129C59.3724 270.857 59.3594 270.708 57.0462 270.449C56.2405 270.354 55.5647 270.232 55.5387 270.191C55.4997 270.136 55.7466 269.742 56.0585 269.306C56.3704 268.858 56.6044 268.463 56.5654 268.422C56.5264 268.395 56.1365 268.626 55.7077 268.939C55.2658 269.266 54.8759 269.47 54.824 269.415C54.759 269.347 54.655 268.531 54.564 267.592C54.3301 265.144 54.2262 265.157 53.9792 267.647C53.8883 268.585 53.7843 269.402 53.7323 269.442C53.6933 269.483 53.3035 269.266 52.8616 268.953C52.4328 268.626 52.0559 268.395 52.0169 268.436C51.9909 268.463 52.1859 268.83 52.4718 269.238C52.7577 269.633 52.9916 270.041 52.9916 270.123C52.9916 270.218 52.4328 270.34 51.5231 270.449C49.1969 270.708 49.1969 270.857 51.5361 271.143C52.4198 271.252 52.9916 271.388 52.9916 271.47C52.9916 271.551 52.7577 271.959 52.4718 272.354C51.861 273.211 51.809 273.428 52.3028 273.088C52.5107 272.966 52.8876 272.694 53.1605 272.503C53.7843 272.082 53.8363 272.15 53.9533 273.619C54.1222 275.782 54.3171 276.353 54.4731 275.183Z" fill="#EFB85F"/>
<path d="M49.467 396.319C49.506 395.993 49.571 395.217 49.623 394.605C49.675 393.898 49.7659 393.449 49.8699 393.408C49.9609 393.367 50.3767 393.585 50.7796 393.884C51.1954 394.197 51.5593 394.415 51.5983 394.374C51.6243 394.347 51.3774 393.911 51.0525 393.421C50.6366 392.823 50.4937 392.524 50.6106 392.483C50.7016 392.456 51.3644 392.36 52.0791 392.265C54.3664 391.993 54.3534 391.843 52.0402 391.585C51.2344 391.49 50.5587 391.367 50.5327 391.326C50.4937 391.272 50.7406 390.878 51.0525 390.442C51.3644 389.993 51.5983 389.599 51.5593 389.558C51.5203 389.531 51.1305 389.762 50.7016 390.075C50.2598 390.401 49.8699 390.605 49.8179 390.551C49.7529 390.483 49.649 389.667 49.558 388.728C49.3241 386.279 49.2201 386.293 48.9732 388.782C48.8822 389.721 48.7783 390.537 48.7263 390.578C48.6873 390.619 48.2974 390.401 47.8556 390.088C47.4267 389.762 47.0498 389.531 47.0109 389.572C46.9849 389.599 47.1798 389.966 47.4657 390.374C47.7516 390.769 47.9855 391.177 47.9855 391.258C47.9855 391.354 47.4267 391.476 46.517 391.585C44.1908 391.843 44.1908 391.993 46.53 392.279C47.4137 392.388 47.9855 392.524 47.9855 392.605C47.9855 392.687 47.7516 393.095 47.4657 393.49C46.8549 394.347 46.8029 394.564 47.2968 394.224C47.5047 394.102 47.8816 393.83 48.1545 393.639C48.7783 393.217 48.8302 393.285 48.9472 394.755C49.1161 396.918 49.3111 397.489 49.467 396.319Z" fill="#EFB85F"/>
<path d="M229.497 361.875L230.695 363.852L233.001 364.878L230.695 365.904L229.497 367.882L228.3 365.904L225.993 364.878L228.3 363.852L229.497 361.875Z" fill="#EFB85F"/>
<path d="M118.363 309.817L119.56 311.794L121.867 312.82L119.56 313.846L118.363 315.824L117.165 313.846L114.859 312.82L117.165 311.794L118.363 309.817Z" fill="#EFB85F"/>
<path d="M78.3147 230.729L79.5119 232.705L81.8187 233.732L79.5119 234.758L78.3147 236.735L77.1171 234.758L74.8103 233.732L77.1171 232.705L78.3147 230.729Z" fill="#EFB85F"/>
<path d="M27.253 185.678L28.4502 187.655L30.757 188.682L28.4502 189.708L27.253 191.685L26.0554 189.708L23.7486 188.682L26.0554 187.655L27.253 185.678Z" fill="#EFB85F"/>
<path d="M27.253 86.5671L28.4502 88.5441L30.757 89.5705L28.4502 90.5965L27.253 92.5739L26.0554 90.5965L23.7486 89.5705L26.0554 88.5441L27.253 86.5671Z" fill="#EFB85F"/>
<circle cx="118.72" cy="77.4702" r="1" fill="#EFB85F"/>
<path d="M114.546 112.001C114.585 111.674 114.65 110.899 114.702 110.287C114.754 109.579 114.845 109.13 114.949 109.09C115.039 109.049 115.455 109.266 115.858 109.566C116.274 109.879 116.638 110.096 116.677 110.055C116.703 110.028 116.456 109.593 116.131 109.103C115.715 108.505 115.572 108.205 115.689 108.164C115.78 108.137 116.443 108.042 117.158 107.947C119.445 107.675 119.432 107.525 117.119 107.267C116.313 107.171 115.637 107.049 115.611 107.008C115.572 106.954 115.819 106.559 116.131 106.124C116.443 105.675 116.677 105.28 116.638 105.24C116.599 105.212 116.209 105.444 115.78 105.757C115.338 106.083 114.949 106.287 114.897 106.233C114.832 106.165 114.728 105.348 114.637 104.41C114.403 101.961 114.299 101.975 114.052 104.464C113.961 105.403 113.857 106.219 113.805 106.26C113.766 106.301 113.376 106.083 112.934 105.77C112.505 105.444 112.128 105.212 112.089 105.253C112.063 105.28 112.258 105.648 112.544 106.056C112.83 106.45 113.064 106.858 113.064 106.94C113.064 107.035 112.505 107.158 111.596 107.267C109.269 107.525 109.269 107.675 111.609 107.96C112.492 108.069 113.064 108.205 113.064 108.287C113.064 108.369 112.83 108.777 112.544 109.171C111.934 110.028 111.882 110.246 112.375 109.906C112.583 109.783 112.96 109.511 113.233 109.321C113.857 108.899 113.909 108.967 114.026 110.436C114.195 112.599 114.39 113.171 114.546 112.001Z" fill="#EFB85F"/>
<path d="M105.347 84.5649L106.545 86.5419L108.851 87.5683L106.545 88.5943L105.347 90.5717L104.15 88.5943L101.843 87.5683L104.15 86.5419L105.347 84.5649Z" fill="#EFB85F"/>
<path d="M108.351 25.4988L109.548 27.4757L111.855 28.5021L109.548 29.5282L108.351 31.5055L107.153 29.5282L104.847 28.5021L107.153 27.4757L108.351 25.4988Z" fill="#EFB85F"/>
<path d="M256.53 70.5491L257.727 72.526L260.034 73.5524L257.727 74.5785L256.53 76.5558L255.332 74.5785L253.026 73.5524L255.332 72.526L256.53 70.5491Z" fill="#EFB85F"/>
<path d="M238.007 298.805L238.759 302.464L242.012 303.309L238.759 304.155L238.007 307.815L237.255 304.155L234.003 303.309L237.255 302.464L238.007 298.805Z" fill="#EFB85F"/>
<path d="M57.7895 245.745L58.5415 249.404L61.7945 250.25L58.5415 251.096L57.7895 254.755L57.0375 251.096L53.7849 250.25L57.0375 249.404L57.7895 245.745Z" fill="#EFB85F"/>
<path d="M62.7955 339.851L63.5476 343.51L66.8006 344.355L63.5476 345.201L62.7955 348.861L62.0435 345.201L58.7909 344.355L62.0435 343.51L62.7955 339.851Z" fill="#EFB85F"/>
<path d="M261.035 338.85L261.787 342.509L265.04 343.354L261.787 344.2L261.035 347.86L260.283 344.2L257.03 343.354L260.283 342.509L261.035 338.85Z" fill="#EFB85F"/>
<path d="M160.914 327.837L161.666 331.496L164.919 332.342L161.666 333.188L160.914 336.847L160.162 333.188L156.909 332.342L160.162 331.496L160.914 327.837Z" fill="#EFB85F"/>
<path d="M254.027 237.736L254.779 241.396L258.032 242.241L254.779 243.087L254.027 246.746L253.274 243.087L250.022 242.241L253.274 241.396L254.027 237.736Z" fill="#EFB85F"/>
<path d="M254.027 237.736L254.779 241.396L258.032 242.241L254.779 243.087L254.027 246.746L253.274 243.087L250.022 242.241L253.274 241.396L254.027 237.736Z" fill="#EFB85F"/>
<path d="M115.86 343.855L116.612 347.514L119.865 348.36L116.612 349.206L115.86 352.865L115.108 349.206L111.855 348.36L115.108 347.514L115.86 343.855Z" fill="#EFB85F"/>
<circle cx="125.72" cy="66.4702" r="1" fill="#EFB85F"/>
<circle cx="164.72" cy="363.47" r="1" fill="#EFB85F"/>
<circle cx="143.72" cy="317.47" r="1" fill="#EFB85F"/>
<circle cx="161.72" cy="315.47" r="1" fill="#EFB85F"/>
<circle cx="120.72" cy="331.47" r="1" fill="#EFB85F"/>
<circle cx="162.72" cy="91.4702" r="1" fill="#EFB85F"/>
<circle cx="162.72" cy="91.4702" r="1" fill="#EFB85F"/>
<circle cx="141.72" cy="354.47" r="1" fill="#EFB85F"/>
<path d="M126.603 378.534L130.878 378.394L126.603 378.254L127.944 376.823L126.512 378.163L126.373 373.889L126.233 378.163L124.801 376.823L126.142 378.254L121.867 378.394L126.142 378.534L124.801 379.965L126.233 378.624L126.373 382.899L126.512 378.624L127.944 379.965L126.603 378.534Z" fill="#EFB85F"/>
<path d="M135.614 105.228L139.889 105.088L135.614 104.948L136.955 103.517L135.523 104.857L135.383 100.583L135.244 104.857L133.812 103.517L135.153 104.948L130.878 105.088L135.153 105.228L133.812 106.659L135.244 105.318L135.383 109.593L135.523 105.318L136.955 106.659L135.614 105.228Z" fill="#EFB85F"/>
<path d="M135.614 105.228L139.889 105.088L135.614 104.948L136.955 103.517L135.523 104.857L135.383 100.583L135.244 104.857L133.812 103.517L135.153 104.948L130.878 105.088L135.153 105.228L133.812 106.659L135.244 105.318L135.383 109.593L135.523 105.318L136.955 106.659L135.614 105.228Z" fill="#EFB85F"/>
<path d="M135.614 105.228L139.889 105.088L135.614 104.948L136.955 103.517L135.523 104.857L135.383 100.583L135.244 104.857L133.812 103.517L135.153 104.948L130.878 105.088L135.153 105.228L133.812 106.659L135.244 105.318L135.383 109.593L135.523 105.318L136.955 106.659L135.614 105.228Z" fill="#EFB85F"/>
<path d="M160.644 78.1974L164.919 78.0575L160.644 77.9177L161.985 76.4863L160.554 77.827L160.414 73.5525L160.274 77.827L158.842 76.4863L160.183 77.9177L155.908 78.0575L160.183 78.1974L158.842 79.6287L160.274 78.2881L160.414 82.5626L160.554 78.2881L161.985 79.6287L160.644 78.1974Z" fill="#EFB85F"/>
<path d="M160.914 327.837L161.666 331.496L164.919 332.342L161.666 333.188L160.914 336.847L160.162 333.188L156.909 332.342L160.162 331.496L160.914 327.837Z" fill="#EFB85F"/>
<path d="M115.86 343.855L116.612 347.514L119.865 348.36L116.612 349.206L115.86 352.865L115.108 349.206L111.855 348.36L115.108 347.514L115.86 343.855Z" fill="#EFB85F"/>
<circle cx="41.7197" cy="29.4702" r="1" fill="#EFB85F"/>
<path d="M28.2542 36.511L29.4515 38.488L31.7583 39.5143L29.4515 40.5404L28.2542 42.5177L27.0566 40.5404L24.7498 39.5143L27.0566 38.488L28.2542 36.511Z" fill="#EFB85F"/>
<path d="M37.4525 63.9471C37.4915 63.6206 37.5565 62.8452 37.6085 62.233C37.6604 61.5256 37.7514 61.0766 37.8554 61.0358C37.9463 60.995 38.3622 61.2127 38.7651 61.512C39.1809 61.8249 39.5448 62.0425 39.5838 62.0017C39.6098 61.9745 39.3629 61.5392 39.038 61.0494C38.6221 60.4508 38.4792 60.1515 38.5961 60.1107C38.6871 60.0835 39.3499 59.9883 40.0646 59.8931C42.3519 59.621 42.3389 59.4713 40.0256 59.2129C39.2199 59.1176 38.5441 58.9952 38.5182 58.9544C38.4792 58.9 38.7261 58.5054 39.038 58.0701C39.3499 57.6212 39.5838 57.2267 39.5448 57.1858C39.5058 57.1586 39.1159 57.3899 38.6871 57.7028C38.2452 58.0293 37.8554 58.2334 37.8034 58.1789C37.7384 58.1109 37.6344 57.2947 37.5435 56.356C37.3096 53.9072 37.2056 53.9209 36.9587 56.4104C36.8677 57.3491 36.7637 58.1653 36.7118 58.2062C36.6728 58.247 36.2829 58.0293 35.8411 57.7164C35.4122 57.3899 35.0353 57.1586 34.9963 57.1995C34.9704 57.2267 35.1653 57.594 35.4512 58.0021C35.7371 58.3966 35.971 58.8047 35.971 58.8864C35.971 58.9816 35.4122 59.104 34.5025 59.2129C32.1763 59.4713 32.1763 59.621 34.5155 59.9067C35.3992 60.0155 35.971 60.1515 35.971 60.2332C35.971 60.3148 35.7371 60.7229 35.4512 61.1174C34.8404 61.9745 34.7884 62.1922 35.2822 61.8521C35.4902 61.7296 35.867 61.4575 36.14 61.2671C36.7637 60.8454 36.8157 60.9134 36.9327 62.3826C37.1016 64.5457 37.2966 65.1171 37.4525 63.9471Z" fill="#EFB85F"/>
<path d="M64.5281 89.2099L68.803 89.07L64.5281 88.9302L65.8689 87.4988L64.4374 88.8394L64.2976 84.5649L64.1577 88.8394L62.7262 87.4988L64.067 88.9302L59.7921 89.07L64.067 89.2099L62.7262 90.6412L64.1577 89.3005L64.2976 93.575L64.4374 89.3005L65.8689 90.6412L64.5281 89.2099Z" fill="#EFB85F"/>
<circle cx="39.7197" cy="93.4702" r="1" fill="#EFB85F"/>
<circle cx="60.7197" cy="106.47" r="1" fill="#EFB85F"/>
<circle cx="231.72" cy="24.4702" r="1" fill="#EFB85F"/>
<circle cx="265.72" cy="33.4702" r="1" fill="#EFB85F"/>
<circle cx="265.72" cy="33.4702" r="1" fill="#EFB85F"/>
<circle cx="267.72" cy="34.4702" r="1" fill="#EFB85F"/>
<path d="M267.774 92.2131L272.049 92.0732L267.774 91.9333L269.114 90.502L267.683 91.8426L267.543 87.5681L267.403 91.8426L265.972 90.502L267.313 91.9333L263.038 92.0732L267.313 92.2131L265.972 93.6443L267.403 92.3037L267.543 96.5782L267.683 92.3037L269.114 93.6443L267.774 92.2131Z" fill="#EFB85F"/>
<path d="M267.774 92.2131L272.049 92.0732L267.774 91.9333L269.114 90.502L267.683 91.8426L267.543 87.5681L267.403 91.8426L265.972 90.502L267.313 91.9333L263.038 92.0732L267.313 92.2131L265.972 93.6443L267.403 92.3037L267.543 96.5782L267.683 92.3037L269.114 93.6443L267.774 92.2131Z" fill="#EFB85F"/>
<path d="M229.497 123.609L230.695 125.586L233.001 126.612L230.695 127.638L229.497 129.615L228.3 127.638L225.993 126.612L228.3 125.586L229.497 123.609Z" fill="#EFB85F"/>
<path d="M108.351 25.4988L109.548 27.4757L111.855 28.5021L109.548 29.5282L108.351 31.5055L107.153 29.5282L104.847 28.5021L107.153 27.4757L108.351 25.4988Z" fill="#EFB85F"/>
<g clip-path="url(#clip1_109_11862)">
<path d="M48.8242 47.0342C47.7305 47.0342 47.1836 47.4704 47.1836 48.3428V55.335C47.1836 56.624 47.61 57.6787 48.4629 58.499C49.3158 59.3128 50.4095 59.7197 51.7441 59.7197C53.1309 59.7197 54.2669 59.3486 55.1523 58.6064C56.0443 57.8577 56.4902 56.8226 56.4902 55.501V49.29C56.4902 48.6715 56.4349 48.2419 56.3242 48.001C56.0443 47.3564 55.4128 47.0342 54.4297 47.0342C54.3776 47.0342 54.3516 47.0081 54.3516 46.9561V46.7217C54.3516 46.6696 54.3776 46.6436 54.4297 46.6436H59.2344C59.2865 46.6436 59.3125 46.6696 59.3125 46.7217V46.9561C59.3125 47.0081 59.2409 47.0342 59.0977 47.0342C58.2448 47.0342 57.724 47.3662 57.5352 48.0303C57.5026 48.141 57.4863 48.2451 57.4863 48.3428V54.7393C57.4863 57.5973 56.3926 59.4365 54.2051 60.2568C53.4694 60.5368 52.737 60.6768 52.0078 60.6768C49.3971 60.6768 47.4733 59.9932 46.2363 58.626C45.5983 57.9229 45.2793 57.0537 45.2793 56.0186V48.2061C45.2793 47.6527 44.944 47.2881 44.2734 47.1123C44.0781 47.0602 43.9121 47.0342 43.7754 47.0342C43.6387 47.0342 43.5703 47.0081 43.5703 46.9561V46.7217C43.5703 46.6696 43.5931 46.6436 43.6387 46.6436H48.9316C48.9837 46.6436 49.0098 46.6696 49.0098 46.7217V46.9561C49.0098 47.0081 48.9479 47.0342 48.8242 47.0342ZM67.3984 57.3369L67.3789 55.2764C67.3789 54.4365 67.3073 53.8473 67.1641 53.5088C67.0208 53.1702 66.8385 52.9163 66.6172 52.7471C66.3958 52.5713 66.0964 52.4834 65.7188 52.4834C65.3477 52.4834 64.5566 52.7764 63.3457 53.3623C63.1829 53.46 63.0983 53.5511 63.0918 53.6357V58.8896C63.0918 59.5472 63.4434 59.9248 64.1465 60.0225C64.4525 60.068 64.6055 60.1429 64.6055 60.2471C64.6055 60.3447 64.5729 60.4001 64.5078 60.4131H60.1523C60.0872 60.4001 60.0547 60.3545 60.0547 60.2764C60.0547 60.1527 60.2077 60.068 60.5137 60.0225C61.2168 59.9248 61.5684 59.5472 61.5684 58.8896V53.2842C61.5684 53.0107 61.4186 52.8219 61.1191 52.7178C60.9889 52.6722 60.849 52.6364 60.6992 52.6104C60.5495 52.5778 60.429 52.5485 60.3379 52.5225C60.2533 52.4964 60.1979 52.4736 60.1719 52.4541C60.1523 52.4281 60.1426 52.3792 60.1426 52.3076C60.1426 52.2295 60.1914 52.1644 60.2891 52.1123L62.7793 50.9404C62.8574 50.9014 62.9062 50.8818 62.9258 50.8818C63.0365 50.8818 63.0918 50.96 63.0918 51.1162V52.6396C63.1113 52.7048 63.1374 52.7373 63.1699 52.7373C63.209 52.7373 63.349 52.6787 63.5898 52.5615C64.1497 52.2816 64.7129 52.0114 65.2793 51.751C65.8457 51.4906 66.3145 51.3604 66.6855 51.3604C68.1895 51.3604 68.9414 52.7308 68.9414 55.4717L68.8535 58.3232V58.8896C68.8535 59.3975 69.1074 59.7295 69.6152 59.8857C69.8301 59.9574 70.0352 60.0094 70.2305 60.042C70.4323 60.068 70.5625 60.0941 70.6211 60.1201C70.6862 60.1462 70.7188 60.1982 70.7188 60.2764C70.7188 60.3545 70.6862 60.4001 70.6211 60.4131H65.9141C65.849 60.4001 65.8164 60.3545 65.8164 60.2764C65.8164 60.1527 65.9694 60.068 66.2754 60.0225C66.972 59.9248 67.3203 59.5212 67.3203 58.8115C67.3724 58.486 67.3984 57.9945 67.3984 57.3369ZM71.5977 60.4131C71.5326 60.4001 71.5 60.3545 71.5 60.2764C71.5 60.1592 71.653 60.0811 71.959 60.042C72.6621 59.9378 73.0137 59.5667 73.0137 58.9287V53.7627C73.0137 53.4893 72.8639 53.3005 72.5645 53.1963C72.4342 53.1507 72.2943 53.1149 72.1445 53.0889C71.9948 53.0563 71.8743 53.027 71.7832 53.001C71.6986 52.9749 71.6432 52.9521 71.6172 52.9326C71.5977 52.9066 71.5879 52.8577 71.5879 52.7861C71.5879 52.708 71.6367 52.6429 71.7344 52.5908L74.2246 51.4189C74.3027 51.3799 74.3516 51.3604 74.3711 51.3604C74.4818 51.3604 74.5371 51.4385 74.5371 51.5947V58.9287C74.5371 59.5667 74.8887 59.9378 75.5918 60.042C75.8978 60.0811 76.0508 60.1494 76.0508 60.2471C76.0508 60.3447 76.0182 60.4001 75.9531 60.4131H71.5977ZM73.6289 48.6162C73.362 48.6162 73.1243 48.5316 72.916 48.3623C72.7142 48.193 72.6133 47.9587 72.6133 47.6592C72.6133 47.3532 72.7109 47.1123 72.9062 46.9365C73.1016 46.7607 73.3327 46.6729 73.5996 46.6729C73.873 46.6729 74.1009 46.777 74.2832 46.9854C74.472 47.1937 74.5664 47.4183 74.5664 47.6592C74.5664 47.9001 74.4785 48.1214 74.3027 48.3232C74.127 48.5186 73.9023 48.6162 73.6289 48.6162ZM79.5957 52.9033C79.5566 52.9033 79.5371 52.9326 79.5371 52.9912V58.3818C79.5371 58.7725 79.6217 59.0785 79.791 59.2998C79.9668 59.5212 80.1882 59.6318 80.4551 59.6318C80.722 59.6318 80.9531 59.5895 81.1484 59.5049C81.3503 59.4137 81.5228 59.3161 81.666 59.2119C81.8158 59.1077 81.9492 59.0133 82.0664 58.9287C82.1836 58.8376 82.2878 58.792 82.3789 58.792C82.4701 58.792 82.5156 58.8148 82.5156 58.8604C82.5156 59.0166 82.4993 59.1175 82.4668 59.1631C81.6855 60.1722 80.9303 60.6768 80.2012 60.6768C79.4785 60.6768 78.9316 60.4489 78.5605 59.9932C78.196 59.5309 78.0137 58.9808 78.0137 58.3428V52.9033H77.2812C77.099 52.9033 77.0013 52.8447 76.9883 52.7275C76.9818 52.6104 77.0013 52.5355 77.0469 52.5029C77.3919 52.2816 77.8672 51.8844 78.4727 51.3115C78.5378 51.2399 78.6257 51.1325 78.7363 50.9893C78.847 50.846 79.0065 50.6507 79.2148 50.4033C79.4297 50.1559 79.5924 50.0322 79.7031 50.0322C79.8138 50.0322 79.8691 50.0778 79.8691 50.1689C79.8691 50.182 79.7585 50.6084 79.5371 51.4482C79.5371 51.5654 79.5892 51.6273 79.6934 51.6338H82.1836C82.4701 51.6338 82.6133 52.0374 82.6133 52.8447C82.6133 52.8838 82.5872 52.9033 82.5352 52.9033H79.5957ZM85.123 55.2666C85.0124 55.2666 84.957 55.5042 84.957 55.9795C84.957 56.9886 85.2565 57.835 85.8555 58.5186C86.4544 59.2021 87.1966 59.5439 88.082 59.5439C88.974 59.5439 89.8301 59.1598 90.6504 58.3916C90.6634 58.3786 90.6797 58.3721 90.6992 58.3721H90.748C90.7871 58.3721 90.8229 58.4046 90.8555 58.4697C90.8945 58.5283 90.9303 58.5674 90.9629 58.5869C90.2077 59.5049 89.319 60.1396 88.2969 60.4912C87.9453 60.6149 87.5482 60.6768 87.1055 60.6768C86.6628 60.6768 86.2135 60.5563 85.7578 60.3154C85.3021 60.068 84.9115 59.7458 84.5859 59.3486C83.8958 58.5218 83.5508 57.4932 83.5508 56.2627C83.5508 55.0257 83.9251 53.8994 84.6738 52.8838C85.429 51.8682 86.4642 51.3604 87.7793 51.3604C88.7233 51.3604 89.4948 51.7835 90.0938 52.6299C90.6927 53.4697 90.9922 54.2087 90.9922 54.8467C90.9922 55.1266 90.9238 55.2666 90.7871 55.2666H85.123ZM85.2305 54.3291C85.2305 54.4528 85.2891 54.5146 85.4062 54.5146H89.0879C89.2572 54.5146 89.3418 54.4137 89.3418 54.2119C89.3418 53.7432 89.1302 53.2646 88.707 52.7764C88.2904 52.2816 87.8314 52.0342 87.3301 52.0342C86.8418 52.0342 86.3958 52.2555 85.9922 52.6982C85.5951 53.141 85.3411 53.6455 85.2305 54.2119V54.3291ZM86.4023 49.71C86.3763 49.6839 86.3633 49.6644 86.3633 49.6514C86.3633 49.6383 86.3763 49.6188 86.4023 49.5928L88.4824 46.7119C88.7168 46.3929 88.9479 46.2334 89.1758 46.2334C89.4036 46.2334 89.5827 46.3083 89.7129 46.458C89.8496 46.6012 89.918 46.7965 89.918 47.0439C89.918 47.2913 89.7389 47.568 89.3809 47.874L86.7539 49.9932C86.7214 50.0127 86.6953 50.0225 86.6758 50.0225C86.6562 50.0225 86.6367 50.0127 86.6172 49.9932L86.4023 49.71ZM104.029 51.7705C104.316 51.8682 104.492 51.917 104.557 51.917C104.622 51.917 104.661 51.917 104.674 51.917C104.693 51.9105 104.716 51.8682 104.742 51.79V46.751C104.742 46.4775 104.592 46.2887 104.293 46.1846C104.163 46.139 104.023 46.1032 103.873 46.0771C103.723 46.0446 103.603 46.0153 103.512 45.9893C103.427 45.9632 103.372 45.9404 103.346 45.9209C103.326 45.8949 103.316 45.846 103.316 45.7744C103.316 45.6963 103.365 45.6312 103.463 45.5791L105.953 44.4072C106.031 44.3682 106.08 44.3486 106.1 44.3486C106.21 44.3486 106.266 44.4268 106.266 44.583V58.4893C106.298 58.7757 106.38 58.9808 106.51 59.1045C106.64 59.2282 106.852 59.29 107.145 59.29L107.711 59.251C107.75 59.251 107.77 59.29 107.77 59.3682C107.77 59.4398 107.721 59.4984 107.623 59.5439L105.025 60.6182C104.947 60.6572 104.879 60.6768 104.82 60.6768C104.768 60.6768 104.742 60.5954 104.742 60.4326V59.5439C104.742 59.4788 104.726 59.4463 104.693 59.4463C104.648 59.4463 104.378 59.5928 103.883 59.8857C102.366 60.7842 101.087 60.9176 100.045 60.2861C99.2116 59.7783 98.6484 58.9743 98.3555 57.874C98.2188 57.3597 98.1504 56.8161 98.1504 56.2432C98.1504 55.6637 98.2676 55.0908 98.502 54.5244C98.7428 53.9515 99.0716 53.4502 99.4883 53.0205C100.406 52.083 101.513 51.6143 102.809 51.6143C103.336 51.6143 103.743 51.6663 104.029 51.7705ZM99.625 55.96C99.625 56.943 99.8984 57.8057 100.445 58.5479C100.992 59.2835 101.754 59.6514 102.73 59.6514C103.16 59.6514 103.603 59.5472 104.059 59.3389C104.514 59.124 104.742 58.9613 104.742 58.8506V53.8115C104.742 53.6878 104.658 53.5413 104.488 53.3721C103.967 52.6559 103.274 52.2979 102.408 52.2979C101.549 52.2979 100.868 52.6624 100.367 53.3916C99.8724 54.1143 99.625 54.9704 99.625 55.96ZM110.221 55.2666C110.11 55.2666 110.055 55.5042 110.055 55.9795C110.055 56.9886 110.354 57.835 110.953 58.5186C111.552 59.2021 112.294 59.5439 113.18 59.5439C114.072 59.5439 114.928 59.1598 115.748 58.3916C115.761 58.3786 115.777 58.3721 115.797 58.3721H115.846C115.885 58.3721 115.921 58.4046 115.953 58.4697C115.992 58.5283 116.028 58.5674 116.061 58.5869C115.305 59.5049 114.417 60.1396 113.395 60.4912C113.043 60.6149 112.646 60.6768 112.203 60.6768C111.76 60.6768 111.311 60.5563 110.855 60.3154C110.4 60.068 110.009 59.7458 109.684 59.3486C108.993 58.5218 108.648 57.4932 108.648 56.2627C108.648 55.0257 109.023 53.8994 109.771 52.8838C110.527 51.8682 111.562 51.3604 112.877 51.3604C113.821 51.3604 114.592 51.7835 115.191 52.6299C115.79 53.4697 116.09 54.2087 116.09 54.8467C116.09 55.1266 116.021 55.2666 115.885 55.2666H110.221ZM110.328 54.3291C110.328 54.4528 110.387 54.5146 110.504 54.5146H114.186C114.355 54.5146 114.439 54.4137 114.439 54.2119C114.439 53.7432 114.228 53.2646 113.805 52.7764C113.388 52.2816 112.929 52.0342 112.428 52.0342C111.939 52.0342 111.493 52.2555 111.09 52.6982C110.693 53.141 110.439 53.6455 110.328 54.2119V54.3291ZM130.455 59.3877C129.557 60.2471 128.548 60.6768 127.428 60.6768C127.024 60.6768 126.474 60.6019 125.777 60.4521C125.667 60.4521 125.605 60.4912 125.592 60.5693C125.585 60.6475 125.579 60.7288 125.572 60.8135V64.9834C125.572 65.4717 125.855 65.7972 126.422 65.96C126.669 66.0251 126.9 66.0706 127.115 66.0967C127.33 66.1292 127.467 66.1585 127.525 66.1846C127.59 66.2106 127.623 66.2594 127.623 66.3311C127.623 66.4092 127.59 66.4548 127.525 66.4678H122.633C122.568 66.4548 122.535 66.4092 122.535 66.3311C122.535 66.2139 122.688 66.1357 122.994 66.0967C123.697 65.9925 124.049 65.6214 124.049 64.9834V53.2744C124.049 53.001 123.899 52.8122 123.6 52.708C123.469 52.6624 123.329 52.6266 123.18 52.6006C123.03 52.568 122.91 52.5387 122.818 52.5127C122.734 52.4867 122.678 52.4639 122.652 52.4443C122.633 52.4183 122.623 52.3695 122.623 52.2979C122.623 52.2197 122.672 52.1546 122.77 52.1025L125.26 50.9111C125.312 50.8851 125.364 50.8721 125.416 50.8721C125.52 50.8721 125.572 50.9502 125.572 51.1064V52.3467C125.572 52.4183 125.608 52.4541 125.68 52.4541C125.758 52.4541 125.94 52.3597 126.227 52.1709C127.053 51.637 127.913 51.3701 128.805 51.3701C129.43 51.3701 130.003 51.624 130.523 52.1318C131.207 52.7959 131.663 53.7204 131.891 54.9053C131.956 55.2438 131.988 55.6051 131.988 55.9893C131.988 56.3669 131.926 56.7673 131.803 57.1904C131.555 58.0303 131.106 58.7627 130.455 59.3877ZM127.662 52.3857C126.777 52.3857 126.08 52.6396 125.572 53.1475V58.6357C125.572 58.9613 125.628 59.1729 125.738 59.2705C126.025 59.5179 126.464 59.71 127.057 59.8467C128.229 60.1136 129.14 59.8337 129.791 59.0068C130.253 58.4144 130.484 57.6982 130.484 56.8584C130.484 55.2243 130.117 54.0003 129.381 53.1865C128.938 52.6917 128.365 52.4248 127.662 52.3857ZM133.795 56.0283C133.795 54.7458 134.247 53.6455 135.152 52.7275C136.064 51.8031 137.154 51.3408 138.424 51.3408C139.693 51.3408 140.797 51.79 141.734 52.6885C142.672 53.5804 143.141 54.6839 143.141 55.999C143.141 57.3141 142.695 58.4242 141.803 59.3291C140.917 60.2275 139.804 60.6768 138.463 60.6768C137.122 60.6768 136.008 60.221 135.123 59.3096C134.238 58.3981 133.795 57.3044 133.795 56.0283ZM136.227 58.5381C136.865 59.6123 137.734 60.1494 138.834 60.1494C139.687 60.1494 140.338 59.8076 140.787 59.124C141.243 58.4404 141.471 57.6006 141.471 56.6045C141.471 55.6084 141.152 54.5863 140.514 53.5381C139.882 52.4899 139.029 51.9658 137.955 51.9658C137.167 51.9658 136.546 52.3076 136.09 52.9912C135.641 53.6683 135.416 54.5309 135.416 55.5791C135.416 56.6208 135.686 57.6071 136.227 58.5381ZM144.566 60.4131C144.501 60.4001 144.469 60.3545 144.469 60.2764C144.469 60.1592 144.622 60.0811 144.928 60.042C145.631 59.9378 145.982 59.5667 145.982 58.9287V53.7627C145.982 53.4893 145.833 53.3005 145.533 53.1963C145.403 53.1507 145.263 53.1149 145.113 53.0889C144.964 53.0563 144.843 53.027 144.752 53.001C144.667 52.9749 144.612 52.9521 144.586 52.9326C144.566 52.9066 144.557 52.8577 144.557 52.7861C144.557 52.708 144.605 52.6429 144.703 52.5908L147.193 51.4189C147.271 51.3799 147.32 51.3604 147.34 51.3604C147.451 51.3604 147.506 51.4385 147.506 51.5947V58.9287C147.506 59.5667 147.857 59.9378 148.561 60.042C148.867 60.0811 149.02 60.1494 149.02 60.2471C149.02 60.3447 148.987 60.4001 148.922 60.4131H144.566ZM146.598 48.6162C146.331 48.6162 146.093 48.5316 145.885 48.3623C145.683 48.193 145.582 47.9587 145.582 47.6592C145.582 47.3532 145.68 47.1123 145.875 46.9365C146.07 46.7607 146.301 46.6729 146.568 46.6729C146.842 46.6729 147.07 46.777 147.252 46.9854C147.441 47.1937 147.535 47.4183 147.535 47.6592C147.535 47.9001 147.447 48.1214 147.271 48.3232C147.096 48.5186 146.871 48.6162 146.598 48.6162ZM156.217 51.7705C156.503 51.8682 156.679 51.917 156.744 51.917C156.809 51.917 156.848 51.917 156.861 51.917C156.881 51.9105 156.904 51.8682 156.93 51.79V46.751C156.93 46.4775 156.78 46.2887 156.48 46.1846C156.35 46.139 156.21 46.1032 156.061 46.0771C155.911 46.0446 155.79 46.0153 155.699 45.9893C155.615 45.9632 155.559 45.9404 155.533 45.9209C155.514 45.8949 155.504 45.846 155.504 45.7744C155.504 45.6963 155.553 45.6312 155.65 45.5791L158.141 44.4072C158.219 44.3682 158.268 44.3486 158.287 44.3486C158.398 44.3486 158.453 44.4268 158.453 44.583V58.4893C158.486 58.7757 158.567 58.9808 158.697 59.1045C158.827 59.2282 159.039 59.29 159.332 59.29L159.898 59.251C159.938 59.251 159.957 59.29 159.957 59.3682C159.957 59.4398 159.908 59.4984 159.811 59.5439L157.213 60.6182C157.135 60.6572 157.066 60.6768 157.008 60.6768C156.956 60.6768 156.93 60.5954 156.93 60.4326V59.5439C156.93 59.4788 156.913 59.4463 156.881 59.4463C156.835 59.4463 156.565 59.5928 156.07 59.8857C154.553 60.7842 153.274 60.9176 152.232 60.2861C151.399 59.7783 150.836 58.9743 150.543 57.874C150.406 57.3597 150.338 56.8161 150.338 56.2432C150.338 55.6637 150.455 55.0908 150.689 54.5244C150.93 53.9515 151.259 53.4502 151.676 53.0205C152.594 52.083 153.701 51.6143 154.996 51.6143C155.523 51.6143 155.93 51.6663 156.217 51.7705ZM151.812 55.96C151.812 56.943 152.086 57.8057 152.633 58.5479C153.18 59.2835 153.941 59.6514 154.918 59.6514C155.348 59.6514 155.79 59.5472 156.246 59.3389C156.702 59.124 156.93 58.9613 156.93 58.8506V53.8115C156.93 53.6878 156.845 53.5413 156.676 53.3721C156.155 52.6559 155.462 52.2979 154.596 52.2979C153.736 52.2979 153.056 52.6624 152.555 53.3916C152.06 54.1143 151.812 54.9704 151.812 55.96ZM165.572 53.7334C165.572 53.8766 165.517 53.9482 165.406 53.9482C165.302 53.9482 165.221 53.8701 165.162 53.7139C165.006 53.2842 164.771 52.9033 164.459 52.5713C164.153 52.2393 163.772 52.0732 163.316 52.0732C162.717 52.0732 162.314 52.3727 162.105 52.9717C162.04 53.1735 162.008 53.3818 162.008 53.5967C162.008 53.8115 162.145 54.0524 162.418 54.3193C162.691 54.5798 163.141 54.8923 163.766 55.2568C164.391 55.6214 164.846 55.9307 165.133 56.1846C165.784 56.764 166.109 57.4346 166.109 58.1963C166.109 58.958 165.829 59.5635 165.27 60.0127C164.71 60.4554 164.059 60.6768 163.316 60.6768C162.919 60.6768 162.558 60.6214 162.232 60.5107C161.913 60.4066 161.728 60.3545 161.676 60.3545C161.63 60.3545 161.552 60.4066 161.441 60.5107C161.337 60.6214 161.253 60.6768 161.188 60.6768H161.021C160.982 60.6768 160.934 60.3252 160.875 59.6221C160.816 58.9189 160.787 58.5023 160.787 58.3721C160.787 58.2419 160.797 58.1702 160.816 58.1572C160.842 58.1442 160.882 58.1377 160.934 58.1377C160.986 58.1377 161.028 58.154 161.061 58.1865C161.1 58.2191 161.132 58.2614 161.158 58.3135C161.184 58.359 161.204 58.4079 161.217 58.46C161.236 58.512 161.279 58.6097 161.344 58.7529C161.786 59.6969 162.47 60.1689 163.395 60.1689C163.805 60.1689 164.133 60.0192 164.381 59.7197C164.628 59.4137 164.752 59.0752 164.752 58.7041C164.752 58.333 164.654 58.0205 164.459 57.7666C164.264 57.5127 164.02 57.2816 163.727 57.0732C163.44 56.8649 163.128 56.6631 162.789 56.4678C161.474 55.6995 160.816 54.8499 160.816 53.9189C160.816 53.2223 161.116 52.6234 161.715 52.1221C162.314 51.6143 162.929 51.3604 163.561 51.3604C164.192 51.3604 164.658 51.4287 164.957 51.5654C165.263 51.7021 165.442 51.8193 165.494 51.917C165.546 52.0081 165.572 52.3141 165.572 52.835V53.7334ZM180.26 59.3877C179.361 60.2471 178.352 60.6768 177.232 60.6768C176.829 60.6768 176.279 60.6019 175.582 60.4521C175.471 60.4521 175.41 60.4912 175.396 60.5693C175.39 60.6475 175.383 60.7288 175.377 60.8135V64.9834C175.377 65.4717 175.66 65.7972 176.227 65.96C176.474 66.0251 176.705 66.0706 176.92 66.0967C177.135 66.1292 177.271 66.1585 177.33 66.1846C177.395 66.2106 177.428 66.2594 177.428 66.3311C177.428 66.4092 177.395 66.4548 177.33 66.4678H172.438C172.372 66.4548 172.34 66.4092 172.34 66.3311C172.34 66.2139 172.493 66.1357 172.799 66.0967C173.502 65.9925 173.854 65.6214 173.854 64.9834V53.2744C173.854 53.001 173.704 52.8122 173.404 52.708C173.274 52.6624 173.134 52.6266 172.984 52.6006C172.835 52.568 172.714 52.5387 172.623 52.5127C172.538 52.4867 172.483 52.4639 172.457 52.4443C172.438 52.4183 172.428 52.3695 172.428 52.2979C172.428 52.2197 172.477 52.1546 172.574 52.1025L175.064 50.9111C175.117 50.8851 175.169 50.8721 175.221 50.8721C175.325 50.8721 175.377 50.9502 175.377 51.1064V52.3467C175.377 52.4183 175.413 52.4541 175.484 52.4541C175.562 52.4541 175.745 52.3597 176.031 52.1709C176.858 51.637 177.717 51.3701 178.609 51.3701C179.234 51.3701 179.807 51.624 180.328 52.1318C181.012 52.7959 181.467 53.7204 181.695 54.9053C181.76 55.2438 181.793 55.6051 181.793 55.9893C181.793 56.3669 181.731 56.7673 181.607 57.1904C181.36 58.0303 180.911 58.7627 180.26 59.3877ZM177.467 52.3857C176.581 52.3857 175.885 52.6396 175.377 53.1475V58.6357C175.377 58.9613 175.432 59.1729 175.543 59.2705C175.829 59.5179 176.269 59.71 176.861 59.8467C178.033 60.1136 178.945 59.8337 179.596 59.0068C180.058 58.4144 180.289 57.6982 180.289 56.8584C180.289 55.2243 179.921 54.0003 179.186 53.1865C178.743 52.6917 178.17 52.4248 177.467 52.3857ZM189.586 58.8018C189.586 58.971 189.664 59.1077 189.82 59.2119C189.983 59.3096 190.169 59.3584 190.377 59.3584C190.585 59.3584 190.758 59.3063 190.895 59.2021C191.038 59.0915 191.135 59.0361 191.188 59.0361C191.24 59.0361 191.266 59.1077 191.266 59.251C191.266 59.3877 191.201 59.5049 191.07 59.6025C190.094 60.3187 189.433 60.6768 189.088 60.6768C188.671 60.6768 188.333 60.2438 188.072 59.3779C188.053 59.3128 188.036 59.2835 188.023 59.29C187.216 59.8955 186.708 60.2601 186.5 60.3838C185.966 60.6898 185.429 60.7386 184.889 60.5303C184.355 60.3219 183.967 59.9769 183.727 59.4951C183.609 59.2477 183.551 58.984 183.551 58.7041C183.551 58.1507 183.756 57.7113 184.166 57.3857C184.576 57.0602 185.357 56.7477 186.51 56.4482C186.9 56.3441 187.249 56.2106 187.555 56.0479C187.861 55.8851 188.02 55.7809 188.033 55.7354C188.053 55.6898 188.062 55.6475 188.062 55.6084V53.7334C188.062 52.9977 187.776 52.4801 187.203 52.1807C187.014 52.083 186.786 52.0342 186.52 52.0342C186.259 52.0342 185.992 52.1383 185.719 52.3467C185.452 52.555 185.318 52.8512 185.318 53.2354L185.367 53.6162C185.328 53.6943 185.094 53.8245 184.664 54.0068C184.234 54.1891 183.987 54.2868 183.922 54.2998C183.818 54.2998 183.766 54.1761 183.766 53.9287C183.766 53.6748 183.84 53.3949 183.99 53.0889C184.14 52.7829 184.352 52.5029 184.625 52.249C185.263 51.6566 185.992 51.3604 186.812 51.3604C187.633 51.3604 188.3 51.5882 188.814 52.0439C189.329 52.4932 189.586 53.0303 189.586 53.6553V58.8018ZM185.084 58.5186C185.084 58.8311 185.204 59.1045 185.445 59.3389C185.686 59.5667 185.96 59.6807 186.266 59.6807C186.578 59.6807 186.956 59.5505 187.398 59.29C187.841 59.0231 188.062 58.7497 188.062 58.4697V56.4873C188.062 56.4157 188.046 56.3799 188.014 56.3799C187.981 56.3799 187.958 56.3831 187.945 56.3896L185.68 57.4443C185.445 57.6136 185.286 57.7568 185.201 57.874C185.123 57.9912 185.084 58.2061 185.084 58.5186ZM198.141 53.4111C198.062 53.3981 197.949 53.3558 197.799 53.2842C197.258 53.0368 196.835 52.9131 196.529 52.9131C196.223 52.9131 195.901 53.1051 195.562 53.4893C195.23 53.8669 195.064 54.2087 195.064 54.5146V58.9287C195.064 59.417 195.348 59.7425 195.914 59.9053C196.161 59.9704 196.393 60.0192 196.607 60.0518C196.822 60.0778 196.959 60.1038 197.018 60.1299C197.083 60.1559 197.115 60.208 197.115 60.2861C197.115 60.3577 197.083 60.4001 197.018 60.4131H192.125C192.06 60.4001 192.027 60.3545 192.027 60.2764C192.027 60.1592 192.18 60.0811 192.486 60.042C193.189 59.9378 193.541 59.5667 193.541 58.9287V53.7627C193.541 53.4893 193.391 53.3005 193.092 53.1963C192.962 53.1507 192.822 53.1149 192.672 53.0889C192.522 53.0563 192.402 53.027 192.311 53.001C192.226 52.9749 192.171 52.9521 192.145 52.9326C192.125 52.9066 192.115 52.8577 192.115 52.7861C192.115 52.708 192.164 52.6429 192.262 52.5908L194.752 51.4189C194.83 51.3799 194.879 51.3604 194.898 51.3604C195.009 51.3604 195.064 51.4385 195.064 51.5947V53.1768C195.064 53.2549 195.084 53.2939 195.123 53.2939C195.175 53.2939 195.309 53.141 195.523 52.835C196.142 51.9691 196.653 51.5361 197.057 51.5361C197.285 51.5361 197.633 51.6273 198.102 51.8096C198.577 51.9919 198.814 52.1449 198.814 52.2686C198.814 52.4183 198.74 52.6462 198.59 52.9521C198.44 53.2581 198.29 53.4111 198.141 53.4111ZM210.221 60.2568C210.221 60.361 210.162 60.4131 210.045 60.4131H204.684C204.618 60.4001 204.586 60.3545 204.586 60.2764C204.586 60.1592 204.739 60.0811 205.045 60.042C205.748 59.9378 206.1 59.5667 206.1 58.9287V53.0107C206.1 52.9391 206.061 52.9033 205.982 52.9033H204.918C204.84 52.9033 204.765 52.8805 204.693 52.835C204.622 52.7829 204.586 52.7178 204.586 52.6396C204.586 52.555 204.625 52.4899 204.703 52.4443C204.814 52.3792 205.074 52.2913 205.484 52.1807C205.895 52.07 206.1 51.8877 206.1 51.6338V51.3115C206.1 48.0563 207.099 45.9307 209.098 44.9346C209.306 44.8369 209.498 44.7881 209.674 44.7881C209.85 44.7881 210.13 44.8337 210.514 44.9248C210.898 45.016 211.207 45.0615 211.441 45.0615C211.682 45.0615 212.05 44.9834 212.545 44.8271L213.434 44.4072C213.512 44.3682 213.561 44.3486 213.58 44.3486C213.691 44.3486 213.746 44.4268 213.746 44.583V58.9287C213.746 59.5667 214.098 59.9378 214.801 60.042C215.107 60.0811 215.26 60.1494 215.26 60.2471C215.26 60.3447 215.227 60.4001 215.162 60.4131H210.807C210.742 60.4001 210.709 60.3545 210.709 60.2764C210.709 60.1592 210.862 60.0811 211.168 60.042C211.871 59.9378 212.223 59.5667 212.223 58.9287V52.9033H207.75C207.665 52.9033 207.623 52.9359 207.623 53.001V58.7334C207.623 59.6644 208.43 60.1299 210.045 60.1299C210.162 60.1429 210.221 60.1852 210.221 60.2568ZM207.623 51.5459C207.623 51.598 207.656 51.624 207.721 51.624H212.223V46.6826C211.63 46.2269 211.204 45.9567 210.943 45.8721C210.689 45.7874 210.406 45.7451 210.094 45.7451C209.43 45.7451 208.899 45.8981 208.502 46.2041C208.111 46.5036 207.867 46.8584 207.77 47.2686C207.672 47.6787 207.623 48.1572 207.623 48.7041V51.5459ZM217.857 55.2666C217.747 55.2666 217.691 55.5042 217.691 55.9795C217.691 56.9886 217.991 57.835 218.59 58.5186C219.189 59.2021 219.931 59.5439 220.816 59.5439C221.708 59.5439 222.564 59.1598 223.385 58.3916C223.398 58.3786 223.414 58.3721 223.434 58.3721H223.482C223.521 58.3721 223.557 58.4046 223.59 58.4697C223.629 58.5283 223.665 58.5674 223.697 58.5869C222.942 59.5049 222.053 60.1396 221.031 60.4912C220.68 60.6149 220.283 60.6768 219.84 60.6768C219.397 60.6768 218.948 60.5563 218.492 60.3154C218.036 60.068 217.646 59.7458 217.32 59.3486C216.63 58.5218 216.285 57.4932 216.285 56.2627C216.285 55.0257 216.66 53.8994 217.408 52.8838C218.163 51.8682 219.199 51.3604 220.514 51.3604C221.458 51.3604 222.229 51.7835 222.828 52.6299C223.427 53.4697 223.727 54.2087 223.727 54.8467C223.727 55.1266 223.658 55.2666 223.521 55.2666H217.857ZM217.965 54.3291C217.965 54.4528 218.023 54.5146 218.141 54.5146H221.822C221.992 54.5146 222.076 54.4137 222.076 54.2119C222.076 53.7432 221.865 53.2646 221.441 52.7764C221.025 52.2816 220.566 52.0342 220.064 52.0342C219.576 52.0342 219.13 52.2555 218.727 52.6982C218.329 53.141 218.076 53.6455 217.965 54.2119V54.3291ZM233.033 52.5322C233.033 52.988 232.77 53.2158 232.242 53.2158C231.975 53.2158 231.747 53.141 231.559 52.9912C231.376 52.835 231.233 52.7048 231.129 52.6006C231.031 52.4899 230.927 52.389 230.816 52.2979C230.348 51.9137 229.775 51.8714 229.098 52.1709C228.427 52.4704 227.91 53.1084 227.545 54.085C227.343 54.6253 227.242 55.1624 227.242 55.6963C227.242 56.8421 227.503 57.7796 228.023 58.5088C228.544 59.2314 229.342 59.5928 230.416 59.5928C231.217 59.5928 231.936 59.2347 232.574 58.5186C232.77 58.3037 232.887 58.1963 232.926 58.1963C232.965 58.1963 233.007 58.2158 233.053 58.2549C233.098 58.2939 233.121 58.3525 233.121 58.4307C233.121 58.5023 233.102 58.5576 233.062 58.5967C232.066 59.9834 230.813 60.6768 229.303 60.6768C228.209 60.6768 227.311 60.2699 226.607 59.4561C225.911 58.6423 225.562 57.7113 225.562 56.6631C225.569 54.723 226.038 53.3265 226.969 52.4736C227.789 51.7249 228.958 51.3506 230.475 51.3506C231.412 51.3506 232.034 51.445 232.34 51.6338C232.646 51.8226 232.861 52.0602 232.984 52.3467C233.017 52.4118 233.033 52.4736 233.033 52.5322ZM237.135 52.8545C237.135 53.0107 237.158 53.0889 237.203 53.0889C237.249 53.0889 237.281 53.0791 237.301 53.0596C237.32 53.0335 237.457 52.8805 237.711 52.6006C238.447 51.7803 239.192 51.3701 239.947 51.3701C240.937 51.3701 241.663 51.5915 242.125 52.0342C242.691 52.5941 242.975 53.5348 242.975 54.8564V58.9287C242.975 59.5667 243.326 59.9378 244.029 60.042C244.335 60.0811 244.488 60.1494 244.488 60.2471C244.488 60.3447 244.456 60.4001 244.391 60.4131H240.035C239.97 60.4001 239.938 60.3545 239.938 60.2764C239.938 60.1592 240.09 60.0811 240.396 60.042C241.1 59.9378 241.451 59.5667 241.451 58.9287V54.9541C241.451 53.9971 241.383 53.3753 241.246 53.0889C240.986 52.516 240.442 52.2295 239.615 52.2295C239.107 52.2295 238.567 52.4476 237.994 52.8838C237.421 53.3135 237.135 53.7887 237.135 54.3096V58.9287C237.135 59.5667 237.486 59.9378 238.189 60.042C238.495 60.0811 238.648 60.1494 238.648 60.2471C238.648 60.3447 238.616 60.4001 238.551 60.4131H234.195C234.13 60.4001 234.098 60.3545 234.098 60.2764C234.098 60.1592 234.251 60.0811 234.557 60.042C235.26 59.9378 235.611 59.5667 235.611 58.9287V46.751C235.611 46.4775 235.462 46.2887 235.162 46.1846C235.032 46.139 234.892 46.1032 234.742 46.0771C234.592 46.0446 234.472 46.0153 234.381 45.9893C234.296 45.9632 234.241 45.9404 234.215 45.9209C234.195 45.8949 234.186 45.846 234.186 45.7744C234.186 45.6963 234.234 45.6312 234.332 45.5791L236.822 44.4072C236.9 44.3682 236.949 44.3486 236.969 44.3486C237.079 44.3486 237.135 44.4268 237.135 44.583V52.8545ZM247.037 55.2666C246.926 55.2666 246.871 55.5042 246.871 55.9795C246.871 56.9886 247.171 57.835 247.77 58.5186C248.368 59.2021 249.111 59.5439 249.996 59.5439C250.888 59.5439 251.744 59.1598 252.564 58.3916C252.577 58.3786 252.594 58.3721 252.613 58.3721H252.662C252.701 58.3721 252.737 58.4046 252.77 58.4697C252.809 58.5283 252.844 58.5674 252.877 58.5869C252.122 59.5049 251.233 60.1396 250.211 60.4912C249.859 60.6149 249.462 60.6768 249.02 60.6768C248.577 60.6768 248.128 60.5563 247.672 60.3154C247.216 60.068 246.826 59.7458 246.5 59.3486C245.81 58.5218 245.465 57.4932 245.465 56.2627C245.465 55.0257 245.839 53.8994 246.588 52.8838C247.343 51.8682 248.378 51.3604 249.693 51.3604C250.637 51.3604 251.409 51.7835 252.008 52.6299C252.607 53.4697 252.906 54.2087 252.906 54.8467C252.906 55.1266 252.838 55.2666 252.701 55.2666H247.037ZM247.145 54.3291C247.145 54.4528 247.203 54.5146 247.32 54.5146H251.002C251.171 54.5146 251.256 54.4137 251.256 54.2119C251.256 53.7432 251.044 53.2646 250.621 52.7764C250.204 52.2816 249.745 52.0342 249.244 52.0342C248.756 52.0342 248.31 52.2555 247.906 52.6982C247.509 53.141 247.255 53.6455 247.145 54.2119V54.3291Z" fill="#EFB85F"/>
<path d="M140.787 117.861C130.037 119.304 125.01 120.8 117.577 124.755C104.26 131.756 93.511 143.834 87.3074 158.692C86.1844 161.417 84.6335 166.655 84.6335 167.777C84.6335 168.365 84.2591 169.808 83.8313 170.984C82.7617 174.03 82.7617 191.987 83.8313 195.033C84.2591 196.209 84.6335 197.652 84.6335 198.24C84.6335 199.416 86.4518 205.348 87.254 206.898C87.5214 207.432 88.1631 208.928 88.6979 210.265C91.2114 216.464 96.8267 224.534 102.602 230.306C104.474 232.176 106.025 233.833 106.025 233.993C106.025 234.1 105.169 234.528 104.153 234.848C99.6611 236.345 98.3241 241.208 101.265 245.27L102.977 247.621L101.747 251.523C101.052 253.661 99.875 257.455 99.0728 259.967C98.2707 262.479 97.308 265.578 96.9337 266.861C96.2919 268.785 95.8106 269.319 93.9923 270.121C92.7623 270.656 91.2114 271.724 90.6231 272.526C88.5909 275.091 89.2862 279.527 92.0136 281.718C92.7088 282.253 104.795 282.413 148.595 282.413H204.32L205.71 280.756C207.528 278.619 207.903 276.908 207.154 274.397C206.512 272.259 204.748 270.656 202.074 269.747C200.79 269.373 200.362 268.732 199.453 265.846C198.865 263.922 198.116 261.517 197.742 260.501C196.779 258.043 193.731 247.996 193.731 247.515C193.731 247.301 194.48 246.125 195.335 244.896C196.244 243.613 196.94 242.01 196.94 241.101C196.94 238.696 195.068 236.131 192.661 235.169C191.485 234.688 190.522 234.154 190.522 233.886C190.522 233.673 192.02 232.069 193.784 230.306C200.469 223.786 207.101 213.685 210.042 205.455C212.288 199.148 214.053 189.368 214.053 183.008C214.053 175.526 211.272 161.898 208.758 156.981C208.491 156.447 207.742 154.844 207.047 153.454C200.951 141.055 189.453 129.672 177.152 123.847C171.644 121.228 166.51 119.464 162.446 118.769C161.002 118.502 158.595 118.075 157.098 117.807C153.942 117.273 144.904 117.273 140.787 117.861ZM160.039 121.549C164.371 122.457 168.649 123.686 170.307 124.541C171.056 124.969 171.965 125.29 172.286 125.29C172.607 125.29 174.478 126.091 176.457 127.053C188.062 132.665 198.17 142.766 204.373 155.058C210.844 167.937 212.395 182.421 208.919 198.24C206.566 208.822 200.63 218.976 191.271 228.221C186.672 232.818 184.853 234.261 183.463 234.474C182.5 234.635 166.296 234.795 147.418 234.848L113.138 234.902L110.517 232.925C103.351 227.58 95.7037 218.228 92.0671 210.265C90.2488 206.31 89.5536 204.6 89.2327 202.943C89.0188 201.981 88.5909 201.072 88.3235 200.912C88.0561 200.698 87.8422 199.95 87.8422 199.148C87.8422 198.347 87.4679 196.476 86.9866 195.033C85.81 191.239 85.81 175.419 86.9866 171.091C87.4679 169.38 87.8422 167.403 87.8422 166.708C87.8422 166.013 88.0561 165.319 88.3235 165.105C88.5909 164.945 89.0188 164.036 89.2327 163.074C89.3931 162.165 89.9279 160.509 90.4092 159.493C96.7198 144.85 106.934 133.68 119.769 127.481C122.336 126.198 125.171 124.862 125.973 124.434C126.829 124.007 127.898 123.686 128.326 123.686C128.754 123.686 130.251 123.312 131.642 122.885C138.861 120.587 152.445 119.945 160.039 121.549ZM192.34 238.643C193.891 239.872 194.105 241.582 192.982 243.186C192.233 244.201 191.164 244.201 148.274 244.201C105.383 244.201 104.314 244.201 103.565 243.186C102.496 241.636 102.656 240.3 104.153 238.857L105.437 237.521H148.167C190.576 237.521 190.896 237.521 192.34 238.643ZM191.057 249.813C192.447 253.554 193.25 255.798 193.731 257.562C193.998 258.417 194.693 260.822 195.335 262.906C196.993 268.411 197.154 269.106 196.512 269.533C196.244 269.694 191.966 269.8 187.099 269.694C179.292 269.533 178.115 269.426 177.794 268.625C176.511 265.258 172.821 261.356 168.917 259.272C166.777 258.15 166.243 258.096 148.541 258.096H130.358L127.684 259.486C124.475 261.196 122.711 262.853 120.197 266.701C119.128 268.304 118.004 269.587 117.63 269.587C114.314 269.747 99.875 269.48 99.6611 269.319C99.4472 269.052 99.8216 267.609 101.479 262.372C101.854 261.196 102.602 258.791 103.084 257.027C103.619 255.264 104.367 253.019 104.742 252.057C105.169 251.095 105.49 249.866 105.49 249.278C105.49 248.744 105.918 247.996 106.453 247.728C107.041 247.354 121.32 247.194 148.755 247.301L190.201 247.408L191.057 249.813ZM168.275 262.105C172.125 264.082 176.243 269.587 173.837 269.587C173.462 269.587 162.178 269.694 148.808 269.8C135.439 269.961 123.941 269.907 123.299 269.747C121.427 269.319 121.801 268.251 124.957 265.097C129.342 260.662 129.93 260.501 149.343 260.662C165.547 260.769 165.654 260.769 168.275 262.105ZM203.838 274.183C205.229 275.946 205.229 276.588 203.945 278.191L202.929 279.474L149.022 279.634C89.3931 279.794 92.6554 279.955 92.6554 276.427C92.6554 275.519 93.0297 274.29 93.5645 273.755C94.3667 272.847 96.7732 272.793 148.595 272.793H202.769L203.838 274.183Z" fill="#EFB85F"/>
<path d="M113.887 147.575C112.122 147.843 111.052 149.499 112.068 150.301C112.496 150.675 113.459 150.729 114.849 150.408C116.026 150.141 118.807 149.874 120.999 149.874C129.021 149.874 135.76 151.477 143.086 155.164L146.937 157.088L147.097 165.746C147.204 172.373 147.418 174.458 147.899 174.458C149.611 174.458 149.878 173.175 149.878 165.372C149.878 156.501 149.664 156.928 154.691 154.577C159.344 152.385 163.569 151.156 170.04 150.141C175.655 149.286 176.19 149.286 180.094 150.141C183.142 150.782 184.372 150.889 184.8 150.461C185.709 149.553 184.586 148.11 182.447 147.575C179.506 146.774 165.013 147.469 161.911 148.537C155.6 150.729 153.729 151.584 149.343 154.042C148.113 154.737 147.792 154.683 145.065 152.866C143.461 151.798 141.856 150.942 141.535 150.942C141.161 150.942 140.198 150.622 139.343 150.194C135.492 148.217 131.909 147.629 123.673 147.469C119.128 147.362 114.742 147.415 113.887 147.575Z" fill="#EFB85F"/>
<path d="M182.875 153.935C182.126 154.683 182.5 157.89 183.303 158.21C184.64 158.745 185.763 157.355 185.602 155.538C185.495 154.363 185.121 153.828 184.372 153.721C183.73 153.614 183.089 153.721 182.875 153.935Z" fill="#EFB85F"/>
<path d="M110.678 154.523C109.983 155.164 110.304 157.73 111.106 158.424C112.496 159.547 113.512 158.638 113.512 156.287C113.512 154.416 113.352 154.149 112.282 154.149C111.587 154.149 110.838 154.309 110.678 154.523Z" fill="#EFB85F"/>
<path d="M183.195 160.936C182.661 161.15 182.5 165.8 182.5 181.672V202.141L181.163 202.462C180.414 202.676 179.559 202.676 179.291 202.515C178.489 202.034 167.045 203.21 163.515 204.119C159.825 205.081 155.868 206.898 152.873 208.929C150.947 210.211 150.734 210.265 149.557 209.463C147.953 208.448 147.204 208.822 147.204 210.585C147.204 212.028 146.081 212.295 145.065 211.066C143.674 209.409 139.61 207.058 138.112 207.058C136.134 207.058 135.599 207.913 137.096 208.661C138.968 209.677 137.524 210.425 135.118 209.73C133.781 209.356 128.807 209.196 120.999 209.303C109.127 209.463 108.966 209.463 108.806 210.639C108.699 211.387 108.966 211.868 109.608 212.082C110.143 212.242 114.796 212.349 119.93 212.295C131.214 212.189 136.348 212.883 141.642 215.395C146.776 217.8 149.717 217.854 154.103 215.609C159.237 212.99 163.355 212.295 176.083 211.921L187.581 211.601V210.371V209.142L178.222 208.929C169.665 208.768 165.066 209.035 160.092 210.051C158.702 210.318 158.328 210.265 158.542 209.677C158.702 209.249 159.237 208.822 159.825 208.715C160.36 208.608 161.162 208.287 161.59 207.967C163.355 206.524 169.451 205.508 176.724 205.508C182.661 205.455 184.211 205.294 184.853 204.6C185.602 203.851 185.709 201.286 185.602 182.314C185.442 159.707 185.442 159.974 183.195 160.936Z" fill="#EFB85F"/>
<path d="M110.945 161.738C109.982 162.7 110.036 204.012 110.999 204.813C111.319 205.08 115.116 205.455 119.395 205.615C123.673 205.722 128.379 206.149 129.877 206.523C133.246 207.378 134.636 207.004 133.888 205.508C133.192 204.225 128.165 203.317 119.662 202.836L113.78 202.515L113.512 181.939C113.298 164.089 113.138 161.364 112.443 161.203C111.961 161.15 111.319 161.364 110.945 161.738Z" fill="#EFB85F"/>
<path d="M168.649 168.365C166.671 170.022 166.564 171.197 168.328 173.068C169.986 174.885 171.911 174.885 173.355 173.068C174.853 171.144 174.746 169.968 173.035 168.311C171.163 166.655 170.681 166.655 168.649 168.365Z" fill="#EFB85F"/>
<path d="M121.106 168.686C120.037 169.755 120.357 171.572 121.801 172.32C122.978 172.961 123.245 172.908 124.208 172.053C125.491 170.877 125.545 170.022 124.422 168.9C123.459 167.884 122.015 167.777 121.106 168.686Z" fill="#EFB85F"/>
<path d="M99.18 171.892C98.3778 172.694 99.3404 174.458 100.677 174.458C101.694 174.458 102.603 172.747 102.014 171.785C101.587 171.037 99.9822 171.091 99.18 171.892Z" fill="#EFB85F"/>
<path d="M128.059 173.228C128.166 174.457 128.487 174.778 129.984 174.885C132.123 175.099 132.337 173.923 130.358 172.64C128.487 171.411 127.845 171.571 128.059 173.228Z" fill="#EFB85F"/>
<path d="M161.858 172.587C161.644 173.015 161.697 173.763 161.858 174.19C162.125 174.885 162.392 174.939 163.355 174.404C165.708 173.175 165.762 171.785 163.462 171.785C162.713 171.785 162.018 172.16 161.858 172.587Z" fill="#EFB85F"/>
<path d="M154.959 175.206C154.103 175.847 153.996 176.114 154.531 176.649C155.386 177.504 158.167 176.649 158.167 175.526C158.167 174.458 156.242 174.244 154.959 175.206Z" fill="#EFB85F"/>
<path d="M134.369 176.595C134.369 177.13 134.85 177.878 135.439 178.199C137.417 179.268 138.38 177.611 136.669 176.275C135.278 175.259 134.369 175.366 134.369 176.595Z" fill="#EFB85F"/>
<path d="M148.755 177.611C147.739 178.466 147.578 178.787 148.113 179.321C149.129 180.336 151.75 179.268 151.75 177.931C151.75 176.488 150.306 176.328 148.755 177.611Z" fill="#EFB85F"/>
<path d="M140.84 179.375C140.198 181.085 140.733 182.421 142.124 182.795C144.209 183.329 145.332 182.848 145.493 181.352C145.814 178.573 141.803 176.863 140.84 179.375Z" fill="#EFB85F"/>
<path d="M171.323 182.153C170.521 183.062 170.735 184.719 171.644 184.986C172.714 185.36 173.462 183.276 172.714 182.207C172.072 181.405 171.965 181.405 171.323 182.153Z" fill="#EFB85F"/>
<path d="M147.471 183.65C147.311 184.077 147.257 187.765 147.311 191.827C147.471 198.881 147.525 199.309 148.541 199.309C149.557 199.309 149.61 198.934 149.61 191.292C149.61 184.077 149.504 183.276 148.648 183.115C148.167 183.008 147.632 183.276 147.471 183.65Z" fill="#EFB85F"/>
<path d="M197.314 183.329C197.1 183.543 196.94 184.291 196.94 184.986C196.94 186.108 197.154 186.268 198.437 186.108C199.56 186.001 199.881 185.68 199.881 184.612C199.881 183.65 199.56 183.222 198.812 183.115C198.17 183.008 197.528 183.115 197.314 183.329Z" fill="#EFB85F"/>
<path d="M117.164 217.618C116.95 217.832 116.79 218.58 116.79 219.275C116.79 220.397 117.004 220.557 118.287 220.397C119.41 220.29 119.731 219.97 119.731 218.901C119.731 217.939 119.41 217.511 118.662 217.404C118.02 217.297 117.378 217.404 117.164 217.618Z" fill="#EFB85F"/>
<path d="M170.574 188.459C169.291 189.475 168.863 192.254 169.826 193.109C171.697 194.605 174.104 191.239 172.874 188.887C172.232 187.658 171.804 187.551 170.574 188.459Z" fill="#EFB85F"/>
<path d="M162.82 195.086C161.269 196.155 161.269 197.438 162.873 197.438C164.157 197.385 166.457 195.728 166.457 194.819C166.457 193.964 164.21 194.124 162.82 195.086Z" fill="#EFB85F"/>
<path d="M155.761 198.827C154.21 199.683 153.996 200.805 155.387 201.072C156.617 201.339 158.97 199.789 158.97 198.774C158.97 197.812 157.579 197.812 155.761 198.827Z" fill="#EFB85F"/>
<path d="M148.113 203.21C146.83 204.599 146.99 205.455 148.434 205.455C149.557 205.455 152.017 203.531 152.017 202.622C152.017 201.82 148.915 202.301 148.113 203.21Z" fill="#EFB85F"/>
</g>
</g>
<defs>
<clipPath id="clip0_109_11862">
<rect width="297.638" height="419.528" rx="10" fill="white"/>
</clipPath>
<clipPath id="clip1_109_11862">
<rect width="259" height="381" fill="white" transform="translate(19.041 19.4131)"/>
</clipPath>
</defs>
</svg>
