<svg width="298" height="420" viewBox="0 0 298 420" fill="none" xmlns="http://www.w3.org/2000/svg">
<g clip-path="url(#clip0_107_13807)">
<rect width="297.638" height="419.528" rx="10" fill="#032206"/>
<rect x="12" y="12" width="273" height="396" rx="9" stroke="#EFB85F" stroke-width="2"/>
<rect x="19.5" y="19.5" width="258" height="380" rx="6.5" stroke="#EFB85F"/>
<circle cx="76.7197" cy="259.47" r="1" fill="#EFB85F"/>
<circle cx="222.72" cy="204.47" r="1" fill="#EFB85F"/>
<circle cx="211.72" cy="129.47" r="1" fill="#EFB85F"/>
<circle cx="241.72" cy="96.4702" r="1" fill="#EFB85F"/>
<circle cx="125.72" cy="66.4702" r="1" fill="#EFB85F"/>
<circle cx="59.7197" cy="98.4702" r="1" fill="#EFB85F"/>
<circle cx="187.72" cy="97.4702" r="1" fill="#EFB85F"/>
<circle cx="50.7197" cy="187.47" r="1" fill="#EFB85F"/>
<circle cx="50.7197" cy="187.47" r="1" fill="#EFB85F"/>
<circle cx="50.7197" cy="187.47" r="1" fill="#EFB85F"/>
<circle cx="74.7197" cy="323.47" r="1" fill="#EFB85F"/>
<circle cx="164.72" cy="363.47" r="1" fill="#EFB85F"/>
<circle cx="66.7197" cy="376.47" r="1" fill="#EFB85F"/>
<circle cx="114.72" cy="393.47" r="1" fill="#EFB85F"/>
<circle cx="164.72" cy="395.47" r="1" fill="#EFB85F"/>
<circle cx="215.72" cy="105.47" r="1" fill="#EFB85F"/>
<circle cx="162.72" cy="91.4702" r="1" fill="#EFB85F"/>
<circle cx="162.72" cy="91.4702" r="1" fill="#EFB85F"/>
<circle cx="21.7197" cy="312.47" r="1" fill="#EFB85F"/>
<circle cx="141.72" cy="354.47" r="1" fill="#EFB85F"/>
<circle cx="55.7197" cy="307.47" r="1" fill="#EFB85F"/>
<circle cx="88.7197" cy="340.47" r="1" fill="#EFB85F"/>
<circle cx="88.7197" cy="340.47" r="1" fill="#EFB85F"/>
<circle cx="229.72" cy="381.47" r="1" fill="#EFB85F"/>
<circle cx="235.72" cy="337.47" r="1" fill="#EFB85F"/>
<circle cx="235.72" cy="337.47" r="1" fill="#EFB85F"/>
<circle cx="212.72" cy="155.47" r="1" fill="#EFB85F"/>
<circle cx="274.72" cy="186.47" r="1" fill="#EFB85F"/>
<path d="M198.72 343.47C198.72 344.022 198.272 344.47 197.72 344.47C197.167 344.47 196.72 344.022 196.72 343.47C196.72 342.918 197.167 342.47 197.72 342.47C198.272 342.47 198.72 342.918 198.72 343.47Z" fill="#EFB85F"/>
<path d="M229.22 361.47L230.416 363.445L232.72 364.47L230.416 365.495L229.22 367.47L228.024 365.495L225.72 364.47L228.024 363.445L229.22 361.47Z" fill="#EFB85F"/>
<circle cx="251.72" cy="319.47" r="1" fill="#EFB85F"/>
<circle cx="216.72" cy="147.47" r="1" fill="#EFB85F"/>
<circle cx="249.72" cy="180.47" r="1" fill="#EFB85F"/>
<circle cx="249.72" cy="180.47" r="1" fill="#EFB85F"/>
<circle cx="196.72" cy="372.47" r="1" fill="#EFB85F"/>
<circle cx="214.72" cy="266.47" r="1" fill="#EFB85F"/>
<circle cx="80.7197" cy="131.47" r="1" fill="#EFB85F"/>
<circle cx="22.7197" cy="157.47" r="1" fill="#EFB85F"/>
<circle cx="70.7197" cy="82.4702" r="1" fill="#EFB85F"/>
<circle cx="59.7197" cy="156.47" r="1" fill="#EFB85F"/>
<circle cx="40.7197" cy="79.4702" r="1" fill="#EFB85F"/>
<circle cx="74.7197" cy="74.4702" r="1" fill="#EFB85F"/>
<circle cx="38.7197" cy="143.47" r="1" fill="#EFB85F"/>
<circle cx="72.7197" cy="193.47" r="1" fill="#EFB85F"/>
<path d="M63.5269 139.266L67.8018 139.126L63.5269 138.986L64.8677 137.555L63.4362 138.896L63.2964 134.621L63.1565 138.896L61.725 137.555L63.0658 138.986L58.7909 139.126L63.0658 139.266L61.725 140.697L63.1565 139.357L63.2964 143.631L63.4362 139.357L64.8677 140.697L63.5269 139.266Z" fill="#EFB85F"/>
<path d="M33.4906 226.363L37.7655 226.223L33.4906 226.083L34.8314 224.652L33.3999 225.993L33.2601 221.718L33.1202 225.993L31.6888 224.652L33.0295 226.083L28.7546 226.223L33.0295 226.363L31.6888 227.794L33.1202 226.454L33.2601 230.728L33.3999 226.454L34.8314 227.794L33.4906 226.363Z" fill="#EFB85F"/>
<path d="M28.4846 291.436L32.7595 291.296L28.4846 291.156L29.8254 289.725L28.3939 291.066L28.254 286.791L28.1142 291.066L26.6827 289.725L28.0235 291.156L23.7486 291.296L28.0235 291.436L26.6827 292.867L28.1142 291.527L28.254 295.801L28.3939 291.527L29.8254 292.867L28.4846 291.436Z" fill="#EFB85F"/>
<path d="M45.5052 349.501L49.78 349.361L45.5052 349.221L46.8459 347.79L45.4144 349.13L45.2746 344.856L45.1348 349.13L43.7033 347.79L45.044 349.221L40.7691 349.361L45.044 349.501L43.7033 350.932L45.1348 349.592L45.2746 353.866L45.4144 349.592L46.8459 350.932L45.5052 349.501Z" fill="#EFB85F"/>
<path d="M126.603 378.534L130.878 378.394L126.603 378.254L127.944 376.823L126.512 378.163L126.373 373.889L126.233 378.163L124.801 376.823L126.142 378.254L121.867 378.394L126.142 378.534L124.801 379.965L126.233 378.624L126.373 382.899L126.512 378.624L127.944 379.965L126.603 378.534Z" fill="#EFB85F"/>
<path d="M251.754 385.541L256.029 385.402L251.754 385.262L253.095 383.83L251.664 385.171L251.524 380.896L251.384 385.171L249.952 383.83L251.293 385.262L247.018 385.402L251.293 385.541L249.952 386.973L251.384 385.632L251.524 389.907L251.664 385.632L253.095 386.973L251.754 385.541Z" fill="#EFB85F"/>
<path d="M264.77 221.358L269.045 221.218L264.77 221.078L266.111 219.647L264.679 220.987L264.539 216.713L264.4 220.987L262.968 219.647L264.309 221.078L260.034 221.218L264.309 221.358L262.968 222.789L264.4 221.448L264.539 225.723L264.679 221.448L266.111 222.789L264.77 221.358Z" fill="#EFB85F"/>
<path d="M264.77 221.358L269.045 221.218L264.77 221.078L266.111 219.647L264.679 220.987L264.539 216.713L264.4 220.987L262.968 219.647L264.309 221.078L260.034 221.218L264.309 221.358L262.968 222.789L264.4 221.448L264.539 225.723L264.679 221.448L266.111 222.789L264.77 221.358Z" fill="#EFB85F"/>
<path d="M135.614 105.228L139.889 105.088L135.614 104.948L136.955 103.517L135.523 104.858L135.383 100.583L135.244 104.858L133.812 103.517L135.153 104.948L130.878 105.088L135.153 105.228L133.812 106.659L135.244 105.319L135.383 109.593L135.523 105.319L136.955 106.659L135.614 105.228Z" fill="#EFB85F"/>
<path d="M135.614 105.228L139.889 105.088L135.614 104.948L136.955 103.517L135.523 104.858L135.383 100.583L135.244 104.858L133.812 103.517L135.153 104.948L130.878 105.088L135.153 105.228L133.812 106.659L135.244 105.319L135.383 109.593L135.523 105.319L136.955 106.659L135.614 105.228Z" fill="#EFB85F"/>
<path d="M135.614 105.228L139.889 105.088L135.614 104.948L136.955 103.517L135.523 104.858L135.383 100.583L135.244 104.858L133.812 103.517L135.153 104.948L130.878 105.088L135.153 105.228L133.812 106.659L135.244 105.319L135.383 109.593L135.523 105.319L136.955 106.659L135.614 105.228Z" fill="#EFB85F"/>
<path d="M160.644 78.1977L164.919 78.0578L160.644 77.918L161.985 76.4866L160.554 77.8272L160.414 73.5527L160.274 77.8272L158.842 76.4866L160.183 77.918L155.908 78.0578L160.183 78.1977L158.842 79.629L160.274 78.2883L160.414 82.5628L160.554 78.2883L161.985 79.629L160.644 78.1977Z" fill="#EFB85F"/>
<path d="M193.684 334.484L197.959 334.344L193.684 334.205L195.025 332.773L193.593 334.114L193.454 329.839L193.314 334.114L191.882 332.773L193.223 334.205L188.948 334.344L193.223 334.484L191.882 335.916L193.314 334.575L193.454 338.849L193.593 334.575L195.025 335.916L193.684 334.484Z" fill="#EFB85F"/>
<path d="M193.684 334.484L197.959 334.344L193.684 334.205L195.025 332.773L193.593 334.114L193.454 329.839L193.314 334.114L191.882 332.773L193.223 334.205L188.948 334.344L193.223 334.484L191.882 335.916L193.314 334.575L193.454 338.849L193.593 334.575L195.025 335.916L193.684 334.484Z" fill="#EFB85F"/>
<path d="M237.737 272.415L242.012 272.275L237.737 272.135L239.078 270.704L237.647 272.045L237.507 267.77L237.367 272.045L235.935 270.704L237.276 272.135L233.001 272.275L237.276 272.415L235.935 273.846L237.367 272.506L237.507 276.78L237.647 272.506L239.078 273.846L237.737 272.415Z" fill="#EFB85F"/>
<path d="M250.71 134.026C250.749 133.699 250.814 132.924 250.866 132.312C250.918 131.604 251.009 131.155 251.113 131.114C251.204 131.074 251.62 131.291 252.023 131.591C252.439 131.903 252.802 132.121 252.841 132.08C252.867 132.053 252.62 131.618 252.296 131.128C251.88 130.529 251.737 130.23 251.854 130.189C251.945 130.162 252.607 130.067 253.322 129.972C255.609 129.7 255.596 129.55 253.283 129.291C252.478 129.196 251.802 129.074 251.776 129.033C251.737 128.979 251.984 128.584 252.296 128.149C252.607 127.7 252.841 127.305 252.802 127.264C252.763 127.237 252.374 127.469 251.945 127.781C251.503 128.108 251.113 128.312 251.061 128.258C250.996 128.19 250.892 127.373 250.801 126.435C250.567 123.986 250.463 123.999 250.216 126.489C250.125 127.428 250.021 128.244 249.969 128.285C249.93 128.326 249.541 128.108 249.099 127.795C248.67 127.469 248.293 127.237 248.254 127.278C248.228 127.305 248.423 127.673 248.709 128.081C248.995 128.475 249.229 128.883 249.229 128.965C249.229 129.06 248.67 129.183 247.76 129.291C245.434 129.55 245.434 129.7 247.773 129.985C248.657 130.094 249.229 130.23 249.229 130.312C249.229 130.393 248.995 130.802 248.709 131.196C248.098 132.053 248.046 132.271 248.54 131.931C248.748 131.808 249.125 131.536 249.398 131.346C250.021 130.924 250.073 130.992 250.19 132.461C250.359 134.624 250.554 135.196 250.71 134.026Z" fill="#EFB85F"/>
<path d="M163.605 177.074C163.644 176.747 163.709 175.972 163.761 175.359C163.813 174.652 163.904 174.203 164.008 174.162C164.099 174.121 164.515 174.339 164.917 174.638C165.333 174.951 165.697 175.169 165.736 175.128C165.762 175.101 165.515 174.666 165.19 174.176C164.775 173.577 164.632 173.278 164.749 173.237C164.839 173.21 165.502 173.115 166.217 173.02C168.504 172.747 168.491 172.598 166.178 172.339C165.372 172.244 164.697 172.122 164.671 172.081C164.632 172.026 164.878 171.632 165.19 171.197C165.502 170.748 165.736 170.353 165.697 170.312C165.658 170.285 165.268 170.516 164.839 170.829C164.398 171.156 164.008 171.36 163.956 171.305C163.891 171.237 163.787 170.421 163.696 169.482C163.462 167.034 163.358 167.047 163.111 169.537C163.02 170.476 162.916 171.292 162.864 171.333C162.825 171.373 162.435 171.156 161.993 170.843C161.565 170.516 161.188 170.285 161.149 170.326C161.123 170.353 161.318 170.72 161.604 171.129C161.889 171.523 162.123 171.931 162.123 172.013C162.123 172.108 161.565 172.23 160.655 172.339C158.329 172.598 158.329 172.747 160.668 173.033C161.552 173.142 162.123 173.278 162.123 173.36C162.123 173.441 161.889 173.849 161.604 174.244C160.993 175.101 160.941 175.319 161.435 174.979C161.643 174.856 162.019 174.584 162.292 174.394C162.916 173.972 162.968 174.04 163.085 175.509C163.254 177.672 163.449 178.244 163.605 177.074Z" fill="#EFB85F"/>
<path d="M161.602 263.17C161.641 262.844 161.706 262.068 161.758 261.456C161.81 260.749 161.901 260.3 162.005 260.259C162.096 260.218 162.512 260.436 162.915 260.735C163.331 261.048 163.695 261.266 163.734 261.225C163.76 261.198 163.513 260.762 163.188 260.273C162.772 259.674 162.629 259.375 162.746 259.334C162.837 259.307 163.5 259.211 164.215 259.116C166.502 258.844 166.489 258.694 164.176 258.436C163.37 258.341 162.694 258.218 162.668 258.178C162.629 258.123 162.876 257.729 163.188 257.293C163.5 256.844 163.734 256.45 163.695 256.409C163.656 256.382 163.266 256.613 162.837 256.926C162.395 257.252 162.005 257.457 161.953 257.402C161.888 257.334 161.784 256.518 161.693 255.579C161.46 253.13 161.356 253.144 161.109 255.634C161.018 256.572 160.914 257.388 160.862 257.429C160.823 257.47 160.433 257.252 159.991 256.94C159.562 256.613 159.185 256.382 159.146 256.423C159.12 256.45 159.315 256.817 159.601 257.225C159.887 257.62 160.121 258.028 160.121 258.11C160.121 258.205 159.562 258.327 158.652 258.436C156.326 258.694 156.326 258.844 158.665 259.13C159.549 259.239 160.121 259.375 160.121 259.456C160.121 259.538 159.887 259.946 159.601 260.341C158.99 261.198 158.938 261.415 159.432 261.075C159.64 260.953 160.017 260.681 160.29 260.49C160.914 260.069 160.966 260.137 161.083 261.606C161.252 263.769 161.447 264.34 161.602 263.17Z" fill="#EFB85F"/>
<path d="M36.4513 114.003C36.4903 113.677 36.5553 112.901 36.6073 112.289C36.6592 111.582 36.7502 111.133 36.8542 111.092C36.9451 111.051 37.361 111.269 37.7639 111.568C38.1797 111.881 38.5436 112.099 38.5826 112.058C38.6086 112.031 38.3617 111.595 38.0368 111.106C37.6209 110.507 37.478 110.208 37.5949 110.167C37.6859 110.14 38.3487 110.044 39.0634 109.949C41.3506 109.677 41.3377 109.527 39.0244 109.269C38.2187 109.174 37.5429 109.051 37.5169 109.011C37.478 108.956 37.7249 108.562 38.0368 108.126C38.3487 107.677 38.5826 107.283 38.5436 107.242C38.5046 107.215 38.1147 107.446 37.6859 107.759C37.244 108.085 36.8542 108.29 36.8022 108.235C36.7372 108.167 36.6332 107.351 36.5423 106.412C36.3084 103.963 36.2044 103.977 35.9575 106.467C35.8665 107.405 35.7625 108.221 35.7106 108.262C35.6716 108.303 35.2817 108.085 34.8399 107.773C34.411 107.446 34.0341 107.215 33.9951 107.256C33.9691 107.283 34.1641 107.65 34.45 108.058C34.7359 108.453 34.9698 108.861 34.9698 108.943C34.9698 109.038 34.411 109.16 33.5013 109.269C31.1751 109.527 31.1751 109.677 33.5143 109.963C34.398 110.072 34.9698 110.208 34.9698 110.289C34.9698 110.371 34.7359 110.779 34.45 111.174C33.8392 112.031 33.7872 112.248 34.281 111.908C34.489 111.786 34.8658 111.514 35.1387 111.323C35.7625 110.902 35.8145 110.97 35.9315 112.439C36.1004 114.602 36.2954 115.173 36.4513 114.003Z" fill="#EFB85F"/>
<path d="M268.732 306.218C268.771 305.892 268.836 305.116 268.888 304.504C268.94 303.797 269.031 303.348 269.135 303.307C269.226 303.266 269.642 303.484 270.044 303.783C270.46 304.096 270.824 304.314 270.863 304.273C270.889 304.246 270.642 303.81 270.317 303.32C269.902 302.722 269.759 302.423 269.876 302.382C269.966 302.355 270.629 302.259 271.344 302.164C273.631 301.892 273.618 301.742 271.305 301.484C270.499 301.389 269.824 301.266 269.798 301.225C269.759 301.171 270.005 300.776 270.317 300.341C270.629 299.892 270.863 299.498 270.824 299.457C270.785 299.43 270.395 299.661 269.966 299.974C269.525 300.3 269.135 300.504 269.083 300.45C269.018 300.382 268.914 299.566 268.823 298.627C268.589 296.178 268.485 296.192 268.238 298.681C268.147 299.62 268.043 300.436 267.991 300.477C267.952 300.518 267.562 300.3 267.12 299.987C266.692 299.661 266.315 299.43 266.276 299.47C266.25 299.498 266.445 299.865 266.731 300.273C267.016 300.668 267.25 301.076 267.25 301.157C267.25 301.253 266.692 301.375 265.782 301.484C263.456 301.742 263.456 301.892 265.795 302.178C266.679 302.287 267.25 302.423 267.25 302.504C267.25 302.586 267.016 302.994 266.731 303.388C266.12 304.246 266.068 304.463 266.562 304.123C266.77 304.001 267.146 303.729 267.419 303.538C268.043 303.116 268.095 303.184 268.212 304.654C268.381 306.817 268.576 307.388 268.732 306.218Z" fill="#EFB85F"/>
<path d="M54.4731 275.183C54.5121 274.857 54.577 274.081 54.629 273.469C54.681 272.762 54.772 272.313 54.8759 272.272C54.9669 272.231 55.3828 272.449 55.7856 272.748C56.2015 273.061 56.5654 273.279 56.6044 273.238C56.6303 273.211 56.3834 272.775 56.0585 272.286C55.6427 271.687 55.4997 271.388 55.6167 271.347C55.7077 271.32 56.3704 271.225 57.0852 271.129C59.3724 270.857 59.3594 270.708 57.0462 270.449C56.2405 270.354 55.5647 270.232 55.5387 270.191C55.4997 270.136 55.7466 269.742 56.0585 269.306C56.3704 268.858 56.6044 268.463 56.5654 268.422C56.5264 268.395 56.1365 268.626 55.7077 268.939C55.2658 269.266 54.8759 269.47 54.824 269.415C54.759 269.347 54.655 268.531 54.564 267.592C54.3301 265.144 54.2262 265.157 53.9792 267.647C53.8883 268.585 53.7843 269.402 53.7323 269.442C53.6933 269.483 53.3035 269.266 52.8616 268.953C52.4328 268.626 52.0559 268.395 52.0169 268.436C51.9909 268.463 52.1859 268.83 52.4718 269.238C52.7577 269.633 52.9916 270.041 52.9916 270.123C52.9916 270.218 52.4328 270.34 51.5231 270.449C49.1969 270.708 49.1969 270.857 51.5361 271.143C52.4198 271.252 52.9916 271.388 52.9916 271.47C52.9916 271.551 52.7577 271.959 52.4718 272.354C51.861 273.211 51.809 273.428 52.3028 273.088C52.5107 272.966 52.8876 272.694 53.1605 272.503C53.7843 272.082 53.8363 272.15 53.9533 273.619C54.1222 275.782 54.3171 276.353 54.4731 275.183Z" fill="#EFB85F"/>
<path d="M49.467 396.319C49.506 395.993 49.571 395.217 49.623 394.605C49.675 393.898 49.7659 393.449 49.8699 393.408C49.9609 393.367 50.3767 393.585 50.7796 393.884C51.1954 394.197 51.5593 394.415 51.5983 394.374C51.6243 394.347 51.3774 393.911 51.0525 393.421C50.6366 392.823 50.4937 392.524 50.6106 392.483C50.7016 392.456 51.3644 392.36 52.0791 392.265C54.3664 391.993 54.3534 391.843 52.0402 391.585C51.2344 391.49 50.5587 391.367 50.5327 391.326C50.4937 391.272 50.7406 390.878 51.0525 390.442C51.3644 389.993 51.5983 389.599 51.5593 389.558C51.5203 389.531 51.1305 389.762 50.7016 390.075C50.2598 390.401 49.8699 390.605 49.8179 390.551C49.7529 390.483 49.649 389.667 49.558 388.728C49.3241 386.279 49.2201 386.293 48.9732 388.782C48.8822 389.721 48.7783 390.537 48.7263 390.578C48.6873 390.619 48.2974 390.401 47.8556 390.088C47.4267 389.762 47.0498 389.531 47.0109 389.572C46.9849 389.599 47.1798 389.966 47.4657 390.374C47.7516 390.769 47.9855 391.177 47.9855 391.258C47.9855 391.354 47.4267 391.476 46.517 391.585C44.1908 391.843 44.1908 391.993 46.53 392.279C47.4137 392.388 47.9855 392.524 47.9855 392.605C47.9855 392.687 47.7516 393.095 47.4657 393.49C46.8549 394.347 46.8029 394.564 47.2968 394.224C47.5047 394.102 47.8816 393.83 48.1545 393.639C48.7783 393.217 48.8302 393.285 48.9472 394.755C49.1161 396.918 49.3111 397.489 49.467 396.319Z" fill="#EFB85F"/>
<path d="M229.497 361.875L230.695 363.852L233.001 364.878L230.695 365.904L229.497 367.882L228.3 365.904L225.993 364.878L228.3 363.852L229.497 361.875Z" fill="#EFB85F"/>
<path d="M118.363 309.817L119.56 311.794L121.867 312.82L119.56 313.846L118.363 315.824L117.165 313.846L114.859 312.82L117.165 311.794L118.363 309.817Z" fill="#EFB85F"/>
<path d="M118.363 309.817L119.56 311.794L121.867 312.82L119.56 313.846L118.363 315.824L117.165 313.846L114.859 312.82L117.165 311.794L118.363 309.817Z" fill="#EFB85F"/>
<path d="M84.322 285.79L85.5192 287.767L87.826 288.793L85.5192 289.819L84.322 291.797L83.1243 289.819L80.8175 288.793L83.1243 287.767L84.322 285.79Z" fill="#EFB85F"/>
<path d="M170.426 286.791L171.623 288.768L173.93 289.794L171.623 290.82L170.426 292.798L169.228 290.82L166.922 289.794L169.228 288.768L170.426 286.791Z" fill="#EFB85F"/>
<path d="M78.3147 230.729L79.5119 232.705L81.8187 233.732L79.5119 234.758L78.3147 236.735L77.1171 234.758L74.8103 233.732L77.1171 232.705L78.3147 230.729Z" fill="#EFB85F"/>
<path d="M27.253 185.678L28.4502 187.655L30.757 188.682L28.4502 189.708L27.253 191.685L26.0554 189.708L23.7486 188.682L26.0554 187.655L27.253 185.678Z" fill="#EFB85F"/>
<path d="M27.253 86.5669L28.4502 88.5439L30.757 89.5703L28.4502 90.5963L27.253 92.5736L26.0554 90.5963L23.7486 89.5703L26.0554 88.5439L27.253 86.5669Z" fill="#EFB85F"/>
<circle cx="118.72" cy="77.4702" r="1" fill="#EFB85F"/>
<path d="M114.546 112.001C114.585 111.674 114.65 110.899 114.702 110.287C114.754 109.579 114.845 109.13 114.949 109.09C115.039 109.049 115.455 109.266 115.858 109.566C116.274 109.879 116.638 110.096 116.677 110.055C116.703 110.028 116.456 109.593 116.131 109.103C115.715 108.505 115.572 108.205 115.689 108.164C115.78 108.137 116.443 108.042 117.158 107.947C119.445 107.675 119.432 107.525 117.119 107.267C116.313 107.171 115.637 107.049 115.611 107.008C115.572 106.954 115.819 106.559 116.131 106.124C116.443 105.675 116.677 105.28 116.638 105.24C116.599 105.212 116.209 105.444 115.78 105.757C115.338 106.083 114.949 106.287 114.897 106.233C114.832 106.165 114.728 105.348 114.637 104.41C114.403 101.961 114.299 101.975 114.052 104.464C113.961 105.403 113.857 106.219 113.805 106.26C113.766 106.301 113.376 106.083 112.934 105.77C112.505 105.444 112.128 105.212 112.089 105.253C112.063 105.28 112.258 105.648 112.544 106.056C112.83 106.45 113.064 106.858 113.064 106.94C113.064 107.035 112.505 107.158 111.596 107.267C109.269 107.525 109.269 107.675 111.609 107.96C112.492 108.069 113.064 108.205 113.064 108.287C113.064 108.369 112.83 108.777 112.544 109.171C111.934 110.028 111.882 110.246 112.375 109.906C112.583 109.783 112.96 109.511 113.233 109.321C113.857 108.899 113.909 108.967 114.026 110.436C114.195 112.599 114.39 113.171 114.546 112.001Z" fill="#EFB85F"/>
<path d="M105.347 84.5649L106.545 86.5419L108.851 87.5683L106.545 88.5943L105.347 90.5717L104.15 88.5943L101.843 87.5683L104.15 86.5419L105.347 84.5649Z" fill="#EFB85F"/>
<path d="M256.53 70.5493L257.727 72.5263L260.034 73.5527L257.727 74.5787L256.53 76.556L255.332 74.5787L253.026 73.5527L255.332 72.5263L256.53 70.5493Z" fill="#EFB85F"/>
<path d="M165.42 28.502L166.617 30.4789L168.924 31.5053L166.617 32.5313L165.42 34.5087L164.222 32.5313L161.915 31.5053L164.222 30.4789L165.42 28.502Z" fill="#EFB85F"/>
<path d="M238.007 298.805L238.759 302.464L242.012 303.309L238.759 304.155L238.007 307.815L237.255 304.155L234.003 303.309L237.255 302.464L238.007 298.805Z" fill="#EFB85F"/>
<path d="M57.7895 245.745L58.5415 249.404L61.7945 250.25L58.5415 251.096L57.7895 254.755L57.0375 251.096L53.7849 250.25L57.0375 249.404L57.7895 245.745Z" fill="#EFB85F"/>
<path d="M62.7955 339.851L63.5476 343.51L66.8006 344.355L63.5476 345.201L62.7955 348.861L62.0435 345.201L58.7909 344.355L62.0435 343.51L62.7955 339.851Z" fill="#EFB85F"/>
<path d="M261.035 338.85L261.787 342.509L265.04 343.354L261.787 344.2L261.035 347.86L260.283 344.2L257.03 343.354L260.283 342.509L261.035 338.85Z" fill="#EFB85F"/>
<path d="M160.914 327.837L161.666 331.496L164.919 332.342L161.666 333.188L160.914 336.847L160.162 333.188L156.909 332.342L160.162 331.496L160.914 327.837Z" fill="#EFB85F"/>
<path d="M254.027 237.736L254.779 241.396L258.032 242.241L254.779 243.087L254.027 246.746L253.275 243.087L250.022 242.241L253.275 241.396L254.027 237.736Z" fill="#EFB85F"/>
<path d="M254.027 237.736L254.779 241.396L258.032 242.241L254.779 243.087L254.027 246.746L253.275 243.087L250.022 242.241L253.275 241.396L254.027 237.736Z" fill="#EFB85F"/>
<path d="M115.86 343.855L116.612 347.514L119.865 348.36L116.612 349.206L115.86 352.865L115.108 349.206L111.855 348.36L115.108 347.514L115.86 343.855Z" fill="#EFB85F"/>
<circle cx="125.72" cy="66.4702" r="1" fill="#EFB85F"/>
<circle cx="164.72" cy="363.47" r="1" fill="#EFB85F"/>
<circle cx="143.72" cy="317.47" r="1" fill="#EFB85F"/>
<circle cx="161.72" cy="315.47" r="1" fill="#EFB85F"/>
<circle cx="158.72" cy="277.47" r="1" fill="#EFB85F"/>
<circle cx="120.72" cy="331.47" r="1" fill="#EFB85F"/>
<circle cx="162.72" cy="91.4702" r="1" fill="#EFB85F"/>
<circle cx="162.72" cy="91.4702" r="1" fill="#EFB85F"/>
<circle cx="185.72" cy="193.47" r="1" fill="#EFB85F"/>
<circle cx="122.72" cy="193.47" r="1" fill="#EFB85F"/>
<circle cx="150.72" cy="164.47" r="1" fill="#EFB85F"/>
<circle cx="76.7197" cy="41.4702" r="1" fill="#EFB85F"/>
<circle cx="146.72" cy="40.4702" r="1" fill="#EFB85F"/>
<circle cx="177.72" cy="51.4702" r="1" fill="#EFB85F"/>
<circle cx="177.72" cy="51.4702" r="1" fill="#EFB85F"/>
<circle cx="109.72" cy="143.47" r="1" fill="#EFB85F"/>
<circle cx="145.72" cy="124.47" r="1" fill="#EFB85F"/>
<circle cx="81.7197" cy="177.47" r="1" fill="#EFB85F"/>
<circle cx="59.7197" cy="216.47" r="1" fill="#EFB85F"/>
<circle cx="38.7197" cy="328.47" r="1" fill="#EFB85F"/>
<circle cx="188.72" cy="155.47" r="1" fill="#EFB85F"/>
<circle cx="127.72" cy="292.47" r="1" fill="#EFB85F"/>
<circle cx="166.72" cy="214.47" r="1" fill="#EFB85F"/>
<circle cx="155.72" cy="194.47" r="1" fill="#EFB85F"/>
<circle cx="168.72" cy="153.47" r="1" fill="#EFB85F"/>
<circle cx="141.72" cy="354.47" r="1" fill="#EFB85F"/>
<path d="M126.603 378.534L130.878 378.394L126.603 378.254L127.944 376.823L126.512 378.163L126.373 373.889L126.233 378.163L124.801 376.823L126.142 378.254L121.867 378.394L126.142 378.534L124.801 379.965L126.233 378.624L126.373 382.899L126.512 378.624L127.944 379.965L126.603 378.534Z" fill="#EFB85F"/>
<path d="M135.614 105.228L139.889 105.088L135.614 104.948L136.955 103.517L135.523 104.858L135.383 100.583L135.244 104.858L133.812 103.517L135.153 104.948L130.878 105.088L135.153 105.228L133.812 106.659L135.244 105.319L135.383 109.593L135.523 105.319L136.955 106.659L135.614 105.228Z" fill="#EFB85F"/>
<path d="M135.614 105.228L139.889 105.088L135.614 104.948L136.955 103.517L135.523 104.858L135.383 100.583L135.244 104.858L133.812 103.517L135.153 104.948L130.878 105.088L135.153 105.228L133.812 106.659L135.244 105.319L135.383 109.593L135.523 105.319L136.955 106.659L135.614 105.228Z" fill="#EFB85F"/>
<path d="M135.614 105.228L139.889 105.088L135.614 104.948L136.955 103.517L135.523 104.858L135.383 100.583L135.244 104.858L133.812 103.517L135.153 104.948L130.878 105.088L135.153 105.228L133.812 106.659L135.244 105.319L135.383 109.593L135.523 105.319L136.955 106.659L135.614 105.228Z" fill="#EFB85F"/>
<path d="M160.644 78.1977L164.919 78.0578L160.644 77.918L161.985 76.4866L160.554 77.8272L160.414 73.5527L160.274 77.8272L158.842 76.4866L160.183 77.918L155.908 78.0578L160.183 78.1977L158.842 79.629L160.274 78.2883L160.414 82.5628L160.554 78.2883L161.985 79.629L160.644 78.1977Z" fill="#EFB85F"/>
<path d="M160.914 327.837L161.666 331.496L164.919 332.342L161.666 333.188L160.914 336.847L160.162 333.188L156.909 332.342L160.162 331.496L160.914 327.837Z" fill="#EFB85F"/>
<path d="M148.9 290.795L149.652 294.455L152.905 295.3L149.652 296.146L148.9 299.805L148.148 296.146L144.895 295.3L148.148 294.455L148.9 290.795Z" fill="#EFB85F"/>
<path d="M121.867 213.709L122.619 217.369L125.872 218.214L122.619 219.06L121.867 222.72L121.115 219.06L117.862 218.214L121.115 217.369L121.867 213.709Z" fill="#EFB85F"/>
<path d="M146.897 138.625L147.649 142.285L150.902 143.13L147.649 143.976L146.897 147.636L146.145 143.976L142.893 143.13L146.145 142.285L146.897 138.625Z" fill="#EFB85F"/>
<path d="M196.958 163.653L197.71 167.313L200.963 168.158L197.71 169.004L196.958 172.663L196.206 169.004L192.953 168.158L196.206 167.313L196.958 163.653Z" fill="#EFB85F"/>
<path d="M115.86 343.855L116.612 347.514L119.865 348.36L116.612 349.206L115.86 352.865L115.108 349.206L111.855 348.36L115.108 347.514L115.86 343.855Z" fill="#EFB85F"/>
<circle cx="41.7197" cy="29.4702" r="1" fill="#EFB85F"/>
<path d="M28.2542 36.5112L29.4514 38.4882L31.7583 39.5146L29.4514 40.5406L28.2542 42.518L27.0566 40.5406L24.7498 39.5146L27.0566 38.4882L28.2542 36.5112Z" fill="#EFB85F"/>
<path d="M64.5281 89.2099L68.803 89.07L64.5281 88.9302L65.8689 87.4988L64.4374 88.8394L64.2976 84.5649L64.1577 88.8394L62.7262 87.4988L64.067 88.9302L59.7921 89.07L64.067 89.2099L62.7262 90.6412L64.1577 89.3005L64.2976 93.575L64.4374 89.3005L65.8689 90.6412L64.5281 89.2099Z" fill="#EFB85F"/>
<path d="M136.615 182.314L140.89 182.174L136.615 182.034L137.956 180.603L136.524 181.943L136.385 177.669L136.245 181.943L134.813 180.603L136.154 182.034L131.879 182.174L136.154 182.314L134.813 183.745L136.245 182.405L136.385 186.679L136.524 182.405L137.956 183.745L136.615 182.314Z" fill="#EFB85F"/>
<path d="M145.626 221.358L149.901 221.218L145.626 221.078L146.967 219.647L145.535 220.987L145.396 216.713L145.256 220.987L143.824 219.647L145.165 221.078L140.89 221.218L145.165 221.358L143.824 222.789L145.256 221.448L145.396 225.723L145.535 221.448L146.967 222.789L145.626 221.358Z" fill="#EFB85F"/>
<path d="M139.619 272.415L143.894 272.275L139.619 272.135L140.96 270.704L139.528 272.045L139.388 267.77L139.248 272.045L137.817 270.704L139.158 272.135L134.883 272.275L139.158 272.415L137.817 273.846L139.248 272.506L139.388 276.78L139.528 272.506L140.96 273.846L139.619 272.415Z" fill="#EFB85F"/>
<circle cx="39.7197" cy="93.4702" r="1" fill="#EFB85F"/>
<circle cx="60.7197" cy="106.47" r="1" fill="#EFB85F"/>
<circle cx="231.72" cy="24.4702" r="1" fill="#EFB85F"/>
<circle cx="265.72" cy="33.4702" r="1" fill="#EFB85F"/>
<circle cx="265.72" cy="33.4702" r="1" fill="#EFB85F"/>
<circle cx="267.72" cy="34.4702" r="1" fill="#EFB85F"/>
<path d="M267.774 92.2133L272.049 92.0734L267.774 91.9336L269.114 90.5022L267.683 91.8429L267.543 87.5684L267.403 91.8429L265.972 90.5022L267.313 91.9336L263.038 92.0734L267.313 92.2133L265.972 93.6446L267.403 92.3039L267.543 96.5784L267.683 92.3039L269.114 93.6446L267.774 92.2133Z" fill="#EFB85F"/>
<path d="M267.774 92.2133L272.049 92.0734L267.774 91.9336L269.114 90.5022L267.683 91.8429L267.543 87.5684L267.403 91.8429L265.972 90.5022L267.313 91.9336L263.038 92.0734L267.313 92.2133L265.972 93.6446L267.403 92.3039L267.543 96.5784L267.683 92.3039L269.114 93.6446L267.774 92.2133Z" fill="#EFB85F"/>
<path d="M177.434 124.61L178.632 126.587L180.938 127.613L178.632 128.639L177.434 130.617L176.237 128.639L173.93 127.613L176.237 126.587L177.434 124.61Z" fill="#EFB85F"/>
<g clip-path="url(#clip1_107_13807)">
<path d="M52.3125 62.0049C52.2767 62.0622 52.1872 62.0765 52.0439 62.0479C51.9079 62.012 51.7467 61.9941 51.5605 61.9941C51.3743 61.9941 51.1094 62.0335 50.7656 62.1123C50.429 62.1839 49.8955 62.2985 49.165 62.4561C48.4346 62.6208 47.7686 62.7031 47.167 62.7031C45.8063 62.7031 44.485 62.3844 43.2031 61.7471C41.9284 61.1025 40.9079 60.193 40.1416 59.0186C39.3753 57.8369 38.9922 56.4691 38.9922 54.915C38.9922 53.361 39.3753 51.9538 40.1416 50.6934C41.2588 48.8457 42.9417 47.6426 45.1904 47.084C45.9066 46.9049 46.6227 46.8154 47.3389 46.8154C48.32 46.8154 49.4837 46.9801 50.8301 47.3096C51.2383 47.4098 51.582 47.5137 51.8613 47.6211C52.1478 47.7285 52.3232 47.7822 52.3877 47.7822L52.71 47.6963H53.043C53.1289 47.6963 53.1719 47.7572 53.1719 47.8789V51.2197C53.1719 51.2913 53.1074 51.3271 52.9785 51.3271C52.8496 51.3271 52.7744 51.3128 52.7529 51.2842C52.7314 51.2484 52.71 51.209 52.6885 51.166C52.667 51.1159 52.6419 51.0658 52.6133 51.0156C52.5918 50.9655 52.5667 50.9189 52.5381 50.876C52.5166 50.833 52.5023 50.8008 52.4951 50.7793C51.4209 48.6237 49.7917 47.5459 47.6074 47.5459C45.638 47.5459 44.0983 48.1725 42.9883 49.4258C41.8783 50.679 41.3232 52.3405 41.3232 54.4102C41.3232 56.4727 41.932 58.2451 43.1494 59.7275C44.374 61.21 46.0355 61.9512 48.1338 61.9512C49.2796 61.9512 50.3216 61.611 51.2598 60.9307C52.2051 60.2503 52.9463 59.416 53.4834 58.4277C53.4977 58.3848 53.5407 58.3633 53.6123 58.3633H53.752C53.8236 58.3633 53.8594 58.4062 53.8594 58.4922C53.8594 58.5781 53.8379 58.6605 53.7949 58.7393L52.3125 62.0049ZM55.4922 57.5898C55.4922 56.179 55.9899 54.9688 56.9854 53.959C57.988 52.9421 59.1875 52.4336 60.584 52.4336C61.9805 52.4336 63.1943 52.9277 64.2256 53.916C65.2568 54.8971 65.7725 56.111 65.7725 57.5576C65.7725 59.0042 65.2819 60.2253 64.3008 61.2207C63.3268 62.209 62.1022 62.7031 60.627 62.7031C59.1517 62.7031 57.9271 62.2018 56.9531 61.1992C55.9792 60.1966 55.4922 58.9935 55.4922 57.5898ZM58.167 60.3506C58.8688 61.5322 59.8249 62.123 61.0352 62.123C61.9733 62.123 62.6895 61.7471 63.1836 60.9951C63.6849 60.2432 63.9355 59.3193 63.9355 58.2236C63.9355 57.1279 63.5846 56.0036 62.8828 54.8506C62.1882 53.6976 61.25 53.1211 60.0684 53.1211C59.2018 53.1211 58.5179 53.4971 58.0166 54.249C57.5225 54.9938 57.2754 55.9427 57.2754 57.0957C57.2754 58.2415 57.5726 59.3265 58.167 60.3506ZM75.2256 59.0293L75.2041 56.7627C75.2041 55.8389 75.1253 55.1908 74.9678 54.8184C74.8102 54.446 74.6097 54.1667 74.3662 53.9805C74.1227 53.7871 73.7933 53.6904 73.3779 53.6904C72.9697 53.6904 72.0996 54.0127 70.7676 54.6572C70.5885 54.7646 70.4954 54.8649 70.4883 54.958V60.7373C70.4883 61.4606 70.875 61.876 71.6484 61.9834C71.985 62.0335 72.1533 62.1159 72.1533 62.2305C72.1533 62.3379 72.1175 62.3988 72.0459 62.4131H67.2549C67.1833 62.3988 67.1475 62.3486 67.1475 62.2627C67.1475 62.1266 67.3158 62.0335 67.6523 61.9834C68.4258 61.876 68.8125 61.4606 68.8125 60.7373V54.5713C68.8125 54.2705 68.6478 54.0628 68.3184 53.9482C68.1751 53.8981 68.0212 53.8587 67.8564 53.8301C67.6917 53.7943 67.5592 53.762 67.459 53.7334C67.3659 53.7048 67.305 53.6797 67.2764 53.6582C67.2549 53.6296 67.2441 53.5758 67.2441 53.4971C67.2441 53.4111 67.2979 53.3395 67.4053 53.2822L70.1445 51.9932C70.2305 51.9502 70.2842 51.9287 70.3057 51.9287C70.4274 51.9287 70.4883 52.0146 70.4883 52.1865V53.8623C70.5098 53.9339 70.5384 53.9697 70.5742 53.9697C70.6172 53.9697 70.7712 53.9053 71.0361 53.7764C71.652 53.4684 72.2715 53.1712 72.8945 52.8848C73.5176 52.5983 74.0332 52.4551 74.4414 52.4551C76.0957 52.4551 76.9229 53.9626 76.9229 56.9775L76.8262 60.1143V60.7373C76.8262 61.2959 77.1055 61.6611 77.6641 61.833C77.9004 61.9118 78.126 61.9691 78.3408 62.0049C78.5628 62.0335 78.7061 62.0622 78.7705 62.0908C78.8421 62.1195 78.8779 62.1768 78.8779 62.2627C78.8779 62.3486 78.8421 62.3988 78.7705 62.4131H73.5928C73.5212 62.3988 73.4854 62.3486 73.4854 62.2627C73.4854 62.1266 73.6536 62.0335 73.9902 61.9834C74.7565 61.876 75.1396 61.432 75.1396 60.6514C75.1969 60.2933 75.2256 59.7526 75.2256 59.0293ZM85.0547 55.0654C85.0547 55.223 84.9938 55.3018 84.8721 55.3018C84.7575 55.3018 84.668 55.2158 84.6035 55.0439C84.4316 54.5713 84.1738 54.1523 83.8301 53.7871C83.4935 53.4219 83.0745 53.2393 82.5732 53.2393C81.9144 53.2393 81.4704 53.5687 81.2412 54.2275C81.1696 54.4495 81.1338 54.6787 81.1338 54.915C81.1338 55.1514 81.2842 55.4163 81.585 55.71C81.8857 55.9964 82.3799 56.3402 83.0674 56.7412C83.7549 57.1423 84.2562 57.4824 84.5713 57.7617C85.2874 58.3991 85.6455 59.1367 85.6455 59.9746C85.6455 60.8125 85.3376 61.4785 84.7217 61.9727C84.1058 62.4596 83.3896 62.7031 82.5732 62.7031C82.1364 62.7031 81.7389 62.6423 81.3809 62.5205C81.0299 62.4059 80.8258 62.3486 80.7686 62.3486C80.7184 62.3486 80.6325 62.4059 80.5107 62.5205C80.3962 62.6423 80.3031 62.7031 80.2314 62.7031H80.0488C80.0059 62.7031 79.9521 62.3164 79.8877 61.543C79.8232 60.7695 79.791 60.3112 79.791 60.168C79.791 60.0247 79.8018 59.946 79.8232 59.9316C79.8519 59.9173 79.8949 59.9102 79.9521 59.9102C80.0094 59.9102 80.056 59.9281 80.0918 59.9639C80.1348 59.9997 80.1706 60.0462 80.1992 60.1035C80.2279 60.1536 80.2493 60.2074 80.2637 60.2646C80.2852 60.3219 80.3317 60.4294 80.4033 60.5869C80.8903 61.6253 81.6423 62.1445 82.6592 62.1445C83.1104 62.1445 83.472 61.9798 83.7441 61.6504C84.0163 61.3138 84.1523 60.9414 84.1523 60.5332C84.1523 60.125 84.0449 59.7812 83.8301 59.502C83.6152 59.2227 83.3467 58.9684 83.0244 58.7393C82.7093 58.5101 82.3656 58.2881 81.9932 58.0732C80.5465 57.2282 79.8232 56.2936 79.8232 55.2695C79.8232 54.5033 80.1527 53.8444 80.8115 53.293C81.4704 52.7344 82.1471 52.4551 82.8418 52.4551C83.5365 52.4551 84.0485 52.5303 84.3779 52.6807C84.7145 52.8311 84.9115 52.96 84.9688 53.0674C85.026 53.1676 85.0547 53.5042 85.0547 54.0771V55.0654ZM89.8242 54.1523C89.7812 54.1523 89.7598 54.1846 89.7598 54.249V60.1787C89.7598 60.6084 89.8529 60.945 90.0391 61.1885C90.2324 61.432 90.4759 61.5537 90.7695 61.5537C91.0632 61.5537 91.3174 61.5072 91.5322 61.4141C91.7542 61.3138 91.944 61.2064 92.1016 61.0918C92.2663 60.9772 92.4131 60.8734 92.542 60.7803C92.6709 60.68 92.7855 60.6299 92.8857 60.6299C92.986 60.6299 93.0361 60.6549 93.0361 60.7051C93.0361 60.877 93.0182 60.988 92.9824 61.0381C92.123 62.1481 91.2923 62.7031 90.4902 62.7031C89.6953 62.7031 89.0938 62.4525 88.6855 61.9512C88.2845 61.4427 88.084 60.8376 88.084 60.1357V54.1523H87.2783C87.0778 54.1523 86.9704 54.0879 86.9561 53.959C86.9489 53.8301 86.9704 53.7477 87.0205 53.7119C87.4001 53.4684 87.9229 53.0316 88.5889 52.4014C88.6605 52.3226 88.7572 52.2044 88.8789 52.0469C89.0007 51.8893 89.1761 51.6745 89.4053 51.4023C89.6416 51.1302 89.8206 50.9941 89.9424 50.9941C90.0641 50.9941 90.125 51.0443 90.125 51.1445C90.125 51.1589 90.0033 51.6279 89.7598 52.5518C89.7598 52.6807 89.8171 52.7487 89.9316 52.7559H92.6709C92.986 52.7559 93.1436 53.1999 93.1436 54.0879C93.1436 54.1309 93.1149 54.1523 93.0576 54.1523H89.8242ZM95.9043 56.752C95.7826 56.752 95.7217 57.0133 95.7217 57.5361C95.7217 58.6462 96.0511 59.5771 96.71 60.3291C97.3688 61.0811 98.1852 61.457 99.1592 61.457C100.14 61.457 101.082 61.0345 101.984 60.1895C101.999 60.1751 102.017 60.168 102.038 60.168H102.092C102.135 60.168 102.174 60.2038 102.21 60.2754C102.253 60.3398 102.292 60.3828 102.328 60.4043C101.497 61.4141 100.52 62.1123 99.3955 62.499C99.0088 62.6351 98.5719 62.7031 98.085 62.7031C97.598 62.7031 97.1038 62.5706 96.6025 62.3057C96.1012 62.0335 95.6715 61.679 95.3135 61.2422C94.5544 60.3327 94.1748 59.2012 94.1748 57.8477C94.1748 56.487 94.5866 55.248 95.4102 54.1309C96.2409 53.0137 97.3796 52.4551 98.8262 52.4551C99.8646 52.4551 100.713 52.9206 101.372 53.8516C102.031 54.7754 102.36 55.5882 102.36 56.29C102.36 56.598 102.285 56.752 102.135 56.752H95.9043ZM96.0225 55.7207C96.0225 55.8568 96.0869 55.9248 96.2158 55.9248H100.266C100.452 55.9248 100.545 55.8138 100.545 55.5918C100.545 55.0762 100.312 54.5498 99.8467 54.0127C99.3883 53.4684 98.8835 53.1963 98.332 53.1963C97.7949 53.1963 97.3044 53.4398 96.8604 53.9268C96.4235 54.4137 96.1442 54.9688 96.0225 55.5918V55.7207ZM108.129 62.0049C108.465 62.0479 108.634 62.1338 108.634 62.2627C108.634 62.3486 108.598 62.3988 108.526 62.4131H103.735C103.664 62.3988 103.628 62.3486 103.628 62.2627C103.628 62.1338 103.796 62.0479 104.133 62.0049C104.906 61.8903 105.293 61.4821 105.293 60.7803V47.3848C105.293 47.084 105.128 46.8763 104.799 46.7617C104.656 46.7116 104.502 46.6722 104.337 46.6436C104.172 46.6077 104.04 46.5755 103.939 46.5469C103.846 46.5182 103.785 46.4932 103.757 46.4717C103.735 46.443 103.725 46.3893 103.725 46.3105C103.725 46.2246 103.778 46.153 103.886 46.0957L106.625 44.8066C106.711 44.7637 106.765 44.7422 106.786 44.7422C106.908 44.7422 106.969 44.8281 106.969 45V60.7803C106.969 61.4821 107.355 61.8903 108.129 62.0049ZM113.736 62.0049C114.073 62.0479 114.241 62.1338 114.241 62.2627C114.241 62.3486 114.205 62.3988 114.134 62.4131H109.343C109.271 62.3988 109.235 62.3486 109.235 62.2627C109.235 62.1338 109.404 62.0479 109.74 62.0049C110.514 61.8903 110.9 61.4821 110.9 60.7803V47.3848C110.9 47.084 110.736 46.8763 110.406 46.7617C110.263 46.7116 110.109 46.6722 109.944 46.6436C109.78 46.6077 109.647 46.5755 109.547 46.5469C109.454 46.5182 109.393 46.4932 109.364 46.4717C109.343 46.443 109.332 46.3893 109.332 46.3105C109.332 46.2246 109.386 46.153 109.493 46.0957L112.232 44.8066C112.318 44.7637 112.372 44.7422 112.394 44.7422C112.515 44.7422 112.576 44.8281 112.576 45V60.7803C112.576 61.4821 112.963 61.8903 113.736 62.0049ZM122.019 60.6406C122.019 60.8268 122.104 60.9772 122.276 61.0918C122.455 61.1992 122.66 61.2529 122.889 61.2529C123.118 61.2529 123.308 61.1956 123.458 61.0811C123.616 60.9593 123.723 60.8984 123.78 60.8984C123.838 60.8984 123.866 60.9772 123.866 61.1348C123.866 61.2852 123.795 61.4141 123.651 61.5215C122.577 62.3092 121.85 62.7031 121.471 62.7031C121.012 62.7031 120.64 62.2269 120.354 61.2744C120.332 61.2028 120.314 61.1706 120.3 61.1777C119.412 61.8438 118.853 62.2448 118.624 62.3809C118.037 62.7174 117.446 62.7712 116.852 62.542C116.264 62.3128 115.838 61.9333 115.573 61.4033C115.444 61.1312 115.38 60.8411 115.38 60.5332C115.38 59.9245 115.605 59.4411 116.057 59.083C116.508 58.7249 117.367 58.3812 118.635 58.0518C119.064 57.9372 119.448 57.7904 119.784 57.6113C120.121 57.4323 120.296 57.3177 120.311 57.2676C120.332 57.2174 120.343 57.1709 120.343 57.1279V55.0654C120.343 54.2562 120.028 53.6868 119.397 53.3574C119.19 53.25 118.939 53.1963 118.646 53.1963C118.359 53.1963 118.065 53.3109 117.765 53.54C117.471 53.7692 117.324 54.0951 117.324 54.5176L117.378 54.9365C117.335 55.0225 117.077 55.1657 116.604 55.3662C116.132 55.5667 115.86 55.6742 115.788 55.6885C115.674 55.6885 115.616 55.5524 115.616 55.2803C115.616 55.001 115.699 54.693 115.863 54.3564C116.028 54.0199 116.261 53.7119 116.562 53.4326C117.263 52.7809 118.065 52.4551 118.968 52.4551C119.87 52.4551 120.604 52.7057 121.17 53.207C121.736 53.7012 122.019 54.292 122.019 54.9795V60.6406ZM117.066 60.3291C117.066 60.6729 117.199 60.9736 117.464 61.2314C117.729 61.4821 118.03 61.6074 118.366 61.6074C118.71 61.6074 119.125 61.4642 119.612 61.1777C120.099 60.8841 120.343 60.5833 120.343 60.2754V58.0947C120.343 58.016 120.325 57.9766 120.289 57.9766C120.253 57.9766 120.228 57.9801 120.214 57.9873L117.722 59.1475C117.464 59.3337 117.288 59.4912 117.195 59.6201C117.109 59.749 117.066 59.9854 117.066 60.3291ZM127.508 54.1523C127.465 54.1523 127.443 54.1846 127.443 54.249V60.1787C127.443 60.6084 127.536 60.945 127.723 61.1885C127.916 61.432 128.16 61.5537 128.453 61.5537C128.747 61.5537 129.001 61.5072 129.216 61.4141C129.438 61.3138 129.628 61.2064 129.785 61.0918C129.95 60.9772 130.097 60.8734 130.226 60.7803C130.354 60.68 130.469 60.6299 130.569 60.6299C130.67 60.6299 130.72 60.6549 130.72 60.7051C130.72 60.877 130.702 60.988 130.666 61.0381C129.807 62.1481 128.976 62.7031 128.174 62.7031C127.379 62.7031 126.777 62.4525 126.369 61.9512C125.968 61.4427 125.768 60.8376 125.768 60.1357V54.1523H124.962C124.761 54.1523 124.654 54.0879 124.64 53.959C124.632 53.8301 124.654 53.7477 124.704 53.7119C125.084 53.4684 125.606 53.0316 126.272 52.4014C126.344 52.3226 126.441 52.2044 126.562 52.0469C126.684 51.8893 126.86 51.6745 127.089 51.4023C127.325 51.1302 127.504 50.9941 127.626 50.9941C127.748 50.9941 127.809 51.0443 127.809 51.1445C127.809 51.1589 127.687 51.6279 127.443 52.5518C127.443 52.6807 127.501 52.7487 127.615 52.7559H130.354C130.67 52.7559 130.827 53.1999 130.827 54.0879C130.827 54.1309 130.799 54.1523 130.741 54.1523H127.508ZM131.858 62.4131C131.787 62.3988 131.751 62.3486 131.751 62.2627C131.751 62.1338 131.919 62.0479 132.256 62.0049C133.029 61.8903 133.416 61.4821 133.416 60.7803V55.0977C133.416 54.7969 133.251 54.5892 132.922 54.4746C132.779 54.4245 132.625 54.3851 132.46 54.3564C132.295 54.3206 132.163 54.2884 132.062 54.2598C131.969 54.2311 131.909 54.2061 131.88 54.1846C131.858 54.1559 131.848 54.1022 131.848 54.0234C131.848 53.9375 131.901 53.8659 132.009 53.8086L134.748 52.5195C134.834 52.4766 134.888 52.4551 134.909 52.4551C135.031 52.4551 135.092 52.541 135.092 52.7129V60.7803C135.092 61.4821 135.479 61.8903 136.252 62.0049C136.589 62.0479 136.757 62.123 136.757 62.2305C136.757 62.3379 136.721 62.3988 136.649 62.4131H131.858ZM134.093 49.4365C133.799 49.4365 133.538 49.3434 133.309 49.1572C133.087 48.971 132.976 48.7132 132.976 48.3838C132.976 48.0472 133.083 47.7822 133.298 47.5889C133.513 47.3955 133.767 47.2988 134.061 47.2988C134.361 47.2988 134.612 47.4134 134.812 47.6426C135.02 47.8717 135.124 48.1188 135.124 48.3838C135.124 48.6488 135.027 48.8923 134.834 49.1143C134.641 49.3291 134.394 49.4365 134.093 49.4365ZM138.1 57.5898C138.1 56.179 138.597 54.9688 139.593 53.959C140.595 52.9421 141.795 52.4336 143.191 52.4336C144.588 52.4336 145.802 52.9277 146.833 53.916C147.864 54.8971 148.38 56.111 148.38 57.5576C148.38 59.0042 147.889 60.2253 146.908 61.2207C145.934 62.209 144.71 62.7031 143.234 62.7031C141.759 62.7031 140.535 62.2018 139.561 61.1992C138.587 60.1966 138.1 58.9935 138.1 57.5898ZM140.774 60.3506C141.476 61.5322 142.432 62.123 143.643 62.123C144.581 62.123 145.297 61.7471 145.791 60.9951C146.292 60.2432 146.543 59.3193 146.543 58.2236C146.543 57.1279 146.192 56.0036 145.49 54.8506C144.796 53.6976 143.857 53.1211 142.676 53.1211C141.809 53.1211 141.125 53.4971 140.624 54.249C140.13 54.9938 139.883 55.9427 139.883 57.0957C139.883 58.2415 140.18 59.3265 140.774 60.3506ZM157.833 59.0293L157.812 56.7627C157.812 55.8389 157.733 55.1908 157.575 54.8184C157.418 54.446 157.217 54.1667 156.974 53.9805C156.73 53.7871 156.401 53.6904 155.985 53.6904C155.577 53.6904 154.707 54.0127 153.375 54.6572C153.196 54.7646 153.103 54.8649 153.096 54.958V60.7373C153.096 61.4606 153.482 61.876 154.256 61.9834C154.592 62.0335 154.761 62.1159 154.761 62.2305C154.761 62.3379 154.725 62.3988 154.653 62.4131H149.862C149.791 62.3988 149.755 62.3486 149.755 62.2627C149.755 62.1266 149.923 62.0335 150.26 61.9834C151.033 61.876 151.42 61.4606 151.42 60.7373V54.5713C151.42 54.2705 151.255 54.0628 150.926 53.9482C150.783 53.8981 150.629 53.8587 150.464 53.8301C150.299 53.7943 150.167 53.762 150.066 53.7334C149.973 53.7048 149.912 53.6797 149.884 53.6582C149.862 53.6296 149.852 53.5758 149.852 53.4971C149.852 53.4111 149.905 53.3395 150.013 53.2822L152.752 51.9932C152.838 51.9502 152.892 51.9287 152.913 51.9287C153.035 51.9287 153.096 52.0146 153.096 52.1865V53.8623C153.117 53.9339 153.146 53.9697 153.182 53.9697C153.225 53.9697 153.379 53.9053 153.644 53.7764C154.259 53.4684 154.879 53.1712 155.502 52.8848C156.125 52.5983 156.641 52.4551 157.049 52.4551C158.703 52.4551 159.53 53.9626 159.53 56.9775L159.434 60.1143V60.7373C159.434 61.2959 159.713 61.6611 160.271 61.833C160.508 61.9118 160.733 61.9691 160.948 62.0049C161.17 62.0335 161.313 62.0622 161.378 62.0908C161.45 62.1195 161.485 62.1768 161.485 62.2627C161.485 62.3486 161.45 62.3988 161.378 62.4131H156.2C156.129 62.3988 156.093 62.3486 156.093 62.2627C156.093 62.1266 156.261 62.0335 156.598 61.9834C157.364 61.876 157.747 61.432 157.747 60.6514C157.804 60.2933 157.833 59.7526 157.833 59.0293ZM174.988 52.9062C175.303 53.0137 175.497 53.0674 175.568 53.0674C175.64 53.0674 175.683 53.0674 175.697 53.0674C175.719 53.0602 175.744 53.0137 175.772 52.9277V47.3848C175.772 47.084 175.608 46.8763 175.278 46.7617C175.135 46.7116 174.981 46.6722 174.816 46.6436C174.652 46.6077 174.519 46.5755 174.419 46.5469C174.326 46.5182 174.265 46.4932 174.236 46.4717C174.215 46.443 174.204 46.3893 174.204 46.3105C174.204 46.2246 174.258 46.153 174.365 46.0957L177.104 44.8066C177.19 44.7637 177.244 44.7422 177.266 44.7422C177.387 44.7422 177.448 44.8281 177.448 45V60.2969C177.484 60.612 177.574 60.8376 177.717 60.9736C177.86 61.1097 178.093 61.1777 178.415 61.1777L179.038 61.1348C179.081 61.1348 179.103 61.1777 179.103 61.2637C179.103 61.3424 179.049 61.4069 178.941 61.457L176.084 62.6387C175.998 62.6816 175.923 62.7031 175.858 62.7031C175.801 62.7031 175.772 62.6136 175.772 62.4346V61.457C175.772 61.3854 175.755 61.3496 175.719 61.3496C175.669 61.3496 175.371 61.5107 174.827 61.833C173.159 62.8213 171.751 62.9681 170.605 62.2734C169.689 61.7148 169.069 60.8304 168.747 59.6201C168.597 59.0544 168.521 58.4564 168.521 57.8262C168.521 57.1888 168.65 56.5586 168.908 55.9355C169.173 55.3053 169.535 54.7539 169.993 54.2812C171.003 53.25 172.22 52.7344 173.646 52.7344C174.226 52.7344 174.673 52.7917 174.988 52.9062ZM170.144 57.5146C170.144 58.596 170.444 59.5449 171.046 60.3613C171.647 61.1706 172.485 61.5752 173.56 61.5752C174.032 61.5752 174.519 61.4606 175.021 61.2314C175.522 60.9951 175.772 60.8161 175.772 60.6943V55.1514C175.772 55.0153 175.679 54.8542 175.493 54.668C174.92 53.8802 174.158 53.4863 173.205 53.4863C172.26 53.4863 171.511 53.8874 170.96 54.6895C170.416 55.4844 170.144 56.4261 170.144 57.5146ZM181.799 56.752C181.677 56.752 181.616 57.0133 181.616 57.5361C181.616 58.6462 181.946 59.5771 182.604 60.3291C183.263 61.0811 184.08 61.457 185.054 61.457C186.035 61.457 186.977 61.0345 187.879 60.1895C187.893 60.1751 187.911 60.168 187.933 60.168H187.986C188.029 60.168 188.069 60.2038 188.104 60.2754C188.147 60.3398 188.187 60.3828 188.223 60.4043C187.392 61.4141 186.414 62.1123 185.29 62.499C184.903 62.6351 184.466 62.7031 183.979 62.7031C183.493 62.7031 182.998 62.5706 182.497 62.3057C181.996 62.0335 181.566 61.679 181.208 61.2422C180.449 60.3327 180.069 59.2012 180.069 57.8477C180.069 56.487 180.481 55.248 181.305 54.1309C182.135 53.0137 183.274 52.4551 184.721 52.4551C185.759 52.4551 186.608 52.9206 187.267 53.8516C187.925 54.7754 188.255 55.5882 188.255 56.29C188.255 56.598 188.18 56.752 188.029 56.752H181.799ZM181.917 55.7207C181.917 55.8568 181.981 55.9248 182.11 55.9248H186.16C186.346 55.9248 186.439 55.8138 186.439 55.5918C186.439 55.0762 186.207 54.5498 185.741 54.0127C185.283 53.4684 184.778 53.1963 184.227 53.1963C183.689 53.1963 183.199 53.4398 182.755 53.9268C182.318 54.4137 182.039 54.9688 181.917 55.5918V55.7207ZM199.932 62.0049C200.268 62.0479 200.437 62.1338 200.437 62.2627C200.437 62.3486 200.401 62.3988 200.329 62.4131H195.538C195.466 62.3988 195.431 62.3486 195.431 62.2627C195.431 62.1338 195.599 62.0479 195.936 62.0049C196.709 61.8903 197.096 61.4821 197.096 60.7803V47.3848C197.096 47.084 196.931 46.8763 196.602 46.7617C196.458 46.7116 196.304 46.6722 196.14 46.6436C195.975 46.6077 195.842 46.5755 195.742 46.5469C195.649 46.5182 195.588 46.4932 195.56 46.4717C195.538 46.443 195.527 46.3893 195.527 46.3105C195.527 46.2246 195.581 46.153 195.688 46.0957L198.428 44.8066C198.514 44.7637 198.567 44.7422 198.589 44.7422C198.711 44.7422 198.771 44.8281 198.771 45V60.7803C198.771 61.4821 199.158 61.8903 199.932 62.0049ZM208.214 60.6406C208.214 60.8268 208.3 60.9772 208.472 61.0918C208.651 61.1992 208.855 61.2529 209.084 61.2529C209.313 61.2529 209.503 61.1956 209.653 61.0811C209.811 60.9593 209.918 60.8984 209.976 60.8984C210.033 60.8984 210.062 60.9772 210.062 61.1348C210.062 61.2852 209.99 61.4141 209.847 61.5215C208.772 62.3092 208.046 62.7031 207.666 62.7031C207.208 62.7031 206.835 62.2269 206.549 61.2744C206.527 61.2028 206.509 61.1706 206.495 61.1777C205.607 61.8438 205.049 62.2448 204.819 62.3809C204.232 62.7174 203.641 62.7712 203.047 62.542C202.46 62.3128 202.034 61.9333 201.769 61.4033C201.64 61.1312 201.575 60.8411 201.575 60.5332C201.575 59.9245 201.801 59.4411 202.252 59.083C202.703 58.7249 203.562 58.3812 204.83 58.0518C205.26 57.9372 205.643 57.7904 205.979 57.6113C206.316 57.4323 206.492 57.3177 206.506 57.2676C206.527 57.2174 206.538 57.1709 206.538 57.1279V55.0654C206.538 54.2562 206.223 53.6868 205.593 53.3574C205.385 53.25 205.134 53.1963 204.841 53.1963C204.554 53.1963 204.261 53.3109 203.96 53.54C203.666 53.7692 203.52 54.0951 203.52 54.5176L203.573 54.9365C203.53 55.0225 203.272 55.1657 202.8 55.3662C202.327 55.5667 202.055 55.6742 201.983 55.6885C201.869 55.6885 201.812 55.5524 201.812 55.2803C201.812 55.001 201.894 54.693 202.059 54.3564C202.223 54.0199 202.456 53.7119 202.757 53.4326C203.459 52.7809 204.261 52.4551 205.163 52.4551C206.065 52.4551 206.799 52.7057 207.365 53.207C207.931 53.7012 208.214 54.292 208.214 54.9795V60.6406ZM203.262 60.3291C203.262 60.6729 203.394 60.9736 203.659 61.2314C203.924 61.4821 204.225 61.6074 204.562 61.6074C204.905 61.6074 205.321 61.4642 205.808 61.1777C206.295 60.8841 206.538 60.5833 206.538 60.2754V58.0947C206.538 58.016 206.52 57.9766 206.484 57.9766C206.449 57.9766 206.424 57.9801 206.409 57.9873L203.917 59.1475C203.659 59.3337 203.484 59.4912 203.391 59.6201C203.305 59.749 203.262 59.9854 203.262 60.3291ZM216.765 62.4131C216.707 62.4131 216.679 62.3844 216.679 62.3271V62.0693C216.679 62.012 216.707 61.9834 216.765 61.9834H217.022C217.638 61.9834 218.175 61.8545 218.634 61.5967C218.82 61.4893 218.974 61.3245 219.096 61.1025C219.217 60.8734 219.278 60.6191 219.278 60.3398V48.9746C219.278 48.5306 218.992 48.1904 218.419 47.9541C218.018 47.7822 217.592 47.6963 217.141 47.6963H216.904C216.847 47.6963 216.818 47.6676 216.818 47.6104V47.3525C216.818 47.2952 216.847 47.2666 216.904 47.2666H224.177C224.234 47.2666 224.263 47.2952 224.263 47.3525V47.6104C224.263 47.6676 224.234 47.6963 224.177 47.6963H223.715C222.977 47.6963 222.326 47.8001 221.76 48.0078C221.595 48.0651 221.488 48.1618 221.438 48.2979C221.395 48.4268 221.373 48.6523 221.373 48.9746V60.8877C221.387 61.0094 221.452 61.124 221.566 61.2314C221.681 61.3389 221.81 61.3926 221.953 61.3926H226.196C226.834 61.3926 227.46 61.0166 228.076 60.2646C228.241 60.0641 228.445 59.7992 228.688 59.4697C228.932 59.1331 229.082 58.9434 229.14 58.9004C229.369 58.7285 229.483 58.7321 229.483 58.9111C229.483 58.9541 229.473 58.9971 229.451 59.04L227.829 62.2197C227.765 62.3486 227.689 62.4131 227.604 62.4131H216.765ZM240.806 52.7451C240.884 52.7666 240.924 52.8167 240.924 52.8955C240.924 52.9743 240.917 53.028 240.902 53.0566C240.888 53.0781 240.852 53.0996 240.795 53.1211C240.745 53.1354 240.67 53.1497 240.569 53.1641C240.476 53.1784 240.326 53.207 240.118 53.25C239.91 53.2858 239.724 53.429 239.56 53.6797C239.395 53.9303 239.219 54.2777 239.033 54.7217L233.984 67.2363L233.286 68.7188C233.107 69.0983 232.731 69.2881 232.158 69.2881C231.908 69.2881 231.707 69.2057 231.557 69.041C231.406 68.8763 231.331 68.6794 231.331 68.4502C231.331 68.2282 231.385 68.0635 231.492 67.9561C231.607 67.8558 231.739 67.7734 231.89 67.709C232.04 67.6445 232.194 67.5837 232.352 67.5264C232.516 67.4762 232.699 67.3545 232.899 67.1611C233.1 66.9749 233.218 66.8353 233.254 66.7422C234.457 64.0495 235.059 62.6423 235.059 62.5205C235.059 62.3988 234.987 62.2484 234.844 62.0693L231.299 54.668C231.034 53.9447 230.579 53.4792 229.935 53.2715C229.884 53.2572 229.824 53.2464 229.752 53.2393C229.451 53.2106 229.301 53.1211 229.301 52.9707C229.301 52.8203 229.387 52.7451 229.559 52.7451H234.339C234.396 52.7451 234.425 52.8024 234.425 52.917C234.425 53.0244 234.375 53.0996 234.274 53.1426C234.174 53.1784 233.952 53.1963 233.608 53.1963C233.057 53.1963 232.781 53.4111 232.781 53.8408L232.878 54.0986L235.66 60.0605C235.803 60.4258 235.947 60.415 236.09 60.0283C236.104 59.9925 236.194 59.7598 236.358 59.3301C237.332 56.8594 237.877 55.4307 237.991 55.0439C238.113 54.6572 238.174 54.3672 238.174 54.1738C238.174 53.9805 238.07 53.7764 237.862 53.5615C237.662 53.3467 237.382 53.2393 237.024 53.2393C236.674 53.2393 236.498 53.1354 236.498 52.9277C236.498 52.806 236.577 52.7451 236.734 52.7451H240.806ZM248.476 54.7109C248.39 54.6966 248.264 54.6501 248.1 54.5713C247.505 54.2992 247.04 54.1631 246.703 54.1631C246.367 54.1631 246.012 54.3743 245.64 54.7969C245.274 55.2122 245.092 55.5882 245.092 55.9248V60.7803C245.092 61.3174 245.403 61.6755 246.026 61.8545C246.299 61.9261 246.553 61.9798 246.789 62.0156C247.025 62.0443 247.176 62.0729 247.24 62.1016C247.312 62.1302 247.348 62.1875 247.348 62.2734C247.348 62.3522 247.312 62.3988 247.24 62.4131H241.858C241.787 62.3988 241.751 62.3486 241.751 62.2627C241.751 62.1338 241.919 62.0479 242.256 62.0049C243.029 61.8903 243.416 61.4821 243.416 60.7803V55.0977C243.416 54.7969 243.251 54.5892 242.922 54.4746C242.779 54.4245 242.625 54.3851 242.46 54.3564C242.295 54.3206 242.163 54.2884 242.062 54.2598C241.969 54.2311 241.909 54.2061 241.88 54.1846C241.858 54.1559 241.848 54.1022 241.848 54.0234C241.848 53.9375 241.901 53.8659 242.009 53.8086L244.748 52.5195C244.834 52.4766 244.888 52.4551 244.909 52.4551C245.031 52.4551 245.092 52.541 245.092 52.7129V54.4531C245.092 54.5391 245.113 54.582 245.156 54.582C245.214 54.582 245.36 54.4137 245.597 54.0771C246.277 53.1247 246.839 52.6484 247.283 52.6484C247.534 52.6484 247.917 52.7487 248.433 52.9492C248.955 53.1497 249.217 53.318 249.217 53.4541C249.217 53.6188 249.134 53.8695 248.97 54.2061C248.805 54.5426 248.64 54.7109 248.476 54.7109ZM251.709 56.752C251.587 56.752 251.526 57.0133 251.526 57.5361C251.526 58.6462 251.856 59.5771 252.515 60.3291C253.174 61.0811 253.99 61.457 254.964 61.457C255.945 61.457 256.887 61.0345 257.789 60.1895C257.803 60.1751 257.821 60.168 257.843 60.168H257.896C257.939 60.168 257.979 60.2038 258.015 60.2754C258.058 60.3398 258.097 60.3828 258.133 60.4043C257.302 61.4141 256.325 62.1123 255.2 62.499C254.813 62.6351 254.377 62.7031 253.89 62.7031C253.403 62.7031 252.909 62.5706 252.407 62.3057C251.906 62.0335 251.476 61.679 251.118 61.2422C250.359 60.3327 249.979 59.2012 249.979 57.8477C249.979 56.487 250.391 55.248 251.215 54.1309C252.046 53.0137 253.184 52.4551 254.631 52.4551C255.669 52.4551 256.518 52.9206 257.177 53.8516C257.836 54.7754 258.165 55.5882 258.165 56.29C258.165 56.598 258.09 56.752 257.939 56.752H251.709ZM251.827 55.7207C251.827 55.8568 251.892 55.9248 252.021 55.9248H256.07C256.257 55.9248 256.35 55.8138 256.35 55.5918C256.35 55.0762 256.117 54.5498 255.651 54.0127C255.193 53.4684 254.688 53.1963 254.137 53.1963C253.6 53.1963 253.109 53.4398 252.665 53.9268C252.228 54.4137 251.949 54.9688 251.827 55.5918V55.7207Z" fill="#EFB85F"/>
<line x1="149.067" y1="164.188" x2="159.969" y2="126.406" stroke="#EFB85F" stroke-dasharray="4 4"/>
<line x1="187.235" y1="293.358" x2="146.745" y2="187.46" stroke="#EFB85F" stroke-dasharray="4 4"/>
<line x1="188.444" y1="308.21" x2="160.444" y2="346.21" stroke="#EFB85F" stroke-dasharray="4 4"/>
<line x1="149.08" y1="341.633" x2="109.368" y2="236.513" stroke="#EFB85F" stroke-dasharray="4 4"/>
<line x1="112.562" y1="218.112" x2="140.42" y2="183.851" stroke="#EFB85F" stroke-dasharray="4 4"/>
<path d="M164.488 106.857L167.997 112.857L174.756 115.973L167.997 119.087L164.488 125.088L160.979 119.087L154.22 115.973L160.979 112.857L164.488 106.857Z" fill="#EFB85F"/>
<path d="M191.742 292.53L195.25 298.53L202.009 301.645L195.25 304.76L191.742 310.761L188.232 304.76L181.473 301.645L188.232 298.53L191.742 292.53Z" fill="#EFB85F"/>
<path d="M147.358 163.264L150.866 169.264L157.625 172.379L150.866 175.493L147.358 181.495L143.848 175.493L137.089 172.379L143.848 169.264L147.358 163.264Z" fill="#EFB85F"/>
<path d="M153.587 343.453L157.095 349.453L163.855 352.568L157.095 355.682L153.587 361.684L150.078 355.682L143.318 352.568L150.078 349.453L153.587 343.453Z" fill="#EFB85F"/>
<path d="M105.31 217.32L108.818 223.321L115.577 226.436L108.818 229.55L105.31 235.551L101.8 229.55L95.041 226.436L101.8 223.321L105.31 217.32Z" fill="#EFB85F"/>
</g>
</g>
<defs>
<clipPath id="clip0_107_13807">
<rect width="297.638" height="419.528" rx="10" fill="white"/>
</clipPath>
<clipPath id="clip1_107_13807">
<rect width="259" height="381" fill="white" transform="translate(19.041 19.4131)"/>
</clipPath>
</defs>
</svg>
