<svg width="298" height="420" viewBox="0 0 298 420" fill="none" xmlns="http://www.w3.org/2000/svg">
<g clip-path="url(#clip0_186_19586)">
<rect width="297.638" height="419.528" rx="10" fill="#032206"/>
<rect x="12" y="12" width="273" height="396" rx="9" stroke="#EFB85F" stroke-width="2"/>
<rect x="19.5" y="19.5" width="258" height="380" rx="6.5" stroke="#EFB85F"/>
<circle cx="76.7197" cy="259.47" r="1" fill="#EFB85F"/>
<circle cx="222.72" cy="204.47" r="1" fill="#EFB85F"/>
<circle cx="211.72" cy="129.47" r="1" fill="#EFB85F"/>
<circle cx="241.72" cy="96.4702" r="1" fill="#EFB85F"/>
<circle cx="125.72" cy="66.4702" r="1" fill="#EFB85F"/>
<circle cx="59.7197" cy="98.4702" r="1" fill="#EFB85F"/>
<circle cx="187.72" cy="97.4702" r="1" fill="#EFB85F"/>
<circle cx="50.7197" cy="187.47" r="1" fill="#EFB85F"/>
<circle cx="50.7197" cy="187.47" r="1" fill="#EFB85F"/>
<circle cx="50.7197" cy="187.47" r="1" fill="#EFB85F"/>
<circle cx="74.7197" cy="323.47" r="1" fill="#EFB85F"/>
<circle cx="164.72" cy="363.47" r="1" fill="#EFB85F"/>
<circle cx="66.7197" cy="376.47" r="1" fill="#EFB85F"/>
<circle cx="114.72" cy="393.47" r="1" fill="#EFB85F"/>
<circle cx="164.72" cy="395.47" r="1" fill="#EFB85F"/>
<circle cx="215.72" cy="105.47" r="1" fill="#EFB85F"/>
<circle cx="162.72" cy="91.4702" r="1" fill="#EFB85F"/>
<circle cx="162.72" cy="91.4702" r="1" fill="#EFB85F"/>
<circle cx="21.7197" cy="312.47" r="1" fill="#EFB85F"/>
<circle cx="141.72" cy="354.47" r="1" fill="#EFB85F"/>
<circle cx="55.7197" cy="307.47" r="1" fill="#EFB85F"/>
<circle cx="88.7197" cy="340.47" r="1" fill="#EFB85F"/>
<circle cx="88.7197" cy="340.47" r="1" fill="#EFB85F"/>
<circle cx="229.72" cy="381.47" r="1" fill="#EFB85F"/>
<circle cx="235.72" cy="337.47" r="1" fill="#EFB85F"/>
<circle cx="235.72" cy="337.47" r="1" fill="#EFB85F"/>
<circle cx="212.72" cy="155.47" r="1" fill="#EFB85F"/>
<circle cx="274.72" cy="186.47" r="1" fill="#EFB85F"/>
<path d="M198.72 343.47C198.72 344.022 198.272 344.47 197.72 344.47C197.167 344.47 196.72 344.022 196.72 343.47C196.72 342.918 197.167 342.47 197.72 342.47C198.272 342.47 198.72 342.918 198.72 343.47Z" fill="#EFB85F"/>
<path d="M229.22 361.47L230.416 363.445L232.72 364.47L230.416 365.495L229.22 367.47L228.024 365.495L225.72 364.47L228.024 363.445L229.22 361.47Z" fill="#EFB85F"/>
<circle cx="251.72" cy="319.47" r="1" fill="#EFB85F"/>
<circle cx="216.72" cy="147.47" r="1" fill="#EFB85F"/>
<circle cx="249.72" cy="180.47" r="1" fill="#EFB85F"/>
<circle cx="249.72" cy="180.47" r="1" fill="#EFB85F"/>
<circle cx="196.72" cy="372.47" r="1" fill="#EFB85F"/>
<circle cx="214.72" cy="266.47" r="1" fill="#EFB85F"/>
<circle cx="80.7197" cy="131.47" r="1" fill="#EFB85F"/>
<circle cx="22.7197" cy="157.47" r="1" fill="#EFB85F"/>
<circle cx="70.7197" cy="82.4702" r="1" fill="#EFB85F"/>
<circle cx="59.7197" cy="156.47" r="1" fill="#EFB85F"/>
<circle cx="40.7197" cy="79.4702" r="1" fill="#EFB85F"/>
<circle cx="74.7197" cy="74.4702" r="1" fill="#EFB85F"/>
<circle cx="38.7197" cy="143.47" r="1" fill="#EFB85F"/>
<circle cx="72.7197" cy="193.47" r="1" fill="#EFB85F"/>
<path d="M63.527 139.266L67.8019 139.126L63.527 138.986L64.8678 137.555L63.4363 138.896L63.2965 134.621L63.1566 138.896L61.7251 137.555L63.0659 138.986L58.791 139.126L63.0659 139.266L61.7251 140.697L63.1566 139.357L63.2965 143.631L63.4363 139.357L64.8678 140.697L63.527 139.266Z" fill="#EFB85F"/>
<path d="M33.4906 226.363L37.7655 226.223L33.4906 226.083L34.8314 224.652L33.3999 225.993L33.2601 221.718L33.1202 225.993L31.6888 224.652L33.0295 226.083L28.7546 226.223L33.0295 226.363L31.6888 227.794L33.1202 226.454L33.2601 230.728L33.3999 226.454L34.8314 227.794L33.4906 226.363Z" fill="#EFB85F"/>
<path d="M28.4845 291.436L32.7594 291.296L28.4845 291.156L29.8253 289.725L28.3938 291.066L28.254 286.791L28.1141 291.066L26.6826 289.725L28.0234 291.156L23.7485 291.296L28.0234 291.436L26.6826 292.867L28.1141 291.527L28.254 295.801L28.3938 291.527L29.8253 292.867L28.4845 291.436Z" fill="#EFB85F"/>
<path d="M45.505 349.501L49.7799 349.361L45.505 349.221L46.8458 347.79L45.4143 349.13L45.2745 344.856L45.1347 349.13L43.7032 347.79L45.0439 349.221L40.769 349.361L45.0439 349.501L43.7032 350.932L45.1347 349.592L45.2745 353.866L45.4143 349.592L46.8458 350.932L45.505 349.501Z" fill="#EFB85F"/>
<path d="M126.603 378.534L130.878 378.394L126.603 378.254L127.944 376.823L126.512 378.163L126.373 373.889L126.233 378.163L124.801 376.823L126.142 378.254L121.867 378.394L126.142 378.534L124.801 379.965L126.233 378.624L126.373 382.899L126.512 378.624L127.944 379.965L126.603 378.534Z" fill="#EFB85F"/>
<path d="M251.754 385.541L256.029 385.402L251.754 385.262L253.095 383.83L251.664 385.171L251.524 380.896L251.384 385.171L249.952 383.83L251.293 385.262L247.018 385.402L251.293 385.541L249.952 386.973L251.384 385.632L251.524 389.907L251.664 385.632L253.095 386.973L251.754 385.541Z" fill="#EFB85F"/>
<path d="M264.77 221.358L269.045 221.218L264.77 221.078L266.111 219.647L264.679 220.987L264.539 216.713L264.4 220.987L262.968 219.647L264.309 221.078L260.034 221.218L264.309 221.358L262.968 222.789L264.4 221.448L264.539 225.723L264.679 221.448L266.111 222.789L264.77 221.358Z" fill="#EFB85F"/>
<path d="M264.77 221.358L269.045 221.218L264.77 221.078L266.111 219.647L264.679 220.987L264.539 216.713L264.4 220.987L262.968 219.647L264.309 221.078L260.034 221.218L264.309 221.358L262.968 222.789L264.4 221.448L264.539 225.723L264.679 221.448L266.111 222.789L264.77 221.358Z" fill="#EFB85F"/>
<path d="M135.614 105.228L139.889 105.088L135.614 104.948L136.955 103.517L135.523 104.858L135.383 100.583L135.244 104.858L133.812 103.517L135.153 104.948L130.878 105.088L135.153 105.228L133.812 106.659L135.244 105.319L135.383 109.593L135.523 105.319L136.955 106.659L135.614 105.228Z" fill="#EFB85F"/>
<path d="M135.614 105.228L139.889 105.088L135.614 104.948L136.955 103.517L135.523 104.858L135.383 100.583L135.244 104.858L133.812 103.517L135.153 104.948L130.878 105.088L135.153 105.228L133.812 106.659L135.244 105.319L135.383 109.593L135.523 105.319L136.955 106.659L135.614 105.228Z" fill="#EFB85F"/>
<path d="M135.614 105.228L139.889 105.088L135.614 104.948L136.955 103.517L135.523 104.858L135.383 100.583L135.244 104.858L133.812 103.517L135.153 104.948L130.878 105.088L135.153 105.228L133.812 106.659L135.244 105.319L135.383 109.593L135.523 105.319L136.955 106.659L135.614 105.228Z" fill="#EFB85F"/>
<path d="M160.644 78.1977L164.919 78.0578L160.644 77.918L161.985 76.4866L160.553 77.8272L160.414 73.5527L160.274 77.8272L158.842 76.4866L160.183 77.918L155.908 78.0578L160.183 78.1977L158.842 79.629L160.274 78.2883L160.414 82.5628L160.553 78.2883L161.985 79.629L160.644 78.1977Z" fill="#EFB85F"/>
<path d="M193.684 334.484L197.959 334.344L193.684 334.205L195.025 332.773L193.594 334.114L193.454 329.839L193.314 334.114L191.882 332.773L193.223 334.205L188.948 334.344L193.223 334.484L191.882 335.916L193.314 334.575L193.454 338.849L193.594 334.575L195.025 335.916L193.684 334.484Z" fill="#EFB85F"/>
<path d="M193.684 334.484L197.959 334.344L193.684 334.205L195.025 332.773L193.594 334.114L193.454 329.839L193.314 334.114L191.882 332.773L193.223 334.205L188.948 334.344L193.223 334.484L191.882 335.916L193.314 334.575L193.454 338.849L193.594 334.575L195.025 335.916L193.684 334.484Z" fill="#EFB85F"/>
<path d="M237.737 272.415L242.012 272.275L237.737 272.135L239.078 270.704L237.647 272.045L237.507 267.77L237.367 272.045L235.936 270.704L237.276 272.135L233.001 272.275L237.276 272.415L235.936 273.846L237.367 272.506L237.507 276.78L237.647 272.506L239.078 273.846L237.737 272.415Z" fill="#EFB85F"/>
<path d="M250.71 134.026C250.749 133.699 250.814 132.924 250.866 132.312C250.918 131.604 251.009 131.155 251.113 131.114C251.204 131.074 251.62 131.291 252.023 131.591C252.439 131.903 252.803 132.121 252.842 132.08C252.868 132.053 252.621 131.618 252.296 131.128C251.88 130.529 251.737 130.23 251.854 130.189C251.945 130.162 252.608 130.067 253.322 129.972C255.61 129.7 255.597 129.55 253.283 129.291C252.478 129.196 251.802 129.074 251.776 129.033C251.737 128.979 251.984 128.584 252.296 128.149C252.608 127.7 252.842 127.305 252.803 127.264C252.764 127.237 252.374 127.469 251.945 127.781C251.503 128.108 251.113 128.312 251.061 128.258C250.996 128.19 250.892 127.373 250.801 126.435C250.567 123.986 250.463 123.999 250.216 126.489C250.125 127.428 250.021 128.244 249.969 128.285C249.93 128.326 249.541 128.108 249.099 127.795C248.67 127.469 248.293 127.237 248.254 127.278C248.228 127.305 248.423 127.673 248.709 128.081C248.995 128.475 249.229 128.883 249.229 128.965C249.229 129.06 248.67 129.183 247.76 129.291C245.434 129.55 245.434 129.7 247.773 129.985C248.657 130.094 249.229 130.23 249.229 130.312C249.229 130.393 248.995 130.802 248.709 131.196C248.098 132.053 248.046 132.271 248.54 131.931C248.748 131.808 249.125 131.536 249.398 131.346C250.021 130.924 250.073 130.992 250.19 132.461C250.359 134.624 250.554 135.196 250.71 134.026Z" fill="#EFB85F"/>
<path d="M163.605 177.074C163.644 176.747 163.709 175.972 163.761 175.359C163.813 174.652 163.904 174.203 164.008 174.162C164.099 174.121 164.515 174.339 164.918 174.638C165.333 174.951 165.697 175.169 165.736 175.128C165.762 175.101 165.515 174.666 165.19 174.176C164.775 173.577 164.632 173.278 164.749 173.237C164.84 173.21 165.502 173.115 166.217 173.02C168.504 172.747 168.491 172.598 166.178 172.339C165.372 172.244 164.697 172.122 164.671 172.081C164.632 172.026 164.879 171.632 165.19 171.197C165.502 170.748 165.736 170.353 165.697 170.312C165.658 170.285 165.268 170.516 164.84 170.829C164.398 171.156 164.008 171.36 163.956 171.305C163.891 171.237 163.787 170.421 163.696 169.482C163.462 167.034 163.358 167.047 163.111 169.537C163.02 170.476 162.916 171.292 162.864 171.333C162.825 171.373 162.435 171.156 161.994 170.843C161.565 170.516 161.188 170.285 161.149 170.326C161.123 170.353 161.318 170.72 161.604 171.129C161.89 171.523 162.124 171.931 162.124 172.013C162.124 172.108 161.565 172.23 160.655 172.339C158.329 172.598 158.329 172.747 160.668 173.033C161.552 173.142 162.124 173.278 162.124 173.36C162.124 173.441 161.89 173.849 161.604 174.244C160.993 175.101 160.941 175.319 161.435 174.979C161.643 174.856 162.02 174.584 162.292 174.394C162.916 173.972 162.968 174.04 163.085 175.509C163.254 177.672 163.449 178.244 163.605 177.074Z" fill="#EFB85F"/>
<path d="M161.603 263.17C161.642 262.844 161.707 262.068 161.759 261.456C161.81 260.749 161.901 260.3 162.005 260.259C162.096 260.218 162.512 260.436 162.915 260.735C163.331 261.048 163.695 261.266 163.734 261.225C163.76 261.198 163.513 260.762 163.188 260.273C162.772 259.674 162.629 259.375 162.746 259.334C162.837 259.307 163.5 259.211 164.215 259.116C166.502 258.844 166.489 258.694 164.176 258.436C163.37 258.341 162.694 258.218 162.668 258.178C162.629 258.123 162.876 257.729 163.188 257.293C163.5 256.844 163.734 256.45 163.695 256.409C163.656 256.382 163.266 256.613 162.837 256.926C162.395 257.252 162.005 257.457 161.953 257.402C161.888 257.334 161.785 256.518 161.694 255.579C161.46 253.13 161.356 253.144 161.109 255.634C161.018 256.572 160.914 257.388 160.862 257.429C160.823 257.47 160.433 257.252 159.991 256.94C159.562 256.613 159.185 256.382 159.146 256.423C159.12 256.45 159.315 256.817 159.601 257.225C159.887 257.62 160.121 258.028 160.121 258.11C160.121 258.205 159.562 258.327 158.653 258.436C156.326 258.694 156.326 258.844 158.666 259.13C159.549 259.239 160.121 259.375 160.121 259.456C160.121 259.538 159.887 259.946 159.601 260.341C158.99 261.198 158.938 261.415 159.432 261.075C159.64 260.953 160.017 260.681 160.29 260.49C160.914 260.069 160.966 260.137 161.083 261.606C161.252 263.769 161.447 264.34 161.603 263.17Z" fill="#EFB85F"/>
<path d="M36.4512 114.003C36.4902 113.677 36.5552 112.901 36.6071 112.289C36.6591 111.582 36.7501 111.133 36.8541 111.092C36.945 111.051 37.3609 111.269 37.7638 111.568C38.1796 111.881 38.5435 112.099 38.5825 112.058C38.6085 112.031 38.3616 111.595 38.0367 111.106C37.6208 110.507 37.4779 110.208 37.5948 110.167C37.6858 110.14 38.3486 110.044 39.0633 109.949C41.3505 109.677 41.3375 109.527 39.0243 109.269C38.2186 109.174 37.5428 109.051 37.5168 109.011C37.4779 108.956 37.7248 108.562 38.0367 108.126C38.3486 107.677 38.5825 107.283 38.5435 107.242C38.5045 107.215 38.1146 107.446 37.6858 107.759C37.2439 108.085 36.8541 108.29 36.8021 108.235C36.7371 108.167 36.6331 107.351 36.5422 106.412C36.3082 103.963 36.2043 103.977 35.9574 106.467C35.8664 107.405 35.7624 108.221 35.7104 108.262C35.6715 108.303 35.2816 108.085 34.8397 107.773C34.4109 107.446 34.034 107.215 33.995 107.256C33.969 107.283 34.164 107.65 34.4499 108.058C34.7358 108.453 34.9697 108.861 34.9697 108.943C34.9697 109.038 34.4109 109.16 33.5012 109.269C31.175 109.527 31.175 109.677 33.5142 109.963C34.3979 110.072 34.9697 110.208 34.9697 110.289C34.9697 110.371 34.7358 110.779 34.4499 111.174C33.8391 112.031 33.7871 112.248 34.2809 111.908C34.4889 111.786 34.8657 111.514 35.1386 111.323C35.7624 110.902 35.8144 110.97 35.9314 112.439C36.1003 114.602 36.2953 115.173 36.4512 114.003Z" fill="#EFB85F"/>
<path d="M268.732 306.218C268.771 305.892 268.836 305.116 268.888 304.504C268.94 303.797 269.031 303.348 269.135 303.307C269.226 303.266 269.642 303.484 270.045 303.783C270.46 304.096 270.824 304.314 270.863 304.273C270.889 304.246 270.642 303.81 270.317 303.32C269.902 302.722 269.759 302.423 269.876 302.382C269.967 302.355 270.629 302.259 271.344 302.164C273.631 301.892 273.618 301.742 271.305 301.484C270.499 301.389 269.824 301.266 269.798 301.225C269.759 301.171 270.006 300.776 270.317 300.341C270.629 299.892 270.863 299.498 270.824 299.457C270.785 299.43 270.395 299.661 269.967 299.974C269.525 300.3 269.135 300.504 269.083 300.45C269.018 300.382 268.914 299.566 268.823 298.627C268.589 296.178 268.485 296.192 268.238 298.681C268.147 299.62 268.043 300.436 267.991 300.477C267.952 300.518 267.562 300.3 267.121 299.987C266.692 299.661 266.315 299.43 266.276 299.47C266.25 299.498 266.445 299.865 266.731 300.273C267.017 300.668 267.25 301.076 267.25 301.157C267.25 301.253 266.692 301.375 265.782 301.484C263.456 301.742 263.456 301.892 265.795 302.178C266.679 302.287 267.25 302.423 267.25 302.504C267.25 302.586 267.017 302.994 266.731 303.388C266.12 304.246 266.068 304.463 266.562 304.123C266.77 304.001 267.146 303.729 267.419 303.538C268.043 303.116 268.095 303.184 268.212 304.654C268.381 306.817 268.576 307.388 268.732 306.218Z" fill="#EFB85F"/>
<path d="M54.4732 275.183C54.5122 274.857 54.5771 274.081 54.6291 273.469C54.6811 272.762 54.7721 272.313 54.876 272.272C54.967 272.231 55.3829 272.449 55.7857 272.748C56.2016 273.061 56.5655 273.279 56.6045 273.238C56.6304 273.211 56.3835 272.775 56.0586 272.286C55.6428 271.687 55.4998 271.388 55.6168 271.347C55.7078 271.32 56.3705 271.225 57.0853 271.129C59.3725 270.857 59.3595 270.708 57.0463 270.449C56.2406 270.354 55.5648 270.232 55.5388 270.191C55.4998 270.136 55.7467 269.742 56.0586 269.306C56.3705 268.858 56.6045 268.463 56.5655 268.422C56.5265 268.395 56.1366 268.626 55.7078 268.939C55.2659 269.266 54.876 269.47 54.8241 269.415C54.7591 269.347 54.6551 268.531 54.5641 267.592C54.3302 265.144 54.2263 265.157 53.9793 267.647C53.8884 268.585 53.7844 269.402 53.7324 269.442C53.6934 269.483 53.3036 269.266 52.8617 268.953C52.4329 268.626 52.056 268.395 52.017 268.436C51.991 268.463 52.1859 268.83 52.4718 269.238C52.7578 269.633 52.9917 270.041 52.9917 270.123C52.9917 270.218 52.4329 270.34 51.5232 270.449C49.197 270.708 49.197 270.857 51.5362 271.143C52.4199 271.252 52.9917 271.388 52.9917 271.47C52.9917 271.551 52.7578 271.959 52.4718 272.354C51.8611 273.211 51.8091 273.428 52.3029 273.088C52.5108 272.966 52.8877 272.694 53.1606 272.503C53.7844 272.082 53.8364 272.15 53.9533 273.619C54.1223 275.782 54.3172 276.353 54.4732 275.183Z" fill="#EFB85F"/>
<path d="M49.4671 396.319C49.5061 395.993 49.571 395.217 49.623 394.605C49.675 393.898 49.766 393.449 49.8699 393.408C49.9609 393.367 50.3768 393.585 50.7796 393.884C51.1955 394.197 51.5594 394.415 51.5983 394.374C51.6243 394.347 51.3774 393.911 51.0525 393.421C50.6367 392.823 50.4937 392.524 50.6107 392.483C50.7017 392.456 51.3644 392.36 52.0792 392.265C54.3664 391.993 54.3534 391.843 52.0402 391.585C51.2345 391.49 50.5587 391.367 50.5327 391.326C50.4937 391.272 50.7406 390.878 51.0525 390.442C51.3644 389.993 51.5983 389.599 51.5594 389.558C51.5204 389.531 51.1305 389.762 50.7017 390.075C50.2598 390.401 49.8699 390.605 49.8179 390.551C49.753 390.483 49.649 389.667 49.558 388.728C49.3241 386.279 49.2202 386.293 48.9732 388.782C48.8823 389.721 48.7783 390.537 48.7263 390.578C48.6873 390.619 48.2975 390.401 47.8556 390.088C47.4268 389.762 47.0499 389.531 47.0109 389.572C46.9849 389.599 47.1798 389.966 47.4657 390.374C47.7516 390.769 47.9856 391.177 47.9856 391.258C47.9856 391.354 47.4268 391.476 46.5171 391.585C44.1909 391.843 44.1909 391.993 46.5301 392.279C47.4138 392.388 47.9856 392.524 47.9856 392.605C47.9856 392.687 47.7516 393.095 47.4657 393.49C46.855 394.347 46.803 394.564 47.2968 394.224C47.5047 394.102 47.8816 393.83 48.1545 393.639C48.7783 393.217 48.8303 393.285 48.9472 394.755C49.1162 396.918 49.3111 397.489 49.4671 396.319Z" fill="#EFB85F"/>
<path d="M229.497 361.875L230.695 363.852L233.001 364.878L230.695 365.904L229.497 367.882L228.3 365.904L225.993 364.878L228.3 363.852L229.497 361.875Z" fill="#EFB85F"/>
<path d="M118.363 309.817L119.56 311.794L121.867 312.82L119.56 313.846L118.363 315.824L117.165 313.846L114.859 312.82L117.165 311.794L118.363 309.817Z" fill="#EFB85F"/>
<path d="M118.363 309.817L119.56 311.794L121.867 312.82L119.56 313.846L118.363 315.824L117.165 313.846L114.859 312.82L117.165 311.794L118.363 309.817Z" fill="#EFB85F"/>
<path d="M84.3221 285.79L85.5193 287.767L87.8261 288.793L85.5193 289.819L84.3221 291.797L83.1244 289.819L80.8176 288.793L83.1244 287.767L84.3221 285.79Z" fill="#EFB85F"/>
<path d="M170.426 286.791L171.623 288.768L173.93 289.794L171.623 290.82L170.426 292.798L169.228 290.82L166.922 289.794L169.228 288.768L170.426 286.791Z" fill="#EFB85F"/>
<path d="M78.3147 230.729L79.512 232.705L81.8188 233.732L79.512 234.758L78.3147 236.735L77.1171 234.758L74.8103 233.732L77.1171 232.705L78.3147 230.729Z" fill="#EFB85F"/>
<path d="M27.253 185.678L28.4502 187.655L30.757 188.682L28.4502 189.708L27.253 191.685L26.0553 189.708L23.7485 188.682L26.0553 187.655L27.253 185.678Z" fill="#EFB85F"/>
<path d="M27.253 86.5669L28.4502 88.5439L30.757 89.5703L28.4502 90.5963L27.253 92.5736L26.0553 90.5963L23.7485 89.5703L26.0553 88.5439L27.253 86.5669Z" fill="#EFB85F"/>
<circle cx="118.72" cy="77.4702" r="1" fill="#EFB85F"/>
<path d="M114.546 112.001C114.585 111.674 114.65 110.899 114.702 110.287C114.754 109.579 114.845 109.13 114.949 109.09C115.04 109.049 115.455 109.266 115.858 109.566C116.274 109.879 116.638 110.096 116.677 110.055C116.703 110.028 116.456 109.593 116.131 109.103C115.715 108.505 115.572 108.205 115.689 108.164C115.78 108.137 116.443 108.042 117.158 107.947C119.445 107.675 119.432 107.525 117.119 107.267C116.313 107.171 115.637 107.049 115.611 107.008C115.572 106.954 115.819 106.559 116.131 106.124C116.443 105.675 116.677 105.28 116.638 105.24C116.599 105.212 116.209 105.444 115.78 105.757C115.338 106.083 114.949 106.287 114.897 106.233C114.832 106.165 114.728 105.348 114.637 104.41C114.403 101.961 114.299 101.975 114.052 104.464C113.961 105.403 113.857 106.219 113.805 106.26C113.766 106.301 113.376 106.083 112.934 105.77C112.505 105.444 112.128 105.212 112.09 105.253C112.064 105.28 112.258 105.648 112.544 106.056C112.83 106.45 113.064 106.858 113.064 106.94C113.064 107.035 112.505 107.158 111.596 107.267C109.269 107.525 109.269 107.675 111.609 107.96C112.492 108.069 113.064 108.205 113.064 108.287C113.064 108.369 112.83 108.777 112.544 109.171C111.934 110.028 111.882 110.246 112.375 109.906C112.583 109.783 112.96 109.511 113.233 109.321C113.857 108.899 113.909 108.967 114.026 110.436C114.195 112.599 114.39 113.171 114.546 112.001Z" fill="#EFB85F"/>
<path d="M105.347 84.5649L106.545 86.5419L108.851 87.5683L106.545 88.5943L105.347 90.5717L104.15 88.5943L101.843 87.5683L104.15 86.5419L105.347 84.5649Z" fill="#EFB85F"/>
<path d="M256.53 70.5493L257.727 72.5263L260.034 73.5527L257.727 74.5787L256.53 76.556L255.332 74.5787L253.026 73.5527L255.332 72.5263L256.53 70.5493Z" fill="#EFB85F"/>
<path d="M165.42 28.502L166.617 30.4789L168.924 31.5053L166.617 32.5313L165.42 34.5087L164.222 32.5313L161.916 31.5053L164.222 30.4789L165.42 28.502Z" fill="#EFB85F"/>
<path d="M238.007 298.805L238.759 302.464L242.012 303.309L238.759 304.155L238.007 307.815L237.255 304.155L234.003 303.309L237.255 302.464L238.007 298.805Z" fill="#EFB85F"/>
<path d="M57.7895 245.745L58.5416 249.404L61.7946 250.25L58.5416 251.096L57.7895 254.755L57.0375 251.096L53.7849 250.25L57.0375 249.404L57.7895 245.745Z" fill="#EFB85F"/>
<path d="M62.7956 339.851L63.5477 343.51L66.8007 344.355L63.5477 345.201L62.7956 348.861L62.0436 345.201L58.791 344.355L62.0436 343.51L62.7956 339.851Z" fill="#EFB85F"/>
<path d="M261.035 338.85L261.787 342.509L265.04 343.354L261.787 344.2L261.035 347.86L260.283 344.2L257.03 343.354L260.283 342.509L261.035 338.85Z" fill="#EFB85F"/>
<path d="M160.914 327.837L161.666 331.496L164.919 332.342L161.666 333.188L160.914 336.847L160.162 333.188L156.909 332.342L160.162 331.496L160.914 327.837Z" fill="#EFB85F"/>
<path d="M254.027 237.736L254.779 241.396L258.032 242.241L254.779 243.087L254.027 246.746L253.275 243.087L250.022 242.241L253.275 241.396L254.027 237.736Z" fill="#EFB85F"/>
<path d="M254.027 237.736L254.779 241.396L258.032 242.241L254.779 243.087L254.027 246.746L253.275 243.087L250.022 242.241L253.275 241.396L254.027 237.736Z" fill="#EFB85F"/>
<path d="M115.86 343.855L116.612 347.514L119.865 348.36L116.612 349.206L115.86 352.865L115.108 349.206L111.855 348.36L115.108 347.514L115.86 343.855Z" fill="#EFB85F"/>
<circle cx="125.72" cy="66.4702" r="1" fill="#EFB85F"/>
<circle cx="164.72" cy="363.47" r="1" fill="#EFB85F"/>
<circle cx="143.72" cy="317.47" r="1" fill="#EFB85F"/>
<circle cx="161.72" cy="315.47" r="1" fill="#EFB85F"/>
<circle cx="158.72" cy="277.47" r="1" fill="#EFB85F"/>
<circle cx="120.72" cy="331.47" r="1" fill="#EFB85F"/>
<circle cx="162.72" cy="91.4702" r="1" fill="#EFB85F"/>
<circle cx="162.72" cy="91.4702" r="1" fill="#EFB85F"/>
<circle cx="185.72" cy="193.47" r="1" fill="#EFB85F"/>
<circle cx="122.72" cy="193.47" r="1" fill="#EFB85F"/>
<circle cx="150.72" cy="164.47" r="1" fill="#EFB85F"/>
<circle cx="76.7197" cy="41.4702" r="1" fill="#EFB85F"/>
<circle cx="146.72" cy="40.4702" r="1" fill="#EFB85F"/>
<circle cx="177.72" cy="51.4702" r="1" fill="#EFB85F"/>
<circle cx="177.72" cy="51.4702" r="1" fill="#EFB85F"/>
<circle cx="109.72" cy="143.47" r="1" fill="#EFB85F"/>
<circle cx="145.72" cy="124.47" r="1" fill="#EFB85F"/>
<circle cx="81.7197" cy="177.47" r="1" fill="#EFB85F"/>
<circle cx="59.7197" cy="216.47" r="1" fill="#EFB85F"/>
<circle cx="38.7197" cy="328.47" r="1" fill="#EFB85F"/>
<circle cx="188.72" cy="155.47" r="1" fill="#EFB85F"/>
<circle cx="127.72" cy="292.47" r="1" fill="#EFB85F"/>
<circle cx="166.72" cy="214.47" r="1" fill="#EFB85F"/>
<circle cx="155.72" cy="194.47" r="1" fill="#EFB85F"/>
<circle cx="168.72" cy="153.47" r="1" fill="#EFB85F"/>
<circle cx="141.72" cy="354.47" r="1" fill="#EFB85F"/>
<path d="M126.603 378.534L130.878 378.394L126.603 378.254L127.944 376.823L126.512 378.163L126.373 373.889L126.233 378.163L124.801 376.823L126.142 378.254L121.867 378.394L126.142 378.534L124.801 379.965L126.233 378.624L126.373 382.899L126.512 378.624L127.944 379.965L126.603 378.534Z" fill="#EFB85F"/>
<path d="M135.614 105.228L139.889 105.088L135.614 104.948L136.955 103.517L135.523 104.858L135.383 100.583L135.244 104.858L133.812 103.517L135.153 104.948L130.878 105.088L135.153 105.228L133.812 106.659L135.244 105.319L135.383 109.593L135.523 105.319L136.955 106.659L135.614 105.228Z" fill="#EFB85F"/>
<path d="M135.614 105.228L139.889 105.088L135.614 104.948L136.955 103.517L135.523 104.858L135.383 100.583L135.244 104.858L133.812 103.517L135.153 104.948L130.878 105.088L135.153 105.228L133.812 106.659L135.244 105.319L135.383 109.593L135.523 105.319L136.955 106.659L135.614 105.228Z" fill="#EFB85F"/>
<path d="M135.614 105.228L139.889 105.088L135.614 104.948L136.955 103.517L135.523 104.858L135.383 100.583L135.244 104.858L133.812 103.517L135.153 104.948L130.878 105.088L135.153 105.228L133.812 106.659L135.244 105.319L135.383 109.593L135.523 105.319L136.955 106.659L135.614 105.228Z" fill="#EFB85F"/>
<path d="M160.644 78.1977L164.919 78.0578L160.644 77.918L161.985 76.4866L160.553 77.8272L160.414 73.5527L160.274 77.8272L158.842 76.4866L160.183 77.918L155.908 78.0578L160.183 78.1977L158.842 79.629L160.274 78.2883L160.414 82.5628L160.553 78.2883L161.985 79.629L160.644 78.1977Z" fill="#EFB85F"/>
<path d="M160.914 327.837L161.666 331.496L164.919 332.342L161.666 333.188L160.914 336.847L160.162 333.188L156.909 332.342L160.162 331.496L160.914 327.837Z" fill="#EFB85F"/>
<path d="M148.9 290.795L149.652 294.455L152.905 295.3L149.652 296.146L148.9 299.805L148.148 296.146L144.895 295.3L148.148 294.455L148.9 290.795Z" fill="#EFB85F"/>
<path d="M121.867 213.709L122.619 217.369L125.872 218.214L122.619 219.06L121.867 222.72L121.115 219.06L117.862 218.214L121.115 217.369L121.867 213.709Z" fill="#EFB85F"/>
<path d="M146.897 138.625L147.649 142.285L150.902 143.13L147.649 143.976L146.897 147.636L146.145 143.976L142.893 143.13L146.145 142.285L146.897 138.625Z" fill="#EFB85F"/>
<path d="M196.958 163.653L197.71 167.313L200.963 168.158L197.71 169.004L196.958 172.663L196.205 169.004L192.953 168.158L196.205 167.313L196.958 163.653Z" fill="#EFB85F"/>
<path d="M115.86 343.855L116.612 347.514L119.865 348.36L116.612 349.206L115.86 352.865L115.108 349.206L111.855 348.36L115.108 347.514L115.86 343.855Z" fill="#EFB85F"/>
<circle cx="41.7197" cy="29.4702" r="1" fill="#EFB85F"/>
<path d="M28.2542 36.5112L29.4514 38.4882L31.7582 39.5146L29.4514 40.5406L28.2542 42.518L27.0566 40.5406L24.7498 39.5146L27.0566 38.4882L28.2542 36.5112Z" fill="#EFB85F"/>
<path d="M64.5282 89.2099L68.8031 89.07L64.5282 88.9302L65.869 87.4988L64.4375 88.8394L64.2977 84.5649L64.1578 88.8394L62.7264 87.4988L64.0671 88.9302L59.7922 89.07L64.0671 89.2099L62.7264 90.6412L64.1578 89.3005L64.2977 93.575L64.4375 89.3005L65.869 90.6412L64.5282 89.2099Z" fill="#EFB85F"/>
<path d="M136.615 182.314L140.89 182.174L136.615 182.034L137.956 180.603L136.524 181.943L136.385 177.669L136.245 181.943L134.813 180.603L136.154 182.034L131.879 182.174L136.154 182.314L134.813 183.745L136.245 182.405L136.385 186.679L136.524 182.405L137.956 183.745L136.615 182.314Z" fill="#EFB85F"/>
<path d="M145.626 221.358L149.901 221.218L145.626 221.078L146.967 219.647L145.535 220.987L145.396 216.713L145.256 220.987L143.824 219.647L145.165 221.078L140.89 221.218L145.165 221.358L143.824 222.789L145.256 221.448L145.396 225.723L145.535 221.448L146.967 222.789L145.626 221.358Z" fill="#EFB85F"/>
<path d="M139.619 272.415L143.894 272.275L139.619 272.135L140.96 270.704L139.528 272.045L139.388 267.77L139.248 272.045L137.817 270.704L139.158 272.135L134.883 272.275L139.158 272.415L137.817 273.846L139.248 272.506L139.388 276.78L139.528 272.506L140.96 273.846L139.619 272.415Z" fill="#EFB85F"/>
<circle cx="39.7197" cy="93.4702" r="1" fill="#EFB85F"/>
<circle cx="60.7197" cy="106.47" r="1" fill="#EFB85F"/>
<circle cx="231.72" cy="24.4702" r="1" fill="#EFB85F"/>
<circle cx="265.72" cy="33.4702" r="1" fill="#EFB85F"/>
<circle cx="265.72" cy="33.4702" r="1" fill="#EFB85F"/>
<circle cx="267.72" cy="34.4702" r="1" fill="#EFB85F"/>
<path d="M267.774 92.2133L272.048 92.0734L267.774 91.9336L269.114 90.5022L267.683 91.8429L267.543 87.5684L267.403 91.8429L265.972 90.5022L267.312 91.9336L263.038 92.0734L267.312 92.2133L265.972 93.6446L267.403 92.3039L267.543 96.5784L267.683 92.3039L269.114 93.6446L267.774 92.2133Z" fill="#EFB85F"/>
<path d="M267.774 92.2133L272.048 92.0734L267.774 91.9336L269.114 90.5022L267.683 91.8429L267.543 87.5684L267.403 91.8429L265.972 90.5022L267.312 91.9336L263.038 92.0734L267.312 92.2133L265.972 93.6446L267.403 92.3039L267.543 96.5784L267.683 92.3039L269.114 93.6446L267.774 92.2133Z" fill="#EFB85F"/>
<path d="M177.434 124.61L178.632 126.587L180.938 127.613L178.632 128.639L177.434 130.617L176.237 128.639L173.93 127.613L176.237 126.587L177.434 124.61Z" fill="#EFB85F"/>
<g clip-path="url(#clip1_186_19586)">
<path d="M41.624 62.0049C41.5882 62.0622 41.4987 62.0765 41.3555 62.0479C41.2194 62.012 41.0583 61.9941 40.8721 61.9941C40.6859 61.9941 40.4209 62.0335 40.0771 62.1123C39.7406 62.1839 39.207 62.2985 38.4766 62.4561C37.7461 62.6208 37.0801 62.7031 36.4785 62.7031C35.1178 62.7031 33.7965 62.3844 32.5146 61.7471C31.2399 61.1025 30.2194 60.193 29.4531 59.0186C28.6868 57.8369 28.3037 56.4691 28.3037 54.915C28.3037 53.361 28.6868 51.9538 29.4531 50.6934C30.5703 48.8457 32.2533 47.6426 34.502 47.084C35.2181 46.9049 35.9342 46.8154 36.6504 46.8154C37.6315 46.8154 38.7952 46.9801 40.1416 47.3096C40.5498 47.4098 40.8936 47.5137 41.1729 47.6211C41.4593 47.7285 41.6348 47.7822 41.6992 47.7822L42.0215 47.6963H42.3545C42.4404 47.6963 42.4834 47.7572 42.4834 47.8789V51.2197C42.4834 51.2913 42.4189 51.3271 42.29 51.3271C42.1611 51.3271 42.0859 51.3128 42.0645 51.2842C42.043 51.2484 42.0215 51.209 42 51.166C41.9785 51.1159 41.9535 51.0658 41.9248 51.0156C41.9033 50.9655 41.8783 50.9189 41.8496 50.876C41.8281 50.833 41.8138 50.8008 41.8066 50.7793C40.7324 48.6237 39.1032 47.5459 36.9189 47.5459C34.9495 47.5459 33.4098 48.1725 32.2998 49.4258C31.1898 50.679 30.6348 52.3405 30.6348 54.4102C30.6348 56.4727 31.2435 58.2451 32.4609 59.7275C33.6855 61.21 35.347 61.9512 37.4453 61.9512C38.5911 61.9512 39.6331 61.611 40.5713 60.9307C41.5166 60.2503 42.2578 59.416 42.7949 58.4277C42.8092 58.3848 42.8522 58.3633 42.9238 58.3633H43.0635C43.1351 58.3633 43.1709 58.4062 43.1709 58.4922C43.1709 58.5781 43.1494 58.6605 43.1064 58.7393L41.624 62.0049ZM44.8037 57.5898C44.8037 56.179 45.3014 54.9688 46.2969 53.959C47.2995 52.9421 48.499 52.4336 49.8955 52.4336C51.292 52.4336 52.5059 52.9277 53.5371 53.916C54.5684 54.8971 55.084 56.111 55.084 57.5576C55.084 59.0042 54.5934 60.2253 53.6123 61.2207C52.6383 62.209 51.4137 62.7031 49.9385 62.7031C48.4632 62.7031 47.2386 62.2018 46.2646 61.1992C45.2907 60.1966 44.8037 58.9935 44.8037 57.5898ZM47.4785 60.3506C48.1803 61.5322 49.1364 62.123 50.3467 62.123C51.2848 62.123 52.001 61.7471 52.4951 60.9951C52.9964 60.2432 53.2471 59.3193 53.2471 58.2236C53.2471 57.1279 52.8962 56.0036 52.1943 54.8506C51.4997 53.6976 50.5615 53.1211 49.3799 53.1211C48.5133 53.1211 47.8294 53.4971 47.3281 54.249C46.834 54.9938 46.5869 55.9427 46.5869 57.0957C46.5869 58.2415 46.8841 59.3265 47.4785 60.3506ZM64.5371 59.0293L64.5156 56.7627C64.5156 55.8389 64.4368 55.1908 64.2793 54.8184C64.1217 54.446 63.9212 54.1667 63.6777 53.9805C63.4342 53.7871 63.1048 53.6904 62.6895 53.6904C62.2812 53.6904 61.4111 54.0127 60.0791 54.6572C59.9001 54.7646 59.807 54.8649 59.7998 54.958V60.7373C59.7998 61.4606 60.1865 61.876 60.96 61.9834C61.2965 62.0335 61.4648 62.1159 61.4648 62.2305C61.4648 62.3379 61.429 62.3988 61.3574 62.4131H56.5664C56.4948 62.3988 56.459 62.3486 56.459 62.2627C56.459 62.1266 56.6273 62.0335 56.9639 61.9834C57.7373 61.876 58.124 61.4606 58.124 60.7373V54.5713C58.124 54.2705 57.9593 54.0628 57.6299 53.9482C57.4867 53.8981 57.3327 53.8587 57.168 53.8301C57.0033 53.7943 56.8708 53.762 56.7705 53.7334C56.6774 53.7048 56.6165 53.6797 56.5879 53.6582C56.5664 53.6296 56.5557 53.5758 56.5557 53.4971C56.5557 53.4111 56.6094 53.3395 56.7168 53.2822L59.4561 51.9932C59.542 51.9502 59.5957 51.9287 59.6172 51.9287C59.7389 51.9287 59.7998 52.0146 59.7998 52.1865V53.8623C59.8213 53.9339 59.8499 53.9697 59.8857 53.9697C59.9287 53.9697 60.0827 53.9053 60.3477 53.7764C60.9635 53.4684 61.583 53.1712 62.2061 52.8848C62.8291 52.5983 63.3447 52.4551 63.7529 52.4551C65.4072 52.4551 66.2344 53.9626 66.2344 56.9775L66.1377 60.1143V60.7373C66.1377 61.2959 66.417 61.6611 66.9756 61.833C67.2119 61.9118 67.4375 61.9691 67.6523 62.0049C67.8743 62.0335 68.0176 62.0622 68.082 62.0908C68.1536 62.1195 68.1895 62.1768 68.1895 62.2627C68.1895 62.3486 68.1536 62.3988 68.082 62.4131H62.9043C62.8327 62.3988 62.7969 62.3486 62.7969 62.2627C62.7969 62.1266 62.9652 62.0335 63.3018 61.9834C64.068 61.876 64.4512 61.432 64.4512 60.6514C64.5085 60.2933 64.5371 59.7526 64.5371 59.0293ZM74.3662 55.0654C74.3662 55.223 74.3053 55.3018 74.1836 55.3018C74.069 55.3018 73.9795 55.2158 73.915 55.0439C73.7432 54.5713 73.4854 54.1523 73.1416 53.7871C72.805 53.4219 72.3861 53.2393 71.8848 53.2393C71.2259 53.2393 70.7819 53.5687 70.5527 54.2275C70.4811 54.4495 70.4453 54.6787 70.4453 54.915C70.4453 55.1514 70.5957 55.4163 70.8965 55.71C71.1973 55.9964 71.6914 56.3402 72.3789 56.7412C73.0664 57.1423 73.5677 57.4824 73.8828 57.7617C74.599 58.3991 74.957 59.1367 74.957 59.9746C74.957 60.8125 74.6491 61.4785 74.0332 61.9727C73.4173 62.4596 72.7012 62.7031 71.8848 62.7031C71.4479 62.7031 71.0505 62.6423 70.6924 62.5205C70.3415 62.4059 70.1374 62.3486 70.0801 62.3486C70.0299 62.3486 69.944 62.4059 69.8223 62.5205C69.7077 62.6423 69.6146 62.7031 69.543 62.7031H69.3604C69.3174 62.7031 69.2637 62.3164 69.1992 61.543C69.1348 60.7695 69.1025 60.3112 69.1025 60.168C69.1025 60.0247 69.1133 59.946 69.1348 59.9316C69.1634 59.9173 69.2064 59.9102 69.2637 59.9102C69.321 59.9102 69.3675 59.9281 69.4033 59.9639C69.4463 59.9997 69.4821 60.0462 69.5107 60.1035C69.5394 60.1536 69.5609 60.2074 69.5752 60.2646C69.5967 60.3219 69.6432 60.4294 69.7148 60.5869C70.2018 61.6253 70.9538 62.1445 71.9707 62.1445C72.4219 62.1445 72.7835 61.9798 73.0557 61.6504C73.3278 61.3138 73.4639 60.9414 73.4639 60.5332C73.4639 60.125 73.3564 59.7812 73.1416 59.502C72.9268 59.2227 72.6582 58.9684 72.3359 58.7393C72.0208 58.5101 71.6771 58.2881 71.3047 58.0732C69.8581 57.2282 69.1348 56.2936 69.1348 55.2695C69.1348 54.5033 69.4642 53.8444 70.123 53.293C70.7819 52.7344 71.4587 52.4551 72.1533 52.4551C72.848 52.4551 73.36 52.5303 73.6895 52.6807C74.026 52.8311 74.223 52.96 74.2803 53.0674C74.3376 53.1676 74.3662 53.5042 74.3662 54.0771V55.0654ZM79.1357 54.1523C79.0928 54.1523 79.0713 54.1846 79.0713 54.249V60.1787C79.0713 60.6084 79.1644 60.945 79.3506 61.1885C79.5439 61.432 79.7874 61.5537 80.0811 61.5537C80.3747 61.5537 80.6289 61.5072 80.8438 61.4141C81.0658 61.3138 81.2555 61.2064 81.4131 61.0918C81.5778 60.9772 81.7246 60.8734 81.8535 60.7803C81.9824 60.68 82.097 60.6299 82.1973 60.6299C82.2975 60.6299 82.3477 60.6549 82.3477 60.7051C82.3477 60.877 82.3298 60.988 82.2939 61.0381C81.4346 62.1481 80.6038 62.7031 79.8018 62.7031C79.0068 62.7031 78.4053 62.4525 77.9971 61.9512C77.596 61.4427 77.3955 60.8376 77.3955 60.1357V54.1523H76.5898C76.3893 54.1523 76.2819 54.0879 76.2676 53.959C76.2604 53.8301 76.2819 53.7477 76.332 53.7119C76.7116 53.4684 77.2344 53.0316 77.9004 52.4014C77.972 52.3226 78.0687 52.2044 78.1904 52.0469C78.3122 51.8893 78.4876 51.6745 78.7168 51.4023C78.9531 51.1302 79.1322 50.9941 79.2539 50.9941C79.3757 50.9941 79.4365 51.0443 79.4365 51.1445C79.4365 51.1589 79.3148 51.6279 79.0713 52.5518C79.0713 52.6807 79.1286 52.7487 79.2432 52.7559H81.9824C82.2975 52.7559 82.4551 53.1999 82.4551 54.0879C82.4551 54.1309 82.4264 54.1523 82.3691 54.1523H79.1357ZM85.2158 56.752C85.0941 56.752 85.0332 57.0133 85.0332 57.5361C85.0332 58.6462 85.3626 59.5771 86.0215 60.3291C86.6803 61.0811 87.4967 61.457 88.4707 61.457C89.4518 61.457 90.3936 61.0345 91.2959 60.1895C91.3102 60.1751 91.3281 60.168 91.3496 60.168H91.4033C91.4463 60.168 91.4857 60.2038 91.5215 60.2754C91.5645 60.3398 91.6038 60.3828 91.6396 60.4043C90.8089 61.4141 89.8314 62.1123 88.707 62.499C88.3203 62.6351 87.8835 62.7031 87.3965 62.7031C86.9095 62.7031 86.4154 62.5706 85.9141 62.3057C85.4128 62.0335 84.9831 61.679 84.625 61.2422C83.8659 60.3327 83.4863 59.2012 83.4863 57.8477C83.4863 56.487 83.8981 55.248 84.7217 54.1309C85.5524 53.0137 86.6911 52.4551 88.1377 52.4551C89.1761 52.4551 90.0247 52.9206 90.6836 53.8516C91.3424 54.7754 91.6719 55.5882 91.6719 56.29C91.6719 56.598 91.5967 56.752 91.4463 56.752H85.2158ZM85.334 55.7207C85.334 55.8568 85.3984 55.9248 85.5273 55.9248H89.5771C89.7633 55.9248 89.8564 55.8138 89.8564 55.5918C89.8564 55.0762 89.6237 54.5498 89.1582 54.0127C88.6999 53.4684 88.195 53.1963 87.6436 53.1963C87.1064 53.1963 86.6159 53.4398 86.1719 53.9268C85.735 54.4137 85.4557 54.9688 85.334 55.5918V55.7207ZM97.4404 62.0049C97.777 62.0479 97.9453 62.1338 97.9453 62.2627C97.9453 62.3486 97.9095 62.3988 97.8379 62.4131H93.0469C92.9753 62.3988 92.9395 62.3486 92.9395 62.2627C92.9395 62.1338 93.1077 62.0479 93.4443 62.0049C94.2178 61.8903 94.6045 61.4821 94.6045 60.7803V47.3848C94.6045 47.084 94.4398 46.8763 94.1104 46.7617C93.9671 46.7116 93.8132 46.6722 93.6484 46.6436C93.4837 46.6077 93.3512 46.5755 93.251 46.5469C93.1579 46.5182 93.097 46.4932 93.0684 46.4717C93.0469 46.443 93.0361 46.3893 93.0361 46.3105C93.0361 46.2246 93.0898 46.153 93.1973 46.0957L95.9365 44.8066C96.0225 44.7637 96.0762 44.7422 96.0977 44.7422C96.2194 44.7422 96.2803 44.8281 96.2803 45V60.7803C96.2803 61.4821 96.667 61.8903 97.4404 62.0049ZM103.048 62.0049C103.384 62.0479 103.553 62.1338 103.553 62.2627C103.553 62.3486 103.517 62.3988 103.445 62.4131H98.6543C98.5827 62.3988 98.5469 62.3486 98.5469 62.2627C98.5469 62.1338 98.7152 62.0479 99.0518 62.0049C99.8252 61.8903 100.212 61.4821 100.212 60.7803V47.3848C100.212 47.084 100.047 46.8763 99.7178 46.7617C99.5745 46.7116 99.4206 46.6722 99.2559 46.6436C99.0911 46.6077 98.9587 46.5755 98.8584 46.5469C98.7653 46.5182 98.7044 46.4932 98.6758 46.4717C98.6543 46.443 98.6436 46.3893 98.6436 46.3105C98.6436 46.2246 98.6973 46.153 98.8047 46.0957L101.544 44.8066C101.63 44.7637 101.684 44.7422 101.705 44.7422C101.827 44.7422 101.888 44.8281 101.888 45V60.7803C101.888 61.4821 102.274 61.8903 103.048 62.0049ZM111.33 60.6406C111.33 60.8268 111.416 60.9772 111.588 61.0918C111.767 61.1992 111.971 61.2529 112.2 61.2529C112.429 61.2529 112.619 61.1956 112.77 61.0811C112.927 60.9593 113.035 60.8984 113.092 60.8984C113.149 60.8984 113.178 60.9772 113.178 61.1348C113.178 61.2852 113.106 61.4141 112.963 61.5215C111.889 62.3092 111.162 62.7031 110.782 62.7031C110.324 62.7031 109.951 62.2269 109.665 61.2744C109.644 61.2028 109.626 61.1706 109.611 61.1777C108.723 61.8438 108.165 62.2448 107.936 62.3809C107.348 62.7174 106.757 62.7712 106.163 62.542C105.576 62.3128 105.15 61.9333 104.885 61.4033C104.756 61.1312 104.691 60.8411 104.691 60.5332C104.691 59.9245 104.917 59.4411 105.368 59.083C105.819 58.7249 106.679 58.3812 107.946 58.0518C108.376 57.9372 108.759 57.7904 109.096 57.6113C109.432 57.4323 109.608 57.3177 109.622 57.2676C109.644 57.2174 109.654 57.1709 109.654 57.1279V55.0654C109.654 54.2562 109.339 53.6868 108.709 53.3574C108.501 53.25 108.251 53.1963 107.957 53.1963C107.671 53.1963 107.377 53.3109 107.076 53.54C106.783 53.7692 106.636 54.0951 106.636 54.5176L106.689 54.9365C106.646 55.0225 106.389 55.1657 105.916 55.3662C105.443 55.5667 105.171 55.6742 105.1 55.6885C104.985 55.6885 104.928 55.5524 104.928 55.2803C104.928 55.001 105.01 54.693 105.175 54.3564C105.34 54.0199 105.572 53.7119 105.873 53.4326C106.575 52.7809 107.377 52.4551 108.279 52.4551C109.182 52.4551 109.916 52.7057 110.481 53.207C111.047 53.7012 111.33 54.292 111.33 54.9795V60.6406ZM106.378 60.3291C106.378 60.6729 106.51 60.9736 106.775 61.2314C107.04 61.4821 107.341 61.6074 107.678 61.6074C108.021 61.6074 108.437 61.4642 108.924 61.1777C109.411 60.8841 109.654 60.5833 109.654 60.2754V58.0947C109.654 58.016 109.636 57.9766 109.601 57.9766C109.565 57.9766 109.54 57.9801 109.525 57.9873L107.033 59.1475C106.775 59.3337 106.6 59.4912 106.507 59.6201C106.421 59.749 106.378 59.9854 106.378 60.3291ZM116.819 54.1523C116.776 54.1523 116.755 54.1846 116.755 54.249V60.1787C116.755 60.6084 116.848 60.945 117.034 61.1885C117.228 61.432 117.471 61.5537 117.765 61.5537C118.058 61.5537 118.312 61.5072 118.527 61.4141C118.749 61.3138 118.939 61.2064 119.097 61.0918C119.261 60.9772 119.408 60.8734 119.537 60.7803C119.666 60.68 119.781 60.6299 119.881 60.6299C119.981 60.6299 120.031 60.6549 120.031 60.7051C120.031 60.877 120.013 60.988 119.978 61.0381C119.118 62.1481 118.287 62.7031 117.485 62.7031C116.69 62.7031 116.089 62.4525 115.681 61.9512C115.28 61.4427 115.079 60.8376 115.079 60.1357V54.1523H114.273C114.073 54.1523 113.965 54.0879 113.951 53.959C113.944 53.8301 113.965 53.7477 114.016 53.7119C114.395 53.4684 114.918 53.0316 115.584 52.4014C115.656 52.3226 115.752 52.2044 115.874 52.0469C115.996 51.8893 116.171 51.6745 116.4 51.4023C116.637 51.1302 116.816 50.9941 116.938 50.9941C117.059 50.9941 117.12 51.0443 117.12 51.1445C117.12 51.1589 116.998 51.6279 116.755 52.5518C116.755 52.6807 116.812 52.7487 116.927 52.7559H119.666C119.981 52.7559 120.139 53.1999 120.139 54.0879C120.139 54.1309 120.11 54.1523 120.053 54.1523H116.819ZM121.17 62.4131C121.098 62.3988 121.062 62.3486 121.062 62.2627C121.062 62.1338 121.231 62.0479 121.567 62.0049C122.341 61.8903 122.728 61.4821 122.728 60.7803V55.0977C122.728 54.7969 122.563 54.5892 122.233 54.4746C122.09 54.4245 121.936 54.3851 121.771 54.3564C121.607 54.3206 121.474 54.2884 121.374 54.2598C121.281 54.2311 121.22 54.2061 121.191 54.1846C121.17 54.1559 121.159 54.1022 121.159 54.0234C121.159 53.9375 121.213 53.8659 121.32 53.8086L124.06 52.5195C124.146 52.4766 124.199 52.4551 124.221 52.4551C124.342 52.4551 124.403 52.541 124.403 52.7129V60.7803C124.403 61.4821 124.79 61.8903 125.563 62.0049C125.9 62.0479 126.068 62.123 126.068 62.2305C126.068 62.3379 126.033 62.3988 125.961 62.4131H121.17ZM123.404 49.4365C123.111 49.4365 122.849 49.3434 122.62 49.1572C122.398 48.971 122.287 48.7132 122.287 48.3838C122.287 48.0472 122.395 47.7822 122.609 47.5889C122.824 47.3955 123.078 47.2988 123.372 47.2988C123.673 47.2988 123.924 47.4134 124.124 47.6426C124.332 47.8717 124.436 48.1188 124.436 48.3838C124.436 48.6488 124.339 48.8923 124.146 49.1143C123.952 49.3291 123.705 49.4365 123.404 49.4365ZM127.411 57.5898C127.411 56.179 127.909 54.9688 128.904 53.959C129.907 52.9421 131.106 52.4336 132.503 52.4336C133.899 52.4336 135.113 52.9277 136.145 53.916C137.176 54.8971 137.691 56.111 137.691 57.5576C137.691 59.0042 137.201 60.2253 136.22 61.2207C135.246 62.209 134.021 62.7031 132.546 62.7031C131.071 62.7031 129.846 62.2018 128.872 61.1992C127.898 60.1966 127.411 58.9935 127.411 57.5898ZM130.086 60.3506C130.788 61.5322 131.744 62.123 132.954 62.123C133.892 62.123 134.608 61.7471 135.103 60.9951C135.604 60.2432 135.854 59.3193 135.854 58.2236C135.854 57.1279 135.504 56.0036 134.802 54.8506C134.107 53.6976 133.169 53.1211 131.987 53.1211C131.121 53.1211 130.437 53.4971 129.936 54.249C129.441 54.9938 129.194 55.9427 129.194 57.0957C129.194 58.2415 129.492 59.3265 130.086 60.3506ZM147.145 59.0293L147.123 56.7627C147.123 55.8389 147.044 55.1908 146.887 54.8184C146.729 54.446 146.529 54.1667 146.285 53.9805C146.042 53.7871 145.712 53.6904 145.297 53.6904C144.889 53.6904 144.019 54.0127 142.687 54.6572C142.507 54.7646 142.414 54.8649 142.407 54.958V60.7373C142.407 61.4606 142.794 61.876 143.567 61.9834C143.904 62.0335 144.072 62.1159 144.072 62.2305C144.072 62.3379 144.036 62.3988 143.965 62.4131H139.174C139.102 62.3988 139.066 62.3486 139.066 62.2627C139.066 62.1266 139.235 62.0335 139.571 61.9834C140.345 61.876 140.731 61.4606 140.731 60.7373V54.5713C140.731 54.2705 140.567 54.0628 140.237 53.9482C140.094 53.8981 139.94 53.8587 139.775 53.8301C139.611 53.7943 139.478 53.762 139.378 53.7334C139.285 53.7048 139.224 53.6797 139.195 53.6582C139.174 53.6296 139.163 53.5758 139.163 53.4971C139.163 53.4111 139.217 53.3395 139.324 53.2822L142.063 51.9932C142.149 51.9502 142.203 51.9287 142.225 51.9287C142.346 51.9287 142.407 52.0146 142.407 52.1865V53.8623C142.429 53.9339 142.457 53.9697 142.493 53.9697C142.536 53.9697 142.69 53.9053 142.955 53.7764C143.571 53.4684 144.19 53.1712 144.813 52.8848C145.437 52.5983 145.952 52.4551 146.36 52.4551C148.015 52.4551 148.842 53.9626 148.842 56.9775L148.745 60.1143V60.7373C148.745 61.2959 149.024 61.6611 149.583 61.833C149.819 61.9118 150.045 61.9691 150.26 62.0049C150.482 62.0335 150.625 62.0622 150.689 62.0908C150.761 62.1195 150.797 62.1768 150.797 62.2627C150.797 62.3486 150.761 62.3988 150.689 62.4131H145.512C145.44 62.3988 145.404 62.3486 145.404 62.2627C145.404 62.1266 145.573 62.0335 145.909 61.9834C146.675 61.876 147.059 61.432 147.059 60.6514C147.116 60.2933 147.145 59.7526 147.145 59.0293ZM164.3 52.9062C164.615 53.0137 164.808 53.0674 164.88 53.0674C164.951 53.0674 164.994 53.0674 165.009 53.0674C165.03 53.0602 165.055 53.0137 165.084 52.9277V47.3848C165.084 47.084 164.919 46.8763 164.59 46.7617C164.447 46.7116 164.293 46.6722 164.128 46.6436C163.963 46.6077 163.831 46.5755 163.73 46.5469C163.637 46.5182 163.576 46.4932 163.548 46.4717C163.526 46.443 163.516 46.3893 163.516 46.3105C163.516 46.2246 163.569 46.153 163.677 46.0957L166.416 44.8066C166.502 44.7637 166.556 44.7422 166.577 44.7422C166.699 44.7422 166.76 44.8281 166.76 45V60.2969C166.796 60.612 166.885 60.8376 167.028 60.9736C167.172 61.1097 167.404 61.1777 167.727 61.1777L168.35 61.1348C168.393 61.1348 168.414 61.1777 168.414 61.2637C168.414 61.3424 168.36 61.4069 168.253 61.457L165.396 62.6387C165.31 62.6816 165.234 62.7031 165.17 62.7031C165.113 62.7031 165.084 62.6136 165.084 62.4346V61.457C165.084 61.3854 165.066 61.3496 165.03 61.3496C164.98 61.3496 164.683 61.5107 164.139 61.833C162.47 62.8213 161.063 62.9681 159.917 62.2734C159 61.7148 158.381 60.8304 158.059 59.6201C157.908 59.0544 157.833 58.4564 157.833 57.8262C157.833 57.1888 157.962 56.5586 158.22 55.9355C158.485 55.3053 158.846 54.7539 159.305 54.2812C160.314 53.25 161.532 52.7344 162.957 52.7344C163.537 52.7344 163.985 52.7917 164.3 52.9062ZM159.455 57.5146C159.455 58.596 159.756 59.5449 160.357 60.3613C160.959 61.1706 161.797 61.5752 162.871 61.5752C163.344 61.5752 163.831 61.4606 164.332 61.2314C164.833 60.9951 165.084 60.8161 165.084 60.6943V55.1514C165.084 55.0153 164.991 54.8542 164.805 54.668C164.232 53.8802 163.469 53.4863 162.517 53.4863C161.571 53.4863 160.823 53.8874 160.271 54.6895C159.727 55.4844 159.455 56.4261 159.455 57.5146ZM176.729 61.4678C176.693 61.346 176.646 61.3066 176.589 61.3496C176.532 61.3854 176.299 61.5072 175.891 61.7148C174.551 62.3809 173.434 62.7139 172.539 62.7139C171.644 62.7139 170.999 62.4274 170.605 61.8545C170.462 61.6396 170.391 61.3747 170.391 61.0596V54.5068C170.369 54.2992 170.276 54.1201 170.111 53.9697C169.889 53.7835 169.657 53.6833 169.413 53.6689C169.177 53.6546 169.059 53.583 169.059 53.4541C169.059 53.318 169.116 53.2357 169.23 53.207L171.69 52.498C171.776 52.4694 171.859 52.4551 171.938 52.4551C172.023 52.4551 172.066 52.516 172.066 52.6377V59.8457C172.066 60.347 172.288 60.7337 172.732 61.0059C173.176 61.278 173.742 61.4141 174.43 61.4141C175.124 61.4141 175.747 61.2028 176.299 60.7803C176.471 60.6442 176.614 60.4938 176.729 60.3291V54.5068C176.707 54.2992 176.614 54.1201 176.449 53.9697C176.227 53.7835 175.994 53.6833 175.751 53.6689C175.515 53.6546 175.396 53.583 175.396 53.4541C175.396 53.318 175.454 53.2357 175.568 53.207L178.028 52.498C178.114 52.4694 178.197 52.4551 178.275 52.4551C178.361 52.4551 178.404 52.5267 178.404 52.6699V60.2969C178.44 60.612 178.53 60.8376 178.673 60.9736C178.816 61.1097 179.049 61.1777 179.371 61.1777L179.994 61.1348C180.037 61.1348 180.059 61.1777 180.059 61.2637C180.059 61.3424 180.005 61.4069 179.897 61.457L177.04 62.6387C176.954 62.6816 176.879 62.7031 176.814 62.7031C176.757 62.7031 176.729 62.6136 176.729 62.4346V61.4678ZM195.678 47.3955C195.749 47.3955 195.785 47.4743 195.785 47.6318L196.064 49.9199C196.093 50.0632 196.107 50.1562 196.107 50.1992C196.107 50.235 196.05 50.2529 195.936 50.2529C195.828 50.2529 195.76 50.2386 195.731 50.21C195.703 50.1813 195.674 50.1348 195.646 50.0703C195.617 49.9987 195.581 49.9199 195.538 49.834C195.502 49.748 195.463 49.6621 195.42 49.5762C195.27 49.2467 195.033 48.9209 194.711 48.5986C193.923 47.8395 193.035 47.46 192.047 47.46C191.452 47.46 190.89 47.6533 190.36 48.04C189.83 48.4268 189.565 48.8851 189.565 49.415C189.565 49.9378 189.662 50.3926 189.855 50.7793C190.056 51.166 190.317 51.5241 190.64 51.8535C190.962 52.1829 191.331 52.498 191.746 52.7988C192.161 53.0996 192.584 53.404 193.014 53.7119C194.152 54.5068 194.962 55.1872 195.441 55.7529C196.193 56.6266 196.602 57.6077 196.666 58.6963C196.666 59.9137 196.197 60.8877 195.259 61.6182C194.328 62.3415 193.243 62.7031 192.004 62.7031C191.209 62.7031 190.575 62.6208 190.103 62.4561C189.637 62.2985 189.315 62.1839 189.136 62.1123C188.957 62.0407 188.824 62.0049 188.738 62.0049C188.66 62.0049 188.609 62.0085 188.588 62.0156L188.062 62.123C187.968 62.123 187.911 62.0479 187.89 61.8975C187.682 60.1214 187.578 59.1797 187.578 59.0723C187.578 58.9577 187.585 58.8825 187.6 58.8467C187.621 58.8037 187.671 58.7822 187.75 58.7822C187.951 58.7822 188.133 59.0687 188.298 59.6416C189.05 61.2529 190.299 62.0586 192.047 62.0586C192.849 62.0586 193.533 61.8151 194.099 61.3281C194.672 60.8411 194.958 60.2074 194.958 59.4268C194.958 58.1807 194.213 57.0205 192.724 55.9463C192.301 55.6455 191.692 55.2266 190.897 54.6895C190.103 54.1523 189.469 53.6152 188.996 53.0781C188.258 52.2474 187.89 51.3236 187.89 50.3066C187.89 49.2826 188.294 48.4447 189.104 47.793C189.92 47.1413 190.854 46.8154 191.907 46.8154C192.451 46.8154 193.049 46.9085 193.701 47.0947C194.36 47.2809 194.818 47.4062 195.076 47.4707L195.678 47.3955ZM206.817 53.7441C206.817 54.2454 206.527 54.4961 205.947 54.4961C205.654 54.4961 205.403 54.4137 205.195 54.249C204.995 54.0771 204.837 53.9339 204.723 53.8193C204.615 53.6976 204.501 53.5866 204.379 53.4863C203.863 53.0638 203.233 53.0173 202.488 53.3467C201.751 53.6761 201.181 54.3779 200.78 55.4521C200.558 56.0465 200.447 56.6374 200.447 57.2246C200.447 58.485 200.734 59.5163 201.307 60.3184C201.88 61.1133 202.757 61.5107 203.938 61.5107C204.819 61.5107 205.611 61.1169 206.312 60.3291C206.527 60.0928 206.656 59.9746 206.699 59.9746C206.742 59.9746 206.789 59.9961 206.839 60.0391C206.889 60.082 206.914 60.1465 206.914 60.2324C206.914 60.3112 206.893 60.3721 206.85 60.415C205.754 61.9404 204.375 62.7031 202.714 62.7031C201.511 62.7031 200.522 62.2555 199.749 61.3604C198.983 60.4652 198.6 59.4411 198.6 58.2881C198.607 56.154 199.122 54.6178 200.146 53.6797C201.049 52.8561 202.334 52.4443 204.003 52.4443C205.034 52.4443 205.718 52.5482 206.055 52.7559C206.391 52.9635 206.628 53.2249 206.764 53.54C206.799 53.6117 206.817 53.6797 206.817 53.7441ZM208.472 57.5898C208.472 56.179 208.969 54.9688 209.965 53.959C210.967 52.9421 212.167 52.4336 213.563 52.4336C214.96 52.4336 216.174 52.9277 217.205 53.916C218.236 54.8971 218.752 56.111 218.752 57.5576C218.752 59.0042 218.261 60.2253 217.28 61.2207C216.306 62.209 215.082 62.7031 213.606 62.7031C212.131 62.7031 210.907 62.2018 209.933 61.1992C208.959 60.1966 208.472 58.9935 208.472 57.5898ZM211.146 60.3506C211.848 61.5322 212.804 62.123 214.015 62.123C214.953 62.123 215.669 61.7471 216.163 60.9951C216.664 60.2432 216.915 59.3193 216.915 58.2236C216.915 57.1279 216.564 56.0036 215.862 54.8506C215.168 53.6976 214.229 53.1211 213.048 53.1211C212.181 53.1211 211.497 53.4971 210.996 54.249C210.502 54.9938 210.255 55.9427 210.255 57.0957C210.255 58.2415 210.552 59.3265 211.146 60.3506ZM226.852 54.7109C226.766 54.6966 226.64 54.6501 226.476 54.5713C225.881 54.2992 225.416 54.1631 225.079 54.1631C224.743 54.1631 224.388 54.3743 224.016 54.7969C223.65 55.2122 223.468 55.5882 223.468 55.9248V60.7803C223.468 61.3174 223.779 61.6755 224.402 61.8545C224.674 61.9261 224.929 61.9798 225.165 62.0156C225.401 62.0443 225.552 62.0729 225.616 62.1016C225.688 62.1302 225.724 62.1875 225.724 62.2734C225.724 62.3522 225.688 62.3988 225.616 62.4131H220.234C220.163 62.3988 220.127 62.3486 220.127 62.2627C220.127 62.1338 220.295 62.0479 220.632 62.0049C221.405 61.8903 221.792 61.4821 221.792 60.7803V55.0977C221.792 54.7969 221.627 54.5892 221.298 54.4746C221.155 54.4245 221.001 54.3851 220.836 54.3564C220.671 54.3206 220.539 54.2884 220.438 54.2598C220.345 54.2311 220.285 54.2061 220.256 54.1846C220.234 54.1559 220.224 54.1022 220.224 54.0234C220.224 53.9375 220.277 53.8659 220.385 53.8086L223.124 52.5195C223.21 52.4766 223.264 52.4551 223.285 52.4551C223.407 52.4551 223.468 52.541 223.468 52.7129V54.4531C223.468 54.5391 223.489 54.582 223.532 54.582C223.59 54.582 223.736 54.4137 223.973 54.0771C224.653 53.1247 225.215 52.6484 225.659 52.6484C225.91 52.6484 226.293 52.7487 226.809 52.9492C227.331 53.1497 227.593 53.318 227.593 53.4541C227.593 53.6188 227.51 53.8695 227.346 54.2061C227.181 54.5426 227.016 54.7109 226.852 54.7109ZM236.444 61.2852C235.456 62.2305 234.346 62.7031 233.114 62.7031C232.67 62.7031 232.065 62.6208 231.299 62.4561C231.177 62.4561 231.109 62.499 231.095 62.585C231.088 62.6709 231.08 62.7604 231.073 62.8535V67.4404C231.073 67.9775 231.385 68.3356 232.008 68.5146C232.28 68.5863 232.534 68.6364 232.771 68.665C233.007 68.7008 233.157 68.7331 233.222 68.7617C233.293 68.7904 233.329 68.8441 233.329 68.9229C233.329 69.0088 233.293 69.0589 233.222 69.0732H227.84C227.768 69.0589 227.732 69.0088 227.732 68.9229C227.732 68.7939 227.901 68.708 228.237 68.665C229.011 68.5505 229.397 68.1423 229.397 67.4404V54.5605C229.397 54.2598 229.233 54.0521 228.903 53.9375C228.76 53.8874 228.606 53.848 228.441 53.8193C228.277 53.7835 228.144 53.7513 228.044 53.7227C227.951 53.694 227.89 53.6689 227.861 53.6475C227.84 53.6188 227.829 53.5651 227.829 53.4863C227.829 53.4004 227.883 53.3288 227.99 53.2715L230.729 51.9609C230.787 51.9323 230.844 51.918 230.901 51.918C231.016 51.918 231.073 52.0039 231.073 52.1758V53.54C231.073 53.6188 231.113 53.6582 231.191 53.6582C231.277 53.6582 231.478 53.5544 231.793 53.3467C232.702 52.7594 233.648 52.4658 234.629 52.4658C235.316 52.4658 235.947 52.7451 236.52 53.3037C237.271 54.0342 237.773 55.0511 238.023 56.3545C238.095 56.7269 238.131 57.1243 238.131 57.5469C238.131 57.9622 238.063 58.4027 237.927 58.8682C237.655 59.792 237.16 60.5977 236.444 61.2852ZM233.372 53.583C232.398 53.583 231.632 53.8623 231.073 54.4209V60.458C231.073 60.8161 231.134 61.0488 231.256 61.1562C231.571 61.4284 232.054 61.6396 232.706 61.79C233.995 62.0837 234.998 61.7757 235.714 60.8662C236.222 60.2145 236.477 59.4268 236.477 58.5029C236.477 56.7054 236.072 55.359 235.263 54.4639C234.776 53.9196 234.146 53.626 233.372 53.583ZM240.064 62.4131C239.993 62.3988 239.957 62.3486 239.957 62.2627C239.957 62.1338 240.125 62.0479 240.462 62.0049C241.235 61.8903 241.622 61.4821 241.622 60.7803V55.0977C241.622 54.7969 241.457 54.5892 241.128 54.4746C240.985 54.4245 240.831 54.3851 240.666 54.3564C240.501 54.3206 240.369 54.2884 240.269 54.2598C240.175 54.2311 240.115 54.2061 240.086 54.1846C240.064 54.1559 240.054 54.1022 240.054 54.0234C240.054 53.9375 240.107 53.8659 240.215 53.8086L242.954 52.5195C243.04 52.4766 243.094 52.4551 243.115 52.4551C243.237 52.4551 243.298 52.541 243.298 52.7129V60.7803C243.298 61.4821 243.685 61.8903 244.458 62.0049C244.795 62.0479 244.963 62.123 244.963 62.2305C244.963 62.3379 244.927 62.3988 244.855 62.4131H240.064ZM242.299 49.4365C242.005 49.4365 241.744 49.3434 241.515 49.1572C241.293 48.971 241.182 48.7132 241.182 48.3838C241.182 48.0472 241.289 47.7822 241.504 47.5889C241.719 47.3955 241.973 47.2988 242.267 47.2988C242.567 47.2988 242.818 47.4134 243.019 47.6426C243.226 47.8717 243.33 48.1188 243.33 48.3838C243.33 48.6488 243.233 48.8923 243.04 49.1143C242.847 49.3291 242.6 49.4365 242.299 49.4365ZM246.306 57.5898C246.306 56.179 246.803 54.9688 247.799 53.959C248.801 52.9421 250.001 52.4336 251.397 52.4336C252.794 52.4336 254.008 52.9277 255.039 53.916C256.07 54.8971 256.586 56.111 256.586 57.5576C256.586 59.0042 256.095 60.2253 255.114 61.2207C254.14 62.209 252.916 62.7031 251.44 62.7031C249.965 62.7031 248.741 62.2018 247.767 61.1992C246.793 60.1966 246.306 58.9935 246.306 57.5898ZM248.98 60.3506C249.682 61.5322 250.638 62.123 251.849 62.123C252.787 62.123 253.503 61.7471 253.997 60.9951C254.498 60.2432 254.749 59.3193 254.749 58.2236C254.749 57.1279 254.398 56.0036 253.696 54.8506C253.002 53.6976 252.063 53.1211 250.882 53.1211C250.015 53.1211 249.331 53.4971 248.83 54.249C248.336 54.9938 248.089 55.9427 248.089 57.0957C248.089 58.2415 248.386 59.3265 248.98 60.3506ZM266.039 59.0293L266.018 56.7627C266.018 55.8389 265.939 55.1908 265.781 54.8184C265.624 54.446 265.423 54.1667 265.18 53.9805C264.936 53.7871 264.607 53.6904 264.191 53.6904C263.783 53.6904 262.913 54.0127 261.581 54.6572C261.402 54.7646 261.309 54.8649 261.302 54.958V60.7373C261.302 61.4606 261.688 61.876 262.462 61.9834C262.799 62.0335 262.967 62.1159 262.967 62.2305C262.967 62.3379 262.931 62.3988 262.859 62.4131H258.068C257.997 62.3988 257.961 62.3486 257.961 62.2627C257.961 62.1266 258.129 62.0335 258.466 61.9834C259.239 61.876 259.626 61.4606 259.626 60.7373V54.5713C259.626 54.2705 259.461 54.0628 259.132 53.9482C258.989 53.8981 258.835 53.8587 258.67 53.8301C258.505 53.7943 258.373 53.762 258.272 53.7334C258.179 53.7048 258.118 53.6797 258.09 53.6582C258.068 53.6296 258.058 53.5758 258.058 53.4971C258.058 53.4111 258.111 53.3395 258.219 53.2822L260.958 51.9932C261.044 51.9502 261.098 51.9287 261.119 51.9287C261.241 51.9287 261.302 52.0146 261.302 52.1865V53.8623C261.323 53.9339 261.352 53.9697 261.388 53.9697C261.431 53.9697 261.585 53.9053 261.85 53.7764C262.465 53.4684 263.085 53.1712 263.708 52.8848C264.331 52.5983 264.847 52.4551 265.255 52.4551C266.909 52.4551 267.736 53.9626 267.736 56.9775L267.64 60.1143V60.7373C267.64 61.2959 267.919 61.6611 268.478 61.833C268.714 61.9118 268.939 61.9691 269.154 62.0049C269.376 62.0335 269.52 62.0622 269.584 62.0908C269.656 62.1195 269.691 62.1768 269.691 62.2627C269.691 62.3486 269.656 62.3988 269.584 62.4131H264.406C264.335 62.3988 264.299 62.3486 264.299 62.2627C264.299 62.1266 264.467 62.0335 264.804 61.9834C265.57 61.876 265.953 61.432 265.953 60.6514C266.01 60.2933 266.039 59.7526 266.039 59.0293Z" fill="#EFB85F"/>
<path d="M181.401 193.913L183.964 198.192L188.901 200.413L183.964 202.634L181.401 206.913L178.838 202.634L173.901 200.413L178.838 198.192L181.401 193.913Z" fill="#EFB85F"/>
<path d="M168.401 208.913L170.964 213.192L175.901 215.413L170.964 217.634L168.401 221.913L165.838 217.634L160.901 215.413L165.838 213.192L168.401 208.913Z" fill="#EFB85F"/>
<path d="M198.401 184.913L200.964 189.192L205.901 191.413L200.964 193.634L198.401 197.913L195.838 193.634L190.901 191.413L195.838 189.192L198.401 184.913Z" fill="#EFB85F"/>
<path d="M225.401 145.913L227.964 150.192L232.901 152.413L227.964 154.634L225.401 158.913L222.838 154.634L217.901 152.413L222.838 150.192L225.401 145.913Z" fill="#EFB85F"/>
<path d="M229.401 167.913L231.964 172.192L236.901 174.413L231.964 176.634L229.401 180.913L226.838 176.634L221.901 174.413L226.838 172.192L229.401 167.913Z" fill="#EFB85F"/>
<path d="M229.401 193.913L231.964 198.192L236.901 200.413L231.964 202.634L229.401 206.913L226.838 202.634L221.901 200.413L226.838 198.192L229.401 193.913Z" fill="#EFB85F"/>
<path d="M151.401 247.913L153.964 252.192L158.901 254.413L153.964 256.634L151.401 260.913L148.838 256.634L143.901 254.413L148.838 252.192L151.401 247.913Z" fill="#EFB85F"/>
<path d="M144.401 276.913L146.964 281.192L151.901 283.413L146.964 285.634L144.401 289.913L141.838 285.634L136.901 283.413L141.838 281.192L144.401 276.913Z" fill="#EFB85F"/>
<path d="M119.401 313.913L121.964 318.192L126.901 320.413L121.964 322.634L119.401 326.913L116.838 322.634L111.901 320.413L116.838 318.192L119.401 313.913Z" fill="#EFB85F"/>
<path d="M142.401 305.913L144.964 310.192L149.901 312.413L144.964 314.634L142.401 318.913L139.838 314.634L134.901 312.413L139.838 310.192L142.401 305.913Z" fill="#EFB85F"/>
<path d="M85.4013 313.913L87.9637 318.192L92.9009 320.413L87.9637 322.634L85.4013 326.913L82.8381 322.634L77.9009 320.413L82.8381 318.192L85.4013 313.913Z" fill="#EFB85F"/>
<path d="M66.4013 301.913L68.9637 306.192L73.9009 308.413L68.9637 310.634L66.4013 314.913L63.8381 310.634L58.9009 308.413L63.8381 306.192L66.4013 301.913Z" fill="#EFB85F"/>
<path d="M77.4013 284.913L79.9637 289.192L84.9009 291.413L79.9637 293.634L77.4013 297.913L74.8381 293.634L69.9009 291.413L74.8381 289.192L77.4013 284.913Z" fill="#EFB85F"/>
<path d="M93.4013 264.913L95.9637 269.192L100.901 271.413L95.9637 273.634L93.4013 277.913L90.8381 273.634L85.9009 271.413L90.8381 269.192L93.4013 264.913Z" fill="#EFB85F"/>
<line x1="89.4668" y1="275.175" x2="81.4668" y2="288.175" stroke="#EFB85F" stroke-dasharray="4 4"/>
<line x1="81.8016" y1="317.352" x2="70.8016" y2="311.352" stroke="#EFB85F" stroke-dasharray="4 4"/>
<line x1="91.061" y1="322.413" x2="116.061" y2="323.413" stroke="#EFB85F" stroke-dasharray="4 4"/>
<line x1="138.173" y1="315.395" x2="127.173" y2="318.395" stroke="#EFB85F" stroke-dasharray="4 4"/>
<line x1="142.542" y1="303.875" x2="143.542" y2="290.875" stroke="#EFB85F" stroke-dasharray="4 4"/>
<line x1="151.515" y1="262.071" x2="146.515" y2="277.071" stroke="#EFB85F" stroke-dasharray="4 4"/>
<line x1="153.579" y1="248.722" x2="165.579" y2="219.722" stroke="#EFB85F" stroke-dasharray="4 4"/>
<line x1="185.883" y1="197.439" x2="194.883" y2="194.439" stroke="#EFB85F" stroke-dasharray="4 4"/>
<line x1="223.9" y1="197.393" x2="206.9" y2="192.393" stroke="#EFB85F" stroke-dasharray="4 4"/>
<line x1="224.302" y1="177.34" x2="206.302" y2="188.34" stroke="#EFB85F" stroke-dasharray="4 4"/>
<line x1="222.465" y1="156.178" x2="202.465" y2="188.178" stroke="#EFB85F" stroke-dasharray="4 4"/>
<line x1="178.421" y1="204.238" x2="172.421" y2="211.238" stroke="#EFB85F" stroke-dasharray="4 4"/>
</g>
</g>
<defs>
<clipPath id="clip0_186_19586">
<rect width="297.638" height="419.528" rx="10" fill="white"/>
</clipPath>
<clipPath id="clip1_186_19586">
<rect width="259" height="381" fill="white" transform="translate(19.041 19.4131)"/>
</clipPath>
</defs>
</svg>
