<svg width="298" height="420" viewBox="0 0 298 420" fill="none" xmlns="http://www.w3.org/2000/svg">
<g clip-path="url(#clip0_549_86625)">
<g clip-path="url(#clip1_549_86625)">
<rect width="297.638" height="419.528" rx="10" fill="#032206"/>
<rect x="12" y="12" width="273" height="396" rx="9" stroke="#EFB85F" stroke-width="2"/>
<rect x="19.5" y="19.5" width="258" height="380" rx="6.5" stroke="#EFB85F"/>
<circle cx="76.7197" cy="259.47" r="1" fill="#EFB85F"/>
<circle cx="211.72" cy="129.47" r="1" fill="#EFB85F"/>
<circle cx="241.72" cy="96.4702" r="1" fill="#EFB85F"/>
<circle cx="125.72" cy="66.4702" r="1" fill="#EFB85F"/>
<circle cx="59.7197" cy="98.4702" r="1" fill="#EFB85F"/>
<circle cx="187.72" cy="97.4702" r="1" fill="#EFB85F"/>
<circle cx="50.7197" cy="187.47" r="1" fill="#EFB85F"/>
<circle cx="50.7197" cy="187.47" r="1" fill="#EFB85F"/>
<circle cx="50.7197" cy="187.47" r="1" fill="#EFB85F"/>
<circle cx="74.7197" cy="323.47" r="1" fill="#EFB85F"/>
<circle cx="164.72" cy="363.47" r="1" fill="#EFB85F"/>
<circle cx="66.7197" cy="376.47" r="1" fill="#EFB85F"/>
<circle cx="114.72" cy="393.47" r="1" fill="#EFB85F"/>
<circle cx="164.72" cy="395.47" r="1" fill="#EFB85F"/>
<circle cx="215.72" cy="105.47" r="1" fill="#EFB85F"/>
<circle cx="162.72" cy="91.4702" r="1" fill="#EFB85F"/>
<circle cx="162.72" cy="91.4702" r="1" fill="#EFB85F"/>
<circle cx="21.7197" cy="312.47" r="1" fill="#EFB85F"/>
<circle cx="141.72" cy="354.47" r="1" fill="#EFB85F"/>
<circle cx="55.7197" cy="307.47" r="1" fill="#EFB85F"/>
<circle cx="88.7197" cy="340.47" r="1" fill="#EFB85F"/>
<circle cx="88.7197" cy="340.47" r="1" fill="#EFB85F"/>
<circle cx="229.72" cy="381.47" r="1" fill="#EFB85F"/>
<circle cx="235.72" cy="337.47" r="1" fill="#EFB85F"/>
<circle cx="235.72" cy="337.47" r="1" fill="#EFB85F"/>
<circle cx="274.72" cy="186.47" r="1" fill="#EFB85F"/>
<path d="M198.72 343.47C198.72 344.022 198.272 344.47 197.72 344.47C197.167 344.47 196.72 344.022 196.72 343.47C196.72 342.918 197.167 342.47 197.72 342.47C198.272 342.47 198.72 342.918 198.72 343.47Z" fill="#EFB85F"/>
<path d="M229.22 361.47L230.416 363.445L232.72 364.47L230.416 365.495L229.22 367.47L228.024 365.495L225.72 364.47L228.024 363.445L229.22 361.47Z" fill="#EFB85F"/>
<circle cx="251.72" cy="319.47" r="1" fill="#EFB85F"/>
<circle cx="249.72" cy="180.47" r="1" fill="#EFB85F"/>
<circle cx="249.72" cy="180.47" r="1" fill="#EFB85F"/>
<circle cx="196.72" cy="372.47" r="1" fill="#EFB85F"/>
<circle cx="214.72" cy="266.47" r="1" fill="#EFB85F"/>
<circle cx="80.7197" cy="131.47" r="1" fill="#EFB85F"/>
<circle cx="22.7197" cy="157.47" r="1" fill="#EFB85F"/>
<circle cx="70.7197" cy="82.4702" r="1" fill="#EFB85F"/>
<circle cx="59.7197" cy="156.47" r="1" fill="#EFB85F"/>
<circle cx="40.7197" cy="79.4702" r="1" fill="#EFB85F"/>
<circle cx="74.7197" cy="74.4702" r="1" fill="#EFB85F"/>
<circle cx="38.7197" cy="143.47" r="1" fill="#EFB85F"/>
<path d="M63.5269 139.266L67.8018 139.126L63.5269 138.986L64.8677 137.555L63.4362 138.896L63.2964 134.621L63.1565 138.896L61.725 137.555L63.0658 138.986L58.7909 139.126L63.0658 139.266L61.725 140.697L63.1565 139.357L63.2964 143.631L63.4362 139.357L64.8677 140.697L63.5269 139.266Z" fill="#EFB85F"/>
<path d="M33.4906 226.363L37.7655 226.223L33.4906 226.083L34.8314 224.652L33.3999 225.993L33.2601 221.718L33.1202 225.993L31.6888 224.652L33.0295 226.083L28.7546 226.223L33.0295 226.363L31.6888 227.794L33.1202 226.454L33.2601 230.728L33.3999 226.454L34.8314 227.794L33.4906 226.363Z" fill="#EFB85F"/>
<path d="M28.4846 291.436L32.7595 291.296L28.4846 291.156L29.8254 289.725L28.3939 291.066L28.254 286.791L28.1142 291.066L26.6827 289.725L28.0235 291.156L23.7486 291.296L28.0235 291.436L26.6827 292.867L28.1142 291.527L28.254 295.801L28.3939 291.527L29.8254 292.867L28.4846 291.436Z" fill="#EFB85F"/>
<path d="M45.5052 349.501L49.78 349.361L45.5052 349.221L46.8459 347.79L45.4144 349.13L45.2746 344.856L45.1348 349.13L43.7033 347.79L45.044 349.221L40.7691 349.361L45.044 349.501L43.7033 350.932L45.1348 349.592L45.2746 353.866L45.4144 349.592L46.8459 350.932L45.5052 349.501Z" fill="#EFB85F"/>
<path d="M126.603 378.534L130.878 378.394L126.603 378.254L127.944 376.823L126.512 378.163L126.373 373.889L126.233 378.163L124.801 376.823L126.142 378.254L121.867 378.394L126.142 378.534L124.801 379.965L126.233 378.624L126.373 382.899L126.512 378.624L127.944 379.965L126.603 378.534Z" fill="#EFB85F"/>
<path d="M251.754 385.541L256.029 385.402L251.754 385.262L253.095 383.83L251.664 385.171L251.524 380.896L251.384 385.171L249.952 383.83L251.293 385.262L247.018 385.402L251.293 385.541L249.952 386.973L251.384 385.632L251.524 389.907L251.664 385.632L253.095 386.973L251.754 385.541Z" fill="#EFB85F"/>
<path d="M264.77 221.358L269.045 221.218L264.77 221.078L266.111 219.647L264.679 220.987L264.539 216.713L264.4 220.987L262.968 219.647L264.309 221.078L260.034 221.218L264.309 221.358L262.968 222.789L264.4 221.448L264.539 225.723L264.679 221.448L266.111 222.789L264.77 221.358Z" fill="#EFB85F"/>
<path d="M264.77 221.358L269.045 221.218L264.77 221.078L266.111 219.647L264.679 220.987L264.539 216.713L264.4 220.987L262.968 219.647L264.309 221.078L260.034 221.218L264.309 221.358L262.968 222.789L264.4 221.448L264.539 225.723L264.679 221.448L266.111 222.789L264.77 221.358Z" fill="#EFB85F"/>
<path d="M135.614 105.228L139.889 105.088L135.614 104.948L136.955 103.517L135.523 104.858L135.383 100.583L135.244 104.858L133.812 103.517L135.153 104.948L130.878 105.088L135.153 105.228L133.812 106.659L135.244 105.319L135.383 109.593L135.523 105.319L136.955 106.659L135.614 105.228Z" fill="#EFB85F"/>
<path d="M135.614 105.228L139.889 105.088L135.614 104.948L136.955 103.517L135.523 104.858L135.383 100.583L135.244 104.858L133.812 103.517L135.153 104.948L130.878 105.088L135.153 105.228L133.812 106.659L135.244 105.319L135.383 109.593L135.523 105.319L136.955 106.659L135.614 105.228Z" fill="#EFB85F"/>
<path d="M135.614 105.228L139.889 105.088L135.614 104.948L136.955 103.517L135.523 104.858L135.383 100.583L135.244 104.858L133.812 103.517L135.153 104.948L130.878 105.088L135.153 105.228L133.812 106.659L135.244 105.319L135.383 109.593L135.523 105.319L136.955 106.659L135.614 105.228Z" fill="#EFB85F"/>
<path d="M160.644 78.1977L164.919 78.0578L160.644 77.918L161.985 76.4866L160.554 77.8272L160.414 73.5527L160.274 77.8272L158.842 76.4866L160.183 77.918L155.908 78.0578L160.183 78.1977L158.842 79.629L160.274 78.2883L160.414 82.5628L160.554 78.2883L161.985 79.629L160.644 78.1977Z" fill="#EFB85F"/>
<path d="M193.684 334.484L197.959 334.344L193.684 334.205L195.025 332.773L193.593 334.114L193.454 329.839L193.314 334.114L191.882 332.773L193.223 334.205L188.948 334.344L193.223 334.484L191.882 335.916L193.314 334.575L193.454 338.849L193.593 334.575L195.025 335.916L193.684 334.484Z" fill="#EFB85F"/>
<path d="M193.684 334.484L197.959 334.344L193.684 334.205L195.025 332.773L193.593 334.114L193.454 329.839L193.314 334.114L191.882 332.773L193.223 334.205L188.948 334.344L193.223 334.484L191.882 335.916L193.314 334.575L193.454 338.849L193.593 334.575L195.025 335.916L193.684 334.484Z" fill="#EFB85F"/>
<path d="M237.737 272.415L242.012 272.275L237.737 272.135L239.078 270.704L237.647 272.045L237.507 267.77L237.367 272.045L235.935 270.704L237.276 272.135L233.001 272.275L237.276 272.415L235.935 273.846L237.367 272.506L237.507 276.78L237.647 272.506L239.078 273.846L237.737 272.415Z" fill="#EFB85F"/>
<path d="M250.71 134.026C250.749 133.699 250.814 132.924 250.866 132.312C250.918 131.604 251.009 131.155 251.113 131.114C251.204 131.074 251.62 131.291 252.023 131.591C252.439 131.903 252.802 132.121 252.841 132.08C252.867 132.053 252.62 131.618 252.296 131.128C251.88 130.529 251.737 130.23 251.854 130.189C251.945 130.162 252.607 130.067 253.322 129.972C255.609 129.7 255.596 129.55 253.283 129.291C252.478 129.196 251.802 129.074 251.776 129.033C251.737 128.979 251.984 128.584 252.296 128.149C252.607 127.7 252.841 127.305 252.802 127.264C252.763 127.237 252.374 127.469 251.945 127.781C251.503 128.108 251.113 128.312 251.061 128.258C250.996 128.19 250.892 127.373 250.801 126.435C250.567 123.986 250.463 123.999 250.216 126.489C250.125 127.428 250.021 128.244 249.969 128.285C249.93 128.326 249.541 128.108 249.099 127.795C248.67 127.469 248.293 127.237 248.254 127.278C248.228 127.305 248.423 127.673 248.709 128.081C248.995 128.475 249.229 128.883 249.229 128.965C249.229 129.06 248.67 129.183 247.76 129.291C245.434 129.55 245.434 129.7 247.773 129.985C248.657 130.094 249.229 130.23 249.229 130.312C249.229 130.393 248.995 130.802 248.709 131.196C248.098 132.053 248.046 132.271 248.54 131.931C248.748 131.808 249.125 131.536 249.398 131.346C250.021 130.924 250.073 130.992 250.19 132.461C250.359 134.624 250.554 135.196 250.71 134.026Z" fill="#EFB85F"/>
<path d="M36.4513 114.003C36.4903 113.677 36.5553 112.901 36.6073 112.289C36.6592 111.582 36.7502 111.133 36.8542 111.092C36.9451 111.051 37.361 111.269 37.7639 111.568C38.1797 111.881 38.5436 112.099 38.5826 112.058C38.6086 112.031 38.3617 111.595 38.0368 111.106C37.6209 110.507 37.478 110.208 37.5949 110.167C37.6859 110.14 38.3487 110.044 39.0634 109.949C41.3506 109.677 41.3377 109.527 39.0244 109.269C38.2187 109.174 37.5429 109.051 37.5169 109.011C37.478 108.956 37.7249 108.562 38.0368 108.126C38.3487 107.677 38.5826 107.283 38.5436 107.242C38.5046 107.215 38.1147 107.446 37.6859 107.759C37.244 108.085 36.8542 108.29 36.8022 108.235C36.7372 108.167 36.6332 107.351 36.5423 106.412C36.3084 103.963 36.2044 103.977 35.9575 106.467C35.8665 107.405 35.7625 108.221 35.7106 108.262C35.6716 108.303 35.2817 108.085 34.8399 107.773C34.411 107.446 34.0341 107.215 33.9951 107.256C33.9691 107.283 34.1641 107.65 34.45 108.058C34.7359 108.453 34.9698 108.861 34.9698 108.943C34.9698 109.038 34.411 109.16 33.5013 109.269C31.1751 109.527 31.1751 109.677 33.5143 109.963C34.398 110.072 34.9698 110.208 34.9698 110.289C34.9698 110.371 34.7359 110.779 34.45 111.174C33.8392 112.031 33.7872 112.248 34.281 111.908C34.489 111.786 34.8658 111.514 35.1387 111.323C35.7625 110.902 35.8145 110.97 35.9315 112.439C36.1004 114.602 36.2954 115.173 36.4513 114.003Z" fill="#EFB85F"/>
<path d="M268.732 306.218C268.771 305.892 268.836 305.116 268.888 304.504C268.94 303.797 269.031 303.348 269.135 303.307C269.226 303.266 269.642 303.484 270.044 303.783C270.46 304.096 270.824 304.314 270.863 304.273C270.889 304.246 270.642 303.81 270.317 303.32C269.902 302.722 269.759 302.423 269.876 302.382C269.966 302.355 270.629 302.259 271.344 302.164C273.631 301.892 273.618 301.742 271.305 301.484C270.499 301.389 269.824 301.266 269.798 301.225C269.759 301.171 270.005 300.776 270.317 300.341C270.629 299.892 270.863 299.498 270.824 299.457C270.785 299.43 270.395 299.661 269.966 299.974C269.525 300.3 269.135 300.504 269.083 300.45C269.018 300.382 268.914 299.566 268.823 298.627C268.589 296.178 268.485 296.192 268.238 298.681C268.147 299.62 268.043 300.436 267.991 300.477C267.952 300.518 267.562 300.3 267.12 299.987C266.692 299.661 266.315 299.43 266.276 299.47C266.25 299.498 266.445 299.865 266.731 300.273C267.016 300.668 267.25 301.076 267.25 301.157C267.25 301.253 266.692 301.375 265.782 301.484C263.456 301.742 263.456 301.892 265.795 302.178C266.679 302.287 267.25 302.423 267.25 302.504C267.25 302.586 267.016 302.994 266.731 303.388C266.12 304.246 266.068 304.463 266.562 304.123C266.77 304.001 267.146 303.729 267.419 303.538C268.043 303.116 268.095 303.184 268.212 304.654C268.381 306.817 268.576 307.388 268.732 306.218Z" fill="#EFB85F"/>
<path d="M54.4731 275.183C54.5121 274.857 54.577 274.081 54.629 273.469C54.681 272.762 54.772 272.313 54.8759 272.272C54.9669 272.231 55.3828 272.449 55.7856 272.748C56.2015 273.061 56.5654 273.279 56.6044 273.238C56.6303 273.211 56.3834 272.775 56.0585 272.286C55.6427 271.687 55.4997 271.388 55.6167 271.347C55.7077 271.32 56.3704 271.225 57.0852 271.129C59.3724 270.857 59.3594 270.708 57.0462 270.449C56.2405 270.354 55.5647 270.232 55.5387 270.191C55.4997 270.136 55.7466 269.742 56.0585 269.306C56.3704 268.858 56.6044 268.463 56.5654 268.422C56.5264 268.395 56.1365 268.626 55.7077 268.939C55.2658 269.266 54.8759 269.47 54.824 269.415C54.759 269.347 54.655 268.531 54.564 267.592C54.3301 265.144 54.2262 265.157 53.9792 267.647C53.8883 268.585 53.7843 269.402 53.7323 269.442C53.6933 269.483 53.3035 269.266 52.8616 268.953C52.4328 268.626 52.0559 268.395 52.0169 268.436C51.9909 268.463 52.1859 268.83 52.4718 269.238C52.7577 269.633 52.9916 270.041 52.9916 270.123C52.9916 270.218 52.4328 270.34 51.5231 270.449C49.1969 270.708 49.1969 270.857 51.5361 271.143C52.4198 271.252 52.9916 271.388 52.9916 271.47C52.9916 271.551 52.7577 271.959 52.4718 272.354C51.861 273.211 51.809 273.428 52.3028 273.088C52.5107 272.966 52.8876 272.694 53.1605 272.503C53.7843 272.082 53.8363 272.15 53.9533 273.619C54.1222 275.782 54.3171 276.353 54.4731 275.183Z" fill="#EFB85F"/>
<path d="M49.467 396.319C49.506 395.993 49.571 395.217 49.623 394.605C49.675 393.898 49.7659 393.449 49.8699 393.408C49.9609 393.367 50.3767 393.585 50.7796 393.884C51.1954 394.197 51.5593 394.415 51.5983 394.374C51.6243 394.347 51.3774 393.911 51.0525 393.421C50.6366 392.823 50.4937 392.524 50.6106 392.483C50.7016 392.456 51.3644 392.36 52.0791 392.265C54.3664 391.993 54.3534 391.843 52.0402 391.585C51.2344 391.49 50.5587 391.367 50.5327 391.326C50.4937 391.272 50.7406 390.878 51.0525 390.442C51.3644 389.993 51.5983 389.599 51.5593 389.558C51.5203 389.531 51.1305 389.762 50.7016 390.075C50.2598 390.401 49.8699 390.605 49.8179 390.551C49.7529 390.483 49.649 389.667 49.558 388.728C49.3241 386.279 49.2201 386.293 48.9732 388.782C48.8822 389.721 48.7783 390.537 48.7263 390.578C48.6873 390.619 48.2974 390.401 47.8556 390.088C47.4267 389.762 47.0498 389.531 47.0109 389.572C46.9849 389.599 47.1798 389.966 47.4657 390.374C47.7516 390.769 47.9855 391.177 47.9855 391.258C47.9855 391.354 47.4267 391.476 46.517 391.585C44.1908 391.843 44.1908 391.993 46.53 392.279C47.4137 392.388 47.9855 392.524 47.9855 392.605C47.9855 392.687 47.7516 393.095 47.4657 393.49C46.8549 394.347 46.8029 394.564 47.2968 394.224C47.5047 394.102 47.8816 393.83 48.1545 393.639C48.7783 393.217 48.8302 393.285 48.9472 394.755C49.1161 396.918 49.3111 397.489 49.467 396.319Z" fill="#EFB85F"/>
<path d="M229.497 361.875L230.695 363.852L233.001 364.878L230.695 365.904L229.497 367.882L228.3 365.904L225.993 364.878L228.3 363.852L229.497 361.875Z" fill="#EFB85F"/>
<path d="M27.253 185.678L28.4502 187.655L30.757 188.682L28.4502 189.708L27.253 191.685L26.0554 189.708L23.7486 188.682L26.0554 187.655L27.253 185.678Z" fill="#EFB85F"/>
<path d="M27.253 86.5669L28.4502 88.5439L30.757 89.5703L28.4502 90.5963L27.253 92.5736L26.0554 90.5963L23.7486 89.5703L26.0554 88.5439L27.253 86.5669Z" fill="#EFB85F"/>
<circle cx="118.72" cy="77.4702" r="1" fill="#EFB85F"/>
<path d="M114.546 112.001C114.585 111.674 114.65 110.899 114.702 110.287C114.754 109.579 114.845 109.13 114.949 109.09C115.039 109.049 115.455 109.266 115.858 109.566C116.274 109.879 116.638 110.096 116.677 110.055C116.703 110.028 116.456 109.593 116.131 109.103C115.715 108.505 115.572 108.205 115.689 108.164C115.78 108.137 116.443 108.042 117.158 107.947C119.445 107.675 119.432 107.525 117.119 107.267C116.313 107.171 115.637 107.049 115.611 107.008C115.572 106.954 115.819 106.559 116.131 106.124C116.443 105.675 116.677 105.28 116.638 105.24C116.599 105.212 116.209 105.444 115.78 105.757C115.338 106.083 114.949 106.287 114.897 106.233C114.832 106.165 114.728 105.348 114.637 104.41C114.403 101.961 114.299 101.975 114.052 104.464C113.961 105.403 113.857 106.219 113.805 106.26C113.766 106.301 113.376 106.083 112.934 105.77C112.505 105.444 112.128 105.212 112.089 105.253C112.063 105.28 112.258 105.648 112.544 106.056C112.83 106.45 113.064 106.858 113.064 106.94C113.064 107.035 112.505 107.158 111.596 107.267C109.269 107.525 109.269 107.675 111.609 107.96C112.492 108.069 113.064 108.205 113.064 108.287C113.064 108.369 112.83 108.777 112.544 109.171C111.934 110.028 111.882 110.246 112.375 109.906C112.583 109.783 112.96 109.511 113.233 109.321C113.857 108.899 113.909 108.967 114.026 110.436C114.195 112.599 114.39 113.171 114.546 112.001Z" fill="#EFB85F"/>
<path d="M105.347 84.5649L106.545 86.5419L108.851 87.5683L106.545 88.5943L105.347 90.5717L104.15 88.5943L101.843 87.5683L104.15 86.5419L105.347 84.5649Z" fill="#EFB85F"/>
<path d="M108.351 25.4985L109.548 27.4755L111.855 28.5019L109.548 29.5279L108.351 31.5053L107.153 29.5279L104.847 28.5019L107.153 27.4755L108.351 25.4985Z" fill="#EFB85F"/>
<path d="M256.53 70.5493L257.727 72.5263L260.034 73.5527L257.727 74.5787L256.53 76.556L255.332 74.5787L253.026 73.5527L255.332 72.5263L256.53 70.5493Z" fill="#EFB85F"/>
<path d="M238.007 298.805L238.759 302.464L242.012 303.309L238.759 304.155L238.007 307.815L237.255 304.155L234.003 303.309L237.255 302.464L238.007 298.805Z" fill="#EFB85F"/>
<path d="M57.7895 245.745L58.5415 249.404L61.7945 250.25L58.5415 251.096L57.7895 254.755L57.0375 251.096L53.7849 250.25L57.0375 249.404L57.7895 245.745Z" fill="#EFB85F"/>
<path d="M62.7955 339.851L63.5476 343.51L66.8006 344.355L63.5476 345.201L62.7955 348.861L62.0435 345.201L58.7909 344.355L62.0435 343.51L62.7955 339.851Z" fill="#EFB85F"/>
<path d="M261.035 338.85L261.787 342.509L265.04 343.354L261.787 344.2L261.035 347.86L260.283 344.2L257.03 343.354L260.283 342.509L261.035 338.85Z" fill="#EFB85F"/>
<path d="M160.914 327.837L161.666 331.496L164.919 332.342L161.666 333.188L160.914 336.847L160.162 333.188L156.909 332.342L160.162 331.496L160.914 327.837Z" fill="#EFB85F"/>
<path d="M254.027 237.736L254.779 241.396L258.032 242.241L254.779 243.087L254.027 246.746L253.275 243.087L250.022 242.241L253.275 241.396L254.027 237.736Z" fill="#EFB85F"/>
<path d="M254.027 237.736L254.779 241.396L258.032 242.241L254.779 243.087L254.027 246.746L253.275 243.087L250.022 242.241L253.275 241.396L254.027 237.736Z" fill="#EFB85F"/>
<path d="M115.86 343.855L116.612 347.514L119.865 348.36L116.612 349.206L115.86 352.865L115.108 349.206L111.855 348.36L115.108 347.514L115.86 343.855Z" fill="#EFB85F"/>
<circle cx="125.72" cy="66.4702" r="1" fill="#EFB85F"/>
<circle cx="164.72" cy="363.47" r="1" fill="#EFB85F"/>
<circle cx="143.72" cy="317.47" r="1" fill="#EFB85F"/>
<circle cx="161.72" cy="315.47" r="1" fill="#EFB85F"/>
<circle cx="120.72" cy="331.47" r="1" fill="#EFB85F"/>
<circle cx="162.72" cy="91.4702" r="1" fill="#EFB85F"/>
<circle cx="162.72" cy="91.4702" r="1" fill="#EFB85F"/>
<circle cx="141.72" cy="354.47" r="1" fill="#EFB85F"/>
<path d="M126.603 378.534L130.878 378.394L126.603 378.254L127.944 376.823L126.512 378.163L126.373 373.889L126.233 378.163L124.801 376.823L126.142 378.254L121.867 378.394L126.142 378.534L124.801 379.965L126.233 378.624L126.373 382.899L126.512 378.624L127.944 379.965L126.603 378.534Z" fill="#EFB85F"/>
<path d="M135.614 105.228L139.889 105.088L135.614 104.948L136.955 103.517L135.523 104.858L135.383 100.583L135.244 104.858L133.812 103.517L135.153 104.948L130.878 105.088L135.153 105.228L133.812 106.659L135.244 105.319L135.383 109.593L135.523 105.319L136.955 106.659L135.614 105.228Z" fill="#EFB85F"/>
<path d="M135.614 105.228L139.889 105.088L135.614 104.948L136.955 103.517L135.523 104.858L135.383 100.583L135.244 104.858L133.812 103.517L135.153 104.948L130.878 105.088L135.153 105.228L133.812 106.659L135.244 105.319L135.383 109.593L135.523 105.319L136.955 106.659L135.614 105.228Z" fill="#EFB85F"/>
<path d="M135.614 105.228L139.889 105.088L135.614 104.948L136.955 103.517L135.523 104.858L135.383 100.583L135.244 104.858L133.812 103.517L135.153 104.948L130.878 105.088L135.153 105.228L133.812 106.659L135.244 105.319L135.383 109.593L135.523 105.319L136.955 106.659L135.614 105.228Z" fill="#EFB85F"/>
<path d="M160.644 78.1977L164.919 78.0578L160.644 77.918L161.985 76.4866L160.554 77.8272L160.414 73.5527L160.274 77.8272L158.842 76.4866L160.183 77.918L155.908 78.0578L160.183 78.1977L158.842 79.629L160.274 78.2883L160.414 82.5628L160.554 78.2883L161.985 79.629L160.644 78.1977Z" fill="#EFB85F"/>
<path d="M160.914 327.837L161.666 331.496L164.919 332.342L161.666 333.188L160.914 336.847L160.162 333.188L156.909 332.342L160.162 331.496L160.914 327.837Z" fill="#EFB85F"/>
<path d="M115.86 343.855L116.612 347.514L119.865 348.36L116.612 349.206L115.86 352.865L115.108 349.206L111.855 348.36L115.108 347.514L115.86 343.855Z" fill="#EFB85F"/>
<circle cx="41.7197" cy="29.4702" r="1" fill="#EFB85F"/>
<path d="M28.2542 36.5112L29.4514 38.4882L31.7583 39.5146L29.4514 40.5406L28.2542 42.518L27.0566 40.5406L24.7498 39.5146L27.0566 38.4882L28.2542 36.5112Z" fill="#EFB85F"/>
<path d="M44.461 133.494C44.5 133.168 44.5649 132.393 44.6169 131.78C44.6689 131.073 44.7599 130.624 44.8638 130.583C44.9548 130.542 45.3707 130.76 45.7735 131.059C46.1894 131.372 46.5533 131.59 46.5923 131.549C46.6182 131.522 46.3713 131.087 46.0464 130.597C45.6306 129.998 45.4876 129.699 45.6046 129.658C45.6956 129.631 46.3583 129.536 47.0731 129.44C49.3603 129.168 49.3473 129.019 47.0341 128.76C46.2284 128.665 45.5526 128.543 45.5266 128.502C45.4876 128.447 45.7345 128.053 46.0464 127.617C46.3583 127.169 46.5923 126.774 46.5533 126.733C46.5143 126.706 46.1244 126.937 45.6956 127.25C45.2537 127.577 44.8638 127.781 44.8119 127.726C44.7469 127.658 44.6429 126.842 44.5519 125.903C44.318 123.455 44.2141 123.468 43.9671 125.958C43.8762 126.896 43.7722 127.713 43.7202 127.754C43.6812 127.794 43.2914 127.577 42.8495 127.264C42.4207 126.937 42.0438 126.706 42.0048 126.747C41.9788 126.774 42.1738 127.141 42.4597 127.549C42.7456 127.944 42.9795 128.352 42.9795 128.434C42.9795 128.529 42.4207 128.651 41.511 128.76C39.1848 129.019 39.1848 129.168 41.524 129.454C42.4077 129.563 42.9795 129.699 42.9795 129.781C42.9795 129.862 42.7456 130.27 42.4597 130.665C41.8489 131.522 41.7969 131.74 42.2907 131.399C42.4986 131.277 42.8755 131.005 43.1484 130.814C43.7722 130.393 43.8242 130.461 43.9412 131.93C44.1101 134.093 44.305 134.664 44.461 133.494Z" fill="#EFB85F"/>
<path d="M64.5281 89.2099L68.803 89.07L64.5281 88.9302L65.8689 87.4988L64.4374 88.8394L64.2976 84.5649L64.1577 88.8394L62.7262 87.4988L64.067 88.9302L59.7921 89.07L64.067 89.2099L62.7262 90.6412L64.1577 89.3005L64.2976 93.575L64.4374 89.3005L65.8689 90.6412L64.5281 89.2099Z" fill="#EFB85F"/>
<circle cx="39.7197" cy="93.4702" r="1" fill="#EFB85F"/>
<circle cx="60.7197" cy="106.47" r="1" fill="#EFB85F"/>
<circle cx="231.72" cy="24.4702" r="1" fill="#EFB85F"/>
<circle cx="265.72" cy="33.4702" r="1" fill="#EFB85F"/>
<circle cx="265.72" cy="33.4702" r="1" fill="#EFB85F"/>
<circle cx="267.72" cy="34.4702" r="1" fill="#EFB85F"/>
<path d="M267.774 92.2133L272.049 92.0734L267.774 91.9336L269.114 90.5022L267.683 91.8429L267.543 87.5684L267.403 91.8429L265.972 90.5022L267.313 91.9336L263.038 92.0734L267.313 92.2133L265.972 93.6446L267.403 92.3039L267.543 96.5784L267.683 92.3039L269.114 93.6446L267.774 92.2133Z" fill="#EFB85F"/>
<path d="M267.774 92.2133L272.049 92.0734L267.774 91.9336L269.114 90.5022L267.683 91.8429L267.543 87.5684L267.403 91.8429L265.972 90.5022L267.313 91.9336L263.038 92.0734L267.313 92.2133L265.972 93.6446L267.403 92.3039L267.543 96.5784L267.683 92.3039L269.114 93.6446L267.774 92.2133Z" fill="#EFB85F"/>
<path d="M229.497 123.608L230.695 125.585L233.001 126.612L230.695 127.638L229.497 129.615L228.3 127.638L225.993 126.612L228.3 125.585L229.497 123.608Z" fill="#EFB85F"/>
<path d="M108.351 25.4985L109.548 27.4755L111.855 28.5019L109.548 29.5279L108.351 31.5053L107.153 29.5279L104.847 28.5019L107.153 27.4755L108.351 25.4985Z" fill="#EFB85F"/>
<g clip-path="url(#clip2_549_86625)">
<path d="M102.328 62.4131C102.271 62.4131 102.242 62.3844 102.242 62.3271V62.0693C102.242 62.012 102.271 61.9834 102.328 61.9834H102.586C103.202 61.9834 103.739 61.8545 104.197 61.5967C104.383 61.4893 104.537 61.3245 104.659 61.1025C104.781 60.8734 104.842 60.6191 104.842 60.3398V48.9746C104.842 48.5306 104.555 48.1904 103.982 47.9541C103.581 47.7822 103.155 47.6963 102.704 47.6963H102.468C102.41 47.6963 102.382 47.6676 102.382 47.6104V47.3525C102.382 47.2952 102.41 47.2666 102.468 47.2666H109.74C109.798 47.2666 109.826 47.2952 109.826 47.3525V47.6104C109.826 47.6676 109.798 47.6963 109.74 47.6963H109.278C108.541 47.6963 107.889 47.8001 107.323 48.0078C107.159 48.0651 107.051 48.1618 107.001 48.2979C106.958 48.4268 106.937 48.6523 106.937 48.9746V60.8877C106.951 61.0094 107.015 61.124 107.13 61.2314C107.244 61.3389 107.373 61.3926 107.517 61.3926H111.76C112.397 61.3926 113.024 61.0166 113.64 60.2646C113.804 60.0641 114.008 59.7992 114.252 59.4697C114.495 59.1331 114.646 58.9434 114.703 58.9004C114.932 58.7285 115.047 58.7321 115.047 58.9111C115.047 58.9541 115.036 58.9971 115.015 59.04L113.393 62.2197C113.328 62.3486 113.253 62.4131 113.167 62.4131H102.328ZM117.614 56.752C117.493 56.752 117.432 57.0133 117.432 57.5361C117.432 58.6462 117.761 59.5771 118.42 60.3291C119.079 61.0811 119.895 61.457 120.869 61.457C121.85 61.457 122.792 61.0345 123.694 60.1895C123.709 60.1751 123.727 60.168 123.748 60.168H123.802C123.845 60.168 123.884 60.2038 123.92 60.2754C123.963 60.3398 124.002 60.3828 124.038 60.4043C123.207 61.4141 122.23 62.1123 121.105 62.499C120.719 62.6351 120.282 62.7031 119.795 62.7031C119.308 62.7031 118.814 62.5706 118.312 62.3057C117.811 62.0335 117.382 61.679 117.023 61.2422C116.264 60.3327 115.885 59.2012 115.885 57.8477C115.885 56.487 116.297 55.248 117.12 54.1309C117.951 53.0137 119.09 52.4551 120.536 52.4551C121.575 52.4551 122.423 52.9206 123.082 53.8516C123.741 54.7754 124.07 55.5882 124.07 56.29C124.07 56.598 123.995 56.752 123.845 56.752H117.614ZM117.732 55.7207C117.732 55.8568 117.797 55.9248 117.926 55.9248H121.976C122.162 55.9248 122.255 55.8138 122.255 55.5918C122.255 55.0762 122.022 54.5498 121.557 54.0127C121.098 53.4684 120.593 53.1963 120.042 53.1963C119.505 53.1963 119.014 53.4398 118.57 53.9268C118.133 54.4137 117.854 54.9688 117.732 55.5918V55.7207ZM136.993 55.0654C136.993 55.223 136.932 55.3018 136.811 55.3018C136.696 55.3018 136.606 55.2158 136.542 55.0439C136.37 54.5713 136.112 54.1523 135.769 53.7871C135.432 53.4219 135.013 53.2393 134.512 53.2393C133.853 53.2393 133.409 53.5687 133.18 54.2275C133.108 54.4495 133.072 54.6787 133.072 54.915C133.072 55.1514 133.223 55.4163 133.523 55.71C133.824 55.9964 134.318 56.3402 135.006 56.7412C135.693 57.1423 136.195 57.4824 136.51 57.7617C137.226 58.3991 137.584 59.1367 137.584 59.9746C137.584 60.8125 137.276 61.4785 136.66 61.9727C136.044 62.4596 135.328 62.7031 134.512 62.7031C134.075 62.7031 133.677 62.6423 133.319 62.5205C132.968 62.4059 132.764 62.3486 132.707 62.3486C132.657 62.3486 132.571 62.4059 132.449 62.5205C132.335 62.6423 132.242 62.7031 132.17 62.7031H131.987C131.944 62.7031 131.891 62.3164 131.826 61.543C131.762 60.7695 131.729 60.3112 131.729 60.168C131.729 60.0247 131.74 59.946 131.762 59.9316C131.79 59.9173 131.833 59.9102 131.891 59.9102C131.948 59.9102 131.994 59.9281 132.03 59.9639C132.073 59.9997 132.109 60.0462 132.138 60.1035C132.166 60.1536 132.188 60.2074 132.202 60.2646C132.224 60.3219 132.27 60.4294 132.342 60.5869C132.829 61.6253 133.581 62.1445 134.598 62.1445C135.049 62.1445 135.41 61.9798 135.683 61.6504C135.955 61.3138 136.091 60.9414 136.091 60.5332C136.091 60.125 135.983 59.7812 135.769 59.502C135.554 59.2227 135.285 58.9684 134.963 58.7393C134.648 58.5101 134.304 58.2881 133.932 58.0732C132.485 57.2282 131.762 56.2936 131.762 55.2695C131.762 54.5033 132.091 53.8444 132.75 53.293C133.409 52.7344 134.086 52.4551 134.78 52.4551C135.475 52.4551 135.987 52.5303 136.316 52.6807C136.653 52.8311 136.85 52.96 136.907 53.0674C136.965 53.1676 136.993 53.5042 136.993 54.0771V55.0654ZM140.882 56.752C140.76 56.752 140.699 57.0133 140.699 57.5361C140.699 58.6462 141.029 59.5771 141.688 60.3291C142.346 61.0811 143.163 61.457 144.137 61.457C145.118 61.457 146.06 61.0345 146.962 60.1895C146.976 60.1751 146.994 60.168 147.016 60.168H147.069C147.112 60.168 147.152 60.2038 147.188 60.2754C147.23 60.3398 147.27 60.3828 147.306 60.4043C146.475 61.4141 145.497 62.1123 144.373 62.499C143.986 62.6351 143.549 62.7031 143.062 62.7031C142.576 62.7031 142.081 62.5706 141.58 62.3057C141.079 62.0335 140.649 61.679 140.291 61.2422C139.532 60.3327 139.152 59.2012 139.152 57.8477C139.152 56.487 139.564 55.248 140.388 54.1309C141.218 53.0137 142.357 52.4551 143.804 52.4551C144.842 52.4551 145.691 52.9206 146.35 53.8516C147.008 54.7754 147.338 55.5882 147.338 56.29C147.338 56.598 147.263 56.752 147.112 56.752H140.882ZM141 55.7207C141 55.8568 141.064 55.9248 141.193 55.9248H145.243C145.429 55.9248 145.522 55.8138 145.522 55.5918C145.522 55.0762 145.29 54.5498 144.824 54.0127C144.366 53.4684 143.861 53.1963 143.31 53.1963C142.772 53.1963 142.282 53.4398 141.838 53.9268C141.401 54.4137 141.122 54.9688 141 55.5918V55.7207ZM158.284 52.7451C158.341 52.7451 158.37 52.8024 158.37 52.917C158.37 53.0316 158.341 53.1032 158.284 53.1318C157.733 53.2822 157.292 53.5329 156.963 53.8838C156.841 54.0127 156.709 54.1631 156.565 54.335L154.492 56.8271C154.464 56.8773 154.449 56.9238 154.449 56.9668C154.449 57.0527 154.761 57.4753 155.384 58.2344C156.007 58.9863 156.866 60.0534 157.962 61.4355C158.041 61.5358 158.198 61.6361 158.435 61.7363C158.671 61.8366 158.832 61.9189 158.918 61.9834C159.004 62.0407 159.047 62.1195 159.047 62.2197C159.047 62.32 159.004 62.3844 158.918 62.4131H154.686C154.614 62.4131 154.578 62.3558 154.578 62.2412C154.578 62.1266 154.635 62.0622 154.75 62.0479C154.872 62.0264 155.008 62.0049 155.158 61.9834C155.538 61.9261 155.728 61.7757 155.728 61.5322C155.728 61.3675 155.638 61.1849 155.459 60.9844L153.611 58.6641C153.554 58.5853 153.507 58.5244 153.472 58.4814C153.443 58.4385 153.382 58.417 153.289 58.417C153.196 58.417 153.121 58.4564 153.063 58.5352C153.013 58.6068 152.96 58.6712 152.902 58.7285L151.216 60.7588C151.065 60.9307 150.99 61.1312 150.99 61.3604C150.99 61.5895 151.137 61.7721 151.431 61.9082C151.731 62.0371 151.996 62.1016 152.226 62.1016C152.276 62.1016 152.301 62.1553 152.301 62.2627C152.301 62.363 152.276 62.4131 152.226 62.4131H148.777C148.663 62.4131 148.605 62.3486 148.605 62.2197C148.605 62.1195 148.802 61.9762 149.196 61.79C149.597 61.6038 149.841 61.4606 149.927 61.3604L152.902 57.7832C152.895 57.7689 152.881 57.751 152.859 57.7295C152.845 57.708 152.806 57.6579 152.741 57.5791C152.677 57.5003 152.576 57.3786 152.44 57.2139C152.304 57.042 151.943 56.598 151.355 55.8818C150.775 55.1585 150.163 54.3958 149.519 53.5938C149.433 53.5007 149.254 53.3968 148.981 53.2822C148.709 53.1605 148.573 53.0531 148.573 52.96C148.588 52.8167 148.674 52.7451 148.831 52.7451H152.827C152.884 52.7451 152.91 52.7917 152.902 52.8848C152.902 52.9707 152.849 53.028 152.741 53.0566C152.634 53.0781 152.516 53.1104 152.387 53.1533C152.043 53.2536 151.871 53.429 151.871 53.6797C151.871 53.8444 151.903 53.959 151.968 54.0234L153.633 56.0859C153.69 56.1504 153.747 56.222 153.805 56.3008C153.869 56.3724 153.923 56.4082 153.966 56.4082C154.016 56.4082 154.07 56.3724 154.127 56.3008L155.706 54.4639C155.885 54.2562 155.975 54.0485 155.975 53.8408C155.975 53.6331 155.917 53.4899 155.803 53.4111C155.688 53.3252 155.559 53.2643 155.416 53.2285C155.28 53.1855 155.155 53.1462 155.04 53.1104C154.925 53.0745 154.868 53.0065 154.868 52.9062C154.868 52.7988 154.908 52.7451 154.986 52.7451H158.284ZM162.688 54.1523C162.646 54.1523 162.624 54.1846 162.624 54.249V60.1787C162.624 60.6084 162.717 60.945 162.903 61.1885C163.097 61.432 163.34 61.5537 163.634 61.5537C163.927 61.5537 164.182 61.5072 164.396 61.4141C164.618 61.3138 164.808 61.2064 164.966 61.0918C165.131 60.9772 165.277 60.8734 165.406 60.7803C165.535 60.68 165.65 60.6299 165.75 60.6299C165.85 60.6299 165.9 60.6549 165.9 60.7051C165.9 60.877 165.882 60.988 165.847 61.0381C164.987 62.1481 164.157 62.7031 163.354 62.7031C162.56 62.7031 161.958 62.4525 161.55 61.9512C161.149 61.4427 160.948 60.8376 160.948 60.1357V54.1523H160.143C159.942 54.1523 159.835 54.0879 159.82 53.959C159.813 53.8301 159.835 53.7477 159.885 53.7119C160.264 53.4684 160.787 53.0316 161.453 52.4014C161.525 52.3226 161.621 52.2044 161.743 52.0469C161.865 51.8893 162.04 51.6745 162.27 51.4023C162.506 51.1302 162.685 50.9941 162.807 50.9941C162.928 50.9941 162.989 51.0443 162.989 51.1445C162.989 51.1589 162.868 51.6279 162.624 52.5518C162.624 52.6807 162.681 52.7487 162.796 52.7559H165.535C165.85 52.7559 166.008 53.1999 166.008 54.0879C166.008 54.1309 165.979 54.1523 165.922 54.1523H162.688ZM173.678 60.6406C173.678 60.8268 173.764 60.9772 173.936 61.0918C174.115 61.1992 174.319 61.2529 174.548 61.2529C174.777 61.2529 174.967 61.1956 175.117 61.0811C175.275 60.9593 175.382 60.8984 175.439 60.8984C175.497 60.8984 175.525 60.9772 175.525 61.1348C175.525 61.2852 175.454 61.4141 175.311 61.5215C174.236 62.3092 173.509 62.7031 173.13 62.7031C172.672 62.7031 172.299 62.2269 172.013 61.2744C171.991 61.2028 171.973 61.1706 171.959 61.1777C171.071 61.8438 170.512 62.2448 170.283 62.3809C169.696 62.7174 169.105 62.7712 168.511 62.542C167.924 62.3128 167.497 61.9333 167.232 61.4033C167.104 61.1312 167.039 60.8411 167.039 60.5332C167.039 59.9245 167.265 59.4411 167.716 59.083C168.167 58.7249 169.026 58.3812 170.294 58.0518C170.724 57.9372 171.107 57.7904 171.443 57.6113C171.78 57.4323 171.955 57.3177 171.97 57.2676C171.991 57.2174 172.002 57.1709 172.002 57.1279V55.0654C172.002 54.2562 171.687 53.6868 171.057 53.3574C170.849 53.25 170.598 53.1963 170.305 53.1963C170.018 53.1963 169.725 53.3109 169.424 53.54C169.13 53.7692 168.983 54.0951 168.983 54.5176L169.037 54.9365C168.994 55.0225 168.736 55.1657 168.264 55.3662C167.791 55.5667 167.519 55.6742 167.447 55.6885C167.333 55.6885 167.275 55.5524 167.275 55.2803C167.275 55.001 167.358 54.693 167.522 54.3564C167.687 54.0199 167.92 53.7119 168.221 53.4326C168.923 52.7809 169.725 52.4551 170.627 52.4551C171.529 52.4551 172.263 52.7057 172.829 53.207C173.395 53.7012 173.678 54.292 173.678 54.9795V60.6406ZM168.726 60.3291C168.726 60.6729 168.858 60.9736 169.123 61.2314C169.388 61.4821 169.689 61.6074 170.025 61.6074C170.369 61.6074 170.785 61.4642 171.271 61.1777C171.758 60.8841 172.002 60.5833 172.002 60.2754V58.0947C172.002 58.016 171.984 57.9766 171.948 57.9766C171.912 57.9766 171.887 57.9801 171.873 57.9873L169.381 59.1475C169.123 59.3337 168.948 59.4912 168.854 59.6201C168.769 59.749 168.726 59.9854 168.726 60.3291ZM184.441 59.0293L184.42 56.7627C184.42 55.8389 184.341 55.1908 184.184 54.8184C184.026 54.446 183.826 54.1667 183.582 53.9805C183.339 53.7871 183.009 53.6904 182.594 53.6904C182.186 53.6904 181.315 54.0127 179.983 54.6572C179.804 54.7646 179.711 54.8649 179.704 54.958V60.7373C179.704 61.4606 180.091 61.876 180.864 61.9834C181.201 62.0335 181.369 62.1159 181.369 62.2305C181.369 62.3379 181.333 62.3988 181.262 62.4131H176.471C176.399 62.3988 176.363 62.3486 176.363 62.2627C176.363 62.1266 176.532 62.0335 176.868 61.9834C177.642 61.876 178.028 61.4606 178.028 60.7373V54.5713C178.028 54.2705 177.864 54.0628 177.534 53.9482C177.391 53.8981 177.237 53.8587 177.072 53.8301C176.908 53.7943 176.775 53.762 176.675 53.7334C176.582 53.7048 176.521 53.6797 176.492 53.6582C176.471 53.6296 176.46 53.5758 176.46 53.4971C176.46 53.4111 176.514 53.3395 176.621 53.2822L179.36 51.9932C179.446 51.9502 179.5 51.9287 179.521 51.9287C179.643 51.9287 179.704 52.0146 179.704 52.1865V53.8623C179.726 53.9339 179.754 53.9697 179.79 53.9697C179.833 53.9697 179.987 53.9053 180.252 53.7764C180.868 53.4684 181.487 53.1712 182.11 52.8848C182.733 52.5983 183.249 52.4551 183.657 52.4551C185.312 52.4551 186.139 53.9626 186.139 56.9775L186.042 60.1143V60.7373C186.042 61.2959 186.321 61.6611 186.88 61.833C187.116 61.9118 187.342 61.9691 187.557 62.0049C187.779 62.0335 187.922 62.0622 187.986 62.0908C188.058 62.1195 188.094 62.1768 188.094 62.2627C188.094 62.3486 188.058 62.3988 187.986 62.4131H182.809C182.737 62.3988 182.701 62.3486 182.701 62.2627C182.701 62.1266 182.869 62.0335 183.206 61.9834C183.972 61.876 184.355 61.432 184.355 60.6514C184.413 60.2933 184.441 59.7526 184.441 59.0293ZM191.671 54.1523C191.628 54.1523 191.606 54.1846 191.606 54.249V60.1787C191.606 60.6084 191.7 60.945 191.886 61.1885C192.079 61.432 192.323 61.5537 192.616 61.5537C192.91 61.5537 193.164 61.5072 193.379 61.4141C193.601 61.3138 193.791 61.2064 193.948 61.0918C194.113 60.9772 194.26 60.8734 194.389 60.7803C194.518 60.68 194.632 60.6299 194.732 60.6299C194.833 60.6299 194.883 60.6549 194.883 60.7051C194.883 60.877 194.865 60.988 194.829 61.0381C193.97 62.1481 193.139 62.7031 192.337 62.7031C191.542 62.7031 190.94 62.4525 190.532 61.9512C190.131 61.4427 189.931 60.8376 189.931 60.1357V54.1523H189.125C188.924 54.1523 188.817 54.0879 188.803 53.959C188.796 53.8301 188.817 53.7477 188.867 53.7119C189.247 53.4684 189.77 53.0316 190.436 52.4014C190.507 52.3226 190.604 52.2044 190.726 52.0469C190.847 51.8893 191.023 51.6745 191.252 51.4023C191.488 51.1302 191.667 50.9941 191.789 50.9941C191.911 50.9941 191.972 51.0443 191.972 51.1445C191.972 51.1589 191.85 51.6279 191.606 52.5518C191.606 52.6807 191.664 52.7487 191.778 52.7559H194.518C194.833 52.7559 194.99 53.1999 194.99 54.0879C194.99 54.1309 194.962 54.1523 194.904 54.1523H191.671Z" fill="#EFB85F"/>
</g>
</g>
<path d="M144.546 217.961C144.551 219.011 144.974 220.016 145.72 220.755C146.467 221.494 147.476 221.906 148.526 221.901C149.577 221.895 150.582 221.473 151.321 220.727C152.059 219.98 152.472 218.971 152.467 217.921C152.461 216.871 152.038 215.866 151.292 215.127C150.546 214.388 149.536 213.976 148.486 213.982C147.436 213.987 146.431 214.409 145.692 215.155C144.953 215.902 144.541 216.911 144.546 217.961Z" stroke="#EFB85F" stroke-width="1.5" stroke-linecap="round"/>
<path d="M144.546 217.961C144.551 219.011 144.974 220.016 145.72 220.755C146.467 221.494 147.476 221.906 148.526 221.901C149.577 221.895 150.582 221.473 151.321 220.727C152.059 219.98 152.472 218.971 152.467 217.921C152.461 216.871 152.038 215.866 151.292 215.127C150.546 214.388 149.536 213.976 148.486 213.982C147.436 213.987 146.431 214.409 145.692 215.155C144.953 215.902 144.541 216.911 144.546 217.961Z" stroke="#EFB85F" stroke-linecap="round"/>
<path d="M247.416 198.383L181.994 313.042" stroke="#EFB85F" stroke-linecap="round"/>
<path d="M181.994 313.042L115.99 313.378" stroke="#EFB85F" stroke-linecap="round"/>
<path d="M115.99 313.378L49.4027 199.392" stroke="#EFB85F" stroke-linecap="round"/>
<path d="M49.4029 199.392L82.1139 142.062" stroke="#EFB85F" stroke-linecap="round"/>
<path d="M82.1136 142.062L214.122 141.389" stroke="#EFB85F" stroke-linecap="round"/>
<path d="M214.123 141.389L247.416 198.383" stroke="#EFB85F" stroke-linecap="round"/>
<path d="M148.569 222.098L148.993 313.21" stroke="#EFB85F"/>
<path d="M145.166 216.035L65.7588 170.727" stroke="#EFB85F"/>
<path d="M151.773 216.033L230.77 169.886" stroke="#EFB85F"/>
<path d="M239.652 206.893L235.065 204.276" stroke="#EFB85F" stroke-linecap="round"/>
<path d="M235.066 204.276L231.795 210.009" stroke="#EFB85F" stroke-linecap="round"/>
<path d="M231.793 210.009L236.38 212.626" stroke="#EFB85F" stroke-linecap="round"/>
<path d="M236.381 212.626L239.652 206.893" stroke="#EFB85F" stroke-linecap="round"/>
<path d="M61.8126 205.158L57.2524 207.823" stroke="#EFB85F" stroke-linecap="round"/>
<path d="M188.641 296.295L184.054 293.678" stroke="#EFB85F" stroke-linecap="round"/>
<path d="M184.055 293.678L180.784 299.411" stroke="#EFB85F" stroke-linecap="round"/>
<path d="M180.783 299.411L185.37 302.028" stroke="#EFB85F" stroke-linecap="round"/>
<path d="M185.37 302.029L188.641 296.295" stroke="#EFB85F" stroke-linecap="round"/>
<path d="M57.253 207.822L60.5825 213.522" stroke="#EFB85F" stroke-linecap="round"/>
<path d="M65.1416 210.859L61.8119 205.159" stroke="#EFB85F" stroke-linecap="round"/>
<path d="M60.5811 213.522L65.1416 210.858" stroke="#EFB85F" stroke-linecap="round"/>
<path d="M113.731 294.036L109.171 296.701" stroke="#EFB85F" stroke-linecap="round"/>
<path d="M109.172 296.7L112.501 302.4" stroke="#EFB85F" stroke-linecap="round"/>
<path d="M112.501 302.4L117.061 299.736" stroke="#EFB85F" stroke-linecap="round"/>
<path d="M117.061 299.736L113.732 294.037" stroke="#EFB85F" stroke-linecap="round"/>
<path d="M202.923 149.253L202.896 143.97" stroke="#EFB85F" stroke-linecap="round"/>
<path d="M202.896 143.971L196.295 144.005" stroke="#EFB85F" stroke-linecap="round"/>
<path d="M196.322 149.287L202.923 149.253" stroke="#EFB85F" stroke-linecap="round"/>
<path d="M196.295 144.004L196.322 149.287" stroke="#EFB85F" stroke-linecap="round"/>
<path d="M99.9933 149.777L99.9664 144.495" stroke="#EFB85F" stroke-linecap="round"/>
<path d="M99.9664 144.496L93.3658 144.529" stroke="#EFB85F" stroke-linecap="round"/>
<path d="M93.3658 144.528L93.3927 149.811" stroke="#EFB85F" stroke-linecap="round"/>
<path d="M93.3927 149.811L99.9933 149.777" stroke="#EFB85F" stroke-linecap="round"/>
<path d="M182.099 307.762L182.033 307.758" stroke="#EFB85F" stroke-dasharray="67.2 13.44 13.44 13.44"/>
<path d="M160.453 303.711C160.821 304.114 161.038 304.562 161.103 305.057C161.166 305.554 161.087 306.058 160.867 306.571C160.646 307.084 160.294 307.567 159.81 308.018C159.33 308.466 158.826 308.775 158.298 308.946C157.765 309.117 157.251 309.147 156.757 309.038C156.262 308.928 155.83 308.675 155.459 308.278C155.188 307.988 155.009 307.684 154.924 307.368C154.836 307.053 154.822 306.73 154.882 306.398C154.94 306.065 155.049 305.728 155.209 305.387L154.942 305.101L155.971 303.93L157.794 301.063L158.434 301.748L156.576 304.578C156.453 304.751 156.321 304.963 156.18 305.216C156.039 305.468 155.923 305.738 155.832 306.024C155.742 306.31 155.713 306.596 155.746 306.88C155.774 307.165 155.899 307.425 156.12 307.662C156.356 307.915 156.642 308.068 156.978 308.12C157.314 308.171 157.67 308.125 158.044 307.982C158.419 307.838 158.783 307.601 159.136 307.271C159.481 306.95 159.743 306.608 159.922 306.246C160.099 305.887 160.181 305.539 160.166 305.203C160.15 304.868 160.025 304.577 159.792 304.327C159.577 304.097 159.327 303.956 159.041 303.903C158.753 303.853 158.459 303.86 158.157 303.924C157.853 303.99 157.566 304.084 157.294 304.205C157.019 304.326 156.787 304.443 156.601 304.555L153.707 306.276L153.068 305.591L155.996 303.907L157.272 302.926L157.504 303.175C157.863 303.043 158.217 302.965 158.568 302.94C158.914 302.916 159.247 302.965 159.567 303.086C159.884 303.206 160.18 303.414 160.453 303.711Z" fill="#EFB85F"/>
<path d="M68.9665 187.117L68.385 186.494C67.9779 186.058 67.7389 185.616 67.6678 185.17C67.5949 184.721 67.6406 184.299 67.8049 183.905C67.9673 183.509 68.198 183.171 68.4971 182.892C68.8585 182.554 69.263 182.334 69.7108 182.231C70.1565 182.13 70.6021 182.147 71.0477 182.283C71.4912 182.421 71.8893 182.679 72.2421 183.057C72.4573 183.287 72.6279 183.556 72.7541 183.861C72.8762 184.167 72.8972 184.521 72.817 184.922L72.8884 184.948L71.6673 186.088C71.8708 185.898 72.0122 185.673 72.0916 185.412C72.169 185.15 72.1733 184.878 72.1046 184.596C72.034 184.312 71.8785 184.041 71.6382 183.784C71.3862 183.514 71.1119 183.335 70.8155 183.246C70.5191 183.157 70.228 183.147 69.9422 183.216C69.6564 183.284 69.4035 183.421 69.1833 183.627C68.9756 183.821 68.8239 184.052 68.7283 184.32C68.6286 184.588 68.601 184.862 68.6456 185.143C68.6862 185.424 68.815 185.68 69.0321 185.913L69.602 186.524L68.9665 187.117ZM65.8504 189.349C65.5733 189.052 65.3758 188.745 65.2581 188.427C65.1385 188.107 65.086 187.793 65.1007 187.484C65.1113 187.175 65.1785 186.887 65.3023 186.62C65.4242 186.35 65.59 186.118 65.7997 185.922C66.0614 185.678 66.3841 185.501 66.7677 185.392C67.1493 185.284 67.5542 185.287 67.9825 185.4C68.4087 185.516 68.8195 185.785 69.2149 186.209L69.5522 186.57L68.9167 187.163L68.591 186.814C68.3662 186.573 68.1244 186.414 67.8658 186.337C67.6052 186.258 67.3533 186.248 67.11 186.308C66.8648 186.366 66.6529 186.478 66.4743 186.645C66.1877 186.912 66.0526 187.244 66.0691 187.641C66.0837 188.036 66.2392 188.392 66.5358 188.709C66.7335 188.921 66.9584 189.075 67.2104 189.17C67.4604 189.263 67.7128 189.29 67.9674 189.25C68.2201 189.209 68.4482 189.093 68.6517 188.903L75.1937 182.797L75.8799 183.532L69.3379 189.638C69.0098 189.944 68.6403 190.138 68.2295 190.218C67.8168 190.296 67.4028 190.263 66.9877 190.118C66.5707 189.971 66.1916 189.715 65.8504 189.349Z" fill="#EFB85F"/>
<path d="M217.251 173.62L216.506 172.822L218.97 168.168L214.18 170.33L213.436 169.533L219.68 166.829L221.574 165.061L222.26 165.797L220.366 167.564L217.251 173.62Z" fill="#EFB85F"/>
<path d="M195.768 222.251L194.335 222.962L194.055 224.776C193.701 226.972 193.601 226.793 195.557 227.484L197.171 228.046L198.62 227.004L200.077 225.973L198.502 225.448C196.601 224.796 196.685 224.926 196.955 223.073L197.191 221.547L195.768 222.251ZM195.885 226.998L194.638 226.627L195.416 226.034C196.096 225.504 196.353 225.476 197.486 225.767L198.769 226.099L197.956 226.731C197.232 227.289 197.004 227.314 195.885 226.998ZM196.204 224.015C196.07 224.895 194.935 226.07 194.643 225.617C194.379 225.207 195.031 223.474 195.57 223.127C196.281 222.668 196.389 222.812 196.204 224.015Z" fill="#EFB85F"/>
<path d="M193.223 224.031C193.05 224.142 192.833 224.893 192.742 225.699L192.578 227.148L188.047 230.177C182.739 233.708 183.172 233.55 183.529 231.809C183.84 230.281 183.541 229.864 183.013 231.104C182.818 231.535 182.243 232.654 181.717 233.589L180.762 235.303L183.492 234.992C186.592 234.641 186.717 234.575 185.103 234.06L183.931 233.686L188.457 230.767L192.994 227.84L194.292 228.362C195.6 228.876 196.471 228.925 196.179 228.472C196.096 228.343 195.428 228.041 194.681 227.805C193.024 227.272 193.097 227.408 193.344 225.448C193.466 224.408 193.428 223.899 193.223 224.031Z" fill="#EFB85F"/>
<path d="M182.452 223.346L183.163 224.779L184.976 225.059C187.173 225.413 186.994 225.513 187.685 223.557L188.246 221.943L187.205 220.494L186.174 219.037L185.648 220.612C184.997 222.513 185.126 222.429 183.274 222.159L181.748 221.923L182.452 223.346ZM187.199 223.229L186.828 224.476L186.235 223.698C185.704 223.018 185.676 222.761 185.967 221.627L186.3 220.345L186.931 221.158C187.49 221.882 187.515 222.11 187.199 223.229ZM184.216 222.91C185.096 223.044 186.27 224.179 185.818 224.471C185.408 224.735 183.675 224.083 183.327 223.544C182.869 222.833 183.013 222.725 184.216 222.91Z" fill="#EFB85F"/>
<path d="M184.231 225.891C184.342 226.064 185.093 226.282 185.899 226.372L187.348 226.536L190.378 231.068C193.908 236.375 193.751 235.942 192.01 235.585C190.481 235.274 190.064 235.573 191.305 236.101C191.736 236.296 192.855 236.871 193.789 237.398L195.504 238.352L195.193 235.623C194.841 232.522 194.776 232.397 194.26 234.011L193.887 235.183L190.967 230.657L188.041 226.12L188.562 224.822C189.076 223.514 189.125 222.643 188.672 222.935C188.543 223.018 188.241 223.686 188.006 224.433C187.472 226.09 187.608 226.017 185.649 225.771C184.608 225.648 184.099 225.687 184.231 225.891Z" fill="#EFB85F"/>
<path d="M159.624 266.65C159.555 266.035 159.301 265.152 159.049 264.678C158.391 263.408 159.319 261.885 160.358 262.527C160.739 262.762 160.617 263.882 160.217 263.731C160.091 263.683 160.016 263.537 160.063 263.411C160.111 263.285 159.99 263.121 159.795 263.047C159.326 262.87 159.103 263.807 159.485 264.318C160.216 265.289 160.455 264.934 162.351 260.018C164.32 254.908 164.384 254.566 163.553 252.824C163.125 251.916 163.132 251.827 163.911 249.764C164.937 247.048 165.421 247.047 166.067 249.766L166.308 250.787L167.03 250.156C167.612 249.656 169.245 249.068 169.634 249.215C169.691 249.236 169.31 250.245 168.801 251.454C167.906 253.617 167.861 253.666 166.792 254.179C166.2 254.466 165.668 254.802 165.62 254.928C165.572 255.054 165.376 255.228 165.187 255.314C164.95 255.421 164.496 256.415 163.871 258.209C162.831 261.169 162.434 262.185 161.699 263.819C161.134 265.072 161.205 265.335 162.141 265.348C162.941 265.375 163.529 264.615 163.051 264.186C162.882 264.043 162.714 264.006 162.67 264.12C162.627 264.235 162.701 264.42 162.835 264.549C162.973 264.667 162.844 264.697 162.559 264.589C161.955 264.387 162.127 263.483 162.754 263.484C164.182 263.474 163.973 265.411 162.503 265.982C162 266.172 161.225 266.665 160.767 267.082C160.325 267.491 159.906 267.804 159.849 267.783C159.792 267.761 159.685 267.249 159.624 266.65ZM165 253.109C165.121 252.788 165.068 252.375 164.869 252.143C164.532 251.753 164.472 250.736 164.732 249.459C164.792 249.128 164.592 249.484 164.291 250.248C163.797 251.45 163.76 251.789 164.05 252.58C164.434 253.707 164.719 253.854 165 253.109ZM166.621 253.695C167.265 253.375 167.507 253.047 168.072 251.689C168.543 250.545 168.619 250.207 168.33 250.556C168.106 250.838 167.795 251.349 167.65 251.7C167.482 252.108 167.05 252.456 166.469 252.681C165.526 253.032 165.005 253.753 165.554 253.96C165.714 254.021 166.203 253.904 166.621 253.695ZM165.681 250.131L165.503 249.357L165.192 249.973C165.007 250.322 164.948 250.928 165.059 251.363L165.236 252.137L165.548 251.522C165.732 251.172 165.791 250.566 165.681 250.131ZM166.652 252.161C166.866 252.046 167.132 251.583 167.246 251.142L167.452 250.355L166.743 251.056C165.699 252.089 165.65 252.739 166.652 252.161Z" fill="#EFB85F"/>
<path d="M155.006 254.03C155.621 253.968 156.506 253.721 156.983 253.474C158.26 252.829 159.773 253.772 159.121 254.804C158.882 255.183 157.764 255.05 157.919 254.651C157.968 254.526 158.115 254.452 158.24 254.501C158.366 254.55 158.531 254.43 158.606 254.237C158.788 253.769 157.853 253.537 157.338 253.914C156.361 254.636 156.713 254.878 161.61 256.822C166.7 258.842 167.042 258.909 168.792 258.094C169.704 257.675 169.793 257.683 171.848 258.483C174.555 259.536 174.55 260.019 171.825 260.638L170.802 260.87L171.425 261.598C171.92 262.184 172.492 263.823 172.341 264.211C172.319 264.268 171.315 263.877 170.111 263.356C167.956 262.439 167.908 262.394 167.406 261.32C167.125 260.725 166.794 260.19 166.668 260.141C166.543 260.092 166.37 259.894 166.286 259.704C166.181 259.466 165.192 259.002 163.404 258.36C160.455 257.291 159.443 256.884 157.816 256.133C156.568 255.556 156.305 255.624 156.283 256.56C156.248 257.36 157.002 257.955 157.436 257.481C157.58 257.314 157.619 257.145 157.505 257.101C157.391 257.057 157.205 257.129 157.074 257.261C156.955 257.399 156.927 257.27 157.038 256.985C157.245 256.383 158.148 256.564 158.14 257.191C158.137 258.619 156.201 258.391 155.645 256.915C155.46 256.41 154.974 255.631 154.562 255.169C154.158 254.723 153.849 254.301 153.871 254.244C153.893 254.187 154.406 254.085 155.006 254.03ZM168.493 259.539C168.813 259.663 169.226 259.614 169.461 259.417C169.853 259.084 170.872 259.034 172.146 259.307C172.476 259.37 172.122 259.166 171.361 258.857C170.164 258.352 169.825 258.312 169.031 258.594C167.9 258.967 167.751 259.25 168.493 259.539ZM167.891 261.154C168.205 261.801 168.53 262.046 169.882 262.624C171.022 263.107 171.36 263.186 171.013 262.894C170.734 262.667 170.225 262.351 169.876 262.202C169.469 262.031 169.126 261.595 168.906 261.011C168.564 260.065 167.849 259.538 167.637 260.085C167.574 260.244 167.686 260.734 167.891 261.154ZM171.464 260.249L172.24 260.078L171.627 259.761C171.28 259.573 170.674 259.508 170.238 259.614L169.462 259.785L170.075 260.102C170.423 260.29 171.028 260.355 171.464 260.249ZM169.424 261.2C169.538 261.415 169.998 261.685 170.438 261.804L171.223 262.018L170.529 261.302C169.506 260.248 168.857 260.192 169.424 261.2Z" fill="#EFB85F"/>
<path d="M111.394 187.238C111.551 187.228 111.768 187.185 111.82 187.157C111.851 187.137 111.889 187.124 111.907 187.124C111.922 187.125 112.049 187.063 112.185 186.987C112.516 186.803 112.709 186.718 112.895 186.687C113.245 186.623 113.605 186.701 113.889 186.904C114 186.983 114.107 186.985 114.097 186.908C114.072 186.748 113.696 186.327 113.455 186.197C113.193 186.056 113.133 186.039 112.893 186.03C112.553 186.021 112.481 186.054 111.748 186.52C111.489 186.686 111.358 186.725 111.09 186.716C110.875 186.708 110.837 186.699 110.698 186.624C110.613 186.578 110.526 186.524 110.504 186.503C110.484 186.482 110.455 186.466 110.439 186.465C110.424 186.465 110.407 186.446 110.398 186.426C110.391 186.405 110.374 186.387 110.358 186.386C110.343 186.386 110.294 186.356 110.252 186.322C109.949 186.073 109.472 186.08 109.172 186.333C109.054 186.433 108.984 186.544 108.981 186.636C108.979 186.709 109.034 186.713 109.181 186.647C109.516 186.499 109.883 186.507 110.146 186.663C110.238 186.717 110.419 186.845 110.52 186.929C110.621 187.011 110.83 187.13 110.947 187.172C111.045 187.206 111.307 187.245 111.394 187.238Z" fill="#EFB85F"/>
<path d="M111.255 185.822C111.493 185.746 111.632 185.677 111.825 185.547C111.923 185.482 112.099 185.384 112.22 185.33C112.439 185.231 112.439 185.231 112.73 185.241C113.034 185.252 113.187 185.287 113.504 185.423C113.674 185.494 113.71 185.49 113.713 185.399C113.716 185.306 113.417 185.001 113.221 184.896C112.743 184.641 112.44 184.6 112.025 184.738C111.871 184.788 111.796 184.831 111.537 185.002C111.187 185.231 111.071 185.273 110.782 185.263C110.651 185.258 110.532 185.244 110.518 185.228C110.5 185.215 110.448 185.19 110.4 185.176C110.353 185.159 110.232 185.115 110.138 185.076C109.845 184.959 109.593 184.981 109.309 185.149C109.146 185.244 109.175 185.289 109.419 185.32C109.765 185.365 109.895 185.41 110.286 185.631C110.718 185.877 110.95 185.923 111.255 185.822Z" fill="#EFB85F"/>
<path d="M111.218 184.388C111.423 184.342 111.52 184.302 111.691 184.194C111.823 184.11 111.95 184.046 112.127 183.974C112.269 183.915 112.646 183.926 112.793 183.994C112.85 184.019 112.943 184.063 112.998 184.087C113.212 184.183 113.2 184.018 112.975 183.777C112.758 183.547 112.475 183.448 112.081 183.468C111.914 183.475 111.847 183.495 111.53 183.639C110.938 183.902 110.918 183.909 110.667 183.898C110.541 183.891 110.402 183.871 110.34 183.846C110.1 183.752 109.948 183.726 109.808 183.757C109.619 183.798 109.506 183.85 109.512 183.896C109.516 183.919 109.573 183.951 109.643 183.974C109.889 184.051 109.947 184.071 110.079 184.139C110.657 184.43 110.845 184.472 111.218 184.388Z" fill="#EFB85F"/>
<path d="M173.242 191.1C173.343 191.059 173.537 190.943 173.676 190.84C173.867 190.702 174 190.659 174.196 190.681C174.775 190.748 175.275 190.241 175.301 189.566C175.309 189.35 175.349 189.158 175.386 189.133C175.845 188.863 175.531 187.758 174.989 187.737C174.897 187.733 174.778 187.677 174.73 187.611C174.588 187.416 174.374 187.31 174.002 187.255C173.201 187.131 173.335 186.416 174.227 186.043C174.828 185.79 174.871 185.687 174.36 185.713C174.046 185.731 173.815 185.8 173.339 186.021C173.303 186.034 173.299 185.963 173.331 185.856C173.402 185.601 173.22 185.583 173.001 185.821L172.845 185.991L172.612 185.836C172.312 185.634 171.461 185.512 171.455 185.673C171.453 185.729 171.613 185.843 171.82 185.929C172.371 186.159 172.736 186.599 172.665 186.954C172.585 187.369 172.468 187.447 172.156 187.297C171.295 186.879 170.117 187.838 170.621 188.544C170.733 188.701 170.735 188.739 170.631 188.933C170.4 189.375 170.746 190.053 171.258 190.166C171.481 190.212 171.551 190.27 171.608 190.44C171.761 190.92 172.72 191.308 173.242 191.1ZM172.382 190.627C172.348 190.588 172.506 190.572 172.758 190.589C173.239 190.618 173.263 190.63 173.028 190.722C172.85 190.794 172.481 190.739 172.382 190.627ZM173.825 190.017C173.862 189.982 174 189.923 174.13 189.884C174.379 189.807 174.447 189.896 174.232 190.014C174.075 190.102 173.726 190.103 173.825 190.017ZM174.644 189.967C174.645 189.929 174.679 189.878 174.72 189.854C174.76 189.829 174.797 189.685 174.803 189.536C174.814 189.331 174.834 189.291 174.88 189.375C174.971 189.535 174.951 189.851 174.844 189.956C174.737 190.06 174.64 190.064 174.644 189.967ZM171.015 189.541C170.916 189.238 171.029 189.064 171.136 189.355C171.181 189.484 171.255 189.613 171.296 189.645C171.425 189.735 171.375 189.827 171.22 189.776C171.142 189.751 171.046 189.646 171.015 189.541ZM172.065 189.23C172.042 189.084 172.078 188.883 172.152 188.715C172.359 188.252 172.173 188.171 171.689 188.51C171.418 188.698 171.39 188.682 171.528 188.426C171.659 188.185 171.914 188.038 172.294 187.981C172.513 187.948 172.58 187.884 172.813 187.467C173.127 186.912 173.102 186.922 173.338 187.256C173.47 187.448 173.63 187.558 173.905 187.651C174.324 187.797 174.711 188.204 174.7 188.487C174.694 188.644 174.691 188.644 174.506 188.45C174.276 188.21 173.92 187.995 173.735 187.988C173.66 187.985 173.513 187.908 173.413 187.819C173.31 187.725 173.219 187.666 173.208 187.68C172.876 188.145 172.876 188.156 173.207 188.266C173.655 188.41 173.918 188.707 173.881 189.023C173.839 189.361 173.695 189.408 173.642 189.104C173.5 188.266 172.418 188.467 172.385 189.336C172.367 189.809 172.134 189.736 172.065 189.23ZM174.959 188.445C174.929 188.1 174.933 188.082 175.028 188.22C175.136 188.37 175.159 188.725 175.07 188.811C174.999 188.876 174.996 188.864 174.959 188.445ZM170.899 188.085C170.976 187.852 171.218 187.668 171.439 187.676L171.628 187.683L171.394 187.82C171.267 187.893 171.126 188.022 171.08 188.106C170.965 188.311 170.834 188.295 170.899 188.085Z" fill="#EFB85F"/>
<line x1="186.428" y1="141.317" x2="186.36" y2="143.291" stroke="#EFB85F"/>
<line x1="181.928" y1="142.638" x2="185.877" y2="142.774" stroke="#EFB85F"/>
<line x1="182.41" y1="143.155" x2="182.138" y2="151.054" stroke="#EFB85F"/>
<line x1="175.073" y1="150.31" x2="181.656" y2="150.537" stroke="#EFB85F"/>
<line x1="175.567" y1="150.495" x2="174.875" y2="170.574" stroke="#EFB85F"/>
<line x1="125.683" y1="168.378" x2="174.393" y2="170.057" stroke="#EFB85F"/>
<line x1="125.166" y1="168.861" x2="125.915" y2="147.139" stroke="#EFB85F"/>
<line x1="145.486" y1="148.314" x2="126.398" y2="147.656" stroke="#EFB85F"/>
<line x1="146.003" y1="147.831" x2="145.572" y2="160.338" stroke="#EFB85F"/>
<line x1="108.887" y1="158.573" x2="145.09" y2="159.821" stroke="#EFB85F"/>
<line x1="108.37" y1="159.056" x2="108.733" y2="148.524" stroke="#EFB85F"/>
<line x1="156.608" y1="150.674" x2="109.215" y2="149.04" stroke="#EFB85F"/>
<line x1="157.125" y1="150.192" x2="155.945" y2="184.42" stroke="#EFB85F"/>
<line x1="178.393" y1="141.171" x2="178.325" y2="143.146" stroke="#EFB85F"/>
<line x1="169.727" y1="142.547" x2="177.83" y2="142.629" stroke="#EFB85F"/>
<line x1="170.222" y1="143.065" x2="169.768" y2="156.229" stroke="#EFB85F"/>
<line x1="187.681" y1="157.347" x2="169.251" y2="156.712" stroke="#EFB85F"/>
<line x1="187.199" y1="156.83" x2="187.607" y2="144.982" stroke="#EFB85F"/>
<line x1="163.77" y1="143.659" x2="188.124" y2="144.499" stroke="#EFB85F"/>
<line x1="164.252" y1="144.176" x2="163.572" y2="163.923" stroke="#EFB85F"/>
<line x1="115.038" y1="161.75" x2="163.089" y2="163.407" stroke="#EFB85F"/>
<line x1="114.521" y1="162.233" x2="114.861" y2="152.359" stroke="#EFB85F"/>
<line x1="151.547" y1="154.124" x2="115.344" y2="152.876" stroke="#EFB85F"/>
<line x1="152.064" y1="153.642" x2="151.633" y2="166.148" stroke="#EFB85F"/>
<line x1="111.656" y1="164.27" x2="151.15" y2="165.631" stroke="#EFB85F"/>
<line x1="112.139" y1="164.787" x2="111.503" y2="183.217" stroke="#EFB85F"/>
<line x1="147.694" y1="141.794" x2="147.626" y2="143.768" stroke="#EFB85F"/>
<line x1="153.86" y1="144.401" x2="147.111" y2="144.168" stroke="#EFB85F"/>
<line x1="154.376" y1="143.919" x2="154.084" y2="152.393" stroke="#EFB85F"/>
<line x1="135.829" y1="151.264" x2="153.601" y2="151.877" stroke="#EFB85F"/>
<line x1="136.311" y1="151.781" x2="136.107" y2="157.705" stroke="#EFB85F"/>
<line x1="149.413" y1="158.664" x2="135.59" y2="158.187" stroke="#EFB85F"/>
<line x1="149.93" y1="158.181" x2="149.454" y2="172.004" stroke="#EFB85F"/>
<line x1="131.857" y1="170.897" x2="148.971" y2="171.487" stroke="#EFB85F"/>
<line x1="131.34" y1="171.38" x2="131.93" y2="154.266" stroke="#EFB85F"/>
<line x1="166.641" y1="155.963" x2="132.413" y2="154.783" stroke="#EFB85F"/>
<line x1="167.158" y1="155.48" x2="166.477" y2="175.227" stroke="#EFB85F"/>
<line x1="173.201" y1="175.959" x2="165.96" y2="175.71" stroke="#EFB85F"/>
<line x1="173.718" y1="175.477" x2="173.377" y2="185.35" stroke="#EFB85F"/>
<line x1="131.386" y1="141.726" x2="131.318" y2="143.7" stroke="#EFB85F"/>
<line x1="139.358" y1="144.478" x2="130.801" y2="144.183" stroke="#EFB85F"/>
<line x1="139.875" y1="143.995" x2="138.808" y2="174.932" stroke="#EFB85F"/>
<line x1="101.465" y1="173.145" x2="138.326" y2="174.415" stroke="#EFB85F"/>
<line x1="100.948" y1="173.627" x2="101.629" y2="153.88" stroke="#EFB85F"/>
<line x1="128.44" y1="155.305" x2="102.111" y2="154.397" stroke="#EFB85F"/>
<line x1="127.958" y1="154.788" x2="128.276" y2="145.573" stroke="#EFB85F"/>
<line x1="118.919" y1="144.75" x2="128.793" y2="145.09" stroke="#EFB85F"/>
<line x1="119.402" y1="145.267" x2="118.176" y2="180.811" stroke="#EFB85F"/>
<line x1="132.141" y1="181.793" x2="117.659" y2="181.294" stroke="#EFB85F"/>
<line x1="132.658" y1="181.311" x2="132.567" y2="183.944" stroke="#EFB85F"/>
<line x1="122.318" y1="141.907" x2="122.25" y2="143.882" stroke="#EFB85F"/>
<line x1="111.058" y1="143.161" x2="121.76" y2="143.365" stroke="#EFB85F"/>
<line x1="111.548" y1="143.678" x2="111.094" y2="156.843" stroke="#EFB85F"/>
<line x1="129.666" y1="157.983" x2="110.577" y2="157.325" stroke="#EFB85F"/>
<line x1="130.183" y1="157.501" x2="129.48" y2="177.906" stroke="#EFB85F"/>
<line x1="105.959" y1="176.595" x2="128.997" y2="177.389" stroke="#EFB85F"/>
<line x1="105.442" y1="177.078" x2="105.851" y2="165.229" stroke="#EFB85F"/>
<line x1="154.384" y1="167.403" x2="106.333" y2="165.746" stroke="#EFB85F"/>
<line x1="153.902" y1="166.886" x2="154.219" y2="157.67" stroke="#EFB85F"/>
<line x1="161.284" y1="158.414" x2="154.702" y2="158.187" stroke="#EFB85F"/>
<line x1="161.801" y1="157.931" x2="161.12" y2="177.678" stroke="#EFB85F"/>
<line x1="144.182" y1="176.595" x2="160.638" y2="177.162" stroke="#EFB85F"/>
<line x1="144.665" y1="177.111" x2="144.415" y2="184.352" stroke="#EFB85F"/>
<path d="M153.126 190.548C153.184 190.514 153.278 190.507 153.53 190.511C153.893 190.518 154.005 190.487 154.158 190.346C154.243 190.263 154.294 190.077 154.251 190.002C154.212 189.935 154.054 189.942 153.959 190.013C153.883 190.068 153.845 190.076 153.597 190.071C153.276 190.068 153.145 190.111 153.018 190.255C152.955 190.329 152.939 190.371 152.942 190.462C152.944 190.593 152.999 190.621 153.126 190.548Z" fill="#EFB85F"/>
<path d="M155.62 190.225C155.636 190.22 155.789 190.088 155.959 189.938C156.126 189.785 156.491 189.454 156.771 189.206C157.959 188.153 158.229 187.894 158.234 187.808C158.24 187.71 158.181 187.671 157.997 187.66C157.901 187.654 157.825 187.668 157.759 187.702C157.706 187.731 157.207 188.158 156.653 188.651C156.095 189.146 155.621 189.548 155.595 189.546C155.571 189.545 155.132 189.069 154.624 188.489C154.114 187.907 153.671 187.417 153.64 187.399C153.49 187.307 153.203 187.402 153.195 187.546C153.193 187.565 153.325 187.736 153.49 187.928C153.652 188.117 153.796 188.3 153.813 188.333C153.829 188.371 153.826 188.598 153.801 189.006C153.769 189.526 153.768 189.625 153.804 189.661C153.834 189.695 153.9 189.71 154.091 189.722C154.227 189.73 154.358 189.73 154.383 189.724C154.418 189.712 154.43 189.66 154.444 189.42C154.457 189.209 154.47 189.13 154.494 189.131C154.513 189.132 154.749 189.382 155.017 189.685C155.48 190.205 155.533 190.254 155.62 190.225Z" fill="#EFB85F"/>
<path d="M156.658 188.303L157.613 187.458L157.665 186.613L157.717 185.771L157.495 185.757C157.375 185.75 157.153 185.718 157 185.684C156.667 185.61 156.649 185.607 156.669 185.578C156.678 185.566 156.975 185.568 157.327 185.578C158.032 185.605 158.064 185.602 158.137 185.449C158.168 185.389 158.17 185.352 158.152 185.302L158.124 185.234L155.837 185.094C153.655 184.961 153.545 184.957 153.503 185C153.429 185.07 153.44 185.148 153.535 185.258C153.615 185.352 153.633 185.361 153.78 185.37C153.897 185.377 153.939 185.39 153.95 185.423C153.957 185.447 153.94 185.858 153.911 186.335L153.857 187.207L154.453 187.874C155.417 188.958 155.593 189.145 155.651 189.149C155.686 189.151 156.038 188.857 156.658 188.303ZM156.052 187.279C156.029 187.259 156.028 187.144 156.055 186.79L156.091 186.327L156.483 186.343C156.969 186.364 156.956 186.353 156.942 186.708C156.927 187.178 156.911 187.302 156.87 187.327C156.823 187.353 156.098 187.312 156.052 187.279ZM154.598 187.126C154.592 187.091 154.613 186.699 154.643 186.252L154.701 185.439L155.087 185.463L155.474 185.487L155.431 186.324C155.4 186.918 155.376 187.171 155.353 187.194C155.328 187.222 155.234 187.224 154.965 187.207C154.618 187.186 154.608 187.183 154.598 187.126Z" fill="#EFB85F"/>
<path d="M144.77 188.652C144.809 188.617 144.877 188.527 144.92 188.455C144.964 188.381 145.062 188.219 145.137 188.09C145.212 187.964 145.31 187.802 145.35 187.73C145.393 187.66 145.468 187.532 145.52 187.447C145.687 187.169 146.145 186.4 146.345 186.058C146.411 185.945 146.535 185.731 146.622 185.584C146.806 185.268 146.82 185.189 146.695 185.112C146.618 185.062 146.561 185.055 146.043 185.037C145.43 185.016 145.324 185.028 145.173 185.141C145.087 185.203 144.811 185.648 144.808 185.727C144.808 185.74 144.79 185.792 144.766 185.838C144.743 185.884 144.705 185.97 144.681 186.027C144.601 186.216 144.536 186.363 144.49 186.453C144.411 186.611 144.37 186.696 144.355 186.743C144.337 186.795 144.269 186.779 144.247 186.718C144.23 186.67 144.328 186.017 144.367 185.913C144.385 185.872 144.398 185.794 144.4 185.741C144.402 185.686 144.426 185.545 144.454 185.428C144.512 185.17 144.504 185.104 144.389 185.032C144.307 184.979 144.25 184.975 143.089 184.935C141.47 184.879 141.525 184.855 141.818 185.476C141.91 185.669 142.039 185.938 142.105 186.069C142.288 186.432 142.854 187.583 143.161 188.211C143.445 188.796 143.461 188.796 143.854 188.19C143.868 188.17 143.915 188.09 143.955 188.018C144.042 187.858 144.108 187.845 144.163 187.972C144.211 188.082 144.328 188.301 144.393 188.406C144.418 188.451 144.451 188.513 144.464 188.542C144.491 188.609 144.615 188.715 144.664 188.717C144.683 188.718 144.73 188.688 144.77 188.652Z" fill="#EFB85F"/>
<path d="M132.218 189.74C132.267 189.723 132.469 189.469 132.568 189.304C132.585 189.275 132.62 189.22 132.648 189.181C132.72 189.08 133.036 188.618 133.07 188.566C133.177 188.401 133.307 188.205 133.344 188.156C133.595 187.812 133.888 187.32 133.999 187.056C134.083 186.856 134.106 186.214 134.039 185.97C133.925 185.564 133.744 185.285 133.412 185.007C133.161 184.797 132.761 184.651 132.389 184.634C131.809 184.609 131.179 184.941 130.862 185.438C130.686 185.715 130.653 185.791 130.601 186.058C130.542 186.37 130.585 186.855 130.698 187.102C130.71 187.132 130.742 187.203 130.766 187.263C130.819 187.392 131.209 188.113 131.437 188.502C131.524 188.654 131.606 188.802 131.621 188.833C131.636 188.863 131.668 188.926 131.696 188.97C131.723 189.017 131.753 189.072 131.763 189.094C131.782 189.141 132.172 189.757 132.18 189.755C132.183 189.755 132.199 189.747 132.218 189.74ZM133.177 187.004C133.249 186.824 133.226 186.426 133.129 186.185C133.067 186.021 132.915 185.794 132.817 185.712C132.674 185.593 132.58 185.529 132.54 185.528C132.521 185.527 132.466 185.498 132.417 185.466C132.33 185.408 132.328 185.403 132.38 185.378C132.408 185.363 132.524 185.355 132.634 185.36C132.794 185.37 132.863 185.386 132.984 185.45C133.155 185.544 133.363 185.757 133.452 185.933C133.541 186.109 133.571 186.395 133.521 186.557C133.468 186.729 133.321 187.013 133.248 187.085C133.17 187.162 133.131 187.117 133.177 187.004Z" fill="#EFB85F"/>
</g>
<defs>
<clipPath id="clip0_549_86625">
<rect width="297.64" height="419.53" fill="white"/>
</clipPath>
<clipPath id="clip1_549_86625">
<rect width="297.638" height="419.528" rx="10" fill="white"/>
</clipPath>
<clipPath id="clip2_549_86625">
<rect width="259" height="381" fill="white" transform="translate(19.041 19.4131)"/>
</clipPath>
</defs>
</svg>
