<svg width="298" height="420" viewBox="0 0 298 420" fill="none" xmlns="http://www.w3.org/2000/svg">
<g clip-path="url(#clip0_239_23484)">
<rect width="297.638" height="419.528" rx="10" fill="#032206"/>
<rect x="12" y="12" width="273" height="396" rx="9" stroke="#EFB85F" stroke-width="2"/>
<rect x="19.5" y="19.5" width="258" height="380" rx="6.5" stroke="#EFB85F"/>
<circle cx="76.7197" cy="259.47" r="1" fill="#EFB85F"/>
<circle cx="222.72" cy="204.47" r="1" fill="#EFB85F"/>
<circle cx="211.72" cy="129.47" r="1" fill="#EFB85F"/>
<circle cx="241.72" cy="96.4702" r="1" fill="#EFB85F"/>
<circle cx="125.72" cy="66.4702" r="1" fill="#EFB85F"/>
<circle cx="59.7197" cy="98.4702" r="1" fill="#EFB85F"/>
<circle cx="187.72" cy="97.4702" r="1" fill="#EFB85F"/>
<circle cx="50.7197" cy="187.47" r="1" fill="#EFB85F"/>
<circle cx="50.7197" cy="187.47" r="1" fill="#EFB85F"/>
<circle cx="50.7197" cy="187.47" r="1" fill="#EFB85F"/>
<circle cx="74.7197" cy="323.47" r="1" fill="#EFB85F"/>
<circle cx="164.72" cy="363.47" r="1" fill="#EFB85F"/>
<circle cx="66.7197" cy="376.47" r="1" fill="#EFB85F"/>
<circle cx="114.72" cy="393.47" r="1" fill="#EFB85F"/>
<circle cx="164.72" cy="395.47" r="1" fill="#EFB85F"/>
<circle cx="215.72" cy="105.47" r="1" fill="#EFB85F"/>
<circle cx="162.72" cy="91.4702" r="1" fill="#EFB85F"/>
<circle cx="162.72" cy="91.4702" r="1" fill="#EFB85F"/>
<circle cx="21.7197" cy="312.47" r="1" fill="#EFB85F"/>
<circle cx="141.72" cy="354.47" r="1" fill="#EFB85F"/>
<circle cx="55.7197" cy="307.47" r="1" fill="#EFB85F"/>
<circle cx="88.7197" cy="340.47" r="1" fill="#EFB85F"/>
<circle cx="88.7197" cy="340.47" r="1" fill="#EFB85F"/>
<circle cx="229.72" cy="381.47" r="1" fill="#EFB85F"/>
<circle cx="235.72" cy="337.47" r="1" fill="#EFB85F"/>
<circle cx="235.72" cy="337.47" r="1" fill="#EFB85F"/>
<circle cx="212.72" cy="155.47" r="1" fill="#EFB85F"/>
<circle cx="274.72" cy="186.47" r="1" fill="#EFB85F"/>
<path d="M198.72 343.47C198.72 344.022 198.272 344.47 197.72 344.47C197.167 344.47 196.72 344.022 196.72 343.47C196.72 342.918 197.167 342.47 197.72 342.47C198.272 342.47 198.72 342.918 198.72 343.47Z" fill="#EFB85F"/>
<path d="M229.22 361.47L230.416 363.445L232.72 364.47L230.416 365.495L229.22 367.47L228.024 365.495L225.72 364.47L228.024 363.445L229.22 361.47Z" fill="#EFB85F"/>
<circle cx="251.72" cy="319.47" r="1" fill="#EFB85F"/>
<circle cx="216.72" cy="147.47" r="1" fill="#EFB85F"/>
<circle cx="249.72" cy="180.47" r="1" fill="#EFB85F"/>
<circle cx="249.72" cy="180.47" r="1" fill="#EFB85F"/>
<circle cx="196.72" cy="372.47" r="1" fill="#EFB85F"/>
<circle cx="214.72" cy="266.47" r="1" fill="#EFB85F"/>
<circle cx="80.7197" cy="131.47" r="1" fill="#EFB85F"/>
<circle cx="22.7197" cy="157.47" r="1" fill="#EFB85F"/>
<circle cx="70.7197" cy="82.4702" r="1" fill="#EFB85F"/>
<circle cx="59.7197" cy="156.47" r="1" fill="#EFB85F"/>
<circle cx="40.7197" cy="79.4702" r="1" fill="#EFB85F"/>
<circle cx="74.7197" cy="74.4702" r="1" fill="#EFB85F"/>
<circle cx="38.7197" cy="143.47" r="1" fill="#EFB85F"/>
<circle cx="72.7197" cy="193.47" r="1" fill="#EFB85F"/>
<path d="M63.5269 139.266L67.8018 139.126L63.5269 138.986L64.8677 137.555L63.4362 138.896L63.2964 134.621L63.1565 138.896L61.725 137.555L63.0658 138.986L58.7909 139.126L63.0658 139.266L61.725 140.697L63.1565 139.357L63.2964 143.631L63.4362 139.357L64.8677 140.697L63.5269 139.266Z" fill="#EFB85F"/>
<path d="M33.4906 226.363L37.7655 226.223L33.4906 226.083L34.8314 224.652L33.3999 225.993L33.2601 221.718L33.1202 225.993L31.6887 224.652L33.0295 226.083L28.7546 226.223L33.0295 226.363L31.6887 227.794L33.1202 226.454L33.2601 230.728L33.3999 226.454L34.8314 227.794L33.4906 226.363Z" fill="#EFB85F"/>
<path d="M28.4846 291.436L32.7595 291.296L28.4846 291.156L29.8254 289.725L28.3939 291.066L28.254 286.791L28.1142 291.066L26.6827 289.725L28.0235 291.156L23.7486 291.296L28.0235 291.436L26.6827 292.867L28.1142 291.527L28.254 295.801L28.3939 291.527L29.8254 292.867L28.4846 291.436Z" fill="#EFB85F"/>
<path d="M45.5052 349.501L49.78 349.361L45.5052 349.221L46.8459 347.79L45.4144 349.13L45.2746 344.856L45.1348 349.13L43.7033 347.79L45.044 349.221L40.7691 349.361L45.044 349.501L43.7033 350.932L45.1348 349.592L45.2746 353.866L45.4144 349.592L46.8459 350.932L45.5052 349.501Z" fill="#EFB85F"/>
<path d="M126.603 378.534L130.878 378.394L126.603 378.254L127.944 376.823L126.512 378.163L126.373 373.889L126.233 378.163L124.801 376.823L126.142 378.254L121.867 378.394L126.142 378.534L124.801 379.965L126.233 378.624L126.373 382.899L126.512 378.624L127.944 379.965L126.603 378.534Z" fill="#EFB85F"/>
<path d="M251.754 385.541L256.029 385.402L251.754 385.262L253.095 383.83L251.664 385.171L251.524 380.896L251.384 385.171L249.952 383.83L251.293 385.262L247.018 385.402L251.293 385.541L249.952 386.973L251.384 385.632L251.524 389.907L251.664 385.632L253.095 386.973L251.754 385.541Z" fill="#EFB85F"/>
<path d="M264.77 221.358L269.045 221.218L264.77 221.078L266.111 219.647L264.679 220.987L264.539 216.713L264.4 220.987L262.968 219.647L264.309 221.078L260.034 221.218L264.309 221.358L262.968 222.789L264.4 221.448L264.539 225.723L264.679 221.448L266.111 222.789L264.77 221.358Z" fill="#EFB85F"/>
<path d="M264.77 221.358L269.045 221.218L264.77 221.078L266.111 219.647L264.679 220.987L264.539 216.713L264.4 220.987L262.968 219.647L264.309 221.078L260.034 221.218L264.309 221.358L262.968 222.789L264.4 221.448L264.539 225.723L264.679 221.448L266.111 222.789L264.77 221.358Z" fill="#EFB85F"/>
<path d="M135.614 105.228L139.889 105.088L135.614 104.948L136.955 103.517L135.523 104.858L135.383 100.583L135.244 104.858L133.812 103.517L135.153 104.948L130.878 105.088L135.153 105.228L133.812 106.659L135.244 105.319L135.383 109.593L135.523 105.319L136.955 106.659L135.614 105.228Z" fill="#EFB85F"/>
<path d="M135.614 105.228L139.889 105.088L135.614 104.948L136.955 103.517L135.523 104.858L135.383 100.583L135.244 104.858L133.812 103.517L135.153 104.948L130.878 105.088L135.153 105.228L133.812 106.659L135.244 105.319L135.383 109.593L135.523 105.319L136.955 106.659L135.614 105.228Z" fill="#EFB85F"/>
<path d="M135.614 105.228L139.889 105.088L135.614 104.948L136.955 103.517L135.523 104.858L135.383 100.583L135.244 104.858L133.812 103.517L135.153 104.948L130.878 105.088L135.153 105.228L133.812 106.659L135.244 105.319L135.383 109.593L135.523 105.319L136.955 106.659L135.614 105.228Z" fill="#EFB85F"/>
<path d="M160.644 78.1977L164.919 78.0578L160.644 77.918L161.985 76.4866L160.554 77.8272L160.414 73.5527L160.274 77.8272L158.842 76.4866L160.183 77.918L155.908 78.0578L160.183 78.1977L158.842 79.629L160.274 78.2883L160.414 82.5628L160.554 78.2883L161.985 79.629L160.644 78.1977Z" fill="#EFB85F"/>
<path d="M193.684 334.484L197.959 334.344L193.684 334.205L195.025 332.773L193.593 334.114L193.454 329.839L193.314 334.114L191.882 332.773L193.223 334.205L188.948 334.344L193.223 334.484L191.882 335.916L193.314 334.575L193.454 338.849L193.593 334.575L195.025 335.916L193.684 334.484Z" fill="#EFB85F"/>
<path d="M193.684 334.484L197.959 334.344L193.684 334.205L195.025 332.773L193.593 334.114L193.454 329.839L193.314 334.114L191.882 332.773L193.223 334.205L188.948 334.344L193.223 334.484L191.882 335.916L193.314 334.575L193.454 338.849L193.593 334.575L195.025 335.916L193.684 334.484Z" fill="#EFB85F"/>
<path d="M237.737 272.415L242.012 272.275L237.737 272.135L239.078 270.704L237.647 272.045L237.507 267.77L237.367 272.045L235.935 270.704L237.276 272.135L233.001 272.275L237.276 272.415L235.935 273.846L237.367 272.506L237.507 276.78L237.647 272.506L239.078 273.846L237.737 272.415Z" fill="#EFB85F"/>
<path d="M250.71 134.026C250.749 133.699 250.814 132.924 250.866 132.312C250.918 131.604 251.009 131.155 251.113 131.114C251.204 131.074 251.62 131.291 252.023 131.591C252.439 131.903 252.802 132.121 252.841 132.08C252.867 132.053 252.62 131.618 252.296 131.128C251.88 130.529 251.737 130.23 251.854 130.189C251.945 130.162 252.607 130.067 253.322 129.972C255.609 129.7 255.596 129.55 253.283 129.291C252.478 129.196 251.802 129.074 251.776 129.033C251.737 128.979 251.984 128.584 252.296 128.149C252.607 127.7 252.841 127.305 252.802 127.264C252.763 127.237 252.374 127.469 251.945 127.781C251.503 128.108 251.113 128.312 251.061 128.258C250.996 128.19 250.892 127.373 250.801 126.435C250.567 123.986 250.463 123.999 250.216 126.489C250.125 127.428 250.021 128.244 249.969 128.285C249.93 128.326 249.541 128.108 249.099 127.795C248.67 127.469 248.293 127.237 248.254 127.278C248.228 127.305 248.423 127.673 248.709 128.081C248.995 128.475 249.229 128.883 249.229 128.965C249.229 129.06 248.67 129.183 247.76 129.291C245.434 129.55 245.434 129.7 247.773 129.985C248.657 130.094 249.229 130.23 249.229 130.312C249.229 130.393 248.995 130.802 248.709 131.196C248.098 132.053 248.046 132.271 248.54 131.931C248.748 131.808 249.125 131.536 249.398 131.346C250.021 130.924 250.073 130.992 250.19 132.461C250.359 134.624 250.554 135.196 250.71 134.026Z" fill="#EFB85F"/>
<path d="M36.4513 114.003C36.4903 113.677 36.5553 112.901 36.6073 112.289C36.6592 111.582 36.7502 111.133 36.8542 111.092C36.9451 111.051 37.361 111.269 37.7639 111.568C38.1797 111.881 38.5436 112.099 38.5826 112.058C38.6086 112.031 38.3617 111.595 38.0368 111.106C37.6209 110.507 37.478 110.208 37.5949 110.167C37.6859 110.14 38.3487 110.044 39.0634 109.949C41.3506 109.677 41.3377 109.527 39.0244 109.269C38.2187 109.174 37.5429 109.051 37.5169 109.011C37.478 108.956 37.7249 108.562 38.0368 108.126C38.3487 107.677 38.5826 107.283 38.5436 107.242C38.5046 107.215 38.1147 107.446 37.6859 107.759C37.244 108.085 36.8542 108.29 36.8022 108.235C36.7372 108.167 36.6332 107.351 36.5423 106.412C36.3084 103.963 36.2044 103.977 35.9575 106.467C35.8665 107.405 35.7625 108.221 35.7106 108.262C35.6716 108.303 35.2817 108.085 34.8399 107.773C34.411 107.446 34.0341 107.215 33.9951 107.256C33.9691 107.283 34.1641 107.65 34.45 108.058C34.7359 108.453 34.9698 108.861 34.9698 108.943C34.9698 109.038 34.411 109.16 33.5013 109.269C31.1751 109.527 31.1751 109.677 33.5143 109.963C34.398 110.072 34.9698 110.208 34.9698 110.289C34.9698 110.371 34.7359 110.779 34.45 111.174C33.8392 112.031 33.7872 112.248 34.281 111.908C34.489 111.786 34.8658 111.514 35.1387 111.323C35.7625 110.902 35.8145 110.97 35.9315 112.439C36.1004 114.602 36.2954 115.173 36.4513 114.003Z" fill="#EFB85F"/>
<path d="M268.732 306.218C268.771 305.892 268.836 305.116 268.888 304.504C268.94 303.797 269.031 303.348 269.135 303.307C269.226 303.266 269.642 303.484 270.044 303.783C270.46 304.096 270.824 304.314 270.863 304.273C270.889 304.246 270.642 303.81 270.317 303.32C269.902 302.722 269.759 302.423 269.876 302.382C269.966 302.355 270.629 302.259 271.344 302.164C273.631 301.892 273.618 301.742 271.305 301.484C270.499 301.389 269.824 301.266 269.798 301.225C269.759 301.171 270.005 300.776 270.317 300.341C270.629 299.892 270.863 299.498 270.824 299.457C270.785 299.43 270.395 299.661 269.966 299.974C269.525 300.3 269.135 300.504 269.083 300.45C269.018 300.382 268.914 299.566 268.823 298.627C268.589 296.178 268.485 296.192 268.238 298.681C268.147 299.62 268.043 300.436 267.991 300.477C267.952 300.518 267.562 300.3 267.12 299.987C266.692 299.661 266.315 299.43 266.276 299.47C266.25 299.498 266.445 299.865 266.731 300.273C267.016 300.668 267.25 301.076 267.25 301.157C267.25 301.253 266.692 301.375 265.782 301.484C263.456 301.742 263.456 301.892 265.795 302.178C266.679 302.287 267.25 302.423 267.25 302.504C267.25 302.586 267.016 302.994 266.731 303.388C266.12 304.246 266.068 304.463 266.562 304.123C266.77 304.001 267.146 303.729 267.419 303.538C268.043 303.116 268.095 303.184 268.212 304.654C268.381 306.817 268.576 307.388 268.732 306.218Z" fill="#EFB85F"/>
<path d="M54.4731 275.183C54.5121 274.857 54.577 274.081 54.629 273.469C54.681 272.762 54.772 272.313 54.8759 272.272C54.9669 272.231 55.3828 272.449 55.7856 272.748C56.2015 273.061 56.5654 273.279 56.6044 273.238C56.6303 273.211 56.3834 272.775 56.0585 272.286C55.6427 271.687 55.4997 271.388 55.6167 271.347C55.7077 271.32 56.3704 271.225 57.0852 271.129C59.3724 270.857 59.3594 270.708 57.0462 270.449C56.2405 270.354 55.5647 270.232 55.5387 270.191C55.4997 270.136 55.7466 269.742 56.0585 269.306C56.3704 268.858 56.6044 268.463 56.5654 268.422C56.5264 268.395 56.1365 268.626 55.7077 268.939C55.2658 269.266 54.8759 269.47 54.824 269.415C54.759 269.347 54.655 268.531 54.564 267.592C54.3301 265.144 54.2262 265.157 53.9792 267.647C53.8883 268.585 53.7843 269.402 53.7323 269.442C53.6933 269.483 53.3035 269.266 52.8616 268.953C52.4328 268.626 52.0559 268.395 52.0169 268.436C51.9909 268.463 52.1859 268.83 52.4718 269.238C52.7577 269.633 52.9916 270.041 52.9916 270.123C52.9916 270.218 52.4328 270.34 51.5231 270.449C49.1969 270.708 49.1969 270.857 51.5361 271.143C52.4198 271.252 52.9916 271.388 52.9916 271.47C52.9916 271.551 52.7577 271.959 52.4718 272.354C51.861 273.211 51.809 273.428 52.3028 273.088C52.5107 272.966 52.8876 272.694 53.1605 272.503C53.7843 272.082 53.8363 272.15 53.9533 273.619C54.1222 275.782 54.3171 276.353 54.4731 275.183Z" fill="#EFB85F"/>
<path d="M49.467 396.319C49.506 395.993 49.571 395.217 49.623 394.605C49.675 393.898 49.7659 393.449 49.8699 393.408C49.9609 393.367 50.3767 393.585 50.7796 393.884C51.1954 394.197 51.5593 394.415 51.5983 394.374C51.6243 394.347 51.3774 393.911 51.0525 393.421C50.6366 392.823 50.4937 392.524 50.6106 392.483C50.7016 392.456 51.3644 392.36 52.0791 392.265C54.3664 391.993 54.3534 391.843 52.0402 391.585C51.2344 391.49 50.5587 391.367 50.5327 391.326C50.4937 391.272 50.7406 390.878 51.0525 390.442C51.3644 389.993 51.5983 389.599 51.5593 389.558C51.5203 389.531 51.1305 389.762 50.7016 390.075C50.2598 390.401 49.8699 390.605 49.8179 390.551C49.7529 390.483 49.649 389.667 49.558 388.728C49.3241 386.279 49.2201 386.293 48.9732 388.782C48.8822 389.721 48.7783 390.537 48.7263 390.578C48.6873 390.619 48.2974 390.401 47.8556 390.088C47.4267 389.762 47.0498 389.531 47.0109 389.572C46.9849 389.599 47.1798 389.966 47.4657 390.374C47.7516 390.769 47.9855 391.177 47.9855 391.258C47.9855 391.354 47.4267 391.476 46.517 391.585C44.1908 391.843 44.1908 391.993 46.53 392.279C47.4137 392.388 47.9855 392.524 47.9855 392.605C47.9855 392.687 47.7516 393.095 47.4657 393.49C46.8549 394.347 46.8029 394.564 47.2968 394.224C47.5047 394.102 47.8816 393.83 48.1545 393.639C48.7783 393.217 48.8302 393.285 48.9472 394.755C49.1161 396.918 49.3111 397.489 49.467 396.319Z" fill="#EFB85F"/>
<path d="M229.497 361.875L230.695 363.852L233.001 364.878L230.695 365.904L229.497 367.882L228.3 365.904L225.993 364.878L228.3 363.852L229.497 361.875Z" fill="#EFB85F"/>
<path d="M118.363 309.817L119.56 311.794L121.867 312.82L119.56 313.846L118.363 315.824L117.165 313.846L114.859 312.82L117.165 311.794L118.363 309.817Z" fill="#EFB85F"/>
<path d="M78.3147 230.729L79.5119 232.705L81.8187 233.732L79.5119 234.758L78.3147 236.735L77.1171 234.758L74.8103 233.732L77.1171 232.705L78.3147 230.729Z" fill="#EFB85F"/>
<path d="M27.253 185.678L28.4502 187.655L30.757 188.682L28.4502 189.708L27.253 191.685L26.0554 189.708L23.7486 188.682L26.0554 187.655L27.253 185.678Z" fill="#EFB85F"/>
<path d="M27.253 86.5669L28.4502 88.5439L30.757 89.5703L28.4502 90.5963L27.253 92.5736L26.0554 90.5963L23.7486 89.5703L26.0554 88.5439L27.253 86.5669Z" fill="#EFB85F"/>
<circle cx="118.72" cy="77.4702" r="1" fill="#EFB85F"/>
<path d="M114.546 112.001C114.585 111.674 114.65 110.899 114.702 110.287C114.754 109.579 114.845 109.13 114.949 109.09C115.039 109.049 115.455 109.266 115.858 109.566C116.274 109.879 116.638 110.096 116.677 110.055C116.703 110.028 116.456 109.593 116.131 109.103C115.715 108.505 115.572 108.205 115.689 108.164C115.78 108.137 116.443 108.042 117.158 107.947C119.445 107.675 119.432 107.525 117.119 107.267C116.313 107.171 115.637 107.049 115.611 107.008C115.572 106.954 115.819 106.559 116.131 106.124C116.443 105.675 116.677 105.28 116.638 105.24C116.599 105.212 116.209 105.444 115.78 105.757C115.338 106.083 114.949 106.287 114.897 106.233C114.832 106.165 114.728 105.348 114.637 104.41C114.403 101.961 114.299 101.975 114.052 104.464C113.961 105.403 113.857 106.219 113.805 106.26C113.766 106.301 113.376 106.083 112.934 105.77C112.505 105.444 112.128 105.212 112.089 105.253C112.063 105.28 112.258 105.648 112.544 106.056C112.83 106.45 113.064 106.858 113.064 106.94C113.064 107.035 112.505 107.158 111.596 107.267C109.269 107.525 109.269 107.675 111.609 107.96C112.492 108.069 113.064 108.205 113.064 108.287C113.064 108.369 112.83 108.777 112.544 109.171C111.934 110.028 111.882 110.246 112.375 109.906C112.583 109.783 112.96 109.511 113.233 109.321C113.857 108.899 113.909 108.967 114.026 110.436C114.195 112.599 114.39 113.171 114.546 112.001Z" fill="#EFB85F"/>
<path d="M105.347 84.5649L106.545 86.5419L108.851 87.5683L106.545 88.5943L105.347 90.5717L104.15 88.5943L101.843 87.5683L104.15 86.5419L105.347 84.5649Z" fill="#EFB85F"/>
<path d="M108.351 25.4985L109.548 27.4755L111.855 28.5019L109.548 29.5279L108.351 31.5053L107.153 29.5279L104.847 28.5019L107.153 27.4755L108.351 25.4985Z" fill="#EFB85F"/>
<path d="M256.53 70.5493L257.727 72.5263L260.034 73.5527L257.727 74.5787L256.53 76.556L255.332 74.5787L253.026 73.5527L255.332 72.5263L256.53 70.5493Z" fill="#EFB85F"/>
<path d="M238.007 298.805L238.759 302.464L242.012 303.309L238.759 304.155L238.007 307.815L237.255 304.155L234.003 303.309L237.255 302.464L238.007 298.805Z" fill="#EFB85F"/>
<path d="M57.7895 245.745L58.5415 249.404L61.7945 250.25L58.5415 251.096L57.7895 254.755L57.0375 251.096L53.7849 250.25L57.0375 249.404L57.7895 245.745Z" fill="#EFB85F"/>
<path d="M62.7955 339.851L63.5476 343.51L66.8006 344.355L63.5476 345.201L62.7955 348.861L62.0435 345.201L58.7909 344.355L62.0435 343.51L62.7955 339.851Z" fill="#EFB85F"/>
<path d="M261.035 338.85L261.787 342.509L265.04 343.354L261.787 344.2L261.035 347.86L260.283 344.2L257.03 343.354L260.283 342.509L261.035 338.85Z" fill="#EFB85F"/>
<path d="M160.914 327.837L161.666 331.496L164.919 332.342L161.666 333.188L160.914 336.847L160.162 333.188L156.909 332.342L160.162 331.496L160.914 327.837Z" fill="#EFB85F"/>
<path d="M254.027 237.736L254.779 241.396L258.032 242.241L254.779 243.087L254.027 246.746L253.274 243.087L250.022 242.241L253.274 241.396L254.027 237.736Z" fill="#EFB85F"/>
<path d="M254.027 237.736L254.779 241.396L258.032 242.241L254.779 243.087L254.027 246.746L253.274 243.087L250.022 242.241L253.274 241.396L254.027 237.736Z" fill="#EFB85F"/>
<path d="M115.86 343.855L116.612 347.514L119.865 348.36L116.612 349.206L115.86 352.865L115.108 349.206L111.855 348.36L115.108 347.514L115.86 343.855Z" fill="#EFB85F"/>
<circle cx="125.72" cy="66.4702" r="1" fill="#EFB85F"/>
<circle cx="164.72" cy="363.47" r="1" fill="#EFB85F"/>
<circle cx="143.72" cy="317.47" r="1" fill="#EFB85F"/>
<circle cx="161.72" cy="315.47" r="1" fill="#EFB85F"/>
<circle cx="120.72" cy="331.47" r="1" fill="#EFB85F"/>
<circle cx="162.72" cy="91.4702" r="1" fill="#EFB85F"/>
<circle cx="162.72" cy="91.4702" r="1" fill="#EFB85F"/>
<circle cx="141.72" cy="354.47" r="1" fill="#EFB85F"/>
<path d="M126.603 378.534L130.878 378.394L126.603 378.254L127.944 376.823L126.512 378.163L126.373 373.889L126.233 378.163L124.801 376.823L126.142 378.254L121.867 378.394L126.142 378.534L124.801 379.965L126.233 378.624L126.373 382.899L126.512 378.624L127.944 379.965L126.603 378.534Z" fill="#EFB85F"/>
<path d="M135.614 105.228L139.889 105.088L135.614 104.948L136.955 103.517L135.523 104.858L135.383 100.583L135.244 104.858L133.812 103.517L135.153 104.948L130.878 105.088L135.153 105.228L133.812 106.659L135.244 105.319L135.383 109.593L135.523 105.319L136.955 106.659L135.614 105.228Z" fill="#EFB85F"/>
<path d="M135.614 105.228L139.889 105.088L135.614 104.948L136.955 103.517L135.523 104.858L135.383 100.583L135.244 104.858L133.812 103.517L135.153 104.948L130.878 105.088L135.153 105.228L133.812 106.659L135.244 105.319L135.383 109.593L135.523 105.319L136.955 106.659L135.614 105.228Z" fill="#EFB85F"/>
<path d="M135.614 105.228L139.889 105.088L135.614 104.948L136.955 103.517L135.523 104.858L135.383 100.583L135.244 104.858L133.812 103.517L135.153 104.948L130.878 105.088L135.153 105.228L133.812 106.659L135.244 105.319L135.383 109.593L135.523 105.319L136.955 106.659L135.614 105.228Z" fill="#EFB85F"/>
<path d="M160.644 78.1977L164.919 78.0578L160.644 77.918L161.985 76.4866L160.554 77.8272L160.414 73.5527L160.274 77.8272L158.842 76.4866L160.183 77.918L155.908 78.0578L160.183 78.1977L158.842 79.629L160.274 78.2883L160.414 82.5628L160.554 78.2883L161.985 79.629L160.644 78.1977Z" fill="#EFB85F"/>
<path d="M160.914 327.837L161.666 331.496L164.919 332.342L161.666 333.188L160.914 336.847L160.162 333.188L156.909 332.342L160.162 331.496L160.914 327.837Z" fill="#EFB85F"/>
<path d="M115.86 343.855L116.612 347.514L119.865 348.36L116.612 349.206L115.86 352.865L115.108 349.206L111.855 348.36L115.108 347.514L115.86 343.855Z" fill="#EFB85F"/>
<circle cx="41.7197" cy="29.4702" r="1" fill="#EFB85F"/>
<path d="M28.2542 36.5112L29.4515 38.4882L31.7583 39.5146L29.4515 40.5406L28.2542 42.518L27.0566 40.5406L24.7498 39.5146L27.0566 38.4882L28.2542 36.5112Z" fill="#EFB85F"/>
<path d="M37.4525 63.9471C37.4915 63.6206 37.5565 62.8452 37.6085 62.233C37.6604 61.5256 37.7514 61.0766 37.8554 61.0358C37.9463 60.995 38.3622 61.2127 38.7651 61.512C39.1809 61.8249 39.5448 62.0425 39.5838 62.0017C39.6098 61.9745 39.3629 61.5392 39.038 61.0494C38.6221 60.4508 38.4792 60.1515 38.5961 60.1107C38.6871 60.0835 39.3499 59.9883 40.0646 59.8931C42.3519 59.621 42.3389 59.4713 40.0256 59.2129C39.2199 59.1176 38.5441 58.9952 38.5182 58.9544C38.4792 58.9 38.7261 58.5054 39.038 58.0701C39.3499 57.6212 39.5838 57.2267 39.5448 57.1858C39.5058 57.1586 39.1159 57.3899 38.6871 57.7028C38.2452 58.0293 37.8554 58.2334 37.8034 58.1789C37.7384 58.1109 37.6344 57.2947 37.5435 56.356C37.3096 53.9072 37.2056 53.9209 36.9587 56.4104C36.8677 57.3491 36.7637 58.1653 36.7118 58.2062C36.6728 58.247 36.2829 58.0293 35.8411 57.7164C35.4122 57.3899 35.0353 57.1586 34.9963 57.1995C34.9704 57.2267 35.1653 57.594 35.4512 58.0021C35.7371 58.3966 35.971 58.8047 35.971 58.8864C35.971 58.9816 35.4122 59.104 34.5025 59.2129C32.1763 59.4713 32.1763 59.621 34.5155 59.9067C35.3992 60.0155 35.971 60.1515 35.971 60.2332C35.971 60.3148 35.7371 60.7229 35.4512 61.1174C34.8404 61.9745 34.7884 62.1922 35.2822 61.8521C35.4902 61.7296 35.867 61.4575 36.14 61.2671C36.7637 60.8454 36.8157 60.9134 36.9327 62.3826C37.1016 64.5457 37.2966 65.1171 37.4525 63.9471Z" fill="#EFB85F"/>
<path d="M64.5281 89.2099L68.803 89.07L64.5281 88.9302L65.8689 87.4988L64.4374 88.8394L64.2976 84.5649L64.1577 88.8394L62.7262 87.4988L64.067 88.9302L59.7921 89.07L64.067 89.2099L62.7262 90.6412L64.1577 89.3005L64.2976 93.575L64.4374 89.3005L65.8689 90.6412L64.5281 89.2099Z" fill="#EFB85F"/>
<circle cx="39.7197" cy="93.4702" r="1" fill="#EFB85F"/>
<circle cx="60.7197" cy="106.47" r="1" fill="#EFB85F"/>
<circle cx="231.72" cy="24.4702" r="1" fill="#EFB85F"/>
<circle cx="265.72" cy="33.4702" r="1" fill="#EFB85F"/>
<circle cx="265.72" cy="33.4702" r="1" fill="#EFB85F"/>
<circle cx="267.72" cy="34.4702" r="1" fill="#EFB85F"/>
<path d="M267.774 92.2133L272.049 92.0734L267.774 91.9336L269.114 90.5022L267.683 91.8429L267.543 87.5684L267.403 91.8429L265.972 90.5022L267.313 91.9336L263.038 92.0734L267.313 92.2133L265.972 93.6446L267.403 92.3039L267.543 96.5784L267.683 92.3039L269.114 93.6446L267.774 92.2133Z" fill="#EFB85F"/>
<path d="M267.774 92.2133L272.049 92.0734L267.774 91.9336L269.114 90.5022L267.683 91.8429L267.543 87.5684L267.403 91.8429L265.972 90.5022L267.313 91.9336L263.038 92.0734L267.313 92.2133L265.972 93.6446L267.403 92.3039L267.543 96.5784L267.683 92.3039L269.114 93.6446L267.774 92.2133Z" fill="#EFB85F"/>
<path d="M229.497 123.608L230.695 125.585L233.001 126.612L230.695 127.638L229.497 129.615L228.3 127.638L225.993 126.612L228.3 125.585L229.497 123.608Z" fill="#EFB85F"/>
<path d="M108.351 25.4985L109.548 27.4755L111.855 28.5019L109.548 29.5279L108.351 31.5053L107.153 29.5279L104.847 28.5019L107.153 27.4755L108.351 25.4985Z" fill="#EFB85F"/>
<g clip-path="url(#clip1_239_23484)">
<path d="M87.1279 62.4131C86.999 62.4131 86.9346 62.2913 86.9346 62.0479C86.9346 61.8044 86.9919 61.6182 87.1064 61.4893L97.1504 48.502C97.179 48.4661 97.1934 48.4232 97.1934 48.373C97.1934 48.3158 97.1217 48.2871 96.9785 48.2871H90.458C89.8636 48.2871 89.3802 48.4912 89.0078 48.8994C88.8789 49.0355 88.7822 49.193 88.7178 49.3721C88.6605 49.5439 88.5889 49.8411 88.5029 50.2637C88.4242 50.6862 88.3704 50.9154 88.3418 50.9512C88.3132 50.9798 88.2451 50.9941 88.1377 50.9941C88.0374 50.9941 87.973 50.9727 87.9443 50.9297L88.1055 47.6318C88.1055 47.3883 88.1878 47.2666 88.3525 47.2666H100.019C100.133 47.2666 100.19 47.3812 100.19 47.6104C100.19 47.8395 100.144 48.0221 100.051 48.1582L90.3936 60.6514C90.3721 60.6872 90.3291 60.748 90.2646 60.834C90.2074 60.9199 90.1787 60.9915 90.1787 61.0488C90.1787 61.2422 90.3434 61.3389 90.6729 61.3389H98.2461C98.5898 61.3389 98.9372 61.1956 99.2881 60.9092C99.639 60.6156 99.8896 60.2253 100.04 59.7383C100.198 59.2513 100.305 58.6641 100.362 57.9766C100.384 57.8691 100.455 57.8154 100.577 57.8154C100.699 57.8154 100.76 57.8584 100.76 57.9443V58.4492L100.534 61.7793C100.527 61.8581 100.523 61.9333 100.523 62.0049C100.523 62.277 100.423 62.4131 100.223 62.4131H87.1279ZM102.597 57.5898C102.597 56.179 103.094 54.9688 104.09 53.959C105.092 52.9421 106.292 52.4336 107.688 52.4336C109.085 52.4336 110.299 52.9277 111.33 53.916C112.361 54.8971 112.877 56.111 112.877 57.5576C112.877 59.0042 112.386 60.2253 111.405 61.2207C110.431 62.209 109.207 62.7031 107.731 62.7031C106.256 62.7031 105.032 62.2018 104.058 61.1992C103.084 60.1966 102.597 58.9935 102.597 57.5898ZM105.271 60.3506C105.973 61.5322 106.929 62.123 108.14 62.123C109.078 62.123 109.794 61.7471 110.288 60.9951C110.789 60.2432 111.04 59.3193 111.04 58.2236C111.04 57.1279 110.689 56.0036 109.987 54.8506C109.293 53.6976 108.354 53.1211 107.173 53.1211C106.306 53.1211 105.622 53.4971 105.121 54.249C104.627 54.9938 104.38 55.9427 104.38 57.0957C104.38 58.2415 104.677 59.3265 105.271 60.3506ZM122.33 59.0293L122.309 56.7627C122.309 55.8389 122.23 55.1908 122.072 54.8184C121.915 54.446 121.714 54.1667 121.471 53.9805C121.227 53.7871 120.898 53.6904 120.482 53.6904C120.074 53.6904 119.204 54.0127 117.872 54.6572C117.693 54.7646 117.6 54.8649 117.593 54.958V60.7373C117.593 61.4606 117.979 61.876 118.753 61.9834C119.09 62.0335 119.258 62.1159 119.258 62.2305C119.258 62.3379 119.222 62.3988 119.15 62.4131H114.359C114.288 62.3988 114.252 62.3486 114.252 62.2627C114.252 62.1266 114.42 62.0335 114.757 61.9834C115.53 61.876 115.917 61.4606 115.917 60.7373V54.5713C115.917 54.2705 115.752 54.0628 115.423 53.9482C115.28 53.8981 115.126 53.8587 114.961 53.8301C114.796 53.7943 114.664 53.762 114.563 53.7334C114.47 53.7048 114.41 53.6797 114.381 53.6582C114.359 53.6296 114.349 53.5758 114.349 53.4971C114.349 53.4111 114.402 53.3395 114.51 53.2822L117.249 51.9932C117.335 51.9502 117.389 51.9287 117.41 51.9287C117.532 51.9287 117.593 52.0146 117.593 52.1865V53.8623C117.614 53.9339 117.643 53.9697 117.679 53.9697C117.722 53.9697 117.876 53.9053 118.141 53.7764C118.757 53.4684 119.376 53.1712 119.999 52.8848C120.622 52.5983 121.138 52.4551 121.546 52.4551C123.2 52.4551 124.027 53.9626 124.027 56.9775L123.931 60.1143V60.7373C123.931 61.2959 124.21 61.6611 124.769 61.833C125.005 61.9118 125.23 61.9691 125.445 62.0049C125.667 62.0335 125.811 62.0622 125.875 62.0908C125.947 62.1195 125.982 62.1768 125.982 62.2627C125.982 62.3486 125.947 62.3988 125.875 62.4131H120.697C120.626 62.3988 120.59 62.3486 120.59 62.2627C120.59 62.1266 120.758 62.0335 121.095 61.9834C121.861 61.876 122.244 61.432 122.244 60.6514C122.301 60.2933 122.33 59.7526 122.33 59.0293ZM128.679 56.752C128.557 56.752 128.496 57.0133 128.496 57.5361C128.496 58.6462 128.826 59.5771 129.484 60.3291C130.143 61.0811 130.96 61.457 131.934 61.457C132.915 61.457 133.856 61.0345 134.759 60.1895C134.773 60.1751 134.791 60.168 134.812 60.168H134.866C134.909 60.168 134.949 60.2038 134.984 60.2754C135.027 60.3398 135.067 60.3828 135.103 60.4043C134.272 61.4141 133.294 62.1123 132.17 62.499C131.783 62.6351 131.346 62.7031 130.859 62.7031C130.372 62.7031 129.878 62.5706 129.377 62.3057C128.876 62.0335 128.446 61.679 128.088 61.2422C127.329 60.3327 126.949 59.2012 126.949 57.8477C126.949 56.487 127.361 55.248 128.185 54.1309C129.015 53.0137 130.154 52.4551 131.601 52.4551C132.639 52.4551 133.488 52.9206 134.146 53.8516C134.805 54.7754 135.135 55.5882 135.135 56.29C135.135 56.598 135.06 56.752 134.909 56.752H128.679ZM128.797 55.7207C128.797 55.8568 128.861 55.9248 128.99 55.9248H133.04C133.226 55.9248 133.319 55.8138 133.319 55.5918C133.319 55.0762 133.087 54.5498 132.621 54.0127C132.163 53.4684 131.658 53.1963 131.106 53.1963C130.569 53.1963 130.079 53.4398 129.635 53.9268C129.198 54.4137 128.919 54.9688 128.797 55.5918V55.7207ZM142.149 55.0654C142.149 55.223 142.089 55.3018 141.967 55.3018C141.852 55.3018 141.763 55.2158 141.698 55.0439C141.526 54.5713 141.269 54.1523 140.925 53.7871C140.588 53.4219 140.169 53.2393 139.668 53.2393C139.009 53.2393 138.565 53.5687 138.336 54.2275C138.264 54.4495 138.229 54.6787 138.229 54.915C138.229 55.1514 138.379 55.4163 138.68 55.71C138.98 55.9964 139.475 56.3402 140.162 56.7412C140.85 57.1423 141.351 57.4824 141.666 57.7617C142.382 58.3991 142.74 59.1367 142.74 59.9746C142.74 60.8125 142.432 61.4785 141.816 61.9727C141.201 62.4596 140.484 62.7031 139.668 62.7031C139.231 62.7031 138.834 62.6423 138.476 62.5205C138.125 62.4059 137.921 62.3486 137.863 62.3486C137.813 62.3486 137.727 62.4059 137.605 62.5205C137.491 62.6423 137.398 62.7031 137.326 62.7031H137.144C137.101 62.7031 137.047 62.3164 136.982 61.543C136.918 60.7695 136.886 60.3112 136.886 60.168C136.886 60.0247 136.896 59.946 136.918 59.9316C136.947 59.9173 136.99 59.9102 137.047 59.9102C137.104 59.9102 137.151 59.9281 137.187 59.9639C137.229 59.9997 137.265 60.0462 137.294 60.1035C137.323 60.1536 137.344 60.2074 137.358 60.2646C137.38 60.3219 137.426 60.4294 137.498 60.5869C137.985 61.6253 138.737 62.1445 139.754 62.1445C140.205 62.1445 140.567 61.9798 140.839 61.6504C141.111 61.3138 141.247 60.9414 141.247 60.5332C141.247 60.125 141.14 59.7812 140.925 59.502C140.71 59.2227 140.441 58.9684 140.119 58.7393C139.804 58.5101 139.46 58.2881 139.088 58.0732C137.641 57.2282 136.918 56.2936 136.918 55.2695C136.918 54.5033 137.247 53.8444 137.906 53.293C138.565 52.7344 139.242 52.4551 139.937 52.4551C140.631 52.4551 141.143 52.5303 141.473 52.6807C141.809 52.8311 142.006 52.96 142.063 53.0674C142.121 53.1676 142.149 53.5042 142.149 54.0771V55.0654ZM156.845 52.9062C157.16 53.0137 157.353 53.0674 157.425 53.0674C157.496 53.0674 157.539 53.0674 157.554 53.0674C157.575 53.0602 157.6 53.0137 157.629 52.9277V47.3848C157.629 47.084 157.464 46.8763 157.135 46.7617C156.992 46.7116 156.838 46.6722 156.673 46.6436C156.508 46.6077 156.376 46.5755 156.275 46.5469C156.182 46.5182 156.121 46.4932 156.093 46.4717C156.071 46.443 156.061 46.3893 156.061 46.3105C156.061 46.2246 156.114 46.153 156.222 46.0957L158.961 44.8066C159.047 44.7637 159.101 44.7422 159.122 44.7422C159.244 44.7422 159.305 44.8281 159.305 45V60.2969C159.34 60.612 159.43 60.8376 159.573 60.9736C159.716 61.1097 159.949 61.1777 160.271 61.1777L160.895 61.1348C160.938 61.1348 160.959 61.1777 160.959 61.2637C160.959 61.3424 160.905 61.4069 160.798 61.457L157.94 62.6387C157.854 62.6816 157.779 62.7031 157.715 62.7031C157.658 62.7031 157.629 62.6136 157.629 62.4346V61.457C157.629 61.3854 157.611 61.3496 157.575 61.3496C157.525 61.3496 157.228 61.5107 156.684 61.833C155.015 62.8213 153.608 62.9681 152.462 62.2734C151.545 61.7148 150.926 60.8304 150.604 59.6201C150.453 59.0544 150.378 58.4564 150.378 57.8262C150.378 57.1888 150.507 56.5586 150.765 55.9355C151.03 55.3053 151.391 54.7539 151.85 54.2812C152.859 53.25 154.077 52.7344 155.502 52.7344C156.082 52.7344 156.53 52.7917 156.845 52.9062ZM152 57.5146C152 58.596 152.301 59.5449 152.902 60.3613C153.504 61.1706 154.342 61.5752 155.416 61.5752C155.889 61.5752 156.376 61.4606 156.877 61.2314C157.378 60.9951 157.629 60.8161 157.629 60.6943V55.1514C157.629 55.0153 157.536 54.8542 157.35 54.668C156.777 53.8802 156.014 53.4863 155.062 53.4863C154.116 53.4863 153.368 53.8874 152.816 54.6895C152.272 55.4844 152 56.4261 152 57.5146ZM169.273 61.4678C169.238 61.346 169.191 61.3066 169.134 61.3496C169.076 61.3854 168.844 61.5072 168.436 61.7148C167.096 62.3809 165.979 62.7139 165.084 62.7139C164.189 62.7139 163.544 62.4274 163.15 61.8545C163.007 61.6396 162.936 61.3747 162.936 61.0596V54.5068C162.914 54.2992 162.821 54.1201 162.656 53.9697C162.434 53.7835 162.201 53.6833 161.958 53.6689C161.722 53.6546 161.604 53.583 161.604 53.4541C161.604 53.318 161.661 53.2357 161.775 53.207L164.235 52.498C164.321 52.4694 164.404 52.4551 164.482 52.4551C164.568 52.4551 164.611 52.516 164.611 52.6377V59.8457C164.611 60.347 164.833 60.7337 165.277 61.0059C165.721 61.278 166.287 61.4141 166.975 61.4141C167.669 61.4141 168.292 61.2028 168.844 60.7803C169.016 60.6442 169.159 60.4938 169.273 60.3291V54.5068C169.252 54.2992 169.159 54.1201 168.994 53.9697C168.772 53.7835 168.539 53.6833 168.296 53.6689C168.06 53.6546 167.941 53.583 167.941 53.4541C167.941 53.318 167.999 53.2357 168.113 53.207L170.573 52.498C170.659 52.4694 170.742 52.4551 170.82 52.4551C170.906 52.4551 170.949 52.5267 170.949 52.6699V60.2969C170.985 60.612 171.075 60.8376 171.218 60.9736C171.361 61.1097 171.594 61.1777 171.916 61.1777L172.539 61.1348C172.582 61.1348 172.604 61.1777 172.604 61.2637C172.604 61.3424 172.55 61.4069 172.442 61.457L169.585 62.6387C169.499 62.6816 169.424 62.7031 169.359 62.7031C169.302 62.7031 169.273 62.6136 169.273 62.4346V61.4678ZM188.341 53.7441C188.341 54.2454 188.051 54.4961 187.471 54.4961C187.177 54.4961 186.926 54.4137 186.719 54.249C186.518 54.0771 186.361 53.9339 186.246 53.8193C186.139 53.6976 186.024 53.5866 185.902 53.4863C185.387 53.0638 184.757 53.0173 184.012 53.3467C183.274 53.6761 182.705 54.3779 182.304 55.4521C182.082 56.0465 181.971 56.6374 181.971 57.2246C181.971 58.485 182.257 59.5163 182.83 60.3184C183.403 61.1133 184.28 61.5107 185.462 61.5107C186.343 61.5107 187.134 61.1169 187.836 60.3291C188.051 60.0928 188.18 59.9746 188.223 59.9746C188.266 59.9746 188.312 59.9961 188.362 60.0391C188.412 60.082 188.438 60.1465 188.438 60.2324C188.438 60.3112 188.416 60.3721 188.373 60.415C187.277 61.9404 185.899 62.7031 184.237 62.7031C183.034 62.7031 182.046 62.2555 181.272 61.3604C180.506 60.4652 180.123 59.4411 180.123 58.2881C180.13 56.154 180.646 54.6178 181.67 53.6797C182.572 52.8561 183.858 52.4443 185.526 52.4443C186.558 52.4443 187.242 52.5482 187.578 52.7559C187.915 52.9635 188.151 53.2249 188.287 53.54C188.323 53.6117 188.341 53.6797 188.341 53.7441ZM189.941 62.4131C189.87 62.3988 189.834 62.3486 189.834 62.2627C189.834 62.1338 190.002 62.0479 190.339 62.0049C191.112 61.8903 191.499 61.4821 191.499 60.7803V55.0977C191.499 54.7969 191.334 54.5892 191.005 54.4746C190.862 54.4245 190.708 54.3851 190.543 54.3564C190.378 54.3206 190.246 54.2884 190.146 54.2598C190.052 54.2311 189.992 54.2061 189.963 54.1846C189.941 54.1559 189.931 54.1022 189.931 54.0234C189.931 53.9375 189.984 53.8659 190.092 53.8086L192.831 52.5195C192.917 52.4766 192.971 52.4551 192.992 52.4551C193.114 52.4551 193.175 52.541 193.175 52.7129V60.7803C193.175 61.4821 193.562 61.8903 194.335 62.0049C194.672 62.0479 194.84 62.123 194.84 62.2305C194.84 62.3379 194.804 62.3988 194.732 62.4131H189.941ZM192.176 49.4365C191.882 49.4365 191.621 49.3434 191.392 49.1572C191.17 48.971 191.059 48.7132 191.059 48.3838C191.059 48.0472 191.166 47.7822 191.381 47.5889C191.596 47.3955 191.85 47.2988 192.144 47.2988C192.444 47.2988 192.695 47.4134 192.896 47.6426C193.103 47.8717 193.207 48.1188 193.207 48.3838C193.207 48.6488 193.11 48.8923 192.917 49.1143C192.724 49.3291 192.477 49.4365 192.176 49.4365ZM197.858 56.752C197.737 56.752 197.676 57.0133 197.676 57.5361C197.676 58.6462 198.005 59.5771 198.664 60.3291C199.323 61.0811 200.139 61.457 201.113 61.457C202.094 61.457 203.036 61.0345 203.938 60.1895C203.953 60.1751 203.971 60.168 203.992 60.168H204.046C204.089 60.168 204.128 60.2038 204.164 60.2754C204.207 60.3398 204.246 60.3828 204.282 60.4043C203.451 61.4141 202.474 62.1123 201.35 62.499C200.963 62.6351 200.526 62.7031 200.039 62.7031C199.552 62.7031 199.058 62.5706 198.557 62.3057C198.055 62.0335 197.626 61.679 197.268 61.2422C196.508 60.3327 196.129 59.2012 196.129 57.8477C196.129 56.487 196.541 55.248 197.364 54.1309C198.195 53.0137 199.334 52.4551 200.78 52.4551C201.819 52.4551 202.667 52.9206 203.326 53.8516C203.985 54.7754 204.314 55.5882 204.314 56.29C204.314 56.598 204.239 56.752 204.089 56.752H197.858ZM197.977 55.7207C197.977 55.8568 198.041 55.9248 198.17 55.9248H202.22C202.406 55.9248 202.499 55.8138 202.499 55.5918C202.499 55.0762 202.266 54.5498 201.801 54.0127C201.342 53.4684 200.838 53.1963 200.286 53.1963C199.749 53.1963 199.258 53.4398 198.814 53.9268C198.378 54.4137 198.098 54.9688 197.977 55.5918V55.7207ZM210.083 62.0049C210.42 62.0479 210.588 62.1338 210.588 62.2627C210.588 62.3486 210.552 62.3988 210.48 62.4131H205.689C205.618 62.3988 205.582 62.3486 205.582 62.2627C205.582 62.1338 205.75 62.0479 206.087 62.0049C206.86 61.8903 207.247 61.4821 207.247 60.7803V47.3848C207.247 47.084 207.082 46.8763 206.753 46.7617C206.61 46.7116 206.456 46.6722 206.291 46.6436C206.126 46.6077 205.994 46.5755 205.894 46.5469C205.8 46.5182 205.74 46.4932 205.711 46.4717C205.689 46.443 205.679 46.3893 205.679 46.3105C205.679 46.2246 205.732 46.153 205.84 46.0957L208.579 44.8066C208.665 44.7637 208.719 44.7422 208.74 44.7422C208.862 44.7422 208.923 44.8281 208.923 45V60.7803C208.923 61.4821 209.31 61.8903 210.083 62.0049Z" fill="#EFB85F"/>
<path d="M141.324 120.68C134.829 121.645 132.414 122.128 131.287 122.718C130.643 123.093 129.623 123.361 129.033 123.361C128.442 123.361 127.047 123.737 125.92 124.22C121.357 126.151 120.552 126.526 118.513 127.492C113.467 129.852 106.704 134.84 101.552 139.935C97.58 143.905 91.4076 152.647 89.4217 157.153C88.7239 158.762 87.9188 160.586 87.6505 161.176C86.6844 163.214 85.3962 167.076 84.9668 169.221C84.6984 170.401 84.2691 172.44 83.947 173.781C82.5515 180.432 82.7662 193.895 84.4837 200.921C87.4358 213.097 94.628 225.863 103.108 233.908C104.611 235.41 105.899 236.805 105.899 237.073C105.899 237.395 105.094 237.931 104.128 238.36C100.049 240.023 98.8145 244.314 101.337 248.015C103.055 250.589 103.001 252.145 101.069 258.152C100.21 260.888 99.0829 264.428 98.5998 266.037C96.7749 272.098 96.5066 272.581 95.1647 273.063C91.2466 274.512 89.7974 276.389 89.7974 280.09C89.7974 282.075 90.1194 282.718 91.5686 284.166L93.3398 285.883H148.892C204.014 285.883 204.497 285.883 205.732 284.81C209.864 281.216 208.254 274.619 202.941 273.278C201.438 272.903 201.169 272.259 197.734 261.21C196.768 258.099 195.641 254.612 195.212 253.432C194.299 250.697 194.299 250.214 195.212 249.302C196.231 248.229 197.681 245.333 197.681 244.314C197.681 242.168 195.856 239.647 193.548 238.521C192.313 237.931 191.24 237.287 191.24 237.126C191.24 236.912 192.743 235.356 194.568 233.586C198.808 229.456 204.98 221.142 207.288 216.369C208.308 214.33 209.328 212.239 209.542 211.756C210.294 210.254 212.011 204.89 213.031 200.868C213.836 197.917 214.051 194.967 214.051 187.19C214.051 175.497 213.461 172.171 209.167 160.318C206.966 154.149 201.169 145.567 195.265 139.721C189.737 134.143 184.96 130.71 178.412 127.384C171.649 124.005 168.429 122.932 160.109 121.216C156.299 120.465 145.135 120.143 141.324 120.68ZM161.183 124.595C171.059 126.633 180.613 131.192 188.288 137.522C191.83 140.418 196.822 145.621 198.647 148.303C199.452 149.483 200.203 150.556 200.364 150.717C201.438 151.682 204.927 158.333 206.537 162.517C210.348 172.44 210.831 175.122 210.777 186.922C210.777 195.611 210.616 197.757 209.65 201.404C207.557 209.128 204.819 215.35 201.062 221.089C198.217 225.38 191.83 232.299 187.858 235.303L184.531 237.877L149.106 237.931C129.623 237.985 113.199 237.824 112.501 237.555C110.891 236.965 109.066 235.41 104.128 230.422C96.2382 222.376 90.9782 212.775 87.5431 200.17C86.577 196.63 86.416 194.538 86.416 185.849C86.416 177.16 86.577 175.068 87.5431 171.635C89.0996 165.95 89.6901 164.287 91.4613 160.479C92.32 158.601 93.0178 156.992 93.0178 156.831C93.0178 156.617 93.7692 155.437 94.628 154.096C95.5404 152.808 96.2382 151.521 96.2382 151.199C96.2382 150.931 96.4529 150.717 96.7213 150.717C96.9896 150.717 97.419 150.234 97.58 149.59C97.7947 149 100.371 145.943 103.377 142.885C108.261 137.79 110.086 136.342 118.513 130.978C119.103 130.656 119.962 130.173 120.391 130.012C120.821 129.852 121.626 129.476 122.109 129.208C123.075 128.725 125.49 127.813 130.052 126.204C131.394 125.775 135.151 124.917 138.372 124.381C145.027 123.254 155.01 123.361 161.183 124.595ZM193.065 241.954C194.89 243.402 194.89 245.279 193.011 246.674C191.616 247.8 191.508 247.8 148.194 247.693L104.772 247.532L103.752 246.191C102.572 244.636 102.786 243.134 104.397 241.739C105.416 240.881 108.315 240.827 148.57 240.827C191.347 240.827 191.616 240.827 193.065 241.954ZM191.562 252.199C192.099 253.164 192.689 254.827 192.904 255.846C193.118 256.865 193.601 258.581 193.924 259.6C195.695 264.481 196.017 265.447 197.037 268.719C197.627 270.65 198.003 272.366 197.842 272.581C197.734 272.849 193.333 273.01 188.073 273.01H178.519L177.607 270.972C176.319 268.182 172.401 264.213 169.341 262.711C166.872 261.478 166.55 261.478 148.57 261.478H130.321L127.744 263.033C125.329 264.481 120.391 269.523 120.391 270.543C120.391 270.811 120.015 271.508 119.479 272.044C118.727 272.903 117.654 273.01 109.334 273.01C104.236 273.01 99.9416 272.795 99.7806 272.527C99.6196 272.259 99.8343 271.347 100.264 270.543C100.693 269.684 101.069 268.558 101.069 268.075C101.069 267.539 101.391 266.359 101.82 265.393C102.196 264.428 102.894 262.39 103.377 260.941C105.738 253.003 106.168 251.769 106.919 251.126C107.563 250.643 116.795 250.482 149.214 250.482H190.649L191.562 252.199ZM168.268 265.393C170.951 266.734 175.46 271.508 174.87 272.473C174.333 273.332 122.538 273.224 122.538 272.313C122.592 270.489 128.335 265.662 132.199 264.267C132.629 264.106 140.358 263.999 149.375 264.052C165.316 264.16 165.799 264.213 168.268 265.393ZM204.336 277.569C205.41 279.178 205.41 280.519 204.443 281.914C203.692 282.933 202.404 282.933 149.75 283.094C115.131 283.147 95.3257 283.04 94.4133 282.665C93.2325 282.235 93.0178 281.806 93.0178 280.197C93.0178 279.071 93.3935 277.73 93.9302 277.194C94.7353 276.282 97.1506 276.228 149.106 276.228H203.477L204.336 277.569Z" fill="#EFB85F"/>
<path d="M140.787 140.794C133.97 142.135 127.691 145.836 122.86 151.36C120.445 154.096 119.854 156.027 121.303 156.456C121.625 156.617 123.45 155.061 125.329 153.13C128.764 149.483 132.682 146.855 137.03 145.192C139.445 144.28 142.397 143.958 142.397 144.602C142.397 144.817 140.894 146.587 139.069 148.571C137.191 150.502 135.097 153.345 134.4 154.793C133.702 156.241 132.897 157.85 132.628 158.387C130.213 163.214 130.159 175.443 132.467 180.217C136.386 188.316 141.055 193.519 146.852 196.416C150.663 198.293 152.488 198.937 155.976 199.419C160.217 200.063 167.623 199.419 170.683 198.186C172.883 197.274 174.601 197.167 174.601 197.918C174.601 198.722 170.307 202.691 167.355 204.622C164.779 206.285 161.075 207.948 157.694 208.967C156.567 209.342 156.03 209.879 155.923 210.737C155.708 211.971 155.815 212.024 158.392 211.702C159.894 211.541 161.558 211.166 162.095 210.898C162.632 210.63 164.725 209.611 166.765 208.591C171.005 206.5 177.392 200.599 179.163 197.113C179.754 195.933 180.559 194.538 180.934 194.056C181.847 192.983 181.578 190.945 180.505 190.247C179.861 189.872 178.895 190.247 176.748 191.642C164.564 199.366 150.931 198.025 141.485 188.048C136.117 182.47 133.809 176.784 133.809 169.597C133.863 161.98 136.6 155.49 141.86 150.127C145.617 146.372 147.711 145.085 151.468 144.066C154.259 143.315 155.279 142.081 154.259 140.847C153.346 139.775 145.993 139.721 140.787 140.794Z" fill="#EFB85F"/>
<path d="M171.918 150.448C171.005 151.521 172.079 152.862 173.528 152.486C174.87 152.111 174.923 150.931 173.582 150.234C172.83 149.804 172.401 149.858 171.918 150.448Z" fill="#EFB85F"/>
<path d="M116.902 160.372C115.722 162.624 115.883 163.59 117.332 163.59C118.244 163.59 118.835 163.053 119.479 161.659C120.015 160.64 120.284 159.513 120.123 159.245C119.425 158.226 117.707 158.816 116.902 160.372Z" fill="#EFB85F"/>
<path d="M185.658 165.628C184.531 168.257 183.726 169.168 181.686 170.027C180.076 170.724 180.398 171.689 182.599 172.762C183.941 173.352 184.692 174.318 185.551 176.356C186.195 177.858 186.839 179.252 187.054 179.413C187.215 179.628 187.537 178.501 187.751 177.053C188.127 174.318 189.791 172.172 191.509 172.172C192.26 172.172 192.958 170.831 192.475 170.348C192.26 170.188 191.723 170.027 191.186 170.027C189.952 170.027 188.02 167.559 188.02 165.95C188.02 164.556 187.537 163.054 187 163.054C186.839 163.054 186.195 164.18 185.658 165.628Z" fill="#EFB85F"/>
<path d="M155.279 167.827C154.956 168.739 154.044 169.811 153.346 170.294C151.682 171.367 151.682 172.386 153.346 173.137C154.098 173.459 154.903 174.531 155.279 175.604C155.601 176.677 156.084 177.535 156.352 177.535C156.889 177.535 157.425 176.194 157.425 174.8C157.425 174.21 158.016 173.512 158.767 173.137C160.431 172.386 160.431 171.903 158.821 170.401C158.123 169.758 157.425 168.631 157.318 167.934C157.05 166.003 156.084 166.003 155.279 167.827Z" fill="#EFB85F"/>
<path d="M114.487 168.149C113.735 170.187 113.843 171.635 114.755 171.957C116.151 172.493 117.224 171.099 117.063 169.007C116.848 166.593 115.292 166.057 114.487 168.149Z" fill="#EFB85F"/>
<path d="M113.682 177.16C113.306 178.501 114.165 181.29 114.916 181.29C115.775 181.29 116.634 179.949 116.634 178.608C116.634 176.087 114.219 174.907 113.682 177.16Z" fill="#EFB85F"/>
<path d="M99.7805 179.52C99.6195 179.68 99.4584 180.539 99.4584 181.397C99.4584 183.381 97.4725 186.117 96.0234 186.117C95.3793 186.117 94.5742 186.332 94.1448 186.6C93.5544 186.975 93.8764 187.351 95.4866 188.155C98.2776 189.603 99.3511 190.837 99.5658 193.036C99.7805 195.611 100.908 195.718 101.337 193.251C101.766 190.73 102.41 189.872 104.987 188.584C107.187 187.458 107.348 186.492 105.309 186.224C103.377 185.956 101.605 184.025 101.23 181.719C100.908 179.627 100.425 178.876 99.7805 179.52Z" fill="#EFB85F"/>
<path d="M115.024 185.527C115.024 187.512 116.043 189.335 117.117 189.335C118.673 189.335 118.888 188.638 117.976 186.439C117.063 184.294 115.024 183.65 115.024 185.527Z" fill="#EFB85F"/>
<path d="M118.781 193.787C118.781 195.289 120.177 197.381 121.25 197.381C122.484 197.381 122.699 196.04 121.733 194.216C120.713 192.178 118.781 191.91 118.781 193.787Z" fill="#EFB85F"/>
<path d="M185.712 209.45C185.228 210.469 184.101 211.649 183.189 212.132C181.149 213.205 181.096 214.385 183.135 214.814C184.262 215.028 184.906 215.726 185.604 217.281C186.946 220.231 187.483 220.124 188.234 216.691C188.395 215.833 189.093 215.136 190.166 214.706C192.099 213.955 191.884 212.722 189.63 211.917C188.449 211.542 188.019 210.952 187.697 209.504C187.268 207.09 186.839 207.09 185.712 209.45Z" fill="#EFB85F"/>
<path d="M113.521 209.289C113.145 209.664 112.877 210.2 112.877 210.576C112.877 210.951 112.126 211.863 111.213 212.614C109.603 213.955 109.496 215.081 110.998 215.081C111.428 215.081 112.126 215.779 112.609 216.637C113.789 218.997 114.38 219.104 115.239 216.959C115.668 215.94 116.419 215.081 116.849 215.081C118.405 215.081 118.352 213.901 116.688 212.4C115.775 211.541 115.024 210.469 115.024 210.039C115.024 208.913 114.273 208.538 113.521 209.289Z" fill="#EFB85F"/>
<path d="M163.491 223.503C162.954 224.629 161.88 225.863 161.022 226.238C159.573 226.936 159.465 227.955 160.914 227.955C161.344 227.955 162.31 229.027 163.115 230.368C164.564 232.889 165.477 233.104 165.477 230.958C165.477 229.671 166.657 228.384 168.321 227.794C169.395 227.418 169.073 226.346 167.946 226.346C166.926 226.346 165.477 224.522 165.477 223.235C165.477 221.304 164.51 221.411 163.491 223.503Z" fill="#EFB85F"/>
<path d="M127.583 226.077C127.154 227.15 127.798 227.954 129.033 227.954C129.784 227.954 130.052 227.579 130.052 226.613C130.052 225.648 129.784 225.272 128.979 225.272C128.389 225.272 127.744 225.648 127.583 226.077Z" fill="#EFB85F"/>
</g>
</g>
<defs>
<clipPath id="clip0_239_23484">
<rect width="297.638" height="419.528" rx="10" fill="white"/>
</clipPath>
<clipPath id="clip1_239_23484">
<rect width="259" height="381" fill="white" transform="translate(19.041 19.4131)"/>
</clipPath>
</defs>
</svg>
