<svg width="298" height="420" viewBox="0 0 298 420" fill="none" xmlns="http://www.w3.org/2000/svg">
<g clip-path="url(#clip0_128_13758)">
<rect width="297.638" height="419.528" rx="10" fill="#032206"/>
<rect x="12" y="12" width="273" height="396" rx="9" stroke="#EFB85F" stroke-width="2"/>
<rect x="19.5" y="19.5" width="258" height="380" rx="6.5" stroke="#EFB85F"/>
<circle cx="76.7197" cy="259.47" r="1" fill="#EFB85F"/>
<circle cx="222.72" cy="204.47" r="1" fill="#EFB85F"/>
<circle cx="211.72" cy="129.47" r="1" fill="#EFB85F"/>
<circle cx="241.72" cy="96.4702" r="1" fill="#EFB85F"/>
<circle cx="125.72" cy="66.4702" r="1" fill="#EFB85F"/>
<circle cx="59.7197" cy="98.4702" r="1" fill="#EFB85F"/>
<circle cx="187.72" cy="97.4702" r="1" fill="#EFB85F"/>
<circle cx="50.7197" cy="187.47" r="1" fill="#EFB85F"/>
<circle cx="50.7197" cy="187.47" r="1" fill="#EFB85F"/>
<circle cx="50.7197" cy="187.47" r="1" fill="#EFB85F"/>
<circle cx="74.7197" cy="323.47" r="1" fill="#EFB85F"/>
<circle cx="164.72" cy="363.47" r="1" fill="#EFB85F"/>
<circle cx="66.7197" cy="376.47" r="1" fill="#EFB85F"/>
<circle cx="114.72" cy="393.47" r="1" fill="#EFB85F"/>
<circle cx="164.72" cy="395.47" r="1" fill="#EFB85F"/>
<circle cx="215.72" cy="105.47" r="1" fill="#EFB85F"/>
<circle cx="162.72" cy="91.4702" r="1" fill="#EFB85F"/>
<circle cx="162.72" cy="91.4702" r="1" fill="#EFB85F"/>
<circle cx="21.7197" cy="312.47" r="1" fill="#EFB85F"/>
<circle cx="141.72" cy="354.47" r="1" fill="#EFB85F"/>
<circle cx="55.7197" cy="307.47" r="1" fill="#EFB85F"/>
<circle cx="88.7197" cy="340.47" r="1" fill="#EFB85F"/>
<circle cx="88.7197" cy="340.47" r="1" fill="#EFB85F"/>
<circle cx="229.72" cy="381.47" r="1" fill="#EFB85F"/>
<circle cx="235.72" cy="337.47" r="1" fill="#EFB85F"/>
<circle cx="235.72" cy="337.47" r="1" fill="#EFB85F"/>
<circle cx="212.72" cy="155.47" r="1" fill="#EFB85F"/>
<circle cx="274.72" cy="186.47" r="1" fill="#EFB85F"/>
<path d="M198.72 343.47C198.72 344.022 198.272 344.47 197.72 344.47C197.167 344.47 196.72 344.022 196.72 343.47C196.72 342.918 197.167 342.47 197.72 342.47C198.272 342.47 198.72 342.918 198.72 343.47Z" fill="#EFB85F"/>
<path d="M229.22 361.47L230.416 363.445L232.72 364.47L230.416 365.495L229.22 367.47L228.024 365.495L225.72 364.47L228.024 363.445L229.22 361.47Z" fill="#EFB85F"/>
<circle cx="251.72" cy="319.47" r="1" fill="#EFB85F"/>
<circle cx="216.72" cy="147.47" r="1" fill="#EFB85F"/>
<circle cx="249.72" cy="180.47" r="1" fill="#EFB85F"/>
<circle cx="249.72" cy="180.47" r="1" fill="#EFB85F"/>
<circle cx="196.72" cy="372.47" r="1" fill="#EFB85F"/>
<circle cx="214.72" cy="266.47" r="1" fill="#EFB85F"/>
<circle cx="80.7197" cy="131.47" r="1" fill="#EFB85F"/>
<circle cx="22.7197" cy="157.47" r="1" fill="#EFB85F"/>
<circle cx="70.7197" cy="82.4702" r="1" fill="#EFB85F"/>
<circle cx="59.7197" cy="156.47" r="1" fill="#EFB85F"/>
<circle cx="40.7197" cy="79.4702" r="1" fill="#EFB85F"/>
<circle cx="74.7197" cy="74.4702" r="1" fill="#EFB85F"/>
<circle cx="38.7197" cy="143.47" r="1" fill="#EFB85F"/>
<circle cx="72.7197" cy="193.47" r="1" fill="#EFB85F"/>
<path d="M63.5269 139.266L67.8018 139.126L63.5269 138.986L64.8677 137.555L63.4362 138.896L63.2963 134.621L63.1565 138.896L61.725 137.555L63.0658 138.986L58.7909 139.126L63.0658 139.266L61.725 140.697L63.1565 139.357L63.2963 143.631L63.4362 139.357L64.8677 140.697L63.5269 139.266Z" fill="#EFB85F"/>
<path d="M33.4906 226.363L37.7655 226.223L33.4906 226.083L34.8314 224.652L33.3999 225.993L33.2601 221.718L33.1202 225.993L31.6888 224.652L33.0295 226.083L28.7546 226.223L33.0295 226.363L31.6888 227.794L33.1202 226.454L33.2601 230.728L33.3999 226.454L34.8314 227.794L33.4906 226.363Z" fill="#EFB85F"/>
<path d="M28.4845 291.436L32.7594 291.296L28.4845 291.156L29.8253 289.725L28.3938 291.066L28.254 286.791L28.1141 291.066L26.6826 289.725L28.0234 291.156L23.7485 291.296L28.0234 291.436L26.6826 292.867L28.1141 291.527L28.254 295.801L28.3938 291.527L29.8253 292.867L28.4845 291.436Z" fill="#EFB85F"/>
<path d="M45.5052 349.501L49.7801 349.361L45.5052 349.221L46.8459 347.79L45.4144 349.13L45.2746 344.856L45.1348 349.13L43.7033 347.79L45.044 349.221L40.7692 349.361L45.044 349.501L43.7033 350.932L45.1348 349.592L45.2746 353.866L45.4144 349.592L46.8459 350.932L45.5052 349.501Z" fill="#EFB85F"/>
<path d="M126.603 378.534L130.878 378.394L126.603 378.254L127.944 376.823L126.512 378.163L126.373 373.889L126.233 378.163L124.801 376.823L126.142 378.254L121.867 378.394L126.142 378.534L124.801 379.965L126.233 378.624L126.373 382.899L126.512 378.624L127.944 379.965L126.603 378.534Z" fill="#EFB85F"/>
<path d="M251.754 385.541L256.029 385.402L251.754 385.262L253.095 383.83L251.664 385.171L251.524 380.896L251.384 385.171L249.952 383.83L251.293 385.262L247.018 385.402L251.293 385.541L249.952 386.973L251.384 385.632L251.524 389.907L251.664 385.632L253.095 386.973L251.754 385.541Z" fill="#EFB85F"/>
<path d="M264.77 221.358L269.045 221.218L264.77 221.078L266.111 219.647L264.679 220.987L264.539 216.713L264.4 220.987L262.968 219.647L264.309 221.078L260.034 221.218L264.309 221.358L262.968 222.789L264.4 221.448L264.539 225.723L264.679 221.448L266.111 222.789L264.77 221.358Z" fill="#EFB85F"/>
<path d="M264.77 221.358L269.045 221.218L264.77 221.078L266.111 219.647L264.679 220.987L264.539 216.713L264.4 220.987L262.968 219.647L264.309 221.078L260.034 221.218L264.309 221.358L262.968 222.789L264.4 221.448L264.539 225.723L264.679 221.448L266.111 222.789L264.77 221.358Z" fill="#EFB85F"/>
<path d="M135.614 105.228L139.889 105.088L135.614 104.948L136.955 103.517L135.523 104.858L135.383 100.583L135.244 104.858L133.812 103.517L135.153 104.948L130.878 105.088L135.153 105.228L133.812 106.659L135.244 105.319L135.383 109.593L135.523 105.319L136.955 106.659L135.614 105.228Z" fill="#EFB85F"/>
<path d="M135.614 105.228L139.889 105.088L135.614 104.948L136.955 103.517L135.523 104.858L135.383 100.583L135.244 104.858L133.812 103.517L135.153 104.948L130.878 105.088L135.153 105.228L133.812 106.659L135.244 105.319L135.383 109.593L135.523 105.319L136.955 106.659L135.614 105.228Z" fill="#EFB85F"/>
<path d="M135.614 105.228L139.889 105.088L135.614 104.948L136.955 103.517L135.523 104.858L135.383 100.583L135.244 104.858L133.812 103.517L135.153 104.948L130.878 105.088L135.153 105.228L133.812 106.659L135.244 105.319L135.383 109.593L135.523 105.319L136.955 106.659L135.614 105.228Z" fill="#EFB85F"/>
<path d="M160.644 78.1977L164.919 78.0578L160.644 77.918L161.985 76.4866L160.553 77.8272L160.414 73.5527L160.274 77.8272L158.842 76.4866L160.183 77.918L155.908 78.0578L160.183 78.1977L158.842 79.629L160.274 78.2883L160.414 82.5628L160.553 78.2883L161.985 79.629L160.644 78.1977Z" fill="#EFB85F"/>
<path d="M193.684 334.484L197.959 334.344L193.684 334.205L195.025 332.773L193.593 334.114L193.454 329.839L193.314 334.114L191.882 332.773L193.223 334.205L188.948 334.344L193.223 334.484L191.882 335.916L193.314 334.575L193.454 338.849L193.593 334.575L195.025 335.916L193.684 334.484Z" fill="#EFB85F"/>
<path d="M193.684 334.484L197.959 334.344L193.684 334.205L195.025 332.773L193.593 334.114L193.454 329.839L193.314 334.114L191.882 332.773L193.223 334.205L188.948 334.344L193.223 334.484L191.882 335.916L193.314 334.575L193.454 338.849L193.593 334.575L195.025 335.916L193.684 334.484Z" fill="#EFB85F"/>
<path d="M237.737 272.415L242.012 272.275L237.737 272.135L239.078 270.704L237.647 272.045L237.507 267.77L237.367 272.045L235.935 270.704L237.276 272.135L233.001 272.275L237.276 272.415L235.935 273.846L237.367 272.506L237.507 276.78L237.647 272.506L239.078 273.846L237.737 272.415Z" fill="#EFB85F"/>
<path d="M250.71 134.026C250.749 133.699 250.814 132.924 250.866 132.312C250.918 131.604 251.009 131.155 251.113 131.114C251.204 131.074 251.62 131.291 252.023 131.591C252.439 131.903 252.802 132.121 252.841 132.08C252.867 132.053 252.62 131.618 252.296 131.128C251.88 130.529 251.737 130.23 251.854 130.189C251.945 130.162 252.607 130.067 253.322 129.972C255.609 129.7 255.596 129.55 253.283 129.291C252.478 129.196 251.802 129.074 251.776 129.033C251.737 128.979 251.984 128.584 252.296 128.149C252.607 127.7 252.841 127.305 252.802 127.264C252.763 127.237 252.374 127.469 251.945 127.781C251.503 128.108 251.113 128.312 251.061 128.258C250.996 128.19 250.892 127.373 250.801 126.435C250.567 123.986 250.463 123.999 250.216 126.489C250.125 127.428 250.021 128.244 249.969 128.285C249.93 128.326 249.541 128.108 249.099 127.795C248.67 127.469 248.293 127.237 248.254 127.278C248.228 127.305 248.423 127.673 248.709 128.081C248.995 128.475 249.229 128.883 249.229 128.965C249.229 129.06 248.67 129.183 247.76 129.291C245.434 129.55 245.434 129.7 247.773 129.985C248.657 130.094 249.229 130.23 249.229 130.312C249.229 130.393 248.995 130.802 248.709 131.196C248.098 132.053 248.046 132.271 248.54 131.931C248.748 131.808 249.125 131.536 249.398 131.346C250.021 130.924 250.073 130.992 250.19 132.461C250.359 134.624 250.554 135.196 250.71 134.026Z" fill="#EFB85F"/>
<path d="M36.4513 114.003C36.4903 113.677 36.5553 112.901 36.6073 112.289C36.6593 111.582 36.7502 111.133 36.8542 111.092C36.9452 111.051 37.361 111.269 37.7639 111.568C38.1797 111.881 38.5436 112.099 38.5826 112.058C38.6086 112.031 38.3617 111.595 38.0368 111.106C37.6209 110.507 37.478 110.208 37.5949 110.167C37.6859 110.14 38.3487 110.044 39.0634 109.949C41.3507 109.677 41.3377 109.527 39.0245 109.269C38.2187 109.174 37.543 109.051 37.517 109.011C37.478 108.956 37.7249 108.562 38.0368 108.126C38.3487 107.677 38.5826 107.283 38.5436 107.242C38.5046 107.215 38.1148 107.446 37.6859 107.759C37.2441 108.085 36.8542 108.29 36.8022 108.235C36.7372 108.167 36.6333 107.351 36.5423 106.412C36.3084 103.963 36.2044 103.977 35.9575 106.467C35.8665 107.405 35.7626 108.221 35.7106 108.262C35.6716 108.303 35.2817 108.085 34.8399 107.773C34.411 107.446 34.0341 107.215 33.9952 107.256C33.9692 107.283 34.1641 107.65 34.45 108.058C34.7359 108.453 34.9698 108.861 34.9698 108.943C34.9698 109.038 34.411 109.16 33.5013 109.269C31.1751 109.527 31.1751 109.677 33.5143 109.963C34.398 110.072 34.9698 110.208 34.9698 110.289C34.9698 110.371 34.7359 110.779 34.45 111.174C33.8392 112.031 33.7872 112.248 34.2811 111.908C34.489 111.786 34.8659 111.514 35.1388 111.323C35.7626 110.902 35.8145 110.97 35.9315 112.439C36.1004 114.602 36.2954 115.173 36.4513 114.003Z" fill="#EFB85F"/>
<path d="M268.732 306.218C268.771 305.892 268.836 305.116 268.888 304.504C268.94 303.797 269.031 303.348 269.135 303.307C269.226 303.266 269.642 303.484 270.045 303.783C270.46 304.096 270.824 304.314 270.863 304.273C270.889 304.246 270.642 303.81 270.317 303.32C269.902 302.722 269.759 302.423 269.876 302.382C269.967 302.355 270.629 302.259 271.344 302.164C273.631 301.892 273.618 301.742 271.305 301.484C270.499 301.389 269.824 301.266 269.798 301.225C269.759 301.171 270.006 300.776 270.317 300.341C270.629 299.892 270.863 299.498 270.824 299.457C270.785 299.43 270.395 299.661 269.967 299.974C269.525 300.3 269.135 300.504 269.083 300.45C269.018 300.382 268.914 299.566 268.823 298.627C268.589 296.178 268.485 296.192 268.238 298.681C268.147 299.62 268.043 300.436 267.991 300.477C267.952 300.518 267.562 300.3 267.121 299.987C266.692 299.661 266.315 299.43 266.276 299.47C266.25 299.498 266.445 299.865 266.731 300.273C267.017 300.668 267.25 301.076 267.25 301.157C267.25 301.253 266.692 301.375 265.782 301.484C263.456 301.742 263.456 301.892 265.795 302.178C266.679 302.287 267.25 302.423 267.25 302.504C267.25 302.586 267.017 302.994 266.731 303.388C266.12 304.246 266.068 304.463 266.562 304.123C266.77 304.001 267.146 303.729 267.419 303.538C268.043 303.116 268.095 303.184 268.212 304.654C268.381 306.817 268.576 307.388 268.732 306.218Z" fill="#EFB85F"/>
<path d="M54.473 275.183C54.512 274.857 54.577 274.081 54.629 273.469C54.681 272.762 54.7719 272.313 54.8759 272.272C54.9669 272.231 55.3827 272.449 55.7856 272.748C56.2015 273.061 56.5653 273.279 56.6043 273.238C56.6303 273.211 56.3834 272.775 56.0585 272.286C55.6427 271.687 55.4997 271.388 55.6167 271.347C55.7076 271.32 56.3704 271.225 57.0852 271.129C59.3724 270.857 59.3594 270.708 57.0462 270.449C56.2405 270.354 55.5647 270.232 55.5387 270.191C55.4997 270.136 55.7466 269.742 56.0585 269.306C56.3704 268.858 56.6043 268.463 56.5653 268.422C56.5264 268.395 56.1365 268.626 55.7076 268.939C55.2658 269.266 54.8759 269.47 54.8239 269.415C54.759 269.347 54.655 268.531 54.564 267.592C54.3301 265.144 54.2261 265.157 53.9792 267.647C53.8882 268.585 53.7843 269.402 53.7323 269.442C53.6933 269.483 53.3034 269.266 52.8616 268.953C52.4327 268.626 52.0559 268.395 52.0169 268.436C51.9909 268.463 52.1858 268.83 52.4717 269.238C52.7576 269.633 52.9916 270.041 52.9916 270.123C52.9916 270.218 52.4327 270.34 51.523 270.449C49.1968 270.708 49.1968 270.857 51.536 271.143C52.4197 271.252 52.9916 271.388 52.9916 271.47C52.9916 271.551 52.7576 271.959 52.4717 272.354C51.8609 273.211 51.809 273.428 52.3028 273.088C52.5107 272.966 52.8876 272.694 53.1605 272.503C53.7843 272.082 53.8363 272.15 53.9532 273.619C54.1222 275.782 54.3171 276.353 54.473 275.183Z" fill="#EFB85F"/>
<path d="M49.4671 396.319C49.5061 395.993 49.571 395.217 49.623 394.605C49.675 393.898 49.766 393.449 49.8699 393.408C49.9609 393.367 50.3768 393.585 50.7796 393.884C51.1955 394.197 51.5594 394.415 51.5983 394.374C51.6243 394.347 51.3774 393.911 51.0525 393.421C50.6367 392.823 50.4937 392.524 50.6107 392.483C50.7017 392.456 51.3644 392.36 52.0792 392.265C54.3664 391.993 54.3534 391.843 52.0402 391.585C51.2345 391.49 50.5587 391.367 50.5327 391.326C50.4937 391.272 50.7406 390.878 51.0525 390.442C51.3644 389.993 51.5983 389.599 51.5594 389.558C51.5204 389.531 51.1305 389.762 50.7017 390.075C50.2598 390.401 49.8699 390.605 49.8179 390.551C49.753 390.483 49.649 389.667 49.558 388.728C49.3241 386.279 49.2202 386.293 48.9732 388.782C48.8823 389.721 48.7783 390.537 48.7263 390.578C48.6873 390.619 48.2975 390.401 47.8556 390.088C47.4268 389.762 47.0499 389.531 47.0109 389.572C46.9849 389.599 47.1798 389.966 47.4657 390.374C47.7516 390.769 47.9856 391.177 47.9856 391.258C47.9856 391.354 47.4268 391.476 46.5171 391.585C44.1909 391.843 44.1909 391.993 46.5301 392.279C47.4138 392.388 47.9856 392.524 47.9856 392.605C47.9856 392.687 47.7516 393.095 47.4657 393.49C46.855 394.347 46.803 394.564 47.2968 394.224C47.5047 394.102 47.8816 393.83 48.1545 393.639C48.7783 393.217 48.8303 393.285 48.9472 394.755C49.1162 396.918 49.3111 397.489 49.4671 396.319Z" fill="#EFB85F"/>
<path d="M229.497 361.875L230.695 363.852L233.001 364.878L230.695 365.904L229.497 367.882L228.3 365.904L225.993 364.878L228.3 363.852L229.497 361.875Z" fill="#EFB85F"/>
<path d="M118.363 309.817L119.56 311.794L121.867 312.82L119.56 313.846L118.363 315.824L117.165 313.846L114.859 312.82L117.165 311.794L118.363 309.817Z" fill="#EFB85F"/>
<path d="M78.3147 230.729L79.512 232.705L81.8188 233.732L79.512 234.758L78.3147 236.735L77.1171 234.758L74.8103 233.732L77.1171 232.705L78.3147 230.729Z" fill="#EFB85F"/>
<path d="M27.253 185.678L28.4502 187.655L30.757 188.682L28.4502 189.708L27.253 191.685L26.0553 189.708L23.7485 188.682L26.0553 187.655L27.253 185.678Z" fill="#EFB85F"/>
<path d="M27.253 86.5669L28.4502 88.5439L30.757 89.5703L28.4502 90.5963L27.253 92.5736L26.0553 90.5963L23.7485 89.5703L26.0553 88.5439L27.253 86.5669Z" fill="#EFB85F"/>
<circle cx="118.72" cy="77.4702" r="1" fill="#EFB85F"/>
<path d="M114.546 112.001C114.585 111.674 114.65 110.899 114.702 110.287C114.754 109.579 114.845 109.13 114.949 109.09C115.04 109.049 115.455 109.266 115.858 109.566C116.274 109.879 116.638 110.096 116.677 110.055C116.703 110.028 116.456 109.593 116.131 109.103C115.715 108.505 115.572 108.205 115.689 108.164C115.78 108.137 116.443 108.042 117.158 107.947C119.445 107.675 119.432 107.525 117.119 107.267C116.313 107.171 115.637 107.049 115.611 107.008C115.572 106.954 115.819 106.559 116.131 106.124C116.443 105.675 116.677 105.28 116.638 105.24C116.599 105.212 116.209 105.444 115.78 105.757C115.338 106.083 114.949 106.287 114.897 106.233C114.832 106.165 114.728 105.348 114.637 104.41C114.403 101.961 114.299 101.975 114.052 104.464C113.961 105.403 113.857 106.219 113.805 106.26C113.766 106.301 113.376 106.083 112.934 105.77C112.505 105.444 112.128 105.212 112.09 105.253C112.064 105.28 112.258 105.648 112.544 106.056C112.83 106.45 113.064 106.858 113.064 106.94C113.064 107.035 112.505 107.158 111.596 107.267C109.269 107.525 109.269 107.675 111.609 107.96C112.492 108.069 113.064 108.205 113.064 108.287C113.064 108.369 112.83 108.777 112.544 109.171C111.934 110.028 111.882 110.246 112.375 109.906C112.583 109.783 112.96 109.511 113.233 109.321C113.857 108.899 113.909 108.967 114.026 110.436C114.195 112.599 114.39 113.171 114.546 112.001Z" fill="#EFB85F"/>
<path d="M105.347 84.5649L106.545 86.5419L108.851 87.5683L106.545 88.5943L105.347 90.5717L104.15 88.5943L101.843 87.5683L104.15 86.5419L105.347 84.5649Z" fill="#EFB85F"/>
<path d="M108.351 25.4988L109.548 27.4757L111.855 28.5021L109.548 29.5282L108.351 31.5055L107.153 29.5282L104.847 28.5021L107.153 27.4757L108.351 25.4988Z" fill="#EFB85F"/>
<path d="M256.53 70.5493L257.727 72.5263L260.034 73.5527L257.727 74.5787L256.53 76.556L255.332 74.5787L253.026 73.5527L255.332 72.5263L256.53 70.5493Z" fill="#EFB85F"/>
<path d="M238.007 298.805L238.759 302.464L242.012 303.309L238.759 304.155L238.007 307.815L237.255 304.155L234.003 303.309L237.255 302.464L238.007 298.805Z" fill="#EFB85F"/>
<path d="M57.7895 245.745L58.5416 249.404L61.7946 250.25L58.5416 251.096L57.7895 254.755L57.0375 251.096L53.7849 250.25L57.0375 249.404L57.7895 245.745Z" fill="#EFB85F"/>
<path d="M62.7955 339.851L63.5476 343.51L66.8006 344.355L63.5476 345.201L62.7955 348.861L62.0435 345.201L58.7909 344.355L62.0435 343.51L62.7955 339.851Z" fill="#EFB85F"/>
<path d="M261.035 338.85L261.787 342.509L265.04 343.354L261.787 344.2L261.035 347.86L260.283 344.2L257.03 343.354L260.283 342.509L261.035 338.85Z" fill="#EFB85F"/>
<path d="M160.914 327.837L161.666 331.496L164.919 332.342L161.666 333.188L160.914 336.847L160.162 333.188L156.909 332.342L160.162 331.496L160.914 327.837Z" fill="#EFB85F"/>
<path d="M254.027 237.736L254.779 241.396L258.032 242.241L254.779 243.087L254.027 246.746L253.275 243.087L250.022 242.241L253.275 241.396L254.027 237.736Z" fill="#EFB85F"/>
<path d="M254.027 237.736L254.779 241.396L258.032 242.241L254.779 243.087L254.027 246.746L253.275 243.087L250.022 242.241L253.275 241.396L254.027 237.736Z" fill="#EFB85F"/>
<path d="M115.86 343.855L116.612 347.514L119.865 348.36L116.612 349.206L115.86 352.865L115.108 349.206L111.855 348.36L115.108 347.514L115.86 343.855Z" fill="#EFB85F"/>
<circle cx="125.72" cy="66.4702" r="1" fill="#EFB85F"/>
<circle cx="164.72" cy="363.47" r="1" fill="#EFB85F"/>
<circle cx="143.72" cy="317.47" r="1" fill="#EFB85F"/>
<circle cx="161.72" cy="315.47" r="1" fill="#EFB85F"/>
<circle cx="120.72" cy="331.47" r="1" fill="#EFB85F"/>
<circle cx="162.72" cy="91.4702" r="1" fill="#EFB85F"/>
<circle cx="162.72" cy="91.4702" r="1" fill="#EFB85F"/>
<circle cx="141.72" cy="354.47" r="1" fill="#EFB85F"/>
<path d="M126.603 378.534L130.878 378.394L126.603 378.254L127.944 376.823L126.512 378.163L126.373 373.889L126.233 378.163L124.801 376.823L126.142 378.254L121.867 378.394L126.142 378.534L124.801 379.965L126.233 378.624L126.373 382.899L126.512 378.624L127.944 379.965L126.603 378.534Z" fill="#EFB85F"/>
<path d="M135.614 105.228L139.889 105.088L135.614 104.948L136.955 103.517L135.523 104.858L135.383 100.583L135.244 104.858L133.812 103.517L135.153 104.948L130.878 105.088L135.153 105.228L133.812 106.659L135.244 105.319L135.383 109.593L135.523 105.319L136.955 106.659L135.614 105.228Z" fill="#EFB85F"/>
<path d="M135.614 105.228L139.889 105.088L135.614 104.948L136.955 103.517L135.523 104.858L135.383 100.583L135.244 104.858L133.812 103.517L135.153 104.948L130.878 105.088L135.153 105.228L133.812 106.659L135.244 105.319L135.383 109.593L135.523 105.319L136.955 106.659L135.614 105.228Z" fill="#EFB85F"/>
<path d="M135.614 105.228L139.889 105.088L135.614 104.948L136.955 103.517L135.523 104.858L135.383 100.583L135.244 104.858L133.812 103.517L135.153 104.948L130.878 105.088L135.153 105.228L133.812 106.659L135.244 105.319L135.383 109.593L135.523 105.319L136.955 106.659L135.614 105.228Z" fill="#EFB85F"/>
<path d="M160.644 78.1977L164.919 78.0578L160.644 77.918L161.985 76.4866L160.553 77.8272L160.414 73.5527L160.274 77.8272L158.842 76.4866L160.183 77.918L155.908 78.0578L160.183 78.1977L158.842 79.629L160.274 78.2883L160.414 82.5628L160.553 78.2883L161.985 79.629L160.644 78.1977Z" fill="#EFB85F"/>
<path d="M160.914 327.837L161.666 331.496L164.919 332.342L161.666 333.188L160.914 336.847L160.162 333.188L156.909 332.342L160.162 331.496L160.914 327.837Z" fill="#EFB85F"/>
<path d="M115.86 343.855L116.612 347.514L119.865 348.36L116.612 349.206L115.86 352.865L115.108 349.206L111.855 348.36L115.108 347.514L115.86 343.855Z" fill="#EFB85F"/>
<circle cx="41.7197" cy="29.4702" r="1" fill="#EFB85F"/>
<path d="M28.2542 36.5112L29.4514 38.4882L31.7582 39.5146L29.4514 40.5406L28.2542 42.518L27.0566 40.5406L24.7498 39.5146L27.0566 38.4882L28.2542 36.5112Z" fill="#EFB85F"/>
<path d="M44.461 133.494C44.5 133.168 44.5649 132.393 44.6169 131.78C44.6689 131.073 44.7599 130.624 44.8638 130.583C44.9548 130.542 45.3707 130.76 45.7735 131.059C46.1894 131.372 46.5533 131.59 46.5922 131.549C46.6182 131.522 46.3713 131.087 46.0464 130.597C45.6306 129.998 45.4876 129.699 45.6046 129.658C45.6955 129.631 46.3583 129.536 47.0731 129.44C49.3603 129.168 49.3473 129.019 47.0341 128.76C46.2284 128.665 45.5526 128.543 45.5266 128.502C45.4876 128.447 45.7345 128.053 46.0464 127.617C46.3583 127.169 46.5922 126.774 46.5533 126.733C46.5143 126.706 46.1244 126.937 45.6955 127.25C45.2537 127.577 44.8638 127.781 44.8118 127.726C44.7469 127.658 44.6429 126.842 44.5519 125.903C44.318 123.455 44.214 123.468 43.9671 125.958C43.8762 126.896 43.7722 127.713 43.7202 127.754C43.6812 127.794 43.2914 127.577 42.8495 127.264C42.4207 126.937 42.0438 126.706 42.0048 126.747C41.9788 126.774 42.1737 127.141 42.4596 127.549C42.7455 127.944 42.9795 128.352 42.9795 128.434C42.9795 128.529 42.4207 128.651 41.511 128.76C39.1847 129.019 39.1847 129.168 41.524 129.454C42.4077 129.563 42.9795 129.699 42.9795 129.781C42.9795 129.862 42.7455 130.27 42.4596 130.665C41.8488 131.522 41.7969 131.74 42.2907 131.399C42.4986 131.277 42.8755 131.005 43.1484 130.814C43.7722 130.393 43.8242 130.461 43.9411 131.93C44.1101 134.093 44.305 134.664 44.461 133.494Z" fill="#EFB85F"/>
<path d="M64.5281 89.2099L68.803 89.07L64.5281 88.9302L65.8689 87.4988L64.4374 88.8394L64.2976 84.5649L64.1577 88.8394L62.7262 87.4988L64.067 88.9302L59.7921 89.07L64.067 89.2099L62.7262 90.6412L64.1577 89.3005L64.2976 93.575L64.4374 89.3005L65.8689 90.6412L64.5281 89.2099Z" fill="#EFB85F"/>
<circle cx="39.7197" cy="93.4702" r="1" fill="#EFB85F"/>
<circle cx="60.7197" cy="106.47" r="1" fill="#EFB85F"/>
<circle cx="231.72" cy="24.4702" r="1" fill="#EFB85F"/>
<circle cx="265.72" cy="33.4702" r="1" fill="#EFB85F"/>
<circle cx="265.72" cy="33.4702" r="1" fill="#EFB85F"/>
<circle cx="267.72" cy="34.4702" r="1" fill="#EFB85F"/>
<path d="M267.774 92.2133L272.048 92.0734L267.774 91.9336L269.114 90.5022L267.683 91.8429L267.543 87.5684L267.403 91.8429L265.972 90.5022L267.312 91.9336L263.038 92.0734L267.312 92.2133L265.972 93.6446L267.403 92.3039L267.543 96.5784L267.683 92.3039L269.114 93.6446L267.774 92.2133Z" fill="#EFB85F"/>
<path d="M267.774 92.2133L272.048 92.0734L267.774 91.9336L269.114 90.5022L267.683 91.8429L267.543 87.5684L267.403 91.8429L265.972 90.5022L267.312 91.9336L263.038 92.0734L267.312 92.2133L265.972 93.6446L267.403 92.3039L267.543 96.5784L267.683 92.3039L269.114 93.6446L267.774 92.2133Z" fill="#EFB85F"/>
<path d="M229.497 123.608L230.695 125.585L233.001 126.612L230.695 127.638L229.497 129.615L228.3 127.638L225.993 126.612L228.3 125.585L229.497 123.608Z" fill="#EFB85F"/>
<path d="M108.351 25.4988L109.548 27.4757L111.855 28.5021L109.548 29.5282L108.351 31.5055L107.153 29.5282L104.847 28.5021L107.153 27.4757L108.351 25.4988Z" fill="#EFB85F"/>
<g clip-path="url(#clip1_128_13758)">
<path d="M61.4609 60.4131C61.4089 60.4131 61.3828 60.387 61.3828 60.335V60.1006C61.3828 60.0485 61.4154 60.0225 61.4805 60.0225H61.7051C62.0632 60.0225 62.3073 59.9899 62.4375 59.9248C62.9193 59.6904 63.1602 59.0459 63.1602 57.9912V47.8447C63.1602 47.4085 62.737 47.1481 61.8906 47.0635C61.7018 47.0439 61.5684 47.0342 61.4902 47.0342C61.4186 47.0342 61.3828 47.0081 61.3828 46.9561V46.7217C61.3828 46.6696 61.4089 46.6436 61.4609 46.6436H65.0352L74.3027 56.8877C74.3353 56.9202 74.3581 56.9463 74.3711 56.9658C74.3841 56.9788 74.4036 56.9854 74.4297 56.9854C74.4622 56.9854 74.4785 56.9561 74.4785 56.8975V50.1689C74.4785 48.8734 74.3711 48.027 74.1562 47.6299C73.9414 47.2327 73.5085 47.0342 72.8574 47.0342H72.3594C72.3073 47.0342 72.2812 47.0081 72.2812 46.9561V46.7217C72.2812 46.6696 72.3073 46.6436 72.3594 46.6436H77.4375C77.4896 46.6436 77.5156 46.6696 77.5156 46.7217V46.9561C77.5156 47.0081 77.418 47.0342 77.2227 47.0342C77.0339 47.0342 76.7181 47.1449 76.2754 47.3662C75.8392 47.5876 75.6211 47.861 75.6211 48.1865V60.1299C75.6211 60.2731 75.6016 60.374 75.5625 60.4326C75.5234 60.4977 75.429 60.5303 75.2793 60.5303C75.1361 60.5303 75.0286 60.501 74.957 60.4424C74.8854 60.3838 74.8008 60.2992 74.7031 60.1885L64.6348 49.0264C64.5697 48.9613 64.5111 48.9287 64.459 48.9287C64.4264 48.9287 64.4102 48.9613 64.4102 49.0264V58.7725C64.4102 59.3649 64.8789 59.7555 65.8164 59.9443C66.0768 59.9964 66.2754 60.0225 66.4121 60.0225C66.5488 60.0225 66.6172 60.0485 66.6172 60.1006V60.335C66.6172 60.387 66.5911 60.4131 66.5391 60.4131H61.4609ZM78.5508 60.4131C78.4857 60.4001 78.4531 60.3545 78.4531 60.2764C78.4531 60.1592 78.6061 60.0811 78.9121 60.042C79.6152 59.9378 79.9668 59.5667 79.9668 58.9287V53.7627C79.9668 53.4893 79.8171 53.3005 79.5176 53.1963C79.3874 53.1507 79.2474 53.1149 79.0977 53.0889C78.9479 53.0563 78.8275 53.027 78.7363 53.001C78.6517 52.9749 78.5964 52.9521 78.5703 52.9326C78.5508 52.9066 78.541 52.8577 78.541 52.7861C78.541 52.708 78.5898 52.6429 78.6875 52.5908L81.1777 51.4189C81.2559 51.3799 81.3047 51.3604 81.3242 51.3604C81.4349 51.3604 81.4902 51.4385 81.4902 51.5947V58.9287C81.4902 59.5667 81.8418 59.9378 82.5449 60.042C82.8509 60.0811 83.0039 60.1494 83.0039 60.2471C83.0039 60.3447 82.9714 60.4001 82.9062 60.4131H78.5508ZM80.582 48.6162C80.3151 48.6162 80.0775 48.5316 79.8691 48.3623C79.6673 48.193 79.5664 47.9587 79.5664 47.6592C79.5664 47.3532 79.6641 47.1123 79.8594 46.9365C80.0547 46.7607 80.2858 46.6729 80.5527 46.6729C80.8262 46.6729 81.054 46.777 81.2363 46.9854C81.4251 47.1937 81.5195 47.4183 81.5195 47.6592C81.5195 47.9001 81.4316 48.1214 81.2559 48.3232C81.0801 48.5186 80.8555 48.6162 80.582 48.6162ZM93.4043 51.624C93.4759 51.6436 93.5117 51.6891 93.5117 51.7607C93.5117 51.8324 93.502 51.8844 93.4824 51.917C93.4629 51.9495 93.3197 51.9854 93.0527 52.0244C92.7858 52.0635 92.5938 52.1416 92.4766 52.2588C92.3659 52.3695 92.265 52.4964 92.1738 52.6396C92.0892 52.7829 92.0143 52.9326 91.9492 53.0889C91.8841 53.2386 91.8223 53.3753 91.7637 53.499L89.0977 60.3936C89.0195 60.5824 88.9479 60.6768 88.8828 60.6768H88.1113C88.0462 60.6768 87.9746 60.5758 87.8965 60.374L85.3086 53.3721C85.0677 52.7145 84.6543 52.2913 84.0684 52.1025C84.0228 52.0895 83.9674 52.0798 83.9023 52.0732C83.6289 52.0472 83.4922 51.9658 83.4922 51.8291C83.4922 51.6924 83.5703 51.624 83.7266 51.624H88.0723C88.1243 51.624 88.1504 51.6761 88.1504 51.7803C88.1504 51.8779 88.1146 51.943 88.043 51.9756C87.9258 52.0212 87.7174 52.0407 87.418 52.0342C86.9297 52.0212 86.6855 52.2165 86.6855 52.6201L86.7441 52.8545L88.7266 58.2744C88.8568 58.6064 88.987 58.5967 89.1172 58.2451C89.1302 58.2126 89.2148 58.001 89.3711 57.6104C90.25 55.3643 90.7415 54.0654 90.8457 53.7139C90.9564 53.3623 91.0117 53.0986 91.0117 52.9229C91.0117 52.7471 90.9173 52.5648 90.7285 52.376C90.5397 52.1807 90.2858 52.083 89.9668 52.083C89.6478 52.083 89.4883 51.9854 89.4883 51.79C89.4883 51.6794 89.5599 51.624 89.7031 51.624H93.4043ZM95.8652 55.2666C95.7546 55.2666 95.6992 55.5042 95.6992 55.9795C95.6992 56.9886 95.9987 57.835 96.5977 58.5186C97.1966 59.2021 97.9388 59.5439 98.8242 59.5439C99.7161 59.5439 100.572 59.1598 101.393 58.3916C101.406 58.3786 101.422 58.3721 101.441 58.3721H101.49C101.529 58.3721 101.565 58.4046 101.598 58.4697C101.637 58.5283 101.673 58.5674 101.705 58.5869C100.95 59.5049 100.061 60.1396 99.0391 60.4912C98.6875 60.6149 98.2904 60.6768 97.8477 60.6768C97.4049 60.6768 96.9557 60.5563 96.5 60.3154C96.0443 60.068 95.6536 59.7458 95.3281 59.3486C94.638 58.5218 94.293 57.4932 94.293 56.2627C94.293 55.0257 94.6673 53.8994 95.416 52.8838C96.1712 51.8682 97.2064 51.3604 98.5215 51.3604C99.4655 51.3604 100.237 51.7835 100.836 52.6299C101.435 53.4697 101.734 54.2087 101.734 54.8467C101.734 55.1266 101.666 55.2666 101.529 55.2666H95.8652ZM95.9727 54.3291C95.9727 54.4528 96.0312 54.5146 96.1484 54.5146H99.8301C99.9993 54.5146 100.084 54.4137 100.084 54.2119C100.084 53.7432 99.8724 53.2646 99.4492 52.7764C99.0326 52.2816 98.5736 52.0342 98.0723 52.0342C97.584 52.0342 97.138 52.2555 96.7344 52.6982C96.3372 53.141 96.0833 53.6455 95.9727 54.2119V54.3291ZM109.41 58.8018C109.41 58.971 109.488 59.1077 109.645 59.2119C109.807 59.3096 109.993 59.3584 110.201 59.3584C110.41 59.3584 110.582 59.3063 110.719 59.2021C110.862 59.0915 110.96 59.0361 111.012 59.0361C111.064 59.0361 111.09 59.1077 111.09 59.251C111.09 59.3877 111.025 59.5049 110.895 59.6025C109.918 60.3187 109.257 60.6768 108.912 60.6768C108.495 60.6768 108.157 60.2438 107.896 59.3779C107.877 59.3128 107.861 59.2835 107.848 59.29C107.04 59.8955 106.533 60.2601 106.324 60.3838C105.79 60.6898 105.253 60.7386 104.713 60.5303C104.179 60.3219 103.792 59.9769 103.551 59.4951C103.434 59.2477 103.375 58.984 103.375 58.7041C103.375 58.1507 103.58 57.7113 103.99 57.3857C104.4 57.0602 105.182 56.7477 106.334 56.4482C106.725 56.3441 107.073 56.2106 107.379 56.0479C107.685 55.8851 107.844 55.7809 107.857 55.7354C107.877 55.6898 107.887 55.6475 107.887 55.6084V53.7334C107.887 52.9977 107.6 52.4801 107.027 52.1807C106.839 52.083 106.611 52.0342 106.344 52.0342C106.083 52.0342 105.816 52.1383 105.543 52.3467C105.276 52.555 105.143 52.8512 105.143 53.2354L105.191 53.6162C105.152 53.6943 104.918 53.8245 104.488 54.0068C104.059 54.1891 103.811 54.2868 103.746 54.2998C103.642 54.2998 103.59 54.1761 103.59 53.9287C103.59 53.6748 103.665 53.3949 103.814 53.0889C103.964 52.7829 104.176 52.5029 104.449 52.249C105.087 51.6566 105.816 51.3604 106.637 51.3604C107.457 51.3604 108.124 51.5882 108.639 52.0439C109.153 52.4932 109.41 53.0303 109.41 53.6553V58.8018ZM104.908 58.5186C104.908 58.8311 105.029 59.1045 105.27 59.3389C105.51 59.5667 105.784 59.6807 106.09 59.6807C106.402 59.6807 106.78 59.5505 107.223 59.29C107.665 59.0231 107.887 58.7497 107.887 58.4697V56.4873C107.887 56.4157 107.87 56.3799 107.838 56.3799C107.805 56.3799 107.783 56.3831 107.77 56.3896L105.504 57.4443C105.27 57.6136 105.11 57.7568 105.025 57.874C104.947 57.9912 104.908 58.2061 104.908 58.5186ZM118.707 59.5537C118.674 59.443 118.632 59.4072 118.58 59.4463C118.528 59.4788 118.316 59.5895 117.945 59.7783C116.728 60.3838 115.712 60.6865 114.898 60.6865C114.085 60.6865 113.499 60.4261 113.141 59.9053C113.01 59.71 112.945 59.4691 112.945 59.1826V53.2256C112.926 53.0368 112.841 52.874 112.691 52.7373C112.49 52.568 112.278 52.4769 112.057 52.4639C111.842 52.4508 111.734 52.3857 111.734 52.2686C111.734 52.1449 111.786 52.07 111.891 52.0439L114.127 51.3994C114.205 51.3734 114.28 51.3604 114.352 51.3604C114.43 51.3604 114.469 51.4157 114.469 51.5264V58.0791C114.469 58.5348 114.671 58.8864 115.074 59.1338C115.478 59.3812 115.992 59.5049 116.617 59.5049C117.249 59.5049 117.815 59.3128 118.316 58.9287C118.473 58.805 118.603 58.6683 118.707 58.5186V53.2256C118.688 53.0368 118.603 52.874 118.453 52.7373C118.251 52.568 118.04 52.4769 117.818 52.4639C117.604 52.4508 117.496 52.3857 117.496 52.2686C117.496 52.1449 117.548 52.07 117.652 52.0439L119.889 51.3994C119.967 51.3734 120.042 51.3604 120.113 51.3604C120.191 51.3604 120.23 51.4255 120.23 51.5557V58.4893C120.263 58.7757 120.344 58.9808 120.475 59.1045C120.605 59.2282 120.816 59.29 121.109 59.29L121.676 59.251C121.715 59.251 121.734 59.29 121.734 59.3682C121.734 59.4398 121.686 59.4984 121.588 59.5439L118.99 60.6182C118.912 60.6572 118.844 60.6768 118.785 60.6768C118.733 60.6768 118.707 60.5954 118.707 60.4326V59.5537ZM134.4 51.7705C134.687 51.8682 134.863 51.917 134.928 51.917C134.993 51.917 135.032 51.917 135.045 51.917C135.064 51.9105 135.087 51.8682 135.113 51.79V46.751C135.113 46.4775 134.964 46.2887 134.664 46.1846C134.534 46.139 134.394 46.1032 134.244 46.0771C134.094 46.0446 133.974 46.0153 133.883 45.9893C133.798 45.9632 133.743 45.9404 133.717 45.9209C133.697 45.8949 133.688 45.846 133.688 45.7744C133.688 45.6963 133.736 45.6312 133.834 45.5791L136.324 44.4072C136.402 44.3682 136.451 44.3486 136.471 44.3486C136.581 44.3486 136.637 44.4268 136.637 44.583V58.4893C136.669 58.7757 136.751 58.9808 136.881 59.1045C137.011 59.2282 137.223 59.29 137.516 59.29L138.082 59.251C138.121 59.251 138.141 59.29 138.141 59.3682C138.141 59.4398 138.092 59.4984 137.994 59.5439L135.396 60.6182C135.318 60.6572 135.25 60.6768 135.191 60.6768C135.139 60.6768 135.113 60.5954 135.113 60.4326V59.5439C135.113 59.4788 135.097 59.4463 135.064 59.4463C135.019 59.4463 134.749 59.5928 134.254 59.8857C132.737 60.7842 131.458 60.9176 130.416 60.2861C129.583 59.7783 129.02 58.9743 128.727 57.874C128.59 57.3597 128.521 56.8161 128.521 56.2432C128.521 55.6637 128.639 55.0908 128.873 54.5244C129.114 53.9515 129.443 53.4502 129.859 53.0205C130.777 52.083 131.884 51.6143 133.18 51.6143C133.707 51.6143 134.114 51.6663 134.4 51.7705ZM129.996 55.96C129.996 56.943 130.27 57.8057 130.816 58.5479C131.363 59.2835 132.125 59.6514 133.102 59.6514C133.531 59.6514 133.974 59.5472 134.43 59.3389C134.885 59.124 135.113 58.9613 135.113 58.8506V53.8115C135.113 53.6878 135.029 53.5413 134.859 53.3721C134.339 52.6559 133.645 52.2979 132.779 52.2979C131.92 52.2979 131.24 52.6624 130.738 53.3916C130.243 54.1143 129.996 54.9704 129.996 55.96ZM140.592 55.2666C140.481 55.2666 140.426 55.5042 140.426 55.9795C140.426 56.9886 140.725 57.835 141.324 58.5186C141.923 59.2021 142.665 59.5439 143.551 59.5439C144.443 59.5439 145.299 59.1598 146.119 58.3916C146.132 58.3786 146.148 58.3721 146.168 58.3721H146.217C146.256 58.3721 146.292 58.4046 146.324 58.4697C146.363 58.5283 146.399 58.5674 146.432 58.5869C145.676 59.5049 144.788 60.1396 143.766 60.4912C143.414 60.6149 143.017 60.6768 142.574 60.6768C142.132 60.6768 141.682 60.5563 141.227 60.3154C140.771 60.068 140.38 59.7458 140.055 59.3486C139.365 58.5218 139.02 57.4932 139.02 56.2627C139.02 55.0257 139.394 53.8994 140.143 52.8838C140.898 51.8682 141.933 51.3604 143.248 51.3604C144.192 51.3604 144.964 51.7835 145.562 52.6299C146.161 53.4697 146.461 54.2087 146.461 54.8467C146.461 55.1266 146.393 55.2666 146.256 55.2666H140.592ZM140.699 54.3291C140.699 54.4528 140.758 54.5146 140.875 54.5146H144.557C144.726 54.5146 144.811 54.4137 144.811 54.2119C144.811 53.7432 144.599 53.2646 144.176 52.7764C143.759 52.2816 143.3 52.0342 142.799 52.0342C142.311 52.0342 141.865 52.2555 141.461 52.6982C141.064 53.141 140.81 53.6455 140.699 54.2119V54.3291ZM159.41 53.4111C159.332 53.3981 159.218 53.3558 159.068 53.2842C158.528 53.0368 158.105 52.9131 157.799 52.9131C157.493 52.9131 157.171 53.1051 156.832 53.4893C156.5 53.8669 156.334 54.2087 156.334 54.5146V58.9287C156.334 59.417 156.617 59.7425 157.184 59.9053C157.431 59.9704 157.662 60.0192 157.877 60.0518C158.092 60.0778 158.229 60.1038 158.287 60.1299C158.352 60.1559 158.385 60.208 158.385 60.2861C158.385 60.3577 158.352 60.4001 158.287 60.4131H153.395C153.329 60.4001 153.297 60.3545 153.297 60.2764C153.297 60.1592 153.45 60.0811 153.756 60.042C154.459 59.9378 154.811 59.5667 154.811 58.9287V53.7627C154.811 53.4893 154.661 53.3005 154.361 53.1963C154.231 53.1507 154.091 53.1149 153.941 53.0889C153.792 53.0563 153.671 53.027 153.58 53.001C153.495 52.9749 153.44 52.9521 153.414 52.9326C153.395 52.9066 153.385 52.8577 153.385 52.7861C153.385 52.708 153.434 52.6429 153.531 52.5908L156.021 51.4189C156.1 51.3799 156.148 51.3604 156.168 51.3604C156.279 51.3604 156.334 51.4385 156.334 51.5947V53.1768C156.334 53.2549 156.354 53.2939 156.393 53.2939C156.445 53.2939 156.578 53.141 156.793 52.835C157.411 51.9691 157.923 51.5361 158.326 51.5361C158.554 51.5361 158.902 51.6273 159.371 51.8096C159.846 51.9919 160.084 52.1449 160.084 52.2686C160.084 52.4183 160.009 52.6462 159.859 52.9521C159.71 53.2581 159.56 53.4111 159.41 53.4111ZM162.35 55.2666C162.239 55.2666 162.184 55.5042 162.184 55.9795C162.184 56.9886 162.483 57.835 163.082 58.5186C163.681 59.2021 164.423 59.5439 165.309 59.5439C166.201 59.5439 167.057 59.1598 167.877 58.3916C167.89 58.3786 167.906 58.3721 167.926 58.3721H167.975C168.014 58.3721 168.049 58.4046 168.082 58.4697C168.121 58.5283 168.157 58.5674 168.189 58.5869C167.434 59.5049 166.546 60.1396 165.523 60.4912C165.172 60.6149 164.775 60.6768 164.332 60.6768C163.889 60.6768 163.44 60.5563 162.984 60.3154C162.529 60.068 162.138 59.7458 161.812 59.3486C161.122 58.5218 160.777 57.4932 160.777 56.2627C160.777 55.0257 161.152 53.8994 161.9 52.8838C162.656 51.8682 163.691 51.3604 165.006 51.3604C165.95 51.3604 166.721 51.7835 167.32 52.6299C167.919 53.4697 168.219 54.2087 168.219 54.8467C168.219 55.1266 168.15 55.2666 168.014 55.2666H162.35ZM162.457 54.3291C162.457 54.4528 162.516 54.5146 162.633 54.5146H166.314C166.484 54.5146 166.568 54.4137 166.568 54.2119C166.568 53.7432 166.357 53.2646 165.934 52.7764C165.517 52.2816 165.058 52.0342 164.557 52.0342C164.068 52.0342 163.622 52.2555 163.219 52.6982C162.822 53.141 162.568 53.6455 162.457 54.2119V54.3291ZM163.629 49.71C163.603 49.6839 163.59 49.6644 163.59 49.6514C163.59 49.6383 163.603 49.6188 163.629 49.5928L165.709 46.7119C165.943 46.3929 166.174 46.2334 166.402 46.2334C166.63 46.2334 166.809 46.3083 166.939 46.458C167.076 46.6012 167.145 46.7965 167.145 47.0439C167.145 47.2913 166.965 47.568 166.607 47.874L163.98 49.9932C163.948 50.0127 163.922 50.0225 163.902 50.0225C163.883 50.0225 163.863 50.0127 163.844 49.9932L163.629 49.71ZM174.596 53.7334C174.596 53.8766 174.54 53.9482 174.43 53.9482C174.326 53.9482 174.244 53.8701 174.186 53.7139C174.029 53.2842 173.795 52.9033 173.482 52.5713C173.176 52.2393 172.796 52.0732 172.34 52.0732C171.741 52.0732 171.337 52.3727 171.129 52.9717C171.064 53.1735 171.031 53.3818 171.031 53.5967C171.031 53.8115 171.168 54.0524 171.441 54.3193C171.715 54.5798 172.164 54.8923 172.789 55.2568C173.414 55.6214 173.87 55.9307 174.156 56.1846C174.807 56.764 175.133 57.4346 175.133 58.1963C175.133 58.958 174.853 59.5635 174.293 60.0127C173.733 60.4554 173.082 60.6768 172.34 60.6768C171.943 60.6768 171.581 60.6214 171.256 60.5107C170.937 60.4066 170.751 60.3545 170.699 60.3545C170.654 60.3545 170.576 60.4066 170.465 60.5107C170.361 60.6214 170.276 60.6768 170.211 60.6768H170.045C170.006 60.6768 169.957 60.3252 169.898 59.6221C169.84 58.9189 169.811 58.5023 169.811 58.3721C169.811 58.2419 169.82 58.1702 169.84 58.1572C169.866 58.1442 169.905 58.1377 169.957 58.1377C170.009 58.1377 170.051 58.154 170.084 58.1865C170.123 58.2191 170.156 58.2614 170.182 58.3135C170.208 58.359 170.227 58.4079 170.24 58.46C170.26 58.512 170.302 58.6097 170.367 58.7529C170.81 59.6969 171.493 60.1689 172.418 60.1689C172.828 60.1689 173.157 60.0192 173.404 59.7197C173.652 59.4137 173.775 59.0752 173.775 58.7041C173.775 58.333 173.678 58.0205 173.482 57.7666C173.287 57.5127 173.043 57.2816 172.75 57.0732C172.464 56.8649 172.151 56.6631 171.812 56.4678C170.497 55.6995 169.84 54.8499 169.84 53.9189C169.84 53.2223 170.139 52.6234 170.738 52.1221C171.337 51.6143 171.952 51.3604 172.584 51.3604C173.215 51.3604 173.681 51.4287 173.98 51.5654C174.286 51.7021 174.465 51.8193 174.518 51.917C174.57 52.0081 174.596 52.3141 174.596 52.835V53.7334ZM176.607 56.0283C176.607 54.7458 177.06 53.6455 177.965 52.7275C178.876 51.8031 179.967 51.3408 181.236 51.3408C182.506 51.3408 183.609 51.79 184.547 52.6885C185.484 53.5804 185.953 54.6839 185.953 55.999C185.953 57.3141 185.507 58.4242 184.615 59.3291C183.73 60.2275 182.617 60.6768 181.275 60.6768C179.934 60.6768 178.821 60.221 177.936 59.3096C177.05 58.3981 176.607 57.3044 176.607 56.0283ZM179.039 58.5381C179.677 59.6123 180.546 60.1494 181.646 60.1494C182.499 60.1494 183.15 59.8076 183.6 59.124C184.055 58.4404 184.283 57.6006 184.283 56.6045C184.283 55.6084 183.964 54.5863 183.326 53.5381C182.695 52.4899 181.842 51.9658 180.768 51.9658C179.98 51.9658 179.358 52.3076 178.902 52.9912C178.453 53.6683 178.229 54.5309 178.229 55.5791C178.229 56.6208 178.499 57.6071 179.039 58.5381ZM194.547 57.3369L194.527 55.2764C194.527 54.4365 194.456 53.8473 194.312 53.5088C194.169 53.1702 193.987 52.9163 193.766 52.7471C193.544 52.5713 193.245 52.4834 192.867 52.4834C192.496 52.4834 191.705 52.7764 190.494 53.3623C190.331 53.46 190.247 53.5511 190.24 53.6357V58.8896C190.24 59.5472 190.592 59.9248 191.295 60.0225C191.601 60.068 191.754 60.1429 191.754 60.2471C191.754 60.3447 191.721 60.4001 191.656 60.4131H187.301C187.236 60.4001 187.203 60.3545 187.203 60.2764C187.203 60.1527 187.356 60.068 187.662 60.0225C188.365 59.9248 188.717 59.5472 188.717 58.8896V53.2842C188.717 53.0107 188.567 52.8219 188.268 52.7178C188.137 52.6722 187.997 52.6364 187.848 52.6104C187.698 52.5778 187.577 52.5485 187.486 52.5225C187.402 52.4964 187.346 52.4736 187.32 52.4541C187.301 52.4281 187.291 52.3792 187.291 52.3076C187.291 52.2295 187.34 52.1644 187.438 52.1123L189.928 50.9404C190.006 50.9014 190.055 50.8818 190.074 50.8818C190.185 50.8818 190.24 50.96 190.24 51.1162V52.6396C190.26 52.7048 190.286 52.7373 190.318 52.7373C190.357 52.7373 190.497 52.6787 190.738 52.5615C191.298 52.2816 191.861 52.0114 192.428 51.751C192.994 51.4906 193.463 51.3604 193.834 51.3604C195.338 51.3604 196.09 52.7308 196.09 55.4717L196.002 58.3232V58.8896C196.002 59.3975 196.256 59.7295 196.764 59.8857C196.979 59.9574 197.184 60.0094 197.379 60.042C197.581 60.068 197.711 60.0941 197.77 60.1201C197.835 60.1462 197.867 60.1982 197.867 60.2764C197.867 60.3545 197.835 60.4001 197.77 60.4131H193.062C192.997 60.4001 192.965 60.3545 192.965 60.2764C192.965 60.1527 193.118 60.068 193.424 60.0225C194.12 59.9248 194.469 59.5212 194.469 58.8115C194.521 58.486 194.547 57.9945 194.547 57.3369ZM204.781 58.8018C204.781 58.971 204.859 59.1077 205.016 59.2119C205.178 59.3096 205.364 59.3584 205.572 59.3584C205.781 59.3584 205.953 59.3063 206.09 59.2021C206.233 59.0915 206.331 59.0361 206.383 59.0361C206.435 59.0361 206.461 59.1077 206.461 59.251C206.461 59.3877 206.396 59.5049 206.266 59.6025C205.289 60.3187 204.628 60.6768 204.283 60.6768C203.867 60.6768 203.528 60.2438 203.268 59.3779C203.248 59.3128 203.232 59.2835 203.219 59.29C202.411 59.8955 201.904 60.2601 201.695 60.3838C201.161 60.6898 200.624 60.7386 200.084 60.5303C199.55 60.3219 199.163 59.9769 198.922 59.4951C198.805 59.2477 198.746 58.984 198.746 58.7041C198.746 58.1507 198.951 57.7113 199.361 57.3857C199.771 57.0602 200.553 56.7477 201.705 56.4482C202.096 56.3441 202.444 56.2106 202.75 56.0479C203.056 55.8851 203.215 55.7809 203.229 55.7354C203.248 55.6898 203.258 55.6475 203.258 55.6084V53.7334C203.258 52.9977 202.971 52.4801 202.398 52.1807C202.21 52.083 201.982 52.0342 201.715 52.0342C201.454 52.0342 201.188 52.1383 200.914 52.3467C200.647 52.555 200.514 52.8512 200.514 53.2354L200.562 53.6162C200.523 53.6943 200.289 53.8245 199.859 54.0068C199.43 54.1891 199.182 54.2868 199.117 54.2998C199.013 54.2998 198.961 54.1761 198.961 53.9287C198.961 53.6748 199.036 53.3949 199.186 53.0889C199.335 52.7829 199.547 52.5029 199.82 52.249C200.458 51.6566 201.188 51.3604 202.008 51.3604C202.828 51.3604 203.495 51.5882 204.01 52.0439C204.524 52.4932 204.781 53.0303 204.781 53.6553V58.8018ZM200.279 58.5186C200.279 58.8311 200.4 59.1045 200.641 59.3389C200.882 59.5667 201.155 59.6807 201.461 59.6807C201.773 59.6807 202.151 59.5505 202.594 59.29C203.036 59.0231 203.258 58.7497 203.258 58.4697V56.4873C203.258 56.4157 203.242 56.3799 203.209 56.3799C203.176 56.3799 203.154 56.3831 203.141 56.3896L200.875 57.4443C200.641 57.6136 200.481 57.7568 200.396 57.874C200.318 57.9912 200.279 58.2061 200.279 58.5186ZM214.566 57.3369L214.547 55.2764C214.547 54.4365 214.475 53.8473 214.332 53.5088C214.189 53.1702 214.007 52.9163 213.785 52.7471C213.564 52.5713 213.264 52.4834 212.887 52.4834C212.516 52.4834 211.725 52.7764 210.514 53.3623C210.351 53.46 210.266 53.5511 210.26 53.6357V58.8896C210.26 59.5472 210.611 59.9248 211.314 60.0225C211.62 60.068 211.773 60.1429 211.773 60.2471C211.773 60.3447 211.741 60.4001 211.676 60.4131H207.32C207.255 60.4001 207.223 60.3545 207.223 60.2764C207.223 60.1527 207.376 60.068 207.682 60.0225C208.385 59.9248 208.736 59.5472 208.736 58.8896V53.2842C208.736 53.0107 208.587 52.8219 208.287 52.7178C208.157 52.6722 208.017 52.6364 207.867 52.6104C207.717 52.5778 207.597 52.5485 207.506 52.5225C207.421 52.4964 207.366 52.4736 207.34 52.4541C207.32 52.4281 207.311 52.3792 207.311 52.3076C207.311 52.2295 207.359 52.1644 207.457 52.1123L209.947 50.9404C210.025 50.9014 210.074 50.8818 210.094 50.8818C210.204 50.8818 210.26 50.96 210.26 51.1162V52.6396C210.279 52.7048 210.305 52.7373 210.338 52.7373C210.377 52.7373 210.517 52.6787 210.758 52.5615C211.318 52.2816 211.881 52.0114 212.447 51.751C213.014 51.4906 213.482 51.3604 213.854 51.3604C215.357 51.3604 216.109 52.7308 216.109 55.4717L216.021 58.3232V58.8896C216.021 59.3975 216.275 59.7295 216.783 59.8857C216.998 59.9574 217.203 60.0094 217.398 60.042C217.6 60.068 217.73 60.0941 217.789 60.1201C217.854 60.1462 217.887 60.1982 217.887 60.2764C217.887 60.3545 217.854 60.4001 217.789 60.4131H213.082C213.017 60.4001 212.984 60.3545 212.984 60.2764C212.984 60.1527 213.137 60.068 213.443 60.0225C214.14 59.9248 214.488 59.5212 214.488 58.8115C214.54 58.486 214.566 57.9945 214.566 57.3369ZM226.432 52.5322C226.432 52.988 226.168 53.2158 225.641 53.2158C225.374 53.2158 225.146 53.141 224.957 52.9912C224.775 52.835 224.632 52.7048 224.527 52.6006C224.43 52.4899 224.326 52.389 224.215 52.2979C223.746 51.9137 223.173 51.8714 222.496 52.1709C221.826 52.4704 221.308 53.1084 220.943 54.085C220.742 54.6253 220.641 55.1624 220.641 55.6963C220.641 56.8421 220.901 57.7796 221.422 58.5088C221.943 59.2314 222.74 59.5928 223.814 59.5928C224.615 59.5928 225.335 59.2347 225.973 58.5186C226.168 58.3037 226.285 58.1963 226.324 58.1963C226.363 58.1963 226.406 58.2158 226.451 58.2549C226.497 58.2939 226.52 58.3525 226.52 58.4307C226.52 58.5023 226.5 58.5576 226.461 58.5967C225.465 59.9834 224.212 60.6768 222.701 60.6768C221.607 60.6768 220.709 60.2699 220.006 59.4561C219.309 58.6423 218.961 57.7113 218.961 56.6631C218.967 54.723 219.436 53.3265 220.367 52.4736C221.188 51.7249 222.356 51.3506 223.873 51.3506C224.811 51.3506 225.432 51.445 225.738 51.6338C226.044 51.8226 226.259 52.0602 226.383 52.3467C226.415 52.4118 226.432 52.4736 226.432 52.5322ZM229.459 55.2666C229.348 55.2666 229.293 55.5042 229.293 55.9795C229.293 56.9886 229.592 57.835 230.191 58.5186C230.79 59.2021 231.533 59.5439 232.418 59.5439C233.31 59.5439 234.166 59.1598 234.986 58.3916C234.999 58.3786 235.016 58.3721 235.035 58.3721H235.084C235.123 58.3721 235.159 58.4046 235.191 58.4697C235.23 58.5283 235.266 58.5674 235.299 58.5869C234.544 59.5049 233.655 60.1396 232.633 60.4912C232.281 60.6149 231.884 60.6768 231.441 60.6768C230.999 60.6768 230.549 60.5563 230.094 60.3154C229.638 60.068 229.247 59.7458 228.922 59.3486C228.232 58.5218 227.887 57.4932 227.887 56.2627C227.887 55.0257 228.261 53.8994 229.01 52.8838C229.765 51.8682 230.8 51.3604 232.115 51.3604C233.059 51.3604 233.831 51.7835 234.43 52.6299C235.029 53.4697 235.328 54.2087 235.328 54.8467C235.328 55.1266 235.26 55.2666 235.123 55.2666H229.459ZM229.566 54.3291C229.566 54.4528 229.625 54.5146 229.742 54.5146H233.424C233.593 54.5146 233.678 54.4137 233.678 54.2119C233.678 53.7432 233.466 53.2646 233.043 52.7764C232.626 52.2816 232.167 52.0342 231.666 52.0342C231.178 52.0342 230.732 52.2555 230.328 52.6982C229.931 53.141 229.677 53.6455 229.566 54.2119V54.3291Z" fill="#EFB85F"/>
<path d="M140.786 117.861C130.037 119.304 125.01 120.8 117.577 124.755C104.26 131.756 93.511 143.834 87.3074 158.692C86.1843 161.417 84.6334 166.655 84.6334 167.777C84.6334 168.365 84.2591 169.808 83.8312 170.984C82.7617 174.03 82.7617 191.987 83.8312 195.033C84.2591 196.209 84.6334 197.652 84.6334 198.24C84.6334 199.416 86.4517 205.348 87.2539 206.898C87.5213 207.432 88.163 208.928 88.6978 210.265C91.2114 216.464 96.8267 224.534 102.602 230.306C104.474 232.176 106.025 233.833 106.025 233.993C106.025 234.1 105.169 234.528 104.153 234.848C99.6611 236.345 98.3241 241.208 101.265 245.27L102.977 247.621L101.747 251.523C101.052 253.661 99.875 257.455 99.0728 259.967C98.2706 262.479 97.308 265.578 96.9336 266.861C96.2919 268.785 95.8106 269.319 93.9923 270.121C92.7622 270.656 91.2114 271.724 90.6231 272.526C88.5909 275.091 89.2861 279.527 92.0135 281.718C92.7088 282.253 104.795 282.413 148.594 282.413H204.32L205.71 280.756C207.528 278.619 207.903 276.908 207.154 274.397C206.512 272.259 204.748 270.656 202.074 269.747C200.79 269.373 200.362 268.732 199.453 265.846C198.865 263.922 198.116 261.517 197.742 260.501C196.779 258.043 193.731 247.996 193.731 247.515C193.731 247.301 194.48 246.125 195.335 244.896C196.244 243.613 196.94 242.01 196.94 241.101C196.94 238.696 195.068 236.131 192.661 235.169C191.485 234.688 190.522 234.154 190.522 233.886C190.522 233.673 192.019 232.069 193.784 230.306C200.469 223.786 207.101 213.685 210.042 205.455C212.288 199.148 214.053 189.368 214.053 183.008C214.053 175.526 211.272 161.898 208.758 156.981C208.491 156.447 207.742 154.844 207.047 153.454C200.95 141.055 189.452 129.672 177.152 123.847C171.644 121.228 166.51 119.464 162.446 118.769C161.002 118.502 158.595 118.075 157.098 117.807C153.942 117.273 144.904 117.273 140.786 117.861ZM160.039 121.549C164.371 122.457 168.649 123.686 170.307 124.541C171.056 124.969 171.965 125.29 172.286 125.29C172.607 125.29 174.478 126.091 176.457 127.053C188.062 132.665 198.17 142.766 204.373 155.058C210.844 167.937 212.395 182.421 208.919 198.24C206.566 208.822 200.63 218.976 191.271 228.221C186.672 232.818 184.853 234.261 183.463 234.474C182.5 234.635 166.296 234.795 147.418 234.848L113.138 234.902L110.517 232.925C103.351 227.58 95.7036 218.228 92.067 210.265C90.2487 206.31 89.5535 204.6 89.2326 202.943C89.0187 201.981 88.5909 201.072 88.3235 200.912C88.0561 200.698 87.8422 199.95 87.8422 199.148C87.8422 198.347 87.4678 196.476 86.9865 195.033C85.81 191.239 85.81 175.419 86.9865 171.091C87.4678 169.38 87.8422 167.403 87.8422 166.708C87.8422 166.013 88.0561 165.319 88.3235 165.105C88.5909 164.945 89.0187 164.036 89.2326 163.074C89.3931 162.165 89.9279 160.509 90.4092 159.493C96.7197 144.85 106.934 133.68 119.769 127.481C122.336 126.198 125.171 124.862 125.973 124.434C126.828 124.007 127.898 123.686 128.326 123.686C128.754 123.686 130.251 123.312 131.642 122.885C138.861 120.587 152.445 119.945 160.039 121.549ZM192.34 238.643C193.891 239.872 194.105 241.582 192.982 243.186C192.233 244.201 191.164 244.201 148.274 244.201C105.383 244.201 104.314 244.201 103.565 243.186C102.495 241.636 102.656 240.3 104.153 238.857L105.437 237.521H148.167C190.576 237.521 190.896 237.521 192.34 238.643ZM191.057 249.813C192.447 253.554 193.249 255.798 193.731 257.562C193.998 258.417 194.693 260.822 195.335 262.906C196.993 268.411 197.153 269.106 196.512 269.533C196.244 269.694 191.966 269.8 187.099 269.694C179.291 269.533 178.115 269.426 177.794 268.625C176.511 265.258 172.82 261.356 168.916 259.272C166.777 258.15 166.243 258.096 148.541 258.096H130.358L127.684 259.486C124.475 261.196 122.711 262.853 120.197 266.701C119.127 268.304 118.004 269.587 117.63 269.587C114.314 269.747 99.875 269.48 99.6611 269.319C99.4471 269.052 99.8215 267.609 101.479 262.372C101.854 261.196 102.602 258.791 103.084 257.027C103.619 255.264 104.367 253.019 104.742 252.057C105.169 251.095 105.49 249.866 105.49 249.278C105.49 248.744 105.918 247.996 106.453 247.728C107.041 247.354 121.32 247.194 148.755 247.301L190.201 247.408L191.057 249.813ZM168.275 262.105C172.125 264.082 176.243 269.587 173.837 269.587C173.462 269.587 162.178 269.694 148.808 269.8C135.439 269.961 123.941 269.907 123.299 269.747C121.427 269.319 121.801 268.251 124.957 265.097C129.342 260.662 129.93 260.501 149.343 260.662C165.547 260.769 165.654 260.769 168.275 262.105ZM203.838 274.183C205.229 275.946 205.229 276.588 203.945 278.191L202.929 279.474L149.022 279.634C89.3931 279.794 92.6553 279.955 92.6553 276.427C92.6553 275.519 93.0296 274.29 93.5644 273.755C94.3666 272.847 96.7732 272.793 148.594 272.793H202.769L203.838 274.183Z" fill="#EFB85F"/>
<path d="M113.887 147.575C112.122 147.843 111.052 149.499 112.068 150.301C112.496 150.675 113.459 150.729 114.849 150.408C116.026 150.141 118.807 149.874 120.999 149.874C129.021 149.874 135.76 151.477 143.086 155.164L146.937 157.088L147.097 165.746C147.204 172.373 147.418 174.458 147.899 174.458C149.611 174.458 149.878 173.175 149.878 165.372C149.878 156.501 149.664 156.928 154.691 154.577C159.344 152.385 163.569 151.156 170.04 150.141C175.655 149.286 176.19 149.286 180.094 150.141C183.142 150.782 184.372 150.889 184.8 150.461C185.709 149.553 184.586 148.11 182.447 147.575C179.506 146.774 165.013 147.469 161.911 148.537C155.6 150.729 153.729 151.584 149.343 154.042C148.113 154.737 147.792 154.683 145.065 152.866C143.461 151.798 141.856 150.942 141.535 150.942C141.161 150.942 140.198 150.622 139.343 150.194C135.492 148.217 131.909 147.629 123.673 147.469C119.128 147.362 114.742 147.415 113.887 147.575Z" fill="#EFB85F"/>
<path d="M182.875 153.935C182.126 154.683 182.5 157.89 183.302 158.21C184.639 158.745 185.763 157.355 185.602 155.538C185.495 154.363 185.121 153.828 184.372 153.721C183.73 153.614 183.089 153.721 182.875 153.935Z" fill="#EFB85F"/>
<path d="M110.678 154.523C109.983 155.164 110.304 157.73 111.106 158.424C112.496 159.547 113.512 158.638 113.512 156.287C113.512 154.416 113.352 154.149 112.282 154.149C111.587 154.149 110.838 154.309 110.678 154.523Z" fill="#EFB85F"/>
<path d="M183.195 160.936C182.661 161.15 182.5 165.8 182.5 181.672V202.141L181.163 202.462C180.414 202.676 179.559 202.676 179.291 202.515C178.489 202.034 167.045 203.21 163.515 204.119C159.825 205.081 155.867 206.898 152.873 208.929C150.947 210.211 150.734 210.265 149.557 209.463C147.953 208.448 147.204 208.822 147.204 210.585C147.204 212.028 146.081 212.295 145.065 211.066C143.674 209.409 139.61 207.058 138.112 207.058C136.134 207.058 135.599 207.913 137.096 208.661C138.968 209.677 137.524 210.425 135.118 209.73C133.781 209.356 128.807 209.196 120.999 209.303C109.127 209.463 108.966 209.463 108.806 210.639C108.699 211.387 108.966 211.868 109.608 212.082C110.143 212.242 114.796 212.349 119.93 212.295C131.214 212.189 136.348 212.883 141.642 215.395C146.776 217.8 149.717 217.854 154.103 215.609C159.237 212.99 163.355 212.295 176.083 211.921L187.581 211.601V210.371V209.142L178.222 208.929C169.665 208.768 165.066 209.035 160.092 210.051C158.702 210.318 158.328 210.265 158.541 209.677C158.702 209.249 159.237 208.822 159.825 208.715C160.36 208.608 161.162 208.287 161.59 207.967C163.355 206.524 169.451 205.508 176.724 205.508C182.661 205.455 184.211 205.294 184.853 204.6C185.602 203.851 185.709 201.286 185.602 182.314C185.441 159.707 185.441 159.974 183.195 160.936Z" fill="#EFB85F"/>
<path d="M110.945 161.738C109.982 162.7 110.036 204.012 110.999 204.813C111.319 205.08 115.116 205.455 119.395 205.615C123.673 205.722 128.379 206.149 129.877 206.523C133.246 207.378 134.636 207.004 133.888 205.508C133.192 204.225 128.165 203.317 119.662 202.836L113.779 202.515L113.512 181.939C113.298 164.089 113.138 161.364 112.442 161.203C111.961 161.15 111.319 161.364 110.945 161.738Z" fill="#EFB85F"/>
<path d="M168.649 168.365C166.67 170.022 166.563 171.197 168.328 173.068C169.986 174.885 171.911 174.885 173.355 173.068C174.853 171.144 174.746 169.968 173.034 168.311C171.163 166.655 170.681 166.655 168.649 168.365Z" fill="#EFB85F"/>
<path d="M121.106 168.686C120.037 169.755 120.357 171.572 121.801 172.32C122.978 172.961 123.245 172.908 124.208 172.053C125.491 170.877 125.545 170.022 124.422 168.9C123.459 167.884 122.015 167.777 121.106 168.686Z" fill="#EFB85F"/>
<path d="M99.1799 171.892C98.3778 172.694 99.3404 174.458 100.677 174.458C101.693 174.458 102.603 172.747 102.014 171.785C101.586 171.037 99.9821 171.091 99.1799 171.892Z" fill="#EFB85F"/>
<path d="M128.059 173.228C128.166 174.457 128.487 174.778 129.984 174.885C132.123 175.099 132.337 173.923 130.358 172.64C128.487 171.411 127.845 171.571 128.059 173.228Z" fill="#EFB85F"/>
<path d="M161.858 172.587C161.644 173.015 161.697 173.763 161.858 174.19C162.125 174.885 162.392 174.939 163.355 174.404C165.708 173.175 165.762 171.785 163.462 171.785C162.713 171.785 162.018 172.16 161.858 172.587Z" fill="#EFB85F"/>
<path d="M154.959 175.206C154.103 175.847 153.996 176.114 154.531 176.649C155.386 177.504 158.167 176.649 158.167 175.526C158.167 174.458 156.242 174.244 154.959 175.206Z" fill="#EFB85F"/>
<path d="M134.369 176.595C134.369 177.13 134.85 177.878 135.438 178.199C137.417 179.268 138.38 177.611 136.668 176.275C135.278 175.259 134.369 175.366 134.369 176.595Z" fill="#EFB85F"/>
<path d="M148.755 177.611C147.739 178.466 147.578 178.787 148.113 179.321C149.129 180.336 151.75 179.268 151.75 177.931C151.75 176.488 150.306 176.328 148.755 177.611Z" fill="#EFB85F"/>
<path d="M140.84 179.375C140.198 181.085 140.733 182.421 142.123 182.795C144.209 183.329 145.332 182.848 145.493 181.352C145.814 178.573 141.803 176.863 140.84 179.375Z" fill="#EFB85F"/>
<path d="M171.323 182.153C170.521 183.062 170.735 184.719 171.644 184.986C172.714 185.36 173.462 183.276 172.714 182.207C172.072 181.405 171.965 181.405 171.323 182.153Z" fill="#EFB85F"/>
<path d="M147.471 183.65C147.311 184.077 147.257 187.765 147.311 191.827C147.471 198.881 147.525 199.309 148.541 199.309C149.557 199.309 149.61 198.934 149.61 191.292C149.61 184.077 149.503 183.276 148.648 183.115C148.166 183.008 147.632 183.276 147.471 183.65Z" fill="#EFB85F"/>
<path d="M197.314 183.329C197.1 183.543 196.94 184.291 196.94 184.986C196.94 186.108 197.154 186.268 198.437 186.108C199.56 186.001 199.881 185.68 199.881 184.612C199.881 183.65 199.56 183.222 198.811 183.115C198.17 183.008 197.528 183.115 197.314 183.329Z" fill="#EFB85F"/>
<path d="M117.164 217.618C116.95 217.832 116.79 218.58 116.79 219.275C116.79 220.397 117.004 220.557 118.287 220.397C119.41 220.29 119.731 219.97 119.731 218.901C119.731 217.939 119.41 217.511 118.662 217.404C118.02 217.297 117.378 217.404 117.164 217.618Z" fill="#EFB85F"/>
<path d="M170.574 188.459C169.291 189.475 168.863 192.254 169.826 193.109C171.697 194.605 174.104 191.239 172.874 188.887C172.232 187.658 171.804 187.551 170.574 188.459Z" fill="#EFB85F"/>
<path d="M162.82 195.086C161.269 196.155 161.269 197.438 162.873 197.438C164.157 197.385 166.456 195.728 166.456 194.819C166.456 193.964 164.21 194.124 162.82 195.086Z" fill="#EFB85F"/>
<path d="M155.761 198.827C154.21 199.683 153.996 200.805 155.387 201.072C156.617 201.339 158.97 199.789 158.97 198.774C158.97 197.812 157.579 197.812 155.761 198.827Z" fill="#EFB85F"/>
<path d="M148.113 203.21C146.83 204.599 146.99 205.455 148.434 205.455C149.557 205.455 152.017 203.531 152.017 202.622C152.017 201.82 148.915 202.301 148.113 203.21Z" fill="#EFB85F"/>
</g>
</g>
<defs>
<clipPath id="clip0_128_13758">
<rect width="297.638" height="419.528" rx="10" fill="white"/>
</clipPath>
<clipPath id="clip1_128_13758">
<rect width="259" height="381" fill="white" transform="translate(19.041 19.4131)"/>
</clipPath>
</defs>
</svg>
