<svg width="298" height="420" viewBox="0 0 298 420" fill="none" xmlns="http://www.w3.org/2000/svg">
<g clip-path="url(#clip0_101_22567)">
<rect width="297.638" height="419.528" rx="10" fill="#032206"/>
<rect x="12" y="12" width="273" height="396" rx="9" stroke="#EFB85F" stroke-width="2"/>
<rect x="19.5" y="19.5" width="258" height="380" rx="6.5" stroke="#EFB85F"/>
<circle cx="76.7197" cy="259.47" r="1" fill="#EFB85F"/>
<circle cx="222.72" cy="204.47" r="1" fill="#EFB85F"/>
<circle cx="211.72" cy="129.47" r="1" fill="#EFB85F"/>
<circle cx="241.72" cy="96.4702" r="1" fill="#EFB85F"/>
<circle cx="125.72" cy="66.4702" r="1" fill="#EFB85F"/>
<circle cx="59.7197" cy="98.4702" r="1" fill="#EFB85F"/>
<circle cx="187.72" cy="97.4702" r="1" fill="#EFB85F"/>
<circle cx="50.7197" cy="187.47" r="1" fill="#EFB85F"/>
<circle cx="50.7197" cy="187.47" r="1" fill="#EFB85F"/>
<circle cx="50.7197" cy="187.47" r="1" fill="#EFB85F"/>
<circle cx="74.7197" cy="323.47" r="1" fill="#EFB85F"/>
<circle cx="164.72" cy="363.47" r="1" fill="#EFB85F"/>
<circle cx="66.7197" cy="376.47" r="1" fill="#EFB85F"/>
<circle cx="114.72" cy="393.47" r="1" fill="#EFB85F"/>
<circle cx="164.72" cy="395.47" r="1" fill="#EFB85F"/>
<circle cx="215.72" cy="105.47" r="1" fill="#EFB85F"/>
<circle cx="162.72" cy="91.4702" r="1" fill="#EFB85F"/>
<circle cx="162.72" cy="91.4702" r="1" fill="#EFB85F"/>
<circle cx="21.7197" cy="312.47" r="1" fill="#EFB85F"/>
<circle cx="141.72" cy="354.47" r="1" fill="#EFB85F"/>
<circle cx="55.7197" cy="307.47" r="1" fill="#EFB85F"/>
<circle cx="88.7197" cy="340.47" r="1" fill="#EFB85F"/>
<circle cx="88.7197" cy="340.47" r="1" fill="#EFB85F"/>
<circle cx="229.72" cy="381.47" r="1" fill="#EFB85F"/>
<circle cx="235.72" cy="337.47" r="1" fill="#EFB85F"/>
<circle cx="235.72" cy="337.47" r="1" fill="#EFB85F"/>
<circle cx="212.72" cy="155.47" r="1" fill="#EFB85F"/>
<circle cx="274.72" cy="186.47" r="1" fill="#EFB85F"/>
<path d="M198.72 343.47C198.72 344.022 198.272 344.47 197.72 344.47C197.167 344.47 196.72 344.022 196.72 343.47C196.72 342.918 197.167 342.47 197.72 342.47C198.272 342.47 198.72 342.918 198.72 343.47Z" fill="#EFB85F"/>
<path d="M229.22 361.47L230.416 363.445L232.72 364.47L230.416 365.495L229.22 367.47L228.024 365.495L225.72 364.47L228.024 363.445L229.22 361.47Z" fill="#EFB85F"/>
<circle cx="251.72" cy="319.47" r="1" fill="#EFB85F"/>
<circle cx="216.72" cy="147.47" r="1" fill="#EFB85F"/>
<circle cx="249.72" cy="180.47" r="1" fill="#EFB85F"/>
<circle cx="249.72" cy="180.47" r="1" fill="#EFB85F"/>
<circle cx="196.72" cy="372.47" r="1" fill="#EFB85F"/>
<circle cx="214.72" cy="266.47" r="1" fill="#EFB85F"/>
<circle cx="80.7197" cy="131.47" r="1" fill="#EFB85F"/>
<circle cx="22.7197" cy="157.47" r="1" fill="#EFB85F"/>
<circle cx="70.7197" cy="82.4702" r="1" fill="#EFB85F"/>
<circle cx="59.7197" cy="156.47" r="1" fill="#EFB85F"/>
<circle cx="40.7197" cy="79.4702" r="1" fill="#EFB85F"/>
<circle cx="74.7197" cy="74.4702" r="1" fill="#EFB85F"/>
<circle cx="38.7197" cy="143.47" r="1" fill="#EFB85F"/>
<circle cx="72.7197" cy="193.47" r="1" fill="#EFB85F"/>
<path d="M63.5269 139.266L67.8018 139.126L63.5269 138.986L64.8677 137.555L63.4362 138.896L63.2964 134.621L63.1565 138.896L61.725 137.555L63.0658 138.986L58.7909 139.126L63.0658 139.266L61.725 140.697L63.1565 139.357L63.2964 143.631L63.4362 139.357L64.8677 140.697L63.5269 139.266Z" fill="#EFB85F"/>
<path d="M33.4906 226.363L37.7655 226.223L33.4906 226.083L34.8314 224.652L33.3999 225.993L33.2601 221.718L33.1202 225.993L31.6888 224.652L33.0295 226.083L28.7546 226.223L33.0295 226.363L31.6888 227.794L33.1202 226.454L33.2601 230.728L33.3999 226.454L34.8314 227.794L33.4906 226.363Z" fill="#EFB85F"/>
<path d="M28.4846 291.436L32.7595 291.296L28.4846 291.156L29.8254 289.725L28.3939 291.066L28.254 286.791L28.1142 291.066L26.6827 289.725L28.0235 291.156L23.7486 291.296L28.0235 291.436L26.6827 292.867L28.1142 291.527L28.254 295.801L28.3939 291.527L29.8254 292.867L28.4846 291.436Z" fill="#EFB85F"/>
<path d="M45.5052 349.501L49.7801 349.361L45.5052 349.221L46.8459 347.79L45.4144 349.13L45.2746 344.856L45.1348 349.13L43.7033 347.79L45.044 349.221L40.7692 349.361L45.044 349.501L43.7033 350.932L45.1348 349.592L45.2746 353.866L45.4144 349.592L46.8459 350.932L45.5052 349.501Z" fill="#EFB85F"/>
<path d="M126.603 378.534L130.878 378.394L126.603 378.254L127.944 376.823L126.512 378.163L126.373 373.889L126.233 378.163L124.801 376.823L126.142 378.254L121.867 378.394L126.142 378.534L124.801 379.965L126.233 378.624L126.373 382.899L126.512 378.624L127.944 379.965L126.603 378.534Z" fill="#EFB85F"/>
<path d="M251.754 385.541L256.029 385.402L251.754 385.262L253.095 383.83L251.664 385.171L251.524 380.896L251.384 385.171L249.952 383.83L251.293 385.262L247.018 385.402L251.293 385.541L249.952 386.973L251.384 385.632L251.524 389.907L251.664 385.632L253.095 386.973L251.754 385.541Z" fill="#EFB85F"/>
<path d="M264.77 221.358L269.045 221.218L264.77 221.078L266.111 219.647L264.679 220.987L264.539 216.713L264.4 220.987L262.968 219.647L264.309 221.078L260.034 221.218L264.309 221.358L262.968 222.789L264.4 221.448L264.539 225.723L264.679 221.448L266.111 222.789L264.77 221.358Z" fill="#EFB85F"/>
<path d="M264.77 221.358L269.045 221.218L264.77 221.078L266.111 219.647L264.679 220.987L264.539 216.713L264.4 220.987L262.968 219.647L264.309 221.078L260.034 221.218L264.309 221.358L262.968 222.789L264.4 221.448L264.539 225.723L264.679 221.448L266.111 222.789L264.77 221.358Z" fill="#EFB85F"/>
<path d="M135.614 105.228L139.889 105.088L135.614 104.948L136.955 103.517L135.523 104.858L135.383 100.583L135.244 104.858L133.812 103.517L135.153 104.948L130.878 105.088L135.153 105.228L133.812 106.659L135.244 105.319L135.383 109.593L135.523 105.319L136.955 106.659L135.614 105.228Z" fill="#EFB85F"/>
<path d="M135.614 105.228L139.889 105.088L135.614 104.948L136.955 103.517L135.523 104.858L135.383 100.583L135.244 104.858L133.812 103.517L135.153 104.948L130.878 105.088L135.153 105.228L133.812 106.659L135.244 105.319L135.383 109.593L135.523 105.319L136.955 106.659L135.614 105.228Z" fill="#EFB85F"/>
<path d="M135.614 105.228L139.889 105.088L135.614 104.948L136.955 103.517L135.523 104.858L135.383 100.583L135.244 104.858L133.812 103.517L135.153 104.948L130.878 105.088L135.153 105.228L133.812 106.659L135.244 105.319L135.383 109.593L135.523 105.319L136.955 106.659L135.614 105.228Z" fill="#EFB85F"/>
<path d="M160.644 78.1977L164.919 78.0578L160.644 77.918L161.985 76.4866L160.554 77.8272L160.414 73.5527L160.274 77.8272L158.842 76.4866L160.183 77.918L155.908 78.0578L160.183 78.1977L158.842 79.629L160.274 78.2883L160.414 82.5628L160.554 78.2883L161.985 79.629L160.644 78.1977Z" fill="#EFB85F"/>
<path d="M193.684 334.484L197.959 334.344L193.684 334.205L195.025 332.773L193.593 334.114L193.454 329.839L193.314 334.114L191.882 332.773L193.223 334.205L188.948 334.344L193.223 334.484L191.882 335.916L193.314 334.575L193.454 338.849L193.593 334.575L195.025 335.916L193.684 334.484Z" fill="#EFB85F"/>
<path d="M193.684 334.484L197.959 334.344L193.684 334.205L195.025 332.773L193.593 334.114L193.454 329.839L193.314 334.114L191.882 332.773L193.223 334.205L188.948 334.344L193.223 334.484L191.882 335.916L193.314 334.575L193.454 338.849L193.593 334.575L195.025 335.916L193.684 334.484Z" fill="#EFB85F"/>
<path d="M237.737 272.415L242.012 272.275L237.737 272.135L239.078 270.704L237.647 272.045L237.507 267.77L237.367 272.045L235.935 270.704L237.276 272.135L233.001 272.275L237.276 272.415L235.935 273.846L237.367 272.506L237.507 276.78L237.647 272.506L239.078 273.846L237.737 272.415Z" fill="#EFB85F"/>
<path d="M250.71 134.026C250.749 133.699 250.814 132.924 250.866 132.312C250.918 131.604 251.009 131.155 251.113 131.114C251.204 131.074 251.62 131.291 252.023 131.591C252.439 131.903 252.802 132.121 252.841 132.08C252.867 132.053 252.62 131.618 252.296 131.128C251.88 130.529 251.737 130.23 251.854 130.189C251.945 130.162 252.607 130.067 253.322 129.972C255.609 129.7 255.596 129.55 253.283 129.291C252.478 129.196 251.802 129.074 251.776 129.033C251.737 128.979 251.984 128.584 252.296 128.149C252.607 127.7 252.841 127.305 252.802 127.264C252.763 127.237 252.374 127.469 251.945 127.781C251.503 128.108 251.113 128.312 251.061 128.258C250.996 128.19 250.892 127.373 250.801 126.435C250.567 123.986 250.463 123.999 250.216 126.489C250.125 127.428 250.021 128.244 249.969 128.285C249.93 128.326 249.541 128.108 249.099 127.795C248.67 127.469 248.293 127.237 248.254 127.278C248.228 127.305 248.423 127.673 248.709 128.081C248.995 128.475 249.229 128.883 249.229 128.965C249.229 129.06 248.67 129.183 247.76 129.291C245.434 129.55 245.434 129.7 247.773 129.985C248.657 130.094 249.229 130.23 249.229 130.312C249.229 130.393 248.995 130.802 248.709 131.196C248.098 132.053 248.046 132.271 248.54 131.931C248.748 131.808 249.125 131.536 249.398 131.346C250.021 130.924 250.073 130.992 250.19 132.461C250.359 134.624 250.554 135.196 250.71 134.026Z" fill="#EFB85F"/>
<path d="M163.605 177.074C163.644 176.747 163.709 175.972 163.761 175.359C163.813 174.652 163.904 174.203 164.008 174.162C164.099 174.121 164.515 174.339 164.917 174.638C165.333 174.951 165.697 175.169 165.736 175.128C165.762 175.101 165.515 174.666 165.19 174.176C164.774 173.577 164.632 173.278 164.748 173.237C164.839 173.21 165.502 173.115 166.217 173.02C168.504 172.747 168.491 172.598 166.178 172.339C165.372 172.244 164.697 172.122 164.671 172.081C164.632 172.026 164.878 171.632 165.19 171.197C165.502 170.748 165.736 170.353 165.697 170.312C165.658 170.285 165.268 170.516 164.839 170.829C164.398 171.156 164.008 171.36 163.956 171.305C163.891 171.237 163.787 170.421 163.696 169.482C163.462 167.034 163.358 167.047 163.111 169.537C163.02 170.476 162.916 171.292 162.864 171.333C162.825 171.373 162.435 171.156 161.993 170.843C161.565 170.516 161.188 170.285 161.149 170.326C161.123 170.353 161.318 170.72 161.604 171.129C161.889 171.523 162.123 171.931 162.123 172.013C162.123 172.108 161.565 172.23 160.655 172.339C158.329 172.598 158.329 172.747 160.668 173.033C161.552 173.142 162.123 173.278 162.123 173.36C162.123 173.441 161.889 173.849 161.604 174.244C160.993 175.101 160.941 175.319 161.435 174.979C161.643 174.856 162.019 174.584 162.292 174.394C162.916 173.972 162.968 174.04 163.085 175.509C163.254 177.672 163.449 178.244 163.605 177.074Z" fill="#EFB85F"/>
<path d="M161.603 263.17C161.641 262.844 161.706 262.068 161.758 261.456C161.81 260.749 161.901 260.3 162.005 260.259C162.096 260.218 162.512 260.436 162.915 260.735C163.331 261.048 163.695 261.266 163.734 261.225C163.76 261.198 163.513 260.762 163.188 260.273C162.772 259.674 162.629 259.375 162.746 259.334C162.837 259.307 163.5 259.211 164.215 259.116C166.502 258.844 166.489 258.694 164.176 258.436C163.37 258.341 162.694 258.218 162.668 258.178C162.629 258.123 162.876 257.729 163.188 257.293C163.5 256.844 163.734 256.45 163.695 256.409C163.656 256.382 163.266 256.613 162.837 256.926C162.395 257.252 162.005 257.457 161.953 257.402C161.888 257.334 161.784 256.518 161.693 255.579C161.46 253.13 161.356 253.144 161.109 255.634C161.018 256.572 160.914 257.388 160.862 257.429C160.823 257.47 160.433 257.252 159.991 256.94C159.562 256.613 159.185 256.382 159.146 256.423C159.12 256.45 159.315 256.817 159.601 257.225C159.887 257.62 160.121 258.028 160.121 258.11C160.121 258.205 159.562 258.327 158.653 258.436C156.326 258.694 156.326 258.844 158.665 259.13C159.549 259.239 160.121 259.375 160.121 259.456C160.121 259.538 159.887 259.946 159.601 260.341C158.99 261.198 158.938 261.415 159.432 261.075C159.64 260.953 160.017 260.681 160.29 260.49C160.914 260.069 160.966 260.137 161.083 261.606C161.252 263.769 161.447 264.34 161.603 263.17Z" fill="#EFB85F"/>
<path d="M36.4513 114.003C36.4903 113.677 36.5553 112.901 36.6073 112.289C36.6593 111.582 36.7502 111.133 36.8542 111.092C36.9452 111.051 37.361 111.269 37.7639 111.568C38.1797 111.881 38.5436 112.099 38.5826 112.058C38.6086 112.031 38.3617 111.595 38.0368 111.106C37.6209 110.507 37.478 110.208 37.5949 110.167C37.6859 110.14 38.3487 110.044 39.0634 109.949C41.3507 109.677 41.3377 109.527 39.0245 109.269C38.2187 109.174 37.543 109.051 37.517 109.011C37.478 108.956 37.7249 108.562 38.0368 108.126C38.3487 107.677 38.5826 107.283 38.5436 107.242C38.5046 107.215 38.1148 107.446 37.6859 107.759C37.2441 108.085 36.8542 108.29 36.8022 108.235C36.7372 108.167 36.6333 107.351 36.5423 106.412C36.3084 103.963 36.2044 103.977 35.9575 106.467C35.8665 107.405 35.7626 108.221 35.7106 108.262C35.6716 108.303 35.2817 108.085 34.8399 107.773C34.411 107.446 34.0341 107.215 33.9952 107.256C33.9692 107.283 34.1641 107.65 34.45 108.058C34.7359 108.453 34.9698 108.861 34.9698 108.943C34.9698 109.038 34.411 109.16 33.5013 109.269C31.1751 109.527 31.1751 109.677 33.5143 109.963C34.398 110.072 34.9698 110.208 34.9698 110.289C34.9698 110.371 34.7359 110.779 34.45 111.174C33.8392 112.031 33.7872 112.248 34.2811 111.908C34.489 111.786 34.8659 111.514 35.1388 111.323C35.7626 110.902 35.8145 110.97 35.9315 112.439C36.1004 114.602 36.2954 115.173 36.4513 114.003Z" fill="#EFB85F"/>
<path d="M268.732 306.218C268.771 305.892 268.836 305.116 268.888 304.504C268.94 303.797 269.031 303.348 269.135 303.307C269.226 303.266 269.642 303.484 270.044 303.783C270.46 304.096 270.824 304.314 270.863 304.273C270.889 304.246 270.642 303.81 270.317 303.32C269.902 302.722 269.759 302.423 269.876 302.382C269.966 302.355 270.629 302.259 271.344 302.164C273.631 301.892 273.618 301.742 271.305 301.484C270.499 301.389 269.824 301.266 269.798 301.225C269.759 301.171 270.005 300.776 270.317 300.341C270.629 299.892 270.863 299.498 270.824 299.457C270.785 299.43 270.395 299.661 269.966 299.974C269.525 300.3 269.135 300.504 269.083 300.45C269.018 300.382 268.914 299.566 268.823 298.627C268.589 296.178 268.485 296.192 268.238 298.681C268.147 299.62 268.043 300.436 267.991 300.477C267.952 300.518 267.562 300.3 267.12 299.987C266.692 299.661 266.315 299.43 266.276 299.47C266.25 299.498 266.445 299.865 266.731 300.273C267.016 300.668 267.25 301.076 267.25 301.157C267.25 301.253 266.692 301.375 265.782 301.484C263.456 301.742 263.456 301.892 265.795 302.178C266.679 302.287 267.25 302.423 267.25 302.504C267.25 302.586 267.016 302.994 266.731 303.388C266.12 304.246 266.068 304.463 266.562 304.123C266.77 304.001 267.146 303.729 267.419 303.538C268.043 303.116 268.095 303.184 268.212 304.654C268.381 306.817 268.576 307.388 268.732 306.218Z" fill="#EFB85F"/>
<path d="M54.4731 275.183C54.5121 274.857 54.577 274.081 54.629 273.469C54.681 272.762 54.772 272.313 54.8759 272.272C54.9669 272.231 55.3828 272.449 55.7856 272.748C56.2015 273.061 56.5654 273.279 56.6044 273.238C56.6303 273.211 56.3834 272.775 56.0585 272.286C55.6427 271.687 55.4997 271.388 55.6167 271.347C55.7077 271.32 56.3704 271.225 57.0852 271.129C59.3724 270.857 59.3594 270.708 57.0462 270.449C56.2405 270.354 55.5647 270.232 55.5387 270.191C55.4997 270.136 55.7466 269.742 56.0585 269.306C56.3704 268.858 56.6044 268.463 56.5654 268.422C56.5264 268.395 56.1365 268.626 55.7077 268.939C55.2658 269.266 54.8759 269.47 54.824 269.415C54.759 269.347 54.655 268.531 54.564 267.592C54.3301 265.144 54.2262 265.157 53.9792 267.647C53.8883 268.585 53.7843 269.402 53.7323 269.442C53.6933 269.483 53.3035 269.266 52.8616 268.953C52.4328 268.626 52.0559 268.395 52.0169 268.436C51.9909 268.463 52.1859 268.83 52.4718 269.238C52.7577 269.633 52.9916 270.041 52.9916 270.123C52.9916 270.218 52.4328 270.34 51.5231 270.449C49.1969 270.708 49.1969 270.857 51.5361 271.143C52.4198 271.252 52.9916 271.388 52.9916 271.47C52.9916 271.551 52.7577 271.959 52.4718 272.354C51.861 273.211 51.809 273.428 52.3028 273.088C52.5107 272.966 52.8876 272.694 53.1605 272.503C53.7843 272.082 53.8363 272.15 53.9533 273.619C54.1222 275.782 54.3171 276.353 54.4731 275.183Z" fill="#EFB85F"/>
<path d="M49.467 396.319C49.506 395.993 49.571 395.217 49.623 394.605C49.6749 393.898 49.7659 393.449 49.8699 393.408C49.9608 393.367 50.3767 393.585 50.7796 393.884C51.1954 394.197 51.5593 394.415 51.5983 394.374C51.6243 394.347 51.3774 393.911 51.0525 393.421C50.6366 392.823 50.4937 392.524 50.6106 392.483C50.7016 392.456 51.3644 392.36 52.0791 392.265C54.3663 391.993 54.3534 391.843 52.0401 391.585C51.2344 391.49 50.5586 391.367 50.5326 391.326C50.4937 391.272 50.7406 390.878 51.0525 390.442C51.3644 389.993 51.5983 389.599 51.5593 389.558C51.5203 389.531 51.1304 389.762 50.7016 390.075C50.2597 390.401 49.8699 390.605 49.8179 390.551C49.7529 390.483 49.6489 389.667 49.558 388.728C49.3241 386.279 49.2201 386.293 48.9732 388.782C48.8822 389.721 48.7782 390.537 48.7263 390.578C48.6873 390.619 48.2974 390.401 47.8556 390.088C47.4267 389.762 47.0498 389.531 47.0108 389.572C46.9848 389.599 47.1798 389.966 47.4657 390.374C47.7516 390.769 47.9855 391.177 47.9855 391.258C47.9855 391.354 47.4267 391.476 46.517 391.585C44.1908 391.843 44.1908 391.993 46.53 392.279C47.4137 392.388 47.9855 392.524 47.9855 392.605C47.9855 392.687 47.7516 393.095 47.4657 393.49C46.8549 394.347 46.8029 394.564 47.2967 394.224C47.5047 394.102 47.8815 393.83 48.1545 393.639C48.7782 393.217 48.8302 393.285 48.9472 394.755C49.1161 396.918 49.3111 397.489 49.467 396.319Z" fill="#EFB85F"/>
<path d="M229.497 361.875L230.695 363.852L233.001 364.878L230.695 365.904L229.497 367.882L228.3 365.904L225.993 364.878L228.3 363.852L229.497 361.875Z" fill="#EFB85F"/>
<path d="M118.363 309.817L119.56 311.794L121.867 312.82L119.56 313.846L118.363 315.824L117.165 313.846L114.859 312.82L117.165 311.794L118.363 309.817Z" fill="#EFB85F"/>
<path d="M118.363 309.817L119.56 311.794L121.867 312.82L119.56 313.846L118.363 315.824L117.165 313.846L114.859 312.82L117.165 311.794L118.363 309.817Z" fill="#EFB85F"/>
<path d="M84.3219 285.79L85.5192 287.767L87.826 288.793L85.5192 289.819L84.3219 291.797L83.1243 289.819L80.8175 288.793L83.1243 287.767L84.3219 285.79Z" fill="#EFB85F"/>
<path d="M170.426 286.791L171.623 288.768L173.93 289.794L171.623 290.82L170.426 292.798L169.228 290.82L166.922 289.794L169.228 288.768L170.426 286.791Z" fill="#EFB85F"/>
<path d="M78.3147 230.729L79.5119 232.705L81.8187 233.732L79.5119 234.758L78.3147 236.735L77.1171 234.758L74.8103 233.732L77.1171 232.705L78.3147 230.729Z" fill="#EFB85F"/>
<path d="M27.253 185.678L28.4503 187.655L30.7571 188.682L28.4503 189.708L27.253 191.685L26.0554 189.708L23.7486 188.682L26.0554 187.655L27.253 185.678Z" fill="#EFB85F"/>
<path d="M27.253 86.5669L28.4503 88.5439L30.7571 89.5703L28.4503 90.5963L27.253 92.5736L26.0554 90.5963L23.7486 89.5703L26.0554 88.5439L27.253 86.5669Z" fill="#EFB85F"/>
<circle cx="118.72" cy="77.4702" r="1" fill="#EFB85F"/>
<path d="M114.546 112.001C114.585 111.674 114.65 110.899 114.702 110.287C114.754 109.579 114.845 109.13 114.949 109.09C115.039 109.049 115.455 109.266 115.858 109.566C116.274 109.879 116.638 110.096 116.677 110.055C116.703 110.028 116.456 109.593 116.131 109.103C115.715 108.505 115.572 108.205 115.689 108.164C115.78 108.137 116.443 108.042 117.158 107.947C119.445 107.675 119.432 107.525 117.119 107.267C116.313 107.171 115.637 107.049 115.611 107.008C115.572 106.954 115.819 106.559 116.131 106.124C116.443 105.675 116.677 105.28 116.638 105.24C116.599 105.212 116.209 105.444 115.78 105.757C115.338 106.083 114.949 106.287 114.897 106.233C114.832 106.165 114.728 105.348 114.637 104.41C114.403 101.961 114.299 101.975 114.052 104.464C113.961 105.403 113.857 106.219 113.805 106.26C113.766 106.301 113.376 106.083 112.934 105.77C112.505 105.444 112.128 105.212 112.089 105.253C112.063 105.28 112.258 105.648 112.544 106.056C112.83 106.45 113.064 106.858 113.064 106.94C113.064 107.035 112.505 107.158 111.596 107.267C109.269 107.525 109.269 107.675 111.609 107.96C112.492 108.069 113.064 108.205 113.064 108.287C113.064 108.369 112.83 108.777 112.544 109.171C111.934 110.028 111.882 110.246 112.375 109.906C112.583 109.783 112.96 109.511 113.233 109.321C113.857 108.899 113.909 108.967 114.026 110.436C114.195 112.599 114.39 113.171 114.546 112.001Z" fill="#EFB85F"/>
<path d="M105.347 84.5649L106.545 86.5419L108.851 87.5683L106.545 88.5943L105.347 90.5717L104.15 88.5943L101.843 87.5683L104.15 86.5419L105.347 84.5649Z" fill="#EFB85F"/>
<path d="M256.53 70.5493L257.727 72.5263L260.034 73.5527L257.727 74.5787L256.53 76.556L255.332 74.5787L253.026 73.5527L255.332 72.5263L256.53 70.5493Z" fill="#EFB85F"/>
<path d="M165.42 28.502L166.617 30.4789L168.924 31.5053L166.617 32.5313L165.42 34.5087L164.222 32.5313L161.915 31.5053L164.222 30.4789L165.42 28.502Z" fill="#EFB85F"/>
<path d="M238.007 298.805L238.759 302.464L242.012 303.309L238.759 304.155L238.007 307.815L237.255 304.155L234.003 303.309L237.255 302.464L238.007 298.805Z" fill="#EFB85F"/>
<path d="M57.7895 245.745L58.5415 249.404L61.7945 250.25L58.5415 251.096L57.7895 254.755L57.0374 251.096L53.7849 250.25L57.0374 249.404L57.7895 245.745Z" fill="#EFB85F"/>
<path d="M62.7955 339.851L63.5476 343.51L66.8006 344.355L63.5476 345.201L62.7955 348.861L62.0435 345.201L58.7909 344.355L62.0435 343.51L62.7955 339.851Z" fill="#EFB85F"/>
<path d="M261.035 338.85L261.787 342.509L265.04 343.354L261.787 344.2L261.035 347.86L260.283 344.2L257.03 343.354L260.283 342.509L261.035 338.85Z" fill="#EFB85F"/>
<path d="M160.914 327.837L161.666 331.496L164.919 332.342L161.666 333.188L160.914 336.847L160.162 333.188L156.909 332.342L160.162 331.496L160.914 327.837Z" fill="#EFB85F"/>
<path d="M254.027 237.736L254.779 241.396L258.032 242.241L254.779 243.087L254.027 246.746L253.274 243.087L250.022 242.241L253.274 241.396L254.027 237.736Z" fill="#EFB85F"/>
<path d="M254.027 237.736L254.779 241.396L258.032 242.241L254.779 243.087L254.027 246.746L253.274 243.087L250.022 242.241L253.274 241.396L254.027 237.736Z" fill="#EFB85F"/>
<path d="M115.86 343.855L116.612 347.514L119.865 348.36L116.612 349.206L115.86 352.865L115.108 349.206L111.855 348.36L115.108 347.514L115.86 343.855Z" fill="#EFB85F"/>
<circle cx="125.72" cy="66.4702" r="1" fill="#EFB85F"/>
<circle cx="164.72" cy="363.47" r="1" fill="#EFB85F"/>
<circle cx="143.72" cy="317.47" r="1" fill="#EFB85F"/>
<circle cx="161.72" cy="315.47" r="1" fill="#EFB85F"/>
<circle cx="158.72" cy="277.47" r="1" fill="#EFB85F"/>
<circle cx="120.72" cy="331.47" r="1" fill="#EFB85F"/>
<circle cx="162.72" cy="91.4702" r="1" fill="#EFB85F"/>
<circle cx="162.72" cy="91.4702" r="1" fill="#EFB85F"/>
<circle cx="185.72" cy="193.47" r="1" fill="#EFB85F"/>
<circle cx="122.72" cy="193.47" r="1" fill="#EFB85F"/>
<circle cx="150.72" cy="164.47" r="1" fill="#EFB85F"/>
<circle cx="76.7197" cy="41.4702" r="1" fill="#EFB85F"/>
<circle cx="146.72" cy="40.4702" r="1" fill="#EFB85F"/>
<circle cx="177.72" cy="51.4702" r="1" fill="#EFB85F"/>
<circle cx="177.72" cy="51.4702" r="1" fill="#EFB85F"/>
<circle cx="109.72" cy="143.47" r="1" fill="#EFB85F"/>
<circle cx="145.72" cy="124.47" r="1" fill="#EFB85F"/>
<circle cx="81.7197" cy="177.47" r="1" fill="#EFB85F"/>
<circle cx="59.7197" cy="216.47" r="1" fill="#EFB85F"/>
<circle cx="38.7197" cy="328.47" r="1" fill="#EFB85F"/>
<circle cx="188.72" cy="155.47" r="1" fill="#EFB85F"/>
<circle cx="127.72" cy="292.47" r="1" fill="#EFB85F"/>
<circle cx="166.72" cy="214.47" r="1" fill="#EFB85F"/>
<circle cx="155.72" cy="194.47" r="1" fill="#EFB85F"/>
<circle cx="168.72" cy="153.47" r="1" fill="#EFB85F"/>
<circle cx="141.72" cy="354.47" r="1" fill="#EFB85F"/>
<path d="M126.603 378.534L130.878 378.394L126.603 378.254L127.944 376.823L126.512 378.163L126.373 373.889L126.233 378.163L124.801 376.823L126.142 378.254L121.867 378.394L126.142 378.534L124.801 379.965L126.233 378.624L126.373 382.899L126.512 378.624L127.944 379.965L126.603 378.534Z" fill="#EFB85F"/>
<path d="M135.614 105.228L139.889 105.088L135.614 104.948L136.955 103.517L135.523 104.858L135.383 100.583L135.244 104.858L133.812 103.517L135.153 104.948L130.878 105.088L135.153 105.228L133.812 106.659L135.244 105.319L135.383 109.593L135.523 105.319L136.955 106.659L135.614 105.228Z" fill="#EFB85F"/>
<path d="M135.614 105.228L139.889 105.088L135.614 104.948L136.955 103.517L135.523 104.858L135.383 100.583L135.244 104.858L133.812 103.517L135.153 104.948L130.878 105.088L135.153 105.228L133.812 106.659L135.244 105.319L135.383 109.593L135.523 105.319L136.955 106.659L135.614 105.228Z" fill="#EFB85F"/>
<path d="M135.614 105.228L139.889 105.088L135.614 104.948L136.955 103.517L135.523 104.858L135.383 100.583L135.244 104.858L133.812 103.517L135.153 104.948L130.878 105.088L135.153 105.228L133.812 106.659L135.244 105.319L135.383 109.593L135.523 105.319L136.955 106.659L135.614 105.228Z" fill="#EFB85F"/>
<path d="M160.644 78.1977L164.919 78.0578L160.644 77.918L161.985 76.4866L160.554 77.8272L160.414 73.5527L160.274 77.8272L158.842 76.4866L160.183 77.918L155.908 78.0578L160.183 78.1977L158.842 79.629L160.274 78.2883L160.414 82.5628L160.554 78.2883L161.985 79.629L160.644 78.1977Z" fill="#EFB85F"/>
<path d="M160.914 327.837L161.666 331.496L164.919 332.342L161.666 333.188L160.914 336.847L160.162 333.188L156.909 332.342L160.162 331.496L160.914 327.837Z" fill="#EFB85F"/>
<path d="M148.9 290.795L149.652 294.455L152.905 295.3L149.652 296.146L148.9 299.805L148.148 296.146L144.895 295.3L148.148 294.455L148.9 290.795Z" fill="#EFB85F"/>
<path d="M121.867 213.709L122.619 217.369L125.872 218.214L122.619 219.06L121.867 222.72L121.115 219.06L117.862 218.214L121.115 217.369L121.867 213.709Z" fill="#EFB85F"/>
<path d="M146.897 138.625L147.649 142.285L150.902 143.13L147.649 143.976L146.897 147.636L146.145 143.976L142.893 143.13L146.145 142.285L146.897 138.625Z" fill="#EFB85F"/>
<path d="M196.958 163.653L197.71 167.313L200.963 168.158L197.71 169.004L196.958 172.663L196.206 169.004L192.953 168.158L196.206 167.313L196.958 163.653Z" fill="#EFB85F"/>
<path d="M115.86 343.855L116.612 347.514L119.865 348.36L116.612 349.206L115.86 352.865L115.108 349.206L111.855 348.36L115.108 347.514L115.86 343.855Z" fill="#EFB85F"/>
<circle cx="41.7197" cy="29.4702" r="1" fill="#EFB85F"/>
<path d="M28.2543 36.5112L29.4515 38.4882L31.7583 39.5146L29.4515 40.5406L28.2543 42.518L27.0566 40.5406L24.7498 39.5146L27.0566 38.4882L28.2543 36.5112Z" fill="#EFB85F"/>
<path d="M64.5281 89.2099L68.803 89.07L64.5281 88.9302L65.8689 87.4988L64.4374 88.8394L64.2976 84.5649L64.1577 88.8394L62.7262 87.4988L64.067 88.9302L59.7921 89.07L64.067 89.2099L62.7262 90.6412L64.1577 89.3005L64.2976 93.575L64.4374 89.3005L65.8689 90.6412L64.5281 89.2099Z" fill="#EFB85F"/>
<path d="M136.615 182.314L140.89 182.174L136.615 182.034L137.956 180.603L136.524 181.943L136.385 177.669L136.245 181.943L134.813 180.603L136.154 182.034L131.879 182.174L136.154 182.314L134.813 183.745L136.245 182.405L136.385 186.679L136.524 182.405L137.956 183.745L136.615 182.314Z" fill="#EFB85F"/>
<path d="M145.626 221.358L149.901 221.218L145.626 221.078L146.967 219.647L145.535 220.987L145.396 216.713L145.256 220.987L143.824 219.647L145.165 221.078L140.89 221.218L145.165 221.358L143.824 222.789L145.256 221.448L145.396 225.723L145.535 221.448L146.967 222.789L145.626 221.358Z" fill="#EFB85F"/>
<path d="M139.619 272.415L143.894 272.275L139.619 272.135L140.96 270.704L139.528 272.045L139.388 267.77L139.248 272.045L137.817 270.704L139.158 272.135L134.883 272.275L139.158 272.415L137.817 273.846L139.248 272.506L139.388 276.78L139.528 272.506L140.96 273.846L139.619 272.415Z" fill="#EFB85F"/>
<circle cx="39.7197" cy="93.4702" r="1" fill="#EFB85F"/>
<circle cx="60.7197" cy="106.47" r="1" fill="#EFB85F"/>
<circle cx="231.72" cy="24.4702" r="1" fill="#EFB85F"/>
<circle cx="265.72" cy="33.4702" r="1" fill="#EFB85F"/>
<circle cx="265.72" cy="33.4702" r="1" fill="#EFB85F"/>
<circle cx="267.72" cy="34.4702" r="1" fill="#EFB85F"/>
<path d="M267.774 92.2133L272.049 92.0734L267.774 91.9336L269.114 90.5022L267.683 91.8429L267.543 87.5684L267.403 91.8429L265.972 90.5022L267.313 91.9336L263.038 92.0734L267.313 92.2133L265.972 93.6446L267.403 92.3039L267.543 96.5784L267.683 92.3039L269.114 93.6446L267.774 92.2133Z" fill="#EFB85F"/>
<path d="M267.774 92.2133L272.049 92.0734L267.774 91.9336L269.114 90.5022L267.683 91.8429L267.543 87.5684L267.403 91.8429L265.972 90.5022L267.313 91.9336L263.038 92.0734L267.313 92.2133L265.972 93.6446L267.403 92.3039L267.543 96.5784L267.683 92.3039L269.114 93.6446L267.774 92.2133Z" fill="#EFB85F"/>
<path d="M177.434 124.61L178.632 126.587L180.938 127.613L178.632 128.639L177.434 130.617L176.237 128.639L173.93 127.613L176.237 126.587L177.434 124.61Z" fill="#EFB85F"/>
<g clip-path="url(#clip1_101_22567)">
<path d="M56.6523 62.0049C56.6165 62.0622 56.527 62.0765 56.3838 62.0479C56.2477 62.012 56.0866 61.9941 55.9004 61.9941C55.7142 61.9941 55.4492 62.0335 55.1055 62.1123C54.7689 62.1839 54.2354 62.2985 53.5049 62.4561C52.7744 62.6208 52.1084 62.7031 51.5068 62.7031C50.1462 62.7031 48.8249 62.3844 47.543 61.7471C46.2682 61.1025 45.2477 60.193 44.4814 59.0186C43.7152 57.8369 43.332 56.4691 43.332 54.915C43.332 53.361 43.7152 51.9538 44.4814 50.6934C45.5986 48.8457 47.2816 47.6426 49.5303 47.084C50.2464 46.9049 50.9626 46.8154 51.6787 46.8154C52.6598 46.8154 53.8236 46.9801 55.1699 47.3096C55.5781 47.4098 55.9219 47.5137 56.2012 47.6211C56.4876 47.7285 56.6631 47.7822 56.7275 47.7822L57.0498 47.6963H57.3828C57.4688 47.6963 57.5117 47.7572 57.5117 47.8789V51.2197C57.5117 51.2913 57.4473 51.3271 57.3184 51.3271C57.1895 51.3271 57.1143 51.3128 57.0928 51.2842C57.0713 51.2484 57.0498 51.209 57.0283 51.166C57.0068 51.1159 56.9818 51.0658 56.9531 51.0156C56.9316 50.9655 56.9066 50.9189 56.8779 50.876C56.8564 50.833 56.8421 50.8008 56.835 50.7793C55.7607 48.6237 54.1315 47.5459 51.9473 47.5459C49.9779 47.5459 48.4382 48.1725 47.3281 49.4258C46.2181 50.679 45.6631 52.3405 45.6631 54.4102C45.6631 56.4727 46.2718 58.2451 47.4893 59.7275C48.7139 61.21 50.3753 61.9512 52.4736 61.9512C53.6195 61.9512 54.6615 61.611 55.5996 60.9307C56.5449 60.2503 57.2861 59.416 57.8232 58.4277C57.8376 58.3848 57.8805 58.3633 57.9521 58.3633H58.0918C58.1634 58.3633 58.1992 58.4062 58.1992 58.4922C58.1992 58.5781 58.1777 58.6605 58.1348 58.7393L56.6523 62.0049ZM59.832 57.5898C59.832 56.179 60.3298 54.9688 61.3252 53.959C62.3278 52.9421 63.5273 52.4336 64.9238 52.4336C66.3203 52.4336 67.5342 52.9277 68.5654 53.916C69.5967 54.8971 70.1123 56.111 70.1123 57.5576C70.1123 59.0042 69.6217 60.2253 68.6406 61.2207C67.6667 62.209 66.4421 62.7031 64.9668 62.7031C63.4915 62.7031 62.2669 62.2018 61.293 61.1992C60.319 60.1966 59.832 58.9935 59.832 57.5898ZM62.5068 60.3506C63.2087 61.5322 64.1647 62.123 65.375 62.123C66.3132 62.123 67.0293 61.7471 67.5234 60.9951C68.0247 60.2432 68.2754 59.3193 68.2754 58.2236C68.2754 57.1279 67.9245 56.0036 67.2227 54.8506C66.528 53.6976 65.5898 53.1211 64.4082 53.1211C63.5417 53.1211 62.8577 53.4971 62.3564 54.249C61.8623 54.9938 61.6152 55.9427 61.6152 57.0957C61.6152 58.2415 61.9124 59.3265 62.5068 60.3506ZM79.5654 59.0293L79.5439 56.7627C79.5439 55.8389 79.4652 55.1908 79.3076 54.8184C79.1501 54.446 78.9495 54.1667 78.7061 53.9805C78.4626 53.7871 78.1331 53.6904 77.7178 53.6904C77.3096 53.6904 76.4395 54.0127 75.1074 54.6572C74.9284 54.7646 74.8353 54.8649 74.8281 54.958V60.7373C74.8281 61.4606 75.2148 61.876 75.9883 61.9834C76.3249 62.0335 76.4932 62.1159 76.4932 62.2305C76.4932 62.3379 76.4574 62.3988 76.3857 62.4131H71.5947C71.5231 62.3988 71.4873 62.3486 71.4873 62.2627C71.4873 62.1266 71.6556 62.0335 71.9922 61.9834C72.7656 61.876 73.1523 61.4606 73.1523 60.7373V54.5713C73.1523 54.2705 72.9876 54.0628 72.6582 53.9482C72.515 53.8981 72.361 53.8587 72.1963 53.8301C72.0316 53.7943 71.8991 53.762 71.7988 53.7334C71.7057 53.7048 71.6449 53.6797 71.6162 53.6582C71.5947 53.6296 71.584 53.5758 71.584 53.4971C71.584 53.4111 71.6377 53.3395 71.7451 53.2822L74.4844 51.9932C74.5703 51.9502 74.624 51.9287 74.6455 51.9287C74.7673 51.9287 74.8281 52.0146 74.8281 52.1865V53.8623C74.8496 53.9339 74.8783 53.9697 74.9141 53.9697C74.957 53.9697 75.111 53.9053 75.376 53.7764C75.9919 53.4684 76.6113 53.1712 77.2344 52.8848C77.8574 52.5983 78.373 52.4551 78.7812 52.4551C80.4355 52.4551 81.2627 53.9626 81.2627 56.9775L81.166 60.1143V60.7373C81.166 61.2959 81.4453 61.6611 82.0039 61.833C82.2402 61.9118 82.4658 61.9691 82.6807 62.0049C82.9027 62.0335 83.0459 62.0622 83.1104 62.0908C83.182 62.1195 83.2178 62.1768 83.2178 62.2627C83.2178 62.3486 83.182 62.3988 83.1104 62.4131H77.9326C77.861 62.3988 77.8252 62.3486 77.8252 62.2627C77.8252 62.1266 77.9935 62.0335 78.3301 61.9834C79.0964 61.876 79.4795 61.432 79.4795 60.6514C79.5368 60.2933 79.5654 59.7526 79.5654 59.0293ZM89.3945 55.0654C89.3945 55.223 89.3337 55.3018 89.2119 55.3018C89.0973 55.3018 89.0078 55.2158 88.9434 55.0439C88.7715 54.5713 88.5137 54.1523 88.1699 53.7871C87.8333 53.4219 87.4144 53.2393 86.9131 53.2393C86.2542 53.2393 85.8102 53.5687 85.5811 54.2275C85.5094 54.4495 85.4736 54.6787 85.4736 54.915C85.4736 55.1514 85.624 55.4163 85.9248 55.71C86.2256 55.9964 86.7197 56.3402 87.4072 56.7412C88.0947 57.1423 88.596 57.4824 88.9111 57.7617C89.6273 58.3991 89.9854 59.1367 89.9854 59.9746C89.9854 60.8125 89.6774 61.4785 89.0615 61.9727C88.4456 62.4596 87.7295 62.7031 86.9131 62.7031C86.4762 62.7031 86.0788 62.6423 85.7207 62.5205C85.3698 62.4059 85.1657 62.3486 85.1084 62.3486C85.0583 62.3486 84.9723 62.4059 84.8506 62.5205C84.736 62.6423 84.6429 62.7031 84.5713 62.7031H84.3887C84.3457 62.7031 84.292 62.3164 84.2275 61.543C84.1631 60.7695 84.1309 60.3112 84.1309 60.168C84.1309 60.0247 84.1416 59.946 84.1631 59.9316C84.1917 59.9173 84.2347 59.9102 84.292 59.9102C84.3493 59.9102 84.3958 59.9281 84.4316 59.9639C84.4746 59.9997 84.5104 60.0462 84.5391 60.1035C84.5677 60.1536 84.5892 60.2074 84.6035 60.2646C84.625 60.3219 84.6715 60.4294 84.7432 60.5869C85.2301 61.6253 85.9821 62.1445 86.999 62.1445C87.4502 62.1445 87.8118 61.9798 88.084 61.6504C88.3561 61.3138 88.4922 60.9414 88.4922 60.5332C88.4922 60.125 88.3848 59.7812 88.1699 59.502C87.9551 59.2227 87.6865 58.9684 87.3643 58.7393C87.0492 58.5101 86.7054 58.2881 86.333 58.0732C84.8864 57.2282 84.1631 56.2936 84.1631 55.2695C84.1631 54.5033 84.4925 53.8444 85.1514 53.293C85.8102 52.7344 86.487 52.4551 87.1816 52.4551C87.8763 52.4551 88.3883 52.5303 88.7178 52.6807C89.0544 52.8311 89.2513 52.96 89.3086 53.0674C89.3659 53.1676 89.3945 53.5042 89.3945 54.0771V55.0654ZM94.1641 54.1523C94.1211 54.1523 94.0996 54.1846 94.0996 54.249V60.1787C94.0996 60.6084 94.1927 60.945 94.3789 61.1885C94.5723 61.432 94.8158 61.5537 95.1094 61.5537C95.403 61.5537 95.6572 61.5072 95.8721 61.4141C96.0941 61.3138 96.2839 61.2064 96.4414 61.0918C96.6061 60.9772 96.7529 60.8734 96.8818 60.7803C97.0107 60.68 97.1253 60.6299 97.2256 60.6299C97.3258 60.6299 97.376 60.6549 97.376 60.7051C97.376 60.877 97.3581 60.988 97.3223 61.0381C96.4629 62.1481 95.6322 62.7031 94.8301 62.7031C94.0352 62.7031 93.4336 62.4525 93.0254 61.9512C92.6243 61.4427 92.4238 60.8376 92.4238 60.1357V54.1523H91.6182C91.4176 54.1523 91.3102 54.0879 91.2959 53.959C91.2887 53.8301 91.3102 53.7477 91.3604 53.7119C91.7399 53.4684 92.2627 53.0316 92.9287 52.4014C93.0003 52.3226 93.097 52.2044 93.2188 52.0469C93.3405 51.8893 93.516 51.6745 93.7451 51.4023C93.9814 51.1302 94.1605 50.9941 94.2822 50.9941C94.404 50.9941 94.4648 51.0443 94.4648 51.1445C94.4648 51.1589 94.3431 51.6279 94.0996 52.5518C94.0996 52.6807 94.1569 52.7487 94.2715 52.7559H97.0107C97.3258 52.7559 97.4834 53.1999 97.4834 54.0879C97.4834 54.1309 97.4548 54.1523 97.3975 54.1523H94.1641ZM100.244 56.752C100.122 56.752 100.062 57.0133 100.062 57.5361C100.062 58.6462 100.391 59.5771 101.05 60.3291C101.709 61.0811 102.525 61.457 103.499 61.457C104.48 61.457 105.422 61.0345 106.324 60.1895C106.339 60.1751 106.356 60.168 106.378 60.168H106.432C106.475 60.168 106.514 60.2038 106.55 60.2754C106.593 60.3398 106.632 60.3828 106.668 60.4043C105.837 61.4141 104.86 62.1123 103.735 62.499C103.349 62.6351 102.912 62.7031 102.425 62.7031C101.938 62.7031 101.444 62.5706 100.942 62.3057C100.441 62.0335 100.011 61.679 99.6533 61.2422C98.8942 60.3327 98.5146 59.2012 98.5146 57.8477C98.5146 56.487 98.9264 55.248 99.75 54.1309C100.581 53.0137 101.719 52.4551 103.166 52.4551C104.204 52.4551 105.053 52.9206 105.712 53.8516C106.371 54.7754 106.7 55.5882 106.7 56.29C106.7 56.598 106.625 56.752 106.475 56.752H100.244ZM100.362 55.7207C100.362 55.8568 100.427 55.9248 100.556 55.9248H104.605C104.792 55.9248 104.885 55.8138 104.885 55.5918C104.885 55.0762 104.652 54.5498 104.187 54.0127C103.728 53.4684 103.223 53.1963 102.672 53.1963C102.135 53.1963 101.644 53.4398 101.2 53.9268C100.763 54.4137 100.484 54.9688 100.362 55.5918V55.7207ZM112.469 62.0049C112.805 62.0479 112.974 62.1338 112.974 62.2627C112.974 62.3486 112.938 62.3988 112.866 62.4131H108.075C108.004 62.3988 107.968 62.3486 107.968 62.2627C107.968 62.1338 108.136 62.0479 108.473 62.0049C109.246 61.8903 109.633 61.4821 109.633 60.7803V47.3848C109.633 47.084 109.468 46.8763 109.139 46.7617C108.995 46.7116 108.841 46.6722 108.677 46.6436C108.512 46.6077 108.38 46.5755 108.279 46.5469C108.186 46.5182 108.125 46.4932 108.097 46.4717C108.075 46.443 108.064 46.3893 108.064 46.3105C108.064 46.2246 108.118 46.153 108.226 46.0957L110.965 44.8066C111.051 44.7637 111.104 44.7422 111.126 44.7422C111.248 44.7422 111.309 44.8281 111.309 45V60.7803C111.309 61.4821 111.695 61.8903 112.469 62.0049ZM118.076 62.0049C118.413 62.0479 118.581 62.1338 118.581 62.2627C118.581 62.3486 118.545 62.3988 118.474 62.4131H113.683C113.611 62.3988 113.575 62.3486 113.575 62.2627C113.575 62.1338 113.743 62.0479 114.08 62.0049C114.854 61.8903 115.24 61.4821 115.24 60.7803V47.3848C115.24 47.084 115.076 46.8763 114.746 46.7617C114.603 46.7116 114.449 46.6722 114.284 46.6436C114.119 46.6077 113.987 46.5755 113.887 46.5469C113.794 46.5182 113.733 46.4932 113.704 46.4717C113.683 46.443 113.672 46.3893 113.672 46.3105C113.672 46.2246 113.726 46.153 113.833 46.0957L116.572 44.8066C116.658 44.7637 116.712 44.7422 116.733 44.7422C116.855 44.7422 116.916 44.8281 116.916 45V60.7803C116.916 61.4821 117.303 61.8903 118.076 62.0049ZM126.358 60.6406C126.358 60.8268 126.444 60.9772 126.616 61.0918C126.795 61.1992 126.999 61.2529 127.229 61.2529C127.458 61.2529 127.647 61.1956 127.798 61.0811C127.955 60.9593 128.063 60.8984 128.12 60.8984C128.177 60.8984 128.206 60.9772 128.206 61.1348C128.206 61.2852 128.134 61.4141 127.991 61.5215C126.917 62.3092 126.19 62.7031 125.811 62.7031C125.352 62.7031 124.98 62.2269 124.693 61.2744C124.672 61.2028 124.654 61.1706 124.64 61.1777C123.752 61.8438 123.193 62.2448 122.964 62.3809C122.377 62.7174 121.786 62.7712 121.191 62.542C120.604 62.3128 120.178 61.9333 119.913 61.4033C119.784 61.1312 119.72 60.8411 119.72 60.5332C119.72 59.9245 119.945 59.4411 120.396 59.083C120.848 58.7249 121.707 58.3812 122.975 58.0518C123.404 57.9372 123.787 57.7904 124.124 57.6113C124.461 57.4323 124.636 57.3177 124.65 57.2676C124.672 57.2174 124.683 57.1709 124.683 57.1279V55.0654C124.683 54.2562 124.368 53.6868 123.737 53.3574C123.53 53.25 123.279 53.1963 122.985 53.1963C122.699 53.1963 122.405 53.3109 122.104 53.54C121.811 53.7692 121.664 54.0951 121.664 54.5176L121.718 54.9365C121.675 55.0225 121.417 55.1657 120.944 55.3662C120.472 55.5667 120.2 55.6742 120.128 55.6885C120.013 55.6885 119.956 55.5524 119.956 55.2803C119.956 55.001 120.038 54.693 120.203 54.3564C120.368 54.0199 120.601 53.7119 120.901 53.4326C121.603 52.7809 122.405 52.4551 123.308 52.4551C124.21 52.4551 124.944 52.7057 125.51 53.207C126.076 53.7012 126.358 54.292 126.358 54.9795V60.6406ZM121.406 60.3291C121.406 60.6729 121.539 60.9736 121.804 61.2314C122.069 61.4821 122.369 61.6074 122.706 61.6074C123.05 61.6074 123.465 61.4642 123.952 61.1777C124.439 60.8841 124.683 60.5833 124.683 60.2754V58.0947C124.683 58.016 124.665 57.9766 124.629 57.9766C124.593 57.9766 124.568 57.9801 124.554 57.9873L122.062 59.1475C121.804 59.3337 121.628 59.4912 121.535 59.6201C121.449 59.749 121.406 59.9854 121.406 60.3291ZM131.848 54.1523C131.805 54.1523 131.783 54.1846 131.783 54.249V60.1787C131.783 60.6084 131.876 60.945 132.062 61.1885C132.256 61.432 132.499 61.5537 132.793 61.5537C133.087 61.5537 133.341 61.5072 133.556 61.4141C133.778 61.3138 133.967 61.2064 134.125 61.0918C134.29 60.9772 134.437 60.8734 134.565 60.7803C134.694 60.68 134.809 60.6299 134.909 60.6299C135.009 60.6299 135.06 60.6549 135.06 60.7051C135.06 60.877 135.042 60.988 135.006 61.0381C134.146 62.1481 133.316 62.7031 132.514 62.7031C131.719 62.7031 131.117 62.4525 130.709 61.9512C130.308 61.4427 130.107 60.8376 130.107 60.1357V54.1523H129.302C129.101 54.1523 128.994 54.0879 128.979 53.959C128.972 53.8301 128.994 53.7477 129.044 53.7119C129.424 53.4684 129.946 53.0316 130.612 52.4014C130.684 52.3226 130.781 52.2044 130.902 52.0469C131.024 51.8893 131.2 51.6745 131.429 51.4023C131.665 51.1302 131.844 50.9941 131.966 50.9941C132.088 50.9941 132.148 51.0443 132.148 51.1445C132.148 51.1589 132.027 51.6279 131.783 52.5518C131.783 52.6807 131.84 52.7487 131.955 52.7559H134.694C135.009 52.7559 135.167 53.1999 135.167 54.0879C135.167 54.1309 135.138 54.1523 135.081 54.1523H131.848ZM136.198 62.4131C136.127 62.3988 136.091 62.3486 136.091 62.2627C136.091 62.1338 136.259 62.0479 136.596 62.0049C137.369 61.8903 137.756 61.4821 137.756 60.7803V55.0977C137.756 54.7969 137.591 54.5892 137.262 54.4746C137.118 54.4245 136.965 54.3851 136.8 54.3564C136.635 54.3206 136.503 54.2884 136.402 54.2598C136.309 54.2311 136.248 54.2061 136.22 54.1846C136.198 54.1559 136.188 54.1022 136.188 54.0234C136.188 53.9375 136.241 53.8659 136.349 53.8086L139.088 52.5195C139.174 52.4766 139.228 52.4551 139.249 52.4551C139.371 52.4551 139.432 52.541 139.432 52.7129V60.7803C139.432 61.4821 139.818 61.8903 140.592 62.0049C140.928 62.0479 141.097 62.123 141.097 62.2305C141.097 62.3379 141.061 62.3988 140.989 62.4131H136.198ZM138.433 49.4365C138.139 49.4365 137.878 49.3434 137.648 49.1572C137.426 48.971 137.315 48.7132 137.315 48.3838C137.315 48.0472 137.423 47.7822 137.638 47.5889C137.853 47.3955 138.107 47.2988 138.4 47.2988C138.701 47.2988 138.952 47.4134 139.152 47.6426C139.36 47.8717 139.464 48.1188 139.464 48.3838C139.464 48.6488 139.367 48.8923 139.174 49.1143C138.98 49.3291 138.733 49.4365 138.433 49.4365ZM142.439 57.5898C142.439 56.179 142.937 54.9688 143.933 53.959C144.935 52.9421 146.135 52.4336 147.531 52.4336C148.928 52.4336 150.142 52.9277 151.173 53.916C152.204 54.8971 152.72 56.111 152.72 57.5576C152.72 59.0042 152.229 60.2253 151.248 61.2207C150.274 62.209 149.049 62.7031 147.574 62.7031C146.099 62.7031 144.874 62.2018 143.9 61.1992C142.926 60.1966 142.439 58.9935 142.439 57.5898ZM145.114 60.3506C145.816 61.5322 146.772 62.123 147.982 62.123C148.921 62.123 149.637 61.7471 150.131 60.9951C150.632 60.2432 150.883 59.3193 150.883 58.2236C150.883 57.1279 150.532 56.0036 149.83 54.8506C149.135 53.6976 148.197 53.1211 147.016 53.1211C146.149 53.1211 145.465 53.4971 144.964 54.249C144.47 54.9938 144.223 55.9427 144.223 57.0957C144.223 58.2415 144.52 59.3265 145.114 60.3506ZM162.173 59.0293L162.151 56.7627C162.151 55.8389 162.073 55.1908 161.915 54.8184C161.757 54.446 161.557 54.1667 161.313 53.9805C161.07 53.7871 160.741 53.6904 160.325 53.6904C159.917 53.6904 159.047 54.0127 157.715 54.6572C157.536 54.7646 157.443 54.8649 157.436 54.958V60.7373C157.436 61.4606 157.822 61.876 158.596 61.9834C158.932 62.0335 159.101 62.1159 159.101 62.2305C159.101 62.3379 159.065 62.3988 158.993 62.4131H154.202C154.131 62.3988 154.095 62.3486 154.095 62.2627C154.095 62.1266 154.263 62.0335 154.6 61.9834C155.373 61.876 155.76 61.4606 155.76 60.7373V54.5713C155.76 54.2705 155.595 54.0628 155.266 53.9482C155.122 53.8981 154.968 53.8587 154.804 53.8301C154.639 53.7943 154.507 53.762 154.406 53.7334C154.313 53.7048 154.252 53.6797 154.224 53.6582C154.202 53.6296 154.191 53.5758 154.191 53.4971C154.191 53.4111 154.245 53.3395 154.353 53.2822L157.092 51.9932C157.178 51.9502 157.231 51.9287 157.253 51.9287C157.375 51.9287 157.436 52.0146 157.436 52.1865V53.8623C157.457 53.9339 157.486 53.9697 157.521 53.9697C157.564 53.9697 157.718 53.9053 157.983 53.7764C158.599 53.4684 159.219 53.1712 159.842 52.8848C160.465 52.5983 160.98 52.4551 161.389 52.4551C163.043 52.4551 163.87 53.9626 163.87 56.9775L163.773 60.1143V60.7373C163.773 61.2959 164.053 61.6611 164.611 61.833C164.848 61.9118 165.073 61.9691 165.288 62.0049C165.51 62.0335 165.653 62.0622 165.718 62.0908C165.789 62.1195 165.825 62.1768 165.825 62.2627C165.825 62.3486 165.789 62.3988 165.718 62.4131H160.54C160.468 62.3988 160.433 62.3486 160.433 62.2627C160.433 62.1266 160.601 62.0335 160.938 61.9834C161.704 61.876 162.087 61.432 162.087 60.6514C162.144 60.2933 162.173 59.7526 162.173 59.0293ZM179.328 52.9062C179.643 53.0137 179.837 53.0674 179.908 53.0674C179.98 53.0674 180.023 53.0674 180.037 53.0674C180.059 53.0602 180.084 53.0137 180.112 52.9277V47.3848C180.112 47.084 179.948 46.8763 179.618 46.7617C179.475 46.7116 179.321 46.6722 179.156 46.6436C178.992 46.6077 178.859 46.5755 178.759 46.5469C178.666 46.5182 178.605 46.4932 178.576 46.4717C178.555 46.443 178.544 46.3893 178.544 46.3105C178.544 46.2246 178.598 46.153 178.705 46.0957L181.444 44.8066C181.53 44.7637 181.584 44.7422 181.605 44.7422C181.727 44.7422 181.788 44.8281 181.788 45V60.2969C181.824 60.612 181.913 60.8376 182.057 60.9736C182.2 61.1097 182.433 61.1777 182.755 61.1777L183.378 61.1348C183.421 61.1348 183.442 61.1777 183.442 61.2637C183.442 61.3424 183.389 61.4069 183.281 61.457L180.424 62.6387C180.338 62.6816 180.263 62.7031 180.198 62.7031C180.141 62.7031 180.112 62.6136 180.112 62.4346V61.457C180.112 61.3854 180.094 61.3496 180.059 61.3496C180.008 61.3496 179.711 61.5107 179.167 61.833C177.498 62.8213 176.091 62.9681 174.945 62.2734C174.029 61.7148 173.409 60.8304 173.087 59.6201C172.937 59.0544 172.861 58.4564 172.861 57.8262C172.861 57.1888 172.99 56.5586 173.248 55.9355C173.513 55.3053 173.875 54.7539 174.333 54.2812C175.343 53.25 176.56 52.7344 177.985 52.7344C178.565 52.7344 179.013 52.7917 179.328 52.9062ZM174.483 57.5146C174.483 58.596 174.784 59.5449 175.386 60.3613C175.987 61.1706 176.825 61.5752 177.899 61.5752C178.372 61.5752 178.859 61.4606 179.36 61.2314C179.862 60.9951 180.112 60.8161 180.112 60.6943V55.1514C180.112 55.0153 180.019 54.8542 179.833 54.668C179.26 53.8802 178.497 53.4863 177.545 53.4863C176.6 53.4863 175.851 53.8874 175.3 54.6895C174.756 55.4844 174.483 56.4261 174.483 57.5146ZM191.757 61.4678C191.721 61.346 191.674 61.3066 191.617 61.3496C191.56 61.3854 191.327 61.5072 190.919 61.7148C189.58 62.3809 188.463 62.7139 187.567 62.7139C186.672 62.7139 186.028 62.4274 185.634 61.8545C185.491 61.6396 185.419 61.3747 185.419 61.0596V54.5068C185.397 54.2992 185.304 54.1201 185.14 53.9697C184.918 53.7835 184.685 53.6833 184.441 53.6689C184.205 53.6546 184.087 53.583 184.087 53.4541C184.087 53.318 184.144 53.2357 184.259 53.207L186.719 52.498C186.805 52.4694 186.887 52.4551 186.966 52.4551C187.052 52.4551 187.095 52.516 187.095 52.6377V59.8457C187.095 60.347 187.317 60.7337 187.761 61.0059C188.205 61.278 188.771 61.4141 189.458 61.4141C190.153 61.4141 190.776 61.2028 191.327 60.7803C191.499 60.6442 191.642 60.4938 191.757 60.3291V54.5068C191.735 54.2992 191.642 54.1201 191.478 53.9697C191.256 53.7835 191.023 53.6833 190.779 53.6689C190.543 53.6546 190.425 53.583 190.425 53.4541C190.425 53.318 190.482 53.2357 190.597 53.207L193.057 52.498C193.143 52.4694 193.225 52.4551 193.304 52.4551C193.39 52.4551 193.433 52.5267 193.433 52.6699V60.2969C193.468 60.612 193.558 60.8376 193.701 60.9736C193.844 61.1097 194.077 61.1777 194.399 61.1777L195.022 61.1348C195.065 61.1348 195.087 61.1777 195.087 61.2637C195.087 61.3424 195.033 61.4069 194.926 61.457L192.068 62.6387C191.982 62.6816 191.907 62.7031 191.843 62.7031C191.785 62.7031 191.757 62.6136 191.757 62.4346V61.4678ZM202.155 62.4131C202.098 62.4131 202.069 62.3844 202.069 62.3271V62.0693C202.069 62.012 202.098 61.9834 202.155 61.9834H202.413C203.029 61.9834 203.566 61.8545 204.024 61.5967C204.211 61.4893 204.365 61.3245 204.486 61.1025C204.608 60.8734 204.669 60.6191 204.669 60.3398V48.9746C204.669 48.5306 204.382 48.1904 203.81 47.9541C203.409 47.7822 202.982 47.6963 202.531 47.6963H202.295C202.238 47.6963 202.209 47.6676 202.209 47.6104V47.3525C202.209 47.2952 202.238 47.2666 202.295 47.2666H209.567C209.625 47.2666 209.653 47.2952 209.653 47.3525V47.6104C209.653 47.6676 209.625 47.6963 209.567 47.6963H209.105C208.368 47.6963 207.716 47.8001 207.15 48.0078C206.986 48.0651 206.878 48.1618 206.828 48.2979C206.785 48.4268 206.764 48.6523 206.764 48.9746V60.8877C206.778 61.0094 206.842 61.124 206.957 61.2314C207.072 61.3389 207.201 61.3926 207.344 61.3926H211.587C212.224 61.3926 212.851 61.0166 213.467 60.2646C213.632 60.0641 213.836 59.7992 214.079 59.4697C214.323 59.1331 214.473 58.9434 214.53 58.9004C214.759 58.7285 214.874 58.7321 214.874 58.9111C214.874 58.9541 214.863 58.9971 214.842 59.04L213.22 62.2197C213.155 62.3486 213.08 62.4131 212.994 62.4131H202.155ZM222.351 60.6406C222.351 60.8268 222.437 60.9772 222.608 61.0918C222.787 61.1992 222.992 61.2529 223.221 61.2529C223.45 61.2529 223.64 61.1956 223.79 61.0811C223.948 60.9593 224.055 60.8984 224.112 60.8984C224.17 60.8984 224.198 60.9772 224.198 61.1348C224.198 61.2852 224.127 61.4141 223.983 61.5215C222.909 62.3092 222.182 62.7031 221.803 62.7031C221.344 62.7031 220.972 62.2269 220.686 61.2744C220.664 61.2028 220.646 61.1706 220.632 61.1777C219.744 61.8438 219.185 62.2448 218.956 62.3809C218.369 62.7174 217.778 62.7712 217.184 62.542C216.596 62.3128 216.17 61.9333 215.905 61.4033C215.776 61.1312 215.712 60.8411 215.712 60.5332C215.712 59.9245 215.938 59.4411 216.389 59.083C216.84 58.7249 217.699 58.3812 218.967 58.0518C219.396 57.9372 219.78 57.7904 220.116 57.6113C220.453 57.4323 220.628 57.3177 220.643 57.2676C220.664 57.2174 220.675 57.1709 220.675 57.1279V55.0654C220.675 54.2562 220.36 53.6868 219.729 53.3574C219.522 53.25 219.271 53.1963 218.978 53.1963C218.691 53.1963 218.397 53.3109 218.097 53.54C217.803 53.7692 217.656 54.0951 217.656 54.5176L217.71 54.9365C217.667 55.0225 217.409 55.1657 216.937 55.3662C216.464 55.5667 216.192 55.6742 216.12 55.6885C216.006 55.6885 215.948 55.5524 215.948 55.2803C215.948 55.001 216.031 54.693 216.195 54.3564C216.36 54.0199 216.593 53.7119 216.894 53.4326C217.595 52.7809 218.397 52.4551 219.3 52.4551C220.202 52.4551 220.936 52.7057 221.502 53.207C222.068 53.7012 222.351 54.292 222.351 54.9795V60.6406ZM217.398 60.3291C217.398 60.6729 217.531 60.9736 217.796 61.2314C218.061 61.4821 218.362 61.6074 218.698 61.6074C219.042 61.6074 219.457 61.4642 219.944 61.1777C220.431 60.8841 220.675 60.5833 220.675 60.2754V58.0947C220.675 58.016 220.657 57.9766 220.621 57.9766C220.585 57.9766 220.56 57.9801 220.546 57.9873L218.054 59.1475C217.796 59.3337 217.62 59.4912 217.527 59.6201C217.441 59.749 217.398 59.9854 217.398 60.3291ZM233.318 61.2852C232.33 62.2305 231.22 62.7031 229.988 62.7031C229.544 62.7031 228.939 62.6208 228.173 62.4561C228.051 62.4561 227.983 62.499 227.969 62.585C227.962 62.6709 227.954 62.7604 227.947 62.8535V67.4404C227.947 67.9775 228.259 68.3356 228.882 68.5146C229.154 68.5863 229.408 68.6364 229.645 68.665C229.881 68.7008 230.031 68.7331 230.096 68.7617C230.167 68.7904 230.203 68.8441 230.203 68.9229C230.203 69.0088 230.167 69.0589 230.096 69.0732H224.714C224.642 69.0589 224.606 69.0088 224.606 68.9229C224.606 68.7939 224.775 68.708 225.111 68.665C225.885 68.5505 226.271 68.1423 226.271 67.4404V54.5605C226.271 54.2598 226.107 54.0521 225.777 53.9375C225.634 53.8874 225.48 53.848 225.315 53.8193C225.151 53.7835 225.018 53.7513 224.918 53.7227C224.825 53.694 224.764 53.6689 224.735 53.6475C224.714 53.6188 224.703 53.5651 224.703 53.4863C224.703 53.4004 224.757 53.3288 224.864 53.2715L227.604 51.9609C227.661 51.9323 227.718 51.918 227.775 51.918C227.89 51.918 227.947 52.0039 227.947 52.1758V53.54C227.947 53.6188 227.987 53.6582 228.065 53.6582C228.151 53.6582 228.352 53.5544 228.667 53.3467C229.576 52.7594 230.522 52.4658 231.503 52.4658C232.19 52.4658 232.821 52.7451 233.394 53.3037C234.146 54.0342 234.647 55.0511 234.897 56.3545C234.969 56.7269 235.005 57.1243 235.005 57.5469C235.005 57.9622 234.937 58.4027 234.801 58.8682C234.529 59.792 234.035 60.5977 233.318 61.2852ZM230.246 53.583C229.272 53.583 228.506 53.8623 227.947 54.4209V60.458C227.947 60.8161 228.008 61.0488 228.13 61.1562C228.445 61.4284 228.928 61.6396 229.58 61.79C230.869 62.0837 231.872 61.7757 232.588 60.8662C233.096 60.2145 233.351 59.4268 233.351 58.5029C233.351 56.7054 232.946 55.359 232.137 54.4639C231.65 53.9196 231.02 53.626 230.246 53.583ZM236.938 62.4131C236.867 62.3988 236.831 62.3486 236.831 62.2627C236.831 62.1338 236.999 62.0479 237.336 62.0049C238.109 61.8903 238.496 61.4821 238.496 60.7803V55.0977C238.496 54.7969 238.331 54.5892 238.002 54.4746C237.859 54.4245 237.705 54.3851 237.54 54.3564C237.375 54.3206 237.243 54.2884 237.143 54.2598C237.049 54.2311 236.989 54.2061 236.96 54.1846C236.938 54.1559 236.928 54.1022 236.928 54.0234C236.928 53.9375 236.981 53.8659 237.089 53.8086L239.828 52.5195C239.914 52.4766 239.968 52.4551 239.989 52.4551C240.111 52.4551 240.172 52.541 240.172 52.7129V60.7803C240.172 61.4821 240.559 61.8903 241.332 62.0049C241.669 62.0479 241.837 62.123 241.837 62.2305C241.837 62.3379 241.801 62.3988 241.729 62.4131H236.938ZM239.173 49.4365C238.879 49.4365 238.618 49.3434 238.389 49.1572C238.167 48.971 238.056 48.7132 238.056 48.3838C238.056 48.0472 238.163 47.7822 238.378 47.5889C238.593 47.3955 238.847 47.2988 239.141 47.2988C239.441 47.2988 239.692 47.4134 239.893 47.6426C240.1 47.8717 240.204 48.1188 240.204 48.3838C240.204 48.6488 240.107 48.8923 239.914 49.1143C239.721 49.3291 239.474 49.4365 239.173 49.4365ZM251.011 59.0293L250.989 56.7627C250.989 55.8389 250.91 55.1908 250.753 54.8184C250.595 54.446 250.395 54.1667 250.151 53.9805C249.908 53.7871 249.578 53.6904 249.163 53.6904C248.755 53.6904 247.885 54.0127 246.553 54.6572C246.374 54.7646 246.281 54.8649 246.273 54.958V60.7373C246.273 61.4606 246.66 61.876 247.434 61.9834C247.77 62.0335 247.938 62.1159 247.938 62.2305C247.938 62.3379 247.903 62.3988 247.831 62.4131H243.04C242.968 62.3988 242.933 62.3486 242.933 62.2627C242.933 62.1266 243.101 62.0335 243.438 61.9834C244.211 61.876 244.598 61.4606 244.598 60.7373V54.5713C244.598 54.2705 244.433 54.0628 244.104 53.9482C243.96 53.8981 243.806 53.8587 243.642 53.8301C243.477 53.7943 243.344 53.762 243.244 53.7334C243.151 53.7048 243.09 53.6797 243.062 53.6582C243.04 53.6296 243.029 53.5758 243.029 53.4971C243.029 53.4111 243.083 53.3395 243.19 53.2822L245.93 51.9932C246.016 51.9502 246.069 51.9287 246.091 51.9287C246.213 51.9287 246.273 52.0146 246.273 52.1865V53.8623C246.295 53.9339 246.324 53.9697 246.359 53.9697C246.402 53.9697 246.556 53.9053 246.821 53.7764C247.437 53.4684 248.057 53.1712 248.68 52.8848C249.303 52.5983 249.818 52.4551 250.227 52.4551C251.881 52.4551 252.708 53.9626 252.708 56.9775L252.611 60.1143V60.7373C252.611 61.2959 252.891 61.6611 253.449 61.833C253.686 61.9118 253.911 61.9691 254.126 62.0049C254.348 62.0335 254.491 62.0622 254.556 62.0908C254.627 62.1195 254.663 62.1768 254.663 62.2627C254.663 62.3486 254.627 62.3988 254.556 62.4131H249.378C249.306 62.3988 249.271 62.3486 249.271 62.2627C249.271 62.1266 249.439 62.0335 249.775 61.9834C250.542 61.876 250.925 61.432 250.925 60.6514C250.982 60.2933 251.011 59.7526 251.011 59.0293Z" fill="#EFB85F"/>
<line x1="213.083" y1="157.716" x2="216.446" y2="143.387" stroke="#EFB85F" stroke-dasharray="4 4"/>
<line x1="167.397" y1="219.246" x2="200.289" y2="180.726" stroke="#EFB85F" stroke-dasharray="4 4"/>
<line x1="121.216" y1="242.505" x2="146.039" y2="233.197" stroke="#EFB85F" stroke-dasharray="4 4"/>
<line x1="181.422" y1="297.431" x2="162.805" y2="241.581" stroke="#EFB85F" stroke-dasharray="4 4"/>
<line x1="82.9092" y1="323.485" x2="104.629" y2="259.878" stroke="#EFB85F" stroke-dasharray="4 4"/>
<line x1="103.09" y1="234.636" x2="86.0245" y2="194.3" stroke="#EFB85F" stroke-dasharray="4 4"/>
<line x1="88.4585" y1="172.808" x2="97.2346" y2="164.032" stroke="#EFB85F" stroke-dasharray="4 4"/>
<path d="M218.355 120.413L222.86 128.072L231.541 132.049L222.86 136.024L218.355 143.684L213.848 136.024L205.167 132.049L213.848 128.072L218.355 120.413Z" fill="#EFB85F"/>
<path d="M184.224 298.824L188.729 306.483L197.41 310.46L188.729 314.435L184.224 322.095L179.717 314.435L171.036 310.46L179.717 306.483L184.224 298.824Z" fill="#EFB85F"/>
<path d="M105.103 143.684L109.608 151.343L118.289 155.32L109.608 159.295L105.103 166.955L100.596 159.295L91.9151 155.32L100.596 151.343L105.103 143.684Z" fill="#EFB85F"/>
<path d="M209.047 159.198L213.552 166.857L222.233 170.833L213.552 174.808L209.047 182.469L204.54 174.808L195.859 170.833L204.54 166.857L209.047 159.198Z" fill="#EFB85F"/>
<path d="M108.205 235.217L112.711 242.876L121.392 246.852L112.711 250.827L108.205 258.488L103.698 250.827L95.0177 246.852L103.698 242.876L108.205 235.217Z" fill="#EFB85F"/>
<path d="M78.7288 325.198L83.2341 332.857L91.9149 336.834L83.2341 340.809L78.7288 348.469L74.2219 340.809L65.5411 336.834L74.2219 332.857L78.7288 325.198Z" fill="#EFB85F"/>
<path d="M80.2806 170.058L84.7859 177.717L93.4667 181.694L84.7859 185.669L80.2806 193.329L75.7737 185.669L67.0929 181.694L75.7737 177.717L80.2806 170.058Z" fill="#EFB85F"/>
<path d="M159.402 218.151L163.907 225.81L172.588 229.787L163.907 233.762L159.402 241.422L154.895 233.762L146.214 229.787L154.895 225.81L159.402 218.151Z" fill="#EFB85F"/>
</g>
</g>
<defs>
<clipPath id="clip0_101_22567">
<rect width="297.638" height="419.528" rx="10" fill="white"/>
</clipPath>
<clipPath id="clip1_101_22567">
<rect width="259" height="381" fill="white" transform="translate(19.041 19.4131)"/>
</clipPath>
</defs>
</svg>
