<svg width="298" height="420" viewBox="0 0 298 420" fill="none" xmlns="http://www.w3.org/2000/svg">
<g clip-path="url(#clip0_71_782)">
<rect width="297.638" height="419.528" rx="10" fill="#032206"/>
<circle cx="38" cy="268" r="1" fill="#EFB85F"/>
<circle cx="252" cy="276" r="1" fill="#EFB85F"/>
<circle cx="212" cy="128" r="1" fill="#EFB85F"/>
<circle cx="242" cy="95" r="1" fill="#EFB85F"/>
<circle cx="126" cy="65" r="1" fill="#EFB85F"/>
<circle cx="60" cy="97" r="1" fill="#EFB85F"/>
<circle cx="188" cy="96" r="1" fill="#EFB85F"/>
<circle cx="75" cy="322" r="1" fill="#EFB85F"/>
<circle cx="165" cy="362" r="1" fill="#EFB85F"/>
<circle cx="67" cy="375" r="1" fill="#EFB85F"/>
<circle cx="115" cy="392" r="1" fill="#EFB85F"/>
<circle cx="165" cy="394" r="1" fill="#EFB85F"/>
<circle cx="216" cy="104" r="1" fill="#EFB85F"/>
<circle cx="163" cy="90" r="1" fill="#EFB85F"/>
<circle cx="163" cy="90" r="1" fill="#EFB85F"/>
<circle cx="22" cy="311" r="1" fill="#EFB85F"/>
<circle cx="142" cy="353" r="1" fill="#EFB85F"/>
<circle cx="56" cy="306" r="1" fill="#EFB85F"/>
<circle cx="89" cy="339" r="1" fill="#EFB85F"/>
<circle cx="89" cy="339" r="1" fill="#EFB85F"/>
<circle cx="230" cy="380" r="1" fill="#EFB85F"/>
<circle cx="236" cy="336" r="1" fill="#EFB85F"/>
<circle cx="236" cy="336" r="1" fill="#EFB85F"/>
<circle cx="210" cy="81" r="1" fill="#EFB85F"/>
<circle cx="275" cy="185" r="1" fill="#EFB85F"/>
<path d="M199 342C199 342.552 198.552 343 198 343C197.448 343 197 342.552 197 342C197 341.448 197.448 341 198 341C198.552 341 199 341.448 199 342Z" fill="#EFB85F"/>
<path d="M229.5 360L230.696 361.975L233 363L230.696 364.025L229.5 366L228.304 364.025L226 363L228.304 361.975L229.5 360Z" fill="#EFB85F"/>
<circle cx="252" cy="318" r="1" fill="#EFB85F"/>
<circle cx="226" cy="79" r="1" fill="#EFB85F"/>
<circle cx="221" cy="305" r="1" fill="#EFB85F"/>
<circle cx="264" cy="157" r="1" fill="#EFB85F"/>
<circle cx="197" cy="371" r="1" fill="#EFB85F"/>
<circle cx="227" cy="344" r="1" fill="#EFB85F"/>
<circle cx="23" cy="156" r="1" fill="#EFB85F"/>
<circle cx="71" cy="81" r="1" fill="#EFB85F"/>
<circle cx="41" cy="78" r="1" fill="#EFB85F"/>
<circle cx="75" cy="73" r="1" fill="#EFB85F"/>
<circle cx="39" cy="142" r="1" fill="#EFB85F"/>
<path d="M33.7303 224.64L38 224.5L33.7303 224.36L35.0694 222.931L33.6397 224.27L33.5 220L33.3603 224.27L31.9306 222.931L33.2697 224.36L29 224.5L33.2697 224.64L31.9306 226.069L33.3603 224.73L33.5 229L33.6397 224.73L35.0694 226.069L33.7303 224.64Z" fill="#EFB85F"/>
<path d="M28.7303 289.64L33 289.5L28.7303 289.36L30.0694 287.931L28.6397 289.27L28.5 285L28.3603 289.27L26.9306 287.931L28.2697 289.36L24 289.5L28.2697 289.64L26.9306 291.069L28.3603 289.73L28.5 294L28.6397 289.73L30.0694 291.069L28.7303 289.64Z" fill="#EFB85F"/>
<path d="M45.7303 347.64L50 347.5L45.7303 347.36L47.0694 345.931L45.6397 347.27L45.5 343L45.3603 347.27L43.9306 345.931L45.2697 347.36L41 347.5L45.2697 347.64L43.9306 349.069L45.3603 347.73L45.5 352L45.6397 347.73L47.0694 349.069L45.7303 347.64Z" fill="#EFB85F"/>
<path d="M126.73 376.64L131 376.5L126.73 376.36L128.069 374.931L126.64 376.27L126.5 372L126.36 376.27L124.931 374.931L126.27 376.36L122 376.5L126.27 376.64L124.931 378.069L126.36 376.73L126.5 381L126.64 376.73L128.069 378.069L126.73 376.64Z" fill="#EFB85F"/>
<path d="M251.73 383.64L256 383.5L251.73 383.36L253.069 381.931L251.64 383.27L251.5 379L251.36 383.27L249.931 381.931L251.27 383.36L247 383.5L251.27 383.64L249.931 385.069L251.36 383.73L251.5 388L251.64 383.73L253.069 385.069L251.73 383.64Z" fill="#EFB85F"/>
<path d="M264.73 219.64L269 219.5L264.73 219.36L266.069 217.931L264.64 219.27L264.5 215L264.36 219.27L262.931 217.931L264.27 219.36L260 219.5L264.27 219.64L262.931 221.069L264.36 219.73L264.5 224L264.64 219.73L266.069 221.069L264.73 219.64Z" fill="#EFB85F"/>
<path d="M264.73 219.64L269 219.5L264.73 219.36L266.069 217.931L264.64 219.27L264.5 215L264.36 219.27L262.931 217.931L264.27 219.36L260 219.5L264.27 219.64L262.931 221.069L264.36 219.73L264.5 224L264.64 219.73L266.069 221.069L264.73 219.64Z" fill="#EFB85F"/>
<path d="M135.73 103.64L140 103.5L135.73 103.36L137.069 101.931L135.64 103.27L135.5 99L135.36 103.27L133.931 101.931L135.27 103.36L131 103.5L135.27 103.64L133.931 105.069L135.36 103.73L135.5 108L135.64 103.73L137.069 105.069L135.73 103.64Z" fill="#EFB85F"/>
<path d="M135.73 103.64L140 103.5L135.73 103.36L137.069 101.931L135.64 103.27L135.5 99L135.36 103.27L133.931 101.931L135.27 103.36L131 103.5L135.27 103.64L133.931 105.069L135.36 103.73L135.5 108L135.64 103.73L137.069 105.069L135.73 103.64Z" fill="#EFB85F"/>
<path d="M135.73 103.64L140 103.5L135.73 103.36L137.069 101.931L135.64 103.27L135.5 99L135.36 103.27L133.931 101.931L135.27 103.36L131 103.5L135.27 103.64L133.931 105.069L135.36 103.73L135.5 108L135.64 103.73L137.069 105.069L135.73 103.64Z" fill="#EFB85F"/>
<path d="M160.73 76.6397L165 76.5L160.73 76.3603L162.069 74.9306L160.64 76.2697L160.5 72L160.36 76.2697L158.931 74.9306L160.27 76.3603L156 76.5L160.27 76.6397L158.931 78.0694L160.36 76.7303L160.5 81L160.64 76.7303L162.069 78.0694L160.73 76.6397Z" fill="#EFB85F"/>
<path d="M193.73 332.64L198 332.5L193.73 332.36L195.069 330.931L193.64 332.27L193.5 328L193.36 332.27L191.931 330.931L193.27 332.36L189 332.5L193.27 332.64L191.931 334.069L193.36 332.73L193.5 337L193.64 332.73L195.069 334.069L193.73 332.64Z" fill="#EFB85F"/>
<path d="M193.73 332.64L198 332.5L193.73 332.36L195.069 330.931L193.64 332.27L193.5 328L193.36 332.27L191.931 330.931L193.27 332.36L189 332.5L193.27 332.64L191.931 334.069L193.36 332.73L193.5 337L193.64 332.73L195.069 334.069L193.73 332.64Z" fill="#EFB85F"/>
<path d="M237.73 270.64L242 270.5L237.73 270.36L239.069 268.931L237.64 270.27L237.5 266L237.36 270.27L235.931 268.931L237.27 270.36L233 270.5L237.27 270.64L235.931 272.069L237.36 270.73L237.5 275L237.64 270.73L239.069 272.069L237.73 270.64Z" fill="#EFB85F"/>
<path d="M250.687 132.405C250.726 132.079 250.791 131.305 250.843 130.693C250.895 129.986 250.986 129.538 251.09 129.497C251.181 129.457 251.596 129.674 251.998 129.973C252.414 130.285 252.777 130.503 252.816 130.462C252.842 130.435 252.595 130 252.271 129.511C251.856 128.913 251.713 128.614 251.83 128.573C251.92 128.546 252.582 128.451 253.296 128.356C255.581 128.084 255.568 127.935 253.257 127.676C252.453 127.581 251.778 127.459 251.752 127.418C251.713 127.364 251.959 126.97 252.271 126.535C252.582 126.086 252.816 125.692 252.777 125.652C252.738 125.624 252.349 125.855 251.92 126.168C251.479 126.494 251.09 126.698 251.038 126.644C250.973 126.576 250.869 125.76 250.778 124.823C250.545 122.377 250.441 122.39 250.194 124.877C250.103 125.815 249.999 126.63 249.948 126.671C249.909 126.712 249.519 126.494 249.078 126.182C248.65 125.855 248.273 125.624 248.234 125.665C248.208 125.692 248.403 126.059 248.688 126.467C248.974 126.861 249.208 127.269 249.208 127.35C249.208 127.445 248.65 127.568 247.741 127.676C245.418 127.935 245.418 128.084 247.754 128.369C248.637 128.478 249.208 128.614 249.208 128.696C249.208 128.777 248.974 129.185 248.688 129.579C248.078 130.435 248.026 130.652 248.52 130.313C248.727 130.19 249.104 129.919 249.376 129.728C249.999 129.307 250.051 129.375 250.168 130.843C250.337 133.003 250.532 133.574 250.687 132.405Z" fill="#EFB85F"/>
<path d="M36.6874 112.405C36.7263 112.079 36.7912 111.305 36.8431 110.693C36.8951 109.986 36.9859 109.538 37.0897 109.497C37.1806 109.457 37.596 109.674 37.9983 109.973C38.4137 110.285 38.7771 110.503 38.8161 110.462C38.842 110.435 38.5954 110 38.2709 109.511C37.8556 108.913 37.7128 108.614 37.8296 108.573C37.9205 108.546 38.5824 108.451 39.2963 108.356C41.5808 108.084 41.5678 107.935 39.2574 107.676C38.4526 107.581 37.7777 107.459 37.7517 107.418C37.7128 107.364 37.9594 106.97 38.2709 106.535C38.5824 106.086 38.8161 105.692 38.7771 105.652C38.7382 105.624 38.3488 105.855 37.9205 106.168C37.4791 106.494 37.0897 106.698 37.0378 106.644C36.9729 106.576 36.8691 105.76 36.7782 104.823C36.5446 102.377 36.4408 102.39 36.1941 104.877C36.1033 105.815 35.9994 106.63 35.9475 106.671C35.9086 106.712 35.5192 106.494 35.0779 106.182C34.6495 105.855 34.2731 105.624 34.2342 105.665C34.2082 105.692 34.4029 106.059 34.6885 106.467C34.974 106.861 35.2077 107.269 35.2077 107.35C35.2077 107.445 34.6495 107.568 33.7409 107.676C31.4175 107.935 31.4175 108.084 33.7539 108.369C34.6365 108.478 35.2077 108.614 35.2077 108.696C35.2077 108.777 34.974 109.185 34.6885 109.579C34.0784 110.435 34.0265 110.652 34.5197 110.313C34.7274 110.19 35.1038 109.919 35.3764 109.728C35.9994 109.307 36.0514 109.375 36.1682 110.843C36.3369 113.003 36.5316 113.574 36.6874 112.405Z" fill="#EFB85F"/>
<path d="M268.687 304.405C268.726 304.079 268.791 303.305 268.843 302.693C268.895 301.986 268.986 301.538 269.09 301.497C269.181 301.457 269.596 301.674 269.998 301.973C270.414 302.285 270.777 302.503 270.816 302.462C270.842 302.435 270.595 302 270.271 301.511C269.856 300.913 269.713 300.614 269.83 300.573C269.92 300.546 270.582 300.451 271.296 300.356C273.581 300.084 273.568 299.935 271.257 299.676C270.453 299.581 269.778 299.459 269.752 299.418C269.713 299.364 269.959 298.97 270.271 298.535C270.582 298.086 270.816 297.692 270.777 297.652C270.738 297.624 270.349 297.855 269.92 298.168C269.479 298.494 269.09 298.698 269.038 298.644C268.973 298.576 268.869 297.76 268.778 296.823C268.545 294.377 268.441 294.39 268.194 296.877C268.103 297.815 267.999 298.63 267.948 298.671C267.909 298.712 267.519 298.494 267.078 298.182C266.65 297.855 266.273 297.624 266.234 297.665C266.208 297.692 266.403 298.059 266.688 298.467C266.974 298.861 267.208 299.269 267.208 299.35C267.208 299.445 266.65 299.568 265.741 299.676C263.418 299.935 263.418 300.084 265.754 300.369C266.637 300.478 267.208 300.614 267.208 300.696C267.208 300.777 266.974 301.185 266.688 301.579C266.078 302.435 266.026 302.652 266.52 302.313C266.727 302.19 267.104 301.919 267.376 301.728C267.999 301.307 268.051 301.375 268.168 302.843C268.337 305.003 268.532 305.574 268.687 304.405Z" fill="#EFB85F"/>
<path d="M54.6874 273.405C54.7263 273.079 54.7912 272.305 54.8431 271.693C54.8951 270.986 54.9859 270.538 55.0897 270.497C55.1806 270.457 55.596 270.674 55.9983 270.973C56.4137 271.285 56.7771 271.503 56.8161 271.462C56.842 271.435 56.5954 271 56.2709 270.511C55.8556 269.913 55.7128 269.614 55.8296 269.573C55.9205 269.546 56.5824 269.451 57.2963 269.356C59.5808 269.084 59.5678 268.935 57.2574 268.676C56.4526 268.581 55.7777 268.459 55.7517 268.418C55.7128 268.364 55.9594 267.97 56.2709 267.535C56.5824 267.086 56.8161 266.692 56.7771 266.652C56.7382 266.624 56.3488 266.855 55.9205 267.168C55.4791 267.494 55.0897 267.698 55.0378 267.644C54.9729 267.576 54.8691 266.76 54.7782 265.823C54.5446 263.377 54.4408 263.39 54.1941 265.877C54.1033 266.815 53.9994 267.63 53.9475 267.671C53.9086 267.712 53.5192 267.494 53.0779 267.182C52.6495 266.855 52.2731 266.624 52.2342 266.665C52.2082 266.692 52.4029 267.059 52.6885 267.467C52.974 267.861 53.2077 268.269 53.2077 268.35C53.2077 268.445 52.6495 268.568 51.7409 268.676C49.4175 268.935 49.4175 269.084 51.7539 269.369C52.6365 269.478 53.2077 269.614 53.2077 269.696C53.2077 269.777 52.974 270.185 52.6885 270.579C52.0784 271.435 52.0265 271.652 52.5197 271.313C52.7274 271.19 53.1038 270.919 53.3764 270.728C53.9994 270.307 54.0514 270.375 54.1682 271.843C54.3369 274.003 54.5316 274.574 54.6874 273.405Z" fill="#EFB85F"/>
<path d="M49.6874 394.405C49.7263 394.079 49.7912 393.305 49.8431 392.693C49.8951 391.986 49.9859 391.538 50.0897 391.497C50.1806 391.457 50.596 391.674 50.9983 391.973C51.4137 392.285 51.7771 392.503 51.8161 392.462C51.842 392.435 51.5954 392 51.2709 391.511C50.8556 390.913 50.7128 390.614 50.8296 390.573C50.9205 390.546 51.5824 390.451 52.2963 390.356C54.5808 390.084 54.5678 389.935 52.2574 389.676C51.4526 389.581 50.7777 389.459 50.7517 389.418C50.7128 389.364 50.9594 388.97 51.2709 388.535C51.5824 388.086 51.8161 387.692 51.7771 387.652C51.7382 387.624 51.3488 387.855 50.9205 388.168C50.4791 388.494 50.0897 388.698 50.0378 388.644C49.9729 388.576 49.8691 387.76 49.7782 386.823C49.5446 384.377 49.4408 384.39 49.1941 386.877C49.1033 387.815 48.9994 388.63 48.9475 388.671C48.9086 388.712 48.5192 388.494 48.0779 388.182C47.6495 387.855 47.2731 387.624 47.2342 387.665C47.2082 387.692 47.4029 388.059 47.6885 388.467C47.974 388.861 48.2077 389.269 48.2077 389.35C48.2077 389.445 47.6495 389.568 46.7409 389.676C44.4175 389.935 44.4175 390.084 46.7539 390.369C47.6365 390.478 48.2077 390.614 48.2077 390.696C48.2077 390.777 47.974 391.185 47.6885 391.579C47.0784 392.435 47.0265 392.652 47.5197 392.313C47.7274 392.19 48.1038 391.919 48.3764 391.728C48.9994 391.307 49.0514 391.375 49.1682 392.843C49.3369 395.003 49.5316 395.574 49.6874 394.405Z" fill="#EFB85F"/>
<path d="M229.5 360L230.696 361.975L233 363L230.696 364.025L229.5 366L228.304 364.025L226 363L228.304 361.975L229.5 360Z" fill="#EFB85F"/>
<path d="M44.5002 364L45.696 365.975L48 367L45.696 368.025L44.5002 370L43.304 368.025L41 367L43.304 365.975L44.5002 364Z" fill="#EFB85F"/>
<path d="M27.5002 85L28.696 86.9748L31 88L28.696 89.0249L27.5002 91L26.304 89.0249L24 88L26.304 86.9748L27.5002 85Z" fill="#EFB85F"/>
<circle cx="119" cy="76" r="1" fill="#EFB85F"/>
<path d="M114.687 110.405C114.726 110.079 114.791 109.305 114.843 108.693C114.895 107.986 114.986 107.538 115.09 107.497C115.181 107.457 115.596 107.674 115.998 107.973C116.414 108.285 116.777 108.503 116.816 108.462C116.842 108.435 116.595 108 116.271 107.511C115.856 106.913 115.713 106.614 115.83 106.573C115.92 106.546 116.582 106.451 117.296 106.356C119.581 106.084 119.568 105.935 117.257 105.676C116.453 105.581 115.778 105.459 115.752 105.418C115.713 105.364 115.959 104.97 116.271 104.535C116.582 104.086 116.816 103.692 116.777 103.652C116.738 103.624 116.349 103.855 115.92 104.168C115.479 104.494 115.09 104.698 115.038 104.644C114.973 104.576 114.869 103.76 114.778 102.823C114.545 100.377 114.441 100.39 114.194 102.877C114.103 103.815 113.999 104.63 113.948 104.671C113.909 104.712 113.519 104.494 113.078 104.182C112.65 103.855 112.273 103.624 112.234 103.665C112.208 103.692 112.403 104.059 112.688 104.467C112.974 104.861 113.208 105.269 113.208 105.35C113.208 105.445 112.65 105.568 111.741 105.676C109.418 105.935 109.418 106.084 111.754 106.369C112.637 106.478 113.208 106.614 113.208 106.696C113.208 106.777 112.974 107.185 112.688 107.579C112.078 108.435 112.026 108.652 112.52 108.313C112.727 108.19 113.104 107.919 113.376 107.728C113.999 107.307 114.051 107.375 114.168 108.843C114.337 111.003 114.532 111.574 114.687 110.405Z" fill="#EFB85F"/>
<path d="M105.5 83L106.696 84.9748L109 86L106.696 87.0249L105.5 89L104.304 87.0249L102 86L104.304 84.9748L105.5 83Z" fill="#EFB85F"/>
<path d="M256.5 69L257.696 70.9748L260 72L257.696 73.0249L256.5 75L255.304 73.0249L253 72L255.304 70.9748L256.5 69Z" fill="#EFB85F"/>
<path d="M238 297L238.751 300.655L242 301.5L238.751 302.345L238 306L237.249 302.345L234 301.5L237.249 300.655L238 297Z" fill="#EFB85F"/>
<path d="M37.9998 241L38.7509 244.655L42 245.5L38.7509 246.345L37.9998 250L37.2487 246.345L34 245.5L37.2487 244.655L37.9998 241Z" fill="#EFB85F"/>
<path d="M62.9998 338L63.7509 341.655L67 342.5L63.7509 343.345L62.9998 347L62.2487 343.345L59 342.5L62.2487 341.655L62.9998 338Z" fill="#EFB85F"/>
<path d="M261 337L261.751 340.655L265 341.5L261.751 342.345L261 346L260.249 342.345L257 341.5L260.249 340.655L261 337Z" fill="#EFB85F"/>
<path d="M161 326L161.751 329.655L165 330.5L161.751 331.345L161 335L160.249 331.345L157 330.5L160.249 329.655L161 326Z" fill="#EFB85F"/>
<path d="M254 236L254.751 239.655L258 240.5L254.751 241.345L254 245L253.249 241.345L250 240.5L253.249 239.655L254 236Z" fill="#EFB85F"/>
<path d="M254 236L254.751 239.655L258 240.5L254.751 241.345L254 245L253.249 241.345L250 240.5L253.249 239.655L254 236Z" fill="#EFB85F"/>
<path d="M116 342L116.751 345.655L120 346.5L116.751 347.345L116 351L115.249 347.345L112 346.5L115.249 345.655L116 342Z" fill="#EFB85F"/>
<circle cx="126" cy="65" r="1" fill="#EFB85F"/>
<circle cx="165" cy="362" r="1" fill="#EFB85F"/>
<circle cx="40" cy="333" r="1" fill="#EFB85F"/>
<circle cx="177" cy="370" r="1" fill="#EFB85F"/>
<circle cx="121" cy="330" r="1" fill="#EFB85F"/>
<circle cx="163" cy="90" r="1" fill="#EFB85F"/>
<circle cx="163" cy="90" r="1" fill="#EFB85F"/>
<circle cx="142" cy="353" r="1" fill="#EFB85F"/>
<path d="M126.73 376.64L131 376.5L126.73 376.36L128.069 374.931L126.64 376.27L126.5 372L126.36 376.27L124.931 374.931L126.27 376.36L122 376.5L126.27 376.64L124.931 378.069L126.36 376.73L126.5 381L126.64 376.73L128.069 378.069L126.73 376.64Z" fill="#EFB85F"/>
<path d="M135.73 103.64L140 103.5L135.73 103.36L137.069 101.931L135.64 103.27L135.5 99L135.36 103.27L133.931 101.931L135.27 103.36L131 103.5L135.27 103.64L133.931 105.069L135.36 103.73L135.5 108L135.64 103.73L137.069 105.069L135.73 103.64Z" fill="#EFB85F"/>
<path d="M135.73 103.64L140 103.5L135.73 103.36L137.069 101.931L135.64 103.27L135.5 99L135.36 103.27L133.931 101.931L135.27 103.36L131 103.5L135.27 103.64L133.931 105.069L135.36 103.73L135.5 108L135.64 103.73L137.069 105.069L135.73 103.64Z" fill="#EFB85F"/>
<path d="M135.73 103.64L140 103.5L135.73 103.36L137.069 101.931L135.64 103.27L135.5 99L135.36 103.27L133.931 101.931L135.27 103.36L131 103.5L135.27 103.64L133.931 105.069L135.36 103.73L135.5 108L135.64 103.73L137.069 105.069L135.73 103.64Z" fill="#EFB85F"/>
<path d="M160.73 76.6397L165 76.5L160.73 76.3603L162.069 74.9306L160.64 76.2697L160.5 72L160.36 76.2697L158.931 74.9306L160.27 76.3603L156 76.5L160.27 76.6397L158.931 78.0694L160.36 76.7303L160.5 81L160.64 76.7303L162.069 78.0694L160.73 76.6397Z" fill="#EFB85F"/>
<path d="M161 326L161.751 329.655L165 330.5L161.751 331.345L161 335L160.249 331.345L157 330.5L160.249 329.655L161 326Z" fill="#EFB85F"/>
<path d="M116 342L116.751 345.655L120 346.5L116.751 347.345L116 351L115.249 347.345L112 346.5L115.249 345.655L116 342Z" fill="#EFB85F"/>
<circle cx="42" cy="28" r="1" fill="#EFB85F"/>
<path d="M28.5002 35L29.696 36.9748L32 38L29.696 39.0249L28.5002 41L27.304 39.0249L25 38L27.304 36.9748L28.5002 35Z" fill="#EFB85F"/>
<path d="M37.6874 62.4053C37.7263 62.0792 37.7912 61.3046 37.8431 60.6931C37.8951 59.9865 37.9859 59.5381 38.0897 59.4973C38.1806 59.4565 38.596 59.6739 38.9983 59.9729C39.4137 60.2854 39.7771 60.5029 39.8161 60.4621C39.842 60.4349 39.5954 60.0001 39.2709 59.5109C38.8556 58.913 38.7128 58.614 38.8296 58.5732C38.9205 58.5461 39.5824 58.4509 40.2963 58.3558C42.5808 58.084 42.5678 57.9346 40.2574 57.6764C39.4526 57.5813 38.7777 57.459 38.7517 57.4182C38.7128 57.3638 38.9594 56.9698 39.2709 56.5349C39.5824 56.0865 39.8161 55.6924 39.7771 55.6516C39.7382 55.6244 39.3488 55.8555 38.9205 56.168C38.4791 56.4941 38.0897 56.698 38.0378 56.6436C37.9729 56.5757 37.8691 55.7603 37.7782 54.8227C37.5446 52.3767 37.4408 52.3903 37.1941 54.8771C37.1033 55.8147 36.9994 56.63 36.9475 56.6708C36.9086 56.7116 36.5192 56.4941 36.0779 56.1816C35.6495 55.8555 35.2731 55.6244 35.2342 55.6652C35.2082 55.6924 35.4029 56.0593 35.6885 56.467C35.974 56.861 36.2077 57.2687 36.2077 57.3502C36.2077 57.4454 35.6495 57.5677 34.7409 57.6764C32.4175 57.9346 32.4175 58.084 34.7539 58.3694C35.6365 58.4781 36.2077 58.614 36.2077 58.6955C36.2077 58.7771 35.974 59.1847 35.6885 59.5788C35.0784 60.4349 35.0265 60.6523 35.5197 60.3126C35.7274 60.1903 36.1038 59.9185 36.3764 59.7283C36.9994 59.307 37.0514 59.375 37.1682 60.8426C37.3369 63.0032 37.5316 63.574 37.6874 62.4053Z" fill="#EFB85F"/>
<path d="M64.7303 87.6397L69 87.5L64.7303 87.3603L66.0694 85.9306L64.6397 87.2697L64.5 83L64.3603 87.2697L62.9306 85.9306L64.2697 87.3603L60 87.5L64.2697 87.6397L62.9306 89.0694L64.3603 87.7303L64.5 92L64.6397 87.7303L66.0694 89.0694L64.7303 87.6397Z" fill="#EFB85F"/>
<circle cx="40" cy="92" r="1" fill="#EFB85F"/>
<circle cx="61" cy="105" r="1" fill="#EFB85F"/>
<circle cx="232" cy="23" r="1" fill="#EFB85F"/>
<circle cx="266" cy="32" r="1" fill="#EFB85F"/>
<circle cx="266" cy="32" r="1" fill="#EFB85F"/>
<circle cx="268" cy="33" r="1" fill="#EFB85F"/>
<path d="M267.73 90.6397L272 90.5L267.73 90.3603L269.069 88.9306L267.64 90.2697L267.5 86L267.36 90.2697L265.931 88.9306L267.27 90.3603L263 90.5L267.27 90.6397L265.931 92.0694L267.36 90.7303L267.5 95L267.64 90.7303L269.069 92.0694L267.73 90.6397Z" fill="#EFB85F"/>
<path d="M267.73 90.6397L272 90.5L267.73 90.3603L269.069 88.9306L267.64 90.2697L267.5 86L267.36 90.2697L265.931 88.9306L267.27 90.3603L263 90.5L267.27 90.6397L265.931 92.0694L267.36 90.7303L267.5 95L267.64 90.7303L269.069 92.0694L267.73 90.6397Z" fill="#EFB85F"/>
<path d="M221.5 50L222.696 51.9748L225 53L222.696 54.0249L221.5 56L220.304 54.0249L218 53L220.304 51.9748L221.5 50Z" fill="#EFB85F"/>
<rect x="12" y="12" width="273" height="396" rx="9" stroke="#EFB85F" stroke-width="2"/>
<rect x="19.5" y="19.5" width="258" height="380" rx="6.5" stroke="#EFB85F"/>
<path d="M102.516 55C102.458 55 102.43 54.9714 102.43 54.9141V54.6562C102.43 54.599 102.458 54.5703 102.516 54.5703H102.773C103.389 54.5703 103.926 54.4414 104.385 54.1836C104.571 54.0762 104.725 53.9115 104.847 53.6895C104.968 53.4603 105.029 53.2061 105.029 52.9268V41.5615C105.029 41.1175 104.743 40.7773 104.17 40.541C103.769 40.3691 103.343 40.2832 102.892 40.2832H102.655C102.598 40.2832 102.569 40.2546 102.569 40.1973V39.9395C102.569 39.8822 102.598 39.8535 102.655 39.8535H109.928C109.985 39.8535 110.014 39.8822 110.014 39.9395V40.1973C110.014 40.2546 109.985 40.2832 109.928 40.2832H109.466C108.728 40.2832 108.076 40.387 107.511 40.5947C107.346 40.652 107.239 40.7487 107.188 40.8848C107.146 41.0137 107.124 41.2393 107.124 41.5615V53.4746C107.138 53.5964 107.203 53.7109 107.317 53.8184C107.432 53.9258 107.561 53.9795 107.704 53.9795H111.947C112.585 53.9795 113.211 53.6035 113.827 52.8516C113.992 52.651 114.196 52.3861 114.439 52.0566C114.683 51.7201 114.833 51.5303 114.891 51.4873C115.12 51.3154 115.234 51.319 115.234 51.498C115.234 51.541 115.224 51.584 115.202 51.627L113.58 54.8066C113.516 54.9355 113.44 55 113.354 55H102.516ZM117.802 49.3389C117.68 49.3389 117.619 49.6003 117.619 50.123C117.619 51.2331 117.949 52.1641 118.607 52.916C119.266 53.668 120.083 54.0439 121.057 54.0439C122.038 54.0439 122.979 53.6214 123.882 52.7764C123.896 52.762 123.914 52.7549 123.936 52.7549H123.989C124.032 52.7549 124.072 52.7907 124.107 52.8623C124.15 52.9268 124.19 52.9697 124.226 52.9912C123.395 54.001 122.417 54.6992 121.293 55.0859C120.906 55.222 120.469 55.29 119.982 55.29C119.495 55.29 119.001 55.1576 118.5 54.8926C117.999 54.6204 117.569 54.266 117.211 53.8291C116.452 52.9196 116.072 51.7881 116.072 50.4346C116.072 49.0739 116.484 47.835 117.308 46.7178C118.138 45.6006 119.277 45.042 120.724 45.042C121.762 45.042 122.611 45.5075 123.27 46.4385C123.928 47.3623 124.258 48.1751 124.258 48.877C124.258 49.1849 124.183 49.3389 124.032 49.3389H117.802ZM117.92 48.3076C117.92 48.4437 117.984 48.5117 118.113 48.5117H122.163C122.349 48.5117 122.442 48.4007 122.442 48.1787C122.442 47.6631 122.21 47.1367 121.744 46.5996C121.286 46.0553 120.781 45.7832 120.229 45.7832C119.692 45.7832 119.202 46.0267 118.758 46.5137C118.321 47.0007 118.042 47.5557 117.92 48.1787V48.3076ZM137.181 47.6523C137.181 47.8099 137.12 47.8887 136.998 47.8887C136.883 47.8887 136.794 47.8027 136.729 47.6309C136.558 47.1582 136.3 46.7393 135.956 46.374C135.619 46.0088 135.201 45.8262 134.699 45.8262C134.04 45.8262 133.596 46.1556 133.367 46.8145C133.296 47.0365 133.26 47.2656 133.26 47.502C133.26 47.7383 133.41 48.0033 133.711 48.2969C134.012 48.5833 134.506 48.9271 135.193 49.3281C135.881 49.7292 136.382 50.0693 136.697 50.3486C137.413 50.986 137.771 51.7236 137.771 52.5615C137.771 53.3994 137.464 54.0654 136.848 54.5596C136.232 55.0465 135.516 55.29 134.699 55.29C134.262 55.29 133.865 55.2292 133.507 55.1074C133.156 54.9928 132.952 54.9355 132.895 54.9355C132.844 54.9355 132.758 54.9928 132.637 55.1074C132.522 55.2292 132.429 55.29 132.357 55.29H132.175C132.132 55.29 132.078 54.9033 132.014 54.1299C131.949 53.3564 131.917 52.8981 131.917 52.7549C131.917 52.6117 131.928 52.5329 131.949 52.5186C131.978 52.5042 132.021 52.4971 132.078 52.4971C132.135 52.4971 132.182 52.515 132.218 52.5508C132.261 52.5866 132.297 52.6331 132.325 52.6904C132.354 52.7406 132.375 52.7943 132.39 52.8516C132.411 52.9089 132.458 53.0163 132.529 53.1738C133.016 54.2122 133.768 54.7314 134.785 54.7314C135.236 54.7314 135.598 54.5667 135.87 54.2373C136.142 53.9007 136.278 53.5283 136.278 53.1201C136.278 52.7119 136.171 52.3682 135.956 52.0889C135.741 51.8096 135.473 51.5553 135.15 51.3262C134.835 51.097 134.492 50.875 134.119 50.6602C132.673 49.8151 131.949 48.8805 131.949 47.8564C131.949 47.0902 132.279 46.4313 132.938 45.8799C133.596 45.3213 134.273 45.042 134.968 45.042C135.662 45.042 136.174 45.1172 136.504 45.2676C136.84 45.418 137.037 45.5469 137.095 45.6543C137.152 45.7546 137.181 46.0911 137.181 46.6641V47.6523ZM141.069 49.3389C140.948 49.3389 140.887 49.6003 140.887 50.123C140.887 51.2331 141.216 52.1641 141.875 52.916C142.534 53.668 143.35 54.0439 144.324 54.0439C145.305 54.0439 146.247 53.6214 147.149 52.7764C147.164 52.762 147.182 52.7549 147.203 52.7549H147.257C147.3 52.7549 147.339 52.7907 147.375 52.8623C147.418 52.9268 147.457 52.9697 147.493 52.9912C146.662 54.001 145.685 54.6992 144.561 55.0859C144.174 55.222 143.737 55.29 143.25 55.29C142.763 55.29 142.269 55.1576 141.768 54.8926C141.266 54.6204 140.837 54.266 140.479 53.8291C139.719 52.9196 139.34 51.7881 139.34 50.4346C139.34 49.0739 139.752 47.835 140.575 46.7178C141.406 45.6006 142.545 45.042 143.991 45.042C145.03 45.042 145.878 45.5075 146.537 46.4385C147.196 47.3623 147.525 48.1751 147.525 48.877C147.525 49.1849 147.45 49.3389 147.3 49.3389H141.069ZM141.188 48.3076C141.188 48.4437 141.252 48.5117 141.381 48.5117H145.431C145.617 48.5117 145.71 48.4007 145.71 48.1787C145.71 47.6631 145.477 47.1367 145.012 46.5996C144.553 46.0553 144.049 45.7832 143.497 45.7832C142.96 45.7832 142.469 46.0267 142.025 46.5137C141.589 47.0007 141.309 47.5557 141.188 48.1787V48.3076ZM158.472 45.332C158.529 45.332 158.558 45.3893 158.558 45.5039C158.558 45.6185 158.529 45.6901 158.472 45.7188C157.92 45.8691 157.48 46.1198 157.15 46.4707C157.029 46.5996 156.896 46.75 156.753 46.9219L154.68 49.4141C154.651 49.4642 154.637 49.5107 154.637 49.5537C154.637 49.6396 154.948 50.0622 155.571 50.8213C156.194 51.5732 157.054 52.6403 158.149 54.0225C158.228 54.1227 158.386 54.223 158.622 54.3232C158.858 54.4235 159.02 54.5059 159.105 54.5703C159.191 54.6276 159.234 54.7064 159.234 54.8066C159.234 54.9069 159.191 54.9714 159.105 55H154.873C154.801 55 154.766 54.9427 154.766 54.8281C154.766 54.7135 154.823 54.6491 154.938 54.6348C155.059 54.6133 155.195 54.5918 155.346 54.5703C155.725 54.513 155.915 54.3626 155.915 54.1191C155.915 53.9544 155.826 53.7718 155.646 53.5713L153.799 51.251C153.742 51.1722 153.695 51.1113 153.659 51.0684C153.631 51.0254 153.57 51.0039 153.477 51.0039C153.383 51.0039 153.308 51.0433 153.251 51.1221C153.201 51.1937 153.147 51.2581 153.09 51.3154L151.403 53.3457C151.253 53.5176 151.178 53.7181 151.178 53.9473C151.178 54.1764 151.325 54.359 151.618 54.4951C151.919 54.624 152.184 54.6885 152.413 54.6885C152.463 54.6885 152.488 54.7422 152.488 54.8496C152.488 54.9499 152.463 55 152.413 55H148.965C148.85 55 148.793 54.9355 148.793 54.8066C148.793 54.7064 148.99 54.5632 149.384 54.377C149.785 54.1908 150.028 54.0475 150.114 53.9473L153.09 50.3701C153.083 50.3558 153.068 50.3379 153.047 50.3164C153.033 50.2949 152.993 50.2448 152.929 50.166C152.864 50.0872 152.764 49.9655 152.628 49.8008C152.492 49.6289 152.13 49.1849 151.543 48.4688C150.963 47.7454 150.351 46.9827 149.706 46.1807C149.62 46.0876 149.441 45.9837 149.169 45.8691C148.897 45.7474 148.761 45.64 148.761 45.5469C148.775 45.4036 148.861 45.332 149.019 45.332H153.015C153.072 45.332 153.097 45.3786 153.09 45.4717C153.09 45.5576 153.036 45.6149 152.929 45.6436C152.821 45.665 152.703 45.6973 152.574 45.7402C152.23 45.8405 152.059 46.016 152.059 46.2666C152.059 46.4313 152.091 46.5459 152.155 46.6104L153.82 48.6729C153.878 48.7373 153.935 48.8089 153.992 48.8877C154.057 48.9593 154.11 48.9951 154.153 48.9951C154.203 48.9951 154.257 48.9593 154.314 48.8877L155.894 47.0508C156.073 46.8431 156.162 46.6354 156.162 46.4277C156.162 46.2201 156.105 46.0768 155.99 45.998C155.876 45.9121 155.747 45.8512 155.604 45.8154C155.467 45.7725 155.342 45.7331 155.228 45.6973C155.113 45.6615 155.056 45.5934 155.056 45.4932C155.056 45.3857 155.095 45.332 155.174 45.332H158.472ZM162.876 46.7393C162.833 46.7393 162.812 46.7715 162.812 46.8359V52.7656C162.812 53.1953 162.905 53.5319 163.091 53.7754C163.284 54.0189 163.528 54.1406 163.821 54.1406C164.115 54.1406 164.369 54.0941 164.584 54.001C164.806 53.9007 164.996 53.7933 165.153 53.6787C165.318 53.5641 165.465 53.4603 165.594 53.3672C165.723 53.2669 165.837 53.2168 165.938 53.2168C166.038 53.2168 166.088 53.2419 166.088 53.292C166.088 53.4639 166.07 53.5749 166.034 53.625C165.175 54.735 164.344 55.29 163.542 55.29C162.747 55.29 162.146 55.0394 161.737 54.5381C161.336 54.0296 161.136 53.4245 161.136 52.7227V46.7393H160.33C160.13 46.7393 160.022 46.6748 160.008 46.5459C160.001 46.417 160.022 46.3346 160.072 46.2988C160.452 46.0553 160.975 45.6185 161.641 44.9883C161.712 44.9095 161.809 44.7913 161.931 44.6338C162.052 44.4762 162.228 44.2614 162.457 43.9893C162.693 43.7171 162.872 43.5811 162.994 43.5811C163.116 43.5811 163.177 43.6312 163.177 43.7314C163.177 43.7458 163.055 44.2148 162.812 45.1387C162.812 45.2676 162.869 45.3356 162.983 45.3428H165.723C166.038 45.3428 166.195 45.7868 166.195 46.6748C166.195 46.7178 166.167 46.7393 166.109 46.7393H162.876ZM173.865 53.2275C173.865 53.4137 173.951 53.5641 174.123 53.6787C174.302 53.7861 174.506 53.8398 174.735 53.8398C174.965 53.8398 175.154 53.7826 175.305 53.668C175.462 53.5462 175.57 53.4854 175.627 53.4854C175.684 53.4854 175.713 53.5641 175.713 53.7217C175.713 53.8721 175.641 54.001 175.498 54.1084C174.424 54.8962 173.697 55.29 173.317 55.29C172.859 55.29 172.487 54.8138 172.2 53.8613C172.179 53.7897 172.161 53.7575 172.146 53.7646C171.258 54.4307 170.7 54.8317 170.471 54.9678C169.883 55.3044 169.293 55.3581 168.698 55.1289C168.111 54.8997 167.685 54.5202 167.42 53.9902C167.291 53.7181 167.227 53.4281 167.227 53.1201C167.227 52.5114 167.452 52.028 167.903 51.6699C168.354 51.3118 169.214 50.9681 170.481 50.6387C170.911 50.5241 171.294 50.3773 171.631 50.1982C171.967 50.0192 172.143 49.9046 172.157 49.8545C172.179 49.8044 172.189 49.7578 172.189 49.7148V47.6523C172.189 46.8431 171.874 46.2738 171.244 45.9443C171.036 45.8369 170.786 45.7832 170.492 45.7832C170.206 45.7832 169.912 45.8978 169.611 46.127C169.318 46.3561 169.171 46.682 169.171 47.1045L169.225 47.5234C169.182 47.6094 168.924 47.7526 168.451 47.9531C167.979 48.1536 167.706 48.2611 167.635 48.2754C167.52 48.2754 167.463 48.1393 167.463 47.8672C167.463 47.5879 167.545 47.2799 167.71 46.9434C167.875 46.6068 168.107 46.2988 168.408 46.0195C169.11 45.3678 169.912 45.042 170.814 45.042C171.717 45.042 172.451 45.2926 173.017 45.7939C173.582 46.2881 173.865 46.8789 173.865 47.5664V53.2275ZM168.913 52.916C168.913 53.2598 169.046 53.5605 169.311 53.8184C169.576 54.069 169.876 54.1943 170.213 54.1943C170.557 54.1943 170.972 54.0511 171.459 53.7646C171.946 53.471 172.189 53.1702 172.189 52.8623V50.6816C172.189 50.6029 172.172 50.5635 172.136 50.5635C172.1 50.5635 172.075 50.5671 172.061 50.5742L169.568 51.7344C169.311 51.9206 169.135 52.0781 169.042 52.207C168.956 52.3359 168.913 52.5723 168.913 52.916ZM184.629 51.6162L184.607 49.3496C184.607 48.4258 184.529 47.7777 184.371 47.4053C184.214 47.0329 184.013 46.7536 183.77 46.5674C183.526 46.374 183.197 46.2773 182.781 46.2773C182.373 46.2773 181.503 46.5996 180.171 47.2441C179.992 47.3516 179.899 47.4518 179.892 47.5449V53.3242C179.892 54.0475 180.278 54.4629 181.052 54.5703C181.388 54.6204 181.557 54.7028 181.557 54.8174C181.557 54.9248 181.521 54.9857 181.449 55H176.658C176.587 54.9857 176.551 54.9355 176.551 54.8496C176.551 54.7135 176.719 54.6204 177.056 54.5703C177.829 54.4629 178.216 54.0475 178.216 53.3242V47.1582C178.216 46.8574 178.051 46.6497 177.722 46.5352C177.578 46.485 177.424 46.4456 177.26 46.417C177.095 46.3812 176.963 46.349 176.862 46.3203C176.769 46.2917 176.708 46.2666 176.68 46.2451C176.658 46.2165 176.647 46.1628 176.647 46.084C176.647 45.998 176.701 45.9264 176.809 45.8691L179.548 44.5801C179.634 44.5371 179.688 44.5156 179.709 44.5156C179.831 44.5156 179.892 44.6016 179.892 44.7734V46.4492C179.913 46.5208 179.942 46.5566 179.978 46.5566C180.021 46.5566 180.174 46.4922 180.439 46.3633C181.055 46.0553 181.675 45.7581 182.298 45.4717C182.921 45.1852 183.437 45.042 183.845 45.042C185.499 45.042 186.326 46.5495 186.326 49.5645L186.229 52.7012V53.3242C186.229 53.8828 186.509 54.248 187.067 54.4199C187.304 54.4987 187.529 54.556 187.744 54.5918C187.966 54.6204 188.109 54.6491 188.174 54.6777C188.245 54.7064 188.281 54.7637 188.281 54.8496C188.281 54.9355 188.245 54.9857 188.174 55H182.996C182.924 54.9857 182.889 54.9355 182.889 54.8496C182.889 54.7135 183.057 54.6204 183.394 54.5703C184.16 54.4629 184.543 54.0189 184.543 53.2383C184.6 52.8802 184.629 52.3395 184.629 51.6162ZM191.858 46.7393C191.815 46.7393 191.794 46.7715 191.794 46.8359V52.7656C191.794 53.1953 191.887 53.5319 192.073 53.7754C192.267 54.0189 192.51 54.1406 192.804 54.1406C193.097 54.1406 193.352 54.0941 193.566 54.001C193.788 53.9007 193.978 53.7933 194.136 53.6787C194.3 53.5641 194.447 53.4603 194.576 53.3672C194.705 53.2669 194.82 53.2168 194.92 53.2168C195.02 53.2168 195.07 53.2419 195.07 53.292C195.07 53.4639 195.052 53.5749 195.017 53.625C194.157 54.735 193.326 55.29 192.524 55.29C191.729 55.29 191.128 55.0394 190.72 54.5381C190.319 54.0296 190.118 53.4245 190.118 52.7227V46.7393H189.312C189.112 46.7393 189.005 46.6748 188.99 46.5459C188.983 46.417 189.005 46.3346 189.055 46.2988C189.434 46.0553 189.957 45.6185 190.623 44.9883C190.695 44.9095 190.791 44.7913 190.913 44.6338C191.035 44.4762 191.21 44.2614 191.439 43.9893C191.676 43.7171 191.855 43.5811 191.977 43.5811C192.098 43.5811 192.159 43.6312 192.159 43.7314C192.159 43.7458 192.037 44.2148 191.794 45.1387C191.794 45.2676 191.851 45.3356 191.966 45.3428H194.705C195.02 45.3428 195.178 45.7868 195.178 46.6748C195.178 46.7178 195.149 46.7393 195.092 46.7393H191.858Z" fill="#EFB85F"/>
<path d="M143.48 210.234C143.486 211.284 143.908 212.289 144.655 213.028C145.401 213.766 146.411 214.178 147.461 214.173C148.511 214.168 149.516 213.745 150.255 212.999C150.994 212.253 151.406 211.244 151.401 210.193C151.395 209.143 150.973 208.138 150.226 207.399C149.48 206.661 148.471 206.249 147.42 206.254C146.37 206.259 145.365 206.682 144.626 207.428C143.887 208.174 143.475 209.183 143.48 210.234Z" stroke="#EFB85F" stroke-width="1.5" stroke-linecap="round"/>
<path d="M143.48 210.234C143.486 211.284 143.908 212.289 144.655 213.028C145.401 213.766 146.411 214.178 147.461 214.173C148.511 214.168 149.516 213.745 150.255 212.999C150.994 212.253 151.406 211.244 151.401 210.193C151.395 209.143 150.973 208.138 150.226 207.399C149.48 206.661 148.471 206.249 147.42 206.254C146.37 206.259 145.365 206.682 144.626 207.428C143.887 208.174 143.475 209.183 143.48 210.234Z" stroke="#EFB85F" stroke-linecap="round"/>
<path d="M246.35 190.655L180.929 305.314" stroke="#EFB85F" stroke-linecap="round"/>
<path d="M180.928 305.314L114.924 305.651" stroke="#EFB85F" stroke-linecap="round"/>
<path d="M114.924 305.651L48.3372 191.664" stroke="#EFB85F" stroke-linecap="round"/>
<path d="M48.3373 191.664L81.0483 134.335" stroke="#EFB85F" stroke-linecap="round"/>
<path d="M81.048 134.334L213.057 133.662" stroke="#EFB85F" stroke-linecap="round"/>
<path d="M213.057 133.662L246.35 190.655" stroke="#EFB85F" stroke-linecap="round"/>
<path d="M147.504 214.37L147.927 305.482" stroke="#EFB85F"/>
<path d="M144.101 208.308L64.6932 162.999" stroke="#EFB85F"/>
<path d="M150.708 208.306L229.704 162.158" stroke="#EFB85F"/>
<path d="M238.587 199.166L233.999 196.548" stroke="#EFB85F" stroke-linecap="round"/>
<path d="M234 196.548L230.729 202.282" stroke="#EFB85F" stroke-linecap="round"/>
<path d="M230.727 202.281L235.315 204.898" stroke="#EFB85F" stroke-linecap="round"/>
<path d="M235.315 204.899L238.587 199.165" stroke="#EFB85F" stroke-linecap="round"/>
<path d="M60.7471 197.431L56.1868 200.095" stroke="#EFB85F" stroke-linecap="round"/>
<path d="M187.576 288.568L182.988 285.95" stroke="#EFB85F" stroke-linecap="round"/>
<path d="M182.99 285.951L179.719 291.684" stroke="#EFB85F" stroke-linecap="round"/>
<path d="M179.717 291.683L184.305 294.301" stroke="#EFB85F" stroke-linecap="round"/>
<path d="M184.304 294.301L187.576 288.568" stroke="#EFB85F" stroke-linecap="round"/>
<path d="M56.1875 200.095L59.5169 205.794" stroke="#EFB85F" stroke-linecap="round"/>
<path d="M64.0761 203.131L60.7464 197.431" stroke="#EFB85F" stroke-linecap="round"/>
<path d="M59.5156 205.794L64.0761 203.13" stroke="#EFB85F" stroke-linecap="round"/>
<path d="M112.666 286.309L108.105 288.973" stroke="#EFB85F" stroke-linecap="round"/>
<path d="M108.106 288.973L111.436 294.672" stroke="#EFB85F" stroke-linecap="round"/>
<path d="M111.435 294.672L115.996 292.008" stroke="#EFB85F" stroke-linecap="round"/>
<path d="M115.996 292.009L112.666 286.309" stroke="#EFB85F" stroke-linecap="round"/>
<path d="M201.857 141.525L201.83 136.243" stroke="#EFB85F" stroke-linecap="round"/>
<path d="M201.83 136.244L195.229 136.277" stroke="#EFB85F" stroke-linecap="round"/>
<path d="M195.256 141.559L201.857 141.525" stroke="#EFB85F" stroke-linecap="round"/>
<path d="M195.23 136.276L195.256 141.559" stroke="#EFB85F" stroke-linecap="round"/>
<path d="M98.9278 142.05L98.9009 136.767" stroke="#EFB85F" stroke-linecap="round"/>
<path d="M98.9009 136.768L92.3002 136.802" stroke="#EFB85F" stroke-linecap="round"/>
<path d="M92.3003 136.801L92.3272 142.083" stroke="#EFB85F" stroke-linecap="round"/>
<path d="M92.3271 142.083L98.9278 142.05" stroke="#EFB85F" stroke-linecap="round"/>
<path d="M181.033 300.034L180.967 300.03" stroke="#EFB85F" stroke-dasharray="67.2 13.44 13.44 13.44"/>
<path d="M159.387 295.983C159.755 296.386 159.972 296.835 160.037 297.329C160.101 297.826 160.022 298.331 159.801 298.844C159.581 299.357 159.228 299.839 158.744 300.291C158.265 300.739 157.76 301.048 157.232 301.219C156.699 301.389 156.186 301.42 155.691 301.31C155.196 301.201 154.764 300.948 154.394 300.551C154.122 300.26 153.944 299.956 153.858 299.64C153.771 299.325 153.757 299.002 153.816 298.671C153.874 298.337 153.983 298 154.144 297.66L153.876 297.373L154.905 296.203L156.729 293.335L157.369 294.02L155.51 296.851C155.388 297.023 155.256 297.236 155.114 297.488C154.973 297.741 154.857 298.01 154.767 298.296C154.677 298.583 154.648 298.868 154.68 299.153C154.708 299.437 154.833 299.698 155.054 299.934C155.291 300.188 155.577 300.34 155.913 300.392C156.249 300.444 156.604 300.398 156.979 300.254C157.354 300.11 157.718 299.873 158.071 299.544C158.415 299.222 158.677 298.88 158.857 298.519C159.034 298.159 159.115 297.811 159.101 297.475C159.084 297.141 158.959 296.849 158.727 296.6C158.512 296.369 158.261 296.228 157.976 296.176C157.688 296.126 157.393 296.133 157.091 296.197C156.788 296.263 156.5 296.356 156.229 296.477C155.953 296.599 155.722 296.715 155.535 296.827L152.642 298.549L152.002 297.863L154.93 296.179L156.206 295.198L156.439 295.448C156.797 295.315 157.152 295.237 157.502 295.213C157.849 295.189 158.182 295.237 158.501 295.359C158.819 295.478 159.114 295.687 159.387 295.983Z" fill="#EFB85F"/>
<path d="M67.901 179.389L67.3195 178.766C66.9124 178.33 66.6733 177.889 66.6023 177.442C66.5293 176.993 66.575 176.572 66.7394 176.177C66.9018 175.781 67.1325 175.443 67.4316 175.164C67.7929 174.827 68.1975 174.607 68.6453 174.503C69.091 174.402 69.5366 174.42 69.9821 174.556C70.4256 174.693 70.8238 174.951 71.1766 175.329C71.3917 175.56 71.5624 175.828 71.6885 176.134C71.8106 176.44 71.8316 176.793 71.7515 177.194L71.8229 177.221L70.6017 178.361C70.8053 178.171 70.9467 177.946 71.026 177.685C71.1034 177.422 71.1078 177.15 71.0391 176.868C70.9685 176.584 70.813 176.314 70.5726 176.056C70.3206 175.786 70.0464 175.607 69.75 175.518C69.4535 175.43 69.1624 175.42 68.8766 175.488C68.5909 175.557 68.3379 175.694 68.1178 175.899C67.9101 176.093 67.7584 176.324 67.6627 176.592C67.563 176.86 67.5355 177.134 67.5801 177.415C67.6207 177.696 67.7495 177.953 67.9666 178.186L68.5365 178.796L67.901 179.389ZM64.7849 181.622C64.5077 181.325 64.3103 181.017 64.1926 180.7C64.0729 180.38 64.0205 180.066 64.0351 179.757C64.0458 179.447 64.113 179.159 64.2368 178.892C64.3586 178.623 64.5244 178.39 64.7342 178.195C64.9959 177.95 65.3185 177.774 65.7022 177.664C66.0838 177.557 66.4887 177.56 66.9169 177.673C67.3431 177.788 67.7539 178.058 68.1494 178.481L68.4867 178.843L67.8511 179.436L67.5255 179.087C67.3006 178.846 67.0589 178.687 66.8002 178.61C66.5397 178.53 66.2877 178.521 66.0445 178.581C65.7993 178.638 65.5874 178.751 65.4088 178.917C65.1221 179.185 64.9871 179.517 65.0036 179.914C65.0181 180.308 65.1737 180.664 65.4703 180.982C65.668 181.194 65.8928 181.347 66.1448 181.442C66.3949 181.535 66.6472 181.562 66.9018 181.523C67.1545 181.481 67.3826 181.365 67.5862 181.175L74.1282 175.069L74.8144 175.804L68.2724 181.911C67.9442 182.217 67.5748 182.41 67.164 182.49C66.7512 182.569 66.3373 182.535 65.9222 182.39C65.5052 182.243 65.1261 181.987 64.7849 181.622Z" fill="#EFB85F"/>
<path d="M216.185 165.892L215.441 165.095L217.905 160.44L213.115 162.602L212.37 161.805L218.614 159.102L220.508 157.334L221.194 158.069L219.3 159.837L216.185 165.892Z" fill="#EFB85F"/>
<path d="M194.703 214.524L193.269 215.235L192.989 217.049C192.636 219.245 192.535 219.066 194.492 219.757L196.105 220.319L197.555 219.277L199.011 218.246L197.436 217.721C195.536 217.069 195.619 217.199 195.889 215.346L196.126 213.82L194.703 214.524ZM194.819 219.271L193.573 218.9L194.35 218.307C195.03 217.777 195.287 217.749 196.421 218.04L197.704 218.372L196.89 219.004C196.167 219.562 195.939 219.587 194.819 219.271ZM195.138 216.288C195.004 217.168 193.869 218.342 193.577 217.89C193.313 217.48 193.966 215.747 194.504 215.4C195.216 214.941 195.324 215.085 195.138 216.288Z" fill="#EFB85F"/>
<path d="M192.157 216.303C191.985 216.414 191.767 217.165 191.677 217.971L191.512 219.42L186.981 222.45C181.674 225.98 182.106 225.823 182.464 224.082C182.775 222.553 182.475 222.136 181.948 223.377C181.753 223.808 181.177 224.927 180.651 225.861L179.697 227.576L182.426 227.265C185.526 226.913 185.652 226.848 184.037 226.332L182.866 225.959L187.392 223.039L191.929 220.113L193.226 220.634C194.535 221.148 195.406 221.197 195.114 220.744C195.03 220.615 194.362 220.313 193.615 220.078C191.959 219.544 192.031 219.68 192.278 217.721C192.401 216.68 192.362 216.171 192.157 216.303Z" fill="#EFB85F"/>
<path d="M181.386 215.618L182.097 217.052L183.911 217.332C186.107 217.685 185.928 217.786 186.619 215.829L187.181 214.215L186.139 212.766L185.108 211.31L184.583 212.885C183.932 214.785 184.061 214.702 182.208 214.432L180.682 214.195L181.386 215.618ZM186.133 215.501L185.762 216.748L185.169 215.971C184.639 215.29 184.611 215.034 184.902 213.9L185.234 212.617L185.866 213.431C186.424 214.154 186.449 214.382 186.133 215.501ZM183.15 215.182C184.03 215.317 185.205 216.451 184.752 216.743C184.343 217.008 182.609 216.355 182.262 215.816C181.803 215.105 181.947 214.997 183.15 215.182Z" fill="#EFB85F"/>
<path d="M183.165 218.164C183.277 218.336 184.028 218.554 184.834 218.644L186.282 218.809L189.312 223.34C192.842 228.647 192.685 228.215 190.944 227.857C189.416 227.546 188.999 227.846 190.239 228.373C190.67 228.568 191.789 229.144 192.724 229.67L194.438 230.624L194.127 227.895C193.776 224.795 193.71 224.669 193.195 226.284L192.821 227.455L189.902 222.929L186.975 218.392L187.496 217.095C188.011 215.786 188.059 214.916 187.607 215.208C187.478 215.291 187.176 215.959 186.94 216.706C186.407 218.362 186.543 218.29 184.583 218.043C183.543 217.921 183.033 217.959 183.165 218.164Z" fill="#EFB85F"/>
<path d="M158.558 258.922C158.49 258.307 158.235 257.425 157.983 256.95C157.326 255.68 158.254 254.158 159.292 254.799C159.674 255.035 159.551 256.154 159.151 256.003C159.025 255.955 158.95 255.809 158.998 255.683C159.045 255.557 158.924 255.393 158.73 255.32C158.261 255.143 158.037 256.08 158.419 256.591C159.151 257.561 159.389 257.206 161.285 252.291C163.255 247.181 163.319 246.838 162.487 245.097C162.059 244.188 162.066 244.099 162.846 242.036C163.872 239.32 164.356 239.32 165.001 242.039L165.243 243.06L165.965 242.429C166.546 241.928 168.18 241.34 168.568 241.487C168.626 241.509 168.245 242.517 167.736 243.727C166.84 245.89 166.796 245.938 165.726 246.451C165.134 246.738 164.602 247.074 164.554 247.2C164.507 247.326 164.31 247.501 164.121 247.587C163.885 247.694 163.431 248.688 162.805 250.482C161.766 253.441 161.369 254.457 160.634 256.092C160.069 257.345 160.14 257.607 161.076 257.62C161.876 257.648 162.463 256.887 161.985 256.458C161.817 256.316 161.648 256.278 161.605 256.393C161.561 256.507 161.635 256.693 161.769 256.822C161.908 256.94 161.779 256.969 161.493 256.861C160.89 256.66 161.061 255.755 161.688 255.756C163.117 255.746 162.907 257.684 161.437 258.255C160.934 258.445 160.16 258.938 159.702 259.354C159.26 259.763 158.841 260.077 158.784 260.055C158.726 260.033 158.619 259.521 158.558 258.922ZM163.935 245.381C164.056 245.061 164.003 244.648 163.803 244.415C163.466 244.026 163.407 243.008 163.667 241.731C163.727 241.4 163.526 241.757 163.225 242.52C162.732 243.722 162.695 244.062 162.984 244.852C163.369 245.98 163.653 246.126 163.935 245.381ZM165.556 245.968C166.2 245.648 166.441 245.32 167.006 243.962C167.478 242.817 167.553 242.479 167.265 242.828C167.04 243.11 166.73 243.622 166.584 243.973C166.417 244.381 165.985 244.728 165.403 244.954C164.46 245.305 163.94 246.025 164.489 246.232C164.649 246.293 165.137 246.176 165.556 245.968ZM164.615 242.404L164.437 241.629L164.126 242.245C163.942 242.595 163.883 243.201 163.993 243.635L164.171 244.41L164.482 243.794C164.666 243.445 164.725 242.838 164.615 242.404ZM165.586 244.434C165.8 244.318 166.066 243.856 166.181 243.414L166.386 242.628L165.677 243.329C164.633 244.362 164.584 245.011 165.586 244.434Z" fill="#EFB85F"/>
<path d="M153.94 246.302C154.556 246.24 155.44 245.994 155.918 245.747C157.194 245.102 158.707 246.045 158.056 247.077C157.816 247.456 156.698 247.323 156.853 246.924C156.902 246.799 157.049 246.725 157.175 246.773C157.3 246.822 157.465 246.703 157.541 246.509C157.722 246.042 156.787 245.809 156.273 246.186C155.295 246.908 155.648 247.15 160.544 249.094C165.635 251.114 165.977 251.181 167.727 250.367C168.639 249.948 168.728 249.956 170.783 250.755C173.489 251.808 173.485 252.292 170.759 252.911L169.736 253.142L170.36 253.87C170.855 254.457 171.427 256.096 171.276 256.483C171.254 256.54 170.249 256.149 169.045 255.628C166.891 254.712 166.843 254.667 166.34 253.592C166.059 252.998 165.728 252.462 165.603 252.413C165.477 252.364 165.304 252.166 165.221 251.976C165.116 251.739 164.126 251.275 162.339 250.632C159.389 249.563 158.377 249.157 156.75 248.406C155.502 247.828 155.239 247.896 155.217 248.832C155.182 249.632 155.936 250.227 156.371 249.753C156.514 249.586 156.554 249.418 156.439 249.373C156.325 249.329 156.139 249.401 156.009 249.534C155.89 249.671 155.861 249.542 155.972 249.257C156.18 248.656 157.082 248.836 157.075 249.463C157.071 250.892 155.136 250.663 154.579 249.188C154.394 248.683 153.909 247.904 153.497 247.442C153.092 246.996 152.783 246.574 152.805 246.517C152.827 246.46 153.34 246.357 153.94 246.302ZM167.427 251.811C167.747 251.936 168.161 251.887 168.395 251.689C168.788 251.357 169.806 251.307 171.08 251.579C171.411 251.642 171.056 251.439 170.295 251.13C169.098 250.625 168.759 250.585 167.966 250.866C166.835 251.24 166.685 251.523 167.427 251.811ZM166.825 253.427C167.139 254.074 167.464 254.318 168.817 254.897C169.957 255.38 170.294 255.458 169.948 255.166C169.668 254.939 169.16 254.624 168.81 254.475C168.404 254.303 168.06 253.868 167.841 253.284C167.499 252.338 166.784 251.81 166.571 252.357C166.509 252.517 166.621 253.006 166.825 253.427ZM170.398 252.521L171.175 252.351L170.562 252.034C170.214 251.846 169.608 251.781 169.173 251.887L168.397 252.057L169.009 252.374C169.357 252.562 169.963 252.627 170.398 252.521ZM168.359 253.472C168.472 253.687 168.932 253.958 169.373 254.077L170.157 254.29L169.463 253.574C168.44 252.52 167.791 252.464 168.359 253.472Z" fill="#EFB85F"/>
<path d="M110.328 179.511C110.486 179.501 110.702 179.458 110.754 179.429C110.785 179.41 110.824 179.396 110.841 179.397C110.857 179.397 110.983 179.336 111.12 179.259C111.451 179.075 111.644 178.991 111.83 178.959C112.179 178.895 112.539 178.974 112.823 179.176C112.935 179.256 113.041 179.257 113.031 179.181C113.006 179.02 112.63 178.599 112.389 178.469C112.128 178.328 112.068 178.311 111.827 178.303C111.488 178.294 111.416 178.327 110.682 178.793C110.423 178.959 110.293 178.997 110.024 178.988C109.809 178.981 109.771 178.972 109.632 178.896C109.547 178.85 109.461 178.796 109.438 178.775C109.419 178.754 109.389 178.738 109.374 178.738C109.359 178.737 109.342 178.719 109.332 178.698C109.325 178.678 109.308 178.659 109.293 178.659C109.278 178.658 109.228 178.629 109.186 178.594C108.883 178.346 108.406 178.352 108.106 178.605C107.989 178.705 107.919 178.817 107.916 178.908C107.913 178.981 107.969 178.986 108.115 178.92C108.45 178.772 108.817 178.779 109.081 178.935C109.173 178.989 109.353 179.117 109.454 179.202C109.555 179.284 109.764 179.403 109.882 179.445C109.979 179.478 110.242 179.518 110.328 179.511Z" fill="#EFB85F"/>
<path d="M110.189 178.094C110.428 178.019 110.567 177.95 110.759 177.82C110.858 177.755 111.033 177.657 111.154 177.603C111.373 177.504 111.373 177.504 111.664 177.514C111.968 177.524 112.121 177.56 112.439 177.695C112.608 177.767 112.644 177.763 112.647 177.672C112.65 177.578 112.352 177.274 112.155 177.168C111.677 176.913 111.375 176.873 110.959 177.01C110.805 177.061 110.73 177.104 110.471 177.275C110.121 177.504 110.005 177.545 109.717 177.535C109.585 177.531 109.467 177.517 109.452 177.501C109.435 177.488 109.382 177.463 109.335 177.449C109.287 177.432 109.167 177.387 109.072 177.348C108.779 177.232 108.528 177.254 108.243 177.421C108.08 177.517 108.109 177.561 108.354 177.592C108.7 177.637 108.83 177.682 109.22 177.903C109.653 178.149 109.884 178.195 110.189 178.094Z" fill="#EFB85F"/>
<path d="M110.153 176.661C110.357 176.615 110.455 176.575 110.626 176.467C110.758 176.383 110.884 176.319 111.062 176.246C111.203 176.188 111.58 176.198 111.727 176.266C111.785 176.291 111.877 176.335 111.932 176.36C112.147 176.456 112.135 176.291 111.91 176.05C111.692 175.819 111.409 175.721 111.016 175.74C110.848 175.747 110.782 175.768 110.465 175.911C109.873 176.175 109.852 176.182 109.602 176.17C109.475 176.163 109.337 176.144 109.274 176.119C109.034 176.024 108.883 175.999 108.742 176.029C108.553 176.071 108.44 176.123 108.446 176.169C108.45 176.192 108.507 176.224 108.578 176.247C108.823 176.324 108.881 176.343 109.013 176.411C109.591 176.702 109.78 176.744 110.153 176.661Z" fill="#EFB85F"/>
<path d="M172.176 183.372C172.278 183.331 172.471 183.216 172.61 183.113C172.801 182.974 172.935 182.931 173.13 182.953C173.709 183.02 174.21 182.513 174.236 181.839C174.244 181.623 174.283 181.43 174.32 181.405C174.78 181.136 174.465 180.03 173.924 180.009C173.831 180.006 173.712 179.949 173.665 179.884C173.522 179.688 173.309 179.583 172.936 179.528C172.135 179.404 172.269 178.689 173.161 178.316C173.763 178.063 173.806 177.96 173.295 177.985C172.98 178.003 172.749 178.073 172.274 178.293C172.237 178.307 172.233 178.236 172.266 178.129C172.336 177.874 172.155 177.856 171.935 178.094L171.779 178.263L171.546 178.109C171.247 177.907 170.396 177.785 170.389 177.945C170.387 178.001 170.547 178.115 170.754 178.202C171.305 178.432 171.67 178.871 171.6 179.227C171.52 179.641 171.402 179.719 171.091 179.569C170.229 179.152 169.051 180.111 169.556 180.817C169.667 180.974 169.67 181.011 169.566 181.205C169.335 181.648 169.68 182.325 170.193 182.438C170.416 182.484 170.485 182.543 170.543 182.713C170.696 183.193 171.655 183.58 172.176 183.372ZM171.317 182.899C171.283 182.86 171.44 182.844 171.693 182.861C172.173 182.891 172.198 182.903 171.962 182.995C171.785 183.066 171.416 183.011 171.317 182.899ZM172.76 182.29C172.797 182.254 172.934 182.196 173.064 182.156C173.313 182.08 173.381 182.168 173.166 182.287C173.01 182.374 172.66 182.376 172.76 182.29ZM173.578 182.239C173.58 182.202 173.614 182.151 173.654 182.126C173.694 182.102 173.732 181.958 173.737 181.809C173.749 181.604 173.768 181.563 173.815 181.647C173.905 181.807 173.886 182.124 173.778 182.228C173.671 182.332 173.575 182.336 173.578 182.239ZM169.949 181.813C169.85 181.511 169.964 181.336 170.07 181.627C170.115 181.756 170.189 181.886 170.231 181.917C170.359 182.008 170.309 182.099 170.154 182.049C170.077 182.023 169.981 181.919 169.949 181.813ZM170.999 181.502C170.976 181.356 171.012 181.156 171.087 180.987C171.293 180.525 171.107 180.443 170.623 180.783C170.352 180.97 170.324 180.954 170.463 180.698C170.593 180.457 170.848 180.31 171.229 180.254C171.447 180.221 171.514 180.156 171.748 179.74C172.061 179.184 172.036 179.195 172.273 179.528C172.405 179.72 172.565 179.831 172.839 179.923C173.258 180.07 173.646 180.476 173.635 180.76C173.629 180.916 173.625 180.916 173.44 180.722C173.21 180.482 172.855 180.267 172.669 180.26C172.595 180.257 172.448 180.181 172.348 180.091C172.244 179.998 172.154 179.938 172.143 179.953C171.811 180.418 171.81 180.429 172.142 180.538C172.589 180.682 172.852 180.98 172.815 181.296C172.774 181.634 172.629 181.68 172.577 181.376C172.434 180.538 171.353 180.74 171.32 181.608C171.302 182.081 171.069 182.009 170.999 181.502ZM173.893 180.717C173.864 180.373 173.868 180.354 173.962 180.492C174.071 180.642 174.093 180.997 174.004 181.084C173.934 181.148 173.931 181.137 173.893 180.717ZM169.834 180.357C169.91 180.125 170.153 179.94 170.374 179.949L170.562 179.956L170.329 180.092C170.201 180.166 170.061 180.295 170.015 180.379C169.9 180.584 169.769 180.567 169.834 180.357Z" fill="#EFB85F"/>
<line x1="185.362" y1="133.589" x2="185.294" y2="135.564" stroke="#EFB85F"/>
<line x1="180.862" y1="134.91" x2="184.812" y2="135.047" stroke="#EFB85F"/>
<line x1="181.345" y1="135.427" x2="181.072" y2="143.326" stroke="#EFB85F"/>
<line x1="174.008" y1="142.582" x2="180.59" y2="142.809" stroke="#EFB85F"/>
<line x1="174.502" y1="142.768" x2="173.809" y2="162.847" stroke="#EFB85F"/>
<line x1="124.618" y1="160.651" x2="173.327" y2="162.33" stroke="#EFB85F"/>
<line x1="124.101" y1="161.133" x2="124.85" y2="139.411" stroke="#EFB85F"/>
<line x1="144.421" y1="140.586" x2="125.332" y2="139.928" stroke="#EFB85F"/>
<line x1="144.938" y1="140.104" x2="144.507" y2="152.61" stroke="#EFB85F"/>
<line x1="107.821" y1="150.846" x2="144.024" y2="152.093" stroke="#EFB85F"/>
<line x1="107.304" y1="151.328" x2="107.667" y2="140.796" stroke="#EFB85F"/>
<line x1="155.543" y1="142.946" x2="108.15" y2="141.313" stroke="#EFB85F"/>
<line x1="156.06" y1="142.464" x2="154.88" y2="176.692" stroke="#EFB85F"/>
<line x1="177.327" y1="133.443" x2="177.259" y2="135.418" stroke="#EFB85F"/>
<line x1="168.661" y1="134.82" x2="176.764" y2="134.901" stroke="#EFB85F"/>
<line x1="169.156" y1="135.337" x2="168.702" y2="148.502" stroke="#EFB85F"/>
<line x1="186.616" y1="149.619" x2="168.185" y2="148.984" stroke="#EFB85F"/>
<line x1="186.133" y1="149.102" x2="186.542" y2="137.254" stroke="#EFB85F"/>
<line x1="162.704" y1="135.932" x2="187.059" y2="136.771" stroke="#EFB85F"/>
<line x1="163.187" y1="136.449" x2="162.506" y2="156.196" stroke="#EFB85F"/>
<line x1="113.972" y1="154.023" x2="162.023" y2="155.679" stroke="#EFB85F"/>
<line x1="113.456" y1="154.505" x2="113.796" y2="144.632" stroke="#EFB85F"/>
<line x1="150.481" y1="146.397" x2="114.278" y2="145.149" stroke="#EFB85F"/>
<line x1="150.998" y1="145.914" x2="150.567" y2="158.421" stroke="#EFB85F"/>
<line x1="110.591" y1="156.542" x2="150.085" y2="157.904" stroke="#EFB85F"/>
<line x1="111.073" y1="157.059" x2="110.438" y2="175.49" stroke="#EFB85F"/>
<line x1="146.629" y1="134.066" x2="146.561" y2="136.041" stroke="#EFB85F"/>
<line x1="152.794" y1="136.674" x2="146.045" y2="136.441" stroke="#EFB85F"/>
<line x1="153.311" y1="136.191" x2="153.018" y2="144.666" stroke="#EFB85F"/>
<line x1="134.763" y1="143.536" x2="152.536" y2="144.149" stroke="#EFB85F"/>
<line x1="135.246" y1="144.053" x2="135.042" y2="149.977" stroke="#EFB85F"/>
<line x1="148.348" y1="150.936" x2="134.525" y2="150.46" stroke="#EFB85F"/>
<line x1="148.865" y1="150.454" x2="148.388" y2="164.277" stroke="#EFB85F"/>
<line x1="130.792" y1="163.17" x2="147.906" y2="163.76" stroke="#EFB85F"/>
<line x1="130.275" y1="163.652" x2="130.865" y2="146.538" stroke="#EFB85F"/>
<line x1="165.575" y1="148.235" x2="131.347" y2="147.055" stroke="#EFB85F"/>
<line x1="166.092" y1="147.753" x2="165.411" y2="167.5" stroke="#EFB85F"/>
<line x1="172.135" y1="168.232" x2="164.895" y2="167.982" stroke="#EFB85F"/>
<line x1="172.652" y1="167.749" x2="172.312" y2="177.623" stroke="#EFB85F"/>
<line x1="130.32" y1="133.998" x2="130.252" y2="135.973" stroke="#EFB85F"/>
<line x1="138.292" y1="136.75" x2="129.735" y2="136.455" stroke="#EFB85F"/>
<line x1="138.809" y1="136.268" x2="137.743" y2="167.205" stroke="#EFB85F"/>
<line x1="100.399" y1="165.417" x2="137.26" y2="166.688" stroke="#EFB85F"/>
<line x1="99.8825" y1="165.9" x2="100.563" y2="146.153" stroke="#EFB85F"/>
<line x1="127.375" y1="147.577" x2="101.046" y2="146.67" stroke="#EFB85F"/>
<line x1="126.892" y1="147.06" x2="127.21" y2="137.845" stroke="#EFB85F"/>
<line x1="117.853" y1="137.022" x2="127.727" y2="137.363" stroke="#EFB85F"/>
<line x1="118.336" y1="137.539" x2="117.111" y2="173.084" stroke="#EFB85F"/>
<line x1="131.075" y1="174.066" x2="116.594" y2="173.566" stroke="#EFB85F"/>
<line x1="131.592" y1="173.583" x2="131.501" y2="176.216" stroke="#EFB85F"/>
<line x1="121.253" y1="134.18" x2="121.184" y2="136.155" stroke="#EFB85F"/>
<line x1="109.992" y1="135.433" x2="120.694" y2="135.637" stroke="#EFB85F"/>
<line x1="110.483" y1="135.95" x2="110.029" y2="149.115" stroke="#EFB85F"/>
<line x1="128.601" y1="150.256" x2="109.512" y2="149.598" stroke="#EFB85F"/>
<line x1="129.118" y1="149.773" x2="128.414" y2="170.178" stroke="#EFB85F"/>
<line x1="104.894" y1="168.867" x2="127.932" y2="169.662" stroke="#EFB85F"/>
<line x1="104.377" y1="169.35" x2="104.785" y2="157.502" stroke="#EFB85F"/>
<line x1="153.319" y1="159.675" x2="105.268" y2="158.019" stroke="#EFB85F"/>
<line x1="152.836" y1="159.158" x2="153.154" y2="149.943" stroke="#EFB85F"/>
<line x1="160.219" y1="150.686" x2="153.636" y2="150.459" stroke="#EFB85F"/>
<line x1="160.735" y1="150.204" x2="160.055" y2="169.951" stroke="#EFB85F"/>
<line x1="143.116" y1="168.867" x2="159.572" y2="169.434" stroke="#EFB85F"/>
<line x1="143.599" y1="169.384" x2="143.349" y2="176.624" stroke="#EFB85F"/>
<path d="M152.061 182.82C152.119 182.786 152.213 182.779 152.464 182.783C152.828 182.79 152.939 182.759 153.092 182.618C153.177 182.535 153.229 182.349 153.185 182.274C153.147 182.207 152.988 182.214 152.893 182.285C152.818 182.34 152.78 182.348 152.531 182.343C152.21 182.34 152.079 182.383 151.953 182.527C151.889 182.601 151.874 182.643 151.876 182.734C151.879 182.865 151.933 182.893 152.061 182.82Z" fill="#EFB85F"/>
<path d="M154.555 182.497C154.571 182.493 154.723 182.36 154.893 182.21C155.06 182.057 155.426 181.726 155.706 181.479C156.893 180.425 157.163 180.166 157.168 180.081C157.174 179.982 157.115 179.944 156.931 179.933C156.836 179.927 156.76 179.941 156.694 179.974C156.641 180.003 156.141 180.43 155.587 180.923C155.03 181.419 154.556 181.82 154.529 181.819C154.505 181.817 154.066 181.341 153.559 180.762C153.049 180.179 152.605 179.69 152.574 179.672C152.425 179.58 152.138 179.674 152.129 179.818C152.128 179.837 152.259 180.008 152.424 180.2C152.586 180.389 152.73 180.572 152.747 180.605C152.763 180.644 152.76 180.871 152.735 181.278C152.704 181.798 152.703 181.897 152.738 181.934C152.768 181.968 152.834 181.983 153.026 181.994C153.162 182.003 153.293 182.003 153.317 181.996C153.353 181.985 153.364 181.932 153.379 181.692C153.392 181.482 153.404 181.402 153.428 181.404C153.447 181.405 153.683 181.655 153.951 181.957C154.414 182.478 154.467 182.526 154.555 182.497Z" fill="#EFB85F"/>
<path d="M155.592 180.575L156.548 179.73L156.6 178.885L156.651 178.043L156.43 178.029C156.31 178.022 156.087 177.99 155.934 177.956C155.602 177.882 155.583 177.879 155.604 177.85C155.612 177.837 155.909 177.84 156.262 177.85C156.966 177.877 156.998 177.874 157.072 177.721C157.102 177.661 157.105 177.624 157.086 177.574L157.058 177.506L154.772 177.366C152.589 177.233 152.48 177.229 152.437 177.272C152.363 177.342 152.375 177.42 152.469 177.53C152.549 177.624 152.568 177.633 152.714 177.642C152.831 177.649 152.873 177.662 152.885 177.695C152.891 177.719 152.874 178.13 152.845 178.607L152.792 179.479L153.388 180.146C154.351 181.23 154.527 181.417 154.586 181.421C154.62 181.423 154.973 181.129 155.592 180.575ZM154.986 179.551C154.963 179.531 154.962 179.416 154.989 179.062L155.026 178.599L155.418 178.615C155.903 178.636 155.891 178.625 155.877 178.98C155.862 179.45 155.846 179.574 155.804 179.599C155.757 179.625 155.032 179.583 154.986 179.551ZM153.532 179.398C153.526 179.363 153.548 178.971 153.578 178.524L153.635 177.711L154.022 177.735L154.408 177.759L154.365 178.596C154.334 179.19 154.311 179.443 154.288 179.466C154.262 179.494 154.168 179.496 153.899 179.479C153.553 179.458 153.542 179.455 153.532 179.398Z" fill="#EFB85F"/>
<path d="M143.704 180.925C143.743 180.889 143.812 180.8 143.855 180.728C143.898 180.653 143.996 180.491 144.071 180.363C144.146 180.236 144.244 180.074 144.284 180.002C144.328 179.933 144.403 179.804 144.454 179.719C144.622 179.442 145.08 178.673 145.279 178.33C145.345 178.217 145.47 178.003 145.556 177.857C145.741 177.54 145.754 177.462 145.629 177.384C145.552 177.334 145.496 177.327 144.978 177.309C144.364 177.288 144.258 177.3 144.108 177.413C144.021 177.476 143.745 177.92 143.742 177.999C143.742 178.012 143.724 178.064 143.701 178.11C143.677 178.157 143.639 178.242 143.615 178.299C143.536 178.488 143.471 178.635 143.424 178.726C143.345 178.883 143.304 178.968 143.289 179.015C143.271 179.067 143.204 179.052 143.181 178.99C143.164 178.943 143.263 178.29 143.302 178.186C143.319 178.145 143.333 178.066 143.335 178.014C143.337 177.959 143.36 177.818 143.389 177.701C143.447 177.443 143.438 177.377 143.324 177.305C143.241 177.252 143.185 177.247 142.024 177.207C140.404 177.152 140.459 177.127 140.753 177.749C140.844 177.941 140.973 178.211 141.039 178.342C141.222 178.705 141.788 179.856 142.095 180.483C142.379 181.068 142.396 181.069 142.789 180.463C142.803 180.442 142.849 180.362 142.89 180.29C142.976 180.131 143.042 180.117 143.097 180.245C143.145 180.354 143.263 180.574 143.327 180.678C143.353 180.724 143.386 180.785 143.398 180.814C143.426 180.881 143.55 180.988 143.599 180.989C143.618 180.99 143.665 180.96 143.704 180.925Z" fill="#EFB85F"/>
<path d="M131.153 182.013C131.202 181.996 131.404 181.741 131.502 181.577C131.52 181.548 131.554 181.493 131.583 181.454C131.654 181.352 131.97 180.89 132.005 180.838C132.112 180.674 132.241 180.478 132.278 180.428C132.53 180.085 132.823 179.592 132.934 179.329C133.018 179.128 133.041 178.487 132.973 178.242C132.86 177.837 132.678 177.557 132.347 177.28C132.095 177.07 131.696 176.923 131.323 176.907C130.744 176.881 130.114 177.214 129.797 177.71C129.62 177.987 129.588 178.064 129.536 178.33C129.476 178.642 129.519 179.128 129.632 179.374C129.644 179.404 129.676 179.476 129.7 179.536C129.754 179.665 130.144 180.386 130.371 180.775C130.459 180.926 130.541 181.075 130.556 181.105C130.57 181.135 130.603 181.198 130.63 181.243C130.658 181.29 130.687 181.345 130.697 181.367C130.717 181.413 131.106 182.029 131.114 182.027C131.117 182.027 131.133 182.02 131.153 182.013ZM132.111 179.276C132.183 179.097 132.161 178.698 132.064 178.457C132.001 178.293 131.85 178.066 131.751 177.984C131.609 177.865 131.515 177.802 131.475 177.8C131.456 177.799 131.401 177.77 131.351 177.738C131.265 177.681 131.262 177.675 131.315 177.651C131.342 177.636 131.458 177.627 131.568 177.632C131.729 177.642 131.798 177.658 131.919 177.723C132.089 177.816 132.298 178.03 132.387 178.206C132.476 178.381 132.506 178.668 132.456 178.829C132.403 179.002 132.256 179.285 132.183 179.357C132.104 179.435 132.066 179.39 132.111 179.276Z" fill="#EFB85F"/>
</g>
<defs>
<clipPath id="clip0_71_782">
<rect width="297.638" height="419.528" rx="10" fill="white"/>
</clipPath>
</defs>
</svg>
