<svg width="391" height="447" viewBox="0 0 391 447" fill="none" xmlns="http://www.w3.org/2000/svg">
<path opacity="0.996078" d="M208.514 0L219.23 0.892994L227.714 7.59045L233.072 24.5573V40.6312L229.5 62.9561L219.677 87.96C214.438 97.3066 208.038 105.492 200.477 112.517C195.715 117.518 190.208 121.388 183.957 124.126C184.731 125.912 183.987 126.508 181.724 125.912L180.385 128.145H182.171C181.873 129.931 183.808 130.377 187.975 129.484L196.012 125.019L215.212 109.838V108.052L218.337 106.266L248.252 81.2625C247.598 79.6551 248.044 79.0598 249.592 79.4765L267.898 63.4026C267.243 61.7952 267.69 61.1999 269.238 61.6166L279.954 51.7937L316.567 25.8968L344.249 12.5019L354.965 8.92994L364.788 7.14396H375.504C380.148 7.85835 383.571 9.79317 385.774 12.9484C389.822 17.5325 391.31 24.6764 390.239 34.3803L384.881 49.5612L375.058 66.0816C373.45 65.4267 372.855 65.8732 373.272 67.4211L363.895 75.9045L360.77 76.7975C359.996 78.7621 361.038 79.3574 363.895 78.5835L370.593 83.495C372.795 86.0549 373.391 90.2222 372.379 95.9969C368.866 108.856 362.466 118.828 353.179 125.912L350.5 127.698L333.533 140.2L308.53 151.809L277.275 159.846L254.057 160.739L253.164 161.632H251.378H244.234L235.304 159.846H216.998L218.337 165.204L223.695 164.311H225.481L241.555 166.097L269.238 175.027L285.312 182.171C293.884 186.993 301.475 192.798 308.083 199.584C307.666 200.954 308.113 201.4 309.423 200.924L312.102 204.496L315.227 206.728L331.301 226.374L338.445 238.876L339.338 244.234L344.696 257.629L346.482 274.596V276.382L345.589 279.061L346.482 284.419L344.696 292.456V305.851L350.054 321.925V325.496L351.84 328.175L352.733 336.212V337.998C353.507 340.261 352.763 341.005 350.5 340.231L345.589 337.105L344.249 334.873C339.249 329.455 332.7 325.586 324.603 323.264L312.995 329.515L304.065 332.194H302.279C300.969 331.777 300.522 332.224 300.939 333.533L301.832 335.766L308.083 338.445L309.869 342.463L306.297 343.803C305.642 345.41 306.089 346.006 307.637 345.589L315.227 352.286L314.781 353.626L313.441 353.179L321.478 363.002L320.585 364.788L321.478 367.914C319.871 367.259 319.275 367.705 319.692 369.253L322.371 370.593L323.71 373.272L325.943 374.611L326.836 376.397L325.496 375.951L322.817 375.058L322.371 376.397L326.836 383.541C325.348 384.434 325.645 385.327 327.729 386.22C328.384 390.923 330.467 394.198 333.98 396.043V398.722L330.854 400.955L328.622 400.062L327.729 396.49L324.157 394.257L321.032 388.453L319.246 389.346H317.46L314.334 388.006L311.209 382.202L310.762 386.22L311.655 388.899L310.316 388.453C309.006 388.929 308.559 388.482 308.976 387.113L302.279 377.737L299.153 375.504L296.028 367.914L295.581 370.593L289.33 365.681L278.168 351.84C273.048 352.495 269.922 351.155 268.791 347.821L260.308 333.087H249.592C246.199 330.884 241.882 329.991 236.644 330.408V354.072C236.703 354.727 238.34 354.876 241.555 354.519C245.484 355.055 248.312 356.692 250.038 359.43L251.378 361.663C252.747 361.246 253.194 361.693 252.717 363.002L267.452 370.593L271.47 374.611L275.935 385.327V394.257L280.4 416.582V430.87C279.15 436.466 276.62 440.782 272.81 443.818C270.012 446.081 265.844 446.973 260.308 446.497C254.533 445.426 249.919 443.193 246.466 439.8L238.43 420.154L229.946 409.884L211.193 406.312L190.208 392.471L188.868 390.239C187.082 389.703 186.636 390.745 187.529 393.364L188.422 394.257V403.187L185.743 419.261L176.813 434.442L171.008 440.246C169.639 441.854 167.258 442.449 163.864 442.032C160.471 441.318 157.941 439.681 156.274 437.121L154.488 432.656L153.595 409.438L150.47 404.526L141.54 401.848C135.051 402.681 129.99 402.086 126.359 400.062L116.536 395.597L109.838 389.792L102.694 376.397L100.015 363.002V357.644L102.694 345.142L115.196 316.12L107.606 314.334L102.694 310.316L94.2109 295.581L84.388 304.511L74.565 307.19L72.779 306.297L65.6351 308.976L56.7051 309.869L54.4727 308.976L52.2402 305.404L47.3287 307.19L45.5427 320.139L40.6312 328.622C38.6667 329.277 37.9225 328.83 38.3988 327.282L36.6128 323.71V310.762L33.9338 312.102L31.7013 315.227C30.3916 314.81 29.9451 315.257 30.3618 316.567L24.1109 326.389V328.175C24.5871 334.01 23.2476 338.028 20.0924 340.231L16.9669 338.891C14.4665 334.843 13.5735 329.188 14.2879 321.925L17.8599 311.655L15.1809 312.995L14.2879 316.567C10.7159 318.412 8.63228 321.24 8.03695 325.05L3.12548 325.943L0.892994 325.05L0 313.888L3.57198 304.065L15.6274 290.223L19.6459 287.098C19.9435 282.633 21.5807 279.507 24.5573 277.721L37.5058 273.256C36.7318 271.292 37.7737 270.696 40.6312 271.47L49.5612 268.791L54.0262 269.684L62.0631 267.898L66.9746 262.987L61.6166 241.555L60.2771 240.216C55.455 239.62 51.7341 238.132 49.1147 235.751L42.4172 225.928L33.9338 218.337L31.2548 211.193L23.2179 199.584L16.0739 179.938L15.1809 176.366V158.507L17.8599 142.433L27.6828 120.108C33.7552 110.404 41.048 101.92 49.5612 94.6574C57.8363 87.7516 67.808 82.5425 79.4765 79.03L76.7975 75.0115C75.1901 75.6664 74.5948 75.2199 75.0115 73.672L71.8861 70.5466L62.9561 66.0816L46.8822 65.1886L40.6312 66.9746L29.9153 73.2255H24.5573L18.7529 69.2071C18.1576 65.3374 18.9017 62.8073 20.9854 61.6166C29.1414 54.8894 40.7503 51.6151 55.8122 51.7937L61.1701 52.6867L74.565 58.0446L83.0485 66.5281C86.3823 68.8499 88.0195 72.8683 87.96 78.5835C92.9012 76.3808 99.4498 75.7855 107.606 76.7975L111.624 77.6905L112.517 62.9561L116.982 45.0962L123.233 32.5943L136.628 15.1809L139.307 13.8414L142.433 9.82294L148.684 4.46497L154.935 3.57198L156.274 4.91147L157.167 11.1624C155.917 15.5679 153.684 18.991 150.47 21.4319L140.2 29.9153L132.163 42.4172L126.805 54.9192L124.126 64.7421L122.34 80.3695L137.075 83.9415L148.684 91.0854L150.023 89.7459L159.846 57.5981C165.204 45.6916 171.604 34.8268 179.045 25.0038C180.415 25.4801 180.861 25.0336 180.385 23.6644L194.226 8.92994L208.514 0ZM208.961 7.14396L201.817 10.7159L191.994 22.3249L188.422 32.1478L199.138 27.6828L205.389 19.6459L207.175 15.1809L208.068 17.8599L200.924 30.3618C199.138 39.2918 196.459 47.3287 192.887 54.4727L198.245 53.5797H200.031L202.71 52.6867L210.747 38.3988L216.105 32.1478L220.57 22.3249H221.463L218.784 35.7198C215.212 42.8637 210.449 49.1147 204.496 54.4727L201.817 64.2956C199.435 64.8909 199.435 65.7839 201.817 66.9746C207.175 59.8306 215.212 55.3657 225.928 53.5797L227.714 41.9707L226.821 36.6128L227.714 34.8268L226.821 33.9338V25.8968C225.035 23.5155 224.439 20.5389 225.035 16.9669L223.249 13.3949V9.82294C221.463 10.4183 220.867 9.82294 221.463 8.03695C218.486 6.84629 214.319 6.54863 208.961 7.14396ZM150.916 8.92994L146.451 13.3949L148.237 15.1809L150.916 10.7159V8.92994ZM368.807 13.3949L354.519 16.0739L333.087 24.1109L318.799 31.2548L300.939 44.6497C299.153 44.0544 298.558 44.6497 299.153 46.4357L315.227 42.8637L337.552 29.4688C338.743 30.0641 339.04 29.4688 338.445 27.6828H341.124L351.84 21.4319C357.198 20.8365 361.96 19.3482 366.128 16.9669L370.593 17.8599L350.054 24.1109L331.301 35.7198L334.873 36.6128L338.445 35.7198H340.231L345.589 34.8268L348.268 35.7198L369.7 31.2548L375.058 28.5758C376.248 27.9805 376.546 28.5758 375.951 30.3618L359.877 36.6128L338.445 37.5058L337.552 38.3988L330.408 35.7198L321.478 41.0777L319.692 44.6497L318.799 53.5797L316.12 59.8306L315.227 61.6166L337.552 50.0077C338.743 50.603 339.04 50.3054 338.445 49.1147L353.626 41.0777L355.412 41.9707L365.235 39.2918L378.63 32.1478V33.9338L373.272 37.5058H369.7L361.663 41.9707L350.947 44.6497L348.268 46.4357C346.482 45.8404 345.887 46.4357 346.482 48.2217L336.659 54.4727L342.017 55.3657L375.951 41.9707L376.844 42.8637L369.7 46.4357C367.318 45.8404 366.425 46.4357 367.021 48.2217L345.589 57.1516C341.422 58.3423 339.04 58.0446 338.445 56.2587L328.622 57.1516L313.441 64.2956L308.083 72.3326V75.0115L324.157 71.4396L333.98 65.1886L341.124 63.4026H342.91L345.589 62.5096L350.054 59.8306L352.733 60.7236L355.412 58.9376L360.77 58.0446L361.663 58.9376L329.515 70.5466L323.264 74.1185L317.013 75.0115L306.297 79.4765C304.511 78.8812 303.916 79.4765 304.511 81.2625L294.688 89.2994L284.865 91.0854H283.079C273.554 94.0621 265.517 98.5271 258.968 104.48L256.289 108.052L258.075 107.159L261.647 108.945C259.861 110.136 257.182 110.434 253.61 109.838L249.145 113.41L246.466 116.982L234.858 123.233L227.714 129.484L215.212 135.735L214.319 137.521L230.393 130.377L286.651 99.1224L311.655 90.1924L331.301 80.3695L341.124 77.6905L355.412 75.9045L359.877 72.3326C359.281 70.5466 359.877 69.9512 361.663 70.5466L365.235 66.0816L368.807 63.4026C375.355 55.6633 380.416 46.4357 383.988 35.7198C385.178 28.5758 384.881 23.2179 383.095 19.6459C380.713 14.8832 375.951 12.7996 368.807 13.3949ZM145.558 14.2879L142.879 17.8599L146.451 16.9669C147.046 14.5856 146.749 13.6926 145.558 14.2879ZM192.887 18.7529L191.101 21.4319L192.887 20.5389V18.7529ZM139.307 20.5389C138.712 22.9202 139.307 23.8132 141.093 23.2179C141.688 20.8365 141.093 19.9435 139.307 20.5389ZM191.101 21.4319L188.422 23.2179C180.683 29.7665 175.027 38.6964 171.455 50.0077V51.7937L172.348 54.4727L176.813 44.6497L187.529 29.4688V26.7898L191.101 23.2179V21.4319ZM136.628 23.2179V25.8968L139.307 25.0038L136.628 23.2179ZM135.735 25.0038L129.484 32.1478C128.889 34.5291 129.782 35.1244 132.163 33.9338V32.1478L136.628 27.6828L135.735 25.0038ZM195.566 32.1478L186.636 36.6128L174.134 55.3657C171.157 61.319 169.074 68.4629 167.883 76.7975L159.846 95.5504L158.953 98.2294L160.739 99.1224V98.2294V96.4434H162.525L173.241 71.4396L176.813 68.7606L177.706 66.9746C178.301 65.1886 179.194 64.8909 180.385 66.0816L190.208 53.5797L197.352 35.7198C198.542 32.7431 197.947 31.5525 195.566 32.1478ZM128.591 35.7198L126.805 39.2918L124.126 41.0777L126.805 41.9707L129.484 38.3988C130.08 36.0174 129.782 35.1244 128.591 35.7198ZM124.126 42.8637L121.447 46.4357H123.233C123.829 47.6264 124.424 47.6264 125.019 46.4357C125.615 43.4591 125.317 42.2684 124.126 42.8637ZM317.013 43.7567L302.725 50.0077H300.046L294.688 53.5797L291.116 55.3657V53.5797L269.684 69.6536L242.001 95.5504L204.496 125.912L202.71 128.591L194.673 133.056L196.459 135.735V134.842C197.054 133.056 198.542 132.461 200.924 133.056L224.142 117.875L243.787 99.1224L247.359 97.3364L266.112 80.3695L268.791 79.4765H269.684L256.289 92.8714L238.43 107.159C239.025 108.35 238.727 108.648 237.537 108.052L233.965 112.517L238.43 110.731C239.025 108.35 239.918 108.052 241.109 109.838L250.038 107.159L258.968 100.908C267.898 91.9784 275.34 81.5602 281.293 69.6536L280.4 65.1886L283.079 64.2956L286.651 59.8306C286.056 58.0446 286.651 57.4493 288.437 58.0446L285.758 62.5096L284.865 66.9746V67.8676C290.223 67.8676 294.688 66.6769 298.26 64.2956L310.762 62.5096L313.441 59.8306L317.013 50.9007V43.7567ZM298.26 45.5427L295.581 48.2217H298.26C300.046 47.6264 300.046 46.7334 298.26 45.5427ZM121.447 48.2217C119.066 49.4124 119.364 50.603 122.34 51.7937C123.531 52.389 123.829 51.7937 123.233 50.0077L121.447 48.2217ZM118.768 53.5797V56.2587L121.447 57.1516V55.3657L118.768 53.5797ZM199.138 54.4727L185.743 63.4026L176.813 73.2255C177.408 74.4162 176.813 74.7139 175.027 74.1185L161.632 105.373L162.525 107.159L177.706 81.2625L179.492 82.1555C173.539 89.2994 168.776 97.9317 165.204 108.052L166.99 109.838L172.348 103.587C171.753 101.801 172.348 101.206 174.134 101.801L181.278 94.6574L183.957 89.2994L194.673 75.9045L200.924 58.0446C202.114 55.068 201.519 53.8773 199.138 54.4727ZM225.035 54.4727L203.603 67.8676L189.315 88.4065V89.2994L201.817 82.1555C203.007 82.7508 203.305 82.1555 202.71 80.3695L216.105 72.3326L216.998 73.2255L213.426 77.6905L186.636 94.6574L175.027 107.159L172.348 114.303L177.706 112.517L180.385 108.052H183.064C189.017 102.099 196.459 97.3364 205.389 93.7644H206.282L205.389 95.5504L178.599 115.196H176.813L175.027 117.875L185.743 111.624V113.41L182.171 116.089C180.385 115.494 179.79 116.089 180.385 117.875L176.813 120.554C175.027 119.959 174.432 120.554 175.027 122.34L180.385 120.554C185.148 115.196 191.398 110.731 199.138 107.159L207.175 99.1224L216.105 85.7275L225.928 57.1516C226.523 54.7703 226.225 53.8773 225.035 54.4727ZM53.5797 56.2587L31.2548 60.7236L29.4688 63.4026C27.6828 63.9979 28.2782 64.8909 31.2548 66.0816L33.9338 61.6166L36.6128 62.5096C37.2081 63.7003 37.8034 63.7003 38.3988 62.5096C37.8034 60.7236 38.6964 60.1283 41.0777 60.7236C41.6731 59.533 42.5661 59.8306 43.7567 61.6166V59.8306L46.4357 60.7236L47.3287 59.8306L49.1147 60.7236V58.0446C50.9007 57.4493 51.496 58.0446 50.9007 59.8306H53.5797L54.4727 60.7236C55.068 58.3423 54.7703 56.854 53.5797 56.2587ZM169.669 56.2587L164.311 63.4026L156.274 85.7275C155.679 89.8948 156.274 91.6808 158.06 91.0854L163.418 79.4765L169.669 58.0446V56.2587ZM56.2587 57.1516L57.1516 60.7236L61.6166 58.9376L62.5096 61.6166L66.0816 62.5096L66.9746 60.7236H66.0816L65.1886 58.9376C63.4026 57.1516 60.426 56.5563 56.2587 57.1516ZM118.768 58.9376L117.875 60.7236C116.089 61.319 116.685 62.2119 119.661 63.4026L120.554 59.8306L118.768 58.9376ZM68.7606 60.7236L66.9746 62.5096L72.3326 66.0816V64.2956L68.7606 60.7236ZM25.8968 64.2956L23.2179 65.1886L24.1109 67.8676L26.7898 66.9746C27.3852 64.5933 27.0875 63.7003 25.8968 64.2956ZM116.089 65.1886L114.303 66.9746H116.089V65.1886ZM307.19 65.1886L283.972 70.5466L269.684 93.7644V94.6574L276.828 90.1924L287.544 88.4065L297.367 83.0485C302.13 78.8812 305.702 73.5232 308.083 66.9746C308.678 65.1886 308.381 64.5933 307.19 65.1886ZM75.9045 66.0816L75.0115 67.8676L76.7975 68.7606L75.9045 66.0816ZM116.982 66.0816C115.792 69.0582 116.387 70.2489 118.768 69.6536C119.959 66.6769 119.364 65.4863 116.982 66.0816ZM115.196 68.7606L113.41 75.0115C112.815 76.2022 113.41 76.4999 115.196 75.9045V68.7606ZM351.84 82.1555L336.659 84.8345L326.836 89.2994H324.157L318.799 92.8714L294.688 102.694V103.587L301.832 101.801L302.725 103.587L312.548 100.908L322.371 93.7644C323.562 93.1691 323.859 93.7644 323.264 95.5504L313.441 101.801L308.083 103.587L300.939 109.838L288.437 116.089L246.466 130.377H244.68L208.961 144.665C207.77 146.451 206.877 146.749 206.282 145.558L199.138 149.13V150.023L208.961 148.237L217.891 142.879L234.858 136.628L253.61 133.056L270.577 126.805L288.437 123.233C297.367 119.661 305.702 114.899 313.441 108.945L318.799 107.159L322.371 108.052L334.873 107.159L350.054 101.801C350.649 99.4201 351.542 99.1224 352.733 100.908L356.305 100.015L360.77 100.908L344.696 107.159L330.408 110.731C326.836 111.922 324.752 111.624 324.157 109.838L314.334 110.731L298.26 121.447L297.367 123.233L331.301 121.447L349.161 114.303L350.054 115.196L337.552 122.34L331.301 124.126C328.92 123.531 328.027 124.126 328.622 125.912C334.575 126.508 339.636 125.912 343.803 124.126C345.589 124.722 346.184 124.126 345.589 122.34L352.733 117.875L363.449 104.48L367.914 90.1924L366.128 87.5135L361.663 83.9415L351.84 82.1555ZM92.8714 83.0485L75.9045 86.6205L66.0816 91.9784L65.1886 93.7644L66.9746 92.8714L71.4396 93.7644C68.4629 93.1691 66.3793 93.7644 65.1886 95.5504L64.2956 93.7644L51.7937 101.801L50.0077 104.48L67.8676 97.3364C70.2489 96.7411 71.1419 97.3364 70.5466 99.1224L61.6166 100.908L47.3287 107.159L45.5427 109.838L54.4727 105.373L59.8306 104.48H61.6166L69.6536 102.694H89.2994L105.373 106.266C114.303 109.838 122.043 114.601 128.591 120.554C129.782 119.959 130.08 120.554 129.484 122.34L132.163 123.233L139.307 131.27H141.093L139.307 128.591L130.377 119.661L128.591 116.982L122.34 113.41L123.233 111.624L133.949 119.661C136.926 122.043 139.307 125.615 141.093 130.377L142.879 129.484C139.902 122.34 135.437 116.982 129.484 113.41L130.377 111.624L142.879 124.126L144.665 126.805H146.451L135.735 112.517L129.484 107.159L128.591 105.373L140.2 112.517L148.237 122.34L146.451 123.233H150.023C147.046 116.685 142.879 111.029 137.521 106.266C135.735 106.862 135.14 106.266 135.735 104.48L130.377 102.694L131.27 100.908L141.986 106.266L151.809 117.875L152.702 122.34L154.488 123.233C153.893 117.875 152.107 113.708 149.13 110.731C143.772 104.183 136.926 99.1224 128.591 95.5504L127.698 93.7644L142.879 100.015L146.451 102.694L156.274 113.41L158.06 118.768H160.739L158.06 112.517L150.916 102.694L142.879 94.6574L129.484 88.4065L122.34 86.6205C119.959 86.0251 119.364 87.2158 120.554 90.1924C122.936 89.5971 124.424 90.1924 125.019 91.9784H123.233L122.34 91.0854L119.661 93.7644L112.517 91.9784C114.303 90.7878 114.601 88.7041 113.41 85.7275L108.052 83.0485H92.8714ZM300.939 105.373L286.651 108.945H284.865L263.433 117.875L242.894 128.591V129.484C247.062 128.889 250.634 127.401 253.61 125.019H257.182L275.935 119.661L283.079 115.196L290.223 113.41C290.819 111.029 291.712 110.731 292.902 112.517L302.725 106.266L300.939 105.373ZM72.3326 106.266L51.7937 109.838L42.8637 114.303L32.1478 125.912L33.0408 126.805C41.3754 118.471 53.282 113.113 68.7606 110.731H87.5135L98.2294 112.517C99.4201 114.303 101.801 115.196 105.373 115.196L124.126 127.698L132.163 138.414C131.568 139.605 132.163 139.902 133.949 139.307L134.842 137.521L135.735 141.093L137.521 140.2L134.842 133.056L124.126 121.447L120.554 119.661L118.768 116.982H116.982L108.945 111.624L98.2294 108.052L90.1924 106.266H72.3326ZM247.359 110.731L233.072 116.089L209.854 132.163L208.068 134.842L218.784 127.698L237.537 118.768L240.216 116.089H242.894L247.359 113.41L248.252 111.624L247.359 110.731ZM83.9415 113.41V114.303H86.6205L83.9415 113.41ZM83.0485 118.768L82.1555 119.661H66.0816L56.2587 122.34V123.233L68.7606 120.554H80.3695L81.2625 121.447L83.0485 120.554L90.1924 121.447L95.5504 124.126H98.2294L91.9784 120.554L83.0485 118.768ZM44.6497 121.447L38.3988 125.912C32.4455 130.08 28.2782 135.735 25.8968 142.879L21.4319 161.632C21.4319 179.492 25.5992 193.184 33.9338 202.71L35.7198 205.389C39.2918 209.556 44.0544 212.533 50.0077 214.319C51.1983 214.914 51.496 214.319 50.9007 212.533L47.3287 210.747H44.6497C45.2451 208.961 44.9474 208.365 43.7567 208.961L31.2548 194.673L26.7898 183.064L25.0038 173.241C25.0038 149.428 31.8501 132.461 45.5427 122.34L44.6497 121.447ZM74.1185 125.019L73.2255 125.912H66.0816L54.4727 131.27C49.71 134.842 45.8404 139.605 42.8637 145.558L38.3988 162.525L39.2918 180.385C39.2918 170.264 41.0777 161.93 44.6497 155.381L49.1147 151.809L45.5427 156.274L46.4357 158.06L43.7567 164.311L45.5427 180.385H47.3287L46.4357 175.027V173.241L45.5427 171.455L49.1147 158.06C52.0913 150.321 55.961 144.07 60.7236 139.307L71.4396 132.163L73.2255 133.056L77.6905 130.377L80.3695 131.27C81.5602 129.484 84.2391 128.889 88.4065 129.484L89.2994 128.591L83.9415 125.912L74.1185 125.019ZM294.688 125.912L278.614 128.591L260.754 133.949C258.968 133.354 258.373 133.949 258.968 135.735L264.326 134.842L265.219 135.735H277.721L279.507 137.521L287.544 139.307L294.688 142.879C296.474 144.07 296.474 144.963 294.688 145.558L277.721 139.307H260.754L259.861 138.414L243.787 139.307H242.001L239.323 140.2L238.43 143.772L237.537 142.879C235.155 144.665 231.881 145.26 227.714 144.665L223.249 147.344H245.573L254.503 149.13L256.289 151.809C253.908 150.023 250.336 149.725 245.573 150.916H243.787L242.001 150.023H240.216H232.179L231.286 150.916L229.5 150.023L217.891 150.916L215.212 152.702H227.714L228.607 153.595C230.393 153 230.988 153.595 230.393 155.381L232.179 156.274H243.787L244.68 157.167L267.898 156.274L285.758 152.702L300.939 146.451H304.511L312.548 143.772L315.227 141.093L319.692 140.2L336.659 132.163L339.338 129.484C335.766 127.698 331.301 127.103 325.943 127.698L320.585 125.912H311.655L310.762 126.805L308.976 125.912L305.404 126.805H303.618L294.688 125.912ZM161.632 127.698L153.595 132.163L148.237 139.307L145.558 140.2V138.414L150.023 132.163L150.916 130.377C149.13 129.782 148.535 130.377 149.13 132.163L147.344 133.056L142.879 140.2V141.986L139.307 150.916V159.846L142.879 169.669L144.665 171.455L146.451 174.134L154.488 178.599H160.739L159.846 176.813H155.381C154.786 175.027 153.297 174.432 150.916 175.027L145.558 170.562L141.986 160.739L142.879 158.06V160.739H143.772C144.963 156.572 144.665 154.19 142.879 153.595L145.558 150.023V159.846L150.023 169.669H151.809C151.214 170.86 151.809 171.157 153.595 170.562L154.488 171.455C150.916 168.478 148.535 164.906 147.344 160.739L148.237 156.274L149.13 160.739H150.023V152.702L152.702 151.809L153.595 154.488L154.488 152.702V157.167L158.953 166.097L163.418 167.883H165.204L167.883 168.776L171.455 166.99C175.027 164.609 177.408 161.037 178.599 156.274V141.986L170.562 132.163C165.799 131.568 162.525 132.163 160.739 133.949C155.976 136.926 153.297 141.688 152.702 148.237L150.916 147.344C151.511 141.391 153.297 136.628 156.274 133.056L160.739 129.484L165.204 128.591L161.632 127.698ZM187.529 137.521V140.2V141.986L188.422 148.237L191.994 149.13C192.589 147.344 191.994 146.749 190.208 147.344V141.093L188.422 139.307C189.017 137.521 188.719 136.926 187.529 137.521ZM191.994 137.521L195.566 148.237C196.161 149.428 195.566 149.725 193.78 149.13C193.184 150.916 193.78 151.511 195.566 150.916L197.352 147.344V145.558L193.78 139.307C194.375 137.521 193.78 136.926 191.994 137.521ZM182.171 139.307L183.064 141.093C183.659 139.307 183.362 138.712 182.171 139.307ZM194.673 154.488L192.887 158.06L193.78 160.739L196.459 156.274C197.054 154.488 196.459 153.893 194.673 154.488ZM191.101 156.274L189.315 158.953C189.91 160.739 189.315 161.334 187.529 160.739V158.953L186.636 162.525C189.017 163.12 190.505 162.525 191.101 160.739V156.274ZM204.496 156.274V160.739H205.389C204.793 158.953 205.389 158.358 207.175 158.953L206.282 160.739L208.068 164.311C208.663 166.692 208.068 168.478 206.282 169.669L207.175 178.599L208.961 177.706L212.533 185.743C211.937 187.529 212.533 188.124 214.319 187.529C213.723 183.362 212.235 180.087 209.854 177.706C210.449 175.92 210.151 175.325 208.961 175.92V175.027C208.365 173.241 208.961 172.646 210.747 173.241L211.64 171.455V164.311L208.961 158.06L204.496 156.274ZM202.71 157.167C202.114 158.953 200.626 159.548 198.245 158.953L199.138 160.739L202.71 159.846V157.167ZM198.245 164.311L195.566 168.776C194.97 173.539 195.566 177.111 197.352 179.492L199.138 180.385C200.328 175.622 199.733 172.943 197.352 172.348C196.756 168.776 197.054 166.692 198.245 166.097V164.311ZM129.484 166.99L127.698 168.776L125.912 177.706L121.447 185.743L122.34 186.636L129.484 171.455V166.99ZM203.603 166.99L202.71 169.669L200.031 168.776V175.92L204.496 183.957H206.282L202.71 176.813C202.114 173.241 202.412 171.157 203.603 170.562V166.99ZM186.636 167.883L188.422 170.562C190.208 169.967 190.803 170.562 190.208 172.348V174.134L191.994 178.599H192.887L191.994 168.776L190.208 169.669L186.636 167.883ZM227.714 169.669L225.928 170.562V171.455L236.644 170.562L234.858 173.241L244.68 177.706V178.599L233.965 174.134L223.249 175.027L224.142 176.813L225.928 175.92H227.714C230.095 175.325 230.988 175.92 230.393 177.706L224.142 178.599L222.356 180.385H225.035H226.821H233.965L234.858 179.492L240.216 181.278L229.5 183.064L228.607 184.85L231.286 183.957V185.743L232.179 187.529L234.858 186.636L240.216 187.529L241.109 189.315L238.43 188.422L231.286 190.208C227.714 189.017 226.225 189.612 226.821 191.994H229.5L232.179 191.101L236.644 191.994C238.43 191.398 239.025 191.994 238.43 193.78L239.323 194.673L237.537 193.78C231.583 193.184 227.416 193.482 225.035 194.673V198.245H235.751C235.155 200.031 236.048 200.626 238.43 200.031V201.817L234.858 200.924L232.179 200.031C228.607 198.84 227.118 199.435 227.714 201.817L226.821 200.924C225.035 200.328 224.439 200.924 225.035 202.71L236.644 203.603L240.216 207.175C239.62 208.365 240.216 208.663 242.001 208.068L242.894 209.854L235.751 205.389L226.821 204.496L225.928 207.175L227.714 208.068L229.5 207.175L240.216 210.747L242.894 214.319L234.858 210.747L229.5 209.854C227.118 209.258 226.225 209.854 226.821 211.64L233.072 213.426V214.319L227.714 212.533L226.821 216.105L229.5 215.212V216.998L237.537 220.57V221.463L229.5 217.891C227.714 217.295 227.118 217.891 227.714 219.677L234.858 223.249V224.142L232.179 222.356L228.607 223.249H230.393L231.286 227.714L233.072 226.821V228.607H235.751L240.216 233.965C239.62 235.751 240.216 236.346 242.001 235.751L239.323 243.787L241.109 242.894C242.894 243.49 243.192 242.597 242.001 240.216H243.787V238.43V236.644L245.573 233.072V229.5C243.787 230.095 243.192 229.797 243.787 228.607L246.466 229.5V228.607H247.359L246.466 232.179L247.359 237.537L245.573 244.68C244.978 245.871 245.573 246.169 247.359 245.573L250.038 238.43L255.396 215.212V203.603L253.61 191.994L251.824 185.743L246.466 177.706L244.68 174.134L239.323 173.241L238.43 171.455V169.669H227.714ZM134.842 170.562C132.461 180.683 127.698 189.017 120.554 195.566L118.768 198.245C112.815 203.603 105.969 208.068 98.2294 211.64L69.6536 219.677H50.9007L41.9707 216.998L38.3988 214.319L36.6128 215.212L42.8637 219.677L55.3657 223.249H68.7606L93.7644 217.891L106.266 212.533L117.875 204.496L133.949 185.743L137.521 178.599V172.348L134.842 170.562ZM171.455 172.348L166.097 175.027H164.311C161.93 174.432 161.334 175.325 162.525 177.706L171.455 174.134V172.348ZM181.278 175.92V176.813H182.171L181.278 175.92ZM250.038 176.813V177.706H250.931L250.038 176.813ZM251.824 178.599C250.634 180.385 250.931 180.98 252.717 180.385L251.824 178.599ZM142.879 181.278L131.27 198.245C124.722 204.793 117.28 210.747 108.945 216.105L92.8714 223.249L72.3326 227.714H61.6166L60.7236 226.821L57.1516 227.714L58.9376 228.607C62.5096 227.416 64.8909 227.714 66.0816 229.5H82.1555L91.9784 227.714C104.48 224.142 115.494 218.486 125.019 210.747C130.377 207.77 133.949 203.305 135.735 197.352L138.414 196.459V193.78L134.842 198.245H133.949L142.879 183.064V181.278ZM166.097 182.171L164.311 183.957H166.99C167.585 182.171 167.288 181.576 166.097 182.171ZM276.828 182.171L275.042 183.957L282.186 186.636L283.079 190.208L283.972 191.101L281.293 187.529L279.507 188.422L284.865 201.817L285.758 207.175C286.949 210.151 286.354 211.342 283.972 210.747L283.079 205.389L283.972 203.603L278.614 188.422C277.424 185.445 276.233 185.148 275.042 187.529H276.828L279.507 200.031V201.817L280.4 205.389V207.175L279.507 208.961L280.4 210.747L279.507 233.965V234.858C280.698 234.262 280.996 234.858 280.4 236.644L277.721 237.537L278.614 241.109L275.042 256.289L266.112 272.363L262.54 275.042L263.433 276.828L264.326 274.149L267.005 273.256C266.41 270.875 267.303 270.28 269.684 271.47L276.828 258.968H277.721C275.935 260.159 275.34 262.54 275.935 266.112L273.256 268.791L274.149 269.684L268.791 277.721L265.219 279.507L267.005 281.293L271.47 275.935L273.256 276.828L275.042 273.256L278.614 270.577L277.721 268.791L278.614 267.005L279.507 268.791L282.186 263.433H283.079L276.828 277.721V278.614L279.507 276.828L285.758 265.219H286.651C284.865 271.173 281.889 276.531 277.721 281.293L278.614 282.186L283.079 276.828L291.116 257.182V255.396H292.902L294.688 250.038L295.581 237.537L296.474 236.644L295.581 234.858L297.367 223.249L296.474 206.282L290.223 192.887L281.293 183.957L276.828 182.171ZM187.529 184.85L175.027 192.887C168.478 197.649 164.609 204.793 163.418 214.319L164.311 223.249L166.097 222.356V217.891L170.562 209.854C172.348 208.663 172.646 207.77 171.455 207.175L175.027 202.71L183.957 195.566L189.315 193.78C194.673 194.375 199.138 194.077 202.71 192.887L198.245 189.315H191.101L177.706 196.459C175.92 197.054 175.325 196.756 175.92 195.566L185.743 189.315L196.459 187.529C192.291 187.529 189.315 186.636 187.529 184.85ZM227.714 185.743L226.821 187.529H227.714V185.743ZM119.661 186.636L116.089 192.887L121.447 188.422C122.043 186.636 121.447 186.041 119.661 186.636ZM223.249 186.636C222.653 188.422 223.249 189.017 225.035 188.422C225.63 186.636 225.035 186.041 223.249 186.636ZM164.311 187.529L163.418 190.208L164.311 191.101L166.097 188.422L164.311 187.529ZM152.702 189.315L149.13 191.101L143.772 200.031L129.484 213.426C127.698 212.83 127.103 213.426 127.698 215.212H125.912C118.768 221.165 111.029 225.928 102.694 229.5L90.1924 233.072L88.4065 232.179L84.8345 233.965H67.8676L68.7606 235.751H86.6205L105.373 232.179L117.875 226.821L133.949 215.212L136.628 213.426L141.093 208.068V206.282H142.879L145.558 201.817C144.963 200.031 145.558 199.435 147.344 200.031L152.702 191.994V189.315ZM160.739 191.101L153.595 200.924V203.603L149.13 214.319L150.023 225.928L154.488 235.751L158.953 240.216C158.358 241.406 159.251 241.704 161.632 241.109C162.227 239.323 161.93 238.727 160.739 239.323V238.43L158.953 233.072H157.167L158.06 231.286H157.167V230.393L155.381 228.607L154.488 219.677V217.891L155.381 216.105L154.488 215.212L155.381 213.426L154.488 211.64L156.274 204.496L163.418 193.78L160.739 191.101ZM225.035 191.101L224.142 192.887H225.035V191.101ZM203.603 192.887C203.007 194.077 203.9 194.97 206.282 195.566L185.743 196.459L179.492 201.817L175.92 203.603L169.669 216.998V225.035L168.776 227.714L169.669 229.5L168.776 232.179L171.455 241.109L173.241 240.216L172.348 237.537L173.241 222.356L177.706 213.426L180.385 212.533L182.171 213.426C178.599 215.807 176.515 219.974 175.92 225.928V227.714L175.027 229.5L175.92 242.001L177.706 242.894L176.813 240.216L178.599 228.607C181.576 226.225 183.362 222.951 183.957 218.784L188.422 215.212L189.315 216.105L183.064 225.928L180.385 238.43L183.064 248.252L184.85 249.145L183.957 247.359V238.43L185.743 230.393L191.101 222.356L190.208 224.142L191.101 227.714H190.208V229.5L186.636 235.751L187.529 246.466C188.719 245.276 189.017 243.192 188.422 240.216L191.101 235.751L194.673 233.072L191.101 245.573C190.505 247.955 191.101 249.443 192.887 250.038L194.673 242.001L197.352 238.43L202.71 233.965L197.352 242.001L195.566 250.038L196.459 253.61L201.817 243.787L203.603 244.68L200.924 248.252V250.931V251.824L208.068 245.573L212.533 244.68L215.212 243.787L216.105 244.68L206.282 249.145L205.389 250.931L214.319 249.145L216.105 250.038L222.356 248.252L229.5 253.61C230.69 254.206 230.988 253.61 230.393 251.824L225.928 246.466L218.784 245.573L216.998 244.68L218.784 243.787L221.463 242.894C220.272 240.513 218.188 239.62 215.212 240.216L214.319 238.43C220.272 237.834 224.439 239.025 226.821 242.001L228.607 243.787L226.821 240.216L225.035 237.537L221.463 233.965C219.677 234.56 219.081 233.965 219.677 232.179L216.998 231.286L215.212 232.179H213.426H210.747L214.319 230.393C218.486 229.797 221.76 230.393 224.142 232.179C225.928 232.774 226.523 232.476 225.928 231.286L221.463 226.821L210.747 225.035H208.961L207.175 225.928H204.496L206.282 224.142C209.854 225.332 212.235 225.035 213.426 223.249L221.463 225.035L222.356 225.928L221.463 222.356L219.677 221.463L217.891 222.356L216.105 221.463V220.57L213.426 219.677L215.212 216.998V218.784L217.891 217.891C217.295 219.081 217.891 219.379 219.677 218.784L217.891 214.319L215.212 213.426C211.044 212.235 208.663 212.533 208.068 214.319L203.603 213.426L208.068 210.747L216.105 211.64L216.998 212.533L215.212 208.961C213.426 209.556 212.83 208.961 213.426 207.175L204.496 205.389L201.817 206.282C200.626 208.068 199.733 208.365 199.138 207.175L192.887 209.854H191.101L203.603 203.603C208.961 203.007 213.128 203.603 216.105 205.389H216.998C215.212 202.412 212.533 200.626 208.961 200.031H199.138L190.208 204.496L189.315 202.71L195.566 199.138L200.031 198.245H211.64L212.533 199.138C213.723 199.733 214.021 199.435 213.426 198.245L203.603 192.887ZM258.075 198.245V202.71L257.182 222.356L255.396 228.607L256.289 230.393L258.968 222.356L260.754 211.64L259.861 204.496L258.075 198.245ZM266.112 199.138C264.326 202.114 264.326 204.198 266.112 205.389L265.219 228.607V229.5C266.41 230.095 266.708 229.5 266.112 227.714V225.928L267.898 217.891V210.747V208.961L266.112 199.138ZM274.149 200.031L275.042 207.175L274.149 224.142C272.363 224.737 272.661 225.63 275.042 226.821L273.256 234.858V236.644L274.149 240.216L276.828 226.821C278.019 215.509 277.126 206.579 274.149 200.031ZM271.47 207.175L269.684 225.928L267.898 233.965L268.791 238.43L271.47 227.714L272.363 212.533V210.747L271.47 207.175ZM263.433 208.068L261.647 224.142V225.035C262.838 225.63 263.136 224.142 262.54 220.57V218.784L263.433 216.998V208.068ZM314.334 216.998V219.677H317.013L314.334 216.998ZM141.093 221.463C141.688 222.653 141.093 223.844 139.307 225.035L140.2 225.928C139.605 227.118 140.2 227.416 141.986 226.821L142.879 225.035L141.986 223.249C142.581 221.463 142.284 220.867 141.093 221.463ZM300.939 221.463L300.046 231.286L299.153 232.179V243.787V245.573L297.367 249.145C296.772 250.336 297.367 250.634 299.153 250.038L300.939 240.216V221.463ZM135.735 223.249L134.842 225.035H135.735V223.249ZM164.311 223.249L165.204 230.393H166.097V224.142L164.311 223.249ZM317.013 223.249L318.799 226.821C319.99 226.225 320.287 226.821 319.692 228.607H320.585L318.799 225.035C319.394 223.249 318.799 222.653 317.013 223.249ZM321.478 224.142L320.585 225.928H321.478V224.142ZM139.307 225.035L136.628 228.607L139.307 226.821V225.035ZM310.762 226.821C308.976 230.988 308.976 234.262 310.762 236.644H311.655L310.762 233.965L311.655 231.286L310.762 226.821ZM323.264 226.821V232.179V244.68L320.585 258.075H319.692L321.478 247.359V234.858L319.692 230.393L318.799 243.787V245.573C317.013 246.764 316.418 249.145 317.013 252.717V254.503L314.334 267.898L309.869 276.828V279.507L299.153 296.474L290.223 304.511L291.116 305.404L296.474 301.832L306.297 289.33C305.702 287.544 306.297 286.949 308.083 287.544L310.762 280.4L312.548 279.507C308.381 291.414 302.13 300.939 293.795 308.083C291.414 307.488 290.521 308.083 291.116 309.869L294.688 308.976L304.511 299.153C303.916 297.367 304.511 296.772 306.297 297.367L317.013 283.079L316.12 284.865L317.013 286.651L319.692 281.293V278.614L317.906 282.186H317.013L319.692 276.828L320.585 278.614L322.371 275.935L323.264 277.721L325.943 265.219H326.836L324.157 278.614L314.334 295.581L312.548 298.26L308.083 301.832L316.12 292.009L315.227 290.223H317.013L320.585 283.972V281.293L317.013 288.437L316.12 286.651C312.548 294.986 307.785 301.832 301.832 307.19C302.427 308.381 301.832 308.678 300.046 308.083C299.451 309.869 300.046 310.464 301.832 309.869L302.725 308.083L307.19 303.618L308.083 304.511L313.441 299.153C312.846 297.367 313.441 296.772 315.227 297.367C322.371 288.437 327.431 277.126 330.408 263.433V257.182L332.194 256.289V255.396L331.301 252.717L332.194 250.931L331.301 237.537C329.515 238.132 329.217 239.025 330.408 240.216V249.145L329.515 247.359L328.622 249.145L326.836 234.858L323.264 226.821ZM131.27 227.714C125.912 232.476 119.959 236.048 113.41 238.43L108.052 239.323V240.216C118.173 239.025 126.21 235.453 132.163 229.5C132.759 227.714 132.461 227.118 131.27 227.714ZM143.772 227.714L141.986 230.393L139.307 231.286V233.072L125.912 242.001L108.052 250.038H100.015L99.1224 251.824L115.196 250.931L123.233 249.145L125.912 247.359C127.103 246.764 127.401 247.359 126.805 249.145C118.471 252.717 108.35 254.801 96.4434 255.396V256.289H115.196L120.554 255.396L137.521 249.145L148.237 241.109L147.344 237.537L145.558 238.43L142.879 240.216C141.688 242.001 140.795 242.299 140.2 241.109L134.842 244.68H132.163L138.414 240.216C140.2 240.811 140.795 240.513 140.2 239.323L142.879 237.537L143.772 235.751C143.177 233.965 143.772 233.369 145.558 233.965L143.772 227.714ZM315.227 227.714C313.441 230.69 313.441 232.774 315.227 233.965L314.334 236.644C313.143 240.216 313.441 242.597 315.227 243.787L312.548 255.396L314.334 257.182L316.12 249.145V232.179L315.227 227.714ZM135.735 228.607L132.163 232.179L118.768 240.216L99.1224 244.68L100.015 246.466L119.661 242.001L131.27 234.858C132.461 235.453 132.759 234.858 132.163 233.072L135.735 232.179C136.926 232.774 137.223 232.476 136.628 231.286H135.735L136.628 229.5L135.735 228.607ZM302.725 229.5L301.832 231.286H302.725V229.5ZM306.297 232.179L304.511 235.751L305.404 238.43L304.511 239.323L303.618 250.931L300.046 260.754L300.939 263.433L303.618 257.182L306.297 246.466V232.179ZM234.858 233.965L239.323 241.109V239.323L240.216 238.43L237.537 235.751C238.132 233.965 237.239 233.369 234.858 233.965ZM310.762 240.216C308.976 242.597 308.381 246.169 308.976 250.931L304.511 260.754L302.725 271.47L300.939 274.149L301.832 275.042L303.618 272.363L304.511 265.219L309.869 252.717L310.762 242.894C311.953 241.704 311.953 240.811 310.762 240.216ZM173.241 241.109L172.348 242.894H173.241V241.109ZM69.6536 242.894L71.4396 245.573C72.6302 244.978 72.9279 245.573 72.3326 247.359L79.4765 250.931C80.6672 253.908 81.8578 254.503 83.0485 252.717L73.2255 244.68C71.4396 245.276 70.8442 244.68 71.4396 242.894H69.6536ZM73.2255 242.894V243.787H75.0115L73.2255 242.894ZM149.13 242.894L148.237 245.573L147.344 244.68C145.558 244.085 144.963 244.68 145.558 246.466C144.367 248.848 143.474 249.145 142.879 247.359L137.521 249.145C136.926 250.931 137.521 251.527 139.307 250.931L141.986 254.503L141.093 255.396L144.665 259.861L151.809 255.396L152.702 253.61L145.558 257.182C143.177 257.778 142.581 256.885 143.772 254.503L150.023 252.717C150.618 250.336 151.511 250.038 152.702 251.824L153.595 249.145L151.809 248.252L150.916 250.038L150.023 249.145C148.237 248.55 147.642 249.145 148.237 250.931L144.665 252.717C142.879 253.313 142.284 253.015 142.879 251.824L150.023 245.573L149.13 242.894ZM75.0115 243.787V245.573L78.5835 247.359H82.1555L75.0115 243.787ZM239.323 246.466L238.43 249.145H239.323V246.466ZM243.787 246.466V249.145L245.573 250.038C246.169 247.062 245.573 245.871 243.787 246.466ZM70.5466 247.359C71.1419 250.336 72.9279 252.717 75.9045 254.503H78.5835L73.2255 250.931L74.1185 249.145L70.5466 247.359ZM244.68 250.038L242.894 252.717L244.68 251.824V250.038ZM212.533 250.931L210.747 251.824L211.64 253.61L216.998 252.717L217.891 257.182L221.463 258.075V258.968L216.105 256.289L209.854 255.396H208.068L196.459 259.861L191.994 265.219C191.398 267.005 191.994 267.601 193.78 267.005C194.375 269.387 193.184 269.982 190.208 268.791L186.636 272.363L188.422 273.256L193.78 272.363H195.566L203.603 274.149L208.068 276.828L210.747 279.507L208.961 275.935V274.149L210.747 275.042C214.319 277.424 216.7 281.591 217.891 287.544H218.784C219.379 280.4 217.891 275.935 214.319 274.149L216.105 273.256H217.891L221.463 283.079V284.865C220.867 286.056 221.463 286.354 223.249 285.758C223.844 278.614 222.356 272.959 218.784 268.791L216.105 264.326L218.784 265.219L219.677 267.898C220.272 269.089 221.165 269.089 222.356 267.898L225.035 274.149C224.439 277.126 225.035 279.507 226.821 281.293L225.928 283.079V284.865H227.714L228.607 281.293V272.363L225.035 267.005V265.219L230.393 270.577C229.797 272.363 230.393 272.959 232.179 272.363L231.286 267.898L225.928 264.326L228.607 263.433L229.5 266.112C231.286 266.708 231.881 266.41 231.286 265.219C230.095 261.647 227.714 259.861 224.142 259.861L226.821 258.075V259.861L231.286 261.647L233.965 264.326L231.286 257.182L225.928 252.717L219.677 250.931H212.533ZM335.766 250.931L334.873 263.433L335.766 264.326L334.873 274.149L328.622 288.437L329.515 291.116L333.98 282.186L337.552 267.898L335.766 250.931ZM72.3326 251.824C71.1419 255.992 72.0349 258.968 75.0115 260.754L75.9045 258.968V260.754L81.2625 261.647L80.3695 263.433L76.7975 262.54H75.0115L77.6905 268.791L82.1555 270.577C83.3461 271.173 83.6438 270.577 83.0485 268.791L78.5835 267.898L79.4765 265.219H82.1555C81.5602 267.005 82.1555 267.601 83.9415 267.005L83.0485 265.219L83.9415 262.54L82.1555 259.861C80.9648 257.48 78.8812 256.587 75.9045 257.182L72.3326 251.824ZM92.8714 251.824L94.6574 254.503H98.2294L92.8714 251.824ZM242.001 251.824L240.216 254.503H242.001C243.787 253.908 243.787 253.015 242.001 251.824ZM83.0485 254.503V256.289L84.8345 255.396L83.0485 254.503ZM133.949 254.503V255.396H134.842L133.949 254.503ZM159.846 254.503L146.451 259.861L144.665 262.54L162.525 255.396L159.846 254.503ZM81.2625 255.396L82.1555 257.182C82.7508 255.396 82.4532 254.801 81.2625 255.396ZM135.735 256.289L134.842 258.968L140.2 274.149V279.507V281.293C143.177 286.651 144.665 293.498 144.665 301.832C146.451 302.427 147.046 302.13 146.451 300.939V299.153L144.665 282.186L141.986 269.684L137.521 258.968L135.735 256.289ZM173.241 257.182C172.646 258.968 173.539 259.564 175.92 258.968L181.278 265.219V263.433C179.492 259.861 176.813 257.778 173.241 257.182ZM131.27 258.075L125.912 260.754L113.41 263.433C112.815 267.005 113.708 269.684 116.089 271.47L119.661 270.577H120.554C119.959 272.363 118.471 272.959 116.089 272.363L118.768 282.186L127.698 290.223H129.484L133.056 283.972H131.27L133.949 283.079L133.056 281.293L133.949 275.935L138.414 296.474L128.591 299.153H123.233L124.126 297.367L123.233 296.474L118.768 291.116V288.437L116.089 281.293L114.303 284.865L116.089 292.009V293.795L116.982 298.26V300.046C117.578 301.832 117.28 302.427 116.089 301.832V302.725L123.233 300.939L125.019 301.832V300.046L137.521 299.153L138.414 298.26C140.795 298.855 141.391 297.962 140.2 295.581V293.795L133.056 259.861L131.27 258.075ZM166.097 258.075L161.632 260.754L148.237 264.326L150.916 272.363V271.47H151.809C151.214 272.661 151.809 272.959 153.595 272.363L154.488 267.005L155.381 269.684C154.786 270.875 155.381 271.173 157.167 270.577H158.953V267.898L161.632 266.112L163.418 268.791V267.898V266.112L164.311 263.433L166.097 264.326L167.883 269.684L169.669 268.791L168.776 267.005H169.669C169.074 268.196 169.669 268.494 171.455 267.898L168.776 262.54C168.181 260.754 169.074 260.159 171.455 260.754V259.861C170.86 258.075 169.074 257.48 166.097 258.075ZM313.441 258.075L312.548 260.754H313.441V258.075ZM292.009 259.861L290.223 261.647H292.009V259.861ZM298.26 260.754L295.581 265.219L296.474 267.898L298.26 263.433V260.754ZM310.762 261.647L308.976 264.326L310.762 263.433V261.647ZM91.0854 265.219L91.9784 273.256V275.042C90.7878 278.019 91.3831 279.21 93.7644 278.614L92.8714 280.4C92.8714 283.972 94.0621 286.651 96.4434 288.437V291.116L99.1224 289.33L95.5504 282.186V275.042L96.4434 274.149L94.6574 271.47C95.2527 269.684 96.7411 269.089 99.1224 269.684L100.015 271.47C99.4201 275.042 100.015 278.019 101.801 280.4C101.206 283.377 102.099 284.27 104.48 283.079L107.159 291.116L110.731 292.009L111.624 292.902L110.731 281.293V279.507C111.327 274.149 110.731 269.982 108.945 267.005L108.052 265.219H91.0854ZM308.976 265.219L308.083 267.005H308.976V265.219ZM160.739 267.898L159.846 269.684H160.739V267.898ZM244.68 267.898L242.001 272.363L242.894 274.149L244.68 269.684V267.898ZM249.145 267.898L246.466 271.47L249.145 269.684V267.898ZM308.083 268.791L307.19 271.47H308.083V268.791ZM69.6536 269.684C70.2489 272.066 72.3326 273.852 75.9045 275.042L80.3695 280.4L87.5135 291.116H88.4065L83.9415 281.293L81.2625 278.614L79.4765 275.042L72.3326 269.684H69.6536ZM68.7606 271.47L65.1886 274.149L73.2255 284.865L75.9045 291.116L77.6905 292.009L75.0115 282.186L73.2255 278.614L75.9045 280.4C77.0952 279.805 77.3929 280.4 76.7975 282.186L79.4765 283.972L78.5835 281.293L76.7975 279.507L71.4396 274.149L68.7606 271.47ZM246.466 271.47L245.573 273.256H246.466V271.47ZM250.931 271.47L247.359 275.042C246.764 277.424 247.955 278.019 250.931 276.828L251.824 274.149C252.42 271.768 252.122 270.875 250.931 271.47ZM307.19 271.47L304.511 275.042L305.404 275.935L307.19 273.256V271.47ZM233.072 272.363L232.179 274.149L230.393 275.042H233.072V272.363ZM256.289 272.363L254.503 274.149H256.289V272.363ZM51.7937 274.149V275.935L50.9007 275.042L47.3287 275.935L45.5427 275.042H43.7567L42.8637 276.828L47.3287 278.614C52.6867 284.568 56.2587 292.605 58.0446 302.725L59.8306 301.832L54.4727 287.544L56.2587 286.651L60.7236 295.581C60.1283 297.367 60.7236 297.962 62.5096 297.367L61.6166 292.902C61.0213 289.926 61.9143 289.033 64.2956 290.223L65.1886 292.902C64.5933 294.093 65.1886 294.391 66.9746 293.795L66.0816 291.116L66.9746 289.33C69.3559 291.712 70.5466 295.581 70.5466 300.939L71.4396 292.902L66.9746 283.079L62.5096 277.721L51.7937 274.149ZM254.503 274.149L251.824 277.721C252.42 279.507 252.122 280.103 250.931 279.507V281.293H249.145C248.55 283.079 249.145 283.675 250.931 283.079L255.396 277.721L254.503 274.149ZM190.208 275.042L185.743 276.828C181.576 278.614 179.194 281.889 178.599 286.651L180.385 285.758C179.79 283.972 180.385 283.377 182.171 283.972H183.957L197.352 286.651L201.817 290.223C205.389 292.605 207.175 297.069 207.175 303.618L208.961 302.725L208.068 300.939C207.472 298.558 208.663 297.962 211.64 299.153L212.533 297.367C213.723 290.223 212.83 285.461 209.854 283.079L200.924 275.935L190.208 275.042ZM300.939 275.042L300.046 276.828H300.939V275.042ZM304.511 275.935L303.618 277.721H304.511V275.935ZM232.179 276.828L231.286 279.507H232.179V276.828ZM258.968 277.721L256.289 280.4C256.885 281.591 256.289 281.889 254.503 281.293L252.717 285.758L254.503 287.544L259.861 279.507C260.457 277.721 260.159 277.126 258.968 277.721ZM303.618 277.721L302.725 279.507H303.618V277.721ZM322.371 277.721L321.478 279.507H322.371V277.721ZM339.338 277.721L338.445 279.507H339.338V277.721ZM33.9338 278.614L29.4688 280.4L26.7898 283.972L30.3618 282.186V283.972C32.1478 283.377 32.7431 283.972 32.1478 285.758L36.6128 286.651L37.5058 289.33C36.9104 290.521 37.5058 290.819 39.2918 290.223L38.3988 292.009L39.2918 293.795L41.0777 294.688L40.1848 288.437L37.5058 283.972L41.9707 288.437C41.3754 289.628 41.9707 289.926 43.7567 289.33L45.5427 300.046L46.4357 296.474L44.6497 291.116L45.5427 289.33L39.2918 281.293L41.0777 280.4V279.507L38.3988 280.4L33.9338 278.614ZM115.196 278.614L114.303 280.4H115.196V278.614ZM161.632 278.614L157.167 280.4H162.525L161.632 278.614ZM275.935 278.614L273.256 282.186L275.935 280.4V278.614ZM321.478 279.507L320.585 281.293H321.478V279.507ZM337.552 280.4L333.98 294.688L324.157 308.976H325.943L333.98 298.26L339.338 282.186C339.933 280.4 339.338 279.805 337.552 280.4ZM275.042 281.293C275.638 283.079 275.34 283.675 274.149 283.079C272.959 281.889 272.066 282.186 271.47 283.972L273.256 285.758L277.721 283.079L275.042 281.293ZM162.525 282.186L161.632 283.972H162.525V282.186ZM80.3695 283.972L79.4765 285.758L83.0485 292.009C81.8578 295.581 82.4532 297.069 84.8345 296.474L83.9415 289.33L80.3695 283.972ZM260.754 284.865C257.182 286.056 255.694 288.14 256.289 291.116L262.54 287.544C263.136 285.163 262.54 284.27 260.754 284.865ZM226.821 285.758L225.928 287.544H226.821V285.758ZM158.06 286.651L157.167 287.544C153 286.354 151.511 287.247 152.702 290.223L157.167 288.437C158.358 287.842 158.655 288.437 158.06 290.223L159.846 289.33C161.037 289.926 161.334 289.33 160.739 287.544L158.06 286.651ZM161.632 286.651C161.632 289.033 162.227 289.33 163.418 287.544L161.632 286.651ZM253.61 287.544V292.009H254.503C255.099 289.628 254.801 288.14 253.61 287.544ZM263.433 287.544L261.647 290.223L258.968 291.116L259.861 293.795L258.968 295.581L262.54 293.795V295.581L258.968 296.474C258.373 298.26 258.968 298.855 260.754 298.26H262.54L266.112 292.902L264.326 289.33C264.922 287.544 264.624 286.949 263.433 287.544ZM25.0038 289.33L23.2179 291.116C20.8365 290.521 19.9435 291.116 20.5389 292.902L25.0038 293.795C26.1945 293.2 26.1945 292.605 25.0038 292.009L26.7898 291.116L25.0038 289.33ZM98.2294 290.223C99.4201 296.176 102.099 301.237 106.266 305.404L110.731 308.083L125.912 307.19L133.949 304.511C134.544 302.13 133.354 301.534 130.377 302.725H128.591L127.698 303.618H118.768H116.982C114.006 303.023 112.517 303.618 112.517 305.404L106.266 302.725C106.862 300.344 106.266 299.451 104.48 300.046L100.015 292.009C100.611 290.223 100.015 289.628 98.2294 290.223ZM49.1147 291.116L47.3287 292.902H49.1147V291.116ZM180.385 291.116L179.492 292.009C176.515 291.414 175.325 292.009 175.92 293.795C178.301 294.391 179.79 294.093 180.385 292.902V291.116ZM232.179 291.116L231.286 292.902L233.965 292.009L232.179 291.116ZM30.3618 292.009V293.795L32.1478 295.581L30.3618 294.688H28.5758L31.2548 297.367C32.4455 296.772 32.7431 297.665 32.1478 300.046C33.3385 301.832 34.2315 301.832 34.8268 300.046L33.0408 296.474H34.8268L35.7198 294.688L30.3618 292.009ZM75.9045 292.009L75.0115 298.26L76.7975 297.367L75.9045 292.009ZM88.4065 292.009L87.5135 293.795H88.4065V292.009ZM326.836 292.009L327.729 294.688L328.622 292.902L326.836 292.009ZM267.005 292.902L265.219 296.474L263.433 297.367L265.219 298.26L260.754 301.832L261.647 302.725L267.898 298.26L268.791 296.474L267.005 292.902ZM18.7529 293.795L14.2879 299.153L19.6459 300.046C20.2412 297.665 19.9435 296.772 18.7529 297.367V296.474C21.7295 297.665 22.9202 297.367 22.3249 295.581C21.7295 293.795 20.5389 293.2 18.7529 293.795ZM67.8676 293.795L66.0816 296.474L67.8676 295.581V293.795ZM164.311 293.795L156.274 295.581H166.097C166.692 293.795 166.097 293.2 164.311 293.795ZM242.001 293.795L241.109 295.581H242.001V293.795ZM175.92 294.688L173.241 297.367L176.813 298.26L177.706 296.474C178.301 294.688 177.706 294.093 175.92 294.688ZM239.323 294.688L235.751 295.581L236.644 298.26L241.109 296.474L239.323 294.688ZM326.836 294.688L323.264 299.153H325.05L326.836 296.474V294.688ZM49.1147 295.581L47.3287 300.939L49.1147 300.046V295.581ZM190.208 297.367L191.101 299.153L195.566 300.939L196.459 303.618L195.566 305.404C194.97 307.19 195.566 308.381 197.352 308.976V306.297H199.138L197.352 300.939C196.161 297.962 193.78 296.772 190.208 297.367ZM27.6828 298.26L28.5758 301.832H26.7898H25.0038L25.8968 303.618H25.0038C23.2179 304.213 22.6225 305.702 23.2179 308.083L27.6828 309.869V308.083H29.4688L28.5758 304.511L32.1478 303.618C33.3385 304.213 33.6361 303.618 33.0408 301.832C32.4455 298.855 30.6595 297.665 27.6828 298.26ZM60.7236 298.26L61.6166 301.832L62.5096 299.153L60.7236 298.26ZM162.525 298.26L157.167 299.153L155.381 300.939C153.595 300.344 153 300.939 153.595 302.725C151.214 303.32 150.916 304.213 152.702 305.404L144.665 309.869L138.414 310.762L137.521 312.548L146.451 310.762L161.632 303.618L162.525 301.832L157.167 303.618C154.786 304.213 153.893 303.618 154.488 301.832L157.167 302.725V300.046C160.144 300.641 162.227 300.344 163.418 299.153L162.525 298.26ZM171.455 298.26L170.562 301.832L174.134 302.725L175.027 300.939L171.455 298.26ZM185.743 298.26L184.85 299.153C182.469 298.558 181.576 299.153 182.171 300.939L186.636 303.618C187.827 303.023 188.124 303.618 187.529 305.404L185.743 306.297H189.315L188.422 305.404C187.827 303.023 188.422 302.13 190.208 302.725C190.803 300.344 190.505 299.451 189.315 300.046L185.743 298.26ZM269.684 298.26L260.754 306.297L262.54 307.19C263.136 304.809 264.029 304.511 265.219 306.297C266.41 306.892 266.708 306.297 266.112 304.511L271.47 301.832L269.684 298.26ZM13.3949 300.939C12.7996 302.725 13.6926 303.32 16.0739 302.725C16.6692 300.939 15.7762 300.344 13.3949 300.939ZM126.805 300.939V301.832H127.698L126.805 300.939ZM133.056 300.939L133.949 301.832L134.842 302.725C135.437 300.939 134.842 300.344 133.056 300.939ZM242.001 301.832L238.43 303.618C239.025 304.809 240.811 305.106 243.787 304.511C244.978 302.13 244.383 301.237 242.001 301.832ZM245.573 301.832L244.68 303.618H245.573V301.832ZM272.363 301.832L264.326 311.655L265.219 313.441V312.548L269.684 309.869H270.577L269.684 311.655L267.005 315.227L272.363 313.441C271.768 310.464 272.959 308.678 275.935 308.083C276.531 305.702 276.233 304.809 275.042 305.404L273.256 306.297L274.149 302.725L272.363 301.832ZM227.714 302.725V306.297V305.404C228.904 304.213 228.904 303.32 227.714 302.725ZM10.7159 303.618V304.511H13.3949L10.7159 303.618ZM169.669 303.618L166.097 308.083L167.883 311.655C170.264 310.464 170.562 309.571 168.776 308.976L171.455 307.19L172.348 305.404L169.669 303.618ZM182.171 303.618L183.064 308.083H183.957L182.171 303.618ZM225.928 304.511L223.249 308.976L225.928 307.19V304.511ZM308.976 304.511L306.297 308.083L309.869 305.404L308.976 304.511ZM8.92994 306.297L7.14396 308.083H11.6089C12.2043 306.297 11.3113 305.702 8.92994 306.297ZM179.492 307.19L177.706 309.869L179.492 310.762H177.706L175.92 313.441C176.515 315.227 178.004 315.822 180.385 315.227L179.492 312.548L182.171 311.655C183.362 312.25 183.659 311.655 183.064 309.869L179.492 307.19ZM158.953 308.083C157.167 311.06 154.19 312.548 150.023 312.548H148.237L136.628 314.334H134.842C133.652 313.143 131.568 312.846 128.591 313.441L129.484 315.227L131.27 314.334V316.12C132.461 316.715 132.759 316.418 132.163 315.227L134.842 316.12L137.521 315.227V317.013C138.712 317.608 139.009 317.311 138.414 316.12C139.009 314.334 139.902 314.036 141.093 315.227L143.772 314.334L145.558 315.227H143.772V316.12C147.344 316.12 150.023 315.227 151.809 313.441H156.274L155.381 312.548L158.953 310.762V308.083ZM21.4319 308.976L19.6459 310.762L21.4319 312.548L25.0038 311.655L21.4319 308.976ZM221.463 308.976V310.762L223.249 309.869L221.463 308.976ZM276.828 308.976L268.791 319.692L270.577 318.799L274.149 319.692L275.042 317.906L276.828 317.013L275.042 321.478L270.577 325.05L272.363 326.836C273.554 326.241 273.554 325.645 272.363 325.05H274.149L276.828 324.157L281.293 315.227C282.484 312.25 281.889 311.06 279.507 311.655L275.042 315.227L275.935 312.548L278.614 311.655C279.21 309.274 278.614 308.381 276.828 308.976ZM7.14396 309.869L5.35797 312.548C7.73929 313.143 9.22761 312.846 9.82294 311.655C10.4183 309.274 9.52527 308.678 7.14396 309.869ZM300.046 309.869L298.26 311.655H300.046V309.869ZM323.264 309.869L318.799 313.441L319.692 314.334L324.157 311.655C324.752 309.869 324.455 309.274 323.264 309.869ZM228.607 310.762L217.891 320.585C216.105 319.99 215.509 320.585 216.105 322.371L206.282 326.836L204.496 329.515L208.961 328.622L219.677 323.264L224.142 318.799C223.546 317.013 224.142 316.418 225.928 317.013L228.607 313.441V310.762ZM194.673 311.655C194.077 313.441 194.673 314.036 196.459 313.441C197.054 311.655 196.459 311.06 194.673 311.655ZM218.784 311.655V313.441L220.57 312.548L218.784 311.655ZM307.19 311.655V312.548H308.083L307.19 311.655ZM165.204 312.548C164.609 314.334 165.204 314.929 166.99 314.334C167.585 312.548 166.99 311.953 165.204 312.548ZM306.297 312.548L305.404 314.334H306.297V312.548ZM4.46497 313.441V317.906L7.14396 316.12C7.73929 313.143 6.84629 312.25 4.46497 313.441ZM18.7529 313.441L20.5389 316.12L23.2179 315.227V313.441H18.7529ZM217.891 313.441V314.334H218.784L217.891 313.441ZM336.659 313.441L333.98 317.013L336.659 316.12C336.064 317.311 336.659 317.608 338.445 317.013L342.91 325.05H344.696L339.338 317.013V314.334L336.659 313.441ZM160.739 314.334L150.023 317.906C146.451 316.715 144.963 317.311 145.558 319.692L144.665 318.799L135.735 320.585V321.478L138.414 320.585L140.2 321.478L141.986 320.585L145.558 321.478H147.344C150.321 322.669 152.404 322.371 153.595 320.585L155.381 321.478L159.846 320.585L161.632 318.799C162.227 316.418 161.93 314.929 160.739 314.334ZM216.105 314.334L213.426 316.12L211.64 315.227V317.013L208.068 318.799C205.686 318.204 205.091 319.692 206.282 323.264L208.068 322.371L210.747 320.585L215.212 316.12L216.105 317.013H216.998L216.105 314.334ZM317.906 314.334V315.227H318.799L317.906 314.334ZM191.994 315.227L192.887 319.692C192.291 322.073 192.887 322.966 194.673 322.371L195.566 324.157L199.138 321.478L197.352 317.906C196.756 315.525 194.97 314.632 191.994 315.227ZM283.079 315.227L276.828 327.729L273.256 328.622L275.042 331.301L279.507 329.515L284.865 319.692L283.972 317.906C284.568 315.525 284.27 314.632 283.079 315.227ZM323.264 315.227L315.227 320.585V321.478L322.371 318.799L324.157 316.12L323.264 315.227ZM140.2 316.12V317.013H142.879L140.2 316.12ZM175.92 316.12L174.134 319.692C178.301 320.883 179.79 319.99 178.599 317.013L175.92 316.12ZM314.334 316.12L313.441 317.906L315.227 317.013L314.334 316.12ZM18.7529 317.013V319.692L21.4319 320.585L20.5389 319.692C21.1342 317.311 20.5389 316.418 18.7529 317.013ZM229.5 317.013L226.821 321.478L216.998 328.622C212.83 327.431 211.044 328.027 211.64 330.408H207.175L202.71 334.873H200.924V333.98V332.194L198.245 337.552L194.673 340.231C191.696 339.636 190.505 340.231 191.101 342.017L188.422 342.91C184.85 344.101 182.766 343.803 182.171 342.017C179.79 341.422 179.194 342.612 180.385 345.589C182.171 346.184 182.766 345.589 182.171 343.803L185.743 344.696L192.887 342.91H200.031L203.603 341.124V342.91L196.459 346.482L189.315 347.375H187.529L181.278 350.054L186.636 350.947H184.85V351.84L196.459 350.947L200.031 349.161H201.817C201.221 347.375 201.817 346.78 203.603 347.375H205.389L207.175 346.482L206.282 348.268L204.496 347.375L202.71 350.054L194.673 354.519H184.85L185.743 357.198L186.636 358.091H195.566L196.459 360.77L197.352 358.091L200.924 358.984L199.138 359.877L201.817 360.77L193.78 362.556L191.994 361.663L187.529 362.556L189.315 363.449L186.636 365.235H199.138H200.924L208.068 362.556H208.961C206.579 365.532 202.71 367.318 197.352 367.914L194.673 368.807L184.85 367.021L185.743 371.486H186.636C186.041 369.7 186.636 369.104 188.422 369.7L187.529 371.486C186.934 372.676 187.827 372.974 190.208 372.379H191.994L192.887 373.272L201.817 374.165L198.245 375.951L195.566 376.844L193.78 375.951C192.589 377.737 191.696 377.439 191.101 375.058L188.422 375.951L196.459 380.416C207.175 379.82 215.212 376.844 220.57 371.486C219.974 369.7 220.57 369.104 222.356 369.7L224.142 366.128L225.928 363.449L223.249 365.235C221.463 364.639 220.867 365.235 221.463 367.021L210.747 373.272H208.961L211.64 371.486L227.714 354.519L226.821 353.626L225.035 356.305L219.677 359.877L218.784 358.984H217.891H215.212L218.784 357.198C222.951 353.626 226.225 349.459 228.607 344.696L227.714 343.803L225.928 346.482L219.677 350.947H217.891L225.928 343.803L228.607 340.231L227.714 338.445L223.249 342.017L222.356 341.124L217.891 342.91L215.212 344.696L218.784 342.017L225.928 333.087L225.035 331.301L226.821 330.408L232.179 323.264C232.774 321.478 232.179 320.883 230.393 321.478C229.202 325.645 226.821 328.92 223.249 331.301L221.463 333.98L214.319 337.552C211.937 338.147 211.044 337.552 211.64 335.766L215.212 334.873L224.142 327.729L230.393 319.692L229.5 317.013ZM335.766 317.013L334.873 318.799L337.552 322.371L339.338 323.264L338.445 318.799L335.766 317.013ZM272.363 319.692L270.577 322.371L272.363 321.478V319.692ZM286.651 319.692L281.293 329.515L277.721 332.194L276.828 333.98L282.186 332.194L287.544 324.157L286.651 319.692ZM18.7529 320.585L17.8599 324.157C19.0505 325.943 19.9435 325.943 20.5389 324.157L18.7529 320.585ZM164.311 320.585C161.334 322.966 157.167 324.157 151.809 324.157H150.023L146.451 325.05V325.943L158.953 325.05L165.204 322.371L164.311 320.585ZM174.134 320.585V323.264L177.706 322.371C178.301 319.99 177.111 319.394 174.134 320.585ZM176.813 323.264L177.706 325.05C178.301 323.264 178.004 322.669 176.813 323.264ZM166.99 324.157L158.06 328.622L145.558 331.301L150.916 332.194C151.511 329.813 152.404 329.515 153.595 331.301C159.548 330.11 164.609 328.027 168.776 325.05L166.99 324.157ZM175.027 324.157C173.241 327.134 173.539 329.217 175.92 330.408L178.599 329.515V327.729L175.92 328.622V327.729L175.027 324.157ZM199.138 324.157L194.673 327.729C195.268 328.92 196.161 328.92 197.352 327.729L199.138 328.622V324.157ZM201.817 325.05L200.924 326.836H201.817V325.05ZM289.33 325.943L281.293 336.659C280.698 339.04 281.889 339.636 284.865 338.445L288.437 333.98L285.758 337.552C286.354 339.338 285.758 339.933 283.972 339.338L284.865 341.124L286.651 340.231L289.33 335.766H290.223L284.865 342.91L285.758 343.803L288.437 342.017C290.819 340.231 292.307 337.85 292.902 334.873L291.116 327.729L289.33 325.943ZM123.233 326.836L115.196 334.873L116.089 336.659L112.517 337.552C111.922 339.933 112.517 340.826 114.303 340.231L111.624 343.803L112.517 345.589L111.624 344.696L108.945 350.947C108.35 352.137 108.945 352.435 110.731 351.84L111.624 353.626L108.052 352.733L107.159 355.412V367.021L108.945 375.058L116.089 379.523L118.768 380.416H125.912L126.805 379.523C129.782 380.713 130.973 380.416 130.377 378.63H132.163L142.879 373.272L143.772 371.486L133.056 375.058H119.661C126.21 375.653 130.973 374.76 133.949 372.379L129.484 371.486L139.307 368.807L140.2 367.914V365.235L134.842 367.914C131.27 367.318 129.187 367.616 128.591 368.807L119.661 367.021C119.066 364.639 120.852 364.044 125.019 365.235H126.805L132.163 364.342L141.986 359.877V358.091L134.842 360.77H126.805L120.554 358.984L119.661 357.198L124.126 358.091H125.912L131.27 357.198L133.056 358.091L142.879 353.626L144.665 350.947L138.414 353.626H130.377L125.912 352.733L124.126 350.947H120.554L119.661 349.161L126.805 350.947L138.414 349.161C140.2 349.756 140.795 349.459 140.2 348.268L141.986 345.589L134.842 347.375H133.056C131.866 346.184 129.782 345.887 126.805 346.482L124.126 344.696H120.554C121.15 342.91 120.554 342.315 118.768 342.91L119.661 341.124L121.447 342.91L126.805 343.803H135.735L136.628 342.91C138.414 343.505 139.009 342.91 138.414 341.124C133.652 341.719 129.782 341.124 126.805 339.338L129.484 338.445L126.805 336.659L125.019 333.98L130.377 336.659L131.27 338.445L132.163 337.552L129.484 333.98C127.698 334.575 127.103 333.98 127.698 332.194L123.233 331.301L125.019 330.408L123.233 326.836ZM138.414 326.836L139.307 328.622C139.902 326.836 139.605 326.241 138.414 326.836ZM169.669 327.729L167.883 329.515L159.846 332.194C158.06 331.599 157.465 332.194 158.06 333.98L157.167 333.087L150.023 334.873V335.766L160.739 334.873L169.669 329.515V327.729ZM144.665 328.622V329.515H145.558L144.665 328.622ZM294.688 330.408C294.093 335.766 292.605 339.933 290.223 342.91C289.033 345.291 286.651 346.78 283.079 347.375V348.268H286.651L292.009 344.696L295.581 337.552V334.873V333.087L294.688 330.408ZM142.879 331.301V332.194H143.772L142.879 331.301ZM169.669 332.194L166.99 333.98H169.669V332.194ZM175.027 332.194V333.98L177.706 333.087L175.027 332.194ZM186.636 332.194L185.743 335.766H187.529L189.315 333.087L186.636 332.194ZM166.097 333.98V334.873H166.99L166.097 333.98ZM164.311 334.873V335.766H165.204L164.311 334.873ZM161.632 335.766L158.06 336.659V337.552C160.441 338.147 162.227 337.85 163.418 336.659L161.632 335.766ZM230.393 341.124L229.5 342.91H230.393V341.124ZM296.474 343.803L294.688 348.268C293.498 348.863 293.795 349.459 295.581 350.054C296.772 349.459 297.069 348.268 296.474 346.482C297.665 345.291 297.665 344.398 296.474 343.803ZM146.451 349.161L144.665 350.947L146.451 351.84V349.161ZM173.241 349.161L166.097 353.626C163.716 353.03 162.823 353.626 163.418 355.412C166.99 354.816 169.967 355.412 172.348 357.198L174.134 356.305L173.241 349.161ZM293.795 350.054V350.947H294.688L293.795 350.054ZM300.046 350.054L299.153 351.84H300.046V350.054ZM299.153 351.84L300.046 356.305L301.832 353.626L300.939 355.412L302.725 359.877L304.511 355.412H302.725C303.916 352.435 303.32 351.244 300.939 351.84H299.153ZM143.772 357.198C142.581 358.984 142.879 359.579 144.665 358.984L143.772 357.198ZM183.957 357.198L182.171 359.877L184.85 360.77L183.957 359.877L184.85 358.091L183.957 357.198ZM305.404 357.198L303.618 358.984L304.511 360.77L306.297 359.877C306.892 357.495 306.595 356.602 305.404 357.198ZM131.27 358.091V358.984H132.163L131.27 358.091ZM152.702 358.091L150.916 359.877C149.13 359.281 148.535 359.877 149.13 361.663C147.939 360.472 147.046 360.77 146.451 362.556C144.665 361.96 144.07 362.556 144.665 364.342V365.235C148.832 364.639 151.511 362.853 152.702 359.877V358.091ZM308.083 359.877L304.511 365.235C303.916 366.425 304.511 366.723 306.297 366.128L308.083 365.235L306.297 369.7L307.19 372.379V371.486L310.762 369.7L308.976 375.058H310.762L312.548 371.486L311.655 369.7C312.25 367.318 311.655 366.425 309.869 367.021L310.762 365.235C311.953 362.258 311.357 361.067 308.976 361.663V360.77L308.083 359.877ZM185.743 360.77L183.957 362.556H185.743V360.77ZM227.714 360.77L225.928 363.449L227.714 362.556V360.77ZM184.85 363.449V364.342H185.743L184.85 363.449ZM142.879 365.235V366.128H143.772L142.879 365.235ZM141.093 366.128V367.021H141.986L141.093 366.128ZM240.216 366.128C239.025 376.248 236.048 384.285 231.286 390.239L226.821 395.597L232.179 392.025L233.965 389.346L237.537 386.667L241.109 381.309L242.001 376.844L241.109 375.951V367.914L240.216 366.128ZM318.799 366.128C317.608 367.914 317.906 368.509 319.692 367.914L318.799 366.128ZM235.751 367.021L234.858 372.379L233.965 371.486L230.393 380.416L222.356 390.239L226.821 387.56C228.011 388.155 228.309 387.56 227.714 385.774L232.179 383.988L235.751 376.844V367.021ZM245.573 367.021V369.7L244.68 377.737V379.523L236.644 394.704L231.286 398.276V399.169L234.858 398.276L243.787 390.239L242.001 394.704L242.894 395.597C246.466 392.62 248.55 388.453 249.145 383.095C250.336 375.355 249.145 369.997 245.573 367.021ZM162.525 370.593L161.632 372.379H162.525V370.593ZM223.249 370.593V372.379L210.747 379.523L208.068 378.63C206.282 379.225 205.984 380.118 207.175 381.309L204.496 383.095C199.733 381.904 196.459 382.499 194.673 384.881L200.031 385.774L203.603 383.988L204.496 384.881L200.031 386.667V387.56L211.64 383.988L220.57 377.737L225.035 372.379C225.63 370.593 225.035 369.997 223.249 370.593ZM314.334 371.486L313.441 376.844C312.846 378.63 313.441 379.225 315.227 378.63C314.036 377.439 314.632 376.248 317.013 375.058L316.12 374.165C316.715 371.783 316.12 370.89 314.334 371.486ZM156.274 372.379L157.167 375.951L156.274 379.523C158.655 380.118 159.251 378.63 158.06 375.058V373.272L156.274 372.379ZM147.344 373.272L144.665 375.951C142.879 375.355 142.284 375.951 142.879 377.737L141.093 378.63C138.712 378.034 137.819 378.63 138.414 380.416C142.581 380.416 145.26 379.225 146.451 376.844C145.856 375.058 146.451 374.462 148.237 375.058C148.832 373.272 148.535 372.676 147.344 373.272ZM163.418 373.272L162.525 375.951L160.739 376.844L163.418 377.737C161.632 378.332 161.037 380.118 161.632 383.095L158.06 387.56L159.846 390.239L158.953 389.346L154.488 395.597C152.107 396.192 152.107 397.085 154.488 398.276L160.739 391.132L164.311 379.523C164.906 375.951 164.609 373.867 163.418 373.272ZM168.776 373.272L166.097 384.881L167.883 389.346C169.074 388.75 169.074 388.155 167.883 387.56L168.776 383.095V373.272ZM228.607 373.272L222.356 382.202L216.998 385.774L216.105 387.56L220.57 385.774C224.142 383.392 226.821 379.82 228.607 375.058V373.272ZM251.824 374.165L252.717 376.844L251.824 383.988L243.787 398.276L244.68 399.169L251.824 389.346L254.503 380.416L253.61 376.844C254.206 374.462 253.61 373.569 251.824 374.165ZM317.906 375.058C316.12 376.248 315.525 378.927 316.12 383.095L317.906 382.202V375.058ZM260.754 377.737C259.564 379.523 259.861 380.118 261.647 379.523L260.754 377.737ZM153.595 378.63L150.916 383.095L141.986 387.56H138.414L136.628 389.346H130.377L129.484 391.132H139.307V389.346L145.558 388.453C146.153 386.071 147.046 385.774 148.237 387.56L150.023 386.667L153.595 381.309V378.63ZM173.241 379.523L170.562 385.774L171.455 386.667L173.241 383.988V379.523ZM157.167 380.416L155.381 384.881L150.916 390.239L148.237 391.132L149.13 392.918L145.558 397.383H147.344C146.749 395.597 147.344 395.001 149.13 395.597L153.595 389.346C153 387.56 153.595 386.964 155.381 387.56L157.167 384.881V380.416ZM261.647 380.416L259.861 386.667L261.647 387.56V380.416ZM138.414 381.309L133.949 383.095H116.982L116.089 382.202C114.303 381.606 113.708 382.202 114.303 383.988L121.447 386.667C129.782 386.667 136.33 385.178 141.093 382.202L138.414 381.309ZM267.005 382.202C267.005 391.132 265.219 398.276 261.647 403.633L258.075 406.312H256.289L255.396 408.098L261.647 406.312C264.029 403.336 265.815 399.764 267.005 395.597V382.202ZM209.854 386.667L208.068 387.56V388.453L210.747 387.56L209.854 386.667ZM165.204 387.56C164.013 389.346 164.311 389.941 166.097 389.346L165.204 387.56ZM213.426 387.56L209.854 389.346L207.175 388.453L201.817 390.239L207.175 391.132C210.747 391.132 213.426 390.239 215.212 388.453L213.426 387.56ZM260.754 387.56L258.968 389.346H261.647L260.754 387.56ZM125.912 388.453V389.346H129.484L125.912 388.453ZM128.591 390.239L127.698 392.025H128.591V390.239ZM163.418 390.239C162.823 392.025 163.716 392.62 166.097 392.025C166.692 390.239 165.799 389.643 163.418 390.239ZM221.463 390.239L220.57 392.025L222.356 391.132L221.463 390.239ZM258.968 390.239L257.182 393.811C258.968 394.406 259.564 394.108 258.968 392.918C260.159 391.727 260.159 390.834 258.968 390.239ZM264.326 391.132L258.075 400.955L258.968 401.848L264.326 393.811V391.132ZM217.891 392.025V392.918H218.784L217.891 392.025ZM161.632 392.918C161.037 394.704 161.632 395.299 163.418 394.704C164.013 392.918 163.418 392.322 161.632 392.918ZM242.001 395.597L241.109 397.383H242.001V395.597ZM256.289 395.597L252.717 400.062C252.122 401.252 252.717 401.55 254.503 400.955L256.289 398.276V395.597ZM268.791 398.276L269.684 408.991V416.135L270.577 417.028V426.851L262.54 428.637H260.754C257.778 428.042 255.694 428.637 254.503 430.423L258.968 431.316L271.47 428.637L272.363 425.065L271.47 408.991L268.791 398.276ZM229.5 399.169V400.062H230.393L229.5 399.169ZM242.001 400.062V400.955H242.894L242.001 400.062ZM166.097 402.741V403.633H167.883L166.097 402.741ZM165.204 405.419L161.632 410.777H166.097L174.134 406.312L173.241 405.419H171.455L166.097 407.205L164.311 408.098L166.99 406.312L165.204 405.419ZM265.219 405.419V407.205L260.754 409.884C258.373 409.289 257.48 409.884 258.075 411.67L250.931 413.456C247.359 412.266 245.871 412.861 246.466 415.242L258.968 413.456C259.564 411.075 261.35 410.182 264.326 410.777L267.005 406.312L265.219 405.419ZM174.134 410.777L161.632 414.349L162.525 416.135H169.669C170.86 414.349 172.943 413.754 175.92 414.349L175.027 413.456L175.92 411.67L174.134 410.777ZM266.112 411.67L260.754 416.135L251.824 420.6V421.493L263.433 418.814L265.219 417.028L266.112 419.707L260.754 420.6V422.386L256.289 425.065L254.503 424.172L253.61 425.958H259.861V425.065H261.647L266.112 424.172L267.898 421.493C268.494 418.517 267.898 416.731 266.112 416.135C267.898 414.945 268.196 414.052 267.005 413.456C267.601 411.67 267.303 411.075 266.112 411.67ZM177.706 415.242L170.562 417.921C169.371 416.731 167.288 416.433 164.311 417.028V417.921C165.502 417.326 165.799 418.219 165.204 420.6L164.311 419.707L162.525 422.386V424.172L163.418 426.851C165.799 427.447 167.883 426.851 169.669 425.065C170.86 424.47 170.86 423.875 169.669 423.279L175.92 419.707L173.241 418.814L177.706 417.028V415.242ZM174.134 425.958L172.348 427.744L165.204 428.637H163.418L164.311 433.102L167.883 431.316C169.669 431.912 170.264 431.316 169.669 429.53L174.134 427.744V425.958ZM168.776 432.209L165.204 433.995C162.227 433.4 161.037 433.995 161.632 435.781C165.799 436.377 168.776 435.484 170.562 433.102L168.776 432.209ZM267.005 432.209C264.624 434.591 261.35 435.484 257.182 434.888V435.781C262.54 436.377 266.112 435.484 267.898 433.102L267.005 432.209ZM267.005 438.46L263.433 439.353L264.326 441.139L267.898 439.353L267.005 438.46Z" fill="#070707"/>
<path opacity="0.996078" d="M373.718 23.2178L375.951 23.6643L361.217 29.4687L352.287 30.3617V29.4687L373.718 23.2178Z" fill="#070707"/>
<path opacity="0.996078" d="M185.743 43.7563L187.529 44.2028L176.367 66.0812L175.92 63.8487C180.326 57.8954 183.6 51.198 185.743 43.7563Z" fill="#070707"/>
<path opacity="0.996078" d="M290.669 76.7959L291.116 78.5819L279.061 87.5118L280.4 85.2793L285.312 79.4749L290.669 76.7959Z" fill="#070707"/>
<path opacity="0.996078" d="M183.51 83.0474L183.957 84.3869L173.687 97.3353L173.241 95.9958L180.385 85.7263C181.992 86.3812 182.587 85.9347 182.171 84.3869L183.51 83.0474Z" fill="#070707"/>
<path opacity="0.996078" d="M360.323 89.2979L361.662 89.7443L359.876 90.6373L360.323 91.9768C355.56 91.3815 351.988 91.9768 349.607 93.7628L345.142 92.8698L333.533 96.4418L305.85 111.623L309.422 107.158L329.068 95.5488L336.212 92.8698L345.142 91.0838H354.072L360.323 89.2979Z" fill="#070707"/>
<path opacity="0.996078" d="M194.227 95.5498L193.78 96.8893L192.441 99.1218L176.367 108.945L175.92 107.605C180.862 102.426 186.964 98.4074 194.227 95.5498Z" fill="#070707"/>
<path opacity="0.996078" d="M321.925 116.088L322.371 117.874L315.227 119.214L318.799 120.107C317.787 121.476 315.852 121.923 312.995 121.446L307.19 120.107L316.567 116.981L318.353 117.874L321.925 116.088Z" fill="#070707"/>
<path opacity="0.996078" d="M316.567 133.948L315.674 136.627L317.013 137.074L312.548 137.52C311.834 135.734 312.578 135.139 314.781 135.734L316.567 133.948Z" fill="#070707"/>
<path opacity="0.996078" d="M164.756 135.734L172.347 136.627L176.812 146.003V153.147C175.145 158.624 172.317 162.94 168.328 166.096L165.649 166.989L160.738 163.863L156.273 154.04V145.11L159.845 138.413L164.756 135.734ZM166.096 137.52L164.31 138.413C161.333 139.604 160.738 140.794 162.524 141.985L159.845 147.343L161.631 150.915V156.273C164.012 156.868 164.905 156.273 164.31 154.487H166.989L165.203 150.022L166.096 146.45L165.203 143.771L166.096 141.985V140.199L166.989 142.878H167.882L166.989 140.199C167.584 137.818 167.287 136.925 166.096 137.52ZM168.775 144.664L167.882 147.343H168.775V144.664Z" fill="#070707"/>
<path opacity="0.996078" d="M308.53 135.734C311.388 134.96 312.43 135.556 311.656 137.52L303.172 140.199L303.619 138.86C303.143 137.312 303.887 136.865 305.851 137.52L308.53 135.734Z" fill="#070707"/>
<path opacity="0.996078" d="M284.419 188.421C289.123 193.064 291.95 199.315 292.903 207.174C291.295 207.829 290.7 207.382 291.117 205.834L284.419 188.421Z" fill="#070707"/>
<path opacity="0.996078" d="M327.282 250.038L327.729 254.949L323.264 271.023L320.138 275.934L319.692 274.595L322.371 271.023V269.237L325.05 262.986L327.282 250.038Z" fill="#070707"/>
<path opacity="0.996078" d="M316.566 269.684L317.013 271.024L314.334 277.721L312.548 277.275L316.566 269.684Z" fill="#070707"/>
<path opacity="0.996078" d="M204.943 283.971L208.961 287.097L210.747 290.669H209.854L204.943 283.971Z" fill="#070707"/>
<path opacity="0.996078" d="M206.728 290.223L209.854 297.813L208.068 298.26L206.728 290.223Z" fill="#070707"/>
</svg>
