<svg width="640" height="585" viewBox="0 0 640 585" fill="none" xmlns="http://www.w3.org/2000/svg">
<path opacity="0.996078" d="M313.884 0L336.171 3.71822C349.214 8.42797 359.738 15.6578 367.745 25.4078L380.127 42.7595L383.842 66.3083V83.66L377.651 110.927C373.111 115.306 370.222 120.883 368.983 127.659L377.032 130.138L458.753 35.9428C460.651 36.6038 461.271 35.9841 460.61 34.0837L469.278 24.1684L470.516 13.0138L477.326 4.95763L482.898 3.71822C484.384 5.70127 484.796 9.21292 484.136 14.2532L489.089 27.8867L502.09 40.9004C514.72 49.7415 526.07 59.8633 536.14 71.2659C547.779 84.8167 557.272 100.516 564.619 118.363L573.286 143.151L575.763 156.785V168.559L594.336 171.038L591.859 159.883C609.607 162.197 625.291 166.948 638.911 174.137C639.571 176.037 638.952 176.657 637.054 175.996L593.717 192.108C590.25 190.621 589.631 189.175 591.859 187.77L595.574 179.094L593.717 179.714L577.001 182.193L583.192 198.925V210.079C580.881 212.31 580.055 216.029 580.716 221.234L575.763 232.389L570.191 239.205L564.619 240.445L560.904 259.656L550.999 283.204C540.02 300.308 527.019 315.388 511.995 328.443L475.469 360.048L466.801 373.681L465.563 384.836L469.278 393.512C467.874 396.238 464.779 397.271 459.991 396.61L453.181 391.033C449.549 386.736 448.311 380.126 449.466 371.202L442.037 357.569L369.603 252.839L368.983 255.937L370.222 257.177V270.81L368.983 273.289L370.222 274.529V288.162V290.641V294.359L385.08 321.626L388.795 336.499V342.696L387.556 346.414L388.795 347.654V361.287L391.271 369.963L404.272 385.455L424.083 404.047L440.18 410.244L448.228 417.06L454.419 428.215L458.134 450.524C463.664 463.166 470.681 474.321 479.183 483.988L480.421 496.382L479.183 497.622V507.537L481.66 512.495L484.136 527.368V550.916L479.802 556.494L473.611 557.733C461.312 554.758 451.613 549.181 444.514 541.001C440.304 537.365 439.066 530.755 440.799 521.171L445.752 513.734V507.537L439.561 500.101V495.143L440.799 493.904V483.988L435.846 467.876L414.178 442.468L393.128 435.032L373.317 432.553L336.171 417.68L333.695 415.201H329.98L331.837 418.3L340.505 436.891V448.046L325.646 481.51L321.932 510.016L315.122 518.072L305.835 521.79C304.019 530.879 299.686 537.903 292.834 542.86L284.167 549.057L273.023 550.297L262.498 542.24C260.022 538.935 259.196 533.978 260.022 527.368L263.736 513.734L271.785 503.199C277.068 503.116 280.576 501.257 282.309 497.622L283.548 488.946L287.881 483.369L294.691 479.031L299.644 469.115V456.721C298.406 451.351 295.723 447.426 291.596 444.947L261.26 433.792C257.876 446.186 251.066 455.689 240.83 462.299C232.493 465.521 225.682 470.272 220.4 476.552L217.923 485.228L222.876 505.058L234.02 522.41L235.258 533.565L230.305 541.001V571.986C229.067 577.357 226.384 581.282 222.257 583.761L211.113 585C203.601 582.934 198.029 579.009 194.397 573.226C190.683 569.507 189.032 563.723 189.445 555.874L191.921 544.719L199.35 533.565L196.874 529.846V510.016L193.159 500.101L181.396 487.087C179.58 487.748 178.961 487.128 179.539 485.228C175.329 482.418 174.091 476.635 175.824 467.876L193.159 449.285C196.131 446.476 197.369 441.931 196.874 435.651C195.883 430.115 193.613 425.778 190.064 422.638C187.422 429.909 183.295 435.693 177.682 439.989L165.3 448.665L138.059 458.58L128.773 465.397L125.058 482.749V523.649L122.582 533.565L118.248 537.903C116.432 537.324 115.813 537.944 116.391 539.762C112.016 552.321 105.206 562.443 95.9605 570.127C93.5666 573.102 89.0265 573.928 82.3403 572.606L70.5774 559.592C68.4312 554.717 68.0184 548.107 69.3392 539.762C70.5774 532.738 73.6729 527.574 78.6257 524.269L85.4358 521.79L84.1976 514.973L95.3414 497.622V477.791L94.1032 476.552V465.397L90.3886 457.961V443.088C93.1126 436.726 97.0336 431.561 102.151 427.595L113.914 421.398L122.582 408.385L123.82 403.427L122.582 402.187V391.033L120.105 377.399V352.611L121.344 351.372V341.457L123.82 334.64C121.591 333.731 120.766 334.351 121.344 336.499L117.629 340.217L111.438 355.09L108.962 377.399L104.009 391.033C100.789 399.378 95.6303 405.782 88.5313 410.244C76.562 418.093 60.4654 421.811 40.2415 421.398C32.8948 423.547 26.9102 427.058 22.2876 431.933L17.9539 443.708L17.3348 431.933C20.4716 419.374 26.8689 410.078 36.5269 404.047L45.8134 402.807C46.8865 400.328 45.8547 399.502 42.7179 400.328L25.3831 404.047C18.4492 406.608 12.8773 410.533 8.6674 415.821L1.8573 431.314L0 426.976L4.9528 408.385L16.7157 394.131L56.9572 374.301L60.0527 369.343C62.1989 369.922 62.818 369.095 61.91 366.864L51.3853 371.822L30.3359 373.061L23.5258 371.822C22.6178 368.93 25.3005 368.104 31.5741 369.343C40.5717 367.195 47.3818 362.857 52.0044 356.329L55.719 347.654L60.6718 324.105C65.6246 312.124 72.4347 302.002 81.1021 293.739L102.151 283.824H124.439C134.592 285.642 142.641 289.567 148.584 295.598C148.006 297.499 148.625 298.119 150.441 297.458C154.238 291.756 159.604 287.625 166.538 285.064L181.396 280.106L219.78 277.627L230.305 269.571L232.782 261.515C229.562 264.242 223.99 265.068 216.066 263.994C209.297 262.506 204.138 259.408 200.588 254.698L194.397 242.304L193.159 223.713L191.302 221.854C173.224 219.705 159.398 213.302 149.822 202.643L144.869 190.249V180.334C148.832 164.469 156.467 152.282 167.776 143.771L193.159 130.757C194.232 120.264 198.153 112.621 204.922 107.828L218.542 99.1525L230.924 95.4343H245.163L240.211 88.6176L237.734 73.7447L240.211 63.8294L243.925 57.6324L247.64 39.0413C252.015 28.9608 258.412 20.9047 266.832 14.8729L289.12 3.71822L299.025 1.23941H312.645L313.884 0ZM315.741 7.43644L312.026 9.91525H300.882L284.786 13.6335L269.927 22.3093L266.213 27.2669L264.975 29.7458L279.833 19.8305L295.93 16.1123L300.882 17.3517L282.309 21.0699L271.166 27.2669L269.927 29.7458L288.5 22.3093L292.215 23.5487L278.595 28.5064L277.357 30.9852L288.5 27.2669L293.453 28.5064L292.215 29.7458L281.071 30.9852L266.213 38.4216L262.498 43.3792L287.262 30.9852L289.739 32.2246L287.262 33.464L290.977 34.7034L283.548 37.1822L288.5 39.661L279.833 40.9004L283.548 42.1398L279.833 44.6186H286.024L284.786 47.0975L281.071 45.858L278.595 47.0975L276.118 45.858L273.642 47.0975V48.3369H287.262V52.0551L279.833 50.8157L274.88 52.0551L277.357 53.2945L287.262 54.5339L284.786 58.2521L286.024 59.4915H284.786C283.135 57.839 281.897 58.2521 281.071 60.7309H284.786L286.024 65.6886C285.199 67.3411 284.373 67.3411 283.548 65.6886L279.833 66.928L284.786 68.1674L286.024 75.6038L284.786 78.0826L288.5 90.4767V92.9555L284.786 90.4767L277.357 89.2373L274.88 90.4767L281.071 92.9555L288.5 94.1949C291.802 94.1949 293.041 96.6737 292.215 101.631L294.691 104.11L282.309 99.1525L279.833 100.392L284.786 102.871L292.215 104.11L303.359 109.068L314.503 118.983L330.599 125.18H354.125C355.776 122.701 359.078 121.875 364.031 122.701L367.745 117.744L352.887 122.701H339.267L320.694 118.983L302.121 106.589C294.691 99.9788 289.739 91.303 287.262 80.5614C285.611 61.5572 288.913 47.9237 297.168 39.661C305.423 30.572 316.566 24.7881 330.599 22.3093C343.807 20.6568 353.712 22.3093 360.316 27.2669V24.7881L330.599 8.67585L315.741 7.43644ZM476.707 14.8729C475.881 18.178 476.707 19.4174 479.183 18.5911C480.009 15.286 479.183 14.0466 476.707 14.8729ZM476.707 21.0699L481.66 34.7034L512.615 61.9703C524.997 71.8856 535.315 84.6928 543.57 100.392L553.475 120.222L560.904 143.771L562.143 156.165L564.619 158.644L563.381 163.602L565.857 166.08L569.572 164.841C566.27 158.231 564.619 150.381 564.619 141.292L557.19 120.222C550.586 103.697 541.919 89.2373 531.188 76.8432C520.457 63.6229 508.075 52.4682 494.042 43.3792C486.612 38.4216 481.66 31.8114 479.183 23.5487C480.009 21.0699 479.183 20.2436 476.707 21.0699ZM336.79 29.7458L316.979 34.7034L308.312 39.661L298.406 49.5763L293.453 65.6886C291.802 78.9089 293.866 89.2373 299.644 96.6737C307.899 105.763 319.043 111.96 333.076 115.265C343.807 116.917 352.887 116.504 360.316 114.025C366.094 112.373 370.222 109.481 372.698 105.35V102.871L362.792 110.307L350.41 112.786C333.901 113.612 321.519 110.72 313.264 104.11C305.01 99.1525 300.057 91.303 298.406 80.5614C296.755 66.5148 298.406 56.1864 303.359 49.5763C307.486 43.7924 312.852 39.661 319.455 37.1822L336.79 33.464C349.172 33.464 359.078 35.9428 366.507 40.9004L376.413 50.8157L371.46 42.1398C368.158 36.3559 362.792 32.6377 355.363 30.9852L336.79 29.7458ZM471.754 29.7458L397.462 114.025L383.842 132.617L392.509 133.856L408.606 142.532L430.893 159.883L451.943 166.08L486.612 169.799H489.089H543.57L549.761 168.559L548.522 167.32V143.771L543.57 121.462C536.966 101.631 526.648 85.9322 512.615 74.3644C513.44 71.8856 513.027 71.0593 511.376 71.8856L507.662 66.928L497.756 59.4915C487.025 51.2288 478.358 41.3136 471.754 29.7458ZM274.88 30.9852V32.2246H276.118L274.88 30.9852ZM272.404 32.2246V33.464H273.642L272.404 32.2246ZM283.548 33.464V34.7034H286.024L283.548 33.464ZM281.071 34.7034V35.9428H282.309L281.071 34.7034ZM278.595 40.9004L276.118 42.1398V43.3792L279.833 42.1398L278.595 40.9004ZM258.784 43.3792V45.858L261.26 44.6186L258.784 43.3792ZM273.642 43.3792L269.927 44.6186V45.858C272.404 46.6843 274.055 46.2712 274.88 44.6186L273.642 43.3792ZM330.599 43.3792L321.932 47.0975L319.455 50.8157L338.028 47.0975C340.505 47.9237 341.33 47.0975 340.505 44.6186L330.599 43.3792ZM260.022 49.5763L255.069 52.0551L266.213 53.2945C269.515 56.5996 271.991 61.1441 273.642 66.928C273.642 79.322 269.515 88.411 261.26 94.1949H263.736L273.642 83.0402L277.357 69.4068L272.404 54.5339C269.927 50.4025 265.8 48.75 260.022 49.5763ZM367.745 49.5763L373.936 69.4068L372.698 90.4767L370.222 95.4343L371.46 96.6737L377.651 85.5191L376.413 64.4491C374.762 57.839 371.873 52.8814 367.745 49.5763ZM253.831 55.7733L250.116 58.2521L242.687 74.3644L243.925 76.8432L242.687 79.322L245.163 86.7585L253.831 89.2373L261.26 85.5191L267.451 73.125L264.975 61.9703C264.149 57.0127 260.435 54.947 253.831 55.7733ZM282.309 55.7733V57.0127H284.786L282.309 55.7733ZM283.548 73.125L282.309 75.6038H283.548V73.125ZM278.595 78.0826V81.8008L284.786 83.0402L283.548 80.5614L278.595 78.0826ZM279.833 83.0402L278.595 85.5191L276.118 86.7585C280.246 85.9322 283.548 86.7585 286.024 89.2373V87.9979L279.833 83.0402ZM273.642 94.1949L274.88 96.6737H279.833L273.642 94.1949ZM282.309 95.4343L281.071 97.9131H286.024L282.309 95.4343ZM266.213 96.6737C265.387 99.1525 266.213 99.9788 268.689 99.1525C269.515 96.6737 268.689 95.8475 266.213 96.6737ZM287.262 97.9131L288.5 100.392C289.326 97.9131 288.913 97.0869 287.262 97.9131ZM236.496 100.392L217.923 106.589L204.303 118.983L205.541 120.222L219.161 114.025L216.685 112.786L230.305 104.11L236.496 102.871V100.392ZM241.449 102.871L236.496 105.35V106.589L242.687 104.11L241.449 102.871ZM269.927 102.871V105.35C274.88 104.523 278.595 105.763 281.071 109.068H282.309C279.833 104.936 275.706 102.871 269.927 102.871ZM282.309 105.35V106.589H284.786L282.309 105.35ZM287.262 106.589V107.828L290.977 109.068H295.93L287.262 106.589ZM222.876 110.307V111.547H227.829L222.876 110.307ZM289.739 110.307V111.547H290.977L289.739 110.307ZM220.4 111.547V112.786H221.638L220.4 111.547ZM297.168 111.547V112.786L303.359 115.265H305.835C304.184 111.96 301.295 110.72 297.168 111.547ZM267.451 112.786L268.689 115.265L284.786 121.462L312.026 128.898L328.123 130.138H330.599L331.837 128.898H349.172L325.646 127.659L310.788 123.941L308.312 125.18L267.451 112.786ZM246.402 114.025V115.265H250.116L246.402 114.025ZM252.593 114.025L250.116 116.504L267.451 123.941L299.644 135.095L333.076 141.292C342.981 142.119 351.649 141.292 359.078 138.814L364.031 132.617L354.125 136.335H326.885C321.932 133.856 316.154 132.617 309.55 132.617L281.071 123.941H274.88L252.593 114.025ZM294.691 114.025L295.93 116.504H299.644L294.691 114.025ZM221.638 115.265L212.97 120.222L210.494 118.983L205.541 121.462L203.065 125.18L209.256 121.462L210.494 123.941L225.352 116.504L221.638 115.265ZM219.161 122.701L214.209 125.18V126.419L220.4 125.18C221.225 122.701 220.812 121.875 219.161 122.701ZM549.761 122.701V125.18L552.237 123.941L549.761 122.701ZM210.494 125.18L206.779 126.419L205.541 128.898L211.732 126.419L210.494 125.18ZM247.64 125.18L246.402 127.659H251.354L247.64 125.18ZM212.97 127.659C212.145 130.138 212.97 130.964 215.447 130.138C216.272 127.659 215.447 126.833 212.97 127.659ZM552.237 127.659V130.138C550.586 134.269 551.411 135.922 554.713 135.095L553.475 132.617C554.301 128.485 553.888 126.833 552.237 127.659ZM203.065 128.898L201.827 131.377L204.303 130.138L203.065 128.898ZM255.069 128.898L252.593 131.377H256.307L261.26 140.053L264.975 153.686C263.324 157.818 264.149 159.47 267.451 158.644L264.975 148.729L266.213 142.532L262.498 135.095C263.324 131.79 261.673 130.964 257.545 132.617V130.138L255.069 128.898ZM208.018 130.138V131.377H210.494L208.018 130.138ZM248.878 130.138L251.354 135.095L246.402 132.617H243.925C238.972 134.269 236.083 133.856 235.258 131.377L231.543 132.617L236.496 135.095L234.02 136.335L235.258 138.814L238.972 140.053C242.274 143.358 244.338 148.316 245.163 154.926H246.402C247.227 149.968 246.402 147.076 243.925 146.25L245.163 143.771L250.116 156.165L252.593 157.405C251.767 149.142 249.291 142.945 245.163 138.814V136.335L247.64 137.574L256.307 154.926C255.482 157.405 256.307 158.231 258.784 157.405C257.958 150.794 255.482 145.424 251.354 141.292L252.593 138.814C257.545 142.945 260.022 149.555 260.022 158.644L262.498 159.883C261.673 149.142 259.196 140.879 255.069 135.095L248.878 130.138ZM205.541 131.377V132.617H206.779L205.541 131.377ZM381.365 133.856L380.127 136.335H381.365V133.856ZM215.447 135.095L222.876 141.292C227.829 144.597 231.131 149.555 232.782 156.165L235.258 154.926C231.956 151.621 230.305 147.076 230.305 141.292V138.814C232.782 140.466 234.02 143.771 234.02 148.729L237.734 149.968C236.909 151.621 237.734 152.034 240.211 151.208L242.687 153.686L237.734 142.532L227.829 135.095C225.352 134.269 224.527 135.095 225.352 137.574L226.591 138.814L215.447 135.095ZM276.118 136.335L277.357 146.25L284.786 151.208L287.262 154.926C291.39 156.578 293.041 155.752 292.215 152.447L286.024 149.968L276.118 136.335ZM553.475 136.335C552.65 139.64 553.475 140.879 555.952 140.053C556.777 136.748 555.952 135.508 553.475 136.335ZM206.779 138.814L204.303 140.053V141.292C208.43 139.64 210.081 140.466 209.256 143.771L212.97 145.011L216.685 147.489L217.923 151.208L230.305 156.165V154.926L216.685 141.292C214.209 138.814 210.907 137.987 206.779 138.814ZM382.604 138.814L378.889 140.053V142.532L376.413 141.292L371.46 147.489L373.936 151.208L376.413 149.968L375.174 147.489C374.349 145.011 375.587 144.184 378.889 145.011L383.842 141.292L381.365 145.011H378.889L377.651 151.208L380.127 154.926L382.604 148.729V146.25L390.033 141.292L382.604 138.814ZM553.475 141.292V145.011C556.777 145.837 558.015 145.424 557.19 143.771L553.475 141.292ZM274.88 142.532L273.642 145.011H274.88V142.532ZM392.509 142.532L382.604 149.968L381.365 153.686L382.604 162.362L388.795 151.208L393.747 147.489L391.271 146.25L396.224 145.011L392.509 142.532ZM194.397 143.771L182.015 148.729H179.539L182.015 147.489V145.011L170.872 151.208C162.617 157.818 157.251 166.907 154.775 178.475C153.949 181.78 154.775 184.258 157.251 185.911C158.902 183.432 159.315 179.714 158.49 174.756L163.442 168.559L167.157 169.799L164.681 180.953V192.108L167.157 193.347V184.672L173.348 171.038L179.539 166.08L173.348 179.714L174.586 193.347C174.586 183.432 176.65 175.583 180.777 169.799L184.492 167.32L180.777 173.517C178.301 187.564 179.952 198.305 185.73 205.742H186.968L184.492 195.826C182.841 185.911 183.666 178.888 186.968 174.756H188.206L185.73 183.432C184.079 187.564 184.904 189.216 188.206 188.39C187.381 182.606 188.206 178.888 190.683 177.235H191.921L190.683 179.714C189.857 188.803 191.095 195.826 194.397 200.784H195.636L194.397 197.066C192.746 188.803 193.572 182.606 196.874 178.475C196.048 188.39 197.286 196.239 200.588 202.023L203.065 203.263L199.35 193.347V180.953L200.588 179.714C199.763 176.409 200.588 175.169 203.065 175.996L201.827 179.714V189.629L205.541 202.023H206.779L204.303 193.347C202.652 186.737 203.477 182.606 206.779 180.953C205.954 187.564 207.192 192.521 210.494 195.826L212.97 179.714L215.447 174.756L217.923 173.517C215.447 175.996 214.621 180.127 215.447 185.911L214.209 189.629L215.447 199.544H216.685L215.447 195.826L216.685 184.672L219.161 183.432L217.923 185.911L220.4 193.347L222.876 178.475L224.114 184.672L225.352 179.714L227.829 178.475L225.352 187.15L226.591 192.108L225.352 194.587L226.591 197.066C225.765 198.718 226.591 199.131 229.067 198.305V183.432L237.734 162.362L235.258 163.602C232.782 162.775 231.956 163.602 232.782 166.08L230.305 167.32H227.829L230.305 166.08L232.782 162.362L222.876 163.602H220.4H216.685L221.638 161.123V159.883L208.018 162.362H205.541C208.018 159.057 211.732 157.405 216.685 157.405V156.165C211.732 155.339 208.843 155.752 208.018 157.405H204.303L208.018 154.926V153.686L201.827 156.165C197.699 156.992 196.461 155.752 198.112 152.447L191.921 153.686L194.397 154.926C184.492 154.1 177.475 155.752 173.348 159.883H170.872L183.254 151.208L200.588 146.25L209.256 149.968V148.729C206.779 144.597 201.827 142.945 194.397 143.771ZM309.55 145.011L308.312 147.489L313.264 151.208L328.123 154.926H321.932L323.17 157.405H330.599V159.883L323.17 161.123L330.599 166.08C338.028 166.907 343.807 166.08 347.934 163.602C349.585 162.775 349.585 161.949 347.934 161.123L351.649 157.405L350.41 156.165V154.926L352.887 156.165L355.363 151.208L351.649 152.447C347.521 151.621 345.87 152.447 346.696 154.926C348.347 155.752 348.347 156.578 346.696 157.405C340.092 159.057 337.203 158.231 338.028 154.926L346.696 152.447V151.208L340.505 152.447L339.267 151.208C340.918 149.555 340.918 148.316 339.267 147.489L336.79 148.729C334.314 147.903 333.488 148.729 334.314 151.208L336.79 149.968L338.028 153.686L333.076 149.968C321.519 151.621 313.677 149.968 309.55 145.011ZM267.451 146.25C269.102 148.729 269.515 152.86 268.689 158.644H269.927V147.489L267.451 146.25ZM277.357 146.25L276.118 148.729H277.357V146.25ZM295.93 146.25V154.926L303.359 157.405H318.217C316.566 154.1 312.852 153.273 307.073 154.926L295.93 146.25ZM398.7 146.25L393.747 148.729L385.08 163.602L386.318 166.08L393.747 154.926L402.415 147.489L398.7 146.25ZM555.952 146.25C553.475 147.903 553.475 149.142 555.952 149.968C558.428 150.794 559.253 150.381 558.428 148.729L555.952 146.25ZM236.496 148.729L235.258 152.447H236.496V148.729ZM278.595 148.729V157.405L277.357 156.165L276.118 158.644H284.786L281.071 157.405L278.595 148.729ZM402.415 148.729L401.177 151.208L398.7 152.447L390.033 167.32C392.509 168.146 393.335 167.733 392.509 166.08L407.368 153.686L402.415 148.729ZM272.404 151.208L271.166 153.686H272.404V151.208ZM276.118 151.208L274.88 153.686H276.118V151.208ZM308.312 151.208L309.55 153.686C310.375 151.208 309.963 150.381 308.312 151.208ZM554.713 152.447V154.926L559.666 153.686L554.713 152.447ZM237.734 153.686L236.496 156.165H237.734V153.686ZM273.642 153.686L272.404 158.644H274.88L273.642 153.686ZM364.031 153.686C363.205 156.165 364.031 156.992 366.507 156.165C367.333 153.686 366.507 152.86 364.031 153.686ZM553.475 156.165V158.644L557.19 159.883H559.666C561.317 160.71 561.73 159.883 560.904 157.405L553.475 156.165ZM361.554 157.405L359.078 162.362L365.269 163.602L354.125 166.08L352.887 168.559C357.014 170.212 359.903 169.799 361.554 167.32C364.856 166.494 366.094 167.32 365.269 169.799L360.316 171.038L351.649 169.799L349.172 173.517L367.745 172.278L368.983 171.038C369.809 165.254 368.571 161.536 365.269 159.883L361.554 157.405ZM409.844 157.405V159.883L408.606 158.644L401.177 162.362L393.747 171.038L394.986 172.278L396.224 171.038H434.608L433.37 168.559C430.893 169.386 430.068 168.559 430.893 166.08C425.941 166.907 422.639 165.667 420.988 162.362L416.035 163.602L417.273 161.123L409.844 157.405ZM553.475 161.123L555.952 164.841L560.904 163.602C560.079 161.123 559.253 160.71 558.428 162.362L553.475 161.123ZM248.878 163.602L246.402 164.841C239.798 170.625 235.671 179.301 234.02 190.869L235.258 200.784L237.734 202.023L236.496 198.305L238.972 185.911L241.449 184.672L240.211 189.629C239.385 196.239 240.211 201.61 242.687 205.742H243.925L242.687 202.023V189.629L247.64 175.996H248.878L246.402 184.672L247.64 187.15L246.402 189.629C245.576 197.066 246.814 202.85 250.116 206.981H251.354L248.878 199.544L250.116 183.432L256.307 166.08H258.784L253.831 164.841L247.64 169.799L250.116 164.841L248.878 163.602ZM293.453 163.602C285.199 164.428 279.42 167.32 276.118 172.278H273.642L274.88 169.799L277.357 166.08L268.689 167.32L258.784 178.475L257.545 192.108H258.784V188.39L263.736 185.911L264.975 179.714L267.451 180.953C264.975 182.606 264.149 185.085 264.975 188.39L262.498 189.629L267.451 195.826L271.166 183.432L277.357 182.193L279.833 180.953L272.404 192.108V195.826C270.753 196.653 271.166 197.479 273.642 198.305L274.88 192.108L278.595 187.15C281.071 183.019 284.786 180.54 289.739 179.714C290.564 182.193 290.151 183.019 288.5 182.193C283.548 184.672 280.659 189.216 279.833 195.826C279.008 200.784 279.833 204.502 282.309 206.981L286.024 208.22L287.262 209.46C288.088 206.981 287.262 206.155 284.786 206.981L281.071 198.305C283.548 197.479 284.373 195.413 283.548 192.108L286.024 190.869L284.786 194.587L287.262 198.305V200.784C289.739 199.958 290.564 200.784 289.739 203.263C290.564 206.568 293.041 207.807 297.168 206.981C297.993 204.502 296.755 203.676 293.453 204.502L289.739 197.066L288.5 193.347L290.977 194.587L292.215 192.108L293.453 195.826L292.215 198.305L297.168 200.784L298.406 198.305V202.023L302.121 200.784L300.882 206.981L304.597 208.22L308.312 205.742L305.835 202.023L292.215 188.39H289.739L287.262 189.629L290.977 187.15L294.691 182.193V185.911L299.644 187.15L303.359 190.869C304.184 187.564 305.423 187.564 307.073 190.869L305.835 194.587L313.264 193.347L304.597 183.432L303.359 177.235C305.835 176.409 306.661 177.235 305.835 179.714L312.026 182.193H313.264L312.026 185.911L315.741 187.15V184.672L319.455 187.15L318.217 190.869L323.17 189.629L320.694 183.432L310.788 175.996C308.312 176.822 307.486 176.409 308.312 174.756C305.01 173.104 305.01 171.451 308.312 169.799L314.503 171.038L313.264 169.799L314.503 167.32C314.503 170.625 316.979 171.864 321.932 171.038L326.885 173.517H328.123C324.821 168.559 320.281 165.254 314.503 163.602H293.453ZM342.981 166.08C340.505 168.559 337.203 169.386 333.076 168.559L334.314 171.038L341.743 169.799L344.219 167.32L342.981 166.08ZM553.475 166.08V168.559H559.666V166.08H553.475ZM390.033 167.32L387.556 172.278L390.033 171.038V167.32ZM601.765 167.32L603.003 175.996H606.718H612.909L621.576 173.517L620.338 171.038L601.765 167.32ZM437.084 168.559V169.799H439.561L437.084 168.559ZM324.408 172.278L323.17 173.517C319.043 172.691 317.805 173.93 319.455 177.235L324.408 175.996L323.17 180.953C325.646 181.78 326.472 181.367 325.646 179.714L328.123 178.475L326.885 183.432L331.837 179.714L330.599 175.996C329.774 173.517 328.948 173.104 328.123 174.756L324.408 172.278ZM336.79 172.278V173.517H340.505L336.79 172.278ZM557.19 173.517L554.713 175.996H579.477L580.716 173.517L574.525 174.756L572.048 173.517H557.19ZM469.278 174.756L468.039 175.996H451.943L450.705 177.235L444.514 175.996L443.275 177.235H433.37H430.893L422.226 175.996H419.75L414.797 177.235L342.981 178.475L340.505 180.953L342.981 183.432L344.219 182.193H364.031L365.269 180.953H434.608L435.846 179.714H464.325L465.563 178.475H536.14L538.617 177.235L472.992 175.996L469.278 174.756ZM600.527 180.953V182.193H601.765L600.527 180.953ZM541.093 182.193L538.617 183.432L531.188 192.108L532.426 205.742C534.077 209.047 537.379 210.286 542.331 209.46L543.57 206.981L538.617 205.742L533.664 197.066C532.839 192.934 533.664 191.282 536.14 192.108L537.379 198.305L542.331 200.784L541.093 198.305C540.268 195.826 541.093 195 543.57 195.826L546.046 190.869L550.999 188.39L549.761 192.108C548.935 194.587 550.586 195 554.713 193.347V195.826L563.381 200.784H565.857C566.683 195.826 565.444 192.108 562.143 189.629C558.841 183.019 551.824 180.54 541.093 182.193ZM568.334 183.432L565.857 185.911H569.572C570.397 183.432 569.984 182.606 568.334 183.432ZM470.516 184.672C468.865 187.15 465.563 187.564 460.61 185.911L453.181 195.826L450.705 206.981L453.181 220.614H454.419L453.181 215.657L454.419 206.981L455.657 209.46L456.896 219.375L461.848 223.093L458.134 215.657C459.785 210.699 459.372 207.807 456.896 206.981C456.07 200.371 457.308 195.826 460.61 193.347H461.848C459.372 196.653 458.547 202.023 459.372 209.46H460.61C459.785 206.155 460.61 204.915 463.087 205.742L464.325 220.614L468.039 221.854L465.563 216.896V206.981L464.325 205.742L468.039 194.587V213.178C469.69 218.136 472.579 222.267 476.707 225.572H477.945L472.992 220.614L470.516 211.939L471.754 204.502L474.23 200.784C473.405 198.305 474.23 197.479 476.707 198.305L475.469 203.263V210.699C477.945 212.352 478.77 215.657 477.945 220.614L481.66 223.093L480.421 218.136L479.183 214.417C477.532 209.46 478.358 207.394 481.66 208.22L484.136 215.657L486.612 216.896L485.374 214.417C484.549 206.981 485.374 201.197 487.851 197.066L490.327 195.826L487.851 203.263L489.089 218.136V220.614C489.914 222.267 489.502 222.68 487.851 221.854L485.374 219.375L482.898 218.136L484.136 223.093L492.803 224.333H494.042L491.565 219.375C490.74 211.112 491.152 204.915 492.803 200.784L498.994 195.826L494.042 206.981C493.216 214.417 494.454 219.788 497.756 223.093L505.185 228.051C506.836 228.877 507.249 228.464 506.424 226.811L502.709 224.333L496.518 216.896L498.994 205.742V203.263L505.185 193.347L500.233 190.869L497.756 192.108H494.042L498.994 188.39L510.138 185.911V184.672H501.471L491.565 189.629H484.136L492.803 187.15L471.754 185.911L470.516 184.672ZM154.775 185.911L152.299 188.39L154.775 193.347L156.013 189.629L154.775 185.911ZM450.705 185.911L446.99 187.15L439.561 202.023V211.939L442.037 223.093L445.752 225.572L442.037 216.896V203.263L444.514 199.544L449.466 223.093L451.943 224.333L448.228 214.417L450.705 192.108L456.896 187.15L450.705 185.911ZM524.997 185.911L520.044 192.108L518.806 190.869L521.282 187.15C517.155 185.498 515.504 186.324 516.329 189.629L513.853 190.869C509.725 193.347 507.249 197.066 506.424 202.023L507.662 208.22H505.185L510.138 223.093L515.091 229.29H520.044L517.567 228.051C513.44 225.572 510.964 221.441 510.138 215.657L511.376 204.502L513.853 198.305L517.567 195.826C515.091 197.479 514.266 201.197 515.091 206.981V209.46L513.853 211.939L517.567 224.333L521.282 225.572L518.806 223.093L520.044 197.066L526.235 187.15L524.997 185.911ZM336.79 187.15L338.028 189.629H346.696V187.15H336.79ZM407.368 187.15L403.653 188.39L399.938 194.587L401.177 195.826L409.844 188.39L407.368 187.15ZM366.507 188.39V189.629H367.745L366.507 188.39ZM392.509 188.39C388.382 190.042 387.969 191.695 391.271 193.347L392.509 190.869V188.39ZM401.177 188.39L397.462 189.629L396.224 194.587L397.462 195.826L401.177 190.869V188.39ZM414.797 188.39L411.082 192.108L412.32 195.826L417.273 189.629L414.797 188.39ZM420.988 188.39L408.606 200.784L411.082 206.981L409.844 211.939L412.32 213.178L411.082 210.699L414.797 198.305L417.273 197.066L414.797 202.023L416.035 205.742L422.226 189.629L420.988 188.39ZM428.417 188.39L423.464 194.587L420.988 205.742C420.162 210.699 420.988 214.417 423.464 216.896C421.813 207.807 422.639 201.197 425.941 197.066C425.115 193.761 425.941 192.521 428.417 193.347L425.941 200.784L427.179 208.22L430.893 193.347C429.242 191.695 429.655 190.455 432.132 189.629L428.417 188.39ZM437.084 188.39L432.132 197.066L429.655 206.981C428.004 213.591 428.83 218.136 432.132 220.614L433.37 202.023L439.561 189.629L437.084 188.39ZM567.095 188.39V190.869L572.048 192.108L573.286 195.826L570.81 193.347L568.334 200.784C572.461 201.61 574.937 201.197 575.763 199.544L574.525 192.108L567.095 188.39ZM300.882 189.629L299.644 192.108H300.882V189.629ZM375.174 189.629L373.936 192.108H375.174V189.629ZM349.172 190.869C345.045 193.347 339.679 194.587 333.076 194.587L336.79 195.826H352.887V193.347H357.84L349.172 190.869ZM365.269 190.869L364.031 200.784V216.896L360.316 229.29L361.554 231.769C360.729 233.422 361.554 233.835 364.031 233.008L362.792 231.769L366.507 215.657V205.742L367.745 202.023V192.108L365.269 190.869ZM529.949 190.869L527.473 194.587L526.235 198.305L527.473 210.699L531.188 214.417L529.949 215.657L536.14 220.614C538.617 219.788 539.442 220.614 538.617 223.093H542.331C543.982 218.136 542.331 216.483 537.379 218.136V216.896L536.14 215.657L528.711 204.502C527.06 198.718 527.473 195.413 529.949 194.587V190.869ZM188.206 192.108V199.544H189.445C190.27 195.413 189.857 192.934 188.206 192.108ZM278.595 192.108L277.357 197.066H278.595V192.108ZM407.368 192.108L401.177 199.544L402.415 203.263L407.368 194.587V192.108ZM328.123 193.347L324.408 197.066C323.583 198.718 326.059 199.131 331.837 198.305L328.123 193.347ZM314.503 194.587L310.788 199.544L314.503 200.784L316.979 197.066L314.503 194.587ZM356.601 195.826V197.066H359.078L356.601 195.826ZM372.698 195.826L371.46 220.614L370.222 223.093L378.889 221.854L372.698 219.375L378.889 218.136L372.698 216.896L375.174 215.657L372.698 214.417L378.889 211.939L372.698 210.699L377.651 209.46C379.302 206.155 378.476 204.915 375.174 205.742V204.502C378.476 205.328 379.715 204.915 378.889 203.263L373.936 199.544H376.413H378.889L372.698 195.826ZM160.966 197.066L159.728 202.023L167.157 206.981H168.395L160.966 197.066ZM168.395 197.066L167.157 199.544H168.395V197.066ZM221.638 197.066L220.4 200.784L222.876 202.023L221.638 197.066ZM263.736 197.066L264.975 204.502H266.213L264.975 200.784C265.8 197.479 265.387 196.239 263.736 197.066ZM546.046 197.066L543.57 199.544H546.046V197.066ZM277.357 198.305L274.88 202.023L277.357 203.263V198.305ZM338.028 198.305L340.505 203.263L347.934 202.023L349.172 204.502L342.981 203.263L345.458 210.699C347.934 214.004 352.474 214.83 359.078 213.178V210.699H349.172V209.46H360.316V206.981H350.41L349.172 208.22C346.696 209.047 345.87 208.22 346.696 205.742H359.078L361.554 204.502L351.649 200.784V199.544L361.554 200.784V198.305H338.028ZM169.633 199.544V205.742C173.761 209.873 179.539 212.352 186.968 213.178L194.397 211.939L198.112 213.178H221.638L222.876 211.939C224.527 212.765 224.94 211.939 224.114 209.46L220.4 210.699L205.541 209.46L196.874 204.502C196.048 206.981 196.874 207.807 199.35 206.981L201.827 210.699L193.159 209.46L190.683 206.981L189.445 209.46L191.921 211.939L184.492 209.46L178.301 205.742L179.539 208.22H177.063L169.633 199.544ZM321.932 200.784C321.106 202.436 322.345 203.676 325.646 204.502L321.932 205.742V203.263L318.217 208.22L326.885 209.46V210.699L319.455 209.46L315.741 211.939V223.093H319.455V225.572H320.694C319.868 223.093 321.106 222.267 324.408 223.093V220.614H321.932L323.17 216.896L318.217 214.417L319.455 211.939L325.646 215.657C326.472 220.614 326.059 224.333 324.408 226.811L318.217 225.572L315.741 229.29L326.885 230.53V231.769C318.63 232.595 313.264 230.943 310.788 226.811L313.264 209.46L310.788 210.699C311.614 212.352 311.201 212.765 309.55 211.939L307.073 214.417V233.008L310.788 234.248L313.264 233.008C315.741 235.487 320.694 235.9 328.123 234.248L330.599 236.727L334.314 213.178V202.023C331.837 200.371 327.71 199.958 321.932 200.784ZM212.97 202.023L211.732 204.502L216.685 206.981L212.97 202.023ZM391.271 202.023L390.033 206.981H391.271V202.023ZM399.938 203.263C397.462 204.089 396.637 206.155 397.462 209.46L399.938 210.699V203.263ZM406.129 203.263L402.415 209.46H404.891L406.129 206.981V203.263ZM554.713 203.263V210.699L558.428 211.939V209.46C560.079 208.633 560.492 209.46 559.666 211.939L563.381 213.178L565.857 211.939C570.81 213.591 572.461 212.352 570.81 208.22C573.286 207.394 574.112 208.22 573.286 210.699V211.939L577.001 210.699L578.239 205.742C567.508 207.394 559.666 206.568 554.713 203.263ZM225.352 208.22V209.46L229.067 210.699H230.305C229.48 208.22 227.829 207.394 225.352 208.22ZM341.743 213.178L339.267 216.896L338.028 233.008C341.33 231.356 346.283 230.943 352.887 231.769L350.41 225.572L345.458 226.811V225.572C348.76 226.398 349.998 225.572 349.172 223.093H340.505C341.33 220.614 342.569 220.201 344.219 221.854H346.696L341.743 213.178ZM361.554 213.178L359.078 215.657L350.41 216.896L352.887 218.136H361.554V213.178ZM397.462 215.657L396.224 219.375L398.7 223.093L406.129 226.811V225.572L402.415 221.854L397.462 215.657ZM402.415 215.657L404.891 219.375V218.136L402.415 215.657ZM553.475 215.657C552.65 218.962 553.475 221.028 555.952 221.854V218.136C558.428 217.309 559.253 218.549 558.428 221.854C556.777 222.68 557.19 223.506 559.666 224.333C561.317 225.159 561.73 224.746 560.904 223.093L563.381 221.854C561.73 225.159 562.968 226.398 567.095 225.572C568.746 224.746 569.159 222.267 568.334 218.136L553.475 215.657ZM250.116 218.136L247.64 221.854L250.116 225.572L257.545 229.29L258.784 228.051L262.498 231.769L263.736 230.53L262.498 226.811H258.784V223.093L253.831 220.614L255.069 224.333V225.572L250.116 218.136ZM408.606 218.136V220.614L411.082 223.093L406.129 219.375L404.891 221.854C413.146 228.464 425.115 231.769 440.799 231.769C441.624 233.422 442.45 233.422 443.275 231.769C440.799 228.464 437.084 227.225 432.132 228.051L429.655 225.572L425.941 228.051L417.273 225.572L413.559 221.854L408.606 218.136ZM573.286 218.136L572.048 219.375C568.746 218.549 567.921 220.201 569.572 224.333L574.525 223.093C575.35 218.962 574.937 217.309 573.286 218.136ZM290.977 219.375C289.326 221.854 289.739 222.68 292.215 221.854L290.977 219.375ZM521.282 219.375L520.044 221.854H521.282V219.375ZM354.125 220.614L355.363 223.093L357.84 221.854L361.554 223.093C362.38 220.614 359.903 219.788 354.125 220.614ZM423.464 221.854L422.226 224.333L425.941 226.811L423.464 221.854ZM522.52 221.854L521.282 224.333V226.811H523.758L522.52 221.854ZM200.588 223.093C198.937 226.398 199.35 228.464 201.827 229.29H208.018L200.588 223.093ZM248.878 223.093L245.163 229.29C243.513 230.117 243.925 231.356 246.402 233.008L243.925 235.487C250.529 235.487 256.307 236.727 261.26 239.205H267.451V237.966L263.736 235.487V233.008C260.435 232.182 259.196 233.008 260.022 235.487C256.72 236.314 254.656 235.9 253.831 234.248L260.022 233.008L255.069 230.53L252.593 234.248L247.64 233.008L246.402 229.29L250.116 230.53H252.593L248.878 223.093ZM290.977 223.093V225.572H287.262L282.309 240.445L293.453 242.924L292.215 241.684V236.727C295.517 237.553 296.755 236.727 295.93 234.248H299.644V229.29L297.168 233.008L292.215 231.769V229.29L289.739 230.53L290.977 228.051C292.628 228.877 293.041 228.051 292.215 225.572H295.93L290.977 223.093ZM482.898 223.093L484.136 225.572L489.089 226.811H490.327L482.898 223.093ZM357.84 224.333L360.316 228.051C361.142 224.746 360.316 223.506 357.84 224.333ZM386.318 225.572L371.46 245.403H373.936C374.762 243.75 375.587 244.163 376.413 246.642L372.698 247.881L450.705 361.907C449.879 363.559 450.705 363.972 453.181 363.146L461.848 349.513L490.327 323.485L518.806 293.739L532.426 270.191L538.617 247.881C540.268 241.271 539.855 236.727 537.379 234.248L533.664 230.53L521.282 235.487L469.278 237.966H466.801L463.087 239.205H442.037L439.561 241.684L407.368 233.008H401.177L391.271 228.051C388.795 228.877 387.969 228.051 388.795 225.572H386.318ZM449.466 225.572V231.769H455.657L451.943 229.29L449.466 225.572ZM464.325 225.572V228.051L469.278 230.53H491.565L496.518 229.29L481.66 226.811V229.29L480.421 228.051L477.945 229.29L464.325 225.572ZM264.975 226.811L266.213 229.29C267.038 226.811 266.626 225.985 264.975 226.811ZM553.475 226.811L554.713 230.53H553.475V231.769L557.19 230.53C558.841 231.356 559.253 230.53 558.428 228.051L553.475 226.811ZM200.588 229.29C198.937 231.769 199.35 233.422 201.827 234.248H208.018L200.588 229.29ZM459.372 229.29C459.372 232.595 460.197 233.008 461.848 230.53L459.372 229.29ZM559.666 229.29L558.428 233.008L562.143 234.248L569.572 233.008L570.81 231.769L569.572 229.29H559.666ZM372.698 234.248L371.46 236.727H372.698V234.248ZM205.541 235.487V236.727L212.97 237.966H215.447H220.4C217.098 235.487 212.145 234.661 205.541 235.487ZM200.588 236.727V240.445L206.779 241.684C209.256 242.511 210.907 242.097 211.732 240.445L200.588 236.727ZM297.168 236.727C296.342 239.205 297.168 240.032 299.644 239.205C300.47 236.727 299.644 235.9 297.168 236.727ZM357.84 236.727L356.601 237.966L334.314 239.205L333.076 240.445H308.312L307.073 239.205L302.121 241.684L309.55 242.924H344.219L352.887 240.445C357.84 241.271 360.316 240.858 360.316 239.205L357.84 236.727ZM547.284 237.966V241.684C549.761 240.858 549.761 239.619 547.284 237.966ZM294.691 239.205V241.684H298.406L294.691 239.205ZM553.475 239.205L554.713 245.403L552.237 246.642L553.475 250.36C550.173 251.186 549.761 252.426 552.237 254.078C545.633 274.735 535.315 292.087 521.282 306.133L501.471 324.725L517.567 307.373V304.894L491.565 329.682L464.325 356.949L455.657 375.54C454.832 381.324 455.657 385.455 458.134 387.934L460.61 389.174L458.134 379.258C460.61 367.691 465.563 359.015 472.992 353.231L505.185 324.725L508.9 322.246C522.107 309.852 533.664 296.218 543.57 281.345L553.475 260.275L557.19 241.684L553.475 239.205ZM212.97 240.445V241.684H215.447L212.97 240.445ZM201.827 241.684L204.303 245.403H210.494L201.827 241.684ZM242.687 241.684L238.972 245.403L240.211 247.881V246.642L245.163 242.924L242.687 241.684ZM544.808 242.924V245.403H549.761L544.808 242.924ZM245.163 244.163V249.121L247.64 247.881C248.465 244.576 247.64 243.337 245.163 244.163ZM251.354 244.163L248.878 246.642H251.354L250.116 252.839L251.354 256.557L253.831 251.6C253.005 248.294 253.831 247.055 256.307 247.881L253.831 257.797L264.975 261.515V259.036L258.784 256.557C256.307 257.383 255.482 256.557 256.307 254.078L261.26 255.318V250.36L260.022 252.839L257.545 250.36L260.022 249.121L257.545 246.642H255.069L251.354 244.163ZM204.303 246.642V249.121L210.494 251.6H215.447L204.303 246.642ZM241.449 246.642V249.121L243.925 247.881L241.449 246.642ZM356.601 246.642L350.41 249.121L357.84 250.36H356.601H354.125L352.887 252.839L357.84 251.6V254.078V255.318L361.554 254.078C364.031 254.905 364.443 253.252 362.792 249.121L356.601 246.642ZM546.046 246.642L543.57 249.121L541.093 263.994L534.902 278.867L517.567 304.894H520.044C529.949 292.5 538.617 278.453 546.046 262.754L544.808 257.797H547.284C549.761 256.144 549.348 254.905 546.046 254.078L548.522 252.839L546.046 249.121H548.522C549.348 246.642 548.522 245.816 546.046 246.642ZM262.498 247.881C261.673 250.36 262.911 251.186 266.213 250.36C267.038 247.881 265.8 247.055 262.498 247.881ZM247.64 249.121L246.402 252.839L247.64 254.078L250.116 250.36L247.64 249.121ZM274.88 249.121L271.166 256.557C270.34 261.515 270.753 264.82 272.404 266.472L276.118 267.712L278.595 266.472C280.246 269.778 284.786 271.017 292.215 270.191C293.041 271.843 293.866 271.843 294.691 270.191L284.786 267.712V266.472C289.739 264.82 293.041 265.233 294.691 267.712C296.342 266.886 296.342 266.059 294.691 265.233L297.168 252.839L283.548 249.121H276.118L274.88 256.557C274.055 260.689 274.468 263.58 276.118 265.233H273.642V256.557L274.88 255.318V249.121ZM241.449 250.36L238.972 254.078L252.593 262.754L261.26 265.233C264.562 266.059 265.8 265.233 264.975 262.754H258.784L241.449 254.078L242.687 251.6L241.449 250.36ZM342.981 250.36L340.505 252.839L342.981 268.951L350.41 266.472C351.236 263.994 350.823 263.167 349.172 263.994C347.521 265.646 346.283 265.646 345.458 263.994C346.283 261.515 349.172 260.689 354.125 261.515V262.754C351.649 261.928 350.823 262.754 351.649 265.233L355.363 263.994H357.84C357.014 266.472 357.84 267.299 360.316 266.472L362.792 262.754L356.601 261.515V260.275C359.903 261.102 361.142 260.689 360.316 259.036L361.554 256.557L359.078 257.797L356.601 256.557L349.172 257.797L346.696 259.036L352.887 256.557L346.696 255.318L351.649 254.078V250.36H342.981ZM262.498 251.6L261.26 256.557L264.975 257.797L266.213 254.078L262.498 251.6ZM329.361 251.6V254.078L325.646 255.318L313.264 252.839V255.318L310.788 266.472L312.026 270.191L318.217 267.712H329.361L330.599 266.472C333.076 265.646 333.901 266.472 333.076 268.951H336.79L335.552 267.712L336.79 265.233C338.441 260.275 338.028 257.383 335.552 256.557C336.378 254.078 335.552 253.252 333.076 254.078V252.839L329.361 251.6ZM209.256 252.839L211.732 255.318H214.209L209.256 252.839ZM302.121 252.839V268.951L307.073 267.712V252.839H302.121ZM361.554 257.797C360.729 260.275 361.554 261.102 364.031 260.275C364.856 257.797 364.031 256.97 361.554 257.797ZM362.792 270.191L361.554 276.388V278.867L360.316 285.064L361.554 292.5H362.792V270.191ZM237.734 275.148L235.258 277.627H237.734V275.148ZM266.213 275.148V282.585L269.927 285.064L268.689 278.867L266.213 275.148ZM269.927 275.148L281.071 293.739L282.309 294.979L277.357 292.5C278.182 290.021 277.769 289.195 276.118 290.021L269.927 286.303L284.786 303.655L287.262 307.373L288.5 308.612L278.595 302.415L271.166 294.979L267.451 292.5L269.927 297.458L273.642 301.176C267.864 297.044 263.736 291.261 261.26 283.824L258.784 282.585C262.911 294.153 269.515 303.655 278.595 311.091V312.33L276.118 311.091C267.038 303.655 259.609 294.979 253.831 285.064L251.354 283.824L255.069 292.5L264.975 306.133L281.071 322.246L266.213 313.57L251.354 297.458L247.64 294.979L245.163 290.021C245.989 286.716 245.163 285.477 242.687 286.303V291.261L257.545 313.57L258.784 314.809L252.593 309.852V312.33L240.211 296.218L238.972 280.106L236.496 283.824L237.734 296.218C241.036 305.307 245.989 313.57 252.593 321.006H251.354L241.449 312.33L232.782 291.261C231.956 287.129 232.782 284.65 235.258 283.824C236.083 281.345 235.258 280.519 232.782 281.345L230.305 287.542L234.02 306.133L241.449 318.528C242.274 320.18 241.862 320.593 240.211 319.767L231.543 307.373H230.305C231.956 315.636 235.258 322.659 240.211 328.443H237.734L231.543 319.767L229.067 311.091L230.305 306.133L227.829 292.5L225.352 298.697L226.591 299.936L227.829 316.049L235.258 329.682L242.687 334.64L246.402 340.837H245.163L241.449 337.119L238.972 334.64L231.543 327.203L229.067 325.964C229.892 333.4 232.369 339.184 236.496 343.316C235.671 344.968 236.909 345.381 240.211 344.555L238.972 347.034L241.449 351.992L242.687 348.273V350.752L250.116 347.034L242.687 355.71L243.925 361.907L250.116 354.47L251.354 358.189C250.529 359.841 249.704 359.841 248.878 358.189L246.402 365.625L240.211 370.583L242.687 366.864V361.907L240.211 366.864L237.734 365.625L238.972 369.343L237.734 370.583L242.687 387.934V397.85L245.163 411.483L250.116 420.159L271.166 431.314L287.262 436.271H289.739L267.451 423.877H263.736C264.562 421.398 264.149 420.572 262.498 421.398L255.069 413.962L252.593 412.722L253.831 415.201V416.441L246.402 405.286C245.576 397.023 245.989 390.826 247.64 386.695L251.354 381.737V378.019L255.069 370.583L262.498 363.146L264.975 364.386L253.831 378.019L255.069 380.498L256.307 376.78L261.26 373.061L256.307 381.737L264.975 374.301L266.213 375.54L255.069 389.174C254.244 392.479 255.069 394.958 257.545 396.61L261.26 385.455L264.975 384.216L266.213 385.455L262.498 392.892L255.069 397.85L257.545 402.807L260.022 401.568L262.498 396.61L269.927 389.174H272.404L271.166 391.653L267.451 394.131L261.26 404.047L262.498 412.722L264.975 413.962L263.736 411.483C263.736 402.394 266.626 396.197 272.404 392.892L273.642 394.131L267.451 406.525L268.689 413.962L272.404 400.328L281.071 394.131L284.786 395.371L278.595 397.85L269.927 412.722C269.102 416.028 269.927 418.093 272.404 418.919V411.483L276.118 402.807L281.071 399.089L283.548 400.328L274.88 412.722L276.118 416.441L278.595 409.004L283.548 405.286H284.786L278.595 415.201L279.833 421.398L282.309 411.483L286.024 410.244L287.262 411.483L283.548 418.919L286.024 421.398C287.675 420.572 288.088 418.919 287.262 416.441H288.5L287.262 422.638L289.739 426.356V422.638L293.453 420.159L295.93 418.919V422.638L292.215 427.595L305.835 421.398L307.073 422.638L299.644 426.356L298.406 428.835H302.121L308.312 425.116L302.121 432.553L303.359 436.271L309.55 428.835L310.788 430.074C308.312 431.727 307.486 435.858 308.312 442.468H309.55C308.724 438.337 309.55 436.684 312.026 437.511C311.201 442.468 312.852 445.773 316.979 447.426H318.217L314.503 442.468V439.989L316.979 444.947H323.17C321.519 441.642 322.345 440.403 325.646 441.229L328.123 435.032H329.361L328.123 441.229C328.948 442.881 328.536 443.294 326.885 442.468L324.408 446.186L321.932 447.426V448.665L328.123 446.186L329.361 443.708H330.599V446.186L324.408 452.383H328.123L333.076 446.186L331.837 433.792L312.026 415.201L298.406 401.568L292.215 394.131L283.548 390.413H274.88L273.642 387.934H283.548L292.215 392.892V391.653C289.739 387.521 286.437 385.042 282.309 384.216C276.531 383.39 273.229 384.216 272.404 386.695H268.689L272.404 385.455C273.229 382.977 272.404 382.15 269.927 382.977C269.102 380.498 270.34 379.672 273.642 380.498H276.118C281.071 380.498 284.786 382.15 287.262 385.455H288.5L284.786 379.258L279.833 374.301L278.595 371.822L281.071 373.061L287.262 376.78L283.548 368.104L278.595 365.625L281.071 364.386C281.897 366.864 283.135 367.278 284.786 365.625L290.977 380.498L293.453 381.737C291.802 372.648 288.5 365.625 283.548 360.667C282.722 358.189 283.548 357.362 286.024 358.189C292.628 363.972 297.168 372.235 299.644 382.977L298.406 387.934L300.882 394.131L302.121 389.174L300.882 387.934V374.301L298.406 364.386C294.279 355.297 288.913 347.86 282.309 342.076L274.88 334.64V333.4C283.96 337.532 291.802 343.729 298.406 351.992H300.882C305.01 358.602 307.486 367.691 308.312 379.258H309.55V369.343L307.073 360.667L290.977 332.161L289.739 328.443C298.819 335.879 305.423 345.794 309.55 358.189L312.026 368.104L314.503 390.413L315.741 385.455L312.026 354.47L302.121 335.879L295.93 328.443L297.168 325.964L312.026 349.513L316.979 366.864L319.455 384.216L320.694 379.258V361.907L319.455 360.667L320.694 353.231L323.17 364.386C324.821 375.953 323.583 385.042 319.455 391.653L320.694 392.892L325.646 379.258V351.992L319.455 337.119L307.073 317.288L286.024 292.5L281.071 288.782L271.166 277.627C271.991 275.148 271.578 274.322 269.927 275.148ZM278.595 275.148L277.357 277.627L318.217 328.443L325.646 344.555L326.885 349.513L328.123 347.034L329.361 349.513L330.599 356.949C332.25 371.822 330.599 383.39 325.646 391.653L326.885 394.131L331.837 381.737C331.837 374.301 333.076 368.517 335.552 364.386C336.378 347.86 333.901 334.64 328.123 324.725L329.361 321.006L336.79 344.555V368.104L333.076 379.258L334.314 384.216L335.552 374.301L338.028 371.822L336.79 374.301L338.028 379.258C340.505 375.127 341.33 369.756 340.505 363.146H342.981L344.219 342.076L345.458 350.752L344.219 370.583L335.552 394.131L336.79 395.371L345.458 375.54L350.41 350.752C351.236 342.489 350.41 336.705 347.934 333.4L350.41 332.161L352.887 345.794L350.41 366.864L352.887 368.104L351.649 365.625L354.125 364.386L357.84 353.231V344.555L354.125 360.667H352.887L355.363 340.837L360.316 333.4L361.554 338.358L362.792 337.119V324.725L364.031 323.485L362.792 307.373L361.554 325.964L360.316 328.443L356.601 332.161L354.125 330.922L357.84 321.006L359.078 307.373L361.554 301.176V292.5C359.903 305.72 356.189 316.875 350.41 325.964C351.236 327.617 350.823 328.03 349.172 327.203L346.696 328.443L351.649 314.809L350.41 309.852L351.649 307.373L352.887 309.852V306.133H350.41L354.125 294.979V291.261L345.458 312.33L340.505 314.809L351.649 286.303V283.824L341.743 301.176L339.267 302.415L347.934 283.824L349.172 276.388L333.076 278.867H330.599L315.741 280.106L319.455 283.824L323.17 282.585L324.408 283.824L321.932 285.064L316.979 283.824L313.264 285.064C311.614 282.585 310.375 282.998 309.55 286.303L298.406 285.064L292.215 282.585L298.406 281.345L289.739 277.627L290.977 283.824L304.597 291.261L309.55 297.458L308.312 298.697L310.788 301.176C296.755 295.392 286.024 286.716 278.595 275.148ZM355.363 275.148L352.887 286.303L354.125 287.542L357.84 278.867C358.665 275.561 357.84 274.322 355.363 275.148ZM350.41 276.388L352.887 283.824L354.125 278.867C354.951 276.388 353.712 275.561 350.41 276.388ZM246.402 278.867V282.585L248.878 283.824C249.704 279.693 248.878 278.04 246.402 278.867ZM307.073 278.867L299.644 281.345L307.073 285.064L309.55 283.824L308.312 282.585V281.345L312.026 282.585H315.741C314.915 279.28 312.026 278.04 307.073 278.867ZM240.211 280.106V283.824L242.687 282.585C243.513 280.106 242.687 279.28 240.211 280.106ZM209.256 287.542L205.541 297.458L204.303 294.979L200.588 302.415C201.414 304.068 200.176 304.481 196.874 303.655L195.636 308.612H194.397L198.112 298.697V296.218L188.206 309.852H186.968L191.921 298.697V296.218L162.204 313.57C163.03 315.222 162.617 315.636 160.966 314.809L158.49 318.528L156.013 319.767L144.869 338.358L141.155 348.273L138.678 363.146V376.78L139.917 378.019L138.678 381.737L141.155 391.653C141.98 394.958 141.567 397.023 139.917 397.85C135.789 392.892 134.138 385.869 134.964 376.78H133.726C132.075 387.521 133.726 395.784 138.678 401.568L137.44 411.483H138.678C137.853 409.004 138.678 408.178 141.155 409.004L138.678 415.201L141.155 426.356L127.535 436.271C125.058 435.445 124.233 436.271 125.058 438.75L134.964 436.271L142.393 427.595L152.299 402.807L154.775 401.568L148.584 418.919L149.822 423.877L151.06 418.919L153.537 420.159L151.06 423.877L149.822 431.314L151.06 432.553L153.537 427.595V425.116C154.362 417.68 156.839 411.896 160.966 407.765L163.442 392.892H164.681C165.506 398.676 164.681 403.633 162.204 407.765L163.442 410.244C164.268 412.722 163.442 413.549 160.966 412.722L156.013 430.074L159.728 428.835L158.49 425.116L167.157 406.525H164.681C163.855 404.047 165.093 403.22 168.395 404.047L169.633 384.216V381.737L172.11 389.174L170.872 407.765L162.204 427.595L167.157 425.116L169.633 421.398C171.284 417.267 172.935 416.441 174.586 418.919L180.777 405.286V391.653L179.539 390.413L180.777 387.934L174.586 366.864L170.872 360.667L175.824 334.64L177.063 356.949L179.539 365.625H180.777L178.301 353.231L179.539 347.034L183.254 361.907C182.428 363.559 183.254 363.972 185.73 363.146L188.206 370.583H189.445V363.146L185.73 353.231C187.381 347.447 186.968 344.142 184.492 343.316C183.666 340.011 184.492 337.945 186.968 337.119L188.206 339.597L189.445 333.4L190.683 337.119L189.445 340.837V349.513L191.921 359.428L209.256 385.455L215.447 390.413L198.112 363.146L193.159 351.992L194.397 342.076L196.874 358.189L199.35 359.428L198.112 355.71L199.35 347.034C200.176 358.602 203.89 368.104 210.494 375.54L221.638 385.455L206.779 365.625L201.827 344.555L203.065 338.358L211.732 369.343L215.447 371.822L209.256 354.47L210.494 347.034C212.145 356.949 215.034 365.625 219.161 373.061L221.638 374.301L215.447 359.428L210.494 335.879L211.732 330.922L217.923 360.667L226.591 379.258L229.067 380.498L220.4 361.907L215.447 343.316L216.685 337.119L224.114 363.146H225.352L219.161 342.076L220.4 338.358L230.305 371.822H231.543L227.829 355.71V347.034L224.114 334.64L222.876 338.358H221.638L222.876 334.64V330.922L221.638 333.4H220.4L221.638 329.682L219.161 323.485L220.4 314.809L224.114 332.161L226.591 330.922L227.829 340.837L234.02 353.231L236.496 354.47L235.258 347.034L224.114 322.246C224.94 318.114 224.114 316.462 221.638 317.288L220.4 312.33L222.876 298.697V293.739L221.638 297.458L220.4 293.739L217.923 301.176V333.4L212.97 316.049L214.209 309.852V307.373L216.685 299.936V294.979C214.209 295.805 213.383 297.871 214.209 301.176H212.97L214.209 293.739C215.034 291.261 214.209 290.434 211.732 291.261L208.018 311.091L209.256 314.809C210.081 317.288 209.256 318.114 206.779 317.288L205.541 314.809C203.89 304.068 205.128 296.218 209.256 291.261V287.542ZM227.829 287.542L229.067 290.021C229.892 287.542 229.48 286.716 227.829 287.542ZM224.114 288.782L220.4 290.021L221.638 293.739V291.261L226.591 290.021L224.114 288.782ZM177.063 290.021L168.395 292.5V293.739L173.348 292.5L182.015 293.739L180.777 292.5L183.254 291.261L177.063 290.021ZM194.397 290.021L191.921 293.739L199.35 292.5L200.588 290.021L198.112 291.261L194.397 290.021ZM188.206 291.261V292.5H190.683L188.206 291.261ZM105.247 293.739L86.674 302.415L76.7684 313.57C85.8485 303.655 99.056 297.458 116.391 294.979C123.82 294.979 129.598 296.631 133.726 299.936H134.964L125.058 293.739H105.247ZM179.539 294.979L167.157 301.176C163.855 302.828 163.03 304.481 164.681 306.133L162.204 304.894L157.251 308.612L143.631 323.485L144.869 325.964L141.155 332.161L142.393 334.64L153.537 316.049H156.013L173.348 301.176L184.492 296.218L182.015 294.979H179.539ZM305.835 294.979L307.073 297.458H308.312L305.835 294.979ZM116.391 297.458V298.697H117.629L116.391 297.458ZM120.105 297.458L121.344 299.936L131.249 303.655H132.487L120.105 297.458ZM162.204 297.458L152.299 306.133L141.155 319.767H143.631L147.346 313.57L160.966 302.415C160.14 299.936 160.966 299.11 163.442 299.936C164.268 297.458 163.855 296.631 162.204 297.458ZM364.031 298.697L361.554 304.894L364.031 306.133V298.697ZM97.8178 302.415L95.3414 303.655L94.1032 306.133L97.8178 304.894V302.415ZM107.723 303.655C96.9923 306.96 88.7376 312.744 82.9594 321.006L84.1976 322.246C89.9758 313.157 99.056 307.373 111.438 304.894C116.391 303.242 119.693 303.655 121.344 306.133H126.296C121.344 303.655 115.153 302.828 107.723 303.655ZM365.269 307.373V311.091L367.745 312.33L366.507 309.852C367.333 307.373 366.92 306.547 365.269 307.373ZM111.438 309.852L99.056 316.049C92.4522 321.006 87.9122 328.03 85.4358 337.119C85.4358 347.034 83.7848 355.297 80.483 361.907L81.7212 364.386C85.023 356.123 87.0867 346.621 87.9122 335.879L97.8178 318.528L107.723 313.57H115.153L111.438 312.33V309.852ZM86.674 311.091V313.57L89.1504 312.33L86.674 311.091ZM117.629 311.091V312.33L123.82 313.57L125.058 311.091L122.582 312.33L117.629 311.091ZM128.773 311.091L126.296 313.57C125.471 315.222 126.296 315.636 128.773 314.809V311.091ZM75.5302 313.57L71.8156 318.528L75.5302 316.049V313.57ZM84.1976 313.57L76.7684 324.725H79.2448L86.674 314.809L84.1976 313.57ZM116.391 314.809L108.962 318.528C101.532 324.311 95.7541 331.748 91.6268 340.837L86.674 356.949L85.4358 371.822L79.2448 387.934C74.292 393.718 66.8628 397.436 56.9572 399.089V400.328C64.3864 399.502 70.5774 397.436 75.5302 394.131L84.1976 382.977L87.9122 371.822L90.3886 350.752C92.0395 341.663 95.3414 334.64 100.294 329.682C104.421 323.072 110.612 318.528 118.867 316.049L116.391 314.809ZM370.222 314.809C368.571 317.288 368.983 318.941 371.46 319.767C369.809 324.725 370.222 328.03 372.698 329.682C374.349 341.25 373.524 350.752 370.222 358.189H368.983C371.46 351.578 371.873 343.316 370.222 333.4V330.922L367.745 316.049L365.269 332.161L360.316 344.555L359.078 364.386C355.776 367.691 353.712 372.235 352.887 378.019L350.41 379.258L352.887 381.737L355.363 379.258V375.54L364.031 359.428L367.745 338.358L368.983 343.316L366.507 360.667L364.031 365.625L365.269 368.104C373.524 360.667 377.238 347.86 376.413 329.682L377.651 349.513L378.889 345.794C380.54 340.011 380.127 336.705 377.651 335.879C378.476 329.269 377.651 326.377 375.174 327.203C375.174 321.419 373.524 317.288 370.222 314.809ZM139.917 321.006L133.726 328.443L134.964 330.922L139.917 323.485V321.006ZM80.483 324.725L74.292 333.4C74.292 342.489 72.2283 349.926 68.101 355.71L69.3392 358.189L73.0538 349.513L76.7684 333.4L80.483 327.203V324.725ZM133.726 330.922L126.296 359.428L128.773 390.413L132.487 395.371H133.726L131.249 390.413C132.9 384.629 132.487 381.324 130.011 380.498V348.273L133.726 339.597V330.922ZM138.678 330.922L137.44 333.4H138.678V330.922ZM68.101 332.161L66.8628 334.64H68.101V332.161ZM137.44 333.4L136.202 337.119H137.44V333.4ZM71.8156 334.64L69.3392 337.119L70.5774 339.597L71.8156 337.119V334.64ZM141.155 334.64L139.917 338.358H141.155V334.64ZM381.365 338.358L380.127 342.076H381.365V338.358ZM69.3392 339.597L66.8628 343.316H69.3392V339.597ZM138.678 340.837L137.44 343.316H138.678V340.837ZM139.917 345.794L137.44 349.513H139.917V345.794ZM133.726 347.034C132.075 351.165 131.662 357.362 132.487 365.625L131.249 366.864L132.487 376.78L133.726 368.104V356.949L136.202 349.513C137.027 347.034 136.202 346.208 133.726 347.034ZM99.056 349.513L96.5796 356.949L99.056 355.71V349.513ZM380.127 349.513L375.174 360.667L370.222 363.146L365.269 371.822C366.094 373.475 365.682 373.888 364.031 373.061L361.554 376.78L360.316 379.258L366.507 375.54L380.127 355.71V353.231V349.513ZM138.678 350.752L137.44 354.47H138.678V350.752ZM137.44 354.47L136.202 360.667H137.44V354.47ZM174.586 355.71V356.949H175.824L174.586 355.71ZM173.348 358.189L175.824 365.625H177.063L175.824 360.667C176.65 358.189 175.824 357.362 173.348 358.189ZM235.258 358.189L234.02 364.386L237.734 363.146C238.56 359.015 237.734 357.362 235.258 358.189ZM381.365 358.189V360.667L383.842 359.428L381.365 358.189ZM69.3392 359.428L68.101 361.907H69.3392V359.428ZM97.8178 360.667C97.8178 369.756 96.5796 378.019 94.1032 385.455L86.674 397.85C81.7212 403.633 75.1174 406.939 66.8628 407.765L68.101 410.244L85.4358 402.807C90.3886 397.85 94.1032 392.066 96.5796 385.455L99.056 371.822L97.8178 360.667ZM68.101 361.907L66.8628 364.386H68.101V361.907ZM134.964 361.907L136.202 374.301L137.44 363.146L134.964 361.907ZM380.127 361.907L359.078 386.695L367.745 379.258C369.396 380.085 369.809 379.672 368.983 378.019L375.174 371.822H377.651C380.953 370.169 381.365 368.93 378.889 368.104L380.127 364.386V361.907ZM80.483 364.386L79.2448 366.864H80.483V364.386ZM194.397 364.386L193.159 368.104V370.583C197.286 380.498 203.477 388.761 211.732 395.371H212.97C203.89 387.108 197.699 376.78 194.397 364.386ZM65.6246 366.864L64.3864 369.343H65.6246V366.864ZM350.41 366.864V370.583C352.887 369.756 352.887 368.517 350.41 366.864ZM79.2448 368.104L78.0066 370.583H79.2448V368.104ZM180.777 368.104L182.015 379.258L184.492 380.498L180.777 368.104ZM383.842 369.343L381.365 371.822L382.604 373.061L385.08 371.822C385.906 369.343 385.493 368.517 383.842 369.343ZM78.0066 370.583L73.0538 379.258C67.2755 385.869 59.0208 390.413 48.2898 392.892V394.131C58.1954 393.305 66.0373 390 71.8156 384.216L78.0066 374.301V370.583ZM190.683 370.583L188.206 373.061L191.921 381.737L194.397 382.977L190.683 370.583ZM216.685 371.822L215.447 374.301H216.685V371.822ZM222.876 374.301L221.638 376.78H222.876V374.301ZM231.543 374.301L234.02 381.737C233.194 384.216 234.02 385.042 236.496 384.216L232.782 376.78C233.607 374.301 233.194 373.475 231.543 374.301ZM380.127 376.78L372.698 385.455L375.174 384.216L376.413 385.455L372.698 390.413C373.524 392.892 372.698 393.718 370.222 392.892L368.983 397.85L370.222 399.089C373.524 396.61 375.174 392.892 375.174 387.934C378.476 384.629 383.429 382.564 390.033 381.737L386.318 379.258L381.365 380.498L378.889 381.737C378.064 379.258 379.302 378.432 382.604 379.258C383.429 376.78 382.604 375.953 380.127 376.78ZM185.73 380.498L184.492 384.216H185.73V380.498ZM294.691 381.737L293.453 384.216H294.691V381.737ZM186.968 384.216L185.73 386.695H186.968V384.216ZM196.874 384.216C195.223 386.695 195.636 387.521 198.112 386.695L196.874 384.216ZM295.93 384.216L294.691 386.695H295.93V384.216ZM386.318 384.216L383.842 385.455L372.698 401.568C371.873 403.22 372.698 403.633 375.174 402.807L377.651 397.85C380.953 392.892 385.906 389.587 392.509 387.934L393.747 389.174L382.604 396.61L383.842 397.85L392.509 391.653L396.224 392.892L388.795 395.371L383.842 401.568C387.144 403.22 387.144 404.873 383.842 406.525L386.318 413.962V411.483V409.004L387.556 405.286L393.747 401.568H394.986L388.795 409.004L387.556 415.201C386.731 416.854 387.969 417.267 391.271 416.441L393.747 418.919L391.271 413.962L393.747 407.765L398.7 409.004H397.462C393.335 410.657 392.922 412.309 396.224 413.962C398.7 414.788 399.526 414.375 398.7 412.722L403.653 410.244L401.177 413.962H403.653L402.415 418.919L406.129 425.116V422.638C407.78 418.506 409.431 418.093 411.082 421.398L409.844 423.877C409.019 426.356 409.844 427.182 412.32 426.356C411.495 421.398 413.146 418.093 417.273 416.441V418.919L419.75 420.159L417.273 421.398C415.622 419.746 414.384 420.159 413.559 422.638L416.035 432.553L418.511 433.792L417.273 427.595L418.511 425.116L419.75 427.595V426.356C421.401 422.225 423.051 421.811 424.702 425.116L423.464 431.314V433.792C422.639 435.445 423.464 435.858 425.941 435.032L424.702 433.792L425.941 426.356L429.655 428.835L428.417 431.314C427.592 437.924 429.655 442.055 434.608 443.708H435.846L432.132 437.511L434.608 426.356L435.846 441.229L442.037 444.947L450.705 438.75L445.752 426.356L438.323 417.68L423.464 412.722L412.32 404.047L409.844 401.568L406.129 397.85L402.415 392.892H401.177V391.653C397.875 387.521 392.922 385.042 386.318 384.216ZM370.222 385.455L367.745 390.413L370.222 389.174V385.455ZM253.831 386.695L251.354 389.174L252.593 392.892L253.831 389.174V386.695ZM182.015 387.934L183.254 394.131L182.015 400.328L183.254 406.525L184.492 404.047C186.143 395.784 185.317 390.413 182.015 387.934ZM199.35 387.934V391.653L203.065 392.892L200.588 390.413C201.414 387.934 201.001 387.108 199.35 387.934ZM367.745 390.413L365.269 394.131L367.745 392.892V390.413ZM44.5752 394.131V395.371H47.0516L44.5752 394.131ZM252.593 394.131L251.354 401.568L253.831 400.328C254.656 397.023 254.244 394.958 252.593 394.131ZM354.125 394.131L351.649 397.85L354.125 396.61V394.131ZM131.249 395.371L130.011 409.004L120.105 432.553H122.582L126.296 423.877V426.356L133.726 420.159V422.638L123.82 433.792L136.202 428.835L139.917 423.877L136.202 418.919L137.44 413.962C138.266 411.483 137.44 410.657 134.964 411.483L136.202 409.004C133.726 405.699 132.9 401.568 133.726 396.61L131.249 395.371ZM214.209 395.371L220.4 402.807H221.638L214.209 395.371ZM196.874 396.61L200.588 402.807C199.763 404.46 202.652 404.873 209.256 404.047L210.494 407.765L221.638 415.201H225.352V412.722L229.067 413.962H232.782L224.114 410.244L221.638 411.483L214.209 407.765L211.732 402.807L203.065 401.568L196.874 396.61ZM54.4808 400.328L53.2426 402.807H54.4808V400.328ZM190.683 400.328C186.555 412.722 180.777 423.464 173.348 432.553H175.824C182.428 425.943 187.381 417.267 190.683 406.525V400.328ZM367.745 401.568C365.269 402.394 364.443 404.873 365.269 409.004L367.745 410.244L366.507 407.765L367.745 404.047V401.568ZM182.015 406.525L180.777 409.004H182.015V406.525ZM221.638 406.525L222.876 409.004H225.352L221.638 406.525ZM341.743 406.525L342.981 407.765L344.219 409.004C345.045 406.525 344.219 405.699 341.743 406.525ZM370.222 406.525V409.004L373.936 410.244V409.004L370.222 406.525ZM377.651 407.765L375.174 411.483H377.651V407.765ZM64.3864 409.004L52.0044 412.722V413.962C58.6081 414.788 63.1482 413.549 65.6246 410.244L64.3864 409.004ZM355.363 409.004V410.244H356.601L355.363 409.004ZM257.545 410.244L256.307 413.962H257.545V410.244ZM380.127 411.483C379.302 413.962 380.127 414.788 382.604 413.962C383.429 411.483 382.604 410.657 380.127 411.483ZM234.02 413.962V415.201H236.496L234.02 413.962ZM399.938 413.962L397.462 416.441L398.7 418.919L401.177 415.201L399.938 413.962ZM366.507 416.441L362.792 418.919L366.507 420.159H367.745L366.507 416.441ZM274.88 420.159L273.642 422.638L276.118 423.877L274.88 420.159ZM367.745 420.159V422.638L377.651 426.356H380.127L367.745 420.159ZM381.365 421.398L386.318 426.356C392.922 426.356 398.287 428.008 402.415 431.314H407.368L403.653 428.835C402.002 425.53 400.764 425.116 399.938 427.595L387.556 425.116L381.365 421.398ZM147.346 422.638L143.631 428.835L141.155 432.553L144.869 431.314L148.584 426.356L147.346 422.638ZM281.071 426.356L279.833 428.835H281.071V426.356ZM408.606 426.356L407.368 430.074H409.844L408.606 426.356ZM422.226 426.356L420.988 431.314H422.226V426.356ZM413.559 428.835L412.32 432.553H413.559V428.835ZM148.584 430.074L143.631 435.032L132.487 439.989L133.726 442.468L137.44 439.989L136.202 443.708L147.346 437.511L146.108 436.271L148.584 432.553V430.074ZM112.676 432.553L104.009 436.271L96.5796 444.947L97.8178 454.862L101.532 446.186L100.294 448.665L101.532 456.102L104.009 457.341L102.771 446.186L105.247 444.947L104.009 447.426L105.247 454.862L107.723 456.102L106.485 452.383L107.723 441.229L113.914 435.032L112.676 432.553ZM159.728 432.553V433.792H160.966L159.728 432.553ZM293.453 432.553L292.215 435.032H293.453V432.553ZM409.844 432.553V435.032L412.32 433.792L409.844 432.553ZM156.013 433.792L148.584 438.75L146.108 442.468L157.251 435.032L156.013 433.792ZM294.691 435.032L293.453 437.511L298.406 441.229L294.691 435.032ZM305.835 435.032L303.359 438.75L305.835 437.511V435.032ZM290.977 436.271V437.511H292.215L290.977 436.271ZM111.438 437.511L107.723 447.426C106.898 451.557 108.136 454.449 111.438 456.102H112.676L110.2 448.665C112.676 447.839 113.502 449.078 112.676 452.383H115.153C114.327 455.689 115.565 458.167 118.867 459.82C118.042 461.472 118.867 461.886 121.344 461.059L115.153 451.144V446.186L117.629 444.947L116.391 447.426L120.105 456.102L122.582 457.341L120.105 451.144L121.344 444.947L122.582 452.383H126.296H127.535L123.82 446.186L130.011 444.947L128.773 441.229L126.296 439.989L121.344 441.229H116.391L118.867 439.989L120.105 437.511L116.391 438.75L113.914 442.468H111.438L113.914 438.75L111.438 437.511ZM167.157 437.511V438.75H168.395L167.157 437.511ZM158.49 439.989L157.251 442.468L159.728 441.229L158.49 439.989ZM427.179 439.989L434.608 448.665H442.037C441.212 446.186 440.386 445.773 439.561 447.426L429.655 442.468C430.481 439.989 429.655 439.163 427.179 439.989ZM142.393 442.468C142.393 445.773 143.218 446.186 144.869 443.708L142.393 442.468ZM308.312 442.468L307.073 444.947H308.312V442.468ZM132.487 443.708L130.011 448.665H137.44L133.726 447.426L134.964 444.947L132.487 443.708ZM151.06 443.708L149.822 446.186L152.299 444.947L151.06 443.708ZM424.702 443.708L425.941 446.186C426.766 443.708 426.353 442.881 424.702 443.708ZM138.678 446.186V447.426H141.155L138.678 446.186ZM449.466 447.426L443.275 454.862L448.228 456.102H449.466L448.228 453.623L451.943 454.862L449.466 447.426ZM141.155 448.665V451.144L144.869 449.905L141.155 448.665ZM139.917 449.905L137.44 452.383H139.917V449.905ZM314.503 451.144L318.217 457.341H316.979L318.217 459.82L323.17 456.102C324.821 456.928 325.234 456.102 324.408 453.623L314.503 451.144ZM198.112 452.383L196.874 456.102C196.048 457.754 196.874 458.167 199.35 457.341L200.588 454.862C201.414 452.383 200.588 451.557 198.112 452.383ZM237.734 452.383L232.782 454.862H237.734V452.383ZM230.305 454.862V456.102H232.782L230.305 454.862ZM113.914 456.102L115.153 458.58C115.978 456.102 115.565 455.275 113.914 456.102ZM308.312 456.102L309.55 458.58L312.026 457.341L308.312 456.102ZM438.323 456.102L439.561 458.58H440.799L438.323 456.102ZM450.705 456.102V458.58L448.228 459.82L451.943 464.778L450.705 467.256L451.943 473.453L455.657 475.932C454.832 473.453 455.657 472.627 458.134 473.453L453.181 480.89C454.006 482.542 455.245 482.542 456.896 480.89L459.372 482.129C458.547 484.608 455.657 485.847 450.705 485.847L455.657 487.087L458.134 485.847L463.087 487.087L458.134 488.326L455.657 493.284L453.181 492.044L454.419 494.523C459.372 495.35 462.674 494.523 464.325 492.044L463.087 494.523C460.61 493.697 459.785 494.523 460.61 497.002L456.896 499.481L464.325 501.96H468.039C467.214 499.481 468.452 498.655 471.754 499.481L472.992 495.763L471.754 485.847H470.516L468.039 482.129C466.388 477.998 465.15 477.172 464.325 479.65V478.411L459.372 467.256L453.181 469.735C452.356 466.43 454.006 465.604 458.134 467.256L455.657 463.538C456.483 460.233 455.245 459.407 451.943 461.059V459.82C454.419 460.646 455.245 460.233 454.419 458.58L450.705 456.102ZM194.397 457.341L191.921 463.538L184.492 469.735L185.73 472.214L186.968 469.735L191.921 470.975L190.683 467.256L195.636 463.538L194.397 462.299L196.874 458.58L194.397 457.341ZM226.591 457.341L219.161 458.58V459.82C224.114 460.646 227.416 460.233 229.067 458.58L226.591 457.341ZM198.112 458.58L196.874 462.299H198.112V458.58ZM321.932 458.58L315.741 461.059L318.217 464.778L324.408 463.538L320.694 462.299L325.646 459.82L321.932 458.58ZM446.99 458.58C445.339 461.059 445.752 462.712 448.228 463.538H449.466L446.99 458.58ZM229.067 459.82L219.161 462.299L220.4 464.778L226.591 463.538L230.305 461.059L229.067 459.82ZM199.35 464.778L198.112 467.256H199.35V464.778ZM312.026 464.778L310.788 467.256L318.217 470.975C320.694 471.801 321.106 470.561 319.455 467.256H321.932V466.017L316.979 467.256L312.026 464.778ZM193.159 466.017L191.921 468.496H193.159V466.017ZM219.161 466.017V467.256H220.4L219.161 466.017ZM308.312 466.017L307.073 474.693L304.597 477.172V483.369L302.121 485.847L304.597 495.763L312.026 501.96H314.503C315.328 499.481 314.503 498.655 312.026 499.481L310.788 497.002L315.741 499.481L316.979 492.044L310.788 489.566L312.026 485.847H310.788L307.073 482.129L309.55 474.693L313.264 482.129L312.026 480.89L310.788 483.369L316.979 487.087L318.217 479.65L314.503 477.172L308.312 466.017ZM448.228 467.256L449.466 469.735C450.292 467.256 449.879 466.43 448.228 467.256ZM208.018 468.496L209.256 469.735L212.97 474.693L216.685 469.735L208.018 468.496ZM313.264 470.975L316.979 474.693C317.805 476.345 318.63 476.345 319.455 474.693L313.264 470.975ZM186.968 472.214V477.172H189.445L186.968 472.214ZM209.256 472.214L208.018 474.693H209.256V472.214ZM112.676 473.453L113.914 475.932H115.153L112.676 473.453ZM194.397 473.453L195.636 475.932C196.461 473.453 196.048 472.627 194.397 473.453ZM110.2 474.693L108.962 477.172L113.914 479.65L110.2 474.693ZM182.015 474.693L183.254 479.65L190.683 484.608H191.921L188.206 480.89L184.492 477.172C185.317 474.693 184.492 473.866 182.015 474.693ZM445.752 474.693C444.101 478.824 444.514 482.129 446.99 484.608C446.165 490.392 446.99 492.871 449.466 492.044L448.228 489.566L449.466 487.087L445.752 474.693ZM195.636 477.172V478.411H196.874L195.636 477.172ZM108.962 479.65L107.723 482.129L112.676 485.847L108.962 479.65ZM102.771 480.89V495.763L100.294 500.72L101.532 509.396L99.056 508.157L97.8178 510.636C98.6432 512.288 99.8814 512.288 101.532 510.636L102.771 518.072L111.438 524.269C114.74 525.095 115.978 524.269 115.153 521.79L108.962 520.551L102.771 514.354L104.009 510.636L106.485 516.833L112.676 520.551H113.914L107.723 515.593L105.247 510.636L110.2 513.114L112.676 511.875L113.914 513.114L111.438 490.805V488.326C112.263 485.847 111.851 485.021 110.2 485.847H107.723C106.898 489.153 107.723 490.392 110.2 489.566C111.025 492.044 110.612 492.871 108.962 492.044L105.247 488.326V485.847C106.072 481.716 105.247 480.064 102.771 480.89ZM300.882 487.087V500.72L310.788 506.917L313.264 505.678L305.835 499.481L300.882 487.087ZM290.977 488.326L289.739 492.044V497.002L295.93 511.875L300.882 515.593L292.215 499.481C291.39 494.523 291.802 491.631 293.453 490.805C294.279 488.326 293.453 487.5 290.977 488.326ZM297.168 488.326L294.691 490.805C293.041 500.72 295.104 507.33 300.882 510.636H302.121L298.406 505.678L304.597 509.396H307.073L305.835 508.157L298.406 500.72L297.168 488.326ZM199.35 493.284L201.827 503.199C203.477 505.678 204.716 505.678 205.541 503.199L199.35 493.284ZM449.466 493.284C447.815 495.763 448.228 496.589 450.705 495.763L449.466 493.284ZM115.153 495.763L113.914 498.241H115.153V495.763ZM210.494 500.72L215.447 506.917H216.685L210.494 500.72ZM205.541 504.439C203.89 506.917 204.303 507.744 206.779 506.917L205.541 504.439ZM100.294 505.678L99.056 508.157H100.294V505.678ZM209.256 505.678V510.636L219.161 515.593V513.114L209.256 505.678ZM468.039 506.917V509.396L466.801 508.157L461.848 510.636L469.278 511.875L470.516 509.396V511.875C472.992 512.701 473.818 512.288 472.992 510.636L468.039 506.917ZM284.786 508.157L283.548 513.114L286.024 520.551L289.739 523.03L284.786 508.157ZM274.88 509.396L276.118 511.875C276.944 509.396 276.531 508.57 274.88 509.396ZM308.312 509.396V510.636H309.55L308.312 509.396ZM96.5796 510.636L94.1032 514.354L95.3414 521.79L99.056 524.269L96.5796 519.311L97.8178 513.114L101.532 524.269L107.723 526.748H110.2L108.962 525.508C104.009 523.856 101.12 520.138 100.294 514.354L96.5796 510.636ZM271.166 511.875V514.354L273.642 513.114L271.166 511.875ZM282.309 511.875C280.659 516.833 281.071 520.964 283.548 524.269L284.786 521.79L282.309 511.875ZM474.23 511.875L472.992 514.354L468.039 513.114L461.848 514.354L471.754 518.072L475.469 515.593L474.23 511.875ZM269.927 513.114L264.975 524.269L266.213 525.508V535.424L269.927 542.86H272.404L267.451 532.945C266.626 525.508 267.451 520.138 269.927 516.833V513.114ZM274.88 514.354L271.166 519.311L269.927 526.748C269.102 534.184 271.166 539.555 276.118 542.86H277.357L273.642 539.142C275.293 534.184 274.88 531.292 272.404 530.466L273.642 524.269L277.357 536.663H281.071C276.118 531.705 274.055 524.269 274.88 514.354ZM211.732 515.593V518.072L216.685 519.311H220.4C219.574 521.79 220.4 522.616 222.876 521.79L221.638 518.072H220.4L211.732 515.593ZM293.453 516.833C291.802 519.311 292.215 520.138 294.691 519.311L293.453 516.833ZM278.595 518.072L276.118 520.551L278.595 529.227L284.786 534.184H287.262L286.024 532.945L281.071 529.227L278.595 518.072ZM458.134 518.072L459.372 523.03L469.278 527.987H475.469L463.087 521.79C460.61 522.616 459.785 522.203 460.61 520.551L458.134 518.072ZM206.779 519.311L204.303 524.269L206.779 525.508V519.311ZM294.691 520.551L295.93 523.03C296.755 520.551 296.342 519.725 294.691 520.551ZM469.278 520.551C468.452 523.856 470.929 524.682 476.707 523.03C477.532 520.551 475.056 519.725 469.278 520.551ZM211.732 521.79C212.558 526.748 217.098 529.227 225.352 529.227L226.591 530.466L224.114 523.03L221.638 524.269L211.732 521.79ZM284.786 524.269L283.548 526.748H284.786V524.269ZM446.99 524.269V535.424C452.768 542.86 462.261 547.405 475.469 549.057V547.818C472.167 548.644 470.929 547.818 471.754 545.339C463.499 545.339 457.308 542.86 453.181 537.903L448.228 532.945L446.99 524.269ZM453.181 524.269L455.657 530.466L471.754 536.663C473.405 537.489 473.818 536.663 472.992 534.184H468.039C463.912 529.227 458.959 525.922 453.181 524.269ZM101.532 525.508L100.294 527.987L107.723 531.705H111.438L115.153 529.227V526.748L111.438 529.227C105.66 530.053 102.358 528.814 101.532 525.508ZM212.97 526.748L211.732 527.987C207.605 527.161 205.954 527.987 206.779 530.466L217.923 534.184H222.876C225.352 535.011 226.178 534.597 225.352 532.945C224.527 530.466 223.701 530.053 222.876 531.705C217.923 531.705 214.621 530.053 212.97 526.748ZM80.483 529.227V530.466H81.7212L80.483 529.227ZM451.943 530.466L450.705 532.945L459.372 539.142H463.087L451.943 530.466ZM81.7212 531.705L79.2448 534.184C78.4193 540.794 79.2448 545.752 81.7212 549.057L91.6268 556.494L81.7212 542.86V531.705ZM76.7684 534.184L74.292 536.663C72.641 546.578 73.8792 554.015 78.0066 558.972L81.7212 561.451L76.7684 552.775L78.0066 546.578L76.7684 534.184ZM90.3886 535.424C89.5631 538.729 90.3886 540.794 92.865 541.621V540.381L97.8178 542.86H99.056L90.3886 535.424ZM84.1976 537.903L86.674 547.818L92.865 551.536H94.1032L86.674 541.621C87.4994 538.316 86.674 537.076 84.1976 537.903ZM464.325 539.142V540.381L471.754 541.621C472.579 543.273 473.405 543.273 474.23 541.621C471.754 539.142 468.452 538.316 464.325 539.142ZM94.1032 541.621L96.5796 545.339V544.1L94.1032 541.621ZM222.876 541.621C222.05 544.926 222.876 546.165 225.352 545.339C226.178 542.034 225.352 540.794 222.876 541.621ZM215.447 542.86V544.1H216.685L215.447 542.86ZM206.779 544.1L208.018 550.297C210.494 555.254 215.034 558.559 221.638 560.212H224.114L216.685 555.254L206.779 544.1ZM217.923 544.1L224.114 550.297L225.352 546.578L217.923 544.1ZM204.303 545.339L203.065 549.057L208.018 558.972L220.4 566.409H224.114L215.447 561.451L204.303 545.339ZM211.732 545.339C213.383 549.47 217.098 552.775 222.876 555.254C224.527 556.08 224.94 555.254 224.114 552.775L211.732 545.339ZM79.2448 547.818L78.0066 551.536L82.9594 561.451L89.1504 566.409L84.1976 560.212H86.674H87.9122L79.2448 547.818ZM200.588 549.057L203.065 561.451C206.367 565.583 210.907 568.475 216.685 570.127H219.161L212.97 566.409C208.018 563.104 204.303 558.146 201.827 551.536C202.652 549.057 202.239 548.231 200.588 549.057ZM196.874 556.494L195.636 563.93L200.588 572.606L210.494 578.803H214.209L206.779 573.845C201.001 570.54 197.699 564.756 196.874 556.494ZM201.827 557.733L200.588 560.212H201.827V557.733ZM210.494 568.888C210.494 572.193 212.97 574.258 217.923 575.085C218.749 576.737 219.574 576.737 220.4 575.085L210.494 568.888ZM220.4 570.127V571.366H221.638L220.4 570.127Z" fill="#090909"/>
<path opacity="0.996078" d="M300.297 13.5417L311.458 13.9931C306.556 15.7385 299.771 16.1899 291.105 15.3473L289.792 16.2501L291.105 14.4445C295.919 15.3473 298.983 15.0464 300.297 13.5417Z" fill="#090909"/>
<path opacity="0.996078" d="M317.054 11.7664C329.067 9.63402 337.619 11.1572 342.707 16.3358L343.959 21.6668L342.082 20.9053L323.937 18.6205L340.205 17.0974L325.814 13.2896H323.311C318.306 14.6096 316.22 14.1019 317.054 11.7664Z" fill="#090909"/>
<path opacity="0.996078" d="M249.583 65H258.958V69.4608H260.208L260.833 67.549L262.708 79.6569L258.333 85.3922L252.083 86.6667L247.708 83.4804L246.458 70.7353L249.583 65ZM257.708 66.2745L256.458 68.8235H257.708V66.2745ZM252.708 81.5686V82.8431H253.958L252.708 81.5686Z" fill="#090909"/>
<path opacity="0.996078" d="M286.424 167.917L287.083 171.042L285.766 175.417C282.516 176.667 281.198 176.042 281.813 173.542L286.424 167.917Z" fill="#090909"/>
<path opacity="0.996078" d="M298.593 173.333L303.333 176.235C300.173 177.396 299.722 178.557 301.979 179.717L301.302 181.458L295.208 177.976L295.885 174.494L299.948 175.655V174.494L298.593 173.333Z" fill="#090909"/>
<path opacity="0.996078" d="M341.057 278.958L343.958 279.539L341.637 284.182L342.798 286.503L336.414 295.208L335.833 293.467L340.476 286.503C338.542 285.342 338.929 284.182 341.637 283.021L341.057 281.28L339.316 281.86L341.057 278.958Z" fill="#090909"/>
<path opacity="0.996078" d="M167.916 314.167L164.845 318.53L157.474 328.504V332.244L148.874 348.451L145.188 362.164L143.345 392.708C140.806 388.636 140.192 382.61 141.502 374.631C143.796 373.135 144.205 369.811 142.731 364.658L150.102 338.477H147.645L153.174 330.374L155.016 330.997C157.719 323.766 162.019 318.156 167.916 314.167ZM153.788 331.62L151.331 335.361L153.788 334.114V331.62ZM151.331 335.361L150.102 337.854H151.331V335.361Z" fill="#090909"/>
<path opacity="0.996078" d="M298.518 314.167L308.749 329.792L306.944 330.417L297.916 316.042L298.518 314.167Z" fill="#090909"/>
<path opacity="0.996078" d="M186.198 319.583L186.875 321.256C184.347 325.122 183.445 330.327 184.167 336.869L182.136 338.542L181.458 331.293L182.813 327.947V325.717C182.181 322.223 183.309 320.178 186.198 319.583Z" fill="#090909"/>
<path opacity="0.996078" d="M254.583 322.292L265.416 330.417L261.805 328.542L255.305 325.417L254.583 322.292Z" fill="#090909"/>
<path opacity="0.996078" d="M241.042 325L254.133 332.981C255.143 335.376 254.454 336.262 252.066 335.642L241.731 328.991L241.042 325Z" fill="#090909"/>
<path opacity="0.996078" d="M308.75 330.417L316.875 341.25L313.92 339.976L308.75 330.417Z" fill="#090909"/>
<path opacity="0.996078" d="M156.591 335.833L157.083 338.049L151.667 352.083L152.159 349.867L156.591 335.833Z" fill="#090909"/>
<path opacity="0.996078" d="M159.039 343.958L159.792 346.968L153.773 355.393C153.974 361.572 152.469 366.387 149.259 369.838L147.002 387.292L146.25 371.042L150.764 355.393L159.039 343.958Z" fill="#090909"/>
<path opacity="0.996078" d="M274.083 343.958L278.958 346.215L277.333 346.667L273.542 345.764L274.083 343.958Z" fill="#090909"/>
<path opacity="0.996078" d="M265.417 352.083L264.76 353.889L260.16 359.305L255.561 362.315L254.247 364.722L256.875 365.926L254.904 366.528C253.853 364.762 252.757 364.963 251.619 367.13L252.933 370.741L245.705 384.583C243.34 383.62 243.121 382.617 245.048 381.574V377.963L250.304 369.537L246.362 371.944L245.705 373.75L245.048 370.741L258.846 355.694L265.417 352.083Z" fill="#090909"/>
<path opacity="0.996078" d="M170.198 365.625L177.61 381.424L178.75 406.701L177.04 409.861L175.899 407.333C174.759 414.074 172.098 419.13 167.917 422.5L169.628 419.34L176.47 400.382V392.799L175.329 389.007V386.479C174.797 379.064 172.897 373.166 169.628 368.785L170.198 365.625Z" fill="#090909"/>
<path opacity="0.996078" d="M446.198 433.333L446.875 435.365L442.135 441.458L438.75 440.781L446.198 433.333Z" fill="#090909"/>
<path opacity="0.996078" d="M306.041 484.792L309.166 486.823L314.166 495.625L309.166 492.24L306.041 484.792Z" fill="#090909"/>
</svg>
