<svg width="915" height="893" viewBox="0 0 915 893" fill="none" xmlns="http://www.w3.org/2000/svg">
<path opacity="0.996078" d="M640.218 221.046L652.288 232.063L659.079 243.73C665.33 243.735 672.029 247.377 679.174 254.654L694.084 274.252L697.789 289.87C703.783 293.598 707.549 297.6 709.087 301.875C715.588 315.542 720.086 329.127 722.579 342.632L722.38 359.176L718.569 368.127C726.729 377.363 730.5 387.466 729.884 398.436L725.874 423.931L721.122 436.123L714.95 444.026L711.495 466.774L706.743 478.966L703.102 485.664L683.813 510.358L670.604 519.125L669.493 524.62L657.148 540.424L640.636 551.383L637.118 551.815C636.734 556.922 633.534 562.376 627.52 568.175C622.747 572.929 617.685 575.337 612.335 575.399L603.632 584.505L571.286 597.41L572.382 599.061C580.278 597.912 588.447 598.992 596.89 602.3L612.694 614.644L614.453 614.428L616.429 615.971L625.751 626.434C630.504 638.946 637.367 651.199 646.342 663.192L647.964 676.387L641.996 718.642C644.339 719.307 644.612 720.315 642.814 721.667L643.571 727.825L648.17 736.189L657.06 743.133L663.358 754.413L661.645 758.642L658.729 760.34L649.9 750.263L636.72 744.74L626.071 738.012L622.304 725.527L623.088 691.946L625.911 682.223L613.996 676.097L590.781 632.517L590.01 633.505L591.106 635.156L568.281 641.98L563.173 640.375C567.117 650.666 569.294 661.113 569.704 671.719L576.913 694.049L573.921 706.025L565.65 718.65L555.158 742.263L549.295 759.949L550.268 767.866L560.888 788.885L561.429 793.283C562.116 797.425 560.661 801.324 557.062 804.981L554.5 795.027L545.177 784.565L543.418 784.781L533.54 777.066L531.363 766.618L536.268 733.869L541.359 717.171L548.086 706.522L547.546 702.123L540.415 694.963L536.076 666.922L537.046 649.391L534.577 647.462L513.588 643.791L506.396 639.764L505.642 659.055L497.681 681.464L497.435 693.995C497.118 698.201 494.691 702.667 490.152 707.391L449.413 739.187L447.314 743.909C444.611 743.706 442.224 746.083 440.154 751.04L438.38 758.402L442.626 778.417C442.896 782.551 440.469 787.017 435.343 791.814L430.174 793.342L432.719 784.993L431.962 778.835L421.343 757.817L420.586 751.659C422.418 744.291 426.245 736.677 432.065 728.818L436.911 724.65L436.695 722.891L446.725 710.05L463.961 694.091L461.507 685.017L464.499 673.041L477.476 644.211L456.332 635.648L450.405 631.019L436.237 624.724L422.409 613.922L394.152 616.502C385.53 621.431 376.585 623.721 367.315 623.372L359.182 622.586L350.695 633.452L348.935 633.668L347.392 635.643L345.078 638.607L330.88 646.602C318.911 650.931 306.704 653.324 294.259 653.782C280.841 653.586 267.106 650.809 253.053 645.452L237.898 638.386L220.118 624.498C220.416 622.08 218.368 619.951 213.975 618.11L212.014 609.421C213.971 605.966 216.208 604.798 218.727 605.917C233.58 610.521 247.979 611.43 261.923 608.645L279.856 601.976L290.488 590.4L286.814 585.941C277.067 582.674 267.817 581.281 259.066 581.761L254.39 583.675L240.315 585.405L224.034 590.978L222.722 587.567C223.129 582.16 226.585 576.377 233.091 570.22C252.843 551.719 273.785 542.895 295.915 543.747L308.447 543.992L328.772 549.531L310.884 534.763L303.382 520.952L304.215 516.831C299.781 517.079 294.986 514.394 289.831 508.777C284.494 495.384 281.921 481.711 282.111 467.757L273.978 466.971L255.721 471.001L241.214 469.212C235.134 468.174 228.693 464.203 221.891 457.3C216.171 459.194 210.091 458.155 203.65 454.184L203.433 452.425L195.531 446.253L187.536 432.055L183.074 410.28L182.872 401.376L180.68 398.073L178.302 378.721L175.338 376.406L164.905 371.438L164.689 369.679L152.836 360.42L145.273 349.742C137.349 336.131 133.238 322.051 132.938 307.503L136.533 296.793L138.231 299.709L162.925 318.998L167.092 323.843L177.417 327.932C176.708 319.744 174.233 311.715 169.992 303.842C166.551 298.61 160.881 293.651 152.983 288.967L137.334 281.514C144.463 275.102 152.292 272.205 160.822 272.823C175.569 271.725 191.383 279.306 208.264 295.567L226.014 323.745C229.886 333.449 231.991 343.31 232.329 353.329L231.543 361.462C238.178 367.492 240.766 374.02 239.308 381.045L238.305 387.419L242.349 398.53L245.313 400.845L247.288 402.388L250.915 402.835C263.125 395.62 275.63 390.808 288.431 388.402C289.534 390.112 290.413 390.004 291.07 388.077L291.546 370.16L287.516 351.904L292.485 341.471L292.16 338.832L288.563 324.094C286.987 306.429 294.208 287.682 310.225 267.855L320.688 258.532C319.786 255.071 321.699 251.264 326.427 247.112L351.736 235.072L373.511 230.609L398.79 232.86L409.007 236.069L427.126 245.45L442.93 257.795L445.122 261.097C451.962 266.864 456.86 272.811 459.815 278.936C465.94 290.506 469.892 302.075 471.671 313.643L470.037 333.042C471.912 333.764 472.02 334.644 470.362 335.681C472.124 344.692 471.482 353.998 468.435 363.599L487.586 352.316L497.262 351.127C504.458 351.552 512 354.792 519.888 360.847L525.259 368.223L528.006 368.779L534.026 381.433L545.54 395.198C548.574 405.838 553.72 416.218 560.976 426.339L562.165 436.016C561.849 440.222 558.835 444.759 553.123 449.628L535.84 461.575L548.789 472.484C551.939 476.324 553.324 480.321 552.941 484.475L551.492 494.476L549.84 495.572C554.493 499.524 558.778 500.486 562.696 498.456L568.144 495.554L574.903 496.063L582.095 500.09C585.723 496.668 589.848 495.119 594.472 495.444C597.529 494.651 600.513 495.922 603.423 499.255L611.957 492.402L613.5 490.426C620.258 482.452 627.558 478.876 635.398 479.698L639.024 480.146L648.868 451.255L665.625 427.764L668.156 426.56C666.859 416.004 667.321 405.232 669.542 394.244L672.318 380.509L677.503 371.835L679.154 370.739L671.591 360.06L663.441 340.971L663.64 324.427L666.463 314.704C661.798 313.075 656.437 309.418 650.381 303.733C642.66 295.157 637.988 286.207 636.365 276.882C630.088 279.082 623.493 278.702 616.581 275.742L600.437 267.903L589.572 259.416L583.923 253.414C578.207 260.188 571.623 263.527 564.17 263.431L562.302 262.768L562.519 264.527L555.575 273.417C550.016 279.041 544.074 281.558 537.751 280.966C535.654 277.949 533.93 278.459 532.581 282.494L529.927 289.964L531.318 308.544L527.121 317.99L520.949 325.892C513.659 331.967 505.959 334.699 497.847 334.089L496.535 330.678L509.312 318.393L511.209 304.765L496.206 277.142L494.245 268.454C492.853 257.612 496.504 246.15 505.199 234.069L506.958 233.853L505.661 223.297C509.559 216.269 513.746 211.588 518.221 209.252L545.058 202.381L570.893 201.885L587.699 207.856L589.242 205.88L597.931 203.92L616.389 208.794L640.218 221.046ZM635.527 230.105L633.768 230.321L620.156 221.279L606.204 216.743L598.179 216.837L600.155 218.38L599.693 229.152C597.491 230.613 597.635 231.786 600.125 232.67L606.514 226.528L603.644 232.238L605.835 235.54L612.224 229.398L610.342 235.879L611.546 238.41L614.971 229.953L617.718 230.508L615.064 237.978L616.268 240.509L619.138 234.798L620.342 237.329C616.454 239.593 616.083 241.424 619.232 242.823L622.102 237.113C622.986 234.623 624.159 234.479 625.62 236.68L623.183 245.909L625.93 246.465L631.331 239.55L631.114 237.791L633.862 238.346C630.631 241.125 629.232 244.273 629.665 247.792C627.978 248.594 628.379 249.438 630.869 250.322L637.257 244.18L635.591 252.421L637.134 250.445L638.338 252.976C635.623 255.096 635.51 256.598 637.999 257.483C640.715 255.363 641.343 253.202 639.882 251.001L646.054 243.098L646.393 238.592L638.491 232.42L636.731 232.636L635.527 230.105ZM663.617 255.227L662.074 257.202L660.531 259.178C658.33 260.639 657.96 262.47 659.421 264.672L660.964 262.697C664.112 264.095 663.485 266.256 659.082 269.178L661.273 272.481L666.89 267.326L664.453 276.555L672.045 272.943L667.849 282.388L670.596 282.943L669.053 284.919C667.221 284.549 667.036 285.464 668.497 287.666C671.358 286.719 673.744 284.342 675.657 280.535L676.861 283.066L673.559 285.258C671.872 286.061 672.273 286.904 674.763 287.789L681.368 283.405L677.943 291.863C681.461 291.43 684.949 288.323 688.405 282.54L686.552 274.732L663.617 255.227ZM650.654 251.463L642.938 261.34L644.914 262.883C647.918 263.109 650.305 260.732 652.074 255.753L650.654 251.463ZM591.697 214.955L588.178 215.387L590.803 222.208L591.79 222.98L592.346 220.232L591.697 214.955ZM687.943 293.312L680.012 301.431L672.419 305.043L674.395 306.586C679.086 306.009 683.489 303.087 687.604 297.819L689.147 295.843L687.943 293.312ZM701.988 305.873L695.6 312.016L682.174 319.024L687.668 320.134L686.125 322.11L688.317 325.412C693.008 324.836 697.154 322.243 700.755 317.633L701.742 318.405L691.28 327.727L686.99 329.147L686.218 330.135L693.472 331.029C695.591 333.745 696.836 334.188 697.207 332.356L698.194 333.128L690.602 336.74L691.034 340.258L695.757 342.357L698.288 341.153L699.276 341.924L693.442 345.32L692.887 348.067L695.634 348.622C698.783 350.021 701.498 347.902 703.782 342.263L704.986 344.794C702.558 349.26 699.585 351.709 696.067 352.141L696.283 353.9L702.332 352.264C706.591 348.169 708.247 344.691 707.301 341.831L710.048 342.386L709.586 353.158L711.222 359.208L713.35 340.194L705.384 311.706C701.577 309.793 700.445 307.849 701.988 305.873ZM581.697 213.505L579.937 213.721C577.818 211.005 576.315 210.892 575.431 213.382L579.382 216.468L583.21 225.82L582.1 231.314L584.847 231.869L586.729 225.388L584.66 215.819L581.697 213.505ZM630.097 251.31C627.896 252.771 628.04 253.944 630.53 254.829C632.731 253.368 632.587 252.195 630.097 251.31ZM635.036 255.168L632.505 256.372L633.493 257.143L635.036 255.168ZM657.755 272.913L655.224 274.117L659.175 277.203L657.755 272.913ZM615.497 241.496L610.651 245.664L612.627 247.207L615.497 241.496ZM663.898 279.302L659.391 278.963L663.342 282.049L663.898 279.302ZM610.003 240.386C605.97 241.477 605.528 242.722 608.676 244.121L610.003 240.386ZM627.783 254.274L623.492 255.694L626.24 256.249L627.783 254.274ZM572.684 212.827L567.19 211.716L574.753 222.395L575.401 227.673C577.233 228.043 577.048 228.959 574.846 230.42L578.026 234.494L579.136 229C580.761 222.847 578.61 217.456 572.684 212.827ZM621.084 250.632L618.554 251.836L621.301 252.391L621.084 250.632ZM604.509 239.275L600.99 239.708L602.966 241.251L604.509 239.275ZM614.386 246.991C612.185 248.452 612.329 249.625 614.819 250.509C617.02 249.048 616.876 247.875 614.386 246.991ZM674.64 294.054L672.109 295.258L673.097 296.03L674.64 294.054ZM599.786 237.177L595.496 238.597L598.243 239.152L599.786 237.177ZM565.43 211.932L559.165 211.809L562.128 214.124L559.597 215.328C556.675 210.925 554.514 210.298 553.115 213.446L557.282 218.291L561.759 232.921C562.562 234.608 563.149 234.536 563.519 232.705L561.666 224.896C562.551 222.406 563.723 222.262 565.185 224.464L567.16 226.007C569.794 228.064 570.669 230.338 569.784 232.828L572.099 229.864C573.065 223.197 570.843 217.22 565.43 211.932ZM634.79 267.699L628.525 267.576L625.994 268.78C628.772 272.011 631.19 272.309 633.247 269.675L634.79 267.699ZM646.644 276.958C646.85 283.481 650.39 290.487 657.263 297.976C661.359 302.235 664.908 304.478 667.913 304.704C666.822 300.671 663.385 296.926 657.602 293.47L646.644 276.958ZM621.055 264.923L614.573 263.041L604.695 255.325L602.936 255.541C597.956 253.772 595.909 251.643 596.793 249.153L592.071 247.055L598.43 255.202L614.018 265.788L624.235 268.997L621.055 264.923ZM550.152 211.131L546.849 213.323L552.005 218.94L551.233 219.928L550.029 217.397L544.535 216.286L547.714 220.36L551.449 221.687L556.265 231.811L557.253 232.582L558.364 227.088L550.152 211.131ZM582.842 244.617L567.44 250.082L569.416 251.625L580.527 247.58L582.842 244.617ZM675.908 318.901L673.687 329.889C674.326 339.931 677.31 349.684 682.641 359.149L683.629 359.92L678.719 341.772L676.341 322.42C678.542 320.958 678.398 319.786 675.908 318.901ZM539.473 218.694C537.786 219.497 538.331 221.514 541.11 224.744L538.146 222.429L536.171 220.886L530.677 219.776L519.349 222.061L530.338 224.282C533.26 228.685 536.151 230.413 539.011 229.466C544.424 234.754 547.819 240.587 549.199 246.966L548.737 257.738L549.724 258.51L552.378 251.04L549.228 232.675L544.412 222.552L539.473 218.694ZM556.481 233.57L552.963 234.002L555.926 236.317C558.128 234.856 558.313 233.94 556.481 233.57ZM708.352 364.918L703.846 364.579C699.525 363.324 695.234 364.745 690.975 368.84L691.192 370.599L706.038 367.881L708.352 364.918ZM715.144 376.585L689.958 382.359L690.174 384.118L698.416 385.784L699.403 386.556L689.064 389.612L700.052 391.834L704.559 392.173L697.738 394.797C696.276 392.595 695.103 392.739 694.219 395.229L691.472 394.674L690.917 397.421L698.17 398.316L699.374 400.846L698.386 400.075L689.59 401.156L690.794 403.687L701.01 406.896L701.998 407.667C701.628 409.499 701.042 409.571 700.239 407.884L690.671 409.953L700.888 413.162L698.357 414.366C697.987 416.197 697.4 416.269 696.597 414.582L688.789 416.434C690.25 418.636 691.423 418.492 692.307 416.002L698.789 417.884C701.279 418.769 701.423 419.942 699.222 421.403L695.487 420.076L687.678 421.929L694.932 422.823L705.581 429.551L704.161 425.26C702.699 423.059 702.884 422.143 704.716 422.513L704.839 416.248L710.333 417.358L708.48 409.55L711.011 408.346L713.203 411.648L713.758 408.901C711.268 408.016 710.867 407.173 712.554 406.37L710.146 401.308L712.893 401.864L712.677 400.104C715.393 397.985 715.506 396.482 713.016 395.598L714.127 390.104L712.923 387.573C710.433 386.688 710.031 385.845 711.719 385.042L713.045 381.307L717.09 392.418L716.628 403.19L718.481 410.999L720.486 398.252C721.308 390.412 719.527 383.189 715.144 376.585ZM531.851 236.597L515.678 243.05C510.391 248.462 507.449 253.586 506.852 258.421L504.877 256.878L504.199 265.891L509.663 281.292L510.435 280.305L509.786 275.027L510.341 272.28L514.17 281.631L515.157 282.403L511.885 270.304L511.142 257.001L513.334 260.304C515.824 261.188 515.968 262.361 513.767 263.822L517.811 274.933L518.799 275.705L518.706 267.68L519.816 262.186L522.44 269.007L522.779 264.5C520.29 263.616 520.145 262.443 522.347 260.982L525.743 266.815L526.514 265.827C527.399 263.337 526.267 261.393 523.119 259.994L523.674 257.247C524.477 258.934 525.063 258.862 525.433 257.031L526.976 255.055L530.588 262.648L531.144 259.901C528.654 259.016 528.51 257.843 530.711 256.382L532.903 259.684L533.891 260.456L531.05 251.876L534.353 249.684L536.328 251.227L538.304 252.77L537.655 247.492C531.872 244.036 529.825 241.906 531.512 241.103L533.488 242.647L536.235 243.202C539.383 244.601 540.844 246.802 540.618 249.807L541.39 248.819C541.986 243.983 538.807 239.909 531.851 236.597ZM534.569 251.443L535.001 254.962L535.989 255.733L534.569 251.443ZM684.897 384.767L681.039 389.706L678.233 417.732L679.653 422.022L684.897 384.767ZM719.468 411.771L716.938 412.975L718.142 415.506L719.468 411.771ZM709.561 418.346L708.018 420.322L709.222 422.852C711.938 420.733 712.051 419.231 709.561 418.346ZM697.649 437.669L686.445 433.688C684.325 430.972 682.823 430.859 681.938 433.349L695.551 442.392L702.033 444.274C702.917 441.784 701.456 439.582 697.649 437.669ZM699.595 453.503L694.101 452.392L681.476 444.121L666.969 442.333L657.156 456.933L648.423 480.33L649.627 482.861L665.087 448.815L673.668 445.974L677.835 450.82L675.304 452.024C673.843 449.822 672.67 449.966 671.785 452.456L671.014 453.444L678.267 454.338L670.459 456.191L670.675 457.95L675.181 458.289L677.373 461.592L668.36 460.914L667.589 461.901L674.287 465.543L670.984 467.735C669.523 465.533 668.35 465.677 667.466 468.167C664.317 466.768 663.546 467.756 665.151 471.13C667.353 469.669 669.843 470.554 672.621 473.784C671.736 476.274 670.893 476.675 670.09 474.988L662.281 476.841L668.763 478.723L669.967 481.254L663.918 482.89L663.362 485.637L657.868 484.527L668.734 493.014C668.363 494.845 669.022 495.359 670.709 494.557L668.085 487.736L674.351 487.858L676.542 491.161L678.086 489.185L674.474 481.593L682.715 483.259C683.517 484.946 684.361 484.545 685.246 482.055L680.862 475.45L683.393 474.246C686.315 478.649 688.476 479.276 689.875 476.128L684.72 470.511L691.202 472.393C692.086 469.903 690.954 467.959 687.806 466.56L685.059 466.005L693.3 467.671L694.627 463.936L690.892 462.609L687.929 460.294C690.13 458.833 692.62 459.718 695.398 462.948L699.472 459.768L693.61 477.455L681.698 496.778L682.685 497.549L695.585 478.998L702.436 462.083C703.176 458.42 702.229 455.56 699.595 453.503ZM421.447 253.738C402.927 243.513 385.457 239.41 369.037 241.428C368.666 243.26 368.08 243.332 367.277 241.644L357.709 243.713L357.925 245.473L367.926 246.922L377.371 251.119L399.102 268.093L401.078 269.636L412.808 285.16L421.668 306.395L421.423 318.926L423.398 320.469L424.076 311.456L423.428 306.178L422.995 302.66C422.438 288.441 415.76 275.273 402.96 263.154L403.731 262.166C418.877 273.997 427.901 286.877 430.804 300.807L431.885 309.604L432.996 304.11C433.53 293.924 430.875 284.428 425.03 275.622L414.72 264.388L415.491 263.4L424.597 272.103L438.18 295.436L439.91 309.51L440.682 308.523C441.216 298.337 438.89 289.098 433.703 280.806L434.259 278.059L439.63 285.435L441.606 286.978C439.568 280.085 434.927 273.81 427.683 268.152L428.239 265.405L439.32 275.651L447.748 293.367L448.491 306.67L447.935 309.417L450.25 306.454C452.635 287.111 443.034 269.539 421.447 253.738ZM448.923 310.188L446.392 311.392L447.38 312.164L448.923 310.188ZM372.742 257.046C363.811 252.19 355.755 249.609 348.574 249.301C340.59 247.306 333.696 249.343 327.894 255.414C329.356 257.616 330.528 257.472 331.413 254.982L354.716 255.689L374.595 264.854L388.423 275.656L394.782 283.804L405.402 304.822L405.157 317.354L402.935 328.342L398.739 337.787L390.252 348.653L388.709 350.628L372.413 363.346L365.592 365.97C348.801 369.82 331.29 367.805 313.058 359.926L300.217 349.896L300.001 348.137L297.47 349.341L300.65 353.415C309.499 362.447 318.245 368.218 326.887 370.728C339.192 373.977 350.808 374.038 361.734 370.909C362.619 368.419 363.792 368.275 365.253 370.477L379.666 364.241L397.505 349.547L403.461 339.885L405.004 337.91L408.43 329.452L410.218 314.946C411.801 293.916 399.309 274.616 372.742 257.046ZM522.883 374.319L516.927 383.981L518.131 386.512C522.904 381.758 524.488 377.694 522.883 374.319ZM504.332 361.42L500.597 360.093L484.979 363.798L465.381 378.708L468.438 389.048L467.573 382.01L469.765 385.313L470.752 386.084L470.875 379.819L469.116 380.035L471.647 378.831L474.055 383.893L475.043 384.664L475.165 378.398L477.141 379.942C479.261 382.657 480.948 381.855 482.203 377.534L483.529 373.799L484.733 376.33L498.159 369.322L507.172 370L513.099 374.629L514.642 372.654L515.197 369.906L504.332 361.42ZM452.412 324.047L445.159 323.152C441.784 324.758 440.467 323.729 441.208 320.066L426.023 327.29L418.307 337.168L416.764 339.143L413.462 341.335L409.142 357.046L414.268 376.954L415.811 374.978L413.403 369.917C410.562 361.336 411.827 352.251 417.197 342.662C423.595 331.756 430.642 326.127 438.338 325.777L452.628 325.806L452.412 324.047ZM432.873 310.375L430.003 316.086L430.991 316.857L432.873 310.375ZM530.662 386.757C526.773 389.021 525.045 391.913 525.478 395.431L530.539 393.023L528.102 402.252L532.947 398.085C533.75 399.772 532.793 401.676 530.077 403.795C532.197 406.511 533.884 405.709 535.139 401.387L537.115 402.93L533.473 409.628L537.547 406.449C540.696 407.848 540.068 410.009 535.665 412.931C533.834 412.561 533.648 413.476 535.11 415.678L537.641 414.474L539.616 416.017L544.245 410.09L533.07 391.819L531.311 392.035L530.662 386.757ZM453.277 331.084L445.036 329.418C437.855 329.11 431.363 331.991 425.561 338.062L420.376 346.736L419.914 357.508C421.746 357.878 421.56 358.794 419.359 360.255L423.742 366.86L421.212 368.064L425.379 372.909L432.849 375.563L435.379 374.359L436.583 376.89C440.246 377.63 443.621 376.025 446.707 372.074C449.711 372.3 450.812 371.569 450.009 369.882L453.312 367.69L460.039 357.041L461.705 348.8C462.672 342.133 459.862 336.227 453.277 331.084ZM652.467 491.441L651.696 492.429L663.426 507.953L663.859 511.472L664.847 512.243C666.842 504.259 662.715 497.325 652.467 491.441ZM362.373 274.393L351.94 269.425L340.952 267.204C333.112 266.381 325.961 268.748 319.501 274.305L307.156 290.109C302.815 298.381 300.82 306.365 301.171 314.061L302.591 318.351L310.768 297.702L326.415 279.705L341.6 272.481L359.842 275.597L362.805 277.912C365.007 276.451 364.863 275.278 362.373 274.393ZM548.074 419.442L543.444 425.369L541.901 427.344L541.346 430.091L545.636 428.671L547.734 423.949L548.074 419.442ZM550.482 424.504L548.044 433.733L549.248 436.264L552.673 427.806L550.482 424.504ZM641.356 495.485C638.496 496.432 635.677 495.291 632.899 492.06L625.09 493.913L627.837 494.468L635.956 502.4L635.4 505.147L634.196 502.616C629.957 497.184 627.138 496.042 625.739 499.191L622.992 498.636C622.621 500.467 623.609 501.238 625.955 500.95L628.147 504.253C630.637 505.137 630.781 506.31 628.579 507.771C625.801 504.541 622.653 503.142 619.134 503.574L627.685 515.025L622.962 512.926L632.285 523.389L636.329 534.5L636.113 532.741L638.088 534.284L639.076 535.055L637.007 525.487L637.563 522.74C640.999 526.485 642.677 530.446 642.595 534.623L643.366 533.635L642.285 524.838L643.057 523.851L645.897 532.431L646.669 531.443L643.612 521.104L649.106 522.214L651.298 525.517C652.245 528.377 651.432 531.453 648.86 534.746L651.391 533.542L655.588 524.096C656.122 513.911 651.378 504.374 641.356 495.485ZM500.754 390.433L496.031 388.335L483.038 398.861L493.255 402.07L506.096 412.1L518.691 434.662L527.827 429.074L517.207 408.056L506.681 395.063L500.754 390.433ZM538.289 419.752L537.734 422.499C539.935 421.038 540.121 420.122 538.289 419.752ZM493.501 389.539L490.97 390.743L491.957 391.515L493.501 389.539ZM537.149 439.537L531.655 438.426L523.846 440.279L522.519 444.014L525.699 448.088L525.266 444.569L528.569 442.377L537.582 443.055C539.783 441.594 539.639 440.421 537.149 439.537ZM619.35 505.334L618.579 506.321L620.554 507.865L619.35 505.334ZM615.276 508.513L609.998 509.162L627.626 543.606L625.744 550.088L626.732 550.859L629.169 541.63L625.803 521.507L619.227 511.599L615.276 508.513ZM646.885 533.202L644.354 534.406L645.342 535.178L646.885 533.202ZM483.564 410.405L473.347 407.196L469.057 408.616L481.033 411.609L491.127 421.084C493.165 427.977 497.548 434.582 504.278 440.898L509.31 452.781C514.434 455.723 517.87 459.467 519.62 464.015L526.844 479.2L528.82 480.743L529.93 475.249L525.979 472.163C523.797 464.097 519.012 456.648 511.624 449.817L505.388 435.404C499.606 431.948 497.085 428.388 497.825 424.725L483.564 410.405ZM643.799 537.154L641.268 538.358L642.256 539.129L643.799 537.154ZM600.769 506.724L592.744 506.818L600.307 517.497C597.592 519.616 596.964 521.777 598.425 523.978C600.915 524.863 601.059 526.036 598.858 527.497L591.634 512.312L583.176 508.887L592.16 523.856L596.42 536.726L598.244 558.826L596.917 562.56L598.121 565.091L601.669 550.368L599.723 534.534L600.494 533.547L599.074 529.256L601.605 528.052L605.433 537.404L607.04 557.744L605.929 563.239L606.917 564.01C609.859 558.886 610.528 554.637 608.922 551.262L612.657 552.589C613.542 550.099 613.14 549.256 611.453 550.058L613.335 543.577L611.143 540.274L610.711 536.756L612.254 534.78L616.299 545.891L615.065 557.651L616.053 558.423L618.49 549.194L620.033 547.218L621.483 537.217C620.906 532.526 617.984 528.123 612.716 524.008L607.684 512.125L600.769 506.724ZM454.673 400.562L443.994 408.125L444.21 409.884L460.26 409.697L453.13 402.537L454.673 400.562ZM399.79 360.874C387.239 370.156 374.657 376.762 362.044 380.694C346.282 383.226 329.872 380.481 312.813 372.457L300.959 363.199L298.429 364.403L303.584 370.02L315.221 377.519L333.895 384.153L364.668 387.515L383.249 386.124L383.804 383.377L395.254 374.826C397.456 373.365 397.312 372.192 394.822 371.307L389.205 376.462C388.835 378.294 387.919 378.109 386.458 375.907L385.131 379.642C384.761 381.473 384.174 381.545 383.372 379.858L376.551 382.482L368.526 382.576C377.25 380.908 385.357 376.638 392.846 369.764L399.79 360.874ZM431.615 387.323C420.093 395.287 407.294 400.134 393.22 401.864C378.631 404.253 363.425 404.038 347.601 401.221L344.854 400.665L382.448 401.402L399.053 398.468C407.201 392.109 415.452 389.012 423.806 389.176L425.349 387.2L395.874 394.395C378.795 395.898 361.243 395.972 343.217 394.616L323 389.957L298.954 375.947L301.579 382.768L310.901 393.23L323.31 399.741L348.25 406.498L374.3 407.761C393.725 405.969 412.974 400.329 432.048 390.841C434.249 389.38 434.105 388.207 431.615 387.323ZM478.04 423.585L477.485 426.332C479.687 424.871 479.872 423.955 478.04 423.585ZM479.244 426.116L477.701 428.092L479.893 431.394L480.665 430.406L479.244 426.116ZM537.523 471.637L536.751 472.624C540.702 475.711 542.308 479.085 541.567 482.748L542.555 483.519C544.324 478.54 542.647 474.579 537.523 471.637ZM462.668 414.759L449.149 413.742C436.474 412.323 424.632 415.267 413.624 422.573L412.636 421.801L415.167 420.597L416.71 418.622L397.451 429.025L396.463 428.254L407.914 419.703L430.136 411.614C432.852 409.494 433.294 408.249 431.463 407.879L403.963 416.617L385.908 429.551L375.878 442.392L370.015 460.079L371.219 462.61L377.514 448.442L384.458 439.552C388.491 438.461 391.978 435.353 394.92 430.229L396.896 431.772L410.105 423.005L411.093 423.777L394.581 434.736L376.064 458.442L372.61 481.19L373.814 483.721L375.819 470.974L379.244 462.516L387.731 451.651L387.515 449.891L389.274 449.675L400.292 437.606L410.97 430.043L429.674 422.386C442.287 418.455 455.477 419.215 469.244 424.666L462.668 414.759ZM574.935 507.221L573.176 507.437C571.056 504.721 569.554 504.608 568.669 507.098L571.416 507.653L574.041 514.474L573.702 518.981L571.077 512.16L568.33 511.604L570.738 516.666C574.732 534.629 574.106 553.756 568.861 574.045C566.66 575.506 566.804 576.679 569.294 577.564C575.774 562.48 577.82 547.644 575.431 533.055L577.933 546.142L577.594 550.648L580.002 555.71C580.804 557.397 580.033 558.385 577.687 558.673L576.577 564.167L579.324 564.723L577.997 568.458L579.417 572.748L582.655 548.24L579.722 531.635L580.277 528.888L582.13 536.697C583.961 537.067 583.776 537.983 581.574 539.444L585.742 544.289C586.895 553.672 585.96 563.014 582.936 572.315L584.911 573.858L589.476 545.616L586.882 524.504L579.874 511.079L574.935 507.221ZM405.255 376.276L400.41 380.443L403.157 380.998L405.255 376.276ZM543.543 484.291L542.771 485.279L543.759 486.05L543.543 484.291ZM627.719 551.631L624.417 553.823L625.405 554.594L627.719 551.631ZM399.761 375.165L390.625 380.753L390.841 382.512L398.434 378.9L399.761 375.165ZM505.668 459.479L504.897 460.467L505.885 461.238L505.668 459.479ZM564.935 505.771L564.163 506.759L566.139 508.302L564.935 505.771ZM621.454 551.508L618.923 552.712L619.911 553.484L621.454 551.508ZM399.638 381.431L397.107 382.635C393.959 381.236 393.187 382.224 394.793 385.598L397.323 384.394L399.638 381.431ZM620.898 554.255L618.367 555.459L619.355 556.231L620.898 554.255ZM558.885 507.408L552.619 507.285L558.856 521.698C561.1 535.114 561.07 549.405 558.767 564.57L551.361 584.232L552.565 586.763C562.79 568.243 567.151 550.444 565.647 533.365C566.84 523.694 564.586 515.041 558.885 507.408ZM471.19 440.5L463.936 439.606L440.51 445.164L428.844 451.955C427.074 456.935 424.688 459.312 421.684 459.086L413.29 477.976L414.71 482.267C415.306 477.431 417.991 472.636 422.765 467.882L424.308 465.907L432.456 459.548L443.567 455.503L446.314 456.059L436.19 460.875L427.271 468.222L417.334 489.088L418.538 491.618L421.192 484.149C429.936 472.954 439.257 466.451 449.154 464.639L455.42 464.762L437.704 473.19L427.674 486.031L421.379 500.199L422.583 502.73L424.465 496.248C433.579 483.221 442.9 476.718 452.427 476.738L453.415 477.509L439.989 484.517L429.404 500.105L424.652 512.298L425.64 513.069C430.043 510.147 431.514 507.585 430.053 505.383L436.996 496.493L447.675 488.93L450.422 489.486L439.744 497.049C438.056 497.851 438.458 498.695 440.948 499.579L434.991 509.241L436.535 507.265L437.522 508.037C435.835 508.84 436.236 509.683 438.726 510.568L438.51 508.808L454.25 498.837L456.998 499.393L446.103 505.196L434.53 520.013L436.505 521.556L439.591 517.605L449.715 512.789L457.956 514.455L460.703 515.01L451.135 517.079C447.986 515.68 446.886 516.411 447.832 519.271L441.228 523.654L453.975 525.659L466.168 530.412L481.972 542.756L484.38 547.818L485.368 548.589L483.515 540.781L474.193 530.318L471.446 529.763L466.507 525.905L472.989 527.787C482.578 533.157 487.805 539.36 488.67 546.398L489.658 547.169L489.348 537.385L480.797 525.935L474.099 522.293L471.352 521.738C476.558 520.503 481.867 522.529 487.279 527.817L481.692 518.681L468.079 509.639L465.332 509.084L467.863 507.88L479.623 509.113L489.501 516.828L489.717 518.588L490.705 519.359L490.827 513.094L484.252 503.186L473.819 498.218L471.844 496.675L479.869 496.582L486.567 500.223L487.771 502.754L489.746 504.297L488.326 500.007L489.098 499.019L485.702 493.186L470.546 486.119L467.799 485.564C475.207 482.868 482.604 484.935 489.992 491.766L486.935 481.426L478.045 474.482L476.286 474.698L471.78 474.359L467.273 474.02L474.866 470.408L485.083 473.617L486.287 476.148L489.034 476.703L487.181 468.895C480.596 463.751 474.7 461.797 469.494 463.032L467.519 461.489C472.066 459.739 477.231 460.593 483.014 464.049C485.133 466.765 486.635 466.878 487.52 464.388L483.692 455.036L478.753 451.179L468.536 447.97L448.196 449.577L451.498 447.385C460.079 444.545 469.019 444.636 478.32 447.66L471.19 440.5ZM620.343 557.002L617.812 558.206L618.8 558.978L620.343 557.002ZM457.794 433.217L455.263 434.421L456.25 435.193L457.794 433.217ZM389.854 381.74C385.821 382.831 385.378 384.076 388.527 385.475L391.058 384.271L389.854 381.74ZM617.041 559.194L614.51 560.398L615.498 561.17L617.041 559.194ZM541.199 501.545L539.316 508.027L536.786 509.231L539.749 511.545C542.714 530.826 540.987 550.683 534.569 571.116L535.557 571.888L537.872 568.924L544.196 540.466L543.454 527.163L545.985 525.959C548.229 539.375 546.698 553.553 541.39 568.492L542.378 569.264C547.748 559.674 550.185 550.445 549.691 541.577C551.892 540.115 552.077 539.2 550.246 538.829L552.777 537.625L549.661 555.867L551.637 557.41C554.805 549.282 555.699 542.029 554.32 535.65C555.738 522.974 551.365 511.606 541.199 501.545ZM453.503 434.637C443.832 433.445 434.336 436.1 425.015 442.603L417.3 452.481L412.548 464.673L413.536 465.445L416.406 459.735L421.035 453.808L439.09 440.874L451.96 436.613L453.503 434.637ZM529.006 496.793L521.198 498.646L519.006 495.343C516.804 496.804 516.948 497.977 519.438 498.862L516.509 533.154L505.246 557.754L506.45 560.285L510.647 550.84L513.178 549.636L508.981 559.081L509.969 559.853C518.65 543.308 523.556 527.525 524.687 512.504L524.038 507.226L524.377 502.719L526.569 506.022C529.327 518.779 526.88 532.772 519.227 548L520.647 552.29L522.529 545.808L525.832 543.616L522.161 564.605L517.964 574.05L514.662 576.242L513.119 578.217L514.323 580.748L520.495 572.846L527.901 553.184L534.348 518.46C535.17 510.62 533.39 503.398 529.006 496.793ZM503.973 482.011L500.887 485.962L503.079 489.264L500.209 494.975C498.521 495.777 498.923 496.621 501.413 497.505L503.511 492.783L506.258 493.338L503.388 499.049C499.499 501.312 499.129 503.144 502.278 504.543L502.061 502.783L506.907 498.616C507.195 500.962 505.21 504.182 500.951 508.278L502.155 510.808L509.315 503.678C504.541 508.432 502.186 513.483 502.248 518.833L503.452 521.364L505.89 512.135L508.42 510.931L506.755 519.172L498.454 546.088L499.442 546.859L505.954 534.451L512.062 504.233C512.226 495.879 509.529 488.471 503.973 482.011ZM607.133 565.769L603.831 567.961L604.819 568.733L607.133 565.769ZM373.838 418.533L341.738 418.907L314.823 410.607C314.534 408.261 313.289 407.819 311.088 409.28L314.267 413.354L316.243 414.897C319.103 413.95 322.581 415.606 326.676 419.865L341.399 423.413L354.918 424.431L353.714 421.9L373.283 421.281C375.484 419.819 375.67 418.904 373.838 418.533ZM379.426 427.669L368.098 429.954L346.554 429.03L344.023 430.234C356.329 433.484 367.944 433.545 378.87 430.416C381.072 428.955 381.257 428.039 379.426 427.669ZM484.439 519.236L483.667 520.224L484.655 520.996L484.439 519.236ZM414.523 466.217L411.993 467.421L412.98 468.192L414.523 466.217ZM181.842 287.652L176.348 286.542L166.687 280.585L160.421 280.463L160.637 282.222L170.854 285.431L184.56 302.498L192.216 321.202L192.959 334.505L194.379 338.795L193.052 342.53L200.369 365.74L201.357 366.511L197.868 352.653C200.069 351.192 200.255 350.276 198.423 349.906L196.91 337.591L198.453 335.615L204.227 360.801L205.215 361.573L204.812 343.763L204.379 340.245L204.718 335.738L213.672 364.998L214.66 365.769C214.617 350.892 211.972 336.633 206.723 322.991L207.495 322.003C214.286 333.669 217.631 346.355 217.53 360.059L218.518 360.83L218.331 344.78C218.206 334.08 215.808 324.255 211.136 315.305L199.622 301.54L181.842 287.652ZM543.366 570.035L540.064 572.227L541.051 572.998L543.366 570.035ZM600.657 614.784L600.75 622.809L601.521 621.822L602.725 624.352C600.524 625.814 600.668 626.986 603.158 627.871L600.627 629.075C598.94 629.878 599.341 630.721 601.831 631.606L602.264 635.124L605.473 624.908C606.213 621.245 604.608 617.87 600.657 614.784ZM613.498 624.814L611.832 633.056C609.63 634.517 609.774 635.69 612.264 636.574L615.227 638.889L610.166 641.297L614.117 644.383L616.864 644.938L613.561 647.13L615.537 648.673L619.827 647.253L620.815 648.024L618.284 649.228C614.91 650.834 615.126 652.593 618.933 654.506L623.994 652.098L625.198 654.629L616.618 657.47L619.581 659.784L625.847 659.907L622.545 662.099L629.798 662.993L627.484 665.957L624.737 665.401L620.446 666.821C626.085 669.105 631.836 669.886 637.7 669.166L640.787 665.214L637.052 663.888L635.509 665.863L633.656 658.054L613.498 624.814ZM520.863 554.049L515.463 560.963L516.45 561.735C519.681 558.957 521.152 556.395 520.863 554.049ZM590.224 609.816L555.932 606.887L547.135 607.968L552.723 617.104L552.074 611.826L554.821 612.381L555.686 619.419L558.34 611.949L561.087 612.504L559.976 617.998L563.156 622.072L563.834 613.059C561.344 612.175 560.943 611.331 562.63 610.529L566.365 611.855L568.34 613.399L569.205 620.436C571.037 620.806 570.852 621.722 568.65 623.183L569.638 623.954C572.724 620.003 573.207 616.67 571.087 613.954L573.618 612.75L575.038 617.04L575.471 620.559L576.582 615.064L578.218 621.114C574.844 622.719 574.731 624.221 577.879 625.62L579.422 623.645L580.533 618.151L583.063 616.947L582.724 621.453L588.558 618.057L586.12 627.286L590.966 623.119L593.836 617.409C595.234 614.26 594.03 611.729 590.224 609.816ZM400.788 463.44L397.702 467.391L396.159 469.367C394.472 470.169 394.873 471.013 397.363 471.897C399.194 472.268 399.709 471.609 398.906 469.922C403.309 467 403.936 464.839 400.788 463.44ZM536.545 572.659L534.014 573.863L535.002 574.635L536.545 572.659ZM500.43 547.631L495.584 551.798L496.788 554.329L500.43 547.631ZM303.525 398.601L300.222 400.793L296.026 410.238L295.564 421.01L295.347 419.251L292.6 418.696L295.008 423.757L292.91 428.48L293.898 429.252L296.984 425.301L298.556 409.034L304.729 401.132L303.525 398.601ZM342.048 428.691L341.276 429.679L342.264 430.451L342.048 428.691ZM360.815 443.351L332.357 437.026L329.487 442.736C335.351 442.016 341.905 444.484 349.149 450.142L359.272 445.326L360.815 443.351ZM399.338 473.441L393.073 473.318L393.289 475.077L398.783 476.188C400.985 474.726 401.17 473.811 399.338 473.441ZM295.839 394.188L279.111 403.388L266.024 405.889L266.24 407.649L268.987 408.204C270.675 407.401 271.076 408.245 270.191 410.735L267.66 411.939L256.456 407.958C253.226 410.736 252.084 413.556 253.031 416.416L252.259 417.403L249.851 412.342L247.104 411.786L249.296 415.089L246.396 435.09C242.508 437.354 241.366 440.173 242.971 443.547L244.514 441.572L246.057 439.596L248.495 430.367L251.026 429.163L249.699 432.898L251.119 437.188L253.124 424.441L255.655 423.237L254.328 426.971C252.641 427.774 253.042 428.618 255.532 429.502L254.205 433.237L256.49 444.565L257.94 434.564L256.087 426.755L258.618 425.551L261.675 435.891L261.552 442.157L262.54 442.928L262.879 438.422L259.39 424.563L261.921 423.359L264.329 428.421L264.545 430.18L265.995 420.18L269.916 437.557L270.811 430.303L271.056 417.772L273.248 421.074L274.113 428.112L274.236 421.846C276.437 420.385 276.293 419.212 273.803 418.327L276.334 417.123L278.958 423.944L277.848 429.438L278.836 430.21L284.236 423.296L285.809 407.029L287.352 405.054L288.679 401.319L291.21 400.115L295.839 394.188ZM419.742 494.149L417.212 495.353L418.416 497.884L419.742 494.149ZM396.252 477.392L392.734 477.824L390.419 480.787L390.296 487.053C389.7 491.889 391.192 496.765 394.773 501.683L394.989 503.442C397.191 501.981 397.376 501.065 395.545 500.695L394.247 490.139L397.55 487.947L397.333 486.188L394.586 485.633C397.302 483.513 397.415 482.011 394.925 481.126L397.456 479.922L396.252 477.392ZM362.113 453.906L360.201 474.679L362.766 510.081L364.835 519.649L363.533 458.197C366.249 456.077 365.776 454.647 362.113 453.906ZM575.687 622.318L573.156 623.522L574.144 624.293L575.687 622.318ZM296.581 407.491L291.952 413.418L293.372 417.708L296.581 407.491ZM357.823 455.327L357.051 456.314L358.039 457.086L357.823 455.327ZM326.43 432.397L314.238 427.645L308.095 421.256L300.935 428.387L323.777 439.866L324.332 437.119C327.562 434.341 328.262 432.767 326.43 432.397ZM355.076 454.771L354.304 455.759L355.292 456.531L355.076 454.771ZM466.693 541.955L452.526 535.66L437.247 534.859C435.127 532.143 433.697 532.616 432.957 536.279L448.668 540.599C460.521 549.857 467.683 559.692 470.153 570.104L468.148 582.852L465.278 588.562L468.025 589.117L470.34 586.154L473.888 571.431L472.158 557.356L466.787 549.98L467.558 548.992L478.301 563.745L479.844 561.769C481.738 567.49 480.185 574.229 475.185 581.987L476.173 582.758C481.831 575.515 484.3 568.961 483.579 563.096L476.571 549.671L466.693 541.955ZM634.614 673.117L626.373 671.451L625.601 672.438C629.038 676.183 631.857 677.325 634.059 675.864C636.261 674.403 636.446 673.487 634.614 673.117ZM354.52 457.518L351.867 464.988L351.93 487.304L356.378 516.224L359.002 523.045L357.828 506.224L355.42 501.162L355.169 462.796L354.52 457.518ZM358.471 460.605L355.601 466.315L356.805 468.846L358.471 460.605ZM440.456 524.642L437.925 525.846L438.913 526.618L440.456 524.642ZM546.147 607.197L540.098 608.833L543.833 610.16L546.025 613.462L546.796 612.475L546.147 607.197ZM329.487 442.736L327.944 444.712L330.691 445.267L329.487 442.736ZM389.741 489.8L386.438 491.992L388.291 499.801L389.741 489.8ZM636.683 682.685L631.621 685.093L633.597 686.636L634.585 687.407L632.054 688.611L635.789 689.938L637.116 686.203C639.317 684.742 639.173 683.569 636.683 682.685ZM340.569 452.983L316.184 443.478L314.611 459.745L316.744 491.628L323.074 514.067L341.193 523.448L345.483 522.028C346.944 524.23 347.86 524.415 348.23 522.583L347.581 517.305C342.785 497.655 341.25 477.901 342.977 458.044C345.693 455.925 344.89 454.237 340.569 452.983ZM357.793 469.617L355.262 470.821L356.53 495.668L359.803 507.767L362.182 527.119L362.55 508.322L357.793 469.617ZM637.764 691.481L634.246 691.914L633.135 697.408L633.568 700.926C632.106 698.725 630.934 698.869 630.049 701.359L632.673 708.18L630.142 709.384L632.889 709.939L633.199 719.724L634.187 720.495L637.764 691.481ZM228.056 373.052L218.026 385.893L203.613 392.129L196.576 392.994L197.78 395.525L201.514 396.852C210.527 397.53 219.035 394.103 227.039 386.571L231.236 377.126L228.056 373.052ZM411.781 516.558L407.059 514.46L402.769 515.88L387.49 515.079L379.804 510.666L379.033 511.654L388.694 517.61L411.998 518.318L411.781 516.558ZM208.95 362.899L206.419 364.103L208.611 367.406L208.95 362.899ZM307.727 440.053L295.318 433.542L290.998 449.253L291.279 473.328L295.294 498.73L297.485 502.032L304.4 507.433C306.601 505.972 309.091 506.856 311.869 510.086L311.992 503.821L309.461 505.025L308.041 500.735L306.066 499.191L300.571 498.081L296.404 493.235L296.773 474.438L301.279 474.777L303.471 478.08L302.454 491.599L305.078 498.42L305.849 497.432C308.051 495.971 309.296 496.413 309.584 498.759L310.572 499.531C308.41 481.937 308.593 464.056 311.122 445.886C312.007 443.396 310.875 441.452 307.727 440.053ZM534.913 617.507L511.733 610.534L493.83 602.912L489.54 604.332L493.275 605.659L495.467 608.961L498.214 609.516C502.021 611.43 503.811 613.888 503.585 616.893L511.61 616.799L509.079 618.003L509.295 619.763L520.067 620.225L519.512 622.972L524.019 623.311L525.006 624.082L520.716 625.502L520.932 627.262L532.044 623.217L533.031 623.989L524.667 628.589L524.883 630.348C530.233 630.286 535.038 628.207 539.297 624.112C540.182 621.622 538.72 619.42 534.913 617.507ZM632.703 693.889L632.147 696.636C634.349 695.175 634.534 694.259 632.703 693.889ZM144.961 314.509L144.622 319.015C146.453 319.385 146.268 320.301 144.066 321.762L150.303 336.176L159.07 349.385L170.923 358.644L169.719 356.113L167.743 354.57L161.601 348.181L174.009 354.693L173.577 351.174C166.477 346.689 161.466 342.245 158.544 337.842C163.812 341.956 168.864 344.312 173.7 344.908L176.23 343.704L170.52 340.834L155.703 329.261L144.961 314.509ZM438.545 545.415L429.316 542.977L425.025 544.398L428.76 545.724L438.854 555.199L445.862 568.625C448.044 576.691 446.635 584.603 441.636 592.361L443.611 593.904L446.82 583.687L450.123 581.495L446.142 592.7L447.346 595.231L452.314 584.798L453.857 582.822L453.764 574.797L456.295 573.593L456.202 565.568L450.614 556.433L438.545 545.415ZM544.236 627.969L534.884 631.798C532.682 633.259 532.827 634.432 535.316 635.316L540.378 632.908L544.236 627.969ZM633.135 697.408L630.604 698.612L631.592 699.383L633.135 697.408ZM546.428 631.272C542.909 631.704 540.193 633.824 538.28 637.631L542.015 638.958C545.245 636.18 546.716 633.618 546.428 631.272ZM553.219 642.938C549.556 642.198 548.528 643.515 550.133 646.889L547.602 648.093C545.915 648.896 546.316 649.74 548.806 650.624L549.794 651.396L547.263 652.6L547.696 656.118L552.202 656.457L551.647 659.204L545.597 660.841L551.091 661.952L551.308 663.711L545.258 665.347L547.234 666.89L548.221 667.662L547.882 672.168L545.135 671.613L549.086 674.699L555.136 673.063L556.124 673.834L551.278 678.002L548.747 679.206L552.482 680.532L553.47 681.304L550.939 682.508L553.902 684.823L558.409 685.162L549.057 688.99L556.527 691.644L565.107 688.803L558.561 664.605L556.615 648.771L553.219 642.938ZM428.205 548.472L426.662 550.447L420.951 547.577L414.902 549.214L420.396 550.324L425.984 559.46L414.13 550.201C410.468 549.461 407.35 550.737 404.779 554.03L409.285 554.369L419.595 565.603L419.04 568.35L417.836 565.819L403.019 554.246L396.97 555.882L403.761 567.549L403.545 565.789C399.964 560.872 397.073 559.144 394.871 560.605L391.908 558.29L394.655 558.846L395.211 556.099L386.63 558.939L399.471 568.969L405.924 585.142L404.906 598.661L406.11 601.192L409.226 582.95L410.769 580.975L412.067 591.53C410.379 592.333 410.781 593.177 413.271 594.061L415.153 587.579L415.398 575.048L418.239 583.628L416.018 594.617L418.765 595.172L424.844 579.245L426.17 575.51L426.048 581.776L423.271 595.511C421.07 596.972 421.214 598.145 423.704 599.03L426.018 596.066L429.566 581.343L430.893 577.608C431.984 581.641 431.316 585.89 428.888 590.356L429.876 591.127C433.476 586.518 434.731 582.196 433.64 578.164L436.943 575.972L437.252 585.756L434.598 593.226L437.685 589.275L439.66 590.818L443.641 579.613C445.203 568.111 440.058 557.73 428.205 548.472ZM414.592 539.429L413.821 540.417L415.796 541.96L414.592 539.429ZM230.096 396.911L211.269 410.833L213.245 412.376L217.319 409.197L218.306 409.968L213.461 414.135C210.745 416.255 210.632 417.757 213.122 418.642L221.27 412.283L218.955 415.246L217.412 417.222L215.314 421.944L211.024 423.364C209.336 424.167 209.738 425.011 212.228 425.895L219.82 422.283L223.678 417.344L225.221 415.369C225.139 419.546 222.783 424.598 218.154 430.525L224.543 424.382L226.086 422.406L226.518 425.925L220.901 431.08L220.562 435.586L218.031 436.79L220.007 438.333L222.105 433.611L225.408 431.419L224.081 435.154L226.612 433.95L232.784 426.048L237.875 409.349L234.263 401.756L232.936 405.491L228.307 411.418L231.516 401.201L230.096 396.911ZM408.882 536.559L407.339 538.535L404.592 537.98C403.131 535.778 401.958 535.922 401.073 538.412L403.049 539.955L389.53 538.938C388.068 536.736 386.896 536.88 386.011 539.37L378.541 536.717C376.422 534.001 374.919 533.888 374.035 536.378L381.721 540.791L398.975 543.135L408.327 539.306L412.062 540.633L408.882 536.559ZM516.549 620.657L515.006 622.633L517.753 623.188L516.549 620.657ZM398.11 536.097L397.338 537.085L398.326 537.857L398.11 536.097ZM395.363 535.542L394.591 536.53L395.579 537.301L395.363 535.542ZM392.616 534.987L391.844 535.975L392.832 536.746L392.616 534.987ZM494.572 616.215L488.09 614.332L483.8 615.753L482.257 617.728L474.665 621.34L474.325 625.847L485.004 618.283L489.511 618.623L482.69 621.247L477.505 629.921L478.709 632.451L495.221 621.492L494.572 616.215ZM636.039 728.304C633.179 729.251 632.809 731.082 634.929 733.798L639.651 735.896L636.039 728.304ZM238.185 419.133C235.325 420.08 235.139 420.996 237.629 421.88C234.913 424 233.772 426.819 234.204 430.338C232.949 434.659 230.82 436.707 227.816 436.481L229.791 438.024C235.079 432.611 238.278 427.158 239.389 421.664L238.185 419.133ZM384.591 535.08C382.533 537.714 382.935 538.558 385.795 537.611L384.591 535.08ZM376.905 530.667L375.362 532.643L382.06 536.284L376.905 530.667ZM479.633 610.907L466.669 607.143L460.064 611.526L459.509 614.274L468.089 611.433L464.448 618.131L475.343 612.327L481.825 614.21L479.633 610.907ZM498.4 625.566L492.351 627.203L492.783 630.721L497.074 629.301C499.79 627.182 500.232 625.937 498.4 625.566ZM186.482 383.52L186.143 388.026L188.89 388.581C189.692 390.269 190.536 389.867 191.42 387.377L188.673 386.822L186.482 383.52ZM499.049 630.844L488.926 635.66L488.37 638.407C492.548 638.489 496.251 637.141 499.482 634.363C501.683 632.902 501.539 631.729 499.049 630.844ZM189.106 390.341L188.334 391.328L189.322 392.1L189.106 390.341ZM476.547 614.858L473.028 615.291L471.701 619.026L475.991 617.605C478.193 616.144 478.378 615.228 476.547 614.858ZM268.56 455.582C258.148 458.053 248.035 458.105 238.219 455.74L237.448 456.727C248.066 460.78 258.509 460.985 268.776 457.342L268.56 455.582ZM567.082 690.346L557.947 695.934C556.26 696.736 554.685 696.037 553.224 693.835L552.669 696.582L554.644 698.125L565.2 696.828L567.082 690.346ZM370.177 541.316L365.887 542.737L347.862 541.38L331.934 535.301L330.73 532.771L326.008 530.672L328.971 532.987L328.2 533.975C319.269 529.119 314.186 524.089 312.951 518.883L310.42 520.087L319.958 532.309L339.065 542.462L356.535 546.565L355.331 544.034L368.85 545.051C371.566 542.932 372.009 541.687 370.177 541.316ZM466.64 621.434L463.121 621.866C461.434 622.669 461.835 623.512 464.325 624.397L466.64 621.434ZM471.578 625.291C469.377 626.752 469.521 627.925 472.011 628.81C474.212 627.349 474.068 626.176 471.578 625.291ZM392.773 565.328L392.002 566.315L399.997 580.513L402.282 591.84L403.27 592.612C404.463 582.94 400.964 573.846 392.773 565.328ZM495.501 645.567L490.995 645.228C488.505 644.344 486.303 645.805 484.39 649.612C485.851 651.814 487.024 651.669 487.909 649.179L490.656 649.735L484.822 653.131C482.621 654.592 482.765 655.765 485.255 656.649L486.243 657.421L481.181 659.829L483.373 663.131C481.397 661.588 479.453 662.72 477.539 666.527L482.046 666.866L482.262 668.625L477.2 671.033C474.999 672.494 475.143 673.667 477.633 674.552L480.164 673.348L478.837 677.083L472.787 678.719L473.004 680.479L477.51 680.818L478.714 683.348L476.183 684.552L472.448 683.226L471.893 685.973L477.603 688.843L487.604 690.292L487.078 678.749L493.712 660.074L494.946 648.315C497.147 646.853 497.332 645.938 495.501 645.567ZM461.145 620.323L458.615 621.527L459.602 622.299L461.145 620.323ZM195.096 417.286L196.178 426.082L205.161 441.051C209.256 445.31 212.734 446.966 215.594 446.019L204.296 434.014L195.096 417.286ZM562.763 706.057L559.028 704.73L556.713 707.694C559.203 708.578 559.347 709.751 557.146 711.212L554.399 710.657L553.843 713.404L555.819 714.947L550.202 720.102L552.394 723.404L550.418 721.861L549.091 725.596C547.404 726.399 547.805 727.243 550.295 728.127L547.764 729.331L548.968 731.862L546.993 730.319C544.791 731.78 544.936 732.953 547.425 733.837L541.686 745.258L542.673 746.03L549.401 735.381L559.893 711.767C564.296 708.845 565.253 706.942 562.763 706.057ZM309.122 509.531L308.351 510.519L310.326 512.062L309.122 509.531ZM374.315 560.453L365.735 563.293L368.698 565.608L377.711 566.286L381.662 569.372L387.898 583.786L388.517 603.354L382.345 611.256L384.321 612.799C391.296 606.584 393.836 600.617 391.943 594.897L388.576 574.773C386.168 569.711 381.415 564.938 374.315 560.453ZM417.993 596.16L415.462 597.364L416.45 598.135L417.993 596.16ZM374.192 566.718L367.927 566.595L373.082 572.212L375.829 572.768L380.861 584.65L380.738 590.916L378.885 583.107L376.138 582.552L378.33 585.854L378.178 606.411L379.166 607.182L380.709 605.207L379.844 598.17L382.035 601.472L383.023 602.244L383.918 594.99L382.743 578.169L374.192 566.718ZM355.857 555.578L355.086 556.565L356.073 557.337L355.857 555.578ZM351.134 553.479L342.677 550.054L340.146 551.258L349.591 555.455L351.134 553.479ZM353.11 555.022L352.338 556.01L353.326 556.782L353.11 555.022ZM376.477 578.046L375.922 580.793L376.91 581.564L376.477 578.046ZM407.098 601.963L404.567 603.167L405.771 605.698L407.098 601.963ZM354.407 565.578L349.129 566.227L358.452 576.689L364.349 595.609L362.467 602.091L364.442 603.634L365.676 591.874L362.742 575.269L354.407 565.578ZM365.705 577.584L367.342 583.633C369.894 589.868 369.843 596.72 367.189 604.19L368.393 606.72L371.386 594.744L367.681 579.127L365.705 577.584ZM323.973 557.711L299.25 552.713L272.088 556.944L255.144 564.384C251.544 568.994 247.14 571.916 241.935 573.151C239.733 574.613 239.877 575.785 242.367 576.67L251.719 572.842C252.603 570.352 253.776 570.208 255.237 572.409L259.528 570.989L261.071 569.013L263.046 570.557L280.856 570.154C282.975 572.87 284.22 573.312 284.59 571.48L308.326 575.707L309.314 576.478C304.767 578.228 299.931 577.631 294.807 574.689L290.517 576.11L300.95 581.078L308.081 588.238L310.489 593.3L311.354 600.337L311.693 595.831L315.427 597.157L314.41 610.677L310.213 620.122L311.201 620.893L316.602 613.979L321.138 600.027L319.624 587.712L320.396 586.724L324.996 595.088L324.873 601.354L321.325 616.077L315.708 621.232L315.152 623.979C312.951 625.441 313.095 626.614 315.585 627.498C324.617 618.649 328.886 609.79 328.391 600.922L329.286 593.668L332.681 599.501C333.917 604.707 333.392 610.129 331.109 615.768L325.153 625.429L329.998 621.262L335.738 609.841C335.388 602.145 333.607 594.923 330.396 588.174L320.302 578.699L321.074 577.712L331.939 586.199L336.755 596.322L336.077 605.335L337.497 609.625L338.947 599.624L341.262 596.661C338.772 595.776 338.371 594.933 340.058 594.13C339.563 585.262 333.533 577.371 321.968 570.458L332.618 577.186L334.377 576.97L335.581 579.5L342.495 584.901L337.679 574.778L338.235 572.031L346.446 587.987C348.278 588.358 347.835 589.602 345.119 591.722C348.926 593.635 350.46 596.423 349.719 600.086L347.498 611.075L350.245 611.63L352.466 600.642C353.452 584.447 343.955 570.137 323.973 557.711ZM380.153 607.954C375.092 610.362 374.135 612.265 377.283 613.664L380.153 607.954ZM486.832 691.28L473.313 690.263L472.542 691.251L482.975 696.219L483.191 697.978C487.45 693.883 488.664 691.65 486.832 691.28ZM343.483 585.673L342.711 586.66L343.699 587.432L343.483 585.673ZM482.203 697.207L475.937 697.084L470.782 691.467L468.252 692.671L470.443 695.973L479.889 700.17L482.203 697.207ZM469.981 706.745L464.487 705.635L465.907 709.925L461.834 713.104L460.846 712.333C463.047 710.872 462.903 709.699 460.413 708.814L458.315 713.537L459.519 716.068L455.013 715.729L451.371 722.427L450.6 723.415L450.383 721.655L449.396 720.884C446.68 723.003 446.567 724.505 449.056 725.39L448.501 728.137L461.494 717.611L465.352 712.672L470.414 710.264L469.981 706.745ZM541.533 765.815L541.194 770.321L544.158 772.636L541.533 765.815ZM545.145 773.407L544.374 774.395L545.362 775.166L545.145 773.407ZM322.219 608.824L319.688 610.028L320.676 610.799L322.219 608.824ZM342.962 625.026C331.584 634.163 319.444 639.525 306.543 641.111L308.518 642.654C319.074 641.356 329.012 637.456 338.333 630.953L342.962 625.026ZM313.545 603.639L311.014 604.843L312.218 607.374L313.545 603.639ZM297.063 600.307L295.736 604.042L286.045 612.377L271.415 616.854C257.485 619.757 243.194 619.727 228.543 616.765L226.012 617.969L231.939 622.599L237.433 623.709L251.817 631.764L265.553 634.54L277.096 634.014L292.498 628.55C294.411 624.743 296.612 623.282 299.102 624.166L303.732 618.24C297.271 623.796 290.851 627.264 284.473 628.643L261.602 631.454L250.613 629.233L248.638 627.69L255.891 628.584C268.793 626.999 281.55 624.24 294.163 620.309L295.707 618.333L292.959 617.778L274.04 623.675L271.292 623.12L285.49 615.124L287.033 613.148L298.483 604.598L297.063 600.307ZM447.513 727.366L442.113 734.28L445.415 732.088L447.513 727.366ZM433.287 749.652L429.429 754.591L430.417 755.362L433.287 749.652ZM431.405 756.134L430.849 758.881C433.051 757.42 433.236 756.504 431.405 756.134Z" fill="#0A0A0A"/>
<path opacity="0.996078" d="M449.913 336.409C456.048 339.822 458.605 343.675 457.584 347.967L453.82 360.931L451.073 360.376L449.577 366.364C448.218 364.031 446.917 364.339 445.672 367.29L440.225 370.192L437.863 369.143C438.709 371.182 437.902 371.877 435.441 371.227C434.089 369.428 433.08 369.701 432.416 372.045L429.947 370.116L426.998 360.656C427.59 354.333 431.231 347.635 437.922 340.562C441.71 337.477 445.707 336.093 449.913 336.409ZM446.549 341.734L443.031 342.166L436.858 350.068L435.193 358.31L437.94 358.865L439.606 350.624L442.353 351.179L441.242 356.673L443.773 355.469L441.458 358.432L443.434 359.975L445.1 351.734C446.499 348.586 447.929 348.112 449.39 350.314L447.508 356.796L448.495 357.567L451.365 351.857C453.279 348.05 451.673 344.676 446.549 341.734Z" fill="#0A0A0A"/>
<path opacity="0.996078" d="M645.555 511.489C651.595 514.616 654.409 518.139 653.998 522.059L653.442 524.806L652.347 523.155L645.987 515.007L645.555 511.489Z" fill="#0A0A0A"/>
<path opacity="0.996078" d="M332.144 460.715C336.91 463.165 338.736 465.917 337.623 468.97L338.243 488.539L324.507 485.763L323.782 490.763L327.549 503.248L328.876 499.513L328.259 505.393L332.427 510.238L333.26 506.117L331.731 500.948L332.178 497.321C330.106 496.445 330.127 495.4 332.24 494.188L337.889 500.191L340.715 515.916L338.076 516.241L324.679 508.958L322.116 499.004L322.841 494.004L322.807 457.397L332.144 460.715ZM330.107 462.304L329.335 463.292L330.323 464.064L330.107 462.304ZM329.768 466.811L329.984 468.57L328.102 475.052L330.51 480.114L331.188 471.101L329.768 466.811Z" fill="#0A0A0A"/>
<path opacity="0.996078" d="M304.919 442.631L303.87 444.992C306.214 445.657 306.487 446.665 304.688 448.017L304.103 465.055L298.501 463.065L299.364 444.653L303.484 445.486L301.292 442.184L304.919 442.631Z" fill="#0A0A0A"/>
<path opacity="0.996078" d="M302.245 566.185L303.341 567.836C289.819 564.378 276.737 564.498 264.095 568.195L265.746 567.099C272.709 563.207 279.968 561.72 287.521 562.637L302.245 566.185Z" fill="#0A0A0A"/>
<path opacity="0.996078" d="M269.595 620.203L268.932 622.07L256.508 622.704L269.595 620.203Z" fill="#0A0A0A"/>
</svg>
