<svg width="320" height="458" viewBox="0 0 320 458" fill="none" xmlns="http://www.w3.org/2000/svg">
<path opacity="0.996078" d="M232.667 0L237.333 2C238.933 3.95556 239.378 7.06667 238.667 11.3333L240 12.6667V34L232 60.6667C227.378 70.7111 221.378 79.3778 214 86.6667L197.333 98L209.333 114L214.667 124.667V127.333L220 135.333L222 146.667L246 148C250.089 148.8 252.978 150.8 254.667 154C256.444 156.222 256.889 159.778 256 164.667L258 166.667L262.667 158L261.333 156.667V142L268 132.667V124.667L273.333 114L278 109.333L280.667 108L288 114L288.667 116C290.711 111.378 295.156 109.156 302 109.333C305.111 110.222 306.222 113.111 305.333 118L304 120.667L306 120C310.711 118.933 313.6 119.6 314.667 122V127.333L320 134L318.667 138L304 152.667L299.333 164L297.333 164.667C297.867 169.2 297.422 172.756 296 175.333C297.6 176.044 298.044 177.822 297.333 180.667L292 190L290.667 200.667L286.667 212.667L280 226L276.667 229.333L260 243.333L264 272.667C262.222 273.556 262.222 274.444 264 275.333C264.533 279.867 264.089 283.422 262.667 286L252.667 296L250.667 296.667L256.667 298.667H266L273.333 303.333C276.711 307.511 277.6 314.178 276 323.333C273.511 331.067 269.289 337.067 263.333 341.333L259.333 342.667L246.667 343.333L244 356.667L240 366V371.333L249.333 384.667V392.667L241.333 410V414L237.333 423.333V428.667L233.333 440.667C230.933 446.711 227.156 451.378 222 454.667C219.6 457.156 215.6 458.044 210 457.333L202.667 451.333C199.911 447.422 199.022 441.644 200 434L202.667 426L205.333 423.333V420.667L210.667 411.333L212 403.333L210 401.333L198 398.667L184.667 390.667L176 383.333L172 375.333V371.333L169.333 364.667V358L167.333 353.333C161.733 357.511 154.178 359.733 144.667 360L142.667 362C149.6 366.178 153.6 373.289 154.667 383.333L153.333 384.667V390L150.667 398L148 402L144 427.333L138.667 439.333L130 449.333C128.4 450.844 125.733 451.289 122 450.667C117.911 449.867 115.022 447.867 113.333 444.667C110.933 441.289 109.6 436.844 109.333 431.333L110.667 430V424.667L113.333 416.667L122.667 398V392.667L96.6667 384H92.6667L86 380H83.3333L73.3333 372.667L69.3333 364.667V346C74.1333 329.911 82.3556 317.244 94 308C102.356 303.911 109.689 298.8 116 292.667C118.311 291.422 119.2 288.756 118.667 284.667L116 278L114.667 264.667L111.333 257.333L107.333 261.333L96.6667 264L95.3333 262.667H80.6667C79.6 260.711 76.9333 260.267 72.6667 261.333L56.6667 256C48.4 247.378 38.6222 240.267 27.3333 234.667L20.6667 228H11.3333L1.33333 219.333L0 212.667L2.66667 208.667C0.888889 207.778 0.444444 205.556 1.33333 202L7.33333 196L15.3333 193.333H20.6667C35.6889 198.311 48.1333 205.867 58 216L80.6667 217.333L82 216L90 214.667L97.3333 210V207.333L108 188.667L105.333 184.667L102.667 174L93.3333 160.667L92 148.667L90.6667 147.333V139.333L92 138L93.3333 126L98.6667 114L116.667 92L129.333 84.6667V67.3333L130.667 66V54L132 52.6667L133.333 43.3333L149.333 15.3333L159.333 5.33333C162 4.88889 163.556 5.55556 164 7.33333L168 19.3333V51.3333L166.667 52.6667L165.333 71.3333L162.667 78C164.267 80.9333 167.156 82.4889 171.333 82.6667L173.333 71.3333L178.667 55.3333L186.667 40.6667L212.667 14.6667C218.178 8.62222 224.844 3.73333 232.667 0ZM232 6.66667L220 16L193.333 42.6667L189.333 49.3333V52H188V54.6667H186.667L184 58.6667L185.333 62.6667H184L182.667 66.6667H181.333C179.556 67.5556 180 68.8889 182.667 70.6667L181.333 73.3333H178.667C177.778 76 178.222 78.2222 180 80L178.667 82.6667L180 86.6667H178.667V89.3333V94.6667C174.222 90.2222 168.444 87.1111 161.333 85.3333H144C142.222 87.1111 139.556 87.5556 136 86.6667L116 100L117.333 101.333L122.667 97.3333H133.333L134.667 96L153.333 98.6667L173.333 108C179.556 112.444 184 119.556 186.667 129.333H189.333V128L194.667 124L193.333 121.333H196L192 112L193.333 109.333L196 116H197.333C196.444 110.667 194.667 106.667 192 104L188 105.333L184 104C185.778 101.333 186.222 97.3333 185.333 92L186.667 90.6667V77.3333C188.444 74.6667 189.333 71.5556 189.333 68C192.889 56.4444 198.222 46.6667 205.333 38.6667L214.667 29.3333C220.889 26.6667 226.222 22.6667 230.667 17.3333L232 21.3333C229.333 23.1111 228.444 26.6667 229.333 32L224 38.6667H226.667H228L225.333 45.3333H224L221.333 50.6667L214.667 54.6667L212 58.6667L209.333 60L210.667 61.3333L224 52L222.667 54.6667L221.333 57.3333L209.333 66.6667V68H212L216 65.3333L220 61.3333V62.6667L216 69.3333L212 70.6667L205.333 77.3333H206.667L209.333 76L212 77.3333L213.333 74.6667V77.3333C210.667 81.7778 205.778 84.4444 198.667 85.3333L202.667 86.6667L210.667 82.6667L217.333 76L225.333 62.6667C226.222 56.4444 228 51.5556 230.667 48L232 34.6667L233.333 33.3333V24L234.667 22.6667L233.333 8L232 6.66667ZM160 9.33333L141.333 40V44L137.333 50.6667C139.111 55.1111 138.667 58.2222 136 60V72C137.778 72 138.222 74.2222 137.333 78.6667H134.667L136 81.3333C139.556 82.2222 142.667 81.7778 145.333 80L144 76L149.333 78.6667C150.222 75.1111 151.556 74.6667 153.333 77.3333L154.667 76H160L158.667 74.6667L154.667 70.6667L156 61.3333L157.333 68C159.111 67.1111 159.111 66.2222 157.333 65.3333C159.111 61.7778 159.556 57.3333 158.667 52L161.333 50.6667V41.3333L162.667 40V22.6667L161.333 21.3333C162.222 16 161.778 12 160 9.33333ZM220 30.6667V32H221.333L220 30.6667ZM216 33.3333L214.667 36L217.333 34.6667L216 33.3333ZM225.333 33.3333L224 36L226.667 34.6667L225.333 33.3333ZM218.667 38.6667L217.333 41.3333L220 40L218.667 38.6667ZM222.667 38.6667L216 44L217.333 45.3333L224 40L222.667 38.6667ZM213.333 41.3333L209.333 44L210.667 45.3333L216 42.6667L213.333 41.3333ZM214.667 45.3333L213.333 48H214.667V45.3333ZM213.333 48L212 50.6667H213.333V48ZM209.333 50.6667V52H210.667L209.333 50.6667ZM204 61.3333V62.6667H205.333L204 61.3333ZM208 78.6667V80H209.333L208 78.6667ZM126.667 100L113.333 105.333C104.444 110.667 98.6667 119.556 96 132V156L100 165.333C105.333 173.333 113.778 178.667 125.333 181.333H150.667C150.667 179.556 152.889 179.111 157.333 180L172 172L180 161.333L181.333 152L182.667 150.667V141.333L184 140L182.667 129.333L176 117.333L164 106.667L152 102.667H146.667L140 100H126.667ZM281.333 113.333L278.667 114.667L276 117.333L272 129.333L273.333 130.667L281.333 128C282.222 127.111 281.333 126.222 278.667 125.333L281.333 122.667L278.667 121.333L277.333 120L282.667 118.667V114.667L281.333 113.333ZM300 113.333L297.333 114.667C295.556 115.556 294.667 117.333 294.667 120C292.889 123.556 291.556 124 290.667 121.333L285.333 128C286.222 129.778 288.889 130.222 293.333 129.333V125.333L298.667 122.667L296 121.333L301.333 118.667C302.222 116 301.778 114.222 300 113.333ZM198.667 116L197.333 118.667H198.667V116ZM200 124L197.333 125.333L193.333 129.333L188 140V154.667L189.333 157.333L192 158.667L190.667 154.667L192 146.667L193.333 150.667L194.667 148L197.333 158.667L201.333 161.333L198.667 157.333C199.556 152.889 199.111 150.667 197.333 150.667V138.667C199.111 137.778 199.556 136 198.667 133.333C200.444 129.778 204 128 209.333 128L204 124H200ZM310.667 124L306.667 125.333C305.778 127.111 304.889 127.111 304 125.333L297.333 132L298.667 134.667H302.667L300 133.333C305.333 131.556 309.333 128.889 312 125.333L310.667 124ZM280 130.667L274.667 133.333L266.667 144V158.667L268 161.333L276 166.667C281.333 167.556 285.333 167.111 288 165.333L276 162.667L274.667 160L284 161.333V160L276 158.667L280 157.333L278.667 156L282.667 154.667L278.667 149.333L281.333 148L280 146.667C279.111 142.222 279.556 140 281.333 140L274.667 138.667L284 133.333C284.889 135.111 287.556 135.556 292 134.667L293.333 137.333L296 136L294.667 134.667L293.333 133.333L290.667 132C289.778 130.222 288.889 130.222 288 132C286.222 130.222 283.556 129.778 280 130.667ZM208 132C204.444 133.778 202.222 136.889 201.333 141.333C200.444 148.444 201.333 154.222 204 158.667C205.778 161.333 207.111 161.333 208 158.667L204 154.667C204.889 151.111 204.444 149.333 202.667 149.333L205.333 137.333L209.333 134.667V133.333L208 132ZM310.667 133.333L305.333 140L309.333 141.333L314.667 134.667L310.667 133.333ZM212 134.667L210.667 137.333H212V134.667ZM220 152L218.667 157.333C224.889 156.444 229.333 157.333 232 160C234.667 162.667 235.556 167.556 234.667 174.667C236.444 175.556 236.444 176.444 234.667 177.333L236 178.667L237.333 188H238.667L237.333 186.667V168C239.111 167.111 239.111 166.222 237.333 165.333C236.444 161.778 237.333 159.556 240 158.667L242.667 180C244.444 179.111 245.333 176.889 245.333 173.333L246.667 176L250.667 170.667C251.556 164.444 251.111 160 249.333 157.333L248 154.667L237.333 153.333L236 152H220ZM266.667 164L265.333 168L261.333 170.667L262.667 173.333L261.333 176L262.667 180L269.333 184L277.333 185.333L278.667 186.667H281.333L270.667 180L288 176V174.667H278.667L277.333 176C272 176.889 268.444 176.444 266.667 174.667L268 172L274.667 174.667V173.333L288 172L282.667 169.333H276L266.667 164ZM196 169.333L181.333 177.333V174.667L166.667 182.667C160.444 182.667 156 184 153.333 186.667H145.333L144 188C128.889 188.889 117.778 186.222 110.667 180L109.333 182.667L116 186.667C118.667 186.667 120.889 187.556 122.667 189.333H129.333L130.667 190.667H146.667L148 189.333L161.333 188L165.333 185.333L182.667 180L200 170.667L196 169.333ZM257.333 178.667C256.444 183.111 254.667 186.222 252 188V194.667L248 193.333L244 198.667L241.333 206.667V210.667L245.333 217.333V218.667L242.667 217.333L237.333 212V202.667L238.667 201.333V194.667L233.333 204L232 221.333L229.333 218.667C228.444 211.556 228.889 206.667 230.667 204C229.778 202.222 228.889 202.667 228 205.333C226.222 204.444 226.667 203.556 229.333 202.667V198.667L225.333 205.333L222.667 208H221.333L226.667 197.333L230.667 193.333V192L222.667 196L214.667 205.333L212 206.667L217.333 197.333L226.667 189.333H232L229.333 186.667C218.667 186.667 211.556 189.333 208 194.667H204L210.667 189.333L209.333 186.667L205.333 189.333C197.333 195.556 192 204.444 189.333 216V230.667C191.111 231.556 191.556 233.778 190.667 237.333L197.333 249.333L209.333 258.667H218.667L220 256L216 257.333L209.333 254.667L205.333 252L206.667 250.667C207.556 252.444 210.222 252.889 214.667 252V250.667C209.333 250.667 205.778 249.333 204 246.667L216 245.333C211.556 245.333 208.444 244 206.667 241.333L200 236L198.667 229.333L194.667 224V210.667L200 198.667L202.667 197.333C200.889 197.333 200.444 199.556 201.333 204L197.333 208C198.222 210.667 197.778 212.444 196 213.333C197.778 215.111 198.222 218.222 197.333 222.667L201.333 228L202.667 225.333V232L206.667 234.667L205.333 230.667L206.667 217.333V224L210.667 232H212L210.667 228L212 220L214.667 226.667L216 224V233.333L218.667 234.667L221.333 224L224 222.667C222.222 223.556 221.778 226.222 222.667 230.667L229.333 233.333H230.667L228 226.667L229.333 222.667L230.667 228L237.333 233.333C238.222 231.556 239.556 232 241.333 234.667H244L242.667 233.333L234.667 224L236 214.667L237.333 224L250.667 234.667H252L249.333 232L245.333 228H248V226.667V224C250.667 227.556 256 228.889 264 228L265.333 225.333L262.667 226.667L252 222.667L250.667 220V217.333L256 221.333H265.333L261.333 218.667L253.333 212L254.667 210.667L261.333 214.667C264.889 213.778 267.556 214.222 269.333 216H276L266.667 212L261.333 208L262.667 206.667L269.333 209.333H276L265.333 205.333L261.333 202.667L262.667 201.333C265.333 201.333 267.556 202.222 269.333 204H280L266.667 198.667L260 192L261.333 188L264 194.667L270.667 197.333H278.667L269.333 193.333L264 189.333L265.333 188L272 192C276.444 192.889 280 192.444 282.667 190.667L273.333 189.333L268 185.333H265.333L257.333 178.667ZM188 184V185.333H189.333L188 184ZM184 185.333L176 189.333L162.667 190.667L154.667 193.333L150.667 192L148 193.333H125.333C123.556 191.556 121.333 191.111 118.667 192L114.667 189.333L113.333 192L121.333 198.667C122.222 200.444 124.889 200.889 129.333 200L130.667 201.333H158.667L160 200L169.333 198.667V197.333L158.667 198.667L157.333 200H144L157.333 197.333L158.667 196H165.333L180 189.333H182.667L186.667 186.667L184 185.333ZM193.333 188L188 192L182.667 198.667L178.667 201.333V204V205.333L176 204L172 212V228L173.333 229.333C172.444 232.889 172.889 235.556 174.667 237.333L180 240L176 241.333L185.333 260H188V262.667C188.889 263.556 190.222 262.667 192 260L193.333 261.333L190.667 265.333L194.667 266.667L200 265.333C200.889 266.222 200 267.556 197.333 269.333L202.667 270.667L205.333 269.333V273.333H208C208.889 271.556 209.778 271.556 210.667 273.333L213.333 269.333L202.667 262.667L190.667 249.333L185.333 237.333C187.111 232 186.667 228.889 184 228V217.333L185.333 216L184 213.333L190.667 198.667L197.333 192V190.667L190.667 194.667H189.333L194.667 189.333L193.333 188ZM170.667 196V197.333H172L170.667 196ZM281.333 197.333V198.667H284L281.333 197.333ZM14.6667 198.667L8 201.333L5.33333 205.333L21.3333 210.667C24 211.556 25.7778 210.667 26.6667 208L28 209.333L25.3333 210.667L34.6667 214.667L36 212V217.333L40 220L38.6667 222.667L28 218.667L24 221.333L25.3333 226.667L36 232L38.6667 230.667C39.5556 232.444 42.2222 232.889 46.6667 232L45.3333 234.667L46.6667 237.333L49.3333 236L53.3333 237.333L58.6667 234.667C59.5556 229.333 59.1111 225.333 57.3333 222.667L37.3333 205.333L21.3333 198.667H14.6667ZM109.333 200C106.667 201.778 104.889 204.444 104 208L105.333 212V213.333L104 210.667L101.333 212L100 214.667C101.778 215.556 101.778 216.444 100 217.333L104 226.667L108 228V221.333C106.222 220.444 106.222 219.556 108 218.667L106.667 216C108.444 214.222 108.889 211.556 108 208L109.333 206.667V200ZM116 206.667L114.667 210.667L117.333 216C116.444 216.889 115.556 216 114.667 213.333L112 214.667L113.333 242.667L114.667 244L116 256L120 266.667L130.667 274.667L141.333 276L148 278.667H150.667V276L148 273.333L138.667 253.333L137.333 242.667L136 241.333V228L128 220L120 213.333V210.667L116 206.667ZM126.667 209.333L125.333 210.667L134.667 218.667H141.333L142.667 217.333L157.333 214.667L169.333 210.667V209.333L157.333 210.667L156 212H134.667L126.667 209.333ZM6.66667 213.333L4 214.667L2.66667 216L6.66667 218.667L10.6667 216C11.5556 216.889 10.6667 218.222 8 220H10.6667L14.6667 216V217.333L12 221.333H14.6667L17.3333 216L6.66667 213.333ZM92 217.333L89.3333 221.333H92L96 232V236L92 226.667C91.1111 222.222 87.5556 220.444 81.3333 221.333C79.5556 222.222 80 223.556 82.6667 225.333V228L76 222.667V225.333V228L72 226.667L70.6667 224L68 221.333L61.3333 222.667L62.6667 226.667L64 224L65.3333 228V236L62.6667 244L64 245.333C68.4444 243.556 70.2222 238.667 69.3333 230.667H70.6667C72.4444 235.111 72 238.222 69.3333 240L70.6667 241.333L73.3333 237.333L74.6667 238.667V248L73.3333 249.333L74.6667 250.667C77.3333 248.889 79.1111 245.778 80 241.333L82.6667 240C80.8889 241.778 80.4444 244.889 81.3333 249.333L78.6667 253.333H82.6667C86.2222 250.667 88 246.222 88 240L89.3333 253.333V250.667L94.6667 244V241.333L97.3333 240L98.6667 246.667L97.3333 250.667L100 249.333V240L98.6667 238.667H101.333H102.667L100 229.333V226.667L102.667 232L105.333 233.333V230.667L100 222.667C99.1111 218.222 96.4444 216.444 92 217.333ZM164 217.333L162.667 218.667H157.333L156 220L142.667 222.667L140 225.333C140.889 228 140.444 230.222 138.667 232V240L145.333 258.667V262.667C148 268.889 152.444 274.222 158.667 278.667H168C168 276.889 169.778 276.444 173.333 277.333L184 272L169.333 240L168 228L166.667 226.667V218.667L164 217.333ZM108 229.333L106.667 232L109.333 233.333L108 229.333ZM38.6667 232V233.333H40L38.6667 232ZM66.6667 244L65.3333 246.667L68 245.333L66.6667 244ZM242.667 244L241.333 250.667L240 252C239.111 255.556 239.556 258.222 241.333 260L242.667 282.667V273.333L244 272L242.667 244ZM252 244C252.889 245.778 252.889 250.222 252 257.333L253.333 258.667V277.333L256 278.667V268L254.667 266.667V248L253.333 245.333L252 244ZM230.667 262.667L228 269.333L229.333 270.667H230.667V262.667ZM216 269.333L210.667 274.667H212L216 272V269.333ZM226.667 269.333L225.333 272H228L226.667 269.333ZM221.333 270.667L216 276H217.333L221.333 273.333V270.667ZM124 274.667C122.222 276.444 122.222 277.778 124 278.667L122.667 284C125.333 287.556 129.333 290.222 134.667 292L145.333 293.333L152 296H161.333L160 290.667L162.667 289.333L164 286.667C165.778 287.556 166.222 289.778 165.333 293.333L169.333 296C170.222 294.222 173.333 293.778 178.667 294.667L202.667 285.333V284C199.111 285.778 194.667 286.222 189.333 285.333L188 286.667H184L192 282.667H196C198.667 281.778 198.667 280.444 196 278.667L194.667 280H186.667L181.333 282.667L168 284L166.667 285.333L144 284L142.667 282.667L132 281.333L126.667 278.667L124 274.667ZM200 281.333V282.667H201.333L200 281.333ZM217.333 286.667L216 288H210.667L202.667 290.667L190.667 296L189.333 298.667L184 302.667H181.333L188 298.667V297.333C183.556 297.333 180.444 298.222 178.667 300H173.333L172 301.333H158.667L157.333 300L141.333 298.667L129.333 293.333L125.333 289.333L122.667 292C124.444 300.889 127.556 308.889 132 316L134.667 317.333L132 312L133.333 309.333L138.667 321.333L146.667 328L141.333 316L142.667 309.333L144 317.333L152 330.667L157.333 334.667L152 324L153.333 320L161.333 332V334.667H162.667L161.333 324L160 320L161.333 316L165.333 329.333L166.667 338.667L169.333 340L172 321.333L174.667 320L173.333 322.667L174.667 328L181.333 313.333C185.778 307.111 192 302.667 200 300L218.667 296V294.667C211.556 293.778 206.667 294.222 204 296L202.667 294.667L214.667 289.333H218.667V288L217.333 286.667ZM225.333 294.667V296H228L225.333 294.667ZM120 297.333L113.333 301.333L109.333 306.667C103.111 308.444 98.2222 311.556 94.6667 316C84.8889 324 78.2222 334.667 74.6667 348C72.8889 356 73.7778 362.222 77.3333 366.667L88 374.667H90.6667L85.3333 370.667L80 365.333L81.3333 354.667L84 364L93.3333 370.667L101.333 372L102.667 373.333H112L113.333 374.667H117.333L116 372L108 370.667L98.6667 365.333L93.3333 361.333L94.6667 360L100 364H105.333L112 366.667H118.667L114.667 365.333L102.667 358.667L97.3333 354.667L98.6667 353.333L118.667 362.667H124L104 352L105.333 349.333L112 353.333H113.333L106.667 345.333L109.333 344V346.667L117.333 350.667L120 349.333L126.667 352H132L121.333 345.333L116 341.333L117.333 340L130.667 345.333H136L124 337.333L116 330.667L117.333 329.333L124 334.667H126.667L140 341.333H141.333L136 336L134.667 334.667L133.333 333.333L128 329.333L129.333 328L132 329.333L130.667 328C131.556 326.222 132.889 326.667 134.667 329.333L136 326.667V329.333L145.333 336L138.667 329.333H141.333C138.667 325.778 136.889 321.778 136 317.333L134.667 320L121.333 302.667V298.667L120 297.333ZM212 298.667C210.222 300.444 207.556 300.889 204 300L192 305.333L181.333 317.333V320L174.667 334.667V344L173.333 345.333V357.333L174.667 358.667L176 370.667L182.667 382.667C188 387.111 194.667 391.111 202.667 394.667H221.333L225.333 393.333V392H210.667L209.333 393.333L208 392L200 390.667L193.333 386.667L189.333 384L190.667 382.667L201.333 386.667L204 389.333L210.667 390.667V389.333L206.667 386.667L201.333 382.667L202.667 381.333C206.222 381.333 208.444 382.667 209.333 385.333L213.333 382.667L216 384H221.333C219.556 381.333 217.333 380 214.667 380L210.667 373.333L212 369.333L214.667 368L220 374.667V373.333C218.222 372.444 218.222 371.556 220 370.667C220 367.111 219.111 364.889 217.333 364C216.444 359.556 216.889 357.333 218.667 357.333L217.333 354.667L213.333 350.667L214.667 349.333L217.333 350.667L220 356L224 368V373.333L228 376C228 368.889 226.222 364 222.667 361.333L225.333 360L220 348L221.333 342.667L229.333 352L230.667 357.333H232L230.667 346.667L220 332L222.667 330.667L233.333 344H234.667L232 332C228.444 329.333 226.222 326.222 225.333 322.667L218.667 316V314.667L222.667 316L229.333 325.333L233.333 328L230.667 320C229.778 316.444 227.111 314.667 222.667 314.667L226.667 313.333L221.333 310.667V309.333L230.667 312L236 320L240 322.667L238.667 317.333C234.222 312 228.889 308 222.667 305.333H209.333L208 306.667H205.333L220 301.333L232 304L237.333 308H238.667L234.667 302.667L224 298.667L220 300C218.222 298.222 215.556 297.778 212 298.667ZM264 305.333C262.222 307.111 259.556 307.556 256 306.667L249.333 310.667C250.222 316.889 252 322.667 254.667 328H257.333L260 333.333V325.333L262.667 324V328L265.333 329.333L264 333.333L266.667 332V322.667L262.667 313.333L265.333 312L270.667 324L272 320C272.889 314.667 272.444 311.111 270.667 309.333C269.778 306.667 267.556 305.333 264 305.333ZM214.667 372L213.333 374.667H214.667V372ZM92 374.667L90.6667 376L94.6667 377.333H96C96 375.556 94.6667 374.667 92 374.667ZM217.333 376V378.667H224L217.333 376ZM210.667 385.333L212 388L216 389.333H221.333L222.667 388C226.222 388.889 228.889 388.444 230.667 386.667V385.333L226.667 386.667H213.333L210.667 385.333ZM228 390.667V392H229.333L228 390.667ZM237.333 396L229.333 400L218.667 402.667L220 404C228 403.111 234.222 400.889 238.667 397.333L237.333 396ZM136 398.667V400H137.333L136 398.667ZM144 400L141.333 405.333L144 404V400ZM126.667 401.333L117.333 421.333L116 432L114.667 433.333C114.667 436.889 116 439.111 118.667 440L122.667 426.667L124 432L122.667 444H125.333L129.333 438.667L133.333 424L136 422.667C136.889 425.333 136.444 427.111 134.667 428L136 432L138.667 425.333C137.778 420.889 138.222 417.778 140 416L138.667 414.667L137.333 420H136L137.333 412L140 410.667C134.667 410.667 131.111 409.778 129.333 408V406.667C132 405.778 133.778 406.222 134.667 408C137.333 408.889 138.667 408.444 138.667 406.667C132.444 406.667 128.444 404.889 126.667 401.333ZM136 402.667V404H138.667L136 402.667ZM233.333 402.667C229.778 405.333 224.889 406.667 218.667 406.667L220 408C221.778 406.222 224.889 405.778 229.333 406.667L234.667 404L233.333 402.667ZM218.667 409.333L216 412H222.667L224 413.333H233.333L226.667 412L233.333 410.667V409.333C228.889 408.444 226.222 408.889 225.333 410.667C220.889 411.556 218.667 411.111 218.667 409.333ZM216 414.667C215.111 416.444 216 417.333 218.667 417.333H214.667L209.333 425.333L205.333 437.333C204.444 443.556 205.778 447.556 209.333 449.333L210.667 436L213.333 434.667L212 440C213.778 440.889 213.778 441.778 212 442.667C213.778 443.556 214.222 446.222 213.333 450.667H217.333L218.667 434.667L221.333 432L222.667 446.667L230.667 433.333L232 421.333L222.667 418.667V417.333L233.333 418.667V417.333L228 416L226.667 414.667H216Z" fill="#060606"/>
<path opacity="0.996078" d="M232.667 220L236 220.667L235.333 222.667L232 222L232.667 220Z" fill="#060606"/>
<path opacity="0.996078" d="M127.333 105.333H136.667L138 106.667L152.667 108C161.2 110.578 168.089 114.8 173.333 120.667C177.867 126.8 180.089 135.245 180 146L178.667 147.333L177.333 156.667L173.333 164.667L163.333 174.667L151.333 178.667H130C128.845 176.622 126.178 176.178 122 177.333L112.667 172H110L102.667 164.667L98.6668 155.333L97.3335 142C99.5557 140.667 100 137.556 98.6668 132.667L102.667 122L112.667 110.667L120.667 106.667C124.222 107.556 126.445 107.111 127.333 105.333ZM126.667 114.667L120 118.667C112 123.111 108 132 108 145.333L110.667 144V152L114.667 153.333C114.667 142.667 117.333 134.667 122.667 129.333L130.667 122.667L134.667 118.667V116L126.667 114.667Z" fill="#060606"/>
</svg>
