<svg width="512" height="568" viewBox="0 0 512 568" fill="none" xmlns="http://www.w3.org/2000/svg">
<path opacity="0.996078" d="M344.798 0H358.927L374.234 2.35483L389.54 9.4193L391.895 8.24189L403.669 10.5967L414.266 15.3064L436.048 34.7337L452.532 67.7012L456.064 80.6528L457.241 93.6043L456.064 99.4914C460.538 104.437 462.108 112.286 460.773 123.04L456.064 141.878L448.999 152.475V160.717L450.177 164.249C448.371 176.965 443.662 186.777 436.048 193.684V200.749L433.693 208.991L423.685 222.531L419.564 225.475L418.387 237.249L413.088 244.902L401.903 251.378C399.94 260.404 396.408 267.861 391.306 273.748L393.072 274.337L414.266 250.789L435.459 237.837L450.765 234.305H460.185L464.894 237.837L480.789 224.297L487.854 212.523L490.209 203.692C493.113 202.515 494.29 203.104 493.741 205.459C495.939 206.871 496.331 210.011 494.918 214.878L490.209 234.894C488.482 240.624 485.538 245.137 481.378 248.434L469.604 254.321L468.427 253.144L462.54 259.031L437.814 268.45H433.693C431.26 277.791 425.961 284.855 417.798 289.644L399.548 299.063L400.137 301.418L404.846 300.24L410.733 301.418L418.975 299.063L421.33 300.24L422.508 299.063H436.637L446.056 306.127C458.379 309.503 468.584 314.997 476.669 322.611H484.91C490.876 319.157 498.333 317.195 507.281 316.724L511.402 319.668L509.636 322.611L488.443 337.917C485.774 340.743 481.457 341.921 475.491 341.45L474.314 340.272L470.781 343.805L464.306 342.627L462.54 339.095L441.935 328.498L440.169 324.966L430.749 328.498H415.443L413.088 329.676H410.733L401.314 330.853L373.645 350.28C386.832 350.045 396.644 353.185 403.08 359.7L423.685 408.562C429.965 410.525 434.87 413.861 438.403 418.57C443.583 425.164 445.938 434.583 445.467 446.828L443.112 453.304L440.169 454.481L438.403 451.538V449.183C437.696 439.293 433.968 432.424 427.217 428.578C415.6 424.104 405.985 417.628 398.371 409.151L386.596 379.127H361.282L356.572 380.304L354.218 379.127L344.21 395.022L347.742 399.732L355.984 423.28L358.339 436.231V449.183L357.161 454.481L369.524 453.304C379.964 456.993 388.794 462.291 396.016 469.199C395.466 471.004 396.055 471.593 397.782 470.965L411.911 476.852L416.032 480.973C419.721 485.526 422.076 491.413 423.096 498.634L425.451 539.844L423.096 550.44C421.369 555.778 418.426 559.899 414.266 562.803C410.341 565.943 404.846 567.513 397.782 567.513L387.185 563.981L383.064 559.86L373.645 535.134V526.303L365.992 522.771L350.685 520.416L342.443 516.884L318.895 513.352L307.71 507.465L301.823 498.634C301.195 490.942 298.84 485.055 294.758 480.973V476.852L277.097 488.038L285.339 503.344L286.516 523.36L287.694 524.537L286.516 525.715V543.376L278.863 556.916L267.089 561.626H258.847C252.803 560.213 248.29 557.269 245.307 552.795L240.597 541.021V533.957L237.065 522.183L235.299 520.416L219.993 512.175C213.478 512.018 208.375 510.448 204.686 507.465L191.146 496.279L187.614 489.215L186.436 479.796L180.549 464.489L178.194 436.231L179.372 432.699L178.194 430.344L180.549 418.57L186.436 404.441V393.845L182.315 392.078L169.953 379.716L161.122 366.175L157.001 367.941C153.626 375.555 148.72 381.639 142.283 386.191L134.63 391.49L133.453 411.506L129.92 427.99C127.095 435.368 122.581 441.059 116.38 445.062L112.259 448.006C107.942 452.951 106.372 460.211 107.55 469.788L101.663 466.844C98.4443 461.821 97.2669 454.756 98.1303 445.651C99.8572 437.566 103.782 431.679 109.904 427.99V396.199V393.845V389.135L114.614 373.829L122.267 363.821L140.517 352.046V346.748L135.219 335.563L121.09 342.627L106.961 343.805C106.019 342.078 105.038 342.274 104.017 344.393C99.3863 356.638 93.303 367.431 85.7675 376.772C69.8332 380.069 57.4704 386.937 48.679 397.377C49.307 399.418 48.3258 400.006 45.7355 399.143L43.9694 396.199C45.3038 385.76 49.4247 378.106 56.3322 373.24L74.5821 362.054L80.4692 342.038L88.711 325.555L92.832 321.434L112.259 309.071C112.887 307.344 112.299 306.755 110.493 307.305C107.118 304.4 102.408 302.831 96.3642 302.595L95.1868 303.772H77.5256L43.3807 293.176C35.7667 290.193 29.6834 285.68 25.1308 279.636L23.9533 270.805L14.534 263.152L7.46956 250.2L2.75991 225.475V223.12L3.93732 211.346L6.29215 207.813C1.03304 202.476 -0.929315 193.841 0.405086 181.91C4.09431 166.368 9.19643 152.239 15.7115 139.523C24.0318 123.903 34.0398 109.97 45.7355 97.7253L69.2837 82.4189L81.0579 78.8867H91.6546C94.0094 80.0641 94.0094 81.2415 91.6546 82.4189C84.2761 86.0296 78.1928 90.9355 73.4047 97.1366C60.9241 109.617 52.6822 125.905 48.679 145.999L68.695 130.104L91.6546 98.9027L99.3078 96.5478L96.9529 127.749L92.2433 140.701C85.8068 153.888 77.9573 165.662 68.695 176.023L65.1628 198.394L51.6225 213.112L47.5016 214.289L51.0338 230.184V240.781L48.679 253.144L57.5096 250.789H64.5741L91.6546 263.74L96.3642 257.853L125.211 241.37L120.501 230.184V224.297C115.164 218.646 111.239 211.581 108.727 203.104L106.372 194.862V177.201L111.082 158.362C108.727 156.007 107.942 152.082 108.727 146.588L120.501 125.394L132.864 111.854C142.362 104.083 153.743 98.1962 167.009 94.193L195.267 91.8382L196.444 93.0156H205.864L224.702 98.9027C234.592 103.534 243.031 109.617 250.017 117.153L257.081 128.927L273.565 147.765L277.097 158.362V178.378L267.678 193.684L269.444 193.096L275.92 191.918L284.162 176.612C286.516 177.632 287.301 176.651 286.516 173.668L309.476 145.999L330.669 137.757L356.572 136.58L360.693 138.346C349.861 143.605 340.638 150.473 333.024 158.951L323.016 164.249L319.484 173.668L307.71 187.797V192.507L311.831 197.805L315.363 196.628L317.718 197.805C321.486 193.331 327.373 190.976 335.379 190.741C340.01 185.56 345.897 181.636 353.04 178.967L363.637 174.257L371.29 173.08V170.136L377.766 163.66L388.951 157.185C393.504 148.001 399.391 140.151 406.612 133.636L407.79 115.975L411.322 103.024L403.08 92.4269L394.25 70.6448C381.534 67.2695 371.329 61.3825 363.637 52.9836L350.685 56.5158H337.734L322.427 51.8062L315.363 56.5158L297.702 57.6932C296.289 60.205 293.542 61.3825 289.46 61.2255L287.105 58.8706C282.238 60.205 279.099 59.8126 277.686 57.6932C260.574 61.7749 247.426 69.8206 238.242 81.8302L236.476 84.7737C233.18 85.7941 232.198 84.4205 233.533 80.6528C236.594 64.483 243.855 52.5126 255.315 44.7417L264.734 38.8546L278.863 34.145H283.573L285.339 32.3789L296.524 16.4838C301.627 12.1666 309.083 10.2042 318.895 10.5967L327.137 4.70965L344.798 0ZM350.097 9.4193L328.903 15.3064L324.194 17.6612L321.839 25.9031C321.054 28.2579 321.839 29.0428 324.194 28.2579L325.371 21.1934L331.258 17.6612L332.435 20.016L334.79 18.8386H335.968L331.258 25.9031L333.613 29.4353L337.145 22.3708L340.677 20.016L337.145 25.9031C335.575 29.8278 336.36 31.3977 339.5 30.6127L340.677 25.9031L348.919 18.8386H350.097C350.882 20.4085 350.489 20.801 348.919 20.016L343.032 29.4353C345.387 30.2203 346.172 29.8278 345.387 28.2579L357.161 18.8386L359.516 20.016L354.806 29.4353L357.161 35.3224L360.693 23.5483C363.833 18.8386 368.15 15.6988 373.645 14.129L359.516 9.4193H352.452H350.097ZM314.774 17.6612L312.419 21.1934L314.774 22.3708V17.6612ZM386.596 18.8386L379.532 22.3708L374.822 24.7257L372.468 30.6127L373.645 32.9676L376 28.2579C378.355 24.3332 382.279 21.9784 387.774 21.1934L391.306 22.3708C385.812 23.1558 381.494 25.9031 378.355 30.6127L379.532 31.7901L394.838 22.3708L398.371 23.5483L388.951 25.9031L383.064 32.9676L390.129 29.4353L386.596 35.3224L399.548 28.2579L401.903 29.4353L398.371 30.6127L391.306 38.8546L392.484 40.032L396.016 36.4998L408.967 30.6127L410.145 31.7901L405.435 34.145L397.193 43.5643L398.371 44.7417L401.903 38.8546L412.5 36.4998L414.854 35.3224L407.79 40.032L405.435 43.5643L413.677 40.032L416.032 41.2094C409.752 41.9944 405.043 44.3492 401.903 48.2739L404.258 50.6287V49.4513L419.564 41.2094L425.451 42.3869L426.629 43.5643L423.096 35.3224L400.725 20.016L386.596 18.8386ZM306.532 20.016L301.823 28.2579L303 37.6772L305.355 27.0805H306.532C308.102 31.0052 307.71 33.7525 305.355 35.3224H311.242L308.887 32.9676L311.242 24.7257C312.812 23.1558 312.812 21.9784 311.242 21.1934L308.887 22.3708V21.1934L306.532 20.016ZM300.645 24.7257L295.936 30.6127L297.113 32.9676L295.936 35.3224C295.151 36.8923 295.936 37.2847 298.291 36.4998L299.468 28.2579L301.823 25.9031L300.645 24.7257ZM326.548 41.2094L327.726 43.5643L338.323 48.2739H350.097C351.667 45.9191 355.199 45.1342 360.693 45.9191L361.871 43.5643C357.161 42.7793 354.414 43.1718 353.629 44.7417C341.07 46.3116 332.043 45.1342 326.548 41.2094ZM279.452 42.3869C265.323 45.5266 254.726 52.1986 247.662 62.4029L248.839 63.5803C257.474 53.376 269.64 47.0965 285.339 44.7417C286.124 41.6019 284.162 40.817 279.452 42.3869ZM291.226 45.9191L290.049 49.4513L292.403 50.6287L291.226 45.9191ZM297.113 45.9191V48.2739L300.645 49.4513H310.065L311.242 48.2739C314.382 49.0589 315.559 48.2739 314.774 45.9191L311.242 47.0965C304.178 47.8815 299.468 47.489 297.113 45.9191ZM373.645 45.9191L372.468 49.4513L387.774 60.0481C389.344 60.833 389.736 60.0481 388.951 57.6932L380.709 52.9836L377.177 49.4513L373.645 45.9191ZM399.548 49.4513V51.8062H403.08L399.548 49.4513ZM420.741 51.8062L411.322 55.3384L407.79 58.8706C405.435 58.0857 404.65 58.8706 405.435 61.2255L410.145 58.8706C415.639 59.6556 419.957 58.8706 423.096 56.5158H425.451C429.376 58.0857 432.123 57.6932 433.693 55.3384L438.403 58.8706V57.6932L434.87 52.9836L420.741 51.8062ZM392.484 60.0481L391.306 62.4029H392.484V60.0481ZM427.806 60.0481L413.677 63.5803L411.322 65.9351L416.032 67.1125H414.854V68.2899L423.096 65.9351L427.806 68.2899L419.564 71.8222L417.209 75.3544L424.274 72.9996C428.198 71.4297 429.768 72.2146 428.983 75.3544L421.919 80.0641L430.161 82.4189L426.629 83.5963L424.274 87.1285L432.516 83.5963L434.87 87.1285L436.048 83.5963L437.225 88.306H438.403L437.225 84.7737L438.403 82.4189L434.87 75.3544L436.048 72.9996C439.188 76.1394 440.365 81.2415 439.58 88.306H441.935C439.58 86.7361 439.188 83.5963 440.757 78.8867L436.048 68.2899L437.225 65.9351C441.935 70.6448 444.29 78.1017 444.29 88.306C445.86 90.6608 447.037 90.6608 447.822 88.306C447.037 78.8867 444.682 71.4297 440.757 65.9351C439.188 61.2255 434.87 59.2631 427.806 60.0481ZM405.435 76.5318L407.79 84.7737L411.322 87.1285L405.435 76.5318ZM412.5 87.1285L411.322 89.4834L416.032 93.0156L412.5 87.1285ZM67.5176 91.8382L46.3242 104.79C36.9049 116.564 28.663 130.3 21.5985 145.999L14.534 166.015L9.82439 189.563L13.3566 198.983L16.8889 200.16L19.2437 202.515L12.1792 193.096L13.3566 187.209C14.1416 193.488 17.2813 198.198 22.7759 201.338H25.1308L22.7759 198.983L16.8889 190.741L26.3082 197.805H27.4856L19.2437 183.676L20.4211 181.322L28.663 193.096H31.0178L25.1308 184.854V178.967V176.612L27.4856 177.789L25.1308 175.434L26.3082 173.08L36.9049 184.854H38.0823L29.8404 163.66L31.0178 156.596L33.3726 169.547C35.7275 173.472 40.0446 176.219 46.3242 177.789L49.8564 176.612L48.679 175.434L38.0823 161.306C36.5124 149.531 37.2974 140.112 40.4371 133.048L52.2112 109.499L62.808 97.7253C64.3778 98.5102 64.7703 97.7253 63.9854 95.3704L68.695 93.0156L67.5176 91.8382ZM188.791 100.08L187.614 101.257L172.307 102.435L158.178 107.145L140.517 117.741L135.808 123.628L153.469 118.919H171.13L199.388 127.161C208.807 132.655 217.049 139.327 224.114 147.177C225.683 147.962 226.076 147.569 225.291 145.999C217.442 134.225 207.237 125.591 194.678 120.096L177.017 115.386H164.065V114.209L188.791 115.386C199.78 119.311 209.592 124.413 218.226 130.693L224.114 138.935H226.468L218.226 129.515V125.983C211.947 118.919 203.705 114.602 193.501 113.032V111.854C202.92 112.639 210.377 115.779 215.872 121.274L218.226 120.096L219.404 123.628C220.974 124.413 221.366 124.021 220.581 122.451L222.936 123.628L220.581 124.806L225.291 127.161L224.114 125.983L227.646 127.161V125.983L224.114 120.096L230.001 124.806L233.533 130.693L237.065 133.048L234.71 128.338L220.581 115.386L219.404 113.032C227.253 116.171 233.925 120.881 239.42 127.161C240.99 126.376 241.382 127.161 240.597 129.515C242.952 130.3 243.737 129.908 242.952 128.338C235.103 118.919 225.683 111.462 214.694 105.967L199.388 101.257L188.791 100.08ZM428.983 100.08L424.274 102.435L420.741 107.145L430.161 104.79L438.403 105.967L424.274 109.499V110.677L431.338 109.499L436.048 113.032L426.629 115.386L433.693 118.919L431.338 120.096C432.123 121.666 434.085 122.058 437.225 121.274L438.403 123.628L436.048 122.451C428.983 120.881 423.881 121.666 420.741 124.806H432.516L434.87 127.161L430.161 128.338H433.693L439.58 135.402L440.757 131.87H443.112L441.935 125.983L444.29 124.806L445.467 121.274V118.919L446.645 111.854L448.999 113.032V124.806L444.29 138.935L445.467 141.29L450.177 131.87L452.532 121.274C453.317 114.994 452.532 110.677 450.177 108.322C447.037 101.257 439.973 98.5102 428.983 100.08ZM92.2433 110.677C86.7487 122.451 80.0767 132.263 72.2273 140.112L52.2112 157.773C49.8564 156.988 49.0715 157.773 49.8564 160.128L60.4531 156.596L72.2273 147.177L75.7595 141.29L79.2917 138.935L66.3402 158.951L67.5176 160.128L79.2917 143.644L80.4692 137.757L92.2433 114.209V110.677ZM417.209 120.096L416.032 124.806H417.209V120.096ZM151.114 125.983L135.808 129.515L122.856 136.58L114.614 147.177L115.792 148.354C122.856 139.72 133.06 134.225 146.404 131.87C173.877 129.515 194.286 135.01 207.63 148.354L214.694 158.951L218.226 171.902L217.049 190.741C215.479 197.805 212.732 204.085 208.807 209.579C206.452 208.795 205.667 209.579 206.452 211.934C197.033 222.139 184.081 228.811 167.598 231.95H147.582L135.808 229.595L129.92 230.773L138.162 234.305L149.937 236.66H168.775L178.194 234.305L202.92 221.354C209.2 215.859 214.694 209.187 219.404 201.338L222.936 188.386L221.759 167.193L217.049 155.418C217.834 153.064 217.049 152.279 214.694 153.064L212.339 148.354C199.78 132.655 179.372 125.198 151.114 125.983ZM227.646 131.87L228.823 134.225H230.001L227.646 131.87ZM248.839 135.402L245.307 137.757C240.597 142.467 237.065 148.354 234.71 155.418V169.547L241.775 182.499L245.307 184.854L241.775 177.789L239.42 167.193C237.85 156.203 239.42 148.354 244.13 143.644L251.194 137.757C251.979 135.402 251.194 134.618 248.839 135.402ZM417.209 138.935C416.424 141.29 417.994 142.074 421.919 141.29L423.096 143.644L416.032 141.29L406.612 142.467L416.032 147.177C409.752 146.392 405.043 147.177 401.903 149.531L421.919 150.709V151.886L418.387 150.709L408.967 153.064L418.387 155.418L414.854 157.773L423.096 161.306L426.629 160.128L425.451 162.483L427.806 166.015V168.37C427.021 169.94 427.806 170.332 430.161 169.547L431.338 162.483L430.161 160.128L431.338 157.773L434.87 166.015V162.483L439.58 160.128V167.193L434.87 178.967H437.225L441.935 166.015C442.72 158.166 441.935 152.671 439.58 149.531C435.655 141.682 428.198 138.15 417.209 138.935ZM146.404 142.467C137.77 144.822 131.098 148.354 126.388 153.064C120.894 157.773 117.361 164.445 115.792 173.08L116.969 198.983L128.743 216.644H129.92L125.211 207.225L122.856 193.096L121.679 189.563V176.612L127.566 160.128L140.517 149.531L158.178 145.999H174.662L175.84 147.177C177.409 147.962 177.802 147.177 177.017 144.822L164.065 142.467H146.404ZM253.549 143.644L251.194 144.822L244.13 158.951C243.345 167.585 244.522 174.257 247.662 178.967L254.726 184.854H260.613L268.855 174.257L265.323 173.08L260.613 182.499L257.081 181.322L252.371 177.789L248.839 166.015C247.269 158.951 248.054 154.241 251.194 151.886C253.549 147.962 257.474 146.392 262.968 147.177C262.183 144.037 259.043 142.859 253.549 143.644ZM332.435 143.644L317.129 150.709C313.989 152.279 314.382 153.849 318.307 155.418V153.064L334.79 144.822L332.435 143.644ZM330.081 149.531L331.258 151.886C332.043 149.531 331.651 148.746 330.081 149.531ZM155.824 150.709L145.227 153.064L135.808 157.773L131.098 163.66L132.275 164.838L140.517 157.773L157.001 151.886L155.824 150.709ZM265.323 150.709L267.678 162.483H268.855C269.64 157.773 268.855 154.634 266.5 153.064C267.285 150.709 266.893 149.924 265.323 150.709ZM327.726 150.709L326.548 153.064H327.726V150.709ZM255.904 151.886L252.371 157.773L253.549 168.37L257.081 169.547L258.258 167.193L255.904 161.306L257.081 157.773C259.436 160.128 260.221 163.66 259.436 168.37H261.791L259.436 157.773L255.904 151.886ZM405.435 154.241V155.418H407.79L405.435 154.241ZM311.242 156.596L295.936 176.612L298.291 175.434L304.178 177.789L301.823 174.257V171.902L308.887 175.434L306.532 173.08L310.065 171.902L308.887 169.547L312.419 168.37L313.597 169.547L311.242 166.015L313.597 164.838L314.774 166.015L313.597 157.773L311.242 156.596ZM270.033 162.483L267.678 166.015L270.033 167.193V162.483ZM396.016 163.66L390.129 164.838L385.419 169.547C386.204 171.117 387.381 171.117 388.951 169.547H396.016L404.258 174.257L405.435 176.612L400.725 174.257L388.951 175.434L401.903 177.789V178.967L398.371 177.789L394.838 180.144L405.435 182.499L396.016 183.676H398.371L401.903 184.854C405.043 184.069 405.828 185.246 404.258 188.386L408.967 190.741L404.258 191.918L411.322 194.273L410.145 190.741L411.322 188.386C413.677 190.741 415.247 194.273 416.032 198.983L418.387 200.16L416.032 187.209L414.854 183.676L418.387 189.563L420.741 197.805H421.919C421.919 191.526 420.349 186.816 417.209 183.676V181.322L420.741 183.676L424.274 193.096C425.844 200.945 424.666 206.44 420.741 209.579L421.919 211.934L426.629 203.692L427.806 196.628C427.021 185.639 424.274 177.397 419.564 171.902L407.79 164.838L396.016 163.66ZM267.678 167.193L266.5 170.725C265.715 172.295 266.5 172.687 268.855 171.902L270.033 169.547L267.678 167.193ZM28.663 181.322L34.5501 188.386V187.209L28.663 181.322ZM366.58 181.322L364.226 183.676L370.113 184.854C363.048 183.284 357.946 184.069 354.806 187.209C350.882 186.424 349.704 187.601 351.274 190.741L346.564 191.918H358.339C362.263 194.273 367.758 195.451 374.822 195.451V196.628L368.935 195.451L364.226 196.628L378.355 202.515C379.924 203.3 379.924 204.477 378.355 206.047L381.887 207.225L388.951 216.644L393.661 227.241H394.838L390.129 214.289V211.934L394.838 218.999C394.053 220.569 394.838 220.961 397.193 220.176L399.548 230.773L401.903 229.595L397.193 216.644L393.661 213.112L397.193 214.289V213.112V210.757L400.725 218.999H401.903V215.467L396.016 204.87L392.484 203.692L393.661 201.338L398.371 204.87L406.612 215.467C405.828 220.176 406.612 223.708 408.967 226.063C410.537 229.988 410.145 232.735 407.79 234.305L408.967 236.66L411.322 233.128V226.063L408.967 221.354C409.752 214.289 408.967 209.187 406.612 206.047L398.371 194.273L386.596 183.676C381.102 181.322 374.43 180.537 366.58 181.322ZM231.178 182.499L230.001 189.563V191.918L224.114 204.87V208.402L214.694 220.176L212.339 223.708L191.146 236.66L175.84 241.37L162.888 242.547H160.533L159.356 241.37H144.049L133.453 237.837L132.275 240.192L139.34 243.724L153.469 246.079H171.13L181.727 242.547H186.436L204.098 235.483L205.275 231.95H207.63C212.339 230.38 216.264 227.633 219.404 223.708L217.049 222.531L219.404 221.354C220.189 222.923 220.974 222.923 221.759 221.354C222.544 218.999 222.151 218.214 220.581 218.999L221.759 216.644L226.468 217.821L222.936 214.289L230.001 209.579L228.823 206.047L230.001 203.692L233.533 202.515L231.178 197.805H233.533L231.178 186.031C232.748 184.461 232.748 183.284 231.178 182.499ZM292.403 182.499L285.339 191.918L288.871 193.096C290.441 193.881 290.834 193.096 290.049 190.741L295.936 191.918H298.291L295.936 189.563V188.386L294.758 187.209V186.031L299.468 187.209V184.854L292.403 182.499ZM434.87 182.499L433.693 184.854H434.87V182.499ZM408.967 195.451V197.805C408.182 199.375 408.967 199.768 411.322 198.983L410.145 197.805C410.93 195.451 410.537 194.666 408.967 195.451ZM278.275 197.805L271.21 200.16C268.07 199.375 267.285 200.945 268.855 204.87L272.387 203.692L271.21 206.047L272.387 207.225L273.565 204.87L279.452 200.16L284.162 201.338L275.92 206.047H280.629H282.984L287.694 203.692L286.516 207.225L292.403 204.87L291.226 207.225H294.758L293.581 209.579L295.936 211.934L299.468 209.579L304.178 210.757L298.291 214.289L299.468 216.644L307.71 215.467C308.495 217.821 307.317 218.606 304.178 217.821V220.176L314.774 216.644V218.999L306.532 222.531V223.708L312.419 222.531L317.129 223.708L307.71 228.418L319.484 229.595L312.419 233.128L314.774 234.305H323.016L324.194 237.837L321.839 239.015L324.194 242.547L327.726 244.902L321.839 218.999L315.952 209.579L305.355 202.515L287.694 197.805H278.275ZM333.613 197.805L324.194 201.338L321.839 206.047H332.435L340.677 208.402L346.564 213.112V214.289L335.968 209.579L334.79 211.934L346.564 218.999C358.339 228.418 366.58 240.585 371.29 255.499H373.645L371.29 247.257L364.226 234.305V231.95C368.935 236.66 372.075 242.939 373.645 250.789H376L370.113 235.483V233.128C374.037 237.052 376.785 242.939 378.355 250.789L380.709 251.966C379.14 242.547 376 234.698 371.29 228.418L372.468 226.063C376.392 229.988 379.14 235.875 380.709 243.724H381.887L379.532 234.305L371.29 221.354V218.999L384.242 234.305C387.381 238.23 388.951 244.117 388.951 251.966L391.306 250.789L388.951 235.483L379.532 217.821L364.226 203.692L347.742 197.805H333.613ZM49.8564 200.16C45.1468 204.87 39.2597 207.617 32.1952 208.402C31.4103 210.757 32.1952 211.542 34.5501 210.757H36.9049L51.0338 202.515C51.8188 200.16 51.4263 199.375 49.8564 200.16ZM416.032 200.16V203.692C418.387 202.907 418.387 201.73 416.032 200.16ZM26.3082 201.338V202.515H28.663L26.3082 201.338ZM418.387 208.402L417.209 210.757H418.387V208.402ZM254.726 211.934C232.748 233.128 203.705 246.864 167.598 253.144C156.609 254.714 147.974 254.321 141.695 251.966H139.34C136.985 251.181 136.2 251.966 136.985 254.321L144.049 257.853L159.356 261.386L184.081 260.208L199.388 255.499C216.657 249.219 231.57 240.585 244.13 229.595L248.839 223.708L220.581 242.547L209.985 247.257H207.63C226.468 239.407 242.167 228.418 254.726 214.289V211.934ZM420.741 211.934L419.564 214.289H420.741V211.934ZM9.82439 215.467L8.64698 217.821C11.7867 220.961 16.1039 223.316 21.5985 224.886L28.663 223.708C20.0286 222.923 13.7491 220.176 9.82439 215.467ZM328.903 215.467L327.726 218.999L337.145 244.902L335.968 248.434L338.323 247.257C343.817 254.321 347.742 263.348 350.097 274.337H351.274C348.919 260.993 344.602 250.396 338.323 242.547L339.5 240.192L351.274 261.386L354.806 275.515H355.984C354.414 261.386 350.489 250.004 344.21 241.37L350.097 246.079C349.312 248.434 350.097 249.219 352.452 248.434L363.048 266.095L365.403 277.869L366.58 275.515V268.45L363.048 256.676L350.097 233.128C344.602 225.278 337.538 219.391 328.903 215.467ZM40.4371 222.531L35.7275 239.015V244.902L32.1952 254.321L28.663 256.676C22.3835 255.106 19.6362 255.891 20.4211 259.031H27.4856L35.7275 254.321L40.4371 235.483V241.37H41.6145V224.886L40.4371 222.531ZM486.677 224.886L481.967 233.128L472.548 241.37C470.193 240.585 469.408 241.37 470.193 243.724L477.257 241.37L486.677 228.418V224.886ZM29.8404 226.063L22.7759 230.773C18.0663 231.558 15.319 230.38 14.534 227.241C12.1792 226.456 11.3943 227.241 12.1792 229.595C13.7491 233.52 18.0663 235.09 25.1308 234.305L29.8404 228.418V226.063ZM33.3726 226.063L29.8404 231.95C26.7006 235.875 21.5985 237.445 14.534 236.66L15.7115 239.015H26.3082L28.663 236.66V239.015L23.9533 242.547L14.534 244.902L19.2437 247.257C23.9533 248.042 27.0931 247.257 28.663 244.902C31.8028 242.547 33.3726 239.015 33.3726 234.305H31.0178L33.3726 229.595V226.063ZM35.7275 226.063L34.5501 230.773H35.7275V226.063ZM259.436 227.241L250.017 236.66C247.662 235.875 246.877 236.66 247.662 239.015L244.13 240.192L225.291 254.321L202.92 262.563V263.74L219.404 260.208L231.178 253.144V255.499L239.42 249.612L241.775 246.079L259.436 229.595V227.241ZM35.7275 231.95L34.5501 235.483H35.7275V231.95ZM281.807 235.483L271.21 241.37C262.576 246.864 257.474 256.284 255.904 269.628V271.982H258.258L260.613 276.692L261.791 268.45V266.095L270.033 251.966C274.742 243.332 282.984 239.015 294.758 239.015L293.581 236.66L281.807 235.483ZM34.5501 237.837L33.3726 240.192H34.5501V237.837ZM320.661 242.547L319.484 244.902L321.839 246.079L320.661 242.547ZM454.886 242.547L437.225 246.079L428.983 250.789V253.144C431.338 252.359 432.123 253.144 431.338 255.499L433.693 256.676L436.048 253.144L438.403 251.966L437.225 254.321L440.757 255.499L441.935 250.789V254.321L447.822 256.676L450.177 251.966L454.886 248.434L452.532 254.321L457.241 250.789L456.064 253.144C455.279 254.714 456.064 255.106 458.419 254.321L459.596 247.257C461.166 242.547 459.596 240.977 454.886 242.547ZM467.838 242.547C466.268 244.902 466.661 245.687 469.015 244.902L467.838 242.547ZM31.0178 243.724C28.663 248.434 23.9533 250.789 16.8889 250.789L21.5985 253.144L20.4211 255.499L26.3082 254.321L31.0178 247.257V243.724ZM295.936 243.724L285.339 248.434C276.705 253.929 270.818 261.778 267.678 271.982L270.033 288.466L275.92 273.16L278.275 271.982L274.742 281.402V294.353L275.92 295.531C275.135 297.1 275.92 297.493 278.275 296.708C278.275 287.289 280.237 280.224 284.162 275.515L291.226 268.45H293.581H294.758L291.226 269.628L281.807 286.111L282.984 289.644L285.339 282.579H286.516L285.339 291.998C283.769 292.783 284.162 293.568 286.516 294.353C286.516 290.428 287.694 287.681 290.049 286.111C289.264 283.756 290.049 282.972 292.403 283.756L295.936 281.402L292.403 289.644C293.973 294.353 293.581 297.493 291.226 299.063L293.581 301.418C292.796 297.493 293.581 294.746 295.936 293.176C295.151 290.821 295.936 290.036 298.291 290.821L299.468 288.466L301.823 287.289L297.113 295.531L294.758 307.305L297.113 309.66C297.113 304.165 298.683 299.848 301.823 296.708L304.178 293.176L308.887 289.644L307.71 291.998L308.887 294.353L305.355 299.063L303 309.66L305.355 308.482L306.532 310.837C308.102 310.052 308.102 309.267 306.532 308.482L313.597 297.885C312.812 295.531 313.597 294.746 315.952 295.531L319.484 293.176L314.774 299.063C315.559 300.633 314.774 301.025 312.419 300.24V303.772V306.127L311.242 308.482L312.419 310.837L319.484 300.24L321.839 301.418L318.307 306.127L319.484 307.305L340.677 296.708H345.387L354.806 301.418V299.063L347.742 295.531V294.353C350.882 293.568 353.236 294.353 354.806 296.708L355.984 297.885L354.806 294.353L350.097 291.998L348.919 288.466L338.323 276.692L335.968 271.982L332.435 269.628C328.511 270.412 327.333 269.235 328.903 266.095L326.548 264.918L314.774 268.45H311.242L317.129 264.918H325.371V262.563L312.419 257.853L307.71 259.031L305.355 260.208L306.532 255.499H317.129C310.85 253.144 306.14 249.219 303 243.724H295.936ZM324.194 246.079C323.409 248.434 324.194 249.219 326.548 248.434C327.333 246.079 326.548 245.294 324.194 246.079ZM254.726 247.257V248.434H255.904L254.726 247.257ZM253.549 248.434L241.775 261.386L234.71 283.756V293.176L237.065 303.772H238.242L237.065 295.531V293.176L238.242 290.821L237.065 288.466L239.42 273.16C242.56 263.74 247.269 256.284 253.549 250.789V248.434ZM338.323 249.612L337.145 254.321C339.5 255.106 340.285 257.461 339.5 261.386L343.032 263.74L338.323 249.612ZM124.033 251.966L121.679 253.144L112.259 264.918C110.689 271.197 111.082 275.907 113.437 279.047H114.614C113.044 274.337 113.829 272.375 116.969 273.16L120.501 261.386H118.146L125.211 253.144L124.033 251.966ZM423.096 253.144L411.322 268.45L398.371 280.224C396.016 279.439 395.231 280.224 396.016 282.579L399.548 283.756L400.725 280.224L404.258 284.934V283.756C402.688 282.187 403.08 281.009 405.435 280.224V282.579L407.79 283.756L406.612 277.869L410.145 275.515L413.677 279.047L412.5 271.982L416.032 274.337C415.247 275.907 416.032 276.3 418.387 275.515L417.209 271.982L419.564 268.45L420.741 271.982H421.919L420.741 264.918H423.096L424.274 261.386L425.451 267.273H426.629C427.413 260.208 426.236 255.499 423.096 253.144ZM129.92 254.321L120.501 264.918V275.515L122.856 276.692L121.679 274.337C122.464 264.918 125.603 258.638 131.098 255.499L129.92 254.321ZM337.145 254.321L335.968 256.676H337.145V254.321ZM390.129 257.853L388.951 261.386H390.129V257.853ZM252.371 259.031L250.017 264.918L248.839 262.563L246.484 266.095L248.839 269.628L246.484 279.047V299.063L250.017 312.014L253.549 317.901L259.436 321.434L260.613 322.611L252.371 310.837L250.017 303.772V269.628L252.371 262.563V259.031ZM335.968 259.031L334.79 262.563H335.968V259.031ZM60.4531 260.208L58.0983 262.563L45.1468 266.095L40.4371 264.918L51.0338 276.692V274.337L46.3242 267.273C47.8941 266.488 48.2865 267.273 47.5016 269.628L53.3887 271.982L59.2757 277.869L55.7435 273.16L56.9209 269.628L60.4531 275.515C59.6682 277.084 60.4531 277.477 62.808 276.692H65.1628L63.9854 279.047L71.0499 281.402L72.2273 282.579C73.0122 280.224 72.6197 279.439 71.0499 280.224L58.0983 266.095L73.4047 276.692L79.2917 282.579L76.9369 277.869L69.8724 268.45L79.2917 274.337L81.6466 279.047L84.0014 280.224L81.6466 274.337L82.824 271.982L85.1788 276.692L88.711 279.047L86.3562 270.805L78.1143 266.095H74.5821L67.5176 260.208H61.6305V262.563L60.4531 260.208ZM107.55 261.386L102.84 267.273V277.869L108.727 289.644H109.904L105.195 274.337L107.55 264.918V261.386ZM344.21 263.74L343.032 267.273L346.564 273.16H347.742L344.21 263.74ZM99.3078 264.918L94.5981 271.982L96.9529 286.111L100.485 288.466L98.1303 283.756L99.3078 276.692V282.579L104.017 289.644V291.998H106.372L100.485 277.869V274.337L98.1303 271.982L99.3078 267.273V264.918ZM138.162 267.273L134.63 268.45L128.743 282.579V296.708L133.453 308.482L135.808 307.305L131.098 290.821V288.466C131.883 280.617 134.238 274.337 138.162 269.628V267.273ZM151.114 268.45V270.805L155.824 273.16L175.84 274.337V275.515H157.001L151.114 273.16L148.759 274.337L152.291 275.515L151.114 277.869L165.243 280.224H199.388C200.173 278.654 202.92 278.262 207.63 279.047L225.291 271.982V270.805L214.694 274.337H200.565L217.049 269.628V268.45L199.388 271.982L194.678 274.337H177.017L192.323 273.16L169.953 271.982L165.243 269.628C158.963 270.412 154.254 270.02 151.114 268.45ZM245.307 268.45L246.484 271.982L247.662 269.628L245.307 268.45ZM38.0823 269.628L40.4371 275.515L42.7919 276.692L41.6145 273.16L38.0823 269.628ZM241.775 270.805L239.42 279.047V303.772L240.597 304.95C239.812 308.875 240.99 310.052 244.13 308.482L246.484 317.901L248.839 319.079L245.307 302.595V282.579L242.952 284.934V306.127L241.775 301.418V299.063L240.597 293.176C239.812 283.756 240.99 277.084 244.13 273.16C244.914 270.805 244.13 270.02 241.775 270.805ZM384.242 270.805V271.982H385.419L384.242 270.805ZM33.3726 273.16C31.8028 275.515 32.1952 276.3 34.5501 275.515L33.3726 273.16ZM35.7275 275.515L38.0823 279.047H39.2597L35.7275 275.515ZM350.097 275.515L348.919 277.869H350.097V275.515ZM40.4371 279.047L39.2597 281.402L45.1468 284.934L76.9369 294.353H84.0014L45.1468 282.579L40.4371 279.047ZM411.322 279.047L410.145 281.402H411.322V279.047ZM144.049 280.224V281.402H146.404L144.049 280.224ZM86.3562 281.402L85.1788 283.756H86.3562V281.402ZM115.792 281.402L114.614 283.756H115.792V281.402ZM139.34 281.402V283.756H145.227L139.34 281.402ZM147.582 281.402L148.759 282.579L149.937 283.756C150.721 281.402 149.937 280.617 147.582 281.402ZM152.291 282.579C151.506 284.149 152.684 285.326 155.824 286.111L152.291 288.466H149.937L147.582 289.644L146.404 287.289L151.114 288.466L153.469 287.289L148.759 284.934L146.404 286.111L139.34 284.934L141.695 288.466L145.227 287.289V289.644L141.695 288.466C140.91 290.821 141.695 291.606 144.049 290.821H146.404L166.42 293.176L165.243 294.353H140.517V307.305L141.695 308.482L144.049 332.03L165.243 330.853L166.42 329.676C163.281 320.256 161.318 310.052 160.533 299.063C161.318 295.923 163.673 294.746 167.598 295.531L177.017 287.289L169.953 284.934H160.533L152.291 282.579ZM220.581 282.579L209.985 286.111H193.501L192.323 287.289L191.146 286.111H180.549L175.84 291.998H192.323L207.63 294.353L214.694 293.176L215.872 289.644L221.759 284.934L220.581 282.579ZM264.146 283.756C262.576 288.466 262.968 292.783 265.323 296.708H266.5L264.146 283.756ZM391.306 286.111C383.457 289.251 376.785 293.568 371.29 299.063L372.468 300.24L377.177 296.708L379.532 300.24C381.887 298.67 381.494 297.493 378.355 296.708C377.57 294.353 378.355 293.568 380.709 294.353C379.14 295.923 379.532 297.493 381.887 299.063L380.709 300.24L384.242 301.418V299.063L383.064 295.531L387.774 296.708C388.559 298.278 389.344 298.278 390.129 296.708L388.951 291.998L392.484 293.176L393.661 291.998L391.306 286.111ZM111.082 289.644V294.353H112.259L111.082 289.644ZM221.759 290.821L218.226 294.353L221.759 327.321L228.823 348.514L231.178 349.692L226.468 337.917L227.646 334.385L228.823 341.45L231.178 342.627L227.646 333.208L228.823 329.676L233.533 347.337L235.888 346.159L225.291 313.192V308.482H224.114C223.329 313.977 224.114 318.686 226.468 322.611L225.291 328.498H224.114L225.291 326.143C221.366 316.724 220.189 304.95 221.759 290.821ZM171.13 294.353L168.775 296.708L171.13 306.127V313.192L177.017 335.563L180.549 346.159L188.791 360.288H207.63L222.936 357.933L227.646 359.111L225.291 353.224L224.114 355.579L218.226 342.627L211.162 297.885C206.452 296.316 200.565 295.923 193.501 296.708L184.081 294.353H171.13ZM344.21 297.885V299.063H345.387L344.21 297.885ZM119.324 299.063L118.146 301.418L114.614 306.127L119.324 304.95L122.856 307.305H124.033L120.501 304.95C121.286 301.81 120.894 299.848 119.324 299.063ZM268.855 302.595L271.21 310.837L277.097 315.547L286.516 319.079C290.441 324.573 296.328 328.498 304.178 330.853L306.532 329.676L303 328.498L294.758 322.611C292.403 323.396 291.619 323.004 292.403 321.434L279.452 314.369L268.855 302.595ZM344.21 306.127L332.435 308.482L326.548 312.014L321.839 319.079V320.256L330.081 316.724L344.21 317.901L359.516 326.143L364.226 339.095L363.048 341.45L364.226 346.159H365.403V334.385L360.693 321.434C355.199 314.369 346.172 311.229 333.613 312.014L343.032 309.66L346.564 308.482L364.226 313.192L368.935 319.079V326.143L371.29 332.03H372.468C374.037 323.396 372.86 317.901 368.935 315.547L360.693 308.482L344.21 306.127ZM419.564 307.305L418.387 308.482L400.725 309.66L401.903 315.547L405.435 316.724L406.612 314.369H407.79C407.005 315.939 407.79 316.332 410.145 315.547V319.079C412.5 319.864 413.284 319.079 412.5 316.724L416.032 314.369L417.209 317.901L420.741 312.014V316.724L424.274 317.901L423.096 315.547L426.629 310.837L425.451 313.192L427.806 315.547C429.376 316.332 429.768 315.154 428.983 312.014H432.516L431.338 316.724L434.87 315.547C434.085 312.407 434.87 311.229 437.225 312.014L436.048 315.547L437.225 316.724C439.58 315.939 440.365 313.977 439.58 310.837L436.048 307.305H419.564ZM239.42 308.482L237.065 310.837H239.42V308.482ZM390.129 312.014L381.887 315.547L379.532 319.079L380.709 322.611C379.924 324.966 380.709 325.751 383.064 324.966L384.242 317.901V322.611L387.774 323.789L386.596 320.256L387.774 317.901L390.129 322.611H392.484L391.306 317.901L396.016 320.256L393.661 314.369C394.446 312.014 393.268 311.229 390.129 312.014ZM359.516 313.192L360.693 315.547H361.871L359.516 313.192ZM120.501 314.369L100.485 326.143C98.1303 326.928 97.3454 328.891 98.1303 332.03L104.017 334.385H107.55L102.84 330.853L104.017 328.498L108.727 332.03H114.614L113.437 330.853H111.082H108.727L120.501 326.143L119.324 324.966V321.434C121.679 322.219 122.464 321.434 121.679 319.079L126.388 320.256L127.566 321.434L126.388 316.724C125.603 314.369 123.641 313.584 120.501 314.369ZM447.822 314.369L444.29 320.256L448.999 317.901L447.822 322.611L450.177 321.434C449.392 319.079 450.177 318.294 452.532 319.079L451.354 323.789C453.709 324.573 454.494 324.181 453.709 322.611L456.064 321.434L454.886 324.966L459.596 323.789V327.321L463.128 324.966V327.321C460.773 328.106 461.558 329.283 465.483 330.853C467.838 331.638 468.623 331.245 467.838 329.676V327.321L471.37 329.676V328.498L454.886 316.724L447.822 314.369ZM363.048 315.547L361.871 317.901H363.048V315.547ZM407.79 317.901L406.612 320.256H407.79V317.901ZM250.017 319.079L251.194 321.434C251.979 319.079 251.586 318.294 250.017 319.079ZM122.856 321.434V323.789L126.388 324.966V323.789L122.856 321.434ZM333.613 324.966L323.016 327.321L314.774 334.385L315.952 335.563L323.016 332.03L327.726 333.208L314.774 336.74L311.242 342.627L320.661 343.805L310.065 344.982C306.925 345.767 305.747 347.729 306.532 350.869L310.065 349.692L313.597 352.046C308.887 351.261 305.355 352.439 303 355.579L304.178 356.756H310.065C310.85 359.896 308.495 360.681 303 359.111L299.468 363.821L295.936 366.175L304.178 367.353L307.71 366.175L319.484 367.353L324.194 369.708V370.885L319.484 368.53L315.952 369.708L325.371 373.24L326.548 370.885C324.194 366.96 320.661 364.605 315.952 363.821V362.643C320.661 362.643 324.194 363.821 326.548 366.175L330.081 372.062C329.296 373.632 330.081 374.025 332.435 373.24L331.258 370.885L332.435 368.53C329.296 363.036 324.194 359.896 317.129 359.111V357.933L328.903 361.466H332.435L334.79 366.175L337.145 367.353L333.613 356.756L328.903 353.224L327.726 350.869C332.435 352.439 336.36 355.186 339.5 359.111V356.756L338.323 353.224L340.677 357.933L343.032 359.111L339.5 349.692L335.968 346.159L333.613 342.627L340.677 344.982L346.564 354.401L348.919 353.224L346.564 344.982L337.145 335.563L331.258 334.385V333.208C337.538 333.993 342.64 335.955 346.564 339.095C349.704 341.45 352.059 345.374 353.629 350.869L354.806 344.982L352.452 333.208L343.032 326.143L333.613 324.966ZM272.387 326.143C267.678 330.068 261.006 332.03 252.371 332.03L248.839 330.853L246.484 332.03L244.13 330.853L241.775 332.03L246.484 334.385L251.194 333.208L253.549 334.385L265.323 332.03L273.565 327.321L272.387 326.143ZM491.386 326.143C487.462 328.498 482.359 330.068 476.08 330.853L480.789 333.208L490.209 329.676L492.564 327.321L491.386 326.143ZM279.452 329.676L266.5 337.917C261.791 337.133 259.043 337.525 258.258 339.095H254.726C256.296 335.955 259.436 334.778 264.146 335.563V334.385L242.952 336.74L245.307 339.095V336.74L250.017 337.917L245.307 340.272L248.839 341.45H262.968C269.248 339.095 274.742 335.955 279.452 332.03V329.676ZM92.2433 334.385V336.74L96.9529 339.095H98.1303L92.2433 334.385ZM146.404 334.385L155.824 354.401L162.888 359.111L175.84 362.643L180.549 361.466L175.84 359.111C173.485 359.896 172.7 359.111 173.485 356.756L162.888 355.579L159.356 348.514H161.711L160.533 346.159L164.065 344.982L166.42 350.869H167.598L166.42 347.337L168.775 346.159L171.13 352.046L174.662 353.224L175.84 359.111H177.017V355.579L173.485 350.869L169.953 340.272V335.563C163.673 333.993 155.824 333.6 146.404 334.385ZM291.226 335.563V336.74H292.403L291.226 335.563ZM92.2433 337.917L84.0014 356.756L87.5336 357.933L88.711 354.401H91.0659L87.5336 353.224L92.2433 350.869L89.8885 349.692V348.514C93.8132 350.084 94.9906 348.907 93.4207 344.982L92.2433 341.45L95.7755 342.627L92.2433 337.917ZM284.162 339.095V340.272H285.339L284.162 339.095ZM280.629 340.272L279.452 342.627L282.984 341.45L280.629 340.272ZM297.113 340.272L293.581 344.982L297.113 342.627V340.272ZM277.097 342.627V343.805H278.275L277.097 342.627ZM293.581 344.982C287.301 352.046 279.844 357.541 271.21 361.466L270.033 363.821L274.742 361.466L277.097 362.643V361.466L293.581 347.337V344.982ZM235.888 347.337L234.71 349.692H235.888V347.337ZM271.21 347.337L265.323 349.692V350.869C269.248 351.654 271.602 350.869 272.387 348.514L271.21 347.337ZM232.355 349.692L231.178 352.046H232.355V349.692ZM233.533 352.046L232.355 354.401H233.533V352.046ZM266.5 352.046L253.549 356.756L254.726 360.288L266.5 354.401V352.046ZM234.71 354.401L233.533 357.933H235.888L234.71 354.401ZM248.839 354.401L251.194 357.933L253.549 356.756L248.839 354.401ZM348.919 354.401L347.742 356.756H348.919V354.401ZM144.049 357.933L125.211 373.24C125.996 374.81 125.211 375.202 122.856 374.417L120.501 380.304L121.679 383.837L125.211 385.014H126.388L125.211 382.659L124.033 379.127L131.098 381.482C132.668 382.267 133.06 381.482 132.275 379.127L129.92 377.949C126.781 378.734 125.603 377.949 126.388 375.595L135.808 377.949V376.772C132.668 377.557 131.49 377.165 132.275 375.595L135.808 374.417L138.162 375.595V373.24H140.517L138.162 372.062L139.34 369.708C143.264 371.277 144.834 370.493 144.049 367.353H139.34L144.049 364.998V367.353L148.759 364.998L144.049 357.933ZM353.629 357.933L344.21 377.949L340.677 381.482C341.462 383.052 341.07 383.444 339.5 382.659L335.968 387.369L340.677 386.191L344.21 382.659L353.629 361.466V357.933ZM368.935 357.933L365.403 363.821V364.998L374.822 361.466L371.29 366.175L373.645 367.353L377.177 364.998L376 367.353L377.177 369.708L385.419 367.353H386.596L384.242 370.885L392.484 366.175L393.661 363.821L387.774 360.288L368.935 357.933ZM85.1788 359.111V360.288H86.3562L85.1788 359.111ZM84.0014 361.466L80.4692 362.643L81.6466 367.353L84.0014 363.821V361.466ZM268.855 363.821L266.5 366.175H270.033L268.855 363.821ZM273.565 363.821L271.21 367.353L273.565 366.175V363.821ZM228.823 364.998L224.114 367.353L207.63 369.708H205.275L202.92 370.885L186.436 372.062L189.969 373.24H205.275L206.452 374.417C220.581 374.417 232.748 372.062 242.952 367.353V366.175L215.872 372.062H209.985L226.468 368.53L232.355 366.175L228.823 364.998ZM270.033 367.353L268.855 369.708L271.21 368.53L270.033 367.353ZM74.5821 369.708L63.9854 375.595L62.808 377.949L76.9369 372.062C77.7219 369.708 76.9369 368.923 74.5821 369.708ZM266.5 369.708C257.866 375.202 248.447 379.519 238.242 382.659H235.888L244.13 379.127L245.307 376.772L212.339 382.659L188.791 381.482L181.727 379.127C179.372 378.342 178.587 379.127 179.372 381.482L193.501 386.191L214.694 387.369L215.872 388.546L217.049 387.369L235.888 386.191L239.42 383.837L253.549 380.304L267.678 370.885L266.5 369.708ZM300.645 374.417L291.226 380.304L305.355 381.482C308.495 383.837 310.85 387.761 312.419 393.256L311.242 406.207L307.71 419.159C304.57 421.514 303 425.831 303 432.11L294.758 445.062H292.403L306.532 417.982L310.065 402.675L306.532 393.256L297.113 383.837L288.871 382.659L285.339 387.369L279.452 392.078H277.097C265.323 401.498 257.081 414.057 252.371 429.756L253.549 433.288L258.258 426.223C257.474 423.869 258.258 423.084 260.613 423.869L264.146 419.159L270.033 414.449L292.403 408.562L299.468 400.32L298.291 396.788L297.113 399.143H295.936L297.113 393.256L291.226 390.901C289.656 388.546 288.086 388.154 286.516 389.724L290.049 385.014L299.468 388.546L304.178 396.788V402.675L299.468 413.272L279.452 445.062C270.033 455.266 257.866 462.723 242.952 467.433L233.533 466.255H231.178L230.001 468.61C231.57 471.75 233.14 472.143 234.71 469.788L240.597 473.32C242.952 471.75 247.269 471.358 253.549 472.143C254.334 469.003 257.474 467.825 262.968 468.61L265.323 469.788C263.753 472.927 262.576 473.32 261.791 470.965C260.221 473.32 257.081 474.105 252.371 473.32H250.017L245.307 474.497H242.952C240.597 473.712 239.812 474.497 240.597 476.852C257.081 476.852 269.64 473.32 278.275 466.255L277.097 463.901L291.226 453.304C290.441 450.949 291.226 450.164 293.581 450.949L305.355 432.11L315.952 395.611L312.419 385.014C310.065 381.089 306.925 378.734 303 377.949V376.772L314.774 380.304L320.661 389.724L323.016 402.675L325.371 401.498L323.016 387.369L320.661 382.659C318.307 375.595 311.635 372.847 300.645 374.417ZM397.193 374.417L393.661 375.595L394.838 380.304L398.371 379.127C399.94 378.342 400.333 379.127 399.548 381.482L396.016 383.837L398.371 386.191L401.903 383.837L400.725 386.191C401.51 387.761 400.725 388.154 398.371 387.369V388.546C399.94 387.761 400.333 388.546 399.548 390.901H403.08L401.903 393.256L406.612 394.433L403.08 399.143H407.79V400.32C405.435 399.535 404.65 400.32 405.435 402.675L408.967 403.853L407.79 406.207H410.145L411.322 407.385C409.752 394.826 406.22 384.621 400.725 376.772C401.51 373.632 400.333 372.847 397.193 374.417ZM58.0983 379.127L56.9209 381.482L59.2757 380.304L58.0983 379.127ZM260.613 382.659V383.837H261.791L260.613 382.659ZM255.904 383.837L248.839 388.546L225.291 394.433C220.581 396.003 217.834 395.611 217.049 393.256L212.339 394.433L205.275 393.256L200.565 394.433L208.807 396.788L235.888 395.611L250.017 390.901C251.586 391.686 251.979 390.901 251.194 388.546L259.436 385.014L255.904 383.837ZM119.324 388.546L116.969 390.901V410.917L118.146 412.094V427.401H120.501C118.931 425.831 119.324 424.654 121.679 423.869L119.324 422.691L122.856 417.982H121.679H119.324L122.856 413.272H121.679H119.324L122.856 410.917L124.033 405.03V402.675L122.856 400.32C122.071 397.966 122.856 397.181 125.211 397.966L124.033 396.788L125.211 393.256L119.324 388.546ZM198.21 402.675V405.03L215.872 414.449L224.114 416.804H235.888L219.404 413.272L198.21 402.675ZM339.5 402.675L338.323 406.207L344.21 420.336V427.401L345.387 430.933C346.957 441.137 346.172 448.987 343.032 454.481C341.462 457.621 340.285 458.014 339.5 455.659L330.081 461.546L319.484 462.723L320.661 465.078H325.371L335.968 461.546H337.145C334.005 465.471 328.903 468.218 321.839 469.788V470.965H331.258L332.435 469.788L333.613 470.965L321.839 476.852L311.242 478.03C312.027 479.599 314.382 479.992 318.307 479.207L321.839 478.03L324.194 480.384L332.435 476.852L340.677 467.433L348.919 449.772L347.742 426.223L343.032 409.74L339.5 402.675ZM219.404 403.853L221.759 406.207C231.178 407.777 239.027 407.385 245.307 405.03V403.853C239.812 402.283 236.673 402.675 235.888 405.03L219.404 403.853ZM192.323 410.917L187.614 423.869V426.223V428.578L194.678 437.998L195.856 439.175L187.614 429.756H186.436C185.651 435.25 187.221 438.782 191.146 440.352C193.501 439.567 194.286 440.352 193.501 442.707C190.361 443.492 188.399 442.315 187.614 439.175L185.259 445.062L187.614 453.304L193.501 459.191H191.146L187.614 458.014L188.791 462.723L197.033 467.433L214.694 466.255L224.114 461.546L226.468 458.014V455.659C222.544 459.583 216.264 461.153 207.63 460.368L206.452 458.014L208.807 459.191L217.049 458.014L224.114 454.481L226.468 450.949C221.759 450.164 218.619 450.949 217.049 453.304C209.985 454.089 204.49 453.696 200.565 452.126L219.404 449.772L220.581 447.417C217.442 448.202 216.657 447.024 218.226 443.885L213.517 445.062C208.807 445.847 205.275 445.454 202.92 443.885L209.985 440.352C219.404 441.137 226.861 439.96 232.355 436.82V435.643L211.162 439.175L204.098 436.82L202.92 434.465L205.275 435.643L207.63 434.465H209.985C213.909 436.035 216.657 435.643 218.226 433.288C221.366 434.073 222.544 433.288 221.759 430.933L218.226 432.11H211.162L200.565 428.578L197.033 422.691L195.856 419.159L207.63 427.401C209.985 428.186 210.77 427.401 209.985 425.046H213.517V423.869L208.807 425.046L207.63 421.514L198.21 417.982L193.501 414.449L194.678 413.272L192.323 410.917ZM250.017 413.272L245.307 415.627C239.812 414.057 237.458 414.842 238.242 417.982L250.017 415.627V413.272ZM418.387 413.272L419.564 415.627L430.161 421.514H431.338C428.198 416.804 423.881 414.057 418.387 413.272ZM317.129 417.982C316.344 420.336 317.129 421.121 319.484 420.336C320.269 417.982 319.484 417.197 317.129 417.982ZM341.855 420.336L340.677 422.691H341.855V420.336ZM317.129 421.514L314.774 423.869C313.989 431.718 312.027 438.782 308.887 445.062L301.823 455.659C295.543 462.723 288.479 468.61 280.629 473.32L279.452 475.675L295.936 465.078L310.065 448.594L314.774 437.998L317.129 425.046V421.514ZM432.516 421.514V422.691H433.693L432.516 421.514ZM341.855 423.869L338.323 432.11L334.79 434.465L324.194 435.643V436.82C330.473 437.605 335.183 436.82 338.323 434.465L341.855 428.578V423.869ZM272.387 427.401L270.033 428.578L261.791 436.82L255.904 449.772H258.258V452.126L267.678 446.239L271.21 442.707L277.097 430.933C277.882 427.008 276.312 425.831 272.387 427.401ZM209.985 428.578V429.756H211.162L209.985 428.578ZM213.517 428.578V429.756H214.694L213.517 428.578ZM116.969 432.11L114.614 433.288L105.195 445.062H107.55L109.904 440.352L116.969 434.465V432.11ZM343.032 433.288C343.032 438.782 341.462 443.1 338.323 446.239L334.79 449.772L320.661 456.836V458.014L335.968 452.126C339.892 448.987 342.64 444.277 344.21 437.998L343.032 433.288ZM234.71 434.465L233.533 437.998H234.71V434.465ZM340.677 434.465L335.968 439.175L326.548 441.53L323.016 440.352L324.194 442.707L334.79 441.53L340.677 436.82V434.465ZM247.662 440.352L239.42 454.481L240.597 456.836L247.662 443.885V440.352ZM338.323 441.53L331.258 447.417L325.371 448.594L324.194 450.949C331.258 450.949 335.968 448.594 338.323 443.885V441.53ZM226.468 445.062V446.239H227.646L226.468 445.062ZM221.759 446.239V447.417H225.291L221.759 446.239ZM248.839 448.594L247.662 452.126H248.839V448.594ZM338.323 452.126L328.903 456.836V458.014H332.435L339.5 453.304L338.323 452.126ZM286.516 459.191L284.162 462.723L287.694 460.368L286.516 459.191ZM281.807 462.723L280.629 465.078L282.984 463.901L281.807 462.723ZM367.758 462.723L364.226 463.901L365.403 467.433L364.226 481.562V483.917L361.871 490.981L363.048 492.159L364.226 489.804L367.758 488.626L366.58 486.271L367.758 480.384L368.935 486.271C370.505 483.917 371.29 479.992 371.29 474.497L372.468 476.852L373.645 486.271C375.215 485.487 375.607 483.917 374.822 481.562H376L374.822 492.159L372.468 496.868L373.645 499.223L378.355 488.626C379.14 479.992 378.355 473.712 376 469.788L367.758 462.723ZM189.969 466.255V468.61C193.108 470.965 197.425 472.535 202.92 473.32V474.497C195.856 475.282 191.538 474.105 189.969 470.965L188.791 473.32L198.21 479.207H215.872L218.226 476.852C219.796 477.637 220.189 476.852 219.404 474.497H204.098C210.377 474.497 215.087 473.32 218.226 470.965H220.581C219.796 468.61 220.581 467.825 222.936 468.61V466.255L214.694 469.788L211.162 468.61L207.63 469.788H209.985V470.965L198.21 469.788L189.969 466.255ZM347.742 468.61L343.032 476.852C336.753 486.271 326.156 491.374 311.242 492.159V493.336C320.661 493.336 328.118 491.374 333.613 487.449H334.79L327.726 492.159L318.307 494.513V495.691C326.941 494.906 333.613 492.159 338.323 487.449C343.032 484.309 346.172 479.992 347.742 474.497V468.61ZM354.806 472.143L344.21 494.513L333.613 502.755L327.726 503.933L326.548 506.287H331.258L339.5 501.578C346.564 495.298 351.667 487.056 354.806 476.852V472.143ZM384.242 472.143V474.497L385.419 478.03C386.989 487.449 385.812 494.906 381.887 500.4H385.419L387.774 486.271L388.951 490.981C390.521 494.906 390.129 497.653 387.774 499.223H390.129L391.306 496.868L390.129 490.981L391.306 488.626L396.016 490.981V500.4L397.193 501.578L394.838 512.175L391.306 516.884H393.661L398.371 506.287V496.868L397.193 495.691C398.763 490.196 397.978 487.841 394.838 488.626C395.623 483.917 394.838 480.384 392.484 478.03L384.242 472.143ZM232.355 473.32V475.675L237.065 476.852C238.635 477.637 239.027 476.852 238.242 474.497L232.355 473.32ZM403.08 481.562L405.435 487.449C404.65 489.019 405.435 489.411 407.79 488.626C411.715 490.196 413.284 494.513 412.5 501.578V503.933L413.677 510.997L412.5 514.529L413.677 515.707V535.723L414.854 539.255L412.5 549.852L403.08 554.561L396.016 553.384L392.484 554.561L398.371 556.916H400.725L404.258 558.094L412.5 554.561L417.209 547.497L416.032 502.755V500.4C415.247 494.121 413.284 489.804 410.145 487.449C407.79 488.234 407.005 487.841 407.79 486.271L403.08 481.562ZM226.468 482.739C222.544 486.664 217.049 488.626 209.985 488.626H207.63L198.21 485.094L194.678 486.271L195.856 488.626C198.995 491.766 203.313 494.121 208.807 495.691C216.657 495.691 222.151 493.336 225.291 488.626C226.861 489.411 227.253 488.626 226.468 486.271C228.038 484.702 228.038 483.524 226.468 482.739ZM261.791 482.739L260.613 483.917C257.474 483.132 256.296 483.917 257.081 486.271L264.146 483.917L266.5 485.094L271.21 483.917L261.791 482.739ZM345.387 482.739L344.21 485.094H345.387V482.739ZM308.887 486.271L307.71 488.626H308.887V486.271ZM360.693 487.449L354.806 494.513L355.984 495.691L360.693 489.804V487.449ZM373.645 487.449L372.468 490.981H373.645V487.449ZM338.323 488.626C332.828 493.336 326.156 496.476 318.307 498.046V499.223C327.726 498.438 334.79 495.298 339.5 489.804L338.323 488.626ZM404.258 488.626L403.08 512.175L400.725 516.884C397.586 520.809 393.268 523.556 387.774 525.126L385.419 523.949L386.596 526.303L392.484 525.126H394.838L401.903 520.416L405.435 513.352L406.612 506.287L405.435 490.981L404.258 488.626ZM240.597 490.981L237.065 495.691C233.925 499.615 228.823 501.97 221.759 502.755L222.936 505.11C230.786 503.54 237.458 500.008 242.952 494.513L245.307 490.981L242.952 492.159L240.597 490.981ZM372.468 490.981L371.29 493.336H372.468V490.981ZM251.194 492.159V494.513L235.888 508.642H239.42L253.549 493.336L251.194 492.159ZM361.871 492.159L358.339 496.868L361.871 494.513V492.159ZM273.565 494.513L274.742 507.465V509.82L275.92 510.997V520.416L277.097 523.949V533.368L274.742 543.965C271.602 549.459 265.323 552.599 255.904 553.384L260.613 554.561H265.323L272.387 551.029C276.312 547.889 278.667 543.572 279.452 538.078L278.275 510.997L277.097 503.933L273.565 494.513ZM314.774 495.691V496.868H315.952L314.774 495.691ZM252.371 498.046L250.017 500.4H252.371V498.046ZM257.081 498.046C257.866 502.755 256.296 506.287 252.371 508.642L253.549 509.82L259.436 502.755C260.221 498.831 259.436 497.261 257.081 498.046ZM213.517 503.933V505.11H215.872L213.517 503.933ZM350.097 509.82L352.452 512.175C365.011 510.605 374.822 511.782 381.887 515.707C383.457 516.492 383.849 515.707 383.064 513.352C375.215 509.427 364.226 508.25 350.097 509.82ZM260.613 513.352C258.258 516.492 254.726 518.454 250.017 519.239L248.839 521.594H252.371L261.791 515.707C262.576 513.352 262.183 512.567 260.613 513.352ZM408.967 520.416L400.725 526.303L396.016 532.191L388.951 534.545V535.723C393.661 536.508 397.586 535.723 400.725 533.368L410.145 522.771C410.93 520.416 410.537 519.631 408.967 520.416ZM261.791 525.126L257.081 527.481H246.484L245.307 529.836L253.549 532.191L260.613 529.836L261.791 527.481V525.126ZM381.887 526.303V527.481H384.242L381.887 526.303ZM264.146 528.658L254.726 533.368L252.371 532.191L247.662 533.368L248.839 535.723C250.409 534.938 250.802 535.723 250.017 538.078L255.904 540.432L250.017 541.61C252.371 544.75 257.081 545.535 264.146 543.965L265.323 541.61C259.828 542.395 257.474 542.002 258.258 540.432H260.613L265.323 538.078L255.904 534.545L264.146 531.013V528.658ZM383.064 529.836V532.191L388.951 533.368L394.838 531.013L383.064 529.836ZM408.967 529.836C403.473 536.115 395.231 539.255 384.242 539.255L387.774 541.61L392.484 542.787L400.725 541.61H401.903L394.838 545.142L387.774 543.965L386.596 546.32L390.129 547.497L403.08 546.32L408.967 538.078V534.545L403.08 539.255H400.725L408.967 532.191V529.836ZM266.5 532.191L264.146 535.723L266.5 534.545V532.191ZM251.194 545.142V547.497L254.726 548.674C258.651 549.459 261.398 549.067 262.968 547.497L251.194 545.142Z" fill="#0A0A0A"/>
<path opacity="0.996078" d="M202.333 105.967L212.341 110.088L210.575 110.676L201.745 108.322L202.333 105.967Z" fill="#0A0A0A"/>
<path opacity="0.996078" d="M210.573 113.031L221.759 119.507L219.993 118.918L211.751 115.386L210.573 113.031Z" fill="#0A0A0A"/>
<path opacity="0.996078" d="M352.45 188.385H361.28L371.877 190.74L377.175 193.684L374.232 194.272L363.635 190.74H352.45V188.385Z" fill="#0A0A0A"/>
<path opacity="0.996078" d="M336.559 202.513C341.112 201.963 344.448 202.552 346.567 204.279L342.446 204.868L336.559 203.69V202.513Z" fill="#0A0A0A"/>
<path opacity="0.996078" d="M337.734 230.77L344.209 238.423L341.855 237.246L340.089 234.302L337.145 232.536L337.734 230.77Z" fill="#0A0A0A"/>
<path opacity="0.996078" d="M301.234 246.077L307.71 251.375H304.177C305.983 250.433 305.787 249.452 303.589 248.431L290.637 253.141L291.815 250.786L301.234 246.077Z" fill="#0A0A0A"/>
<path opacity="0.996078" d="M197.624 249.611L199.39 250.2L190.56 253.143V251.966L197.624 249.611Z" fill="#0A0A0A"/>
<path opacity="0.996078" d="M289.46 257.853L287.105 261.385L284.75 262.563L285.928 260.208L289.46 257.853Z" fill="#0A0A0A"/>
<path opacity="0.996078" d="M327.137 275.513C333.26 274.1 336.988 275.081 338.323 278.457L336.557 277.868C328.236 276.612 321.957 277.397 317.718 280.223L317.129 277.868L327.137 275.513Z" fill="#0A0A0A"/>
<path opacity="0.996078" d="M334.204 283.757C337.186 282.972 338.168 283.757 337.147 286.112L327.139 289.644L328.317 287.289L334.204 283.757Z" fill="#0A0A0A"/>
<path opacity="0.996078" d="M150.528 304.95L155.238 306.128L157.004 305.539L159.358 321.434L150.528 322.611L146.407 321.434L145.818 323.789L145.229 319.668L146.996 320.257C150.292 321.277 151.274 319.903 149.939 316.136L147.584 306.716L150.528 304.95ZM154.649 308.482L152.294 310.837L154.649 319.079H155.826C156.611 314.369 156.219 310.837 154.649 308.482Z" fill="#0A0A0A"/>
<path opacity="0.996078" d="M187.616 304.95H198.801L199.979 306.128H202.333L204.1 306.716V309.071L206.454 324.966L196.446 326.144L197.035 324.378L199.39 316.136L196.446 309.66L193.503 310.837L194.68 327.321C190.599 328.969 189.029 327.988 189.971 324.378L191.148 322.023L187.616 304.95Z" fill="#0A0A0A"/>
<path opacity="0.996078" d="M190.56 329.676L191.737 330.853H207.043L208.809 332.619V338.506L212.93 347.337L213.519 344.393L209.987 332.619H211.164L212.342 339.684L218.229 353.813L196.447 354.401L195.858 351.458L191.148 339.684L190.56 329.676ZM200.568 336.74L199.39 337.918C196.25 337.133 195.465 338.703 197.035 342.627C197.82 344.197 198.998 344.197 200.568 342.627V344.982L206.455 349.692L202.922 343.805L205.277 342.627L204.1 341.45L205.277 339.095C206.062 335.955 204.492 335.17 200.568 336.74ZM200.568 344.982L199.39 347.337L201.745 348.514L200.568 344.982Z" fill="#0A0A0A"/>
<path opacity="0.996078" d="M183.492 341.448L189.968 354.988H188.79L182.903 343.214L183.492 341.448Z" fill="#0A0A0A"/>
<path opacity="0.996078" d="M187.024 342.625L192.323 353.81H191.145L187.024 342.625Z" fill="#0A0A0A"/>
<path opacity="0.996078" d="M222.349 382.658L231.179 383.247L222.349 383.836V382.658Z" fill="#0A0A0A"/>
<path opacity="0.996078" d="M291.814 393.254L294.758 395.02L289.459 401.496C287.733 400.946 287.144 401.535 287.693 403.262L288.282 405.028L285.927 403.851L265.911 412.093L269.443 407.383C271.563 405.185 275.095 404.4 280.04 405.028L290.048 398.552C289.499 395.648 290.087 393.882 291.814 393.254Z" fill="#0A0A0A"/>
<path opacity="0.996078" d="M290.637 445.062L291.226 447.417L281.218 453.304L282.395 450.949L290.637 445.062Z" fill="#0A0A0A"/>
<path opacity="0.996078" d="M288.282 450.949L290.048 451.538L286.516 453.304C287.379 455.423 286.791 456.208 284.75 455.659L265.911 467.433L268.266 463.901L288.282 450.949Z" fill="#0A0A0A"/>
</svg>
