<svg width="504" height="508" viewBox="0 0 504 508" fill="none" xmlns="http://www.w3.org/2000/svg">
<path opacity="0.996078" d="M275.969 0L289.295 1.10868L294.848 4.43472C299.142 0.591296 306.175 -0.517384 315.948 1.10868C331.496 4.43472 343.526 11.2716 352.041 21.6193L357.593 34.3691C363.812 34.6647 368.254 37.0669 370.92 41.5755C376.546 48.1537 380.989 55.9144 384.246 64.8578L386.467 75.9446V91.4661V93.6834C393.723 99.3747 398.165 107.875 399.794 119.183C397.943 120.292 397.573 122.879 398.683 126.944L399.794 129.161L396.462 148.009C399.72 152.148 401.2 158.061 400.904 165.748L396.462 180.16V186.813L397.573 189.03L394.241 205.66L389.799 211.203L391.465 211.758C402.126 206.88 414.712 203.923 429.223 202.888L435.886 205.106L471.423 229.497L492.524 230.605C497.41 231.271 500.927 233.303 503.074 236.703L498.076 239.475H493.634L465.871 248.344L442.549 236.149L429.778 225.616L429.223 223.953L417.007 231.714L397.017 235.04L395.351 234.486L393.13 247.79C390.243 254.885 385.986 260.614 380.359 264.974C378.73 264.457 378.175 265.011 378.693 266.637L380.359 266.083L401.459 259.431L411.454 258.322L429.223 269.409L466.981 303.778L483.639 308.213L494.189 315.419L497.521 326.506L495.855 325.952C490.969 319.743 482.084 317.526 469.202 319.3L468.092 320.408H457.542C458.504 318.191 457.579 317.452 454.765 318.191C440.402 311.096 428.186 301.857 418.118 290.474L410.344 287.148L388.133 293.8L373.141 294.909L367.033 303.778L349.819 311.539L350.375 313.756L360.37 309.322H364.812L373.696 305.996L385.912 308.213L400.904 319.854C400.386 321.554 400.941 322.108 402.57 321.517L427.557 350.897L428.668 359.767L448.657 392.473L455.876 396.907C461.132 396.464 465.204 397.203 468.092 399.125L474.2 405.222L475.31 409.657C474.422 411.727 473.496 411.911 472.534 410.211L445.881 404.668L433.11 396.353L415.896 370.299C411.824 370.003 409.048 368.34 407.567 365.31L405.902 362.538L402.015 359.767L381.47 335.93L365.922 339.256L338.714 341.473L336.493 348.68L337.604 349.788V361.984L328.719 396.353L329.83 397.462V406.331L324.277 420.744L325.388 421.853V437.374L315.393 461.765C308.655 472.039 300.697 481.093 291.516 488.928C281.817 496.245 270.342 501.788 257.09 505.558L245.984 507.775H221.552L216.555 503.895L220.442 498.906L231.547 494.471L258.755 469.526L264.308 459.548L266.529 445.135L263.753 441.255C253.166 442.141 245.947 446.391 242.097 454.004L228.771 480.058C225.735 481.315 224.625 480.391 225.439 477.287L223.218 473.961V457.33C227.216 433.605 236.285 414.942 250.426 401.342C257.09 394.32 265.789 389.331 276.524 386.375C273.044 382.531 271.378 376.803 271.527 369.19L252.647 380.277C247.317 382.716 240.283 383.455 231.547 382.494L229.881 381.94L228.771 386.929C224.477 390.255 218.739 392.473 211.557 393.581L186.015 394.69H183.794L174.91 392.473L168.246 393.581L153.809 390.255L143.815 383.603L139.373 386.929L126.046 390.255L84.9561 391.364L82.1798 394.136L86.622 408.548V422.961C80.4029 448.165 68.7423 467.937 51.64 482.276L41.6452 487.819C39.6462 486.932 39.0909 484.53 39.9794 480.613L45.5321 465.091L51.0847 434.048V431.831V418.527L49.4189 416.864C44.6066 417.972 41.0899 420.374 38.8688 424.07C33.3161 429.613 29.9845 437.374 28.874 447.352V449.57L29.9845 467.308L33.3161 470.635H31.0951L33.3161 478.395L29.4293 480.058L23.8766 477.841L11.1054 465.091C3.77583 455.852 0.0740359 442.918 0 426.287L1.11054 425.179L2.22108 409.657L6.66323 396.353C11.9198 385.34 19.1383 376.286 28.3187 369.19L43.8662 361.43C48.9007 354.63 55.9341 349.825 64.9665 347.017L82.7351 341.473L99.3931 340.365L102.725 341.473C104.65 342.065 105.205 341.141 104.391 338.702L98.8379 325.397V313.202L102.169 306.55L92.7299 294.909L84.4009 287.702L77.1824 268.3L72.185 264.42L62.1901 244.464L59.969 234.486V215.638L65.5217 201.225C63.5968 200.191 62.8564 197.973 63.3007 194.573L67.7428 184.595L74.406 177.943L82.1798 165.193L86.0667 162.976C99.2451 146.937 120.345 138.807 149.367 138.585L167.136 141.911L183.794 149.672L206.56 170.182L213.223 183.486L217.665 187.921L224.329 204.551L223.218 206.769L224.329 211.203L222.108 220.073L224.884 223.953C229.992 223.436 233.509 224.175 235.434 226.171L229.881 200.117V184.595C232.399 176.021 237.026 169.554 243.763 165.193C254.572 159.724 264.197 153.072 272.637 145.237L284.853 144.128L285.964 145.237H299.29L304.287 148.009L301.511 152.998C297.735 155.511 292.183 156.25 284.853 155.215L283.187 156.878L278.745 165.748L263.753 180.715L255.424 185.15C256.756 188.771 257.127 193.76 256.534 200.117L259.311 211.758L272.082 204.551C272.378 198.565 274.784 194.684 279.3 192.91L289.85 187.921L298.179 175.171L304.843 170.737L310.951 169.074L309.84 166.856C311.987 160.869 315.504 156.25 320.39 152.998L327.609 150.78C328.793 144.128 331.755 138.77 336.493 134.705L335.382 129.161L336.493 126.944L335.382 125.835V113.64L344.267 99.2268L329.83 81.488L325.388 70.4012L324.277 61.5317L325.388 55.434C311.839 53.3644 300.919 48.1906 292.627 39.9125L279.3 47.6732C276.191 49.7428 271.749 50.4819 265.974 49.8906L264.308 51.5536V60.423L265.419 61.5317L264.308 62.6404V72.6185L256.534 92.5748L240.987 118.074L232.658 127.498C228.29 132.302 221.441 134.15 212.113 133.042C216.481 127.942 219.812 121.474 222.108 113.64V111.422L219.887 103.662C212.705 96.7877 206.782 88.6574 202.118 79.2706L198.786 62.6404C200.637 61.5317 201.007 58.9448 199.897 54.8796L205.45 42.6842L212.668 35.4777L222.108 29.38C223.218 24.5757 225.624 21.0649 229.326 18.8476C241.394 9.09117 256.941 2.80866 275.969 0ZM282.077 6.65208L280.966 7.76076L266.529 8.86944L256.534 12.1955L235.434 25.4996C233.213 24.7605 232.473 25.4996 233.213 27.717H237.655L246.539 32.1517L247.65 29.9344V27.717L249.871 28.8257C250.611 31.7822 251.722 32.1517 253.203 29.9344L250.982 26.6083L252.092 24.391L254.313 25.4996L257.645 28.8257L255.424 23.2823L260.976 26.6083L262.087 25.4996L259.866 21.0649L260.976 18.8476C263.938 20.3258 265.419 22.9127 265.419 26.6083C268.38 27.3474 269.12 25.4996 267.64 21.0649L266.529 17.7389L268.75 18.8476L270.971 24.391L274.303 23.2823L269.861 16.6302L272.082 15.5215L274.303 19.9562C275.784 22.9127 277.264 23.2823 278.745 21.0649L275.413 15.5215L276.524 13.3042L279.856 18.8476L282.077 19.9562L280.966 14.4128V12.1955L285.408 18.8476C284.668 21.0649 285.408 21.804 287.629 21.0649L285.408 13.3042L287.629 14.4128C286.889 15.8911 287.629 16.2606 289.85 15.5215V12.1955L287.629 7.76076L282.077 6.65208ZM302.066 8.86944L298.735 9.97812L297.624 18.8476H299.845L298.735 21.0649L300.956 23.2823L303.177 18.8476C304.658 13.6737 304.287 10.3477 302.066 8.86944ZM309.84 8.86944V11.0868V21.0649L308.73 22.1736L309.84 25.4996L313.172 18.8476L315.393 19.9562L313.172 24.391L315.393 27.717L317.614 26.6083L318.724 25.4996L319.835 18.8476H320.945C321.686 24.0214 320.945 27.717 318.724 29.9344L325.388 25.4996L326.498 26.6083L323.167 33.2604H325.388C328.349 31.043 330.2 27.3474 330.94 22.1736L334.272 24.391L333.161 23.2823C333.161 29.9344 331.31 34.7386 327.609 37.6951H329.83L334.272 32.1517V29.9344V27.717L335.382 25.4996L337.604 29.9344L336.493 33.2604L337.604 37.6951L339.825 32.1517C340.565 28.4561 339.825 26.2388 337.604 25.4996L342.046 28.8257C341.305 31.043 342.786 31.4126 346.488 29.9344L345.377 35.4777L348.709 34.3691L344.267 25.4996L327.609 12.1955L322.056 9.97812L309.84 8.86944ZM294.293 26.6083C286.149 32.5213 276.894 36.956 266.529 39.9125V42.1298C265.789 43.6081 266.529 43.9776 268.75 43.2385L267.64 42.1298H269.861L288.74 33.2604L294.293 28.8257V26.6083ZM299.845 31.043V33.2604C305.768 39.9125 313.912 44.7167 324.277 47.6732H328.719L315.393 42.1298L306.508 36.5864L303.177 33.2604L299.845 31.043ZM227.66 36.5864L216.555 42.1298C212.113 45.0863 209.151 49.521 207.671 55.434V70.9555L218.776 90.9117L224.329 95.3465L214.334 75.3902L211.002 64.3034C210.262 58.3905 211.002 54.3253 213.223 52.1079L215.444 50.9993L213.223 58.76L214.334 70.9555L219.887 83.151L223.218 84.2597L224.329 85.3683L222.108 77.6076L223.218 73.1729L226.55 87.5857H227.66L226.55 82.0423L227.66 78.7163V82.0423H228.771L227.66 73.1729C226.18 71.6946 226.55 70.5859 228.771 69.8468L230.992 79.8249C230.252 82.7814 230.992 83.8901 233.213 83.151L232.102 77.6076L233.213 70.9555V65.4121L228.771 55.434L229.881 53.2166C235.804 57.6513 238.395 65.7817 237.655 77.6076L239.876 76.4989L238.766 65.4121V63.1947C238.766 57.2818 237.285 53.2166 234.323 50.9993L235.434 48.7819L240.987 56.5427L244.318 58.76L243.208 53.2166L238.766 45.4559V43.2385L243.208 45.4559L247.65 53.2166H248.76C249.501 49.521 248.76 47.3037 246.539 46.5645L236.545 37.6951L227.66 36.5864ZM352.041 39.9125L344.267 45.4559L338.714 52.1079L352.041 45.4559L350.93 44.3472L352.041 42.1298V39.9125ZM362.035 45.4559L360.925 46.5645C358.704 45.8254 357.963 46.5645 358.704 48.7819L348.709 56.5427L340.935 64.3034V66.5208C344.637 67.2599 347.228 66.1512 348.709 63.1947L350.93 64.3034L344.267 69.8468L345.377 70.9555L352.041 66.5208L346.488 74.2815L354.262 69.8468L349.819 75.3902H352.041L354.262 74.2815L352.041 78.7163L358.704 76.4989H359.814L357.593 79.8249L358.704 80.9336C360.925 77.9771 364.256 76.8685 368.699 77.6076C369.439 74.6511 367.588 73.912 363.146 75.3902C360.925 74.6511 360.925 73.5424 363.146 72.0642C366.848 73.5424 368.328 73.1729 367.588 70.9555C366.107 68.7381 363.516 67.999 359.814 68.7381L360.925 66.5208L366.478 64.3034C365.737 62.0861 363.516 61.3469 359.814 62.0861L362.035 58.76C363.516 59.4991 363.886 58.76 363.146 56.5427L358.704 57.6513L357.593 55.434H362.035L359.814 49.8906L365.367 53.2166V52.1079L364.256 48.7819L372.03 63.1947L376.472 79.8249H377.583C376.843 66.5208 373.511 56.5427 367.588 49.8906C366.848 46.195 364.997 44.7167 362.035 45.4559ZM249.871 53.2166L248.76 55.434H249.871V53.2166ZM254.313 54.3253L253.203 74.2815L245.429 89.8031L246.539 92.0204L253.203 79.8249C253.203 74.6511 254.313 71.3251 256.534 69.8468V55.434L254.313 54.3253ZM243.208 59.8687L244.318 66.5208L243.208 72.0642L245.429 70.9555V60.9774L243.208 59.8687ZM333.161 63.1947L334.272 73.1729L339.825 83.151L345.377 87.5857C340.935 82.4119 337.604 76.1293 335.382 68.7381C336.863 64.3034 336.123 62.4556 333.161 63.1947ZM348.709 79.8249V80.9336H350.93L348.709 79.8249ZM367.588 86.477L357.593 88.6944L350.93 96.4551C353.151 97.1942 353.891 96.8247 353.151 95.3465L358.704 92.0204L373.141 88.6944L367.588 86.477ZM227.66 99.7812C226.18 102.738 226.55 105.325 228.771 107.542L227.66 119.737L225.439 123.063L226.55 124.172L229.881 119.737L230.992 113.085C231.732 106.433 230.622 101.999 227.66 99.7812ZM360.925 100.89L348.709 107.542L343.156 116.411C342.416 123.063 343.156 128.237 345.377 131.933H346.488L345.377 128.607C343.897 119.737 344.637 113.824 347.598 110.868L357.593 106.433C358.334 108.651 357.223 109.39 354.262 108.651L349.819 114.194L354.262 111.977C356.483 111.238 357.223 111.977 356.483 114.194L352.041 116.411L349.819 119.737L355.372 117.52L357.593 118.629L354.262 120.846L350.93 125.281L356.483 123.063L359.814 124.172L354.262 128.607L355.372 130.824L358.704 128.607H369.809L367.588 126.389C364.627 127.129 363.516 126.389 364.256 124.172C368.699 123.433 372.4 124.172 375.362 126.389C376.843 127.129 377.213 126.759 376.472 125.281L374.251 121.955C370.549 122.694 367.958 122.324 366.478 120.846L370.92 118.629L380.914 120.846V119.737C378.693 120.477 377.953 119.737 378.693 117.52L372.03 114.194H368.699V113.085C374.621 112.346 378.693 113.455 380.914 116.411V113.085L373.141 109.759V108.651C377.583 108.651 380.914 110.129 383.136 113.085V111.977L375.362 105.325H367.588L366.478 104.216H368.699L372.03 103.107L378.693 105.325H379.804L375.362 100.89H360.925ZM384.246 101.999L388.688 119.737L389.799 138.585L392.02 125.281L388.688 109.759L384.246 101.999ZM356.483 135.259L342.046 140.802L336.493 147.454H338.714C340.195 143.759 341.675 143.389 343.156 146.346L342.046 148.563H353.151C354.632 151.52 358.334 152.628 364.256 151.889L377.583 159.65H378.693C374.251 154.476 367.958 151.15 359.814 149.672V148.563C367.218 149.302 373.511 151.52 378.693 155.215H379.804C374.621 150.041 367.588 146.715 358.704 145.237L346.488 146.346L344.267 147.454L349.819 144.128C360.184 143.389 368.328 145.237 374.251 149.672H376.472L366.478 144.128H362.035V143.02L376.472 145.237L390.909 162.976C391.65 166.672 390.909 169.628 388.688 171.845H390.909L393.13 166.302C392.39 158.172 389.429 151.889 384.246 147.454L377.583 140.802L365.367 135.259H356.483ZM136.596 147.454L117.717 151.889C108.092 154.846 100.319 159.65 94.3957 166.302C92.1746 165.563 91.4343 166.302 92.1746 168.519L89.9536 171.845L96.6168 169.628H106.612L107.722 168.519H119.938L132.154 170.737L156.586 182.932L163.249 191.802L165.47 192.91L161.028 185.15C152.144 171.106 136.226 164.454 113.275 165.193L119.938 162.976L137.707 165.193L152.144 170.737L172.133 186.258H173.244L171.023 182.932C164.36 172.584 154.365 165.563 141.038 161.867V160.759C151.403 162.237 159.917 165.932 166.581 171.845V170.737V168.519L173.244 174.063V172.954C168.061 165.563 160.658 160.759 151.033 158.541L149.923 156.324L163.249 162.976H165.47L164.36 161.867L163.249 159.65C169.912 162.606 175.465 167.041 179.907 172.954C179.167 174.432 179.907 174.802 182.128 174.063L179.907 169.628L158.807 154.106V152.998C167.691 155.215 175.095 158.911 181.018 164.085L188.791 175.171H189.902L185.46 166.302L166.581 151.889L148.812 147.454H136.596ZM349.819 149.672V150.78H353.151L349.819 149.672ZM279.856 150.78V151.889H280.966L279.856 150.78ZM272.082 154.106L249.871 170.737C247.65 171.476 246.91 173.693 247.65 177.389L252.092 178.497C252.832 179.976 253.573 179.976 254.313 178.497L250.982 176.28V175.171L254.313 176.28C257.275 177.019 258.385 176.28 257.645 174.063L254.313 172.954V171.845L259.866 172.954L260.976 174.063L257.645 169.628H259.866H265.419L262.087 167.411L266.529 165.193L267.64 162.976L269.861 164.085L268.75 161.867L269.861 159.65L272.082 160.759L273.192 158.541C273.933 154.846 273.562 153.367 272.082 154.106ZM343.156 154.106C341.675 156.324 338.714 156.693 334.272 155.215L326.498 158.541C322.796 160.759 320.205 164.454 318.724 169.628L320.945 168.519L336.493 169.628L344.267 171.845L345.377 172.954C346.118 170.737 345.007 169.998 342.046 170.737V169.628H344.267C347.228 168.15 348.339 169.258 347.598 172.954L356.483 176.28H357.593L352.041 172.954V171.845L362.035 176.28H363.146L354.262 170.737V169.628L364.256 174.063L374.251 186.258L376.472 191.802L378.693 192.91L377.583 188.476L367.588 175.171C363.146 170.737 357.963 167.78 352.041 166.302V165.193H359.814C360.555 167.411 362.776 168.15 366.478 167.411L379.804 176.28C384.986 179.976 387.578 186.628 387.578 196.236H388.688C390.169 187.367 388.688 181.084 384.246 177.389C378.323 169.258 370.549 162.976 360.925 158.541C357.223 159.28 355.742 158.541 356.483 156.324L343.156 154.106ZM379.804 156.324C378.323 158.541 378.693 159.28 380.914 158.541L379.804 156.324ZM174.354 174.063L175.465 176.28C176.205 174.063 175.835 173.324 174.354 174.063ZM318.724 175.171L303.177 180.715L300.956 184.041L307.619 181.823L308.73 182.932L303.177 185.15L300.956 188.476L306.508 186.258L323.167 188.476L327.609 190.693C330.57 189.215 331.681 189.954 330.94 192.91L333.161 191.802L334.272 192.91L332.051 194.019L339.825 197.345L342.046 196.236L340.935 198.454L350.93 203.997L354.262 209.54L360.925 213.975L364.256 217.301L357.593 208.432L346.488 198.454H344.267L343.156 196.236L344.267 194.019L360.925 206.214V205.106C354.262 196.236 345.007 189.954 333.161 186.258L332.051 184.041L345.377 187.367L362.035 198.454C368.699 202.888 373.511 209.54 376.472 218.41L378.693 219.519L375.362 208.432L364.256 192.91L357.593 186.258C355.372 186.997 354.632 186.258 355.372 184.041C347.228 177.389 335.012 174.432 318.724 175.171ZM98.8379 176.28C89.9536 177.758 82.9202 180.345 77.7377 184.041L68.8533 194.019V195.128L77.7377 188.476L91.0641 182.932L101.059 180.715H112.164L113.275 179.606L132.154 182.932L147.702 191.802L156.586 206.214L159.917 221.736L158.807 227.279L159.917 229.497L153.254 249.453C146.591 257.583 138.817 264.235 129.933 269.409C123.27 273.105 115.866 275.322 107.722 276.061H105.501C101.799 273.844 96.987 273.474 91.0641 274.953L89.9536 273.844L86.622 274.953L97.7273 278.279H115.496C116.977 276.061 119.938 275.322 124.38 276.061C133.265 273.105 140.668 268.67 146.591 262.757L156.586 250.562L163.249 235.04C164.73 223.953 164.36 215.084 162.139 208.432L158.807 200.671L152.144 191.802L146.591 185.15L132.154 178.497L119.938 176.28H98.8379ZM359.814 176.28L364.256 180.715H365.367L359.814 176.28ZM364.256 176.28L365.367 178.497H366.478L364.256 176.28ZM238.766 178.497L236.545 185.15L237.655 186.258H243.208L240.987 182.932C241.727 179.237 240.987 177.758 238.766 178.497ZM191.013 179.606L184.349 182.932C178.426 186.628 174.725 192.541 173.244 200.671V210.649L179.907 228.388L189.902 236.149H191.013L188.791 233.931C183.609 229.497 180.277 223.953 178.797 217.301L179.907 212.866L186.57 227.279C190.272 230.975 195.455 233.192 202.118 233.931H203.228C201.007 230.975 198.046 229.127 194.344 228.388C189.902 224.692 186.941 219.888 185.46 213.975L186.57 196.236L191.013 189.584L189.902 188.476L187.681 189.584L196.565 184.041V182.932H193.234L186.57 187.367H184.349L193.234 180.715L191.013 179.606ZM366.478 180.715V181.823H368.699L366.478 180.715ZM369.809 181.823V186.258H372.03L369.809 181.823ZM199.897 189.584L197.676 190.693L189.902 202.888C189.162 209.54 190.642 213.975 194.344 216.193V211.758L202.118 197.345L206.56 194.019L211.002 197.345L212.113 202.888L211.002 206.214V209.54C213.223 208.801 213.964 209.91 213.223 212.866V215.084L212.113 217.301V219.519L207.671 225.062L208.781 227.279C212.483 223.584 214.704 218.779 215.444 212.866C216.185 203.997 214.334 197.715 209.892 194.019C208.411 190.323 205.079 188.845 199.897 189.584ZM102.169 190.693L86.622 195.128L79.9587 199.562C74.0359 203.997 70.3341 210.649 68.8533 219.519C68.113 226.91 68.4832 233.562 69.9639 239.475L79.9587 257.214L87.7325 263.866L78.8482 250.562L75.5166 237.257V229.497L74.406 226.171L76.6271 216.193L83.2903 205.106L98.8379 194.019L109.943 191.802L102.169 190.693ZM238.766 190.693V192.91V194.019H246.539C245.059 191.062 242.467 189.954 238.766 190.693ZM324.277 190.693V191.802H326.498L324.277 190.693ZM299.845 194.019L285.408 198.454L279.856 203.997V206.214L284.298 202.888L285.408 203.997L289.85 202.888L286.519 201.78V200.671C293.182 199.932 298.735 201.041 303.177 203.997L302.066 202.888C293.922 202.888 287.259 204.367 282.077 207.323H300.956L309.84 210.649C312.061 209.91 312.802 210.649 312.061 212.866L323.167 218.41L332.051 229.497H334.272L328.719 222.845L330.94 221.736L337.604 230.605L342.046 232.823L334.272 221.736C332.051 222.475 331.31 222.105 332.051 220.627L330.94 217.301L336.493 220.627L344.267 230.605L347.598 232.823L338.714 220.627L345.377 225.062H346.488L329.83 208.432H326.498V207.323L333.161 208.432L345.377 216.193L353.151 227.279L358.704 238.366V243.91H359.814L358.704 230.605L349.819 217.301C343.156 209.171 335.012 202.519 325.388 197.345L314.282 194.019H299.845ZM376.472 194.019L377.583 196.236C378.323 194.019 377.953 193.28 376.472 194.019ZM238.766 195.128L240.987 216.193L243.208 215.084L246.539 212.866V211.758H245.429H242.097L246.539 208.432L247.65 206.214L243.208 207.323L242.097 206.214L248.76 202.888L246.539 201.78L242.097 200.671C241.357 198.454 242.838 197.715 246.539 198.454V196.236L238.766 195.128ZM378.693 196.236L377.583 198.454H378.693V196.236ZM203.228 201.78L206.56 219.519H207.671C206.93 217.301 207.671 216.562 209.892 217.301L211.002 215.084L209.892 210.649C211.372 206.214 210.632 204.367 207.671 205.106L209.892 212.866L208.781 215.084L206.56 213.975V203.997L203.228 201.78ZM198.786 203.997L199.897 207.323C199.156 208.801 199.897 209.171 202.118 208.432L201.007 206.214C201.748 203.997 201.007 203.258 198.786 203.997ZM362.035 206.214L360.925 208.432L364.256 210.649L362.035 206.214ZM199.897 209.54V211.758V213.975C199.156 215.453 199.897 215.823 202.118 215.084V209.54H199.897ZM423.115 209.54L408.678 215.084L396.462 216.193L390.909 218.41L385.357 225.062L388.688 226.171L389.799 223.953L393.13 221.736L392.02 225.062L393.13 227.279V226.171H394.241C393.501 227.649 394.241 228.018 396.462 227.279L395.351 225.062L396.462 220.627L398.683 221.736L397.573 223.953L399.794 225.062L398.683 227.279L402.015 225.062C400.534 220.627 401.274 218.779 404.236 219.519C405.717 220.258 406.457 222.475 406.457 226.171C407.938 225.432 408.308 223.584 407.567 220.627L409.788 219.519C409.048 222.475 409.788 223.584 412.01 222.845L415.341 217.301C417.562 216.562 417.932 218.41 416.452 222.845L418.673 221.736C417.932 219.519 418.673 218.779 420.894 219.519L425.336 213.975L423.115 217.301C422.375 218.779 423.115 219.149 425.336 218.41C427.557 217.671 428.297 215.084 427.557 210.649L423.115 209.54ZM248.76 210.649V211.758H249.871L248.76 210.649ZM198.786 211.758L196.565 213.975L198.786 215.084V211.758ZM276.524 212.866L267.64 215.084L262.087 219.519L263.197 222.845L265.419 221.736L279.856 223.953C284.298 223.214 286.149 223.953 285.408 226.171L284.298 225.062L276.524 226.171V227.279L279.856 226.171L295.403 230.605L296.514 232.823L292.071 230.605L288.74 231.714L298.735 236.149L305.398 242.801L300.956 237.257L302.066 235.04L309.84 245.018L313.172 247.236L308.73 239.475L303.177 235.04L305.398 233.931C314.282 242.062 320.945 252.779 325.388 266.083H326.498L320.945 251.67C317.984 250.192 317.614 249.083 319.835 248.344L315.393 239.475L308.73 235.04L306.508 231.714L315.393 237.257C319.095 239.475 321.686 243.17 323.167 248.344H324.277L323.167 243.91L306.508 228.388L305.398 226.171L320.945 235.04C328.349 240.214 333.532 247.975 336.493 258.322H337.604C334.642 246.496 329.46 237.627 322.056 231.714C322.796 229.497 322.426 228.758 320.945 229.497L318.724 226.171L298.735 213.975C292.812 211.758 285.408 211.388 276.524 212.866ZM433.11 215.084V217.301L436.441 216.193L433.11 215.084ZM243.208 216.193L242.097 218.41H243.208V216.193ZM437.552 217.301L436.441 220.627L437.552 222.845L440.884 220.627L438.662 223.953C440.884 226.171 443.105 226.171 445.326 223.953L443.105 227.279L447.547 226.171C449.027 226.91 449.398 226.54 448.657 225.062L437.552 217.301ZM206.56 219.519L204.339 223.953L206.56 222.845V219.519ZM364.256 219.519V225.062H366.478L364.256 219.519ZM244.318 220.627L245.429 229.497L247.65 228.388L246.539 225.062C247.28 221.366 246.539 219.888 244.318 220.627ZM450.878 225.062C450.878 227.279 449.768 228.018 447.547 227.279V229.497L450.878 228.388C452.359 227.649 452.729 228.388 451.989 230.605V231.714L456.431 230.605L455.321 232.823C454.58 234.301 455.321 234.671 457.542 233.931H459.763C461.984 233.192 462.354 234.301 460.873 237.257L465.315 238.366V236.149L450.878 225.062ZM204.339 227.279L203.228 229.497L201.007 230.605H205.45L204.339 227.279ZM379.804 228.388L373.141 236.149L368.699 247.236C362.776 252.409 358.334 259.431 355.372 268.3V269.409L362.035 268.3L360.925 264.974L363.146 266.083H367.588L365.367 263.866C363.146 264.605 362.406 263.866 363.146 261.648V259.431L369.809 263.866H372.03L370.92 262.757L366.478 257.214L370.92 259.431V257.214L368.699 254.996C367.958 252.779 368.699 252.04 370.92 252.779L373.141 257.214C372.4 258.692 373.141 259.061 375.362 258.322L372.03 247.236L375.362 249.453C374.621 250.931 375.362 251.301 377.583 250.562C378.323 246.866 377.213 244.649 374.251 243.91L376.472 242.801L378.693 247.236H379.804L378.693 239.475V237.257L382.025 245.018H383.136L380.914 235.04C383.136 234.301 383.876 235.04 383.136 237.257L385.357 238.366V233.931L383.136 229.497L379.804 228.388ZM256.534 229.497L253.203 233.931C262.827 233.192 270.601 234.671 276.524 238.366L300.956 254.996L315.393 278.279L317.614 279.387C313.912 267.561 308.359 257.953 300.956 250.562C295.033 243.17 287.999 237.257 279.856 232.823L265.419 229.497H256.534ZM225.439 230.605L226.55 240.583L228.771 235.04L229.881 239.475L230.992 236.149C233.213 235.41 233.953 236.888 233.213 240.583V241.692L238.766 238.366L237.655 240.583C238.395 242.062 237.655 242.431 235.434 241.692L234.323 245.018H236.545H238.766L242.097 240.583C241.357 244.279 242.097 246.866 244.318 248.344L247.65 246.127H248.76L246.539 249.453H248.76L252.092 253.888V250.562L254.313 251.67C253.573 253.149 254.313 253.518 256.534 252.779L257.645 257.214L260.976 258.322L256.534 248.344L248.76 239.475L225.439 230.605ZM192.123 232.823L191.013 235.04L195.455 237.257C196.935 237.997 197.306 237.257 196.565 235.04L192.123 232.823ZM343.156 232.823L344.267 238.366L346.488 239.475L343.156 232.823ZM256.534 235.04L255.424 237.257H256.534V235.04ZM470.868 236.149C470.128 238.366 470.868 239.105 473.089 238.366C473.829 236.149 473.089 235.41 470.868 236.149ZM257.645 237.257L256.534 239.475L260.976 245.018L266.529 248.344L265.419 250.562C269.861 249.822 273.192 250.931 275.413 253.888C276.894 253.149 277.264 253.888 276.524 256.105L268.75 252.779L266.529 253.888L278.745 261.648L279.856 263.866L282.077 262.757L285.408 267.192L284.298 268.3L287.629 269.409L292.071 276.061L295.403 278.279L284.298 261.648L279.856 254.996L288.74 261.648L290.961 266.083L298.735 272.735L294.293 264.974L295.403 262.757L296.514 266.083L299.845 267.192L302.066 272.735L304.287 273.844L290.961 252.779C286.519 246.866 280.966 242.801 274.303 240.583L257.645 237.257ZM171.023 239.475L166.581 249.453L152.144 267.192L142.149 274.953L131.043 280.496L117.717 283.822H97.7273L96.6168 282.713L88.843 283.822L96.6168 288.257H99.9484H102.169L104.391 291.583V289.365L107.722 290.474L133.265 284.931C143.63 281.235 152.884 276.061 161.028 269.409L165.47 263.866L168.802 261.648L173.244 252.779V250.562L164.36 260.54C165.1 262.018 164.73 262.388 163.249 261.648L161.028 264.974L154.365 270.518L151.033 272.735C159.917 265.344 166.581 255.735 171.023 243.91V239.475ZM347.598 239.475L346.488 241.692H347.598V239.475ZM176.576 241.692L174.354 243.91L175.465 247.236H176.576V241.692ZM215.444 241.692L213.223 243.91L214.334 246.127L216.555 242.801L215.444 241.692ZM346.488 242.801V246.127L349.819 247.236L347.598 245.018C348.339 242.801 347.969 242.062 346.488 242.801ZM206.56 245.018L196.565 260.54L197.676 261.648L208.781 246.127L206.56 245.018ZM179.907 246.127L177.686 249.453H179.907V246.127ZM211.002 246.127L208.781 249.453L211.002 248.344V246.127ZM218.776 246.127L197.676 272.735L167.691 296.017L168.802 297.126L181.018 290.474L194.344 279.387L213.223 258.322L218.776 249.453V246.127ZM314.282 247.236C312.061 250.192 312.431 251.301 315.393 250.562L316.503 251.67L314.282 247.236ZM184.349 251.67L182.128 254.996L184.349 253.888V251.67ZM196.565 251.67L183.239 264.974L156.586 282.713L138.817 291.583L118.828 296.017H102.169L101.059 294.909L98.8379 296.017L101.059 299.344L105.501 301.561L114.385 303.778L121.049 302.67H123.27L146.591 296.017L165.47 287.148C176.576 279.757 186.57 271.257 195.455 261.648V259.431L188.791 264.974L183.239 271.627L179.907 272.735L177.686 273.844L181.018 271.627L196.565 253.888V251.67ZM175.465 252.779L173.244 258.322H175.465L177.686 254.996C178.426 252.779 177.686 252.04 175.465 252.779ZM172.133 258.322L171.023 260.54H172.133V258.322ZM270.971 258.322C269.491 260.54 269.861 261.279 272.082 260.54L277.634 267.192V264.974L270.971 258.322ZM338.714 258.322L337.604 260.54H338.714V258.322ZM234.323 261.648L226.55 266.083C219.887 271.257 215.074 277.909 212.113 286.039V288.257C209.151 286.778 208.041 287.518 208.781 290.474H211.002L207.671 301.561L205.45 303.778V308.213L206.56 311.539V313.756L205.45 312.648H204.339L205.45 322.626L212.113 337.039H214.334C210.632 331.865 208.041 325.582 206.56 318.191L208.781 317.082L211.002 323.734C210.262 300.822 215.074 283.452 225.439 271.627L234.323 263.866H236.545C237.285 261.648 236.545 260.909 234.323 261.648ZM250.982 263.866L248.76 266.083L237.655 269.409L226.55 281.605L220.997 298.235C220.257 306.365 221.367 312.648 224.329 317.082H225.439L223.218 309.322L224.329 302.67L226.55 313.756L228.771 314.865L227.66 312.648V301.561L229.881 290.474H232.102L238.766 278.279C243.208 271.627 250.241 267.561 259.866 266.083C258.385 263.127 255.424 262.388 250.982 263.866ZM406.457 266.083L388.688 270.518L369.809 278.279C366.848 277.539 365.737 278.279 366.478 280.496L370.92 282.713L375.362 279.387V281.605L379.804 283.822C379.064 280.126 379.804 277.909 382.025 277.17V280.496L385.357 281.605C384.616 278.648 385.357 276.8 387.578 276.061L390.909 277.17L393.13 276.061L392.02 281.605H394.241L397.573 272.735L400.904 280.496L404.236 271.627L405.346 274.953L404.236 278.279L405.346 279.387L407.567 273.844V271.627C409.048 267.192 408.678 265.344 406.457 266.083ZM410.899 267.192C409.418 270.887 409.788 273.474 412.01 274.953C413.49 274.213 413.86 271.996 413.12 268.3L410.899 267.192ZM419.783 271.627L416.452 276.061L417.562 280.496H420.894C422.375 279.757 422.745 280.866 422.004 283.822H425.336H426.447L425.336 286.039C424.596 287.518 425.336 287.887 427.557 287.148L430.889 284.931L427.557 290.474L430.889 289.365L434.22 290.474L435.331 288.257L437.552 290.474L434.22 292.691C433.48 294.17 434.22 294.539 436.441 293.8L437.552 296.017L438.662 293.8V291.583L440.884 292.691L438.662 297.126L439.773 298.235L443.105 296.017L444.215 297.126L443.105 299.344V300.452L448.657 298.235L425.336 276.061L419.783 273.844V271.627ZM211.002 273.844L209.892 276.061H211.002V273.844ZM256.534 273.844L247.65 279.387L243.208 283.822L236.545 299.344V312.648L237.655 313.756C236.915 315.974 237.655 316.713 239.876 315.974L238.766 313.756L240.987 304.887L244.318 300.452L245.429 293.8L248.76 291.583L244.318 303.778L246.539 315.974V314.865H247.65L246.539 321.517H248.76L249.871 310.43L254.313 299.344L257.645 297.126L255.424 301.561V310.43L254.313 311.539C253.573 315.974 254.313 319.3 256.534 321.517C255.794 322.995 256.534 323.365 258.755 322.626L257.645 321.517L259.866 312.648L264.308 309.322L263.197 311.539L264.308 323.734L265.419 314.865L266.529 318.191L267.64 314.865C266.899 318.561 267.64 320.778 269.861 321.517L274.303 310.43L276.524 309.322L273.192 314.865L272.082 321.517L274.303 327.06V323.734L280.966 311.539L294.293 304.887L309.84 301.561C306.138 299.344 301.696 298.604 296.514 299.344L294.293 297.126C289.11 296.387 285.778 297.126 284.298 299.344H282.077L283.187 296.017L290.961 293.8L310.951 299.344L309.84 297.126C307.619 297.865 306.879 297.126 307.619 294.909L299.845 290.474H296.514H294.293L293.182 288.257C285.778 286.778 280.226 287.518 276.524 290.474L266.529 299.344L268.75 296.017C272.452 290.105 278.375 286.778 286.519 286.039V284.931C283.557 285.67 282.447 285.3 283.187 283.822C281.706 284.561 280.596 283.822 279.856 281.605C273.192 280.126 269.12 280.866 267.64 283.822H265.419C267.64 280.126 271.712 278.648 277.634 279.387L269.861 274.953L264.308 276.061L256.534 280.496V282.713L255.424 281.605L263.197 274.953V273.844L258.755 274.953L256.534 273.844ZM209.892 276.061L206.56 279.387L199.897 294.909L197.676 305.996C199.897 308.952 200.267 313.756 198.786 320.408L203.228 334.821H204.339L199.897 315.974L201.007 299.344L205.45 286.039L209.892 278.279V276.061ZM213.223 276.061L205.45 289.365V292.691V294.909L204.339 300.452L205.45 301.561L207.671 297.126L206.56 293.8L207.671 288.257L213.223 278.279V276.061ZM296.514 278.279L295.403 280.496H296.514V278.279ZM358.704 282.713C346.858 287.148 336.863 293.061 328.719 300.452L329.83 301.561L335.382 298.235L336.493 302.67L338.714 301.561L337.604 296.017L343.156 292.691L344.267 293.8C341.305 294.539 340.195 296.387 340.935 299.344L344.267 298.235C345.747 298.974 346.118 297.126 345.377 292.691L354.262 287.148L356.483 296.017L357.593 293.8L356.483 289.365L357.593 284.931L363.146 293.8C362.406 295.278 363.146 295.648 365.367 294.909L366.478 291.583L364.256 287.148L358.704 282.713ZM318.724 283.822L317.614 291.583H319.835L318.724 283.822ZM352.041 289.365L347.598 291.583L349.819 297.126L352.041 291.583V289.365ZM208.781 290.474L207.671 293.8H208.781V290.474ZM188.791 292.691L173.244 301.561L151.033 309.322C143.63 309.322 138.077 310.43 134.375 312.648L132.154 311.539L125.491 313.756L133.265 314.865L134.375 313.756H147.702L156.586 311.539C161.768 306.365 169.172 303.039 178.797 301.561L188.791 294.909V292.691ZM449.768 298.235L445.326 302.67L447.547 303.778L451.989 301.561C452.729 303.778 451.989 304.517 449.768 303.778C449.027 305.996 449.768 306.735 451.989 305.996L454.21 302.67L449.768 298.235ZM334.272 300.452L333.161 302.67H334.272V300.452ZM454.21 303.778V307.104L459.763 310.43V308.213L454.21 303.778ZM188.791 307.104C176.946 315.235 161.398 319.3 142.149 319.3L149.923 320.408C168.432 321.148 182.128 317.082 191.013 308.213L188.791 307.104ZM173.244 308.213V309.322H174.354L173.244 308.213ZM307.619 308.213C300.215 310.43 294.293 314.126 289.85 319.3C287.629 318.561 286.889 319.3 287.629 321.517L280.966 327.06L282.077 328.169L295.403 318.191L296.514 319.3L292.071 321.517L288.74 325.952L307.619 320.408C313.542 320.408 318.354 321.887 322.056 324.843L325.388 331.495H327.609L324.277 322.626L316.503 317.082L300.956 315.974L306.508 312.648L312.061 314.865H319.835H322.056L324.277 315.974C328.719 320.408 330.94 327.43 330.94 337.039L332.051 334.821L330.94 323.734L325.388 311.539L318.724 308.213H307.619ZM168.802 309.322L163.249 311.539L162.139 313.756L171.023 310.43L168.802 309.322ZM467.536 310.43L466.426 312.648H469.758L467.536 310.43ZM108.833 314.865L106.612 318.191V328.169L109.943 334.821L116.606 338.147L108.833 324.843L109.943 318.191L108.833 314.865ZM192.123 314.865L175.465 322.626L163.249 323.734L158.807 325.952L135.486 323.734L131.043 321.517L127.712 322.626V320.408L126.601 323.734L136.596 328.169L147.702 330.387H159.917L161.028 329.278L165.47 330.387L183.239 324.843L192.123 317.082V314.865ZM203.228 314.865L202.118 320.408L204.339 321.517L203.228 314.865ZM372.03 314.865L350.93 321.517L344.267 327.06C342.046 326.321 341.305 327.06 342.046 329.278L354.262 323.734L350.93 329.278L354.262 327.06C355.742 327.8 356.112 327.06 355.372 324.843L363.146 321.517L359.814 327.06H362.035L366.478 322.626L365.367 324.843L366.478 327.06H364.256C363.516 329.278 364.256 330.017 366.478 329.278L370.92 323.734L376.472 319.3L372.03 328.169H374.251L382.025 317.082V314.865H372.03ZM115.496 315.974V322.626L119.938 331.495L122.159 332.604L118.828 322.626V318.191L115.496 315.974ZM246.539 317.082L245.429 320.408H246.539V317.082ZM308.73 321.517V322.626H310.951L308.73 321.517ZM389.799 321.517L386.467 328.169L388.688 329.278L392.02 327.06L390.909 331.495L392.02 333.713L394.241 332.604L393.13 337.039C393.871 338.517 394.981 338.517 396.462 337.039L399.794 339.256V338.147L402.015 337.039L400.904 341.473L399.794 343.691L404.236 342.582H405.346V345.908L403.125 349.234L406.457 348.125L409.788 345.908L407.567 351.451L409.788 353.669L414.231 352.56L413.12 358.104L416.452 355.886L418.673 360.321C417.932 361.799 418.673 362.169 420.894 361.43L419.783 356.995C420.524 354.038 420.154 352.93 418.673 353.669L399.794 330.387L389.799 321.517ZM212.113 323.734L211.002 325.952H212.113V323.734ZM205.45 325.952V332.604H207.671L205.45 325.952ZM191.013 328.169L189.902 330.387H191.013V328.169ZM242.097 328.169V329.278H243.208L242.097 328.169ZM244.318 328.169V330.387L263.197 341.473C266.899 342.952 268.38 342.212 267.64 339.256L262.087 338.147C259.866 338.886 259.126 337.778 259.866 334.821L244.318 328.169ZM189.902 330.387L174.354 334.821C166.211 333.343 159.917 333.713 155.475 335.93V338.147L154.365 341.473L173.244 340.365L188.791 337.039L189.902 333.713V330.387ZM128.822 331.495L129.933 333.713H128.822L123.27 342.582L142.149 370.299L157.696 383.603C159.917 385.821 163.989 386.19 169.912 384.712L171.023 385.821L146.591 348.125L145.48 345.908H137.707L128.822 343.691L126.601 340.365L143.259 341.473L146.591 342.582L149.923 338.147C149.182 335.93 149.923 335.191 152.144 335.93L151.033 333.713L148.812 334.821L128.822 331.495ZM297.624 331.495L282.077 339.256L279.856 348.125L284.298 344.799L287.629 345.908L279.856 349.234L278.745 352.56C280.226 354.777 282.077 354.038 284.298 350.343L290.961 351.451C285.778 351.451 282.077 353.669 279.856 358.104L280.966 364.756L282.077 362.538L287.629 359.212L288.74 360.321L280.966 365.864L279.856 369.19L280.966 378.06L285.408 373.625C289.85 373.625 293.182 372.147 295.403 369.19H304.287L316.503 373.625V371.408L302.066 364.756C301.326 362.538 302.436 361.799 305.398 362.538C306.138 364.016 306.879 364.016 307.619 362.538L300.956 359.212V358.104H305.398L314.282 361.43C315.023 362.908 315.763 362.908 316.503 361.43L305.398 352.56V351.451L313.172 354.777C314.652 355.517 315.023 354.777 314.282 352.56L305.398 348.125L303.177 349.234C303.917 347.017 303.177 346.278 300.956 347.017V345.908L315.393 347.017L320.945 351.451H322.056L319.835 348.125L315.393 344.799L313.172 341.473L316.503 343.691H317.614L313.172 339.256L298.735 338.147L304.287 335.93C305.028 338.147 307.619 338.517 312.061 337.039L322.056 342.582V341.473L317.614 338.147L315.393 334.821C311.691 331.865 305.768 330.756 297.624 331.495ZM225.439 332.604L224.329 334.821H225.439V332.604ZM225.439 334.821C226.92 340.734 230.252 345.538 235.434 349.234H238.766L236.545 348.125L227.66 338.147C228.401 335.191 227.66 334.082 225.439 334.821ZM192.123 338.147L188.791 339.256C188.051 341.473 188.791 342.212 191.013 341.473L197.676 356.995L212.113 379.168L218.776 384.712L206.56 366.973L207.671 364.756L202.118 358.104L192.123 338.147ZM196.565 338.147L197.676 347.017L199.897 348.125C199.897 343.691 198.786 340.365 196.565 338.147ZM397.573 339.256L396.462 341.473H397.573V339.256ZM201.007 340.365V344.799H203.228L201.007 340.365ZM176.576 342.582L159.917 345.908L156.586 344.799C155.105 343.321 153.995 343.691 153.254 345.908C159.917 359.951 168.061 372.516 177.686 383.603L182.128 385.821H208.781L212.113 386.929L199.897 371.408L186.57 347.017C185.09 343.321 181.758 341.843 176.576 342.582ZM223.218 342.582L222.108 344.799L224.329 345.908L223.218 342.582ZM89.9536 348.125L75.5166 352.56L76.6271 354.777L78.8482 353.669L87.7325 366.973H88.843C88.843 361.06 86.9921 356.995 83.2903 354.777L85.5114 353.669C89.2132 356.625 91.8045 361.06 93.2852 366.973C92.5448 368.451 93.2852 368.821 95.5063 368.082L96.6168 365.864L94.3957 359.212L95.5063 356.995L101.059 366.973C100.319 368.451 101.059 368.821 103.28 368.082L102.169 362.538L101.059 359.212C100.319 356.995 101.059 356.256 103.28 356.995L106.612 363.647C105.871 366.603 106.612 367.712 108.833 366.973L109.943 361.43L107.722 356.995L101.059 351.451V350.343L105.501 351.451C109.943 353.669 112.535 358.104 113.275 364.756H114.385V359.212L108.833 350.343C104.391 348.125 98.0975 347.386 89.9536 348.125ZM203.228 348.125V354.777L215.444 372.516L218.776 374.734L209.892 362.538L203.228 348.125ZM327.609 348.125L326.498 364.756L325.388 365.864L326.498 370.299L328.719 361.43L327.609 348.125ZM260.976 349.234L257.645 350.343H255.424L247.65 354.777L233.213 358.104L236.545 359.212L234.323 360.321C231.362 359.582 230.252 360.321 230.992 362.538V363.647L246.539 355.886L244.318 359.212H246.539L247.65 355.886L258.755 351.451H262.087C262.827 349.234 262.457 348.495 260.976 349.234ZM115.496 354.777L117.717 361.43L119.938 362.538L118.828 358.104L115.496 354.777ZM62.1901 355.886L59.969 359.212L72.185 362.538C76.6271 366.234 79.5885 371.777 81.0693 379.168L82.1798 372.516L77.7377 363.647L67.7428 355.886H62.1901ZM325.388 355.886L324.277 358.104H325.388V355.886ZM264.308 356.995L250.982 366.973L240.987 369.19V370.299H247.65L259.866 363.647L264.308 359.212V356.995ZM232.102 358.104V359.212H233.213L232.102 358.104ZM208.781 364.756L207.671 366.973H208.781V364.756ZM426.447 369.19L425.336 372.516L434.22 386.929L438.662 390.255L426.447 369.19ZM325.388 370.299L323.167 375.842L325.388 374.734V370.299ZM45.5321 371.408L31.0951 376.951C22.9511 382.864 17.0282 390.994 13.3265 401.342L9.99484 410.211L8.8843 424.624L7.77377 425.733C7.77377 439.037 10.7352 449.754 16.6581 457.885L18.8791 458.993L17.7686 455.667L18.8791 453.45L17.7686 451.233L18.8791 449.015C20.3599 444.581 19.9897 441.994 17.7686 441.255L18.8791 436.82V441.255H19.9897L18.8791 435.711C21.1002 433.494 21.8406 430.168 21.1002 425.733L27.7634 413.538C31.4652 407.625 37.3881 403.929 45.5321 402.451L46.6426 400.233H42.2004L32.2056 404.668L23.3213 412.429L25.5424 407.994C30.7249 400.603 39.239 396.538 51.0847 395.799V394.69C41.4601 393.951 34.4267 395.06 29.9845 398.016H27.7634L34.4267 393.581C38.1285 395.06 40.7197 394.69 42.2004 392.473H54.4164L55.5269 393.581H61.0796L56.6374 389.147H38.8688L49.9742 384.712L52.1953 385.821C55.8971 387.299 57.3778 386.56 56.6374 383.603H42.2004L37.7583 385.821H35.5372L44.4215 381.386H55.5269L56.6374 380.277L47.7531 376.951L38.8688 379.168L36.6478 380.277L45.5321 374.734L62.1901 375.842L67.7428 380.277H68.8533C64.4112 373.625 56.6374 370.669 45.5321 371.408ZM222.108 374.734L225.439 379.168H226.55L222.108 374.734ZM125.491 376.951L123.27 379.168C118.087 378.429 114.385 379.168 112.164 381.386H93.2852L94.3957 383.603H107.722H109.943L126.601 379.168C127.342 376.951 126.971 376.212 125.491 376.951ZM57.748 380.277V381.386H58.8585L57.748 380.277ZM288.74 382.494L280.966 385.821V386.929L285.408 385.821L300.956 388.038L309.84 392.473L315.393 400.233C314.652 401.712 315.393 402.081 317.614 401.342L314.282 394.69L303.177 386.929V385.821L312.061 388.038L318.724 398.016H319.835L318.724 393.581C314.282 383.973 304.287 380.277 288.74 382.494ZM59.969 385.821L66.6323 391.364H67.7428L62.1901 385.821H59.969ZM285.408 386.929L286.519 389.147H290.961L285.408 386.929ZM299.845 389.147L298.735 391.364C303.177 392.842 306.879 395.429 309.84 399.125H310.951L299.845 389.147ZM439.773 390.255L438.662 392.473L441.994 393.581L439.773 390.255ZM277.634 395.799C268.01 398.016 260.606 402.081 255.424 407.994L243.208 423.516L230.992 453.45L232.102 456.776L243.208 431.276L255.424 416.864L262.087 412.429H263.197L255.424 419.081C256.164 420.559 255.424 420.929 253.203 420.19L244.318 434.602L248.76 431.276C250.241 432.016 250.611 431.646 249.871 430.168C253.573 424.994 258.385 421.298 264.308 419.081L265.419 420.19L256.534 425.733L253.203 430.168L266.529 421.298C268.01 420.559 268.38 421.298 267.64 423.516L259.866 427.95L257.645 431.276L269.861 424.624L274.303 425.733L264.308 430.168L265.419 431.276L270.971 430.168L269.861 432.385H274.303C273.562 437.559 274.673 441.624 277.634 444.581V451.233L274.303 462.319L260.976 481.167L240.987 495.58L239.876 497.797C253.203 492.623 264.308 485.232 273.192 475.624L272.082 473.406L277.634 465.645L282.077 449.015L280.966 441.255L283.187 442.363V453.45L282.077 454.559C280.596 458.254 281.336 459.732 284.298 458.993L287.629 446.798C288.37 438.668 287.259 432.755 284.298 429.059L285.408 426.842L287.629 427.95C289.85 430.168 291.331 433.494 292.071 437.928L290.961 455.667V456.776C292.442 457.515 292.812 456.776 292.071 454.559V452.341L293.182 447.907L294.293 444.581V432.385L288.74 423.516L284.298 416.864L290.961 420.19L298.735 427.95L297.624 424.624L290.961 417.972L288.74 414.646L292.071 416.864V415.755L289.85 413.538V412.429L299.845 417.972C301.326 417.233 301.696 417.972 300.956 420.19C303.177 420.929 303.917 420.559 303.177 419.081L297.624 413.538L293.182 406.885L286.519 402.451H275.413L274.303 403.559L276.524 400.233H287.629L302.066 406.885C305.768 409.103 308.359 413.168 309.84 419.081H310.951L309.84 413.538L303.177 404.668L289.85 395.799H277.634ZM318.724 399.125L319.835 403.559H320.945C321.686 399.864 320.945 398.386 318.724 399.125ZM74.406 401.342C72.9253 405.038 73.2955 407.994 75.5166 410.211V424.624L74.406 425.733H76.6271L77.7377 421.298L76.6271 406.885L74.406 401.342ZM59.969 413.538V433.494L55.5269 455.667L52.1953 464.537L53.3058 466.754L58.8585 455.667L62.1901 440.146V437.928V414.646L59.969 413.538ZM299.845 427.95L298.735 430.168H299.845V427.95ZM22.2108 432.385L19.9897 434.602H22.2108V432.385ZM302.066 433.494L300.956 442.363H302.066V433.494ZM314.282 434.602L310.951 447.907L299.845 465.645L283.187 481.167L280.966 484.493L288.74 480.058C301.326 471.189 309.84 458.624 314.282 442.363V434.602ZM19.9897 458.993C18.509 461.211 18.8791 461.95 21.1002 461.211L19.9897 458.993ZM282.077 458.993L276.524 468.971L277.634 471.189L282.077 462.319C283.557 460.841 283.557 459.732 282.077 458.993ZM236.545 497.797V498.906H237.655L236.545 497.797Z" fill="#0A0A0A"/>
<path opacity="0.996078" d="M181.601 192.768L183.364 193.29L176.9 202.171L176.312 199.559L181.601 192.768Z" fill="#0A0A0A"/>
<path opacity="0.996078" d="M305.606 200.051C311.576 199.2 315.494 200.69 317.36 204.52L315.681 203.882L305.606 201.328V200.051Z" fill="#0A0A0A"/>
<path opacity="0.996078" d="M276.111 216.275L287.13 217.381L300.904 225.678L299.251 225.125L288.232 219.594L267.295 218.487L265.642 219.041L267.295 217.381C271.923 218.635 274.862 218.266 276.111 216.275Z" fill="#0A0A0A"/>
<path opacity="0.996078" d="M166.908 279.747L165.34 282.568L162.206 284.448L162.99 282.568L166.908 279.747Z" fill="#0A0A0A"/>
<path opacity="0.996078" d="M272.303 305.604L272.695 307.368L270.736 312.657L270.344 310.894L272.303 305.604Z" fill="#0A0A0A"/>
<path opacity="0.996078" d="M140.186 352.621L144.574 353.796L147.317 356.735L152.802 367.313L147.865 369.076L144.026 366.725L136.346 354.384L140.186 352.621ZM142.928 356.147L144.026 362.024C145.488 365.158 146.951 365.55 148.414 363.199L146.22 359.673L142.928 356.147Z" fill="#0A0A0A"/>
<path opacity="0.996078" d="M167.455 357.323L170.746 358.447L171.843 357.323H182.813L185.007 360.696L186.105 358.447L197.075 380.933L197.624 378.122L197.075 376.436L199.818 382.057L193.784 383.182L187.75 382.057L188.299 379.809L194.332 380.933L193.784 377.56L192.138 378.122L191.59 376.436L182.813 379.809L181.168 379.247L180.619 382.057L175.683 374.187C173.489 375.162 172.757 374.225 173.489 371.377L166.906 360.134L167.455 357.323ZM173.489 361.82L176.78 368.566L183.362 370.814L184.459 371.939C185.19 368.191 184.825 365.942 183.362 365.193C181.168 365.942 180.436 365.568 181.168 364.069C180.436 361.82 179.705 361.445 178.974 362.944L173.489 361.82Z" fill="#0A0A0A"/>
<path opacity="0.996078" d="M289.934 366.728L293.852 367.119L282.098 371.429L282.657 370.254C282.135 369.104 282.695 368.713 284.337 369.078L289.934 366.728Z" fill="#0A0A0A"/>
<path opacity="0.996078" d="M152.802 371.428L158.227 374.563L160.397 378.593L162.567 378.145L160.397 375.458L162.567 376.354L166.907 380.831L165.28 380.384L158.77 379.488L153.887 375.458L152.802 371.428Z" fill="#0A0A0A"/>
</svg>
