<svg width="405" height="468" viewBox="0 0 405 468" fill="none" xmlns="http://www.w3.org/2000/svg">
<path opacity="0.996078" d="M134.529 0C143.432 0.307007 150.493 2.45606 155.713 6.44715C164.247 11.1137 171.462 17.1003 177.357 24.4071L187.488 37.3013L204.987 70.4581L212.355 91.6416L215.118 96.2467L216.039 102.233C218.066 103.032 218.68 101.957 217.881 99.0098L224.329 85.1944L238.604 69.0766L249.657 60.7874L272.682 51.5772L283.734 49.7351H301.234L320.575 54.3402L336.233 61.7084C347.715 68.3398 357.385 76.7824 365.245 87.0365L370.771 94.4047L381.823 120.193L384.586 136.772V146.903L382.744 157.955L377.218 174.533L366.166 192.033L363.403 199.401L358.337 205.388L352.351 208.611L346.364 218.282L339.917 220.124L335.772 223.348L340.377 234.4V253.741L341.759 255.123C347.346 257.21 351.951 260.281 355.574 264.333L362.942 268.017L372.152 268.938L375.376 272.162L377.679 277.227L382.744 280.451C382.253 282.047 383.021 282.508 385.047 281.832L397.481 292.424L403.007 304.397C402.577 308.511 403.191 311.581 404.849 313.608V328.344L397.941 337.094L393.796 334.791L378.6 315.91L375.376 313.608L373.995 311.305C372.337 312.103 372.183 312.871 373.534 313.608L374.455 321.897L371.231 328.804L366.626 330.647L364.784 329.726L362.942 330.647L359.719 328.344L351.89 315.91L350.048 314.989L349.127 315.91H338.075L313.207 301.174L304.457 293.345L301.234 288.28C296.997 287.85 294.081 288.464 292.484 290.122L281.432 305.318L271.301 315.45V318.213C275.599 323.739 278.669 330.493 280.511 338.475L282.353 347.685V357.817L279.59 373.474L274.064 385.447L269.459 391.434L260.709 396.96L256.104 397.881L240.446 406.17L221.566 412.617V425.051L219.723 435.182C217.759 440.893 214.535 445.344 210.053 448.537C207.105 451.116 202.5 452.037 196.237 451.3L190.251 448.077L188.409 445.314L180.12 433.34L179.199 427.814V400.184L180.12 397.421L178.278 398.342L171.83 409.854L168.146 412.157C168.638 413.569 168.177 414.03 166.765 413.538L164.923 415.38L152.489 419.986L150.647 430.577V442.551L148.805 451.761C146.901 458.147 143.371 462.905 138.213 466.037L127.161 467.879C121.512 466.159 117.06 463.243 113.806 459.129L107.359 448.077L104.596 436.103V394.657C106.069 389.377 108.986 385.539 113.346 383.145L122.095 375.316L126.24 369.329L129.924 366.566L131.305 367.027L132.687 364.724L143.279 356.896L144.2 354.133V339.396L142.358 328.804L135.45 331.568H130.845L124.858 334.331L123.016 345.843L117.03 353.672C115.433 354.163 114.973 353.396 115.648 351.37C114.727 349.527 113.806 349.527 112.885 351.37C112.885 355.975 111.504 359.198 108.74 361.04L107.359 360.58L108.28 363.803L105.517 365.185L87.0965 393.276C84.2106 393.767 82.3685 392.693 81.5703 390.052L80.6493 387.289C81.6317 381.211 83.7808 376.298 87.0965 372.553L83.4124 372.092L93.5436 347.685L92.6226 346.764V335.712L93.5436 330.647L81.1098 329.726L66.3735 323.278H56.2423L39.6639 326.041L35.5193 323.739C36.6859 319.072 39.2955 315.849 43.348 314.068C44.7602 314.559 45.2207 314.099 44.7295 312.687L50.2556 307.16V304.397L45.6505 287.819V285.977L46.5715 271.241L50.2556 249.136L56.7028 231.637L64.0709 217.361C65.7288 218.036 66.3428 217.576 65.913 215.979L74.6627 204.467L76.9652 203.085L86.1754 191.572L88.9385 190.191C88.5087 188.84 88.9692 188.379 90.32 188.809L101.833 180.06L103.214 177.757L108.74 173.152L109.661 174.994L110.122 173.152H112.425C115.126 169.836 118.657 167.687 123.016 166.705C122.218 164.679 123.293 164.065 126.24 164.863L134.069 161.179L133.608 159.337H127.161L122.556 157.495L110.582 156.574L93.0831 152.889L74.6627 146.442C64.2858 141.776 55.5361 135.482 48.4136 127.561C48.9048 126.211 48.4443 125.75 47.032 126.18L38.2823 115.588C36.0719 113.5 35.1509 110.123 35.5193 105.457L41.0454 98.0887L38.7429 97.6282L23.546 83.3524L13.4148 68.6161L6.96763 55.7218L0.520484 36.3803V34.5383C-1.13735 22.4422 1.1652 14.3065 7.42814 10.1312C9.39299 7.79798 13.0771 7.18396 18.4804 8.28919L37.8218 11.9733L51.6371 16.5784L67.2945 23.9465L93.0831 40.5249L111.043 55.2613L113.346 58.9453L123.016 67.695C122.586 69.2915 123.2 69.752 124.858 69.0766L117.49 46.5116V40.9854L115.648 33.6173V18.8809C116.876 12.1268 119.793 7.06116 124.398 3.68408L134.529 0ZM132.226 5.52613L126.7 8.28919L121.174 17.4994L122.095 38.6829L140.516 49.7351L149.726 54.3402L158.936 57.1033L156.173 39.6039C148.805 36.5338 142.665 32.2357 137.753 26.7096C133.455 24.2536 130.691 20.8765 129.463 16.5784H131.305C132.533 15.9644 132.84 16.5784 132.226 18.4204L154.331 36.8408H155.252L143.279 15.6574L142.358 12.8943L145.121 13.8153L151.568 23.0255L153.41 29.4727L158.936 39.6039L172.751 49.7351H174.593L175.514 50.6562L172.751 45.13L158.015 28.5517L152.489 18.4204L151.568 15.6574L153.41 17.4994C152.796 18.7274 153.41 19.0344 155.252 18.4204L161.699 30.3937L171.83 40.5249L181.041 54.3402L190.251 72.7607L193.935 76.4447L201.303 90.2601L204.066 92.1021L199.461 79.2078L182.883 46.051L166.304 24.8676L148.805 9.21021L138.674 5.52613H132.226ZM12.4938 14.7363L9.73069 15.6574L6.04661 23.0255L6.96763 39.6039L13.4148 58.0243L18.0199 67.2345L26.3091 78.2868L47.4926 95.7862L49.3346 96.7072H64.0709H65.913L85.2544 101.312L102.754 110.523H105.517H107.359V112.365L111.964 113.286L119.332 119.733H120.253L116.569 115.128L111.964 110.523C108.894 108.68 107.052 105.917 106.438 102.233C94.1576 101.005 84.6404 97.0142 77.8862 90.2601H65.913L42.8874 84.7339L39.2034 85.655H37.3613L36.4403 83.8129L41.9664 82.8919H43.8085L44.7295 83.8129L63.1499 85.655L66.834 87.497H75.1232C75.7372 85.655 75.1232 85.0409 73.2811 85.655L67.755 76.4447H69.5971L63.1499 71.8396L42.8874 68.1556L38.2823 65.3925L23.546 60.7874L21.704 58.0243C32.7562 63.5504 46.2645 67.2345 62.2289 69.0766L74.2022 74.6027H83.4124L84.3334 75.5237H88.0175L87.0965 73.6817L78.8073 67.2345H76.9652L75.1232 65.3925L59.4658 55.2613L36.4403 52.4982L14.3358 46.051L12.4938 43.288L53.0187 52.4982L50.2556 47.8931L40.1244 41.4459L16.1778 32.2357L15.2568 30.3937L33.6772 36.8408L46.5715 43.288H61.3079L63.1499 42.367L43.8085 32.2357L41.0454 29.4727L21.704 23.0255V22.1045L41.0454 27.6306L65.913 40.5249H67.755L66.834 42.367L76.0442 45.13L104.596 68.1556L114.727 74.6027L144.2 106.838C143.586 108.066 144.2 108.373 146.042 107.759L149.726 114.207L166.304 125.259L178.278 136.311L181.962 137.232H182.883L165.383 121.575L141.437 95.7862L139.595 93.9441L117.49 70.9186L103.675 57.1033L83.4124 42.367L49.3346 23.0255L38.2823 18.4204L27.2301 15.6574L12.4938 14.7363ZM124.858 41.4459L123.016 43.288C124.244 56.7963 127.928 68.4626 134.069 78.2868L146.042 88.418L158.015 101.312C159.243 100.698 159.55 101.312 158.936 103.154L171.83 115.128L173.672 117.891L183.804 125.259L194.856 130.785H196.698L175.514 115.128L174.593 111.444L163.541 102.233C161.699 102.847 161.085 102.233 161.699 100.391L158.936 98.5492C157.094 99.1633 156.48 98.8563 157.094 97.6282V95.7862L170.909 104.075L199.461 127.101H201.303L184.725 112.365C185.339 110.523 184.725 109.909 182.883 110.523L178.278 103.154L144.2 81.0498L135.911 71.8396L161.699 89.339H162.62L134.99 65.3925C133.147 66.0065 132.533 65.6995 133.147 64.4715V62.6294L140.516 66.3135L148.805 73.6817C150.033 73.0677 150.34 73.6817 149.726 75.5237L161.699 84.7339L162.62 87.497L166.304 90.2601L165.383 92.1021L172.751 94.8652C167.225 81.9709 159.857 70.6116 150.647 60.7874L153.41 59.8664L161.699 69.9976L174.593 92.1021L173.672 95.7862L179.199 99.4703L185.646 107.759L199.461 119.733L204.987 122.496L204.066 120.654L200.382 118.812C194.242 112.058 189.33 104.075 185.646 94.8652L176.435 82.8919C177.049 81.0498 176.435 80.4358 174.593 81.0498L173.672 77.3658L163.541 66.3135L161.699 61.7084L159.857 58.9453H154.331L146.042 54.3402C143.586 54.9543 142.665 54.3402 143.279 52.4982L137.753 50.6562L124.858 41.4459ZM55.7817 44.209L50.2556 46.051L53.9397 47.8931L55.7817 52.4982L57.6238 51.5772L84.3334 67.2345C83.1054 65.3925 82.7984 62.0154 83.4124 57.1033L81.5703 53.4192L78.8073 50.6562C76.9652 51.2702 76.3512 50.9632 76.9652 49.7351L71.4391 45.13L55.7817 44.209ZM160.778 46.051L158.936 47.8931C160.164 54.6472 162.62 60.7874 166.304 66.3135L174.593 74.6027L203.145 113.286C202.531 114.514 203.145 114.821 204.987 114.207L199.461 106.838L203.145 104.996C202.531 103.154 201.917 102.847 201.303 104.075H198.54L201.303 103.154L196.698 97.6282C197.312 95.7862 197.005 95.1722 195.777 95.7862V97.6282L193.935 94.8652L194.856 93.0231L200.382 100.391L204.987 104.075C204.373 105.303 204.987 105.61 206.829 104.996L203.145 97.6282L189.33 81.0498L185.646 78.2868L183.804 74.6027L181.962 70.9186L184.725 72.7607L190.251 80.1288C189.637 81.3569 190.251 81.6639 192.093 81.0498L194.856 86.576L197.619 88.418L192.093 80.1288L182.883 60.7874C177.971 54.6472 171.83 49.7351 164.462 46.051L162.62 46.9721L160.778 46.051ZM293.405 55.2613C288.493 57.1033 282.66 58.0243 275.906 58.0243L265.775 61.7084L256.564 66.3135L239.986 78.2868L229.855 92.1021L225.25 102.233L232.618 100.391L233.539 94.8652L239.065 86.576C247.661 75.5237 259.634 67.8485 274.985 63.5504C276.827 62.9364 277.441 63.5504 276.827 65.3925L263.011 70.9186L252.88 77.3658L245.512 84.7339C243.67 84.1199 243.056 84.7339 243.67 86.576L240.907 90.2601C247.661 82.2779 256.871 76.4447 268.538 72.7607L273.143 73.6817L249.196 87.497L241.828 93.9441H243.67C244.284 91.4881 245.205 91.1811 246.433 93.0231L255.643 86.576L263.011 84.7339L266.696 81.9709L267.617 82.8919L250.117 93.0231L247.354 96.7072L258.406 91.1811H259.327L251.959 97.6282C250.117 97.0142 249.503 97.6282 250.117 99.4703L247.354 98.5492C242.442 97.9352 238.758 98.5492 236.302 100.391C246.126 101.005 253.801 104.382 259.327 110.523V109.601V107.759L262.09 103.154C263.318 103.768 263.625 103.154 263.011 101.312L285.116 84.7339L292.484 81.0498L304.457 77.3658L317.352 76.4447H319.194L321.036 75.5237C328.404 74.9097 334.851 75.5237 340.377 77.3658H343.14L335.772 73.6817L325.641 71.8396V70.9186L333.93 72.7607C335.158 73.3747 335.465 72.7607 334.851 70.9186L326.562 69.0766V68.1556C330.86 68.1556 334.237 69.3836 336.693 71.8396H339.456L321.036 60.7874L309.063 57.1033L298.931 56.1823H297.089L293.405 55.2613ZM84.3334 56.1823V58.9453L85.2544 61.7084L84.3334 63.5504L85.2544 68.1556L88.9385 73.6817L93.5436 76.4447L94.4646 79.2078L107.359 88.418L134.069 103.154L142.358 109.601H143.279L124.858 88.418L114.727 77.3658L91.7016 59.8664L84.3334 56.1823ZM340.377 71.8396V72.7607H341.298L340.377 71.8396ZM73.2811 76.4447L70.5181 78.2868H72.3601L73.2811 81.9709C80.6493 91.1811 91.3946 97.3212 105.517 100.391H107.359C111.043 101.619 113.499 101.312 114.727 99.4703L116.569 105.917L121.174 106.838L143.279 119.733L178.278 144.6L177.357 146.442L180.12 144.6C180.734 146.442 181.655 146.749 182.883 145.521L183.804 147.363V144.6L154.331 119.733L138.674 108.68L124.858 101.312L119.332 100.391L117.49 98.5492L91.7016 80.1288C92.3156 77.6728 91.3946 77.0588 88.9385 78.2868V77.3658H88.0175C81.2633 78.5938 76.3512 78.2868 73.2811 76.4447ZM327.483 79.2078L326.562 80.1288H313.668L301.694 81.9709C291.87 85.655 283.274 90.5671 275.906 96.7072C269.152 101.005 264.547 107.452 262.09 116.049C263.318 117.891 264.547 117.584 265.775 115.128L263.932 117.891L264.854 118.812L276.827 101.312C283.581 95.7862 291.87 91.1811 301.694 87.497L313.668 84.7339L330.246 83.8129H332.088L352.351 88.418L358.798 92.1021H359.719L347.745 82.8919L337.614 80.1288L327.483 79.2078ZM198.54 88.418L197.619 90.2601H198.54V88.418ZM199.461 90.2601L198.54 92.1021H199.461V90.2601ZM321.036 91.1811V93.0231L323.799 92.1021L332.088 94.8652H333.009L328.404 92.1021H326.562L321.036 91.1811ZM314.589 92.1021L299.852 96.7072L298.931 98.5492L314.589 93.9441V92.1021ZM245.512 93.0231L243.67 95.7862L245.512 94.8652V93.0231ZM334.851 93.0231L333.93 94.8652H334.851V93.0231ZM340.377 93.0231L338.535 94.8652L347.745 98.5492V97.6282L343.14 94.8652V93.9441L340.377 93.0231ZM241.828 93.9441L240.907 95.7862H241.828V93.9441ZM334.851 98.5492V99.4703H335.772L334.851 98.5492ZM357.877 98.5492L368.008 112.365L373.534 128.022C372.306 131.706 372.613 134.162 374.455 135.39V151.047L370.771 164.863L360.64 184.204L352.351 195.256L349.587 197.098H352.351C365.859 185.432 374.455 169.161 378.139 148.284L377.218 128.943C375.376 120.347 372.613 113.286 368.929 107.759C366.473 102.847 362.789 99.7773 357.877 98.5492ZM325.641 99.4703L323.799 101.312L331.167 104.075L347.745 124.338C347.131 125.566 347.745 125.873 349.587 125.259C348.973 128.943 349.894 132.013 352.351 134.469V138.153H353.272L352.351 127.101C349.894 119.733 345.903 114.207 340.377 110.523L338.535 107.759L333.93 103.154L325.641 99.4703ZM336.693 99.4703V100.391L343.14 103.154L342.219 104.996L338.535 103.154L336.693 104.075L353.272 124.338L359.719 146.442L358.798 147.363V158.416L356.035 165.784L356.956 167.626L360.64 159.337L362.482 149.205L361.561 127.101L355.114 112.365C350.815 105.61 344.675 101.312 336.693 99.4703ZM309.984 100.391L304.457 102.233V103.154L312.747 101.312L309.984 100.391ZM314.589 100.391V101.312H316.431L314.589 100.391ZM50.2556 101.312C46.5715 101.926 43.8085 103.768 41.9664 106.838L42.8874 111.444L49.3346 119.733L69.5971 137.232L76.9652 140.916H81.5703L93.5436 147.363H97.2277L105.517 150.126H111.043L123.016 153.811L141.437 154.732H143.279L147.884 156.574H169.988L170.909 157.495L171.83 155.653V157.495L176.435 156.574L182.883 158.416H183.804L181.962 154.732L177.357 153.811L172.751 154.732L165.383 152.889H152.489L144.2 151.047L141.437 151.968C139.595 152.582 138.981 152.275 139.595 151.047C140.209 149.205 141.13 148.898 142.358 150.126L144.2 149.205H152.489L153.41 150.126H160.778L124.858 135.39L106.438 137.232L105.517 138.153H94.4646L93.5436 139.074H80.6493L76.9652 137.232V136.311L78.8073 137.232H89.8595L93.5436 135.39L111.964 134.469L112.885 133.548C116.569 134.776 118.104 134.162 117.49 131.706L108.28 130.785L96.3067 126.18H88.0175L76.0442 129.864H67.755L66.834 130.785H63.1499L77.8862 126.18C80.3423 126.794 81.2633 126.487 80.6493 125.259H82.4914C84.9474 125.873 85.5614 124.952 84.3334 122.496L82.4914 123.417C81.8773 121.575 80.3423 120.961 77.8862 121.575H76.0442L67.755 118.812L53.0187 116.97L51.1766 114.207L58.5448 116.049L60.3868 115.128L93.5436 122.496C97.8417 121.882 99.6837 122.496 99.0697 124.338L116.569 129.864C117.797 130.478 118.104 129.864 117.49 128.022C113.806 124.952 108.894 123.417 102.754 123.417L106.438 121.575L109.201 122.496H111.043L79.7283 106.838L64.0709 102.233L50.2556 101.312ZM110.122 103.154L111.964 108.68L122.095 120.654L130.384 126.18L151.568 136.311L160.778 139.074L174.593 146.442H175.514L174.593 143.679L135.911 117.891L120.253 109.601L116.569 107.759L114.727 104.996V103.154H110.122ZM302.615 103.154V104.075H303.536L302.615 103.154ZM236.302 104.996L228.934 106.838V107.759L232.618 106.838L241.828 107.759V108.68L239.065 107.759C234.767 107.145 231.39 107.759 228.934 109.601H237.223L238.144 111.444L232.618 110.523L225.25 114.207L216.039 124.338L216.96 130.785C218.188 125.873 220.337 121.882 223.408 118.812L230.776 114.207C238.144 113.593 243.363 114.821 246.433 117.891L251.959 128.943V140.916L251.038 142.758V143.679L253.801 141.837L254.722 143.679L256.564 137.232V132.627H257.485L256.564 143.679L254.722 147.363H256.564L260.248 137.232V129.864C258.406 128.022 257.792 124.952 258.406 120.654L254.722 114.207L247.354 107.759L236.302 104.996ZM204.066 105.917V110.523H204.987C205.601 108.066 205.294 106.531 204.066 105.917ZM227.092 107.759V108.68H228.013L227.092 107.759ZM228.013 109.601V110.523H228.934L228.013 109.601ZM206.829 114.207L205.908 116.049H206.829V114.207ZM232.618 116.97L227.092 119.733C222.794 122.189 220.337 126.487 219.723 132.627C218.495 140.609 219.723 146.442 223.408 150.126C222.794 151.354 223.408 151.661 225.25 151.047L227.092 156.574L231.697 157.495H238.144L242.749 153.811V151.968L237.223 155.653C233.539 156.267 231.083 155.653 229.855 153.811L228.013 151.047L229.855 151.968L239.986 151.047L245.512 144.6L248.275 134.469V128.943L246.433 124.338L239.986 117.891L232.618 116.97ZM344.982 121.575L343.14 123.417H344.982V121.575ZM122.095 127.101L121.174 128.943L126.7 132.627L149.726 140.916L167.225 149.205H168.146L158.936 142.758L151.568 140.916L131.305 130.785L125.779 129.864L122.095 127.101ZM204.987 132.627L204.066 133.548C202.224 132.934 201.61 133.548 202.224 135.39L199.461 134.469L198.54 136.311L197.619 135.39L194.856 136.311L200.382 139.995L204.987 150.126L205.908 156.574L207.75 155.653L204.987 145.521L207.75 144.6L208.671 148.284V150.126L209.592 153.811L211.434 154.732L209.592 145.521C207.75 144.293 207.443 143.065 208.671 141.837C206.829 142.451 206.215 141.53 206.829 139.074L205.908 136.311C206.522 133.241 206.215 132.013 204.987 132.627ZM188.409 135.39L192.093 142.758L194.856 143.679L198.54 151.047L199.461 158.416L200.382 160.258L203.145 158.416C201.917 149.205 198.233 142.758 192.093 139.074L190.251 135.39H188.409ZM251.959 143.679V145.521L253.801 144.6L251.959 143.679ZM250.117 144.6L248.275 147.363L250.117 146.442V144.6ZM192.093 146.442L193.014 154.732C193.628 160.258 192.4 164.249 189.33 166.705L185.646 168.547L186.567 170.389L191.172 167.626V165.784L195.777 160.258L194.856 152.889L192.093 146.442ZM244.591 150.126L242.749 151.968H244.591V150.126ZM260.248 152.889L258.406 154.732C260.862 165.17 265.468 173.766 272.222 180.52C278.976 187.888 287.879 193.721 298.931 198.02L310.905 202.625L327.483 206.309L346.824 205.388L352.351 203.546V201.704C351.122 203.546 348.666 203.853 344.982 202.625L342.219 203.546L328.404 202.625L301.694 195.256C293.098 191.572 286.037 186.967 280.511 181.441C272.529 174.687 266.389 166.398 262.09 156.574V154.732L260.248 152.889ZM185.646 154.732C183.804 157.188 184.111 158.109 186.567 157.495L185.646 154.732ZM185.646 158.416V159.337H186.567L185.646 158.416ZM256.564 158.416L254.722 160.258L257.485 168.547L265.775 180.52L274.985 186.967H275.906L274.064 185.125L261.169 171.31L256.564 158.416ZM201.303 161.179L197.619 167.626V168.547L201.303 166.705V161.179ZM249.196 161.179V165.784L256.564 177.757C264.547 186.353 274.064 193.721 285.116 199.862L304.457 207.23L313.668 209.072H314.589L306.299 203.546L299.852 202.625H298.01V200.783L295.247 201.704V200.783L286.037 197.098L266.696 184.204L255.643 173.152L251.959 164.863L249.196 161.179ZM170.909 163.942C168.453 165.17 167.225 167.319 167.225 170.389V172.231L168.146 177.757L169.988 178.678L169.067 175.915L169.988 172.231L169.067 169.468L170.909 165.784V163.942ZM176.435 163.942L177.357 174.073L181.041 175.915L179.199 174.073V164.863L176.435 163.942ZM216.039 165.784L214.197 169.468V170.389L216.039 169.468V165.784ZM220.644 165.784L219.723 167.626H222.487L220.644 165.784ZM241.828 165.784C241.214 168.24 241.828 169.161 243.67 168.547L249.196 178.678L268.538 193.414C270.38 194.028 270.994 193.414 270.38 191.572L268.538 190.651C266.082 191.265 265.161 190.958 265.775 189.73L259.327 183.283C257.485 183.897 256.871 183.283 257.485 181.441H255.643C250.731 177.757 247.047 173.152 244.591 167.626L241.828 165.784ZM171.83 166.705L169.988 169.468L172.751 181.441L174.593 183.283C173.979 185.125 174.9 185.432 177.357 184.204L176.435 182.362C177.049 180.52 176.435 179.906 174.593 180.52L171.83 166.705ZM148.805 167.626L145.121 178.678L144.2 176.836L141.437 186.046H140.516C139.902 179.292 141.13 174.38 144.2 171.31C144.814 168.24 143.586 167.319 140.516 168.547V172.231L135.911 180.52C136.525 184.818 135.911 188.502 134.069 191.572V193.414C134.683 210.607 138.06 225.343 144.2 237.623L147.884 239.465L149.726 244.071C149.112 245.299 149.726 245.606 151.568 244.992L152.489 243.15L151.568 242.229C146.656 234.86 143.279 225.957 141.437 215.519V213.677L139.595 208.151L141.437 207.23C143.279 218.896 146.963 228.72 152.489 236.702C151.875 237.93 152.489 238.237 154.331 237.623L155.252 240.386C154.638 241.615 155.252 241.922 157.094 241.307L154.331 234.86V233.018L152.489 232.097L147.884 216.44L148.805 214.598L156.173 229.334C155.559 230.562 156.173 230.869 158.015 230.255L154.331 219.203H156.173L152.489 208.151L151.568 177.757L150.647 176.836L152.489 175.915L149.726 174.994L150.647 178.678L148.805 180.52V188.809L147.884 189.73L148.805 194.335L146.963 193.414C145.121 182.362 146.349 174.38 150.647 169.468C151.261 167.626 150.647 167.012 148.805 167.626ZM184.725 167.626L181.962 171.31H183.804L185.646 168.547L184.725 167.626ZM232.618 169.468C231.39 172.538 232.004 174.994 234.46 176.836L238.144 180.52L231.697 175.915L230.776 173.152C229.548 170.082 228.32 169.775 227.092 172.231L233.539 181.441L237.223 183.283L239.986 187.888L249.196 195.256L262.09 203.546L286.958 213.677L290.642 212.756L298.01 216.44L300.773 215.519L304.457 216.44H306.299L310.905 218.282H326.562L328.404 216.44L341.298 212.756L342.219 210.914L330.246 213.677H317.352L316.431 212.756L303.536 211.835L281.432 205.388L258.406 193.414L247.354 185.125C245.512 185.739 244.898 185.432 245.512 184.204L241.828 181.441C242.442 179.599 242.135 178.985 240.907 179.599L232.618 169.468ZM152.489 172.231L151.568 174.073H152.489V172.231ZM159.857 172.231L156.173 181.441V192.493L157.094 194.335V196.177L158.015 201.704L159.857 200.783L158.015 189.73C156.787 185.432 157.401 183.59 159.857 184.204C159.243 179.906 159.857 176.529 161.699 174.073C162.313 172.231 161.699 171.617 159.857 172.231ZM215.118 174.073V174.994H216.039L215.118 174.073ZM209.592 175.915L192.093 180.52L176.435 191.572L170.909 200.783L169.067 207.23L169.988 211.835L172.751 204.467C172.137 202.011 172.751 201.09 174.593 201.704L177.357 195.256C182.883 186.66 191.786 181.441 204.066 179.599C212.048 178.371 218.188 179.599 222.487 183.283H221.566H219.723L217.881 181.441C213.583 182.669 211.127 182.362 210.513 180.52L201.303 181.441H199.461L192.093 185.125L191.172 186.967L198.54 183.283L204.066 182.362H215.118C215.732 184.204 217.881 184.818 221.566 184.204L228.934 188.809L236.302 198.941C235.688 200.169 236.302 200.476 238.144 199.862L233.539 190.651C231.697 191.265 231.083 190.651 231.697 188.809L228.013 186.046C224.943 184.818 224.329 183.897 226.171 183.283C223.101 179.599 219.109 177.143 214.197 175.915L211.434 176.836L209.592 175.915ZM110.122 181.441L109.201 187.888L108.28 186.967L106.438 189.73L108.28 190.651L104.596 198.02H103.675C103.061 192.493 103.982 188.809 106.438 186.967V183.283L101.833 190.651L102.754 192.493L101.833 191.572L99.9908 194.335L100.912 198.02V199.862L99.9908 197.098L96.3067 206.309V211.835V213.677L95.3856 215.519L97.2277 229.334L99.9908 239.465L101.833 241.307V244.992L112.885 267.096C114.113 268.938 115.341 269.552 116.569 268.938C115.955 270.78 116.569 271.394 118.411 270.78C119.025 267.71 117.797 265.868 114.727 265.254C115.341 263.412 114.727 262.798 112.885 263.412L105.517 244.992L106.438 242.229L112.885 256.965L119.332 262.491L120.253 261.57V258.807L119.332 260.649L110.122 244.071L111.043 240.386L122.095 258.807V256.044V254.202L113.806 217.361V188.809L114.727 187.888V181.441L111.964 190.651L111.043 209.072L110.122 199.862H108.28L111.964 183.283C112.578 181.441 111.964 180.827 110.122 181.441ZM179.199 182.362L178.278 184.204H179.199V182.362ZM207.75 185.125V186.046H208.671L207.75 185.125ZM189.33 186.967V187.888H190.251L189.33 186.967ZM201.303 187.888L194.856 189.73V190.651C198.54 191.879 200.996 191.572 202.224 189.73L204.066 190.651L205.908 189.73L216.96 193.414L217.881 195.256L204.066 191.572L202.224 192.493L199.461 191.572L189.33 195.256V196.177L193.014 195.256L202.224 197.098C204.066 196.484 204.68 197.098 204.066 198.941L204.987 199.862L198.54 198.02L185.646 200.783C183.804 200.169 183.19 200.783 183.804 202.625L182.883 204.467L190.251 201.704L197.619 204.467H193.935H192.093H184.725L183.804 205.388C181.348 204.774 180.427 205.388 181.041 207.23L179.199 208.151L178.278 209.993L183.804 208.151C189.33 207.537 193.628 208.458 196.698 210.914L194.856 211.835L187.488 209.993L178.278 210.914L174.593 215.519L179.199 214.598L188.409 216.44L181.041 217.361H179.199C176.742 216.747 175.821 217.361 176.435 219.203C172.751 219.203 169.988 221.045 168.146 224.729L169.067 225.65L170.909 223.808C173.979 224.422 176.435 223.808 178.278 221.966L182.883 222.887L186.567 221.966L188.409 225.65L187.488 224.729H181.962L171.83 227.492L164.462 233.018L165.383 233.939L169.067 232.097H170.909L177.357 229.334L181.962 230.255C173.365 232.097 166.611 236.395 161.699 243.15L162.62 245.913V244.992C163.234 243.15 164.155 242.843 165.383 244.071V243.15H167.225L173.672 241.307L172.751 240.386V239.465L174.593 240.386L179.199 239.465H190.251L200.382 245.913L201.303 248.676L204.066 249.597H204.987L200.382 243.15L194.856 238.544L193.935 236.702L198.54 238.544L200.382 242.229H201.303L198.54 236.702C198.54 234.246 197.005 233.018 193.935 233.018L193.014 231.176L197.619 233.939V233.018C194.549 231.176 194.242 229.641 196.698 228.413L200.382 232.097C199.768 233.325 200.382 233.632 202.224 233.018L204.066 237.623L206.829 239.465L205.908 230.255L199.461 224.729L200.382 222.887L204.066 225.65L206.829 227.492L210.513 234.86L209.592 238.544H211.434L212.355 236.702L211.434 226.571L206.829 217.361H207.75C207.136 218.589 207.75 218.896 209.592 218.282C212.662 221.966 214.504 226.878 215.118 233.018L214.197 234.86L215.118 238.544L216.039 237.623C215.425 233.939 215.732 231.79 216.96 231.176V223.808L211.434 212.756V210.914L214.197 212.756L215.118 217.361L217.881 218.282L220.644 225.65V232.097H223.408V217.361L220.644 211.835L221.566 209.993C224.636 212.449 226.478 216.44 227.092 221.966L226.171 223.808L227.092 226.571L225.25 232.097L226.171 233.939L228.013 231.176V217.361L225.25 211.835L228.013 210.914L230.776 218.282V225.65L229.855 226.571L230.776 229.334L232.618 224.729L231.697 211.835V209.993L228.013 202.625L225.25 198.02H227.092C226.478 199.862 227.092 200.476 228.934 199.862L232.618 206.309L235.381 216.44C235.995 226.878 233.846 234.86 228.934 240.386L226.171 242.229L221.566 247.755L216.039 250.518L215.118 252.36L224.329 247.755L232.618 237.623C232.004 235.781 232.618 235.167 234.46 235.781L237.223 223.808C237.223 213.37 234.767 205.388 229.855 199.862L228.013 197.098C224.943 192.186 220.337 189.116 214.197 187.888H201.303ZM276.827 187.888V189.73L286.958 195.256H287.879L280.511 189.73L276.827 187.888ZM129.463 188.809L126.7 194.335L128.542 197.098L129.463 204.467L130.384 201.704L129.463 188.809ZM124.858 190.651L123.016 196.177V198.02L123.937 215.519L124.858 218.282C124.244 220.738 124.858 221.659 126.7 221.045L125.779 223.808L126.7 225.65L128.542 226.571L126.7 220.124L127.621 218.282L126.7 215.519C124.244 214.291 123.937 213.37 125.779 212.756L124.858 190.651ZM183.804 190.651V192.493L185.646 191.572L183.804 190.651ZM119.332 191.572L118.411 193.414H119.332V191.572ZM95.3856 192.493L90.7805 206.309V221.045L89.8595 221.966L94.4646 244.992H95.3856L92.6226 232.097C91.3946 222.273 92.0086 214.598 94.4646 209.072V203.546L93.5436 206.309H92.6226L95.3856 196.177V192.493ZM271.301 193.414L272.222 195.256H273.143L271.301 193.414ZM119.332 195.256L117.49 197.098C118.718 200.783 118.411 203.239 116.569 204.467L119.332 221.966H120.253V214.598L119.332 213.677V204.467L120.253 203.546L119.332 195.256ZM274.064 195.256V196.177H275.906L274.064 195.256ZM239.065 199.862L238.144 201.704H239.065V199.862ZM239.986 201.704L239.065 203.546H239.986V201.704ZM240.907 203.546L239.986 207.23L242.749 213.677V228.413L236.302 241.307H238.144L242.749 233.018C244.591 231.79 244.898 230.869 243.67 230.255L245.512 228.413L246.433 220.124V218.282L245.512 209.993L244.591 207.23L243.67 209.993L240.907 203.546ZM243.67 204.467L242.749 207.23H243.67V204.467ZM311.826 205.388V206.309L314.589 207.23H316.431C315.817 205.388 314.282 204.774 311.826 205.388ZM130.384 206.309L129.463 209.072H130.384V206.309ZM316.431 208.151L318.273 209.993C321.343 209.379 323.492 209.686 324.72 210.914L330.246 209.993L316.431 208.151ZM258.406 211.835L261.169 214.598H262.09L258.406 211.835ZM263.932 214.598L263.011 216.44L270.38 220.124H273.143L263.932 214.598ZM76.9652 215.519L76.0442 217.361H76.9652V215.519ZM71.4391 216.44L69.5971 220.124L71.4391 219.203V216.44ZM83.4124 216.44L81.5703 222.887L82.4914 225.65L81.5703 228.413L82.4914 229.334V242.229L88.0175 256.965H88.9385L83.4124 233.939V216.44ZM88.0175 216.44L86.1754 219.203L87.0965 220.124V234.86L89.8595 243.15V246.834V248.676L92.6226 256.965V253.281V251.439L88.9385 235.781L88.0175 216.44ZM254.722 216.44L251.959 233.018L246.433 242.229V244.071L242.749 245.913V246.834C244.591 246.22 245.205 246.834 244.591 248.676L241.828 246.834L239.986 250.518L243.67 251.439L248.275 247.755L250.117 244.071C251.959 242.843 252.266 241.922 251.038 241.307L252.88 240.386L253.801 238.544L251.959 235.781L256.564 234.86L259.327 235.781C261.169 236.395 261.783 236.088 261.169 234.86L256.564 231.176L254.722 228.413L271.301 235.781L281.432 237.623L285.116 239.465H289.721L297.089 242.229H301.694L304.457 243.15H312.747L285.116 236.702L260.248 224.729L257.485 222.887L254.722 219.203L260.248 222.887L281.432 233.018L304.457 238.544H313.668L309.063 237.623H307.22L274.064 227.492C266.082 225.036 259.634 221.352 254.722 216.44ZM76.0442 217.361L73.2811 222.887V244.071L78.8073 263.412V264.333L76.0442 261.57L74.2022 249.597L71.4391 243.15V233.018L70.5181 225.65L68.676 234.86L70.5181 237.623L69.5971 236.702L67.755 241.307V244.992L68.676 246.834V250.518L66.834 244.992V243.15C66.22 234.553 67.141 227.799 69.5971 222.887V220.124C66.527 223.808 65.299 229.641 65.913 237.623L64.992 240.386L66.834 249.597H64.992L68.676 263.412L75.1232 279.99L87.0965 299.332L94.4646 306.7L96.3067 309.463L98.1487 310.384V308.542C92.6226 303.63 88.0175 298.104 84.3334 291.964L76.9652 276.306L77.8862 274.464C80.3423 281.832 84.3334 288.28 89.8595 293.806V295.648L98.1487 302.095L90.7805 289.201L88.0175 287.359L80.6493 273.543C80.0353 271.701 80.6493 271.087 82.4914 271.701L84.3334 278.148L88.0175 279.99L93.5436 292.885L97.2277 295.648L85.2544 271.701L78.8073 251.439V249.597L75.1232 233.018V221.045L76.0442 220.124V217.361ZM274.064 220.124L274.985 221.966L288.8 224.729C289.414 225.957 290.028 225.957 290.642 224.729C285.73 222.273 280.204 220.738 274.064 220.124ZM285.116 228.413V229.334H286.958L285.116 228.413ZM291.563 230.255V231.176L294.326 232.097L307.22 234.86C310.291 236.088 311.519 235.474 310.905 233.018L309.063 233.939L291.563 230.255ZM315.51 236.702C314.282 238.544 314.589 239.158 316.431 238.544L315.51 236.702ZM329.325 237.623L326.562 241.307L330.246 238.544L329.325 237.623ZM263.932 239.465L262.09 242.229L263.932 243.15C273.757 244.378 282.967 246.834 291.563 250.518L304.457 251.439H306.299L308.142 252.36L311.826 251.439L312.747 248.676L288.8 245.913L274.064 240.386L263.932 239.465ZM314.589 241.307L315.51 242.229L316.431 243.15C317.045 241.307 316.431 240.693 314.589 241.307ZM174.593 242.229L167.225 244.071L162.62 246.834L158.015 252.36L158.936 254.202C162.006 249.904 166.304 246.834 171.83 244.992L173.672 245.913L163.541 253.281L164.462 254.202L171.83 248.676L176.435 250.518C171.523 251.132 167.839 253.281 165.383 256.965H168.146L169.988 256.044C166.304 258.5 163.848 262.491 162.62 268.017L163.541 279.069L165.383 279.99L164.462 277.227V267.096L166.304 266.175L168.146 263.412L174.593 257.886L175.514 258.807L167.225 272.622L168.146 276.306L170.909 268.017L181.962 261.57L182.883 262.491L178.278 264.333L174.593 270.78L172.751 279.069C172.137 283.367 172.751 286.745 174.593 289.201H175.514L174.593 286.438V280.911L179.199 270.78L184.725 265.254H186.567H187.488L185.646 266.175L181.962 271.701L180.12 272.622L181.962 273.543L178.278 279.99V285.517V286.438C179.506 287.052 179.813 286.131 179.199 283.674H180.12L179.199 288.28L181.041 291.043V286.438L184.725 278.148L191.172 271.701L200.382 267.096L207.75 265.254C211.434 264.64 214.504 265.254 216.96 267.096L216.039 265.254C214.197 265.868 213.583 265.254 214.197 263.412L207.75 261.57H205.908H204.066L206.829 259.728C204.987 257.272 202.531 255.737 199.461 255.123H190.251L189.33 256.044H185.646C187.488 252.974 191.172 251.746 196.698 252.36V251.439C189.33 250.825 183.804 251.439 180.12 253.281H178.278L192.093 245.913L195.777 247.755V245.913L188.409 243.15L174.593 242.229ZM331.167 242.229L328.404 244.071L325.641 248.676L331.167 244.071V242.229ZM204.066 243.15L203.145 244.992H204.066V243.15ZM60.3868 245.913L59.4658 264.333L61.3079 274.464H62.2289C62.8429 269.552 62.2289 265.868 60.3868 263.412V245.913ZM261.169 245.913L262.09 247.755C262.704 245.913 262.397 245.299 261.169 245.913ZM265.775 246.834C262.09 256.658 257.485 265.561 251.959 273.543V275.385L268.538 278.148V279.069L256.564 278.148L251.959 276.306L250.117 279.069C252.573 280.911 256.257 281.832 261.169 281.832H262.09C261.476 283.06 263.318 283.367 267.617 282.753L277.748 269.859L286.037 251.439L265.775 246.834ZM331.167 246.834L325.641 250.518L326.562 252.36L331.167 248.676V246.834ZM196.698 247.755V248.676H197.619L196.698 247.755ZM258.406 247.755L257.485 252.36C256.871 253.588 256.257 253.588 255.643 252.36L253.801 255.123L255.643 256.044L253.801 256.965L250.117 261.57L242.749 278.148C242.135 279.376 242.749 279.683 244.591 279.069L256.564 259.728L261.169 248.676L258.406 247.755ZM237.223 249.597V251.439L234.46 253.281L237.223 254.202L240.907 253.281L239.065 251.439C239.679 249.597 239.065 248.983 237.223 249.597ZM132.226 251.439L124.858 264.333L125.779 266.175L130.384 268.938V267.096L127.621 264.333V263.412L130.384 264.333L128.542 260.649C130.384 260.035 130.998 260.649 130.384 262.491L132.226 261.57L130.384 256.965L132.226 254.202V251.439ZM241.828 251.439V252.36H242.749L241.828 251.439ZM134.069 252.36C133.455 257.272 133.762 260.649 134.99 262.491C137.446 263.105 138.06 261.877 136.832 258.807C135.604 257.579 135.911 256.658 137.753 256.044L138.674 258.807L139.595 267.096L141.437 268.017C142.665 264.333 142.358 262.184 140.516 261.57H142.358L140.516 254.202L134.069 252.36ZM323.799 252.36V254.202L325.641 253.281L323.799 252.36ZM290.642 253.281C285.73 258.193 282.353 264.333 280.511 271.701L273.143 281.832V284.595H281.432L282.353 285.517L288.8 284.595L298.931 273.543L308.142 256.965L309.063 255.123L307.22 256.044L290.642 253.281ZM233.539 254.202L231.697 256.044H234.46C235.074 257.272 235.688 257.272 236.302 256.044L233.539 254.202ZM322.878 254.202V255.123H323.799L322.878 254.202ZM163.541 255.123L161.699 257.886L163.541 256.965V255.123ZM321.957 255.123L320.115 257.886L321.957 256.965V255.123ZM332.088 255.123L326.562 257.886L319.194 265.254L320.115 266.175L333.009 256.965C333.623 255.123 333.316 254.509 332.088 255.123ZM145.121 256.044L143.279 257.886V261.57L146.963 268.017L147.884 266.175C148.498 261.263 147.577 257.886 145.121 256.044ZM231.697 256.044L229.855 256.965H228.013C226.171 258.193 226.171 259.114 228.013 259.728C231.083 260.342 232.925 259.728 233.539 257.886L231.697 256.044ZM323.799 256.044V256.965H324.72L323.799 256.044ZM319.194 259.728V260.649H320.115L319.194 259.728ZM241.828 260.649L239.986 262.491L244.591 264.333C245.819 260.649 244.898 259.421 241.828 260.649ZM121.174 261.57L119.332 263.412L121.174 264.333V261.57ZM62.2289 262.491V264.333L64.0709 263.412L62.2289 262.491ZM333.009 262.491L329.325 263.412L321.036 268.938L317.352 275.385L318.273 276.306L324.72 268.938L327.483 270.78H326.562C321.65 274.464 318.273 279.99 316.431 287.359L317.352 289.201L321.957 279.069L328.404 272.622H330.246H331.167L328.404 276.306L326.562 275.385L320.115 289.201L321.036 291.043L323.799 284.595L325.641 283.674L321.957 291.964C321.343 293.806 321.957 294.42 323.799 293.806L327.483 281.832L332.088 277.227L331.167 276.306L336.693 275.385C337.307 277.227 337 277.841 335.772 277.227C329.632 281.525 325.948 287.973 324.72 296.569C324.106 298.411 324.72 299.025 326.562 298.411L327.483 291.964L333.93 281.832C337.614 276.92 342.833 273.236 349.587 270.78C351.429 271.394 352.044 270.78 351.429 268.938L346.824 267.096L341.298 268.017L339.456 268.938C338.842 266.482 339.763 265.868 342.219 267.096V265.254L333.009 262.491ZM56.7028 264.333C54.8607 264.947 54.5537 265.868 55.7817 267.096L54.8607 268.938L56.7028 281.832L59.4658 285.517L61.3079 293.806L63.1499 297.49C62.5359 298.718 63.1499 299.025 64.992 298.411L58.5448 278.148V275.385C56.7028 275.999 56.0888 274.464 56.7028 270.78V268.938V264.333ZM64.0709 264.333V268.017V267.096C65.299 265.868 65.299 264.947 64.0709 264.333ZM124.858 265.254L123.016 270.78L128.542 274.464L129.463 275.385L127.621 272.622C128.235 270.78 127.621 270.166 125.779 270.78C126.393 267.71 126.086 265.868 124.858 265.254ZM236.302 265.254C235.688 268.324 236.609 269.245 239.065 268.017C240.293 265.561 239.372 264.64 236.302 265.254ZM64.992 268.017L64.0709 269.859H64.992V268.017ZM207.75 268.017L201.303 270.78L194.856 275.385L191.172 280.911L190.251 284.595L188.409 285.517V287.359L187.488 286.438L185.646 291.043L187.488 290.122C186.874 288.28 187.795 287.666 190.251 288.28L188.409 291.043L190.251 293.806L193.014 288.28L194.856 287.359L192.093 291.964V299.332C190.865 299.946 191.172 300.56 193.014 301.174L193.935 299.332L193.014 296.569L196.698 287.359L199.461 284.595C200.689 285.209 200.996 284.902 200.382 283.674C203.452 278.762 208.364 275.692 215.118 274.464C220.644 273.85 224.636 274.771 227.092 277.227L228.013 274.464L222.487 268.938L207.75 268.017ZM122.095 272.622L121.174 275.385C120.56 277.227 121.481 277.534 123.937 276.306C123.323 279.376 124.551 281.218 127.621 281.832H128.542L125.779 278.148L128.542 279.069H129.463L126.7 274.464L122.095 272.622ZM355.114 272.622L344.982 277.227L335.772 288.28L333.009 299.332L333.93 307.621L335.772 308.542L334.851 306.7V297.49L336.693 295.648L335.772 297.49C335.158 299.332 335.772 299.946 337.614 299.332L338.535 293.806L340.377 291.043H341.298L339.456 295.648L340.377 303.937C340.377 295.955 342.219 290.122 345.903 286.438L357.877 278.148L368.929 276.306H370.771H371.692L370.771 274.464L355.114 272.622ZM63.1499 274.464L62.2289 276.306H63.1499V274.464ZM138.674 276.306L139.595 278.148H140.516L138.674 276.306ZM216.039 278.148L216.96 279.99L220.644 279.069L216.039 278.148ZM227.092 278.148L226.171 279.99H227.092V278.148ZM68.676 279.069L67.755 281.832H68.676V279.069ZM141.437 279.069L142.358 280.911H143.279L141.437 279.069ZM212.355 279.99L213.276 281.832C213.89 279.99 213.583 279.376 212.355 279.99ZM221.566 279.99L222.487 281.832C223.715 281.218 224.022 281.832 223.408 283.674C225.864 284.288 227.399 283.981 228.013 282.753C226.785 280.297 224.636 279.376 221.566 279.99ZM301.694 279.99C301.08 282.446 302.308 283.06 305.378 281.832C305.992 279.376 304.764 278.762 301.694 279.99ZM53.9397 280.911L53.0187 284.595L54.8607 283.674L53.9397 280.911ZM208.671 280.911C208.671 282.753 208.057 283.367 206.829 282.753L204.987 285.517L208.671 283.674V280.911ZM217.881 280.911V283.674L215.118 282.753C214.504 284.595 215.118 285.209 216.96 284.595H218.802C221.259 285.209 222.18 284.902 221.566 283.674L217.881 280.911ZM69.5971 281.832L68.676 283.674H69.5971V281.832ZM120.253 281.832C119.639 285.517 121.174 287.666 124.858 288.28C126.7 288.894 127.314 288.587 126.7 287.359L120.253 281.832ZM125.779 281.832V282.753H126.7L125.779 281.832ZM360.64 282.753L358.798 283.674L356.956 286.438L361.561 284.595C362.175 282.753 361.868 282.139 360.64 282.753ZM368.008 282.753L356.035 290.122L355.114 294.727H356.035L359.719 290.122C362.175 285.824 366.78 283.981 373.534 284.595C374.148 282.753 372.306 282.139 368.008 282.753ZM70.5181 283.674L69.5971 285.517H70.5181V283.674ZM214.197 283.674L213.276 285.517L212.355 284.595L207.75 286.438L205.908 291.964L215.118 286.438L214.197 283.674ZM227.092 284.595L225.25 286.438L221.566 285.517L219.723 288.28L227.092 286.438L229.855 287.359C231.083 287.973 231.39 287.359 230.776 285.517L227.092 284.595ZM54.8607 285.517L53.9397 287.359H54.8607V285.517ZM119.332 285.517V288.28L125.779 292.885V290.122H124.858L123.016 288.28L119.332 285.517ZM204.066 285.517V288.28C205.908 287.666 205.908 286.745 204.066 285.517ZM355.114 285.517L351.429 289.201L352.351 290.122L356.035 287.359L355.114 285.517ZM373.534 285.517L364.324 289.201L362.482 291.964L365.245 292.885L371.692 288.28C372.306 290.122 371.999 290.736 370.771 290.122L368.008 294.727V295.648C370.464 296.262 372.306 295.648 373.534 293.806L374.455 290.122L378.139 288.28C378.753 286.438 378.139 285.824 376.297 286.438C375.069 287.666 374.148 287.359 373.534 285.517ZM242.749 286.438V288.28L245.512 289.201L244.591 288.28C245.205 286.438 244.591 285.824 242.749 286.438ZM217.881 287.359L212.355 290.122L208.671 294.727L209.592 295.648L216.039 290.122H217.881C219.723 289.508 219.723 288.587 217.881 287.359ZM381.823 288.28L378.139 290.122L374.455 294.727L372.613 295.648L370.771 298.411L379.06 293.806C379.674 292.578 380.288 292.885 380.902 294.727L377.218 297.49L376.297 299.332H379.06L383.665 295.648L384.586 296.569L383.665 298.411L381.823 299.332C379.367 299.946 378.446 301.481 379.06 303.937L386.428 299.332L389.191 300.253L386.428 301.174L387.349 303.937C387.963 305.165 387.349 305.472 385.507 304.858L384.586 309.463L391.033 308.542C391.647 306.086 393.489 305.165 396.56 305.779L395.638 303.016L391.954 304.858L392.875 303.016H393.796V297.49L391.954 298.411L390.112 293.806L388.27 294.727L387.349 291.964L386.428 293.806H385.507L386.428 291.964C385.814 290.122 385.2 289.815 384.586 291.043L383.665 289.201L381.823 288.28ZM53.9397 289.201L57.6238 303.937L66.834 315.91H67.755C62.2289 309.156 58.2378 300.867 55.7817 291.043C56.3958 289.201 55.7817 288.587 53.9397 289.201ZM226.171 289.201L217.881 293.806L213.276 299.332C215.118 299.946 215.732 299.639 215.118 298.411L221.566 293.806H224.329L225.25 291.964L231.697 293.806H228.013L216.96 299.332L215.118 302.095L222.487 298.411H223.408L221.566 299.332C219.723 299.946 219.416 300.867 220.644 302.095L217.881 303.937L216.96 305.779L220.644 303.937L223.408 304.858L218.802 307.621C218.188 309.463 218.802 310.077 220.644 309.463H222.487L225.25 310.384L221.566 313.147L222.487 314.989C223.101 316.217 224.022 316.217 225.25 314.989L227.092 315.91L231.697 314.989L228.934 308.542C229.548 306.086 229.241 305.165 228.013 305.779L226.171 302.095L230.776 301.174L233.539 302.095L232.618 305.779H236.302L237.223 308.542L235.381 309.463C236.609 311.919 237.837 312.226 239.065 310.384L238.144 312.226H241.828L242.749 314.989C242.135 316.831 243.363 317.138 246.433 315.91L245.512 317.752L247.354 318.673L244.591 319.594L245.512 322.357V320.515L247.354 321.436L245.512 324.199L248.275 326.041L247.354 327.883L250.117 328.804L248.275 331.568L252.88 329.726V325.12H251.959L249.196 326.962C248.582 325.12 249.196 324.506 251.038 325.12L251.959 323.278L246.433 310.384L239.986 303.016L233.539 291.964C232.925 289.508 230.469 288.587 226.171 289.201ZM74.2022 290.122C72.9741 291.964 73.2811 292.578 75.1232 291.964L74.2022 290.122ZM134.99 290.122L133.147 292.885V294.727L131.305 304.858L132.226 305.779L134.99 299.332V290.122ZM351.429 290.122L350.508 291.964H351.429V290.122ZM117.49 291.043L115.648 292.885L116.569 295.648L122.095 299.332L123.016 300.253L119.332 292.885C119.946 291.043 119.332 290.429 117.49 291.043ZM204.066 291.964C203.452 293.806 204.066 294.42 205.908 293.806C206.522 291.964 205.908 291.35 204.066 291.964ZM249.196 292.885L252.88 295.648C257.178 295.648 260.862 296.569 263.932 298.411H274.985L275.906 299.332C277.134 299.946 277.441 299.332 276.827 297.49L263.932 296.569L255.643 294.727L252.88 292.885H249.196ZM345.903 292.885L343.14 298.411C342.526 299.639 343.14 299.946 344.982 299.332L345.903 295.648V292.885ZM359.719 292.885L355.114 300.253H358.798H359.719C356.649 300.867 355.421 302.709 356.035 305.779L360.64 304.858L358.798 310.384L367.087 307.621L366.166 304.858H365.245H362.482L365.245 303.016L363.403 297.49L359.719 295.648L361.561 294.727L359.719 292.885ZM160.778 293.806L159.857 295.648L162.62 296.569L160.778 293.806ZM189.33 293.806L188.409 297.49L190.251 298.411L189.33 293.806ZM204.987 294.727L204.066 298.411H205.908L204.987 294.727ZM355.114 294.727L353.272 296.569L354.193 298.411L355.114 296.569V294.727ZM98.1487 295.648V300.253L99.9908 299.332V301.174L104.596 303.937C105.21 302.095 104.596 301.481 102.754 302.095L98.1487 295.648ZM250.117 295.648L249.196 297.49L258.406 301.174H265.775V299.332C259.02 299.332 253.801 298.104 250.117 295.648ZM156.173 296.569V299.332L158.015 300.253L157.094 298.411C157.708 296.569 157.401 295.955 156.173 296.569ZM163.541 296.569L161.699 298.411L164.462 299.332L167.225 302.095L168.146 301.174V303.016L179.199 307.621H181.041L166.304 298.411H163.541V296.569ZM328.404 296.569L327.483 298.411H328.404V296.569ZM84.3334 297.49L85.2544 302.095L87.0965 303.016L84.3334 297.49ZM112.885 297.49L111.964 300.253L113.806 303.016L120.253 306.7L121.174 307.621L117.49 303.016L120.253 303.937C121.481 304.551 121.788 303.937 121.174 302.095L115.648 297.49H112.885ZM65.913 298.411L64.0709 300.253L68.676 306.7C68.062 307.928 68.676 308.235 70.5181 307.621L65.913 298.411ZM158.936 300.253C160.164 303.323 163.234 306.086 168.146 308.542L190.251 316.831H195.777L172.751 309.463L158.936 300.253ZM268.538 300.253V301.174H269.459L268.538 300.253ZM271.301 300.253V301.174H272.222L271.301 300.253ZM344.982 300.253L344.061 302.095H344.982V300.253ZM195.777 301.174L194.856 303.016H195.777V301.174ZM155.252 302.095L154.331 303.937H155.252V302.095ZM258.406 302.095L259.327 303.937C259.941 302.095 259.634 301.481 258.406 302.095ZM262.09 302.095L263.011 303.937H270.38L262.09 302.095ZM88.0175 303.016L87.0965 304.858L88.9385 305.779L88.0175 303.016ZM195.777 303.016V304.858L198.54 305.779H201.303L195.777 303.016ZM111.043 303.937C109.815 305.779 110.122 307.314 111.964 308.542L110.122 306.7L108.28 310.384L110.122 314.068V314.989L108.28 314.068C107.052 312.84 106.131 313.147 105.517 314.989L106.438 318.673L113.806 324.199L115.648 323.278L113.806 316.831L117.49 318.673H118.411L113.806 313.147L114.727 311.305L119.332 314.068L120.253 314.989C120.867 313.147 120.56 312.533 119.332 313.147L114.727 307.621L111.043 305.779V303.937ZM156.173 303.937C163.541 313.147 174.9 319.287 190.251 322.357L193.014 323.278H198.54L197.619 321.436H193.014C191.786 319.594 189.944 318.98 187.488 319.594H185.646L184.725 317.752L175.514 314.989L156.173 303.937ZM99.0697 304.858L100.912 307.621V306.7L99.0697 304.858ZM339.456 304.858V307.621H340.377C340.991 305.165 340.684 304.244 339.456 304.858ZM151.568 305.779L149.726 307.621L155.252 311.305V309.463L151.568 305.779ZM89.8595 306.7V308.542L95.3856 312.226L91.7016 308.542C92.3156 306.7 91.7016 306.086 89.8595 306.7ZM397.481 306.7L396.56 308.542L394.717 307.621L392.875 308.542L391.033 311.305L390.112 313.147L396.56 312.226H397.481L394.717 313.147C392.875 313.761 392.568 314.682 393.796 315.91L391.954 319.594L395.638 316.831C397.481 317.445 398.095 317.138 397.481 315.91V314.068L399.323 314.989L398.402 310.384H397.481V309.463V306.7ZM71.4391 307.621L70.5181 309.463L72.3601 310.384L71.4391 307.621ZM341.298 307.621L340.377 310.384H341.298V307.621ZM134.069 308.542L129.463 316.831C130.691 319.901 130.384 322.05 128.542 323.278L129.463 326.041L131.305 322.357L134.069 311.305V308.542ZM119.332 309.463L120.253 311.305C120.867 309.463 120.56 308.849 119.332 309.463ZM157.094 309.463L156.173 311.305L158.015 312.226L157.094 309.463ZM365.245 309.463L362.482 311.305C359.412 312.533 359.105 313.761 361.561 314.989L363.403 314.068L361.561 317.752L364.324 322.357L368.008 323.278V310.384L367.087 309.463H365.245ZM96.3067 312.226C95.0786 314.068 95.3856 314.682 97.2277 314.068L96.3067 312.226ZM158.936 312.226V315.91C163.848 321.436 170.909 325.12 180.12 326.962L181.041 329.726L189.33 331.568L188.409 328.804L191.172 330.647C194.856 330.033 197.619 330.647 199.461 332.489H206.829V331.568L199.461 328.804L201.303 327.883V326.962L198.54 327.883L181.041 323.278L169.067 316.831L163.541 315.91L158.936 312.226ZM51.1766 314.989V315.91H53.0187L51.1766 314.989ZM49.3346 315.91L47.4926 317.752H50.2556C50.8696 315.91 50.5626 315.296 49.3346 315.91ZM197.619 315.91L196.698 317.752H197.619V315.91ZM229.855 315.91L227.092 317.752C225.25 317.138 224.636 317.752 225.25 319.594C224.022 320.208 224.329 320.822 226.171 321.436L233.539 320.515L232.618 318.673C233.232 315.603 232.311 314.682 229.855 315.91ZM149.726 316.831V319.594C154.024 325.12 159.857 329.419 167.225 332.489L169.067 331.568L176.435 335.252C178.278 334.638 178.892 335.252 178.278 337.094L180.12 338.015H179.199H177.357L159.857 334.331L154.331 328.804L153.41 331.568L176.435 347.225V348.146L169.067 345.383C166.611 345.997 165.69 345.383 166.304 343.541L157.094 339.857L155.252 336.173C152.796 335.559 151.875 336.48 152.489 338.936L164.462 348.146L175.514 353.672V354.593H171.83L165.383 349.988L162.62 350.909C159.55 351.523 158.015 350.602 158.015 348.146C156.173 348.76 155.559 348.146 156.173 346.304L153.41 344.462L151.568 345.383C155.866 350.909 162.006 355.207 169.988 358.277L171.83 361.961L165.383 360.119L153.41 352.751L152.489 349.988L150.647 350.909L151.568 353.672C157.708 358.584 165.076 362.575 173.672 365.645V366.566C165.69 365.338 159.55 362.575 155.252 358.277L154.331 361.04L158.015 362.882C159.243 362.268 159.55 362.882 158.936 364.724L170.909 371.171L189.33 376.698L193.935 373.935C195.163 374.549 195.47 373.628 194.856 371.171L190.251 372.092L181.962 370.25L197.619 367.487L198.54 363.803L193.014 362.882C189.944 363.496 188.716 363.189 189.33 361.961V360.119L195.777 361.961L201.303 359.198C196.391 359.198 192.707 358.277 190.251 356.435L200.382 354.593L204.987 350.909V349.067L201.303 350.909C195.777 351.523 191.479 350.909 188.409 349.067C197.619 349.681 204.373 347.839 208.671 343.541C208.057 341.699 207.443 341.392 206.829 342.62C197.005 343.848 189.33 343.541 183.804 341.699L186.567 340.778L188.409 338.015L193.014 338.936H205.908L207.75 337.094L179.199 331.568L169.067 327.883L160.778 322.357L162.62 326.041C162.006 327.883 162.927 328.19 165.383 326.962V328.804C159.243 326.962 154.638 323.892 151.568 319.594C152.182 317.138 151.568 316.217 149.726 316.831ZM397.481 317.752L395.638 318.673C393.796 319.287 393.182 320.822 393.796 323.278L395.638 322.357L397.481 323.278L395.638 328.804L398.402 329.726L399.323 326.041L398.402 322.357L399.323 319.594L397.481 317.752ZM104.596 318.673L102.754 321.436L104.596 323.278L101.833 322.357L99.0697 331.568L99.9908 336.173L103.675 338.015V332.489V330.647L108.28 333.41H110.122L104.596 325.12L107.359 326.041L110.122 327.883L111.964 329.726L105.517 320.515C106.131 318.673 105.824 318.059 104.596 318.673ZM141.437 321.436L138.674 322.357L139.595 324.199L142.358 323.278C142.972 321.436 142.665 320.822 141.437 321.436ZM229.855 322.357L228.013 323.278L225.25 326.962C225.864 328.19 226.785 328.19 228.013 326.962L230.776 327.883H227.092L228.013 331.568L230.776 332.489C231.39 330.033 232.311 329.726 233.539 331.568V326.962H231.697L233.539 326.041L231.697 325.12L233.539 324.199C234.153 321.743 232.925 321.129 229.855 322.357ZM116.569 323.278V324.199H117.49L116.569 323.278ZM150.647 325.12L149.726 326.962H150.647V325.12ZM247.354 325.12L246.433 326.962H247.354V325.12ZM265.775 325.12L263.011 326.962C261.169 326.348 260.555 326.962 261.169 328.804L263.011 327.883C266.696 328.497 268.538 328.19 268.538 326.962L265.775 325.12ZM150.647 326.962V328.804H153.41L150.647 326.962ZM259.327 330.647L256.564 334.331L262.09 332.489L263.011 333.41L251.038 338.015L251.959 339.857L267.617 333.41C269.459 334.024 270.073 333.41 269.459 331.568H268.538L267.617 330.647H259.327ZM190.251 331.568V332.489H191.172L190.251 331.568ZM233.539 332.489L229.855 335.252H233.539V332.489ZM267.617 334.331C265.775 334.945 265.468 335.866 266.696 337.094C259.327 340.164 251.038 342.313 241.828 343.541L245.512 344.462H252.88L253.801 343.541L255.643 344.462L261.169 343.541H263.011L273.143 338.936V337.094L269.459 338.936H267.617L271.301 336.173C270.687 334.331 269.459 333.717 267.617 334.331ZM98.1487 337.094L96.3067 338.936L97.2277 343.541C99.6837 344.769 103.982 345.076 110.122 344.462V342.62L111.964 343.541L111.043 341.699C107.359 341.085 105.21 341.699 104.596 343.541L99.0697 341.699L98.1487 337.094ZM231.697 337.094V338.015H234.46L231.697 337.094ZM216.039 338.015L210.513 357.356L206.829 362.882L207.75 363.803L214.197 359.198C217.881 359.812 220.644 359.505 222.487 358.277L219.723 349.067L218.802 339.857L216.039 338.015ZM149.726 341.699C149.112 343.541 149.726 344.155 151.568 343.541C152.182 341.699 151.568 341.085 149.726 341.699ZM272.222 341.699L267.617 345.383L263.011 346.304L258.406 345.383C254.108 344.155 251.652 344.462 251.038 346.304C247.968 345.076 246.74 345.69 247.354 348.146L246.433 347.225L242.749 349.988L253.801 353.672L251.959 354.593C246.433 355.207 242.442 354.593 239.986 352.751L238.144 353.672L243.67 357.356L251.959 360.119L246.433 361.04L237.223 356.435L235.381 357.356C239.065 361.04 244.591 363.189 251.959 363.803V364.724C247.661 365.952 245.205 365.645 244.591 363.803L242.749 364.724L238.144 363.803L234.46 361.04L233.539 362.882L246.433 369.329L252.88 370.25L253.801 372.092L244.591 371.171L231.697 365.645V366.566C232.925 365.952 233.232 366.566 232.618 368.408L250.117 377.619L248.275 378.54L235.381 373.935L234.46 375.777L241.828 378.54C244.284 377.926 245.205 378.54 244.591 380.382L259.327 384.987L267.617 383.145V381.303H257.485L258.406 379.461L256.564 378.54V377.619L261.169 378.54H264.854L270.38 374.856L271.301 373.013L264.854 372.092L271.301 370.25L272.222 368.408H274.064V364.724L269.459 366.566C265.161 367.794 262.397 367.487 261.169 365.645C262.397 362.575 263.625 361.961 264.854 363.803L274.064 360.119L275.906 356.435L260.248 360.119H258.406L274.985 353.672C275.599 351.216 275.292 349.681 274.064 349.067L267.617 351.83H260.248L258.406 352.751L262.09 349.988H263.932L273.143 345.383C274.371 345.997 274.678 345.383 274.064 343.541H273.143L272.222 341.699ZM228.934 342.62L229.855 344.462C230.469 342.62 230.162 342.006 228.934 342.62ZM242.749 347.225L240.907 349.067H242.749V347.225ZM102.754 350.909L104.596 353.672V352.751L102.754 350.909ZM99.9908 354.593L100.912 357.356L103.675 356.435L99.9908 354.593ZM99.0697 359.198L98.1487 361.961L99.9908 362.882C100.605 359.812 100.298 358.584 99.0697 359.198ZM149.726 361.04L147.884 364.724L148.805 366.566L158.936 369.329L159.857 370.25L158.015 367.487H157.094L149.726 361.04ZM96.3067 361.961L97.2277 367.487L99.0697 366.566L98.1487 363.803C98.7627 361.961 98.1487 361.347 96.3067 361.961ZM94.4646 366.566V370.25L96.3067 371.171L94.4646 366.566ZM143.279 366.566L148.805 380.382L161.699 388.671H163.541L153.41 382.224C154.024 380.382 153.717 379.768 152.489 380.382L145.121 369.329C145.735 366.873 145.121 365.952 143.279 366.566ZM93.5436 370.25C91.7016 373.935 92.0086 375.47 94.4646 374.856C95.0786 372.399 94.7716 370.864 93.5436 370.25ZM148.805 370.25L147.884 372.092L155.252 378.54L154.331 374.856L148.805 370.25ZM162.62 372.092C167.532 377.619 175.207 381.303 185.646 383.145V381.303L180.12 380.382L162.62 372.092ZM231.697 372.092L233.539 373.935H234.46L231.697 372.092ZM134.99 373.013C134.376 378.54 134.99 383.452 136.832 387.75C140.516 393.276 146.042 396.96 153.41 398.802H155.252L147.884 394.197L142.358 389.592L136.832 379.461C137.446 374.549 136.832 372.399 134.99 373.013ZM211.434 373.935L210.513 375.777H211.434V373.935ZM91.7016 375.777L89.8595 377.619L91.7016 378.54V375.777ZM222.487 375.777L221.566 378.54H222.487V375.777ZM130.384 377.619L133.147 389.592L130.384 390.513L131.305 396.96L134.99 400.644V402.486L140.516 406.17L138.674 402.486L141.437 404.328H142.358L133.147 392.355L134.069 390.513L139.595 396.96C140.823 396.346 141.13 396.96 140.516 398.802L143.279 399.723L144.2 397.881C142.972 394.811 142.051 394.197 141.437 396.039L137.753 392.355C138.367 390.513 137.753 389.899 135.911 390.513L132.226 382.224C133.455 378.54 132.84 377.005 130.384 377.619ZM208.671 378.54L205.908 382.224V388.671L207.75 395.118L209.592 396.96V399.723L211.434 398.802C208.364 395.732 207.136 391.127 207.75 384.987L208.671 382.224V378.54ZM220.644 379.461C219.416 383.759 220.03 387.443 222.487 390.513L224.329 391.434L220.644 379.461ZM222.487 379.461L225.25 385.908L227.092 386.829L224.329 381.303C224.943 379.461 224.329 378.847 222.487 379.461ZM268.538 379.461C267.924 381.303 268.538 381.917 270.38 381.303C270.994 379.461 270.38 378.847 268.538 379.461ZM88.0175 380.382L87.0965 382.224H88.0175V380.382ZM145.121 380.382V384.987L153.41 391.434L160.778 395.118H161.699L156.173 390.513C154.331 391.127 153.717 390.82 154.331 389.592L150.647 386.829L145.121 380.382ZM234.46 380.382V381.303H235.381L234.46 380.382ZM236.302 381.303L238.144 384.066C242.442 385.294 246.126 387.443 249.196 390.513H258.406L259.327 389.592L242.749 384.987L236.302 381.303ZM125.779 383.145L124.858 386.829C123.63 393.583 124.551 398.495 127.621 401.565L143.279 413.538H145.121L137.753 408.012L128.542 396.96L126.7 387.75L127.621 384.987C128.235 383.145 127.621 382.531 125.779 383.145ZM223.408 383.145L222.487 384.987H223.408V383.145ZM170.909 384.066V384.987H171.83L170.909 384.066ZM163.541 384.987V385.908H164.462L163.541 384.987ZM224.329 384.987L225.25 390.513L232.618 396.96H234.46H236.302L233.539 395.118L224.329 384.987ZM176.435 385.908V386.829H178.278L176.435 385.908ZM228.013 386.829L227.092 388.671L229.855 389.592L228.013 386.829ZM231.697 387.75L234.46 391.434H235.381L234.46 389.592L231.697 387.75ZM243.67 387.75V388.671H244.591L243.67 387.75ZM215.118 389.592L216.96 396.039L219.723 397.881L216.96 393.276C217.574 390.206 216.96 388.978 215.118 389.592ZM225.25 391.434L224.329 393.276L227.092 394.197L225.25 391.434ZM236.302 391.434L238.144 394.197H239.986L236.302 391.434ZM116.569 394.197L115.648 400.644L122.095 408.012H123.016C119.332 404.942 117.183 400.337 116.569 394.197ZM240.907 394.197L241.828 396.039H242.749L240.907 394.197ZM225.25 395.118V396.96L228.934 398.802V397.881L225.25 395.118ZM243.67 396.039V396.96H245.512L243.67 396.039ZM211.434 399.723L210.513 401.565L212.355 402.486L211.434 399.723ZM111.043 400.644V406.17L111.964 408.012C113.806 407.398 114.42 408.012 113.806 409.854L123.937 418.144H124.858L119.332 412.617L112.885 404.328C113.499 401.258 112.885 400.03 111.043 400.644ZM145.121 400.644L146.042 402.486H146.963L145.121 400.644ZM224.329 403.407V404.328H226.171L224.329 403.407ZM187.488 404.328L186.567 413.538H188.409L187.488 404.328ZM161.699 406.17L153.41 409.854H149.726L150.647 411.696L159.857 408.933L162.62 407.091L161.699 406.17ZM199.461 407.091V408.012H200.382L199.461 407.091ZM123.937 408.012V408.933H124.858L123.937 408.012ZM205.908 408.012V408.933H207.75L205.908 408.012ZM146.963 408.933V409.854H147.884L146.963 408.933ZM111.043 411.696L113.806 418.144L123.937 424.591H127.621L118.411 419.065L112.885 413.538C113.499 411.696 112.885 411.082 111.043 411.696ZM193.935 411.696V413.538L201.303 417.223L205.908 418.144H210.513L205.908 416.301C202.838 416.915 201.61 416.608 202.224 415.38H201.303L200.382 413.538H197.619L193.935 411.696ZM188.409 414.459L187.488 417.223H188.409V414.459ZM196.698 417.223V418.144L199.461 419.065H201.303L196.698 417.223ZM212.355 417.223V418.144H214.197L212.355 417.223ZM125.779 418.144V419.065H126.7L125.779 418.144ZM188.409 418.144L187.488 428.275L189.33 429.196L188.409 418.144ZM112.885 419.065L111.043 422.749L111.964 435.643L116.569 449.458H117.49V446.695L114.727 441.169L115.648 439.327L113.806 437.485C114.42 430.117 114.113 423.977 112.885 419.065ZM195.777 419.065L194.856 420.907L198.54 421.828H206.829L205.908 420.907H204.066L195.777 419.065ZM116.569 423.67V424.591H117.49L116.569 423.67ZM118.411 424.591L119.332 426.433L125.779 428.275C129.463 429.503 131.919 429.196 133.147 427.354L123.016 425.512H121.174L118.411 424.591ZM194.856 424.591V426.433L198.54 427.354H208.671L194.856 424.591ZM213.276 428.275L207.75 429.196H204.066L194.856 430.117L197.619 431.038H210.513L214.197 429.196L213.276 428.275ZM135.911 429.196L130.384 431.038H136.832C137.446 429.196 137.139 428.582 135.911 429.196ZM122.095 430.117L121.174 431.959L119.332 432.88L123.937 434.722L134.069 433.801L133.147 431.959L130.384 432.88H128.542L123.937 430.117H122.095ZM190.251 431.038L188.409 432.88L191.172 438.406L198.54 442.09C202.838 442.704 206.215 442.09 208.671 440.248L209.592 438.406L204.987 439.327L202.224 440.248H198.54L191.172 435.643H193.014C193.628 433.801 192.707 433.187 190.251 433.801V431.038ZM212.355 431.959L210.513 432.88L207.75 433.801H200.382L199.461 432.88L193.014 433.801L202.224 436.564C207.75 437.178 211.434 435.95 213.276 432.88L212.355 431.959ZM138.674 433.801L134.99 435.643H127.621L126.7 437.485C133.455 438.099 138.367 437.178 141.437 434.722L138.674 433.801ZM121.174 440.248L123.937 443.011H133.147L142.358 441.169V440.248C136.218 439.02 131.919 439.634 129.463 442.09L121.174 440.248ZM141.437 444.853L140.516 445.774C137.446 444.546 136.218 445.16 136.832 447.616L135.911 446.695L134.069 447.616L132.226 446.695L129.463 447.616H127.621L124.858 446.695L123.016 449.458L125.779 450.379H139.595L142.358 448.537L141.437 444.853ZM118.411 449.458L117.49 451.3L119.332 452.221L118.411 449.458ZM139.595 452.221L133.147 454.984C128.849 455.598 126.086 454.984 124.858 453.142C123.016 452.528 122.402 453.142 123.016 454.984L132.226 456.826L140.516 453.142L139.595 452.221ZM137.753 456.826C136.525 458.668 134.683 459.282 132.226 458.668L129.463 459.589L127.621 458.668L123.937 459.589L126.7 460.51C131.612 461.125 135.604 460.51 138.674 458.668C139.288 456.826 138.981 456.212 137.753 456.826Z" fill="#070707"/>
<path opacity="0.996078" d="M129.924 26.71C136.985 29.473 142.972 33.3106 147.884 38.2227L155.252 48.354H154.331C154.823 47.0031 154.362 46.5426 152.95 46.9724C147.669 40.5867 141.222 35.3676 133.608 31.3151L129.924 26.71Z" fill="#070707"/>
<path opacity="0.996078" d="M138.212 40.5254L146.962 44.67C146.225 46.3892 145.458 46.5427 144.66 45.1305C140.791 44.7621 138.642 43.2271 138.212 40.5254Z" fill="#070707"/>
<path opacity="0.996078" d="M131.766 51.5771H133.608L153.41 70.4581L158.015 76.9052L155.713 75.5237L142.358 64.4714C143.033 62.8136 142.573 62.1996 140.976 62.6294L132.687 52.4982L131.766 51.5771Z" fill="#070707"/>
<path opacity="0.996078" d="M22.1641 52.498L29.5322 56.1821L47.9526 59.8662L49.7947 58.9452L53.0183 60.3267L49.7947 61.7083L48.8737 60.7872H40.5845L32.2953 57.1032L25.8481 56.1821L22.1641 52.498Z" fill="#070707"/>
<path opacity="0.996078" d="M281.892 68.1553L286.037 68.6158L281.892 70.9183L279.59 69.5368L281.892 68.1553Z" fill="#070707"/>
<path opacity="0.996078" d="M270.84 85.6553L272.222 86.1158C265.345 89.6771 259.511 94.2822 254.722 99.9311L255.183 102.234L268.077 92.1024L259.788 101.313C258.437 100.883 257.976 101.343 258.406 102.694C257.178 105.457 255.95 105.764 254.722 103.615C255.213 102.019 254.446 101.558 252.42 102.234L251.038 99.9311L270.84 85.6553Z" fill="#070707"/>
<path opacity="0.996078" d="M231.236 120.653C235.227 120.653 238.144 121.728 239.986 123.877L241.828 128.482L242.749 137.692L241.828 143.218L238.604 147.363C236.578 149.328 233.201 149.942 228.473 149.205L225.249 146.902L222.486 136.771L225.249 125.719L229.394 121.574L231.236 120.653ZM232.618 123.416L231.697 126.179C231.083 127.407 231.697 127.714 233.539 127.1L236.302 131.706L237.223 129.864L235.381 125.258L232.618 123.416ZM232.618 128.021L230.776 130.785H232.618C233.232 132.013 232.925 132.32 231.697 131.706V133.548H228.933C227.705 136.618 228.319 137.846 230.776 137.232L231.697 134.469L232.618 137.232L234.46 136.311L235.381 133.548L232.618 128.021ZM231.697 137.232L228.933 139.074L230.776 140.916L231.697 139.074V137.232Z" fill="#070707"/>
<path opacity="0.996078" d="M59.9266 123.417L62.6896 125.259C66.3737 124.338 68.6763 124.799 69.5973 126.641L64.5317 128.022L57.624 125.72L59.4661 125.259L59.9266 123.417Z" fill="#070707"/>
<path opacity="0.996078" d="M107.819 140.916L123.016 141.377L112.424 143.679H110.582L94.4644 143.219C95.2626 141.561 96.0301 141.407 96.7669 142.758L107.819 140.916Z" fill="#070707"/>
<path opacity="0.996078" d="M132.687 143.68L133.608 144.601L144.2 145.061L138.213 146.443H129.924L124.398 148.285H117.03L116.109 149.206V147.364L102.754 146.903L115.188 146.443L119.793 144.601L120.714 146.443L122.556 144.601H131.766L132.687 143.68Z" fill="#070707"/>
<path opacity="0.996078" d="M245.973 188.81L267.617 202.164L266.236 202.625C257.885 198.879 251.131 194.274 245.973 188.81Z" fill="#070707"/>
<path opacity="0.996078" d="M265.774 250.518L282.353 253.281C283.151 255.123 282.383 255.737 280.05 255.123L276.366 253.281H274.524L265.774 252.36V250.518Z" fill="#070707"/>
<path opacity="0.996078" d="M265.315 255.123H271.762L279.59 258.347L276.827 258.807L272.222 269.399L272.683 270.78L271.301 270.32C272.222 273.022 271.762 274.096 269.92 273.543L267.157 275.386L260.249 272.622V265.715L265.315 255.123ZM268.538 257.886L267.617 260.649C267.003 263.105 268.538 263.719 272.222 262.491L273.143 259.728C272.529 257.886 271.915 257.579 271.301 258.807L268.538 257.886Z" fill="#070707"/>
<path opacity="0.996078" d="M291.103 257.886L291.564 259.267L286.037 271.701C287.695 271.026 288.309 271.486 287.88 273.083L289.261 272.622L291.564 271.241L294.327 264.793V261.109L292.485 257.886L301.234 258.807L302.616 260.188C299.791 259.82 297.949 260.434 297.09 262.03L294.327 271.241L285.577 282.753L278.209 283.674L275.906 282.753L277.748 279.53C281.187 271.302 285.638 264.087 291.103 257.886ZM286.959 272.622C285.73 274.464 286.037 275.078 287.88 274.464L286.959 272.622Z" fill="#070707"/>
</svg>
