<svg width="483" height="472" viewBox="0 0 483 472" fill="none" xmlns="http://www.w3.org/2000/svg">
<path opacity="0.996078" d="M358.61 0.00263837C362.263 -0.0624414 364.709 1.07645 365.948 3.41933L369.862 15.1337L395.303 45.3958L410.958 68.8245L421.721 91.277L429.549 113.73L431.506 123.492L433.952 126.908L448.14 126.42L444.226 120.563L446.672 119.099L478.962 127.884L482.387 130.325L478.962 132.765L454.5 140.575L446.672 144.48L446.183 140.087C448.597 139.306 449.575 137.516 449.118 134.718C442.269 133.611 437.051 134.425 433.463 137.158C433.006 138.655 433.496 139.143 434.931 138.623L440.312 148.873L439.334 154.73L436.398 158.635V165.468L433.463 168.397C433.724 172.562 432.582 175.328 430.038 176.694L426.614 177.67L422.7 196.706L412.915 218.183L400.195 236.73L372.798 268.945L370.841 272.85L369.862 287.493L367.416 289.933C362.85 290.909 360.078 290.096 359.099 287.493C356.686 284.694 356.033 280.139 357.142 273.826L354.207 268.945L323.874 228.921L283.268 179.623L281.8 181.087V185.968L276.907 203.54L274.461 205.98L270.058 206.956L268.101 218.183L263.209 227.945V240.635L273.972 269.921L275.929 277.731V290.421L277.886 294.814H280.332L292.074 301.647L323.385 310.433L331.702 317.755C334.311 321.985 334.963 328.167 333.659 336.302L327.788 353.874C329.614 355.045 329.941 357.649 328.766 361.683L327.788 362.66V375.35L325.831 388.041L321.428 393.41L314.089 397.803C311.741 406.523 307.338 413.194 300.88 417.815C298.271 420.418 294.357 421.72 289.138 421.72L281.8 416.35C278.734 412.511 277.755 406.654 278.864 398.779C280.495 397.803 280.821 395.525 279.843 391.946L285.224 384.624L292.563 383.648L293.541 379.255L292.563 374.374L298.923 367.053L302.348 364.612C305.609 359.406 306.588 351.922 305.283 342.16L303.326 337.767L299.902 336.79H297.945L282.289 339.719H256.849L255.87 338.743H248.043L235.322 333.862L230.919 334.838V337.279L239.726 348.017L240.704 364.612L236.79 374.374L226.027 390.969L220.156 409.517L215.753 414.886L208.414 420.255L203.033 426.601L184.442 437.339H179.55C173.874 434.605 171.102 428.911 171.233 420.255L174.168 408.541L181.506 399.267L188.845 398.291C189.367 393.41 191.487 389.83 195.205 387.553C199.38 387.488 202.152 386.023 203.522 383.16L207.436 371.445V360.707L204.99 357.291L191.291 353.386C186.529 349.091 180.495 346.487 173.189 345.576L169.276 358.755L159.98 369.005L141.878 384.136C144.357 398.584 149.576 410.298 157.534 419.279L158.512 428.065C156.164 429.952 155.512 433.532 156.555 438.803L157.534 439.779V453.446C156.36 460.475 154.077 466.169 150.685 470.529L145.303 471.506C139.302 470.399 134.899 467.633 132.094 463.208C127.136 459.043 124.853 452.209 125.244 442.708C126.94 436.916 129.876 432.36 134.051 429.041L129.158 422.208V411.47L123.287 398.291L119.863 396.338L109.589 385.112L108.61 374.374L110.567 370.469L122.798 358.267L128.18 353.874C130.332 351.791 131.311 348.537 131.115 344.112L130.137 341.671L124.755 340.695L120.352 349.969L113.013 359.243L99.3149 368.029L81.7024 372.91L73.3854 378.279L70.45 384.136L64.5791 420.255L59.1975 429.529L51.859 433.922L43.542 445.148C39.6281 449.053 34.4096 451.656 27.8864 452.958L21.5264 449.541C18.2648 444.335 17.2863 436.851 18.591 427.089C20.0261 421.687 22.7984 417.62 26.908 414.886L31.8003 412.934L34.2465 413.91C33.1376 408.053 34.2791 404.148 37.6712 402.196L41.0958 401.219L45.9882 391.946L49.9021 374.374V368.517L47.9451 361.683L49.9021 352.898L56.2621 343.624C58.48 341.281 62.0677 340.305 67.0253 340.695L70.45 337.279C72.6678 333.309 73.3201 327.777 72.4069 320.683L68.493 303.112L67.5145 282.612L76.3208 255.278C80.1694 248.054 85.0618 241.872 90.9979 236.73L89.5302 236.242L72.4069 251.373L60.6652 279.683L50.3913 290.909L35.7142 297.743L12.2309 301.647L7.82777 306.04L6.36007 311.409L5.87083 301.159L8.80624 289.445L16.1448 282.123C21.2328 280.692 25.3098 278.251 28.3757 274.802C28.9628 272.85 27.8212 272.361 24.951 273.338L22.0156 274.314L12.2309 276.266L1.95694 286.516L0.489236 288.957L0 285.54L6.8493 268.945L11.2524 264.552L32.2896 252.349L28.8649 251.861L27.8864 252.838H19.0802L8.80624 248.445L7.82777 246.492C19.0476 245.646 27.2015 241.741 32.2896 234.778C36.0078 227.099 41.0632 220.753 47.4559 215.742C54.3052 208.909 64.7422 205.655 78.767 205.98C89.1388 208.323 97.1296 213.041 102.74 220.135L107.143 226.48L138.454 218.671C144.194 216.588 148.923 213.497 152.642 209.397L155.577 199.635L153.131 196.218L139.432 194.266L132.094 187.92C128.897 182.324 127.919 174.514 129.158 164.492L131.115 157.658V150.825L133.072 143.992V137.158L135.029 130.325L137.965 105.92L142.857 84.4436L147.749 71.7531L155.088 63.4554C158.936 60.4617 164.807 59.4855 172.7 60.5268C176.288 62.3491 180.691 62.9999 185.91 62.4792L190.802 41.491C194.064 34.6576 198.467 28.9631 204.011 24.4076C213.6 16.0773 227.299 11.8472 245.107 11.717C264.872 14.4503 279.386 22.4226 288.649 35.6338C295.89 43.3783 298.825 55.4181 297.455 71.7531L293.541 88.3484L287.671 99.0866L292.563 95.1818L352.25 20.9909L356.164 13.1813L353.228 6.34792L356.653 0.978835L358.61 0.00263837ZM360.078 3.90742V9.7646C359.425 11.0662 360.078 11.3916 362.035 10.7408C362.687 7.48681 362.035 5.20902 360.078 3.90742ZM233.855 17.5742L218.199 21.479L210.371 26.3599C203.196 30.9155 197.977 37.4235 194.716 45.8839L195.694 47.8363C198.304 46.5347 198.63 45.5585 196.673 44.9077L201.565 41.0029L200.587 40.0267L198.63 41.0029L206.458 35.1457L205.479 34.1695L203.522 35.1457C206.784 29.9393 211.676 26.3599 218.199 24.4076L233.855 21.479L236.79 22.4552L218.199 27.3361V28.3123L227.005 26.3599H238.747L237.769 28.3123L233.855 27.3361L216.242 31.2409L217.221 33.1933L225.048 31.2409L236.79 32.2171L207.436 41.0029L206.458 42.9553L221.135 38.0743L230.919 39.0505L215.264 41.9791V42.9553L227.005 41.0029C229.615 39.7013 230.593 40.3521 229.941 42.9553L228.962 41.9791L220.156 44.9077V45.8839C223.418 47.1855 225.701 46.8601 227.005 44.9077C228.962 44.2569 229.615 44.9077 228.962 46.8601L223.092 48.8125C219.83 48.1617 218.525 48.8125 219.178 50.7649L226.027 49.7887H227.005L225.048 57.5982V74.1936L226.027 75.1698L222.113 74.1936C220.808 72.892 219.83 73.2174 219.178 75.1698L225.048 76.146L227.005 80.0508L225.048 81.027H227.005L232.876 94.6937L239.726 98.5985V99.5747L232.876 96.6461L227.005 97.6223L252.446 106.408V107.384L227.984 99.5747L221.135 95.6699L218.199 96.6461L226.027 100.551H228.962L238.747 105.432L235.812 106.408L249.51 109.337H259.295L260.273 110.313L274.951 108.36L262.23 107.384C260.273 105.432 257.664 104.781 254.403 105.432L240.704 97.6223L230.919 86.8841L227.005 76.146C225.048 62.4792 226.679 52.3919 231.898 45.8839C237.769 37.4235 246.901 32.2171 259.295 30.2647C266.47 28.9631 272.015 29.6139 275.929 32.2171H276.907C271.037 25.7091 263.861 21.1536 255.381 18.5504C248.858 17.2488 241.682 16.9234 233.855 17.5742ZM359.099 18.5504L286.692 109.337L284.735 113.241L288.649 112.265L300.391 115.194L314.089 124.956L318.982 125.932H381.604L382.582 126.908L383.561 125.932H411.937V117.146L408.023 98.5985L400.195 79.0746L389.432 59.5506L360.078 21.479C360.73 18.8758 360.404 17.8996 359.099 18.5504ZM371.819 24.4076L372.798 29.2885L397.259 61.503L409.001 83.9555V86.8841L415.85 102.503C415.198 105.106 416.177 105.757 418.786 104.456C419.438 106.408 418.786 107.059 416.829 106.408C416.177 108.36 416.829 109.011 418.786 108.36L421.721 114.218C422.374 116.17 421.069 116.495 417.807 115.194V118.122L422.7 117.146L421.721 120.075L419.764 119.099L418.786 122.027L421.721 121.051L422.7 123.003C418.134 121.702 416.177 122.353 416.829 124.956H424.657L425.635 123.98L419.764 102.503L403.13 66.384L393.346 51.7411L371.819 24.4076ZM216.242 28.3123V29.2885H217.221L216.242 28.3123ZM214.285 32.2171L210.371 34.1695V35.1457L215.264 33.1933L214.285 32.2171ZM278.864 32.2171V33.1933H279.843L278.864 32.2171ZM258.317 36.1219L243.639 42.9553C237.769 46.8601 233.529 52.7173 230.919 60.5268C230.267 71.5904 232.224 80.3762 236.79 86.8841C242.661 95.3445 252.12 100.551 265.166 102.503H271.037L280.821 99.5747V98.5985L274.951 99.5747L260.273 98.5985L243.639 90.7889L237.769 82.9793L234.833 75.1698C233.529 63.4554 235.159 55.3204 239.726 50.7649C243.639 44.9077 249.51 41.3283 257.338 40.0267H274.951L285.714 44.9077L290.606 49.7887L289.628 46.8601C283.757 38.3997 273.32 34.8203 258.317 36.1219ZM272.994 45.8839C272.994 49.1379 273.972 51.7411 275.929 53.6934L276.907 66.384L277.886 56.622L279.843 59.5506L280.821 51.7411C282.778 53.6934 283.757 56.9474 283.757 61.503H284.735L283.757 53.6934C281.148 49.1379 277.56 46.5347 272.994 45.8839ZM206.458 46.8601L208.414 48.8125C211.024 50.7649 212.981 54.0188 214.285 58.5744C214.938 68.9872 212.328 76.146 206.458 80.0508H208.414L215.264 71.265L217.221 61.503L214.285 53.6934L206.458 46.8601ZM201.565 50.7649L199.608 51.7411C195.042 54.3442 192.433 58.5744 191.78 64.4316L192.759 74.1936L199.608 78.0984L204.501 76.146C208.414 73.5428 210.698 69.3126 211.35 63.4554L209.393 55.6458L205.479 50.7649H201.565ZM224.07 51.7411L221.135 53.6934H224.07V51.7411ZM288.649 55.6458L289.628 63.4554C290.28 75.1698 287.997 83.9555 282.778 89.8127C282.126 91.7651 282.778 92.4159 284.735 91.7651L288.649 85.9079L291.585 75.1698C292.237 66.7094 291.258 60.2014 288.649 55.6458ZM222.113 58.5744L223.092 60.5268C223.744 58.5744 223.418 57.9236 222.113 58.5744ZM161.448 66.384L159.491 68.3364L166.34 70.2888L167.319 73.2174L168.297 74.1936L159.491 68.3364L155.577 70.2888L154.599 72.2412L157.534 71.265L165.362 75.1698H168.297L169.276 76.146L167.319 69.3126L161.448 66.384ZM170.254 66.384L172.211 69.3126C174.168 69.9634 174.82 69.638 174.168 68.3364C173.516 66.384 172.211 65.7332 170.254 66.384ZM221.135 68.3364L222.113 69.3126L223.092 70.2888C223.744 68.3364 223.092 67.6856 221.135 68.3364ZM176.125 71.265C174.82 73.2174 175.146 73.8682 177.103 73.2174L176.125 71.265ZM219.178 71.265V72.2412H220.156L219.178 71.265ZM282.778 71.265L281.8 73.2174H282.778V71.265ZM153.62 75.1698L151.663 77.1222L153.62 80.0508L151.663 79.0746L150.685 81.027L154.599 82.0031L156.555 79.0746L160.469 82.0031H161.448L155.577 75.1698H153.62ZM174.168 76.146V79.0746H183.953L174.168 76.146ZM217.221 77.1222V78.0984H218.199L217.221 77.1222ZM219.178 78.0984L223.092 81.027H224.07C223.418 78.4238 221.787 77.4476 219.178 78.0984ZM215.264 80.0508V82.0031L224.07 85.9079H226.027L215.264 80.0508ZM148.728 82.9793V84.9317L152.642 85.9079H155.577L148.728 82.9793ZM171.233 83.9555L164.383 93.7175L165.362 94.6937L174.168 88.8365L182.974 87.8603L183.953 86.8841C181.343 84.2809 177.103 83.3047 171.233 83.9555ZM214.285 83.9555V84.9317L220.156 87.8603H223.092L217.221 83.9555H214.285ZM147.749 85.9079V87.8603C150.358 87.2095 152.642 87.8603 154.599 89.8127H155.577L147.749 85.9079ZM212.328 85.9079V86.8841H213.307L212.328 85.9079ZM227.005 85.9079L226.027 87.8603H227.005V85.9079ZM192.759 86.8841C189.497 88.8365 188.193 92.4159 188.845 97.6223L192.759 99.5747L191.78 94.6937V92.7413L197.651 95.6699L193.737 90.7889C194.39 87.5349 194.064 86.2333 192.759 86.8841ZM214.285 86.8841V88.8365L216.242 87.8603L214.285 86.8841ZM146.771 88.8365V90.7889L155.577 93.7175L157.534 92.7413L146.771 88.8365ZM219.178 88.8365V89.8127L230.919 94.6937C232.224 95.3445 232.55 95.0191 231.898 93.7175C228.636 90.4635 224.396 88.8365 219.178 88.8365ZM210.371 89.8127C210.371 92.4159 212.655 93.7175 217.221 93.7175L218.199 91.7651H217.221L210.371 89.8127ZM219.178 91.7651L221.135 94.6937H224.07L219.178 91.7651ZM145.792 92.7413V94.6937L149.706 95.6699H153.62L145.792 92.7413ZM216.242 94.6937V95.6699H217.221L216.242 94.6937ZM145.792 95.6699V97.6223L152.642 99.5747H154.599L145.792 95.6699ZM180.039 96.6461L178.082 98.5985H180.039V96.6461ZM214.285 96.6461L215.264 98.5985H217.221L214.285 96.6461ZM181.996 97.6223L180.039 100.551L181.996 101.527V97.6223ZM218.199 98.5985L220.156 100.551H222.113L218.199 98.5985ZM145.792 99.5747V100.551L151.663 101.527C152.315 99.5747 150.358 98.9239 145.792 99.5747ZM179.06 99.5747L173.189 103.479V104.456H180.039L176.125 103.479L179.06 101.527V99.5747ZM168.297 100.551V102.503L170.254 101.527L168.297 100.551ZM224.07 100.551L227.005 103.479H228.962L224.07 100.551ZM144.814 101.527L143.835 107.384L145.792 106.408L147.749 107.384L151.663 106.408L145.792 105.432L150.685 103.479L144.814 101.527ZM210.371 102.503V103.479L227.005 111.289L250.489 117.146H263.209L275.929 115.194C277.886 115.845 278.538 115.194 277.886 113.241L275.929 114.218H252.446L246.575 113.241C232.876 110.638 220.808 107.059 210.371 102.503ZM285.714 102.503V104.456L287.671 103.479L285.714 102.503ZM229.941 103.479L230.919 105.432H235.812L229.941 103.479ZM178.082 105.432L177.103 107.384C179.713 106.733 180.691 107.384 180.039 109.337H174.168L169.276 112.265H166.34C161.122 115.519 157.534 120.726 155.577 127.884L153.62 140.575V154.242L152.642 155.218L154.599 176.694L168.297 201.099L178.082 204.028H180.039L189.823 205.98H193.737L205.479 201.099L206.458 199.147L201.565 201.099L198.63 199.147L197.651 202.075L192.759 203.052L187.867 201.099L186.888 203.052L187.867 204.028C182.648 203.377 179.06 201.75 177.103 199.147L178.082 202.075C173.516 201.425 170.58 199.798 169.276 197.194L161.448 186.456L154.599 162.051V152.289L155.577 151.313L154.599 146.432V144.48L158.512 136.67C159.165 134.718 158.512 134.067 156.555 134.718L158.512 124.956C161.122 119.099 166.014 115.194 173.189 113.241L176.125 114.218L169.276 117.146V119.099L161.448 125.932L162.426 126.908L168.297 123.003L172.211 123.98C166.992 125.281 162.752 128.21 159.491 132.765L160.469 133.742C162.426 129.837 166.014 127.559 171.233 126.908L175.146 127.884L163.405 133.742L164.383 134.718L167.319 132.765C174.494 131.464 180.039 132.44 183.953 135.694H172.211L163.405 140.575L164.383 142.527L170.254 139.599C181.343 138.297 189.823 139.924 195.694 144.48L193.737 142.527L194.716 140.575L196.673 145.456H198.63L195.694 139.599L190.802 132.765L195.694 134.718C198.304 136.67 199.934 140.25 200.587 145.456H201.565V141.551C198.956 138.948 197.651 135.369 197.651 130.813L194.716 126.908L195.694 124.956C197.651 126.908 198.956 129.837 199.608 133.742H200.587C201.239 129.837 200.587 127.234 198.63 125.932L190.802 114.218L192.759 113.241C198.63 116.495 202.217 122.353 203.522 130.813V139.599H205.479L204.501 128.861L207.436 127.884L208.414 135.694C209.067 140.25 208.414 143.504 206.458 145.456L210.371 146.432V131.789L206.458 123.003L205.479 125.932L201.565 117.146L197.651 112.265L196.673 113.241L188.845 109.337L183.953 110.313C181.343 110.964 180.365 110.313 181.017 108.36H183.953C183.3 106.408 182.648 106.083 181.996 107.384V106.408L178.082 105.432ZM200.587 105.432L197.651 107.384L215.264 115.194L245.596 124.956H269.08L270.058 123.98C264.187 121.376 257.012 120.726 248.532 122.027L235.812 119.099L200.587 105.432ZM142.857 108.36V110.313L151.663 109.337L142.857 108.36ZM142.857 111.289V113.241L148.728 112.265L142.857 111.289ZM419.764 111.289L416.829 113.241L419.764 114.218V111.289ZM274.951 112.265V113.241H275.929L274.951 112.265ZM142.857 114.218L144.814 117.146L147.749 116.17L142.857 114.218ZM142.857 117.146L141.878 119.099V120.075L148.728 119.099L142.857 117.146ZM167.319 118.122V119.099H168.297L167.319 118.122ZM290.606 118.122L285.714 126.908L283.757 123.98L284.735 121.051L282.778 120.075L280.821 127.884L283.757 126.908L287.671 127.884C287.671 123.329 289.301 120.4 292.563 119.099L290.606 118.122ZM149.706 120.075L147.749 121.051C146.445 123.654 145.14 123.654 143.835 121.051C141.226 121.702 140.248 123.654 140.9 126.908L139.921 129.837L142.857 130.813C146.771 132.115 148.402 131.464 147.749 128.861C144.488 129.511 142.531 129.186 141.878 127.884L150.685 121.051L149.706 120.075ZM293.541 120.075L289.628 124.956L290.606 126.908L293.541 122.027V120.075ZM275.929 122.027V123.98L277.886 124.956C278.538 122.353 277.886 121.376 275.929 122.027ZM296.477 122.027L292.563 126.908V127.884L299.412 125.932L300.391 123.98H299.412L296.477 122.027ZM212.328 123.98L211.35 128.861L214.285 136.67L216.242 137.646C216.895 133.091 216.242 130.162 214.285 128.861C214.938 126.257 214.285 125.281 212.328 125.932V123.98ZM226.027 124.956L224.07 126.908L221.135 125.932L222.113 133.742L225.048 138.623L229.941 140.575L238.747 137.646L229.941 135.694L226.027 132.765L227.005 131.789L226.027 129.837L227.005 126.908C227.658 124.956 227.332 124.305 226.027 124.956ZM302.348 124.956V126.908V127.884L305.283 126.908C305.935 124.956 304.957 124.305 302.348 124.956ZM454.989 125.932V131.789L467.709 130.813L457.925 127.884L454.989 125.932ZM144.814 126.908V127.884H145.792L144.814 126.908ZM231.898 127.884L230.919 131.789L238.747 134.718C242.009 135.369 244.292 135.043 245.596 133.742L243.639 128.861L241.682 131.789C237.769 133.091 236.138 132.44 236.79 129.837L231.898 127.884ZM268.101 128.861L257.338 132.765L251.467 137.646C243.639 139.599 237.442 142.853 232.876 147.408L233.855 150.337V153.266L231.898 149.361L227.984 148.385L227.005 153.266V157.17L233.855 168.885L239.726 172.789L240.704 173.766C241.356 171.813 241.03 171.162 239.726 171.813C235.812 169.21 233.529 165.305 232.876 160.099L233.855 157.17L237.769 166.932L244.618 171.813H245.596L238.747 164.004L239.726 160.099L245.596 167.908H246.575L244.618 165.956L243.639 161.075H245.596L246.575 157.17H247.553L246.575 159.123C245.923 162.377 246.575 164.329 248.532 164.98L249.51 160.099L250.489 164.004L251.467 162.051L250.489 160.099C249.184 150.988 250.489 144.48 254.403 140.575V138.623C251.141 140.575 249.51 143.829 249.51 148.385L248.532 146.432L247.553 150.337H246.575C245.27 145.781 245.923 143.829 248.532 144.48C248.532 141.226 250.163 138.948 253.424 137.646L256.36 138.623H257.338C254.729 141.226 253.424 145.131 253.424 150.337L252.446 153.266L254.403 164.004C253.75 166.607 254.403 167.583 256.36 166.932L255.381 164.004L256.36 158.146L257.338 164.004H258.317L257.338 157.17V155.218L260.273 161.075L261.252 159.123L260.273 155.218C258.969 153.916 259.295 152.94 261.252 152.289L260.273 154.242L263.209 162.051C262.557 164.004 263.209 164.654 265.166 164.004L264.187 160.099L267.123 161.075C268.427 161.726 268.754 161.075 268.101 159.123L266.144 158.146H263.209V153.266L269.08 155.218L270.058 153.266L272.994 157.17L273.972 153.266L262.23 148.385L263.209 146.432H265.166L268.101 144.48L270.058 148.385L272.015 145.456L272.994 149.361C276.907 150.662 278.212 149.686 276.907 146.432L259.295 138.623L260.273 135.694H262.23L265.166 133.742L270.058 137.646C272.015 138.297 272.667 137.972 272.015 136.67C270.71 135.369 271.037 134.392 272.994 133.742L274.951 137.646C277.56 138.297 278.538 137.972 277.886 136.67L268.101 128.861ZM344.422 129.837L343.444 130.813H306.262L305.283 131.789L279.843 132.765C280.495 134.718 283.104 135.369 287.671 134.718H289.628L292.563 133.742H317.025L318.003 132.765H352.25L353.228 131.789L357.142 132.765H386.496L387.475 133.742L391.389 132.765H419.764L417.807 130.813H350.293L344.422 129.837ZM423.678 129.837L420.743 130.813V131.789H428.571L429.549 130.813L431.506 131.789L436.398 130.813L423.678 129.837ZM140.9 130.813L139.921 133.742H144.814L140.9 130.813ZM456.946 132.765L455.968 133.742C454.011 133.091 453.359 133.742 454.011 135.694L461.839 133.742L456.946 132.765ZM138.943 134.718L137.965 140.575C141.878 141.226 144.814 140.9 146.771 139.599L139.921 138.623L144.814 137.646C144.161 135.043 142.205 134.067 138.943 134.718ZM201.565 135.694L200.587 137.646H201.565V135.694ZM219.178 135.694L222.113 142.527L224.07 141.551L227.005 143.504L229.941 142.527L225.048 140.575L219.178 135.694ZM412.915 136.67L406.066 138.623L404.109 143.504L403.13 141.551L400.195 142.527L402.152 145.456C400.847 148.71 401.5 150.012 404.109 149.361L405.087 144.48L406.066 151.313C405.413 152.615 406.066 152.94 408.023 152.289L406.066 148.385L407.044 145.456C406.392 142.853 407.044 141.877 409.001 142.527L408.023 145.456C407.37 147.408 408.023 148.71 409.98 149.361V147.408C410.632 145.456 411.61 145.131 412.915 146.432L415.85 143.504V146.432L417.807 147.408C417.155 145.456 417.807 144.805 419.764 145.456L420.743 150.337L425.635 148.385L424.657 144.48L419.764 138.623H416.829V137.646L412.915 136.67ZM213.307 137.646L212.328 143.504L213.307 146.432L217.221 144.48V143.504H215.264V137.646H213.307ZM217.221 137.646V143.504H219.178L217.221 137.646ZM272.015 138.623V140.575L275.929 139.599L272.015 138.623ZM314.089 138.623L311.154 140.575L304.305 151.313C305.609 155.218 305.283 157.821 303.326 159.123L305.283 164.98C305.935 159.123 307.892 154.567 311.154 151.313L312.132 154.242L316.046 146.432L321.917 141.551C322.569 138.948 321.265 138.297 318.003 139.599L310.176 150.337H309.197C309.197 145.131 310.828 141.877 314.089 140.575V138.623ZM349.314 138.623V139.599H350.293L349.314 138.623ZM292.563 139.599L290.606 142.527L293.541 140.575L292.563 139.599ZM295.498 139.599L291.585 147.408L288.649 158.146L290.606 163.027C290.606 153.266 293.215 145.781 298.434 140.575L295.498 139.599ZM300.391 139.599C296.477 144.154 294.52 150.662 294.52 159.123V161.075L296.477 164.004H297.455L296.477 161.075C295.825 150.662 298.108 143.829 303.326 140.575L300.391 139.599ZM306.262 139.599L298.434 153.266L299.412 157.17L307.24 141.551C307.892 139.599 307.566 138.948 306.262 139.599ZM328.766 139.599L323.874 140.575C318.656 144.48 316.046 151.313 316.046 161.075L315.068 164.004L316.046 165.956C315.394 168.559 316.046 169.535 318.003 168.885L317.025 166.932C317.677 155.218 321.591 146.758 328.766 141.551V139.599ZM288.649 140.575L286.692 142.527L288.649 143.504V140.575ZM332.68 140.575L323.874 151.313L321.917 161.075C323.874 162.377 324.853 164.654 324.853 167.908C324.2 156.845 326.483 149.035 331.702 144.48L334.637 142.527C335.29 140.575 334.637 139.924 332.68 140.575ZM340.508 140.575L338.551 142.527C339.204 143.829 338.551 144.154 336.594 143.504L330.723 158.146L331.702 171.813L333.659 172.789L332.68 168.885L333.659 154.242L339.53 143.504L342.465 141.551L340.508 140.575ZM350.293 140.575L347.357 141.551H345.4L336.594 152.289C334.637 153.591 333.985 156.194 334.637 160.099L336.594 159.123C335.942 164.329 336.594 168.234 338.551 170.837L340.508 171.813L338.551 167.908L340.508 152.289L342.465 148.385L346.379 145.456L341.487 159.123C343.444 159.773 343.77 162.051 342.465 165.956L344.422 167.908L345.4 172.789L347.357 173.766L344.422 165.956L347.357 154.242L350.293 162.051L351.271 172.789L355.185 176.694H356.164C352.25 174.742 350.945 170.512 352.25 164.004L351.271 161.075C350.619 159.123 351.271 158.472 353.228 159.123L354.207 166.932C355.511 168.885 356.49 168.885 357.142 166.932L355.185 158.146L357.142 152.289L359.099 151.313L358.121 153.266V167.908L359.099 169.861H360.078L359.099 160.099H360.078C359.425 162.702 360.078 163.678 362.035 163.027L361.056 159.123L363.013 154.242H363.991L363.013 159.123V164.98L364.97 168.885L367.905 170.837L365.948 166.932C365.296 160.424 365.948 155.543 367.905 152.289C369.862 147.734 373.45 144.805 378.669 143.504L379.647 141.551L372.798 142.527L367.905 146.432L368.884 144.48C368.231 142.527 368.884 141.877 370.841 142.527L371.819 140.575L367.905 141.551L365.948 140.575L363.013 142.527L362.035 140.575L360.078 141.551L358.121 140.575L349.314 144.48L351.271 141.551L350.293 140.575ZM137.965 141.551V143.504H144.814V142.527H143.835L137.965 141.551ZM178.082 141.551L164.383 145.456L165.362 147.408L169.276 145.456H181.017L193.737 149.361L196.673 153.266V151.313L193.737 146.432L196.673 148.385H197.651C193.085 143.829 186.562 141.551 178.082 141.551ZM220.156 141.551L221.135 143.504C221.787 141.551 221.461 140.9 220.156 141.551ZM279.843 141.551V142.527H281.8L279.843 141.551ZM390.41 141.551L387.475 143.504H385.518L377.69 153.266C375.733 164.329 378.016 171.488 384.539 174.742H385.518L379.647 167.908C378.342 160.099 379.321 154.567 382.582 151.313C381.93 149.361 382.582 148.71 384.539 149.361L382.582 163.027L384.539 167.908L386.496 168.885L385.518 163.027C384.866 153.916 386.496 147.408 390.41 143.504V141.551ZM427.592 142.527C427.592 145.781 428.897 148.059 431.506 149.361H436.398C434.441 148.71 433.463 147.083 433.463 144.48C432.811 142.527 430.854 141.877 427.592 142.527ZM139.921 144.48V146.432L142.857 147.408V146.432L139.921 144.48ZM136.986 145.456V147.408L141.878 150.337V148.385L138.943 147.408C139.595 145.456 138.943 144.805 136.986 145.456ZM399.216 145.456L396.281 149.361L398.238 156.194L402.152 158.146L405.087 159.123L406.066 158.146L400.195 155.218L402.152 154.242L399.216 145.456ZM201.565 146.432L200.587 148.385H201.565V146.432ZM204.501 146.432L205.479 148.385C206.131 146.432 205.805 145.781 204.501 146.432ZM282.778 146.432L281.8 154.242L284.735 155.218L282.778 146.432ZM391.389 146.432L388.453 152.289L389.432 154.242L391.389 151.313L393.346 161.075L397.259 162.051L396.281 164.004L402.152 166.932L409.001 168.885V167.908L404.109 164.98C401.5 165.631 400.521 165.305 401.173 164.004L396.281 160.099L391.389 146.432ZM373.776 147.408L369.862 158.146L371.819 164.98C373.776 163.678 374.102 160.75 372.798 156.194L375.733 149.361C376.385 147.408 375.733 146.758 373.776 147.408ZM174.168 148.385L167.319 151.313L165.362 154.242C166.014 151.639 168.623 150.662 173.189 151.313H175.146L176.125 152.289L170.254 157.17C170.906 158.472 170.254 158.797 168.297 158.146L167.319 161.075L168.297 162.051L174.168 157.17L175.146 158.146L171.233 163.027L184.931 156.194L193.737 154.242C189.171 149.686 182.648 147.734 174.168 148.385ZM137.965 149.361L136.986 153.266C140.248 154.567 141.552 154.242 140.9 152.289L137.965 149.361ZM287.671 149.361V152.289L289.628 151.313C290.28 149.361 289.628 148.71 287.671 149.361ZM412.915 149.361L411.937 151.313L413.894 150.337L412.915 149.361ZM222.113 151.313L220.156 153.266C220.808 154.567 220.482 154.892 219.178 154.242H217.221L214.285 153.266C211.024 154.567 210.371 155.869 212.328 157.17L210.371 163.027L215.264 175.718L220.156 179.623L228.962 184.504L236.79 183.528L231.898 180.599V178.647L224.07 167.908L221.135 156.194L222.113 154.242V151.313ZM434.441 152.289L433.463 153.266C430.201 152.615 429.223 153.591 430.528 156.194L434.441 155.218V152.289ZM159.491 153.266L158.512 157.17L159.491 159.123L160.469 156.194L164.383 155.218L163.405 154.242L161.448 155.218C162.1 153.266 161.448 152.615 159.491 153.266ZM404.109 153.266C403.456 155.218 404.109 155.869 406.066 155.218C406.718 153.266 406.066 152.615 404.109 153.266ZM421.721 153.266V157.17L425.635 155.218L428.571 156.194C429.875 156.845 430.201 155.869 429.549 153.266L427.592 154.242L421.721 153.266ZM136.008 154.242V156.194L138.943 157.17H136.008C135.355 159.773 137.638 160.424 142.857 159.123L143.835 160.099C144.488 157.496 143.183 156.845 139.921 158.146V156.194H143.835C143.183 154.242 142.531 153.916 141.878 155.218L136.008 154.242ZM157.534 154.242L156.555 156.194H157.534V154.242ZM204.501 155.218L196.673 160.099C197.977 164.654 197.325 166.607 194.716 165.956L195.694 163.027V160.099L192.759 164.004C193.411 165.305 192.759 165.631 190.802 164.98L189.823 168.885L190.802 174.742L189.823 176.694L192.759 185.48L198.63 190.361L192.759 180.599V173.766L194.716 172.789L196.673 183.528L199.608 185.48L200.587 183.528L210.371 191.337H211.35L209.393 189.385L200.587 179.623V173.766L202.544 172.789V171.813H203.522L202.544 177.67L204.501 180.599C205.805 179.948 206.131 180.924 205.479 183.528L207.436 184.504L205.479 177.67L206.458 174.742L207.436 177.67L209.393 178.647L205.479 165.956V156.194L204.501 155.218ZM278.864 155.218L276.907 157.17L280.821 158.146C282.126 158.797 282.452 158.472 281.8 157.17L278.864 155.218ZM311.154 155.218L310.176 162.051H311.154V155.218ZM156.555 156.194C155.251 160.75 155.577 164.654 157.534 167.908H158.512C159.165 162.702 158.512 158.797 156.555 156.194ZM187.867 159.123L182.974 162.051L176.125 169.861V177.67L175.146 178.647L177.103 185.48H178.082L177.103 181.575L179.06 170.837L180.039 181.575L182.974 188.409L184.931 189.385L181.996 181.575C180.691 173.115 181.67 166.932 184.931 163.027L188.845 160.099L187.867 159.123ZM191.78 159.123L183.953 168.885V180.599L188.845 193.29L190.802 194.266L186.888 183.528L187.867 179.623L186.888 176.694L187.867 168.885L191.78 161.075V159.123ZM419.764 159.123C417.807 159.773 417.155 161.4 417.807 164.004L421.721 162.051L422.7 164.98C425.961 166.281 426.94 165.305 425.635 162.051H427.592L419.764 159.123ZM136.008 160.099L136.986 162.051H140.9L136.008 160.099ZM161.448 161.075V163.027V164.004L163.405 163.027C164.057 161.075 163.405 160.424 161.448 161.075ZM261.252 161.075L260.273 164.98L262.23 164.004L261.252 161.075ZM431.506 161.075L429.549 163.027C426.94 162.377 425.961 163.027 426.614 164.98L429.549 164.004C430.854 163.353 431.18 164.004 430.528 165.956L432.484 164.98C433.137 161.726 432.811 160.424 431.506 161.075ZM142.857 162.051L138.943 163.027V164.004C142.205 164.654 144.161 164.329 144.814 163.027L142.857 162.051ZM135.029 163.027V164.98H137.965L135.029 163.027ZM251.467 164.004V167.908H253.424L251.467 164.004ZM263.209 164.004L262.23 165.956H263.209V164.004ZM348.336 164.004L347.357 167.908H348.336V164.004ZM170.254 164.98L168.297 167.908L171.233 165.956L170.254 164.98ZM176.125 164.98L172.211 170.837L173.189 179.623C173.189 174.416 174.168 170.186 176.125 166.932V164.98ZM140.9 165.956L135.029 166.932L136.008 168.885L136.986 167.908H143.835C144.488 165.956 143.509 165.305 140.9 165.956ZM398.238 166.932L399.216 168.885H400.195L398.238 166.932ZM171.233 167.908L168.297 170.837L167.319 174.742V182.551L168.297 183.528C166.992 186.131 167.645 187.107 170.254 186.456L169.276 185.48C167.971 178.321 168.623 173.115 171.233 169.861V167.908ZM417.807 167.908C415.85 171.813 416.177 173.766 418.786 173.766L420.743 169.861L417.807 167.908ZM273.972 168.885L272.994 172.789H264.187L263.209 174.742L272.015 173.766C272.667 175.718 272.341 176.369 271.037 175.718V177.67C269.08 177.02 268.427 177.67 269.08 179.623L267.123 180.599L265.166 179.623C262.557 178.972 261.904 180.274 263.209 183.528L261.252 184.504L268.101 185.48H264.187L263.209 188.409C264.513 189.71 266.797 190.361 270.058 190.361H266.144V191.337H272.994V190.361H271.037L272.994 174.742L274.951 173.766L272.994 185.48L273.972 189.385L274.951 188.409L276.907 175.718L275.929 171.813C276.581 169.21 275.929 168.234 273.972 168.885ZM309.197 168.885V169.861H310.176L309.197 168.885ZM387.475 168.885V169.861H388.453L387.475 168.885ZM135.029 169.861V172.789L143.835 170.837V169.861L138.943 170.837L135.029 169.861ZM247.553 169.861L250.489 172.789V170.837L247.553 169.861ZM358.121 169.861L357.142 171.813H358.121V169.861ZM361.056 169.861L360.078 171.813H361.056V169.861ZM422.7 169.861C422.047 171.162 422.7 171.488 424.657 170.837C425.961 171.488 425.961 172.464 424.657 173.766C424.004 175.067 424.657 175.393 426.614 174.742L428.571 171.813C429.223 169.861 427.266 169.21 422.7 169.861ZM287.671 171.813L286.692 173.766L292.563 176.694H293.541L287.671 171.813ZM366.927 171.813V175.718C368.231 177.67 370.841 178.321 374.755 177.67L375.733 175.718L373.776 176.694L366.927 171.813ZM421.721 171.813L419.764 173.766C419.112 175.718 420.417 176.043 423.678 174.742L424.657 172.789L421.721 171.813ZM294.52 172.789C293.215 175.393 294.194 177.02 297.455 177.67H305.283L302.348 175.718L300.391 176.694L294.52 172.789ZM136.008 173.766L138.943 176.694V175.718L136.008 173.766ZM139.921 173.766C139.269 175.718 140.248 176.369 142.857 175.718C143.509 173.766 142.531 173.115 139.921 173.766ZM242.661 173.766C241.356 175.718 241.682 176.369 243.639 175.718L242.661 173.766ZM163.405 174.742C161.448 179.297 161.448 182.877 163.405 185.48H164.383L163.405 174.742ZM259.295 174.742L257.338 179.623L255.381 200.123V201.099H270.058V199.147H272.015L272.994 195.242L270.058 196.218L261.252 195.242L258.317 193.29L259.295 180.599L261.252 175.718L259.295 174.742ZM307.24 174.742L306.262 177.67L310.176 178.647L308.219 176.694C308.871 174.742 308.545 174.091 307.24 174.742ZM310.176 174.742V176.694L315.068 179.623C317.025 180.274 317.677 179.623 317.025 177.67L310.176 174.742ZM397.259 174.742C393.998 178.647 388.779 179.948 381.604 178.647L374.755 183.528L368.884 185.48L365.948 184.504L360.078 185.48L354.207 184.504C348.336 184.504 343.77 185.48 340.508 187.432L329.745 186.456H327.788H318.003L310.176 184.504H296.477L294.52 183.528L290.606 181.575L358.121 267.481C357.468 268.782 358.121 269.108 360.078 268.457L364.97 259.671L387.475 231.361L396.281 217.694L404.109 199.147L407.044 176.694L397.259 174.742ZM325.831 175.718V179.623L328.766 180.599C330.723 181.25 331.376 180.599 330.723 178.647C328.114 179.297 326.483 178.321 325.831 175.718ZM336.594 175.718L339.53 179.623L341.487 178.647L344.422 180.599L346.379 179.623L336.594 175.718ZM330.723 176.694V177.67C332.028 177.02 332.354 177.67 331.702 179.623L334.637 180.599H337.573L330.723 176.694ZM359.099 176.694L357.142 178.647L360.078 179.623H370.841L359.099 176.694ZM135.029 177.67V179.623L137.965 180.599C139.921 181.25 141.226 180.924 141.878 179.623L135.029 177.67ZM211.35 177.67L210.371 179.623L213.307 181.575L211.35 177.67ZM353.228 177.67L348.336 178.647L349.314 180.599L357.142 179.623C356.49 177.67 355.185 177.02 353.228 177.67ZM410.958 178.647V180.599L412.915 179.623L410.958 178.647ZM255.381 179.623L253.424 182.551L251.467 195.242C250.163 199.147 250.815 200.774 253.424 200.123L255.381 187.432V179.623ZM413.894 179.623V180.599H414.872L413.894 179.623ZM418.786 179.623L415.85 192.313L409.98 205.98H409.001L412.915 194.266C413.567 191.663 412.915 190.686 410.958 191.337L407.044 207.933H409.001L408.023 209.885L407.044 208.909C403.783 210.21 402.478 213.464 403.13 218.671L398.238 226.48L369.862 261.623L370.841 262.6L381.604 248.933L387.475 244.052L409.001 213.79C414.22 205.329 417.807 195.567 419.764 184.504L418.786 179.623ZM135.029 181.575C134.377 183.528 135.029 184.178 136.986 183.528C137.638 181.575 136.986 180.924 135.029 181.575ZM140.9 181.575V182.551H141.878L140.9 181.575ZM215.264 181.575L214.285 183.528L223.092 187.432V188.409H219.178L213.307 184.504L211.35 185.48C213.307 188.734 217.221 190.361 223.092 190.361L225.048 187.432H227.005L228.962 186.456V185.48L224.07 186.456L215.264 181.575ZM411.937 181.575L409.98 183.528H412.915L411.937 181.575ZM137.965 183.528V184.504H139.921L137.965 183.528ZM249.51 183.528L247.553 184.504L240.704 195.242C239.399 197.194 236.79 197.52 232.876 196.218L227.984 200.123L228.962 201.099L232.876 198.171H241.682L242.661 199.147C245.923 199.798 248.206 199.147 249.51 197.194V193.29L246.575 195.242C244.618 194.591 243.966 195.242 244.618 197.194H241.682L243.639 196.218L241.682 195.242C242.335 193.29 243.313 192.964 244.618 194.266L248.532 193.29L250.489 190.361V188.409L248.532 191.337L246.575 192.313L245.596 189.385L249.51 188.409L247.553 186.456L250.489 185.48C251.141 183.528 250.815 182.877 249.51 183.528ZM410.958 184.504L411.937 190.361V189.385L412.915 186.456C413.567 184.504 412.915 183.853 410.958 184.504ZM165.362 185.48L164.383 187.432H165.362V185.48ZM178.082 187.432V188.409H179.06L178.082 187.432ZM201.565 187.432C200.261 189.385 200.913 190.686 203.522 191.337H205.479L201.565 187.432ZM173.189 192.313L174.168 198.171L176.125 199.147L173.189 192.313ZM182.974 192.313V193.29H183.953L182.974 192.313ZM214.285 192.313L210.371 195.242L207.436 199.147L217.221 193.29L214.285 192.313ZM266.144 192.313L267.123 194.266L270.058 193.29L266.144 192.313ZM185.91 197.194C184.605 199.147 184.931 199.798 186.888 199.147L185.91 197.194ZM217.221 203.052C216.568 205.004 217.873 205.655 221.135 205.004V205.98C218.525 205.329 217.547 205.98 218.199 207.933L220.156 206.956L226.027 209.885H227.005L226.027 205.004L217.221 203.052ZM215.264 205.004V207.933C217.221 208.583 217.873 208.258 217.221 206.956L215.264 205.004ZM231.898 205.004V206.956L230.919 215.742L232.876 214.766V216.718L247.553 218.671L248.532 207.933L244.618 205.004L240.704 209.885L241.682 212.813L238.747 213.79V212.813C239.399 208.258 239.073 205.655 237.769 205.004L234.833 211.837C235.486 213.139 234.833 213.464 232.876 212.813L233.855 207.933V205.98L231.898 205.004ZM254.403 206.956C253.75 208.909 254.729 209.56 257.338 208.909C257.99 206.956 257.012 206.306 254.403 206.956ZM261.252 207.933V208.909L264.187 210.861C265.492 208.258 264.513 207.282 261.252 207.933ZM170.254 208.909L169.276 210.861H170.254V208.909ZM211.35 208.909L209.393 210.861L225.048 215.742H226.027L211.35 208.909ZM254.403 209.885V210.861H255.381L254.403 209.885ZM257.338 210.861V211.837H259.295L257.338 210.861ZM223.092 211.837V212.813H226.027L223.092 211.837ZM255.381 211.837C253.424 213.139 252.772 215.417 253.424 218.671L260.273 216.718C261.578 213.464 259.947 212.488 255.381 213.79V211.837ZM66.5361 213.79L61.6437 214.766L54.7944 218.671L40.1173 233.314L37.1819 239.171L29.3541 246.004H32.2896C36.8558 243.401 39.7912 239.496 41.0958 234.29L54.7944 220.623L58.7083 218.671H59.6868L46.9666 230.385L47.9451 231.361L62.6222 218.671L72.4069 215.742L84.1486 216.718L92.9548 222.575L99.8041 229.409L96.8687 224.528C93.6071 219.972 89.6932 216.718 85.127 214.766C79.9085 213.464 73.7115 213.139 66.5361 213.79ZM199.608 215.742L201.565 219.647L203.522 218.671L199.608 215.742ZM177.103 217.694L176.125 220.623H177.103V217.694ZM69.4715 218.671L55.7729 226.48L43.0528 240.147L44.0312 241.123L45.9882 238.195C51.859 229.734 60.0129 223.877 70.45 220.623C78.2777 219.972 84.4747 221.599 89.0409 225.504H90.0194C86.1055 220.298 79.2562 218.02 69.4715 218.671ZM153.62 218.671V219.647H154.599L153.62 218.671ZM204.501 218.671V219.647H205.479L204.501 218.671ZM200.587 219.647L199.608 221.599L202.544 222.575L200.587 219.647ZM206.458 219.647V220.623H207.436L206.458 219.647ZM209.393 219.647L207.436 221.599H210.371L209.393 219.647ZM157.534 220.623L155.577 223.552L157.534 222.575V220.623ZM178.082 220.623L177.103 222.575H178.082V220.623ZM181.996 220.623V225.504C181.343 226.806 181.996 227.131 183.953 226.48L185.91 231.361H186.888L181.996 220.623ZM213.307 220.623C213.959 223.226 216.242 225.179 220.156 226.48L231.898 228.433L233.855 230.385C242.335 231.036 249.184 229.734 254.403 226.48L255.381 228.433V225.504L247.553 227.456H233.855C231.245 225.504 227.984 224.853 224.07 225.504L213.307 220.623ZM194.716 221.599V225.504L201.565 233.314L196.673 230.385L209.393 245.028L207.436 246.004L220.156 264.552V265.528L215.264 259.671C215.916 257.719 215.264 257.068 213.307 257.719L196.673 235.266L187.867 227.456L198.63 243.076L199.608 244.052L188.845 233.314L186.888 232.337L189.823 238.195C189.171 239.496 189.823 239.822 191.78 239.171L202.544 254.79V255.766L198.63 250.885L195.694 249.909C189.171 246.655 184.931 241.449 182.974 234.29L181.017 233.314L181.996 240.147L184.931 246.98L204.501 273.338L207.436 276.266L197.651 264.552L194.716 263.576L192.759 261.623L188.845 257.719L179.06 246.98L177.103 242.099L174.168 240.147L184.931 261.623V262.6L176.125 250.885L171.233 238.195V233.314L169.276 228.433H168.297L170.254 242.099L174.168 249.909V250.885L166.34 240.147V231.361L165.362 230.385L166.34 226.48L164.383 227.456V234.29L162.426 235.266L163.405 233.314C164.057 231.361 163.731 230.71 162.426 231.361L158.512 236.242L159.491 240.147V241.123L157.534 238.195H156.555L158.512 252.838L163.405 261.623C162.752 263.576 163.405 264.227 165.362 263.576L166.34 266.504H165.362C166.014 264.552 165.688 263.901 164.383 264.552C159.817 259.996 156.229 254.465 153.62 247.957V239.171L157.534 231.361V227.456L155.577 233.314L154.599 231.361L151.663 241.123V251.861L157.534 266.504H156.555L151.663 260.647L149.706 252.838V240.147L150.685 239.171V236.242L146.771 243.076V259.671L147.749 260.647V261.623L144.814 256.742C143.509 246.33 144.814 238.845 148.728 234.29V232.337L143.835 240.147L142.857 237.218L139.921 246.98L138.943 239.171L132.094 251.861H131.115L136.986 238.195V234.29C132.42 238.845 129.811 245.028 129.158 252.838H128.18V244.052L129.158 243.076V241.123C125.244 245.028 123.287 250.56 123.287 257.719L121.33 253.814L123.287 246.004L130.137 235.266V233.314C124.266 237.869 120.678 244.052 119.374 251.861L116.438 250.885L117.417 254.79L115.46 255.766V249.909L118.395 243.076L131.115 229.409L130.137 228.433L115.46 244.052C112.85 246.004 111.872 249.909 112.524 255.766H114.481C115.133 257.068 114.481 257.393 112.524 256.742L113.503 259.671V257.719L115.46 258.695L113.503 262.6H114.481C113.829 260.647 114.481 259.996 116.438 260.647H117.417L112.524 266.504L113.503 269.433C114.155 270.735 113.829 271.06 112.524 270.409V272.361L111.546 274.314L112.524 291.885L114.481 296.766L115.46 290.909L114.481 285.052L116.438 269.433V288.957L117.417 289.933L115.46 292.862L117.417 294.814C117.417 299.37 118.721 303.274 121.33 306.528L126.223 309.457L121.33 302.624L117.417 286.028L118.395 281.147L121.33 297.743L132.094 314.338L140.9 321.171V320.195L138.943 318.243L126.223 303.6L122.309 292.862C123.614 288.957 123.287 286.679 121.33 286.028L122.309 275.29L128.18 300.671C132.094 307.83 137.312 314.013 143.835 319.219H144.814C138.943 314.663 134.377 308.806 131.115 301.647L127.201 284.076C126.549 276.266 126.875 270.084 128.18 265.528L130.137 264.552L129.158 268.457C127.854 276.917 128.18 284.076 130.137 289.933L133.072 299.695L139.921 311.409L146.771 317.267L136.008 302.624L132.094 288.957L133.072 279.195C134.377 281.147 134.703 284.727 134.051 289.933L138.943 303.6L142.857 306.528L137.965 294.814V285.052L136.986 284.076V271.385L138.943 268.457V271.385V273.338L137.965 275.29L139.921 294.814L145.792 306.528L147.749 307.505L141.878 295.79L140.9 290.909V263.576C143.509 262.925 144.161 264.552 142.857 268.457L141.878 271.385L142.857 283.1V285.052L146.771 300.671L148.728 301.647L144.814 287.004L145.792 266.504L147.749 265.528C149.054 268.782 148.728 271.06 146.771 272.361V281.147L149.706 292.862H150.685L148.728 282.123C148.075 276.917 148.728 273.338 150.685 271.385L152.642 270.409L149.706 280.171L151.663 285.052L152.642 278.219L158.512 273.338L153.62 286.028L154.599 289.933L155.577 284.076L161.448 279.195L163.405 280.171L161.448 281.147L156.555 287.981L155.577 292.862L157.534 298.719C156.882 292.211 158.186 287.33 161.448 284.076L168.297 281.147V284.076L166.34 285.052L159.491 293.838L160.469 295.79L163.405 294.814L166.34 288.957L173.189 286.028H174.168C173.516 289.933 171.559 292.862 168.297 294.814L163.405 306.528V316.29H161.448L163.405 303.6V296.766L160.469 302.624V318.243L166.34 330.933L183.953 343.624C189.171 346.878 195.694 349.156 203.522 350.457L202.544 349.481C203.196 347.529 202.87 346.878 201.565 347.529L199.608 348.505C200.261 345.902 199.934 344.925 198.63 345.576V347.529L185.91 342.648C178.082 338.743 173.516 331.909 172.211 322.148L174.168 313.362L180.039 304.576H178.082L179.06 302.624L174.168 306.528L175.146 308.481L172.211 313.362C173.516 317.267 173.189 319.87 171.233 321.171L175.146 333.862V334.838L172.211 328.981L171.233 331.909C167.971 328.656 165.688 324.751 164.383 320.195V311.409L168.297 299.695L177.103 290.909H179.06H180.039C173.516 294.814 169.276 301.322 167.319 310.433V319.219H169.276C168.623 313.362 169.602 308.806 172.211 305.552L179.06 299.695H181.996L180.039 303.6H181.996L179.06 307.505L180.039 310.433H179.06L175.146 318.243L176.125 322.148L178.082 315.314L185.91 308.481C182.648 311.084 180.365 314.989 179.06 320.195L184.931 315.314L185.91 316.29L179.06 326.052L181.017 328.005L181.996 323.124C183.953 318.568 188.193 315.965 194.716 315.314C199.282 314.663 202.544 315.64 204.501 318.243H205.479L202.544 314.338L194.716 312.386C191.454 311.735 189.497 312.386 188.845 314.338H186.888L191.78 310.433H199.608L200.587 311.409H201.565C200.261 307.505 197.325 305.552 192.759 305.552L191.78 303.6L199.608 305.552L205.479 311.409L202.544 306.528L200.587 304.576L198.63 302.624L194.716 299.695V298.719L199.608 299.695L198.63 298.719C199.282 296.766 198.63 296.116 196.673 296.766L197.651 294.814C200.261 297.417 202.217 300.997 203.522 305.552L205.479 306.528L200.587 293.838L193.737 286.028C194.39 284.076 193.737 283.425 191.78 284.076L189.823 281.147L192.759 283.1H193.737C193.085 284.401 193.737 284.727 195.694 284.076C200.913 288.631 204.501 295.139 206.458 303.6H207.436L206.458 295.79L198.63 283.1L202.544 285.052C203.848 284.401 204.174 285.052 203.522 287.004L206.458 287.981L209.393 297.743H210.371C209.067 287.33 205.805 279.52 200.587 274.314L202.544 273.338L212.328 287.981L213.307 285.052L217.221 297.743V309.457H219.178L218.199 307.505L217.221 288.957L212.328 274.314L213.307 272.361L219.178 287.981L221.135 298.719C222.439 305.878 221.787 311.409 219.178 315.314H221.135L223.092 308.481V293.838L217.221 274.314L218.199 271.385L221.135 279.195L225.048 298.719H226.027V291.885L223.092 283.1L224.07 280.171L227.005 291.885V303.6L226.027 304.576L227.005 306.528L228.962 300.671V286.028L226.027 274.314L227.984 273.338L230.919 286.028C232.224 298.393 230.593 308.155 226.027 315.314H227.984L232.876 303.6L234.833 290.909L231.898 273.338L226.027 260.647L194.716 221.599ZM211.35 221.599L212.328 223.552C212.981 221.599 212.655 220.948 211.35 221.599ZM179.06 222.575V230.385H180.039L179.06 222.575ZM142.857 223.552L140.9 224.528V225.504L143.835 224.528L142.857 223.552ZM205.479 223.552V224.528H206.458L205.479 223.552ZM153.62 225.504L148.728 231.361L149.706 232.337L153.62 227.456V225.504ZM172.211 225.504L173.189 228.433L172.211 230.385L174.168 234.29L177.103 236.242L174.168 228.433C174.82 225.829 174.168 224.853 172.211 225.504ZM202.544 225.504V226.48H203.522L202.544 225.504ZM209.393 225.504L211.35 227.456H213.307L209.393 225.504ZM133.072 226.48V227.456H134.051L133.072 226.48ZM204.501 226.48V227.456L221.135 240.147L223.092 244.052L220.156 241.123L219.178 242.099L218.199 241.123L205.479 229.409L203.522 230.385C216.568 242.099 227.005 256.417 234.833 273.338C238.095 279.846 239.073 288.631 237.769 299.695L236.79 302.624L237.769 306.528L239.726 299.695V293.838L242.661 284.076V279.195V277.242L243.639 271.385H244.618V284.076L243.639 285.052L244.618 287.004L242.661 298.719L237.769 310.433L238.747 311.409L245.596 296.766L247.553 287.981L248.532 272.361H249.51V284.076L247.553 294.814L242.661 305.552L243.639 306.528L246.575 302.624L251.467 286.028L256.36 275.29C257.012 273.338 256.686 272.687 255.381 273.338L253.424 274.314L256.36 263.576V258.695L258.317 254.79V247.957L252.446 269.433L250.489 268.457C252.446 265.203 253.098 260.647 252.446 254.79L255.381 247.957V246.004L244.618 268.457L241.682 269.433L239.726 270.409L242.661 266.504L244.618 258.695L245.596 256.742L236.79 260.647H234.833L247.553 253.814L251.467 248.933L237.769 256.742H230.919L247.553 248.933L249.51 245.028L254.403 242.099V240.147L240.704 246.98L232.876 245.028V244.052L236.79 245.028C242.661 244.377 247.553 242.75 251.467 240.147V239.171L245.596 240.147H243.639L242.661 241.123H229.941L228.962 239.171L230.919 240.147H237.769L251.467 235.266L252.446 233.314L244.618 236.242L243.639 234.29L249.51 233.314L250.489 231.361L246.575 233.314H238.747L229.941 229.409L226.027 230.385L221.135 228.433L216.242 229.409L221.135 231.361H217.221V233.314C213.959 229.409 209.719 227.131 204.501 226.48ZM69.4715 227.456L68.493 229.409L71.4284 228.433L69.4715 227.456ZM122.309 227.456V228.433H123.287L122.309 227.456ZM214.285 227.456V228.433H215.264L214.285 227.456ZM256.36 228.433L255.381 230.385L253.424 233.314L256.36 232.337V228.433ZM66.5361 229.409L64.5791 230.385L62.6222 233.314L67.5145 230.385L66.5361 229.409ZM136.008 229.409L134.051 233.314L135.029 234.29L137.965 230.385L136.008 229.409ZM181.017 230.385L180.039 232.337H181.017V230.385ZM113.503 232.337L108.61 238.195L113.503 234.29V232.337ZM257.338 233.314L255.381 235.266H257.338V233.314ZM61.6437 234.29C56.4252 239.496 52.5113 246.33 49.9021 254.79L50.8805 255.766C53.4898 247.306 57.4037 240.472 62.6222 235.266L61.6437 234.29ZM51.859 235.266L46.9666 241.123L39.1389 258.695L40.1173 259.671L47.9451 242.099L51.859 237.218V235.266ZM143.835 235.266L142.857 237.218H143.835V235.266ZM174.168 235.266L173.189 237.218H174.168V235.266ZM101.761 236.242L98.8256 240.147L102.74 237.218L101.761 236.242ZM132.094 236.242L129.158 241.123L132.094 239.171V236.242ZM254.403 236.242L252.446 239.171L255.381 237.218L254.403 236.242ZM107.632 239.171L97.8472 254.79C98.4995 258.044 97.521 260.322 94.9117 261.623V265.528L92.9548 266.504C94.2594 256.092 97.8472 248.282 103.718 243.076V241.123L98.8256 246.004L90.0194 261.623H91.9763C92.6286 264.227 91.9763 265.203 90.0194 264.552V272.361L88.0624 280.171V291.885V293.838L90.0194 305.552V311.409L88.0624 303.6H87.084V308.481L90.9979 320.195V324.1L92.9548 327.029C93.6071 328.981 92.9548 329.632 90.9979 328.981L92.9548 333.862L91.9763 332.886L90.9979 338.743L92.9548 339.719L90.9979 342.648L83.1701 332.886C83.8224 330.933 83.1701 330.282 81.2131 330.933L80.2347 326.052V324.1L77.2993 313.362H76.3208L78.2777 321.171V327.029L80.2347 330.933L79.2562 332.886L81.2131 331.909C83.8224 333.211 85.127 336.14 85.127 340.695L94.9117 347.529C98.8256 348.179 101.761 347.529 103.718 345.576L109.589 331.909L108.61 317.267L105.675 311.409L106.653 303.6L109.589 315.314L111.546 314.338L107.632 303.6V295.79L106.653 294.814C107.306 292.862 106.653 292.211 104.696 292.862L105.675 290.909L104.696 288.957V272.361L105.675 271.385C105.023 266.83 105.675 264.877 107.632 265.528L106.653 267.481L108.61 268.457L107.632 263.576L112.524 246.004V243.076L106.653 253.814L108.61 254.79L107.632 256.742L105.675 253.814L106.653 251.861V248.933L102.74 256.742L101.761 266.504L98.8256 262.6C100.13 254.139 103.066 247.306 107.632 242.099V239.171ZM98.8256 240.147L96.8687 243.076L98.8256 242.099V240.147ZM114.481 241.123L113.503 243.076H114.481V241.123ZM96.8687 243.076L85.127 260.647L87.084 263.576L92.9548 249.909L96.8687 245.028V243.076ZM258.317 244.052L257.338 246.98H258.317V244.052ZM65.5576 245.028L61.6437 250.885C59.6868 259.996 56.7514 268.131 52.8375 275.29L46.9666 281.147L29.3541 290.909V291.885L35.225 289.933L47.9451 282.123L55.7729 273.338L65.5576 246.98V245.028ZM90.9979 245.028L90.0194 246.98H90.9979V245.028ZM107.632 245.028L106.653 247.957H107.632V245.028ZM90.0194 246.98L80.2347 261.623L82.1916 265.528C83.4962 259.02 86.1055 253.488 90.0194 248.933V246.98ZM259.295 250.885L260.273 254.79L261.252 251.861L259.295 250.885ZM259.295 255.766L258.317 257.719H259.295V255.766ZM264.187 256.742L262.23 258.695C260.926 262.6 261.578 264.227 264.187 263.576L263.209 260.647L264.187 258.695V256.742ZM50.8805 257.719C49.5759 262.274 47.2928 265.854 44.0312 268.457C43.3789 269.758 44.0312 270.084 45.9882 269.433L50.8805 261.623V257.719ZM258.317 259.671L257.338 277.242L254.403 284.076V288.957L252.446 291.885L253.424 293.838L257.338 287.004C256.686 285.052 257.338 284.401 259.295 285.052L261.252 281.147L262.23 275.29L261.252 261.623L260.273 275.29C258.317 274.639 257.99 273.988 259.295 273.338L258.317 272.361V262.6C259.621 261.298 259.621 260.322 258.317 259.671ZM53.8159 260.647C53.1636 265.203 51.2067 268.782 47.9451 271.385H49.9021L55.7729 262.6C56.4252 260.647 55.7729 259.996 53.8159 260.647ZM30.3326 261.623V262.6H31.3111L30.3326 261.623ZM90.0194 261.623L87.084 265.528H89.0409L90.0194 263.576V261.623ZM369.862 262.6L363.991 271.385L364.97 273.338L369.862 264.552V262.6ZM86.1055 263.576L85.127 265.528H86.1055V263.576ZM79.2562 264.552L78.2777 266.504H79.2562V264.552ZM265.166 264.552L263.209 266.504C263.861 274.314 263.209 280.822 261.252 286.028L252.446 301.647L259.295 296.766L249.51 312.386L251.467 320.195L253.424 314.338V310.433L252.446 313.362L250.489 314.338L257.338 302.624C259.295 299.37 262.557 297.092 267.123 295.79L268.101 293.838L265.166 294.814H262.23L269.08 286.028V283.1L268.101 285.052L266.144 286.028L269.08 282.123L266.144 267.481H265.166C263.861 271.385 264.187 273.988 266.144 275.29V282.123L263.209 290.909L260.273 291.885L264.187 283.1V267.481L265.166 266.504V264.552ZM36.2035 265.528L34.2465 267.481H36.2035V265.528ZM81.2131 265.528L79.2562 269.433L80.2347 273.338H81.2131V265.528ZM85.127 266.504L80.2347 285.052L81.2131 291.885L85.127 270.409V266.504ZM88.0624 271.385L87.084 273.338H88.0624V271.385ZM87.084 273.338L84.1486 282.123V294.814L83.1701 295.79L84.1486 309.457L86.1055 310.433L85.127 308.481L86.1055 306.528L85.127 302.624L86.1055 299.695V281.147L87.084 280.171V273.338ZM41.0958 275.29L17.6125 289.933L13.6986 294.814L42.0743 276.266L41.0958 275.29ZM363.013 275.29L362.035 278.219L363.013 283.1C362.361 284.401 363.013 284.727 364.97 284.076V276.266L363.013 275.29ZM213.307 291.885L212.328 294.814H213.307V291.885ZM80.2347 292.862L79.2562 296.766H81.2131L80.2347 292.862ZM164.383 294.814L163.405 296.766H164.383V294.814ZM251.467 294.814L250.489 296.766H251.467V294.814ZM158.512 296.766V299.695L160.469 298.719C161.122 296.766 160.469 296.116 158.512 296.766ZM267.123 298.719C261.904 301.322 258.317 305.878 256.36 312.386L257.338 314.338L260.273 308.481C262.883 303.925 266.797 301.322 272.015 300.671L267.123 298.719ZM159.491 300.671L158.512 303.6H159.491V300.671ZM251.467 302.624L250.489 304.576H251.467V302.624ZM274.951 302.624L269.08 305.552L261.252 320.195C260.6 321.497 261.252 321.822 263.209 321.171C264.513 315.314 266.797 310.759 270.058 307.505L278.864 304.576C278.212 302.624 276.907 301.973 274.951 302.624ZM250.489 304.576L248.532 307.505L250.489 306.528V304.576ZM81.2131 305.552L80.2347 308.481H81.2131V305.552ZM278.864 305.552L273.972 307.505C270.058 310.759 267.123 315.314 265.166 321.171C264.513 322.473 265.166 322.798 267.123 322.148C266.47 318.243 267.775 315.64 271.037 314.338C272.994 311.084 276.255 308.806 280.821 307.505L283.757 308.481L279.843 310.433L272.015 320.195L272.994 323.124C274.298 318.568 277.234 314.989 281.8 312.386L283.757 314.338C279.843 316.29 277.56 319.87 276.907 325.076C275.603 325.727 275.929 326.378 277.886 327.029L281.8 319.219C283.757 316.616 286.692 314.989 290.606 314.338L292.563 313.362L279.843 324.1L280.821 326.052L282.778 323.124L286.692 320.195L285.714 322.148L286.692 324.1V323.124L292.563 318.243L293.541 319.219L291.585 320.195L289.628 323.124L291.585 322.148L292.563 326.052L293.541 322.148H295.498L300.391 317.267L302.348 318.243L299.412 320.195H301.369L300.391 322.148L301.369 325.076L304.305 319.219L310.176 315.314L311.154 316.29L307.24 318.243L304.305 322.148L305.283 323.124L306.262 320.195L310.176 319.219L311.154 320.195L306.262 326.052L307.24 328.005L311.154 322.148L315.068 320.195C316.372 319.544 316.699 320.195 316.046 322.148L310.176 327.029C310.828 328.33 310.176 328.656 308.219 328.005L309.197 334.838L311.154 335.814L310.176 332.886L312.132 327.029L316.046 324.1L314.089 328.981C316.046 329.632 316.699 328.981 316.046 327.029H317.025L316.046 334.838L315.068 335.814L318.982 338.743H320.939L317.025 335.814C316.372 333.862 317.351 333.211 319.96 333.862L318.982 330.933L321.917 332.886V331.909V329.957C323.222 329.306 323.548 329.957 322.896 331.909L328.766 330.933L327.788 324.1C324.526 322.798 323.222 320.521 323.874 317.267C319.308 314.013 312.785 312.386 304.305 312.386L289.628 306.528L278.864 305.552ZM74.3638 306.528V309.457H75.3423C75.9946 306.854 75.6685 305.878 74.3638 306.528ZM143.835 306.528C142.531 308.481 142.857 309.132 144.814 308.481L143.835 306.528ZM236.79 306.528L235.812 309.457H236.79V306.528ZM78.2777 307.505L77.2993 311.409L83.1701 327.029L85.127 328.005L78.2777 307.505ZM263.209 307.505V309.457L265.166 308.481L263.209 307.505ZM173.189 308.481L171.233 311.409L173.189 310.433V308.481ZM82.1916 309.457C82.1916 315.965 84.1486 321.822 88.0624 327.029L90.9979 328.981L82.1916 309.457ZM235.812 309.457L234.833 312.386H235.812V309.457ZM76.3208 310.433L75.3423 312.386H76.3208V310.433ZM234.833 312.386L233.855 314.338H234.833V312.386ZM233.855 314.338L232.876 316.29H233.855V314.338ZM111.546 315.314C109.589 318.568 109.915 319.87 112.524 319.219L111.546 315.314ZM272.015 316.29L271.037 318.243H272.015V316.29ZM192.759 317.267L183.953 324.1L184.931 327.029V326.052L189.823 322.148L191.78 323.124L189.823 324.1L185.91 329.957L187.867 333.862L189.823 328.005L194.716 325.076L195.694 326.052H194.716L189.823 333.862L190.802 335.814L197.651 326.052L199.608 327.029L193.737 332.886L191.78 339.719L194.716 341.671L193.737 339.719L194.716 334.838L196.673 333.862L195.694 335.814L196.673 336.79C197.325 333.536 199.282 332.235 202.544 332.886L198.63 338.743C197.977 341.346 198.63 342.322 200.587 341.671L204.501 335.814L205.479 336.79L203.522 338.743L202.544 344.6C201.891 346.552 202.87 347.203 205.479 346.552L204.501 345.576C203.848 342.973 204.827 341.997 207.436 342.648L206.458 344.6L207.436 346.552V345.576L212.328 341.671L216.242 342.648L211.35 343.624L207.436 347.529L208.414 348.505L212.328 345.576L211.35 347.529L212.328 352.41L213.307 347.529L217.221 344.6L218.199 345.576H217.221L214.285 350.457L213.307 356.314L214.285 362.172C217.547 361.521 219.504 362.497 220.156 365.1C219.504 366.402 220.482 366.727 223.092 366.076H224.07L220.156 370.957C221.461 372.91 224.07 373.561 227.984 372.91L233.855 366.076V363.148L232.876 365.1L227.005 369.005L225.048 369.981L227.984 368.029L234.833 359.243V352.41L228.962 343.624L221.135 336.79L208.414 323.124L198.63 317.267H192.759ZM271.037 318.243L269.08 322.148L271.037 321.171V318.243ZM110.567 320.195L111.546 325.076L110.567 328.981C109.915 330.282 110.567 330.608 112.524 329.957L113.503 326.052C114.807 320.846 113.829 318.894 110.567 320.195ZM298.434 321.171L297.455 323.124H298.434V321.171ZM133.072 322.148L135.029 325.076V324.1L133.072 322.148ZM136.008 325.076L140.9 329.957L155.577 333.862H158.512L146.771 328.005V329.957L136.008 325.076ZM148.728 326.052L151.663 328.981H152.642L148.728 326.052ZM86.1055 328.005L85.127 329.957L87.084 330.933L86.1055 328.005ZM248.532 328.981L242.661 330.933L248.532 331.909L249.51 329.957L257.338 332.886H266.144L267.123 333.862L269.08 332.886H282.778H284.735L287.671 331.909H289.628L292.563 330.933C293.215 332.235 293.868 332.235 294.52 330.933L286.692 328.981V330.933L283.757 329.957C276.581 328.656 271.363 329.306 268.101 331.909L260.273 330.933H258.317L248.532 328.981ZM88.0624 330.933L87.084 332.886H88.0624V330.933ZM90.9979 330.933L90.0194 332.886H90.9979V330.933ZM112.524 330.933L110.567 332.886L111.546 334.838L112.524 332.886V330.933ZM301.369 330.933V331.909H302.348L301.369 330.933ZM328.766 331.909L324.853 334.838L321.917 333.862L319.96 334.838L324.853 336.79C326.81 337.441 328.114 337.116 328.766 335.814L326.81 334.838L328.766 333.862V331.909ZM89.0409 332.886L88.0624 334.838H89.0409V332.886ZM82.1916 335.814L80.2347 337.767C77.6254 337.116 76.9731 338.743 78.2777 342.648L76.3208 343.624L73.3854 347.529L74.3638 349.481V351.433L77.2993 358.267L85.127 363.148H86.1055L83.1701 361.195L77.2993 354.362L78.2777 352.41L79.2562 356.314L86.1055 360.219V359.243L79.2562 353.386C79.9085 351.433 79.2562 350.783 77.2993 351.433L76.3208 348.505L77.2993 344.6L78.2777 347.529L81.2131 349.481L79.2562 345.576L80.2347 340.695L82.1916 349.481L85.127 353.386L93.9333 356.314L95.8902 355.338C91.9763 355.338 89.3671 354.362 88.0624 352.41C85.4532 350.457 83.8224 347.854 83.1701 344.6L84.1486 342.648L83.1701 339.719C83.8224 336.465 83.4962 335.163 82.1916 335.814ZM308.219 335.814C306.914 337.767 307.24 338.417 309.197 337.767L308.219 335.814ZM195.694 336.79V339.719C197.651 339.068 197.651 338.092 195.694 336.79ZM324.853 337.767L325.831 339.719C326.483 337.767 326.157 337.116 324.853 337.767ZM108.61 339.719V341.671L110.567 340.695L108.61 339.719ZM112.524 339.719L111.546 341.671H112.524V339.719ZM318.982 339.719L318.003 341.671L321.917 342.648L324.853 341.671L318.982 339.719ZM314.089 340.695V343.624L318.982 346.552L315.068 342.648C315.72 340.695 315.394 340.044 314.089 340.695ZM111.546 341.671L104.696 350.457H106.653L111.546 344.6V341.671ZM106.653 342.648V343.624H107.632L106.653 342.648ZM318.982 342.648L319.96 344.6H320.939L318.982 342.648ZM322.896 344.6V345.576H323.874L322.896 344.6ZM319.96 346.552V347.529H320.939L319.96 346.552ZM62.6222 347.529L60.6652 348.505L54.7944 356.314L55.7729 360.219L56.7514 357.291L58.7083 362.172V354.362C60.0129 355.013 61.3176 354.362 62.6222 352.41L65.5576 365.1L67.5145 366.076L65.5576 361.195L66.5361 358.267L68.493 365.1H69.4715L68.493 361.195H70.45L68.493 358.267V349.481L67.5145 348.505H65.5576L63.6007 349.481V348.505L62.6222 347.529ZM73.3854 348.505C72.0807 353.06 72.4069 356.64 74.3638 359.243L77.2993 361.195L73.3854 348.505ZM206.458 348.505L205.479 350.457H206.458V348.505ZM95.8902 349.481L92.9548 351.433L95.8902 352.41L96.8687 350.457L95.8902 349.481ZM318.982 349.481L319.96 352.41H321.917L318.982 349.481ZM102.74 350.457V351.433H104.696L102.74 350.457ZM71.4284 351.433L69.4715 355.338L71.4284 354.362V351.433ZM314.089 352.41L315.068 359.243L316.046 360.219L313.111 356.314L312.132 361.195L314.089 362.172H312.132L315.068 369.005L314.089 377.791L310.176 370.957L308.219 374.862L310.176 375.838L307.24 377.791L309.197 382.672C307.24 383.323 306.588 382.346 307.24 379.743H306.262V385.6L308.219 388.529L312.132 389.505L311.154 388.529C311.806 386.576 311.48 385.926 310.176 386.576L308.219 383.648L310.176 384.624C312.132 383.973 312.785 384.624 312.132 386.576L318.003 387.553L317.025 385.6C316.372 383.648 317.025 382.997 318.982 383.648C320.939 379.743 321.591 374.211 320.939 367.053V365.1L314.089 352.41ZM212.328 353.386L211.35 356.314H212.328V353.386ZM319.96 355.338L320.939 358.267C322.243 358.918 322.569 358.267 321.917 356.314L319.96 355.338ZM132.094 358.267L128.18 362.172L129.158 363.148L127.201 366.076H129.158L132.094 361.195V358.267ZM158.512 358.267L153.62 363.148H150.685L142.857 368.029H144.814V369.981L151.663 367.053L159.491 359.243H161.448L158.512 358.267ZM88.0624 359.243L89.0409 361.195C89.6932 359.243 89.3671 358.592 88.0624 359.243ZM63.6007 361.195C62.296 363.799 62.9483 366.076 65.5576 368.029H66.5361L63.6007 361.195ZM71.4284 361.195L70.45 363.148H71.4284V361.195ZM127.201 362.172V363.148H128.18L127.201 362.172ZM72.4069 363.148L71.4284 365.1H72.4069V363.148ZM96.8687 363.148L95.8902 365.1L100.783 364.124L96.8687 363.148ZM135.029 363.148V365.1L136.986 364.124L135.029 363.148ZM310.176 363.148L308.219 369.005L310.176 369.981V363.148ZM134.051 365.1V366.076H135.029L134.051 365.1ZM215.264 365.1V367.053L218.199 369.005L217.221 367.053C217.873 365.1 217.221 364.449 215.264 365.1ZM70.45 366.076L69.4715 368.029H70.45V366.076ZM127.201 366.076L116.438 374.862C115.786 376.164 116.438 376.489 118.395 375.838L119.374 373.886C121.33 370.632 123.94 368.68 127.201 368.029V366.076ZM132.094 366.076V367.053H133.072L132.094 366.076ZM312.132 366.076L311.154 371.934L313.111 372.91C313.763 369.005 313.437 366.727 312.132 366.076ZM129.158 367.053L126.223 369.005V370.957C125.571 372.259 126.223 372.584 128.18 371.934L127.201 370.957L131.115 368.029L129.158 367.053ZM141.878 368.029L139.921 369.005V369.981L142.857 369.005L141.878 368.029ZM57.7298 369.981L56.7514 374.862H57.7298V369.981ZM136.008 369.981L135.029 371.934L138.943 370.957L136.008 369.981ZM145.792 370.957L142.857 371.934L143.835 373.886L146.771 371.934L145.792 370.957ZM301.369 370.957L300.391 373.886L301.369 376.815L303.326 371.934L301.369 370.957ZM133.072 371.934V372.91H134.051L133.072 371.934ZM307.24 371.934L306.262 373.886H307.24V371.934ZM136.008 372.91L135.029 373.886C131.768 373.235 130.463 373.886 131.115 375.838C134.377 376.489 136.986 375.838 138.943 373.886L136.008 372.91ZM141.878 373.886L135.029 377.791C131.768 378.442 129.811 377.791 129.158 375.838C126.549 375.188 125.571 375.838 126.223 377.791C128.832 377.14 131.115 377.791 133.072 379.743L139.921 378.767L138.943 376.815L142.857 374.862L141.878 373.886ZM306.262 373.886L302.348 378.767L304.305 382.672C303.652 379.418 304.305 377.14 306.262 375.838V373.886ZM115.46 375.838C113.503 376.489 112.85 378.442 113.503 381.696L116.438 383.648L114.481 379.743L117.417 377.791L115.46 375.838ZM217.221 375.838V377.791L222.113 380.719H225.048L217.221 375.838ZM226.027 375.838L225.048 377.791H227.984L226.027 375.838ZM60.6652 376.815L61.6437 381.696H63.6007L62.6222 378.767L60.6652 376.815ZM213.307 377.791L212.328 385.6L214.285 391.457H216.242L215.264 389.505V387.553L216.242 379.743L217.221 381.696V378.767L213.307 377.791ZM55.7729 378.767L51.859 389.505C51.2067 395.362 51.859 400.243 53.8159 404.148L56.7514 406.1L53.8159 400.243C55.1206 395.688 54.7944 393.084 52.8375 392.434L55.7729 385.6V378.767ZM58.7083 378.767L57.7298 383.648L60.6652 387.553L63.6007 386.576L62.6222 385.6C59.3606 384.95 58.056 382.672 58.7083 378.767ZM130.137 383.648V384.624H131.115L130.137 383.648ZM217.221 383.648V386.576C219.178 387.227 219.83 386.902 219.178 385.6L217.221 383.648ZM57.7298 384.624C56.4252 391.132 56.4252 396.013 57.7298 399.267H59.6868L57.7298 390.481L58.7083 388.529L57.7298 384.624ZM123.287 385.6V386.576H124.266L123.287 385.6ZM206.458 387.553L200.587 400.243C201.239 404.148 203.196 407.077 206.458 409.029H209.393L205.479 407.077L203.522 401.219L204.501 399.267L208.414 406.1H209.393L206.458 402.196C207.11 397.64 206.458 394.711 204.501 393.41L206.458 389.505V387.553ZM208.414 387.553L207.436 390.481L210.371 392.434L208.414 387.553ZM292.563 388.529L289.628 393.41V406.1L290.606 407.077C289.954 409.029 290.606 409.68 292.563 409.029H294.52H295.498L290.606 399.267L291.585 394.386L295.498 404.148H297.455L294.52 399.267L292.563 388.529ZM297.455 388.529L296.477 390.481H297.455V388.529ZM131.115 389.505V391.457C130.463 392.759 131.115 393.084 133.072 392.434C133.724 393.735 134.377 393.735 135.029 392.434L131.115 389.505ZM60.6652 390.481V395.362C62.6222 396.013 63.2745 395.688 62.6222 394.386V392.434L60.6652 390.481ZM285.714 391.457L283.757 397.315L282.778 400.243C282.126 404.148 282.778 407.077 284.735 409.029L285.714 400.243C285.061 404.799 285.714 408.704 287.671 411.958L290.606 413.91L286.692 403.172L287.671 396.338H285.714L287.671 392.434L285.714 391.457ZM199.608 392.434V395.362L194.716 400.243L195.694 409.029L198.63 410.005L195.694 403.172L201.565 394.386C202.217 392.434 201.565 391.783 199.608 392.434ZM207.436 392.434C205.479 395.037 205.805 396.013 208.414 395.362L207.436 397.315L211.35 404.148L214.285 397.315L212.328 393.41L211.35 396.338L207.436 392.434ZM55.7729 393.41C54.4683 397.315 54.7944 400.243 56.7514 402.196C56.099 403.497 56.7514 403.823 58.7083 403.172L55.7729 393.41ZM133.072 393.41C131.768 395.362 132.42 396.989 135.029 398.291C135.681 400.243 135.029 400.894 133.072 400.243L134.051 403.172L136.986 401.219V403.172V404.148L139.921 403.172C140.574 399.918 139.595 398.942 136.986 400.243L136.008 396.338L133.072 393.41ZM50.8805 395.362L47.9451 401.219L49.9021 407.077C49.2497 408.378 49.9021 408.704 51.859 408.053L50.8805 407.077L55.7729 410.005H56.7514L52.8375 406.1L50.8805 395.362ZM297.455 395.362L296.477 401.219H298.434L297.455 395.362ZM138.943 396.338L137.965 399.267H138.943V396.338ZM305.283 397.315L304.305 399.267L306.262 400.243L305.283 397.315ZM301.369 398.291L302.348 400.243C303 398.291 302.674 397.64 301.369 398.291ZM199.608 399.267L197.651 401.219L199.608 408.053L202.544 410.005L199.608 399.267ZM46.9666 401.219V409.029L47.9451 410.005L45.0097 406.1L43.0528 407.077L44.0312 412.934L50.8805 416.839C51.5328 419.442 52.5113 419.767 53.8159 417.815L52.8375 416.839L48.9236 412.934V410.981L52.8375 413.91H53.8159C49.9021 411.307 47.619 407.077 46.9666 401.219ZM187.867 401.219L182.974 406.1L183.953 407.077L182.974 410.005L183.953 421.72H186.888L183.953 417.815V411.958L187.867 403.172V401.219ZM141.878 403.172L139.921 406.1L138.943 408.053L142.857 406.1L141.878 403.172ZM189.823 403.172L186.888 410.005L187.867 417.815L190.802 418.791L188.845 416.839V409.029L189.823 408.053V403.172ZM181.996 404.148L176.125 415.862V424.648H178.082L177.103 423.672L178.082 413.91L181.996 406.1V404.148ZM135.029 405.124L138.943 411.958L142.857 410.981C144.814 411.632 145.14 410.656 143.835 408.053C141.878 407.402 141.226 408.053 141.878 410.005L139.921 409.029C137.312 409.68 136.334 409.029 136.986 407.077L135.029 405.124ZM182.974 406.1L181.996 408.053H182.974V406.1ZM209.393 406.1V408.053H214.285L209.393 406.1ZM42.0743 407.077C40.7697 410.981 40.7697 414.235 42.0743 416.839L50.8805 424.648H52.8375L50.8805 422.696V421.72L48.9236 419.767C44.3574 417.164 42.0743 412.934 42.0743 407.077ZM181.996 408.053L179.06 415.862L180.039 421.72L181.996 411.958V408.053ZM134.051 409.029V410.005H135.029L134.051 409.029ZM285.714 409.029L284.735 410.981H285.714V409.029ZM57.7298 410.981V411.958H58.7083L57.7298 410.981ZM286.692 410.981L285.714 412.934H286.692V410.981ZM55.7729 411.958L53.8159 414.886L56.7514 415.862H59.6868L55.7729 411.958ZM145.792 411.958L142.857 413.91L138.943 412.934L139.921 415.862C139.269 417.164 140.248 417.489 142.857 416.839V419.767C146.118 420.418 148.075 420.093 148.728 418.791L145.792 411.958ZM195.694 414.886L194.716 416.839C196.02 418.791 196.999 418.791 197.651 416.839L195.694 414.886ZM30.3326 417.815L28.3757 422.696L25.4403 423.672C27.3972 428.228 28.3757 434.41 28.3757 442.22L30.3326 443.196L29.3541 441.244L30.3326 421.72L31.3111 435.386L33.268 436.363L32.2896 434.41L33.268 425.624L34.2465 429.529C33.5942 433.434 34.2465 435.061 36.2035 434.41V432.458L33.268 424.648V417.815H30.3326ZM35.225 417.815L37.1819 426.601L44.0312 431.482H45.0097L38.1604 423.672L37.1819 419.767L35.225 417.815ZM54.7944 417.815V418.791H56.7514L54.7944 417.815ZM135.029 417.815C134.377 419.767 135.029 420.418 136.986 419.767C137.638 417.815 136.986 417.164 135.029 417.815ZM197.651 417.815L198.63 419.767H199.608L197.651 417.815ZM149.706 418.791L145.792 422.696L143.835 421.72L141.878 422.696L145.792 424.648L149.706 422.696H150.685L149.706 424.648L150.685 426.601L147.749 427.577C145.792 426.926 145.14 427.577 145.792 429.529L151.663 428.553L152.642 426.601C153.294 422.045 152.315 419.442 149.706 418.791ZM181.017 421.72L180.039 424.648H181.017V421.72ZM140.9 423.672V424.648H141.878L140.9 423.672ZM192.759 423.672V424.648H193.737L192.759 423.672ZM181.996 424.648L180.039 427.577L183.953 429.529C184.605 427.577 183.953 426.926 181.996 427.577V424.648ZM25.4403 425.624L23.4833 427.577L24.4618 442.22L28.3757 446.124H29.3541C25.4403 441.569 24.1356 434.736 25.4403 425.624ZM178.082 425.624L177.103 427.577H178.082V425.624ZM142.857 433.434V434.41H143.835L142.857 433.434ZM134.051 434.41V436.363L136.008 435.386L134.051 434.41ZM138.943 435.386L137.965 439.291C139.921 439.291 140.574 440.918 139.921 444.172C141.226 447.426 144.488 449.378 149.706 450.029C151.011 450.68 151.337 450.029 150.685 448.077L146.771 447.101C142.857 444.497 140.248 440.593 138.943 435.386ZM133.072 436.363L130.137 439.291C128.832 447.751 130.137 454.259 134.051 458.815L141.878 464.672L142.857 465.648C143.509 463.696 142.857 463.045 140.9 463.696C136.334 459.14 133.072 453.283 131.115 446.124L132.094 442.22L135.029 451.982L141.878 456.863H142.857C136.334 452.958 133.072 446.124 133.072 436.363ZM136.008 436.363V445.148L143.835 453.934H147.749L144.814 451.982C140.248 448.077 137.312 442.871 136.008 436.363ZM143.835 436.363V438.315L150.685 443.196V440.267L143.835 436.363ZM148.728 436.363V437.339H149.706L148.728 436.363ZM35.225 437.339L34.2465 439.291H35.225V437.339ZM150.685 437.339V438.315H151.663L150.685 437.339ZM36.2035 440.267L35.225 442.22H36.2035V440.267ZM144.814 455.886V456.863H145.792L144.814 455.886Z" fill="#090909"/>
<path opacity="0.996078" d="M243.007 21.7617H252.963L268.396 28.5623L264.911 29.0157L250.474 25.8421L253.959 25.3887L257.941 26.2954V25.3887L247.985 22.6685H243.007V21.7617Z" fill="#090909"/>
<path opacity="0.996078" d="M198.694 54.4045L199.168 55.9507L197.275 60.0737L198.694 63.6813L201.533 59.5583L202.006 63.166L201.06 65.2275L202.952 64.1967C202.322 61.6542 202.952 60.7952 204.845 61.6198L205.318 65.7428L206.264 61.6198L206.737 68.3197L202.479 73.9889C201.596 75.7755 199.704 76.4627 196.802 76.0504C192.954 73.714 191.535 68.732 192.544 61.1044L194.91 56.466V58.5276L197.275 56.9814L198.694 54.4045ZM193.49 62.6506L195.383 70.8966C197.906 69.5223 197.906 68.1479 195.383 66.7736C196.014 63.3377 195.383 61.9634 193.49 62.6506ZM204.845 68.8351L203.899 70.8966H204.845V68.8351Z" fill="#090909"/>
<path opacity="0.996078" d="M185.429 123.317L192.23 126.642L190.869 126.944L184.976 124.526L185.429 123.317Z" fill="#090909"/>
<path opacity="0.996078" d="M214.084 159.586L215.934 164.532L217.785 162.554L221.023 166.016L232.126 180.854L228.888 181.348L222.874 176.897L217.785 164.532L217.322 168.984L220.098 174.919L217.322 172.94C214.731 169.511 213.652 165.06 214.084 159.586Z" fill="#090909"/>
<path opacity="0.996078" d="M162.809 239.517C164.371 239.047 164.822 239.782 164.161 241.724V243.489L170.468 261.141L168.666 260.259L161.908 242.165L161.458 247.02L164.161 254.081L162.809 254.522C160.347 252.521 159.296 249.138 159.656 244.372L162.809 239.517Z" fill="#090909"/>
<path opacity="0.996078" d="M245.328 246.634L246.634 246.996L241.846 249.535L235.753 250.261V249.535L245.328 246.634Z" fill="#090909"/>
<path opacity="0.996078" d="M192.229 250.261C199.941 257.209 205.986 265.672 210.364 275.65H209.384C205.136 267.038 199.581 259.614 192.72 253.379L192.229 250.261Z" fill="#090909"/>
<path opacity="0.996078" d="M170.83 253.888L172.644 254.547L174.095 257.515L170.468 254.877L170.83 253.888Z" fill="#090909"/>
<path opacity="0.996078" d="M94.3013 279.276L96.1148 279.755L95.208 280.711V291.233L96.1148 292.19V302.712L97.9282 310.365V322.8H97.0215L95.208 308.452V306.538L94.3013 279.276Z" fill="#090909"/>
<path opacity="0.996078" d="M98.5327 282.903L100.346 283.376V290.946L101.555 291.892V303.246L102.764 304.192V306.084L105.182 326.427L102.764 325.954V317.438L100.346 310.815L97.9282 287.161L99.1372 284.323L98.5327 282.903Z" fill="#090909"/>
<path opacity="0.996078" d="M102.999 326.69C105.028 325.867 105.642 326.975 104.843 330.014L102.077 339.036L97.9282 340.935L101.155 336.661L102.999 326.69Z" fill="#090909"/>
<path opacity="0.996078" d="M217.332 348.189L219.718 348.692L216.855 353.73L219.241 352.219L220.672 352.722L218.764 356.752L220.672 355.745C220.227 353.999 220.863 353.495 222.581 354.234L221.15 358.264L218.764 358.767L222.104 360.279L224.968 359.271L226.876 360.279C228.658 359.473 228.817 358.633 227.354 357.76L228.785 355.241L230.694 354.234L232.126 356.752L230.217 357.256V359.775L225.922 365.316L224.013 366.324L223.536 364.812L225.922 361.286L221.15 362.294L215.423 358.264L214.468 360.279L213.991 358.767L214.946 355.745L213.991 353.73L217.332 348.189Z" fill="#090909"/>
</svg>
