<svg width="454" height="535" viewBox="0 0 454 535" fill="none" xmlns="http://www.w3.org/2000/svg">
<path opacity="0.996078" d="M117.723 0.612405C128.966 -1.13975 136.449 0.867927 140.173 6.63545L140.72 8.27809L142.363 7.73055L141.268 10.4683L123.199 17.0389L111.7 27.4423L104.034 42.7737V52.6296C107.466 56.1339 109.656 60.8793 110.605 66.8659L110.057 68.5085L116.628 65.2232L127.031 56.4624L137.982 39.4884L145.101 32.3703C149.043 30.9831 150.686 31.5307 150.028 34.0129C152.438 39.2694 153.168 46.205 152.219 54.8198C149.152 71.1003 142.399 83.6939 131.959 92.6007L113.89 104.099C115.934 107.896 116.664 113.006 116.08 119.431L113.89 129.286L120.461 138.047V141.88L126.484 140.785L129.769 141.88C132.178 139.544 136.194 138.814 141.815 139.69L143.458 138.047C146.451 123.884 153.204 113.481 163.717 106.837L174.668 101.361L191.642 99.1713L187.262 86.5776L186.167 73.4365L187.262 71.2463V69.0561C187.262 59.2002 190 52.082 195.475 47.7016L201.498 42.7737L213.544 24.7046C222.743 16.5278 233.877 9.95725 246.945 4.9928L266.656 0.612405H280.893L281.988 1.7075L296.224 2.8026L310.46 7.183L332.362 20.3242L342.766 30.7276L352.622 43.8688L355.907 51.5345V61.3904L361.383 74.5316V97.5286L353.717 119.431L343.861 131.477L339.481 144.618L330.172 155.021C328.566 154.51 328.019 155.058 328.53 156.664L324.149 161.044L325.244 162.139L332.362 174.733C337.911 176.12 341.744 179.223 343.861 184.041L353.717 202.658L363.573 212.514L365.215 217.442L374.524 213.062L375.619 207.038L381.642 194.445C383.321 195.029 383.869 194.481 383.284 192.802L376.714 177.471V164.33L382.189 136.952C387.3 124.906 394.418 114.868 403.544 106.837L417.78 95.886H420.518C422.416 97.5651 423.146 100.668 422.708 105.194C420.664 112.641 417.379 118.847 412.852 123.811L407.377 138.047V142.428C409.421 143.888 410.151 146.261 409.567 149.546L413.4 147.356H416.685L422.708 141.333C428.476 134.324 432.126 125.198 433.659 113.955L430.374 100.814L432.016 101.361L444.61 111.765C448.552 116.583 451.108 122.789 452.276 130.382L453.371 156.664L452.276 159.949C451.4 173.674 448.114 184.991 442.42 193.897L430.374 208.134C429.352 215.507 426.796 221.348 422.708 225.655L414.495 233.868L409.567 237.701C405.917 247.557 400.259 255.405 392.593 261.246L382.737 267.816L376.166 268.912L365.215 277.672L354.264 278.767L344.408 276.577C341.634 273.146 337.619 270.956 332.362 270.007L306.08 250.295C303.598 256.573 299.947 261.684 295.129 265.626L290.201 268.364C288.814 275.738 285.529 281.213 280.345 284.791V288.076L282.535 295.741L278.155 308.883C281.732 311.146 283.558 315.161 283.631 320.929L294.581 336.26L304.437 358.162L312.103 386.635V399.776C315.169 403.28 316.264 408.756 315.388 416.202C313.052 424.087 309.219 430.475 303.89 435.367C298.341 441.499 291.406 446.245 283.083 449.603L271.037 452.888H265.561L260.086 457.269L248.04 462.744L234.899 463.839L226.685 469.862L227.78 487.384L224.495 502.715L217.377 513.119C214.019 515.601 209.273 516.696 203.141 516.404L190.547 510.928C185.51 505.161 181.494 498.043 178.501 489.574L175.216 468.767V454.531L177.406 445.77L187.809 433.176L197.665 428.796L205.879 421.678L212.997 413.465L216.282 411.274L236.541 398.681C227.78 391.015 220.297 382.072 214.092 371.851C206.937 372.727 202.009 375.83 199.308 381.159L183.429 401.419L180.691 403.061C178.866 415.107 173.938 424.051 165.907 429.891L144.005 446.318L134.15 451.793L128.674 452.888L125.936 455.626L123.199 459.459L98.5589 474.243L90.8932 486.289L88.703 497.24V507.096L86.5128 514.761L81.0373 526.807L77.2044 530.64C73.4081 533.779 67.5676 534.875 59.6829 533.925C52.6012 531.151 46.9432 526.953 42.7088 521.332L39.4235 513.666L35.0432 493.954V474.243L42.7088 455.626C47.6733 451.099 51.3236 445.259 53.6598 438.104L79.3946 410.179L92.5358 401.419C96.2592 401.857 98.6319 400.944 99.654 398.681V396.491L109.51 384.992L111.7 384.444L108.415 374.589V372.398V366.375H105.677L104.582 367.47H93.6309L88.1554 366.375L77.2044 369.661L76.1093 368.566H62.9682L56.3976 366.375L44.899 357.067L43.2564 353.234C33.4005 351.409 26.2824 346.846 21.902 339.545L15.3314 327.499L14.2363 315.453L15.3314 313.263L9.85589 308.883L5.47549 301.217L1.0951 288.076L0 267.269C1.24111 262.304 3.79634 258.654 7.66569 256.318C3.79634 251.792 2.33621 244.856 3.2853 235.511L6.57059 221.275L20.8069 198.825L24.0922 197.183C25.3333 191.123 28.071 186.56 32.3054 183.494C38.511 176.631 47.0892 172.616 58.0402 171.448L55.3025 175.828L48.1843 180.756C48.7684 182.435 48.2208 182.983 46.5417 182.399L37.2333 194.992V205.943C43.1469 212.806 45.7021 223.027 44.899 236.606C43.7309 245.659 40.8107 252.96 36.1383 258.508L40.5186 266.174V272.744L43.8039 286.981V295.741L66.2535 322.571L72.824 321.476L84.8701 324.762C86.9873 319.213 92.0978 316.658 100.202 317.096L101.297 318.191L105.129 314.358C107.174 307.277 111.006 301.984 116.628 298.479L129.222 291.909L131.412 285.886L144.553 268.364C137.471 265.225 131.631 260.844 127.031 255.223C123.162 250.696 121.337 244.126 121.556 235.511L122.651 232.226L121.556 227.845C122.651 219.45 125.206 212.514 129.222 207.038L121.008 203.206L116.628 198.825H111.152L102.392 195.54L85.4177 182.946C78.5551 174.843 73.0796 165.352 68.9912 154.474L67.8961 136.952L66.801 135.857L67.8961 132.572C61.3985 127.753 57.3832 120.453 55.85 110.67L59.1353 97.5286C54.3899 92.7832 51.8347 85.8476 51.4696 76.7218L52.5647 75.6267V61.3904L58.0402 50.4394C64.3918 38.1743 72.605 27.7709 82.6799 19.2291C91.4407 10.1033 103.122 3.8977 117.723 0.612405ZM123.746 6.0879C110.605 9.00816 100.019 13.7536 91.9883 20.3242L68.9912 49.8918L59.1353 77.2693L60.2304 87.1252L63.5157 68.5085C67.8961 58.2876 73.0066 49.5268 78.8471 42.2262L83.2275 38.9409L72.2765 57.5575L66.801 75.0791L67.8961 82.7448L68.9912 75.0791L82.1324 48.7967L84.3226 47.7016C79.2121 55.7324 75.5618 65.5883 73.3716 77.2693L74.4667 80.5546L82.1324 65.2232H83.2275L79.9422 80.5546L75.5618 91.5056L76.6569 94.7909L78.8471 87.1252C82.4974 84.2049 85.0526 80.5546 86.5128 76.1742L87.6079 77.2693L83.2275 89.3154L84.3226 91.5056C87.9729 89.3154 89.7981 85.6651 89.7981 80.5546L91.9883 79.4595C91.2582 87.4902 88.703 94.0608 84.3226 99.1713L85.4177 100.266L89.7981 93.6958L94.1785 90.4105L95.2736 86.0301H96.3687C95.6386 91.1406 93.8134 95.521 90.8932 99.1713H93.0834L94.1785 96.9811L97.4638 94.7909L99.654 92.6007L102.939 77.2693L96.3687 58.6526L91.9883 50.9869C91.2582 45.1464 91.9883 41.1311 94.1785 38.9409L93.0834 36.7507L98.5589 25.7997L113.89 12.6585L122.651 8.27809H125.936C126.666 6.0879 125.936 5.35783 123.746 6.0879ZM282.535 9.37319L281.44 10.4683H267.204L255.158 13.7536L235.446 26.8948L236.541 27.9899L255.158 15.9438C260.268 16.6739 264.649 15.9438 268.299 13.7536L282.535 14.8487L255.158 18.134C244.937 22.5144 236.541 29.085 229.971 37.8458L231.066 38.9409L242.017 29.085L262.824 20.3242L274.87 21.4193C266.839 20.6892 260.633 22.1493 256.253 25.7997L240.922 38.9409L242.017 40.036L255.158 31.2752L272.68 25.7997L273.775 26.8948L251.873 37.8458L240.922 54.2722L243.112 57.5575L249.682 46.6065C258.443 40.036 269.029 34.9255 281.44 31.2752L294.581 29.085H308.818H311.008L318.674 31.2752L321.959 30.1801L334.005 34.5605L332.91 33.4654L330.72 29.085C324.879 23.9745 317.944 19.5941 309.913 15.9438L292.391 10.4683H283.631L282.535 9.37319ZM235.446 19.2291V20.3242H236.541L235.446 19.2291ZM292.391 34.5605L274.87 38.9409L260.633 46.6065C252.603 52.4471 247.127 60.4778 244.207 70.6987V96.9811C247.127 105.742 251.508 113.043 257.348 118.883L275.965 132.024L291.296 137.5L306.628 138.595L307.723 139.69L327.434 137.5L335.1 134.214L336.195 132.024L316.483 136.405H307.723L288.011 132.024L267.204 121.073C256.983 113.773 250.413 103.552 247.492 90.4105V73.984C248.952 66.6834 251.508 60.8428 255.158 56.4624C263.919 46.2415 277.06 40.036 294.581 37.8458L297.867 38.9409L300.057 37.8458H312.103L325.244 40.036L340.576 46.6065L350.432 54.2722H351.527L348.241 48.7967L343.861 43.3213L324.149 35.6556L317.579 34.5605H292.391ZM146.743 41.1311L132.507 64.1281L111.7 80.5546L113.89 83.8399L125.936 77.2693L131.412 72.8889L129.222 76.1742C125.571 81.2847 120.826 84.935 114.985 87.1252V88.2203C119.366 88.2203 122.651 87.1252 124.841 84.935L131.412 78.3644L139.078 66.3183L146.743 43.3213V41.1311ZM220.115 42.2262L222.305 44.4163L229.971 54.2722L233.256 66.3183C233.986 79.4595 231.431 89.6804 225.59 96.9811L215.734 103.552L205.879 104.647L210.259 105.742C215.369 106.472 219.385 105.742 222.305 103.552C230.336 96.9811 235.811 87.8553 238.731 76.1742C240.192 71.0638 239.827 68.1435 237.636 67.4134H239.827V64.1281L232.161 49.8918L224.495 43.3213L220.115 42.2262ZM212.449 47.7016C210.989 49.8918 208.434 50.2569 204.783 48.7967L202.593 50.9869L208.069 53.1771L214.639 61.9379L215.734 76.1742L216.83 77.2693L215.734 83.8399L219.02 82.7448C220.48 83.4749 220.845 82.7448 220.115 80.5546H224.495C226.685 78.3644 227.415 74.7141 226.685 69.6036L227.78 66.3183V61.9379L224.495 53.1771L216.83 47.7016H212.449ZM292.391 47.7016L291.296 49.8918L306.628 50.9869L321.959 56.4624C327.799 61.5729 332.545 68.1435 336.195 76.1742L339.481 93.6958C340.941 100.996 340.211 106.837 337.29 111.217L338.385 113.408C342.036 107.567 344.591 100.996 346.051 93.6958C346.051 81.2847 343.861 71.4288 339.481 64.1281C335.1 57.5575 329.26 53.1771 321.959 50.9869L309.913 48.7967H293.486L292.391 47.7016ZM295.677 50.9869L296.772 53.1771C305.532 54.6373 312.833 57.9226 318.674 63.033C323.784 65.9533 327.069 70.6987 328.53 77.2693L330.72 78.3644L325.244 64.1281C317.214 57.5575 307.358 53.1771 295.677 50.9869ZM200.403 57.5575C196.023 59.7477 193.467 63.7631 192.737 69.6036L193.832 87.1252L196.023 91.5056L199.308 92.6007L205.879 91.5056L211.354 84.935L213.544 71.7938L209.164 60.8428C207.704 57.9226 204.783 56.8275 200.403 57.5575ZM304.437 57.5575L305.532 59.7477H306.628L304.437 57.5575ZM307.723 59.7477L308.818 61.9379H309.913L307.723 59.7477ZM311.008 61.9379L312.103 64.1281C312.833 61.9379 312.468 61.2079 311.008 61.9379ZM315.388 66.3183L323.054 73.984V72.8889L315.388 66.3183ZM239.827 98.0762C237.636 100.266 236.906 103.917 237.636 109.027V111.217L240.922 118.883L257.348 134.214C259.538 133.484 259.903 134.945 258.443 138.595L269.394 142.975L271.584 141.88L272.68 142.975L270.489 144.07L275.965 146.261L277.06 144.07L278.155 147.356L279.25 145.165V147.356L282.535 145.165V147.356L300.057 150.641C311.008 152.101 320.134 151.006 327.434 147.356L328.53 145.165L329.625 142.975L315.388 144.07L314.293 145.165L288.011 141.88C276.33 138.96 266.839 134.214 259.538 127.644L244.207 111.217L239.827 98.0762ZM83.2275 101.361L82.1324 103.552H83.2275V101.361ZM64.6108 104.647L65.7059 110.122L76.6569 115.598C86.1477 117.058 93.0834 116.328 97.4638 113.408L100.749 125.454H101.844C103.304 121.073 102.939 118.518 100.749 117.788V114.503C98.5589 115.233 97.8288 114.868 98.5589 113.408L101.844 111.217L105.129 106.837L99.654 110.122H89.7981L88.703 111.217C77.0219 112.678 68.9912 110.487 64.6108 104.647ZM189.452 105.742L186.167 107.932L175.216 110.122L164.265 116.693L155.504 128.739H158.789L159.884 130.929V125.454L164.265 127.644V124.359L168.645 126.549L169.74 118.883L174.121 124.359V118.883H176.311C177.771 118.153 178.136 118.883 177.406 121.073L179.596 122.168L178.501 118.883C177.041 115.233 177.771 113.773 180.691 114.503L179.596 113.408C178.866 111.217 179.596 110.487 181.786 111.217L182.881 116.693C182.151 119.613 182.881 120.708 185.072 119.978L182.881 112.312L185.072 111.217L186.167 109.027C188.357 110.487 189.087 113.043 188.357 116.693H190.547L188.357 110.122C187.627 107.932 188.357 107.202 190.547 107.932C191.277 105.742 190.912 105.012 189.452 105.742ZM413.947 105.742L395.331 126.549L388.76 139.69L384.38 162.687L385.475 174.733V164.877L390.95 145.165H392.045L390.95 156.116L388.76 160.497C388.03 167.797 389.125 173.638 392.045 178.018V163.782L393.14 159.402L395.331 160.497L393.14 171.448L394.235 172.543L401.901 158.307L398.616 147.356L399.711 145.165L398.616 142.975V133.119L401.901 124.359L413.947 107.932V105.742ZM194.928 107.932V110.122C196.388 112.312 197.483 112.312 198.213 110.122L194.928 107.932ZM222.305 110.122L219.02 113.408L220.115 114.503L222.305 113.408L223.4 114.503L222.305 110.122ZM232.161 110.122L233.256 113.408L232.161 116.693L234.351 119.978L236.541 118.883L234.351 114.503C235.081 110.852 234.351 109.392 232.161 110.122ZM186.167 111.217L185.072 113.408H186.167V111.217ZM202.593 113.408V117.788C206.244 119.248 207.704 121.073 206.974 123.263C208.434 122.533 208.799 123.263 208.069 125.454L212.449 127.644L211.354 124.359L214.639 128.739L213.544 129.834C221.575 137.865 231.431 144.8 243.112 150.641L265.014 158.307L293.486 163.782H302.247L303.342 162.687L305.532 163.782L315.388 161.592L318.674 159.402L296.772 157.212L280.345 153.926L251.873 145.165L231.066 134.214L228.876 135.31L239.827 140.785L240.922 142.975C232.161 139.325 225.225 134.579 220.115 128.739C217.925 129.469 217.195 128.739 217.925 126.549H215.734L210.259 122.168L202.593 113.408ZM337.29 113.408L336.195 115.598H337.29V113.408ZM97.4638 116.693L96.3687 119.978H97.4638V116.693ZM441.325 116.693L440.23 128.739L438.039 136.405L432.564 146.261L416.137 159.402L411.757 161.592L401.901 182.399C400.441 187.509 401.171 190.795 404.091 192.255L405.186 183.494L410.662 173.638L412.852 170.353L416.137 168.162L407.377 185.684C406.647 190.795 407.012 194.81 408.472 197.73H409.567L408.472 194.445L409.567 188.969L419.423 170.353L421.613 169.258L416.137 181.304L413.947 192.255H416.137L417.233 186.779C423.073 179.479 427.453 171.083 430.374 161.592H431.469C429.279 171.083 425.628 179.113 420.518 185.684C419.788 187.144 420.518 187.509 422.708 186.779C430.009 177.288 435.484 165.972 439.134 152.831H440.23V160.497L433.659 181.304L427.088 191.16L428.184 192.255C434.024 187.144 438.039 180.574 440.23 172.543L443.515 158.307L444.61 142.975V140.785C446.07 129.834 444.975 121.803 441.325 116.693ZM93.0834 118.883L91.9883 126.549H93.0834V118.883ZM88.703 119.978L87.6079 128.739H88.703V119.978ZM237.636 119.978L235.446 122.168V124.359C237.636 123.628 238.366 124.359 237.636 126.549L254.063 138.595H255.158L251.873 135.31L237.636 119.978ZM96.3687 122.168V127.644H98.5589V122.168H96.3687ZM188.357 128.739V130.929L196.023 134.214L210.259 156.116L214.639 169.258V173.638L215.734 176.923V192.255L214.639 193.35L215.734 195.54C218.655 191.16 220.115 185.684 220.115 179.113V176.923V168.162L215.734 153.926L206.974 138.595C202.593 133.484 196.388 130.199 188.357 128.739ZM107.32 134.214C102.209 137.865 96.3687 140.055 89.7981 140.785C85.4177 142.245 82.8625 141.88 82.1324 139.69C79.9422 138.96 79.2121 139.69 79.9422 141.88L87.6079 144.07H91.9883L100.749 139.69L101.844 140.785L91.9883 145.165L94.1785 146.261L85.4177 149.546L88.703 150.641L83.2275 151.736L91.9883 152.831H94.1785L102.939 150.641L104.034 151.736L97.4638 156.116C93.8134 155.386 91.6232 156.116 90.8932 158.307C86.5128 156.846 84.6876 157.577 85.4177 160.497L89.7981 159.402V161.592C96.3687 162.322 101.479 161.227 105.129 158.307L107.32 159.402L104.034 160.497L101.844 164.877L97.4638 165.972L99.654 167.067C98.9239 168.528 96.7337 168.893 93.0834 168.162L94.1785 170.353L96.3687 169.258L99.654 170.353H98.5589L99.654 172.543L110.605 168.162C114.255 164.512 116.811 160.132 118.271 155.021L117.176 149.546L110.605 137.5L107.32 134.214ZM210.259 135.31C217.56 146.261 222.67 160.497 225.59 178.018L227.78 179.113L226.685 162.687L222.305 149.546L217.925 142.975L210.259 135.31ZM180.691 137.5L177.406 138.595C176.676 140.785 177.406 141.515 179.596 140.785L180.691 144.07L181.786 145.165L171.93 138.595L166.455 140.785L169.74 141.88L171.93 147.356H169.74L158.789 141.88H156.599L151.124 144.07L159.884 148.451L162.075 152.831V156.116L160.979 155.021C158.059 149.911 153.679 146.626 147.838 145.165H145.648L148.933 151.736L147.838 153.926L150.028 162.687H147.838L146.743 151.736L145.648 149.546H143.458V147.356H134.697L136.887 151.736L135.792 153.926L139.078 170.353V163.782H140.173L139.078 174.733L133.602 182.399C132.872 183.859 133.602 184.224 135.792 183.494L141.268 174.733V178.018V180.209C139.078 179.479 138.347 180.209 139.078 182.399L141.268 181.304L140.173 183.494H142.363L146.743 175.828C146.013 172.178 146.743 170.718 148.933 171.448L146.743 185.684C148.933 186.414 149.663 185.319 148.933 182.399H151.124L152.219 175.828H153.314C154.044 179.479 153.314 182.034 151.124 183.494C150.394 184.954 151.124 185.319 153.314 184.589L155.504 178.018V175.828L157.694 168.162H158.789L157.694 179.113L155.504 182.399L156.599 184.589L162.075 176.923L163.17 171.448L165.36 172.543L164.265 183.494L160.979 184.589L162.075 187.874C166.455 184.954 169.375 180.939 170.835 175.828C172.295 170.718 171.93 167.797 169.74 167.067L170.835 163.782L173.026 168.162V175.828H175.216L173.026 183.494L174.121 184.589L176.311 181.304L178.501 169.258L177.406 163.782L179.596 162.687V179.113L177.406 181.304L178.501 183.494L177.406 182.399L174.121 186.779L178.501 185.684L185.072 178.018L186.167 173.638V162.687L180.691 150.641V148.451C185.072 152.101 187.992 157.577 189.452 164.877C190.182 171.448 189.817 176.923 188.357 181.304L191.642 182.399L194.928 167.067V173.638L197.118 176.923L198.213 169.258C198.213 159.037 195.658 151.736 190.547 147.356L180.691 137.5ZM256.253 138.595L259.538 141.88V139.69L256.253 138.595ZM77.752 139.69V140.785H78.8471L77.752 139.69ZM85.4177 144.07V145.165H86.5128L85.4177 144.07ZM122.651 147.356C124.111 157.577 122.651 165.607 118.271 171.448L106.225 180.209V181.304L118.271 178.018C122.651 175.828 125.206 171.448 125.936 164.877V162.687L127.031 158.307L125.936 151.736L131.412 156.116V162.687L129.222 170.353L123.746 178.018L112.795 185.684L101.844 187.874L105.129 188.969C111.7 190.429 116.445 189.699 119.366 186.779C125.936 182.399 130.682 176.193 133.602 168.162C135.062 161.592 134.697 156.846 132.507 153.926C130.317 149.546 127.031 147.356 122.651 147.356ZM238.731 158.307V161.592L248.587 169.258C259.538 169.988 269.759 172.178 279.25 175.828H301.152L302.247 174.733C304.437 175.463 305.167 174.733 304.437 172.543H295.677L294.581 173.638C292.391 174.368 291.661 173.638 292.391 171.448C287.281 169.988 281.075 169.623 273.775 170.353L238.731 158.307ZM319.769 167.067C318.309 170.718 319.039 173.638 321.959 175.828L320.864 191.16L318.674 193.35L319.769 195.54L324.149 186.779C324.879 178.018 323.419 171.448 319.769 167.067ZM236.541 171.448L239.827 180.209L242.017 181.304L266.109 185.684H267.204L262.824 178.018L248.587 175.828L236.541 171.448ZM315.388 171.448L313.198 182.399L314.293 191.16L317.579 185.684V172.543L315.388 171.448ZM232.161 178.018V179.113H233.256L232.161 178.018ZM283.631 178.018L282.535 180.209L295.677 181.304L301.152 183.494C304.072 184.224 305.167 183.494 304.437 181.304L283.631 178.018ZM267.204 179.113L269.394 185.684L282.535 188.969L304.437 191.16C305.167 192.62 305.898 192.62 306.628 191.16L305.532 187.874L278.155 180.209L267.204 179.113ZM232.161 180.209L229.971 198.825L228.876 192.255L225.59 205.396H224.495L226.685 191.16L228.876 186.779V181.304L221.21 204.301L219.02 220.727L216.83 225.108C217.56 230.218 216.83 234.233 214.639 237.154L215.734 239.344L216.83 236.059H217.925L215.734 244.819H217.925L222.305 225.108H223.4L220.115 240.439L222.305 242.629L227.78 225.108L231.066 198.825L234.351 186.779C235.811 181.669 235.081 179.479 232.161 180.209ZM331.815 183.494L330.72 188.969L334.005 187.874C334.735 189.334 334.005 189.699 331.815 188.969L330.72 193.35L332.91 192.255L334.005 193.35L328.53 196.635L326.339 199.92L335.1 195.54L336.195 196.635L328.53 203.206L329.625 204.301L336.195 198.825V201.015V203.206L330.72 207.586L331.815 208.681L339.481 204.301L340.576 205.396L330.72 211.966L331.815 213.062L339.481 207.586L341.671 208.681C336.56 209.411 332.545 211.966 329.625 216.347L330.72 217.442L335.1 215.252L330.72 221.822L334.005 219.632L335.1 220.727L330.72 228.393L337.29 224.013L334.005 228.393L343.861 221.822L344.956 222.917H343.861C338.02 225.838 334.37 230.948 332.91 238.249L334.005 240.439L336.195 236.059L352.622 222.917C354.812 223.647 355.542 222.917 354.812 220.727L351.527 221.822H349.336L352.622 219.632L357.002 220.727H358.097L341.671 198.825L338.385 188.969L331.815 183.494ZM240.922 184.589L239.827 206.491L235.446 221.822L234.351 232.773L233.256 236.059L234.351 239.344L235.446 237.154L236.541 240.439V239.344H237.636C238.366 242.264 238.001 243.359 236.541 242.629L233.256 241.534C233.986 242.994 233.621 243.359 232.161 242.629H229.971C229.241 244.089 229.971 244.454 232.161 243.724V247.01L252.968 251.39H261.729L273.775 218.537L277.06 197.73L275.965 190.064L240.922 184.589ZM229.971 187.874L228.876 191.16H229.971V187.874ZM183.977 190.064L181.786 192.255L168.645 193.35L160.979 195.54H139.078L137.982 194.445L125.936 196.635L128.127 197.73L139.078 199.92L166.455 198.825L182.881 194.445L185.072 192.255C185.802 190.064 185.437 189.334 183.977 190.064ZM427.088 192.255L425.993 194.445H427.088V192.255ZM284.726 193.35V196.635V198.825C283.265 199.555 282.9 202.111 283.631 206.491L285.821 205.396L298.962 208.681H307.723L309.913 201.015L308.818 196.635L301.152 194.445L284.726 193.35ZM425.993 194.445L423.803 197.73L425.993 196.635V194.445ZM199.308 196.635V199.92H200.403C201.133 197 200.768 195.905 199.308 196.635ZM317.579 196.635V199.92L319.769 198.825C320.499 196.635 319.769 195.905 317.579 196.635ZM200.403 199.92V203.206H198.213L200.403 205.396C201.863 204.666 202.228 205.396 201.498 207.586L198.213 206.491C197.483 208.681 198.213 209.411 200.403 208.681V211.966L199.308 210.871L197.118 211.966L200.403 216.347L199.308 215.252L194.928 216.347L200.403 219.632V220.727L197.118 218.537L196.023 220.727L201.498 222.917L205.879 209.776L203.688 202.111L200.403 199.92ZM387.665 202.111L389.855 207.586C392.775 211.966 397.886 214.887 405.186 216.347H416.137L404.091 213.062L389.855 204.301C390.585 202.111 389.855 201.38 387.665 202.111ZM167.55 203.206C165.36 210.506 166.09 216.347 169.74 220.727L171.93 219.632L168.645 211.966V205.396L167.55 203.206ZM383.284 205.396V211.966C386.935 216.347 392.41 219.632 399.711 221.822H402.996L395.331 217.442L388.76 209.776L383.284 205.396ZM26.2824 206.491C18.9817 212.331 14.2363 220.362 12.0461 230.583V240.439L14.2363 247.01V237.154L21.902 217.442L24.0922 216.347V221.822L20.8069 228.393L18.6167 242.629C17.1565 243.359 17.5216 244.089 19.7118 244.819L22.9971 239.344L27.3775 225.108H28.4726C27.7425 234.598 25.5523 242.994 21.902 250.295H24.0922C27.7425 244.454 30.6628 236.789 32.853 227.298V238.249V240.439L29.5677 249.2L30.6628 251.39L36.1383 240.439C34.6781 235.329 35.0432 232.408 37.2333 231.678L35.0432 219.632L29.5677 207.586L26.2824 206.491ZM188.357 207.586L187.262 209.776H188.357V207.586ZM194.928 208.681C194.197 210.871 194.928 211.601 197.118 210.871C197.848 208.681 197.118 207.951 194.928 208.681ZM194.928 210.871L193.832 213.062H194.928V210.871ZM282.535 210.871C281.075 221.822 278.155 232.043 273.775 241.534V247.01L271.584 254.675L281.44 256.865C286.551 258.326 290.566 257.961 293.486 255.77L301.152 239.344L305.532 215.252L282.535 210.871ZM135.792 213.062L131.412 224.013L132.507 245.914L134.697 247.01L133.602 240.439V238.249L135.792 230.583V241.534L137.982 244.819C137.252 247.74 137.982 248.835 140.173 248.105L139.078 245.914L141.268 224.013L142.363 245.914H143.458V236.059L142.363 234.964V215.252L143.458 214.157L141.268 213.062L139.078 220.727L137.982 236.059L136.887 224.013L135.792 229.488H134.697C133.967 222.917 134.697 218.172 136.887 215.252C137.617 213.062 137.252 212.331 135.792 213.062ZM193.832 213.062L191.642 214.157L189.452 217.442L193.832 215.252V213.062ZM383.284 214.157V218.537C386.935 223.647 393.14 226.933 401.901 228.393H406.282L392.045 222.917L385.475 216.347L383.284 214.157ZM194.928 216.347L189.452 219.632L190.547 221.822L193.832 220.727L194.928 218.537V216.347ZM374.524 218.537L369.048 226.203L367.953 224.013C365.033 223.282 364.303 225.473 365.763 230.583V232.773V236.059L362.478 232.773L363.573 227.298L361.383 228.393V239.344L366.858 249.2L372.333 253.58L365.763 242.629L366.858 240.439L369.048 245.914C369.778 247.375 370.873 247.375 372.333 245.914L381.094 252.485H383.284L373.429 244.819L376.714 245.914L373.429 240.439L374.524 238.249L376.714 242.629L386.57 247.01H387.665L378.904 239.344L381.094 236.059L389.855 242.629H393.14L386.57 238.249C379.999 233.868 375.984 227.298 374.524 218.537ZM384.38 219.632L383.284 222.917L390.95 228.393L401.901 231.678L405.186 230.583C394.966 229.853 388.03 226.203 384.38 219.632ZM404.091 221.822V222.917H406.282L404.091 221.822ZM355.907 222.917L349.336 227.298L336.195 244.819C335.465 246.28 336.195 246.645 338.385 245.914L343.861 237.154L348.241 233.868L339.481 249.2C338.75 251.39 339.481 252.85 341.671 253.58L349.336 234.964L358.097 224.013L355.907 222.917ZM160.979 227.298L163.17 232.773V231.678H165.36L163.17 227.298H160.979ZM158.789 228.393L157.694 231.678H158.789V228.393ZM360.287 231.678L358.097 234.964L359.192 248.105L363.573 256.865L365.763 257.961L364.668 251.39L362.478 249.2L360.287 241.534V231.678ZM167.55 232.773V236.059L174.121 238.249C174.851 240.439 173.756 241.169 170.835 240.439V244.819V247.01C170.105 249.2 170.835 249.93 173.026 249.2L174.121 242.629L176.311 245.914L177.406 242.629L178.501 248.105L177.406 250.295L179.596 251.39C178.866 247.74 179.596 246.28 181.786 247.01L180.691 250.295C179.961 252.485 180.691 253.215 182.881 252.485L183.977 248.105L182.881 245.914L185.072 244.819L186.167 253.58L188.357 243.724L189.452 247.01L187.262 253.58H189.452L191.642 248.105C190.912 245.914 191.642 245.184 193.832 245.914L192.737 248.105L194.928 253.58V247.01L197.118 245.914L196.023 248.105C195.293 251.025 196.023 252.12 198.213 251.39C197.483 247.74 198.213 245.549 200.403 244.819L201.498 252.485V248.105C202.958 245.914 204.053 245.914 204.783 248.105C204.053 251.025 204.783 252.12 206.974 251.39L208.069 247.01V249.2L210.259 248.105L208.069 243.724L209.164 241.534L210.259 244.819C209.529 247.01 210.259 247.74 212.449 247.01V250.295H213.544L211.354 237.154L209.164 238.249H197.118L196.023 239.344L181.786 238.249L167.55 232.773ZM385.475 232.773L390.95 238.249H392.045L385.475 232.773ZM160.979 233.868L164.265 237.154L167.55 240.439L168.645 239.344V247.01H169.74C171.2 241.899 170.835 238.614 168.645 237.154C165.725 237.884 164.63 237.154 165.36 234.964L160.979 233.868ZM332.91 233.868L331.815 236.059H332.91V233.868ZM164.265 239.344L163.17 243.724L165.36 244.819L164.265 239.344ZM320.864 239.344C320.864 245.184 323.054 249.93 327.434 253.58L329.625 256.865H331.815L335.1 260.151L320.864 239.344ZM353.717 239.344L350.432 244.819L352.622 250.295C351.892 252.485 352.622 253.215 354.812 252.485L352.622 245.914L353.717 241.534V239.344ZM167.55 241.534L166.455 243.724H167.55V241.534ZM167.55 244.819L166.455 247.01H167.55V244.819ZM144.553 247.01L143.458 250.295H144.553V247.01ZM175.216 247.01L174.121 249.2H175.216V247.01ZM349.336 247.01L347.146 250.295V257.961C347.876 262.341 350.066 265.991 353.717 268.912H354.812L350.432 261.246V259.056L349.336 257.961V247.01ZM203.688 250.295L202.593 252.485H203.688V250.295ZM28.4726 252.485V253.58H29.5677L28.4726 252.485ZM154.409 255.77C153.679 262.341 155.869 267.816 160.979 272.197L164.265 273.292L166.455 275.482C161.345 269.642 157.329 263.071 154.409 255.77ZM217.925 256.865V259.056L229.971 264.531L246.397 268.912H268.299C266.109 266.721 262.824 265.991 258.443 266.721V265.626C262.824 264.166 265.744 264.531 267.204 266.721L270.489 265.626H272.68L274.87 266.721L273.775 263.436H260.633L259.538 264.531L235.446 263.436L224.495 257.961L217.925 256.865ZM352.622 257.961L354.812 265.626L360.287 268.912H361.383L354.812 260.151C355.542 257.961 354.812 257.231 352.622 257.961ZM193.832 259.056C194.562 262.706 197.848 265.261 203.688 266.721L204.783 268.912L197.118 264.531L193.832 265.626L205.879 273.292H206.974V266.721L198.213 260.151L193.832 259.056ZM217.925 260.151L216.83 262.341L221.21 264.531L222.305 266.721L216.83 263.436L215.734 265.626L240.922 276.577L247.492 277.672C251.143 279.132 253.698 278.767 255.158 276.577L257.348 277.672C263.189 278.402 267.934 277.672 271.584 275.482H273.775L278.155 273.292L279.25 271.102L277.06 272.197H262.824L261.729 273.292L238.731 270.007C229.971 267.816 223.035 264.531 217.925 260.151ZM191.642 261.246L190.547 263.436H191.642V261.246ZM16.4265 262.341L10.951 263.436L7.66569 271.102V283.148L14.2363 301.765H15.3314L9.85589 283.148C8.39576 275.117 9.49085 269.277 13.1412 265.626L30.6628 266.721L35.0432 270.007V268.912C32.1229 263.071 25.9173 260.881 16.4265 262.341ZM278.155 264.531L275.965 266.721H278.155V264.531ZM212.449 267.816V270.007L235.446 280.958L232.161 282.053L239.827 285.338L249.682 287.528L252.968 286.433L256.253 287.528H261.729L259.538 286.433L263.919 284.243C268.299 285.703 270.124 284.973 269.394 282.053C257.713 283.513 247.857 282.783 239.827 279.863L212.449 267.816ZM180.691 268.912L192.737 280.958L196.023 282.053V284.243L180.691 275.482C179.231 278.402 179.961 279.498 182.881 278.767L183.977 282.053L193.832 287.528L194.928 289.718L185.072 284.243L182.881 282.053C182.151 279.863 181.421 279.498 180.691 280.958L175.216 278.767L173.026 279.863C179.596 287.163 188.357 292.639 199.308 296.289L200.403 295.194L203.688 282.053L190.547 275.482L180.691 268.912ZM24.0922 271.102L18.6167 273.292V274.387L24.0922 273.292C27.7425 272.562 30.2977 273.292 31.7579 275.482H32.853C31.3928 271.832 28.4726 270.372 24.0922 271.102ZM15.3314 274.387V275.482H16.4265L15.3314 274.387ZM25.1873 275.482L15.3314 278.767L16.4265 280.958L20.8069 278.767C22.9971 278.037 23.7271 278.767 22.9971 280.958L19.7118 282.053C17.5216 281.323 16.7915 282.053 17.5216 284.243L24.0922 285.338L17.5216 288.623L18.6167 289.718L22.9971 288.623C23.7271 290.814 23.3621 291.544 21.902 290.814C18.9817 291.544 17.8866 293.369 18.6167 296.289C20.8069 297.019 21.5369 296.289 20.8069 294.099L24.0922 293.004L27.3775 295.194L24.0922 296.289L20.8069 300.669L29.5677 298.479L33.9481 296.289L28.4726 294.099L31.7579 293.004L29.5677 290.814L31.7579 289.718C29.5677 288.988 28.4726 287.163 28.4726 284.243H30.6628H31.7579L27.3775 279.863V278.767L30.6628 279.863C32.1229 280.593 32.4879 280.228 31.7579 278.767C31.0278 275.847 28.8376 274.752 25.1873 275.482ZM177.406 276.577L179.596 279.863V278.767L177.406 276.577ZM142.363 283.148L134.697 298.479L130.317 313.811C129.587 315.271 130.317 315.636 132.507 314.906L135.792 301.765L144.553 285.338C145.283 283.148 144.553 282.418 142.363 283.148ZM219.02 283.148L214.639 284.243V285.338C216.099 284.608 216.464 285.338 215.734 287.528L213.544 285.338C210.624 288.988 208.799 294.099 208.069 300.669L213.544 302.86L214.639 300.669L216.83 305.05L217.925 301.765L220.115 302.86L223.4 284.243L219.02 283.148ZM231.066 289.718V291.909L227.78 305.05C227.05 307.24 228.146 307.97 231.066 307.24V309.43L233.256 308.335L236.541 310.525L237.636 308.335L239.827 311.62L243.112 309.43V311.62L245.302 310.525L249.682 311.62C252.603 307.24 254.063 301.4 254.063 294.099L238.731 293.004L231.066 289.718ZM154.409 291.909L151.124 294.099L164.265 298.479L171.93 303.955C173.391 303.225 173.756 303.955 173.026 306.145L158.789 301.765L152.219 302.86L178.501 313.811L187.262 320.381C193.102 324.032 197.118 329.872 199.308 337.903L204.783 342.283L194.928 322.571L180.691 309.43L181.786 307.24L191.642 312.716L202.593 324.762L206.974 340.093H208.069V333.522L201.498 317.096C195.658 308.335 187.627 302.13 177.406 298.479L174.121 299.574L177.406 300.669L179.596 303.955L154.409 291.909ZM272.68 291.909V295.194L274.87 296.289C275.6 292.639 274.87 291.179 272.68 291.909ZM267.204 293.004L263.919 294.099L260.633 298.479L257.348 311.62H260.633L269.394 308.335L271.584 306.145V293.004L269.394 294.099L267.204 293.004ZM127.031 299.574C118.271 305.415 112.43 314.176 109.51 325.857C108.78 329.507 109.145 332.062 110.605 333.522C109.875 335.713 110.605 336.443 112.795 335.713L111.7 333.522L113.89 319.286L127.031 301.765V299.574ZM36.1383 303.955C30.2977 304.685 25.9173 307.24 22.9971 311.62L24.0922 312.716L33.9481 307.24L44.899 306.145L45.9941 305.05L36.1383 303.955ZM122.651 307.24L117.176 322.571L118.271 325.857L124.841 308.335L122.651 307.24ZM35.0432 309.43L27.3775 313.811C25.1873 313.081 24.4572 313.811 25.1873 316.001L35.0432 311.62V313.811L30.6628 316.001L27.3775 320.381L37.2333 316.001L30.6628 323.667L31.7579 324.762L39.4235 319.286L40.5186 320.381L35.0432 329.142L37.2333 328.047C38.6935 328.777 39.0585 328.412 38.3284 326.952L43.8039 322.571L39.4235 329.142L40.5186 330.237L43.8039 324.762L52.5647 318.191V320.381L48.1843 322.571C44.534 324.032 43.8039 325.492 45.9941 326.952L41.6137 334.617L42.7088 336.808L45.9941 330.237L56.9451 321.476L51.4696 313.811L45.9941 309.43H35.0432ZM150.028 310.525L147.838 312.716L158.789 313.811L177.406 323.667V325.857L157.694 319.286L146.743 320.381L156.599 321.476V322.571L153.314 321.476C147.473 320.016 143.458 320.746 141.268 323.667C157.329 324.397 170.105 329.142 179.596 337.903L188.357 349.949V351.044L185.072 345.568L170.835 334.617L159.884 330.237C154.774 328.777 151.854 329.142 151.124 331.332L146.743 330.237H144.553L140.173 332.427L142.363 333.522L152.219 334.617V335.713C147.108 334.252 144.918 334.983 145.648 337.903L158.789 340.093L156.599 341.188L140.173 342.283L143.458 343.378C147.108 341.918 148.568 342.648 147.838 345.568H140.173L139.078 344.473C136.887 343.743 136.157 344.473 136.887 346.664C138.347 348.854 141.998 349.219 147.838 347.759L153.314 352.139L143.458 353.234L139.078 352.139L134.697 355.424C131.777 354.694 130.682 355.424 131.412 357.615L141.268 359.805L134.697 360.9L150.028 363.09L154.409 365.28V366.375C149.298 366.375 145.648 365.28 143.458 363.09L131.412 365.28L140.173 367.47C135.792 366.74 132.872 367.47 131.412 369.661L128.127 368.566L125.936 369.661L135.792 374.041C142.363 373.311 147.108 374.771 150.028 378.421C151.489 377.691 151.854 378.421 151.124 380.612L142.363 378.421H129.222L128.127 377.326L127.031 379.517L131.412 381.707L140.173 383.897L127.031 387.182L129.222 388.277H135.792L145.648 392.658H148.933L153.314 395.943L169.74 402.514L171.93 404.704L165.36 397.038L164.265 391.563L162.075 387.182L173.026 397.038L175.216 395.943L170.835 389.372V386.087L165.36 381.707L163.17 378.421L175.216 384.992L178.501 390.468L180.691 391.563L178.501 380.612C175.581 375.501 171.565 372.581 166.455 371.851L167.55 369.661C173.391 371.121 178.501 374.041 182.881 378.421L179.596 375.136L180.691 371.851C183.612 373.311 185.072 376.596 185.072 381.707L187.262 382.802C187.262 375.501 185.072 370.756 180.691 368.566C177.041 363.455 172.295 359.44 166.455 356.519L164.265 353.234L170.835 355.424L182.881 364.185L186.167 369.661L188.357 370.756L183.977 360.9C180.326 358.71 177.771 355.424 176.311 351.044L171.93 346.664L168.645 342.283L182.881 352.139C188.722 355.789 192.372 361.995 193.832 370.756L196.023 369.661L192.737 359.805L193.832 357.615V359.805H194.928L193.832 349.949L188.357 338.998V336.808L192.737 338.998V337.903L189.452 332.427L191.642 333.522C196.023 338.633 199.308 345.568 201.498 354.329H202.593L201.498 345.568L194.928 332.427L175.216 313.811L162.075 310.525H150.028ZM206.974 310.525L215.734 325.857L216.83 313.811L206.974 310.525ZM272.68 316.001V318.191L274.87 317.096L272.68 316.001ZM221.21 317.096L220.115 329.142L217.925 334.617L219.02 338.998V337.903V335.713L221.21 334.617L220.115 337.903V353.234L219.02 354.329L220.115 358.71V355.424L225.59 349.949L234.351 332.427L236.541 323.667C237.271 320.016 235.811 318.921 232.161 320.381C230.701 317.461 229.606 317.096 228.876 319.286L221.21 317.096ZM123.746 319.286L120.461 324.762L123.746 323.667V319.286ZM270.489 319.286L258.443 328.047L254.063 333.522L271.584 323.667C272.314 320.016 271.949 318.556 270.489 319.286ZM237.636 321.476L233.256 342.283L229.971 347.759L231.066 348.854L236.541 341.188L244.207 323.667V321.476H237.636ZM97.4638 322.571L95.2736 323.667C90.1631 327.317 86.5128 332.792 84.3226 340.093V349.949L85.4177 351.044C83.9576 354.694 84.6876 356.154 87.6079 355.424L86.5128 351.044L88.703 346.664L87.6079 343.378C89.068 336.078 91.6232 330.237 95.2736 325.857L98.5589 324.762C99.2889 322.571 98.9239 321.841 97.4638 322.571ZM254.063 322.571L249.682 323.667L242.017 336.808L243.112 338.998L247.492 332.427C246.762 330.237 247.492 329.507 249.682 330.237L250.778 326.952L255.158 324.762C255.888 322.571 255.523 321.841 254.063 322.571ZM133.602 325.857L123.746 343.378L116.08 368.566L117.176 370.756L116.08 371.851V380.612L119.366 382.802L118.271 380.612L119.366 378.421L118.271 372.946L119.366 363.09L124.841 352.139L125.936 343.378L133.602 329.142V325.857ZM25.1873 326.952L26.2824 333.522L38.3284 343.378L39.4235 344.473L33.9481 336.808L28.4726 331.332L25.1873 326.952ZM61.3255 328.047C56.2151 330.967 53.2948 335.713 52.5647 342.283L54.7549 345.568C54.7549 339.728 56.2151 335.713 59.1353 333.522L63.5157 330.237L60.2304 338.998L61.3255 343.378C61.3255 338.268 63.1507 334.617 66.801 332.427L67.8961 333.522L63.5157 343.378L64.6108 344.473L67.8961 338.998C67.166 336.808 67.8961 336.078 70.0863 336.808H71.1814L68.9912 345.568V347.759C67.5311 350.679 68.2611 351.774 71.1814 351.044L70.0863 349.949L73.3716 344.473L74.4667 349.949V347.759V345.568L75.5618 337.903V341.188C78.4821 341.918 79.2121 340.458 77.752 336.808H79.9422L81.0373 332.427L71.1814 329.142L61.3255 328.047ZM98.5589 328.047L94.1785 333.522L93.0834 338.998L95.2736 342.283L97.4638 331.332L99.654 329.142L98.5589 328.047ZM101.844 329.142L99.654 333.522V335.713L101.844 336.808V329.142ZM120.461 330.237L118.271 333.522L120.461 332.427V330.237ZM271.584 331.332L260.633 336.808L256.253 342.283L255.158 344.473L269.394 336.808L272.68 335.713H282.535V334.617C281.075 330.967 277.425 329.872 271.584 331.332ZM252.968 338.998L249.682 343.378L254.063 340.093L252.968 338.998ZM283.631 338.998L270.489 341.188L240.922 357.615L242.017 359.805L250.778 354.329L262.824 351.044L267.204 352.139C259.173 354.329 252.968 357.98 248.587 363.09C246.397 362.36 245.667 363.09 246.397 365.28L248.587 364.185C250.047 363.455 250.413 364.185 249.682 366.375H250.778C250.047 363.455 250.778 362.36 252.968 363.09V365.28L260.633 360.9L273.775 357.615C278.155 356.884 281.44 357.615 283.631 359.805C268.299 360.535 256.618 364.915 248.587 372.946L246.397 376.231L256.253 371.851L263.919 370.756H266.109L274.87 368.566L282.535 369.661L272.68 370.756L249.682 381.707L250.778 383.897L268.299 378.421L269.394 381.707L256.253 389.372L249.682 391.563L252.968 392.658L259.538 389.372L260.633 390.468H259.538L258.443 392.658L277.06 389.372L285.821 390.468L263.919 397.038C260.998 397.768 259.903 399.593 260.633 402.514L275.965 399.228H278.155L289.106 398.133L293.486 395.943C298.597 395.213 302.247 395.943 304.437 398.133L306.628 400.323C304.437 398.863 303.707 396.673 304.437 393.753L297.867 390.468L300.057 389.372L296.772 387.182L297.867 384.992L304.437 388.277L303.342 382.802L298.962 379.517L301.152 378.421L293.486 368.566L296.772 367.47L301.152 371.851L290.201 358.71L294.581 357.615L296.772 359.805L294.581 356.519C295.312 354.329 294.947 353.599 293.486 354.329V353.234L291.296 346.664L283.631 338.998ZM205.879 342.283L204.783 344.473H205.879V342.283ZM244.207 346.664V347.759H245.302L244.207 346.664ZM205.879 351.044L204.783 354.329H206.974L205.879 351.044ZM52.5647 352.139L51.4696 354.329L63.5157 360.9H72.2765V359.805H71.1814C63.1507 359.075 56.9451 356.519 52.5647 352.139ZM95.2736 355.424L98.5589 358.71C104.399 360.17 108.415 359.805 110.605 357.615L95.2736 355.424ZM196.023 359.805L194.928 361.995H196.023V359.805ZM246.397 365.28L244.207 368.566L246.397 367.47V365.28ZM130.317 367.47V368.566H131.412L130.317 367.47ZM227.78 370.756L228.876 377.326L237.636 389.372L246.397 394.848H247.492L245.302 392.658C238.001 387.547 232.891 380.977 229.971 372.946L227.78 370.756ZM127.031 382.802C126.301 385.722 128.492 386.452 133.602 384.992C134.332 382.802 132.142 382.072 127.031 382.802ZM116.08 391.563V393.753L114.985 395.943L117.176 404.704C124.476 412.004 133.967 417.845 145.648 422.225C151.489 422.955 156.234 422.59 159.884 421.13L153.314 420.035L166.455 417.845L168.645 414.56C170.105 415.29 170.47 414.56 169.74 412.369H158.789L157.694 411.274L154.409 412.369C138.347 408.719 125.571 401.784 116.08 391.563ZM133.602 392.658V394.848L150.028 402.514L163.17 405.799C165.36 406.529 166.09 405.799 165.36 403.609L159.884 399.228L148.933 394.848L133.602 392.658ZM106.225 400.323L105.129 403.609C105.129 413.1 107.32 420.765 111.7 426.606C117.541 433.176 125.571 437.922 135.792 440.842H139.078C131.047 437.922 124.111 433.906 118.271 428.796C112.43 425.146 108.78 420.035 107.32 413.465V403.609L108.415 402.514C109.145 400.323 108.415 399.593 106.225 400.323ZM292.391 401.419L283.631 404.704L266.109 406.894L270.489 407.989L269.394 410.179L255.158 405.799C252.968 405.069 252.238 405.799 252.968 407.989L263.919 412.369H280.345L295.677 407.989C301.517 406.529 305.167 407.624 306.628 411.274C305.898 414.195 306.628 415.29 308.818 414.56V411.274L305.532 404.704L300.057 401.419H292.391ZM170.835 405.799L171.93 407.989C172.661 405.799 172.295 405.069 170.835 405.799ZM242.017 405.799C240.557 416.75 242.747 425.146 248.587 430.986C253.698 436.827 260.998 441.207 270.489 444.127H273.775C267.934 442.667 263.189 440.112 259.538 436.462L245.302 421.13L242.017 405.799ZM292.391 410.179L270.489 418.94L262.824 417.845V418.94C264.284 418.21 264.649 418.94 263.919 421.13C275.6 422.59 285.091 421.13 292.391 416.75L297.867 417.845C300.057 417.115 300.787 417.845 300.057 420.035L278.155 425.511L277.06 427.701L289.106 426.606L293.486 424.416C297.137 423.686 299.692 424.051 301.152 425.511C304.802 424.781 306.263 421.495 305.532 415.655C302.612 412.004 298.232 410.179 292.391 410.179ZM229.971 411.274L221.21 417.845C216.099 421.495 212.449 426.606 210.259 433.176C209.529 434.637 210.259 435.002 212.449 434.271L217.925 423.32L229.971 413.465V411.274ZM90.8932 412.369L78.8471 423.32C73.0066 427.701 68.6262 433.541 65.7059 440.842L66.801 446.318L71.1814 435.367L91.9883 413.465L90.8932 412.369ZM120.461 412.369C119.001 414.56 119.366 415.29 121.556 414.56L120.461 412.369ZM122.651 414.56C127.761 421.86 136.157 426.971 147.838 429.891H153.314L159.884 426.606C161.345 427.336 161.71 426.606 160.979 424.416H153.314L152.219 425.511L139.078 424.416L122.651 414.56ZM104.034 416.75C104.034 423.32 106.225 428.796 110.605 433.176L124.841 441.937H127.031L117.176 435.367L109.51 428.796L104.034 416.75ZM88.703 426.606L96.3687 438.652L99.654 440.842L96.3687 433.176L90.8932 428.796C91.6232 426.606 90.8932 425.876 88.703 426.606ZM296.772 428.796L283.631 435.367H272.68L271.584 434.271L269.394 435.367L278.155 438.652L289.106 436.462L300.057 429.891L296.772 428.796ZM229.971 430.986V433.176L232.161 432.081L229.971 430.986ZM87.6079 433.176L91.9883 440.842H94.1785L93.0834 438.652L87.6079 433.176ZM235.446 434.271L234.351 436.462L237.636 437.557L235.446 434.271ZM203.688 435.367L202.593 440.842L206.974 452.888C209.164 456.538 213.179 459.094 219.02 460.554H223.4L217.925 458.364C212.084 454.713 208.069 449.238 205.879 441.937C207.339 436.827 206.609 434.637 203.688 435.367ZM196.023 437.557L192.737 439.747C187.627 442.667 184.707 447.778 183.977 455.078C183.246 472.6 186.167 486.836 192.737 497.787C195.658 502.898 200.403 506.183 206.974 507.643L213.544 504.358L202.593 502.168L194.928 494.502L190.547 484.646L187.262 472.6V461.649L186.167 460.554L187.262 449.603L190.547 446.318L192.737 443.032L197.118 439.747C197.848 437.557 197.483 436.827 196.023 437.557ZM238.731 437.557L239.827 439.747H240.922L238.731 437.557ZM61.3255 439.747L56.9451 449.603L65.7059 461.649L75.5618 468.22L81.0373 469.315H84.3226L70.0863 461.649C70.8164 459.459 70.0863 458.729 67.8961 459.459L62.4206 450.698L61.3255 439.747ZM227.78 439.747C226.32 441.937 226.685 442.667 228.876 441.937L227.78 439.747ZM235.446 439.747L234.351 441.937C238.731 445.587 244.572 448.143 251.873 449.603C254.063 450.333 254.793 449.603 254.063 447.413L246.397 446.318L235.446 439.747ZM229.971 441.937C228.511 444.127 228.876 444.857 231.066 444.127L229.971 441.937ZM232.161 444.127L234.351 447.413L246.397 452.888L248.587 451.793C242.017 450.333 236.541 447.778 232.161 444.127ZM224.495 445.222L226.685 448.508H227.78L224.495 445.222ZM90.8932 446.318C94.5435 451.428 100.384 455.078 108.415 457.269C112.795 457.999 115.715 457.269 117.176 455.078L106.225 453.983L90.8932 446.318ZM228.876 448.508V449.603H229.971L228.876 448.508ZM231.066 449.603V450.698L240.922 453.983H244.207L231.066 449.603ZM87.6079 453.983L91.9883 457.269L106.225 460.554C108.415 461.284 109.145 460.554 108.415 458.364L87.6079 453.983ZM83.2275 456.173C83.9576 459.824 87.2428 462.014 93.0834 462.744H101.844C93.8134 462.014 87.6079 459.824 83.2275 456.173ZM52.5647 459.459L45.9941 470.41L42.7088 486.836L45.9941 506.548L50.3745 515.309C53.2948 519.689 58.0402 522.974 64.6108 525.165L72.2765 524.07L73.3716 521.879L70.0863 522.974L60.2304 519.689L50.3745 508.738L44.899 484.646L48.1843 469.315L52.5647 461.649V459.459ZM194.928 462.744V463.839C196.388 463.109 196.753 463.839 196.023 466.029C198.213 468.95 201.498 470.775 205.879 471.505C208.069 470.775 208.799 471.505 208.069 473.695L199.308 471.505L197.118 472.6C200.768 476.25 205.879 478.44 212.449 479.171L209.164 480.266L205.879 479.171L203.688 480.266L199.308 478.075L198.213 480.266C200.403 483.186 204.418 484.281 210.259 483.551V484.646L199.308 483.551L200.403 485.741C201.863 485.011 202.228 485.741 201.498 487.931L204.783 490.121L217.925 493.407V489.026V486.836L215.734 483.551H217.925L214.639 479.171L215.734 475.885H217.925L213.544 472.6V471.505C215.734 472.235 216.464 471.505 215.734 469.315C211.354 470.045 208.069 468.95 205.879 466.029L204.783 468.22L194.928 462.744ZM55.85 473.695L56.9451 479.171L63.5157 482.456L72.2765 484.646C78.117 485.376 82.1324 484.281 84.3226 481.361C74.1017 482.091 66.436 480.631 61.3255 476.98V479.171L55.85 473.695ZM194.928 474.79L193.832 476.98H194.928V474.79ZM54.7549 481.361L53.6598 483.551C58.0402 489.391 64.9758 493.407 74.4667 495.597L71.1814 496.692L62.4206 494.502L58.0402 491.217L54.7549 492.312C57.6752 496.692 62.7856 499.612 70.0863 501.072L71.1814 503.263C65.3409 503.263 60.9605 501.803 58.0402 498.882L54.7549 499.977L62.4206 504.358C63.8807 503.628 64.2458 504.358 63.5157 506.548L61.3255 505.453L58.0402 506.548C59.5004 508.738 62.4206 509.833 66.801 509.833H68.9912L74.4667 510.928H71.1814L67.8961 512.023L61.3255 509.833L60.2304 512.023L66.801 515.309L76.6569 516.404L81.0373 495.597H79.9422L81.0373 491.217C82.4974 491.947 82.8625 491.217 82.1324 489.026H81.0373L61.3255 485.741L54.7549 481.361ZM200.403 491.217V493.407L210.259 497.787L216.83 496.692C219.02 495.962 219.02 494.867 216.83 493.407L214.639 494.502L205.879 493.407L200.403 491.217Z" fill="#0A0A0A"/>
<path opacity="0.996078" d="M200.951 59.7482C205.186 59.2371 207.558 60.5148 208.069 63.581L210.26 76.7222L208.069 84.3879L202.046 90.4109C198.615 90.995 196.607 90.0824 196.023 87.6732C195.512 85.775 196.242 85.2275 198.214 86.0305V82.1977L194.928 70.1516L200.951 59.7482ZM204.784 67.4139L203.689 69.6041L200.404 70.6992V78.3649H202.594L201.499 76.1747L202.594 71.7943L205.879 77.2698V71.7943L204.784 67.4139Z" fill="#0A0A0A"/>
<path opacity="0.996078" d="M216.281 128.738L228.327 138.594L251.871 150.092L250.229 150.64C235.847 145.675 224.531 138.375 216.281 128.738Z" fill="#0A0A0A"/>
<path opacity="0.996078" d="M249.134 194.444C251.981 196.561 255.814 197.291 260.632 196.634V204.847L257.347 218.536L246.396 216.346L249.134 194.444ZM256.252 199.919L252.967 201.014V211.965H255.157L256.252 206.49V199.919Z" fill="#0A0A0A"/>
<path opacity="0.996078" d="M285.82 196.635C288.01 195.759 288.74 196.671 288.01 199.373L286.367 204.301L285.82 196.635Z" fill="#0A0A0A"/>
<path opacity="0.996078" d="M297.319 199.92H306.08L306.627 202.11L297.319 201.015V199.92Z" fill="#0A0A0A"/>
<path opacity="0.996078" d="M227.231 205.396L227.779 210.323L223.946 222.917L223.398 219.084L227.231 205.396Z" fill="#0A0A0A"/>
<path opacity="0.996078" d="M268.846 213.061L269.394 215.798L267.204 216.893L268.846 213.061Z" fill="#0A0A0A"/>
<path opacity="0.996078" d="M287.462 220.727L292.39 221.822C293.193 223.793 292.646 224.523 290.748 224.012L285.82 222.37L287.462 220.727Z" fill="#0A0A0A"/>
<path opacity="0.996078" d="M268.846 222.917L269.393 224.56L265.56 236.059L265.013 233.321L268.846 222.917Z" fill="#0A0A0A"/>
<path opacity="0.996078" d="M245.848 224.012L252.966 226.202L249.681 240.986H250.776L252.419 234.963L252.966 237.701L250.229 244.819C247.381 242.702 243.549 241.972 238.73 242.629C237.927 240.658 238.475 239.928 240.373 240.439L242.015 238.796L245.848 224.012Z" fill="#0A0A0A"/>
<path opacity="0.996078" d="M263.371 228.392L263.919 232.224L261.729 240.985L262.824 244.271L260.086 249.198L257.348 248.103L263.371 228.392ZM260.633 244.818L259.538 247.008H260.633V244.818Z" fill="#0A0A0A"/>
<path opacity="0.996078" d="M283.63 230.583L295.676 231.678L292.391 251.389C289.616 249.126 285.236 248.396 279.25 249.199C281.878 244.162 283.338 237.956 283.63 230.583ZM286.915 237.153L284.725 244.819L288.01 245.914L290.2 241.534C291.661 237.153 290.566 235.693 286.915 237.153Z" fill="#0A0A0A"/>
<path opacity="0.996078" d="M257.895 236.058L258.443 239.891L255.705 245.914L255.157 244.271L257.895 236.058Z" fill="#0A0A0A"/>
<path opacity="0.996078" d="M254.61 237.153L255.157 239.891L254.062 245.914C252.091 246.717 251.361 246.169 251.872 244.271L254.61 237.153Z" fill="#0A0A0A"/>
<path opacity="0.996078" d="M175.763 239.343L180.691 240.986L175.215 241.533L175.763 239.343Z" fill="#0A0A0A"/>
<path opacity="0.996078" d="M186.714 241.533C190.949 240.292 192.591 241.022 191.642 243.724L186.714 242.628V241.533Z" fill="#0A0A0A"/>
<path opacity="0.996078" d="M240.375 282.052L244.208 283.694L242.565 284.242L240.375 282.052Z" fill="#0A0A0A"/>
<path opacity="0.996078" d="M266.109 297.383C268.08 296.579 268.81 297.127 268.299 299.025L266.109 300.12V297.383Z" fill="#0A0A0A"/>
<path opacity="0.996078" d="M238.184 299.574L243.112 301.216L241.469 301.764L238.184 300.669V299.574Z" fill="#0A0A0A"/>
<path opacity="0.996078" d="M266.655 301.764L267.203 303.407L265.56 306.145L262.822 304.502L266.655 301.764Z" fill="#0A0A0A"/>
<path opacity="0.996078" d="M226.138 322.571L226.686 336.26H225.591L226.138 322.571Z" fill="#0A0A0A"/>
<path opacity="0.996078" d="M223.948 342.282L224.496 347.21L222.306 348.305L223.948 342.282Z" fill="#0A0A0A"/>
<path opacity="0.996078" d="M279.798 375.135L283.631 375.683L275.417 377.325V376.23L279.798 375.135Z" fill="#0A0A0A"/>
<path opacity="0.996078" d="M140.72 412.37L156.599 414.56L156.052 416.751H148.386L140.72 413.465V412.37Z" fill="#0A0A0A"/>
</svg>
