<svg width="199" height="341" viewBox="0 0 199 341" fill="none" xmlns="http://www.w3.org/2000/svg">
<rect width="198.43" height="340.16" rx="10" fill="#590E0E"/>
<rect x="8.625" y="8.625" width="181.18" height="322.91" rx="5.375" stroke="#EFB85F" stroke-width="1.25"/>
<rect x="14.375" y="14.375" width="169.68" height="311.41" rx="2.625" stroke="#EFB85F" stroke-width="0.75"/>
<path d="M151.138 160.596L151.525 162.58L152.983 163.98L150.999 164.367L149.6 165.826L149.213 163.841L147.754 162.442L149.738 162.054L151.138 160.596Z" fill="#EFB85F"/>
<path d="M142.108 201.675L141.974 203.943L143.954 205.059L141.685 204.925L140.57 206.905L140.703 204.636L138.724 203.521L140.992 203.655L142.108 201.675Z" fill="#EFB85F"/>
<path d="M162.13 189.256C161.188 192.458 161.336 193.016 162.934 192.298C161.336 193.016 161.816 193.425 165.552 194.524C161.816 193.425 161.191 193.508 162.146 194.978C161.191 193.508 160.765 193.897 159.823 197.1C160.765 193.897 160.617 193.339 159.019 194.058C160.617 193.339 160.137 192.931 156.401 191.832C160.137 192.931 160.762 192.848 159.807 191.378C160.762 192.848 161.188 192.458 162.13 189.256Z" fill="#EFB85F"/>
<path d="M135.153 234.365L135.54 236.349L136.998 237.748L135.015 238.135L133.615 239.594L133.228 237.61L131.769 236.21L133.753 235.823L135.153 234.365Z" fill="#EFB85F"/>
<path d="M130.323 165.662L130.189 167.931L132.169 169.046L129.901 168.912L128.785 170.892L128.919 168.624L126.939 167.508L129.207 167.642L130.323 165.662Z" fill="#EFB85F"/>
<line x1="144.85" y1="202.131" x2="157.239" y2="194.586" stroke="#EFB85F" stroke-dasharray="3 3"/>
<line x1="161.496" y1="190.035" x2="165.186" y2="180.949" stroke="#EFB85F" stroke-dasharray="3 3"/>
<line x1="135.535" y1="233.349" x2="140.27" y2="210.332" stroke="#EFB85F" stroke-dasharray="3 3"/>
<line x1="154.304" y1="165.123" x2="164.821" y2="174.318" stroke="#EFB85F" stroke-dasharray="3 3"/>
<line x1="130.777" y1="167.383" x2="147.296" y2="163.088" stroke="#EFB85F" stroke-dasharray="3 3"/>
<path d="M165.931 177.548L169.346 178.432L165.996 177.327L167.39 176.506L165.946 177.234L166.83 173.819L165.724 177.169L164.904 175.775L165.631 177.22L162.216 176.336L165.566 177.441L164.172 178.262L165.617 177.534L164.733 180.949L165.838 177.599L166.659 178.993L165.931 177.548Z" fill="#EFB85F"/>
<path d="M131.74 48.4766L132.281 48.2238L132.809 47.9778L148.122 75.5439L147.634 75.8626L147.134 76.1879L148.372 78.5879L158.378 72.9978L168.378 67.3956L167.1 65.0964L166.572 65.3425L166.032 65.5952L150.712 38.017L151.111 37.7952C151.765 37.4322 151.759 37.3085 151.064 36.1428L150.43 35.0859L140.39 40.6155L130.357 46.1572L131.74 48.4766ZM150.993 37.0691L131.861 47.6968L131.532 47.1038C131.276 46.644 131.244 46.4719 131.381 46.3482C131.477 46.2635 135.761 43.8839 140.898 41.0458L150.248 35.8994L150.993 37.0691ZM141.294 61.57C146.3 70.5543 148.819 75.1729 148.734 75.2199C148.649 75.267 146.011 70.604 140.942 61.449C136.599 53.6317 133.374 47.7116 133.508 47.8111C133.643 47.9106 137.146 54.1037 141.294 61.57ZM135.368 46.9682C135.306 47.2559 135.278 47.8892 135.306 48.3961C135.361 49.2364 135.438 49.4314 136.143 50.702C136.855 51.9538 137 52.1581 137.796 52.7928C139.125 53.8752 140.338 54.405 143.437 55.2804C146.687 56.1988 147.428 56.5632 147.976 57.4937C148.506 58.4187 148.421 59.1784 147.436 62.307C146.237 66.108 146.15 67.8034 147.014 70.1577C147.597 71.7187 148.963 73.2085 150.474 73.905L150.815 74.0637L149.339 74.8838L134.013 47.2935L135.513 46.46L135.368 46.9682ZM148.071 40.1332C150.124 40.8929 151.505 43.1504 151.62 45.9524C151.669 47.3507 151.553 47.9692 150.604 51.2202C149.719 54.2454 149.63 55.0548 150.048 56.121C150.473 57.1993 150.987 57.4683 154.919 58.5615C158.313 59.5109 158.59 59.6104 159.606 60.3284C161.581 61.7174 162.713 63.6697 162.752 65.7067C162.762 66.7783 162.629 67.2798 162.2 67.6764C161.896 67.956 161.894 67.9251 162.143 66.9476C162.528 65.388 162.288 64.3016 161.433 63.7315C160.955 63.4115 159.565 63.2178 158.254 63.281C156.881 63.3468 154.766 63.1598 153.794 62.8922L152.984 62.6609L149.414 56.0618L149.373 54.9916C149.336 54.1257 149.503 53.2571 150.234 50.5547C151.205 46.9433 151.352 45.6109 150.842 44.8647L150.591 44.4976L149.629 45.0475C148.583 45.6444 147.946 46.236 146.488 47.9166C145.645 48.9074 145.582 49.0217 145.89 48.9774C146.439 48.9102 149.032 47.5644 149.489 47.1046C150.024 46.5856 150.113 46.6314 149.692 47.2135C149.214 47.8911 147.807 48.7516 146.499 49.1616C145.918 49.3417 144.488 49.6455 143.325 49.8324C140.918 50.2034 140.317 50.3472 139.148 50.8379C137.999 51.334 137.953 51.5652 138.875 52.2564C139.995 53.0752 140.841 53.4289 143.974 54.3648C148.325 55.6692 148.608 55.9233 151.121 60.4182L152.492 62.8868L152.219 63.7351C151.886 64.7597 150.955 66.5909 150.077 67.9179C149.293 69.1292 148.835 70.4132 148.956 71.0586C149.125 71.9622 149.904 72.6223 151.317 73.0567C152.196 73.3283 152.196 73.3283 151.793 73.4574C150.545 73.8338 148.269 71.9312 147.485 69.8646C146.674 67.7496 146.789 65.9601 148.004 62.1336C148.994 58.9552 149.044 58.3892 148.419 57.2638C147.794 56.1384 147.261 55.8641 143.538 54.7493C140.424 53.8188 140.122 53.7018 139.003 52.9138C138.339 52.4594 137.547 51.775 137.227 51.3985C136.096 50.0472 135.591 48.2536 135.947 46.8996L136.154 46.1037L147.398 39.8898L148.071 40.1332ZM157.131 52.4239C163.531 63.944 164.743 66.1841 164.632 66.3252C164.567 66.4086 164.223 66.6156 163.871 66.7796L163.234 67.0862L163.297 66.2593C163.402 65.1084 163.205 64.1565 162.634 62.9853C161.468 60.545 159.017 58.8978 155.51 58.1703C152.24 57.5006 150.93 56.882 150.531 55.8212C150.202 54.9432 150.292 54.3073 151.256 50.8263C152.161 47.5524 152.298 46.5736 152.087 44.854C151.916 43.492 151.527 42.5051 150.845 41.6486C150.092 40.7208 149.166 39.9369 148.53 39.7043L148.025 39.5093L149.502 38.6892L157.131 52.4239ZM157.921 52.3338C162.029 59.7585 165.388 65.8896 165.371 65.9461C165.327 66.0658 165.273 65.969 157.145 51.3079C150.114 38.6503 149.905 38.2751 150.204 38.5844C150.339 38.7148 153.805 44.8971 157.921 52.3338ZM167.251 66.4222C167.416 66.6628 167.533 66.9304 167.506 67.0245C167.485 67.0998 163.223 69.5466 158.045 72.4546L148.626 77.7342L148.234 77.113L147.848 76.5039L157.397 71.2311L166.953 65.9704L167.251 66.4222Z" fill="#EFB85F"/>
<path d="M131.687 46.5272C131.727 46.5998 132.322 46.3322 133.235 45.8093C134.167 45.2916 134.6 44.9878 134.409 45.0147C133.978 45.0644 131.606 46.3819 131.687 46.5272Z" fill="#EFB85F"/>
<path d="M131.955 47.0111C131.996 47.0837 133.317 46.4129 135.653 45.1155C137.988 43.8181 139.256 43.0505 139.216 42.9778C139.176 42.9052 137.854 43.5761 135.518 44.8735C133.183 46.1708 131.915 46.9385 131.955 47.0111Z" fill="#EFB85F"/>
<path d="M136.516 47.0113C136.263 47.6109 136.43 48.8801 136.868 49.6976C137.226 50.3699 137.484 50.6066 137.559 50.343C137.581 50.2677 137.438 49.8402 137.251 49.3898C136.891 48.5131 136.802 47.8973 136.863 47.0086C136.923 46.4049 136.762 46.3995 136.516 47.0113Z" fill="#EFB85F"/>
<path d="M147.972 64.2417C147.47 65.6763 147.509 68.1408 148.058 68.7862L148.274 69.0619L148.215 68.6988C148.043 67.876 148.058 65.9358 148.23 64.7634C148.33 64.0589 148.385 63.474 148.335 63.47C148.297 63.4592 148.127 63.8075 147.972 64.2417Z" fill="#EFB85F"/>
<path d="M148.485 76.6251C148.484 76.7367 149.218 76.3764 150.627 75.5778C151.879 74.8666 152.602 74.4014 152.357 74.474C151.72 74.638 148.489 76.4328 148.485 76.6251Z" fill="#EFB85F"/>
<path d="M148.754 77.1091C148.738 77.308 152.847 75.0414 153.48 74.4995C153.754 74.2522 153.032 74.6057 151.331 75.5347C149.727 76.4099 148.762 77.0096 148.754 77.1091Z" fill="#EFB85F"/>
<path d="M154.562 73.8824C155.278 73.6592 157.432 72.4627 157.89 72.0338C158.135 71.8187 157.546 72.0983 156.142 72.8781C154.751 73.6511 154.214 73.9967 154.562 73.8824Z" fill="#EFB85F"/>
<path d="M34.0325 97.0433C34.1819 97.0745 34.475 97.1336 34.6737 97.185C35.7329 97.4335 36.9374 97.263 38.0037 96.7185C39.0578 96.1822 39.8734 95.5038 40.2308 94.8704C40.3477 94.6632 40.469 94.4887 40.4985 94.4901C40.537 94.4891 40.7716 94.6518 41.0335 94.8604C41.6462 95.3351 41.8995 95.4781 42.2426 95.5426C42.3953 95.5681 42.7081 95.6459 42.9479 95.7053C43.9876 95.9883 44.2173 96.0117 45.0097 95.9123C45.8914 95.8026 46.4744 95.6305 46.9804 95.3391C47.5657 95.0014 48.1342 94.5858 48.2284 94.4189C48.2609 94.3613 48.3352 94.2969 48.3802 94.2844C48.5423 94.2392 49.168 93.3322 49.4688 92.7049C49.8979 91.8235 50.0331 91.1938 50.0537 90.0137C50.0638 89.7537 49.5801 87.9474 49.4937 87.8986C49.4592 87.8791 49.3632 87.7263 49.2738 87.562C48.9498 86.9389 48.0313 86.0107 47.3576 85.6305C46.8049 85.3186 45.7905 85.0043 45.1629 84.9462C44.8683 84.9166 44.851 84.9069 44.7994 84.7563C44.7685 84.663 44.7604 84.5293 44.7764 84.4472C44.8814 84.0055 44.8663 83.1848 44.7383 82.5508C44.5562 81.6358 44.5336 81.5547 44.3153 81.0672C44.2256 80.8495 44.1556 80.6506 44.1686 80.6276C44.1849 80.5988 44.3795 80.4961 44.6004 80.4006C45.3236 80.0875 45.8549 79.4688 46.037 78.729C46.1573 78.22 46.1511 77.9888 45.9996 77.4098L45.8656 76.8939L48.4865 72.209C49.933 69.632 51.4582 66.9022 51.8806 66.1537C52.3005 65.3962 52.6784 64.7668 52.7151 64.742C52.7577 64.7205 53.1276 64.8989 53.6401 65.188C54.2561 65.5357 54.5192 65.6613 54.5772 65.6258C54.6288 65.6017 54.8233 65.3243 55.025 65.0206L55.3787 64.4611L55.5842 64.5543C55.6943 64.6013 55.8022 64.6925 55.8173 64.7466C55.8323 64.8006 55.7199 65.094 55.5683 65.4031C55.4166 65.7123 55.3067 66.0146 55.3218 66.0687C55.3418 66.1407 55.9449 66.5114 57.3202 67.3027C58.3994 67.9192 59.3297 68.4365 59.374 68.4388C59.4971 68.4627 60.5335 66.626 60.4786 66.4812C60.4603 66.4329 60.2182 66.2431 59.9451 66.0814C59.2474 65.6498 59.2463 65.6112 59.7922 64.6439C60.0358 64.2121 60.1948 63.8767 60.1797 63.8226C60.1621 63.7596 59.7598 63.5174 58.9958 63.1091C57.6553 62.3906 57.729 62.5156 58.1999 61.8022L58.4944 61.361L59.2173 61.7614C60.9224 62.7083 60.8122 62.6614 61.0386 62.5158C61.2037 62.4116 61.3094 62.2511 61.6405 61.6105L62.0463 60.8375L62.6161 61.1059C62.9342 61.255 63.2538 61.3747 63.3219 61.3751C63.44 61.3811 63.51 61.2839 63.9389 60.5239C64.2508 59.9712 64.4064 59.6415 64.3791 59.5957C64.3576 59.5532 63.4584 59.0078 62.3767 58.3823C60.8236 57.4755 60.3968 57.2499 60.324 57.2847C60.2782 57.312 60.0617 57.6149 59.8495 57.9506L59.4633 58.5677L59.2348 58.4616C58.8731 58.2954 58.8718 58.2036 59.2357 57.5587C59.6515 56.8217 59.6979 56.901 58.4446 56.0952L57.797 55.669L58.3478 54.7197L58.8987 53.7704L58.9303 53.2569C58.97 52.4063 58.6516 51.9079 57.8331 51.5826C57.4732 51.4402 56.9037 51.5212 56.4968 51.785L56.2336 51.9554L49.6827 63.5243C42.2903 76.5844 43.0829 75.3009 42.234 75.581C41.6741 75.7661 41.2963 76.0994 40.9609 76.7072C40.6685 77.2254 40.5683 77.8065 40.6742 78.2914C40.7154 78.474 40.727 78.6552 40.6978 78.707C40.6718 78.7531 40.3983 78.8341 40.0853 78.8776C39.4708 78.9711 38.7658 79.1578 38.3543 79.3355C38.1031 79.4443 37.4118 79.8892 37.0787 80.1567C36.8966 80.3044 36.7227 80.2898 36.6275 80.1222C36.3699 79.6505 35.4695 78.8919 34.7271 78.5261C33.5859 77.9656 32.8856 77.821 31.8004 77.9146C31.1136 77.9749 29.9528 78.337 29.4035 78.6647C29.007 78.8965 28.887 78.9881 28.3043 79.5095C27.6596 80.087 26.7268 81.9822 26.7713 82.6298C26.7759 82.7158 26.7584 82.8275 26.7292 82.8793C26.661 83.0002 26.6405 83.7629 26.6993 84.1833C26.8555 85.319 27.3859 86.4912 28.1036 87.2909C28.4963 87.725 29.567 88.4507 30.162 88.6878C30.8704 88.966 30.8373 88.917 30.6034 89.3316C30.3824 89.7231 30.1675 90.4672 30.1551 90.8928C30.0967 92.2339 30.1973 92.9435 30.5573 93.8526C30.9205 94.7559 31.1272 95.0623 31.8576 95.7857C32.269 96.2 33.5868 96.9588 34.0325 97.0433ZM33.077 94.4318C32.0403 93.323 31.7308 92.0553 32.1301 90.5271C32.2811 89.9367 32.3623 89.7927 32.7652 89.3748C33.027 89.1126 33.2378 88.9811 33.9037 88.6889C34.3578 88.4896 34.7945 88.2806 34.8656 88.222C34.9456 88.1609 35.0559 88.0865 35.1107 88.0567C35.4704 87.8497 35.9893 87.3607 36.4153 86.8344C36.7435 86.4275 36.8491 86.3884 37.0029 86.627C37.0874 86.7733 37.3237 86.9599 38.012 87.4621C38.3149 87.6786 38.4653 87.7483 39.2925 88.0177C39.502 88.0904 39.5212 88.2985 39.3568 88.684C38.9948 89.5273 38.9013 91.0383 39.1507 91.9685C39.2679 92.4066 39.183 93.095 38.9653 93.4808C38.7899 93.7917 38.2316 94.4179 37.9807 94.58C37.9162 94.6271 37.7691 94.7263 37.6498 94.8032C37.2421 95.0817 36.7946 95.2695 36.3883 95.3438C35.9311 95.4275 35.0766 95.4083 34.5643 95.2938C34.0872 95.1841 33.4226 94.8014 33.077 94.4318ZM29.6456 86.2937C29.4816 86.1404 29.3215 85.9666 29.2827 85.9143C28.9298 85.3963 28.8278 85.1869 28.6969 84.7867C28.4799 84.0949 28.4539 83.3743 28.6113 82.5977C28.7414 81.95 29.3456 81.0004 29.9253 80.5381C30.416 80.1394 31.754 79.7861 32.5447 79.8376C33.2231 79.8864 33.4211 79.9526 34.1394 80.3882C34.8033 80.7856 34.8601 80.8329 35.1361 81.2316C35.5444 81.8263 35.8472 82.9309 35.7922 83.6741C35.7518 84.2434 35.5542 84.9973 35.356 85.3485C35.2 85.6249 34.6417 86.2511 34.4154 86.3966C34.3173 86.4628 34.2275 86.5411 34.208 86.5757C34.1918 86.6045 34.03 86.7029 33.8566 86.7949C33.6808 86.8778 33.5279 86.9738 33.5117 87.0026C33.4662 87.0832 32.6686 87.2859 32.5822 87.2372C32.5419 87.2145 32.4829 87.2115 32.4584 87.228C32.3718 87.3007 31.5065 87.2602 31.1796 87.1669C30.7124 87.0398 29.9869 86.6305 29.6456 86.2937ZM41.4158 92.609C40.8018 91.7464 40.6103 90.902 40.7696 89.7318C40.8162 89.3937 41.544 88.1039 41.8093 87.8893C41.9171 87.8059 42.1024 87.6524 42.2257 87.5549C42.3432 87.4543 42.6359 87.2854 42.8748 87.1849C43.1137 87.0844 43.3206 86.9734 43.3368 86.9446C43.405 86.8237 44.0113 86.7179 44.519 86.7463C45.2187 86.7844 45.7072 86.9006 46.116 87.1313C46.473 87.3327 47.268 88.0091 47.4761 88.2859C47.6066 88.4582 47.849 88.9973 47.9501 89.3428C48.0963 89.8504 48.1359 90.9507 48.0027 91.1868C47.9694 91.2591 47.939 91.3937 47.9396 91.5003C47.941 91.7668 47.4407 92.6535 47.1696 92.8649C47.0618 92.9483 46.9467 93.058 46.9208 93.1041C46.833 93.2595 46.4481 93.4978 45.8672 93.7469C45.1743 94.0467 44.9106 94.1104 44.4284 94.104C43.6059 94.0953 43.1336 93.9503 42.3207 93.4536C41.8295 93.1537 41.7529 93.0877 41.4158 92.609ZM38.7082 85.7978C38.6075 85.6803 38.4806 85.5555 38.4287 85.5262C38.3712 85.4937 38.1871 85.2684 38.007 85.0226C37.6533 84.5193 37.5301 84.0247 37.5869 83.3053C37.6162 82.9574 37.6671 82.8268 37.9733 82.2708C38.3086 81.663 38.3462 81.6234 38.7203 81.3639C39.2596 81.0002 39.9611 80.766 40.3427 80.8295C40.5101 80.8557 40.7596 80.8978 40.8918 80.9192C41.2972 80.981 41.6517 81.1734 41.9674 81.4882C42.6864 82.2051 42.961 82.808 42.9068 83.5365C42.8371 84.4536 42.3678 85.3123 41.7099 85.7381C40.9663 86.2218 40.2347 86.348 39.3448 86.1494C38.9293 86.0516 38.9351 86.0549 38.7082 85.7978Z" fill="#EFB85F"/>
<path d="M53.3605 249.101C48.0986 252.626 44.9172 256.797 42.9334 262.827C42.295 264.766 41.0927 270.735 41.261 271.124C41.32 271.26 41.6433 271.42 41.9912 271.477C42.8375 271.619 43.6115 271.007 43.886 269.987C44.0067 269.52 44.3467 268.172 44.6511 266.955C44.9749 265.73 45.6185 263.696 46.0978 262.404C47.1227 259.651 47.2849 259.119 47.0321 259.229C46.6432 259.397 44.7544 262.5 43.9956 264.214C43.5514 265.215 43.1785 265.953 43.1532 265.895C43.027 265.603 44.5982 260.86 45.2584 259.558C48.2414 253.649 54.4894 248.936 62.1324 246.804C64.3391 246.195 67.3092 245.856 69.2681 245.955C71.2549 246.064 74.2842 246.715 76.0952 247.432C77.1455 247.832 77.9871 248.229 77.9456 248.293C77.932 248.369 76.927 248.18 75.7464 247.906C72.132 247.024 68.1947 246.835 66.7558 247.458C65.9003 247.828 66.2372 247.913 68.8973 248.032C72.7206 248.223 76.51 249.03 78.1077 250.001C78.7406 250.397 78.646 250.391 77.1311 249.985C70.6288 248.298 65.6861 248.614 60.039 251.035C54.9642 253.232 51.4937 255.935 48.8451 259.737C47.597 261.547 45.6804 266.186 44.6643 269.812C44.1206 271.756 44.0776 272.19 44.3731 272.339C45.6747 272.999 55.9469 273.955 59.6018 273.758C64.8172 273.486 68.6625 272.075 71.6599 269.346C75.2564 266.081 77.4258 262.879 80.2217 256.751L81.5382 253.872L80.9078 253.429C80.0041 252.782 80.0456 252.718 81.3034 252.796C81.9183 252.83 82.8502 252.796 83.3952 252.722C85.1359 252.476 85.0413 252.471 84.8144 252.8C84.7093 252.984 84.1986 253.298 83.693 253.517C82.3514 254.097 82.105 254.435 81.2261 256.778C80.1928 259.511 78.1247 263.8 77.0374 265.448C76.21 266.684 74.3902 268.88 73.0931 270.203C72.2283 271.086 72.5594 271.104 73.6802 270.226C76.8648 267.716 80.6915 261.996 82.1856 257.448L82.7714 255.601L84.2181 254.836C85.2927 254.279 85.9169 253.801 86.6178 252.966C88.4045 250.854 88.8036 251.189 81.4035 248.228C74.7279 245.554 72.8676 245.043 69.1694 244.82C63.938 244.522 57.6956 246.209 53.3605 249.101ZM68.7065 250.631C69.8833 250.629 69.9669 250.662 70.1222 251.288C70.3028 251.971 71.4324 253.514 71.6657 253.413C71.7435 253.379 71.6912 252.779 71.5301 252.087C71.3884 251.386 71.3724 250.816 71.4949 250.832C71.6452 250.859 71.9755 251.409 72.2812 252.062C72.5868 252.714 72.9734 253.447 73.169 253.686C73.5071 254.094 73.5182 254.066 73.4122 253.234C73.3631 252.748 73.2331 252.18 73.1405 251.967C72.8543 251.306 73.0197 250.888 73.4434 251.12C73.803 251.31 73.9293 251.602 75.0381 255.07C75.3559 256.018 75.3643 256.037 75.4235 255.48C75.4612 255.141 75.3883 254.226 75.2629 253.403C75.1459 252.599 75.1267 251.915 75.2239 251.873C75.5934 251.713 75.888 252.393 76.3492 254.526C76.6125 255.774 76.8973 256.805 76.9809 256.838C77.045 256.879 77.1419 255.983 77.1572 254.845C77.2044 253.301 77.2973 252.822 77.548 252.921C78.2445 253.197 78.1877 258.186 77.4561 259.749C77.1662 260.359 76.912 260.839 76.8563 260.817C76.8006 260.795 76.6795 260.408 76.5916 259.939C76.5036 259.469 76.3826 259.082 76.3269 259.06C76.2711 259.038 76.0849 259.835 75.916 260.831C75.6523 262.515 75.3993 263.318 75.0966 263.472C75.0188 263.505 74.9924 263.124 75.0185 262.651C75.0446 262.178 75.0292 261.769 74.9735 261.747C74.9177 261.725 74.6168 262.363 74.3249 263.182C73.6749 264.988 72.3264 266.726 70.2463 268.481C68.9537 269.548 68.3652 269.895 66.4791 270.712C63.8931 271.831 62.0389 272.241 59.0515 272.38C56.4814 272.523 52.6828 272.228 51.6713 271.812C50.2588 271.269 48.0963 267.98 47.8274 265.972C47.6561 264.777 47.9153 264.895 48.4209 266.223C48.9576 267.676 49.889 269.028 51.1088 270.139C52.3034 271.192 52.4279 270.999 51.3357 269.81C49.59 267.911 48.0879 264.174 48.6262 263.018C48.7449 262.758 48.9083 262.549 48.964 262.571C49.0197 262.593 49.256 263.299 49.5039 264.138C50.1291 266.223 50.341 266.339 50.0112 264.404C49.6361 262.257 49.6247 261.431 49.982 260.976C50.2672 260.622 50.2951 260.633 50.3726 261.292C50.5038 262.182 51.0231 263.435 51.136 263.109C51.1827 262.95 51.1887 262.324 51.1559 261.715C51.0206 259.695 51.5173 258.603 53.2313 257.122C53.5612 256.818 53.5644 256.932 53.2426 257.948C52.3875 260.72 52.8076 263.77 54.3555 266.332C57.3502 271.223 63.9953 272.387 68.9624 268.875C70.4441 267.818 71.5379 266.398 72.274 264.578C73.7795 260.856 73.0331 256.838 70.3014 253.888C69.1367 252.638 67.1658 251.552 65.6793 251.318C65.0197 251.234 64.4657 251.128 64.4488 251.089C64.3899 250.953 67.5491 250.624 68.7065 250.631ZM57.481 255.259C57.4979 255.298 57.4097 255.521 57.2936 255.733C57.0919 256.12 57.064 256.109 57.1821 255.689C57.3002 255.268 57.4137 255.104 57.481 255.259ZM62.8795 254.077C63.5528 254.085 64.5857 254.285 65.2097 254.499C66.0676 254.775 66.3708 254.782 66.459 254.559C66.5362 254.364 66.6886 254.182 66.8052 254.132C66.9025 254.09 66.8616 254.315 66.6819 254.647C66.3973 255.163 66.3947 255.21 66.7647 255.212C66.9649 255.194 67.3759 254.97 67.6475 254.691C67.8997 254.42 68.1855 254.227 68.2969 254.271C68.3805 254.304 68.2119 254.608 67.8904 254.932C67.1254 255.725 67.2659 256.103 68.1319 255.543C68.4677 255.305 68.8644 254.995 68.9947 254.87C69.125 254.744 69.2585 254.732 69.3005 254.829C69.351 254.946 69.0768 255.273 68.708 255.594C67.8426 256.315 67.9636 256.701 68.8795 256.097C69.2431 255.87 69.6178 255.616 69.7066 255.554C69.8038 255.512 69.9347 255.548 70.052 255.659C70.1413 255.758 69.9365 256.032 69.5035 256.312C68.421 257.011 68.5473 257.303 69.6945 256.806C70.9 256.284 71.1714 256.698 70.0079 257.317C68.9028 257.911 68.9539 258.189 70.1296 257.865C71.4886 257.484 71.6317 257.814 70.3679 258.362C69.2012 258.867 69.2219 259.181 70.4117 258.943C70.8816 258.855 71.2794 258.867 71.2911 259.001C71.3253 259.24 70.9838 259.411 70.1413 259.545C69.232 259.684 69.5391 259.967 70.6103 259.988C71.1222 259.998 71.5732 260.079 71.6153 260.177C71.7079 260.39 71.669 260.407 70.673 260.4C69.4378 260.427 69.2777 260.75 70.4855 260.873C71.0422 260.933 71.5547 261.103 71.6052 261.22C71.7567 261.57 71.5454 261.615 70.613 261.488C69.0682 261.279 69.0447 261.705 70.5817 262.055C71.2471 262.206 71.5789 262.386 71.5127 262.553C71.4355 262.748 71.0655 262.746 70.4752 262.609C69.2583 262.305 69.1701 262.528 70.3072 263.075C71.1125 263.442 71.5453 263.855 71.2925 263.964C71.2342 263.989 70.7132 263.799 70.1308 263.52C68.8433 262.947 68.7499 263.264 69.977 264.072C71.1315 264.819 70.9655 265.075 69.739 264.429C68.4121 263.71 68.2209 263.909 69.3676 264.797C70.6231 265.778 70.4766 266.026 69.1549 265.213C67.9446 264.444 67.826 264.703 68.9007 265.692C70.0564 266.762 69.7316 266.972 68.5066 265.955C67.2984 264.978 67.1408 265.254 68.2193 266.518C68.6021 266.976 68.8262 267.387 68.7626 267.507C68.6297 267.68 68.1218 267.253 67.4761 266.401C67.3083 266.174 67.0349 265.969 66.8846 265.942C66.7148 265.923 66.8469 266.281 67.2697 267.045C68.1181 268.524 67.796 268.687 66.8199 267.286C66.4255 266.694 66.0038 266.254 65.926 266.287C65.8288 266.329 65.9783 266.888 66.2561 267.53C66.9126 269.046 66.6125 269.153 65.781 267.712C65.0278 266.399 64.7614 266.584 65.2787 268.045C65.5007 268.665 65.5524 269.104 65.4026 269.238C65.2224 269.409 65.0909 269.212 64.7673 268.197C64.2443 266.669 63.8411 266.751 64.1724 268.316C64.283 268.892 64.2711 269.451 64.1518 269.549C63.9716 269.719 63.8933 269.592 63.7716 269.044C63.2871 266.645 62.9775 266.409 63.0908 268.484C63.1236 269.094 63.067 269.603 62.9892 269.637C62.7365 269.746 62.6996 269.554 62.667 268.252L62.6461 267.084L64.4433 266.329C65.9489 265.7 66.3236 265.446 66.9025 264.756C68.7249 262.513 69.0164 259.293 67.5876 257.326C66.6983 256.071 64.8693 254.993 63.2772 254.782C61.9773 254.606 61.8716 254.629 60.2636 255.394C59.3471 255.837 58.6083 256.157 58.6498 256.093C58.6718 256.037 58.9739 255.721 59.3233 255.408C60.2743 254.512 61.5245 254.04 62.8795 254.077ZM55.7744 257.984C56.0615 258.113 56.1956 258.263 56.0789 258.314C55.9622 258.364 55.692 258.273 55.4828 258.11C55.2735 257.947 55.1394 257.797 55.1783 257.78C55.2172 257.763 55.4874 257.854 55.7744 257.984ZM55.625 258.972C55.9898 259.068 56.1823 259.192 56.0656 259.243C55.9295 259.302 55.5621 259.253 55.2167 259.149C54.4035 258.924 54.7645 258.744 55.625 258.972ZM55.4756 259.96C56.0297 260.067 56.1301 260.139 55.8773 260.248C55.4301 260.442 54.6175 260.378 54.5165 260.144C54.3902 259.853 54.6488 259.81 55.4756 259.96ZM62.999 257.073C63.5367 257.302 63.672 257.774 63.3511 258.259C62.8557 258.982 61.685 258.357 61.9211 257.516C62.0723 257.012 62.4417 256.852 62.999 257.073ZM61.1179 258.487C61.1269 258.668 61.0433 258.635 60.9507 258.421C60.8387 258.216 60.8465 258.074 60.9385 258.126C61.0221 258.159 61.1173 258.326 61.1179 258.487ZM55.3683 261.046C55.7273 261.075 55.8556 261.158 55.689 261.253C55.1835 261.472 54.4214 261.525 54.3456 261.35C54.2362 261.097 54.6698 260.979 55.3683 261.046ZM56.0425 262.07C56.2875 262.102 56.1404 262.189 55.5817 262.338C55.1203 262.446 54.6336 262.495 54.4664 262.429C54.1321 262.296 55.4691 261.972 56.0425 262.07ZM55.7843 262.966C56.6793 262.741 56.7835 263.088 55.9474 263.45C55.2863 263.736 54.7051 263.78 54.604 263.547C54.5115 263.333 54.7448 263.232 55.7843 262.966ZM49.2843 271.044C49.7254 271.477 50.0914 271.895 50.0499 271.96C49.915 272.341 48.8272 271.588 48.0305 270.548C47.2312 269.555 47.1218 269.302 47.0042 268.337L46.864 267.267L47.654 268.772C48.1442 269.691 48.7596 270.579 49.2843 271.044ZM56.7702 264.017C56.3268 264.486 55.0241 265.05 54.9231 264.817C54.8726 264.7 55.325 264.412 55.975 264.154C56.7722 263.809 56.9919 263.783 56.7702 264.017ZM65.6779 260.808C65.6564 261.025 65.5273 261.473 65.3671 261.796C65.0552 262.462 65.0534 261.978 65.3615 261.037C65.6204 260.301 65.7286 260.231 65.6779 260.808ZM66.7409 260.116C66.783 260.214 66.7479 260.506 66.6849 260.787C66.5642 261.255 66.5558 261.236 66.5314 260.646C66.5374 260.02 66.6146 259.825 66.7409 260.116ZM79.5645 255.073C79.5405 255.337 79.4801 255.571 79.4218 255.597C79.3829 255.613 79.346 255.422 79.3701 255.157C79.3942 254.893 79.4545 254.659 79.5129 254.634C79.5517 254.617 79.5886 254.809 79.5645 255.073ZM56.8994 265.116C56.104 265.945 55.7404 266.172 55.631 265.919C55.5468 265.724 56.5924 264.833 57.234 264.555C57.4395 264.443 57.3014 264.711 56.8994 265.116ZM63.4337 262.61C63.459 262.669 63.4039 262.808 63.3014 262.945C63.199 263.081 63.1711 263.07 63.19 262.9C63.2251 262.608 63.3664 262.455 63.4337 262.61ZM46.5168 270.465C46.6009 270.659 46.9138 271.008 47.204 271.252C47.9212 271.842 47.9102 271.87 47.0529 271.756C45.8839 271.616 45.6662 271.433 45.8615 270.818C46.0788 270.146 46.3316 270.037 46.5168 270.465ZM58.2681 265.077C58.2933 265.136 57.9529 265.629 57.5043 266.193C56.8424 267.01 56.6427 267.189 56.4639 266.99C56.3104 266.848 56.4511 266.533 56.9056 266.037C57.5402 265.369 58.1923 264.902 58.2681 265.077ZM58.3329 266.827C57.7421 268.076 57.512 268.291 57.3903 267.743C57.3056 267.387 58.498 265.555 58.7403 265.635C58.8239 265.668 58.6422 266.208 58.3329 266.827ZM60.6969 265.088C60.7973 265.16 60.8588 265.249 60.8005 265.274C60.7422 265.299 60.6029 265.244 60.5024 265.172C60.3936 265.081 60.3405 265.011 60.3988 264.986C60.4572 264.961 60.588 264.996 60.6969 265.088ZM59.4743 266.264C59.609 266.575 58.6453 268.562 58.3919 268.51C58.2027 268.499 58.2929 268.068 58.6159 267.374C59.1237 266.254 59.348 265.972 59.4743 266.264ZM60.3516 266.53C60.6024 266.63 59.9179 268.888 59.6068 269.023C59.1985 269.2 59.1979 269.038 59.6105 267.752C59.9706 266.557 60.0451 266.409 60.3516 266.53ZM61.3235 266.802C61.3572 266.88 61.0169 268.92 60.8878 269.369C60.8742 269.444 60.7322 269.436 60.5651 269.37C60.3422 269.282 60.3436 268.912 60.6103 268.034C60.9178 266.932 61.1889 266.491 61.3235 266.802ZM62.1194 268.374C62.0829 269.036 61.9654 269.618 61.8682 269.66C61.5571 269.795 61.5422 269.547 61.7067 268.114C61.8816 266.491 62.2218 266.69 62.1194 268.374Z" fill="#EFB85F"/>
<path d="M54.8589 251.016C53.2962 251.992 50.6638 254.125 49.7607 255.185C48.9101 256.154 48.2714 257.238 48.4943 257.327C48.5779 257.36 49.3435 256.728 50.2056 255.893C53.0586 253.203 54.8767 252.07 59.3877 250.117C63.2375 248.451 63.3542 248.4 62.7944 248.227C62.4853 248.153 61.7342 248.178 61.1393 248.297C59.9021 248.532 56.4217 250.039 54.8589 251.016Z" fill="#EFB85F"/>
<path d="M82.3976 259.111C80.6984 263.079 79.5266 265.225 77.6218 267.758C76.5144 269.254 73.351 272.239 71.7636 273.319C67.809 276.024 62.1972 277.46 57.2937 277.066C56.1694 276.976 55.2233 276.924 55.1845 276.94C55.1456 276.957 55.1572 277.091 55.2245 277.246C55.3845 277.616 57.876 278.038 59.9736 278.03C62.1464 278.036 64.5683 277.657 67.0083 276.947C70.9352 275.778 74.9475 272.887 78.2571 268.799C80.2014 266.411 80.7214 265.585 82.215 262.422C83.3635 260.009 83.6937 259.011 83.7946 257.698C83.8918 256.109 83.5398 256.469 82.3976 259.111Z" fill="#EFB85F"/>
<path d="M50.5647 275.015C50.7162 275.365 53.5952 275.989 55.6656 276.132C57.9725 276.287 61.0377 276.115 63.2146 275.704C65.3053 275.306 69.7773 273.37 70.5144 272.566C71.0408 271.969 71.0214 271.978 68.6214 272.994C67.2713 273.555 65.5765 274.173 64.8261 274.359C62.5636 274.946 58.7751 275.155 54.6985 274.911C50.7554 274.656 50.4132 274.665 50.5647 275.015Z" fill="#EFB85F"/>
<path d="M150.247 117.147C149.914 117.274 149.501 117.437 149.326 117.526C148.702 117.845 148.693 117.78 149.773 121.229C150.927 124.915 150.929 124.812 149.721 124.456C149.1 124.277 148.916 124.267 148.442 124.415C147.042 124.854 146.323 126.458 146.823 128.054C147.203 129.269 148.717 130.095 149.89 129.727C150.426 129.56 151.241 129.022 151.341 128.764C151.452 128.504 151.867 128.385 152.048 128.566C152.121 128.656 152.64 130.313 153.188 132.244L154.181 135.777L154.462 135.881C154.862 136.039 155.756 135.826 158.338 134.973C160.387 134.297 160.628 134.2 160.758 133.966C160.949 133.636 160.84 133.251 160.392 132.759C159.937 132.245 159.802 131.779 159.904 131.057C160.011 130.244 160.447 129.542 161.065 129.168C162.076 128.569 163.115 128.639 163.972 129.354C164.529 129.835 164.819 130.615 164.744 131.532C164.697 132.247 164.922 132.606 165.423 132.653C165.781 132.677 171.588 130.825 171.838 130.611C172.014 130.454 172.051 129.775 171.888 129.544C171.772 129.354 170.614 125.873 170.094 124.103C169.712 122.809 169.753 122.616 170.374 122.794C172.271 123.331 173.821 122.359 173.932 120.584C173.953 120.181 173.887 119.863 173.682 119.317C173.164 117.987 172.151 117.241 171.033 117.354C170.312 117.433 169.84 117.694 169.409 118.269C169.231 118.495 169.029 118.75 168.966 118.838C168.895 118.939 168.779 118.964 168.643 118.927C168.446 118.876 168.329 118.574 167.359 115.655L166.295 112.439L165.999 112.396C165.798 112.368 164.722 112.649 162.663 113.259L159.62 114.156L159.458 114.467C159.246 114.872 159.307 115.068 159.749 115.506C160.205 115.951 160.519 116.881 160.478 117.618C160.379 119.107 158.768 120.278 157.376 119.877C156.073 119.506 155.202 118.241 155.412 117.033C155.496 116.543 155.298 115.984 154.973 115.814C154.717 115.68 154.58 115.711 152.784 116.296C151.717 116.641 150.58 117.02 150.247 117.147ZM152.993 117.757C152.951 118.019 152.449 118.944 152.417 118.841C152.391 118.759 152.928 117.585 153 117.562C153.021 117.556 153.015 117.648 152.993 117.757ZM164.134 114.743C164.118 114.873 164.054 115.028 164.005 115.089C163.953 115.139 163.958 115.047 164.002 114.864C164.111 114.49 164.198 114.407 164.134 114.743ZM164.992 115.244C164.723 115.938 163.868 117.506 163.833 117.392C163.788 117.248 165.029 114.678 165.11 114.72C165.151 114.742 165.099 114.973 164.992 115.244ZM152.993 119.961C152.508 121.153 152.128 121.927 152.047 121.885C151.98 121.85 153.185 119.2 153.278 119.171C153.308 119.161 153.172 119.521 152.993 119.961ZM164.895 117.173C164.683 117.579 164.486 117.889 164.448 117.878C164.408 117.857 164.547 117.508 164.76 117.102C164.972 116.697 165.168 116.386 165.206 116.397C165.246 116.419 165.107 116.767 164.895 117.173ZM153.368 121.517C153.263 121.798 153.125 122.079 153.076 122.139C153.027 122.2 153.093 121.976 153.225 121.64C153.358 121.305 153.486 121.028 153.517 121.018C153.547 121.008 153.472 121.236 153.368 121.517ZM166.37 117.299C166.338 117.343 166.298 117.322 166.275 117.25C166.253 117.177 166.274 117.137 166.325 117.155C166.368 117.186 166.388 117.248 166.37 117.299ZM155.257 121.016C155.222 121.23 154.182 123.647 153.956 124.046C153.762 124.4 154.221 123.16 154.738 121.958C155.234 120.797 155.329 120.631 155.257 121.016ZM156.691 121.301C156.698 121.322 156.589 121.514 156.468 121.744L156.222 122.149L156.414 121.716C156.606 121.317 156.666 121.219 156.691 121.301ZM151.861 123.311C151.862 123.424 151.822 123.369 151.77 123.204C151.716 123.029 151.714 122.95 151.764 123.002C151.807 123.068 151.852 123.212 151.861 123.311ZM160.498 120.46C160.504 120.481 160.448 120.589 160.377 120.69C160.255 120.875 160.241 120.868 160.323 120.662C160.406 120.455 160.472 120.378 160.498 120.46ZM162.242 120.253C162.248 120.274 162.192 120.382 162.121 120.483C161.999 120.668 161.985 120.661 162.067 120.455C162.15 120.248 162.216 120.171 162.242 120.253ZM166.295 119.154C166.017 119.964 164.935 122.428 165.063 121.97C165.137 121.664 166.275 118.945 166.337 118.926C166.357 118.92 166.331 119.018 166.295 119.154ZM160.247 121.104C160.257 121.135 160.221 121.202 160.162 121.266C160.103 121.33 160.09 121.323 160.108 121.238C160.142 121.092 160.221 121.021 160.247 121.104ZM162.062 120.762C162.068 120.782 162.012 120.891 161.942 120.992C161.819 121.177 161.805 121.17 161.887 120.963C161.97 120.757 162.036 120.679 162.062 120.762ZM171.508 118.076C171.521 118.117 171.447 118.242 171.349 118.363C171.157 118.581 171.157 118.581 171.282 118.293C171.417 118.002 171.469 117.952 171.508 118.076ZM158.158 122.99C157.499 124.711 157.039 125.805 156.965 125.896C156.847 126.023 156.829 126.074 157.388 124.61C157.779 123.584 158.167 122.727 158.239 122.705C158.259 122.698 158.219 122.824 158.158 122.99ZM163.928 121.308C163.935 121.328 163.878 121.437 163.808 121.538C163.685 121.723 163.672 121.716 163.754 121.509C163.836 121.303 163.903 121.225 163.928 121.308ZM172.375 119.149C172.344 119.193 172.303 119.172 172.281 119.1C172.258 119.028 172.279 118.987 172.33 119.005C172.374 119.037 172.393 119.098 172.375 119.149ZM149.769 126.453C149.684 126.83 149.199 127.954 149.256 127.665C149.298 127.403 149.754 126.152 149.806 126.136C149.827 126.13 149.814 126.269 149.769 126.453ZM163.455 122.541C163.297 122.975 163.058 123.547 162.927 123.814L162.696 124.305L162.856 123.803C163.034 123.216 163.633 121.807 163.705 121.785C163.725 121.778 163.617 122.118 163.455 122.541ZM171.02 119.766C171.029 119.797 170.994 119.864 170.935 119.928C170.876 119.992 170.862 119.985 170.881 119.9C170.914 119.754 170.994 119.684 171.02 119.766ZM156.979 124.388C156.989 124.419 156.954 124.486 156.895 124.55C156.835 124.614 156.822 124.607 156.841 124.522C156.874 124.376 156.954 124.305 156.979 124.388ZM161.531 123.291C161.438 123.535 161.067 124.408 160.717 125.241C160.078 126.775 159.754 127.363 160.234 126.116C160.907 124.368 161.527 122.919 161.62 122.89C161.672 122.874 161.638 123.054 161.531 123.291ZM167.065 121.434C166.98 121.811 166.486 123.051 166.156 123.73C165.873 124.305 165.902 124.217 166.26 123.302C166.51 122.659 166.786 121.95 166.875 121.73C167.044 121.293 167.128 121.165 167.065 121.434ZM170.91 120.139C170.917 120.16 170.86 120.268 170.79 120.369C170.667 120.554 170.654 120.547 170.736 120.341C170.818 120.134 170.885 120.057 170.91 120.139ZM155.014 125.693C154.848 126.027 154.686 126.304 154.655 126.314C154.624 126.324 154.745 126.06 154.911 125.725C155.078 125.39 155.24 125.113 155.271 125.104C155.301 125.094 155.181 125.358 155.014 125.693ZM158.589 125.195C158.485 125.477 158.347 125.757 158.298 125.818C158.249 125.878 158.314 125.654 158.447 125.319C158.579 124.983 158.707 124.706 158.738 124.696C158.769 124.687 158.693 124.914 158.589 125.195ZM172.166 120.538C172.175 120.568 172.14 120.636 172.081 120.7C172.022 120.764 172.008 120.756 172.027 120.672C172.06 120.525 172.14 120.455 172.166 120.538ZM172.056 120.911C172.063 120.932 172.006 121.04 171.936 121.141C171.813 121.326 171.8 121.319 171.882 121.112C171.964 120.906 172.031 120.829 172.056 120.911ZM162.746 124.391C162.756 124.422 162.72 124.49 162.661 124.553C162.602 124.617 162.588 124.61 162.607 124.525C162.64 124.379 162.72 124.309 162.746 124.391ZM158.21 126.15C158.216 126.171 158.16 126.279 158.089 126.38C157.967 126.566 157.953 126.559 158.035 126.352C158.118 126.145 158.184 126.068 158.21 126.15ZM155.552 127.808C155.251 128.614 154.637 130.05 154.596 130.063C154.565 130.072 154.591 129.974 154.641 129.845C154.694 129.727 154.916 129.171 155.128 128.619C155.342 128.077 155.549 127.617 155.58 127.607C155.61 127.597 155.595 127.693 155.552 127.808ZM157.888 126.929C157.895 126.95 157.838 127.058 157.768 127.159C157.645 127.345 157.632 127.338 157.714 127.131C157.796 126.924 157.862 126.847 157.888 126.929ZM163.667 125.493C163.638 125.615 163.502 125.975 163.345 126.306C163.026 126.983 163.089 126.68 163.429 125.85C163.675 125.265 163.735 125.167 163.667 125.493ZM157.445 128.04C157.341 128.322 157.202 128.602 157.154 128.663C157.105 128.723 157.17 128.499 157.303 128.164C157.435 127.829 157.563 127.551 157.594 127.542C157.625 127.532 157.549 127.759 157.445 128.04ZM158.716 127.948C158.431 128.772 157.863 130.17 157.811 130.186C157.781 130.196 157.878 129.894 158.022 129.522C158.178 129.156 158.394 128.546 158.527 128.176C158.664 127.817 158.802 127.502 158.823 127.496C158.854 127.486 158.806 127.693 158.716 127.948ZM161.673 127.101C161.682 127.132 161.647 127.2 161.588 127.263C161.528 127.327 161.515 127.32 161.534 127.235C161.567 127.089 161.647 127.019 161.673 127.101ZM167.594 125.507C167.544 125.636 167.359 126.09 167.197 126.513C166.706 127.797 166.251 128.799 166.184 128.764C166.129 128.735 166.988 126.567 167.385 125.742C167.608 125.299 167.765 125.114 167.594 125.507ZM157.136 128.86C157.146 128.891 157.111 128.959 157.051 129.023C156.992 129.086 156.979 129.079 156.997 128.994C157.031 128.848 157.111 128.778 157.136 128.86ZM155.567 129.985C155.505 130.185 155.405 130.408 155.346 130.472C155.245 130.583 155.311 130.359 155.514 129.854C155.661 129.492 155.697 129.571 155.567 129.985ZM166.239 126.847C166.177 127.047 166.064 127.298 165.987 127.412C165.92 127.524 165.95 127.367 166.068 127.059C166.305 126.442 166.42 126.304 166.239 126.847ZM168.32 126.67C168.259 126.87 168.159 127.094 168.1 127.158C167.999 127.268 168.064 127.044 168.268 126.54C168.415 126.177 168.451 126.256 168.32 126.67ZM169.374 127.833C169.137 128.483 168.871 129.188 168.772 129.412L168.601 129.804L168.689 129.437C168.838 128.792 169.667 126.565 169.737 126.611C169.778 126.632 169.621 127.179 169.374 127.833ZM155.928 131.5C155.934 131.52 155.878 131.628 155.808 131.73C155.685 131.915 155.671 131.908 155.754 131.701C155.836 131.495 155.902 131.417 155.928 131.5ZM167.163 129.113C167.173 129.143 167.138 129.211 167.078 129.275C167.019 129.339 167.006 129.331 167.024 129.246C167.058 129.1 167.137 129.03 167.163 129.113ZM166.983 129.621C166.99 129.642 166.933 129.75 166.863 129.851C166.74 130.036 166.727 130.029 166.809 129.823C166.891 129.616 166.957 129.539 166.983 129.621ZM157.338 132.754C157.348 132.785 157.312 132.852 157.253 132.916C157.194 132.98 157.18 132.973 157.199 132.888C157.232 132.742 157.312 132.672 157.338 132.754ZM157.225 133.117C157.232 133.138 157.147 133.3 157.038 133.492L156.827 133.83L156.984 133.464C157.14 133.132 157.2 133.035 157.225 133.117ZM170.439 129.104C170.445 129.125 170.389 129.233 170.319 129.334C170.196 129.52 170.182 129.513 170.265 129.306C170.347 129.099 170.413 129.022 170.439 129.104ZM157.911 133.14C157.917 133.16 157.861 133.268 157.791 133.37C157.668 133.555 157.654 133.548 157.737 133.341C157.819 133.135 157.885 133.057 157.911 133.14Z" fill="#EFB85F"/>
<path d="M142.537 259.671C140.739 259.937 139.384 260.591 137.996 261.8C135.75 263.766 134.848 265.833 134.581 269.56L134.421 271.835L133.554 271.889C132.506 271.968 131.697 272.529 131.356 273.39C131.164 273.864 131.007 276.103 130.719 282.186C130.353 290.116 130.355 290.368 130.705 291.11C130.956 291.701 131.278 292.027 132.059 292.489L133.083 293.093L142.762 293.694C153.553 294.364 153.68 294.354 154.92 293.226C156.102 292.147 156.101 292.165 156.63 283.651C156.957 278.381 157.053 275.688 156.956 275.214C156.714 274.191 155.849 273.346 154.887 273.178L154.104 273.04L154.047 271.938C154.03 271.343 154.039 270.318 154.061 269.672C154.393 263.467 148.895 258.698 142.537 259.671ZM147.315 261.246C149.996 262.114 151.795 264.151 152.561 267.168C152.833 268.3 152.897 269.006 152.808 270.728C152.729 272.576 152.673 272.897 152.419 272.935C152.166 272.955 152.132 272.629 152.17 270.58C152.2 268.063 152.028 266.775 151.461 265.48C150.814 264.018 149.285 262.555 147.858 262.071C147.206 261.851 147.374 262.041 148.412 262.699C149.312 263.277 148.863 263.267 147.784 262.678C146.565 262.027 144.462 261.698 143.025 261.951C140.843 262.319 138.862 263.779 137.706 265.885C137.115 267 137.047 267.23 136.856 269.431C136.721 270.736 136.564 271.806 136.475 271.801C136.385 271.795 136.37 270.876 136.421 269.764C136.552 267.379 136.257 267.774 136.068 270.246C135.981 271.356 135.901 271.765 135.787 271.578C135.43 270.944 135.94 267.665 136.659 265.946C137.46 264.052 139.207 262.289 141.148 261.456C142.869 260.699 145.394 260.604 147.315 261.246ZM147.12 262.943C147.43 263.16 146.509 262.923 145.969 262.637C145.742 262.533 145.814 262.52 146.24 262.618C146.576 262.711 146.982 262.844 147.12 262.943ZM147.314 264.16C149.628 265.438 150.781 268.317 150.274 271.542L150.069 272.825L144.227 272.426L138.369 272.008L138.405 270.571C138.468 268.11 139.06 266.401 140.344 265.131C141.553 263.911 142.97 263.405 144.925 263.508C146.037 263.577 146.443 263.693 147.314 264.16ZM137.573 270.915C137.498 270.964 137.448 270.907 137.456 270.782C137.464 270.656 137.521 270.606 137.589 270.664C137.638 270.739 137.632 270.847 137.573 270.915ZM153.438 274.78L153.969 274.921L153.543 275.128C153.228 275.27 152.255 275.282 150.283 275.177L147.45 275.001L147.368 275.752L147.302 276.522L147.278 275.747C147.248 275.079 147.199 274.986 146.805 274.961C146.393 274.936 146.372 274.988 146.288 276.045C146.19 277.334 145.924 276.976 145.988 275.666C146.032 274.661 145.597 274.706 145.463 275.706C145.422 276.081 145.312 276.686 145.22 277.022C145.079 277.553 145.049 277.443 145.031 276.291C145.023 275.552 144.953 274.936 144.846 274.93C144.756 274.924 144.614 275.473 144.537 276.134C144.363 277.779 143.974 277.665 144.007 275.975C144.023 275.13 143.955 274.784 143.808 274.829C143.663 274.856 143.56 275.354 143.49 276.195C143.426 276.929 143.297 277.551 143.207 277.563C142.987 277.621 142.852 276.605 142.922 275.476C142.948 275.064 142.897 274.719 142.79 274.712C142.682 274.705 142.574 275.292 142.523 276.117C142.474 276.906 142.36 277.582 142.267 277.631C142.006 277.776 141.913 277.249 141.99 275.994C142.045 275.116 142.008 274.843 141.793 274.83C141.578 274.817 141.542 275.102 141.538 276.614C141.542 277.999 141.477 278.463 141.266 278.684C141.016 278.938 140.982 278.9 140.914 278.266C140.865 277.885 140.874 276.878 140.926 276.036C140.981 274.869 140.945 274.579 140.773 274.731C140.621 274.865 140.398 277.011 139.97 282.454C139.66 286.574 139.337 290.026 139.261 290.094C139.185 290.161 139.341 286.788 139.601 282.593C139.861 278.417 140.08 274.886 140.088 274.76C140.098 274.599 139.456 274.505 137.502 274.384C133.092 274.11 133.27 273.851 132.627 281.602C132.357 284.788 132.104 287.418 132.047 287.468C131.723 287.754 132.193 276.429 132.56 275.156C132.793 274.289 133.292 273.798 134.136 273.527C134.76 273.331 136.142 273.399 143.898 273.971C148.859 274.333 153.155 274.708 153.438 274.78ZM136.927 278.432C136.855 279.004 136.866 278.537 136.936 277.407C137.006 276.278 137.053 275.813 137.055 276.371C137.055 276.947 136.997 277.879 136.927 278.432ZM151.165 278.057C151.112 278.342 151.09 278.107 151.124 277.569C151.157 277.031 151.207 276.8 151.227 277.071C151.245 277.36 151.218 277.791 151.165 278.057ZM133.935 277.347C133.87 277.523 133.841 277.413 133.859 277.126C133.878 276.822 133.921 276.698 133.968 276.809C133.996 276.937 133.981 277.188 133.935 277.347ZM134.609 280.988C134.53 281.667 134.547 281.11 134.629 279.783C134.712 278.457 134.764 277.902 134.759 278.568C134.752 279.251 134.686 280.327 134.609 280.988ZM145.13 279.626C145.685 280.254 145.714 280.364 145.577 281.111C145.488 281.681 145.284 282.065 144.902 282.419L144.368 282.907L144.481 284.858C144.541 285.923 144.612 287.097 144.643 287.459L144.691 288.146L143.239 288.056L141.787 287.965L141.942 287.201C142.022 286.792 142.236 285.654 142.423 284.676L142.767 282.898L142.2 282.179C141.067 280.723 142.066 278.842 143.95 278.923C144.398 278.951 144.693 279.131 145.13 279.626ZM149.564 280.657C149.511 280.942 149.489 280.706 149.523 280.169C149.556 279.631 149.606 279.4 149.626 279.671C149.644 279.96 149.617 280.39 149.564 280.657ZM155.323 280.655C155.258 280.831 155.231 280.685 155.252 280.344C155.273 280.004 155.318 279.863 155.362 280.027C155.386 280.209 155.368 280.496 155.323 280.655ZM148.248 281.565C148.187 281.687 148.156 281.595 148.172 281.344C148.188 281.093 148.229 281.006 148.276 281.117C148.304 281.244 148.291 281.46 148.248 281.565ZM150.781 284.241C150.706 284.867 150.717 284.399 150.791 283.216C150.864 282.033 150.913 281.533 150.915 282.09C150.915 282.666 150.855 283.634 150.781 284.241ZM133.685 281.38C133.623 281.502 133.593 281.41 133.608 281.159C133.624 280.908 133.665 280.821 133.712 280.932C133.74 281.06 133.727 281.275 133.685 281.38ZM138.766 283.585C138.712 283.87 138.691 283.634 138.724 283.097C138.758 282.559 138.808 282.328 138.827 282.599C138.845 282.888 138.818 283.318 138.766 283.585ZM140.575 283.428C140.512 283.568 140.462 283.51 140.474 283.313C140.469 283.115 140.529 283.011 140.578 283.086C140.629 283.143 140.637 283.305 140.575 283.428ZM133.644 285.516C133.631 286.001 133.536 286.373 133.429 286.367C133.321 286.36 133.288 285.728 133.365 284.779C133.465 283.472 133.509 283.331 133.597 283.948C133.644 284.347 133.672 285.05 133.644 285.516ZM134.498 285.659C134.433 285.835 134.407 285.69 134.428 285.349C134.449 285.008 134.494 284.867 134.537 285.032C134.562 285.213 134.544 285.5 134.498 285.659ZM136.806 286.162C136.741 286.338 136.712 286.229 136.73 285.942C136.749 285.637 136.793 285.514 136.84 285.625C136.868 285.752 136.852 286.003 136.806 286.162ZM134.432 286.735C134.367 286.911 134.337 286.801 134.355 286.514C134.374 286.209 134.418 286.086 134.465 286.197C134.493 286.325 134.477 286.576 134.432 286.735ZM151.377 289.137C151.321 289.457 151.298 289.24 151.335 288.648C151.372 288.057 151.424 287.79 151.444 288.061C151.463 288.332 151.433 288.816 151.377 289.137ZM138.558 287.801C138.522 288.374 138.461 288.497 138.348 288.292C138.137 287.919 138.192 287.022 138.425 287.037C138.533 287.043 138.584 287.388 138.558 287.801ZM147.77 289.273C147.719 289.503 147.694 289.322 147.722 288.874C147.75 288.426 147.797 288.249 147.82 288.466C147.841 288.701 147.819 289.06 147.77 289.273ZM149.59 288.936C149.525 289.112 149.496 289.002 149.514 288.715C149.533 288.41 149.576 288.287 149.623 288.398C149.651 288.526 149.636 288.777 149.59 288.936ZM154.62 289.068C154.545 289.118 154.495 289.061 154.502 288.935C154.51 288.81 154.567 288.759 154.636 288.817C154.685 288.892 154.678 289 154.62 289.068ZM151.709 292.486C151.634 292.536 151.526 292.529 151.458 292.471C151.408 292.396 151.465 292.345 151.591 292.353C151.716 292.361 151.767 292.418 151.709 292.486ZM137.359 291.757C137.301 291.807 137.139 291.815 137.017 291.754C136.877 291.691 136.934 291.641 137.131 291.653C137.329 291.647 137.434 291.708 137.359 291.757ZM141.767 292.049C141.335 292.058 140.653 292.016 140.243 291.954C139.815 291.892 140.158 291.877 141.001 291.929C141.843 291.982 142.181 292.039 141.767 292.049ZM144.228 292.4C143.491 292.39 142.831 292.295 142.764 292.219C142.697 292.143 143.291 292.143 144.094 292.247L145.558 292.428L144.228 292.4ZM150.909 292.617C150.781 292.645 150.53 292.629 150.371 292.583C150.195 292.518 150.305 292.489 150.592 292.507C150.896 292.526 151.02 292.57 150.909 292.617Z" fill="#EFB85F"/>
<path d="M82.3573 177.302C79.0094 175.27 75.8915 174.009 73.7172 173.802C72.5768 173.696 72.5161 173.655 71.8116 172.41C70.9309 170.869 70.2096 170.01 68.1943 168.191C66.8963 167.009 65.5621 165.979 63.6207 164.673C60.5873 162.631 60.6987 162.662 60.0149 163.678C59.7087 164.134 59.6326 164.148 58.8276 163.871C57.243 163.312 56.8428 163.219 56.4925 163.314C55.9443 163.473 42.8358 182.725 43.0016 183.101C43.0719 183.258 45.9484 185.238 49.4118 187.525C55.479 191.541 55.7065 191.694 55.9119 192.273C56.6439 194.198 58.4284 195.443 61.0329 195.829L62.1324 195.996L68.3353 200.302C73.2845 203.72 74.5991 204.583 74.8225 204.513C75.0357 204.458 77.0614 201.48 81.517 194.695C88.708 183.779 88.3808 184.396 87.3456 183.413C86.2095 182.318 86.1397 182.029 86.7328 180.885C86.9322 180.491 86.8969 180.445 85.7043 179.532C85.022 179.007 83.5102 178.012 82.3573 177.302ZM68.4255 169.845C69.7632 171.23 70.7363 172.501 71.1984 173.517L71.4948 174.158L66.1064 182.1C63.1569 186.483 60.6877 190.022 60.627 189.981C60.5815 189.95 60.1833 189.396 59.7703 188.766C58.6268 187.027 56.7681 185.335 53.7601 183.289C52.3495 182.34 50.8477 181.396 50.4277 181.201L49.6737 180.848L51.1381 178.704C51.9595 177.516 54.5057 173.765 56.8172 170.363L61.0066 164.169L64.1001 166.383C66.3041 167.954 67.537 168.938 68.4255 169.845ZM85.3743 180.809C85.3638 180.89 82.9036 184.677 79.8979 189.177L74.417 197.387L73.3457 196.556C72.7544 196.092 71.2479 195.056 69.989 194.209C67.1475 192.341 64.1512 191.096 61.9212 190.874C61.8401 190.863 64.1831 187.218 67.1378 182.794L72.5166 174.735L73.5505 174.836C74.8682 174.973 77.5215 175.811 78.9886 176.578C80.4962 177.35 85.3702 180.585 85.3743 180.809ZM85.9135 182.758C86.0045 182.819 85.9275 183.032 85.7543 183.224C85.5861 183.441 85.473 183.806 85.4922 184.039C85.5363 184.399 85.2092 185.016 83.678 187.357C79.2373 194.219 77.2828 197.156 76.8704 197.54C76.6056 197.802 76.4779 198.025 76.5584 198.167C76.634 198.284 76.5932 198.345 76.4715 198.329C76.3499 198.313 76.0134 198.748 75.6303 199.416C75.1961 200.159 74.9462 200.498 74.8249 200.416C74.7339 200.355 74.5842 199.791 74.5109 199.147C74.3282 198.011 74.3384 197.995 74.8668 197.734C75.3089 197.503 75.4874 197.27 75.958 196.309C76.5566 195.059 77.5404 193.826 77.523 194.343C77.5172 194.516 77.777 194.228 78.1599 193.626C78.7469 192.721 78.7521 192.68 78.2937 193.165L77.7793 193.7L78.1062 193.149C78.2849 192.851 78.515 192.411 78.587 192.173C78.6948 191.848 78.766 191.808 78.8564 192.001C78.9469 192.194 78.9825 192.174 78.9783 191.951C78.9949 191.632 79.8936 190.165 80.0301 190.257C80.0756 190.288 80.4378 189.782 80.8361 189.125C81.3519 188.26 81.5864 187.977 81.6567 188.134C81.7068 188.256 81.7929 188.292 81.8439 188.216C81.9052 188.125 81.8602 187.963 81.7797 187.821C81.5831 187.556 82.0327 186.757 82.2906 186.93C82.3816 186.992 82.5038 186.876 82.5553 186.668C82.6069 186.46 83.2656 185.383 84.0107 184.276C85.7661 181.667 85.7048 181.758 85.7332 182.24C85.7373 182.463 85.8225 182.697 85.9135 182.758ZM59.1349 165.51C58.8646 165.879 58.6908 166.203 58.7667 166.254C58.9638 166.387 58.6174 166.77 58.359 166.729C58.1563 166.703 58.1359 166.733 58.2214 166.901C58.2969 167.018 58.2354 167.174 58.1082 167.265C57.9811 167.356 57.4457 168.053 56.8949 168.806C56.3694 169.555 55.6862 170.439 55.3756 170.737C54.958 171.161 54.8761 171.348 55.0126 171.44C55.1339 171.522 55.0622 171.694 54.777 171.987C54.5478 172.229 54.3084 172.487 54.2472 172.578C54.1961 172.653 53.063 174.403 51.736 176.441C49.7709 179.459 49.3213 180.258 49.3094 180.669C49.3019 181.237 49.4188 181.161 47.4187 181.71C47.1446 181.79 46.8346 181.956 46.7632 182.062C46.6815 182.184 46.529 182.28 46.4225 182.274C46.3312 182.279 46.4397 181.823 46.7006 181.271C46.9616 180.72 47.2068 180.29 47.2675 180.331C47.313 180.361 47.4503 180.255 47.5626 180.088C47.6749 179.922 47.7212 179.755 47.6606 179.714C47.5089 179.612 48.1399 179.067 48.3934 179.083C48.5252 179.084 48.6069 178.962 48.6127 178.79C48.6185 178.618 48.915 178.046 49.2673 177.49C49.6347 176.944 49.9822 176.296 50.0391 176.048C50.1315 175.78 50.2079 175.699 50.2581 175.821C50.3185 175.927 50.5325 175.675 50.8544 175.098C51.2836 174.329 51.3854 174.244 51.5315 174.452C51.6474 174.64 51.764 174.631 51.9069 174.418C52.009 174.267 52.0708 174.044 52.0104 173.937C51.9602 173.815 51.894 173.881 51.8424 174.088C51.7858 174.271 51.7348 174.346 51.715 174.245C51.6201 173.895 52.2482 172.863 52.6239 172.763C52.8828 172.673 52.9134 172.628 52.7309 172.637C52.5839 172.626 52.5133 172.535 52.5643 172.459C52.6256 172.368 52.7676 172.353 52.884 172.409C52.9901 172.481 53.0257 172.461 52.9502 172.344C52.8746 172.227 53.4925 171.21 54.9566 169.133C56.1046 167.459 57.1657 165.948 57.2882 165.766C57.4107 165.584 57.6903 165.397 57.9085 165.368C58.1217 165.313 58.3048 165.172 58.3206 165.05C58.3217 164.787 59.4588 164.472 59.5694 164.701C59.5994 164.787 59.4052 165.141 59.1349 165.51ZM58.1849 164.761C58.1237 164.852 57.865 164.876 57.6016 164.809L57.1204 164.705L45.0469 182.648L50.9425 186.461L56.8484 190.259L57.1691 191.158C57.5399 192.179 58.4987 193.242 59.4854 193.708C60.2394 194.061 61.9418 194.347 62.3177 194.182C62.4854 194.096 64.0578 195.132 68.5013 198.254L74.4816 202.433L77.2269 198.353C78.7272 196.123 81.4067 192.043 83.1626 189.302C86.164 184.645 86.3631 184.316 86.1412 184.057C86.0099 183.924 85.9702 183.722 86.0519 183.6C86.1539 183.449 86.2551 183.495 86.5375 183.861C86.8802 184.334 86.8802 184.334 86.0687 185.573C85.6095 186.255 84.8744 187.413 84.4099 188.136C83.9454 188.859 81.5619 192.5 79.1069 196.246L74.626 203.037L62.7255 194.853L61.5344 194.756C59.4613 194.595 57.3886 193.156 56.6864 191.384L56.3754 190.602L44.4534 182.712L49.8933 174.562C52.8635 170.082 55.7156 165.942 56.1845 165.376C56.9389 164.451 57.1017 164.34 57.5476 164.398C58.1709 164.487 58.3176 164.564 58.1849 164.761ZM55.7612 186.046C57.1604 187.274 58.5984 188.903 59.1571 189.873C59.7709 190.991 59.4212 190.954 58.5641 189.805C57.0517 187.796 55.7332 186.644 52.3253 184.439C49.4129 182.545 49.1752 182.407 48.7689 182.553C48.2002 182.743 48.0675 182.94 48.4677 183.033C49.4048 183.245 56.7035 188.575 56.8127 189.133C56.8325 189.235 54.633 187.821 51.918 185.994C49.2183 184.177 47.0141 182.672 47.0345 182.642C47.1161 182.52 48.9138 181.879 49.1267 181.89C49.8567 181.919 53.9577 184.502 55.7612 186.046ZM73.6428 198.21C73.7131 198.368 73.8471 199.053 73.9405 199.733L74.1279 200.961L69.062 197.552C66.2814 195.659 64.0825 194.113 64.184 194.093C64.6661 193.999 67.271 195.465 70.1729 197.44C72.8523 199.287 73.2974 199.542 73.3542 199.294C73.4679 198.798 73.1196 198.431 71.0525 196.886C68.6417 195.066 66.2389 193.757 63.7936 192.905C61.8243 192.197 61.8394 192.207 62.276 192.082C62.6872 191.962 65.2142 192.693 66.6058 193.343C67.8101 193.911 73.4316 197.804 73.6428 198.21ZM61.3131 190.795C61.368 191.008 61.5444 191.237 61.7165 191.309C61.9291 191.386 61.9592 191.472 61.7965 191.583C61.588 191.729 61.7097 192.891 61.948 192.897C62.4855 192.884 62.769 192.987 62.6772 193.123C62.6261 193.199 62.6509 193.326 62.7419 193.387C62.8178 193.438 62.9041 193.408 62.9096 193.302C62.9 193.185 63.0216 193.201 63.1377 193.323C63.2792 193.44 63.5221 193.538 63.6895 193.518C63.8721 193.509 63.9328 193.55 63.8613 193.656C63.7083 193.883 63.2317 193.871 62.6192 193.635C62.3156 193.497 62.0166 193.45 61.9656 193.526C61.8329 193.723 59.903 193.284 59.7215 193.03C59.6259 192.877 59.3981 192.79 59.2053 192.814C58.972 192.834 58.8708 192.788 58.8766 192.615C58.8771 192.483 58.6907 192.204 58.4635 191.985C58.0292 191.582 57.6421 190.815 57.4276 189.988C57.308 189.51 57.308 189.51 57.6113 189.715C57.7933 189.837 57.9447 190.005 57.9494 190.096C58.0191 190.386 58.7218 190.88 59.1272 190.933C59.3299 190.959 59.5737 190.859 59.6553 190.737C59.788 190.54 60.991 190.226 61.173 190.348C61.2185 190.379 61.2836 190.577 61.3131 190.795Z" fill="#EFB85F"/>
<path d="M61.2858 167.618C61.159 167.643 61.0216 167.749 60.94 167.87C60.8379 168.022 61.0955 168.262 61.9145 168.813C63.9773 170.201 66.3516 172.239 67.3603 173.491C68.5807 175.017 68.8435 175.216 69.1337 174.948C69.3985 174.686 68.6024 173.511 67.088 171.963C65.9976 170.833 61.6005 167.544 61.2858 167.618Z" fill="#EFB85F"/>
<path d="M59.8276 170.67C59.529 170.557 59.2297 170.576 59.1481 170.697C59.0256 170.879 59.3943 171.216 61.2847 172.598C63.6855 174.367 64.4381 175.05 65.8907 176.821C66.5263 177.579 66.8597 177.869 67.0627 177.83C67.5194 177.74 67.3791 177.36 66.4107 176.179C64.9936 174.388 61.1387 171.177 59.8276 170.67Z" fill="#EFB85F"/>
<path d="M58.1059 173.72C57.61 173.474 57.2959 173.417 57.1533 173.564C56.9801 173.756 57.2377 173.995 59.1281 175.377C61.3722 177.019 63.1148 178.589 64.1789 179.922C65.1523 181.127 65.8222 180.983 65.0264 179.743C63.8981 178.014 60.0893 174.702 58.1059 173.72Z" fill="#EFB85F"/>
<path d="M55.2705 176.329C54.6715 176.499 55.0545 177.043 56.3139 177.758C57.9222 178.708 60.58 180.849 61.7407 182.137C62.8911 183.44 63.2753 183.72 63.4794 183.417C63.6529 183.159 62.4881 181.648 60.8873 180.131C59.3927 178.684 55.7071 176.204 55.2705 176.329Z" fill="#EFB85F"/>
<path d="M53.7729 179.111C53.5906 179.055 53.357 179.14 53.2447 179.307C53.061 179.58 53.1873 179.687 55.2652 181.085C57.6768 182.708 58.9903 183.834 60.2361 185.355C61.0129 186.297 61.3872 186.527 61.6015 186.208C61.775 185.95 60.7669 184.567 59.5499 183.395C58.3835 182.28 54.3603 179.286 53.7729 179.111Z" fill="#EFB85F"/>
<path d="M76.8869 178.359C74.7259 177.411 72.847 176.896 72.572 177.174C72.3632 177.386 72.4035 177.457 72.9702 177.728C73.3193 177.897 74.1748 178.23 74.8634 178.451C76.3926 178.93 79.16 180.351 80.5904 181.402C81.1717 181.815 81.7329 182.192 81.8493 182.249C82.1275 182.392 82.3625 181.977 82.1458 181.677C81.8182 181.214 78.2735 178.983 76.8869 178.359Z" fill="#EFB85F"/>
<path d="M76.6079 181.917C75.2117 181.175 73.6022 180.489 72.468 180.145C71.1362 179.733 70.548 179.756 70.6373 180.213C70.677 180.416 71.1576 180.651 72.2969 181.021C74.697 181.777 75.7038 182.278 77.9941 183.819C80.0568 185.207 80.5833 185.407 80.4543 184.747C80.3948 184.443 77.7968 182.54 76.6079 181.917Z" fill="#EFB85F"/>
<path d="M74.0213 184.451C72.7615 183.802 70.0482 182.791 69.4147 182.717C69.0347 182.66 68.7139 182.973 68.8495 183.262C68.8948 183.359 69.5679 183.636 70.3528 183.877C72.3023 184.484 74.4373 185.568 76.3784 186.94C77.9859 188.088 78.5934 188.299 78.4035 187.664C78.2786 187.227 75.5593 185.243 74.0213 184.451Z" fill="#EFB85F"/>
<path d="M71.3735 187.076C70.1236 186.478 67.587 185.63 67.0901 185.648C66.7908 185.667 66.7246 185.733 66.7693 185.961C66.8037 186.205 67.2389 186.409 68.6261 186.902C70.6867 187.606 73.737 189.262 75.1164 190.388C75.8995 191.025 76.0918 191.132 76.3105 190.971C76.4732 190.86 76.4994 190.658 76.3787 190.444C76.1674 190.038 72.7143 187.736 71.3735 187.076Z" fill="#EFB85F"/>
<path d="M68.7463 189.605C67.2281 188.914 65.633 188.436 65.1358 188.52C64.4711 188.623 65.0574 189.062 66.6166 189.626C68.6466 190.375 70.7158 191.459 72.5306 192.724C74.204 193.872 74.5887 194.021 74.5352 193.478C74.4914 193.052 70.6238 190.45 68.7463 189.605Z" fill="#EFB85F"/>
<path d="M84.7344 120.912C84.6523 120.912 84.5352 120.76 84.3828 120.455C84.3828 120.42 84.5938 120.268 85.0156 119.998C85.4375 119.717 86.2754 119.02 87.5293 117.906C88.7832 116.793 89.8203 115.744 90.6406 114.76H91.625C91.7773 114.76 91.8711 114.783 91.9062 114.83C91.9414 114.877 91.959 114.965 91.959 115.094V136.539C91.959 137.277 92.0352 137.693 92.1875 137.787C92.7617 138.127 93.9277 138.297 95.6855 138.297C95.7793 138.297 95.8262 138.344 95.8262 138.438V138.859C95.8262 138.953 95.7793 139 95.6855 139H85.1035C85.0098 139 84.9629 138.953 84.9629 138.859V138.438C84.9629 138.344 85.0098 138.297 85.1035 138.297C85.6895 138.262 86.1992 138.238 86.6328 138.227C87.0664 138.203 87.5234 138.168 88.0039 138.121C88.4844 138.074 88.8184 137.998 89.0059 137.893C89.2051 137.787 89.3223 137.629 89.3574 137.418C89.3926 137.207 89.4102 136.932 89.4102 136.592V117.871C89.4219 117.848 89.293 117.941 89.0234 118.152C87.5 119.371 86.1055 120.285 84.8398 120.895L84.7344 120.912ZM101.029 132.039C100.748 132.039 100.607 131.934 100.607 131.723C100.607 131.5 100.654 131.318 100.748 131.178L111.646 115.164C111.822 114.895 112.027 114.76 112.262 114.76C112.496 114.76 112.678 114.777 112.807 114.812C112.947 114.848 113.018 114.982 113.018 115.217V129.666C113.018 129.854 113.047 129.977 113.105 130.035C113.164 130.082 113.281 130.105 113.457 130.105H116.287C116.416 130.105 116.539 130.117 116.656 130.141C116.773 130.164 116.832 130.258 116.832 130.422V131.617C116.832 131.898 116.715 132.039 116.48 132.039H113.475C113.252 132.039 113.117 132.068 113.07 132.127C113.035 132.186 113.018 132.297 113.018 132.461V139.264C113.018 139.521 112.918 139.65 112.719 139.65H110.82C110.586 139.65 110.469 139.516 110.469 139.246V132.461C110.469 132.297 110.439 132.186 110.381 132.127C110.334 132.068 110.211 132.039 110.012 132.039H101.029ZM110.469 120.016C110.469 119.559 110.328 119.33 110.047 119.33C109.953 119.33 109.783 119.453 109.537 119.699L102.787 129.754C102.74 129.812 102.717 129.889 102.717 129.982C102.717 130.064 102.898 130.105 103.262 130.105H110.012C110.211 130.105 110.334 130.064 110.381 129.982C110.439 129.9 110.469 129.789 110.469 129.648V120.016Z" fill="#EFB85F"/>
<circle cx="99.5" cy="127.5" r="37" stroke="#EFB85F"/>
<path d="M83.9998 34L84.7509 37.6552L88 38.4998L84.7509 39.3448L83.9998 43L83.2487 39.3448L80 38.4998L83.2487 37.6552L83.9998 34Z" fill="#EFB85F"/>
<path d="M103.5 46C103.5 50.0829 103.845 50.6866 105.379 49.2915C103.845 50.6866 104.509 51 109 51C104.509 51 103.845 51.3134 105.379 52.7085C103.845 51.3134 103.5 51.9172 103.5 56C103.5 51.9171 103.155 51.3134 101.621 52.7085C103.155 51.3134 102.491 51 98 51C102.491 51 103.155 50.6866 101.621 49.2915C103.155 50.6866 103.5 50.0828 103.5 46Z" fill="#EFB85F"/>
<path d="M95.9998 69L96.7509 72.6552L100 73.4998L96.7509 74.3448L95.9998 78L95.2487 74.3448L92 73.4998L95.2487 72.6552L95.9998 69Z" fill="#EFB85F"/>
<path d="M43.5002 154L44.696 155.975L47 157L44.696 158.025L43.5002 160L42.304 158.025L40 157L42.304 155.975L43.5002 154Z" fill="#EFB85F"/>
<path d="M47.5002 121L48.696 122.975L51 124L48.696 125.025L47.5002 127L46.304 125.025L44 124L46.304 122.975L47.5002 121Z" fill="#EFB85F"/>
<path d="M26.5002 96L27.696 97.9748L30 99L27.696 100.025L26.5002 102L25.304 100.025L23 99L25.304 97.9748L26.5002 96Z" fill="#EFB85F"/>
<path d="M124.73 32.6397L129 32.5L124.73 32.3603L126.069 30.9306L124.64 32.2697L124.5 28L124.36 32.2697L122.931 30.9306L124.27 32.3603L120 32.5L124.27 32.6397L122.931 34.0694L124.36 32.7303L124.5 37L124.64 32.7303L126.069 34.0694L124.73 32.6397Z" fill="#EFB85F"/>
<path d="M107 270L107.751 273.655L111 274.5L107.751 275.345L107 279L106.249 275.345L103 274.5L106.249 273.655L107 270Z" fill="#EFB85F"/>
<path d="M29.5 222C29.5 226.083 29.8447 226.687 31.3793 225.292C29.8447 226.687 30.5088 227 35 227C30.5088 227 29.8447 227.313 31.3793 228.708C29.8447 227.313 29.5 227.917 29.5 232C29.5 227.917 29.1553 227.313 27.6207 228.708C29.1553 227.313 28.4912 227 24 227C28.4912 227 29.1553 226.687 27.6207 225.292C29.1552 226.687 29.5 226.083 29.5 222Z" fill="#EFB85F"/>
<path d="M64.5002 278L65.696 279.975L68 281L65.696 282.025L64.5002 284L63.304 282.025L61 281L63.304 279.975L64.5002 278Z" fill="#EFB85F"/>
<path d="M110.5 186C110.5 190.083 110.845 190.687 112.379 189.292C110.845 190.687 111.509 191 116 191C111.509 191 110.845 191.313 112.379 192.708C110.845 191.313 110.5 191.917 110.5 196C110.5 191.917 110.155 191.313 108.621 192.708C110.155 191.313 109.491 191 105 191C109.491 191 110.155 190.687 108.621 189.292C110.155 190.687 110.5 190.083 110.5 186Z" fill="#EFB85F"/>
<path d="M33.5002 205L34.696 206.975L37 208L34.696 209.025L33.5002 211L32.304 209.025L30 208L32.304 206.975L33.5002 205Z" fill="#EFB85F"/>
<path d="M30.5 193C30.5 197.083 30.8447 197.687 32.3793 196.292C30.8447 197.687 31.5088 198 36 198C31.5088 198 30.8447 198.313 32.3793 199.708C30.8447 198.313 30.5 198.917 30.5 203C30.5 198.917 30.1553 198.313 28.6207 199.708C30.1553 198.313 29.4912 198 25 198C29.4912 198 30.1553 197.687 28.6207 196.292C30.1552 197.687 30.5 197.083 30.5 193Z" fill="#EFB85F"/>
<path d="M78.5 286C78.5 290.083 78.8447 290.687 80.3793 289.292C78.8447 290.687 79.5088 291 84 291C79.5088 291 78.8447 291.313 80.3793 292.708C78.8447 291.313 78.5 291.917 78.5 296C78.5 291.917 78.1553 291.313 76.6207 292.708C78.1553 291.313 77.4912 291 73 291C77.4912 291 78.1553 290.687 76.6207 289.292C78.1552 290.687 78.5 290.083 78.5 286Z" fill="#EFB85F"/>
<path d="M58.5002 219L59.696 220.975L62 222L59.696 223.025L58.5002 225L57.304 223.025L55 222L57.304 220.975L58.5002 219Z" fill="#EFB85F"/>
<path d="M74.7303 211.64L79 211.5L74.7303 211.36L76.0694 209.931L74.6397 211.27L74.5 207L74.3603 211.27L72.9306 209.931L74.2697 211.36L70 211.5L74.2697 211.64L72.9306 213.069L74.3603 211.73L74.5 216L74.6397 211.73L76.0694 213.069L74.7303 211.64Z" fill="#EFB85F"/>
<path d="M113 169L113.751 172.655L117 173.5L113.751 174.345L113 178L112.249 174.345L109 173.5L112.249 172.655L113 169Z" fill="#EFB85F"/>
<path d="M150.5 147C150.5 151.083 150.845 151.687 152.379 150.292C150.845 151.687 151.509 152 156 152C151.509 152 150.845 152.313 152.379 153.708C150.845 152.313 150.5 152.917 150.5 157C150.5 152.917 150.155 152.313 148.621 153.708C150.155 152.313 149.491 152 145 152C149.491 152 150.155 151.687 148.621 150.292C150.155 151.687 150.5 151.083 150.5 147Z" fill="#EFB85F"/>
<path d="M150.5 147C150.5 151.083 150.845 151.687 152.379 150.292C150.845 151.687 151.509 152 156 152C151.509 152 150.845 152.313 152.379 153.708C150.845 152.313 150.5 152.917 150.5 157C150.5 152.917 150.155 152.313 148.621 153.708C150.155 152.313 149.491 152 145 152C149.491 152 150.155 151.687 148.621 150.292C150.155 151.687 150.5 151.083 150.5 147Z" fill="#EFB85F"/>
<path d="M144.5 97L145.696 98.9748L148 100L145.696 101.025L144.5 103L143.304 101.025L141 100L143.304 98.9748L144.5 97Z" fill="#EFB85F"/>
<path d="M160.5 86C160.5 90.0829 160.845 90.6866 162.379 89.2915C160.845 90.6866 161.509 91 166 91C161.509 91 160.845 91.3134 162.379 92.7085C160.845 91.3134 160.5 91.9172 160.5 96C160.5 91.9171 160.155 91.3134 158.621 92.7085C160.155 91.3134 159.491 91 155 91C159.491 91 160.155 90.6866 158.621 89.2915C160.155 90.6866 160.5 90.0828 160.5 86Z" fill="#EFB85F"/>
<path d="M160.5 86C160.5 90.0829 160.845 90.6866 162.379 89.2915C160.845 90.6866 161.509 91 166 91C161.509 91 160.845 91.3134 162.379 92.7085C160.845 91.3134 160.5 91.9172 160.5 96C160.5 91.9171 160.155 91.3134 158.621 92.7085C160.155 91.3134 159.491 91 155 91C159.491 91 160.155 90.6866 158.621 89.2915C160.155 90.6866 160.5 90.0828 160.5 86Z" fill="#EFB85F"/>
<path d="M35.7303 304.64L40 304.5L35.7303 304.36L37.0694 302.931L35.6397 304.27L35.5 300L35.3603 304.27L33.9306 302.931L35.2697 304.36L31 304.5L35.2697 304.64L33.9306 306.069L35.3603 304.73L35.5 309L35.6397 304.73L37.0694 306.069L35.7303 304.64Z" fill="#EFB85F"/>
<path d="M20.9998 255L21.7509 258.655L25 259.5L21.7509 260.345L20.9998 264L20.2487 260.345L17 259.5L20.2487 258.655L20.9998 255Z" fill="#EFB85F"/>
<path d="M122 309L122.751 312.655L126 313.5L122.751 314.345L122 318L121.249 314.345L118 313.5L121.249 312.655L122 309Z" fill="#EFB85F"/>
<path d="M106.5 207C106.5 211.083 106.845 211.687 108.379 210.292C106.845 211.687 107.509 212 112 212C107.509 212 106.845 212.313 108.379 213.708C106.845 212.313 106.5 212.917 106.5 217C106.5 212.917 106.155 212.313 104.621 213.708C106.155 212.313 105.491 212 101 212C105.491 212 106.155 211.687 104.621 210.292C106.155 211.687 106.5 211.083 106.5 207Z" fill="#EFB85F"/>
<path d="M120.5 65C120.5 69.0829 120.845 69.6866 122.379 68.2915C120.845 69.6866 121.509 70 126 70C121.509 70 120.845 70.3134 122.379 71.7085C120.845 70.3134 120.5 70.9172 120.5 75C120.5 70.9171 120.155 70.3134 118.621 71.7085C120.155 70.3134 119.491 70 115 70C119.491 70 120.155 69.6866 118.621 68.2915C120.155 69.6866 120.5 69.0828 120.5 65Z" fill="#EFB85F"/>
<circle cx="28" cy="167" r="1" fill="#EFB85F"/>
<circle cx="21.5" cy="147.5" r="0.5" fill="#EFB85F"/>
<circle cx="21.5" cy="218.5" r="0.5" fill="#EFB85F"/>
<circle cx="16.5" cy="282.5" r="0.5" fill="#EFB85F"/>
<circle cx="35.5" cy="180.5" r="0.5" fill="#EFB85F"/>
<circle cx="22.5" cy="172.5" r="0.5" fill="#EFB85F"/>
<circle cx="95.5" cy="169.5" r="0.5" fill="#EFB85F"/>
<circle cx="95.5" cy="169.5" r="0.5" fill="#EFB85F"/>
<circle cx="130.5" cy="157.5" r="0.5" fill="#EFB85F"/>
<circle cx="143.5" cy="177.5" r="0.5" fill="#EFB85F"/>
<circle cx="149.5" cy="187.5" r="0.5" fill="#EFB85F"/>
<circle cx="149.5" cy="187.5" r="0.5" fill="#EFB85F"/>
<circle cx="146.5" cy="192.5" r="0.5" fill="#EFB85F"/>
<circle cx="146.5" cy="192.5" r="0.5" fill="#EFB85F"/>
<circle cx="91.5" cy="213.5" r="0.5" fill="#EFB85F"/>
<circle cx="33.5" cy="241.5" r="0.5" fill="#EFB85F"/>
<circle cx="52.5" cy="205.5" r="0.5" fill="#EFB85F"/>
<circle cx="108.5" cy="255.5" r="0.5" fill="#EFB85F"/>
<circle cx="141.5" cy="293.5" r="0.5" fill="#EFB85F"/>
<circle cx="158.5" cy="296.5" r="0.5" fill="#EFB85F"/>
<circle cx="169.5" cy="314.5" r="0.5" fill="#EFB85F"/>
<circle cx="146.5" cy="315.5" r="0.5" fill="#EFB85F"/>
<circle cx="159.5" cy="313.5" r="0.5" fill="#EFB85F"/>
<circle cx="105.5" cy="304.5" r="0.5" fill="#EFB85F"/>
<circle cx="103.5" cy="287.5" r="0.5" fill="#EFB85F"/>
<circle cx="84.5" cy="305.5" r="0.5" fill="#EFB85F"/>
<circle cx="57.5" cy="306.5" r="0.5" fill="#EFB85F"/>
<circle cx="61.5" cy="298.5" r="0.5" fill="#EFB85F"/>
<circle cx="59.5" cy="289.5" r="0.5" fill="#EFB85F"/>
<circle cx="70.5" cy="307.5" r="0.5" fill="#EFB85F"/>
<circle cx="34.5" cy="317.5" r="0.5" fill="#EFB85F"/>
<circle cx="27.5" cy="296.5" r="0.5" fill="#EFB85F"/>
<circle cx="33.5" cy="285.5" r="0.5" fill="#EFB85F"/>
<circle cx="28.5" cy="129.5" r="0.5" fill="#EFB85F"/>
<circle cx="59.5" cy="151.5" r="0.5" fill="#EFB85F"/>
<circle cx="77.5" cy="84.5" r="0.5" fill="#EFB85F"/>
<circle cx="67.5" cy="43.5" r="0.5" fill="#EFB85F"/>
<circle cx="43.5" cy="27.5" r="0.5" fill="#EFB85F"/>
<circle cx="23.5" cy="50.5" r="0.5" fill="#EFB85F"/>
<circle cx="109.5" cy="30.5" r="0.5" fill="#EFB85F"/>
<circle cx="124.5" cy="51.5" r="0.5" fill="#EFB85F"/>
<circle cx="175.5" cy="31.5" r="0.5" fill="#EFB85F"/>
<circle cx="174.5" cy="91.5" r="0.5" fill="#EFB85F"/>
<circle cx="167.5" cy="152.5" r="0.5" fill="#EFB85F"/>
<circle cx="170.5" cy="196.5" r="0.5" fill="#EFB85F"/>
<circle cx="177.5" cy="244.5" r="0.5" fill="#EFB85F"/>
<circle cx="162.5" cy="260.5" r="0.5" fill="#EFB85F"/>
<circle cx="160.5" cy="235.5" r="0.5" fill="#EFB85F"/>
<circle cx="139.5" cy="227.5" r="0.5" fill="#EFB85F"/>
<circle cx="132.5" cy="241.5" r="0.5" fill="#EFB85F"/>
<circle cx="95.5" cy="231.5" r="0.5" fill="#EFB85F"/>
<circle cx="108.5" cy="236.5" r="0.5" fill="#EFB85F"/>
<circle cx="73.5" cy="240.5" r="0.5" fill="#EFB85F"/>
<circle cx="134.5" cy="258.5" r="0.5" fill="#EFB85F"/>
<circle cx="44.5" cy="291.5" r="0.5" fill="#EFB85F"/>
<circle cx="83" cy="206" r="1" fill="#EFB85F"/>
<circle cx="83" cy="206" r="1" fill="#EFB85F"/>
<circle cx="32" cy="265" r="1" fill="#EFB85F"/>
<circle cx="90" cy="278" r="1" fill="#EFB85F"/>
<circle cx="96" cy="301" r="1" fill="#EFB85F"/>
<circle cx="70" cy="317" r="1" fill="#EFB85F"/>
<circle cx="56" cy="95" r="1" fill="#EFB85F"/>
<circle cx="22" cy="38" r="1" fill="#EFB85F"/>
<circle cx="111" cy="38" r="1" fill="#EFB85F"/>
<circle cx="85" cy="26" r="1" fill="#EFB85F"/>
<circle cx="157" cy="24" r="1" fill="#EFB85F"/>
<circle cx="165" cy="203" r="1" fill="#EFB85F"/>
<circle cx="126" cy="201" r="1" fill="#EFB85F"/>
<circle cx="143" cy="181" r="1" fill="#EFB85F"/>
<circle cx="58" cy="40" r="1" fill="#EFB85F"/>
<path d="M39.1249 149.584C39.1509 149.355 39.1941 148.813 39.2288 148.385C39.2634 147.891 39.3239 147.577 39.3932 147.548C39.4537 147.52 39.7306 147.672 39.9989 147.881C40.2758 148.1 40.5181 148.252 40.5441 148.223C40.5614 148.204 40.3969 147.9 40.1806 147.558C39.9037 147.139 39.8085 146.93 39.8864 146.901C39.947 146.882 40.3883 146.816 40.8642 146.749C42.3872 146.559 42.3785 146.454 40.8383 146.273C40.3018 146.207 39.8518 146.121 39.8345 146.093C39.8085 146.055 39.9729 145.779 40.1806 145.474C40.3883 145.161 40.5441 144.885 40.5181 144.856C40.4921 144.837 40.2325 144.999 39.947 145.218C39.6528 145.446 39.3932 145.589 39.3586 145.551C39.3153 145.503 39.2461 144.932 39.1855 144.276C39.0297 142.564 38.9605 142.573 38.7961 144.314C38.7355 144.97 38.6663 145.541 38.6317 145.57C38.6057 145.598 38.3461 145.446 38.0519 145.227C37.7664 144.999 37.5154 144.837 37.4894 144.866C37.4721 144.885 37.6019 145.142 37.7923 145.427C37.9827 145.703 38.1384 145.988 38.1384 146.045C38.1384 146.112 37.7664 146.197 37.1606 146.273C35.6117 146.454 35.6117 146.559 37.1693 146.759C37.7577 146.835 38.1384 146.93 38.1384 146.987C38.1384 147.044 37.9827 147.329 37.7923 147.605C37.3856 148.204 37.351 148.357 37.6798 148.119C37.8183 148.033 38.0692 147.843 38.2509 147.71C38.6663 147.415 38.7009 147.462 38.7788 148.49C38.8913 150.002 39.0211 150.402 39.1249 149.584Z" fill="#EFB85F"/>
<path d="M37.1249 121.584C37.1509 121.355 37.1941 120.813 37.2288 120.385C37.2634 119.891 37.3239 119.577 37.3932 119.548C37.4537 119.52 37.7306 119.672 37.9989 119.881C38.2758 120.1 38.5181 120.252 38.5441 120.223C38.5614 120.204 38.3969 119.9 38.1806 119.558C37.9037 119.139 37.8085 118.93 37.8864 118.901C37.947 118.882 38.3883 118.816 38.8642 118.749C40.3872 118.559 40.3785 118.454 38.8383 118.273C38.3018 118.207 37.8518 118.121 37.8345 118.093C37.8085 118.055 37.9729 117.779 38.1806 117.474C38.3883 117.161 38.5441 116.885 38.5181 116.856C38.4921 116.837 38.2325 116.999 37.947 117.218C37.6528 117.446 37.3932 117.589 37.3586 117.551C37.3153 117.503 37.2461 116.932 37.1855 116.276C37.0297 114.564 36.9605 114.573 36.7961 116.314C36.7355 116.97 36.6663 117.541 36.6317 117.57C36.6057 117.598 36.3461 117.446 36.0519 117.227C35.7664 116.999 35.5154 116.837 35.4894 116.866C35.4721 116.885 35.6019 117.142 35.7923 117.427C35.9827 117.703 36.1384 117.988 36.1384 118.045C36.1384 118.112 35.7664 118.197 35.1606 118.273C33.6117 118.454 33.6117 118.559 35.1693 118.759C35.7577 118.835 36.1384 118.93 36.1384 118.987C36.1384 119.044 35.9827 119.329 35.7923 119.605C35.3856 120.204 35.351 120.357 35.6798 120.119C35.8183 120.033 36.0692 119.843 36.2509 119.71C36.6663 119.415 36.7009 119.462 36.7788 120.49C36.8913 122.002 37.0211 122.402 37.1249 121.584Z" fill="#EFB85F"/>
<path d="M43.1249 279.584C43.1509 279.355 43.1941 278.813 43.2288 278.385C43.2634 277.891 43.3239 277.577 43.3932 277.548C43.4537 277.52 43.7306 277.672 43.9989 277.881C44.2758 278.1 44.5181 278.252 44.5441 278.223C44.5614 278.204 44.3969 277.9 44.1806 277.558C43.9037 277.139 43.8085 276.93 43.8864 276.901C43.947 276.882 44.3883 276.816 44.8642 276.749C46.3872 276.559 46.3785 276.454 44.8383 276.273C44.3018 276.207 43.8518 276.121 43.8345 276.093C43.8085 276.055 43.9729 275.779 44.1806 275.474C44.3883 275.161 44.5441 274.885 44.5181 274.856C44.4921 274.837 44.2325 274.999 43.947 275.218C43.6528 275.446 43.3932 275.589 43.3586 275.551C43.3153 275.503 43.2461 274.932 43.1855 274.276C43.0297 272.564 42.9605 272.573 42.7961 274.314C42.7355 274.97 42.6663 275.541 42.6317 275.57C42.6057 275.598 42.3461 275.446 42.0519 275.227C41.7664 274.999 41.5154 274.837 41.4894 274.866C41.4721 274.885 41.6019 275.142 41.7923 275.427C41.9827 275.703 42.1384 275.988 42.1384 276.045C42.1384 276.112 41.7664 276.197 41.1606 276.273C39.6117 276.454 39.6117 276.559 41.1693 276.759C41.7577 276.835 42.1384 276.93 42.1384 276.987C42.1384 277.044 41.9827 277.329 41.7923 277.605C41.3856 278.204 41.351 278.357 41.6798 278.119C41.8183 278.033 42.0692 277.843 42.2509 277.71C42.6663 277.415 42.7009 277.462 42.7788 278.49C42.8913 280.002 43.0211 280.402 43.1249 279.584Z" fill="#EFB85F"/>
<path d="M30.1249 254.584C30.1509 254.355 30.1941 253.813 30.2288 253.385C30.2634 252.891 30.3239 252.577 30.3932 252.548C30.4537 252.52 30.7306 252.672 30.9989 252.881C31.2758 253.1 31.5181 253.252 31.5441 253.223C31.5614 253.204 31.3969 252.9 31.1806 252.558C30.9037 252.139 30.8085 251.93 30.8864 251.901C30.947 251.882 31.3883 251.816 31.8642 251.749C33.3872 251.559 33.3785 251.454 31.8383 251.273C31.3018 251.207 30.8518 251.121 30.8345 251.093C30.8085 251.055 30.9729 250.779 31.1806 250.474C31.3883 250.161 31.5441 249.885 31.5181 249.856C31.4921 249.837 31.2325 249.999 30.947 250.218C30.6528 250.446 30.3932 250.589 30.3586 250.551C30.3153 250.503 30.2461 249.932 30.1855 249.276C30.0297 247.564 29.9605 247.573 29.7961 249.314C29.7355 249.97 29.6663 250.541 29.6317 250.57C29.6057 250.598 29.3461 250.446 29.0519 250.227C28.7664 249.999 28.5154 249.837 28.4894 249.866C28.4721 249.885 28.6019 250.142 28.7923 250.427C28.9827 250.703 29.1384 250.988 29.1384 251.045C29.1384 251.112 28.7664 251.197 28.1606 251.273C26.6117 251.454 26.6117 251.559 28.1693 251.759C28.7577 251.835 29.1384 251.93 29.1384 251.987C29.1384 252.044 28.9827 252.329 28.7923 252.605C28.3856 253.204 28.351 253.357 28.6798 253.119C28.8183 253.033 29.0692 252.843 29.2509 252.71C29.6663 252.415 29.7009 252.462 29.7788 253.49C29.8913 255.002 30.0211 255.402 30.1249 254.584Z" fill="#EFB85F"/>
<path d="M23.1249 190.584C23.1509 190.355 23.1941 189.813 23.2288 189.385C23.2634 188.891 23.3239 188.577 23.3932 188.548C23.4537 188.52 23.7306 188.672 23.9989 188.881C24.2758 189.1 24.5181 189.252 24.5441 189.223C24.5614 189.204 24.3969 188.9 24.1806 188.558C23.9037 188.139 23.8085 187.93 23.8864 187.901C23.947 187.882 24.3883 187.816 24.8642 187.749C26.3872 187.559 26.3785 187.454 24.8383 187.273C24.3018 187.207 23.8518 187.121 23.8345 187.093C23.8085 187.055 23.9729 186.779 24.1806 186.474C24.3883 186.161 24.5441 185.885 24.5181 185.856C24.4921 185.837 24.2325 185.999 23.947 186.218C23.6528 186.446 23.3932 186.589 23.3586 186.551C23.3153 186.503 23.2461 185.932 23.1855 185.276C23.0297 183.564 22.9605 183.573 22.7961 185.314C22.7355 185.97 22.6663 186.541 22.6317 186.57C22.6057 186.598 22.3461 186.446 22.0519 186.227C21.7664 185.999 21.5154 185.837 21.4894 185.866C21.4721 185.885 21.6019 186.142 21.7923 186.427C21.9827 186.703 22.1384 186.988 22.1384 187.045C22.1384 187.112 21.7664 187.197 21.1606 187.273C19.6117 187.454 19.6117 187.559 21.1693 187.759C21.7577 187.835 22.1384 187.93 22.1384 187.987C22.1384 188.044 21.9827 188.329 21.7923 188.605C21.3856 189.204 21.351 189.357 21.6798 189.119C21.8183 189.033 22.0692 188.843 22.2509 188.71C22.6663 188.415 22.7009 188.462 22.7788 189.49C22.8913 191.002 23.0211 191.402 23.1249 190.584Z" fill="#EFB85F"/>
<path d="M139.125 308.584C139.151 308.355 139.194 307.813 139.229 307.385C139.263 306.891 139.324 306.577 139.393 306.548C139.454 306.52 139.731 306.672 139.999 306.881C140.276 307.1 140.518 307.252 140.544 307.223C140.561 307.204 140.397 306.9 140.181 306.558C139.904 306.139 139.809 305.93 139.886 305.901C139.947 305.882 140.388 305.816 140.864 305.749C142.387 305.559 142.379 305.454 140.838 305.273C140.302 305.207 139.852 305.121 139.834 305.093C139.809 305.055 139.973 304.779 140.181 304.474C140.388 304.161 140.544 303.885 140.518 303.856C140.492 303.837 140.233 303.999 139.947 304.218C139.653 304.446 139.393 304.589 139.359 304.551C139.315 304.503 139.246 303.932 139.185 303.276C139.03 301.564 138.961 301.573 138.796 303.314C138.736 303.97 138.666 304.541 138.632 304.57C138.606 304.598 138.346 304.446 138.052 304.227C137.766 303.999 137.515 303.837 137.489 303.866C137.472 303.885 137.602 304.142 137.792 304.427C137.983 304.703 138.138 304.988 138.138 305.045C138.138 305.112 137.766 305.197 137.161 305.273C135.612 305.454 135.612 305.559 137.169 305.759C137.758 305.835 138.138 305.93 138.138 305.987C138.138 306.044 137.983 306.329 137.792 306.605C137.386 307.204 137.351 307.357 137.68 307.119C137.818 307.033 138.069 306.843 138.251 306.71C138.666 306.415 138.701 306.462 138.779 307.49C138.891 309.002 139.021 309.402 139.125 308.584Z" fill="#EFB85F"/>
<path d="M133.125 86.5837C133.151 86.3554 133.194 85.8132 133.229 85.3852C133.263 84.8905 133.324 84.5766 133.393 84.5481C133.454 84.5196 133.731 84.6718 133.999 84.881C134.276 85.0998 134.518 85.252 134.544 85.2235C134.561 85.2044 134.397 84.9001 134.181 84.5576C133.904 84.1391 133.809 83.9298 133.886 83.9013C133.947 83.8822 134.388 83.8157 134.864 83.7491C136.387 83.5588 136.379 83.4542 134.838 83.2735C134.302 83.2069 133.852 83.1213 133.834 83.0927C133.809 83.0547 133.973 82.7788 134.181 82.4744C134.388 82.1605 134.544 81.8847 134.518 81.8561C134.492 81.8371 134.233 81.9988 133.947 82.2176C133.653 82.4459 133.393 82.5886 133.359 82.5505C133.315 82.503 133.246 81.9322 133.185 81.2759C133.03 79.5637 132.961 79.5732 132.796 81.3139C132.736 81.9703 132.666 82.541 132.632 82.5696C132.606 82.5981 132.346 82.4459 132.052 82.2271C131.766 81.9988 131.515 81.8371 131.489 81.8657C131.472 81.8847 131.602 82.1415 131.792 82.4269C131.983 82.7027 132.138 82.9881 132.138 83.0452C132.138 83.1118 131.766 83.1974 131.161 83.2735C129.612 83.4542 129.612 83.5588 131.169 83.7586C131.758 83.8347 132.138 83.9298 132.138 83.9869C132.138 84.044 131.983 84.3293 131.792 84.6052C131.386 85.2044 131.351 85.3566 131.68 85.1188C131.818 85.0332 132.069 84.843 132.251 84.7098C132.666 84.4149 132.701 84.4625 132.779 85.4898C132.891 87.0023 133.021 87.4018 133.125 86.5837Z" fill="#EFB85F"/>
<path d="M63.1249 32.5837C63.1509 32.3554 63.1941 31.8132 63.2288 31.3852C63.2634 30.8905 63.3239 30.5766 63.3932 30.5481C63.4537 30.5196 63.7306 30.6718 63.9989 30.881C64.2758 31.0998 64.5181 31.252 64.5441 31.2235C64.5614 31.2044 64.3969 30.9001 64.1806 30.5576C63.9037 30.1391 63.8085 29.9298 63.8864 29.9013C63.947 29.8822 64.3883 29.8157 64.8642 29.7491C66.3872 29.5588 66.3785 29.4542 64.8383 29.2735C64.3018 29.2069 63.8518 29.1213 63.8345 29.0927C63.8085 29.0547 63.9729 28.7788 64.1806 28.4744C64.3883 28.1605 64.5441 27.8847 64.5181 27.8561C64.4921 27.8371 64.2325 27.9988 63.947 28.2176C63.6528 28.4459 63.3932 28.5886 63.3586 28.5505C63.3153 28.503 63.2461 27.9322 63.1855 27.2759C63.0297 25.5637 62.9605 25.5732 62.7961 27.3139C62.7355 27.9703 62.6663 28.541 62.6317 28.5696C62.6057 28.5981 62.3461 28.4459 62.0519 28.2271C61.7664 27.9988 61.5154 27.8371 61.4894 27.8657C61.4721 27.8847 61.6019 28.1415 61.7923 28.4269C61.9827 28.7027 62.1384 28.9881 62.1384 29.0452C62.1384 29.1118 61.7664 29.1974 61.1606 29.2735C59.6117 29.4542 59.6117 29.5588 61.1693 29.7586C61.7577 29.8347 62.1384 29.9298 62.1384 29.9869C62.1384 30.044 61.9827 30.3293 61.7923 30.6052C61.3856 31.2044 61.351 31.3566 61.6798 31.1188C61.8183 31.0332 62.0692 30.843 62.2509 30.7098C62.6663 30.4149 62.7009 30.4625 62.7788 31.4898C62.8913 33.0023 63.0211 33.4018 63.1249 32.5837Z" fill="#EFB85F"/>
<path d="M40.1249 62.5837C40.1509 62.3554 40.1941 61.8132 40.2288 61.3852C40.2634 60.8905 40.3239 60.5766 40.3932 60.5481C40.4537 60.5196 40.7306 60.6718 40.9989 60.881C41.2758 61.0998 41.5181 61.252 41.5441 61.2235C41.5614 61.2044 41.3969 60.9001 41.1806 60.5576C40.9037 60.1391 40.8085 59.9298 40.8864 59.9013C40.947 59.8822 41.3883 59.8157 41.8642 59.7491C43.3872 59.5588 43.3785 59.4542 41.8383 59.2735C41.3018 59.2069 40.8518 59.1213 40.8345 59.0927C40.8085 59.0547 40.9729 58.7788 41.1806 58.4744C41.3883 58.1605 41.5441 57.8847 41.5181 57.8561C41.4921 57.8371 41.2325 57.9988 40.947 58.2176C40.6528 58.4459 40.3932 58.5886 40.3586 58.5505C40.3153 58.503 40.2461 57.9322 40.1855 57.2759C40.0297 55.5637 39.9605 55.5732 39.7961 57.3139C39.7355 57.9703 39.6663 58.541 39.6317 58.5696C39.6057 58.5981 39.3461 58.4459 39.0519 58.2271C38.7664 57.9988 38.5154 57.8371 38.4894 57.8657C38.4721 57.8847 38.6019 58.1415 38.7923 58.4269C38.9827 58.7027 39.1384 58.9881 39.1384 59.0452C39.1384 59.1118 38.7664 59.1974 38.1606 59.2735C36.6117 59.4542 36.6117 59.5588 38.1693 59.7586C38.7577 59.8347 39.1384 59.9298 39.1384 59.9869C39.1384 60.044 38.9827 60.3293 38.7923 60.6052C38.3856 61.2044 38.351 61.3566 38.6798 61.1188C38.8183 61.0332 39.0692 60.843 39.2509 60.7098C39.6663 60.4149 39.7009 60.4625 39.7788 61.4898C39.8913 63.0023 40.0211 63.4018 40.1249 62.5837Z" fill="#EFB85F"/>
</svg>
