<svg width="328" height="454" viewBox="0 0 328 454" fill="none" xmlns="http://www.w3.org/2000/svg">
<path opacity="0.996078" d="M328 226.992C328 234.659 325.833 240.159 321.5 243.492C318.167 246.826 313.167 248.492 306.5 248.492C300.567 247.092 295.733 244.592 292 240.992L288.5 235.492L277.5 235.492L276 236.992L274 254.992L267 276.992C259 294.326 248.167 308.826 234.5 320.492C225.567 328.226 215.233 334.559 203.5 339.492L183.5 345.492L172.5 347.492L163.5 347.492L162 348.992C160.533 354.592 157.7 358.759 153.5 361.492L144 363.492C138.2 385.226 130.2 405.059 120 422.992C114.467 433.792 107.3 442.959 98.5 450.492C97.2333 452.892 94.5667 453.892 90.5 453.492L81 446.992C73.0667 436.926 66.7333 425.259 62 411.992L53 382.992L48 355.992L42.5 348.492L34 340.992C22.9333 328.392 14.6 313.059 9.00001 294.992L5.00001 279.992L1.00001 255.992L9.94809e-06 225.992L1.00001 224.992L1.00001 204.992L2.00001 203.992L4.00001 184.992L15 145.992C21.2 128.192 30.7 113.692 43.5 102.492L47 99.9923L49 95.9923L56 63.9923L65 35.9923L76 12.9923L84.5 2.49231C86.4334 0.0923113 90.1 -0.574355 95.5 0.492312L103 6.99231C112.8 19.259 121.467 32.5923 129 46.9923C135.467 58.1923 140.133 71.1923 143 85.9923L146.5 90.4923C153.167 91.4923 158 94.3257 161 98.9923L165.5 107.492L187.5 110.492L205.5 116.492C221.033 123.292 234.2 132.459 245 143.992C253.2 152.792 260.2 162.792 266 173.992L273 192.992L276 214.992L278.5 218.492L289.5 218.492L290 216.992C294 210.659 301.5 207.826 312.5 208.492C317.433 209.892 321.267 212.392 324 215.992L328 226.992ZM322 225.492L320 221.492L318 221.492L314 219.492L313 219.492C312.333 221.492 313.333 221.826 316 220.492L316 223.492C312.667 222.826 310.667 223.826 310 226.492C309.333 229.159 309.667 230.159 311 229.492L310 231.492L307 229.492L308 222.492L310 220.492L309 218.492L307 219.492L306 224.492L306 226.492L305 230.492L306 233.492C305.333 234.826 306 235.159 308 234.492L306 237.492L301 235.492L297 228.492L298 222.492L296 223.492L297 234.492C299 238.492 302.667 240.826 308 241.492L310 241.492L317 238.492C321 236.492 322.667 232.159 322 225.492ZM287 226.492C286.333 224.492 285.333 224.159 284 225.492C280 224.159 278 224.826 278 227.492C276.667 228.159 276.667 228.826 278 229.492L287 229.492L287 226.492ZM269 217.492L268 216.492L268 207.492L266 197.492L261 181.492L243 153.492C234.333 143.492 224 135.159 212 128.492L184 117.492L172 115.492C168 114.159 165.333 114.492 164 116.492C162 115.826 161.667 116.826 163 119.492L178 121.492L180 121.492L210 133.492L233 150.492C249.667 165.159 260.333 186.159 265 213.492L265 236.492L264 237.492L263 251.492C260.333 262.826 256 273.159 250 282.492L247 284.492L259 256.492L262 241.492L262 212.492L259 200.492C253 185.826 244.667 173.492 234 163.492C225.333 154.826 215.333 147.492 204 141.492L186 134.492L173 131.492L161 131.492L161 133.492L185 138.492L197 142.492C209.667 148.492 220.667 155.826 230 164.492C237.333 171.159 243.333 179.159 248 188.492L249 191.492L249 223.492L246 237.492L245 234.492L246 232.492L246 230.492L245 229.492L244 205.492L241 194.492L241 188.492L239 186.492L239 213.492L236 230.492L235 230.492L236 228.492L235 226.492L236 222.492L236 220.492L230 187.492L230 208.492L230 210.492L229 211.492L229 229.492L227 230.492L228 229.492L227 223.492L226 228.492L225 225.492L224 203.492L222 195.492L221 195.492L222 198.492L218 236.492L216 239.492L216 224.492L214 213.492L214 200.492L212 199.492L213 204.492L212 205.492L212 216.492L209 231.492L208 241.492L207 232.492L206 251.492L206 230.492L204 219.492L204 207.492L202 206.492L201 234.492L201 236.492L198 254.492L198 262.492L199 263.492L198 265.492L198 270.492L210 262.492L212 263.492C206.667 270.159 200 275.492 192 279.492L175 286.492L178 287.492L172 288.492L172 289.492L188 286.492C198 282.492 206.667 277.159 214 270.492L219 265.492L222 263.492L217 270.492L213 274.492L214 275.492L212 278.492C206.667 283.826 200.333 288.492 193 292.492L181 297.492L173 298.492L173 299.492C191.667 299.492 205 294.826 213 285.492L214 287.492L197 301.492L186 305.492L186 306.492C194.667 306.492 201.333 304.826 206 301.492L224 286.492L227 284.492C234.333 277.159 240.333 268.826 245 259.492L246 259.492C241.333 274.159 234.333 286.826 225 297.492L209 311.492L201 315.492L200 317.492L217 308.492C232.333 296.492 243.667 280.826 251 261.492L252 261.492L245 280.492L234 296.492L232 299.492C217.333 319.492 194.667 331.826 164 336.492C161.333 335.826 160.333 336.492 161 338.492L164 339.492L171 339.492L185 336.492L187 336.492C203 331.826 216.333 324.826 227 315.492C240.333 304.826 251 291.492 259 275.492L265 259.492L268 246.492L269 240.492L269 217.492ZM197 152.492L187 147.492L169 143.492C167 142.826 166.333 143.492 167 145.492L191 150.492L195 152.492L197 152.492ZM196 234.492L195 233.492L194 216.492C194.667 223.826 194 230.492 192 236.492L192 238.492L192 268.492L193 268.492L193 270.492C192.333 272.492 193.333 272.826 196 271.492L195 269.492L196 264.492C196.667 260.492 196.333 258.159 195 257.492L195 243.492L196 242.492L195 240.492L196 234.492ZM189 269.492L186 271.492L187 271.492L189 269.492ZM188 237.492L187 236.492L186 226.492L185 240.492L185 242.492C183.667 245.826 184 248.159 186 249.492L185 252.492L186 253.492L186 267.492L188 266.492L188 246.492L188 242.492L187 240.492L188 237.492ZM181 253.492L180 252.492L179 240.492L178 244.492L179 246.492L178 247.492L178 263.492L178 265.492L180 265.492C181.333 262.826 181.667 258.826 181 253.492ZM159 108.492L158 106.492L145 97.4923C141.667 96.8257 139.667 97.8257 139 100.492C141 102.492 143.667 103.826 147 104.492L149 104.492L152 104.492C151.333 106.492 152 107.159 154 106.492L143 172.492L142 194.492L141 195.492L141 229.492L140 230.492L143 284.492L148 310.492L149 322.492L154 341.492C154.667 344.826 154 347.159 152 348.492C152.667 349.826 152 350.159 150 349.492L147 352.492L146 351.492L141 352.492L143 356.492L150 355.492L158 347.492L158 339.492L155 328.492L153 310.492L149 292.492L148 274.492L146 265.492L146 254.492L145 253.492L145 198.492L146 197.492L146 185.492L148 177.492L149 160.492L154 136.492L154 130.492L159 113.492L159 108.492ZM148 344.492L145 342.492C143 343.159 142 345.159 142 348.492C142.667 349.826 144.333 350.159 147 349.492L148 344.492ZM145 319.492L140 319.492L140 320.492C142.667 321.159 144.333 320.826 145 319.492ZM144 329.492L140 328.492L138 332.492L140 336.492C139.333 337.826 140.333 338.159 143 337.492L144 329.492ZM142 121.492L141 120.492C141.667 118.492 140.667 117.826 138 118.492L137 122.492L140 123.492L142 121.492ZM142 297.492L137 296.492L137 297.492L142 297.492ZM141 301.492C137 299.492 134.333 299.492 133 301.492C130.333 300.826 129.333 301.492 130 303.492L141 301.492ZM141 310.492L136 307.492C134 308.826 133.667 311.826 135 316.492L138 318.492C140.667 317.159 141.667 314.492 141 310.492ZM139 259.492L138 259.492L136 264.492L133 265.492L128 264.492L126 260.492C124 259.826 123.333 260.492 124 262.492L124 264.492L125 270.492C125.667 271.826 126.333 271.826 127 270.492L131 272.492L133 271.492L135 271.492L138 270.492L137 265.492L139 259.492ZM139 275.492L137 273.492L126 274.492L126 276.492L128 275.492L130 275.492L136 276.492C138.667 277.159 139.667 276.826 139 275.492ZM139 356.492L130 334.492L122 300.492L120 287.492L120 277.492L119 276.492L119 264.492L118 263.492L118 235.492L117 232.492L118 229.492L118 227.492L117 224.492L118 223.492L119 181.492L120 180.492L120 170.492L123 151.492L123 149.492L129 121.492L135 104.492L134 100.492L126 124.492L126 126.492L124 130.492L117 175.492L116 200.492L115 201.492L115 241.492L116 244.492L115 246.492L116 248.492L115 252.492L116 253.492L116 272.492L116 274.492L119 291.492L119 298.492L121 303.492L124 322.492L132 347.492L137 358.492L139 356.492ZM138 142.492L135 139.492L133 141.492C131.667 145.492 132.667 146.826 136 145.492L138 142.492ZM138 225.492L136 225.492L135 231.492C134.333 232.826 135 233.159 137 232.492L138 225.492ZM138 244.492L137 241.492L134 240.492L126 242.492L125 244.492L129 243.492C133 242.826 135.333 243.159 136 244.492L138 244.492ZM138 247.492L134 246.492L126 247.492L124 253.492C123.333 254.826 124 255.159 126 254.492L127 250.492L130 249.492L134 250.492L137 253.492L138 247.492ZM137 281.492L132 280.492C130 281.826 129.333 284.492 130 288.492L134 290.492C137.333 289.159 138.333 286.159 137 281.492ZM137 298.492L135 297.492L135 298.492L137 298.492ZM136 167.492L133 162.492L131 163.492L130 167.492L135 169.492L136 167.492ZM136 361.492L134 361.492L130 357.492L124 345.492L116 320.492L110 288.492L109 266.492L108 265.492L108 239.492L107 238.492L108 232.492C106.667 231.159 103.667 230.826 99 231.492L96 232.492L78 232.492L78 230.492L76 230.492L76 232.492L68 230.492L70 284.492L70 286.492L71 287.492L71 298.492L72 299.492L75 337.492L80 361.492L81 373.492L89 403.492L98 426.492L100 427.492L99 424.492L109 406.492L103 392.492L103 389.492L109 404.492L119 385.492L117 382.492L117 380.492L119 383.492C121.667 382.826 122.667 380.826 122 377.492L121 374.492C122.333 370.492 121.667 368.826 119 369.492L117 379.492L111 383.492L112 388.492L111 391.492L110 385.492L99 384.492C98.3333 381.826 97.3333 381.492 96 383.492L93 377.492L91 368.492L95 356.492C97.6667 350.492 103.333 347.826 112 348.492C116.667 351.826 119.333 357.492 120 365.492L120 367.492L123 374.492L127 366.492L127 362.492C122.333 355.826 118.667 348.159 116 339.492L116 337.492L117 339.492L118 338.492L128 360.492L132 363.492L127 380.492L115 407.492L105 426.492L101 430.492L102 434.492L118 408.492L129 383.492L129 380.492L136 361.492ZM135 85.4923L126 60.4923L114 39.4923C114.667 37.4923 114 36.8256 112 37.4923L111 34.4923L104 26.4923L103 22.4923L97 17.4923L97 23.4923L109 38.4923C108.333 39.8256 109 40.159 111 39.4923C120.333 53.4923 128 69.4923 134 87.4923L135 85.4923ZM135 236.492L133 235.492L133 236.492L135 236.492ZM135 256.492L133 254.492L129 254.492L129 261.492L133 263.492L135 260.492L135 256.492ZM134 196.492L132 196.492L131 194.492C131.667 191.826 130.333 191.159 127 192.492C126.333 195.159 127 197.159 129 198.492C128.333 199.826 129 200.159 131 199.492L134 196.492ZM134 298.492L132 297.492L132 298.492L134 298.492ZM133 226.492C132.333 224.492 130.667 223.826 128 224.492L127 227.492L129 231.492C128.333 232.826 128.667 233.159 130 232.492C132.667 231.826 133.667 229.826 133 226.492ZM132 183.492L130 182.492L130 183.492L132 183.492ZM132 239.492L129 238.492L129 239.492L132 239.492ZM131 219.492L129 218.492L128 220.492L131 219.492ZM130 175.492L129 175.492L129 176.492L130 175.492ZM129 296.492L128 296.492L128 297.492L129 296.492ZM127 84.4923L115 61.4923L114 64.4923L114 67.4923L117 72.4923L118 70.4923L119 70.4923L118 73.4923L126 86.4923L127 84.4923ZM127 220.492C125 219.159 124.333 219.492 125 221.492L127 220.492ZM127 278.492L126 278.492L126 281.492L127 278.492ZM126 99.4923L125 98.4923C125.667 96.4923 125 95.8257 123 96.4923C121 97.8257 120.333 100.492 121 104.492L121 106.492C119 108.492 118.333 111.826 119 116.492L117 119.492L117 123.492C119.667 120.159 121 116.159 121 111.492L126 102.492L126 99.4923ZM118 92.4923L114 83.4923C112 78.8257 108.333 75.8257 103 74.4923C99.6667 73.8256 97.6667 74.8256 97 77.4923L97 87.4923L102 96.4923C104 100.492 108 102.492 114 102.492C117.333 101.159 118.667 97.8257 118 92.4923ZM117 124.492L116 124.492L116 125.492L117 124.492ZM117 365.492L115 358.492L110 353.492L103 354.492C100.333 357.159 98.3333 360.826 97 365.492C95.6667 371.492 96.3333 375.826 99 378.492L103 381.492L109 380.492L116 371.492L117 365.492ZM114 59.4923L111 53.4923L109 59.4923L111 63.4923L112 62.4923L113 62.4923L114 59.4923ZM111 52.4923L110 52.4923L110 53.4923L111 52.4923ZM110 50.4923L107 47.4923C107.667 45.4923 107 44.8256 105 45.4923L103 40.4923L100 38.4923L99 36.4923L97 32.4923L94 33.4923L96 36.4923L95 36.4923C95.6667 34.4923 95 33.8256 93 34.4923C92.3333 37.159 92.6667 38.159 94 37.4923L99 46.4923L104 49.4923L104 51.4923L106 54.4923C105.333 56.4923 105.667 57.159 107 56.4923L110 50.4923ZM109 186.492C106.333 185.826 105.667 188.159 107 193.492L107 195.492L105 205.492L105 217.492L102 224.492L103 226.492L107 225.492L107 211.492L109 199.492L108 196.492L109 195.492L109 186.492ZM106 164.492L105 159.492L101 152.492L95 149.492L85 150.492C81.6667 152.492 79.6667 156.159 79 161.492L82 171.492L91 178.492L98 177.492L104 172.492L106 164.492ZM101 220.492L100 220.492L99 224.492L98 183.492L95 202.492L95 219.492L93 221.492L92 217.492L91 184.492L87 221.492L86 221.492C84.6667 217.492 85 215.159 87 214.492L86 213.492L85 181.492L83 196.492L83 204.492L81 211.492C82.3333 215.492 81.6667 217.159 79 216.492L78 183.492L76 197.492L76 206.492L76 208.492L75 209.492L75 219.492L73 220.492L73 186.492L73 182.492L74 178.492C74.6667 175.826 74 174.826 72 175.492L69 196.492L70 198.492L69 199.492L69 217.492L68 218.492L68 227.492L78 227.492L81 225.492L92 225.492L94 225.492L98 226.492L100 226.492L101 220.492ZM98 440.492L89 423.492L76 377.492L66 313.492L65 287.492L65 285.492L64 283.492L64 271.492L63 270.492L63 246.492L62 245.492L63 240.492L62 237.492L63 234.492L63 230.492C64.3334 225.826 64 223.159 62 222.492C64 215.826 64.3334 207.826 63 198.492L64 197.492L64 172.492L65 171.492L65 157.492L66 156.492L65 153.492L66 152.492L70 112.492L77 75.4923L86 38.4923L89 32.4923L92 19.4923L96 12.4923L94 9.49231C94.6667 7.49231 93.6667 6.82565 91 7.49231L90 5.49231L84 13.4923L72 41.4923L66 61.4923L61 86.4923L61 88.4923L59 92.4923L57 105.492L57 107.492L55 113.492L52 140.492L52 142.492L50 152.492L50 163.492L50 165.492L49 166.492L49 178.492L48 179.492L48 193.492L47 194.492L47 276.492L48 277.492L51 316.492L51 318.492L52 319.492L54 342.492L57 354.492L57 359.492L64 388.492L74 419.492L84 439.492L91 446.492L94 446.492L98 440.492ZM97 115.492L96 115.492L96 116.492L97 115.492ZM96 113.492L81 99.4923L81 101.492L85 103.492L94 114.492C96 115.159 96.6667 114.826 96 113.492ZM94 130.492C90.6667 126.492 86.3333 123.492 81 121.492L79 122.492L92 130.492L94 130.492ZM46 111.492L44 112.492L41 118.492L31 130.492L19 156.492L11 190.492L10 208.492L10 210.492L9.00001 211.492L9.00001 225.492L8.00001 226.492L10 263.492L16 290.492C21.3333 307.826 29.6667 322.492 41 334.492L42 334.492C39.3333 326.492 35.3333 320.492 30 316.492L22 300.492L22 298.492L35 317.492L40 321.492L20 290.492L17 280.492L18 278.492L17 276.492L18 275.492L20 276.492C20.6667 274.492 20 273.826 18 274.492L16 270.492L25 278.492C27 277.826 27.6667 278.492 27 280.492L31 282.492L36 286.492L34 283.492L32 279.492L30 279.492L15 259.492L15 256.492L16 258.492L17 257.492L33 269.492L35 269.492L26 259.492C22.6667 254.159 18 250.159 12 247.492L11 245.492L23 249.492C25.6667 248.826 26.6667 249.492 26 251.492L28 250.492L33 254.492L35 254.492L18 240.492L12 237.492L12 234.492L14 235.492L17 236.492L22 235.492L24 235.492C28 234.826 30.3334 235.159 31 236.492L34 236.492L14 227.492C11.3334 228.159 10.3334 227.492 11 225.492L22 223.492L29 219.492C32.3334 220.159 33.6667 219.492 33 217.492L16 217.492L13 216.492L15 215.492L13 214.492L29 204.492L31 201.492L26 203.492L24 202.492C22.6667 205.159 19.6667 206.159 15 205.492L13 205.492L12 205.492L13 203.492L27 188.492L32 186.492L33 184.492C26.3334 185.826 20.6667 188.826 16 193.492C14.6667 192.826 14.3334 193.492 15 195.492L14 195.492C18 184.826 23.3334 175.826 30 168.492C29.3334 166.492 30 165.826 32 166.492L36 160.492L18 176.492C22.6667 162.492 29.6667 151.159 39 142.492L37 141.492L26 155.492L22 163.492L20 164.492L23 155.492L46 111.492ZM36 255.492L35 255.492L35 256.492L36 255.492ZM36 299.492L23 283.492L19 280.492C23 288.492 28.3334 295.159 35 300.492L36 299.492ZM22 278.492L20 276.492L20 278.492L22 278.492Z" fill="#0E0E0E"/>
<path opacity="0.996078" d="M115 90.9922C115.667 94.6589 114.833 96.8255 112.5 97.4922C107.233 96.0922 103.4 93.2589 101 88.9922L100 80.9922L105.5 78.4922L112 83.9922L115 90.9922Z" fill="#0E0E0E"/>
<path opacity="0.996078" d="M115 325.992L113.5 331.492C109.767 324.026 107.6 315.359 107 305.492L100.5 310.492L88.5 313.492C83.5667 312.759 80.0667 310.592 78 306.992C74.1334 302.392 72.8 295.559 74 286.492L77 285.992L75 284.992L81 275.492C85.3334 271.492 92.3334 270.159 102 271.492L104 274.992L106 282.992L104 281.992L102 277.492L94.5 275.492L85 281.992C81.3334 285.659 79.6667 291.326 80 298.992L85.5 308.492L94.5 309.492L103 302.992C105.267 300.592 106.433 297.092 106.5 292.492L114 321.992L113 321.992L111.5 317.492L111 320.992L113.5 326.492L115 325.992Z" fill="#0E0E0E"/>
<path opacity="0.996078" d="M115 363.992C115.133 370.126 113.3 374.292 109.5 376.492L105.5 377.492C101.3 375.692 99.8001 371.192 101 363.992L106.5 356.492L113 357.492L115 363.992Z" fill="#0E0E0E"/>
<path opacity="0.996078" d="M105 236.492L104.5 262.492L103 252.992L103 236.492L105 236.492Z" fill="#0E0E0E"/>
<path opacity="0.996078" d="M104 288.992C103.467 295.792 100.967 300.626 96.5 303.492L89.5 304.492C85.9667 302.959 84.1334 299.792 84 294.992L85 288.992L89.5 281.492L98.5 280.492C101.3 282.359 103.133 285.192 104 288.992Z" fill="#0E0E0E"/>
<path opacity="0.996078" d="M102 160.992C103.333 167.325 102.167 171.158 98.4999 172.492L90.4999 172.492L85.9999 169.492L83.9999 159.992L88.4999 153.492C94.4999 152.492 98.3332 153.658 99.9999 156.992L102 160.992Z" fill="#0E0E0E"/>
<path opacity="0.996078" d="M102 235.992L101.5 261.492L100 240.992L101 235.992L102 235.992Z" fill="#0E0E0E"/>
<path opacity="0.996078" d="M95 238.992L94.5 261.492C92.2334 256.759 91.7334 250.259 93 241.992L93 239.992L95 238.992Z" fill="#0E0E0E"/>
<path opacity="0.996078" d="M93 440.992L91.5 442.492L88 438.992L81 426.992L71 399.992L63 363.992L63 355.992L60 347.992L54 309.992L54 307.992L52 270.992L51 269.992L52 267.992L51 264.992L51 228.992L50 227.992L51 226.992L52 169.992L53 168.992L54 147.992L56 139.992L56 137.992L57 120.992L59 115.992L59 113.992L61 95.9922L63 90.9922L63 85.9922L67 67.9922C70.1334 62.1255 72.1334 55.1255 73 46.9922L75 43.9922L76 36.9922L88 11.4922L90 11.9922C87.1334 13.5922 85.8 16.4255 86 20.4922C88.2 19.6255 88.8667 20.7922 88 23.9922L80 45.9922L80 49.9922L78 53.9922L70 89.9922L68 106.992L65 115.992L66 117.992L65 118.992L64 136.992L62 145.992L63 147.992L61 152.992L61 167.992L60 168.992L60 182.992L59 184.992L59 186.992L59 201.992L58 202.992L58 204.992L58 255.992L59 256.992L59 278.992L60 280.992L59 283.992L61 290.992L60 296.992L61 297.992L61 306.992L63 314.992L65 338.992L72 380.992L85 424.992L93 440.992Z" fill="#0E0E0E"/>
<path opacity="0.996078" d="M89 242.992L88.5 257.492L88 242.992L89 242.992Z" fill="#0E0E0E"/>
<path opacity="0.996078" d="M82 241.492L81.5 264.492L80 261.992L81 257.992L79 250.992L80 249.992L80 241.492L82 241.492Z" fill="#0E0E0E"/>
<path opacity="0.996078" d="M76 241.492L75.5 258.492L74 256.992L74 241.492L76 241.492Z" fill="#0E0E0E"/>
</svg>
