<svg width="365" height="489" viewBox="0 0 365 489" fill="none" xmlns="http://www.w3.org/2000/svg">
<path opacity="0.996078" d="M107.748 92.3305L110.258 87.892L110.868 82.8296L112.13 82.1915L119.631 62.5514L130.933 44.1592L142.575 31.1414L158.975 21.2646L170.035 19.6337L175.736 21.5055C183.114 25.9628 189.145 31.1008 193.83 36.9195C201.756 46.1178 208.126 56.1031 212.939 66.8755C222.99 89.2617 230.265 113.052 234.763 138.246L239.727 187.239L238.735 212.7L249.051 221.35L265.607 246.258C273.205 262.225 278.027 279.596 280.072 298.371L278.923 324.307L271.762 349.322L267.366 356.298L261.063 361.07L255.051 360.149L251.867 355.419C251.059 339.717 246.674 325.822 238.714 313.736L226.647 302.406L219.996 300.222L213.055 303.732L214.012 305.625L215.919 307.83C217.561 312.018 216.848 317.397 213.778 323.968L202.115 332.242C200.613 331.258 199.93 331.735 200.066 333.674L205.617 337.602L213.268 351.166C215.048 357.925 215.398 365.408 214.317 373.613L209.95 386.915L200.534 402.769L197.415 412.27L198.053 413.532L194.621 423.983L191.168 429.69L185.383 408.845L184.128 411.064L184.766 412.326L181.66 424.99L179.774 427.528L173.209 444.318L171.947 444.956L167.112 459.682L164.736 458.902L161.227 451.961L156.646 417.829L150.704 397.458C149.223 396.2 148.433 396.467 148.336 398.26L147.726 403.322C144.32 410.063 139.808 414.721 134.191 417.297L135.134 416.028L135.375 399.267L127.703 380.96L124.484 368.325L125.377 355.988L129.745 342.687L132.255 338.248L138.239 332.845L130.631 328.768C126.866 325.918 124.32 322.451 122.995 318.367L122.952 308.88L125.306 304.917C120.745 303.209 117.622 300.429 115.94 296.579L100.816 308.98L92.6485 321.033L90.1528 328.634L88.8907 329.272L88.2668 331.172L83.3181 355.861L76.7029 361.583L70.3642 358.449L64.6281 348.671C53.8252 323.232 55.4745 291.496 69.5762 253.464L80.8778 235.071L95.6821 222.039L93.9659 192.005L96.603 145.507L101.864 119.869L101.226 118.607L108.387 93.5926L107.748 92.3305ZM113.35 107.326L113.988 108.588L107.465 134.865L105.636 150.052L103.566 182.001L104.616 204.448L118.881 212.29L120.143 211.652C127.536 214.781 134.607 216.752 141.357 217.565L163.493 217.466C164.552 218.515 165.077 217.986 165.067 215.877L182.14 215.168L182.452 214.218L179.29 214.232L174.852 211.722C182.66 213.585 189.613 212.71 195.711 209.099L196.023 208.149L179.588 210.12L170.413 209.212L168.513 208.589L191.584 205.639L194.421 203.412L176.397 203.81L173.859 201.924L192.506 199.626L197.554 197.074C198.613 198.123 199.138 197.594 199.128 195.485L173.206 197.499L169.42 199.414L159.324 204.519L148.887 204.25C138.97 202.397 133.156 198.733 131.445 193.26C123.598 182.965 120.8 170.117 123.05 154.717L128.041 139.516L137.797 129.036C143.261 125.217 150.318 124.026 158.969 125.463C162.353 127.977 164.144 127.864 164.343 125.122L182.693 126.937L192.491 125.944L194.065 124.356L160.528 120.712L144.093 122.683L142.505 121.109L150.404 119.493L170.015 120.67L189.924 117.734L192.775 118.67L194.973 115.181L207.919 111.012L209.82 111.636L213.024 121.109L218.896 160.927L220.484 162.501L216.215 127.419L210.444 109.736L213.606 109.722C220.432 127.4 224.312 146.567 225.249 167.224L223.348 166.6L223.405 179.249L224.355 179.561L225.291 176.71L224.313 170.074L225.575 169.436L225.646 185.247L225.972 187.459L225.008 183.985L224.058 183.673L223.802 197.272L218.442 200.775L218.768 202.987L229.815 198.194C230.297 164.671 226.047 133.805 217.066 105.595C206.761 111.334 195.181 114.548 182.324 115.238L146.277 116.033L133.614 112.927L132.352 113.566L130.763 111.992C126.547 112.01 121.693 110.767 116.2 108.262C115.349 106.579 114.399 106.268 113.35 107.326ZM115.845 99.7256L120.284 102.235L133.897 105.653L148.135 107.17L184.805 104.475L186.379 102.887L148.744 102.108L145.256 99.9096L146.83 98.3214L171.178 97.8957L171.49 96.9456L167.689 95.6978L143.653 95.1734L141.115 93.2874L153.126 91.9685C158.193 93.6323 162.726 93.7173 166.725 92.2236C167.784 93.2729 168.308 92.7435 168.299 90.6354L150.261 87.8703L146.461 86.6225C150.668 84.4954 156.255 84.5757 163.222 86.8634L165.108 84.3251L168.271 84.3109L168.583 83.3608L162.882 81.489L145.171 80.9361L142.632 79.0502L151.807 79.9576L158.755 78.029L161.606 78.9649L166.654 76.4124L168.554 77.0363L170.128 75.4481L160.003 74.2286L145.78 75.8737L145.454 73.6616L148.928 72.6973L167.576 70.3998L167.249 68.1877L164.399 67.2518L151.438 68.2587L149.85 66.6847L147.638 67.0109L146.05 65.4369L166.271 61.5512C167.33 62.6006 167.854 62.0712 167.845 59.963L153.296 59.3959L148.857 56.886L159.606 56.2053L161.506 56.8292L164.98 55.8649L163.392 54.2909L165.292 54.9148L166.866 53.3265L152.317 52.7595L150.729 51.1855L162.428 50.8166C163.903 50.5992 164.215 49.6491 163.364 47.9664L166.526 47.9521L166.838 47.0021L152.289 46.435L150.389 45.8111L159.237 44.5064L161.123 41.968C160.48 39.6519 159.426 39.6567 157.961 41.9823L156.373 40.4082L161.095 35.6436L162.357 35.0054L157.621 36.6079L156.032 35.0338L165.179 29.6168L164.229 29.3048L154.444 33.4598L138.08 51.2423L129.288 65.196L123.659 79.1354L122.397 79.7736L115.845 99.7256ZM72.0438 274.798L72.6819 276.06L68.3429 295.686L67.7758 310.235L72.3422 341.205L75.2067 345.303L71.3211 325.082L71.5335 301.996L73.0649 290.921L82.7357 261.468L87.7697 255.754L85.9122 264.616L86.8623 264.928L92.1514 245.615C94.2596 245.605 94.8882 244.759 94.0374 243.076L96.5757 244.962C98.6649 240.736 98.6507 237.574 96.5331 235.475L84.2529 247.231L75.4753 264.347L72.0438 274.798ZM93.7396 247.189C94.6378 259.412 97.0061 270.364 100.844 280.045L103.709 284.143L104.333 282.243L95.3278 248.763L95.9518 246.862C94.2596 245.605 93.5222 245.714 93.7396 247.189ZM105.282 212.035L105.963 222.784L108.827 226.882L122.767 232.511L125.305 234.397L145.881 239.048L153.468 238.382L165.464 233.901L168.3 231.674L157.864 231.405L156.275 229.831L186.933 226.215L211.565 218.514L211.877 217.564L201.454 220.457L170.796 224.074L133.785 221.394L124.284 218.274L122.384 217.65L120.172 217.977L110.033 213.595L106.856 210.447L105.282 212.035ZM83.1472 282.654L78.2553 319.991L79.2054 320.303C83.7713 304.26 86.2338 289.281 86.5929 275.365L83.7711 280.754L83.1472 282.654ZM128.75 156.589C127.521 164.606 127.763 171.351 129.474 176.825C131.402 183.773 135.538 189.341 141.882 193.529L151.383 196.649L161.493 194.706C165.7 192.579 169.373 188.873 172.512 183.588L175.319 175.037L175.915 166.813L171.717 147.542C169.58 141.227 164.816 136.504 157.423 133.375L155.523 132.751L146.986 133.106C137.93 135.044 131.851 142.872 128.75 156.589ZM106.318 231.32L110.217 254.704L112.132 258.49L120.059 263.198L140.961 270.061L154.56 270.316L154.546 267.154L144.421 265.935L135.232 261.865L149.157 264.332L153.893 262.73L154.205 261.78L148.831 262.12L134.891 256.491L153.241 258.305C154.3 259.355 154.824 258.825 154.815 256.717L147.852 255.484L137.713 251.102L154.163 252.293L154.148 249.131L144.662 249.173L141.173 246.975L147.81 245.997L148.434 244.097L138.309 242.877L113.606 234.766L108.53 230.994C106.837 229.737 106.1 229.846 106.318 231.32ZM176.906 35.5725C184.526 42.2845 190.463 49.8474 194.717 58.2611L207.168 84.4523L209.749 95.825L204.062 97.1155L197.44 101.256L210.713 99.2992L213.861 96.1227L213.521 90.7483L208.401 77.4897C202.426 61.4941 192.561 47.7297 178.806 36.1964L176.906 35.5725ZM177.332 59.9204L178.282 60.2323L178.594 59.2822L177.332 59.9204ZM112.486 267.027L114.387 267.651L120.47 284.384C121.557 291.758 126.114 297.113 134.14 300.45L135.714 298.862L137.941 301.698L141.103 301.684L140.777 299.471L142.365 301.046L147.739 300.705L143.854 280.484L145.116 279.846C148.727 285.943 150.656 292.892 150.902 300.691L153.114 300.365L150.504 282.668L151.44 279.817C151.223 278.342 150.589 278.135 149.54 279.193L128.638 272.33L116.911 266.374C113.952 264.701 112.477 264.919 112.486 267.027ZM179.317 79.5178L182.806 81.7157L183.117 80.7656L179.317 79.5178ZM164.669 127.334C169.32 130.265 173.026 133.938 175.787 138.353L194.434 136.055C195.493 137.104 196.018 136.575 196.008 134.467L178.297 133.914L175.758 132.028L190.307 132.595L191.882 131.007L164.669 127.334ZM196.064 76.5964L201.495 88.905L203.722 91.7411L203.708 88.5788L197.326 75.9583L196.064 76.5964ZM176.113 140.565L178.013 141.189L179.616 145.925L184.678 146.535L196.051 143.954L195.101 143.642L195.725 141.742C191.726 143.235 187.297 142.833 182.437 140.536L180.537 139.912C177.578 138.239 176.103 138.457 176.113 140.565ZM180.58 149.399L183.459 156.659L194.831 154.079L196.405 152.49L193.243 152.505L191.655 150.931L193.555 151.554L193.867 150.604L180.58 149.399ZM131.021 309.951L138.948 314.659C144.866 318.005 150.141 319.036 154.773 317.75L154.447 315.538L150.335 315.24L146.846 313.042L132.595 308.363L131.021 309.951ZM182.835 158.56L185.089 167.72L192.038 165.792L191.712 163.579L189.5 163.906L187.599 163.282L194.86 160.403L193.271 158.829L182.835 158.56ZM131.687 317.538L139.302 323.195L155.766 327.549L155.425 322.174L131.687 317.538ZM174.142 194.649C181.951 196.511 189.434 196.162 196.59 193.6L199.426 191.373L177.929 192.735L174.142 194.649ZM183.218 173.421L191.754 173.066L195.229 172.102L196.803 170.514C192.369 169.058 189.207 169.072 187.316 170.556C184.357 168.883 182.991 169.838 183.218 173.421ZM179.176 188.934L193.399 187.289L196.235 185.063L189.599 186.041L187.061 184.155L195.597 183.801L197.171 182.213L187.373 183.205L185.784 181.631L191.159 181.291L196.519 177.788L186.082 177.519L183.232 176.583L179.176 188.934ZM146.747 290.906L147.697 291.218L148.009 290.268L146.747 290.906ZM147.073 293.119L148.051 299.755L149.001 300.067L148.335 292.48L147.073 293.119ZM151.752 278.867L154.674 295.614L155.624 295.926L153.652 279.491L151.752 278.867ZM163.919 241.813L161.579 284.199L168.188 347.415L169.138 347.727C171.199 337.177 170.944 327.27 168.372 318.005L170.683 269.295L168.343 241.161C169.6 239.469 169.175 238.628 167.067 238.637L163.919 241.813ZM174.001 233.546L176.227 236.382L186.976 235.701L203.397 230.568L207.495 227.703C196.548 231.126 185.383 233.073 174.001 233.546ZM135.02 355.47C133.999 362.854 134.448 368.965 136.367 373.806L137.956 375.38L137.615 370.005L139.189 368.417L141.444 377.578C140.187 379.27 140.612 380.111 142.72 380.102L144.309 381.676L144.89 370.289L146.776 367.75L148.747 384.186L149.697 384.498L151.243 376.585L151.555 375.635L153.143 377.209C151.886 378.901 152.311 379.742 154.419 379.733C156.972 384.781 158.366 390.151 158.603 395.842L160.829 398.678L161.098 388.241L162.36 387.603C165.546 392.859 167.366 399.07 167.82 406.236L168.189 417.935L165.75 438.185L168.26 433.746L179.802 398.593L179.164 397.331L184.468 381.179L183.83 379.917L185.715 377.379L185.092 379.279L189.247 389.063C187.989 390.755 188.415 391.597 190.523 391.587L197.074 371.635L197.031 362.149L198.605 360.56C201.375 367.083 200.993 375.729 197.457 386.496L200.279 381.108L200.889 376.045L202.463 374.457L201.839 376.357L203.427 377.931L204.944 363.694L203.625 351.683C201.914 346.21 198.416 341.904 193.131 338.765L191.543 337.191L195.103 355.2L193.898 368.487L191.388 372.926L189.133 363.765L187.545 362.191L189.487 372.302L189.814 374.514L184.666 354.931L181.163 349.571C179.074 353.796 178.772 356.855 180.256 358.745L176.824 369.197L177.165 374.571L174.952 374.897L173.109 386.922L173.435 389.134L170.869 380.924L169.607 381.562C164.927 372.307 162.351 361.988 161.878 350.606L159.651 347.77L154.036 364.872L154.674 366.134C154.684 368.242 153.842 368.667 152.15 367.41L149.229 350.663L151.072 338.638L146.96 338.34L143.174 340.255L137.204 348.82L135.02 355.47ZM205.552 147.073L208.714 147.059L207.126 145.485L205.552 147.073ZM206.19 148.335L207.778 149.909L208.09 148.959L206.19 148.335ZM175.334 248.719L179.631 290.126L179.447 319.536L177.32 338.836C174.598 342.854 174.607 344.962 177.349 345.161L182 324.585L182.85 302.761L179.177 259.454L176.596 248.081L175.334 248.719ZM204.162 189.771L207.637 188.806C208.894 187.114 208.993 185.743 207.934 184.694L204.162 189.771ZM189.345 270.16L190.933 271.734L191.245 270.784L189.345 270.16ZM192.819 269.196C198.094 270.226 203.147 268.728 207.978 264.7L208.29 263.75L192.819 269.196ZM207.807 226.753L209.395 228.327L210.969 226.739L207.807 226.753ZM223.419 182.411L224.369 182.723L224.993 180.823L223.419 182.411ZM216.613 215.962L225.462 214.657L225.788 216.869L217.592 222.598L219.18 224.172L228.95 216.855L229.234 209.581C230.283 208.522 229.754 207.997 227.645 208.007L216.613 215.962ZM189.246 318.544L200.307 316.913L207.241 311.822L191.77 317.267C190.078 316.01 189.236 316.436 189.246 318.544ZM208.602 262.8C215.55 260.871 221.43 255.785 226.242 247.542L229.021 232.666L228.695 230.454L224.909 232.369L224.951 241.855L223.08 247.556L223.037 238.069C224.502 235.744 224.181 234.586 222.073 234.595L219.917 247.57L221.818 248.194L218.996 253.583L208.602 262.8ZM189.586 323.918L200.023 324.187L206.645 320.047L201.271 320.387L189.586 323.918ZM207.382 272.925L212.445 273.535L218.755 270.344L215.919 272.57L212.487 283.021L213.125 284.283L209.665 288.41L209.68 291.572L217.535 280.469L222.527 265.267L207.382 272.925ZM218.343 249.158L219.294 249.47L219.606 248.52L218.343 249.158ZM239.756 228.823L241.656 229.447L241.67 232.61L258.559 261.311C264.317 275.831 267.55 291.628 268.259 308.702L265.211 334.014L261.467 345.415L263.679 345.089L268.047 331.788L268.671 329.887L271.436 311.85L271.039 293.826C269.724 282.87 266.935 272.13 262.672 261.608C258.399 248.978 251.285 237.521 241.33 227.235L239.756 228.823ZM237.983 256.66C239.288 265.508 238.91 275.208 236.849 285.758L238.438 287.332L239.331 274.995L240.891 270.245L240.196 256.333C238.503 255.076 237.766 255.185 237.983 256.66ZM255.851 291.997L257.213 313.495L258.163 313.807C258.758 305.582 258.513 297.783 257.425 290.409L255.851 291.997Z" fill="#040404"/>
<path opacity="0.996078" d="M132.069 156.099L135.188 146.598C137.906 141.527 141.581 138.348 146.214 137.062C149.097 135.974 152.789 136.484 157.289 138.593C164.033 142.843 168.379 148.305 170.328 154.979L172.937 172.676L169.506 183.127C166.721 187.546 163.15 190.408 158.792 191.713C155.238 193.564 150.492 193.058 144.555 190.196L135.657 180.433C132.189 173.471 130.993 165.359 132.069 156.099ZM140.804 164.757L141.485 175.505L144.987 180.866L148.15 180.851L149.086 178.001L145.54 163.154L149.596 150.803L152.432 148.576C153.481 147.518 152.952 146.993 150.844 147.002L150.22 148.903L144.548 153.355L140.804 164.757Z" fill="#040404"/>
</svg>
