<svg width="518" height="624" viewBox="0 0 518 624" fill="none" xmlns="http://www.w3.org/2000/svg">
<path opacity="0.996078" d="M245.762 19.9044L256.568 25.218L273.962 43.8582C287.251 61.4609 297.559 80.3648 304.886 100.57C311.407 118.812 315.466 138.128 317.062 158.52L319.007 157.671L324.685 145.935L328.291 143.589L336.104 145.58C348.045 157.856 356.401 171.697 361.17 187.103L364.106 209.739L361.04 335.292L361.29 372.988L362.704 376.228C376.994 387.993 386.835 401.701 392.225 417.35L394.559 433.305C395.223 436.358 394.505 440.015 392.404 444.276L387.502 447.186L359.581 451.271L356.914 469.023L361.156 478.744L363.501 482.35L365.8 492.92L362.878 500.367L358.259 503.926C362.003 510.264 362.55 517.998 359.899 527.128L358.685 526.114C356.905 524.628 355.947 524.789 355.81 526.598C357.197 530.364 356.424 535.074 353.49 540.726L351.71 538.417L350.214 536.755L344.983 545.982L344.854 554.525L342.344 554.078L340.382 552.234L339.68 544.439L336.64 548.08L327.957 568.843L318.824 549.684L318.34 546.809C316.9 551.758 314.818 555.238 312.096 557.25L310.134 555.406L311.577 548.989L308.165 538.52C305.17 536.844 302.666 537.294 300.653 539.87L302.16 529.182L300.345 521.488C298.926 520.358 298.156 520.951 298.036 523.267L295.16 523.75L294.477 518.648L299.955 504.684L300.968 503.471C295.226 501.862 292.205 499.066 291.906 495.082C291.925 488.644 294.105 481.263 298.444 472.94L295.616 466.459L293.965 455.607L279.206 456.262C280.249 458.533 279.713 461.724 277.599 465.836L272.697 468.747L269.822 469.23L267.738 490.971C256.97 495.053 245.153 495.968 232.287 493.713L226.827 510.369L222.956 514.759L219.333 514.412C215.012 510.64 212.29 506.17 211.166 501.003L209.551 495.535L190.969 493.616L182.59 490.329L180.628 488.485L182 471.299L183.013 470.085C174.289 466.949 169.583 462.059 168.895 455.416L169.243 451.792C165.831 448.807 163.92 450.026 163.51 455.451L162.085 464.56L162.769 469.662L170.37 481.775L170.807 491.614L163.614 498.997C162.206 497.657 161.403 497.879 161.204 499.663L164.068 511.529L161.73 522.965L156.51 519.843L148.987 533.542L149.005 536.234L143.584 530.885L137.558 546.245L136.845 550.799C129.042 544.587 123.576 537.071 120.447 528.253L117.59 531.429C115.646 531.454 115.208 530.745 116.276 529.302L112.964 519.946L111.038 523.487C107.319 522.744 105.573 520.806 105.799 517.672L104.231 505.241L106.77 496.032C101.497 494.321 98.3213 491.464 97.2424 487.46L99.9637 477.786L108.6 463.987C107.291 457.1 107.582 449.515 109.47 441.233L102.223 440.538L75.0619 433.105L72.7167 429.499L74.6361 410.916L80.4796 396.022C91.4441 380.486 103.804 368.148 117.559 359.007L120.991 232.523L124.722 179.202L126.018 178.637L132.428 165.038L142.926 151.969C146.903 146.942 151.617 143.599 157.065 141.941L162.085 142.836L167.241 150.23L173.432 131.711L172.866 130.415L178.344 116.451L177.779 115.155L188.37 88.1586L189.666 87.5929L199.928 66.9121L212.617 48.2579L230.491 27.3409L240.377 19.9402L245.762 19.9044ZM249.822 30.0909L245.368 30.4919L245.569 32.719L248.727 32.8837C250.966 34.4782 252.018 34.5332 251.885 33.0484L249.822 30.0909ZM254.312 35.075L251.72 36.2064L239.088 35.5475L238.723 36.4784L251.555 39.3644L253.983 41.391L237.462 42.4292L237.097 43.3601L249.93 46.2461L251.426 47.9074L253.653 47.707L256.081 49.7335L237.133 48.7451L237.333 50.9722L252.393 53.6577L256.682 56.4147L234.576 55.2616L234.211 56.1925L258.58 62.5302L259.511 62.8954L231.655 62.709C230.036 61.3579 229.172 61.735 229.062 63.8404L234.447 63.8046L245.053 66.8911L262.339 69.3761L263.836 71.0375L234.118 70.1206L232.457 71.6172L265.168 75.8568L266.664 77.5182L229.334 76.8375L228.969 77.7684L263.542 82.7385L265.039 84.3999L228.274 85.0153L227.909 85.9462L261.917 89.6202L265.275 92.012L226.284 92.8279L225.918 93.7588L266.242 97.7622L291.47 93.6951C282.662 72.3362 270.276 52.7962 254.312 35.075ZM229.65 40.4383L213.072 60.7896L200.583 81.6709C197.881 84.9076 198.635 86.6358 202.846 86.8554L215.134 63.7471L219.187 58.892L224.501 48.0862L228.189 44.162L229.65 40.4383ZM296.16 100.906L282.067 103.971L249.027 106.047L220.039 103.269L214.454 101.077L207.207 100.383L195.105 95.6347L191.617 101.786L211.532 108.525L243.677 111.468L280.807 109.922L296.196 106.291L297.857 104.795L296.16 100.906ZM299.024 112.772L286.428 117.498L285.734 124.745L289.779 174.671L290.394 211.436L287.937 288.889L291.568 304.278L293.63 307.235L295.75 290.879L293.874 260.066L295.536 258.569L297.941 285.294L296.824 312.785L299.452 317.039L300.72 256.306L302.747 253.879L302.338 304.206L304.307 321.092C302.956 322.71 303.333 323.574 305.438 323.684L306.57 326.276L310.144 221.332L309.493 179.183C308.352 156.535 304.93 135.14 299.225 114.999C300.576 113.381 300.509 112.638 299.024 112.772ZM279.181 116.803L259.704 119.904L214.196 118.163L212.534 119.66C220.225 121.961 227.35 122.966 233.91 122.675L235.406 124.336L221.113 125.174L222.61 126.835L214.067 126.706L212.405 128.203L232.284 129.557L235.643 131.948L214.102 132.091L212.441 133.588L231.024 135.507L232.52 137.169L211.911 137.677C209.672 136.082 208.498 136.338 208.388 138.443L222.882 139.832L223.447 141.129C219.127 143.014 214.241 143.604 208.789 142.897L208.424 143.828L219.394 145.984C226.173 141.482 234.327 138.952 243.856 138.393L257.985 140.714C263.327 143.526 267.251 147.213 269.757 151.777C273.395 158.934 274.751 167.343 273.824 177.006L273.709 215.632L275.843 229.359L278.6 225.07L280.663 228.028L276.044 231.586L277.519 257.946L280.182 267.585L282.61 269.611L283.935 189.566L282.389 152.436L279.181 116.803ZM331.785 152.48L329.394 155.838L332.387 159.161L329.429 161.223L334.65 164.346L326.672 165.513L331.893 168.635L337.278 168.599L337.843 169.895L327.639 171.263L327.274 172.194L332.294 173.089L337.514 176.211L331.398 178.109C330.291 179.107 330.79 179.66 332.895 179.77L333.826 180.136L326.214 180.372L325.849 181.303L341.639 182.126L348.685 180.594L348.85 177.436C346.744 177.326 346.246 176.772 347.353 175.775C344.446 166.757 339.257 158.992 331.785 152.48ZM188.896 111.46L181.427 133.237L175.526 167.445L171.336 235.624L169.546 245.664L169.903 299.514L171.4 301.176L174.214 277.573L175.826 240.608L178.11 221.095L177.838 208.097L181.147 175.021L186.282 137.29L188.803 125.388L193.185 114.217L188.896 111.46ZM247.25 146.17L236.115 147.173C230.553 148.571 225.934 152.13 222.258 157.849L216.981 174.04L215.663 199.304L216.83 207.282C215.722 208.279 216.221 208.833 218.327 208.943L219.787 205.219L220.941 183.113L223.991 167.123C225.562 161.294 227.765 157.503 230.601 155.751C235.031 151.76 240.283 150.24 246.355 151.19L253.803 154.112L258.858 160.392L260.956 168.735L260.476 208.292L264.4 211.98L264.966 213.276L264.444 162.583L258.987 151.849L247.25 146.17ZM352.079 188.371L326.851 192.438L337.657 197.752L333.203 198.153L330.245 200.215L332.472 200.014L338.258 204.433L330.281 205.6L328.62 207.097L331.778 207.261L338.86 211.114L329.952 211.916L328.29 213.412L337.399 214.838L335.372 217.265C334.021 218.884 334.398 219.748 336.504 219.857L339.662 220.022L340.227 221.318C336.771 222.827 332.749 223.039 328.161 221.956L328.362 224.183C338.024 225.109 347.054 223.997 355.452 220.846L353.848 203.029L354.743 198.01L353.211 190.963L352.079 188.371ZM218.664 147.846L203.074 149.249L203.275 151.476L215.907 152.135L217.568 150.638L218.664 147.846ZM248.453 159.533L247.157 160.098C244.918 158.504 243.932 159.191 244.2 162.161C248.3 164.486 250.673 167.565 251.317 171.398C250.21 172.396 250.709 172.95 252.814 173.06C254.409 170.821 254.518 168.715 253.144 166.744L250.315 160.263L248.453 159.533ZM212.584 155.128L208.33 157.756L204.241 157.226L204.442 159.453L212.054 159.217C213.892 156.357 214.069 154.995 212.584 155.128ZM210.027 161.645L203.182 165.404L207.636 165.003L209.132 166.664C210.727 164.425 211.025 162.752 210.027 161.645ZM208.037 169.457L205.444 170.589C203.826 169.238 202.962 169.615 202.852 171.72L206.941 172.25L208.037 169.457ZM354.392 229.024L329.529 232.16L329.164 233.091L337.341 234.151L340.7 236.543L332.723 237.71L329.765 239.772L331.992 239.572L333.489 241.233L335.716 241.032L338.143 243.059L333.689 243.46L332.959 245.322L330.732 245.522L330.367 246.453L338.544 247.513L340.041 249.174L332.429 249.411L330.768 250.907L334.856 251.437L334.126 253.299L337.284 253.464C339.389 253.574 339.766 254.438 338.415 256.056L332.099 255.727L329.142 257.789L331.369 257.589L339.017 262.737L329.743 264.47L330.309 265.766L333.832 265L336.26 267.027L326.421 267.463L326.621 269.69C336.527 269.996 345.557 268.884 353.711 266.354L354.227 232.182C355.822 229.943 355.877 228.89 354.392 229.024ZM154.444 152.729L153.714 154.59L155.941 154.39L154.444 152.729ZM205.48 175.974L202.888 177.105L204.75 177.836L205.48 175.974ZM154.68 160.341L148.93 161.307L149.131 163.534L154.516 163.499C155.513 164.606 155.945 164.418 155.812 162.933L154.68 160.341ZM155.282 167.022L149.897 167.058L148.235 168.554C151.338 169.772 154.186 169.815 156.778 168.683L155.282 167.022ZM157.91 171.276L147.14 171.347L145.478 172.844L156.814 174.068L157.91 171.276ZM247.114 209.495L235.978 210.497C228.688 212.65 222.53 217.395 217.503 224.733L214.581 232.18L216.443 232.911L219.73 224.532L230.063 214.622C232.899 212.87 236.179 212.724 239.902 214.185L241.764 214.915L243.261 216.577L233.787 216.083L229.899 217.78L230.464 219.076L239.573 220.501L243.096 219.735L243.662 221.031L231.23 222.599L228.438 221.503L228.638 223.73L235.885 224.425L239.244 226.817L228.473 226.888L225.516 228.951L228.309 230.046C233.894 232.238 239.036 232.823 243.733 231.801L244.299 233.097L232.233 233.734L223.124 232.309L222.759 233.24C237.763 236.978 251.758 237.814 264.744 235.747L263.777 229.997C262.111 221.465 256.556 214.631 247.114 209.495ZM155.518 174.634L151.064 175.035L149.403 176.532L157.015 176.295L155.518 174.634ZM146.61 175.436L139.929 176.037L139.563 176.968L148.106 177.097L146.61 175.436ZM200.804 198.846L199.142 200.342L201.369 200.142L200.804 198.846ZM154.093 183.743L139.434 185.511L137.773 187.008L149.675 189.529L138.575 195.916L144.891 196.246C146.996 196.356 147.373 197.22 146.022 198.838L138.976 200.37L137.315 201.867L143.265 203.127L145.693 205.154L136.054 207.818L139.413 210.21L141.64 210.009L145.929 212.766L131.271 214.535L130.905 215.466C138.84 217.146 146.208 217.531 153.011 216.619L154.093 183.743ZM200.839 204.231L199.178 205.727L202.336 205.892L200.839 204.231ZM198.648 209.816L196.987 211.313L199.214 211.112L198.648 209.816ZM354.678 272.104L328.884 274.875L328.519 275.806C332.62 278.131 335.966 278.728 338.558 277.596L339.124 278.892L335.601 279.659L330.051 282.852L337.298 283.547C338.783 283.413 338.85 284.156 337.498 285.774L333.975 286.54C331.736 284.946 330.44 285.511 330.087 288.237L329.722 289.168L332.88 289.333L337.169 292.09L331.054 293.988L329.392 295.484L335.708 295.814L338.136 297.84L331.089 299.373L329.428 300.869L338.537 302.294L337.806 304.156L331.125 304.758L329.464 306.254L336.711 306.949L338.207 308.61C341.687 310.692 344.413 311.045 346.385 309.67L347.101 277.725L348.763 276.229L349.565 285.137L349.543 309.835C342.497 311.367 335.195 311.725 327.638 310.909L327.272 311.84L336.381 313.265L352.901 312.227L354.678 272.104ZM199.414 213.34L199.049 214.27L199.98 214.636L199.414 213.34ZM265.145 240.201C248.703 243.777 230.875 243.585 211.659 239.628L208.609 255.618L210.105 257.279C230.318 262.345 248.834 263.522 265.653 260.81C267.71 253.74 267.918 247.734 266.276 242.793L265.145 240.201ZM274.633 270.778L273.773 281.183L279.867 303.984C283.906 315.594 290.293 326.694 299.029 337.283L313.795 351.669L340.097 369.507L356.159 383.328L375.25 405.857L381.637 416.956L382.003 416.025C377.964 404.415 371.211 394.246 361.744 385.519L339.13 363.757L332.048 359.904L305.911 338.908C299.06 332.64 293.816 325.928 290.178 318.771C282.903 304.459 278.098 289.325 275.764 273.371L274.633 270.778ZM150.09 224.066L138.023 224.703C136.405 223.352 135.541 223.729 135.431 225.835L135.066 226.766L144.175 228.191L147.533 230.583L139.556 231.75L136.598 233.812L142.549 235.072L145.907 237.464L137.565 239.562L138.131 240.858L146.308 241.918L145.578 243.78L136.67 244.582L138.166 246.244L135.939 246.444L147.311 253.054L132.652 254.822C130.413 253.228 129.239 253.483 129.129 255.588C136.199 257.646 143.136 258.219 149.939 257.307L151.787 227.955C153.625 225.095 153.059 223.799 150.09 224.066ZM265.524 269.353C257.857 270.642 249.746 270.325 241.191 268.401L237.302 270.098L234.667 320.625C244.706 322.416 254.113 322.168 262.888 319.881L265.524 269.353ZM230.421 268.472C225.103 269.25 219.219 268.732 212.769 266.918L211.473 267.484L209.045 265.457L206.854 271.043L206.761 284.971L203.015 308.208L203.252 315.82L210.699 318.742L229.282 320.661L230.377 317.868L231.989 280.904L231.187 271.995C232.781 269.756 232.526 268.582 230.421 268.472ZM352.572 318.543L346.457 320.44L330.867 321.844L333.295 323.87L335.522 323.67L338.88 326.062L330.738 330.387L337.985 331.082L341.343 333.473L332.07 335.206L332.636 336.502L337.09 336.101L341.379 338.858L332.471 339.66L332.671 341.887L338.987 342.217L341.415 344.243C339.82 346.482 337.593 346.683 334.734 344.845C333.383 346.463 335.311 347.936 340.52 349.263L340.155 350.194C338.536 348.843 337.672 349.22 337.562 351.326L339.99 353.352C342.095 353.462 342.472 354.326 341.121 355.944L345.976 359.998L346.127 326.756L348.154 324.329L348.769 361.093L351.762 364.416L352.657 359.396L352.572 318.543ZM198.877 272.21L187.849 289.367L176.856 311.91L159.018 338.212L103.227 381.85L90.5013 395.119L85.9182 404.063C84.4335 404.197 84.5003 404.94 86.1187 406.291L101.601 388.732L116.553 375.262L151.477 349.218L164.768 337.245L175.796 320.088L189.546 293.256L190.842 292.69L194.494 283.381L195.79 282.815C198.359 278.094 199.387 274.559 198.877 272.21ZM275.849 314.224L274.188 315.721L275.921 324.994C277.186 329.071 279.936 333.014 284.17 336.824L283.805 337.755L279.516 334.998C277.277 333.403 276.102 333.659 275.992 335.764L288.295 342.739L287.93 343.67L280.482 340.748L278.821 342.245L289.627 347.558C286.037 347.582 281.759 346.62 276.794 344.672L296.544 354.569C291.226 355.347 285.032 354.707 277.962 352.65L278.162 354.877L283.547 354.841L290.994 357.763L301.965 359.918L303.827 360.649L307.185 363.041L302.165 362.145L300.304 361.415L281.721 359.496L280.06 360.992L296.981 364.408L313.172 369.686L314.468 369.12L316.896 371.147L289.77 369.099L289.97 371.326L323.612 375.931L326.04 377.957L281.828 375.651L281.463 376.582L295.226 379.833L312.878 381.387L338.908 386.228L341.336 388.255C326.221 386.622 311.673 386.285 297.69 387.245L294.897 386.149L293.236 387.646L335.421 392.379L339.144 393.84L346.757 393.604L347.322 394.9L338.414 395.702L298.857 395.222L297.195 396.719L342.904 400.686L344.4 402.348L323.225 401.56L294.639 403.235L292.978 404.732L353.344 406.931L354.841 408.592L334.798 410.396L292.082 409.751L292.283 411.979L351.719 413.812L366.012 412.975L366.578 414.271L334.833 415.781L308.273 415.029L283.41 418.165L283.045 419.096L342.846 419.999L376.453 419.219L353.037 388.548L332.685 371.971L322.245 365.726L320.182 362.769L300.032 348.418L287.128 334.762L282.803 326.62L280.576 326.82L284.7 332.735L284.901 334.962L281.907 331.64L275.849 314.224ZM149.079 267.712L134.786 268.55L131.829 270.612L142.799 272.768L145.227 274.794L135.022 276.162L133.361 277.659L137.45 278.189L139.877 280.215L143.966 280.745L143.236 282.607L132.101 283.609L130.439 285.106L140.844 285.965C142.949 286.075 143.327 286.939 141.975 288.558L138.452 289.324C136.834 287.973 135.97 288.35 135.86 290.455L132.902 292.518L138.288 292.482C139.906 293.833 140.77 293.456 140.88 291.35L146.63 290.384L148.821 284.798L149.48 272.166C151.939 269.55 151.805 268.066 149.079 267.712ZM280.74 323.662L280.941 325.889C282.292 324.271 282.225 323.529 280.74 323.662ZM262.559 326.197L238.992 328.768L235.268 327.307C232.685 348.494 231.709 369.236 232.339 389.535L235.497 389.7L233.835 391.197L234.401 392.493L246.467 391.856L247.033 393.152L233.671 394.355L236.098 396.381L238.891 397.477L258.003 395.307L261.419 378.386L262.759 328.424C264.11 326.806 264.043 326.063 262.559 326.197ZM226.725 327.178L214.093 326.519L202.192 323.998L201.325 389.184L202.821 390.846L203.917 388.053L205.915 325.459C213.496 329.865 220.378 331.491 226.56 330.336L226.03 334.425L217.487 334.296L217.122 335.226L226.797 337.948L226.632 341.106L219.02 341.342C216.16 339.504 214.675 339.638 214.566 341.743L225.536 343.899C227.021 343.765 227.088 344.507 225.737 346.126L215.898 346.562L215.532 347.493L224.276 349.849L225.207 350.214L222.049 350.05L220.387 351.546L224.476 352.076L225.608 354.669L213.541 355.306L213.176 356.237L220.989 358.228L224.512 357.461C226.617 357.571 226.441 358.934 223.982 361.55L217.666 361.221L216.005 362.717L219.163 362.882C222.509 363.479 224.128 364.83 224.018 366.935L212.883 367.938L211.221 369.434L222.922 369.728C224.03 368.73 224.529 369.284 224.419 371.389L220.896 372.156L219.234 373.652L222.392 373.817L223.889 375.478L210.892 375.75L211.092 377.977L221.862 377.906C223.968 378.016 224.345 378.88 222.994 380.498L216.312 381.1L213.355 383.162L222.829 383.656C224.314 383.523 224.38 384.265 223.029 385.883L219.506 386.649C217.888 385.298 217.024 385.675 216.914 387.781L222.299 387.745L222.865 389.041L213.391 388.547L213.591 390.774L223.996 391.633L228.565 352.606L228.787 330.135L226.725 327.178ZM139.054 296.005L130.145 296.807L128.484 298.304L136.297 300.294L138.889 299.163C140.484 296.924 140.538 295.871 139.054 296.005ZM143.579 306.374L133.01 308.673L132.645 309.604L143.615 311.759L143.78 308.601C145.131 306.983 145.064 306.241 143.579 306.374ZM215.26 334.496L214.895 335.427L215.826 335.792L215.26 334.496ZM142.154 315.483L133.611 315.354L130.654 317.416L135.108 317.015L136.604 318.677L140.693 319.207L142.72 316.779L142.154 315.483ZM193.756 340.024C192.405 341.642 192.782 342.507 194.887 342.616C196.238 340.998 195.861 340.134 193.756 340.024ZM175.703 334.016L159.29 351.209L111.44 388.295L97.254 405.288L125.876 408.998L163.772 410.975C165.391 412.326 166.255 411.949 166.364 409.843L164.137 410.044L156.69 407.122L138.838 403.341L112.643 401.658L109.85 400.562L154.792 401.006C157.031 402.601 158.206 402.346 158.316 400.24L119.654 394.74L116.861 393.645L161.438 395.02C163.677 396.614 164.851 396.359 164.961 394.254L131.319 389.649L118.322 389.921L117.756 388.625L151.362 387.845L168.083 389.033L168.449 388.103L160.636 386.112L125.332 383.003L123.105 383.204L132.379 381.471L166.551 381.987L166.916 381.056C154.881 377.051 144.288 375.759 135.136 377.182C133.031 377.072 132.653 376.208 134.004 374.589L170.769 373.974L171.134 373.043L159.233 370.522L143.443 369.699C141.337 369.589 140.96 368.725 142.311 367.106L154.578 368.696L170.167 367.293L171.829 365.796L154.542 363.311L151.95 364.443C149.09 362.605 147.794 363.17 148.061 366.14L146.2 365.409L160.421 353.801L174.242 337.74L175.703 334.016ZM138.302 322.565L132.551 323.532L134.048 325.193L132.186 324.463L130.525 325.959C133.007 326.933 135.234 326.733 137.206 325.358L138.302 322.565ZM194.723 345.774L191.565 345.61L189.903 347.106L193.992 347.636L194.723 345.774ZM179.298 344.02L174.844 344.421L173.182 345.917L180.794 345.681L179.298 344.02ZM381.143 426.43L342.152 427.246L340.397 442.671L372.142 441.16L384.007 438.296L383.205 429.388C384.8 427.149 384.113 426.163 381.143 426.43ZM193.297 354.883L192.932 355.814L193.863 356.179L193.297 354.883ZM295.334 395.988L294.968 396.919L295.899 397.284L295.334 395.988ZM175.81 350.171L168.198 350.407L166.537 351.904L176.376 351.467L175.81 350.171ZM132.623 334.302L132.258 335.233L133.188 335.598L132.623 334.302ZM193.133 358.041L191.471 359.538L192.402 359.903L193.133 358.041ZM190.01 363.261L188.349 364.758L189.28 365.123L190.01 363.261ZM191.872 363.992L191.507 364.923L192.438 365.288L191.872 363.992ZM172.889 357.618L163.78 356.193L159.526 358.821L159.161 359.752L174.385 359.28L172.889 357.618ZM192.474 370.673L190.812 372.17L191.743 372.535L192.474 370.673ZM330.085 427.883L290.163 428.334L290.364 430.561L325.467 431.442L326.032 432.738L289.468 435.581L287.807 437.078L312.87 436.168L313.801 436.534L295.62 439.068L296.185 440.365L317.725 440.222L318.656 440.587L297.317 442.957L296.586 444.819C295.479 445.817 294.858 445.573 294.724 444.088L292.698 446.516L285.086 446.752L283.424 448.249L331.124 444.404C333.315 438.818 333.656 434.297 332.148 430.841L330.085 427.883ZM259.536 402.354C253.731 404.373 247.36 405.096 240.423 404.523L238.762 406.02L253.256 407.409L254.187 407.775L251.029 407.61L244.748 412.665C244.882 414.15 244.45 414.339 243.452 413.231L241.791 414.728L253.492 415.022L254.623 417.614L247.212 420.077C245.593 418.726 244.729 419.103 244.619 421.208L257.251 421.867L257.817 423.164L244.655 426.594L242.994 428.09L246.152 428.255L248.014 428.985L254.33 429.315L255.26 429.68L244.326 432.91L242.664 434.406L254.931 435.996L258.454 435.23L259.02 436.526L243.065 438.86L240.108 440.923L259.056 441.911L259.621 443.207L241.44 445.742L239.778 447.239L257.795 447.862L260.223 449.888L240.179 451.693L239.814 452.624L246.696 454.249L263.782 454.507L263.051 456.369L239.485 458.94L239.119 459.87L270.133 460.222C272.812 453.395 273.762 447.322 272.984 442.004L268.917 416.776L262.894 404.746L259.536 402.354ZM223.631 392.564L214.723 393.366C212.484 391.772 211.309 392.027 211.199 394.133L222.535 395.357L223.631 392.564ZM281.183 418.366L280.818 419.297L281.749 419.662L281.183 418.366ZM227.756 398.479L223.337 404.265L223.903 405.562L219.721 418.96L216.577 448.878L220.586 493.419C219.479 494.417 219.978 494.971 222.083 495.081C232.261 461.835 235.527 431.606 231.88 404.394L227.756 398.479ZM191.084 385.167L190.354 387.029L192.581 386.828L191.084 385.167ZM352.17 453.735L348.517 463.044L342.767 464.011L343.097 457.695L332.527 459.993L334.024 461.655L329.935 461.125L326.977 463.187L335.155 464.247L336.086 464.612L328.474 464.848L326.812 466.345C335.367 468.269 342.98 468.033 349.649 465.636L352.005 456.893L352.17 453.735ZM200.1 400.52L191.958 404.845L182.025 419.21L177.478 433.539L176.089 448.033L177.621 455.079C185.068 458.001 191.762 459.194 197.7 458.66C199.319 460.011 200.183 459.634 200.293 457.528L193.977 457.199L194.707 455.337L191.549 455.172L190.819 457.034L180.213 453.948C179.058 447.765 179.199 441.017 180.636 433.704L188.306 414.154L197.708 403.878L201.596 402.181L200.1 400.52ZM242.758 420.478L242.027 422.34L244.254 422.139L242.758 420.478ZM202.198 408.863L199.971 409.063L196.648 412.056C198.267 413.407 199.131 413.03 199.24 410.925L204.625 410.889L202.198 408.863ZM320.26 458.403C318.179 461.884 317.704 464.92 318.835 467.512L321.993 467.677L321.392 460.996C322.743 459.377 322.366 458.513 320.26 458.403ZM206.323 414.778L197.78 414.649L194.822 416.711L194.457 417.642C199.045 418.726 203.188 418.203 206.888 416.074L206.323 414.778ZM310.786 457.909L308.194 459.041L310.056 459.771L310.092 465.156L312.319 464.956L311.552 461.432C313.147 459.193 312.892 458.019 310.786 457.909ZM349.52 474.179L327.815 477.48C326.197 476.129 325.332 476.506 325.223 478.612L335.627 479.471L338.055 481.498L323.762 482.335L322.1 483.832L343.841 485.916L346.068 485.716L321.205 488.852L319.544 490.348L331.61 489.711L337.561 490.972L345.903 488.874L345.173 490.735L330.149 493.435C327.91 491.84 326.924 492.528 327.192 495.497L309.175 494.874L305.816 492.482L310.564 480.38L310.364 478.153L307.041 481.146C303.365 486.866 302.591 491.575 304.721 495.275C323.315 498.989 340.523 498.937 356.344 495.118L357.604 489.167L354.976 484.914L355.177 487.141L351.417 480.295L353.279 481.025L354.21 481.39L351.382 474.91L349.52 474.179ZM306.332 458.31L305.967 459.241L307.829 459.971L306.332 458.31ZM204.496 419.432C199.665 418.969 195.4 419.802 191.7 421.931L195.058 424.323L206.559 422.39C207.91 420.771 207.222 419.785 204.496 419.432ZM240.802 433.676L240.437 434.607L241.368 434.972L240.802 433.676ZM303.174 458.145L302.444 460.007L304.671 459.807L303.174 458.145ZM355.141 481.756L355.342 483.983C356.693 482.364 356.626 481.622 355.141 481.756ZM201.374 424.652L191.17 426.02L190.805 426.951L194.528 428.412L204.368 427.975C205.962 425.736 204.964 424.629 201.374 424.652ZM304.707 465.192L304.907 467.419C306.258 465.8 306.191 465.058 304.707 465.192ZM201.41 430.038L192.502 430.839L189.544 432.902L201.446 435.423L200.88 434.126L205.699 432.795L201.41 430.038ZM159.755 421.215L129.836 418.071L126.986 436.288L166.214 443.084L168.24 440.657L139.983 436.016L133.467 433.46C141.134 432.171 149.245 432.488 157.8 434.412L158.165 433.481L144.402 430.23L139.017 430.266L133.431 428.075L131.204 428.275C141.22 426.475 151.746 427.025 162.784 429.923L163.514 428.061C153.852 427.134 144.122 425.466 134.326 423.055L132.099 423.255L136.918 421.923L164.044 423.972L159.755 421.215ZM196.992 435.824L194.399 436.955L189.945 437.356L189.215 439.218L199.254 441.008L200.916 439.511C201.026 437.406 199.718 436.177 196.992 435.824ZM194.8 441.409L190.547 444.037L196.497 445.297C198.713 443.302 198.147 442.006 194.8 441.409ZM159.461 432.916L159.096 433.847L160.027 434.212L159.461 432.916ZM196.698 447.525L188.721 448.692L188.355 449.623L195.237 451.248L196.533 450.683L196.698 447.525ZM117.204 417.412L91.3748 414.798L82.1013 416.531L80.311 426.57L120.67 435.959C122.861 430.373 123.014 425.42 121.129 421.1C122.48 419.481 121.172 418.252 117.204 417.412ZM259.27 474.221C254.086 476.484 248.147 477.019 241.454 475.825L239.792 477.322L252.424 477.981L253.355 478.346L247.605 479.313C245.366 477.718 244.191 477.973 244.082 480.079L257.645 481.103L258.21 482.399L237.236 483.838C235.617 482.487 234.632 483.175 234.278 485.901L246.545 487.49L261.203 485.722L262.829 478.84L259.27 474.221ZM350.5 510.013L348.474 512.44L347.743 514.302C345.662 517.782 345.187 520.819 346.318 523.411L340.296 511.38C341.647 509.762 341.27 508.898 339.165 508.788L338.27 513.808L335.348 521.255L334.181 513.278C334.29 511.173 333.36 510.807 331.388 512.182L329.963 521.291L329.597 522.222L326.203 514.445L325.272 514.08C323.702 519.909 323.737 525.294 325.38 530.235L325.945 531.531L324.048 525.416L322.351 521.527L320.653 517.639L316.894 510.793L314.738 521.763L311.18 517.145L311.015 520.303L313.643 524.556L313.278 525.487L311.781 523.826L308.917 511.96L307.42 510.299C307.224 518.099 309.067 525.268 312.948 531.803L314.975 529.376L316.142 537.353L318.569 539.38L321.692 534.159L325.251 538.778L326.418 546.755L328.48 549.713L328.28 547.486L331.602 544.493L334.159 537.976L339.308 530.328L343.561 527.7L342.867 534.947L345.788 527.5L348.381 526.368L350.737 517.625L350.5 510.013ZM138.229 451.441L137.863 452.372L139.725 453.102L138.229 451.441ZM155.916 458.38L154.255 459.877L155.186 460.242L155.916 458.38ZM131.913 451.112L131.547 452.042L132.478 452.408L131.913 451.112ZM128.755 450.947L127.093 452.443L130.251 452.608L128.755 450.947ZM147.373 458.251L144.215 458.086L144.416 460.313L149.801 460.278L147.373 458.251ZM120.011 448.591C117.309 451.827 116.524 454.742 117.655 457.334C116.547 458.332 117.046 458.886 119.152 458.996L120.011 448.591ZM189.1 477.844L188.205 482.864L200.307 487.612L202.534 487.411L202.333 485.184L194.886 482.262L193.59 482.828L189.866 481.367C191.461 479.128 191.205 477.954 189.1 477.844ZM124.501 453.575C122.906 455.814 122.918 457.609 124.537 458.96L134.576 460.75C136.171 458.511 137.224 458.566 137.734 460.915L139.396 459.418L126.198 457.463L126.563 456.532C127.914 454.914 127.227 453.928 124.501 453.575ZM145.418 471.449L125.174 471.026L123.513 472.523C129.098 474.714 134.55 475.421 139.868 474.643C141.974 474.752 142.351 475.616 141 477.235L123.914 476.977L122.252 478.473L131.726 478.968C134.452 479.321 136.07 480.672 136.581 483.021L125.245 481.796L123.584 483.293L142.167 485.212L142.732 486.508C133.204 487.067 122.987 486.639 112.084 485.226L118.235 488.714L112.649 486.522L110.988 488.019L114.712 489.48L140.541 492.094L154.834 491.256L161.315 488.428L157.957 486.036L153.066 476.598L145.418 471.449ZM114.404 471.098L106.498 483.035C104.903 485.274 105.591 486.26 108.56 485.992C110.375 479.543 112.821 475.132 115.9 472.759L114.404 471.098ZM153.975 501.661C150.896 504.034 150.044 506.206 151.418 508.177L149.027 511.536L147.294 502.262L142.145 509.91L141.615 513.999L142.181 515.295L140.247 503.795L136.395 510.877L136.96 512.173L134.132 505.692L132.07 502.735L131.174 507.755L130.444 509.617L130.48 515.002C130.613 516.486 130.181 516.675 129.184 515.567L126.355 509.087L127.086 507.225L126.155 506.86C126.288 508.344 125.856 508.533 124.858 507.425L122.997 506.695L122.832 509.853L121.171 511.349L121.736 512.646L116.681 506.365L115.914 502.842L112.592 505.835C111.241 507.454 111.618 508.318 113.723 508.428L114.124 512.882C113.017 513.88 113.515 514.433 115.621 514.543L116.351 512.681L121.972 520.258C122.97 521.365 123.524 520.866 123.634 518.761L131.353 534.68C130.246 535.678 130.744 536.232 132.85 536.341L133.38 532.252L147.931 514.329L147.766 517.487C146.415 519.105 146.792 519.969 148.898 520.079L153.646 507.977L153.975 501.661Z" fill="#040404"/>
</svg>
