<svg width="209" height="476" viewBox="0 0 209 476" fill="none" xmlns="http://www.w3.org/2000/svg">
<path opacity="0.996078" d="M101.5 0C107.567 0.266667 111.733 2.43333 114 6.5L139 42.5L155 73.5L166 107.5L170 130.5L171 155.5L172 157.5L171 160.5L172 161.5V186.5L171 187.5V204.5L170 205.5V220.5L169 221.5V229L185 242.5C195.133 252.7 202.467 265.7 207 281.5L209 292.5V315.5L204 344.5L200 359.5L193 376.5L189.5 380L185.5 381L181 377.5L173 344.5C169.867 336.367 165.033 329.867 158.5 325L145 319L144 322.5V338.5L141.5 342L134 344.5L145 354.5L153 370.5L155 378.5V388.5L150 409.5L141 428.5V435L138 433.5L135.5 429C134.033 428.533 133.533 429.033 134 430.5C129.933 436.433 127.1 443.6 125.5 452L123 449.5L119.5 441L111 457.5L107.5 476L102 471.5L91 454.5L87 439.5L84.5 436L79.5 442L74.5 446L74 444.5C76.4667 440.633 77.1333 434.967 76 427.5C74.9333 420.567 72.7667 414.733 69.5 410L69 419C67.2 419.733 66.5333 419.233 67 417.5L57 395.5L56 377.5C58.7333 364.567 64.5667 354.733 73.5 348L76 346.5C76.5333 345.033 76.0333 344.533 74.5 345L66 338.5C66.6 331.3 66.2667 325.467 65 321C55.6667 323.2 48.3333 327.7 43 334.5L36 347.5L29 376.5L25.5 380L20.5 381L16 377.5L13 371.5L4 338.5L0 312.5V300.5L3 281.5L10 263.5C16.2 252.033 24.0333 242.2 33.5 234L40 230C38.8667 226.067 38.5333 220.9 39 214.5L38 213.5V201.5L37 200.5V142.5L38 141.5V131.5L40 118.5L45 98.5L54 73.5C66.5333 46.7 81.7 22.5333 99.5 1L101.5 0ZM107 8C105.667 11.3333 106 14 108 16L106 19L111 22L106 24L113 27L103 32L108 34L101 37L112 38V40H104V42L112 43L113 45L100 48L118 49C113.333 51 107 52 99 52L108 54H121L122 55C124 54.3333 124.667 55 124 57L121 58H91L89 57L86 61L96 62H98L122 61L137 57C129 39 119 22.6667 107 8ZM106 15C104.667 17 105 17.6667 107 17L106 15ZM90 28C82 37.3333 75.6667 47.6667 71 59L74 60C79.3333 61.3333 82.6667 60.6667 84 58L77 56L90 30V28ZM138 63L146 82L148 90H139L146 87L137 86L143 83L135 82L140 80L141 78L136 79H134L138 76C140 76.6667 140.667 76 140 74L135 75H133L136 73L139 69L136 70L137 68C138.333 68.6667 138.667 68 138 66H131L123 68H92L91 70L97 71L120 72L116 73H103L102 72L101 73L91 74L97 76H118L119 78H88C88 80 86.3333 80.6667 83 80V81H91L92 80L94 81L116 82L84 85L91 86L114 87L111 88L90 89L89 90C83.6667 89.3333 81.3333 90 82 92L116 94C109.333 96 101.333 96.3333 92 95C88.6667 97 84.6667 98 80 98L84 99L112 100L118 102H98L87 104C81.6667 103.333 79.3333 104 80 106L83 105L86 106H109L119 108C123.667 109.333 127.667 112 131 116C130.333 117.333 131 117.667 133 117L137 123L149 121H159V115L154 97L142 65L138 63ZM67 65L59 84L49 116C47.6667 120.667 49 122.333 53 121L58 99L71 67L67 65ZM100 113C93.3333 114.333 88.3333 117 85 121C79.6667 125 76.3333 131.333 75 140V150L84 164C88.6667 167.333 94.6667 169.667 102 171H110L121 166L129 157L132 148V136L127 124L119 116L107 113H100ZM157 126L155 128L157 130L161 129C162.333 129.667 162.667 129.333 162 128C161.333 126 159.667 125.333 157 126ZM48 127L46 129H50C50.6667 127 50 126.333 48 127ZM148 127L138 129L140 132H146L153 130C154.333 126.667 152.667 125.667 148 127ZM53 128C51.6667 131.333 53 132.333 57 131C58.3333 127.667 57 126.667 53 128ZM63 129L64 131C66 131.667 67.3333 131.333 68 130L63 129ZM160 135L155 137L142 138C140 138.667 139.667 139.667 141 141C141 151 138.667 159 134 165L122 175L112 179H96L81 175L76 172L73 173L85 178L91 179V180H81L80 179L72 180L87 183L89 182L124 183L113 185H99L97 183C94.3333 182.333 93.3333 183 94 185L90 184L77 185L93 189L96 188V190L100 189L128 190L117 192H106L105 193C95 193 86.3333 191.667 79 189L76 190L85 193L97 195V196H86L85 195L75 196L86 199H94L95 200H128L153 196L163 193L164 189V179L163 178L164 176L163 175V147L161 140C162.333 136 162 134.333 160 135ZM46 136L45 142V164L44 167L45 191C45.6667 192.333 47.6667 192.667 51 192L50 189V140L51 139V136H46ZM62 156L64 158H65L62 156ZM68 163C68 165 69.3333 166 72 166C73.3333 166.667 73.6667 166 73 164L68 163ZM63 188L62 190C64.6667 189.333 67 190 69 192H72L63 188ZM44 200V202L52 206V202L44 200ZM159 201L154 203L143 204L142 209L154 207C157.333 206.333 160 205 162 203C162.667 201 161.667 200.333 159 201ZM64 204L63 208L72 210L71 205L64 204ZM132 205L131 206H115L113 212L134 211L137 210L138 206L132 205ZM76 206L77 207L76 209C75.3333 211.667 76.3333 212.333 79 211V206H76ZM92 206L91 207C89 206.333 88.3333 207.333 89 210L86 212H102L103 213L104 207L92 206ZM111 206L109 208C108.333 210.667 109 211.667 111 211V206ZM83 207V210L87 208L83 207ZM161 211L159 212L157 214V222L153 243L152 258L141 305L132 309C129.333 309.667 127.667 309.333 127 308L137 305L138 303L135 304L130 302L140 299L131 297L139 294C141 294.667 141.667 294 141 292C137.667 292.667 135 292.333 133 291L140 288C142 288.667 142.667 288.333 142 287L141 285L133 284L145 281L135 278C136.333 275.333 139.333 274.667 144 276L145 275L140 272C136 273.333 134.333 272.667 135 270C140.333 270.667 144.333 270 147 268L134 264L148 262L137 257V256L141 257L143 256C147.667 257.333 149.667 256.667 149 254L143 252C139.667 252.667 138.333 252 139 250H150L139 245L150 244V242L149 240L140 239L151 237L152 236L141 232C146.333 232 150.333 231.333 153 230L148 227C144 228.333 142.333 227.667 143 225H151L153 223C154.333 223.667 154.667 223 154 221L144 220V219C145.333 219.667 145.667 219 145 217L154 216L156 213L129 218H104H102C97.3333 219.333 94.6667 219 94 217H78L76 219H83L90 222L102 224C110 222.667 117 223 123 225V226H92L91 225L77 227L89 230H98L99 232L80 229L76 230L91 234C94.3333 235.333 96.6667 235 98 233L102 234L104 233L113 234L109 235L113 238H123L124 240L113 241L117 250C117.667 251.333 119.667 252 123 252L118 253L124 275L125 290L126 291V304L128 303L129 304H128L126 306V314L137 313L145 310L155 266L158 238L160 230L161 214L162 213C162.667 211 162.333 210.333 161 211ZM48 212V214L47 216L48 217L49 236L50 237L53 263L65 313C71 313 76 314 80 316H84L72 311L68 307L60 279L54 242L52 216L51 213L48 212ZM96 235V237L94 238H76L75 237L74 239L95 242L98 237C98.6667 235 98 234.333 96 235ZM40 241C24 253.667 14 272.333 10 297V322L12 334L16 351L22 364L25 349L31 334L46 317V315L31 326H29L42 308L44 305L37 310C37.6667 311.333 37.3333 311.667 36 311L27 323L25 324L30 314L44 296V293L31 307L25 312L29 303L42 283V281L38 284L26 297L25 300H24L25 296L40 271V268L27 286H26L35 267V259L22 279L18 291V296H17C17 286.667 18.3333 278.667 21 272L29 257L41 242L40 241ZM171 241L169 243C182.333 253.667 190.667 269.333 194 290V300C192 286.667 188 275.667 182 267L171 257L181 276L184 285V286L175 271L171 268L178 280H177L171 276L181 291V293L183 297V298L178 292L170 284L168 285L180 301L182 306L183 307L179 304L170 297L172 302L183 317V318C179 313.333 174.333 310 169 308L167 309C175 315.667 181 324.667 185 336L186 337L177 324L162 311L160 312L164 314C170.667 319.333 176 326.333 180 335L186 354V361L189 364L193 353L200 317V295L198 283C194 269.667 188 258.667 180 250L171 241ZM104 242L99 249L95 263L91 289V305V307L90 309L91 310V322L95 346L99 364L105 379L112 353V347L115 333V325L116 324V311L117 310C118.333 281.333 114 258.667 104 242ZM81 243V246L83 245L93 248C95 248.667 95.3333 247.333 94 244C88 244.667 83.6667 244.333 81 243ZM63 246L62 249H63V246ZM79 249L81 251C85.6667 250.333 89.3333 251.333 92 254L93 250L79 249ZM81 256L80 258L88 260C90.6667 260.667 91.3333 259.667 90 257H82L81 256ZM62 263L61 265H62V263ZM83 263C82.3333 265 83.6667 265.667 87 265C87.6667 262.333 86.3333 261.667 83 263ZM63 267V277L73 305H74L63 267ZM84 270V271H86L84 270ZM78 307L83 311V308L78 307ZM138 321C134.667 323 133.667 327 135 333L133 335H128L130 334L131 332L126 333L127 331L124 330L123 336L125 335L127 336L125 337C122.333 336.333 121.333 337 122 339L137 337V329L138 328V321ZM74 329V331L78 332H82L81 330L74 329ZM73 334V337L83 340C85.6667 340.667 86.6667 340 86 338L73 334ZM136 356L138 366C138 380 135 391 129 399V398L128 376L122 359L121 374L119 387L115 398L111 421H110L112 409V394L111 393L112 391C112.667 388.333 112 387.333 110 388L106 416L102 431L99 413L92 390L89 367L87 360L84 373V382V384V393L78 384L76 374V366L77 365V359L67 374L65 386L67 391L70 386C69.3333 384 70 383.333 72 384L73 382V398L80 415L81 423H83L81 410L82 405L84 414L85 409L84 407L86 394L92 411L95 437L99 452C97.6667 455.333 98.3333 456.667 101 456L109 444L122 417L123 419C122.333 423.667 123 427.333 125 430C124.333 432 125 432.667 127 432L137 400C136.333 398 137 397.333 139 398L141 408L142 407L146 391L145 373C143 366.333 140 360.667 136 356Z" fill="#040404"/>
<path opacity="0.996078" d="M100.5 120H111.5L123 126.5C126.8 130.367 128.467 136.367 128 144.5L120.5 158C116.3 162.8 109.3 164.8 99.4999 164C92.8332 162.667 87.9999 159.5 84.9999 154.5C81.8666 150.633 80.8666 144.633 81.9999 136.5L88.4999 126L100.5 120ZM104 129C104.667 131.667 107.333 133.667 112 135L119 144L120 142L119 137L110 129H104Z" fill="#040404"/>
</svg>
