<svg width="218" height="440" viewBox="0 0 218 440" fill="none" xmlns="http://www.w3.org/2000/svg">
<path opacity="0.996078" d="M204.914 252.898L206.802 278.829L202.415 301.207L198.326 307.019L193.412 308.379L187.672 305.288L185.097 297.454L173.717 285.749L155.963 276.012L153.47 276.194C155.608 287.201 153.314 294.721 146.589 298.753C144.109 301.407 140.715 302.99 136.408 303.505C135.807 305.353 136.354 305.982 138.049 305.39L142.791 308.554L154.996 324.711L157.862 336.534L156.593 346.653L147.51 373.383L146.967 393.475L147.575 394.935L143.902 392.696L134.154 375.859L123.901 407.186L121.926 421.367L116.776 433.272C114.845 434.282 114.119 433.499 114.6 430.924L115.525 429.854L114.654 417.886L105.078 396.524L100.997 381.782L96.1093 376.623L94.6496 377.231L95.7195 378.155L96.3729 387.132L93.4992 395.863L88.738 378.663L73.9574 354.673L71.3819 346.839L70.2203 330.882L74.1908 316.556L80.1292 308.604L87.2827 303.571L73.6636 295.538C69.8396 291.673 67.7417 285.809 67.3701 277.949L68.0408 273.388L61.4853 272.863L46.0357 281.006L39.1 289.031L33.3794 299.975L27.4678 301.408C24.2205 299.037 22.1137 295.347 21.1475 290.337L18.553 268.468L19.4778 267.398L19.5314 254.36L23.2114 236.044C26.2996 226.127 30.6936 217.619 36.3932 210.52C41.9757 204.566 48.6427 199.735 56.3941 196.03L55.07 191.614L53.4003 168.675L54.3251 167.605L53.3813 154.639L54.3061 153.569L53.6527 144.593L54.5775 143.523L54.9025 120.438L60.2679 83.9526C63.3824 68.8868 67.7095 54.869 73.2492 41.8993C77.5101 31.5627 83.3759 22.6132 90.8466 15.0509C94.8756 8.87549 102.328 5.65929 113.205 5.40233C122.522 7.59839 129.713 12.2553 134.776 19.3732L145.911 34.605L154.345 54.0441L162.289 80.5373L166.244 107.321L167.314 108.246L167.459 110.24L169.946 158.186L167.627 181.416L167.646 195.452L166.83 198.018C173.919 199.908 179.873 203.652 184.692 209.25L195.9 225.48L200.761 237.158L204.914 252.898ZM196.827 251.982L190.388 232.398L181.393 219.016L178.255 217.239L172.76 210.62L173.36 232.635L172.435 233.705L173.597 249.663L172.183 257.787L172.546 262.774L174.468 261.631L175.664 250.515L174.575 235.554L174.919 226.506L182.699 236.968L186.272 244.729C185.233 248.816 185.759 251.451 187.85 252.636L188.431 260.615L187.506 261.685L189.012 268.594L190.789 265.456L189.646 263.534L189.772 251.493L192.348 259.327L193.364 273.29L194.434 274.215C195.68 282.145 195.142 288.534 192.822 293.382L187.109 283.772C180.592 276.893 172.867 271.774 163.933 268.414L165.564 263.282L165.056 256.3L166.47 248.176L165.817 239.2L163.749 238.348L164.621 250.316L160.941 268.631L159.018 269.774C167.239 272.518 174.203 276.356 179.909 281.288C184.806 284.274 188.802 288.662 191.897 294.452C191.329 295.831 192.018 296.115 193.964 295.304L198.08 282.973L196.827 251.982ZM182.084 256.063L180.089 256.209L181.377 260.125L182.084 256.063ZM180.433 247.16L178.439 247.305L179.092 256.281L181.014 255.139L180.433 247.16ZM157.014 104.483L155.944 103.559L155.218 93.585L152.279 80.7645L148.706 73.0034L136.394 82.9234L125.641 86.7141L116.665 87.3675L115.74 88.4374L114.67 87.5126L96.6448 87.822L91.5128 86.1903L88.5933 87.4054L89.6633 88.3302L103.844 90.3059L118.95 91.2117L107.054 93.0802L110.119 93.8598L124.082 92.8435L125.007 91.7735L133.058 92.1901L126.294 95.6903L115.468 98.4836L103.5 99.3548L102.43 98.43L100.581 100.57C104.667 101.609 109.678 101.579 115.614 100.478L116.684 101.403L128.434 97.5399L134.491 98.1017L109.992 105.901L102.014 106.482L100.944 105.557L96.0294 106.917L103.156 108.404L111.135 107.823L112.06 106.753L115.124 107.532L117.119 107.387L115.197 108.53L109.285 109.963C115.886 108.814 120.946 109.448 124.464 111.866C129.312 114.187 132.618 118.291 134.384 124.178L135.981 146.12L135.056 147.19L135.511 167.21L134.586 168.28L135.312 178.254L132.629 196.496L133.065 202.481L128.949 214.812C125.492 222.416 117.755 226.322 105.738 226.528L115.857 227.797L115.93 228.794C111.324 229.798 107.286 229.423 103.816 227.67C102.438 227.102 102.154 227.791 102.964 229.738L109.093 231.297L123.056 230.281L124.126 231.205L128.043 229.918L130.038 229.772C131.984 228.962 132.698 229.579 132.178 231.622L123.274 233.273L119.43 235.558L109.456 236.284L100.335 234.942L98.4128 236.085L110.672 239.203C115.423 240.194 118.058 239.668 118.578 237.625L121.643 238.405L139.45 235.103L139.522 236.101C138.144 235.532 137.86 236.222 138.67 238.168L128.842 240.889C118.965 242.944 110.605 242.884 103.763 240.709L98.8484 242.069L111.107 245.187L129.06 243.881L129.984 242.811L133.049 243.59L120.301 247.526L131.345 247.725L125.506 250.155L127.936 255.994C129.085 262.595 129.14 267.938 128.1 272.025L137.004 270.374L144.765 266.801L151.238 259.311L152.507 249.192L159.249 176.511L159.012 159.483L159.937 158.414L158.993 145.448L158.848 143.453L159.772 142.383L157.014 104.483ZM148.198 66.0219L137.334 40.7439L123.987 22.6652L112.653 18.4769L106.741 19.9099C109.546 21.711 113.3 22.7746 118.003 23.1007C124.374 27.9844 129.18 34.3189 132.42 42.1042L132.493 43.1016L126.998 36.483L110.024 23.6815L110.169 25.6762L114.521 30.3727L112.454 29.5205L111.529 30.5905L115.664 32.2948L117.876 35.1417L115.809 34.2895C113.101 33.8182 111.155 34.6283 109.97 36.7198L115.102 38.3516L117.315 41.1984L109.336 41.7792L108.266 40.8545L106.344 41.997L115.683 46.3304C118.294 45.4719 119.34 46.0643 118.82 48.1074L113.906 49.4677L111.839 48.6156C107.752 47.5761 106.139 48.362 106.997 50.9733L122.32 54.8711L119.401 56.0863L115.266 54.3819L115.411 56.3767L107.505 57.9548L116.772 61.2909L118.694 60.1483L122.829 61.8526L117.914 63.213L107.941 63.939L108.086 65.9337L120.127 66.0599L122.122 65.9147L127.181 66.5491L120.345 69.052L108.522 71.9178L110.589 72.77L126.692 73.6032L119.856 76.1061L105.892 77.1224C103.753 75.2729 100.047 74.8742 94.7763 75.9263L80.3776 70.9585L77.0952 67.1868L79.7969 62.9796L85.3991 43.5215L92.3616 28.9777L91.2191 27.0556L84.9635 37.5374L73.2509 69.4719L79.5255 73.0258L95.9914 78.8458L115.159 80.4585L130.047 78.3722L142.65 72.4417L148.198 66.0219ZM144.15 285.896C139.689 288.894 133.826 290.992 126.56 292.19L126.923 297.176L139.598 292.243L144.295 287.891L144.15 285.896ZM147.634 333.769C145.675 325.222 142.223 319.124 137.279 315.473C137.798 313.43 137.085 312.813 135.139 313.623L134.141 313.696L138.784 322.382L141.577 333.208L139.583 333.353L132.8 322.817L130.733 321.965L132.383 330.869L132.456 331.866L129.319 330.089L125.112 327.388L128.05 340.208L127.198 342.275C124.393 340.474 122.845 337.579 122.555 333.59L122.41 331.595L120.343 330.743L113.181 356.33L107.541 347.717L106.689 349.784L98.328 331.342C98.6057 325.975 97.6262 321.701 95.3895 318.522L89.6421 335.985L88.5911 349.096C86.3544 345.917 85.3749 341.643 85.6526 336.276L85.5075 334.281L84.1471 329.367C83.095 324.096 83.4937 320.39 85.3433 318.251C85.863 316.207 85.1497 315.591 83.2034 316.401L79.3055 331.724C79.4633 343.076 82.4197 351.551 88.1745 357.148L91.2392 357.927L91.3844 359.922C90.9972 354.603 91.7042 350.541 93.5053 347.736C97.882 352.765 101.026 359.22 102.936 367.102C101.897 371.188 102.683 372.802 105.294 371.944L105.71 363.892L105.565 361.898L105.347 358.906L110.571 375.57L111.587 389.533L117.445 401.139L120.273 384.891L119.891 365.868L121.978 380.756L123.827 378.616L122.811 364.653L117.66 348.986L119.582 347.843C123.487 355.58 125.235 365.813 124.824 378.543L127.381 372.341L126.002 353.392L126.781 350.327L130.916 352.031L138.769 363.491L139.059 367.481L140.981 366.338L140.691 362.349L143.809 350.09L147.218 341.821L147.634 333.769ZM141.647 279.06L138.582 278.28L130.821 281.853L126.759 281.146L128.047 285.063C133.318 284.011 137.851 282.01 141.647 279.06ZM129.053 133.59L125.262 122.837L116.775 116.436C110.078 116.255 104.831 117.64 101.035 120.59C97.9043 123.491 95.8917 127.983 94.9974 134.064L93.9465 147.175L94.8176 159.143L93.8929 160.213L97.3049 207.089L99.7352 212.928C101.972 216.107 105.133 218.217 109.22 219.256C114.587 219.534 117.863 218.627 119.048 216.535C122.795 212.92 125.165 208.737 126.156 203.986L126.137 189.95L128.476 180.756L128.239 163.729L129.163 162.659L128.021 160.737L129.924 145.558L129.053 133.59ZM127.958 325.175L125.891 324.323L125.964 325.32L127.958 325.175ZM119.323 261.634L118.035 257.717L114.825 254.943L108.914 256.376L104.508 264.718L104.599 279.751L103.674 280.821L104.962 284.738L104.11 286.805L106.506 319.718L107.793 323.635C109.498 319.5 109.8 314.465 108.699 308.529L107.484 305.61C105.864 301.717 106.027 299.366 107.973 298.556L106.303 275.616L107.228 274.546C105.463 268.659 105.481 264.313 107.282 261.508L110.981 257.228L114.118 259.005L114.5 278.028L114.645 280.022L112.742 295.201L113.396 304.177L111.057 313.371L111.492 319.355L109.788 323.49L110.006 326.482L114.485 319.137L118.872 296.76L119.323 261.634ZM105.984 92.1555L103.917 91.3033L103.989 92.3007L105.984 92.1555ZM96.5152 44.7177L94.4479 43.8655L93.1066 52.987L90.4049 57.1942C89.8368 58.5724 90.5259 58.8565 92.4722 58.0464L96.5152 44.7177ZM92.6933 116.184C90.6018 114.999 89.9611 115.38 90.7712 117.326L92.6933 116.184ZM91.4056 112.267C89.3141 111.082 88.6734 111.463 89.4835 113.409L91.4056 112.267ZM85.169 136.784L84.1717 136.857L83.3921 139.922L82.9219 161.011L81.9971 162.081L82.7231 172.055L81.7983 173.125L82.8147 187.088L85.169 136.784ZM80.1788 82.002L78.1841 82.1472L74.6492 102.457L72.4021 126.685L72.8377 132.669L76.644 102.312L80.1788 82.002ZM93.6472 294.585L79.0307 286.625L78.106 287.695L79.2485 289.617L90.6551 294.803L93.6472 294.585ZM76.1168 81.2951L71.6918 75.6013L70.8396 77.6686L65.8182 105.106L66.2538 111.09L63.7888 132.325L64.2434 152.345L63.3186 153.414L65.2977 194.379L65.4429 196.374L66.9675 217.318L68.0374 218.243C68.9443 221.519 68.7812 223.87 67.5482 225.297L68.6182 226.222L70.5783 253.151L71.6482 254.075L72.229 262.054L85.7755 269.089C87.8186 269.609 88.4351 268.896 87.625 266.949L80.4257 264.466L76.0733 259.769L73.261 234.908L73.1158 232.913L70.0857 205.059L68.9432 203.137L68.798 201.143L67.6901 172.147L68.6148 171.077L67.7437 159.108L69.0124 148.989L68.7757 131.962L73.3615 98.5406L75.0658 94.406L73.8507 91.4865L73.7055 89.4917L74.848 91.4139L76.625 88.2766L75.3372 84.3597L76.1168 81.2951ZM86.7918 283.052L84.7971 283.198L83.7998 283.27L84.9423 285.192C86.9854 285.712 87.6019 284.999 86.7918 283.052ZM81.3315 249.36L78.393 236.539L77.5944 225.568L76.5245 224.644L73.6206 184.749L74.5454 183.679L72.9673 175.773L72.1877 178.838L73.3492 194.795L72.4245 195.865L74.3846 222.794L75.4545 223.719L79.4819 251.5L80.6245 253.422L81.3315 249.36ZM76.0923 273.805L75.0949 273.877L75.1675 274.875L76.0923 273.805ZM57.2686 263.143L54.3301 250.323L55.1097 247.258L52.1712 234.438L51.4642 238.5L52.3354 250.468L53.4054 251.393L52.6258 254.457L55.3465 264.286L49.4349 265.719L40.8216 271.359L39.1173 275.494L35.2004 276.781L30.5766 282.131L29.4877 267.171C31.2888 264.366 31.6875 260.66 30.6838 256.054L35.6517 241.656L44.8993 230.956L44.8267 229.959L38.9877 232.389L38.063 233.459L48.7246 214.635L48.5794 212.641L40.9635 218.208L32.224 235.889L27.0574 261.332L28.9449 287.263L29.9422 287.19L34.5661 281.841C40.0663 274.756 47.0415 269.569 55.4917 266.28L57.2686 263.143ZM38.0094 246.497L37.012 246.57L37.0846 247.567L38.0094 246.497ZM37.1572 248.565L36.1598 248.637L33.5497 267.878C33.1752 271.915 33.7012 274.551 35.1278 275.784L36.1062 261.676L37.6654 255.546L37.1572 248.565Z" fill="#040404"/>
<path opacity="0.996078" d="M123.655 128.468L125.18 149.413L123.792 151.017C120.352 153.34 115.414 154.368 108.977 154.101L99.3571 152.796L98.9388 133.275C99.763 128.068 101.978 124.063 105.584 121.261C107.244 119.268 110.188 118.386 114.415 118.613L121.297 123.626L123.655 128.468ZM119.503 140.301L117.291 137.454L113.882 145.723C113.362 147.766 114.384 148.026 116.947 146.503C119.558 145.644 120.41 143.577 119.503 140.301Z" fill="#040404"/>
<path opacity="0.996078" d="M124.799 157.962L125.145 176.486L122.053 182.225L116.287 185.653L111.3 186.016L101.181 184.747L99.5764 183.36L98.2887 179.443L99.0683 176.379C96.9666 167.708 97.3259 161.165 100.146 156.749L103.211 157.528L111.044 154.953C112.163 156.542 114.514 156.705 118.099 155.442L124.799 157.962ZM115.552 168.662C113.557 168.807 112.656 170.209 112.85 172.869L112.995 174.864C115.606 174.005 116.458 171.938 115.552 168.662Z" fill="#040404"/>
<path opacity="0.996078" d="M124.203 191.093L123.116 203.705C121.915 208.338 119.676 212.01 116.398 214.722L112.481 216.01L103.604 211.142L100.031 203.38L99.7407 199.391L99.9032 187.849C109.165 187.442 117.265 188.523 124.203 191.093ZM116.805 199.653L113.813 199.871L113.033 202.935L113.251 205.927L115.173 204.785C117.119 203.975 117.663 202.264 116.805 199.653Z" fill="#040404"/>
</svg>
