<svg width="228" height="440" viewBox="0 0 228 440" fill="none" xmlns="http://www.w3.org/2000/svg">
<path opacity="0.996078" d="M228 212.5L228 233.5L224 255.5C219.867 270.7 213.2 283.367 204 293.5L204 297.5C210.733 306.767 216.4 317.1 221 328.5L223 339.5L223 350.5L224 351.5L224 367.5L223 368.5L223 380.5L222 381.5L222 389.5L218 414.5L213 434.5L209.5 439L205.5 440L199 434.5L180 407.5L169.5 396L158.5 387L151 385L149 409.5C146.733 418.9 142.567 426.4 136.5 432L118.5 436L96.5 436L85.5 434L76 429.5L67 406.5L62.5 384L48 396.5L19.5 433L12.5 434L10 433L6 420.5L2 396.5L1 368.5L3.16908e-06 367.5L4.43671e-06 338.5L6.00001 320.5L29 289.5C23.3333 279.167 19.3333 267.167 17 253.5L15 231.5L14 230.5L14 211.5L15 210.5L17 189.5L21 174.5L41 139.5L45 120.5L61 75.5C73.0667 47.9 87.9 23.0667 105.5 1L110.5 4.83011e-06L119 7.50001C135.6 27.9 149.933 50.5667 162 75.5L177 110.5L183 127.5L185 138.5C198.267 150.233 209.6 163.9 219 179.5L225 195.5L228 212.5ZM219 211C217 208.333 216.333 204.667 217 200L212 185C208 176.333 203 169 197 163L195 160C189.667 152 181.667 146.667 171 144L170 147L183 155L194 167L192 168L193 168L199 180L199 181L188 168C186.667 168.667 186.333 168 187 166C182.333 161.333 176 158 168 156L166 158C174 161.333 180.667 166.333 186 173C185.333 174.333 185.667 174.667 187 174L188 176L173 167L162 168C167.333 167.333 171 168.667 173 172C175 171.333 175.667 172 175 174L182 179L184 182L179 179L177 180L181 184L182 195L182 197L187 212C187 204.667 187.667 198.667 189 194L191 197L191 206L194 224L196 204L197 202L203 233L204 222L206 209L210 239L212 222L212 220L209 195L198 172L197 170C202.333 174 206.333 179.667 209 187L213 199L215 212L215 234L213 241L213 247C209.667 259 204.667 269.667 198 279C189.333 288.333 179.333 296.667 168 304L168 306L176 303L187 296C199 286 208 273 214 257L218 243L219 213L219 211ZM216 349L214 341L215 339L211 325L199 304L195 301L197 306L196 307L194 303L193 303L197 313L210 336L211 360L212 361L211 364L212 367L210 376L208 401L201 422L179 387L177 386L177 389L204 429C203.333 430.333 204 430.667 206 430L211 409L212 399L212 395L215 383L215 377L215 375L216 374L216 351L216 349ZM208 348L207 348L207 349L208 348ZM207 343L203 334L190 316L189 316L206 347L207 343ZM207 377L205 376L206 378L207 377ZM207 396L204 391L202 390L206 397L207 396ZM206 360L195 343L191 340L205 361L206 360ZM205 374L195 360L192 358L204 375L205 374ZM204 235L203 235L203 236L204 235ZM202 388L201 388L201 389L202 388ZM201 386L188 366L183 362L200 387L201 386ZM197 397L195 396L196 398L197 397ZM196 268L193 270L193 271L196 268ZM195 394L186 382L183 380L194 395L195 394ZM193 275L189 275L185 280C183.667 279.333 183.333 280 184 282L168 293L168 294C174 292.667 178.333 290 181 286L185 284L189 277L193 275ZM192 356L189 354L191 357L192 356ZM189 352L187 351L188 353L189 352ZM179 137L175 130L171 127C166.333 126.333 162.667 127 160 129L151 140L142 160L135 200L135 227L135 229L134 235L135 237L136 257L143 289L150 306L160 319L164 321L171 320L176 314L174 310L173 316L168 318L161 315C155.667 309.667 151.667 303 149 295L141 262L143 261L146 274L146 276L148 278L148 282L151 291L152 291L147 266L145 239L145 237L144 233L145 194L145 192L149 176L149 170L152 161L161 145L171 136C174.333 135.333 176.333 136 177 138C179 138.667 179.667 138.333 179 137ZM177 384L176 384L176 385L177 384ZM173 328L172 327C172.667 325 172 324.333 170 325L167 329L157 350L143 370C143.667 371.333 143 371.667 141 371L138 375C136.667 374.333 136.333 375.333 137 378L134 379L133 381L136 380C138.667 378.667 139.333 377.333 138 376L141 377L151 361L152 361C150 368.333 146.667 374.667 142 380L129 390L127 389L125 390L120 387C110 376.333 102.333 363 97 347L96 347L105 371L115 385C117.667 389 121.667 391.667 127 393L140 386L154 368L165 342L173 328ZM172 120L169 115L168 109L161 92L147 63L127 30L122 27L115 38L109 51L109 54L106 58C106.667 60.6667 106 61.6667 104 61C102 71.6667 98.6667 82 94 92C94 96.6667 93 100.667 91 104L91 109L89 113C89 121 87.6667 128.333 85 135L80 180L80 182C78.6667 185.333 79 187.667 81 189L80 190L80 203L80 205L83 245L83 247L83 250L85 247L86 223C88 223.667 88.6667 225.333 88 228L87 231C86.3333 237 86.6667 241.667 88 245L90 244L92 243L92 227L93 234L93 236L94 238C93.3333 242 93.6667 244 95 244L98 246C98.6667 242 98.3333 239.667 97 239L97 226C99 230 99.6667 235.667 99 243L100 244L99 246C98.3333 248 99 248.667 101 248L103 256L104 256L103 252L103 218L104 229L104 233L108 256L110 254L109 252L110 248L110 246L109 243L109 216L110 215L109 213L110 205L111 210L110 213L111 214L111 223L111 225L113 234L114 252L116 253L115 243L115 239L116 230L115 225L115 214L118 227L118 235L122 254L124 255L123 242L122 239L123 234L122 232L122 205L124 214L123 216L124 217L124 225L124 227C126 231 127 236.333 127 243L129 242L128 240L129 237L128 234L128 210L129 209L128 207L129 198L88 190L83 188L83 186L84 187L101 188L129 195L131 190L131 184L135 165L142 144C146 136 151 129.333 157 124C159 124.667 159.667 124.333 159 123L161 122L171 122L172 120ZM163 328L160 330L156 339L145 356L145 358C152.333 348.667 158.333 338.667 163 328ZM145 305L142 305L120 333L116 335L107 345L107 347C111.667 345.667 115 343 117 339C119 339.667 119.667 339.333 119 338L124 334L143 311L145 305ZM145 359L143 358L142 361L142 362L145 359ZM141 402L139 400L136 417L136 421L141 409L141 402ZM137 294L132 278L130 262L127 258L109 268L91 275L88 275L87 278L89 279L99 277L112 271L114 271L113 273L122 299L124 300L117 274C115.667 270 116.333 268.333 119 269L122 275L122 279L129 300L130 300L125 283L123 267L123 265L125 262L134 292L136 295L137 294ZM133 382L131 381L130 383L133 382ZM129 244L128 244L128 249L129 244ZM129 405L128 405L127 411L127 426L129 424L129 405ZM128 348L124 350L121 352L121 354L114 358L113 360C116.333 360.667 118 360 118 358L121 356L128 348ZM127 364L125 363L118 368L118 371L127 364ZM127 380L125 379L124 381L127 380ZM120 195L117 194L117 195L120 195ZM120 412L118 403L117 413L117 428L119 427L120 412ZM119 21L115 17L107 29C107.667 30.3333 107 30.6667 105 30L93 56L92 56C96.6667 40 103.667 26.3333 113 15L111 10L108 8L97 28L83 67L76 103L74 108L71 127L70 143L70 145L67 164L66 183L65 184L65 201L66 202L65 204L66 206L65 210L65 212L66 218L65 223L65 225L66 229L65 233L66 234L66 246L67 247L67 256L68 257L68 266L71 282L71 289L82 340C87.3333 358 94.6667 374.333 104 389L111 395L113 395C105.667 386.333 99.6667 376.333 95 365L85 337L76 292L75 277L75 275L74 259L73 258L74 255L73 250L73 202L74 201L74 182L75 181L74 177L76 164L76 162L75 160L76 159L76 150L76 148L85 107L85 102L93 73L112 31L119 23L119 21ZM117 296L115 293L111 278C111.667 274.667 111 273.333 109 274C109.667 283.333 112 291.667 116 299L117 296ZM109 289L105 276L102 278L105 279L104 281L108 290L109 289ZM108 411L107 405L105 404L106 406C106.667 409.333 106.333 411.667 105 413L107 426L108 426L108 414L107 413L108 411ZM103 303C102.333 301 100.333 300.333 97 301L96 304L100 306L103 303ZM101 278L97 280L93 280L95 284L97 281L98 283C101.333 284.333 102.333 282.667 101 278ZM99 252C97.6667 248.667 95 247 91 247L90 252L92 255L95 254C98.3333 255.333 99.6667 254.667 99 252ZM96 343C94 341 93 338 93 334L92 334L92 338L95 346L96 343ZM96 423L94 413L94 405L93 405L93 419L94 425C96 425.667 96.6667 425 96 423ZM94 401C91.3333 401 91 401.667 93 403L94 401ZM92 330L89 318L87 317L91 333L92 330ZM88 423L86 410L86 408L85 404L84 404C83.3333 412.667 84.3333 419.667 87 425L88 423ZM87 312L86 312L86 313L87 312ZM86 248L85 248L85 250L86 248ZM85 265L84 265L84 269L85 265ZM84 398L83 398L83 402L84 398ZM81 422L80 422L80 423L81 422ZM80 418L74 396L72 386L72 379L70 380L71 381L71 391L73 402L77 417L79 421L80 418ZM79 354L72 345L63 328L67 330L59 318L65 322L57 310L56 308L61 312L63 312L52 298L56 300L50 291L51 290L53 293L55 293L49 286L49 284L48 282L52 285L48 280L49 278L47 274L51 274L45 269L45 272L45 274L47 288L51 302L63 334L78 355L79 354ZM77 60L74 64L74 65L77 60ZM75 69L73 66L70 73L70 75L73 69L74 71L75 69ZM74 72L73 72L73 73L74 72ZM73 74L72 74L72 75L73 74ZM72 76L71 76L71 78L72 76ZM71 79L70 80L69 80L70 78L69 75L61 96L54 122C52.6667 122.667 52.6667 123.333 54 124C57.3333 122.667 58 121.667 56 121L57 118L57 116L61 109L60 107L64 100L64 98L71 79ZM66 111L64 110L62 114L59 115L57 120L57 121L66 111ZM63 119L61 118L50 132L50 133L63 119ZM62 132L57 133L56 137L62 132ZM57 268L48 260L45 257L44 241L43 240L43 206L44 202L56 192L55 189L55 191L40 202L41 206L40 207L40 235L40 237L41 246L41 248L43 259L56 269L57 268ZM56 138L52 139L48 144L46 151L44 170L44 172L41 191C40.3333 193 40.6667 194.333 42 195L44 193L44 186L46 179L49 173L48 171C50 169 51 166 51 162L49 162L50 160L48 160C47.3333 157.333 48 156.333 50 157C50.6667 153 52.3333 149.667 55 147L53 146L51 148L56 138ZM56 287L54 286L54 287L56 287ZM56 376L52 376L45 381L38 390C38.6667 391.333 38 391.667 36 391L16 416L12 388L12 379L11 378L12 376L11 374L11 362L10 361L10 345L12 336L20 320L31 303L30 300L10 331L8 339L8 346L7 349L8 358L7 361L8 363L8 378L9 379L10 397L14 416L14 418L15 421C14.3333 423.667 14.6667 424.667 16 424L39 394L49 383C51 383.667 51.6667 383.333 51 382L53 380L56 376ZM54 276L52 275L52 276L54 276ZM54 282L49 278L52 282L54 282ZM52 158C50 156.667 49.3333 157 50 159L52 158ZM41 359L39 358L14 387C13.3333 388.333 13.6667 388.667 15 388L41 359ZM41 373L34 379L18 401L20 401L22 397L41 373ZM40 346L32 351L14 372L14 373L36 352L40 346ZM38 161L35 163L29 176L25 189L23 209L22 210L22 242L29 271L30 271L25 246L25 235L25 233L24 230L24 228L25 226L24 224L26 212L25 210L31 186L33 187C31 189 30.3333 192.333 31 197L31 199L29 209L29 211L30 240L32 239L31 235L31 233L32 230L31 229L31 215L31 213L32 212L33 189L35 183L36 171L34 171L37 167L36 165L38 161ZM34 336L22 346C22.6667 347.333 22 347.667 20 347L13 356L13 357L25 346L34 336ZM32 241L30 242L31 247L32 241ZM32 249L31 249L31 250L32 249ZM32 323L17 338L17 339L32 323Z" fill="#0E0E0E"/>
<path opacity="0.996078" d="M165 110.5L165 113C163 112.2 162.333 113.033 163 115.5L160.5 121L159 118.5C160.667 117.5 161 115.167 160 111.5L158 111.5L159 106C156.8 105.133 156.133 106.3 157 109.5L155 113.5L155 115.5L153.5 119L153 113.5L154 112.5C152.8 106.633 153.133 102.3 155 99.5L153.5 96L147.5 110L147 108.5L151 87.5L149 88.5L142.5 104L142 99.5L145 87.5L145 85.5L146 82.5L144 81.5L138.5 97L137 91.5L140 78.5L140 71.5L138 72.5L132.5 85L131 82.5L136 63.5L134 62.5L127.5 79L127 72.5L132 52.5L129 54.5L122 72L120 71.5L125 55.5L126 45.5L125 45.5L115.5 64L115 58.5L124 36L127 37.5C141.667 59.8333 154.333 84.1667 165 110.5Z" fill="#0E0E0E"/>
<path opacity="0.996078" d="M143 137.499L141.5 136.999C139.967 137.533 139.467 137.033 140 135.499L133 126.999L131.5 126.999L113.5 108.999L98 97.4995C98.8667 95.6995 99.7 95.5328 100.5 96.9995L110.5 102.999L129 119.499L143 137.499Z" fill="#0E0E0E"/>
<path opacity="0.996078" d="M115 75.5C115.066 79.2333 113.9 81.7333 111.5 83L107.5 84C103.566 82.5333 102.066 78.7 103 72.5L106.5 69L107.5 70L109.5 69L114 72.5L115 75.5ZM111 75L108 73L109 77C111 77.6667 111.666 77 111 75Z" fill="#0E0E0E"/>
<path opacity="0.996078" d="M103 122.5L103 126.5L101 130L96.5 131L93 128.5L92 118.5C92.6667 116.166 94.8334 115.333 98.5 116L103 122.5ZM101 127L99 126L99 127L101 127Z" fill="#0E0E0E"/>
<path opacity="0.996078" d="M100 175.5L98 181L94.5 180L92.5 180L89 179L86 173.5L86 168L92.5 167L95.5 168L97.5 167L98 169.5L100 175.5ZM98 173L95 170L91 173L92 175L96 177L98 173Z" fill="#0E0E0E"/>
<path opacity="0.996078" d="M97 208.5L95 213L87.5 214C84.6334 212.866 83.8 209.7 85 204.5C85.8 202.833 87.4667 202.333 90 203L90.5 205L94 203L95 208L97 208.5ZM94 210L93 206L88 205C85.3334 206.333 85 207.666 87 209L89 208L93 211L94 210Z" fill="#0E0E0E"/>
</svg>
