<svg width="618" height="658" viewBox="0 0 618 658" fill="none" xmlns="http://www.w3.org/2000/svg">
<path opacity="0.996078" d="M313.767 5.31378C317.165 2.71946 320.169 2.11348 322.778 3.49584L326.946 7.92644L327.095 14.4439L324.196 21.7986L324.543 63.6779L326.493 68.3896C337.652 73.9178 347.93 83.8852 357.329 98.2916L358.166 101.341L365.395 112.146L370.962 124.062L378.491 147.902L383.801 172.022L389.148 217.776L387.87 282.401L391.763 288.219L407.877 305.11L415.663 316.746L423.179 333.374L427.365 348.621L428.783 366.924L426.06 397.021L424.813 397.855L414.906 444.189C414.544 448.443 412.331 452.329 408.269 455.849C405.866 456.094 403.692 454.942 401.746 452.393L398.098 427.161L392.794 406.646C390.655 399.013 386.018 390.885 378.885 382.262L372.218 375.894L368.194 374.376L359.22 397.827L360.341 404.898L350.924 412.402L360.936 429.165L366.509 444.687C369.87 464.096 368.838 482.634 363.413 500.301L359.545 508.905L359.126 507.381L358.271 493.514C360.379 482.639 360.915 471.451 359.879 459.952C358.934 447.751 355.214 434.999 348.72 421.697L347.889 422.253C356.072 450.067 356.624 476.368 349.547 501.156L340.717 527.519L319.15 567.217C314.361 578.282 311.376 589.705 310.194 601.485L308.449 635.74C307.553 642.195 305.298 648.116 301.683 653.502L300.568 650.037L302.756 631.728L296.328 602.34L295.478 592.08L298.079 571.69L305.816 554.481L308.309 552.813L317.439 539.485L317.995 540.316L314.536 545.037C316.147 546.125 316.102 546.957 314.402 547.533L312.883 551.557C314.179 552.535 314.042 553.228 312.471 553.638L303.508 584.3C304.084 586 304.917 586.045 306.005 584.435L305.583 581.107L332.088 509.229L332.231 512.141L333.918 525.451L335.162 522.814C339.675 512.655 342.477 502.157 343.568 491.32L342.945 450.828L340.427 438.074L337.647 433.919L336.541 435.862C338.14 452.279 336.919 468.136 332.877 483.434L331.22 488.152L329.971 487.183L329.922 458.339C329.721 448.928 327.579 439.131 323.494 428.95L321.275 429.231L323.5 432.556L324.343 439.211L323.405 458.488L323.261 455.576L321.431 439.354L322.675 436.717L319.347 437.139C321.258 451.983 321.282 466.406 319.42 480.406L317.48 481.102L316.911 473.06C314.129 467.703 312.734 462.62 312.726 457.813L311.344 461.143C313.039 479.02 312.005 496.357 308.242 513.152L294.987 547.288L290.44 564.769L287.598 606.376L285.792 604.577L283.281 595.428L282.697 578.372C284.841 577.98 284.932 576.917 282.969 575.182L286.126 555.624L293.707 528.292L293.97 519.694L292.445 520.112L282.658 554.936L282.673 563.95C280.769 564.341 280.493 565.128 281.845 566.309L279.388 589.61C280.888 601.922 280.677 613.895 278.755 625.528C277.832 626.787 277.139 626.65 276.674 625.116C273.511 613.435 271.92 602.067 271.902 591.01C272.155 576.883 274.397 563.15 278.628 549.812L282.63 538.711C281.02 537.623 281.065 536.791 282.765 536.215L289.778 500.841L292.785 474.765L291.389 469.081L290.142 469.916L283.26 500.99L283.117 498.078C282.538 484.027 283.579 470.296 286.237 456.887L287.481 454.25L286.628 442.186L282.769 456.199L277.968 487.687L275.469 485.749L275.481 492.96L274.231 491.992C271.617 476.816 272.564 462.346 277.07 448.582L288.807 418.469L283.958 421.112C275.662 435.567 270.51 450.645 268.502 466.346L267.253 465.378C266.127 455.783 266.99 446.583 269.841 437.777C271.861 429.527 275.361 421.571 280.34 413.907L281.865 413.489C280.046 409.331 277.824 407.209 275.198 407.121L275.736 397.135L274.624 395.473L268.794 392.155L268.507 386.331L262.943 376.217L257.54 379.832L252.835 385.386L237.343 408.987C231.355 421.737 227.772 434.963 226.593 448.667C226.414 451.995 224.385 454.957 220.506 457.552L216.207 457.421L212.314 451.603L209.247 441.623L203.075 400.031C201.473 381.932 202.784 364.411 207.008 347.467C209.674 338.383 213.819 329.594 219.444 321.097C224.976 311.861 232.727 303.066 242.698 294.71L246.428 286.799L244.382 224.399L247.09 185.288L250.521 164.342C254.101 148.712 259.992 133.54 268.195 118.827L283.131 94.3948L292.542 83.285L297.529 79.9484L299.185 75.2306L301.404 74.9495L303.341 72.4501C309.529 69.1115 312.25 65.0854 311.502 60.3717L313.923 15.4368C311.236 12.261 310.816 9.53446 312.661 7.25709L313.767 5.31378ZM318.35 9.46633L317.8 12.2408L320.575 12.7908L321.681 10.8475C321.306 7.8897 320.196 7.42933 318.35 9.46633ZM316.969 12.7969L317.25 15.0152L318.082 14.4591L316.969 12.7969ZM318.088 18.0646L318.369 20.283L319.2 19.7269L318.088 18.0646ZM318.369 20.283L315.392 64.3867C315.95 66.4197 316.875 66.603 318.166 64.9367L319.481 21.9452L318.369 20.283ZM310.692 73.5472L312.361 76.0405L319.016 75.1973L319.01 71.5917C316.048 69.5628 313.275 70.2146 310.692 73.5472ZM298.513 87.7125C282.273 106.6 271.397 126.31 265.885 146.843L268.659 147.393L267.547 145.731L282.196 115.475L293.263 99.6474L294.919 94.9297L302.118 87.7065C301.56 85.6735 300.358 85.6755 298.513 87.7125ZM308.486 81.0393L310.155 83.5327C311.446 81.8664 310.89 81.0353 308.486 81.0393ZM303.231 89.3687L306.561 90.7499L307.117 91.581L301.574 94.0864L304.074 96.0237C300.008 97.1399 298.993 98.6208 301.03 100.466L304.636 100.46L305.192 101.291L299.093 102.966C296.506 103.895 296.046 105.005 297.712 106.296L301.318 106.29C301.505 107.769 302.244 107.675 303.536 106.009L303.817 108.228L297.162 109.071L294.394 112.126L297.443 111.289L300.774 112.67L293.844 114.901L291.906 117.4L296.899 117.669C297.087 119.148 297.826 119.054 299.117 117.388L299.399 119.606L290.25 122.118L295.524 124.605L296.08 125.436L288.038 126.005L286.932 127.948L289.981 127.111L293.868 129.323L285.551 131.278L283.613 133.778L288.881 132.66L296.373 134.866L283.063 136.552C281.03 137.11 280.847 138.035 282.513 139.327L287.781 138.208L295.273 140.415L283.075 143.763L281.138 146.263L289.737 146.526C290.474 145.23 291.122 145.599 291.68 147.632L293.067 147.907L280.313 150.424L279.207 152.368L308.608 153.15L333.009 150.058C334.488 149.871 334.58 149.409 333.284 148.671L320.249 148.97L312.757 146.764L316.082 144.54C321.26 145.086 326.804 143.782 332.716 140.629L337.153 140.067L337.984 139.511L334.653 138.13C331.699 140.908 329.112 141.837 326.892 140.916L318.294 140.653L314.963 139.272L311.914 140.109L311.077 137.06L331.042 134.53L332.704 133.418C326.051 135.463 320.133 135.011 314.951 132.061L311.346 132.067L310.789 131.236L320.494 129.555L320.213 127.337L323.818 127.331L321.044 126.781L322.706 125.669L323.537 125.113L321.594 124.007L311.052 122.638L310.496 121.806L316.87 118.745L329.905 118.446L330.736 117.89L312.427 115.702C311.136 117.368 310.211 117.184 309.653 115.151C314.64 111.815 319.445 110.605 324.069 111.522L325.731 110.409L317.133 110.147L311.028 108.215L319.62 104.873L321.008 105.148L318.508 103.211C317.217 104.877 316.292 104.693 315.734 102.66L309.91 102.948C308.618 104.614 307.694 104.431 307.135 102.398L319.889 99.88L320.72 99.3239L314.34 98.7799L309.623 97.1238L317.665 96.5555L318.496 95.9994L312.947 94.8994L307.673 92.4121L312.941 91.2938L313.772 90.7377L311.829 89.6316L310.717 87.9694L313.766 87.1322L315.428 86.02C311.542 83.8077 307.476 84.924 303.231 89.3687ZM327.064 78.2346L336.512 88.758L351.526 111.198L354.869 119.79L358.762 125.608L365.172 144.18L369.053 142.787L359.025 117.01L340.117 88.752L327.064 78.2346ZM278.584 111.876L279.14 112.707L279.971 112.151L278.584 111.876ZM314.603 90.1816L316.547 91.2878L317.378 90.7317L314.603 90.1816ZM324.858 85.7268C325.42 90.1634 326.903 92.3797 329.307 92.3757L340.985 109.829L348.782 128.676L348.788 132.281C350.821 131.723 351.1 132.74 349.625 135.331L351.569 136.437L353.799 143.367C354.728 145.954 355.838 146.414 357.13 144.748L343.478 108.161L335.137 95.6941L324.858 85.7268ZM319.602 94.0561L321.545 95.1623C320.987 93.1293 320.34 92.7606 319.602 94.0561ZM282.208 122.686L281.658 125.461L283.32 124.348L282.208 122.686ZM286.364 119.906L286.92 120.737L287.751 120.181L286.364 119.906ZM262.542 138.251L262.823 140.469L263.654 139.913L262.542 138.251ZM321.552 98.7678L322.108 99.5989L322.939 99.0428L321.552 98.7678ZM259.774 141.306L260.055 143.525L260.886 142.969L259.774 141.306ZM320.445 100.711L320.726 102.929L321.558 102.373L320.445 100.711ZM323.495 99.8739L323.776 102.092L324.607 101.536L323.495 99.8739ZM322.114 103.204L322.395 105.423L325.444 104.586L326.275 104.03L322.114 103.204ZM281.114 131.841L281.67 132.672L282.501 132.116L281.114 131.841ZM319.901 107.091L320.458 107.922L321.289 107.366L319.901 107.091ZM315.752 113.477L316.033 115.695L316.864 115.139L315.752 113.477ZM327.388 105.692L327.669 107.91L328.5 107.354L327.388 105.692ZM279.464 140.164L280.576 141.826L281.682 139.883L279.464 140.164ZM318.526 114.027L319.082 114.858L319.914 114.302L318.526 114.027ZM329.056 108.185L329.337 110.403L330.168 109.847L329.056 108.185ZM350.665 93.7265L350.946 95.9449L351.777 95.3888L350.665 93.7265ZM327.119 110.685L327.4 112.903L328.231 112.347L327.119 110.685ZM279.47 143.769L280.026 144.6L280.857 144.044L279.47 143.769ZM260.91 157.391L262.579 159.884L268.684 161.815L284.218 163.453L307.239 163.692L361.304 152.784L364.078 153.334C365.369 151.668 366.203 152.314 366.577 155.272L371.564 151.935L370.452 150.273L372.945 148.604L371.002 147.498L357.698 152.79L333.296 155.882L283.931 157.629L263.404 155.722L260.91 157.391ZM278.364 145.713L278.92 146.544L279.751 145.988L278.364 145.713ZM331.567 117.333L333.511 118.44C332.953 116.407 332.305 116.038 331.567 117.333ZM338.216 112.885L338.222 116.49L339.885 115.378C341.176 113.712 340.62 112.881 338.216 112.885ZM260.647 165.989C256.239 183.377 253.866 201.409 253.527 220.084L253.863 254.753L256.686 284.147L264.178 286.353L263.341 283.304L261.398 282.198L259.729 279.704C261.2 274.71 260.544 269.533 257.762 264.176L258.575 252.803C256.908 251.512 257.092 250.587 259.125 250.029L257.157 234.501L258.496 205.931L260.152 201.213C260.339 202.692 261.079 202.599 262.37 200.932L262.089 198.714L260.146 197.608L260.953 182.63L264.265 173.194L265.927 172.082L282.574 175.382L283.13 176.213L268.989 178.456L274.819 181.774L266.227 185.117L265.114 183.455L263.733 186.785L265.396 185.673L271.225 188.991L272.613 189.266L261.802 192.89C262.36 194.923 263.285 195.106 264.577 193.44L269.575 197.315L270.963 197.59C269.671 199.256 268.746 199.073 268.188 197.04L263.195 196.771L264.039 203.426L265.982 204.532L262.101 205.925L265.713 209.525L263.495 209.806L262.114 213.136L264.613 215.073L261.839 214.523L260.732 216.467C262.765 215.909 264.246 216.923 265.175 219.51L261.576 223.122L264.906 224.503L266.018 226.165C262.507 226.911 261.769 228.206 263.806 230.052C266.393 229.123 267.226 229.769 266.306 231.989L261.594 233.938C262.152 235.971 263.077 236.155 264.368 234.488L267.424 237.257L262.156 238.375L260.219 240.874L264.936 242.531L261.056 243.924L269.104 246.961C266.705 249.369 264.949 249.742 263.836 248.079L262.73 250.023C266.242 249.277 268.833 250.752 270.504 254.447C269.212 256.114 268.473 256.207 268.285 254.728L267.454 255.284L260.243 255.297C261.172 257.884 262.282 258.344 263.574 256.678L271.622 259.715L272.734 261.377L267.466 262.496L265.529 264.995C269.595 263.879 273.388 265.352 276.908 269.413L281.344 268.851L283.288 269.957C280.888 272.365 279.595 272.83 279.407 271.351L268.034 270.538L283.3 277.169L283.856 278L275.814 278.568L274.152 279.68L288.861 285.48L276.938 287.441L266.115 283.854L264.734 287.184L272.226 289.391L275.557 290.772L296.64 293.51L331.865 294.005L361.534 289.795L374.563 285.89L379.55 282.554C381.913 258.513 382.426 234.105 381.091 209.331L377.436 180.492L372.694 164.414L372.963 159.421L371.02 158.315L370.189 158.871L364.371 162.764L356.054 164.719L322.779 168.935L275.632 170.401L264.534 168.201C263.976 166.168 263.051 165.985 261.76 167.651L260.647 165.989ZM330.186 120.664L328.805 123.994L331.298 122.326L330.186 120.664ZM329.361 124.826L329.642 127.044L330.473 126.488L329.361 124.826ZM326.318 129.268C326.322 131.672 326.97 132.041 328.261 130.374L326.318 129.268ZM341.278 119.259L342.671 123.139L343.777 121.196L341.278 119.259ZM339.897 122.589L340.178 124.807L341.009 124.251L339.897 122.589ZM332.973 128.425C335.01 130.271 335.568 132.304 334.647 134.524C334.835 136.003 335.851 135.724 337.697 133.687L336.309 133.412L335.747 128.975C335.189 126.942 334.264 126.759 332.973 128.425ZM324.943 136.204L325.78 139.254L326.611 138.698L324.943 136.204ZM267.883 180.399L268.439 181.23L269.27 180.674L267.883 180.399ZM367.073 120.047L367.354 122.266L368.185 121.709L367.073 120.047ZM301.14 165.366L301.696 166.197L302.527 165.641L301.14 165.366ZM330.229 145.903C330.787 147.936 331.712 148.119 333.003 146.453C332.445 144.42 331.52 144.237 330.229 145.903ZM303.358 165.085L303.914 165.916L304.745 165.36L303.358 165.085ZM338.546 143.947L338.827 146.166L339.658 145.61L338.546 143.947ZM334.671 148.946L336.615 150.052L337.446 149.496L334.671 148.946ZM338.277 148.94L338.833 149.771L339.664 149.215L338.277 148.94ZM314.731 165.898L315.287 166.729L316.118 166.173L314.731 165.898ZM339.664 149.215C340.222 151.248 341.147 151.431 342.439 149.765C341.88 147.732 340.956 147.549 339.664 149.215ZM316.949 165.617L317.505 166.448L319.167 165.336L316.949 165.617ZM343.545 147.822L343.826 150.04L344.657 149.484L343.545 147.822ZM351.581 143.648L353.524 144.754C352.966 142.721 352.318 142.353 351.581 143.648ZM319.723 166.167L320.28 166.998L321.111 166.442L319.723 166.167ZM340.501 152.265L341.057 153.096L341.889 152.54L340.501 152.265ZM348.544 151.696L349.1 152.527L349.931 151.971L348.544 151.696ZM358.248 150.016L358.804 150.847L359.635 150.291L358.248 150.016ZM259.351 219.797L259.632 222.016L260.463 221.459L259.351 219.797ZM262.467 258.621L262.748 260.839L263.58 260.283L262.467 258.621ZM261.917 261.396L262.198 263.614L263.03 263.058L261.917 261.396ZM264.979 267.769L263.598 271.1L266.091 269.432L267.478 269.707L264.979 267.769ZM262.211 270.825L262.492 273.043L263.323 272.487L262.211 270.825ZM261.104 272.768L261.386 274.987L262.217 274.43L261.104 272.768ZM265.541 272.206L265.822 274.424L261.942 275.818L266.384 278.861L269.434 278.024L265.541 272.206ZM382.178 196.571L382.46 198.789L383.291 198.233L382.178 196.571ZM268.041 274.143C268.599 276.176 269.523 276.36 270.815 274.693C270.257 272.66 269.332 272.477 268.041 274.143ZM255.305 287.478L255.586 289.696L256.417 289.14L255.305 287.478ZM270.265 277.468L273.595 278.849L273.039 278.018L270.265 277.468ZM276.651 281.617L276.932 283.836L277.763 283.28L276.651 281.617ZM243.131 305.248L226.802 325.8C220.715 334.685 216.478 343.937 214.091 353.556L211.102 390.449L215.617 436.759C215.805 438.238 216.544 438.144 217.836 436.478L214.714 394.048L216.596 359.099L223.771 337.454L235.388 318.852L246.187 308.017L248.674 302.743L243.131 305.248ZM256.429 296.351L258.372 297.457C257.814 295.424 257.167 295.055 256.429 296.351ZM259.204 296.901C257.553 305.224 257.753 313.914 259.802 322.971L267.63 359.845L270.129 361.783C270.305 356.05 268.816 350.229 265.662 344.317L262.002 311.873L259.491 302.725L260.316 298.563L281.961 305.738L279.187 305.188L279.468 307.406L270.038 307.699L271.707 310.193L282.529 313.78L283.086 314.611L274.212 315.736L272.55 316.848L282.542 320.991C283.1 323.024 284.302 323.022 286.147 320.985L286.703 321.816L284.21 323.485L274.78 323.778L271.731 324.615L280.06 329.871L283.11 329.033L288.384 331.521L273.686 332.932L272.58 334.875L285.621 338.182L288.677 340.95L289.233 341.781L274.811 341.805L273.705 343.749L277.591 345.961L283.415 345.674L287.302 347.886C289.889 346.957 290.722 347.603 289.801 349.823L280.928 350.948L276.491 351.51L277.603 353.172L286.483 355.653C286.67 357.132 287.41 357.039 288.701 355.372L290.094 359.253L291.757 358.141L292.288 344.55L293.67 341.219L294.214 334.839C292.547 333.548 292.731 332.623 294.764 332.065L295.033 327.072L296.964 320.967L296.958 317.361L301.37 302.377C302.666 303.114 303.22 302.744 303.032 301.265L278.068 299.92L259.204 296.901ZM235.669 321.07L236.226 321.901L237.057 321.345L235.669 321.07ZM233.732 323.569L234.288 324.401L235.119 323.844L233.732 323.569ZM243.706 316.896L244.262 317.727L245.093 317.171L243.706 316.896ZM242.606 322.445L232.638 332.724L232.919 334.942L239.012 329.662L244.824 322.164L242.606 322.445ZM285.549 294.915L286.105 295.746L286.936 295.19L285.549 294.915ZM267.82 307.98L268.101 310.199L268.932 309.643L267.82 307.98ZM230.701 335.223L230.982 337.442L231.813 336.885L230.701 335.223ZM228.764 337.723L229.045 339.941L230.151 337.998L228.764 337.723ZM244.561 330.762L244.286 332.15L234.313 338.823L229.332 345.765L229.613 347.983L246.504 331.868C245.946 329.836 245.298 329.467 244.561 330.762ZM383.363 241.499L383.92 242.33L384.751 241.774L383.363 241.499ZM243.467 339.917L227.963 356.306C223.714 358.348 222.422 360.014 224.088 361.305L226.582 359.637L240.705 346.578L244.579 341.579L243.467 339.917ZM273.943 320.728C273.947 323.132 274.595 323.501 275.887 321.834L273.943 320.728ZM311.625 297.922L311.075 300.697L312.737 299.584L311.625 297.922ZM271.737 328.22L272.849 329.883L273.955 327.939L271.737 328.22ZM235.724 353.52L236.28 354.351L237.111 353.795L235.724 353.52ZM310.249 304.858L305 316.793C297.295 353.231 297.729 391.043 306.3 430.227L307.687 430.502L305.647 371.707L308.624 327.604L314.961 302.909L310.249 304.858ZM237.667 354.626L231.3 361.293L229.918 364.624C227.331 365.553 226.871 366.663 228.537 367.954L236.011 359.344L243.766 352.952C243.208 350.919 241.175 351.477 237.667 354.626ZM259.276 340.167L259.557 342.386L260.389 341.83L259.276 340.167ZM274.236 330.158L275.349 331.82L276.455 329.877L274.236 330.158ZM269.806 334.325L270.918 335.988L272.024 334.044L269.806 334.325ZM221.051 369.354L222.163 371.016L223.269 369.073L221.051 369.354ZM272.305 336.263L272.861 337.094L273.692 336.538L272.305 336.263ZM282.004 330.977L282.56 331.808L284.222 330.696L282.004 330.977ZM318.573 306.508L318.854 308.727L319.685 308.171L318.573 306.508ZM242.666 358.501L242.116 361.275L236.298 365.168L230.487 372.666L235.473 369.329L237.136 368.217L245.997 359.882L246.272 358.494L242.666 358.501ZM270.649 340.98L271.205 341.812L272.036 341.255L270.649 340.98ZM273.974 338.756L274.255 340.974L275.086 340.418L273.974 338.756ZM323.841 305.39L324.397 306.221L325.228 305.665L323.841 305.39ZM277.023 337.919L278.966 339.025L279.797 338.469L277.023 337.919ZM329.383 302.885L331.052 305.378L334.657 305.372L354.066 302.011C355.358 300.345 356.282 300.528 356.84 302.561L357.947 300.618L368.482 298.381L371.807 296.157L349.904 301.186L329.383 302.885ZM312.767 317.612L313.048 319.83L313.879 319.274L312.767 317.612ZM321.078 312.051C324.439 331.46 325.211 350.596 323.394 369.459L324.781 369.734L325.6 361.967C323.934 360.675 324.117 359.75 326.15 359.192L327.22 335.616L325.82 328.129C326.741 325.909 326.462 324.893 324.983 325.08L326.089 323.137L324.702 322.862L323.859 316.207L321.078 312.051ZM383.412 270.344L383.693 272.562L384.524 272.006L383.412 270.344ZM231.043 373.497L230.768 374.884C228.181 375.813 227.72 376.923 229.387 378.215L232.155 375.159L233.542 375.434C232.613 372.847 231.78 372.201 231.043 373.497ZM262.35 353.752L262.906 354.584L263.737 354.028L262.35 353.752ZM327.177 310.377L329.12 311.483C328.562 309.45 327.915 309.081 327.177 310.377ZM225.231 380.995L227.174 382.101L229.111 379.602L225.231 380.995ZM241.022 370.429L240.472 373.204L242.134 372.092L241.022 370.429ZM235.76 375.153L237.704 376.259C237.146 374.226 236.498 373.858 235.76 375.153ZM238.254 373.485L238.535 375.703L239.366 375.147L238.254 373.485ZM312.223 323.992L313.06 327.042L314.723 325.929L312.223 323.992ZM333.001 310.09L332.732 315.082L347.704 312.284L350.198 310.615L333.001 310.09ZM225.512 383.214L224.962 385.988L226.624 384.876L225.512 383.214ZM326.358 318.144L326.914 318.975L327.745 318.419L326.358 318.144ZM239.097 380.14L239.653 380.971L240.484 380.415L239.097 380.14ZM249.627 374.298L234.679 391.519L225.279 409.84L223.91 420.381C228.135 403.918 237.355 388.926 251.57 375.404C251.012 373.371 250.364 373.002 249.627 374.298ZM227.742 390.144L223.593 396.53L223.599 400.135L228.855 391.806L227.742 390.144ZM269.298 362.339L270.135 365.388L270.967 364.832L269.298 362.339ZM358.228 302.836L357.678 305.611L359.621 306.717L359.34 304.498L358.228 302.836ZM276.503 358.721L276.784 360.939L279.834 360.102L280.39 360.933C277.249 362.233 276.511 363.528 278.178 364.82L280.115 362.32L289.275 367.02L292.325 366.183L292.038 360.359L276.503 358.721ZM333.019 320.906L334.687 323.4L347.997 321.713L349.66 320.601L335.513 319.238L333.019 320.906ZM351.304 308.672L351.86 309.503L352.691 308.947L351.304 308.672ZM374.3 294.489L373.505 316.678C371.126 331.104 367.359 345.255 362.205 359.132L363.593 359.407L368.017 351.633L373.53 331.1C376.838 319.261 378.574 306.87 378.737 293.926C377.808 291.339 376.329 291.527 374.3 294.489ZM363.22 303.105L363.783 307.542L365.17 307.817L365.439 302.824L363.22 303.105ZM361.008 306.992L361.014 310.597L362.12 308.654L361.008 306.992ZM380.68 295.032C380.684 297.436 381.332 297.805 382.623 296.139L380.68 295.032ZM221.662 402.635L221.112 405.409L222.499 405.684L223.605 403.741C223.047 401.708 222.399 401.339 221.662 402.635ZM275.409 367.875L277.353 368.982L278.459 367.038L275.409 367.875ZM321.121 337.29L321.402 339.508L322.233 338.952L321.121 337.29ZM274.303 369.819L274.584 372.037L281.801 375.63L291.787 376.168L289.281 370.626C283.737 371.929 278.744 371.66 274.303 369.819ZM356.584 314.765L357.696 316.427L358.802 314.484L356.584 314.765ZM361.295 312.816L360.745 315.59L362.689 316.696L362.683 313.091L361.295 312.816ZM388.722 294.464L387.897 298.626L396.514 309.705L397.901 309.98L411.528 332.146L417.67 355.71L417.975 372.351L412.487 407.306L410.006 416.185C411.301 416.923 411.209 417.385 409.731 417.573L406.717 440.043L408.38 438.931L408.099 436.712L412.236 423.115C417.378 402.028 420.207 380.482 420.725 358.478L415.415 334.358L411.516 324.934L392.334 298.064L388.722 294.464ZM321.127 340.896L321.408 343.114L322.239 342.558L321.127 340.896ZM337.749 329.774L335.537 333.66L337.199 332.548L338.861 331.436L346.072 331.424C346.81 330.128 347.458 330.497 348.016 332.53L349.122 330.586C345.606 328.928 341.815 328.657 337.749 329.774ZM357.696 316.427L357.427 321.42C357.985 323.453 359.187 323.451 361.032 321.414L360.195 318.364L359.364 318.92L358.808 318.089L357.696 316.427ZM354.927 319.483L355.484 320.314L356.315 319.758L354.927 319.483ZM310.603 350.343L310.884 352.561L311.716 352.005L310.603 350.343ZM352.159 322.538L352.715 323.369L353.546 322.813L352.159 322.538ZM297.03 360.628L297.587 361.459L298.418 360.903L297.03 360.628ZM353.546 322.813L355.215 325.307L353.833 328.637L356.327 326.969L356.596 321.976L353.546 322.813ZM350.778 325.869C351.336 327.902 352.261 328.085 353.552 326.419C352.994 324.386 352.069 324.202 350.778 325.869ZM311.44 353.393L313.94 355.33C315.973 354.772 316.156 353.847 314.49 352.555L311.44 353.393ZM380.423 307.236L379.873 310.011L381.535 308.899L380.423 307.236ZM335.268 338.653L336.38 340.315L340.817 339.753L342.479 338.641L335.268 338.653ZM349.953 330.03C349.957 332.434 350.605 332.803 351.896 331.136L349.953 330.03ZM275.99 383.129L281.545 387.834L292.086 389.203L290.974 387.541L275.99 383.129ZM320.039 353.655L320.595 354.487L321.426 353.93L320.039 353.655ZM355.777 329.743C356.335 331.776 357.26 331.959 358.551 330.293C357.993 328.26 357.068 328.077 355.777 329.743ZM343.866 338.916L344.422 339.747L345.253 339.191L343.866 338.916ZM346.084 338.635L349.415 340.016L348.859 339.185L346.084 338.635ZM212 429.554L212.281 431.772L213.112 431.216L212 429.554ZM356.614 332.793L357.17 333.624L358.001 333.068L356.614 332.793ZM272.396 390.346L272.677 392.564L273.508 392.008L272.396 390.346ZM337.223 346.97L338.335 348.632L341.385 347.795L343.047 346.683L337.223 346.97ZM220.592 426.211L221.148 427.042L221.979 426.486L220.592 426.211ZM278.495 388.671L278.776 390.89L279.607 390.334L278.495 388.671ZM348.309 341.959L349.421 343.621L350.527 341.678L348.309 341.959ZM228.353 423.425L228.634 425.643L229.465 425.087L228.353 423.425ZM382.941 319.99L382.947 323.596L384.053 321.652L382.941 319.99ZM338.617 350.851C338.621 353.254 339.268 353.623 340.56 351.957L338.617 350.851ZM344.434 346.958L344.99 347.789L345.822 347.233L344.434 346.958ZM312.577 369.477L313.133 370.308L313.964 369.752L312.577 369.477ZM350.533 345.284L349.983 348.058L351.645 346.946L350.533 345.284ZM390.427 318.591L390.983 319.422L391.814 318.866L390.427 318.591ZM397.076 314.142L397.632 314.973L398.463 314.417L397.076 314.142ZM227.253 428.974L227.809 429.805L228.64 429.249L227.253 428.974ZM328.649 361.129L328.93 363.348L329.761 362.792L328.649 361.129ZM216.174 437.59L217.011 440.639L217.842 440.083L216.174 437.59ZM349.983 348.058L350.264 350.276L351.095 349.72L349.983 348.058ZM382.397 326.37L382.678 328.589L383.784 326.645L382.397 326.37ZM311.477 375.026L311.758 377.244L312.589 376.688L311.477 375.026ZM341.397 355.006L341.953 355.837L342.784 355.281L341.397 355.006ZM392.926 320.528L393.482 321.359L394.313 320.803L392.926 320.528ZM217.011 440.639L217.848 443.689L218.679 443.133L217.011 440.639ZM394.87 321.634L394.32 324.409L402.667 340.481L400.73 342.98C398.318 338.177 395.725 335.5 392.951 334.95L392.119 335.506L398.237 344.649L396.574 345.761L399.074 347.698L401.023 352.41C403.985 354.439 404.172 355.918 401.585 356.846L401.304 354.628C397.788 352.97 395.101 349.554 393.244 344.38L391.857 344.105C390.74 340.039 389.259 339.024 387.414 341.061L389.913 342.999L394.362 349.648L392.7 350.76L395.199 352.697L403.547 368.769L405.221 374.868L407.439 374.587C407.814 377.545 406.891 378.563 404.671 377.643L405.777 375.699L403.003 375.149L387.432 351.878L387.151 349.66L385.495 354.377L391.05 359.083L391.887 362.132L394.386 364.07L401.347 379.867L405.239 385.685L406.083 392.34C406.27 393.819 407.009 393.725 408.301 392.059C410.872 381.515 412.055 370.696 411.852 359.603L406.267 336.869L400.706 328.558L394.87 321.634ZM318.963 373.626L319.244 375.845L320.075 375.289L318.963 373.626ZM360.244 347.209L359.694 349.983L361.356 348.871L360.244 347.209ZM221.172 441.465L222.01 444.514L222.841 443.958L221.172 441.465ZM323.4 373.064L319.274 393.873L317.062 397.759L318.174 399.421L318.73 400.253L324.787 373.339L323.4 373.064ZM393.213 326.352L394.607 330.233L395.438 329.676L393.213 326.352ZM389.614 329.964C389.618 332.367 390.266 332.736 391.557 331.07L389.614 329.964ZM286.281 400.307L287.674 404.188L296.834 408.887L299.884 408.05L296.828 405.282L286.281 400.307ZM216.748 449.238L217.585 452.287L218.972 452.562L218.966 448.957L216.748 449.238ZM333.104 371.384L333.385 373.602L334.216 373.046L333.104 371.384ZM355.269 357.756L355.55 359.975L356.381 359.419L355.269 357.756ZM390.457 336.619L389.076 339.949L391.569 338.281L390.457 336.619ZM335.328 374.708L338.659 376.09L347.532 374.965L352.519 371.629L335.328 374.708ZM222.022 451.725L220.641 455.056L223.134 453.387L222.022 451.725ZM384.089 343.286L385.202 344.948L386.308 343.005L384.089 343.286ZM397.943 335.219L398.499 336.05L399.331 335.494L397.943 335.219ZM385.202 344.948L386.87 347.441C388.161 345.775 387.605 344.944 385.202 344.948ZM387.695 343.28L387.976 345.498L388.807 344.942L387.695 343.28ZM379.94 349.672L380.221 351.89L381.052 351.334L379.94 349.672ZM359.718 364.405L360.83 366.068L361.936 364.124L359.718 364.405ZM323.705 389.705L323.986 391.923L324.817 391.367L323.705 389.705ZM390.2 348.822C390.758 350.855 391.683 351.039 392.975 349.373C392.417 347.34 391.492 347.156 390.2 348.822ZM297.671 411.937L298.228 412.768C298.965 411.472 299.613 411.841 300.171 413.874L301.002 413.318C300.073 410.731 298.963 410.27 297.671 411.937ZM389.094 350.766L389.65 351.597L390.481 351.041L389.094 350.766ZM317.068 401.365L317.349 403.583L318.18 403.027L317.068 401.365ZM330.366 392.467L331.478 394.129L347.557 389.387L354.206 384.939L355.868 383.826C357.347 383.639 357.253 382.9 355.587 381.608L348.107 386.613L330.366 392.467ZM385.776 356.596L386.332 357.427L387.163 356.871L385.776 356.596ZM417.358 335.464L417.914 336.295L418.745 335.739L417.358 335.464ZM345.607 384.676L346.163 385.507L346.994 384.951L345.607 384.676ZM370.541 367.993L371.653 369.655L372.759 367.712L370.541 367.993ZM316.243 405.526L316.524 407.745L317.355 407.189L316.243 405.526ZM388.275 358.533L388.281 362.139L389.944 361.026L388.275 358.533ZM381.351 364.369L381.632 366.587L382.463 366.031L381.351 364.369ZM332.04 398.566L332.597 399.397L333.428 398.841L332.04 398.566ZM371.934 371.873L372.215 374.092L373.046 373.536L371.934 371.873ZM312.1 415.518L311.55 418.292L313.212 417.18L312.1 415.518ZM388.562 364.357L394.411 378.492L400.803 386.247L396.067 373.774L388.562 364.357ZM325.954 407.452L325.96 411.057L336.495 408.821L345.919 404.922C349.43 404.176 350.168 402.881 348.131 401.035L337.876 405.49L325.954 407.452ZM286.616 434.975L286.897 437.194L287.728 436.638L286.616 434.975ZM300.745 425.522L303.556 447.705L304.943 447.98L302.963 425.241L300.745 425.522ZM397.155 361.014L397.436 363.233L398.267 362.676L397.155 361.014ZM283.573 439.418L284.129 440.249L284.96 439.693L283.573 439.418ZM269.169 450.259L269.725 451.09L270.556 450.534L269.169 450.259ZM385.525 372.405L385.806 374.623L386.637 374.067L385.525 372.405ZM280.254 445.248L280.535 447.466L281.367 446.91L280.254 445.248ZM351.73 397.424L352.286 398.255L353.118 397.699L351.73 397.424ZM380.826 381.566L381.107 383.784L381.938 383.228L380.826 381.566ZM414.626 360.153C414.63 362.556 415.278 362.925 416.57 361.259L414.626 360.153ZM386.924 379.891L391.929 387.371L391.654 388.759L394.148 387.09L389.143 379.61L386.924 379.891ZM422.662 355.979L423.219 356.81L424.05 356.254L422.662 355.979ZM319.885 427.154L320.441 427.985L321.272 427.429L319.885 427.154ZM357.285 402.129L357.841 402.96L358.673 402.404L357.285 402.129ZM383.05 384.89L383.887 387.94L384.718 387.383L383.05 384.89ZM277.223 456.902L277.504 459.12L278.335 458.564L277.223 456.902ZM279.716 455.234C279.721 457.637 280.368 458.006 281.66 456.34L279.716 455.234ZM320.166 429.372L320.447 431.59L321.278 431.034L320.166 429.372ZM299.669 445.493L301.057 445.768L302.444 446.043C301.886 444.01 300.961 443.826 299.669 445.493ZM289.421 453.553L289.977 454.384L290.808 453.828L289.421 453.553ZM292.47 452.716L293.583 454.378L294.689 452.435L292.47 452.716ZM346.493 416.57L346.774 418.788L347.605 418.232L346.493 416.57ZM396.085 384.591L396.641 385.422L397.472 384.866L396.085 384.591ZM327.658 431.578L328.214 432.409L329.046 431.853L327.658 431.578ZM414.094 373.744L415.207 375.406L416.313 373.463L414.094 373.744ZM289.983 457.99L289.714 462.983L291.095 459.652L289.983 457.99ZM394.704 387.921L402.794 416.197L405.294 418.135L403.888 407.043L396.372 390.415L394.704 387.921ZM275.304 470.218L275.585 472.436L278.635 471.599L275.304 470.218ZM288.883 463.539L288.333 466.313L289.995 465.201L288.883 463.539ZM298.856 456.865L299.138 459.084L299.969 458.528L298.856 456.865ZM301.637 461.021L301.093 467.401C302.388 468.138 302.02 468.786 299.987 469.344L302.223 479.88L301.722 511.499L303.384 510.386L305.56 484.867L304.98 469.613L303.305 463.514L301.637 461.021ZM277.26 478.535L277.541 480.753L278.372 480.197L277.26 478.535ZM275.322 481.035C275.326 483.438 275.974 483.807 277.266 482.141L275.322 481.035ZM396.39 401.231L396.671 403.45L397.502 402.894L396.39 401.231ZM275.603 483.253L275.884 485.471L276.716 484.915L275.603 483.253ZM305.805 465.452L306.086 467.67L306.917 467.114L305.805 465.452ZM424.379 387.317L424.66 389.535L425.491 388.979L424.379 387.317ZM331.019 450.987L331.3 453.205L332.131 452.649L331.019 450.987ZM348.473 439.309L349.029 440.14L349.86 439.584L348.473 439.309ZM298.887 474.893L298.337 477.668L299.999 476.555L298.887 474.893ZM309.416 469.051L309.697 471.269L310.528 470.713L309.416 469.051ZM334.075 453.755L334.356 455.974L335.187 455.418L334.075 453.755ZM297.237 483.216C297.241 485.62 297.888 485.989 299.18 484.323L297.237 483.216ZM307.766 477.374L308.322 478.206L309.153 477.649L307.766 477.374ZM297.243 486.822L297.799 487.653L298.63 487.097L297.243 486.822ZM400.301 417.866L400.857 418.697L401.688 418.141L400.301 417.866ZM293.368 491.821L295.312 492.927C294.753 490.894 294.106 490.525 293.368 491.821ZM309.159 481.255L309.441 483.473L310.272 482.917L309.159 481.255ZM293.649 494.039L294.205 494.87L295.037 494.314L293.649 494.039ZM348.24 465.935L348.796 466.766L349.627 466.21L348.24 465.935ZM361.263 458.425L361.819 459.256L362.65 458.7L361.263 458.425ZM292.836 505.412L293.117 507.63L293.949 507.074L292.836 505.412ZM366.262 462.299L366.543 464.517L367.374 463.961L366.262 462.299ZM299.497 508.174L299.779 510.393L300.61 509.836L299.497 508.174ZM362.943 468.129L363.224 470.347L363.781 471.178L365.443 470.066L362.943 468.129ZM292.023 516.785L294.523 518.722L294.242 516.504L292.023 516.785ZM362.674 473.122L362.955 475.34L363.787 474.784L362.674 473.122ZM364.337 472.01C364.341 474.413 364.988 474.782 366.28 473.116L364.337 472.01ZM365.174 475.059L365.455 477.277L366.286 476.721L365.174 475.059ZM349.108 487.012L349.664 487.843L350.495 487.287L349.108 487.012ZM295.091 526.764L295.372 528.982L296.203 528.426L295.091 526.764ZM298.422 528.145L298.703 530.364L299.534 529.808L298.422 528.145ZM296.209 532.032L296.765 532.863L297.597 532.307L296.209 532.032ZM298.153 533.138L298.434 535.356L299.265 534.8L298.153 533.138ZM297.047 535.081L297.328 537.3L298.159 536.744L297.047 535.081ZM360.211 492.818L360.492 495.036L361.324 494.48L360.211 492.818ZM291.791 543.411L292.072 545.629L292.903 545.073L291.791 543.411ZM336.964 522.811L337.245 525.029L338.077 524.473L336.964 522.811ZM339.458 521.142L339.739 523.361L340.57 522.805L339.458 521.142ZM334.477 528.085L335.033 528.916L335.864 528.36L334.477 528.085ZM336.976 530.022L337.533 530.853L338.364 530.297L336.976 530.022ZM274.661 582.546L274.942 584.764L275.773 584.208L274.661 582.546ZM322.866 550.292L323.422 551.123L324.253 550.567L322.866 550.292ZM275.498 585.595L276.054 586.427L276.885 585.87L275.498 585.595ZM283.809 580.034L284.922 581.697L286.028 579.753L283.809 580.034ZM301.275 575.567L301.831 576.399L302.662 575.842L301.275 575.567ZM311.81 573.331L313.754 574.437C313.196 572.404 312.548 572.035 311.81 573.331ZM310.435 580.267L311.548 581.929L312.654 579.986L310.435 580.267ZM310.998 584.704L311.554 585.535L312.385 584.979L310.998 584.704ZM303.596 636.581L304.152 637.412L304.984 636.856L303.596 636.581Z" fill="#141414"/>
<path opacity="0.996078" d="M286.614 185.915L292.431 182.023L308.372 177.974L306.988 179.502C307.602 181.738 308.804 181.736 310.594 179.496C308.983 178.408 309.028 177.576 310.728 177L317.383 176.156L316.133 175.188C314.522 173.859 315.214 172.795 318.208 171.995L355.645 168.603L367.977 162.758L372.716 177.034L376.657 211.696L375.529 282.838L369.155 285.9L356.401 288.418C351.074 287.41 345.436 287.974 339.485 290.11L314.384 289.459L308.832 286.556L328.382 284.304L343.629 280.119L338.911 278.462C328.561 280.976 318.532 281.871 308.823 281.148L310.623 279.342L337.793 273.195L341.948 270.414C343.055 268.471 342.498 267.64 340.28 267.921L339.174 269.864L315.328 273.787L300.763 270.899L285.216 262.05L275.488 249.309L269.633 231.568L270.009 207.854L276.646 196.194L286.614 185.915ZM285.648 188.968L286.204 189.799L287.035 189.243L285.648 188.968ZM288.153 194.511L278.748 209.226C274.144 220.328 274.627 232.438 280.196 245.556L284.645 252.205L297.142 261.892L312.676 263.53L329.311 259.619L340.39 251.002L347.852 235.181L347.547 218.54L343.923 207.73L338.362 199.418L323.922 188.626C316.707 186.234 309.402 185.507 302.007 186.444L288.153 194.511ZM320.292 174.21L319.742 176.984L321.404 175.872L320.292 174.21ZM322.235 175.316L325.566 176.697L331.946 177.241L330.834 175.579L322.235 175.316ZM333.052 175.298L333.608 176.129L335.27 175.017L333.052 175.298ZM270.999 219.224L271.28 221.442L272.111 220.886L270.999 219.224ZM333.333 177.516L334.445 179.178L337.495 178.341L339.157 177.229L340.819 176.117L333.333 177.516ZM340.819 176.117C341.377 178.15 342.302 178.333 343.594 176.667C343.035 174.634 342.111 174.451 340.819 176.117ZM339.713 178.06L340.269 178.891L341.1 178.335L339.713 178.06ZM341.937 181.385L343.05 183.047L344.156 181.104L341.937 181.385ZM344.987 180.547L346.099 182.21L356.36 181.36L357.191 180.804L347.48 178.879L344.987 180.547ZM357.454 172.206L359.397 173.312C358.839 171.279 358.191 170.91 357.454 172.206ZM361.609 169.425L361.89 171.644L362.721 171.088L361.609 169.425ZM356.904 174.98L357.46 175.812L358.291 175.255L356.904 174.98ZM348.042 183.316L348.323 185.534L349.155 184.978L348.042 183.316ZM368.82 169.413L369.657 172.463L370.489 171.907L368.82 169.413ZM358.022 180.248C358.026 182.652 358.674 183.021 359.965 181.354L358.022 180.248ZM342.793 195.251L342.243 198.025L343.905 196.913L342.793 195.251ZM347.779 191.914L350.004 195.239L358.877 194.114L357.765 192.452L351.385 191.908C350.827 189.875 349.625 189.877 347.779 191.914ZM358.584 184.685L359.977 188.565L360.808 188.009L358.584 184.685ZM364.689 186.616L365.526 189.665L367.188 188.553L364.689 186.616ZM347.798 202.731L348.079 204.949L348.91 204.393L347.798 202.731ZM354.447 198.282L354.178 203.275L355.284 201.331L357.502 201.05L356.665 198.001L354.447 198.282ZM365.532 193.271C367.94 195.671 368.406 198.166 366.932 200.757L368.594 199.645L368.307 193.821C367.748 191.788 366.824 191.605 365.532 193.271ZM361.383 199.657L363.326 200.763L364.432 198.82L361.383 199.657ZM363.051 202.15L364.994 203.257C364.436 201.224 363.788 200.855 363.051 202.15ZM283.82 256.367L284.101 258.585L284.932 258.029L283.82 256.367ZM354.465 209.099L358.351 211.311L359.733 207.98C358.066 206.689 356.31 207.062 354.465 209.099ZM353.084 212.429L353.921 215.479L354.752 214.923L353.084 212.429ZM363.057 205.756L363.338 207.974L364.169 207.418L363.057 205.756ZM368.875 201.863L370.054 243.187L367.841 247.073L369.51 249.566L368.972 259.552L366.203 262.608L367.866 261.495L368.165 274.53L369.552 274.805L372.26 235.694L369.987 203.526L368.875 201.863ZM353.646 216.866L354.202 217.697L355.864 216.585L353.646 216.866ZM356.145 218.803L356.701 219.634L357.532 219.078L356.145 218.803ZM355.595 221.577L356.707 223.24L357.813 221.296L355.595 221.577ZM360.582 218.241L360.032 221.015L361.694 219.903L360.582 218.241ZM359.757 222.403L360.313 223.234L361.144 222.678L359.757 222.403ZM299.647 267.434L300.204 268.266L301.035 267.709L299.647 267.434ZM353.67 231.288L353.951 233.506L354.782 232.95L353.67 231.288ZM306.302 266.591L309.077 267.141C308.519 265.108 307.594 264.925 306.302 266.591ZM307.14 269.641L307.696 270.472L308.527 269.916L307.14 269.641ZM358.394 236.55L358.95 237.381L359.781 236.825L358.394 236.55ZM366.986 233.207L367.267 235.425L368.098 234.869L366.986 233.207ZM358.4 240.155L360.343 241.261C359.785 239.228 359.137 238.86 358.4 240.155ZM366.161 237.369L367.273 239.031L368.379 237.088L366.161 237.369ZM356.744 244.873L354.269 257.358L355.656 257.633L353.444 261.52L353.725 263.738L356.493 260.682L357.868 253.746L356.481 253.471L358.137 248.754L357.3 245.704L359.793 244.036L356.744 244.873ZM364.224 239.868L364.78 240.699L365.611 240.143L364.224 239.868ZM362.843 243.199L363.124 245.417L363.955 244.861L362.843 243.199ZM333.479 264.049C333.483 266.453 334.13 266.822 335.422 265.155L333.479 264.049ZM360.074 246.254L362.018 247.36C361.459 245.327 360.812 244.959 360.074 246.254ZM331.541 266.549L331.822 268.767L332.654 268.211L331.541 266.549ZM360.355 248.472L360.911 249.304L361.743 248.748L360.355 248.472ZM351.769 255.421L350.394 262.357L347.901 264.025L350.956 266.793L353.994 258.745L351.769 255.421ZM359.249 250.416L359.805 251.247L360.636 250.691L359.249 250.416ZM344.02 265.418L344.301 267.637L345.132 267.081L344.02 265.418ZM362.03 254.571L363.973 255.678C363.415 253.645 362.767 253.276 362.03 254.571ZM348.182 266.243L348.463 268.462L349.294 267.906L348.182 266.243ZM355.387 262.626L355.393 266.231L356.774 262.901L355.387 262.626ZM362.036 258.177L362.592 259.008L363.423 258.452L362.036 258.177ZM359.267 261.232L358.717 264.007L360.38 262.895L359.267 261.232ZM349.019 269.293L349.3 271.511L348.194 273.454L350.687 271.786L349.019 269.293ZM366.472 257.615L366.754 259.833L367.585 259.277L366.472 257.615ZM341.82 276.516L342.101 278.734L345.426 276.51L341.82 276.516ZM358.442 265.394L358.998 266.225L359.83 265.669L358.442 265.394ZM346.532 274.567L347.644 276.229L348.75 274.286L346.532 274.567ZM362.879 264.832L363.16 267.05L363.991 266.494L362.879 264.832ZM364.541 263.72L365.097 264.551L365.928 263.995L364.541 263.72ZM353.462 272.336L354.018 273.167L354.849 272.611L353.462 272.336ZM352.912 275.111L352.362 277.885L354.855 276.217C354.297 274.184 353.649 273.815 352.912 275.111ZM352.368 281.491L352.649 283.709L353.48 283.153L352.368 281.491ZM368.721 275.361L369.002 277.58L369.833 277.024L368.721 275.361ZM355.979 285.09C355.983 287.494 356.631 287.863 357.923 286.196L355.979 285.09Z" fill="#141414"/>
<path opacity="0.996078" d="M293.012 197.276L303.541 191.434L316.161 191.413L327.817 196.247L336.159 208.713C339.874 218.821 340.398 228.296 337.732 237.139L334.139 244.356L323.89 252.417L316.96 254.647L302.954 254.393L299.345 252.597L293.24 250.665L284.343 237.368L281.843 235.43L279.604 223.092C281.507 222.701 281.783 221.914 280.432 220.733L283.6 208.386L293.012 197.276ZM290.677 210.87L288.752 220.581L289.864 222.243L292.895 210.589L290.677 210.87ZM301.207 205.028L301.488 207.246L302.319 206.69L301.207 205.028ZM295.951 213.357L296.507 214.188L297.338 213.632L295.951 213.357ZM303.987 209.184L297.35 220.843L294.887 240.539C296.187 243.681 298.224 245.526 300.998 246.076C302.294 246.814 303.864 246.164 305.71 244.127L300.986 238.865L307.641 238.022L306.798 231.367L311.51 229.417L309.566 228.311C307.9 227.02 308.637 225.724 311.778 224.425L309.004 223.875C307.338 222.583 307.521 221.658 309.554 221.1L311.216 219.988L315.647 215.82L306.217 216.114L308.705 210.84C312.954 208.799 315.539 206.668 316.46 204.448C312.944 202.789 308.786 204.368 303.987 209.184ZM290.145 224.461L290.701 225.292L291.532 224.736L290.145 224.461ZM318.403 205.554L318.684 207.772L319.515 207.216L318.403 205.554ZM314.804 209.165L316.191 209.44L317.578 209.715C317.02 207.682 316.095 207.499 314.804 209.165ZM291.82 230.56L292.101 232.778L292.932 232.222L291.82 230.56ZM286.839 237.502L287.676 240.552L288.507 239.995L286.839 237.502ZM331.181 217.458L332.018 220.508L332.85 219.952L331.181 217.458ZM295.73 247.194L296.012 249.413L296.843 248.857L295.73 247.194ZM305.704 240.521L306.26 241.352L307.091 240.796L305.704 240.521ZM298.78 246.357L299.336 247.188L300.167 246.632L298.78 246.357Z" fill="#141414"/>
<path opacity="0.996078" d="M342.683 212.169L343.932 213.138L345.607 219.237L344.387 236.296L343.006 239.626L341.756 238.658C343.961 230.204 344.27 221.375 342.683 212.169Z" fill="#141414"/>
<path opacity="0.996078" d="M294.08 255.518C295.168 253.907 296.001 253.952 296.577 255.652L306.29 259.38L316.273 258.115L315.304 259.365C310.389 261.13 305.813 261.183 301.576 259.526L294.08 255.518Z" fill="#141414"/>
<path opacity="0.996078" d="M260.753 476.344L262.696 477.45L263.665 476.2L262.329 506.572L257.776 520.447L256.527 519.479L257.627 513.93C255.952 507.831 255.665 502.007 256.765 496.458L258.547 483.836L260.753 476.344Z" fill="#141414"/>
<path opacity="0.996078" d="M269.675 504.064L270.925 505.033L270.375 507.807L273.161 515.568L274.405 512.931L276.342 510.432L278.698 509.457L271.972 550.655L268.116 566.471L266.454 567.583L266.31 564.671L265.198 563.009L265.718 542.206L269.675 504.064ZM274.277 519.033L274.833 519.864L275.664 519.308L274.277 519.033Z" fill="#141414"/>
<path opacity="0.996078" d="M334.282 494.525C335.702 492.692 336.673 492.644 337.194 494.381L336.237 502.842L334.712 503.261L334.282 494.525Z" fill="#141414"/>
<path opacity="0.996078" d="M321.265 505.642L323.071 507.441L323.352 509.66L325.289 507.16L317.983 533.105L315.221 539.766L312.727 541.434L308.303 549.207L308.022 546.989L321.265 505.642ZM321.136 511.744L322.249 513.406L323.355 511.462L321.136 511.744Z" fill="#141414"/>
<path opacity="0.996078" d="M354.552 508.636L354.696 511.548C355.992 512.526 355.854 513.219 354.283 513.629L354.289 517.234L355.67 513.904L355.814 516.816L356.654 521.668L354.857 525.276L353.195 526.389L351.396 528.194L355.276 526.801C352.71 540.47 346.769 553.469 337.453 565.799L337.171 563.58C338.742 563.171 338.88 562.477 337.584 561.5L339.922 549.708C346.556 536.366 351.432 522.675 354.552 508.636ZM352.493 520.843L352.774 523.061L353.605 522.505L352.493 520.843ZM349.461 532.497L349.742 534.715L350.573 534.159L349.461 532.497ZM344.218 548.037L346.161 549.143L347.267 547.2L344.218 548.037Z" fill="#141414"/>
<path opacity="0.996078" d="M329.96 563.593L331.485 563.174L330.101 564.702L330.941 569.554L327.784 589.113L321.569 604.1C319.206 595.414 319.793 587 323.33 578.858L329.96 563.593Z" fill="#141414"/>
<path opacity="0.996078" d="M286.222 613.312L289.278 616.081L290.246 614.831L291.921 620.93L293.063 640.62L291.832 650.468L290.582 649.499C286.493 636.914 285.04 624.852 286.222 613.312Z" fill="#141414"/>
</svg>
