<svg width="596" height="842" viewBox="0 0 596 842" fill="none" xmlns="http://www.w3.org/2000/svg">
<rect x="0.5" y="0.5" width="594.276" height="840.89" fill="url(#paint0_linear_520_66997)"/>
<rect x="0.5" y="0.5" width="594.276" height="840.89" stroke="#00033A"/>
<g clip-path="url(#clip0_520_66997)">
<circle cx="180.448" cy="687.244" r="0.554438" fill="white" fill-opacity="0.56"/>
<circle cx="567.934" cy="375.277" r="0.79376" fill="white" fill-opacity="0.56"/>
<circle cx="5.00245" cy="702.621" r="0.883183" fill="white" fill-opacity="0.56"/>
<circle cx="116.855" cy="766.177" r="0.861199" fill="white" fill-opacity="0.56"/>
<circle cx="436.722" cy="210.949" r="0.52532" fill="white" fill-opacity="0.56"/>
<circle cx="159.439" cy="756.884" r="0.859539" fill="white" fill-opacity="0.56"/>
<circle cx="143.61" cy="43.9918" r="0.613364" fill="white" fill-opacity="0.56"/>
<circle cx="376.518" cy="320.444" r="0.699205" fill="white" fill-opacity="0.56"/>
<circle cx="576.955" cy="592.056" r="0.960647" fill="white" fill-opacity="0.56"/>
<circle cx="541.688" cy="807.706" r="0.685889" fill="white" fill-opacity="0.56"/>
<circle cx="565.823" cy="316.634" r="0.919992" fill="white" fill-opacity="0.56"/>
<circle cx="266.638" cy="400.634" r="0.577011" fill="white" fill-opacity="0.56"/>
<circle cx="150.774" cy="66.7849" r="0.787829" fill="white" fill-opacity="0.56"/>
<circle cx="440.684" cy="300.503" r="0.536967" fill="white" fill-opacity="0.56"/>
<circle cx="311.933" cy="287.165" r="0.653586" fill="white" fill-opacity="0.56"/>
<circle cx="134.326" cy="208.043" r="0.740308" fill="white" fill-opacity="0.56"/>
<circle cx="573.582" cy="200.748" r="0.692988" fill="white" fill-opacity="0.56"/>
<circle cx="327.867" cy="189.647" r="0.645118" fill="white" fill-opacity="0.56"/>
<circle cx="417.286" cy="121.528" r="0.851409" fill="white" fill-opacity="0.56"/>
<circle cx="296.872" cy="809.012" r="0.673953" fill="white" fill-opacity="0.56"/>
<circle cx="325.111" cy="549.754" r="0.988325" fill="white" fill-opacity="0.56"/>
<circle cx="578.079" cy="379.269" r="0.754675" fill="white" fill-opacity="0.56"/>
<circle cx="294.874" cy="783.286" r="0.685651" fill="white" fill-opacity="0.56"/>
<circle cx="31.1191" cy="272.388" r="0.774222" fill="white" fill-opacity="0.56"/>
<circle cx="388.3" cy="670.112" r="0.983433" fill="white" fill-opacity="0.56"/>
<circle cx="588.903" cy="446.434" r="0.776178" fill="white" fill-opacity="0.56"/>
<circle cx="406.145" cy="509.948" r="0.977266" fill="white" fill-opacity="0.56"/>
<circle cx="195.243" cy="36.4473" r="0.604021" fill="white" fill-opacity="0.56"/>
<circle cx="78.3145" cy="405.166" r="0.595766" fill="white" fill-opacity="0.56"/>
<circle cx="559.421" cy="540.039" r="0.863752" fill="white" fill-opacity="0.56"/>
<circle cx="51.5152" cy="244.862" r="0.575625" fill="white" fill-opacity="0.56"/>
<circle cx="472.563" cy="163.419" r="0.904657" fill="white" fill-opacity="0.56"/>
<circle cx="527.666" cy="142.708" r="0.759101" fill="white" fill-opacity="0.56"/>
<circle cx="573.28" cy="205.465" r="0.563137" fill="white" fill-opacity="0.56"/>
<circle cx="366.201" cy="529.584" r="0.529334" fill="white" fill-opacity="0.56"/>
<circle cx="44.7404" cy="795.638" r="0.590625" fill="white" fill-opacity="0.56"/>
<circle cx="68.0945" cy="7.49429" r="0.826323" fill="white" fill-opacity="0.56"/>
<circle cx="491.334" cy="259.5" r="0.956357" fill="white" fill-opacity="0.56"/>
<circle cx="442.001" cy="86.9622" r="0.55791" fill="white" fill-opacity="0.56"/>
<circle cx="94.5741" cy="726.88" r="0.73109" fill="white" fill-opacity="0.56"/>
<circle cx="108.643" cy="29.7064" r="0.867059" fill="white" fill-opacity="0.56"/>
<circle cx="328.364" cy="204.551" r="0.75288" fill="white" fill-opacity="0.56"/>
<circle cx="456.891" cy="839.17" r="0.698106" fill="white" fill-opacity="0.56"/>
<circle cx="248.584" cy="79.2424" r="0.581752" fill="white" fill-opacity="0.56"/>
<circle cx="11.1163" cy="17.6609" r="0.638976" fill="white" fill-opacity="0.56"/>
<circle cx="541.172" cy="24.1106" r="0.567191" fill="white" fill-opacity="0.56"/>
<circle cx="396.992" cy="545.292" r="0.973329" fill="white" fill-opacity="0.56"/>
<circle cx="232.731" cy="267.324" r="0.704289" fill="white" fill-opacity="0.56"/>
<circle cx="30.5672" cy="704.721" r="0.709122" fill="white" fill-opacity="0.56"/>
<circle cx="182.089" cy="46.7808" r="0.936063" fill="white" fill-opacity="0.56"/>
<circle cx="465.377" cy="162.249" r="0.705029" fill="white" fill-opacity="0.56"/>
<circle cx="178.884" cy="625.788" r="0.598784" fill="white" fill-opacity="0.56"/>
<circle cx="56.6668" cy="615.233" r="0.540693" fill="white" fill-opacity="0.56"/>
<circle cx="375.57" cy="88.4228" r="0.553137" fill="white" fill-opacity="0.56"/>
<circle cx="339.916" cy="702.815" r="0.711011" fill="white" fill-opacity="0.56"/>
<circle cx="489.797" cy="801.366" r="0.762357" fill="white" fill-opacity="0.56"/>
<circle cx="261.281" cy="681.983" r="0.63375" fill="white" fill-opacity="0.56"/>
<circle cx="553.821" cy="181.201" r="0.521758" fill="white" fill-opacity="0.56"/>
<circle cx="338.351" cy="768.398" r="0.685889" fill="white" fill-opacity="0.56"/>
<circle cx="142.048" cy="737.234" r="0.848428" fill="white" fill-opacity="0.56"/>
<circle cx="68.8677" cy="788.864" r="0.699521" fill="white" fill-opacity="0.56"/>
<circle cx="281.415" cy="35.4738" r="0.787316" fill="white" fill-opacity="0.56"/>
<circle cx="100.718" cy="575.048" r="0.989301" fill="white" fill-opacity="0.56"/>
<circle cx="229.687" cy="697.439" r="0.632115" fill="white" fill-opacity="0.56"/>
<circle cx="558.498" cy="265.709" r="0.897076" fill="white" fill-opacity="0.56"/>
<circle cx="379.545" cy="832.313" r="0.971102" fill="white" fill-opacity="0.56"/>
<circle cx="513.038" cy="735.273" r="0.988997" fill="white" fill-opacity="0.56"/>
<circle cx="116.963" cy="85.8222" r="0.782117" fill="white" fill-opacity="0.56"/>
<circle cx="135.969" cy="617.78" r="0.52156" fill="white" fill-opacity="0.56"/>
<circle cx="245.168" cy="359.9" r="0.820025" fill="white" fill-opacity="0.56"/>
<circle cx="490.242" cy="605.419" r="0.616978" fill="white" fill-opacity="0.56"/>
<circle cx="563.387" cy="525.728" r="0.800953" fill="white" fill-opacity="0.56"/>
<circle cx="315.138" cy="470.047" r="0.619208" fill="white" fill-opacity="0.56"/>
<circle cx="47.3904" cy="277.557" r="0.773376" fill="white" fill-opacity="0.56"/>
<circle cx="539.612" cy="787.199" r="0.772281" fill="white" fill-opacity="0.56"/>
<circle cx="129.404" cy="209.433" r="0.958227" fill="white" fill-opacity="0.56"/>
<circle cx="89.6454" cy="180.688" r="0.518314" fill="white" fill-opacity="0.56"/>
<circle cx="348.93" cy="184.771" r="0.605079" fill="white" fill-opacity="0.56"/>
<circle cx="74.5382" cy="463.499" r="0.993196" fill="white" fill-opacity="0.56"/>
<circle cx="375.525" cy="547.561" r="0.924122" fill="white" fill-opacity="0.56"/>
<circle cx="291.958" cy="92.9208" r="0.538946" fill="white" fill-opacity="0.56"/>
<circle cx="374.276" cy="118.668" r="0.646339" fill="white" fill-opacity="0.56"/>
<circle cx="140.969" cy="378.996" r="0.95778" fill="white" fill-opacity="0.56"/>
<circle cx="90.5748" cy="51.4452" r="0.698127" fill="white" fill-opacity="0.56"/>
<circle cx="359.941" cy="165.832" r="0.893557" fill="white" fill-opacity="0.56"/>
<circle cx="433.244" cy="26.0962" r="0.854983" fill="white" fill-opacity="0.56"/>
<circle cx="163.874" cy="69.1003" r="0.666692" fill="white" fill-opacity="0.56"/>
<circle cx="228.139" cy="646.594" r="0.508454" fill="white" fill-opacity="0.56"/>
<circle cx="296.834" cy="31.5848" r="0.610702" fill="white" fill-opacity="0.56"/>
<circle cx="67.4866" cy="656.528" r="0.826236" fill="white" fill-opacity="0.56"/>
<circle cx="202.999" cy="779.819" r="0.760425" fill="white" fill-opacity="0.56"/>
<circle cx="341.39" cy="170.489" r="0.708079" fill="white" fill-opacity="0.56"/>
<circle cx="278.833" cy="41.0016" r="0.91758" fill="white" fill-opacity="0.56"/>
<circle cx="407.469" cy="41.8352" r="0.713128" fill="white" fill-opacity="0.56"/>
<circle cx="67.1302" cy="665.949" r="0.571585" fill="white" fill-opacity="0.56"/>
<circle cx="337.716" cy="387.163" r="0.609026" fill="white" fill-opacity="0.56"/>
<circle cx="80.1341" cy="4.23407" r="0.870296" fill="white" fill-opacity="0.56"/>
<circle cx="508.411" cy="323.296" r="0.831118" fill="white" fill-opacity="0.56"/>
<circle cx="111.287" cy="589.119" r="0.531727" fill="white" fill-opacity="0.56"/>
<circle cx="414.298" cy="497.454" r="0.982844" fill="white" fill-opacity="0.56"/>
<circle cx="11.3467" cy="189.418" r="0.509299" fill="white" fill-opacity="0.56"/>
<circle cx="206.683" cy="222.45" r="0.699987" fill="white" fill-opacity="0.56"/>
<circle cx="379.191" cy="467.44" r="0.654407" fill="white" fill-opacity="0.56"/>
<circle cx="476.31" cy="144.838" r="0.957056" fill="white" fill-opacity="0.56"/>
<circle cx="197.054" cy="652.107" r="0.840788" fill="white" fill-opacity="0.56"/>
<circle cx="109.401" cy="252.713" r="0.921913" fill="white" fill-opacity="0.56"/>
<circle cx="384.204" cy="460.134" r="0.775895" fill="white" fill-opacity="0.56"/>
<circle cx="394.658" cy="443.085" r="0.95503" fill="white" fill-opacity="0.56"/>
<circle cx="29.1739" cy="359.349" r="0.506995" fill="white" fill-opacity="0.56"/>
<circle cx="593.438" cy="421.85" r="0.6521" fill="white" fill-opacity="0.56"/>
<circle cx="17.0328" cy="548.25" r="0.519507" fill="white" fill-opacity="0.56"/>
<circle cx="2.94719" cy="345.387" r="0.883102" fill="white" fill-opacity="0.56"/>
<circle cx="281.888" cy="46.4281" r="0.737175" fill="white" fill-opacity="0.56"/>
<circle cx="124.086" cy="829.477" r="0.989003" fill="white" fill-opacity="0.56"/>
<circle cx="436.034" cy="36.6262" r="0.632514" fill="white" fill-opacity="0.56"/>
<circle cx="354.481" cy="805.457" r="0.724386" fill="white" fill-opacity="0.56"/>
<circle cx="63.1561" cy="48.9064" r="0.972852" fill="white" fill-opacity="0.56"/>
<circle cx="169.658" cy="353.901" r="0.79835" fill="white" fill-opacity="0.56"/>
<circle cx="358.26" cy="91.7311" r="0.738406" fill="white" fill-opacity="0.56"/>
<circle cx="144.75" cy="318.7" r="0.938779" fill="white" fill-opacity="0.56"/>
<circle cx="30.9843" cy="659.565" r="0.63436" fill="white" fill-opacity="0.56"/>
<circle cx="449.628" cy="521.685" r="0.833416" fill="white" fill-opacity="0.56"/>
<circle cx="377.041" cy="321.679" r="0.569174" fill="white" fill-opacity="0.56"/>
<circle cx="531.704" cy="609.493" r="0.664563" fill="white" fill-opacity="0.56"/>
<circle cx="434.887" cy="726.413" r="0.601981" fill="white" fill-opacity="0.56"/>
<circle cx="464.346" cy="167.434" r="0.769831" fill="white" fill-opacity="0.56"/>
<circle cx="502.337" cy="614.924" r="0.937267" fill="white" fill-opacity="0.56"/>
<circle cx="104.238" cy="281.525" r="0.696892" fill="white" fill-opacity="0.56"/>
<circle cx="512.061" cy="488.552" r="0.578835" fill="white" fill-opacity="0.56"/>
<circle cx="362.883" cy="408.347" r="0.787766" fill="white" fill-opacity="0.56"/>
<circle cx="553.124" cy="206.741" r="0.526038" fill="white" fill-opacity="0.56"/>
<circle cx="335.02" cy="359.714" r="0.775033" fill="white" fill-opacity="0.56"/>
<circle cx="58.4038" cy="515.536" r="0.727407" fill="white" fill-opacity="0.56"/>
<circle cx="212.143" cy="760.208" r="0.965117" fill="white" fill-opacity="0.56"/>
<circle cx="454.253" cy="125.163" r="0.842759" fill="white" fill-opacity="0.56"/>
<circle cx="206.816" cy="231.054" r="0.555538" fill="white" fill-opacity="0.56"/>
<circle cx="513.89" cy="458.558" r="0.984712" fill="white" fill-opacity="0.56"/>
<circle cx="284.369" cy="424.158" r="0.774621" fill="white" fill-opacity="0.56"/>
<circle cx="341.383" cy="459.798" r="0.987211" fill="white" fill-opacity="0.56"/>
<circle cx="532.655" cy="557.65" r="0.756734" fill="white" fill-opacity="0.56"/>
<circle cx="9.34318" cy="161.315" r="0.551802" fill="white" fill-opacity="0.56"/>
<circle cx="39.5743" cy="695.994" r="0.66564" fill="white" fill-opacity="0.56"/>
<circle cx="125.195" cy="106.814" r="0.981826" fill="white" fill-opacity="0.56"/>
<circle cx="43.4771" cy="712.247" r="0.895998" fill="white" fill-opacity="0.56"/>
<circle cx="302.399" cy="761.984" r="0.930692" fill="white" fill-opacity="0.56"/>
<circle cx="384.935" cy="405.114" r="0.598561" fill="white" fill-opacity="0.56"/>
<circle cx="423.394" cy="663.962" r="0.879715" fill="white" fill-opacity="0.56"/>
<circle cx="453.166" cy="463.241" r="0.963866" fill="white" fill-opacity="0.56"/>
<circle cx="228.243" cy="387.82" r="0.803327" fill="white" fill-opacity="0.56"/>
<circle cx="553.917" cy="345.768" r="0.582488" fill="white" fill-opacity="0.56"/>
<circle cx="508.239" cy="106.926" r="0.968975" fill="white" fill-opacity="0.56"/>
<circle cx="140.116" cy="233.515" r="0.893477" fill="white" fill-opacity="0.56"/>
<circle cx="412.407" cy="733.389" r="0.681243" fill="white" fill-opacity="0.56"/>
<circle cx="69.0511" cy="273.875" r="0.60949" fill="white" fill-opacity="0.56"/>
<circle cx="60.5463" cy="127.514" r="0.781811" fill="white" fill-opacity="0.56"/>
<circle cx="413.529" cy="482.113" r="0.697133" fill="white" fill-opacity="0.56"/>
<circle cx="175.636" cy="633.572" r="0.714945" fill="white" fill-opacity="0.56"/>
<circle cx="11.4423" cy="482.038" r="0.877888" fill="white" fill-opacity="0.56"/>
<circle cx="343.657" cy="196.689" r="0.590853" fill="white" fill-opacity="0.56"/>
<circle cx="443.793" cy="224.958" r="0.748669" fill="white" fill-opacity="0.56"/>
<circle cx="357.91" cy="746.479" r="0.97165" fill="white" fill-opacity="0.56"/>
<circle cx="472.656" cy="463.724" r="0.705159" fill="white" fill-opacity="0.56"/>
<circle cx="443.969" cy="115.516" r="0.751748" fill="white" fill-opacity="0.56"/>
<circle cx="162.941" cy="651.234" r="0.567226" fill="white" fill-opacity="0.56"/>
<circle cx="424.325" cy="447.113" r="0.610976" fill="white" fill-opacity="0.56"/>
<circle cx="430.628" cy="832.768" r="0.894718" fill="white" fill-opacity="0.56"/>
<circle cx="488.032" cy="264.199" r="0.838457" fill="white" fill-opacity="0.56"/>
<circle cx="59.3945" cy="310.034" r="0.927548" fill="white" fill-opacity="0.56"/>
<circle cx="567.283" cy="152.162" r="0.782288" fill="white" fill-opacity="0.56"/>
<circle cx="264.842" cy="723.398" r="0.993961" fill="white" fill-opacity="0.56"/>
<circle cx="28.531" cy="377.831" r="0.884188" fill="white" fill-opacity="0.56"/>
<circle cx="275.121" cy="512.179" r="0.838529" fill="white" fill-opacity="0.56"/>
<circle cx="42.5993" cy="446.207" r="0.622137" fill="white" fill-opacity="0.56"/>
<circle cx="169.882" cy="384.243" r="0.71236" fill="white" fill-opacity="0.56"/>
<circle cx="341.384" cy="184.611" r="0.660274" fill="white" fill-opacity="0.56"/>
<circle cx="151.674" cy="357.45" r="0.664891" fill="white" fill-opacity="0.56"/>
<circle cx="162.759" cy="735.16" r="0.915148" fill="white" fill-opacity="0.56"/>
<circle cx="271.771" cy="771.807" r="0.773591" fill="white" fill-opacity="0.56"/>
<circle cx="95.8675" cy="121.682" r="0.79137" fill="white" fill-opacity="0.56"/>
<circle cx="355.2" cy="308.453" r="0.901084" fill="white" fill-opacity="0.56"/>
<circle cx="145.396" cy="369.957" r="0.731584" fill="white" fill-opacity="0.56"/>
<circle cx="191.098" cy="135.039" r="0.633839" fill="white" fill-opacity="0.56"/>
<circle cx="488.457" cy="384.54" r="0.931733" fill="white" fill-opacity="0.56"/>
<circle cx="302.327" cy="505.968" r="0.869373" fill="white" fill-opacity="0.56"/>
<circle cx="511.889" cy="675.142" r="0.871676" fill="white" fill-opacity="0.56"/>
<circle cx="573.307" cy="271.421" r="0.572842" fill="white" fill-opacity="0.56"/>
<circle cx="182.188" cy="292.416" r="0.534731" fill="white" fill-opacity="0.56"/>
<circle cx="49.9663" cy="377.938" r="0.597738" fill="white" fill-opacity="0.56"/>
<circle cx="192.304" cy="582.196" r="0.586753" fill="white" fill-opacity="0.56"/>
<circle cx="96.6386" cy="544.477" r="0.826718" fill="white" fill-opacity="0.56"/>
<circle cx="221.821" cy="47.385" r="0.961706" fill="white" fill-opacity="0.56"/>
<circle cx="381.755" cy="59.76" r="0.931847" fill="white" fill-opacity="0.56"/>
<circle cx="73.4753" cy="809.284" r="0.731816" fill="white" fill-opacity="0.56"/>
<circle cx="458.462" cy="403.918" r="0.666715" fill="white" fill-opacity="0.56"/>
<circle cx="10.9044" cy="544.372" r="0.736782" fill="white" fill-opacity="0.56"/>
<circle cx="81.7016" cy="157.605" r="0.825212" fill="white" fill-opacity="0.56"/>
<circle cx="358.117" cy="456.045" r="0.871045" fill="white" fill-opacity="0.56"/>
<circle cx="571.367" cy="707.313" r="0.974085" fill="white" fill-opacity="0.56"/>
<circle cx="47.7739" cy="220.223" r="0.835787" fill="white" fill-opacity="0.56"/>
<circle cx="447.498" cy="22.6387" r="0.510765" fill="white" fill-opacity="0.56"/>
<circle cx="552.151" cy="303.692" r="0.995341" fill="white" fill-opacity="0.56"/>
<circle cx="149.739" cy="755.62" r="0.555067" fill="white" fill-opacity="0.56"/>
<circle cx="223.278" cy="409.486" r="0.937065" fill="white" fill-opacity="0.56"/>
<circle cx="85.6107" cy="233.796" r="0.88663" fill="white" fill-opacity="0.56"/>
<circle cx="155.396" cy="382.017" r="0.841787" fill="white" fill-opacity="0.56"/>
<circle cx="464.222" cy="391.371" r="0.63223" fill="white" fill-opacity="0.56"/>
<circle cx="507.454" cy="58.046" r="0.663181" fill="white" fill-opacity="0.56"/>
<circle cx="438.657" cy="373.762" r="0.871728" fill="white" fill-opacity="0.56"/>
<circle cx="441.534" cy="39.6198" r="0.801964" fill="white" fill-opacity="0.56"/>
<circle cx="482.235" cy="318.961" r="0.621475" fill="white" fill-opacity="0.56"/>
<circle cx="430.779" cy="646.514" r="0.541668" fill="white" fill-opacity="0.56"/>
<circle cx="277.893" cy="415.522" r="0.814735" fill="white" fill-opacity="0.56"/>
<circle cx="495.825" cy="569.233" r="0.673464" fill="white" fill-opacity="0.56"/>
<circle cx="117.874" cy="65.6638" r="0.888385" fill="white" fill-opacity="0.56"/>
<circle cx="564.799" cy="381.207" r="0.860311" fill="white" fill-opacity="0.56"/>
<circle cx="418.372" cy="319.631" r="0.837591" fill="white" fill-opacity="0.56"/>
<circle cx="578.119" cy="638.581" r="0.715776" fill="white" fill-opacity="0.56"/>
<circle cx="179.163" cy="287.864" r="0.710839" fill="white" fill-opacity="0.56"/>
<circle cx="512.453" cy="166.204" r="0.80121" fill="white" fill-opacity="0.56"/>
<circle cx="343.271" cy="377.696" r="0.601274" fill="white" fill-opacity="0.56"/>
<circle cx="434.825" cy="566.215" r="0.513709" fill="white" fill-opacity="0.56"/>
<circle cx="240.572" cy="102.745" r="0.797828" fill="white" fill-opacity="0.56"/>
<circle cx="440.049" cy="520.157" r="0.799936" fill="white" fill-opacity="0.56"/>
<circle cx="93.6315" cy="618.286" r="0.530179" fill="white" fill-opacity="0.56"/>
<circle cx="491.424" cy="783.102" r="0.891918" fill="white" fill-opacity="0.56"/>
<circle cx="121.909" cy="524.837" r="0.895377" fill="white" fill-opacity="0.56"/>
<circle cx="270.764" cy="840.421" r="0.85055" fill="white" fill-opacity="0.56"/>
<circle cx="193.011" cy="550.946" r="0.555153" fill="white" fill-opacity="0.56"/>
<circle cx="348.596" cy="754.585" r="0.853813" fill="white" fill-opacity="0.56"/>
<circle cx="25.9475" cy="409.349" r="0.927189" fill="white" fill-opacity="0.56"/>
<circle cx="204.347" cy="244.078" r="0.961926" fill="white" fill-opacity="0.56"/>
<circle cx="579.298" cy="465.176" r="0.798543" fill="white" fill-opacity="0.56"/>
<circle cx="468.548" cy="395.383" r="0.622951" fill="white" fill-opacity="0.56"/>
<circle cx="144.144" cy="769.745" r="0.575004" fill="white" fill-opacity="0.56"/>
<circle cx="43.1075" cy="453.825" r="0.890546" fill="white" fill-opacity="0.56"/>
<circle cx="537.831" cy="716.801" r="0.807719" fill="white" fill-opacity="0.56"/>
<circle cx="482.409" cy="327.909" r="0.690124" fill="white" fill-opacity="0.56"/>
<circle cx="491.658" cy="177.563" r="0.877903" fill="white" fill-opacity="0.56"/>
<circle cx="506.785" cy="321.573" r="0.932714" fill="white" fill-opacity="0.56"/>
<circle cx="486.1" cy="92.0979" r="0.956273" fill="white" fill-opacity="0.56"/>
<circle cx="544.601" cy="513.588" r="0.632164" fill="white" fill-opacity="0.56"/>
<circle cx="515.359" cy="107.187" r="0.5073" fill="white" fill-opacity="0.56"/>
<circle cx="6.77071" cy="513.072" r="0.712604" fill="white" fill-opacity="0.56"/>
<circle cx="2.09633" cy="753.526" r="0.938614" fill="white" fill-opacity="0.56"/>
<circle cx="466.951" cy="607.104" r="0.920941" fill="white" fill-opacity="0.56"/>
<circle cx="161.766" cy="651.389" r="0.625976" fill="white" fill-opacity="0.56"/>
<circle cx="489.282" cy="39.7274" r="0.58779" fill="white" fill-opacity="0.56"/>
<circle cx="368.081" cy="84.5879" r="0.794888" fill="white" fill-opacity="0.56"/>
<circle cx="446.839" cy="169.309" r="0.697286" fill="white" fill-opacity="0.56"/>
<circle cx="201.492" cy="526.263" r="0.727657" fill="white" fill-opacity="0.56"/>
<circle cx="359.256" cy="562.686" r="0.789621" fill="white" fill-opacity="0.56"/>
<circle cx="114.808" cy="764.636" r="0.996208" fill="white" fill-opacity="0.56"/>
<circle cx="181.277" cy="190.765" r="0.838037" fill="white" fill-opacity="0.56"/>
<circle cx="139.051" cy="325.448" r="0.745846" fill="white" fill-opacity="0.56"/>
<circle cx="98.6137" cy="300.43" r="0.982462" fill="white" fill-opacity="0.56"/>
<circle cx="40.0061" cy="331.518" r="0.753314" fill="white" fill-opacity="0.56"/>
<circle cx="271.487" cy="9.37931" r="0.615151" fill="white" fill-opacity="0.56"/>
<circle cx="25.277" cy="146.229" r="0.84903" fill="white" fill-opacity="0.56"/>
<circle cx="206.672" cy="441.259" r="0.533906" fill="white" fill-opacity="0.56"/>
<circle cx="203.614" cy="26.454" r="0.916378" fill="white" fill-opacity="0.56"/>
<circle cx="105.72" cy="705.329" r="0.617105" fill="white" fill-opacity="0.56"/>
<circle cx="142.486" cy="218.998" r="0.547825" fill="white" fill-opacity="0.56"/>
<circle cx="56.3743" cy="268.452" r="0.853687" fill="white" fill-opacity="0.56"/>
<circle cx="303.727" cy="827.155" r="0.72242" fill="white" fill-opacity="0.56"/>
<circle cx="118.596" cy="424.579" r="0.934061" fill="white" fill-opacity="0.56"/>
<circle cx="15.42" cy="556.898" r="0.740636" fill="white" fill-opacity="0.56"/>
<circle cx="202.243" cy="217.232" r="0.906022" fill="white" fill-opacity="0.56"/>
<circle cx="595.418" cy="214.701" r="0.812832" fill="white" fill-opacity="0.56"/>
<circle cx="330.074" cy="650.42" r="0.60133" fill="white" fill-opacity="0.56"/>
<circle cx="289.054" cy="184.77" r="0.684919" fill="white" fill-opacity="0.56"/>
<circle cx="255.953" cy="250.026" r="0.973387" fill="white" fill-opacity="0.56"/>
<circle cx="215.801" cy="518.276" r="0.891601" fill="white" fill-opacity="0.56"/>
<circle cx="47.9013" cy="569.904" r="0.847625" fill="white" fill-opacity="0.56"/>
<circle cx="581.478" cy="518.452" r="0.851106" fill="white" fill-opacity="0.56"/>
<circle cx="318.217" cy="671.352" r="0.672483" fill="white" fill-opacity="0.56"/>
<circle cx="477.934" cy="277.205" r="0.78973" fill="white" fill-opacity="0.56"/>
<circle cx="34.1904" cy="834.332" r="0.671959" fill="white" fill-opacity="0.56"/>
<circle cx="436.247" cy="466.845" r="0.787216" fill="white" fill-opacity="0.56"/>
<circle cx="200.552" cy="824.486" r="0.665579" fill="white" fill-opacity="0.56"/>
<circle cx="153.156" cy="127.349" r="0.962139" fill="white" fill-opacity="0.56"/>
<circle cx="302.063" cy="85.5418" r="0.539875" fill="white" fill-opacity="0.56"/>
<circle cx="511.314" cy="799.091" r="0.890413" fill="white" fill-opacity="0.56"/>
<circle cx="25.4868" cy="109.929" r="0.720201" fill="white" fill-opacity="0.56"/>
<circle cx="302.728" cy="485.732" r="0.893248" fill="white" fill-opacity="0.56"/>
<circle cx="469.019" cy="115.596" r="0.79867" fill="white" fill-opacity="0.56"/>
<circle cx="519.955" cy="182.359" r="0.856041" fill="white" fill-opacity="0.56"/>
<circle cx="286.142" cy="177.419" r="0.703579" fill="white" fill-opacity="0.56"/>
<circle cx="569.718" cy="700.593" r="0.678207" fill="white" fill-opacity="0.56"/>
<circle cx="20.2998" cy="361.989" r="0.50231" fill="white" fill-opacity="0.56"/>
<circle cx="549.284" cy="277.17" r="0.613724" fill="white" fill-opacity="0.56"/>
<circle cx="257.31" cy="406.235" r="0.515344" fill="white" fill-opacity="0.56"/>
<circle cx="354.162" cy="4.93581" r="0.52761" fill="white" fill-opacity="0.56"/>
<circle cx="596.186" cy="202.765" r="0.911145" fill="white" fill-opacity="0.56"/>
<circle cx="525.744" cy="641.431" r="0.790042" fill="white" fill-opacity="0.56"/>
<circle cx="202.4" cy="287.199" r="0.817945" fill="white" fill-opacity="0.56"/>
<circle cx="512.064" cy="690.795" r="0.912682" fill="white" fill-opacity="0.56"/>
<circle cx="119.546" cy="519.379" r="0.768047" fill="white" fill-opacity="0.56"/>
<circle cx="90.8369" cy="260.714" r="0.816602" fill="white" fill-opacity="0.56"/>
<circle cx="574.226" cy="521.381" r="0.969474" fill="white" fill-opacity="0.56"/>
<circle cx="258.916" cy="250.157" r="0.994289" fill="white" fill-opacity="0.56"/>
<circle cx="283.41" cy="226.241" r="0.771402" fill="white" fill-opacity="0.56"/>
<circle cx="112.034" cy="400.967" r="0.688353" fill="white" fill-opacity="0.56"/>
<circle cx="120.294" cy="815.265" r="0.734103" fill="white" fill-opacity="0.56"/>
<circle cx="412.51" cy="784.712" r="0.998279" fill="white" fill-opacity="0.56"/>
<circle cx="569.59" cy="741.724" r="0.530889" fill="white" fill-opacity="0.56"/>
<circle cx="161.773" cy="668.968" r="0.989064" fill="white" fill-opacity="0.56"/>
<circle cx="536.391" cy="746.929" r="0.74264" fill="white" fill-opacity="0.56"/>
<circle cx="148.387" cy="754.326" r="0.639892" fill="white" fill-opacity="0.56"/>
<circle cx="430.924" cy="779.218" r="0.719971" fill="white" fill-opacity="0.56"/>
<circle cx="589.249" cy="321.483" r="0.980835" fill="white" fill-opacity="0.56"/>
<circle cx="51.5652" cy="753.324" r="0.933139" fill="white" fill-opacity="0.56"/>
<circle cx="325.415" cy="526.71" r="0.705426" fill="white" fill-opacity="0.56"/>
<circle cx="239.636" cy="139.083" r="0.943146" fill="white" fill-opacity="0.56"/>
<circle cx="369.841" cy="712.654" r="0.929687" fill="white" fill-opacity="0.56"/>
<circle cx="385.872" cy="530.059" r="0.792485" fill="white" fill-opacity="0.56"/>
<circle cx="208.415" cy="758.189" r="0.934107" fill="white" fill-opacity="0.56"/>
<circle cx="366.768" cy="764.319" r="0.953325" fill="white" fill-opacity="0.56"/>
<circle cx="344.883" cy="11.2987" r="0.596097" fill="white" fill-opacity="0.56"/>
<circle cx="296.735" cy="612.599" r="0.911379" fill="white" fill-opacity="0.56"/>
<circle cx="291.815" cy="205.808" r="0.917965" fill="white" fill-opacity="0.56"/>
<circle cx="221.781" cy="639.792" r="0.700681" fill="white" fill-opacity="0.56"/>
<circle cx="359.189" cy="705.728" r="0.784135" fill="white" fill-opacity="0.56"/>
<circle cx="595.707" cy="448.165" r="0.982342" fill="white" fill-opacity="0.56"/>
<circle cx="581.532" cy="160.043" r="0.652253" fill="white" fill-opacity="0.56"/>
<circle cx="117.21" cy="328.781" r="0.70189" fill="white" fill-opacity="0.56"/>
<circle cx="43.7811" cy="432.432" r="0.969213" fill="white" fill-opacity="0.56"/>
<circle cx="73.0471" cy="258.071" r="0.855739" fill="white" fill-opacity="0.56"/>
<circle cx="412.179" cy="524.952" r="0.580803" fill="white" fill-opacity="0.56"/>
<circle cx="587.421" cy="495.938" r="0.744079" fill="white" fill-opacity="0.56"/>
<circle cx="470.928" cy="135.307" r="0.717989" fill="white" fill-opacity="0.56"/>
<circle cx="6.95388" cy="263.692" r="0.601583" fill="white" fill-opacity="0.56"/>
<circle cx="212.514" cy="459.698" r="0.892856" fill="white" fill-opacity="0.56"/>
<circle cx="517.016" cy="529.551" r="0.641224" fill="white" fill-opacity="0.56"/>
<circle cx="448.663" cy="715.742" r="0.720909" fill="white" fill-opacity="0.56"/>
<circle cx="510.282" cy="21.6" r="0.686435" fill="white" fill-opacity="0.56"/>
<circle cx="400.188" cy="747.258" r="0.852154" fill="white" fill-opacity="0.56"/>
<circle cx="114.015" cy="582.874" r="0.74965" fill="white" fill-opacity="0.56"/>
<circle cx="297.328" cy="606.817" r="0.920745" fill="white" fill-opacity="0.56"/>
<circle cx="342.621" cy="71.3558" r="0.713742" fill="white" fill-opacity="0.56"/>
<circle cx="53.2831" cy="681.584" r="0.651839" fill="white" fill-opacity="0.56"/>
<circle cx="531.53" cy="219.255" r="0.631494" fill="white" fill-opacity="0.56"/>
<circle cx="149.707" cy="197.896" r="0.769419" fill="white" fill-opacity="0.56"/>
<circle cx="46.677" cy="375.661" r="0.674829" fill="white" fill-opacity="0.56"/>
<circle cx="62.6268" cy="334.433" r="0.503491" fill="white" fill-opacity="0.56"/>
<circle cx="316.597" cy="560.468" r="0.855054" fill="white" fill-opacity="0.56"/>
<circle cx="218.613" cy="369.094" r="0.769693" fill="white" fill-opacity="0.56"/>
<circle cx="231.218" cy="516.902" r="0.802521" fill="white" fill-opacity="0.56"/>
<circle cx="252.422" cy="430.719" r="0.799158" fill="white" fill-opacity="0.56"/>
<circle cx="532.579" cy="416.95" r="0.837943" fill="white" fill-opacity="0.56"/>
<circle cx="454.576" cy="123.11" r="0.573118" fill="white" fill-opacity="0.56"/>
<circle cx="444.988" cy="456.608" r="0.632139" fill="white" fill-opacity="0.56"/>
<circle cx="136.599" cy="624.505" r="0.857216" fill="white" fill-opacity="0.56"/>
<circle cx="252.508" cy="741.818" r="0.583096" fill="white" fill-opacity="0.56"/>
<circle cx="538.992" cy="692.69" r="0.604657" fill="white" fill-opacity="0.56"/>
<circle cx="359.168" cy="609.233" r="0.574636" fill="white" fill-opacity="0.56"/>
<circle cx="225.159" cy="68.4967" r="0.925416" fill="white" fill-opacity="0.56"/>
<circle cx="126.983" cy="727.915" r="0.771116" fill="white" fill-opacity="0.56"/>
<circle cx="555.855" cy="636.799" r="0.774664" fill="white" fill-opacity="0.56"/>
<circle cx="115.772" cy="407.834" r="0.91957" fill="white" fill-opacity="0.56"/>
<circle cx="426.849" cy="66.6878" r="0.6019" fill="white" fill-opacity="0.56"/>
<circle cx="226.357" cy="488.906" r="0.665782" fill="white" fill-opacity="0.56"/>
<circle cx="590.924" cy="767.961" r="0.710514" fill="white" fill-opacity="0.56"/>
<circle cx="94.7723" cy="814.918" r="0.637411" fill="white" fill-opacity="0.56"/>
<circle cx="452.363" cy="219.2" r="0.522724" fill="white" fill-opacity="0.56"/>
<circle cx="325.974" cy="483.236" r="0.715336" fill="white" fill-opacity="0.56"/>
<circle cx="520.1" cy="133.916" r="0.933482" fill="white" fill-opacity="0.56"/>
<circle cx="579.523" cy="654.083" r="0.664714" fill="white" fill-opacity="0.56"/>
<circle cx="43.0464" cy="353.042" r="0.785257" fill="white" fill-opacity="0.56"/>
<circle cx="186.591" cy="730.236" r="0.779004" fill="white" fill-opacity="0.56"/>
<circle cx="487.54" cy="526.091" r="0.943528" fill="white" fill-opacity="0.56"/>
<circle cx="542.453" cy="277.623" r="0.679193" fill="white" fill-opacity="0.56"/>
<circle cx="201.103" cy="275.109" r="0.92549" fill="white" fill-opacity="0.56"/>
<circle cx="451.874" cy="456.882" r="0.785802" fill="white" fill-opacity="0.56"/>
<circle cx="478.723" cy="97.206" r="0.602507" fill="white" fill-opacity="0.56"/>
<circle cx="294.614" cy="661.277" r="0.733352" fill="white" fill-opacity="0.56"/>
<circle cx="476.448" cy="714.208" r="0.811992" fill="white" fill-opacity="0.56"/>
<circle cx="226.081" cy="394.764" r="0.972205" fill="white" fill-opacity="0.56"/>
<circle cx="508.49" cy="273.999" r="0.89966" fill="white" fill-opacity="0.56"/>
<circle cx="342.737" cy="668.844" r="0.736249" fill="white" fill-opacity="0.56"/>
<circle cx="300.463" cy="817.864" r="0.670119" fill="white" fill-opacity="0.56"/>
<circle cx="247.193" cy="259.33" r="0.971489" fill="white" fill-opacity="0.56"/>
<circle cx="395.132" cy="125.865" r="0.734949" fill="white" fill-opacity="0.56"/>
<circle cx="477.202" cy="122.058" r="0.859207" fill="white" fill-opacity="0.56"/>
<circle cx="324.405" cy="413.153" r="0.554726" fill="white" fill-opacity="0.56"/>
<circle cx="247.722" cy="407.428" r="0.624783" fill="white" fill-opacity="0.56"/>
<circle cx="52.7298" cy="50.4413" r="0.836836" fill="white" fill-opacity="0.56"/>
<circle cx="1.67863" cy="507.742" r="0.794844" fill="white" fill-opacity="0.56"/>
<circle cx="35.9588" cy="665.91" r="0.868178" fill="white" fill-opacity="0.56"/>
<circle cx="562.337" cy="472.142" r="0.552831" fill="white" fill-opacity="0.56"/>
<circle cx="246.507" cy="230.821" r="0.978262" fill="white" fill-opacity="0.56"/>
<circle cx="258.46" cy="391.087" r="0.739153" fill="white" fill-opacity="0.56"/>
<circle cx="469.742" cy="246.005" r="0.94196" fill="white" fill-opacity="0.56"/>
<circle cx="442.011" cy="383.477" r="0.850432" fill="white" fill-opacity="0.56"/>
<circle cx="411.213" cy="86.5041" r="0.701826" fill="white" fill-opacity="0.56"/>
<circle cx="412.563" cy="351.194" r="0.632597" fill="white" fill-opacity="0.56"/>
<circle cx="529.417" cy="337.675" r="0.831168" fill="white" fill-opacity="0.56"/>
<circle cx="171.236" cy="412.235" r="0.975729" fill="white" fill-opacity="0.56"/>
<circle cx="513.606" cy="124.946" r="0.652691" fill="white" fill-opacity="0.56"/>
<circle cx="250.733" cy="289.968" r="0.661686" fill="white" fill-opacity="0.56"/>
<circle cx="505.301" cy="787.246" r="0.794954" fill="white" fill-opacity="0.56"/>
<circle cx="106.334" cy="839.115" r="0.832797" fill="white" fill-opacity="0.56"/>
<circle cx="477.014" cy="125.252" r="0.628456" fill="white" fill-opacity="0.56"/>
<circle cx="431.532" cy="367.938" r="0.535202" fill="white" fill-opacity="0.56"/>
<circle cx="36.0256" cy="243.338" r="0.730316" fill="white" fill-opacity="0.56"/>
<circle cx="493.508" cy="169.897" r="0.665485" fill="white" fill-opacity="0.56"/>
<circle cx="355.978" cy="458.455" r="0.51692" fill="white" fill-opacity="0.56"/>
<circle cx="192.047" cy="671.193" r="0.529152" fill="white" fill-opacity="0.56"/>
<circle cx="509.832" cy="37.2196" r="0.521886" fill="white" fill-opacity="0.56"/>
<circle cx="216.233" cy="687.836" r="0.669482" fill="white" fill-opacity="0.56"/>
<circle cx="62.5449" cy="738.216" r="0.837995" fill="white" fill-opacity="0.56"/>
<circle cx="548.708" cy="611.206" r="0.711165" fill="white" fill-opacity="0.56"/>
<circle cx="23.9878" cy="611.28" r="0.666556" fill="white" fill-opacity="0.56"/>
<circle cx="527.342" cy="188.58" r="0.89283" fill="white" fill-opacity="0.56"/>
<circle cx="465.702" cy="203.817" r="0.841488" fill="white" fill-opacity="0.56"/>
<circle cx="459.861" cy="553.79" r="0.740608" fill="white" fill-opacity="0.56"/>
<circle cx="594.565" cy="108.258" r="0.515708" fill="white" fill-opacity="0.56"/>
<circle cx="162.842" cy="402.169" r="0.75327" fill="white" fill-opacity="0.56"/>
<circle cx="403.753" cy="656.157" r="0.735309" fill="white" fill-opacity="0.56"/>
<circle cx="523.169" cy="634.813" r="0.612315" fill="white" fill-opacity="0.56"/>
<circle cx="332.95" cy="142.984" r="0.874626" fill="white" fill-opacity="0.56"/>
<circle cx="353.278" cy="663.697" r="0.667121" fill="white" fill-opacity="0.56"/>
<circle cx="326.252" cy="827.553" r="0.615395" fill="white" fill-opacity="0.56"/>
<circle cx="174.028" cy="654.457" r="0.667444" fill="white" fill-opacity="0.56"/>
<circle cx="213.381" cy="88.8234" r="0.888852" fill="white" fill-opacity="0.56"/>
<circle cx="581.582" cy="654.779" r="0.948638" fill="white" fill-opacity="0.56"/>
<circle cx="539.829" cy="558.109" r="0.905457" fill="white" fill-opacity="0.56"/>
<circle cx="582.011" cy="649.703" r="0.909674" fill="white" fill-opacity="0.56"/>
<circle cx="17.7373" cy="588.179" r="0.990763" fill="white" fill-opacity="0.56"/>
<circle cx="228.625" cy="620.238" r="0.586963" fill="white" fill-opacity="0.56"/>
<circle cx="530.77" cy="352.422" r="0.662368" fill="white" fill-opacity="0.56"/>
<circle cx="147.039" cy="602.313" r="0.878452" fill="white" fill-opacity="0.56"/>
<circle cx="223.322" cy="260.34" r="0.938763" fill="white" fill-opacity="0.56"/>
<circle cx="308.487" cy="709.484" r="0.84758" fill="white" fill-opacity="0.56"/>
<circle cx="569.593" cy="671.357" r="0.783354" fill="white" fill-opacity="0.56"/>
<circle cx="61.7123" cy="214.966" r="0.706848" fill="white" fill-opacity="0.56"/>
<circle cx="49.1316" cy="756.184" r="0.808581" fill="white" fill-opacity="0.56"/>
<circle cx="318.223" cy="595.753" r="0.534893" fill="white" fill-opacity="0.56"/>
<circle cx="438.23" cy="830.183" r="0.95964" fill="white" fill-opacity="0.56"/>
<circle cx="438.588" cy="717.542" r="0.889187" fill="white" fill-opacity="0.56"/>
<circle cx="153.17" cy="350.719" r="0.747267" fill="white" fill-opacity="0.56"/>
<circle cx="157.402" cy="452.474" r="0.88392" fill="white" fill-opacity="0.56"/>
<circle cx="365.806" cy="188.248" r="0.837454" fill="white" fill-opacity="0.56"/>
<circle cx="5.22973" cy="752.777" r="0.500359" fill="white" fill-opacity="0.56"/>
<circle cx="354.984" cy="704.006" r="0.507145" fill="white" fill-opacity="0.56"/>
<circle cx="53.2081" cy="777.357" r="0.637396" fill="white" fill-opacity="0.56"/>
<circle cx="327.352" cy="545.093" r="0.663224" fill="white" fill-opacity="0.56"/>
<circle cx="30.9945" cy="692.665" r="0.728392" fill="white" fill-opacity="0.56"/>
<circle cx="582.83" cy="637.558" r="0.978102" fill="white" fill-opacity="0.56"/>
<circle cx="131.286" cy="783.198" r="0.664372" fill="white" fill-opacity="0.56"/>
<circle cx="546.998" cy="121.933" r="0.566918" fill="white" fill-opacity="0.56"/>
<circle cx="159.655" cy="287.089" r="0.673867" fill="white" fill-opacity="0.56"/>
<circle cx="504.26" cy="751.807" r="0.519278" fill="white" fill-opacity="0.56"/>
<circle cx="401.529" cy="100.439" r="0.723692" fill="white" fill-opacity="0.56"/>
<circle cx="434.942" cy="327.104" r="0.847558" fill="white" fill-opacity="0.56"/>
<circle cx="246.199" cy="547.095" r="0.586133" fill="white" fill-opacity="0.56"/>
<circle cx="472.152" cy="284.636" r="0.809199" fill="white" fill-opacity="0.56"/>
<circle cx="1.042" cy="159.473" r="0.737554" fill="white" fill-opacity="0.56"/>
<circle cx="68.56" cy="247.729" r="0.8889" fill="white" fill-opacity="0.56"/>
<circle cx="221.185" cy="674.21" r="0.698978" fill="white" fill-opacity="0.56"/>
<circle cx="560.786" cy="759.785" r="0.956093" fill="white" fill-opacity="0.56"/>
<circle cx="72.9458" cy="251.167" r="0.598177" fill="white" fill-opacity="0.56"/>
<circle cx="155.402" cy="438.986" r="0.925046" fill="white" fill-opacity="0.56"/>
<circle cx="510.704" cy="380.746" r="0.751885" fill="white" fill-opacity="0.56"/>
<circle cx="29.5571" cy="815.438" r="0.814917" fill="white" fill-opacity="0.56"/>
<circle cx="548.04" cy="328.173" r="0.96536" fill="white" fill-opacity="0.56"/>
<circle cx="427.568" cy="488.485" r="0.919042" fill="white" fill-opacity="0.56"/>
<circle cx="543.883" cy="290.193" r="0.849735" fill="white" fill-opacity="0.56"/>
<circle cx="532.6" cy="59.3395" r="0.634893" fill="white" fill-opacity="0.56"/>
<circle cx="348.415" cy="435.702" r="0.933613" fill="white" fill-opacity="0.56"/>
<circle cx="282.884" cy="573.88" r="0.707539" fill="white" fill-opacity="0.56"/>
<circle cx="538.963" cy="17.249" r="0.794871" fill="white" fill-opacity="0.56"/>
<circle cx="429.097" cy="557.371" r="0.824976" fill="white" fill-opacity="0.56"/>
<circle cx="111.609" cy="751.239" r="0.828232" fill="white" fill-opacity="0.56"/>
<circle cx="554.413" cy="98.0286" r="0.823042" fill="white" fill-opacity="0.56"/>
<circle cx="53.8225" cy="790.922" r="0.982424" fill="white" fill-opacity="0.56"/>
<circle cx="85.2532" cy="577.317" r="0.946755" fill="white" fill-opacity="0.56"/>
<circle cx="301.244" cy="781.684" r="0.602091" fill="white" fill-opacity="0.56"/>
<circle cx="488.209" cy="728.354" r="0.994878" fill="white" fill-opacity="0.56"/>
<circle cx="0.897941" cy="281.536" r="0.664298" fill="white" fill-opacity="0.56"/>
<circle cx="428.557" cy="27.6533" r="0.573676" fill="white" fill-opacity="0.56"/>
<circle cx="394.829" cy="156.994" r="0.678558" fill="white" fill-opacity="0.56"/>
<circle cx="556.653" cy="624.177" r="0.726324" fill="white" fill-opacity="0.56"/>
<circle cx="499.334" cy="72.7011" r="0.809475" fill="white" fill-opacity="0.56"/>
<circle cx="57.0534" cy="236.031" r="0.565842" fill="white" fill-opacity="0.56"/>
<circle cx="479.898" cy="301.027" r="0.567901" fill="white" fill-opacity="0.56"/>
<circle cx="138.749" cy="762.532" r="0.592672" fill="white" fill-opacity="0.56"/>
<circle cx="252.629" cy="297.066" r="0.957911" fill="white" fill-opacity="0.56"/>
<circle cx="248.433" cy="215.328" r="0.927008" fill="white" fill-opacity="0.56"/>
<circle cx="61.6525" cy="252.399" r="0.621507" fill="white" fill-opacity="0.56"/>
<circle cx="333.949" cy="339.231" r="0.678682" fill="white" fill-opacity="0.56"/>
<circle cx="389.797" cy="838.618" r="0.800543" fill="white" fill-opacity="0.56"/>
<circle cx="141.957" cy="64.0315" r="0.75321" fill="white" fill-opacity="0.56"/>
<circle cx="427.887" cy="443.682" r="0.83031" fill="white" fill-opacity="0.56"/>
<circle cx="151.645" cy="85.6808" r="0.932305" fill="white" fill-opacity="0.56"/>
<circle cx="261.24" cy="285.142" r="0.622106" fill="white" fill-opacity="0.56"/>
<circle cx="93.1969" cy="60.0467" r="0.586705" fill="white" fill-opacity="0.56"/>
<circle cx="152.4" cy="455.572" r="0.970527" fill="white" fill-opacity="0.56"/>
</g>
<rect x="0.5" y="0.5" width="594.28" height="840.89" stroke="#00033A"/>
<defs>
<linearGradient id="paint0_linear_520_66997" x1="297.638" y1="0" x2="297.638" y2="841.89" gradientUnits="userSpaceOnUse">
<stop stop-color="#00033A"/>
<stop offset="0.447115" stop-color="#040851"/>
<stop offset="1" stop-color="#00033A"/>
</linearGradient>
<clipPath id="clip0_520_66997">
<rect width="595.28" height="841.89" fill="white"/>
</clipPath>
</defs>
</svg>
