<svg width="459" height="324" viewBox="0 0 459 324" fill="none" xmlns="http://www.w3.org/2000/svg">
<path opacity="0.996078" d="M387.5 0L406.5 10L419 22.5L427 34.5L433 47.5L436 61.5V77.5L430 99.5L418 122.5L386.5 161L348 190.5C347.533 192.033 348.033 192.533 349.5 192L384 168L386 164.5L412 133.5L425 113.5L435 90.5L438 76.5V63.5L439 62.5L437 49.5L428 29.5L430 30.5L437 43.5L441 64.5V66.5L439 88.5L433 105.5L425 121.5L409 143.5L420 133.5C428 122.5 434.833 110.333 440.5 97L441 102.5L430 129.5L423 140.5L415 148.5L416.5 149L428 138.5L434.5 130L434 131.5L415 158C413.2 157.267 412.533 157.767 413 159.5L382 186.5L383.5 187L406.5 171L429 148.5C442.533 133.033 451.7 113.2 456.5 89L457 94.5L452 114.5L441 141.5C432.667 155.833 422.5 168.333 410.5 179L392 193.5L393.5 194C403.833 188 413 180.833 421 172.5L429.5 162L429 163.5L426 170.5L407.5 190L375.5 212L356.5 221C347.167 221 340 223.167 335 227.5L337.5 228C344.233 224.4 352.233 222.067 361.5 221L381.5 212L379.5 215L363.5 224L355.5 226L341.5 233L320 239.5L323.5 240L348.5 233V234L332.5 240L309.5 246L278.5 250L265 253.5L269.5 254L270.5 253L309.5 250L322.5 246V247L301.5 254L280.5 257L274.5 259L257.5 260L256.5 261H228.5L218.5 259H207.5L198 255.5L202.5 255L203.5 256H216.5L217.5 257H243.5L244.5 256H252L251.5 254L250.5 255H226.5L225.5 254H200.5L187.5 252C177.5 249.333 168.667 245.5 161 240.5L162.5 240L164.5 241L163.5 239L149.5 234L130 219L120 200.5L118 185.5L119 182.5L118 176.5H119L121 188.5L131 205L133 204.5L123 188.5L122 173.5C124.6 162.433 128.933 153.1 135 145.5L132 147.5L120.5 167L120 165.5L128 149.5L145 132.5L143.5 132L127 147.5L121 155.5L115.5 168L115 164.5L118 156.5L136 132.5L135.5 131L136.5 132L143.5 125C152.5 117.333 162.833 111 174.5 106L198 99.5L192.5 99L176.5 103L154.5 114C143.233 121.067 133.4 129.567 125 139.5C118.467 146.633 113.133 154.967 109 164.5L106 172.5L104 187.5L105 189.5L104 192.5L107 210.5L114.5 224L115 222.5L110 213.5L107 193.5H108L111 208.5L117 222.5L130.5 237L140.5 244L150.5 248L189 259.5L185.5 260C179.5 257.667 172.5 256.333 164.5 256L148.5 251C136.167 246.333 125.667 239.833 117 231.5C111.333 225.167 107 217.5 104 208.5V204.5L101 196.5V190.5L104 171.5L112 151.5L110 152.5L102 169.5L99 181.5V200.5C103.6 217.567 111.767 231.067 123.5 241L146.5 254L163.5 260L193.5 267L223.5 270L225.5 269L226.5 270H265.5L266.5 269L283.5 268L298.5 264V265L296 265.5L299 266.5L270.5 273H268.5H260.5L251.5 275H239.5L234 276.5L259.5 277L260.5 276H268.5L286.5 273L331.5 258V259L326 261.5L328.5 262L365.5 247L387.5 236C401.633 228.467 414.3 219.467 425.5 209L415.5 220C403.5 229.867 390.333 238.2 376 245L376.5 247L414.5 228L425.5 220L423.5 223L386.5 248C374.167 255 360.5 260.667 345.5 265L343.5 267L326.5 271L319.5 274L308.5 275L291.5 280H285.5L274.5 283H267.5L259.5 285H248.5L247.5 286H245.5H228.5C223.9 283.6 217.567 282.933 209.5 284L201.5 282L187.5 281L166.5 275H162.5L163.5 277L176.5 281L194.5 285H202.5L210 287.5L199.5 288L164.5 282L124.5 266L125.5 268L147 278.5L145.5 278C126.833 272 110.833 263.333 97.5 252L102.5 258C111.1 266.067 121.1 272.733 132.5 278L168 291.5L165.5 292L135.5 283L114.5 273C102.9 266.933 93.0667 259.1 85 249.5L73.5 233L73 234.5L83 251.5L96 268C97.8 267.267 98.4667 267.767 98 269.5L112.5 281L144.5 295L186.5 306L201.5 307L202.5 308H214.5L215.5 309L220.5 308C221.5 309.667 223.833 310 227.5 309H229.5L244.5 308L246.5 309L247.5 308H258.5L266.5 306L268.5 307C269.7 305.2 272.367 304.867 276.5 306V307L238.5 314H224.5L223.5 315L204.5 316L203.5 315H185.5L184.5 314H174.5L161.5 312L116.5 299C102.167 293 88.8334 286 76.5 278L58 261.5L48 244.5L43.5 232L43 236.5C44.9333 246.233 48.6 254.233 54 260.5L50 257.5L41 239.5L39 228.5V209.5L42 197.5L54 171.5L71.5 150L68 154.5C61.8 161.967 56.8 170.633 53 180.5L50 190.5L49 206.5L48 207.5L50 220.5L56.5 234L57 232.5L52 217.5V196.5L57 177.5L60.5 170L61 171.5L57 182.5L55 200.5L57 210.5V212.5L59 225.5L66.5 240L67 238.5L61 224.5L59 211.5V201.5L62 183.5C64.6667 173.833 68.3334 165.167 73 157.5C81.4667 142.967 91.9667 130.467 104.5 120L114 111.5L112.5 111L62.5 150L38 173.5C28.4667 184.967 20.8 198.3 15 213.5L13 224.5V240.5L14 243.5V250.5L21 262.5L18.5 261L10 253.5C3.53335 246.3 1.20001 234.967 3.00001 219.5L9.00001 198.5L19 179.5L27 167.5L43.5 149L69.5 127L85 117L84.5 115C69.4333 123.267 56.1 133.267 44.5 145L44 143.5L64.5 125L99.5 100L139.5 78L174.5 67L184.5 66L189.5 64L216.5 61H218.5H226.5L235.5 59H237.5L261 58.5C257 56.5 251.5 56 244.5 57L233.5 59H231.5H209.5L208.5 60H206.5L185.5 62C179.3 64.4667 171.967 65.8 163.5 66L150.5 70V69L152 68.5L149.5 68L133.5 74H129.5L120.5 77L91.5 95L93.5 92L101.5 86L128.5 71L158.5 60L178.5 55H188.5L208.5 51L235.5 50L237.5 51H239.5L241.5 50L242.5 51H252.5L262.5 54L263 52L238.5 48H205.5L183.5 52V51L200.5 47H211.5L212.5 46H214.5L243.5 47L282.5 55L299.5 61C307.767 65.0667 314.933 70.2333 321 76.5C326.533 81.3 330.867 87.3 334 94.5L337 105.5V118.5L336 123.5L330.5 133L330 131.5L334 121.5V110.5C331.867 108.3 331.2 104.633 332 99.5L329.5 95L329 98.5C331.133 103.033 332.133 108.7 332 115.5L329 129.5L324 141.5L315 156.5L303.5 169L277.5 188L257.5 198L238.5 204L234 203L233.5 205C232.5 203.333 230.167 203 226.5 204L219 205.5L230.5 207H232.5C247.233 205.4 260.233 202.067 271.5 197C287.1 189.6 300.767 180.267 312.5 169L306.5 176C292.633 187.133 277.3 196.8 260.5 205L239 210.5L245.5 211L262.5 206L263.5 208L266.5 207L279.5 204L302.5 193C320.9 182.4 337.4 169.9 352 155.5L351 153.5L359.5 143L364 139.5L375 126.5L381 113.5L379 114.5C375.8 122.967 370.967 129.8 364.5 135L365 133.5L380 106.5L385 91.5L384 86.5L385 85.5V70.5C383.333 69.5 383 67.1667 384 63.5L379.5 54L379 58.5L380 62C378.2 62.7333 377.533 62.2333 378 60.5C374.6 47.5667 368.1 37.7333 358.5 31L348 22.5C349.533 21.6333 349.367 20.8 347.5 20C333.033 10.8 313.867 6.3 290 6.5L295.5 5C303.167 6 309.5 5.66667 314.5 4L316.5 5L318.5 4L319.5 5L337.5 6L356.5 11C369.233 15.9333 380.067 22.7667 389 31.5L393.5 39L395 38.5L393 35.5L396 37.5L404 57.5L405 68.5L404 69.5V77.5L400 91.5H401L407 72.5L408.5 59L410 61.5V73.5C408.267 84.4333 405.267 94.1 401 102.5L384 132L387 130.5L401 106C402.8 106.733 403.467 106.233 403 104.5L407 99.5L414 82.5L418 63.5V56.5L416 46.5L417 44.5C412.133 32.0333 404.633 22.2 394.5 15L380 6.5L381.5 6C390.567 10.0667 398.4 15.0667 405 21L419.5 39L420 36.5L412 21.5L400.5 9L387.5 1V0ZM340 12V13H341L340 12ZM347 17L349 20L361 28L374 44C376 44.6667 376.667 46.6667 376 50L378 49L381 56L383 57L375 39L372 36L369 33C363.667 25.6667 356.333 20.3333 347 17ZM375 29C373.667 31 374 31.6667 376 31L375 29ZM376 32L388 57L391 69V75H392V62L389 52C386.333 44.6667 382.667 38.6667 378 34C378.667 32 378 31.3333 376 32ZM378 50L377 52H378V50ZM379 52L378 54H379V52ZM423 53L422 59H423V53ZM267 54L269 56L278 57L291 63H293L279 56L267 54ZM422 61V74L421 77L422 83L424 76V62L422 61ZM167 63L156 66V67L170 64L167 63ZM294 63L296 66C304 70 311.333 75.3333 318 82V81C311.333 73 303.333 67 294 63ZM222 65L211 67H202H200L199 68L183 69L169 73V74L195 69H205C209.667 67 215.333 66.3333 222 67V65ZM153 67V68H155L153 67ZM271 70V71H272L271 70ZM273 71V72L289 79L288 81L290 85L291 86C279.667 79.3333 266.667 74.6667 252 72H250L231 73H234H236L244 74V75C240 76.3333 237.667 76 237 74L196 81L172 89H170L197 79L228 74V72L193 78L189 80L174 83L155 90C136.333 98 121 108.667 109 122L106 124C96.6667 132 88.6667 141.333 82 152L73 171L69 192V203L74 225L76 226L72 211V200L71 197L73 180L77 169C83.6667 155 92 143 102 133L104 132C96 140 89.6667 150 85 162L79 179L78 189V191L77 193L79 196C81 171.333 88.6667 152 102 138C116.667 121.333 134 107.667 154 97L155 98L145 103L120 122L118 125L144 107L176 92L200 85L215 82H226L227 81H245L246 82L260 83C270 85.6667 279 89.3333 287 94L298 111L302 125C302 138.333 299 148.667 293 156L283 164L284 166L286 165L307 142C310.333 136.667 312.333 130.333 313 123C314.333 121 315.333 121 316 123C312.667 139.667 305.667 152.667 295 162H297C304.333 156 310 148.333 314 139L319 125V116L320 115L319 113L320 110C318 100.667 314.667 93.3333 310 88L307 86L310 92L315 109V119C314.333 107 311.333 97.6667 306 91L304 92L309 100V101L301 91L294 84L291 80L294 82V80L277 71H273ZM401 76L400 78H401V76ZM430 76L429 78H430V76ZM157 77C138.333 82.3333 122 90 108 100L107 102L128 91L159 78L157 77ZM306 77L309 81V80L306 77ZM301 78L300 80H301V78ZM318 82V84L322 87L320 84C320.667 82 320 81.3333 318 82ZM219 83L197 89L200 90C188.667 91.3333 179 94 171 98L158 104L134 119L132 122L171 100C179.667 95.3333 190 92.3333 202 91L201 88L220 85H247L259 88H263L247 83H219ZM395 83C392.333 85.6667 391 89.6667 391 95V97L390 99C389.333 101.667 390 102.667 392 102L395 90V83ZM425 85L421 94L422 95L425 88V85ZM430 86L429 89H430V86ZM266 89C266 91.6667 266.667 92 268 90L266 89ZM303 89L304 91C304.667 89 304.333 88.3333 303 89ZM327 91L328 93C328.667 91 328.333 90.3333 327 91ZM180 92V93H182L180 92ZM201 92L188 95L187 97L205 93L201 92ZM429 92L428 94H429V92ZM178 93V94H179L178 93ZM329 93L328 95H329V93ZM428 94L427 96H428V94ZM321 98L325 111V120L324 121L325 125L327 115V110L323 101C323.667 98.3333 323 97.3333 321 98ZM105 102L104 104L106 103L105 102ZM409 105L405 112L406 113L409 107V105ZM403 116L399 122C398.333 123.333 399 123.667 401 123L403 119V116ZM273 122V123H274L273 122ZM315 123L314 125H315V123ZM398 124L397 126H398V124ZM152 126L148 129L146 132L153 127L152 126ZM161 127L150 135L136 154L129 174V183L131 184L130 180L132 169L139 152L153 136L162 128L161 127ZM75 132L70 135L66 140L75 134V132ZM114 133V135L116 134L114 133ZM124 134L122 136H124V134ZM392 135L385 140H387L388 142L393 136L392 135ZM121 136V137H122L121 136ZM380 142L374 146L362 161C360 160.333 359.333 161 360 163L371 155L380 144V142ZM136 143L135 145H136V143ZM409 144L408 146H409V144ZM54 147L47 155L55 148L54 147ZM103 154L102 156H103V154ZM405 161L404 163H405V161ZM295 162L293 164H295V162ZM144 163L141 169L142 184C144 191.333 147.333 197.667 152 203C156.667 209 163 214 171 218H176L205 229L216 231H224L225 232L273 231L286 226L296 224L345 203C359 195.667 371.667 187 383 177L395 164L365 187L345 199L324 209L318 210L316 212H312L314 211V210C310 212 305.333 212.667 300 212L283 217L273 218H271C268.333 220 264.667 220.667 260 220V222L258 220L249 223H238L237 224H210L241 222L240 220L239 221H222L221 222H210L192 219L175 212L167 207H165L157 200L153 195L151 196L152 198L166 211L170 213L173 217L163 210C152.333 202.667 145.667 192 143 178V167L144 166V163ZM358 163V165L360 164L358 163ZM357 165L354 167H357V165ZM138 166L136 168H138V166ZM353 167L325 186C323 185.333 322.333 186 323 188H321L313 193V194L325 188V190H328V188H330L328 187L326 188L354 169C354.667 167 354.333 166.333 353 167ZM96 169L91 179L88 192V206L93 221L96 223L90 203C89.3334 189.667 91.3334 179.333 96 172V169ZM403 179L401 181H403V179ZM24 181V183L26 182L24 181ZM149 187L148 189H149V187ZM21 188L20 190H21V188ZM20 190L11 205L12 206L20 192V190ZM167 196L169 199L171 198L167 196ZM370 197L352 208L315 222V223L326 221L349 212C357.667 209.333 364.667 205 370 199V197ZM383 199L381 201H383V199ZM79 209L77 211L79 224H80L79 220L80 217L79 209ZM191 209L195 212L209 215H217V213H208L191 209ZM234 211V212H237L234 211ZM155 212L154 214C160 222 169 227.333 181 230H183C171 226 161.667 220 155 212ZM231 213L221 215V216L227 215L229 216L235 215L231 213ZM144 214L143 216H144V214ZM47 220L46 222H47V220ZM116 224L117 230L119 231L116 224ZM49 225L48 227H49V225ZM82 225L81 228H82V225ZM182 225V226H183L182 225ZM184 226V227L195 232L218 236H228L207 232L188 226H184ZM302 226V227H303L302 226ZM50 227L49 230L51 231L50 227ZM299 227V228H301L299 227ZM101 228L100 230L103 234L124 250H125L113 238L111 239L101 228ZM295 228L281 232V233L294 231L298 229L295 228ZM275 233V234H280L275 233ZM230 235V236H231L230 235ZM250 238C248.667 240 246 240.333 242 239V240H258V238L252 239L250 238ZM68 240L67 242H68V240ZM166 240C165.333 242 166 242.667 168 242C168.667 240 168 239.333 166 240ZM170 241V242L187 247C188.333 247.667 188.667 247 188 245L174 241H170ZM208 244V245H209L208 244ZM239 244V245H240L239 244ZM92 246L93 248C93.6667 246 93.3334 245.333 92 246ZM62 247L61 249H62V247ZM201 248L195 250L211 252H220C216.667 250 212.333 249.333 207 250L201 248ZM368 249V250H370L368 249ZM64 250L63 252L69 262L76 268L64 250ZM96 250C94.6667 252 95 252.667 97 252L96 250ZM127 251V252H128L127 251ZM232 251V252H234L232 251ZM236 251V252H240L236 251ZM243 251V252H245L243 251ZM343 258V259H344L343 258ZM132 261L133 263H135L132 261ZM151 264L150 266L179 273H185L151 264ZM294 266V267H296L294 266ZM316 267V268H317L316 267ZM161 274V275H162L161 274ZM212 274C211.333 276 212 276.667 214 276C214.667 274 214 273.333 212 274ZM217 274L216 276H217V274ZM221 274L220 276H223L221 274ZM209 277L208 279H209V277ZM116 286L117 288L137 298L166 306L168 305L135 295L116 286Z" fill="#0B0B0B"/>
<path opacity="0.996078" d="M312.5 18C325.5 18.3333 335.333 21.8333 342 28.5L340.5 28L330.5 23L312.5 19V18Z" fill="#0B0B0B"/>
<path opacity="0.996078" d="M255.5 26H289.5L290.5 27L292.5 26L310.5 29L324.5 33C338.767 38.7333 350.6 46.9 360 57.5L366 70.5L368 88.5L369.5 90L370 85.5L368 76.5V74.5L367 66.5C364.533 59.3 360.867 53.3 356 48.5L361 52.5C365.467 57.7 368.8 64.0333 371 71.5L372 89.5L369 98.5V104.5L364 116.5L363 122.5H364L371 104.5L375 83.5L374 82.5C374.667 76.5 374.333 72 373 69L376 69.5V80.5L377 81.5V93.5L373 108.5L371 110.5L367 123.5L364 129C362.2 128.267 361.533 128.767 362 130.5V132.5L345 155L343 154.5L360 133.5L357 135.5L338 158.5L340 159.5C329 171.033 316.333 180.533 302 188L305.5 183H308C307.267 181.2 307.767 180.533 309.5 181L332 162.5L334 159.5L332.5 159L321 169.5L325 164.5L323 163.5L337 148.5L345 134.5L352 114.5V99.5L347 85.5L325.5 61C318.767 54.7333 310.767 49.7333 301.5 46L279 39C278.133 41.2 279.3 41.8667 282.5 41L312.5 57L335 77.5L336.5 80L341 83.5L342.5 86C343.367 84.5333 344.2 84.7 345 86.5C348.133 90.7 349.8 96.3667 350 103.5H349C349.333 99.8333 348.5 97.3333 346.5 96L346 99.5C348.133 101.367 348.967 104.533 348.5 109L349.5 106L350 108.5L348 116.5L348.5 118C346.7 118.4 346.2 116.567 347 112.5H346L345 116.5V118.5L342 129.5V131.5L337 142.5L325 158L323 157.5L338 133.5L343 120.5V113.5L341 110.5V108.5L342 100.5L338 91.5L337 85H335V82C333 82.8667 332.333 82.0333 333 79.5L328.5 74L313.5 61L293.5 49L262.5 39L239.5 37L236.5 38L235.5 37H219.5L216.5 38L196.5 40L195.5 41H193.5H188.5L166.5 47L133.5 59L125.5 64L98.5 76L72.5 94L73.5 92L97.5 73L137.5 53L171.5 41L185.5 39L213.5 31L224.5 29H235.5L236.5 28L238.5 29L244.5 27H254.5L255.5 26ZM256 28C254.667 30 252 30.3333 248 29V30H262L263 29L264 30H286L287 31H291L290 29H279H277L275 28H256ZM222 34L218 35V36C220.667 36.6667 222.333 36.3333 223 35L222 34ZM215 35V36H216L215 35ZM310 46L311 48L320 53H321L318 49L310 46ZM342 48V49H343L342 48ZM344 49V50H345L344 49ZM327 51L344 70L347 75H349L338 59L327 51ZM359 90L358 95L360 102L358 112L359 116C361.667 114.667 362.333 111.667 361 107V105C361.667 98.3333 361 93.3333 359 90ZM369 90L368 92H369V90ZM346 93L345 95H346V93ZM343 105L342 107H343V105ZM357 118L356 120H357V118ZM352 126L350 129L352 128V126Z" fill="#0B0B0B"/>
<path opacity="0.996078" d="M234.5 39L236.5 40H238.5C241.567 39.6 243.567 40.2667 244.5 42L260.5 43L278 46.5L270.5 47L263.5 45H256.5L238.5 42L233.5 43L230.5 42L205.5 43V42H211.5L219.5 40H233.5L234.5 39Z" fill="#0B0B0B"/>
<path opacity="0.996078" d="M253.5 40C260.433 40.0667 266.267 41.2333 271 43.5L268.5 44L263.5 42L253.5 41V40Z" fill="#0B0B0B"/>
<path opacity="0.996078" d="M81.5 102L83 102.5C57.9333 117.767 35.4333 135.6 15.5 156L15 154.5L27.5 140C29.0333 140.533 29.5333 140.033 29 138.5C44.3333 124.167 61.8333 112 81.5 102Z" fill="#0B0B0B"/>
<path opacity="0.996078" d="M308.5 113C310.7 116.467 311.2 121.633 310 128.5C307.533 131.033 306.2 134.7 306 139.5L302.5 144L303 142.5L307 131.5L308.5 113Z" fill="#0B0B0B"/>
<path opacity="0.996078" d="M458.5 140L459 144.5C450.467 167.633 437.633 186.467 420.5 201L389.5 223L361.5 234L362.5 232C377.233 225.067 390.9 217.067 403.5 208L431 182.5L449 159.5L458.5 140ZM441 172L440 174H441V172Z" fill="#0B0B0B"/>
<path opacity="0.996078" d="M29.5 159L28 161.5C15.3333 175.5 6.16667 193 0.5 214L0 205.5C6 186.167 15.8333 170.667 29.5 159Z" fill="#0B0B0B"/>
<path opacity="0.996078" d="M112.5 178L113 183.5L111.5 193L111 181.5L112.5 178Z" fill="#0B0B0B"/>
<path opacity="0.996078" d="M291.5 192L289.5 195L280 199.5L282.5 200L295.5 193L293.5 196L277.5 202L276 201.5C276.6 203.5 275.433 204 272.5 203L264.5 206L265.5 204C275.367 201.2 284.033 197.2 291.5 192ZM279 200V201H280L279 200Z" fill="#0B0B0B"/>
<path opacity="0.996078" d="M112.5 195C112.433 202.4 113.933 208.233 117 212.5L139.5 237L149.5 242L148.5 240L141 235.5L142.5 235C150.433 241.4 159.933 246.233 171 249.5L169.5 250C166.5 247.333 161.833 246.333 155.5 247L139.5 240L122 224.5L114 211.5V209.5C111.8 205.767 111.3 200.933 112.5 195ZM151 242V243H152L151 242Z" fill="#0B0B0B"/>
<path opacity="0.996078" d="M30 196L32 196.5L25.5 214L25 208.5L30 196Z" fill="#0B0B0B"/>
<path opacity="0.996078" d="M443.5 202L442 204.5L435.5 212L437 209.5L443.5 202Z" fill="#0B0B0B"/>
<path opacity="0.996078" d="M299.5 218L301 218.5L287.5 223L288.5 221L299.5 218Z" fill="#0B0B0B"/>
<path opacity="0.996078" d="M212.5 227L239 228.5L216.5 229L212.5 228V227Z" fill="#0B0B0B"/>
<path opacity="0.996078" d="M245.5 227L255 227.5C251.333 229.167 246.5 229.667 240.5 229V228L245.5 227Z" fill="#0B0B0B"/>
<path opacity="0.996078" d="M31.5 230L34 243.5L39 254.5L54.5 271L61 276.5L62 278.5L60.5 279L51 270.5C51.5333 269.033 51.0333 268.533 49.5 269L36 252.5L32 242.5L31.5 230Z" fill="#0B0B0B"/>
<path opacity="0.996078" d="M18.5 248L26 258.5L24.5 259C20.9 256.133 18.9 252.467 18.5 248Z" fill="#0B0B0B"/>
<path opacity="0.996078" d="M390.5 258L389.5 260C378.967 266.8 367.3 272.467 354.5 277L332.5 282V281L381.5 263L390.5 258Z" fill="#0B0B0B"/>
<path opacity="0.996078" d="M108.5 274L116 279.5L114.5 280L108.5 274Z" fill="#0B0B0B"/>
<path opacity="0.996078" d="M288.5 287L292 287.5L263.5 294H261.5L238.5 296L237.5 297H233.5H207.5L206.5 296L191 294.5L232.5 294L233.5 293L246.5 292H248.5L273.5 290L279.5 288L281.5 289L288.5 287Z" fill="#0B0B0B"/>
<path opacity="0.996078" d="M55.5 290L75.5 303L100 314.5L97.5 315C79.3 310.133 65.3 301.8 55.5 290Z" fill="#0B0B0B"/>
<path opacity="0.996078" d="M329.5 290L333 290.5L318.5 295H313.5V294L329.5 290Z" fill="#0B0B0B"/>
<path opacity="0.996078" d="M79.5 292L103.5 304L138.5 315L158.5 319H164.5L170.5 321L197 323.5L172.5 324L171.5 323L145.5 320L124.5 314L103.5 306L82.5 295L79.5 292Z" fill="#0B0B0B"/>
</svg>
