<svg width="439" height="452" viewBox="0 0 439 452" fill="none" xmlns="http://www.w3.org/2000/svg">
<g opacity="0.996078">
<path d="M225.724 0.152344L226.224 14.6523L225.224 15.6523V38.6523L226.224 39.6523L227.224 78.6523L228.224 80.6523L227.224 81.6523V98.1523L229.224 97.6523L228.224 94.6523L229.224 93.6523L231.224 59.6523L233.724 50.1523L234.224 58.6523L232.224 68.6523L231.224 92.6523H232.224L237.724 66.1523L238.224 72.1523C240.024 72.8857 240.69 72.3857 240.224 70.6523L241.724 68.1523L242.224 69.6523L241.224 71.6523L242.224 75.6523L240.224 81.6523L241.224 85.6523L239.224 92.6523V98.6523L241.224 97.6523L245.224 84.6523V76.6523C247.957 71.0523 249.624 64.3857 250.224 56.6523L254.224 47.6523V43.6523L257.724 33.1523L258.224 37.6523C255.424 44.8523 253.757 53.1857 253.224 62.6523L248.224 75.6523V81.6523H249.224L251.224 72.6523L253.724 68.1523L254.224 70.6523L251.224 76.6523L246.224 95.6523L248.224 94.6523L249.724 91.1523L250.224 92.6523C247.49 95.919 245.824 100.252 245.224 105.652H246.224L253.224 90.6523L257.724 74.1523L258.224 77.6523L255.224 87.6523L256.224 89.6523L254.224 94.6523L256.224 93.6523L264.224 77.6523L267.224 66.6523L278.224 46.6523L287.724 19.1523L288.224 21.6523L278.224 48.6523C278.89 52.6523 278.224 55.319 276.224 56.6523V62.6523L277.224 65.6523C276.357 70.4523 274.357 74.119 271.224 76.6523L263.224 101.652H264.224L272.724 82.1523L273.224 84.6523L261.224 112.652L254.224 124.652L251.224 135.152L249.224 134.652C251.09 134.186 251.757 132.519 251.224 129.652L250.224 126.652L261.224 90.6523L259.224 91.6523L258.224 96.6523L250.224 112.652L248.224 120.652L243.724 128.152L243.224 126.652L244.224 124.652L242.224 115.652L243.224 110.652L241.224 111.652L238.724 116.152L237.724 114.152L236.224 121.652L233.224 125.652L232.224 131.652L230.724 133.152L230.224 131.652C233.49 126.586 235.157 119.919 235.224 111.652H233.224L234.224 101.652V99.6523L233.724 91.1523L231.224 104.652L226.224 120.652L224.724 134.152L222.224 129.652V116.652H223.224L223.724 118.152C225.59 114.686 226.09 109.852 225.224 103.652H224.224L223.724 105.152L223.224 103.652L224.224 102.652L225.224 78.6523H223.224L224.224 76.6523L222.724 72.1523L218.724 134.152L217.224 130.652V102.652L218.224 101.652V75.6523L219.224 74.6523V46.6523L222.224 36.6523L223.224 8.65234L225.724 0.152344ZM224.224 66.1523L223.224 68.1523H224.224V66.1523ZM224.224 69.1523L223.224 71.1523H224.224V69.1523ZM239.224 74.1523C238.557 76.1523 239.224 76.819 241.224 76.1523C241.89 74.1523 241.224 73.4857 239.224 74.1523ZM246.224 90.1523L244.224 94.1523L246.224 93.1523V90.1523ZM244.224 108.152L243.224 110.152H244.224V108.152ZM239.224 111.152L238.224 113.152H239.224V111.152ZM253.224 125.152L252.224 127.152H253.224V125.152ZM252.224 127.152L251.224 129.152H252.224V127.152Z" fill="#0D0D0D"/>
<path d="M245.224 107.152V108.152M256.224 118.152V119.152M252.224 127.152L253.224 125.152V127.152H252.224ZM252.224 127.152L251.224 129.152H252.224V127.152ZM225.724 0.152344L226.224 14.6523L225.224 15.6523V38.6523L226.224 39.6523L227.224 78.6523L228.224 80.6523L227.224 81.6523V98.1523L229.224 97.6523L228.224 94.6523L229.224 93.6523L231.224 59.6523L233.724 50.1523L234.224 58.6523L232.224 68.6523L231.224 92.6523H232.224L237.724 66.1523L238.224 72.1523C240.024 72.8857 240.69 72.3857 240.224 70.6523L241.724 68.1523L242.224 69.6523L241.224 71.6523L242.224 75.6523L240.224 81.6523L241.224 85.6523L239.224 92.6523V98.6523L241.224 97.6523L245.224 84.6523V76.6523C247.957 71.0523 249.624 64.3857 250.224 56.6523L254.224 47.6523V43.6523L257.724 33.1523L258.224 37.6523C255.424 44.8523 253.757 53.1857 253.224 62.6523L248.224 75.6523V81.6523H249.224L251.224 72.6523L253.724 68.1523L254.224 70.6523L251.224 76.6523L246.224 95.6523L248.224 94.6523L249.724 91.1523L250.224 92.6523C247.49 95.919 245.824 100.252 245.224 105.652H246.224L253.224 90.6523L257.724 74.1523L258.224 77.6523L255.224 87.6523L256.224 89.6523L254.224 94.6523L256.224 93.6523L264.224 77.6523L267.224 66.6523L278.224 46.6523L287.724 19.1523L288.224 21.6523L278.224 48.6523C278.89 52.6523 278.224 55.319 276.224 56.6523V62.6523L277.224 65.6523C276.357 70.4523 274.357 74.119 271.224 76.6523L263.224 101.652H264.224L272.724 82.1523L273.224 84.6523L261.224 112.652L254.224 124.652L251.224 135.152L249.224 134.652C251.09 134.186 251.757 132.519 251.224 129.652L250.224 126.652L261.224 90.6523L259.224 91.6523L258.224 96.6523L250.224 112.652L248.224 120.652L243.724 128.152L243.224 126.652L244.224 124.652L242.224 115.652L243.224 110.652L241.224 111.652L238.724 116.152L237.724 114.152L236.224 121.652L233.224 125.652L232.224 131.652L230.724 133.152L230.224 131.652C233.49 126.586 235.157 119.919 235.224 111.652H233.224L234.224 101.652V99.6523L233.724 91.1523L231.224 104.652L226.224 120.652L224.724 134.152L222.224 129.652V116.652H223.224L223.724 118.152C225.59 114.686 226.09 109.852 225.224 103.652H224.224L223.724 105.152L223.224 103.652L224.224 102.652L225.224 78.6523H223.224L224.224 76.6523L222.724 72.1523L218.724 134.152L217.224 130.652V102.652L218.224 101.652V75.6523L219.224 74.6523V46.6523L222.224 36.6523L223.224 8.65234L225.724 0.152344ZM224.224 66.1523L223.224 68.1523H224.224V66.1523ZM224.224 69.1523L223.224 71.1523H224.224V69.1523ZM239.224 74.1523C238.557 76.1523 239.224 76.819 241.224 76.1523C241.89 74.1523 241.224 73.4857 239.224 74.1523ZM246.224 90.1523L244.224 94.1523L246.224 93.1523V90.1523ZM244.224 108.152L243.224 110.152H244.224V108.152ZM239.224 111.152L238.224 113.152H239.224V111.152Z" stroke="#0D0D0D" stroke-width="1.08"/>
</g>
<g opacity="0.996078">
<path d="M109.724 16.1523L115.224 19.6523L118.224 26.6523L139.224 55.6523H137.224L140.224 63.1523C142.024 63.8857 142.69 63.3857 142.224 61.6523L141.224 59.6523H142.224L145.224 68.6523L152.724 80.1523L153.224 77.6523L152.224 74.6523H153.224L157.224 84.6523L173.724 112.152L174.224 109.652L163.224 83.6523L160.224 79.6523L158.224 71.6523H159.224C163.624 77.919 166.957 85.2523 169.224 93.6523L180.724 113.152L181.224 111.652L172.224 86.6523L173.224 82.1523C175.224 81.3523 175.89 82.1857 175.224 84.6523L180.224 100.652L184.724 108.152L185.224 104.652C183.024 102.186 182.357 98.1857 183.224 92.6523L184.224 86.6523L182.224 78.6523V68.6523L177.224 52.6523L176.224 40.6523L173.224 32.6523V26.6523L171.224 18.6523L173.224 19.6523L183.224 47.1523C185.424 46.2857 186.09 47.4523 185.224 50.6523L189.224 55.6523L196.724 82.1523L197.224 71.6523L196.224 69.6523L197.224 65.6523L193.224 44.6523L192.224 26.1523L194.224 26.6523V33.6523L195.224 34.6523V49.6523L198.224 57.6523V65.6523L199.224 66.6523L200.224 98.6523L202.224 102.652L204.224 119.652L202.724 119.152C200.99 119.686 200.49 118.852 201.224 116.652L199.224 111.652L197.224 96.6523L190.224 66.6523L184.724 54.1523L184.224 56.6523L190.224 80.6523L194.224 104.652L199.224 119.652V124.652H198.224L190.224 105.652L186.224 85.6523L186.724 84.1523L185.224 84.6523V93.6523C187.024 95.8523 187.69 99.1857 187.224 103.652L194.224 119.652L193.224 121.652L196.224 134.652H195.224L191.224 126.652L186.724 111.152L185.724 113.152L184.724 111.152L183.724 114.152L181.224 113.152L182.724 116.152C184.257 115.686 184.757 116.186 184.224 117.652L183.224 119.652C186.69 123.586 189.024 128.586 190.224 134.652H189.224L185.724 129.152L183.224 127.652L176.724 117.152L175.224 117.652L183.224 137.652L181.724 140.152L167.224 114.652L163.224 104.152H161.224V101.152C159.224 102.019 158.557 101.186 159.224 98.6523L156.224 97.1523L159.224 105.652L167.224 118.652L166.224 122.652V124.652L175.224 142.652V145.652H174.224L162.224 131.652L155.724 119.152C154.257 119.686 153.757 121.186 154.224 123.652L168.224 146.652L166.724 147.152L147.224 125.652L110.224 66.6523L112.224 67.6523L139.724 108.152L140.224 106.652L132.224 90.6523H133.224L148.724 111.152L150.224 110.652V108.652L141.224 94.6523L140.224 90.6523L144.224 93.6523L150.724 103.152L151.224 101.652L141.724 87.1523L136.224 82.6523L135.224 80.6523L137.224 80.1523L136.224 76.6523L140.224 79.6523L141.724 82.1523L144.224 83.6523L146.724 88.1523L147.224 86.6523L136.224 64.6523L131.224 58.6523L118.224 29.6523L109.224 17.6523L109.724 16.1523ZM141.224 65.1523L143.224 73.1523H144.224L141.224 65.1523ZM154.224 80.1523L153.224 83.1523L158.224 96.1523H159.224V92.1523L154.224 80.1523ZM148.224 88.1523L147.224 90.1523H148.224V88.1523ZM149.224 90.1523V94.1523H150.224L149.224 90.1523ZM156.224 95.1523L155.224 97.1523H156.224V95.1523ZM153.224 104.152L155.224 112.152L157.224 113.152C156.557 109.152 155.224 106.152 153.224 104.152ZM176.224 114.152L175.224 116.152H176.224V114.152ZM191.224 115.152V121.152H192.224L191.224 115.152Z" fill="#0D0D0D"/>
<path d="M156.224 97.1523L159.224 98.6523C158.557 101.186 159.224 102.019 161.224 101.152V104.152H163.224L167.224 114.652L181.724 140.152L183.224 137.652L175.224 117.652L176.724 117.152L183.224 127.652L185.724 129.152L189.224 134.652H190.224C189.024 128.586 186.69 123.586 183.224 119.652L184.224 117.652C184.757 116.186 184.257 115.686 182.724 116.152L181.224 113.152L183.724 114.152L184.724 111.152L185.724 113.152L186.724 111.152L191.224 126.652L195.224 134.652H196.224L193.224 121.652L194.224 119.652L187.224 103.652C187.69 99.1857 187.024 95.8523 185.224 93.6523V84.6523L186.724 84.1523L186.224 85.6523L190.224 105.652L198.224 124.652H199.224V119.652L194.224 104.652L190.224 80.6523L184.224 56.6523L184.724 54.1523L190.224 66.6523L197.224 96.6523L199.224 111.652L201.224 116.652C200.49 118.852 200.99 119.686 202.724 119.152L204.224 119.652L202.224 102.652L200.224 98.6523L199.224 66.6523L198.224 65.6523V57.6523L195.224 49.6523V34.6523L194.224 33.6523V26.6523L192.224 26.1523L193.224 44.6523L197.224 65.6523L196.224 69.6523L197.224 71.6523L196.724 82.1523L189.224 55.6523L185.224 50.6523C186.09 47.4523 185.424 46.2857 183.224 47.1523L173.224 19.6523L171.224 18.6523L173.224 26.6523V32.6523L176.224 40.6523L177.224 52.6523L182.224 68.6523V78.6523L184.224 86.6523L183.224 92.6523C182.357 98.1857 183.024 102.186 185.224 104.652L184.724 108.152L180.224 100.652L175.224 84.6523C175.89 82.1857 175.224 81.3523 173.224 82.1523L172.224 86.6523L181.224 111.652L180.724 113.152L169.224 93.6523C166.957 85.2523 163.624 77.919 159.224 71.6523H158.224L160.224 79.6523L163.224 83.6523L174.224 109.652L173.724 112.152L157.224 84.6523L153.224 74.6523H152.224L153.224 77.6523L152.724 80.1523L145.224 68.6523L142.224 59.6523H141.224L142.224 61.6523C142.69 63.3857 142.024 63.8857 140.224 63.1523L137.224 55.6523H139.224L118.224 26.6523L115.224 19.6523L109.724 16.1523L109.224 17.6523L118.224 29.6523L131.224 58.6523L136.224 64.6523L147.224 86.6523L146.724 88.1523L144.224 83.6523L141.724 82.1523L140.224 79.6523L136.224 76.6523L137.224 80.1523L135.224 80.6523L136.224 82.6523L141.724 87.1523L151.224 101.652L150.724 103.152L144.224 93.6523L140.224 90.6523L141.224 94.6523L150.224 108.652V110.652L148.724 111.152L133.224 90.6523H132.224L140.224 106.652L139.724 108.152L112.224 67.6523L110.224 66.6523L147.224 125.652L166.724 147.152L168.224 146.652L154.224 123.652C153.757 121.186 154.257 119.686 155.724 119.152L162.224 131.652L174.224 145.652H175.224V142.652L166.224 124.652V122.652L167.224 118.652L159.224 105.652L156.224 97.1523ZM156.224 97.1523H155.224L156.224 95.1523V97.1523ZM184.224 53.1523V54.1523M140.224 64.1523V65.1523M145.224 73.1523V74.1523M175.224 112.152V113.152M154.224 116.152V117.152M165.224 121.152V122.152M161.224 123.152V124.152M141.224 65.1523L143.224 73.1523H144.224L141.224 65.1523ZM154.224 80.1523L153.224 83.1523L158.224 96.1523H159.224V92.1523L154.224 80.1523ZM148.224 88.1523L147.224 90.1523H148.224V88.1523ZM149.224 90.1523V94.1523H150.224L149.224 90.1523ZM153.224 104.152L155.224 112.152L157.224 113.152C156.557 109.152 155.224 106.152 153.224 104.152ZM176.224 114.152L175.224 116.152H176.224V114.152ZM191.224 115.152V121.152H192.224L191.224 115.152Z" stroke="#0D0D0D" stroke-width="1.08"/>
</g>
<path opacity="0.996078" d="M201.724 17.1523L202.224 34.6523H201.224C199.357 31.8523 199.024 27.519 200.224 21.6523L201.724 17.1523Z" fill="#0D0D0D" stroke="#0D0D0D" stroke-width="1.08"/>
<g opacity="0.996078">
<path d="M359.724 23.1523L360.224 24.6523C355.09 34.8523 348.757 43.8523 341.224 51.6523L313.224 97.1523C315.024 97.8857 315.69 97.3857 315.224 95.6523L326.224 81.1523L331.224 77.6523L332.724 75.1523L332.224 76.6523L311.224 108.152L316.724 106.152L312.724 111.152C311.257 110.686 310.757 111.186 311.224 112.652L306.224 116.652L302.224 123.652L304.724 122.152L307.724 120.152L318.224 108.152L321.724 106.152L352.724 79.1523L352.224 80.6523L349.224 85.6523L322.224 114.652L323.224 116.652L304.224 137.652L314.724 128.152H317.724L324.724 122.152L319.724 129.152L344.724 110.152L340.724 115.152L334.224 120.652L333.224 124.152L329.224 125.652L330.724 126.152L342.724 120.152L366.724 100.152V102.152L397.724 78.1523L406.724 73.1523L404.724 76.1523L392.224 86.6523C393.757 87.519 393.59 88.3523 391.724 89.1523L390.224 88.6523L382.724 97.1523L346.224 125.652C345.757 127.186 346.257 127.686 347.724 127.152L357.724 119.152L354.224 123.652L350.724 128.152L346.724 129.152L340.224 134.152L340.724 137.152L351.724 130.152L357.724 128.152L359.724 129.152L361.224 128.652L335.224 145.652L335.724 147.152L362.724 133.152L358.724 138.152C350.724 143.952 341.89 148.619 332.224 152.152C331.424 154.152 332.257 154.819 334.724 154.152H336.724L387.724 131.152L385.724 134.152L349.724 150.152L342.724 155.152L324.724 162.152L318.224 166.152C317.424 168.152 318.257 168.819 320.724 168.152L323.224 166.652L322.724 165.152L324.724 166.152L328.724 163.152L342.724 159.152L346.724 160.152L360.724 155.152L359.724 157.152L329.224 169.152L330.224 171.652L325.224 173.652L330.724 175.152L331.724 173.152L333.724 174.152L336.724 172.152V174.152L363.724 169.152L364.724 171.152L362.224 171.652L367.724 172.152L377.724 169.152L395.724 167.152L418.724 161.152V162.152L376.724 179.152L339.724 187.152L332.724 190.152L311.724 192.152V191.152L323.724 186.152L337.724 184.152L344.724 181.152L355.724 180.152L368.224 175.652L363.724 175.152L356.724 177.152L343.724 178.152L328.724 182.152L316.724 183.152L295.724 189.152L296.724 187.152L307.724 180.152L325.224 174.652L322.724 174.152L295.724 182.152H293.724L290.724 183.152L291.724 181.152L307.724 175.152L317.224 168.652L315.724 168.152L304.224 173.152C305.09 171.152 304.257 170.486 301.724 171.152L300.224 171.652L301.224 169.652L299.724 169.152L292.724 173.152L293.724 171.152L315.224 157.652L313.724 157.152L302.724 163.152L296.724 164.152C294.724 163.152 294.724 162.152 296.724 161.152L302.224 158.652L300.724 158.152L299.224 158.652L319.724 141.152L329.724 135.152L344.224 123.152L343.724 121.152L322.724 136.152L309.724 142.152L287.724 158.152L287.224 156.152L290.224 154.652L288.724 154.152L278.724 161.152L287.224 151.652L296.724 141.152L302.224 138.152C306.224 131.086 311.557 124.919 318.224 119.652V117.652L305.724 129.152L303.224 130.652L301.724 133.152L292.224 139.152L290.724 142.152L280.724 151.152L280.224 149.652L296.224 128.652H294.224L293.724 127.152C288.057 137.486 280.724 146.152 271.724 153.152L272.224 151.652L288.224 131.652L304.224 104.652L301.224 106.652C293.157 120.919 283.657 133.752 272.724 145.152C270.724 145.752 270.224 144.586 271.224 141.652C277.157 130.586 284.157 120.586 292.224 111.652V108.152L295.224 106.652L292.224 105.152L286.224 115.152L283.224 116.652L272.224 134.652L260.724 147.152L259.224 146.652L267.224 130.652L266.224 128.152L263.224 129.652L262.724 131.152L262.224 128.652C264.624 126.386 265.624 122.719 265.224 117.652H264.224L261.724 123.152L261.224 120.652L262.224 118.652H260.224L267.224 101.652L275.724 90.1523C277.257 90.6857 277.757 90.1857 277.224 88.6523L279.724 87.1523L282.224 88.6523L271.224 111.652L274.724 109.152L278.224 106.652C283.357 94.4523 289.857 83.619 297.724 74.1523L296.224 76.6523L293.224 85.6523L280.224 110.652V114.652L282.224 115.652L294.224 97.6523L305.224 85.1523L307.724 84.1523L308.224 86.6523L306.224 89.6523L310.224 86.6523L339.224 52.6523L359.724 23.1523ZM313.224 90.1523L312.224 92.1523H313.224V90.1523ZM305.224 91.1523L299.224 99.1523L300.224 100.152L305.224 93.1523V91.1523ZM275.224 96.1523L273.224 99.1523L275.224 98.1523V96.1523ZM309.224 97.1523L308.224 99.1523H309.224V97.1523ZM299.224 100.152L298.224 102.152H299.224V100.152ZM307.224 100.152L304.224 104.152L307.224 102.152V100.152ZM298.224 102.152L296.224 105.152L298.224 104.152V102.152ZM348.224 117.152L346.224 120.152L349.224 118.152L348.224 117.152ZM273.224 120.152L269.224 128.152L270.224 130.152L276.224 121.152L273.224 120.152ZM302.224 124.152L301.224 126.152H302.224V124.152ZM342.224 126.152V128.152L344.224 127.152L342.224 126.152ZM300.224 127.152L297.224 131.152L300.224 129.152V127.152ZM342.224 129.152L304.224 156.152L303.224 158.152L333.224 139.152L342.224 131.152V129.152ZM302.224 138.152V140.152L304.224 139.152L302.224 138.152ZM332.224 145.152V146.152H333.224L332.224 145.152ZM304.224 167.152L302.224 168.152V169.152L305.224 168.152L304.224 167.152ZM319.224 170.152V171.152H320.224L319.224 170.152ZM371.224 173.152L369.224 174.152V175.152L373.224 174.152L371.224 173.152ZM338.224 185.152V186.152H339.224L338.224 185.152ZM334.224 186.152V187.152H337.224L334.224 186.152ZM332.224 187.152V188.152H333.224L332.224 187.152Z" fill="#0D0D0D"/>
<path d="M311.224 108.152L332.224 76.6523L332.724 75.1523L331.224 77.6523L326.224 81.1523L315.224 95.6523C315.69 97.3857 315.024 97.8857 313.224 97.1523L341.224 51.6523C348.757 43.8523 355.09 34.8523 360.224 24.6523L359.724 23.1523L339.224 52.6523L310.224 86.6523L306.224 89.6523L308.224 86.6523L307.724 84.1523L305.224 85.1523L294.224 97.6523L282.224 115.652L280.224 114.652V110.652L293.224 85.6523L296.224 76.6523L297.724 74.1523C289.857 83.619 283.357 94.4523 278.224 106.652L274.724 109.152L271.224 111.652L282.224 88.6523L279.724 87.1523L277.224 88.6523C277.757 90.1857 277.257 90.6857 275.724 90.1523L267.224 101.652L260.224 118.652H262.224L261.224 120.652L261.724 123.152L264.224 117.652H265.224C265.624 122.719 264.624 126.386 262.224 128.652L262.724 131.152L263.224 129.652L266.224 128.152L267.224 130.652L259.224 146.652L260.724 147.152L272.224 134.652L283.224 116.652L286.224 115.152L292.224 105.152L295.224 106.652L292.224 108.152V111.652C284.157 120.586 277.157 130.586 271.224 141.652C270.224 144.586 270.724 145.752 272.724 145.152C283.657 133.752 293.157 120.919 301.224 106.652L304.224 104.652L288.224 131.652L272.224 151.652L271.724 153.152C280.724 146.152 288.057 137.486 293.724 127.152L294.224 128.652H296.224L280.224 149.652L280.724 151.152L290.724 142.152L292.224 139.152L301.724 133.152L303.224 130.652L305.724 129.152L318.224 117.652V119.652C311.557 124.919 306.224 131.086 302.224 138.152M311.224 108.152L316.724 106.152L312.724 111.152C311.257 110.686 310.757 111.186 311.224 112.652L306.224 116.652L302.224 123.652L304.724 122.152L307.724 120.152L318.224 108.152L321.724 106.152L352.724 79.1523L352.224 80.6523L349.224 85.6523L322.224 114.652L323.224 116.652L304.224 137.652L314.724 128.152H317.724L324.724 122.152L319.724 129.152L344.724 110.152L340.724 115.152L334.224 120.652L333.224 124.152L329.224 125.652L330.724 126.152L342.724 120.152L366.724 100.152V102.152L397.724 78.1523L406.724 73.1523L404.724 76.1523L392.224 86.6523C393.757 87.519 393.59 88.3523 391.724 89.1523L390.224 88.6523L382.724 97.1523L346.224 125.652C345.757 127.186 346.257 127.686 347.724 127.152L357.724 119.152L354.224 123.652L350.724 128.152L346.724 129.152L340.224 134.152L340.724 137.152L351.724 130.152L357.724 128.152L359.724 129.152L361.224 128.652L335.224 145.652L335.724 147.152L362.724 133.152L358.724 138.152C350.724 143.952 341.89 148.619 332.224 152.152C331.424 154.152 332.257 154.819 334.724 154.152H336.724L387.724 131.152L385.724 134.152L349.724 150.152L342.724 155.152L324.724 162.152L318.224 166.152C317.424 168.152 318.257 168.819 320.724 168.152L323.224 166.652L322.724 165.152L324.724 166.152L328.724 163.152L342.724 159.152L346.724 160.152L360.724 155.152L359.724 157.152L329.224 169.152L330.224 171.652L325.224 173.652L330.724 175.152L331.724 173.152L333.724 174.152L336.724 172.152V174.152L363.724 169.152L364.724 171.152L362.224 171.652L367.724 172.152L377.724 169.152L395.724 167.152L418.724 161.152V162.152L376.724 179.152L339.724 187.152L332.724 190.152L311.724 192.152V191.152L323.724 186.152L337.724 184.152L344.724 181.152L355.724 180.152L368.224 175.652L363.724 175.152L356.724 177.152L343.724 178.152L328.724 182.152L316.724 183.152L295.724 189.152L296.724 187.152L307.724 180.152L325.224 174.652L322.724 174.152L295.724 182.152H293.724L290.724 183.152L291.724 181.152L307.724 175.152L317.224 168.652L315.724 168.152L304.224 173.152C305.09 171.152 304.257 170.486 301.724 171.152L300.224 171.652L301.224 169.652L299.724 169.152L292.724 173.152L293.724 171.152L315.224 157.652L313.724 157.152L302.724 163.152L296.724 164.152C294.724 163.152 294.724 162.152 296.724 161.152L302.224 158.652L300.724 158.152L299.224 158.652L319.724 141.152L329.724 135.152L344.224 123.152L343.724 121.152L322.724 136.152L309.724 142.152L287.724 158.152L287.224 156.152L290.224 154.652L288.724 154.152L278.724 161.152L287.224 151.652L296.724 141.152L302.224 138.152M311.224 108.152V109.152M302.224 138.152V140.152L304.224 139.152L302.224 138.152ZM392.224 87.1523V88.1523M314.224 89.1523V90.1523M306.224 90.1523V91.1523M277.224 94.1523V95.1523M276.224 95.1523V96.1523M308.224 99.1523L309.224 97.1523V99.1523H308.224ZM308.224 99.1523V100.152M298.224 102.152L299.224 100.152V102.152H298.224ZM298.224 102.152L296.224 105.152M298.224 102.152V104.152L296.224 105.152M296.224 105.152V106.152M366.224 102.152V103.152M271.224 112.152V113.152M266.224 116.152V117.152M350.224 116.152V117.152M345.224 120.152V121.152M301.224 126.152L302.224 124.152V126.152H301.224ZM301.224 126.152V127.152M297.224 127.152V128.152M297.224 131.152L300.224 127.152V129.152L297.224 131.152ZM297.224 131.152V132.152M346.224 127.152V128.152M319.224 129.152V130.152M315.224 130.152V131.152M296.224 132.152V133.152M312.224 139.152V140.152M334.224 144.152V145.152M313.224 90.1523L312.224 92.1523H313.224V90.1523ZM305.224 91.1523L299.224 99.1523L300.224 100.152L305.224 93.1523V91.1523ZM275.224 96.1523L273.224 99.1523L275.224 98.1523V96.1523ZM307.224 100.152L304.224 104.152L307.224 102.152V100.152ZM348.224 117.152L346.224 120.152L349.224 118.152L348.224 117.152ZM273.224 120.152L269.224 128.152L270.224 130.152L276.224 121.152L273.224 120.152ZM342.224 126.152V128.152L344.224 127.152L342.224 126.152ZM342.224 129.152L304.224 156.152L303.224 158.152L333.224 139.152L342.224 131.152V129.152ZM332.224 145.152V146.152H333.224L332.224 145.152ZM304.224 167.152L302.224 168.152V169.152L305.224 168.152L304.224 167.152ZM319.224 170.152V171.152H320.224L319.224 170.152ZM371.224 173.152L369.224 174.152V175.152L373.224 174.152L371.224 173.152ZM338.224 185.152V186.152H339.224L338.224 185.152ZM334.224 186.152V187.152H337.224L334.224 186.152ZM332.224 187.152V188.152H333.224L332.224 187.152Z" stroke="#0D0D0D" stroke-width="1.08"/>
</g>
<g opacity="0.996078">
<path d="M21.2236 49.1523L47.2236 72.1523L65.2236 81.1523L76.7236 91.6523L80.2236 96.1523L108.224 122.152L140.224 146.152L151.724 157.652L148.224 159.152L122.724 137.152L122.224 139.152L115.224 134.152L118.224 138.152L149.724 164.652L149.224 166.152C147.424 164.286 144.424 163.619 140.224 164.152L134.224 159.152H132.224L143.224 172.152C142.29 170.419 140.29 169.752 137.224 170.152L129.224 164.152L130.724 166.652C130.257 168.186 130.757 168.686 132.224 168.152L135.224 172.152L146.724 180.652L145.224 181.152L104.724 158.152V160.652L112.224 168.152L133.724 181.652L132.224 181.152C110.424 175.619 92.5903 166.119 78.7236 152.652L80.2236 152.152L98.2236 161.152L96.7236 158.652L91.2236 152.152L51.2236 126.152L51.7236 124.652L44.7236 119.652L40.7236 117.652L51.2236 126.152L51.7236 124.652L59.2236 130.152L106.224 154.152L102.224 149.152L99.7236 147.652L101.224 148.152L107.224 150.152L105.224 147.152L91.7236 136.652L93.2236 136.152L99.2236 139.152L114.224 151.152L113.724 149.652L111.724 146.652L113.224 147.152L115.724 148.652C115.257 150.186 115.757 150.686 117.224 150.152L120.224 152.152L114.224 145.152L105.724 138.652L104.224 136.152L91.7236 125.652L93.2236 125.152L118.224 143.152L118.724 141.652C117.19 138.919 114.857 137.419 111.724 137.152L107.224 131.152L89.7236 116.652L92.7236 115.652L90.2236 115.152L82.7236 107.652L79.7236 101.152L54.2236 83.1523L25.7236 56.6523L21.2236 49.1523ZM105.724 126.152L113.724 134.152H114.724L105.724 126.152ZM115.724 143.152V144.152H116.724L115.724 143.152ZM119.724 143.152V144.152H120.724L119.724 143.152ZM118.724 145.152L121.724 149.152C123.057 149.819 123.39 149.152 122.724 147.152L118.724 145.152ZM115.724 151.152L117.724 154.152H118.724L115.724 151.152ZM99.7236 161.152L100.724 163.152H101.724L99.7236 161.152ZM117.724 161.152L116.724 163.152L119.724 164.152L117.724 161.152ZM126.724 164.152V165.152H127.724L126.724 164.152Z" fill="#0D0D0D"/>
<path d="M122.724 137.152L148.224 159.152L151.724 157.652L140.224 146.152L108.224 122.152L80.2236 96.1523L76.7236 91.6523L65.2236 81.1523L47.2236 72.1523L21.2236 49.1523L25.7236 56.6523L54.2236 83.1523L79.7236 101.152L82.7236 107.652L90.2236 115.152L92.7236 115.652L89.7236 116.652L107.224 131.152L111.724 137.152C114.857 137.419 117.19 138.919 118.724 141.652L118.224 143.152L93.2236 125.152L91.7236 125.652L104.224 136.152L105.724 138.652L114.224 145.152L120.224 152.152M122.724 137.152L122.224 139.152L115.224 134.152L118.224 138.152L149.724 164.652L149.224 166.152C147.424 164.286 144.424 163.619 140.224 164.152L134.224 159.152H132.224L143.224 172.152C142.29 170.419 140.29 169.752 137.224 170.152L129.224 164.152L130.724 166.652C130.257 168.186 130.757 168.686 132.224 168.152L135.224 172.152L146.724 180.652L145.224 181.152L104.724 158.152V160.652L112.224 168.152L133.724 181.652L132.224 181.152C110.424 175.619 92.5903 166.119 78.7236 152.652L80.2236 152.152L98.2236 161.152L96.7236 158.652L91.2236 152.152L51.2236 126.152M122.724 137.152L122.224 132.152M51.2236 126.152L51.7236 124.652M51.2236 126.152L40.7236 117.652L44.7236 119.652L51.7236 124.652M51.7236 124.652L59.2236 130.152L106.224 154.152L102.224 149.152L99.7236 147.652L101.224 148.152L107.224 150.152L105.224 147.152L91.7236 136.652L93.2236 136.152L99.2236 139.152L114.224 151.152L113.724 149.652L111.724 146.652L113.224 147.152L115.724 148.652C115.257 150.186 115.757 150.686 117.224 150.152L120.224 152.152M120.224 152.152V151.152M117.224 140.152V141.152M121.224 140.152V141.152M108.224 146.152V147.152M119.224 150.152V151.152M149.224 153.152V154.152M102.224 159.152V160.152M120.224 160.152V161.152M121.224 161.152V162.152M105.724 126.152L113.724 134.152H114.724L105.724 126.152ZM115.724 143.152V144.152H116.724L115.724 143.152ZM119.724 143.152V144.152H120.724L119.724 143.152ZM118.724 145.152L121.724 149.152C123.057 149.819 123.39 149.152 122.724 147.152L118.724 145.152ZM115.724 151.152L117.724 154.152H118.724L115.724 151.152ZM99.7236 161.152L100.724 163.152H101.724L99.7236 161.152ZM117.724 161.152L116.724 163.152L119.724 164.152L117.724 161.152ZM126.724 164.152V165.152H127.724L126.724 164.152Z" stroke="#0D0D0D" stroke-width="1.08"/>
</g>
<path opacity="0.996078" d="M202.724 55.1523L205.224 66.6523V78.6523L207.224 87.6523L209.224 90.6523L210.224 131.652L211.224 136.652H210.224L207.224 128.652V104.652L203.224 78.6523L202.724 55.1523Z" fill="#0D0D0D" stroke="#0D0D0D" stroke-width="1.08"/>
<g opacity="0.996078">
<path d="M86.7236 57.1523L123.224 98.6523L165.224 156.652L162.724 157.152L150.224 146.652L152.224 145.652L147.724 140.152L147.224 141.652L149.224 144.652L141.724 138.152L129.224 129.152L127.224 124.152L124.724 123.152L123.224 123.652L124.224 122.652L120.724 119.152L108.224 107.652L103.224 101.652C104.89 100.652 104.557 99.6523 102.224 98.6523L101.224 96.6523L107.224 101.652L110.724 106.152L126.724 120.152L127.224 118.652L123.724 114.152H122.224L120.224 110.652L107.224 95.1523L120.224 106.652L138.224 126.652L136.224 127.652L146.724 140.152L147.224 138.652L141.224 131.652L139.224 125.652C134.824 122.052 131.49 117.386 129.224 111.652C117.69 96.1857 105.024 81.8523 91.2236 68.6523L92.2236 66.6523L86.2236 58.6523L86.7236 57.1523Z" fill="#0D0D0D"/>
<path d="M134.224 125.152V126.152M86.7236 57.1523L123.224 98.6523L165.224 156.652L162.724 157.152L150.224 146.652L152.224 145.652L147.724 140.152L147.224 141.652L149.224 144.652L141.724 138.152L129.224 129.152L127.224 124.152L124.724 123.152L123.224 123.652L124.224 122.652L120.724 119.152L108.224 107.652L103.224 101.652C104.89 100.652 104.557 99.6523 102.224 98.6523L101.224 96.6523L107.224 101.652L110.724 106.152L126.724 120.152L127.224 118.652L123.724 114.152H122.224L120.224 110.652L107.224 95.1523L120.224 106.652L138.224 126.652L136.224 127.652L146.724 140.152L147.224 138.652L141.224 131.652L139.224 125.652C134.824 122.052 131.49 117.386 129.224 111.652C117.69 96.1857 105.024 81.8523 91.2236 68.6523L92.2236 66.6523L86.2236 58.6523L86.7236 57.1523Z" stroke="#0D0D0D" stroke-width="1.08"/>
</g>
<path opacity="0.996078" d="M211.724 73.1523L213.224 74.6523V114.652L212.224 117.652H213.224L213.724 116.152L214.224 123.652L212.724 126.152L211.224 120.652L211.724 73.1523Z" fill="#0D0D0D" stroke="#0D0D0D" stroke-width="1.08"/>
<path opacity="0.996078" d="M15.7236 138.152C20.7236 141.152 26.7236 143.152 33.7236 144.152L44.7236 150.152L95.7236 171.152L94.7236 169.152L79.7236 162.152L70.2236 155.652L72.2236 155.152C71.357 157.352 72.5236 158.019 75.7236 157.152L91.7236 163.152L132.224 185.152L131.724 187.152L74.7236 166.152L75.7236 168.152L78.2236 169.652L76.7236 170.152L32.7236 149.152L15.7236 139.152V138.152Z" fill="#0D0D0D" stroke="#0D0D0D" stroke-width="1.08"/>
<g opacity="0.996078">
<path d="M212.724 151.152L219.724 152.152L220.724 151.152H232.724L249.724 156.152L258.224 161.652L256.224 162.652L264.224 166.152C263.49 167.952 263.99 168.619 265.724 168.152L280.224 180.652L291.224 204.652L294.224 218.652V224.652V226.652L295.224 229.652V231.652L294.224 239.652L295.224 241.652L287.724 262.152L286.724 260.152L285.224 263.652H287.224C283.224 274.319 277.057 282.819 268.724 289.152C267.39 291.019 265.224 291.686 262.224 291.152L259.724 295.152H256.724L251.724 299.152L240.724 302.152H238.724L234.724 303.152L232.724 302.152L231.724 303.152L222.224 303.652L222.724 305.152H218.724C219.39 303.286 218.39 302.619 215.724 303.152L210.724 305.152L209.724 304.152L196.724 303.152L181.224 298.152C182.224 295.686 181.724 294.686 179.724 295.152C171.99 291.552 165.824 286.386 161.224 279.652L151.224 264.652V261.652L148.224 258.652L145.224 249.652L142.224 237.652C143.357 229.186 143.024 222.186 141.224 216.652L146.224 203.652V201.652L154.224 183.652L165.724 170.152L168.224 169.652C166.357 168.519 166.857 167.352 169.724 166.152L180.224 161.152C179.49 159.352 179.99 158.686 181.724 159.152L194.724 154.152L195.224 157.152L203.724 156.152L212.724 151.152ZM192.224 157.152L175.224 168.152C173.224 167.486 172.557 168.152 173.224 170.152L165.224 176.152C165.89 177.486 165.224 177.819 163.224 177.152L157.224 189.152V190.152L160.224 188.152L164.224 180.152C172.224 170.152 182.557 162.819 195.224 158.152L192.224 157.152ZM243.224 157.152L242.224 159.152H246.224L243.224 157.152ZM247.224 159.152V160.152H248.224L247.224 159.152ZM217.224 160.152L208.224 162.152L207.224 164.152L220.224 162.152H228.224L229.224 163.152H237.224C231.89 160.486 225.224 159.486 217.224 160.152ZM254.224 163.152L249.224 165.152C252.557 165.152 255.224 166.486 257.224 169.152L259.224 168.152L268.224 176.152C269.557 175.486 269.89 176.152 269.224 178.152L273.224 180.152V179.152C268.557 171.819 262.224 166.486 254.224 163.152ZM272.224 181.152L274.224 187.152L280.224 191.152L276.224 185.152L272.224 181.152ZM183.224 184.152L181.224 187.152L184.224 185.152L183.224 184.152ZM177.224 185.152L176.224 187.152L178.224 186.152L177.224 185.152ZM173.224 187.152L171.224 188.152L159.224 207.152C158.557 208.486 159.224 208.819 161.224 208.152C163.89 199.486 168.557 192.819 175.224 188.152L173.224 187.152ZM177.224 190.152V192.152L179.224 191.152L177.224 190.152ZM278.224 192.152C278.89 195.486 280.557 198.152 283.224 200.152L284.224 207.152L288.224 208.152L287.224 207.152L288.224 203.152H287.224L281.224 195.152C281.89 191.819 280.89 190.819 278.224 192.152ZM153.224 194.152L146.224 209.152L145.224 214.152C143.89 217.486 144.557 218.819 147.224 218.152L145.224 223.152L146.224 225.152L145.224 227.152V232.152L150.224 253.152L156.224 265.152L158.224 266.152L150.224 247.152C151.557 242.486 150.89 240.486 148.224 241.152L147.224 234.152V223.152L149.224 221.152V210.152L155.224 198.152H154.224L155.224 196.152C155.89 194.152 155.224 193.486 153.224 194.152ZM172.224 197.152L171.224 199.152H172.224V197.152ZM171.224 199.152L168.224 203.152L171.224 201.152V199.152ZM159.224 208.152L158.224 210.152H159.224V208.152ZM158.224 211.152L157.224 213.152H158.224V211.152ZM291.224 213.152L288.224 217.152C287.557 219.152 288.224 219.819 290.224 219.152L289.224 224.152L290.224 228.152C290.89 229.486 290.224 229.819 288.224 229.152V234.152V236.152L284.224 250.152L285.224 253.152L284.224 257.152L277.224 268.152L278.224 269.152L284.224 259.152H286.224L288.224 255.152C288.224 249.152 289.224 244.486 291.224 241.152V233.152V231.152L292.224 228.152L291.224 213.152ZM294.224 228.152L293.224 230.152H294.224V228.152ZM293.224 238.152L292.224 240.152H293.224V238.152ZM145.224 240.152L144.224 243.152H145.224V240.152ZM292.224 243.152L291.224 246.152H292.224V243.152ZM291.224 246.152L290.224 248.152H291.224V246.152ZM284.224 265.152L283.224 267.152H284.224V265.152ZM159.224 266.152L158.224 268.152L162.224 274.152L164.224 275.152L159.224 266.152ZM277.224 269.152L273.224 274.152L261.224 282.152L259.224 285.152L261.224 284.152L262.224 285.152L257.224 288.152L249.224 289.152L245.224 291.152L244.224 293.152L246.224 292.152V294.152L249.224 293.152C250.557 293.819 250.89 293.152 250.224 291.152L253.224 292.152L259.224 289.152H262.224L267.224 283.152C268.557 282.486 268.89 283.486 268.224 286.152V287.152L274.224 282.152L271.224 281.152V283.152L270.224 281.152L273.224 279.152L278.224 272.152L277.224 269.152ZM278.224 275.152L277.224 277.152H278.224V275.152ZM259.224 277.152V278.152H260.224L259.224 277.152ZM277.224 277.152L274.224 281.152L277.224 279.152V277.152ZM166.224 278.152C165.557 280.152 166.224 280.819 168.224 280.152L173.224 286.152L172.224 287.152L176.224 292.152L207.224 303.152L210.224 302.152L209.224 301.152H211.224H224.224L244.224 295.152V294.152L238.224 295.152H236.224L231.224 298.152H228.224L230.224 297.152V296.152L219.224 298.152H213.224L203.224 295.152L204.224 298.152L198.224 296.152C196.89 297.486 195.89 297.152 195.224 295.152L193.224 296.152L192.224 294.152C189.557 294.819 187.557 294.152 186.224 292.152L184.224 293.152L181.224 292.152V291.152L183.224 292.152H184.224L183.224 289.152L180.224 288.152C176.224 283.486 171.557 280.152 166.224 278.152ZM256.224 278.152L255.224 280.152L257.224 279.152L256.224 278.152ZM253.224 280.152L251.224 281.152V282.152L254.224 281.152L253.224 280.152ZM249.224 282.152V283.152H250.224L249.224 282.152ZM239.224 288.152L238.224 290.152L241.224 289.152L239.224 288.152ZM247.224 297.152L246.224 299.152L248.224 298.152L247.224 297.152Z" fill="#0D0D0D"/>
<path d="M250.224 160.152V161.152M249.224 163.152V164.152M169.224 168.152V169.152M185.224 183.152V184.152M179.224 184.152V185.152M181.224 187.152L183.224 184.152L184.224 185.152L181.224 187.152ZM181.224 187.152V188.152M176.224 193.152V194.152M174.224 195.152V196.152M173.224 196.152V197.152M171.224 199.152L172.224 197.152V199.152H171.224ZM171.224 199.152L168.224 203.152M171.224 199.152V201.152L168.224 203.152M168.224 203.152V204.152M149.224 228.152V229.152M291.224 246.152L292.224 243.152V246.152H291.224ZM291.224 246.152L290.224 248.152H291.224V246.152ZM285.224 260.152V261.152M283.224 267.152L284.224 265.152V267.152H283.224ZM283.224 267.152V268.152M279.224 270.152V271.152M165.224 275.152V276.152M277.224 277.152L278.224 275.152V277.152H277.224ZM277.224 277.152L274.224 281.152L277.224 279.152V277.152ZM166.224 276.152V277.152M247.224 283.152V284.152M258.224 285.152V286.152M267.224 287.152V288.152M266.224 288.152V289.152M237.224 293.152V294.152M212.724 151.152L219.724 152.152L220.724 151.152H232.724L249.724 156.152L258.224 161.652L256.224 162.652L264.224 166.152C263.49 167.952 263.99 168.619 265.724 168.152L280.224 180.652L291.224 204.652L294.224 218.652V224.652V226.652L295.224 229.652V231.652L294.224 239.652L295.224 241.652L287.724 262.152L286.724 260.152L285.224 263.652H287.224C283.224 274.319 277.057 282.819 268.724 289.152C267.39 291.019 265.224 291.686 262.224 291.152L259.724 295.152H256.724L251.724 299.152L240.724 302.152H238.724L234.724 303.152L232.724 302.152L231.724 303.152L222.224 303.652L222.724 305.152H218.724C219.39 303.286 218.39 302.619 215.724 303.152L210.724 305.152L209.724 304.152L196.724 303.152L181.224 298.152C182.224 295.686 181.724 294.686 179.724 295.152C171.99 291.552 165.824 286.386 161.224 279.652L151.224 264.652V261.652L148.224 258.652L145.224 249.652L142.224 237.652C143.357 229.186 143.024 222.186 141.224 216.652L146.224 203.652V201.652L154.224 183.652L165.724 170.152L168.224 169.652C166.357 168.519 166.857 167.352 169.724 166.152L180.224 161.152C179.49 159.352 179.99 158.686 181.724 159.152L194.724 154.152L195.224 157.152L203.724 156.152L212.724 151.152ZM192.224 157.152L175.224 168.152C173.224 167.486 172.557 168.152 173.224 170.152L165.224 176.152C165.89 177.486 165.224 177.819 163.224 177.152L157.224 189.152V190.152L160.224 188.152L164.224 180.152C172.224 170.152 182.557 162.819 195.224 158.152L192.224 157.152ZM243.224 157.152L242.224 159.152H246.224L243.224 157.152ZM247.224 159.152V160.152H248.224L247.224 159.152ZM217.224 160.152L208.224 162.152L207.224 164.152L220.224 162.152H228.224L229.224 163.152H237.224C231.89 160.486 225.224 159.486 217.224 160.152ZM254.224 163.152L249.224 165.152C252.557 165.152 255.224 166.486 257.224 169.152L259.224 168.152L268.224 176.152C269.557 175.486 269.89 176.152 269.224 178.152L273.224 180.152V179.152C268.557 171.819 262.224 166.486 254.224 163.152ZM272.224 181.152L274.224 187.152L280.224 191.152L276.224 185.152L272.224 181.152ZM177.224 185.152L176.224 187.152L178.224 186.152L177.224 185.152ZM173.224 187.152L171.224 188.152L159.224 207.152C158.557 208.486 159.224 208.819 161.224 208.152C163.89 199.486 168.557 192.819 175.224 188.152L173.224 187.152ZM177.224 190.152V192.152L179.224 191.152L177.224 190.152ZM278.224 192.152C278.89 195.486 280.557 198.152 283.224 200.152L284.224 207.152L288.224 208.152L287.224 207.152L288.224 203.152H287.224L281.224 195.152C281.89 191.819 280.89 190.819 278.224 192.152ZM153.224 194.152L146.224 209.152L145.224 214.152C143.89 217.486 144.557 218.819 147.224 218.152L145.224 223.152L146.224 225.152L145.224 227.152V232.152L150.224 253.152L156.224 265.152L158.224 266.152L150.224 247.152C151.557 242.486 150.89 240.486 148.224 241.152L147.224 234.152V223.152L149.224 221.152V210.152L155.224 198.152H154.224L155.224 196.152C155.89 194.152 155.224 193.486 153.224 194.152ZM159.224 208.152L158.224 210.152H159.224V208.152ZM158.224 211.152L157.224 213.152H158.224V211.152ZM291.224 213.152L288.224 217.152C287.557 219.152 288.224 219.819 290.224 219.152L289.224 224.152L290.224 228.152C290.89 229.486 290.224 229.819 288.224 229.152V234.152V236.152L284.224 250.152L285.224 253.152L284.224 257.152L277.224 268.152L278.224 269.152L284.224 259.152H286.224L288.224 255.152C288.224 249.152 289.224 244.486 291.224 241.152V233.152V231.152L292.224 228.152L291.224 213.152ZM294.224 228.152L293.224 230.152H294.224V228.152ZM293.224 238.152L292.224 240.152H293.224V238.152ZM145.224 240.152L144.224 243.152H145.224V240.152ZM159.224 266.152L158.224 268.152L162.224 274.152L164.224 275.152L159.224 266.152ZM277.224 269.152L273.224 274.152L261.224 282.152L259.224 285.152L261.224 284.152L262.224 285.152L257.224 288.152L249.224 289.152L245.224 291.152L244.224 293.152L246.224 292.152V294.152L249.224 293.152C250.557 293.819 250.89 293.152 250.224 291.152L253.224 292.152L259.224 289.152H262.224L267.224 283.152C268.557 282.486 268.89 283.486 268.224 286.152V287.152L274.224 282.152L271.224 281.152V283.152L270.224 281.152L273.224 279.152L278.224 272.152L277.224 269.152ZM259.224 277.152V278.152H260.224L259.224 277.152ZM166.224 278.152C165.557 280.152 166.224 280.819 168.224 280.152L173.224 286.152L172.224 287.152L176.224 292.152L207.224 303.152L210.224 302.152L209.224 301.152H211.224H224.224L244.224 295.152V294.152L238.224 295.152H236.224L231.224 298.152H228.224L230.224 297.152V296.152L219.224 298.152H213.224L203.224 295.152L204.224 298.152L198.224 296.152C196.89 297.486 195.89 297.152 195.224 295.152L193.224 296.152L192.224 294.152C189.557 294.819 187.557 294.152 186.224 292.152L184.224 293.152L181.224 292.152V291.152L183.224 292.152H184.224L183.224 289.152L180.224 288.152C176.224 283.486 171.557 280.152 166.224 278.152ZM256.224 278.152L255.224 280.152L257.224 279.152L256.224 278.152ZM253.224 280.152L251.224 281.152V282.152L254.224 281.152L253.224 280.152ZM249.224 282.152V283.152H250.224L249.224 282.152ZM239.224 288.152L238.224 290.152L241.224 289.152L239.224 288.152ZM247.224 297.152L246.224 299.152L248.224 298.152L247.224 297.152Z" stroke="#0D0D0D" stroke-width="1.08"/>
</g>
<path opacity="0.996078" d="M370.724 163.152L372.224 163.652L361.724 168.152L338.724 172.152V171.152L351.724 167.152H358.724L370.724 163.152Z" fill="#0D0D0D" stroke="#0D0D0D" stroke-width="1.08"/>
<path opacity="0.996078" d="M55.7236 167.152L74.7236 173.152L85.2236 178.652L82.7236 179.152L59.7236 170.152L55.7236 167.152Z" fill="#0D0D0D" stroke="#0D0D0D" stroke-width="1.08"/>
<path opacity="0.996078" d="M76.7236 171.152L80.7236 172.152L82.7236 171.152L83.7236 174.152L85.7236 173.152V175.152H89.7236L96.7236 178.152L124.224 193.652L122.724 194.152L115.724 191.152V192.152L117.224 192.652L115.724 193.152L108.724 190.152L93.7236 188.152L72.2236 179.652L73.7236 179.152L98.7236 187.152L106.724 188.152V187.152L94.7236 183.152L83.7236 175.152L76.7236 172.152V171.152ZM82.2236 172.152V173.152H83.2236L82.2236 172.152ZM113.224 189.152L114.224 191.152H115.224L113.224 189.152Z" fill="#0D0D0D" stroke="#0D0D0D" stroke-width="1.08"/>
<path opacity="0.996078" d="M39.7236 174.152L70.7236 181.152L80.7236 186.152L103.724 192.152L128.224 203.652C127.424 205.519 126.59 205.686 125.724 204.152L118.724 203.152L115.724 201.152L94.7236 195.152L95.7236 197.152L114.224 202.652L109.224 203.652L113.224 204.652L107.724 205.152L86.7236 199.152L84.7236 200.152L82.7236 198.152L73.7236 197.152L54.2236 191.652L58.7236 191.152L78.7236 196.152H90.7236L93.2236 194.652L70.7236 188.152L64.2236 184.652L66.2236 183.652C58.557 179.652 49.7236 176.819 39.7236 175.152V174.152Z" fill="#0D0D0D" stroke="#0D0D0D" stroke-width="1.08"/>
<g opacity="0.996078">
<path d="M380.724 179.152L382.224 179.652L360.724 188.152H355.724L348.224 190.652L355.724 191.152L358.224 190.152C358.957 191.952 358.457 192.619 356.724 192.152V193.152L376.724 192.152L377.724 193.152H386.724L391.724 192.152L394.224 193.652C389.957 195.719 384.124 196.219 376.724 195.152L367.724 193.152L355.224 197.652C354.69 199.386 355.524 199.886 357.724 199.152L361.224 200.652C356.624 202.852 350.624 203.352 343.224 202.152L343.724 204.152H375.724V205.152H367.724L350.724 208.152H348.724L346.224 208.652L350.724 210.152L364.224 210.652L361.224 211.652L366.224 213.652L358.224 214.652L362.724 217.152L387.224 219.652L382.224 220.652L387.224 222.652L387.724 224.152H401.724L402.724 225.152C410.857 224.352 417.524 225.019 422.724 227.152L428.724 226.152L438.224 227.652L428.724 229.152H384.724L383.724 228.152H374.724L355.724 225.152V226.152L389.224 231.652L382.724 232.152L381.724 231.152L349.724 229.152L343.724 227.152L341.724 228.152L330.724 226.152L326.724 224.152L311.724 222.152L310.224 220.652L317.724 220.152L322.724 221.152L323.724 220.152H332.724L336.724 221.152L337.724 220.152H345.724V222.152L353.224 221.652L347.224 220.652L352.724 219.152C357.257 221.286 363.257 221.952 370.724 221.152V220.152L360.724 219.152L350.724 216.152L329.724 215.152L316.224 212.652L325.224 212.152L324.724 210.152H317.724L318.724 208.152L329.224 207.152L329.724 205.152L335.224 206.152C336.09 204.152 335.257 203.486 332.724 204.152L330.224 203.152C331.424 199.886 329.924 198.886 325.724 200.152C322.59 202.686 317.59 203.352 310.724 202.152L301.224 200.652L315.724 198.152L331.724 193.152H336.724L342.724 190.152L353.724 188.152L380.724 179.152ZM342.224 197.152L340.224 198.152L336.224 200.152H344.224V198.152L342.224 197.152ZM347.224 198.152L348.224 199.152C348.89 200.486 349.557 200.486 350.224 199.152L347.224 198.152ZM337.224 222.152V223.152H339.224L337.224 222.152Z" fill="#0D0D0D"/>
<path d="M353.224 225.152V226.152M380.724 179.152L382.224 179.652L360.724 188.152H355.724L348.224 190.652L355.724 191.152L358.224 190.152C358.957 191.952 358.457 192.619 356.724 192.152V193.152L376.724 192.152L377.724 193.152H386.724L391.724 192.152L394.224 193.652C389.957 195.719 384.124 196.219 376.724 195.152L367.724 193.152L355.224 197.652C354.69 199.386 355.524 199.886 357.724 199.152L361.224 200.652C356.624 202.852 350.624 203.352 343.224 202.152L343.724 204.152H375.724V205.152H367.724L350.724 208.152H348.724L346.224 208.652L350.724 210.152L364.224 210.652L361.224 211.652L366.224 213.652L358.224 214.652L362.724 217.152L387.224 219.652L382.224 220.652L387.224 222.652L387.724 224.152H401.724L402.724 225.152C410.857 224.352 417.524 225.019 422.724 227.152L428.724 226.152L438.224 227.652L428.724 229.152H384.724L383.724 228.152H374.724L355.724 225.152V226.152L389.224 231.652L382.724 232.152L381.724 231.152L349.724 229.152L343.724 227.152L341.724 228.152L330.724 226.152L326.724 224.152L311.724 222.152L310.224 220.652L317.724 220.152L322.724 221.152L323.724 220.152H332.724L336.724 221.152L337.724 220.152H345.724V222.152L353.224 221.652L347.224 220.652L352.724 219.152C357.257 221.286 363.257 221.952 370.724 221.152V220.152L360.724 219.152L350.724 216.152L329.724 215.152L316.224 212.652L325.224 212.152L324.724 210.152H317.724L318.724 208.152L329.224 207.152L329.724 205.152L335.224 206.152C336.09 204.152 335.257 203.486 332.724 204.152L330.224 203.152C331.424 199.886 329.924 198.886 325.724 200.152C322.59 202.686 317.59 203.352 310.724 202.152L301.224 200.652L315.724 198.152L331.724 193.152H336.724L342.724 190.152L353.724 188.152L380.724 179.152ZM342.224 197.152L340.224 198.152L336.224 200.152H344.224V198.152L342.224 197.152ZM347.224 198.152L348.224 199.152C348.89 200.486 349.557 200.486 350.224 199.152L347.224 198.152ZM337.224 222.152V223.152H339.224L337.224 222.152Z" stroke="#0D0D0D" stroke-width="1.08"/>
</g>
<path opacity="0.996078" d="M26.7236 187.152L40.2236 188.152C41.0903 190.619 39.5903 191.286 35.7236 190.152L26.7236 188.152V187.152Z" fill="#0D0D0D" stroke="#0D0D0D" stroke-width="1.08"/>
<path opacity="0.996078" d="M383.724 203.152L407.224 203.652L383.724 204.152V203.152Z" fill="#0D0D0D" stroke="#0D0D0D" stroke-width="1.08"/>
<g opacity="0.996078">
<path d="M73.7236 204.152L85.2236 206.152C84.4903 203.819 86.657 203.152 91.7236 204.152C97.657 206.685 104.49 208.019 112.224 208.152C111.49 209.952 111.99 210.619 113.724 210.152C116.324 212.819 120.157 213.819 125.224 213.152C125.957 215.485 123.79 216.152 118.724 215.152L113.224 214.152C113.957 212.352 113.457 211.685 111.724 212.152L107.224 210.152C106.49 211.952 106.99 212.619 108.724 212.152L111.224 213.652L109.224 214.652L118.224 217.652L105.724 218.152L102.724 217.152H100.724C99.257 216.685 98.757 217.185 99.2236 218.652L100.724 220.152C105.257 219.285 108.424 219.785 110.224 221.652L105.724 222.152L95.7236 220.152H81.7236L65.2236 215.652L72.2236 214.652L68.7236 213.152H58.7236C53.3236 210.885 46.4903 210.052 38.2236 210.652L39.7236 209.152H52.7236L53.7236 210.152H62.7236L63.7236 211.152L86.7236 213.152L85.7236 211.152L64.2236 207.152C63.4236 205.152 64.257 204.485 66.7236 205.152L75.2236 207.152C75.957 205.352 75.457 204.685 73.7236 205.152V204.152ZM87.2236 208.152V209.152H89.2236L87.2236 208.152Z" fill="#0D0D0D"/>
<path d="M86.2236 207.152V208.152M91.2236 209.152V210.152M89.2236 212.152V213.152M92.2236 217.152V218.152M73.7236 204.152L85.2236 206.152C84.4903 203.819 86.657 203.152 91.7236 204.152C97.657 206.685 104.49 208.019 112.224 208.152C111.49 209.952 111.99 210.619 113.724 210.152C116.324 212.819 120.157 213.819 125.224 213.152C125.957 215.485 123.79 216.152 118.724 215.152L113.224 214.152C113.957 212.352 113.457 211.685 111.724 212.152L107.224 210.152C106.49 211.952 106.99 212.619 108.724 212.152L111.224 213.652L109.224 214.652L118.224 217.652L105.724 218.152L102.724 217.152H100.724C99.257 216.685 98.757 217.185 99.2236 218.652L100.724 220.152C105.257 219.285 108.424 219.785 110.224 221.652L105.724 222.152L95.7236 220.152H81.7236L65.2236 215.652L72.2236 214.652L68.7236 213.152H58.7236C53.3236 210.885 46.4903 210.052 38.2236 210.652L39.7236 209.152H52.7236L53.7236 210.152H62.7236L63.7236 211.152L86.7236 213.152L85.7236 211.152L64.2236 207.152C63.4236 205.152 64.257 204.485 66.7236 205.152L75.2236 207.152C75.957 205.352 75.457 204.685 73.7236 205.152V204.152ZM87.2236 208.152V209.152H89.2236L87.2236 208.152Z" stroke="#0D0D0D" stroke-width="1.08"/>
</g>
<g opacity="0.996078">
<path d="M56.7236 224.152L57.7236 225.152H74.7236L78.7236 224.152L84.7236 226.152L90.7236 225.152L112.224 228.652L84.7236 229.152L83.7236 228.152H61.7236L57.7236 229.152L48.7236 227.152L42.2236 228.652L55.7236 229.152L56.7236 230.152L73.2236 231.652L64.2236 232.652L86.7236 233.152L88.7236 234.152H90.7236C93.5236 232.286 97.857 231.952 103.724 233.152L113.224 234.652L96.2236 236.652C99.757 236.519 102.257 237.352 103.724 239.152L128.224 239.652L124.724 241.152L107.724 242.152C106.59 240.286 103.924 239.952 99.7236 241.152V242.152C104.324 240.819 106.157 241.486 105.224 244.152L98.2236 245.152C97.4903 246.952 97.9903 247.619 99.7236 247.152H101.724L110.724 248.152L111.724 247.152L127.724 246.152V247.152L109.224 250.652L114.724 251.152L119.724 250.152V251.152C113.39 251.819 108.224 253.652 104.224 256.652L107.724 257.152L115.724 255.152V256.152C111.724 256.152 108.724 257.152 106.724 259.152L104.724 258.152V260.152L92.7236 261.152L91.2236 262.652L97.2236 263.152C98.0903 265.619 96.5903 266.286 92.7236 265.152L91.7236 266.152H74.7236L75.7236 264.152L78.2236 263.652L73.7236 263.152L69.7236 265.152H58.7236L52.2236 266.152C51.4903 264.352 51.9903 263.686 53.7236 264.152L66.7236 260.152L78.7236 259.152L81.7236 257.152L91.7236 255.152V256.152L89.2236 256.652L93.7236 257.152L96.2236 255.652L90.7236 253.152L82.7236 255.152L78.7236 253.152L66.7236 252.152L65.7236 253.152H56.7236L45.7236 255.152H25.7236V254.152L61.7236 251.152L62.7236 250.152H74.7236L83.2236 248.152L81.7236 245.152L63.7236 244.152L61.7236 245.152L60.7236 244.152L35.2236 243.152L35.7236 241.152H48.7236L49.7236 240.152H70.7236L81.7236 242.152L82.7236 241.152L96.2236 240.652L89.7236 238.152L70.7236 236.152L64.7236 234.152L37.7236 233.152L19.2236 230.152C20.0903 227.686 18.5903 227.019 14.7236 228.152H10.7236L0.223633 227.652L5.72363 225.152H55.7236L56.7236 224.152ZM95.2236 245.152L96.2236 247.152C96.8903 245.152 96.557 244.486 95.2236 245.152ZM101.224 253.152L96.2236 255.152H101.224V253.152Z" fill="#0D0D0D"/>
<path d="M97.2236 241.152V242.152M56.7236 224.152L57.7236 225.152H74.7236L78.7236 224.152L84.7236 226.152L90.7236 225.152L112.224 228.652L84.7236 229.152L83.7236 228.152H61.7236L57.7236 229.152L48.7236 227.152L42.2236 228.652L55.7236 229.152L56.7236 230.152L73.2236 231.652L64.2236 232.652L86.7236 233.152L88.7236 234.152H90.7236C93.5236 232.286 97.857 231.952 103.724 233.152L113.224 234.652L96.2236 236.652C99.757 236.519 102.257 237.352 103.724 239.152L128.224 239.652L124.724 241.152L107.724 242.152C106.59 240.286 103.924 239.952 99.7236 241.152V242.152C104.324 240.819 106.157 241.486 105.224 244.152L98.2236 245.152C97.4903 246.952 97.9903 247.619 99.7236 247.152H101.724L110.724 248.152L111.724 247.152L127.724 246.152V247.152L109.224 250.652L114.724 251.152L119.724 250.152V251.152C113.39 251.819 108.224 253.652 104.224 256.652L107.724 257.152L115.724 255.152V256.152C111.724 256.152 108.724 257.152 106.724 259.152L104.724 258.152V260.152L92.7236 261.152L91.2236 262.652L97.2236 263.152C98.0903 265.619 96.5903 266.286 92.7236 265.152L91.7236 266.152H74.7236L75.7236 264.152L78.2236 263.652L73.7236 263.152L69.7236 265.152H58.7236L52.2236 266.152C51.4903 264.352 51.9903 263.686 53.7236 264.152L66.7236 260.152L78.7236 259.152L81.7236 257.152L91.7236 255.152V256.152L89.2236 256.652L93.7236 257.152L96.2236 255.652L90.7236 253.152L82.7236 255.152L78.7236 253.152L66.7236 252.152L65.7236 253.152H56.7236L45.7236 255.152H25.7236V254.152L61.7236 251.152L62.7236 250.152H74.7236L83.2236 248.152L81.7236 245.152L63.7236 244.152L61.7236 245.152L60.7236 244.152L35.2236 243.152L35.7236 241.152H48.7236L49.7236 240.152H70.7236L81.7236 242.152L82.7236 241.152L96.2236 240.652L89.7236 238.152L70.7236 236.152L64.7236 234.152L37.7236 233.152L19.2236 230.152C20.0903 227.686 18.5903 227.019 14.7236 228.152H10.7236L0.223633 227.652L5.72363 225.152H55.7236L56.7236 224.152ZM95.2236 245.152L96.2236 247.152C96.8903 245.152 96.557 244.486 95.2236 245.152ZM101.224 253.152L96.2236 255.152H101.224V253.152Z" stroke="#0D0D0D" stroke-width="1.08"/>
</g>
<g opacity="0.996078">
<path d="M316.724 230.152L318.724 231.152L323.724 230.152L327.724 231.152L331.724 230.152L334.724 231.152H342.724L354.724 234.152L371.724 235.152L376.224 236.652L352.724 237.152L346.724 236.152L341.224 237.152C340.357 239.352 341.524 240.019 344.724 239.152L345.724 240.152H359.724L384.224 245.652L372.724 246.152C368.457 244.086 362.79 243.419 355.724 244.152V245.152L359.224 246.652L350.224 249.652L354.724 252.152L362.224 253.652L360.224 254.652L364.224 256.652L360.724 257.152L342.724 251.152L338.724 252.152L310.224 243.652L317.724 243.152V245.152L325.224 244.652L319.224 243.652L321.224 242.652L319.724 241.152H312.224C312.957 239.352 312.457 238.686 310.724 239.152L311.724 237.152C318.057 238.486 322.39 237.819 324.724 235.152H326.724L331.224 234.652L314.224 231.652L316.724 230.152ZM334.224 240.152L335.224 241.152H337.224L343.224 244.152L342.224 242.152H340.224V240.152H334.224ZM341.224 246.152C341.224 248.819 341.89 249.152 343.224 247.152L341.224 246.152ZM344.224 247.152V248.152L347.224 249.152H350.224C348.89 247.152 346.89 246.486 344.224 247.152Z" fill="#0D0D0D"/>
<path d="M336.224 246.152V247.152M316.724 230.152L318.724 231.152L323.724 230.152L327.724 231.152L331.724 230.152L334.724 231.152H342.724L354.724 234.152L371.724 235.152L376.224 236.652L352.724 237.152L346.724 236.152L341.224 237.152C340.357 239.352 341.524 240.019 344.724 239.152L345.724 240.152H359.724L384.224 245.652L372.724 246.152C368.457 244.086 362.79 243.419 355.724 244.152V245.152L359.224 246.652L350.224 249.652L354.724 252.152L362.224 253.652L360.224 254.652L364.224 256.652L360.724 257.152L342.724 251.152L338.724 252.152L310.224 243.652L317.724 243.152V245.152L325.224 244.652L319.224 243.652L321.224 242.652L319.724 241.152H312.224C312.957 239.352 312.457 238.686 310.724 239.152L311.724 237.152C318.057 238.486 322.39 237.819 324.724 235.152H326.724L331.224 234.652L314.224 231.652L316.724 230.152ZM334.224 240.152L335.224 241.152H337.224L343.224 244.152L342.224 242.152H340.224V240.152H334.224ZM341.224 246.152C341.224 248.819 341.89 249.152 343.224 247.152L341.224 246.152ZM344.224 247.152V248.152L347.224 249.152H350.224C348.89 247.152 346.89 246.486 344.224 247.152Z" stroke="#0D0D0D" stroke-width="1.08"/>
</g>
<path opacity="0.996078" d="M320.224 250.152L342.724 254.152C360.457 259.419 376.957 265.919 392.224 273.652L389.724 274.152L373.724 267.152H370.724H368.724L348.724 261.152C347.724 262.819 346.724 262.486 345.724 260.152L335.724 258.152V259.152L337.224 259.652L335.724 260.152L320.224 255.152V250.152Z" fill="#0D0D0D" stroke="#0D0D0D" stroke-width="1.08"/>
<g opacity="0.996078">
<path d="M305.724 254.152L340.224 263.152C340.957 261.352 340.457 260.686 338.724 261.152V260.152L351.724 265.152L365.224 273.652L363.724 274.152C362.924 272.686 362.09 272.852 361.224 274.652L381.224 284.652L379.224 285.652L405.724 297.152L409.724 300.152L425.224 305.652L422.724 306.152L404.724 299.152L391.724 295.152L382.724 294.152L369.724 288.152H366.724V289.152L368.224 289.652L364.224 290.152C365.224 287.619 364.724 286.619 362.724 287.152V289.152H359.724L350.724 285.152L351.724 287.152L362.724 294.152H365.724L373.224 297.652L370.724 298.152L343.724 288.152L341.724 289.152V288.152L343.224 287.652L335.224 286.152L335.724 288.152H337.724H340.224C339.49 289.952 339.99 290.619 341.724 290.152L359.224 299.652L357.224 300.652L360.224 302.652L357.724 303.152L352.224 301.152C351.49 302.952 351.99 303.619 353.724 303.152L382.224 323.652C382.757 325.186 382.257 325.686 380.724 325.152L348.724 310.152L336.724 302.152H334.724L329.224 300.152C329.957 298.352 329.457 297.686 327.724 298.152L323.724 296.152L325.724 299.152L329.224 301.652L327.724 302.152L298.224 281.652L299.724 281.152L333.724 299.152L332.724 297.152L306.224 278.652L306.724 277.152L319.724 281.152L317.724 278.152L305.224 269.652L306.724 270.152L315.724 273.152L314.724 271.152L309.724 270.152L304.224 266.152L304.724 264.152L315.724 269.152H318.724V267.152L355.724 280.152L354.724 278.152L342.724 273.152L329.724 265.152L307.224 258.152L305.724 254.152ZM319.224 270.152V271.152H320.224L319.224 270.152ZM317.224 273.152V274.152H318.224L317.224 273.152ZM319.224 274.152L320.224 275.152L321.224 276.152C321.89 274.152 321.224 273.486 319.224 274.152ZM316.224 275.152L317.224 277.152H318.224L316.224 275.152ZM377.224 284.152V285.152H379.224L377.224 284.152ZM332.224 286.152V287.152H333.224L332.224 286.152ZM344.224 297.152V298.152H345.224L344.224 297.152Z" fill="#0D0D0D"/>
<path d="M321.224 281.152V282.152M305.724 254.152L340.224 263.152C340.957 261.352 340.457 260.686 338.724 261.152V260.152L351.724 265.152L365.224 273.652L363.724 274.152C362.924 272.686 362.09 272.852 361.224 274.652L381.224 284.652L379.224 285.652L405.724 297.152L409.724 300.152L425.224 305.652L422.724 306.152L404.724 299.152L391.724 295.152L382.724 294.152L369.724 288.152H366.724V289.152L368.224 289.652L364.224 290.152C365.224 287.619 364.724 286.619 362.724 287.152V289.152H359.724L350.724 285.152L351.724 287.152L362.724 294.152H365.724L373.224 297.652L370.724 298.152L343.724 288.152L341.724 289.152V288.152L343.224 287.652L335.224 286.152L335.724 288.152H337.724H340.224C339.49 289.952 339.99 290.619 341.724 290.152L359.224 299.652L357.224 300.652L360.224 302.652L357.724 303.152L352.224 301.152C351.49 302.952 351.99 303.619 353.724 303.152L382.224 323.652C382.757 325.186 382.257 325.686 380.724 325.152L348.724 310.152L336.724 302.152H334.724L329.224 300.152C329.957 298.352 329.457 297.686 327.724 298.152L323.724 296.152L325.724 299.152L329.224 301.652L327.724 302.152L298.224 281.652L299.724 281.152L333.724 299.152L332.724 297.152L306.224 278.652L306.724 277.152L319.724 281.152L317.724 278.152L305.224 269.652L306.724 270.152L315.724 273.152L314.724 271.152L309.724 270.152L304.224 266.152L304.724 264.152L315.724 269.152H318.724V267.152L355.724 280.152L354.724 278.152L342.724 273.152L329.724 265.152L307.224 258.152L305.724 254.152ZM319.224 270.152V271.152H320.224L319.224 270.152ZM317.224 273.152V274.152H318.224L317.224 273.152ZM319.224 274.152L320.224 275.152L321.224 276.152C321.89 274.152 321.224 273.486 319.224 274.152ZM316.224 275.152L317.224 277.152H318.224L316.224 275.152ZM377.224 284.152V285.152H379.224L377.224 284.152ZM332.224 286.152V287.152H333.224L332.224 286.152ZM344.224 297.152V298.152H345.224L344.224 297.152Z" stroke="#0D0D0D" stroke-width="1.08"/>
</g>
<path opacity="0.996078" d="M123.724 260.152L125.224 260.652L117.724 265.152C108.924 266.352 101.257 268.686 94.7236 272.152L81.7236 274.152L67.2236 280.652L70.7236 281.152L73.7236 279.152V280.152L72.2236 280.652L75.2236 281.152L76.7236 278.152L83.7236 279.152L98.2236 275.652L94.2236 274.652L100.724 272.152L111.724 271.152L114.724 272.152L124.724 269.152L123.724 271.152L116.724 273.152L103.224 280.152L101.724 283.152L97.7236 282.152L70.7236 291.152L59.7236 293.152L60.7236 291.152L69.7236 289.152L86.2236 282.652L82.7236 282.152L55.7236 289.152H48.7236H46.7236H43.7236L13.7236 301.152H10.7236L13.7236 297.152L29.7236 288.152L62.2236 275.652L56.2236 274.652L63.7236 272.152L96.7236 266.152L98.2236 266.652L98.7236 265.152H105.724C106.924 263.352 109.59 263.019 113.724 264.152L123.724 260.152ZM95.2236 279.152V280.152H96.2236L95.2236 279.152ZM91.2236 280.152L87.2236 281.152V282.152L94.2236 281.152L91.2236 280.152Z" fill="#0D0D0D" stroke="#0D0D0D" stroke-width="1.08"/>
<g opacity="0.996078">
<path d="M131.724 272.152L134.224 272.652L101.224 292.652L103.724 293.152L116.724 288.152L135.724 278.152L138.224 278.652L127.724 287.152C118.257 290.686 110.09 295.519 103.224 301.652L103.724 303.152L120.224 294.652L121.724 292.152L124.724 291.152L126.224 291.652C125.69 289.919 126.524 289.419 128.724 290.152L135.724 284.152L145.724 279.152L142.724 283.152L133.224 290.652C133.757 292.186 133.257 292.686 131.724 292.152L126.224 296.652L126.724 298.152L144.724 286.152L145.224 288.152L123.224 304.652L123.724 306.152L121.224 306.652L122.724 309.152C120.99 308.686 120.49 309.352 121.224 311.152L128.224 308.652L131.224 303.152L143.724 296.152V297.152C133.257 303.352 124.424 311.186 117.224 320.652C116.757 322.186 117.257 322.686 118.724 322.152L152.724 298.152L146.224 305.652L136.224 316.652L137.724 317.152L142.224 314.152C141.49 312.352 141.99 311.686 143.724 312.152L158.724 298.152L162.724 296.152L157.224 302.652L142.724 322.152L139.724 324.152L124.724 339.152L123.724 338.152L111.724 350.152L102.224 358.652L83.7236 379.152L80.7236 381.152L80.2236 379.652L86.7236 372.152L94.2236 365.652L112.724 342.152L115.224 340.652L119.224 333.652L117.724 333.152L96.7236 350.152L90.7236 353.152L100.724 342.152L133.224 314.652L131.724 314.152L111.724 329.152L110.224 328.652C110.757 330.186 110.257 330.686 108.724 330.152C106.457 334.219 102.457 336.552 96.7236 337.152L77.7236 353.152L72.2236 355.152L69.7236 359.152L22.7236 387.152L24.7236 384.152L64.7236 353.152L78.7236 345.152L100.224 328.652C98.757 327.786 98.9236 326.952 100.724 326.152C102.457 326.619 102.957 325.952 102.224 324.152L91.7236 330.152L72.7236 345.152L85.7236 331.152L97.7236 321.152L102.724 320.152L120.224 307.152L119.724 305.152L102.724 315.152L97.7236 316.152L72.7236 331.152L76.7236 326.152L109.224 307.152L108.724 305.152C94.7236 311.152 82.057 318.486 70.7236 327.152L64.7236 328.152L56.7236 333.152L57.2236 331.652C56.757 330.186 57.257 329.686 58.7236 330.152L62.2236 328.152L63.7236 324.152L102.224 303.652L100.724 301.152L102.224 300.652L98.7236 300.152L24.7236 343.152L28.7236 338.152L38.2236 334.152L40.7236 330.152L67.2236 316.652L65.2236 315.652L68.7236 314.152L70.2236 314.652C69.757 313.186 70.257 312.686 71.7236 313.152L79.2236 309.652L76.2236 308.652C82.157 303.586 89.3236 299.752 97.7236 297.152L101.224 293.652L97.7236 293.152L82.7236 299.152L80.7236 298.152L76.7236 300.152L75.2236 297.152L107.724 281.152H111.724L119.724 276.152L128.724 274.152L131.724 272.152ZM124.224 292.152V293.152H125.224L124.224 292.152ZM117.224 298.152V299.152H118.224L117.224 298.152ZM115.224 299.152V300.152H116.224L115.224 299.152ZM113.224 300.152V301.152H114.224L113.224 300.152ZM80.2236 308.152V309.152H81.2236L80.2236 308.152ZM145.224 314.152L140.224 320.152L138.224 321.152H141.224L146.224 315.152L145.224 314.152ZM68.2236 315.152V316.152H69.2236L68.2236 315.152ZM135.224 322.152V324.152C136.557 326.152 137.557 326.152 138.224 324.152L135.224 322.152ZM70.2236 324.152V325.152H71.2236L70.2236 324.152ZM121.224 331.152V332.152H122.224L121.224 331.152Z" fill="#0D0D0D"/>
<path d="M123.224 293.152V294.152M125.224 297.152V298.152M112.224 301.152V302.152M134.224 313.152V314.152M138.224 321.152L140.224 320.152L145.224 314.152L146.224 315.152L141.224 321.152H138.224ZM138.224 321.152V322.152M140.224 316.152V317.152M104.224 322.152V323.152M134.224 324.152V325.152M69.2236 325.152V326.152M68.2236 326.152V327.152M113.224 326.152V327.152M112.224 327.152V328.152M120.224 332.152V333.152M127.224 335.152V336.152M126.224 336.152V337.152M131.724 272.152L134.224 272.652L101.224 292.652L103.724 293.152L116.724 288.152L135.724 278.152L138.224 278.652L127.724 287.152C118.257 290.686 110.09 295.519 103.224 301.652L103.724 303.152L120.224 294.652L121.724 292.152L124.724 291.152L126.224 291.652C125.69 289.919 126.524 289.419 128.724 290.152L135.724 284.152L145.724 279.152L142.724 283.152L133.224 290.652C133.757 292.186 133.257 292.686 131.724 292.152L126.224 296.652L126.724 298.152L144.724 286.152L145.224 288.152L123.224 304.652L123.724 306.152L121.224 306.652L122.724 309.152C120.99 308.686 120.49 309.352 121.224 311.152L128.224 308.652L131.224 303.152L143.724 296.152V297.152C133.257 303.352 124.424 311.186 117.224 320.652C116.757 322.186 117.257 322.686 118.724 322.152L152.724 298.152L146.224 305.652L136.224 316.652L137.724 317.152L142.224 314.152C141.49 312.352 141.99 311.686 143.724 312.152L158.724 298.152L162.724 296.152L157.224 302.652L142.724 322.152L139.724 324.152L124.724 339.152L123.724 338.152L111.724 350.152L102.224 358.652L83.7236 379.152L80.7236 381.152L80.2236 379.652L86.7236 372.152L94.2236 365.652L112.724 342.152L115.224 340.652L119.224 333.652L117.724 333.152L96.7236 350.152L90.7236 353.152L100.724 342.152L133.224 314.652L131.724 314.152L111.724 329.152L110.224 328.652C110.757 330.186 110.257 330.686 108.724 330.152C106.457 334.219 102.457 336.552 96.7236 337.152L77.7236 353.152L72.2236 355.152L69.7236 359.152L22.7236 387.152L24.7236 384.152L64.7236 353.152L78.7236 345.152L100.224 328.652C98.757 327.786 98.9236 326.952 100.724 326.152C102.457 326.619 102.957 325.952 102.224 324.152L91.7236 330.152L72.7236 345.152L85.7236 331.152L97.7236 321.152L102.724 320.152L120.224 307.152L119.724 305.152L102.724 315.152L97.7236 316.152L72.7236 331.152L76.7236 326.152L109.224 307.152L108.724 305.152C94.7236 311.152 82.057 318.486 70.7236 327.152L64.7236 328.152L56.7236 333.152L57.2236 331.652C56.757 330.186 57.257 329.686 58.7236 330.152L62.2236 328.152L63.7236 324.152L102.224 303.652L100.724 301.152L102.224 300.652L98.7236 300.152L24.7236 343.152L28.7236 338.152L38.2236 334.152L40.7236 330.152L67.2236 316.652L65.2236 315.652L68.7236 314.152L70.2236 314.652C69.757 313.186 70.257 312.686 71.7236 313.152L79.2236 309.652L76.2236 308.652C82.157 303.586 89.3236 299.752 97.7236 297.152L101.224 293.652L97.7236 293.152L82.7236 299.152L80.7236 298.152L76.7236 300.152L75.2236 297.152L107.724 281.152H111.724L119.724 276.152L128.724 274.152L131.724 272.152ZM124.224 292.152V293.152H125.224L124.224 292.152ZM117.224 298.152V299.152H118.224L117.224 298.152ZM115.224 299.152V300.152H116.224L115.224 299.152ZM113.224 300.152V301.152H114.224L113.224 300.152ZM80.2236 308.152V309.152H81.2236L80.2236 308.152ZM68.2236 315.152V316.152H69.2236L68.2236 315.152ZM135.224 322.152V324.152C136.557 326.152 137.557 326.152 138.224 324.152L135.224 322.152ZM70.2236 324.152V325.152H71.2236L70.2236 324.152ZM121.224 331.152V332.152H122.224L121.224 331.152Z" stroke="#0D0D0D" stroke-width="1.08"/>
</g>
<g opacity="0.996078">
<path d="M292.724 284.152L307.724 295.152H311.724L320.724 300.152L333.224 309.652L336.724 314.152L356.224 327.652L354.724 327.152L335.724 316.152L328.724 315.152V316.152L342.224 325.652L340.724 325.152L327.724 318.152L302.224 296.652L303.224 294.652L292.724 284.152ZM325.224 310.152C323.89 312.152 324.224 312.819 326.224 312.152L325.224 310.152Z" fill="#0D0D0D"/>
<path d="M328.224 314.152V315.152M292.724 284.152L307.724 295.152H311.724L320.724 300.152L333.224 309.652L336.724 314.152L356.224 327.652L354.724 327.152L335.724 316.152L328.724 315.152V316.152L342.224 325.652L340.724 325.152L327.724 318.152L302.224 296.652L303.224 294.652L292.724 284.152ZM325.224 310.152C323.89 312.152 324.224 312.819 326.224 312.152L325.224 310.152Z" stroke="#0D0D0D" stroke-width="1.08"/>
</g>
<g opacity="0.996078">
<path d="M279.724 297.152L289.224 304.652L308.724 325.152L310.224 324.652L292.224 305.652L293.724 305.152L310.724 318.152L335.224 341.652L339.724 347.152C341.457 346.686 341.957 347.352 341.224 349.152L336.724 347.152L318.724 331.152L314.224 330.152C313.49 331.952 313.99 332.619 315.724 332.152L333.224 348.652L331.724 349.152L314.724 336.152L302.724 329.152L302.224 330.652L305.224 332.152V334.652C313.224 341.319 319.557 349.652 324.224 359.652L337.224 372.652L338.224 377.652L336.224 376.652L329.724 368.152L327.724 369.152C321.79 358.419 314.124 349.419 304.724 342.152C303.257 342.686 302.757 342.186 303.224 340.652L301.224 339.652L306.224 349.652L316.224 361.652L318.224 366.652H317.224L313.724 362.152L305.224 354.652C300.957 346.986 295.457 340.486 288.724 335.152L288.224 336.652L304.224 358.652V360.652L302.224 359.652L296.724 352.152C295.257 351.686 294.757 352.186 295.224 353.652L310.224 376.652L308.724 377.152L304.224 373.652L315.224 390.652L312.224 388.652L302.224 375.652L292.224 356.652H294.224L290.224 347.152L286.224 344.652L281.724 338.152L281.224 339.652C292.557 363.652 305.557 385.986 320.224 406.652L329.224 427.652H328.224L315.224 407.652L309.224 394.152C307.424 394.886 306.757 394.386 307.224 392.652L295.224 372.652V370.152C293.424 370.886 292.757 370.386 293.224 368.652H292.224L297.224 379.652L295.224 378.652L278.724 351.152L276.724 350.152L276.224 351.652L279.224 353.652L277.224 354.652L278.224 358.152C280.224 357.352 280.89 358.186 280.224 360.652L290.224 382.652L291.224 388.652L288.224 386.652L269.224 348.152C267.224 347.352 266.557 348.186 267.224 350.652L276.224 373.652L279.224 385.652L277.224 384.652L273.224 373.652L261.724 351.152L261.224 353.652L269.224 386.652L267.224 385.652L262.224 365.652L258.224 361.652L253.724 351.152L253.224 354.652L257.224 364.652L259.224 377.652L258.224 380.152C260.224 379.352 260.89 380.186 260.224 382.652V384.652L259.224 392.652L261.224 396.652L268.224 428.652H267.224L248.224 366.652H249.224L250.724 370.152L251.224 367.652L243.224 341.652V331.652L244.224 328.652L243.224 326.652C244.89 325.652 244.557 324.652 242.224 323.652L241.224 319.652L242.724 317.152L245.224 320.652L249.224 336.152C251.024 335.419 251.69 335.919 251.224 337.652L253.224 339.652L257.724 352.152L258.224 347.652L254.224 334.652L253.224 322.652H254.224L261.224 339.152C263.224 340.019 263.89 339.186 263.224 336.652L259.224 329.652L256.224 314.652L258.224 315.652L265.224 327.152C268.357 327.486 270.69 328.986 272.224 331.652L286.724 356.152L288.224 355.652L279.224 341.652L268.224 318.152L276.224 323.652L284.724 334.152L287.724 335.152L288.224 333.652L286.224 329.152C284.424 329.886 283.757 329.386 284.224 327.652L283.224 325.652V323.652L282.224 321.652L284.224 322.652L285.224 326.152C287.024 325.419 287.69 325.919 287.224 327.652L293.724 336.152L294.224 334.652L275.224 305.652L279.224 308.652L304.724 339.152L305.224 337.652L285.224 305.652L279.224 298.652L279.724 297.152ZM296.224 337.152L295.224 339.152L298.224 341.152L296.224 337.152ZM306.224 339.152C304.89 341.152 305.224 341.819 307.224 341.152L306.224 339.152ZM261.224 340.152L260.224 342.152H261.224V340.152ZM300.224 342.152L299.224 344.152H300.224V342.152ZM309.224 342.152L308.224 344.152L315.224 350.152L312.224 345.152L309.224 342.152Z" fill="#0D0D0D"/>
<path d="M314.224 330.152L318.724 331.152L336.724 347.152L341.224 349.152C341.957 347.352 341.457 346.686 339.724 347.152L335.224 341.652L310.724 318.152L293.724 305.152L292.224 305.652L310.224 324.652L308.724 325.152L289.224 304.652L279.724 297.152L279.224 298.652L285.224 305.652L305.224 337.652L304.724 339.152L279.224 308.652L275.224 305.652L294.224 334.652L293.724 336.152L287.224 327.652C287.69 325.919 287.024 325.419 285.224 326.152L284.224 322.652L282.224 321.652L283.224 323.652V325.652L284.224 327.652C283.757 329.386 284.424 329.886 286.224 329.152L288.224 333.652L287.724 335.152L284.724 334.152L276.224 323.652L268.224 318.152L279.224 341.652L288.224 355.652L286.724 356.152L272.224 331.652C270.69 328.986 268.357 327.486 265.224 327.152L258.224 315.652L256.224 314.652L259.224 329.652L263.224 336.652C263.89 339.186 263.224 340.019 261.224 339.152L254.224 322.652H253.224L254.224 334.652L258.224 347.652L257.724 352.152L253.224 339.652L251.224 337.652C251.69 335.919 251.024 335.419 249.224 336.152L245.224 320.652L242.724 317.152L241.224 319.652L242.224 323.652C244.557 324.652 244.89 325.652 243.224 326.652L244.224 328.652L243.224 331.652V341.652L251.224 367.652L250.724 370.152L249.224 366.652H248.224L267.224 428.652H268.224L261.224 396.652L259.224 392.652L260.224 384.652V382.652C260.89 380.186 260.224 379.352 258.224 380.152L259.224 377.652L257.224 364.652L253.224 354.652L253.724 351.152L258.224 361.652L262.224 365.652L267.224 385.652L269.224 386.652L261.224 353.652L261.724 351.152L273.224 373.652L277.224 384.652L279.224 385.652L276.224 373.652L267.224 350.652C266.557 348.186 267.224 347.352 269.224 348.152L288.224 386.652L291.224 388.652L290.224 382.652L280.224 360.652C280.89 358.186 280.224 357.352 278.224 358.152L277.224 354.652L279.224 353.652L276.224 351.652L276.724 350.152L278.724 351.152L295.224 378.652L297.224 379.652L292.224 368.652H293.224C292.757 370.386 293.424 370.886 295.224 370.152V372.652L307.224 392.652C306.757 394.386 307.424 394.886 309.224 394.152L315.224 407.652L328.224 427.652H329.224L320.224 406.652C305.557 385.986 292.557 363.652 281.224 339.652L281.724 338.152L286.224 344.652L290.224 347.152L294.224 356.652H292.224L302.224 375.652L312.224 388.652L315.224 390.652L304.224 373.652L308.724 377.152L310.224 376.652L295.224 353.652C294.757 352.186 295.257 351.686 296.724 352.152L302.224 359.652L304.224 360.652V358.652L288.224 336.652L288.724 335.152C295.457 340.486 300.957 346.986 305.224 354.652L313.724 362.152L317.224 366.652H318.224L316.224 361.652L306.224 349.652L301.224 339.652L303.224 340.652C302.757 342.186 303.257 342.686 304.724 342.152C314.124 349.419 321.79 358.419 327.724 369.152L329.724 368.152L336.224 376.652L338.224 377.652L337.224 372.652L324.224 359.652C319.557 349.652 313.224 341.319 305.224 334.652V332.152L302.224 330.652L302.724 329.152L314.724 336.152L331.724 349.152L333.224 348.652L315.724 332.152C313.99 332.619 313.49 331.952 314.224 330.152ZM314.224 330.152V329.152M295.224 336.152V337.152M300.224 336.152V337.152M301.224 338.152V339.152M299.224 341.152V342.152M308.224 341.152V342.152M295.224 351.152V352.152M289.224 360.152V361.152M296.224 337.152L295.224 339.152L298.224 341.152L296.224 337.152ZM306.224 339.152C304.89 341.152 305.224 341.819 307.224 341.152L306.224 339.152ZM261.224 340.152L260.224 342.152H261.224V340.152ZM300.224 342.152L299.224 344.152H300.224V342.152ZM309.224 342.152L308.224 344.152L315.224 350.152L312.224 345.152L309.224 342.152Z" stroke="#0D0D0D" stroke-width="1.08"/>
</g>
<path opacity="0.996078" d="M296.724 298.152L318.724 313.152L347.224 339.652L346.724 341.152L343.724 337.152L339.224 337.652L342.224 338.652L343.724 341.152L356.224 349.152L358.724 353.152L361.224 354.652C359.424 355.786 359.924 356.952 362.724 358.152C372.99 364.886 382.157 372.719 390.224 381.652L395.724 388.152L406.224 396.652L404.724 396.152L377.724 374.152L368.724 370.152L339.224 342.652C339.757 341.186 339.257 340.686 337.724 341.152L322.224 326.652C322.757 325.186 322.257 324.686 320.724 325.152L307.724 311.152L298.224 302.652L296.724 298.152ZM335.224 331.152L334.224 333.152L339.224 337.152L335.224 331.152Z" fill="#0D0D0D" stroke="#0D0D0D" stroke-width="1.08"/>
<g opacity="0.996078">
<path d="M166.724 301.152L167.224 302.652L148.724 326.152L149.224 324.652L155.224 315.652L148.224 321.652L140.224 333.652L145.224 329.652L146.724 327.152L148.724 328.152L150.724 327.152L150.224 328.652L133.224 356.652L117.224 379.652L108.224 389.652L107.224 393.152L103.224 395.652L97.2236 404.652L71.7236 434.152L73.2236 431.652L88.2236 408.652L87.7236 407.152L91.2236 404.652L97.2236 394.652L116.224 371.652L131.224 349.652L125.724 354.152C123.99 353.619 123.49 354.452 124.224 356.652L109.724 376.152L110.224 374.652V371.652L113.224 366.652L125.724 350.152L125.224 351.652L125.724 353.152L129.224 347.652L127.224 343.652H129.224L130.224 341.652L128.724 340.152L125.224 343.652C125.757 345.186 125.257 345.686 123.724 345.152L122.224 345.652L128.724 339.152L130.224 339.652C132.357 333.452 135.857 328.619 140.724 325.152H142.724L152.224 315.652C151.757 314.186 152.257 313.686 153.724 314.152L161.224 307.652L163.224 304.652L166.724 301.152ZM139.224 328.152V330.152L141.224 329.152L139.224 328.152ZM140.224 334.152L136.224 340.152L133.224 342.152L132.224 344.152L135.224 343.152L140.224 336.152V334.152Z" fill="#0D0D0D"/>
<path d="M144.224 325.152V326.152M143.224 326.152V327.152M142.224 327.152V328.152M139.224 330.152V328.152L141.224 329.152L139.224 330.152ZM139.224 330.152V331.152M147.224 329.152V330.152M136.224 334.152V335.152M135.224 335.152V336.152M134.224 336.152V337.152M131.224 344.152V345.152M134.224 344.152V345.152M133.224 347.152V348.152M132.224 348.152V349.152M166.724 301.152L167.224 302.652L148.724 326.152L149.224 324.652L155.224 315.652L148.224 321.652L140.224 333.652L145.224 329.652L146.724 327.152L148.724 328.152L150.724 327.152L150.224 328.652L133.224 356.652L117.224 379.652L108.224 389.652L107.224 393.152L103.224 395.652L97.2236 404.652L71.7236 434.152L73.2236 431.652L88.2236 408.652L87.7236 407.152L91.2236 404.652L97.2236 394.652L116.224 371.652L131.224 349.652L125.724 354.152C123.99 353.619 123.49 354.452 124.224 356.652L109.724 376.152L110.224 374.652V371.652L113.224 366.652L125.724 350.152L125.224 351.652L125.724 353.152L129.224 347.652L127.224 343.652H129.224L130.224 341.652L128.724 340.152L125.224 343.652C125.757 345.186 125.257 345.686 123.724 345.152L122.224 345.652L128.724 339.152L130.224 339.652C132.357 333.452 135.857 328.619 140.724 325.152H142.724L152.224 315.652C151.757 314.186 152.257 313.686 153.724 314.152L161.224 307.652L163.224 304.652L166.724 301.152ZM140.224 334.152L136.224 340.152L133.224 342.152L132.224 344.152L135.224 343.152L140.224 336.152V334.152Z" stroke="#0D0D0D" stroke-width="1.08"/>
</g>
<g opacity="0.996078">
<path d="M167.724 313.152L168.224 314.652C162.357 327.786 155.024 339.452 146.224 349.652L146.724 351.152C145.924 349.686 145.09 349.852 144.224 351.652L143.224 355.152L149.224 352.152L172.724 316.152L173.224 317.652L165.224 335.652V338.652V340.652L164.224 347.652L166.224 346.652L178.224 329.652L181.724 321.152L181.224 322.652V328.652L174.724 347.152C173.924 345.686 173.09 345.852 172.224 347.652L171.224 351.152L173.224 351.652L163.724 370.152L161.224 368.652L158.224 375.652L159.224 377.652H158.224L157.724 376.152L154.724 382.152L154.224 377.652L164.224 358.652H162.224C164.09 358.186 164.757 356.519 164.224 353.652L161.224 355.652L140.724 385.152L140.224 383.652L156.224 354.652L152.224 357.652L143.724 367.152L140.724 369.152L141.224 367.652L147.724 357.152L148.724 359.152L152.224 351.652L143.224 359.652L140.724 363.152L135.724 367.152L135.224 365.652L137.224 362.652L134.224 364.652L122.724 379.152L122.224 377.652L132.224 363.652L131.224 361.652L167.724 313.152ZM173.224 339.152L172.224 341.152H173.224V339.152ZM172.224 341.152L171.224 343.152H172.224V341.152ZM171.224 343.152L168.224 347.152H170.224L171.224 345.152V343.152ZM174.224 343.152L173.224 345.152H174.224V343.152ZM166.224 348.152L164.224 350.152L165.224 352.152L166.224 350.152V348.152ZM158.224 349.152L156.224 353.152L158.224 352.152V349.152ZM143.224 355.152L142.224 357.152H143.224V355.152ZM166.224 360.152L164.224 363.152L166.224 362.152V360.152ZM164.224 363.152L163.224 365.152H164.224V363.152Z" fill="#0D0D0D"/>
<path d="M143.224 355.152L144.224 351.652C145.09 349.852 145.924 349.686 146.724 351.152L146.224 349.652C155.024 339.452 162.357 327.786 168.224 314.652L167.724 313.152L131.224 361.652L132.224 363.652L122.224 377.652L122.724 379.152L134.224 364.652L137.224 362.652L135.224 365.652L135.724 367.152L140.724 363.152L143.224 359.652L152.224 351.652L148.724 359.152L147.724 357.152L141.224 367.652L140.724 369.152L143.724 367.152L152.224 357.652L156.224 354.652L140.224 383.652L140.724 385.152L161.224 355.652L164.224 353.652C164.757 356.519 164.09 358.186 162.224 358.652H164.224L154.224 377.652L154.724 382.152L157.724 376.152L158.224 377.652H159.224L158.224 375.652L161.224 368.652L163.724 370.152L173.224 351.652L171.224 351.152L172.224 347.652C173.09 345.852 173.924 345.686 174.724 347.152L181.224 328.652V322.652L181.724 321.152L178.224 329.652L166.224 346.652L164.224 347.652L165.224 340.652V338.652V335.652L173.224 317.652L172.724 316.152L149.224 352.152L143.224 355.152ZM143.224 355.152L142.224 357.152H143.224V355.152ZM172.224 341.152L173.224 339.152V341.152H172.224ZM172.224 341.152L171.224 343.152M172.224 341.152V343.152H171.224M171.224 343.152L168.224 347.152H170.224L171.224 345.152V343.152ZM159.224 348.152V349.152M153.224 350.152V351.152M159.224 354.152V355.152M166.224 356.152V357.152M165.224 357.152V358.152M136.224 359.152V360.152M135.224 360.152V361.152M164.224 363.152L166.224 360.152V362.152L164.224 363.152ZM164.224 363.152L163.224 365.152M164.224 363.152V365.152H163.224M134.224 361.152V362.152M138.224 361.152V362.152M133.224 362.152V363.152M163.224 365.152V366.152M163.224 367.152V368.152M174.224 343.152L173.224 345.152H174.224V343.152ZM166.224 348.152L164.224 350.152L165.224 352.152L166.224 350.152V348.152ZM158.224 349.152L156.224 353.152L158.224 352.152V349.152Z" stroke="#0D0D0D" stroke-width="1.08"/>
</g>
<g opacity="0.996078">
<path d="M193.724 318.152L194.224 320.652L191.224 335.652L193.224 334.652L196.724 325.152L197.224 328.652C195.424 330.852 194.757 334.186 195.224 338.652H196.224V335.652L199.224 332.652L202.724 321.152L203.224 323.652L197.724 358.152L196.724 354.152L195.224 355.652L192.224 376.652L186.724 384.152L186.224 381.652L190.224 368.652L188.724 360.152L184.724 369.152L184.224 365.652L190.224 345.652L192.224 343.652V338.652H191.224L188.224 343.652L186.224 355.652L179.224 374.652L176.224 377.652L169.224 398.652L162.224 410.152C159.69 409.152 158.69 409.652 159.224 411.652C160.89 412.652 160.557 413.652 158.224 414.652L147.724 441.152L147.224 437.652L154.224 418.652L153.224 416.652L154.224 414.652V412.652L157.224 403.652L164.224 391.652L162.224 391.152L161.724 393.152C159.924 392.352 159.757 391.519 161.224 390.652V387.652L164.224 383.652L165.224 377.652L173.224 358.652L172.724 357.152L174.224 357.652L187.724 324.152L188.724 328.152L193.724 318.152ZM184.224 336.152L180.224 350.152L181.224 353.152L186.224 340.152C186.89 336.819 186.224 335.486 184.224 336.152ZM193.224 336.152L192.224 338.152H193.224V336.152ZM195.224 339.152L190.224 352.152L191.224 354.152L195.224 344.152V339.152ZM187.224 342.152L183.224 350.152V355.152L179.224 365.152L180.224 367.152L185.224 354.152L187.224 344.152V342.152ZM197.224 345.152L195.224 348.152L196.224 350.152L197.224 348.152V345.152ZM180.224 353.152L177.224 360.152L178.224 363.152L180.224 357.152V353.152ZM189.224 355.152L190.224 360.152L191.224 357.152C191.89 355.152 191.224 354.486 189.224 355.152ZM177.224 364.152L176.224 366.152H177.224V364.152ZM179.224 367.152L178.224 370.152H179.224V367.152ZM170.224 369.152C170.224 373.819 168.89 377.819 166.224 381.152C165.557 382.486 166.224 382.819 168.224 382.152L172.224 370.152L170.224 369.152ZM178.224 370.152L177.224 373.152H178.224V370.152ZM175.224 376.152L173.224 378.152L174.224 380.152L175.224 378.152V376.152Z" fill="#0D0D0D"/>
<path d="M197.224 343.152V344.152M194.224 356.152V357.152M193.224 359.152V360.152M178.224 370.152L179.224 367.152V370.152H178.224ZM178.224 370.152L177.224 373.152H178.224V370.152ZM165.224 389.152V390.152M193.724 318.152L194.224 320.652L191.224 335.652L193.224 334.652L196.724 325.152L197.224 328.652C195.424 330.852 194.757 334.186 195.224 338.652H196.224V335.652L199.224 332.652L202.724 321.152L203.224 323.652L197.724 358.152L196.724 354.152L195.224 355.652L192.224 376.652L186.724 384.152L186.224 381.652L190.224 368.652L188.724 360.152L184.724 369.152L184.224 365.652L190.224 345.652L192.224 343.652V338.652H191.224L188.224 343.652L186.224 355.652L179.224 374.652L176.224 377.652L169.224 398.652L162.224 410.152C159.69 409.152 158.69 409.652 159.224 411.652C160.89 412.652 160.557 413.652 158.224 414.652L147.724 441.152L147.224 437.652L154.224 418.652L153.224 416.652L154.224 414.652V412.652L157.224 403.652L164.224 391.652L162.224 391.152L161.724 393.152C159.924 392.352 159.757 391.519 161.224 390.652V387.652L164.224 383.652L165.224 377.652L173.224 358.652L172.724 357.152L174.224 357.652L187.724 324.152L188.724 328.152L193.724 318.152ZM184.224 336.152L180.224 350.152L181.224 353.152L186.224 340.152C186.89 336.819 186.224 335.486 184.224 336.152ZM193.224 336.152L192.224 338.152H193.224V336.152ZM195.224 339.152L190.224 352.152L191.224 354.152L195.224 344.152V339.152ZM187.224 342.152L183.224 350.152V355.152L179.224 365.152L180.224 367.152L185.224 354.152L187.224 344.152V342.152ZM197.224 345.152L195.224 348.152L196.224 350.152L197.224 348.152V345.152ZM180.224 353.152L177.224 360.152L178.224 363.152L180.224 357.152V353.152ZM189.224 355.152L190.224 360.152L191.224 357.152C191.89 355.152 191.224 354.486 189.224 355.152ZM177.224 364.152L176.224 366.152H177.224V364.152ZM170.224 369.152C170.224 373.819 168.89 377.819 166.224 381.152C165.557 382.486 166.224 382.819 168.224 382.152L172.224 370.152L170.224 369.152ZM175.224 376.152L173.224 378.152L174.224 380.152L175.224 378.152V376.152Z" stroke="#0D0D0D" stroke-width="1.08"/>
</g>
<g opacity="0.996078">
<path d="M206.724 321.152L207.224 333.652V335.652L207.724 338.152L210.224 324.652L211.724 323.152L212.224 333.652C210.424 334.852 210.09 337.519 211.224 341.652L212.224 342.652L213.224 363.652L215.224 371.652V383.152C217.557 383.886 218.224 381.719 217.224 376.652H218.224L219.224 384.652L218.224 386.652L219.724 391.152L220.224 379.652L217.224 370.652L216.224 335.652L217.224 330.152L219.224 330.652L218.224 331.652V342.652L219.224 343.652V356.652L221.224 361.652V374.652L223.224 382.652V415.652L220.224 427.652V433.652L221.224 439.652L220.224 440.652L219.724 451.152L219.224 432.652L216.224 416.652L215.224 388.652L214.224 387.652C214.89 380.652 214.39 374.819 212.724 370.152L209.724 380.152L208.224 356.652L209.224 354.152C207.224 355.019 206.557 354.186 207.224 351.652H206.224C207.224 355.319 206.89 357.652 205.224 358.652L207.224 370.652L205.724 377.152L203.224 374.652L202.224 366.652L203.224 362.652L202.224 359.652C204.09 358.452 204.424 355.786 203.224 351.652H202.224C202.09 357.852 200.757 362.852 198.224 366.652V368.652L197.724 372.152L196.224 371.652L195.224 382.652L193.224 387.652V393.652L190.724 404.152L190.224 395.652L196.224 364.652L200.224 359.652L202.224 340.652L206.724 321.152ZM211.224 361.152L210.224 364.152H211.224V361.152ZM218.224 394.152L217.224 397.152H218.224V394.152Z" fill="#0D0D0D"/>
<path d="M207.224 341.152V342.152M217.224 384.152V385.152M217.224 387.152V388.152M206.724 321.152L207.224 333.652V335.652L207.724 338.152L210.224 324.652L211.724 323.152L212.224 333.652C210.424 334.852 210.09 337.519 211.224 341.652L212.224 342.652L213.224 363.652L215.224 371.652V383.152C217.557 383.886 218.224 381.719 217.224 376.652H218.224L219.224 384.652L218.224 386.652L219.724 391.152L220.224 379.652L217.224 370.652L216.224 335.652L217.224 330.152L219.224 330.652L218.224 331.652V342.652L219.224 343.652V356.652L221.224 361.652V374.652L223.224 382.652V415.652L220.224 427.652V433.652L221.224 439.652L220.224 440.652L219.724 451.152L219.224 432.652L216.224 416.652L215.224 388.652L214.224 387.652C214.89 380.652 214.39 374.819 212.724 370.152L209.724 380.152L208.224 356.652L209.224 354.152C207.224 355.019 206.557 354.186 207.224 351.652H206.224C207.224 355.319 206.89 357.652 205.224 358.652L207.224 370.652L205.724 377.152L203.224 374.652L202.224 366.652L203.224 362.652L202.224 359.652C204.09 358.452 204.424 355.786 203.224 351.652H202.224C202.09 357.852 200.757 362.852 198.224 366.652V368.652L197.724 372.152L196.224 371.652L195.224 382.652L193.224 387.652V393.652L190.724 404.152L190.224 395.652L196.224 364.652L200.224 359.652L202.224 340.652L206.724 321.152ZM211.224 361.152L210.224 364.152H211.224V361.152ZM218.224 394.152L217.224 397.152H218.224V394.152Z" stroke="#0D0D0D" stroke-width="1.08"/>
</g>
<path opacity="0.996078" d="M235.724 323.152L239.224 341.652L247.224 363.652L246.224 366.652L250.224 375.652L252.224 384.652L251.724 387.152L247.724 376.152L247.224 378.652L249.224 385.652H248.224L246.724 379.152C244.857 380.019 244.69 380.852 246.224 381.652C247.357 385.586 246.69 387.086 244.224 386.152L243.224 368.652L241.724 363.152L239.224 364.152L237.224 357.652L238.224 352.652L234.224 341.652L235.224 340.652L235.724 323.152ZM245.224 366.152V369.152C247.224 368.486 247.224 367.486 245.224 366.152Z" fill="#0D0D0D" stroke="#0D0D0D" stroke-width="1.08"/>
<g opacity="0.996078">
<path d="M227.724 328.152L228.224 333.652L227.224 336.152C229.024 335.419 229.69 335.919 229.224 337.652L230.224 345.152L233.224 346.652C232.424 350.719 232.924 352.552 234.724 352.152L236.224 351.652L237.224 355.652L235.224 358.652V360.652L236.224 368.652H235.224V364.652L231.724 357.152L231.224 364.652L232.224 367.652L230.724 376.152L227.224 360.652L228.224 356.652L226.724 353.152L226.224 370.652V372.652L227.224 374.652L226.224 376.652L227.224 377.652L228.224 394.652L226.224 398.652L227.224 403.652H226.224L225.224 384.652L223.224 376.652V354.652L224.224 353.652V337.652L223.224 335.652L224.724 330.152L225.724 335.152C227.657 334.086 228.324 331.752 227.724 328.152Z" fill="#0D0D0D"/>
<path d="M232.224 346.152V347.152M227.724 328.152L228.224 333.652L227.224 336.152C229.024 335.419 229.69 335.919 229.224 337.652L230.224 345.152L233.224 346.652C232.424 350.719 232.924 352.552 234.724 352.152L236.224 351.652L237.224 355.652L235.224 358.652V360.652L236.224 368.652H235.224V364.652L231.724 357.152L231.224 364.652L232.224 367.652L230.724 376.152L227.224 360.652L228.224 356.652L226.724 353.152L226.224 370.652V372.652L227.224 374.652L226.224 376.652L227.224 377.652L228.224 394.652L226.224 398.652L227.224 403.652H226.224L225.224 384.652L223.224 376.652V354.652L224.224 353.652V337.652L223.224 335.652L224.724 330.152L225.724 335.152C227.657 334.086 228.324 331.752 227.724 328.152Z" stroke="#0D0D0D" stroke-width="1.08"/>
</g>
<path opacity="0.996078" d="M326.224 351.152C330.29 351.752 333.29 353.919 335.224 357.652L336.224 361.652L332.724 359.152C331.257 359.686 330.757 359.186 331.224 357.652L326.224 351.152Z" fill="#0D0D0D" stroke="#0D0D0D" stroke-width="1.08"/>
<path opacity="0.996078" d="M354.724 364.152C356.257 363.686 356.757 364.186 356.224 365.652L363.224 373.652L361.724 373.152L358.224 370.652L354.724 364.152Z" fill="#0D0D0D" stroke="#0D0D0D" stroke-width="1.08"/>
<path opacity="0.996078" d="M339.724 375.152L357.224 394.652L350.224 388.652L339.224 376.652L339.724 375.152Z" fill="#0D0D0D" stroke="#0D0D0D" stroke-width="1.08"/>
</svg>
