<svg width="426" height="413" viewBox="0 0 426 413" fill="none" xmlns="http://www.w3.org/2000/svg">
<path opacity="0.996078" d="M238.5 0L258.5 1L273 4C272.267 5.8 272.767 6.46667 274.5 6L281 9.5L279.5 10L276.5 8L261.5 6L252.5 3H242.5L238.5 0Z" fill="#0D0D0D"/>
<path opacity="0.996078" d="M186.5 3L190 3.5L180.5 6V5L186.5 3Z" fill="#0D0D0D"/>
<path opacity="0.996078" d="M107.5 15C111.1 13.7333 112.6 14.2333 112 16.5L101.5 24L96.5 25L74.5 44L74 41.5C73.5334 40.0333 74.0334 39.5333 75.5 40L107.5 15Z" fill="#0D0D0D"/>
<path opacity="0.996078" d="M218.5 16H241.5L259.5 19L289.5 30L299 36.5L296.5 37L287.5 35L278.5 30H274.5L257.5 25H246.5L245.5 24H206.5L205.5 25H195.5L182.5 27L166.5 34V33L173 29.5L166.5 29L149.5 38L139.5 41L131.5 47L117.5 54C106.633 60.8 96.8 68.6333 88 77.5L81 86.5V88.5L83 87.5L89.5 79L92.5 78V79L90 80.5L80.5 92L78.5 91L68 107.5L73 103.5V101.5L79.5 93L80 94.5L78 98.5L79.5 98L85.5 94C86.5 95.6667 87.5 95.3333 88.5 93L94.5 88L82 101.5L82.5 103L86.5 100L88 100.5C87.5333 99.0333 88.0333 98.5333 89.5 99V97C90.6333 98.8667 91.8 98.3667 93 95.5L108.5 79C115.033 72.2 122.7 66.5333 131.5 62L155.5 51L176.5 45L201.5 43L202.5 42L224.5 41L227 42C226.133 44.2 227.3 44.8667 230.5 44L242.5 50H253.5L254.5 51L267.5 52L272.5 54L286.5 56L290.5 58L308.5 60L319.5 65H322.5L332.5 72L350 79.5L349.5 81L356.5 85H358.5L377 96.5L376 97.5L380.5 102L387 106C386.267 107.8 386.767 108.467 388.5 108L400 118.5L413 141.5L406 135.5L399 125L395 124L384.5 112L375.5 105C373.033 105.533 371.533 105.033 371 103.5L372.5 104L374 103.5L357.5 92L340.5 85L336.5 82L331.5 81V82L345 89.5L346.5 92L351 93L352.5 96L373 111.5L371.5 111L365.5 107C361.7 107.467 359.033 106.8 357.5 105L345.5 96L327 85.5C327.533 84.0333 327.033 83.5333 325.5 84L316.5 82C313.7 78.8667 309.867 77.2 305 77C304.267 75.2 304.767 74.5333 306.5 75L323.5 81L322.5 79L299.5 70V71L306 73.5L304.5 74L285.5 65H283.5L279 63.5L282 62.5L277.5 62L275.5 63L253.5 57C248.767 57.4 245.1 56.7333 242.5 55H233.5C231.833 52.8667 229 52.2 225 53L225.5 51L227.5 52L229.5 51L234.5 53V50H222.5C220.967 48.2 218.3 47.5333 214.5 48L201 50.5L210 51.5L195.5 52L187 54C187.733 55.8 187.233 56.4667 185.5 56V54L177 55L176 57.5L178.5 58L183 56C182.133 58.2 183.3 58.8667 186.5 58L187.5 57H225.5L246.5 61H252.5L264.5 65H269.5L274 67.5C274.533 69.2333 273.7 69.7333 271.5 69L266.5 66H259.5L251.5 64L249.5 65L246.5 64H244.5H234.5L233.5 63L231.5 64L230 63.5C229.467 65.2333 230.3 65.7333 232.5 65L233.5 66H242C241.2 68 242.033 68.6667 244.5 68L247.5 66H249.5C266.367 68.1333 281.2 72.3 294 78.5C292.533 79.3667 292.7 80.2 294.5 81L324 92.5L322.5 93L320.5 92L321.5 94C343.433 102.067 361.267 114.233 375 130.5L377 134.5L396 154.5L406 168.5L421 196.5L417 193.5L407 173.5L389.5 154L386.5 152L378 144.5L372.5 137L357.5 123L350.5 120L352.5 123L355 124.5L363.5 134L369 138.5L367.5 138L363.5 137L334.5 117L289 97.5L294 96.5L291.5 95L263.5 90H257.5L251.5 88L218.5 85L215.5 86L213.5 85C212.5 86.6667 211.5 86.3333 210.5 84C207.7 85.8667 203.367 86.2 197.5 85L196.5 86H185.5L171.5 89L166.5 92L148.5 98L136.5 106L137.5 104L155.5 93L168 90C167 87.5333 167.5 86.5333 169.5 87L182.5 82H186.5L198.5 78L214 77.5L210 76.5L211.5 75L236 74.5L226.5 73H224.5C220.367 71.8667 217.7 72.2 216.5 74C215.5 72.3333 213.167 72 209.5 73L206.5 74L197.5 76C196.5 74.3333 195.5 74.6667 194.5 77L177.5 82V80L171 82L170.5 84L167 83L165.5 86L160.5 87L146.5 94L124 110L122.5 113L123 111.5C123.533 110.033 123.033 109.533 121.5 110L119 114.5H121L109 135L107 134.5L109 131.5L106 133.5V137.5L103 142.5L102 178.5L106 195.5H105L99.5 175L98 177.5L98.5 179L96 174.5L94 159.5L95.5 154C97.3 157.867 97.9667 162.867 97.5 169L99 161.5L98 159.5C99.8667 158.367 100.2 155.7 99 151.5L98 148.5L100 143.5L99 141.5L100 138.5L98 139.5L97 145C94.3333 145.933 93.6667 144.1 95 139.5L99 124.5L104 116.5L103 114.5H104L104.5 116L106 111.5H105L104.5 113L104 111.5L106 107L110 104.5V102.5L115.5 97L120 93.5L124 88.5L122.5 88L118 94L111.5 99L112 97.5L114 92.5L112 93.5L108.5 99L102 103.5L97 114.5H98L98.5 113L99 114.5L93 126.5C93.6 130.1 93.1 132.6 91.5 134L91 131.5L91.5 130C90.0333 129.533 89.5333 130.033 90 131.5L89 136.5H90L90.5 135L91 138.5L89 145.5L91 146.5L89.5 147C87.7 146.2 87.5333 145.367 89 144.5L88.5 141C86.7 143.533 86.2 147.367 87 152.5V154.5L89 173.5H88L86 161.5L85.5 148C83.6333 152.467 83.1333 158.3 84 165.5C85.8 166.633 86.1333 169.3 85 173.5L95 205.5V207.5L97.5 211L99 211.5L98 213.5L116.5 237L121 240.5L118.5 239L111 233.5L99 218.5L89 202.5L85 191L82 189.5V184.5L75 165.5L76 163.5L75 162.5L74.5 152C72.5667 153.067 71.9 155.4 72.5 159L71 155.5V153.5L70.5 152L70 169.5L73 182.5L80 201.5L97.5 226L100 227.5L103 232.5L120.5 250L125.5 254L152.5 268H156.5L162.5 271H166.5L172.5 274L185.5 277C193.967 275.867 200.967 276.2 206.5 278L209 277C209.867 275 209.033 274.333 206.5 275L205.5 276H197.5L193.5 275L192 275.5L192.5 274C190.1 272.067 186.433 271.4 181.5 272L164.5 264C157.567 257.933 149.567 252.933 140.5 249L121 233L117 227.5L119 227L122.5 232L140.5 246L141 244.5C120 228.167 108.667 202.167 107 166.5H108V173.5L110 182.5L118 205.5L121.5 210L122 208.5L121 206.5H122L125.5 214L126 211.5L124 206.5H125L127.5 210L128 208.5L121 189.5L120 174.5L122 169.5L121 168.5V158.5L124 148.5L123 145.5H124L124.5 147L138.5 124L148 120L151.5 115L160.5 109L167.5 107L166.5 109L161 111.5L164.5 112L169 110C168.267 108.2 168.767 107.533 170.5 108L175.5 105H177.5L208 100C207.067 102.667 208.9 103.333 213.5 102V103H204.5L195.5 106H191.5L165 118.5L168.5 119L178 115C177.267 116.8 177.767 117.467 179.5 117L197 111C196.267 108.667 198.433 108 203.5 109L204.5 108H213.5H215.5H217L217.5 106H230.5L240.5 108H244.5H252.5L265 110.5L260.5 113L257.5 112V113L259 113.5L253.5 114L240.5 112L232 113.5L240.5 115L242.5 114L243.5 115H252.5L255 116.5L253.5 117L252.5 116H240.5L239.5 117L220.5 118L198 124.5L203.5 125L214.5 122L216.5 123L218.5 121L223.5 120L246.5 119L253 120C252.267 121.8 252.767 122.467 254.5 122V123L250.5 122H229.5L216 124.5L222.5 125L223.5 124H263.5L269.5 126L272 124.5L270 123.5L272.5 123L281.5 126L283.5 128L298.5 132V131L293.5 128L289 127.5L295.5 127L314.5 135L338.5 151L332 143.5L332.5 142L342 150.5L348.5 158L352 160.5L356.5 166L358.5 167L359 165.5L338.5 142C337.033 142.533 336.533 142.033 337 140.5L336 138L343.5 142L365 161.5L367 164.5H365L372.5 173L376 175.5L376.5 177L377.5 174L378 176.5L377 177.5L380 180.5L394.5 203C396.033 202.533 396.533 203.033 396 204.5C399.733 207.767 402.4 212.1 404 217.5L408 230.5L409.5 241L410.5 236L412 238.5V247.5L415 261.5V274.5L414 275.5L412.5 298C411.7 296.533 410.867 296.7 410 298.5L409 307.5L406 311.5L400 328.5L394 338.5L393 343.5L387 356C385.2 355.267 384.533 355.767 385 357.5L377.5 366L372 370.5C372.533 372.033 372.033 372.533 370.5 372C363.633 379.8 355.633 386.467 346.5 392L348.5 389L353 385.5L355.5 382H357.5L365 375.5L364 373.5L366.5 370C367.367 371.533 368.2 371.367 369 369.5L368.5 368L367 368.5L369.5 365L369 366.5L369.5 368L375 360.5L370 363.5L379 349.5H377L382 340C384 340.867 384.667 340.033 384 337.5L387.5 331L388 332.5C385.667 335.5 384.333 339.5 384 344.5L377 356.5L379 355.5L380.5 353C381.7 354.867 382.867 354.367 384 351.5L386 343.5C384.333 342.5 384.667 341.5 387 340.5C391.6 332.1 394.933 322.433 397 311.5L396 308.5L398 303.5L399 290.5L401 286.5V284.5V277.5L399.5 277L400 275.5L399 267.5C400.667 266.5 401 264.167 400 260.5L399 259.5L397.5 242L397 245C395.2 245.733 394.533 245.233 395 243.5V241.5V232.5L390 219L392 218.5C388.867 216.367 386.7 213.2 385.5 209L385 210.5L391 225.5L393 234.5V242.5H392L391.5 235L390 236.5V245C387.333 245.933 386.667 244.1 388 239.5C386.333 238.5 386 236.167 387 232.5L380.5 214L380 216.5L384 228.5L385 250.5L386 251.5L385 252.5V272.5L384 273.5L383 287.5L376 307.5L366 326.5L343.5 352L328.5 366L306.5 382L275.5 398L258.5 402L255.5 404H250.5L242.5 407L225.5 410L209.5 411L208.5 412H180.5V411L211.5 410L239.5 405L270.5 395L300 379.5L296.5 379L266.5 391V390L284.5 381C291.5 380 297.5 378 302.5 375L331 352.5L330.5 351C322.367 359.2 313.033 366.2 302.5 372L303 370.5C302.267 368.3 302.767 367.467 304.5 368C313.833 363.333 321.667 357.167 328 349.5L326.5 349C319.3 357.6 310.133 363.933 299 368C298.533 365.467 299.367 363.8 301.5 363L303 362.5C301.2 361.3 301.7 360.133 304.5 359L325 345C325.733 343.2 325.233 342.533 323.5 343C317.167 349.667 309.5 355 300.5 359L301.5 357L314 348.5L312.5 348L298 356C298.867 358 298.033 358.667 295.5 358L294 362L289 364.5C289.533 366.033 289.033 366.533 287.5 366L280.5 369L279 368.5L278 372L274.5 373H272.5L270.5 372L264 376.5L265.5 377L268.5 375L279.5 373L292.5 367V368L289 370.5L290.5 371L296.5 368L297 370.5L295.5 372L290 375.5L291.5 376L299.5 371L300.5 373L275.5 384L253 391.5L257 392.5L247.5 395H245.5L243 395.5L245 396.5L236.5 398C235.5 396.333 234.5 396.667 233.5 399L226.5 400L225.5 399H209.5L196.5 401H172.5L171.5 400H162.5L156 398.5L156.5 397L137 394.5L142.5 394L144 394.5C144.6 392.5 143.433 392 140.5 393L124 388.5L130.5 388L134.5 389V388C130.5 388 127.833 386.667 126.5 384L110 380.5L110.5 379C106.633 379.533 104.133 378.7 103 376.5L102.5 375H100.5L89.5 369L88 369.5L88.5 368L71.5 359H69.5L52 347C52.7333 345.2 52.2333 344.533 50.5 345L32 327.5C31.2667 325.3 31.7667 324.467 33.5 325L54.5 341L73 351.5C72.4 353.5 73.5667 354 76.5 353L87.5 361L90.5 360L95.5 361V360L90 358.5L91 356L87.5 354H84.5L66.5 344L48 329.5L49.5 329L76.5 347L99.5 357L107.5 362H111.5L124.5 368L132.5 369L136 371.5L135.5 373C137.033 373.533 137.533 373.033 137 371.5L138.5 372L146.5 371L164.5 376H196.5L198.5 375H200.5H203.5L207 373C206.067 375.467 207.567 376.133 211.5 375L215.5 373C220.433 373.6 224.267 373.1 227 371.5L221.5 371L211.5 373L208 371.5L230 368C230.867 365.8 229.7 365.133 226.5 366L222.5 367V366L245.5 359V360L242 361.5L244.5 362L263 353.5L263.5 352L265.5 353L278.5 344L282.5 343L296 332.5L297.5 330C304.767 327.6 310.6 323.767 315 318.5L314 316.5L318 314L319.5 311L322.5 309L321 311.5L314 320.5L313 324.5L308.5 329C307.033 328.533 306.533 329.033 307 330.5L286 347.5L288.5 348C300.767 340.933 311.267 332.1 320 321.5L318 320.5L325 315.5V312.5L330.5 304L333 305V302.5L341 290.5V287.5L344 281.5L345.5 269C347.367 269.8 347.533 270.633 346 271.5L346.5 277L348.5 268L350 270.5L345 289.5L348 291L353 280.5L356 262.5L355 258.5L357 247C354.533 247.933 353.867 246.433 355 242.5V240.5V233.5L351 217.5L343 197.5L325 172.5L311.5 159C301.367 150.8 289.033 144.8 274.5 141L256.5 138H238.5L235.5 139H233.5H230.5L217 144.5L220.5 145L228.5 142L254.5 141L281.5 147C296.9 153.6 310.067 162.433 321 173.5C330.2 182.967 337.533 194.3 343 207.5L341 208L332 191.5L322.5 181C318.233 180.933 315.4 179.433 314 176.5L311.5 173L308.5 171V173L307.5 170L290.5 163L283.5 158H278.5L268.5 154L265 155.5C270.933 155.567 275.6 156.9 279 159.5L272.5 160L268.5 158L259 157L258.5 155L257.5 157L254.5 156L255.5 158L265 160.5L260 161.5L262.5 163H264.5H269.5L280.5 167L296 176.5L294.5 176L277.5 168L244.5 167L242 168.5L261.5 169L270.5 171L285.5 177L296 183.5L294 184.5L307 194L308.5 197C310.033 196.533 310.533 197.033 310 198.5L315 204.5L319 215.5L323 233.5V241.5L325 250.5L324 251.5V265.5L325 267.5L324 269.5L325 271.5L322 283.5L318.5 288C317.033 287.533 316.533 288.033 317 289.5L312 294.5C311.6 298.433 309.933 301.1 307 302.5V305.5L299 315L296 316.5C296.533 318.033 296.033 318.533 294.5 318L279 330.5L277.5 333L260 342.5L260.5 344H258.5L253.5 345L244.5 350L245.5 347L238.5 351L219.5 355L215.5 358L212.5 357L210.5 358L209.5 355L194.5 358L193.5 357H184.5H182.5L180.5 358H167.5L162.5 357L161.5 358H153.5L121.5 353L107 347.5L108.5 347L122.5 351H127.5L131.5 353H142.5L143.5 354L166.5 356L174 354.5L159.5 354L136.5 350L135 348.5L136.5 349L143.5 347H145.5C149.167 346 151.5 346.333 152.5 348H185.5H187.5L195 347L194.5 345H179.5L178.5 346H154.5L111.5 335L91 327C91.8667 324.8 90.7 324.133 87.5 325L80.5 322L57.5 307L48 298.5C48.5333 297.033 48.0333 296.533 46.5 297L26 276.5L10 254.5L4 244.5L0 231.5L5 235.5L21.5 259C22.3667 257.533 23.2 257.7 24 259.5C23.5333 261.233 24.2 261.733 26 261V263.5L27 266C28.8 266.733 29.4667 266.233 29 264.5L28.5 263L32.5 268L46 280.5C45.5333 282.033 46.0333 282.533 47.5 282L53.5 288L75.5 300V299L72 296.5L73.5 297L78 300.5L77.5 302L79.5 301C78.3667 302.333 79.0333 303.667 81.5 305L83 304.5L81.5 302L85 303.5L83.5 306L87 305.5L86.5 304L89.5 305H91.5L94.5 306C95.5 304.333 96.5 304.667 97.5 307L119.5 316L120 314L117 312.5L118.5 312L124 314C123.267 315.8 123.767 316.467 125.5 316L154.5 323V322L135.5 317L106.5 303L98.5 302L68.5 281L65 280L63 276.5L54 268.5L52.5 266C51.0333 266.533 50.5333 266.033 51 264.5L41 250.5L42 249.5L39 246.5L19 217.5L11 200.5L9 191.5V189.5L8 172.5L7 171.5V169.5L7.5 155C9.7 157.133 10.5333 160.633 10 165.5V167.5V178.5C12 177.833 12.6667 179.167 12 182.5H13L14 180.5L13 179.5V168.5L11 155.5V153.5L12.5 128L13 163.5L14 164.5V175.5L15 176.5C13.8 182.367 14.1333 186.7 16 189.5H15L14.5 188L14 191.5L16.5 197L17.5 193L32 223.5L37.5 231L38 229.5L35 225.5L36.5 226H38L40 229.5L43.5 234L50 238.5L49 240.5L53 242.5L57.5 249L59 248.5L58 251L64 255.5L67 259.5L63 256.5C63.5333 255.033 63.0333 254.533 61.5 255L58 252.5L66.5 262L86.5 279L122 296.5C121.533 298.033 122.033 298.533 123.5 298L136.5 305L186.5 319L202.5 320L203.5 321H219.5L221 320.5C221.4 322.367 219.567 322.867 215.5 322V323H227.5L229.5 324V321L222 320.5L231.5 320L233 318.5L224.5 318L221.5 319L211.5 317L205.5 318L204.5 317L185.5 315L156 303.5L161.5 303L165.5 305L192.5 311L212.5 312L213.5 313H231.5L244.5 310H246.5L258.5 306H260.5C267.433 304.6 273.1 301.933 277.5 298H280.5L287 293L289.5 289L290.5 291L298 279L300 278.5L299.5 277L302 275.5L307 266.5C306.533 261.7 307.533 258.367 310 256.5L311 238.5L312 237.5L310 237C310 248 307.167 256.667 301.5 263C299.5 262.4 299 263.567 300 266.5C294.533 276.033 287.7 284.2 279.5 291L273.5 294L271.5 293L267.5 297L254.5 303H248.5L237.5 306L227.5 307V306L243 302.5L237.5 302L226.5 305H212.5V304C216.1 305.267 217.6 304.767 217 302.5L218.5 303H229.5C231.7 301.2 235.033 300.533 239.5 301L250.5 298L259 293.5L257 292.5L265 287.5L261.5 287H259.5L257.5 288L256.5 286L242.5 291L227.5 294H202.5L197.5 293L196.5 294H180.5C173.633 291.533 165.633 290.2 156.5 290L128.5 281L121.5 276L97.5 265L88 256.5L87.5 255L86.5 256L83.5 253L76 246.5L57.5 222C56.7 223.533 55.8667 223.367 55 221.5L55.5 220L52 217.5L43 199.5L38 180C40.2 180.867 40.8667 179.7 40 176.5L38 170.5L37 149.5L40 141.5L39 135.5L40 132.5L39 130.5L44.5 110L45.5 116L49 104.5L53 98.5C59 93.8333 63.6667 87.8333 67 80.5L83.5 64L103 49.5L103.5 48L105.5 49L134.5 33H137.5L150.5 27H154.5L156.5 25H159.5L171.5 20L194.5 17L195.5 18H204.5L205.5 17H217.5L218.5 16ZM241 18V19H243L241 18ZM238 21V22H247L238 21ZM251 22V23H252L251 22ZM255 23V24H257L255 23ZM163 25L139 34V35H142L159 28H164L165 27L163 25ZM137 35V36H138L137 35ZM134 36V37H136L134 36ZM202 47L201 49L209 48L202 47ZM183 48L157 55L150 59L149 61C152.333 61 154.667 59.6667 156 57L166 55H167L164 57H168L169 54L173 55V54H175L194 50L192 49H190L183 48ZM235 48V49H236L235 48ZM109 49V50H110L109 49ZM107 50L94 59L93 61L98 59L108 51L107 50ZM109 53L108 55L110 54L109 53ZM237 53V54H238L237 53ZM106 55L105 57L107 56L106 55ZM278 56V57H280L278 56ZM102 57V59L104 58L102 57ZM163 57V58H164L163 57ZM281 57V58H284L281 57ZM171 58L169 59V60C171.667 60.6667 173.667 60.3333 175 59L171 58ZM195 59V61H198L195 59ZM199 59V60H200L199 59ZM202 59V60H206L202 59ZM233 60V61H234L233 60ZM91 61L89 64L92 62L91 61ZM146 61L139 64V65H142L148 62L146 61ZM161 61L160 63L162 62L161 61ZM238 61V62H240L238 61ZM304 61L305 63H308L304 61ZM176 62V63H178L176 62ZM196 62L193 64L201 65V63C201.667 65 203.667 65.6667 207 65H209L214 64L208 63H206L205 62H196ZM216 62V63H223L224 64V62H216ZM244 62V63H247L244 62ZM158 63V64H159L158 63ZM183 63L175 66L163 67L152 71V72L163 69L178 68L179 67L182 68L168 71L171 72L182 70L187 67L186 66L191 65L192 68L188 69H186C186.667 71 185.667 71.3333 183 70V72L204 68V67L197 68L198 65C193.333 66.3333 191.333 65.6667 192 63H183ZM91 64L78 77L60 103C56 109 53.3333 116.333 52 125L49 129L47 138L46 141L47 145L46 148L47 151L48 149L51 131L54 130L53 127L57 117L56 115H58L69 94L92 65L91 64ZM155 64L154 66L157 65L155 64ZM163 64V65H164L163 64ZM304 64L306 66C312.667 67.3333 318.667 69.6667 324 73H325L320 68L304 64ZM85 65L84 67L87 66L85 65ZM137 65V66H138L137 65ZM150 66L151 68L153 67L150 66ZM189 66C187.667 68 188 68.6667 190 68L189 66ZM129 67C128.333 69 129 69.6667 131 69C131.667 67 131 66.3333 129 67ZM201 73V74H202L201 73ZM242 76V77H243L242 76ZM262 76L264 78L276 81H278L266 76H262ZM336 77V78H337L336 77ZM338 78V79H340L338 78ZM157 79L155 81C153 80.3333 152.333 81 153 83L158 80L157 79ZM259 79V80H260L259 79ZM262 79L264 81L283 85L299 90L306 94H307L292 86L262 79ZM341 79V80L347 83C348.333 83.6667 348.667 83 348 81L341 79ZM248 80V81H252L248 80ZM110 81L106 86L109 87C110.333 86.3333 110.333 85.6667 109 85L113 82L110 81ZM285 82V83H286L285 82ZM130 83V84H131L130 83ZM128 84L126 87L129 85L128 84ZM141 84L140 86L142 85L141 84ZM133 86L132 88L134 87L133 86ZM105 87L99 94L105 89V87ZM143 87L140 91L145 89L143 87ZM275 88V89L294 95C296 95.6667 296.667 95 296 93L279 88H275ZM288 88V89H289L288 88ZM309 91V92H310L309 91ZM145 92L135 98V99L146 93L145 92ZM300 96L301 98C303.667 97.3333 305.667 98 307 100H310L300 96ZM98 97C94 101.667 91 107.667 89 115H88L89 113V110C87 111.333 86.3333 114 87 118V120L88 122C90.6667 112.667 94.6667 104.667 100 98L98 97ZM317 98L319 101C335.667 107 350.333 115.333 363 126H364L359 121C357 121.667 356.333 121 357 119C345 111 331.667 104 317 98ZM78 99L75 104L78 102V99ZM126 99L123 102C123.667 103.333 123.333 103.667 122 103L115 111L112 112L106 124L107 126L118 109L121 107L127 100L126 99ZM133 99L132 101L134 100L133 99ZM92 100C85.3333 106.667 80 115 76 125L77 127L76 129C75.3333 131 76 131.667 78 131V135C76.6667 135.667 77 136.333 79 137L86 121V118L84 121L82 120C84.6667 112 88.6667 106 94 102C94.6667 100 94 99.3333 92 100ZM59 101L57 104L59 103V101ZM131 101L129 103H131V101ZM68 103L67 105H68V103ZM312 103L313 105H315L312 103ZM84 104L83 106H84V104ZM67 105L66 107H67V105ZM316 105V106H317L316 105ZM66 107L57 127L58 131C59.3333 123 62 116.333 66 111V107ZM108 108L106 111L108 110V108ZM331 109L332 111H333L331 109ZM328 111L329 113H330L328 111ZM160 112V113H161L160 112ZM332 113V114H333L332 113ZM66 114L65 116H66V114ZM166 114L164 115V116H168L166 114ZM334 114L335 116H337L346 123H348C344.667 118.333 340 115.333 334 114ZM118 116L114 121L115 123L118 118V116ZM202 116L198 117V118C202.667 118.667 206 118.333 208 117L202 116ZM65 117L64 119H65V117ZM48 118L46 120L47 123L48 120V118ZM64 119L60 129L61 132L64 124V119ZM69 119V121L71 120L69 119ZM163 119L160 121L153 122L135 142L133 146L129 165L128 168C127.333 175.333 128 181.333 130 186H131L130 180V169L134 150L137 143C141.667 139 145 134.333 147 129L150 128C151.333 128.667 151.667 128.333 151 127C151.667 125 152.667 124.667 154 126L164 120L163 119ZM349 119V120H350L349 119ZM176 120V121H177L176 120ZM171 121L159 126L157 129L174 122L171 121ZM87 122L85 127L86 134L87 128V122ZM114 123L113 125H114V123ZM46 124L45 128H46V124ZM69 124L68 127H69V124ZM172 124V125H173L172 124ZM169 125V126H170L169 125ZM186 125V126H188L186 125ZM211 125L208 126V127L216 126L211 125ZM243 125L242 126C234.667 124.667 229 125 225 127V128L244 127L243 125ZM167 126V127H168L167 126ZM248 126V127H250L248 126ZM68 127L67 129H68V127ZM165 127L163 130L166 128L165 127ZM202 127L192 129L189 131H185L180 134C178 133.333 177.333 134 178 136L187 132L189 133L207 128L202 127ZM252 127V128H253L252 127ZM45 128L44 130H45V128ZM101 128V130L103 129L101 128ZM187 128V129H189L187 128ZM221 128V129H223L221 128ZM259 128V129H261L259 128ZM156 129V130H157L156 129ZM244 129V130H245L244 129ZM263 129V130L272 131C272.667 132.333 273.333 132.333 274 131C271.333 129 267.667 128.333 263 129ZM249 130V132L232 133L271 137L296 148L298 147L303 149H305L307 150H308L298 145L296 141H293L291 139L281 136H275L269 133C263.667 133.667 260 133 258 131L254 132L249 130ZM286 130V131H287L286 130ZM53 131L54 133C54.6667 131 54.3333 130.333 53 131ZM280 131V132L283 133H285L280 131ZM101 132L100 136H101V132ZM157 132V133H158L157 132ZM286 133V134L297 138H299L286 133ZM85 134L81 141V144V146L80 149L81 154L83 151L84 142H86L85 137C86.3333 135.667 86.3333 134.667 85 134ZM156 134L155 135C153 134.333 152.333 135 153 137L157 135L156 134ZM175 134V136L177 135L175 134ZM207 134L184 142V143L187 142L189 143L209 135L207 134ZM300 134L304 138H306L300 134ZM173 136L171 138H173V136ZM75 137L73 141V151H75L74 145L77 144L75 143V137ZM87 137L86 140H87V137ZM89 137L88 140H89V137ZM72 139L71 141H72V139ZM71 141L69 145L70 151H71V141ZM46 142L45 145H46V142ZM67 142L65 146L66 152H67V142ZM313 142V143H314L313 142ZM52 143L50 151V160L49 161L50 163L51 183L53 184V182V180L52 178V163L51 162L53 155C54.3333 149 54 145 52 143ZM315 143C315 145 316.667 146.333 320 147H322C320.667 144.333 318.333 143 315 143ZM382 143L381 145L384 146L382 143ZM190 144L182 146L180 149L191 146L190 144ZM214 144V145H215L214 144ZM212 145V146H213L212 145ZM193 146V147H194L193 146ZM64 147L62 149L63 151V164H65L64 158L65 155L64 147ZM129 147L127 150L129 162L131 148L129 147ZM202 147V148H203L202 147ZM260 147L258 149H261L260 147ZM323 147L324 149H325L323 147ZM178 148V149H179L178 148ZM199 148V149H201L199 148ZM243 148C242.333 150.667 244.667 151.333 250 150H252L257 149L243 148ZM176 149V150H177L176 149ZM191 149V150H194L191 149ZM173 150L171 152C169 151.333 168.333 152 169 154L174 152C174.667 150 174.333 149.333 173 150ZM252 150V152L254 151L252 150ZM256 150V151L259 152H263C261.667 150 259.333 149.333 256 150ZM305 150L306 152L318 161L326 170L343 193L357 218L358 215L360 220C359.333 222 360 223 362 223V227H364L365 234V236L366 241H367V232C365 229.333 364.333 226 365 222L362 216C362.667 214 362 213.333 360 214L359 208L357 214L355 213L356 211V208L355 210L352 206L353 204L354 208H355L354 202L351 196L349 197L347 195H349V194L346 191L339 182L336 177L342 186L345 188L338 177C328.667 165.667 317.667 156.667 305 150ZM327 150L328 152H329L327 150ZM245 151V152H246L245 151ZM248 151V152H250L248 151ZM267 151V152L286 157H288L282 153L267 151ZM315 151L317 154L339 172V171C333 162.333 325 155.667 315 151ZM47 153L46 155H47V153ZM263 155V156H264L263 155ZM46 156L45 160H46V156ZM343 157C341.667 159 342 159.667 344 159L343 157ZM237 159L236 161L242 160L237 159ZM247 161V162H259L247 161ZM123 162V167V177L122 178L124 188L125 186L127 196H129L126 187L127 185L125 172L126 163L124 164L123 162ZM67 163L64 166V168L67 176H68L67 163ZM299 163V164H300L299 163ZM350 168L349 170H350V168ZM63 171L67 185V189L73 200H74L69 190L67 178L65 175C65.6667 171.667 65 170.333 63 171ZM137 173V176C139 175.333 139 174.333 137 173ZM354 173L353 175L364 187H365L358 177L354 173ZM135 174L134 176H135V174ZM367 174L366 176H367V174ZM374 175L373 177L377 182L380 184L374 175ZM368 176V179C370 178.333 370 177.333 368 176ZM137 177L136 179H137V177ZM265 177V178H266L265 177ZM269 178V179H270L269 178ZM54 179L55 186L56 181C56.6667 179 56 178.333 54 179ZM273 179L276 182H278L273 179ZM367 180C366.333 182 367 182.667 369 182C369.667 180 369 179.333 367 180ZM58 181L57 183H58V181ZM279 182V183H280L279 182ZM14 183L13 188H14V183ZM281 183V184L296 193L301 199L308 214L310 215L307 202L306 204L300 196C300.667 194 300 193.333 298 194V191L281 183ZM370 183L369 185H370V183ZM11 184L10 189L12 194H13L11 184ZM59 184L58 186H59V184ZM381 184L380 186L382 187L381 184ZM377 185V189L380 191L377 185ZM59 187L60 201L62 202L60 196L61 192L63 195V193L60 191L59 187ZM351 187L352 191L354 192L353 189C353.667 187 353 186.333 351 187ZM366 187L365 189L368 190L366 187ZM383 187L382 189L384 190L383 187ZM51 188L50 192H51V188ZM133 189L132 192H133V189ZM385 190V195H387L385 190ZM381 191L383 199H384L381 191ZM377 193L376 195L379 196V194L377 193ZM374 194L376 202L378 203L374 194ZM90 195V200L92 201L90 195ZM49 197L50 203L52 204L50 199C50.6667 197 50.3333 196.333 49 197ZM361 198L360 201L362 202L361 198ZM67 201V205L69 206L67 201ZM382 201L381 203H382V201ZM71 202V206L75 210L81 222L84 223L85 224C85.6667 222 85.3333 221.333 84 222L76 209L71 202ZM93 202L92 204L94 205L93 202ZM311 202L314 212H316L311 202ZM77 203L76 205H77V203ZM78 205L77 208L81 216L91 229L95 237L107 249C105 249.667 105.667 250.667 109 252V251V249L119 257L125 259L137 267H141L152 272L160 273L167 278C171.667 277.333 175.667 278 179 280H181L146 267L120 251C118 251.667 117.333 251.333 118 250H117V249L110 242L106 241V243L95 234C95.6667 232 95 231.333 93 232L91 226C85 220 80.6667 213 78 205ZM384 205V209H385L384 205ZM64 206L63 208H64V206ZM71 207L72 212H73L71 207ZM383 208L382 211H383V208ZM20 211L19 214L28 230L32 233L20 211ZM129 211L130 217H131C131.667 213.667 131 211.667 129 211ZM292 211L291 213H292V211ZM392 211L391 213H392V211ZM380 212L379 214H380V212ZM382 212V214L384 213L382 212ZM123 214L122 216L124 217L123 214ZM384 214L383 217C385.667 220.333 387.333 225 388 231H389C389 223.667 387.333 218 384 214ZM294 215L293 217H294V215ZM125 217L124 220L128 227H129L125 217ZM301 217L300 219H301V217ZM311 218C312.333 222 313 227.333 313 234L315 235L313 220L311 218ZM358 219L357 222L359 223L358 219ZM296 221V225H297L296 221ZM300 221L302 229L304 242L305 237L302 226C303.333 222 302.667 220.333 300 221ZM377 221L376 223H377V221ZM79 222L80 224C80.6667 222 80.3333 221.333 79 222ZM67 224V225H68L67 224ZM360 224L359 226H360V224ZM85 227L86 229C86.6667 227 86.3333 226.333 85 227ZM130 227V231L134 234L130 227ZM86 229L90 236H92L89 231L86 229ZM361 229L359 232L362 237L363 248H364V238C361.333 236 360.333 233 361 229ZM71 230L70 232L73 234L71 230ZM84 233L83 235L88 241L92 243L84 233ZM74 234L73 236L76 238L74 234ZM321 235C319 237 318.333 240.667 319 246L321 245V235ZM373 236C371.667 242 372 247 374 251L375 242V240L373 236ZM78 239L77 241L79 242L78 239ZM82 239L81 241L89 247L82 239ZM397 239L396 241H397V239ZM42 240L41 242L45 249L57 263L62 266L64 268C55.3333 259.333 48 250 42 240ZM378 240L377 243H378V240ZM96 241L95 243L97 244L96 241ZM80 242L79 244L84 247L80 242ZM366 243L365 246H366V243ZM377 245L376 248H377V245ZM379 245L376 255L377 260L376 263L377 265C375 285.667 369.667 303.333 361 318L362 319L372 302L377 286L378 273L379 272V256L380 255L379 245ZM101 247L100 249L106 254L104 255L109 258L108 255L120 263L133 268C134.333 268.667 134.667 268 134 266L125 261L123 262L109 254L107 251L101 247ZM319 249L317 251L318 261L320 252L319 249ZM93 250L94 252C94.6667 250 94.3333 249.333 93 250ZM95 252L94 254H95V252ZM99 252L108 261H109L99 252ZM322 253L321 255H322V253ZM360 257L359 259H360V257ZM363 257L362 261H363V257ZM113 261C111.667 263 112 263.667 114 263L113 261ZM362 262V264L365 265L364 264C364.667 262 364 261.333 362 262ZM116 263C116.667 265.667 119.333 267.667 124 269H125L116 263ZM30 266L29 268L42 279V278L30 266ZM283 266L280 270L283 268V266ZM414 266L413 268H414V266ZM365 267L364 270H365V267ZM70 268L73 272V271L70 268ZM136 268L137 270H139L136 268ZM63 269L62 271L77 283H78L63 269ZM67 269L80 282L102 294L101 296L112 302H114L110 298C108 298.667 107.333 297.667 108 295C102 293 96.6667 290 92 286L87 285L67 269ZM183 269V270H184L183 269ZM414 269L412 272L413 281L414 272V269ZM127 270L131 274H133L127 270ZM140 270V271H142L140 270ZM118 271V272H119L118 271ZM143 271L147 274H149C148.333 271.333 146.333 270.333 143 271ZM120 272V273H121L120 272ZM369 272C366.333 276.667 364.667 282.333 364 289V291L362 297V299L358 310L359 312C363.667 304 367 295 369 285L367 284L369 275V272ZM317 273L309 291L310 292L316 282L315 280L318 274L317 273ZM321 273L319 281L321 280V273ZM137 274L135 276L148 280H152L137 274ZM282 274L280 277L282 276V274ZM273 275L272 277L274 276L273 275ZM275 276L267 282V283C271.667 282.333 274.667 280.333 276 277L275 276ZM309 276L307 279L309 278V276ZM383 276L382 278H383V276ZM231 277V278H232L231 277ZM269 277V279L271 278L269 277ZM278 277L276 280L279 278L278 277ZM157 278V279L162 281H166L176 285L191 286L192 287H199L197 285L195 286L194 285L179 284C172.333 280.667 165 278.667 157 278ZM222 278V279H224L222 278ZM229 278V279H230L229 278ZM304 278L295 290L296 291L305 279L304 278ZM191 279V280H196L191 279ZM307 279L306 282H307V279ZM153 280V281H154L153 280ZM274 280V281H275L274 280ZM155 281V282H157L155 281ZM180 281L182 283H190L180 281ZM198 281V282H199L198 281ZM258 281V282H259L258 281ZM263 281L262 283L264 282L263 281ZM158 282L159 284H161L158 282ZM306 282L305 284H306V282ZM320 282L319 284H320V282ZM79 283L81 286H82L79 283ZM88 283L90 285H91L88 283ZM264 283V285L266 284L264 283ZM162 284V285H165L162 284ZM237 284V285H239L237 284ZM260 284V285H261L260 284ZM305 284L294 296L291 302C283 309.333 273 314.667 261 318L260 320C262 317.333 265.667 316.333 271 317L282 310C284.667 310.667 285.667 310 285 308L291 305L305 286V284ZM412 284L411 287H412V284ZM150 285V286H153L150 285ZM166 285V286H169L166 285ZM231 285V287L236 286L231 285ZM258 285V286H259L258 285ZM201 286V287H204L201 286ZM163 287V288H164L163 287ZM224 287V288H225L224 287ZM166 288V289H169L166 288ZM103 289V290H104L103 289ZM170 289V290L173 291H178C176 289 173.333 288.333 170 289ZM279 289V290H280L279 289ZM360 289C359.333 291.667 360 292.667 362 292C362.667 289.333 362 288.333 360 289ZM54 290L53 292L57 294L54 290ZM105 290V291H106L105 290ZM345 290L344 294L346 293L345 290ZM107 291V292H108L107 291ZM180 291V292H181L180 291ZM262 291L260 292V293L263 292L262 291ZM275 291L274 293L276 292L275 291ZM109 292V293H110L109 292ZM111 293L114 296H118L111 293ZM344 294L342 298L344 297V294ZM301 296L298 300L301 298V296ZM407 296L406 298H407V296ZM284 297V298H285L284 297ZM402 297L401 300H402V297ZM248 300V301H249L248 300ZM297 300L296 302L298 301L297 300ZM405 300L406 303L407 301L405 300ZM244 301V302H245L244 301ZM76 303C74.6667 305 75 305.667 77 305L76 303ZM117 303V304H118L117 303ZM119 304V305H120L119 304ZM121 305V306H122L121 305ZM275 305L263 309V310L266 309L269 310L275 307V305ZM355 305L353 307H355V305ZM406 305L403 313L404 316L406 310V305ZM263 307V308H264L263 307ZM350 308L343 319L341 318L338 323L341 322C337 330 331.667 337 325 343H328L330 340L340 331L342 326L351 313L350 308ZM142 309V310H143L142 309ZM73 310L75 312L76 315L80 316C81.3333 316.667 81.6667 316.333 81 315L73 310ZM99 311L98 313L103 316H105L99 311ZM136 311V312H137L136 311ZM147 311V312H148L147 311ZM138 312V313H139L138 312ZM358 312L357 314H358V312ZM153 313V314H154L153 313ZM279 314L277 315L275 318L281 315L279 314ZM244 315L235 317V318C240.333 318.667 244.667 318 248 316L244 315ZM106 316C106 318 107.667 319.333 111 320H113L106 316ZM163 316L162 318L183 325L191 326H193C193.667 328 196 328.667 200 328V327C197.333 327.667 196.333 327.333 197 326L196 324L187 322H180L176 319H172L163 316ZM250 316V317H251L250 316ZM126 317C124.667 319 125 319.667 127 319L126 317ZM356 317L355 319H356V317ZM269 318V319H270L269 318ZM355 319L350 326L351 328L355 321V319ZM361 319L359 321H361V319ZM114 320V321H116L114 320ZM264 320L262 322C261.333 324 262 324.667 264 324L265 321L264 320ZM90 321C90 323 92 324.333 96 325H98L90 321ZM326 322L324 325L327 323L326 322ZM133 324V325H134L133 324ZM260 324L252 329C246.667 327.667 244.667 328.667 246 332C244 334 240.667 334.667 236 334L230 337L228 340L244 336L248 333C248.667 331.667 249.333 332 250 334L248 335L245 339C242.333 338.333 241.333 339 242 341L254 338L275 327L277 324C275 326 272 326.667 268 326L257 335L252 336L251 332L255 331L253 330L262 325L260 324ZM100 325L102 327H103L100 325ZM124 325V326H129L124 325ZM245 325L238 328L239 330L245 328C247 327.333 247 326.333 245 325ZM324 325L322 327H324V325ZM279 326L277 327L276 329L279 328V326ZM116 327L110 330L116 332L118 331L122 332L124 331L116 327ZM322 327L319 331L322 329V327ZM132 328V329H133L132 328ZM256 329V330H257L256 329ZM350 329L344 337L345 339L350 332V329ZM180 330V333V335L181 337L174 338C177.333 337.333 180 338 182 340H190H192H193L186 334V330H180ZM110 331V332H112L110 331ZM125 331L122 333L125 335L122 336L125 337L128 336L141 339H148L137 336L142 335L125 331ZM145 331V332H148L145 331ZM318 332L314 337L318 334V332ZM224 334L223 336L230 335V334L226 335L224 334ZM160 336L161 338C161.667 336 161.333 335.333 160 336ZM196 336V337H198L196 336ZM128 337V338H130L128 337ZM200 337V339H206C205.333 337 203.333 336.333 200 337ZM310 339L309 341L311 340L310 339ZM156 341L158 343L172 344L173 345L176 344L173 342L156 341ZM239 341V342H241L239 341ZM307 341L305 344L308 342L307 341ZM382 343L380 346H382V343ZM303 344L297 349L280 358L279 360L297 352L304 345L303 344ZM215 345L213 347H216L215 345ZM310 345L309 347L311 346L310 345ZM317 345L315 347H317V345ZM199 346V347H202L199 346ZM204 346V347H209L204 346ZM211 346V347H212L211 346ZM221 347V348H223L221 347ZM380 347L379 349H380V347ZM306 348V349H307L306 348ZM283 349L282 351L284 350L283 349ZM303 349L302 351L305 350L303 349ZM199 351L200 353L202 352L199 351ZM280 351V352H281L280 351ZM300 351V352H301L300 351ZM277 352V354L279 353L277 352ZM385 353L384 355H385V353ZM377 357L375 360L377 359V357ZM288 360L287 361C284.333 360.333 283.333 361 284 363L289 361L288 360ZM97 361V362H98L97 361ZM275 361V362H276L275 361ZM99 362V363H100L99 362ZM273 362V363H274L273 362ZM271 363L266 365L265 367L272 364L271 363ZM233 366V367H234L233 366ZM234 369V370H235L234 369ZM257 369L240 375L229 377V378L240 377L263 370L257 369ZM105 371C105 373.667 105.667 374 107 372L105 371ZM262 371L258 373C254.667 372.333 253.667 373.333 255 376C253.667 378 251 378.667 247 378V379L255 378L264 372L262 371ZM145 372V373H146L145 372ZM231 374V375H232L231 374ZM111 375L113 377H115L111 375ZM306 375L305 377L307 376L306 375ZM205 376L199 377V378L214 377L205 376ZM124 377V378H125L124 377ZM301 378V379H302L301 378ZM153 379V380H154L153 379ZM245 379L227 384L192 386L191 388L221 387L222 386L225 387H223V388C227.667 388.667 231.333 388 234 386H243L247 384L261 382L262 380L230 386H226L249 381L245 379ZM160 380V381H162L160 380ZM279 380V381H280L279 380ZM215 381L211 382H209L207 383L203 382L197 383H177L174 385H178H180L212 384L220 382L215 381ZM136 385V386H139L136 385ZM149 385L148 387L153 388H155H158L149 385ZM161 387L159 389L167 390H173L161 387ZM220 388V389H222L220 388ZM239 388L234 389V390C238 391.333 240.667 391 242 389L239 388ZM203 392C202.333 393.333 203.333 393.667 206 393H208L210 394H216L215 392H203ZM236 392L219 395H212L210 398L222 397L226 395H232L238 393L236 392ZM147 393L149 395L161 396L167 398H179V396L177 397L176 395L173 396L163 394L159 395L147 393ZM184 395V396H185L184 395ZM187 395V396L192 397L198 396L203 397L207 396L187 395ZM184 397V398H186L184 397Z" fill="#0D0D0D"/>
<path opacity="0.996078" d="M326 23.9999C331.6 23.8666 335.6 25.6999 338 29.4999L337.5 30.9999L341 32.4999L339.5 32.9999L326 25.9999V23.9999Z" fill="#0D0D0D"/>
<path opacity="0.996078" d="M108.5 31L107.5 33C98.5 37 90.8333 42.3333 84.5 49L87 45.5C86.5333 44.0333 87.0333 43.5333 88.5 44L101.5 34L108.5 31Z" fill="#0D0D0D"/>
<path opacity="0.996078" d="M63.5 49L63 50.5L61 55.5L46 75.5L30.5 108L30 104.5L35 94.5H33L39 86.5L38 84.5L48 69.5L44 72.5L33.5 89L33 87.5L42 71.5L60.5 51L63.5 49ZM52 64L48 69L52 66V64ZM36 92L35 94H36V92Z" fill="#0D0D0D"/>
<path opacity="0.996078" d="M215.5 89L220 89.5L217.5 91H210.5L206.5 93H200.5L196.5 95L182.5 97L160.5 104C149.567 108.933 140.067 114.933 132 122L126 129.5L119 144.5L116 154.5L115 169.5L114 170.5V172.5L113.5 175L113 164.5L114 163.5V155.5L118 141.5L129.5 123C131.033 123.533 131.533 123.033 131 121.5L146.5 109L169.5 98L196.5 91C204.367 91.8667 210.7 91.2 215.5 89Z" fill="#0D0D0D"/>
<path opacity="0.996078" d="M235.5 91H257.5L262 92.5L231.5 93V92L235.5 91Z" fill="#0D0D0D"/>
<path opacity="0.996078" d="M222.5 93L230 93.5L208.5 96V95L221.5 94L222.5 93Z" fill="#0D0D0D"/>
<path opacity="0.996078" d="M230.5 97L266.5 99L285.5 103L291 105.5L288.5 106L267.5 101L235.5 99L230.5 98V97Z" fill="#0D0D0D"/>
<path opacity="0.996078" d="M9.5 102L10 108.5L8 116.5C4.46667 120.633 1.96667 125.8 0.5 132L0 125.5L2 122.5V117.5L5 109.5L9.5 102Z" fill="#0D0D0D"/>
<path opacity="0.996078" d="M133.5 110L133 111.5L121 127.5V130.5L117.5 135L117 132.5C120.533 123.033 126.033 115.533 133.5 110Z" fill="#0D0D0D"/>
<path opacity="0.996078" d="M267.5 111H283.5L290.5 113H296.5L306.5 117L314.5 118L351.5 139L373 157.5C389.467 172.7 402.133 191.7 411 214.5H410C399.067 190.767 384.567 170.6 366.5 154L338.5 133C331.033 131.133 324.7 128.133 319.5 124L289.5 114L273.5 112H271.5C268.167 112.667 266.833 112.333 267.5 111Z" fill="#0D0D0D"/>
<path opacity="0.996078" d="M392.5 137L407 154.5L404 152.5L392.5 137Z" fill="#0D0D0D"/>
<path opacity="0.996078" d="M389.5 161C397.1 168.4 402.933 177.567 407 188.5L405 187.5C401.067 177.767 395.733 169.433 389 162.5L389.5 161Z" fill="#0D0D0D"/>
<path opacity="0.996078" d="M89.5 176C93.9667 197.2 102.133 214.7 114 228.5L110 225.5C103.2 216.3 97.5333 205.967 93 194.5L89 179.5L89.5 176Z" fill="#0D0D0D"/>
<path opacity="0.996078" d="M114.5 179L119 198.5H118L114 187.5L114.5 179Z" fill="#0D0D0D"/>
<path opacity="0.996078" d="M305.5 183L316 192.5L326 210.5L331 226.5L333 236.5V264.5L327.5 281L327 278.5L331 267.5C330 263.833 330.333 261.5 332 260.5V242.5L330 229.5L323 208.5L316 194.5L305.5 183Z" fill="#0D0D0D"/>
<path opacity="0.996078" d="M314.5 185L324 194.5L339 218.5L343 230.5L345 243.5V252.5L343 251.5L342 237.5L336 216.5L327 201.5L315 187.5L314.5 185Z" fill="#0D0D0D"/>
<path opacity="0.996078" d="M34.5 195L38 204.5L36 203.5L34.5 195Z" fill="#0D0D0D"/>
<path opacity="0.996078" d="M419.5 199L423 208.5L425 233L423 232.5V219.5L419 204.5L419.5 199Z" fill="#0D0D0D"/>
<path opacity="0.996078" d="M11.5 206L29 238.5L27 239L19 226.5L11.5 206Z" fill="#0D0D0D"/>
<path opacity="0.996078" d="M43.5 212L46 217.5H45L43.5 212Z" fill="#0D0D0D"/>
<path opacity="0.996078" d="M32.5 213L35 216.5L33 215.5L32.5 213Z" fill="#0D0D0D"/>
<path opacity="0.996078" d="M346.5 216L350 222.5L354 241C351.8 241.867 351.133 240.7 352 237.5L346 218.5L346.5 216Z" fill="#0D0D0D"/>
<path opacity="0.996078" d="M46.5 227L53 234.5L47 229.5L46.5 227Z" fill="#0D0D0D"/>
<path opacity="0.996078" d="M70.5 245L90 267.5L87.5 266L77 256.5L70.5 245Z" fill="#0D0D0D"/>
<path opacity="0.996078" d="M32.5 255L41 265H45.5L53 272.5L55 277L58 278.5L61.5 283L69 287L71.5 291L82 296.5L79.5 297L77 296C77.7333 294.2 77.2333 293.533 75.5 294L73.5 295L58 283.5L47.5 272L37 262.5L32.5 255Z" fill="#0D0D0D"/>
<path opacity="0.996078" d="M341.5 256L342 263.5L340 266.5L338.5 274L338 267.5L341.5 256Z" fill="#0D0D0D"/>
<path opacity="0.996078" d="M101.5 274L110 278.5L108.5 279L102.5 276L101.5 274Z" fill="#0D0D0D"/>
<path opacity="0.996078" d="M392.5 274L393 276.5L389 293.5V295.5V301.5L381 321.5L373.5 334L373 332.5L384 309.5L387 292.5L390 286.5L391 275.5L392.5 274Z" fill="#0D0D0D"/>
<path opacity="0.996078" d="M335.5 277L336 278.5C330.467 291.633 322.967 302.8 313.5 312L310.5 313L309.5 312L307 313.5C308.2 310.7 309.367 310.2 310.5 312C312.033 312.533 312.533 312.033 312 310.5L311 308L314.5 306L317 302L324 296.5L335.5 277Z" fill="#0D0D0D"/>
<path opacity="0.996078" d="M101.5 282L105 284.5L103.5 284L101.5 282Z" fill="#0D0D0D"/>
<path opacity="0.996078" d="M20.5 286L42 308.5L40.5 309L23 291.5L20 287.5L20.5 286Z" fill="#0D0D0D"/>
<path opacity="0.996078" d="M108.5 286L134 296.5L132.5 297L120.5 293L108.5 287V286Z" fill="#0D0D0D"/>
<path opacity="0.996078" d="M425.5 287L426 293.5L424.5 298L424 290.5L425.5 287Z" fill="#0D0D0D"/>
<path opacity="0.996078" d="M147.5 293C152.033 295.133 157.7 296.133 164.5 296L167 297.5L160.5 298L148.5 295L147.5 293Z" fill="#0D0D0D"/>
<path opacity="0.996078" d="M11.5 302L18 310.5L14 307.5L11.5 302Z" fill="#0D0D0D"/>
<path opacity="0.996078" d="M63.5 327L95 344.5L93.5 345L67.5 331L63.5 327Z" fill="#0D0D0D"/>
<path opacity="0.996078" d="M357.5 351L357 352.5L350.5 361L348.5 362L353 356.5L357.5 351Z" fill="#0D0D0D"/>
<path opacity="0.996078" d="M365.5 351L367 351.5L358.5 361L357 360.5L365.5 351Z" fill="#0D0D0D"/>
<path opacity="0.996078" d="M332.5 376L333 377.5C331.2 380.367 328.367 382.2 324.5 383L327.5 379L332.5 376Z" fill="#0D0D0D"/>
<path opacity="0.996078" d="M355.5 377L353 380.5L346.5 388L337.5 394L338.5 392L349 385L351 381.5L355.5 377Z" fill="#0D0D0D"/>
<path opacity="0.996078" d="M94.5 389L106 393.5L104.5 394L94.5 390V389Z" fill="#0D0D0D"/>
<path opacity="0.996078" d="M314.5 398C316.033 397.533 316.533 398.033 316 399.5L318.5 398C322.433 396.867 323.933 397.533 323 400L312.5 406H310.5L291 413L291.5 411L292.5 412L295.5 409L314.5 398Z" fill="#0D0D0D"/>
<path opacity="0.996078" d="M354.5 400L350.5 405L342.5 411L342 409.5L354.5 400Z" fill="#0D0D0D"/>
<path opacity="0.996078" d="M119.5 406L142 412.5L138.5 413L124.5 409L119.5 407V406Z" fill="#0D0D0D"/>
</svg>
