<svg width="440" height="426" viewBox="0 0 440 426" fill="none" xmlns="http://www.w3.org/2000/svg">
<path opacity="0.996078" d="M283.5 0C295.833 3.66667 306.833 8.66667 316.5 15C329.9 23.2667 341.733 33.1 352 44.5L362 58.5L379 89.5L384 113.5L385 134.5L386 136.5L385 138.5L386 142.5L385 143.5L384 162.5C381.867 167.033 380.867 172.7 381 179.5L373 203.5H374C379.267 192.433 383.267 180.1 386 166.5L388 154.5V143.5L389 142.5V117.5L387 110.5V108.5V101.5L379 68.5L369 42C367 42.8667 366.333 42.0333 367 39.5L362 31.5L368 36.5L376 48.5L393 85.5L399 107.5L402.5 141L404 135.5V106.5L405 104.5L399 71.5L392 49.5L387 39.5L391 42.5C398.067 54.4333 403.733 67.7667 408 82.5L412 99.5L414 116.5V118.5L412 151.5L410 154.5V156.5C408.267 173.767 404.267 188.767 398 201.5L400 202L407 185.5L414 160.5L419 122.5V120.5L419.5 105L422 120.5V136.5L423 137.5L422 138.5V153.5L421 154.5L420 176.5L412 208.5C404.333 231.167 393.333 250.5 379 266.5L380.5 267C395.967 251.8 408.633 233.8 418.5 213L418 214.5L412 234.5L401 254.5C390.733 270.567 378.567 284.733 364.5 297C360.1 301.933 354.6 305.767 348 308.5L350.5 309C364.3 301.467 376.133 291.967 386 280.5C410 254.5 427.833 222.333 439.5 184L440 193.5L436 218.5L428 241.5L420 257.5L404 282.5L389.5 299C372.833 315.333 352.833 328.333 329.5 338L310.5 344L292.5 347L287.5 349L256.5 351L253.5 350H243.5L221.5 346C206.833 341.333 193.5 335.333 181.5 328L184.5 332L194.5 338L220.5 348L251.5 354H268.5L270.5 355L271.5 354H290.5L297.5 352H303.5L322.5 347L349.5 337L382.5 318L414.5 292L414 293.5C408.6 302.767 401.767 310.6 393.5 317L387 321L381.5 328L370.5 337L344.5 353L315.5 365L290.5 371H288.5L267 373.5C268.2 375.7 271.033 376.2 275.5 375L311.5 369L338.5 360L353.5 353L352.5 355L332.5 367L317.5 374L300.5 379H295.5L286 381.5L299.5 382L304.5 380L323.5 377L350.5 367L374.5 354L405.5 331L404 333.5L391.5 348C377.633 361.8 360.967 372.8 341.5 381L324.5 387L293.5 393L291.5 392L290.5 393L266.5 394L264.5 393L261.5 394L248.5 392H246.5L214.5 387L193.5 380L168.5 368L149.5 356L152.5 360C163.567 368.267 175.9 375.267 189.5 381L216.5 391L248.5 399L267.5 402L271.5 404H289.5L290.5 403H307.5V404L282.5 409H258.5L217.5 402L191.5 392L192.5 394L221 408.5L222 412L217.5 411H215.5L205.5 409L184.5 400L157.5 384L137 367.5C137.533 366.033 137.033 365.533 135.5 366L116.5 345L116 346.5L140 376.5L138.5 377C117.433 359.067 100.6 336.9 88 310.5L78 276.5L77 261.5L76 260.5V236.5L77 234.5V232.5L78 216.5C80.6667 204.5 84.3333 193.5 89 183.5C97.0667 167.233 107.567 153.4 120.5 142C130.9 132.4 143.233 124.733 157.5 119L178.5 114H203.5L207 115.5L202.5 116C201.367 114.133 198.7 113.8 194.5 115H192.5L190.5 116H176.5L166.5 118L149.5 124C134.167 133 121 144.167 110 157.5C100.867 168.367 93.5333 181.033 88 195.5L81 218.5L79 245.5H80L83 219.5L91 194.5C98.9333 175.767 109.767 159.933 123.5 147C133.233 137.067 144.9 129.067 158.5 123L180.5 118H208.5L230.5 124L243 132.5L239.5 130C232.833 126 224.833 123.333 215.5 122L189.5 121L171.5 125L158.5 131C145.9 137.733 135.4 146.567 127 157.5L109 185.5L102 204.5L98 224.5V256.5L99 257.5V266.5L105 291.5C108.667 302.5 113.833 312 120.5 320L121 318.5C113.4 308.1 107.733 295.767 104 281.5L101 264.5V246.5H102L103 265.5L112 293.5L124 314.5L142 336L158.5 349L183.5 364L204.5 372L228.5 378V377L199.5 368L181.5 360L161.5 348L138 327.5C123.4 312.767 113.4 293.433 108 269.5L110 270.5L115 288.5L123 305.5C129.533 315.967 137.367 325.133 146.5 333L168.5 351L175.5 354V353C161.1 344.067 148.6 333.233 138 320.5C127.067 308.1 118.733 293.1 113 275.5L109 254.5V225.5C113.2 196.7 123.367 173.867 139.5 157L141 157.5C133.8 163.967 128.467 172.3 125 182.5L127 181.5L130.5 175L130 176.5L124 188.5L118 206.5C119 210.167 118.667 212.5 117 213.5V243.5L123 272.5L132 291.5C140.467 306.367 150.967 319.2 163.5 330L189.5 349L211 358C211.733 356.2 211.233 355.533 209.5 356C197.567 351.933 187.233 346.267 178.5 339L152 314.5C141.467 303.033 133.133 289.367 127 273.5L122 255.5L121 233.5L120 232.5V230.5L122 205.5L127 189.5L145 159.5L151.5 153L176.5 139L186.5 136L205.5 133L206 135L190.5 137L173.5 144C161.833 149.667 152 157.167 144 166.5L129 191.5L125 204.5L124 215.5L125 220.5L124 221.5V244.5L128 262.5L133 274.5C139.6 287.233 147.767 298.4 157.5 308L167.5 315H169.5V314L165.5 312L149 295.5L140 280.5L134 265.5H135L145 285.5L149.5 291L153 293.5L158.5 300C168.7 309.8 180.367 318.133 193.5 325L222.5 335L242.5 338V337L224.5 333L194.5 320C179.033 311.467 165.867 300.633 155 287.5C147.667 278.833 141.667 268.833 137 257.5L133 238.5V216.5L132 214.5L136 193.5L142 182L144 182.5L139 194.5L136 208.5V228.5L138 233.5L140 247.5L142 250.5L141 254.5C148.467 272.033 159.3 286.2 173.5 297C186.833 308 203.167 316 222.5 321L250.5 326H276.5L304.5 320L329.5 311C342.7 304.867 353.867 296.7 363 286.5L361.5 286L341.5 302L323.5 311L297.5 319H292.5L281.5 322H262.5L259.5 323L258.5 322L239.5 321L217 314.5C218.533 313.7 218.367 312.867 216.5 312L195.5 301L167 279C160.867 271.667 155.533 263.167 151 253.5L148 245.5L145 228.5V226.5V217.5L147 210.5V204.5L150 194.5L162 173.5L171.5 164L190.5 152L207.5 147C213.5 147.667 218.167 147 221.5 145L238.5 148L252.5 155L249.5 151L238.5 145C233.5 144.667 229.5 143.333 226.5 141L217 139.5L222.5 139C236.9 141.6 248.4 147.1 257 155.5L258.5 159L259 157.5L253.5 149C245.3 141.867 234.8 137.033 222 134.5L225.5 134C241.433 136.733 253.6 143.233 262 153.5C266.733 158.9 270.067 165.4 272 173C273.8 173.733 274.467 173.233 274 171.5L268 159.5L270 160.5C269.533 162.033 270.033 162.533 271.5 162L271 160.5C267.133 148.7 260.633 139.533 251.5 133L249 131.5L250.5 132L259 138.5C265.733 145.1 271.067 153.1 275 162.5L280 180.5V190.5L279 193.5L278 206.5H279L282 189.5V170.5L274 149.5L259 132L245.5 123L224.5 114L201.5 110H187.5L186.5 111L171.5 112L152.5 118C136.833 125.333 123.333 134.833 112 146.5C99.9333 158.433 90.2667 172.767 83 189.5L76 213.5L74 225.5L73 247.5L74 248.5L75 273.5L83 304.5L89 319.5C98.6 343.233 112.767 362.4 131.5 377L158.5 397L196.5 416L199 418.5L193.5 419C159.433 411.067 132.267 396.233 112 374.5C112.533 373.033 112.033 372.533 110.5 373C95.7667 358.4 83.9333 340.9 75 320.5C69.9333 307.9 65.9333 294.233 63 279.5L61 266.5V257.5L60 256.5V239.5L61 234.5L60 230.5C67.6 191.433 83.1 160.267 106.5 137L129.5 120L150.5 110L178.5 103H204.5L209.5 105L223.5 107L240.5 114L238.5 111L228.5 106L210.5 101C206.833 102 204.5 101.667 203.5 100H178.5L156.5 105L126.5 119C114.7 126.867 104.2 136.033 95 146.5L85 159.5L66 198.5L59 223.5V229.5L57 236.5V268.5L60 287.5L70 321.5C77.2 340.633 86.5333 357.633 98 372.5L90 365.5C70.6 344.233 57.1 317.067 49.5 284L49 289.5L54 311.5L61 329.5L59 330L51 313.5L46 296.5L45 286.5L43 283.5V281.5L40.5 272L40 279.5L45 305.5L57 338.5C61.5333 348.967 67.2 358.3 74 366.5L93 389L103 397.5C103.533 399.233 102.7 399.733 100.5 399C87.8333 392 77 383.167 68 372.5L58 358.5L47 338.5L36 311.5L31 287.5V278.5L29 267.5V265.5L30 263.5C28.3333 262.5 28 260.167 29 256.5L30 255.5L31 235.5L34 221.5L49 178.5C58.6667 157.833 71.1667 140 86.5 125C98.5 114.333 112.167 105.333 127.5 98L157.5 88L181.5 85H183.5C203.633 84.8667 220.633 87.8667 234.5 94L252.5 103L276 122L286 136.5L291 149.5L295 169.5V186.5L291 206.5L284 221.5L268.5 239L253 248.5L255.5 249L274 236.5C273.533 235.033 274.033 234.533 275.5 235L289 220.5L299 203.5L304 184.5V162.5L297 134.5L286 113.5L271.5 97C260.167 86.6667 246.5 78.6667 230.5 73L196.5 67H174.5L171.5 68H164.5L159.5 70H153.5C150.633 72.1333 146.633 73.1333 141.5 73L115.5 83L84.5 101L63 120.5L64.5 121C80.5 104.333 100.167 91.3333 123.5 82L158.5 73L191.5 72L192.5 71L193.5 72L218.5 74L241.5 81L256.5 89L281 110.5C286.867 117.3 291.533 125.3 295 134.5H294C289.733 124.1 283.567 115.6 275.5 109L268.5 104L274.5 112L264.5 103L238.5 90L216.5 84L194.5 82H192.5L187.5 83L186.5 82H174.5L145.5 88L142.5 90L133.5 92L117.5 100L85.5 123L72 136.5C58.2667 154.767 46.9333 175.433 38 198.5L30 223.5C29.8 230.633 28.4667 236.633 26 241.5L23 267.5V269.5L24 305.5L31 333.5L29 332.5L23 319.5L18 299.5L15 266.5V264.5L16 243.5L18 236.5L17 234.5L19 227.5V225.5C26.1333 186.633 41.1333 155.633 64 132.5L62.5 132C53.1667 140.333 45.3333 150.167 39 161.5C30.5333 175.033 23.3667 189.867 17.5 206L17 201.5C20.3333 188.833 24.6667 177.167 30 166.5L28 167.5L22 180.5L11 212.5L5 233.5L3 250.5L0.5 256L0 233.5L7 198.5L19 169.5C31.4 146.233 46.9 126.067 65.5 109L93.5 89L127.5 74L144.5 69H150.5L164.5 66L197.5 65L220.5 69L239.5 75L268.5 90L284 103.5C291.333 110.833 297.333 119.5 302 129.5L306 140.5L310 159.5V161.5L309 182.5L303 206.5L294 224.5L282.5 238C269.633 250.8 250.967 257.8 226.5 259C222.767 257.067 217.767 256.4 211.5 257L203.5 254L189.5 243L189 244.5C198.333 256.167 212.333 263.167 231 265.5L225.5 266C207.767 262.733 194.267 255.233 185 243.5L180.5 237L179 237.5L187.5 250C194.1 256.4 201.767 261.733 210.5 266C217.5 269 225.667 270.833 235 271.5L226.5 272C207.5 268.333 193 260.167 183 247.5L175 233.5L171 219.5L170 208.5L172 197.5L176 188.5L174 189.5L169 202.5L168 216.5L174 239.5L184.5 254C186.033 253.533 186.533 254.033 186 255.5C191.667 261.5 198.5 266.333 206.5 270L231.5 277L233.5 276L234.5 277H255.5C288.3 271.8 312.8 258.3 329 236.5L343 216.5L348 204.5H347C338.867 222.7 327.7 237.867 313.5 250L298.5 261L278.5 269V268C297.5 261.667 312.667 251.5 324 237.5L341 211.5L350 186.5L353 168.5V166.5L352 148.5L349.5 140L349 150.5L350 151.5V171.5L344 195.5L335 214.5L327.5 225L327 223.5L332 215.5V213.5L337 203.5V201.5L341 190.5L344 172.5L346 168.5L347 140.5L344 123.5L334 101.5C328.333 90.8333 321.167 81.6667 312.5 74L311 74.5C329.733 92.4333 340.733 118.1 344 151.5L343 152.5V165.5L339 186.5L334 199.5C326.2 216.7 316.033 231.533 303.5 244C292.833 254 279.5 261.333 263.5 266L249.5 269H226L226.5 267L227.5 268H239.5L241.5 267H243.5L255.5 265L277.5 256C288.233 250.4 297.733 243.567 306 235.5L308 232.5L319 219.5L331 195.5L336 175.5L337 147.5L334 129.5L331 121.5C326.6 110.567 320.433 101.4 312.5 94L312 95.5L327 118.5L331 129.5L333 139.5L334 162.5L333 163.5V174.5L326 200.5C322.533 209.7 317.7 217.533 311.5 224L312 222.5C319.2 212.367 324.533 200.367 328 186.5L332 166.5V148.5L328 127.5L322 112C320 112.867 319.333 112.033 320 109.5L307 90.5L307.5 89L305.5 88L304.5 90L285.5 72L277.5 68L278.5 70C289.167 76.6667 298.333 84.8333 306 94.5L315 108C313.2 108.733 312.533 108.233 313 106.5C307.267 96.5667 300.1 88.0667 291.5 81C281.3 72.8667 269.633 66.2 256.5 61L256 63L281 77L280.5 79L272.5 73L249.5 62L239.5 58L231.5 56H225.5L220.5 54L218.5 55L197.5 51H176.5L173.5 52L155.5 53L142.5 56L112.5 67L109 69.5L111.5 70L132.5 62L160.5 56H168.5L169.5 55H199.5L223.5 59L225.5 61L250.5 68C262.1 73.4 272.267 80.2333 281 88.5L279.5 89L255.5 74L222.5 62L195.5 57H166.5L134.5 64L126 67.5L128.5 68L150.5 62L167.5 61V62C163.833 61 161.5 61.3333 160.5 63L158.5 62L141.5 65L120.5 71L104.5 78L99.5 82H96.5L88.5 86L76.5 95C74.9667 96.8 72.3 97.4667 68.5 97L64.5 100L33 129.5C22.6667 140.5 13.8333 153 6.5 167L6 165.5C16.8667 136.367 33.0333 112.533 54.5 94L78 74.5L76.5 74L59.5 85L62.5 81L77.5 68L90.5 60L110.5 53L117.5 49L123.5 48L127.5 45L130 46C130.867 43.5333 129.367 42.8667 125.5 44L117.5 46L113.5 49C108.767 48.5333 105.267 48.8667 103 50L102.5 53L101 50.5L104 48.5L102.5 48L97.5 51L80.5 55C72.7667 60.9333 63.7667 65.6 53.5 69L41.5 78L45 73.5C44.5333 72.0333 45.0333 71.5333 46.5 72C62.1667 57.3333 80.5 45.3333 101.5 36L138.5 25C144.233 25.0667 148.9 24.0667 152.5 22L172.5 21L173.5 20L174.5 21L206.5 22L237.5 30H241.5C263.233 36.2667 281.9 45.6 297.5 58L291.5 51C280.567 42.9333 268.567 35.9333 255.5 30L222.5 19L207.5 17L204 14.5L204.5 12H224.5L235.5 14H237.5L250.5 16L269.5 22L287.5 32L294.5 34L328 64.5C336.667 74.5 343.667 86.1667 349 99.5L358.5 136L360 132.5C357 115.5 352.333 100.167 346 86.5C335.533 67.3 322.7 50.4667 307.5 36L302 31.5L303.5 31L334.5 53L346 64.5L358.5 85L359 82.5C350.067 64.1 338.233 48.6 323.5 36L304.5 21L282 9.5L285.5 9L309.5 18V15L283.5 1V0ZM232 17V18L236 19H240C238.667 17 236 16.3333 232 17ZM311 18V19H312L311 18ZM313 19V20H314L313 19ZM250 20L251 22L262 25H263C259.667 22.3333 255.333 20.6667 250 20ZM173 25V26H174L173 25ZM169 27L163 28L164 30L165 29H182H184L186 28L187 29H198L206 31L209 30L197 27H169ZM273 28L271 30H273V28ZM326 29V30H327L326 29ZM332 31C330.667 33 331 33.6667 333 33L332 31ZM128 34V35H129L128 34ZM227 34C227 36 228.333 37 231 37L246 39L266 46H267C255.667 39.3333 242.333 35.3333 227 34ZM167 35L144 39V40C151.333 40 157.667 39 163 37H172L173 36L205 37L227 41L263 54L285 67H286C274 56.3333 259.333 48.6667 242 44V42L240 43L216 37L201 36L200 35H167ZM337 36C335.667 38 336.333 39.6667 339 41C338.333 42.3333 339.333 42.6667 342 42L337 36ZM130 37V38H131L130 37ZM292 37V38H293L292 37ZM198 40V41L212 42L230 46L248 52H250L234 45L210 40H198ZM163 45L146 48L110 60C95.3333 66 83 74.3333 73 85L74 86C85.3333 74.6667 99.3333 65.6667 116 59L151 49L170 47L163 45ZM302 49L301 51H302V49ZM266 51V52H267L266 51ZM304 52L327 80L332 88H333V86L320 67L304 52ZM334 57L333 59H334V57ZM301 60L300 62H301V60ZM337 60L338 65L343 69L337 60ZM89 66V67H90L89 66ZM356 66L355 68H356V66ZM363 67V72L368 78H369L363 67ZM294 69V71L302 77L296 71C296.667 69 296 68.3333 294 69ZM80 72L79 74L81 73L80 72ZM217 76V77H218L217 76ZM236 81L237 83H240L236 81ZM241 83V84H242L241 83ZM366 83V88H368L366 83ZM70 87V88H71L70 87ZM69 88L67 90H69V88ZM206 88V89H207L206 88ZM183 89L168 92H162L134 101L120 108L94 127C82.6667 137.667 72.6667 150 64 164L54 188L55 189L64 172L63 170H65L64 168L66 167C70 157.667 75.3333 149.667 82 143C81.3333 141 82 140.333 84 141L87 136L92 133C91.3333 131 92 130.333 94 131L98 126C99.3333 126.667 99.6667 126.333 99 125L129 105L154 96L180 91L198 92H180C175.333 94 169.667 95 163 95L148 100C132 106.667 118 115.333 106 126L99 134C117.667 114.667 143.333 102 176 96H199L217 99L237 107L259 123L271 137L281 155V160L284 172V185L285 186L284 188L286 189L283 208L279 217L280 218L287 203L290 189V179L289 178C288.333 176 289 175.333 291 176L290 174C290.667 170.667 290 169.333 288 170L287 164L288 161C289.333 162.333 289.667 165 289 169L291 170L290 162L285 147L268 121C260 111 250 103.333 238 98L213 91L197 90L196 89H183ZM358 91L362 105L368 132V148L367 149L368 151L365 173L357 197C348.333 216.333 336.667 233.333 322 248C314 256 305 262.667 295 268L272 277L245 282L226 281L208 277L187 265C175 256.333 167.333 243.333 164 226L163 223C161.667 213.667 162 206 164 200C168 189.333 173.333 180.667 180 174L185 170L188 166L174 176L164 190L160 200L158 212V226H157V206L164 188L163 186H165L172 175C181.333 163 195.333 155.667 214 153L213 151C198.333 153 186.667 157.667 178 165C169.333 171.667 162.333 180 157 190L151 210V228L153 241C156.333 252.333 161.333 262.333 168 271C176 280.333 185.667 288.333 197 295L218 305L227 307L230 309L254 314H283L306 309L316 305L338 292L363 269C364.333 269.667 364.667 269.333 364 268L367 266L382 246L401 214L415 176V171L402 207L395 221L377 250L368 261C357.333 272.333 345.333 282.667 332 292C319.333 300 304.667 305.667 288 309L285 308L281 310C239 310 207 300.667 185 282L168 265L160 249L155 231L156 227L161 248C165 256 170 263 176 269L179 270L184 277C192 283 201.667 288 213 292L229 297L245 298L246 299H261L262 298L278 297L301 291C319 283 335 272.333 349 259L353 256C343.667 266.667 332.667 276 320 284L321 285L341 271L363 247L383 211L393 180L396 162V147L397 146L396 144L397 141L395 140V154C392.333 160 391 167.667 391 177L383 204C375.667 221.333 365.667 236.667 353 250C341.667 262.667 328 273.333 312 282L295 289L265 295H244L243 294L228 293L205 286L196 281L195 279L211 286L230 289H245L243 288L259 287L271 284H278L295 278L296 275L283 280H279L300 272L324 256C336 245.333 346.333 233 355 219L370 187L376 165V136L375 135V127L371 107L368 100H367L372 121V131L374 141V159L372 172L370 175L368 186L363 199L353 217L351 218L363 193L368 177L370 164V131L368 124V122L362 100L358 91ZM367 97L366 99H367V97ZM99 104L93 109C91 108.333 90.3333 109 91 111L100 106C100.667 104 100.333 103.333 99 104ZM194 106L195 108C195.667 106 195.333 105.333 194 106ZM86 108L84 109L81 113L87 109L86 108ZM181 108V109H182L181 108ZM90 111L89 113L91 112L90 111ZM395 112L394 114L396 115L395 112ZM87 113V114H88L87 113ZM265 114L264 116C271.333 122.667 277.667 130.667 283 140L290 159H291C286.333 139.667 277.667 124.667 265 114ZM396 117L394 121C396 121.667 396.333 124.333 395 129H396V117ZM61 123L60 125H61V123ZM351 123V127H352L351 123ZM156 127L147 133L146 135L157 128L156 127ZM396 130L395 134H396V130ZM144 135L143 137L145 136L144 135ZM97 137L94 141L97 139V137ZM137 138L136 140L138 139L137 138ZM302 138L304 152H305C305 146 304 141.333 302 138ZM51 139L38 153L39 154L51 141V139ZM131 142V144L133 143L131 142ZM364 143L363 147H364V143ZM90 144L88 146H90V144ZM87 147L78 159L79 161L87 149V147ZM102 149V151L104 150L102 149ZM354 149L353 152H354V149ZM358 151L357 153H358V151ZM358 154L357 159H358V154ZM37 155L35 158L37 157V155ZM206 158C204.667 160 205 160.667 207 160L206 158ZM32 161L30 166L32 165V161ZM357 161V166L358 164L357 161ZM189 165V166H190L189 165ZM347 172L346 174H347V172ZM293 174V175H294L293 174ZM346 176L345 178H346V176ZM356 179L355 181H356V179ZM125 183L124 185H125V183ZM124 185L123 187H124V185ZM354 189L353 192H354V189ZM55 192L51 199L44 223H46L47 222L53 198L55 195V192ZM353 192L352 194H353V192ZM352 194L348 202L349 204L352 197V194ZM380 200L379 202H380V200ZM379 202L377 205L378 207L379 205V202ZM116 203C114.667 205 115 205.667 117 205L116 203ZM388 206L383 217L369 240H371L381 224L388 209V206ZM364 221L349 240L350 241L364 223V221ZM384 232L383 234H384V232ZM383 234L379 240L380 241L382 238C384.667 236.667 385 235.333 383 234ZM185 235L184 237H185V235ZM114 236L113 238H114V236ZM427 236L426 238H427V236ZM186 237L185 239H186V237ZM21 239V240H22L21 239ZM188 240L187 242H188V240ZM349 241L346 245L349 243V241ZM405 241L403 244L405 243V241ZM378 242L376 245L378 244V242ZM85 245C83 258.333 83.6667 269.667 87 279H88L86 269L85 245ZM47 247V260L48 261L47 264L49 274L51 275C49 267.667 48.6667 259.333 50 250L49 249C49.6667 247 49 246.333 47 247ZM343 247L341 250C331.667 260 320.333 268.333 307 275V276L317 272L332 261L344 248L343 247ZM373 247V249L375 248L373 247ZM414 252L389 288L390 289L397 281L414 255V252ZM367 253V255L369 254L367 253ZM360 254L358 257L360 256V254ZM368 270L367 272H368V270ZM304 271V272H305L304 271ZM234 279V280H235L234 279ZM39 280L38 283H39V280ZM41 291L40 294H41V291ZM76 291L75 293H76V291ZM205 292V293H206L205 292ZM128 293L129 295H130L128 293ZM207 293V294L213 297L227 301H232L207 293ZM77 294V305L84 322H85L77 294ZM131 296L132 298C132.667 296 132.333 295.333 131 296ZM41 297V298H42L41 297ZM306 297L296 301L281 304L244 306H258L259 307L287 305L310 298L306 297ZM234 300L233 302L238 303H243L234 300ZM238 304C237.333 305.333 238.667 305.667 242 305C242.667 306.333 243.333 306.333 244 305L238 304ZM43 306L42 310H43V306ZM140 310L139 312H140V310ZM344 311L343 313L345 312L344 311ZM44 312V323L46 324L44 312ZM389 315L387 318L390 316L389 315ZM109 316L111 324L113 325L109 316ZM385 318V319H386L385 318ZM122 320L121 322L124 324L122 320ZM320 321L305 327H302L298 330V331C308 329.667 316.333 326.667 323 322L320 321ZM86 322V327H87L86 322ZM47 324L45 327L47 328V324ZM125 324L124 326L126 327L125 324ZM114 325L113 327L115 328L114 325ZM116 328L115 330L119 337L131 351H133L116 328ZM128 328L129 333H131L128 328ZM48 330L47 333L49 334L48 330ZM225 330L226 332L250 337H268L281 335C283 335.667 283.667 335 283 333C279 334.333 274 334.667 268 334L267 335L245 334L225 330ZM53 332L52 334H53V332ZM133 334L132 336H133V334ZM72 335C70.6667 337 71 337.667 73 337L72 335ZM89 336L88 338L90 339L89 336ZM91 339L90 341H91V339ZM138 340V341H139L138 340ZM92 341L91 343L94 345L92 341ZM355 341L349 344L348 346L357 342L355 341ZM115 342L114 344H115V342ZM119 343L118 345H119V343ZM166 344V345H167L166 344ZM346 346L344 347V348L347 347L346 346ZM152 348V349H153L152 348ZM342 348V349H343L342 348ZM340 349V350H341L340 349ZM338 350V351H339L338 350ZM145 351L144 353L149 356L145 351ZM334 351L335 353L337 352L334 351ZM207 352L211 355L224 359L244 364L259 365L260 366H273L274 365L277 366L278 365H296L307 363H309L312 362V360L306 362L294 363H292L289 364H259H257L234 360L207 352ZM107 357V361L117 370L107 357ZM316 360L315 362H316V360ZM167 364V365H168L167 364ZM169 365V366H170L169 365ZM171 366V367H172L171 366ZM223 366L224 368L234 370H243L244 371L247 370L234 368H232C230 366 227 365.333 223 366ZM173 367V368H174L173 367ZM117 370V372L124 377L119 372C119.667 370 119 369.333 117 370ZM155 372C156.333 375.333 159.667 378 165 380H166L155 372ZM349 372L343 375L324 380C320.667 379.333 319.333 380 320 382L338 378L351 373L349 372ZM125 377L130 383H131L125 377ZM230 378V379L255 383C259 384.333 261.667 384 263 382L239 379L238 378H230ZM139 388L140 390H141L139 388ZM142 390L143 392H144L142 390ZM190 391V392H191L190 391ZM150 393V394H151L150 393ZM164 402L165 404H166L164 402ZM241 402V403H243L241 402Z" fill="#0B0B0B"/>
<path opacity="0.996078" d="M174.5 2H176.5L178.5 3L179.5 2H201.5L202.5 3H210.5L213 4.5L168.5 5L167.5 6L147.5 7V6L154.5 4L173.5 3L174.5 2Z" fill="#0B0B0B"/>
<path opacity="0.996078" d="M246 3.00017C253.2 2.93351 259.2 4.43351 264 7.50017C263.2 9.36684 262.367 9.53351 261.5 8.00017L246 5.00017V3.00017Z" fill="#0B0B0B"/>
<path opacity="0.996078" d="M194.5 12L197 12.5C195.867 15.3 194.7 15.8 193.5 14L192 13.5L194.5 12Z" fill="#0B0B0B"/>
<path opacity="0.996078" d="M351.5 34C360.433 42.7333 367.267 53.5667 372 66.5H371L364 52.5L352 36.5L351.5 34Z" fill="#0B0B0B"/>
<path opacity="0.996078" d="M269.5 75C284.433 82.7333 296.933 92.9 307 105.5L320 127.5L324 140.5L325 171.5L323 183.5L320.5 190L320 185.5L322 177.5V175.5V151.5L321 150.5V148.5L319 135.5L310 115.5C303.267 104.233 294.767 94.7333 284.5 87L270.5 77L269.5 75Z" fill="#0B0B0B"/>
<path opacity="0.996078" d="M426.5 89L430 97.5L432 107.5L431 109.5L431.5 111L430 109.5V104.5L426.5 89Z" fill="#0B0B0B"/>
<path opacity="0.996078" d="M37.4999 95L38.9999 95.5L26.4999 112C23.9666 110.467 24.4666 108.967 27.9999 107.5C30.1999 102.367 33.3666 98.2 37.4999 95Z" fill="#0B0B0B"/>
<path opacity="0.996078" d="M295.5 112C297.033 111.533 297.533 112.033 297 113.5C302.8 119.7 307.467 127.033 311 135.5L314 146.5L315 159.5H314L309 136.5C305.267 127.033 300.767 118.867 295.5 112Z" fill="#0B0B0B"/>
<path opacity="0.996078" d="M431.5 127C433.5 126.4 434 127.567 433 130.5L435 143.5V145.5L433 172.5L428 193.5L425 202.5L422.5 205L420 203.5L422 200.5L427 181.5L431 156.5V154.5L432 128.5L431.5 127Z" fill="#0B0B0B"/>
<path opacity="0.996078" d="M325.5 133L329 148.5V162.5H328V150.5L325.5 133Z" fill="#0B0B0B"/>
<path opacity="0.996078" d="M166.5 135L165.5 137L150.5 146V145L166.5 135Z" fill="#0B0B0B"/>
<path opacity="0.996078" d="M249.5 136L261 145.5L268 157.5L266 156.5L263 150.5L253.5 140L249.5 136Z" fill="#0B0B0B"/>
<path opacity="0.996078" d="M155.5 137L157 137.5L136 153L121 173.5L114 187.5L102.5 224L102 222.5C107.267 189.433 120.433 164.267 141.5 147L155.5 137Z" fill="#0B0B0B"/>
<path opacity="0.996078" d="M204.5 144L208 144.5L190.5 150V149L204.5 144Z" fill="#0B0B0B"/>
<path opacity="0.996078" d="M167.5 154L165.5 157L145 175.5L143.5 178L143 176.5L153.5 165L167.5 154Z" fill="#0B0B0B"/>
<path opacity="0.996078" d="M140.5 161L139 163.5L131.5 174L131 172.5L140.5 161Z" fill="#0B0B0B"/>
<path opacity="0.996078" d="M138.5 181L139 183.5L135.5 188L135 186.5L138.5 181Z" fill="#0B0B0B"/>
<path opacity="0.996078" d="M160.5 190L161 191.5L156.5 201L156 198.5L160.5 190Z" fill="#0B0B0B"/>
<path opacity="0.996078" d="M130.5 197L131 198.5L128.5 205L128 202.5L130.5 197Z" fill="#0B0B0B"/>
<path opacity="0.996078" d="M308.5 198L309 199.5L300 219.5L296.5 224L297 222.5L308.5 198Z" fill="#0B0B0B"/>
<path opacity="0.996078" d="M317.5 199L318 202.5L310 219.5L303.5 228L305 225.5C310.467 217.967 314.633 209.133 317.5 199Z" fill="#0B0B0B"/>
<path opacity="0.996078" d="M160.5 212C161.3 236.2 168.8 253.7 183 264.5L172 254.5L162 236.5L160 227.5L160.5 212Z" fill="#0B0B0B"/>
<path opacity="0.996078" d="M104.5 238C106.1 240.067 106.6 243.233 106 247.5V249.5L107 259.5V261.5L106.5 267C103.366 259.267 102.7 249.6 104.5 238Z" fill="#0B0B0B"/>
<path opacity="0.996078" d="M280.5 243L276.5 248L263.5 254V253C270.433 250.933 276.1 247.6 280.5 243Z" fill="#0B0B0B"/>
<path opacity="0.996078" d="M421.5 266L422 267.5L409 287L406.5 288L407 286.5L421.5 266Z" fill="#0B0B0B"/>
<path opacity="0.996078" d="M6.50017 282C8.70017 283.2 8.5335 284.367 6.00017 285.5L5.50017 287C3.36684 285.867 3.5335 284.7 6.00017 283.5L6.50017 282Z" fill="#0B0B0B"/>
<path opacity="0.996078" d="M175.5 290L183 296.5L179.5 294L175.5 290Z" fill="#0B0B0B"/>
<path opacity="0.996078" d="M176.5 294L186.5 302L206 312.5L204.5 313L176 296L176.5 294Z" fill="#0B0B0B"/>
<path opacity="0.996078" d="M184.5 297L189 300.5L187.5 300L184.5 297Z" fill="#0B0B0B"/>
<path opacity="0.996078" d="M28.5 300L39 330.5L55 361.5L52 359.5L40 338.5L30 309.5L28.5 300Z" fill="#0B0B0B"/>
<path opacity="0.996078" d="M410.5 314L410 315.5L402.5 325L401 324.5L410.5 314Z" fill="#0B0B0B"/>
<path opacity="0.996078" d="M386.5 334L387 335.5C383.6 339.767 379.1 342.933 373.5 345V344L386.5 334Z" fill="#0B0B0B"/>
<path opacity="0.996078" d="M118.5 390L122 392C121.267 393.8 121.767 394.467 123.5 394L143 409.5L141.5 409L134.5 406L122 397L118 391.5L118.5 390Z" fill="#0B0B0B"/>
<path opacity="0.996078" d="M118.5 399L127 406.5L125.5 406L118 400.5L118.5 399Z" fill="#0B0B0B"/>
<path opacity="0.996078" d="M231.5 411L262 417.5L248.5 418L229 413.5L231.5 411Z" fill="#0B0B0B"/>
<path opacity="0.996078" d="M208.5 421L219 423L217.5 426L209 424L208.5 421Z" fill="#0B0B0B"/>
</svg>
