<svg width="447" height="413" viewBox="0 0 447 413" fill="none" xmlns="http://www.w3.org/2000/svg">
<path opacity="0.996078" d="M180.5 0L176.5 5C171.5 10 164.167 12.6667 154.5 13L143 21.5L136 30.5L133 48.5L130 55.5C124.067 60.5667 119.4 66.9 116 74.5L114 87.5H115C115.933 77.7667 119.433 70.6 125.5 66L135.5 60L151.5 55L159 47.5C162.333 37.8333 167.5 30 174.5 24C181.833 17.3333 192.167 13.6667 205.5 13L221.5 3L234.5 0H241.5L252.5 3H259.5L263.5 2V3L255.5 6H235.5C226.7 9.2 219.867 14.3667 215 21.5L210.5 27L194.5 34L188 40.5L178 60.5L169.5 70L151.5 77L143 84.5L137 95.5L131 120.5L119.5 136L113.5 140L112.5 138L99.5 141L96 143L94.5 146L71 160.5L69.5 163L65.5 166L75.5 155L94.5 142L110.5 137L120 130.5L123 124.5L126 112.5L130 88.5C132.667 81.8333 136.667 76.5 142 72.5L140.5 72L128 87.5L125 96.5V100.5L123.5 102L122.5 100L122 104.5H123L123.5 103L124 104.5L118 121.5L110.5 131L97.5 138L99 135.5L109 121.5V107.5H108L107 109.5L108 112.5C103.667 124.833 97.1667 135 88.5 143C85.1667 146.467 81 148.8 76 150L73.5 154L66 160.5L63 166.5L64 167.5L61 170.5L60.5 172L59 171.5L53.5 184L53 175.5L55 170.5L59 147.5L65 139.5L62.5 138C57.5667 143.4 54.4 150.567 53 159.5V161.5V169.5L47 185.5L46 197.5L43 209.5V230.5L42 231.5L41 253.5L43 260.5L41 259.5C39.3333 254.5 39 248.167 40 240.5L35 230.5L34 215.5L47 181.5V167.5C44.8 162.7 44.1333 156.367 45 148.5L47 140.5H46L44 144.5L42 156.5L43 157.5V166.5L45 176.5H44C41.2 167.967 39.8667 157.967 40 146.5C41.9333 138.1 44.9333 130.767 49 124.5L50 108.5L46.5 93L45 100.5C47.4 104.1 48.0667 109.433 47 116.5L45 124.5L36 145.5C34.4 150.233 34.0667 156.233 35 163.5V165.5L38 183.5L36 189.5L37 191.5L26 215.5L25 232.5L26 236.5H25L24 229.5L22.5 228L22 230.5L23 233.5V237.5L25 239.5L28 250.5C26.6 263.233 27.2667 273.9 30 282.5L35 295.5L43 307L46.5 309L47 307.5L39 298.5L33 284.5C33.1333 277.7 32.1333 272.033 30 267.5V248.5L29 245.5H30C32.5333 250.367 33.2 257.033 32 265.5L34 268.5L33 271C35.6667 271.933 36.3333 270.1 35 265.5L34 264.5C35.2 258.633 34.8667 254.3 33 251.5L34 247.5C32.1333 245.7 31.4667 242.7 32 238.5H33L37 247.5L40 269.5L46 282C47.8 281.267 48.4667 281.767 48 283.5L53 289.5L58 305.5L67.5 316L83 329.5C85.2 334.7 88.3667 338.867 92.5 342L105.5 351L129.5 358L130.5 357L143 356.5L134.5 355L132.5 356H130.5C123.433 355.4 117.433 353.733 112.5 351L95 340C95.7333 338.2 95.2333 337.533 93.5 338L62 304.5C58.0667 291.1 52.0667 279.767 44 270.5L42 262.5H43L46.5 271L47 269.5L44 262.5L43 246.5H44L45 250.5V252.5L46 264.5L51.5 276C53.7 274.867 53.5333 273.7 51 272.5L48 265.5H49C51.4667 272.033 55.1333 277.367 60 281.5L67 298.5L88 322.5L89 326L98 333.5L104 342L107.5 344L127.5 354L144.5 355C149.833 352.333 157.167 351.667 166.5 353L172.5 355L187.5 356L196.5 358L200 356.5L193 355.5C196.8 355.633 199.467 354.633 201 352.5L199.5 352L188.5 355L168.5 350L164.5 351L160.5 350L141.5 353V352L146.5 350H157.5L158.5 349H160.5L164 347.5L159.5 347L158.5 348H148.5V347L166 346L167.5 349C173.833 348.333 178.5 349.333 181.5 352H195.5L201.5 350L204.5 351V350L203 349.5C208.067 348.9 212.067 347.233 215 344.5L212.5 344L211 344.5L211.5 343C209.5 342.467 209 343.467 210 346H206.5L202.5 348L192.5 349L186.5 348L182 345.5L192.5 341L194 341.5L195.5 339L200.5 335L215.5 328L232.5 324L237.5 325C246.833 323 254 318.833 259 312.5L264 304.5L266 296.5H265L259 310C257.2 309.267 256.533 309.767 257 311.5C252.867 317.367 246.7 321.2 238.5 323V322L243 319.5L241.5 319L238.5 321L237.5 319C235.7 319.867 235.533 320.7 237 321.5C237.533 323.033 237.033 323.533 235.5 323V321L229.5 323V322C235.433 320.267 240.267 317.433 244 313.5L242.5 313L229.5 321L219.5 324V323L240.5 312L253 299.5L259 288.5L263 273.5C265.4 272.233 266.4 270.067 266 267L268.5 266L268 267.5L262 282.5H263L270 267.5L275.5 262L278.5 260L277.5 263L280.5 262L281.5 263L286.5 258L313.5 248L322 239.5C326.333 234.167 329.333 227.5 331 219.5L338.5 211L363.5 200L375 189.5L380 179C378 178.2 377.333 179.033 378 181.5C374.933 187.767 370.767 192.933 365.5 197L364 196.5L376 181.5C378.4 170.9 382.9 162.4 389.5 156L404 150C403.2 148 404.033 147.333 406.5 148L412 145.5L408.5 145L394.5 149L385 155.5L380 162.5L369 187.5L363.5 194C360.033 197.533 355.033 199.533 348.5 200L333.5 209L336.5 205C342.433 200.933 349.433 197.933 357.5 196L369 185.5L368.5 184C361.767 191.933 352.1 196.933 339.5 199L328 208.5C324.733 217.9 319.567 225.4 312.5 231C307.567 234.067 301.567 236.067 294.5 237L292.5 236L290 237L288.5 234C286.033 233.533 284.533 234.033 284 235.5L284.5 237L281.5 236L271 241.5L273.5 242L276.5 241C277.433 239.267 279.433 238.6 282.5 239V240C275.367 241.533 270.2 245.033 267 250.5L262 261.5L258 278.5L253 288.5L238.5 306L236 307.5C236.533 309.033 236.033 309.533 234.5 309L230.5 313L183.5 340L165.5 343L164.5 342H139.5L137.5 341H135.5L117.5 337L107 329.5L108.5 330L122.5 334H137.5L139.5 335H141.5L144.5 334H160.5L167.5 332L171.5 333L176 331.5L175.5 330L192 324.5L189.5 324L174.5 328H160.5L159.5 329C158.3 327.133 155.633 326.8 151.5 328H149.5L129.5 326L107.5 317L108.5 319L120 324.5L119.5 327C108.833 322 99.6667 315.5 92 307.5L94.5 309L108.5 316L118.5 318L138.5 326L137.5 324L136 323.5L139.5 322C140.5 323.667 142.833 324 146.5 323C147.633 321.2 150.3 320.867 154.5 322L156.5 323L158.5 322H162.5H169.5L194.5 314L201.5 313C210.767 309.267 218.267 303.767 224 296.5L231 287L233 287.5L225 297.5L226.5 298L230.5 293L233 291.5L245 264.5V254.5L248 244.5V237.5L251 225.5L261.5 211L274 202.5L272.5 202C266.567 203.733 262.067 206.9 259 211.5L254.5 217L255 215.5L265.5 204L285 193L284.5 191L266.5 201L259 207.5L257 210.5C251.867 215.367 248.2 221.7 246 229.5L245 241.5L242 252.5V261.5L240.5 263L241 261.5L240 254.5C241.667 253.5 242 251.167 241 247.5L243 244.5L244 228.5L255 208L273 194.5L271.5 194L259 202L257.5 205L251 209.5L244 221.5L240.5 233L240 225.5V223.5C241.467 214.633 244.967 207.8 250.5 203L282.5 185L293 174.5L296 164.5L300 157.5H298L300.5 151L302.5 152L306.5 144L308 144.5C307.533 143.033 308.033 142.533 309.5 143L317.5 139L328 137.5L325.5 136L322.5 137L313.5 138L302 145.5L298 150.5L290 168.5L280.5 179C279.633 177.533 278.8 177.7 278 179.5C279.867 180.7 279.367 181.867 276.5 183L271.5 186V184L268.5 186L262.5 189V187L259 188.5L261 189.5L259.5 190H257.5C252.167 191.667 248 194.5 245 198.5L238 209.5C236.2 213.033 235.367 217.533 235.5 223L235 206.5C236.733 199.233 240.233 193.733 245.5 190L263.5 180L260.5 185L267 182C266.267 180.2 266.767 179.533 268.5 180L278 171.5L289 149.5L299.5 137L306.5 133L334.5 130C344.367 126.2 352.2 120.367 358 112.5L357.5 111C351.833 118.333 344.167 123.667 334.5 127L323.5 130L309.5 131V130L317.5 128H323.5L333.5 125C339.367 122.867 344.2 119.7 348 115.5L346.5 115L338.5 120L321.5 125H317.5L304.5 130L304 128L297 131.5L298.5 132L302.5 130V131L296.5 134V132L286 141.5L282.5 147L282 145.5L293.5 132L302.5 127L323.5 122L329 119.5L325.5 119L321.5 121H315.5L302.5 125L294.5 129L281 141.5L271 159L268.5 158C266.633 158.867 266.467 159.7 268 160.5C268.533 162.033 268.033 162.533 266.5 162L259.5 167L245.5 170L230 179.5L231.5 180L242.5 175H244.5L258 173C257.267 171.2 257.767 170.533 259.5 171C265.967 168.133 271.133 163.967 275 158.5L278.5 154L278 155.5C275.467 162.633 271.3 168.133 265.5 172L251 179.5L253.5 180C262.967 177.133 270.133 171.967 275 164.5L278.5 159L278 160.5C275.333 166.5 271.5 171.333 266.5 175C262.9 178.4 258.067 180.567 252 181.5L254 182.5C247.333 185.5 241.833 189.667 237.5 195L238 193.5L242.5 188L252 182.5L249.5 182C244.1 183.933 239.933 187.1 237 191.5L231 207.5V209.5L235 236.5L234.5 238L236 238.5L235 240.5C236.667 241.5 237 243.833 236 247.5C233.133 268.3 225.3 284.133 212.5 295L207.5 299L184.5 309C175.433 309.6 167.767 311.6 161.5 315L146.5 316L145.5 315L131.5 314L121.5 310L99 295.5C99.5333 294.033 99.0333 293.533 97.5 294L95 293L97 296.5L111 307.5L105.5 308C96.5667 304.933 89.4 300.1 84 293.5L74 280.5L68 266.5L72 269.5L72.5 271L73 268.5L67 259.5C67.4667 255.7 66.8 253.033 65 251.5L63 239.5V221.5L72 195.5L81.5 183L88.5 177L88 178.5L86.5 181L83.5 183C84.5667 184.2 84.0667 185.367 82 186.5L78 197L76 197.5L77 199.5L75 204.5H76L77.5 202L77 203.5L74 217.5V223.5V225.5L75 253.5L80 265C81.8 265.733 82.4667 265.233 82 263.5C77.6 257.233 75.6 248.567 76 237.5L79 222.5L86 205.5L102.5 187L125.5 175L143.5 172L146 170.5L140.5 170C137.7 171.867 133.7 172.533 128.5 172L116.5 176C107.3 179.8 99.4667 184.967 93 191.5L79 211.5L76.5 227L76 216.5L81 197.5L89.5 185L102.5 175L122.5 166L135.5 163L159.5 162L172.5 156H179.5L184 157L184.5 155L202.5 165L199.5 161L197 159.5L198.5 160L204.5 163L202.5 160L195.5 156H190.5L181.5 152H172.5L160.5 155L153.5 159L139.5 160V159L146.5 157L159.5 149L176.5 148L193.5 154L191.5 151L176.5 146L165.5 140L159.5 139C149.7 141.2 141.367 144.867 134.5 150L119.5 153L120.5 151C128.833 150.333 135.333 147.833 140 143.5L137.5 143L132.5 146C118.367 148.867 105.7 153.2 94.5 159L68 183.5C64.4 188.167 62.0667 193.667 61 200C58.3333 199.067 57.6667 200.9 59 205.5L57 208.5L54 227.5L52 230.5V242.5L51 244.5L52 245.5L53 259.5L61 276.5L59 275.5L51 257.5L50 240.5L49 239.5L50 238.5V216.5L55 191.5C53.3333 190.5 53.6667 189.5 56 188.5C60.9333 176.767 68.1 167.267 77.5 160L96.5 147L109.5 142H113.5L117.5 139L135.5 133L137.5 134L143 129.5L150 119.5L157 96.5H156L146 120.5L139.5 128C136.967 130.8 133.3 132.467 128.5 133L129 131.5C134 126.833 137 120.167 138 111.5H137L132.5 122L132 120.5L134 117.5L139 97.5C141.4 90.9 144.9 85.4 149.5 81L175.5 69L191 53.5L199.5 43L213.5 37L220.5 30L220 31.5L215.5 37L201 45C196.467 54.4 190.3 62.4 182.5 69L150 85L143 96.5L139 113.5L141 114.5C142.333 101.167 146.833 91 154.5 84L186.5 70L202.5 58L203 59.5L200 64L194 68.5L195.5 69L210 56.5C212.067 50.9 215.233 46.4 219.5 43L231.5 35C239.033 32.5333 248.367 31.8667 259.5 33L268.5 30L287.5 15L293.5 12C299.5 9.66667 307.167 9 316.5 10L334.5 15L347.5 17L350.5 16H355.5L365.5 13L373 8C371.467 14.9333 368.3 20.6 363.5 25L349.5 32L330.5 33L320.5 35C314.3 37.1333 309.467 40.6333 306 45.5C303.267 53.7667 299.1 60.6 293.5 66C285.5 71.6667 276.167 76 265.5 79L258 86.5L250 101.5L242.5 110L233.5 114C229.033 112.867 226.2 113.367 225 115.5L226.5 116L229.5 115L242.5 117L249.5 115L254 110.5L266.5 94L280.5 86L290.5 84H300.5L301.5 85H310.5L315.5 87H325.5L333.5 84C340.167 74.6667 348.833 67.3333 359.5 62L374.5 58H390.5C396.3 60.5333 403.967 61.2 413.5 60C419.9 58.0667 425.067 54.9 429 50.5L433 44.5L434 36.5L435.5 35C437.567 38.2667 438.067 43.1 437 49.5L433 64.5L424.5 75C414.833 82.3333 402.5 87 387.5 89C381.5 91.3333 376.667 94.8333 373 99.5L363 122.5L349.5 138L325.5 149L314 158.5L311 165.5L307 184.5C304.867 189.7 301.7 193.867 297.5 197L293 200.5L290 205.5L294.5 206C302.9 204.067 309.067 199.9 313 193.5L320.5 184L328.5 179L350.5 174L360 166.5C362.6 159.1 366.433 152.933 371.5 148L382.5 142L410.5 137L419 129.5C421.6 123.1 425.433 117.933 430.5 114C434.1 110.267 439.433 108.267 446.5 108V109C441.567 110.4 437.733 112.9 435 116.5L431 124.5L427 141.5C424.867 146.7 421.7 150.867 417.5 154L399.5 162L394 167.5L388 180.5L384 201.5C381.933 207.1 378.767 211.6 374.5 215L356.5 223L351 227.5L344 238.5L340 255.5L335 266.5L325.5 276L297.5 288L284 298.5L285.5 299C291.033 293.867 298.033 290.2 306.5 288L322.5 287L324.5 288H326.5L338.5 285L345 278.5C349.4 266.567 356.233 257.067 365.5 250L381.5 245C386.433 243.267 390.267 240.433 393 236.5L396 231.5L398 223.5L402.5 217L404 217.5L402 220.5L401 234.5L402 238.5V240.5L398 253.5L391.5 261L380.5 267L376 271.5L372 278.5C371.467 288.3 369.8 296.967 367 304.5C363.933 310.767 359.767 315.933 354.5 320L339.5 327L323.5 329C316.167 332 310.333 336.5 306 342.5C302.933 349.1 298.767 354.6 293.5 359L268.5 371L251.5 372L250.5 371H233.5L227 374.5L242.5 375L255.5 380L263.5 381C269.9 379.733 275.233 377.4 279.5 374L278.5 376C274.233 381.4 267.567 384.4 258.5 385L257.5 384L233.5 383L222.5 386C214.633 391.467 205.633 395.8 195.5 399L180.5 402H166.5L147.5 394L112.5 388L99.5 380L83.5 367L66.5 361L51 346.5L41 326.5L35.5 320L26 311.5C22.6 307.233 20.2667 301.9 19 295.5L16 277.5L15 258.5L9 236.5V205.5L10 204.5V190.5L7 177.5V165.5C8.86667 155.367 12.7 147.2 18.5 141L19 143.5L16 151.5L15 165.5L22 185.5L23 194L25 193.5V172.5L24 171.5V150.5L27 139.5L37 122.5L39 116.5L41 85.5C44.2667 77.7667 49.1 71.6 55.5 67L63 61.5L66.5 57L67 59.5L55 76.5V93.5L59 110.5V123.5L53 134.5L56 132.5L68 114.5L71 106.5L72 102.5V81.5L74 73.5L84 56.5L93.5 47C100.5 43.6667 106.333 39.1667 111 33.5C114.733 25.5667 119.9 19.0667 126.5 14C131.033 10.2 136.7 7.53333 143.5 6L155.5 5L156.5 6H168.5C173.833 5.33333 177.833 3.33333 180.5 0ZM149 11L146 13H149V11ZM145 13V14H146L145 13ZM142 14L130 23V25L129 24C127 24.6667 126.667 25.6667 128 27C128.667 28.3333 128 28.6667 126 28L115 48C108.333 53.3333 103 60.3333 99 69L97 77V101L96 102L97 106V104H98L96 111C95.3333 113 96 113.667 98 113L100 105V96L102 95L101 92V79L103 70L109 59L122 45L132 25L144 15L142 14ZM309 17C295.667 19 286 24.3333 280 33C278 32.3333 277.333 33 278 35L261 42H246L245 41C243 43 240.333 43.6667 237 43L226 50C220 56 215.333 63.3333 212 72L196 81C186.667 83 179 86.3333 173 91L164 102L156 122L147 130L148 134C152.667 131.333 158.667 129.667 166 129L164 127C170 121 175 114 179 106L189 97H190L180 109L175 123L172 127L173 130C179 122.667 184 114.333 188 105L201 94L226 84L238 69L249 59L259 56H270L279 52L282 50H284L285 48L289 45L287 49L276 56L252 59L235 73L232 80L223 88L203 97L205 98L202 100L203 97L200 99C200.667 101 200.333 101.667 199 101L191 109C189 119 184.667 126.667 178 132L179 133L181 132C187.667 126.667 192.333 119.333 195 110L206 101L232 93C237.333 89 241.333 84 244 78C246 74 249.333 71.3333 254 70L256 71L262 69V68C257.333 66.6667 254.667 67 254 69L252 68L250 69C245.333 72.3333 241.667 77 239 83L233 89L209 98L208 96L223 92L232 86C236 83.3333 238.667 79.3333 240 74L251 64L267 60H272L285 54L300 35L299 34L296 36L310 27L321 25H335L336 26H341L327 22C311.667 21.3333 300.667 24.6667 294 32C294.667 33.3333 294.333 33.6667 293 33L286 42C282.667 46 278.667 49 274 51L263 52H261L246 53L239 57L229 71L230 72L234 66L241 60L232 73C226 79.6667 218 84.6667 208 88H206L218 80L230 59V57L224 65H223L227 57C231 51.6667 237 48 245 46H254L255 47C257 45.6667 260.667 45.3333 266 46L273 43C281.667 38.3333 289 32 295 24L303 20L305 21C300.333 21.6667 296.667 23.6667 294 27L295 28L302 23L309 22L312 20H317V19C312.333 17.6667 309.667 18 309 20H306L310 18L309 17ZM213 18L211 20H213V18ZM204 20L193 23V24H198L206 21L204 20ZM210 20L209 22L211 21L210 20ZM207 22L201 25L184 28L181 30L176 36L166 57C166.667 59 166.333 59.6667 165 59L163 62L167 60V58L171 53L179 35C180.333 31.6667 181.667 31 183 33C184.333 32.3333 184.333 31.6667 183 31H185L191 28L203 26L208 23L207 22ZM125 25L114 43L105 51C97 55.6667 91.6667 63 89 73L90 75L96 63H97L89 83V105L85 116L87 119C88.3333 118.333 88.3333 117.667 87 117L93 100L94 85V83C94.6667 75 96.3333 68.6667 99 64L114 46L126 26L125 25ZM192 30V31H193L192 30ZM189 31L185 34L179 41L171 59L166 64C167.333 64.6667 167.333 65.3333 166 66V65L165 64C163 64.6667 162.667 65.6667 164 67L159 68C157 68.6667 156.667 69.6667 158 71L157 70L154 71L151 75C153 75.6667 153.667 75.3333 153 74C153.667 72 154.667 71.6667 156 73L169 66L174 60L182 41L186 36L191 32L189 31ZM129 35L123 48C116.333 53.3333 111 60.6667 107 70L103 90V92C101.667 96 102 98.6667 104 100L102 105L103 110C102.333 106.667 103 104.333 105 103V88L108 72C112 63.3333 117.333 56.3333 124 51L129 38V35ZM293 51L292 53H293V51ZM291 54L289 57C285 61 279.667 63.6667 273 65L272 67C278.667 65.6667 284.333 63 289 59L291 56V54ZM161 62L151 67L148 71L162 63L161 62ZM268 63V64H269L268 63ZM256 65L254 66L253 68L256 67V65ZM260 65V66H262L260 65ZM269 65L267 67H270C270.667 65 270.333 64.3333 269 65ZM378 65L368 67L358 73L343 91C338.333 96.3333 331.667 99.6667 323 101L315 100H313L312 101L298 102L280 111L267 127C262.333 131.667 256 135 248 137H239L238 136L237 137H217L206 139L204 141L205 142L222 138V140H236L240 142C249.333 143.333 256.667 142.333 262 139L267 136L288 116C292 112.667 297.667 110.333 305 109L312 110L302 112L289 118L268 138L259 144L250 148L237 150L235 149L217 152L215 155L227 151L231 152L227 153L234 154L254 152L262 148L273 138L274 139C268.667 145.667 262 151 254 155L257 156C249 160 240 162.667 230 164L225 167L221 172L234 165L249 163L257 160C259 160.667 259.667 160 259 158L262 157C261.333 155 262 154.333 264 155L275 144L286 128L300 116L332 111L347 103C353 99.6667 357 94.3333 359 87C364.333 78.3333 373 73.6667 385 73L386 71V73C388 71.6667 391.333 71.3333 396 72L395 71L397 70L400 71L410 70L414 68C416 68.6667 416.667 68 416 66L404 69C390 67.6667 379 68.6667 371 72L369 73L376 69L389 67L392 68H394C396 68.6667 397.333 68.3333 398 67L385 66L384 65L381 66L378 65ZM201 66C200.333 68 201 68.6667 203 68C203.667 66 203 65.3333 201 66ZM258 66V67H259L258 66ZM90 67L83 79L81 90L82 92C83.3333 104 82.3333 114 79 122L77 126L65 138L66 139C76.6667 132.333 83.3333 121.667 86 107L84 94V83L86 81C86 75.6667 87.3333 71.6667 90 69V67ZM264 67V68H265L264 67ZM266 70L254 76L250 81L251 82C254.333 76 260.333 72.6667 269 72L266 70ZM146 71L145 73L147 72L146 71ZM229 72L227 74H229V72ZM186 73V74H187L186 73ZM192 74C191.333 76 192 76.6667 194 76C194.667 74 194 73.3333 192 74ZM89 75L88 79H89V75ZM181 75V76H182L181 75ZM178 76V78L180 77L178 76ZM188 76L183 78V79L191 77L188 76ZM176 77L167 80L166 82L177 79C177.667 77 177.333 76.3333 176 77ZM138 78V80L140 79L138 78ZM406 78L400 81L388 83L378 87V88L402 82L407 79L406 78ZM163 81V82H164L163 81ZM53 84L52 91H53V84ZM249 84L248 86H249V84ZM44 88L43 91H44V88ZM376 88L375 90L377 89L376 88ZM166 90L164 93L167 91L166 90ZM300 92L287 94L278 98L273 103L264 118L256 124H254L262 117V115C258 119.667 253 123.333 247 126L229 127L232 128L234 127L243 129L247 127L249 128H248V129C252.667 129.667 256 128.667 258 126C264.667 120.667 270 113.667 274 105L283 98L307 93L314 95H319L309 92H300ZM338 92L337 94L339 93L338 92ZM323 93V94H324L323 93ZM334 94C330.667 96 326.667 97 322 97H320L319 99H326V98H328C331.333 98 334 97 336 95L334 94ZM369 95V96H370L369 95ZM124 98L123 100H124V98ZM236 99L226 105L209 110V111L231 105L237 100L236 99ZM270 103L269 105H270V103ZM365 103L364 105H365V103ZM93 105L92 107H93V105ZM269 105L267 108L269 107V105ZM359 105L357 108L359 107V105ZM267 108L262 114L263 115L267 110V108ZM357 108L354 112L357 110V108ZM114 109L111 125L106 131H108C110.667 128.333 112.667 125 114 121V109ZM102 111L100 113C99.3333 114.333 100 114.667 102 114V111ZM206 111L205 113L208 112L206 111ZM342 111V112H343L342 111ZM340 112V113H341L340 112ZM338 113V114H339L338 113ZM97 114L96 117H97V114ZM100 114L99 117H100V114ZM99 117L98 119H99V117ZM102 117L101 119H102V117ZM197 117L195 120C194.333 122 195 122.667 197 122V117ZM94 118V120L96 119L94 118ZM85 119L81 125L82 126L86 120L85 119ZM101 120L100 122H101V120ZM171 121L166 127L171 123V121ZM100 122L99 124H100V122ZM73 124L67 132L68 133L73 126V124ZM92 124L91 126H92V124ZM99 125L96 128C95.3333 129.333 96 129.667 98 129L99 127V125ZM226 125V126H228L226 125ZM292 125L290 127H292V125ZM95 130L93 133L95 132V130ZM287 130L282 136L283 137L287 132V130ZM167 132V133H168L167 132ZM93 133L90 137L93 135V133ZM177 133L176 135L178 134L177 133ZM239 134V135H249L239 134ZM65 135L63 137H65V135ZM49 136L47 138L48 140L49 138V136ZM330 136V137H331L330 136ZM282 137L280 140L282 139V137ZM280 140L274 147L275 148L280 142V140ZM274 148L272 150H274V148ZM381 148C380.333 150 381 150.667 383 150C383.667 148 383 147.333 381 148ZM48 150L47 156H48V150ZM271 150L267 155L272 151L271 150ZM384 151L381 152L382 154L385 152L384 151ZM222 153V154H227L222 153ZM266 155L264 157H267L266 155ZM379 155L374 161L369 174L370 176L375 162L379 157V155ZM48 157L47 159H48V157ZM202 157V158H203L202 157ZM186 158V159H187L186 158ZM193 161V162H194L193 161ZM262 161L261 163H262V161ZM206 163L208 166H209L206 163ZM257 164V165H258L257 164ZM239 165L234 167V168L239 167V165ZM61 168L60 170H61V168ZM185 168L184 170L205 189V187L200 182L198 180L185 168ZM231 168L229 169L228 171L233 169L231 168ZM280 171V172H281L280 171ZM181 173L184 178C183.333 179.333 184 179.667 186 179C193.333 187 199.667 196.333 205 207L209 219L211 231L210 232V243L207 255L200 265L201 266L208 256L212 239V223L210 215L202 198L189 179L181 173ZM381 174L380 177H381V174ZM369 176L364 184C361.333 187.333 357.667 189.667 353 191C344.333 192.333 337 195 331 199C325.667 203 321.667 208.333 319 215C313 223.667 303.333 228.333 290 229L288 232L295 230L301 231C301.667 228.333 302.667 228 304 230L313 226C319.667 220.667 324.667 214 328 206L335 200L361 189L369 179V176ZM144 177L122 184L121 186L127 183L144 179L147 180L160 179L144 177ZM162 178L163 180H165L162 178ZM357 178L348 183L340 184L334 187L332 190C336 187.333 341.333 185.667 348 185L358 179L357 178ZM170 179L167 181H171L170 179ZM277 180L276 182L278 181L277 180ZM176 181V182H178L176 181ZM137 182L127 187L118 189L105 197C95.6667 203.667 89.3333 213.333 86 226L87 235C87.6667 222.333 91.3333 212.667 98 206L114 193L126 189L132 185L141 183L137 182ZM181 183V184H182L181 183ZM264 186V187H265L264 186ZM378 187L373 194L374 195L377 193L376 192L378 189V187ZM328 191V192H329L328 191ZM88 192L83 201L84 202L90 194C90.6667 192 90 191.333 88 192ZM20 193L17 204V224L18 225L17 227L18 232L20 233L19 231V201L20 200V193ZM123 193V194H124L123 193ZM121 194L120 196L122 195L121 194ZM116 197V199L111 202L110 205H112L118 198L116 197ZM210 198L215 210L217 220L219 221C218.333 211.667 216 204.667 212 200C212.667 198 212 197.333 210 198ZM371 198L369 199L370 201L372 200C372.667 198 372.333 197.333 371 198ZM83 202L81 205L83 204V202ZM110 205C104 210.333 99.6667 217.667 97 227L98 228L108 210C111.333 208 112 206.333 110 205ZM315 213L302 222L278 227L277 229L299 225L310 220L316 214L315 213ZM347 214L345 217L347 216V214ZM290 217V218H292L290 217ZM344 217L340 222L344 219V217ZM216 218L215 226L217 227L216 218ZM287 218L282 220L280 219L269 223L270 225L279 221L288 220C288.667 218 288.333 217.333 287 218ZM220 222L217 255C215 263.667 211 271 205 277L190 289L189 291L199 285C207 279 213 271 217 261L220 246V235L221 234L220 232L221 228L220 222ZM340 222C334 230 330 240 328 252L321 261H323L330 252L333 239H335C336.333 237.667 336.667 235.333 336 232L340 224V222ZM24 225L23 228H24V225ZM269 225L267 228L269 227V225ZM284 229V230H285L284 229ZM287 229L286 231H287V229ZM264 230L262 232H264V230ZM296 232L289 234L295 235H297L298 233L296 232ZM97 234C95 242.667 95.3333 250 98 256H99L97 249L98 246L97 245V234ZM87 236C85 245.333 85.6667 253 89 259H90L87 247V236ZM23 238V244H24L23 238ZM67 239L66 243H67V239ZM270 243L266 247C265.333 248.333 266 248.667 268 248L270 245V243ZM396 243L395 245H396V243ZM25 245L24 247H25V245ZM395 245L393 249L395 248V245ZM266 248L264 251L266 250V248ZM26 249V264H27V252L26 249ZM104 249C104 257.667 106.667 264.667 112 270C119.333 280.667 131 287.667 147 291H166C174 289.667 181 287 187 283L189 280L178 286L161 290C145 290 133 286.667 125 280L111 266L104 249ZM393 249L390 253L387 256L375 261L366 270L359 293L353 303C348.333 307.667 342.667 311.333 336 314C327.333 314.667 320 316.333 314 319L304 328C304.667 329.333 304.333 329.667 303 329L289 348C285 354 278.667 358 270 360V361H274L283 356C291 348.667 298 340.333 304 331L310 325L318 321C319.333 321.667 319.667 321.333 319 320C319.667 318 320.667 317.667 322 319L324 318C327.333 317.333 329.667 317.667 331 319L335 317C339.667 317.667 343.333 317 346 315L354 309C353.333 307 354 306.333 356 307L363 296L367 277L372 267L377 262L388 257L393 251V249ZM384 250L372 256L370 259L384 252V250ZM226 254L220 269L214 279C207.333 287 199 293.667 189 299L175 303L152 305L175 307L171 308L150 309H148L129 304L127 302L116 298L107 291C105 291.667 104.333 291 105 289C99 287 94 283 90 277L88 274L86 273L87 275C86.3333 276.333 87 276.667 89 276L95 285L116 300L133 307L134 310L136 309L147 312H162L179 308L196 300L207 291C215.667 283.667 221.667 273.667 225 261L226 258V254ZM100 256L99 259H100V256ZM323 256L321 259L324 257L323 256ZM318 259L312 262L304 264H308H310L320 260L318 259ZM368 260L360 271L361 273L368 262V260ZM252 261L250 263L251 267L252 263V261ZM303 263L299 265H303V263ZM93 264L92 266H93V264ZM96 264L95 266H96V264ZM276 264V265H277L276 264ZM285 264L283 267L287 265L285 264ZM97 266L96 268L98 269L97 266ZM250 268L249 271H250V268ZM257 268L256 271H257V268ZM86 270L85 272H86V270ZM100 270L99 272H100V270ZM271 270L270 272H271V270ZM314 270L315 272L317 271L314 270ZM105 271L104 273L109 280C111 280.667 111.333 281.667 110 283C116.667 289 124.667 293.667 134 297H135L119 287L105 271ZM249 271C245.667 280.333 241 288.333 235 295C229.667 301 223.333 306.333 216 311L213 313L223 305L229 298L225 300C223.667 298.667 222.667 299 222 301L224 302C217.333 308 209.667 313 201 317L180 323L164 325H162H153L152 324L147 325L154 327L158 326L161 327L189 324L201 320L208 316L220 312L231 303C238.333 295 244.333 285.667 249 275V271ZM37 272L36 277H37V272ZM75 272L74 274H75V272ZM79 272L78 274H79V272ZM23 273L22 278L26 295L33 307L40 315L52 324L57 325L59 329L62 328L64 332L75 339H76L49 316L53 322L51 321L44 313L40 311C34.6667 306.333 30.6667 300.333 28 293L23 273ZM360 273L349 297C345.667 301 341.667 304 337 306L326 309L313 310L297 320L295 323L291 324L283 336L269 346L244 351C240.667 351.667 239.667 350.667 241 348L235 351H230L221 354L203 367L189 370L178 369L172 367L169 368L183 372H193L201 370L222 360L225 359L228 360L241 358L239 356C231.667 354.667 226 355 222 357L220 358L230 353L256 357C266 356.333 274 353.667 280 349C286.667 343 292.333 336 297 328C296.333 326 297 325.333 299 326L300 323L313 314L320 313C320.667 310.333 321.667 310 323 312C333 311.333 341 308.333 347 303L355 291L360 276V273ZM310 274V275H311L310 274ZM35 275L34 277H35V275ZM104 275L103 277L110 282L104 275ZM53 276L62 302L69 311H71L66 305C63.3333 293 59 283.333 53 276ZM355 277L354 280H355V277ZM79 278L78 280L80 281L79 278ZM37 279L36 281H37V279ZM354 280L347 295L338 302L332 304L306 306L289 315L281 325L279 326L277 329L263 339L249 342V343H261C267 341 272.333 338 277 334L288 321L293 316L305 309L329 307L337 305L342 302C348 298 352 291.667 354 283V280ZM81 281L82 283C82.6667 281 82.3333 280.333 81 281ZM262 283L261 286H262V283ZM244 288L242 291L244 290V288ZM187 291L186 293L188 292L187 291ZM267 291L266 293L268 294L267 291ZM183 293L181 295H183V293ZM128 297C126.667 299 127 299.667 129 299L128 297ZM339 297L332 300H320L307 302L300 305V306L317 302H329L339 299V297ZM131 298L130 300H133L131 298ZM139 298V299H140L139 298ZM236 299L228 305L229 307L236 301V299ZM283 299L282 301L284 300L283 299ZM135 300V301H136L135 300ZM138 301V302H139L138 301ZM149 303C148.333 305 149 305.667 151 305C151.667 303 151 302.333 149 303ZM253 304L251 306H253V304ZM273 306L264 319C258 325 250.333 329 241 331V332L248 331L263 322L273 308V306ZM297 306V307H299L297 306ZM227 307L224 311L228 308L227 307ZM251 307L248 311L252 308L251 307ZM295 307V308H296L295 307ZM293 308V309H294L293 308ZM48 309L49 312C50.3333 311.333 50.6667 312 50 314L53 315V314L48 309ZM252 309L250 312L252 311V309ZM246 311L244 313H246V311ZM306 311L301 313L300 315L307 312L306 311ZM46 312L45 314H46V312ZM72 312L84 324C85.3333 323.333 85.6667 324 85 326L89 328L87 325L72 312ZM248 313L245 316C243 315.333 242.333 316.333 243 319L249 314L248 313ZM47 314L48 316C48.6667 314 48.3333 313.333 47 314ZM298 315L295 317L293 320L299 316L298 315ZM273 318V320L268 326L275 320C275.667 318 275 317.333 273 318ZM74 324C72.6667 326 73 326.667 75 326L74 324ZM78 328C76.6667 330 77 330.667 79 330L78 328ZM200 328V329H201L200 328ZM238 329V330H239L238 329ZM180 330L179 332L184 331L180 330ZM235 330V331H236L235 330ZM231 332L227 334H232C232.667 332 232.333 331.333 231 332ZM237 332V333H240L237 332ZM54 333L53 335L61 347L75 356H76L68 350L54 333ZM190 333V334H192L190 333ZM234 333V334H236L234 333ZM187 334L173 339L162 340V341H173L189 335L187 334ZM211 334V335H212L211 334ZM209 335L208 337L210 336L209 335ZM132 336V337H139L132 336ZM206 337L201 340L200 342L207 338L206 337ZM77 339L78 341H79L77 339ZM85 341L84 343L95 351H96L85 341ZM185 345V346H188L185 345ZM98 351V352C99.3333 351.333 99.6667 352 99 354L103 355H104C102.667 352.333 100.667 351 98 351ZM222 351V352H223L222 351ZM220 352V353H221L220 352ZM209 353V354H210L209 353ZM102 355L101 357H102V355ZM105 355L107 357H109L105 355ZM77 356L78 358L88 363V361L77 356ZM110 357V358H111L110 357ZM134 358V359H135L134 358ZM114 359V360H115L114 359ZM119 361V362H120L119 361ZM91 362V363H92L91 362ZM89 363L90 365H91L89 363ZM92 363V366L95 367H97L99 368H100L99 365L96 364L94 365V364L92 363ZM127 364L125 366H128L127 364ZM102 366L101 368H102V366ZM129 366L131 369L141 376L158 383H162L152 379L129 366ZM113 370L114 372C114.667 370 114.333 369.333 113 370ZM118 374L119 376H120L118 374ZM149 374L150 375L151 376C151.667 374 151 373.333 149 374ZM226 374L223 376H226V374ZM154 375L153 377H154V375ZM121 376L124 379H126L121 376ZM155 377V378L162 380H165L164 378L155 377ZM215 377L213 378L212 380L216 378L215 377ZM127 379C127 381 128.333 382 131 382H133L127 379ZM210 380V381H211L210 380ZM208 381L192 386H173L164 384H157L152 382L148 383L151 384L174 388C188.667 389.333 200.333 387.333 209 382L208 381ZM135 382V383H136L135 382ZM166 382V383H168L166 382Z" fill="#0A0A0A"/>
<path opacity="0.996078" d="M186.5 6L189 6.5L184.5 9L186.5 6Z" fill="#0A0A0A"/>
<path opacity="0.996078" d="M247.5 16L246.5 18L240.5 19V18L247.5 16Z" fill="#0A0A0A"/>
<path opacity="0.996078" d="M235.5 19L232.5 23L223.5 28L225.5 25L235.5 19Z" fill="#0A0A0A"/>
<path opacity="0.996078" d="M159.5 25L158 27.5L155.5 32L155 30.5L159.5 25Z" fill="#0A0A0A"/>
<path opacity="0.996078" d="M96.5 30L98 30.5L78 48.5L72.5 62L72 56.5C73 48.5 76.1667 42.6667 81.5 39L96.5 30Z" fill="#0A0A0A"/>
<path opacity="0.996078" d="M274.5 38L272.5 41C267.167 45.3333 258.833 46.6667 247.5 45V44C259.967 45.4667 268.967 43.4667 274.5 38Z" fill="#0A0A0A"/>
<path opacity="0.996078" d="M360.5 47L362 47.5C359.533 50.8333 355.533 52.3333 350 52C349.267 50.2 349.767 49.5333 351.5 50L360.5 47Z" fill="#0A0A0A"/>
<path opacity="0.996078" d="M337.5 49L340 49.5C329.8 52.6333 321.467 57.6333 315 64.5L306.5 75L304.5 76L306 73.5L321.5 56L337.5 49Z" fill="#0A0A0A"/>
<path opacity="0.996078" d="M220.5 68L221 69.5L219.5 72L218 71.5L219 73.5L216 74.5L215 77.5H217C214.8 81.3 211.3 83.8 206.5 85V84L215 78.5L213 77.5L220.5 68Z" fill="#0A0A0A"/>
<path opacity="0.996078" d="M67.5 71L67 72.5L64.5 84L64 76.5L67.5 71Z" fill="#0A0A0A"/>
<path opacity="0.996078" d="M206.5 80L208 80.5L177 100.5L175.5 103L174 102.5L176 99L172 101.5L163 116.5L157.5 122L160 118.5C163.067 108.567 168.233 100.733 175.5 95L198.5 85L206.5 80ZM181 93V94H182L181 93ZM177 98V99H178L177 98Z" fill="#0A0A0A"/>
<path opacity="0.996078" d="M355.5 81L356 82.5L341.5 100L327.5 106L307.5 107L305 105.5L306.5 105L307.5 106H315.5V105L308 104.5L328.5 102L334.5 99H336.5L344 96C343.267 94.2 343.767 93.5333 345.5 94L355.5 81ZM321 104V105H322L321 104Z" fill="#0A0A0A"/>
<path opacity="0.996078" d="M419.5 92L414.5 98L395.5 107L379.5 121L380 119.5L386 111L389.5 109L395.5 104L419.5 92Z" fill="#0A0A0A"/>
<path opacity="0.996078" d="M31.5 105L33 109.5L28.5 120L28 117.5L31.5 105Z" fill="#0A0A0A"/>
<path opacity="0.996078" d="M290.5 107L291.5 109L294.5 108V109L291.5 110L289.5 109L278 118.5L267.5 131L253.5 139L239.5 140V139C246.167 139.667 251.5 139 255.5 137C262.9 133.4 269.067 128.567 274 122.5L283.5 111L290.5 107Z" fill="#0A0A0A"/>
<path opacity="0.996078" d="M168.5 111L168 112.5C166.667 119.167 163.5 124 158.5 127L149.5 131L150.5 129C155.833 127.333 160 124.5 163 120.5L168.5 111Z" fill="#0A0A0A"/>
<path opacity="0.996078" d="M396.5 124L392.5 129L388.5 130L390.5 127L396.5 124Z" fill="#0A0A0A"/>
<path opacity="0.996078" d="M378.5 130C380.033 129.533 380.533 130.033 380 131.5C377.067 135.9 372.9 139.067 367.5 141L371.5 136L375 133.5C374.533 132.033 375.033 131.533 376.5 132L378.5 130Z" fill="#0A0A0A"/>
<path opacity="0.996078" d="M155.5 142C163.1 140.733 168.267 141.9 171 145.5L169.5 146H167.5H159.5L141.5 153L133.5 154V153L141 150.5L140.5 149L155.5 142Z" fill="#0A0A0A"/>
<path opacity="0.996078" d="M355.5 149L357 149.5C352.2 155.033 345.033 158.2 335.5 159L322.5 170L322 168.5C323 163.833 325.167 160.333 328.5 158L335.5 154C343.767 153.933 350.433 152.267 355.5 149Z" fill="#0A0A0A"/>
<path opacity="0.996078" d="M123.5 154L126 154.5L107.5 161L101.5 165L104.5 161L110.5 157L123.5 154Z" fill="#0A0A0A"/>
<path opacity="0.996078" d="M141.5 155L143 155.5L134.5 160L126.5 161L104.5 170L88.5 183L88 181.5C94.8667 173.367 103.367 166.867 113.5 162L119.5 161L128.5 157L141.5 155Z" fill="#0A0A0A"/>
<path opacity="0.996078" d="M102.5 160L97.5 166C96.0333 165.533 95.5333 166.033 96 167.5L97 168.5L92.5 173L95.5 168L91 171.5L89.5 174L86 175L84.5 178L78.5 183L79.5 180L75.5 183L74.5 182L71 185.5L69 189.5L72 187.5L74.5 184L75 185.5L69 193.5L64.5 206L64 201.5L65 198.5H64L63.5 200L63 198.5C65.3333 190.833 69.1667 184.667 74.5 180L82 176L88.5 167L102.5 160ZM69 190L68 192H69V190ZM68 192L65 196L66 198L68 194V192Z" fill="#0A0A0A"/>
<path opacity="0.996078" d="M411.5 175L408 179.5L400 202.5L392.5 212L392 210.5L398 199.5C398.2 192.367 399.867 186.7 403 182.5L409.5 176L411.5 175Z" fill="#0A0A0A"/>
<path opacity="0.996078" d="M50.5 184L51 188.5L46.5 207L46 202.5L50.5 184Z" fill="#0A0A0A"/>
<path opacity="0.996078" d="M358.5 199L357.5 201L349.5 204V203L358.5 199Z" fill="#0A0A0A"/>
<path opacity="0.996078" d="M35.4998 200L35.9998 201.5L31.9998 215.5L28.9998 219.5V233.5C30.6665 234.5 30.9998 236.833 29.9998 240.5H28.9998C26.6665 234.5 25.9998 226.833 26.9998 217.5L35.4998 200Z" fill="#0A0A0A"/>
<path opacity="0.996078" d="M3.5 202L4 204.5C1.93333 209.767 0.933333 216.1 1 223.5L2 224.5L3 237.5L8 253.5H7L1 236.5L0 216.5L3.5 202Z" fill="#0A0A0A"/>
<path opacity="0.996078" d="M346.5 204L348 204.5L343.5 207L344.5 205L346.5 204Z" fill="#0A0A0A"/>
<path opacity="0.996078" d="M336.5 209L334.5 212C333.033 211.533 332.533 212.033 333 213.5L328 217.5L334.5 210L336.5 209Z" fill="#0A0A0A"/>
<path opacity="0.996078" d="M58.5 223L59 227.5L58 228.5V243.5L59 244.5L60 257.5L58 258.5L55 246.5L56 244.5L55 238.5L57 229.5V227.5L58.5 223Z" fill="#0A0A0A"/>
<path opacity="0.996078" d="M379.5 224L381 224.5L356.5 239L356 236.5C361.667 230.167 369.5 226 379.5 224Z" fill="#0A0A0A"/>
<path opacity="0.996078" d="M237.5 227L239 239.5H238L237.5 227Z" fill="#0A0A0A"/>
<path opacity="0.996078" d="M317.5 232L318 233.5C315.267 237.433 311.433 240.267 306.5 242L285.5 246L276.5 252L269 259.5L265.5 264L265 262.5C267.067 255.5 270.9 250.333 276.5 247L296.5 239H301.5L311.5 236L317.5 232Z" fill="#0A0A0A"/>
<path opacity="0.996078" d="M319.5 238L318 240.5L315.5 244L309.5 248C298.567 250.4 288.9 254.067 280.5 259L283.5 255C289.3 250.467 296.967 247.8 306.5 247L319.5 238Z" fill="#0A0A0A"/>
<path opacity="0.996078" d="M238 241L241 242.5L237.5 261L237 253.5L238 252.5V241Z" fill="#0A0A0A"/>
<path opacity="0.996078" d="M4.5 259L7 265.5L8 276.5L12 294.5L10 293.5L7 284.5L4.5 259Z" fill="#0A0A0A"/>
<path opacity="0.996078" d="M240.5 265L241 267.5C235.467 280.967 227.3 291.8 216.5 300L200.5 309L189.5 312V311C203.7 307.2 215.2 300.7 224 291.5C231.4 284.567 236.9 275.733 240.5 265Z" fill="#0A0A0A"/>
<path opacity="0.996078" d="M61.5 268C65.3667 276.867 70.2 284.7 76 291.5H74L75.5 294C76.7 292.2 77.8667 292.7 79 295.5L81.5 299L84 300.5L100 318.5L98.5 319L80 302.5L67 283.5L61 270.5L61.5 268ZM78 296L77 298L84 303L78 296Z" fill="#0A0A0A"/>
<path opacity="0.996078" d="M68.5 289L78 301.5L74 298.5L68.5 289Z" fill="#0A0A0A"/>
<path opacity="0.996078" d="M379.5 301L380 302.5L371 321.5L360.5 332C355.7 334.533 349.033 335.2 340.5 334V333L350.5 332L356.5 330L370 319.5L379.5 301Z" fill="#0A0A0A"/>
<path opacity="0.996078" d="M91.5 322L124.5 348L131.5 351L140 352.5L134.5 353L131.5 352L123.5 351L114.5 347L101 335.5L103 335C103.867 333 103.033 332.333 100.5 333L97 328C95.2 328.733 94.5333 328.233 95 326.5L91.5 322Z" fill="#0A0A0A"/>
<path opacity="0.996078" d="M121.5 327L133 328C132.067 330.467 133.567 331.133 137.5 330L140.5 331L144.5 330C145.7 331.867 148.367 332.2 152.5 331L154 332.5L151.5 333L150.5 332L131.5 331L121.5 328V327Z" fill="#0A0A0A"/>
<path opacity="0.996078" d="M292.5 330L291 332.5L278.5 346L267.5 351V350C274.233 348.4 279.4 345.233 283 340.5L292.5 330Z" fill="#0A0A0A"/>
<path opacity="0.996078" d="M327.5 337L332 337.5L317.5 343L318.5 341L327.5 337Z" fill="#0A0A0A"/>
<path opacity="0.996078" d="M122.5 343L136 349.5L134.5 350L123.5 345L122.5 343Z" fill="#0A0A0A"/>
<path opacity="0.996078" d="M322.5 350L329 350.5L317.5 356C313.1 363.267 306.433 368.267 297.5 371L300.5 367L313.5 355L322.5 350Z" fill="#0A0A0A"/>
<path opacity="0.996078" d="M62.5 365L72.5 373H76.5L87.5 378C94.1667 385.667 102.333 391.833 112 396.5L110.5 396C100.833 393 93.1667 388 87.5 381L73.5 376L62.5 365Z" fill="#0A0A0A"/>
<path opacity="0.996078" d="M240.5 390L250 393.5L248.5 394L241.5 392L240.5 390Z" fill="#0A0A0A"/>
<path opacity="0.996078" d="M225.5 395H236.5L238 396.5L235.5 397L230.5 396C222.367 398.2 215.367 401.533 209.5 406L194.5 408V407L204.5 405L225.5 395Z" fill="#0A0A0A"/>
<path opacity="0.996078" d="M120.5 396L126.5 397L129.5 399H137.5L146.5 401L164.5 409L181 409.5C177.067 411.9 171.567 412.733 164.5 412L138.5 403L126.5 401L120.5 396Z" fill="#0A0A0A"/>
<path opacity="0.996078" d="M116.5 166L117 168.5H116L116.5 166Z" fill="#636363"/>
</svg>
